<?xml version="1.0" encoding="utf-8" standalone="no"?>
<!DOCTYPE svg PUBLIC "-//W3C//DTD SVG 1.1//EN"
  "http://www.w3.org/Graphics/SVG/1.1/DTD/svg11.dtd">
<svg xmlns:xlink="http://www.w3.org/1999/xlink" width="460.8pt" height="345.6pt" viewBox="0 0 460.8 345.6" xmlns="http://www.w3.org/2000/svg" version="1.1">
 <metadata>
  <rdf:RDF xmlns:dc="http://purl.org/dc/elements/1.1/" xmlns:cc="http://creativecommons.org/ns#" xmlns:rdf="http://www.w3.org/1999/02/22-rdf-syntax-ns#">
   <cc:Work>
    <dc:type rdf:resource="http://purl.org/dc/dcmitype/StillImage"/>
    <dc:date>2024-09-08T13:35:16.554453</dc:date>
    <dc:format>image/svg+xml</dc:format>
    <dc:creator>
     <cc:Agent>
      <dc:title>Matplotlib v3.8.3, https://matplotlib.org/</dc:title>
     </cc:Agent>
    </dc:creator>
   </cc:Work>
  </rdf:RDF>
 </metadata>
 <defs>
  <style type="text/css">*{stroke-linejoin: round; stroke-linecap: butt}</style>
 </defs>
 <g id="figure_1">
  <g id="patch_1">
   <path d="M 0 345.6 
L 460.8 345.6 
L 460.8 0 
L 0 0 
z
" style="fill: #ffffff"/>
  </g>
  <g id="axes_1">
   <g id="patch_2">
    <path d="M 57.6 307.584 
L 414.72 307.584 
L 414.72 41.472 
L 57.6 41.472 
z
" style="fill: #ffffff"/>
   </g>
   <g id="matplotlib.axis_1">
    <g id="xtick_1">
     <g id="line2d_1">
      <defs>
       <path id="m334bbc55ba" d="M 0 0 
L 0 3.5 
" style="stroke: #000000; stroke-width: 0.8"/>
      </defs>
      <g>
       <use xlink:href="#m334bbc55ba" x="73.832727" y="307.584" style="stroke: #000000; stroke-width: 0.8"/>
      </g>
     </g>
     <g id="text_1">
      <!-- 0 -->
      <g transform="translate(70.651477 322.182437) scale(0.1 -0.1)">
       <defs>
        <path id="DejaVuSans-30" d="M 2034 4250 
Q 1547 4250 1301 3770 
Q 1056 3291 1056 2328 
Q 1056 1369 1301 889 
Q 1547 409 2034 409 
Q 2525 409 2770 889 
Q 3016 1369 3016 2328 
Q 3016 3291 2770 3770 
Q 2525 4250 2034 4250 
z
M 2034 4750 
Q 2819 4750 3233 4129 
Q 3647 3509 3647 2328 
Q 3647 1150 3233 529 
Q 2819 -91 2034 -91 
Q 1250 -91 836 529 
Q 422 1150 422 2328 
Q 422 3509 836 4129 
Q 1250 4750 2034 4750 
z
" transform="scale(0.015625)"/>
       </defs>
       <use xlink:href="#DejaVuSans-30"/>
      </g>
     </g>
    </g>
    <g id="xtick_2">
     <g id="line2d_2">
      <g>
       <use xlink:href="#m334bbc55ba" x="118.003414" y="307.584" style="stroke: #000000; stroke-width: 0.8"/>
      </g>
     </g>
     <g id="text_2">
      <!-- 20 -->
      <g transform="translate(111.640914 322.182437) scale(0.1 -0.1)">
       <defs>
        <path id="DejaVuSans-32" d="M 1228 531 
L 3431 531 
L 3431 0 
L 469 0 
L 469 531 
Q 828 903 1448 1529 
Q 2069 2156 2228 2338 
Q 2531 2678 2651 2914 
Q 2772 3150 2772 3378 
Q 2772 3750 2511 3984 
Q 2250 4219 1831 4219 
Q 1534 4219 1204 4116 
Q 875 4013 500 3803 
L 500 4441 
Q 881 4594 1212 4672 
Q 1544 4750 1819 4750 
Q 2544 4750 2975 4387 
Q 3406 4025 3406 3419 
Q 3406 3131 3298 2873 
Q 3191 2616 2906 2266 
Q 2828 2175 2409 1742 
Q 1991 1309 1228 531 
z
" transform="scale(0.015625)"/>
       </defs>
       <use xlink:href="#DejaVuSans-32"/>
       <use xlink:href="#DejaVuSans-30" x="63.623047"/>
      </g>
     </g>
    </g>
    <g id="xtick_3">
     <g id="line2d_3">
      <g>
       <use xlink:href="#m334bbc55ba" x="162.1741" y="307.584" style="stroke: #000000; stroke-width: 0.8"/>
      </g>
     </g>
     <g id="text_3">
      <!-- 40 -->
      <g transform="translate(155.8116 322.182437) scale(0.1 -0.1)">
       <defs>
        <path id="DejaVuSans-34" d="M 2419 4116 
L 825 1625 
L 2419 1625 
L 2419 4116 
z
M 2253 4666 
L 3047 4666 
L 3047 1625 
L 3713 1625 
L 3713 1100 
L 3047 1100 
L 3047 0 
L 2419 0 
L 2419 1100 
L 313 1100 
L 313 1709 
L 2253 4666 
z
" transform="scale(0.015625)"/>
       </defs>
       <use xlink:href="#DejaVuSans-34"/>
       <use xlink:href="#DejaVuSans-30" x="63.623047"/>
      </g>
     </g>
    </g>
    <g id="xtick_4">
     <g id="line2d_4">
      <g>
       <use xlink:href="#m334bbc55ba" x="206.344787" y="307.584" style="stroke: #000000; stroke-width: 0.8"/>
      </g>
     </g>
     <g id="text_4">
      <!-- 60 -->
      <g transform="translate(199.982287 322.182437) scale(0.1 -0.1)">
       <defs>
        <path id="DejaVuSans-36" d="M 2113 2584 
Q 1688 2584 1439 2293 
Q 1191 2003 1191 1497 
Q 1191 994 1439 701 
Q 1688 409 2113 409 
Q 2538 409 2786 701 
Q 3034 994 3034 1497 
Q 3034 2003 2786 2293 
Q 2538 2584 2113 2584 
z
M 3366 4563 
L 3366 3988 
Q 3128 4100 2886 4159 
Q 2644 4219 2406 4219 
Q 1781 4219 1451 3797 
Q 1122 3375 1075 2522 
Q 1259 2794 1537 2939 
Q 1816 3084 2150 3084 
Q 2853 3084 3261 2657 
Q 3669 2231 3669 1497 
Q 3669 778 3244 343 
Q 2819 -91 2113 -91 
Q 1303 -91 875 529 
Q 447 1150 447 2328 
Q 447 3434 972 4092 
Q 1497 4750 2381 4750 
Q 2619 4750 2861 4703 
Q 3103 4656 3366 4563 
z
" transform="scale(0.015625)"/>
       </defs>
       <use xlink:href="#DejaVuSans-36"/>
       <use xlink:href="#DejaVuSans-30" x="63.623047"/>
      </g>
     </g>
    </g>
    <g id="xtick_5">
     <g id="line2d_5">
      <g>
       <use xlink:href="#m334bbc55ba" x="250.515473" y="307.584" style="stroke: #000000; stroke-width: 0.8"/>
      </g>
     </g>
     <g id="text_5">
      <!-- 80 -->
      <g transform="translate(244.152973 322.182437) scale(0.1 -0.1)">
       <defs>
        <path id="DejaVuSans-38" d="M 2034 2216 
Q 1584 2216 1326 1975 
Q 1069 1734 1069 1313 
Q 1069 891 1326 650 
Q 1584 409 2034 409 
Q 2484 409 2743 651 
Q 3003 894 3003 1313 
Q 3003 1734 2745 1975 
Q 2488 2216 2034 2216 
z
M 1403 2484 
Q 997 2584 770 2862 
Q 544 3141 544 3541 
Q 544 4100 942 4425 
Q 1341 4750 2034 4750 
Q 2731 4750 3128 4425 
Q 3525 4100 3525 3541 
Q 3525 3141 3298 2862 
Q 3072 2584 2669 2484 
Q 3125 2378 3379 2068 
Q 3634 1759 3634 1313 
Q 3634 634 3220 271 
Q 2806 -91 2034 -91 
Q 1263 -91 848 271 
Q 434 634 434 1313 
Q 434 1759 690 2068 
Q 947 2378 1403 2484 
z
M 1172 3481 
Q 1172 3119 1398 2916 
Q 1625 2713 2034 2713 
Q 2441 2713 2670 2916 
Q 2900 3119 2900 3481 
Q 2900 3844 2670 4047 
Q 2441 4250 2034 4250 
Q 1625 4250 1398 4047 
Q 1172 3844 1172 3481 
z
" transform="scale(0.015625)"/>
       </defs>
       <use xlink:href="#DejaVuSans-38"/>
       <use xlink:href="#DejaVuSans-30" x="63.623047"/>
      </g>
     </g>
    </g>
    <g id="xtick_6">
     <g id="line2d_6">
      <g>
       <use xlink:href="#m334bbc55ba" x="294.68616" y="307.584" style="stroke: #000000; stroke-width: 0.8"/>
      </g>
     </g>
     <g id="text_6">
      <!-- 100 -->
      <g transform="translate(285.14241 322.182437) scale(0.1 -0.1)">
       <defs>
        <path id="DejaVuSans-31" d="M 794 531 
L 1825 531 
L 1825 4091 
L 703 3866 
L 703 4441 
L 1819 4666 
L 2450 4666 
L 2450 531 
L 3481 531 
L 3481 0 
L 794 0 
L 794 531 
z
" transform="scale(0.015625)"/>
       </defs>
       <use xlink:href="#DejaVuSans-31"/>
       <use xlink:href="#DejaVuSans-30" x="63.623047"/>
       <use xlink:href="#DejaVuSans-30" x="127.246094"/>
      </g>
     </g>
    </g>
    <g id="xtick_7">
     <g id="line2d_7">
      <g>
       <use xlink:href="#m334bbc55ba" x="338.856846" y="307.584" style="stroke: #000000; stroke-width: 0.8"/>
      </g>
     </g>
     <g id="text_7">
      <!-- 120 -->
      <g transform="translate(329.313096 322.182437) scale(0.1 -0.1)">
       <use xlink:href="#DejaVuSans-31"/>
       <use xlink:href="#DejaVuSans-32" x="63.623047"/>
       <use xlink:href="#DejaVuSans-30" x="127.246094"/>
      </g>
     </g>
    </g>
    <g id="xtick_8">
     <g id="line2d_8">
      <g>
       <use xlink:href="#m334bbc55ba" x="383.027532" y="307.584" style="stroke: #000000; stroke-width: 0.8"/>
      </g>
     </g>
     <g id="text_8">
      <!-- 140 -->
      <g transform="translate(373.483782 322.182437) scale(0.1 -0.1)">
       <use xlink:href="#DejaVuSans-31"/>
       <use xlink:href="#DejaVuSans-34" x="63.623047"/>
       <use xlink:href="#DejaVuSans-30" x="127.246094"/>
      </g>
     </g>
    </g>
   </g>
   <g id="matplotlib.axis_2">
    <g id="ytick_1">
     <g id="line2d_9">
      <defs>
       <path id="mba4acf3ea5" d="M 0 0 
L -3.5 0 
" style="stroke: #000000; stroke-width: 0.8"/>
      </defs>
      <g>
       <use xlink:href="#mba4acf3ea5" x="57.6" y="292.95055" style="stroke: #000000; stroke-width: 0.8"/>
      </g>
     </g>
     <g id="text_9">
      <!-- −300 -->
      <g transform="translate(23.132812 296.749769) scale(0.1 -0.1)">
       <defs>
        <path id="DejaVuSans-2212" d="M 678 2272 
L 4684 2272 
L 4684 1741 
L 678 1741 
L 678 2272 
z
" transform="scale(0.015625)"/>
        <path id="DejaVuSans-33" d="M 2597 2516 
Q 3050 2419 3304 2112 
Q 3559 1806 3559 1356 
Q 3559 666 3084 287 
Q 2609 -91 1734 -91 
Q 1441 -91 1130 -33 
Q 819 25 488 141 
L 488 750 
Q 750 597 1062 519 
Q 1375 441 1716 441 
Q 2309 441 2620 675 
Q 2931 909 2931 1356 
Q 2931 1769 2642 2001 
Q 2353 2234 1838 2234 
L 1294 2234 
L 1294 2753 
L 1863 2753 
Q 2328 2753 2575 2939 
Q 2822 3125 2822 3475 
Q 2822 3834 2567 4026 
Q 2313 4219 1838 4219 
Q 1578 4219 1281 4162 
Q 984 4106 628 3988 
L 628 4550 
Q 988 4650 1302 4700 
Q 1616 4750 1894 4750 
Q 2613 4750 3031 4423 
Q 3450 4097 3450 3541 
Q 3450 3153 3228 2886 
Q 3006 2619 2597 2516 
z
" transform="scale(0.015625)"/>
       </defs>
       <use xlink:href="#DejaVuSans-2212"/>
       <use xlink:href="#DejaVuSans-33" x="83.789062"/>
       <use xlink:href="#DejaVuSans-30" x="147.412109"/>
       <use xlink:href="#DejaVuSans-30" x="211.035156"/>
      </g>
     </g>
    </g>
    <g id="ytick_2">
     <g id="line2d_10">
      <g>
       <use xlink:href="#mba4acf3ea5" x="57.6" y="254.965974" style="stroke: #000000; stroke-width: 0.8"/>
      </g>
     </g>
     <g id="text_10">
      <!-- −200 -->
      <g transform="translate(23.132812 258.765193) scale(0.1 -0.1)">
       <use xlink:href="#DejaVuSans-2212"/>
       <use xlink:href="#DejaVuSans-32" x="83.789062"/>
       <use xlink:href="#DejaVuSans-30" x="147.412109"/>
       <use xlink:href="#DejaVuSans-30" x="211.035156"/>
      </g>
     </g>
    </g>
    <g id="ytick_3">
     <g id="line2d_11">
      <g>
       <use xlink:href="#mba4acf3ea5" x="57.6" y="216.981398" style="stroke: #000000; stroke-width: 0.8"/>
      </g>
     </g>
     <g id="text_11">
      <!-- −100 -->
      <g transform="translate(23.132812 220.780617) scale(0.1 -0.1)">
       <use xlink:href="#DejaVuSans-2212"/>
       <use xlink:href="#DejaVuSans-31" x="83.789062"/>
       <use xlink:href="#DejaVuSans-30" x="147.412109"/>
       <use xlink:href="#DejaVuSans-30" x="211.035156"/>
      </g>
     </g>
    </g>
    <g id="ytick_4">
     <g id="line2d_12">
      <g>
       <use xlink:href="#mba4acf3ea5" x="57.6" y="178.996822" style="stroke: #000000; stroke-width: 0.8"/>
      </g>
     </g>
     <g id="text_12">
      <!-- 0 -->
      <g transform="translate(44.2375 182.796041) scale(0.1 -0.1)">
       <use xlink:href="#DejaVuSans-30"/>
      </g>
     </g>
    </g>
    <g id="ytick_5">
     <g id="line2d_13">
      <g>
       <use xlink:href="#mba4acf3ea5" x="57.6" y="141.012246" style="stroke: #000000; stroke-width: 0.8"/>
      </g>
     </g>
     <g id="text_13">
      <!-- 100 -->
      <g transform="translate(31.5125 144.811465) scale(0.1 -0.1)">
       <use xlink:href="#DejaVuSans-31"/>
       <use xlink:href="#DejaVuSans-30" x="63.623047"/>
       <use xlink:href="#DejaVuSans-30" x="127.246094"/>
      </g>
     </g>
    </g>
    <g id="ytick_6">
     <g id="line2d_14">
      <g>
       <use xlink:href="#mba4acf3ea5" x="57.6" y="103.02767" style="stroke: #000000; stroke-width: 0.8"/>
      </g>
     </g>
     <g id="text_14">
      <!-- 200 -->
      <g transform="translate(31.5125 106.826888) scale(0.1 -0.1)">
       <use xlink:href="#DejaVuSans-32"/>
       <use xlink:href="#DejaVuSans-30" x="63.623047"/>
       <use xlink:href="#DejaVuSans-30" x="127.246094"/>
      </g>
     </g>
    </g>
    <g id="ytick_7">
     <g id="line2d_15">
      <g>
       <use xlink:href="#mba4acf3ea5" x="57.6" y="65.043094" style="stroke: #000000; stroke-width: 0.8"/>
      </g>
     </g>
     <g id="text_15">
      <!-- 300 -->
      <g transform="translate(31.5125 68.842312) scale(0.1 -0.1)">
       <use xlink:href="#DejaVuSans-33"/>
       <use xlink:href="#DejaVuSans-30" x="63.623047"/>
       <use xlink:href="#DejaVuSans-30" x="127.246094"/>
      </g>
     </g>
    </g>
   </g>
   <g id="line2d_16">
    <path d="M 73.832727 186.111899 
L 76.041262 184.077633 
L 78.249796 178.707977 
L 80.45833 182.176217 
L 82.666865 181.909172 
L 84.875399 183.368753 
L 87.083933 182.356215 
L 89.292468 185.58987 
L 91.501002 182.325082 
L 93.709536 184.13787 
L 95.918071 182.347797 
L 98.126605 184.704596 
L 100.335139 180.415141 
L 102.543673 181.312868 
L 104.752208 180.447596 
L 106.960742 182.169133 
L 109.169276 178.305283 
L 111.377811 181.384477 
L 113.586345 185.893346 
L 115.794879 186.423276 
L 118.003414 181.635946 
L 120.211948 185.318852 
L 122.420482 195.037792 
L 124.629017 186.196305 
L 126.837551 186.454984 
L 129.046085 185.500128 
L 131.25462 183.24061 
L 133.463154 183.459268 
L 135.671688 185.911915 
L 137.880223 187.970307 
L 140.088757 182.535414 
L 142.297291 181.365059 
L 144.505826 185.801833 
L 146.71436 184.082806 
L 148.922894 182.551523 
L 151.131429 185.10366 
L 153.339963 178.357701 
L 155.548497 188.608299 
L 157.757032 183.469494 
L 159.965566 185.826872 
L 162.1741 180.016409 
L 164.382635 184.375321 
L 166.591169 184.405493 
L 168.799703 184.303046 
L 171.008237 184.331905 
L 173.216772 184.089419 
L 175.425306 187.108214 
L 177.63384 185.041131 
L 179.842375 183.97706 
L 182.050909 187.502631 
L 184.259443 176.521261 
L 186.467978 180.25809 
L 188.676512 193.514884 
L 190.885046 201.395888 
L 193.093581 207.969364 
L 195.302115 195.664265 
L 197.510649 192.834811 
L 199.719184 196.528888 
L 201.927718 199.608444 
L 204.136252 188.979388 
L 206.344787 189.869102 
L 208.553321 186.676542 
L 210.761855 194.755126 
L 212.97039 194.363008 
L 215.178924 185.861642 
L 217.387458 188.025104 
L 219.595993 199.586743 
L 221.804527 179.805176 
L 224.013061 191.319439 
L 226.221596 182.690871 
L 228.43013 189.711483 
L 230.638664 186.227505 
L 232.847199 187.835183 
L 235.055733 188.571563 
L 237.264267 187.366047 
L 239.472801 188.058621 
L 241.681336 183.05691 
L 243.88987 188.803717 
L 246.098404 188.686353 
L 248.306939 190.053386 
L 250.515473 188.738752 
L 252.724007 184.559919 
L 254.932542 184.131275 
L 257.141076 182.507551 
L 259.34961 184.567286 
L 261.558145 188.426272 
L 263.766679 189.558219 
L 265.975213 186.044155 
L 268.183748 187.83964 
L 270.392282 185.347235 
L 272.600816 187.229696 
L 274.809351 182.068972 
L 277.017885 189.673725 
L 279.226419 187.092619 
L 281.434954 184.071653 
L 283.643488 180.125864 
L 285.852022 180.681738 
L 288.060557 193.939434 
L 290.269091 177.246164 
L 292.477625 193.8887 
L 294.68616 184.04277 
L 296.894694 185.375954 
L 299.103228 188.648048 
L 301.311763 192.267558 
L 303.520297 186.76365 
L 305.728831 174.09607 
L 307.937365 184.871512 
L 310.1459 199.66339 
L 312.354434 178.728747 
L 314.562968 194.654051 
L 316.771503 182.416116 
L 318.980037 197.776362 
L 321.188571 198.89564 
L 323.397106 194.141673 
L 325.60564 187.365329 
L 327.814174 183.264328 
L 330.022709 195.05188 
L 332.231243 189.451616 
L 334.439777 190.394878 
L 336.648312 198.567322 
L 338.856846 193.326565 
L 341.06538 181.029878 
L 343.273915 186.794763 
L 347.690983 194.58737 
L 349.899518 193.427028 
L 352.108052 179.471203 
L 354.316586 185.473812 
L 356.525121 188.401356 
L 358.733655 190.404164 
L 360.942189 188.844852 
L 363.150724 189.577893 
L 365.359258 191.899213 
L 367.567792 194.768184 
L 369.776327 192.517895 
L 371.984861 199.175558 
L 374.193395 197.938076 
L 376.401929 188.607984 
L 378.610464 183.658686 
L 380.818998 182.127386 
L 383.027532 178.396716 
L 385.236067 183.667047 
L 387.444601 184.979187 
L 389.653135 187.277826 
L 391.86167 189.14562 
L 394.070204 189.206422 
L 396.278738 192.587106 
L 398.487273 191.325968 
L 398.487273 191.325968 
" clip-path="url(#p7659abf33d)" style="fill: none; stroke: #008000; stroke-opacity: 0.8; stroke-width: 0.5; stroke-linecap: square"/>
   </g>
   <g id="line2d_17">
    <path d="M 73.832727 170.455797 
L 76.041262 172.297051 
L 78.249796 157.361234 
L 80.45833 154.560665 
L 82.666865 167.878055 
L 84.875399 174.972249 
L 87.083933 173.110275 
L 89.292468 174.100288 
L 91.501002 176.08787 
L 93.709536 167.734162 
L 95.918071 172.206113 
L 98.126605 176.222974 
L 100.335139 171.990111 
L 102.543673 173.964577 
L 104.752208 172.967863 
L 106.960742 177.408196 
L 109.169276 144.57039 
L 111.377811 160.761119 
L 113.586345 166.265255 
L 115.794879 164.603804 
L 118.003414 147.914891 
L 120.211948 168.813148 
L 122.420482 171.663214 
L 124.629017 168.494748 
L 126.837551 170.1792 
L 129.046085 178.054719 
L 131.25462 172.304338 
L 133.463154 163.044598 
L 135.671688 180.292366 
L 137.880223 184.246313 
L 140.088757 160.594853 
L 142.297291 152.643631 
L 144.505826 169.414795 
L 146.71436 175.607167 
L 148.922894 170.056016 
L 151.131429 176.915058 
L 153.339963 151.572303 
L 155.548497 149.586114 
L 157.757032 156.512197 
L 159.965566 178.129516 
L 162.1741 167.455483 
L 164.382635 163.206131 
L 166.591169 176.709525 
L 168.799703 175.658001 
L 171.008237 176.359283 
L 173.216772 173.751802 
L 175.425306 181.298953 
L 177.63384 176.202804 
L 179.842375 164.444241 
L 182.050909 163.267004 
L 184.259443 144.972196 
L 186.467978 107.043699 
L 188.676512 60.764713 
L 190.885046 146.812024 
L 193.093581 158.023168 
L 195.302115 148.201216 
L 197.510649 167.536682 
L 199.719184 175.788349 
L 201.927718 124.519425 
L 204.136252 141.393065 
L 206.344787 167.750475 
L 208.553321 168.033387 
L 210.761855 183.375676 
L 212.97039 182.260893 
L 215.178924 139.906307 
L 217.387458 156.397842 
L 219.595993 175.71273 
L 221.804527 161.266988 
L 224.013061 142.04005 
L 226.221596 166.962758 
L 228.43013 174.544133 
L 230.638664 174.244817 
L 232.847199 165.142416 
L 235.055733 175.566698 
L 237.264267 147.717696 
L 239.472801 178.102689 
L 241.681336 151.068597 
L 246.098404 174.15879 
L 248.306939 180.456735 
L 250.515473 176.875456 
L 252.724007 152.570855 
L 254.932542 176.012955 
L 257.141076 173.738229 
L 259.34961 157.711348 
L 261.558145 172.556525 
L 263.766679 159.64177 
L 265.975213 178.127969 
L 268.183748 171.668872 
L 270.392282 171.211808 
L 274.809351 144.273001 
L 277.017885 171.167634 
L 279.226419 171.605763 
L 281.434954 173.115474 
L 283.643488 136.562147 
L 285.852022 160.34683 
L 288.060557 180.019797 
L 290.269091 149.430459 
L 292.477625 159.35026 
L 294.68616 145.531956 
L 296.894694 149.932964 
L 299.103228 140.941396 
L 301.311763 159.927439 
L 303.520297 164.214844 
L 305.728831 128.50619 
L 307.937365 116.765707 
L 310.1459 125.866664 
L 312.354434 134.384741 
L 314.562968 145.186017 
L 316.771503 167.237844 
L 318.980037 170.960934 
L 321.188571 176.249901 
L 323.397106 161.625522 
L 325.60564 133.486759 
L 327.814174 117.014561 
L 330.022709 165.247259 
L 332.231243 152.443878 
L 334.439777 147.501339 
L 336.648312 165.380162 
L 338.856846 166.459958 
L 341.06538 149.704989 
L 343.273915 163.886192 
L 345.482449 161.999659 
L 347.690983 171.830548 
L 349.899518 172.411172 
L 352.108052 150.685385 
L 354.316586 153.455676 
L 356.525121 160.825709 
L 358.733655 178.084371 
L 360.942189 161.668214 
L 363.150724 172.654825 
L 365.359258 173.917675 
L 367.567792 179.419874 
L 369.776327 179.602823 
L 371.984861 187.494739 
L 374.193395 178.911376 
L 376.401929 169.177013 
L 378.610464 158.365823 
L 380.818998 159.897517 
L 383.027532 158.249549 
L 385.236067 160.879444 
L 387.444601 156.327597 
L 389.653135 160.606018 
L 391.86167 170.145918 
L 394.070204 178.898111 
L 396.278738 176.539185 
L 398.487273 166.291989 
L 398.487273 166.291989 
" clip-path="url(#p7659abf33d)" style="fill: none; stroke: #32cd32; stroke-opacity: 0.8; stroke-width: 0.5; stroke-linecap: square"/>
   </g>
   <g id="line2d_18">
    <path d="M 73.832727 204.76111 
L 76.041262 200.719236 
L 78.249796 214.1541 
L 80.45833 199.224495 
L 82.666865 194.218118 
L 84.875399 194.6284 
L 87.083933 188.679921 
L 89.292468 195.5945 
L 91.501002 186.773645 
L 93.709536 191.672796 
L 95.918071 190.024333 
L 98.126605 195.684791 
L 100.335139 188.274045 
L 102.543673 188.206063 
L 104.752208 187.472223 
L 106.960742 188.386206 
L 109.169276 207.68442 
L 111.377811 208.513481 
L 113.586345 204.096372 
L 115.794879 209.043926 
L 118.003414 198.775891 
L 120.211948 237.717119 
L 122.420482 224.299911 
L 124.629017 198.612379 
L 126.837551 194.890777 
L 129.046085 198.422196 
L 131.25462 196.459271 
L 133.463154 196.336752 
L 135.671688 194.709868 
L 137.880223 194.220972 
L 140.088757 198.446147 
L 142.297291 193.704478 
L 144.505826 206.911702 
L 146.71436 194.08188 
L 148.922894 190.86722 
L 151.131429 191.582082 
L 153.339963 191.922888 
L 155.548497 207.899839 
L 157.757032 200.074514 
L 159.965566 199.899728 
L 162.1741 191.438363 
L 164.382635 200.540197 
L 166.591169 192.61936 
L 168.799703 192.065989 
L 171.008237 192.848024 
L 173.216772 195.794425 
L 175.425306 195.473304 
L 177.63384 193.748558 
L 179.842375 195.615984 
L 182.050909 205.071787 
L 184.259443 195.225829 
L 186.467978 249.781534 
L 188.676512 295.488 
L 190.885046 252.101945 
L 193.093581 238.160219 
L 195.302115 228.06829 
L 197.510649 214.344727 
L 199.719184 207.893801 
L 201.927718 226.202982 
L 204.136252 204.631106 
L 206.344787 207.028271 
L 208.553321 201.240137 
L 210.761855 209.665922 
L 212.97039 205.718715 
L 215.178924 217.105726 
L 217.387458 215.536426 
L 219.595993 213.348886 
L 221.804527 194.090972 
L 224.013061 216.495221 
L 226.221596 198.382377 
L 228.43013 208.099957 
L 230.638664 205.279268 
L 232.847199 206.391606 
L 235.055733 209.166095 
L 237.264267 210.521935 
L 239.472801 199.051406 
L 241.681336 222.571533 
L 243.88987 211.82234 
L 246.098404 209.345733 
L 248.306939 206.443264 
L 250.515473 207.999141 
L 252.724007 207.782077 
L 254.932542 200.297246 
L 257.141076 195.754384 
L 259.34961 207.72517 
L 261.558145 205.554404 
L 263.766679 213.357278 
L 265.975213 200.51892 
L 268.183748 203.948452 
L 270.392282 201.619621 
L 272.600816 209.998517 
L 274.809351 213.328933 
L 277.017885 209.521217 
L 279.226419 195.484359 
L 281.434954 196.56679 
L 283.643488 213.884579 
L 285.852022 221.636425 
L 288.060557 214.267624 
L 290.269091 199.188369 
L 292.477625 233.698559 
L 294.68616 218.645588 
L 296.894694 225.370184 
L 299.103228 242.254601 
L 301.311763 214.325546 
L 303.520297 215.081557 
L 307.937365 241.846447 
L 310.1459 223.678887 
L 312.354434 222.80819 
L 314.562968 232.567992 
L 316.771503 212.986701 
L 318.980037 229.92514 
L 321.188571 225.631153 
L 323.397106 219.404399 
L 325.60564 224.230214 
L 327.814174 219.660053 
L 330.022709 233.587057 
L 332.231243 225.514768 
L 334.439777 230.30485 
L 336.648312 272.336604 
L 338.856846 233.628053 
L 341.06538 217.300044 
L 343.273915 213.27933 
L 345.482449 217.282315 
L 349.899518 217.525965 
L 352.108052 197.091723 
L 354.316586 213.199818 
L 356.525121 209.226855 
L 358.733655 206.74845 
L 363.150724 223.916339 
L 365.359258 213.365437 
L 367.567792 210.612485 
L 369.776327 210.961164 
L 371.984861 209.457212 
L 374.193395 214.61135 
L 376.401929 212.3643 
L 378.610464 206.700538 
L 380.818998 209.095765 
L 383.027532 202.883797 
L 385.236067 198.737859 
L 389.653135 211.10263 
L 391.86167 214.476992 
L 394.070204 200.271935 
L 396.278738 213.533523 
L 398.487273 210.805532 
L 398.487273 210.805532 
" clip-path="url(#p7659abf33d)" style="fill: none; stroke: #32cd32; stroke-opacity: 0.8; stroke-width: 0.5; stroke-linecap: square"/>
   </g>
   <g id="line2d_19">
    <path d="M 73.832727 178.909613 
L 76.041262 177.68339 
L 78.249796 170.600175 
L 80.45833 180.814486 
L 82.666865 175.201172 
L 84.875399 177.848551 
L 87.083933 176.115994 
L 89.292468 177.190379 
L 91.501002 174.623882 
L 93.709536 176.837289 
L 95.918071 176.889057 
L 98.126605 177.146998 
L 100.335139 176.439255 
L 102.543673 176.861228 
L 104.752208 177.010896 
L 106.960742 177.88909 
L 109.169276 172.675702 
L 111.377811 171.846654 
L 113.586345 175.604395 
L 115.794879 174.917632 
L 118.003414 169.940047 
L 120.211948 168.692182 
L 122.420482 176.555127 
L 124.629017 171.88789 
L 126.837551 173.657878 
L 129.046085 174.278682 
L 131.25462 173.326725 
L 133.463154 173.081794 
L 135.671688 175.038292 
L 137.880223 176.703912 
L 140.088757 170.960561 
L 142.297291 172.784181 
L 144.505826 176.473687 
L 146.71436 175.069444 
L 148.922894 174.154524 
L 151.131429 175.153354 
L 153.339963 169.901769 
L 155.548497 178.349304 
L 157.757032 172.139074 
L 159.965566 178.018915 
L 162.1741 172.424239 
L 164.382635 176.948698 
L 166.591169 174.406278 
L 168.799703 176.231149 
L 171.008237 177.010105 
L 173.216772 176.103101 
L 175.425306 178.788487 
L 177.63384 176.974462 
L 179.842375 174.277963 
L 182.050909 179.113677 
L 184.259443 165.670909 
L 186.467978 164.682236 
L 188.676512 159.662107 
L 190.885046 178.435175 
L 193.093581 161.871238 
L 195.302115 163.242982 
L 197.510649 169.540144 
L 199.719184 171.865463 
L 201.927718 167.635077 
L 204.136252 168.686693 
L 206.344787 171.176365 
L 208.553321 173.220935 
L 210.761855 175.486516 
L 212.97039 178.288965 
L 215.178924 166.628273 
L 217.387458 169.63708 
L 219.595993 176.49195 
L 221.804527 167.251471 
L 224.013061 175.693675 
L 226.221596 169.712069 
L 228.43013 174.659567 
L 230.638664 171.275637 
L 232.847199 177.411319 
L 235.055733 172.610443 
L 237.264267 173.868106 
L 239.472801 170.353424 
L 241.681336 170.453477 
L 243.88987 175.5415 
L 246.098404 175.46971 
L 248.306939 173.473919 
L 250.515473 173.139918 
L 252.724007 170.444439 
L 254.932542 176.025682 
L 257.141076 174.616906 
L 259.34961 175.893124 
L 261.558145 175.967422 
L 263.766679 174.153082 
L 265.975213 174.916228 
L 268.183748 174.418698 
L 270.392282 174.173921 
L 274.809351 167.512253 
L 277.017885 176.434384 
L 279.226419 177.413219 
L 281.434954 171.830007 
L 283.643488 167.737364 
L 285.852022 171.149438 
L 288.060557 175.22901 
L 290.269091 165.439138 
L 292.477625 171.300519 
L 294.68616 163.22061 
L 296.894694 163.970623 
L 299.103228 167.689469 
L 301.311763 167.730792 
L 303.520297 163.620865 
L 305.728831 157.76874 
L 307.937365 160.392974 
L 310.1459 170.317056 
L 312.354434 151.729336 
L 314.562968 170.573488 
L 316.771503 171.654416 
L 318.980037 180.125409 
L 321.188571 175.113005 
L 323.397106 164.522417 
L 325.60564 164.140077 
L 327.814174 161.60513 
L 330.022709 166.168809 
L 332.231243 161.969771 
L 334.439777 169.443043 
L 336.648312 176.263485 
L 338.856846 169.505111 
L 341.06538 160.247634 
L 343.273915 165.675286 
L 345.482449 171.626993 
L 347.690983 178.215926 
L 349.899518 170.509992 
L 352.108052 166.58785 
L 354.316586 171.011443 
L 356.525121 172.181297 
L 358.733655 172.742195 
L 360.942189 174.064212 
L 363.150724 171.866518 
L 365.359258 174.613046 
L 367.567792 175.462213 
L 369.776327 173.641495 
L 371.984861 174.378532 
L 374.193395 176.687852 
L 376.401929 168.782643 
L 378.610464 172.466487 
L 380.818998 170.431913 
L 383.027532 170.554218 
L 385.236067 167.574906 
L 387.444601 171.988638 
L 389.653135 170.313784 
L 391.86167 171.495424 
L 396.278738 174.673206 
L 398.487273 173.201861 
L 398.487273 173.201861 
" clip-path="url(#p7659abf33d)" style="fill: none; stroke: #ff0000; stroke-opacity: 0.8; stroke-width: 0.5; stroke-linecap: square"/>
   </g>
   <g id="line2d_20">
    <path d="M 73.832727 158.181245 
L 76.041262 163.157195 
L 78.249796 149.072562 
L 80.45833 155.010944 
L 82.666865 163.91805 
L 84.875399 164.08936 
L 87.083933 168.774663 
L 89.292468 165.816605 
L 91.501002 170.587901 
L 93.709536 159.822277 
L 95.918071 167.258556 
L 98.126605 168.10617 
L 100.335139 167.368283 
L 102.543673 171.018742 
L 104.752208 170.106992 
L 106.960742 171.499999 
L 109.169276 140.377569 
L 111.377811 145.073126 
L 113.586345 152.829416 
L 115.794879 154.659603 
L 118.003414 136.801094 
L 120.211948 150.026781 
L 122.420482 150.547786 
L 124.629017 156.12819 
L 126.837551 159.055198 
L 129.046085 163.183818 
L 131.25462 161.654746 
L 133.463154 152.086669 
L 135.671688 163.815789 
L 137.880223 171.772946 
L 140.088757 153.413153 
L 142.297291 149.141026 
L 146.71436 169.12848 
L 148.922894 163.09165 
L 151.131429 169.101378 
L 153.339963 143.886458 
L 155.548497 141.289729 
L 157.757032 140.998057 
L 159.965566 170.898546 
L 162.1741 161.604041 
L 164.382635 155.04278 
L 166.591169 162.559642 
L 168.799703 171.396123 
L 171.008237 171.439806 
L 173.216772 165.538941 
L 175.425306 173.751933 
L 177.63384 167.935703 
L 179.842375 156.848828 
L 182.050909 153.170286 
L 184.259443 133.968713 
L 186.467978 87.769742 
L 188.676512 53.568 
L 190.885046 126.31971 
L 193.093581 128.824075 
L 195.302115 118.077141 
L 197.510649 141.278636 
L 199.719184 154.060282 
L 201.927718 103.842891 
L 204.136252 140.116205 
L 206.344787 147.706335 
L 208.553321 157.948436 
L 210.761855 160.036534 
L 212.97039 170.574709 
L 215.178924 121.882669 
L 217.387458 139.036422 
L 219.595993 149.85987 
L 221.804527 144.410284 
L 224.013061 131.99791 
L 226.221596 151.656041 
L 228.43013 164.395801 
L 230.638664 163.072744 
L 232.847199 150.719781 
L 235.055733 157.310726 
L 237.264267 136.386835 
L 239.472801 161.192039 
L 241.681336 138.478727 
L 246.098404 157.900173 
L 248.306939 162.164744 
L 250.515473 155.345901 
L 252.724007 136.93521 
L 254.932542 165.816211 
L 257.141076 164.85133 
L 259.34961 156.065674 
L 261.558145 158.063968 
L 263.766679 146.563706 
L 265.975213 163.21143 
L 268.183748 157.442838 
L 270.392282 161.784049 
L 272.600816 142.953157 
L 274.809351 134.595457 
L 277.017885 155.849564 
L 279.226419 161.633183 
L 281.434954 157.124016 
L 283.643488 130.017658 
L 285.852022 151.578538 
L 288.060557 160.565091 
L 290.269091 132.616584 
L 292.477625 139.978755 
L 294.68616 122.363242 
L 296.894694 137.085123 
L 299.103228 115.84908 
L 301.311763 134.209732 
L 303.520297 140.564435 
L 305.728831 102.847452 
L 307.937365 104.476169 
L 310.1459 104.507912 
L 312.354434 104.734453 
L 314.562968 119.604305 
L 316.771503 146.920736 
L 318.980037 151.10262 
L 321.188571 159.244869 
L 327.814174 96.825893 
L 330.022709 135.928825 
L 332.231243 123.603524 
L 334.439777 135.417531 
L 338.856846 142.433271 
L 341.06538 131.729267 
L 343.273915 136.62537 
L 345.482449 147.958846 
L 349.899518 152.003423 
L 352.108052 144.806067 
L 354.316586 147.059246 
L 356.525121 143.103478 
L 358.733655 161.96833 
L 360.942189 151.817943 
L 363.150724 155.149816 
L 365.359258 154.746894 
L 367.567792 163.451076 
L 369.776327 156.2885 
L 371.984861 158.162492 
L 374.193395 163.733792 
L 376.401929 151.364267 
L 378.610464 155.835292 
L 380.818998 146.163997 
L 383.027532 143.82562 
L 385.236067 143.722056 
L 387.444601 153.148318 
L 389.653135 147.547577 
L 391.86167 150.579767 
L 394.070204 162.811612 
L 396.278738 158.49547 
L 398.487273 143.188409 
L 398.487273 143.188409 
" clip-path="url(#p7659abf33d)" style="fill: none; stroke: #f08080; stroke-opacity: 0.8; stroke-width: 0.5; stroke-linecap: square"/>
   </g>
   <g id="line2d_21">
    <path d="M 73.832727 194.399384 
L 76.041262 193.916722 
L 78.249796 204.915062 
L 80.45833 197.521443 
L 82.666865 189.415308 
L 84.875399 189.246166 
L 87.083933 185.182635 
L 89.292468 193.25582 
L 91.501002 179.366281 
L 93.709536 186.878005 
L 95.918071 185.079238 
L 98.126605 188.057729 
L 100.335139 184.581927 
L 102.543673 184.084898 
L 104.752208 184.042009 
L 106.960742 187.122679 
L 109.169276 200.401843 
L 111.377811 196.411888 
L 113.586345 196.856157 
L 115.794879 196.057266 
L 118.003414 184.483442 
L 120.211948 219.824489 
L 122.420482 207.075885 
L 124.629017 182.982921 
L 126.837551 185.781854 
L 129.046085 182.48223 
L 131.25462 189.539253 
L 133.463154 188.530688 
L 135.671688 185.028794 
L 137.880223 184.555861 
L 140.088757 181.538571 
L 142.297291 184.641531 
L 144.505826 196.854956 
L 146.71436 182.913833 
L 148.922894 181.154374 
L 151.131429 181.747265 
L 153.339963 184.226656 
L 155.548497 194.331234 
L 157.757032 189.41374 
L 159.965566 188.013421 
L 162.1741 183.321819 
L 164.382635 189.987275 
L 166.591169 182.106094 
L 168.799703 186.998227 
L 171.008237 184.58102 
L 173.216772 187.425396 
L 175.425306 186.205558 
L 177.63384 186.930683 
L 179.842375 185.298457 
L 182.050909 194.002802 
L 184.259443 182.162517 
L 186.467978 226.060119 
L 188.676512 263.585144 
L 190.885046 238.617656 
L 193.093581 190.614606 
L 195.302115 196.265192 
L 197.510649 196.04912 
L 199.719184 185.543257 
L 201.927718 205.727772 
L 204.136252 187.425054 
L 206.344787 186.351944 
L 208.553321 185.773264 
L 210.761855 193.750844 
L 212.97039 186.976473 
L 215.178924 200.017642 
L 217.387458 190.815092 
L 219.595993 196.566793 
L 221.804527 181.495752 
L 224.013061 196.182821 
L 226.221596 185.386006 
L 228.43013 191.125225 
L 230.638664 189.895789 
L 232.847199 190.819574 
L 235.055733 195.827238 
L 237.264267 197.132992 
L 239.472801 179.748936 
L 241.681336 207.242982 
L 243.88987 188.427429 
L 246.098404 193.767344 
L 248.306939 186.469986 
L 250.515473 191.815856 
L 252.724007 195.779216 
L 254.932542 191.041892 
L 257.141076 188.274295 
L 259.34961 195.293918 
L 261.558145 193.633422 
L 263.766679 195.940227 
L 265.975213 189.219319 
L 268.183748 188.134078 
L 270.392282 190.738444 
L 272.600816 189.438319 
L 274.809351 191.47578 
L 277.017885 201.159867 
L 279.226419 188.261637 
L 281.434954 184.510541 
L 283.643488 197.556117 
L 285.852022 208.503515 
L 288.060557 196.306388 
L 290.269091 192.729674 
L 292.477625 207.860859 
L 294.68616 198.599126 
L 296.894694 202.855142 
L 299.103228 208.827464 
L 301.311763 187.266894 
L 303.520297 192.579631 
L 305.728831 200.625859 
L 307.937365 209.807851 
L 310.1459 201.254322 
L 312.354434 194.474778 
L 314.562968 210.129871 
L 316.771503 198.22136 
L 318.980037 214.280248 
L 321.188571 203.896194 
L 323.397106 190.194071 
L 325.60564 193.201706 
L 327.814174 195.330674 
L 330.022709 205.787242 
L 332.231243 202.25474 
L 334.439777 205.217111 
L 336.648312 250.583346 
L 338.856846 209.608678 
L 341.06538 196.631416 
L 343.273915 195.188279 
L 345.482449 208.393471 
L 347.690983 201.463003 
L 349.899518 191.746491 
L 352.108052 185.446343 
L 354.316586 195.839806 
L 356.525121 194.918072 
L 358.733655 193.465996 
L 360.942189 206.418287 
L 363.150724 203.968311 
L 365.359258 191.793556 
L 367.567792 190.152556 
L 369.776327 192.98212 
L 371.984861 192.864948 
L 374.193395 188.46904 
L 376.401929 194.049508 
L 378.610464 191.545587 
L 380.818998 195.231167 
L 383.027532 193.755145 
L 385.236067 183.332569 
L 387.444601 189.850476 
L 389.653135 193.508352 
L 391.86167 195.033324 
L 394.070204 185.446062 
L 396.278738 197.095384 
L 398.487273 190.204498 
L 398.487273 190.204498 
" clip-path="url(#p7659abf33d)" style="fill: none; stroke: #f08080; stroke-opacity: 0.8; stroke-width: 0.5; stroke-linecap: square"/>
   </g>
   <g id="patch_3">
    <path d="M 57.6 307.584 
L 57.6 41.472 
" style="fill: none; stroke: #000000; stroke-width: 0.8; stroke-linejoin: miter; stroke-linecap: square"/>
   </g>
   <g id="patch_4">
    <path d="M 414.72 307.584 
L 414.72 41.472 
" style="fill: none; stroke: #000000; stroke-width: 0.8; stroke-linejoin: miter; stroke-linecap: square"/>
   </g>
   <g id="patch_5">
    <path d="M 57.6 307.584 
L 414.72 307.584 
" style="fill: none; stroke: #000000; stroke-width: 0.8; stroke-linejoin: miter; stroke-linecap: square"/>
   </g>
   <g id="patch_6">
    <path d="M 57.6 41.472 
L 414.72 41.472 
" style="fill: none; stroke: #000000; stroke-width: 0.8; stroke-linejoin: miter; stroke-linecap: square"/>
   </g>
   <g id="text_16">
    <!-- 1final_naive_aa_snp500 -->
    <g transform="translate(164.484375 35.472) scale(0.12 -0.12)">
     <defs>
      <path id="DejaVuSans-66" d="M 2375 4863 
L 2375 4384 
L 1825 4384 
Q 1516 4384 1395 4259 
Q 1275 4134 1275 3809 
L 1275 3500 
L 2222 3500 
L 2222 3053 
L 1275 3053 
L 1275 0 
L 697 0 
L 697 3053 
L 147 3053 
L 147 3500 
L 697 3500 
L 697 3744 
Q 697 4328 969 4595 
Q 1241 4863 1831 4863 
L 2375 4863 
z
" transform="scale(0.015625)"/>
      <path id="DejaVuSans-69" d="M 603 3500 
L 1178 3500 
L 1178 0 
L 603 0 
L 603 3500 
z
M 603 4863 
L 1178 4863 
L 1178 4134 
L 603 4134 
L 603 4863 
z
" transform="scale(0.015625)"/>
      <path id="DejaVuSans-6e" d="M 3513 2113 
L 3513 0 
L 2938 0 
L 2938 2094 
Q 2938 2591 2744 2837 
Q 2550 3084 2163 3084 
Q 1697 3084 1428 2787 
Q 1159 2491 1159 1978 
L 1159 0 
L 581 0 
L 581 3500 
L 1159 3500 
L 1159 2956 
Q 1366 3272 1645 3428 
Q 1925 3584 2291 3584 
Q 2894 3584 3203 3211 
Q 3513 2838 3513 2113 
z
" transform="scale(0.015625)"/>
      <path id="DejaVuSans-61" d="M 2194 1759 
Q 1497 1759 1228 1600 
Q 959 1441 959 1056 
Q 959 750 1161 570 
Q 1363 391 1709 391 
Q 2188 391 2477 730 
Q 2766 1069 2766 1631 
L 2766 1759 
L 2194 1759 
z
M 3341 1997 
L 3341 0 
L 2766 0 
L 2766 531 
Q 2569 213 2275 61 
Q 1981 -91 1556 -91 
Q 1019 -91 701 211 
Q 384 513 384 1019 
Q 384 1609 779 1909 
Q 1175 2209 1959 2209 
L 2766 2209 
L 2766 2266 
Q 2766 2663 2505 2880 
Q 2244 3097 1772 3097 
Q 1472 3097 1187 3025 
Q 903 2953 641 2809 
L 641 3341 
Q 956 3463 1253 3523 
Q 1550 3584 1831 3584 
Q 2591 3584 2966 3190 
Q 3341 2797 3341 1997 
z
" transform="scale(0.015625)"/>
      <path id="DejaVuSans-6c" d="M 603 4863 
L 1178 4863 
L 1178 0 
L 603 0 
L 603 4863 
z
" transform="scale(0.015625)"/>
      <path id="DejaVuSans-5f" d="M 3263 -1063 
L 3263 -1509 
L -63 -1509 
L -63 -1063 
L 3263 -1063 
z
" transform="scale(0.015625)"/>
      <path id="DejaVuSans-76" d="M 191 3500 
L 800 3500 
L 1894 563 
L 2988 3500 
L 3597 3500 
L 2284 0 
L 1503 0 
L 191 3500 
z
" transform="scale(0.015625)"/>
      <path id="DejaVuSans-65" d="M 3597 1894 
L 3597 1613 
L 953 1613 
Q 991 1019 1311 708 
Q 1631 397 2203 397 
Q 2534 397 2845 478 
Q 3156 559 3463 722 
L 3463 178 
Q 3153 47 2828 -22 
Q 2503 -91 2169 -91 
Q 1331 -91 842 396 
Q 353 884 353 1716 
Q 353 2575 817 3079 
Q 1281 3584 2069 3584 
Q 2775 3584 3186 3129 
Q 3597 2675 3597 1894 
z
M 3022 2063 
Q 3016 2534 2758 2815 
Q 2500 3097 2075 3097 
Q 1594 3097 1305 2825 
Q 1016 2553 972 2059 
L 3022 2063 
z
" transform="scale(0.015625)"/>
      <path id="DejaVuSans-73" d="M 2834 3397 
L 2834 2853 
Q 2591 2978 2328 3040 
Q 2066 3103 1784 3103 
Q 1356 3103 1142 2972 
Q 928 2841 928 2578 
Q 928 2378 1081 2264 
Q 1234 2150 1697 2047 
L 1894 2003 
Q 2506 1872 2764 1633 
Q 3022 1394 3022 966 
Q 3022 478 2636 193 
Q 2250 -91 1575 -91 
Q 1294 -91 989 -36 
Q 684 19 347 128 
L 347 722 
Q 666 556 975 473 
Q 1284 391 1588 391 
Q 1994 391 2212 530 
Q 2431 669 2431 922 
Q 2431 1156 2273 1281 
Q 2116 1406 1581 1522 
L 1381 1569 
Q 847 1681 609 1914 
Q 372 2147 372 2553 
Q 372 3047 722 3315 
Q 1072 3584 1716 3584 
Q 2034 3584 2315 3537 
Q 2597 3491 2834 3397 
z
" transform="scale(0.015625)"/>
      <path id="DejaVuSans-70" d="M 1159 525 
L 1159 -1331 
L 581 -1331 
L 581 3500 
L 1159 3500 
L 1159 2969 
Q 1341 3281 1617 3432 
Q 1894 3584 2278 3584 
Q 2916 3584 3314 3078 
Q 3713 2572 3713 1747 
Q 3713 922 3314 415 
Q 2916 -91 2278 -91 
Q 1894 -91 1617 61 
Q 1341 213 1159 525 
z
M 3116 1747 
Q 3116 2381 2855 2742 
Q 2594 3103 2138 3103 
Q 1681 3103 1420 2742 
Q 1159 2381 1159 1747 
Q 1159 1113 1420 752 
Q 1681 391 2138 391 
Q 2594 391 2855 752 
Q 3116 1113 3116 1747 
z
" transform="scale(0.015625)"/>
      <path id="DejaVuSans-35" d="M 691 4666 
L 3169 4666 
L 3169 4134 
L 1269 4134 
L 1269 2991 
Q 1406 3038 1543 3061 
Q 1681 3084 1819 3084 
Q 2600 3084 3056 2656 
Q 3513 2228 3513 1497 
Q 3513 744 3044 326 
Q 2575 -91 1722 -91 
Q 1428 -91 1123 -41 
Q 819 9 494 109 
L 494 744 
Q 775 591 1075 516 
Q 1375 441 1709 441 
Q 2250 441 2565 725 
Q 2881 1009 2881 1497 
Q 2881 1984 2565 2268 
Q 2250 2553 1709 2553 
Q 1456 2553 1204 2497 
Q 953 2441 691 2322 
L 691 4666 
z
" transform="scale(0.015625)"/>
     </defs>
     <use xlink:href="#DejaVuSans-31"/>
     <use xlink:href="#DejaVuSans-66" x="63.623047"/>
     <use xlink:href="#DejaVuSans-69" x="98.828125"/>
     <use xlink:href="#DejaVuSans-6e" x="126.611328"/>
     <use xlink:href="#DejaVuSans-61" x="189.990234"/>
     <use xlink:href="#DejaVuSans-6c" x="251.269531"/>
     <use xlink:href="#DejaVuSans-5f" x="279.052734"/>
     <use xlink:href="#DejaVuSans-6e" x="329.052734"/>
     <use xlink:href="#DejaVuSans-61" x="392.431641"/>
     <use xlink:href="#DejaVuSans-69" x="453.710938"/>
     <use xlink:href="#DejaVuSans-76" x="481.494141"/>
     <use xlink:href="#DejaVuSans-65" x="540.673828"/>
     <use xlink:href="#DejaVuSans-5f" x="602.197266"/>
     <use xlink:href="#DejaVuSans-61" x="652.197266"/>
     <use xlink:href="#DejaVuSans-61" x="713.476562"/>
     <use xlink:href="#DejaVuSans-5f" x="774.755859"/>
     <use xlink:href="#DejaVuSans-73" x="824.755859"/>
     <use xlink:href="#DejaVuSans-6e" x="876.855469"/>
     <use xlink:href="#DejaVuSans-70" x="940.234375"/>
     <use xlink:href="#DejaVuSans-35" x="1003.710938"/>
     <use xlink:href="#DejaVuSans-30" x="1067.333984"/>
     <use xlink:href="#DejaVuSans-30" x="1130.957031"/>
    </g>
   </g>
   <g id="legend_1">
    <g id="patch_7">
     <path d="M 64.6 137.54075 
L 225.001563 137.54075 
Q 227.001563 137.54075 227.001563 135.54075 
L 227.001563 48.472 
Q 227.001563 46.472 225.001563 46.472 
L 64.6 46.472 
Q 62.6 46.472 62.6 48.472 
L 62.6 135.54075 
Q 62.6 137.54075 64.6 137.54075 
z
" style="fill: #ffffff; opacity: 0.8; stroke: #cccccc; stroke-linejoin: miter"/>
    </g>
    <g id="line2d_22">
     <path d="M 66.6 54.570438 
L 76.6 54.570438 
L 86.6 54.570438 
" style="fill: none; stroke: #008000; stroke-opacity: 0.8; stroke-width: 0.5; stroke-linecap: square"/>
    </g>
    <g id="text_17">
     <!-- Positive predictions -->
     <g transform="translate(94.6 58.070438) scale(0.1 -0.1)">
      <defs>
       <path id="DejaVuSans-50" d="M 1259 4147 
L 1259 2394 
L 2053 2394 
Q 2494 2394 2734 2622 
Q 2975 2850 2975 3272 
Q 2975 3691 2734 3919 
Q 2494 4147 2053 4147 
L 1259 4147 
z
M 628 4666 
L 2053 4666 
Q 2838 4666 3239 4311 
Q 3641 3956 3641 3272 
Q 3641 2581 3239 2228 
Q 2838 1875 2053 1875 
L 1259 1875 
L 1259 0 
L 628 0 
L 628 4666 
z
" transform="scale(0.015625)"/>
       <path id="DejaVuSans-6f" d="M 1959 3097 
Q 1497 3097 1228 2736 
Q 959 2375 959 1747 
Q 959 1119 1226 758 
Q 1494 397 1959 397 
Q 2419 397 2687 759 
Q 2956 1122 2956 1747 
Q 2956 2369 2687 2733 
Q 2419 3097 1959 3097 
z
M 1959 3584 
Q 2709 3584 3137 3096 
Q 3566 2609 3566 1747 
Q 3566 888 3137 398 
Q 2709 -91 1959 -91 
Q 1206 -91 779 398 
Q 353 888 353 1747 
Q 353 2609 779 3096 
Q 1206 3584 1959 3584 
z
" transform="scale(0.015625)"/>
       <path id="DejaVuSans-74" d="M 1172 4494 
L 1172 3500 
L 2356 3500 
L 2356 3053 
L 1172 3053 
L 1172 1153 
Q 1172 725 1289 603 
Q 1406 481 1766 481 
L 2356 481 
L 2356 0 
L 1766 0 
Q 1100 0 847 248 
Q 594 497 594 1153 
L 594 3053 
L 172 3053 
L 172 3500 
L 594 3500 
L 594 4494 
L 1172 4494 
z
" transform="scale(0.015625)"/>
       <path id="DejaVuSans-20" transform="scale(0.015625)"/>
       <path id="DejaVuSans-72" d="M 2631 2963 
Q 2534 3019 2420 3045 
Q 2306 3072 2169 3072 
Q 1681 3072 1420 2755 
Q 1159 2438 1159 1844 
L 1159 0 
L 581 0 
L 581 3500 
L 1159 3500 
L 1159 2956 
Q 1341 3275 1631 3429 
Q 1922 3584 2338 3584 
Q 2397 3584 2469 3576 
Q 2541 3569 2628 3553 
L 2631 2963 
z
" transform="scale(0.015625)"/>
       <path id="DejaVuSans-64" d="M 2906 2969 
L 2906 4863 
L 3481 4863 
L 3481 0 
L 2906 0 
L 2906 525 
Q 2725 213 2448 61 
Q 2172 -91 1784 -91 
Q 1150 -91 751 415 
Q 353 922 353 1747 
Q 353 2572 751 3078 
Q 1150 3584 1784 3584 
Q 2172 3584 2448 3432 
Q 2725 3281 2906 2969 
z
M 947 1747 
Q 947 1113 1208 752 
Q 1469 391 1925 391 
Q 2381 391 2643 752 
Q 2906 1113 2906 1747 
Q 2906 2381 2643 2742 
Q 2381 3103 1925 3103 
Q 1469 3103 1208 2742 
Q 947 2381 947 1747 
z
" transform="scale(0.015625)"/>
       <path id="DejaVuSans-63" d="M 3122 3366 
L 3122 2828 
Q 2878 2963 2633 3030 
Q 2388 3097 2138 3097 
Q 1578 3097 1268 2742 
Q 959 2388 959 1747 
Q 959 1106 1268 751 
Q 1578 397 2138 397 
Q 2388 397 2633 464 
Q 2878 531 3122 666 
L 3122 134 
Q 2881 22 2623 -34 
Q 2366 -91 2075 -91 
Q 1284 -91 818 406 
Q 353 903 353 1747 
Q 353 2603 823 3093 
Q 1294 3584 2113 3584 
Q 2378 3584 2631 3529 
Q 2884 3475 3122 3366 
z
" transform="scale(0.015625)"/>
      </defs>
      <use xlink:href="#DejaVuSans-50"/>
      <use xlink:href="#DejaVuSans-6f" x="56.677734"/>
      <use xlink:href="#DejaVuSans-73" x="117.859375"/>
      <use xlink:href="#DejaVuSans-69" x="169.958984"/>
      <use xlink:href="#DejaVuSans-74" x="197.742188"/>
      <use xlink:href="#DejaVuSans-69" x="236.951172"/>
      <use xlink:href="#DejaVuSans-76" x="264.734375"/>
      <use xlink:href="#DejaVuSans-65" x="323.914062"/>
      <use xlink:href="#DejaVuSans-20" x="385.4375"/>
      <use xlink:href="#DejaVuSans-70" x="417.224609"/>
      <use xlink:href="#DejaVuSans-72" x="480.701172"/>
      <use xlink:href="#DejaVuSans-65" x="519.564453"/>
      <use xlink:href="#DejaVuSans-64" x="581.087891"/>
      <use xlink:href="#DejaVuSans-69" x="644.564453"/>
      <use xlink:href="#DejaVuSans-63" x="672.347656"/>
      <use xlink:href="#DejaVuSans-74" x="727.328125"/>
      <use xlink:href="#DejaVuSans-69" x="766.537109"/>
      <use xlink:href="#DejaVuSans-6f" x="794.320312"/>
      <use xlink:href="#DejaVuSans-6e" x="855.501953"/>
      <use xlink:href="#DejaVuSans-73" x="918.880859"/>
     </g>
    </g>
    <g id="line2d_23">
     <path d="M 66.6 69.248563 
L 76.6 69.248563 
L 86.6 69.248563 
" style="fill: none; stroke: #32cd32; stroke-opacity: 0.8; stroke-width: 0.5; stroke-linecap: square"/>
    </g>
    <g id="text_18">
     <!-- Positive predictions max -->
     <g transform="translate(94.6 72.748563) scale(0.1 -0.1)">
      <defs>
       <path id="DejaVuSans-6d" d="M 3328 2828 
Q 3544 3216 3844 3400 
Q 4144 3584 4550 3584 
Q 5097 3584 5394 3201 
Q 5691 2819 5691 2113 
L 5691 0 
L 5113 0 
L 5113 2094 
Q 5113 2597 4934 2840 
Q 4756 3084 4391 3084 
Q 3944 3084 3684 2787 
Q 3425 2491 3425 1978 
L 3425 0 
L 2847 0 
L 2847 2094 
Q 2847 2600 2669 2842 
Q 2491 3084 2119 3084 
Q 1678 3084 1418 2786 
Q 1159 2488 1159 1978 
L 1159 0 
L 581 0 
L 581 3500 
L 1159 3500 
L 1159 2956 
Q 1356 3278 1631 3431 
Q 1906 3584 2284 3584 
Q 2666 3584 2933 3390 
Q 3200 3197 3328 2828 
z
" transform="scale(0.015625)"/>
       <path id="DejaVuSans-78" d="M 3513 3500 
L 2247 1797 
L 3578 0 
L 2900 0 
L 1881 1375 
L 863 0 
L 184 0 
L 1544 1831 
L 300 3500 
L 978 3500 
L 1906 2253 
L 2834 3500 
L 3513 3500 
z
" transform="scale(0.015625)"/>
      </defs>
      <use xlink:href="#DejaVuSans-50"/>
      <use xlink:href="#DejaVuSans-6f" x="56.677734"/>
      <use xlink:href="#DejaVuSans-73" x="117.859375"/>
      <use xlink:href="#DejaVuSans-69" x="169.958984"/>
      <use xlink:href="#DejaVuSans-74" x="197.742188"/>
      <use xlink:href="#DejaVuSans-69" x="236.951172"/>
      <use xlink:href="#DejaVuSans-76" x="264.734375"/>
      <use xlink:href="#DejaVuSans-65" x="323.914062"/>
      <use xlink:href="#DejaVuSans-20" x="385.4375"/>
      <use xlink:href="#DejaVuSans-70" x="417.224609"/>
      <use xlink:href="#DejaVuSans-72" x="480.701172"/>
      <use xlink:href="#DejaVuSans-65" x="519.564453"/>
      <use xlink:href="#DejaVuSans-64" x="581.087891"/>
      <use xlink:href="#DejaVuSans-69" x="644.564453"/>
      <use xlink:href="#DejaVuSans-63" x="672.347656"/>
      <use xlink:href="#DejaVuSans-74" x="727.328125"/>
      <use xlink:href="#DejaVuSans-69" x="766.537109"/>
      <use xlink:href="#DejaVuSans-6f" x="794.320312"/>
      <use xlink:href="#DejaVuSans-6e" x="855.501953"/>
      <use xlink:href="#DejaVuSans-73" x="918.880859"/>
      <use xlink:href="#DejaVuSans-20" x="970.980469"/>
      <use xlink:href="#DejaVuSans-6d" x="1002.767578"/>
      <use xlink:href="#DejaVuSans-61" x="1100.179688"/>
      <use xlink:href="#DejaVuSans-78" x="1161.458984"/>
     </g>
    </g>
    <g id="line2d_24">
     <path d="M 66.6 83.926688 
L 76.6 83.926688 
L 86.6 83.926688 
" style="fill: none; stroke: #32cd32; stroke-opacity: 0.8; stroke-width: 0.5; stroke-linecap: square"/>
    </g>
    <g id="text_19">
     <!-- Positive predictions min -->
     <g transform="translate(94.6 87.426688) scale(0.1 -0.1)">
      <use xlink:href="#DejaVuSans-50"/>
      <use xlink:href="#DejaVuSans-6f" x="56.677734"/>
      <use xlink:href="#DejaVuSans-73" x="117.859375"/>
      <use xlink:href="#DejaVuSans-69" x="169.958984"/>
      <use xlink:href="#DejaVuSans-74" x="197.742188"/>
      <use xlink:href="#DejaVuSans-69" x="236.951172"/>
      <use xlink:href="#DejaVuSans-76" x="264.734375"/>
      <use xlink:href="#DejaVuSans-65" x="323.914062"/>
      <use xlink:href="#DejaVuSans-20" x="385.4375"/>
      <use xlink:href="#DejaVuSans-70" x="417.224609"/>
      <use xlink:href="#DejaVuSans-72" x="480.701172"/>
      <use xlink:href="#DejaVuSans-65" x="519.564453"/>
      <use xlink:href="#DejaVuSans-64" x="581.087891"/>
      <use xlink:href="#DejaVuSans-69" x="644.564453"/>
      <use xlink:href="#DejaVuSans-63" x="672.347656"/>
      <use xlink:href="#DejaVuSans-74" x="727.328125"/>
      <use xlink:href="#DejaVuSans-69" x="766.537109"/>
      <use xlink:href="#DejaVuSans-6f" x="794.320312"/>
      <use xlink:href="#DejaVuSans-6e" x="855.501953"/>
      <use xlink:href="#DejaVuSans-73" x="918.880859"/>
      <use xlink:href="#DejaVuSans-20" x="970.980469"/>
      <use xlink:href="#DejaVuSans-6d" x="1002.767578"/>
      <use xlink:href="#DejaVuSans-69" x="1100.179688"/>
      <use xlink:href="#DejaVuSans-6e" x="1127.962891"/>
     </g>
    </g>
    <g id="line2d_25">
     <path d="M 66.6 98.604813 
L 76.6 98.604813 
L 86.6 98.604813 
" style="fill: none; stroke: #ff0000; stroke-opacity: 0.8; stroke-width: 0.5; stroke-linecap: square"/>
    </g>
    <g id="text_20">
     <!-- Negative predictions -->
     <g transform="translate(94.6 102.104813) scale(0.1 -0.1)">
      <defs>
       <path id="DejaVuSans-4e" d="M 628 4666 
L 1478 4666 
L 3547 763 
L 3547 4666 
L 4159 4666 
L 4159 0 
L 3309 0 
L 1241 3903 
L 1241 0 
L 628 0 
L 628 4666 
z
" transform="scale(0.015625)"/>
       <path id="DejaVuSans-67" d="M 2906 1791 
Q 2906 2416 2648 2759 
Q 2391 3103 1925 3103 
Q 1463 3103 1205 2759 
Q 947 2416 947 1791 
Q 947 1169 1205 825 
Q 1463 481 1925 481 
Q 2391 481 2648 825 
Q 2906 1169 2906 1791 
z
M 3481 434 
Q 3481 -459 3084 -895 
Q 2688 -1331 1869 -1331 
Q 1566 -1331 1297 -1286 
Q 1028 -1241 775 -1147 
L 775 -588 
Q 1028 -725 1275 -790 
Q 1522 -856 1778 -856 
Q 2344 -856 2625 -561 
Q 2906 -266 2906 331 
L 2906 616 
Q 2728 306 2450 153 
Q 2172 0 1784 0 
Q 1141 0 747 490 
Q 353 981 353 1791 
Q 353 2603 747 3093 
Q 1141 3584 1784 3584 
Q 2172 3584 2450 3431 
Q 2728 3278 2906 2969 
L 2906 3500 
L 3481 3500 
L 3481 434 
z
" transform="scale(0.015625)"/>
      </defs>
      <use xlink:href="#DejaVuSans-4e"/>
      <use xlink:href="#DejaVuSans-65" x="74.804688"/>
      <use xlink:href="#DejaVuSans-67" x="136.328125"/>
      <use xlink:href="#DejaVuSans-61" x="199.804688"/>
      <use xlink:href="#DejaVuSans-74" x="261.083984"/>
      <use xlink:href="#DejaVuSans-69" x="300.292969"/>
      <use xlink:href="#DejaVuSans-76" x="328.076172"/>
      <use xlink:href="#DejaVuSans-65" x="387.255859"/>
      <use xlink:href="#DejaVuSans-20" x="448.779297"/>
      <use xlink:href="#DejaVuSans-70" x="480.566406"/>
      <use xlink:href="#DejaVuSans-72" x="544.042969"/>
      <use xlink:href="#DejaVuSans-65" x="582.90625"/>
      <use xlink:href="#DejaVuSans-64" x="644.429688"/>
      <use xlink:href="#DejaVuSans-69" x="707.90625"/>
      <use xlink:href="#DejaVuSans-63" x="735.689453"/>
      <use xlink:href="#DejaVuSans-74" x="790.669922"/>
      <use xlink:href="#DejaVuSans-69" x="829.878906"/>
      <use xlink:href="#DejaVuSans-6f" x="857.662109"/>
      <use xlink:href="#DejaVuSans-6e" x="918.84375"/>
      <use xlink:href="#DejaVuSans-73" x="982.222656"/>
     </g>
    </g>
    <g id="line2d_26">
     <path d="M 66.6 113.282938 
L 76.6 113.282938 
L 86.6 113.282938 
" style="fill: none; stroke: #f08080; stroke-opacity: 0.8; stroke-width: 0.5; stroke-linecap: square"/>
    </g>
    <g id="text_21">
     <!-- Negative predictions max -->
     <g transform="translate(94.6 116.782938) scale(0.1 -0.1)">
      <use xlink:href="#DejaVuSans-4e"/>
      <use xlink:href="#DejaVuSans-65" x="74.804688"/>
      <use xlink:href="#DejaVuSans-67" x="136.328125"/>
      <use xlink:href="#DejaVuSans-61" x="199.804688"/>
      <use xlink:href="#DejaVuSans-74" x="261.083984"/>
      <use xlink:href="#DejaVuSans-69" x="300.292969"/>
      <use xlink:href="#DejaVuSans-76" x="328.076172"/>
      <use xlink:href="#DejaVuSans-65" x="387.255859"/>
      <use xlink:href="#DejaVuSans-20" x="448.779297"/>
      <use xlink:href="#DejaVuSans-70" x="480.566406"/>
      <use xlink:href="#DejaVuSans-72" x="544.042969"/>
      <use xlink:href="#DejaVuSans-65" x="582.90625"/>
      <use xlink:href="#DejaVuSans-64" x="644.429688"/>
      <use xlink:href="#DejaVuSans-69" x="707.90625"/>
      <use xlink:href="#DejaVuSans-63" x="735.689453"/>
      <use xlink:href="#DejaVuSans-74" x="790.669922"/>
      <use xlink:href="#DejaVuSans-69" x="829.878906"/>
      <use xlink:href="#DejaVuSans-6f" x="857.662109"/>
      <use xlink:href="#DejaVuSans-6e" x="918.84375"/>
      <use xlink:href="#DejaVuSans-73" x="982.222656"/>
      <use xlink:href="#DejaVuSans-20" x="1034.322266"/>
      <use xlink:href="#DejaVuSans-6d" x="1066.109375"/>
      <use xlink:href="#DejaVuSans-61" x="1163.521484"/>
      <use xlink:href="#DejaVuSans-78" x="1224.800781"/>
     </g>
    </g>
    <g id="line2d_27">
     <path d="M 66.6 127.961063 
L 76.6 127.961063 
L 86.6 127.961063 
" style="fill: none; stroke: #f08080; stroke-opacity: 0.8; stroke-width: 0.5; stroke-linecap: square"/>
    </g>
    <g id="text_22">
     <!-- Negative predictions min -->
     <g transform="translate(94.6 131.461063) scale(0.1 -0.1)">
      <use xlink:href="#DejaVuSans-4e"/>
      <use xlink:href="#DejaVuSans-65" x="74.804688"/>
      <use xlink:href="#DejaVuSans-67" x="136.328125"/>
      <use xlink:href="#DejaVuSans-61" x="199.804688"/>
      <use xlink:href="#DejaVuSans-74" x="261.083984"/>
      <use xlink:href="#DejaVuSans-69" x="300.292969"/>
      <use xlink:href="#DejaVuSans-76" x="328.076172"/>
      <use xlink:href="#DejaVuSans-65" x="387.255859"/>
      <use xlink:href="#DejaVuSans-20" x="448.779297"/>
      <use xlink:href="#DejaVuSans-70" x="480.566406"/>
      <use xlink:href="#DejaVuSans-72" x="544.042969"/>
      <use xlink:href="#DejaVuSans-65" x="582.90625"/>
      <use xlink:href="#DejaVuSans-64" x="644.429688"/>
      <use xlink:href="#DejaVuSans-69" x="707.90625"/>
      <use xlink:href="#DejaVuSans-63" x="735.689453"/>
      <use xlink:href="#DejaVuSans-74" x="790.669922"/>
      <use xlink:href="#DejaVuSans-69" x="829.878906"/>
      <use xlink:href="#DejaVuSans-6f" x="857.662109"/>
      <use xlink:href="#DejaVuSans-6e" x="918.84375"/>
      <use xlink:href="#DejaVuSans-73" x="982.222656"/>
      <use xlink:href="#DejaVuSans-20" x="1034.322266"/>
      <use xlink:href="#DejaVuSans-6d" x="1066.109375"/>
      <use xlink:href="#DejaVuSans-69" x="1163.521484"/>
      <use xlink:href="#DejaVuSans-6e" x="1191.304688"/>
     </g>
    </g>
   </g>
  </g>
 </g>
 <defs>
  <clipPath id="p7659abf33d">
   <rect x="57.6" y="41.472" width="357.12" height="266.112"/>
  </clipPath>
 </defs>
</svg>
