<?xml version="1.0" encoding="utf-8" standalone="no"?>
<!DOCTYPE svg PUBLIC "-//W3C//DTD SVG 1.1//EN"
  "http://www.w3.org/Graphics/SVG/1.1/DTD/svg11.dtd">
<svg xmlns:xlink="http://www.w3.org/1999/xlink" width="460.8pt" height="345.6pt" viewBox="0 0 460.8 345.6" xmlns="http://www.w3.org/2000/svg" version="1.1">
 <metadata>
  <rdf:RDF xmlns:dc="http://purl.org/dc/elements/1.1/" xmlns:cc="http://creativecommons.org/ns#" xmlns:rdf="http://www.w3.org/1999/02/22-rdf-syntax-ns#">
   <cc:Work>
    <dc:type rdf:resource="http://purl.org/dc/dcmitype/StillImage"/>
    <dc:date>2024-09-08T12:05:31.350580</dc:date>
    <dc:format>image/svg+xml</dc:format>
    <dc:creator>
     <cc:Agent>
      <dc:title>Matplotlib v3.8.3, https://matplotlib.org/</dc:title>
     </cc:Agent>
    </dc:creator>
   </cc:Work>
  </rdf:RDF>
 </metadata>
 <defs>
  <style type="text/css">*{stroke-linejoin: round; stroke-linecap: butt}</style>
 </defs>
 <g id="figure_1">
  <g id="patch_1">
   <path d="M 0 345.6 
L 460.8 345.6 
L 460.8 0 
L 0 0 
z
" style="fill: #ffffff"/>
  </g>
  <g id="axes_1">
   <g id="patch_2">
    <path d="M 57.6 307.584 
L 414.72 307.584 
L 414.72 41.472 
L 57.6 41.472 
z
" style="fill: #ffffff"/>
   </g>
   <g id="matplotlib.axis_1">
    <g id="xtick_1">
     <g id="line2d_1">
      <defs>
       <path id="m65d4f3fa32" d="M 0 0 
L 0 3.5 
" style="stroke: #000000; stroke-width: 0.8"/>
      </defs>
      <g>
       <use xlink:href="#m65d4f3fa32" x="73.832727" y="307.584" style="stroke: #000000; stroke-width: 0.8"/>
      </g>
     </g>
     <g id="text_1">
      <!-- 0 -->
      <g transform="translate(70.651477 322.182437) scale(0.1 -0.1)">
       <defs>
        <path id="DejaVuSans-30" d="M 2034 4250 
Q 1547 4250 1301 3770 
Q 1056 3291 1056 2328 
Q 1056 1369 1301 889 
Q 1547 409 2034 409 
Q 2525 409 2770 889 
Q 3016 1369 3016 2328 
Q 3016 3291 2770 3770 
Q 2525 4250 2034 4250 
z
M 2034 4750 
Q 2819 4750 3233 4129 
Q 3647 3509 3647 2328 
Q 3647 1150 3233 529 
Q 2819 -91 2034 -91 
Q 1250 -91 836 529 
Q 422 1150 422 2328 
Q 422 3509 836 4129 
Q 1250 4750 2034 4750 
z
" transform="scale(0.015625)"/>
       </defs>
       <use xlink:href="#DejaVuSans-30"/>
      </g>
     </g>
    </g>
    <g id="xtick_2">
     <g id="line2d_2">
      <g>
       <use xlink:href="#m65d4f3fa32" x="116.27123" y="307.584" style="stroke: #000000; stroke-width: 0.8"/>
      </g>
     </g>
     <g id="text_2">
      <!-- 20 -->
      <g transform="translate(109.90873 322.182437) scale(0.1 -0.1)">
       <defs>
        <path id="DejaVuSans-32" d="M 1228 531 
L 3431 531 
L 3431 0 
L 469 0 
L 469 531 
Q 828 903 1448 1529 
Q 2069 2156 2228 2338 
Q 2531 2678 2651 2914 
Q 2772 3150 2772 3378 
Q 2772 3750 2511 3984 
Q 2250 4219 1831 4219 
Q 1534 4219 1204 4116 
Q 875 4013 500 3803 
L 500 4441 
Q 881 4594 1212 4672 
Q 1544 4750 1819 4750 
Q 2544 4750 2975 4387 
Q 3406 4025 3406 3419 
Q 3406 3131 3298 2873 
Q 3191 2616 2906 2266 
Q 2828 2175 2409 1742 
Q 1991 1309 1228 531 
z
" transform="scale(0.015625)"/>
       </defs>
       <use xlink:href="#DejaVuSans-32"/>
       <use xlink:href="#DejaVuSans-30" x="63.623047"/>
      </g>
     </g>
    </g>
    <g id="xtick_3">
     <g id="line2d_3">
      <g>
       <use xlink:href="#m65d4f3fa32" x="158.709733" y="307.584" style="stroke: #000000; stroke-width: 0.8"/>
      </g>
     </g>
     <g id="text_3">
      <!-- 40 -->
      <g transform="translate(152.347233 322.182437) scale(0.1 -0.1)">
       <defs>
        <path id="DejaVuSans-34" d="M 2419 4116 
L 825 1625 
L 2419 1625 
L 2419 4116 
z
M 2253 4666 
L 3047 4666 
L 3047 1625 
L 3713 1625 
L 3713 1100 
L 3047 1100 
L 3047 0 
L 2419 0 
L 2419 1100 
L 313 1100 
L 313 1709 
L 2253 4666 
z
" transform="scale(0.015625)"/>
       </defs>
       <use xlink:href="#DejaVuSans-34"/>
       <use xlink:href="#DejaVuSans-30" x="63.623047"/>
      </g>
     </g>
    </g>
    <g id="xtick_4">
     <g id="line2d_4">
      <g>
       <use xlink:href="#m65d4f3fa32" x="201.148235" y="307.584" style="stroke: #000000; stroke-width: 0.8"/>
      </g>
     </g>
     <g id="text_4">
      <!-- 60 -->
      <g transform="translate(194.785735 322.182437) scale(0.1 -0.1)">
       <defs>
        <path id="DejaVuSans-36" d="M 2113 2584 
Q 1688 2584 1439 2293 
Q 1191 2003 1191 1497 
Q 1191 994 1439 701 
Q 1688 409 2113 409 
Q 2538 409 2786 701 
Q 3034 994 3034 1497 
Q 3034 2003 2786 2293 
Q 2538 2584 2113 2584 
z
M 3366 4563 
L 3366 3988 
Q 3128 4100 2886 4159 
Q 2644 4219 2406 4219 
Q 1781 4219 1451 3797 
Q 1122 3375 1075 2522 
Q 1259 2794 1537 2939 
Q 1816 3084 2150 3084 
Q 2853 3084 3261 2657 
Q 3669 2231 3669 1497 
Q 3669 778 3244 343 
Q 2819 -91 2113 -91 
Q 1303 -91 875 529 
Q 447 1150 447 2328 
Q 447 3434 972 4092 
Q 1497 4750 2381 4750 
Q 2619 4750 2861 4703 
Q 3103 4656 3366 4563 
z
" transform="scale(0.015625)"/>
       </defs>
       <use xlink:href="#DejaVuSans-36"/>
       <use xlink:href="#DejaVuSans-30" x="63.623047"/>
      </g>
     </g>
    </g>
    <g id="xtick_5">
     <g id="line2d_5">
      <g>
       <use xlink:href="#m65d4f3fa32" x="243.586738" y="307.584" style="stroke: #000000; stroke-width: 0.8"/>
      </g>
     </g>
     <g id="text_5">
      <!-- 80 -->
      <g transform="translate(237.224238 322.182437) scale(0.1 -0.1)">
       <defs>
        <path id="DejaVuSans-38" d="M 2034 2216 
Q 1584 2216 1326 1975 
Q 1069 1734 1069 1313 
Q 1069 891 1326 650 
Q 1584 409 2034 409 
Q 2484 409 2743 651 
Q 3003 894 3003 1313 
Q 3003 1734 2745 1975 
Q 2488 2216 2034 2216 
z
M 1403 2484 
Q 997 2584 770 2862 
Q 544 3141 544 3541 
Q 544 4100 942 4425 
Q 1341 4750 2034 4750 
Q 2731 4750 3128 4425 
Q 3525 4100 3525 3541 
Q 3525 3141 3298 2862 
Q 3072 2584 2669 2484 
Q 3125 2378 3379 2068 
Q 3634 1759 3634 1313 
Q 3634 634 3220 271 
Q 2806 -91 2034 -91 
Q 1263 -91 848 271 
Q 434 634 434 1313 
Q 434 1759 690 2068 
Q 947 2378 1403 2484 
z
M 1172 3481 
Q 1172 3119 1398 2916 
Q 1625 2713 2034 2713 
Q 2441 2713 2670 2916 
Q 2900 3119 2900 3481 
Q 2900 3844 2670 4047 
Q 2441 4250 2034 4250 
Q 1625 4250 1398 4047 
Q 1172 3844 1172 3481 
z
" transform="scale(0.015625)"/>
       </defs>
       <use xlink:href="#DejaVuSans-38"/>
       <use xlink:href="#DejaVuSans-30" x="63.623047"/>
      </g>
     </g>
    </g>
    <g id="xtick_6">
     <g id="line2d_6">
      <g>
       <use xlink:href="#m65d4f3fa32" x="286.025241" y="307.584" style="stroke: #000000; stroke-width: 0.8"/>
      </g>
     </g>
     <g id="text_6">
      <!-- 100 -->
      <g transform="translate(276.481491 322.182437) scale(0.1 -0.1)">
       <defs>
        <path id="DejaVuSans-31" d="M 794 531 
L 1825 531 
L 1825 4091 
L 703 3866 
L 703 4441 
L 1819 4666 
L 2450 4666 
L 2450 531 
L 3481 531 
L 3481 0 
L 794 0 
L 794 531 
z
" transform="scale(0.015625)"/>
       </defs>
       <use xlink:href="#DejaVuSans-31"/>
       <use xlink:href="#DejaVuSans-30" x="63.623047"/>
       <use xlink:href="#DejaVuSans-30" x="127.246094"/>
      </g>
     </g>
    </g>
    <g id="xtick_7">
     <g id="line2d_7">
      <g>
       <use xlink:href="#m65d4f3fa32" x="328.463743" y="307.584" style="stroke: #000000; stroke-width: 0.8"/>
      </g>
     </g>
     <g id="text_7">
      <!-- 120 -->
      <g transform="translate(318.919993 322.182437) scale(0.1 -0.1)">
       <use xlink:href="#DejaVuSans-31"/>
       <use xlink:href="#DejaVuSans-32" x="63.623047"/>
       <use xlink:href="#DejaVuSans-30" x="127.246094"/>
      </g>
     </g>
    </g>
    <g id="xtick_8">
     <g id="line2d_8">
      <g>
       <use xlink:href="#m65d4f3fa32" x="370.902246" y="307.584" style="stroke: #000000; stroke-width: 0.8"/>
      </g>
     </g>
     <g id="text_8">
      <!-- 140 -->
      <g transform="translate(361.358496 322.182437) scale(0.1 -0.1)">
       <use xlink:href="#DejaVuSans-31"/>
       <use xlink:href="#DejaVuSans-34" x="63.623047"/>
       <use xlink:href="#DejaVuSans-30" x="127.246094"/>
      </g>
     </g>
    </g>
    <g id="xtick_9">
     <g id="line2d_9">
      <g>
       <use xlink:href="#m65d4f3fa32" x="413.340749" y="307.584" style="stroke: #000000; stroke-width: 0.8"/>
      </g>
     </g>
     <g id="text_9">
      <!-- 160 -->
      <g transform="translate(403.796999 322.182437) scale(0.1 -0.1)">
       <use xlink:href="#DejaVuSans-31"/>
       <use xlink:href="#DejaVuSans-36" x="63.623047"/>
       <use xlink:href="#DejaVuSans-30" x="127.246094"/>
      </g>
     </g>
    </g>
   </g>
   <g id="matplotlib.axis_2">
    <g id="ytick_1">
     <g id="line2d_10">
      <defs>
       <path id="m4bbbce621d" d="M 0 0 
L -3.5 0 
" style="stroke: #000000; stroke-width: 0.8"/>
      </defs>
      <g>
       <use xlink:href="#m4bbbce621d" x="57.6" y="283.185486" style="stroke: #000000; stroke-width: 0.8"/>
      </g>
     </g>
     <g id="text_10">
      <!-- −0.02 -->
      <g transform="translate(19.954687 286.984705) scale(0.1 -0.1)">
       <defs>
        <path id="DejaVuSans-2212" d="M 678 2272 
L 4684 2272 
L 4684 1741 
L 678 1741 
L 678 2272 
z
" transform="scale(0.015625)"/>
        <path id="DejaVuSans-2e" d="M 684 794 
L 1344 794 
L 1344 0 
L 684 0 
L 684 794 
z
" transform="scale(0.015625)"/>
       </defs>
       <use xlink:href="#DejaVuSans-2212"/>
       <use xlink:href="#DejaVuSans-30" x="83.789062"/>
       <use xlink:href="#DejaVuSans-2e" x="147.412109"/>
       <use xlink:href="#DejaVuSans-30" x="179.199219"/>
       <use xlink:href="#DejaVuSans-32" x="242.822266"/>
      </g>
     </g>
    </g>
    <g id="ytick_2">
     <g id="line2d_11">
      <g>
       <use xlink:href="#m4bbbce621d" x="57.6" y="240.946542" style="stroke: #000000; stroke-width: 0.8"/>
      </g>
     </g>
     <g id="text_11">
      <!-- −0.01 -->
      <g transform="translate(19.954687 244.74576) scale(0.1 -0.1)">
       <use xlink:href="#DejaVuSans-2212"/>
       <use xlink:href="#DejaVuSans-30" x="83.789062"/>
       <use xlink:href="#DejaVuSans-2e" x="147.412109"/>
       <use xlink:href="#DejaVuSans-30" x="179.199219"/>
       <use xlink:href="#DejaVuSans-31" x="242.822266"/>
      </g>
     </g>
    </g>
    <g id="ytick_3">
     <g id="line2d_12">
      <g>
       <use xlink:href="#m4bbbce621d" x="57.6" y="198.707597" style="stroke: #000000; stroke-width: 0.8"/>
      </g>
     </g>
     <g id="text_12">
      <!-- 0.00 -->
      <g transform="translate(28.334375 202.506816) scale(0.1 -0.1)">
       <use xlink:href="#DejaVuSans-30"/>
       <use xlink:href="#DejaVuSans-2e" x="63.623047"/>
       <use xlink:href="#DejaVuSans-30" x="95.410156"/>
       <use xlink:href="#DejaVuSans-30" x="159.033203"/>
      </g>
     </g>
    </g>
    <g id="ytick_4">
     <g id="line2d_13">
      <g>
       <use xlink:href="#m4bbbce621d" x="57.6" y="156.468652" style="stroke: #000000; stroke-width: 0.8"/>
      </g>
     </g>
     <g id="text_13">
      <!-- 0.01 -->
      <g transform="translate(28.334375 160.267871) scale(0.1 -0.1)">
       <use xlink:href="#DejaVuSans-30"/>
       <use xlink:href="#DejaVuSans-2e" x="63.623047"/>
       <use xlink:href="#DejaVuSans-30" x="95.410156"/>
       <use xlink:href="#DejaVuSans-31" x="159.033203"/>
      </g>
     </g>
    </g>
    <g id="ytick_5">
     <g id="line2d_14">
      <g>
       <use xlink:href="#m4bbbce621d" x="57.6" y="114.229707" style="stroke: #000000; stroke-width: 0.8"/>
      </g>
     </g>
     <g id="text_14">
      <!-- 0.02 -->
      <g transform="translate(28.334375 118.028926) scale(0.1 -0.1)">
       <use xlink:href="#DejaVuSans-30"/>
       <use xlink:href="#DejaVuSans-2e" x="63.623047"/>
       <use xlink:href="#DejaVuSans-30" x="95.410156"/>
       <use xlink:href="#DejaVuSans-32" x="159.033203"/>
      </g>
     </g>
    </g>
    <g id="ytick_6">
     <g id="line2d_15">
      <g>
       <use xlink:href="#m4bbbce621d" x="57.6" y="71.990763" style="stroke: #000000; stroke-width: 0.8"/>
      </g>
     </g>
     <g id="text_15">
      <!-- 0.03 -->
      <g transform="translate(28.334375 75.789982) scale(0.1 -0.1)">
       <defs>
        <path id="DejaVuSans-33" d="M 2597 2516 
Q 3050 2419 3304 2112 
Q 3559 1806 3559 1356 
Q 3559 666 3084 287 
Q 2609 -91 1734 -91 
Q 1441 -91 1130 -33 
Q 819 25 488 141 
L 488 750 
Q 750 597 1062 519 
Q 1375 441 1716 441 
Q 2309 441 2620 675 
Q 2931 909 2931 1356 
Q 2931 1769 2642 2001 
Q 2353 2234 1838 2234 
L 1294 2234 
L 1294 2753 
L 1863 2753 
Q 2328 2753 2575 2939 
Q 2822 3125 2822 3475 
Q 2822 3834 2567 4026 
Q 2313 4219 1838 4219 
Q 1578 4219 1281 4162 
Q 984 4106 628 3988 
L 628 4550 
Q 988 4650 1302 4700 
Q 1616 4750 1894 4750 
Q 2613 4750 3031 4423 
Q 3450 4097 3450 3541 
Q 3450 3153 3228 2886 
Q 3006 2619 2597 2516 
z
" transform="scale(0.015625)"/>
       </defs>
       <use xlink:href="#DejaVuSans-30"/>
       <use xlink:href="#DejaVuSans-2e" x="63.623047"/>
       <use xlink:href="#DejaVuSans-30" x="95.410156"/>
       <use xlink:href="#DejaVuSans-33" x="159.033203"/>
      </g>
     </g>
    </g>
   </g>
   <g id="line2d_16">
    <path d="M 73.832727 192.434158 
L 75.954652 192.709218 
L 78.076578 186.975179 
L 80.198503 186.021994 
L 82.320428 192.145804 
L 84.442353 169.592169 
L 86.564278 184.832049 
L 88.686203 185.696891 
L 90.808128 207.19026 
L 92.930053 186.24388 
L 95.051979 206.200581 
L 97.173904 187.658797 
L 99.295829 179.883237 
L 101.417754 193.492947 
L 103.539679 202.046975 
L 105.661604 197.236499 
L 107.783529 175.996676 
L 109.905455 190.449994 
L 112.02738 179.760409 
L 114.149305 189.619183 
L 116.27123 194.758827 
L 118.393155 186.914382 
L 120.51508 191.160102 
L 122.637005 196.577924 
L 124.75893 178.839105 
L 126.880856 191.897598 
L 129.002781 191.074864 
L 131.124706 185.201787 
L 133.246631 203.549701 
L 135.368556 184.264263 
L 137.490481 191.35874 
L 139.612406 183.16353 
L 141.734332 188.89869 
L 143.856257 186.510203 
L 145.978182 203.090221 
L 148.100107 199.491263 
L 150.222032 180.86723 
L 152.343957 180.398265 
L 154.465882 191.403926 
L 156.587807 189.135937 
L 158.709733 182.633901 
L 160.831658 191.031228 
L 162.953583 185.988422 
L 165.075508 211.284155 
L 167.197433 195.690681 
L 169.319358 187.553525 
L 171.441283 187.518293 
L 173.563209 202.778647 
L 175.685134 188.064664 
L 177.807059 196.560321 
L 179.928984 182.790457 
L 182.050909 185.848591 
L 184.172834 182.679694 
L 186.294759 227.513997 
L 188.416684 162.949037 
L 190.53861 195.918634 
L 192.660535 192.549535 
L 194.78246 197.075174 
L 196.904385 183.064441 
L 199.02631 212.594747 
L 201.148235 204.600641 
L 203.27016 183.897938 
L 205.392086 193.554786 
L 207.514011 214.644898 
L 209.635936 211.790663 
L 211.757861 189.029344 
L 213.879786 185.920318 
L 216.001711 189.218561 
L 218.123636 182.221895 
L 220.245561 186.548353 
L 222.367487 184.902099 
L 224.489412 197.018966 
L 226.611337 193.410166 
L 228.733262 201.918328 
L 230.855187 193.139568 
L 232.977112 191.871287 
L 235.099037 185.618979 
L 237.220963 178.222114 
L 239.342888 194.751739 
L 241.464813 178.675061 
L 243.586738 186.006783 
L 245.708663 180.450731 
L 247.830588 202.96363 
L 249.952513 193.577235 
L 252.074439 190.024852 
L 254.196364 190.649581 
L 256.318289 179.617732 
L 258.440214 177.744142 
L 260.562139 183.919045 
L 262.684064 182.562864 
L 264.805989 191.882866 
L 266.927914 181.600513 
L 269.04984 207.470452 
L 271.171765 181.350237 
L 273.29369 178.020358 
L 275.415615 190.088194 
L 277.53754 190.349105 
L 279.659465 177.73885 
L 281.78139 179.203121 
L 283.903316 192.900194 
L 286.025241 189.226391 
L 288.147166 191.607393 
L 290.269091 189.500742 
L 292.391016 195.969098 
L 294.512941 180.473974 
L 296.634866 163.350195 
L 298.756791 196.612793 
L 303.000642 178.290049 
L 305.122567 174.389861 
L 307.244492 182.538141 
L 309.366417 211.080072 
L 311.488342 177.808893 
L 313.610267 191.085135 
L 315.732193 168.575989 
L 317.854118 195.257977 
L 319.976043 190.052432 
L 322.097968 181.998986 
L 324.219893 184.533363 
L 326.341818 196.330016 
L 328.463743 176.501835 
L 330.585668 188.576089 
L 332.707594 202.851233 
L 334.829519 208.858422 
L 336.951444 196.875366 
L 339.073369 202.058649 
L 341.195294 202.123819 
L 343.317219 186.364765 
L 345.439144 205.741367 
L 347.56107 207.047169 
L 349.682995 182.334764 
L 351.80492 184.890261 
L 353.926845 190.669684 
L 356.04877 198.688178 
L 358.170695 200.981587 
L 360.29262 186.988137 
L 362.414545 177.972669 
L 364.536471 177.298595 
L 366.658396 191.843987 
L 368.780321 198.308754 
L 370.902246 185.883029 
L 373.024171 202.947073 
L 375.146096 176.740606 
L 377.268021 182.447669 
L 379.389947 185.897268 
L 381.511872 181.431713 
L 383.633797 180.495943 
L 385.755722 192.649741 
L 387.877647 189.357522 
L 389.999572 193.638917 
L 392.121497 201.309599 
L 394.243422 183.549813 
L 396.365348 203.278152 
L 398.487273 203.476203 
L 398.487273 203.476203 
" clip-path="url(#p027c540df5)" style="fill: none; stroke: #008000; stroke-opacity: 0.8; stroke-width: 0.5; stroke-linecap: square"/>
   </g>
   <g id="line2d_17">
    <path d="M 73.832727 152.359304 
L 75.954652 136.628284 
L 78.076578 154.199882 
L 80.198503 137.598785 
L 82.320428 165.901664 
L 84.442353 143.117095 
L 86.564278 145.877384 
L 88.686203 150.870016 
L 90.808128 116.489871 
L 92.930053 141.560618 
L 95.051979 156.922233 
L 97.173904 133.720329 
L 99.295829 146.957436 
L 101.417754 123.572603 
L 103.539679 149.283398 
L 105.661604 152.503995 
L 107.783529 131.19007 
L 109.905455 154.278232 
L 112.02738 155.297326 
L 114.149305 142.985817 
L 116.27123 151.837146 
L 118.393155 166.164929 
L 120.51508 155.920663 
L 122.637005 119.38442 
L 124.75893 157.569345 
L 126.880856 161.493896 
L 129.002781 168.64234 
L 131.124706 138.801743 
L 133.246631 184.108086 
L 135.368556 145.863665 
L 137.490481 165.06104 
L 139.612406 150.108608 
L 141.734332 166.29629 
L 143.856257 167.332311 
L 145.978182 154.053165 
L 148.100107 170.057246 
L 150.222032 147.88025 
L 152.343957 158.41071 
L 154.465882 161.058923 
L 156.587807 166.754493 
L 158.709733 151.377268 
L 160.831658 168.657511 
L 162.953583 164.842307 
L 165.075508 176.084062 
L 167.197433 169.515324 
L 169.319358 158.206823 
L 171.441283 162.873516 
L 173.563209 183.742211 
L 175.685134 161.984556 
L 177.807059 163.622261 
L 179.928984 162.161528 
L 182.050909 163.052544 
L 184.172834 167.434256 
L 186.294759 196.679388 
L 188.416684 53.568 
L 190.53861 136.722237 
L 192.660535 161.893574 
L 194.78246 167.760869 
L 196.904385 153.4072 
L 199.02631 162.151492 
L 201.148235 165.965713 
L 203.27016 156.380968 
L 205.392086 185.152626 
L 207.514011 196.149281 
L 211.757861 149.148935 
L 213.879786 148.559881 
L 216.001711 158.8545 
L 218.123636 153.690476 
L 220.245561 163.765467 
L 222.367487 151.561827 
L 224.489412 164.39806 
L 226.611337 170.417035 
L 228.733262 172.808436 
L 232.977112 143.238651 
L 235.099037 151.076483 
L 237.220963 154.809461 
L 239.342888 160.818937 
L 241.464813 144.751436 
L 243.586738 149.094984 
L 245.708663 147.666244 
L 247.830588 178.801461 
L 249.952513 137.62806 
L 252.074439 152.027297 
L 254.196364 177.560382 
L 256.318289 147.459971 
L 258.440214 124.515799 
L 260.562139 160.988307 
L 262.684064 148.422169 
L 264.805989 144.019741 
L 266.927914 150.782115 
L 269.04984 197.848243 
L 271.171765 164.337375 
L 273.29369 144.647308 
L 275.415615 163.23301 
L 277.53754 146.545333 
L 279.659465 140.091114 
L 281.78139 155.090506 
L 283.903316 175.892494 
L 286.025241 166.750555 
L 288.147166 172.472738 
L 290.269091 146.368611 
L 292.391016 140.427978 
L 294.512941 155.887847 
L 296.634866 99.722291 
L 298.756791 146.070353 
L 300.878717 166.499396 
L 303.000642 150.809655 
L 305.122567 139.620194 
L 307.244492 124.684669 
L 309.366417 176.767662 
L 311.488342 125.389899 
L 313.610267 149.14717 
L 315.732193 117.600587 
L 317.854118 142.145283 
L 319.976043 159.51647 
L 322.097968 140.349654 
L 324.219893 140.204398 
L 326.341818 145.436895 
L 328.463743 116.169156 
L 330.585668 128.565434 
L 332.707594 150.031672 
L 334.829519 151.29694 
L 336.951444 143.160401 
L 339.073369 167.044639 
L 341.195294 155.380929 
L 343.317219 123.632086 
L 345.439144 163.121977 
L 347.56107 130.244291 
L 349.682995 153.763416 
L 351.80492 158.971904 
L 353.926845 136.069919 
L 356.04877 154.263499 
L 358.170695 159.485922 
L 360.29262 152.196017 
L 362.414545 153.177006 
L 364.536471 151.698146 
L 366.658396 172.548067 
L 368.780321 155.969734 
L 370.902246 157.838325 
L 373.024171 149.551043 
L 375.146096 148.3908 
L 377.268021 163.612264 
L 379.389947 149.468993 
L 381.511872 137.298734 
L 383.633797 151.630757 
L 385.755722 157.423338 
L 387.877647 166.591499 
L 389.999572 167.708323 
L 392.121497 166.909728 
L 394.243422 143.979591 
L 396.365348 167.547663 
L 398.487273 188.030913 
L 398.487273 188.030913 
" clip-path="url(#p027c540df5)" style="fill: none; stroke: #32cd32; stroke-opacity: 0.8; stroke-width: 0.5; stroke-linecap: square"/>
   </g>
   <g id="line2d_18">
    <path d="M 73.832727 237.689182 
L 75.954652 246.502255 
L 78.076578 222.702275 
L 80.198503 242.796612 
L 82.320428 217.851207 
L 84.442353 201.025558 
L 86.564278 231.239751 
L 88.686203 245.886693 
L 90.808128 270.335888 
L 92.930053 216.432633 
L 95.051979 247.277855 
L 97.173904 222.619804 
L 99.295829 205.667635 
L 101.417754 241.441204 
L 103.539679 240.583458 
L 105.661604 244.485652 
L 107.783529 198.639552 
L 109.905455 221.48211 
L 114.149305 214.522467 
L 116.27123 238.676297 
L 118.393155 217.384115 
L 120.51508 234.850916 
L 122.637005 221.322687 
L 124.75893 207.011488 
L 126.880856 226.736937 
L 129.002781 209.386703 
L 131.124706 214.781242 
L 133.246631 253.428947 
L 135.368556 224.053019 
L 137.490481 207.788715 
L 139.612406 211.611222 
L 141.734332 207.470888 
L 143.856257 207.599174 
L 145.978182 228.132026 
L 148.100107 242.490802 
L 150.222032 210.228145 
L 152.343957 194.731606 
L 154.465882 245.704496 
L 156.587807 222.28099 
L 158.709733 214.426128 
L 160.831658 212.649837 
L 162.953583 204.453349 
L 165.075508 246.265262 
L 167.197433 233.606833 
L 169.319358 210.583569 
L 171.441283 205.910793 
L 173.563209 237.336209 
L 175.685134 229.823471 
L 177.807059 245.658511 
L 179.928984 200.761013 
L 182.050909 226.396219 
L 184.172834 204.124598 
L 186.294759 277.727672 
L 188.416684 226.083881 
L 190.53861 270.44453 
L 192.660535 234.033625 
L 194.78246 237.706017 
L 196.904385 204.237702 
L 199.02631 237.17827 
L 201.148235 249.248494 
L 203.27016 224.928045 
L 205.392086 214.117559 
L 207.514011 238.143112 
L 209.635936 270.336895 
L 211.757861 236.568055 
L 216.001711 208.749175 
L 218.123636 223.137957 
L 220.245561 211.255412 
L 222.367487 221.509922 
L 224.489412 241.829286 
L 226.611337 224.216573 
L 228.733262 237.786866 
L 230.855187 241.13759 
L 232.977112 223.231947 
L 235.099037 206.918298 
L 237.220963 214.271215 
L 239.342888 228.863238 
L 241.464813 213.818916 
L 243.586738 221.501483 
L 245.708663 208.558412 
L 247.830588 226.032336 
L 249.952513 216.005735 
L 252.074439 233.235454 
L 254.196364 214.589017 
L 256.318289 197.950159 
L 258.440214 203.693268 
L 260.562139 212.000298 
L 262.684064 204.546454 
L 264.805989 224.171434 
L 266.927914 205.112728 
L 269.04984 222.034891 
L 271.171765 202.416454 
L 273.29369 202.39398 
L 275.415615 208.129533 
L 277.53754 221.903872 
L 279.659465 198.30762 
L 281.78139 227.276957 
L 283.903316 215.804914 
L 286.025241 212.969798 
L 288.147166 204.446732 
L 290.269091 229.012555 
L 292.391016 259.244902 
L 294.512941 202.492515 
L 296.634866 195.628872 
L 298.756791 261.3595 
L 300.878717 232.772418 
L 303.000642 210.72338 
L 305.122567 214.806746 
L 307.244492 236.194083 
L 309.366417 250.933988 
L 311.488342 223.527994 
L 313.610267 230.050241 
L 315.732193 197.625832 
L 317.854118 242.365168 
L 319.976043 225.260498 
L 322.097968 219.436392 
L 324.219893 212.127072 
L 326.341818 231.210143 
L 328.463743 248.131627 
L 330.585668 261.375495 
L 332.707594 262.880629 
L 334.829519 280.153037 
L 336.951444 235.860268 
L 339.073369 247.580878 
L 341.195294 285.469406 
L 343.317219 239.570584 
L 345.439144 244.168909 
L 347.56107 288.924108 
L 349.682995 202.152579 
L 351.80492 217.160225 
L 353.926845 228.324081 
L 356.04877 247.874337 
L 358.170695 248.444361 
L 360.29262 221.661714 
L 362.414545 214.818584 
L 364.536471 198.287024 
L 368.780321 251.261273 
L 370.902246 224.426213 
L 373.024171 278.995554 
L 375.146096 200.024665 
L 377.268021 197.735096 
L 379.389947 235.743985 
L 381.511872 206.60887 
L 383.633797 202.876257 
L 385.755722 218.912257 
L 387.877647 231.289539 
L 389.999572 253.591134 
L 392.121497 277.587063 
L 394.243422 233.672851 
L 396.365348 249.785612 
L 398.487273 246.807424 
L 398.487273 246.807424 
" clip-path="url(#p027c540df5)" style="fill: none; stroke: #32cd32; stroke-opacity: 0.8; stroke-width: 0.5; stroke-linecap: square"/>
   </g>
   <g id="line2d_19">
    <path d="M 73.832727 194.870248 
L 75.954652 207.290172 
L 78.076578 206.298426 
L 82.320428 214.706638 
L 84.442353 176.048683 
L 86.564278 198.491628 
L 88.686203 194.799775 
L 90.808128 207.285358 
L 92.930053 213.810323 
L 95.051979 223.309209 
L 97.173904 216.898996 
L 99.295829 205.992868 
L 101.417754 212.414337 
L 103.539679 209.954209 
L 105.661604 223.45565 
L 107.783529 200.020143 
L 109.905455 214.833369 
L 112.02738 203.92748 
L 114.149305 212.841993 
L 116.27123 217.81379 
L 118.393155 216.086733 
L 120.51508 219.141879 
L 122.637005 220.137691 
L 124.75893 203.226318 
L 126.880856 211.126064 
L 129.002781 213.854639 
L 131.124706 201.923761 
L 133.246631 222.504508 
L 135.368556 195.199235 
L 137.490481 219.729789 
L 139.612406 208.924376 
L 141.734332 214.545002 
L 143.856257 206.128225 
L 145.978182 214.276304 
L 148.100107 216.454239 
L 150.222032 204.184277 
L 152.343957 203.569118 
L 154.465882 216.285623 
L 156.587807 207.39132 
L 158.709733 204.321449 
L 160.831658 216.358642 
L 162.953583 205.026479 
L 165.075508 219.283071 
L 167.197433 211.233336 
L 169.319358 199.298031 
L 171.441283 205.513718 
L 173.563209 221.664595 
L 175.685134 217.180277 
L 177.807059 205.460557 
L 179.928984 205.075254 
L 182.050909 200.199106 
L 184.172834 192.744074 
L 186.294759 238.898867 
L 188.416684 169.537148 
L 190.53861 217.777568 
L 192.660535 214.076587 
L 194.78246 214.507562 
L 196.904385 205.158735 
L 199.02631 228.129817 
L 201.148235 212.504446 
L 203.27016 203.357019 
L 205.392086 212.488706 
L 207.514011 230.724062 
L 209.635936 217.885905 
L 211.757861 208.247003 
L 213.879786 206.19602 
L 216.001711 207.835198 
L 218.123636 203.263923 
L 220.245561 210.649281 
L 222.367487 204.516889 
L 224.489412 217.450478 
L 226.611337 217.009514 
L 228.733262 218.836414 
L 230.855187 214.382795 
L 232.977112 214.154169 
L 235.099037 204.06474 
L 237.220963 203.078331 
L 239.342888 213.445368 
L 241.464813 198.62546 
L 243.586738 207.626471 
L 245.708663 194.700261 
L 247.830588 222.872387 
L 249.952513 216.291955 
L 252.074439 211.346675 
L 254.196364 214.698785 
L 256.318289 206.136455 
L 258.440214 198.103537 
L 260.562139 201.558239 
L 262.684064 199.047038 
L 264.805989 205.621814 
L 266.927914 188.275363 
L 269.04984 225.186651 
L 271.171765 194.980667 
L 273.29369 188.232171 
L 275.415615 206.346451 
L 277.53754 211.874946 
L 281.78139 190.965225 
L 283.903316 213.507823 
L 286.025241 213.323759 
L 288.147166 210.385433 
L 290.269091 212.359105 
L 292.391016 213.517745 
L 294.512941 200.367668 
L 296.634866 179.530097 
L 298.756791 218.186821 
L 300.878717 208.227052 
L 303.000642 191.801882 
L 305.122567 205.36508 
L 307.244492 206.313148 
L 309.366417 231.216373 
L 311.488342 196.448714 
L 313.610267 214.8592 
L 315.732193 190.044152 
L 317.854118 209.803328 
L 319.976043 211.764345 
L 322.097968 206.841107 
L 324.219893 215.385593 
L 326.341818 213.114993 
L 328.463743 201.7731 
L 330.585668 208.851011 
L 332.707594 226.426432 
L 334.829519 222.83996 
L 336.951444 210.936218 
L 339.073369 217.464043 
L 341.195294 212.199594 
L 343.317219 205.789642 
L 345.439144 220.812552 
L 347.56107 205.877325 
L 349.682995 192.572472 
L 351.80492 201.822129 
L 353.926845 214.005678 
L 356.04877 220.043911 
L 358.170695 221.430614 
L 360.29262 213.395158 
L 362.414545 198.145251 
L 364.536471 191.842788 
L 366.658396 205.171325 
L 368.780321 221.381265 
L 370.902246 208.867749 
L 373.024171 217.321775 
L 375.146096 202.810419 
L 377.268021 197.035423 
L 379.389947 201.315641 
L 381.511872 193.783654 
L 383.633797 201.16962 
L 385.755722 207.603695 
L 387.877647 214.420667 
L 392.121497 227.490497 
L 394.243422 197.317275 
L 396.365348 222.774729 
L 398.487273 206.2784 
L 398.487273 206.2784 
" clip-path="url(#p027c540df5)" style="fill: none; stroke: #ff0000; stroke-opacity: 0.8; stroke-width: 0.5; stroke-linecap: square"/>
   </g>
   <g id="line2d_20">
    <path d="M 73.832727 153.774653 
L 75.954652 166.279925 
L 80.198503 157.574774 
L 82.320428 187.874506 
L 84.442353 118.135147 
L 86.564278 158.142317 
L 88.686203 156.838617 
L 90.808128 118.57737 
L 92.930053 169.603887 
L 95.051979 184.356812 
L 97.173904 185.915985 
L 99.295829 170.416206 
L 101.417754 133.158392 
L 103.539679 170.068633 
L 105.661604 191.124851 
L 107.783529 159.292978 
L 109.905455 172.055934 
L 112.02738 178.937822 
L 114.149305 163.387632 
L 116.27123 181.639333 
L 118.393155 192.400218 
L 120.51508 189.58456 
L 122.637005 149.891326 
L 124.75893 188.925353 
L 126.880856 178.822769 
L 129.002781 184.488564 
L 131.124706 175.852183 
L 133.246631 194.185417 
L 135.368556 165.54414 
L 137.490481 198.201343 
L 139.612406 172.905362 
L 141.734332 193.400589 
L 143.856257 181.515717 
L 145.978182 172.952826 
L 148.100107 193.965828 
L 150.222032 170.57913 
L 152.343957 176.894394 
L 154.465882 171.096669 
L 156.587807 188.579474 
L 158.709733 158.263264 
L 160.831658 188.879367 
L 162.953583 186.036958 
L 165.075508 197.315688 
L 167.197433 190.373395 
L 169.319358 171.314677 
L 171.441283 183.230563 
L 173.563209 192.860264 
L 175.685134 199.30107 
L 177.807059 185.236329 
L 179.928984 158.5217 
L 182.050909 165.423353 
L 184.172834 163.822207 
L 186.294759 191.819281 
L 188.416684 63.17661 
L 190.53861 158.155069 
L 192.660535 182.846522 
L 194.78246 181.608437 
L 196.904385 174.786558 
L 199.02631 187.717527 
L 201.148235 168.322347 
L 203.27016 182.104503 
L 205.392086 189.216788 
L 207.514011 208.108851 
L 209.635936 168.707011 
L 211.757861 174.950668 
L 213.879786 176.501055 
L 216.001711 171.884797 
L 218.123636 151.921672 
L 220.245561 185.649387 
L 222.367487 156.984576 
L 224.489412 190.724952 
L 226.611337 190.999272 
L 228.733262 193.831064 
L 230.855187 197.795256 
L 232.977112 168.219671 
L 235.099037 156.462602 
L 237.220963 161.650374 
L 239.342888 180.80257 
L 241.464813 159.599237 
L 243.586738 185.373183 
L 245.708663 168.068454 
L 247.830588 200.431225 
L 249.952513 167.367927 
L 254.196364 194.795159 
L 256.318289 167.336867 
L 258.440214 150.195999 
L 260.562139 178.639762 
L 262.684064 159.749677 
L 264.805989 170.602974 
L 266.927914 128.871863 
L 269.04984 211.352985 
L 271.171765 175.486225 
L 273.29369 149.375879 
L 275.415615 175.027959 
L 277.53754 165.265638 
L 279.659465 163.426834 
L 281.78139 143.595509 
L 283.903316 197.50458 
L 286.025241 180.87866 
L 288.147166 189.589835 
L 290.269091 172.626834 
L 292.391016 151.629592 
L 294.512941 168.176288 
L 296.634866 102.981824 
L 298.756791 184.973416 
L 300.878717 181.257775 
L 303.000642 158.935733 
L 305.122567 165.817814 
L 307.244492 146.501662 
L 309.366417 186.990833 
L 311.488342 134.120776 
L 313.610267 161.613771 
L 315.732193 132.713082 
L 317.854118 142.790153 
L 319.976043 174.864869 
L 322.097968 166.864337 
L 324.219893 154.140549 
L 326.341818 153.344808 
L 328.463743 142.300689 
L 330.585668 155.166314 
L 332.707594 166.966971 
L 334.829519 167.473081 
L 336.951444 165.56921 
L 339.073369 191.534668 
L 341.195294 185.549505 
L 343.317219 145.654596 
L 345.439144 187.980973 
L 347.56107 172.341837 
L 349.682995 168.559875 
L 351.80492 168.912367 
L 353.926845 150.972515 
L 356.04877 177.765628 
L 358.170695 191.827806 
L 360.29262 179.644122 
L 362.414545 169.052527 
L 364.536471 167.489608 
L 366.658396 182.218288 
L 368.780321 180.512818 
L 370.902246 178.36438 
L 373.024171 170.629547 
L 375.146096 175.527354 
L 377.268021 175.011951 
L 379.389947 177.067079 
L 381.511872 148.399161 
L 383.633797 159.350884 
L 385.755722 168.528689 
L 387.877647 189.481261 
L 389.999572 193.83337 
L 392.121497 193.983921 
L 394.243422 168.77554 
L 396.365348 178.573077 
L 398.487273 203.961707 
L 398.487273 203.961707 
" clip-path="url(#p027c540df5)" style="fill: none; stroke: #f08080; stroke-opacity: 0.8; stroke-width: 0.5; stroke-linecap: square"/>
   </g>
   <g id="line2d_21">
    <path d="M 73.832727 247.291702 
L 75.954652 245.743607 
L 78.076578 246.027093 
L 80.198503 266.375645 
L 82.320428 240.877878 
L 84.442353 209.771857 
L 86.564278 235.074993 
L 88.686203 231.403271 
L 90.808128 238.330521 
L 92.930053 251.569873 
L 95.051979 266.744639 
L 97.173904 263.09038 
L 99.295829 246.609962 
L 101.417754 257.302376 
L 103.539679 246.130428 
L 105.661604 253.105525 
L 107.783529 228.246755 
L 109.905455 248.247057 
L 112.02738 237.71675 
L 114.149305 235.07381 
L 116.27123 261.750342 
L 118.393155 236.548639 
L 120.51508 237.651785 
L 122.637005 253.195264 
L 124.75893 222.515359 
L 126.880856 239.278441 
L 129.002781 236.78413 
L 131.124706 234.50013 
L 133.246631 255.809326 
L 135.368556 229.663492 
L 137.490481 239.621009 
L 139.612406 238.811595 
L 141.734332 233.422583 
L 143.856257 233.382842 
L 145.978182 253.312963 
L 148.100107 258.973349 
L 150.222032 230.448701 
L 152.343957 236.252949 
L 154.465882 279.282118 
L 156.587807 232.842406 
L 158.709733 248.053008 
L 160.831658 233.140539 
L 162.953583 234.196602 
L 165.075508 244.113576 
L 167.197433 238.070279 
L 169.319358 236.327054 
L 171.441283 228.106539 
L 173.563209 246.114871 
L 175.685134 254.456867 
L 177.807059 227.472055 
L 179.928984 229.949975 
L 182.050909 245.741553 
L 184.172834 220.200163 
L 186.294759 288.134635 
L 188.416684 222.991292 
L 190.53861 286.875581 
L 192.660535 247.348823 
L 194.78246 249.048638 
L 196.904385 223.86212 
L 199.02631 260.040946 
L 201.148235 262.057998 
L 203.27016 234.129472 
L 205.392086 246.669447 
L 207.514011 251.039197 
L 209.635936 268.515125 
L 211.757861 238.967405 
L 213.879786 236.925019 
L 216.001711 231.555809 
L 218.123636 247.108127 
L 220.245561 240.933199 
L 222.367487 245.301322 
L 224.489412 255.908542 
L 226.611337 232.907318 
L 228.733262 267.017275 
L 230.855187 246.383671 
L 232.977112 240.37397 
L 235.099037 246.120568 
L 237.220963 254.406294 
L 239.342888 247.731561 
L 241.464813 236.600844 
L 243.586738 244.913848 
L 245.708663 241.82122 
L 247.830588 243.372464 
L 249.952513 238.435496 
L 252.074439 262.669382 
L 254.196364 247.433688 
L 256.318289 230.032484 
L 258.440214 229.588877 
L 260.562139 230.162436 
L 262.684064 220.407989 
L 264.805989 238.897121 
L 266.927914 243.696225 
L 269.04984 239.074027 
L 271.171765 205.600098 
L 273.29369 211.994478 
L 275.415615 223.974525 
L 277.53754 254.141256 
L 279.659465 234.450396 
L 281.78139 254.934698 
L 283.903316 234.988001 
L 286.025241 237.877958 
L 288.147166 243.731194 
L 290.269091 251.264113 
L 292.391016 266.366118 
L 294.512941 227.316347 
L 296.634866 215.328389 
L 298.756791 293.68328 
L 300.878717 260.798713 
L 303.000642 218.286087 
L 305.122567 285.2972 
L 307.244492 259.239755 
L 309.366417 267.037591 
L 311.488342 229.632382 
L 313.610267 257.824916 
L 315.732193 226.025994 
L 317.854118 255.638316 
L 319.976043 244.826501 
L 322.097968 258.718613 
L 324.219893 291.530366 
L 326.341818 247.463657 
L 328.463743 271.779263 
L 330.585668 276.198135 
L 332.707594 274.187191 
L 334.829519 279.297545 
L 336.951444 264.986116 
L 339.073369 264.107461 
L 341.195294 247.590076 
L 343.317219 251.787557 
L 345.439144 253.016535 
L 347.56107 276.051494 
L 349.682995 222.697149 
L 351.80492 259.104147 
L 353.926845 262.539454 
L 356.04877 261.055061 
L 358.170695 255.705098 
L 360.29262 248.968246 
L 362.414545 245.409356 
L 364.536471 217.552415 
L 366.658396 252.603816 
L 368.780321 263.881804 
L 370.902246 254.149241 
L 373.024171 267.059173 
L 375.146096 242.50449 
L 377.268021 222.604581 
L 379.389947 247.427669 
L 381.511872 234.744151 
L 383.633797 231.427919 
L 385.755722 237.826746 
L 387.877647 254.693102 
L 389.999572 268.88242 
L 392.121497 295.488 
L 394.243422 240.726903 
L 396.365348 265.959483 
L 398.487273 233.257552 
L 398.487273 233.257552 
" clip-path="url(#p027c540df5)" style="fill: none; stroke: #f08080; stroke-opacity: 0.8; stroke-width: 0.5; stroke-linecap: square"/>
   </g>
   <g id="patch_3">
    <path d="M 57.6 307.584 
L 57.6 41.472 
" style="fill: none; stroke: #000000; stroke-width: 0.8; stroke-linejoin: miter; stroke-linecap: square"/>
   </g>
   <g id="patch_4">
    <path d="M 414.72 307.584 
L 414.72 41.472 
" style="fill: none; stroke: #000000; stroke-width: 0.8; stroke-linejoin: miter; stroke-linecap: square"/>
   </g>
   <g id="patch_5">
    <path d="M 57.6 307.584 
L 414.72 307.584 
" style="fill: none; stroke: #000000; stroke-width: 0.8; stroke-linejoin: miter; stroke-linecap: square"/>
   </g>
   <g id="patch_6">
    <path d="M 57.6 41.472 
L 414.72 41.472 
" style="fill: none; stroke: #000000; stroke-width: 0.8; stroke-linejoin: miter; stroke-linecap: square"/>
   </g>
   <g id="text_16">
    <!-- 1final_isomorphism_eurusd -->
    <g transform="translate(154.024687 35.472) scale(0.12 -0.12)">
     <defs>
      <path id="DejaVuSans-66" d="M 2375 4863 
L 2375 4384 
L 1825 4384 
Q 1516 4384 1395 4259 
Q 1275 4134 1275 3809 
L 1275 3500 
L 2222 3500 
L 2222 3053 
L 1275 3053 
L 1275 0 
L 697 0 
L 697 3053 
L 147 3053 
L 147 3500 
L 697 3500 
L 697 3744 
Q 697 4328 969 4595 
Q 1241 4863 1831 4863 
L 2375 4863 
z
" transform="scale(0.015625)"/>
      <path id="DejaVuSans-69" d="M 603 3500 
L 1178 3500 
L 1178 0 
L 603 0 
L 603 3500 
z
M 603 4863 
L 1178 4863 
L 1178 4134 
L 603 4134 
L 603 4863 
z
" transform="scale(0.015625)"/>
      <path id="DejaVuSans-6e" d="M 3513 2113 
L 3513 0 
L 2938 0 
L 2938 2094 
Q 2938 2591 2744 2837 
Q 2550 3084 2163 3084 
Q 1697 3084 1428 2787 
Q 1159 2491 1159 1978 
L 1159 0 
L 581 0 
L 581 3500 
L 1159 3500 
L 1159 2956 
Q 1366 3272 1645 3428 
Q 1925 3584 2291 3584 
Q 2894 3584 3203 3211 
Q 3513 2838 3513 2113 
z
" transform="scale(0.015625)"/>
      <path id="DejaVuSans-61" d="M 2194 1759 
Q 1497 1759 1228 1600 
Q 959 1441 959 1056 
Q 959 750 1161 570 
Q 1363 391 1709 391 
Q 2188 391 2477 730 
Q 2766 1069 2766 1631 
L 2766 1759 
L 2194 1759 
z
M 3341 1997 
L 3341 0 
L 2766 0 
L 2766 531 
Q 2569 213 2275 61 
Q 1981 -91 1556 -91 
Q 1019 -91 701 211 
Q 384 513 384 1019 
Q 384 1609 779 1909 
Q 1175 2209 1959 2209 
L 2766 2209 
L 2766 2266 
Q 2766 2663 2505 2880 
Q 2244 3097 1772 3097 
Q 1472 3097 1187 3025 
Q 903 2953 641 2809 
L 641 3341 
Q 956 3463 1253 3523 
Q 1550 3584 1831 3584 
Q 2591 3584 2966 3190 
Q 3341 2797 3341 1997 
z
" transform="scale(0.015625)"/>
      <path id="DejaVuSans-6c" d="M 603 4863 
L 1178 4863 
L 1178 0 
L 603 0 
L 603 4863 
z
" transform="scale(0.015625)"/>
      <path id="DejaVuSans-5f" d="M 3263 -1063 
L 3263 -1509 
L -63 -1509 
L -63 -1063 
L 3263 -1063 
z
" transform="scale(0.015625)"/>
      <path id="DejaVuSans-73" d="M 2834 3397 
L 2834 2853 
Q 2591 2978 2328 3040 
Q 2066 3103 1784 3103 
Q 1356 3103 1142 2972 
Q 928 2841 928 2578 
Q 928 2378 1081 2264 
Q 1234 2150 1697 2047 
L 1894 2003 
Q 2506 1872 2764 1633 
Q 3022 1394 3022 966 
Q 3022 478 2636 193 
Q 2250 -91 1575 -91 
Q 1294 -91 989 -36 
Q 684 19 347 128 
L 347 722 
Q 666 556 975 473 
Q 1284 391 1588 391 
Q 1994 391 2212 530 
Q 2431 669 2431 922 
Q 2431 1156 2273 1281 
Q 2116 1406 1581 1522 
L 1381 1569 
Q 847 1681 609 1914 
Q 372 2147 372 2553 
Q 372 3047 722 3315 
Q 1072 3584 1716 3584 
Q 2034 3584 2315 3537 
Q 2597 3491 2834 3397 
z
" transform="scale(0.015625)"/>
      <path id="DejaVuSans-6f" d="M 1959 3097 
Q 1497 3097 1228 2736 
Q 959 2375 959 1747 
Q 959 1119 1226 758 
Q 1494 397 1959 397 
Q 2419 397 2687 759 
Q 2956 1122 2956 1747 
Q 2956 2369 2687 2733 
Q 2419 3097 1959 3097 
z
M 1959 3584 
Q 2709 3584 3137 3096 
Q 3566 2609 3566 1747 
Q 3566 888 3137 398 
Q 2709 -91 1959 -91 
Q 1206 -91 779 398 
Q 353 888 353 1747 
Q 353 2609 779 3096 
Q 1206 3584 1959 3584 
z
" transform="scale(0.015625)"/>
      <path id="DejaVuSans-6d" d="M 3328 2828 
Q 3544 3216 3844 3400 
Q 4144 3584 4550 3584 
Q 5097 3584 5394 3201 
Q 5691 2819 5691 2113 
L 5691 0 
L 5113 0 
L 5113 2094 
Q 5113 2597 4934 2840 
Q 4756 3084 4391 3084 
Q 3944 3084 3684 2787 
Q 3425 2491 3425 1978 
L 3425 0 
L 2847 0 
L 2847 2094 
Q 2847 2600 2669 2842 
Q 2491 3084 2119 3084 
Q 1678 3084 1418 2786 
Q 1159 2488 1159 1978 
L 1159 0 
L 581 0 
L 581 3500 
L 1159 3500 
L 1159 2956 
Q 1356 3278 1631 3431 
Q 1906 3584 2284 3584 
Q 2666 3584 2933 3390 
Q 3200 3197 3328 2828 
z
" transform="scale(0.015625)"/>
      <path id="DejaVuSans-72" d="M 2631 2963 
Q 2534 3019 2420 3045 
Q 2306 3072 2169 3072 
Q 1681 3072 1420 2755 
Q 1159 2438 1159 1844 
L 1159 0 
L 581 0 
L 581 3500 
L 1159 3500 
L 1159 2956 
Q 1341 3275 1631 3429 
Q 1922 3584 2338 3584 
Q 2397 3584 2469 3576 
Q 2541 3569 2628 3553 
L 2631 2963 
z
" transform="scale(0.015625)"/>
      <path id="DejaVuSans-70" d="M 1159 525 
L 1159 -1331 
L 581 -1331 
L 581 3500 
L 1159 3500 
L 1159 2969 
Q 1341 3281 1617 3432 
Q 1894 3584 2278 3584 
Q 2916 3584 3314 3078 
Q 3713 2572 3713 1747 
Q 3713 922 3314 415 
Q 2916 -91 2278 -91 
Q 1894 -91 1617 61 
Q 1341 213 1159 525 
z
M 3116 1747 
Q 3116 2381 2855 2742 
Q 2594 3103 2138 3103 
Q 1681 3103 1420 2742 
Q 1159 2381 1159 1747 
Q 1159 1113 1420 752 
Q 1681 391 2138 391 
Q 2594 391 2855 752 
Q 3116 1113 3116 1747 
z
" transform="scale(0.015625)"/>
      <path id="DejaVuSans-68" d="M 3513 2113 
L 3513 0 
L 2938 0 
L 2938 2094 
Q 2938 2591 2744 2837 
Q 2550 3084 2163 3084 
Q 1697 3084 1428 2787 
Q 1159 2491 1159 1978 
L 1159 0 
L 581 0 
L 581 4863 
L 1159 4863 
L 1159 2956 
Q 1366 3272 1645 3428 
Q 1925 3584 2291 3584 
Q 2894 3584 3203 3211 
Q 3513 2838 3513 2113 
z
" transform="scale(0.015625)"/>
      <path id="DejaVuSans-65" d="M 3597 1894 
L 3597 1613 
L 953 1613 
Q 991 1019 1311 708 
Q 1631 397 2203 397 
Q 2534 397 2845 478 
Q 3156 559 3463 722 
L 3463 178 
Q 3153 47 2828 -22 
Q 2503 -91 2169 -91 
Q 1331 -91 842 396 
Q 353 884 353 1716 
Q 353 2575 817 3079 
Q 1281 3584 2069 3584 
Q 2775 3584 3186 3129 
Q 3597 2675 3597 1894 
z
M 3022 2063 
Q 3016 2534 2758 2815 
Q 2500 3097 2075 3097 
Q 1594 3097 1305 2825 
Q 1016 2553 972 2059 
L 3022 2063 
z
" transform="scale(0.015625)"/>
      <path id="DejaVuSans-75" d="M 544 1381 
L 544 3500 
L 1119 3500 
L 1119 1403 
Q 1119 906 1312 657 
Q 1506 409 1894 409 
Q 2359 409 2629 706 
Q 2900 1003 2900 1516 
L 2900 3500 
L 3475 3500 
L 3475 0 
L 2900 0 
L 2900 538 
Q 2691 219 2414 64 
Q 2138 -91 1772 -91 
Q 1169 -91 856 284 
Q 544 659 544 1381 
z
M 1991 3584 
L 1991 3584 
z
" transform="scale(0.015625)"/>
      <path id="DejaVuSans-64" d="M 2906 2969 
L 2906 4863 
L 3481 4863 
L 3481 0 
L 2906 0 
L 2906 525 
Q 2725 213 2448 61 
Q 2172 -91 1784 -91 
Q 1150 -91 751 415 
Q 353 922 353 1747 
Q 353 2572 751 3078 
Q 1150 3584 1784 3584 
Q 2172 3584 2448 3432 
Q 2725 3281 2906 2969 
z
M 947 1747 
Q 947 1113 1208 752 
Q 1469 391 1925 391 
Q 2381 391 2643 752 
Q 2906 1113 2906 1747 
Q 2906 2381 2643 2742 
Q 2381 3103 1925 3103 
Q 1469 3103 1208 2742 
Q 947 2381 947 1747 
z
" transform="scale(0.015625)"/>
     </defs>
     <use xlink:href="#DejaVuSans-31"/>
     <use xlink:href="#DejaVuSans-66" x="63.623047"/>
     <use xlink:href="#DejaVuSans-69" x="98.828125"/>
     <use xlink:href="#DejaVuSans-6e" x="126.611328"/>
     <use xlink:href="#DejaVuSans-61" x="189.990234"/>
     <use xlink:href="#DejaVuSans-6c" x="251.269531"/>
     <use xlink:href="#DejaVuSans-5f" x="279.052734"/>
     <use xlink:href="#DejaVuSans-69" x="329.052734"/>
     <use xlink:href="#DejaVuSans-73" x="356.835938"/>
     <use xlink:href="#DejaVuSans-6f" x="408.935547"/>
     <use xlink:href="#DejaVuSans-6d" x="470.117188"/>
     <use xlink:href="#DejaVuSans-6f" x="567.529297"/>
     <use xlink:href="#DejaVuSans-72" x="628.710938"/>
     <use xlink:href="#DejaVuSans-70" x="669.824219"/>
     <use xlink:href="#DejaVuSans-68" x="733.300781"/>
     <use xlink:href="#DejaVuSans-69" x="796.679688"/>
     <use xlink:href="#DejaVuSans-73" x="824.462891"/>
     <use xlink:href="#DejaVuSans-6d" x="876.5625"/>
     <use xlink:href="#DejaVuSans-5f" x="973.974609"/>
     <use xlink:href="#DejaVuSans-65" x="1023.974609"/>
     <use xlink:href="#DejaVuSans-75" x="1085.498047"/>
     <use xlink:href="#DejaVuSans-72" x="1148.876953"/>
     <use xlink:href="#DejaVuSans-75" x="1189.990234"/>
     <use xlink:href="#DejaVuSans-73" x="1253.369141"/>
     <use xlink:href="#DejaVuSans-64" x="1305.46875"/>
    </g>
   </g>
   <g id="legend_1">
    <g id="patch_7">
     <path d="M 64.6 137.54075 
L 225.001563 137.54075 
Q 227.001563 137.54075 227.001563 135.54075 
L 227.001563 48.472 
Q 227.001563 46.472 225.001563 46.472 
L 64.6 46.472 
Q 62.6 46.472 62.6 48.472 
L 62.6 135.54075 
Q 62.6 137.54075 64.6 137.54075 
z
" style="fill: #ffffff; opacity: 0.8; stroke: #cccccc; stroke-linejoin: miter"/>
    </g>
    <g id="line2d_22">
     <path d="M 66.6 54.570438 
L 76.6 54.570438 
L 86.6 54.570438 
" style="fill: none; stroke: #008000; stroke-opacity: 0.8; stroke-width: 0.5; stroke-linecap: square"/>
    </g>
    <g id="text_17">
     <!-- Positive predictions -->
     <g transform="translate(94.6 58.070438) scale(0.1 -0.1)">
      <defs>
       <path id="DejaVuSans-50" d="M 1259 4147 
L 1259 2394 
L 2053 2394 
Q 2494 2394 2734 2622 
Q 2975 2850 2975 3272 
Q 2975 3691 2734 3919 
Q 2494 4147 2053 4147 
L 1259 4147 
z
M 628 4666 
L 2053 4666 
Q 2838 4666 3239 4311 
Q 3641 3956 3641 3272 
Q 3641 2581 3239 2228 
Q 2838 1875 2053 1875 
L 1259 1875 
L 1259 0 
L 628 0 
L 628 4666 
z
" transform="scale(0.015625)"/>
       <path id="DejaVuSans-74" d="M 1172 4494 
L 1172 3500 
L 2356 3500 
L 2356 3053 
L 1172 3053 
L 1172 1153 
Q 1172 725 1289 603 
Q 1406 481 1766 481 
L 2356 481 
L 2356 0 
L 1766 0 
Q 1100 0 847 248 
Q 594 497 594 1153 
L 594 3053 
L 172 3053 
L 172 3500 
L 594 3500 
L 594 4494 
L 1172 4494 
z
" transform="scale(0.015625)"/>
       <path id="DejaVuSans-76" d="M 191 3500 
L 800 3500 
L 1894 563 
L 2988 3500 
L 3597 3500 
L 2284 0 
L 1503 0 
L 191 3500 
z
" transform="scale(0.015625)"/>
       <path id="DejaVuSans-20" transform="scale(0.015625)"/>
       <path id="DejaVuSans-63" d="M 3122 3366 
L 3122 2828 
Q 2878 2963 2633 3030 
Q 2388 3097 2138 3097 
Q 1578 3097 1268 2742 
Q 959 2388 959 1747 
Q 959 1106 1268 751 
Q 1578 397 2138 397 
Q 2388 397 2633 464 
Q 2878 531 3122 666 
L 3122 134 
Q 2881 22 2623 -34 
Q 2366 -91 2075 -91 
Q 1284 -91 818 406 
Q 353 903 353 1747 
Q 353 2603 823 3093 
Q 1294 3584 2113 3584 
Q 2378 3584 2631 3529 
Q 2884 3475 3122 3366 
z
" transform="scale(0.015625)"/>
      </defs>
      <use xlink:href="#DejaVuSans-50"/>
      <use xlink:href="#DejaVuSans-6f" x="56.677734"/>
      <use xlink:href="#DejaVuSans-73" x="117.859375"/>
      <use xlink:href="#DejaVuSans-69" x="169.958984"/>
      <use xlink:href="#DejaVuSans-74" x="197.742188"/>
      <use xlink:href="#DejaVuSans-69" x="236.951172"/>
      <use xlink:href="#DejaVuSans-76" x="264.734375"/>
      <use xlink:href="#DejaVuSans-65" x="323.914062"/>
      <use xlink:href="#DejaVuSans-20" x="385.4375"/>
      <use xlink:href="#DejaVuSans-70" x="417.224609"/>
      <use xlink:href="#DejaVuSans-72" x="480.701172"/>
      <use xlink:href="#DejaVuSans-65" x="519.564453"/>
      <use xlink:href="#DejaVuSans-64" x="581.087891"/>
      <use xlink:href="#DejaVuSans-69" x="644.564453"/>
      <use xlink:href="#DejaVuSans-63" x="672.347656"/>
      <use xlink:href="#DejaVuSans-74" x="727.328125"/>
      <use xlink:href="#DejaVuSans-69" x="766.537109"/>
      <use xlink:href="#DejaVuSans-6f" x="794.320312"/>
      <use xlink:href="#DejaVuSans-6e" x="855.501953"/>
      <use xlink:href="#DejaVuSans-73" x="918.880859"/>
     </g>
    </g>
    <g id="line2d_23">
     <path d="M 66.6 69.248563 
L 76.6 69.248563 
L 86.6 69.248563 
" style="fill: none; stroke: #32cd32; stroke-opacity: 0.8; stroke-width: 0.5; stroke-linecap: square"/>
    </g>
    <g id="text_18">
     <!-- Positive predictions max -->
     <g transform="translate(94.6 72.748563) scale(0.1 -0.1)">
      <defs>
       <path id="DejaVuSans-78" d="M 3513 3500 
L 2247 1797 
L 3578 0 
L 2900 0 
L 1881 1375 
L 863 0 
L 184 0 
L 1544 1831 
L 300 3500 
L 978 3500 
L 1906 2253 
L 2834 3500 
L 3513 3500 
z
" transform="scale(0.015625)"/>
      </defs>
      <use xlink:href="#DejaVuSans-50"/>
      <use xlink:href="#DejaVuSans-6f" x="56.677734"/>
      <use xlink:href="#DejaVuSans-73" x="117.859375"/>
      <use xlink:href="#DejaVuSans-69" x="169.958984"/>
      <use xlink:href="#DejaVuSans-74" x="197.742188"/>
      <use xlink:href="#DejaVuSans-69" x="236.951172"/>
      <use xlink:href="#DejaVuSans-76" x="264.734375"/>
      <use xlink:href="#DejaVuSans-65" x="323.914062"/>
      <use xlink:href="#DejaVuSans-20" x="385.4375"/>
      <use xlink:href="#DejaVuSans-70" x="417.224609"/>
      <use xlink:href="#DejaVuSans-72" x="480.701172"/>
      <use xlink:href="#DejaVuSans-65" x="519.564453"/>
      <use xlink:href="#DejaVuSans-64" x="581.087891"/>
      <use xlink:href="#DejaVuSans-69" x="644.564453"/>
      <use xlink:href="#DejaVuSans-63" x="672.347656"/>
      <use xlink:href="#DejaVuSans-74" x="727.328125"/>
      <use xlink:href="#DejaVuSans-69" x="766.537109"/>
      <use xlink:href="#DejaVuSans-6f" x="794.320312"/>
      <use xlink:href="#DejaVuSans-6e" x="855.501953"/>
      <use xlink:href="#DejaVuSans-73" x="918.880859"/>
      <use xlink:href="#DejaVuSans-20" x="970.980469"/>
      <use xlink:href="#DejaVuSans-6d" x="1002.767578"/>
      <use xlink:href="#DejaVuSans-61" x="1100.179688"/>
      <use xlink:href="#DejaVuSans-78" x="1161.458984"/>
     </g>
    </g>
    <g id="line2d_24">
     <path d="M 66.6 83.926688 
L 76.6 83.926688 
L 86.6 83.926688 
" style="fill: none; stroke: #32cd32; stroke-opacity: 0.8; stroke-width: 0.5; stroke-linecap: square"/>
    </g>
    <g id="text_19">
     <!-- Positive predictions min -->
     <g transform="translate(94.6 87.426688) scale(0.1 -0.1)">
      <use xlink:href="#DejaVuSans-50"/>
      <use xlink:href="#DejaVuSans-6f" x="56.677734"/>
      <use xlink:href="#DejaVuSans-73" x="117.859375"/>
      <use xlink:href="#DejaVuSans-69" x="169.958984"/>
      <use xlink:href="#DejaVuSans-74" x="197.742188"/>
      <use xlink:href="#DejaVuSans-69" x="236.951172"/>
      <use xlink:href="#DejaVuSans-76" x="264.734375"/>
      <use xlink:href="#DejaVuSans-65" x="323.914062"/>
      <use xlink:href="#DejaVuSans-20" x="385.4375"/>
      <use xlink:href="#DejaVuSans-70" x="417.224609"/>
      <use xlink:href="#DejaVuSans-72" x="480.701172"/>
      <use xlink:href="#DejaVuSans-65" x="519.564453"/>
      <use xlink:href="#DejaVuSans-64" x="581.087891"/>
      <use xlink:href="#DejaVuSans-69" x="644.564453"/>
      <use xlink:href="#DejaVuSans-63" x="672.347656"/>
      <use xlink:href="#DejaVuSans-74" x="727.328125"/>
      <use xlink:href="#DejaVuSans-69" x="766.537109"/>
      <use xlink:href="#DejaVuSans-6f" x="794.320312"/>
      <use xlink:href="#DejaVuSans-6e" x="855.501953"/>
      <use xlink:href="#DejaVuSans-73" x="918.880859"/>
      <use xlink:href="#DejaVuSans-20" x="970.980469"/>
      <use xlink:href="#DejaVuSans-6d" x="1002.767578"/>
      <use xlink:href="#DejaVuSans-69" x="1100.179688"/>
      <use xlink:href="#DejaVuSans-6e" x="1127.962891"/>
     </g>
    </g>
    <g id="line2d_25">
     <path d="M 66.6 98.604813 
L 76.6 98.604813 
L 86.6 98.604813 
" style="fill: none; stroke: #ff0000; stroke-opacity: 0.8; stroke-width: 0.5; stroke-linecap: square"/>
    </g>
    <g id="text_20">
     <!-- Negative predictions -->
     <g transform="translate(94.6 102.104813) scale(0.1 -0.1)">
      <defs>
       <path id="DejaVuSans-4e" d="M 628 4666 
L 1478 4666 
L 3547 763 
L 3547 4666 
L 4159 4666 
L 4159 0 
L 3309 0 
L 1241 3903 
L 1241 0 
L 628 0 
L 628 4666 
z
" transform="scale(0.015625)"/>
       <path id="DejaVuSans-67" d="M 2906 1791 
Q 2906 2416 2648 2759 
Q 2391 3103 1925 3103 
Q 1463 3103 1205 2759 
Q 947 2416 947 1791 
Q 947 1169 1205 825 
Q 1463 481 1925 481 
Q 2391 481 2648 825 
Q 2906 1169 2906 1791 
z
M 3481 434 
Q 3481 -459 3084 -895 
Q 2688 -1331 1869 -1331 
Q 1566 -1331 1297 -1286 
Q 1028 -1241 775 -1147 
L 775 -588 
Q 1028 -725 1275 -790 
Q 1522 -856 1778 -856 
Q 2344 -856 2625 -561 
Q 2906 -266 2906 331 
L 2906 616 
Q 2728 306 2450 153 
Q 2172 0 1784 0 
Q 1141 0 747 490 
Q 353 981 353 1791 
Q 353 2603 747 3093 
Q 1141 3584 1784 3584 
Q 2172 3584 2450 3431 
Q 2728 3278 2906 2969 
L 2906 3500 
L 3481 3500 
L 3481 434 
z
" transform="scale(0.015625)"/>
      </defs>
      <use xlink:href="#DejaVuSans-4e"/>
      <use xlink:href="#DejaVuSans-65" x="74.804688"/>
      <use xlink:href="#DejaVuSans-67" x="136.328125"/>
      <use xlink:href="#DejaVuSans-61" x="199.804688"/>
      <use xlink:href="#DejaVuSans-74" x="261.083984"/>
      <use xlink:href="#DejaVuSans-69" x="300.292969"/>
      <use xlink:href="#DejaVuSans-76" x="328.076172"/>
      <use xlink:href="#DejaVuSans-65" x="387.255859"/>
      <use xlink:href="#DejaVuSans-20" x="448.779297"/>
      <use xlink:href="#DejaVuSans-70" x="480.566406"/>
      <use xlink:href="#DejaVuSans-72" x="544.042969"/>
      <use xlink:href="#DejaVuSans-65" x="582.90625"/>
      <use xlink:href="#DejaVuSans-64" x="644.429688"/>
      <use xlink:href="#DejaVuSans-69" x="707.90625"/>
      <use xlink:href="#DejaVuSans-63" x="735.689453"/>
      <use xlink:href="#DejaVuSans-74" x="790.669922"/>
      <use xlink:href="#DejaVuSans-69" x="829.878906"/>
      <use xlink:href="#DejaVuSans-6f" x="857.662109"/>
      <use xlink:href="#DejaVuSans-6e" x="918.84375"/>
      <use xlink:href="#DejaVuSans-73" x="982.222656"/>
     </g>
    </g>
    <g id="line2d_26">
     <path d="M 66.6 113.282938 
L 76.6 113.282938 
L 86.6 113.282938 
" style="fill: none; stroke: #f08080; stroke-opacity: 0.8; stroke-width: 0.5; stroke-linecap: square"/>
    </g>
    <g id="text_21">
     <!-- Negative predictions max -->
     <g transform="translate(94.6 116.782938) scale(0.1 -0.1)">
      <use xlink:href="#DejaVuSans-4e"/>
      <use xlink:href="#DejaVuSans-65" x="74.804688"/>
      <use xlink:href="#DejaVuSans-67" x="136.328125"/>
      <use xlink:href="#DejaVuSans-61" x="199.804688"/>
      <use xlink:href="#DejaVuSans-74" x="261.083984"/>
      <use xlink:href="#DejaVuSans-69" x="300.292969"/>
      <use xlink:href="#DejaVuSans-76" x="328.076172"/>
      <use xlink:href="#DejaVuSans-65" x="387.255859"/>
      <use xlink:href="#DejaVuSans-20" x="448.779297"/>
      <use xlink:href="#DejaVuSans-70" x="480.566406"/>
      <use xlink:href="#DejaVuSans-72" x="544.042969"/>
      <use xlink:href="#DejaVuSans-65" x="582.90625"/>
      <use xlink:href="#DejaVuSans-64" x="644.429688"/>
      <use xlink:href="#DejaVuSans-69" x="707.90625"/>
      <use xlink:href="#DejaVuSans-63" x="735.689453"/>
      <use xlink:href="#DejaVuSans-74" x="790.669922"/>
      <use xlink:href="#DejaVuSans-69" x="829.878906"/>
      <use xlink:href="#DejaVuSans-6f" x="857.662109"/>
      <use xlink:href="#DejaVuSans-6e" x="918.84375"/>
      <use xlink:href="#DejaVuSans-73" x="982.222656"/>
      <use xlink:href="#DejaVuSans-20" x="1034.322266"/>
      <use xlink:href="#DejaVuSans-6d" x="1066.109375"/>
      <use xlink:href="#DejaVuSans-61" x="1163.521484"/>
      <use xlink:href="#DejaVuSans-78" x="1224.800781"/>
     </g>
    </g>
    <g id="line2d_27">
     <path d="M 66.6 127.961063 
L 76.6 127.961063 
L 86.6 127.961063 
" style="fill: none; stroke: #f08080; stroke-opacity: 0.8; stroke-width: 0.5; stroke-linecap: square"/>
    </g>
    <g id="text_22">
     <!-- Negative predictions min -->
     <g transform="translate(94.6 131.461063) scale(0.1 -0.1)">
      <use xlink:href="#DejaVuSans-4e"/>
      <use xlink:href="#DejaVuSans-65" x="74.804688"/>
      <use xlink:href="#DejaVuSans-67" x="136.328125"/>
      <use xlink:href="#DejaVuSans-61" x="199.804688"/>
      <use xlink:href="#DejaVuSans-74" x="261.083984"/>
      <use xlink:href="#DejaVuSans-69" x="300.292969"/>
      <use xlink:href="#DejaVuSans-76" x="328.076172"/>
      <use xlink:href="#DejaVuSans-65" x="387.255859"/>
      <use xlink:href="#DejaVuSans-20" x="448.779297"/>
      <use xlink:href="#DejaVuSans-70" x="480.566406"/>
      <use xlink:href="#DejaVuSans-72" x="544.042969"/>
      <use xlink:href="#DejaVuSans-65" x="582.90625"/>
      <use xlink:href="#DejaVuSans-64" x="644.429688"/>
      <use xlink:href="#DejaVuSans-69" x="707.90625"/>
      <use xlink:href="#DejaVuSans-63" x="735.689453"/>
      <use xlink:href="#DejaVuSans-74" x="790.669922"/>
      <use xlink:href="#DejaVuSans-69" x="829.878906"/>
      <use xlink:href="#DejaVuSans-6f" x="857.662109"/>
      <use xlink:href="#DejaVuSans-6e" x="918.84375"/>
      <use xlink:href="#DejaVuSans-73" x="982.222656"/>
      <use xlink:href="#DejaVuSans-20" x="1034.322266"/>
      <use xlink:href="#DejaVuSans-6d" x="1066.109375"/>
      <use xlink:href="#DejaVuSans-69" x="1163.521484"/>
      <use xlink:href="#DejaVuSans-6e" x="1191.304688"/>
     </g>
    </g>
   </g>
  </g>
 </g>
 <defs>
  <clipPath id="p027c540df5">
   <rect x="57.6" y="41.472" width="357.12" height="266.112"/>
  </clipPath>
 </defs>
</svg>
