<?xml version="1.0" encoding="utf-8" standalone="no"?>
<!DOCTYPE svg PUBLIC "-//W3C//DTD SVG 1.1//EN"
  "http://www.w3.org/Graphics/SVG/1.1/DTD/svg11.dtd">
<svg xmlns:xlink="http://www.w3.org/1999/xlink" width="460.8pt" height="345.6pt" viewBox="0 0 460.8 345.6" xmlns="http://www.w3.org/2000/svg" version="1.1">
 <metadata>
  <rdf:RDF xmlns:dc="http://purl.org/dc/elements/1.1/" xmlns:cc="http://creativecommons.org/ns#" xmlns:rdf="http://www.w3.org/1999/02/22-rdf-syntax-ns#">
   <cc:Work>
    <dc:type rdf:resource="http://purl.org/dc/dcmitype/StillImage"/>
    <dc:date>2024-09-06T00:42:59.471918</dc:date>
    <dc:format>image/svg+xml</dc:format>
    <dc:creator>
     <cc:Agent>
      <dc:title>Matplotlib v3.9.0, https://matplotlib.org/</dc:title>
     </cc:Agent>
    </dc:creator>
   </cc:Work>
  </rdf:RDF>
 </metadata>
 <defs>
  <style type="text/css">*{stroke-linejoin: round; stroke-linecap: butt}</style>
 </defs>
 <g id="figure_1">
  <g id="patch_1">
   <path d="M 0 345.6 
L 460.8 345.6 
L 460.8 0 
L 0 0 
z
" style="fill: #ffffff"/>
  </g>
  <g id="axes_1">
   <g id="patch_2">
    <path d="M 57.6 307.584 
L 414.72 307.584 
L 414.72 41.472 
L 57.6 41.472 
z
" style="fill: #ffffff"/>
   </g>
   <g id="matplotlib.axis_1">
    <g id="xtick_1">
     <g id="line2d_1">
      <defs>
       <path id="mb00cb65d80" d="M 0 0 
L 0 3.5 
" style="stroke: #000000; stroke-width: 0.8"/>
      </defs>
      <g>
       <use xlink:href="#mb00cb65d80" x="73.832727" y="307.584" style="stroke: #000000; stroke-width: 0.8"/>
      </g>
     </g>
     <g id="text_1">
      <!-- 0 -->
      <g transform="translate(70.651477 322.182437) scale(0.1 -0.1)">
       <defs>
        <path id="DejaVuSans-30" d="M 2034 4250 
Q 1547 4250 1301 3770 
Q 1056 3291 1056 2328 
Q 1056 1369 1301 889 
Q 1547 409 2034 409 
Q 2525 409 2770 889 
Q 3016 1369 3016 2328 
Q 3016 3291 2770 3770 
Q 2525 4250 2034 4250 
z
M 2034 4750 
Q 2819 4750 3233 4129 
Q 3647 3509 3647 2328 
Q 3647 1150 3233 529 
Q 2819 -91 2034 -91 
Q 1250 -91 836 529 
Q 422 1150 422 2328 
Q 422 3509 836 4129 
Q 1250 4750 2034 4750 
z
" transform="scale(0.015625)"/>
       </defs>
       <use xlink:href="#DejaVuSans-30"/>
      </g>
     </g>
    </g>
    <g id="xtick_2">
     <g id="line2d_2">
      <g>
       <use xlink:href="#mb00cb65d80" x="149.333784" y="307.584" style="stroke: #000000; stroke-width: 0.8"/>
      </g>
     </g>
     <g id="text_2">
      <!-- 50 -->
      <g transform="translate(142.971284 322.182437) scale(0.1 -0.1)">
       <defs>
        <path id="DejaVuSans-35" d="M 691 4666 
L 3169 4666 
L 3169 4134 
L 1269 4134 
L 1269 2991 
Q 1406 3038 1543 3061 
Q 1681 3084 1819 3084 
Q 2600 3084 3056 2656 
Q 3513 2228 3513 1497 
Q 3513 744 3044 326 
Q 2575 -91 1722 -91 
Q 1428 -91 1123 -41 
Q 819 9 494 109 
L 494 744 
Q 775 591 1075 516 
Q 1375 441 1709 441 
Q 2250 441 2565 725 
Q 2881 1009 2881 1497 
Q 2881 1984 2565 2268 
Q 2250 2553 1709 2553 
Q 1456 2553 1204 2497 
Q 953 2441 691 2322 
L 691 4666 
z
" transform="scale(0.015625)"/>
       </defs>
       <use xlink:href="#DejaVuSans-35"/>
       <use xlink:href="#DejaVuSans-30" x="63.623047"/>
      </g>
     </g>
    </g>
    <g id="xtick_3">
     <g id="line2d_3">
      <g>
       <use xlink:href="#mb00cb65d80" x="224.834841" y="307.584" style="stroke: #000000; stroke-width: 0.8"/>
      </g>
     </g>
     <g id="text_3">
      <!-- 100 -->
      <g transform="translate(215.291091 322.182437) scale(0.1 -0.1)">
       <defs>
        <path id="DejaVuSans-31" d="M 794 531 
L 1825 531 
L 1825 4091 
L 703 3866 
L 703 4441 
L 1819 4666 
L 2450 4666 
L 2450 531 
L 3481 531 
L 3481 0 
L 794 0 
L 794 531 
z
" transform="scale(0.015625)"/>
       </defs>
       <use xlink:href="#DejaVuSans-31"/>
       <use xlink:href="#DejaVuSans-30" x="63.623047"/>
       <use xlink:href="#DejaVuSans-30" x="127.246094"/>
      </g>
     </g>
    </g>
    <g id="xtick_4">
     <g id="line2d_4">
      <g>
       <use xlink:href="#mb00cb65d80" x="300.335899" y="307.584" style="stroke: #000000; stroke-width: 0.8"/>
      </g>
     </g>
     <g id="text_4">
      <!-- 150 -->
      <g transform="translate(290.792149 322.182437) scale(0.1 -0.1)">
       <use xlink:href="#DejaVuSans-31"/>
       <use xlink:href="#DejaVuSans-35" x="63.623047"/>
       <use xlink:href="#DejaVuSans-30" x="127.246094"/>
      </g>
     </g>
    </g>
    <g id="xtick_5">
     <g id="line2d_5">
      <g>
       <use xlink:href="#mb00cb65d80" x="375.836956" y="307.584" style="stroke: #000000; stroke-width: 0.8"/>
      </g>
     </g>
     <g id="text_5">
      <!-- 200 -->
      <g transform="translate(366.293206 322.182437) scale(0.1 -0.1)">
       <defs>
        <path id="DejaVuSans-32" d="M 1228 531 
L 3431 531 
L 3431 0 
L 469 0 
L 469 531 
Q 828 903 1448 1529 
Q 2069 2156 2228 2338 
Q 2531 2678 2651 2914 
Q 2772 3150 2772 3378 
Q 2772 3750 2511 3984 
Q 2250 4219 1831 4219 
Q 1534 4219 1204 4116 
Q 875 4013 500 3803 
L 500 4441 
Q 881 4594 1212 4672 
Q 1544 4750 1819 4750 
Q 2544 4750 2975 4387 
Q 3406 4025 3406 3419 
Q 3406 3131 3298 2873 
Q 3191 2616 2906 2266 
Q 2828 2175 2409 1742 
Q 1991 1309 1228 531 
z
" transform="scale(0.015625)"/>
       </defs>
       <use xlink:href="#DejaVuSans-32"/>
       <use xlink:href="#DejaVuSans-30" x="63.623047"/>
       <use xlink:href="#DejaVuSans-30" x="127.246094"/>
      </g>
     </g>
    </g>
   </g>
   <g id="matplotlib.axis_2">
    <g id="ytick_1">
     <g id="line2d_6">
      <defs>
       <path id="mf0324b81fe" d="M 0 0 
L -3.5 0 
" style="stroke: #000000; stroke-width: 0.8"/>
      </defs>
      <g>
       <use xlink:href="#mf0324b81fe" x="57.6" y="294.292287" style="stroke: #000000; stroke-width: 0.8"/>
      </g>
     </g>
     <g id="text_6">
      <!-- 5000 -->
      <g transform="translate(25.15 298.091505) scale(0.1 -0.1)">
       <use xlink:href="#DejaVuSans-35"/>
       <use xlink:href="#DejaVuSans-30" x="63.623047"/>
       <use xlink:href="#DejaVuSans-30" x="127.246094"/>
       <use xlink:href="#DejaVuSans-30" x="190.869141"/>
      </g>
     </g>
    </g>
    <g id="ytick_2">
     <g id="line2d_7">
      <g>
       <use xlink:href="#mf0324b81fe" x="57.6" y="262.65966" style="stroke: #000000; stroke-width: 0.8"/>
      </g>
     </g>
     <g id="text_7">
      <!-- 5500 -->
      <g transform="translate(25.15 266.458879) scale(0.1 -0.1)">
       <use xlink:href="#DejaVuSans-35"/>
       <use xlink:href="#DejaVuSans-35" x="63.623047"/>
       <use xlink:href="#DejaVuSans-30" x="127.246094"/>
       <use xlink:href="#DejaVuSans-30" x="190.869141"/>
      </g>
     </g>
    </g>
    <g id="ytick_3">
     <g id="line2d_8">
      <g>
       <use xlink:href="#mf0324b81fe" x="57.6" y="231.027034" style="stroke: #000000; stroke-width: 0.8"/>
      </g>
     </g>
     <g id="text_8">
      <!-- 6000 -->
      <g transform="translate(25.15 234.826253) scale(0.1 -0.1)">
       <defs>
        <path id="DejaVuSans-36" d="M 2113 2584 
Q 1688 2584 1439 2293 
Q 1191 2003 1191 1497 
Q 1191 994 1439 701 
Q 1688 409 2113 409 
Q 2538 409 2786 701 
Q 3034 994 3034 1497 
Q 3034 2003 2786 2293 
Q 2538 2584 2113 2584 
z
M 3366 4563 
L 3366 3988 
Q 3128 4100 2886 4159 
Q 2644 4219 2406 4219 
Q 1781 4219 1451 3797 
Q 1122 3375 1075 2522 
Q 1259 2794 1537 2939 
Q 1816 3084 2150 3084 
Q 2853 3084 3261 2657 
Q 3669 2231 3669 1497 
Q 3669 778 3244 343 
Q 2819 -91 2113 -91 
Q 1303 -91 875 529 
Q 447 1150 447 2328 
Q 447 3434 972 4092 
Q 1497 4750 2381 4750 
Q 2619 4750 2861 4703 
Q 3103 4656 3366 4563 
z
" transform="scale(0.015625)"/>
       </defs>
       <use xlink:href="#DejaVuSans-36"/>
       <use xlink:href="#DejaVuSans-30" x="63.623047"/>
       <use xlink:href="#DejaVuSans-30" x="127.246094"/>
       <use xlink:href="#DejaVuSans-30" x="190.869141"/>
      </g>
     </g>
    </g>
    <g id="ytick_4">
     <g id="line2d_9">
      <g>
       <use xlink:href="#mf0324b81fe" x="57.6" y="199.394408" style="stroke: #000000; stroke-width: 0.8"/>
      </g>
     </g>
     <g id="text_9">
      <!-- 6500 -->
      <g transform="translate(25.15 203.193626) scale(0.1 -0.1)">
       <use xlink:href="#DejaVuSans-36"/>
       <use xlink:href="#DejaVuSans-35" x="63.623047"/>
       <use xlink:href="#DejaVuSans-30" x="127.246094"/>
       <use xlink:href="#DejaVuSans-30" x="190.869141"/>
      </g>
     </g>
    </g>
    <g id="ytick_5">
     <g id="line2d_10">
      <g>
       <use xlink:href="#mf0324b81fe" x="57.6" y="167.761781" style="stroke: #000000; stroke-width: 0.8"/>
      </g>
     </g>
     <g id="text_10">
      <!-- 7000 -->
      <g transform="translate(25.15 171.561) scale(0.1 -0.1)">
       <defs>
        <path id="DejaVuSans-37" d="M 525 4666 
L 3525 4666 
L 3525 4397 
L 1831 0 
L 1172 0 
L 2766 4134 
L 525 4134 
L 525 4666 
z
" transform="scale(0.015625)"/>
       </defs>
       <use xlink:href="#DejaVuSans-37"/>
       <use xlink:href="#DejaVuSans-30" x="63.623047"/>
       <use xlink:href="#DejaVuSans-30" x="127.246094"/>
       <use xlink:href="#DejaVuSans-30" x="190.869141"/>
      </g>
     </g>
    </g>
    <g id="ytick_6">
     <g id="line2d_11">
      <g>
       <use xlink:href="#mf0324b81fe" x="57.6" y="136.129155" style="stroke: #000000; stroke-width: 0.8"/>
      </g>
     </g>
     <g id="text_11">
      <!-- 7500 -->
      <g transform="translate(25.15 139.928374) scale(0.1 -0.1)">
       <use xlink:href="#DejaVuSans-37"/>
       <use xlink:href="#DejaVuSans-35" x="63.623047"/>
       <use xlink:href="#DejaVuSans-30" x="127.246094"/>
       <use xlink:href="#DejaVuSans-30" x="190.869141"/>
      </g>
     </g>
    </g>
    <g id="ytick_7">
     <g id="line2d_12">
      <g>
       <use xlink:href="#mf0324b81fe" x="57.6" y="104.496528" style="stroke: #000000; stroke-width: 0.8"/>
      </g>
     </g>
     <g id="text_12">
      <!-- 8000 -->
      <g transform="translate(25.15 108.295747) scale(0.1 -0.1)">
       <defs>
        <path id="DejaVuSans-38" d="M 2034 2216 
Q 1584 2216 1326 1975 
Q 1069 1734 1069 1313 
Q 1069 891 1326 650 
Q 1584 409 2034 409 
Q 2484 409 2743 651 
Q 3003 894 3003 1313 
Q 3003 1734 2745 1975 
Q 2488 2216 2034 2216 
z
M 1403 2484 
Q 997 2584 770 2862 
Q 544 3141 544 3541 
Q 544 4100 942 4425 
Q 1341 4750 2034 4750 
Q 2731 4750 3128 4425 
Q 3525 4100 3525 3541 
Q 3525 3141 3298 2862 
Q 3072 2584 2669 2484 
Q 3125 2378 3379 2068 
Q 3634 1759 3634 1313 
Q 3634 634 3220 271 
Q 2806 -91 2034 -91 
Q 1263 -91 848 271 
Q 434 634 434 1313 
Q 434 1759 690 2068 
Q 947 2378 1403 2484 
z
M 1172 3481 
Q 1172 3119 1398 2916 
Q 1625 2713 2034 2713 
Q 2441 2713 2670 2916 
Q 2900 3119 2900 3481 
Q 2900 3844 2670 4047 
Q 2441 4250 2034 4250 
Q 1625 4250 1398 4047 
Q 1172 3844 1172 3481 
z
" transform="scale(0.015625)"/>
       </defs>
       <use xlink:href="#DejaVuSans-38"/>
       <use xlink:href="#DejaVuSans-30" x="63.623047"/>
       <use xlink:href="#DejaVuSans-30" x="127.246094"/>
       <use xlink:href="#DejaVuSans-30" x="190.869141"/>
      </g>
     </g>
    </g>
    <g id="ytick_8">
     <g id="line2d_13">
      <g>
       <use xlink:href="#mf0324b81fe" x="57.6" y="72.863902" style="stroke: #000000; stroke-width: 0.8"/>
      </g>
     </g>
     <g id="text_13">
      <!-- 8500 -->
      <g transform="translate(25.15 76.663121) scale(0.1 -0.1)">
       <use xlink:href="#DejaVuSans-38"/>
       <use xlink:href="#DejaVuSans-35" x="63.623047"/>
       <use xlink:href="#DejaVuSans-30" x="127.246094"/>
       <use xlink:href="#DejaVuSans-30" x="190.869141"/>
      </g>
     </g>
    </g>
   </g>
   <g id="line2d_14">
    <path d="M 73.832727 295.488 
L 75.342748 293.944328 
L 76.85277 291.31179 
L 78.362791 290.928684 
L 79.872812 290.369841 
L 81.382833 290.11678 
L 82.892854 290.338208 
L 84.402875 289.38923 
L 85.912896 289.579025 
L 87.422918 286.479028 
L 88.932939 279.867809 
L 90.44296 271.706591 
L 91.952981 276.948349 
L 93.463002 278.665769 
L 94.973023 280.690257 
L 96.483044 278.064749 
L 99.503087 275.976996 
L 102.523129 271.200469 
L 104.03315 269.353124 
L 105.543171 269.435369 
L 107.053192 267.59435 
L 108.563214 267.915948 
L 110.073235 268.385166 
L 111.583256 268.332445 
L 113.093277 266.961698 
L 114.603298 266.240474 
L 119.133362 266.476664 
L 120.643383 266.139249 
L 122.153404 266.113943 
L 123.663425 267.024963 
L 125.173446 267.341289 
L 128.193488 267.024963 
L 129.70351 263.165782 
L 131.213531 260.888233 
L 132.723552 262.944354 
L 135.743594 260.571907 
L 138.763636 260.989458 
L 143.2937 259.085174 
L 144.803721 257.497216 
L 146.313742 254.9413 
L 147.823763 253.992321 
L 149.333784 251.303547 
L 150.843805 249.120896 
L 152.353827 246.527021 
L 153.863848 246.147429 
L 155.373869 246.552722 
L 156.88389 245.103553 
L 158.393911 244.963997 
L 159.903932 246.463756 
L 161.413953 242.794371 
L 162.923975 240.316482 
L 164.433996 238.429069 
L 165.944017 238.951412 
L 167.454038 240.453557 
L 168.964059 240.833148 
L 170.47408 240.833148 
L 171.984101 241.671413 
L 173.494123 239.694374 
L 175.004144 240.506278 
L 176.514165 238.492334 
L 178.024186 238.840293 
L 179.534207 238.144375 
L 181.044228 238.441722 
L 182.554249 237.290294 
L 184.064271 235.430296 
L 185.574292 234.957388 
L 187.084313 232.039278 
L 188.594334 230.542 
L 190.104355 230.172953 
L 191.614376 231.135991 
L 193.124397 230.868871 
L 196.14444 232.355604 
L 197.654461 230.352205 
L 199.164482 230.531456 
L 200.674503 227.579078 
L 202.184524 225.417515 
L 203.694545 224.320917 
L 205.204567 221.284185 
L 206.714588 221.930394 
L 208.224609 223.023979 
L 209.73463 223.213775 
L 211.244651 222.886905 
L 212.754672 220.493369 
L 214.264693 217.467181 
L 215.774715 217.676205 
L 217.284736 215.305619 
L 218.794757 215.305619 
L 220.304778 217.045413 
L 221.814799 216.444393 
L 223.32482 217.150855 
L 224.834841 213.818885 
L 226.344863 213.850518 
L 227.854884 212.363784 
L 229.364905 212.869906 
L 230.874926 214.166844 
L 232.384947 213.439294 
L 233.894968 212.885723 
L 235.404989 212.521948 
L 236.915011 210.440521 
L 238.425032 204.374287 
L 239.935053 205.747504 
L 241.445074 206.701544 
L 242.955095 206.058348 
L 244.465116 204.993382 
L 245.975137 206.530728 
L 247.485159 200.153591 
L 248.99518 201.274289 
L 250.505201 198.492878 
L 252.015222 199.983429 
L 253.525243 198.318898 
L 255.035264 195.725023 
L 256.545285 191.691863 
L 258.055307 192.823046 
L 259.565328 194.269922 
L 261.075349 194.944751 
L 262.58537 194.807677 
L 264.095391 195.940125 
L 265.605412 194.175024 
L 267.115433 186.804622 
L 268.625455 191.185741 
L 270.135476 191.011762 
L 271.645497 189.936252 
L 273.155518 186.266868 
L 274.665539 186.514657 
L 276.17556 183.419931 
L 277.685581 183.532905 
L 279.195603 181.047484 
L 280.705624 179.711885 
L 282.215645 180.894903 
L 283.725666 177.852589 
L 285.235687 175.703235 
L 288.255729 162.890357 
L 289.765751 160.739338 
L 291.275772 158.018932 
L 292.785793 158.71485 
L 294.295814 153.368936 
L 295.805835 141.949558 
L 297.315856 146.884248 
L 298.825877 147.08755 
L 300.335899 148.465879 
L 301.84592 149.446491 
L 303.355941 149.225062 
L 304.865962 148.19173 
L 306.375983 142.392415 
L 307.886004 139.766907 
L 309.396025 139.608744 
L 310.906047 140.304662 
L 313.926089 132.322695 
L 315.43611 130.688343 
L 316.946131 126.404382 
L 318.456152 124.572702 
L 319.966173 125.024785 
L 321.476195 122.927805 
L 322.986216 122.999984 
L 324.496237 123.602635 
L 326.006258 124.077124 
L 327.516279 123.317941 
L 329.0263 121.599235 
L 330.536321 121.6625 
L 332.046342 118.161823 
L 333.556364 110.443462 
L 335.066385 108.355709 
L 336.576406 110.582459 
L 338.086427 113.06897 
L 339.596448 112.7421 
L 341.106469 114.476622 
L 342.61649 113.511827 
L 344.126512 106.858431 
L 345.636533 108.102648 
L 347.146554 106.552649 
L 348.656575 102.682925 
L 350.166596 99.625104 
L 351.676617 100.878906 
L 353.186638 97.347555 
L 354.69666 97.999674 
L 356.206681 98.865921 
L 357.716702 98.507418 
L 359.226723 97.331739 
L 360.736744 97.157759 
L 362.246765 94.563884 
L 363.756786 91.189737 
L 365.266808 84.751443 
L 366.776829 80.23581 
L 368.28685 67.400085 
L 369.796871 60.906769 
L 371.306892 65.312942 
L 372.816913 71.914923 
L 374.326934 71.440434 
L 375.836956 71.345536 
L 377.346977 71.788393 
L 378.856998 71.250638 
L 380.367019 68.477511 
L 381.87704 67.001322 
L 383.387061 69.089075 
L 384.897082 69.257783 
L 386.407104 67.254383 
L 387.917125 66.932785 
L 389.427146 67.194362 
L 390.937167 62.520033 
L 392.447188 61.539422 
L 393.957209 61.001667 
L 395.46723 61.866913 
L 396.977252 61.507789 
L 398.487273 55.792828 
L 398.487273 55.792828 
" clip-path="url(#p265f58c98e)" style="fill: none; stroke: #1f77b4; stroke-opacity: 0.7; stroke-width: 0.5; stroke-linecap: square"/>
   </g>
   <g id="line2d_15">
    <path d="M 73.832727 294.592797 
L 75.342748 293.770348 
L 76.85277 290.707256 
L 78.362791 290.053515 
L 79.872812 290.369841 
L 81.382833 289.579025 
L 82.892854 289.711882 
L 84.402875 288.724944 
L 85.912896 289.51576 
L 87.422918 286.505794 
L 88.932939 280.658625 
L 90.44296 272.782101 
L 91.952981 274.901487 
L 93.463002 276.556928 
L 94.973023 278.744851 
L 96.483044 276.58856 
L 97.993066 276.056078 
L 99.503087 275.242416 
L 104.03315 268.859655 
L 105.543171 268.764757 
L 107.053192 267.16731 
L 108.563214 267.330745 
L 110.073235 267.910676 
L 111.583256 268.353533 
L 114.603298 265.639454 
L 116.113319 265.730901 
L 117.62334 265.670032 
L 119.133362 266.518841 
L 120.643383 266.012719 
L 122.153404 266.044351 
L 123.663425 266.856255 
L 125.173446 267.151493 
L 126.683467 266.961698 
L 128.193488 267.024963 
L 129.70351 262.746071 
L 131.213531 259.939254 
L 132.723552 261.984831 
L 134.233573 260.714254 
L 137.253615 260.445377 
L 138.763636 260.698438 
L 140.273658 259.781091 
L 141.783679 259.580751 
L 143.2937 258.692025 
L 144.803721 257.251101 
L 146.313742 255.036197 
L 147.823763 253.834158 
L 150.843805 248.994366 
L 152.353827 246.653551 
L 153.863848 245.67294 
L 155.373869 245.936545 
L 156.88389 244.597431 
L 158.393911 244.267548 
L 159.903932 245.151002 
L 161.413953 242.430596 
L 162.923975 238.871925 
L 164.433996 237.754239 
L 165.944017 238.049477 
L 167.454038 239.061721 
L 170.47408 239.83898 
L 171.984101 240.651261 
L 173.494123 239.036415 
L 175.004144 239.947435 
L 176.514165 238.066731 
L 178.024186 238.20764 
L 179.534207 237.775328 
L 181.044228 238.096926 
L 182.554249 236.828291 
L 184.064271 234.759684 
L 185.574292 234.443358 
L 187.084313 231.933836 
L 188.594334 230.109688 
L 190.104355 229.951525 
L 191.614376 230.61581 
L 193.124397 230.128667 
L 194.634419 230.868871 
L 196.14444 232.292339 
L 197.654461 229.69405 
L 199.164482 230.01479 
L 200.674503 227.729333 
L 202.184524 224.004591 
L 203.694545 223.624999 
L 205.204567 220.999491 
L 206.714588 221.189287 
L 208.224609 222.233164 
L 211.244651 222.707653 
L 212.754672 219.822055 
L 214.264693 215.969904 
L 215.774715 217.01378 
L 217.284736 214.65715 
L 218.794757 214.799497 
L 220.304778 216.28623 
L 221.814799 215.780108 
L 223.32482 216.112251 
L 224.834841 213.699798 
L 226.344863 212.869906 
L 227.854884 212.363784 
L 229.364905 212.347968 
L 230.874926 213.211539 
L 232.384947 212.590964 
L 233.894968 212.162986 
L 235.404989 212.063274 
L 236.915011 210.098662 
L 238.425032 201.798487 
L 241.445074 206.701544 
L 242.955095 204.531546 
L 244.465116 204.48726 
L 245.975137 205.594402 
L 247.485159 200.422468 
L 248.99518 199.520938 
L 250.505201 196.905974 
L 252.015222 200.090325 
L 253.525243 197.091552 
L 255.035264 195.725023 
L 256.545285 190.115504 
L 258.055307 191.676047 
L 259.565328 192.56176 
L 261.075349 195.029105 
L 262.58537 194.807677 
L 264.095391 195.914819 
L 265.605412 193.343086 
L 267.115433 188.10156 
L 268.625455 189.90462 
L 270.135476 191.011762 
L 271.645497 189.445947 
L 273.155518 185.739657 
L 274.665539 185.286256 
L 276.17556 182.734558 
L 277.685581 182.724013 
L 279.195603 180.617281 
L 280.705624 179.117894 
L 282.215645 180.688981 
L 285.235687 174.056674 
L 286.745708 166.791714 
L 288.255729 161.751582 
L 291.275772 156.943423 
L 292.785793 156.437301 
L 294.295814 152.419957 
L 295.805835 143.467924 
L 297.315856 143.910781 
L 298.825877 145.408059 
L 300.335899 148.529144 
L 301.84592 149.667919 
L 303.355941 148.845471 
L 306.375983 143.03693 
L 307.886004 139.766907 
L 309.396025 139.271329 
L 310.906047 139.276601 
L 312.416068 135.252931 
L 313.926089 129.865895 
L 315.43611 129.486303 
L 316.946131 124.614879 
L 318.456152 124.172022 
L 319.966173 123.961138 
L 321.476195 121.758905 
L 322.986216 121.847024 
L 324.496237 122.400595 
L 326.006258 122.343656 
L 327.516279 122.906717 
L 329.0263 120.818964 
L 330.536321 121.293453 
L 332.046342 117.60969 
L 333.556364 106.837343 
L 335.066385 105.445507 
L 336.576406 108.946185 
L 338.086427 113.06897 
L 339.596448 110.432918 
L 341.106469 112.404685 
L 342.61649 112.46795 
L 344.126512 106.375969 
L 345.636533 106.014895 
L 347.146554 106.552649 
L 348.656575 101.807755 
L 350.166596 98.454697 
L 351.676617 99.835988 
L 353.186638 96.624523 
L 354.69666 97.474085 
L 356.206681 97.221024 
L 357.716702 97.10082 
L 359.226723 96.197278 
L 360.736744 96.10861 
L 362.246765 93.953911 
L 363.756786 90.483275 
L 365.266808 81.15165 
L 366.776829 75.995532 
L 368.28685 61.412891 
L 369.796871 56.826161 
L 371.306892 61.349626 
L 372.816913 66.648091 
L 375.836956 68.02411 
L 377.346977 68.259598 
L 378.856998 68.922477 
L 380.367019 65.899452 
L 381.87704 66.347581 
L 383.387061 67.887036 
L 384.897082 69.257783 
L 386.407104 66.689213 
L 387.917125 65.778194 
L 389.427146 66.453023 
L 390.937167 62.310028 
L 392.447188 60.590443 
L 393.957209 60.295205 
L 396.977252 61.286361 
L 398.487273 54.725672 
L 398.487273 54.725672 
" clip-path="url(#p265f58c98e)" style="fill: none; stroke: #ff7f0e; stroke-opacity: 0.7; stroke-width: 0.5; stroke-linecap: square"/>
   </g>
   <g id="line2d_16">
    <path d="M 73.832727 295.040398 
L 75.342748 293.857338 
L 76.85277 291.009523 
L 78.362791 290.491099 
L 79.872812 290.369841 
L 81.382833 289.847903 
L 82.892854 290.025045 
L 84.402875 289.057087 
L 85.912896 289.547393 
L 87.422918 286.492411 
L 88.932939 280.263217 
L 90.44296 272.244346 
L 91.952981 275.924918 
L 93.463002 277.611348 
L 94.973023 279.717554 
L 96.483044 277.326655 
L 97.993066 276.538475 
L 99.503087 275.609706 
L 102.523129 271.200469 
L 104.03315 269.10639 
L 105.543171 269.100063 
L 107.053192 267.38083 
L 108.563214 267.623347 
L 110.073235 268.147921 
L 111.583256 268.342989 
L 113.093277 267.014419 
L 114.603298 265.939964 
L 117.62334 266.062804 
L 119.133362 266.497752 
L 120.643383 266.075984 
L 122.153404 266.079147 
L 123.663425 266.940609 
L 125.173446 267.246391 
L 126.683467 267.046051 
L 128.193488 267.024963 
L 129.70351 262.955927 
L 131.213531 260.413744 
L 132.723552 262.464592 
L 134.233573 261.259917 
L 135.743594 260.571907 
L 137.253615 260.587723 
L 138.763636 260.843948 
L 140.273658 260.081601 
L 141.783679 259.72837 
L 143.2937 258.888599 
L 144.803721 257.374159 
L 146.313742 254.988748 
L 147.823763 253.913239 
L 149.333784 251.329908 
L 152.353827 246.590286 
L 153.863848 245.910185 
L 155.373869 246.244634 
L 156.88389 244.850492 
L 158.393911 244.615772 
L 159.903932 245.807379 
L 162.923975 239.594204 
L 164.433996 238.091654 
L 165.944017 238.500445 
L 167.454038 239.757639 
L 168.964059 240.158319 
L 170.47408 240.336064 
L 171.984101 241.161337 
L 173.494123 239.365394 
L 175.004144 240.226856 
L 176.514165 238.279532 
L 178.024186 238.523966 
L 179.534207 237.959851 
L 181.044228 238.269324 
L 182.554249 237.059293 
L 184.064271 235.09499 
L 185.574292 234.700373 
L 187.084313 231.986557 
L 188.594334 230.325844 
L 190.104355 230.062239 
L 191.614376 230.8759 
L 193.124397 230.498769 
L 194.634419 231.232646 
L 196.14444 232.323972 
L 197.654461 230.023127 
L 199.164482 230.273123 
L 200.674503 227.654205 
L 202.184524 224.711053 
L 203.694545 223.972958 
L 205.204567 221.141838 
L 206.714588 221.559841 
L 208.224609 222.628572 
L 209.73463 222.818367 
L 211.244651 222.797279 
L 212.754672 220.157712 
L 214.264693 216.718543 
L 215.774715 217.344993 
L 217.284736 214.981384 
L 218.794757 215.052558 
L 220.304778 216.665822 
L 221.814799 216.112251 
L 223.32482 216.631553 
L 224.834841 213.759341 
L 226.344863 213.360212 
L 227.854884 212.363784 
L 229.364905 212.608937 
L 230.874926 213.689191 
L 232.384947 213.015129 
L 233.894968 212.524354 
L 235.404989 212.292611 
L 236.915011 210.269592 
L 238.425032 203.086387 
L 241.445074 206.701544 
L 242.955095 205.294947 
L 244.465116 204.740321 
L 245.975137 206.062565 
L 247.485159 200.288029 
L 248.99518 200.397614 
L 250.505201 197.699426 
L 252.015222 200.036877 
L 253.525243 197.705225 
L 255.035264 195.725023 
L 256.545285 190.903683 
L 258.055307 192.249546 
L 259.565328 193.415841 
L 261.075349 194.986928 
L 262.58537 194.807677 
L 264.095391 195.927472 
L 265.605412 193.759055 
L 267.115433 187.453091 
L 268.625455 190.54518 
L 270.135476 191.011762 
L 271.645497 189.691099 
L 273.155518 186.003262 
L 274.665539 185.900456 
L 276.17556 183.077244 
L 277.685581 183.128459 
L 279.195603 180.832382 
L 280.705624 179.414889 
L 282.215645 180.791942 
L 283.725666 177.619298 
L 285.235687 174.879955 
L 286.745708 168.080216 
L 288.255729 162.320969 
L 289.765751 160.085597 
L 291.275772 157.481178 
L 292.785793 157.576076 
L 294.295814 152.894447 
L 295.805835 142.708741 
L 297.315856 145.397514 
L 298.825877 146.247804 
L 300.335899 148.497512 
L 301.84592 149.557205 
L 303.355941 149.035266 
L 304.865962 147.112165 
L 306.375983 142.714672 
L 307.886004 139.766907 
L 309.396025 139.440036 
L 310.906047 139.790631 
L 312.416068 135.83339 
L 313.926089 131.094295 
L 315.43611 130.087323 
L 316.946131 125.50963 
L 318.456152 124.372362 
L 319.966173 124.492961 
L 321.476195 122.343355 
L 322.986216 122.423504 
L 324.496237 123.001615 
L 326.006258 123.21039 
L 327.516279 123.112329 
L 329.0263 121.209099 
L 330.536321 121.477977 
L 332.046342 117.885757 
L 333.556364 108.640403 
L 335.066385 106.900608 
L 336.576406 109.764322 
L 338.086427 113.06897 
L 339.596448 111.587509 
L 341.106469 113.440654 
L 342.61649 112.989889 
L 344.126512 106.6172 
L 345.636533 107.058771 
L 347.146554 106.552649 
L 348.656575 102.24534 
L 350.166596 99.0399 
L 351.676617 100.357447 
L 353.186638 96.986039 
L 354.69666 97.73688 
L 356.206681 98.043473 
L 357.716702 97.804119 
L 359.226723 96.764508 
L 360.736744 96.633185 
L 362.246765 94.258898 
L 363.756786 90.836506 
L 365.266808 82.951547 
L 366.776829 78.115671 
L 368.28685 64.406488 
L 369.796871 58.866465 
L 371.306892 63.331284 
L 372.816913 69.281507 
L 374.326934 69.419109 
L 377.346977 70.023995 
L 378.856998 70.086557 
L 380.367019 67.188482 
L 381.87704 66.674452 
L 383.387061 68.488055 
L 384.897082 69.257783 
L 386.407104 66.971798 
L 387.917125 66.355489 
L 389.427146 66.823693 
L 390.937167 62.415031 
L 392.447188 61.064932 
L 393.957209 60.648436 
L 395.46723 61.331484 
L 396.977252 61.397075 
L 398.487273 55.25925 
L 398.487273 55.25925 
" clip-path="url(#p265f58c98e)" style="fill: none; stroke: #2ca02c; stroke-opacity: 0.7; stroke-width: 0.5; stroke-linecap: square"/>
   </g>
   <g id="line2d_17">
    <path d="M 73.832727 294.798409 
L 75.342748 292.267799 
L 78.362791 291.002494 
L 79.872812 290.622902 
L 81.382833 290.559637 
L 82.892854 289.800454 
L 84.402875 289.863719 
L 85.912896 287.58617 
L 87.422918 283.72699 
L 88.932939 277.716791 
L 90.44296 277.843321 
L 91.952981 278.349443 
L 93.463002 279.741279 
L 94.973023 278.159647 
L 96.483044 277.59026 
L 97.993066 276.704546 
L 99.503087 274.680058 
L 101.013108 273.035162 
L 102.523129 270.820878 
L 104.03315 270.188225 
L 105.543171 268.669859 
L 107.053192 268.669859 
L 108.563214 268.480064 
L 110.073235 268.416798 
L 113.093277 266.645371 
L 114.603298 266.645371 
L 116.113319 266.518841 
L 117.62334 266.518841 
L 119.133362 266.26578 
L 120.643383 266.202515 
L 122.153404 266.771902 
L 123.663425 266.961698 
L 125.173446 266.898432 
L 126.683467 266.961698 
L 128.193488 263.671904 
L 129.70351 262.280069 
L 131.213531 263.229048 
L 132.723552 261.963743 
L 134.233573 261.457621 
L 135.743594 261.141294 
L 137.253615 261.20456 
L 138.763636 260.635172 
L 140.273658 260.318846 
L 141.783679 259.496398 
L 143.2937 258.104562 
L 144.803721 256.522931 
L 146.313742 255.257626 
L 147.823763 253.043342 
L 149.333784 251.082119 
L 150.843805 248.80457 
L 152.353827 247.476 
L 153.863848 247.222939 
L 155.373869 245.894368 
L 156.88389 245.641307 
L 158.393911 246.27396 
L 161.413953 241.33927 
L 162.923975 239.884169 
L 164.433996 239.694374 
L 165.944017 240.263761 
L 168.964059 240.643352 
L 170.47408 241.276005 
L 171.984101 240.0107 
L 173.494123 240.390291 
L 175.004144 238.998456 
L 176.514165 238.935191 
L 178.024186 238.429069 
L 179.534207 238.555599 
L 181.044228 237.669886 
L 182.554249 236.024989 
L 184.064271 235.518867 
L 185.574292 233.367848 
L 187.084313 231.912748 
L 188.594334 231.34336 
L 190.104355 231.596421 
L 191.614376 231.027034 
L 193.124397 231.533156 
L 194.634419 231.912748 
L 196.14444 230.520912 
L 197.654461 230.647442 
L 199.164482 228.559689 
L 200.674503 226.218875 
L 202.184524 225.269896 
L 203.694545 222.929082 
L 205.204567 222.54949 
L 206.714588 222.992347 
L 208.224609 222.992347 
L 209.73463 222.802551 
L 211.244651 220.904594 
L 212.754672 218.247453 
L 214.264693 218.310718 
L 215.774715 216.28623 
L 217.284736 215.969904 
L 218.794757 216.792352 
L 220.304778 216.28623 
L 221.814799 216.855617 
L 223.32482 214.641334 
L 224.834841 214.198477 
L 226.344863 213.122967 
L 227.854884 213.249498 
L 229.364905 213.818885 
L 232.384947 212.933172 
L 233.894968 212.806641 
L 235.404989 210.908684 
L 236.915011 205.467872 
L 238.425032 206.416851 
L 239.935053 206.29032 
L 241.445074 205.910729 
L 242.955095 205.08828 
L 244.465116 206.353585 
L 245.975137 201.798487 
L 247.485159 201.798487 
L 248.99518 199.267877 
L 250.505201 200.659713 
L 252.015222 198.635225 
L 253.525243 197.36992 
L 255.035264 192.751556 
L 256.545285 193.574004 
L 258.055307 193.7638 
L 259.565328 194.396453 
L 261.075349 194.459718 
L 262.58537 195.408697 
L 264.095391 194.269922 
L 265.605412 190.537272 
L 267.115433 191.35972 
L 270.135476 190.410742 
L 271.645497 187.120949 
L 273.155518 186.994418 
L 274.665539 184.653604 
L 276.17556 184.147482 
L 277.685581 182.249524 
L 279.195603 180.794423 
L 280.705624 181.553606 
L 282.215645 178.8332 
L 283.725666 176.555651 
L 285.235687 170.482187 
L 286.745708 166.686272 
L 289.765751 160.865869 
L 291.275772 159.790359 
L 292.785793 155.867914 
L 294.295814 148.908736 
L 295.805835 147.896492 
L 297.315856 148.023022 
L 298.825877 148.276083 
L 300.335899 148.972001 
L 301.84592 148.908736 
L 303.355941 148.212818 
L 306.375983 142.582211 
L 307.886004 141.506701 
L 309.396025 141.063845 
L 312.416068 133.598545 
L 313.926089 132.143444 
L 315.43611 127.904672 
L 316.946131 126.829163 
L 318.456152 126.006714 
L 319.966173 124.172022 
L 322.986216 123.792431 
L 324.496237 124.045492 
L 326.006258 123.476104 
L 327.516279 122.147534 
L 329.0263 122.021003 
L 330.536321 119.490393 
L 332.046342 111.898563 
L 333.556364 110.127136 
L 335.066385 111.582237 
L 336.576406 112.088359 
L 338.086427 112.088359 
L 339.596448 113.606725 
L 341.106469 113.037338 
L 342.61649 108.165913 
L 344.126512 108.355709 
L 345.636533 107.090404 
L 347.146554 104.053672 
L 348.656575 101.333266 
L 350.166596 101.649592 
L 351.676617 98.676125 
L 353.186638 98.865921 
L 354.69666 98.802656 
L 356.206681 98.549595 
L 357.716702 97.600616 
L 359.226723 97.41082 
L 360.736744 95.576128 
L 362.246765 92.792457 
L 363.756786 85.959809 
L 365.266808 81.594507 
L 366.776829 69.257783 
L 368.28685 65.082276 
L 369.796871 66.410846 
L 371.306892 69.637374 
L 372.816913 69.763905 
L 374.326934 70.776149 
L 375.836956 70.712883 
L 377.346977 71.092475 
L 378.856998 68.182273 
L 380.367019 67.929212 
L 381.87704 68.688395 
L 383.387061 68.814926 
L 384.897082 67.42309 
L 386.407104 66.790438 
L 387.917125 67.043499 
L 389.427146 63.943501 
L 390.937167 62.741462 
L 392.447188 61.982279 
L 393.957209 62.045544 
L 395.46723 61.665952 
L 396.977252 56.351671 
L 398.487273 53.568 
L 398.487273 53.568 
" clip-path="url(#p265f58c98e)" style="fill: none; stroke: #d62728; stroke-opacity: 0.7; stroke-width: 0.5; stroke-linecap: square"/>
   </g>
   <g id="patch_3">
    <path d="M 57.6 307.584 
L 57.6 41.472 
" style="fill: none; stroke: #000000; stroke-width: 0.8; stroke-linejoin: miter; stroke-linecap: square"/>
   </g>
   <g id="patch_4">
    <path d="M 414.72 307.584 
L 414.72 41.472 
" style="fill: none; stroke: #000000; stroke-width: 0.8; stroke-linejoin: miter; stroke-linecap: square"/>
   </g>
   <g id="patch_5">
    <path d="M 57.6 307.584 
L 414.72 307.584 
" style="fill: none; stroke: #000000; stroke-width: 0.8; stroke-linejoin: miter; stroke-linecap: square"/>
   </g>
   <g id="patch_6">
    <path d="M 57.6 41.472 
L 414.72 41.472 
" style="fill: none; stroke: #000000; stroke-width: 0.8; stroke-linejoin: miter; stroke-linecap: square"/>
   </g>
   <g id="text_14">
    <!-- 1final_zhang_aa_cci -->
    <g transform="translate(176.558437 35.472) scale(0.12 -0.12)">
     <defs>
      <path id="DejaVuSans-66" d="M 2375 4863 
L 2375 4384 
L 1825 4384 
Q 1516 4384 1395 4259 
Q 1275 4134 1275 3809 
L 1275 3500 
L 2222 3500 
L 2222 3053 
L 1275 3053 
L 1275 0 
L 697 0 
L 697 3053 
L 147 3053 
L 147 3500 
L 697 3500 
L 697 3744 
Q 697 4328 969 4595 
Q 1241 4863 1831 4863 
L 2375 4863 
z
" transform="scale(0.015625)"/>
      <path id="DejaVuSans-69" d="M 603 3500 
L 1178 3500 
L 1178 0 
L 603 0 
L 603 3500 
z
M 603 4863 
L 1178 4863 
L 1178 4134 
L 603 4134 
L 603 4863 
z
" transform="scale(0.015625)"/>
      <path id="DejaVuSans-6e" d="M 3513 2113 
L 3513 0 
L 2938 0 
L 2938 2094 
Q 2938 2591 2744 2837 
Q 2550 3084 2163 3084 
Q 1697 3084 1428 2787 
Q 1159 2491 1159 1978 
L 1159 0 
L 581 0 
L 581 3500 
L 1159 3500 
L 1159 2956 
Q 1366 3272 1645 3428 
Q 1925 3584 2291 3584 
Q 2894 3584 3203 3211 
Q 3513 2838 3513 2113 
z
" transform="scale(0.015625)"/>
      <path id="DejaVuSans-61" d="M 2194 1759 
Q 1497 1759 1228 1600 
Q 959 1441 959 1056 
Q 959 750 1161 570 
Q 1363 391 1709 391 
Q 2188 391 2477 730 
Q 2766 1069 2766 1631 
L 2766 1759 
L 2194 1759 
z
M 3341 1997 
L 3341 0 
L 2766 0 
L 2766 531 
Q 2569 213 2275 61 
Q 1981 -91 1556 -91 
Q 1019 -91 701 211 
Q 384 513 384 1019 
Q 384 1609 779 1909 
Q 1175 2209 1959 2209 
L 2766 2209 
L 2766 2266 
Q 2766 2663 2505 2880 
Q 2244 3097 1772 3097 
Q 1472 3097 1187 3025 
Q 903 2953 641 2809 
L 641 3341 
Q 956 3463 1253 3523 
Q 1550 3584 1831 3584 
Q 2591 3584 2966 3190 
Q 3341 2797 3341 1997 
z
" transform="scale(0.015625)"/>
      <path id="DejaVuSans-6c" d="M 603 4863 
L 1178 4863 
L 1178 0 
L 603 0 
L 603 4863 
z
" transform="scale(0.015625)"/>
      <path id="DejaVuSans-5f" d="M 3263 -1063 
L 3263 -1509 
L -63 -1509 
L -63 -1063 
L 3263 -1063 
z
" transform="scale(0.015625)"/>
      <path id="DejaVuSans-7a" d="M 353 3500 
L 3084 3500 
L 3084 2975 
L 922 459 
L 3084 459 
L 3084 0 
L 275 0 
L 275 525 
L 2438 3041 
L 353 3041 
L 353 3500 
z
" transform="scale(0.015625)"/>
      <path id="DejaVuSans-68" d="M 3513 2113 
L 3513 0 
L 2938 0 
L 2938 2094 
Q 2938 2591 2744 2837 
Q 2550 3084 2163 3084 
Q 1697 3084 1428 2787 
Q 1159 2491 1159 1978 
L 1159 0 
L 581 0 
L 581 4863 
L 1159 4863 
L 1159 2956 
Q 1366 3272 1645 3428 
Q 1925 3584 2291 3584 
Q 2894 3584 3203 3211 
Q 3513 2838 3513 2113 
z
" transform="scale(0.015625)"/>
      <path id="DejaVuSans-67" d="M 2906 1791 
Q 2906 2416 2648 2759 
Q 2391 3103 1925 3103 
Q 1463 3103 1205 2759 
Q 947 2416 947 1791 
Q 947 1169 1205 825 
Q 1463 481 1925 481 
Q 2391 481 2648 825 
Q 2906 1169 2906 1791 
z
M 3481 434 
Q 3481 -459 3084 -895 
Q 2688 -1331 1869 -1331 
Q 1566 -1331 1297 -1286 
Q 1028 -1241 775 -1147 
L 775 -588 
Q 1028 -725 1275 -790 
Q 1522 -856 1778 -856 
Q 2344 -856 2625 -561 
Q 2906 -266 2906 331 
L 2906 616 
Q 2728 306 2450 153 
Q 2172 0 1784 0 
Q 1141 0 747 490 
Q 353 981 353 1791 
Q 353 2603 747 3093 
Q 1141 3584 1784 3584 
Q 2172 3584 2450 3431 
Q 2728 3278 2906 2969 
L 2906 3500 
L 3481 3500 
L 3481 434 
z
" transform="scale(0.015625)"/>
      <path id="DejaVuSans-63" d="M 3122 3366 
L 3122 2828 
Q 2878 2963 2633 3030 
Q 2388 3097 2138 3097 
Q 1578 3097 1268 2742 
Q 959 2388 959 1747 
Q 959 1106 1268 751 
Q 1578 397 2138 397 
Q 2388 397 2633 464 
Q 2878 531 3122 666 
L 3122 134 
Q 2881 22 2623 -34 
Q 2366 -91 2075 -91 
Q 1284 -91 818 406 
Q 353 903 353 1747 
Q 353 2603 823 3093 
Q 1294 3584 2113 3584 
Q 2378 3584 2631 3529 
Q 2884 3475 3122 3366 
z
" transform="scale(0.015625)"/>
     </defs>
     <use xlink:href="#DejaVuSans-31"/>
     <use xlink:href="#DejaVuSans-66" x="63.623047"/>
     <use xlink:href="#DejaVuSans-69" x="98.828125"/>
     <use xlink:href="#DejaVuSans-6e" x="126.611328"/>
     <use xlink:href="#DejaVuSans-61" x="189.990234"/>
     <use xlink:href="#DejaVuSans-6c" x="251.269531"/>
     <use xlink:href="#DejaVuSans-5f" x="279.052734"/>
     <use xlink:href="#DejaVuSans-7a" x="329.052734"/>
     <use xlink:href="#DejaVuSans-68" x="381.542969"/>
     <use xlink:href="#DejaVuSans-61" x="444.921875"/>
     <use xlink:href="#DejaVuSans-6e" x="506.201172"/>
     <use xlink:href="#DejaVuSans-67" x="569.580078"/>
     <use xlink:href="#DejaVuSans-5f" x="633.056641"/>
     <use xlink:href="#DejaVuSans-61" x="683.056641"/>
     <use xlink:href="#DejaVuSans-61" x="744.335938"/>
     <use xlink:href="#DejaVuSans-5f" x="805.615234"/>
     <use xlink:href="#DejaVuSans-63" x="855.615234"/>
     <use xlink:href="#DejaVuSans-63" x="910.595703"/>
     <use xlink:href="#DejaVuSans-69" x="965.576172"/>
    </g>
   </g>
   <g id="legend_1">
    <g id="patch_7">
     <path d="M 64.6 108.1845 
L 200.035938 108.1845 
Q 202.035938 108.1845 202.035938 106.1845 
L 202.035938 48.472 
Q 202.035938 46.472 200.035938 46.472 
L 64.6 46.472 
Q 62.6 46.472 62.6 48.472 
L 62.6 106.1845 
Q 62.6 108.1845 64.6 108.1845 
z
" style="fill: #ffffff; opacity: 0.8; stroke: #cccccc; stroke-linejoin: miter"/>
    </g>
    <g id="line2d_18">
     <path d="M 66.6 54.570438 
L 76.6 54.570438 
L 86.6 54.570438 
" style="fill: none; stroke: #1f77b4; stroke-opacity: 0.7; stroke-width: 0.5; stroke-linecap: square"/>
    </g>
    <g id="text_15">
     <!-- Positive predictions -->
     <g transform="translate(94.6 58.070438) scale(0.1 -0.1)">
      <defs>
       <path id="DejaVuSans-50" d="M 1259 4147 
L 1259 2394 
L 2053 2394 
Q 2494 2394 2734 2622 
Q 2975 2850 2975 3272 
Q 2975 3691 2734 3919 
Q 2494 4147 2053 4147 
L 1259 4147 
z
M 628 4666 
L 2053 4666 
Q 2838 4666 3239 4311 
Q 3641 3956 3641 3272 
Q 3641 2581 3239 2228 
Q 2838 1875 2053 1875 
L 1259 1875 
L 1259 0 
L 628 0 
L 628 4666 
z
" transform="scale(0.015625)"/>
       <path id="DejaVuSans-6f" d="M 1959 3097 
Q 1497 3097 1228 2736 
Q 959 2375 959 1747 
Q 959 1119 1226 758 
Q 1494 397 1959 397 
Q 2419 397 2687 759 
Q 2956 1122 2956 1747 
Q 2956 2369 2687 2733 
Q 2419 3097 1959 3097 
z
M 1959 3584 
Q 2709 3584 3137 3096 
Q 3566 2609 3566 1747 
Q 3566 888 3137 398 
Q 2709 -91 1959 -91 
Q 1206 -91 779 398 
Q 353 888 353 1747 
Q 353 2609 779 3096 
Q 1206 3584 1959 3584 
z
" transform="scale(0.015625)"/>
       <path id="DejaVuSans-73" d="M 2834 3397 
L 2834 2853 
Q 2591 2978 2328 3040 
Q 2066 3103 1784 3103 
Q 1356 3103 1142 2972 
Q 928 2841 928 2578 
Q 928 2378 1081 2264 
Q 1234 2150 1697 2047 
L 1894 2003 
Q 2506 1872 2764 1633 
Q 3022 1394 3022 966 
Q 3022 478 2636 193 
Q 2250 -91 1575 -91 
Q 1294 -91 989 -36 
Q 684 19 347 128 
L 347 722 
Q 666 556 975 473 
Q 1284 391 1588 391 
Q 1994 391 2212 530 
Q 2431 669 2431 922 
Q 2431 1156 2273 1281 
Q 2116 1406 1581 1522 
L 1381 1569 
Q 847 1681 609 1914 
Q 372 2147 372 2553 
Q 372 3047 722 3315 
Q 1072 3584 1716 3584 
Q 2034 3584 2315 3537 
Q 2597 3491 2834 3397 
z
" transform="scale(0.015625)"/>
       <path id="DejaVuSans-74" d="M 1172 4494 
L 1172 3500 
L 2356 3500 
L 2356 3053 
L 1172 3053 
L 1172 1153 
Q 1172 725 1289 603 
Q 1406 481 1766 481 
L 2356 481 
L 2356 0 
L 1766 0 
Q 1100 0 847 248 
Q 594 497 594 1153 
L 594 3053 
L 172 3053 
L 172 3500 
L 594 3500 
L 594 4494 
L 1172 4494 
z
" transform="scale(0.015625)"/>
       <path id="DejaVuSans-76" d="M 191 3500 
L 800 3500 
L 1894 563 
L 2988 3500 
L 3597 3500 
L 2284 0 
L 1503 0 
L 191 3500 
z
" transform="scale(0.015625)"/>
       <path id="DejaVuSans-65" d="M 3597 1894 
L 3597 1613 
L 953 1613 
Q 991 1019 1311 708 
Q 1631 397 2203 397 
Q 2534 397 2845 478 
Q 3156 559 3463 722 
L 3463 178 
Q 3153 47 2828 -22 
Q 2503 -91 2169 -91 
Q 1331 -91 842 396 
Q 353 884 353 1716 
Q 353 2575 817 3079 
Q 1281 3584 2069 3584 
Q 2775 3584 3186 3129 
Q 3597 2675 3597 1894 
z
M 3022 2063 
Q 3016 2534 2758 2815 
Q 2500 3097 2075 3097 
Q 1594 3097 1305 2825 
Q 1016 2553 972 2059 
L 3022 2063 
z
" transform="scale(0.015625)"/>
       <path id="DejaVuSans-20" transform="scale(0.015625)"/>
       <path id="DejaVuSans-70" d="M 1159 525 
L 1159 -1331 
L 581 -1331 
L 581 3500 
L 1159 3500 
L 1159 2969 
Q 1341 3281 1617 3432 
Q 1894 3584 2278 3584 
Q 2916 3584 3314 3078 
Q 3713 2572 3713 1747 
Q 3713 922 3314 415 
Q 2916 -91 2278 -91 
Q 1894 -91 1617 61 
Q 1341 213 1159 525 
z
M 3116 1747 
Q 3116 2381 2855 2742 
Q 2594 3103 2138 3103 
Q 1681 3103 1420 2742 
Q 1159 2381 1159 1747 
Q 1159 1113 1420 752 
Q 1681 391 2138 391 
Q 2594 391 2855 752 
Q 3116 1113 3116 1747 
z
" transform="scale(0.015625)"/>
       <path id="DejaVuSans-72" d="M 2631 2963 
Q 2534 3019 2420 3045 
Q 2306 3072 2169 3072 
Q 1681 3072 1420 2755 
Q 1159 2438 1159 1844 
L 1159 0 
L 581 0 
L 581 3500 
L 1159 3500 
L 1159 2956 
Q 1341 3275 1631 3429 
Q 1922 3584 2338 3584 
Q 2397 3584 2469 3576 
Q 2541 3569 2628 3553 
L 2631 2963 
z
" transform="scale(0.015625)"/>
       <path id="DejaVuSans-64" d="M 2906 2969 
L 2906 4863 
L 3481 4863 
L 3481 0 
L 2906 0 
L 2906 525 
Q 2725 213 2448 61 
Q 2172 -91 1784 -91 
Q 1150 -91 751 415 
Q 353 922 353 1747 
Q 353 2572 751 3078 
Q 1150 3584 1784 3584 
Q 2172 3584 2448 3432 
Q 2725 3281 2906 2969 
z
M 947 1747 
Q 947 1113 1208 752 
Q 1469 391 1925 391 
Q 2381 391 2643 752 
Q 2906 1113 2906 1747 
Q 2906 2381 2643 2742 
Q 2381 3103 1925 3103 
Q 1469 3103 1208 2742 
Q 947 2381 947 1747 
z
" transform="scale(0.015625)"/>
      </defs>
      <use xlink:href="#DejaVuSans-50"/>
      <use xlink:href="#DejaVuSans-6f" x="56.677734"/>
      <use xlink:href="#DejaVuSans-73" x="117.859375"/>
      <use xlink:href="#DejaVuSans-69" x="169.958984"/>
      <use xlink:href="#DejaVuSans-74" x="197.742188"/>
      <use xlink:href="#DejaVuSans-69" x="236.951172"/>
      <use xlink:href="#DejaVuSans-76" x="264.734375"/>
      <use xlink:href="#DejaVuSans-65" x="323.914062"/>
      <use xlink:href="#DejaVuSans-20" x="385.4375"/>
      <use xlink:href="#DejaVuSans-70" x="417.224609"/>
      <use xlink:href="#DejaVuSans-72" x="480.701172"/>
      <use xlink:href="#DejaVuSans-65" x="519.564453"/>
      <use xlink:href="#DejaVuSans-64" x="581.087891"/>
      <use xlink:href="#DejaVuSans-69" x="644.564453"/>
      <use xlink:href="#DejaVuSans-63" x="672.347656"/>
      <use xlink:href="#DejaVuSans-74" x="727.328125"/>
      <use xlink:href="#DejaVuSans-69" x="766.537109"/>
      <use xlink:href="#DejaVuSans-6f" x="794.320312"/>
      <use xlink:href="#DejaVuSans-6e" x="855.501953"/>
      <use xlink:href="#DejaVuSans-73" x="918.880859"/>
     </g>
    </g>
    <g id="line2d_19">
     <path d="M 66.6 69.248563 
L 76.6 69.248563 
L 86.6 69.248563 
" style="fill: none; stroke: #ff7f0e; stroke-opacity: 0.7; stroke-width: 0.5; stroke-linecap: square"/>
    </g>
    <g id="text_16">
     <!-- Negative predictions -->
     <g transform="translate(94.6 72.748563) scale(0.1 -0.1)">
      <defs>
       <path id="DejaVuSans-4e" d="M 628 4666 
L 1478 4666 
L 3547 763 
L 3547 4666 
L 4159 4666 
L 4159 0 
L 3309 0 
L 1241 3903 
L 1241 0 
L 628 0 
L 628 4666 
z
" transform="scale(0.015625)"/>
      </defs>
      <use xlink:href="#DejaVuSans-4e"/>
      <use xlink:href="#DejaVuSans-65" x="74.804688"/>
      <use xlink:href="#DejaVuSans-67" x="136.328125"/>
      <use xlink:href="#DejaVuSans-61" x="199.804688"/>
      <use xlink:href="#DejaVuSans-74" x="261.083984"/>
      <use xlink:href="#DejaVuSans-69" x="300.292969"/>
      <use xlink:href="#DejaVuSans-76" x="328.076172"/>
      <use xlink:href="#DejaVuSans-65" x="387.255859"/>
      <use xlink:href="#DejaVuSans-20" x="448.779297"/>
      <use xlink:href="#DejaVuSans-70" x="480.566406"/>
      <use xlink:href="#DejaVuSans-72" x="544.042969"/>
      <use xlink:href="#DejaVuSans-65" x="582.90625"/>
      <use xlink:href="#DejaVuSans-64" x="644.429688"/>
      <use xlink:href="#DejaVuSans-69" x="707.90625"/>
      <use xlink:href="#DejaVuSans-63" x="735.689453"/>
      <use xlink:href="#DejaVuSans-74" x="790.669922"/>
      <use xlink:href="#DejaVuSans-69" x="829.878906"/>
      <use xlink:href="#DejaVuSans-6f" x="857.662109"/>
      <use xlink:href="#DejaVuSans-6e" x="918.84375"/>
      <use xlink:href="#DejaVuSans-73" x="982.222656"/>
     </g>
    </g>
    <g id="line2d_20">
     <path d="M 66.6 83.926688 
L 76.6 83.926688 
L 86.6 83.926688 
" style="fill: none; stroke: #2ca02c; stroke-opacity: 0.7; stroke-width: 0.5; stroke-linecap: square"/>
    </g>
    <g id="text_17">
     <!-- Average predictions -->
     <g transform="translate(94.6 87.426688) scale(0.1 -0.1)">
      <defs>
       <path id="DejaVuSans-41" d="M 2188 4044 
L 1331 1722 
L 3047 1722 
L 2188 4044 
z
M 1831 4666 
L 2547 4666 
L 4325 0 
L 3669 0 
L 3244 1197 
L 1141 1197 
L 716 0 
L 50 0 
L 1831 4666 
z
" transform="scale(0.015625)"/>
      </defs>
      <use xlink:href="#DejaVuSans-41"/>
      <use xlink:href="#DejaVuSans-76" x="62.533203"/>
      <use xlink:href="#DejaVuSans-65" x="121.712891"/>
      <use xlink:href="#DejaVuSans-72" x="183.236328"/>
      <use xlink:href="#DejaVuSans-61" x="224.349609"/>
      <use xlink:href="#DejaVuSans-67" x="285.628906"/>
      <use xlink:href="#DejaVuSans-65" x="349.105469"/>
      <use xlink:href="#DejaVuSans-20" x="410.628906"/>
      <use xlink:href="#DejaVuSans-70" x="442.416016"/>
      <use xlink:href="#DejaVuSans-72" x="505.892578"/>
      <use xlink:href="#DejaVuSans-65" x="544.755859"/>
      <use xlink:href="#DejaVuSans-64" x="606.279297"/>
      <use xlink:href="#DejaVuSans-69" x="669.755859"/>
      <use xlink:href="#DejaVuSans-63" x="697.539062"/>
      <use xlink:href="#DejaVuSans-74" x="752.519531"/>
      <use xlink:href="#DejaVuSans-69" x="791.728516"/>
      <use xlink:href="#DejaVuSans-6f" x="819.511719"/>
      <use xlink:href="#DejaVuSans-6e" x="880.693359"/>
      <use xlink:href="#DejaVuSans-73" x="944.072266"/>
     </g>
    </g>
    <g id="line2d_21">
     <path d="M 66.6 98.604813 
L 76.6 98.604813 
L 86.6 98.604813 
" style="fill: none; stroke: #d62728; stroke-opacity: 0.7; stroke-width: 0.5; stroke-linecap: square"/>
    </g>
    <g id="text_18">
     <!-- Actual values -->
     <g transform="translate(94.6 102.104813) scale(0.1 -0.1)">
      <defs>
       <path id="DejaVuSans-75" d="M 544 1381 
L 544 3500 
L 1119 3500 
L 1119 1403 
Q 1119 906 1312 657 
Q 1506 409 1894 409 
Q 2359 409 2629 706 
Q 2900 1003 2900 1516 
L 2900 3500 
L 3475 3500 
L 3475 0 
L 2900 0 
L 2900 538 
Q 2691 219 2414 64 
Q 2138 -91 1772 -91 
Q 1169 -91 856 284 
Q 544 659 544 1381 
z
M 1991 3584 
L 1991 3584 
z
" transform="scale(0.015625)"/>
      </defs>
      <use xlink:href="#DejaVuSans-41"/>
      <use xlink:href="#DejaVuSans-63" x="66.658203"/>
      <use xlink:href="#DejaVuSans-74" x="121.638672"/>
      <use xlink:href="#DejaVuSans-75" x="160.847656"/>
      <use xlink:href="#DejaVuSans-61" x="224.226562"/>
      <use xlink:href="#DejaVuSans-6c" x="285.505859"/>
      <use xlink:href="#DejaVuSans-20" x="313.289062"/>
      <use xlink:href="#DejaVuSans-76" x="345.076172"/>
      <use xlink:href="#DejaVuSans-61" x="404.255859"/>
      <use xlink:href="#DejaVuSans-6c" x="465.535156"/>
      <use xlink:href="#DejaVuSans-75" x="493.318359"/>
      <use xlink:href="#DejaVuSans-65" x="556.697266"/>
      <use xlink:href="#DejaVuSans-73" x="618.220703"/>
     </g>
    </g>
   </g>
  </g>
 </g>
 <defs>
  <clipPath id="p265f58c98e">
   <rect x="57.6" y="41.472" width="357.12" height="266.112"/>
  </clipPath>
 </defs>
</svg>
