<?xml version="1.0" encoding="utf-8" standalone="no"?>
<!DOCTYPE svg PUBLIC "-//W3C//DTD SVG 1.1//EN"
  "http://www.w3.org/Graphics/SVG/1.1/DTD/svg11.dtd">
<svg xmlns:xlink="http://www.w3.org/1999/xlink" width="460.8pt" height="345.6pt" viewBox="0 0 460.8 345.6" xmlns="http://www.w3.org/2000/svg" version="1.1">
 <metadata>
  <rdf:RDF xmlns:dc="http://purl.org/dc/elements/1.1/" xmlns:cc="http://creativecommons.org/ns#" xmlns:rdf="http://www.w3.org/1999/02/22-rdf-syntax-ns#">
   <cc:Work>
    <dc:type rdf:resource="http://purl.org/dc/dcmitype/StillImage"/>
    <dc:date>2024-09-08T12:12:55.085117</dc:date>
    <dc:format>image/svg+xml</dc:format>
    <dc:creator>
     <cc:Agent>
      <dc:title>Matplotlib v3.8.3, https://matplotlib.org/</dc:title>
     </cc:Agent>
    </dc:creator>
   </cc:Work>
  </rdf:RDF>
 </metadata>
 <defs>
  <style type="text/css">*{stroke-linejoin: round; stroke-linecap: butt}</style>
 </defs>
 <g id="figure_1">
  <g id="patch_1">
   <path d="M 0 345.6 
L 460.8 345.6 
L 460.8 0 
L 0 0 
z
" style="fill: #ffffff"/>
  </g>
  <g id="axes_1">
   <g id="patch_2">
    <path d="M 57.6 307.584 
L 414.72 307.584 
L 414.72 41.472 
L 57.6 41.472 
z
" style="fill: #ffffff"/>
   </g>
   <g id="matplotlib.axis_1">
    <g id="xtick_1">
     <g id="line2d_1">
      <defs>
       <path id="m985aa04e59" d="M 0 0 
L 0 3.5 
" style="stroke: #000000; stroke-width: 0.8"/>
      </defs>
      <g>
       <use xlink:href="#m985aa04e59" x="73.832727" y="307.584" style="stroke: #000000; stroke-width: 0.8"/>
      </g>
     </g>
     <g id="text_1">
      <!-- 0 -->
      <g transform="translate(70.651477 322.182437) scale(0.1 -0.1)">
       <defs>
        <path id="DejaVuSans-30" d="M 2034 4250 
Q 1547 4250 1301 3770 
Q 1056 3291 1056 2328 
Q 1056 1369 1301 889 
Q 1547 409 2034 409 
Q 2525 409 2770 889 
Q 3016 1369 3016 2328 
Q 3016 3291 2770 3770 
Q 2525 4250 2034 4250 
z
M 2034 4750 
Q 2819 4750 3233 4129 
Q 3647 3509 3647 2328 
Q 3647 1150 3233 529 
Q 2819 -91 2034 -91 
Q 1250 -91 836 529 
Q 422 1150 422 2328 
Q 422 3509 836 4129 
Q 1250 4750 2034 4750 
z
" transform="scale(0.015625)"/>
       </defs>
       <use xlink:href="#DejaVuSans-30"/>
      </g>
     </g>
    </g>
    <g id="xtick_2">
     <g id="line2d_2">
      <g>
       <use xlink:href="#m985aa04e59" x="116.27123" y="307.584" style="stroke: #000000; stroke-width: 0.8"/>
      </g>
     </g>
     <g id="text_2">
      <!-- 20 -->
      <g transform="translate(109.90873 322.182437) scale(0.1 -0.1)">
       <defs>
        <path id="DejaVuSans-32" d="M 1228 531 
L 3431 531 
L 3431 0 
L 469 0 
L 469 531 
Q 828 903 1448 1529 
Q 2069 2156 2228 2338 
Q 2531 2678 2651 2914 
Q 2772 3150 2772 3378 
Q 2772 3750 2511 3984 
Q 2250 4219 1831 4219 
Q 1534 4219 1204 4116 
Q 875 4013 500 3803 
L 500 4441 
Q 881 4594 1212 4672 
Q 1544 4750 1819 4750 
Q 2544 4750 2975 4387 
Q 3406 4025 3406 3419 
Q 3406 3131 3298 2873 
Q 3191 2616 2906 2266 
Q 2828 2175 2409 1742 
Q 1991 1309 1228 531 
z
" transform="scale(0.015625)"/>
       </defs>
       <use xlink:href="#DejaVuSans-32"/>
       <use xlink:href="#DejaVuSans-30" x="63.623047"/>
      </g>
     </g>
    </g>
    <g id="xtick_3">
     <g id="line2d_3">
      <g>
       <use xlink:href="#m985aa04e59" x="158.709733" y="307.584" style="stroke: #000000; stroke-width: 0.8"/>
      </g>
     </g>
     <g id="text_3">
      <!-- 40 -->
      <g transform="translate(152.347233 322.182437) scale(0.1 -0.1)">
       <defs>
        <path id="DejaVuSans-34" d="M 2419 4116 
L 825 1625 
L 2419 1625 
L 2419 4116 
z
M 2253 4666 
L 3047 4666 
L 3047 1625 
L 3713 1625 
L 3713 1100 
L 3047 1100 
L 3047 0 
L 2419 0 
L 2419 1100 
L 313 1100 
L 313 1709 
L 2253 4666 
z
" transform="scale(0.015625)"/>
       </defs>
       <use xlink:href="#DejaVuSans-34"/>
       <use xlink:href="#DejaVuSans-30" x="63.623047"/>
      </g>
     </g>
    </g>
    <g id="xtick_4">
     <g id="line2d_4">
      <g>
       <use xlink:href="#m985aa04e59" x="201.148235" y="307.584" style="stroke: #000000; stroke-width: 0.8"/>
      </g>
     </g>
     <g id="text_4">
      <!-- 60 -->
      <g transform="translate(194.785735 322.182437) scale(0.1 -0.1)">
       <defs>
        <path id="DejaVuSans-36" d="M 2113 2584 
Q 1688 2584 1439 2293 
Q 1191 2003 1191 1497 
Q 1191 994 1439 701 
Q 1688 409 2113 409 
Q 2538 409 2786 701 
Q 3034 994 3034 1497 
Q 3034 2003 2786 2293 
Q 2538 2584 2113 2584 
z
M 3366 4563 
L 3366 3988 
Q 3128 4100 2886 4159 
Q 2644 4219 2406 4219 
Q 1781 4219 1451 3797 
Q 1122 3375 1075 2522 
Q 1259 2794 1537 2939 
Q 1816 3084 2150 3084 
Q 2853 3084 3261 2657 
Q 3669 2231 3669 1497 
Q 3669 778 3244 343 
Q 2819 -91 2113 -91 
Q 1303 -91 875 529 
Q 447 1150 447 2328 
Q 447 3434 972 4092 
Q 1497 4750 2381 4750 
Q 2619 4750 2861 4703 
Q 3103 4656 3366 4563 
z
" transform="scale(0.015625)"/>
       </defs>
       <use xlink:href="#DejaVuSans-36"/>
       <use xlink:href="#DejaVuSans-30" x="63.623047"/>
      </g>
     </g>
    </g>
    <g id="xtick_5">
     <g id="line2d_5">
      <g>
       <use xlink:href="#m985aa04e59" x="243.586738" y="307.584" style="stroke: #000000; stroke-width: 0.8"/>
      </g>
     </g>
     <g id="text_5">
      <!-- 80 -->
      <g transform="translate(237.224238 322.182437) scale(0.1 -0.1)">
       <defs>
        <path id="DejaVuSans-38" d="M 2034 2216 
Q 1584 2216 1326 1975 
Q 1069 1734 1069 1313 
Q 1069 891 1326 650 
Q 1584 409 2034 409 
Q 2484 409 2743 651 
Q 3003 894 3003 1313 
Q 3003 1734 2745 1975 
Q 2488 2216 2034 2216 
z
M 1403 2484 
Q 997 2584 770 2862 
Q 544 3141 544 3541 
Q 544 4100 942 4425 
Q 1341 4750 2034 4750 
Q 2731 4750 3128 4425 
Q 3525 4100 3525 3541 
Q 3525 3141 3298 2862 
Q 3072 2584 2669 2484 
Q 3125 2378 3379 2068 
Q 3634 1759 3634 1313 
Q 3634 634 3220 271 
Q 2806 -91 2034 -91 
Q 1263 -91 848 271 
Q 434 634 434 1313 
Q 434 1759 690 2068 
Q 947 2378 1403 2484 
z
M 1172 3481 
Q 1172 3119 1398 2916 
Q 1625 2713 2034 2713 
Q 2441 2713 2670 2916 
Q 2900 3119 2900 3481 
Q 2900 3844 2670 4047 
Q 2441 4250 2034 4250 
Q 1625 4250 1398 4047 
Q 1172 3844 1172 3481 
z
" transform="scale(0.015625)"/>
       </defs>
       <use xlink:href="#DejaVuSans-38"/>
       <use xlink:href="#DejaVuSans-30" x="63.623047"/>
      </g>
     </g>
    </g>
    <g id="xtick_6">
     <g id="line2d_6">
      <g>
       <use xlink:href="#m985aa04e59" x="286.025241" y="307.584" style="stroke: #000000; stroke-width: 0.8"/>
      </g>
     </g>
     <g id="text_6">
      <!-- 100 -->
      <g transform="translate(276.481491 322.182437) scale(0.1 -0.1)">
       <defs>
        <path id="DejaVuSans-31" d="M 794 531 
L 1825 531 
L 1825 4091 
L 703 3866 
L 703 4441 
L 1819 4666 
L 2450 4666 
L 2450 531 
L 3481 531 
L 3481 0 
L 794 0 
L 794 531 
z
" transform="scale(0.015625)"/>
       </defs>
       <use xlink:href="#DejaVuSans-31"/>
       <use xlink:href="#DejaVuSans-30" x="63.623047"/>
       <use xlink:href="#DejaVuSans-30" x="127.246094"/>
      </g>
     </g>
    </g>
    <g id="xtick_7">
     <g id="line2d_7">
      <g>
       <use xlink:href="#m985aa04e59" x="328.463743" y="307.584" style="stroke: #000000; stroke-width: 0.8"/>
      </g>
     </g>
     <g id="text_7">
      <!-- 120 -->
      <g transform="translate(318.919993 322.182437) scale(0.1 -0.1)">
       <use xlink:href="#DejaVuSans-31"/>
       <use xlink:href="#DejaVuSans-32" x="63.623047"/>
       <use xlink:href="#DejaVuSans-30" x="127.246094"/>
      </g>
     </g>
    </g>
    <g id="xtick_8">
     <g id="line2d_8">
      <g>
       <use xlink:href="#m985aa04e59" x="370.902246" y="307.584" style="stroke: #000000; stroke-width: 0.8"/>
      </g>
     </g>
     <g id="text_8">
      <!-- 140 -->
      <g transform="translate(361.358496 322.182437) scale(0.1 -0.1)">
       <use xlink:href="#DejaVuSans-31"/>
       <use xlink:href="#DejaVuSans-34" x="63.623047"/>
       <use xlink:href="#DejaVuSans-30" x="127.246094"/>
      </g>
     </g>
    </g>
    <g id="xtick_9">
     <g id="line2d_9">
      <g>
       <use xlink:href="#m985aa04e59" x="413.340749" y="307.584" style="stroke: #000000; stroke-width: 0.8"/>
      </g>
     </g>
     <g id="text_9">
      <!-- 160 -->
      <g transform="translate(403.796999 322.182437) scale(0.1 -0.1)">
       <use xlink:href="#DejaVuSans-31"/>
       <use xlink:href="#DejaVuSans-36" x="63.623047"/>
       <use xlink:href="#DejaVuSans-30" x="127.246094"/>
      </g>
     </g>
    </g>
   </g>
   <g id="matplotlib.axis_2">
    <g id="ytick_1">
     <g id="line2d_10">
      <defs>
       <path id="m0bcbc0cf99" d="M 0 0 
L -3.5 0 
" style="stroke: #000000; stroke-width: 0.8"/>
      </defs>
      <g>
       <use xlink:href="#m0bcbc0cf99" x="57.6" y="275.001563" style="stroke: #000000; stroke-width: 0.8"/>
      </g>
     </g>
     <g id="text_10">
      <!-- −0.02 -->
      <g transform="translate(19.954687 278.800782) scale(0.1 -0.1)">
       <defs>
        <path id="DejaVuSans-2212" d="M 678 2272 
L 4684 2272 
L 4684 1741 
L 678 1741 
L 678 2272 
z
" transform="scale(0.015625)"/>
        <path id="DejaVuSans-2e" d="M 684 794 
L 1344 794 
L 1344 0 
L 684 0 
L 684 794 
z
" transform="scale(0.015625)"/>
       </defs>
       <use xlink:href="#DejaVuSans-2212"/>
       <use xlink:href="#DejaVuSans-30" x="83.789062"/>
       <use xlink:href="#DejaVuSans-2e" x="147.412109"/>
       <use xlink:href="#DejaVuSans-30" x="179.199219"/>
       <use xlink:href="#DejaVuSans-32" x="242.822266"/>
      </g>
     </g>
    </g>
    <g id="ytick_2">
     <g id="line2d_11">
      <g>
       <use xlink:href="#m0bcbc0cf99" x="57.6" y="227.710802" style="stroke: #000000; stroke-width: 0.8"/>
      </g>
     </g>
     <g id="text_11">
      <!-- −0.01 -->
      <g transform="translate(19.954687 231.510021) scale(0.1 -0.1)">
       <use xlink:href="#DejaVuSans-2212"/>
       <use xlink:href="#DejaVuSans-30" x="83.789062"/>
       <use xlink:href="#DejaVuSans-2e" x="147.412109"/>
       <use xlink:href="#DejaVuSans-30" x="179.199219"/>
       <use xlink:href="#DejaVuSans-31" x="242.822266"/>
      </g>
     </g>
    </g>
    <g id="ytick_3">
     <g id="line2d_12">
      <g>
       <use xlink:href="#m0bcbc0cf99" x="57.6" y="180.420041" style="stroke: #000000; stroke-width: 0.8"/>
      </g>
     </g>
     <g id="text_12">
      <!-- 0.00 -->
      <g transform="translate(28.334375 184.21926) scale(0.1 -0.1)">
       <use xlink:href="#DejaVuSans-30"/>
       <use xlink:href="#DejaVuSans-2e" x="63.623047"/>
       <use xlink:href="#DejaVuSans-30" x="95.410156"/>
       <use xlink:href="#DejaVuSans-30" x="159.033203"/>
      </g>
     </g>
    </g>
    <g id="ytick_4">
     <g id="line2d_13">
      <g>
       <use xlink:href="#m0bcbc0cf99" x="57.6" y="133.12928" style="stroke: #000000; stroke-width: 0.8"/>
      </g>
     </g>
     <g id="text_13">
      <!-- 0.01 -->
      <g transform="translate(28.334375 136.928499) scale(0.1 -0.1)">
       <use xlink:href="#DejaVuSans-30"/>
       <use xlink:href="#DejaVuSans-2e" x="63.623047"/>
       <use xlink:href="#DejaVuSans-30" x="95.410156"/>
       <use xlink:href="#DejaVuSans-31" x="159.033203"/>
      </g>
     </g>
    </g>
    <g id="ytick_5">
     <g id="line2d_14">
      <g>
       <use xlink:href="#m0bcbc0cf99" x="57.6" y="85.838519" style="stroke: #000000; stroke-width: 0.8"/>
      </g>
     </g>
     <g id="text_14">
      <!-- 0.02 -->
      <g transform="translate(28.334375 89.637738) scale(0.1 -0.1)">
       <use xlink:href="#DejaVuSans-30"/>
       <use xlink:href="#DejaVuSans-2e" x="63.623047"/>
       <use xlink:href="#DejaVuSans-30" x="95.410156"/>
       <use xlink:href="#DejaVuSans-32" x="159.033203"/>
      </g>
     </g>
    </g>
   </g>
   <g id="line2d_15">
    <path d="M 73.832727 188.39197 
L 75.954652 181.727669 
L 78.076578 187.058155 
L 80.198503 183.115231 
L 82.320428 184.231012 
L 84.442353 182.250527 
L 86.564278 182.641486 
L 88.686203 189.218408 
L 90.808128 175.91059 
L 92.930053 187.155215 
L 95.051979 188.347715 
L 97.173904 183.358245 
L 99.295829 181.360375 
L 101.417754 190.248614 
L 103.539679 187.242583 
L 105.661604 190.395491 
L 107.783529 179.862396 
L 109.905455 181.528073 
L 112.02738 187.374857 
L 114.149305 182.513783 
L 116.27123 186.363928 
L 118.393155 179.680751 
L 120.51508 186.193456 
L 122.637005 187.123558 
L 124.75893 179.832558 
L 126.880856 184.094804 
L 129.002781 186.467339 
L 131.124706 175.694018 
L 133.246631 189.669785 
L 135.368556 183.022703 
L 137.490481 180.89307 
L 139.612406 182.966116 
L 141.734332 181.972043 
L 143.856257 185.449802 
L 145.978182 180.851174 
L 148.100107 189.785273 
L 150.222032 182.65056 
L 152.343957 179.699099 
L 154.465882 187.387817 
L 156.587807 183.02151 
L 158.709733 179.913103 
L 160.831658 181.619557 
L 162.953583 184.269142 
L 165.075508 186.274721 
L 167.197433 182.061008 
L 169.319358 182.12495 
L 171.441283 180.918314 
L 173.563209 183.929464 
L 175.685134 186.274845 
L 177.807059 179.640805 
L 179.928984 179.624802 
L 182.050909 181.933628 
L 184.172834 185.858321 
L 186.294759 199.194951 
L 188.416684 166.780757 
L 190.53861 193.939146 
L 192.660535 187.928606 
L 194.78246 188.357294 
L 196.904385 179.836367 
L 199.02631 193.820034 
L 201.148235 180.500193 
L 203.27016 183.606364 
L 205.392086 184.181405 
L 207.514011 192.658665 
L 209.635936 177.703347 
L 211.757861 180.816698 
L 213.879786 186.610204 
L 216.001711 184.761359 
L 218.123636 181.2455 
L 220.245561 182.64164 
L 222.367487 181.050214 
L 224.489412 192.028321 
L 226.611337 185.128282 
L 228.733262 186.785029 
L 230.855187 184.636189 
L 232.977112 177.700352 
L 235.099037 189.810336 
L 237.220963 181.78125 
L 239.342888 185.647334 
L 241.464813 178.024387 
L 243.586738 185.794389 
L 245.708663 184.778174 
L 247.830588 186.921938 
L 249.952513 181.690095 
L 252.074439 191.969038 
L 254.196364 180.63537 
L 256.318289 179.013446 
L 258.440214 185.463016 
L 260.562139 183.891758 
L 262.684064 179.7597 
L 264.805989 180.17756 
L 266.927914 186.892869 
L 269.04984 187.43618 
L 271.171765 176.979467 
L 273.29369 184.279643 
L 275.415615 184.536029 
L 277.53754 178.92462 
L 279.659465 181.181944 
L 281.78139 187.302851 
L 283.903316 183.147734 
L 286.025241 183.907592 
L 288.147166 183.416715 
L 290.269091 183.450422 
L 292.391016 191.493842 
L 294.512941 178.543518 
L 296.634866 171.815793 
L 298.756791 198.888193 
L 300.878717 182.410892 
L 303.000642 183.225547 
L 305.122567 184.816991 
L 307.244492 182.333174 
L 309.366417 196.245839 
L 311.488342 173.794334 
L 313.610267 194.607173 
L 315.732193 176.935811 
L 317.854118 190.016949 
L 319.976043 183.368669 
L 322.097968 181.474758 
L 324.219893 186.02761 
L 326.341818 189.111145 
L 328.463743 185.561558 
L 330.585668 185.721873 
L 332.707594 186.440457 
L 334.829519 204.378818 
L 336.951444 180.923996 
L 339.073369 188.963914 
L 341.195294 189.149698 
L 343.317219 185.756046 
L 345.439144 187.958574 
L 347.56107 175.854737 
L 349.682995 190.30922 
L 351.80492 184.622263 
L 353.926845 186.343014 
L 356.04877 184.968085 
L 358.170695 190.079231 
L 360.29262 182.636216 
L 362.414545 178.989397 
L 364.536471 185.172534 
L 366.658396 185.946703 
L 368.780321 185.673084 
L 370.902246 189.512153 
L 373.024171 187.93673 
L 375.146096 185.231232 
L 377.268021 180.604034 
L 379.389947 179.063976 
L 381.511872 184.794433 
L 383.633797 183.822349 
L 385.755722 181.299182 
L 387.877647 185.607704 
L 389.999572 187.671365 
L 392.121497 191.31883 
L 394.243422 181.135213 
L 396.365348 190.565671 
L 398.487273 181.257465 
L 398.487273 181.257465 
" clip-path="url(#pc3c3fc9500)" style="fill: none; stroke: #008000; stroke-opacity: 0.8; stroke-width: 0.5; stroke-linecap: square"/>
   </g>
   <g id="line2d_16">
    <path d="M 73.832727 120.103471 
L 75.954652 121.056772 
L 78.076578 136.562576 
L 80.198503 132.367166 
L 82.320428 156.344185 
L 84.442353 151.312339 
L 86.564278 134.982845 
L 88.686203 149.296673 
L 90.808128 65.072666 
L 92.930053 140.740401 
L 95.051979 157.14824 
L 97.173904 137.056337 
L 99.295829 138.417532 
L 101.417754 130.872601 
L 103.539679 152.881531 
L 105.661604 151.292655 
L 107.783529 129.859678 
L 109.905455 148.149858 
L 112.02738 150.34356 
L 114.149305 150.035306 
L 116.27123 134.326173 
L 118.393155 151.029283 
L 120.51508 134.79069 
L 122.637005 114.321608 
L 124.75893 145.601946 
L 126.880856 154.6377 
L 129.002781 149.734751 
L 131.124706 130.687129 
L 133.246631 145.780847 
L 135.368556 144.671136 
L 137.490481 151.586471 
L 139.612406 151.980476 
L 141.734332 167.292888 
L 143.856257 170.031883 
L 145.978182 155.441648 
L 148.100107 162.65582 
L 150.222032 146.002887 
L 152.343957 157.936691 
L 154.465882 139.698372 
L 156.587807 159.553659 
L 158.709733 154.846627 
L 160.831658 141.216669 
L 162.953583 150.746256 
L 165.075508 171.147004 
L 167.197433 168.388688 
L 169.319358 156.021757 
L 171.441283 162.951324 
L 173.563209 145.742343 
L 175.685134 161.222421 
L 177.807059 155.278848 
L 179.928984 159.684728 
L 182.050909 159.480665 
L 184.172834 166.177589 
L 186.294759 149.740196 
L 188.416684 70.870902 
L 190.53861 108.500339 
L 194.78246 163.663254 
L 196.904385 148.059378 
L 199.02631 158.27916 
L 201.148235 142.94654 
L 203.27016 137.81082 
L 205.392086 154.608917 
L 207.514011 167.707353 
L 209.635936 116.536111 
L 211.757861 125.335193 
L 213.879786 143.567674 
L 216.001711 160.733228 
L 218.123636 143.830601 
L 220.245561 145.992546 
L 222.367487 158.249513 
L 224.489412 137.789498 
L 226.611337 168.671593 
L 228.733262 161.02257 
L 230.855187 151.20281 
L 232.977112 121.176626 
L 235.099037 149.121827 
L 237.220963 151.513291 
L 239.342888 162.380571 
L 241.464813 147.462713 
L 243.586738 144.351937 
L 245.708663 134.523277 
L 247.830588 166.151038 
L 249.952513 133.232384 
L 252.074439 151.106207 
L 254.196364 151.577723 
L 256.318289 145.942217 
L 258.440214 118.992017 
L 260.562139 164.307304 
L 262.684064 141.455064 
L 264.805989 145.04237 
L 266.927914 144.234614 
L 269.04984 169.293322 
L 271.171765 155.543251 
L 273.29369 147.936304 
L 275.415615 166.258183 
L 277.53754 112.487265 
L 279.659465 127.829424 
L 281.78139 137.878212 
L 283.903316 153.438496 
L 286.025241 133.558301 
L 288.147166 145.444167 
L 290.269091 147.485012 
L 292.391016 153.838674 
L 294.512941 159.3075 
L 296.634866 107.01035 
L 298.756791 138.0893 
L 300.878717 125.435802 
L 303.000642 146.553873 
L 305.122567 143.153049 
L 307.244492 127.058787 
L 309.366417 134.569621 
L 311.488342 131.370963 
L 313.610267 143.970931 
L 315.732193 105.70935 
L 317.854118 139.892788 
L 319.976043 128.008171 
L 322.097968 137.839001 
L 324.219893 138.494663 
L 326.341818 99.628087 
L 328.463743 126.53303 
L 330.585668 116.732545 
L 332.707594 101.203478 
L 334.829519 145.851233 
L 339.073369 148.774056 
L 341.195294 152.421399 
L 343.317219 120.26329 
L 345.439144 149.440197 
L 347.56107 122.207693 
L 349.682995 154.576197 
L 351.80492 145.53805 
L 353.926845 111.87986 
L 356.04877 128.381067 
L 358.170695 143.224812 
L 360.29262 140.67988 
L 362.414545 149.373204 
L 364.536471 160.32316 
L 366.658396 150.72447 
L 368.780321 156.805513 
L 370.902246 154.861898 
L 373.024171 155.849852 
L 375.146096 135.048386 
L 377.268021 162.904335 
L 379.389947 130.723832 
L 381.511872 139.824606 
L 383.633797 159.098424 
L 385.755722 135.448497 
L 387.877647 140.043094 
L 389.999572 156.911201 
L 392.121497 157.208698 
L 394.243422 142.465561 
L 396.365348 113.137326 
L 398.487273 153.876252 
L 398.487273 153.876252 
" clip-path="url(#pc3c3fc9500)" style="fill: none; stroke: #32cd32; stroke-opacity: 0.8; stroke-width: 0.5; stroke-linecap: square"/>
   </g>
   <g id="line2d_17">
    <path d="M 73.832727 227.060688 
L 75.954652 238.624483 
L 78.076578 236.65057 
L 80.198503 229.223018 
L 82.320428 209.193154 
L 84.442353 226.015888 
L 86.564278 230.752778 
L 88.686203 276.275266 
L 90.808128 215.529681 
L 92.930053 218.234327 
L 95.051979 246.614464 
L 97.173904 224.168986 
L 99.295829 211.359656 
L 101.417754 235.192281 
L 103.539679 234.207478 
L 105.661604 229.252734 
L 107.783529 222.442168 
L 109.905455 207.627673 
L 112.02738 234.853392 
L 114.149305 248.967225 
L 116.27123 225.789043 
L 118.393155 211.863163 
L 120.51508 224.088312 
L 122.637005 256.298228 
L 124.75893 208.869957 
L 126.880856 236.07037 
L 129.002781 221.151998 
L 131.124706 196.235239 
L 133.246631 219.416588 
L 135.368556 221.075422 
L 137.490481 202.576037 
L 139.612406 203.476299 
L 141.734332 196.258028 
L 143.856257 208.995421 
L 145.978182 209.816204 
L 148.100107 212.904854 
L 150.222032 212.116876 
L 152.343957 202.771875 
L 154.465882 244.076499 
L 156.587807 212.125396 
L 158.709733 215.301058 
L 160.831658 215.955196 
L 162.953583 206.341147 
L 165.075508 199.10729 
L 167.197433 197.317164 
L 169.319358 200.465011 
L 171.441283 193.549431 
L 173.563209 209.197355 
L 175.685134 218.988482 
L 177.807059 203.1062 
L 179.928984 195.5742 
L 182.050909 210.161848 
L 184.172834 212.479241 
L 186.294759 253.865584 
L 188.416684 280.154428 
L 190.53861 256.604194 
L 192.660535 240.176429 
L 194.78246 217.838406 
L 196.904385 214.696011 
L 199.02631 226.008174 
L 201.148235 213.776524 
L 203.27016 242.812601 
L 205.392086 211.843552 
L 207.514011 213.141596 
L 209.635936 220.106027 
L 211.757861 216.365162 
L 213.879786 232.856783 
L 216.001711 217.319439 
L 218.123636 213.736069 
L 220.245561 217.762127 
L 222.367487 210.44601 
L 224.489412 248.294441 
L 226.611337 211.634714 
L 228.733262 245.105879 
L 230.855187 207.551791 
L 232.977112 213.848378 
L 235.099037 222.327713 
L 237.220963 236.468657 
L 239.342888 221.084724 
L 241.464813 218.466044 
L 243.586738 231.663865 
L 245.708663 216.190308 
L 247.830588 205.839072 
L 249.952513 219.606262 
L 252.074439 225.674361 
L 254.196364 206.871726 
L 256.318289 215.054668 
L 258.440214 227.962344 
L 260.562139 217.935271 
L 262.684064 221.01827 
L 264.805989 201.392173 
L 266.927914 210.673577 
L 269.04984 205.421898 
L 271.171765 195.663858 
L 273.29369 216.437931 
L 275.415615 218.698155 
L 277.53754 223.065574 
L 279.659465 204.201898 
L 281.78139 228.926504 
L 283.903316 218.616441 
L 286.025241 204.440697 
L 288.147166 209.14676 
L 290.269091 215.240882 
L 292.391016 238.618366 
L 294.512941 230.102184 
L 296.634866 217.719672 
L 298.756791 271.172961 
L 300.878717 230.105721 
L 303.000642 226.900806 
L 305.122567 228.141523 
L 307.244492 230.431156 
L 309.366417 238.096235 
L 311.488342 254.473088 
L 313.610267 236.959438 
L 315.732193 226.876689 
L 317.854118 224.685664 
L 319.976043 233.6983 
L 322.097968 223.729873 
L 324.219893 230.155928 
L 326.341818 235.969386 
L 328.463743 260.069603 
L 330.585668 247.654552 
L 332.707594 232.614597 
L 334.829519 295.488 
L 336.951444 236.833403 
L 339.073369 239.252042 
L 341.195294 223.386175 
L 343.317219 259.008314 
L 345.439144 219.860433 
L 347.56107 254.871146 
L 349.682995 217.802494 
L 351.80492 228.91502 
L 353.926845 228.652509 
L 356.04877 224.410713 
L 358.170695 233.248766 
L 360.29262 216.728871 
L 362.414545 214.976777 
L 364.536471 221.707385 
L 366.658396 219.040949 
L 368.780321 224.156186 
L 370.902246 220.178214 
L 373.024171 241.521363 
L 377.268021 196.238698 
L 379.389947 208.535857 
L 381.511872 215.199945 
L 383.633797 228.938322 
L 385.755722 210.428681 
L 387.877647 220.070044 
L 389.999572 234.140171 
L 392.121497 263.949861 
L 394.243422 209.291753 
L 396.365348 221.697173 
L 398.487273 209.425207 
L 398.487273 209.425207 
" clip-path="url(#pc3c3fc9500)" style="fill: none; stroke: #32cd32; stroke-opacity: 0.8; stroke-width: 0.5; stroke-linecap: square"/>
   </g>
   <g id="line2d_18">
    <path d="M 73.832727 178.423739 
L 75.954652 173.798165 
L 78.076578 179.875364 
L 80.198503 174.6101 
L 82.320428 178.588173 
L 84.442353 171.024036 
L 86.564278 173.594833 
L 88.686203 181.029995 
L 90.808128 166.977156 
L 92.930053 179.985782 
L 95.051979 179.03241 
L 97.173904 176.023727 
L 99.295829 174.889969 
L 101.417754 174.160225 
L 103.539679 176.536603 
L 105.661604 182.414843 
L 107.783529 168.108949 
L 109.905455 174.762007 
L 112.02738 180.98378 
L 114.149305 177.951831 
L 116.27123 179.833312 
L 118.393155 177.03667 
L 120.51508 180.562516 
L 122.637005 176.648105 
L 124.75893 172.477162 
L 126.880856 179.441409 
L 129.002781 181.786122 
L 131.124706 171.653417 
L 133.246631 183.480008 
L 135.368556 175.8068 
L 137.490481 177.480847 
L 139.612406 176.799694 
L 141.734332 178.258908 
L 143.856257 181.701888 
L 145.978182 174.496627 
L 148.100107 179.918165 
L 150.222032 179.3655 
L 152.343957 174.580596 
L 154.465882 178.124344 
L 156.587807 179.326489 
L 158.709733 174.095583 
L 160.831658 178.954606 
L 162.953583 179.917509 
L 165.075508 181.924439 
L 167.197433 175.684099 
L 169.319358 175.773907 
L 173.563209 177.25989 
L 175.685134 182.383371 
L 177.807059 173.040215 
L 179.928984 175.10856 
L 182.050909 176.671522 
L 184.172834 180.066703 
L 186.294759 189.568123 
L 188.416684 145.723506 
L 190.53861 168.123328 
L 192.660535 180.729155 
L 194.78246 181.518105 
L 196.904385 174.575411 
L 199.02631 182.665455 
L 201.148235 169.771972 
L 203.27016 178.415194 
L 205.392086 179.635883 
L 207.514011 182.766638 
L 209.635936 167.667686 
L 211.757861 173.914668 
L 213.879786 176.745596 
L 216.001711 177.674813 
L 218.123636 171.839144 
L 220.245561 176.332341 
L 222.367487 171.198958 
L 224.489412 184.756057 
L 226.611337 180.22621 
L 228.733262 177.689319 
L 230.855187 177.498892 
L 232.977112 171.320371 
L 235.099037 177.744348 
L 237.220963 174.579471 
L 239.342888 179.266594 
L 241.464813 168.666385 
L 243.586738 176.355202 
L 245.708663 175.332679 
L 247.830588 178.511356 
L 249.952513 174.756734 
L 252.074439 181.191586 
L 254.196364 174.720461 
L 256.318289 174.435789 
L 258.440214 174.4139 
L 260.562139 177.234371 
L 262.684064 174.379218 
L 264.805989 176.025249 
L 266.927914 177.26173 
L 269.04984 180.882788 
L 271.171765 172.319677 
L 273.29369 175.929839 
L 275.415615 179.214508 
L 277.53754 175.143187 
L 279.659465 173.685086 
L 281.78139 179.321171 
L 283.903316 175.764333 
L 286.025241 178.381557 
L 288.147166 180.342585 
L 290.269091 175.56922 
L 292.391016 177.741478 
L 294.512941 168.677657 
L 296.634866 163.109679 
L 298.756791 179.938598 
L 300.878717 174.614375 
L 303.000642 173.770157 
L 305.122567 169.59059 
L 307.244492 172.707525 
L 309.366417 180.122585 
L 311.488342 164.39942 
L 313.610267 183.337021 
L 315.732193 164.061226 
L 317.854118 179.403903 
L 319.976043 175.778022 
L 322.097968 171.385372 
L 324.219893 174.248421 
L 326.341818 182.43104 
L 328.463743 165.641226 
L 330.585668 173.943978 
L 332.707594 175.414973 
L 334.829519 192.46803 
L 336.951444 163.106608 
L 339.073369 175.305487 
L 341.195294 178.661118 
L 343.317219 173.478608 
L 345.439144 178.362365 
L 347.56107 170.033454 
L 349.682995 175.627383 
L 351.80492 176.838306 
L 353.926845 175.352341 
L 356.04877 170.512583 
L 358.170695 179.122878 
L 360.29262 175.831162 
L 362.414545 169.654973 
L 364.536471 176.380203 
L 366.658396 180.443948 
L 368.780321 175.711843 
L 370.902246 182.513907 
L 373.024171 170.723986 
L 375.146096 177.637757 
L 377.268021 173.205906 
L 379.389947 172.953111 
L 381.511872 175.543148 
L 383.633797 177.181424 
L 385.755722 174.517848 
L 387.877647 179.775783 
L 389.999572 179.531813 
L 392.121497 180.30088 
L 394.243422 171.293468 
L 396.365348 180.917061 
L 398.487273 177.806885 
L 398.487273 177.806885 
" clip-path="url(#pc3c3fc9500)" style="fill: none; stroke: #ff0000; stroke-opacity: 0.8; stroke-width: 0.5; stroke-linecap: square"/>
   </g>
   <g id="line2d_19">
    <path d="M 73.832727 107.207762 
L 75.954652 116.724156 
L 78.076578 137.484146 
L 80.198503 126.714836 
L 82.320428 149.454869 
L 84.442353 142.973184 
L 86.564278 126.065947 
L 88.686203 142.894807 
L 90.808128 60.266915 
L 92.930053 134.564687 
L 95.051979 151.571557 
L 97.173904 125.701428 
L 99.295829 134.091075 
L 101.417754 122.652081 
L 103.539679 147.314745 
L 105.661604 128.081228 
L 107.783529 125.805293 
L 109.905455 141.347083 
L 112.02738 148.731759 
L 114.149305 144.61886 
L 116.27123 116.466384 
L 118.393155 146.24165 
L 120.51508 122.686032 
L 122.637005 108.788827 
L 124.75893 141.663915 
L 126.880856 147.055308 
L 129.002781 149.455951 
L 131.124706 127.014293 
L 133.246631 138.524019 
L 135.368556 137.801671 
L 137.490481 150.036939 
L 139.612406 149.742605 
L 141.734332 163.203636 
L 143.856257 167.063177 
L 145.978182 152.066013 
L 148.100107 144.454977 
L 150.222032 141.925732 
L 152.343957 148.342959 
L 154.465882 124.021383 
L 156.587807 155.026998 
L 158.709733 150.984465 
L 160.831658 133.72188 
L 162.953583 149.900251 
L 165.075508 167.787119 
L 167.197433 161.003672 
L 169.319358 155.623314 
L 171.441283 160.681332 
L 173.563209 129.226767 
L 175.685134 157.067081 
L 177.807059 150.428308 
L 179.928984 158.402252 
L 182.050909 150.466887 
L 184.172834 160.291016 
L 186.294759 132.745505 
L 188.416684 53.568 
L 190.53861 76.195454 
L 192.660535 129.874046 
L 194.78246 158.208843 
L 196.904385 138.363939 
L 199.02631 145.436641 
L 201.148235 128.08358 
L 203.27016 137.666115 
L 205.392086 145.850997 
L 207.514011 155.498276 
L 209.635936 101.598517 
L 211.757861 109.994324 
L 213.879786 138.718115 
L 216.001711 156.049953 
L 218.123636 137.226896 
L 220.245561 137.475977 
L 222.367487 143.63555 
L 224.489412 117.012846 
L 226.611337 165.538704 
L 228.733262 147.248917 
L 230.855187 132.753022 
L 232.977112 105.769983 
L 235.099037 141.557834 
L 237.220963 144.956038 
L 239.342888 157.450694 
L 241.464813 139.352221 
L 243.586738 141.294349 
L 245.708663 134.282382 
L 247.830588 155.074696 
L 249.952513 126.368121 
L 252.074439 127.598094 
L 254.196364 135.96696 
L 256.318289 141.305224 
L 258.440214 115.397605 
L 260.562139 159.418079 
L 262.684064 133.968565 
L 264.805989 141.625951 
L 266.927914 141.939419 
L 269.04984 162.332955 
L 271.171765 153.641067 
L 273.29369 140.797476 
L 275.415615 162.427516 
L 277.53754 107.356352 
L 279.659465 125.149744 
L 281.78139 135.990243 
L 283.903316 149.228139 
L 286.025241 120.33897 
L 288.147166 141.010247 
L 290.269091 140.257692 
L 292.391016 141.953065 
L 294.512941 146.461556 
L 296.634866 95.007195 
L 298.756791 102.795639 
L 300.878717 103.355228 
L 303.000642 144.611413 
L 305.122567 137.991348 
L 307.244492 114.474562 
L 309.366417 110.085488 
L 311.488342 122.660643 
L 313.610267 131.259508 
L 315.732193 99.396509 
L 317.854118 125.288693 
L 319.976043 114.496055 
L 322.097968 132.916397 
L 324.219893 131.225028 
L 326.341818 84.340364 
L 328.463743 107.805402 
L 330.585668 107.519811 
L 332.707594 73.140427 
L 334.829519 122.119687 
L 336.951444 121.654512 
L 339.073369 136.885257 
L 341.195294 139.46322 
L 343.317219 112.089472 
L 345.439144 135.322152 
L 347.56107 109.501212 
L 349.682995 147.313329 
L 351.80492 131.863895 
L 353.926845 94.408734 
L 356.04877 117.8511 
L 358.170695 118.55787 
L 360.29262 121.121454 
L 362.414545 135.09653 
L 364.536471 153.750011 
L 366.658396 145.378481 
L 368.780321 141.579089 
L 370.902246 152.31302 
L 373.024171 143.20818 
L 375.146096 129.974164 
L 377.268021 151.441928 
L 379.389947 113.296607 
L 381.511872 135.589715 
L 383.633797 154.47051 
L 385.755722 129.660368 
L 387.877647 124.980745 
L 389.999572 141.104975 
L 392.121497 130.340972 
L 394.243422 136.931061 
L 396.365348 87.822727 
L 398.487273 145.511137 
L 398.487273 145.511137 
" clip-path="url(#pc3c3fc9500)" style="fill: none; stroke: #f08080; stroke-opacity: 0.8; stroke-width: 0.5; stroke-linecap: square"/>
   </g>
   <g id="line2d_20">
    <path d="M 73.832727 223.590123 
L 75.954652 222.895408 
L 78.076578 228.705966 
L 80.198503 224.373666 
L 82.320428 204.847207 
L 84.442353 211.518876 
L 86.564278 222.895345 
L 88.686203 255.263824 
L 90.808128 209.579488 
L 92.930053 212.964132 
L 95.051979 238.45338 
L 97.173904 221.061506 
L 99.295829 205.782774 
L 101.417754 205.718032 
L 103.539679 228.383708 
L 105.661604 225.490777 
L 107.783529 214.600635 
L 109.905455 198.135033 
L 112.02738 227.641469 
L 114.149305 229.825763 
L 118.393155 209.748013 
L 120.51508 217.612236 
L 122.637005 228.751889 
L 124.75893 193.373893 
L 126.880856 233.451185 
L 129.002781 217.181773 
L 131.124706 190.43672 
L 133.246631 209.846633 
L 135.368556 204.484538 
L 137.490481 201.581438 
L 139.612406 197.985539 
L 141.734332 190.054147 
L 143.856257 202.438307 
L 145.978182 213.112548 
L 148.100107 204.819674 
L 150.222032 208.402281 
L 152.343957 197.759662 
L 154.465882 236.04467 
L 156.587807 209.947346 
L 158.709733 209.902436 
L 160.831658 219.538521 
L 162.953583 199.951816 
L 165.075508 196.203408 
L 167.197433 191.956899 
L 169.319358 195.46862 
L 171.441283 185.42173 
L 173.563209 205.4697 
L 175.685134 216.222382 
L 179.928984 189.626619 
L 182.050909 208.804285 
L 184.172834 208.616935 
L 186.294759 238.860674 
L 188.416684 222.249883 
L 190.53861 225.307915 
L 192.660535 230.007266 
L 194.78246 209.688114 
L 196.904385 208.965243 
L 199.02631 223.58827 
L 201.148235 206.267336 
L 203.27016 233.800834 
L 205.392086 207.476811 
L 207.514011 204.941191 
L 209.635936 215.134172 
L 211.757861 206.693365 
L 213.879786 223.162729 
L 216.001711 204.025092 
L 218.123636 207.215058 
L 220.245561 213.901592 
L 222.367487 202.389944 
L 224.489412 240.25779 
L 226.611337 208.60417 
L 228.733262 241.478091 
L 230.855187 199.237829 
L 232.977112 215.090173 
L 235.099037 207.779784 
L 237.220963 225.93935 
L 239.342888 208.520689 
L 241.464813 205.162236 
L 243.586738 223.051092 
L 245.708663 203.762755 
L 247.830588 199.911023 
L 249.952513 211.766526 
L 252.074439 224.531909 
L 254.196364 202.889119 
L 256.318289 201.895607 
L 258.440214 212.732864 
L 260.562139 210.413643 
L 262.684064 209.943208 
L 264.805989 197.231726 
L 266.927914 206.14421 
L 269.04984 201.543899 
L 271.171765 188.355964 
L 273.29369 206.351542 
L 275.415615 214.26053 
L 277.53754 220.633056 
L 279.659465 204.306466 
L 281.78139 219.522936 
L 283.903316 215.722015 
L 286.025241 201.560553 
L 288.147166 207.032055 
L 290.269091 209.002955 
L 292.391016 226.9785 
L 294.512941 213.739579 
L 296.634866 206.426395 
L 298.756791 263.390203 
L 300.878717 226.159098 
L 303.000642 216.38544 
L 305.122567 208.260019 
L 307.244492 223.808528 
L 309.366417 229.321471 
L 311.488342 234.092577 
L 313.610267 222.21273 
L 315.732193 206.693488 
L 317.854118 221.881809 
L 319.976043 224.712669 
L 322.097968 219.491991 
L 324.219893 220.433176 
L 326.341818 229.131974 
L 328.463743 240.454646 
L 330.585668 239.893185 
L 332.707594 226.916516 
L 334.829519 280.963526 
L 336.951444 227.245496 
L 339.073369 224.67829 
L 341.195294 211.613754 
L 343.317219 244.908834 
L 345.439144 211.523032 
L 347.56107 249.89301 
L 349.682995 208.583851 
L 351.80492 220.439338 
L 353.926845 225.109314 
L 356.04877 201.997001 
L 358.170695 231.774405 
L 360.29262 209.323905 
L 362.414545 203.671499 
L 364.536471 211.812992 
L 366.658396 216.032397 
L 368.780321 210.152769 
L 370.902246 216.094069 
L 373.024171 229.683737 
L 375.146096 211.355735 
L 377.268021 190.445753 
L 379.389947 199.467661 
L 381.511872 200.542543 
L 383.633797 217.987327 
L 385.755722 202.702446 
L 387.877647 211.512077 
L 389.999572 225.807749 
L 392.121497 258.853832 
L 394.243422 200.8097 
L 396.365348 218.227625 
L 398.487273 202.166656 
L 398.487273 202.166656 
" clip-path="url(#pc3c3fc9500)" style="fill: none; stroke: #f08080; stroke-opacity: 0.8; stroke-width: 0.5; stroke-linecap: square"/>
   </g>
   <g id="patch_3">
    <path d="M 57.6 307.584 
L 57.6 41.472 
" style="fill: none; stroke: #000000; stroke-width: 0.8; stroke-linejoin: miter; stroke-linecap: square"/>
   </g>
   <g id="patch_4">
    <path d="M 414.72 307.584 
L 414.72 41.472 
" style="fill: none; stroke: #000000; stroke-width: 0.8; stroke-linejoin: miter; stroke-linecap: square"/>
   </g>
   <g id="patch_5">
    <path d="M 57.6 307.584 
L 414.72 307.584 
" style="fill: none; stroke: #000000; stroke-width: 0.8; stroke-linejoin: miter; stroke-linecap: square"/>
   </g>
   <g id="patch_6">
    <path d="M 57.6 41.472 
L 414.72 41.472 
" style="fill: none; stroke: #000000; stroke-width: 0.8; stroke-linejoin: miter; stroke-linecap: square"/>
   </g>
   <g id="text_15">
    <!-- 1final_zhangext_aa_eurusd -->
    <g transform="translate(154.635 35.472) scale(0.12 -0.12)">
     <defs>
      <path id="DejaVuSans-66" d="M 2375 4863 
L 2375 4384 
L 1825 4384 
Q 1516 4384 1395 4259 
Q 1275 4134 1275 3809 
L 1275 3500 
L 2222 3500 
L 2222 3053 
L 1275 3053 
L 1275 0 
L 697 0 
L 697 3053 
L 147 3053 
L 147 3500 
L 697 3500 
L 697 3744 
Q 697 4328 969 4595 
Q 1241 4863 1831 4863 
L 2375 4863 
z
" transform="scale(0.015625)"/>
      <path id="DejaVuSans-69" d="M 603 3500 
L 1178 3500 
L 1178 0 
L 603 0 
L 603 3500 
z
M 603 4863 
L 1178 4863 
L 1178 4134 
L 603 4134 
L 603 4863 
z
" transform="scale(0.015625)"/>
      <path id="DejaVuSans-6e" d="M 3513 2113 
L 3513 0 
L 2938 0 
L 2938 2094 
Q 2938 2591 2744 2837 
Q 2550 3084 2163 3084 
Q 1697 3084 1428 2787 
Q 1159 2491 1159 1978 
L 1159 0 
L 581 0 
L 581 3500 
L 1159 3500 
L 1159 2956 
Q 1366 3272 1645 3428 
Q 1925 3584 2291 3584 
Q 2894 3584 3203 3211 
Q 3513 2838 3513 2113 
z
" transform="scale(0.015625)"/>
      <path id="DejaVuSans-61" d="M 2194 1759 
Q 1497 1759 1228 1600 
Q 959 1441 959 1056 
Q 959 750 1161 570 
Q 1363 391 1709 391 
Q 2188 391 2477 730 
Q 2766 1069 2766 1631 
L 2766 1759 
L 2194 1759 
z
M 3341 1997 
L 3341 0 
L 2766 0 
L 2766 531 
Q 2569 213 2275 61 
Q 1981 -91 1556 -91 
Q 1019 -91 701 211 
Q 384 513 384 1019 
Q 384 1609 779 1909 
Q 1175 2209 1959 2209 
L 2766 2209 
L 2766 2266 
Q 2766 2663 2505 2880 
Q 2244 3097 1772 3097 
Q 1472 3097 1187 3025 
Q 903 2953 641 2809 
L 641 3341 
Q 956 3463 1253 3523 
Q 1550 3584 1831 3584 
Q 2591 3584 2966 3190 
Q 3341 2797 3341 1997 
z
" transform="scale(0.015625)"/>
      <path id="DejaVuSans-6c" d="M 603 4863 
L 1178 4863 
L 1178 0 
L 603 0 
L 603 4863 
z
" transform="scale(0.015625)"/>
      <path id="DejaVuSans-5f" d="M 3263 -1063 
L 3263 -1509 
L -63 -1509 
L -63 -1063 
L 3263 -1063 
z
" transform="scale(0.015625)"/>
      <path id="DejaVuSans-7a" d="M 353 3500 
L 3084 3500 
L 3084 2975 
L 922 459 
L 3084 459 
L 3084 0 
L 275 0 
L 275 525 
L 2438 3041 
L 353 3041 
L 353 3500 
z
" transform="scale(0.015625)"/>
      <path id="DejaVuSans-68" d="M 3513 2113 
L 3513 0 
L 2938 0 
L 2938 2094 
Q 2938 2591 2744 2837 
Q 2550 3084 2163 3084 
Q 1697 3084 1428 2787 
Q 1159 2491 1159 1978 
L 1159 0 
L 581 0 
L 581 4863 
L 1159 4863 
L 1159 2956 
Q 1366 3272 1645 3428 
Q 1925 3584 2291 3584 
Q 2894 3584 3203 3211 
Q 3513 2838 3513 2113 
z
" transform="scale(0.015625)"/>
      <path id="DejaVuSans-67" d="M 2906 1791 
Q 2906 2416 2648 2759 
Q 2391 3103 1925 3103 
Q 1463 3103 1205 2759 
Q 947 2416 947 1791 
Q 947 1169 1205 825 
Q 1463 481 1925 481 
Q 2391 481 2648 825 
Q 2906 1169 2906 1791 
z
M 3481 434 
Q 3481 -459 3084 -895 
Q 2688 -1331 1869 -1331 
Q 1566 -1331 1297 -1286 
Q 1028 -1241 775 -1147 
L 775 -588 
Q 1028 -725 1275 -790 
Q 1522 -856 1778 -856 
Q 2344 -856 2625 -561 
Q 2906 -266 2906 331 
L 2906 616 
Q 2728 306 2450 153 
Q 2172 0 1784 0 
Q 1141 0 747 490 
Q 353 981 353 1791 
Q 353 2603 747 3093 
Q 1141 3584 1784 3584 
Q 2172 3584 2450 3431 
Q 2728 3278 2906 2969 
L 2906 3500 
L 3481 3500 
L 3481 434 
z
" transform="scale(0.015625)"/>
      <path id="DejaVuSans-65" d="M 3597 1894 
L 3597 1613 
L 953 1613 
Q 991 1019 1311 708 
Q 1631 397 2203 397 
Q 2534 397 2845 478 
Q 3156 559 3463 722 
L 3463 178 
Q 3153 47 2828 -22 
Q 2503 -91 2169 -91 
Q 1331 -91 842 396 
Q 353 884 353 1716 
Q 353 2575 817 3079 
Q 1281 3584 2069 3584 
Q 2775 3584 3186 3129 
Q 3597 2675 3597 1894 
z
M 3022 2063 
Q 3016 2534 2758 2815 
Q 2500 3097 2075 3097 
Q 1594 3097 1305 2825 
Q 1016 2553 972 2059 
L 3022 2063 
z
" transform="scale(0.015625)"/>
      <path id="DejaVuSans-78" d="M 3513 3500 
L 2247 1797 
L 3578 0 
L 2900 0 
L 1881 1375 
L 863 0 
L 184 0 
L 1544 1831 
L 300 3500 
L 978 3500 
L 1906 2253 
L 2834 3500 
L 3513 3500 
z
" transform="scale(0.015625)"/>
      <path id="DejaVuSans-74" d="M 1172 4494 
L 1172 3500 
L 2356 3500 
L 2356 3053 
L 1172 3053 
L 1172 1153 
Q 1172 725 1289 603 
Q 1406 481 1766 481 
L 2356 481 
L 2356 0 
L 1766 0 
Q 1100 0 847 248 
Q 594 497 594 1153 
L 594 3053 
L 172 3053 
L 172 3500 
L 594 3500 
L 594 4494 
L 1172 4494 
z
" transform="scale(0.015625)"/>
      <path id="DejaVuSans-75" d="M 544 1381 
L 544 3500 
L 1119 3500 
L 1119 1403 
Q 1119 906 1312 657 
Q 1506 409 1894 409 
Q 2359 409 2629 706 
Q 2900 1003 2900 1516 
L 2900 3500 
L 3475 3500 
L 3475 0 
L 2900 0 
L 2900 538 
Q 2691 219 2414 64 
Q 2138 -91 1772 -91 
Q 1169 -91 856 284 
Q 544 659 544 1381 
z
M 1991 3584 
L 1991 3584 
z
" transform="scale(0.015625)"/>
      <path id="DejaVuSans-72" d="M 2631 2963 
Q 2534 3019 2420 3045 
Q 2306 3072 2169 3072 
Q 1681 3072 1420 2755 
Q 1159 2438 1159 1844 
L 1159 0 
L 581 0 
L 581 3500 
L 1159 3500 
L 1159 2956 
Q 1341 3275 1631 3429 
Q 1922 3584 2338 3584 
Q 2397 3584 2469 3576 
Q 2541 3569 2628 3553 
L 2631 2963 
z
" transform="scale(0.015625)"/>
      <path id="DejaVuSans-73" d="M 2834 3397 
L 2834 2853 
Q 2591 2978 2328 3040 
Q 2066 3103 1784 3103 
Q 1356 3103 1142 2972 
Q 928 2841 928 2578 
Q 928 2378 1081 2264 
Q 1234 2150 1697 2047 
L 1894 2003 
Q 2506 1872 2764 1633 
Q 3022 1394 3022 966 
Q 3022 478 2636 193 
Q 2250 -91 1575 -91 
Q 1294 -91 989 -36 
Q 684 19 347 128 
L 347 722 
Q 666 556 975 473 
Q 1284 391 1588 391 
Q 1994 391 2212 530 
Q 2431 669 2431 922 
Q 2431 1156 2273 1281 
Q 2116 1406 1581 1522 
L 1381 1569 
Q 847 1681 609 1914 
Q 372 2147 372 2553 
Q 372 3047 722 3315 
Q 1072 3584 1716 3584 
Q 2034 3584 2315 3537 
Q 2597 3491 2834 3397 
z
" transform="scale(0.015625)"/>
      <path id="DejaVuSans-64" d="M 2906 2969 
L 2906 4863 
L 3481 4863 
L 3481 0 
L 2906 0 
L 2906 525 
Q 2725 213 2448 61 
Q 2172 -91 1784 -91 
Q 1150 -91 751 415 
Q 353 922 353 1747 
Q 353 2572 751 3078 
Q 1150 3584 1784 3584 
Q 2172 3584 2448 3432 
Q 2725 3281 2906 2969 
z
M 947 1747 
Q 947 1113 1208 752 
Q 1469 391 1925 391 
Q 2381 391 2643 752 
Q 2906 1113 2906 1747 
Q 2906 2381 2643 2742 
Q 2381 3103 1925 3103 
Q 1469 3103 1208 2742 
Q 947 2381 947 1747 
z
" transform="scale(0.015625)"/>
     </defs>
     <use xlink:href="#DejaVuSans-31"/>
     <use xlink:href="#DejaVuSans-66" x="63.623047"/>
     <use xlink:href="#DejaVuSans-69" x="98.828125"/>
     <use xlink:href="#DejaVuSans-6e" x="126.611328"/>
     <use xlink:href="#DejaVuSans-61" x="189.990234"/>
     <use xlink:href="#DejaVuSans-6c" x="251.269531"/>
     <use xlink:href="#DejaVuSans-5f" x="279.052734"/>
     <use xlink:href="#DejaVuSans-7a" x="329.052734"/>
     <use xlink:href="#DejaVuSans-68" x="381.542969"/>
     <use xlink:href="#DejaVuSans-61" x="444.921875"/>
     <use xlink:href="#DejaVuSans-6e" x="506.201172"/>
     <use xlink:href="#DejaVuSans-67" x="569.580078"/>
     <use xlink:href="#DejaVuSans-65" x="633.056641"/>
     <use xlink:href="#DejaVuSans-78" x="692.830078"/>
     <use xlink:href="#DejaVuSans-74" x="752.009766"/>
     <use xlink:href="#DejaVuSans-5f" x="791.21875"/>
     <use xlink:href="#DejaVuSans-61" x="841.21875"/>
     <use xlink:href="#DejaVuSans-61" x="902.498047"/>
     <use xlink:href="#DejaVuSans-5f" x="963.777344"/>
     <use xlink:href="#DejaVuSans-65" x="1013.777344"/>
     <use xlink:href="#DejaVuSans-75" x="1075.300781"/>
     <use xlink:href="#DejaVuSans-72" x="1138.679688"/>
     <use xlink:href="#DejaVuSans-75" x="1179.792969"/>
     <use xlink:href="#DejaVuSans-73" x="1243.171875"/>
     <use xlink:href="#DejaVuSans-64" x="1295.271484"/>
    </g>
   </g>
   <g id="legend_1">
    <g id="patch_7">
     <path d="M 64.6 137.54075 
L 225.001563 137.54075 
Q 227.001563 137.54075 227.001563 135.54075 
L 227.001563 48.472 
Q 227.001563 46.472 225.001563 46.472 
L 64.6 46.472 
Q 62.6 46.472 62.6 48.472 
L 62.6 135.54075 
Q 62.6 137.54075 64.6 137.54075 
z
" style="fill: #ffffff; opacity: 0.8; stroke: #cccccc; stroke-linejoin: miter"/>
    </g>
    <g id="line2d_21">
     <path d="M 66.6 54.570438 
L 76.6 54.570438 
L 86.6 54.570438 
" style="fill: none; stroke: #008000; stroke-opacity: 0.8; stroke-width: 0.5; stroke-linecap: square"/>
    </g>
    <g id="text_16">
     <!-- Positive predictions -->
     <g transform="translate(94.6 58.070438) scale(0.1 -0.1)">
      <defs>
       <path id="DejaVuSans-50" d="M 1259 4147 
L 1259 2394 
L 2053 2394 
Q 2494 2394 2734 2622 
Q 2975 2850 2975 3272 
Q 2975 3691 2734 3919 
Q 2494 4147 2053 4147 
L 1259 4147 
z
M 628 4666 
L 2053 4666 
Q 2838 4666 3239 4311 
Q 3641 3956 3641 3272 
Q 3641 2581 3239 2228 
Q 2838 1875 2053 1875 
L 1259 1875 
L 1259 0 
L 628 0 
L 628 4666 
z
" transform="scale(0.015625)"/>
       <path id="DejaVuSans-6f" d="M 1959 3097 
Q 1497 3097 1228 2736 
Q 959 2375 959 1747 
Q 959 1119 1226 758 
Q 1494 397 1959 397 
Q 2419 397 2687 759 
Q 2956 1122 2956 1747 
Q 2956 2369 2687 2733 
Q 2419 3097 1959 3097 
z
M 1959 3584 
Q 2709 3584 3137 3096 
Q 3566 2609 3566 1747 
Q 3566 888 3137 398 
Q 2709 -91 1959 -91 
Q 1206 -91 779 398 
Q 353 888 353 1747 
Q 353 2609 779 3096 
Q 1206 3584 1959 3584 
z
" transform="scale(0.015625)"/>
       <path id="DejaVuSans-76" d="M 191 3500 
L 800 3500 
L 1894 563 
L 2988 3500 
L 3597 3500 
L 2284 0 
L 1503 0 
L 191 3500 
z
" transform="scale(0.015625)"/>
       <path id="DejaVuSans-20" transform="scale(0.015625)"/>
       <path id="DejaVuSans-70" d="M 1159 525 
L 1159 -1331 
L 581 -1331 
L 581 3500 
L 1159 3500 
L 1159 2969 
Q 1341 3281 1617 3432 
Q 1894 3584 2278 3584 
Q 2916 3584 3314 3078 
Q 3713 2572 3713 1747 
Q 3713 922 3314 415 
Q 2916 -91 2278 -91 
Q 1894 -91 1617 61 
Q 1341 213 1159 525 
z
M 3116 1747 
Q 3116 2381 2855 2742 
Q 2594 3103 2138 3103 
Q 1681 3103 1420 2742 
Q 1159 2381 1159 1747 
Q 1159 1113 1420 752 
Q 1681 391 2138 391 
Q 2594 391 2855 752 
Q 3116 1113 3116 1747 
z
" transform="scale(0.015625)"/>
       <path id="DejaVuSans-63" d="M 3122 3366 
L 3122 2828 
Q 2878 2963 2633 3030 
Q 2388 3097 2138 3097 
Q 1578 3097 1268 2742 
Q 959 2388 959 1747 
Q 959 1106 1268 751 
Q 1578 397 2138 397 
Q 2388 397 2633 464 
Q 2878 531 3122 666 
L 3122 134 
Q 2881 22 2623 -34 
Q 2366 -91 2075 -91 
Q 1284 -91 818 406 
Q 353 903 353 1747 
Q 353 2603 823 3093 
Q 1294 3584 2113 3584 
Q 2378 3584 2631 3529 
Q 2884 3475 3122 3366 
z
" transform="scale(0.015625)"/>
      </defs>
      <use xlink:href="#DejaVuSans-50"/>
      <use xlink:href="#DejaVuSans-6f" x="56.677734"/>
      <use xlink:href="#DejaVuSans-73" x="117.859375"/>
      <use xlink:href="#DejaVuSans-69" x="169.958984"/>
      <use xlink:href="#DejaVuSans-74" x="197.742188"/>
      <use xlink:href="#DejaVuSans-69" x="236.951172"/>
      <use xlink:href="#DejaVuSans-76" x="264.734375"/>
      <use xlink:href="#DejaVuSans-65" x="323.914062"/>
      <use xlink:href="#DejaVuSans-20" x="385.4375"/>
      <use xlink:href="#DejaVuSans-70" x="417.224609"/>
      <use xlink:href="#DejaVuSans-72" x="480.701172"/>
      <use xlink:href="#DejaVuSans-65" x="519.564453"/>
      <use xlink:href="#DejaVuSans-64" x="581.087891"/>
      <use xlink:href="#DejaVuSans-69" x="644.564453"/>
      <use xlink:href="#DejaVuSans-63" x="672.347656"/>
      <use xlink:href="#DejaVuSans-74" x="727.328125"/>
      <use xlink:href="#DejaVuSans-69" x="766.537109"/>
      <use xlink:href="#DejaVuSans-6f" x="794.320312"/>
      <use xlink:href="#DejaVuSans-6e" x="855.501953"/>
      <use xlink:href="#DejaVuSans-73" x="918.880859"/>
     </g>
    </g>
    <g id="line2d_22">
     <path d="M 66.6 69.248563 
L 76.6 69.248563 
L 86.6 69.248563 
" style="fill: none; stroke: #32cd32; stroke-opacity: 0.8; stroke-width: 0.5; stroke-linecap: square"/>
    </g>
    <g id="text_17">
     <!-- Positive predictions max -->
     <g transform="translate(94.6 72.748563) scale(0.1 -0.1)">
      <defs>
       <path id="DejaVuSans-6d" d="M 3328 2828 
Q 3544 3216 3844 3400 
Q 4144 3584 4550 3584 
Q 5097 3584 5394 3201 
Q 5691 2819 5691 2113 
L 5691 0 
L 5113 0 
L 5113 2094 
Q 5113 2597 4934 2840 
Q 4756 3084 4391 3084 
Q 3944 3084 3684 2787 
Q 3425 2491 3425 1978 
L 3425 0 
L 2847 0 
L 2847 2094 
Q 2847 2600 2669 2842 
Q 2491 3084 2119 3084 
Q 1678 3084 1418 2786 
Q 1159 2488 1159 1978 
L 1159 0 
L 581 0 
L 581 3500 
L 1159 3500 
L 1159 2956 
Q 1356 3278 1631 3431 
Q 1906 3584 2284 3584 
Q 2666 3584 2933 3390 
Q 3200 3197 3328 2828 
z
" transform="scale(0.015625)"/>
      </defs>
      <use xlink:href="#DejaVuSans-50"/>
      <use xlink:href="#DejaVuSans-6f" x="56.677734"/>
      <use xlink:href="#DejaVuSans-73" x="117.859375"/>
      <use xlink:href="#DejaVuSans-69" x="169.958984"/>
      <use xlink:href="#DejaVuSans-74" x="197.742188"/>
      <use xlink:href="#DejaVuSans-69" x="236.951172"/>
      <use xlink:href="#DejaVuSans-76" x="264.734375"/>
      <use xlink:href="#DejaVuSans-65" x="323.914062"/>
      <use xlink:href="#DejaVuSans-20" x="385.4375"/>
      <use xlink:href="#DejaVuSans-70" x="417.224609"/>
      <use xlink:href="#DejaVuSans-72" x="480.701172"/>
      <use xlink:href="#DejaVuSans-65" x="519.564453"/>
      <use xlink:href="#DejaVuSans-64" x="581.087891"/>
      <use xlink:href="#DejaVuSans-69" x="644.564453"/>
      <use xlink:href="#DejaVuSans-63" x="672.347656"/>
      <use xlink:href="#DejaVuSans-74" x="727.328125"/>
      <use xlink:href="#DejaVuSans-69" x="766.537109"/>
      <use xlink:href="#DejaVuSans-6f" x="794.320312"/>
      <use xlink:href="#DejaVuSans-6e" x="855.501953"/>
      <use xlink:href="#DejaVuSans-73" x="918.880859"/>
      <use xlink:href="#DejaVuSans-20" x="970.980469"/>
      <use xlink:href="#DejaVuSans-6d" x="1002.767578"/>
      <use xlink:href="#DejaVuSans-61" x="1100.179688"/>
      <use xlink:href="#DejaVuSans-78" x="1161.458984"/>
     </g>
    </g>
    <g id="line2d_23">
     <path d="M 66.6 83.926688 
L 76.6 83.926688 
L 86.6 83.926688 
" style="fill: none; stroke: #32cd32; stroke-opacity: 0.8; stroke-width: 0.5; stroke-linecap: square"/>
    </g>
    <g id="text_18">
     <!-- Positive predictions min -->
     <g transform="translate(94.6 87.426688) scale(0.1 -0.1)">
      <use xlink:href="#DejaVuSans-50"/>
      <use xlink:href="#DejaVuSans-6f" x="56.677734"/>
      <use xlink:href="#DejaVuSans-73" x="117.859375"/>
      <use xlink:href="#DejaVuSans-69" x="169.958984"/>
      <use xlink:href="#DejaVuSans-74" x="197.742188"/>
      <use xlink:href="#DejaVuSans-69" x="236.951172"/>
      <use xlink:href="#DejaVuSans-76" x="264.734375"/>
      <use xlink:href="#DejaVuSans-65" x="323.914062"/>
      <use xlink:href="#DejaVuSans-20" x="385.4375"/>
      <use xlink:href="#DejaVuSans-70" x="417.224609"/>
      <use xlink:href="#DejaVuSans-72" x="480.701172"/>
      <use xlink:href="#DejaVuSans-65" x="519.564453"/>
      <use xlink:href="#DejaVuSans-64" x="581.087891"/>
      <use xlink:href="#DejaVuSans-69" x="644.564453"/>
      <use xlink:href="#DejaVuSans-63" x="672.347656"/>
      <use xlink:href="#DejaVuSans-74" x="727.328125"/>
      <use xlink:href="#DejaVuSans-69" x="766.537109"/>
      <use xlink:href="#DejaVuSans-6f" x="794.320312"/>
      <use xlink:href="#DejaVuSans-6e" x="855.501953"/>
      <use xlink:href="#DejaVuSans-73" x="918.880859"/>
      <use xlink:href="#DejaVuSans-20" x="970.980469"/>
      <use xlink:href="#DejaVuSans-6d" x="1002.767578"/>
      <use xlink:href="#DejaVuSans-69" x="1100.179688"/>
      <use xlink:href="#DejaVuSans-6e" x="1127.962891"/>
     </g>
    </g>
    <g id="line2d_24">
     <path d="M 66.6 98.604813 
L 76.6 98.604813 
L 86.6 98.604813 
" style="fill: none; stroke: #ff0000; stroke-opacity: 0.8; stroke-width: 0.5; stroke-linecap: square"/>
    </g>
    <g id="text_19">
     <!-- Negative predictions -->
     <g transform="translate(94.6 102.104813) scale(0.1 -0.1)">
      <defs>
       <path id="DejaVuSans-4e" d="M 628 4666 
L 1478 4666 
L 3547 763 
L 3547 4666 
L 4159 4666 
L 4159 0 
L 3309 0 
L 1241 3903 
L 1241 0 
L 628 0 
L 628 4666 
z
" transform="scale(0.015625)"/>
      </defs>
      <use xlink:href="#DejaVuSans-4e"/>
      <use xlink:href="#DejaVuSans-65" x="74.804688"/>
      <use xlink:href="#DejaVuSans-67" x="136.328125"/>
      <use xlink:href="#DejaVuSans-61" x="199.804688"/>
      <use xlink:href="#DejaVuSans-74" x="261.083984"/>
      <use xlink:href="#DejaVuSans-69" x="300.292969"/>
      <use xlink:href="#DejaVuSans-76" x="328.076172"/>
      <use xlink:href="#DejaVuSans-65" x="387.255859"/>
      <use xlink:href="#DejaVuSans-20" x="448.779297"/>
      <use xlink:href="#DejaVuSans-70" x="480.566406"/>
      <use xlink:href="#DejaVuSans-72" x="544.042969"/>
      <use xlink:href="#DejaVuSans-65" x="582.90625"/>
      <use xlink:href="#DejaVuSans-64" x="644.429688"/>
      <use xlink:href="#DejaVuSans-69" x="707.90625"/>
      <use xlink:href="#DejaVuSans-63" x="735.689453"/>
      <use xlink:href="#DejaVuSans-74" x="790.669922"/>
      <use xlink:href="#DejaVuSans-69" x="829.878906"/>
      <use xlink:href="#DejaVuSans-6f" x="857.662109"/>
      <use xlink:href="#DejaVuSans-6e" x="918.84375"/>
      <use xlink:href="#DejaVuSans-73" x="982.222656"/>
     </g>
    </g>
    <g id="line2d_25">
     <path d="M 66.6 113.282938 
L 76.6 113.282938 
L 86.6 113.282938 
" style="fill: none; stroke: #f08080; stroke-opacity: 0.8; stroke-width: 0.5; stroke-linecap: square"/>
    </g>
    <g id="text_20">
     <!-- Negative predictions max -->
     <g transform="translate(94.6 116.782938) scale(0.1 -0.1)">
      <use xlink:href="#DejaVuSans-4e"/>
      <use xlink:href="#DejaVuSans-65" x="74.804688"/>
      <use xlink:href="#DejaVuSans-67" x="136.328125"/>
      <use xlink:href="#DejaVuSans-61" x="199.804688"/>
      <use xlink:href="#DejaVuSans-74" x="261.083984"/>
      <use xlink:href="#DejaVuSans-69" x="300.292969"/>
      <use xlink:href="#DejaVuSans-76" x="328.076172"/>
      <use xlink:href="#DejaVuSans-65" x="387.255859"/>
      <use xlink:href="#DejaVuSans-20" x="448.779297"/>
      <use xlink:href="#DejaVuSans-70" x="480.566406"/>
      <use xlink:href="#DejaVuSans-72" x="544.042969"/>
      <use xlink:href="#DejaVuSans-65" x="582.90625"/>
      <use xlink:href="#DejaVuSans-64" x="644.429688"/>
      <use xlink:href="#DejaVuSans-69" x="707.90625"/>
      <use xlink:href="#DejaVuSans-63" x="735.689453"/>
      <use xlink:href="#DejaVuSans-74" x="790.669922"/>
      <use xlink:href="#DejaVuSans-69" x="829.878906"/>
      <use xlink:href="#DejaVuSans-6f" x="857.662109"/>
      <use xlink:href="#DejaVuSans-6e" x="918.84375"/>
      <use xlink:href="#DejaVuSans-73" x="982.222656"/>
      <use xlink:href="#DejaVuSans-20" x="1034.322266"/>
      <use xlink:href="#DejaVuSans-6d" x="1066.109375"/>
      <use xlink:href="#DejaVuSans-61" x="1163.521484"/>
      <use xlink:href="#DejaVuSans-78" x="1224.800781"/>
     </g>
    </g>
    <g id="line2d_26">
     <path d="M 66.6 127.961063 
L 76.6 127.961063 
L 86.6 127.961063 
" style="fill: none; stroke: #f08080; stroke-opacity: 0.8; stroke-width: 0.5; stroke-linecap: square"/>
    </g>
    <g id="text_21">
     <!-- Negative predictions min -->
     <g transform="translate(94.6 131.461063) scale(0.1 -0.1)">
      <use xlink:href="#DejaVuSans-4e"/>
      <use xlink:href="#DejaVuSans-65" x="74.804688"/>
      <use xlink:href="#DejaVuSans-67" x="136.328125"/>
      <use xlink:href="#DejaVuSans-61" x="199.804688"/>
      <use xlink:href="#DejaVuSans-74" x="261.083984"/>
      <use xlink:href="#DejaVuSans-69" x="300.292969"/>
      <use xlink:href="#DejaVuSans-76" x="328.076172"/>
      <use xlink:href="#DejaVuSans-65" x="387.255859"/>
      <use xlink:href="#DejaVuSans-20" x="448.779297"/>
      <use xlink:href="#DejaVuSans-70" x="480.566406"/>
      <use xlink:href="#DejaVuSans-72" x="544.042969"/>
      <use xlink:href="#DejaVuSans-65" x="582.90625"/>
      <use xlink:href="#DejaVuSans-64" x="644.429688"/>
      <use xlink:href="#DejaVuSans-69" x="707.90625"/>
      <use xlink:href="#DejaVuSans-63" x="735.689453"/>
      <use xlink:href="#DejaVuSans-74" x="790.669922"/>
      <use xlink:href="#DejaVuSans-69" x="829.878906"/>
      <use xlink:href="#DejaVuSans-6f" x="857.662109"/>
      <use xlink:href="#DejaVuSans-6e" x="918.84375"/>
      <use xlink:href="#DejaVuSans-73" x="982.222656"/>
      <use xlink:href="#DejaVuSans-20" x="1034.322266"/>
      <use xlink:href="#DejaVuSans-6d" x="1066.109375"/>
      <use xlink:href="#DejaVuSans-69" x="1163.521484"/>
      <use xlink:href="#DejaVuSans-6e" x="1191.304688"/>
     </g>
    </g>
   </g>
  </g>
 </g>
 <defs>
  <clipPath id="pc3c3fc9500">
   <rect x="57.6" y="41.472" width="357.12" height="266.112"/>
  </clipPath>
 </defs>
</svg>
