<?xml version="1.0" encoding="utf-8" standalone="no"?>
<!DOCTYPE svg PUBLIC "-//W3C//DTD SVG 1.1//EN"
  "http://www.w3.org/Graphics/SVG/1.1/DTD/svg11.dtd">
<svg xmlns:xlink="http://www.w3.org/1999/xlink" width="460.8pt" height="345.6pt" viewBox="0 0 460.8 345.6" xmlns="http://www.w3.org/2000/svg" version="1.1">
 <metadata>
  <rdf:RDF xmlns:dc="http://purl.org/dc/elements/1.1/" xmlns:cc="http://creativecommons.org/ns#" xmlns:rdf="http://www.w3.org/1999/02/22-rdf-syntax-ns#">
   <cc:Work>
    <dc:type rdf:resource="http://purl.org/dc/dcmitype/StillImage"/>
    <dc:date>2024-09-04T10:24:31.939259</dc:date>
    <dc:format>image/svg+xml</dc:format>
    <dc:creator>
     <cc:Agent>
      <dc:title>Matplotlib v3.9.0, https://matplotlib.org/</dc:title>
     </cc:Agent>
    </dc:creator>
   </cc:Work>
  </rdf:RDF>
 </metadata>
 <defs>
  <style type="text/css">*{stroke-linejoin: round; stroke-linecap: butt}</style>
 </defs>
 <g id="figure_1">
  <g id="patch_1">
   <path d="M 0 345.6 
L 460.8 345.6 
L 460.8 0 
L 0 0 
z
" style="fill: #ffffff"/>
  </g>
  <g id="axes_1">
   <g id="patch_2">
    <path d="M 57.6 307.584 
L 414.72 307.584 
L 414.72 41.472 
L 57.6 41.472 
z
" style="fill: #ffffff"/>
   </g>
   <g id="matplotlib.axis_1">
    <g id="xtick_1">
     <g id="line2d_1">
      <defs>
       <path id="m6167001b5e" d="M 0 0 
L 0 3.5 
" style="stroke: #000000; stroke-width: 0.8"/>
      </defs>
      <g>
       <use xlink:href="#m6167001b5e" x="73.832727" y="307.584" style="stroke: #000000; stroke-width: 0.8"/>
      </g>
     </g>
     <g id="text_1">
      <!-- 0 -->
      <g transform="translate(70.651477 322.182437) scale(0.1 -0.1)">
       <defs>
        <path id="DejaVuSans-30" d="M 2034 4250 
Q 1547 4250 1301 3770 
Q 1056 3291 1056 2328 
Q 1056 1369 1301 889 
Q 1547 409 2034 409 
Q 2525 409 2770 889 
Q 3016 1369 3016 2328 
Q 3016 3291 2770 3770 
Q 2525 4250 2034 4250 
z
M 2034 4750 
Q 2819 4750 3233 4129 
Q 3647 3509 3647 2328 
Q 3647 1150 3233 529 
Q 2819 -91 2034 -91 
Q 1250 -91 836 529 
Q 422 1150 422 2328 
Q 422 3509 836 4129 
Q 1250 4750 2034 4750 
z
" transform="scale(0.015625)"/>
       </defs>
       <use xlink:href="#DejaVuSans-30"/>
      </g>
     </g>
    </g>
    <g id="xtick_2">
     <g id="line2d_2">
      <g>
       <use xlink:href="#m6167001b5e" x="149.333784" y="307.584" style="stroke: #000000; stroke-width: 0.8"/>
      </g>
     </g>
     <g id="text_2">
      <!-- 50 -->
      <g transform="translate(142.971284 322.182437) scale(0.1 -0.1)">
       <defs>
        <path id="DejaVuSans-35" d="M 691 4666 
L 3169 4666 
L 3169 4134 
L 1269 4134 
L 1269 2991 
Q 1406 3038 1543 3061 
Q 1681 3084 1819 3084 
Q 2600 3084 3056 2656 
Q 3513 2228 3513 1497 
Q 3513 744 3044 326 
Q 2575 -91 1722 -91 
Q 1428 -91 1123 -41 
Q 819 9 494 109 
L 494 744 
Q 775 591 1075 516 
Q 1375 441 1709 441 
Q 2250 441 2565 725 
Q 2881 1009 2881 1497 
Q 2881 1984 2565 2268 
Q 2250 2553 1709 2553 
Q 1456 2553 1204 2497 
Q 953 2441 691 2322 
L 691 4666 
z
" transform="scale(0.015625)"/>
       </defs>
       <use xlink:href="#DejaVuSans-35"/>
       <use xlink:href="#DejaVuSans-30" x="63.623047"/>
      </g>
     </g>
    </g>
    <g id="xtick_3">
     <g id="line2d_3">
      <g>
       <use xlink:href="#m6167001b5e" x="224.834841" y="307.584" style="stroke: #000000; stroke-width: 0.8"/>
      </g>
     </g>
     <g id="text_3">
      <!-- 100 -->
      <g transform="translate(215.291091 322.182437) scale(0.1 -0.1)">
       <defs>
        <path id="DejaVuSans-31" d="M 794 531 
L 1825 531 
L 1825 4091 
L 703 3866 
L 703 4441 
L 1819 4666 
L 2450 4666 
L 2450 531 
L 3481 531 
L 3481 0 
L 794 0 
L 794 531 
z
" transform="scale(0.015625)"/>
       </defs>
       <use xlink:href="#DejaVuSans-31"/>
       <use xlink:href="#DejaVuSans-30" x="63.623047"/>
       <use xlink:href="#DejaVuSans-30" x="127.246094"/>
      </g>
     </g>
    </g>
    <g id="xtick_4">
     <g id="line2d_4">
      <g>
       <use xlink:href="#m6167001b5e" x="300.335899" y="307.584" style="stroke: #000000; stroke-width: 0.8"/>
      </g>
     </g>
     <g id="text_4">
      <!-- 150 -->
      <g transform="translate(290.792149 322.182437) scale(0.1 -0.1)">
       <use xlink:href="#DejaVuSans-31"/>
       <use xlink:href="#DejaVuSans-35" x="63.623047"/>
       <use xlink:href="#DejaVuSans-30" x="127.246094"/>
      </g>
     </g>
    </g>
    <g id="xtick_5">
     <g id="line2d_5">
      <g>
       <use xlink:href="#m6167001b5e" x="375.836956" y="307.584" style="stroke: #000000; stroke-width: 0.8"/>
      </g>
     </g>
     <g id="text_5">
      <!-- 200 -->
      <g transform="translate(366.293206 322.182437) scale(0.1 -0.1)">
       <defs>
        <path id="DejaVuSans-32" d="M 1228 531 
L 3431 531 
L 3431 0 
L 469 0 
L 469 531 
Q 828 903 1448 1529 
Q 2069 2156 2228 2338 
Q 2531 2678 2651 2914 
Q 2772 3150 2772 3378 
Q 2772 3750 2511 3984 
Q 2250 4219 1831 4219 
Q 1534 4219 1204 4116 
Q 875 4013 500 3803 
L 500 4441 
Q 881 4594 1212 4672 
Q 1544 4750 1819 4750 
Q 2544 4750 2975 4387 
Q 3406 4025 3406 3419 
Q 3406 3131 3298 2873 
Q 3191 2616 2906 2266 
Q 2828 2175 2409 1742 
Q 1991 1309 1228 531 
z
" transform="scale(0.015625)"/>
       </defs>
       <use xlink:href="#DejaVuSans-32"/>
       <use xlink:href="#DejaVuSans-30" x="63.623047"/>
       <use xlink:href="#DejaVuSans-30" x="127.246094"/>
      </g>
     </g>
    </g>
   </g>
   <g id="matplotlib.axis_2">
    <g id="ytick_1">
     <g id="line2d_6">
      <defs>
       <path id="me83b30e983" d="M 0 0 
L -3.5 0 
" style="stroke: #000000; stroke-width: 0.8"/>
      </defs>
      <g>
       <use xlink:href="#me83b30e983" x="57.6" y="294.57162" style="stroke: #000000; stroke-width: 0.8"/>
      </g>
     </g>
     <g id="text_6">
      <!-- 5000 -->
      <g transform="translate(25.15 298.370838) scale(0.1 -0.1)">
       <use xlink:href="#DejaVuSans-35"/>
       <use xlink:href="#DejaVuSans-30" x="63.623047"/>
       <use xlink:href="#DejaVuSans-30" x="127.246094"/>
       <use xlink:href="#DejaVuSans-30" x="190.869141"/>
      </g>
     </g>
    </g>
    <g id="ytick_2">
     <g id="line2d_7">
      <g>
       <use xlink:href="#me83b30e983" x="57.6" y="262.902287" style="stroke: #000000; stroke-width: 0.8"/>
      </g>
     </g>
     <g id="text_7">
      <!-- 5500 -->
      <g transform="translate(25.15 266.701506) scale(0.1 -0.1)">
       <use xlink:href="#DejaVuSans-35"/>
       <use xlink:href="#DejaVuSans-35" x="63.623047"/>
       <use xlink:href="#DejaVuSans-30" x="127.246094"/>
       <use xlink:href="#DejaVuSans-30" x="190.869141"/>
      </g>
     </g>
    </g>
    <g id="ytick_3">
     <g id="line2d_8">
      <g>
       <use xlink:href="#me83b30e983" x="57.6" y="231.232955" style="stroke: #000000; stroke-width: 0.8"/>
      </g>
     </g>
     <g id="text_8">
      <!-- 6000 -->
      <g transform="translate(25.15 235.032174) scale(0.1 -0.1)">
       <defs>
        <path id="DejaVuSans-36" d="M 2113 2584 
Q 1688 2584 1439 2293 
Q 1191 2003 1191 1497 
Q 1191 994 1439 701 
Q 1688 409 2113 409 
Q 2538 409 2786 701 
Q 3034 994 3034 1497 
Q 3034 2003 2786 2293 
Q 2538 2584 2113 2584 
z
M 3366 4563 
L 3366 3988 
Q 3128 4100 2886 4159 
Q 2644 4219 2406 4219 
Q 1781 4219 1451 3797 
Q 1122 3375 1075 2522 
Q 1259 2794 1537 2939 
Q 1816 3084 2150 3084 
Q 2853 3084 3261 2657 
Q 3669 2231 3669 1497 
Q 3669 778 3244 343 
Q 2819 -91 2113 -91 
Q 1303 -91 875 529 
Q 447 1150 447 2328 
Q 447 3434 972 4092 
Q 1497 4750 2381 4750 
Q 2619 4750 2861 4703 
Q 3103 4656 3366 4563 
z
" transform="scale(0.015625)"/>
       </defs>
       <use xlink:href="#DejaVuSans-36"/>
       <use xlink:href="#DejaVuSans-30" x="63.623047"/>
       <use xlink:href="#DejaVuSans-30" x="127.246094"/>
       <use xlink:href="#DejaVuSans-30" x="190.869141"/>
      </g>
     </g>
    </g>
    <g id="ytick_4">
     <g id="line2d_9">
      <g>
       <use xlink:href="#me83b30e983" x="57.6" y="199.563622" style="stroke: #000000; stroke-width: 0.8"/>
      </g>
     </g>
     <g id="text_9">
      <!-- 6500 -->
      <g transform="translate(25.15 203.362841) scale(0.1 -0.1)">
       <use xlink:href="#DejaVuSans-36"/>
       <use xlink:href="#DejaVuSans-35" x="63.623047"/>
       <use xlink:href="#DejaVuSans-30" x="127.246094"/>
       <use xlink:href="#DejaVuSans-30" x="190.869141"/>
      </g>
     </g>
    </g>
    <g id="ytick_5">
     <g id="line2d_10">
      <g>
       <use xlink:href="#me83b30e983" x="57.6" y="167.89429" style="stroke: #000000; stroke-width: 0.8"/>
      </g>
     </g>
     <g id="text_10">
      <!-- 7000 -->
      <g transform="translate(25.15 171.693509) scale(0.1 -0.1)">
       <defs>
        <path id="DejaVuSans-37" d="M 525 4666 
L 3525 4666 
L 3525 4397 
L 1831 0 
L 1172 0 
L 2766 4134 
L 525 4134 
L 525 4666 
z
" transform="scale(0.015625)"/>
       </defs>
       <use xlink:href="#DejaVuSans-37"/>
       <use xlink:href="#DejaVuSans-30" x="63.623047"/>
       <use xlink:href="#DejaVuSans-30" x="127.246094"/>
       <use xlink:href="#DejaVuSans-30" x="190.869141"/>
      </g>
     </g>
    </g>
    <g id="ytick_6">
     <g id="line2d_11">
      <g>
       <use xlink:href="#me83b30e983" x="57.6" y="136.224958" style="stroke: #000000; stroke-width: 0.8"/>
      </g>
     </g>
     <g id="text_11">
      <!-- 7500 -->
      <g transform="translate(25.15 140.024176) scale(0.1 -0.1)">
       <use xlink:href="#DejaVuSans-37"/>
       <use xlink:href="#DejaVuSans-35" x="63.623047"/>
       <use xlink:href="#DejaVuSans-30" x="127.246094"/>
       <use xlink:href="#DejaVuSans-30" x="190.869141"/>
      </g>
     </g>
    </g>
    <g id="ytick_7">
     <g id="line2d_12">
      <g>
       <use xlink:href="#me83b30e983" x="57.6" y="104.555625" style="stroke: #000000; stroke-width: 0.8"/>
      </g>
     </g>
     <g id="text_12">
      <!-- 8000 -->
      <g transform="translate(25.15 108.354844) scale(0.1 -0.1)">
       <defs>
        <path id="DejaVuSans-38" d="M 2034 2216 
Q 1584 2216 1326 1975 
Q 1069 1734 1069 1313 
Q 1069 891 1326 650 
Q 1584 409 2034 409 
Q 2484 409 2743 651 
Q 3003 894 3003 1313 
Q 3003 1734 2745 1975 
Q 2488 2216 2034 2216 
z
M 1403 2484 
Q 997 2584 770 2862 
Q 544 3141 544 3541 
Q 544 4100 942 4425 
Q 1341 4750 2034 4750 
Q 2731 4750 3128 4425 
Q 3525 4100 3525 3541 
Q 3525 3141 3298 2862 
Q 3072 2584 2669 2484 
Q 3125 2378 3379 2068 
Q 3634 1759 3634 1313 
Q 3634 634 3220 271 
Q 2806 -91 2034 -91 
Q 1263 -91 848 271 
Q 434 634 434 1313 
Q 434 1759 690 2068 
Q 947 2378 1403 2484 
z
M 1172 3481 
Q 1172 3119 1398 2916 
Q 1625 2713 2034 2713 
Q 2441 2713 2670 2916 
Q 2900 3119 2900 3481 
Q 2900 3844 2670 4047 
Q 2441 4250 2034 4250 
Q 1625 4250 1398 4047 
Q 1172 3844 1172 3481 
z
" transform="scale(0.015625)"/>
       </defs>
       <use xlink:href="#DejaVuSans-38"/>
       <use xlink:href="#DejaVuSans-30" x="63.623047"/>
       <use xlink:href="#DejaVuSans-30" x="127.246094"/>
       <use xlink:href="#DejaVuSans-30" x="190.869141"/>
      </g>
     </g>
    </g>
    <g id="ytick_8">
     <g id="line2d_13">
      <g>
       <use xlink:href="#me83b30e983" x="57.6" y="72.886293" style="stroke: #000000; stroke-width: 0.8"/>
      </g>
     </g>
     <g id="text_13">
      <!-- 8500 -->
      <g transform="translate(25.15 76.685512) scale(0.1 -0.1)">
       <use xlink:href="#DejaVuSans-38"/>
       <use xlink:href="#DejaVuSans-35" x="63.623047"/>
       <use xlink:href="#DejaVuSans-30" x="127.246094"/>
       <use xlink:href="#DejaVuSans-30" x="190.869141"/>
      </g>
     </g>
    </g>
   </g>
   <g id="line2d_14">
    <path d="M 73.832727 295.488 
L 75.342748 294.198034 
L 76.85277 291.347127 
L 79.872812 290.311184 
L 81.382833 290.064597 
L 82.892854 290.186935 
L 84.402875 289.441207 
L 85.912896 289.762508 
L 87.422918 286.875962 
L 88.932939 282.52719 
L 90.44296 275.756644 
L 93.463002 277.249165 
L 94.973023 279.214819 
L 96.483044 277.419319 
L 97.993066 276.969287 
L 99.503087 276.067588 
L 101.013108 273.769803 
L 102.523129 272.038984 
L 104.03315 269.629459 
L 105.543171 269.190296 
L 107.053192 267.601365 
L 108.563214 267.904471 
L 110.073235 267.919577 
L 111.583256 268.045988 
L 113.093277 266.976934 
L 114.603298 266.133181 
L 116.113319 266.353988 
L 117.62334 266.344435 
L 119.133362 266.46417 
L 120.643383 266.212117 
L 122.153404 266.21385 
L 123.663425 266.997913 
L 125.173446 267.283127 
L 126.683467 267.168254 
L 128.193488 267.247004 
L 129.70351 263.103337 
L 131.213531 261.671415 
L 132.723552 263.065618 
L 134.233573 261.585423 
L 135.743594 261.118334 
L 137.253615 260.872262 
L 138.763636 261.058034 
L 140.273658 260.432968 
L 141.783679 260.14927 
L 143.2937 259.222018 
L 147.823763 254.655253 
L 149.333784 252.191489 
L 150.843805 250.118548 
L 152.353827 247.668496 
L 153.863848 246.474934 
L 155.373869 246.507363 
L 156.88389 245.103534 
L 158.393911 245.034724 
L 159.903932 245.832207 
L 161.413953 242.968822 
L 162.923975 240.379761 
L 164.433996 238.932784 
L 165.944017 238.961365 
L 167.454038 239.688051 
L 168.964059 240.264979 
L 170.47408 240.65089 
L 171.984101 241.540982 
L 173.494123 239.816798 
L 175.004144 240.483615 
L 176.514165 238.682122 
L 178.024186 238.78456 
L 179.534207 238.248405 
L 181.044228 238.527064 
L 182.554249 237.462408 
L 184.064271 235.527444 
L 185.574292 235.105464 
L 187.084313 232.645189 
L 188.594334 231.118674 
L 190.104355 230.67111 
L 191.614376 231.146251 
L 193.124397 230.596557 
L 194.634419 231.39844 
L 196.14444 232.014159 
L 197.654461 230.177042 
L 199.164482 230.518205 
L 202.184524 225.372738 
L 203.694545 224.536619 
L 205.204567 221.963071 
L 206.714588 221.757613 
L 208.224609 222.405144 
L 209.73463 222.710297 
L 211.244651 222.624533 
L 212.754672 220.212709 
L 214.264693 217.327215 
L 215.774715 217.622508 
L 217.284736 215.497249 
L 218.794757 215.266822 
L 220.304778 216.31279 
L 221.814799 215.953327 
L 223.32482 216.901892 
L 224.834841 214.000137 
L 226.344863 213.70964 
L 227.854884 212.534878 
L 229.364905 212.892027 
L 230.874926 213.727142 
L 233.894968 212.752602 
L 235.404989 212.697834 
L 236.915011 210.345373 
L 238.425032 204.034418 
L 239.935053 205.544155 
L 241.445074 205.639739 
L 242.955095 205.349353 
L 244.465116 204.489736 
L 245.975137 206.253352 
L 247.485159 200.62523 
L 248.99518 200.932663 
L 250.505201 198.269617 
L 252.015222 200.171087 
L 253.525243 197.789326 
L 255.035264 196.474778 
L 256.545285 191.314566 
L 258.055307 192.572179 
L 259.565328 193.072913 
L 261.075349 194.041072 
L 262.58537 194.171919 
L 264.095391 195.489278 
L 265.605412 194.006086 
L 267.115433 189.443928 
L 268.625455 190.832451 
L 271.645497 189.986595 
L 273.155518 186.039292 
L 274.665539 186.182769 
L 276.17556 183.585209 
L 277.685581 183.247318 
L 279.195603 181.189778 
L 280.705624 179.693187 
L 282.215645 180.866199 
L 283.725666 177.743892 
L 285.235687 175.304725 
L 286.745708 168.490895 
L 288.255729 164.705528 
L 291.275772 158.947083 
L 292.785793 158.719009 
L 294.295814 154.148362 
L 295.805835 146.415746 
L 298.825877 147.165955 
L 300.335899 147.435379 
L 301.84592 148.643214 
L 303.355941 148.906394 
L 304.865962 147.817877 
L 306.375983 144.137515 
L 307.886004 141.061095 
L 309.396025 140.282769 
L 310.906047 140.083275 
L 313.926089 131.840024 
L 315.43611 130.888167 
L 316.946131 126.03112 
L 319.966173 125.0681 
L 321.476195 122.899356 
L 322.986216 123.00485 
L 324.496237 122.766541 
L 326.006258 123.495499 
L 327.516279 123.066726 
L 329.0263 121.351136 
L 330.536321 121.490202 
L 332.046342 118.354881 
L 333.556364 109.784395 
L 335.066385 108.770151 
L 336.576406 110.437822 
L 338.086427 111.21318 
L 339.596448 111.42552 
L 341.106469 113.641738 
L 342.61649 112.579693 
L 344.126512 106.536212 
L 345.636533 107.306906 
L 347.146554 106.003984 
L 348.656575 102.520498 
L 350.166596 99.575228 
L 351.676617 100.451931 
L 353.186638 97.064606 
L 354.69666 97.695003 
L 356.206681 98.006883 
L 357.716702 97.927118 
L 359.226723 96.865231 
L 360.736744 96.874725 
L 362.246765 94.632017 
L 363.756786 91.341386 
L 365.266808 83.775263 
L 366.776829 79.565496 
L 368.28685 65.607495 
L 369.796871 62.575196 
L 371.306892 64.527509 
L 372.816913 68.068209 
L 374.326934 69.253364 
L 375.836956 70.885583 
L 377.346977 70.226633 
L 378.856998 70.728486 
L 380.367019 67.114433 
L 381.87704 67.01462 
L 383.387061 68.262819 
L 384.897082 68.578893 
L 386.407104 66.721079 
L 387.917125 66.132423 
L 389.427146 66.668733 
L 390.937167 62.951233 
L 392.447188 61.770074 
L 393.957209 61.082449 
L 395.46723 61.390507 
L 396.977252 61.080255 
L 398.487273 54.803415 
L 398.487273 54.803415 
" clip-path="url(#p27279ad052)" style="fill: none; stroke: #1f77b4; stroke-opacity: 0.7; stroke-width: 0.5; stroke-linecap: square"/>
   </g>
   <g id="line2d_15">
    <path d="M 73.832727 295.483922 
L 75.342748 294.188538 
L 76.85277 291.294036 
L 81.382833 290.044343 
L 82.892854 290.135093 
L 84.402875 289.33121 
L 85.912896 289.554469 
L 87.422918 286.917896 
L 88.932939 282.48674 
L 90.44296 275.407583 
L 91.952981 276.302426 
L 93.463002 277.55676 
L 94.973023 279.459129 
L 96.483044 277.397851 
L 97.993066 276.928325 
L 99.503087 276.03387 
L 101.013108 273.750659 
L 102.523129 271.999677 
L 104.03315 269.557982 
L 105.543171 269.189357 
L 107.053192 267.584942 
L 108.563214 267.899579 
L 110.073235 267.863199 
L 111.583256 267.938591 
L 113.093277 266.894575 
L 114.603298 266.063135 
L 116.113319 266.216789 
L 117.62334 266.182558 
L 119.133362 266.267487 
L 120.643383 266.059211 
L 122.153404 266.054109 
L 123.663425 266.780582 
L 125.173446 267.035818 
L 126.683467 266.984113 
L 128.193488 267.067172 
L 129.70351 263.266712 
L 131.213531 261.672306 
L 132.723552 263.070284 
L 134.233573 261.618623 
L 135.743594 261.078675 
L 137.253615 260.837694 
L 138.763636 260.990595 
L 140.273658 260.24869 
L 141.783679 260.026344 
L 143.2937 258.992157 
L 144.803721 257.553117 
L 146.313742 255.816124 
L 147.823763 254.371238 
L 149.333784 251.737833 
L 150.843805 249.588934 
L 152.353827 247.090677 
L 153.863848 246.009025 
L 155.373869 246.268542 
L 156.88389 244.836037 
L 158.393911 244.858364 
L 159.903932 245.883996 
L 161.413953 242.823743 
L 162.923975 240.101228 
L 164.433996 238.679002 
L 165.944017 238.816642 
L 167.454038 239.77359 
L 170.47408 240.341571 
L 171.984101 241.157723 
L 173.494123 239.676285 
L 175.004144 240.224479 
L 176.514165 238.561836 
L 178.024186 238.628727 
L 179.534207 238.095932 
L 181.044228 238.303531 
L 182.554249 237.324857 
L 184.064271 235.539489 
L 185.574292 235.029456 
L 187.084313 232.412826 
L 188.594334 230.838698 
L 190.104355 230.545427 
L 191.614376 231.217649 
L 193.124397 230.605228 
L 194.634419 231.291101 
L 196.14444 231.777796 
L 197.654461 230.155142 
L 199.164482 230.297336 
L 202.184524 225.497598 
L 203.694545 224.429827 
L 205.204567 221.710026 
L 206.714588 221.686011 
L 208.224609 222.53274 
L 209.73463 222.6565 
L 211.244651 222.508566 
L 212.754672 220.233929 
L 214.264693 217.134453 
L 215.774715 217.616538 
L 217.284736 215.23779 
L 218.794757 215.208816 
L 220.304778 216.533946 
L 221.814799 215.890292 
L 223.32482 216.690204 
L 224.834841 214.046695 
L 226.344863 213.701756 
L 227.854884 212.526205 
L 229.364905 212.896969 
L 230.874926 213.651116 
L 233.894968 212.636813 
L 235.404989 212.585206 
L 236.915011 210.40117 
L 238.425032 204.323431 
L 239.935053 205.85714 
L 241.445074 205.777173 
L 242.955095 205.416294 
L 244.465116 204.522273 
L 245.975137 206.337209 
L 247.485159 200.61796 
L 248.99518 201.067567 
L 250.505201 198.043691 
L 252.015222 200.309703 
L 253.525243 197.826839 
L 255.035264 196.446971 
L 256.545285 190.669211 
L 258.055307 192.647929 
L 259.565328 193.078167 
L 261.075349 194.030835 
L 262.58537 194.158325 
L 264.095391 195.362008 
L 265.605412 193.986361 
L 267.115433 189.592748 
L 268.625455 190.951294 
L 271.645497 189.992123 
L 273.155518 185.969549 
L 274.665539 186.226224 
L 276.17556 183.47739 
L 277.685581 183.228931 
L 279.195603 181.082769 
L 280.705624 179.585359 
L 282.215645 180.942076 
L 283.725666 177.673188 
L 285.235687 175.12551 
L 286.745708 167.829294 
L 288.255729 163.765194 
L 291.275772 158.043722 
L 292.785793 157.549092 
L 294.295814 153.120814 
L 295.805835 145.05342 
L 297.315856 145.03955 
L 300.335899 146.646964 
L 301.84592 147.796482 
L 303.355941 147.775399 
L 304.865962 147.076972 
L 306.375983 143.762351 
L 307.886004 140.823235 
L 309.396025 139.958332 
L 310.906047 139.742901 
L 313.926089 131.469195 
L 315.43611 130.14806 
L 316.946131 125.365342 
L 318.456152 124.70851 
L 319.966173 124.193765 
L 321.476195 122.32231 
L 322.986216 122.517137 
L 324.496237 122.499764 
L 326.006258 122.992045 
L 327.516279 122.445776 
L 329.0263 120.866417 
L 330.536321 120.946693 
L 332.046342 118.199858 
L 333.556364 109.766867 
L 335.066385 107.820614 
L 336.576406 110.620844 
L 338.086427 111.230268 
L 339.596448 111.016286 
L 341.106469 112.880384 
L 342.61649 111.974431 
L 344.126512 106.513261 
L 345.636533 107.074064 
L 347.146554 105.785313 
L 350.166596 99.392416 
L 351.676617 100.366186 
L 353.186638 96.978339 
L 354.69666 97.619471 
L 356.206681 97.750382 
L 357.716702 97.579988 
L 359.226723 96.446167 
L 360.736744 96.512582 
L 362.246765 94.402981 
L 363.756786 91.496176 
L 365.266808 83.461282 
L 366.776829 77.94925 
L 368.28685 62.10657 
L 369.796871 59.210842 
L 371.306892 63.295593 
L 372.816913 68.610051 
L 374.326934 68.823544 
L 375.836956 70.238375 
L 377.346977 70.145546 
L 378.856998 70.70143 
L 380.367019 67.037675 
L 381.87704 67.05642 
L 383.387061 68.201468 
L 384.897082 68.363974 
L 386.407104 66.681472 
L 387.917125 66.110531 
L 389.427146 66.540347 
L 390.937167 62.91418 
L 392.447188 61.727702 
L 393.957209 61.022429 
L 395.46723 61.282709 
L 396.977252 60.89342 
L 398.487273 54.769086 
L 398.487273 54.769086 
" clip-path="url(#p27279ad052)" style="fill: none; stroke: #ff7f0e; stroke-opacity: 0.7; stroke-width: 0.5; stroke-linecap: square"/>
   </g>
   <g id="line2d_16">
    <path d="M 73.832727 295.485961 
L 75.342748 294.193286 
L 76.85277 291.320582 
L 79.872812 290.312025 
L 81.382833 290.05447 
L 82.892854 290.161014 
L 84.402875 289.386209 
L 85.912896 289.658489 
L 87.422918 286.896929 
L 88.932939 282.506965 
L 90.44296 275.582113 
L 91.952981 276.410661 
L 93.463002 277.402963 
L 94.973023 279.336974 
L 96.483044 277.408585 
L 97.993066 276.948806 
L 99.503087 276.050729 
L 101.013108 273.760231 
L 102.523129 272.01933 
L 104.03315 269.593721 
L 105.543171 269.189827 
L 107.053192 267.593154 
L 108.563214 267.902025 
L 110.073235 267.891388 
L 111.583256 267.992289 
L 113.093277 266.935754 
L 114.603298 266.098158 
L 116.113319 266.285389 
L 117.62334 266.263496 
L 119.133362 266.365829 
L 120.643383 266.135664 
L 122.153404 266.133979 
L 123.663425 266.889247 
L 125.173446 267.159472 
L 126.683467 267.076183 
L 128.193488 267.157088 
L 129.70351 263.185024 
L 131.213531 261.67186 
L 132.723552 263.067951 
L 134.233573 261.602023 
L 135.743594 261.098504 
L 137.253615 260.854978 
L 138.763636 261.024314 
L 140.273658 260.340829 
L 141.783679 260.087807 
L 143.2937 259.107088 
L 144.803721 257.607539 
L 146.313742 255.8818 
L 147.823763 254.513246 
L 149.333784 251.964661 
L 150.843805 249.853741 
L 152.353827 247.379587 
L 153.863848 246.24198 
L 155.373869 246.387953 
L 156.88389 244.969785 
L 158.393911 244.946544 
L 159.903932 245.858101 
L 161.413953 242.896283 
L 162.923975 240.240495 
L 164.433996 238.805893 
L 165.944017 238.889004 
L 167.454038 239.730821 
L 170.47408 240.496231 
L 171.984101 241.349353 
L 173.494123 239.746541 
L 175.004144 240.354047 
L 176.514165 238.621979 
L 178.024186 238.706643 
L 179.534207 238.172169 
L 181.044228 238.415298 
L 182.554249 237.393633 
L 184.064271 235.533467 
L 185.574292 235.06746 
L 187.084313 232.529007 
L 188.594334 230.978686 
L 190.104355 230.608269 
L 191.614376 231.18195 
L 193.124397 230.600892 
L 194.634419 231.344771 
L 196.14444 231.895978 
L 197.654461 230.166092 
L 199.164482 230.407771 
L 202.184524 225.435168 
L 203.694545 224.483223 
L 205.204567 221.836548 
L 206.714588 221.721812 
L 208.224609 222.468942 
L 209.73463 222.683399 
L 211.244651 222.56655 
L 212.754672 220.223319 
L 214.264693 217.230834 
L 215.774715 217.619523 
L 217.284736 215.36752 
L 218.794757 215.237819 
L 220.304778 216.423368 
L 221.814799 215.92181 
L 223.32482 216.796048 
L 224.834841 214.023416 
L 226.344863 213.705698 
L 227.854884 212.530541 
L 229.364905 212.894498 
L 230.874926 213.689129 
L 233.894968 212.694708 
L 235.404989 212.64152 
L 236.915011 210.373272 
L 238.425032 204.178924 
L 239.935053 205.700647 
L 241.445074 205.708456 
L 242.955095 205.382824 
L 244.465116 204.506004 
L 245.975137 206.295281 
L 247.485159 200.621595 
L 248.99518 201.000115 
L 250.505201 198.156654 
L 252.015222 200.240395 
L 253.525243 197.808083 
L 255.035264 196.460875 
L 256.545285 190.991888 
L 258.055307 192.610054 
L 259.565328 193.07554 
L 261.075349 194.035953 
L 262.58537 194.165122 
L 264.095391 195.425643 
L 265.605412 193.996224 
L 267.115433 189.518338 
L 268.625455 190.891873 
L 271.645497 189.989359 
L 273.155518 186.004421 
L 274.665539 186.204497 
L 276.17556 183.5313 
L 277.685581 183.238125 
L 279.195603 181.136274 
L 280.705624 179.639273 
L 282.215645 180.904138 
L 283.725666 177.70854 
L 285.235687 175.215118 
L 286.745708 168.160094 
L 288.255729 164.235361 
L 291.275772 158.495403 
L 292.785793 158.134051 
L 294.295814 153.634588 
L 295.805835 145.734583 
L 297.315856 145.932226 
L 300.335899 147.041172 
L 301.84592 148.219848 
L 303.355941 148.340897 
L 304.865962 147.447425 
L 306.375983 143.949933 
L 307.886004 140.942165 
L 309.396025 140.120551 
L 310.906047 139.913088 
L 313.926089 131.654609 
L 315.43611 130.518114 
L 316.946131 125.698231 
L 319.966173 124.630933 
L 321.476195 122.610833 
L 322.986216 122.760993 
L 324.496237 122.633153 
L 326.006258 123.243772 
L 327.516279 122.756251 
L 329.0263 121.108777 
L 330.536321 121.218448 
L 332.046342 118.277369 
L 333.556364 109.775631 
L 335.066385 108.295383 
L 336.576406 110.529333 
L 338.086427 111.221724 
L 339.596448 111.220903 
L 341.106469 113.261061 
L 342.61649 112.277062 
L 344.126512 106.524737 
L 345.636533 107.190485 
L 347.146554 105.894648 
L 348.656575 102.503014 
L 350.166596 99.483822 
L 351.676617 100.409058 
L 353.186638 97.021473 
L 354.69666 97.657237 
L 356.206681 97.878632 
L 357.716702 97.753553 
L 359.226723 96.655699 
L 360.736744 96.693653 
L 362.246765 94.517499 
L 363.756786 91.418781 
L 365.266808 83.618273 
L 366.776829 78.757373 
L 368.28685 63.857032 
L 369.796871 60.893019 
L 371.306892 63.911551 
L 372.816913 68.33913 
L 374.326934 69.038454 
L 375.836956 70.561979 
L 377.346977 70.186089 
L 378.856998 70.714958 
L 380.367019 67.076054 
L 381.87704 67.03552 
L 383.387061 68.232144 
L 384.897082 68.471434 
L 386.407104 66.701276 
L 387.917125 66.121477 
L 389.427146 66.60454 
L 390.937167 62.932707 
L 392.447188 61.748888 
L 393.957209 61.052439 
L 395.46723 61.336608 
L 396.977252 60.986837 
L 398.487273 54.786251 
L 398.487273 54.786251 
" clip-path="url(#p27279ad052)" style="fill: none; stroke: #2ca02c; stroke-opacity: 0.7; stroke-width: 0.5; stroke-linecap: square"/>
   </g>
   <g id="line2d_17">
    <path d="M 73.832727 295.078329 
L 75.342748 292.544782 
L 78.362791 291.278009 
L 79.872812 290.897977 
L 81.382833 290.834638 
L 82.892854 290.074574 
L 84.402875 290.137913 
L 85.912896 287.857721 
L 87.422918 283.994063 
L 88.932939 277.976889 
L 90.44296 278.103567 
L 91.952981 278.610276 
L 93.463002 280.003727 
L 94.973023 278.42026 
L 96.483044 277.850212 
L 97.993066 276.963471 
L 99.503087 274.936633 
L 101.013108 273.289828 
L 102.523129 271.072975 
L 104.03315 270.439588 
L 105.543171 268.91946 
L 107.053192 268.91946 
L 108.563214 268.729444 
L 110.073235 268.666106 
L 113.093277 266.892623 
L 114.603298 266.892623 
L 116.113319 266.765946 
L 117.62334 266.765946 
L 119.133362 266.512591 
L 120.643383 266.449252 
L 122.153404 267.0193 
L 123.663425 267.209316 
L 125.173446 267.145978 
L 126.683467 267.209316 
L 128.193488 263.915706 
L 129.70351 262.522255 
L 131.213531 263.472335 
L 132.723552 262.205562 
L 134.233573 261.698853 
L 135.743594 261.382159 
L 137.253615 261.445498 
L 138.763636 260.87545 
L 140.273658 260.558757 
L 141.783679 259.735354 
L 143.2937 258.341903 
L 144.803721 256.758437 
L 146.313742 255.491663 
L 147.823763 253.27481 
L 149.333784 251.311312 
L 150.843805 249.03112 
L 152.353827 247.701008 
L 153.863848 247.447653 
L 155.373869 246.117541 
L 156.88389 245.864186 
L 158.393911 246.497573 
L 161.413953 241.557157 
L 162.923975 240.100368 
L 164.433996 239.910352 
L 165.944017 240.4804 
L 168.964059 240.860432 
L 170.47408 241.493818 
L 171.984101 240.227045 
L 173.494123 240.607077 
L 175.004144 239.213627 
L 176.514165 239.150288 
L 178.024186 238.643579 
L 179.534207 238.770256 
L 181.044228 237.883515 
L 182.554249 236.236709 
L 184.064271 235.73 
L 185.574292 233.576485 
L 187.084313 232.119696 
L 188.594334 231.549648 
L 190.104355 231.803003 
L 191.614376 231.232955 
L 193.124397 231.739664 
L 194.634419 232.119696 
L 196.14444 230.726245 
L 197.654461 230.852923 
L 199.164482 228.762747 
L 200.674503 226.419216 
L 202.184524 225.469136 
L 203.694545 223.125606 
L 205.204567 222.745574 
L 206.714588 223.188944 
L 208.224609 223.188944 
L 209.73463 222.998928 
L 211.244651 221.098768 
L 212.754672 218.438544 
L 214.264693 218.501883 
L 215.774715 216.475046 
L 217.284736 216.158353 
L 218.794757 216.981755 
L 220.304778 216.475046 
L 221.814799 217.045094 
L 223.32482 214.828241 
L 224.834841 214.38487 
L 226.344863 213.308113 
L 227.854884 213.43479 
L 229.364905 214.004838 
L 232.384947 213.118097 
L 233.894968 212.991419 
L 235.404989 211.091259 
L 236.915011 205.644134 
L 238.425032 206.594214 
L 239.935053 206.467537 
L 241.445074 206.087505 
L 242.955095 205.264102 
L 244.465116 206.530875 
L 245.975137 201.970492 
L 247.485159 201.970492 
L 248.99518 199.436945 
L 250.505201 200.830396 
L 252.015222 198.803558 
L 253.525243 197.536785 
L 255.035264 192.913063 
L 256.545285 193.736465 
L 258.055307 193.926481 
L 259.565328 194.559868 
L 261.075349 194.623207 
L 262.58537 195.573286 
L 264.095391 194.433191 
L 265.605412 190.696209 
L 267.115433 191.519612 
L 270.135476 190.569532 
L 271.645497 187.275921 
L 273.155518 187.149244 
L 274.665539 184.805713 
L 276.17556 184.299004 
L 277.685581 182.398844 
L 279.195603 180.942055 
L 280.705624 181.702119 
L 282.215645 178.978556 
L 283.725666 176.698364 
L 285.235687 170.617853 
L 286.745708 166.817533 
L 289.765751 160.990376 
L 291.275772 159.913618 
L 292.785793 155.986621 
L 294.295814 149.019368 
L 295.805835 148.005949 
L 297.315856 148.132627 
L 298.825877 148.385981 
L 300.335899 149.082707 
L 301.84592 149.019368 
L 303.355941 148.322643 
L 306.375983 142.685501 
L 307.886004 141.608744 
L 309.396025 141.165373 
L 312.416068 133.691411 
L 313.926089 132.234622 
L 315.43611 127.990931 
L 316.946131 126.914174 
L 318.456152 126.090771 
L 319.966173 124.25395 
L 322.986216 123.873918 
L 324.496237 124.127273 
L 326.006258 123.557225 
L 327.516279 122.227113 
L 329.0263 122.100435 
L 330.536321 119.566889 
L 332.046342 111.966249 
L 333.556364 110.192766 
L 335.066385 111.649556 
L 336.576406 112.156265 
L 338.086427 112.156265 
L 339.596448 113.676393 
L 341.106469 113.106345 
L 342.61649 108.229268 
L 344.126512 108.419284 
L 345.636533 107.15251 
L 347.146554 104.112255 
L 348.656575 101.388692 
L 350.166596 101.705385 
L 351.676617 98.728468 
L 353.186638 98.918484 
L 354.69666 98.855145 
L 356.206681 98.601791 
L 357.716702 97.651711 
L 359.226723 97.461695 
L 360.736744 95.624873 
L 362.246765 92.837972 
L 363.756786 85.997396 
L 365.266808 81.627029 
L 366.776829 69.275989 
L 368.28685 65.095637 
L 369.796871 66.425749 
L 371.306892 69.656021 
L 372.816913 69.782698 
L 374.326934 70.796117 
L 375.836956 70.732778 
L 377.346977 71.11281 
L 378.856998 68.199232 
L 380.367019 67.945877 
L 381.87704 68.705941 
L 383.387061 68.832618 
L 384.897082 67.439168 
L 386.407104 66.805781 
L 387.917125 67.059136 
L 389.427146 63.955541 
L 390.937167 62.752106 
L 392.447188 61.992042 
L 393.957209 62.055381 
L 395.46723 61.675349 
L 396.977252 56.354901 
L 398.487273 53.568 
L 398.487273 53.568 
" clip-path="url(#p27279ad052)" style="fill: none; stroke: #d62728; stroke-opacity: 0.7; stroke-width: 0.5; stroke-linecap: square"/>
   </g>
   <g id="patch_3">
    <path d="M 57.6 307.584 
L 57.6 41.472 
" style="fill: none; stroke: #000000; stroke-width: 0.8; stroke-linejoin: miter; stroke-linecap: square"/>
   </g>
   <g id="patch_4">
    <path d="M 414.72 307.584 
L 414.72 41.472 
" style="fill: none; stroke: #000000; stroke-width: 0.8; stroke-linejoin: miter; stroke-linecap: square"/>
   </g>
   <g id="patch_5">
    <path d="M 57.6 307.584 
L 414.72 307.584 
" style="fill: none; stroke: #000000; stroke-width: 0.8; stroke-linejoin: miter; stroke-linecap: square"/>
   </g>
   <g id="patch_6">
    <path d="M 57.6 41.472 
L 414.72 41.472 
" style="fill: none; stroke: #000000; stroke-width: 0.8; stroke-linejoin: miter; stroke-linecap: square"/>
   </g>
   <g id="text_14">
    <!-- 1final_zhangext_sr_cci -->
    <g transform="translate(168.829688 35.472) scale(0.12 -0.12)">
     <defs>
      <path id="DejaVuSans-66" d="M 2375 4863 
L 2375 4384 
L 1825 4384 
Q 1516 4384 1395 4259 
Q 1275 4134 1275 3809 
L 1275 3500 
L 2222 3500 
L 2222 3053 
L 1275 3053 
L 1275 0 
L 697 0 
L 697 3053 
L 147 3053 
L 147 3500 
L 697 3500 
L 697 3744 
Q 697 4328 969 4595 
Q 1241 4863 1831 4863 
L 2375 4863 
z
" transform="scale(0.015625)"/>
      <path id="DejaVuSans-69" d="M 603 3500 
L 1178 3500 
L 1178 0 
L 603 0 
L 603 3500 
z
M 603 4863 
L 1178 4863 
L 1178 4134 
L 603 4134 
L 603 4863 
z
" transform="scale(0.015625)"/>
      <path id="DejaVuSans-6e" d="M 3513 2113 
L 3513 0 
L 2938 0 
L 2938 2094 
Q 2938 2591 2744 2837 
Q 2550 3084 2163 3084 
Q 1697 3084 1428 2787 
Q 1159 2491 1159 1978 
L 1159 0 
L 581 0 
L 581 3500 
L 1159 3500 
L 1159 2956 
Q 1366 3272 1645 3428 
Q 1925 3584 2291 3584 
Q 2894 3584 3203 3211 
Q 3513 2838 3513 2113 
z
" transform="scale(0.015625)"/>
      <path id="DejaVuSans-61" d="M 2194 1759 
Q 1497 1759 1228 1600 
Q 959 1441 959 1056 
Q 959 750 1161 570 
Q 1363 391 1709 391 
Q 2188 391 2477 730 
Q 2766 1069 2766 1631 
L 2766 1759 
L 2194 1759 
z
M 3341 1997 
L 3341 0 
L 2766 0 
L 2766 531 
Q 2569 213 2275 61 
Q 1981 -91 1556 -91 
Q 1019 -91 701 211 
Q 384 513 384 1019 
Q 384 1609 779 1909 
Q 1175 2209 1959 2209 
L 2766 2209 
L 2766 2266 
Q 2766 2663 2505 2880 
Q 2244 3097 1772 3097 
Q 1472 3097 1187 3025 
Q 903 2953 641 2809 
L 641 3341 
Q 956 3463 1253 3523 
Q 1550 3584 1831 3584 
Q 2591 3584 2966 3190 
Q 3341 2797 3341 1997 
z
" transform="scale(0.015625)"/>
      <path id="DejaVuSans-6c" d="M 603 4863 
L 1178 4863 
L 1178 0 
L 603 0 
L 603 4863 
z
" transform="scale(0.015625)"/>
      <path id="DejaVuSans-5f" d="M 3263 -1063 
L 3263 -1509 
L -63 -1509 
L -63 -1063 
L 3263 -1063 
z
" transform="scale(0.015625)"/>
      <path id="DejaVuSans-7a" d="M 353 3500 
L 3084 3500 
L 3084 2975 
L 922 459 
L 3084 459 
L 3084 0 
L 275 0 
L 275 525 
L 2438 3041 
L 353 3041 
L 353 3500 
z
" transform="scale(0.015625)"/>
      <path id="DejaVuSans-68" d="M 3513 2113 
L 3513 0 
L 2938 0 
L 2938 2094 
Q 2938 2591 2744 2837 
Q 2550 3084 2163 3084 
Q 1697 3084 1428 2787 
Q 1159 2491 1159 1978 
L 1159 0 
L 581 0 
L 581 4863 
L 1159 4863 
L 1159 2956 
Q 1366 3272 1645 3428 
Q 1925 3584 2291 3584 
Q 2894 3584 3203 3211 
Q 3513 2838 3513 2113 
z
" transform="scale(0.015625)"/>
      <path id="DejaVuSans-67" d="M 2906 1791 
Q 2906 2416 2648 2759 
Q 2391 3103 1925 3103 
Q 1463 3103 1205 2759 
Q 947 2416 947 1791 
Q 947 1169 1205 825 
Q 1463 481 1925 481 
Q 2391 481 2648 825 
Q 2906 1169 2906 1791 
z
M 3481 434 
Q 3481 -459 3084 -895 
Q 2688 -1331 1869 -1331 
Q 1566 -1331 1297 -1286 
Q 1028 -1241 775 -1147 
L 775 -588 
Q 1028 -725 1275 -790 
Q 1522 -856 1778 -856 
Q 2344 -856 2625 -561 
Q 2906 -266 2906 331 
L 2906 616 
Q 2728 306 2450 153 
Q 2172 0 1784 0 
Q 1141 0 747 490 
Q 353 981 353 1791 
Q 353 2603 747 3093 
Q 1141 3584 1784 3584 
Q 2172 3584 2450 3431 
Q 2728 3278 2906 2969 
L 2906 3500 
L 3481 3500 
L 3481 434 
z
" transform="scale(0.015625)"/>
      <path id="DejaVuSans-65" d="M 3597 1894 
L 3597 1613 
L 953 1613 
Q 991 1019 1311 708 
Q 1631 397 2203 397 
Q 2534 397 2845 478 
Q 3156 559 3463 722 
L 3463 178 
Q 3153 47 2828 -22 
Q 2503 -91 2169 -91 
Q 1331 -91 842 396 
Q 353 884 353 1716 
Q 353 2575 817 3079 
Q 1281 3584 2069 3584 
Q 2775 3584 3186 3129 
Q 3597 2675 3597 1894 
z
M 3022 2063 
Q 3016 2534 2758 2815 
Q 2500 3097 2075 3097 
Q 1594 3097 1305 2825 
Q 1016 2553 972 2059 
L 3022 2063 
z
" transform="scale(0.015625)"/>
      <path id="DejaVuSans-78" d="M 3513 3500 
L 2247 1797 
L 3578 0 
L 2900 0 
L 1881 1375 
L 863 0 
L 184 0 
L 1544 1831 
L 300 3500 
L 978 3500 
L 1906 2253 
L 2834 3500 
L 3513 3500 
z
" transform="scale(0.015625)"/>
      <path id="DejaVuSans-74" d="M 1172 4494 
L 1172 3500 
L 2356 3500 
L 2356 3053 
L 1172 3053 
L 1172 1153 
Q 1172 725 1289 603 
Q 1406 481 1766 481 
L 2356 481 
L 2356 0 
L 1766 0 
Q 1100 0 847 248 
Q 594 497 594 1153 
L 594 3053 
L 172 3053 
L 172 3500 
L 594 3500 
L 594 4494 
L 1172 4494 
z
" transform="scale(0.015625)"/>
      <path id="DejaVuSans-73" d="M 2834 3397 
L 2834 2853 
Q 2591 2978 2328 3040 
Q 2066 3103 1784 3103 
Q 1356 3103 1142 2972 
Q 928 2841 928 2578 
Q 928 2378 1081 2264 
Q 1234 2150 1697 2047 
L 1894 2003 
Q 2506 1872 2764 1633 
Q 3022 1394 3022 966 
Q 3022 478 2636 193 
Q 2250 -91 1575 -91 
Q 1294 -91 989 -36 
Q 684 19 347 128 
L 347 722 
Q 666 556 975 473 
Q 1284 391 1588 391 
Q 1994 391 2212 530 
Q 2431 669 2431 922 
Q 2431 1156 2273 1281 
Q 2116 1406 1581 1522 
L 1381 1569 
Q 847 1681 609 1914 
Q 372 2147 372 2553 
Q 372 3047 722 3315 
Q 1072 3584 1716 3584 
Q 2034 3584 2315 3537 
Q 2597 3491 2834 3397 
z
" transform="scale(0.015625)"/>
      <path id="DejaVuSans-72" d="M 2631 2963 
Q 2534 3019 2420 3045 
Q 2306 3072 2169 3072 
Q 1681 3072 1420 2755 
Q 1159 2438 1159 1844 
L 1159 0 
L 581 0 
L 581 3500 
L 1159 3500 
L 1159 2956 
Q 1341 3275 1631 3429 
Q 1922 3584 2338 3584 
Q 2397 3584 2469 3576 
Q 2541 3569 2628 3553 
L 2631 2963 
z
" transform="scale(0.015625)"/>
      <path id="DejaVuSans-63" d="M 3122 3366 
L 3122 2828 
Q 2878 2963 2633 3030 
Q 2388 3097 2138 3097 
Q 1578 3097 1268 2742 
Q 959 2388 959 1747 
Q 959 1106 1268 751 
Q 1578 397 2138 397 
Q 2388 397 2633 464 
Q 2878 531 3122 666 
L 3122 134 
Q 2881 22 2623 -34 
Q 2366 -91 2075 -91 
Q 1284 -91 818 406 
Q 353 903 353 1747 
Q 353 2603 823 3093 
Q 1294 3584 2113 3584 
Q 2378 3584 2631 3529 
Q 2884 3475 3122 3366 
z
" transform="scale(0.015625)"/>
     </defs>
     <use xlink:href="#DejaVuSans-31"/>
     <use xlink:href="#DejaVuSans-66" x="63.623047"/>
     <use xlink:href="#DejaVuSans-69" x="98.828125"/>
     <use xlink:href="#DejaVuSans-6e" x="126.611328"/>
     <use xlink:href="#DejaVuSans-61" x="189.990234"/>
     <use xlink:href="#DejaVuSans-6c" x="251.269531"/>
     <use xlink:href="#DejaVuSans-5f" x="279.052734"/>
     <use xlink:href="#DejaVuSans-7a" x="329.052734"/>
     <use xlink:href="#DejaVuSans-68" x="381.542969"/>
     <use xlink:href="#DejaVuSans-61" x="444.921875"/>
     <use xlink:href="#DejaVuSans-6e" x="506.201172"/>
     <use xlink:href="#DejaVuSans-67" x="569.580078"/>
     <use xlink:href="#DejaVuSans-65" x="633.056641"/>
     <use xlink:href="#DejaVuSans-78" x="692.830078"/>
     <use xlink:href="#DejaVuSans-74" x="752.009766"/>
     <use xlink:href="#DejaVuSans-5f" x="791.21875"/>
     <use xlink:href="#DejaVuSans-73" x="841.21875"/>
     <use xlink:href="#DejaVuSans-72" x="893.318359"/>
     <use xlink:href="#DejaVuSans-5f" x="934.431641"/>
     <use xlink:href="#DejaVuSans-63" x="984.431641"/>
     <use xlink:href="#DejaVuSans-63" x="1039.412109"/>
     <use xlink:href="#DejaVuSans-69" x="1094.392578"/>
    </g>
   </g>
   <g id="legend_1">
    <g id="patch_7">
     <path d="M 64.6 108.1845 
L 200.035938 108.1845 
Q 202.035938 108.1845 202.035938 106.1845 
L 202.035938 48.472 
Q 202.035938 46.472 200.035938 46.472 
L 64.6 46.472 
Q 62.6 46.472 62.6 48.472 
L 62.6 106.1845 
Q 62.6 108.1845 64.6 108.1845 
z
" style="fill: #ffffff; opacity: 0.8; stroke: #cccccc; stroke-linejoin: miter"/>
    </g>
    <g id="line2d_18">
     <path d="M 66.6 54.570438 
L 76.6 54.570438 
L 86.6 54.570438 
" style="fill: none; stroke: #1f77b4; stroke-opacity: 0.7; stroke-width: 0.5; stroke-linecap: square"/>
    </g>
    <g id="text_15">
     <!-- Positive predictions -->
     <g transform="translate(94.6 58.070438) scale(0.1 -0.1)">
      <defs>
       <path id="DejaVuSans-50" d="M 1259 4147 
L 1259 2394 
L 2053 2394 
Q 2494 2394 2734 2622 
Q 2975 2850 2975 3272 
Q 2975 3691 2734 3919 
Q 2494 4147 2053 4147 
L 1259 4147 
z
M 628 4666 
L 2053 4666 
Q 2838 4666 3239 4311 
Q 3641 3956 3641 3272 
Q 3641 2581 3239 2228 
Q 2838 1875 2053 1875 
L 1259 1875 
L 1259 0 
L 628 0 
L 628 4666 
z
" transform="scale(0.015625)"/>
       <path id="DejaVuSans-6f" d="M 1959 3097 
Q 1497 3097 1228 2736 
Q 959 2375 959 1747 
Q 959 1119 1226 758 
Q 1494 397 1959 397 
Q 2419 397 2687 759 
Q 2956 1122 2956 1747 
Q 2956 2369 2687 2733 
Q 2419 3097 1959 3097 
z
M 1959 3584 
Q 2709 3584 3137 3096 
Q 3566 2609 3566 1747 
Q 3566 888 3137 398 
Q 2709 -91 1959 -91 
Q 1206 -91 779 398 
Q 353 888 353 1747 
Q 353 2609 779 3096 
Q 1206 3584 1959 3584 
z
" transform="scale(0.015625)"/>
       <path id="DejaVuSans-76" d="M 191 3500 
L 800 3500 
L 1894 563 
L 2988 3500 
L 3597 3500 
L 2284 0 
L 1503 0 
L 191 3500 
z
" transform="scale(0.015625)"/>
       <path id="DejaVuSans-20" transform="scale(0.015625)"/>
       <path id="DejaVuSans-70" d="M 1159 525 
L 1159 -1331 
L 581 -1331 
L 581 3500 
L 1159 3500 
L 1159 2969 
Q 1341 3281 1617 3432 
Q 1894 3584 2278 3584 
Q 2916 3584 3314 3078 
Q 3713 2572 3713 1747 
Q 3713 922 3314 415 
Q 2916 -91 2278 -91 
Q 1894 -91 1617 61 
Q 1341 213 1159 525 
z
M 3116 1747 
Q 3116 2381 2855 2742 
Q 2594 3103 2138 3103 
Q 1681 3103 1420 2742 
Q 1159 2381 1159 1747 
Q 1159 1113 1420 752 
Q 1681 391 2138 391 
Q 2594 391 2855 752 
Q 3116 1113 3116 1747 
z
" transform="scale(0.015625)"/>
       <path id="DejaVuSans-64" d="M 2906 2969 
L 2906 4863 
L 3481 4863 
L 3481 0 
L 2906 0 
L 2906 525 
Q 2725 213 2448 61 
Q 2172 -91 1784 -91 
Q 1150 -91 751 415 
Q 353 922 353 1747 
Q 353 2572 751 3078 
Q 1150 3584 1784 3584 
Q 2172 3584 2448 3432 
Q 2725 3281 2906 2969 
z
M 947 1747 
Q 947 1113 1208 752 
Q 1469 391 1925 391 
Q 2381 391 2643 752 
Q 2906 1113 2906 1747 
Q 2906 2381 2643 2742 
Q 2381 3103 1925 3103 
Q 1469 3103 1208 2742 
Q 947 2381 947 1747 
z
" transform="scale(0.015625)"/>
      </defs>
      <use xlink:href="#DejaVuSans-50"/>
      <use xlink:href="#DejaVuSans-6f" x="56.677734"/>
      <use xlink:href="#DejaVuSans-73" x="117.859375"/>
      <use xlink:href="#DejaVuSans-69" x="169.958984"/>
      <use xlink:href="#DejaVuSans-74" x="197.742188"/>
      <use xlink:href="#DejaVuSans-69" x="236.951172"/>
      <use xlink:href="#DejaVuSans-76" x="264.734375"/>
      <use xlink:href="#DejaVuSans-65" x="323.914062"/>
      <use xlink:href="#DejaVuSans-20" x="385.4375"/>
      <use xlink:href="#DejaVuSans-70" x="417.224609"/>
      <use xlink:href="#DejaVuSans-72" x="480.701172"/>
      <use xlink:href="#DejaVuSans-65" x="519.564453"/>
      <use xlink:href="#DejaVuSans-64" x="581.087891"/>
      <use xlink:href="#DejaVuSans-69" x="644.564453"/>
      <use xlink:href="#DejaVuSans-63" x="672.347656"/>
      <use xlink:href="#DejaVuSans-74" x="727.328125"/>
      <use xlink:href="#DejaVuSans-69" x="766.537109"/>
      <use xlink:href="#DejaVuSans-6f" x="794.320312"/>
      <use xlink:href="#DejaVuSans-6e" x="855.501953"/>
      <use xlink:href="#DejaVuSans-73" x="918.880859"/>
     </g>
    </g>
    <g id="line2d_19">
     <path d="M 66.6 69.248563 
L 76.6 69.248563 
L 86.6 69.248563 
" style="fill: none; stroke: #ff7f0e; stroke-opacity: 0.7; stroke-width: 0.5; stroke-linecap: square"/>
    </g>
    <g id="text_16">
     <!-- Negative predictions -->
     <g transform="translate(94.6 72.748563) scale(0.1 -0.1)">
      <defs>
       <path id="DejaVuSans-4e" d="M 628 4666 
L 1478 4666 
L 3547 763 
L 3547 4666 
L 4159 4666 
L 4159 0 
L 3309 0 
L 1241 3903 
L 1241 0 
L 628 0 
L 628 4666 
z
" transform="scale(0.015625)"/>
      </defs>
      <use xlink:href="#DejaVuSans-4e"/>
      <use xlink:href="#DejaVuSans-65" x="74.804688"/>
      <use xlink:href="#DejaVuSans-67" x="136.328125"/>
      <use xlink:href="#DejaVuSans-61" x="199.804688"/>
      <use xlink:href="#DejaVuSans-74" x="261.083984"/>
      <use xlink:href="#DejaVuSans-69" x="300.292969"/>
      <use xlink:href="#DejaVuSans-76" x="328.076172"/>
      <use xlink:href="#DejaVuSans-65" x="387.255859"/>
      <use xlink:href="#DejaVuSans-20" x="448.779297"/>
      <use xlink:href="#DejaVuSans-70" x="480.566406"/>
      <use xlink:href="#DejaVuSans-72" x="544.042969"/>
      <use xlink:href="#DejaVuSans-65" x="582.90625"/>
      <use xlink:href="#DejaVuSans-64" x="644.429688"/>
      <use xlink:href="#DejaVuSans-69" x="707.90625"/>
      <use xlink:href="#DejaVuSans-63" x="735.689453"/>
      <use xlink:href="#DejaVuSans-74" x="790.669922"/>
      <use xlink:href="#DejaVuSans-69" x="829.878906"/>
      <use xlink:href="#DejaVuSans-6f" x="857.662109"/>
      <use xlink:href="#DejaVuSans-6e" x="918.84375"/>
      <use xlink:href="#DejaVuSans-73" x="982.222656"/>
     </g>
    </g>
    <g id="line2d_20">
     <path d="M 66.6 83.926688 
L 76.6 83.926688 
L 86.6 83.926688 
" style="fill: none; stroke: #2ca02c; stroke-opacity: 0.7; stroke-width: 0.5; stroke-linecap: square"/>
    </g>
    <g id="text_17">
     <!-- Average predictions -->
     <g transform="translate(94.6 87.426688) scale(0.1 -0.1)">
      <defs>
       <path id="DejaVuSans-41" d="M 2188 4044 
L 1331 1722 
L 3047 1722 
L 2188 4044 
z
M 1831 4666 
L 2547 4666 
L 4325 0 
L 3669 0 
L 3244 1197 
L 1141 1197 
L 716 0 
L 50 0 
L 1831 4666 
z
" transform="scale(0.015625)"/>
      </defs>
      <use xlink:href="#DejaVuSans-41"/>
      <use xlink:href="#DejaVuSans-76" x="62.533203"/>
      <use xlink:href="#DejaVuSans-65" x="121.712891"/>
      <use xlink:href="#DejaVuSans-72" x="183.236328"/>
      <use xlink:href="#DejaVuSans-61" x="224.349609"/>
      <use xlink:href="#DejaVuSans-67" x="285.628906"/>
      <use xlink:href="#DejaVuSans-65" x="349.105469"/>
      <use xlink:href="#DejaVuSans-20" x="410.628906"/>
      <use xlink:href="#DejaVuSans-70" x="442.416016"/>
      <use xlink:href="#DejaVuSans-72" x="505.892578"/>
      <use xlink:href="#DejaVuSans-65" x="544.755859"/>
      <use xlink:href="#DejaVuSans-64" x="606.279297"/>
      <use xlink:href="#DejaVuSans-69" x="669.755859"/>
      <use xlink:href="#DejaVuSans-63" x="697.539062"/>
      <use xlink:href="#DejaVuSans-74" x="752.519531"/>
      <use xlink:href="#DejaVuSans-69" x="791.728516"/>
      <use xlink:href="#DejaVuSans-6f" x="819.511719"/>
      <use xlink:href="#DejaVuSans-6e" x="880.693359"/>
      <use xlink:href="#DejaVuSans-73" x="944.072266"/>
     </g>
    </g>
    <g id="line2d_21">
     <path d="M 66.6 98.604813 
L 76.6 98.604813 
L 86.6 98.604813 
" style="fill: none; stroke: #d62728; stroke-opacity: 0.7; stroke-width: 0.5; stroke-linecap: square"/>
    </g>
    <g id="text_18">
     <!-- Actual values -->
     <g transform="translate(94.6 102.104813) scale(0.1 -0.1)">
      <defs>
       <path id="DejaVuSans-75" d="M 544 1381 
L 544 3500 
L 1119 3500 
L 1119 1403 
Q 1119 906 1312 657 
Q 1506 409 1894 409 
Q 2359 409 2629 706 
Q 2900 1003 2900 1516 
L 2900 3500 
L 3475 3500 
L 3475 0 
L 2900 0 
L 2900 538 
Q 2691 219 2414 64 
Q 2138 -91 1772 -91 
Q 1169 -91 856 284 
Q 544 659 544 1381 
z
M 1991 3584 
L 1991 3584 
z
" transform="scale(0.015625)"/>
      </defs>
      <use xlink:href="#DejaVuSans-41"/>
      <use xlink:href="#DejaVuSans-63" x="66.658203"/>
      <use xlink:href="#DejaVuSans-74" x="121.638672"/>
      <use xlink:href="#DejaVuSans-75" x="160.847656"/>
      <use xlink:href="#DejaVuSans-61" x="224.226562"/>
      <use xlink:href="#DejaVuSans-6c" x="285.505859"/>
      <use xlink:href="#DejaVuSans-20" x="313.289062"/>
      <use xlink:href="#DejaVuSans-76" x="345.076172"/>
      <use xlink:href="#DejaVuSans-61" x="404.255859"/>
      <use xlink:href="#DejaVuSans-6c" x="465.535156"/>
      <use xlink:href="#DejaVuSans-75" x="493.318359"/>
      <use xlink:href="#DejaVuSans-65" x="556.697266"/>
      <use xlink:href="#DejaVuSans-73" x="618.220703"/>
     </g>
    </g>
   </g>
  </g>
 </g>
 <defs>
  <clipPath id="p27279ad052">
   <rect x="57.6" y="41.472" width="357.12" height="266.112"/>
  </clipPath>
 </defs>
</svg>
