<?xml version="1.0" encoding="utf-8" standalone="no"?>
<!DOCTYPE svg PUBLIC "-//W3C//DTD SVG 1.1//EN"
  "http://www.w3.org/Graphics/SVG/1.1/DTD/svg11.dtd">
<svg xmlns:xlink="http://www.w3.org/1999/xlink" width="460.8pt" height="345.6pt" viewBox="0 0 460.8 345.6" xmlns="http://www.w3.org/2000/svg" version="1.1">
 <metadata>
  <rdf:RDF xmlns:dc="http://purl.org/dc/elements/1.1/" xmlns:cc="http://creativecommons.org/ns#" xmlns:rdf="http://www.w3.org/1999/02/22-rdf-syntax-ns#">
   <cc:Work>
    <dc:type rdf:resource="http://purl.org/dc/dcmitype/StillImage"/>
    <dc:date>2024-09-12T12:29:13.432183</dc:date>
    <dc:format>image/svg+xml</dc:format>
    <dc:creator>
     <cc:Agent>
      <dc:title>Matplotlib v3.8.3, https://matplotlib.org/</dc:title>
     </cc:Agent>
    </dc:creator>
   </cc:Work>
  </rdf:RDF>
 </metadata>
 <defs>
  <style type="text/css">*{stroke-linejoin: round; stroke-linecap: butt}</style>
 </defs>
 <g id="figure_1">
  <g id="patch_1">
   <path d="M 0 345.6 
L 460.8 345.6 
L 460.8 0 
L 0 0 
z
" style="fill: #ffffff"/>
  </g>
  <g id="axes_1">
   <g id="patch_2">
    <path d="M 57.6 307.584 
L 414.72 307.584 
L 414.72 41.472 
L 57.6 41.472 
z
" style="fill: #ffffff"/>
   </g>
   <g id="matplotlib.axis_1">
    <g id="xtick_1">
     <g id="line2d_1">
      <defs>
       <path id="m1b0e06489f" d="M 0 0 
L 0 3.5 
" style="stroke: #000000; stroke-width: 0.8"/>
      </defs>
      <g>
       <use xlink:href="#m1b0e06489f" x="73.832727" y="307.584" style="stroke: #000000; stroke-width: 0.8"/>
      </g>
     </g>
     <g id="text_1">
      <!-- 0 -->
      <g transform="translate(70.651477 322.182437) scale(0.1 -0.1)">
       <defs>
        <path id="DejaVuSans-30" d="M 2034 4250 
Q 1547 4250 1301 3770 
Q 1056 3291 1056 2328 
Q 1056 1369 1301 889 
Q 1547 409 2034 409 
Q 2525 409 2770 889 
Q 3016 1369 3016 2328 
Q 3016 3291 2770 3770 
Q 2525 4250 2034 4250 
z
M 2034 4750 
Q 2819 4750 3233 4129 
Q 3647 3509 3647 2328 
Q 3647 1150 3233 529 
Q 2819 -91 2034 -91 
Q 1250 -91 836 529 
Q 422 1150 422 2328 
Q 422 3509 836 4129 
Q 1250 4750 2034 4750 
z
" transform="scale(0.015625)"/>
       </defs>
       <use xlink:href="#DejaVuSans-30"/>
      </g>
     </g>
    </g>
    <g id="xtick_2">
     <g id="line2d_2">
      <g>
       <use xlink:href="#m1b0e06489f" x="149.333784" y="307.584" style="stroke: #000000; stroke-width: 0.8"/>
      </g>
     </g>
     <g id="text_2">
      <!-- 50 -->
      <g transform="translate(142.971284 322.182437) scale(0.1 -0.1)">
       <defs>
        <path id="DejaVuSans-35" d="M 691 4666 
L 3169 4666 
L 3169 4134 
L 1269 4134 
L 1269 2991 
Q 1406 3038 1543 3061 
Q 1681 3084 1819 3084 
Q 2600 3084 3056 2656 
Q 3513 2228 3513 1497 
Q 3513 744 3044 326 
Q 2575 -91 1722 -91 
Q 1428 -91 1123 -41 
Q 819 9 494 109 
L 494 744 
Q 775 591 1075 516 
Q 1375 441 1709 441 
Q 2250 441 2565 725 
Q 2881 1009 2881 1497 
Q 2881 1984 2565 2268 
Q 2250 2553 1709 2553 
Q 1456 2553 1204 2497 
Q 953 2441 691 2322 
L 691 4666 
z
" transform="scale(0.015625)"/>
       </defs>
       <use xlink:href="#DejaVuSans-35"/>
       <use xlink:href="#DejaVuSans-30" x="63.623047"/>
      </g>
     </g>
    </g>
    <g id="xtick_3">
     <g id="line2d_3">
      <g>
       <use xlink:href="#m1b0e06489f" x="224.834841" y="307.584" style="stroke: #000000; stroke-width: 0.8"/>
      </g>
     </g>
     <g id="text_3">
      <!-- 100 -->
      <g transform="translate(215.291091 322.182437) scale(0.1 -0.1)">
       <defs>
        <path id="DejaVuSans-31" d="M 794 531 
L 1825 531 
L 1825 4091 
L 703 3866 
L 703 4441 
L 1819 4666 
L 2450 4666 
L 2450 531 
L 3481 531 
L 3481 0 
L 794 0 
L 794 531 
z
" transform="scale(0.015625)"/>
       </defs>
       <use xlink:href="#DejaVuSans-31"/>
       <use xlink:href="#DejaVuSans-30" x="63.623047"/>
       <use xlink:href="#DejaVuSans-30" x="127.246094"/>
      </g>
     </g>
    </g>
    <g id="xtick_4">
     <g id="line2d_4">
      <g>
       <use xlink:href="#m1b0e06489f" x="300.335899" y="307.584" style="stroke: #000000; stroke-width: 0.8"/>
      </g>
     </g>
     <g id="text_4">
      <!-- 150 -->
      <g transform="translate(290.792149 322.182437) scale(0.1 -0.1)">
       <use xlink:href="#DejaVuSans-31"/>
       <use xlink:href="#DejaVuSans-35" x="63.623047"/>
       <use xlink:href="#DejaVuSans-30" x="127.246094"/>
      </g>
     </g>
    </g>
    <g id="xtick_5">
     <g id="line2d_5">
      <g>
       <use xlink:href="#m1b0e06489f" x="375.836956" y="307.584" style="stroke: #000000; stroke-width: 0.8"/>
      </g>
     </g>
     <g id="text_5">
      <!-- 200 -->
      <g transform="translate(366.293206 322.182437) scale(0.1 -0.1)">
       <defs>
        <path id="DejaVuSans-32" d="M 1228 531 
L 3431 531 
L 3431 0 
L 469 0 
L 469 531 
Q 828 903 1448 1529 
Q 2069 2156 2228 2338 
Q 2531 2678 2651 2914 
Q 2772 3150 2772 3378 
Q 2772 3750 2511 3984 
Q 2250 4219 1831 4219 
Q 1534 4219 1204 4116 
Q 875 4013 500 3803 
L 500 4441 
Q 881 4594 1212 4672 
Q 1544 4750 1819 4750 
Q 2544 4750 2975 4387 
Q 3406 4025 3406 3419 
Q 3406 3131 3298 2873 
Q 3191 2616 2906 2266 
Q 2828 2175 2409 1742 
Q 1991 1309 1228 531 
z
" transform="scale(0.015625)"/>
       </defs>
       <use xlink:href="#DejaVuSans-32"/>
       <use xlink:href="#DejaVuSans-30" x="63.623047"/>
       <use xlink:href="#DejaVuSans-30" x="127.246094"/>
      </g>
     </g>
    </g>
   </g>
   <g id="matplotlib.axis_2">
    <g id="ytick_1">
     <g id="line2d_6">
      <defs>
       <path id="ma863f7a573" d="M 0 0 
L -3.5 0 
" style="stroke: #000000; stroke-width: 0.8"/>
      </defs>
      <g>
       <use xlink:href="#ma863f7a573" x="57.6" y="307.360387" style="stroke: #000000; stroke-width: 0.8"/>
      </g>
     </g>
     <g id="text_6">
      <!-- −8000 -->
      <g transform="translate(16.770313 311.159606) scale(0.1 -0.1)">
       <defs>
        <path id="DejaVuSans-2212" d="M 678 2272 
L 4684 2272 
L 4684 1741 
L 678 1741 
L 678 2272 
z
" transform="scale(0.015625)"/>
        <path id="DejaVuSans-38" d="M 2034 2216 
Q 1584 2216 1326 1975 
Q 1069 1734 1069 1313 
Q 1069 891 1326 650 
Q 1584 409 2034 409 
Q 2484 409 2743 651 
Q 3003 894 3003 1313 
Q 3003 1734 2745 1975 
Q 2488 2216 2034 2216 
z
M 1403 2484 
Q 997 2584 770 2862 
Q 544 3141 544 3541 
Q 544 4100 942 4425 
Q 1341 4750 2034 4750 
Q 2731 4750 3128 4425 
Q 3525 4100 3525 3541 
Q 3525 3141 3298 2862 
Q 3072 2584 2669 2484 
Q 3125 2378 3379 2068 
Q 3634 1759 3634 1313 
Q 3634 634 3220 271 
Q 2806 -91 2034 -91 
Q 1263 -91 848 271 
Q 434 634 434 1313 
Q 434 1759 690 2068 
Q 947 2378 1403 2484 
z
M 1172 3481 
Q 1172 3119 1398 2916 
Q 1625 2713 2034 2713 
Q 2441 2713 2670 2916 
Q 2900 3119 2900 3481 
Q 2900 3844 2670 4047 
Q 2441 4250 2034 4250 
Q 1625 4250 1398 4047 
Q 1172 3844 1172 3481 
z
" transform="scale(0.015625)"/>
       </defs>
       <use xlink:href="#DejaVuSans-2212"/>
       <use xlink:href="#DejaVuSans-38" x="83.789062"/>
       <use xlink:href="#DejaVuSans-30" x="147.412109"/>
       <use xlink:href="#DejaVuSans-30" x="211.035156"/>
       <use xlink:href="#DejaVuSans-30" x="274.658203"/>
      </g>
     </g>
    </g>
    <g id="ytick_2">
     <g id="line2d_7">
      <g>
       <use xlink:href="#ma863f7a573" x="57.6" y="274.800258" style="stroke: #000000; stroke-width: 0.8"/>
      </g>
     </g>
     <g id="text_7">
      <!-- −6000 -->
      <g transform="translate(16.770313 278.599477) scale(0.1 -0.1)">
       <defs>
        <path id="DejaVuSans-36" d="M 2113 2584 
Q 1688 2584 1439 2293 
Q 1191 2003 1191 1497 
Q 1191 994 1439 701 
Q 1688 409 2113 409 
Q 2538 409 2786 701 
Q 3034 994 3034 1497 
Q 3034 2003 2786 2293 
Q 2538 2584 2113 2584 
z
M 3366 4563 
L 3366 3988 
Q 3128 4100 2886 4159 
Q 2644 4219 2406 4219 
Q 1781 4219 1451 3797 
Q 1122 3375 1075 2522 
Q 1259 2794 1537 2939 
Q 1816 3084 2150 3084 
Q 2853 3084 3261 2657 
Q 3669 2231 3669 1497 
Q 3669 778 3244 343 
Q 2819 -91 2113 -91 
Q 1303 -91 875 529 
Q 447 1150 447 2328 
Q 447 3434 972 4092 
Q 1497 4750 2381 4750 
Q 2619 4750 2861 4703 
Q 3103 4656 3366 4563 
z
" transform="scale(0.015625)"/>
       </defs>
       <use xlink:href="#DejaVuSans-2212"/>
       <use xlink:href="#DejaVuSans-36" x="83.789062"/>
       <use xlink:href="#DejaVuSans-30" x="147.412109"/>
       <use xlink:href="#DejaVuSans-30" x="211.035156"/>
       <use xlink:href="#DejaVuSans-30" x="274.658203"/>
      </g>
     </g>
    </g>
    <g id="ytick_3">
     <g id="line2d_8">
      <g>
       <use xlink:href="#ma863f7a573" x="57.6" y="242.240129" style="stroke: #000000; stroke-width: 0.8"/>
      </g>
     </g>
     <g id="text_8">
      <!-- −4000 -->
      <g transform="translate(16.770313 246.039347) scale(0.1 -0.1)">
       <defs>
        <path id="DejaVuSans-34" d="M 2419 4116 
L 825 1625 
L 2419 1625 
L 2419 4116 
z
M 2253 4666 
L 3047 4666 
L 3047 1625 
L 3713 1625 
L 3713 1100 
L 3047 1100 
L 3047 0 
L 2419 0 
L 2419 1100 
L 313 1100 
L 313 1709 
L 2253 4666 
z
" transform="scale(0.015625)"/>
       </defs>
       <use xlink:href="#DejaVuSans-2212"/>
       <use xlink:href="#DejaVuSans-34" x="83.789062"/>
       <use xlink:href="#DejaVuSans-30" x="147.412109"/>
       <use xlink:href="#DejaVuSans-30" x="211.035156"/>
       <use xlink:href="#DejaVuSans-30" x="274.658203"/>
      </g>
     </g>
    </g>
    <g id="ytick_4">
     <g id="line2d_9">
      <g>
       <use xlink:href="#ma863f7a573" x="57.6" y="209.68" style="stroke: #000000; stroke-width: 0.8"/>
      </g>
     </g>
     <g id="text_9">
      <!-- −2000 -->
      <g transform="translate(16.770313 213.479218) scale(0.1 -0.1)">
       <use xlink:href="#DejaVuSans-2212"/>
       <use xlink:href="#DejaVuSans-32" x="83.789062"/>
       <use xlink:href="#DejaVuSans-30" x="147.412109"/>
       <use xlink:href="#DejaVuSans-30" x="211.035156"/>
       <use xlink:href="#DejaVuSans-30" x="274.658203"/>
      </g>
     </g>
    </g>
    <g id="ytick_5">
     <g id="line2d_10">
      <g>
       <use xlink:href="#ma863f7a573" x="57.6" y="177.11987" style="stroke: #000000; stroke-width: 0.8"/>
      </g>
     </g>
     <g id="text_10">
      <!-- 0 -->
      <g transform="translate(44.2375 180.919089) scale(0.1 -0.1)">
       <use xlink:href="#DejaVuSans-30"/>
      </g>
     </g>
    </g>
    <g id="ytick_6">
     <g id="line2d_11">
      <g>
       <use xlink:href="#ma863f7a573" x="57.6" y="144.559741" style="stroke: #000000; stroke-width: 0.8"/>
      </g>
     </g>
     <g id="text_11">
      <!-- 2000 -->
      <g transform="translate(25.15 148.35896) scale(0.1 -0.1)">
       <use xlink:href="#DejaVuSans-32"/>
       <use xlink:href="#DejaVuSans-30" x="63.623047"/>
       <use xlink:href="#DejaVuSans-30" x="127.246094"/>
       <use xlink:href="#DejaVuSans-30" x="190.869141"/>
      </g>
     </g>
    </g>
    <g id="ytick_7">
     <g id="line2d_12">
      <g>
       <use xlink:href="#ma863f7a573" x="57.6" y="111.999612" style="stroke: #000000; stroke-width: 0.8"/>
      </g>
     </g>
     <g id="text_12">
      <!-- 4000 -->
      <g transform="translate(25.15 115.798831) scale(0.1 -0.1)">
       <use xlink:href="#DejaVuSans-34"/>
       <use xlink:href="#DejaVuSans-30" x="63.623047"/>
       <use xlink:href="#DejaVuSans-30" x="127.246094"/>
       <use xlink:href="#DejaVuSans-30" x="190.869141"/>
      </g>
     </g>
    </g>
    <g id="ytick_8">
     <g id="line2d_13">
      <g>
       <use xlink:href="#ma863f7a573" x="57.6" y="79.439483" style="stroke: #000000; stroke-width: 0.8"/>
      </g>
     </g>
     <g id="text_13">
      <!-- 6000 -->
      <g transform="translate(25.15 83.238702) scale(0.1 -0.1)">
       <use xlink:href="#DejaVuSans-36"/>
       <use xlink:href="#DejaVuSans-30" x="63.623047"/>
       <use xlink:href="#DejaVuSans-30" x="127.246094"/>
       <use xlink:href="#DejaVuSans-30" x="190.869141"/>
      </g>
     </g>
    </g>
    <g id="ytick_9">
     <g id="line2d_14">
      <g>
       <use xlink:href="#ma863f7a573" x="57.6" y="46.879354" style="stroke: #000000; stroke-width: 0.8"/>
      </g>
     </g>
     <g id="text_14">
      <!-- 8000 -->
      <g transform="translate(25.15 50.678572) scale(0.1 -0.1)">
       <use xlink:href="#DejaVuSans-38"/>
       <use xlink:href="#DejaVuSans-30" x="63.623047"/>
       <use xlink:href="#DejaVuSans-30" x="127.246094"/>
       <use xlink:href="#DejaVuSans-30" x="190.869141"/>
      </g>
     </g>
    </g>
   </g>
   <g id="line2d_15">
    <path d="M 73.832727 177.311594 
L 75.342748 182.770494 
L 76.85277 177.644567 
L 78.362791 175.688539 
L 79.872812 177.169387 
L 81.382833 175.001688 
L 84.402875 181.312583 
L 85.912896 178.416388 
L 87.422918 177.355003 
L 88.932939 176.88575 
L 90.44296 175.994099 
L 91.952981 177.967833 
L 93.463002 176.57115 
L 94.973023 176.911004 
L 96.483044 178.601278 
L 97.993066 178.894534 
L 99.503087 178.810229 
L 101.013108 174.47811 
L 102.523129 177.845024 
L 104.03315 178.708978 
L 105.543171 176.536804 
L 107.053192 177.282895 
L 108.563214 178.204428 
L 110.073235 177.419927 
L 114.603298 177.478319 
L 117.62334 174.644408 
L 119.133362 177.170697 
L 120.643383 177.168142 
L 122.153404 178.557173 
L 123.663425 177.540124 
L 125.173446 177.198957 
L 126.683467 177.495155 
L 128.193488 177.310688 
L 129.70351 177.783682 
L 131.213531 177.821131 
L 132.723552 177.649204 
L 134.233573 177.721134 
L 135.743594 177.369518 
L 137.253615 179.166498 
L 138.763636 177.468111 
L 140.273658 177.639869 
L 141.783679 178.350144 
L 143.2937 181.275799 
L 144.803721 177.059521 
L 146.313742 176.72107 
L 149.333784 181.018059 
L 150.843805 177.515524 
L 152.353827 175.617249 
L 153.863848 176.493443 
L 155.373869 178.871216 
L 156.88389 177.30042 
L 158.393911 176.414529 
L 159.903932 177.120165 
L 161.413953 177.309237 
L 162.923975 176.655316 
L 164.433996 174.518358 
L 165.944017 177.163512 
L 167.454038 176.835673 
L 168.964059 179.165786 
L 170.47408 176.40849 
L 171.984101 175.426794 
L 173.494123 176.910943 
L 175.004144 176.927636 
L 176.514165 177.226085 
L 178.024186 177.266402 
L 179.534207 178.839566 
L 181.044228 178.031271 
L 182.554249 178.611948 
L 184.064271 178.197674 
L 185.574292 176.408594 
L 187.084313 175.52559 
L 188.594334 176.099182 
L 190.104355 174.492335 
L 191.614376 177.642488 
L 193.124397 178.674603 
L 194.634419 177.066879 
L 196.14444 179.864565 
L 197.654461 178.497238 
L 199.164482 177.422305 
L 200.674503 176.73102 
L 202.184524 177.734193 
L 203.694545 176.609061 
L 205.204567 176.760929 
L 206.714588 177.663337 
L 208.224609 176.759211 
L 209.73463 180.045646 
L 211.244651 178.281266 
L 212.754672 178.215896 
L 214.264693 175.636487 
L 215.774715 175.462729 
L 217.284736 178.304481 
L 218.794757 176.802368 
L 220.304778 176.929521 
L 221.814799 178.328059 
L 223.32482 179.996093 
L 224.834841 181.198071 
L 226.344863 177.700583 
L 227.854884 181.574486 
L 229.364905 177.733474 
L 230.874926 177.469664 
L 232.384947 185.526476 
L 233.894968 188.796592 
L 235.404989 188.524653 
L 236.915011 165.574727 
L 238.425032 185.27439 
L 239.935053 192.390869 
L 241.445074 179.371735 
L 242.955095 176.802101 
L 244.465116 187.907903 
L 245.975137 169.681965 
L 247.485159 188.007712 
L 248.99518 183.58233 
L 250.505201 155.26835 
L 252.015222 181.915013 
L 253.525243 170.944228 
L 255.035264 158.557443 
L 256.545285 177.629604 
L 258.055307 176.647192 
L 259.565328 168.072101 
L 261.075349 178.399555 
L 262.58537 173.661097 
L 264.095391 178.324512 
L 265.605412 185.961193 
L 268.625455 184.680073 
L 270.135476 175.923627 
L 271.645497 170.760534 
L 273.155518 169.38622 
L 274.665539 188.858755 
L 276.17556 191.919303 
L 277.685581 184.262187 
L 279.195603 175.113699 
L 280.705624 182.531976 
L 282.215645 167.93411 
L 283.725666 172.242758 
L 285.235687 160.788893 
L 286.745708 176.145608 
L 288.255729 177.206703 
L 289.765751 168.196237 
L 291.275772 176.526639 
L 292.785793 170.986736 
L 294.295814 186.572389 
L 295.805835 170.147127 
L 297.315856 182.000165 
L 298.825877 170.713588 
L 300.335899 179.787429 
L 301.84592 186.264567 
L 303.355941 169.820161 
L 304.865962 174.755151 
L 306.375983 172.13792 
L 307.886004 163.343417 
L 309.396025 176.982216 
L 310.906047 175.546004 
L 312.416068 178.200683 
L 313.926089 158.77508 
L 315.43611 179.106394 
L 316.946131 179.417861 
L 318.456152 178.278909 
L 319.966173 179.243896 
L 321.476195 175.938885 
L 322.986216 177.281265 
L 324.496237 171.68013 
L 327.516279 178.577009 
L 329.0263 176.171537 
L 330.536321 178.257732 
L 332.046342 175.947839 
L 333.556364 179.512631 
L 335.066385 177.890089 
L 336.576406 169.918388 
L 338.086427 176.503201 
L 339.596448 177.829392 
L 341.106469 177.722594 
L 342.61649 176.240223 
L 344.126512 177.127465 
L 345.636533 183.780913 
L 347.146554 179.751557 
L 348.656575 178.35952 
L 350.166596 174.369966 
L 351.676617 180.513859 
L 353.186638 174.575534 
L 354.69666 180.206267 
L 356.206681 182.082304 
L 357.716702 178.094832 
L 359.226723 180.763933 
L 360.736744 172.170582 
L 362.246765 179.146387 
L 363.756786 173.879902 
L 366.776829 178.214027 
L 368.28685 175.132467 
L 369.796871 184.786742 
L 371.306892 177.73355 
L 372.816913 177.504344 
L 374.326934 174.72159 
L 375.836956 175.475658 
L 377.346977 177.425193 
L 378.856998 171.498766 
L 380.367019 176.643511 
L 381.87704 175.985075 
L 383.387061 179.307173 
L 384.897082 179.324862 
L 386.407104 175.20341 
L 387.917125 181.96823 
L 389.427146 184.701601 
L 390.937167 181.262936 
L 392.447188 177.209329 
L 393.957209 177.324284 
L 395.46723 186.786026 
L 396.977252 176.697976 
L 398.487273 174.464728 
L 398.487273 174.464728 
" clip-path="url(#p40d5e32af0)" style="fill: none; stroke: #008000; stroke-opacity: 0.8; stroke-width: 0.5; stroke-linecap: square"/>
   </g>
   <g id="line2d_16">
    <path d="M 73.832727 158.178034 
L 75.342748 168.869751 
L 76.85277 166.241046 
L 79.872812 163.083361 
L 81.382833 165.358027 
L 82.892854 168.412203 
L 84.402875 173.551137 
L 85.912896 163.823646 
L 87.422918 173.053585 
L 88.932939 167.894145 
L 90.44296 169.889335 
L 91.952981 174.401487 
L 93.463002 165.602757 
L 94.973023 167.261659 
L 96.483044 176.359832 
L 97.993066 171.011425 
L 99.503087 173.583388 
L 101.013108 170.353058 
L 102.523129 171.400726 
L 104.03315 174.410083 
L 105.543171 168.275913 
L 107.053192 173.665016 
L 110.073235 176.670641 
L 111.583256 172.167268 
L 113.093277 176.41806 
L 114.603298 175.005781 
L 116.113319 167.383641 
L 117.62334 165.283892 
L 119.133362 173.321242 
L 120.643383 174.778895 
L 122.153404 173.273256 
L 123.663425 174.268151 
L 125.173446 171.738074 
L 126.683467 175.465305 
L 128.193488 175.691252 
L 129.70351 176.678477 
L 131.213531 172.083844 
L 132.723552 176.100894 
L 134.233573 176.729836 
L 135.743594 176.508672 
L 137.253615 176.611597 
L 138.763636 173.178374 
L 140.273658 173.258039 
L 141.783679 176.787477 
L 143.2937 173.548599 
L 144.803721 168.500079 
L 146.313742 168.581667 
L 147.823763 172.966073 
L 149.333784 173.368327 
L 150.843805 147.290884 
L 152.353827 158.68658 
L 153.863848 154.12402 
L 155.373869 170.835864 
L 156.88389 168.884681 
L 158.393911 163.45377 
L 159.903932 170.195637 
L 161.413953 173.583921 
L 162.923975 174.573967 
L 164.433996 159.170723 
L 165.944017 172.937855 
L 167.454038 174.495476 
L 168.964059 168.08337 
L 170.47408 169.693271 
L 171.984101 170.993112 
L 173.494123 171.571276 
L 175.004144 174.599461 
L 176.514165 172.519988 
L 178.024186 174.719784 
L 179.534207 173.768475 
L 181.044228 173.371347 
L 182.554249 172.761142 
L 184.064271 174.629045 
L 185.574292 168.913234 
L 187.084313 168.724482 
L 188.594334 164.16299 
L 190.104355 129.362954 
L 191.614376 171.493697 
L 193.124397 175.693148 
L 194.634419 170.136859 
L 196.14444 172.239801 
L 197.654461 173.142265 
L 199.164482 163.562882 
L 200.674503 170.014147 
L 202.184524 166.806319 
L 203.694545 168.262488 
L 205.204567 172.047123 
L 206.714588 175.190227 
L 208.224609 174.746829 
L 209.73463 175.895492 
L 211.244651 165.659255 
L 212.754672 169.537965 
L 214.264693 170.501828 
L 215.774715 158.130207 
L 217.284736 173.299067 
L 218.794757 169.414945 
L 220.304778 174.090273 
L 221.814799 174.334303 
L 223.32482 175.876823 
L 224.834841 170.885734 
L 226.344863 165.170918 
L 227.854884 170.925383 
L 229.364905 151.294963 
L 230.874926 162.864169 
L 232.384947 165.996158 
L 233.894968 163.647673 
L 236.915011 99.924956 
L 238.425032 142.049779 
L 239.935053 151.204586 
L 241.445074 88.910949 
L 242.955095 134.094481 
L 244.465116 121.210923 
L 245.975137 127.765059 
L 247.485159 147.507326 
L 248.99518 141.616062 
L 250.505201 103.749521 
L 252.015222 113.58686 
L 253.525243 53.568 
L 255.035264 80.56793 
L 256.545285 132.198047 
L 258.055307 139.108899 
L 259.565328 111.364469 
L 261.075349 127.608974 
L 262.58537 151.744521 
L 264.095391 159.920407 
L 265.605412 149.888204 
L 267.115433 157.753453 
L 268.625455 155.409184 
L 270.135476 143.825925 
L 271.645497 81.858595 
L 273.155518 104.817162 
L 274.665539 143.285015 
L 276.17556 151.302663 
L 277.685581 114.924002 
L 279.195603 132.976771 
L 280.705624 144.32428 
L 282.215645 120.80936 
L 283.725666 116.304968 
L 285.235687 105.073507 
L 286.745708 121.993223 
L 288.255729 127.026713 
L 289.765751 138.852074 
L 291.275772 154.684151 
L 292.785793 108.070248 
L 294.295814 147.70012 
L 295.805835 121.052029 
L 297.315856 149.308574 
L 298.825877 122.856746 
L 300.335899 159.686558 
L 301.84592 170.202364 
L 303.355941 138.539901 
L 304.865962 133.097418 
L 306.375983 138.733688 
L 307.886004 115.660019 
L 309.396025 142.972881 
L 310.906047 157.010473 
L 312.416068 144.486684 
L 313.926089 107.386906 
L 315.43611 165.269769 
L 316.946131 168.668996 
L 319.966173 156.723563 
L 321.476195 171.55446 
L 322.986216 166.518113 
L 324.496237 139.010849 
L 326.006258 161.192972 
L 327.516279 143.276501 
L 329.0263 165.531197 
L 330.536321 172.703911 
L 332.046342 170.408975 
L 333.556364 173.460095 
L 335.066385 169.164627 
L 336.576406 133.76203 
L 338.086427 168.881756 
L 339.596448 173.393998 
L 341.106469 169.743614 
L 342.61649 165.407497 
L 344.126512 173.791843 
L 345.636533 176.65988 
L 348.656575 161.818485 
L 350.166596 158.799277 
L 351.676617 165.885654 
L 353.186638 158.918872 
L 354.69666 154.990068 
L 356.206681 162.85853 
L 357.716702 163.087305 
L 359.226723 174.817761 
L 360.736744 151.339845 
L 363.756786 164.612126 
L 365.266808 162.503583 
L 366.776829 169.145848 
L 368.28685 154.885084 
L 369.796871 164.092279 
L 371.306892 167.182182 
L 372.816913 167.136764 
L 374.326934 158.384673 
L 375.836956 162.211901 
L 377.346977 173.670532 
L 378.856998 143.834357 
L 381.87704 166.123806 
L 383.387061 167.826746 
L 384.897082 171.767891 
L 386.407104 168.585627 
L 387.917125 175.120873 
L 389.427146 171.324317 
L 390.937167 168.829458 
L 392.447188 148.839596 
L 393.957209 149.86332 
L 395.46723 169.506021 
L 396.977252 135.609695 
L 398.487273 159.106722 
L 398.487273 159.106722 
" clip-path="url(#p40d5e32af0)" style="fill: none; stroke: #32cd32; stroke-opacity: 0.8; stroke-width: 0.5; stroke-linecap: square"/>
   </g>
   <g id="line2d_17">
    <path d="M 73.832727 193.240613 
L 75.342748 193.62735 
L 76.85277 189.729759 
L 78.362791 189.868605 
L 79.872812 184.909302 
L 81.382833 180.583609 
L 82.892854 184.357095 
L 84.402875 193.201627 
L 85.912896 190.287502 
L 87.422918 185.984039 
L 88.932939 182.08974 
L 90.44296 183.321949 
L 91.952981 179.711289 
L 93.463002 183.148057 
L 94.973023 182.954976 
L 96.483044 181.491617 
L 97.993066 187.125158 
L 99.503087 189.207017 
L 101.013108 178.201531 
L 102.523129 181.93874 
L 105.543171 180.099508 
L 107.053192 180.282626 
L 108.563214 181.068156 
L 110.073235 178.749779 
L 111.583256 182.514531 
L 113.093277 177.909353 
L 114.603298 178.493794 
L 116.113319 178.624458 
L 117.62334 180.030734 
L 119.133362 184.714642 
L 120.643383 179.854533 
L 122.153404 183.902921 
L 123.663425 181.952926 
L 125.173446 181.320596 
L 126.683467 178.697496 
L 128.193488 178.162478 
L 129.70351 181.887086 
L 131.213531 181.452152 
L 132.723552 179.692001 
L 135.743594 178.104937 
L 137.253615 189.208987 
L 138.763636 179.688369 
L 140.273658 180.218707 
L 141.783679 181.674696 
L 143.2937 191.055946 
L 144.803721 192.410148 
L 146.313742 187.40371 
L 147.823763 184.823373 
L 149.333784 187.296802 
L 150.843805 197.129546 
L 152.353827 190.780608 
L 153.863848 193.069971 
L 155.373869 185.019726 
L 156.88389 190.796778 
L 158.393911 186.494223 
L 159.903932 186.809818 
L 161.413953 181.714351 
L 162.923975 178.319733 
L 164.433996 180.350059 
L 165.944017 183.23097 
L 167.454038 181.062231 
L 168.964059 196.273957 
L 170.47408 181.175216 
L 171.984101 178.199745 
L 173.494123 182.371336 
L 175.004144 180.463749 
L 176.514165 187.638439 
L 178.024186 182.482903 
L 179.534207 183.672336 
L 181.044228 188.369399 
L 182.554249 184.528116 
L 184.064271 184.255746 
L 185.574292 184.559194 
L 187.084313 181.457554 
L 188.594334 182.487377 
L 190.104355 192.80061 
L 191.614376 186.818085 
L 193.124397 185.080405 
L 194.634419 184.984699 
L 196.14444 193.414233 
L 197.654461 188.318658 
L 199.164482 184.79005 
L 200.674503 182.841818 
L 202.184524 188.694555 
L 203.694545 179.788545 
L 205.204567 182.8165 
L 206.714588 182.110293 
L 208.224609 177.786439 
L 209.73463 194.860425 
L 211.244651 185.971685 
L 212.754672 183.036703 
L 214.264693 179.14833 
L 215.774715 181.868593 
L 217.284736 182.988228 
L 218.794757 185.541623 
L 220.304778 179.365427 
L 221.814799 181.184603 
L 223.32482 191.919364 
L 224.834841 200.655675 
L 226.344863 187.615355 
L 227.854884 192.201424 
L 229.364905 200.629898 
L 230.874926 189.17782 
L 232.384947 207.859617 
L 233.894968 221.707303 
L 235.404989 232.066578 
L 236.915011 212.360977 
L 238.425032 226.262865 
L 239.935053 295.488 
L 241.445074 245.090758 
L 242.955095 249.829783 
L 244.465116 240.181337 
L 245.975137 210.153974 
L 247.485159 232.486446 
L 248.99518 235.262121 
L 250.505201 188.741007 
L 252.015222 258.329514 
L 253.525243 243.183078 
L 255.035264 240.910764 
L 256.545285 203.770972 
L 258.055307 239.906976 
L 259.565328 196.696688 
L 261.075349 216.986497 
L 262.58537 191.864263 
L 264.095391 214.415613 
L 265.605412 213.048874 
L 267.115433 218.542286 
L 268.625455 231.522997 
L 270.135476 211.169287 
L 271.645497 206.1268 
L 273.155518 211.409685 
L 274.665539 247.189583 
L 276.17556 239.294476 
L 277.685581 246.160869 
L 279.195603 211.432015 
L 280.705624 245.569611 
L 282.215645 202.293107 
L 283.725666 216.265553 
L 285.235687 196.474813 
L 286.745708 213.933194 
L 288.255729 211.82776 
L 289.765751 199.228274 
L 291.275772 196.549772 
L 292.785793 197.179074 
L 294.295814 247.621432 
L 295.805835 209.176339 
L 297.315856 266.132822 
L 298.825877 229.691973 
L 300.335899 206.445125 
L 301.84592 214.559144 
L 303.355941 188.88059 
L 304.865962 194.90798 
L 306.375983 195.160456 
L 307.886004 208.584318 
L 309.396025 202.917852 
L 310.906047 191.473073 
L 312.416068 214.085724 
L 313.926089 182.993483 
L 315.43611 202.066436 
L 316.946131 194.786309 
L 318.456152 204.829356 
L 319.966173 204.572069 
L 321.476195 187.750804 
L 322.986216 189.780365 
L 324.496237 183.039671 
L 326.006258 188.152447 
L 327.516279 210.461491 
L 329.0263 191.174676 
L 330.536321 188.675897 
L 332.046342 180.739042 
L 333.556364 189.281854 
L 335.066385 192.31786 
L 336.576406 204.8731 
L 338.086427 183.949675 
L 339.596448 188.874552 
L 341.106469 186.446973 
L 342.61649 184.69157 
L 344.126512 180.078403 
L 345.636533 194.430836 
L 347.146554 202.935669 
L 348.656575 189.14136 
L 350.166596 185.24839 
L 351.676617 211.022415 
L 353.186638 185.164828 
L 354.69666 210.153705 
L 356.206681 215.62455 
L 357.716702 194.591503 
L 359.226723 198.48423 
L 360.736744 192.493722 
L 362.246765 194.107772 
L 363.756786 188.172078 
L 365.266808 183.106726 
L 366.776829 196.828412 
L 368.28685 201.093504 
L 369.796871 204.673208 
L 371.306892 185.703077 
L 372.816913 194.639007 
L 374.326934 182.081876 
L 377.346977 186.518668 
L 378.856998 179.039404 
L 380.367019 203.415653 
L 381.87704 184.952645 
L 383.387061 187.948642 
L 384.897082 193.554425 
L 386.407104 185.652954 
L 387.917125 199.153705 
L 389.427146 227.337877 
L 390.937167 193.848512 
L 392.447188 215.096885 
L 393.957209 203.301827 
L 395.46723 211.103797 
L 396.977252 200.363205 
L 398.487273 191.922412 
L 398.487273 191.922412 
" clip-path="url(#p40d5e32af0)" style="fill: none; stroke: #32cd32; stroke-opacity: 0.8; stroke-width: 0.5; stroke-linecap: square"/>
   </g>
   <g id="line2d_18">
    <path d="M 73.832727 177.311594 
L 75.342748 182.770494 
L 76.85277 177.644567 
L 78.362791 175.688539 
L 79.872812 177.169387 
L 81.382833 175.001688 
L 84.402875 181.312583 
L 85.912896 178.416388 
L 87.422918 177.355003 
L 88.932939 176.88575 
L 90.44296 175.994099 
L 91.952981 177.967833 
L 93.463002 176.57115 
L 94.973023 176.911004 
L 96.483044 178.601278 
L 97.993066 178.894534 
L 99.503087 178.810229 
L 101.013108 174.47811 
L 102.523129 177.845024 
L 104.03315 178.708978 
L 105.543171 176.536804 
L 107.053192 177.282895 
L 108.563214 178.204428 
L 110.073235 177.419927 
L 114.603298 177.478319 
L 117.62334 174.644408 
L 119.133362 177.170697 
L 120.643383 177.168142 
L 122.153404 178.557173 
L 123.663425 177.540124 
L 125.173446 177.198957 
L 126.683467 177.495155 
L 128.193488 177.310688 
L 129.70351 177.783682 
L 131.213531 177.821131 
L 132.723552 177.649204 
L 134.233573 177.721134 
L 135.743594 177.369518 
L 137.253615 179.166498 
L 138.763636 177.468111 
L 140.273658 177.639869 
L 141.783679 178.350144 
L 143.2937 181.275799 
L 144.803721 177.059521 
L 146.313742 176.72107 
L 149.333784 181.018059 
L 150.843805 177.515524 
L 152.353827 175.617249 
L 153.863848 176.493443 
L 155.373869 178.871216 
L 156.88389 177.30042 
L 158.393911 176.414529 
L 159.903932 177.120165 
L 161.413953 177.309237 
L 162.923975 176.655316 
L 164.433996 174.518358 
L 165.944017 177.163512 
L 167.454038 176.835673 
L 168.964059 179.165786 
L 170.47408 176.40849 
L 171.984101 175.426794 
L 173.494123 176.910943 
L 175.004144 176.927636 
L 176.514165 177.226085 
L 178.024186 177.266402 
L 179.534207 178.839566 
L 181.044228 178.031271 
L 182.554249 178.611948 
L 184.064271 178.197674 
L 185.574292 176.408594 
L 187.084313 175.52559 
L 188.594334 176.099182 
L 190.104355 174.492335 
L 191.614376 177.642488 
L 193.124397 178.674603 
L 194.634419 177.066879 
L 196.14444 179.864565 
L 197.654461 178.497238 
L 199.164482 177.422305 
L 200.674503 176.73102 
L 202.184524 177.734193 
L 203.694545 176.609061 
L 205.204567 176.760929 
L 206.714588 177.663337 
L 208.224609 176.759211 
L 209.73463 180.045646 
L 211.244651 178.281266 
L 212.754672 178.215896 
L 214.264693 175.636487 
L 215.774715 175.462729 
L 217.284736 178.304481 
L 218.794757 176.802368 
L 220.304778 176.929521 
L 221.814799 178.328059 
L 223.32482 179.996093 
L 224.834841 181.198071 
L 226.344863 177.700583 
L 227.854884 181.574486 
L 229.364905 177.733474 
L 230.874926 177.469664 
L 232.384947 185.526476 
L 233.894968 188.796592 
L 235.404989 188.524653 
L 236.915011 165.574727 
L 238.425032 185.27439 
L 239.935053 192.390869 
L 241.445074 179.371735 
L 242.955095 176.802101 
L 244.465116 187.907903 
L 245.975137 169.681965 
L 247.485159 188.007712 
L 248.99518 183.58233 
L 250.505201 155.26835 
L 252.015222 181.915013 
L 253.525243 170.944228 
L 255.035264 158.557443 
L 256.545285 177.629604 
L 258.055307 176.647192 
L 259.565328 168.072101 
L 261.075349 178.399555 
L 262.58537 173.661097 
L 264.095391 178.324512 
L 265.605412 185.961193 
L 268.625455 184.680073 
L 270.135476 175.923627 
L 271.645497 170.760534 
L 273.155518 169.38622 
L 274.665539 188.858755 
L 276.17556 191.919303 
L 277.685581 184.262187 
L 279.195603 175.113699 
L 280.705624 182.531976 
L 282.215645 167.93411 
L 283.725666 172.242758 
L 285.235687 160.788893 
L 286.745708 176.145608 
L 288.255729 177.206703 
L 289.765751 168.196237 
L 291.275772 176.526639 
L 292.785793 170.986736 
L 294.295814 186.572389 
L 295.805835 170.147127 
L 297.315856 182.000165 
L 298.825877 170.713588 
L 300.335899 179.787429 
L 301.84592 186.264567 
L 303.355941 169.820161 
L 304.865962 174.755151 
L 306.375983 172.13792 
L 307.886004 163.343417 
L 309.396025 176.982216 
L 310.906047 175.546004 
L 312.416068 178.200683 
L 313.926089 158.77508 
L 315.43611 179.106394 
L 316.946131 179.417861 
L 318.456152 178.278909 
L 319.966173 179.243896 
L 321.476195 175.938885 
L 322.986216 177.281265 
L 324.496237 171.68013 
L 327.516279 178.577009 
L 329.0263 176.171537 
L 330.536321 178.257732 
L 332.046342 175.947839 
L 333.556364 179.512631 
L 335.066385 177.890089 
L 336.576406 169.918388 
L 338.086427 176.503201 
L 339.596448 177.829392 
L 341.106469 177.722594 
L 342.61649 176.240223 
L 344.126512 177.127465 
L 345.636533 183.780913 
L 347.146554 179.751557 
L 348.656575 178.35952 
L 350.166596 174.369966 
L 351.676617 180.513859 
L 353.186638 174.575534 
L 354.69666 180.206267 
L 356.206681 182.082304 
L 357.716702 178.094832 
L 359.226723 180.763933 
L 360.736744 172.170582 
L 362.246765 179.146387 
L 363.756786 173.879902 
L 366.776829 178.214027 
L 368.28685 175.132467 
L 369.796871 184.786742 
L 371.306892 177.73355 
L 372.816913 177.504344 
L 374.326934 174.72159 
L 375.836956 175.475658 
L 377.346977 177.425193 
L 378.856998 171.498766 
L 380.367019 176.643511 
L 381.87704 175.985075 
L 383.387061 179.307173 
L 384.897082 179.324862 
L 386.407104 175.20341 
L 387.917125 181.96823 
L 389.427146 184.701601 
L 390.937167 181.262936 
L 392.447188 177.209329 
L 393.957209 177.324284 
L 395.46723 186.786026 
L 396.977252 176.697976 
L 398.487273 174.464728 
L 398.487273 174.464728 
" clip-path="url(#p40d5e32af0)" style="fill: none; stroke: #ff0000; stroke-opacity: 0.8; stroke-width: 0.5; stroke-linecap: square"/>
   </g>
   <g id="line2d_19">
    <path d="M 73.832727 158.178034 
L 75.342748 168.869751 
L 76.85277 166.241046 
L 79.872812 163.083361 
L 81.382833 165.358027 
L 82.892854 168.412203 
L 84.402875 173.551137 
L 85.912896 163.823646 
L 87.422918 173.053585 
L 88.932939 167.894145 
L 90.44296 169.889335 
L 91.952981 174.401487 
L 93.463002 165.602757 
L 94.973023 167.261659 
L 96.483044 176.359832 
L 97.993066 171.011425 
L 99.503087 173.583388 
L 101.013108 170.353058 
L 102.523129 171.400726 
L 104.03315 174.410083 
L 105.543171 168.275913 
L 107.053192 173.665016 
L 110.073235 176.670641 
L 111.583256 172.167268 
L 113.093277 176.41806 
L 114.603298 175.005781 
L 116.113319 167.383641 
L 117.62334 165.283892 
L 119.133362 173.321242 
L 120.643383 174.778895 
L 122.153404 173.273256 
L 123.663425 174.268151 
L 125.173446 171.738074 
L 126.683467 175.465305 
L 128.193488 175.691252 
L 129.70351 176.678477 
L 131.213531 172.083844 
L 132.723552 176.100894 
L 134.233573 176.729836 
L 135.743594 176.508672 
L 137.253615 176.611597 
L 138.763636 173.178374 
L 140.273658 173.258039 
L 141.783679 176.787477 
L 143.2937 173.548599 
L 144.803721 168.500079 
L 146.313742 168.581667 
L 147.823763 172.966073 
L 149.333784 173.368327 
L 150.843805 147.290884 
L 152.353827 158.68658 
L 153.863848 154.12402 
L 155.373869 170.835864 
L 156.88389 168.884681 
L 158.393911 163.45377 
L 159.903932 170.195637 
L 161.413953 173.583921 
L 162.923975 174.573967 
L 164.433996 159.170723 
L 165.944017 172.937855 
L 167.454038 174.495476 
L 168.964059 168.08337 
L 170.47408 169.693271 
L 171.984101 170.993112 
L 173.494123 171.571276 
L 175.004144 174.599461 
L 176.514165 172.519988 
L 178.024186 174.719784 
L 179.534207 173.768475 
L 181.044228 173.371347 
L 182.554249 172.761142 
L 184.064271 174.629045 
L 185.574292 168.913234 
L 187.084313 168.724482 
L 188.594334 164.16299 
L 190.104355 129.362954 
L 191.614376 171.493697 
L 193.124397 175.693148 
L 194.634419 170.136859 
L 196.14444 172.239801 
L 197.654461 173.142265 
L 199.164482 163.562882 
L 200.674503 170.014147 
L 202.184524 166.806319 
L 203.694545 168.262488 
L 205.204567 172.047123 
L 206.714588 175.190227 
L 208.224609 174.746829 
L 209.73463 175.895492 
L 211.244651 165.659255 
L 212.754672 169.537965 
L 214.264693 170.501828 
L 215.774715 158.130207 
L 217.284736 173.299067 
L 218.794757 169.414945 
L 220.304778 174.090273 
L 221.814799 174.334303 
L 223.32482 175.876823 
L 224.834841 170.885734 
L 226.344863 165.170918 
L 227.854884 170.925383 
L 229.364905 151.294963 
L 230.874926 162.864169 
L 232.384947 165.996158 
L 233.894968 163.647673 
L 236.915011 99.924956 
L 238.425032 142.049779 
L 239.935053 151.204586 
L 241.445074 88.910949 
L 242.955095 134.094481 
L 244.465116 121.210923 
L 245.975137 127.765059 
L 247.485159 147.507326 
L 248.99518 141.616062 
L 250.505201 103.749521 
L 252.015222 113.58686 
L 253.525243 53.568 
L 255.035264 80.56793 
L 256.545285 132.198047 
L 258.055307 139.108899 
L 259.565328 111.364469 
L 261.075349 127.608974 
L 262.58537 151.744521 
L 264.095391 159.920407 
L 265.605412 149.888204 
L 267.115433 157.753453 
L 268.625455 155.409184 
L 270.135476 143.825925 
L 271.645497 81.858595 
L 273.155518 104.817162 
L 274.665539 143.285015 
L 276.17556 151.302663 
L 277.685581 114.924002 
L 279.195603 132.976771 
L 280.705624 144.32428 
L 282.215645 120.80936 
L 283.725666 116.304968 
L 285.235687 105.073507 
L 286.745708 121.993223 
L 288.255729 127.026713 
L 289.765751 138.852074 
L 291.275772 154.684151 
L 292.785793 108.070248 
L 294.295814 147.70012 
L 295.805835 121.052029 
L 297.315856 149.308574 
L 298.825877 122.856746 
L 300.335899 159.686558 
L 301.84592 170.202364 
L 303.355941 138.539901 
L 304.865962 133.097418 
L 306.375983 138.733688 
L 307.886004 115.660019 
L 309.396025 142.972881 
L 310.906047 157.010473 
L 312.416068 144.486684 
L 313.926089 107.386906 
L 315.43611 165.269769 
L 316.946131 168.668996 
L 319.966173 156.723563 
L 321.476195 171.55446 
L 322.986216 166.518113 
L 324.496237 139.010849 
L 326.006258 161.192972 
L 327.516279 143.276501 
L 329.0263 165.531197 
L 330.536321 172.703911 
L 332.046342 170.408975 
L 333.556364 173.460095 
L 335.066385 169.164627 
L 336.576406 133.76203 
L 338.086427 168.881756 
L 339.596448 173.393998 
L 341.106469 169.743614 
L 342.61649 165.407497 
L 344.126512 173.791843 
L 345.636533 176.65988 
L 348.656575 161.818485 
L 350.166596 158.799277 
L 351.676617 165.885654 
L 353.186638 158.918872 
L 354.69666 154.990068 
L 356.206681 162.85853 
L 357.716702 163.087305 
L 359.226723 174.817761 
L 360.736744 151.339845 
L 363.756786 164.612126 
L 365.266808 162.503583 
L 366.776829 169.145848 
L 368.28685 154.885084 
L 369.796871 164.092279 
L 371.306892 167.182182 
L 372.816913 167.136764 
L 374.326934 158.384673 
L 375.836956 162.211901 
L 377.346977 173.670532 
L 378.856998 143.834357 
L 381.87704 166.123806 
L 383.387061 167.826746 
L 384.897082 171.767891 
L 386.407104 168.585627 
L 387.917125 175.120873 
L 389.427146 171.324317 
L 390.937167 168.829458 
L 392.447188 148.839596 
L 393.957209 149.86332 
L 395.46723 169.506021 
L 396.977252 135.609695 
L 398.487273 159.106722 
L 398.487273 159.106722 
" clip-path="url(#p40d5e32af0)" style="fill: none; stroke: #f08080; stroke-opacity: 0.8; stroke-width: 0.5; stroke-linecap: square"/>
   </g>
   <g id="line2d_20">
    <path d="M 73.832727 193.240613 
L 75.342748 193.62735 
L 76.85277 189.729759 
L 78.362791 189.868605 
L 79.872812 184.909302 
L 81.382833 180.583609 
L 82.892854 184.357095 
L 84.402875 193.201627 
L 85.912896 190.287502 
L 87.422918 185.984039 
L 88.932939 182.08974 
L 90.44296 183.321949 
L 91.952981 179.711289 
L 93.463002 183.148057 
L 94.973023 182.954976 
L 96.483044 181.491617 
L 97.993066 187.125158 
L 99.503087 189.207017 
L 101.013108 178.201531 
L 102.523129 181.93874 
L 105.543171 180.099508 
L 107.053192 180.282626 
L 108.563214 181.068156 
L 110.073235 178.749779 
L 111.583256 182.514531 
L 113.093277 177.909353 
L 114.603298 178.493794 
L 116.113319 178.624458 
L 117.62334 180.030734 
L 119.133362 184.714642 
L 120.643383 179.854533 
L 122.153404 183.902921 
L 123.663425 181.952926 
L 125.173446 181.320596 
L 126.683467 178.697496 
L 128.193488 178.162478 
L 129.70351 181.887086 
L 131.213531 181.452152 
L 132.723552 179.692001 
L 135.743594 178.104937 
L 137.253615 189.208987 
L 138.763636 179.688369 
L 140.273658 180.218707 
L 141.783679 181.674696 
L 143.2937 191.055946 
L 144.803721 192.410148 
L 146.313742 187.40371 
L 147.823763 184.823373 
L 149.333784 187.296802 
L 150.843805 197.129546 
L 152.353827 190.780608 
L 153.863848 193.069971 
L 155.373869 185.019726 
L 156.88389 190.796778 
L 158.393911 186.494223 
L 159.903932 186.809818 
L 161.413953 181.714351 
L 162.923975 178.319733 
L 164.433996 180.350059 
L 165.944017 183.23097 
L 167.454038 181.062231 
L 168.964059 196.273957 
L 170.47408 181.175216 
L 171.984101 178.199745 
L 173.494123 182.371336 
L 175.004144 180.463749 
L 176.514165 187.638439 
L 178.024186 182.482903 
L 179.534207 183.672336 
L 181.044228 188.369399 
L 182.554249 184.528116 
L 184.064271 184.255746 
L 185.574292 184.559194 
L 187.084313 181.457554 
L 188.594334 182.487377 
L 190.104355 192.80061 
L 191.614376 186.818085 
L 193.124397 185.080405 
L 194.634419 184.984699 
L 196.14444 193.414233 
L 197.654461 188.318658 
L 199.164482 184.79005 
L 200.674503 182.841818 
L 202.184524 188.694555 
L 203.694545 179.788545 
L 205.204567 182.8165 
L 206.714588 182.110293 
L 208.224609 177.786439 
L 209.73463 194.860425 
L 211.244651 185.971685 
L 212.754672 183.036703 
L 214.264693 179.14833 
L 215.774715 181.868593 
L 217.284736 182.988228 
L 218.794757 185.541623 
L 220.304778 179.365427 
L 221.814799 181.184603 
L 223.32482 191.919364 
L 224.834841 200.655675 
L 226.344863 187.615355 
L 227.854884 192.201424 
L 229.364905 200.629898 
L 230.874926 189.17782 
L 232.384947 207.859617 
L 233.894968 221.707303 
L 235.404989 232.066578 
L 236.915011 212.360977 
L 238.425032 226.262865 
L 239.935053 295.488 
L 241.445074 245.090758 
L 242.955095 249.829783 
L 244.465116 240.181337 
L 245.975137 210.153974 
L 247.485159 232.486446 
L 248.99518 235.262121 
L 250.505201 188.741007 
L 252.015222 258.329514 
L 253.525243 243.183078 
L 255.035264 240.910764 
L 256.545285 203.770972 
L 258.055307 239.906976 
L 259.565328 196.696688 
L 261.075349 216.986497 
L 262.58537 191.864263 
L 264.095391 214.415613 
L 265.605412 213.048874 
L 267.115433 218.542286 
L 268.625455 231.522997 
L 270.135476 211.169287 
L 271.645497 206.1268 
L 273.155518 211.409685 
L 274.665539 247.189583 
L 276.17556 239.294476 
L 277.685581 246.160869 
L 279.195603 211.432015 
L 280.705624 245.569611 
L 282.215645 202.293107 
L 283.725666 216.265553 
L 285.235687 196.474813 
L 286.745708 213.933194 
L 288.255729 211.82776 
L 289.765751 199.228274 
L 291.275772 196.549772 
L 292.785793 197.179074 
L 294.295814 247.621432 
L 295.805835 209.176339 
L 297.315856 266.132822 
L 298.825877 229.691973 
L 300.335899 206.445125 
L 301.84592 214.559144 
L 303.355941 188.88059 
L 304.865962 194.90798 
L 306.375983 195.160456 
L 307.886004 208.584318 
L 309.396025 202.917852 
L 310.906047 191.473073 
L 312.416068 214.085724 
L 313.926089 182.993483 
L 315.43611 202.066436 
L 316.946131 194.786309 
L 318.456152 204.829356 
L 319.966173 204.572069 
L 321.476195 187.750804 
L 322.986216 189.780365 
L 324.496237 183.039671 
L 326.006258 188.152447 
L 327.516279 210.461491 
L 329.0263 191.174676 
L 330.536321 188.675897 
L 332.046342 180.739042 
L 333.556364 189.281854 
L 335.066385 192.31786 
L 336.576406 204.8731 
L 338.086427 183.949675 
L 339.596448 188.874552 
L 341.106469 186.446973 
L 342.61649 184.69157 
L 344.126512 180.078403 
L 345.636533 194.430836 
L 347.146554 202.935669 
L 348.656575 189.14136 
L 350.166596 185.24839 
L 351.676617 211.022415 
L 353.186638 185.164828 
L 354.69666 210.153705 
L 356.206681 215.62455 
L 357.716702 194.591503 
L 359.226723 198.48423 
L 360.736744 192.493722 
L 362.246765 194.107772 
L 363.756786 188.172078 
L 365.266808 183.106726 
L 366.776829 196.828412 
L 368.28685 201.093504 
L 369.796871 204.673208 
L 371.306892 185.703077 
L 372.816913 194.639007 
L 374.326934 182.081876 
L 377.346977 186.518668 
L 378.856998 179.039404 
L 380.367019 203.415653 
L 381.87704 184.952645 
L 383.387061 187.948642 
L 384.897082 193.554425 
L 386.407104 185.652954 
L 387.917125 199.153705 
L 389.427146 227.337877 
L 390.937167 193.848512 
L 392.447188 215.096885 
L 393.957209 203.301827 
L 395.46723 211.103797 
L 396.977252 200.363205 
L 398.487273 191.922412 
L 398.487273 191.922412 
" clip-path="url(#p40d5e32af0)" style="fill: none; stroke: #f08080; stroke-opacity: 0.8; stroke-width: 0.5; stroke-linecap: square"/>
   </g>
   <g id="patch_3">
    <path d="M 57.6 307.584 
L 57.6 41.472 
" style="fill: none; stroke: #000000; stroke-width: 0.8; stroke-linejoin: miter; stroke-linecap: square"/>
   </g>
   <g id="patch_4">
    <path d="M 414.72 307.584 
L 414.72 41.472 
" style="fill: none; stroke: #000000; stroke-width: 0.8; stroke-linejoin: miter; stroke-linecap: square"/>
   </g>
   <g id="patch_5">
    <path d="M 57.6 307.584 
L 414.72 307.584 
" style="fill: none; stroke: #000000; stroke-width: 0.8; stroke-linejoin: miter; stroke-linecap: square"/>
   </g>
   <g id="patch_6">
    <path d="M 57.6 41.472 
L 414.72 41.472 
" style="fill: none; stroke: #000000; stroke-width: 0.8; stroke-linejoin: miter; stroke-linecap: square"/>
   </g>
   <g id="text_15">
    <!-- 1final_arima_btcusd -->
    <g transform="translate(175.888125 35.472) scale(0.12 -0.12)">
     <defs>
      <path id="DejaVuSans-66" d="M 2375 4863 
L 2375 4384 
L 1825 4384 
Q 1516 4384 1395 4259 
Q 1275 4134 1275 3809 
L 1275 3500 
L 2222 3500 
L 2222 3053 
L 1275 3053 
L 1275 0 
L 697 0 
L 697 3053 
L 147 3053 
L 147 3500 
L 697 3500 
L 697 3744 
Q 697 4328 969 4595 
Q 1241 4863 1831 4863 
L 2375 4863 
z
" transform="scale(0.015625)"/>
      <path id="DejaVuSans-69" d="M 603 3500 
L 1178 3500 
L 1178 0 
L 603 0 
L 603 3500 
z
M 603 4863 
L 1178 4863 
L 1178 4134 
L 603 4134 
L 603 4863 
z
" transform="scale(0.015625)"/>
      <path id="DejaVuSans-6e" d="M 3513 2113 
L 3513 0 
L 2938 0 
L 2938 2094 
Q 2938 2591 2744 2837 
Q 2550 3084 2163 3084 
Q 1697 3084 1428 2787 
Q 1159 2491 1159 1978 
L 1159 0 
L 581 0 
L 581 3500 
L 1159 3500 
L 1159 2956 
Q 1366 3272 1645 3428 
Q 1925 3584 2291 3584 
Q 2894 3584 3203 3211 
Q 3513 2838 3513 2113 
z
" transform="scale(0.015625)"/>
      <path id="DejaVuSans-61" d="M 2194 1759 
Q 1497 1759 1228 1600 
Q 959 1441 959 1056 
Q 959 750 1161 570 
Q 1363 391 1709 391 
Q 2188 391 2477 730 
Q 2766 1069 2766 1631 
L 2766 1759 
L 2194 1759 
z
M 3341 1997 
L 3341 0 
L 2766 0 
L 2766 531 
Q 2569 213 2275 61 
Q 1981 -91 1556 -91 
Q 1019 -91 701 211 
Q 384 513 384 1019 
Q 384 1609 779 1909 
Q 1175 2209 1959 2209 
L 2766 2209 
L 2766 2266 
Q 2766 2663 2505 2880 
Q 2244 3097 1772 3097 
Q 1472 3097 1187 3025 
Q 903 2953 641 2809 
L 641 3341 
Q 956 3463 1253 3523 
Q 1550 3584 1831 3584 
Q 2591 3584 2966 3190 
Q 3341 2797 3341 1997 
z
" transform="scale(0.015625)"/>
      <path id="DejaVuSans-6c" d="M 603 4863 
L 1178 4863 
L 1178 0 
L 603 0 
L 603 4863 
z
" transform="scale(0.015625)"/>
      <path id="DejaVuSans-5f" d="M 3263 -1063 
L 3263 -1509 
L -63 -1509 
L -63 -1063 
L 3263 -1063 
z
" transform="scale(0.015625)"/>
      <path id="DejaVuSans-72" d="M 2631 2963 
Q 2534 3019 2420 3045 
Q 2306 3072 2169 3072 
Q 1681 3072 1420 2755 
Q 1159 2438 1159 1844 
L 1159 0 
L 581 0 
L 581 3500 
L 1159 3500 
L 1159 2956 
Q 1341 3275 1631 3429 
Q 1922 3584 2338 3584 
Q 2397 3584 2469 3576 
Q 2541 3569 2628 3553 
L 2631 2963 
z
" transform="scale(0.015625)"/>
      <path id="DejaVuSans-6d" d="M 3328 2828 
Q 3544 3216 3844 3400 
Q 4144 3584 4550 3584 
Q 5097 3584 5394 3201 
Q 5691 2819 5691 2113 
L 5691 0 
L 5113 0 
L 5113 2094 
Q 5113 2597 4934 2840 
Q 4756 3084 4391 3084 
Q 3944 3084 3684 2787 
Q 3425 2491 3425 1978 
L 3425 0 
L 2847 0 
L 2847 2094 
Q 2847 2600 2669 2842 
Q 2491 3084 2119 3084 
Q 1678 3084 1418 2786 
Q 1159 2488 1159 1978 
L 1159 0 
L 581 0 
L 581 3500 
L 1159 3500 
L 1159 2956 
Q 1356 3278 1631 3431 
Q 1906 3584 2284 3584 
Q 2666 3584 2933 3390 
Q 3200 3197 3328 2828 
z
" transform="scale(0.015625)"/>
      <path id="DejaVuSans-62" d="M 3116 1747 
Q 3116 2381 2855 2742 
Q 2594 3103 2138 3103 
Q 1681 3103 1420 2742 
Q 1159 2381 1159 1747 
Q 1159 1113 1420 752 
Q 1681 391 2138 391 
Q 2594 391 2855 752 
Q 3116 1113 3116 1747 
z
M 1159 2969 
Q 1341 3281 1617 3432 
Q 1894 3584 2278 3584 
Q 2916 3584 3314 3078 
Q 3713 2572 3713 1747 
Q 3713 922 3314 415 
Q 2916 -91 2278 -91 
Q 1894 -91 1617 61 
Q 1341 213 1159 525 
L 1159 0 
L 581 0 
L 581 4863 
L 1159 4863 
L 1159 2969 
z
" transform="scale(0.015625)"/>
      <path id="DejaVuSans-74" d="M 1172 4494 
L 1172 3500 
L 2356 3500 
L 2356 3053 
L 1172 3053 
L 1172 1153 
Q 1172 725 1289 603 
Q 1406 481 1766 481 
L 2356 481 
L 2356 0 
L 1766 0 
Q 1100 0 847 248 
Q 594 497 594 1153 
L 594 3053 
L 172 3053 
L 172 3500 
L 594 3500 
L 594 4494 
L 1172 4494 
z
" transform="scale(0.015625)"/>
      <path id="DejaVuSans-63" d="M 3122 3366 
L 3122 2828 
Q 2878 2963 2633 3030 
Q 2388 3097 2138 3097 
Q 1578 3097 1268 2742 
Q 959 2388 959 1747 
Q 959 1106 1268 751 
Q 1578 397 2138 397 
Q 2388 397 2633 464 
Q 2878 531 3122 666 
L 3122 134 
Q 2881 22 2623 -34 
Q 2366 -91 2075 -91 
Q 1284 -91 818 406 
Q 353 903 353 1747 
Q 353 2603 823 3093 
Q 1294 3584 2113 3584 
Q 2378 3584 2631 3529 
Q 2884 3475 3122 3366 
z
" transform="scale(0.015625)"/>
      <path id="DejaVuSans-75" d="M 544 1381 
L 544 3500 
L 1119 3500 
L 1119 1403 
Q 1119 906 1312 657 
Q 1506 409 1894 409 
Q 2359 409 2629 706 
Q 2900 1003 2900 1516 
L 2900 3500 
L 3475 3500 
L 3475 0 
L 2900 0 
L 2900 538 
Q 2691 219 2414 64 
Q 2138 -91 1772 -91 
Q 1169 -91 856 284 
Q 544 659 544 1381 
z
M 1991 3584 
L 1991 3584 
z
" transform="scale(0.015625)"/>
      <path id="DejaVuSans-73" d="M 2834 3397 
L 2834 2853 
Q 2591 2978 2328 3040 
Q 2066 3103 1784 3103 
Q 1356 3103 1142 2972 
Q 928 2841 928 2578 
Q 928 2378 1081 2264 
Q 1234 2150 1697 2047 
L 1894 2003 
Q 2506 1872 2764 1633 
Q 3022 1394 3022 966 
Q 3022 478 2636 193 
Q 2250 -91 1575 -91 
Q 1294 -91 989 -36 
Q 684 19 347 128 
L 347 722 
Q 666 556 975 473 
Q 1284 391 1588 391 
Q 1994 391 2212 530 
Q 2431 669 2431 922 
Q 2431 1156 2273 1281 
Q 2116 1406 1581 1522 
L 1381 1569 
Q 847 1681 609 1914 
Q 372 2147 372 2553 
Q 372 3047 722 3315 
Q 1072 3584 1716 3584 
Q 2034 3584 2315 3537 
Q 2597 3491 2834 3397 
z
" transform="scale(0.015625)"/>
      <path id="DejaVuSans-64" d="M 2906 2969 
L 2906 4863 
L 3481 4863 
L 3481 0 
L 2906 0 
L 2906 525 
Q 2725 213 2448 61 
Q 2172 -91 1784 -91 
Q 1150 -91 751 415 
Q 353 922 353 1747 
Q 353 2572 751 3078 
Q 1150 3584 1784 3584 
Q 2172 3584 2448 3432 
Q 2725 3281 2906 2969 
z
M 947 1747 
Q 947 1113 1208 752 
Q 1469 391 1925 391 
Q 2381 391 2643 752 
Q 2906 1113 2906 1747 
Q 2906 2381 2643 2742 
Q 2381 3103 1925 3103 
Q 1469 3103 1208 2742 
Q 947 2381 947 1747 
z
" transform="scale(0.015625)"/>
     </defs>
     <use xlink:href="#DejaVuSans-31"/>
     <use xlink:href="#DejaVuSans-66" x="63.623047"/>
     <use xlink:href="#DejaVuSans-69" x="98.828125"/>
     <use xlink:href="#DejaVuSans-6e" x="126.611328"/>
     <use xlink:href="#DejaVuSans-61" x="189.990234"/>
     <use xlink:href="#DejaVuSans-6c" x="251.269531"/>
     <use xlink:href="#DejaVuSans-5f" x="279.052734"/>
     <use xlink:href="#DejaVuSans-61" x="329.052734"/>
     <use xlink:href="#DejaVuSans-72" x="390.332031"/>
     <use xlink:href="#DejaVuSans-69" x="431.445312"/>
     <use xlink:href="#DejaVuSans-6d" x="459.228516"/>
     <use xlink:href="#DejaVuSans-61" x="556.640625"/>
     <use xlink:href="#DejaVuSans-5f" x="617.919922"/>
     <use xlink:href="#DejaVuSans-62" x="667.919922"/>
     <use xlink:href="#DejaVuSans-74" x="731.396484"/>
     <use xlink:href="#DejaVuSans-63" x="770.605469"/>
     <use xlink:href="#DejaVuSans-75" x="825.585938"/>
     <use xlink:href="#DejaVuSans-73" x="888.964844"/>
     <use xlink:href="#DejaVuSans-64" x="941.064453"/>
    </g>
   </g>
   <g id="legend_1">
    <g id="patch_7">
     <path d="M 64.6 302.584 
L 225.001563 302.584 
Q 227.001563 302.584 227.001563 300.584 
L 227.001563 213.51525 
Q 227.001563 211.51525 225.001563 211.51525 
L 64.6 211.51525 
Q 62.6 211.51525 62.6 213.51525 
L 62.6 300.584 
Q 62.6 302.584 64.6 302.584 
z
" style="fill: #ffffff; opacity: 0.8; stroke: #cccccc; stroke-linejoin: miter"/>
    </g>
    <g id="line2d_21">
     <path d="M 66.6 219.613687 
L 76.6 219.613687 
L 86.6 219.613687 
" style="fill: none; stroke: #008000; stroke-opacity: 0.8; stroke-width: 0.5; stroke-linecap: square"/>
    </g>
    <g id="text_16">
     <!-- Positive predictions -->
     <g transform="translate(94.6 223.113687) scale(0.1 -0.1)">
      <defs>
       <path id="DejaVuSans-50" d="M 1259 4147 
L 1259 2394 
L 2053 2394 
Q 2494 2394 2734 2622 
Q 2975 2850 2975 3272 
Q 2975 3691 2734 3919 
Q 2494 4147 2053 4147 
L 1259 4147 
z
M 628 4666 
L 2053 4666 
Q 2838 4666 3239 4311 
Q 3641 3956 3641 3272 
Q 3641 2581 3239 2228 
Q 2838 1875 2053 1875 
L 1259 1875 
L 1259 0 
L 628 0 
L 628 4666 
z
" transform="scale(0.015625)"/>
       <path id="DejaVuSans-6f" d="M 1959 3097 
Q 1497 3097 1228 2736 
Q 959 2375 959 1747 
Q 959 1119 1226 758 
Q 1494 397 1959 397 
Q 2419 397 2687 759 
Q 2956 1122 2956 1747 
Q 2956 2369 2687 2733 
Q 2419 3097 1959 3097 
z
M 1959 3584 
Q 2709 3584 3137 3096 
Q 3566 2609 3566 1747 
Q 3566 888 3137 398 
Q 2709 -91 1959 -91 
Q 1206 -91 779 398 
Q 353 888 353 1747 
Q 353 2609 779 3096 
Q 1206 3584 1959 3584 
z
" transform="scale(0.015625)"/>
       <path id="DejaVuSans-76" d="M 191 3500 
L 800 3500 
L 1894 563 
L 2988 3500 
L 3597 3500 
L 2284 0 
L 1503 0 
L 191 3500 
z
" transform="scale(0.015625)"/>
       <path id="DejaVuSans-65" d="M 3597 1894 
L 3597 1613 
L 953 1613 
Q 991 1019 1311 708 
Q 1631 397 2203 397 
Q 2534 397 2845 478 
Q 3156 559 3463 722 
L 3463 178 
Q 3153 47 2828 -22 
Q 2503 -91 2169 -91 
Q 1331 -91 842 396 
Q 353 884 353 1716 
Q 353 2575 817 3079 
Q 1281 3584 2069 3584 
Q 2775 3584 3186 3129 
Q 3597 2675 3597 1894 
z
M 3022 2063 
Q 3016 2534 2758 2815 
Q 2500 3097 2075 3097 
Q 1594 3097 1305 2825 
Q 1016 2553 972 2059 
L 3022 2063 
z
" transform="scale(0.015625)"/>
       <path id="DejaVuSans-20" transform="scale(0.015625)"/>
       <path id="DejaVuSans-70" d="M 1159 525 
L 1159 -1331 
L 581 -1331 
L 581 3500 
L 1159 3500 
L 1159 2969 
Q 1341 3281 1617 3432 
Q 1894 3584 2278 3584 
Q 2916 3584 3314 3078 
Q 3713 2572 3713 1747 
Q 3713 922 3314 415 
Q 2916 -91 2278 -91 
Q 1894 -91 1617 61 
Q 1341 213 1159 525 
z
M 3116 1747 
Q 3116 2381 2855 2742 
Q 2594 3103 2138 3103 
Q 1681 3103 1420 2742 
Q 1159 2381 1159 1747 
Q 1159 1113 1420 752 
Q 1681 391 2138 391 
Q 2594 391 2855 752 
Q 3116 1113 3116 1747 
z
" transform="scale(0.015625)"/>
      </defs>
      <use xlink:href="#DejaVuSans-50"/>
      <use xlink:href="#DejaVuSans-6f" x="56.677734"/>
      <use xlink:href="#DejaVuSans-73" x="117.859375"/>
      <use xlink:href="#DejaVuSans-69" x="169.958984"/>
      <use xlink:href="#DejaVuSans-74" x="197.742188"/>
      <use xlink:href="#DejaVuSans-69" x="236.951172"/>
      <use xlink:href="#DejaVuSans-76" x="264.734375"/>
      <use xlink:href="#DejaVuSans-65" x="323.914062"/>
      <use xlink:href="#DejaVuSans-20" x="385.4375"/>
      <use xlink:href="#DejaVuSans-70" x="417.224609"/>
      <use xlink:href="#DejaVuSans-72" x="480.701172"/>
      <use xlink:href="#DejaVuSans-65" x="519.564453"/>
      <use xlink:href="#DejaVuSans-64" x="581.087891"/>
      <use xlink:href="#DejaVuSans-69" x="644.564453"/>
      <use xlink:href="#DejaVuSans-63" x="672.347656"/>
      <use xlink:href="#DejaVuSans-74" x="727.328125"/>
      <use xlink:href="#DejaVuSans-69" x="766.537109"/>
      <use xlink:href="#DejaVuSans-6f" x="794.320312"/>
      <use xlink:href="#DejaVuSans-6e" x="855.501953"/>
      <use xlink:href="#DejaVuSans-73" x="918.880859"/>
     </g>
    </g>
    <g id="line2d_22">
     <path d="M 66.6 234.291812 
L 76.6 234.291812 
L 86.6 234.291812 
" style="fill: none; stroke: #32cd32; stroke-opacity: 0.8; stroke-width: 0.5; stroke-linecap: square"/>
    </g>
    <g id="text_17">
     <!-- Positive predictions max -->
     <g transform="translate(94.6 237.791812) scale(0.1 -0.1)">
      <defs>
       <path id="DejaVuSans-78" d="M 3513 3500 
L 2247 1797 
L 3578 0 
L 2900 0 
L 1881 1375 
L 863 0 
L 184 0 
L 1544 1831 
L 300 3500 
L 978 3500 
L 1906 2253 
L 2834 3500 
L 3513 3500 
z
" transform="scale(0.015625)"/>
      </defs>
      <use xlink:href="#DejaVuSans-50"/>
      <use xlink:href="#DejaVuSans-6f" x="56.677734"/>
      <use xlink:href="#DejaVuSans-73" x="117.859375"/>
      <use xlink:href="#DejaVuSans-69" x="169.958984"/>
      <use xlink:href="#DejaVuSans-74" x="197.742188"/>
      <use xlink:href="#DejaVuSans-69" x="236.951172"/>
      <use xlink:href="#DejaVuSans-76" x="264.734375"/>
      <use xlink:href="#DejaVuSans-65" x="323.914062"/>
      <use xlink:href="#DejaVuSans-20" x="385.4375"/>
      <use xlink:href="#DejaVuSans-70" x="417.224609"/>
      <use xlink:href="#DejaVuSans-72" x="480.701172"/>
      <use xlink:href="#DejaVuSans-65" x="519.564453"/>
      <use xlink:href="#DejaVuSans-64" x="581.087891"/>
      <use xlink:href="#DejaVuSans-69" x="644.564453"/>
      <use xlink:href="#DejaVuSans-63" x="672.347656"/>
      <use xlink:href="#DejaVuSans-74" x="727.328125"/>
      <use xlink:href="#DejaVuSans-69" x="766.537109"/>
      <use xlink:href="#DejaVuSans-6f" x="794.320312"/>
      <use xlink:href="#DejaVuSans-6e" x="855.501953"/>
      <use xlink:href="#DejaVuSans-73" x="918.880859"/>
      <use xlink:href="#DejaVuSans-20" x="970.980469"/>
      <use xlink:href="#DejaVuSans-6d" x="1002.767578"/>
      <use xlink:href="#DejaVuSans-61" x="1100.179688"/>
      <use xlink:href="#DejaVuSans-78" x="1161.458984"/>
     </g>
    </g>
    <g id="line2d_23">
     <path d="M 66.6 248.969937 
L 76.6 248.969937 
L 86.6 248.969937 
" style="fill: none; stroke: #32cd32; stroke-opacity: 0.8; stroke-width: 0.5; stroke-linecap: square"/>
    </g>
    <g id="text_18">
     <!-- Positive predictions min -->
     <g transform="translate(94.6 252.469937) scale(0.1 -0.1)">
      <use xlink:href="#DejaVuSans-50"/>
      <use xlink:href="#DejaVuSans-6f" x="56.677734"/>
      <use xlink:href="#DejaVuSans-73" x="117.859375"/>
      <use xlink:href="#DejaVuSans-69" x="169.958984"/>
      <use xlink:href="#DejaVuSans-74" x="197.742188"/>
      <use xlink:href="#DejaVuSans-69" x="236.951172"/>
      <use xlink:href="#DejaVuSans-76" x="264.734375"/>
      <use xlink:href="#DejaVuSans-65" x="323.914062"/>
      <use xlink:href="#DejaVuSans-20" x="385.4375"/>
      <use xlink:href="#DejaVuSans-70" x="417.224609"/>
      <use xlink:href="#DejaVuSans-72" x="480.701172"/>
      <use xlink:href="#DejaVuSans-65" x="519.564453"/>
      <use xlink:href="#DejaVuSans-64" x="581.087891"/>
      <use xlink:href="#DejaVuSans-69" x="644.564453"/>
      <use xlink:href="#DejaVuSans-63" x="672.347656"/>
      <use xlink:href="#DejaVuSans-74" x="727.328125"/>
      <use xlink:href="#DejaVuSans-69" x="766.537109"/>
      <use xlink:href="#DejaVuSans-6f" x="794.320312"/>
      <use xlink:href="#DejaVuSans-6e" x="855.501953"/>
      <use xlink:href="#DejaVuSans-73" x="918.880859"/>
      <use xlink:href="#DejaVuSans-20" x="970.980469"/>
      <use xlink:href="#DejaVuSans-6d" x="1002.767578"/>
      <use xlink:href="#DejaVuSans-69" x="1100.179688"/>
      <use xlink:href="#DejaVuSans-6e" x="1127.962891"/>
     </g>
    </g>
    <g id="line2d_24">
     <path d="M 66.6 263.648062 
L 76.6 263.648062 
L 86.6 263.648062 
" style="fill: none; stroke: #ff0000; stroke-opacity: 0.8; stroke-width: 0.5; stroke-linecap: square"/>
    </g>
    <g id="text_19">
     <!-- Negative predictions -->
     <g transform="translate(94.6 267.148062) scale(0.1 -0.1)">
      <defs>
       <path id="DejaVuSans-4e" d="M 628 4666 
L 1478 4666 
L 3547 763 
L 3547 4666 
L 4159 4666 
L 4159 0 
L 3309 0 
L 1241 3903 
L 1241 0 
L 628 0 
L 628 4666 
z
" transform="scale(0.015625)"/>
       <path id="DejaVuSans-67" d="M 2906 1791 
Q 2906 2416 2648 2759 
Q 2391 3103 1925 3103 
Q 1463 3103 1205 2759 
Q 947 2416 947 1791 
Q 947 1169 1205 825 
Q 1463 481 1925 481 
Q 2391 481 2648 825 
Q 2906 1169 2906 1791 
z
M 3481 434 
Q 3481 -459 3084 -895 
Q 2688 -1331 1869 -1331 
Q 1566 -1331 1297 -1286 
Q 1028 -1241 775 -1147 
L 775 -588 
Q 1028 -725 1275 -790 
Q 1522 -856 1778 -856 
Q 2344 -856 2625 -561 
Q 2906 -266 2906 331 
L 2906 616 
Q 2728 306 2450 153 
Q 2172 0 1784 0 
Q 1141 0 747 490 
Q 353 981 353 1791 
Q 353 2603 747 3093 
Q 1141 3584 1784 3584 
Q 2172 3584 2450 3431 
Q 2728 3278 2906 2969 
L 2906 3500 
L 3481 3500 
L 3481 434 
z
" transform="scale(0.015625)"/>
      </defs>
      <use xlink:href="#DejaVuSans-4e"/>
      <use xlink:href="#DejaVuSans-65" x="74.804688"/>
      <use xlink:href="#DejaVuSans-67" x="136.328125"/>
      <use xlink:href="#DejaVuSans-61" x="199.804688"/>
      <use xlink:href="#DejaVuSans-74" x="261.083984"/>
      <use xlink:href="#DejaVuSans-69" x="300.292969"/>
      <use xlink:href="#DejaVuSans-76" x="328.076172"/>
      <use xlink:href="#DejaVuSans-65" x="387.255859"/>
      <use xlink:href="#DejaVuSans-20" x="448.779297"/>
      <use xlink:href="#DejaVuSans-70" x="480.566406"/>
      <use xlink:href="#DejaVuSans-72" x="544.042969"/>
      <use xlink:href="#DejaVuSans-65" x="582.90625"/>
      <use xlink:href="#DejaVuSans-64" x="644.429688"/>
      <use xlink:href="#DejaVuSans-69" x="707.90625"/>
      <use xlink:href="#DejaVuSans-63" x="735.689453"/>
      <use xlink:href="#DejaVuSans-74" x="790.669922"/>
      <use xlink:href="#DejaVuSans-69" x="829.878906"/>
      <use xlink:href="#DejaVuSans-6f" x="857.662109"/>
      <use xlink:href="#DejaVuSans-6e" x="918.84375"/>
      <use xlink:href="#DejaVuSans-73" x="982.222656"/>
     </g>
    </g>
    <g id="line2d_25">
     <path d="M 66.6 278.326188 
L 76.6 278.326188 
L 86.6 278.326188 
" style="fill: none; stroke: #f08080; stroke-opacity: 0.8; stroke-width: 0.5; stroke-linecap: square"/>
    </g>
    <g id="text_20">
     <!-- Negative predictions max -->
     <g transform="translate(94.6 281.826188) scale(0.1 -0.1)">
      <use xlink:href="#DejaVuSans-4e"/>
      <use xlink:href="#DejaVuSans-65" x="74.804688"/>
      <use xlink:href="#DejaVuSans-67" x="136.328125"/>
      <use xlink:href="#DejaVuSans-61" x="199.804688"/>
      <use xlink:href="#DejaVuSans-74" x="261.083984"/>
      <use xlink:href="#DejaVuSans-69" x="300.292969"/>
      <use xlink:href="#DejaVuSans-76" x="328.076172"/>
      <use xlink:href="#DejaVuSans-65" x="387.255859"/>
      <use xlink:href="#DejaVuSans-20" x="448.779297"/>
      <use xlink:href="#DejaVuSans-70" x="480.566406"/>
      <use xlink:href="#DejaVuSans-72" x="544.042969"/>
      <use xlink:href="#DejaVuSans-65" x="582.90625"/>
      <use xlink:href="#DejaVuSans-64" x="644.429688"/>
      <use xlink:href="#DejaVuSans-69" x="707.90625"/>
      <use xlink:href="#DejaVuSans-63" x="735.689453"/>
      <use xlink:href="#DejaVuSans-74" x="790.669922"/>
      <use xlink:href="#DejaVuSans-69" x="829.878906"/>
      <use xlink:href="#DejaVuSans-6f" x="857.662109"/>
      <use xlink:href="#DejaVuSans-6e" x="918.84375"/>
      <use xlink:href="#DejaVuSans-73" x="982.222656"/>
      <use xlink:href="#DejaVuSans-20" x="1034.322266"/>
      <use xlink:href="#DejaVuSans-6d" x="1066.109375"/>
      <use xlink:href="#DejaVuSans-61" x="1163.521484"/>
      <use xlink:href="#DejaVuSans-78" x="1224.800781"/>
     </g>
    </g>
    <g id="line2d_26">
     <path d="M 66.6 293.004312 
L 76.6 293.004312 
L 86.6 293.004312 
" style="fill: none; stroke: #f08080; stroke-opacity: 0.8; stroke-width: 0.5; stroke-linecap: square"/>
    </g>
    <g id="text_21">
     <!-- Negative predictions min -->
     <g transform="translate(94.6 296.504312) scale(0.1 -0.1)">
      <use xlink:href="#DejaVuSans-4e"/>
      <use xlink:href="#DejaVuSans-65" x="74.804688"/>
      <use xlink:href="#DejaVuSans-67" x="136.328125"/>
      <use xlink:href="#DejaVuSans-61" x="199.804688"/>
      <use xlink:href="#DejaVuSans-74" x="261.083984"/>
      <use xlink:href="#DejaVuSans-69" x="300.292969"/>
      <use xlink:href="#DejaVuSans-76" x="328.076172"/>
      <use xlink:href="#DejaVuSans-65" x="387.255859"/>
      <use xlink:href="#DejaVuSans-20" x="448.779297"/>
      <use xlink:href="#DejaVuSans-70" x="480.566406"/>
      <use xlink:href="#DejaVuSans-72" x="544.042969"/>
      <use xlink:href="#DejaVuSans-65" x="582.90625"/>
      <use xlink:href="#DejaVuSans-64" x="644.429688"/>
      <use xlink:href="#DejaVuSans-69" x="707.90625"/>
      <use xlink:href="#DejaVuSans-63" x="735.689453"/>
      <use xlink:href="#DejaVuSans-74" x="790.669922"/>
      <use xlink:href="#DejaVuSans-69" x="829.878906"/>
      <use xlink:href="#DejaVuSans-6f" x="857.662109"/>
      <use xlink:href="#DejaVuSans-6e" x="918.84375"/>
      <use xlink:href="#DejaVuSans-73" x="982.222656"/>
      <use xlink:href="#DejaVuSans-20" x="1034.322266"/>
      <use xlink:href="#DejaVuSans-6d" x="1066.109375"/>
      <use xlink:href="#DejaVuSans-69" x="1163.521484"/>
      <use xlink:href="#DejaVuSans-6e" x="1191.304688"/>
     </g>
    </g>
   </g>
  </g>
 </g>
 <defs>
  <clipPath id="p40d5e32af0">
   <rect x="57.6" y="41.472" width="357.12" height="266.112"/>
  </clipPath>
 </defs>
</svg>
