<?xml version="1.0" encoding="utf-8" standalone="no"?>
<!DOCTYPE svg PUBLIC "-//W3C//DTD SVG 1.1//EN"
  "http://www.w3.org/Graphics/SVG/1.1/DTD/svg11.dtd">
<svg xmlns:xlink="http://www.w3.org/1999/xlink" width="460.8pt" height="345.6pt" viewBox="0 0 460.8 345.6" xmlns="http://www.w3.org/2000/svg" version="1.1">
 <metadata>
  <rdf:RDF xmlns:dc="http://purl.org/dc/elements/1.1/" xmlns:cc="http://creativecommons.org/ns#" xmlns:rdf="http://www.w3.org/1999/02/22-rdf-syntax-ns#">
   <cc:Work>
    <dc:type rdf:resource="http://purl.org/dc/dcmitype/StillImage"/>
    <dc:date>2024-09-06T07:10:51.897524</dc:date>
    <dc:format>image/svg+xml</dc:format>
    <dc:creator>
     <cc:Agent>
      <dc:title>Matplotlib v3.9.0, https://matplotlib.org/</dc:title>
     </cc:Agent>
    </dc:creator>
   </cc:Work>
  </rdf:RDF>
 </metadata>
 <defs>
  <style type="text/css">*{stroke-linejoin: round; stroke-linecap: butt}</style>
 </defs>
 <g id="figure_1">
  <g id="patch_1">
   <path d="M 0 345.6 
L 460.8 345.6 
L 460.8 0 
L 0 0 
z
" style="fill: #ffffff"/>
  </g>
  <g id="axes_1">
   <g id="patch_2">
    <path d="M 57.6 307.584 
L 414.72 307.584 
L 414.72 41.472 
L 57.6 41.472 
z
" style="fill: #ffffff"/>
   </g>
   <g id="matplotlib.axis_1">
    <g id="xtick_1">
     <g id="line2d_1">
      <defs>
       <path id="m40b4dfdedd" d="M 0 0 
L 0 3.5 
" style="stroke: #000000; stroke-width: 0.8"/>
      </defs>
      <g>
       <use xlink:href="#m40b4dfdedd" x="73.832727" y="307.584" style="stroke: #000000; stroke-width: 0.8"/>
      </g>
     </g>
     <g id="text_1">
      <!-- 0 -->
      <g transform="translate(70.651477 322.182437) scale(0.1 -0.1)">
       <defs>
        <path id="DejaVuSans-30" d="M 2034 4250 
Q 1547 4250 1301 3770 
Q 1056 3291 1056 2328 
Q 1056 1369 1301 889 
Q 1547 409 2034 409 
Q 2525 409 2770 889 
Q 3016 1369 3016 2328 
Q 3016 3291 2770 3770 
Q 2525 4250 2034 4250 
z
M 2034 4750 
Q 2819 4750 3233 4129 
Q 3647 3509 3647 2328 
Q 3647 1150 3233 529 
Q 2819 -91 2034 -91 
Q 1250 -91 836 529 
Q 422 1150 422 2328 
Q 422 3509 836 4129 
Q 1250 4750 2034 4750 
z
" transform="scale(0.015625)"/>
       </defs>
       <use xlink:href="#DejaVuSans-30"/>
      </g>
     </g>
    </g>
    <g id="xtick_2">
     <g id="line2d_2">
      <g>
       <use xlink:href="#m40b4dfdedd" x="149.333784" y="307.584" style="stroke: #000000; stroke-width: 0.8"/>
      </g>
     </g>
     <g id="text_2">
      <!-- 50 -->
      <g transform="translate(142.971284 322.182437) scale(0.1 -0.1)">
       <defs>
        <path id="DejaVuSans-35" d="M 691 4666 
L 3169 4666 
L 3169 4134 
L 1269 4134 
L 1269 2991 
Q 1406 3038 1543 3061 
Q 1681 3084 1819 3084 
Q 2600 3084 3056 2656 
Q 3513 2228 3513 1497 
Q 3513 744 3044 326 
Q 2575 -91 1722 -91 
Q 1428 -91 1123 -41 
Q 819 9 494 109 
L 494 744 
Q 775 591 1075 516 
Q 1375 441 1709 441 
Q 2250 441 2565 725 
Q 2881 1009 2881 1497 
Q 2881 1984 2565 2268 
Q 2250 2553 1709 2553 
Q 1456 2553 1204 2497 
Q 953 2441 691 2322 
L 691 4666 
z
" transform="scale(0.015625)"/>
       </defs>
       <use xlink:href="#DejaVuSans-35"/>
       <use xlink:href="#DejaVuSans-30" x="63.623047"/>
      </g>
     </g>
    </g>
    <g id="xtick_3">
     <g id="line2d_3">
      <g>
       <use xlink:href="#m40b4dfdedd" x="224.834841" y="307.584" style="stroke: #000000; stroke-width: 0.8"/>
      </g>
     </g>
     <g id="text_3">
      <!-- 100 -->
      <g transform="translate(215.291091 322.182437) scale(0.1 -0.1)">
       <defs>
        <path id="DejaVuSans-31" d="M 794 531 
L 1825 531 
L 1825 4091 
L 703 3866 
L 703 4441 
L 1819 4666 
L 2450 4666 
L 2450 531 
L 3481 531 
L 3481 0 
L 794 0 
L 794 531 
z
" transform="scale(0.015625)"/>
       </defs>
       <use xlink:href="#DejaVuSans-31"/>
       <use xlink:href="#DejaVuSans-30" x="63.623047"/>
       <use xlink:href="#DejaVuSans-30" x="127.246094"/>
      </g>
     </g>
    </g>
    <g id="xtick_4">
     <g id="line2d_4">
      <g>
       <use xlink:href="#m40b4dfdedd" x="300.335899" y="307.584" style="stroke: #000000; stroke-width: 0.8"/>
      </g>
     </g>
     <g id="text_4">
      <!-- 150 -->
      <g transform="translate(290.792149 322.182437) scale(0.1 -0.1)">
       <use xlink:href="#DejaVuSans-31"/>
       <use xlink:href="#DejaVuSans-35" x="63.623047"/>
       <use xlink:href="#DejaVuSans-30" x="127.246094"/>
      </g>
     </g>
    </g>
    <g id="xtick_5">
     <g id="line2d_5">
      <g>
       <use xlink:href="#m40b4dfdedd" x="375.836956" y="307.584" style="stroke: #000000; stroke-width: 0.8"/>
      </g>
     </g>
     <g id="text_5">
      <!-- 200 -->
      <g transform="translate(366.293206 322.182437) scale(0.1 -0.1)">
       <defs>
        <path id="DejaVuSans-32" d="M 1228 531 
L 3431 531 
L 3431 0 
L 469 0 
L 469 531 
Q 828 903 1448 1529 
Q 2069 2156 2228 2338 
Q 2531 2678 2651 2914 
Q 2772 3150 2772 3378 
Q 2772 3750 2511 3984 
Q 2250 4219 1831 4219 
Q 1534 4219 1204 4116 
Q 875 4013 500 3803 
L 500 4441 
Q 881 4594 1212 4672 
Q 1544 4750 1819 4750 
Q 2544 4750 2975 4387 
Q 3406 4025 3406 3419 
Q 3406 3131 3298 2873 
Q 3191 2616 2906 2266 
Q 2828 2175 2409 1742 
Q 1991 1309 1228 531 
z
" transform="scale(0.015625)"/>
       </defs>
       <use xlink:href="#DejaVuSans-32"/>
       <use xlink:href="#DejaVuSans-30" x="63.623047"/>
       <use xlink:href="#DejaVuSans-30" x="127.246094"/>
      </g>
     </g>
    </g>
   </g>
   <g id="matplotlib.axis_2">
    <g id="ytick_1">
     <g id="line2d_6">
      <defs>
       <path id="mb805cb2272" d="M 0 0 
L -3.5 0 
" style="stroke: #000000; stroke-width: 0.8"/>
      </defs>
      <g>
       <use xlink:href="#mb805cb2272" x="57.6" y="294.473266" style="stroke: #000000; stroke-width: 0.8"/>
      </g>
     </g>
     <g id="text_6">
      <!-- 5000 -->
      <g transform="translate(25.15 298.272484) scale(0.1 -0.1)">
       <use xlink:href="#DejaVuSans-35"/>
       <use xlink:href="#DejaVuSans-30" x="63.623047"/>
       <use xlink:href="#DejaVuSans-30" x="127.246094"/>
       <use xlink:href="#DejaVuSans-30" x="190.869141"/>
      </g>
     </g>
    </g>
    <g id="ytick_2">
     <g id="line2d_7">
      <g>
       <use xlink:href="#mb805cb2272" x="57.6" y="262.816857" style="stroke: #000000; stroke-width: 0.8"/>
      </g>
     </g>
     <g id="text_7">
      <!-- 5500 -->
      <g transform="translate(25.15 266.616076) scale(0.1 -0.1)">
       <use xlink:href="#DejaVuSans-35"/>
       <use xlink:href="#DejaVuSans-35" x="63.623047"/>
       <use xlink:href="#DejaVuSans-30" x="127.246094"/>
       <use xlink:href="#DejaVuSans-30" x="190.869141"/>
      </g>
     </g>
    </g>
    <g id="ytick_3">
     <g id="line2d_8">
      <g>
       <use xlink:href="#mb805cb2272" x="57.6" y="231.160449" style="stroke: #000000; stroke-width: 0.8"/>
      </g>
     </g>
     <g id="text_8">
      <!-- 6000 -->
      <g transform="translate(25.15 234.959668) scale(0.1 -0.1)">
       <defs>
        <path id="DejaVuSans-36" d="M 2113 2584 
Q 1688 2584 1439 2293 
Q 1191 2003 1191 1497 
Q 1191 994 1439 701 
Q 1688 409 2113 409 
Q 2538 409 2786 701 
Q 3034 994 3034 1497 
Q 3034 2003 2786 2293 
Q 2538 2584 2113 2584 
z
M 3366 4563 
L 3366 3988 
Q 3128 4100 2886 4159 
Q 2644 4219 2406 4219 
Q 1781 4219 1451 3797 
Q 1122 3375 1075 2522 
Q 1259 2794 1537 2939 
Q 1816 3084 2150 3084 
Q 2853 3084 3261 2657 
Q 3669 2231 3669 1497 
Q 3669 778 3244 343 
Q 2819 -91 2113 -91 
Q 1303 -91 875 529 
Q 447 1150 447 2328 
Q 447 3434 972 4092 
Q 1497 4750 2381 4750 
Q 2619 4750 2861 4703 
Q 3103 4656 3366 4563 
z
" transform="scale(0.015625)"/>
       </defs>
       <use xlink:href="#DejaVuSans-36"/>
       <use xlink:href="#DejaVuSans-30" x="63.623047"/>
       <use xlink:href="#DejaVuSans-30" x="127.246094"/>
       <use xlink:href="#DejaVuSans-30" x="190.869141"/>
      </g>
     </g>
    </g>
    <g id="ytick_4">
     <g id="line2d_9">
      <g>
       <use xlink:href="#mb805cb2272" x="57.6" y="199.504041" style="stroke: #000000; stroke-width: 0.8"/>
      </g>
     </g>
     <g id="text_9">
      <!-- 6500 -->
      <g transform="translate(25.15 203.30326) scale(0.1 -0.1)">
       <use xlink:href="#DejaVuSans-36"/>
       <use xlink:href="#DejaVuSans-35" x="63.623047"/>
       <use xlink:href="#DejaVuSans-30" x="127.246094"/>
       <use xlink:href="#DejaVuSans-30" x="190.869141"/>
      </g>
     </g>
    </g>
    <g id="ytick_5">
     <g id="line2d_10">
      <g>
       <use xlink:href="#mb805cb2272" x="57.6" y="167.847633" style="stroke: #000000; stroke-width: 0.8"/>
      </g>
     </g>
     <g id="text_10">
      <!-- 7000 -->
      <g transform="translate(25.15 171.646852) scale(0.1 -0.1)">
       <defs>
        <path id="DejaVuSans-37" d="M 525 4666 
L 3525 4666 
L 3525 4397 
L 1831 0 
L 1172 0 
L 2766 4134 
L 525 4134 
L 525 4666 
z
" transform="scale(0.015625)"/>
       </defs>
       <use xlink:href="#DejaVuSans-37"/>
       <use xlink:href="#DejaVuSans-30" x="63.623047"/>
       <use xlink:href="#DejaVuSans-30" x="127.246094"/>
       <use xlink:href="#DejaVuSans-30" x="190.869141"/>
      </g>
     </g>
    </g>
    <g id="ytick_6">
     <g id="line2d_11">
      <g>
       <use xlink:href="#mb805cb2272" x="57.6" y="136.191225" style="stroke: #000000; stroke-width: 0.8"/>
      </g>
     </g>
     <g id="text_11">
      <!-- 7500 -->
      <g transform="translate(25.15 139.990444) scale(0.1 -0.1)">
       <use xlink:href="#DejaVuSans-37"/>
       <use xlink:href="#DejaVuSans-35" x="63.623047"/>
       <use xlink:href="#DejaVuSans-30" x="127.246094"/>
       <use xlink:href="#DejaVuSans-30" x="190.869141"/>
      </g>
     </g>
    </g>
    <g id="ytick_7">
     <g id="line2d_12">
      <g>
       <use xlink:href="#mb805cb2272" x="57.6" y="104.534817" style="stroke: #000000; stroke-width: 0.8"/>
      </g>
     </g>
     <g id="text_12">
      <!-- 8000 -->
      <g transform="translate(25.15 108.334036) scale(0.1 -0.1)">
       <defs>
        <path id="DejaVuSans-38" d="M 2034 2216 
Q 1584 2216 1326 1975 
Q 1069 1734 1069 1313 
Q 1069 891 1326 650 
Q 1584 409 2034 409 
Q 2484 409 2743 651 
Q 3003 894 3003 1313 
Q 3003 1734 2745 1975 
Q 2488 2216 2034 2216 
z
M 1403 2484 
Q 997 2584 770 2862 
Q 544 3141 544 3541 
Q 544 4100 942 4425 
Q 1341 4750 2034 4750 
Q 2731 4750 3128 4425 
Q 3525 4100 3525 3541 
Q 3525 3141 3298 2862 
Q 3072 2584 2669 2484 
Q 3125 2378 3379 2068 
Q 3634 1759 3634 1313 
Q 3634 634 3220 271 
Q 2806 -91 2034 -91 
Q 1263 -91 848 271 
Q 434 634 434 1313 
Q 434 1759 690 2068 
Q 947 2378 1403 2484 
z
M 1172 3481 
Q 1172 3119 1398 2916 
Q 1625 2713 2034 2713 
Q 2441 2713 2670 2916 
Q 2900 3119 2900 3481 
Q 2900 3844 2670 4047 
Q 2441 4250 2034 4250 
Q 1625 4250 1398 4047 
Q 1172 3844 1172 3481 
z
" transform="scale(0.015625)"/>
       </defs>
       <use xlink:href="#DejaVuSans-38"/>
       <use xlink:href="#DejaVuSans-30" x="63.623047"/>
       <use xlink:href="#DejaVuSans-30" x="127.246094"/>
       <use xlink:href="#DejaVuSans-30" x="190.869141"/>
      </g>
     </g>
    </g>
    <g id="ytick_8">
     <g id="line2d_13">
      <g>
       <use xlink:href="#mb805cb2272" x="57.6" y="72.878409" style="stroke: #000000; stroke-width: 0.8"/>
      </g>
     </g>
     <g id="text_13">
      <!-- 8500 -->
      <g transform="translate(25.15 76.677628) scale(0.1 -0.1)">
       <use xlink:href="#DejaVuSans-38"/>
       <use xlink:href="#DejaVuSans-35" x="63.623047"/>
       <use xlink:href="#DejaVuSans-30" x="127.246094"/>
       <use xlink:href="#DejaVuSans-30" x="190.869141"/>
      </g>
     </g>
    </g>
   </g>
   <g id="line2d_14">
    <path d="M 73.832727 295.488 
L 75.342748 294.151782 
L 76.85277 291.216937 
L 78.362791 290.817637 
L 81.382833 290.29462 
L 82.892854 290.516215 
L 84.402875 289.49756 
L 85.912896 289.745909 
L 87.422918 286.839094 
L 88.932939 282.178809 
L 90.44296 275.288091 
L 93.463002 278.835 
L 94.973023 280.86101 
L 96.483044 277.916333 
L 97.993066 277.291381 
L 99.503087 276.292936 
L 101.013108 273.769339 
L 102.523129 271.963538 
L 104.03315 269.480189 
L 105.543171 269.156857 
L 107.053192 267.56507 
L 108.563214 268.064986 
L 111.583256 268.472802 
L 113.093277 267.108944 
L 114.603298 266.172214 
L 116.113319 266.402209 
L 119.133362 266.626179 
L 120.643383 266.241297 
L 122.153404 266.244895 
L 123.663425 267.185442 
L 125.173446 267.407816 
L 126.683467 267.151287 
L 128.193488 267.196957 
L 129.70351 263.009141 
L 131.213531 261.574178 
L 132.723552 262.980525 
L 134.233573 261.697597 
L 135.743594 261.050091 
L 137.253615 260.859327 
L 138.763636 261.189718 
L 140.273658 260.465842 
L 141.783679 260.13139 
L 143.2937 259.164342 
L 146.313742 255.73467 
L 147.823763 254.479256 
L 149.333784 251.854539 
L 150.843805 249.711673 
L 152.353827 247.239372 
L 153.863848 246.148202 
L 155.373869 246.594511 
L 156.88389 245.086893 
L 158.393911 245.075797 
L 159.903932 246.608777 
L 161.413953 242.940808 
L 162.923975 240.360052 
L 164.433996 238.848822 
L 165.944017 238.997351 
L 167.454038 240.594059 
L 168.964059 240.867972 
L 170.47408 241.002863 
L 171.984101 241.820745 
L 173.494123 239.947337 
L 175.004144 240.450339 
L 176.514165 238.746735 
L 178.024186 238.746732 
L 179.534207 238.257232 
L 181.044228 238.534282 
L 182.554249 237.466889 
L 184.064271 235.471746 
L 185.574292 235.091879 
L 187.084313 232.548608 
L 188.594334 231.042362 
L 190.104355 230.668427 
L 191.614376 231.365009 
L 193.124397 230.815429 
L 194.634419 231.68278 
L 196.14444 232.349675 
L 197.654461 230.167055 
L 199.164482 230.495665 
L 202.184524 225.243722 
L 203.694545 224.660772 
L 205.204567 221.87766 
L 206.714588 221.913406 
L 208.224609 223.151378 
L 209.73463 223.223579 
L 211.244651 222.872245 
L 212.754672 220.134488 
L 214.264693 217.069089 
L 215.774715 217.594194 
L 217.284736 215.580795 
L 218.794757 215.339133 
L 220.304778 217.168317 
L 221.814799 216.337257 
L 223.32482 217.141937 
L 224.834841 214.018525 
L 226.344863 213.721868 
L 227.854884 212.531066 
L 229.364905 212.909776 
L 230.874926 214.287584 
L 232.384947 213.345527 
L 233.894968 212.776732 
L 235.404989 212.716079 
L 236.915011 210.261758 
L 238.425032 203.714058 
L 239.935053 205.788629 
L 241.445074 206.062692 
L 242.955095 205.712329 
L 244.465116 204.691814 
L 245.975137 206.569488 
L 247.485159 200.635578 
L 248.99518 200.810019 
L 250.505201 198.410233 
L 252.015222 200.121962 
L 253.525243 198.104218 
L 255.035264 196.506351 
L 256.545285 191.855678 
L 258.055307 192.880767 
L 259.565328 193.535761 
L 261.075349 194.982451 
L 262.58537 194.558245 
L 264.095391 196.044348 
L 265.605412 194.303254 
L 267.115433 189.095432 
L 268.625455 190.737327 
L 270.135476 190.548204 
L 271.645497 190.042254 
L 273.155518 185.999499 
L 274.665539 186.158412 
L 276.17556 183.699433 
L 277.685581 183.330647 
L 279.195603 181.273693 
L 280.705624 179.782495 
L 282.215645 180.887936 
L 283.725666 177.892328 
L 285.235687 175.429045 
L 286.745708 168.745653 
L 288.255729 164.597317 
L 291.275772 158.665051 
L 292.785793 158.312475 
L 294.295814 153.644965 
L 295.805835 145.296221 
L 297.315856 145.650487 
L 300.335899 148.537224 
L 301.84592 149.518573 
L 303.355941 149.185127 
L 304.865962 147.942861 
L 306.375983 143.95791 
L 307.886004 140.772657 
L 309.396025 140.198144 
L 310.906047 140.332939 
L 312.416068 136.261009 
L 313.926089 131.720098 
L 315.43611 130.463876 
L 316.946131 125.550247 
L 318.456152 124.943049 
L 319.966173 125.060595 
L 321.476195 122.505186 
L 326.006258 124.130134 
L 327.516279 123.252642 
L 329.0263 121.402595 
L 330.536321 121.55288 
L 332.046342 118.401966 
L 333.556364 110.289008 
L 335.066385 108.506517 
L 336.576406 110.6111 
L 338.086427 111.908723 
L 339.596448 112.092308 
L 341.106469 114.42041 
L 342.61649 113.115693 
L 344.126512 106.631076 
L 345.636533 107.302466 
L 347.146554 106.179386 
L 348.656575 102.616721 
L 350.166596 99.543735 
L 351.676617 100.483338 
L 353.186638 97.222441 
L 356.206681 98.404789 
L 357.716702 98.252748 
L 359.226723 97.036006 
L 360.736744 97.030929 
L 362.246765 94.749804 
L 363.756786 91.266702 
L 365.266808 84.64757 
L 366.776829 79.819907 
L 368.28685 65.48792 
L 369.796871 61.770461 
L 371.306892 65.304947 
L 372.816913 71.928717 
L 374.326934 70.988806 
L 375.836956 71.79636 
L 377.346977 71.065044 
L 378.856998 71.479129 
L 380.367019 67.545865 
L 381.87704 67.390136 
L 383.387061 69.01281 
L 384.897082 69.143948 
L 386.407104 67.018434 
L 387.917125 66.442797 
L 389.427146 66.982947 
L 390.937167 63.205995 
L 392.447188 61.954357 
L 393.957209 61.305429 
L 395.46723 61.605258 
L 396.977252 61.316788 
L 398.487273 55.220537 
L 398.487273 55.220537 
" clip-path="url(#p2df301939d)" style="fill: none; stroke: #1f77b4; stroke-opacity: 0.7; stroke-width: 0.5; stroke-linecap: square"/>
   </g>
   <g id="line2d_15">
    <path d="M 73.832727 295.2364 
L 75.342748 294.055194 
L 76.85277 290.732533 
L 81.382833 289.943416 
L 82.892854 290.113914 
L 84.402875 289.235551 
L 85.912896 289.524849 
L 87.422918 286.847788 
L 88.932939 280.829354 
L 90.44296 272.946908 
L 91.952981 275.55157 
L 94.973023 279.782715 
L 96.483044 277.403218 
L 97.993066 276.847528 
L 99.503087 275.952308 
L 101.013108 273.42703 
L 102.523129 271.586274 
L 104.03315 269.037342 
L 105.543171 268.93653 
L 107.053192 267.383855 
L 108.563214 267.765408 
L 110.073235 267.812304 
L 111.583256 267.985715 
L 113.093277 266.750147 
L 114.603298 265.923277 
L 116.113319 266.139981 
L 117.62334 266.100529 
L 119.133362 266.195553 
L 122.153404 265.98062 
L 123.663425 266.714207 
L 125.173446 267.009681 
L 128.193488 267.045559 
L 129.70351 263.073512 
L 131.213531 261.142767 
L 132.723552 262.910248 
L 134.233573 261.460908 
L 135.743594 260.894451 
L 137.253615 260.711559 
L 138.763636 260.974995 
L 140.273658 260.004913 
L 141.783679 259.869431 
L 143.2937 258.937284 
L 144.803721 257.277296 
L 146.313742 255.187663 
L 147.823763 254.031815 
L 149.333784 251.478587 
L 150.843805 249.287964 
L 152.353827 246.814543 
L 153.863848 245.824317 
L 155.373869 246.276319 
L 156.88389 244.779188 
L 158.393911 244.786414 
L 159.903932 245.883151 
L 162.923975 239.865267 
L 164.433996 238.360168 
L 165.944017 238.749521 
L 167.454038 239.938896 
L 168.964059 240.049187 
L 170.47408 240.294384 
L 171.984101 241.260868 
L 173.494123 239.487905 
L 175.004144 240.026149 
L 176.514165 238.360469 
L 178.024186 238.455199 
L 179.534207 237.930935 
L 181.044228 238.173847 
L 182.554249 237.115213 
L 184.064271 234.895906 
L 185.574292 234.755948 
L 187.084313 232.120694 
L 188.594334 230.471395 
L 190.104355 230.420184 
L 191.614376 231.185042 
L 193.124397 230.555021 
L 194.634419 231.289921 
L 196.14444 231.752592 
L 197.654461 229.87533 
L 199.164482 230.175149 
L 200.674503 227.900539 
L 202.184524 224.132727 
L 203.694545 224.168141 
L 205.204567 221.237924 
L 206.714588 221.455601 
L 208.224609 222.497637 
L 209.73463 222.652389 
L 211.244651 222.495202 
L 212.754672 220.115704 
L 214.264693 216.091999 
L 215.774715 217.418145 
L 217.284736 215.024475 
L 218.794757 215.032692 
L 220.304778 216.595546 
L 221.814799 215.879188 
L 223.32482 216.668573 
L 224.834841 213.954371 
L 226.344863 213.427758 
L 227.854884 212.359525 
L 229.364905 212.815149 
L 230.874926 213.59264 
L 232.384947 212.810841 
L 233.894968 212.377831 
L 235.404989 212.334954 
L 236.915011 210.251613 
L 238.425032 201.909928 
L 239.935053 205.2084 
L 241.445074 205.743276 
L 242.955095 205.288658 
L 244.465116 204.383902 
L 245.975137 206.279296 
L 247.485159 200.619 
L 248.99518 200.610222 
L 250.505201 197.562448 
L 252.015222 200.216046 
L 253.525243 197.772084 
L 255.035264 196.160717 
L 256.545285 190.065156 
L 258.055307 192.391902 
L 259.565328 192.971322 
L 261.075349 194.124033 
L 262.58537 194.245414 
L 264.095391 195.557442 
L 265.605412 193.931277 
L 267.115433 188.202704 
L 268.625455 190.672337 
L 270.135476 190.463271 
L 271.645497 189.882938 
L 273.155518 185.697627 
L 274.665539 185.863158 
L 276.17556 183.174611 
L 277.685581 183.033362 
L 279.195603 180.87319 
L 280.705624 179.340807 
L 282.215645 180.961461 
L 283.725666 177.675365 
L 285.235687 174.752986 
L 286.745708 166.634138 
L 288.255729 162.481872 
L 289.765751 160.185976 
L 291.275772 157.674483 
L 292.785793 157.518675 
L 294.295814 153.104822 
L 295.805835 143.535512 
L 298.825877 146.066485 
L 300.335899 146.954523 
L 301.84592 148.081106 
L 303.355941 147.848813 
L 304.865962 146.941523 
L 306.375983 143.496908 
L 307.886004 140.442228 
L 309.396025 139.713933 
L 310.906047 139.569663 
L 312.416068 135.4765 
L 313.926089 129.923256 
L 315.43611 129.877019 
L 316.946131 124.851196 
L 319.966173 124.229577 
L 321.476195 122.309148 
L 322.986216 122.653677 
L 324.496237 122.633093 
L 326.006258 123.229254 
L 327.516279 122.362599 
L 329.0263 120.717286 
L 330.536321 120.958244 
L 332.046342 117.921043 
L 333.556364 106.877391 
L 335.066385 106.497054 
L 336.576406 110.838818 
L 338.086427 111.566856 
L 339.596448 110.811376 
L 341.106469 112.56922 
L 342.61649 112.008487 
L 344.126512 106.594332 
L 345.636533 106.586235 
L 347.146554 105.737685 
L 348.656575 101.891507 
L 350.166596 98.735363 
L 351.676617 100.402675 
L 353.186638 96.889606 
L 354.69666 97.560607 
L 356.206681 97.744656 
L 357.716702 97.401496 
L 359.226723 96.319592 
L 360.736744 96.370831 
L 362.246765 94.142311 
L 363.756786 90.511028 
L 365.266808 81.172388 
L 366.776829 76.618743 
L 368.28685 61.165538 
L 369.796871 58.170842 
L 371.306892 63.238888 
L 372.816913 68.790757 
L 374.326934 68.744899 
L 375.836956 70.119836 
L 377.346977 69.924946 
L 378.856998 70.526478 
L 380.367019 66.539011 
L 381.87704 66.643033 
L 383.387061 67.981787 
L 384.897082 68.181936 
L 386.407104 66.293579 
L 387.917125 65.778622 
L 389.427146 66.244556 
L 390.937167 62.530914 
L 392.447188 61.135772 
L 393.957209 60.704158 
L 395.46723 61.100261 
L 396.977252 60.520891 
L 398.487273 54.763581 
L 398.487273 54.763581 
" clip-path="url(#p2df301939d)" style="fill: none; stroke: #ff7f0e; stroke-opacity: 0.7; stroke-width: 0.5; stroke-linecap: square"/>
   </g>
   <g id="line2d_16">
    <path d="M 73.832727 295.3622 
L 75.342748 294.103488 
L 76.85277 290.974735 
L 79.872812 290.379547 
L 81.382833 290.119018 
L 82.892854 290.315064 
L 84.402875 289.366555 
L 85.912896 289.635379 
L 87.422918 286.843441 
L 88.932939 281.504081 
L 90.44296 274.1175 
L 91.952981 276.291657 
L 94.973023 280.321862 
L 96.483044 277.659776 
L 97.993066 277.069455 
L 99.503087 276.122622 
L 101.013108 273.598185 
L 102.523129 271.774906 
L 104.03315 269.258765 
L 105.543171 269.046694 
L 107.053192 267.474462 
L 108.563214 267.915197 
L 111.583256 268.229259 
L 113.093277 266.929546 
L 114.603298 266.047745 
L 116.113319 266.271095 
L 117.62334 266.279932 
L 119.133362 266.410866 
L 120.643383 266.138217 
L 122.153404 266.112758 
L 123.663425 266.949824 
L 125.173446 267.208749 
L 126.683467 267.071029 
L 128.193488 267.121258 
L 129.70351 263.041327 
L 131.213531 261.358473 
L 132.723552 262.945386 
L 134.233573 261.579252 
L 135.743594 260.972271 
L 137.253615 260.785443 
L 138.763636 261.082357 
L 140.273658 260.235377 
L 141.783679 260.00041 
L 143.2937 259.050813 
L 144.803721 257.40113 
L 146.313742 255.461167 
L 147.823763 254.255535 
L 149.333784 251.666563 
L 150.843805 249.499818 
L 152.353827 247.026957 
L 153.863848 245.98626 
L 155.373869 246.435415 
L 156.88389 244.933041 
L 158.393911 244.931105 
L 159.903932 246.245964 
L 161.413953 242.874864 
L 162.923975 240.112659 
L 164.433996 238.604495 
L 165.944017 238.873436 
L 167.454038 240.266477 
L 170.47408 240.648623 
L 171.984101 241.540806 
L 173.494123 239.717621 
L 175.004144 240.238244 
L 176.514165 238.553602 
L 178.024186 238.600965 
L 179.534207 238.094084 
L 181.044228 238.354064 
L 182.554249 237.291051 
L 184.064271 235.183826 
L 185.574292 234.923914 
L 187.084313 232.334651 
L 188.594334 230.756879 
L 190.104355 230.544306 
L 191.614376 231.275026 
L 193.124397 230.685225 
L 194.634419 231.486351 
L 196.14444 232.051134 
L 197.654461 230.021193 
L 199.164482 230.335407 
L 200.674503 227.896279 
L 202.184524 224.688224 
L 203.694545 224.414456 
L 205.204567 221.557792 
L 206.714588 221.684503 
L 208.224609 222.824507 
L 209.73463 222.937984 
L 211.244651 222.683723 
L 212.754672 220.125096 
L 214.264693 216.580544 
L 215.774715 217.50617 
L 217.284736 215.302635 
L 218.794757 215.185913 
L 220.304778 216.881931 
L 221.814799 216.108222 
L 223.32482 216.905255 
L 224.834841 213.986448 
L 226.344863 213.574813 
L 227.854884 212.445296 
L 229.364905 212.862463 
L 230.874926 213.940112 
L 232.384947 213.078184 
L 233.894968 212.577281 
L 235.404989 212.525516 
L 236.915011 210.256686 
L 238.425032 202.811993 
L 239.935053 205.498515 
L 241.445074 205.902984 
L 242.955095 205.500493 
L 244.465116 204.537858 
L 245.975137 206.424392 
L 247.485159 200.627289 
L 248.99518 200.71012 
L 250.505201 197.986341 
L 252.015222 200.169004 
L 253.525243 197.938151 
L 255.035264 196.333534 
L 256.545285 190.960417 
L 258.055307 192.636334 
L 259.565328 193.253542 
L 261.075349 194.553242 
L 262.58537 194.401829 
L 264.095391 195.800895 
L 265.605412 194.117266 
L 267.115433 188.649068 
L 268.625455 190.704832 
L 270.135476 190.505738 
L 271.645497 189.962596 
L 273.155518 185.848563 
L 274.665539 186.010785 
L 276.17556 183.437022 
L 277.685581 183.182004 
L 279.195603 181.073441 
L 280.705624 179.561651 
L 282.215645 180.924698 
L 283.725666 177.783847 
L 285.235687 175.091016 
L 286.745708 167.689895 
L 288.255729 163.539595 
L 291.275772 158.169767 
L 292.785793 157.915575 
L 294.295814 153.374893 
L 295.805835 144.415866 
L 297.315856 145.232563 
L 298.825877 146.602535 
L 301.84592 148.79984 
L 303.355941 148.51697 
L 304.865962 147.442192 
L 306.375983 143.727409 
L 307.886004 140.607443 
L 309.396025 139.956038 
L 310.906047 139.951301 
L 312.416068 135.868755 
L 313.926089 130.821677 
L 315.43611 130.170447 
L 316.946131 125.200722 
L 318.456152 124.727315 
L 319.966173 124.645086 
L 321.476195 122.407167 
L 322.986216 122.845366 
L 324.496237 123.14419 
L 326.006258 123.679694 
L 327.516279 122.80762 
L 329.0263 121.05994 
L 330.536321 121.255562 
L 332.046342 118.161504 
L 333.556364 108.583199 
L 335.066385 107.501786 
L 336.576406 110.724959 
L 338.086427 111.737789 
L 339.596448 111.451842 
L 341.106469 113.494815 
L 342.61649 112.56209 
L 344.126512 106.612704 
L 345.636533 106.944351 
L 347.146554 105.958536 
L 348.656575 102.254114 
L 350.166596 99.139549 
L 351.676617 100.443007 
L 353.186638 97.056024 
L 354.69666 97.712375 
L 356.206681 98.074722 
L 357.716702 97.827122 
L 359.226723 96.677799 
L 360.736744 96.70088 
L 362.246765 94.446057 
L 363.756786 90.888865 
L 365.266808 82.909979 
L 366.776829 78.219325 
L 368.28685 63.326729 
L 369.796871 59.970652 
L 371.306892 64.271917 
L 372.816913 70.359737 
L 374.326934 69.866853 
L 375.836956 70.958098 
L 377.346977 70.494995 
L 378.856998 71.002804 
L 380.367019 67.042438 
L 381.87704 67.016585 
L 383.387061 68.497298 
L 384.897082 68.662942 
L 386.407104 66.656006 
L 387.917125 66.11071 
L 389.427146 66.613752 
L 390.937167 62.868455 
L 392.447188 61.545064 
L 393.957209 61.004793 
L 395.46723 61.352759 
L 396.977252 60.918839 
L 398.487273 54.992059 
L 398.487273 54.992059 
" clip-path="url(#p2df301939d)" style="fill: none; stroke: #2ca02c; stroke-opacity: 0.7; stroke-width: 0.5; stroke-linecap: square"/>
   </g>
   <g id="line2d_17">
    <path d="M 73.832727 294.979768 
L 75.342748 292.447255 
L 78.362791 291.180999 
L 79.872812 290.801122 
L 81.382833 290.737809 
L 82.892854 289.978056 
L 84.402875 290.041368 
L 85.912896 287.762107 
L 87.422918 283.900025 
L 88.932939 277.885308 
L 90.44296 278.011933 
L 91.952981 278.518436 
L 93.463002 279.911318 
L 94.973023 278.328497 
L 96.483044 277.758682 
L 97.993066 276.872303 
L 99.503087 274.846293 
L 101.013108 273.200159 
L 102.523129 270.984211 
L 104.03315 270.351083 
L 105.543171 268.831575 
L 107.053192 268.831575 
L 108.563214 268.641637 
L 110.073235 268.578324 
L 113.093277 266.805565 
L 114.603298 266.805565 
L 116.113319 266.678939 
L 117.62334 266.678939 
L 119.133362 266.425688 
L 120.643383 266.362375 
L 122.153404 266.932191 
L 123.663425 267.122129 
L 125.173446 267.058816 
L 126.683467 267.122129 
L 128.193488 263.829863 
L 129.70351 262.436981 
L 131.213531 263.386673 
L 132.723552 262.120416 
L 134.233573 261.613914 
L 135.743594 261.29735 
L 137.253615 261.360663 
L 138.763636 260.790847 
L 140.273658 260.474283 
L 141.783679 259.651217 
L 143.2937 258.258335 
L 144.803721 256.675514 
L 146.313742 255.409258 
L 147.823763 253.193309 
L 149.333784 251.230612 
L 150.843805 248.951351 
L 152.353827 247.621782 
L 153.863848 247.36853 
L 155.373869 246.038961 
L 156.88389 245.78571 
L 158.393911 246.418838 
L 161.413953 241.480438 
L 162.923975 240.024244 
L 164.433996 239.834305 
L 165.944017 240.404121 
L 168.964059 240.783997 
L 170.47408 241.417126 
L 171.984101 240.150869 
L 173.494123 240.530746 
L 175.004144 239.137864 
L 176.514165 239.074551 
L 178.024186 238.568049 
L 179.534207 238.694675 
L 181.044228 237.808295 
L 182.554249 236.162162 
L 184.064271 235.655659 
L 185.574292 233.503024 
L 187.084313 232.046829 
L 188.594334 231.477013 
L 190.104355 231.730265 
L 191.614376 231.160449 
L 193.124397 231.666952 
L 194.634419 232.046829 
L 196.14444 230.653947 
L 197.654461 230.780572 
L 199.164482 228.69125 
L 200.674503 226.348675 
L 202.184524 225.398983 
L 203.694545 223.056409 
L 205.204567 222.676532 
L 206.714588 223.119722 
L 208.224609 223.119722 
L 209.73463 222.929783 
L 211.244651 221.030399 
L 212.754672 218.371261 
L 214.264693 218.434573 
L 215.774715 216.408563 
L 217.284736 216.091999 
L 218.794757 216.915066 
L 220.304778 216.408563 
L 221.814799 216.978379 
L 223.32482 214.76243 
L 224.834841 214.31924 
L 226.344863 213.242922 
L 227.854884 213.369548 
L 229.364905 213.939363 
L 232.384947 213.052984 
L 233.894968 212.926358 
L 235.404989 211.026974 
L 236.915011 205.582072 
L 238.425032 206.531764 
L 239.935053 206.405138 
L 241.445074 206.025261 
L 242.955095 205.202195 
L 244.465116 206.468451 
L 245.975137 201.909928 
L 247.485159 201.909928 
L 248.99518 199.377416 
L 250.505201 200.770298 
L 252.015222 198.744287 
L 253.525243 197.478031 
L 255.035264 192.856196 
L 256.545285 193.679262 
L 258.055307 193.869201 
L 259.565328 194.502329 
L 261.075349 194.565642 
L 262.58537 195.515334 
L 264.095391 194.375703 
L 265.605412 190.640247 
L 267.115433 191.463314 
L 270.135476 190.513621 
L 271.645497 187.221355 
L 273.155518 187.094729 
L 274.665539 184.752155 
L 276.17556 184.245653 
L 277.685581 182.346268 
L 279.195603 180.890073 
L 280.705624 181.649827 
L 282.215645 178.927376 
L 283.725666 176.648115 
L 285.235687 170.570084 
L 286.745708 166.771315 
L 289.765751 160.946536 
L 291.275772 159.870218 
L 292.785793 155.944824 
L 294.295814 148.980414 
L 295.805835 147.967409 
L 297.315856 148.094035 
L 298.825877 148.347286 
L 300.335899 149.043727 
L 301.84592 148.980414 
L 303.355941 148.283973 
L 306.375983 142.649132 
L 307.886004 141.572814 
L 309.396025 141.129625 
L 312.416068 133.658712 
L 313.926089 132.202518 
L 315.43611 127.960559 
L 316.946131 126.884241 
L 318.456152 126.061175 
L 319.966173 124.225103 
L 322.986216 123.845226 
L 324.496237 124.098477 
L 326.006258 123.528662 
L 327.516279 122.199093 
L 329.0263 122.072467 
L 330.536321 119.539954 
L 332.046342 111.942417 
L 333.556364 110.169658 
L 335.066385 111.625852 
L 336.576406 112.132355 
L 338.086427 112.132355 
L 339.596448 113.651863 
L 341.106469 113.082047 
L 342.61649 108.20696 
L 344.126512 108.396899 
L 345.636533 107.130642 
L 347.146554 104.091627 
L 348.656575 101.369176 
L 350.166596 101.68574 
L 351.676617 98.710038 
L 353.186638 98.899976 
L 354.69666 98.836664 
L 356.206681 98.583412 
L 357.716702 97.63372 
L 359.226723 97.443782 
L 360.736744 95.60771 
L 362.246765 92.821946 
L 363.756786 85.984162 
L 365.266808 81.615578 
L 366.776829 69.269578 
L 368.28685 65.090933 
L 369.796871 66.420502 
L 371.306892 69.649455 
L 372.816913 69.776081 
L 374.326934 70.789086 
L 375.836956 70.725773 
L 377.346977 71.10565 
L 378.856998 68.193261 
L 380.367019 67.940009 
L 381.87704 68.699763 
L 383.387061 68.826389 
L 384.897082 67.433507 
L 386.407104 66.800379 
L 387.917125 67.05363 
L 389.427146 63.951302 
L 390.937167 62.748358 
L 392.447188 61.988605 
L 393.957209 62.051917 
L 395.46723 61.67204 
L 396.977252 56.353764 
L 398.487273 53.568 
L 398.487273 53.568 
" clip-path="url(#p2df301939d)" style="fill: none; stroke: #d62728; stroke-opacity: 0.7; stroke-width: 0.5; stroke-linecap: square"/>
   </g>
   <g id="patch_3">
    <path d="M 57.6 307.584 
L 57.6 41.472 
" style="fill: none; stroke: #000000; stroke-width: 0.8; stroke-linejoin: miter; stroke-linecap: square"/>
   </g>
   <g id="patch_4">
    <path d="M 414.72 307.584 
L 414.72 41.472 
" style="fill: none; stroke: #000000; stroke-width: 0.8; stroke-linejoin: miter; stroke-linecap: square"/>
   </g>
   <g id="patch_5">
    <path d="M 57.6 307.584 
L 414.72 307.584 
" style="fill: none; stroke: #000000; stroke-width: 0.8; stroke-linejoin: miter; stroke-linecap: square"/>
   </g>
   <g id="patch_6">
    <path d="M 57.6 41.472 
L 414.72 41.472 
" style="fill: none; stroke: #000000; stroke-width: 0.8; stroke-linejoin: miter; stroke-linecap: square"/>
   </g>
   <g id="text_14">
    <!-- 1final_zhangext_aa_cci -->
    <g transform="translate(167.068125 35.472) scale(0.12 -0.12)">
     <defs>
      <path id="DejaVuSans-66" d="M 2375 4863 
L 2375 4384 
L 1825 4384 
Q 1516 4384 1395 4259 
Q 1275 4134 1275 3809 
L 1275 3500 
L 2222 3500 
L 2222 3053 
L 1275 3053 
L 1275 0 
L 697 0 
L 697 3053 
L 147 3053 
L 147 3500 
L 697 3500 
L 697 3744 
Q 697 4328 969 4595 
Q 1241 4863 1831 4863 
L 2375 4863 
z
" transform="scale(0.015625)"/>
      <path id="DejaVuSans-69" d="M 603 3500 
L 1178 3500 
L 1178 0 
L 603 0 
L 603 3500 
z
M 603 4863 
L 1178 4863 
L 1178 4134 
L 603 4134 
L 603 4863 
z
" transform="scale(0.015625)"/>
      <path id="DejaVuSans-6e" d="M 3513 2113 
L 3513 0 
L 2938 0 
L 2938 2094 
Q 2938 2591 2744 2837 
Q 2550 3084 2163 3084 
Q 1697 3084 1428 2787 
Q 1159 2491 1159 1978 
L 1159 0 
L 581 0 
L 581 3500 
L 1159 3500 
L 1159 2956 
Q 1366 3272 1645 3428 
Q 1925 3584 2291 3584 
Q 2894 3584 3203 3211 
Q 3513 2838 3513 2113 
z
" transform="scale(0.015625)"/>
      <path id="DejaVuSans-61" d="M 2194 1759 
Q 1497 1759 1228 1600 
Q 959 1441 959 1056 
Q 959 750 1161 570 
Q 1363 391 1709 391 
Q 2188 391 2477 730 
Q 2766 1069 2766 1631 
L 2766 1759 
L 2194 1759 
z
M 3341 1997 
L 3341 0 
L 2766 0 
L 2766 531 
Q 2569 213 2275 61 
Q 1981 -91 1556 -91 
Q 1019 -91 701 211 
Q 384 513 384 1019 
Q 384 1609 779 1909 
Q 1175 2209 1959 2209 
L 2766 2209 
L 2766 2266 
Q 2766 2663 2505 2880 
Q 2244 3097 1772 3097 
Q 1472 3097 1187 3025 
Q 903 2953 641 2809 
L 641 3341 
Q 956 3463 1253 3523 
Q 1550 3584 1831 3584 
Q 2591 3584 2966 3190 
Q 3341 2797 3341 1997 
z
" transform="scale(0.015625)"/>
      <path id="DejaVuSans-6c" d="M 603 4863 
L 1178 4863 
L 1178 0 
L 603 0 
L 603 4863 
z
" transform="scale(0.015625)"/>
      <path id="DejaVuSans-5f" d="M 3263 -1063 
L 3263 -1509 
L -63 -1509 
L -63 -1063 
L 3263 -1063 
z
" transform="scale(0.015625)"/>
      <path id="DejaVuSans-7a" d="M 353 3500 
L 3084 3500 
L 3084 2975 
L 922 459 
L 3084 459 
L 3084 0 
L 275 0 
L 275 525 
L 2438 3041 
L 353 3041 
L 353 3500 
z
" transform="scale(0.015625)"/>
      <path id="DejaVuSans-68" d="M 3513 2113 
L 3513 0 
L 2938 0 
L 2938 2094 
Q 2938 2591 2744 2837 
Q 2550 3084 2163 3084 
Q 1697 3084 1428 2787 
Q 1159 2491 1159 1978 
L 1159 0 
L 581 0 
L 581 4863 
L 1159 4863 
L 1159 2956 
Q 1366 3272 1645 3428 
Q 1925 3584 2291 3584 
Q 2894 3584 3203 3211 
Q 3513 2838 3513 2113 
z
" transform="scale(0.015625)"/>
      <path id="DejaVuSans-67" d="M 2906 1791 
Q 2906 2416 2648 2759 
Q 2391 3103 1925 3103 
Q 1463 3103 1205 2759 
Q 947 2416 947 1791 
Q 947 1169 1205 825 
Q 1463 481 1925 481 
Q 2391 481 2648 825 
Q 2906 1169 2906 1791 
z
M 3481 434 
Q 3481 -459 3084 -895 
Q 2688 -1331 1869 -1331 
Q 1566 -1331 1297 -1286 
Q 1028 -1241 775 -1147 
L 775 -588 
Q 1028 -725 1275 -790 
Q 1522 -856 1778 -856 
Q 2344 -856 2625 -561 
Q 2906 -266 2906 331 
L 2906 616 
Q 2728 306 2450 153 
Q 2172 0 1784 0 
Q 1141 0 747 490 
Q 353 981 353 1791 
Q 353 2603 747 3093 
Q 1141 3584 1784 3584 
Q 2172 3584 2450 3431 
Q 2728 3278 2906 2969 
L 2906 3500 
L 3481 3500 
L 3481 434 
z
" transform="scale(0.015625)"/>
      <path id="DejaVuSans-65" d="M 3597 1894 
L 3597 1613 
L 953 1613 
Q 991 1019 1311 708 
Q 1631 397 2203 397 
Q 2534 397 2845 478 
Q 3156 559 3463 722 
L 3463 178 
Q 3153 47 2828 -22 
Q 2503 -91 2169 -91 
Q 1331 -91 842 396 
Q 353 884 353 1716 
Q 353 2575 817 3079 
Q 1281 3584 2069 3584 
Q 2775 3584 3186 3129 
Q 3597 2675 3597 1894 
z
M 3022 2063 
Q 3016 2534 2758 2815 
Q 2500 3097 2075 3097 
Q 1594 3097 1305 2825 
Q 1016 2553 972 2059 
L 3022 2063 
z
" transform="scale(0.015625)"/>
      <path id="DejaVuSans-78" d="M 3513 3500 
L 2247 1797 
L 3578 0 
L 2900 0 
L 1881 1375 
L 863 0 
L 184 0 
L 1544 1831 
L 300 3500 
L 978 3500 
L 1906 2253 
L 2834 3500 
L 3513 3500 
z
" transform="scale(0.015625)"/>
      <path id="DejaVuSans-74" d="M 1172 4494 
L 1172 3500 
L 2356 3500 
L 2356 3053 
L 1172 3053 
L 1172 1153 
Q 1172 725 1289 603 
Q 1406 481 1766 481 
L 2356 481 
L 2356 0 
L 1766 0 
Q 1100 0 847 248 
Q 594 497 594 1153 
L 594 3053 
L 172 3053 
L 172 3500 
L 594 3500 
L 594 4494 
L 1172 4494 
z
" transform="scale(0.015625)"/>
      <path id="DejaVuSans-63" d="M 3122 3366 
L 3122 2828 
Q 2878 2963 2633 3030 
Q 2388 3097 2138 3097 
Q 1578 3097 1268 2742 
Q 959 2388 959 1747 
Q 959 1106 1268 751 
Q 1578 397 2138 397 
Q 2388 397 2633 464 
Q 2878 531 3122 666 
L 3122 134 
Q 2881 22 2623 -34 
Q 2366 -91 2075 -91 
Q 1284 -91 818 406 
Q 353 903 353 1747 
Q 353 2603 823 3093 
Q 1294 3584 2113 3584 
Q 2378 3584 2631 3529 
Q 2884 3475 3122 3366 
z
" transform="scale(0.015625)"/>
     </defs>
     <use xlink:href="#DejaVuSans-31"/>
     <use xlink:href="#DejaVuSans-66" x="63.623047"/>
     <use xlink:href="#DejaVuSans-69" x="98.828125"/>
     <use xlink:href="#DejaVuSans-6e" x="126.611328"/>
     <use xlink:href="#DejaVuSans-61" x="189.990234"/>
     <use xlink:href="#DejaVuSans-6c" x="251.269531"/>
     <use xlink:href="#DejaVuSans-5f" x="279.052734"/>
     <use xlink:href="#DejaVuSans-7a" x="329.052734"/>
     <use xlink:href="#DejaVuSans-68" x="381.542969"/>
     <use xlink:href="#DejaVuSans-61" x="444.921875"/>
     <use xlink:href="#DejaVuSans-6e" x="506.201172"/>
     <use xlink:href="#DejaVuSans-67" x="569.580078"/>
     <use xlink:href="#DejaVuSans-65" x="633.056641"/>
     <use xlink:href="#DejaVuSans-78" x="692.830078"/>
     <use xlink:href="#DejaVuSans-74" x="752.009766"/>
     <use xlink:href="#DejaVuSans-5f" x="791.21875"/>
     <use xlink:href="#DejaVuSans-61" x="841.21875"/>
     <use xlink:href="#DejaVuSans-61" x="902.498047"/>
     <use xlink:href="#DejaVuSans-5f" x="963.777344"/>
     <use xlink:href="#DejaVuSans-63" x="1013.777344"/>
     <use xlink:href="#DejaVuSans-63" x="1068.757812"/>
     <use xlink:href="#DejaVuSans-69" x="1123.738281"/>
    </g>
   </g>
   <g id="legend_1">
    <g id="patch_7">
     <path d="M 64.6 108.1845 
L 200.035938 108.1845 
Q 202.035938 108.1845 202.035938 106.1845 
L 202.035938 48.472 
Q 202.035938 46.472 200.035938 46.472 
L 64.6 46.472 
Q 62.6 46.472 62.6 48.472 
L 62.6 106.1845 
Q 62.6 108.1845 64.6 108.1845 
z
" style="fill: #ffffff; opacity: 0.8; stroke: #cccccc; stroke-linejoin: miter"/>
    </g>
    <g id="line2d_18">
     <path d="M 66.6 54.570438 
L 76.6 54.570438 
L 86.6 54.570438 
" style="fill: none; stroke: #1f77b4; stroke-opacity: 0.7; stroke-width: 0.5; stroke-linecap: square"/>
    </g>
    <g id="text_15">
     <!-- Positive predictions -->
     <g transform="translate(94.6 58.070438) scale(0.1 -0.1)">
      <defs>
       <path id="DejaVuSans-50" d="M 1259 4147 
L 1259 2394 
L 2053 2394 
Q 2494 2394 2734 2622 
Q 2975 2850 2975 3272 
Q 2975 3691 2734 3919 
Q 2494 4147 2053 4147 
L 1259 4147 
z
M 628 4666 
L 2053 4666 
Q 2838 4666 3239 4311 
Q 3641 3956 3641 3272 
Q 3641 2581 3239 2228 
Q 2838 1875 2053 1875 
L 1259 1875 
L 1259 0 
L 628 0 
L 628 4666 
z
" transform="scale(0.015625)"/>
       <path id="DejaVuSans-6f" d="M 1959 3097 
Q 1497 3097 1228 2736 
Q 959 2375 959 1747 
Q 959 1119 1226 758 
Q 1494 397 1959 397 
Q 2419 397 2687 759 
Q 2956 1122 2956 1747 
Q 2956 2369 2687 2733 
Q 2419 3097 1959 3097 
z
M 1959 3584 
Q 2709 3584 3137 3096 
Q 3566 2609 3566 1747 
Q 3566 888 3137 398 
Q 2709 -91 1959 -91 
Q 1206 -91 779 398 
Q 353 888 353 1747 
Q 353 2609 779 3096 
Q 1206 3584 1959 3584 
z
" transform="scale(0.015625)"/>
       <path id="DejaVuSans-73" d="M 2834 3397 
L 2834 2853 
Q 2591 2978 2328 3040 
Q 2066 3103 1784 3103 
Q 1356 3103 1142 2972 
Q 928 2841 928 2578 
Q 928 2378 1081 2264 
Q 1234 2150 1697 2047 
L 1894 2003 
Q 2506 1872 2764 1633 
Q 3022 1394 3022 966 
Q 3022 478 2636 193 
Q 2250 -91 1575 -91 
Q 1294 -91 989 -36 
Q 684 19 347 128 
L 347 722 
Q 666 556 975 473 
Q 1284 391 1588 391 
Q 1994 391 2212 530 
Q 2431 669 2431 922 
Q 2431 1156 2273 1281 
Q 2116 1406 1581 1522 
L 1381 1569 
Q 847 1681 609 1914 
Q 372 2147 372 2553 
Q 372 3047 722 3315 
Q 1072 3584 1716 3584 
Q 2034 3584 2315 3537 
Q 2597 3491 2834 3397 
z
" transform="scale(0.015625)"/>
       <path id="DejaVuSans-76" d="M 191 3500 
L 800 3500 
L 1894 563 
L 2988 3500 
L 3597 3500 
L 2284 0 
L 1503 0 
L 191 3500 
z
" transform="scale(0.015625)"/>
       <path id="DejaVuSans-20" transform="scale(0.015625)"/>
       <path id="DejaVuSans-70" d="M 1159 525 
L 1159 -1331 
L 581 -1331 
L 581 3500 
L 1159 3500 
L 1159 2969 
Q 1341 3281 1617 3432 
Q 1894 3584 2278 3584 
Q 2916 3584 3314 3078 
Q 3713 2572 3713 1747 
Q 3713 922 3314 415 
Q 2916 -91 2278 -91 
Q 1894 -91 1617 61 
Q 1341 213 1159 525 
z
M 3116 1747 
Q 3116 2381 2855 2742 
Q 2594 3103 2138 3103 
Q 1681 3103 1420 2742 
Q 1159 2381 1159 1747 
Q 1159 1113 1420 752 
Q 1681 391 2138 391 
Q 2594 391 2855 752 
Q 3116 1113 3116 1747 
z
" transform="scale(0.015625)"/>
       <path id="DejaVuSans-72" d="M 2631 2963 
Q 2534 3019 2420 3045 
Q 2306 3072 2169 3072 
Q 1681 3072 1420 2755 
Q 1159 2438 1159 1844 
L 1159 0 
L 581 0 
L 581 3500 
L 1159 3500 
L 1159 2956 
Q 1341 3275 1631 3429 
Q 1922 3584 2338 3584 
Q 2397 3584 2469 3576 
Q 2541 3569 2628 3553 
L 2631 2963 
z
" transform="scale(0.015625)"/>
       <path id="DejaVuSans-64" d="M 2906 2969 
L 2906 4863 
L 3481 4863 
L 3481 0 
L 2906 0 
L 2906 525 
Q 2725 213 2448 61 
Q 2172 -91 1784 -91 
Q 1150 -91 751 415 
Q 353 922 353 1747 
Q 353 2572 751 3078 
Q 1150 3584 1784 3584 
Q 2172 3584 2448 3432 
Q 2725 3281 2906 2969 
z
M 947 1747 
Q 947 1113 1208 752 
Q 1469 391 1925 391 
Q 2381 391 2643 752 
Q 2906 1113 2906 1747 
Q 2906 2381 2643 2742 
Q 2381 3103 1925 3103 
Q 1469 3103 1208 2742 
Q 947 2381 947 1747 
z
" transform="scale(0.015625)"/>
      </defs>
      <use xlink:href="#DejaVuSans-50"/>
      <use xlink:href="#DejaVuSans-6f" x="56.677734"/>
      <use xlink:href="#DejaVuSans-73" x="117.859375"/>
      <use xlink:href="#DejaVuSans-69" x="169.958984"/>
      <use xlink:href="#DejaVuSans-74" x="197.742188"/>
      <use xlink:href="#DejaVuSans-69" x="236.951172"/>
      <use xlink:href="#DejaVuSans-76" x="264.734375"/>
      <use xlink:href="#DejaVuSans-65" x="323.914062"/>
      <use xlink:href="#DejaVuSans-20" x="385.4375"/>
      <use xlink:href="#DejaVuSans-70" x="417.224609"/>
      <use xlink:href="#DejaVuSans-72" x="480.701172"/>
      <use xlink:href="#DejaVuSans-65" x="519.564453"/>
      <use xlink:href="#DejaVuSans-64" x="581.087891"/>
      <use xlink:href="#DejaVuSans-69" x="644.564453"/>
      <use xlink:href="#DejaVuSans-63" x="672.347656"/>
      <use xlink:href="#DejaVuSans-74" x="727.328125"/>
      <use xlink:href="#DejaVuSans-69" x="766.537109"/>
      <use xlink:href="#DejaVuSans-6f" x="794.320312"/>
      <use xlink:href="#DejaVuSans-6e" x="855.501953"/>
      <use xlink:href="#DejaVuSans-73" x="918.880859"/>
     </g>
    </g>
    <g id="line2d_19">
     <path d="M 66.6 69.248563 
L 76.6 69.248563 
L 86.6 69.248563 
" style="fill: none; stroke: #ff7f0e; stroke-opacity: 0.7; stroke-width: 0.5; stroke-linecap: square"/>
    </g>
    <g id="text_16">
     <!-- Negative predictions -->
     <g transform="translate(94.6 72.748563) scale(0.1 -0.1)">
      <defs>
       <path id="DejaVuSans-4e" d="M 628 4666 
L 1478 4666 
L 3547 763 
L 3547 4666 
L 4159 4666 
L 4159 0 
L 3309 0 
L 1241 3903 
L 1241 0 
L 628 0 
L 628 4666 
z
" transform="scale(0.015625)"/>
      </defs>
      <use xlink:href="#DejaVuSans-4e"/>
      <use xlink:href="#DejaVuSans-65" x="74.804688"/>
      <use xlink:href="#DejaVuSans-67" x="136.328125"/>
      <use xlink:href="#DejaVuSans-61" x="199.804688"/>
      <use xlink:href="#DejaVuSans-74" x="261.083984"/>
      <use xlink:href="#DejaVuSans-69" x="300.292969"/>
      <use xlink:href="#DejaVuSans-76" x="328.076172"/>
      <use xlink:href="#DejaVuSans-65" x="387.255859"/>
      <use xlink:href="#DejaVuSans-20" x="448.779297"/>
      <use xlink:href="#DejaVuSans-70" x="480.566406"/>
      <use xlink:href="#DejaVuSans-72" x="544.042969"/>
      <use xlink:href="#DejaVuSans-65" x="582.90625"/>
      <use xlink:href="#DejaVuSans-64" x="644.429688"/>
      <use xlink:href="#DejaVuSans-69" x="707.90625"/>
      <use xlink:href="#DejaVuSans-63" x="735.689453"/>
      <use xlink:href="#DejaVuSans-74" x="790.669922"/>
      <use xlink:href="#DejaVuSans-69" x="829.878906"/>
      <use xlink:href="#DejaVuSans-6f" x="857.662109"/>
      <use xlink:href="#DejaVuSans-6e" x="918.84375"/>
      <use xlink:href="#DejaVuSans-73" x="982.222656"/>
     </g>
    </g>
    <g id="line2d_20">
     <path d="M 66.6 83.926688 
L 76.6 83.926688 
L 86.6 83.926688 
" style="fill: none; stroke: #2ca02c; stroke-opacity: 0.7; stroke-width: 0.5; stroke-linecap: square"/>
    </g>
    <g id="text_17">
     <!-- Average predictions -->
     <g transform="translate(94.6 87.426688) scale(0.1 -0.1)">
      <defs>
       <path id="DejaVuSans-41" d="M 2188 4044 
L 1331 1722 
L 3047 1722 
L 2188 4044 
z
M 1831 4666 
L 2547 4666 
L 4325 0 
L 3669 0 
L 3244 1197 
L 1141 1197 
L 716 0 
L 50 0 
L 1831 4666 
z
" transform="scale(0.015625)"/>
      </defs>
      <use xlink:href="#DejaVuSans-41"/>
      <use xlink:href="#DejaVuSans-76" x="62.533203"/>
      <use xlink:href="#DejaVuSans-65" x="121.712891"/>
      <use xlink:href="#DejaVuSans-72" x="183.236328"/>
      <use xlink:href="#DejaVuSans-61" x="224.349609"/>
      <use xlink:href="#DejaVuSans-67" x="285.628906"/>
      <use xlink:href="#DejaVuSans-65" x="349.105469"/>
      <use xlink:href="#DejaVuSans-20" x="410.628906"/>
      <use xlink:href="#DejaVuSans-70" x="442.416016"/>
      <use xlink:href="#DejaVuSans-72" x="505.892578"/>
      <use xlink:href="#DejaVuSans-65" x="544.755859"/>
      <use xlink:href="#DejaVuSans-64" x="606.279297"/>
      <use xlink:href="#DejaVuSans-69" x="669.755859"/>
      <use xlink:href="#DejaVuSans-63" x="697.539062"/>
      <use xlink:href="#DejaVuSans-74" x="752.519531"/>
      <use xlink:href="#DejaVuSans-69" x="791.728516"/>
      <use xlink:href="#DejaVuSans-6f" x="819.511719"/>
      <use xlink:href="#DejaVuSans-6e" x="880.693359"/>
      <use xlink:href="#DejaVuSans-73" x="944.072266"/>
     </g>
    </g>
    <g id="line2d_21">
     <path d="M 66.6 98.604813 
L 76.6 98.604813 
L 86.6 98.604813 
" style="fill: none; stroke: #d62728; stroke-opacity: 0.7; stroke-width: 0.5; stroke-linecap: square"/>
    </g>
    <g id="text_18">
     <!-- Actual values -->
     <g transform="translate(94.6 102.104813) scale(0.1 -0.1)">
      <defs>
       <path id="DejaVuSans-75" d="M 544 1381 
L 544 3500 
L 1119 3500 
L 1119 1403 
Q 1119 906 1312 657 
Q 1506 409 1894 409 
Q 2359 409 2629 706 
Q 2900 1003 2900 1516 
L 2900 3500 
L 3475 3500 
L 3475 0 
L 2900 0 
L 2900 538 
Q 2691 219 2414 64 
Q 2138 -91 1772 -91 
Q 1169 -91 856 284 
Q 544 659 544 1381 
z
M 1991 3584 
L 1991 3584 
z
" transform="scale(0.015625)"/>
      </defs>
      <use xlink:href="#DejaVuSans-41"/>
      <use xlink:href="#DejaVuSans-63" x="66.658203"/>
      <use xlink:href="#DejaVuSans-74" x="121.638672"/>
      <use xlink:href="#DejaVuSans-75" x="160.847656"/>
      <use xlink:href="#DejaVuSans-61" x="224.226562"/>
      <use xlink:href="#DejaVuSans-6c" x="285.505859"/>
      <use xlink:href="#DejaVuSans-20" x="313.289062"/>
      <use xlink:href="#DejaVuSans-76" x="345.076172"/>
      <use xlink:href="#DejaVuSans-61" x="404.255859"/>
      <use xlink:href="#DejaVuSans-6c" x="465.535156"/>
      <use xlink:href="#DejaVuSans-75" x="493.318359"/>
      <use xlink:href="#DejaVuSans-65" x="556.697266"/>
      <use xlink:href="#DejaVuSans-73" x="618.220703"/>
     </g>
    </g>
   </g>
  </g>
 </g>
 <defs>
  <clipPath id="p2df301939d">
   <rect x="57.6" y="41.472" width="357.12" height="266.112"/>
  </clipPath>
 </defs>
</svg>
