<?xml version="1.0" encoding="utf-8" standalone="no"?>
<!DOCTYPE svg PUBLIC "-//W3C//DTD SVG 1.1//EN"
  "http://www.w3.org/Graphics/SVG/1.1/DTD/svg11.dtd">
<svg xmlns:xlink="http://www.w3.org/1999/xlink" width="460.8pt" height="345.6pt" viewBox="0 0 460.8 345.6" xmlns="http://www.w3.org/2000/svg" version="1.1">
 <metadata>
  <rdf:RDF xmlns:dc="http://purl.org/dc/elements/1.1/" xmlns:cc="http://creativecommons.org/ns#" xmlns:rdf="http://www.w3.org/1999/02/22-rdf-syntax-ns#">
   <cc:Work>
    <dc:type rdf:resource="http://purl.org/dc/dcmitype/StillImage"/>
    <dc:date>2024-09-06T07:10:50.924734</dc:date>
    <dc:format>image/svg+xml</dc:format>
    <dc:creator>
     <cc:Agent>
      <dc:title>Matplotlib v3.9.0, https://matplotlib.org/</dc:title>
     </cc:Agent>
    </dc:creator>
   </cc:Work>
  </rdf:RDF>
 </metadata>
 <defs>
  <style type="text/css">*{stroke-linejoin: round; stroke-linecap: butt}</style>
 </defs>
 <g id="figure_1">
  <g id="patch_1">
   <path d="M 0 345.6 
L 460.8 345.6 
L 460.8 0 
L 0 0 
z
" style="fill: #ffffff"/>
  </g>
  <g id="axes_1">
   <g id="patch_2">
    <path d="M 57.6 307.584 
L 414.72 307.584 
L 414.72 41.472 
L 57.6 41.472 
z
" style="fill: #ffffff"/>
   </g>
   <g id="matplotlib.axis_1">
    <g id="xtick_1">
     <g id="line2d_1">
      <defs>
       <path id="md7cf4880c9" d="M 0 0 
L 0 3.5 
" style="stroke: #000000; stroke-width: 0.8"/>
      </defs>
      <g>
       <use xlink:href="#md7cf4880c9" x="73.832727" y="307.584" style="stroke: #000000; stroke-width: 0.8"/>
      </g>
     </g>
     <g id="text_1">
      <!-- 0 -->
      <g transform="translate(70.651477 322.182437) scale(0.1 -0.1)">
       <defs>
        <path id="DejaVuSans-30" d="M 2034 4250 
Q 1547 4250 1301 3770 
Q 1056 3291 1056 2328 
Q 1056 1369 1301 889 
Q 1547 409 2034 409 
Q 2525 409 2770 889 
Q 3016 1369 3016 2328 
Q 3016 3291 2770 3770 
Q 2525 4250 2034 4250 
z
M 2034 4750 
Q 2819 4750 3233 4129 
Q 3647 3509 3647 2328 
Q 3647 1150 3233 529 
Q 2819 -91 2034 -91 
Q 1250 -91 836 529 
Q 422 1150 422 2328 
Q 422 3509 836 4129 
Q 1250 4750 2034 4750 
z
" transform="scale(0.015625)"/>
       </defs>
       <use xlink:href="#DejaVuSans-30"/>
      </g>
     </g>
    </g>
    <g id="xtick_2">
     <g id="line2d_2">
      <g>
       <use xlink:href="#md7cf4880c9" x="149.333784" y="307.584" style="stroke: #000000; stroke-width: 0.8"/>
      </g>
     </g>
     <g id="text_2">
      <!-- 50 -->
      <g transform="translate(142.971284 322.182437) scale(0.1 -0.1)">
       <defs>
        <path id="DejaVuSans-35" d="M 691 4666 
L 3169 4666 
L 3169 4134 
L 1269 4134 
L 1269 2991 
Q 1406 3038 1543 3061 
Q 1681 3084 1819 3084 
Q 2600 3084 3056 2656 
Q 3513 2228 3513 1497 
Q 3513 744 3044 326 
Q 2575 -91 1722 -91 
Q 1428 -91 1123 -41 
Q 819 9 494 109 
L 494 744 
Q 775 591 1075 516 
Q 1375 441 1709 441 
Q 2250 441 2565 725 
Q 2881 1009 2881 1497 
Q 2881 1984 2565 2268 
Q 2250 2553 1709 2553 
Q 1456 2553 1204 2497 
Q 953 2441 691 2322 
L 691 4666 
z
" transform="scale(0.015625)"/>
       </defs>
       <use xlink:href="#DejaVuSans-35"/>
       <use xlink:href="#DejaVuSans-30" x="63.623047"/>
      </g>
     </g>
    </g>
    <g id="xtick_3">
     <g id="line2d_3">
      <g>
       <use xlink:href="#md7cf4880c9" x="224.834841" y="307.584" style="stroke: #000000; stroke-width: 0.8"/>
      </g>
     </g>
     <g id="text_3">
      <!-- 100 -->
      <g transform="translate(215.291091 322.182437) scale(0.1 -0.1)">
       <defs>
        <path id="DejaVuSans-31" d="M 794 531 
L 1825 531 
L 1825 4091 
L 703 3866 
L 703 4441 
L 1819 4666 
L 2450 4666 
L 2450 531 
L 3481 531 
L 3481 0 
L 794 0 
L 794 531 
z
" transform="scale(0.015625)"/>
       </defs>
       <use xlink:href="#DejaVuSans-31"/>
       <use xlink:href="#DejaVuSans-30" x="63.623047"/>
       <use xlink:href="#DejaVuSans-30" x="127.246094"/>
      </g>
     </g>
    </g>
    <g id="xtick_4">
     <g id="line2d_4">
      <g>
       <use xlink:href="#md7cf4880c9" x="300.335899" y="307.584" style="stroke: #000000; stroke-width: 0.8"/>
      </g>
     </g>
     <g id="text_4">
      <!-- 150 -->
      <g transform="translate(290.792149 322.182437) scale(0.1 -0.1)">
       <use xlink:href="#DejaVuSans-31"/>
       <use xlink:href="#DejaVuSans-35" x="63.623047"/>
       <use xlink:href="#DejaVuSans-30" x="127.246094"/>
      </g>
     </g>
    </g>
    <g id="xtick_5">
     <g id="line2d_5">
      <g>
       <use xlink:href="#md7cf4880c9" x="375.836956" y="307.584" style="stroke: #000000; stroke-width: 0.8"/>
      </g>
     </g>
     <g id="text_5">
      <!-- 200 -->
      <g transform="translate(366.293206 322.182437) scale(0.1 -0.1)">
       <defs>
        <path id="DejaVuSans-32" d="M 1228 531 
L 3431 531 
L 3431 0 
L 469 0 
L 469 531 
Q 828 903 1448 1529 
Q 2069 2156 2228 2338 
Q 2531 2678 2651 2914 
Q 2772 3150 2772 3378 
Q 2772 3750 2511 3984 
Q 2250 4219 1831 4219 
Q 1534 4219 1204 4116 
Q 875 4013 500 3803 
L 500 4441 
Q 881 4594 1212 4672 
Q 1544 4750 1819 4750 
Q 2544 4750 2975 4387 
Q 3406 4025 3406 3419 
Q 3406 3131 3298 2873 
Q 3191 2616 2906 2266 
Q 2828 2175 2409 1742 
Q 1991 1309 1228 531 
z
" transform="scale(0.015625)"/>
       </defs>
       <use xlink:href="#DejaVuSans-32"/>
       <use xlink:href="#DejaVuSans-30" x="63.623047"/>
       <use xlink:href="#DejaVuSans-30" x="127.246094"/>
      </g>
     </g>
    </g>
   </g>
   <g id="matplotlib.axis_2">
    <g id="ytick_1">
     <g id="line2d_6">
      <defs>
       <path id="m036b6d34a8" d="M 0 0 
L -3.5 0 
" style="stroke: #000000; stroke-width: 0.8"/>
      </defs>
      <g>
       <use xlink:href="#m036b6d34a8" x="57.6" y="294.54453" style="stroke: #000000; stroke-width: 0.8"/>
      </g>
     </g>
     <g id="text_6">
      <!-- 5000 -->
      <g transform="translate(25.15 298.343749) scale(0.1 -0.1)">
       <use xlink:href="#DejaVuSans-35"/>
       <use xlink:href="#DejaVuSans-30" x="63.623047"/>
       <use xlink:href="#DejaVuSans-30" x="127.246094"/>
       <use xlink:href="#DejaVuSans-30" x="190.869141"/>
      </g>
     </g>
    </g>
    <g id="ytick_2">
     <g id="line2d_7">
      <g>
       <use xlink:href="#m036b6d34a8" x="57.6" y="262.878757" style="stroke: #000000; stroke-width: 0.8"/>
      </g>
     </g>
     <g id="text_7">
      <!-- 5500 -->
      <g transform="translate(25.15 266.677976) scale(0.1 -0.1)">
       <use xlink:href="#DejaVuSans-35"/>
       <use xlink:href="#DejaVuSans-35" x="63.623047"/>
       <use xlink:href="#DejaVuSans-30" x="127.246094"/>
       <use xlink:href="#DejaVuSans-30" x="190.869141"/>
      </g>
     </g>
    </g>
    <g id="ytick_3">
     <g id="line2d_8">
      <g>
       <use xlink:href="#m036b6d34a8" x="57.6" y="231.212985" style="stroke: #000000; stroke-width: 0.8"/>
      </g>
     </g>
     <g id="text_8">
      <!-- 6000 -->
      <g transform="translate(25.15 235.012203) scale(0.1 -0.1)">
       <defs>
        <path id="DejaVuSans-36" d="M 2113 2584 
Q 1688 2584 1439 2293 
Q 1191 2003 1191 1497 
Q 1191 994 1439 701 
Q 1688 409 2113 409 
Q 2538 409 2786 701 
Q 3034 994 3034 1497 
Q 3034 2003 2786 2293 
Q 2538 2584 2113 2584 
z
M 3366 4563 
L 3366 3988 
Q 3128 4100 2886 4159 
Q 2644 4219 2406 4219 
Q 1781 4219 1451 3797 
Q 1122 3375 1075 2522 
Q 1259 2794 1537 2939 
Q 1816 3084 2150 3084 
Q 2853 3084 3261 2657 
Q 3669 2231 3669 1497 
Q 3669 778 3244 343 
Q 2819 -91 2113 -91 
Q 1303 -91 875 529 
Q 447 1150 447 2328 
Q 447 3434 972 4092 
Q 1497 4750 2381 4750 
Q 2619 4750 2861 4703 
Q 3103 4656 3366 4563 
z
" transform="scale(0.015625)"/>
       </defs>
       <use xlink:href="#DejaVuSans-36"/>
       <use xlink:href="#DejaVuSans-30" x="63.623047"/>
       <use xlink:href="#DejaVuSans-30" x="127.246094"/>
       <use xlink:href="#DejaVuSans-30" x="190.869141"/>
      </g>
     </g>
    </g>
    <g id="ytick_4">
     <g id="line2d_9">
      <g>
       <use xlink:href="#m036b6d34a8" x="57.6" y="199.547212" style="stroke: #000000; stroke-width: 0.8"/>
      </g>
     </g>
     <g id="text_9">
      <!-- 6500 -->
      <g transform="translate(25.15 203.346431) scale(0.1 -0.1)">
       <use xlink:href="#DejaVuSans-36"/>
       <use xlink:href="#DejaVuSans-35" x="63.623047"/>
       <use xlink:href="#DejaVuSans-30" x="127.246094"/>
       <use xlink:href="#DejaVuSans-30" x="190.869141"/>
      </g>
     </g>
    </g>
    <g id="ytick_5">
     <g id="line2d_10">
      <g>
       <use xlink:href="#m036b6d34a8" x="57.6" y="167.881439" style="stroke: #000000; stroke-width: 0.8"/>
      </g>
     </g>
     <g id="text_10">
      <!-- 7000 -->
      <g transform="translate(25.15 171.680658) scale(0.1 -0.1)">
       <defs>
        <path id="DejaVuSans-37" d="M 525 4666 
L 3525 4666 
L 3525 4397 
L 1831 0 
L 1172 0 
L 2766 4134 
L 525 4134 
L 525 4666 
z
" transform="scale(0.015625)"/>
       </defs>
       <use xlink:href="#DejaVuSans-37"/>
       <use xlink:href="#DejaVuSans-30" x="63.623047"/>
       <use xlink:href="#DejaVuSans-30" x="127.246094"/>
       <use xlink:href="#DejaVuSans-30" x="190.869141"/>
      </g>
     </g>
    </g>
    <g id="ytick_6">
     <g id="line2d_11">
      <g>
       <use xlink:href="#m036b6d34a8" x="57.6" y="136.215667" style="stroke: #000000; stroke-width: 0.8"/>
      </g>
     </g>
     <g id="text_11">
      <!-- 7500 -->
      <g transform="translate(25.15 140.014885) scale(0.1 -0.1)">
       <use xlink:href="#DejaVuSans-37"/>
       <use xlink:href="#DejaVuSans-35" x="63.623047"/>
       <use xlink:href="#DejaVuSans-30" x="127.246094"/>
       <use xlink:href="#DejaVuSans-30" x="190.869141"/>
      </g>
     </g>
    </g>
    <g id="ytick_7">
     <g id="line2d_12">
      <g>
       <use xlink:href="#m036b6d34a8" x="57.6" y="104.549894" style="stroke: #000000; stroke-width: 0.8"/>
      </g>
     </g>
     <g id="text_12">
      <!-- 8000 -->
      <g transform="translate(25.15 108.349113) scale(0.1 -0.1)">
       <defs>
        <path id="DejaVuSans-38" d="M 2034 2216 
Q 1584 2216 1326 1975 
Q 1069 1734 1069 1313 
Q 1069 891 1326 650 
Q 1584 409 2034 409 
Q 2484 409 2743 651 
Q 3003 894 3003 1313 
Q 3003 1734 2745 1975 
Q 2488 2216 2034 2216 
z
M 1403 2484 
Q 997 2584 770 2862 
Q 544 3141 544 3541 
Q 544 4100 942 4425 
Q 1341 4750 2034 4750 
Q 2731 4750 3128 4425 
Q 3525 4100 3525 3541 
Q 3525 3141 3298 2862 
Q 3072 2584 2669 2484 
Q 3125 2378 3379 2068 
Q 3634 1759 3634 1313 
Q 3634 634 3220 271 
Q 2806 -91 2034 -91 
Q 1263 -91 848 271 
Q 434 634 434 1313 
Q 434 1759 690 2068 
Q 947 2378 1403 2484 
z
M 1172 3481 
Q 1172 3119 1398 2916 
Q 1625 2713 2034 2713 
Q 2441 2713 2670 2916 
Q 2900 3119 2900 3481 
Q 2900 3844 2670 4047 
Q 2441 4250 2034 4250 
Q 1625 4250 1398 4047 
Q 1172 3844 1172 3481 
z
" transform="scale(0.015625)"/>
       </defs>
       <use xlink:href="#DejaVuSans-38"/>
       <use xlink:href="#DejaVuSans-30" x="63.623047"/>
       <use xlink:href="#DejaVuSans-30" x="127.246094"/>
       <use xlink:href="#DejaVuSans-30" x="190.869141"/>
      </g>
     </g>
    </g>
    <g id="ytick_8">
     <g id="line2d_13">
      <g>
       <use xlink:href="#m036b6d34a8" x="57.6" y="72.884121" style="stroke: #000000; stroke-width: 0.8"/>
      </g>
     </g>
     <g id="text_13">
      <!-- 8500 -->
      <g transform="translate(25.15 76.68334) scale(0.1 -0.1)">
       <use xlink:href="#DejaVuSans-38"/>
       <use xlink:href="#DejaVuSans-35" x="63.623047"/>
       <use xlink:href="#DejaVuSans-30" x="127.246094"/>
       <use xlink:href="#DejaVuSans-30" x="190.869141"/>
      </g>
     </g>
    </g>
   </g>
   <g id="line2d_14">
    <path d="M 73.832727 295.488 
L 75.342748 294.252176 
L 76.85277 291.587013 
L 79.872812 290.327125 
L 81.382833 290.013137 
L 82.892854 290.01855 
L 84.402875 289.324387 
L 85.912896 289.433382 
L 87.422918 287.008835 
L 88.932939 282.725735 
L 90.44296 275.897302 
L 93.463002 277.332979 
L 94.973023 279.093084 
L 96.483044 277.361646 
L 97.993066 276.900137 
L 99.503087 276.021227 
L 101.013108 273.799223 
L 102.523129 272.112041 
L 104.03315 269.821525 
L 105.543171 269.231554 
L 107.053192 267.750567 
L 111.583256 267.741617 
L 113.093277 266.757847 
L 114.603298 265.92924 
L 119.133362 265.991689 
L 120.643383 265.626598 
L 122.153404 265.717426 
L 123.663425 266.433102 
L 128.193488 266.642558 
L 129.70351 263.250314 
L 131.213531 261.836785 
L 132.723552 262.679886 
L 134.233573 261.423636 
L 135.743594 260.942381 
L 137.253615 260.659858 
L 138.763636 260.734808 
L 140.273658 260.164143 
L 141.783679 259.947142 
L 143.2937 259.066401 
L 144.803721 257.669828 
L 146.313742 255.953213 
L 147.823763 254.619898 
L 149.333784 252.246081 
L 150.843805 250.267968 
L 152.353827 247.794338 
L 153.863848 246.708529 
L 155.373869 246.533596 
L 156.88389 245.195413 
L 158.393911 244.985243 
L 159.903932 245.574014 
L 162.923975 240.586801 
L 164.433996 239.075391 
L 165.944017 238.972607 
L 167.454038 239.542019 
L 168.964059 239.915286 
L 170.47408 240.074676 
L 171.984101 240.67396 
L 173.494123 239.576516 
L 175.004144 239.828857 
L 176.514165 238.55771 
L 178.024186 238.381767 
L 179.534207 237.881691 
L 181.044228 238.049145 
L 182.554249 237.219794 
L 184.064271 235.537595 
L 185.574292 234.884038 
L 187.084313 232.754155 
L 188.594334 231.354462 
L 190.104355 230.73308 
L 191.614376 231.001128 
L 193.124397 230.431571 
L 196.14444 231.47689 
L 197.654461 230.064832 
L 199.164482 230.14276 
L 200.674503 228.020066 
L 202.184524 225.674568 
L 203.694545 224.680106 
L 205.204567 222.29475 
L 206.714588 221.931918 
L 208.224609 222.327613 
L 209.73463 222.49142 
L 211.244651 222.355756 
L 212.754672 220.360542 
L 214.264693 217.647754 
L 215.774715 217.698696 
L 217.284736 215.618695 
L 218.794757 215.2986 
L 220.304778 216.144042 
L 221.814799 215.712811 
L 223.32482 216.248091 
L 224.834841 214.056553 
L 226.344863 213.52746 
L 227.854884 212.497713 
L 229.364905 212.676909 
L 230.874926 213.279278 
L 232.384947 212.919249 
L 233.894968 212.381327 
L 235.404989 212.274228 
L 236.915011 210.385658 
L 238.425032 204.846932 
L 239.935053 205.799408 
L 242.955095 205.379112 
L 244.465116 204.48116 
L 245.975137 205.78602 
L 247.485159 201.099817 
L 248.99518 201.175936 
L 250.505201 198.559139 
L 252.015222 200.067866 
L 253.525243 197.812874 
L 255.035264 196.608864 
L 256.545285 191.971108 
L 258.055307 192.841031 
L 259.565328 193.148805 
L 261.075349 193.836114 
L 262.58537 193.804933 
L 264.095391 194.906419 
L 265.605412 193.665371 
L 267.115433 189.603893 
L 268.625455 190.723592 
L 271.645497 189.810981 
L 273.155518 186.460879 
L 274.665539 186.333063 
L 276.17556 183.969343 
L 277.685581 183.463913 
L 279.195603 181.527035 
L 280.705624 180.063211 
L 282.215645 180.834351 
L 283.725666 178.07795 
L 285.235687 175.806472 
L 286.745708 169.597272 
L 288.255729 165.442587 
L 291.275772 159.357615 
L 292.785793 158.922602 
L 294.295814 154.238696 
L 295.805835 146.213296 
L 297.315856 146.827847 
L 298.825877 146.825292 
L 300.335899 147.226939 
L 301.84592 147.948208 
L 303.355941 147.954323 
L 304.865962 147.211427 
L 306.375983 144.105378 
L 307.886004 141.254172 
L 309.396025 140.32393 
L 310.906047 139.720687 
L 312.416068 136.152465 
L 313.926089 131.829582 
L 315.43611 130.668282 
L 316.946131 126.138431 
L 318.456152 125.561267 
L 319.966173 124.780938 
L 321.476195 122.888515 
L 322.986216 122.862117 
L 324.496237 122.672535 
L 326.006258 123.042712 
L 327.516279 122.362985 
L 329.0263 121.040638 
L 330.536321 120.713038 
L 332.046342 118.439418 
L 333.556364 110.377628 
L 335.066385 108.510885 
L 336.576406 110.411242 
L 338.086427 111.045017 
L 339.596448 111.153588 
L 341.106469 112.304735 
L 342.61649 111.943246 
L 344.126512 106.97982 
L 345.636533 107.155581 
L 347.146554 105.707338 
L 350.166596 100.14186 
L 351.676617 100.454633 
L 353.186638 97.361278 
L 356.206681 97.647377 
L 357.716702 97.514045 
L 359.226723 96.631435 
L 360.736744 96.126356 
L 362.246765 94.522572 
L 363.756786 91.44536 
L 365.266808 84.520721 
L 366.776829 79.907363 
L 368.28685 66.51252 
L 369.796871 62.455142 
L 371.306892 64.87512 
L 372.816913 68.15601 
L 374.326934 68.503536 
L 375.836956 69.581606 
L 377.346977 69.216348 
L 378.856998 69.89357 
L 380.367019 67.053139 
L 381.87704 66.541329 
L 383.387061 67.282218 
L 384.897082 67.67436 
L 386.407104 66.112159 
L 387.917125 65.61052 
L 389.427146 65.675704 
L 390.937167 62.79146 
L 392.447188 61.526678 
L 393.957209 60.680396 
L 395.46723 60.759614 
L 396.977252 60.468035 
L 398.487273 55.104339 
L 398.487273 55.104339 
" clip-path="url(#pcd551ef544)" style="fill: none; stroke: #1f77b4; stroke-opacity: 0.7; stroke-width: 0.5; stroke-linecap: square"/>
   </g>
   <g id="line2d_15">
    <path d="M 73.832727 295.483184 
L 75.342748 294.304513 
L 76.85277 291.611046 
L 79.872812 290.333832 
L 81.382833 290.021272 
L 82.892854 290.088318 
L 84.402875 289.278932 
L 85.912896 289.419559 
L 87.422918 287.066674 
L 88.932939 282.871512 
L 90.44296 276.106661 
L 93.463002 277.5335 
L 94.973023 279.433462 
L 96.483044 277.392819 
L 97.993066 276.854503 
L 99.503087 275.931524 
L 101.013108 273.923758 
L 102.523129 272.136943 
L 104.03315 269.898697 
L 105.543171 269.270062 
L 107.053192 267.841634 
L 110.073235 267.773368 
L 111.583256 267.891991 
L 114.603298 265.887568 
L 116.113319 266.037926 
L 117.62334 265.902158 
L 119.133362 265.977803 
L 120.643383 265.795494 
L 122.153404 265.764981 
L 123.663425 266.316728 
L 125.173446 266.59315 
L 128.193488 266.637548 
L 129.70351 263.182392 
L 131.213531 261.749501 
L 132.723552 262.905242 
L 134.233573 261.477735 
L 135.743594 260.970267 
L 137.253615 260.769912 
L 138.763636 261.002006 
L 140.273658 260.249663 
L 141.783679 259.932859 
L 143.2937 259.033731 
L 147.823763 254.773241 
L 150.843805 250.296131 
L 152.353827 248.129825 
L 153.863848 246.716376 
L 155.373869 246.550211 
L 156.88389 245.110036 
L 158.393911 245.01435 
L 159.903932 245.615391 
L 162.923975 240.439849 
L 164.433996 238.957638 
L 165.944017 239.003265 
L 167.454038 239.850196 
L 168.964059 239.810951 
L 170.47408 240.12055 
L 171.984101 240.683325 
L 173.494123 239.411306 
L 175.004144 239.817411 
L 176.514165 238.44758 
L 178.024186 238.388095 
L 179.534207 237.889339 
L 181.044228 238.176258 
L 182.554249 237.192856 
L 184.064271 235.477456 
L 185.574292 235.062033 
L 187.084313 232.786834 
L 188.594334 231.194025 
L 190.104355 230.778332 
L 191.614376 230.967838 
L 193.124397 230.459123 
L 196.14444 231.472262 
L 197.654461 230.005226 
L 199.164482 230.146178 
L 200.674503 228.004029 
L 202.184524 225.662118 
L 203.694545 224.641397 
L 205.204567 222.296017 
L 206.714588 221.859392 
L 208.224609 222.384403 
L 209.73463 222.411203 
L 211.244651 222.239854 
L 212.754672 220.299526 
L 214.264693 217.631463 
L 215.774715 217.633494 
L 217.284736 215.647158 
L 218.794757 215.285001 
L 220.304778 216.331326 
L 221.814799 215.792885 
L 223.32482 216.433639 
L 224.834841 214.034724 
L 226.344863 213.651981 
L 227.854884 212.565935 
L 229.364905 212.760566 
L 230.874926 213.295164 
L 233.894968 212.455077 
L 235.404989 212.292126 
L 236.915011 210.369698 
L 238.425032 204.840915 
L 239.935053 205.92629 
L 242.955095 205.436956 
L 244.465116 204.571692 
L 245.975137 205.779944 
L 247.485159 201.167945 
L 248.99518 201.220575 
L 250.505201 198.614951 
L 252.015222 200.062696 
L 253.525243 198.004512 
L 255.035264 196.683293 
L 256.545285 191.946131 
L 258.055307 192.985651 
L 259.565328 193.074927 
L 261.075349 193.885901 
L 262.58537 193.817842 
L 264.095391 194.911736 
L 265.605412 193.659152 
L 267.115433 189.878551 
L 268.625455 190.950786 
L 270.135476 190.305838 
L 271.645497 189.793601 
L 273.155518 186.465076 
L 274.665539 186.393334 
L 276.17556 183.97148 
L 277.685581 183.484233 
L 279.195603 181.569014 
L 280.705624 179.976279 
L 282.215645 180.819507 
L 285.235687 175.575501 
L 286.745708 169.379102 
L 288.255729 165.549117 
L 291.275772 159.375593 
L 292.785793 158.483441 
L 294.295814 154.958912 
L 295.805835 147.866319 
L 297.315856 146.792225 
L 298.825877 146.874287 
L 303.355941 148.046864 
L 304.865962 147.229898 
L 306.375983 144.361649 
L 307.886004 141.147396 
L 310.906047 139.828052 
L 312.416068 136.475319 
L 313.926089 132.452647 
L 315.43611 130.812339 
L 316.946131 126.898388 
L 318.456152 125.460797 
L 319.966173 124.908794 
L 321.476195 122.712328 
L 322.986216 122.858622 
L 324.496237 122.519826 
L 326.006258 122.773215 
L 327.516279 122.415166 
L 329.0263 121.07011 
L 330.536321 120.854687 
L 332.046342 118.459476 
L 333.556364 110.665399 
L 335.066385 108.858539 
L 336.576406 110.814181 
L 338.086427 110.91817 
L 339.596448 110.894161 
L 341.106469 112.399718 
L 342.61649 112.003204 
L 344.126512 107.105694 
L 345.636533 107.294865 
L 347.146554 105.961022 
L 348.656575 102.727655 
L 350.166596 100.08121 
L 351.676617 100.524374 
L 353.186638 97.611132 
L 354.69666 97.736912 
L 356.206681 97.736655 
L 357.716702 97.357324 
L 359.226723 96.58954 
L 360.736744 96.243894 
L 362.246765 94.509656 
L 363.756786 91.643254 
L 365.266808 84.696511 
L 366.776829 79.878436 
L 368.28685 67.52737 
L 369.796871 63.402742 
L 371.306892 64.797558 
L 372.816913 67.695051 
L 374.326934 68.254569 
L 375.836956 69.141843 
L 377.346977 69.31782 
L 378.856998 69.92426 
L 380.367019 66.944938 
L 381.87704 66.612462 
L 383.387061 67.493995 
L 384.897082 67.557017 
L 386.407104 66.1205 
L 387.917125 65.642195 
L 389.427146 65.885535 
L 390.937167 62.750318 
L 392.447188 61.522192 
L 393.957209 60.918991 
L 395.46723 60.839805 
L 396.977252 60.46942 
L 398.487273 55.140706 
L 398.487273 55.140706 
" clip-path="url(#pcd551ef544)" style="fill: none; stroke: #ff7f0e; stroke-opacity: 0.7; stroke-width: 0.5; stroke-linecap: square"/>
   </g>
   <g id="line2d_16">
    <path d="M 73.832727 295.485592 
L 75.342748 294.278345 
L 76.85277 291.599029 
L 79.872812 290.330479 
L 81.382833 290.017205 
L 82.892854 290.053434 
L 84.402875 289.30166 
L 85.912896 289.42647 
L 87.422918 287.037755 
L 88.932939 282.798624 
L 90.44296 276.001981 
L 93.463002 277.43324 
L 94.973023 279.263273 
L 96.483044 277.377233 
L 97.993066 276.87732 
L 99.503087 275.976376 
L 101.013108 273.86149 
L 102.523129 272.124492 
L 104.03315 269.860111 
L 105.543171 269.250808 
L 107.053192 267.796101 
L 111.583256 267.816804 
L 114.603298 265.908404 
L 116.113319 265.998087 
L 119.133362 265.984746 
L 120.643383 265.711046 
L 122.153404 265.741204 
L 123.663425 266.374915 
L 125.173446 266.540518 
L 128.193488 266.640053 
L 129.70351 263.216353 
L 131.213531 261.793143 
L 132.723552 262.792564 
L 134.233573 261.450685 
L 135.743594 260.956324 
L 137.253615 260.714885 
L 138.763636 260.868407 
L 140.273658 260.206903 
L 141.783679 259.940001 
L 143.2937 259.050066 
L 144.803721 257.63464 
L 146.313742 255.997419 
L 147.823763 254.696569 
L 149.333784 252.342571 
L 150.843805 250.282049 
L 152.353827 247.962082 
L 153.863848 246.712452 
L 155.373869 246.541903 
L 156.88389 245.152724 
L 158.393911 244.999796 
L 159.903932 245.594702 
L 162.923975 240.513325 
L 164.433996 239.016514 
L 165.944017 238.987936 
L 167.454038 239.696108 
L 170.47408 240.097613 
L 171.984101 240.678643 
L 173.494123 239.493911 
L 175.004144 239.823134 
L 176.514165 238.502645 
L 178.024186 238.384931 
L 179.534207 237.885515 
L 181.044228 238.112701 
L 182.554249 237.206325 
L 184.064271 235.507526 
L 185.574292 234.973036 
L 187.084313 232.770495 
L 188.594334 231.274244 
L 190.104355 230.755706 
L 191.614376 230.984483 
L 193.124397 230.445347 
L 196.14444 231.474576 
L 197.654461 230.035029 
L 199.164482 230.144469 
L 200.674503 228.012048 
L 202.184524 225.668343 
L 203.694545 224.660752 
L 205.204567 222.295384 
L 206.714588 221.895655 
L 208.224609 222.356008 
L 209.73463 222.451311 
L 211.244651 222.297805 
L 212.754672 220.330034 
L 214.264693 217.639608 
L 215.774715 217.666095 
L 217.284736 215.632926 
L 218.794757 215.2918 
L 220.304778 216.237684 
L 221.814799 215.752848 
L 223.32482 216.340865 
L 224.834841 214.045638 
L 226.344863 213.589721 
L 227.854884 212.531824 
L 229.364905 212.718737 
L 230.874926 213.287221 
L 233.894968 212.418202 
L 235.404989 212.283177 
L 236.915011 210.377678 
L 238.425032 204.843923 
L 239.935053 205.862849 
L 242.955095 205.408034 
L 244.465116 204.526426 
L 245.975137 205.782982 
L 247.485159 201.133881 
L 248.99518 201.198256 
L 250.505201 198.587045 
L 252.015222 200.065281 
L 253.525243 197.908693 
L 255.035264 196.646078 
L 256.545285 191.95862 
L 258.055307 192.913341 
L 259.565328 193.111866 
L 261.075349 193.861008 
L 262.58537 193.811387 
L 264.095391 194.909078 
L 265.605412 193.662261 
L 267.115433 189.741222 
L 268.625455 190.837189 
L 271.645497 189.802291 
L 273.155518 186.462977 
L 274.665539 186.363199 
L 276.17556 183.970411 
L 277.685581 183.474073 
L 279.195603 181.548024 
L 280.705624 180.019745 
L 282.215645 180.826929 
L 283.725666 178.104576 
L 285.235687 175.690987 
L 286.745708 169.488187 
L 288.255729 165.495852 
L 291.275772 159.366604 
L 292.785793 158.703021 
L 294.295814 154.598804 
L 295.805835 147.039807 
L 297.315856 146.810036 
L 298.825877 146.849789 
L 300.335899 147.231466 
L 301.84592 147.803848 
L 303.355941 148.000594 
L 304.865962 147.220663 
L 307.886004 141.200784 
L 309.396025 140.397315 
L 310.906047 139.77437 
L 312.416068 136.313892 
L 313.926089 132.141115 
L 315.43611 130.74031 
L 316.946131 126.518409 
L 318.456152 125.511032 
L 319.966173 124.844866 
L 321.476195 122.800421 
L 322.986216 122.86037 
L 324.496237 122.596181 
L 326.006258 122.907963 
L 327.516279 122.389075 
L 329.0263 121.055374 
L 330.536321 120.783863 
L 332.046342 118.449447 
L 333.556364 110.521514 
L 335.066385 108.684712 
L 336.576406 110.612711 
L 338.086427 110.981593 
L 339.596448 111.023874 
L 341.106469 112.352227 
L 342.61649 111.973225 
L 344.126512 107.042757 
L 345.636533 107.225223 
L 347.146554 105.83418 
L 348.656575 102.811086 
L 350.166596 100.111535 
L 351.676617 100.489504 
L 353.186638 97.486205 
L 356.206681 97.692016 
L 357.716702 97.435684 
L 359.226723 96.610487 
L 360.736744 96.185125 
L 362.246765 94.516114 
L 363.756786 91.544307 
L 365.266808 84.608616 
L 366.776829 79.8929 
L 368.28685 67.019945 
L 369.796871 62.928942 
L 371.306892 64.836339 
L 372.816913 67.925531 
L 374.326934 68.379053 
L 375.836956 69.361725 
L 377.346977 69.267084 
L 378.856998 69.908915 
L 380.367019 66.999039 
L 381.87704 66.576895 
L 383.387061 67.388106 
L 384.897082 67.615689 
L 386.407104 66.11633 
L 387.917125 65.626358 
L 389.427146 65.780619 
L 390.937167 62.770889 
L 392.447188 61.524435 
L 393.957209 60.799694 
L 395.46723 60.79971 
L 396.977252 60.468727 
L 398.487273 55.122523 
L 398.487273 55.122523 
" clip-path="url(#pcd551ef544)" style="fill: none; stroke: #2ca02c; stroke-opacity: 0.7; stroke-width: 0.5; stroke-linecap: square"/>
   </g>
   <g id="line2d_17">
    <path d="M 73.832727 295.051182 
L 75.342748 292.51792 
L 78.362791 291.25129 
L 79.872812 290.8713 
L 81.382833 290.807969 
L 82.892854 290.04799 
L 84.402875 290.111322 
L 85.912896 287.831386 
L 87.422918 283.968162 
L 88.932939 277.951665 
L 90.44296 278.078328 
L 91.952981 278.584981 
L 93.463002 279.978274 
L 94.973023 278.394986 
L 96.483044 277.825002 
L 97.993066 276.93836 
L 99.503087 274.911751 
L 101.013108 273.265131 
L 102.523129 271.048527 
L 104.03315 270.415211 
L 105.543171 268.895254 
L 107.053192 268.895254 
L 108.563214 268.705259 
L 110.073235 268.641928 
L 113.093277 266.868645 
L 114.603298 266.868645 
L 116.113319 266.741982 
L 117.62334 266.741982 
L 119.133362 266.488655 
L 120.643383 266.425324 
L 122.153404 266.995308 
L 123.663425 267.185302 
L 125.173446 267.121971 
L 126.683467 267.185302 
L 128.193488 263.892062 
L 129.70351 262.498768 
L 131.213531 263.448741 
L 132.723552 262.18211 
L 134.233573 261.675458 
L 135.743594 261.3588 
L 137.253615 261.422132 
L 138.763636 260.852148 
L 140.273658 260.53549 
L 141.783679 259.71218 
L 143.2937 258.318886 
L 144.803721 256.735597 
L 146.313742 255.468966 
L 147.823763 253.252362 
L 149.333784 251.289084 
L 150.843805 249.009149 
L 152.353827 247.679186 
L 153.863848 247.42586 
L 155.373869 246.095898 
L 156.88389 245.842572 
L 158.393911 246.475887 
L 161.413953 241.536026 
L 162.923975 240.079401 
L 164.433996 239.889406 
L 165.944017 240.45939 
L 168.964059 240.839379 
L 170.47408 241.472695 
L 171.984101 240.206064 
L 173.494123 240.586053 
L 175.004144 239.192759 
L 176.514165 239.129428 
L 178.024186 238.622775 
L 179.534207 238.749439 
L 181.044228 237.862797 
L 182.554249 236.216177 
L 184.064271 235.709524 
L 185.574292 233.556252 
L 187.084313 232.099626 
L 188.594334 231.529642 
L 190.104355 231.782969 
L 191.614376 231.212985 
L 193.124397 231.719637 
L 194.634419 232.099626 
L 196.14444 230.706332 
L 197.654461 230.832995 
L 199.164482 228.743054 
L 200.674503 226.399787 
L 202.184524 225.449814 
L 203.694545 223.106547 
L 205.204567 222.726558 
L 206.714588 223.169878 
L 208.224609 223.169878 
L 209.73463 222.979884 
L 211.244651 221.079937 
L 212.754672 218.420012 
L 214.264693 218.483344 
L 215.774715 216.456735 
L 217.284736 216.140077 
L 218.794757 216.963387 
L 220.304778 216.456735 
L 221.814799 217.026718 
L 223.32482 214.810114 
L 224.834841 214.366794 
L 226.344863 213.290157 
L 227.854884 213.41682 
L 229.364905 213.986804 
L 232.384947 213.100163 
L 233.894968 212.9735 
L 235.404989 211.073553 
L 236.915011 205.62704 
L 238.425032 206.577013 
L 239.935053 206.45035 
L 241.445074 206.070361 
L 242.955095 205.247051 
L 244.465116 206.513682 
L 245.975137 201.953811 
L 247.485159 201.953811 
L 248.99518 199.420549 
L 250.505201 200.813843 
L 252.015222 198.787233 
L 253.525243 197.520603 
L 255.035264 192.8974 
L 256.545285 193.72071 
L 258.055307 193.910704 
L 259.565328 194.54402 
L 261.075349 194.607351 
L 262.58537 195.557325 
L 264.095391 194.417357 
L 265.605412 190.680796 
L 267.115433 191.504106 
L 270.135476 190.554133 
L 271.645497 187.260892 
L 273.155518 187.134229 
L 274.665539 184.790962 
L 276.17556 184.28431 
L 277.685581 182.384363 
L 279.195603 180.927738 
L 280.705624 181.687716 
L 282.215645 178.96446 
L 283.725666 176.684524 
L 285.235687 170.604696 
L 286.745708 166.804803 
L 289.765751 160.978301 
L 291.275772 159.901665 
L 292.785793 155.975109 
L 294.295814 149.008639 
L 295.805835 147.995334 
L 297.315856 148.121997 
L 298.825877 148.375323 
L 300.335899 149.07197 
L 301.84592 149.008639 
L 303.355941 148.311992 
L 306.375983 142.675484 
L 307.886004 141.598848 
L 309.396025 141.155527 
L 312.416068 133.682405 
L 313.926089 132.225779 
L 315.43611 127.982566 
L 316.946131 126.905929 
L 318.456152 126.082619 
L 319.966173 124.246005 
L 322.986216 123.866015 
L 324.496237 124.119341 
L 326.006258 123.549358 
L 327.516279 122.219395 
L 329.0263 122.092732 
L 330.536321 119.55947 
L 332.046342 111.959685 
L 333.556364 110.186402 
L 335.066385 111.643027 
L 336.576406 112.149679 
L 338.086427 112.149679 
L 339.596448 113.669637 
L 341.106469 113.099653 
L 342.61649 108.223124 
L 344.126512 108.413118 
L 345.636533 107.146487 
L 347.146554 104.106573 
L 348.656575 101.383317 
L 350.166596 101.699974 
L 351.676617 98.723392 
L 353.186638 98.913386 
L 354.69666 98.850055 
L 356.206681 98.596729 
L 357.716702 97.646756 
L 359.226723 97.456761 
L 360.736744 95.620146 
L 362.246765 92.833558 
L 363.756786 85.993751 
L 365.266808 81.623875 
L 366.776829 69.274223 
L 368.28685 65.094341 
L 369.796871 66.424304 
L 371.306892 69.654213 
L 372.816913 69.780876 
L 374.326934 70.79418 
L 375.836956 70.730849 
L 377.346977 71.110838 
L 378.856998 68.197587 
L 380.367019 67.944261 
L 381.87704 68.704239 
L 383.387061 68.830902 
L 384.897082 67.437608 
L 386.407104 66.804293 
L 387.917125 67.057619 
L 389.427146 63.954373 
L 390.937167 62.751074 
L 392.447188 61.991096 
L 393.957209 62.054427 
L 395.46723 61.674438 
L 396.977252 56.354588 
L 398.487273 53.568 
L 398.487273 53.568 
" clip-path="url(#pcd551ef544)" style="fill: none; stroke: #d62728; stroke-opacity: 0.7; stroke-width: 0.5; stroke-linecap: square"/>
   </g>
   <g id="patch_3">
    <path d="M 57.6 307.584 
L 57.6 41.472 
" style="fill: none; stroke: #000000; stroke-width: 0.8; stroke-linejoin: miter; stroke-linecap: square"/>
   </g>
   <g id="patch_4">
    <path d="M 414.72 307.584 
L 414.72 41.472 
" style="fill: none; stroke: #000000; stroke-width: 0.8; stroke-linejoin: miter; stroke-linecap: square"/>
   </g>
   <g id="patch_5">
    <path d="M 57.6 307.584 
L 414.72 307.584 
" style="fill: none; stroke: #000000; stroke-width: 0.8; stroke-linejoin: miter; stroke-linecap: square"/>
   </g>
   <g id="patch_6">
    <path d="M 57.6 41.472 
L 414.72 41.472 
" style="fill: none; stroke: #000000; stroke-width: 0.8; stroke-linejoin: miter; stroke-linecap: square"/>
   </g>
   <g id="text_14">
    <!-- 1final_zhangext_pr_cci -->
    <g transform="translate(168.14625 35.472) scale(0.12 -0.12)">
     <defs>
      <path id="DejaVuSans-66" d="M 2375 4863 
L 2375 4384 
L 1825 4384 
Q 1516 4384 1395 4259 
Q 1275 4134 1275 3809 
L 1275 3500 
L 2222 3500 
L 2222 3053 
L 1275 3053 
L 1275 0 
L 697 0 
L 697 3053 
L 147 3053 
L 147 3500 
L 697 3500 
L 697 3744 
Q 697 4328 969 4595 
Q 1241 4863 1831 4863 
L 2375 4863 
z
" transform="scale(0.015625)"/>
      <path id="DejaVuSans-69" d="M 603 3500 
L 1178 3500 
L 1178 0 
L 603 0 
L 603 3500 
z
M 603 4863 
L 1178 4863 
L 1178 4134 
L 603 4134 
L 603 4863 
z
" transform="scale(0.015625)"/>
      <path id="DejaVuSans-6e" d="M 3513 2113 
L 3513 0 
L 2938 0 
L 2938 2094 
Q 2938 2591 2744 2837 
Q 2550 3084 2163 3084 
Q 1697 3084 1428 2787 
Q 1159 2491 1159 1978 
L 1159 0 
L 581 0 
L 581 3500 
L 1159 3500 
L 1159 2956 
Q 1366 3272 1645 3428 
Q 1925 3584 2291 3584 
Q 2894 3584 3203 3211 
Q 3513 2838 3513 2113 
z
" transform="scale(0.015625)"/>
      <path id="DejaVuSans-61" d="M 2194 1759 
Q 1497 1759 1228 1600 
Q 959 1441 959 1056 
Q 959 750 1161 570 
Q 1363 391 1709 391 
Q 2188 391 2477 730 
Q 2766 1069 2766 1631 
L 2766 1759 
L 2194 1759 
z
M 3341 1997 
L 3341 0 
L 2766 0 
L 2766 531 
Q 2569 213 2275 61 
Q 1981 -91 1556 -91 
Q 1019 -91 701 211 
Q 384 513 384 1019 
Q 384 1609 779 1909 
Q 1175 2209 1959 2209 
L 2766 2209 
L 2766 2266 
Q 2766 2663 2505 2880 
Q 2244 3097 1772 3097 
Q 1472 3097 1187 3025 
Q 903 2953 641 2809 
L 641 3341 
Q 956 3463 1253 3523 
Q 1550 3584 1831 3584 
Q 2591 3584 2966 3190 
Q 3341 2797 3341 1997 
z
" transform="scale(0.015625)"/>
      <path id="DejaVuSans-6c" d="M 603 4863 
L 1178 4863 
L 1178 0 
L 603 0 
L 603 4863 
z
" transform="scale(0.015625)"/>
      <path id="DejaVuSans-5f" d="M 3263 -1063 
L 3263 -1509 
L -63 -1509 
L -63 -1063 
L 3263 -1063 
z
" transform="scale(0.015625)"/>
      <path id="DejaVuSans-7a" d="M 353 3500 
L 3084 3500 
L 3084 2975 
L 922 459 
L 3084 459 
L 3084 0 
L 275 0 
L 275 525 
L 2438 3041 
L 353 3041 
L 353 3500 
z
" transform="scale(0.015625)"/>
      <path id="DejaVuSans-68" d="M 3513 2113 
L 3513 0 
L 2938 0 
L 2938 2094 
Q 2938 2591 2744 2837 
Q 2550 3084 2163 3084 
Q 1697 3084 1428 2787 
Q 1159 2491 1159 1978 
L 1159 0 
L 581 0 
L 581 4863 
L 1159 4863 
L 1159 2956 
Q 1366 3272 1645 3428 
Q 1925 3584 2291 3584 
Q 2894 3584 3203 3211 
Q 3513 2838 3513 2113 
z
" transform="scale(0.015625)"/>
      <path id="DejaVuSans-67" d="M 2906 1791 
Q 2906 2416 2648 2759 
Q 2391 3103 1925 3103 
Q 1463 3103 1205 2759 
Q 947 2416 947 1791 
Q 947 1169 1205 825 
Q 1463 481 1925 481 
Q 2391 481 2648 825 
Q 2906 1169 2906 1791 
z
M 3481 434 
Q 3481 -459 3084 -895 
Q 2688 -1331 1869 -1331 
Q 1566 -1331 1297 -1286 
Q 1028 -1241 775 -1147 
L 775 -588 
Q 1028 -725 1275 -790 
Q 1522 -856 1778 -856 
Q 2344 -856 2625 -561 
Q 2906 -266 2906 331 
L 2906 616 
Q 2728 306 2450 153 
Q 2172 0 1784 0 
Q 1141 0 747 490 
Q 353 981 353 1791 
Q 353 2603 747 3093 
Q 1141 3584 1784 3584 
Q 2172 3584 2450 3431 
Q 2728 3278 2906 2969 
L 2906 3500 
L 3481 3500 
L 3481 434 
z
" transform="scale(0.015625)"/>
      <path id="DejaVuSans-65" d="M 3597 1894 
L 3597 1613 
L 953 1613 
Q 991 1019 1311 708 
Q 1631 397 2203 397 
Q 2534 397 2845 478 
Q 3156 559 3463 722 
L 3463 178 
Q 3153 47 2828 -22 
Q 2503 -91 2169 -91 
Q 1331 -91 842 396 
Q 353 884 353 1716 
Q 353 2575 817 3079 
Q 1281 3584 2069 3584 
Q 2775 3584 3186 3129 
Q 3597 2675 3597 1894 
z
M 3022 2063 
Q 3016 2534 2758 2815 
Q 2500 3097 2075 3097 
Q 1594 3097 1305 2825 
Q 1016 2553 972 2059 
L 3022 2063 
z
" transform="scale(0.015625)"/>
      <path id="DejaVuSans-78" d="M 3513 3500 
L 2247 1797 
L 3578 0 
L 2900 0 
L 1881 1375 
L 863 0 
L 184 0 
L 1544 1831 
L 300 3500 
L 978 3500 
L 1906 2253 
L 2834 3500 
L 3513 3500 
z
" transform="scale(0.015625)"/>
      <path id="DejaVuSans-74" d="M 1172 4494 
L 1172 3500 
L 2356 3500 
L 2356 3053 
L 1172 3053 
L 1172 1153 
Q 1172 725 1289 603 
Q 1406 481 1766 481 
L 2356 481 
L 2356 0 
L 1766 0 
Q 1100 0 847 248 
Q 594 497 594 1153 
L 594 3053 
L 172 3053 
L 172 3500 
L 594 3500 
L 594 4494 
L 1172 4494 
z
" transform="scale(0.015625)"/>
      <path id="DejaVuSans-70" d="M 1159 525 
L 1159 -1331 
L 581 -1331 
L 581 3500 
L 1159 3500 
L 1159 2969 
Q 1341 3281 1617 3432 
Q 1894 3584 2278 3584 
Q 2916 3584 3314 3078 
Q 3713 2572 3713 1747 
Q 3713 922 3314 415 
Q 2916 -91 2278 -91 
Q 1894 -91 1617 61 
Q 1341 213 1159 525 
z
M 3116 1747 
Q 3116 2381 2855 2742 
Q 2594 3103 2138 3103 
Q 1681 3103 1420 2742 
Q 1159 2381 1159 1747 
Q 1159 1113 1420 752 
Q 1681 391 2138 391 
Q 2594 391 2855 752 
Q 3116 1113 3116 1747 
z
" transform="scale(0.015625)"/>
      <path id="DejaVuSans-72" d="M 2631 2963 
Q 2534 3019 2420 3045 
Q 2306 3072 2169 3072 
Q 1681 3072 1420 2755 
Q 1159 2438 1159 1844 
L 1159 0 
L 581 0 
L 581 3500 
L 1159 3500 
L 1159 2956 
Q 1341 3275 1631 3429 
Q 1922 3584 2338 3584 
Q 2397 3584 2469 3576 
Q 2541 3569 2628 3553 
L 2631 2963 
z
" transform="scale(0.015625)"/>
      <path id="DejaVuSans-63" d="M 3122 3366 
L 3122 2828 
Q 2878 2963 2633 3030 
Q 2388 3097 2138 3097 
Q 1578 3097 1268 2742 
Q 959 2388 959 1747 
Q 959 1106 1268 751 
Q 1578 397 2138 397 
Q 2388 397 2633 464 
Q 2878 531 3122 666 
L 3122 134 
Q 2881 22 2623 -34 
Q 2366 -91 2075 -91 
Q 1284 -91 818 406 
Q 353 903 353 1747 
Q 353 2603 823 3093 
Q 1294 3584 2113 3584 
Q 2378 3584 2631 3529 
Q 2884 3475 3122 3366 
z
" transform="scale(0.015625)"/>
     </defs>
     <use xlink:href="#DejaVuSans-31"/>
     <use xlink:href="#DejaVuSans-66" x="63.623047"/>
     <use xlink:href="#DejaVuSans-69" x="98.828125"/>
     <use xlink:href="#DejaVuSans-6e" x="126.611328"/>
     <use xlink:href="#DejaVuSans-61" x="189.990234"/>
     <use xlink:href="#DejaVuSans-6c" x="251.269531"/>
     <use xlink:href="#DejaVuSans-5f" x="279.052734"/>
     <use xlink:href="#DejaVuSans-7a" x="329.052734"/>
     <use xlink:href="#DejaVuSans-68" x="381.542969"/>
     <use xlink:href="#DejaVuSans-61" x="444.921875"/>
     <use xlink:href="#DejaVuSans-6e" x="506.201172"/>
     <use xlink:href="#DejaVuSans-67" x="569.580078"/>
     <use xlink:href="#DejaVuSans-65" x="633.056641"/>
     <use xlink:href="#DejaVuSans-78" x="692.830078"/>
     <use xlink:href="#DejaVuSans-74" x="752.009766"/>
     <use xlink:href="#DejaVuSans-5f" x="791.21875"/>
     <use xlink:href="#DejaVuSans-70" x="841.21875"/>
     <use xlink:href="#DejaVuSans-72" x="904.695312"/>
     <use xlink:href="#DejaVuSans-5f" x="945.808594"/>
     <use xlink:href="#DejaVuSans-63" x="995.808594"/>
     <use xlink:href="#DejaVuSans-63" x="1050.789062"/>
     <use xlink:href="#DejaVuSans-69" x="1105.769531"/>
    </g>
   </g>
   <g id="legend_1">
    <g id="patch_7">
     <path d="M 64.6 108.1845 
L 200.035938 108.1845 
Q 202.035938 108.1845 202.035938 106.1845 
L 202.035938 48.472 
Q 202.035938 46.472 200.035938 46.472 
L 64.6 46.472 
Q 62.6 46.472 62.6 48.472 
L 62.6 106.1845 
Q 62.6 108.1845 64.6 108.1845 
z
" style="fill: #ffffff; opacity: 0.8; stroke: #cccccc; stroke-linejoin: miter"/>
    </g>
    <g id="line2d_18">
     <path d="M 66.6 54.570438 
L 76.6 54.570438 
L 86.6 54.570438 
" style="fill: none; stroke: #1f77b4; stroke-opacity: 0.7; stroke-width: 0.5; stroke-linecap: square"/>
    </g>
    <g id="text_15">
     <!-- Positive predictions -->
     <g transform="translate(94.6 58.070438) scale(0.1 -0.1)">
      <defs>
       <path id="DejaVuSans-50" d="M 1259 4147 
L 1259 2394 
L 2053 2394 
Q 2494 2394 2734 2622 
Q 2975 2850 2975 3272 
Q 2975 3691 2734 3919 
Q 2494 4147 2053 4147 
L 1259 4147 
z
M 628 4666 
L 2053 4666 
Q 2838 4666 3239 4311 
Q 3641 3956 3641 3272 
Q 3641 2581 3239 2228 
Q 2838 1875 2053 1875 
L 1259 1875 
L 1259 0 
L 628 0 
L 628 4666 
z
" transform="scale(0.015625)"/>
       <path id="DejaVuSans-6f" d="M 1959 3097 
Q 1497 3097 1228 2736 
Q 959 2375 959 1747 
Q 959 1119 1226 758 
Q 1494 397 1959 397 
Q 2419 397 2687 759 
Q 2956 1122 2956 1747 
Q 2956 2369 2687 2733 
Q 2419 3097 1959 3097 
z
M 1959 3584 
Q 2709 3584 3137 3096 
Q 3566 2609 3566 1747 
Q 3566 888 3137 398 
Q 2709 -91 1959 -91 
Q 1206 -91 779 398 
Q 353 888 353 1747 
Q 353 2609 779 3096 
Q 1206 3584 1959 3584 
z
" transform="scale(0.015625)"/>
       <path id="DejaVuSans-73" d="M 2834 3397 
L 2834 2853 
Q 2591 2978 2328 3040 
Q 2066 3103 1784 3103 
Q 1356 3103 1142 2972 
Q 928 2841 928 2578 
Q 928 2378 1081 2264 
Q 1234 2150 1697 2047 
L 1894 2003 
Q 2506 1872 2764 1633 
Q 3022 1394 3022 966 
Q 3022 478 2636 193 
Q 2250 -91 1575 -91 
Q 1294 -91 989 -36 
Q 684 19 347 128 
L 347 722 
Q 666 556 975 473 
Q 1284 391 1588 391 
Q 1994 391 2212 530 
Q 2431 669 2431 922 
Q 2431 1156 2273 1281 
Q 2116 1406 1581 1522 
L 1381 1569 
Q 847 1681 609 1914 
Q 372 2147 372 2553 
Q 372 3047 722 3315 
Q 1072 3584 1716 3584 
Q 2034 3584 2315 3537 
Q 2597 3491 2834 3397 
z
" transform="scale(0.015625)"/>
       <path id="DejaVuSans-76" d="M 191 3500 
L 800 3500 
L 1894 563 
L 2988 3500 
L 3597 3500 
L 2284 0 
L 1503 0 
L 191 3500 
z
" transform="scale(0.015625)"/>
       <path id="DejaVuSans-20" transform="scale(0.015625)"/>
       <path id="DejaVuSans-64" d="M 2906 2969 
L 2906 4863 
L 3481 4863 
L 3481 0 
L 2906 0 
L 2906 525 
Q 2725 213 2448 61 
Q 2172 -91 1784 -91 
Q 1150 -91 751 415 
Q 353 922 353 1747 
Q 353 2572 751 3078 
Q 1150 3584 1784 3584 
Q 2172 3584 2448 3432 
Q 2725 3281 2906 2969 
z
M 947 1747 
Q 947 1113 1208 752 
Q 1469 391 1925 391 
Q 2381 391 2643 752 
Q 2906 1113 2906 1747 
Q 2906 2381 2643 2742 
Q 2381 3103 1925 3103 
Q 1469 3103 1208 2742 
Q 947 2381 947 1747 
z
" transform="scale(0.015625)"/>
      </defs>
      <use xlink:href="#DejaVuSans-50"/>
      <use xlink:href="#DejaVuSans-6f" x="56.677734"/>
      <use xlink:href="#DejaVuSans-73" x="117.859375"/>
      <use xlink:href="#DejaVuSans-69" x="169.958984"/>
      <use xlink:href="#DejaVuSans-74" x="197.742188"/>
      <use xlink:href="#DejaVuSans-69" x="236.951172"/>
      <use xlink:href="#DejaVuSans-76" x="264.734375"/>
      <use xlink:href="#DejaVuSans-65" x="323.914062"/>
      <use xlink:href="#DejaVuSans-20" x="385.4375"/>
      <use xlink:href="#DejaVuSans-70" x="417.224609"/>
      <use xlink:href="#DejaVuSans-72" x="480.701172"/>
      <use xlink:href="#DejaVuSans-65" x="519.564453"/>
      <use xlink:href="#DejaVuSans-64" x="581.087891"/>
      <use xlink:href="#DejaVuSans-69" x="644.564453"/>
      <use xlink:href="#DejaVuSans-63" x="672.347656"/>
      <use xlink:href="#DejaVuSans-74" x="727.328125"/>
      <use xlink:href="#DejaVuSans-69" x="766.537109"/>
      <use xlink:href="#DejaVuSans-6f" x="794.320312"/>
      <use xlink:href="#DejaVuSans-6e" x="855.501953"/>
      <use xlink:href="#DejaVuSans-73" x="918.880859"/>
     </g>
    </g>
    <g id="line2d_19">
     <path d="M 66.6 69.248563 
L 76.6 69.248563 
L 86.6 69.248563 
" style="fill: none; stroke: #ff7f0e; stroke-opacity: 0.7; stroke-width: 0.5; stroke-linecap: square"/>
    </g>
    <g id="text_16">
     <!-- Negative predictions -->
     <g transform="translate(94.6 72.748563) scale(0.1 -0.1)">
      <defs>
       <path id="DejaVuSans-4e" d="M 628 4666 
L 1478 4666 
L 3547 763 
L 3547 4666 
L 4159 4666 
L 4159 0 
L 3309 0 
L 1241 3903 
L 1241 0 
L 628 0 
L 628 4666 
z
" transform="scale(0.015625)"/>
      </defs>
      <use xlink:href="#DejaVuSans-4e"/>
      <use xlink:href="#DejaVuSans-65" x="74.804688"/>
      <use xlink:href="#DejaVuSans-67" x="136.328125"/>
      <use xlink:href="#DejaVuSans-61" x="199.804688"/>
      <use xlink:href="#DejaVuSans-74" x="261.083984"/>
      <use xlink:href="#DejaVuSans-69" x="300.292969"/>
      <use xlink:href="#DejaVuSans-76" x="328.076172"/>
      <use xlink:href="#DejaVuSans-65" x="387.255859"/>
      <use xlink:href="#DejaVuSans-20" x="448.779297"/>
      <use xlink:href="#DejaVuSans-70" x="480.566406"/>
      <use xlink:href="#DejaVuSans-72" x="544.042969"/>
      <use xlink:href="#DejaVuSans-65" x="582.90625"/>
      <use xlink:href="#DejaVuSans-64" x="644.429688"/>
      <use xlink:href="#DejaVuSans-69" x="707.90625"/>
      <use xlink:href="#DejaVuSans-63" x="735.689453"/>
      <use xlink:href="#DejaVuSans-74" x="790.669922"/>
      <use xlink:href="#DejaVuSans-69" x="829.878906"/>
      <use xlink:href="#DejaVuSans-6f" x="857.662109"/>
      <use xlink:href="#DejaVuSans-6e" x="918.84375"/>
      <use xlink:href="#DejaVuSans-73" x="982.222656"/>
     </g>
    </g>
    <g id="line2d_20">
     <path d="M 66.6 83.926688 
L 76.6 83.926688 
L 86.6 83.926688 
" style="fill: none; stroke: #2ca02c; stroke-opacity: 0.7; stroke-width: 0.5; stroke-linecap: square"/>
    </g>
    <g id="text_17">
     <!-- Average predictions -->
     <g transform="translate(94.6 87.426688) scale(0.1 -0.1)">
      <defs>
       <path id="DejaVuSans-41" d="M 2188 4044 
L 1331 1722 
L 3047 1722 
L 2188 4044 
z
M 1831 4666 
L 2547 4666 
L 4325 0 
L 3669 0 
L 3244 1197 
L 1141 1197 
L 716 0 
L 50 0 
L 1831 4666 
z
" transform="scale(0.015625)"/>
      </defs>
      <use xlink:href="#DejaVuSans-41"/>
      <use xlink:href="#DejaVuSans-76" x="62.533203"/>
      <use xlink:href="#DejaVuSans-65" x="121.712891"/>
      <use xlink:href="#DejaVuSans-72" x="183.236328"/>
      <use xlink:href="#DejaVuSans-61" x="224.349609"/>
      <use xlink:href="#DejaVuSans-67" x="285.628906"/>
      <use xlink:href="#DejaVuSans-65" x="349.105469"/>
      <use xlink:href="#DejaVuSans-20" x="410.628906"/>
      <use xlink:href="#DejaVuSans-70" x="442.416016"/>
      <use xlink:href="#DejaVuSans-72" x="505.892578"/>
      <use xlink:href="#DejaVuSans-65" x="544.755859"/>
      <use xlink:href="#DejaVuSans-64" x="606.279297"/>
      <use xlink:href="#DejaVuSans-69" x="669.755859"/>
      <use xlink:href="#DejaVuSans-63" x="697.539062"/>
      <use xlink:href="#DejaVuSans-74" x="752.519531"/>
      <use xlink:href="#DejaVuSans-69" x="791.728516"/>
      <use xlink:href="#DejaVuSans-6f" x="819.511719"/>
      <use xlink:href="#DejaVuSans-6e" x="880.693359"/>
      <use xlink:href="#DejaVuSans-73" x="944.072266"/>
     </g>
    </g>
    <g id="line2d_21">
     <path d="M 66.6 98.604813 
L 76.6 98.604813 
L 86.6 98.604813 
" style="fill: none; stroke: #d62728; stroke-opacity: 0.7; stroke-width: 0.5; stroke-linecap: square"/>
    </g>
    <g id="text_18">
     <!-- Actual values -->
     <g transform="translate(94.6 102.104813) scale(0.1 -0.1)">
      <defs>
       <path id="DejaVuSans-75" d="M 544 1381 
L 544 3500 
L 1119 3500 
L 1119 1403 
Q 1119 906 1312 657 
Q 1506 409 1894 409 
Q 2359 409 2629 706 
Q 2900 1003 2900 1516 
L 2900 3500 
L 3475 3500 
L 3475 0 
L 2900 0 
L 2900 538 
Q 2691 219 2414 64 
Q 2138 -91 1772 -91 
Q 1169 -91 856 284 
Q 544 659 544 1381 
z
M 1991 3584 
L 1991 3584 
z
" transform="scale(0.015625)"/>
      </defs>
      <use xlink:href="#DejaVuSans-41"/>
      <use xlink:href="#DejaVuSans-63" x="66.658203"/>
      <use xlink:href="#DejaVuSans-74" x="121.638672"/>
      <use xlink:href="#DejaVuSans-75" x="160.847656"/>
      <use xlink:href="#DejaVuSans-61" x="224.226562"/>
      <use xlink:href="#DejaVuSans-6c" x="285.505859"/>
      <use xlink:href="#DejaVuSans-20" x="313.289062"/>
      <use xlink:href="#DejaVuSans-76" x="345.076172"/>
      <use xlink:href="#DejaVuSans-61" x="404.255859"/>
      <use xlink:href="#DejaVuSans-6c" x="465.535156"/>
      <use xlink:href="#DejaVuSans-75" x="493.318359"/>
      <use xlink:href="#DejaVuSans-65" x="556.697266"/>
      <use xlink:href="#DejaVuSans-73" x="618.220703"/>
     </g>
    </g>
   </g>
  </g>
 </g>
 <defs>
  <clipPath id="pcd551ef544">
   <rect x="57.6" y="41.472" width="357.12" height="266.112"/>
  </clipPath>
 </defs>
</svg>
