<?xml version="1.0" encoding="utf-8" standalone="no"?>
<!DOCTYPE svg PUBLIC "-//W3C//DTD SVG 1.1//EN"
  "http://www.w3.org/Graphics/SVG/1.1/DTD/svg11.dtd">
<svg xmlns:xlink="http://www.w3.org/1999/xlink" width="460.8pt" height="345.6pt" viewBox="0 0 460.8 345.6" xmlns="http://www.w3.org/2000/svg" version="1.1">
 <metadata>
  <rdf:RDF xmlns:dc="http://purl.org/dc/elements/1.1/" xmlns:cc="http://creativecommons.org/ns#" xmlns:rdf="http://www.w3.org/1999/02/22-rdf-syntax-ns#">
   <cc:Work>
    <dc:type rdf:resource="http://purl.org/dc/dcmitype/StillImage"/>
    <dc:date>2024-09-06T11:36:39.331537</dc:date>
    <dc:format>image/svg+xml</dc:format>
    <dc:creator>
     <cc:Agent>
      <dc:title>Matplotlib v3.9.0, https://matplotlib.org/</dc:title>
     </cc:Agent>
    </dc:creator>
   </cc:Work>
  </rdf:RDF>
 </metadata>
 <defs>
  <style type="text/css">*{stroke-linejoin: round; stroke-linecap: butt}</style>
 </defs>
 <g id="figure_1">
  <g id="patch_1">
   <path d="M 0 345.6 
L 460.8 345.6 
L 460.8 0 
L 0 0 
z
" style="fill: #ffffff"/>
  </g>
  <g id="axes_1">
   <g id="patch_2">
    <path d="M 57.6 307.584 
L 414.72 307.584 
L 414.72 41.472 
L 57.6 41.472 
z
" style="fill: #ffffff"/>
   </g>
   <g id="matplotlib.axis_1">
    <g id="xtick_1">
     <g id="line2d_1">
      <defs>
       <path id="m033e97a8b9" d="M 0 0 
L 0 3.5 
" style="stroke: #000000; stroke-width: 0.8"/>
      </defs>
      <g>
       <use xlink:href="#m033e97a8b9" x="73.832727" y="307.584" style="stroke: #000000; stroke-width: 0.8"/>
      </g>
     </g>
     <g id="text_1">
      <!-- 0 -->
      <g transform="translate(70.651477 322.182437) scale(0.1 -0.1)">
       <defs>
        <path id="DejaVuSans-30" d="M 2034 4250 
Q 1547 4250 1301 3770 
Q 1056 3291 1056 2328 
Q 1056 1369 1301 889 
Q 1547 409 2034 409 
Q 2525 409 2770 889 
Q 3016 1369 3016 2328 
Q 3016 3291 2770 3770 
Q 2525 4250 2034 4250 
z
M 2034 4750 
Q 2819 4750 3233 4129 
Q 3647 3509 3647 2328 
Q 3647 1150 3233 529 
Q 2819 -91 2034 -91 
Q 1250 -91 836 529 
Q 422 1150 422 2328 
Q 422 3509 836 4129 
Q 1250 4750 2034 4750 
z
" transform="scale(0.015625)"/>
       </defs>
       <use xlink:href="#DejaVuSans-30"/>
      </g>
     </g>
    </g>
    <g id="xtick_2">
     <g id="line2d_2">
      <g>
       <use xlink:href="#m033e97a8b9" x="149.333784" y="307.584" style="stroke: #000000; stroke-width: 0.8"/>
      </g>
     </g>
     <g id="text_2">
      <!-- 50 -->
      <g transform="translate(142.971284 322.182437) scale(0.1 -0.1)">
       <defs>
        <path id="DejaVuSans-35" d="M 691 4666 
L 3169 4666 
L 3169 4134 
L 1269 4134 
L 1269 2991 
Q 1406 3038 1543 3061 
Q 1681 3084 1819 3084 
Q 2600 3084 3056 2656 
Q 3513 2228 3513 1497 
Q 3513 744 3044 326 
Q 2575 -91 1722 -91 
Q 1428 -91 1123 -41 
Q 819 9 494 109 
L 494 744 
Q 775 591 1075 516 
Q 1375 441 1709 441 
Q 2250 441 2565 725 
Q 2881 1009 2881 1497 
Q 2881 1984 2565 2268 
Q 2250 2553 1709 2553 
Q 1456 2553 1204 2497 
Q 953 2441 691 2322 
L 691 4666 
z
" transform="scale(0.015625)"/>
       </defs>
       <use xlink:href="#DejaVuSans-35"/>
       <use xlink:href="#DejaVuSans-30" x="63.623047"/>
      </g>
     </g>
    </g>
    <g id="xtick_3">
     <g id="line2d_3">
      <g>
       <use xlink:href="#m033e97a8b9" x="224.834841" y="307.584" style="stroke: #000000; stroke-width: 0.8"/>
      </g>
     </g>
     <g id="text_3">
      <!-- 100 -->
      <g transform="translate(215.291091 322.182437) scale(0.1 -0.1)">
       <defs>
        <path id="DejaVuSans-31" d="M 794 531 
L 1825 531 
L 1825 4091 
L 703 3866 
L 703 4441 
L 1819 4666 
L 2450 4666 
L 2450 531 
L 3481 531 
L 3481 0 
L 794 0 
L 794 531 
z
" transform="scale(0.015625)"/>
       </defs>
       <use xlink:href="#DejaVuSans-31"/>
       <use xlink:href="#DejaVuSans-30" x="63.623047"/>
       <use xlink:href="#DejaVuSans-30" x="127.246094"/>
      </g>
     </g>
    </g>
    <g id="xtick_4">
     <g id="line2d_4">
      <g>
       <use xlink:href="#m033e97a8b9" x="300.335899" y="307.584" style="stroke: #000000; stroke-width: 0.8"/>
      </g>
     </g>
     <g id="text_4">
      <!-- 150 -->
      <g transform="translate(290.792149 322.182437) scale(0.1 -0.1)">
       <use xlink:href="#DejaVuSans-31"/>
       <use xlink:href="#DejaVuSans-35" x="63.623047"/>
       <use xlink:href="#DejaVuSans-30" x="127.246094"/>
      </g>
     </g>
    </g>
    <g id="xtick_5">
     <g id="line2d_5">
      <g>
       <use xlink:href="#m033e97a8b9" x="375.836956" y="307.584" style="stroke: #000000; stroke-width: 0.8"/>
      </g>
     </g>
     <g id="text_5">
      <!-- 200 -->
      <g transform="translate(366.293206 322.182437) scale(0.1 -0.1)">
       <defs>
        <path id="DejaVuSans-32" d="M 1228 531 
L 3431 531 
L 3431 0 
L 469 0 
L 469 531 
Q 828 903 1448 1529 
Q 2069 2156 2228 2338 
Q 2531 2678 2651 2914 
Q 2772 3150 2772 3378 
Q 2772 3750 2511 3984 
Q 2250 4219 1831 4219 
Q 1534 4219 1204 4116 
Q 875 4013 500 3803 
L 500 4441 
Q 881 4594 1212 4672 
Q 1544 4750 1819 4750 
Q 2544 4750 2975 4387 
Q 3406 4025 3406 3419 
Q 3406 3131 3298 2873 
Q 3191 2616 2906 2266 
Q 2828 2175 2409 1742 
Q 1991 1309 1228 531 
z
" transform="scale(0.015625)"/>
       </defs>
       <use xlink:href="#DejaVuSans-32"/>
       <use xlink:href="#DejaVuSans-30" x="63.623047"/>
       <use xlink:href="#DejaVuSans-30" x="127.246094"/>
      </g>
     </g>
    </g>
   </g>
   <g id="matplotlib.axis_2">
    <g id="ytick_1">
     <g id="line2d_6">
      <defs>
       <path id="m3e1873bf86" d="M 0 0 
L -3.5 0 
" style="stroke: #000000; stroke-width: 0.8"/>
      </defs>
      <g>
       <use xlink:href="#m3e1873bf86" x="57.6" y="292.967621" style="stroke: #000000; stroke-width: 0.8"/>
      </g>
     </g>
     <g id="text_6">
      <!-- −7500 -->
      <g transform="translate(16.770313 296.766839) scale(0.1 -0.1)">
       <defs>
        <path id="DejaVuSans-2212" d="M 678 2272 
L 4684 2272 
L 4684 1741 
L 678 1741 
L 678 2272 
z
" transform="scale(0.015625)"/>
        <path id="DejaVuSans-37" d="M 525 4666 
L 3525 4666 
L 3525 4397 
L 1831 0 
L 1172 0 
L 2766 4134 
L 525 4134 
L 525 4666 
z
" transform="scale(0.015625)"/>
       </defs>
       <use xlink:href="#DejaVuSans-2212"/>
       <use xlink:href="#DejaVuSans-37" x="83.789062"/>
       <use xlink:href="#DejaVuSans-35" x="147.412109"/>
       <use xlink:href="#DejaVuSans-30" x="211.035156"/>
       <use xlink:href="#DejaVuSans-30" x="274.658203"/>
      </g>
     </g>
    </g>
    <g id="ytick_2">
     <g id="line2d_7">
      <g>
       <use xlink:href="#m3e1873bf86" x="57.6" y="256.243011" style="stroke: #000000; stroke-width: 0.8"/>
      </g>
     </g>
     <g id="text_7">
      <!-- −5000 -->
      <g transform="translate(16.770313 260.04223) scale(0.1 -0.1)">
       <use xlink:href="#DejaVuSans-2212"/>
       <use xlink:href="#DejaVuSans-35" x="83.789062"/>
       <use xlink:href="#DejaVuSans-30" x="147.412109"/>
       <use xlink:href="#DejaVuSans-30" x="211.035156"/>
       <use xlink:href="#DejaVuSans-30" x="274.658203"/>
      </g>
     </g>
    </g>
    <g id="ytick_3">
     <g id="line2d_8">
      <g>
       <use xlink:href="#m3e1873bf86" x="57.6" y="219.518401" style="stroke: #000000; stroke-width: 0.8"/>
      </g>
     </g>
     <g id="text_8">
      <!-- −2500 -->
      <g transform="translate(16.770313 223.31762) scale(0.1 -0.1)">
       <use xlink:href="#DejaVuSans-2212"/>
       <use xlink:href="#DejaVuSans-32" x="83.789062"/>
       <use xlink:href="#DejaVuSans-35" x="147.412109"/>
       <use xlink:href="#DejaVuSans-30" x="211.035156"/>
       <use xlink:href="#DejaVuSans-30" x="274.658203"/>
      </g>
     </g>
    </g>
    <g id="ytick_4">
     <g id="line2d_9">
      <g>
       <use xlink:href="#m3e1873bf86" x="57.6" y="182.793792" style="stroke: #000000; stroke-width: 0.8"/>
      </g>
     </g>
     <g id="text_9">
      <!-- 0 -->
      <g transform="translate(44.2375 186.59301) scale(0.1 -0.1)">
       <use xlink:href="#DejaVuSans-30"/>
      </g>
     </g>
    </g>
    <g id="ytick_5">
     <g id="line2d_10">
      <g>
       <use xlink:href="#m3e1873bf86" x="57.6" y="146.069182" style="stroke: #000000; stroke-width: 0.8"/>
      </g>
     </g>
     <g id="text_10">
      <!-- 2500 -->
      <g transform="translate(25.15 149.868401) scale(0.1 -0.1)">
       <use xlink:href="#DejaVuSans-32"/>
       <use xlink:href="#DejaVuSans-35" x="63.623047"/>
       <use xlink:href="#DejaVuSans-30" x="127.246094"/>
       <use xlink:href="#DejaVuSans-30" x="190.869141"/>
      </g>
     </g>
    </g>
    <g id="ytick_6">
     <g id="line2d_11">
      <g>
       <use xlink:href="#m3e1873bf86" x="57.6" y="109.344572" style="stroke: #000000; stroke-width: 0.8"/>
      </g>
     </g>
     <g id="text_11">
      <!-- 5000 -->
      <g transform="translate(25.15 113.143791) scale(0.1 -0.1)">
       <use xlink:href="#DejaVuSans-35"/>
       <use xlink:href="#DejaVuSans-30" x="63.623047"/>
       <use xlink:href="#DejaVuSans-30" x="127.246094"/>
       <use xlink:href="#DejaVuSans-30" x="190.869141"/>
      </g>
     </g>
    </g>
    <g id="ytick_7">
     <g id="line2d_12">
      <g>
       <use xlink:href="#m3e1873bf86" x="57.6" y="72.619962" style="stroke: #000000; stroke-width: 0.8"/>
      </g>
     </g>
     <g id="text_12">
      <!-- 7500 -->
      <g transform="translate(25.15 76.419181) scale(0.1 -0.1)">
       <use xlink:href="#DejaVuSans-37"/>
       <use xlink:href="#DejaVuSans-35" x="63.623047"/>
       <use xlink:href="#DejaVuSans-30" x="127.246094"/>
       <use xlink:href="#DejaVuSans-30" x="190.869141"/>
      </g>
     </g>
    </g>
   </g>
   <g id="line2d_13">
    <path d="M 73.832727 188.097682 
L 75.342748 194.08088 
L 78.362791 187.598885 
L 79.872812 187.595982 
L 81.382833 184.847665 
L 82.892854 185.804648 
L 84.402875 189.528023 
L 85.912896 188.660731 
L 87.422918 188.784896 
L 88.932939 184.163067 
L 90.44296 183.426227 
L 91.952981 184.922764 
L 93.463002 184.75328 
L 94.973023 185.118537 
L 96.483044 186.756781 
L 97.993066 186.258021 
L 99.503087 187.949746 
L 101.013108 183.519827 
L 102.523129 186.224442 
L 104.03315 185.916049 
L 105.543171 184.337647 
L 107.053192 185.856441 
L 108.563214 185.334119 
L 110.073235 186.755563 
L 111.583256 188.855469 
L 113.093277 187.595571 
L 114.603298 190.000627 
L 116.113319 187.975149 
L 117.62334 183.301227 
L 119.133362 185.294097 
L 120.643383 184.957495 
L 122.153404 185.556572 
L 123.663425 186.370973 
L 125.173446 184.854911 
L 126.683467 184.375218 
L 128.193488 184.855149 
L 131.213531 187.131245 
L 132.723552 185.263494 
L 134.233573 187.684257 
L 135.743594 188.161974 
L 137.253615 190.970469 
L 138.763636 186.490011 
L 140.273658 188.201847 
L 141.783679 186.001385 
L 143.2937 188.887638 
L 144.803721 184.280124 
L 146.313742 182.242253 
L 147.823763 186.935172 
L 149.333784 188.772581 
L 150.843805 188.554807 
L 152.353827 186.265071 
L 153.863848 186.939017 
L 155.373869 187.275901 
L 156.88389 186.939261 
L 158.393911 184.832394 
L 159.903932 183.511433 
L 161.413953 184.96842 
L 162.923975 184.153335 
L 164.433996 184.022732 
L 165.944017 185.834953 
L 167.454038 184.597106 
L 168.964059 185.445548 
L 170.47408 183.507838 
L 171.984101 182.24269 
L 173.494123 184.79364 
L 175.004144 184.404333 
L 176.514165 184.316179 
L 178.024186 184.512367 
L 179.534207 185.449483 
L 181.044228 185.345673 
L 185.574292 184.112451 
L 187.084313 184.742304 
L 188.594334 183.95827 
L 190.104355 189.244838 
L 191.614376 187.539365 
L 193.124397 188.587149 
L 194.634419 186.268862 
L 196.14444 187.915953 
L 197.654461 187.801586 
L 199.164482 186.295223 
L 200.674503 183.847665 
L 202.184524 185.590144 
L 203.694545 185.972742 
L 205.204567 183.540153 
L 206.714588 184.553908 
L 208.224609 183.45693 
L 209.73463 186.107162 
L 211.244651 186.297952 
L 212.754672 185.48349 
L 214.264693 184.291575 
L 215.774715 184.014841 
L 217.284736 187.709333 
L 218.794757 185.165437 
L 220.304778 184.575404 
L 221.814799 185.158609 
L 223.32482 186.198671 
L 224.834841 188.750717 
L 226.344863 186.109339 
L 227.854884 188.340123 
L 229.364905 185.804867 
L 230.874926 187.048685 
L 232.384947 192.106784 
L 233.894968 192.739878 
L 235.404989 190.817163 
L 236.915011 183.887651 
L 238.425032 207.262989 
L 239.935053 204.292935 
L 241.445074 186.309033 
L 242.955095 199.922645 
L 244.465116 201.24492 
L 245.975137 193.47489 
L 247.485159 201.829224 
L 248.99518 198.253138 
L 250.505201 178.631446 
L 252.015222 205.4504 
L 253.525243 198.055899 
L 255.035264 207.819729 
L 256.545285 227.625511 
L 258.055307 203.783295 
L 259.565328 206.365429 
L 261.075349 191.158835 
L 262.58537 193.350857 
L 264.095391 194.117219 
L 265.605412 200.149294 
L 267.115433 203.301804 
L 268.625455 202.84083 
L 270.135476 190.397584 
L 271.645497 191.367392 
L 273.155518 200.645572 
L 274.665539 204.937477 
L 276.17556 197.836564 
L 279.195603 195.709191 
L 280.705624 192.866891 
L 282.215645 176.828238 
L 283.725666 195.364441 
L 285.235687 186.406772 
L 286.745708 193.864731 
L 288.255729 192.283016 
L 289.765751 192.345481 
L 291.275772 190.032063 
L 292.785793 192.037399 
L 294.295814 201.17452 
L 295.805835 185.460916 
L 297.315856 199.177846 
L 298.825877 190.847698 
L 300.335899 201.140926 
L 301.84592 199.923017 
L 303.355941 188.729447 
L 304.865962 189.897104 
L 306.375983 187.073011 
L 307.886004 179.68272 
L 309.396025 203.442864 
L 310.906047 196.56502 
L 312.416068 193.830431 
L 313.926089 176.45947 
L 315.43611 202.021917 
L 316.946131 198.435381 
L 318.456152 189.846774 
L 319.966173 195.42203 
L 321.476195 191.857012 
L 322.986216 193.01094 
L 324.496237 187.05329 
L 326.006258 188.590442 
L 327.516279 190.627503 
L 329.0263 190.276338 
L 330.536321 189.381954 
L 332.046342 185.212994 
L 333.556364 194.076516 
L 335.066385 193.860993 
L 336.576406 187.318041 
L 338.086427 190.593999 
L 339.596448 189.488996 
L 341.106469 190.774974 
L 342.61649 191.047258 
L 344.126512 191.747146 
L 345.636533 197.90064 
L 347.146554 195.120874 
L 348.656575 200.053958 
L 350.166596 185.975803 
L 351.676617 188.287441 
L 353.186638 184.519188 
L 354.69666 187.91704 
L 356.206681 193.375245 
L 357.716702 189.711791 
L 359.226723 188.960147 
L 362.246765 190.778905 
L 363.756786 185.099887 
L 365.266808 185.219918 
L 366.776829 186.861551 
L 368.28685 185.219538 
L 369.796871 192.658235 
L 371.306892 188.803899 
L 372.816913 192.562796 
L 374.326934 185.524917 
L 375.836956 188.339406 
L 377.346977 187.737141 
L 378.856998 182.088179 
L 380.367019 187.018521 
L 381.87704 186.523228 
L 383.387061 188.133083 
L 384.897082 189.310267 
L 386.407104 186.501205 
L 387.917125 192.116372 
L 389.427146 198.583541 
L 390.937167 193.627633 
L 392.447188 190.424936 
L 393.957209 192.786368 
L 395.46723 201.077217 
L 396.977252 186.353268 
L 398.487273 188.359193 
L 398.487273 188.359193 
" clip-path="url(#p0770798951)" style="fill: none; stroke: #008000; stroke-opacity: 0.8; stroke-width: 0.5; stroke-linecap: square"/>
   </g>
   <g id="line2d_14">
    <path d="M 73.832727 169.775771 
L 75.342748 183.323628 
L 76.85277 182.093226 
L 78.362791 178.874146 
L 79.872812 173.371428 
L 81.382833 176.992555 
L 82.892854 179.236059 
L 84.402875 183.341168 
L 85.912896 174.869703 
L 87.422918 182.943492 
L 88.932939 179.31274 
L 90.44296 177.902199 
L 91.952981 182.64541 
L 93.463002 173.117188 
L 94.973023 175.300033 
L 96.483044 183.377002 
L 97.993066 181.702708 
L 99.503087 181.131965 
L 101.013108 178.149869 
L 102.523129 179.545132 
L 104.03315 182.289533 
L 105.543171 177.720799 
L 107.053192 181.74529 
L 108.563214 181.70248 
L 110.073235 185.023965 
L 111.583256 185.735973 
L 113.093277 183.422538 
L 114.603298 186.887296 
L 116.113319 177.518636 
L 117.62334 173.451096 
L 119.133362 180.91196 
L 120.643383 182.063419 
L 122.153404 180.472239 
L 123.663425 183.332983 
L 125.173446 179.223362 
L 126.683467 182.235421 
L 128.193488 183.935627 
L 129.70351 184.235424 
L 131.213531 180.848143 
L 132.723552 182.923071 
L 134.233573 183.828201 
L 135.743594 187.009638 
L 137.253615 185.982416 
L 138.763636 181.445657 
L 140.273658 182.460118 
L 141.783679 182.579536 
L 143.2937 181.839981 
L 144.803721 176.503945 
L 146.313742 175.555161 
L 147.823763 182.197279 
L 149.333784 181.439471 
L 150.843805 157.544097 
L 152.353827 172.524448 
L 153.863848 167.251196 
L 155.373869 182.906857 
L 156.88389 177.709478 
L 158.393911 171.863977 
L 159.903932 177.153287 
L 161.413953 179.310016 
L 162.923975 181.814045 
L 164.433996 169.147683 
L 165.944017 181.08981 
L 167.454038 181.148439 
L 168.964059 175.631254 
L 170.47408 176.484102 
L 171.984101 179.336844 
L 173.494123 178.69851 
L 175.004144 182.557494 
L 176.514165 179.584532 
L 178.024186 181.936105 
L 179.534207 180.277786 
L 181.044228 181.142095 
L 182.554249 179.402982 
L 184.064271 179.017391 
L 185.574292 177.171765 
L 187.084313 178.098475 
L 188.594334 173.341379 
L 190.104355 141.647757 
L 191.614376 178.821776 
L 193.124397 184.021862 
L 194.634419 179.848719 
L 196.14444 180.665117 
L 197.654461 181.212608 
L 199.164482 171.646448 
L 200.674503 176.542409 
L 202.184524 174.471235 
L 203.694545 175.770011 
L 205.204567 179.554229 
L 206.714588 182.786615 
L 208.224609 181.474876 
L 209.73463 182.246384 
L 211.244651 175.510692 
L 212.754672 174.196578 
L 214.264693 177.45626 
L 215.774715 168.401128 
L 217.284736 183.655984 
L 218.794757 177.527503 
L 220.304778 180.519753 
L 221.814799 182.338096 
L 223.32482 180.801418 
L 224.834841 180.820457 
L 226.344863 172.795138 
L 227.854884 181.205488 
L 229.364905 162.607115 
L 230.874926 174.670864 
L 232.384947 172.344687 
L 233.894968 174.079969 
L 235.404989 137.257594 
L 236.915011 127.89555 
L 238.425032 162.585654 
L 239.935053 167.575911 
L 241.445074 97.448467 
L 242.955095 157.617336 
L 244.465116 149.84671 
L 245.975137 154.08669 
L 247.485159 166.709259 
L 248.99518 162.07494 
L 250.505201 124.770641 
L 252.015222 144.290888 
L 253.525243 78.790667 
L 256.545285 186.877611 
L 258.055307 156.052521 
L 261.075349 147.015246 
L 262.58537 179.310975 
L 264.095391 174.037631 
L 265.605412 174.105007 
L 267.115433 164.621881 
L 268.625455 176.750298 
L 270.135476 151.472969 
L 271.645497 106.016696 
L 273.155518 140.080046 
L 274.665539 164.520754 
L 276.17556 152.179174 
L 277.685581 125.821164 
L 279.195603 152.932908 
L 280.705624 140.244209 
L 282.215645 141.685777 
L 283.725666 140.934647 
L 285.235687 129.386598 
L 286.745708 145.185027 
L 288.255729 146.724769 
L 289.765751 158.962664 
L 291.275772 162.84264 
L 292.785793 135.055682 
L 294.295814 161.108311 
L 295.805835 142.609795 
L 297.315856 158.64868 
L 298.825877 147.27948 
L 300.335899 171.573464 
L 301.84592 183.227216 
L 303.355941 165.345918 
L 304.865962 153.086719 
L 306.375983 158.510694 
L 307.886004 145.458387 
L 309.396025 174.740926 
L 310.906047 174.30025 
L 312.416068 158.142822 
L 313.926089 129.071478 
L 315.43611 184.616446 
L 316.946131 188.915312 
L 318.456152 175.770376 
L 319.966173 175.250962 
L 321.476195 184.267596 
L 322.986216 182.752362 
L 324.496237 156.453219 
L 326.006258 178.566965 
L 327.516279 160.86515 
L 329.0263 181.241227 
L 330.536321 185.080197 
L 332.046342 179.729834 
L 333.556364 181.955002 
L 335.066385 186.127021 
L 336.576406 150.752698 
L 338.086427 178.565268 
L 339.596448 181.059724 
L 341.106469 179.022254 
L 344.126512 187.876721 
L 345.636533 190.281097 
L 347.146554 184.196534 
L 348.656575 187.075908 
L 350.166596 168.722198 
L 351.676617 165.996034 
L 353.186638 167.783891 
L 354.69666 166.923104 
L 356.206681 169.710703 
L 357.716702 173.79131 
L 359.226723 172.983594 
L 360.736744 159.68222 
L 362.246765 169.802853 
L 363.756786 177.058907 
L 365.266808 170.977846 
L 366.776829 178.981161 
L 368.28685 165.159156 
L 369.796871 178.581536 
L 371.306892 162.709382 
L 372.816913 181.746915 
L 374.326934 166.587818 
L 377.346977 183.138208 
L 378.856998 154.647259 
L 380.367019 169.815659 
L 381.87704 175.374741 
L 383.387061 180.019502 
L 386.407104 179.800392 
L 387.917125 180.408794 
L 389.427146 184.110307 
L 390.937167 181.641471 
L 392.447188 168.650448 
L 393.957209 169.516831 
L 395.46723 176.750573 
L 396.977252 149.921823 
L 398.487273 173.047115 
L 398.487273 173.047115 
" clip-path="url(#p0770798951)" style="fill: none; stroke: #32cd32; stroke-opacity: 0.8; stroke-width: 0.5; stroke-linecap: square"/>
   </g>
   <g id="line2d_15">
    <path d="M 73.832727 201.150096 
L 75.342748 204.689682 
L 76.85277 200.186417 
L 78.362791 205.190535 
L 79.872812 194.805319 
L 81.382833 191.964292 
L 82.892854 190.426856 
L 84.402875 198.235367 
L 85.912896 198.977978 
L 87.422918 194.975468 
L 88.932939 190.340398 
L 90.44296 190.982053 
L 91.952981 187.365624 
L 93.463002 190.790254 
L 94.973023 191.48981 
L 96.483044 189.547046 
L 97.993066 191.798716 
L 99.503087 196.977057 
L 101.013108 191.797458 
L 102.523129 189.837349 
L 104.03315 188.193544 
L 105.543171 187.655355 
L 107.053192 190.361502 
L 108.563214 187.999458 
L 110.073235 188.934955 
L 111.583256 191.17068 
L 113.093277 192.175208 
L 114.603298 193.917838 
L 116.113319 196.182729 
L 117.62334 188.124313 
L 119.133362 193.040926 
L 120.643383 188.040485 
L 122.153404 189.859659 
L 125.173446 189.454082 
L 126.683467 185.946897 
L 128.193488 186.375799 
L 129.70351 189.79255 
L 131.213531 190.835205 
L 132.723552 187.478348 
L 134.233573 192.661589 
L 135.743594 190.713512 
L 137.253615 200.965179 
L 138.763636 189.329344 
L 140.273658 193.189367 
L 141.783679 190.597035 
L 143.2937 199.242886 
L 144.803721 197.092896 
L 146.313742 189.07522 
L 147.823763 192.576822 
L 149.333784 196.718611 
L 150.843805 202.825602 
L 152.353827 201.730815 
L 153.863848 201.496692 
L 155.373869 191.501203 
L 156.88389 200.896244 
L 158.393911 196.581971 
L 159.903932 193.158856 
L 161.413953 189.432285 
L 162.923975 185.402818 
L 164.433996 190.938415 
L 165.944017 192.187156 
L 167.454038 187.652116 
L 168.964059 200.349216 
L 170.47408 189.070429 
L 171.984101 184.177488 
L 173.494123 190.868585 
L 175.004144 188.048092 
L 176.514165 193.220423 
L 178.024186 189.762825 
L 179.534207 189.969435 
L 181.044228 194.019298 
L 182.554249 189.529232 
L 184.064271 190.379084 
L 185.574292 192.456486 
L 187.084313 191.192968 
L 188.594334 192.096121 
L 190.104355 204.221026 
L 191.614376 192.74039 
L 193.124397 199.250948 
L 194.634419 194.599689 
L 196.14444 202.422059 
L 197.654461 200.528806 
L 199.164482 194.169407 
L 200.674503 190.918136 
L 202.184524 194.176631 
L 203.694545 190.936694 
L 205.204567 189.103992 
L 206.714588 187.993504 
L 208.224609 184.470772 
L 209.73463 199.111894 
L 212.754672 189.489037 
L 214.264693 187.118193 
L 215.774715 191.723334 
L 217.284736 191.391883 
L 218.794757 192.372981 
L 220.304778 188.989133 
L 221.814799 187.778189 
L 223.32482 198.728632 
L 224.834841 206.826271 
L 226.344863 192.34379 
L 227.854884 198.613685 
L 229.364905 206.67806 
L 230.874926 198.753664 
L 232.384947 215.883422 
L 233.894968 215.981844 
L 235.404989 253.133039 
L 236.915011 248.656602 
L 238.425032 238.918478 
L 239.935053 295.488 
L 241.445074 248.89172 
L 242.955095 282.525116 
L 244.465116 240.088324 
L 245.975137 224.348586 
L 247.485159 252.677348 
L 248.99518 237.229322 
L 250.505201 218.04091 
L 252.015222 290.207379 
L 253.525243 266.957344 
L 255.035264 288.666365 
L 256.545285 250.871053 
L 258.055307 264.619603 
L 259.565328 234.173233 
L 261.075349 229.114099 
L 262.58537 209.076992 
L 264.095391 223.081556 
L 265.605412 224.300492 
L 267.115433 255.198862 
L 268.625455 242.831705 
L 270.135476 225.17839 
L 271.645497 222.771603 
L 273.155518 247.971921 
L 274.665539 254.531501 
L 276.17556 235.370866 
L 277.685581 257.291656 
L 279.195603 239.645238 
L 280.705624 254.011207 
L 282.215645 222.598233 
L 283.725666 249.015455 
L 285.235687 217.948647 
L 286.745708 243.281703 
L 288.255729 224.284746 
L 289.765751 229.535899 
L 291.275772 214.402376 
L 292.785793 228.321359 
L 294.295814 254.353759 
L 295.805835 221.695953 
L 297.315856 276.489881 
L 298.825877 236.746432 
L 300.335899 232.680639 
L 301.84592 229.766888 
L 303.355941 210.515338 
L 304.865962 209.904025 
L 306.375983 210.22564 
L 307.886004 215.77371 
L 309.396025 223.41801 
L 310.906047 209.332759 
L 312.416068 226.341977 
L 313.926089 211.212683 
L 315.43611 223.082118 
L 316.946131 214.064097 
L 318.456152 213.038143 
L 319.966173 218.223005 
L 321.476195 203.696909 
L 322.986216 199.24879 
L 324.496237 204.69278 
L 326.006258 205.246059 
L 327.516279 216.521013 
L 329.0263 207.515192 
L 330.536321 199.660619 
L 332.046342 196.986023 
L 333.556364 206.20697 
L 335.066385 204.698091 
L 336.576406 217.869373 
L 338.086427 197.307123 
L 339.596448 198.87619 
L 341.106469 207.708279 
L 342.61649 202.405734 
L 344.126512 194.817733 
L 345.636533 208.557418 
L 347.146554 217.089111 
L 348.656575 212.479543 
L 350.166596 196.529074 
L 351.676617 212.490149 
L 353.186638 197.696146 
L 354.69666 212.782178 
L 356.206681 223.650895 
L 357.716702 208.077767 
L 359.226723 203.171646 
L 360.736744 212.449423 
L 362.246765 206.010332 
L 363.756786 195.907028 
L 365.266808 191.372538 
L 366.776829 203.075176 
L 368.28685 209.782961 
L 369.796871 209.512556 
L 371.306892 213.222366 
L 372.816913 205.024529 
L 374.326934 193.09196 
L 375.836956 195.331344 
L 377.346977 192.702077 
L 378.856998 191.415733 
L 380.367019 209.22894 
L 381.87704 195.397368 
L 383.387061 196.198728 
L 384.897082 203.597491 
L 386.407104 195.188816 
L 387.917125 204.712014 
L 389.427146 239.589648 
L 390.937167 213.411678 
L 392.447188 234.828819 
L 393.957209 223.164122 
L 395.46723 229.920426 
L 396.977252 218.529495 
L 398.487273 203.738812 
L 398.487273 203.738812 
" clip-path="url(#p0770798951)" style="fill: none; stroke: #32cd32; stroke-opacity: 0.8; stroke-width: 0.5; stroke-linecap: square"/>
   </g>
   <g id="line2d_16">
    <path d="M 73.832727 182.337514 
L 75.342748 181.842139 
L 76.85277 178.937011 
L 78.362791 178.03167 
L 79.872812 179.511166 
L 81.382833 178.797179 
L 82.892854 180.245196 
L 84.402875 182.961564 
L 85.912896 179.230835 
L 87.422918 179.620995 
L 88.932939 180.534867 
L 90.44296 179.498953 
L 91.952981 180.420954 
L 93.463002 180.743847 
L 94.973023 181.744301 
L 96.483044 181.78013 
L 97.993066 182.421256 
L 99.503087 180.922886 
L 101.013108 177.792647 
L 102.523129 181.588754 
L 104.03315 182.139753 
L 105.543171 180.519784 
L 107.053192 181.878773 
L 108.563214 182.714869 
L 110.073235 182.367868 
L 111.583256 182.652761 
L 113.093277 181.769874 
L 114.603298 182.342673 
L 116.113319 181.15819 
L 117.62334 179.730578 
L 119.133362 181.462684 
L 120.643383 181.951065 
L 122.153404 182.177063 
L 123.663425 180.877703 
L 128.193488 181.776749 
L 131.213531 181.924444 
L 132.723552 181.610608 
L 134.233573 182.29926 
L 135.743594 182.238753 
L 137.253615 183.72704 
L 138.763636 179.928947 
L 140.273658 180.333964 
L 141.783679 181.758 
L 143.2937 183.602138 
L 144.803721 179.285548 
L 146.313742 180.133625 
L 147.823763 181.805975 
L 149.333784 182.764581 
L 150.843805 176.643197 
L 152.353827 176.878662 
L 153.863848 179.817866 
L 155.373869 183.264991 
L 156.88389 179.254295 
L 158.393911 180.922964 
L 159.903932 182.263894 
L 161.413953 180.909449 
L 162.923975 180.658498 
L 164.433996 178.822467 
L 165.944017 181.280561 
L 167.454038 180.784454 
L 168.964059 179.902806 
L 170.47408 176.23626 
L 171.984101 176.7521 
L 173.494123 181.133494 
L 175.004144 181.250499 
L 176.514165 182.080943 
L 178.024186 179.493722 
L 179.534207 181.586865 
L 181.044228 180.584563 
L 182.554249 181.860257 
L 184.064271 181.382462 
L 185.574292 179.694181 
L 187.084313 179.087884 
L 188.594334 179.841906 
L 190.104355 177.383729 
L 191.614376 178.308545 
L 193.124397 181.104418 
L 194.634419 179.798233 
L 196.14444 182.174601 
L 197.654461 179.590685 
L 199.164482 181.458093 
L 200.674503 181.244643 
L 202.184524 180.442589 
L 203.694545 180.350932 
L 205.204567 179.450378 
L 206.714588 180.476144 
L 208.224609 178.675298 
L 209.73463 181.564706 
L 211.244651 179.345355 
L 212.754672 181.304204 
L 214.264693 179.475798 
L 215.774715 178.754349 
L 217.284736 182.555106 
L 218.794757 180.89357 
L 220.304778 181.040566 
L 223.32482 182.828478 
L 224.834841 183.327313 
L 226.344863 178.579582 
L 227.854884 181.862579 
L 229.364905 180.282906 
L 230.874926 178.534143 
L 232.384947 181.250973 
L 233.894968 182.729166 
L 235.404989 181.306279 
L 236.915011 157.83407 
L 238.425032 177.002766 
L 239.935053 178.583996 
L 241.445074 150.367886 
L 242.955095 165.352484 
L 244.465116 165.920234 
L 245.975137 162.773551 
L 247.485159 175.101127 
L 248.99518 174.147416 
L 250.505201 153.709041 
L 252.015222 165.293921 
L 253.525243 149.874636 
L 255.035264 150.386985 
L 256.545285 162.567246 
L 258.055307 169.289654 
L 259.565328 155.271564 
L 261.075349 177.607863 
L 262.58537 177.013263 
L 264.095391 177.847254 
L 265.605412 174.386564 
L 267.115433 177.242318 
L 268.625455 173.901026 
L 270.135476 173.473201 
L 271.645497 169.373505 
L 273.155518 164.480851 
L 274.665539 192.418242 
L 276.17556 178.790249 
L 277.685581 160.493807 
L 279.195603 168.512872 
L 280.705624 169.153738 
L 282.215645 164.232075 
L 283.725666 163.572118 
L 285.235687 164.716412 
L 286.745708 170.082181 
L 288.255729 174.969935 
L 289.765751 169.724868 
L 291.275772 172.955798 
L 292.785793 174.893775 
L 294.295814 183.061313 
L 295.805835 161.663492 
L 297.315856 183.381303 
L 298.825877 163.063941 
L 300.335899 173.02578 
L 301.84592 180.357981 
L 303.355941 172.725023 
L 304.865962 175.942676 
L 306.375983 175.095687 
L 307.886004 163.223384 
L 309.396025 172.691475 
L 310.906047 173.089475 
L 312.416068 179.306559 
L 313.926089 166.391448 
L 316.946131 182.602067 
L 318.456152 181.143068 
L 319.966173 177.283307 
L 321.476195 175.71609 
L 322.986216 175.872627 
L 324.496237 176.28096 
L 326.006258 178.22298 
L 327.516279 179.371724 
L 329.0263 178.072509 
L 330.536321 181.179829 
L 332.046342 179.972491 
L 333.556364 181.849282 
L 335.066385 179.903581 
L 336.576406 175.868194 
L 338.086427 177.853164 
L 339.596448 181.368654 
L 341.106469 180.363168 
L 342.61649 180.828317 
L 344.126512 181.421446 
L 345.636533 186.849004 
L 347.146554 178.189991 
L 348.656575 177.924288 
L 350.166596 175.240618 
L 351.676617 178.964912 
L 353.186638 178.700361 
L 354.69666 181.638051 
L 356.206681 175.017848 
L 357.716702 171.60557 
L 359.226723 177.687492 
L 360.736744 173.072551 
L 362.246765 178.032912 
L 363.756786 175.81912 
L 365.266808 177.15085 
L 366.776829 178.136551 
L 368.28685 177.273685 
L 369.796871 181.49904 
L 371.306892 176.469121 
L 372.816913 176.715233 
L 374.326934 174.590024 
L 375.836956 176.528096 
L 377.346977 179.047725 
L 378.856998 176.672859 
L 380.367019 179.583326 
L 381.87704 177.822451 
L 383.387061 180.320063 
L 384.897082 181.440343 
L 386.407104 177.02741 
L 387.917125 184.600374 
L 389.427146 177.947165 
L 390.937167 177.157378 
L 392.447188 173.915442 
L 393.957209 175.249827 
L 395.46723 184.234799 
L 396.977252 175.374502 
L 398.487273 174.720344 
L 398.487273 174.720344 
" clip-path="url(#p0770798951)" style="fill: none; stroke: #ff0000; stroke-opacity: 0.8; stroke-width: 0.5; stroke-linecap: square"/>
   </g>
   <g id="line2d_17">
    <path d="M 73.832727 161.947928 
L 75.342748 166.800306 
L 76.85277 166.302534 
L 78.362791 168.024949 
L 79.872812 166.450959 
L 81.382833 171.457718 
L 82.892854 170.843591 
L 84.402875 175.867345 
L 85.912896 166.788495 
L 87.422918 175.645532 
L 88.932939 171.187585 
L 90.44296 173.230519 
L 91.952981 175.91985 
L 93.463002 170.698147 
L 94.973023 170.556413 
L 96.483044 179.173694 
L 97.993066 174.779504 
L 99.503087 176.769878 
L 101.013108 173.560942 
L 102.523129 175.99275 
L 104.03315 178.782361 
L 105.543171 173.142856 
L 107.053192 178.752639 
L 108.563214 179.79868 
L 110.073235 181.255321 
L 111.583256 177.365118 
L 113.093277 181.263599 
L 114.603298 179.009194 
L 116.113319 173.400956 
L 117.62334 170.90551 
L 119.133362 176.72023 
L 120.643383 180.279152 
L 122.153404 175.874345 
L 123.663425 177.649348 
L 125.173446 176.584466 
L 126.683467 179.670978 
L 128.193488 180.519558 
L 129.70351 180.81881 
L 131.213531 176.481421 
L 132.723552 179.698355 
L 134.233573 181.582022 
L 135.743594 181.326783 
L 137.253615 181.380173 
L 138.763636 173.6727 
L 140.273658 177.614149 
L 141.783679 178.774779 
L 143.2937 175.373383 
L 144.803721 171.187886 
L 146.313742 172.886754 
L 147.823763 174.382297 
L 149.333784 175.677 
L 150.843805 150.741218 
L 152.353827 161.9946 
L 153.863848 159.370199 
L 155.373869 178.861994 
L 156.88389 170.743698 
L 158.393911 167.311696 
L 159.903932 175.210812 
L 161.413953 176.017559 
L 162.923975 179.109105 
L 164.433996 166.356895 
L 165.944017 177.102011 
L 167.454038 178.161883 
L 168.964059 172.470993 
L 170.47408 167.420743 
L 171.984101 173.214197 
L 173.494123 177.481452 
L 175.004144 178.612567 
L 176.514165 178.386035 
L 178.024186 176.991262 
L 179.534207 176.353029 
L 182.554249 177.124162 
L 184.064271 176.066432 
L 185.574292 172.745154 
L 187.084313 173.625637 
L 188.594334 170.703884 
L 190.104355 136.676946 
L 191.614376 171.635676 
L 193.124397 178.200909 
L 194.634419 172.257591 
L 196.14444 174.869174 
L 197.654461 172.224348 
L 199.164482 168.154552 
L 200.674503 173.814758 
L 202.184524 169.674618 
L 203.694545 171.684449 
L 205.204567 174.084334 
L 206.714588 177.991828 
L 208.224609 176.094165 
L 209.73463 176.371457 
L 211.244651 166.794744 
L 212.754672 174.168262 
L 214.264693 174.8751 
L 215.774715 163.36105 
L 217.284736 177.971441 
L 218.794757 174.385786 
L 220.304778 177.569085 
L 221.814799 178.104102 
L 223.32482 178.173131 
L 224.834841 174.160298 
L 226.344863 166.100342 
L 227.854884 170.883408 
L 229.364905 159.247269 
L 230.874926 163.751465 
L 232.384947 158.597346 
L 233.894968 156.003827 
L 235.404989 121.533853 
L 236.915011 99.037957 
L 238.425032 135.384759 
L 239.935053 133.575994 
L 241.445074 53.568 
L 242.955095 129.735032 
L 244.465116 116.516475 
L 247.485159 144.233449 
L 248.99518 143.148428 
L 250.505201 94.725974 
L 252.015222 90.06857 
L 253.525243 60.650191 
L 255.035264 77.88129 
L 256.545285 117.365528 
L 258.055307 135.402909 
L 259.565328 108.503134 
L 261.075349 120.92552 
L 262.58537 155.872427 
L 264.095391 158.385844 
L 265.605412 141.618546 
L 267.115433 150.335204 
L 268.625455 153.545509 
L 270.135476 144.071616 
L 271.645497 85.837586 
L 273.155518 102.183139 
L 274.665539 140.084658 
L 276.17556 136.23595 
L 277.685581 95.358215 
L 279.195603 135.289992 
L 280.705624 132.20621 
L 282.215645 121.455178 
L 283.725666 112.979012 
L 285.235687 110.955773 
L 286.745708 105.98852 
L 288.255729 131.067615 
L 289.765751 138.318665 
L 291.275772 147.260801 
L 292.785793 122.348297 
L 294.295814 150.884237 
L 295.805835 110.172551 
L 297.315856 153.425442 
L 298.825877 101.330057 
L 300.335899 144.513388 
L 301.84592 162.164809 
L 303.355941 140.065824 
L 304.865962 133.170509 
L 306.375983 146.897006 
L 307.886004 115.701316 
L 309.396025 141.967068 
L 310.906047 154.23948 
L 312.416068 142.406426 
L 313.926089 128.755417 
L 315.43611 161.318283 
L 316.946131 170.14584 
L 318.456152 160.974862 
L 319.966173 158.315213 
L 321.476195 170.592174 
L 322.986216 165.850801 
L 324.496237 145.121703 
L 326.006258 167.057519 
L 327.516279 146.117861 
L 329.0263 165.424978 
L 330.536321 175.571596 
L 332.046342 173.728949 
L 333.556364 174.262579 
L 335.066385 171.419788 
L 336.576406 143.206874 
L 338.086427 170.528984 
L 339.596448 177.254243 
L 341.106469 173.73593 
L 342.61649 172.882319 
L 344.126512 177.631158 
L 345.636533 181.470472 
L 347.146554 171.9936 
L 348.656575 161.241483 
L 350.166596 161.876662 
L 351.676617 166.282127 
L 353.186638 167.360883 
L 354.69666 158.962991 
L 356.206681 155.382594 
L 357.716702 157.553794 
L 359.226723 171.76551 
L 360.736744 157.828388 
L 362.246765 159.104496 
L 363.756786 164.997871 
L 365.266808 165.683812 
L 366.776829 170.873306 
L 368.28685 159.288607 
L 369.796871 165.844127 
L 371.306892 166.649964 
L 372.816913 163.284335 
L 374.326934 158.472132 
L 375.836956 163.10056 
L 377.346977 174.102399 
L 378.856998 150.997915 
L 380.367019 158.256551 
L 381.87704 167.258955 
L 383.387061 171.380256 
L 384.897082 173.806952 
L 386.407104 169.903932 
L 387.917125 177.299284 
L 389.427146 163.996831 
L 390.937167 162.312643 
L 392.447188 148.702377 
L 393.957209 156.93792 
L 395.46723 162.293818 
L 396.977252 128.054923 
L 398.487273 159.764141 
L 398.487273 159.764141 
" clip-path="url(#p0770798951)" style="fill: none; stroke: #f08080; stroke-opacity: 0.8; stroke-width: 0.5; stroke-linecap: square"/>
   </g>
   <g id="line2d_18">
    <path d="M 73.832727 200.518067 
L 75.342748 195.152541 
L 76.85277 194.366301 
L 78.362791 189.397203 
L 79.872812 185.831514 
L 81.382833 185.526625 
L 82.892854 186.26166 
L 84.402875 195.714308 
L 85.912896 189.275048 
L 87.422918 187.166835 
L 88.932939 185.741304 
L 90.44296 185.230635 
L 91.952981 182.706052 
L 93.463002 186.017983 
L 94.973023 186.617702 
L 96.483044 184.480081 
L 97.993066 189.692693 
L 99.503087 190.813943 
L 101.013108 181.977129 
L 102.523129 185.3296 
L 104.03315 184.080983 
L 105.543171 183.556213 
L 107.053192 184.69859 
L 108.563214 185.474444 
L 110.073235 183.86515 
L 111.583256 188.244125 
L 113.093277 181.994918 
L 114.603298 183.519359 
L 116.113319 183.606027 
L 117.62334 184.413761 
L 119.133362 187.775443 
L 120.643383 183.547405 
L 122.153404 187.068728 
L 123.663425 183.951372 
L 125.173446 185.010448 
L 126.683467 182.792212 
L 128.193488 182.848442 
L 129.70351 185.764139 
L 131.213531 184.822348 
L 132.723552 183.494871 
L 134.233573 183.711015 
L 135.743594 182.741808 
L 137.253615 192.731213 
L 138.763636 182.951704 
L 140.273658 182.728965 
L 141.783679 183.423624 
L 143.2937 193.750767 
L 144.803721 192.52059 
L 146.313742 189.493894 
L 147.823763 188.319499 
L 149.333784 188.657593 
L 150.843805 196.396171 
L 152.353827 189.996337 
L 153.863848 196.93035 
L 155.373869 187.729669 
L 156.88389 191.985591 
L 158.393911 188.716449 
L 159.903932 189.677218 
L 161.413953 185.755311 
L 162.923975 182.897444 
L 164.433996 184.500719 
L 165.944017 185.568575 
L 167.454038 184.188399 
L 168.964059 198.318501 
L 170.47408 183.126294 
L 171.984101 180.558086 
L 173.494123 186.1366 
L 175.004144 184.556345 
L 176.514165 191.588211 
L 178.024186 184.249922 
L 179.534207 185.99483 
L 181.044228 189.010942 
L 182.554249 187.833077 
L 184.064271 188.03435 
L 185.574292 187.632859 
L 187.084313 183.307568 
L 188.594334 185.562099 
L 190.104355 192.852392 
L 191.614376 188.490581 
L 193.124397 186.428976 
L 194.634419 188.193125 
L 196.14444 195.655204 
L 197.654461 189.229039 
L 199.164482 188.480736 
L 200.674503 186.038085 
L 202.184524 193.094521 
L 203.694545 184.880286 
L 205.204567 183.705361 
L 206.714588 183.807503 
L 208.224609 182.129564 
L 209.73463 194.882742 
L 211.244651 185.287084 
L 212.754672 184.666585 
L 214.264693 183.640822 
L 215.774715 186.038757 
L 217.284736 187.342005 
L 218.794757 190.182135 
L 220.304778 183.172537 
L 221.814799 185.713835 
L 223.32482 194.095061 
L 224.834841 200.974322 
L 226.344863 191.921115 
L 227.854884 192.037617 
L 229.364905 199.66836 
L 230.874926 188.341553 
L 232.384947 203.720172 
L 233.894968 216.210719 
L 235.404989 219.988968 
L 236.915011 202.839055 
L 238.425032 222.714224 
L 239.935053 278.004745 
L 241.445074 214.688541 
L 242.955095 231.009996 
L 245.975137 196.483244 
L 247.485159 222.741284 
L 248.99518 220.271399 
L 250.505201 197.097434 
L 252.015222 240.250596 
L 253.525243 197.771751 
L 255.035264 216.232346 
L 256.545285 202.931968 
L 258.055307 223.703457 
L 259.565328 199.296411 
L 261.075349 212.330359 
L 262.58537 193.438552 
L 264.095391 206.4428 
L 265.605412 201.146607 
L 267.115433 206.071391 
L 268.625455 224.021619 
L 270.135476 215.209356 
L 271.645497 201.852038 
L 273.155518 204.202981 
L 274.665539 252.908428 
L 276.17556 226.459515 
L 277.685581 226.062027 
L 279.195603 209.834041 
L 280.705624 230.886829 
L 282.215645 195.461037 
L 283.725666 203.330487 
L 285.235687 213.523754 
L 286.745708 207.168735 
L 288.255729 204.732867 
L 289.765751 200.53262 
L 291.275772 185.289186 
L 292.785793 209.882036 
L 294.295814 239.637028 
L 295.805835 196.041655 
L 297.315856 260.731103 
L 298.825877 226.923747 
L 300.335899 207.176503 
L 301.84592 206.819289 
L 303.355941 191.816124 
L 304.865962 199.678099 
L 306.375983 196.549006 
L 307.886004 208.54134 
L 309.396025 202.075574 
L 310.906047 186.057612 
L 312.416068 210.286702 
L 313.926089 191.394814 
L 315.43611 192.765861 
L 316.946131 195.879702 
L 318.456152 207.571957 
L 319.966173 202.013169 
L 321.476195 188.897465 
L 322.986216 184.903683 
L 324.496237 189.61155 
L 326.006258 191.133015 
L 327.516279 209.773342 
L 329.0263 190.293997 
L 330.536321 189.25596 
L 332.046342 183.685098 
L 333.556364 193.437667 
L 335.066385 192.745683 
L 336.576406 208.790329 
L 338.086427 189.530207 
L 339.596448 191.832863 
L 341.106469 188.175362 
L 342.61649 189.089394 
L 344.126512 185.120181 
L 345.636533 194.433951 
L 347.146554 197.673576 
L 348.656575 188.131318 
L 350.166596 185.182613 
L 351.676617 210.351262 
L 353.186638 186.534266 
L 354.69666 206.39613 
L 356.206681 211.440455 
L 357.716702 182.392909 
L 359.226723 196.038637 
L 360.736744 193.511563 
L 362.246765 192.81928 
L 363.756786 190.599705 
L 365.266808 185.008534 
L 366.776829 194.760144 
L 368.28685 205.928753 
L 369.796871 199.599748 
L 371.306892 186.14715 
L 372.816913 192.361889 
L 374.326934 183.481685 
L 375.836956 186.412794 
L 377.346977 186.183756 
L 378.856998 187.765787 
L 380.367019 205.961842 
L 381.87704 186.756992 
L 383.387061 187.163872 
L 384.897082 193.838559 
L 386.407104 186.650725 
L 387.917125 201.264845 
L 389.427146 221.985143 
L 390.937167 192.92499 
L 392.447188 205.735497 
L 393.957209 200.178705 
L 395.46723 208.528182 
L 396.977252 203.044299 
L 398.487273 196.979131 
L 398.487273 196.979131 
" clip-path="url(#p0770798951)" style="fill: none; stroke: #f08080; stroke-opacity: 0.8; stroke-width: 0.5; stroke-linecap: square"/>
   </g>
   <g id="patch_3">
    <path d="M 57.6 307.584 
L 57.6 41.472 
" style="fill: none; stroke: #000000; stroke-width: 0.8; stroke-linejoin: miter; stroke-linecap: square"/>
   </g>
   <g id="patch_4">
    <path d="M 414.72 307.584 
L 414.72 41.472 
" style="fill: none; stroke: #000000; stroke-width: 0.8; stroke-linejoin: miter; stroke-linecap: square"/>
   </g>
   <g id="patch_5">
    <path d="M 57.6 307.584 
L 414.72 307.584 
" style="fill: none; stroke: #000000; stroke-width: 0.8; stroke-linejoin: miter; stroke-linecap: square"/>
   </g>
   <g id="patch_6">
    <path d="M 57.6 41.472 
L 414.72 41.472 
" style="fill: none; stroke: #000000; stroke-width: 0.8; stroke-linejoin: miter; stroke-linecap: square"/>
   </g>
   <g id="text_13">
    <!-- 1final_naive_jc_btcusd -->
    <g transform="translate(168.864375 35.472) scale(0.12 -0.12)">
     <defs>
      <path id="DejaVuSans-66" d="M 2375 4863 
L 2375 4384 
L 1825 4384 
Q 1516 4384 1395 4259 
Q 1275 4134 1275 3809 
L 1275 3500 
L 2222 3500 
L 2222 3053 
L 1275 3053 
L 1275 0 
L 697 0 
L 697 3053 
L 147 3053 
L 147 3500 
L 697 3500 
L 697 3744 
Q 697 4328 969 4595 
Q 1241 4863 1831 4863 
L 2375 4863 
z
" transform="scale(0.015625)"/>
      <path id="DejaVuSans-69" d="M 603 3500 
L 1178 3500 
L 1178 0 
L 603 0 
L 603 3500 
z
M 603 4863 
L 1178 4863 
L 1178 4134 
L 603 4134 
L 603 4863 
z
" transform="scale(0.015625)"/>
      <path id="DejaVuSans-6e" d="M 3513 2113 
L 3513 0 
L 2938 0 
L 2938 2094 
Q 2938 2591 2744 2837 
Q 2550 3084 2163 3084 
Q 1697 3084 1428 2787 
Q 1159 2491 1159 1978 
L 1159 0 
L 581 0 
L 581 3500 
L 1159 3500 
L 1159 2956 
Q 1366 3272 1645 3428 
Q 1925 3584 2291 3584 
Q 2894 3584 3203 3211 
Q 3513 2838 3513 2113 
z
" transform="scale(0.015625)"/>
      <path id="DejaVuSans-61" d="M 2194 1759 
Q 1497 1759 1228 1600 
Q 959 1441 959 1056 
Q 959 750 1161 570 
Q 1363 391 1709 391 
Q 2188 391 2477 730 
Q 2766 1069 2766 1631 
L 2766 1759 
L 2194 1759 
z
M 3341 1997 
L 3341 0 
L 2766 0 
L 2766 531 
Q 2569 213 2275 61 
Q 1981 -91 1556 -91 
Q 1019 -91 701 211 
Q 384 513 384 1019 
Q 384 1609 779 1909 
Q 1175 2209 1959 2209 
L 2766 2209 
L 2766 2266 
Q 2766 2663 2505 2880 
Q 2244 3097 1772 3097 
Q 1472 3097 1187 3025 
Q 903 2953 641 2809 
L 641 3341 
Q 956 3463 1253 3523 
Q 1550 3584 1831 3584 
Q 2591 3584 2966 3190 
Q 3341 2797 3341 1997 
z
" transform="scale(0.015625)"/>
      <path id="DejaVuSans-6c" d="M 603 4863 
L 1178 4863 
L 1178 0 
L 603 0 
L 603 4863 
z
" transform="scale(0.015625)"/>
      <path id="DejaVuSans-5f" d="M 3263 -1063 
L 3263 -1509 
L -63 -1509 
L -63 -1063 
L 3263 -1063 
z
" transform="scale(0.015625)"/>
      <path id="DejaVuSans-76" d="M 191 3500 
L 800 3500 
L 1894 563 
L 2988 3500 
L 3597 3500 
L 2284 0 
L 1503 0 
L 191 3500 
z
" transform="scale(0.015625)"/>
      <path id="DejaVuSans-65" d="M 3597 1894 
L 3597 1613 
L 953 1613 
Q 991 1019 1311 708 
Q 1631 397 2203 397 
Q 2534 397 2845 478 
Q 3156 559 3463 722 
L 3463 178 
Q 3153 47 2828 -22 
Q 2503 -91 2169 -91 
Q 1331 -91 842 396 
Q 353 884 353 1716 
Q 353 2575 817 3079 
Q 1281 3584 2069 3584 
Q 2775 3584 3186 3129 
Q 3597 2675 3597 1894 
z
M 3022 2063 
Q 3016 2534 2758 2815 
Q 2500 3097 2075 3097 
Q 1594 3097 1305 2825 
Q 1016 2553 972 2059 
L 3022 2063 
z
" transform="scale(0.015625)"/>
      <path id="DejaVuSans-6a" d="M 603 3500 
L 1178 3500 
L 1178 -63 
Q 1178 -731 923 -1031 
Q 669 -1331 103 -1331 
L -116 -1331 
L -116 -844 
L 38 -844 
Q 366 -844 484 -692 
Q 603 -541 603 -63 
L 603 3500 
z
M 603 4863 
L 1178 4863 
L 1178 4134 
L 603 4134 
L 603 4863 
z
" transform="scale(0.015625)"/>
      <path id="DejaVuSans-63" d="M 3122 3366 
L 3122 2828 
Q 2878 2963 2633 3030 
Q 2388 3097 2138 3097 
Q 1578 3097 1268 2742 
Q 959 2388 959 1747 
Q 959 1106 1268 751 
Q 1578 397 2138 397 
Q 2388 397 2633 464 
Q 2878 531 3122 666 
L 3122 134 
Q 2881 22 2623 -34 
Q 2366 -91 2075 -91 
Q 1284 -91 818 406 
Q 353 903 353 1747 
Q 353 2603 823 3093 
Q 1294 3584 2113 3584 
Q 2378 3584 2631 3529 
Q 2884 3475 3122 3366 
z
" transform="scale(0.015625)"/>
      <path id="DejaVuSans-62" d="M 3116 1747 
Q 3116 2381 2855 2742 
Q 2594 3103 2138 3103 
Q 1681 3103 1420 2742 
Q 1159 2381 1159 1747 
Q 1159 1113 1420 752 
Q 1681 391 2138 391 
Q 2594 391 2855 752 
Q 3116 1113 3116 1747 
z
M 1159 2969 
Q 1341 3281 1617 3432 
Q 1894 3584 2278 3584 
Q 2916 3584 3314 3078 
Q 3713 2572 3713 1747 
Q 3713 922 3314 415 
Q 2916 -91 2278 -91 
Q 1894 -91 1617 61 
Q 1341 213 1159 525 
L 1159 0 
L 581 0 
L 581 4863 
L 1159 4863 
L 1159 2969 
z
" transform="scale(0.015625)"/>
      <path id="DejaVuSans-74" d="M 1172 4494 
L 1172 3500 
L 2356 3500 
L 2356 3053 
L 1172 3053 
L 1172 1153 
Q 1172 725 1289 603 
Q 1406 481 1766 481 
L 2356 481 
L 2356 0 
L 1766 0 
Q 1100 0 847 248 
Q 594 497 594 1153 
L 594 3053 
L 172 3053 
L 172 3500 
L 594 3500 
L 594 4494 
L 1172 4494 
z
" transform="scale(0.015625)"/>
      <path id="DejaVuSans-75" d="M 544 1381 
L 544 3500 
L 1119 3500 
L 1119 1403 
Q 1119 906 1312 657 
Q 1506 409 1894 409 
Q 2359 409 2629 706 
Q 2900 1003 2900 1516 
L 2900 3500 
L 3475 3500 
L 3475 0 
L 2900 0 
L 2900 538 
Q 2691 219 2414 64 
Q 2138 -91 1772 -91 
Q 1169 -91 856 284 
Q 544 659 544 1381 
z
M 1991 3584 
L 1991 3584 
z
" transform="scale(0.015625)"/>
      <path id="DejaVuSans-73" d="M 2834 3397 
L 2834 2853 
Q 2591 2978 2328 3040 
Q 2066 3103 1784 3103 
Q 1356 3103 1142 2972 
Q 928 2841 928 2578 
Q 928 2378 1081 2264 
Q 1234 2150 1697 2047 
L 1894 2003 
Q 2506 1872 2764 1633 
Q 3022 1394 3022 966 
Q 3022 478 2636 193 
Q 2250 -91 1575 -91 
Q 1294 -91 989 -36 
Q 684 19 347 128 
L 347 722 
Q 666 556 975 473 
Q 1284 391 1588 391 
Q 1994 391 2212 530 
Q 2431 669 2431 922 
Q 2431 1156 2273 1281 
Q 2116 1406 1581 1522 
L 1381 1569 
Q 847 1681 609 1914 
Q 372 2147 372 2553 
Q 372 3047 722 3315 
Q 1072 3584 1716 3584 
Q 2034 3584 2315 3537 
Q 2597 3491 2834 3397 
z
" transform="scale(0.015625)"/>
      <path id="DejaVuSans-64" d="M 2906 2969 
L 2906 4863 
L 3481 4863 
L 3481 0 
L 2906 0 
L 2906 525 
Q 2725 213 2448 61 
Q 2172 -91 1784 -91 
Q 1150 -91 751 415 
Q 353 922 353 1747 
Q 353 2572 751 3078 
Q 1150 3584 1784 3584 
Q 2172 3584 2448 3432 
Q 2725 3281 2906 2969 
z
M 947 1747 
Q 947 1113 1208 752 
Q 1469 391 1925 391 
Q 2381 391 2643 752 
Q 2906 1113 2906 1747 
Q 2906 2381 2643 2742 
Q 2381 3103 1925 3103 
Q 1469 3103 1208 2742 
Q 947 2381 947 1747 
z
" transform="scale(0.015625)"/>
     </defs>
     <use xlink:href="#DejaVuSans-31"/>
     <use xlink:href="#DejaVuSans-66" x="63.623047"/>
     <use xlink:href="#DejaVuSans-69" x="98.828125"/>
     <use xlink:href="#DejaVuSans-6e" x="126.611328"/>
     <use xlink:href="#DejaVuSans-61" x="189.990234"/>
     <use xlink:href="#DejaVuSans-6c" x="251.269531"/>
     <use xlink:href="#DejaVuSans-5f" x="279.052734"/>
     <use xlink:href="#DejaVuSans-6e" x="329.052734"/>
     <use xlink:href="#DejaVuSans-61" x="392.431641"/>
     <use xlink:href="#DejaVuSans-69" x="453.710938"/>
     <use xlink:href="#DejaVuSans-76" x="481.494141"/>
     <use xlink:href="#DejaVuSans-65" x="540.673828"/>
     <use xlink:href="#DejaVuSans-5f" x="602.197266"/>
     <use xlink:href="#DejaVuSans-6a" x="652.197266"/>
     <use xlink:href="#DejaVuSans-63" x="679.980469"/>
     <use xlink:href="#DejaVuSans-5f" x="734.960938"/>
     <use xlink:href="#DejaVuSans-62" x="784.960938"/>
     <use xlink:href="#DejaVuSans-74" x="848.4375"/>
     <use xlink:href="#DejaVuSans-63" x="887.646484"/>
     <use xlink:href="#DejaVuSans-75" x="942.626953"/>
     <use xlink:href="#DejaVuSans-73" x="1006.005859"/>
     <use xlink:href="#DejaVuSans-64" x="1058.105469"/>
    </g>
   </g>
   <g id="legend_1">
    <g id="patch_7">
     <path d="M 64.6 302.584 
L 225.001563 302.584 
Q 227.001563 302.584 227.001563 300.584 
L 227.001563 213.51525 
Q 227.001563 211.51525 225.001563 211.51525 
L 64.6 211.51525 
Q 62.6 211.51525 62.6 213.51525 
L 62.6 300.584 
Q 62.6 302.584 64.6 302.584 
z
" style="fill: #ffffff; opacity: 0.8; stroke: #cccccc; stroke-linejoin: miter"/>
    </g>
    <g id="line2d_19">
     <path d="M 66.6 219.613687 
L 76.6 219.613687 
L 86.6 219.613687 
" style="fill: none; stroke: #008000; stroke-opacity: 0.8; stroke-width: 0.5; stroke-linecap: square"/>
    </g>
    <g id="text_14">
     <!-- Positive predictions -->
     <g transform="translate(94.6 223.113687) scale(0.1 -0.1)">
      <defs>
       <path id="DejaVuSans-50" d="M 1259 4147 
L 1259 2394 
L 2053 2394 
Q 2494 2394 2734 2622 
Q 2975 2850 2975 3272 
Q 2975 3691 2734 3919 
Q 2494 4147 2053 4147 
L 1259 4147 
z
M 628 4666 
L 2053 4666 
Q 2838 4666 3239 4311 
Q 3641 3956 3641 3272 
Q 3641 2581 3239 2228 
Q 2838 1875 2053 1875 
L 1259 1875 
L 1259 0 
L 628 0 
L 628 4666 
z
" transform="scale(0.015625)"/>
       <path id="DejaVuSans-6f" d="M 1959 3097 
Q 1497 3097 1228 2736 
Q 959 2375 959 1747 
Q 959 1119 1226 758 
Q 1494 397 1959 397 
Q 2419 397 2687 759 
Q 2956 1122 2956 1747 
Q 2956 2369 2687 2733 
Q 2419 3097 1959 3097 
z
M 1959 3584 
Q 2709 3584 3137 3096 
Q 3566 2609 3566 1747 
Q 3566 888 3137 398 
Q 2709 -91 1959 -91 
Q 1206 -91 779 398 
Q 353 888 353 1747 
Q 353 2609 779 3096 
Q 1206 3584 1959 3584 
z
" transform="scale(0.015625)"/>
       <path id="DejaVuSans-20" transform="scale(0.015625)"/>
       <path id="DejaVuSans-70" d="M 1159 525 
L 1159 -1331 
L 581 -1331 
L 581 3500 
L 1159 3500 
L 1159 2969 
Q 1341 3281 1617 3432 
Q 1894 3584 2278 3584 
Q 2916 3584 3314 3078 
Q 3713 2572 3713 1747 
Q 3713 922 3314 415 
Q 2916 -91 2278 -91 
Q 1894 -91 1617 61 
Q 1341 213 1159 525 
z
M 3116 1747 
Q 3116 2381 2855 2742 
Q 2594 3103 2138 3103 
Q 1681 3103 1420 2742 
Q 1159 2381 1159 1747 
Q 1159 1113 1420 752 
Q 1681 391 2138 391 
Q 2594 391 2855 752 
Q 3116 1113 3116 1747 
z
" transform="scale(0.015625)"/>
       <path id="DejaVuSans-72" d="M 2631 2963 
Q 2534 3019 2420 3045 
Q 2306 3072 2169 3072 
Q 1681 3072 1420 2755 
Q 1159 2438 1159 1844 
L 1159 0 
L 581 0 
L 581 3500 
L 1159 3500 
L 1159 2956 
Q 1341 3275 1631 3429 
Q 1922 3584 2338 3584 
Q 2397 3584 2469 3576 
Q 2541 3569 2628 3553 
L 2631 2963 
z
" transform="scale(0.015625)"/>
      </defs>
      <use xlink:href="#DejaVuSans-50"/>
      <use xlink:href="#DejaVuSans-6f" x="56.677734"/>
      <use xlink:href="#DejaVuSans-73" x="117.859375"/>
      <use xlink:href="#DejaVuSans-69" x="169.958984"/>
      <use xlink:href="#DejaVuSans-74" x="197.742188"/>
      <use xlink:href="#DejaVuSans-69" x="236.951172"/>
      <use xlink:href="#DejaVuSans-76" x="264.734375"/>
      <use xlink:href="#DejaVuSans-65" x="323.914062"/>
      <use xlink:href="#DejaVuSans-20" x="385.4375"/>
      <use xlink:href="#DejaVuSans-70" x="417.224609"/>
      <use xlink:href="#DejaVuSans-72" x="480.701172"/>
      <use xlink:href="#DejaVuSans-65" x="519.564453"/>
      <use xlink:href="#DejaVuSans-64" x="581.087891"/>
      <use xlink:href="#DejaVuSans-69" x="644.564453"/>
      <use xlink:href="#DejaVuSans-63" x="672.347656"/>
      <use xlink:href="#DejaVuSans-74" x="727.328125"/>
      <use xlink:href="#DejaVuSans-69" x="766.537109"/>
      <use xlink:href="#DejaVuSans-6f" x="794.320312"/>
      <use xlink:href="#DejaVuSans-6e" x="855.501953"/>
      <use xlink:href="#DejaVuSans-73" x="918.880859"/>
     </g>
    </g>
    <g id="line2d_20">
     <path d="M 66.6 234.291812 
L 76.6 234.291812 
L 86.6 234.291812 
" style="fill: none; stroke: #32cd32; stroke-opacity: 0.8; stroke-width: 0.5; stroke-linecap: square"/>
    </g>
    <g id="text_15">
     <!-- Positive predictions max -->
     <g transform="translate(94.6 237.791812) scale(0.1 -0.1)">
      <defs>
       <path id="DejaVuSans-6d" d="M 3328 2828 
Q 3544 3216 3844 3400 
Q 4144 3584 4550 3584 
Q 5097 3584 5394 3201 
Q 5691 2819 5691 2113 
L 5691 0 
L 5113 0 
L 5113 2094 
Q 5113 2597 4934 2840 
Q 4756 3084 4391 3084 
Q 3944 3084 3684 2787 
Q 3425 2491 3425 1978 
L 3425 0 
L 2847 0 
L 2847 2094 
Q 2847 2600 2669 2842 
Q 2491 3084 2119 3084 
Q 1678 3084 1418 2786 
Q 1159 2488 1159 1978 
L 1159 0 
L 581 0 
L 581 3500 
L 1159 3500 
L 1159 2956 
Q 1356 3278 1631 3431 
Q 1906 3584 2284 3584 
Q 2666 3584 2933 3390 
Q 3200 3197 3328 2828 
z
" transform="scale(0.015625)"/>
       <path id="DejaVuSans-78" d="M 3513 3500 
L 2247 1797 
L 3578 0 
L 2900 0 
L 1881 1375 
L 863 0 
L 184 0 
L 1544 1831 
L 300 3500 
L 978 3500 
L 1906 2253 
L 2834 3500 
L 3513 3500 
z
" transform="scale(0.015625)"/>
      </defs>
      <use xlink:href="#DejaVuSans-50"/>
      <use xlink:href="#DejaVuSans-6f" x="56.677734"/>
      <use xlink:href="#DejaVuSans-73" x="117.859375"/>
      <use xlink:href="#DejaVuSans-69" x="169.958984"/>
      <use xlink:href="#DejaVuSans-74" x="197.742188"/>
      <use xlink:href="#DejaVuSans-69" x="236.951172"/>
      <use xlink:href="#DejaVuSans-76" x="264.734375"/>
      <use xlink:href="#DejaVuSans-65" x="323.914062"/>
      <use xlink:href="#DejaVuSans-20" x="385.4375"/>
      <use xlink:href="#DejaVuSans-70" x="417.224609"/>
      <use xlink:href="#DejaVuSans-72" x="480.701172"/>
      <use xlink:href="#DejaVuSans-65" x="519.564453"/>
      <use xlink:href="#DejaVuSans-64" x="581.087891"/>
      <use xlink:href="#DejaVuSans-69" x="644.564453"/>
      <use xlink:href="#DejaVuSans-63" x="672.347656"/>
      <use xlink:href="#DejaVuSans-74" x="727.328125"/>
      <use xlink:href="#DejaVuSans-69" x="766.537109"/>
      <use xlink:href="#DejaVuSans-6f" x="794.320312"/>
      <use xlink:href="#DejaVuSans-6e" x="855.501953"/>
      <use xlink:href="#DejaVuSans-73" x="918.880859"/>
      <use xlink:href="#DejaVuSans-20" x="970.980469"/>
      <use xlink:href="#DejaVuSans-6d" x="1002.767578"/>
      <use xlink:href="#DejaVuSans-61" x="1100.179688"/>
      <use xlink:href="#DejaVuSans-78" x="1161.458984"/>
     </g>
    </g>
    <g id="line2d_21">
     <path d="M 66.6 248.969937 
L 76.6 248.969937 
L 86.6 248.969937 
" style="fill: none; stroke: #32cd32; stroke-opacity: 0.8; stroke-width: 0.5; stroke-linecap: square"/>
    </g>
    <g id="text_16">
     <!-- Positive predictions min -->
     <g transform="translate(94.6 252.469937) scale(0.1 -0.1)">
      <use xlink:href="#DejaVuSans-50"/>
      <use xlink:href="#DejaVuSans-6f" x="56.677734"/>
      <use xlink:href="#DejaVuSans-73" x="117.859375"/>
      <use xlink:href="#DejaVuSans-69" x="169.958984"/>
      <use xlink:href="#DejaVuSans-74" x="197.742188"/>
      <use xlink:href="#DejaVuSans-69" x="236.951172"/>
      <use xlink:href="#DejaVuSans-76" x="264.734375"/>
      <use xlink:href="#DejaVuSans-65" x="323.914062"/>
      <use xlink:href="#DejaVuSans-20" x="385.4375"/>
      <use xlink:href="#DejaVuSans-70" x="417.224609"/>
      <use xlink:href="#DejaVuSans-72" x="480.701172"/>
      <use xlink:href="#DejaVuSans-65" x="519.564453"/>
      <use xlink:href="#DejaVuSans-64" x="581.087891"/>
      <use xlink:href="#DejaVuSans-69" x="644.564453"/>
      <use xlink:href="#DejaVuSans-63" x="672.347656"/>
      <use xlink:href="#DejaVuSans-74" x="727.328125"/>
      <use xlink:href="#DejaVuSans-69" x="766.537109"/>
      <use xlink:href="#DejaVuSans-6f" x="794.320312"/>
      <use xlink:href="#DejaVuSans-6e" x="855.501953"/>
      <use xlink:href="#DejaVuSans-73" x="918.880859"/>
      <use xlink:href="#DejaVuSans-20" x="970.980469"/>
      <use xlink:href="#DejaVuSans-6d" x="1002.767578"/>
      <use xlink:href="#DejaVuSans-69" x="1100.179688"/>
      <use xlink:href="#DejaVuSans-6e" x="1127.962891"/>
     </g>
    </g>
    <g id="line2d_22">
     <path d="M 66.6 263.648062 
L 76.6 263.648062 
L 86.6 263.648062 
" style="fill: none; stroke: #ff0000; stroke-opacity: 0.8; stroke-width: 0.5; stroke-linecap: square"/>
    </g>
    <g id="text_17">
     <!-- Negative predictions -->
     <g transform="translate(94.6 267.148062) scale(0.1 -0.1)">
      <defs>
       <path id="DejaVuSans-4e" d="M 628 4666 
L 1478 4666 
L 3547 763 
L 3547 4666 
L 4159 4666 
L 4159 0 
L 3309 0 
L 1241 3903 
L 1241 0 
L 628 0 
L 628 4666 
z
" transform="scale(0.015625)"/>
       <path id="DejaVuSans-67" d="M 2906 1791 
Q 2906 2416 2648 2759 
Q 2391 3103 1925 3103 
Q 1463 3103 1205 2759 
Q 947 2416 947 1791 
Q 947 1169 1205 825 
Q 1463 481 1925 481 
Q 2391 481 2648 825 
Q 2906 1169 2906 1791 
z
M 3481 434 
Q 3481 -459 3084 -895 
Q 2688 -1331 1869 -1331 
Q 1566 -1331 1297 -1286 
Q 1028 -1241 775 -1147 
L 775 -588 
Q 1028 -725 1275 -790 
Q 1522 -856 1778 -856 
Q 2344 -856 2625 -561 
Q 2906 -266 2906 331 
L 2906 616 
Q 2728 306 2450 153 
Q 2172 0 1784 0 
Q 1141 0 747 490 
Q 353 981 353 1791 
Q 353 2603 747 3093 
Q 1141 3584 1784 3584 
Q 2172 3584 2450 3431 
Q 2728 3278 2906 2969 
L 2906 3500 
L 3481 3500 
L 3481 434 
z
" transform="scale(0.015625)"/>
      </defs>
      <use xlink:href="#DejaVuSans-4e"/>
      <use xlink:href="#DejaVuSans-65" x="74.804688"/>
      <use xlink:href="#DejaVuSans-67" x="136.328125"/>
      <use xlink:href="#DejaVuSans-61" x="199.804688"/>
      <use xlink:href="#DejaVuSans-74" x="261.083984"/>
      <use xlink:href="#DejaVuSans-69" x="300.292969"/>
      <use xlink:href="#DejaVuSans-76" x="328.076172"/>
      <use xlink:href="#DejaVuSans-65" x="387.255859"/>
      <use xlink:href="#DejaVuSans-20" x="448.779297"/>
      <use xlink:href="#DejaVuSans-70" x="480.566406"/>
      <use xlink:href="#DejaVuSans-72" x="544.042969"/>
      <use xlink:href="#DejaVuSans-65" x="582.90625"/>
      <use xlink:href="#DejaVuSans-64" x="644.429688"/>
      <use xlink:href="#DejaVuSans-69" x="707.90625"/>
      <use xlink:href="#DejaVuSans-63" x="735.689453"/>
      <use xlink:href="#DejaVuSans-74" x="790.669922"/>
      <use xlink:href="#DejaVuSans-69" x="829.878906"/>
      <use xlink:href="#DejaVuSans-6f" x="857.662109"/>
      <use xlink:href="#DejaVuSans-6e" x="918.84375"/>
      <use xlink:href="#DejaVuSans-73" x="982.222656"/>
     </g>
    </g>
    <g id="line2d_23">
     <path d="M 66.6 278.326188 
L 76.6 278.326188 
L 86.6 278.326188 
" style="fill: none; stroke: #f08080; stroke-opacity: 0.8; stroke-width: 0.5; stroke-linecap: square"/>
    </g>
    <g id="text_18">
     <!-- Negative predictions max -->
     <g transform="translate(94.6 281.826188) scale(0.1 -0.1)">
      <use xlink:href="#DejaVuSans-4e"/>
      <use xlink:href="#DejaVuSans-65" x="74.804688"/>
      <use xlink:href="#DejaVuSans-67" x="136.328125"/>
      <use xlink:href="#DejaVuSans-61" x="199.804688"/>
      <use xlink:href="#DejaVuSans-74" x="261.083984"/>
      <use xlink:href="#DejaVuSans-69" x="300.292969"/>
      <use xlink:href="#DejaVuSans-76" x="328.076172"/>
      <use xlink:href="#DejaVuSans-65" x="387.255859"/>
      <use xlink:href="#DejaVuSans-20" x="448.779297"/>
      <use xlink:href="#DejaVuSans-70" x="480.566406"/>
      <use xlink:href="#DejaVuSans-72" x="544.042969"/>
      <use xlink:href="#DejaVuSans-65" x="582.90625"/>
      <use xlink:href="#DejaVuSans-64" x="644.429688"/>
      <use xlink:href="#DejaVuSans-69" x="707.90625"/>
      <use xlink:href="#DejaVuSans-63" x="735.689453"/>
      <use xlink:href="#DejaVuSans-74" x="790.669922"/>
      <use xlink:href="#DejaVuSans-69" x="829.878906"/>
      <use xlink:href="#DejaVuSans-6f" x="857.662109"/>
      <use xlink:href="#DejaVuSans-6e" x="918.84375"/>
      <use xlink:href="#DejaVuSans-73" x="982.222656"/>
      <use xlink:href="#DejaVuSans-20" x="1034.322266"/>
      <use xlink:href="#DejaVuSans-6d" x="1066.109375"/>
      <use xlink:href="#DejaVuSans-61" x="1163.521484"/>
      <use xlink:href="#DejaVuSans-78" x="1224.800781"/>
     </g>
    </g>
    <g id="line2d_24">
     <path d="M 66.6 293.004312 
L 76.6 293.004312 
L 86.6 293.004312 
" style="fill: none; stroke: #f08080; stroke-opacity: 0.8; stroke-width: 0.5; stroke-linecap: square"/>
    </g>
    <g id="text_19">
     <!-- Negative predictions min -->
     <g transform="translate(94.6 296.504312) scale(0.1 -0.1)">
      <use xlink:href="#DejaVuSans-4e"/>
      <use xlink:href="#DejaVuSans-65" x="74.804688"/>
      <use xlink:href="#DejaVuSans-67" x="136.328125"/>
      <use xlink:href="#DejaVuSans-61" x="199.804688"/>
      <use xlink:href="#DejaVuSans-74" x="261.083984"/>
      <use xlink:href="#DejaVuSans-69" x="300.292969"/>
      <use xlink:href="#DejaVuSans-76" x="328.076172"/>
      <use xlink:href="#DejaVuSans-65" x="387.255859"/>
      <use xlink:href="#DejaVuSans-20" x="448.779297"/>
      <use xlink:href="#DejaVuSans-70" x="480.566406"/>
      <use xlink:href="#DejaVuSans-72" x="544.042969"/>
      <use xlink:href="#DejaVuSans-65" x="582.90625"/>
      <use xlink:href="#DejaVuSans-64" x="644.429688"/>
      <use xlink:href="#DejaVuSans-69" x="707.90625"/>
      <use xlink:href="#DejaVuSans-63" x="735.689453"/>
      <use xlink:href="#DejaVuSans-74" x="790.669922"/>
      <use xlink:href="#DejaVuSans-69" x="829.878906"/>
      <use xlink:href="#DejaVuSans-6f" x="857.662109"/>
      <use xlink:href="#DejaVuSans-6e" x="918.84375"/>
      <use xlink:href="#DejaVuSans-73" x="982.222656"/>
      <use xlink:href="#DejaVuSans-20" x="1034.322266"/>
      <use xlink:href="#DejaVuSans-6d" x="1066.109375"/>
      <use xlink:href="#DejaVuSans-69" x="1163.521484"/>
      <use xlink:href="#DejaVuSans-6e" x="1191.304688"/>
     </g>
    </g>
   </g>
  </g>
 </g>
 <defs>
  <clipPath id="p0770798951">
   <rect x="57.6" y="41.472" width="357.12" height="266.112"/>
  </clipPath>
 </defs>
</svg>
