<?xml version="1.0" encoding="utf-8" standalone="no"?>
<!DOCTYPE svg PUBLIC "-//W3C//DTD SVG 1.1//EN"
  "http://www.w3.org/Graphics/SVG/1.1/DTD/svg11.dtd">
<svg xmlns:xlink="http://www.w3.org/1999/xlink" width="460.8pt" height="345.6pt" viewBox="0 0 460.8 345.6" xmlns="http://www.w3.org/2000/svg" version="1.1">
 <metadata>
  <rdf:RDF xmlns:dc="http://purl.org/dc/elements/1.1/" xmlns:cc="http://creativecommons.org/ns#" xmlns:rdf="http://www.w3.org/1999/02/22-rdf-syntax-ns#">
   <cc:Work>
    <dc:type rdf:resource="http://purl.org/dc/dcmitype/StillImage"/>
    <dc:date>2024-09-08T13:32:43.664306</dc:date>
    <dc:format>image/svg+xml</dc:format>
    <dc:creator>
     <cc:Agent>
      <dc:title>Matplotlib v3.8.3, https://matplotlib.org/</dc:title>
     </cc:Agent>
    </dc:creator>
   </cc:Work>
  </rdf:RDF>
 </metadata>
 <defs>
  <style type="text/css">*{stroke-linejoin: round; stroke-linecap: butt}</style>
 </defs>
 <g id="figure_1">
  <g id="patch_1">
   <path d="M 0 345.6 
L 460.8 345.6 
L 460.8 0 
L 0 0 
z
" style="fill: #ffffff"/>
  </g>
  <g id="axes_1">
   <g id="patch_2">
    <path d="M 57.6 307.584 
L 414.72 307.584 
L 414.72 41.472 
L 57.6 41.472 
z
" style="fill: #ffffff"/>
   </g>
   <g id="matplotlib.axis_1">
    <g id="xtick_1">
     <g id="line2d_1">
      <defs>
       <path id="m226d63961d" d="M 0 0 
L 0 3.5 
" style="stroke: #000000; stroke-width: 0.8"/>
      </defs>
      <g>
       <use xlink:href="#m226d63961d" x="73.832727" y="307.584" style="stroke: #000000; stroke-width: 0.8"/>
      </g>
     </g>
     <g id="text_1">
      <!-- 0 -->
      <g transform="translate(70.651477 322.182437) scale(0.1 -0.1)">
       <defs>
        <path id="DejaVuSans-30" d="M 2034 4250 
Q 1547 4250 1301 3770 
Q 1056 3291 1056 2328 
Q 1056 1369 1301 889 
Q 1547 409 2034 409 
Q 2525 409 2770 889 
Q 3016 1369 3016 2328 
Q 3016 3291 2770 3770 
Q 2525 4250 2034 4250 
z
M 2034 4750 
Q 2819 4750 3233 4129 
Q 3647 3509 3647 2328 
Q 3647 1150 3233 529 
Q 2819 -91 2034 -91 
Q 1250 -91 836 529 
Q 422 1150 422 2328 
Q 422 3509 836 4129 
Q 1250 4750 2034 4750 
z
" transform="scale(0.015625)"/>
       </defs>
       <use xlink:href="#DejaVuSans-30"/>
      </g>
     </g>
    </g>
    <g id="xtick_2">
     <g id="line2d_2">
      <g>
       <use xlink:href="#m226d63961d" x="118.003414" y="307.584" style="stroke: #000000; stroke-width: 0.8"/>
      </g>
     </g>
     <g id="text_2">
      <!-- 20 -->
      <g transform="translate(111.640914 322.182437) scale(0.1 -0.1)">
       <defs>
        <path id="DejaVuSans-32" d="M 1228 531 
L 3431 531 
L 3431 0 
L 469 0 
L 469 531 
Q 828 903 1448 1529 
Q 2069 2156 2228 2338 
Q 2531 2678 2651 2914 
Q 2772 3150 2772 3378 
Q 2772 3750 2511 3984 
Q 2250 4219 1831 4219 
Q 1534 4219 1204 4116 
Q 875 4013 500 3803 
L 500 4441 
Q 881 4594 1212 4672 
Q 1544 4750 1819 4750 
Q 2544 4750 2975 4387 
Q 3406 4025 3406 3419 
Q 3406 3131 3298 2873 
Q 3191 2616 2906 2266 
Q 2828 2175 2409 1742 
Q 1991 1309 1228 531 
z
" transform="scale(0.015625)"/>
       </defs>
       <use xlink:href="#DejaVuSans-32"/>
       <use xlink:href="#DejaVuSans-30" x="63.623047"/>
      </g>
     </g>
    </g>
    <g id="xtick_3">
     <g id="line2d_3">
      <g>
       <use xlink:href="#m226d63961d" x="162.1741" y="307.584" style="stroke: #000000; stroke-width: 0.8"/>
      </g>
     </g>
     <g id="text_3">
      <!-- 40 -->
      <g transform="translate(155.8116 322.182437) scale(0.1 -0.1)">
       <defs>
        <path id="DejaVuSans-34" d="M 2419 4116 
L 825 1625 
L 2419 1625 
L 2419 4116 
z
M 2253 4666 
L 3047 4666 
L 3047 1625 
L 3713 1625 
L 3713 1100 
L 3047 1100 
L 3047 0 
L 2419 0 
L 2419 1100 
L 313 1100 
L 313 1709 
L 2253 4666 
z
" transform="scale(0.015625)"/>
       </defs>
       <use xlink:href="#DejaVuSans-34"/>
       <use xlink:href="#DejaVuSans-30" x="63.623047"/>
      </g>
     </g>
    </g>
    <g id="xtick_4">
     <g id="line2d_4">
      <g>
       <use xlink:href="#m226d63961d" x="206.344787" y="307.584" style="stroke: #000000; stroke-width: 0.8"/>
      </g>
     </g>
     <g id="text_4">
      <!-- 60 -->
      <g transform="translate(199.982287 322.182437) scale(0.1 -0.1)">
       <defs>
        <path id="DejaVuSans-36" d="M 2113 2584 
Q 1688 2584 1439 2293 
Q 1191 2003 1191 1497 
Q 1191 994 1439 701 
Q 1688 409 2113 409 
Q 2538 409 2786 701 
Q 3034 994 3034 1497 
Q 3034 2003 2786 2293 
Q 2538 2584 2113 2584 
z
M 3366 4563 
L 3366 3988 
Q 3128 4100 2886 4159 
Q 2644 4219 2406 4219 
Q 1781 4219 1451 3797 
Q 1122 3375 1075 2522 
Q 1259 2794 1537 2939 
Q 1816 3084 2150 3084 
Q 2853 3084 3261 2657 
Q 3669 2231 3669 1497 
Q 3669 778 3244 343 
Q 2819 -91 2113 -91 
Q 1303 -91 875 529 
Q 447 1150 447 2328 
Q 447 3434 972 4092 
Q 1497 4750 2381 4750 
Q 2619 4750 2861 4703 
Q 3103 4656 3366 4563 
z
" transform="scale(0.015625)"/>
       </defs>
       <use xlink:href="#DejaVuSans-36"/>
       <use xlink:href="#DejaVuSans-30" x="63.623047"/>
      </g>
     </g>
    </g>
    <g id="xtick_5">
     <g id="line2d_5">
      <g>
       <use xlink:href="#m226d63961d" x="250.515473" y="307.584" style="stroke: #000000; stroke-width: 0.8"/>
      </g>
     </g>
     <g id="text_5">
      <!-- 80 -->
      <g transform="translate(244.152973 322.182437) scale(0.1 -0.1)">
       <defs>
        <path id="DejaVuSans-38" d="M 2034 2216 
Q 1584 2216 1326 1975 
Q 1069 1734 1069 1313 
Q 1069 891 1326 650 
Q 1584 409 2034 409 
Q 2484 409 2743 651 
Q 3003 894 3003 1313 
Q 3003 1734 2745 1975 
Q 2488 2216 2034 2216 
z
M 1403 2484 
Q 997 2584 770 2862 
Q 544 3141 544 3541 
Q 544 4100 942 4425 
Q 1341 4750 2034 4750 
Q 2731 4750 3128 4425 
Q 3525 4100 3525 3541 
Q 3525 3141 3298 2862 
Q 3072 2584 2669 2484 
Q 3125 2378 3379 2068 
Q 3634 1759 3634 1313 
Q 3634 634 3220 271 
Q 2806 -91 2034 -91 
Q 1263 -91 848 271 
Q 434 634 434 1313 
Q 434 1759 690 2068 
Q 947 2378 1403 2484 
z
M 1172 3481 
Q 1172 3119 1398 2916 
Q 1625 2713 2034 2713 
Q 2441 2713 2670 2916 
Q 2900 3119 2900 3481 
Q 2900 3844 2670 4047 
Q 2441 4250 2034 4250 
Q 1625 4250 1398 4047 
Q 1172 3844 1172 3481 
z
" transform="scale(0.015625)"/>
       </defs>
       <use xlink:href="#DejaVuSans-38"/>
       <use xlink:href="#DejaVuSans-30" x="63.623047"/>
      </g>
     </g>
    </g>
    <g id="xtick_6">
     <g id="line2d_6">
      <g>
       <use xlink:href="#m226d63961d" x="294.68616" y="307.584" style="stroke: #000000; stroke-width: 0.8"/>
      </g>
     </g>
     <g id="text_6">
      <!-- 100 -->
      <g transform="translate(285.14241 322.182437) scale(0.1 -0.1)">
       <defs>
        <path id="DejaVuSans-31" d="M 794 531 
L 1825 531 
L 1825 4091 
L 703 3866 
L 703 4441 
L 1819 4666 
L 2450 4666 
L 2450 531 
L 3481 531 
L 3481 0 
L 794 0 
L 794 531 
z
" transform="scale(0.015625)"/>
       </defs>
       <use xlink:href="#DejaVuSans-31"/>
       <use xlink:href="#DejaVuSans-30" x="63.623047"/>
       <use xlink:href="#DejaVuSans-30" x="127.246094"/>
      </g>
     </g>
    </g>
    <g id="xtick_7">
     <g id="line2d_7">
      <g>
       <use xlink:href="#m226d63961d" x="338.856846" y="307.584" style="stroke: #000000; stroke-width: 0.8"/>
      </g>
     </g>
     <g id="text_7">
      <!-- 120 -->
      <g transform="translate(329.313096 322.182437) scale(0.1 -0.1)">
       <use xlink:href="#DejaVuSans-31"/>
       <use xlink:href="#DejaVuSans-32" x="63.623047"/>
       <use xlink:href="#DejaVuSans-30" x="127.246094"/>
      </g>
     </g>
    </g>
    <g id="xtick_8">
     <g id="line2d_8">
      <g>
       <use xlink:href="#m226d63961d" x="383.027532" y="307.584" style="stroke: #000000; stroke-width: 0.8"/>
      </g>
     </g>
     <g id="text_8">
      <!-- 140 -->
      <g transform="translate(373.483782 322.182437) scale(0.1 -0.1)">
       <use xlink:href="#DejaVuSans-31"/>
       <use xlink:href="#DejaVuSans-34" x="63.623047"/>
       <use xlink:href="#DejaVuSans-30" x="127.246094"/>
      </g>
     </g>
    </g>
   </g>
   <g id="matplotlib.axis_2">
    <g id="ytick_1">
     <g id="line2d_9">
      <defs>
       <path id="m4b4c10ce3d" d="M 0 0 
L -3.5 0 
" style="stroke: #000000; stroke-width: 0.8"/>
      </defs>
      <g>
       <use xlink:href="#m4b4c10ce3d" x="57.6" y="274.28532" style="stroke: #000000; stroke-width: 0.8"/>
      </g>
     </g>
     <g id="text_9">
      <!-- −200 -->
      <g transform="translate(23.132812 278.084539) scale(0.1 -0.1)">
       <defs>
        <path id="DejaVuSans-2212" d="M 678 2272 
L 4684 2272 
L 4684 1741 
L 678 1741 
L 678 2272 
z
" transform="scale(0.015625)"/>
       </defs>
       <use xlink:href="#DejaVuSans-2212"/>
       <use xlink:href="#DejaVuSans-32" x="83.789062"/>
       <use xlink:href="#DejaVuSans-30" x="147.412109"/>
       <use xlink:href="#DejaVuSans-30" x="211.035156"/>
      </g>
     </g>
    </g>
    <g id="ytick_2">
     <g id="line2d_10">
      <g>
       <use xlink:href="#m4b4c10ce3d" x="57.6" y="231.721123" style="stroke: #000000; stroke-width: 0.8"/>
      </g>
     </g>
     <g id="text_10">
      <!-- −100 -->
      <g transform="translate(23.132812 235.520341) scale(0.1 -0.1)">
       <use xlink:href="#DejaVuSans-2212"/>
       <use xlink:href="#DejaVuSans-31" x="83.789062"/>
       <use xlink:href="#DejaVuSans-30" x="147.412109"/>
       <use xlink:href="#DejaVuSans-30" x="211.035156"/>
      </g>
     </g>
    </g>
    <g id="ytick_3">
     <g id="line2d_11">
      <g>
       <use xlink:href="#m4b4c10ce3d" x="57.6" y="189.156925" style="stroke: #000000; stroke-width: 0.8"/>
      </g>
     </g>
     <g id="text_11">
      <!-- 0 -->
      <g transform="translate(44.2375 192.956144) scale(0.1 -0.1)">
       <use xlink:href="#DejaVuSans-30"/>
      </g>
     </g>
    </g>
    <g id="ytick_4">
     <g id="line2d_12">
      <g>
       <use xlink:href="#m4b4c10ce3d" x="57.6" y="146.592727" style="stroke: #000000; stroke-width: 0.8"/>
      </g>
     </g>
     <g id="text_12">
      <!-- 100 -->
      <g transform="translate(31.5125 150.391946) scale(0.1 -0.1)">
       <use xlink:href="#DejaVuSans-31"/>
       <use xlink:href="#DejaVuSans-30" x="63.623047"/>
       <use xlink:href="#DejaVuSans-30" x="127.246094"/>
      </g>
     </g>
    </g>
    <g id="ytick_5">
     <g id="line2d_13">
      <g>
       <use xlink:href="#m4b4c10ce3d" x="57.6" y="104.028529" style="stroke: #000000; stroke-width: 0.8"/>
      </g>
     </g>
     <g id="text_13">
      <!-- 200 -->
      <g transform="translate(31.5125 107.827748) scale(0.1 -0.1)">
       <use xlink:href="#DejaVuSans-32"/>
       <use xlink:href="#DejaVuSans-30" x="63.623047"/>
       <use xlink:href="#DejaVuSans-30" x="127.246094"/>
      </g>
     </g>
    </g>
    <g id="ytick_6">
     <g id="line2d_14">
      <g>
       <use xlink:href="#m4b4c10ce3d" x="57.6" y="61.464332" style="stroke: #000000; stroke-width: 0.8"/>
      </g>
     </g>
     <g id="text_14">
      <!-- 300 -->
      <g transform="translate(31.5125 65.263551) scale(0.1 -0.1)">
       <defs>
        <path id="DejaVuSans-33" d="M 2597 2516 
Q 3050 2419 3304 2112 
Q 3559 1806 3559 1356 
Q 3559 666 3084 287 
Q 2609 -91 1734 -91 
Q 1441 -91 1130 -33 
Q 819 25 488 141 
L 488 750 
Q 750 597 1062 519 
Q 1375 441 1716 441 
Q 2309 441 2620 675 
Q 2931 909 2931 1356 
Q 2931 1769 2642 2001 
Q 2353 2234 1838 2234 
L 1294 2234 
L 1294 2753 
L 1863 2753 
Q 2328 2753 2575 2939 
Q 2822 3125 2822 3475 
Q 2822 3834 2567 4026 
Q 2313 4219 1838 4219 
Q 1578 4219 1281 4162 
Q 984 4106 628 3988 
L 628 4550 
Q 988 4650 1302 4700 
Q 1616 4750 1894 4750 
Q 2613 4750 3031 4423 
Q 3450 4097 3450 3541 
Q 3450 3153 3228 2886 
Q 3006 2619 2597 2516 
z
" transform="scale(0.015625)"/>
       </defs>
       <use xlink:href="#DejaVuSans-33"/>
       <use xlink:href="#DejaVuSans-30" x="63.623047"/>
       <use xlink:href="#DejaVuSans-30" x="127.246094"/>
      </g>
     </g>
    </g>
   </g>
   <g id="line2d_15">
    <path d="M 73.832727 190.9341 
L 76.041262 190.394662 
L 78.249796 183.724674 
L 80.45833 192.499563 
L 82.666865 189.314426 
L 84.875399 191.723957 
L 87.083933 188.517006 
L 89.292468 190.643446 
L 91.501002 187.157445 
L 93.709536 190.450647 
L 95.918071 189.337631 
L 98.126605 190.310002 
L 100.335139 188.620328 
L 102.543673 189.892438 
L 104.752208 188.672631 
L 106.960742 189.180697 
L 109.169276 184.553992 
L 111.377811 184.400548 
L 113.586345 191.03542 
L 115.794879 190.779582 
L 118.003414 185.537363 
L 120.211948 184.06523 
L 122.420482 194.004025 
L 124.629017 191.74138 
L 126.837551 193.75859 
L 129.046085 190.788152 
L 131.25462 189.711009 
L 133.463154 188.409631 
L 135.671688 191.877925 
L 137.880223 190.06405 
L 140.088757 185.947491 
L 142.297291 186.752537 
L 144.505826 191.479303 
L 146.71436 192.056967 
L 148.922894 189.544715 
L 151.131429 188.762181 
L 153.339963 182.899549 
L 155.548497 191.892087 
L 157.757032 188.115187 
L 159.965566 192.735086 
L 162.1741 185.880536 
L 164.382635 191.270072 
L 166.591169 190.486316 
L 168.799703 190.795975 
L 171.008237 190.473521 
L 173.216772 188.498596 
L 175.425306 192.431609 
L 177.63384 189.229687 
L 179.842375 187.014109 
L 182.050909 192.81581 
L 184.259443 178.583107 
L 186.467978 179.681162 
L 188.676512 171.973441 
L 190.885046 200.109692 
L 195.302115 191.398527 
L 197.510649 194.443473 
L 199.719184 194.705638 
L 201.927718 188.501702 
L 204.136252 189.147073 
L 206.344787 192.581488 
L 208.553321 190.379211 
L 210.761855 192.429102 
L 212.97039 193.644143 
L 215.178924 183.193415 
L 217.387458 186.996772 
L 219.595993 196.381084 
L 221.804527 182.571514 
L 224.013061 194.818265 
L 226.221596 189.253015 
L 228.43013 193.275018 
L 230.638664 187.515055 
L 232.847199 192.859469 
L 235.055733 189.302962 
L 237.264267 189.617667 
L 239.472801 187.509134 
L 241.681336 185.201539 
L 243.88987 193.132309 
L 246.098404 193.21474 
L 248.306939 190.05573 
L 250.515473 188.638069 
L 252.724007 186.203747 
L 254.932542 191.175861 
L 257.141076 188.4504 
L 259.34961 190.949286 
L 261.558145 190.422665 
L 263.766679 190.312459 
L 265.975213 189.342995 
L 268.183748 187.698464 
L 270.392282 187.047838 
L 272.600816 187.801746 
L 274.809351 185.2288 
L 277.017885 194.517585 
L 279.226419 194.169349 
L 281.434954 187.607261 
L 283.643488 183.123266 
L 285.852022 186.200186 
L 288.060557 197.473067 
L 290.269091 176.702845 
L 292.477625 191.458162 
L 294.68616 183.111887 
L 296.894694 183.929031 
L 299.103228 190.991311 
L 301.311763 193.137816 
L 303.520297 182.832498 
L 305.728831 177.828808 
L 307.937365 184.601372 
L 310.1459 194.689699 
L 312.354434 171.459568 
L 314.562968 192.054185 
L 316.771503 188.462499 
L 318.980037 198.906937 
L 321.188571 196.597826 
L 323.397106 185.966572 
L 325.60564 183.606971 
L 327.814174 178.686445 
L 330.022709 189.534535 
L 332.231243 186.723072 
L 334.439777 191.64592 
L 336.648312 198.501878 
L 338.856846 194.238513 
L 341.06538 179.925542 
L 343.273915 188.55372 
L 345.482449 193.550978 
L 347.690983 196.874665 
L 352.108052 181.914582 
L 354.316586 188.496555 
L 356.525121 192.606376 
L 358.733655 192.349258 
L 360.942189 190.02592 
L 363.150724 187.004475 
L 365.359258 192.220918 
L 367.567792 194.401942 
L 369.776327 190.326465 
L 371.984861 192.48047 
L 374.193395 192.417792 
L 376.401929 184.408716 
L 378.610464 187.555713 
L 380.818998 189.020792 
L 383.027532 183.452244 
L 385.236067 186.089181 
L 387.444601 189.717018 
L 389.653135 191.523246 
L 391.86167 196.842658 
L 394.070204 192.194548 
L 396.278738 193.728356 
L 398.487273 190.403572 
L 398.487273 190.403572 
" clip-path="url(#p4c3710990e)" style="fill: none; stroke: #008000; stroke-opacity: 0.8; stroke-width: 0.5; stroke-linecap: square"/>
   </g>
   <g id="line2d_16">
    <path d="M 73.832727 171.396639 
L 76.041262 175.570241 
L 78.249796 160.099043 
L 80.45833 164.721935 
L 82.666865 174.999682 
L 84.875399 178.881774 
L 87.083933 180.753939 
L 89.292468 174.781981 
L 91.501002 181.3185 
L 93.709536 172.844444 
L 95.918071 179.611215 
L 98.126605 180.013687 
L 100.335139 178.383139 
L 102.543673 182.569151 
L 104.752208 180.999416 
L 106.960742 183.831695 
L 109.169276 148.684854 
L 111.377811 153.612704 
L 113.586345 165.553285 
L 115.794879 168.897735 
L 118.003414 149.729498 
L 120.211948 163.575946 
L 122.420482 163.795237 
L 124.629017 172.55263 
L 126.837551 178.418796 
L 129.046085 184.719372 
L 131.25462 179.83221 
L 133.463154 165.760273 
L 135.671688 180.330716 
L 137.880223 185.513255 
L 140.088757 167.950118 
L 142.297291 159.754795 
L 144.505826 174.104205 
L 146.71436 186.264536 
L 148.922894 176.283903 
L 151.131429 180.195235 
L 153.339963 153.618073 
L 155.548497 152.28762 
L 157.757032 156.631778 
L 159.965566 184.831258 
L 162.1741 173.454778 
L 164.382635 166.353034 
L 166.591169 183.730308 
L 168.799703 184.736069 
L 171.008237 183.529999 
L 173.216772 176.895505 
L 175.425306 187.840744 
L 177.63384 178.53152 
L 179.842375 166.010898 
L 182.050909 163.184894 
L 184.259443 140.807986 
L 186.467978 95.187273 
L 188.676512 56.139756 
L 190.885046 141.400433 
L 193.093581 153.362623 
L 195.302115 154.919363 
L 197.510649 163.397665 
L 199.719184 179.167872 
L 201.927718 109.372647 
L 204.136252 153.623614 
L 206.344787 174.10737 
L 208.553321 170.914311 
L 210.761855 175.899922 
L 212.97039 181.370511 
L 215.178924 134.804562 
L 217.387458 155.246545 
L 219.595993 168.210077 
L 221.804527 160.952464 
L 224.013061 137.959543 
L 226.221596 170.355526 
L 228.43013 180.490653 
L 230.638664 175.735915 
L 232.847199 164.311289 
L 235.055733 176.156441 
L 237.264267 145.975393 
L 239.472801 175.623947 
L 241.681336 146.549245 
L 243.88987 162.637124 
L 246.098404 173.751737 
L 248.306939 174.90238 
L 250.515473 171.181625 
L 252.724007 151.722913 
L 254.932542 182.790454 
L 257.141076 178.008791 
L 259.34961 164.339741 
L 261.558145 171.736806 
L 263.766679 158.224507 
L 265.975213 176.720524 
L 268.183748 167.309776 
L 270.392282 172.890069 
L 272.600816 155.741302 
L 274.809351 149.205736 
L 277.017885 174.959236 
L 279.226419 177.375154 
L 281.434954 171.190624 
L 283.643488 142.023574 
L 285.852022 165.306907 
L 288.060557 181.384182 
L 290.269091 147.944126 
L 292.477625 154.222179 
L 294.68616 140.350906 
L 296.894694 148.011922 
L 299.103228 134.127497 
L 301.311763 157.639909 
L 303.520297 155.867451 
L 305.728831 122.70839 
L 307.937365 123.226463 
L 310.1459 118.88895 
L 312.354434 124.653424 
L 314.562968 134.615492 
L 316.771503 169.932577 
L 318.980037 169.008648 
L 321.188571 177.378951 
L 323.397106 149.93933 
L 325.60564 125.497118 
L 327.814174 113.083351 
L 330.022709 155.608452 
L 332.231243 145.062303 
L 334.439777 148.868768 
L 336.648312 155.369143 
L 338.856846 162.24784 
L 341.06538 146.688432 
L 343.273915 166.437459 
L 345.482449 162.494147 
L 347.690983 166.451872 
L 349.899518 165.408811 
L 352.108052 154.598594 
L 354.316586 157.369823 
L 356.525121 160.932649 
L 358.733655 178.624797 
L 360.942189 160.487609 
L 363.150724 168.061707 
L 365.359258 168.893563 
L 367.567792 177.775818 
L 369.776327 174.012302 
L 371.984861 173.829267 
L 374.193395 175.38136 
L 376.401929 161.806439 
L 378.610464 166.576889 
L 380.818998 162.923396 
L 383.027532 157.776857 
L 385.236067 162.224212 
L 387.444601 164.026962 
L 389.653135 161.980915 
L 391.86167 173.910715 
L 394.070204 184.816225 
L 396.278738 177.824698 
L 398.487273 158.829111 
L 398.487273 158.829111 
" clip-path="url(#p4c3710990e)" style="fill: none; stroke: #32cd32; stroke-opacity: 0.8; stroke-width: 0.5; stroke-linecap: square"/>
   </g>
   <g id="line2d_17">
    <path d="M 73.832727 208.041365 
L 76.041262 208.74598 
L 78.249796 223.537002 
L 80.45833 208.133005 
L 82.666865 201.640566 
L 84.875399 204.173178 
L 87.083933 196.901351 
L 89.292468 203.080221 
L 91.501002 190.740989 
L 93.709536 199.220641 
L 98.126605 198.923739 
L 100.335139 197.684968 
L 102.543673 197.801613 
L 104.752208 194.899334 
L 106.960742 198.006905 
L 109.169276 214.701229 
L 111.377811 211.839736 
L 113.586345 214.747094 
L 115.794879 214.807716 
L 118.003414 202.47993 
L 120.211948 241.557637 
L 122.420482 226.446645 
L 124.629017 204.390008 
L 126.837551 207.27962 
L 129.046085 201.970311 
L 131.25462 206.737128 
L 133.463154 201.769794 
L 135.671688 201.848179 
L 137.880223 199.456273 
L 140.088757 200.758521 
L 142.297291 199.595656 
L 144.505826 214.924315 
L 146.71436 200.653846 
L 148.922894 198.372889 
L 151.131429 194.445297 
L 153.339963 198.083465 
L 155.548497 211.967856 
L 157.757032 203.969288 
L 159.965566 205.10356 
L 162.1741 196.650483 
L 164.382635 207.167701 
L 166.591169 197.592139 
L 168.799703 201.324882 
L 171.008237 198.686131 
L 173.216772 200.677807 
L 175.425306 199.584042 
L 177.63384 199.384283 
L 179.842375 199.784195 
L 182.050909 208.17522 
L 184.259443 197.548603 
L 186.467978 248.028962 
L 188.676512 287.580188 
L 190.885046 264.41211 
L 193.093581 228.147797 
L 195.302115 222.404496 
L 197.510649 226.994302 
L 199.719184 207.373982 
L 201.927718 223.599304 
L 204.136252 208.629658 
L 206.344787 210.014364 
L 208.553321 205.554501 
L 210.761855 207.943772 
L 212.97039 202.85461 
L 215.178924 216.923025 
L 217.387458 211.110432 
L 219.595993 214.406464 
L 221.804527 195.796312 
L 224.013061 220.36259 
L 226.221596 208.748939 
L 228.43013 213.198081 
L 230.638664 208.039779 
L 232.847199 210.834651 
L 235.055733 210.688296 
L 237.264267 213.602034 
L 239.472801 200.27758 
L 241.681336 227.47219 
L 243.88987 211.105418 
L 246.098404 215.498756 
L 248.306939 207.204948 
L 250.515473 206.430231 
L 252.724007 214.857073 
L 254.932542 206.939872 
L 257.141076 203.391504 
L 259.34961 212.829642 
L 261.558145 209.196218 
L 263.766679 215.128976 
L 265.975213 203.710328 
L 270.392282 204.440455 
L 272.600816 209.802266 
L 274.809351 209.047807 
L 277.017885 219.403789 
L 279.226419 206.889754 
L 281.434954 201.992262 
L 283.643488 217.692223 
L 285.852022 229.609056 
L 288.060557 222.347897 
L 290.269091 206.641141 
L 292.477625 235.007636 
L 294.68616 220.139821 
L 296.894694 229.284461 
L 299.103228 236.22991 
L 301.311763 215.453614 
L 303.520297 210.598687 
L 305.728831 233.029482 
L 307.937365 240.648029 
L 310.1459 231.450935 
L 312.354434 220.691751 
L 314.562968 237.035227 
L 316.771503 213.906796 
L 318.980037 233.634552 
L 321.188571 225.411507 
L 323.397106 219.960679 
L 325.60564 220.81119 
L 327.814174 215.31131 
L 330.022709 238.440926 
L 332.231243 231.06949 
L 334.439777 229.911093 
L 336.648312 277.9384 
L 338.856846 241.455898 
L 341.06538 213.032849 
L 343.273915 217.373866 
L 345.482449 225.934439 
L 347.690983 221.53416 
L 349.899518 214.605893 
L 352.108052 201.846257 
L 354.316586 218.120222 
L 356.525121 213.048047 
L 358.733655 213.008468 
L 360.942189 223.269521 
L 363.150724 221.943205 
L 365.359258 210.193346 
L 367.567792 214.888593 
L 369.776327 211.231862 
L 371.984861 211.172607 
L 374.193395 204.724284 
L 376.401929 207.682039 
L 378.610464 209.311314 
L 380.818998 215.934407 
L 383.027532 204.61312 
L 385.236067 203.296188 
L 387.444601 210.50471 
L 389.653135 223.466525 
L 391.86167 224.624743 
L 394.070204 202.953311 
L 396.278738 215.337634 
L 398.487273 209.39419 
L 398.487273 209.39419 
" clip-path="url(#p4c3710990e)" style="fill: none; stroke: #32cd32; stroke-opacity: 0.8; stroke-width: 0.5; stroke-linecap: square"/>
   </g>
   <g id="line2d_18">
    <path d="M 73.832727 191.482094 
L 76.041262 190.963332 
L 78.249796 184.826929 
L 80.45833 193.801822 
L 82.666865 189.488833 
L 84.875399 191.986398 
L 87.083933 188.757422 
L 89.292468 190.961904 
L 91.501002 187.525959 
L 93.709536 190.651658 
L 95.918071 189.496704 
L 98.126605 190.371507 
L 100.335139 188.57587 
L 102.543673 189.93429 
L 104.752208 188.805423 
L 106.960742 189.244937 
L 109.169276 184.476107 
L 111.377811 184.613825 
L 113.586345 190.651572 
L 115.794879 190.830025 
L 118.003414 185.83228 
L 120.211948 184.587894 
L 122.420482 193.71436 
L 124.629017 191.781043 
L 126.837551 193.334694 
L 129.046085 190.837072 
L 133.463154 188.474007 
L 135.671688 192.041407 
L 137.880223 190.188417 
L 140.088757 186.157516 
L 142.297291 186.857571 
L 144.505826 191.351705 
L 146.71436 191.730418 
L 148.922894 189.492321 
L 151.131429 188.785571 
L 153.339963 182.646323 
L 155.548497 192.51009 
L 157.757032 188.269597 
L 159.965566 192.760641 
L 162.1741 185.860892 
L 164.382635 191.106521 
L 166.591169 190.400739 
L 168.799703 190.910377 
L 171.008237 190.58384 
L 173.216772 188.424333 
L 175.425306 192.366932 
L 177.63384 189.283886 
L 179.842375 187.112287 
L 182.050909 192.513323 
L 184.259443 178.632199 
L 186.467978 179.97414 
L 188.676512 176.508795 
L 190.885046 199.931407 
L 195.302115 191.08797 
L 197.510649 194.520977 
L 199.719184 194.735773 
L 201.927718 188.223835 
L 204.136252 189.30082 
L 206.344787 192.145998 
L 208.553321 190.560867 
L 210.761855 192.505614 
L 212.97039 194.12548 
L 215.178924 182.894484 
L 217.387458 187.447095 
L 219.595993 195.82786 
L 221.804527 182.703918 
L 224.013061 194.471279 
L 226.221596 189.151192 
L 228.43013 193.425201 
L 230.638664 187.270332 
L 232.847199 192.9063 
L 235.055733 189.211229 
L 237.264267 189.631251 
L 239.472801 187.330391 
L 241.681336 185.939677 
L 243.88987 193.023873 
L 246.098404 193.552851 
L 248.306939 189.976485 
L 250.515473 188.808923 
L 252.724007 185.980193 
L 254.932542 191.613237 
L 257.141076 188.416555 
L 259.34961 190.703197 
L 263.766679 189.97509 
L 265.975213 189.550043 
L 268.183748 187.953834 
L 270.392282 187.305274 
L 272.600816 187.768505 
L 274.809351 185.234456 
L 277.017885 194.125119 
L 279.226419 194.101331 
L 281.434954 187.558833 
L 283.643488 183.361252 
L 285.852022 186.865088 
L 288.060557 196.917592 
L 290.269091 176.855715 
L 292.477625 190.1128 
L 294.68616 183.418118 
L 296.894694 183.904367 
L 299.103228 191.727058 
L 301.311763 192.128695 
L 303.520297 182.497425 
L 305.728831 177.51839 
L 307.937365 184.408536 
L 310.1459 195.445819 
L 312.354434 171.758679 
L 314.562968 192.954187 
L 316.771503 188.447859 
L 318.980037 198.540282 
L 321.188571 196.394574 
L 323.397106 185.681246 
L 325.60564 183.437606 
L 327.814174 178.357779 
L 330.022709 188.815096 
L 332.231243 187.221269 
L 334.439777 191.469854 
L 336.648312 198.552746 
L 338.856846 194.073736 
L 341.06538 179.678394 
L 343.273915 188.16937 
L 345.482449 193.524512 
L 347.690983 196.782698 
L 349.899518 189.791658 
L 352.108052 181.906419 
L 354.316586 188.22809 
L 356.525121 192.836192 
L 358.733655 192.561505 
L 360.942189 190.231539 
L 363.150724 187.433825 
L 365.359258 192.243099 
L 367.567792 194.178364 
L 369.776327 189.93687 
L 371.984861 192.603887 
L 374.193395 192.193722 
L 376.401929 184.389381 
L 378.610464 187.337666 
L 380.818998 188.938191 
L 383.027532 183.441385 
L 385.236067 185.731115 
L 387.444601 189.146148 
L 389.653135 190.609678 
L 391.86167 196.537386 
L 394.070204 192.077639 
L 396.278738 193.544855 
L 398.487273 190.484813 
L 398.487273 190.484813 
" clip-path="url(#p4c3710990e)" style="fill: none; stroke: #ff0000; stroke-opacity: 0.8; stroke-width: 0.5; stroke-linecap: square"/>
   </g>
   <g id="line2d_19">
    <path d="M 73.832727 172.495797 
L 76.041262 174.771546 
L 78.249796 161.182395 
L 80.45833 163.508151 
L 82.666865 174.542889 
L 84.875399 179.89579 
L 87.083933 180.051828 
L 89.292468 175.102335 
L 91.501002 181.178253 
L 93.709536 172.964287 
L 95.918071 179.423209 
L 98.126605 180.387386 
L 100.335139 179.078166 
L 102.543673 182.793043 
L 104.752208 181.526784 
L 106.960742 184.020195 
L 109.169276 148.484117 
L 111.377811 154.384791 
L 113.586345 165.922931 
L 115.794879 169.485609 
L 118.003414 150.487447 
L 120.211948 166.66406 
L 122.420482 162.719118 
L 124.629017 171.213666 
L 126.837551 177.669841 
L 129.046085 184.794095 
L 131.25462 179.357855 
L 133.463154 165.64273 
L 135.671688 180.792328 
L 137.880223 185.838104 
L 140.088757 168.516263 
L 142.297291 159.093271 
L 144.505826 174.188603 
L 146.71436 185.744847 
L 148.922894 176.737879 
L 151.131429 179.926703 
L 153.339963 152.883391 
L 155.548497 152.324263 
L 157.757032 156.697443 
L 159.965566 184.568281 
L 162.1741 173.134926 
L 164.382635 166.610819 
L 166.591169 183.384476 
L 168.799703 184.682303 
L 171.008237 183.920488 
L 173.216772 176.80539 
L 175.425306 187.355199 
L 177.63384 178.340678 
L 179.842375 165.716611 
L 182.050909 163.462702 
L 184.259443 140.578462 
L 186.467978 93.911254 
L 188.676512 53.568 
L 190.885046 139.890237 
L 193.093581 152.033929 
L 195.302115 154.394747 
L 197.510649 162.668993 
L 199.719184 179.465336 
L 201.927718 108.927758 
L 204.136252 154.38216 
L 206.344787 173.528411 
L 208.553321 170.77643 
L 210.761855 176.734449 
L 212.97039 182.303279 
L 215.178924 134.853276 
L 217.387458 154.922368 
L 219.595993 168.194529 
L 221.804527 160.69133 
L 224.013061 137.879693 
L 226.221596 170.318044 
L 228.43013 181.172139 
L 230.638664 175.545113 
L 232.847199 164.290009 
L 235.055733 176.237746 
L 237.264267 146.47664 
L 239.472801 174.927412 
L 241.681336 146.758094 
L 243.88987 163.184365 
L 246.098404 175.115164 
L 248.306939 175.201215 
L 250.515473 171.24554 
L 252.724007 149.699635 
L 254.932542 184.006659 
L 257.141076 178.166275 
L 259.34961 164.373405 
L 261.558145 171.718237 
L 263.766679 158.596653 
L 265.975213 177.505174 
L 268.183748 167.393211 
L 270.392282 173.438401 
L 272.600816 155.91081 
L 274.809351 149.522178 
L 277.017885 174.564847 
L 279.226419 177.911039 
L 281.434954 171.375173 
L 283.643488 142.501604 
L 285.852022 165.334088 
L 288.060557 180.521289 
L 290.269091 148.193035 
L 292.477625 152.040217 
L 294.68616 139.484384 
L 296.894694 148.000183 
L 299.103228 134.384718 
L 301.311763 157.601548 
L 303.520297 156.141506 
L 305.728831 122.320731 
L 307.937365 123.045037 
L 310.1459 119.213881 
L 312.354434 124.348596 
L 314.562968 137.050432 
L 316.771503 170.083921 
L 318.980037 170.492297 
L 321.188571 176.102938 
L 323.397106 150.294003 
L 325.60564 128.447393 
L 327.814174 111.414168 
L 330.022709 155.86299 
L 332.231243 145.207489 
L 334.439777 147.974633 
L 336.648312 152.988287 
L 338.856846 161.73685 
L 341.06538 147.728619 
L 343.273915 165.257117 
L 345.482449 161.748502 
L 347.690983 166.409443 
L 349.899518 168.760762 
L 352.108052 154.006372 
L 354.316586 157.727033 
L 356.525121 160.438485 
L 358.733655 178.689651 
L 360.942189 161.123766 
L 363.150724 167.73808 
L 365.359258 168.967011 
L 367.567792 176.795016 
L 369.776327 174.377345 
L 371.984861 172.717102 
L 374.193395 175.433837 
L 376.401929 162.28624 
L 378.610464 166.475305 
L 380.818998 163.240226 
L 383.027532 157.824756 
L 385.236067 161.42607 
L 387.444601 163.963058 
L 389.653135 162.806638 
L 394.070204 184.596104 
L 396.278738 177.882266 
L 398.487273 158.707708 
L 398.487273 158.707708 
" clip-path="url(#p4c3710990e)" style="fill: none; stroke: #f08080; stroke-opacity: 0.8; stroke-width: 0.5; stroke-linecap: square"/>
   </g>
   <g id="line2d_20">
    <path d="M 73.832727 209.393587 
L 76.041262 209.701757 
L 78.249796 224.232472 
L 80.45833 209.938093 
L 82.666865 201.877239 
L 84.875399 204.983351 
L 87.083933 197.916022 
L 89.292468 203.813612 
L 91.501002 191.256201 
L 93.709536 199.373223 
L 95.918071 199.871284 
L 98.126605 199.427873 
L 100.335139 198.354913 
L 102.543673 197.421636 
L 104.752208 194.980428 
L 106.960742 198.252028 
L 109.169276 216.298477 
L 111.377811 210.943353 
L 113.586345 214.156786 
L 115.794879 216.572081 
L 118.003414 201.565261 
L 120.211948 245.632749 
L 122.420482 227.318669 
L 124.629017 204.259601 
L 126.837551 206.687018 
L 129.046085 202.152021 
L 131.25462 206.224258 
L 133.463154 201.874309 
L 135.671688 202.806023 
L 137.880223 199.51674 
L 140.088757 200.84793 
L 142.297291 200.070845 
L 144.505826 215.572221 
L 146.71436 200.592289 
L 148.922894 198.460475 
L 151.131429 194.133808 
L 153.339963 197.968821 
L 155.548497 212.832002 
L 157.757032 204.588078 
L 159.965566 205.095178 
L 162.1741 196.600177 
L 164.382635 206.508134 
L 166.591169 197.844543 
L 168.799703 201.000328 
L 171.008237 198.927824 
L 173.216772 200.437808 
L 175.425306 199.773209 
L 177.63384 199.810103 
L 179.842375 199.656065 
L 182.050909 209.059338 
L 184.259443 197.696315 
L 186.467978 251.444876 
L 188.676512 295.488 
L 190.885046 264.348716 
L 193.093581 228.303346 
L 195.302115 220.637462 
L 197.510649 227.540363 
L 199.719184 207.291716 
L 201.927718 223.599706 
L 204.136252 208.673407 
L 206.344787 208.45968 
L 208.553321 205.58413 
L 210.761855 207.55992 
L 212.97039 203.056352 
L 215.178924 216.709358 
L 217.387458 212.107633 
L 219.595993 214.17708 
L 221.804527 196.405604 
L 224.013061 220.228119 
L 226.221596 208.525558 
L 228.43013 212.771964 
L 230.638664 207.937793 
L 232.847199 211.13049 
L 235.055733 210.321259 
L 237.264267 213.561225 
L 239.472801 200.197991 
L 241.681336 227.512908 
L 243.88987 212.083522 
L 246.098404 215.562232 
L 248.306939 206.847245 
L 250.515473 206.255788 
L 252.724007 213.778521 
L 254.932542 206.524659 
L 257.141076 203.413037 
L 259.34961 212.804269 
L 261.558145 208.227879 
L 263.766679 215.268222 
L 265.975213 203.042725 
L 268.183748 203.890003 
L 270.392282 204.91261 
L 272.600816 210.350758 
L 274.809351 210.02706 
L 277.017885 219.792952 
L 279.226419 206.944485 
L 281.434954 201.989797 
L 285.852022 228.346106 
L 288.060557 223.364465 
L 290.269091 206.196991 
L 292.477625 233.055178 
L 294.68616 217.820526 
L 296.894694 229.298325 
L 299.103228 236.331562 
L 301.311763 215.657683 
L 303.520297 209.688598 
L 305.728831 232.631577 
L 307.937365 241.535846 
L 310.1459 231.675157 
L 312.354434 221.208355 
L 314.562968 238.604037 
L 316.771503 212.987384 
L 318.980037 235.861735 
L 321.188571 226.317647 
L 323.397106 219.862125 
L 325.60564 220.722326 
L 327.814174 214.124224 
L 330.022709 237.719647 
L 332.231243 233.703287 
L 334.439777 229.330942 
L 336.648312 278.157725 
L 338.856846 241.252285 
L 341.06538 212.985025 
L 343.273915 217.281389 
L 345.482449 226.456574 
L 347.690983 220.345212 
L 349.899518 212.936654 
L 352.108052 201.74687 
L 354.316586 219.442405 
L 356.525121 213.201076 
L 358.733655 213.096443 
L 360.942189 222.438117 
L 363.150724 220.855975 
L 365.359258 211.839111 
L 367.567792 214.720473 
L 369.776327 210.567582 
L 371.984861 211.424616 
L 374.193395 204.405456 
L 376.401929 207.619984 
L 378.610464 210.031415 
L 380.818998 214.829318 
L 383.027532 204.683703 
L 385.236067 203.501916 
L 387.444601 210.994152 
L 389.653135 222.819397 
L 391.86167 224.771612 
L 394.070204 202.823354 
L 396.278738 215.439543 
L 398.487273 208.29259 
L 398.487273 208.29259 
" clip-path="url(#p4c3710990e)" style="fill: none; stroke: #f08080; stroke-opacity: 0.8; stroke-width: 0.5; stroke-linecap: square"/>
   </g>
   <g id="patch_3">
    <path d="M 57.6 307.584 
L 57.6 41.472 
" style="fill: none; stroke: #000000; stroke-width: 0.8; stroke-linejoin: miter; stroke-linecap: square"/>
   </g>
   <g id="patch_4">
    <path d="M 414.72 307.584 
L 414.72 41.472 
" style="fill: none; stroke: #000000; stroke-width: 0.8; stroke-linejoin: miter; stroke-linecap: square"/>
   </g>
   <g id="patch_5">
    <path d="M 57.6 307.584 
L 414.72 307.584 
" style="fill: none; stroke: #000000; stroke-width: 0.8; stroke-linejoin: miter; stroke-linecap: square"/>
   </g>
   <g id="patch_6">
    <path d="M 57.6 41.472 
L 414.72 41.472 
" style="fill: none; stroke: #000000; stroke-width: 0.8; stroke-linejoin: miter; stroke-linecap: square"/>
   </g>
   <g id="text_15">
    <!-- 1final_zhangext_pr_snp500 -->
    <g transform="translate(154.221563 35.472) scale(0.12 -0.12)">
     <defs>
      <path id="DejaVuSans-66" d="M 2375 4863 
L 2375 4384 
L 1825 4384 
Q 1516 4384 1395 4259 
Q 1275 4134 1275 3809 
L 1275 3500 
L 2222 3500 
L 2222 3053 
L 1275 3053 
L 1275 0 
L 697 0 
L 697 3053 
L 147 3053 
L 147 3500 
L 697 3500 
L 697 3744 
Q 697 4328 969 4595 
Q 1241 4863 1831 4863 
L 2375 4863 
z
" transform="scale(0.015625)"/>
      <path id="DejaVuSans-69" d="M 603 3500 
L 1178 3500 
L 1178 0 
L 603 0 
L 603 3500 
z
M 603 4863 
L 1178 4863 
L 1178 4134 
L 603 4134 
L 603 4863 
z
" transform="scale(0.015625)"/>
      <path id="DejaVuSans-6e" d="M 3513 2113 
L 3513 0 
L 2938 0 
L 2938 2094 
Q 2938 2591 2744 2837 
Q 2550 3084 2163 3084 
Q 1697 3084 1428 2787 
Q 1159 2491 1159 1978 
L 1159 0 
L 581 0 
L 581 3500 
L 1159 3500 
L 1159 2956 
Q 1366 3272 1645 3428 
Q 1925 3584 2291 3584 
Q 2894 3584 3203 3211 
Q 3513 2838 3513 2113 
z
" transform="scale(0.015625)"/>
      <path id="DejaVuSans-61" d="M 2194 1759 
Q 1497 1759 1228 1600 
Q 959 1441 959 1056 
Q 959 750 1161 570 
Q 1363 391 1709 391 
Q 2188 391 2477 730 
Q 2766 1069 2766 1631 
L 2766 1759 
L 2194 1759 
z
M 3341 1997 
L 3341 0 
L 2766 0 
L 2766 531 
Q 2569 213 2275 61 
Q 1981 -91 1556 -91 
Q 1019 -91 701 211 
Q 384 513 384 1019 
Q 384 1609 779 1909 
Q 1175 2209 1959 2209 
L 2766 2209 
L 2766 2266 
Q 2766 2663 2505 2880 
Q 2244 3097 1772 3097 
Q 1472 3097 1187 3025 
Q 903 2953 641 2809 
L 641 3341 
Q 956 3463 1253 3523 
Q 1550 3584 1831 3584 
Q 2591 3584 2966 3190 
Q 3341 2797 3341 1997 
z
" transform="scale(0.015625)"/>
      <path id="DejaVuSans-6c" d="M 603 4863 
L 1178 4863 
L 1178 0 
L 603 0 
L 603 4863 
z
" transform="scale(0.015625)"/>
      <path id="DejaVuSans-5f" d="M 3263 -1063 
L 3263 -1509 
L -63 -1509 
L -63 -1063 
L 3263 -1063 
z
" transform="scale(0.015625)"/>
      <path id="DejaVuSans-7a" d="M 353 3500 
L 3084 3500 
L 3084 2975 
L 922 459 
L 3084 459 
L 3084 0 
L 275 0 
L 275 525 
L 2438 3041 
L 353 3041 
L 353 3500 
z
" transform="scale(0.015625)"/>
      <path id="DejaVuSans-68" d="M 3513 2113 
L 3513 0 
L 2938 0 
L 2938 2094 
Q 2938 2591 2744 2837 
Q 2550 3084 2163 3084 
Q 1697 3084 1428 2787 
Q 1159 2491 1159 1978 
L 1159 0 
L 581 0 
L 581 4863 
L 1159 4863 
L 1159 2956 
Q 1366 3272 1645 3428 
Q 1925 3584 2291 3584 
Q 2894 3584 3203 3211 
Q 3513 2838 3513 2113 
z
" transform="scale(0.015625)"/>
      <path id="DejaVuSans-67" d="M 2906 1791 
Q 2906 2416 2648 2759 
Q 2391 3103 1925 3103 
Q 1463 3103 1205 2759 
Q 947 2416 947 1791 
Q 947 1169 1205 825 
Q 1463 481 1925 481 
Q 2391 481 2648 825 
Q 2906 1169 2906 1791 
z
M 3481 434 
Q 3481 -459 3084 -895 
Q 2688 -1331 1869 -1331 
Q 1566 -1331 1297 -1286 
Q 1028 -1241 775 -1147 
L 775 -588 
Q 1028 -725 1275 -790 
Q 1522 -856 1778 -856 
Q 2344 -856 2625 -561 
Q 2906 -266 2906 331 
L 2906 616 
Q 2728 306 2450 153 
Q 2172 0 1784 0 
Q 1141 0 747 490 
Q 353 981 353 1791 
Q 353 2603 747 3093 
Q 1141 3584 1784 3584 
Q 2172 3584 2450 3431 
Q 2728 3278 2906 2969 
L 2906 3500 
L 3481 3500 
L 3481 434 
z
" transform="scale(0.015625)"/>
      <path id="DejaVuSans-65" d="M 3597 1894 
L 3597 1613 
L 953 1613 
Q 991 1019 1311 708 
Q 1631 397 2203 397 
Q 2534 397 2845 478 
Q 3156 559 3463 722 
L 3463 178 
Q 3153 47 2828 -22 
Q 2503 -91 2169 -91 
Q 1331 -91 842 396 
Q 353 884 353 1716 
Q 353 2575 817 3079 
Q 1281 3584 2069 3584 
Q 2775 3584 3186 3129 
Q 3597 2675 3597 1894 
z
M 3022 2063 
Q 3016 2534 2758 2815 
Q 2500 3097 2075 3097 
Q 1594 3097 1305 2825 
Q 1016 2553 972 2059 
L 3022 2063 
z
" transform="scale(0.015625)"/>
      <path id="DejaVuSans-78" d="M 3513 3500 
L 2247 1797 
L 3578 0 
L 2900 0 
L 1881 1375 
L 863 0 
L 184 0 
L 1544 1831 
L 300 3500 
L 978 3500 
L 1906 2253 
L 2834 3500 
L 3513 3500 
z
" transform="scale(0.015625)"/>
      <path id="DejaVuSans-74" d="M 1172 4494 
L 1172 3500 
L 2356 3500 
L 2356 3053 
L 1172 3053 
L 1172 1153 
Q 1172 725 1289 603 
Q 1406 481 1766 481 
L 2356 481 
L 2356 0 
L 1766 0 
Q 1100 0 847 248 
Q 594 497 594 1153 
L 594 3053 
L 172 3053 
L 172 3500 
L 594 3500 
L 594 4494 
L 1172 4494 
z
" transform="scale(0.015625)"/>
      <path id="DejaVuSans-70" d="M 1159 525 
L 1159 -1331 
L 581 -1331 
L 581 3500 
L 1159 3500 
L 1159 2969 
Q 1341 3281 1617 3432 
Q 1894 3584 2278 3584 
Q 2916 3584 3314 3078 
Q 3713 2572 3713 1747 
Q 3713 922 3314 415 
Q 2916 -91 2278 -91 
Q 1894 -91 1617 61 
Q 1341 213 1159 525 
z
M 3116 1747 
Q 3116 2381 2855 2742 
Q 2594 3103 2138 3103 
Q 1681 3103 1420 2742 
Q 1159 2381 1159 1747 
Q 1159 1113 1420 752 
Q 1681 391 2138 391 
Q 2594 391 2855 752 
Q 3116 1113 3116 1747 
z
" transform="scale(0.015625)"/>
      <path id="DejaVuSans-72" d="M 2631 2963 
Q 2534 3019 2420 3045 
Q 2306 3072 2169 3072 
Q 1681 3072 1420 2755 
Q 1159 2438 1159 1844 
L 1159 0 
L 581 0 
L 581 3500 
L 1159 3500 
L 1159 2956 
Q 1341 3275 1631 3429 
Q 1922 3584 2338 3584 
Q 2397 3584 2469 3576 
Q 2541 3569 2628 3553 
L 2631 2963 
z
" transform="scale(0.015625)"/>
      <path id="DejaVuSans-73" d="M 2834 3397 
L 2834 2853 
Q 2591 2978 2328 3040 
Q 2066 3103 1784 3103 
Q 1356 3103 1142 2972 
Q 928 2841 928 2578 
Q 928 2378 1081 2264 
Q 1234 2150 1697 2047 
L 1894 2003 
Q 2506 1872 2764 1633 
Q 3022 1394 3022 966 
Q 3022 478 2636 193 
Q 2250 -91 1575 -91 
Q 1294 -91 989 -36 
Q 684 19 347 128 
L 347 722 
Q 666 556 975 473 
Q 1284 391 1588 391 
Q 1994 391 2212 530 
Q 2431 669 2431 922 
Q 2431 1156 2273 1281 
Q 2116 1406 1581 1522 
L 1381 1569 
Q 847 1681 609 1914 
Q 372 2147 372 2553 
Q 372 3047 722 3315 
Q 1072 3584 1716 3584 
Q 2034 3584 2315 3537 
Q 2597 3491 2834 3397 
z
" transform="scale(0.015625)"/>
      <path id="DejaVuSans-35" d="M 691 4666 
L 3169 4666 
L 3169 4134 
L 1269 4134 
L 1269 2991 
Q 1406 3038 1543 3061 
Q 1681 3084 1819 3084 
Q 2600 3084 3056 2656 
Q 3513 2228 3513 1497 
Q 3513 744 3044 326 
Q 2575 -91 1722 -91 
Q 1428 -91 1123 -41 
Q 819 9 494 109 
L 494 744 
Q 775 591 1075 516 
Q 1375 441 1709 441 
Q 2250 441 2565 725 
Q 2881 1009 2881 1497 
Q 2881 1984 2565 2268 
Q 2250 2553 1709 2553 
Q 1456 2553 1204 2497 
Q 953 2441 691 2322 
L 691 4666 
z
" transform="scale(0.015625)"/>
     </defs>
     <use xlink:href="#DejaVuSans-31"/>
     <use xlink:href="#DejaVuSans-66" x="63.623047"/>
     <use xlink:href="#DejaVuSans-69" x="98.828125"/>
     <use xlink:href="#DejaVuSans-6e" x="126.611328"/>
     <use xlink:href="#DejaVuSans-61" x="189.990234"/>
     <use xlink:href="#DejaVuSans-6c" x="251.269531"/>
     <use xlink:href="#DejaVuSans-5f" x="279.052734"/>
     <use xlink:href="#DejaVuSans-7a" x="329.052734"/>
     <use xlink:href="#DejaVuSans-68" x="381.542969"/>
     <use xlink:href="#DejaVuSans-61" x="444.921875"/>
     <use xlink:href="#DejaVuSans-6e" x="506.201172"/>
     <use xlink:href="#DejaVuSans-67" x="569.580078"/>
     <use xlink:href="#DejaVuSans-65" x="633.056641"/>
     <use xlink:href="#DejaVuSans-78" x="692.830078"/>
     <use xlink:href="#DejaVuSans-74" x="752.009766"/>
     <use xlink:href="#DejaVuSans-5f" x="791.21875"/>
     <use xlink:href="#DejaVuSans-70" x="841.21875"/>
     <use xlink:href="#DejaVuSans-72" x="904.695312"/>
     <use xlink:href="#DejaVuSans-5f" x="945.808594"/>
     <use xlink:href="#DejaVuSans-73" x="995.808594"/>
     <use xlink:href="#DejaVuSans-6e" x="1047.908203"/>
     <use xlink:href="#DejaVuSans-70" x="1111.287109"/>
     <use xlink:href="#DejaVuSans-35" x="1174.763672"/>
     <use xlink:href="#DejaVuSans-30" x="1238.386719"/>
     <use xlink:href="#DejaVuSans-30" x="1302.009766"/>
    </g>
   </g>
   <g id="legend_1">
    <g id="patch_7">
     <path d="M 64.6 137.54075 
L 225.001563 137.54075 
Q 227.001563 137.54075 227.001563 135.54075 
L 227.001563 48.472 
Q 227.001563 46.472 225.001563 46.472 
L 64.6 46.472 
Q 62.6 46.472 62.6 48.472 
L 62.6 135.54075 
Q 62.6 137.54075 64.6 137.54075 
z
" style="fill: #ffffff; opacity: 0.8; stroke: #cccccc; stroke-linejoin: miter"/>
    </g>
    <g id="line2d_21">
     <path d="M 66.6 54.570438 
L 76.6 54.570438 
L 86.6 54.570438 
" style="fill: none; stroke: #008000; stroke-opacity: 0.8; stroke-width: 0.5; stroke-linecap: square"/>
    </g>
    <g id="text_16">
     <!-- Positive predictions -->
     <g transform="translate(94.6 58.070438) scale(0.1 -0.1)">
      <defs>
       <path id="DejaVuSans-50" d="M 1259 4147 
L 1259 2394 
L 2053 2394 
Q 2494 2394 2734 2622 
Q 2975 2850 2975 3272 
Q 2975 3691 2734 3919 
Q 2494 4147 2053 4147 
L 1259 4147 
z
M 628 4666 
L 2053 4666 
Q 2838 4666 3239 4311 
Q 3641 3956 3641 3272 
Q 3641 2581 3239 2228 
Q 2838 1875 2053 1875 
L 1259 1875 
L 1259 0 
L 628 0 
L 628 4666 
z
" transform="scale(0.015625)"/>
       <path id="DejaVuSans-6f" d="M 1959 3097 
Q 1497 3097 1228 2736 
Q 959 2375 959 1747 
Q 959 1119 1226 758 
Q 1494 397 1959 397 
Q 2419 397 2687 759 
Q 2956 1122 2956 1747 
Q 2956 2369 2687 2733 
Q 2419 3097 1959 3097 
z
M 1959 3584 
Q 2709 3584 3137 3096 
Q 3566 2609 3566 1747 
Q 3566 888 3137 398 
Q 2709 -91 1959 -91 
Q 1206 -91 779 398 
Q 353 888 353 1747 
Q 353 2609 779 3096 
Q 1206 3584 1959 3584 
z
" transform="scale(0.015625)"/>
       <path id="DejaVuSans-76" d="M 191 3500 
L 800 3500 
L 1894 563 
L 2988 3500 
L 3597 3500 
L 2284 0 
L 1503 0 
L 191 3500 
z
" transform="scale(0.015625)"/>
       <path id="DejaVuSans-20" transform="scale(0.015625)"/>
       <path id="DejaVuSans-64" d="M 2906 2969 
L 2906 4863 
L 3481 4863 
L 3481 0 
L 2906 0 
L 2906 525 
Q 2725 213 2448 61 
Q 2172 -91 1784 -91 
Q 1150 -91 751 415 
Q 353 922 353 1747 
Q 353 2572 751 3078 
Q 1150 3584 1784 3584 
Q 2172 3584 2448 3432 
Q 2725 3281 2906 2969 
z
M 947 1747 
Q 947 1113 1208 752 
Q 1469 391 1925 391 
Q 2381 391 2643 752 
Q 2906 1113 2906 1747 
Q 2906 2381 2643 2742 
Q 2381 3103 1925 3103 
Q 1469 3103 1208 2742 
Q 947 2381 947 1747 
z
" transform="scale(0.015625)"/>
       <path id="DejaVuSans-63" d="M 3122 3366 
L 3122 2828 
Q 2878 2963 2633 3030 
Q 2388 3097 2138 3097 
Q 1578 3097 1268 2742 
Q 959 2388 959 1747 
Q 959 1106 1268 751 
Q 1578 397 2138 397 
Q 2388 397 2633 464 
Q 2878 531 3122 666 
L 3122 134 
Q 2881 22 2623 -34 
Q 2366 -91 2075 -91 
Q 1284 -91 818 406 
Q 353 903 353 1747 
Q 353 2603 823 3093 
Q 1294 3584 2113 3584 
Q 2378 3584 2631 3529 
Q 2884 3475 3122 3366 
z
" transform="scale(0.015625)"/>
      </defs>
      <use xlink:href="#DejaVuSans-50"/>
      <use xlink:href="#DejaVuSans-6f" x="56.677734"/>
      <use xlink:href="#DejaVuSans-73" x="117.859375"/>
      <use xlink:href="#DejaVuSans-69" x="169.958984"/>
      <use xlink:href="#DejaVuSans-74" x="197.742188"/>
      <use xlink:href="#DejaVuSans-69" x="236.951172"/>
      <use xlink:href="#DejaVuSans-76" x="264.734375"/>
      <use xlink:href="#DejaVuSans-65" x="323.914062"/>
      <use xlink:href="#DejaVuSans-20" x="385.4375"/>
      <use xlink:href="#DejaVuSans-70" x="417.224609"/>
      <use xlink:href="#DejaVuSans-72" x="480.701172"/>
      <use xlink:href="#DejaVuSans-65" x="519.564453"/>
      <use xlink:href="#DejaVuSans-64" x="581.087891"/>
      <use xlink:href="#DejaVuSans-69" x="644.564453"/>
      <use xlink:href="#DejaVuSans-63" x="672.347656"/>
      <use xlink:href="#DejaVuSans-74" x="727.328125"/>
      <use xlink:href="#DejaVuSans-69" x="766.537109"/>
      <use xlink:href="#DejaVuSans-6f" x="794.320312"/>
      <use xlink:href="#DejaVuSans-6e" x="855.501953"/>
      <use xlink:href="#DejaVuSans-73" x="918.880859"/>
     </g>
    </g>
    <g id="line2d_22">
     <path d="M 66.6 69.248563 
L 76.6 69.248563 
L 86.6 69.248563 
" style="fill: none; stroke: #32cd32; stroke-opacity: 0.8; stroke-width: 0.5; stroke-linecap: square"/>
    </g>
    <g id="text_17">
     <!-- Positive predictions max -->
     <g transform="translate(94.6 72.748563) scale(0.1 -0.1)">
      <defs>
       <path id="DejaVuSans-6d" d="M 3328 2828 
Q 3544 3216 3844 3400 
Q 4144 3584 4550 3584 
Q 5097 3584 5394 3201 
Q 5691 2819 5691 2113 
L 5691 0 
L 5113 0 
L 5113 2094 
Q 5113 2597 4934 2840 
Q 4756 3084 4391 3084 
Q 3944 3084 3684 2787 
Q 3425 2491 3425 1978 
L 3425 0 
L 2847 0 
L 2847 2094 
Q 2847 2600 2669 2842 
Q 2491 3084 2119 3084 
Q 1678 3084 1418 2786 
Q 1159 2488 1159 1978 
L 1159 0 
L 581 0 
L 581 3500 
L 1159 3500 
L 1159 2956 
Q 1356 3278 1631 3431 
Q 1906 3584 2284 3584 
Q 2666 3584 2933 3390 
Q 3200 3197 3328 2828 
z
" transform="scale(0.015625)"/>
      </defs>
      <use xlink:href="#DejaVuSans-50"/>
      <use xlink:href="#DejaVuSans-6f" x="56.677734"/>
      <use xlink:href="#DejaVuSans-73" x="117.859375"/>
      <use xlink:href="#DejaVuSans-69" x="169.958984"/>
      <use xlink:href="#DejaVuSans-74" x="197.742188"/>
      <use xlink:href="#DejaVuSans-69" x="236.951172"/>
      <use xlink:href="#DejaVuSans-76" x="264.734375"/>
      <use xlink:href="#DejaVuSans-65" x="323.914062"/>
      <use xlink:href="#DejaVuSans-20" x="385.4375"/>
      <use xlink:href="#DejaVuSans-70" x="417.224609"/>
      <use xlink:href="#DejaVuSans-72" x="480.701172"/>
      <use xlink:href="#DejaVuSans-65" x="519.564453"/>
      <use xlink:href="#DejaVuSans-64" x="581.087891"/>
      <use xlink:href="#DejaVuSans-69" x="644.564453"/>
      <use xlink:href="#DejaVuSans-63" x="672.347656"/>
      <use xlink:href="#DejaVuSans-74" x="727.328125"/>
      <use xlink:href="#DejaVuSans-69" x="766.537109"/>
      <use xlink:href="#DejaVuSans-6f" x="794.320312"/>
      <use xlink:href="#DejaVuSans-6e" x="855.501953"/>
      <use xlink:href="#DejaVuSans-73" x="918.880859"/>
      <use xlink:href="#DejaVuSans-20" x="970.980469"/>
      <use xlink:href="#DejaVuSans-6d" x="1002.767578"/>
      <use xlink:href="#DejaVuSans-61" x="1100.179688"/>
      <use xlink:href="#DejaVuSans-78" x="1161.458984"/>
     </g>
    </g>
    <g id="line2d_23">
     <path d="M 66.6 83.926688 
L 76.6 83.926688 
L 86.6 83.926688 
" style="fill: none; stroke: #32cd32; stroke-opacity: 0.8; stroke-width: 0.5; stroke-linecap: square"/>
    </g>
    <g id="text_18">
     <!-- Positive predictions min -->
     <g transform="translate(94.6 87.426688) scale(0.1 -0.1)">
      <use xlink:href="#DejaVuSans-50"/>
      <use xlink:href="#DejaVuSans-6f" x="56.677734"/>
      <use xlink:href="#DejaVuSans-73" x="117.859375"/>
      <use xlink:href="#DejaVuSans-69" x="169.958984"/>
      <use xlink:href="#DejaVuSans-74" x="197.742188"/>
      <use xlink:href="#DejaVuSans-69" x="236.951172"/>
      <use xlink:href="#DejaVuSans-76" x="264.734375"/>
      <use xlink:href="#DejaVuSans-65" x="323.914062"/>
      <use xlink:href="#DejaVuSans-20" x="385.4375"/>
      <use xlink:href="#DejaVuSans-70" x="417.224609"/>
      <use xlink:href="#DejaVuSans-72" x="480.701172"/>
      <use xlink:href="#DejaVuSans-65" x="519.564453"/>
      <use xlink:href="#DejaVuSans-64" x="581.087891"/>
      <use xlink:href="#DejaVuSans-69" x="644.564453"/>
      <use xlink:href="#DejaVuSans-63" x="672.347656"/>
      <use xlink:href="#DejaVuSans-74" x="727.328125"/>
      <use xlink:href="#DejaVuSans-69" x="766.537109"/>
      <use xlink:href="#DejaVuSans-6f" x="794.320312"/>
      <use xlink:href="#DejaVuSans-6e" x="855.501953"/>
      <use xlink:href="#DejaVuSans-73" x="918.880859"/>
      <use xlink:href="#DejaVuSans-20" x="970.980469"/>
      <use xlink:href="#DejaVuSans-6d" x="1002.767578"/>
      <use xlink:href="#DejaVuSans-69" x="1100.179688"/>
      <use xlink:href="#DejaVuSans-6e" x="1127.962891"/>
     </g>
    </g>
    <g id="line2d_24">
     <path d="M 66.6 98.604813 
L 76.6 98.604813 
L 86.6 98.604813 
" style="fill: none; stroke: #ff0000; stroke-opacity: 0.8; stroke-width: 0.5; stroke-linecap: square"/>
    </g>
    <g id="text_19">
     <!-- Negative predictions -->
     <g transform="translate(94.6 102.104813) scale(0.1 -0.1)">
      <defs>
       <path id="DejaVuSans-4e" d="M 628 4666 
L 1478 4666 
L 3547 763 
L 3547 4666 
L 4159 4666 
L 4159 0 
L 3309 0 
L 1241 3903 
L 1241 0 
L 628 0 
L 628 4666 
z
" transform="scale(0.015625)"/>
      </defs>
      <use xlink:href="#DejaVuSans-4e"/>
      <use xlink:href="#DejaVuSans-65" x="74.804688"/>
      <use xlink:href="#DejaVuSans-67" x="136.328125"/>
      <use xlink:href="#DejaVuSans-61" x="199.804688"/>
      <use xlink:href="#DejaVuSans-74" x="261.083984"/>
      <use xlink:href="#DejaVuSans-69" x="300.292969"/>
      <use xlink:href="#DejaVuSans-76" x="328.076172"/>
      <use xlink:href="#DejaVuSans-65" x="387.255859"/>
      <use xlink:href="#DejaVuSans-20" x="448.779297"/>
      <use xlink:href="#DejaVuSans-70" x="480.566406"/>
      <use xlink:href="#DejaVuSans-72" x="544.042969"/>
      <use xlink:href="#DejaVuSans-65" x="582.90625"/>
      <use xlink:href="#DejaVuSans-64" x="644.429688"/>
      <use xlink:href="#DejaVuSans-69" x="707.90625"/>
      <use xlink:href="#DejaVuSans-63" x="735.689453"/>
      <use xlink:href="#DejaVuSans-74" x="790.669922"/>
      <use xlink:href="#DejaVuSans-69" x="829.878906"/>
      <use xlink:href="#DejaVuSans-6f" x="857.662109"/>
      <use xlink:href="#DejaVuSans-6e" x="918.84375"/>
      <use xlink:href="#DejaVuSans-73" x="982.222656"/>
     </g>
    </g>
    <g id="line2d_25">
     <path d="M 66.6 113.282938 
L 76.6 113.282938 
L 86.6 113.282938 
" style="fill: none; stroke: #f08080; stroke-opacity: 0.8; stroke-width: 0.5; stroke-linecap: square"/>
    </g>
    <g id="text_20">
     <!-- Negative predictions max -->
     <g transform="translate(94.6 116.782938) scale(0.1 -0.1)">
      <use xlink:href="#DejaVuSans-4e"/>
      <use xlink:href="#DejaVuSans-65" x="74.804688"/>
      <use xlink:href="#DejaVuSans-67" x="136.328125"/>
      <use xlink:href="#DejaVuSans-61" x="199.804688"/>
      <use xlink:href="#DejaVuSans-74" x="261.083984"/>
      <use xlink:href="#DejaVuSans-69" x="300.292969"/>
      <use xlink:href="#DejaVuSans-76" x="328.076172"/>
      <use xlink:href="#DejaVuSans-65" x="387.255859"/>
      <use xlink:href="#DejaVuSans-20" x="448.779297"/>
      <use xlink:href="#DejaVuSans-70" x="480.566406"/>
      <use xlink:href="#DejaVuSans-72" x="544.042969"/>
      <use xlink:href="#DejaVuSans-65" x="582.90625"/>
      <use xlink:href="#DejaVuSans-64" x="644.429688"/>
      <use xlink:href="#DejaVuSans-69" x="707.90625"/>
      <use xlink:href="#DejaVuSans-63" x="735.689453"/>
      <use xlink:href="#DejaVuSans-74" x="790.669922"/>
      <use xlink:href="#DejaVuSans-69" x="829.878906"/>
      <use xlink:href="#DejaVuSans-6f" x="857.662109"/>
      <use xlink:href="#DejaVuSans-6e" x="918.84375"/>
      <use xlink:href="#DejaVuSans-73" x="982.222656"/>
      <use xlink:href="#DejaVuSans-20" x="1034.322266"/>
      <use xlink:href="#DejaVuSans-6d" x="1066.109375"/>
      <use xlink:href="#DejaVuSans-61" x="1163.521484"/>
      <use xlink:href="#DejaVuSans-78" x="1224.800781"/>
     </g>
    </g>
    <g id="line2d_26">
     <path d="M 66.6 127.961063 
L 76.6 127.961063 
L 86.6 127.961063 
" style="fill: none; stroke: #f08080; stroke-opacity: 0.8; stroke-width: 0.5; stroke-linecap: square"/>
    </g>
    <g id="text_21">
     <!-- Negative predictions min -->
     <g transform="translate(94.6 131.461063) scale(0.1 -0.1)">
      <use xlink:href="#DejaVuSans-4e"/>
      <use xlink:href="#DejaVuSans-65" x="74.804688"/>
      <use xlink:href="#DejaVuSans-67" x="136.328125"/>
      <use xlink:href="#DejaVuSans-61" x="199.804688"/>
      <use xlink:href="#DejaVuSans-74" x="261.083984"/>
      <use xlink:href="#DejaVuSans-69" x="300.292969"/>
      <use xlink:href="#DejaVuSans-76" x="328.076172"/>
      <use xlink:href="#DejaVuSans-65" x="387.255859"/>
      <use xlink:href="#DejaVuSans-20" x="448.779297"/>
      <use xlink:href="#DejaVuSans-70" x="480.566406"/>
      <use xlink:href="#DejaVuSans-72" x="544.042969"/>
      <use xlink:href="#DejaVuSans-65" x="582.90625"/>
      <use xlink:href="#DejaVuSans-64" x="644.429688"/>
      <use xlink:href="#DejaVuSans-69" x="707.90625"/>
      <use xlink:href="#DejaVuSans-63" x="735.689453"/>
      <use xlink:href="#DejaVuSans-74" x="790.669922"/>
      <use xlink:href="#DejaVuSans-69" x="829.878906"/>
      <use xlink:href="#DejaVuSans-6f" x="857.662109"/>
      <use xlink:href="#DejaVuSans-6e" x="918.84375"/>
      <use xlink:href="#DejaVuSans-73" x="982.222656"/>
      <use xlink:href="#DejaVuSans-20" x="1034.322266"/>
      <use xlink:href="#DejaVuSans-6d" x="1066.109375"/>
      <use xlink:href="#DejaVuSans-69" x="1163.521484"/>
      <use xlink:href="#DejaVuSans-6e" x="1191.304688"/>
     </g>
    </g>
   </g>
  </g>
 </g>
 <defs>
  <clipPath id="p4c3710990e">
   <rect x="57.6" y="41.472" width="357.12" height="266.112"/>
  </clipPath>
 </defs>
</svg>
