<?xml version="1.0" encoding="utf-8" standalone="no"?>
<!DOCTYPE svg PUBLIC "-//W3C//DTD SVG 1.1//EN"
  "http://www.w3.org/Graphics/SVG/1.1/DTD/svg11.dtd">
<svg xmlns:xlink="http://www.w3.org/1999/xlink" width="460.8pt" height="345.6pt" viewBox="0 0 460.8 345.6" xmlns="http://www.w3.org/2000/svg" version="1.1">
 <metadata>
  <rdf:RDF xmlns:dc="http://purl.org/dc/elements/1.1/" xmlns:cc="http://creativecommons.org/ns#" xmlns:rdf="http://www.w3.org/1999/02/22-rdf-syntax-ns#">
   <cc:Work>
    <dc:type rdf:resource="http://purl.org/dc/dcmitype/StillImage"/>
    <dc:date>2024-09-06T07:10:59.428593</dc:date>
    <dc:format>image/svg+xml</dc:format>
    <dc:creator>
     <cc:Agent>
      <dc:title>Matplotlib v3.9.0, https://matplotlib.org/</dc:title>
     </cc:Agent>
    </dc:creator>
   </cc:Work>
  </rdf:RDF>
 </metadata>
 <defs>
  <style type="text/css">*{stroke-linejoin: round; stroke-linecap: butt}</style>
 </defs>
 <g id="figure_1">
  <g id="patch_1">
   <path d="M 0 345.6 
L 460.8 345.6 
L 460.8 0 
L 0 0 
z
" style="fill: #ffffff"/>
  </g>
  <g id="axes_1">
   <g id="patch_2">
    <path d="M 57.6 307.584 
L 414.72 307.584 
L 414.72 41.472 
L 57.6 41.472 
z
" style="fill: #ffffff"/>
   </g>
   <g id="matplotlib.axis_1">
    <g id="xtick_1">
     <g id="line2d_1">
      <defs>
       <path id="md62a360958" d="M 0 0 
L 0 3.5 
" style="stroke: #000000; stroke-width: 0.8"/>
      </defs>
      <g>
       <use xlink:href="#md62a360958" x="73.832727" y="307.584" style="stroke: #000000; stroke-width: 0.8"/>
      </g>
     </g>
     <g id="text_1">
      <!-- 0 -->
      <g transform="translate(70.651477 322.182437) scale(0.1 -0.1)">
       <defs>
        <path id="DejaVuSans-30" d="M 2034 4250 
Q 1547 4250 1301 3770 
Q 1056 3291 1056 2328 
Q 1056 1369 1301 889 
Q 1547 409 2034 409 
Q 2525 409 2770 889 
Q 3016 1369 3016 2328 
Q 3016 3291 2770 3770 
Q 2525 4250 2034 4250 
z
M 2034 4750 
Q 2819 4750 3233 4129 
Q 3647 3509 3647 2328 
Q 3647 1150 3233 529 
Q 2819 -91 2034 -91 
Q 1250 -91 836 529 
Q 422 1150 422 2328 
Q 422 3509 836 4129 
Q 1250 4750 2034 4750 
z
" transform="scale(0.015625)"/>
       </defs>
       <use xlink:href="#DejaVuSans-30"/>
      </g>
     </g>
    </g>
    <g id="xtick_2">
     <g id="line2d_2">
      <g>
       <use xlink:href="#md62a360958" x="149.333784" y="307.584" style="stroke: #000000; stroke-width: 0.8"/>
      </g>
     </g>
     <g id="text_2">
      <!-- 50 -->
      <g transform="translate(142.971284 322.182437) scale(0.1 -0.1)">
       <defs>
        <path id="DejaVuSans-35" d="M 691 4666 
L 3169 4666 
L 3169 4134 
L 1269 4134 
L 1269 2991 
Q 1406 3038 1543 3061 
Q 1681 3084 1819 3084 
Q 2600 3084 3056 2656 
Q 3513 2228 3513 1497 
Q 3513 744 3044 326 
Q 2575 -91 1722 -91 
Q 1428 -91 1123 -41 
Q 819 9 494 109 
L 494 744 
Q 775 591 1075 516 
Q 1375 441 1709 441 
Q 2250 441 2565 725 
Q 2881 1009 2881 1497 
Q 2881 1984 2565 2268 
Q 2250 2553 1709 2553 
Q 1456 2553 1204 2497 
Q 953 2441 691 2322 
L 691 4666 
z
" transform="scale(0.015625)"/>
       </defs>
       <use xlink:href="#DejaVuSans-35"/>
       <use xlink:href="#DejaVuSans-30" x="63.623047"/>
      </g>
     </g>
    </g>
    <g id="xtick_3">
     <g id="line2d_3">
      <g>
       <use xlink:href="#md62a360958" x="224.834841" y="307.584" style="stroke: #000000; stroke-width: 0.8"/>
      </g>
     </g>
     <g id="text_3">
      <!-- 100 -->
      <g transform="translate(215.291091 322.182437) scale(0.1 -0.1)">
       <defs>
        <path id="DejaVuSans-31" d="M 794 531 
L 1825 531 
L 1825 4091 
L 703 3866 
L 703 4441 
L 1819 4666 
L 2450 4666 
L 2450 531 
L 3481 531 
L 3481 0 
L 794 0 
L 794 531 
z
" transform="scale(0.015625)"/>
       </defs>
       <use xlink:href="#DejaVuSans-31"/>
       <use xlink:href="#DejaVuSans-30" x="63.623047"/>
       <use xlink:href="#DejaVuSans-30" x="127.246094"/>
      </g>
     </g>
    </g>
    <g id="xtick_4">
     <g id="line2d_4">
      <g>
       <use xlink:href="#md62a360958" x="300.335899" y="307.584" style="stroke: #000000; stroke-width: 0.8"/>
      </g>
     </g>
     <g id="text_4">
      <!-- 150 -->
      <g transform="translate(290.792149 322.182437) scale(0.1 -0.1)">
       <use xlink:href="#DejaVuSans-31"/>
       <use xlink:href="#DejaVuSans-35" x="63.623047"/>
       <use xlink:href="#DejaVuSans-30" x="127.246094"/>
      </g>
     </g>
    </g>
    <g id="xtick_5">
     <g id="line2d_5">
      <g>
       <use xlink:href="#md62a360958" x="375.836956" y="307.584" style="stroke: #000000; stroke-width: 0.8"/>
      </g>
     </g>
     <g id="text_5">
      <!-- 200 -->
      <g transform="translate(366.293206 322.182437) scale(0.1 -0.1)">
       <defs>
        <path id="DejaVuSans-32" d="M 1228 531 
L 3431 531 
L 3431 0 
L 469 0 
L 469 531 
Q 828 903 1448 1529 
Q 2069 2156 2228 2338 
Q 2531 2678 2651 2914 
Q 2772 3150 2772 3378 
Q 2772 3750 2511 3984 
Q 2250 4219 1831 4219 
Q 1534 4219 1204 4116 
Q 875 4013 500 3803 
L 500 4441 
Q 881 4594 1212 4672 
Q 1544 4750 1819 4750 
Q 2544 4750 2975 4387 
Q 3406 4025 3406 3419 
Q 3406 3131 3298 2873 
Q 3191 2616 2906 2266 
Q 2828 2175 2409 1742 
Q 1991 1309 1228 531 
z
" transform="scale(0.015625)"/>
       </defs>
       <use xlink:href="#DejaVuSans-32"/>
       <use xlink:href="#DejaVuSans-30" x="63.623047"/>
       <use xlink:href="#DejaVuSans-30" x="127.246094"/>
      </g>
     </g>
    </g>
   </g>
   <g id="matplotlib.axis_2">
    <g id="ytick_1">
     <g id="line2d_6">
      <defs>
       <path id="m5227b082b7" d="M 0 0 
L -3.5 0 
" style="stroke: #000000; stroke-width: 0.8"/>
      </defs>
      <g>
       <use xlink:href="#m5227b082b7" x="57.6" y="293.835699" style="stroke: #000000; stroke-width: 0.8"/>
      </g>
     </g>
     <g id="text_6">
      <!-- 5000 -->
      <g transform="translate(25.15 297.634918) scale(0.1 -0.1)">
       <use xlink:href="#DejaVuSans-35"/>
       <use xlink:href="#DejaVuSans-30" x="63.623047"/>
       <use xlink:href="#DejaVuSans-30" x="127.246094"/>
       <use xlink:href="#DejaVuSans-30" x="190.869141"/>
      </g>
     </g>
    </g>
    <g id="ytick_2">
     <g id="line2d_7">
      <g>
       <use xlink:href="#m5227b082b7" x="57.6" y="262.263071" style="stroke: #000000; stroke-width: 0.8"/>
      </g>
     </g>
     <g id="text_7">
      <!-- 5500 -->
      <g transform="translate(25.15 266.06229) scale(0.1 -0.1)">
       <use xlink:href="#DejaVuSans-35"/>
       <use xlink:href="#DejaVuSans-35" x="63.623047"/>
       <use xlink:href="#DejaVuSans-30" x="127.246094"/>
       <use xlink:href="#DejaVuSans-30" x="190.869141"/>
      </g>
     </g>
    </g>
    <g id="ytick_3">
     <g id="line2d_8">
      <g>
       <use xlink:href="#m5227b082b7" x="57.6" y="230.690443" style="stroke: #000000; stroke-width: 0.8"/>
      </g>
     </g>
     <g id="text_8">
      <!-- 6000 -->
      <g transform="translate(25.15 234.489662) scale(0.1 -0.1)">
       <defs>
        <path id="DejaVuSans-36" d="M 2113 2584 
Q 1688 2584 1439 2293 
Q 1191 2003 1191 1497 
Q 1191 994 1439 701 
Q 1688 409 2113 409 
Q 2538 409 2786 701 
Q 3034 994 3034 1497 
Q 3034 2003 2786 2293 
Q 2538 2584 2113 2584 
z
M 3366 4563 
L 3366 3988 
Q 3128 4100 2886 4159 
Q 2644 4219 2406 4219 
Q 1781 4219 1451 3797 
Q 1122 3375 1075 2522 
Q 1259 2794 1537 2939 
Q 1816 3084 2150 3084 
Q 2853 3084 3261 2657 
Q 3669 2231 3669 1497 
Q 3669 778 3244 343 
Q 2819 -91 2113 -91 
Q 1303 -91 875 529 
Q 447 1150 447 2328 
Q 447 3434 972 4092 
Q 1497 4750 2381 4750 
Q 2619 4750 2861 4703 
Q 3103 4656 3366 4563 
z
" transform="scale(0.015625)"/>
       </defs>
       <use xlink:href="#DejaVuSans-36"/>
       <use xlink:href="#DejaVuSans-30" x="63.623047"/>
       <use xlink:href="#DejaVuSans-30" x="127.246094"/>
       <use xlink:href="#DejaVuSans-30" x="190.869141"/>
      </g>
     </g>
    </g>
    <g id="ytick_4">
     <g id="line2d_9">
      <g>
       <use xlink:href="#m5227b082b7" x="57.6" y="199.117815" style="stroke: #000000; stroke-width: 0.8"/>
      </g>
     </g>
     <g id="text_9">
      <!-- 6500 -->
      <g transform="translate(25.15 202.917034) scale(0.1 -0.1)">
       <use xlink:href="#DejaVuSans-36"/>
       <use xlink:href="#DejaVuSans-35" x="63.623047"/>
       <use xlink:href="#DejaVuSans-30" x="127.246094"/>
       <use xlink:href="#DejaVuSans-30" x="190.869141"/>
      </g>
     </g>
    </g>
    <g id="ytick_5">
     <g id="line2d_10">
      <g>
       <use xlink:href="#m5227b082b7" x="57.6" y="167.545187" style="stroke: #000000; stroke-width: 0.8"/>
      </g>
     </g>
     <g id="text_10">
      <!-- 7000 -->
      <g transform="translate(25.15 171.344406) scale(0.1 -0.1)">
       <defs>
        <path id="DejaVuSans-37" d="M 525 4666 
L 3525 4666 
L 3525 4397 
L 1831 0 
L 1172 0 
L 2766 4134 
L 525 4134 
L 525 4666 
z
" transform="scale(0.015625)"/>
       </defs>
       <use xlink:href="#DejaVuSans-37"/>
       <use xlink:href="#DejaVuSans-30" x="63.623047"/>
       <use xlink:href="#DejaVuSans-30" x="127.246094"/>
       <use xlink:href="#DejaVuSans-30" x="190.869141"/>
      </g>
     </g>
    </g>
    <g id="ytick_6">
     <g id="line2d_11">
      <g>
       <use xlink:href="#m5227b082b7" x="57.6" y="135.972559" style="stroke: #000000; stroke-width: 0.8"/>
      </g>
     </g>
     <g id="text_11">
      <!-- 7500 -->
      <g transform="translate(25.15 139.771778) scale(0.1 -0.1)">
       <use xlink:href="#DejaVuSans-37"/>
       <use xlink:href="#DejaVuSans-35" x="63.623047"/>
       <use xlink:href="#DejaVuSans-30" x="127.246094"/>
       <use xlink:href="#DejaVuSans-30" x="190.869141"/>
      </g>
     </g>
    </g>
    <g id="ytick_7">
     <g id="line2d_12">
      <g>
       <use xlink:href="#m5227b082b7" x="57.6" y="104.399931" style="stroke: #000000; stroke-width: 0.8"/>
      </g>
     </g>
     <g id="text_12">
      <!-- 8000 -->
      <g transform="translate(25.15 108.19915) scale(0.1 -0.1)">
       <defs>
        <path id="DejaVuSans-38" d="M 2034 2216 
Q 1584 2216 1326 1975 
Q 1069 1734 1069 1313 
Q 1069 891 1326 650 
Q 1584 409 2034 409 
Q 2484 409 2743 651 
Q 3003 894 3003 1313 
Q 3003 1734 2745 1975 
Q 2488 2216 2034 2216 
z
M 1403 2484 
Q 997 2584 770 2862 
Q 544 3141 544 3541 
Q 544 4100 942 4425 
Q 1341 4750 2034 4750 
Q 2731 4750 3128 4425 
Q 3525 4100 3525 3541 
Q 3525 3141 3298 2862 
Q 3072 2584 2669 2484 
Q 3125 2378 3379 2068 
Q 3634 1759 3634 1313 
Q 3634 634 3220 271 
Q 2806 -91 2034 -91 
Q 1263 -91 848 271 
Q 434 634 434 1313 
Q 434 1759 690 2068 
Q 947 2378 1403 2484 
z
M 1172 3481 
Q 1172 3119 1398 2916 
Q 1625 2713 2034 2713 
Q 2441 2713 2670 2916 
Q 2900 3119 2900 3481 
Q 2900 3844 2670 4047 
Q 2441 4250 2034 4250 
Q 1625 4250 1398 4047 
Q 1172 3844 1172 3481 
z
" transform="scale(0.015625)"/>
       </defs>
       <use xlink:href="#DejaVuSans-38"/>
       <use xlink:href="#DejaVuSans-30" x="63.623047"/>
       <use xlink:href="#DejaVuSans-30" x="127.246094"/>
       <use xlink:href="#DejaVuSans-30" x="190.869141"/>
      </g>
     </g>
    </g>
    <g id="ytick_8">
     <g id="line2d_13">
      <g>
       <use xlink:href="#m5227b082b7" x="57.6" y="72.827303" style="stroke: #000000; stroke-width: 0.8"/>
      </g>
     </g>
     <g id="text_13">
      <!-- 8500 -->
      <g transform="translate(25.15 76.626522) scale(0.1 -0.1)">
       <use xlink:href="#DejaVuSans-38"/>
       <use xlink:href="#DejaVuSans-35" x="63.623047"/>
       <use xlink:href="#DejaVuSans-30" x="127.246094"/>
       <use xlink:href="#DejaVuSans-30" x="190.869141"/>
      </g>
     </g>
    </g>
   </g>
   <g id="line2d_14">
    <path d="M 73.832727 295.488 
L 75.342748 294.290345 
L 76.85277 291.109929 
L 78.362791 290.952066 
L 79.872812 290.002782 
L 81.382833 289.675128 
L 82.892854 289.738274 
L 84.402875 289.052446 
L 85.912896 289.013698 
L 87.422918 287.173875 
L 88.932939 282.343263 
L 90.44296 274.844763 
L 91.952981 276.104511 
L 93.463002 275.99085 
L 94.973023 278.133579 
L 96.483044 276.54292 
L 99.503087 276.376036 
L 101.013108 273.250346 
L 102.523129 272.46554 
L 104.03315 269.477417 
L 105.543171 269.127863 
L 107.053192 267.767233 
L 108.563214 268.099497 
L 110.073235 267.68567 
L 111.583256 267.543593 
L 114.603298 266.020214 
L 119.133362 266.102303 
L 120.643383 265.841302 
L 122.153404 265.73606 
L 123.663425 266.493803 
L 125.173446 266.645352 
L 128.193488 266.647156 
L 129.70351 262.747185 
L 131.213531 261.784971 
L 132.723552 262.876482 
L 134.233573 261.396259 
L 135.743594 260.540108 
L 137.253615 260.958069 
L 138.763636 261.031739 
L 140.273658 260.352927 
L 141.783679 259.942483 
L 143.2937 258.742723 
L 147.823763 254.514246 
L 149.333784 252.04256 
L 150.843805 250.143392 
L 152.353827 247.79795 
L 153.863848 246.229438 
L 155.373869 246.385547 
L 156.88389 244.495575 
L 158.393911 244.754614 
L 159.903932 245.322921 
L 162.923975 240.869458 
L 164.433996 239.543408 
L 165.944017 239.309771 
L 167.454038 240.0179 
L 170.47408 240.372716 
L 171.984101 241.159927 
L 173.494123 239.90965 
L 175.004144 240.351667 
L 176.514165 238.924585 
L 178.024186 238.810923 
L 179.534207 238.299446 
L 181.044228 238.315233 
L 182.554249 237.494344 
L 184.064271 235.597732 
L 185.574292 235.12324 
L 188.594334 231.392057 
L 190.104355 230.744568 
L 191.614376 231.090363 
L 193.124397 230.633038 
L 194.634419 231.353468 
L 196.14444 231.735848 
L 197.654461 229.908413 
L 199.164482 230.16724 
L 200.674503 228.126746 
L 202.184524 225.626194 
L 203.694545 224.74216 
L 205.204567 221.660672 
L 206.714588 221.597526 
L 208.224609 222.346249 
L 209.73463 222.394735 
L 211.244651 221.997446 
L 212.754672 220.257444 
L 214.264693 217.493085 
L 215.774715 217.653376 
L 217.284736 215.868529 
L 218.794757 215.39125 
L 221.814799 216.119675 
L 223.32482 216.192292 
L 224.834841 214.146386 
L 226.344863 214.020096 
L 227.854884 212.362533 
L 230.874926 213.167635 
L 232.384947 213.199207 
L 235.404989 212.261049 
L 236.915011 210.25506 
L 238.425032 203.490624 
L 239.935053 205.17976 
L 242.955095 204.611452 
L 244.465116 203.765306 
L 245.975137 206.411092 
L 247.485159 200.342833 
L 248.99518 200.538583 
L 250.505201 199.023097 
L 252.015222 200.522797 
L 255.035264 196.886683 
L 256.545285 193.003249 
L 258.055307 193.750468 
L 259.565328 194.050408 
L 261.075349 194.839724 
L 262.58537 194.92918 
L 264.095391 195.72902 
L 265.605412 194.602929 
L 267.115433 188.414694 
L 268.625455 190.13014 
L 270.135476 190.072257 
L 271.645497 190.364304 
L 273.155518 186.783442 
L 274.665539 186.733452 
L 276.17556 184.736483 
L 277.685581 183.412688 
L 279.195603 182.267053 
L 280.705624 180.363674 
L 282.215645 181.268756 
L 283.725666 178.559524 
L 285.235687 175.596207 
L 286.745708 169.515319 
L 288.255729 165.426313 
L 289.765751 163.132912 
L 291.275772 160.349057 
L 292.785793 159.264739 
L 294.295814 155.292903 
L 295.805835 148.069085 
L 297.315856 147.383518 
L 303.355941 148.544206 
L 304.865962 147.87544 
L 306.375983 144.391927 
L 307.886004 141.897689 
L 309.396025 140.882103 
L 310.906047 140.683195 
L 312.416068 136.502979 
L 313.926089 132.878442 
L 315.43611 131.015657 
L 316.946131 127.33068 
L 318.456152 125.499467 
L 319.966173 125.694316 
L 321.476195 123.406653 
L 322.986216 123.194931 
L 324.496237 123.161501 
L 326.006258 123.450066 
L 327.516279 123.238266 
L 329.0263 121.562812 
L 330.536321 121.491247 
L 332.046342 119.407454 
L 333.556364 109.855681 
L 335.066385 107.999211 
L 336.576406 110.99861 
L 338.086427 110.543062 
L 339.596448 111.939475 
L 341.106469 113.7328 
L 342.61649 111.320651 
L 344.126512 106.67316 
L 345.636533 106.694209 
L 347.146554 107.536145 
L 348.656575 104.031584 
L 350.166596 101.158475 
L 351.676617 101.516298 
L 353.186638 99.253593 
L 354.69666 98.662734 
L 356.206681 98.249583 
L 357.716702 98.456384 
L 359.226723 97.406594 
L 360.736744 97.291579 
L 362.246765 94.877626 
L 363.756786 92.023461 
L 365.266808 84.281853 
L 366.776829 79.946931 
L 368.28685 65.893954 
L 369.796871 62.976643 
L 371.306892 62.181013 
L 372.816913 67.62233 
L 374.326934 68.386087 
L 375.836956 70.328555 
L 377.346977 69.550766 
L 378.856998 72.037987 
L 380.367019 67.791469 
L 381.87704 68.255587 
L 383.387061 69.080685 
L 384.897082 69.691089 
L 386.407104 67.611505 
L 387.917125 66.899542 
L 389.427146 67.523102 
L 390.937167 64.123782 
L 392.447188 63.039788 
L 395.46723 61.994384 
L 396.977252 62.359223 
L 398.487273 56.146431 
L 398.487273 56.146431 
" clip-path="url(#p6e447e70ec)" style="fill: none; stroke: #1f77b4; stroke-opacity: 0.7; stroke-width: 0.5; stroke-linecap: square"/>
   </g>
   <g id="line2d_15">
    <path d="M 73.832727 294.446103 
L 76.85277 290.754211 
L 78.362791 289.714036 
L 79.872812 289.510249 
L 81.382833 288.784079 
L 82.892854 288.973514 
L 84.402875 288.260875 
L 85.912896 288.594643 
L 87.422918 285.778364 
L 88.932939 282.185399 
L 90.44296 275.406305 
L 91.952981 276.012951 
L 93.463002 275.80422 
L 94.973023 278.610676 
L 96.483044 276.667206 
L 97.993066 276.319205 
L 99.503087 275.807729 
L 101.013108 273.780766 
L 102.523129 271.267585 
L 104.03315 269.749292 
L 105.543171 267.993503 
L 107.053192 266.80953 
L 108.563214 267.104207 
L 110.073235 266.725336 
L 111.583256 266.782467 
L 114.603298 264.27109 
L 116.113319 265.239919 
L 117.62334 264.247636 
L 119.133362 264.691293 
L 120.643383 264.668905 
L 122.153404 263.967993 
L 123.663425 265.598289 
L 125.173446 265.47085 
L 126.683467 265.679229 
L 128.193488 265.476463 
L 129.70351 261.21486 
L 131.213531 260.656375 
L 132.723552 261.000166 
L 134.233573 259.93459 
L 135.743594 259.633257 
L 137.253615 258.790082 
L 138.763636 259.540396 
L 140.273658 259.647053 
L 141.783679 259.032139 
L 144.803721 256.374776 
L 146.313742 254.748786 
L 147.823763 253.955962 
L 149.333784 251.265272 
L 150.843805 249.341973 
L 152.353827 246.918774 
L 153.863848 245.671655 
L 155.373869 245.582199 
L 156.88389 244.193004 
L 158.393911 244.750787 
L 159.903932 244.690648 
L 161.413953 242.029527 
L 162.923975 239.699166 
L 164.433996 237.720615 
L 165.944017 237.681525 
L 167.454038 238.638852 
L 168.964059 239.453601 
L 170.47408 239.243117 
L 171.984101 240.37873 
L 173.494123 239.446585 
L 175.004144 238.926389 
L 176.514165 237.85743 
L 178.024186 237.334727 
L 179.534207 236.936561 
L 181.044228 237.329716 
L 182.554249 235.963072 
L 185.574292 233.841391 
L 187.084313 231.85412 
L 188.594334 230.401779 
L 190.104355 229.70643 
L 191.614376 229.890603 
L 193.124397 229.380179 
L 194.634419 231.037742 
L 196.14444 230.848306 
L 197.654461 228.985521 
L 199.164482 229.269675 
L 200.674503 227.507922 
L 202.184524 224.886342 
L 203.694545 224.018094 
L 205.204567 221.639623 
L 206.714588 220.88188 
L 208.224609 221.68593 
L 209.73463 221.944825 
L 211.244651 221.660672 
L 212.754672 219.612961 
L 214.264693 216.693245 
L 215.774715 217.019495 
L 217.284736 214.777839 
L 218.794757 214.245614 
L 220.304778 215.567154 
L 221.814799 214.533151 
L 223.32482 215.546106 
L 224.834841 213.570186 
L 226.344863 213.123433 
L 227.854884 212.080634 
L 229.364905 211.981406 
L 230.874926 212.615114 
L 232.384947 211.762653 
L 233.894968 211.757391 
L 235.404989 211.573217 
L 236.915011 209.129846 
L 238.425032 203.650241 
L 239.935053 204.744057 
L 241.445074 204.848247 
L 242.955095 203.924748 
L 244.465116 203.846693 
L 245.975137 204.24521 
L 247.485159 199.338824 
L 248.99518 199.338824 
L 250.505201 196.112101 
L 252.015222 198.244306 
L 253.525243 195.907931 
L 255.035264 195.240696 
L 256.545285 189.40397 
L 258.055307 190.514274 
L 259.565328 192.092905 
L 261.075349 192.020288 
L 262.58537 192.898007 
L 264.095391 194.454087 
L 265.605412 193.261093 
L 267.115433 188.80409 
L 268.625455 189.844483 
L 270.135476 188.597815 
L 271.645497 188.951429 
L 273.155518 186.099368 
L 274.665539 185.249538 
L 276.17556 182.965259 
L 277.685581 182.657952 
L 279.195603 180.27948 
L 280.705624 179.132342 
L 282.215645 180.047948 
L 283.725666 177.090645 
L 285.235687 174.817416 
L 286.745708 168.104474 
L 288.255729 164.315758 
L 289.765751 161.183303 
L 291.275772 158.536464 
L 292.785793 156.810494 
L 294.295814 152.724093 
L 295.805835 145.778115 
L 297.315856 144.767791 
L 298.825877 145.054952 
L 300.335899 144.686604 
L 301.84592 147.187157 
L 303.355941 146.27576 
L 304.865962 146.202091 
L 306.375983 143.171118 
L 307.886004 140.872631 
L 309.396025 138.814096 
L 310.906047 139.214016 
L 313.926089 130.623254 
L 315.43611 128.710855 
L 316.946131 124.364356 
L 318.456152 125.006333 
L 319.966173 123.31825 
L 321.476195 122.191107 
L 322.986216 121.564917 
L 324.496237 123.322459 
L 326.006258 121.945292 
L 327.516279 122.817297 
L 329.0263 120.091527 
L 330.536321 120.736511 
L 332.046342 117.841977 
L 333.556364 109.861996 
L 335.066385 107.667698 
L 336.576406 109.497475 
L 338.086427 110.327692 
L 339.596448 109.844455 
L 341.106469 112.293088 
L 342.61649 111.17226 
L 344.126512 106.231144 
L 345.636533 106.909955 
L 350.166596 98.51339 
L 351.676617 99.853473 
L 353.186638 96.624044 
L 354.69666 96.854073 
L 356.206681 97.921228 
L 357.716702 96.443629 
L 359.226723 96.727782 
L 360.736744 95.460367 
L 362.246765 93.248479 
L 363.756786 90.718459 
L 365.266808 83.486222 
L 366.776829 78.768698 
L 368.28685 65.605782 
L 369.796871 61.568504 
L 371.306892 63.715443 
L 372.816913 65.628744 
L 374.326934 68.864938 
L 375.836956 67.975643 
L 377.346977 69.30921 
L 378.856998 67.775683 
L 380.367019 65.186727 
L 381.87704 64.970229 
L 383.387061 67.070561 
L 384.897082 66.070761 
L 386.407104 64.852959 
L 387.917125 63.833614 
L 389.427146 63.829104 
L 390.937167 62.591457 
L 392.447188 59.587848 
L 393.957209 60.539236 
L 395.46723 59.61942 
L 396.977252 59.405428 
L 398.487273 53.757436 
L 398.487273 53.757436 
" clip-path="url(#p6e447e70ec)" style="fill: none; stroke: #ff7f0e; stroke-opacity: 0.7; stroke-width: 0.5; stroke-linecap: square"/>
   </g>
   <g id="line2d_16">
    <path d="M 73.832727 294.967052 
L 75.342748 293.415783 
L 76.85277 290.93207 
L 81.382833 289.229604 
L 82.892854 289.355894 
L 84.402875 288.656661 
L 85.912896 288.80417 
L 87.422918 286.47612 
L 88.932939 282.264331 
L 90.44296 275.125534 
L 91.952981 276.058731 
L 93.463002 275.897535 
L 94.973023 278.372128 
L 96.483044 276.605063 
L 99.503087 276.091882 
L 101.013108 273.515556 
L 102.523129 271.866562 
L 104.03315 269.613354 
L 105.543171 268.560683 
L 107.053192 267.288381 
L 108.563214 267.601852 
L 110.073235 267.205503 
L 111.583256 267.16303 
L 114.603298 265.145652 
L 116.113319 265.652167 
L 117.62334 265.173391 
L 119.133362 265.396798 
L 120.643383 265.255104 
L 122.153404 264.852027 
L 123.663425 266.046046 
L 128.193488 266.06181 
L 129.70351 261.981022 
L 131.213531 261.220673 
L 132.723552 261.938324 
L 134.233573 260.665424 
L 135.743594 260.086682 
L 137.253615 259.874076 
L 138.763636 260.286067 
L 140.273658 259.99999 
L 141.783679 259.487311 
L 143.2937 258.253347 
L 146.313742 255.301307 
L 147.823763 254.235104 
L 149.333784 251.653916 
L 150.843805 249.742682 
L 152.353827 247.358362 
L 153.863848 245.950547 
L 155.373869 245.983873 
L 156.88389 244.344289 
L 158.393911 244.7527 
L 159.903932 245.006785 
L 161.413953 242.526514 
L 162.923975 240.284312 
L 164.433996 238.632011 
L 165.944017 238.495648 
L 167.454038 239.328376 
L 168.964059 239.816937 
L 170.47408 239.807916 
L 171.984101 240.769328 
L 173.494123 239.678118 
L 175.004144 239.639028 
L 176.514165 238.391007 
L 178.024186 238.072825 
L 179.534207 237.618004 
L 181.044228 237.822474 
L 182.554249 236.728708 
L 184.064271 235.259453 
L 185.574292 234.482316 
L 187.084313 232.545711 
L 188.594334 230.896918 
L 190.104355 230.225499 
L 191.614376 230.490483 
L 193.124397 230.006609 
L 194.634419 231.195605 
L 196.14444 231.292077 
L 197.654461 229.446967 
L 199.164482 229.718457 
L 200.674503 227.817334 
L 202.184524 225.256268 
L 203.694545 224.380127 
L 205.204567 221.650147 
L 206.714588 221.239703 
L 208.224609 222.016089 
L 209.73463 222.16978 
L 211.244651 221.829059 
L 212.754672 219.935202 
L 214.264693 217.093165 
L 215.774715 217.336436 
L 217.284736 215.323184 
L 218.794757 214.818432 
L 220.304778 215.668638 
L 221.814799 215.326413 
L 223.32482 215.869199 
L 224.834841 213.858286 
L 226.344863 213.571764 
L 227.854884 212.221583 
L 229.364905 212.385084 
L 230.874926 212.891374 
L 232.384947 212.48093 
L 235.404989 211.917133 
L 236.915011 209.692453 
L 238.425032 203.570433 
L 239.935053 204.961909 
L 241.445074 204.843511 
L 244.465116 203.806 
L 245.975137 205.328151 
L 247.485159 199.840828 
L 248.99518 199.938703 
L 250.505201 197.567599 
L 252.015222 199.383551 
L 253.525243 197.312913 
L 255.035264 196.06369 
L 256.545285 191.20361 
L 259.565328 193.071657 
L 261.075349 193.430006 
L 262.58537 193.913594 
L 264.095391 195.091553 
L 265.605412 193.932011 
L 267.115433 188.609392 
L 268.625455 189.987312 
L 270.135476 189.335036 
L 271.645497 189.657866 
L 273.155518 186.441405 
L 274.665539 185.991495 
L 276.17556 183.850871 
L 277.685581 183.03532 
L 279.195603 181.273266 
L 280.705624 179.748008 
L 282.215645 180.658352 
L 285.235687 175.206812 
L 286.745708 168.809896 
L 288.255729 164.871036 
L 291.275772 159.44276 
L 292.785793 158.037616 
L 294.295814 154.008498 
L 295.805835 146.9236 
L 297.315856 146.075655 
L 298.825877 146.371355 
L 300.335899 146.282995 
L 301.84592 147.757569 
L 304.865962 147.038765 
L 306.375983 143.781522 
L 307.886004 141.38516 
L 309.396025 139.848099 
L 310.906047 139.948605 
L 312.416068 135.640759 
L 313.926089 131.750848 
L 315.43611 129.863256 
L 316.946131 125.847518 
L 318.456152 125.2529 
L 319.966173 124.506283 
L 321.476195 122.79888 
L 322.986216 122.379924 
L 324.496237 123.24198 
L 326.006258 122.697679 
L 327.516279 123.027782 
L 329.0263 120.827169 
L 330.536321 121.113879 
L 332.046342 118.624716 
L 333.556364 109.858838 
L 335.066385 107.833454 
L 336.576406 110.248043 
L 338.086427 110.435377 
L 339.596448 110.891965 
L 341.106469 113.012944 
L 342.61649 111.246455 
L 344.126512 106.452152 
L 345.636533 106.802082 
L 347.146554 105.835433 
L 350.166596 99.835932 
L 351.676617 100.684885 
L 353.186638 97.938818 
L 354.69666 97.758403 
L 356.206681 98.085405 
L 357.716702 97.450006 
L 359.226723 97.067188 
L 360.736744 96.375973 
L 362.246765 94.063053 
L 363.756786 91.37096 
L 365.266808 83.884037 
L 366.776829 79.357814 
L 368.28685 65.749868 
L 369.796871 62.272574 
L 371.306892 62.948228 
L 372.816913 66.625537 
L 374.326934 68.625513 
L 375.836956 69.152099 
L 377.346977 69.429988 
L 378.856998 69.906835 
L 380.367019 66.489098 
L 381.87704 66.612908 
L 383.387061 68.075623 
L 384.897082 67.880925 
L 386.407104 66.232232 
L 387.917125 65.366578 
L 389.427146 65.676103 
L 390.937167 63.35762 
L 392.447188 61.313818 
L 393.957209 61.532421 
L 395.46723 60.806902 
L 396.977252 60.882325 
L 398.487273 54.951934 
L 398.487273 54.951934 
" clip-path="url(#p6e447e70ec)" style="fill: none; stroke: #2ca02c; stroke-opacity: 0.7; stroke-width: 0.5; stroke-linecap: square"/>
   </g>
   <g id="line2d_17">
    <path d="M 73.832727 294.340861 
L 75.342748 291.815051 
L 78.362791 290.552146 
L 79.872812 290.173274 
L 81.382833 290.110129 
L 82.892854 289.352386 
L 84.402875 289.415531 
L 85.912896 287.142302 
L 87.422918 283.290441 
L 88.932939 277.291642 
L 90.44296 277.417933 
L 91.952981 277.923095 
L 93.463002 279.31229 
L 94.973023 277.733659 
L 96.483044 277.165352 
L 97.993066 276.281318 
L 99.503087 274.26067 
L 101.013108 272.618893 
L 102.523129 270.408809 
L 104.03315 269.777357 
L 105.543171 268.26187 
L 107.053192 268.26187 
L 108.563214 268.072435 
L 110.073235 268.009289 
L 113.093277 266.241222 
L 114.603298 266.241222 
L 116.113319 266.114932 
L 117.62334 266.114932 
L 119.133362 265.862351 
L 120.643383 265.799205 
L 122.153404 266.367513 
L 123.663425 266.556949 
L 125.173446 266.493803 
L 126.683467 266.556949 
L 128.193488 263.273395 
L 129.70351 261.8842 
L 131.213531 262.831378 
L 132.723552 261.568473 
L 134.233573 261.063311 
L 135.743594 260.747585 
L 137.253615 260.81073 
L 138.763636 260.242423 
L 140.273658 259.926697 
L 141.783679 259.105808 
L 143.2937 257.716613 
L 144.803721 256.137981 
L 146.313742 254.875076 
L 147.823763 252.664992 
L 149.333784 250.707489 
L 150.843805 248.43426 
L 152.353827 247.10821 
L 153.863848 246.855629 
L 155.373869 245.529578 
L 156.88389 245.276997 
L 158.393911 245.90845 
L 161.413953 240.98312 
L 162.923975 239.530779 
L 164.433996 239.341343 
L 165.944017 239.90965 
L 168.964059 240.288522 
L 170.47408 240.919975 
L 171.984101 239.657069 
L 173.494123 240.035941 
L 175.004144 238.646745 
L 176.514165 238.5836 
L 178.024186 238.078438 
L 179.534207 238.204729 
L 181.044228 237.320695 
L 182.554249 235.678918 
L 184.064271 235.173756 
L 185.574292 233.026818 
L 187.084313 231.574477 
L 188.594334 231.006169 
L 190.104355 231.25875 
L 191.614376 230.690443 
L 193.124397 231.195605 
L 194.634419 231.574477 
L 196.14444 230.185281 
L 197.654461 230.311572 
L 199.164482 228.227778 
L 200.674503 225.891404 
L 202.184524 224.944225 
L 203.694545 222.60785 
L 205.204567 222.228979 
L 206.714588 222.670996 
L 208.224609 222.670996 
L 209.73463 222.48156 
L 211.244651 220.587202 
L 212.754672 217.935101 
L 214.264693 217.998247 
L 215.774715 215.977598 
L 217.284736 215.661872 
L 218.794757 216.482761 
L 220.304778 215.977598 
L 221.814799 216.545906 
L 223.32482 214.335822 
L 224.834841 213.893805 
L 226.344863 212.820336 
L 227.854884 212.946626 
L 229.364905 213.514933 
L 232.384947 212.6309 
L 233.894968 212.504609 
L 235.404989 210.610252 
L 236.915011 205.17976 
L 238.425032 206.126939 
L 239.935053 206.000648 
L 241.445074 205.621776 
L 242.955095 204.800888 
L 244.465116 206.063793 
L 245.975137 201.517335 
L 247.485159 201.517335 
L 248.99518 198.991525 
L 250.505201 200.38072 
L 252.015222 198.360072 
L 253.525243 197.097167 
L 255.035264 192.487563 
L 256.545285 193.308452 
L 258.055307 193.497887 
L 259.565328 194.12934 
L 261.075349 194.192485 
L 262.58537 195.139664 
L 264.095391 194.003049 
L 265.605412 190.277479 
L 267.115433 191.098368 
L 270.135476 190.151189 
L 271.645497 186.867635 
L 273.155518 186.741345 
L 274.665539 184.40497 
L 276.17556 183.899808 
L 277.685581 182.005451 
L 279.195603 180.55311 
L 280.705624 181.310853 
L 282.215645 178.595607 
L 283.725666 176.322378 
L 285.235687 170.260433 
L 286.745708 166.471718 
L 289.765751 160.662354 
L 291.275772 159.588885 
L 292.785793 155.673879 
L 294.295814 148.727901 
L 295.805835 147.717577 
L 297.315856 147.843867 
L 298.825877 148.096448 
L 300.335899 148.791046 
L 301.84592 148.727901 
L 303.355941 148.033303 
L 306.375983 142.413375 
L 307.886004 141.339906 
L 309.396025 140.897889 
L 312.416068 133.446749 
L 313.926089 131.994408 
L 315.43611 127.763676 
L 316.946131 126.690206 
L 318.456152 125.869318 
L 319.966173 124.038106 
L 322.986216 123.659234 
L 324.496237 123.911815 
L 326.006258 123.343508 
L 327.516279 122.017458 
L 329.0263 121.891167 
L 330.536321 119.365357 
L 332.046342 111.787926 
L 333.556364 110.019859 
L 335.066385 111.4722 
L 336.576406 111.977362 
L 338.086427 111.977362 
L 339.596448 113.492848 
L 341.106469 112.924541 
L 342.61649 108.062356 
L 344.126512 108.251792 
L 345.636533 106.988887 
L 347.146554 103.957914 
L 348.656575 101.242668 
L 350.166596 101.558395 
L 351.676617 98.590568 
L 353.186638 98.780003 
L 354.69666 98.716858 
L 356.206681 98.464277 
L 357.716702 97.517098 
L 359.226723 97.327662 
L 360.736744 95.49645 
L 362.246765 92.718059 
L 363.756786 85.898371 
L 365.266808 81.541348 
L 366.776829 69.228023 
L 368.28685 65.060437 
L 369.796871 66.386487 
L 371.306892 69.606895 
L 372.816913 69.733186 
L 374.326934 70.74351 
L 375.836956 70.680364 
L 377.346977 71.059236 
L 378.856998 68.154554 
L 380.367019 67.901973 
L 381.87704 68.659716 
L 383.387061 68.786007 
L 384.897082 67.396811 
L 386.407104 66.765359 
L 387.917125 67.01794 
L 389.427146 63.923822 
L 390.937167 62.724062 
L 392.447188 61.966319 
L 393.957209 62.029464 
L 395.46723 61.650593 
L 396.977252 56.346391 
L 398.487273 53.568 
L 398.487273 53.568 
" clip-path="url(#p6e447e70ec)" style="fill: none; stroke: #d62728; stroke-opacity: 0.7; stroke-width: 0.5; stroke-linecap: square"/>
   </g>
   <g id="patch_3">
    <path d="M 57.6 307.584 
L 57.6 41.472 
" style="fill: none; stroke: #000000; stroke-width: 0.8; stroke-linejoin: miter; stroke-linecap: square"/>
   </g>
   <g id="patch_4">
    <path d="M 414.72 307.584 
L 414.72 41.472 
" style="fill: none; stroke: #000000; stroke-width: 0.8; stroke-linejoin: miter; stroke-linecap: square"/>
   </g>
   <g id="patch_5">
    <path d="M 57.6 307.584 
L 414.72 307.584 
" style="fill: none; stroke: #000000; stroke-width: 0.8; stroke-linejoin: miter; stroke-linecap: square"/>
   </g>
   <g id="patch_6">
    <path d="M 57.6 41.472 
L 414.72 41.472 
" style="fill: none; stroke: #000000; stroke-width: 0.8; stroke-linejoin: miter; stroke-linecap: square"/>
   </g>
   <g id="text_14">
    <!-- 1final_naive_jc_cci -->
    <g transform="translate(180.796875 35.472) scale(0.12 -0.12)">
     <defs>
      <path id="DejaVuSans-66" d="M 2375 4863 
L 2375 4384 
L 1825 4384 
Q 1516 4384 1395 4259 
Q 1275 4134 1275 3809 
L 1275 3500 
L 2222 3500 
L 2222 3053 
L 1275 3053 
L 1275 0 
L 697 0 
L 697 3053 
L 147 3053 
L 147 3500 
L 697 3500 
L 697 3744 
Q 697 4328 969 4595 
Q 1241 4863 1831 4863 
L 2375 4863 
z
" transform="scale(0.015625)"/>
      <path id="DejaVuSans-69" d="M 603 3500 
L 1178 3500 
L 1178 0 
L 603 0 
L 603 3500 
z
M 603 4863 
L 1178 4863 
L 1178 4134 
L 603 4134 
L 603 4863 
z
" transform="scale(0.015625)"/>
      <path id="DejaVuSans-6e" d="M 3513 2113 
L 3513 0 
L 2938 0 
L 2938 2094 
Q 2938 2591 2744 2837 
Q 2550 3084 2163 3084 
Q 1697 3084 1428 2787 
Q 1159 2491 1159 1978 
L 1159 0 
L 581 0 
L 581 3500 
L 1159 3500 
L 1159 2956 
Q 1366 3272 1645 3428 
Q 1925 3584 2291 3584 
Q 2894 3584 3203 3211 
Q 3513 2838 3513 2113 
z
" transform="scale(0.015625)"/>
      <path id="DejaVuSans-61" d="M 2194 1759 
Q 1497 1759 1228 1600 
Q 959 1441 959 1056 
Q 959 750 1161 570 
Q 1363 391 1709 391 
Q 2188 391 2477 730 
Q 2766 1069 2766 1631 
L 2766 1759 
L 2194 1759 
z
M 3341 1997 
L 3341 0 
L 2766 0 
L 2766 531 
Q 2569 213 2275 61 
Q 1981 -91 1556 -91 
Q 1019 -91 701 211 
Q 384 513 384 1019 
Q 384 1609 779 1909 
Q 1175 2209 1959 2209 
L 2766 2209 
L 2766 2266 
Q 2766 2663 2505 2880 
Q 2244 3097 1772 3097 
Q 1472 3097 1187 3025 
Q 903 2953 641 2809 
L 641 3341 
Q 956 3463 1253 3523 
Q 1550 3584 1831 3584 
Q 2591 3584 2966 3190 
Q 3341 2797 3341 1997 
z
" transform="scale(0.015625)"/>
      <path id="DejaVuSans-6c" d="M 603 4863 
L 1178 4863 
L 1178 0 
L 603 0 
L 603 4863 
z
" transform="scale(0.015625)"/>
      <path id="DejaVuSans-5f" d="M 3263 -1063 
L 3263 -1509 
L -63 -1509 
L -63 -1063 
L 3263 -1063 
z
" transform="scale(0.015625)"/>
      <path id="DejaVuSans-76" d="M 191 3500 
L 800 3500 
L 1894 563 
L 2988 3500 
L 3597 3500 
L 2284 0 
L 1503 0 
L 191 3500 
z
" transform="scale(0.015625)"/>
      <path id="DejaVuSans-65" d="M 3597 1894 
L 3597 1613 
L 953 1613 
Q 991 1019 1311 708 
Q 1631 397 2203 397 
Q 2534 397 2845 478 
Q 3156 559 3463 722 
L 3463 178 
Q 3153 47 2828 -22 
Q 2503 -91 2169 -91 
Q 1331 -91 842 396 
Q 353 884 353 1716 
Q 353 2575 817 3079 
Q 1281 3584 2069 3584 
Q 2775 3584 3186 3129 
Q 3597 2675 3597 1894 
z
M 3022 2063 
Q 3016 2534 2758 2815 
Q 2500 3097 2075 3097 
Q 1594 3097 1305 2825 
Q 1016 2553 972 2059 
L 3022 2063 
z
" transform="scale(0.015625)"/>
      <path id="DejaVuSans-6a" d="M 603 3500 
L 1178 3500 
L 1178 -63 
Q 1178 -731 923 -1031 
Q 669 -1331 103 -1331 
L -116 -1331 
L -116 -844 
L 38 -844 
Q 366 -844 484 -692 
Q 603 -541 603 -63 
L 603 3500 
z
M 603 4863 
L 1178 4863 
L 1178 4134 
L 603 4134 
L 603 4863 
z
" transform="scale(0.015625)"/>
      <path id="DejaVuSans-63" d="M 3122 3366 
L 3122 2828 
Q 2878 2963 2633 3030 
Q 2388 3097 2138 3097 
Q 1578 3097 1268 2742 
Q 959 2388 959 1747 
Q 959 1106 1268 751 
Q 1578 397 2138 397 
Q 2388 397 2633 464 
Q 2878 531 3122 666 
L 3122 134 
Q 2881 22 2623 -34 
Q 2366 -91 2075 -91 
Q 1284 -91 818 406 
Q 353 903 353 1747 
Q 353 2603 823 3093 
Q 1294 3584 2113 3584 
Q 2378 3584 2631 3529 
Q 2884 3475 3122 3366 
z
" transform="scale(0.015625)"/>
     </defs>
     <use xlink:href="#DejaVuSans-31"/>
     <use xlink:href="#DejaVuSans-66" x="63.623047"/>
     <use xlink:href="#DejaVuSans-69" x="98.828125"/>
     <use xlink:href="#DejaVuSans-6e" x="126.611328"/>
     <use xlink:href="#DejaVuSans-61" x="189.990234"/>
     <use xlink:href="#DejaVuSans-6c" x="251.269531"/>
     <use xlink:href="#DejaVuSans-5f" x="279.052734"/>
     <use xlink:href="#DejaVuSans-6e" x="329.052734"/>
     <use xlink:href="#DejaVuSans-61" x="392.431641"/>
     <use xlink:href="#DejaVuSans-69" x="453.710938"/>
     <use xlink:href="#DejaVuSans-76" x="481.494141"/>
     <use xlink:href="#DejaVuSans-65" x="540.673828"/>
     <use xlink:href="#DejaVuSans-5f" x="602.197266"/>
     <use xlink:href="#DejaVuSans-6a" x="652.197266"/>
     <use xlink:href="#DejaVuSans-63" x="679.980469"/>
     <use xlink:href="#DejaVuSans-5f" x="734.960938"/>
     <use xlink:href="#DejaVuSans-63" x="784.960938"/>
     <use xlink:href="#DejaVuSans-63" x="839.941406"/>
     <use xlink:href="#DejaVuSans-69" x="894.921875"/>
    </g>
   </g>
   <g id="legend_1">
    <g id="patch_7">
     <path d="M 64.6 108.1845 
L 200.035938 108.1845 
Q 202.035938 108.1845 202.035938 106.1845 
L 202.035938 48.472 
Q 202.035938 46.472 200.035938 46.472 
L 64.6 46.472 
Q 62.6 46.472 62.6 48.472 
L 62.6 106.1845 
Q 62.6 108.1845 64.6 108.1845 
z
" style="fill: #ffffff; opacity: 0.8; stroke: #cccccc; stroke-linejoin: miter"/>
    </g>
    <g id="line2d_18">
     <path d="M 66.6 54.570438 
L 76.6 54.570438 
L 86.6 54.570438 
" style="fill: none; stroke: #1f77b4; stroke-opacity: 0.7; stroke-width: 0.5; stroke-linecap: square"/>
    </g>
    <g id="text_15">
     <!-- Positive predictions -->
     <g transform="translate(94.6 58.070438) scale(0.1 -0.1)">
      <defs>
       <path id="DejaVuSans-50" d="M 1259 4147 
L 1259 2394 
L 2053 2394 
Q 2494 2394 2734 2622 
Q 2975 2850 2975 3272 
Q 2975 3691 2734 3919 
Q 2494 4147 2053 4147 
L 1259 4147 
z
M 628 4666 
L 2053 4666 
Q 2838 4666 3239 4311 
Q 3641 3956 3641 3272 
Q 3641 2581 3239 2228 
Q 2838 1875 2053 1875 
L 1259 1875 
L 1259 0 
L 628 0 
L 628 4666 
z
" transform="scale(0.015625)"/>
       <path id="DejaVuSans-6f" d="M 1959 3097 
Q 1497 3097 1228 2736 
Q 959 2375 959 1747 
Q 959 1119 1226 758 
Q 1494 397 1959 397 
Q 2419 397 2687 759 
Q 2956 1122 2956 1747 
Q 2956 2369 2687 2733 
Q 2419 3097 1959 3097 
z
M 1959 3584 
Q 2709 3584 3137 3096 
Q 3566 2609 3566 1747 
Q 3566 888 3137 398 
Q 2709 -91 1959 -91 
Q 1206 -91 779 398 
Q 353 888 353 1747 
Q 353 2609 779 3096 
Q 1206 3584 1959 3584 
z
" transform="scale(0.015625)"/>
       <path id="DejaVuSans-73" d="M 2834 3397 
L 2834 2853 
Q 2591 2978 2328 3040 
Q 2066 3103 1784 3103 
Q 1356 3103 1142 2972 
Q 928 2841 928 2578 
Q 928 2378 1081 2264 
Q 1234 2150 1697 2047 
L 1894 2003 
Q 2506 1872 2764 1633 
Q 3022 1394 3022 966 
Q 3022 478 2636 193 
Q 2250 -91 1575 -91 
Q 1294 -91 989 -36 
Q 684 19 347 128 
L 347 722 
Q 666 556 975 473 
Q 1284 391 1588 391 
Q 1994 391 2212 530 
Q 2431 669 2431 922 
Q 2431 1156 2273 1281 
Q 2116 1406 1581 1522 
L 1381 1569 
Q 847 1681 609 1914 
Q 372 2147 372 2553 
Q 372 3047 722 3315 
Q 1072 3584 1716 3584 
Q 2034 3584 2315 3537 
Q 2597 3491 2834 3397 
z
" transform="scale(0.015625)"/>
       <path id="DejaVuSans-74" d="M 1172 4494 
L 1172 3500 
L 2356 3500 
L 2356 3053 
L 1172 3053 
L 1172 1153 
Q 1172 725 1289 603 
Q 1406 481 1766 481 
L 2356 481 
L 2356 0 
L 1766 0 
Q 1100 0 847 248 
Q 594 497 594 1153 
L 594 3053 
L 172 3053 
L 172 3500 
L 594 3500 
L 594 4494 
L 1172 4494 
z
" transform="scale(0.015625)"/>
       <path id="DejaVuSans-20" transform="scale(0.015625)"/>
       <path id="DejaVuSans-70" d="M 1159 525 
L 1159 -1331 
L 581 -1331 
L 581 3500 
L 1159 3500 
L 1159 2969 
Q 1341 3281 1617 3432 
Q 1894 3584 2278 3584 
Q 2916 3584 3314 3078 
Q 3713 2572 3713 1747 
Q 3713 922 3314 415 
Q 2916 -91 2278 -91 
Q 1894 -91 1617 61 
Q 1341 213 1159 525 
z
M 3116 1747 
Q 3116 2381 2855 2742 
Q 2594 3103 2138 3103 
Q 1681 3103 1420 2742 
Q 1159 2381 1159 1747 
Q 1159 1113 1420 752 
Q 1681 391 2138 391 
Q 2594 391 2855 752 
Q 3116 1113 3116 1747 
z
" transform="scale(0.015625)"/>
       <path id="DejaVuSans-72" d="M 2631 2963 
Q 2534 3019 2420 3045 
Q 2306 3072 2169 3072 
Q 1681 3072 1420 2755 
Q 1159 2438 1159 1844 
L 1159 0 
L 581 0 
L 581 3500 
L 1159 3500 
L 1159 2956 
Q 1341 3275 1631 3429 
Q 1922 3584 2338 3584 
Q 2397 3584 2469 3576 
Q 2541 3569 2628 3553 
L 2631 2963 
z
" transform="scale(0.015625)"/>
       <path id="DejaVuSans-64" d="M 2906 2969 
L 2906 4863 
L 3481 4863 
L 3481 0 
L 2906 0 
L 2906 525 
Q 2725 213 2448 61 
Q 2172 -91 1784 -91 
Q 1150 -91 751 415 
Q 353 922 353 1747 
Q 353 2572 751 3078 
Q 1150 3584 1784 3584 
Q 2172 3584 2448 3432 
Q 2725 3281 2906 2969 
z
M 947 1747 
Q 947 1113 1208 752 
Q 1469 391 1925 391 
Q 2381 391 2643 752 
Q 2906 1113 2906 1747 
Q 2906 2381 2643 2742 
Q 2381 3103 1925 3103 
Q 1469 3103 1208 2742 
Q 947 2381 947 1747 
z
" transform="scale(0.015625)"/>
      </defs>
      <use xlink:href="#DejaVuSans-50"/>
      <use xlink:href="#DejaVuSans-6f" x="56.677734"/>
      <use xlink:href="#DejaVuSans-73" x="117.859375"/>
      <use xlink:href="#DejaVuSans-69" x="169.958984"/>
      <use xlink:href="#DejaVuSans-74" x="197.742188"/>
      <use xlink:href="#DejaVuSans-69" x="236.951172"/>
      <use xlink:href="#DejaVuSans-76" x="264.734375"/>
      <use xlink:href="#DejaVuSans-65" x="323.914062"/>
      <use xlink:href="#DejaVuSans-20" x="385.4375"/>
      <use xlink:href="#DejaVuSans-70" x="417.224609"/>
      <use xlink:href="#DejaVuSans-72" x="480.701172"/>
      <use xlink:href="#DejaVuSans-65" x="519.564453"/>
      <use xlink:href="#DejaVuSans-64" x="581.087891"/>
      <use xlink:href="#DejaVuSans-69" x="644.564453"/>
      <use xlink:href="#DejaVuSans-63" x="672.347656"/>
      <use xlink:href="#DejaVuSans-74" x="727.328125"/>
      <use xlink:href="#DejaVuSans-69" x="766.537109"/>
      <use xlink:href="#DejaVuSans-6f" x="794.320312"/>
      <use xlink:href="#DejaVuSans-6e" x="855.501953"/>
      <use xlink:href="#DejaVuSans-73" x="918.880859"/>
     </g>
    </g>
    <g id="line2d_19">
     <path d="M 66.6 69.248563 
L 76.6 69.248563 
L 86.6 69.248563 
" style="fill: none; stroke: #ff7f0e; stroke-opacity: 0.7; stroke-width: 0.5; stroke-linecap: square"/>
    </g>
    <g id="text_16">
     <!-- Negative predictions -->
     <g transform="translate(94.6 72.748563) scale(0.1 -0.1)">
      <defs>
       <path id="DejaVuSans-4e" d="M 628 4666 
L 1478 4666 
L 3547 763 
L 3547 4666 
L 4159 4666 
L 4159 0 
L 3309 0 
L 1241 3903 
L 1241 0 
L 628 0 
L 628 4666 
z
" transform="scale(0.015625)"/>
       <path id="DejaVuSans-67" d="M 2906 1791 
Q 2906 2416 2648 2759 
Q 2391 3103 1925 3103 
Q 1463 3103 1205 2759 
Q 947 2416 947 1791 
Q 947 1169 1205 825 
Q 1463 481 1925 481 
Q 2391 481 2648 825 
Q 2906 1169 2906 1791 
z
M 3481 434 
Q 3481 -459 3084 -895 
Q 2688 -1331 1869 -1331 
Q 1566 -1331 1297 -1286 
Q 1028 -1241 775 -1147 
L 775 -588 
Q 1028 -725 1275 -790 
Q 1522 -856 1778 -856 
Q 2344 -856 2625 -561 
Q 2906 -266 2906 331 
L 2906 616 
Q 2728 306 2450 153 
Q 2172 0 1784 0 
Q 1141 0 747 490 
Q 353 981 353 1791 
Q 353 2603 747 3093 
Q 1141 3584 1784 3584 
Q 2172 3584 2450 3431 
Q 2728 3278 2906 2969 
L 2906 3500 
L 3481 3500 
L 3481 434 
z
" transform="scale(0.015625)"/>
      </defs>
      <use xlink:href="#DejaVuSans-4e"/>
      <use xlink:href="#DejaVuSans-65" x="74.804688"/>
      <use xlink:href="#DejaVuSans-67" x="136.328125"/>
      <use xlink:href="#DejaVuSans-61" x="199.804688"/>
      <use xlink:href="#DejaVuSans-74" x="261.083984"/>
      <use xlink:href="#DejaVuSans-69" x="300.292969"/>
      <use xlink:href="#DejaVuSans-76" x="328.076172"/>
      <use xlink:href="#DejaVuSans-65" x="387.255859"/>
      <use xlink:href="#DejaVuSans-20" x="448.779297"/>
      <use xlink:href="#DejaVuSans-70" x="480.566406"/>
      <use xlink:href="#DejaVuSans-72" x="544.042969"/>
      <use xlink:href="#DejaVuSans-65" x="582.90625"/>
      <use xlink:href="#DejaVuSans-64" x="644.429688"/>
      <use xlink:href="#DejaVuSans-69" x="707.90625"/>
      <use xlink:href="#DejaVuSans-63" x="735.689453"/>
      <use xlink:href="#DejaVuSans-74" x="790.669922"/>
      <use xlink:href="#DejaVuSans-69" x="829.878906"/>
      <use xlink:href="#DejaVuSans-6f" x="857.662109"/>
      <use xlink:href="#DejaVuSans-6e" x="918.84375"/>
      <use xlink:href="#DejaVuSans-73" x="982.222656"/>
     </g>
    </g>
    <g id="line2d_20">
     <path d="M 66.6 83.926688 
L 76.6 83.926688 
L 86.6 83.926688 
" style="fill: none; stroke: #2ca02c; stroke-opacity: 0.7; stroke-width: 0.5; stroke-linecap: square"/>
    </g>
    <g id="text_17">
     <!-- Average predictions -->
     <g transform="translate(94.6 87.426688) scale(0.1 -0.1)">
      <defs>
       <path id="DejaVuSans-41" d="M 2188 4044 
L 1331 1722 
L 3047 1722 
L 2188 4044 
z
M 1831 4666 
L 2547 4666 
L 4325 0 
L 3669 0 
L 3244 1197 
L 1141 1197 
L 716 0 
L 50 0 
L 1831 4666 
z
" transform="scale(0.015625)"/>
      </defs>
      <use xlink:href="#DejaVuSans-41"/>
      <use xlink:href="#DejaVuSans-76" x="62.533203"/>
      <use xlink:href="#DejaVuSans-65" x="121.712891"/>
      <use xlink:href="#DejaVuSans-72" x="183.236328"/>
      <use xlink:href="#DejaVuSans-61" x="224.349609"/>
      <use xlink:href="#DejaVuSans-67" x="285.628906"/>
      <use xlink:href="#DejaVuSans-65" x="349.105469"/>
      <use xlink:href="#DejaVuSans-20" x="410.628906"/>
      <use xlink:href="#DejaVuSans-70" x="442.416016"/>
      <use xlink:href="#DejaVuSans-72" x="505.892578"/>
      <use xlink:href="#DejaVuSans-65" x="544.755859"/>
      <use xlink:href="#DejaVuSans-64" x="606.279297"/>
      <use xlink:href="#DejaVuSans-69" x="669.755859"/>
      <use xlink:href="#DejaVuSans-63" x="697.539062"/>
      <use xlink:href="#DejaVuSans-74" x="752.519531"/>
      <use xlink:href="#DejaVuSans-69" x="791.728516"/>
      <use xlink:href="#DejaVuSans-6f" x="819.511719"/>
      <use xlink:href="#DejaVuSans-6e" x="880.693359"/>
      <use xlink:href="#DejaVuSans-73" x="944.072266"/>
     </g>
    </g>
    <g id="line2d_21">
     <path d="M 66.6 98.604813 
L 76.6 98.604813 
L 86.6 98.604813 
" style="fill: none; stroke: #d62728; stroke-opacity: 0.7; stroke-width: 0.5; stroke-linecap: square"/>
    </g>
    <g id="text_18">
     <!-- Actual values -->
     <g transform="translate(94.6 102.104813) scale(0.1 -0.1)">
      <defs>
       <path id="DejaVuSans-75" d="M 544 1381 
L 544 3500 
L 1119 3500 
L 1119 1403 
Q 1119 906 1312 657 
Q 1506 409 1894 409 
Q 2359 409 2629 706 
Q 2900 1003 2900 1516 
L 2900 3500 
L 3475 3500 
L 3475 0 
L 2900 0 
L 2900 538 
Q 2691 219 2414 64 
Q 2138 -91 1772 -91 
Q 1169 -91 856 284 
Q 544 659 544 1381 
z
M 1991 3584 
L 1991 3584 
z
" transform="scale(0.015625)"/>
      </defs>
      <use xlink:href="#DejaVuSans-41"/>
      <use xlink:href="#DejaVuSans-63" x="66.658203"/>
      <use xlink:href="#DejaVuSans-74" x="121.638672"/>
      <use xlink:href="#DejaVuSans-75" x="160.847656"/>
      <use xlink:href="#DejaVuSans-61" x="224.226562"/>
      <use xlink:href="#DejaVuSans-6c" x="285.505859"/>
      <use xlink:href="#DejaVuSans-20" x="313.289062"/>
      <use xlink:href="#DejaVuSans-76" x="345.076172"/>
      <use xlink:href="#DejaVuSans-61" x="404.255859"/>
      <use xlink:href="#DejaVuSans-6c" x="465.535156"/>
      <use xlink:href="#DejaVuSans-75" x="493.318359"/>
      <use xlink:href="#DejaVuSans-65" x="556.697266"/>
      <use xlink:href="#DejaVuSans-73" x="618.220703"/>
     </g>
    </g>
   </g>
  </g>
 </g>
 <defs>
  <clipPath id="p6e447e70ec">
   <rect x="57.6" y="41.472" width="357.12" height="266.112"/>
  </clipPath>
 </defs>
</svg>
