<?xml version="1.0" encoding="utf-8" standalone="no"?>
<!DOCTYPE svg PUBLIC "-//W3C//DTD SVG 1.1//EN"
  "http://www.w3.org/Graphics/SVG/1.1/DTD/svg11.dtd">
<svg xmlns:xlink="http://www.w3.org/1999/xlink" width="460.8pt" height="345.6pt" viewBox="0 0 460.8 345.6" xmlns="http://www.w3.org/2000/svg" version="1.1">
 <metadata>
  <rdf:RDF xmlns:dc="http://purl.org/dc/elements/1.1/" xmlns:cc="http://creativecommons.org/ns#" xmlns:rdf="http://www.w3.org/1999/02/22-rdf-syntax-ns#">
   <cc:Work>
    <dc:type rdf:resource="http://purl.org/dc/dcmitype/StillImage"/>
    <dc:date>2024-09-08T13:36:27.124286</dc:date>
    <dc:format>image/svg+xml</dc:format>
    <dc:creator>
     <cc:Agent>
      <dc:title>Matplotlib v3.8.3, https://matplotlib.org/</dc:title>
     </cc:Agent>
    </dc:creator>
   </cc:Work>
  </rdf:RDF>
 </metadata>
 <defs>
  <style type="text/css">*{stroke-linejoin: round; stroke-linecap: butt}</style>
 </defs>
 <g id="figure_1">
  <g id="patch_1">
   <path d="M 0 345.6 
L 460.8 345.6 
L 460.8 0 
L 0 0 
z
" style="fill: #ffffff"/>
  </g>
  <g id="axes_1">
   <g id="patch_2">
    <path d="M 57.6 307.584 
L 414.72 307.584 
L 414.72 41.472 
L 57.6 41.472 
z
" style="fill: #ffffff"/>
   </g>
   <g id="matplotlib.axis_1">
    <g id="xtick_1">
     <g id="line2d_1">
      <defs>
       <path id="m2c882e651c" d="M 0 0 
L 0 3.5 
" style="stroke: #000000; stroke-width: 0.8"/>
      </defs>
      <g>
       <use xlink:href="#m2c882e651c" x="73.832727" y="307.584" style="stroke: #000000; stroke-width: 0.8"/>
      </g>
     </g>
     <g id="text_1">
      <!-- 0 -->
      <g transform="translate(70.651477 322.182437) scale(0.1 -0.1)">
       <defs>
        <path id="DejaVuSans-30" d="M 2034 4250 
Q 1547 4250 1301 3770 
Q 1056 3291 1056 2328 
Q 1056 1369 1301 889 
Q 1547 409 2034 409 
Q 2525 409 2770 889 
Q 3016 1369 3016 2328 
Q 3016 3291 2770 3770 
Q 2525 4250 2034 4250 
z
M 2034 4750 
Q 2819 4750 3233 4129 
Q 3647 3509 3647 2328 
Q 3647 1150 3233 529 
Q 2819 -91 2034 -91 
Q 1250 -91 836 529 
Q 422 1150 422 2328 
Q 422 3509 836 4129 
Q 1250 4750 2034 4750 
z
" transform="scale(0.015625)"/>
       </defs>
       <use xlink:href="#DejaVuSans-30"/>
      </g>
     </g>
    </g>
    <g id="xtick_2">
     <g id="line2d_2">
      <g>
       <use xlink:href="#m2c882e651c" x="117.76433" y="307.584" style="stroke: #000000; stroke-width: 0.8"/>
      </g>
     </g>
     <g id="text_2">
      <!-- 200 -->
      <g transform="translate(108.22058 322.182437) scale(0.1 -0.1)">
       <defs>
        <path id="DejaVuSans-32" d="M 1228 531 
L 3431 531 
L 3431 0 
L 469 0 
L 469 531 
Q 828 903 1448 1529 
Q 2069 2156 2228 2338 
Q 2531 2678 2651 2914 
Q 2772 3150 2772 3378 
Q 2772 3750 2511 3984 
Q 2250 4219 1831 4219 
Q 1534 4219 1204 4116 
Q 875 4013 500 3803 
L 500 4441 
Q 881 4594 1212 4672 
Q 1544 4750 1819 4750 
Q 2544 4750 2975 4387 
Q 3406 4025 3406 3419 
Q 3406 3131 3298 2873 
Q 3191 2616 2906 2266 
Q 2828 2175 2409 1742 
Q 1991 1309 1228 531 
z
" transform="scale(0.015625)"/>
       </defs>
       <use xlink:href="#DejaVuSans-32"/>
       <use xlink:href="#DejaVuSans-30" x="63.623047"/>
       <use xlink:href="#DejaVuSans-30" x="127.246094"/>
      </g>
     </g>
    </g>
    <g id="xtick_3">
     <g id="line2d_3">
      <g>
       <use xlink:href="#m2c882e651c" x="161.695933" y="307.584" style="stroke: #000000; stroke-width: 0.8"/>
      </g>
     </g>
     <g id="text_3">
      <!-- 400 -->
      <g transform="translate(152.152183 322.182437) scale(0.1 -0.1)">
       <defs>
        <path id="DejaVuSans-34" d="M 2419 4116 
L 825 1625 
L 2419 1625 
L 2419 4116 
z
M 2253 4666 
L 3047 4666 
L 3047 1625 
L 3713 1625 
L 3713 1100 
L 3047 1100 
L 3047 0 
L 2419 0 
L 2419 1100 
L 313 1100 
L 313 1709 
L 2253 4666 
z
" transform="scale(0.015625)"/>
       </defs>
       <use xlink:href="#DejaVuSans-34"/>
       <use xlink:href="#DejaVuSans-30" x="63.623047"/>
       <use xlink:href="#DejaVuSans-30" x="127.246094"/>
      </g>
     </g>
    </g>
    <g id="xtick_4">
     <g id="line2d_4">
      <g>
       <use xlink:href="#m2c882e651c" x="205.627536" y="307.584" style="stroke: #000000; stroke-width: 0.8"/>
      </g>
     </g>
     <g id="text_4">
      <!-- 600 -->
      <g transform="translate(196.083786 322.182437) scale(0.1 -0.1)">
       <defs>
        <path id="DejaVuSans-36" d="M 2113 2584 
Q 1688 2584 1439 2293 
Q 1191 2003 1191 1497 
Q 1191 994 1439 701 
Q 1688 409 2113 409 
Q 2538 409 2786 701 
Q 3034 994 3034 1497 
Q 3034 2003 2786 2293 
Q 2538 2584 2113 2584 
z
M 3366 4563 
L 3366 3988 
Q 3128 4100 2886 4159 
Q 2644 4219 2406 4219 
Q 1781 4219 1451 3797 
Q 1122 3375 1075 2522 
Q 1259 2794 1537 2939 
Q 1816 3084 2150 3084 
Q 2853 3084 3261 2657 
Q 3669 2231 3669 1497 
Q 3669 778 3244 343 
Q 2819 -91 2113 -91 
Q 1303 -91 875 529 
Q 447 1150 447 2328 
Q 447 3434 972 4092 
Q 1497 4750 2381 4750 
Q 2619 4750 2861 4703 
Q 3103 4656 3366 4563 
z
" transform="scale(0.015625)"/>
       </defs>
       <use xlink:href="#DejaVuSans-36"/>
       <use xlink:href="#DejaVuSans-30" x="63.623047"/>
       <use xlink:href="#DejaVuSans-30" x="127.246094"/>
      </g>
     </g>
    </g>
    <g id="xtick_5">
     <g id="line2d_5">
      <g>
       <use xlink:href="#m2c882e651c" x="249.559139" y="307.584" style="stroke: #000000; stroke-width: 0.8"/>
      </g>
     </g>
     <g id="text_5">
      <!-- 800 -->
      <g transform="translate(240.015389 322.182437) scale(0.1 -0.1)">
       <defs>
        <path id="DejaVuSans-38" d="M 2034 2216 
Q 1584 2216 1326 1975 
Q 1069 1734 1069 1313 
Q 1069 891 1326 650 
Q 1584 409 2034 409 
Q 2484 409 2743 651 
Q 3003 894 3003 1313 
Q 3003 1734 2745 1975 
Q 2488 2216 2034 2216 
z
M 1403 2484 
Q 997 2584 770 2862 
Q 544 3141 544 3541 
Q 544 4100 942 4425 
Q 1341 4750 2034 4750 
Q 2731 4750 3128 4425 
Q 3525 4100 3525 3541 
Q 3525 3141 3298 2862 
Q 3072 2584 2669 2484 
Q 3125 2378 3379 2068 
Q 3634 1759 3634 1313 
Q 3634 634 3220 271 
Q 2806 -91 2034 -91 
Q 1263 -91 848 271 
Q 434 634 434 1313 
Q 434 1759 690 2068 
Q 947 2378 1403 2484 
z
M 1172 3481 
Q 1172 3119 1398 2916 
Q 1625 2713 2034 2713 
Q 2441 2713 2670 2916 
Q 2900 3119 2900 3481 
Q 2900 3844 2670 4047 
Q 2441 4250 2034 4250 
Q 1625 4250 1398 4047 
Q 1172 3844 1172 3481 
z
" transform="scale(0.015625)"/>
       </defs>
       <use xlink:href="#DejaVuSans-38"/>
       <use xlink:href="#DejaVuSans-30" x="63.623047"/>
       <use xlink:href="#DejaVuSans-30" x="127.246094"/>
      </g>
     </g>
    </g>
    <g id="xtick_6">
     <g id="line2d_6">
      <g>
       <use xlink:href="#m2c882e651c" x="293.490742" y="307.584" style="stroke: #000000; stroke-width: 0.8"/>
      </g>
     </g>
     <g id="text_6">
      <!-- 1000 -->
      <g transform="translate(280.765742 322.182437) scale(0.1 -0.1)">
       <defs>
        <path id="DejaVuSans-31" d="M 794 531 
L 1825 531 
L 1825 4091 
L 703 3866 
L 703 4441 
L 1819 4666 
L 2450 4666 
L 2450 531 
L 3481 531 
L 3481 0 
L 794 0 
L 794 531 
z
" transform="scale(0.015625)"/>
       </defs>
       <use xlink:href="#DejaVuSans-31"/>
       <use xlink:href="#DejaVuSans-30" x="63.623047"/>
       <use xlink:href="#DejaVuSans-30" x="127.246094"/>
       <use xlink:href="#DejaVuSans-30" x="190.869141"/>
      </g>
     </g>
    </g>
    <g id="xtick_7">
     <g id="line2d_7">
      <g>
       <use xlink:href="#m2c882e651c" x="337.422345" y="307.584" style="stroke: #000000; stroke-width: 0.8"/>
      </g>
     </g>
     <g id="text_7">
      <!-- 1200 -->
      <g transform="translate(324.697345 322.182437) scale(0.1 -0.1)">
       <use xlink:href="#DejaVuSans-31"/>
       <use xlink:href="#DejaVuSans-32" x="63.623047"/>
       <use xlink:href="#DejaVuSans-30" x="127.246094"/>
       <use xlink:href="#DejaVuSans-30" x="190.869141"/>
      </g>
     </g>
    </g>
    <g id="xtick_8">
     <g id="line2d_8">
      <g>
       <use xlink:href="#m2c882e651c" x="381.353948" y="307.584" style="stroke: #000000; stroke-width: 0.8"/>
      </g>
     </g>
     <g id="text_8">
      <!-- 1400 -->
      <g transform="translate(368.628948 322.182437) scale(0.1 -0.1)">
       <use xlink:href="#DejaVuSans-31"/>
       <use xlink:href="#DejaVuSans-34" x="63.623047"/>
       <use xlink:href="#DejaVuSans-30" x="127.246094"/>
       <use xlink:href="#DejaVuSans-30" x="190.869141"/>
      </g>
     </g>
    </g>
   </g>
   <g id="matplotlib.axis_2">
    <g id="ytick_1">
     <g id="line2d_9">
      <defs>
       <path id="m8b50518b19" d="M 0 0 
L -3.5 0 
" style="stroke: #000000; stroke-width: 0.8"/>
      </defs>
      <g>
       <use xlink:href="#m8b50518b19" x="57.6" y="291.832072" style="stroke: #000000; stroke-width: 0.8"/>
      </g>
     </g>
     <g id="text_9">
      <!-- −30000 -->
      <g transform="translate(10.407812 295.631291) scale(0.1 -0.1)">
       <defs>
        <path id="DejaVuSans-2212" d="M 678 2272 
L 4684 2272 
L 4684 1741 
L 678 1741 
L 678 2272 
z
" transform="scale(0.015625)"/>
        <path id="DejaVuSans-33" d="M 2597 2516 
Q 3050 2419 3304 2112 
Q 3559 1806 3559 1356 
Q 3559 666 3084 287 
Q 2609 -91 1734 -91 
Q 1441 -91 1130 -33 
Q 819 25 488 141 
L 488 750 
Q 750 597 1062 519 
Q 1375 441 1716 441 
Q 2309 441 2620 675 
Q 2931 909 2931 1356 
Q 2931 1769 2642 2001 
Q 2353 2234 1838 2234 
L 1294 2234 
L 1294 2753 
L 1863 2753 
Q 2328 2753 2575 2939 
Q 2822 3125 2822 3475 
Q 2822 3834 2567 4026 
Q 2313 4219 1838 4219 
Q 1578 4219 1281 4162 
Q 984 4106 628 3988 
L 628 4550 
Q 988 4650 1302 4700 
Q 1616 4750 1894 4750 
Q 2613 4750 3031 4423 
Q 3450 4097 3450 3541 
Q 3450 3153 3228 2886 
Q 3006 2619 2597 2516 
z
" transform="scale(0.015625)"/>
       </defs>
       <use xlink:href="#DejaVuSans-2212"/>
       <use xlink:href="#DejaVuSans-33" x="83.789062"/>
       <use xlink:href="#DejaVuSans-30" x="147.412109"/>
       <use xlink:href="#DejaVuSans-30" x="211.035156"/>
       <use xlink:href="#DejaVuSans-30" x="274.658203"/>
       <use xlink:href="#DejaVuSans-30" x="338.28125"/>
      </g>
     </g>
    </g>
    <g id="ytick_2">
     <g id="line2d_10">
      <g>
       <use xlink:href="#m8b50518b19" x="57.6" y="250.756204" style="stroke: #000000; stroke-width: 0.8"/>
      </g>
     </g>
     <g id="text_10">
      <!-- −20000 -->
      <g transform="translate(10.407812 254.555422) scale(0.1 -0.1)">
       <use xlink:href="#DejaVuSans-2212"/>
       <use xlink:href="#DejaVuSans-32" x="83.789062"/>
       <use xlink:href="#DejaVuSans-30" x="147.412109"/>
       <use xlink:href="#DejaVuSans-30" x="211.035156"/>
       <use xlink:href="#DejaVuSans-30" x="274.658203"/>
       <use xlink:href="#DejaVuSans-30" x="338.28125"/>
      </g>
     </g>
    </g>
    <g id="ytick_3">
     <g id="line2d_11">
      <g>
       <use xlink:href="#m8b50518b19" x="57.6" y="209.680335" style="stroke: #000000; stroke-width: 0.8"/>
      </g>
     </g>
     <g id="text_11">
      <!-- −10000 -->
      <g transform="translate(10.407812 213.479554) scale(0.1 -0.1)">
       <use xlink:href="#DejaVuSans-2212"/>
       <use xlink:href="#DejaVuSans-31" x="83.789062"/>
       <use xlink:href="#DejaVuSans-30" x="147.412109"/>
       <use xlink:href="#DejaVuSans-30" x="211.035156"/>
       <use xlink:href="#DejaVuSans-30" x="274.658203"/>
       <use xlink:href="#DejaVuSans-30" x="338.28125"/>
      </g>
     </g>
    </g>
    <g id="ytick_4">
     <g id="line2d_12">
      <g>
       <use xlink:href="#m8b50518b19" x="57.6" y="168.604466" style="stroke: #000000; stroke-width: 0.8"/>
      </g>
     </g>
     <g id="text_12">
      <!-- 0 -->
      <g transform="translate(44.2375 172.403685) scale(0.1 -0.1)">
       <use xlink:href="#DejaVuSans-30"/>
      </g>
     </g>
    </g>
    <g id="ytick_5">
     <g id="line2d_13">
      <g>
       <use xlink:href="#m8b50518b19" x="57.6" y="127.528598" style="stroke: #000000; stroke-width: 0.8"/>
      </g>
     </g>
     <g id="text_13">
      <!-- 10000 -->
      <g transform="translate(18.7875 131.327816) scale(0.1 -0.1)">
       <use xlink:href="#DejaVuSans-31"/>
       <use xlink:href="#DejaVuSans-30" x="63.623047"/>
       <use xlink:href="#DejaVuSans-30" x="127.246094"/>
       <use xlink:href="#DejaVuSans-30" x="190.869141"/>
       <use xlink:href="#DejaVuSans-30" x="254.492188"/>
      </g>
     </g>
    </g>
    <g id="ytick_6">
     <g id="line2d_14">
      <g>
       <use xlink:href="#m8b50518b19" x="57.6" y="86.452729" style="stroke: #000000; stroke-width: 0.8"/>
      </g>
     </g>
     <g id="text_14">
      <!-- 20000 -->
      <g transform="translate(18.7875 90.251948) scale(0.1 -0.1)">
       <use xlink:href="#DejaVuSans-32"/>
       <use xlink:href="#DejaVuSans-30" x="63.623047"/>
       <use xlink:href="#DejaVuSans-30" x="127.246094"/>
       <use xlink:href="#DejaVuSans-30" x="190.869141"/>
       <use xlink:href="#DejaVuSans-30" x="254.492188"/>
      </g>
     </g>
    </g>
    <g id="ytick_7">
     <g id="line2d_15">
      <g>
       <use xlink:href="#m8b50518b19" x="57.6" y="45.37686" style="stroke: #000000; stroke-width: 0.8"/>
      </g>
     </g>
     <g id="text_15">
      <!-- 30000 -->
      <g transform="translate(18.7875 49.176079) scale(0.1 -0.1)">
       <use xlink:href="#DejaVuSans-33"/>
       <use xlink:href="#DejaVuSans-30" x="63.623047"/>
       <use xlink:href="#DejaVuSans-30" x="127.246094"/>
       <use xlink:href="#DejaVuSans-30" x="190.869141"/>
       <use xlink:href="#DejaVuSans-30" x="254.492188"/>
      </g>
     </g>
    </g>
   </g>
   <g id="line2d_16">
    <path d="M 73.832727 168.94862 
L 74.052385 169.219639 
L 74.931017 169.303524 
L 75.370333 169.795901 
L 76.029307 169.693557 
L 76.907939 170.084434 
L 77.127597 170.124968 
L 77.347256 170.36503 
L 78.884862 170.131148 
L 79.10452 170.18535 
L 79.543836 169.80431 
L 79.763494 170.199871 
L 79.983152 170.063988 
L 80.20281 170.113448 
L 80.422468 170.34494 
L 80.642126 170.103213 
L 81.3011 170.557332 
L 81.520758 170.211776 
L 81.740416 170.247373 
L 81.960074 170.426818 
L 82.179732 170.337405 
L 83.278022 170.754316 
L 83.717338 170.707008 
L 83.936996 170.78778 
L 84.156654 170.697354 
L 85.474602 170.962502 
L 85.69426 170.987641 
L 86.133576 171.204233 
L 86.353234 171.170535 
L 86.79255 171.387293 
L 87.451524 171.335569 
L 88.330156 171.581292 
L 88.769472 171.74468 
L 89.208788 171.794111 
L 89.428446 171.684151 
L 89.648104 171.867743 
L 89.867762 171.834086 
L 90.08742 172.007475 
L 90.526736 172.097067 
L 91.18571 172.354038 
L 92.064342 172.622021 
L 92.942975 172.777972 
L 93.162633 172.718829 
L 93.382291 172.7982 
L 93.601949 172.667506 
L 93.821607 172.755038 
L 94.041265 172.721725 
L 94.700239 173.057726 
L 94.919897 173.023537 
L 95.798529 173.52064 
L 96.018187 173.441219 
L 96.457503 173.56164 
L 96.896819 173.637188 
L 97.336135 173.693036 
L 97.775451 173.810052 
L 98.434425 174.104745 
L 98.873741 174.041321 
L 99.532715 174.256871 
L 99.972031 174.353933 
L 100.411347 174.465241 
L 101.509637 174.338386 
L 101.948953 174.529858 
L 104.365191 174.873058 
L 105.243823 174.885507 
L 106.122455 175.073509 
L 106.342113 175.008672 
L 107.220745 175.197973 
L 107.87972 175.083367 
L 108.97801 175.191674 
L 109.417326 175.048772 
L 109.856642 175.087034 
L 110.295958 174.573767 
L 110.515616 174.822768 
L 110.735274 174.850296 
L 110.954932 175.216097 
L 111.17459 175.32494 
L 111.394248 175.225174 
L 112.053222 175.30948 
L 112.27288 175.112963 
L 112.492538 175.495274 
L 112.712196 175.461735 
L 112.931854 175.580732 
L 113.151512 175.941337 
L 113.590828 176.285619 
L 113.810486 176.216605 
L 114.249802 176.400947 
L 114.46946 176.692376 
L 114.908776 176.743748 
L 115.128434 176.665694 
L 116.007066 177.175811 
L 116.446382 176.952491 
L 117.325014 177.468737 
L 117.544672 177.806766 
L 117.983988 177.983751 
L 118.203646 178.199384 
L 118.423304 177.807678 
L 118.642962 177.84483 
L 118.86262 177.636994 
L 119.301936 177.812853 
L 119.521594 178.081284 
L 119.96091 178.094359 
L 120.180568 178.040681 
L 120.400226 178.178552 
L 121.0592 178.086586 
L 121.278858 177.95313 
L 121.498516 178.636298 
L 122.15749 179.385251 
L 122.377148 179.497347 
L 122.596806 179.438957 
L 123.036123 180.180816 
L 123.475439 180.56181 
L 123.914755 180.873581 
L 124.134413 180.924598 
L 124.793387 181.49896 
L 125.013045 181.68842 
L 125.232703 181.608922 
L 126.111335 181.936478 
L 126.330993 181.944351 
L 127.429283 182.675908 
L 128.307915 182.68381 
L 129.406205 183.483867 
L 129.845521 183.637793 
L 130.284837 183.76863 
L 130.943811 183.833502 
L 131.163469 183.929606 
L 131.383127 183.903493 
L 131.822443 184.013459 
L 132.261759 183.976518 
L 132.701075 184.236891 
L 133.140391 184.354543 
L 134.238681 184.737668 
L 134.458339 184.590716 
L 135.336971 184.961922 
L 135.995945 185.313013 
L 137.313893 185.645729 
L 138.412184 186.169128 
L 139.071158 186.525908 
L 139.730132 186.507648 
L 141.04808 186.712548 
L 141.267738 186.540318 
L 141.926712 186.6616 
L 142.14637 186.400256 
L 142.805344 186.841002 
L 143.24466 186.791841 
L 143.683976 187.032222 
L 143.903634 187.000956 
L 144.34295 187.100223 
L 145.221582 187.173915 
L 145.660898 187.634907 
L 146.53953 187.874604 
L 147.198504 187.928301 
L 147.418162 187.993409 
L 148.077136 188.42372 
L 149.395084 188.488625 
L 149.614742 188.643383 
L 151.152348 188.706535 
L 151.591664 188.867215 
L 152.909612 189.085392 
L 153.129271 189.165897 
L 153.348929 189.105761 
L 153.788245 189.224775 
L 154.227561 189.064741 
L 154.666877 188.904902 
L 154.886535 188.616925 
L 155.106193 188.880063 
L 155.325851 188.959807 
L 155.545509 189.310432 
L 155.984825 189.215083 
L 156.204483 189.461594 
L 156.424141 189.143551 
L 157.522431 189.912175 
L 157.742089 189.998448 
L 157.961747 189.755303 
L 158.181405 189.985215 
L 158.620721 190.214516 
L 159.060037 190.562651 
L 159.279695 190.542602 
L 159.938669 191.083613 
L 160.377985 191.121727 
L 160.817301 191.344845 
L 163.233539 191.324459 
L 163.453197 191.418712 
L 163.892513 191.173364 
L 164.551487 191.584323 
L 164.771145 191.423892 
L 165.430119 191.856647 
L 165.649777 191.781183 
L 166.308751 192.01385 
L 166.528409 192.024699 
L 166.748067 192.160774 
L 167.187383 192.215675 
L 169.164306 192.787407 
L 170.042938 192.988017 
L 171.580544 193.236789 
L 172.01986 193.284246 
L 172.678834 193.493942 
L 172.898492 193.511694 
L 173.337808 193.340386 
L 173.996782 193.587083 
L 174.436098 193.539644 
L 175.095072 193.725027 
L 175.534388 193.870082 
L 176.632678 194.11491 
L 177.071994 194.310889 
L 177.51131 194.36994 
L 177.730968 194.482301 
L 177.950626 194.35017 
L 178.170284 194.463229 
L 178.6096 194.490787 
L 178.829258 194.575423 
L 179.048916 194.514385 
L 179.488232 194.621969 
L 180.80618 194.817422 
L 181.245496 194.499015 
L 181.465154 194.691832 
L 182.343786 194.833764 
L 182.783102 195.363955 
L 183.222419 195.307508 
L 184.101051 195.592987 
L 185.199341 195.684135 
L 185.638657 194.992906 
L 185.858315 195.082626 
L 186.077973 194.663799 
L 186.297631 194.787026 
L 186.517289 195.600308 
L 186.736947 195.254458 
L 186.956605 196.047181 
L 187.176263 195.702324 
L 187.395921 195.639259 
L 187.615579 195.051289 
L 187.835237 195.825662 
L 188.054895 195.420663 
L 188.274553 194.744657 
L 188.494211 196.04907 
L 188.713869 194.965744 
L 188.933527 196.143595 
L 189.153185 196.100754 
L 189.372843 196.724408 
L 189.812159 197.27308 
L 190.031817 198.685331 
L 190.251475 198.993646 
L 190.471133 199.947647 
L 190.690791 199.719881 
L 190.910449 199.946015 
L 191.130107 199.893133 
L 191.349765 199.639301 
L 191.569423 199.965921 
L 191.789081 200.010828 
L 192.008739 200.907217 
L 192.228397 201.313277 
L 192.667713 202.588927 
L 192.887371 202.842177 
L 193.107029 203.477631 
L 193.326687 203.613991 
L 193.546345 204.016942 
L 193.766003 204.656725 
L 193.985661 204.664201 
L 194.205319 204.544689 
L 194.424977 205.067096 
L 194.644635 205.210438 
L 195.523267 206.294061 
L 195.742925 206.120857 
L 195.962583 205.738617 
L 196.401899 206.124696 
L 196.621557 206.066425 
L 196.841215 206.208728 
L 197.060873 206.542392 
L 197.280531 206.488243 
L 197.719847 205.981309 
L 200.136086 207.7371 
L 200.575402 208.269486 
L 201.454034 209.540543 
L 201.673692 209.558191 
L 201.89335 209.76611 
L 202.113008 209.18204 
L 202.552324 209.969119 
L 202.771982 210.583367 
L 202.99164 210.463067 
L 203.211298 210.557706 
L 203.430956 210.446417 
L 203.650614 210.505966 
L 203.870272 210.797614 
L 204.08993 210.390974 
L 204.309588 210.602684 
L 204.529246 210.411485 
L 205.627536 211.957385 
L 205.847194 211.855378 
L 206.066852 212.064947 
L 206.506168 212.25309 
L 206.725826 212.367232 
L 206.945484 212.739987 
L 207.604458 213.159908 
L 208.263432 213.549887 
L 208.48309 213.427854 
L 208.702748 213.451314 
L 208.922406 213.641765 
L 209.142064 213.625335 
L 209.58138 213.971282 
L 210.020696 214.378042 
L 210.899328 215.153333 
L 211.338644 215.422102 
L 211.77796 215.944731 
L 213.315566 217.157807 
L 214.413857 217.71652 
L 214.633515 217.932997 
L 214.853173 218.369488 
L 215.072831 217.991691 
L 215.292489 217.979191 
L 215.512147 217.758104 
L 215.731805 218.254887 
L 215.951463 218.090799 
L 216.830095 219.015121 
L 217.489069 218.892568 
L 217.708727 219.12984 
L 217.928385 218.936084 
L 218.148043 219.167599 
L 218.587359 219.955898 
L 218.807017 219.993778 
L 219.246333 220.488701 
L 219.465991 220.540861 
L 219.685649 220.971502 
L 219.905307 220.986302 
L 220.783939 222.354692 
L 221.662571 222.663684 
L 221.882229 222.500194 
L 222.541203 222.92628 
L 222.760861 222.985111 
L 222.980519 222.810867 
L 223.200177 222.863967 
L 223.419835 222.464323 
L 223.639493 222.810243 
L 223.859151 222.787107 
L 224.518125 223.918927 
L 225.396757 224.271406 
L 225.616415 224.324453 
L 225.836073 224.216935 
L 226.275389 224.712615 
L 226.714705 224.571775 
L 227.812995 225.101526 
L 228.252311 225.122103 
L 228.691628 225.412876 
L 228.911286 225.437439 
L 229.57026 225.880179 
L 230.448892 225.903978 
L 230.888208 226.23242 
L 231.107866 226.367009 
L 231.76684 226.224354 
L 232.206156 226.329761 
L 232.425814 226.454813 
L 232.86513 226.455408 
L 233.084788 226.537354 
L 233.304446 226.30778 
L 233.743762 226.626926 
L 234.183078 227.038188 
L 234.622394 227.000759 
L 235.06171 226.985417 
L 235.281368 226.934032 
L 235.940342 227.298477 
L 236.16 227.176673 
L 236.599316 227.213694 
L 236.818974 226.787949 
L 237.038632 226.995325 
L 237.25829 226.722413 
L 237.697606 227.430205 
L 237.917264 227.538973 
L 238.136922 227.852563 
L 238.35658 227.864566 
L 238.576238 228.074608 
L 240.113844 228.244364 
L 240.772818 228.17066 
L 240.992476 228.402789 
L 241.212134 228.00178 
L 241.431792 228.059059 
L 241.65145 228.563492 
L 241.871108 228.565977 
L 242.310424 228.220368 
L 242.530082 228.540852 
L 242.74974 228.62804 
L 242.969398 229.014078 
L 243.189056 229.146384 
L 243.408714 229.501353 
L 243.628372 229.561143 
L 243.848031 229.749023 
L 244.067689 229.756827 
L 244.287347 229.878073 
L 244.507005 229.714491 
L 244.726663 229.78475 
L 244.946321 230.006143 
L 245.385637 229.955286 
L 245.605295 230.08039 
L 245.824953 230.371383 
L 246.483927 230.252057 
L 247.142901 230.611981 
L 247.582217 230.622103 
L 247.801875 230.681259 
L 248.460849 230.499742 
L 248.900165 230.864805 
L 249.339481 230.680464 
L 249.559139 230.858979 
L 249.778797 230.737517 
L 250.218113 231.088153 
L 251.755719 231.314901 
L 252.195035 231.662971 
L 252.854009 230.860563 
L 253.293325 231.377651 
L 253.952299 231.249172 
L 254.171957 231.495331 
L 254.391615 231.476735 
L 254.611273 231.657879 
L 254.830931 231.598771 
L 255.270247 231.769619 
L 256.148879 231.893613 
L 256.368537 232.114081 
L 257.247169 232.391504 
L 257.906143 232.553978 
L 258.345459 232.523828 
L 258.565117 232.314281 
L 258.784775 232.631838 
L 259.883066 233.160523 
L 260.322382 233.278359 
L 260.761698 233.577185 
L 260.981356 233.556676 
L 261.201014 233.650478 
L 261.420672 233.53615 
L 261.859988 233.898978 
L 262.299304 234.003572 
L 262.518962 234.036387 
L 262.73862 233.942023 
L 262.958278 233.724198 
L 263.397594 234.277433 
L 263.617252 234.380353 
L 263.83691 234.613894 
L 265.154858 234.496367 
L 265.374516 234.694947 
L 265.594174 234.603544 
L 266.03349 234.767214 
L 266.472806 234.741265 
L 267.351438 234.905025 
L 267.790754 234.6269 
L 268.010412 234.699597 
L 268.449728 235.068612 
L 268.889044 235.135499 
L 269.108702 234.945328 
L 269.548018 235.126775 
L 269.987334 235.035436 
L 270.42665 235.146738 
L 271.085624 235.080872 
L 271.305282 234.968887 
L 271.52494 235.070065 
L 271.744598 234.993766 
L 272.183914 235.242132 
L 272.403572 235.152526 
L 272.62323 234.939128 
L 272.842888 235.002406 
L 273.501862 235.669429 
L 273.72152 235.586883 
L 273.941178 235.212019 
L 274.160837 235.240834 
L 274.380495 235.064111 
L 274.600153 235.398834 
L 274.819811 235.227798 
L 275.478785 236.068651 
L 275.698443 236.121373 
L 276.137759 236.058767 
L 276.357417 236.245302 
L 276.577075 236.637713 
L 278.114681 237.48187 
L 278.334339 237.588729 
L 278.553997 237.540888 
L 278.993313 237.852583 
L 280.530919 238.390346 
L 280.750577 238.32978 
L 280.970235 238.388719 
L 281.409551 238.623514 
L 282.068525 238.954045 
L 282.727499 238.842244 
L 282.947157 238.864736 
L 283.166815 238.438468 
L 283.386473 238.797574 
L 283.606131 238.531845 
L 283.825789 238.469517 
L 284.045447 238.891966 
L 284.265105 238.840996 
L 284.924079 239.75062 
L 285.143737 239.621954 
L 285.363395 239.79096 
L 285.583053 239.625543 
L 285.802711 239.604986 
L 286.022369 240.011462 
L 286.681343 239.717532 
L 287.120659 240.507518 
L 287.559975 241.125091 
L 288.218949 240.787594 
L 288.438607 240.767238 
L 288.658265 240.99046 
L 288.877923 241.013781 
L 289.097581 240.616731 
L 289.976214 240.908949 
L 290.195872 241.028927 
L 290.41553 240.818067 
L 290.635188 241.053214 
L 290.854846 240.920484 
L 291.074504 240.99095 
L 291.51382 240.673515 
L 291.733478 240.93927 
L 291.953136 240.930584 
L 292.392452 241.246395 
L 292.831768 242.26142 
L 293.271084 242.746587 
L 293.490742 242.344144 
L 294.369374 243.204447 
L 294.80869 242.742031 
L 295.028348 242.843204 
L 295.467664 243.447131 
L 295.687322 243.053021 
L 296.126638 243.056522 
L 296.346296 242.891829 
L 296.785612 243.832988 
L 297.00527 243.884381 
L 297.224928 243.752333 
L 297.444586 244.228046 
L 297.664244 244.251065 
L 297.883902 244.135894 
L 298.10356 243.724369 
L 298.323218 243.720866 
L 298.542876 244.421858 
L 298.982192 244.299141 
L 299.20185 244.195691 
L 300.080482 245.612831 
L 300.30014 245.673619 
L 300.519798 245.857659 
L 300.739456 245.672117 
L 300.959114 246.054156 
L 301.178772 246.203082 
L 301.618088 246.854759 
L 302.277062 247.156509 
L 302.49672 247.552859 
L 302.936036 247.485991 
L 303.375352 247.821058 
L 303.59501 247.70699 
L 303.814668 247.76238 
L 304.034326 248.048005 
L 304.253984 247.90465 
L 304.473643 247.940934 
L 304.693301 248.270582 
L 304.912959 248.294234 
L 305.132617 248.022711 
L 305.352275 247.538281 
L 305.571933 247.681259 
L 305.791591 247.2296 
L 306.011249 247.385147 
L 306.230907 247.96266 
L 306.450565 247.385275 
L 306.889881 247.806625 
L 307.109539 248.414558 
L 307.329197 247.870272 
L 307.548855 247.880937 
L 307.768513 247.484975 
L 307.988171 247.916038 
L 308.207829 248.068374 
L 308.427487 248.362272 
L 308.647145 249.108322 
L 308.866803 249.124547 
L 309.086461 249.627045 
L 309.306119 248.982769 
L 309.745435 249.492191 
L 309.965093 249.95031 
L 310.184751 250.023789 
L 311.063383 251.749306 
L 311.283041 251.83821 
L 311.502699 252.191908 
L 311.722357 252.144871 
L 312.161673 252.794022 
L 312.381331 252.700647 
L 312.820647 252.134882 
L 313.040305 251.629977 
L 313.259963 251.743129 
L 313.479621 252.1005 
L 313.699279 251.811883 
L 313.918937 252.108504 
L 314.138595 252.664413 
L 314.358253 252.738363 
L 315.017227 253.663938 
L 315.236885 253.440107 
L 315.676201 253.488872 
L 315.895859 253.658822 
L 316.115517 253.67142 
L 316.335175 253.851588 
L 316.554833 254.271777 
L 316.774491 254.322354 
L 316.994149 254.19438 
L 317.653123 254.344151 
L 317.872781 254.770231 
L 318.092439 254.716223 
L 318.312097 255.266953 
L 318.531755 255.36689 
L 318.751413 255.632925 
L 318.971071 255.478459 
L 319.190729 255.653477 
L 319.410388 255.501969 
L 320.069362 256.816271 
L 320.508678 256.870268 
L 320.728336 257.28948 
L 321.38731 257.722366 
L 321.606968 257.901732 
L 321.826626 258.455675 
L 322.046284 258.525904 
L 322.4856 259.311354 
L 322.924916 259.8216 
L 323.144574 260.04161 
L 323.364232 260.036448 
L 323.58389 259.841159 
L 324.023206 260.259322 
L 324.242864 260.67577 
L 324.462522 260.107879 
L 325.341154 260.167169 
L 325.78047 260.279522 
L 326.439444 261.580672 
L 326.659102 261.760387 
L 326.87876 261.11089 
L 327.098418 261.315541 
L 327.537734 261.315772 
L 327.757392 261.781408 
L 329.07534 262.344665 
L 329.294998 262.797691 
L 329.514656 262.746811 
L 329.734314 262.816579 
L 330.17363 264.04587 
L 330.612946 264.241409 
L 330.832604 263.952317 
L 331.491578 264.411456 
L 331.711236 264.887304 
L 331.930894 264.631559 
L 332.37021 265.38213 
L 332.589868 265.421918 
L 332.809526 265.274374 
L 333.248842 266.202725 
L 333.4685 266.476619 
L 333.907816 266.443214 
L 334.127474 266.980139 
L 334.566791 266.92828 
L 334.786449 266.5247 
L 335.006107 266.4511 
L 335.445423 267.060404 
L 335.665081 267.099365 
L 335.884739 266.942383 
L 336.104397 267.997072 
L 336.324055 268.205105 
L 336.543713 268.032891 
L 336.983029 268.324471 
L 337.202687 268.421897 
L 337.422345 268.716791 
L 337.642003 268.763884 
L 338.081319 269.35176 
L 338.300977 269.467335 
L 338.520635 269.299524 
L 338.740293 269.3503 
L 338.959951 269.911366 
L 339.399267 269.938531 
L 339.838583 269.454809 
L 340.058241 269.398213 
L 340.277899 269.635853 
L 340.497557 269.635229 
L 340.936873 270.264745 
L 341.156531 270.304453 
L 341.376189 270.025177 
L 341.815505 269.970323 
L 342.254821 270.521113 
L 342.474479 270.358071 
L 342.913795 270.526435 
L 343.133453 270.395516 
L 343.353111 270.740657 
L 343.572769 270.870127 
L 343.792427 270.790481 
L 344.012085 270.950636 
L 344.231743 270.922196 
L 344.451401 271.38243 
L 344.671059 271.488477 
L 345.549691 272.487925 
L 345.769349 272.444822 
L 346.208665 272.159632 
L 346.647981 272.711774 
L 347.087297 272.774172 
L 347.306955 273.039704 
L 347.746271 272.851503 
L 348.405245 273.970468 
L 348.844561 274.014465 
L 349.064219 274.46198 
L 349.503535 274.433264 
L 350.382168 275.141999 
L 350.601826 274.885408 
L 350.821484 274.868551 
L 351.041142 274.624149 
L 351.480458 274.896764 
L 351.700116 274.787641 
L 352.139432 274.959338 
L 352.35909 274.948399 
L 352.578748 275.139144 
L 352.798406 275.542706 
L 353.018064 275.671582 
L 353.237722 275.503424 
L 353.45738 275.570917 
L 353.677038 275.327728 
L 353.896696 275.263116 
L 354.116354 275.369599 
L 354.336012 275.718072 
L 354.55567 275.754225 
L 354.775328 276.222573 
L 354.994986 276.223911 
L 355.434302 276.844585 
L 355.65396 276.626964 
L 356.312934 277.047528 
L 356.532592 277.023211 
L 357.191566 277.599455 
L 357.411224 277.690789 
L 357.85054 277.668943 
L 358.729172 277.629757 
L 359.168488 277.937435 
L 360.486436 278.503891 
L 360.706094 278.36834 
L 360.925752 278.451626 
L 361.14541 278.906419 
L 361.584726 279.150726 
L 362.2437 278.768368 
L 362.463358 279.129031 
L 364.000964 279.095355 
L 364.44028 279.536387 
L 365.099255 279.408344 
L 365.318913 279.338499 
L 365.977887 279.959084 
L 366.197545 280.01696 
L 366.636861 280.70336 
L 367.735151 281.396372 
L 368.174467 282.032044 
L 368.394125 282.216135 
L 368.613783 282.579836 
L 369.492415 283.070287 
L 369.712073 282.965811 
L 369.931731 283.025093 
L 370.151389 283.338138 
L 370.590705 283.422695 
L 370.810363 283.666875 
L 371.469337 283.553327 
L 371.908653 283.55361 
L 372.347969 283.835249 
L 373.006943 284.708306 
L 374.105233 285.255479 
L 374.544549 285.568724 
L 374.764207 285.642102 
L 374.983865 286.029927 
L 375.642839 286.390981 
L 376.082155 286.375378 
L 376.301813 286.645177 
L 376.741129 286.65668 
L 376.960787 286.846369 
L 377.180445 286.870676 
L 377.400103 287.030421 
L 377.619761 286.796356 
L 378.059077 286.678621 
L 378.718051 286.945254 
L 378.937709 287.201578 
L 379.157367 286.993758 
L 379.596683 287.332003 
L 379.816341 287.671585 
L 380.255658 287.737312 
L 380.694974 287.84756 
L 381.13429 287.747647 
L 382.23258 288.232368 
L 382.452238 287.914755 
L 382.891554 288.029366 
L 383.33087 287.613671 
L 384.209502 287.835974 
L 384.42916 288.105516 
L 385.52745 288.251279 
L 386.186424 289.031807 
L 386.406082 289.210454 
L 386.845398 289.20101 
L 387.065056 289.518311 
L 387.284714 289.607164 
L 387.504372 289.380689 
L 387.72403 289.353238 
L 387.943688 289.206187 
L 388.383004 289.518397 
L 388.82232 289.273738 
L 389.041978 289.309401 
L 390.140268 290.738578 
L 390.799242 290.810443 
L 391.0189 290.749596 
L 391.238558 291.031526 
L 391.458216 291.067129 
L 391.677874 291.454275 
L 392.556506 291.990565 
L 392.776164 291.976402 
L 393.21548 292.17652 
L 393.874454 292.413405 
L 394.533428 292.746727 
L 395.192403 293.005952 
L 395.412061 293.085486 
L 396.290693 294.016824 
L 396.730009 294.277269 
L 396.949667 294.537362 
L 397.169325 294.399912 
L 397.608641 294.913189 
L 398.047957 295.289928 
L 398.487273 295.488 
L 398.487273 295.488 
" clip-path="url(#p7b0c511548)" style="fill: none; stroke: #1f77b4; stroke-opacity: 0.7; stroke-width: 1.5; stroke-linecap: square"/>
   </g>
   <g id="line2d_17">
    <path d="M 73.832727 168.761359 
L 74.052385 168.892909 
L 74.931017 168.476709 
L 75.370333 168.636457 
L 76.029307 168.058941 
L 77.127597 168.211366 
L 77.347256 168.380919 
L 77.566914 168.340369 
L 78.00623 168.097978 
L 78.884862 167.867747 
L 79.10452 167.804531 
L 79.543836 167.228984 
L 79.763494 167.497077 
L 80.20281 167.217875 
L 80.422468 167.371652 
L 80.642126 167.090372 
L 81.081442 167.419123 
L 81.3011 167.426784 
L 81.520758 167.103886 
L 81.740416 167.072689 
L 81.960074 167.173028 
L 82.179732 166.991619 
L 82.39939 167.029145 
L 82.838706 166.911067 
L 83.058364 166.978774 
L 83.49768 166.741348 
L 84.156654 166.350202 
L 85.254944 166.366535 
L 85.69426 166.199152 
L 86.133576 166.285419 
L 86.353234 166.228791 
L 86.79255 166.360548 
L 87.231866 166.278831 
L 87.451524 166.141669 
L 87.89084 166.110661 
L 88.110498 166.038286 
L 88.330156 166.097956 
L 89.428446 165.747283 
L 89.648104 165.892929 
L 89.867762 165.781408 
L 90.307078 165.876743 
L 90.746394 165.815996 
L 92.723317 165.345525 
L 93.162633 165.257894 
L 93.382291 165.217817 
L 93.601949 165.002944 
L 93.821607 165.016043 
L 94.260923 164.916302 
L 95.359213 164.891822 
L 95.798529 164.947986 
L 96.018187 164.831077 
L 96.457503 164.859385 
L 96.896819 164.820271 
L 97.336135 164.717931 
L 97.995109 164.689155 
L 98.214767 164.78586 
L 99.313057 164.449043 
L 100.631005 164.359084 
L 101.070321 164.187801 
L 101.289979 164.25929 
L 101.509637 164.164471 
L 101.948953 164.254653 
L 103.925875 164.067253 
L 105.463481 163.758949 
L 108.319036 163.565094 
L 108.758352 163.612367 
L 108.97801 163.615318 
L 109.636984 163.37856 
L 109.856642 163.31906 
L 110.295958 162.634322 
L 110.515616 162.780379 
L 110.735274 162.665731 
L 110.954932 162.919333 
L 111.17459 162.885149 
L 111.394248 162.70931 
L 111.833564 162.605563 
L 112.053222 162.512537 
L 112.27288 162.117292 
L 112.492538 162.305121 
L 112.712196 162.145869 
L 112.931854 162.127811 
L 113.37117 162.304854 
L 113.590828 162.267402 
L 114.030144 162.01248 
L 114.249802 161.97393 
L 114.46946 162.136439 
L 114.908776 161.765053 
L 115.128434 161.502516 
L 116.007066 161.200319 
L 116.446382 160.721518 
L 116.66604 160.7815 
L 116.885698 160.650797 
L 117.105356 160.723246 
L 117.325014 160.675468 
L 117.544672 160.83874 
L 117.76433 160.685588 
L 118.203646 160.739917 
L 118.423304 160.257289 
L 118.642962 160.192621 
L 118.86262 159.835262 
L 119.521594 159.799996 
L 119.741252 159.7826 
L 120.180568 159.277052 
L 120.619884 159.206361 
L 121.278858 158.578285 
L 121.498516 159.018218 
L 122.377148 159.156674 
L 122.596806 158.712876 
L 122.816465 158.818647 
L 123.695097 158.075793 
L 124.793387 157.661616 
L 125.013045 157.704721 
L 125.232703 157.464147 
L 126.111335 157.135725 
L 126.330993 156.9691 
L 126.770309 157.006162 
L 128.307915 156.149541 
L 128.747231 156.189678 
L 128.966889 156.018679 
L 129.406205 156.013655 
L 130.943811 155.65063 
L 131.163469 155.658259 
L 132.261759 154.95605 
L 132.481417 155.052461 
L 134.019023 154.684046 
L 134.238681 154.77162 
L 134.458339 154.496966 
L 136.215603 154.231726 
L 137.094235 153.955836 
L 137.753209 154.007323 
L 138.8515 153.836768 
L 139.071158 153.899443 
L 139.730132 153.771661 
L 140.169448 153.627855 
L 140.608764 153.331474 
L 140.828422 153.343354 
L 142.366028 152.502434 
L 143.025002 152.430156 
L 143.24466 152.297358 
L 143.464318 152.332602 
L 144.562608 151.940566 
L 144.782266 151.94943 
L 145.221582 151.636454 
L 145.44124 151.813644 
L 146.319872 151.803819 
L 147.418162 151.406706 
L 148.077136 151.409587 
L 148.516452 151.220361 
L 148.955768 150.952048 
L 151.811322 150.506523 
L 152.470296 150.289238 
L 152.909612 150.347102 
L 153.129271 150.405502 
L 153.348929 150.288252 
L 153.568587 150.355153 
L 154.007903 150.224933 
L 154.886535 149.500416 
L 155.106193 149.741208 
L 155.325851 149.71239 
L 155.545509 149.923139 
L 155.984825 149.620604 
L 156.204483 149.74278 
L 156.424141 149.340628 
L 156.643799 149.341655 
L 157.083115 149.603534 
L 157.302773 149.482102 
L 157.522431 149.560384 
L 157.742089 149.496915 
L 157.961747 149.085443 
L 158.181405 149.261411 
L 158.401063 149.21671 
L 159.060037 149.341653 
L 159.279695 149.232703 
L 159.938669 149.402026 
L 160.597643 149.395019 
L 161.036959 149.341651 
L 161.695933 149.185868 
L 162.354907 148.95184 
L 162.574565 148.795364 
L 162.794223 148.835044 
L 163.672855 148.417079 
L 163.892513 148.114941 
L 164.551487 148.14189 
L 164.771145 147.896759 
L 165.430119 148.162445 
L 165.649777 148.096058 
L 165.869435 148.184648 
L 167.626699 147.844581 
L 168.066016 147.761777 
L 171.360886 147.283409 
L 172.01986 147.110981 
L 172.459176 147.163282 
L 172.678834 147.177772 
L 173.337808 146.86205 
L 173.996782 147.064506 
L 174.655756 146.941194 
L 174.875414 147.0064 
L 175.973704 146.841217 
L 176.41302 146.811165 
L 177.291652 146.637846 
L 177.950626 146.619083 
L 178.829258 146.645967 
L 179.048916 146.539365 
L 179.268574 146.590897 
L 179.70789 146.490227 
L 180.147206 146.528636 
L 180.586522 146.380334 
L 180.80618 146.349908 
L 181.245496 145.929452 
L 181.465154 146.109406 
L 181.90447 146.045886 
L 182.124128 145.78565 
L 182.563444 146.035397 
L 182.783102 146.188158 
L 183.00276 146.178475 
L 183.222419 145.999596 
L 183.661735 146.015328 
L 183.881393 146.013816 
L 184.540367 145.732335 
L 184.760025 145.765291 
L 185.199341 145.42695 
L 185.638657 144.570723 
L 185.858315 144.547138 
L 186.077973 144.022456 
L 186.297631 143.971842 
L 186.517289 144.4909 
L 186.736947 144.086198 
L 186.956605 144.546621 
L 187.615579 142.771744 
L 187.835237 143.264048 
L 188.054895 142.616291 
L 188.274553 141.319249 
L 188.494211 142.162619 
L 188.713869 140.752522 
L 188.933527 141.179363 
L 189.153185 140.41679 
L 189.372843 140.169348 
L 189.812159 139.073292 
L 190.031817 139.864633 
L 190.251475 139.865287 
L 190.471133 140.342116 
L 190.690791 139.724983 
L 190.910449 139.917033 
L 191.349765 138.540519 
L 191.569423 138.614353 
L 191.789081 138.226935 
L 192.008739 138.864484 
L 192.228397 138.631987 
L 192.667713 138.636622 
L 192.887371 138.245914 
L 193.107029 138.279062 
L 193.326687 137.701232 
L 193.546345 137.473534 
L 193.766003 137.492275 
L 194.205319 136.510308 
L 194.424977 136.633815 
L 194.644635 136.488954 
L 195.083951 136.574725 
L 195.303609 136.373508 
L 195.523267 136.657897 
L 195.742925 136.452887 
L 195.962583 135.928595 
L 196.401899 135.706568 
L 196.841215 135.505546 
L 197.060873 135.55983 
L 197.280531 135.431992 
L 197.719847 134.623268 
L 198.159163 134.377965 
L 198.378822 134.585035 
L 198.59848 134.281411 
L 198.818138 134.297043 
L 199.037796 134.10352 
L 199.69677 134.157225 
L 200.355744 133.747603 
L 201.014718 133.612932 
L 201.234376 133.878336 
L 201.454034 133.900271 
L 201.89335 133.494161 
L 202.113008 132.611304 
L 202.771982 132.869953 
L 203.430956 132.383595 
L 203.870272 132.441832 
L 204.08993 132.054232 
L 204.309588 132.145683 
L 204.529246 131.757855 
L 205.627536 132.173654 
L 205.847194 131.902314 
L 206.066852 131.909204 
L 206.28651 131.750529 
L 206.506168 131.757454 
L 206.725826 131.505227 
L 207.165142 131.607637 
L 207.604458 131.392762 
L 208.043774 131.36763 
L 208.263432 131.37472 
L 208.702748 130.986645 
L 208.922406 130.950761 
L 209.142064 130.78174 
L 209.361722 130.860876 
L 209.58138 130.68946 
L 210.240354 130.63746 
L 211.118986 130.464652 
L 211.338644 130.27986 
L 211.558302 130.40417 
L 211.997618 130.252356 
L 213.535225 130.152939 
L 213.754883 130.239444 
L 214.633515 130.131672 
L 214.853173 130.256123 
L 215.072831 129.64133 
L 215.292489 129.525906 
L 215.512147 129.038531 
L 215.731805 129.374548 
L 215.951463 129.075277 
L 216.610437 129.178286 
L 217.049753 128.812925 
L 217.489069 128.334029 
L 217.708727 128.347112 
L 217.928385 127.903446 
L 218.148043 127.817806 
L 218.587359 128.057661 
L 218.807017 127.8748 
L 219.246333 127.850311 
L 219.465991 127.629511 
L 219.685649 127.758941 
L 219.905307 127.393663 
L 220.124965 127.628029 
L 220.564281 127.627298 
L 220.783939 127.775452 
L 221.442913 127.285173 
L 221.662571 127.239258 
L 221.882229 126.890129 
L 222.760861 126.887931 
L 222.980519 126.517427 
L 223.200177 126.46999 
L 223.419835 125.939787 
L 223.639493 126.039674 
L 223.859151 125.744944 
L 224.298467 125.922988 
L 224.737783 126.290433 
L 224.957441 126.184663 
L 225.177099 126.225041 
L 225.396757 126.040145 
L 225.616415 126.097815 
L 225.836073 125.786575 
L 226.275389 125.948757 
L 226.495047 125.81059 
L 227.154021 125.134436 
L 227.373679 125.071292 
L 227.593337 125.186335 
L 228.252311 124.723282 
L 228.471969 124.809843 
L 228.911286 124.668974 
L 229.130944 124.745522 
L 230.448892 124.062073 
L 230.66855 124.174531 
L 232.86513 123.494838 
L 233.084788 123.559456 
L 233.304446 123.253673 
L 233.743762 123.271419 
L 234.183078 123.42335 
L 234.402736 123.22291 
L 235.06171 123.054889 
L 235.281368 122.885993 
L 235.940342 123.269403 
L 236.599316 123.101914 
L 236.818974 122.608777 
L 237.038632 122.792947 
L 237.25829 122.483322 
L 237.477948 122.748773 
L 237.697606 122.816482 
L 237.917264 122.69838 
L 238.35658 122.68794 
L 238.576238 122.674317 
L 239.235212 122.29866 
L 239.45487 122.286314 
L 240.55316 121.597365 
L 240.772818 121.607234 
L 240.992476 121.748699 
L 241.212134 121.323045 
L 241.431792 121.150427 
L 241.65145 121.449152 
L 242.310424 120.703363 
L 242.530082 120.906726 
L 242.74974 120.709306 
L 242.969398 120.822654 
L 244.287347 120.436 
L 244.507005 120.061683 
L 244.726663 119.988767 
L 244.946321 120.036518 
L 245.385637 119.601982 
L 245.605295 119.563642 
L 245.824953 119.723094 
L 246.483927 119.35772 
L 246.923243 119.577148 
L 247.582217 119.405912 
L 247.801875 119.456154 
L 248.460849 119.131557 
L 248.900165 119.207303 
L 249.339481 118.819492 
L 249.559139 118.85243 
L 249.778797 118.611186 
L 249.998455 118.786325 
L 250.877087 118.664741 
L 251.096745 118.424761 
L 251.316403 118.35569 
L 251.536061 118.117956 
L 251.975377 118.181526 
L 252.195035 118.214281 
L 252.854009 117.31672 
L 253.293325 117.661566 
L 253.732641 117.396278 
L 253.952299 117.270715 
L 254.171957 117.468509 
L 254.391615 117.397455 
L 254.611273 117.453824 
L 255.050589 117.315559 
L 255.929221 117.085861 
L 256.148879 116.966525 
L 256.368537 117.059746 
L 257.027511 116.810853 
L 257.686485 116.833191 
L 258.345459 116.567082 
L 258.565117 116.319108 
L 258.784775 116.476475 
L 259.883066 116.313009 
L 260.54204 116.187453 
L 260.761698 116.245058 
L 261.420672 115.86489 
L 261.64033 115.979314 
L 262.299304 115.749988 
L 262.73862 115.396149 
L 262.958278 115.034118 
L 263.397594 115.34477 
L 263.617252 115.259302 
L 263.83691 115.422935 
L 264.056568 115.37174 
L 264.276226 115.16642 
L 264.9352 114.912053 
L 265.154858 114.786116 
L 265.374516 114.87716 
L 265.594174 114.655311 
L 266.03349 114.654235 
L 266.472806 114.484905 
L 267.13178 114.400967 
L 267.351438 114.386152 
L 268.010412 113.951308 
L 268.449728 114.184853 
L 269.32836 114.066264 
L 269.767676 113.957751 
L 270.865966 113.5887 
L 271.305282 113.229803 
L 271.52494 113.284138 
L 271.744598 113.151169 
L 271.964256 113.26852 
L 272.183914 113.211301 
L 272.842888 112.552997 
L 273.501862 112.625489 
L 273.72152 112.504265 
L 273.941178 111.970143 
L 274.160837 111.955562 
L 274.380495 111.658455 
L 274.600153 111.760747 
L 274.819811 111.566557 
L 275.039469 111.692959 
L 275.259127 111.631754 
L 275.478785 111.749929 
L 276.137759 111.26742 
L 276.357417 111.311864 
L 276.796733 111.721879 
L 277.455707 111.821473 
L 277.675365 111.774632 
L 278.114681 111.583492 
L 278.334339 111.500635 
L 278.553997 111.296612 
L 278.773655 111.389736 
L 279.652287 111.149663 
L 280.311261 110.99738 
L 280.970235 110.527117 
L 281.189893 110.588697 
L 282.068525 110.365572 
L 282.947157 110.100173 
L 283.166815 109.56063 
L 283.386473 109.695712 
L 283.825789 108.875159 
L 284.045447 109.087058 
L 284.265105 108.822419 
L 284.484763 108.951227 
L 284.704421 109.301199 
L 285.583053 108.741882 
L 285.802711 108.466426 
L 286.022369 108.753654 
L 286.681343 107.878177 
L 286.901001 108.162167 
L 287.120659 108.254332 
L 287.779633 108.05823 
L 288.877923 107.378731 
L 289.097581 106.877183 
L 289.756556 106.606318 
L 289.976214 106.696889 
L 290.195872 106.612521 
L 290.41553 106.312624 
L 290.635188 106.250178 
L 291.074504 105.605864 
L 292.392452 104.368445 
L 292.831768 104.904574 
L 293.271084 104.981523 
L 293.490742 104.356146 
L 294.149716 103.941353 
L 294.369374 104.050234 
L 294.80869 103.112331 
L 295.028348 102.821185 
L 295.248006 103.033161 
L 295.467664 102.982418 
L 295.687322 102.484805 
L 296.346296 102.013408 
L 296.785612 102.492391 
L 297.224928 102.023399 
L 297.444586 102.200725 
L 297.883902 101.669995 
L 298.10356 101.082985 
L 298.323218 101.147777 
L 298.542876 101.518924 
L 298.762534 101.314846 
L 298.982192 100.80332 
L 299.20185 100.595632 
L 299.860824 101.554215 
L 300.080482 101.749357 
L 300.30014 101.496412 
L 300.519798 101.658865 
L 300.739456 101.288844 
L 300.959114 101.313991 
L 301.39843 101.058184 
L 301.618088 101.100451 
L 302.277062 100.146291 
L 302.49672 100.145043 
L 302.936036 99.430316 
L 303.155694 99.429346 
L 303.375352 99.255348 
L 303.59501 98.839746 
L 303.814668 98.664503 
L 304.034326 98.779488 
L 304.473643 98.294267 
L 304.693301 98.488289 
L 304.912959 98.376269 
L 305.791591 96.747469 
L 306.011249 96.656065 
L 306.230907 96.919136 
L 306.450565 96.126359 
L 306.670223 96.005088 
L 306.889881 96.139113 
L 307.109539 96.494021 
L 307.329197 95.640547 
L 307.548855 95.499793 
L 307.768513 94.796062 
L 308.207829 94.498655 
L 308.427487 94.569782 
L 308.647145 94.822621 
L 308.866803 94.618885 
L 309.086461 94.982465 
L 309.306119 94.064884 
L 309.745435 93.806532 
L 309.965093 93.94764 
L 310.184751 93.682068 
L 310.404409 93.607515 
L 310.843725 93.997564 
L 311.283041 93.353873 
L 311.502699 93.513247 
L 311.722357 93.013807 
L 312.161673 93.013246 
L 312.381331 92.777008 
L 313.040305 90.812553 
L 313.259963 90.88819 
L 313.479621 91.247165 
L 313.699279 90.575345 
L 313.918937 90.455732 
L 314.138595 91.005348 
L 314.358253 90.811585 
L 314.577911 90.889759 
L 314.797569 91.22882 
L 315.017227 91.025047 
L 315.236885 90.497082 
L 315.456543 90.486156 
L 315.676201 90.244964 
L 315.895859 90.433989 
L 316.335175 90.461315 
L 316.554833 90.661108 
L 316.774491 90.613674 
L 317.213807 90.07296 
L 317.433465 89.840106 
L 317.653123 89.831411 
L 317.872781 90.043233 
L 318.092439 89.822474 
L 318.312097 90.18231 
L 318.751413 90.173456 
L 318.971071 89.807787 
L 319.190729 89.694041 
L 319.410388 89.360669 
L 319.630046 89.701665 
L 320.069362 89.865639 
L 320.508678 89.430576 
L 320.728336 89.556823 
L 321.606968 88.841388 
L 321.826626 89.090766 
L 322.046284 88.905595 
L 322.265942 89.036578 
L 322.705258 88.782329 
L 323.803548 87.500839 
L 324.023206 87.494168 
L 324.242864 87.640576 
L 324.462522 87.014476 
L 325.78047 85.658408 
L 326.439444 85.961875 
L 326.659102 85.968101 
L 326.87876 85.074021 
L 327.098418 85.111961 
L 327.537734 84.622795 
L 327.757392 84.651233 
L 328.636024 83.644729 
L 328.855682 83.344651 
L 329.07534 83.305729 
L 329.294998 83.486717 
L 329.734314 82.700462 
L 330.17363 83.170043 
L 330.612946 82.604318 
L 330.832604 81.97062 
L 331.491578 81.530099 
L 331.711236 81.747843 
L 331.930894 81.22034 
L 332.37021 81.583338 
L 332.809526 81.010718 
L 333.029184 81.045041 
L 333.4685 80.917686 
L 333.907816 80.205712 
L 334.127474 80.409842 
L 335.006107 79.111578 
L 335.445423 79.430392 
L 335.665081 79.497909 
L 335.884739 79.15584 
L 336.104397 79.910504 
L 336.324055 79.809686 
L 336.543713 79.375719 
L 336.763371 79.233169 
L 337.202687 78.466521 
L 337.422345 78.474889 
L 337.861661 77.894952 
L 338.081319 77.833814 
L 338.740293 76.872117 
L 338.959951 77.113223 
L 339.618925 75.99861 
L 339.838583 75.500103 
L 340.058241 75.367423 
L 340.277899 75.382739 
L 340.497557 75.155156 
L 340.717215 75.295994 
L 340.936873 75.295418 
L 341.156531 75.044503 
L 341.595847 74.228336 
L 341.815505 73.806342 
L 342.035163 73.665957 
L 342.254821 73.814271 
L 342.474479 73.44903 
L 342.913795 73.114385 
L 343.133453 72.686467 
L 343.353111 72.845308 
L 343.792427 72.427284 
L 344.012085 72.487712 
L 344.231743 72.236813 
L 344.451401 72.492444 
L 344.890717 72.32095 
L 345.110375 72.356086 
L 345.769349 71.916416 
L 346.208665 71.368009 
L 346.647981 71.699606 
L 347.087297 71.480825 
L 347.306955 71.567584 
L 347.526613 71.515634 
L 347.746271 71.209859 
L 348.405245 71.417849 
L 348.844561 70.837382 
L 349.064219 70.916494 
L 349.503535 70.288197 
L 349.723194 70.240281 
L 349.942852 70.347921 
L 350.821484 69.676874 
L 351.041142 69.289857 
L 352.35909 68.500606 
L 353.018064 68.655612 
L 353.237722 68.274732 
L 353.45738 68.206853 
L 353.896696 67.609235 
L 354.116354 67.543981 
L 354.336012 67.72007 
L 354.55567 67.52464 
L 354.775328 67.666572 
L 354.994986 67.319833 
L 355.434302 67.404254 
L 355.65396 66.961265 
L 356.532592 66.445076 
L 356.75225 66.582754 
L 356.971908 66.5598 
L 357.191566 66.65918 
L 357.411224 66.626893 
L 357.85054 66.294631 
L 358.289856 66.197096 
L 358.729172 65.885059 
L 358.94883 66.00036 
L 360.04712 65.37352 
L 360.486436 65.313195 
L 360.925752 64.885515 
L 361.14541 65.163975 
L 361.584726 65.192964 
L 362.2437 64.596385 
L 362.463358 64.913661 
L 364.220622 64.560622 
L 364.44028 64.620626 
L 365.099255 63.919616 
L 365.318913 63.660403 
L 365.758229 63.962383 
L 366.197545 63.729708 
L 366.636861 63.975402 
L 367.295835 63.573819 
L 368.613783 63.690899 
L 369.272757 63.19031 
L 369.492415 63.202428 
L 369.931731 62.904291 
L 370.151389 63.061432 
L 370.590705 62.822335 
L 370.810363 63.000395 
L 371.249679 62.735778 
L 371.688995 62.300812 
L 372.128311 62.343494 
L 372.567627 62.605499 
L 372.787285 62.530067 
L 373.446259 62.619134 
L 373.885575 62.333228 
L 374.544549 62.301161 
L 374.764207 62.151841 
L 374.983865 62.310984 
L 375.203523 62.271332 
L 375.423181 62.118023 
L 375.862497 61.664472 
L 376.082155 61.467861 
L 376.301813 61.572199 
L 376.960787 61.108922 
L 377.400103 61.100584 
L 378.059077 60.404799 
L 378.718051 60.26822 
L 378.937709 60.398636 
L 379.157367 60.054994 
L 379.596683 60.100291 
L 379.816341 60.263717 
L 380.475316 60.017453 
L 381.13429 59.574675 
L 382.23258 59.768262 
L 382.452238 59.499894 
L 382.891554 59.3067 
L 383.550528 58.769114 
L 383.770186 58.72679 
L 383.989844 58.360064 
L 384.868476 57.999772 
L 385.088134 57.636599 
L 385.307792 57.672377 
L 385.52745 57.566756 
L 385.966766 57.688928 
L 386.406082 57.635406 
L 386.845398 57.243815 
L 387.065056 57.422619 
L 387.284714 57.326174 
L 387.943688 56.597546 
L 388.163346 56.597686 
L 388.383004 56.73202 
L 388.82232 56.298158 
L 389.041978 56.224126 
L 389.481294 56.233436 
L 390.359926 56.309868 
L 390.799242 56.139715 
L 391.0189 55.877767 
L 391.238558 56.080819 
L 391.458216 55.893422 
L 391.677874 56.066838 
L 395.412061 54.340287 
L 395.851377 54.26936 
L 396.071035 54.457586 
L 396.730009 54.191931 
L 396.949667 54.218971 
L 397.169325 53.840785 
L 397.388983 53.960699 
L 398.487273 53.568 
L 398.487273 53.568 
" clip-path="url(#p7b0c511548)" style="fill: none; stroke: #ff7f0e; stroke-opacity: 0.7; stroke-width: 1.5; stroke-linecap: square"/>
   </g>
   <g id="line2d_18">
    <path d="M 73.832727 168.85499 
L 74.052385 169.056274 
L 74.931017 168.890116 
L 75.370333 169.216179 
L 76.029307 168.876249 
L 77.566914 169.333503 
L 78.00623 169.143776 
L 78.445546 169.141309 
L 78.665204 169.000452 
L 79.10452 168.994941 
L 79.543836 168.516647 
L 79.763494 168.848474 
L 79.983152 168.685472 
L 80.20281 168.665661 
L 80.422468 168.858296 
L 80.642126 168.596793 
L 81.3011 168.992058 
L 81.520758 168.657831 
L 81.740416 168.660031 
L 81.960074 168.799923 
L 82.179732 168.664512 
L 83.058364 168.868196 
L 83.936996 168.65624 
L 84.156654 168.523778 
L 85.254944 168.68987 
L 85.69426 168.593396 
L 86.133576 168.744826 
L 86.353234 168.699663 
L 86.79255 168.87392 
L 88.110498 168.757511 
L 88.769472 168.885602 
L 89.208788 168.846634 
L 89.428446 168.715717 
L 89.648104 168.880336 
L 89.867762 168.807747 
L 90.307078 168.956718 
L 90.966052 169.011383 
L 92.064342 169.079251 
L 93.382291 169.008008 
L 93.601949 168.835225 
L 93.821607 168.885541 
L 94.041265 168.819582 
L 94.700239 168.965596 
L 94.919897 168.890406 
L 95.798529 169.234313 
L 96.018187 169.136148 
L 96.457503 169.210513 
L 96.896819 169.22873 
L 97.336135 169.205483 
L 97.995109 169.303228 
L 98.214767 169.448555 
L 99.313057 169.311629 
L 100.411347 169.435801 
L 101.509637 169.251428 
L 101.948953 169.392255 
L 104.145533 169.443827 
L 105.243823 169.311995 
L 106.122455 169.4035 
L 106.342113 169.322627 
L 107.001087 169.475347 
L 108.319036 169.342638 
L 108.97801 169.403496 
L 109.417326 169.233884 
L 109.856642 169.203047 
L 110.295958 168.604044 
L 110.515616 168.801574 
L 110.735274 168.758013 
L 110.954932 169.067715 
L 111.17459 169.105045 
L 111.394248 168.967242 
L 111.833564 168.951961 
L 112.053222 168.911008 
L 112.27288 168.615128 
L 112.492538 168.900197 
L 112.712196 168.803802 
L 112.931854 168.854272 
L 113.37117 169.194543 
L 113.590828 169.276511 
L 113.810486 169.145417 
L 114.249802 169.187438 
L 114.46946 169.414408 
L 114.908776 169.254401 
L 115.128434 169.084105 
L 116.007066 169.188065 
L 116.446382 168.837004 
L 116.66604 168.923944 
L 116.885698 168.863354 
L 117.105356 169.039163 
L 117.325014 169.072103 
L 117.544672 169.322753 
L 117.76433 169.265052 
L 118.203646 169.46965 
L 118.423304 169.032483 
L 118.642962 169.018726 
L 118.86262 168.736128 
L 119.741252 168.963249 
L 120.180568 168.658867 
L 120.400226 168.736141 
L 120.839542 168.538155 
L 121.278858 168.265708 
L 121.498516 168.827258 
L 122.377148 169.32701 
L 122.596806 169.075916 
L 122.816465 169.373752 
L 123.914755 169.422763 
L 124.134413 169.338383 
L 125.013045 169.696571 
L 125.232703 169.536534 
L 126.111335 169.536102 
L 126.330993 169.456725 
L 126.770309 169.636546 
L 127.209625 169.650767 
L 127.648941 169.600187 
L 128.088257 169.432803 
L 128.307915 169.416676 
L 128.747231 169.605741 
L 128.966889 169.556308 
L 129.406205 169.748761 
L 130.065179 169.788147 
L 131.822443 169.643683 
L 132.261759 169.466284 
L 132.481417 169.617022 
L 134.019023 169.614475 
L 134.238681 169.754644 
L 134.458339 169.543841 
L 135.556629 169.72303 
L 135.776287 169.849914 
L 136.435261 169.741249 
L 136.874577 169.778135 
L 137.313893 169.816963 
L 139.730132 170.139655 
L 141.04808 169.961972 
L 141.267738 169.760911 
L 141.926712 169.732684 
L 142.14637 169.440265 
L 142.805344 169.700877 
L 143.24466 169.544599 
L 143.464318 169.65622 
L 145.221582 169.405185 
L 145.660898 169.731702 
L 146.53953 169.790053 
L 146.978846 169.719595 
L 147.418162 169.700057 
L 148.077136 169.916654 
L 149.395084 169.706512 
L 149.8344 169.780993 
L 150.273716 169.755762 
L 150.713032 169.640271 
L 151.811322 169.6977 
L 152.03098 169.636142 
L 152.250638 169.70006 
L 152.470296 169.60044 
L 153.788245 169.762108 
L 154.227561 169.569011 
L 154.666877 169.357735 
L 154.886535 169.05867 
L 155.106193 169.310636 
L 155.325851 169.336099 
L 155.545509 169.616785 
L 155.984825 169.417843 
L 156.204483 169.602187 
L 156.424141 169.24209 
L 156.863457 169.529275 
L 157.083115 169.693923 
L 157.302773 169.62783 
L 157.742089 169.747681 
L 157.961747 169.420373 
L 158.181405 169.623313 
L 158.620721 169.750769 
L 158.840379 169.937358 
L 159.499353 170.045134 
L 159.719011 170.221605 
L 161.476275 170.299213 
L 162.354907 170.147813 
L 162.574565 170.035588 
L 162.794223 170.114556 
L 163.672855 169.864111 
L 163.892513 169.644152 
L 164.551487 169.863107 
L 164.771145 169.660325 
L 165.430119 170.009546 
L 165.649777 169.93862 
L 166.089093 170.025934 
L 166.308751 170.088595 
L 166.528409 170.022248 
L 166.748067 170.098162 
L 167.187383 170.062598 
L 169.82328 170.226485 
L 170.701912 170.217108 
L 171.141228 170.309412 
L 172.01986 170.197613 
L 172.678834 170.335857 
L 173.11815 170.178934 
L 173.337808 170.101218 
L 173.996782 170.325794 
L 174.655756 170.257496 
L 175.31473 170.418813 
L 175.973704 170.413949 
L 177.071994 170.532763 
L 177.291652 170.465498 
L 177.730968 170.614203 
L 177.950626 170.484626 
L 178.389942 170.503385 
L 179.268574 170.601493 
L 179.70789 170.579169 
L 180.147206 170.672015 
L 180.586522 170.586843 
L 180.80618 170.583665 
L 181.245496 170.214233 
L 181.465154 170.400619 
L 181.90447 170.448716 
L 182.124128 170.220622 
L 182.563444 170.575566 
L 182.783102 170.776057 
L 183.661735 170.720355 
L 183.881393 170.796418 
L 184.540367 170.676319 
L 184.979683 170.701732 
L 185.199341 170.555542 
L 185.638657 169.781814 
L 185.858315 169.814882 
L 186.077973 169.343128 
L 186.297631 169.379434 
L 186.517289 170.045604 
L 186.736947 169.670328 
L 186.956605 170.296901 
L 187.176263 169.873281 
L 187.395921 169.708564 
L 187.615579 168.911517 
L 187.835237 169.544855 
L 188.054895 169.018477 
L 188.274553 168.031953 
L 188.494211 169.105844 
L 188.713869 167.859133 
L 188.933527 168.661479 
L 189.153185 168.258772 
L 189.372843 168.446878 
L 189.812159 168.173186 
L 190.031817 169.274982 
L 190.251475 169.429466 
L 190.471133 170.144881 
L 190.690791 169.722432 
L 190.910449 169.931524 
L 191.130107 169.616669 
L 191.349765 169.08991 
L 191.569423 169.290137 
L 191.789081 169.118882 
L 192.008739 169.88585 
L 192.228397 169.972632 
L 192.667713 170.612774 
L 192.887371 170.544045 
L 193.107029 170.878347 
L 193.326687 170.657611 
L 193.546345 170.745238 
L 193.766003 171.0745 
L 194.205319 170.527499 
L 194.424977 170.850455 
L 194.644635 170.849696 
L 195.083951 171.19967 
L 195.303609 171.16296 
L 195.523267 171.475979 
L 195.742925 171.286872 
L 195.962583 170.833606 
L 196.401899 170.915632 
L 196.621557 170.818422 
L 196.841215 170.857137 
L 197.060873 171.051111 
L 197.280531 170.960117 
L 197.719847 170.302288 
L 198.159163 170.285436 
L 198.378822 170.564193 
L 198.59848 170.385809 
L 198.818138 170.574905 
L 199.037796 170.484083 
L 201.014718 171.204141 
L 201.454034 171.720407 
L 201.673692 171.611056 
L 201.89335 171.630135 
L 202.113008 170.896672 
L 202.771982 171.72666 
L 203.430956 171.415006 
L 203.870272 171.619723 
L 204.08993 171.222603 
L 204.309588 171.374184 
L 204.529246 171.08467 
L 205.627536 172.065519 
L 205.847194 171.878846 
L 206.066852 171.987075 
L 206.28651 171.929559 
L 206.506168 172.005272 
L 206.725826 171.93623 
L 206.945484 172.162375 
L 207.824116 172.375716 
L 208.48309 172.276621 
L 208.702748 172.218979 
L 208.922406 172.296263 
L 209.142064 172.203538 
L 209.361722 172.357111 
L 209.801038 172.413034 
L 210.460012 172.697794 
L 211.118986 172.884305 
L 211.338644 172.850981 
L 211.558302 173.09164 
L 212.217276 173.291716 
L 214.194199 173.955916 
L 214.413857 173.917394 
L 214.633515 174.032335 
L 214.853173 174.312806 
L 215.072831 173.81651 
L 215.292489 173.752549 
L 215.512147 173.398318 
L 215.731805 173.814717 
L 215.951463 173.583038 
L 216.610437 174.073746 
L 217.049753 173.886978 
L 217.489069 173.613298 
L 217.708727 173.738476 
L 217.928385 173.419765 
L 218.148043 173.492703 
L 218.587359 174.00678 
L 218.807017 173.934289 
L 219.246333 174.169506 
L 219.465991 174.085186 
L 219.685649 174.365221 
L 219.905307 174.189983 
L 220.344623 174.605191 
L 220.783939 175.065072 
L 221.442913 174.929779 
L 221.662571 174.951471 
L 221.882229 174.695162 
L 222.760861 174.936521 
L 222.980519 174.664147 
L 223.200177 174.666978 
L 223.419835 174.202055 
L 223.639493 174.424959 
L 223.859151 174.266026 
L 224.737783 175.163877 
L 224.957441 175.150764 
L 225.177099 175.272006 
L 225.396757 175.155775 
L 225.616415 175.211134 
L 225.836073 175.001755 
L 226.275389 175.330686 
L 227.373679 174.97107 
L 227.593337 175.16101 
L 228.252311 174.922693 
L 228.691628 175.078684 
L 228.911286 175.053207 
L 229.130944 175.189541 
L 230.229234 175.07723 
L 230.448892 174.983025 
L 230.66855 175.163037 
L 231.327524 175.129841 
L 231.986498 174.927004 
L 233.084788 175.048405 
L 233.304446 174.780727 
L 233.743762 174.949173 
L 234.183078 175.230769 
L 234.622394 175.092029 
L 235.06171 175.020153 
L 235.281368 174.910012 
L 235.940342 175.28394 
L 236.379658 175.194385 
L 236.599316 175.157804 
L 236.818974 174.698363 
L 237.038632 174.894136 
L 237.25829 174.602867 
L 237.697606 175.123344 
L 237.917264 175.118677 
L 238.136922 175.298191 
L 238.35658 175.276253 
L 238.576238 175.374462 
L 239.235212 175.226828 
L 239.45487 175.27462 
L 240.55316 174.848436 
L 240.772818 174.888947 
L 240.992476 175.075744 
L 241.212134 174.662412 
L 241.431792 174.604743 
L 241.65145 175.006322 
L 242.090766 174.693621 
L 242.310424 174.461865 
L 242.530082 174.723789 
L 242.74974 174.668673 
L 242.969398 174.918366 
L 243.189056 174.961573 
L 243.408714 175.151355 
L 244.287347 175.157036 
L 244.507005 174.888087 
L 244.726663 174.886758 
L 244.946321 175.02133 
L 245.385637 174.778634 
L 245.605295 174.822016 
L 245.824953 175.047238 
L 246.483927 174.804889 
L 247.142901 175.048055 
L 247.582217 175.014007 
L 247.801875 175.068706 
L 248.460849 174.815649 
L 248.900165 175.036054 
L 249.339481 174.749978 
L 249.559139 174.855704 
L 249.778797 174.674352 
L 249.998455 174.880417 
L 250.437771 174.882958 
L 250.657429 174.853028 
L 250.877087 174.949211 
L 251.096745 174.789212 
L 251.316403 174.812574 
L 251.536061 174.670499 
L 251.975377 174.849856 
L 252.195035 174.938626 
L 252.854009 174.088641 
L 253.293325 174.519608 
L 253.952299 174.259944 
L 254.171957 174.48192 
L 254.391615 174.437095 
L 254.611273 174.555852 
L 254.830931 174.469853 
L 255.489905 174.513123 
L 256.148879 174.430069 
L 256.368537 174.586914 
L 257.027511 174.540002 
L 257.686485 174.685926 
L 258.345459 174.545455 
L 258.565117 174.316695 
L 258.784775 174.554156 
L 259.883066 174.736766 
L 260.322382 174.722473 
L 260.761698 174.911122 
L 261.420672 174.70052 
L 261.64033 174.881857 
L 262.299304 174.87678 
L 262.73862 174.669086 
L 262.958278 174.379158 
L 263.397594 174.811102 
L 263.617252 174.819828 
L 263.83691 175.018415 
L 264.715542 174.863964 
L 265.154858 174.641242 
L 265.374516 174.786054 
L 265.594174 174.629427 
L 266.03349 174.710724 
L 266.472806 174.613085 
L 267.571096 174.487785 
L 267.790754 174.293925 
L 268.010412 174.325452 
L 268.449728 174.626732 
L 268.889044 174.633981 
L 269.108702 174.437686 
L 269.548018 174.59256 
L 269.987334 174.46862 
L 270.42665 174.480916 
L 271.085624 174.258968 
L 271.305282 174.099345 
L 271.52494 174.177101 
L 271.744598 174.072467 
L 271.964256 174.230691 
L 272.183914 174.226716 
L 272.842888 173.777701 
L 273.501862 174.147459 
L 273.72152 174.045574 
L 273.941178 173.591081 
L 274.160837 173.598198 
L 274.380495 173.361283 
L 274.600153 173.579791 
L 274.819811 173.397177 
L 275.478785 173.90929 
L 276.357417 173.778583 
L 276.577075 174.119754 
L 277.455707 174.552904 
L 278.114681 174.532681 
L 278.334339 174.544682 
L 278.553997 174.41875 
L 278.773655 174.578468 
L 279.652287 174.684665 
L 280.311261 174.702243 
L 280.970235 174.457918 
L 281.189893 174.583619 
L 281.848867 174.579884 
L 282.068525 174.659808 
L 282.947157 174.482455 
L 283.166815 173.999549 
L 283.386473 174.246643 
L 283.825789 173.672338 
L 284.045447 173.989512 
L 284.265105 173.831708 
L 284.484763 174.066263 
L 284.704421 174.478344 
L 284.924079 174.457648 
L 285.143737 174.267567 
L 285.363395 174.403353 
L 285.802711 174.035706 
L 286.022369 174.382558 
L 286.681343 173.797854 
L 287.120659 174.380925 
L 287.340317 174.482193 
L 287.559975 174.705947 
L 288.218949 174.240802 
L 288.438607 174.145281 
L 288.658265 174.2549 
L 288.877923 174.196256 
L 289.097581 173.746957 
L 289.756556 173.643446 
L 289.976214 173.802919 
L 290.195872 173.820724 
L 290.41553 173.565346 
L 290.635188 173.651696 
L 290.854846 173.385755 
L 291.294162 173.129652 
L 291.51382 172.859514 
L 291.733478 172.988493 
L 291.953136 172.824203 
L 292.392452 172.80742 
L 292.831768 173.582997 
L 293.271084 173.864055 
L 293.490742 173.350145 
L 293.7104 173.377478 
L 293.930058 173.287751 
L 294.369374 173.627341 
L 294.80869 172.927181 
L 295.028348 172.832194 
L 295.248006 173.149011 
L 295.467664 173.214774 
L 295.687322 172.768913 
L 296.126638 172.644911 
L 296.346296 172.452619 
L 296.785612 173.16269 
L 297.00527 173.096778 
L 297.224928 172.887866 
L 297.444586 173.214385 
L 297.883902 172.902944 
L 298.10356 172.403677 
L 298.323218 172.434321 
L 298.542876 172.970391 
L 298.762534 172.862259 
L 299.20185 172.395661 
L 300.080482 173.681094 
L 300.30014 173.585015 
L 300.519798 173.758262 
L 300.739456 173.48048 
L 300.959114 173.684073 
L 301.39843 173.787503 
L 301.618088 173.977605 
L 301.837746 173.843102 
L 302.057404 173.572565 
L 302.277062 173.6514 
L 302.49672 173.848951 
L 302.936036 173.458154 
L 303.155694 173.561718 
L 303.375352 173.538203 
L 303.59501 173.273368 
L 303.814668 173.213442 
L 304.034326 173.413746 
L 304.253984 173.173125 
L 304.473643 173.117601 
L 304.693301 173.379435 
L 304.912959 173.335251 
L 305.352275 172.483757 
L 305.571933 172.538001 
L 305.791591 171.988534 
L 306.011249 172.020606 
L 306.230907 172.440898 
L 306.450565 171.755817 
L 306.670223 171.803959 
L 306.889881 171.972869 
L 307.109539 172.454289 
L 307.329197 171.75541 
L 307.548855 171.690365 
L 307.768513 171.140519 
L 307.988171 171.29099 
L 308.207829 171.283514 
L 308.427487 171.466027 
L 308.647145 171.965471 
L 308.866803 171.871716 
L 309.086461 172.304755 
L 309.306119 171.523827 
L 309.745435 171.649361 
L 309.965093 171.948975 
L 310.184751 171.852928 
L 310.404409 172.045891 
L 310.843725 172.828934 
L 311.283041 172.596042 
L 311.502699 172.852578 
L 311.722357 172.579339 
L 312.161673 172.903634 
L 312.381331 172.738827 
L 313.040305 171.221265 
L 313.259963 171.315659 
L 313.479621 171.673832 
L 313.699279 171.193614 
L 313.918937 171.282118 
L 314.138595 171.83488 
L 314.358253 171.774974 
L 314.577911 171.993715 
L 314.797569 172.402463 
L 315.017227 172.344492 
L 315.236885 171.968595 
L 315.456543 171.977844 
L 315.676201 171.866918 
L 315.895859 172.046406 
L 316.335175 172.156452 
L 316.554833 172.466442 
L 316.774491 172.468014 
L 317.213807 172.147356 
L 317.433465 172.046202 
L 317.653123 172.087781 
L 317.872781 172.406732 
L 318.092439 172.269348 
L 318.312097 172.724631 
L 318.751413 172.903191 
L 318.971071 172.643123 
L 319.190729 172.673759 
L 319.410388 172.431319 
L 319.630046 172.86552 
L 320.28902 173.280278 
L 320.508678 173.150422 
L 320.728336 173.423151 
L 321.606968 173.37156 
L 321.826626 173.773221 
L 322.046284 173.715749 
L 322.265942 174.031068 
L 322.705258 174.219534 
L 323.364232 174.015756 
L 323.58389 173.726041 
L 324.023206 173.876745 
L 324.242864 174.158173 
L 324.462522 173.561178 
L 325.78047 172.968965 
L 326.439444 173.771273 
L 326.659102 173.864244 
L 326.87876 173.092456 
L 327.098418 173.213751 
L 327.537734 172.969284 
L 327.757392 173.216321 
L 329.07534 172.825197 
L 329.294998 173.142204 
L 329.734314 172.758521 
L 330.17363 173.607956 
L 330.612946 173.422864 
L 330.832604 172.961468 
L 331.491578 172.970777 
L 331.711236 173.317573 
L 331.930894 172.92595 
L 332.37021 173.482734 
L 332.809526 173.142546 
L 333.029184 173.459983 
L 333.4685 173.697153 
L 333.907816 173.324463 
L 334.127474 173.694991 
L 334.566791 173.364731 
L 334.786449 172.919932 
L 335.006107 172.781339 
L 335.445423 173.245398 
L 335.665081 173.298637 
L 335.884739 173.049111 
L 336.104397 173.953788 
L 336.324055 174.007395 
L 336.543713 173.704305 
L 336.763371 173.724784 
L 337.202687 173.444209 
L 337.422345 173.59584 
L 337.642003 173.432641 
L 338.081319 173.592787 
L 338.300977 173.518967 
L 338.520635 173.216899 
L 338.740293 173.111209 
L 338.959951 173.512294 
L 339.399267 173.217814 
L 339.838583 172.477456 
L 340.058241 172.382818 
L 340.277899 172.509296 
L 340.497557 172.395192 
L 340.936873 172.780082 
L 341.156531 172.674478 
L 341.595847 172.102502 
L 341.815505 171.888333 
L 342.035163 171.919095 
L 342.254821 172.167692 
L 342.474479 171.903551 
L 342.913795 171.82041 
L 343.133453 171.540992 
L 343.353111 171.792982 
L 343.572769 171.757269 
L 343.792427 171.608882 
L 344.012085 171.719174 
L 344.231743 171.579504 
L 344.451401 171.937437 
L 344.890717 172.04278 
L 345.330033 172.289224 
L 345.549691 172.304167 
L 345.769349 172.180619 
L 346.208665 171.763821 
L 346.647981 172.20569 
L 347.087297 172.127499 
L 347.306955 172.303644 
L 347.526613 172.233964 
L 347.746271 172.030681 
L 348.405245 172.694158 
L 348.844561 172.425924 
L 349.064219 172.689237 
L 349.503535 172.36073 
L 349.723194 172.418077 
L 349.942852 172.616061 
L 350.382168 172.630252 
L 350.601826 172.323633 
L 350.821484 172.272712 
L 351.041142 171.957003 
L 352.139432 171.825177 
L 352.35909 171.724502 
L 352.578748 171.859198 
L 352.798406 172.151132 
L 353.018064 172.163597 
L 353.237722 171.889078 
L 353.45738 171.888885 
L 353.896696 171.436175 
L 354.116354 171.45679 
L 354.336012 171.719071 
L 354.55567 171.639433 
L 354.775328 171.944572 
L 354.994986 171.771872 
L 355.434302 172.124419 
L 355.65396 171.794115 
L 356.532592 171.734143 
L 356.75225 171.920203 
L 356.971908 171.956006 
L 357.191566 172.129317 
L 357.411224 172.158841 
L 357.85054 171.981787 
L 358.289856 171.94243 
L 358.729172 171.757408 
L 358.94883 171.929247 
L 360.266778 171.850374 
L 360.486436 171.908543 
L 360.706094 171.686258 
L 360.925752 171.668571 
L 361.14541 172.035197 
L 361.584726 172.171845 
L 362.2437 171.682377 
L 362.463358 172.021346 
L 364.000964 171.768351 
L 364.44028 172.078507 
L 365.099255 171.66398 
L 365.318913 171.499451 
L 365.977887 171.917675 
L 366.197545 171.873334 
L 366.636861 172.339381 
L 367.295835 172.298162 
L 368.833441 173.105121 
L 369.272757 173.01061 
L 369.492415 173.136358 
L 369.712073 172.974556 
L 369.931731 172.964692 
L 370.151389 173.199785 
L 370.590705 173.122515 
L 370.810363 173.333635 
L 371.908653 172.93292 
L 372.347969 173.146813 
L 372.567627 173.401058 
L 373.006943 173.648671 
L 373.446259 173.758601 
L 373.665917 173.652297 
L 374.105233 173.794666 
L 374.544549 173.934943 
L 374.764207 173.896971 
L 374.983865 174.170456 
L 375.423181 174.278679 
L 375.862497 174.022962 
L 376.082155 173.921619 
L 376.301813 174.108688 
L 376.741129 173.91053 
L 377.400103 174.065503 
L 377.839419 173.683133 
L 378.059077 173.54171 
L 378.718051 173.606737 
L 378.937709 173.800107 
L 379.157367 173.524376 
L 379.596683 173.716147 
L 379.816341 173.967651 
L 380.475316 173.913252 
L 381.353948 173.7148 
L 381.573606 173.842506 
L 382.012922 173.824326 
L 382.23258 174.000315 
L 382.452238 173.707325 
L 382.891554 173.668033 
L 383.550528 173.213712 
L 383.770186 173.254202 
L 383.989844 173.012971 
L 384.868476 173.1147 
L 385.088134 172.836025 
L 385.307792 172.953269 
L 385.52745 172.909018 
L 385.966766 173.234158 
L 386.406082 173.42293 
L 386.845398 173.222412 
L 387.065056 173.470465 
L 387.284714 173.466669 
L 387.72403 173.087203 
L 387.943688 172.901867 
L 388.163346 172.950135 
L 388.383004 173.125208 
L 388.82232 172.785948 
L 389.041978 172.766763 
L 390.140268 173.582956 
L 391.0189 173.313681 
L 391.238558 173.556173 
L 391.458216 173.480275 
L 391.677874 173.760557 
L 393.21548 173.773849 
L 393.874454 173.675499 
L 394.533428 173.676381 
L 394.972744 173.553644 
L 395.192403 173.703018 
L 395.631719 173.811577 
L 395.851377 173.893608 
L 396.071035 174.167088 
L 396.730009 174.2346 
L 396.949667 174.378167 
L 397.169325 174.120349 
L 397.388983 174.357123 
L 398.487273 174.528 
L 398.487273 174.528 
" clip-path="url(#p7b0c511548)" style="fill: none; stroke: #2ca02c; stroke-opacity: 0.7; stroke-width: 1.5; stroke-linecap: square"/>
   </g>
   <g id="patch_3">
    <path d="M 57.6 307.584 
L 57.6 41.472 
" style="fill: none; stroke: #000000; stroke-width: 0.8; stroke-linejoin: miter; stroke-linecap: square"/>
   </g>
   <g id="patch_4">
    <path d="M 414.72 307.584 
L 414.72 41.472 
" style="fill: none; stroke: #000000; stroke-width: 0.8; stroke-linejoin: miter; stroke-linecap: square"/>
   </g>
   <g id="patch_5">
    <path d="M 57.6 307.584 
L 414.72 307.584 
" style="fill: none; stroke: #000000; stroke-width: 0.8; stroke-linejoin: miter; stroke-linecap: square"/>
   </g>
   <g id="patch_6">
    <path d="M 57.6 41.472 
L 414.72 41.472 
" style="fill: none; stroke: #000000; stroke-width: 0.8; stroke-linejoin: miter; stroke-linecap: square"/>
   </g>
   <g id="text_16">
    <!-- 1final_naive_jc_snp500 -->
    <g transform="translate(166.872187 35.472) scale(0.12 -0.12)">
     <defs>
      <path id="DejaVuSans-66" d="M 2375 4863 
L 2375 4384 
L 1825 4384 
Q 1516 4384 1395 4259 
Q 1275 4134 1275 3809 
L 1275 3500 
L 2222 3500 
L 2222 3053 
L 1275 3053 
L 1275 0 
L 697 0 
L 697 3053 
L 147 3053 
L 147 3500 
L 697 3500 
L 697 3744 
Q 697 4328 969 4595 
Q 1241 4863 1831 4863 
L 2375 4863 
z
" transform="scale(0.015625)"/>
      <path id="DejaVuSans-69" d="M 603 3500 
L 1178 3500 
L 1178 0 
L 603 0 
L 603 3500 
z
M 603 4863 
L 1178 4863 
L 1178 4134 
L 603 4134 
L 603 4863 
z
" transform="scale(0.015625)"/>
      <path id="DejaVuSans-6e" d="M 3513 2113 
L 3513 0 
L 2938 0 
L 2938 2094 
Q 2938 2591 2744 2837 
Q 2550 3084 2163 3084 
Q 1697 3084 1428 2787 
Q 1159 2491 1159 1978 
L 1159 0 
L 581 0 
L 581 3500 
L 1159 3500 
L 1159 2956 
Q 1366 3272 1645 3428 
Q 1925 3584 2291 3584 
Q 2894 3584 3203 3211 
Q 3513 2838 3513 2113 
z
" transform="scale(0.015625)"/>
      <path id="DejaVuSans-61" d="M 2194 1759 
Q 1497 1759 1228 1600 
Q 959 1441 959 1056 
Q 959 750 1161 570 
Q 1363 391 1709 391 
Q 2188 391 2477 730 
Q 2766 1069 2766 1631 
L 2766 1759 
L 2194 1759 
z
M 3341 1997 
L 3341 0 
L 2766 0 
L 2766 531 
Q 2569 213 2275 61 
Q 1981 -91 1556 -91 
Q 1019 -91 701 211 
Q 384 513 384 1019 
Q 384 1609 779 1909 
Q 1175 2209 1959 2209 
L 2766 2209 
L 2766 2266 
Q 2766 2663 2505 2880 
Q 2244 3097 1772 3097 
Q 1472 3097 1187 3025 
Q 903 2953 641 2809 
L 641 3341 
Q 956 3463 1253 3523 
Q 1550 3584 1831 3584 
Q 2591 3584 2966 3190 
Q 3341 2797 3341 1997 
z
" transform="scale(0.015625)"/>
      <path id="DejaVuSans-6c" d="M 603 4863 
L 1178 4863 
L 1178 0 
L 603 0 
L 603 4863 
z
" transform="scale(0.015625)"/>
      <path id="DejaVuSans-5f" d="M 3263 -1063 
L 3263 -1509 
L -63 -1509 
L -63 -1063 
L 3263 -1063 
z
" transform="scale(0.015625)"/>
      <path id="DejaVuSans-76" d="M 191 3500 
L 800 3500 
L 1894 563 
L 2988 3500 
L 3597 3500 
L 2284 0 
L 1503 0 
L 191 3500 
z
" transform="scale(0.015625)"/>
      <path id="DejaVuSans-65" d="M 3597 1894 
L 3597 1613 
L 953 1613 
Q 991 1019 1311 708 
Q 1631 397 2203 397 
Q 2534 397 2845 478 
Q 3156 559 3463 722 
L 3463 178 
Q 3153 47 2828 -22 
Q 2503 -91 2169 -91 
Q 1331 -91 842 396 
Q 353 884 353 1716 
Q 353 2575 817 3079 
Q 1281 3584 2069 3584 
Q 2775 3584 3186 3129 
Q 3597 2675 3597 1894 
z
M 3022 2063 
Q 3016 2534 2758 2815 
Q 2500 3097 2075 3097 
Q 1594 3097 1305 2825 
Q 1016 2553 972 2059 
L 3022 2063 
z
" transform="scale(0.015625)"/>
      <path id="DejaVuSans-6a" d="M 603 3500 
L 1178 3500 
L 1178 -63 
Q 1178 -731 923 -1031 
Q 669 -1331 103 -1331 
L -116 -1331 
L -116 -844 
L 38 -844 
Q 366 -844 484 -692 
Q 603 -541 603 -63 
L 603 3500 
z
M 603 4863 
L 1178 4863 
L 1178 4134 
L 603 4134 
L 603 4863 
z
" transform="scale(0.015625)"/>
      <path id="DejaVuSans-63" d="M 3122 3366 
L 3122 2828 
Q 2878 2963 2633 3030 
Q 2388 3097 2138 3097 
Q 1578 3097 1268 2742 
Q 959 2388 959 1747 
Q 959 1106 1268 751 
Q 1578 397 2138 397 
Q 2388 397 2633 464 
Q 2878 531 3122 666 
L 3122 134 
Q 2881 22 2623 -34 
Q 2366 -91 2075 -91 
Q 1284 -91 818 406 
Q 353 903 353 1747 
Q 353 2603 823 3093 
Q 1294 3584 2113 3584 
Q 2378 3584 2631 3529 
Q 2884 3475 3122 3366 
z
" transform="scale(0.015625)"/>
      <path id="DejaVuSans-73" d="M 2834 3397 
L 2834 2853 
Q 2591 2978 2328 3040 
Q 2066 3103 1784 3103 
Q 1356 3103 1142 2972 
Q 928 2841 928 2578 
Q 928 2378 1081 2264 
Q 1234 2150 1697 2047 
L 1894 2003 
Q 2506 1872 2764 1633 
Q 3022 1394 3022 966 
Q 3022 478 2636 193 
Q 2250 -91 1575 -91 
Q 1294 -91 989 -36 
Q 684 19 347 128 
L 347 722 
Q 666 556 975 473 
Q 1284 391 1588 391 
Q 1994 391 2212 530 
Q 2431 669 2431 922 
Q 2431 1156 2273 1281 
Q 2116 1406 1581 1522 
L 1381 1569 
Q 847 1681 609 1914 
Q 372 2147 372 2553 
Q 372 3047 722 3315 
Q 1072 3584 1716 3584 
Q 2034 3584 2315 3537 
Q 2597 3491 2834 3397 
z
" transform="scale(0.015625)"/>
      <path id="DejaVuSans-70" d="M 1159 525 
L 1159 -1331 
L 581 -1331 
L 581 3500 
L 1159 3500 
L 1159 2969 
Q 1341 3281 1617 3432 
Q 1894 3584 2278 3584 
Q 2916 3584 3314 3078 
Q 3713 2572 3713 1747 
Q 3713 922 3314 415 
Q 2916 -91 2278 -91 
Q 1894 -91 1617 61 
Q 1341 213 1159 525 
z
M 3116 1747 
Q 3116 2381 2855 2742 
Q 2594 3103 2138 3103 
Q 1681 3103 1420 2742 
Q 1159 2381 1159 1747 
Q 1159 1113 1420 752 
Q 1681 391 2138 391 
Q 2594 391 2855 752 
Q 3116 1113 3116 1747 
z
" transform="scale(0.015625)"/>
      <path id="DejaVuSans-35" d="M 691 4666 
L 3169 4666 
L 3169 4134 
L 1269 4134 
L 1269 2991 
Q 1406 3038 1543 3061 
Q 1681 3084 1819 3084 
Q 2600 3084 3056 2656 
Q 3513 2228 3513 1497 
Q 3513 744 3044 326 
Q 2575 -91 1722 -91 
Q 1428 -91 1123 -41 
Q 819 9 494 109 
L 494 744 
Q 775 591 1075 516 
Q 1375 441 1709 441 
Q 2250 441 2565 725 
Q 2881 1009 2881 1497 
Q 2881 1984 2565 2268 
Q 2250 2553 1709 2553 
Q 1456 2553 1204 2497 
Q 953 2441 691 2322 
L 691 4666 
z
" transform="scale(0.015625)"/>
     </defs>
     <use xlink:href="#DejaVuSans-31"/>
     <use xlink:href="#DejaVuSans-66" x="63.623047"/>
     <use xlink:href="#DejaVuSans-69" x="98.828125"/>
     <use xlink:href="#DejaVuSans-6e" x="126.611328"/>
     <use xlink:href="#DejaVuSans-61" x="189.990234"/>
     <use xlink:href="#DejaVuSans-6c" x="251.269531"/>
     <use xlink:href="#DejaVuSans-5f" x="279.052734"/>
     <use xlink:href="#DejaVuSans-6e" x="329.052734"/>
     <use xlink:href="#DejaVuSans-61" x="392.431641"/>
     <use xlink:href="#DejaVuSans-69" x="453.710938"/>
     <use xlink:href="#DejaVuSans-76" x="481.494141"/>
     <use xlink:href="#DejaVuSans-65" x="540.673828"/>
     <use xlink:href="#DejaVuSans-5f" x="602.197266"/>
     <use xlink:href="#DejaVuSans-6a" x="652.197266"/>
     <use xlink:href="#DejaVuSans-63" x="679.980469"/>
     <use xlink:href="#DejaVuSans-5f" x="734.960938"/>
     <use xlink:href="#DejaVuSans-73" x="784.960938"/>
     <use xlink:href="#DejaVuSans-6e" x="837.060547"/>
     <use xlink:href="#DejaVuSans-70" x="900.439453"/>
     <use xlink:href="#DejaVuSans-35" x="963.916016"/>
     <use xlink:href="#DejaVuSans-30" x="1027.539062"/>
     <use xlink:href="#DejaVuSans-30" x="1091.162109"/>
    </g>
   </g>
   <g id="legend_1">
    <g id="patch_7">
     <path d="M 64.6 93.506375 
L 258.804688 93.506375 
Q 260.804688 93.506375 260.804688 91.506375 
L 260.804688 48.472 
Q 260.804688 46.472 258.804688 46.472 
L 64.6 46.472 
Q 62.6 46.472 62.6 48.472 
L 62.6 91.506375 
Q 62.6 93.506375 64.6 93.506375 
z
" style="fill: #ffffff; opacity: 0.8; stroke: #cccccc; stroke-linejoin: miter"/>
    </g>
    <g id="line2d_19">
     <path d="M 66.6 54.570438 
L 76.6 54.570438 
L 86.6 54.570438 
" style="fill: none; stroke: #1f77b4; stroke-opacity: 0.7; stroke-width: 1.5; stroke-linecap: square"/>
    </g>
    <g id="text_17">
     <!-- Positive cumulative predictions -->
     <g transform="translate(94.6 58.070438) scale(0.1 -0.1)">
      <defs>
       <path id="DejaVuSans-50" d="M 1259 4147 
L 1259 2394 
L 2053 2394 
Q 2494 2394 2734 2622 
Q 2975 2850 2975 3272 
Q 2975 3691 2734 3919 
Q 2494 4147 2053 4147 
L 1259 4147 
z
M 628 4666 
L 2053 4666 
Q 2838 4666 3239 4311 
Q 3641 3956 3641 3272 
Q 3641 2581 3239 2228 
Q 2838 1875 2053 1875 
L 1259 1875 
L 1259 0 
L 628 0 
L 628 4666 
z
" transform="scale(0.015625)"/>
       <path id="DejaVuSans-6f" d="M 1959 3097 
Q 1497 3097 1228 2736 
Q 959 2375 959 1747 
Q 959 1119 1226 758 
Q 1494 397 1959 397 
Q 2419 397 2687 759 
Q 2956 1122 2956 1747 
Q 2956 2369 2687 2733 
Q 2419 3097 1959 3097 
z
M 1959 3584 
Q 2709 3584 3137 3096 
Q 3566 2609 3566 1747 
Q 3566 888 3137 398 
Q 2709 -91 1959 -91 
Q 1206 -91 779 398 
Q 353 888 353 1747 
Q 353 2609 779 3096 
Q 1206 3584 1959 3584 
z
" transform="scale(0.015625)"/>
       <path id="DejaVuSans-74" d="M 1172 4494 
L 1172 3500 
L 2356 3500 
L 2356 3053 
L 1172 3053 
L 1172 1153 
Q 1172 725 1289 603 
Q 1406 481 1766 481 
L 2356 481 
L 2356 0 
L 1766 0 
Q 1100 0 847 248 
Q 594 497 594 1153 
L 594 3053 
L 172 3053 
L 172 3500 
L 594 3500 
L 594 4494 
L 1172 4494 
z
" transform="scale(0.015625)"/>
       <path id="DejaVuSans-20" transform="scale(0.015625)"/>
       <path id="DejaVuSans-75" d="M 544 1381 
L 544 3500 
L 1119 3500 
L 1119 1403 
Q 1119 906 1312 657 
Q 1506 409 1894 409 
Q 2359 409 2629 706 
Q 2900 1003 2900 1516 
L 2900 3500 
L 3475 3500 
L 3475 0 
L 2900 0 
L 2900 538 
Q 2691 219 2414 64 
Q 2138 -91 1772 -91 
Q 1169 -91 856 284 
Q 544 659 544 1381 
z
M 1991 3584 
L 1991 3584 
z
" transform="scale(0.015625)"/>
       <path id="DejaVuSans-6d" d="M 3328 2828 
Q 3544 3216 3844 3400 
Q 4144 3584 4550 3584 
Q 5097 3584 5394 3201 
Q 5691 2819 5691 2113 
L 5691 0 
L 5113 0 
L 5113 2094 
Q 5113 2597 4934 2840 
Q 4756 3084 4391 3084 
Q 3944 3084 3684 2787 
Q 3425 2491 3425 1978 
L 3425 0 
L 2847 0 
L 2847 2094 
Q 2847 2600 2669 2842 
Q 2491 3084 2119 3084 
Q 1678 3084 1418 2786 
Q 1159 2488 1159 1978 
L 1159 0 
L 581 0 
L 581 3500 
L 1159 3500 
L 1159 2956 
Q 1356 3278 1631 3431 
Q 1906 3584 2284 3584 
Q 2666 3584 2933 3390 
Q 3200 3197 3328 2828 
z
" transform="scale(0.015625)"/>
       <path id="DejaVuSans-72" d="M 2631 2963 
Q 2534 3019 2420 3045 
Q 2306 3072 2169 3072 
Q 1681 3072 1420 2755 
Q 1159 2438 1159 1844 
L 1159 0 
L 581 0 
L 581 3500 
L 1159 3500 
L 1159 2956 
Q 1341 3275 1631 3429 
Q 1922 3584 2338 3584 
Q 2397 3584 2469 3576 
Q 2541 3569 2628 3553 
L 2631 2963 
z
" transform="scale(0.015625)"/>
       <path id="DejaVuSans-64" d="M 2906 2969 
L 2906 4863 
L 3481 4863 
L 3481 0 
L 2906 0 
L 2906 525 
Q 2725 213 2448 61 
Q 2172 -91 1784 -91 
Q 1150 -91 751 415 
Q 353 922 353 1747 
Q 353 2572 751 3078 
Q 1150 3584 1784 3584 
Q 2172 3584 2448 3432 
Q 2725 3281 2906 2969 
z
M 947 1747 
Q 947 1113 1208 752 
Q 1469 391 1925 391 
Q 2381 391 2643 752 
Q 2906 1113 2906 1747 
Q 2906 2381 2643 2742 
Q 2381 3103 1925 3103 
Q 1469 3103 1208 2742 
Q 947 2381 947 1747 
z
" transform="scale(0.015625)"/>
      </defs>
      <use xlink:href="#DejaVuSans-50"/>
      <use xlink:href="#DejaVuSans-6f" x="56.677734"/>
      <use xlink:href="#DejaVuSans-73" x="117.859375"/>
      <use xlink:href="#DejaVuSans-69" x="169.958984"/>
      <use xlink:href="#DejaVuSans-74" x="197.742188"/>
      <use xlink:href="#DejaVuSans-69" x="236.951172"/>
      <use xlink:href="#DejaVuSans-76" x="264.734375"/>
      <use xlink:href="#DejaVuSans-65" x="323.914062"/>
      <use xlink:href="#DejaVuSans-20" x="385.4375"/>
      <use xlink:href="#DejaVuSans-63" x="417.224609"/>
      <use xlink:href="#DejaVuSans-75" x="472.205078"/>
      <use xlink:href="#DejaVuSans-6d" x="535.583984"/>
      <use xlink:href="#DejaVuSans-75" x="632.996094"/>
      <use xlink:href="#DejaVuSans-6c" x="696.375"/>
      <use xlink:href="#DejaVuSans-61" x="724.158203"/>
      <use xlink:href="#DejaVuSans-74" x="785.4375"/>
      <use xlink:href="#DejaVuSans-69" x="824.646484"/>
      <use xlink:href="#DejaVuSans-76" x="852.429688"/>
      <use xlink:href="#DejaVuSans-65" x="911.609375"/>
      <use xlink:href="#DejaVuSans-20" x="973.132812"/>
      <use xlink:href="#DejaVuSans-70" x="1004.919922"/>
      <use xlink:href="#DejaVuSans-72" x="1068.396484"/>
      <use xlink:href="#DejaVuSans-65" x="1107.259766"/>
      <use xlink:href="#DejaVuSans-64" x="1168.783203"/>
      <use xlink:href="#DejaVuSans-69" x="1232.259766"/>
      <use xlink:href="#DejaVuSans-63" x="1260.042969"/>
      <use xlink:href="#DejaVuSans-74" x="1315.023438"/>
      <use xlink:href="#DejaVuSans-69" x="1354.232422"/>
      <use xlink:href="#DejaVuSans-6f" x="1382.015625"/>
      <use xlink:href="#DejaVuSans-6e" x="1443.197266"/>
      <use xlink:href="#DejaVuSans-73" x="1506.576172"/>
     </g>
    </g>
    <g id="line2d_20">
     <path d="M 66.6 69.248563 
L 76.6 69.248563 
L 86.6 69.248563 
" style="fill: none; stroke: #ff7f0e; stroke-opacity: 0.7; stroke-width: 1.5; stroke-linecap: square"/>
    </g>
    <g id="text_18">
     <!-- Negative cumulative predictions -->
     <g transform="translate(94.6 72.748563) scale(0.1 -0.1)">
      <defs>
       <path id="DejaVuSans-4e" d="M 628 4666 
L 1478 4666 
L 3547 763 
L 3547 4666 
L 4159 4666 
L 4159 0 
L 3309 0 
L 1241 3903 
L 1241 0 
L 628 0 
L 628 4666 
z
" transform="scale(0.015625)"/>
       <path id="DejaVuSans-67" d="M 2906 1791 
Q 2906 2416 2648 2759 
Q 2391 3103 1925 3103 
Q 1463 3103 1205 2759 
Q 947 2416 947 1791 
Q 947 1169 1205 825 
Q 1463 481 1925 481 
Q 2391 481 2648 825 
Q 2906 1169 2906 1791 
z
M 3481 434 
Q 3481 -459 3084 -895 
Q 2688 -1331 1869 -1331 
Q 1566 -1331 1297 -1286 
Q 1028 -1241 775 -1147 
L 775 -588 
Q 1028 -725 1275 -790 
Q 1522 -856 1778 -856 
Q 2344 -856 2625 -561 
Q 2906 -266 2906 331 
L 2906 616 
Q 2728 306 2450 153 
Q 2172 0 1784 0 
Q 1141 0 747 490 
Q 353 981 353 1791 
Q 353 2603 747 3093 
Q 1141 3584 1784 3584 
Q 2172 3584 2450 3431 
Q 2728 3278 2906 2969 
L 2906 3500 
L 3481 3500 
L 3481 434 
z
" transform="scale(0.015625)"/>
      </defs>
      <use xlink:href="#DejaVuSans-4e"/>
      <use xlink:href="#DejaVuSans-65" x="74.804688"/>
      <use xlink:href="#DejaVuSans-67" x="136.328125"/>
      <use xlink:href="#DejaVuSans-61" x="199.804688"/>
      <use xlink:href="#DejaVuSans-74" x="261.083984"/>
      <use xlink:href="#DejaVuSans-69" x="300.292969"/>
      <use xlink:href="#DejaVuSans-76" x="328.076172"/>
      <use xlink:href="#DejaVuSans-65" x="387.255859"/>
      <use xlink:href="#DejaVuSans-20" x="448.779297"/>
      <use xlink:href="#DejaVuSans-63" x="480.566406"/>
      <use xlink:href="#DejaVuSans-75" x="535.546875"/>
      <use xlink:href="#DejaVuSans-6d" x="598.925781"/>
      <use xlink:href="#DejaVuSans-75" x="696.337891"/>
      <use xlink:href="#DejaVuSans-6c" x="759.716797"/>
      <use xlink:href="#DejaVuSans-61" x="787.5"/>
      <use xlink:href="#DejaVuSans-74" x="848.779297"/>
      <use xlink:href="#DejaVuSans-69" x="887.988281"/>
      <use xlink:href="#DejaVuSans-76" x="915.771484"/>
      <use xlink:href="#DejaVuSans-65" x="974.951172"/>
      <use xlink:href="#DejaVuSans-20" x="1036.474609"/>
      <use xlink:href="#DejaVuSans-70" x="1068.261719"/>
      <use xlink:href="#DejaVuSans-72" x="1131.738281"/>
      <use xlink:href="#DejaVuSans-65" x="1170.601562"/>
      <use xlink:href="#DejaVuSans-64" x="1232.125"/>
      <use xlink:href="#DejaVuSans-69" x="1295.601562"/>
      <use xlink:href="#DejaVuSans-63" x="1323.384766"/>
      <use xlink:href="#DejaVuSans-74" x="1378.365234"/>
      <use xlink:href="#DejaVuSans-69" x="1417.574219"/>
      <use xlink:href="#DejaVuSans-6f" x="1445.357422"/>
      <use xlink:href="#DejaVuSans-6e" x="1506.539062"/>
      <use xlink:href="#DejaVuSans-73" x="1569.917969"/>
     </g>
    </g>
    <g id="line2d_21">
     <path d="M 66.6 83.926688 
L 76.6 83.926688 
L 86.6 83.926688 
" style="fill: none; stroke: #2ca02c; stroke-opacity: 0.7; stroke-width: 1.5; stroke-linecap: square"/>
    </g>
    <g id="text_19">
     <!-- Average cumulative predictions -->
     <g transform="translate(94.6 87.426688) scale(0.1 -0.1)">
      <defs>
       <path id="DejaVuSans-41" d="M 2188 4044 
L 1331 1722 
L 3047 1722 
L 2188 4044 
z
M 1831 4666 
L 2547 4666 
L 4325 0 
L 3669 0 
L 3244 1197 
L 1141 1197 
L 716 0 
L 50 0 
L 1831 4666 
z
" transform="scale(0.015625)"/>
      </defs>
      <use xlink:href="#DejaVuSans-41"/>
      <use xlink:href="#DejaVuSans-76" x="62.533203"/>
      <use xlink:href="#DejaVuSans-65" x="121.712891"/>
      <use xlink:href="#DejaVuSans-72" x="183.236328"/>
      <use xlink:href="#DejaVuSans-61" x="224.349609"/>
      <use xlink:href="#DejaVuSans-67" x="285.628906"/>
      <use xlink:href="#DejaVuSans-65" x="349.105469"/>
      <use xlink:href="#DejaVuSans-20" x="410.628906"/>
      <use xlink:href="#DejaVuSans-63" x="442.416016"/>
      <use xlink:href="#DejaVuSans-75" x="497.396484"/>
      <use xlink:href="#DejaVuSans-6d" x="560.775391"/>
      <use xlink:href="#DejaVuSans-75" x="658.1875"/>
      <use xlink:href="#DejaVuSans-6c" x="721.566406"/>
      <use xlink:href="#DejaVuSans-61" x="749.349609"/>
      <use xlink:href="#DejaVuSans-74" x="810.628906"/>
      <use xlink:href="#DejaVuSans-69" x="849.837891"/>
      <use xlink:href="#DejaVuSans-76" x="877.621094"/>
      <use xlink:href="#DejaVuSans-65" x="936.800781"/>
      <use xlink:href="#DejaVuSans-20" x="998.324219"/>
      <use xlink:href="#DejaVuSans-70" x="1030.111328"/>
      <use xlink:href="#DejaVuSans-72" x="1093.587891"/>
      <use xlink:href="#DejaVuSans-65" x="1132.451172"/>
      <use xlink:href="#DejaVuSans-64" x="1193.974609"/>
      <use xlink:href="#DejaVuSans-69" x="1257.451172"/>
      <use xlink:href="#DejaVuSans-63" x="1285.234375"/>
      <use xlink:href="#DejaVuSans-74" x="1340.214844"/>
      <use xlink:href="#DejaVuSans-69" x="1379.423828"/>
      <use xlink:href="#DejaVuSans-6f" x="1407.207031"/>
      <use xlink:href="#DejaVuSans-6e" x="1468.388672"/>
      <use xlink:href="#DejaVuSans-73" x="1531.767578"/>
     </g>
    </g>
   </g>
  </g>
 </g>
 <defs>
  <clipPath id="p7b0c511548">
   <rect x="57.6" y="41.472" width="357.12" height="266.112"/>
  </clipPath>
 </defs>
</svg>
