<?xml version="1.0" encoding="utf-8" standalone="no"?>
<!DOCTYPE svg PUBLIC "-//W3C//DTD SVG 1.1//EN"
  "http://www.w3.org/Graphics/SVG/1.1/DTD/svg11.dtd">
<svg xmlns:xlink="http://www.w3.org/1999/xlink" width="460.8pt" height="345.6pt" viewBox="0 0 460.8 345.6" xmlns="http://www.w3.org/2000/svg" version="1.1">
 <metadata>
  <rdf:RDF xmlns:dc="http://purl.org/dc/elements/1.1/" xmlns:cc="http://creativecommons.org/ns#" xmlns:rdf="http://www.w3.org/1999/02/22-rdf-syntax-ns#">
   <cc:Work>
    <dc:type rdf:resource="http://purl.org/dc/dcmitype/StillImage"/>
    <dc:date>2024-09-08T14:44:58.025908</dc:date>
    <dc:format>image/svg+xml</dc:format>
    <dc:creator>
     <cc:Agent>
      <dc:title>Matplotlib v3.8.3, https://matplotlib.org/</dc:title>
     </cc:Agent>
    </dc:creator>
   </cc:Work>
  </rdf:RDF>
 </metadata>
 <defs>
  <style type="text/css">*{stroke-linejoin: round; stroke-linecap: butt}</style>
 </defs>
 <g id="figure_1">
  <g id="patch_1">
   <path d="M 0 345.6 
L 460.8 345.6 
L 460.8 0 
L 0 0 
z
" style="fill: #ffffff"/>
  </g>
  <g id="axes_1">
   <g id="patch_2">
    <path d="M 57.6 307.584 
L 414.72 307.584 
L 414.72 41.472 
L 57.6 41.472 
z
" style="fill: #ffffff"/>
   </g>
   <g id="matplotlib.axis_1">
    <g id="xtick_1">
     <g id="line2d_1">
      <defs>
       <path id="m37f25bc9e7" d="M 0 0 
L 0 3.5 
" style="stroke: #000000; stroke-width: 0.8"/>
      </defs>
      <g>
       <use xlink:href="#m37f25bc9e7" x="73.832727" y="307.584" style="stroke: #000000; stroke-width: 0.8"/>
      </g>
     </g>
     <g id="text_1">
      <!-- 0 -->
      <g transform="translate(70.651477 322.182437) scale(0.1 -0.1)">
       <defs>
        <path id="DejaVuSans-30" d="M 2034 4250 
Q 1547 4250 1301 3770 
Q 1056 3291 1056 2328 
Q 1056 1369 1301 889 
Q 1547 409 2034 409 
Q 2525 409 2770 889 
Q 3016 1369 3016 2328 
Q 3016 3291 2770 3770 
Q 2525 4250 2034 4250 
z
M 2034 4750 
Q 2819 4750 3233 4129 
Q 3647 3509 3647 2328 
Q 3647 1150 3233 529 
Q 2819 -91 2034 -91 
Q 1250 -91 836 529 
Q 422 1150 422 2328 
Q 422 3509 836 4129 
Q 1250 4750 2034 4750 
z
" transform="scale(0.015625)"/>
       </defs>
       <use xlink:href="#DejaVuSans-30"/>
      </g>
     </g>
    </g>
    <g id="xtick_2">
     <g id="line2d_2">
      <g>
       <use xlink:href="#m37f25bc9e7" x="118.003414" y="307.584" style="stroke: #000000; stroke-width: 0.8"/>
      </g>
     </g>
     <g id="text_2">
      <!-- 20 -->
      <g transform="translate(111.640914 322.182437) scale(0.1 -0.1)">
       <defs>
        <path id="DejaVuSans-32" d="M 1228 531 
L 3431 531 
L 3431 0 
L 469 0 
L 469 531 
Q 828 903 1448 1529 
Q 2069 2156 2228 2338 
Q 2531 2678 2651 2914 
Q 2772 3150 2772 3378 
Q 2772 3750 2511 3984 
Q 2250 4219 1831 4219 
Q 1534 4219 1204 4116 
Q 875 4013 500 3803 
L 500 4441 
Q 881 4594 1212 4672 
Q 1544 4750 1819 4750 
Q 2544 4750 2975 4387 
Q 3406 4025 3406 3419 
Q 3406 3131 3298 2873 
Q 3191 2616 2906 2266 
Q 2828 2175 2409 1742 
Q 1991 1309 1228 531 
z
" transform="scale(0.015625)"/>
       </defs>
       <use xlink:href="#DejaVuSans-32"/>
       <use xlink:href="#DejaVuSans-30" x="63.623047"/>
      </g>
     </g>
    </g>
    <g id="xtick_3">
     <g id="line2d_3">
      <g>
       <use xlink:href="#m37f25bc9e7" x="162.1741" y="307.584" style="stroke: #000000; stroke-width: 0.8"/>
      </g>
     </g>
     <g id="text_3">
      <!-- 40 -->
      <g transform="translate(155.8116 322.182437) scale(0.1 -0.1)">
       <defs>
        <path id="DejaVuSans-34" d="M 2419 4116 
L 825 1625 
L 2419 1625 
L 2419 4116 
z
M 2253 4666 
L 3047 4666 
L 3047 1625 
L 3713 1625 
L 3713 1100 
L 3047 1100 
L 3047 0 
L 2419 0 
L 2419 1100 
L 313 1100 
L 313 1709 
L 2253 4666 
z
" transform="scale(0.015625)"/>
       </defs>
       <use xlink:href="#DejaVuSans-34"/>
       <use xlink:href="#DejaVuSans-30" x="63.623047"/>
      </g>
     </g>
    </g>
    <g id="xtick_4">
     <g id="line2d_4">
      <g>
       <use xlink:href="#m37f25bc9e7" x="206.344787" y="307.584" style="stroke: #000000; stroke-width: 0.8"/>
      </g>
     </g>
     <g id="text_4">
      <!-- 60 -->
      <g transform="translate(199.982287 322.182437) scale(0.1 -0.1)">
       <defs>
        <path id="DejaVuSans-36" d="M 2113 2584 
Q 1688 2584 1439 2293 
Q 1191 2003 1191 1497 
Q 1191 994 1439 701 
Q 1688 409 2113 409 
Q 2538 409 2786 701 
Q 3034 994 3034 1497 
Q 3034 2003 2786 2293 
Q 2538 2584 2113 2584 
z
M 3366 4563 
L 3366 3988 
Q 3128 4100 2886 4159 
Q 2644 4219 2406 4219 
Q 1781 4219 1451 3797 
Q 1122 3375 1075 2522 
Q 1259 2794 1537 2939 
Q 1816 3084 2150 3084 
Q 2853 3084 3261 2657 
Q 3669 2231 3669 1497 
Q 3669 778 3244 343 
Q 2819 -91 2113 -91 
Q 1303 -91 875 529 
Q 447 1150 447 2328 
Q 447 3434 972 4092 
Q 1497 4750 2381 4750 
Q 2619 4750 2861 4703 
Q 3103 4656 3366 4563 
z
" transform="scale(0.015625)"/>
       </defs>
       <use xlink:href="#DejaVuSans-36"/>
       <use xlink:href="#DejaVuSans-30" x="63.623047"/>
      </g>
     </g>
    </g>
    <g id="xtick_5">
     <g id="line2d_5">
      <g>
       <use xlink:href="#m37f25bc9e7" x="250.515473" y="307.584" style="stroke: #000000; stroke-width: 0.8"/>
      </g>
     </g>
     <g id="text_5">
      <!-- 80 -->
      <g transform="translate(244.152973 322.182437) scale(0.1 -0.1)">
       <defs>
        <path id="DejaVuSans-38" d="M 2034 2216 
Q 1584 2216 1326 1975 
Q 1069 1734 1069 1313 
Q 1069 891 1326 650 
Q 1584 409 2034 409 
Q 2484 409 2743 651 
Q 3003 894 3003 1313 
Q 3003 1734 2745 1975 
Q 2488 2216 2034 2216 
z
M 1403 2484 
Q 997 2584 770 2862 
Q 544 3141 544 3541 
Q 544 4100 942 4425 
Q 1341 4750 2034 4750 
Q 2731 4750 3128 4425 
Q 3525 4100 3525 3541 
Q 3525 3141 3298 2862 
Q 3072 2584 2669 2484 
Q 3125 2378 3379 2068 
Q 3634 1759 3634 1313 
Q 3634 634 3220 271 
Q 2806 -91 2034 -91 
Q 1263 -91 848 271 
Q 434 634 434 1313 
Q 434 1759 690 2068 
Q 947 2378 1403 2484 
z
M 1172 3481 
Q 1172 3119 1398 2916 
Q 1625 2713 2034 2713 
Q 2441 2713 2670 2916 
Q 2900 3119 2900 3481 
Q 2900 3844 2670 4047 
Q 2441 4250 2034 4250 
Q 1625 4250 1398 4047 
Q 1172 3844 1172 3481 
z
" transform="scale(0.015625)"/>
       </defs>
       <use xlink:href="#DejaVuSans-38"/>
       <use xlink:href="#DejaVuSans-30" x="63.623047"/>
      </g>
     </g>
    </g>
    <g id="xtick_6">
     <g id="line2d_6">
      <g>
       <use xlink:href="#m37f25bc9e7" x="294.68616" y="307.584" style="stroke: #000000; stroke-width: 0.8"/>
      </g>
     </g>
     <g id="text_6">
      <!-- 100 -->
      <g transform="translate(285.14241 322.182437) scale(0.1 -0.1)">
       <defs>
        <path id="DejaVuSans-31" d="M 794 531 
L 1825 531 
L 1825 4091 
L 703 3866 
L 703 4441 
L 1819 4666 
L 2450 4666 
L 2450 531 
L 3481 531 
L 3481 0 
L 794 0 
L 794 531 
z
" transform="scale(0.015625)"/>
       </defs>
       <use xlink:href="#DejaVuSans-31"/>
       <use xlink:href="#DejaVuSans-30" x="63.623047"/>
       <use xlink:href="#DejaVuSans-30" x="127.246094"/>
      </g>
     </g>
    </g>
    <g id="xtick_7">
     <g id="line2d_7">
      <g>
       <use xlink:href="#m37f25bc9e7" x="338.856846" y="307.584" style="stroke: #000000; stroke-width: 0.8"/>
      </g>
     </g>
     <g id="text_7">
      <!-- 120 -->
      <g transform="translate(329.313096 322.182437) scale(0.1 -0.1)">
       <use xlink:href="#DejaVuSans-31"/>
       <use xlink:href="#DejaVuSans-32" x="63.623047"/>
       <use xlink:href="#DejaVuSans-30" x="127.246094"/>
      </g>
     </g>
    </g>
    <g id="xtick_8">
     <g id="line2d_8">
      <g>
       <use xlink:href="#m37f25bc9e7" x="383.027532" y="307.584" style="stroke: #000000; stroke-width: 0.8"/>
      </g>
     </g>
     <g id="text_8">
      <!-- 140 -->
      <g transform="translate(373.483782 322.182437) scale(0.1 -0.1)">
       <use xlink:href="#DejaVuSans-31"/>
       <use xlink:href="#DejaVuSans-34" x="63.623047"/>
       <use xlink:href="#DejaVuSans-30" x="127.246094"/>
      </g>
     </g>
    </g>
   </g>
   <g id="matplotlib.axis_2">
    <g id="ytick_1">
     <g id="line2d_9">
      <defs>
       <path id="mdcdf9fc887" d="M 0 0 
L -3.5 0 
" style="stroke: #000000; stroke-width: 0.8"/>
      </defs>
      <g>
       <use xlink:href="#mdcdf9fc887" x="57.6" y="285.925929" style="stroke: #000000; stroke-width: 0.8"/>
      </g>
     </g>
     <g id="text_9">
      <!-- −300 -->
      <g transform="translate(23.132812 289.725148) scale(0.1 -0.1)">
       <defs>
        <path id="DejaVuSans-2212" d="M 678 2272 
L 4684 2272 
L 4684 1741 
L 678 1741 
L 678 2272 
z
" transform="scale(0.015625)"/>
        <path id="DejaVuSans-33" d="M 2597 2516 
Q 3050 2419 3304 2112 
Q 3559 1806 3559 1356 
Q 3559 666 3084 287 
Q 2609 -91 1734 -91 
Q 1441 -91 1130 -33 
Q 819 25 488 141 
L 488 750 
Q 750 597 1062 519 
Q 1375 441 1716 441 
Q 2309 441 2620 675 
Q 2931 909 2931 1356 
Q 2931 1769 2642 2001 
Q 2353 2234 1838 2234 
L 1294 2234 
L 1294 2753 
L 1863 2753 
Q 2328 2753 2575 2939 
Q 2822 3125 2822 3475 
Q 2822 3834 2567 4026 
Q 2313 4219 1838 4219 
Q 1578 4219 1281 4162 
Q 984 4106 628 3988 
L 628 4550 
Q 988 4650 1302 4700 
Q 1616 4750 1894 4750 
Q 2613 4750 3031 4423 
Q 3450 4097 3450 3541 
Q 3450 3153 3228 2886 
Q 3006 2619 2597 2516 
z
" transform="scale(0.015625)"/>
       </defs>
       <use xlink:href="#DejaVuSans-2212"/>
       <use xlink:href="#DejaVuSans-33" x="83.789062"/>
       <use xlink:href="#DejaVuSans-30" x="147.412109"/>
       <use xlink:href="#DejaVuSans-30" x="211.035156"/>
      </g>
     </g>
    </g>
    <g id="ytick_2">
     <g id="line2d_10">
      <g>
       <use xlink:href="#mdcdf9fc887" x="57.6" y="253.089281" style="stroke: #000000; stroke-width: 0.8"/>
      </g>
     </g>
     <g id="text_10">
      <!-- −200 -->
      <g transform="translate(23.132812 256.8885) scale(0.1 -0.1)">
       <use xlink:href="#DejaVuSans-2212"/>
       <use xlink:href="#DejaVuSans-32" x="83.789062"/>
       <use xlink:href="#DejaVuSans-30" x="147.412109"/>
       <use xlink:href="#DejaVuSans-30" x="211.035156"/>
      </g>
     </g>
    </g>
    <g id="ytick_3">
     <g id="line2d_11">
      <g>
       <use xlink:href="#mdcdf9fc887" x="57.6" y="220.252632" style="stroke: #000000; stroke-width: 0.8"/>
      </g>
     </g>
     <g id="text_11">
      <!-- −100 -->
      <g transform="translate(23.132812 224.051851) scale(0.1 -0.1)">
       <use xlink:href="#DejaVuSans-2212"/>
       <use xlink:href="#DejaVuSans-31" x="83.789062"/>
       <use xlink:href="#DejaVuSans-30" x="147.412109"/>
       <use xlink:href="#DejaVuSans-30" x="211.035156"/>
      </g>
     </g>
    </g>
    <g id="ytick_4">
     <g id="line2d_12">
      <g>
       <use xlink:href="#mdcdf9fc887" x="57.6" y="187.415984" style="stroke: #000000; stroke-width: 0.8"/>
      </g>
     </g>
     <g id="text_12">
      <!-- 0 -->
      <g transform="translate(44.2375 191.215202) scale(0.1 -0.1)">
       <use xlink:href="#DejaVuSans-30"/>
      </g>
     </g>
    </g>
    <g id="ytick_5">
     <g id="line2d_13">
      <g>
       <use xlink:href="#mdcdf9fc887" x="57.6" y="154.579335" style="stroke: #000000; stroke-width: 0.8"/>
      </g>
     </g>
     <g id="text_13">
      <!-- 100 -->
      <g transform="translate(31.5125 158.378554) scale(0.1 -0.1)">
       <use xlink:href="#DejaVuSans-31"/>
       <use xlink:href="#DejaVuSans-30" x="63.623047"/>
       <use xlink:href="#DejaVuSans-30" x="127.246094"/>
      </g>
     </g>
    </g>
    <g id="ytick_6">
     <g id="line2d_14">
      <g>
       <use xlink:href="#mdcdf9fc887" x="57.6" y="121.742687" style="stroke: #000000; stroke-width: 0.8"/>
      </g>
     </g>
     <g id="text_14">
      <!-- 200 -->
      <g transform="translate(31.5125 125.541905) scale(0.1 -0.1)">
       <use xlink:href="#DejaVuSans-32"/>
       <use xlink:href="#DejaVuSans-30" x="63.623047"/>
       <use xlink:href="#DejaVuSans-30" x="127.246094"/>
      </g>
     </g>
    </g>
    <g id="ytick_7">
     <g id="line2d_15">
      <g>
       <use xlink:href="#mdcdf9fc887" x="57.6" y="88.906038" style="stroke: #000000; stroke-width: 0.8"/>
      </g>
     </g>
     <g id="text_15">
      <!-- 300 -->
      <g transform="translate(31.5125 92.705257) scale(0.1 -0.1)">
       <use xlink:href="#DejaVuSans-33"/>
       <use xlink:href="#DejaVuSans-30" x="63.623047"/>
       <use xlink:href="#DejaVuSans-30" x="127.246094"/>
      </g>
     </g>
    </g>
    <g id="ytick_8">
     <g id="line2d_16">
      <g>
       <use xlink:href="#mdcdf9fc887" x="57.6" y="56.069389" style="stroke: #000000; stroke-width: 0.8"/>
      </g>
     </g>
     <g id="text_16">
      <!-- 400 -->
      <g transform="translate(31.5125 59.868608) scale(0.1 -0.1)">
       <use xlink:href="#DejaVuSans-34"/>
       <use xlink:href="#DejaVuSans-30" x="63.623047"/>
       <use xlink:href="#DejaVuSans-30" x="127.246094"/>
      </g>
     </g>
    </g>
   </g>
   <g id="line2d_17">
    <path d="M 73.832727 190.013711 
L 76.041262 192.084371 
L 78.249796 188.357982 
L 80.45833 191.170256 
L 82.666865 187.784937 
L 84.875399 190.883085 
L 87.083933 190.338416 
L 89.292468 190.864411 
L 91.501002 189.202484 
L 93.709536 191.197303 
L 95.918071 190.656542 
L 98.126605 191.868435 
L 100.335139 188.910891 
L 102.543673 188.827593 
L 104.752208 188.292028 
L 106.960742 189.618014 
L 109.169276 187.184745 
L 111.377811 192.531676 
L 113.586345 189.99237 
L 115.794879 193.764079 
L 118.003414 186.236455 
L 120.211948 191.509993 
L 122.420482 197.302762 
L 126.837551 193.617928 
L 129.046085 192.610875 
L 131.25462 189.932053 
L 135.671688 191.506271 
L 137.880223 193.591745 
L 140.088757 188.497912 
L 142.297291 186.947827 
L 144.505826 192.041587 
L 146.71436 192.485886 
L 148.922894 189.417954 
L 151.131429 191.500911 
L 153.339963 182.78775 
L 155.548497 196.436956 
L 157.757032 185.523775 
L 159.965566 192.403999 
L 162.1741 188.36839 
L 164.382635 190.647706 
L 166.591169 192.114296 
L 168.799703 190.608049 
L 171.008237 189.777501 
L 173.216772 189.652296 
L 175.425306 192.413955 
L 177.63384 189.84086 
L 179.842375 189.049619 
L 182.050909 192.579768 
L 184.259443 181.953378 
L 186.467978 190.609729 
L 188.676512 192.064025 
L 190.885046 198.677363 
L 193.093581 205.75351 
L 195.302115 198.717697 
L 197.510649 195.113167 
L 199.719184 192.436548 
L 201.927718 197.194638 
L 204.136252 190.291906 
L 206.344787 191.956686 
L 208.553321 193.22392 
L 210.761855 193.550961 
L 212.97039 199.188248 
L 215.178924 190.919157 
L 217.387458 193.22419 
L 219.595993 203.029743 
L 221.804527 183.152825 
L 224.013061 197.103011 
L 226.221596 185.876146 
L 228.43013 188.674283 
L 230.638664 187.972194 
L 232.847199 191.049397 
L 235.055733 196.703102 
L 237.264267 194.944195 
L 239.472801 193.44647 
L 241.681336 189.475298 
L 243.88987 191.659772 
L 246.098404 194.44846 
L 248.306939 193.181911 
L 250.515473 193.434846 
L 252.724007 186.462217 
L 254.932542 190.843764 
L 257.141076 189.175632 
L 259.34961 191.858234 
L 261.558145 192.277747 
L 263.766679 193.774734 
L 265.975213 190.42262 
L 268.183748 192.324334 
L 270.392282 190.54418 
L 272.600816 192.567837 
L 274.809351 190.768485 
L 277.017885 193.217918 
L 279.226419 195.250088 
L 281.434954 191.797447 
L 283.643488 189.713586 
L 285.852022 184.367866 
L 288.060557 195.231382 
L 290.269091 186.176952 
L 292.477625 197.950471 
L 294.68616 193.533928 
L 299.103228 192.81387 
L 301.311763 196.116202 
L 303.520297 195.000084 
L 305.728831 186.675344 
L 307.937365 195.4786 
L 310.1459 208.762792 
L 312.354434 183.795367 
L 314.562968 204.34081 
L 316.771503 190.000756 
L 318.980037 202.781473 
L 321.188571 200.572063 
L 323.397106 196.219566 
L 325.60564 194.698677 
L 327.814174 187.105621 
L 330.022709 199.220874 
L 332.231243 196.824195 
L 334.439777 195.931158 
L 336.648312 203.110167 
L 341.06538 190.839868 
L 343.273915 194.106734 
L 345.482449 194.853039 
L 347.690983 199.728225 
L 349.899518 198.132145 
L 352.108052 187.356179 
L 354.316586 193.435813 
L 356.525121 192.858378 
L 358.733655 197.346101 
L 360.942189 198.409441 
L 363.150724 196.336778 
L 365.359258 192.970789 
L 367.567792 196.632417 
L 369.776327 196.579974 
L 371.984861 199.639742 
L 374.193395 198.742122 
L 376.401929 193.450859 
L 380.818998 190.113125 
L 383.027532 187.371366 
L 385.236067 192.093791 
L 387.444601 190.035824 
L 389.653135 194.942045 
L 391.86167 197.963401 
L 394.070204 196.951153 
L 396.278738 198.710712 
L 398.487273 193.723587 
L 398.487273 193.723587 
" clip-path="url(#p5b3267da5d)" style="fill: none; stroke: #008000; stroke-opacity: 0.8; stroke-width: 0.5; stroke-linecap: square"/>
   </g>
   <g id="line2d_18">
    <path d="M 73.832727 174.038857 
L 76.041262 179.371005 
L 78.249796 167.810532 
L 80.45833 165.39962 
L 82.666865 176.253147 
L 84.875399 186.06439 
L 87.083933 183.979327 
L 89.292468 183.843375 
L 91.501002 185.045869 
L 93.709536 176.943708 
L 95.918071 181.344185 
L 98.126605 184.765034 
L 100.335139 179.642212 
L 102.543673 182.748215 
L 104.752208 182.751881 
L 106.960742 186.43825 
L 109.169276 156.829439 
L 111.377811 172.070643 
L 113.586345 171.222022 
L 115.794879 175.381878 
L 118.003414 158.056238 
L 120.211948 173.314303 
L 122.420482 177.97728 
L 124.629017 178.337222 
L 126.837551 177.798758 
L 129.046085 185.908776 
L 133.463154 173.522829 
L 135.671688 180.789994 
L 137.880223 183.483145 
L 140.088757 171.986607 
L 142.297291 162.556252 
L 144.505826 179.426788 
L 146.71436 186.545257 
L 148.922894 179.399665 
L 151.131429 182.435745 
L 153.339963 160.256764 
L 155.548497 164.730798 
L 157.757032 162.020844 
L 159.965566 181.115949 
L 162.1741 175.053659 
L 164.382635 173.633169 
L 166.591169 185.23846 
L 168.799703 182.016327 
L 171.008237 183.447647 
L 173.216772 175.622208 
L 175.425306 183.147246 
L 177.63384 177.546951 
L 179.842375 173.680846 
L 182.050909 173.744314 
L 186.467978 119.092747 
L 188.676512 53.568 
L 190.885046 133.098876 
L 193.093581 164.614809 
L 195.302115 160.931912 
L 197.510649 168.574373 
L 199.719184 167.442226 
L 201.927718 134.056018 
L 204.136252 157.39728 
L 206.344787 171.554824 
L 208.553321 181.575948 
L 210.761855 176.436497 
L 212.97039 189.455752 
L 215.178924 154.308203 
L 217.387458 149.583745 
L 219.595993 184.145817 
L 221.804527 155.748259 
L 224.013061 156.304382 
L 226.221596 167.700045 
L 228.43013 175.61359 
L 230.638664 175.037385 
L 232.847199 168.934386 
L 235.055733 174.470079 
L 237.264267 162.184795 
L 239.472801 180.961931 
L 241.681336 166.857011 
L 243.88987 171.012196 
L 246.098404 174.764655 
L 248.306939 177.363391 
L 250.515473 178.740567 
L 252.724007 157.048604 
L 254.932542 172.009054 
L 257.141076 179.615222 
L 259.34961 168.452926 
L 261.558145 177.887886 
L 263.766679 167.812857 
L 265.975213 185.873495 
L 268.183748 170.994373 
L 270.392282 170.304851 
L 272.600816 167.438098 
L 274.809351 156.582403 
L 277.017885 182.609829 
L 279.226419 183.057111 
L 281.434954 181.037983 
L 283.643488 146.920764 
L 285.852022 158.951933 
L 288.060557 178.803739 
L 290.269091 164.650164 
L 292.477625 171.78739 
L 294.68616 157.524326 
L 296.894694 162.738633 
L 299.103228 147.423455 
L 301.311763 171.535103 
L 303.520297 167.903158 
L 305.728831 143.715182 
L 307.937365 148.575717 
L 310.1459 141.388822 
L 312.354434 161.280117 
L 314.562968 148.794858 
L 316.771503 174.834561 
L 318.980037 181.190619 
L 321.188571 178.706916 
L 323.397106 178.066137 
L 325.60564 149.319945 
L 327.814174 137.898672 
L 330.022709 168.640927 
L 332.231243 173.020368 
L 334.439777 162.307919 
L 336.648312 170.79406 
L 338.856846 168.376564 
L 341.06538 161.655601 
L 343.273915 172.948584 
L 345.482449 173.723165 
L 347.690983 180.180971 
L 349.899518 182.774459 
L 352.108052 162.941505 
L 354.316586 168.821975 
L 356.525121 167.606704 
L 358.733655 180.878293 
L 360.942189 173.885604 
L 363.150724 182.391969 
L 365.359258 170.660581 
L 367.567792 174.5949 
L 369.776327 182.73316 
L 371.984861 182.868918 
L 374.193395 173.020341 
L 376.401929 172.279379 
L 378.610464 169.225026 
L 380.818998 168.886333 
L 383.027532 169.233224 
L 385.236067 173.26504 
L 387.444601 163.019981 
L 389.653135 172.889009 
L 394.070204 189.709226 
L 396.278738 183.00698 
L 398.487273 170.413657 
L 398.487273 170.413657 
" clip-path="url(#p5b3267da5d)" style="fill: none; stroke: #32cd32; stroke-opacity: 0.8; stroke-width: 0.5; stroke-linecap: square"/>
   </g>
   <g id="line2d_19">
    <path d="M 73.832727 205.079487 
L 76.041262 204.40935 
L 78.249796 217.651982 
L 80.45833 208.846333 
L 82.666865 202.705324 
L 84.875399 197.775922 
L 87.083933 197.94219 
L 89.292468 203.490149 
L 91.501002 195.933444 
L 93.709536 198.456377 
L 95.918071 196.383018 
L 98.126605 197.886628 
L 100.335139 198.806292 
L 102.543673 194.511995 
L 104.752208 193.311616 
L 106.960742 195.528624 
L 109.169276 215.36584 
L 111.377811 215.541888 
L 113.586345 210.074187 
L 115.794879 214.438527 
L 118.003414 198.795339 
L 120.211948 238.498257 
L 122.420482 227.927678 
L 124.629017 205.650555 
L 126.837551 201.807765 
L 129.046085 202.903442 
L 131.25462 202.537242 
L 133.463154 205.13953 
L 137.880223 198.086732 
L 140.088757 203.912712 
L 142.297291 200.118059 
L 144.505826 213.519163 
L 146.71436 199.608651 
L 148.922894 198.46829 
L 151.131429 198.55586 
L 153.339963 199.74058 
L 155.548497 213.585915 
L 157.757032 201.176932 
L 159.965566 202.996973 
L 162.1741 196.3955 
L 164.382635 200.736211 
L 166.591169 197.781863 
L 168.799703 195.353581 
L 171.008237 197.967991 
L 173.216772 204.557946 
L 175.425306 196.913219 
L 177.63384 200.75144 
L 179.842375 198.004146 
L 182.050909 207.628961 
L 184.259443 196.038834 
L 186.467978 255.47076 
L 188.676512 295.488 
L 190.885046 275.559992 
L 195.302115 230.725318 
L 197.510649 229.666874 
L 199.719184 214.027298 
L 201.927718 219.404114 
L 204.136252 205.792001 
L 206.344787 207.49448 
L 208.553321 205.001324 
L 210.761855 204.594056 
L 212.97039 213.909736 
L 215.178924 219.95635 
L 217.387458 219.003493 
L 219.595993 215.020935 
L 221.804527 194.955666 
L 224.013061 220.06023 
L 226.221596 199.944118 
L 228.43013 205.510244 
L 230.638664 204.583486 
L 232.847199 204.307566 
L 235.055733 214.562459 
L 237.264267 220.974413 
L 239.472801 206.187739 
L 241.681336 222.487986 
L 243.88987 215.792764 
L 246.098404 211.744998 
L 250.515473 210.672795 
L 252.724007 211.279611 
L 254.932542 203.566495 
L 257.141076 205.598957 
L 259.34961 212.32298 
L 261.558145 203.108591 
L 263.766679 216.133449 
L 265.975213 208.121299 
L 268.183748 208.595107 
L 270.392282 210.229565 
L 272.600816 213.794298 
L 274.809351 212.172193 
L 277.017885 206.562171 
L 279.226419 201.520445 
L 281.434954 203.86895 
L 283.643488 221.302764 
L 285.852022 215.151488 
L 288.060557 218.686318 
L 290.269091 206.0499 
L 292.477625 235.338999 
L 294.68616 223.647249 
L 296.894694 228.565344 
L 299.103228 239.563003 
L 301.311763 223.281257 
L 303.520297 214.370361 
L 305.728831 226.679883 
L 307.937365 246.318285 
L 310.1459 229.442998 
L 312.354434 215.004653 
L 314.562968 242.814173 
L 316.771503 222.569941 
L 318.980037 230.050021 
L 321.188571 221.729812 
L 323.397106 221.730717 
L 325.60564 217.627063 
L 327.814174 215.602366 
L 330.022709 236.77003 
L 332.231243 239.53155 
L 334.439777 236.566993 
L 336.648312 274.482388 
L 338.856846 221.804784 
L 341.06538 213.04127 
L 343.273915 215.626355 
L 345.482449 214.738911 
L 347.690983 220.558021 
L 349.899518 220.670273 
L 352.108052 201.269747 
L 354.316586 220.524093 
L 356.525121 214.258341 
L 358.733655 218.715469 
L 360.942189 216.6879 
L 363.150724 223.607737 
L 365.359258 211.480453 
L 367.567792 217.091263 
L 369.776327 215.708645 
L 371.984861 215.518677 
L 374.193395 222.197919 
L 376.401929 214.335159 
L 378.610464 210.894989 
L 380.818998 210.596966 
L 383.027532 208.202186 
L 385.236067 208.830353 
L 387.444601 205.85878 
L 389.653135 216.866674 
L 391.86167 224.581298 
L 394.070204 206.7198 
L 396.278738 219.367772 
L 398.487273 207.212587 
L 398.487273 207.212587 
" clip-path="url(#p5b3267da5d)" style="fill: none; stroke: #32cd32; stroke-opacity: 0.8; stroke-width: 0.5; stroke-linecap: square"/>
   </g>
   <g id="line2d_20">
    <path d="M 73.832727 191.617388 
L 76.041262 186.597183 
L 78.249796 179.511774 
L 80.45833 192.017309 
L 82.666865 183.423209 
L 84.875399 186.619519 
L 87.083933 184.283489 
L 89.292468 185.874632 
L 91.501002 185.024236 
L 93.709536 186.674518 
L 95.918071 184.759633 
L 98.126605 186.285572 
L 100.335139 184.702847 
L 102.543673 185.596454 
L 104.752208 185.443312 
L 106.960742 185.41902 
L 109.169276 182.834659 
L 111.377811 182.472528 
L 113.586345 186.051738 
L 115.794879 184.16433 
L 118.003414 181.500207 
L 120.211948 179.798426 
L 122.420482 184.702519 
L 124.629017 182.448424 
L 129.046085 182.28024 
L 131.25462 181.521679 
L 133.463154 181.185865 
L 135.671688 184.67211 
L 137.880223 184.848193 
L 140.088757 178.53261 
L 142.297291 181.209737 
L 144.505826 186.884718 
L 146.71436 185.368809 
L 148.922894 182.540587 
L 151.131429 185.61125 
L 153.339963 180.552895 
L 155.548497 186.498864 
L 157.757032 181.801894 
L 159.965566 186.087351 
L 162.1741 181.964188 
L 164.382635 184.578463 
L 166.591169 183.806093 
L 168.799703 187.274926 
L 171.008237 185.850076 
L 173.216772 185.101076 
L 175.425306 186.915347 
L 179.842375 184.869447 
L 182.050909 186.142838 
L 184.259443 176.211552 
L 186.467978 176.021698 
L 188.676512 182.696611 
L 190.885046 189.968027 
L 193.093581 177.86779 
L 195.302115 173.059767 
L 197.510649 178.686845 
L 199.719184 183.210034 
L 201.927718 177.561171 
L 204.136252 177.55231 
L 206.344787 180.649673 
L 208.553321 182.813631 
L 210.761855 185.412281 
L 212.97039 186.243416 
L 215.178924 178.442849 
L 217.387458 181.685679 
L 219.595993 184.702842 
L 221.804527 176.851926 
L 224.013061 185.85842 
L 226.221596 184.174074 
L 228.43013 187.409216 
L 230.638664 183.676217 
L 232.847199 184.705898 
L 235.055733 180.783022 
L 237.264267 184.238621 
L 239.472801 180.331583 
L 241.681336 180.706028 
L 243.88987 185.692455 
L 246.098404 187.740721 
L 248.306939 184.240213 
L 250.515473 183.856819 
L 252.724007 179.882487 
L 254.932542 183.741141 
L 257.141076 184.242321 
L 259.34961 185.937543 
L 261.558145 184.789483 
L 263.766679 184.093687 
L 265.975213 186.089107 
L 268.183748 182.054069 
L 270.392282 183.937695 
L 272.600816 182.006313 
L 274.809351 177.444074 
L 277.017885 186.238725 
L 279.226419 184.598249 
L 281.434954 181.786451 
L 283.643488 178.211303 
L 285.852022 181.401853 
L 288.060557 187.588406 
L 290.269091 176.078151 
L 292.477625 182.493963 
L 294.68616 176.855264 
L 296.894694 175.726326 
L 299.103228 180.741003 
L 301.311763 182.552484 
L 303.520297 175.007253 
L 305.728831 172.42031 
L 307.937365 173.590501 
L 310.1459 183.27544 
L 312.354434 165.235796 
L 314.562968 181.597515 
L 316.771503 178.222951 
L 318.980037 188.136141 
L 321.188571 184.927768 
L 323.397106 173.169876 
L 325.60564 173.769939 
L 327.814174 180.395701 
L 330.022709 180.82208 
L 332.231243 180.996744 
L 334.439777 176.40169 
L 336.648312 182.471832 
L 338.856846 176.846324 
L 341.06538 174.025566 
L 343.273915 178.622328 
L 345.482449 182.768806 
L 347.690983 185.439588 
L 349.899518 180.733335 
L 352.108052 179.720543 
L 354.316586 182.380385 
L 356.525121 184.074568 
L 358.733655 182.853237 
L 360.942189 182.87364 
L 363.150724 180.308983 
L 365.359258 184.337482 
L 367.567792 182.765064 
L 369.776327 184.06974 
L 374.193395 185.044167 
L 376.401929 180.059113 
L 378.610464 182.012128 
L 380.818998 180.913637 
L 383.027532 180.592127 
L 385.236067 178.961827 
L 387.444601 181.680631 
L 389.653135 181.349669 
L 391.86167 182.333364 
L 394.070204 182.534384 
L 396.278738 184.361047 
L 398.487273 184.085479 
L 398.487273 184.085479 
" clip-path="url(#p5b3267da5d)" style="fill: none; stroke: #ff0000; stroke-opacity: 0.8; stroke-width: 0.5; stroke-linecap: square"/>
   </g>
   <g id="line2d_21">
    <path d="M 73.832727 169.144329 
L 76.041262 173.706626 
L 78.249796 164.204598 
L 80.45833 171.569655 
L 82.666865 175.990498 
L 84.875399 172.791054 
L 87.083933 177.04685 
L 89.292468 174.953383 
L 91.501002 179.031463 
L 93.709536 171.532979 
L 95.918071 175.912346 
L 98.126605 177.780119 
L 100.335139 176.274547 
L 102.543673 179.9836 
L 104.752208 179.249517 
L 106.960742 179.379275 
L 109.169276 156.562636 
L 113.586345 165.318008 
L 115.794879 167.856265 
L 118.003414 148.597202 
L 120.211948 159.849874 
L 122.420482 161.77277 
L 124.629017 165.919122 
L 126.837551 168.97819 
L 129.046085 175.457944 
L 131.25462 173.595715 
L 133.463154 158.784801 
L 135.671688 174.787926 
L 137.880223 176.444447 
L 140.088757 164.122526 
L 142.297291 158.331409 
L 144.505826 161.532471 
L 146.71436 178.973021 
L 148.922894 172.914827 
L 151.131429 179.529683 
L 153.339963 156.804547 
L 155.548497 153.34112 
L 157.757032 154.327849 
L 159.965566 179.283435 
L 164.382635 168.051166 
L 166.591169 171.979456 
L 168.799703 181.366857 
L 171.008237 180.356665 
L 173.216772 175.095717 
L 175.425306 182.561309 
L 177.63384 174.539063 
L 179.842375 170.097249 
L 182.050909 164.541362 
L 184.259443 150.049247 
L 186.467978 108.99165 
L 188.676512 72.529267 
L 190.885046 147.483047 
L 193.093581 140.288873 
L 195.302115 138.269357 
L 197.510649 155.668139 
L 199.719184 172.097639 
L 201.927718 124.077428 
L 204.136252 150.066501 
L 206.344787 155.133226 
L 208.553321 168.42848 
L 210.761855 171.264341 
L 212.97039 181.113351 
L 215.178924 139.834028 
L 217.387458 159.033587 
L 219.595993 156.088884 
L 221.804527 156.13122 
L 224.013061 141.762801 
L 226.221596 162.138338 
L 228.43013 177.027492 
L 230.638664 170.776838 
L 232.847199 161.218864 
L 235.055733 168.956664 
L 237.264267 154.208262 
L 239.472801 172.591655 
L 241.681336 151.28589 
L 243.88987 166.948514 
L 248.306939 172.969034 
L 250.515473 167.769807 
L 252.724007 154.957459 
L 254.932542 172.066673 
L 257.141076 175.601364 
L 259.34961 164.422273 
L 261.558145 173.298416 
L 263.766679 160.530216 
L 265.975213 173.893954 
L 268.183748 170.033938 
L 270.392282 174.663403 
L 272.600816 153.561868 
L 274.809351 147.878482 
L 277.017885 167.561335 
L 279.226419 172.977094 
L 281.434954 168.580466 
L 283.643488 147.764969 
L 285.852022 162.113575 
L 288.060557 171.99759 
L 290.269091 152.139482 
L 292.477625 157.787546 
L 294.68616 136.02572 
L 296.894694 150.801989 
L 299.103228 131.105097 
L 301.311763 153.043885 
L 303.520297 151.643726 
L 305.728831 122.850162 
L 307.937365 121.622916 
L 310.1459 137.62966 
L 312.354434 124.244597 
L 314.562968 136.580809 
L 316.771503 163.294215 
L 318.980037 161.17227 
L 321.188571 168.521821 
L 323.397106 150.073796 
L 325.60564 122.993702 
L 327.814174 115.837497 
L 330.022709 159.960784 
L 332.231243 139.422088 
L 334.439777 148.043479 
L 336.648312 153.758953 
L 338.856846 154.334952 
L 341.06538 145.025001 
L 343.273915 155.691393 
L 345.482449 167.31213 
L 347.690983 163.319046 
L 349.899518 157.616805 
L 352.108052 160.148979 
L 354.316586 160.783693 
L 356.525121 156.282402 
L 358.733655 169.171221 
L 360.942189 162.67025 
L 363.150724 165.105648 
L 365.359258 166.294852 
L 367.567792 174.401228 
L 369.776327 171.037863 
L 371.984861 175.204027 
L 374.193395 173.374514 
L 376.401929 163.626997 
L 378.610464 161.89472 
L 380.818998 158.640016 
L 383.027532 161.86202 
L 385.236067 157.985786 
L 387.444601 163.33027 
L 389.653135 159.738601 
L 391.86167 164.235995 
L 394.070204 173.321424 
L 396.278738 170.720392 
L 398.487273 148.56406 
L 398.487273 148.56406 
" clip-path="url(#p5b3267da5d)" style="fill: none; stroke: #f08080; stroke-opacity: 0.8; stroke-width: 0.5; stroke-linecap: square"/>
   </g>
   <g id="line2d_22">
    <path d="M 73.832727 211.628603 
L 76.041262 201.715549 
L 78.249796 204.626783 
L 80.45833 203.224453 
L 82.666865 190.984019 
L 84.875399 198.287645 
L 87.083933 192.899063 
L 89.292468 199.153415 
L 91.501002 189.324674 
L 93.709536 195.131329 
L 95.918071 192.462654 
L 98.126605 192.57549 
L 100.335139 193.565811 
L 102.543673 191.921194 
L 104.752208 191.636567 
L 106.960742 191.867963 
L 109.169276 205.669478 
L 111.377811 207.096598 
L 113.586345 205.1346 
L 115.794879 208.129367 
L 118.003414 190.050331 
L 120.211948 222.110242 
L 122.420482 211.146664 
L 124.629017 197.319488 
L 126.837551 194.9465 
L 129.046085 192.15596 
L 131.25462 194.176628 
L 133.463154 194.248056 
L 135.671688 191.654344 
L 137.880223 191.052606 
L 140.088757 189.684028 
L 142.297291 191.854284 
L 144.505826 211.853519 
L 146.71436 193.742751 
L 148.922894 189.22248 
L 151.131429 192.495022 
L 153.339963 191.939553 
L 155.548497 206.282001 
L 157.757032 200.460909 
L 159.965566 195.048157 
L 162.1741 192.507061 
L 164.382635 198.263515 
L 166.591169 191.462748 
L 168.799703 197.543577 
L 171.008237 192.059031 
L 173.216772 194.143101 
L 175.425306 193.02006 
L 177.63384 193.040122 
L 179.842375 199.966168 
L 182.050909 197.74153 
L 184.259443 191.20584 
L 186.467978 230.265894 
L 188.676512 276.90984 
L 190.885046 240.118155 
L 193.093581 218.66991 
L 195.302115 201.329712 
L 197.510649 202.185882 
L 199.719184 197.253206 
L 201.927718 211.113494 
L 204.136252 195.969359 
L 206.344787 205.969332 
L 208.553321 194.342357 
L 210.761855 204.74393 
L 212.97039 193.471123 
L 215.178924 208.486126 
L 217.387458 201.98622 
L 219.595993 203.819747 
L 221.804527 192.615187 
L 224.013061 206.288292 
L 226.221596 203.340785 
L 228.43013 199.798618 
L 230.638664 196.834404 
L 232.847199 197.336524 
L 235.055733 197.441102 
L 237.264267 212.103103 
L 239.472801 187.800708 
L 241.681336 212.280548 
L 243.88987 198.305162 
L 246.098404 213.70338 
L 248.306939 196.152424 
L 250.515473 198.389104 
L 252.724007 201.281838 
L 254.932542 192.932436 
L 257.141076 196.985521 
L 259.34961 199.345508 
L 261.558145 196.446735 
L 263.766679 206.975403 
L 265.975213 196.316575 
L 268.183748 193.195293 
L 270.392282 196.839181 
L 272.600816 202.800375 
L 274.809351 195.698927 
L 277.017885 208.629025 
L 279.226419 197.385626 
L 281.434954 191.732809 
L 283.643488 204.93076 
L 285.852022 211.41223 
L 288.060557 207.01123 
L 290.269091 197.48774 
L 292.477625 213.876656 
L 294.68616 215.469609 
L 296.894694 214.665047 
L 299.103228 233.628569 
L 301.311763 210.813686 
L 303.520297 200.636535 
L 305.728831 211.844855 
L 307.937365 213.066008 
L 310.1459 209.58103 
L 312.354434 210.700462 
L 314.562968 213.846188 
L 316.771503 198.830868 
L 318.980037 218.265217 
L 321.188571 219.192015 
L 323.397106 200.555533 
L 325.60564 207.769682 
L 327.814174 203.045499 
L 330.022709 213.369232 
L 332.231243 230.989359 
L 334.439777 209.279184 
L 336.648312 256.60284 
L 338.856846 230.162831 
L 341.06538 199.008459 
L 343.273915 203.523315 
L 345.482449 214.881644 
L 347.690983 207.530054 
L 349.899518 208.640736 
L 352.108052 195.939918 
L 354.316586 210.493052 
L 356.525121 203.479687 
L 358.733655 201.169938 
L 360.942189 212.199813 
L 363.150724 205.453515 
L 365.359258 206.219935 
L 367.567792 193.407991 
L 369.776327 199.505899 
L 371.984861 201.27306 
L 374.193395 194.704373 
L 376.401929 203.062615 
L 378.610464 196.163351 
L 380.818998 202.724122 
L 383.027532 196.393045 
L 385.236067 191.251469 
L 387.444601 214.429098 
L 389.653135 199.808286 
L 391.86167 207.166009 
L 394.070204 191.573828 
L 396.278738 197.796619 
L 398.487273 197.71907 
L 398.487273 197.71907 
" clip-path="url(#p5b3267da5d)" style="fill: none; stroke: #f08080; stroke-opacity: 0.8; stroke-width: 0.5; stroke-linecap: square"/>
   </g>
   <g id="patch_3">
    <path d="M 57.6 307.584 
L 57.6 41.472 
" style="fill: none; stroke: #000000; stroke-width: 0.8; stroke-linejoin: miter; stroke-linecap: square"/>
   </g>
   <g id="patch_4">
    <path d="M 414.72 307.584 
L 414.72 41.472 
" style="fill: none; stroke: #000000; stroke-width: 0.8; stroke-linejoin: miter; stroke-linecap: square"/>
   </g>
   <g id="patch_5">
    <path d="M 57.6 307.584 
L 414.72 307.584 
" style="fill: none; stroke: #000000; stroke-width: 0.8; stroke-linejoin: miter; stroke-linecap: square"/>
   </g>
   <g id="patch_6">
    <path d="M 57.6 41.472 
L 414.72 41.472 
" style="fill: none; stroke: #000000; stroke-width: 0.8; stroke-linejoin: miter; stroke-linecap: square"/>
   </g>
   <g id="text_17">
    <!-- 1final_naive_pr_snp500 -->
    <g transform="translate(165.5625 35.472) scale(0.12 -0.12)">
     <defs>
      <path id="DejaVuSans-66" d="M 2375 4863 
L 2375 4384 
L 1825 4384 
Q 1516 4384 1395 4259 
Q 1275 4134 1275 3809 
L 1275 3500 
L 2222 3500 
L 2222 3053 
L 1275 3053 
L 1275 0 
L 697 0 
L 697 3053 
L 147 3053 
L 147 3500 
L 697 3500 
L 697 3744 
Q 697 4328 969 4595 
Q 1241 4863 1831 4863 
L 2375 4863 
z
" transform="scale(0.015625)"/>
      <path id="DejaVuSans-69" d="M 603 3500 
L 1178 3500 
L 1178 0 
L 603 0 
L 603 3500 
z
M 603 4863 
L 1178 4863 
L 1178 4134 
L 603 4134 
L 603 4863 
z
" transform="scale(0.015625)"/>
      <path id="DejaVuSans-6e" d="M 3513 2113 
L 3513 0 
L 2938 0 
L 2938 2094 
Q 2938 2591 2744 2837 
Q 2550 3084 2163 3084 
Q 1697 3084 1428 2787 
Q 1159 2491 1159 1978 
L 1159 0 
L 581 0 
L 581 3500 
L 1159 3500 
L 1159 2956 
Q 1366 3272 1645 3428 
Q 1925 3584 2291 3584 
Q 2894 3584 3203 3211 
Q 3513 2838 3513 2113 
z
" transform="scale(0.015625)"/>
      <path id="DejaVuSans-61" d="M 2194 1759 
Q 1497 1759 1228 1600 
Q 959 1441 959 1056 
Q 959 750 1161 570 
Q 1363 391 1709 391 
Q 2188 391 2477 730 
Q 2766 1069 2766 1631 
L 2766 1759 
L 2194 1759 
z
M 3341 1997 
L 3341 0 
L 2766 0 
L 2766 531 
Q 2569 213 2275 61 
Q 1981 -91 1556 -91 
Q 1019 -91 701 211 
Q 384 513 384 1019 
Q 384 1609 779 1909 
Q 1175 2209 1959 2209 
L 2766 2209 
L 2766 2266 
Q 2766 2663 2505 2880 
Q 2244 3097 1772 3097 
Q 1472 3097 1187 3025 
Q 903 2953 641 2809 
L 641 3341 
Q 956 3463 1253 3523 
Q 1550 3584 1831 3584 
Q 2591 3584 2966 3190 
Q 3341 2797 3341 1997 
z
" transform="scale(0.015625)"/>
      <path id="DejaVuSans-6c" d="M 603 4863 
L 1178 4863 
L 1178 0 
L 603 0 
L 603 4863 
z
" transform="scale(0.015625)"/>
      <path id="DejaVuSans-5f" d="M 3263 -1063 
L 3263 -1509 
L -63 -1509 
L -63 -1063 
L 3263 -1063 
z
" transform="scale(0.015625)"/>
      <path id="DejaVuSans-76" d="M 191 3500 
L 800 3500 
L 1894 563 
L 2988 3500 
L 3597 3500 
L 2284 0 
L 1503 0 
L 191 3500 
z
" transform="scale(0.015625)"/>
      <path id="DejaVuSans-65" d="M 3597 1894 
L 3597 1613 
L 953 1613 
Q 991 1019 1311 708 
Q 1631 397 2203 397 
Q 2534 397 2845 478 
Q 3156 559 3463 722 
L 3463 178 
Q 3153 47 2828 -22 
Q 2503 -91 2169 -91 
Q 1331 -91 842 396 
Q 353 884 353 1716 
Q 353 2575 817 3079 
Q 1281 3584 2069 3584 
Q 2775 3584 3186 3129 
Q 3597 2675 3597 1894 
z
M 3022 2063 
Q 3016 2534 2758 2815 
Q 2500 3097 2075 3097 
Q 1594 3097 1305 2825 
Q 1016 2553 972 2059 
L 3022 2063 
z
" transform="scale(0.015625)"/>
      <path id="DejaVuSans-70" d="M 1159 525 
L 1159 -1331 
L 581 -1331 
L 581 3500 
L 1159 3500 
L 1159 2969 
Q 1341 3281 1617 3432 
Q 1894 3584 2278 3584 
Q 2916 3584 3314 3078 
Q 3713 2572 3713 1747 
Q 3713 922 3314 415 
Q 2916 -91 2278 -91 
Q 1894 -91 1617 61 
Q 1341 213 1159 525 
z
M 3116 1747 
Q 3116 2381 2855 2742 
Q 2594 3103 2138 3103 
Q 1681 3103 1420 2742 
Q 1159 2381 1159 1747 
Q 1159 1113 1420 752 
Q 1681 391 2138 391 
Q 2594 391 2855 752 
Q 3116 1113 3116 1747 
z
" transform="scale(0.015625)"/>
      <path id="DejaVuSans-72" d="M 2631 2963 
Q 2534 3019 2420 3045 
Q 2306 3072 2169 3072 
Q 1681 3072 1420 2755 
Q 1159 2438 1159 1844 
L 1159 0 
L 581 0 
L 581 3500 
L 1159 3500 
L 1159 2956 
Q 1341 3275 1631 3429 
Q 1922 3584 2338 3584 
Q 2397 3584 2469 3576 
Q 2541 3569 2628 3553 
L 2631 2963 
z
" transform="scale(0.015625)"/>
      <path id="DejaVuSans-73" d="M 2834 3397 
L 2834 2853 
Q 2591 2978 2328 3040 
Q 2066 3103 1784 3103 
Q 1356 3103 1142 2972 
Q 928 2841 928 2578 
Q 928 2378 1081 2264 
Q 1234 2150 1697 2047 
L 1894 2003 
Q 2506 1872 2764 1633 
Q 3022 1394 3022 966 
Q 3022 478 2636 193 
Q 2250 -91 1575 -91 
Q 1294 -91 989 -36 
Q 684 19 347 128 
L 347 722 
Q 666 556 975 473 
Q 1284 391 1588 391 
Q 1994 391 2212 530 
Q 2431 669 2431 922 
Q 2431 1156 2273 1281 
Q 2116 1406 1581 1522 
L 1381 1569 
Q 847 1681 609 1914 
Q 372 2147 372 2553 
Q 372 3047 722 3315 
Q 1072 3584 1716 3584 
Q 2034 3584 2315 3537 
Q 2597 3491 2834 3397 
z
" transform="scale(0.015625)"/>
      <path id="DejaVuSans-35" d="M 691 4666 
L 3169 4666 
L 3169 4134 
L 1269 4134 
L 1269 2991 
Q 1406 3038 1543 3061 
Q 1681 3084 1819 3084 
Q 2600 3084 3056 2656 
Q 3513 2228 3513 1497 
Q 3513 744 3044 326 
Q 2575 -91 1722 -91 
Q 1428 -91 1123 -41 
Q 819 9 494 109 
L 494 744 
Q 775 591 1075 516 
Q 1375 441 1709 441 
Q 2250 441 2565 725 
Q 2881 1009 2881 1497 
Q 2881 1984 2565 2268 
Q 2250 2553 1709 2553 
Q 1456 2553 1204 2497 
Q 953 2441 691 2322 
L 691 4666 
z
" transform="scale(0.015625)"/>
     </defs>
     <use xlink:href="#DejaVuSans-31"/>
     <use xlink:href="#DejaVuSans-66" x="63.623047"/>
     <use xlink:href="#DejaVuSans-69" x="98.828125"/>
     <use xlink:href="#DejaVuSans-6e" x="126.611328"/>
     <use xlink:href="#DejaVuSans-61" x="189.990234"/>
     <use xlink:href="#DejaVuSans-6c" x="251.269531"/>
     <use xlink:href="#DejaVuSans-5f" x="279.052734"/>
     <use xlink:href="#DejaVuSans-6e" x="329.052734"/>
     <use xlink:href="#DejaVuSans-61" x="392.431641"/>
     <use xlink:href="#DejaVuSans-69" x="453.710938"/>
     <use xlink:href="#DejaVuSans-76" x="481.494141"/>
     <use xlink:href="#DejaVuSans-65" x="540.673828"/>
     <use xlink:href="#DejaVuSans-5f" x="602.197266"/>
     <use xlink:href="#DejaVuSans-70" x="652.197266"/>
     <use xlink:href="#DejaVuSans-72" x="715.673828"/>
     <use xlink:href="#DejaVuSans-5f" x="756.787109"/>
     <use xlink:href="#DejaVuSans-73" x="806.787109"/>
     <use xlink:href="#DejaVuSans-6e" x="858.886719"/>
     <use xlink:href="#DejaVuSans-70" x="922.265625"/>
     <use xlink:href="#DejaVuSans-35" x="985.742188"/>
     <use xlink:href="#DejaVuSans-30" x="1049.365234"/>
     <use xlink:href="#DejaVuSans-30" x="1112.988281"/>
    </g>
   </g>
   <g id="legend_1">
    <g id="patch_7">
     <path d="M 247.318437 137.54075 
L 407.72 137.54075 
Q 409.72 137.54075 409.72 135.54075 
L 409.72 48.472 
Q 409.72 46.472 407.72 46.472 
L 247.318437 46.472 
Q 245.318437 46.472 245.318437 48.472 
L 245.318437 135.54075 
Q 245.318437 137.54075 247.318437 137.54075 
z
" style="fill: #ffffff; opacity: 0.8; stroke: #cccccc; stroke-linejoin: miter"/>
    </g>
    <g id="line2d_23">
     <path d="M 249.318437 54.570438 
L 259.318437 54.570438 
L 269.318437 54.570438 
" style="fill: none; stroke: #008000; stroke-opacity: 0.8; stroke-width: 0.5; stroke-linecap: square"/>
    </g>
    <g id="text_18">
     <!-- Positive predictions -->
     <g transform="translate(277.318437 58.070438) scale(0.1 -0.1)">
      <defs>
       <path id="DejaVuSans-50" d="M 1259 4147 
L 1259 2394 
L 2053 2394 
Q 2494 2394 2734 2622 
Q 2975 2850 2975 3272 
Q 2975 3691 2734 3919 
Q 2494 4147 2053 4147 
L 1259 4147 
z
M 628 4666 
L 2053 4666 
Q 2838 4666 3239 4311 
Q 3641 3956 3641 3272 
Q 3641 2581 3239 2228 
Q 2838 1875 2053 1875 
L 1259 1875 
L 1259 0 
L 628 0 
L 628 4666 
z
" transform="scale(0.015625)"/>
       <path id="DejaVuSans-6f" d="M 1959 3097 
Q 1497 3097 1228 2736 
Q 959 2375 959 1747 
Q 959 1119 1226 758 
Q 1494 397 1959 397 
Q 2419 397 2687 759 
Q 2956 1122 2956 1747 
Q 2956 2369 2687 2733 
Q 2419 3097 1959 3097 
z
M 1959 3584 
Q 2709 3584 3137 3096 
Q 3566 2609 3566 1747 
Q 3566 888 3137 398 
Q 2709 -91 1959 -91 
Q 1206 -91 779 398 
Q 353 888 353 1747 
Q 353 2609 779 3096 
Q 1206 3584 1959 3584 
z
" transform="scale(0.015625)"/>
       <path id="DejaVuSans-74" d="M 1172 4494 
L 1172 3500 
L 2356 3500 
L 2356 3053 
L 1172 3053 
L 1172 1153 
Q 1172 725 1289 603 
Q 1406 481 1766 481 
L 2356 481 
L 2356 0 
L 1766 0 
Q 1100 0 847 248 
Q 594 497 594 1153 
L 594 3053 
L 172 3053 
L 172 3500 
L 594 3500 
L 594 4494 
L 1172 4494 
z
" transform="scale(0.015625)"/>
       <path id="DejaVuSans-20" transform="scale(0.015625)"/>
       <path id="DejaVuSans-64" d="M 2906 2969 
L 2906 4863 
L 3481 4863 
L 3481 0 
L 2906 0 
L 2906 525 
Q 2725 213 2448 61 
Q 2172 -91 1784 -91 
Q 1150 -91 751 415 
Q 353 922 353 1747 
Q 353 2572 751 3078 
Q 1150 3584 1784 3584 
Q 2172 3584 2448 3432 
Q 2725 3281 2906 2969 
z
M 947 1747 
Q 947 1113 1208 752 
Q 1469 391 1925 391 
Q 2381 391 2643 752 
Q 2906 1113 2906 1747 
Q 2906 2381 2643 2742 
Q 2381 3103 1925 3103 
Q 1469 3103 1208 2742 
Q 947 2381 947 1747 
z
" transform="scale(0.015625)"/>
       <path id="DejaVuSans-63" d="M 3122 3366 
L 3122 2828 
Q 2878 2963 2633 3030 
Q 2388 3097 2138 3097 
Q 1578 3097 1268 2742 
Q 959 2388 959 1747 
Q 959 1106 1268 751 
Q 1578 397 2138 397 
Q 2388 397 2633 464 
Q 2878 531 3122 666 
L 3122 134 
Q 2881 22 2623 -34 
Q 2366 -91 2075 -91 
Q 1284 -91 818 406 
Q 353 903 353 1747 
Q 353 2603 823 3093 
Q 1294 3584 2113 3584 
Q 2378 3584 2631 3529 
Q 2884 3475 3122 3366 
z
" transform="scale(0.015625)"/>
      </defs>
      <use xlink:href="#DejaVuSans-50"/>
      <use xlink:href="#DejaVuSans-6f" x="56.677734"/>
      <use xlink:href="#DejaVuSans-73" x="117.859375"/>
      <use xlink:href="#DejaVuSans-69" x="169.958984"/>
      <use xlink:href="#DejaVuSans-74" x="197.742188"/>
      <use xlink:href="#DejaVuSans-69" x="236.951172"/>
      <use xlink:href="#DejaVuSans-76" x="264.734375"/>
      <use xlink:href="#DejaVuSans-65" x="323.914062"/>
      <use xlink:href="#DejaVuSans-20" x="385.4375"/>
      <use xlink:href="#DejaVuSans-70" x="417.224609"/>
      <use xlink:href="#DejaVuSans-72" x="480.701172"/>
      <use xlink:href="#DejaVuSans-65" x="519.564453"/>
      <use xlink:href="#DejaVuSans-64" x="581.087891"/>
      <use xlink:href="#DejaVuSans-69" x="644.564453"/>
      <use xlink:href="#DejaVuSans-63" x="672.347656"/>
      <use xlink:href="#DejaVuSans-74" x="727.328125"/>
      <use xlink:href="#DejaVuSans-69" x="766.537109"/>
      <use xlink:href="#DejaVuSans-6f" x="794.320312"/>
      <use xlink:href="#DejaVuSans-6e" x="855.501953"/>
      <use xlink:href="#DejaVuSans-73" x="918.880859"/>
     </g>
    </g>
    <g id="line2d_24">
     <path d="M 249.318437 69.248563 
L 259.318437 69.248563 
L 269.318437 69.248563 
" style="fill: none; stroke: #32cd32; stroke-opacity: 0.8; stroke-width: 0.5; stroke-linecap: square"/>
    </g>
    <g id="text_19">
     <!-- Positive predictions max -->
     <g transform="translate(277.318437 72.748563) scale(0.1 -0.1)">
      <defs>
       <path id="DejaVuSans-6d" d="M 3328 2828 
Q 3544 3216 3844 3400 
Q 4144 3584 4550 3584 
Q 5097 3584 5394 3201 
Q 5691 2819 5691 2113 
L 5691 0 
L 5113 0 
L 5113 2094 
Q 5113 2597 4934 2840 
Q 4756 3084 4391 3084 
Q 3944 3084 3684 2787 
Q 3425 2491 3425 1978 
L 3425 0 
L 2847 0 
L 2847 2094 
Q 2847 2600 2669 2842 
Q 2491 3084 2119 3084 
Q 1678 3084 1418 2786 
Q 1159 2488 1159 1978 
L 1159 0 
L 581 0 
L 581 3500 
L 1159 3500 
L 1159 2956 
Q 1356 3278 1631 3431 
Q 1906 3584 2284 3584 
Q 2666 3584 2933 3390 
Q 3200 3197 3328 2828 
z
" transform="scale(0.015625)"/>
       <path id="DejaVuSans-78" d="M 3513 3500 
L 2247 1797 
L 3578 0 
L 2900 0 
L 1881 1375 
L 863 0 
L 184 0 
L 1544 1831 
L 300 3500 
L 978 3500 
L 1906 2253 
L 2834 3500 
L 3513 3500 
z
" transform="scale(0.015625)"/>
      </defs>
      <use xlink:href="#DejaVuSans-50"/>
      <use xlink:href="#DejaVuSans-6f" x="56.677734"/>
      <use xlink:href="#DejaVuSans-73" x="117.859375"/>
      <use xlink:href="#DejaVuSans-69" x="169.958984"/>
      <use xlink:href="#DejaVuSans-74" x="197.742188"/>
      <use xlink:href="#DejaVuSans-69" x="236.951172"/>
      <use xlink:href="#DejaVuSans-76" x="264.734375"/>
      <use xlink:href="#DejaVuSans-65" x="323.914062"/>
      <use xlink:href="#DejaVuSans-20" x="385.4375"/>
      <use xlink:href="#DejaVuSans-70" x="417.224609"/>
      <use xlink:href="#DejaVuSans-72" x="480.701172"/>
      <use xlink:href="#DejaVuSans-65" x="519.564453"/>
      <use xlink:href="#DejaVuSans-64" x="581.087891"/>
      <use xlink:href="#DejaVuSans-69" x="644.564453"/>
      <use xlink:href="#DejaVuSans-63" x="672.347656"/>
      <use xlink:href="#DejaVuSans-74" x="727.328125"/>
      <use xlink:href="#DejaVuSans-69" x="766.537109"/>
      <use xlink:href="#DejaVuSans-6f" x="794.320312"/>
      <use xlink:href="#DejaVuSans-6e" x="855.501953"/>
      <use xlink:href="#DejaVuSans-73" x="918.880859"/>
      <use xlink:href="#DejaVuSans-20" x="970.980469"/>
      <use xlink:href="#DejaVuSans-6d" x="1002.767578"/>
      <use xlink:href="#DejaVuSans-61" x="1100.179688"/>
      <use xlink:href="#DejaVuSans-78" x="1161.458984"/>
     </g>
    </g>
    <g id="line2d_25">
     <path d="M 249.318437 83.926688 
L 259.318437 83.926688 
L 269.318437 83.926688 
" style="fill: none; stroke: #32cd32; stroke-opacity: 0.8; stroke-width: 0.5; stroke-linecap: square"/>
    </g>
    <g id="text_20">
     <!-- Positive predictions min -->
     <g transform="translate(277.318437 87.426688) scale(0.1 -0.1)">
      <use xlink:href="#DejaVuSans-50"/>
      <use xlink:href="#DejaVuSans-6f" x="56.677734"/>
      <use xlink:href="#DejaVuSans-73" x="117.859375"/>
      <use xlink:href="#DejaVuSans-69" x="169.958984"/>
      <use xlink:href="#DejaVuSans-74" x="197.742188"/>
      <use xlink:href="#DejaVuSans-69" x="236.951172"/>
      <use xlink:href="#DejaVuSans-76" x="264.734375"/>
      <use xlink:href="#DejaVuSans-65" x="323.914062"/>
      <use xlink:href="#DejaVuSans-20" x="385.4375"/>
      <use xlink:href="#DejaVuSans-70" x="417.224609"/>
      <use xlink:href="#DejaVuSans-72" x="480.701172"/>
      <use xlink:href="#DejaVuSans-65" x="519.564453"/>
      <use xlink:href="#DejaVuSans-64" x="581.087891"/>
      <use xlink:href="#DejaVuSans-69" x="644.564453"/>
      <use xlink:href="#DejaVuSans-63" x="672.347656"/>
      <use xlink:href="#DejaVuSans-74" x="727.328125"/>
      <use xlink:href="#DejaVuSans-69" x="766.537109"/>
      <use xlink:href="#DejaVuSans-6f" x="794.320312"/>
      <use xlink:href="#DejaVuSans-6e" x="855.501953"/>
      <use xlink:href="#DejaVuSans-73" x="918.880859"/>
      <use xlink:href="#DejaVuSans-20" x="970.980469"/>
      <use xlink:href="#DejaVuSans-6d" x="1002.767578"/>
      <use xlink:href="#DejaVuSans-69" x="1100.179688"/>
      <use xlink:href="#DejaVuSans-6e" x="1127.962891"/>
     </g>
    </g>
    <g id="line2d_26">
     <path d="M 249.318437 98.604813 
L 259.318437 98.604813 
L 269.318437 98.604813 
" style="fill: none; stroke: #ff0000; stroke-opacity: 0.8; stroke-width: 0.5; stroke-linecap: square"/>
    </g>
    <g id="text_21">
     <!-- Negative predictions -->
     <g transform="translate(277.318437 102.104813) scale(0.1 -0.1)">
      <defs>
       <path id="DejaVuSans-4e" d="M 628 4666 
L 1478 4666 
L 3547 763 
L 3547 4666 
L 4159 4666 
L 4159 0 
L 3309 0 
L 1241 3903 
L 1241 0 
L 628 0 
L 628 4666 
z
" transform="scale(0.015625)"/>
       <path id="DejaVuSans-67" d="M 2906 1791 
Q 2906 2416 2648 2759 
Q 2391 3103 1925 3103 
Q 1463 3103 1205 2759 
Q 947 2416 947 1791 
Q 947 1169 1205 825 
Q 1463 481 1925 481 
Q 2391 481 2648 825 
Q 2906 1169 2906 1791 
z
M 3481 434 
Q 3481 -459 3084 -895 
Q 2688 -1331 1869 -1331 
Q 1566 -1331 1297 -1286 
Q 1028 -1241 775 -1147 
L 775 -588 
Q 1028 -725 1275 -790 
Q 1522 -856 1778 -856 
Q 2344 -856 2625 -561 
Q 2906 -266 2906 331 
L 2906 616 
Q 2728 306 2450 153 
Q 2172 0 1784 0 
Q 1141 0 747 490 
Q 353 981 353 1791 
Q 353 2603 747 3093 
Q 1141 3584 1784 3584 
Q 2172 3584 2450 3431 
Q 2728 3278 2906 2969 
L 2906 3500 
L 3481 3500 
L 3481 434 
z
" transform="scale(0.015625)"/>
      </defs>
      <use xlink:href="#DejaVuSans-4e"/>
      <use xlink:href="#DejaVuSans-65" x="74.804688"/>
      <use xlink:href="#DejaVuSans-67" x="136.328125"/>
      <use xlink:href="#DejaVuSans-61" x="199.804688"/>
      <use xlink:href="#DejaVuSans-74" x="261.083984"/>
      <use xlink:href="#DejaVuSans-69" x="300.292969"/>
      <use xlink:href="#DejaVuSans-76" x="328.076172"/>
      <use xlink:href="#DejaVuSans-65" x="387.255859"/>
      <use xlink:href="#DejaVuSans-20" x="448.779297"/>
      <use xlink:href="#DejaVuSans-70" x="480.566406"/>
      <use xlink:href="#DejaVuSans-72" x="544.042969"/>
      <use xlink:href="#DejaVuSans-65" x="582.90625"/>
      <use xlink:href="#DejaVuSans-64" x="644.429688"/>
      <use xlink:href="#DejaVuSans-69" x="707.90625"/>
      <use xlink:href="#DejaVuSans-63" x="735.689453"/>
      <use xlink:href="#DejaVuSans-74" x="790.669922"/>
      <use xlink:href="#DejaVuSans-69" x="829.878906"/>
      <use xlink:href="#DejaVuSans-6f" x="857.662109"/>
      <use xlink:href="#DejaVuSans-6e" x="918.84375"/>
      <use xlink:href="#DejaVuSans-73" x="982.222656"/>
     </g>
    </g>
    <g id="line2d_27">
     <path d="M 249.318437 113.282938 
L 259.318437 113.282938 
L 269.318437 113.282938 
" style="fill: none; stroke: #f08080; stroke-opacity: 0.8; stroke-width: 0.5; stroke-linecap: square"/>
    </g>
    <g id="text_22">
     <!-- Negative predictions max -->
     <g transform="translate(277.318437 116.782938) scale(0.1 -0.1)">
      <use xlink:href="#DejaVuSans-4e"/>
      <use xlink:href="#DejaVuSans-65" x="74.804688"/>
      <use xlink:href="#DejaVuSans-67" x="136.328125"/>
      <use xlink:href="#DejaVuSans-61" x="199.804688"/>
      <use xlink:href="#DejaVuSans-74" x="261.083984"/>
      <use xlink:href="#DejaVuSans-69" x="300.292969"/>
      <use xlink:href="#DejaVuSans-76" x="328.076172"/>
      <use xlink:href="#DejaVuSans-65" x="387.255859"/>
      <use xlink:href="#DejaVuSans-20" x="448.779297"/>
      <use xlink:href="#DejaVuSans-70" x="480.566406"/>
      <use xlink:href="#DejaVuSans-72" x="544.042969"/>
      <use xlink:href="#DejaVuSans-65" x="582.90625"/>
      <use xlink:href="#DejaVuSans-64" x="644.429688"/>
      <use xlink:href="#DejaVuSans-69" x="707.90625"/>
      <use xlink:href="#DejaVuSans-63" x="735.689453"/>
      <use xlink:href="#DejaVuSans-74" x="790.669922"/>
      <use xlink:href="#DejaVuSans-69" x="829.878906"/>
      <use xlink:href="#DejaVuSans-6f" x="857.662109"/>
      <use xlink:href="#DejaVuSans-6e" x="918.84375"/>
      <use xlink:href="#DejaVuSans-73" x="982.222656"/>
      <use xlink:href="#DejaVuSans-20" x="1034.322266"/>
      <use xlink:href="#DejaVuSans-6d" x="1066.109375"/>
      <use xlink:href="#DejaVuSans-61" x="1163.521484"/>
      <use xlink:href="#DejaVuSans-78" x="1224.800781"/>
     </g>
    </g>
    <g id="line2d_28">
     <path d="M 249.318437 127.961063 
L 259.318437 127.961063 
L 269.318437 127.961063 
" style="fill: none; stroke: #f08080; stroke-opacity: 0.8; stroke-width: 0.5; stroke-linecap: square"/>
    </g>
    <g id="text_23">
     <!-- Negative predictions min -->
     <g transform="translate(277.318437 131.461063) scale(0.1 -0.1)">
      <use xlink:href="#DejaVuSans-4e"/>
      <use xlink:href="#DejaVuSans-65" x="74.804688"/>
      <use xlink:href="#DejaVuSans-67" x="136.328125"/>
      <use xlink:href="#DejaVuSans-61" x="199.804688"/>
      <use xlink:href="#DejaVuSans-74" x="261.083984"/>
      <use xlink:href="#DejaVuSans-69" x="300.292969"/>
      <use xlink:href="#DejaVuSans-76" x="328.076172"/>
      <use xlink:href="#DejaVuSans-65" x="387.255859"/>
      <use xlink:href="#DejaVuSans-20" x="448.779297"/>
      <use xlink:href="#DejaVuSans-70" x="480.566406"/>
      <use xlink:href="#DejaVuSans-72" x="544.042969"/>
      <use xlink:href="#DejaVuSans-65" x="582.90625"/>
      <use xlink:href="#DejaVuSans-64" x="644.429688"/>
      <use xlink:href="#DejaVuSans-69" x="707.90625"/>
      <use xlink:href="#DejaVuSans-63" x="735.689453"/>
      <use xlink:href="#DejaVuSans-74" x="790.669922"/>
      <use xlink:href="#DejaVuSans-69" x="829.878906"/>
      <use xlink:href="#DejaVuSans-6f" x="857.662109"/>
      <use xlink:href="#DejaVuSans-6e" x="918.84375"/>
      <use xlink:href="#DejaVuSans-73" x="982.222656"/>
      <use xlink:href="#DejaVuSans-20" x="1034.322266"/>
      <use xlink:href="#DejaVuSans-6d" x="1066.109375"/>
      <use xlink:href="#DejaVuSans-69" x="1163.521484"/>
      <use xlink:href="#DejaVuSans-6e" x="1191.304688"/>
     </g>
    </g>
   </g>
  </g>
 </g>
 <defs>
  <clipPath id="p5b3267da5d">
   <rect x="57.6" y="41.472" width="357.12" height="266.112"/>
  </clipPath>
 </defs>
</svg>
