<?xml version="1.0" encoding="utf-8" standalone="no"?>
<!DOCTYPE svg PUBLIC "-//W3C//DTD SVG 1.1//EN"
  "http://www.w3.org/Graphics/SVG/1.1/DTD/svg11.dtd">
<svg xmlns:xlink="http://www.w3.org/1999/xlink" width="460.8pt" height="345.6pt" viewBox="0 0 460.8 345.6" xmlns="http://www.w3.org/2000/svg" version="1.1">
 <metadata>
  <rdf:RDF xmlns:dc="http://purl.org/dc/elements/1.1/" xmlns:cc="http://creativecommons.org/ns#" xmlns:rdf="http://www.w3.org/1999/02/22-rdf-syntax-ns#">
   <cc:Work>
    <dc:type rdf:resource="http://purl.org/dc/dcmitype/StillImage"/>
    <dc:date>2024-09-08T12:11:56.934487</dc:date>
    <dc:format>image/svg+xml</dc:format>
    <dc:creator>
     <cc:Agent>
      <dc:title>Matplotlib v3.8.3, https://matplotlib.org/</dc:title>
     </cc:Agent>
    </dc:creator>
   </cc:Work>
  </rdf:RDF>
 </metadata>
 <defs>
  <style type="text/css">*{stroke-linejoin: round; stroke-linecap: butt}</style>
 </defs>
 <g id="figure_1">
  <g id="patch_1">
   <path d="M 0 345.6 
L 460.8 345.6 
L 460.8 0 
L 0 0 
z
" style="fill: #ffffff"/>
  </g>
  <g id="axes_1">
   <g id="patch_2">
    <path d="M 57.6 307.584 
L 414.72 307.584 
L 414.72 41.472 
L 57.6 41.472 
z
" style="fill: #ffffff"/>
   </g>
   <g id="matplotlib.axis_1">
    <g id="xtick_1">
     <g id="line2d_1">
      <defs>
       <path id="m185875af02" d="M 0 0 
L 0 3.5 
" style="stroke: #000000; stroke-width: 0.8"/>
      </defs>
      <g>
       <use xlink:href="#m185875af02" x="73.832727" y="307.584" style="stroke: #000000; stroke-width: 0.8"/>
      </g>
     </g>
     <g id="text_1">
      <!-- 0 -->
      <g transform="translate(70.651477 322.182437) scale(0.1 -0.1)">
       <defs>
        <path id="DejaVuSans-30" d="M 2034 4250 
Q 1547 4250 1301 3770 
Q 1056 3291 1056 2328 
Q 1056 1369 1301 889 
Q 1547 409 2034 409 
Q 2525 409 2770 889 
Q 3016 1369 3016 2328 
Q 3016 3291 2770 3770 
Q 2525 4250 2034 4250 
z
M 2034 4750 
Q 2819 4750 3233 4129 
Q 3647 3509 3647 2328 
Q 3647 1150 3233 529 
Q 2819 -91 2034 -91 
Q 1250 -91 836 529 
Q 422 1150 422 2328 
Q 422 3509 836 4129 
Q 1250 4750 2034 4750 
z
" transform="scale(0.015625)"/>
       </defs>
       <use xlink:href="#DejaVuSans-30"/>
      </g>
     </g>
    </g>
    <g id="xtick_2">
     <g id="line2d_2">
      <g>
       <use xlink:href="#m185875af02" x="116.27123" y="307.584" style="stroke: #000000; stroke-width: 0.8"/>
      </g>
     </g>
     <g id="text_2">
      <!-- 20 -->
      <g transform="translate(109.90873 322.182437) scale(0.1 -0.1)">
       <defs>
        <path id="DejaVuSans-32" d="M 1228 531 
L 3431 531 
L 3431 0 
L 469 0 
L 469 531 
Q 828 903 1448 1529 
Q 2069 2156 2228 2338 
Q 2531 2678 2651 2914 
Q 2772 3150 2772 3378 
Q 2772 3750 2511 3984 
Q 2250 4219 1831 4219 
Q 1534 4219 1204 4116 
Q 875 4013 500 3803 
L 500 4441 
Q 881 4594 1212 4672 
Q 1544 4750 1819 4750 
Q 2544 4750 2975 4387 
Q 3406 4025 3406 3419 
Q 3406 3131 3298 2873 
Q 3191 2616 2906 2266 
Q 2828 2175 2409 1742 
Q 1991 1309 1228 531 
z
" transform="scale(0.015625)"/>
       </defs>
       <use xlink:href="#DejaVuSans-32"/>
       <use xlink:href="#DejaVuSans-30" x="63.623047"/>
      </g>
     </g>
    </g>
    <g id="xtick_3">
     <g id="line2d_3">
      <g>
       <use xlink:href="#m185875af02" x="158.709733" y="307.584" style="stroke: #000000; stroke-width: 0.8"/>
      </g>
     </g>
     <g id="text_3">
      <!-- 40 -->
      <g transform="translate(152.347233 322.182437) scale(0.1 -0.1)">
       <defs>
        <path id="DejaVuSans-34" d="M 2419 4116 
L 825 1625 
L 2419 1625 
L 2419 4116 
z
M 2253 4666 
L 3047 4666 
L 3047 1625 
L 3713 1625 
L 3713 1100 
L 3047 1100 
L 3047 0 
L 2419 0 
L 2419 1100 
L 313 1100 
L 313 1709 
L 2253 4666 
z
" transform="scale(0.015625)"/>
       </defs>
       <use xlink:href="#DejaVuSans-34"/>
       <use xlink:href="#DejaVuSans-30" x="63.623047"/>
      </g>
     </g>
    </g>
    <g id="xtick_4">
     <g id="line2d_4">
      <g>
       <use xlink:href="#m185875af02" x="201.148235" y="307.584" style="stroke: #000000; stroke-width: 0.8"/>
      </g>
     </g>
     <g id="text_4">
      <!-- 60 -->
      <g transform="translate(194.785735 322.182437) scale(0.1 -0.1)">
       <defs>
        <path id="DejaVuSans-36" d="M 2113 2584 
Q 1688 2584 1439 2293 
Q 1191 2003 1191 1497 
Q 1191 994 1439 701 
Q 1688 409 2113 409 
Q 2538 409 2786 701 
Q 3034 994 3034 1497 
Q 3034 2003 2786 2293 
Q 2538 2584 2113 2584 
z
M 3366 4563 
L 3366 3988 
Q 3128 4100 2886 4159 
Q 2644 4219 2406 4219 
Q 1781 4219 1451 3797 
Q 1122 3375 1075 2522 
Q 1259 2794 1537 2939 
Q 1816 3084 2150 3084 
Q 2853 3084 3261 2657 
Q 3669 2231 3669 1497 
Q 3669 778 3244 343 
Q 2819 -91 2113 -91 
Q 1303 -91 875 529 
Q 447 1150 447 2328 
Q 447 3434 972 4092 
Q 1497 4750 2381 4750 
Q 2619 4750 2861 4703 
Q 3103 4656 3366 4563 
z
" transform="scale(0.015625)"/>
       </defs>
       <use xlink:href="#DejaVuSans-36"/>
       <use xlink:href="#DejaVuSans-30" x="63.623047"/>
      </g>
     </g>
    </g>
    <g id="xtick_5">
     <g id="line2d_5">
      <g>
       <use xlink:href="#m185875af02" x="243.586738" y="307.584" style="stroke: #000000; stroke-width: 0.8"/>
      </g>
     </g>
     <g id="text_5">
      <!-- 80 -->
      <g transform="translate(237.224238 322.182437) scale(0.1 -0.1)">
       <defs>
        <path id="DejaVuSans-38" d="M 2034 2216 
Q 1584 2216 1326 1975 
Q 1069 1734 1069 1313 
Q 1069 891 1326 650 
Q 1584 409 2034 409 
Q 2484 409 2743 651 
Q 3003 894 3003 1313 
Q 3003 1734 2745 1975 
Q 2488 2216 2034 2216 
z
M 1403 2484 
Q 997 2584 770 2862 
Q 544 3141 544 3541 
Q 544 4100 942 4425 
Q 1341 4750 2034 4750 
Q 2731 4750 3128 4425 
Q 3525 4100 3525 3541 
Q 3525 3141 3298 2862 
Q 3072 2584 2669 2484 
Q 3125 2378 3379 2068 
Q 3634 1759 3634 1313 
Q 3634 634 3220 271 
Q 2806 -91 2034 -91 
Q 1263 -91 848 271 
Q 434 634 434 1313 
Q 434 1759 690 2068 
Q 947 2378 1403 2484 
z
M 1172 3481 
Q 1172 3119 1398 2916 
Q 1625 2713 2034 2713 
Q 2441 2713 2670 2916 
Q 2900 3119 2900 3481 
Q 2900 3844 2670 4047 
Q 2441 4250 2034 4250 
Q 1625 4250 1398 4047 
Q 1172 3844 1172 3481 
z
" transform="scale(0.015625)"/>
       </defs>
       <use xlink:href="#DejaVuSans-38"/>
       <use xlink:href="#DejaVuSans-30" x="63.623047"/>
      </g>
     </g>
    </g>
    <g id="xtick_6">
     <g id="line2d_6">
      <g>
       <use xlink:href="#m185875af02" x="286.025241" y="307.584" style="stroke: #000000; stroke-width: 0.8"/>
      </g>
     </g>
     <g id="text_6">
      <!-- 100 -->
      <g transform="translate(276.481491 322.182437) scale(0.1 -0.1)">
       <defs>
        <path id="DejaVuSans-31" d="M 794 531 
L 1825 531 
L 1825 4091 
L 703 3866 
L 703 4441 
L 1819 4666 
L 2450 4666 
L 2450 531 
L 3481 531 
L 3481 0 
L 794 0 
L 794 531 
z
" transform="scale(0.015625)"/>
       </defs>
       <use xlink:href="#DejaVuSans-31"/>
       <use xlink:href="#DejaVuSans-30" x="63.623047"/>
       <use xlink:href="#DejaVuSans-30" x="127.246094"/>
      </g>
     </g>
    </g>
    <g id="xtick_7">
     <g id="line2d_7">
      <g>
       <use xlink:href="#m185875af02" x="328.463743" y="307.584" style="stroke: #000000; stroke-width: 0.8"/>
      </g>
     </g>
     <g id="text_7">
      <!-- 120 -->
      <g transform="translate(318.919993 322.182437) scale(0.1 -0.1)">
       <use xlink:href="#DejaVuSans-31"/>
       <use xlink:href="#DejaVuSans-32" x="63.623047"/>
       <use xlink:href="#DejaVuSans-30" x="127.246094"/>
      </g>
     </g>
    </g>
    <g id="xtick_8">
     <g id="line2d_8">
      <g>
       <use xlink:href="#m185875af02" x="370.902246" y="307.584" style="stroke: #000000; stroke-width: 0.8"/>
      </g>
     </g>
     <g id="text_8">
      <!-- 140 -->
      <g transform="translate(361.358496 322.182437) scale(0.1 -0.1)">
       <use xlink:href="#DejaVuSans-31"/>
       <use xlink:href="#DejaVuSans-34" x="63.623047"/>
       <use xlink:href="#DejaVuSans-30" x="127.246094"/>
      </g>
     </g>
    </g>
    <g id="xtick_9">
     <g id="line2d_9">
      <g>
       <use xlink:href="#m185875af02" x="413.340749" y="307.584" style="stroke: #000000; stroke-width: 0.8"/>
      </g>
     </g>
     <g id="text_9">
      <!-- 160 -->
      <g transform="translate(403.796999 322.182437) scale(0.1 -0.1)">
       <use xlink:href="#DejaVuSans-31"/>
       <use xlink:href="#DejaVuSans-36" x="63.623047"/>
       <use xlink:href="#DejaVuSans-30" x="127.246094"/>
      </g>
     </g>
    </g>
   </g>
   <g id="matplotlib.axis_2">
    <g id="ytick_1">
     <g id="line2d_10">
      <defs>
       <path id="m3b4c4b1ed5" d="M 0 0 
L -3.5 0 
" style="stroke: #000000; stroke-width: 0.8"/>
      </defs>
      <g>
       <use xlink:href="#m3b4c4b1ed5" x="57.6" y="301.456919" style="stroke: #000000; stroke-width: 0.8"/>
      </g>
     </g>
     <g id="text_10">
      <!-- −0.02 -->
      <g transform="translate(19.954687 305.256137) scale(0.1 -0.1)">
       <defs>
        <path id="DejaVuSans-2212" d="M 678 2272 
L 4684 2272 
L 4684 1741 
L 678 1741 
L 678 2272 
z
" transform="scale(0.015625)"/>
        <path id="DejaVuSans-2e" d="M 684 794 
L 1344 794 
L 1344 0 
L 684 0 
L 684 794 
z
" transform="scale(0.015625)"/>
       </defs>
       <use xlink:href="#DejaVuSans-2212"/>
       <use xlink:href="#DejaVuSans-30" x="83.789062"/>
       <use xlink:href="#DejaVuSans-2e" x="147.412109"/>
       <use xlink:href="#DejaVuSans-30" x="179.199219"/>
       <use xlink:href="#DejaVuSans-32" x="242.822266"/>
      </g>
     </g>
    </g>
    <g id="ytick_2">
     <g id="line2d_11">
      <g>
       <use xlink:href="#m3b4c4b1ed5" x="57.6" y="252.122814" style="stroke: #000000; stroke-width: 0.8"/>
      </g>
     </g>
     <g id="text_11">
      <!-- −0.01 -->
      <g transform="translate(19.954687 255.922032) scale(0.1 -0.1)">
       <use xlink:href="#DejaVuSans-2212"/>
       <use xlink:href="#DejaVuSans-30" x="83.789062"/>
       <use xlink:href="#DejaVuSans-2e" x="147.412109"/>
       <use xlink:href="#DejaVuSans-30" x="179.199219"/>
       <use xlink:href="#DejaVuSans-31" x="242.822266"/>
      </g>
     </g>
    </g>
    <g id="ytick_3">
     <g id="line2d_12">
      <g>
       <use xlink:href="#m3b4c4b1ed5" x="57.6" y="202.788709" style="stroke: #000000; stroke-width: 0.8"/>
      </g>
     </g>
     <g id="text_12">
      <!-- 0.00 -->
      <g transform="translate(28.334375 206.587927) scale(0.1 -0.1)">
       <use xlink:href="#DejaVuSans-30"/>
       <use xlink:href="#DejaVuSans-2e" x="63.623047"/>
       <use xlink:href="#DejaVuSans-30" x="95.410156"/>
       <use xlink:href="#DejaVuSans-30" x="159.033203"/>
      </g>
     </g>
    </g>
    <g id="ytick_4">
     <g id="line2d_13">
      <g>
       <use xlink:href="#m3b4c4b1ed5" x="57.6" y="153.454604" style="stroke: #000000; stroke-width: 0.8"/>
      </g>
     </g>
     <g id="text_13">
      <!-- 0.01 -->
      <g transform="translate(28.334375 157.253822) scale(0.1 -0.1)">
       <use xlink:href="#DejaVuSans-30"/>
       <use xlink:href="#DejaVuSans-2e" x="63.623047"/>
       <use xlink:href="#DejaVuSans-30" x="95.410156"/>
       <use xlink:href="#DejaVuSans-31" x="159.033203"/>
      </g>
     </g>
    </g>
    <g id="ytick_5">
     <g id="line2d_14">
      <g>
       <use xlink:href="#m3b4c4b1ed5" x="57.6" y="104.120498" style="stroke: #000000; stroke-width: 0.8"/>
      </g>
     </g>
     <g id="text_14">
      <!-- 0.02 -->
      <g transform="translate(28.334375 107.919717) scale(0.1 -0.1)">
       <use xlink:href="#DejaVuSans-30"/>
       <use xlink:href="#DejaVuSans-2e" x="63.623047"/>
       <use xlink:href="#DejaVuSans-30" x="95.410156"/>
       <use xlink:href="#DejaVuSans-32" x="159.033203"/>
      </g>
     </g>
    </g>
    <g id="ytick_6">
     <g id="line2d_15">
      <g>
       <use xlink:href="#m3b4c4b1ed5" x="57.6" y="54.786393" style="stroke: #000000; stroke-width: 0.8"/>
      </g>
     </g>
     <g id="text_15">
      <!-- 0.03 -->
      <g transform="translate(28.334375 58.585612) scale(0.1 -0.1)">
       <defs>
        <path id="DejaVuSans-33" d="M 2597 2516 
Q 3050 2419 3304 2112 
Q 3559 1806 3559 1356 
Q 3559 666 3084 287 
Q 2609 -91 1734 -91 
Q 1441 -91 1130 -33 
Q 819 25 488 141 
L 488 750 
Q 750 597 1062 519 
Q 1375 441 1716 441 
Q 2309 441 2620 675 
Q 2931 909 2931 1356 
Q 2931 1769 2642 2001 
Q 2353 2234 1838 2234 
L 1294 2234 
L 1294 2753 
L 1863 2753 
Q 2328 2753 2575 2939 
Q 2822 3125 2822 3475 
Q 2822 3834 2567 4026 
Q 2313 4219 1838 4219 
Q 1578 4219 1281 4162 
Q 984 4106 628 3988 
L 628 4550 
Q 988 4650 1302 4700 
Q 1616 4750 1894 4750 
Q 2613 4750 3031 4423 
Q 3450 4097 3450 3541 
Q 3450 3153 3228 2886 
Q 3006 2619 2597 2516 
z
" transform="scale(0.015625)"/>
       </defs>
       <use xlink:href="#DejaVuSans-30"/>
       <use xlink:href="#DejaVuSans-2e" x="63.623047"/>
       <use xlink:href="#DejaVuSans-30" x="95.410156"/>
       <use xlink:href="#DejaVuSans-33" x="159.033203"/>
      </g>
     </g>
    </g>
   </g>
   <g id="line2d_16">
    <path d="M 73.832727 203.489274 
L 75.954652 201.465376 
L 78.076578 202.838158 
L 80.198503 198.202787 
L 82.320428 205.959389 
L 84.442353 188.200143 
L 86.564278 199.051278 
L 88.686203 204.119936 
L 90.808128 200.132713 
L 92.930053 205.603919 
L 95.051979 210.193891 
L 97.173904 203.738452 
L 99.295829 198.632862 
L 101.417754 207.013464 
L 103.539679 207.410669 
L 105.661604 211.021716 
L 107.783529 191.328332 
L 109.905455 201.971727 
L 112.02738 202.14827 
L 114.149305 201.543143 
L 116.27123 207.897217 
L 118.393155 202.712797 
L 120.51508 207.172627 
L 122.637005 207.016766 
L 124.75893 194.0699 
L 126.880856 204.566909 
L 129.002781 204.369951 
L 131.124706 196.619814 
L 133.246631 212.770417 
L 135.368556 197.011184 
L 137.490481 204.421528 
L 139.612406 200.829668 
L 141.734332 203.934306 
L 143.856257 204.20028 
L 145.978182 205.375887 
L 148.100107 210.408615 
L 150.222032 198.739855 
L 152.343957 196.672964 
L 154.465882 207.516314 
L 156.587807 201.720088 
L 158.709733 197.884871 
L 160.831658 203.600445 
L 162.953583 202.688817 
L 165.075508 212.29421 
L 167.197433 203.841465 
L 169.319358 198.123579 
L 171.441283 201.71859 
L 173.563209 208.20205 
L 175.685134 205.483434 
L 177.807059 199.754848 
L 179.928984 198.49936 
L 182.050909 200.203869 
L 184.172834 199.196867 
L 186.294759 230.346264 
L 188.416684 169.383095 
L 190.53861 208.863725 
L 192.660535 206.521837 
L 194.78246 208.423058 
L 196.904385 196.925944 
L 199.02631 218.229751 
L 201.148235 208.872345 
L 203.27016 201.201497 
L 205.392086 206.902971 
L 207.514011 218.842448 
L 209.635936 206.980819 
L 211.757861 201.579782 
L 213.879786 203.080732 
L 216.001711 202.196713 
L 218.123636 196.781246 
L 220.245561 201.369941 
L 222.367487 197.948198 
L 224.489412 212.401286 
L 226.611337 207.745042 
L 228.733262 208.652246 
L 230.855187 204.536891 
L 232.977112 199.597747 
L 235.099037 200.806272 
L 237.220963 195.913505 
L 239.342888 205.532219 
L 241.464813 191.730937 
L 243.586738 201.449977 
L 245.708663 197.128757 
L 247.830588 212.016245 
L 249.952513 204.802663 
L 252.074439 207.478885 
L 254.196364 203.534234 
L 256.318289 197.738173 
L 258.440214 195.053539 
L 260.562139 199.28616 
L 262.684064 197.479014 
L 264.805989 201.344437 
L 266.927914 200.577783 
L 269.04984 211.964904 
L 271.171765 194.969115 
L 273.29369 197.393336 
L 275.415615 202.522308 
L 277.53754 200.896818 
L 279.659465 196.891295 
L 281.78139 197.096452 
L 283.903316 204.362766 
L 286.025241 203.700777 
L 288.147166 204.471206 
L 290.269091 202.424204 
L 292.391016 209.346961 
L 294.512941 196.524873 
L 296.634866 181.788959 
L 298.756791 213.230946 
L 300.878717 203.961041 
L 303.000642 192.894234 
L 305.122567 191.514336 
L 307.244492 198.128814 
L 309.366417 219.972021 
L 311.488342 192.051922 
L 313.610267 207.978306 
L 315.732193 185.385706 
L 317.854118 206.988114 
L 319.976043 202.919333 
L 322.097968 197.733934 
L 324.219893 199.508685 
L 326.341818 209.733785 
L 328.463743 193.031789 
L 330.585668 202.661834 
L 332.707594 214.664615 
L 334.829519 222.880013 
L 336.951444 205.119524 
L 339.073369 211.194358 
L 341.195294 209.783095 
L 343.317219 202.229566 
L 345.439144 213.245975 
L 347.56107 199.245023 
L 349.682995 198.78903 
L 351.80492 200.474334 
L 353.926845 205.220136 
L 356.04877 208.225423 
L 358.170695 211.613686 
L 360.29262 203.520426 
L 362.414545 194.987012 
L 364.536471 197.036745 
L 366.658396 204.550891 
L 368.780321 210.603583 
L 370.902246 205.710023 
L 373.024171 209.949021 
L 375.146096 196.174811 
L 377.268021 197.014569 
L 379.389947 198.135714 
L 381.511872 198.352369 
L 383.633797 198.219034 
L 385.755722 201.025793 
L 387.877647 205.311837 
L 389.999572 209.054116 
L 392.121497 215.231898 
L 394.243422 194.497427 
L 396.365348 215.109529 
L 398.487273 204.486991 
L 398.487273 204.486991 
" clip-path="url(#p6b73cff0af)" style="fill: none; stroke: #008000; stroke-opacity: 0.8; stroke-width: 0.5; stroke-linecap: square"/>
   </g>
   <g id="line2d_17">
    <path d="M 73.832727 145.245592 
L 75.954652 144.878429 
L 78.076578 160.519943 
L 80.198503 149.979396 
L 82.320428 179.821741 
L 84.442353 162.299055 
L 86.564278 150.557759 
L 88.686203 168.388361 
L 90.808128 86.358828 
L 92.930053 163.403372 
L 95.051979 180.230664 
L 97.173904 158.112009 
L 99.295829 162.347125 
L 101.417754 142.157201 
L 103.539679 171.775611 
L 105.661604 172.377169 
L 107.783529 147.719334 
L 109.905455 167.193055 
L 112.02738 167.36052 
L 114.149305 161.540082 
L 116.27123 163.585545 
L 118.393155 179.710091 
L 120.51508 163.150726 
L 122.637005 133.120566 
L 124.75893 167.578549 
L 126.880856 181.746081 
L 129.002781 170.744309 
L 131.124706 146.993777 
L 133.246631 176.96167 
L 135.368556 164.642546 
L 137.490481 173.431296 
L 139.612406 168.759753 
L 141.734332 187.004028 
L 143.856257 187.424974 
L 145.978182 172.810704 
L 148.100107 187.541739 
L 150.222032 164.169975 
L 152.343957 176.950836 
L 154.465882 161.743166 
L 156.587807 183.235017 
L 158.709733 169.280103 
L 160.831658 165.627113 
L 162.953583 172.322601 
L 165.075508 197.088848 
L 167.197433 188.471381 
L 169.319358 176.306436 
L 171.441283 181.603474 
L 173.563209 173.213599 
L 175.685134 179.149592 
L 177.807059 178.418968 
L 179.928984 181.010254 
L 182.050909 181.317714 
L 184.172834 182.348136 
L 186.294759 182.709515 
L 188.416684 55.744766 
L 190.53861 149.895172 
L 192.660535 163.724249 
L 194.78246 180.509276 
L 196.904385 171.494743 
L 199.02631 181.46053 
L 201.148235 163.680314 
L 203.27016 160.968956 
L 205.392086 177.923879 
L 207.514011 189.627803 
L 209.635936 155.232721 
L 211.757861 149.632967 
L 213.879786 162.778763 
L 216.001711 177.052869 
L 218.123636 163.484292 
L 220.245561 164.91691 
L 222.367487 168.489274 
L 224.489412 169.380549 
L 226.611337 190.462287 
L 228.733262 185.019956 
L 230.855187 174.935238 
L 232.977112 141.537655 
L 235.099037 160.699053 
L 237.220963 165.508566 
L 239.342888 180.19843 
L 241.464813 160.616241 
L 243.586738 170.072408 
L 245.708663 153.790597 
L 247.830588 194.162738 
L 249.952513 152.924625 
L 252.074439 169.069337 
L 254.196364 174.046081 
L 256.318289 164.3929 
L 258.440214 136.802164 
L 260.562139 180.202942 
L 262.684064 158.206461 
L 264.805989 159.836609 
L 266.927914 168.451294 
L 269.04984 193.955041 
L 271.171765 176.844652 
L 273.29369 161.433415 
L 275.415615 183.462023 
L 277.53754 140.322712 
L 281.78139 157.540028 
L 283.903316 177.45217 
L 286.025241 158.617636 
L 288.147166 168.20263 
L 290.269091 162.941129 
L 292.391016 156.14266 
L 294.512941 173.937194 
L 296.634866 112.177123 
L 298.756791 162.880895 
L 300.878717 159.844004 
L 303.000642 166.814877 
L 305.122567 156.732599 
L 307.244492 139.9682 
L 309.366417 167.151819 
L 311.488342 140.255937 
L 313.610267 167.729236 
L 315.732193 119.400323 
L 317.854118 147.17003 
L 319.976043 151.14446 
L 322.097968 157.023023 
L 324.219893 160.347785 
L 326.341818 131.688362 
L 328.463743 129.338012 
L 330.585668 143.987102 
L 332.707594 143.204754 
L 334.829519 170.760666 
L 336.951444 162.704614 
L 339.073369 180.317591 
L 341.195294 175.261647 
L 343.317219 138.254367 
L 345.439144 184.243276 
L 347.56107 146.326257 
L 349.682995 172.603664 
L 351.80492 169.242752 
L 353.926845 131.72687 
L 356.04877 151.947927 
L 358.170695 169.595049 
L 360.29262 162.338301 
L 362.414545 167.983658 
L 364.536471 172.974285 
L 366.658396 172.612885 
L 368.780321 177.250754 
L 370.902246 179.417973 
L 373.024171 168.710993 
L 375.146096 152.452331 
L 377.268021 181.507666 
L 379.389947 159.336867 
L 381.511872 155.556385 
L 383.633797 172.685353 
L 385.755722 160.086212 
L 387.877647 166.350064 
L 389.999572 180.516259 
L 392.121497 187.519554 
L 394.243422 162.932249 
L 396.365348 154.42538 
L 398.487273 180.644938 
L 398.487273 180.644938 
" clip-path="url(#p6b73cff0af)" style="fill: none; stroke: #32cd32; stroke-opacity: 0.8; stroke-width: 0.5; stroke-linecap: square"/>
   </g>
   <g id="line2d_18">
    <path d="M 73.832727 254.651514 
L 75.954652 246.306441 
L 78.076578 250.845702 
L 80.198503 252.5875 
L 82.320428 228.07257 
L 84.442353 225.981718 
L 86.564278 248.388683 
L 88.686203 276.639169 
L 90.808128 237.848915 
L 92.930053 232.415163 
L 95.051979 265.047644 
L 97.173904 245.491257 
L 99.295829 228.111675 
L 101.417754 247.523766 
L 103.539679 257.500571 
L 105.661604 253.843391 
L 107.783529 226.258242 
L 109.905455 231.102147 
L 112.02738 249.743726 
L 114.149305 243.663156 
L 116.27123 247.80863 
L 118.393155 230.681131 
L 120.51508 238.228699 
L 122.637005 252.735834 
L 124.75893 216.216403 
L 126.880856 253.892642 
L 129.002781 231.541985 
L 131.124706 216.297117 
L 133.246631 239.51916 
L 135.368556 225.146388 
L 137.490481 225.88761 
L 139.612406 222.920638 
L 141.734332 215.77726 
L 143.856257 226.297398 
L 145.978182 239.784185 
L 148.100107 247.453876 
L 150.222032 228.958253 
L 152.343957 218.010021 
L 154.465882 268.796808 
L 156.587807 233.534813 
L 158.709733 233.801648 
L 160.831658 237.974882 
L 162.953583 222.231474 
L 165.075508 229.563368 
L 167.197433 222.809615 
L 169.319358 220.641455 
L 171.441283 212.037902 
L 173.563209 233.030726 
L 175.685134 243.100351 
L 177.807059 221.023748 
L 179.928984 214.606149 
L 182.050909 233.195231 
L 184.172834 229.079854 
L 186.294759 282.127002 
L 188.416684 222.426735 
L 190.53861 281.95154 
L 192.660535 248.82485 
L 196.904385 225.93294 
L 199.02631 249.872377 
L 201.148235 250.576342 
L 203.27016 254.237787 
L 205.392086 235.196118 
L 207.514011 238.744978 
L 209.635936 259.663399 
L 211.757861 234.896437 
L 213.879786 249.087562 
L 216.001711 222.514152 
L 218.123636 233.095897 
L 220.245561 237.579726 
L 222.367487 231.698685 
L 224.489412 262.985066 
L 226.611337 230.322048 
L 228.733262 268.691658 
L 230.855187 231.912052 
L 232.977112 236.159356 
L 235.099037 231.674323 
L 237.220963 243.278947 
L 239.342888 234.104596 
L 241.464813 221.35003 
L 243.586738 245.249132 
L 245.708663 228.598306 
L 247.830588 229.88729 
L 252.074439 249.891547 
L 254.196364 234.821169 
L 256.318289 222.710431 
L 258.440214 228.189481 
L 260.562139 231.078849 
L 262.684064 231.095835 
L 264.805989 225.926266 
L 266.927914 231.704172 
L 269.04984 226.099472 
L 271.171765 209.772543 
L 273.29369 228.516052 
L 275.415615 235.872795 
L 277.53754 244.09241 
L 279.659465 223.870777 
L 281.78139 244.915067 
L 283.903316 238.264431 
L 286.025241 224.745171 
L 288.147166 231.590912 
L 290.269091 240.611924 
L 292.391016 270.399307 
L 294.512941 229.775844 
L 296.634866 221.081508 
L 298.756791 290.094874 
L 300.878717 252.951173 
L 303.000642 240.188054 
L 305.122567 231.657893 
L 307.244492 251.375288 
L 309.366417 259.506817 
L 311.488342 252.238137 
L 313.610267 249.501006 
L 315.732193 219.935231 
L 317.854118 247.929264 
L 319.976043 249.16009 
L 322.097968 248.601935 
L 324.219893 242.214931 
L 326.341818 252.585804 
L 330.585668 279.516116 
L 332.707594 266.599324 
L 334.829519 295.488 
L 336.951444 256.065187 
L 339.073369 255.240526 
L 341.195294 243.096063 
L 343.317219 269.832897 
L 345.439144 249.89156 
L 347.56107 278.158896 
L 349.682995 229.178987 
L 351.80492 248.891673 
L 353.926845 248.127446 
L 356.04877 250.400463 
L 358.170695 256.488537 
L 360.29262 236.841736 
L 362.414545 231.136258 
L 364.536471 226.986489 
L 368.780321 254.047411 
L 370.902246 242.081306 
L 373.024171 267.134778 
L 375.146096 227.500694 
L 377.268021 212.412387 
L 379.389947 234.713849 
L 381.511872 218.942352 
L 383.633797 231.845115 
L 385.755722 220.763506 
L 387.877647 242.554782 
L 389.999572 259.19284 
L 392.121497 289.904968 
L 394.243422 225.426539 
L 396.365348 255.973119 
L 398.487273 235.469122 
L 398.487273 235.469122 
" clip-path="url(#p6b73cff0af)" style="fill: none; stroke: #32cd32; stroke-opacity: 0.8; stroke-width: 0.5; stroke-linecap: square"/>
   </g>
   <g id="line2d_19">
    <path d="M 73.832727 205.017298 
L 75.954652 202.524694 
L 78.076578 204.339771 
L 80.198503 199.97997 
L 82.320428 207.31821 
L 84.442353 188.104615 
L 86.564278 198.89722 
L 88.686203 204.321295 
L 90.808128 200.32565 
L 92.930053 207.100141 
L 95.051979 210.549907 
L 97.173904 204.746131 
L 99.295829 199.400693 
L 101.417754 206.422535 
L 103.539679 208.058106 
L 105.661604 211.76145 
L 107.783529 191.135368 
L 109.905455 201.977943 
L 112.02738 202.822227 
L 114.149305 201.147554 
L 116.27123 208.037564 
L 118.393155 203.439959 
L 120.51508 207.345349 
L 122.637005 207.453106 
L 124.75893 194.544782 
L 126.880856 205.147366 
L 129.002781 204.594974 
L 131.124706 196.527225 
L 133.246631 212.459817 
L 135.368556 196.93869 
L 137.490481 204.478691 
L 139.612406 200.870419 
L 141.734332 203.724253 
L 145.978182 204.893964 
L 148.100107 210.622276 
L 150.222032 199.181832 
L 152.343957 196.785555 
L 154.465882 207.966571 
L 156.587807 201.582047 
L 158.709733 198.489308 
L 160.831658 204.146687 
L 162.953583 202.239895 
L 165.075508 211.359448 
L 167.197433 203.265287 
L 169.319358 198.018069 
L 171.441283 201.703198 
L 173.563209 208.659271 
L 175.685134 206.33361 
L 177.807059 199.871895 
L 179.928984 198.822354 
L 182.050909 200.148437 
L 184.172834 198.774971 
L 186.294759 230.050242 
L 188.416684 168.264045 
L 190.53861 209.359572 
L 192.660535 206.866551 
L 194.78246 208.498765 
L 196.904385 197.150982 
L 199.02631 217.959137 
L 201.148235 208.233391 
L 203.27016 201.587729 
L 205.392086 206.99832 
L 207.514011 218.43704 
L 209.635936 206.930537 
L 211.757861 201.95447 
L 213.879786 203.012698 
L 216.001711 202.012123 
L 218.123636 195.727852 
L 220.245561 201.808587 
L 222.367487 197.968295 
L 224.489412 212.025422 
L 226.611337 207.802814 
L 228.733262 209.087144 
L 232.977112 199.704923 
L 235.099037 200.842578 
L 237.220963 195.910825 
L 239.342888 205.891699 
L 241.464813 191.872852 
L 243.586738 199.951015 
L 245.708663 197.373954 
L 247.830588 212.129738 
L 249.952513 205.000278 
L 252.074439 207.801483 
L 254.196364 203.672764 
L 256.318289 197.849711 
L 258.440214 194.056149 
L 260.562139 199.138055 
L 262.684064 197.85123 
L 264.805989 201.651967 
L 266.927914 200.322016 
L 269.04984 211.987555 
L 271.171765 194.743775 
L 273.29369 197.153126 
L 275.415615 202.819696 
L 277.53754 201.277474 
L 279.659465 197.686096 
L 281.78139 197.534534 
L 283.903316 204.858038 
L 286.025241 203.97653 
L 288.147166 204.991717 
L 290.269091 202.385821 
L 292.391016 208.615516 
L 294.512941 195.865976 
L 296.634866 181.982479 
L 298.756791 212.253065 
L 300.878717 203.831134 
L 303.000642 193.318429 
L 305.122567 190.541289 
L 307.244492 197.891503 
L 309.366417 220.31916 
L 311.488342 191.855834 
L 313.610267 208.341762 
L 315.732193 184.704159 
L 317.854118 205.794042 
L 319.976043 203.522387 
L 322.097968 197.26695 
L 324.219893 198.793241 
L 326.341818 209.887887 
L 328.463743 193.718424 
L 330.585668 201.834012 
L 332.707594 214.752661 
L 334.829519 221.632595 
L 336.951444 203.41947 
L 339.073369 210.341459 
L 341.195294 210.035963 
L 343.317219 202.502582 
L 345.439144 212.408762 
L 347.56107 199.13961 
L 349.682995 197.925216 
L 351.80492 200.463963 
L 353.926845 205.296393 
L 356.04877 208.763599 
L 358.170695 211.679422 
L 360.29262 203.656545 
L 362.414545 194.827531 
L 364.536471 196.700935 
L 366.658396 204.645223 
L 368.780321 210.227127 
L 370.902246 205.842504 
L 373.024171 209.063697 
L 375.146096 196.750122 
L 377.268021 196.608955 
L 379.389947 198.078195 
L 381.511872 197.884867 
L 383.633797 198.16245 
L 385.755722 200.920007 
L 389.999572 209.977556 
L 392.121497 215.656653 
L 394.243422 194.479026 
L 396.365348 215.472951 
L 398.487273 204.712569 
L 398.487273 204.712569 
" clip-path="url(#p6b73cff0af)" style="fill: none; stroke: #ff0000; stroke-opacity: 0.8; stroke-width: 0.5; stroke-linecap: square"/>
   </g>
   <g id="line2d_20">
    <path d="M 73.832727 148.445397 
L 75.954652 144.563199 
L 78.076578 161.701142 
L 80.198503 150.200825 
L 82.320428 179.64663 
L 84.442353 162.305213 
L 86.564278 153.361937 
L 88.686203 167.091432 
L 90.808128 87.33318 
L 92.930053 161.686593 
L 95.051979 179.411692 
L 97.173904 158.610725 
L 99.295829 162.22825 
L 101.417754 141.458839 
L 103.539679 171.630505 
L 105.661604 171.988849 
L 107.783529 147.26573 
L 109.905455 166.328201 
L 112.02738 168.882087 
L 114.149305 160.500473 
L 116.27123 161.849685 
L 118.393155 178.341267 
L 120.51508 162.337509 
L 122.637005 132.259679 
L 124.75893 167.428399 
L 126.880856 182.581942 
L 129.002781 170.008302 
L 131.124706 147.128015 
L 133.246631 177.412409 
L 135.368556 164.598351 
L 137.490481 173.88039 
L 139.612406 169.459937 
L 141.734332 187.492856 
L 143.856257 189.48482 
L 145.978182 172.505767 
L 148.100107 184.900474 
L 150.222032 165.018204 
L 152.343957 176.598116 
L 154.465882 161.717614 
L 156.587807 182.853835 
L 158.709733 169.600792 
L 160.831658 163.62725 
L 162.953583 172.578978 
L 165.075508 194.776677 
L 167.197433 189.525909 
L 169.319358 176.633275 
L 171.441283 182.743306 
L 173.563209 172.728716 
L 175.685134 180.98032 
L 177.807059 177.68539 
L 179.928984 180.894078 
L 182.050909 181.012397 
L 184.172834 181.850017 
L 186.294759 182.27891 
L 188.416684 53.568 
L 190.53861 145.534476 
L 194.78246 181.294444 
L 196.904385 171.314704 
L 199.02631 180.508793 
L 201.148235 164.876747 
L 203.27016 166.890255 
L 205.392086 177.351789 
L 207.514011 189.028588 
L 209.635936 153.368352 
L 211.757861 150.088632 
L 213.879786 164.435623 
L 216.001711 175.804079 
L 218.123636 162.862185 
L 222.367487 167.581152 
L 224.489412 165.78954 
L 226.611337 189.628267 
L 228.733262 185.153764 
L 230.855187 176.243478 
L 232.977112 141.848475 
L 235.099037 160.589881 
L 237.220963 164.447239 
L 239.342888 180.961339 
L 241.464813 161.248048 
L 243.586738 165.971442 
L 245.708663 156.288708 
L 247.830588 193.641603 
L 249.952513 152.364948 
L 252.074439 169.650332 
L 254.196364 173.695605 
L 256.318289 164.361083 
L 258.440214 136.783964 
L 260.562139 179.865784 
L 262.684064 158.254123 
L 264.805989 160.33613 
L 266.927914 169.148274 
L 269.04984 193.466534 
L 271.171765 176.723002 
L 273.29369 161.106858 
L 275.415615 183.998384 
L 277.53754 140.877042 
L 279.659465 148.118733 
L 281.78139 157.445011 
L 283.903316 178.468748 
L 286.025241 158.669636 
L 288.147166 168.699359 
L 290.269091 163.015312 
L 292.391016 156.631845 
L 294.512941 174.248011 
L 296.634866 109.663629 
L 298.756791 165.972133 
L 300.878717 155.592105 
L 303.000642 166.587877 
L 305.122567 156.129229 
L 307.244492 138.107047 
L 309.366417 166.984301 
L 311.488342 139.903417 
L 313.610267 167.785392 
L 315.732193 117.2186 
L 317.854118 145.607356 
L 319.976043 152.095194 
L 322.097968 157.814574 
L 324.219893 158.082019 
L 326.341818 128.352003 
L 328.463743 129.865066 
L 330.585668 142.130793 
L 332.707594 142.481618 
L 334.829519 166.46779 
L 336.951444 159.742552 
L 339.073369 176.722713 
L 341.195294 177.30973 
L 343.317219 136.537601 
L 345.439144 184.252795 
L 347.56107 148.859862 
L 349.682995 171.329936 
L 351.80492 168.597174 
L 353.926845 130.722885 
L 356.04877 153.226968 
L 358.170695 166.492176 
L 360.29262 162.119509 
L 362.414545 167.384389 
L 364.536471 171.42437 
L 366.658396 172.292424 
L 368.780321 176.977792 
L 370.902246 179.317046 
L 373.024171 168.026214 
L 375.146096 153.030894 
L 377.268021 181.021706 
L 379.389947 159.189062 
L 381.511872 155.495694 
L 383.633797 171.464977 
L 385.755722 159.345823 
L 387.877647 166.855073 
L 389.999572 181.675244 
L 392.121497 187.633294 
L 394.243422 162.70785 
L 396.365348 154.251154 
L 398.487273 182.678214 
L 398.487273 182.678214 
" clip-path="url(#p6b73cff0af)" style="fill: none; stroke: #f08080; stroke-opacity: 0.8; stroke-width: 0.5; stroke-linecap: square"/>
   </g>
   <g id="line2d_21">
    <path d="M 73.832727 253.600097 
L 75.954652 247.246177 
L 78.076578 252.439274 
L 80.198503 254.316615 
L 82.320428 229.834788 
L 84.442353 227.237308 
L 86.564278 243.669764 
L 88.686203 272.432664 
L 90.808128 236.275052 
L 92.930053 235.60255 
L 95.051979 265.043612 
L 97.173904 249.056834 
L 99.295829 229.094727 
L 101.417754 244.932335 
L 103.539679 258.546645 
L 105.661604 253.147577 
L 107.783529 226.947978 
L 109.905455 233.435507 
L 112.02738 248.59148 
L 114.149305 244.076205 
L 116.27123 249.110142 
L 118.393155 229.502738 
L 120.51508 238.407629 
L 122.637005 251.954866 
L 124.75893 216.094437 
L 126.880856 253.248484 
L 129.002781 231.855994 
L 131.124706 216.880583 
L 133.246631 239.60381 
L 135.368556 226.194873 
L 137.490481 226.250282 
L 139.612406 221.712783 
L 141.734332 216.140904 
L 143.856257 225.450378 
L 145.978182 239.88277 
L 148.100107 247.474935 
L 150.222032 230.057387 
L 152.343957 219.633811 
L 154.465882 271.342712 
L 156.587807 234.219785 
L 158.709733 234.027291 
L 160.831658 237.958017 
L 162.953583 221.662527 
L 165.075508 229.510821 
L 167.197433 222.944277 
L 169.319358 220.991803 
L 171.441283 212.690564 
L 173.563209 233.699917 
L 175.685134 243.523363 
L 177.807059 220.632136 
L 179.928984 214.775561 
L 182.050909 233.98163 
L 184.172834 229.128427 
L 186.294759 283.186655 
L 188.416684 222.254831 
L 190.53861 282.14882 
L 192.660535 248.892889 
L 196.904385 225.39947 
L 199.02631 250.095469 
L 201.148235 250.401634 
L 203.27016 252.730085 
L 205.392086 235.954841 
L 207.514011 238.54676 
L 209.635936 259.599001 
L 211.757861 234.89817 
L 213.879786 249.999317 
L 216.001711 223.522909 
L 218.123636 233.11013 
L 220.245561 239.201117 
L 222.367487 231.568465 
L 224.489412 261.261532 
L 226.611337 230.253213 
L 228.733262 268.009313 
L 230.855187 232.156102 
L 232.977112 235.549647 
L 235.099037 231.987935 
L 237.220963 243.251959 
L 239.342888 234.950379 
L 241.464813 220.061527 
L 243.586738 242.183921 
L 245.708663 230.036773 
L 247.830588 230.363539 
L 249.952513 239.749616 
L 252.074439 252.095759 
L 254.196364 234.839752 
L 256.318289 222.534283 
L 258.440214 221.874021 
L 260.562139 230.001751 
L 262.684064 231.392899 
L 264.805989 224.907583 
L 266.927914 231.813111 
L 269.04984 225.866381 
L 271.171765 210.165904 
L 273.29369 228.526183 
L 275.415615 236.004704 
L 277.53754 244.63532 
L 279.659465 224.238561 
L 281.78139 247.312589 
L 283.903316 237.666824 
L 286.025241 224.661655 
L 290.269091 239.772343 
L 292.391016 266.760074 
L 294.512941 228.125185 
L 296.634866 220.488884 
L 298.756791 290.694595 
L 300.878717 251.948863 
L 303.000642 238.798674 
L 305.122567 231.417166 
L 307.244492 251.125371 
L 309.366417 260.66536 
L 311.488342 251.902993 
L 313.610267 248.189603 
L 315.732193 218.891272 
L 317.854118 244.790978 
L 319.976043 249.955899 
L 322.097968 249.777078 
L 324.219893 242.870181 
L 326.341818 252.536248 
L 330.585668 279.679672 
L 332.707594 267.594601 
L 334.829519 293.108846 
L 336.951444 255.653673 
L 339.073369 255.057005 
L 341.195294 243.416152 
L 343.317219 269.333188 
L 345.439144 248.330701 
L 347.56107 277.828583 
L 349.682995 228.966649 
L 351.80492 250.107092 
L 353.926845 252.261687 
L 356.04877 250.09447 
L 358.170695 257.141214 
L 360.29262 236.280742 
L 362.414545 231.582476 
L 364.536471 226.384411 
L 366.658396 240.583303 
L 368.780321 253.956566 
L 370.902246 241.871194 
L 373.024171 265.582592 
L 375.146096 228.157171 
L 377.268021 212.211189 
L 379.389947 234.227235 
L 381.511872 219.030317 
L 383.633797 231.413031 
L 385.755722 222.797468 
L 387.877647 242.646334 
L 389.999572 259.417208 
L 392.121497 289.690394 
L 394.243422 225.602079 
L 396.365348 256.004809 
L 398.487273 234.698872 
L 398.487273 234.698872 
" clip-path="url(#p6b73cff0af)" style="fill: none; stroke: #f08080; stroke-opacity: 0.8; stroke-width: 0.5; stroke-linecap: square"/>
   </g>
   <g id="patch_3">
    <path d="M 57.6 307.584 
L 57.6 41.472 
" style="fill: none; stroke: #000000; stroke-width: 0.8; stroke-linejoin: miter; stroke-linecap: square"/>
   </g>
   <g id="patch_4">
    <path d="M 414.72 307.584 
L 414.72 41.472 
" style="fill: none; stroke: #000000; stroke-width: 0.8; stroke-linejoin: miter; stroke-linecap: square"/>
   </g>
   <g id="patch_5">
    <path d="M 57.6 307.584 
L 414.72 307.584 
" style="fill: none; stroke: #000000; stroke-width: 0.8; stroke-linejoin: miter; stroke-linecap: square"/>
   </g>
   <g id="patch_6">
    <path d="M 57.6 41.472 
L 414.72 41.472 
" style="fill: none; stroke: #000000; stroke-width: 0.8; stroke-linejoin: miter; stroke-linecap: square"/>
   </g>
   <g id="text_16">
    <!-- 1final_zhangext_pr_eurusd -->
    <g transform="translate(155.713125 35.472) scale(0.12 -0.12)">
     <defs>
      <path id="DejaVuSans-66" d="M 2375 4863 
L 2375 4384 
L 1825 4384 
Q 1516 4384 1395 4259 
Q 1275 4134 1275 3809 
L 1275 3500 
L 2222 3500 
L 2222 3053 
L 1275 3053 
L 1275 0 
L 697 0 
L 697 3053 
L 147 3053 
L 147 3500 
L 697 3500 
L 697 3744 
Q 697 4328 969 4595 
Q 1241 4863 1831 4863 
L 2375 4863 
z
" transform="scale(0.015625)"/>
      <path id="DejaVuSans-69" d="M 603 3500 
L 1178 3500 
L 1178 0 
L 603 0 
L 603 3500 
z
M 603 4863 
L 1178 4863 
L 1178 4134 
L 603 4134 
L 603 4863 
z
" transform="scale(0.015625)"/>
      <path id="DejaVuSans-6e" d="M 3513 2113 
L 3513 0 
L 2938 0 
L 2938 2094 
Q 2938 2591 2744 2837 
Q 2550 3084 2163 3084 
Q 1697 3084 1428 2787 
Q 1159 2491 1159 1978 
L 1159 0 
L 581 0 
L 581 3500 
L 1159 3500 
L 1159 2956 
Q 1366 3272 1645 3428 
Q 1925 3584 2291 3584 
Q 2894 3584 3203 3211 
Q 3513 2838 3513 2113 
z
" transform="scale(0.015625)"/>
      <path id="DejaVuSans-61" d="M 2194 1759 
Q 1497 1759 1228 1600 
Q 959 1441 959 1056 
Q 959 750 1161 570 
Q 1363 391 1709 391 
Q 2188 391 2477 730 
Q 2766 1069 2766 1631 
L 2766 1759 
L 2194 1759 
z
M 3341 1997 
L 3341 0 
L 2766 0 
L 2766 531 
Q 2569 213 2275 61 
Q 1981 -91 1556 -91 
Q 1019 -91 701 211 
Q 384 513 384 1019 
Q 384 1609 779 1909 
Q 1175 2209 1959 2209 
L 2766 2209 
L 2766 2266 
Q 2766 2663 2505 2880 
Q 2244 3097 1772 3097 
Q 1472 3097 1187 3025 
Q 903 2953 641 2809 
L 641 3341 
Q 956 3463 1253 3523 
Q 1550 3584 1831 3584 
Q 2591 3584 2966 3190 
Q 3341 2797 3341 1997 
z
" transform="scale(0.015625)"/>
      <path id="DejaVuSans-6c" d="M 603 4863 
L 1178 4863 
L 1178 0 
L 603 0 
L 603 4863 
z
" transform="scale(0.015625)"/>
      <path id="DejaVuSans-5f" d="M 3263 -1063 
L 3263 -1509 
L -63 -1509 
L -63 -1063 
L 3263 -1063 
z
" transform="scale(0.015625)"/>
      <path id="DejaVuSans-7a" d="M 353 3500 
L 3084 3500 
L 3084 2975 
L 922 459 
L 3084 459 
L 3084 0 
L 275 0 
L 275 525 
L 2438 3041 
L 353 3041 
L 353 3500 
z
" transform="scale(0.015625)"/>
      <path id="DejaVuSans-68" d="M 3513 2113 
L 3513 0 
L 2938 0 
L 2938 2094 
Q 2938 2591 2744 2837 
Q 2550 3084 2163 3084 
Q 1697 3084 1428 2787 
Q 1159 2491 1159 1978 
L 1159 0 
L 581 0 
L 581 4863 
L 1159 4863 
L 1159 2956 
Q 1366 3272 1645 3428 
Q 1925 3584 2291 3584 
Q 2894 3584 3203 3211 
Q 3513 2838 3513 2113 
z
" transform="scale(0.015625)"/>
      <path id="DejaVuSans-67" d="M 2906 1791 
Q 2906 2416 2648 2759 
Q 2391 3103 1925 3103 
Q 1463 3103 1205 2759 
Q 947 2416 947 1791 
Q 947 1169 1205 825 
Q 1463 481 1925 481 
Q 2391 481 2648 825 
Q 2906 1169 2906 1791 
z
M 3481 434 
Q 3481 -459 3084 -895 
Q 2688 -1331 1869 -1331 
Q 1566 -1331 1297 -1286 
Q 1028 -1241 775 -1147 
L 775 -588 
Q 1028 -725 1275 -790 
Q 1522 -856 1778 -856 
Q 2344 -856 2625 -561 
Q 2906 -266 2906 331 
L 2906 616 
Q 2728 306 2450 153 
Q 2172 0 1784 0 
Q 1141 0 747 490 
Q 353 981 353 1791 
Q 353 2603 747 3093 
Q 1141 3584 1784 3584 
Q 2172 3584 2450 3431 
Q 2728 3278 2906 2969 
L 2906 3500 
L 3481 3500 
L 3481 434 
z
" transform="scale(0.015625)"/>
      <path id="DejaVuSans-65" d="M 3597 1894 
L 3597 1613 
L 953 1613 
Q 991 1019 1311 708 
Q 1631 397 2203 397 
Q 2534 397 2845 478 
Q 3156 559 3463 722 
L 3463 178 
Q 3153 47 2828 -22 
Q 2503 -91 2169 -91 
Q 1331 -91 842 396 
Q 353 884 353 1716 
Q 353 2575 817 3079 
Q 1281 3584 2069 3584 
Q 2775 3584 3186 3129 
Q 3597 2675 3597 1894 
z
M 3022 2063 
Q 3016 2534 2758 2815 
Q 2500 3097 2075 3097 
Q 1594 3097 1305 2825 
Q 1016 2553 972 2059 
L 3022 2063 
z
" transform="scale(0.015625)"/>
      <path id="DejaVuSans-78" d="M 3513 3500 
L 2247 1797 
L 3578 0 
L 2900 0 
L 1881 1375 
L 863 0 
L 184 0 
L 1544 1831 
L 300 3500 
L 978 3500 
L 1906 2253 
L 2834 3500 
L 3513 3500 
z
" transform="scale(0.015625)"/>
      <path id="DejaVuSans-74" d="M 1172 4494 
L 1172 3500 
L 2356 3500 
L 2356 3053 
L 1172 3053 
L 1172 1153 
Q 1172 725 1289 603 
Q 1406 481 1766 481 
L 2356 481 
L 2356 0 
L 1766 0 
Q 1100 0 847 248 
Q 594 497 594 1153 
L 594 3053 
L 172 3053 
L 172 3500 
L 594 3500 
L 594 4494 
L 1172 4494 
z
" transform="scale(0.015625)"/>
      <path id="DejaVuSans-70" d="M 1159 525 
L 1159 -1331 
L 581 -1331 
L 581 3500 
L 1159 3500 
L 1159 2969 
Q 1341 3281 1617 3432 
Q 1894 3584 2278 3584 
Q 2916 3584 3314 3078 
Q 3713 2572 3713 1747 
Q 3713 922 3314 415 
Q 2916 -91 2278 -91 
Q 1894 -91 1617 61 
Q 1341 213 1159 525 
z
M 3116 1747 
Q 3116 2381 2855 2742 
Q 2594 3103 2138 3103 
Q 1681 3103 1420 2742 
Q 1159 2381 1159 1747 
Q 1159 1113 1420 752 
Q 1681 391 2138 391 
Q 2594 391 2855 752 
Q 3116 1113 3116 1747 
z
" transform="scale(0.015625)"/>
      <path id="DejaVuSans-72" d="M 2631 2963 
Q 2534 3019 2420 3045 
Q 2306 3072 2169 3072 
Q 1681 3072 1420 2755 
Q 1159 2438 1159 1844 
L 1159 0 
L 581 0 
L 581 3500 
L 1159 3500 
L 1159 2956 
Q 1341 3275 1631 3429 
Q 1922 3584 2338 3584 
Q 2397 3584 2469 3576 
Q 2541 3569 2628 3553 
L 2631 2963 
z
" transform="scale(0.015625)"/>
      <path id="DejaVuSans-75" d="M 544 1381 
L 544 3500 
L 1119 3500 
L 1119 1403 
Q 1119 906 1312 657 
Q 1506 409 1894 409 
Q 2359 409 2629 706 
Q 2900 1003 2900 1516 
L 2900 3500 
L 3475 3500 
L 3475 0 
L 2900 0 
L 2900 538 
Q 2691 219 2414 64 
Q 2138 -91 1772 -91 
Q 1169 -91 856 284 
Q 544 659 544 1381 
z
M 1991 3584 
L 1991 3584 
z
" transform="scale(0.015625)"/>
      <path id="DejaVuSans-73" d="M 2834 3397 
L 2834 2853 
Q 2591 2978 2328 3040 
Q 2066 3103 1784 3103 
Q 1356 3103 1142 2972 
Q 928 2841 928 2578 
Q 928 2378 1081 2264 
Q 1234 2150 1697 2047 
L 1894 2003 
Q 2506 1872 2764 1633 
Q 3022 1394 3022 966 
Q 3022 478 2636 193 
Q 2250 -91 1575 -91 
Q 1294 -91 989 -36 
Q 684 19 347 128 
L 347 722 
Q 666 556 975 473 
Q 1284 391 1588 391 
Q 1994 391 2212 530 
Q 2431 669 2431 922 
Q 2431 1156 2273 1281 
Q 2116 1406 1581 1522 
L 1381 1569 
Q 847 1681 609 1914 
Q 372 2147 372 2553 
Q 372 3047 722 3315 
Q 1072 3584 1716 3584 
Q 2034 3584 2315 3537 
Q 2597 3491 2834 3397 
z
" transform="scale(0.015625)"/>
      <path id="DejaVuSans-64" d="M 2906 2969 
L 2906 4863 
L 3481 4863 
L 3481 0 
L 2906 0 
L 2906 525 
Q 2725 213 2448 61 
Q 2172 -91 1784 -91 
Q 1150 -91 751 415 
Q 353 922 353 1747 
Q 353 2572 751 3078 
Q 1150 3584 1784 3584 
Q 2172 3584 2448 3432 
Q 2725 3281 2906 2969 
z
M 947 1747 
Q 947 1113 1208 752 
Q 1469 391 1925 391 
Q 2381 391 2643 752 
Q 2906 1113 2906 1747 
Q 2906 2381 2643 2742 
Q 2381 3103 1925 3103 
Q 1469 3103 1208 2742 
Q 947 2381 947 1747 
z
" transform="scale(0.015625)"/>
     </defs>
     <use xlink:href="#DejaVuSans-31"/>
     <use xlink:href="#DejaVuSans-66" x="63.623047"/>
     <use xlink:href="#DejaVuSans-69" x="98.828125"/>
     <use xlink:href="#DejaVuSans-6e" x="126.611328"/>
     <use xlink:href="#DejaVuSans-61" x="189.990234"/>
     <use xlink:href="#DejaVuSans-6c" x="251.269531"/>
     <use xlink:href="#DejaVuSans-5f" x="279.052734"/>
     <use xlink:href="#DejaVuSans-7a" x="329.052734"/>
     <use xlink:href="#DejaVuSans-68" x="381.542969"/>
     <use xlink:href="#DejaVuSans-61" x="444.921875"/>
     <use xlink:href="#DejaVuSans-6e" x="506.201172"/>
     <use xlink:href="#DejaVuSans-67" x="569.580078"/>
     <use xlink:href="#DejaVuSans-65" x="633.056641"/>
     <use xlink:href="#DejaVuSans-78" x="692.830078"/>
     <use xlink:href="#DejaVuSans-74" x="752.009766"/>
     <use xlink:href="#DejaVuSans-5f" x="791.21875"/>
     <use xlink:href="#DejaVuSans-70" x="841.21875"/>
     <use xlink:href="#DejaVuSans-72" x="904.695312"/>
     <use xlink:href="#DejaVuSans-5f" x="945.808594"/>
     <use xlink:href="#DejaVuSans-65" x="995.808594"/>
     <use xlink:href="#DejaVuSans-75" x="1057.332031"/>
     <use xlink:href="#DejaVuSans-72" x="1120.710938"/>
     <use xlink:href="#DejaVuSans-75" x="1161.824219"/>
     <use xlink:href="#DejaVuSans-73" x="1225.203125"/>
     <use xlink:href="#DejaVuSans-64" x="1277.302734"/>
    </g>
   </g>
   <g id="legend_1">
    <g id="patch_7">
     <path d="M 64.6 137.54075 
L 225.001563 137.54075 
Q 227.001563 137.54075 227.001563 135.54075 
L 227.001563 48.472 
Q 227.001563 46.472 225.001563 46.472 
L 64.6 46.472 
Q 62.6 46.472 62.6 48.472 
L 62.6 135.54075 
Q 62.6 137.54075 64.6 137.54075 
z
" style="fill: #ffffff; opacity: 0.8; stroke: #cccccc; stroke-linejoin: miter"/>
    </g>
    <g id="line2d_22">
     <path d="M 66.6 54.570438 
L 76.6 54.570438 
L 86.6 54.570438 
" style="fill: none; stroke: #008000; stroke-opacity: 0.8; stroke-width: 0.5; stroke-linecap: square"/>
    </g>
    <g id="text_17">
     <!-- Positive predictions -->
     <g transform="translate(94.6 58.070438) scale(0.1 -0.1)">
      <defs>
       <path id="DejaVuSans-50" d="M 1259 4147 
L 1259 2394 
L 2053 2394 
Q 2494 2394 2734 2622 
Q 2975 2850 2975 3272 
Q 2975 3691 2734 3919 
Q 2494 4147 2053 4147 
L 1259 4147 
z
M 628 4666 
L 2053 4666 
Q 2838 4666 3239 4311 
Q 3641 3956 3641 3272 
Q 3641 2581 3239 2228 
Q 2838 1875 2053 1875 
L 1259 1875 
L 1259 0 
L 628 0 
L 628 4666 
z
" transform="scale(0.015625)"/>
       <path id="DejaVuSans-6f" d="M 1959 3097 
Q 1497 3097 1228 2736 
Q 959 2375 959 1747 
Q 959 1119 1226 758 
Q 1494 397 1959 397 
Q 2419 397 2687 759 
Q 2956 1122 2956 1747 
Q 2956 2369 2687 2733 
Q 2419 3097 1959 3097 
z
M 1959 3584 
Q 2709 3584 3137 3096 
Q 3566 2609 3566 1747 
Q 3566 888 3137 398 
Q 2709 -91 1959 -91 
Q 1206 -91 779 398 
Q 353 888 353 1747 
Q 353 2609 779 3096 
Q 1206 3584 1959 3584 
z
" transform="scale(0.015625)"/>
       <path id="DejaVuSans-76" d="M 191 3500 
L 800 3500 
L 1894 563 
L 2988 3500 
L 3597 3500 
L 2284 0 
L 1503 0 
L 191 3500 
z
" transform="scale(0.015625)"/>
       <path id="DejaVuSans-20" transform="scale(0.015625)"/>
       <path id="DejaVuSans-63" d="M 3122 3366 
L 3122 2828 
Q 2878 2963 2633 3030 
Q 2388 3097 2138 3097 
Q 1578 3097 1268 2742 
Q 959 2388 959 1747 
Q 959 1106 1268 751 
Q 1578 397 2138 397 
Q 2388 397 2633 464 
Q 2878 531 3122 666 
L 3122 134 
Q 2881 22 2623 -34 
Q 2366 -91 2075 -91 
Q 1284 -91 818 406 
Q 353 903 353 1747 
Q 353 2603 823 3093 
Q 1294 3584 2113 3584 
Q 2378 3584 2631 3529 
Q 2884 3475 3122 3366 
z
" transform="scale(0.015625)"/>
      </defs>
      <use xlink:href="#DejaVuSans-50"/>
      <use xlink:href="#DejaVuSans-6f" x="56.677734"/>
      <use xlink:href="#DejaVuSans-73" x="117.859375"/>
      <use xlink:href="#DejaVuSans-69" x="169.958984"/>
      <use xlink:href="#DejaVuSans-74" x="197.742188"/>
      <use xlink:href="#DejaVuSans-69" x="236.951172"/>
      <use xlink:href="#DejaVuSans-76" x="264.734375"/>
      <use xlink:href="#DejaVuSans-65" x="323.914062"/>
      <use xlink:href="#DejaVuSans-20" x="385.4375"/>
      <use xlink:href="#DejaVuSans-70" x="417.224609"/>
      <use xlink:href="#DejaVuSans-72" x="480.701172"/>
      <use xlink:href="#DejaVuSans-65" x="519.564453"/>
      <use xlink:href="#DejaVuSans-64" x="581.087891"/>
      <use xlink:href="#DejaVuSans-69" x="644.564453"/>
      <use xlink:href="#DejaVuSans-63" x="672.347656"/>
      <use xlink:href="#DejaVuSans-74" x="727.328125"/>
      <use xlink:href="#DejaVuSans-69" x="766.537109"/>
      <use xlink:href="#DejaVuSans-6f" x="794.320312"/>
      <use xlink:href="#DejaVuSans-6e" x="855.501953"/>
      <use xlink:href="#DejaVuSans-73" x="918.880859"/>
     </g>
    </g>
    <g id="line2d_23">
     <path d="M 66.6 69.248563 
L 76.6 69.248563 
L 86.6 69.248563 
" style="fill: none; stroke: #32cd32; stroke-opacity: 0.8; stroke-width: 0.5; stroke-linecap: square"/>
    </g>
    <g id="text_18">
     <!-- Positive predictions max -->
     <g transform="translate(94.6 72.748563) scale(0.1 -0.1)">
      <defs>
       <path id="DejaVuSans-6d" d="M 3328 2828 
Q 3544 3216 3844 3400 
Q 4144 3584 4550 3584 
Q 5097 3584 5394 3201 
Q 5691 2819 5691 2113 
L 5691 0 
L 5113 0 
L 5113 2094 
Q 5113 2597 4934 2840 
Q 4756 3084 4391 3084 
Q 3944 3084 3684 2787 
Q 3425 2491 3425 1978 
L 3425 0 
L 2847 0 
L 2847 2094 
Q 2847 2600 2669 2842 
Q 2491 3084 2119 3084 
Q 1678 3084 1418 2786 
Q 1159 2488 1159 1978 
L 1159 0 
L 581 0 
L 581 3500 
L 1159 3500 
L 1159 2956 
Q 1356 3278 1631 3431 
Q 1906 3584 2284 3584 
Q 2666 3584 2933 3390 
Q 3200 3197 3328 2828 
z
" transform="scale(0.015625)"/>
      </defs>
      <use xlink:href="#DejaVuSans-50"/>
      <use xlink:href="#DejaVuSans-6f" x="56.677734"/>
      <use xlink:href="#DejaVuSans-73" x="117.859375"/>
      <use xlink:href="#DejaVuSans-69" x="169.958984"/>
      <use xlink:href="#DejaVuSans-74" x="197.742188"/>
      <use xlink:href="#DejaVuSans-69" x="236.951172"/>
      <use xlink:href="#DejaVuSans-76" x="264.734375"/>
      <use xlink:href="#DejaVuSans-65" x="323.914062"/>
      <use xlink:href="#DejaVuSans-20" x="385.4375"/>
      <use xlink:href="#DejaVuSans-70" x="417.224609"/>
      <use xlink:href="#DejaVuSans-72" x="480.701172"/>
      <use xlink:href="#DejaVuSans-65" x="519.564453"/>
      <use xlink:href="#DejaVuSans-64" x="581.087891"/>
      <use xlink:href="#DejaVuSans-69" x="644.564453"/>
      <use xlink:href="#DejaVuSans-63" x="672.347656"/>
      <use xlink:href="#DejaVuSans-74" x="727.328125"/>
      <use xlink:href="#DejaVuSans-69" x="766.537109"/>
      <use xlink:href="#DejaVuSans-6f" x="794.320312"/>
      <use xlink:href="#DejaVuSans-6e" x="855.501953"/>
      <use xlink:href="#DejaVuSans-73" x="918.880859"/>
      <use xlink:href="#DejaVuSans-20" x="970.980469"/>
      <use xlink:href="#DejaVuSans-6d" x="1002.767578"/>
      <use xlink:href="#DejaVuSans-61" x="1100.179688"/>
      <use xlink:href="#DejaVuSans-78" x="1161.458984"/>
     </g>
    </g>
    <g id="line2d_24">
     <path d="M 66.6 83.926688 
L 76.6 83.926688 
L 86.6 83.926688 
" style="fill: none; stroke: #32cd32; stroke-opacity: 0.8; stroke-width: 0.5; stroke-linecap: square"/>
    </g>
    <g id="text_19">
     <!-- Positive predictions min -->
     <g transform="translate(94.6 87.426688) scale(0.1 -0.1)">
      <use xlink:href="#DejaVuSans-50"/>
      <use xlink:href="#DejaVuSans-6f" x="56.677734"/>
      <use xlink:href="#DejaVuSans-73" x="117.859375"/>
      <use xlink:href="#DejaVuSans-69" x="169.958984"/>
      <use xlink:href="#DejaVuSans-74" x="197.742188"/>
      <use xlink:href="#DejaVuSans-69" x="236.951172"/>
      <use xlink:href="#DejaVuSans-76" x="264.734375"/>
      <use xlink:href="#DejaVuSans-65" x="323.914062"/>
      <use xlink:href="#DejaVuSans-20" x="385.4375"/>
      <use xlink:href="#DejaVuSans-70" x="417.224609"/>
      <use xlink:href="#DejaVuSans-72" x="480.701172"/>
      <use xlink:href="#DejaVuSans-65" x="519.564453"/>
      <use xlink:href="#DejaVuSans-64" x="581.087891"/>
      <use xlink:href="#DejaVuSans-69" x="644.564453"/>
      <use xlink:href="#DejaVuSans-63" x="672.347656"/>
      <use xlink:href="#DejaVuSans-74" x="727.328125"/>
      <use xlink:href="#DejaVuSans-69" x="766.537109"/>
      <use xlink:href="#DejaVuSans-6f" x="794.320312"/>
      <use xlink:href="#DejaVuSans-6e" x="855.501953"/>
      <use xlink:href="#DejaVuSans-73" x="918.880859"/>
      <use xlink:href="#DejaVuSans-20" x="970.980469"/>
      <use xlink:href="#DejaVuSans-6d" x="1002.767578"/>
      <use xlink:href="#DejaVuSans-69" x="1100.179688"/>
      <use xlink:href="#DejaVuSans-6e" x="1127.962891"/>
     </g>
    </g>
    <g id="line2d_25">
     <path d="M 66.6 98.604813 
L 76.6 98.604813 
L 86.6 98.604813 
" style="fill: none; stroke: #ff0000; stroke-opacity: 0.8; stroke-width: 0.5; stroke-linecap: square"/>
    </g>
    <g id="text_20">
     <!-- Negative predictions -->
     <g transform="translate(94.6 102.104813) scale(0.1 -0.1)">
      <defs>
       <path id="DejaVuSans-4e" d="M 628 4666 
L 1478 4666 
L 3547 763 
L 3547 4666 
L 4159 4666 
L 4159 0 
L 3309 0 
L 1241 3903 
L 1241 0 
L 628 0 
L 628 4666 
z
" transform="scale(0.015625)"/>
      </defs>
      <use xlink:href="#DejaVuSans-4e"/>
      <use xlink:href="#DejaVuSans-65" x="74.804688"/>
      <use xlink:href="#DejaVuSans-67" x="136.328125"/>
      <use xlink:href="#DejaVuSans-61" x="199.804688"/>
      <use xlink:href="#DejaVuSans-74" x="261.083984"/>
      <use xlink:href="#DejaVuSans-69" x="300.292969"/>
      <use xlink:href="#DejaVuSans-76" x="328.076172"/>
      <use xlink:href="#DejaVuSans-65" x="387.255859"/>
      <use xlink:href="#DejaVuSans-20" x="448.779297"/>
      <use xlink:href="#DejaVuSans-70" x="480.566406"/>
      <use xlink:href="#DejaVuSans-72" x="544.042969"/>
      <use xlink:href="#DejaVuSans-65" x="582.90625"/>
      <use xlink:href="#DejaVuSans-64" x="644.429688"/>
      <use xlink:href="#DejaVuSans-69" x="707.90625"/>
      <use xlink:href="#DejaVuSans-63" x="735.689453"/>
      <use xlink:href="#DejaVuSans-74" x="790.669922"/>
      <use xlink:href="#DejaVuSans-69" x="829.878906"/>
      <use xlink:href="#DejaVuSans-6f" x="857.662109"/>
      <use xlink:href="#DejaVuSans-6e" x="918.84375"/>
      <use xlink:href="#DejaVuSans-73" x="982.222656"/>
     </g>
    </g>
    <g id="line2d_26">
     <path d="M 66.6 113.282938 
L 76.6 113.282938 
L 86.6 113.282938 
" style="fill: none; stroke: #f08080; stroke-opacity: 0.8; stroke-width: 0.5; stroke-linecap: square"/>
    </g>
    <g id="text_21">
     <!-- Negative predictions max -->
     <g transform="translate(94.6 116.782938) scale(0.1 -0.1)">
      <use xlink:href="#DejaVuSans-4e"/>
      <use xlink:href="#DejaVuSans-65" x="74.804688"/>
      <use xlink:href="#DejaVuSans-67" x="136.328125"/>
      <use xlink:href="#DejaVuSans-61" x="199.804688"/>
      <use xlink:href="#DejaVuSans-74" x="261.083984"/>
      <use xlink:href="#DejaVuSans-69" x="300.292969"/>
      <use xlink:href="#DejaVuSans-76" x="328.076172"/>
      <use xlink:href="#DejaVuSans-65" x="387.255859"/>
      <use xlink:href="#DejaVuSans-20" x="448.779297"/>
      <use xlink:href="#DejaVuSans-70" x="480.566406"/>
      <use xlink:href="#DejaVuSans-72" x="544.042969"/>
      <use xlink:href="#DejaVuSans-65" x="582.90625"/>
      <use xlink:href="#DejaVuSans-64" x="644.429688"/>
      <use xlink:href="#DejaVuSans-69" x="707.90625"/>
      <use xlink:href="#DejaVuSans-63" x="735.689453"/>
      <use xlink:href="#DejaVuSans-74" x="790.669922"/>
      <use xlink:href="#DejaVuSans-69" x="829.878906"/>
      <use xlink:href="#DejaVuSans-6f" x="857.662109"/>
      <use xlink:href="#DejaVuSans-6e" x="918.84375"/>
      <use xlink:href="#DejaVuSans-73" x="982.222656"/>
      <use xlink:href="#DejaVuSans-20" x="1034.322266"/>
      <use xlink:href="#DejaVuSans-6d" x="1066.109375"/>
      <use xlink:href="#DejaVuSans-61" x="1163.521484"/>
      <use xlink:href="#DejaVuSans-78" x="1224.800781"/>
     </g>
    </g>
    <g id="line2d_27">
     <path d="M 66.6 127.961063 
L 76.6 127.961063 
L 86.6 127.961063 
" style="fill: none; stroke: #f08080; stroke-opacity: 0.8; stroke-width: 0.5; stroke-linecap: square"/>
    </g>
    <g id="text_22">
     <!-- Negative predictions min -->
     <g transform="translate(94.6 131.461063) scale(0.1 -0.1)">
      <use xlink:href="#DejaVuSans-4e"/>
      <use xlink:href="#DejaVuSans-65" x="74.804688"/>
      <use xlink:href="#DejaVuSans-67" x="136.328125"/>
      <use xlink:href="#DejaVuSans-61" x="199.804688"/>
      <use xlink:href="#DejaVuSans-74" x="261.083984"/>
      <use xlink:href="#DejaVuSans-69" x="300.292969"/>
      <use xlink:href="#DejaVuSans-76" x="328.076172"/>
      <use xlink:href="#DejaVuSans-65" x="387.255859"/>
      <use xlink:href="#DejaVuSans-20" x="448.779297"/>
      <use xlink:href="#DejaVuSans-70" x="480.566406"/>
      <use xlink:href="#DejaVuSans-72" x="544.042969"/>
      <use xlink:href="#DejaVuSans-65" x="582.90625"/>
      <use xlink:href="#DejaVuSans-64" x="644.429688"/>
      <use xlink:href="#DejaVuSans-69" x="707.90625"/>
      <use xlink:href="#DejaVuSans-63" x="735.689453"/>
      <use xlink:href="#DejaVuSans-74" x="790.669922"/>
      <use xlink:href="#DejaVuSans-69" x="829.878906"/>
      <use xlink:href="#DejaVuSans-6f" x="857.662109"/>
      <use xlink:href="#DejaVuSans-6e" x="918.84375"/>
      <use xlink:href="#DejaVuSans-73" x="982.222656"/>
      <use xlink:href="#DejaVuSans-20" x="1034.322266"/>
      <use xlink:href="#DejaVuSans-6d" x="1066.109375"/>
      <use xlink:href="#DejaVuSans-69" x="1163.521484"/>
      <use xlink:href="#DejaVuSans-6e" x="1191.304688"/>
     </g>
    </g>
   </g>
  </g>
 </g>
 <defs>
  <clipPath id="p6b73cff0af">
   <rect x="57.6" y="41.472" width="357.12" height="266.112"/>
  </clipPath>
 </defs>
</svg>
