<?xml version="1.0" encoding="utf-8" standalone="no"?>
<!DOCTYPE svg PUBLIC "-//W3C//DTD SVG 1.1//EN"
  "http://www.w3.org/Graphics/SVG/1.1/DTD/svg11.dtd">
<svg xmlns:xlink="http://www.w3.org/1999/xlink" width="460.8pt" height="345.6pt" viewBox="0 0 460.8 345.6" xmlns="http://www.w3.org/2000/svg" version="1.1">
 <metadata>
  <rdf:RDF xmlns:dc="http://purl.org/dc/elements/1.1/" xmlns:cc="http://creativecommons.org/ns#" xmlns:rdf="http://www.w3.org/1999/02/22-rdf-syntax-ns#">
   <cc:Work>
    <dc:type rdf:resource="http://purl.org/dc/dcmitype/StillImage"/>
    <dc:date>2024-09-08T19:54:14.656650</dc:date>
    <dc:format>image/svg+xml</dc:format>
    <dc:creator>
     <cc:Agent>
      <dc:title>Matplotlib v3.8.3, https://matplotlib.org/</dc:title>
     </cc:Agent>
    </dc:creator>
   </cc:Work>
  </rdf:RDF>
 </metadata>
 <defs>
  <style type="text/css">*{stroke-linejoin: round; stroke-linecap: butt}</style>
 </defs>
 <g id="figure_1">
  <g id="patch_1">
   <path d="M 0 345.6 
L 460.8 345.6 
L 460.8 0 
L 0 0 
z
" style="fill: #ffffff"/>
  </g>
  <g id="axes_1">
   <g id="patch_2">
    <path d="M 57.6 307.584 
L 414.72 307.584 
L 414.72 41.472 
L 57.6 41.472 
z
" style="fill: #ffffff"/>
   </g>
   <g id="matplotlib.axis_1">
    <g id="xtick_1">
     <g id="line2d_1">
      <defs>
       <path id="m4ec66d6719" d="M 0 0 
L 0 3.5 
" style="stroke: #000000; stroke-width: 0.8"/>
      </defs>
      <g>
       <use xlink:href="#m4ec66d6719" x="73.832727" y="307.584" style="stroke: #000000; stroke-width: 0.8"/>
      </g>
     </g>
     <g id="text_1">
      <!-- 0 -->
      <g transform="translate(70.651477 322.182437) scale(0.1 -0.1)">
       <defs>
        <path id="DejaVuSans-30" d="M 2034 4250 
Q 1547 4250 1301 3770 
Q 1056 3291 1056 2328 
Q 1056 1369 1301 889 
Q 1547 409 2034 409 
Q 2525 409 2770 889 
Q 3016 1369 3016 2328 
Q 3016 3291 2770 3770 
Q 2525 4250 2034 4250 
z
M 2034 4750 
Q 2819 4750 3233 4129 
Q 3647 3509 3647 2328 
Q 3647 1150 3233 529 
Q 2819 -91 2034 -91 
Q 1250 -91 836 529 
Q 422 1150 422 2328 
Q 422 3509 836 4129 
Q 1250 4750 2034 4750 
z
" transform="scale(0.015625)"/>
       </defs>
       <use xlink:href="#DejaVuSans-30"/>
      </g>
     </g>
    </g>
    <g id="xtick_2">
     <g id="line2d_2">
      <g>
       <use xlink:href="#m4ec66d6719" x="149.019051" y="307.584" style="stroke: #000000; stroke-width: 0.8"/>
      </g>
     </g>
     <g id="text_2">
      <!-- 500 -->
      <g transform="translate(139.475301 322.182437) scale(0.1 -0.1)">
       <defs>
        <path id="DejaVuSans-35" d="M 691 4666 
L 3169 4666 
L 3169 4134 
L 1269 4134 
L 1269 2991 
Q 1406 3038 1543 3061 
Q 1681 3084 1819 3084 
Q 2600 3084 3056 2656 
Q 3513 2228 3513 1497 
Q 3513 744 3044 326 
Q 2575 -91 1722 -91 
Q 1428 -91 1123 -41 
Q 819 9 494 109 
L 494 744 
Q 775 591 1075 516 
Q 1375 441 1709 441 
Q 2250 441 2565 725 
Q 2881 1009 2881 1497 
Q 2881 1984 2565 2268 
Q 2250 2553 1709 2553 
Q 1456 2553 1204 2497 
Q 953 2441 691 2322 
L 691 4666 
z
" transform="scale(0.015625)"/>
       </defs>
       <use xlink:href="#DejaVuSans-35"/>
       <use xlink:href="#DejaVuSans-30" x="63.623047"/>
       <use xlink:href="#DejaVuSans-30" x="127.246094"/>
      </g>
     </g>
    </g>
    <g id="xtick_3">
     <g id="line2d_3">
      <g>
       <use xlink:href="#m4ec66d6719" x="224.205375" y="307.584" style="stroke: #000000; stroke-width: 0.8"/>
      </g>
     </g>
     <g id="text_3">
      <!-- 1000 -->
      <g transform="translate(211.480375 322.182437) scale(0.1 -0.1)">
       <defs>
        <path id="DejaVuSans-31" d="M 794 531 
L 1825 531 
L 1825 4091 
L 703 3866 
L 703 4441 
L 1819 4666 
L 2450 4666 
L 2450 531 
L 3481 531 
L 3481 0 
L 794 0 
L 794 531 
z
" transform="scale(0.015625)"/>
       </defs>
       <use xlink:href="#DejaVuSans-31"/>
       <use xlink:href="#DejaVuSans-30" x="63.623047"/>
       <use xlink:href="#DejaVuSans-30" x="127.246094"/>
       <use xlink:href="#DejaVuSans-30" x="190.869141"/>
      </g>
     </g>
    </g>
    <g id="xtick_4">
     <g id="line2d_4">
      <g>
       <use xlink:href="#m4ec66d6719" x="299.391698" y="307.584" style="stroke: #000000; stroke-width: 0.8"/>
      </g>
     </g>
     <g id="text_4">
      <!-- 1500 -->
      <g transform="translate(286.666698 322.182437) scale(0.1 -0.1)">
       <use xlink:href="#DejaVuSans-31"/>
       <use xlink:href="#DejaVuSans-35" x="63.623047"/>
       <use xlink:href="#DejaVuSans-30" x="127.246094"/>
       <use xlink:href="#DejaVuSans-30" x="190.869141"/>
      </g>
     </g>
    </g>
    <g id="xtick_5">
     <g id="line2d_5">
      <g>
       <use xlink:href="#m4ec66d6719" x="374.578022" y="307.584" style="stroke: #000000; stroke-width: 0.8"/>
      </g>
     </g>
     <g id="text_5">
      <!-- 2000 -->
      <g transform="translate(361.853022 322.182437) scale(0.1 -0.1)">
       <defs>
        <path id="DejaVuSans-32" d="M 1228 531 
L 3431 531 
L 3431 0 
L 469 0 
L 469 531 
Q 828 903 1448 1529 
Q 2069 2156 2228 2338 
Q 2531 2678 2651 2914 
Q 2772 3150 2772 3378 
Q 2772 3750 2511 3984 
Q 2250 4219 1831 4219 
Q 1534 4219 1204 4116 
Q 875 4013 500 3803 
L 500 4441 
Q 881 4594 1212 4672 
Q 1544 4750 1819 4750 
Q 2544 4750 2975 4387 
Q 3406 4025 3406 3419 
Q 3406 3131 3298 2873 
Q 3191 2616 2906 2266 
Q 2828 2175 2409 1742 
Q 1991 1309 1228 531 
z
" transform="scale(0.015625)"/>
       </defs>
       <use xlink:href="#DejaVuSans-32"/>
       <use xlink:href="#DejaVuSans-30" x="63.623047"/>
       <use xlink:href="#DejaVuSans-30" x="127.246094"/>
       <use xlink:href="#DejaVuSans-30" x="190.869141"/>
      </g>
     </g>
    </g>
   </g>
   <g id="matplotlib.axis_2">
    <g id="ytick_1">
     <g id="line2d_6">
      <defs>
       <path id="meaed3597c2" d="M 0 0 
L -3.5 0 
" style="stroke: #000000; stroke-width: 0.8"/>
      </defs>
      <g>
       <use xlink:href="#meaed3597c2" x="57.6" y="286.008159" style="stroke: #000000; stroke-width: 0.8"/>
      </g>
     </g>
     <g id="text_6">
      <!-- −800000 -->
      <g transform="translate(4.045313 289.807377) scale(0.1 -0.1)">
       <defs>
        <path id="DejaVuSans-2212" d="M 678 2272 
L 4684 2272 
L 4684 1741 
L 678 1741 
L 678 2272 
z
" transform="scale(0.015625)"/>
        <path id="DejaVuSans-38" d="M 2034 2216 
Q 1584 2216 1326 1975 
Q 1069 1734 1069 1313 
Q 1069 891 1326 650 
Q 1584 409 2034 409 
Q 2484 409 2743 651 
Q 3003 894 3003 1313 
Q 3003 1734 2745 1975 
Q 2488 2216 2034 2216 
z
M 1403 2484 
Q 997 2584 770 2862 
Q 544 3141 544 3541 
Q 544 4100 942 4425 
Q 1341 4750 2034 4750 
Q 2731 4750 3128 4425 
Q 3525 4100 3525 3541 
Q 3525 3141 3298 2862 
Q 3072 2584 2669 2484 
Q 3125 2378 3379 2068 
Q 3634 1759 3634 1313 
Q 3634 634 3220 271 
Q 2806 -91 2034 -91 
Q 1263 -91 848 271 
Q 434 634 434 1313 
Q 434 1759 690 2068 
Q 947 2378 1403 2484 
z
M 1172 3481 
Q 1172 3119 1398 2916 
Q 1625 2713 2034 2713 
Q 2441 2713 2670 2916 
Q 2900 3119 2900 3481 
Q 2900 3844 2670 4047 
Q 2441 4250 2034 4250 
Q 1625 4250 1398 4047 
Q 1172 3844 1172 3481 
z
" transform="scale(0.015625)"/>
       </defs>
       <use xlink:href="#DejaVuSans-2212"/>
       <use xlink:href="#DejaVuSans-38" x="83.789062"/>
       <use xlink:href="#DejaVuSans-30" x="147.412109"/>
       <use xlink:href="#DejaVuSans-30" x="211.035156"/>
       <use xlink:href="#DejaVuSans-30" x="274.658203"/>
       <use xlink:href="#DejaVuSans-30" x="338.28125"/>
       <use xlink:href="#DejaVuSans-30" x="401.904297"/>
      </g>
     </g>
    </g>
    <g id="ytick_2">
     <g id="line2d_7">
      <g>
       <use xlink:href="#meaed3597c2" x="57.6" y="252.415372" style="stroke: #000000; stroke-width: 0.8"/>
      </g>
     </g>
     <g id="text_7">
      <!-- −600000 -->
      <g transform="translate(4.045313 256.214591) scale(0.1 -0.1)">
       <defs>
        <path id="DejaVuSans-36" d="M 2113 2584 
Q 1688 2584 1439 2293 
Q 1191 2003 1191 1497 
Q 1191 994 1439 701 
Q 1688 409 2113 409 
Q 2538 409 2786 701 
Q 3034 994 3034 1497 
Q 3034 2003 2786 2293 
Q 2538 2584 2113 2584 
z
M 3366 4563 
L 3366 3988 
Q 3128 4100 2886 4159 
Q 2644 4219 2406 4219 
Q 1781 4219 1451 3797 
Q 1122 3375 1075 2522 
Q 1259 2794 1537 2939 
Q 1816 3084 2150 3084 
Q 2853 3084 3261 2657 
Q 3669 2231 3669 1497 
Q 3669 778 3244 343 
Q 2819 -91 2113 -91 
Q 1303 -91 875 529 
Q 447 1150 447 2328 
Q 447 3434 972 4092 
Q 1497 4750 2381 4750 
Q 2619 4750 2861 4703 
Q 3103 4656 3366 4563 
z
" transform="scale(0.015625)"/>
       </defs>
       <use xlink:href="#DejaVuSans-2212"/>
       <use xlink:href="#DejaVuSans-36" x="83.789062"/>
       <use xlink:href="#DejaVuSans-30" x="147.412109"/>
       <use xlink:href="#DejaVuSans-30" x="211.035156"/>
       <use xlink:href="#DejaVuSans-30" x="274.658203"/>
       <use xlink:href="#DejaVuSans-30" x="338.28125"/>
       <use xlink:href="#DejaVuSans-30" x="401.904297"/>
      </g>
     </g>
    </g>
    <g id="ytick_3">
     <g id="line2d_8">
      <g>
       <use xlink:href="#meaed3597c2" x="57.6" y="218.822586" style="stroke: #000000; stroke-width: 0.8"/>
      </g>
     </g>
     <g id="text_8">
      <!-- −400000 -->
      <g transform="translate(4.045313 222.621805) scale(0.1 -0.1)">
       <defs>
        <path id="DejaVuSans-34" d="M 2419 4116 
L 825 1625 
L 2419 1625 
L 2419 4116 
z
M 2253 4666 
L 3047 4666 
L 3047 1625 
L 3713 1625 
L 3713 1100 
L 3047 1100 
L 3047 0 
L 2419 0 
L 2419 1100 
L 313 1100 
L 313 1709 
L 2253 4666 
z
" transform="scale(0.015625)"/>
       </defs>
       <use xlink:href="#DejaVuSans-2212"/>
       <use xlink:href="#DejaVuSans-34" x="83.789062"/>
       <use xlink:href="#DejaVuSans-30" x="147.412109"/>
       <use xlink:href="#DejaVuSans-30" x="211.035156"/>
       <use xlink:href="#DejaVuSans-30" x="274.658203"/>
       <use xlink:href="#DejaVuSans-30" x="338.28125"/>
       <use xlink:href="#DejaVuSans-30" x="401.904297"/>
      </g>
     </g>
    </g>
    <g id="ytick_4">
     <g id="line2d_9">
      <g>
       <use xlink:href="#meaed3597c2" x="57.6" y="185.2298" style="stroke: #000000; stroke-width: 0.8"/>
      </g>
     </g>
     <g id="text_9">
      <!-- −200000 -->
      <g transform="translate(4.045313 189.029019) scale(0.1 -0.1)">
       <use xlink:href="#DejaVuSans-2212"/>
       <use xlink:href="#DejaVuSans-32" x="83.789062"/>
       <use xlink:href="#DejaVuSans-30" x="147.412109"/>
       <use xlink:href="#DejaVuSans-30" x="211.035156"/>
       <use xlink:href="#DejaVuSans-30" x="274.658203"/>
       <use xlink:href="#DejaVuSans-30" x="338.28125"/>
       <use xlink:href="#DejaVuSans-30" x="401.904297"/>
      </g>
     </g>
    </g>
    <g id="ytick_5">
     <g id="line2d_10">
      <g>
       <use xlink:href="#meaed3597c2" x="57.6" y="151.637014" style="stroke: #000000; stroke-width: 0.8"/>
      </g>
     </g>
     <g id="text_10">
      <!-- 0 -->
      <g transform="translate(44.2375 155.436233) scale(0.1 -0.1)">
       <use xlink:href="#DejaVuSans-30"/>
      </g>
     </g>
    </g>
    <g id="ytick_6">
     <g id="line2d_11">
      <g>
       <use xlink:href="#meaed3597c2" x="57.6" y="118.044228" style="stroke: #000000; stroke-width: 0.8"/>
      </g>
     </g>
     <g id="text_11">
      <!-- 200000 -->
      <g transform="translate(12.425 121.843447) scale(0.1 -0.1)">
       <use xlink:href="#DejaVuSans-32"/>
       <use xlink:href="#DejaVuSans-30" x="63.623047"/>
       <use xlink:href="#DejaVuSans-30" x="127.246094"/>
       <use xlink:href="#DejaVuSans-30" x="190.869141"/>
       <use xlink:href="#DejaVuSans-30" x="254.492188"/>
       <use xlink:href="#DejaVuSans-30" x="318.115234"/>
      </g>
     </g>
    </g>
    <g id="ytick_7">
     <g id="line2d_12">
      <g>
       <use xlink:href="#meaed3597c2" x="57.6" y="84.451442" style="stroke: #000000; stroke-width: 0.8"/>
      </g>
     </g>
     <g id="text_12">
      <!-- 400000 -->
      <g transform="translate(12.425 88.25066) scale(0.1 -0.1)">
       <use xlink:href="#DejaVuSans-34"/>
       <use xlink:href="#DejaVuSans-30" x="63.623047"/>
       <use xlink:href="#DejaVuSans-30" x="127.246094"/>
       <use xlink:href="#DejaVuSans-30" x="190.869141"/>
       <use xlink:href="#DejaVuSans-30" x="254.492188"/>
       <use xlink:href="#DejaVuSans-30" x="318.115234"/>
      </g>
     </g>
    </g>
    <g id="ytick_8">
     <g id="line2d_13">
      <g>
       <use xlink:href="#meaed3597c2" x="57.6" y="50.858656" style="stroke: #000000; stroke-width: 0.8"/>
      </g>
     </g>
     <g id="text_13">
      <!-- 600000 -->
      <g transform="translate(12.425 54.657874) scale(0.1 -0.1)">
       <use xlink:href="#DejaVuSans-36"/>
       <use xlink:href="#DejaVuSans-30" x="63.623047"/>
       <use xlink:href="#DejaVuSans-30" x="127.246094"/>
       <use xlink:href="#DejaVuSans-30" x="190.869141"/>
       <use xlink:href="#DejaVuSans-30" x="254.492188"/>
       <use xlink:href="#DejaVuSans-30" x="318.115234"/>
      </g>
     </g>
    </g>
   </g>
   <g id="line2d_14">
    <path d="M 73.832727 151.721421 
L 74.133473 151.816266 
L 74.283845 152.021261 
L 74.584591 151.862003 
L 74.885336 152.231737 
L 75.336454 152.412749 
L 75.486826 152.349706 
L 75.637199 152.549328 
L 75.787572 152.511136 
L 76.088317 152.935851 
L 76.23869 153.003833 
L 76.389062 153.242734 
L 76.539435 153.231054 
L 76.84018 153.589015 
L 77.592043 153.725739 
L 77.892789 154.05803 
L 78.043161 153.965678 
L 78.494279 154.345436 
L 78.945397 154.235951 
L 79.09577 154.099173 
L 79.847633 154.376606 
L 79.998006 154.506049 
L 80.148378 154.377478 
L 80.449124 154.570978 
L 80.749869 154.636397 
L 81.652105 154.751487 
L 82.704713 154.660627 
L 83.155831 154.917046 
L 83.456577 154.843207 
L 83.757322 154.900607 
L 85.561794 155.681559 
L 85.862539 155.869623 
L 86.163284 155.963256 
L 86.313657 156.139549 
L 86.46403 156.046127 
L 87.06552 156.384621 
L 87.366266 156.498086 
L 88.569247 157.040734 
L 88.869992 156.990707 
L 89.471483 157.376494 
L 90.072973 157.434274 
L 90.373718 157.504414 
L 90.824836 157.412789 
L 93.230799 157.735674 
L 93.381171 157.634854 
L 93.681917 157.651459 
L 93.982662 157.710686 
L 94.43378 157.805654 
L 94.884898 157.912978 
L 95.787134 157.926287 
L 97.741978 158.483783 
L 98.042723 158.52907 
L 98.493841 158.660032 
L 100.147941 159.399824 
L 100.448686 159.431379 
L 100.899804 159.572729 
L 101.350922 159.597241 
L 102.102785 159.747923 
L 102.253158 159.726479 
L 102.40353 159.83377 
L 102.704276 159.843949 
L 112.929616 161.950428 
L 113.230361 162.112552 
L 113.681479 162.244286 
L 114.132597 162.500821 
L 117.14005 163.497747 
L 117.440795 163.573687 
L 117.591168 163.64318 
L 117.891913 163.570659 
L 118.343031 163.698787 
L 118.493404 163.663833 
L 119.094894 163.893414 
L 119.546012 163.954369 
L 119.99713 163.948496 
L 120.748993 164.040298 
L 121.951974 164.280284 
L 123.305328 164.519802 
L 123.606074 164.573948 
L 124.057191 164.670991 
L 124.658682 164.835579 
L 126.763899 165.180884 
L 127.36539 165.25519 
L 128.718744 165.475493 
L 133.07955 166.574087 
L 134.282531 167.058842 
L 134.733649 167.293379 
L 135.786258 167.482135 
L 136.087003 167.539059 
L 138.643338 168.37934 
L 140.898928 168.735084 
L 141.951536 169.1131 
L 142.553027 169.250254 
L 143.004145 169.368115 
L 143.455263 169.589843 
L 144.507871 169.96304 
L 144.808617 169.873293 
L 144.958989 170.044524 
L 145.861225 170.079468 
L 146.462716 170.278947 
L 146.613089 170.204632 
L 147.064206 170.373216 
L 147.515324 170.356087 
L 148.868678 170.872499 
L 149.169424 170.890559 
L 149.470169 170.997234 
L 149.770914 171.133674 
L 150.071659 171.479624 
L 150.372405 171.544159 
L 150.67315 171.908714 
L 150.823523 171.613732 
L 150.973895 171.844472 
L 151.124268 171.792423 
L 151.425013 171.595631 
L 151.575386 171.659873 
L 151.725759 171.874393 
L 152.026504 171.743952 
L 153.229485 172.147776 
L 153.379858 172.031391 
L 153.53023 172.237354 
L 153.680603 172.070103 
L 153.830976 172.174705 
L 153.981348 172.421359 
L 154.282094 172.449726 
L 154.733212 172.2302 
L 155.78582 172.415759 
L 156.387311 172.739387 
L 156.537683 172.784492 
L 156.688056 172.971 
L 156.838429 172.914503 
L 157.289547 173.066185 
L 157.439919 172.989333 
L 157.740664 173.126962 
L 158.191782 173.097429 
L 158.943646 173.293599 
L 159.244391 173.196578 
L 159.394764 173.288202 
L 159.695509 173.245473 
L 159.996254 173.298808 
L 160.296999 173.204132 
L 160.89849 173.395999 
L 161.199235 173.456244 
L 162.101471 173.457236 
L 162.853334 173.565759 
L 164.056316 173.620329 
L 164.206688 173.462648 
L 166.612651 173.944334 
L 168.116377 173.988439 
L 168.717868 173.987371 
L 169.018613 174.315982 
L 169.469731 174.496403 
L 169.920849 174.574788 
L 170.371967 174.626823 
L 172.777929 174.751662 
L 173.229047 174.70581 
L 173.680165 174.75239 
L 174.131283 174.926651 
L 174.883146 174.894467 
L 175.935755 175.012428 
L 178.792835 175.346292 
L 179.695071 175.464642 
L 179.995816 175.600157 
L 180.597307 175.603431 
L 181.649915 175.890878 
L 181.950661 175.841032 
L 182.552151 175.89641 
L 183.003269 176.038639 
L 183.60476 176.178512 
L 184.055878 176.264277 
L 184.356623 176.370365 
L 184.657368 176.418046 
L 185.108486 176.405258 
L 185.559604 176.534718 
L 186.311467 176.641835 
L 186.612213 176.55586 
L 187.664821 176.640017 
L 188.567057 176.728844 
L 189.018175 176.813427 
L 189.168548 176.68533 
L 189.619666 176.766689 
L 189.770038 176.302349 
L 190.070784 176.531279 
L 190.973019 177.21645 
L 191.424137 177.270261 
L 191.875255 177.503063 
L 192.476746 177.502331 
L 193.980472 177.80616 
L 194.281218 177.819887 
L 195.484199 178.093498 
L 195.784944 178.094246 
L 196.837553 178.488906 
L 196.987925 178.720517 
L 197.288671 178.768592 
L 198.040534 178.945313 
L 198.341279 179.048505 
L 198.94277 178.972286 
L 199.393888 179.179712 
L 200.145751 179.25541 
L 200.897614 179.234114 
L 202.551713 179.639205 
L 203.303577 179.937713 
L 203.754695 179.978227 
L 205.258421 180.199833 
L 205.709539 180.214979 
L 207.664383 180.460326 
L 208.416247 180.586804 
L 210.220718 180.882188 
L 210.521464 181.105431 
L 211.122954 181.452682 
L 211.273327 181.352411 
L 211.874817 181.528742 
L 212.325935 181.607141 
L 212.476308 181.680956 
L 212.626681 181.604332 
L 213.378544 181.961629 
L 213.980035 182.256362 
L 214.431152 182.425493 
L 214.581525 182.568939 
L 214.731898 182.550647 
L 215.183016 182.803052 
L 215.934879 182.798975 
L 216.085252 182.615968 
L 216.235624 182.715727 
L 216.53637 182.707902 
L 218.942332 182.995438 
L 219.092705 182.958817 
L 219.39345 183.06545 
L 222.551275 183.561713 
L 223.152766 183.780369 
L 223.453511 183.997707 
L 224.055002 184.164622 
L 224.205375 184.301999 
L 224.355747 184.278667 
L 224.806865 184.503186 
L 225.408356 184.82668 
L 225.709101 185.084344 
L 225.859474 185.07118 
L 226.160219 185.352404 
L 226.310592 185.40695 
L 226.611337 185.6948 
L 227.212827 185.968765 
L 227.513573 186.188867 
L 227.663945 186.222002 
L 227.964691 186.430819 
L 228.265436 186.433918 
L 228.415809 186.581619 
L 228.566181 186.554408 
L 228.716554 186.31497 
L 228.866927 186.324011 
L 229.318045 186.816955 
L 229.61879 186.657971 
L 229.769162 186.624142 
L 229.919535 186.418142 
L 230.370653 186.57975 
L 230.521026 186.353594 
L 231.573634 186.509635 
L 231.87438 187.07366 
L 232.175125 187.292546 
L 232.47587 187.142037 
L 232.626243 187.369583 
L 232.776615 187.266553 
L 233.077361 187.562027 
L 233.227733 187.885794 
L 233.378106 187.890973 
L 234.129969 188.523051 
L 234.430715 189.154527 
L 234.581087 189.048435 
L 235.182578 190.609669 
L 235.33295 190.538755 
L 235.784068 189.550874 
L 236.084814 190.473946 
L 236.235186 190.060429 
L 236.535932 189.883104 
L 236.686304 190.034451 
L 236.98705 189.870115 
L 237.137422 189.112542 
L 237.438168 189.842003 
L 237.889285 190.489031 
L 238.039658 190.105118 
L 238.340403 191.065754 
L 238.490776 191.274091 
L 238.641149 191.098162 
L 238.791521 191.20726 
L 239.092267 192.019698 
L 239.693757 192.282217 
L 239.84413 193.656214 
L 240.144875 193.265836 
L 240.295248 193.770562 
L 240.595993 193.375164 
L 240.746366 193.533085 
L 240.896738 193.436908 
L 241.798974 195.274414 
L 242.09972 193.863894 
L 242.250092 194.041853 
L 242.550838 193.528687 
L 242.70121 193.560893 
L 242.851583 193.383185 
L 243.001955 194.027392 
L 243.152328 193.834898 
L 243.302701 194.339118 
L 243.453073 194.36342 
L 243.603446 194.562184 
L 243.753819 194.557505 
L 244.355309 196.505905 
L 244.505682 196.633116 
L 244.656055 196.423375 
L 244.806427 196.887601 
L 244.9568 196.594584 
L 245.107173 195.695873 
L 245.407918 195.727763 
L 245.859036 195.312977 
L 246.159781 194.174139 
L 246.310154 194.253903 
L 246.460526 194.121389 
L 246.610899 194.199976 
L 246.911644 195.240363 
L 247.062017 195.236021 
L 247.362762 195.742877 
L 247.513135 195.69409 
L 247.81388 195.913903 
L 247.964253 195.689055 
L 248.415371 195.758793 
L 248.565743 195.471848 
L 248.716116 196.010551 
L 248.866489 196.096437 
L 249.167234 196.755666 
L 249.317607 196.863398 
L 249.467979 197.339725 
L 249.618352 197.287674 
L 249.768725 197.018816 
L 250.370215 194.87761 
L 250.520588 194.974377 
L 250.821333 194.445644 
L 251.272451 194.817087 
L 251.422824 195.878079 
L 251.723569 196.205472 
L 251.873942 196.071229 
L 252.024314 196.886867 
L 252.174687 196.683994 
L 252.32506 196.130636 
L 252.475432 196.395135 
L 252.625805 196.054181 
L 252.776178 197.109563 
L 252.92655 197.097813 
L 253.227295 197.722955 
L 253.377668 197.652379 
L 253.528041 197.110536 
L 253.678413 197.498901 
L 253.828786 196.368363 
L 254.129531 197.393563 
L 254.279904 197.223473 
L 254.430277 197.362735 
L 254.580649 197.275021 
L 254.731022 197.596835 
L 254.881395 196.951816 
L 255.031767 198.050321 
L 255.18214 197.765696 
L 255.332513 198.422318 
L 255.482885 197.917328 
L 255.633258 198.992067 
L 256.084376 199.681107 
L 256.234748 199.702675 
L 256.535494 200.332896 
L 256.836239 201.389058 
L 257.136984 202.308276 
L 257.287357 201.88379 
L 257.43773 201.810516 
L 257.588102 202.255734 
L 257.738475 202.163701 
L 257.888848 202.353767 
L 258.03922 203.492222 
L 258.189593 203.667713 
L 258.339965 204.080027 
L 258.490338 204.109196 
L 258.791083 205.816312 
L 259.091829 205.673544 
L 259.242201 206.127531 
L 259.392574 205.740267 
L 259.693319 206.295862 
L 259.843692 205.900767 
L 260.29481 206.768295 
L 260.445183 206.580517 
L 261.046673 207.653205 
L 261.347418 207.400033 
L 262.099282 207.918774 
L 262.400027 207.897657 
L 262.5504 208.243591 
L 262.700772 208.229699 
L 262.851145 208.348821 
L 263.001518 208.200819 
L 263.302263 208.443629 
L 263.603008 208.418492 
L 263.903753 208.742883 
L 264.204499 208.494584 
L 264.505244 209.369331 
L 265.708225 211.913163 
L 266.159343 211.805828 
L 266.309716 211.763612 
L 267.211952 213.876903 
L 267.362324 213.872099 
L 267.512697 213.989782 
L 267.66307 213.949055 
L 267.813442 214.740122 
L 268.114188 215.039383 
L 268.414933 214.921894 
L 268.715678 215.786259 
L 269.016423 216.636038 
L 269.467541 216.908347 
L 269.617914 217.491133 
L 269.768287 217.148957 
L 270.069032 218.043064 
L 270.219405 218.136839 
L 270.369777 217.701129 
L 270.52015 217.814272 
L 270.820895 218.394077 
L 271.272013 219.056212 
L 271.422386 219.559059 
L 271.572758 218.593963 
L 272.174249 219.712402 
L 272.324622 220.279146 
L 272.474994 220.196374 
L 272.77574 221.176264 
L 273.076485 221.374011 
L 273.226858 221.797347 
L 273.37723 221.721185 
L 273.527603 221.22269 
L 273.677975 221.143659 
L 273.978721 222.474214 
L 274.129093 222.241616 
L 274.429839 222.606093 
L 274.730584 222.563008 
L 274.880957 222.714869 
L 275.031329 223.082388 
L 275.181702 223.821078 
L 275.332075 223.598178 
L 275.933565 225.591334 
L 276.083938 225.35093 
L 276.535056 225.788637 
L 276.685428 226.410569 
L 276.835801 226.467812 
L 277.136546 227.140875 
L 277.286919 228.332165 
L 277.437292 228.116199 
L 277.738037 228.762095 
L 278.038782 229.688847 
L 278.189155 228.935994 
L 278.790646 229.756356 
L 279.091391 229.453983 
L 279.392136 230.362794 
L 279.692881 230.357991 
L 279.843254 230.551664 
L 279.993627 231.168569 
L 280.143999 231.03326 
L 280.294372 230.601205 
L 280.444745 230.661145 
L 280.74549 231.228508 
L 280.895863 232.002333 
L 281.046235 231.96598 
L 281.196608 231.41559 
L 281.798098 231.864124 
L 282.098844 231.105783 
L 282.249216 231.333583 
L 282.399589 230.801551 
L 282.700334 231.41564 
L 282.850707 231.280876 
L 283.00108 230.991498 
L 283.151452 231.291862 
L 283.301825 231.073673 
L 283.452198 231.325501 
L 283.60257 230.574541 
L 284.053688 231.646399 
L 284.204061 231.440423 
L 284.354433 231.489734 
L 284.504806 231.236105 
L 284.805551 230.157808 
L 285.407042 231.397939 
L 285.557415 231.170239 
L 285.707787 231.427699 
L 285.85816 231.980754 
L 286.008533 232.064943 
L 286.158905 231.574438 
L 286.309278 231.637184 
L 286.459651 232.124777 
L 286.760396 231.565803 
L 287.813004 232.690232 
L 287.963377 232.605377 
L 288.264122 232.721915 
L 288.414495 232.338145 
L 288.564868 232.426386 
L 288.71524 232.828634 
L 289.015986 232.871267 
L 289.467103 233.072325 
L 289.617476 232.825884 
L 289.767849 233.009834 
L 289.918221 232.972459 
L 290.670085 234.074899 
L 290.820457 233.914403 
L 291.271575 234.337268 
L 291.421948 234.326316 
L 291.572321 234.522346 
L 291.873066 234.377135 
L 292.023438 233.732815 
L 292.173811 233.72947 
L 292.474556 234.572446 
L 292.925674 235.038161 
L 293.677538 235.778264 
L 293.82791 235.546443 
L 293.978283 235.83683 
L 294.128656 236.788212 
L 294.279028 236.880124 
L 294.880519 237.915794 
L 295.331637 237.813435 
L 295.632382 237.779413 
L 295.782755 238.226156 
L 295.933127 238.243886 
L 296.0835 237.834801 
L 296.384245 238.068565 
L 296.534618 238.001806 
L 296.684991 238.068168 
L 296.835363 238.530347 
L 296.985736 238.601031 
L 297.286481 239.168844 
L 297.436854 239.270418 
L 297.587226 239.121143 
L 297.887972 240.570116 
L 298.038344 240.65548 
L 298.33909 240.132946 
L 298.639835 240.647396 
L 298.94058 241.055376 
L 299.090953 241.674381 
L 299.241326 241.379314 
L 299.542071 241.714083 
L 299.692443 241.604056 
L 299.993189 242.283355 
L 300.293934 242.769744 
L 300.895425 242.691 
L 301.045797 243.032731 
L 301.19617 243.036638 
L 301.346543 243.268514 
L 301.647288 243.263145 
L 301.797661 243.795058 
L 301.948033 243.786835 
L 302.248778 243.987216 
L 302.399151 243.806394 
L 302.699896 244.225089 
L 303.000642 244.674262 
L 303.151014 244.586071 
L 303.301387 244.24672 
L 303.45176 244.477592 
L 303.602132 244.475319 
L 303.752505 244.638619 
L 303.902878 244.507094 
L 304.05325 243.981653 
L 304.353996 244.502911 
L 304.504368 244.308175 
L 304.654741 244.433907 
L 304.955486 244.130315 
L 305.256231 244.532732 
L 305.556977 244.617098 
L 305.707349 244.477005 
L 306.008095 244.62413 
L 306.158467 244.895034 
L 306.30884 244.581539 
L 306.609585 245.108906 
L 306.910331 245.025436 
L 307.211076 245.372992 
L 307.361448 245.298528 
L 307.511821 245.68276 
L 307.662194 245.14519 
L 307.962939 245.122854 
L 308.113312 244.875019 
L 308.263684 244.243086 
L 308.414057 244.596169 
L 308.56443 244.476782 
L 308.865175 244.948123 
L 309.16592 245.55301 
L 309.316293 245.435896 
L 309.466666 245.638914 
L 309.617038 245.561088 
L 309.767411 245.962918 
L 309.917783 245.937118 
L 310.218529 246.219255 
L 310.368901 246.003258 
L 310.519274 246.156293 
L 310.820019 245.931731 
L 310.970392 245.703526 
L 311.271137 245.945701 
L 311.42151 246.56453 
L 311.571883 246.697702 
L 311.722255 246.412889 
L 311.872628 246.708846 
L 312.023001 246.606789 
L 312.323746 246.949629 
L 312.474118 247.301552 
L 312.774864 247.284623 
L 313.225982 247.027848 
L 313.376354 246.814041 
L 313.526727 246.200838 
L 313.827472 246.661314 
L 313.977845 246.387479 
L 314.128218 246.5698 
L 314.27859 246.404975 
L 314.428963 246.831586 
L 314.729708 246.940739 
L 314.880081 246.811845 
L 315.030453 247.082761 
L 315.180826 247.112489 
L 315.331199 247.261788 
L 315.481571 247.198817 
L 315.782317 247.388986 
L 315.932689 247.38381 
L 316.083062 247.516112 
L 316.233435 247.46021 
L 316.53418 247.60966 
L 316.834925 247.952672 
L 317.286043 248.473875 
L 317.887534 248.484201 
L 318.188279 248.810222 
L 318.489024 249.111798 
L 318.639397 249.078412 
L 318.940142 249.738133 
L 319.992751 250.285916 
L 320.293496 250.879314 
L 322.398713 252.768208 
L 322.699459 253.135308 
L 323.451322 253.600757 
L 323.601694 253.301847 
L 324.353558 253.988859 
L 324.50393 254.064732 
L 324.654303 253.819061 
L 325.706911 254.123915 
L 326.007657 254.137922 
L 326.158029 254.214505 
L 326.308402 254.121722 
L 327.210638 255.275955 
L 327.361011 255.034565 
L 327.511383 255.211552 
L 327.661756 255.131955 
L 328.413619 255.668608 
L 328.563992 255.680163 
L 328.714364 256.022287 
L 328.864737 256.070428 
L 329.01511 255.986719 
L 329.917346 256.320622 
L 330.218091 256.139098 
L 330.819581 256.714355 
L 331.120327 256.873715 
L 332.172935 257.206287 
L 332.323308 257.280071 
L 332.624053 257.628459 
L 333.225544 257.939735 
L 333.827034 258.70987 
L 333.977407 258.650574 
L 334.428525 259.133971 
L 334.72927 259.44634 
L 334.879643 259.434998 
L 335.631506 260.05406 
L 335.932251 259.525145 
L 336.082624 260.075424 
L 336.232997 260.005412 
L 336.533742 260.134314 
L 336.834487 260.581433 
L 337.736723 260.519329 
L 338.187841 260.769667 
L 338.789332 260.779158 
L 339.390822 261.282606 
L 340.142686 261.279054 
L 340.593804 261.458278 
L 340.894549 261.438859 
L 341.044921 261.672545 
L 341.496039 261.741434 
L 341.796785 262.007235 
L 341.947157 261.985459 
L 342.247903 262.1967 
L 342.548648 262.218055 
L 343.902002 263.367674 
L 344.202747 263.584954 
L 345.405728 264.433467 
L 346.157591 265.430243 
L 346.608709 265.690265 
L 346.909455 266.154509 
L 348.413181 267.056176 
L 348.713926 267.468172 
L 349.165044 267.815137 
L 349.616162 268.357783 
L 349.766535 268.253683 
L 351.871752 270.227721 
L 352.022125 270.110071 
L 352.623615 270.350114 
L 352.924361 270.799474 
L 353.074733 270.580163 
L 353.826596 270.695814 
L 353.976969 270.506665 
L 354.277714 270.704116 
L 354.879205 271.720606 
L 355.029578 271.918978 
L 355.17995 272.411875 
L 355.330323 272.314907 
L 355.480696 272.530984 
L 355.631068 272.447409 
L 355.781441 272.542978 
L 355.931814 272.498326 
L 356.232559 272.661199 
L 356.533304 272.987942 
L 356.683677 272.772398 
L 356.984422 273.240505 
L 357.134795 273.107268 
L 357.736285 273.597963 
L 358.187403 274.286188 
L 358.488149 274.358895 
L 359.089639 275.288363 
L 359.540757 275.542744 
L 359.69113 275.617469 
L 359.841502 275.471873 
L 359.991875 275.843614 
L 360.142248 275.700558 
L 360.29262 275.743354 
L 360.442993 275.613329 
L 360.743738 275.923216 
L 361.345229 276.636108 
L 361.495601 276.81787 
L 361.946719 276.686277 
L 362.247465 276.987134 
L 362.397837 277.031125 
L 362.54821 277.227149 
L 362.698583 277.089504 
L 363.751191 277.614233 
L 364.051937 277.673474 
L 364.202309 277.682133 
L 364.352682 277.820229 
L 364.503054 277.764207 
L 365.254918 278.02433 
L 365.40529 277.880954 
L 367.059389 279.027688 
L 367.209762 278.942699 
L 367.360135 279.325766 
L 367.66088 279.315865 
L 368.713489 279.372057 
L 369.014234 279.443522 
L 369.314979 279.490671 
L 369.615724 280.049927 
L 369.766097 280.046815 
L 370.066842 280.287293 
L 371.269824 280.828763 
L 371.720942 281.170568 
L 372.021687 281.354797 
L 372.322432 281.576507 
L 372.923923 282.465328 
L 373.675786 282.642363 
L 374.277277 283.143503 
L 374.427649 283.43484 
L 374.578022 283.378298 
L 375.329885 283.682959 
L 376.382494 283.974317 
L 377.435102 284.354332 
L 378.036593 284.305108 
L 378.186965 283.994804 
L 378.487711 284.12978 
L 379.089201 284.440025 
L 379.540319 284.42599 
L 379.841064 284.540477 
L 379.991437 284.816693 
L 380.442555 284.595913 
L 381.344791 284.858583 
L 381.946282 284.721599 
L 382.247027 284.952493 
L 383.299635 285.325341 
L 383.600381 285.306352 
L 384.352244 285.497407 
L 384.652989 285.680018 
L 384.803362 285.732527 
L 384.953734 285.979341 
L 385.25448 286.028592 
L 385.705598 286.338328 
L 386.457461 286.48271 
L 386.758206 286.709048 
L 387.510069 287.378299 
L 387.660442 287.462866 
L 388.11156 287.992792 
L 388.412305 288.811255 
L 388.562678 288.893065 
L 388.863423 288.875258 
L 389.013796 288.913873 
L 389.314541 289.200132 
L 389.765659 289.479849 
L 390.216777 289.745444 
L 390.667895 290.24462 
L 390.96864 290.693482 
L 391.570131 290.566897 
L 391.720504 291.049348 
L 391.870876 290.885081 
L 392.021249 291.079089 
L 392.171622 291.090807 
L 392.472367 291.421784 
L 392.622739 291.202217 
L 392.923485 291.695309 
L 393.22423 292.115974 
L 393.374603 292.059095 
L 394.126466 292.679923 
L 394.577584 293.257578 
L 394.727957 293.764138 
L 395.028702 293.740607 
L 395.179074 293.968968 
L 395.329447 293.947325 
L 395.47982 294.072188 
L 395.630192 293.713592 
L 395.780565 293.802261 
L 396.08131 294.216827 
L 396.231683 293.955831 
L 396.382056 294.141163 
L 396.532428 294.048578 
L 396.682801 294.438559 
L 396.833174 294.335023 
L 397.284292 294.904478 
L 397.585037 294.836985 
L 397.735409 295.168265 
L 397.885782 295.095494 
L 398.036155 295.364492 
L 398.186527 295.23777 
L 398.487273 295.488 
L 398.487273 295.488 
" clip-path="url(#p19ff54dfbf)" style="fill: none; stroke: #1f77b4; stroke-opacity: 0.7; stroke-width: 1.5; stroke-linecap: square"/>
   </g>
   <g id="line2d_15">
    <path d="M 73.832727 151.734629 
L 74.133473 151.569612 
L 74.283845 151.715646 
L 74.584591 151.393066 
L 74.734963 151.607341 
L 75.035708 151.66956 
L 75.186081 151.792372 
L 75.787572 151.704792 
L 76.23869 151.926798 
L 76.389062 152.025859 
L 76.539435 151.824099 
L 76.84018 151.832088 
L 77.140926 151.542313 
L 77.291298 151.572518 
L 77.592043 151.398703 
L 78.193534 151.533078 
L 78.644652 151.448321 
L 78.795025 151.433175 
L 79.396515 150.884097 
L 79.546888 150.755173 
L 79.697261 150.806378 
L 80.148378 150.634055 
L 81.501732 150.501343 
L 81.802478 150.438682 
L 82.554341 150.135659 
L 82.855086 150.175279 
L 83.155831 150.314797 
L 83.456577 150.160344 
L 83.606949 150.087098 
L 84.058067 150.192076 
L 84.358813 150.217497 
L 84.509185 150.371238 
L 85.561794 150.12923 
L 85.862539 150.178934 
L 86.163284 150.156789 
L 86.313657 150.24258 
L 86.46403 150.040009 
L 86.614402 150.122973 
L 86.764775 150.027167 
L 87.06552 150.07907 
L 87.516638 150.052423 
L 87.817383 150.103269 
L 88.268501 150.016669 
L 89.922601 149.546937 
L 90.524091 149.46799 
L 90.824836 149.348378 
L 91.426327 149.246697 
L 92.027818 149.275853 
L 92.328563 149.301323 
L 92.779681 149.203926 
L 94.43378 149.041054 
L 94.884898 149.097386 
L 96.238252 149.079025 
L 96.68937 149.19854 
L 97.140488 149.227087 
L 97.741978 149.25911 
L 98.193096 149.144194 
L 98.794587 149.189486 
L 99.095332 149.230112 
L 100.147941 149.233852 
L 100.599058 149.168601 
L 101.050176 149.040139 
L 101.80204 148.880687 
L 104.057629 148.793413 
L 104.809493 148.831356 
L 105.561356 148.787506 
L 106.313219 148.776736 
L 106.613964 148.635115 
L 108.568809 148.501303 
L 109.320672 148.482911 
L 109.922163 148.485981 
L 110.824399 148.442611 
L 111.726634 148.402524 
L 112.177752 148.343415 
L 116.839304 148.183701 
L 117.14005 148.080174 
L 117.74154 147.975408 
L 118.192658 147.880709 
L 120.297875 147.744605 
L 121.049739 147.743856 
L 133.380296 147.024083 
L 134.282531 146.979313 
L 136.387749 146.936647 
L 137.741102 146.937026 
L 138.041848 147.050498 
L 139.846319 146.834699 
L 140.297437 146.809004 
L 141.951536 146.591925 
L 142.7034 146.557874 
L 143.605636 146.496927 
L 143.756008 146.612584 
L 143.906381 146.522223 
L 144.056754 146.612414 
L 144.507871 146.415564 
L 144.808617 146.2524 
L 144.958989 146.41692 
L 145.861225 146.348772 
L 146.161971 146.427859 
L 146.913834 146.221295 
L 147.064206 146.246878 
L 147.515324 146.042762 
L 149.921287 146.005939 
L 150.222032 146.036075 
L 150.372405 146.01098 
L 150.67315 146.259314 
L 150.823523 145.856517 
L 150.973895 146.03104 
L 151.425013 145.702644 
L 151.725759 145.995969 
L 152.026504 145.655918 
L 152.327249 145.757391 
L 152.627994 145.886166 
L 152.92874 145.557617 
L 153.079112 145.675884 
L 153.53023 145.495405 
L 153.680603 145.238855 
L 153.830976 145.260713 
L 153.981348 145.428143 
L 155.033957 144.974627 
L 155.78582 144.909992 
L 156.236938 145.049535 
L 156.988801 145.092874 
L 157.289547 145.024856 
L 157.590292 144.907134 
L 157.891037 144.745533 
L 158.04141 144.586492 
L 158.492528 144.634263 
L 159.094018 144.535184 
L 159.695509 144.488867 
L 159.996254 144.495357 
L 160.447372 144.336845 
L 161.650353 144.223706 
L 162.251844 144.102536 
L 162.853334 144.077044 
L 164.056316 143.864138 
L 164.357061 143.615746 
L 164.657806 143.533695 
L 165.710415 143.382204 
L 166.161533 143.327204 
L 167.665259 143.017545 
L 168.86824 142.950781 
L 169.168986 143.005403 
L 169.620104 142.788115 
L 172.026066 142.205771 
L 172.326811 142.139961 
L 172.928302 141.842872 
L 173.37942 141.755071 
L 173.830538 141.797411 
L 174.883146 141.595304 
L 175.484637 141.648097 
L 176.386873 141.571623 
L 176.687618 141.530651 
L 176.837991 141.45617 
L 177.138736 141.539102 
L 178.341717 141.507058 
L 180.898052 141.178788 
L 181.048425 141.261919 
L 181.499543 141.186582 
L 182.251406 141.072606 
L 182.702524 140.953971 
L 183.454387 140.97967 
L 183.905505 140.909718 
L 184.356623 140.875032 
L 184.958114 140.893369 
L 185.258859 140.865041 
L 187.364076 140.523025 
L 187.664821 140.421313 
L 189.018175 140.312229 
L 189.31892 140.118232 
L 189.619666 140.078377 
L 189.770038 139.55967 
L 189.920411 139.63779 
L 190.371529 139.517173 
L 190.672274 139.51894 
L 190.822647 139.664642 
L 191.424137 139.549598 
L 191.875255 139.434574 
L 192.326373 139.237236 
L 192.627119 139.274264 
L 193.679727 139.216589 
L 198.491652 138.678249 
L 198.792397 138.481353 
L 199.393888 138.546277 
L 201.19836 138.271086 
L 201.499105 138.259584 
L 201.950223 138.254071 
L 202.100595 138.112302 
L 202.551713 138.071335 
L 203.002831 138.012056 
L 203.303577 138.059965 
L 203.604322 137.97504 
L 206.160657 137.492225 
L 207.062893 137.327117 
L 207.514011 137.267873 
L 207.965129 137.154416 
L 210.070346 136.720642 
L 210.220718 136.707255 
L 210.371091 136.850369 
L 210.972582 136.662016 
L 211.122954 136.683381 
L 211.273327 136.507502 
L 212.02519 136.509573 
L 213.228171 136.455501 
L 213.980035 136.378468 
L 214.431152 136.261883 
L 214.581525 136.288472 
L 214.88227 136.193135 
L 215.333388 136.15781 
L 215.784506 136.21408 
L 216.385997 135.800942 
L 216.686742 135.778186 
L 216.837115 135.696994 
L 217.13786 135.764026 
L 217.588978 135.711174 
L 217.889723 135.747583 
L 221.197922 135.145616 
L 221.64904 135.222525 
L 223.152766 135.123256 
L 223.303139 135.252763 
L 224.656492 135.144445 
L 225.257983 135.125232 
L 225.408356 135.099333 
L 225.558728 135.32419 
L 226.160219 135.075982 
L 226.460964 135.106392 
L 226.76171 135.173688 
L 227.062455 135.019371 
L 227.3632 135.297671 
L 227.663945 135.185398 
L 227.814318 135.285487 
L 228.566181 135.103539 
L 228.866927 134.774527 
L 229.318045 135.085313 
L 229.468417 134.86386 
L 230.370653 134.704818 
L 230.521026 134.543923 
L 230.671398 134.570975 
L 230.821771 134.435066 
L 231.573634 134.591738 
L 231.87438 135.011685 
L 232.175125 135.021982 
L 232.47587 134.673339 
L 232.626243 134.740509 
L 232.776615 134.524477 
L 233.077361 134.570747 
L 233.227733 134.775191 
L 233.378106 134.61333 
L 233.528479 134.733369 
L 233.678851 134.643989 
L 233.829224 134.768733 
L 234.129969 134.65792 
L 234.280342 134.994376 
L 234.430715 134.954723 
L 234.581087 134.648406 
L 235.032205 135.431144 
L 235.182578 135.405937 
L 235.483323 134.618028 
L 235.784068 133.750541 
L 236.084814 134.474547 
L 236.385559 133.744076 
L 236.535932 133.705452 
L 236.686304 133.910024 
L 236.98705 133.417762 
L 237.137422 132.550983 
L 237.287795 132.760909 
L 237.438168 132.531466 
L 237.738913 132.580877 
L 237.889285 132.299505 
L 238.039658 131.734208 
L 238.190031 132.056441 
L 238.490776 131.945729 
L 238.641149 131.712525 
L 239.092267 132.188812 
L 239.242639 131.792069 
L 239.543385 131.753885 
L 239.693757 131.522679 
L 239.84413 132.58246 
L 240.595993 130.777411 
L 240.746366 130.941104 
L 240.896738 130.354623 
L 241.047111 130.497885 
L 241.197484 130.810588 
L 241.347856 130.334126 
L 241.498229 131.090681 
L 241.648602 130.750174 
L 241.798974 130.734051 
L 242.09972 128.876601 
L 242.250092 128.997103 
L 242.851583 127.35503 
L 243.001955 128.152022 
L 243.152328 127.791782 
L 243.302701 127.733581 
L 243.453073 127.166152 
L 244.204937 127.838241 
L 244.355309 127.766315 
L 244.505682 127.946518 
L 244.656055 127.761678 
L 244.806427 128.471731 
L 245.107173 127.114311 
L 245.257545 127.067416 
L 245.407918 127.230657 
L 245.708663 126.736166 
L 246.310154 125.706323 
L 246.610899 125.019071 
L 246.761272 125.57567 
L 246.911644 125.658008 
L 247.062017 125.582816 
L 247.21239 125.690165 
L 247.362762 125.600551 
L 247.513135 125.368305 
L 247.663508 125.445576 
L 247.81388 125.34295 
L 247.964253 125.037221 
L 248.114625 125.084058 
L 248.565743 124.435565 
L 248.716116 124.725436 
L 248.866489 124.561129 
L 249.016861 124.732138 
L 249.317607 124.566295 
L 249.467979 125.202915 
L 249.618352 124.924842 
L 249.768725 124.918728 
L 250.06947 124.533526 
L 250.219843 123.660171 
L 250.370215 123.577547 
L 250.520588 123.787346 
L 250.971706 122.614292 
L 251.122078 122.518297 
L 251.272451 122.149083 
L 251.422824 122.814918 
L 251.723569 122.757149 
L 251.873942 122.300623 
L 252.024314 122.877856 
L 252.475432 121.994478 
L 252.625805 121.147138 
L 252.776178 121.556561 
L 252.92655 120.959059 
L 253.076923 121.407859 
L 253.227295 121.480151 
L 253.377668 121.122041 
L 253.528041 120.455175 
L 253.678413 120.396475 
L 253.828786 118.787199 
L 254.129531 119.190166 
L 254.430277 118.12586 
L 254.580649 117.65767 
L 254.731022 117.573545 
L 254.881395 116.33489 
L 255.031767 116.879096 
L 255.18214 116.503116 
L 255.332513 116.536907 
L 255.482885 115.993705 
L 255.633258 116.612394 
L 256.084376 116.15784 
L 256.385121 115.418902 
L 256.535494 115.455626 
L 256.685866 115.913806 
L 256.836239 115.485793 
L 257.136984 115.727104 
L 257.43773 114.761672 
L 257.588102 114.798634 
L 257.738475 114.411867 
L 257.888848 114.389573 
L 258.03922 114.842536 
L 258.189593 114.681477 
L 258.339965 114.953449 
L 258.490338 114.576201 
L 258.640711 115.073071 
L 258.941456 114.993193 
L 259.392574 113.729861 
L 259.693319 113.385389 
L 259.843692 112.859551 
L 259.994065 112.750566 
L 260.144437 113.145365 
L 260.29481 113.137428 
L 260.445183 112.433498 
L 260.595555 112.407915 
L 260.745928 113.011997 
L 260.8963 112.894961 
L 261.046673 112.992038 
L 261.497791 112.42297 
L 261.798536 112.54279 
L 261.948909 112.182568 
L 262.249654 112.277275 
L 262.400027 112.145789 
L 262.5504 112.215676 
L 262.700772 112.116418 
L 262.851145 112.360642 
L 263.15189 111.95965 
L 263.302263 112.055882 
L 263.753381 111.635056 
L 263.903753 111.731524 
L 264.204499 111.184394 
L 264.354871 111.525002 
L 264.505244 111.508695 
L 265.40748 112.092975 
L 265.557853 111.965613 
L 265.708225 112.239037 
L 266.309716 110.944304 
L 266.760834 111.839878 
L 266.911206 111.970911 
L 267.061579 111.681207 
L 267.211952 111.931918 
L 267.512697 111.45278 
L 267.66307 111.248594 
L 267.813442 111.649153 
L 268.414933 110.639953 
L 268.565305 110.622066 
L 268.866051 111.340162 
L 269.317169 110.991947 
L 269.467541 110.558273 
L 269.617914 110.665231 
L 269.768287 110.232179 
L 269.918659 110.493415 
L 270.069032 110.420431 
L 270.219405 110.213422 
L 270.369777 109.755702 
L 270.52015 109.685316 
L 270.670523 109.874063 
L 270.820895 109.821554 
L 270.971268 110.0811 
L 271.12164 110.011796 
L 271.272013 110.364895 
L 271.422386 110.358153 
L 271.572758 109.237409 
L 271.723131 108.988706 
L 271.873504 108.977097 
L 272.174249 108.394486 
L 272.324622 108.441308 
L 272.474994 108.149989 
L 272.77574 108.294952 
L 273.37723 107.497372 
L 273.677975 106.137757 
L 273.978721 106.732109 
L 274.279466 106.145261 
L 274.429839 106.17905 
L 274.580211 106.051429 
L 274.880957 105.632123 
L 275.031329 105.908397 
L 275.181702 106.468864 
L 275.482447 105.992692 
L 275.783193 106.46235 
L 275.933565 106.962888 
L 276.23431 106.335241 
L 276.384683 106.393626 
L 276.535056 106.070458 
L 276.685428 106.457968 
L 276.835801 106.025074 
L 276.986174 106.387708 
L 277.136546 106.28182 
L 277.286919 106.798284 
L 277.437292 106.316549 
L 277.587664 106.392671 
L 277.738037 106.285039 
L 277.88841 106.546943 
L 278.038782 106.470876 
L 278.189155 105.578801 
L 278.339528 105.54665 
L 278.4899 105.703529 
L 278.640273 105.350208 
L 278.790646 105.60208 
L 279.091391 104.698194 
L 279.241763 105.031987 
L 279.392136 104.986019 
L 279.843254 104.076988 
L 279.993627 104.419209 
L 280.143999 104.21356 
L 280.294372 103.69266 
L 280.444745 103.591719 
L 280.595117 103.352506 
L 280.74549 103.461749 
L 280.895863 103.957013 
L 281.497353 102.23626 
L 281.798098 102.101441 
L 282.098844 100.922842 
L 282.249216 101.101549 
L 282.399589 100.336054 
L 282.549962 100.574399 
L 282.700334 100.579219 
L 283.00108 99.506057 
L 283.151452 99.638137 
L 283.452198 99.395583 
L 283.60257 98.773291 
L 283.752943 99.05741 
L 283.903316 99.753842 
L 284.504806 98.737986 
L 284.805551 97.162223 
L 285.106297 97.649101 
L 285.407042 97.324637 
L 285.707787 96.390332 
L 286.008533 96.69847 
L 286.158905 96.077 
L 286.309278 95.9959 
L 286.459651 96.202652 
L 286.910768 95.187922 
L 287.361886 95.57451 
L 287.512259 95.243832 
L 287.662632 95.599749 
L 288.264122 94.958835 
L 288.414495 94.441557 
L 288.564868 94.324354 
L 288.71524 94.556254 
L 288.865613 94.486597 
L 289.015986 94.68485 
L 289.166358 94.627475 
L 289.467103 94.211528 
L 289.767849 93.654652 
L 290.068594 93.498655 
L 290.369339 93.595134 
L 290.519712 93.492986 
L 290.670085 93.623074 
L 290.820457 93.334856 
L 291.121203 93.396095 
L 291.873066 92.649777 
L 292.173811 91.541196 
L 292.474556 91.741333 
L 293.376792 91.271549 
L 293.677538 91.325014 
L 293.82791 90.972127 
L 293.978283 90.929327 
L 294.128656 91.642412 
L 294.279028 91.416027 
L 294.579773 91.463604 
L 294.730146 91.445886 
L 295.030891 90.984393 
L 295.331637 90.535658 
L 295.482009 90.347859 
L 295.782755 90.531723 
L 295.933127 90.208318 
L 296.0835 89.374731 
L 296.233873 89.284372 
L 296.384245 89.359621 
L 296.684991 88.855312 
L 296.835363 88.946592 
L 296.985736 88.696423 
L 297.136108 88.982006 
L 297.436854 89.067176 
L 297.587226 88.87358 
L 297.737599 89.768245 
L 297.887972 89.782558 
L 298.188717 89.11219 
L 298.33909 88.374202 
L 298.94058 87.965813 
L 299.090953 88.527426 
L 299.391698 87.774731 
L 299.542071 87.649073 
L 299.692443 87.234637 
L 299.842816 87.604798 
L 299.993189 87.632064 
L 300.143561 87.904753 
L 300.293934 87.776653 
L 300.594679 87.769705 
L 300.895425 87.523114 
L 301.19617 87.243162 
L 301.496915 87.290322 
L 301.647288 87.19387 
L 301.797661 87.533305 
L 302.399151 86.729052 
L 302.549524 86.858223 
L 302.850269 86.6843 
L 303.151014 86.424888 
L 303.301387 86.036187 
L 303.45176 86.003267 
L 303.602132 85.686413 
L 303.752505 85.727005 
L 303.902878 85.567478 
L 304.05325 84.989634 
L 304.353996 85.207921 
L 304.504368 84.910615 
L 304.654741 84.928244 
L 304.955486 84.570853 
L 305.256231 84.7495 
L 305.857722 84.121513 
L 306.158467 84.238919 
L 306.30884 83.762053 
L 306.609585 84.036981 
L 306.910331 83.559594 
L 307.211076 83.648406 
L 307.361448 83.288576 
L 307.511821 83.442299 
L 307.812566 82.462291 
L 307.962939 82.257996 
L 308.113312 81.856564 
L 308.263684 81.096746 
L 308.414057 81.12914 
L 308.714802 80.496981 
L 308.865175 80.353233 
L 309.16592 80.441603 
L 309.316293 80.122359 
L 309.466666 80.086244 
L 309.617038 79.690308 
L 309.767411 79.924741 
L 310.068156 79.640428 
L 310.218529 79.682672 
L 310.368901 79.437188 
L 310.519274 79.489247 
L 310.820019 79.20929 
L 310.970392 78.989872 
L 311.271137 79.191489 
L 311.42151 79.453302 
L 311.571883 79.214736 
L 311.722255 78.658469 
L 311.872628 78.658831 
L 312.173373 78.247135 
L 312.323746 78.199007 
L 312.474118 78.415533 
L 312.925236 78.193954 
L 313.376354 77.860784 
L 313.526727 77.072607 
L 314.128218 76.285897 
L 314.27859 75.892904 
L 314.428963 76.010313 
L 316.233435 74.707721 
L 316.53418 74.686082 
L 316.684553 74.827367 
L 316.985298 74.742773 
L 317.135671 74.901572 
L 317.586788 74.539466 
L 317.887534 74.270099 
L 318.188279 74.370602 
L 318.489024 74.39237 
L 318.639397 74.247535 
L 318.940142 74.608295 
L 319.992751 73.965354 
L 320.293496 74.433901 
L 320.744614 74.093479 
L 321.195732 73.821617 
L 321.64685 73.811073 
L 322.097968 73.534401 
L 322.248341 73.635905 
L 323.451322 73.132217 
L 323.601694 72.748568 
L 324.052812 72.724321 
L 324.50393 72.59491 
L 324.804676 72.200933 
L 324.955048 72.12307 
L 325.105421 72.24188 
L 325.857284 71.734606 
L 326.007657 71.799576 
L 326.158029 71.721339 
L 326.308402 71.470365 
L 326.609147 71.518215 
L 326.75952 71.864245 
L 327.210638 71.584423 
L 327.361011 71.230757 
L 327.511383 71.18907 
L 327.812129 70.931359 
L 327.962501 71.041717 
L 328.413619 70.719789 
L 328.563992 70.594752 
L 328.714364 70.800629 
L 329.466228 70.445673 
L 329.766973 70.380899 
L 330.218091 70.130939 
L 330.518836 70.309684 
L 331.120327 70.062771 
L 331.721817 70.025887 
L 332.022563 69.988601 
L 333.075171 69.726574 
L 333.526289 69.686912 
L 333.827034 69.861585 
L 334.12778 69.749253 
L 334.428525 69.673008 
L 335.030016 69.585901 
L 335.180388 69.717378 
L 335.481134 69.605148 
L 335.631506 69.470553 
L 335.932251 68.611298 
L 336.082624 68.826206 
L 336.533742 68.520216 
L 336.834487 68.570975 
L 337.285605 68.379189 
L 337.586351 68.310578 
L 337.736723 68.18643 
L 338.187841 68.362996 
L 338.638959 68.293569 
L 338.939704 68.211419 
L 339.090077 68.318544 
L 339.541195 68.169276 
L 339.992313 68.1692 
L 340.142686 68.111272 
L 340.443431 68.144003 
L 341.345667 68.100958 
L 341.496039 67.957623 
L 341.796785 67.957223 
L 341.947157 67.861799 
L 342.247903 67.903464 
L 342.849393 67.837284 
L 342.999766 67.889848 
L 343.601256 67.740968 
L 344.202747 67.710785 
L 344.653865 67.739522 
L 345.255356 67.749849 
L 346.007219 67.97678 
L 346.307964 67.883471 
L 346.458337 67.739876 
L 346.608709 67.773812 
L 346.759082 68.032199 
L 347.661318 67.709757 
L 348.112436 67.759677 
L 348.262809 67.507321 
L 348.713926 67.505031 
L 349.315417 67.283765 
L 349.616162 67.258851 
L 349.916908 66.999279 
L 350.518398 67.025194 
L 350.668771 67.376788 
L 350.819144 67.203385 
L 350.969516 67.298437 
L 351.871752 66.858397 
L 352.172497 66.694115 
L 352.32287 66.776808 
L 352.623615 66.690095 
L 352.773988 66.780912 
L 352.924361 66.693757 
L 353.225106 66.434537 
L 353.525851 66.433794 
L 353.826596 66.249839 
L 354.127342 65.992361 
L 354.277714 65.980155 
L 354.728832 66.531454 
L 354.879205 66.415765 
L 355.029578 66.472387 
L 355.17995 66.796181 
L 355.330323 66.60755 
L 355.480696 66.729776 
L 355.631068 66.552229 
L 355.781441 66.620856 
L 355.931814 66.486741 
L 356.082186 66.521383 
L 356.382931 66.259288 
L 356.533304 66.237593 
L 356.683677 66.028021 
L 357.585913 66.017319 
L 357.886658 65.886696 
L 358.638521 65.842014 
L 358.788894 66.007794 
L 359.390384 65.803695 
L 359.841502 65.396706 
L 359.991875 65.481337 
L 360.29262 64.983794 
L 360.442993 64.77204 
L 360.593366 64.829236 
L 360.894111 64.587835 
L 361.345229 64.879195 
L 361.796347 64.677804 
L 361.946719 64.421172 
L 362.247465 64.5093 
L 362.397837 64.470558 
L 362.54821 64.566057 
L 363.149701 64.028269 
L 363.600819 63.83317 
L 363.901564 63.743776 
L 364.352682 63.753749 
L 364.653427 63.563432 
L 364.8038 63.550728 
L 365.104545 63.305986 
L 365.254918 63.300942 
L 365.555663 62.963129 
L 365.856408 62.835297 
L 366.006781 62.990375 
L 366.307526 62.741956 
L 366.608272 62.548497 
L 366.758644 62.625834 
L 367.059389 62.489302 
L 367.209762 62.2393 
L 367.360135 62.458721 
L 367.66088 62.165715 
L 367.961625 61.975059 
L 368.863861 61.697395 
L 369.014234 61.701774 
L 369.164607 61.593185 
L 369.465352 61.860263 
L 369.615724 62.02086 
L 369.766097 61.84655 
L 369.91647 61.887499 
L 370.668333 61.452198 
L 370.969078 61.439655 
L 371.420196 61.45142 
L 371.720942 61.173855 
L 372.322432 60.955417 
L 372.623177 60.895218 
L 372.77355 60.835636 
L 372.923923 61.021953 
L 373.074295 60.726999 
L 373.525413 60.746868 
L 374.126904 60.559834 
L 374.427649 60.546972 
L 374.728394 60.330641 
L 376.683239 59.716164 
L 376.833612 59.780472 
L 377.435102 59.573476 
L 378.036593 59.421574 
L 378.337338 58.914812 
L 379.540319 58.64803 
L 379.841064 58.658711 
L 379.991437 58.915621 
L 380.442555 58.461378 
L 380.7433 58.576134 
L 380.893673 58.478743 
L 381.344791 58.560852 
L 381.645536 58.443969 
L 381.795909 58.484258 
L 381.946282 58.295412 
L 382.397399 58.400478 
L 382.848517 58.248077 
L 384.352244 57.77887 
L 384.502617 57.850865 
L 384.803362 57.777949 
L 384.953734 57.907923 
L 385.25448 57.683954 
L 385.404852 57.718068 
L 385.555225 57.592452 
L 386.006343 57.611023 
L 386.607834 57.373307 
L 387.058952 57.455228 
L 387.209324 57.666845 
L 387.660442 57.533054 
L 387.810815 57.618211 
L 388.11156 57.468051 
L 388.261933 57.930599 
L 388.562678 57.778404 
L 389.013796 57.208253 
L 389.164169 57.248553 
L 389.464914 57.063351 
L 389.615287 57.045914 
L 389.916032 56.634691 
L 390.066404 56.688504 
L 390.517522 56.500743 
L 390.818268 56.497761 
L 390.96864 56.522314 
L 391.419758 56.129236 
L 391.570131 55.861027 
L 391.720504 56.186418 
L 391.870876 55.673433 
L 392.472367 55.399024 
L 392.622739 54.999079 
L 392.773112 55.1425 
L 393.073857 54.988711 
L 393.22423 55.106177 
L 393.675348 54.789012 
L 393.976093 54.605846 
L 394.276839 54.768247 
L 394.427211 54.784432 
L 394.727957 55.292307 
L 395.028702 54.889596 
L 395.179074 54.834111 
L 395.329447 54.592166 
L 395.47982 54.600585 
L 395.630192 54.043458 
L 395.930938 54.381542 
L 396.08131 54.304611 
L 396.231683 54.037581 
L 396.382056 54.152318 
L 396.532428 54.080239 
L 396.682801 54.292254 
L 396.833174 54.258353 
L 396.983546 54.544236 
L 397.284292 54.501943 
L 397.585037 54.027439 
L 397.735409 54.237995 
L 397.885782 53.900412 
L 398.036155 53.945545 
L 398.487273 53.568 
L 398.487273 53.568 
" clip-path="url(#p19ff54dfbf)" style="fill: none; stroke: #ff7f0e; stroke-opacity: 0.7; stroke-width: 1.5; stroke-linecap: square"/>
   </g>
   <g id="line2d_16">
    <path d="M 73.832727 151.728025 
L 74.133473 151.692939 
L 74.283845 151.868453 
L 74.584591 151.627534 
L 74.885336 151.908395 
L 75.336454 152.086334 
L 75.486826 152.009943 
L 75.637199 152.158519 
L 75.787572 152.107964 
L 76.088317 152.43136 
L 76.23869 152.465315 
L 76.389062 152.634296 
L 76.539435 152.527577 
L 76.84018 152.710551 
L 77.441671 152.531613 
L 77.742416 152.703246 
L 78.193534 152.814473 
L 78.343907 152.820811 
L 78.494279 152.941448 
L 78.945397 152.746818 
L 79.246143 152.544218 
L 79.847633 152.541466 
L 79.998006 152.612328 
L 80.148378 152.505766 
L 80.449124 152.585522 
L 80.749869 152.576576 
L 81.652105 152.634835 
L 82.704713 152.395691 
L 83.155831 152.615922 
L 83.456577 152.501775 
L 83.606949 152.452964 
L 84.058067 152.577985 
L 84.358813 152.627447 
L 84.509185 152.802553 
L 85.561794 152.905395 
L 85.862539 153.024278 
L 86.163284 153.060023 
L 86.313657 153.191064 
L 86.46403 153.043068 
L 86.614402 153.139951 
L 86.764775 153.083421 
L 87.06552 153.231846 
L 87.366266 153.263102 
L 88.118129 153.46891 
L 89.020365 153.446539 
L 89.471483 153.518048 
L 90.072973 153.482786 
L 90.373718 153.527929 
L 90.824836 153.380584 
L 91.727072 153.428279 
L 92.478936 153.456484 
L 93.230799 153.450092 
L 93.381171 153.33875 
L 93.681917 153.331068 
L 93.982662 153.381844 
L 94.43378 153.423354 
L 94.884898 153.505182 
L 96.087879 153.472195 
L 96.538997 153.630638 
L 97.741978 153.871447 
L 98.193096 153.842638 
L 98.794587 154.010651 
L 99.245705 154.172785 
L 99.696823 154.210473 
L 100.147941 154.316838 
L 100.448686 154.307434 
L 100.899804 154.354757 
L 101.200549 154.290055 
L 103.756884 154.413697 
L 104.358375 154.465294 
L 106.313219 154.690562 
L 106.613964 154.588025 
L 107.666573 154.731365 
L 109.170299 154.835638 
L 109.621417 154.823492 
L 109.922163 154.883834 
L 110.523653 154.919435 
L 113.079988 155.183039 
L 115.335578 155.565432 
L 116.087441 155.729661 
L 117.591168 155.865571 
L 117.891913 155.738286 
L 118.343031 155.788766 
L 118.643776 155.783028 
L 118.944521 155.788523 
L 119.245267 155.915062 
L 119.99713 155.88777 
L 120.899366 155.911776 
L 122.25272 156.020394 
L 122.553465 156.056082 
L 123.305328 156.097926 
L 123.756446 156.093283 
L 124.357937 156.195877 
L 125.260173 156.243388 
L 129.771352 156.451562 
L 130.372843 156.518823 
L 133.229923 156.829442 
L 133.981786 156.950389 
L 135.034395 157.141864 
L 137.741102 157.526419 
L 138.041848 157.674 
L 138.944084 157.674813 
L 139.545574 157.657611 
L 141.500419 157.8191 
L 143.605636 158.070838 
L 143.756008 158.200163 
L 143.906381 158.140804 
L 144.207126 158.260875 
L 144.507871 158.189302 
L 144.808617 158.062847 
L 144.958989 158.230722 
L 145.861225 158.21412 
L 146.161971 158.308665 
L 146.763461 158.272976 
L 148.718306 158.36377 
L 149.019051 158.429935 
L 149.770914 158.538094 
L 150.222032 158.771627 
L 150.372405 158.77757 
L 150.67315 159.084014 
L 150.823523 158.735124 
L 150.973895 158.937756 
L 151.575386 158.742931 
L 151.725759 158.935181 
L 152.026504 158.699935 
L 152.778367 158.917856 
L 152.92874 158.805187 
L 153.079112 158.949863 
L 153.379858 158.729177 
L 153.53023 158.86638 
L 153.680603 158.654479 
L 153.830976 158.717709 
L 153.981348 158.924751 
L 154.582839 158.745361 
L 154.883584 158.629334 
L 155.635447 158.600373 
L 156.988801 159.046482 
L 157.289547 159.04552 
L 157.439919 158.94788 
L 157.740664 158.988493 
L 158.191782 158.863138 
L 158.943646 158.989317 
L 159.244391 158.85085 
L 159.545136 158.859264 
L 160.146627 158.819608 
L 160.447372 158.783286 
L 161.800726 158.832373 
L 164.357061 158.557153 
L 164.657806 158.545935 
L 165.710415 158.559018 
L 168.717868 158.39004 
L 169.018613 158.661052 
L 169.319358 158.654425 
L 169.770476 158.651577 
L 172.627557 158.379807 
L 173.529792 158.263326 
L 173.98091 158.304099 
L 174.281656 158.31712 
L 174.883146 158.244885 
L 175.484637 158.317258 
L 176.2365 158.329392 
L 176.837991 158.261588 
L 177.138736 158.371018 
L 187.364076 158.588833 
L 187.664821 158.530665 
L 189.168548 158.427758 
L 189.619666 158.422533 
L 189.770038 157.93101 
L 190.070784 158.053855 
L 190.521902 158.179715 
L 190.672274 158.196371 
L 190.822647 158.427543 
L 191.724883 158.449511 
L 192.025628 158.409673 
L 192.326373 158.310951 
L 192.627119 158.406948 
L 195.484199 158.556091 
L 195.784944 158.506743 
L 196.536807 158.661297 
L 196.837553 158.669178 
L 196.987925 158.8522 
L 197.589416 158.774597 
L 198.491652 158.839712 
L 198.792397 158.68317 
L 199.393888 158.862994 
L 200.596869 158.807359 
L 200.897614 158.763699 
L 201.19836 158.80514 
L 201.649477 158.855598 
L 201.79985 158.799921 
L 201.950223 158.887748 
L 202.250968 158.811588 
L 202.702086 158.872501 
L 203.002831 158.899866 
L 203.303577 158.998839 
L 203.604322 158.980225 
L 204.957676 158.932711 
L 205.559166 158.912755 
L 207.062893 158.842971 
L 207.514011 158.864005 
L 208.115501 158.830707 
L 209.318482 158.718042 
L 210.220718 158.794721 
L 210.371091 158.958452 
L 210.972582 158.995213 
L 211.122954 159.068031 
L 211.273327 158.929957 
L 211.874817 159.038331 
L 212.325935 159.038123 
L 212.476308 159.0926 
L 212.777053 159.046308 
L 213.528917 159.273251 
L 213.829662 159.244746 
L 214.130407 159.304681 
L 215.784506 159.553604 
L 216.385997 159.23514 
L 217.438605 159.303518 
L 221.197922 159.175894 
L 221.949785 159.332591 
L 222.701648 159.347313 
L 223.152766 159.451813 
L 223.453511 159.614158 
L 224.055002 159.640925 
L 224.205375 159.745672 
L 224.355747 159.685761 
L 224.957238 159.847018 
L 225.408356 159.963007 
L 225.558728 160.184889 
L 226.009846 160.212857 
L 226.310592 160.232399 
L 226.76171 160.464847 
L 227.062455 160.392436 
L 227.3632 160.712151 
L 228.265436 160.762051 
L 228.415809 160.903497 
L 228.566181 160.828974 
L 228.716554 160.578548 
L 228.866927 160.549269 
L 229.318045 160.951134 
L 229.61879 160.751552 
L 229.769162 160.756746 
L 229.919535 160.579942 
L 230.22028 160.711976 
L 230.370653 160.642284 
L 230.521026 160.448759 
L 230.671398 160.477476 
L 230.972144 160.404083 
L 231.423262 160.546212 
L 231.573634 160.550687 
L 231.87438 161.042672 
L 232.175125 161.157264 
L 232.47587 160.907688 
L 232.626243 161.055046 
L 232.776615 160.895515 
L 233.077361 161.066387 
L 233.227733 161.330493 
L 233.378106 161.252151 
L 233.528479 161.387813 
L 233.678851 161.370456 
L 233.979597 161.585265 
L 234.129969 161.590486 
L 234.280342 162.006458 
L 234.430715 162.054625 
L 234.581087 161.84842 
L 235.182578 163.007803 
L 235.483323 162.432433 
L 235.784068 161.650708 
L 236.084814 162.474247 
L 236.385559 161.859069 
L 236.535932 161.794278 
L 236.686304 161.972238 
L 236.98705 161.643939 
L 237.137422 160.831763 
L 237.287795 161.223386 
L 237.438168 161.186734 
L 237.738913 161.373714 
L 237.889285 161.394268 
L 238.039658 160.919663 
L 238.340403 161.549713 
L 238.490776 161.60991 
L 238.641149 161.405343 
L 238.791521 161.534794 
L 239.092267 162.104255 
L 239.242639 161.931349 
L 239.543385 162.016487 
L 239.693757 161.902448 
L 239.84413 163.119337 
L 240.144875 162.474274 
L 240.295248 162.764147 
L 240.595993 162.076288 
L 240.746366 162.237095 
L 240.896738 161.895766 
L 241.197484 162.542248 
L 241.347856 162.276362 
L 241.498229 163.021604 
L 241.648602 162.878776 
L 241.798974 163.004233 
L 242.09972 161.370248 
L 242.250092 161.519478 
L 242.550838 160.84331 
L 242.70121 160.70704 
L 242.851583 160.369108 
L 243.001955 161.089707 
L 243.152328 160.81334 
L 243.302701 161.036349 
L 243.453073 160.764786 
L 243.603446 160.932287 
L 243.753819 160.930787 
L 244.204937 162.032998 
L 244.505682 162.289817 
L 244.656055 162.092526 
L 244.806427 162.679666 
L 245.257545 161.392086 
L 245.407918 161.47921 
L 246.610899 159.609524 
L 246.761272 160.297947 
L 246.911644 160.449186 
L 247.062017 160.409419 
L 247.362762 160.671714 
L 247.513135 160.531198 
L 247.81388 160.628427 
L 247.964253 160.363138 
L 248.264998 160.374619 
L 248.415371 160.295923 
L 248.565743 159.953706 
L 248.716116 160.367993 
L 248.866489 160.328783 
L 249.016861 160.670147 
L 249.317607 160.714847 
L 249.467979 161.27132 
L 249.768725 160.968772 
L 250.370215 159.227579 
L 250.520588 159.380862 
L 250.821333 158.680231 
L 251.272451 158.483085 
L 251.422824 159.346499 
L 251.723569 159.48131 
L 251.873942 159.185926 
L 252.024314 159.882361 
L 252.174687 159.639101 
L 252.32506 159.138761 
L 252.475432 159.194806 
L 252.625805 158.60066 
L 252.776178 159.333062 
L 252.92655 159.028436 
L 253.227295 159.601553 
L 253.377668 159.38721 
L 253.528041 158.782855 
L 253.678413 158.947688 
L 253.828786 157.577781 
L 254.129531 158.291864 
L 254.279904 157.828343 
L 254.430277 157.744297 
L 254.580649 157.466346 
L 254.731022 157.58519 
L 254.881395 156.643353 
L 255.031767 157.464708 
L 255.18214 157.134406 
L 255.332513 157.479612 
L 255.482885 156.955516 
L 255.633258 157.802231 
L 256.084376 157.919473 
L 256.234748 157.655883 
L 256.385121 157.681204 
L 256.535494 157.894261 
L 256.685866 158.5437 
L 256.836239 158.437426 
L 257.136984 159.01769 
L 257.43773 158.286094 
L 257.588102 158.527184 
L 257.738475 158.287784 
L 257.888848 158.37167 
L 258.03922 159.167379 
L 258.189593 159.174595 
L 258.339965 159.516738 
L 258.490338 159.342699 
L 258.791083 160.434147 
L 258.941456 160.341134 
L 259.091829 160.082043 
L 259.242201 160.158494 
L 259.392574 159.735064 
L 259.693319 159.840626 
L 259.843692 159.380159 
L 259.994065 159.446012 
L 260.29481 159.952862 
L 260.445183 159.507008 
L 260.595555 159.653182 
L 260.745928 160.215097 
L 260.8963 160.165823 
L 261.046673 160.322621 
L 261.347418 159.92191 
L 261.798536 160.165283 
L 261.948909 159.979125 
L 262.249654 160.103335 
L 262.400027 160.021723 
L 262.5504 160.229633 
L 262.700772 160.173059 
L 262.851145 160.354732 
L 263.001518 160.146129 
L 263.452635 160.125496 
L 263.603008 160.052771 
L 263.903753 160.237204 
L 264.204499 159.839489 
L 264.505244 160.439013 
L 265.40748 161.694441 
L 265.557853 161.69046 
L 265.708225 162.0761 
L 266.309716 161.353958 
L 266.911206 162.678072 
L 267.061579 162.502481 
L 267.211952 162.90441 
L 267.512697 162.721281 
L 267.66307 162.598824 
L 267.813442 163.194637 
L 268.26456 162.929005 
L 268.414933 162.780923 
L 268.565305 162.94848 
L 269.016423 163.925839 
L 269.317169 163.945805 
L 269.467541 163.73331 
L 269.617914 164.078182 
L 269.768287 163.690568 
L 270.069032 164.231747 
L 270.219405 164.175131 
L 270.369777 163.728415 
L 270.52015 163.749794 
L 270.971268 164.330881 
L 271.12164 164.37225 
L 271.422386 164.958606 
L 271.572758 163.915686 
L 271.723131 163.931415 
L 271.873504 164.072114 
L 272.023876 163.90169 
L 272.324622 164.360227 
L 272.474994 164.173181 
L 272.77574 164.735608 
L 273.076485 164.608441 
L 273.226858 164.845345 
L 273.37723 164.609279 
L 273.677975 163.640708 
L 273.978721 164.603161 
L 274.129093 164.279105 
L 274.580211 164.293839 
L 274.730584 164.147851 
L 274.880957 164.173496 
L 275.031329 164.495393 
L 275.181702 165.144971 
L 275.332075 164.850772 
L 275.783193 165.637609 
L 275.933565 166.277111 
L 276.083938 165.917292 
L 276.535056 165.929548 
L 276.685428 166.434269 
L 276.835801 166.246443 
L 277.286919 167.565225 
L 277.437292 167.216374 
L 277.738037 167.523567 
L 277.88841 167.99209 
L 278.038782 168.079862 
L 278.189155 167.257398 
L 278.790646 167.679218 
L 279.091391 167.076089 
L 279.392136 167.674407 
L 279.843254 167.314326 
L 279.993627 167.793889 
L 280.143999 167.62341 
L 280.294372 167.146933 
L 280.595117 167.113581 
L 280.74549 167.345128 
L 280.895863 167.979673 
L 281.046235 167.743255 
L 281.196608 167.143811 
L 281.346981 167.114087 
L 281.497353 166.887188 
L 281.798098 166.982782 
L 282.098844 166.014312 
L 282.249216 166.217566 
L 282.399589 165.568803 
L 282.700334 165.997429 
L 283.00108 165.248778 
L 283.151452 165.464999 
L 283.301825 165.247682 
L 283.452198 165.360542 
L 283.60257 164.673916 
L 284.053688 165.566735 
L 284.354433 165.218561 
L 284.504806 164.987045 
L 284.805551 163.660016 
L 285.256669 164.437877 
L 285.407042 164.361288 
L 285.557415 163.901286 
L 285.707787 163.909015 
L 286.008533 164.381706 
L 286.158905 163.825719 
L 286.309278 163.816542 
L 286.459651 164.163714 
L 286.760396 163.411612 
L 287.061141 163.597979 
L 287.361886 163.920851 
L 287.512259 163.736677 
L 287.662632 164.068551 
L 287.813004 164.058798 
L 288.11375 163.827062 
L 288.264122 163.840375 
L 288.414495 163.389851 
L 288.564868 163.37537 
L 288.71524 163.692444 
L 288.865613 163.641464 
L 289.166358 163.800182 
L 289.467103 163.641926 
L 289.617476 163.299211 
L 290.369339 163.577541 
L 290.670085 163.848987 
L 290.820457 163.62463 
L 291.121203 163.825051 
L 291.873066 163.513456 
L 292.023438 162.756639 
L 292.173811 162.635333 
L 292.474556 163.156889 
L 292.775302 163.217281 
L 293.22642 163.339278 
L 293.527165 163.485184 
L 293.677538 163.551639 
L 293.82791 163.259285 
L 293.978283 163.383079 
L 294.128656 164.215312 
L 294.279028 164.148075 
L 294.730146 164.631196 
L 294.880519 164.592971 
L 295.331637 164.174547 
L 295.632382 164.083441 
L 295.782755 164.378939 
L 295.933127 164.226102 
L 296.0835 163.604766 
L 296.384245 163.714093 
L 296.684991 163.46174 
L 296.835363 163.73847 
L 296.985736 163.648727 
L 297.286481 164.093329 
L 297.436854 164.168797 
L 297.587226 163.997362 
L 297.737599 164.96019 
L 297.887972 165.176337 
L 298.038344 165.061489 
L 298.188717 164.786911 
L 298.33909 164.253574 
L 298.489462 164.378892 
L 298.639835 164.326534 
L 298.94058 164.510594 
L 299.090953 165.100904 
L 299.241326 164.70907 
L 299.542071 164.681578 
L 299.692443 164.419347 
L 299.842816 164.864841 
L 299.993189 164.95771 
L 300.143561 165.292954 
L 301.19617 165.1399 
L 301.346543 165.287372 
L 301.647288 165.228508 
L 301.797661 165.664182 
L 301.948033 165.572905 
L 302.098406 165.621695 
L 302.248778 165.551767 
L 302.399151 165.267723 
L 302.549524 165.491123 
L 302.850269 165.560636 
L 303.000642 165.639864 
L 303.151014 165.505479 
L 303.301387 165.141453 
L 303.45176 165.240429 
L 303.602132 165.080866 
L 303.752505 165.182812 
L 303.902878 165.037286 
L 304.05325 164.485643 
L 304.353996 164.855416 
L 304.504368 164.609395 
L 304.654741 164.681075 
L 304.955486 164.350584 
L 305.256231 164.641116 
L 305.556977 164.508875 
L 305.707349 164.318002 
L 306.008095 164.390236 
L 306.158467 164.566976 
L 306.30884 164.171796 
L 306.609585 164.572944 
L 306.910331 164.292515 
L 307.211076 164.510699 
L 307.361448 164.293552 
L 307.511821 164.562529 
L 307.812566 163.803527 
L 307.962939 163.690425 
L 308.113312 163.365791 
L 308.263684 162.669916 
L 308.414057 162.862654 
L 308.56443 162.555157 
L 309.16592 162.997307 
L 309.316293 162.779128 
L 309.466666 162.862579 
L 309.617038 162.625698 
L 309.767411 162.943829 
L 309.917783 162.82652 
L 310.218529 162.950963 
L 310.368901 162.720223 
L 310.519274 162.82277 
L 310.820019 162.570511 
L 310.970392 162.346699 
L 311.271137 162.568595 
L 311.42151 163.008916 
L 311.571883 162.956219 
L 311.722255 162.535679 
L 311.872628 162.683838 
L 312.023001 162.502631 
L 312.323746 162.574318 
L 312.474118 162.858542 
L 312.774864 162.75705 
L 313.225982 162.538233 
L 313.376354 162.337412 
L 313.526727 161.636722 
L 313.827472 161.768339 
L 313.977845 161.397164 
L 314.128218 161.427848 
L 314.27859 161.14894 
L 314.428963 161.420949 
L 314.729708 161.362667 
L 314.880081 161.174788 
L 315.030453 161.312791 
L 315.631944 161.216034 
L 316.53418 161.147871 
L 316.684553 161.358517 
L 316.834925 161.353556 
L 317.286043 161.644666 
L 317.887534 161.37715 
L 318.188279 161.590412 
L 318.489024 161.752084 
L 318.639397 161.662973 
L 318.940142 162.173214 
L 319.992751 162.125635 
L 320.293496 162.656607 
L 321.045359 162.656948 
L 321.64685 162.909572 
L 322.097968 163.005483 
L 322.248341 163.171067 
L 322.398713 163.164963 
L 322.699459 163.31781 
L 323.451322 163.366487 
L 323.601694 163.025208 
L 324.203185 163.287448 
L 324.50393 163.329821 
L 324.654303 163.072454 
L 324.955048 162.972238 
L 325.105421 163.126912 
L 325.556539 163.002377 
L 326.458775 162.92125 
L 326.609147 162.931573 
L 326.75952 163.276882 
L 327.060265 163.331933 
L 327.210638 163.430189 
L 327.361011 163.132661 
L 327.511383 163.200311 
L 327.661756 163.053437 
L 327.812129 163.095717 
L 327.962501 163.266753 
L 328.263246 163.240489 
L 328.563992 163.137458 
L 328.714364 163.411458 
L 330.368464 163.265301 
L 330.518836 163.46255 
L 330.819581 163.436372 
L 332.172935 163.572234 
L 333.225544 163.825292 
L 333.827034 164.285727 
L 333.977407 164.191748 
L 334.428525 164.403489 
L 335.481134 164.743782 
L 335.631506 164.762306 
L 335.932251 164.068221 
L 336.082624 164.450815 
L 336.383369 164.352274 
L 336.533742 164.327265 
L 336.834487 164.576204 
L 337.285605 164.489502 
L 337.586351 164.440576 
L 337.736723 164.35288 
L 338.187841 164.566332 
L 339.24045 164.684481 
L 339.541195 164.72107 
L 339.992313 164.750382 
L 340.142686 164.695163 
L 340.593804 164.800035 
L 340.894549 164.795754 
L 341.044921 164.943594 
L 341.646412 164.971104 
L 342.849393 165.164544 
L 342.999766 165.278002 
L 343.300511 165.286596 
L 343.601256 165.411608 
L 345.556101 166.307114 
L 345.856846 166.671394 
L 346.157591 166.687924 
L 346.608709 166.732039 
L 346.759082 167.043913 
L 347.962063 167.254684 
L 348.112436 167.371657 
L 348.262809 167.207026 
L 349.014672 167.581549 
L 349.315417 167.661164 
L 349.616162 167.808317 
L 349.766535 167.651412 
L 350.518398 167.951779 
L 350.668771 168.334844 
L 350.819144 168.23527 
L 351.119889 168.419296 
L 351.871752 168.543059 
L 352.172497 168.43815 
L 352.473243 168.564041 
L 352.623615 168.520105 
L 352.924361 168.746615 
L 353.074733 168.527709 
L 353.826596 168.472827 
L 353.976969 168.270806 
L 354.277714 168.342136 
L 354.728832 169.079879 
L 354.879205 169.068186 
L 355.029578 169.195682 
L 355.17995 169.604028 
L 355.330323 169.461229 
L 355.480696 169.63038 
L 355.631068 169.499819 
L 355.781441 169.581917 
L 355.931814 169.492534 
L 356.082186 169.584761 
L 356.232559 169.474725 
L 356.533304 169.612768 
L 356.683677 169.40021 
L 356.984422 169.671058 
L 357.134795 169.563906 
L 357.886658 169.891769 
L 358.337776 170.033582 
L 358.488149 170.062284 
L 359.089639 170.581051 
L 359.390384 170.610826 
L 359.69113 170.614158 
L 359.841502 170.43429 
L 359.991875 170.662476 
L 360.29262 170.363574 
L 360.442993 170.192685 
L 360.593366 170.338687 
L 360.894111 170.329079 
L 361.495601 170.813188 
L 362.097092 170.713149 
L 362.698583 170.747515 
L 363.450446 170.675596 
L 364.8038 170.738899 
L 365.104545 170.616227 
L 365.254918 170.662636 
L 365.40529 170.479387 
L 365.856408 170.463544 
L 366.006781 170.685544 
L 366.457899 170.621697 
L 366.608272 170.599593 
L 366.909017 170.753683 
L 367.059389 170.758495 
L 367.209762 170.590999 
L 367.360135 170.892244 
L 367.66088 170.74079 
L 368.412743 170.558151 
L 368.563116 170.421736 
L 368.863861 170.583731 
L 369.314979 170.581857 
L 369.615724 171.035394 
L 369.766097 170.946682 
L 369.91647 171.068269 
L 370.367588 171.001846 
L 370.51796 171.097838 
L 370.668333 170.986195 
L 370.969078 171.086522 
L 371.420196 171.205784 
L 371.871314 171.15182 
L 372.172059 171.228878 
L 372.472805 171.385549 
L 373.074295 171.605588 
L 373.675786 171.656319 
L 374.878767 171.909278 
L 375.63063 171.854022 
L 375.781003 171.934642 
L 375.931376 171.825955 
L 376.232121 171.871545 
L 376.683239 171.917825 
L 376.833612 172.024032 
L 377.284729 171.943026 
L 377.88622 171.920557 
L 378.036593 171.863341 
L 378.186965 171.512543 
L 378.487711 171.501056 
L 379.089201 171.597739 
L 379.540319 171.53701 
L 379.841064 171.599594 
L 379.991437 171.866157 
L 380.442555 171.528646 
L 380.7433 171.667395 
L 381.044046 171.680138 
L 382.247027 171.687129 
L 383.299635 171.740076 
L 383.600381 171.623135 
L 384.352244 171.638138 
L 384.652989 171.732495 
L 384.803362 171.755238 
L 384.953734 171.943632 
L 385.25448 171.856273 
L 385.404852 171.947264 
L 385.555225 171.884807 
L 385.85597 171.984389 
L 387.058952 172.162689 
L 387.209324 172.42527 
L 388.11156 172.730422 
L 388.261933 173.229601 
L 388.562678 173.335735 
L 388.863423 173.106545 
L 389.013796 173.061063 
L 389.164169 173.194149 
L 389.464914 173.192085 
L 389.615287 173.304121 
L 389.916032 173.082684 
L 390.818268 173.530333 
L 390.96864 173.607898 
L 391.570131 173.213962 
L 391.720504 173.617883 
L 391.870876 173.279257 
L 392.472367 173.410404 
L 392.622739 173.100648 
L 392.773112 173.358324 
L 393.073857 173.462639 
L 393.22423 173.611075 
L 393.524975 173.488819 
L 394.126466 173.703988 
L 394.577584 174.166053 
L 394.727957 174.528223 
L 395.028702 174.315102 
L 395.179074 174.401539 
L 395.329447 174.269745 
L 395.47982 174.336386 
L 395.630192 173.878525 
L 396.08131 174.260719 
L 396.231683 173.996706 
L 396.382056 174.14674 
L 396.532428 174.064408 
L 396.682801 174.365406 
L 396.833174 174.296688 
L 397.133919 174.633374 
L 397.284292 174.703211 
L 397.585037 174.432212 
L 397.735409 174.70313 
L 397.885782 174.497953 
L 398.036155 174.655018 
L 398.3369 174.527737 
L 398.487273 174.528 
L 398.487273 174.528 
" clip-path="url(#p19ff54dfbf)" style="fill: none; stroke: #2ca02c; stroke-opacity: 0.7; stroke-width: 1.5; stroke-linecap: square"/>
   </g>
   <g id="patch_3">
    <path d="M 57.6 307.584 
L 57.6 41.472 
" style="fill: none; stroke: #000000; stroke-width: 0.8; stroke-linejoin: miter; stroke-linecap: square"/>
   </g>
   <g id="patch_4">
    <path d="M 414.72 307.584 
L 414.72 41.472 
" style="fill: none; stroke: #000000; stroke-width: 0.8; stroke-linejoin: miter; stroke-linecap: square"/>
   </g>
   <g id="patch_5">
    <path d="M 57.6 307.584 
L 414.72 307.584 
" style="fill: none; stroke: #000000; stroke-width: 0.8; stroke-linejoin: miter; stroke-linecap: square"/>
   </g>
   <g id="patch_6">
    <path d="M 57.6 41.472 
L 414.72 41.472 
" style="fill: none; stroke: #000000; stroke-width: 0.8; stroke-linejoin: miter; stroke-linecap: square"/>
   </g>
   <g id="text_14">
    <!-- 1final_naive_pr_btcusd -->
    <g transform="translate(167.554688 35.472) scale(0.12 -0.12)">
     <defs>
      <path id="DejaVuSans-66" d="M 2375 4863 
L 2375 4384 
L 1825 4384 
Q 1516 4384 1395 4259 
Q 1275 4134 1275 3809 
L 1275 3500 
L 2222 3500 
L 2222 3053 
L 1275 3053 
L 1275 0 
L 697 0 
L 697 3053 
L 147 3053 
L 147 3500 
L 697 3500 
L 697 3744 
Q 697 4328 969 4595 
Q 1241 4863 1831 4863 
L 2375 4863 
z
" transform="scale(0.015625)"/>
      <path id="DejaVuSans-69" d="M 603 3500 
L 1178 3500 
L 1178 0 
L 603 0 
L 603 3500 
z
M 603 4863 
L 1178 4863 
L 1178 4134 
L 603 4134 
L 603 4863 
z
" transform="scale(0.015625)"/>
      <path id="DejaVuSans-6e" d="M 3513 2113 
L 3513 0 
L 2938 0 
L 2938 2094 
Q 2938 2591 2744 2837 
Q 2550 3084 2163 3084 
Q 1697 3084 1428 2787 
Q 1159 2491 1159 1978 
L 1159 0 
L 581 0 
L 581 3500 
L 1159 3500 
L 1159 2956 
Q 1366 3272 1645 3428 
Q 1925 3584 2291 3584 
Q 2894 3584 3203 3211 
Q 3513 2838 3513 2113 
z
" transform="scale(0.015625)"/>
      <path id="DejaVuSans-61" d="M 2194 1759 
Q 1497 1759 1228 1600 
Q 959 1441 959 1056 
Q 959 750 1161 570 
Q 1363 391 1709 391 
Q 2188 391 2477 730 
Q 2766 1069 2766 1631 
L 2766 1759 
L 2194 1759 
z
M 3341 1997 
L 3341 0 
L 2766 0 
L 2766 531 
Q 2569 213 2275 61 
Q 1981 -91 1556 -91 
Q 1019 -91 701 211 
Q 384 513 384 1019 
Q 384 1609 779 1909 
Q 1175 2209 1959 2209 
L 2766 2209 
L 2766 2266 
Q 2766 2663 2505 2880 
Q 2244 3097 1772 3097 
Q 1472 3097 1187 3025 
Q 903 2953 641 2809 
L 641 3341 
Q 956 3463 1253 3523 
Q 1550 3584 1831 3584 
Q 2591 3584 2966 3190 
Q 3341 2797 3341 1997 
z
" transform="scale(0.015625)"/>
      <path id="DejaVuSans-6c" d="M 603 4863 
L 1178 4863 
L 1178 0 
L 603 0 
L 603 4863 
z
" transform="scale(0.015625)"/>
      <path id="DejaVuSans-5f" d="M 3263 -1063 
L 3263 -1509 
L -63 -1509 
L -63 -1063 
L 3263 -1063 
z
" transform="scale(0.015625)"/>
      <path id="DejaVuSans-76" d="M 191 3500 
L 800 3500 
L 1894 563 
L 2988 3500 
L 3597 3500 
L 2284 0 
L 1503 0 
L 191 3500 
z
" transform="scale(0.015625)"/>
      <path id="DejaVuSans-65" d="M 3597 1894 
L 3597 1613 
L 953 1613 
Q 991 1019 1311 708 
Q 1631 397 2203 397 
Q 2534 397 2845 478 
Q 3156 559 3463 722 
L 3463 178 
Q 3153 47 2828 -22 
Q 2503 -91 2169 -91 
Q 1331 -91 842 396 
Q 353 884 353 1716 
Q 353 2575 817 3079 
Q 1281 3584 2069 3584 
Q 2775 3584 3186 3129 
Q 3597 2675 3597 1894 
z
M 3022 2063 
Q 3016 2534 2758 2815 
Q 2500 3097 2075 3097 
Q 1594 3097 1305 2825 
Q 1016 2553 972 2059 
L 3022 2063 
z
" transform="scale(0.015625)"/>
      <path id="DejaVuSans-70" d="M 1159 525 
L 1159 -1331 
L 581 -1331 
L 581 3500 
L 1159 3500 
L 1159 2969 
Q 1341 3281 1617 3432 
Q 1894 3584 2278 3584 
Q 2916 3584 3314 3078 
Q 3713 2572 3713 1747 
Q 3713 922 3314 415 
Q 2916 -91 2278 -91 
Q 1894 -91 1617 61 
Q 1341 213 1159 525 
z
M 3116 1747 
Q 3116 2381 2855 2742 
Q 2594 3103 2138 3103 
Q 1681 3103 1420 2742 
Q 1159 2381 1159 1747 
Q 1159 1113 1420 752 
Q 1681 391 2138 391 
Q 2594 391 2855 752 
Q 3116 1113 3116 1747 
z
" transform="scale(0.015625)"/>
      <path id="DejaVuSans-72" d="M 2631 2963 
Q 2534 3019 2420 3045 
Q 2306 3072 2169 3072 
Q 1681 3072 1420 2755 
Q 1159 2438 1159 1844 
L 1159 0 
L 581 0 
L 581 3500 
L 1159 3500 
L 1159 2956 
Q 1341 3275 1631 3429 
Q 1922 3584 2338 3584 
Q 2397 3584 2469 3576 
Q 2541 3569 2628 3553 
L 2631 2963 
z
" transform="scale(0.015625)"/>
      <path id="DejaVuSans-62" d="M 3116 1747 
Q 3116 2381 2855 2742 
Q 2594 3103 2138 3103 
Q 1681 3103 1420 2742 
Q 1159 2381 1159 1747 
Q 1159 1113 1420 752 
Q 1681 391 2138 391 
Q 2594 391 2855 752 
Q 3116 1113 3116 1747 
z
M 1159 2969 
Q 1341 3281 1617 3432 
Q 1894 3584 2278 3584 
Q 2916 3584 3314 3078 
Q 3713 2572 3713 1747 
Q 3713 922 3314 415 
Q 2916 -91 2278 -91 
Q 1894 -91 1617 61 
Q 1341 213 1159 525 
L 1159 0 
L 581 0 
L 581 4863 
L 1159 4863 
L 1159 2969 
z
" transform="scale(0.015625)"/>
      <path id="DejaVuSans-74" d="M 1172 4494 
L 1172 3500 
L 2356 3500 
L 2356 3053 
L 1172 3053 
L 1172 1153 
Q 1172 725 1289 603 
Q 1406 481 1766 481 
L 2356 481 
L 2356 0 
L 1766 0 
Q 1100 0 847 248 
Q 594 497 594 1153 
L 594 3053 
L 172 3053 
L 172 3500 
L 594 3500 
L 594 4494 
L 1172 4494 
z
" transform="scale(0.015625)"/>
      <path id="DejaVuSans-63" d="M 3122 3366 
L 3122 2828 
Q 2878 2963 2633 3030 
Q 2388 3097 2138 3097 
Q 1578 3097 1268 2742 
Q 959 2388 959 1747 
Q 959 1106 1268 751 
Q 1578 397 2138 397 
Q 2388 397 2633 464 
Q 2878 531 3122 666 
L 3122 134 
Q 2881 22 2623 -34 
Q 2366 -91 2075 -91 
Q 1284 -91 818 406 
Q 353 903 353 1747 
Q 353 2603 823 3093 
Q 1294 3584 2113 3584 
Q 2378 3584 2631 3529 
Q 2884 3475 3122 3366 
z
" transform="scale(0.015625)"/>
      <path id="DejaVuSans-75" d="M 544 1381 
L 544 3500 
L 1119 3500 
L 1119 1403 
Q 1119 906 1312 657 
Q 1506 409 1894 409 
Q 2359 409 2629 706 
Q 2900 1003 2900 1516 
L 2900 3500 
L 3475 3500 
L 3475 0 
L 2900 0 
L 2900 538 
Q 2691 219 2414 64 
Q 2138 -91 1772 -91 
Q 1169 -91 856 284 
Q 544 659 544 1381 
z
M 1991 3584 
L 1991 3584 
z
" transform="scale(0.015625)"/>
      <path id="DejaVuSans-73" d="M 2834 3397 
L 2834 2853 
Q 2591 2978 2328 3040 
Q 2066 3103 1784 3103 
Q 1356 3103 1142 2972 
Q 928 2841 928 2578 
Q 928 2378 1081 2264 
Q 1234 2150 1697 2047 
L 1894 2003 
Q 2506 1872 2764 1633 
Q 3022 1394 3022 966 
Q 3022 478 2636 193 
Q 2250 -91 1575 -91 
Q 1294 -91 989 -36 
Q 684 19 347 128 
L 347 722 
Q 666 556 975 473 
Q 1284 391 1588 391 
Q 1994 391 2212 530 
Q 2431 669 2431 922 
Q 2431 1156 2273 1281 
Q 2116 1406 1581 1522 
L 1381 1569 
Q 847 1681 609 1914 
Q 372 2147 372 2553 
Q 372 3047 722 3315 
Q 1072 3584 1716 3584 
Q 2034 3584 2315 3537 
Q 2597 3491 2834 3397 
z
" transform="scale(0.015625)"/>
      <path id="DejaVuSans-64" d="M 2906 2969 
L 2906 4863 
L 3481 4863 
L 3481 0 
L 2906 0 
L 2906 525 
Q 2725 213 2448 61 
Q 2172 -91 1784 -91 
Q 1150 -91 751 415 
Q 353 922 353 1747 
Q 353 2572 751 3078 
Q 1150 3584 1784 3584 
Q 2172 3584 2448 3432 
Q 2725 3281 2906 2969 
z
M 947 1747 
Q 947 1113 1208 752 
Q 1469 391 1925 391 
Q 2381 391 2643 752 
Q 2906 1113 2906 1747 
Q 2906 2381 2643 2742 
Q 2381 3103 1925 3103 
Q 1469 3103 1208 2742 
Q 947 2381 947 1747 
z
" transform="scale(0.015625)"/>
     </defs>
     <use xlink:href="#DejaVuSans-31"/>
     <use xlink:href="#DejaVuSans-66" x="63.623047"/>
     <use xlink:href="#DejaVuSans-69" x="98.828125"/>
     <use xlink:href="#DejaVuSans-6e" x="126.611328"/>
     <use xlink:href="#DejaVuSans-61" x="189.990234"/>
     <use xlink:href="#DejaVuSans-6c" x="251.269531"/>
     <use xlink:href="#DejaVuSans-5f" x="279.052734"/>
     <use xlink:href="#DejaVuSans-6e" x="329.052734"/>
     <use xlink:href="#DejaVuSans-61" x="392.431641"/>
     <use xlink:href="#DejaVuSans-69" x="453.710938"/>
     <use xlink:href="#DejaVuSans-76" x="481.494141"/>
     <use xlink:href="#DejaVuSans-65" x="540.673828"/>
     <use xlink:href="#DejaVuSans-5f" x="602.197266"/>
     <use xlink:href="#DejaVuSans-70" x="652.197266"/>
     <use xlink:href="#DejaVuSans-72" x="715.673828"/>
     <use xlink:href="#DejaVuSans-5f" x="756.787109"/>
     <use xlink:href="#DejaVuSans-62" x="806.787109"/>
     <use xlink:href="#DejaVuSans-74" x="870.263672"/>
     <use xlink:href="#DejaVuSans-63" x="909.472656"/>
     <use xlink:href="#DejaVuSans-75" x="964.453125"/>
     <use xlink:href="#DejaVuSans-73" x="1027.832031"/>
     <use xlink:href="#DejaVuSans-64" x="1079.931641"/>
    </g>
   </g>
   <g id="legend_1">
    <g id="patch_7">
     <path d="M 64.6 93.506375 
L 258.804688 93.506375 
Q 260.804688 93.506375 260.804688 91.506375 
L 260.804688 48.472 
Q 260.804688 46.472 258.804688 46.472 
L 64.6 46.472 
Q 62.6 46.472 62.6 48.472 
L 62.6 91.506375 
Q 62.6 93.506375 64.6 93.506375 
z
" style="fill: #ffffff; opacity: 0.8; stroke: #cccccc; stroke-linejoin: miter"/>
    </g>
    <g id="line2d_17">
     <path d="M 66.6 54.570438 
L 76.6 54.570438 
L 86.6 54.570438 
" style="fill: none; stroke: #1f77b4; stroke-opacity: 0.7; stroke-width: 1.5; stroke-linecap: square"/>
    </g>
    <g id="text_15">
     <!-- Positive cumulative predictions -->
     <g transform="translate(94.6 58.070438) scale(0.1 -0.1)">
      <defs>
       <path id="DejaVuSans-50" d="M 1259 4147 
L 1259 2394 
L 2053 2394 
Q 2494 2394 2734 2622 
Q 2975 2850 2975 3272 
Q 2975 3691 2734 3919 
Q 2494 4147 2053 4147 
L 1259 4147 
z
M 628 4666 
L 2053 4666 
Q 2838 4666 3239 4311 
Q 3641 3956 3641 3272 
Q 3641 2581 3239 2228 
Q 2838 1875 2053 1875 
L 1259 1875 
L 1259 0 
L 628 0 
L 628 4666 
z
" transform="scale(0.015625)"/>
       <path id="DejaVuSans-6f" d="M 1959 3097 
Q 1497 3097 1228 2736 
Q 959 2375 959 1747 
Q 959 1119 1226 758 
Q 1494 397 1959 397 
Q 2419 397 2687 759 
Q 2956 1122 2956 1747 
Q 2956 2369 2687 2733 
Q 2419 3097 1959 3097 
z
M 1959 3584 
Q 2709 3584 3137 3096 
Q 3566 2609 3566 1747 
Q 3566 888 3137 398 
Q 2709 -91 1959 -91 
Q 1206 -91 779 398 
Q 353 888 353 1747 
Q 353 2609 779 3096 
Q 1206 3584 1959 3584 
z
" transform="scale(0.015625)"/>
       <path id="DejaVuSans-20" transform="scale(0.015625)"/>
       <path id="DejaVuSans-6d" d="M 3328 2828 
Q 3544 3216 3844 3400 
Q 4144 3584 4550 3584 
Q 5097 3584 5394 3201 
Q 5691 2819 5691 2113 
L 5691 0 
L 5113 0 
L 5113 2094 
Q 5113 2597 4934 2840 
Q 4756 3084 4391 3084 
Q 3944 3084 3684 2787 
Q 3425 2491 3425 1978 
L 3425 0 
L 2847 0 
L 2847 2094 
Q 2847 2600 2669 2842 
Q 2491 3084 2119 3084 
Q 1678 3084 1418 2786 
Q 1159 2488 1159 1978 
L 1159 0 
L 581 0 
L 581 3500 
L 1159 3500 
L 1159 2956 
Q 1356 3278 1631 3431 
Q 1906 3584 2284 3584 
Q 2666 3584 2933 3390 
Q 3200 3197 3328 2828 
z
" transform="scale(0.015625)"/>
      </defs>
      <use xlink:href="#DejaVuSans-50"/>
      <use xlink:href="#DejaVuSans-6f" x="56.677734"/>
      <use xlink:href="#DejaVuSans-73" x="117.859375"/>
      <use xlink:href="#DejaVuSans-69" x="169.958984"/>
      <use xlink:href="#DejaVuSans-74" x="197.742188"/>
      <use xlink:href="#DejaVuSans-69" x="236.951172"/>
      <use xlink:href="#DejaVuSans-76" x="264.734375"/>
      <use xlink:href="#DejaVuSans-65" x="323.914062"/>
      <use xlink:href="#DejaVuSans-20" x="385.4375"/>
      <use xlink:href="#DejaVuSans-63" x="417.224609"/>
      <use xlink:href="#DejaVuSans-75" x="472.205078"/>
      <use xlink:href="#DejaVuSans-6d" x="535.583984"/>
      <use xlink:href="#DejaVuSans-75" x="632.996094"/>
      <use xlink:href="#DejaVuSans-6c" x="696.375"/>
      <use xlink:href="#DejaVuSans-61" x="724.158203"/>
      <use xlink:href="#DejaVuSans-74" x="785.4375"/>
      <use xlink:href="#DejaVuSans-69" x="824.646484"/>
      <use xlink:href="#DejaVuSans-76" x="852.429688"/>
      <use xlink:href="#DejaVuSans-65" x="911.609375"/>
      <use xlink:href="#DejaVuSans-20" x="973.132812"/>
      <use xlink:href="#DejaVuSans-70" x="1004.919922"/>
      <use xlink:href="#DejaVuSans-72" x="1068.396484"/>
      <use xlink:href="#DejaVuSans-65" x="1107.259766"/>
      <use xlink:href="#DejaVuSans-64" x="1168.783203"/>
      <use xlink:href="#DejaVuSans-69" x="1232.259766"/>
      <use xlink:href="#DejaVuSans-63" x="1260.042969"/>
      <use xlink:href="#DejaVuSans-74" x="1315.023438"/>
      <use xlink:href="#DejaVuSans-69" x="1354.232422"/>
      <use xlink:href="#DejaVuSans-6f" x="1382.015625"/>
      <use xlink:href="#DejaVuSans-6e" x="1443.197266"/>
      <use xlink:href="#DejaVuSans-73" x="1506.576172"/>
     </g>
    </g>
    <g id="line2d_18">
     <path d="M 66.6 69.248563 
L 76.6 69.248563 
L 86.6 69.248563 
" style="fill: none; stroke: #ff7f0e; stroke-opacity: 0.7; stroke-width: 1.5; stroke-linecap: square"/>
    </g>
    <g id="text_16">
     <!-- Negative cumulative predictions -->
     <g transform="translate(94.6 72.748563) scale(0.1 -0.1)">
      <defs>
       <path id="DejaVuSans-4e" d="M 628 4666 
L 1478 4666 
L 3547 763 
L 3547 4666 
L 4159 4666 
L 4159 0 
L 3309 0 
L 1241 3903 
L 1241 0 
L 628 0 
L 628 4666 
z
" transform="scale(0.015625)"/>
       <path id="DejaVuSans-67" d="M 2906 1791 
Q 2906 2416 2648 2759 
Q 2391 3103 1925 3103 
Q 1463 3103 1205 2759 
Q 947 2416 947 1791 
Q 947 1169 1205 825 
Q 1463 481 1925 481 
Q 2391 481 2648 825 
Q 2906 1169 2906 1791 
z
M 3481 434 
Q 3481 -459 3084 -895 
Q 2688 -1331 1869 -1331 
Q 1566 -1331 1297 -1286 
Q 1028 -1241 775 -1147 
L 775 -588 
Q 1028 -725 1275 -790 
Q 1522 -856 1778 -856 
Q 2344 -856 2625 -561 
Q 2906 -266 2906 331 
L 2906 616 
Q 2728 306 2450 153 
Q 2172 0 1784 0 
Q 1141 0 747 490 
Q 353 981 353 1791 
Q 353 2603 747 3093 
Q 1141 3584 1784 3584 
Q 2172 3584 2450 3431 
Q 2728 3278 2906 2969 
L 2906 3500 
L 3481 3500 
L 3481 434 
z
" transform="scale(0.015625)"/>
      </defs>
      <use xlink:href="#DejaVuSans-4e"/>
      <use xlink:href="#DejaVuSans-65" x="74.804688"/>
      <use xlink:href="#DejaVuSans-67" x="136.328125"/>
      <use xlink:href="#DejaVuSans-61" x="199.804688"/>
      <use xlink:href="#DejaVuSans-74" x="261.083984"/>
      <use xlink:href="#DejaVuSans-69" x="300.292969"/>
      <use xlink:href="#DejaVuSans-76" x="328.076172"/>
      <use xlink:href="#DejaVuSans-65" x="387.255859"/>
      <use xlink:href="#DejaVuSans-20" x="448.779297"/>
      <use xlink:href="#DejaVuSans-63" x="480.566406"/>
      <use xlink:href="#DejaVuSans-75" x="535.546875"/>
      <use xlink:href="#DejaVuSans-6d" x="598.925781"/>
      <use xlink:href="#DejaVuSans-75" x="696.337891"/>
      <use xlink:href="#DejaVuSans-6c" x="759.716797"/>
      <use xlink:href="#DejaVuSans-61" x="787.5"/>
      <use xlink:href="#DejaVuSans-74" x="848.779297"/>
      <use xlink:href="#DejaVuSans-69" x="887.988281"/>
      <use xlink:href="#DejaVuSans-76" x="915.771484"/>
      <use xlink:href="#DejaVuSans-65" x="974.951172"/>
      <use xlink:href="#DejaVuSans-20" x="1036.474609"/>
      <use xlink:href="#DejaVuSans-70" x="1068.261719"/>
      <use xlink:href="#DejaVuSans-72" x="1131.738281"/>
      <use xlink:href="#DejaVuSans-65" x="1170.601562"/>
      <use xlink:href="#DejaVuSans-64" x="1232.125"/>
      <use xlink:href="#DejaVuSans-69" x="1295.601562"/>
      <use xlink:href="#DejaVuSans-63" x="1323.384766"/>
      <use xlink:href="#DejaVuSans-74" x="1378.365234"/>
      <use xlink:href="#DejaVuSans-69" x="1417.574219"/>
      <use xlink:href="#DejaVuSans-6f" x="1445.357422"/>
      <use xlink:href="#DejaVuSans-6e" x="1506.539062"/>
      <use xlink:href="#DejaVuSans-73" x="1569.917969"/>
     </g>
    </g>
    <g id="line2d_19">
     <path d="M 66.6 83.926688 
L 76.6 83.926688 
L 86.6 83.926688 
" style="fill: none; stroke: #2ca02c; stroke-opacity: 0.7; stroke-width: 1.5; stroke-linecap: square"/>
    </g>
    <g id="text_17">
     <!-- Average cumulative predictions -->
     <g transform="translate(94.6 87.426688) scale(0.1 -0.1)">
      <defs>
       <path id="DejaVuSans-41" d="M 2188 4044 
L 1331 1722 
L 3047 1722 
L 2188 4044 
z
M 1831 4666 
L 2547 4666 
L 4325 0 
L 3669 0 
L 3244 1197 
L 1141 1197 
L 716 0 
L 50 0 
L 1831 4666 
z
" transform="scale(0.015625)"/>
      </defs>
      <use xlink:href="#DejaVuSans-41"/>
      <use xlink:href="#DejaVuSans-76" x="62.533203"/>
      <use xlink:href="#DejaVuSans-65" x="121.712891"/>
      <use xlink:href="#DejaVuSans-72" x="183.236328"/>
      <use xlink:href="#DejaVuSans-61" x="224.349609"/>
      <use xlink:href="#DejaVuSans-67" x="285.628906"/>
      <use xlink:href="#DejaVuSans-65" x="349.105469"/>
      <use xlink:href="#DejaVuSans-20" x="410.628906"/>
      <use xlink:href="#DejaVuSans-63" x="442.416016"/>
      <use xlink:href="#DejaVuSans-75" x="497.396484"/>
      <use xlink:href="#DejaVuSans-6d" x="560.775391"/>
      <use xlink:href="#DejaVuSans-75" x="658.1875"/>
      <use xlink:href="#DejaVuSans-6c" x="721.566406"/>
      <use xlink:href="#DejaVuSans-61" x="749.349609"/>
      <use xlink:href="#DejaVuSans-74" x="810.628906"/>
      <use xlink:href="#DejaVuSans-69" x="849.837891"/>
      <use xlink:href="#DejaVuSans-76" x="877.621094"/>
      <use xlink:href="#DejaVuSans-65" x="936.800781"/>
      <use xlink:href="#DejaVuSans-20" x="998.324219"/>
      <use xlink:href="#DejaVuSans-70" x="1030.111328"/>
      <use xlink:href="#DejaVuSans-72" x="1093.587891"/>
      <use xlink:href="#DejaVuSans-65" x="1132.451172"/>
      <use xlink:href="#DejaVuSans-64" x="1193.974609"/>
      <use xlink:href="#DejaVuSans-69" x="1257.451172"/>
      <use xlink:href="#DejaVuSans-63" x="1285.234375"/>
      <use xlink:href="#DejaVuSans-74" x="1340.214844"/>
      <use xlink:href="#DejaVuSans-69" x="1379.423828"/>
      <use xlink:href="#DejaVuSans-6f" x="1407.207031"/>
      <use xlink:href="#DejaVuSans-6e" x="1468.388672"/>
      <use xlink:href="#DejaVuSans-73" x="1531.767578"/>
     </g>
    </g>
   </g>
  </g>
 </g>
 <defs>
  <clipPath id="p19ff54dfbf">
   <rect x="57.6" y="41.472" width="357.12" height="266.112"/>
  </clipPath>
 </defs>
</svg>
