<?xml version="1.0" encoding="utf-8" standalone="no"?>
<!DOCTYPE svg PUBLIC "-//W3C//DTD SVG 1.1//EN"
  "http://www.w3.org/Graphics/SVG/1.1/DTD/svg11.dtd">
<svg xmlns:xlink="http://www.w3.org/1999/xlink" width="460.8pt" height="345.6pt" viewBox="0 0 460.8 345.6" xmlns="http://www.w3.org/2000/svg" version="1.1">
 <metadata>
  <rdf:RDF xmlns:dc="http://purl.org/dc/elements/1.1/" xmlns:cc="http://creativecommons.org/ns#" xmlns:rdf="http://www.w3.org/1999/02/22-rdf-syntax-ns#">
   <cc:Work>
    <dc:type rdf:resource="http://purl.org/dc/dcmitype/StillImage"/>
    <dc:date>2024-09-08T19:56:07.504832</dc:date>
    <dc:format>image/svg+xml</dc:format>
    <dc:creator>
     <cc:Agent>
      <dc:title>Matplotlib v3.8.3, https://matplotlib.org/</dc:title>
     </cc:Agent>
    </dc:creator>
   </cc:Work>
  </rdf:RDF>
 </metadata>
 <defs>
  <style type="text/css">*{stroke-linejoin: round; stroke-linecap: butt}</style>
 </defs>
 <g id="figure_1">
  <g id="patch_1">
   <path d="M 0 345.6 
L 460.8 345.6 
L 460.8 0 
L 0 0 
z
" style="fill: #ffffff"/>
  </g>
  <g id="axes_1">
   <g id="patch_2">
    <path d="M 57.6 307.584 
L 414.72 307.584 
L 414.72 41.472 
L 57.6 41.472 
z
" style="fill: #ffffff"/>
   </g>
   <g id="matplotlib.axis_1">
    <g id="xtick_1">
     <g id="line2d_1">
      <defs>
       <path id="m386fb7168c" d="M 0 0 
L 0 3.5 
" style="stroke: #000000; stroke-width: 0.8"/>
      </defs>
      <g>
       <use xlink:href="#m386fb7168c" x="73.832727" y="307.584" style="stroke: #000000; stroke-width: 0.8"/>
      </g>
     </g>
     <g id="text_1">
      <!-- 0 -->
      <g transform="translate(70.651477 322.182437) scale(0.1 -0.1)">
       <defs>
        <path id="DejaVuSans-30" d="M 2034 4250 
Q 1547 4250 1301 3770 
Q 1056 3291 1056 2328 
Q 1056 1369 1301 889 
Q 1547 409 2034 409 
Q 2525 409 2770 889 
Q 3016 1369 3016 2328 
Q 3016 3291 2770 3770 
Q 2525 4250 2034 4250 
z
M 2034 4750 
Q 2819 4750 3233 4129 
Q 3647 3509 3647 2328 
Q 3647 1150 3233 529 
Q 2819 -91 2034 -91 
Q 1250 -91 836 529 
Q 422 1150 422 2328 
Q 422 3509 836 4129 
Q 1250 4750 2034 4750 
z
" transform="scale(0.015625)"/>
       </defs>
       <use xlink:href="#DejaVuSans-30"/>
      </g>
     </g>
    </g>
    <g id="xtick_2">
     <g id="line2d_2">
      <g>
       <use xlink:href="#m386fb7168c" x="149.333784" y="307.584" style="stroke: #000000; stroke-width: 0.8"/>
      </g>
     </g>
     <g id="text_2">
      <!-- 50 -->
      <g transform="translate(142.971284 322.182437) scale(0.1 -0.1)">
       <defs>
        <path id="DejaVuSans-35" d="M 691 4666 
L 3169 4666 
L 3169 4134 
L 1269 4134 
L 1269 2991 
Q 1406 3038 1543 3061 
Q 1681 3084 1819 3084 
Q 2600 3084 3056 2656 
Q 3513 2228 3513 1497 
Q 3513 744 3044 326 
Q 2575 -91 1722 -91 
Q 1428 -91 1123 -41 
Q 819 9 494 109 
L 494 744 
Q 775 591 1075 516 
Q 1375 441 1709 441 
Q 2250 441 2565 725 
Q 2881 1009 2881 1497 
Q 2881 1984 2565 2268 
Q 2250 2553 1709 2553 
Q 1456 2553 1204 2497 
Q 953 2441 691 2322 
L 691 4666 
z
" transform="scale(0.015625)"/>
       </defs>
       <use xlink:href="#DejaVuSans-35"/>
       <use xlink:href="#DejaVuSans-30" x="63.623047"/>
      </g>
     </g>
    </g>
    <g id="xtick_3">
     <g id="line2d_3">
      <g>
       <use xlink:href="#m386fb7168c" x="224.834841" y="307.584" style="stroke: #000000; stroke-width: 0.8"/>
      </g>
     </g>
     <g id="text_3">
      <!-- 100 -->
      <g transform="translate(215.291091 322.182437) scale(0.1 -0.1)">
       <defs>
        <path id="DejaVuSans-31" d="M 794 531 
L 1825 531 
L 1825 4091 
L 703 3866 
L 703 4441 
L 1819 4666 
L 2450 4666 
L 2450 531 
L 3481 531 
L 3481 0 
L 794 0 
L 794 531 
z
" transform="scale(0.015625)"/>
       </defs>
       <use xlink:href="#DejaVuSans-31"/>
       <use xlink:href="#DejaVuSans-30" x="63.623047"/>
       <use xlink:href="#DejaVuSans-30" x="127.246094"/>
      </g>
     </g>
    </g>
    <g id="xtick_4">
     <g id="line2d_4">
      <g>
       <use xlink:href="#m386fb7168c" x="300.335899" y="307.584" style="stroke: #000000; stroke-width: 0.8"/>
      </g>
     </g>
     <g id="text_4">
      <!-- 150 -->
      <g transform="translate(290.792149 322.182437) scale(0.1 -0.1)">
       <use xlink:href="#DejaVuSans-31"/>
       <use xlink:href="#DejaVuSans-35" x="63.623047"/>
       <use xlink:href="#DejaVuSans-30" x="127.246094"/>
      </g>
     </g>
    </g>
    <g id="xtick_5">
     <g id="line2d_5">
      <g>
       <use xlink:href="#m386fb7168c" x="375.836956" y="307.584" style="stroke: #000000; stroke-width: 0.8"/>
      </g>
     </g>
     <g id="text_5">
      <!-- 200 -->
      <g transform="translate(366.293206 322.182437) scale(0.1 -0.1)">
       <defs>
        <path id="DejaVuSans-32" d="M 1228 531 
L 3431 531 
L 3431 0 
L 469 0 
L 469 531 
Q 828 903 1448 1529 
Q 2069 2156 2228 2338 
Q 2531 2678 2651 2914 
Q 2772 3150 2772 3378 
Q 2772 3750 2511 3984 
Q 2250 4219 1831 4219 
Q 1534 4219 1204 4116 
Q 875 4013 500 3803 
L 500 4441 
Q 881 4594 1212 4672 
Q 1544 4750 1819 4750 
Q 2544 4750 2975 4387 
Q 3406 4025 3406 3419 
Q 3406 3131 3298 2873 
Q 3191 2616 2906 2266 
Q 2828 2175 2409 1742 
Q 1991 1309 1228 531 
z
" transform="scale(0.015625)"/>
       </defs>
       <use xlink:href="#DejaVuSans-32"/>
       <use xlink:href="#DejaVuSans-30" x="63.623047"/>
       <use xlink:href="#DejaVuSans-30" x="127.246094"/>
      </g>
     </g>
    </g>
   </g>
   <g id="matplotlib.axis_2">
    <g id="ytick_1">
     <g id="line2d_6">
      <defs>
       <path id="m0bde819111" d="M 0 0 
L -3.5 0 
" style="stroke: #000000; stroke-width: 0.8"/>
      </defs>
      <g>
       <use xlink:href="#m0bde819111" x="57.6" y="290.599033" style="stroke: #000000; stroke-width: 0.8"/>
      </g>
     </g>
     <g id="text_6">
      <!-- −2000 -->
      <g transform="translate(16.770313 294.398252) scale(0.1 -0.1)">
       <defs>
        <path id="DejaVuSans-2212" d="M 678 2272 
L 4684 2272 
L 4684 1741 
L 678 1741 
L 678 2272 
z
" transform="scale(0.015625)"/>
       </defs>
       <use xlink:href="#DejaVuSans-2212"/>
       <use xlink:href="#DejaVuSans-32" x="83.789062"/>
       <use xlink:href="#DejaVuSans-30" x="147.412109"/>
       <use xlink:href="#DejaVuSans-30" x="211.035156"/>
       <use xlink:href="#DejaVuSans-30" x="274.658203"/>
      </g>
     </g>
    </g>
    <g id="ytick_2">
     <g id="line2d_7">
      <g>
       <use xlink:href="#m0bde819111" x="57.6" y="252.332872" style="stroke: #000000; stroke-width: 0.8"/>
      </g>
     </g>
     <g id="text_7">
      <!-- −1500 -->
      <g transform="translate(16.770313 256.132091) scale(0.1 -0.1)">
       <use xlink:href="#DejaVuSans-2212"/>
       <use xlink:href="#DejaVuSans-31" x="83.789062"/>
       <use xlink:href="#DejaVuSans-35" x="147.412109"/>
       <use xlink:href="#DejaVuSans-30" x="211.035156"/>
       <use xlink:href="#DejaVuSans-30" x="274.658203"/>
      </g>
     </g>
    </g>
    <g id="ytick_3">
     <g id="line2d_8">
      <g>
       <use xlink:href="#m0bde819111" x="57.6" y="214.066711" style="stroke: #000000; stroke-width: 0.8"/>
      </g>
     </g>
     <g id="text_8">
      <!-- −1000 -->
      <g transform="translate(16.770313 217.86593) scale(0.1 -0.1)">
       <use xlink:href="#DejaVuSans-2212"/>
       <use xlink:href="#DejaVuSans-31" x="83.789062"/>
       <use xlink:href="#DejaVuSans-30" x="147.412109"/>
       <use xlink:href="#DejaVuSans-30" x="211.035156"/>
       <use xlink:href="#DejaVuSans-30" x="274.658203"/>
      </g>
     </g>
    </g>
    <g id="ytick_4">
     <g id="line2d_9">
      <g>
       <use xlink:href="#m0bde819111" x="57.6" y="175.80055" style="stroke: #000000; stroke-width: 0.8"/>
      </g>
     </g>
     <g id="text_9">
      <!-- −500 -->
      <g transform="translate(23.132812 179.599769) scale(0.1 -0.1)">
       <use xlink:href="#DejaVuSans-2212"/>
       <use xlink:href="#DejaVuSans-35" x="83.789062"/>
       <use xlink:href="#DejaVuSans-30" x="147.412109"/>
       <use xlink:href="#DejaVuSans-30" x="211.035156"/>
      </g>
     </g>
    </g>
    <g id="ytick_5">
     <g id="line2d_10">
      <g>
       <use xlink:href="#m0bde819111" x="57.6" y="137.534389" style="stroke: #000000; stroke-width: 0.8"/>
      </g>
     </g>
     <g id="text_10">
      <!-- 0 -->
      <g transform="translate(44.2375 141.333608) scale(0.1 -0.1)">
       <use xlink:href="#DejaVuSans-30"/>
      </g>
     </g>
    </g>
    <g id="ytick_6">
     <g id="line2d_11">
      <g>
       <use xlink:href="#m0bde819111" x="57.6" y="99.268228" style="stroke: #000000; stroke-width: 0.8"/>
      </g>
     </g>
     <g id="text_11">
      <!-- 500 -->
      <g transform="translate(31.5125 103.067447) scale(0.1 -0.1)">
       <use xlink:href="#DejaVuSans-35"/>
       <use xlink:href="#DejaVuSans-30" x="63.623047"/>
       <use xlink:href="#DejaVuSans-30" x="127.246094"/>
      </g>
     </g>
    </g>
    <g id="ytick_7">
     <g id="line2d_12">
      <g>
       <use xlink:href="#m0bde819111" x="57.6" y="61.002067" style="stroke: #000000; stroke-width: 0.8"/>
      </g>
     </g>
     <g id="text_12">
      <!-- 1000 -->
      <g transform="translate(25.15 64.801286) scale(0.1 -0.1)">
       <use xlink:href="#DejaVuSans-31"/>
       <use xlink:href="#DejaVuSans-30" x="63.623047"/>
       <use xlink:href="#DejaVuSans-30" x="127.246094"/>
       <use xlink:href="#DejaVuSans-30" x="190.869141"/>
      </g>
     </g>
    </g>
   </g>
   <g id="line2d_13">
    <path d="M 73.832727 138.809928 
L 75.342748 141.654379 
L 76.85277 141.577847 
L 79.872812 141.692645 
L 81.382833 141.539581 
L 82.892854 142.419702 
L 84.402875 141.86867 
L 85.912896 144.343215 
L 87.422918 147.756556 
L 88.932939 154.193775 
L 90.44296 153.371052 
L 91.952981 151.457744 
L 93.463002 148.518903 
L 94.973023 150.447518 
L 96.483044 150.200914 
L 97.993066 150.966237 
L 101.013108 154.091307 
L 102.523129 155.928082 
L 104.03315 153.38976 
L 105.543171 153.925487 
L 107.053192 152.675459 
L 108.563214 151.986668 
L 110.073235 150.762151 
L 111.583256 151.935646 
L 113.093277 151.935646 
L 114.603298 151.170323 
L 116.113319 150.875127 
L 117.62334 150.875127 
L 120.643383 150.403178 
L 122.153404 149.67612 
L 123.663425 149.446524 
L 125.173446 148.949063 
L 126.683467 148.757733 
L 128.193488 152.46955 
L 129.70351 152.163421 
L 131.213531 150.537109 
L 132.723552 151.88918 
L 135.743594 152.482306 
L 137.253615 152.539705 
L 138.763636 153.151963 
L 140.273658 153.254007 
L 141.783679 152.794813 
L 143.2937 154.261682 
L 146.313742 156.215807 
L 147.823763 158.544577 
L 150.843805 162.953081 
L 152.353827 163.595953 
L 153.863848 162.988196 
L 155.373869 164.427004 
L 156.88389 163.474602 
L 158.393911 162.001354 
L 159.903932 165.051714 
L 161.413953 167.05431 
L 162.923975 167.713665 
L 164.433996 167.815708 
L 165.944017 165.833521 
L 168.964059 165.45086 
L 170.47408 164.800335 
L 171.984101 166.451246 
L 173.494123 165.685923 
L 175.004144 166.986973 
L 176.514165 165.972919 
L 178.024186 166.493339 
L 179.534207 166.309662 
L 181.044228 167.074985 
L 182.554249 168.784207 
L 184.064271 169.059723 
L 185.574292 170.794456 
L 187.084313 171.25365 
L 188.594334 170.962827 
L 190.104355 169.585245 
L 191.614376 168.972986 
L 193.124397 167.263765 
L 194.634419 166.988248 
L 196.14444 168.794411 
L 197.654461 168.182152 
L 200.674503 171.59513 
L 202.184524 172.256091 
L 203.694545 174.606726 
L 206.714588 174.026781 
L 208.224609 174.026781 
L 209.73463 174.511486 
L 211.244651 176.137798 
L 212.754672 178.778163 
L 214.264693 178.433767 
L 215.774715 178.739897 
L 217.284736 178.424201 
L 218.794757 176.541506 
L 220.304778 177.153764 
L 221.814799 176.375686 
L 223.32482 179.360446 
L 224.834841 178.614256 
L 226.344863 180.000342 
L 227.854884 178.673781 
L 229.364905 177.831926 
L 230.874926 178.252854 
L 232.384947 178.501584 
L 233.894968 178.53985 
L 235.404989 180.361319 
L 236.915011 185.764501 
L 238.425032 183.140536 
L 239.935053 183.2936 
L 241.445074 182.666035 
L 242.955095 183.186455 
L 244.465116 180.239961 
L 245.975137 185.750288 
L 247.485159 184.513015 
L 248.99518 186.062795 
L 250.505201 183.958156 
L 252.015222 184.876544 
L 253.525243 185.316605 
L 255.035264 190.712133 
L 258.055307 184.50026 
L 259.565328 181.694075 
L 261.075349 177.91848 
L 262.58537 174.857187 
L 264.095391 175.37378 
L 265.605412 179.46826 
L 267.115433 178.458033 
L 268.625455 178.815184 
L 270.135476 177.85853 
L 271.645497 181.736167 
L 273.155518 180.358586 
L 274.665539 181.200441 
L 276.17556 179.631529 
L 277.685581 181.965764 
L 279.195603 183.018084 
L 280.705624 181.662368 
L 282.215645 184.647129 
L 283.725666 187.32576 
L 285.235687 194.15627 
L 286.745708 197.401241 
L 289.765751 202.48654 
L 291.275772 203.410394 
L 292.785793 207.768235 
L 294.295814 215.693033 
L 295.805835 216.237263 
L 297.315856 215.680278 
L 298.825877 214.6914 
L 300.335899 212.850487 
L 301.84592 212.982947 
L 303.355941 213.901335 
L 306.375983 220.485666 
L 307.886004 221.639538 
L 309.396025 221.222089 
L 312.416068 229.328775 
L 313.926089 230.73697 
L 315.43611 235.14183 
L 316.946131 236.228589 
L 318.456152 237.037645 
L 319.966173 237.558065 
L 321.476195 237.219136 
L 322.986216 237.025254 
L 324.496237 236.552145 
L 326.006258 237.145271 
L 327.516279 238.577518 
L 329.0263 238.707623 
L 330.536321 241.4934 
L 332.046342 250.440724 
L 333.556364 249.935611 
L 335.066385 247.505709 
L 336.576406 246.089861 
L 338.086427 245.490358 
L 339.596448 243.143367 
L 341.106469 243.548988 
L 342.61649 249.424316 
L 344.126512 248.561588 
L 345.636533 248.469749 
L 347.146554 251.224913 
L 348.656575 252.866106 
L 350.166596 250.76912 
L 351.676617 254.366139 
L 353.186638 254.136542 
L 354.69666 252.414565 
L 356.206681 251.496177 
L 357.716702 251.878839 
L 359.226723 251.92986 
L 360.736744 254.685024 
L 362.246765 256.904461 
L 363.756786 264.295297 
L 365.266808 267.573432 
L 366.776829 281.670685 
L 368.28685 286.73948 
L 369.796871 285.17732 
L 371.306892 280.496093 
L 372.816913 280.668291 
L 374.326934 279.817932 
L 375.836956 280.135541 
L 377.346977 279.530935 
L 378.856998 283.14115 
L 380.367019 283.405186 
L 381.87704 281.032684 
L 383.387061 279.764434 
L 384.897082 281.511922 
L 386.407104 282.238979 
L 387.917125 282.710929 
L 389.427146 287.245469 
L 390.937167 287.742929 
L 395.46723 288.140897 
L 396.977252 294.82472 
L 398.487273 295.488 
L 398.487273 295.488 
" clip-path="url(#p9f1070552f)" style="fill: none; stroke: #1f77b4; stroke-opacity: 0.7; stroke-width: 1.5; stroke-linecap: square"/>
   </g>
   <g id="line2d_14">
    <path d="M 73.832727 138.135714 
L 75.342748 140.010756 
L 76.85277 138.908691 
L 78.362791 138.48011 
L 79.872812 138.492865 
L 81.382833 137.563544 
L 82.892854 137.655383 
L 84.402875 136.201269 
L 85.912896 137.793141 
L 87.422918 141.007499 
L 88.932939 146.377517 
L 90.44296 142.550901 
L 91.952981 139.923291 
L 93.463002 136.039275 
L 94.973023 135.792671 
L 96.483044 136.573301 
L 97.993066 136.611567 
L 99.503087 136.852097 
L 101.013108 136.864853 
L 102.523129 137.599563 
L 104.03315 135.86483 
L 105.543171 135.237265 
L 107.053192 133.84055 
L 108.563214 134.031881 
L 110.073235 133.744885 
L 111.583256 133.030583 
L 113.093277 132.81192 
L 114.603298 130.503195 
L 119.133362 125.122395 
L 120.643383 124.213574 
L 122.153404 122.262 
L 125.173446 120.221718 
L 126.683467 119.258686 
L 128.193488 122.480697 
L 129.70351 123.475617 
L 131.213531 121.221392 
L 132.723552 121.303811 
L 134.233573 119.416014 
L 135.743594 118.414716 
L 137.253615 116.742779 
L 138.763636 115.571246 
L 140.273658 115.061031 
L 141.783679 114.678369 
L 143.2937 115.458999 
L 144.803721 116.775355 
L 146.313742 117.09679 
L 147.823763 118.566211 
L 149.333784 119.3698 
L 150.843805 120.556051 
L 152.353827 120.383854 
L 153.863848 119.358321 
L 155.373869 119.773782 
L 156.88389 118.625797 
L 158.393911 116.666569 
L 159.903932 118.671716 
L 161.413953 119.724036 
L 162.923975 120.221496 
L 164.433996 119.609237 
L 167.454038 115.769866 
L 168.964059 114.326685 
L 170.47408 112.505216 
L 171.984101 113.117474 
L 173.494123 111.816425 
L 175.004144 112.406817 
L 176.514165 112.151709 
L 178.024186 112.121096 
L 179.534207 110.683989 
L 181.044228 110.530925 
L 182.554249 112.3677 
L 184.064271 112.17637 
L 185.574292 113.247822 
L 187.084313 113.1968 
L 188.594334 112.954448 
L 190.104355 111.102366 
L 191.614376 110.337043 
L 193.124397 108.780886 
L 194.634419 106.6839 
L 196.14444 107.254414 
L 197.654461 106.01459 
L 199.164482 107.647279 
L 200.674503 109.4713 
L 202.184524 109.088638 
L 203.694545 111.023813 
L 206.714588 109.416634 
L 208.224609 107.830328 
L 209.73463 107.393 
L 211.244651 108.445319 
L 212.754672 110.282095 
L 214.264693 109.146866 
L 215.774715 110.172399 
L 217.284736 108.833083 
L 218.794757 106.644259 
L 220.304778 106.36364 
L 221.814799 104.603397 
L 223.32482 106.822834 
L 224.834841 106.287108 
L 226.344863 106.118737 
L 227.854884 105.181216 
L 229.364905 103.172242 
L 230.874926 103.111017 
L 232.384947 102.651823 
L 233.894968 102.468145 
L 235.404989 104.815136 
L 236.915011 110.325463 
L 238.425032 107.021818 
L 239.935053 105.217842 
L 241.445074 104.345374 
L 242.955095 103.787781 
L 244.465116 101.305947 
L 245.975137 105.557743 
L 247.485159 103.633502 
L 248.99518 104.048963 
L 250.505201 100.497863 
L 252.015222 101.282319 
L 253.525243 100.861391 
L 255.035264 105.644662 
L 256.545285 102.889498 
L 258.055307 101.267013 
L 261.075349 97.079601 
L 262.58537 94.538728 
L 264.095391 94.934145 
L 265.605412 98.439326 
L 267.115433 95.862738 
L 268.625455 95.403544 
L 270.135476 94.16372 
L 271.645497 98.041358 
L 273.155518 97.065571 
L 274.665539 98.88704 
L 276.17556 97.496703 
L 277.685581 98.023925 
L 279.195603 97.870861 
L 280.705624 96.493279 
L 282.215645 99.018845 
L 283.725666 99.937233 
L 285.235687 105.325109 
L 286.745708 107.219284 
L 288.255729 108.5012 
L 289.765751 109.343056 
L 291.275772 107.904248 
L 292.785793 109.294585 
L 294.295814 114.639092 
L 295.805835 111.514023 
L 297.315856 106.707793 
L 298.825877 103.187306 
L 300.335899 102.34545 
L 301.84592 99.245891 
L 303.355941 98.085151 
L 304.865962 99.397134 
L 306.375983 100.315522 
L 307.886004 99.039983 
L 309.396025 98.305273 
L 310.906047 100.945638 
L 312.416068 103.149769 
L 313.926089 103.047726 
L 315.43611 106.121774 
L 316.946131 103.468653 
L 319.966173 100.21603 
L 321.476195 98.800182 
L 322.986216 96.274615 
L 324.496237 94.65213 
L 326.006258 93.799341 
L 327.516279 93.378413 
L 329.0263 90.141096 
L 330.536321 90.687756 
L 332.046342 98.249149 
L 333.556364 97.349894 
L 335.066385 93.064084 
L 336.576406 89.390533 
L 338.086427 87.541002 
L 339.596448 83.952486 
L 341.106469 82.65994 
L 342.61649 86.272266 
L 344.126512 83.123507 
L 345.636533 81.873479 
L 347.146554 82.476171 
L 348.656575 83.654769 
L 350.166596 80.954272 
L 351.676617 81.056315 
L 353.186638 79.091985 
L 354.69666 77.408274 
L 356.206681 74.567011 
L 357.716702 74.873141 
L 359.226723 73.985366 
L 360.736744 75.714996 
L 362.246765 76.545919 
L 363.756786 83.219537 
L 365.266808 85.930968 
L 366.776829 97.117442 
L 368.28685 96.153135 
L 371.306892 80.833915 
L 374.326934 73.65081 
L 375.836956 72.183941 
L 377.346977 71.444128 
L 378.856998 71.086977 
L 380.367019 68.350947 
L 381.87704 64.562597 
L 383.387061 60.167455 
L 384.897082 60.065412 
L 386.407104 59.427643 
L 387.917125 57.552601 
L 389.427146 57.849163 
L 390.937167 58.262438 
L 392.447188 57.573647 
L 393.957209 54.770651 
L 395.46723 53.568 
L 396.977252 57.514881 
L 398.487273 60.882303 
L 398.487273 60.882303 
" clip-path="url(#p9f1070552f)" style="fill: none; stroke: #ff7f0e; stroke-opacity: 0.7; stroke-width: 1.5; stroke-linecap: square"/>
   </g>
   <g id="line2d_15">
    <path d="M 73.832727 138.472821 
L 75.342748 140.832568 
L 76.85277 140.243269 
L 78.362791 140.048111 
L 79.872812 140.092755 
L 81.382833 139.551562 
L 82.892854 140.037543 
L 84.402875 139.034969 
L 85.912896 141.068178 
L 87.422918 144.382027 
L 88.932939 150.285646 
L 91.952981 145.690518 
L 93.463002 142.279089 
L 94.973023 143.120094 
L 96.483044 143.387107 
L 97.993066 143.788902 
L 101.013108 145.47808 
L 102.523129 146.763823 
L 104.03315 144.627295 
L 105.543171 144.581376 
L 107.053192 143.258005 
L 108.563214 143.009274 
L 110.073235 142.253518 
L 111.583256 142.483115 
L 113.093277 142.373783 
L 114.603298 140.836759 
L 117.62334 138.844868 
L 119.133362 137.903096 
L 120.643383 137.308376 
L 122.153404 135.96906 
L 126.683467 134.008209 
L 128.193488 137.475123 
L 129.70351 137.819519 
L 131.213531 135.879251 
L 132.723552 136.596496 
L 134.233573 135.805662 
L 135.743594 135.448511 
L 137.253615 134.641242 
L 141.783679 133.736591 
L 144.803721 136.028734 
L 146.313742 136.656299 
L 147.823763 138.555394 
L 149.333784 140.017708 
L 150.843805 141.754566 
L 152.353827 141.989903 
L 153.863848 141.173258 
L 155.373869 142.100393 
L 156.88389 141.050199 
L 158.393911 139.333962 
L 159.903932 141.861715 
L 161.413953 143.389173 
L 162.923975 143.967581 
L 164.433996 143.712473 
L 165.944017 141.726459 
L 167.454038 140.686895 
L 168.964059 139.888772 
L 170.47408 138.652775 
L 171.984101 139.78436 
L 173.494123 138.751174 
L 175.004144 139.696895 
L 176.514165 139.062314 
L 178.024186 139.307218 
L 179.534207 138.496825 
L 181.044228 138.802955 
L 182.554249 140.575954 
L 184.064271 140.618046 
L 185.574292 142.021139 
L 187.084313 142.225225 
L 188.594334 141.958637 
L 190.104355 140.343805 
L 191.614376 139.655015 
L 193.124397 138.022325 
L 194.634419 136.836074 
L 196.14444 138.024412 
L 197.654461 137.098371 
L 200.674503 140.533215 
L 202.184524 140.672364 
L 203.694545 142.815269 
L 206.714588 141.721708 
L 208.224609 140.928554 
L 209.73463 140.952243 
L 211.244651 142.291559 
L 212.754672 144.530129 
L 214.264693 143.790317 
L 215.774715 144.456148 
L 217.284736 143.628642 
L 218.794757 141.592882 
L 220.304778 141.758702 
L 221.814799 140.489541 
L 223.32482 143.09164 
L 224.834841 142.450682 
L 226.344863 143.059539 
L 227.854884 141.927499 
L 229.364905 140.502084 
L 230.874926 140.681935 
L 233.894968 140.503997 
L 235.404989 142.588228 
L 236.915011 148.044982 
L 238.425032 145.081177 
L 241.445074 143.505704 
L 242.955095 143.487118 
L 244.465116 140.772954 
L 245.975137 145.654015 
L 247.485159 144.073258 
L 248.99518 145.055879 
L 250.505201 142.228009 
L 252.015222 143.079432 
L 253.525243 143.088998 
L 255.035264 148.178397 
L 256.545285 145.206392 
L 259.565328 140.458291 
L 262.58537 134.697958 
L 264.095391 135.153963 
L 265.605412 138.953793 
L 267.115433 137.160385 
L 268.625455 137.109364 
L 270.135476 136.011125 
L 271.645497 139.888763 
L 273.155518 138.712078 
L 274.665539 140.043741 
L 276.17556 138.564116 
L 277.685581 139.994845 
L 279.195603 140.444472 
L 280.705624 139.077824 
L 282.215645 141.832987 
L 283.725666 143.631497 
L 285.235687 149.740689 
L 286.745708 152.310262 
L 289.765751 155.914798 
L 291.275772 155.657321 
L 292.785793 158.53141 
L 294.295814 165.166063 
L 295.805835 163.875643 
L 297.315856 161.194035 
L 298.825877 158.939353 
L 301.84592 156.114419 
L 303.355941 155.993243 
L 304.865962 158.339323 
L 306.375983 160.400594 
L 307.886004 160.33976 
L 309.396025 159.763681 
L 310.906047 163.142583 
L 312.416068 166.239272 
L 313.926089 166.892348 
L 315.43611 170.631802 
L 316.946131 169.848621 
L 318.456152 169.430427 
L 319.966173 168.887047 
L 321.476195 168.009659 
L 322.986216 166.649934 
L 324.496237 165.602137 
L 326.006258 165.472306 
L 327.516279 165.977966 
L 329.0263 164.42436 
L 330.536321 166.090578 
L 332.046342 174.344936 
L 333.556364 173.642752 
L 335.066385 170.284897 
L 336.576406 167.740197 
L 338.086427 166.51568 
L 339.596448 163.547927 
L 341.106469 163.104464 
L 342.61649 167.848291 
L 344.126512 165.842548 
L 345.636533 165.171614 
L 347.146554 166.850542 
L 348.656575 168.260437 
L 350.166596 165.861696 
L 351.676617 167.711227 
L 353.186638 166.614264 
L 354.69666 164.91142 
L 356.206681 163.031594 
L 357.716702 163.37599 
L 359.226723 162.957613 
L 360.736744 165.20001 
L 362.246765 166.72519 
L 363.756786 173.757417 
L 365.266808 176.7522 
L 366.776829 189.394064 
L 368.28685 191.446307 
L 369.796871 186.793968 
L 371.306892 180.665004 
L 372.816913 178.95806 
L 374.326934 176.734371 
L 377.346977 175.487532 
L 378.856998 177.114064 
L 380.367019 175.878067 
L 383.387061 169.965945 
L 384.897082 170.788667 
L 386.407104 170.833311 
L 387.917125 170.131765 
L 389.427146 172.547316 
L 390.937167 173.002683 
L 392.447188 172.73482 
L 393.957209 171.371588 
L 395.46723 170.854449 
L 396.977252 176.169801 
L 398.487273 178.185152 
L 398.487273 178.185152 
" clip-path="url(#p9f1070552f)" style="fill: none; stroke: #2ca02c; stroke-opacity: 0.7; stroke-width: 1.5; stroke-linecap: square"/>
   </g>
   <g id="patch_3">
    <path d="M 57.6 307.584 
L 57.6 41.472 
" style="fill: none; stroke: #000000; stroke-width: 0.8; stroke-linejoin: miter; stroke-linecap: square"/>
   </g>
   <g id="patch_4">
    <path d="M 414.72 307.584 
L 414.72 41.472 
" style="fill: none; stroke: #000000; stroke-width: 0.8; stroke-linejoin: miter; stroke-linecap: square"/>
   </g>
   <g id="patch_5">
    <path d="M 57.6 307.584 
L 414.72 307.584 
" style="fill: none; stroke: #000000; stroke-width: 0.8; stroke-linejoin: miter; stroke-linecap: square"/>
   </g>
   <g id="patch_6">
    <path d="M 57.6 41.472 
L 414.72 41.472 
" style="fill: none; stroke: #000000; stroke-width: 0.8; stroke-linejoin: miter; stroke-linecap: square"/>
   </g>
   <g id="text_13">
    <!-- 1final_naive_pr_cci -->
    <g transform="translate(179.487188 35.472) scale(0.12 -0.12)">
     <defs>
      <path id="DejaVuSans-66" d="M 2375 4863 
L 2375 4384 
L 1825 4384 
Q 1516 4384 1395 4259 
Q 1275 4134 1275 3809 
L 1275 3500 
L 2222 3500 
L 2222 3053 
L 1275 3053 
L 1275 0 
L 697 0 
L 697 3053 
L 147 3053 
L 147 3500 
L 697 3500 
L 697 3744 
Q 697 4328 969 4595 
Q 1241 4863 1831 4863 
L 2375 4863 
z
" transform="scale(0.015625)"/>
      <path id="DejaVuSans-69" d="M 603 3500 
L 1178 3500 
L 1178 0 
L 603 0 
L 603 3500 
z
M 603 4863 
L 1178 4863 
L 1178 4134 
L 603 4134 
L 603 4863 
z
" transform="scale(0.015625)"/>
      <path id="DejaVuSans-6e" d="M 3513 2113 
L 3513 0 
L 2938 0 
L 2938 2094 
Q 2938 2591 2744 2837 
Q 2550 3084 2163 3084 
Q 1697 3084 1428 2787 
Q 1159 2491 1159 1978 
L 1159 0 
L 581 0 
L 581 3500 
L 1159 3500 
L 1159 2956 
Q 1366 3272 1645 3428 
Q 1925 3584 2291 3584 
Q 2894 3584 3203 3211 
Q 3513 2838 3513 2113 
z
" transform="scale(0.015625)"/>
      <path id="DejaVuSans-61" d="M 2194 1759 
Q 1497 1759 1228 1600 
Q 959 1441 959 1056 
Q 959 750 1161 570 
Q 1363 391 1709 391 
Q 2188 391 2477 730 
Q 2766 1069 2766 1631 
L 2766 1759 
L 2194 1759 
z
M 3341 1997 
L 3341 0 
L 2766 0 
L 2766 531 
Q 2569 213 2275 61 
Q 1981 -91 1556 -91 
Q 1019 -91 701 211 
Q 384 513 384 1019 
Q 384 1609 779 1909 
Q 1175 2209 1959 2209 
L 2766 2209 
L 2766 2266 
Q 2766 2663 2505 2880 
Q 2244 3097 1772 3097 
Q 1472 3097 1187 3025 
Q 903 2953 641 2809 
L 641 3341 
Q 956 3463 1253 3523 
Q 1550 3584 1831 3584 
Q 2591 3584 2966 3190 
Q 3341 2797 3341 1997 
z
" transform="scale(0.015625)"/>
      <path id="DejaVuSans-6c" d="M 603 4863 
L 1178 4863 
L 1178 0 
L 603 0 
L 603 4863 
z
" transform="scale(0.015625)"/>
      <path id="DejaVuSans-5f" d="M 3263 -1063 
L 3263 -1509 
L -63 -1509 
L -63 -1063 
L 3263 -1063 
z
" transform="scale(0.015625)"/>
      <path id="DejaVuSans-76" d="M 191 3500 
L 800 3500 
L 1894 563 
L 2988 3500 
L 3597 3500 
L 2284 0 
L 1503 0 
L 191 3500 
z
" transform="scale(0.015625)"/>
      <path id="DejaVuSans-65" d="M 3597 1894 
L 3597 1613 
L 953 1613 
Q 991 1019 1311 708 
Q 1631 397 2203 397 
Q 2534 397 2845 478 
Q 3156 559 3463 722 
L 3463 178 
Q 3153 47 2828 -22 
Q 2503 -91 2169 -91 
Q 1331 -91 842 396 
Q 353 884 353 1716 
Q 353 2575 817 3079 
Q 1281 3584 2069 3584 
Q 2775 3584 3186 3129 
Q 3597 2675 3597 1894 
z
M 3022 2063 
Q 3016 2534 2758 2815 
Q 2500 3097 2075 3097 
Q 1594 3097 1305 2825 
Q 1016 2553 972 2059 
L 3022 2063 
z
" transform="scale(0.015625)"/>
      <path id="DejaVuSans-70" d="M 1159 525 
L 1159 -1331 
L 581 -1331 
L 581 3500 
L 1159 3500 
L 1159 2969 
Q 1341 3281 1617 3432 
Q 1894 3584 2278 3584 
Q 2916 3584 3314 3078 
Q 3713 2572 3713 1747 
Q 3713 922 3314 415 
Q 2916 -91 2278 -91 
Q 1894 -91 1617 61 
Q 1341 213 1159 525 
z
M 3116 1747 
Q 3116 2381 2855 2742 
Q 2594 3103 2138 3103 
Q 1681 3103 1420 2742 
Q 1159 2381 1159 1747 
Q 1159 1113 1420 752 
Q 1681 391 2138 391 
Q 2594 391 2855 752 
Q 3116 1113 3116 1747 
z
" transform="scale(0.015625)"/>
      <path id="DejaVuSans-72" d="M 2631 2963 
Q 2534 3019 2420 3045 
Q 2306 3072 2169 3072 
Q 1681 3072 1420 2755 
Q 1159 2438 1159 1844 
L 1159 0 
L 581 0 
L 581 3500 
L 1159 3500 
L 1159 2956 
Q 1341 3275 1631 3429 
Q 1922 3584 2338 3584 
Q 2397 3584 2469 3576 
Q 2541 3569 2628 3553 
L 2631 2963 
z
" transform="scale(0.015625)"/>
      <path id="DejaVuSans-63" d="M 3122 3366 
L 3122 2828 
Q 2878 2963 2633 3030 
Q 2388 3097 2138 3097 
Q 1578 3097 1268 2742 
Q 959 2388 959 1747 
Q 959 1106 1268 751 
Q 1578 397 2138 397 
Q 2388 397 2633 464 
Q 2878 531 3122 666 
L 3122 134 
Q 2881 22 2623 -34 
Q 2366 -91 2075 -91 
Q 1284 -91 818 406 
Q 353 903 353 1747 
Q 353 2603 823 3093 
Q 1294 3584 2113 3584 
Q 2378 3584 2631 3529 
Q 2884 3475 3122 3366 
z
" transform="scale(0.015625)"/>
     </defs>
     <use xlink:href="#DejaVuSans-31"/>
     <use xlink:href="#DejaVuSans-66" x="63.623047"/>
     <use xlink:href="#DejaVuSans-69" x="98.828125"/>
     <use xlink:href="#DejaVuSans-6e" x="126.611328"/>
     <use xlink:href="#DejaVuSans-61" x="189.990234"/>
     <use xlink:href="#DejaVuSans-6c" x="251.269531"/>
     <use xlink:href="#DejaVuSans-5f" x="279.052734"/>
     <use xlink:href="#DejaVuSans-6e" x="329.052734"/>
     <use xlink:href="#DejaVuSans-61" x="392.431641"/>
     <use xlink:href="#DejaVuSans-69" x="453.710938"/>
     <use xlink:href="#DejaVuSans-76" x="481.494141"/>
     <use xlink:href="#DejaVuSans-65" x="540.673828"/>
     <use xlink:href="#DejaVuSans-5f" x="602.197266"/>
     <use xlink:href="#DejaVuSans-70" x="652.197266"/>
     <use xlink:href="#DejaVuSans-72" x="715.673828"/>
     <use xlink:href="#DejaVuSans-5f" x="756.787109"/>
     <use xlink:href="#DejaVuSans-63" x="806.787109"/>
     <use xlink:href="#DejaVuSans-63" x="861.767578"/>
     <use xlink:href="#DejaVuSans-69" x="916.748047"/>
    </g>
   </g>
   <g id="legend_1">
    <g id="patch_7">
     <path d="M 64.6 93.506375 
L 258.804688 93.506375 
Q 260.804688 93.506375 260.804688 91.506375 
L 260.804688 48.472 
Q 260.804688 46.472 258.804688 46.472 
L 64.6 46.472 
Q 62.6 46.472 62.6 48.472 
L 62.6 91.506375 
Q 62.6 93.506375 64.6 93.506375 
z
" style="fill: #ffffff; opacity: 0.8; stroke: #cccccc; stroke-linejoin: miter"/>
    </g>
    <g id="line2d_16">
     <path d="M 66.6 54.570438 
L 76.6 54.570438 
L 86.6 54.570438 
" style="fill: none; stroke: #1f77b4; stroke-opacity: 0.7; stroke-width: 1.5; stroke-linecap: square"/>
    </g>
    <g id="text_14">
     <!-- Positive cumulative predictions -->
     <g transform="translate(94.6 58.070438) scale(0.1 -0.1)">
      <defs>
       <path id="DejaVuSans-50" d="M 1259 4147 
L 1259 2394 
L 2053 2394 
Q 2494 2394 2734 2622 
Q 2975 2850 2975 3272 
Q 2975 3691 2734 3919 
Q 2494 4147 2053 4147 
L 1259 4147 
z
M 628 4666 
L 2053 4666 
Q 2838 4666 3239 4311 
Q 3641 3956 3641 3272 
Q 3641 2581 3239 2228 
Q 2838 1875 2053 1875 
L 1259 1875 
L 1259 0 
L 628 0 
L 628 4666 
z
" transform="scale(0.015625)"/>
       <path id="DejaVuSans-6f" d="M 1959 3097 
Q 1497 3097 1228 2736 
Q 959 2375 959 1747 
Q 959 1119 1226 758 
Q 1494 397 1959 397 
Q 2419 397 2687 759 
Q 2956 1122 2956 1747 
Q 2956 2369 2687 2733 
Q 2419 3097 1959 3097 
z
M 1959 3584 
Q 2709 3584 3137 3096 
Q 3566 2609 3566 1747 
Q 3566 888 3137 398 
Q 2709 -91 1959 -91 
Q 1206 -91 779 398 
Q 353 888 353 1747 
Q 353 2609 779 3096 
Q 1206 3584 1959 3584 
z
" transform="scale(0.015625)"/>
       <path id="DejaVuSans-73" d="M 2834 3397 
L 2834 2853 
Q 2591 2978 2328 3040 
Q 2066 3103 1784 3103 
Q 1356 3103 1142 2972 
Q 928 2841 928 2578 
Q 928 2378 1081 2264 
Q 1234 2150 1697 2047 
L 1894 2003 
Q 2506 1872 2764 1633 
Q 3022 1394 3022 966 
Q 3022 478 2636 193 
Q 2250 -91 1575 -91 
Q 1294 -91 989 -36 
Q 684 19 347 128 
L 347 722 
Q 666 556 975 473 
Q 1284 391 1588 391 
Q 1994 391 2212 530 
Q 2431 669 2431 922 
Q 2431 1156 2273 1281 
Q 2116 1406 1581 1522 
L 1381 1569 
Q 847 1681 609 1914 
Q 372 2147 372 2553 
Q 372 3047 722 3315 
Q 1072 3584 1716 3584 
Q 2034 3584 2315 3537 
Q 2597 3491 2834 3397 
z
" transform="scale(0.015625)"/>
       <path id="DejaVuSans-74" d="M 1172 4494 
L 1172 3500 
L 2356 3500 
L 2356 3053 
L 1172 3053 
L 1172 1153 
Q 1172 725 1289 603 
Q 1406 481 1766 481 
L 2356 481 
L 2356 0 
L 1766 0 
Q 1100 0 847 248 
Q 594 497 594 1153 
L 594 3053 
L 172 3053 
L 172 3500 
L 594 3500 
L 594 4494 
L 1172 4494 
z
" transform="scale(0.015625)"/>
       <path id="DejaVuSans-20" transform="scale(0.015625)"/>
       <path id="DejaVuSans-75" d="M 544 1381 
L 544 3500 
L 1119 3500 
L 1119 1403 
Q 1119 906 1312 657 
Q 1506 409 1894 409 
Q 2359 409 2629 706 
Q 2900 1003 2900 1516 
L 2900 3500 
L 3475 3500 
L 3475 0 
L 2900 0 
L 2900 538 
Q 2691 219 2414 64 
Q 2138 -91 1772 -91 
Q 1169 -91 856 284 
Q 544 659 544 1381 
z
M 1991 3584 
L 1991 3584 
z
" transform="scale(0.015625)"/>
       <path id="DejaVuSans-6d" d="M 3328 2828 
Q 3544 3216 3844 3400 
Q 4144 3584 4550 3584 
Q 5097 3584 5394 3201 
Q 5691 2819 5691 2113 
L 5691 0 
L 5113 0 
L 5113 2094 
Q 5113 2597 4934 2840 
Q 4756 3084 4391 3084 
Q 3944 3084 3684 2787 
Q 3425 2491 3425 1978 
L 3425 0 
L 2847 0 
L 2847 2094 
Q 2847 2600 2669 2842 
Q 2491 3084 2119 3084 
Q 1678 3084 1418 2786 
Q 1159 2488 1159 1978 
L 1159 0 
L 581 0 
L 581 3500 
L 1159 3500 
L 1159 2956 
Q 1356 3278 1631 3431 
Q 1906 3584 2284 3584 
Q 2666 3584 2933 3390 
Q 3200 3197 3328 2828 
z
" transform="scale(0.015625)"/>
       <path id="DejaVuSans-64" d="M 2906 2969 
L 2906 4863 
L 3481 4863 
L 3481 0 
L 2906 0 
L 2906 525 
Q 2725 213 2448 61 
Q 2172 -91 1784 -91 
Q 1150 -91 751 415 
Q 353 922 353 1747 
Q 353 2572 751 3078 
Q 1150 3584 1784 3584 
Q 2172 3584 2448 3432 
Q 2725 3281 2906 2969 
z
M 947 1747 
Q 947 1113 1208 752 
Q 1469 391 1925 391 
Q 2381 391 2643 752 
Q 2906 1113 2906 1747 
Q 2906 2381 2643 2742 
Q 2381 3103 1925 3103 
Q 1469 3103 1208 2742 
Q 947 2381 947 1747 
z
" transform="scale(0.015625)"/>
      </defs>
      <use xlink:href="#DejaVuSans-50"/>
      <use xlink:href="#DejaVuSans-6f" x="56.677734"/>
      <use xlink:href="#DejaVuSans-73" x="117.859375"/>
      <use xlink:href="#DejaVuSans-69" x="169.958984"/>
      <use xlink:href="#DejaVuSans-74" x="197.742188"/>
      <use xlink:href="#DejaVuSans-69" x="236.951172"/>
      <use xlink:href="#DejaVuSans-76" x="264.734375"/>
      <use xlink:href="#DejaVuSans-65" x="323.914062"/>
      <use xlink:href="#DejaVuSans-20" x="385.4375"/>
      <use xlink:href="#DejaVuSans-63" x="417.224609"/>
      <use xlink:href="#DejaVuSans-75" x="472.205078"/>
      <use xlink:href="#DejaVuSans-6d" x="535.583984"/>
      <use xlink:href="#DejaVuSans-75" x="632.996094"/>
      <use xlink:href="#DejaVuSans-6c" x="696.375"/>
      <use xlink:href="#DejaVuSans-61" x="724.158203"/>
      <use xlink:href="#DejaVuSans-74" x="785.4375"/>
      <use xlink:href="#DejaVuSans-69" x="824.646484"/>
      <use xlink:href="#DejaVuSans-76" x="852.429688"/>
      <use xlink:href="#DejaVuSans-65" x="911.609375"/>
      <use xlink:href="#DejaVuSans-20" x="973.132812"/>
      <use xlink:href="#DejaVuSans-70" x="1004.919922"/>
      <use xlink:href="#DejaVuSans-72" x="1068.396484"/>
      <use xlink:href="#DejaVuSans-65" x="1107.259766"/>
      <use xlink:href="#DejaVuSans-64" x="1168.783203"/>
      <use xlink:href="#DejaVuSans-69" x="1232.259766"/>
      <use xlink:href="#DejaVuSans-63" x="1260.042969"/>
      <use xlink:href="#DejaVuSans-74" x="1315.023438"/>
      <use xlink:href="#DejaVuSans-69" x="1354.232422"/>
      <use xlink:href="#DejaVuSans-6f" x="1382.015625"/>
      <use xlink:href="#DejaVuSans-6e" x="1443.197266"/>
      <use xlink:href="#DejaVuSans-73" x="1506.576172"/>
     </g>
    </g>
    <g id="line2d_17">
     <path d="M 66.6 69.248563 
L 76.6 69.248563 
L 86.6 69.248563 
" style="fill: none; stroke: #ff7f0e; stroke-opacity: 0.7; stroke-width: 1.5; stroke-linecap: square"/>
    </g>
    <g id="text_15">
     <!-- Negative cumulative predictions -->
     <g transform="translate(94.6 72.748563) scale(0.1 -0.1)">
      <defs>
       <path id="DejaVuSans-4e" d="M 628 4666 
L 1478 4666 
L 3547 763 
L 3547 4666 
L 4159 4666 
L 4159 0 
L 3309 0 
L 1241 3903 
L 1241 0 
L 628 0 
L 628 4666 
z
" transform="scale(0.015625)"/>
       <path id="DejaVuSans-67" d="M 2906 1791 
Q 2906 2416 2648 2759 
Q 2391 3103 1925 3103 
Q 1463 3103 1205 2759 
Q 947 2416 947 1791 
Q 947 1169 1205 825 
Q 1463 481 1925 481 
Q 2391 481 2648 825 
Q 2906 1169 2906 1791 
z
M 3481 434 
Q 3481 -459 3084 -895 
Q 2688 -1331 1869 -1331 
Q 1566 -1331 1297 -1286 
Q 1028 -1241 775 -1147 
L 775 -588 
Q 1028 -725 1275 -790 
Q 1522 -856 1778 -856 
Q 2344 -856 2625 -561 
Q 2906 -266 2906 331 
L 2906 616 
Q 2728 306 2450 153 
Q 2172 0 1784 0 
Q 1141 0 747 490 
Q 353 981 353 1791 
Q 353 2603 747 3093 
Q 1141 3584 1784 3584 
Q 2172 3584 2450 3431 
Q 2728 3278 2906 2969 
L 2906 3500 
L 3481 3500 
L 3481 434 
z
" transform="scale(0.015625)"/>
      </defs>
      <use xlink:href="#DejaVuSans-4e"/>
      <use xlink:href="#DejaVuSans-65" x="74.804688"/>
      <use xlink:href="#DejaVuSans-67" x="136.328125"/>
      <use xlink:href="#DejaVuSans-61" x="199.804688"/>
      <use xlink:href="#DejaVuSans-74" x="261.083984"/>
      <use xlink:href="#DejaVuSans-69" x="300.292969"/>
      <use xlink:href="#DejaVuSans-76" x="328.076172"/>
      <use xlink:href="#DejaVuSans-65" x="387.255859"/>
      <use xlink:href="#DejaVuSans-20" x="448.779297"/>
      <use xlink:href="#DejaVuSans-63" x="480.566406"/>
      <use xlink:href="#DejaVuSans-75" x="535.546875"/>
      <use xlink:href="#DejaVuSans-6d" x="598.925781"/>
      <use xlink:href="#DejaVuSans-75" x="696.337891"/>
      <use xlink:href="#DejaVuSans-6c" x="759.716797"/>
      <use xlink:href="#DejaVuSans-61" x="787.5"/>
      <use xlink:href="#DejaVuSans-74" x="848.779297"/>
      <use xlink:href="#DejaVuSans-69" x="887.988281"/>
      <use xlink:href="#DejaVuSans-76" x="915.771484"/>
      <use xlink:href="#DejaVuSans-65" x="974.951172"/>
      <use xlink:href="#DejaVuSans-20" x="1036.474609"/>
      <use xlink:href="#DejaVuSans-70" x="1068.261719"/>
      <use xlink:href="#DejaVuSans-72" x="1131.738281"/>
      <use xlink:href="#DejaVuSans-65" x="1170.601562"/>
      <use xlink:href="#DejaVuSans-64" x="1232.125"/>
      <use xlink:href="#DejaVuSans-69" x="1295.601562"/>
      <use xlink:href="#DejaVuSans-63" x="1323.384766"/>
      <use xlink:href="#DejaVuSans-74" x="1378.365234"/>
      <use xlink:href="#DejaVuSans-69" x="1417.574219"/>
      <use xlink:href="#DejaVuSans-6f" x="1445.357422"/>
      <use xlink:href="#DejaVuSans-6e" x="1506.539062"/>
      <use xlink:href="#DejaVuSans-73" x="1569.917969"/>
     </g>
    </g>
    <g id="line2d_18">
     <path d="M 66.6 83.926688 
L 76.6 83.926688 
L 86.6 83.926688 
" style="fill: none; stroke: #2ca02c; stroke-opacity: 0.7; stroke-width: 1.5; stroke-linecap: square"/>
    </g>
    <g id="text_16">
     <!-- Average cumulative predictions -->
     <g transform="translate(94.6 87.426688) scale(0.1 -0.1)">
      <defs>
       <path id="DejaVuSans-41" d="M 2188 4044 
L 1331 1722 
L 3047 1722 
L 2188 4044 
z
M 1831 4666 
L 2547 4666 
L 4325 0 
L 3669 0 
L 3244 1197 
L 1141 1197 
L 716 0 
L 50 0 
L 1831 4666 
z
" transform="scale(0.015625)"/>
      </defs>
      <use xlink:href="#DejaVuSans-41"/>
      <use xlink:href="#DejaVuSans-76" x="62.533203"/>
      <use xlink:href="#DejaVuSans-65" x="121.712891"/>
      <use xlink:href="#DejaVuSans-72" x="183.236328"/>
      <use xlink:href="#DejaVuSans-61" x="224.349609"/>
      <use xlink:href="#DejaVuSans-67" x="285.628906"/>
      <use xlink:href="#DejaVuSans-65" x="349.105469"/>
      <use xlink:href="#DejaVuSans-20" x="410.628906"/>
      <use xlink:href="#DejaVuSans-63" x="442.416016"/>
      <use xlink:href="#DejaVuSans-75" x="497.396484"/>
      <use xlink:href="#DejaVuSans-6d" x="560.775391"/>
      <use xlink:href="#DejaVuSans-75" x="658.1875"/>
      <use xlink:href="#DejaVuSans-6c" x="721.566406"/>
      <use xlink:href="#DejaVuSans-61" x="749.349609"/>
      <use xlink:href="#DejaVuSans-74" x="810.628906"/>
      <use xlink:href="#DejaVuSans-69" x="849.837891"/>
      <use xlink:href="#DejaVuSans-76" x="877.621094"/>
      <use xlink:href="#DejaVuSans-65" x="936.800781"/>
      <use xlink:href="#DejaVuSans-20" x="998.324219"/>
      <use xlink:href="#DejaVuSans-70" x="1030.111328"/>
      <use xlink:href="#DejaVuSans-72" x="1093.587891"/>
      <use xlink:href="#DejaVuSans-65" x="1132.451172"/>
      <use xlink:href="#DejaVuSans-64" x="1193.974609"/>
      <use xlink:href="#DejaVuSans-69" x="1257.451172"/>
      <use xlink:href="#DejaVuSans-63" x="1285.234375"/>
      <use xlink:href="#DejaVuSans-74" x="1340.214844"/>
      <use xlink:href="#DejaVuSans-69" x="1379.423828"/>
      <use xlink:href="#DejaVuSans-6f" x="1407.207031"/>
      <use xlink:href="#DejaVuSans-6e" x="1468.388672"/>
      <use xlink:href="#DejaVuSans-73" x="1531.767578"/>
     </g>
    </g>
   </g>
  </g>
 </g>
 <defs>
  <clipPath id="p9f1070552f">
   <rect x="57.6" y="41.472" width="357.12" height="266.112"/>
  </clipPath>
 </defs>
</svg>
