<?xml version="1.0" encoding="utf-8" standalone="no"?>
<!DOCTYPE svg PUBLIC "-//W3C//DTD SVG 1.1//EN"
  "http://www.w3.org/Graphics/SVG/1.1/DTD/svg11.dtd">
<svg xmlns:xlink="http://www.w3.org/1999/xlink" width="460.8pt" height="345.6pt" viewBox="0 0 460.8 345.6" xmlns="http://www.w3.org/2000/svg" version="1.1">
 <metadata>
  <rdf:RDF xmlns:dc="http://purl.org/dc/elements/1.1/" xmlns:cc="http://creativecommons.org/ns#" xmlns:rdf="http://www.w3.org/1999/02/22-rdf-syntax-ns#">
   <cc:Work>
    <dc:type rdf:resource="http://purl.org/dc/dcmitype/StillImage"/>
    <dc:date>2024-09-08T13:36:26.868386</dc:date>
    <dc:format>image/svg+xml</dc:format>
    <dc:creator>
     <cc:Agent>
      <dc:title>Matplotlib v3.8.3, https://matplotlib.org/</dc:title>
     </cc:Agent>
    </dc:creator>
   </cc:Work>
  </rdf:RDF>
 </metadata>
 <defs>
  <style type="text/css">*{stroke-linejoin: round; stroke-linecap: butt}</style>
 </defs>
 <g id="figure_1">
  <g id="patch_1">
   <path d="M 0 345.6 
L 460.8 345.6 
L 460.8 0 
L 0 0 
z
" style="fill: #ffffff"/>
  </g>
  <g id="axes_1">
   <g id="patch_2">
    <path d="M 57.6 307.584 
L 414.72 307.584 
L 414.72 41.472 
L 57.6 41.472 
z
" style="fill: #ffffff"/>
   </g>
   <g id="matplotlib.axis_1">
    <g id="xtick_1">
     <g id="line2d_1">
      <defs>
       <path id="m359b370b6b" d="M 0 0 
L 0 3.5 
" style="stroke: #000000; stroke-width: 0.8"/>
      </defs>
      <g>
       <use xlink:href="#m359b370b6b" x="73.832727" y="307.584" style="stroke: #000000; stroke-width: 0.8"/>
      </g>
     </g>
     <g id="text_1">
      <!-- 0 -->
      <g transform="translate(70.651477 322.182437) scale(0.1 -0.1)">
       <defs>
        <path id="DejaVuSans-30" d="M 2034 4250 
Q 1547 4250 1301 3770 
Q 1056 3291 1056 2328 
Q 1056 1369 1301 889 
Q 1547 409 2034 409 
Q 2525 409 2770 889 
Q 3016 1369 3016 2328 
Q 3016 3291 2770 3770 
Q 2525 4250 2034 4250 
z
M 2034 4750 
Q 2819 4750 3233 4129 
Q 3647 3509 3647 2328 
Q 3647 1150 3233 529 
Q 2819 -91 2034 -91 
Q 1250 -91 836 529 
Q 422 1150 422 2328 
Q 422 3509 836 4129 
Q 1250 4750 2034 4750 
z
" transform="scale(0.015625)"/>
       </defs>
       <use xlink:href="#DejaVuSans-30"/>
      </g>
     </g>
    </g>
    <g id="xtick_2">
     <g id="line2d_2">
      <g>
       <use xlink:href="#m359b370b6b" x="118.003414" y="307.584" style="stroke: #000000; stroke-width: 0.8"/>
      </g>
     </g>
     <g id="text_2">
      <!-- 20 -->
      <g transform="translate(111.640914 322.182437) scale(0.1 -0.1)">
       <defs>
        <path id="DejaVuSans-32" d="M 1228 531 
L 3431 531 
L 3431 0 
L 469 0 
L 469 531 
Q 828 903 1448 1529 
Q 2069 2156 2228 2338 
Q 2531 2678 2651 2914 
Q 2772 3150 2772 3378 
Q 2772 3750 2511 3984 
Q 2250 4219 1831 4219 
Q 1534 4219 1204 4116 
Q 875 4013 500 3803 
L 500 4441 
Q 881 4594 1212 4672 
Q 1544 4750 1819 4750 
Q 2544 4750 2975 4387 
Q 3406 4025 3406 3419 
Q 3406 3131 3298 2873 
Q 3191 2616 2906 2266 
Q 2828 2175 2409 1742 
Q 1991 1309 1228 531 
z
" transform="scale(0.015625)"/>
       </defs>
       <use xlink:href="#DejaVuSans-32"/>
       <use xlink:href="#DejaVuSans-30" x="63.623047"/>
      </g>
     </g>
    </g>
    <g id="xtick_3">
     <g id="line2d_3">
      <g>
       <use xlink:href="#m359b370b6b" x="162.1741" y="307.584" style="stroke: #000000; stroke-width: 0.8"/>
      </g>
     </g>
     <g id="text_3">
      <!-- 40 -->
      <g transform="translate(155.8116 322.182437) scale(0.1 -0.1)">
       <defs>
        <path id="DejaVuSans-34" d="M 2419 4116 
L 825 1625 
L 2419 1625 
L 2419 4116 
z
M 2253 4666 
L 3047 4666 
L 3047 1625 
L 3713 1625 
L 3713 1100 
L 3047 1100 
L 3047 0 
L 2419 0 
L 2419 1100 
L 313 1100 
L 313 1709 
L 2253 4666 
z
" transform="scale(0.015625)"/>
       </defs>
       <use xlink:href="#DejaVuSans-34"/>
       <use xlink:href="#DejaVuSans-30" x="63.623047"/>
      </g>
     </g>
    </g>
    <g id="xtick_4">
     <g id="line2d_4">
      <g>
       <use xlink:href="#m359b370b6b" x="206.344787" y="307.584" style="stroke: #000000; stroke-width: 0.8"/>
      </g>
     </g>
     <g id="text_4">
      <!-- 60 -->
      <g transform="translate(199.982287 322.182437) scale(0.1 -0.1)">
       <defs>
        <path id="DejaVuSans-36" d="M 2113 2584 
Q 1688 2584 1439 2293 
Q 1191 2003 1191 1497 
Q 1191 994 1439 701 
Q 1688 409 2113 409 
Q 2538 409 2786 701 
Q 3034 994 3034 1497 
Q 3034 2003 2786 2293 
Q 2538 2584 2113 2584 
z
M 3366 4563 
L 3366 3988 
Q 3128 4100 2886 4159 
Q 2644 4219 2406 4219 
Q 1781 4219 1451 3797 
Q 1122 3375 1075 2522 
Q 1259 2794 1537 2939 
Q 1816 3084 2150 3084 
Q 2853 3084 3261 2657 
Q 3669 2231 3669 1497 
Q 3669 778 3244 343 
Q 2819 -91 2113 -91 
Q 1303 -91 875 529 
Q 447 1150 447 2328 
Q 447 3434 972 4092 
Q 1497 4750 2381 4750 
Q 2619 4750 2861 4703 
Q 3103 4656 3366 4563 
z
" transform="scale(0.015625)"/>
       </defs>
       <use xlink:href="#DejaVuSans-36"/>
       <use xlink:href="#DejaVuSans-30" x="63.623047"/>
      </g>
     </g>
    </g>
    <g id="xtick_5">
     <g id="line2d_5">
      <g>
       <use xlink:href="#m359b370b6b" x="250.515473" y="307.584" style="stroke: #000000; stroke-width: 0.8"/>
      </g>
     </g>
     <g id="text_5">
      <!-- 80 -->
      <g transform="translate(244.152973 322.182437) scale(0.1 -0.1)">
       <defs>
        <path id="DejaVuSans-38" d="M 2034 2216 
Q 1584 2216 1326 1975 
Q 1069 1734 1069 1313 
Q 1069 891 1326 650 
Q 1584 409 2034 409 
Q 2484 409 2743 651 
Q 3003 894 3003 1313 
Q 3003 1734 2745 1975 
Q 2488 2216 2034 2216 
z
M 1403 2484 
Q 997 2584 770 2862 
Q 544 3141 544 3541 
Q 544 4100 942 4425 
Q 1341 4750 2034 4750 
Q 2731 4750 3128 4425 
Q 3525 4100 3525 3541 
Q 3525 3141 3298 2862 
Q 3072 2584 2669 2484 
Q 3125 2378 3379 2068 
Q 3634 1759 3634 1313 
Q 3634 634 3220 271 
Q 2806 -91 2034 -91 
Q 1263 -91 848 271 
Q 434 634 434 1313 
Q 434 1759 690 2068 
Q 947 2378 1403 2484 
z
M 1172 3481 
Q 1172 3119 1398 2916 
Q 1625 2713 2034 2713 
Q 2441 2713 2670 2916 
Q 2900 3119 2900 3481 
Q 2900 3844 2670 4047 
Q 2441 4250 2034 4250 
Q 1625 4250 1398 4047 
Q 1172 3844 1172 3481 
z
" transform="scale(0.015625)"/>
       </defs>
       <use xlink:href="#DejaVuSans-38"/>
       <use xlink:href="#DejaVuSans-30" x="63.623047"/>
      </g>
     </g>
    </g>
    <g id="xtick_6">
     <g id="line2d_6">
      <g>
       <use xlink:href="#m359b370b6b" x="294.68616" y="307.584" style="stroke: #000000; stroke-width: 0.8"/>
      </g>
     </g>
     <g id="text_6">
      <!-- 100 -->
      <g transform="translate(285.14241 322.182437) scale(0.1 -0.1)">
       <defs>
        <path id="DejaVuSans-31" d="M 794 531 
L 1825 531 
L 1825 4091 
L 703 3866 
L 703 4441 
L 1819 4666 
L 2450 4666 
L 2450 531 
L 3481 531 
L 3481 0 
L 794 0 
L 794 531 
z
" transform="scale(0.015625)"/>
       </defs>
       <use xlink:href="#DejaVuSans-31"/>
       <use xlink:href="#DejaVuSans-30" x="63.623047"/>
       <use xlink:href="#DejaVuSans-30" x="127.246094"/>
      </g>
     </g>
    </g>
    <g id="xtick_7">
     <g id="line2d_7">
      <g>
       <use xlink:href="#m359b370b6b" x="338.856846" y="307.584" style="stroke: #000000; stroke-width: 0.8"/>
      </g>
     </g>
     <g id="text_7">
      <!-- 120 -->
      <g transform="translate(329.313096 322.182437) scale(0.1 -0.1)">
       <use xlink:href="#DejaVuSans-31"/>
       <use xlink:href="#DejaVuSans-32" x="63.623047"/>
       <use xlink:href="#DejaVuSans-30" x="127.246094"/>
      </g>
     </g>
    </g>
    <g id="xtick_8">
     <g id="line2d_8">
      <g>
       <use xlink:href="#m359b370b6b" x="383.027532" y="307.584" style="stroke: #000000; stroke-width: 0.8"/>
      </g>
     </g>
     <g id="text_8">
      <!-- 140 -->
      <g transform="translate(373.483782 322.182437) scale(0.1 -0.1)">
       <use xlink:href="#DejaVuSans-31"/>
       <use xlink:href="#DejaVuSans-34" x="63.623047"/>
       <use xlink:href="#DejaVuSans-30" x="127.246094"/>
      </g>
     </g>
    </g>
   </g>
   <g id="matplotlib.axis_2">
    <g id="ytick_1">
     <g id="line2d_9">
      <defs>
       <path id="m3217a8ade3" d="M 0 0 
L -3.5 0 
" style="stroke: #000000; stroke-width: 0.8"/>
      </defs>
      <g>
       <use xlink:href="#m3217a8ade3" x="57.6" y="280.06129" style="stroke: #000000; stroke-width: 0.8"/>
      </g>
     </g>
     <g id="text_9">
      <!-- −300 -->
      <g transform="translate(23.132812 283.860509) scale(0.1 -0.1)">
       <defs>
        <path id="DejaVuSans-2212" d="M 678 2272 
L 4684 2272 
L 4684 1741 
L 678 1741 
L 678 2272 
z
" transform="scale(0.015625)"/>
        <path id="DejaVuSans-33" d="M 2597 2516 
Q 3050 2419 3304 2112 
Q 3559 1806 3559 1356 
Q 3559 666 3084 287 
Q 2609 -91 1734 -91 
Q 1441 -91 1130 -33 
Q 819 25 488 141 
L 488 750 
Q 750 597 1062 519 
Q 1375 441 1716 441 
Q 2309 441 2620 675 
Q 2931 909 2931 1356 
Q 2931 1769 2642 2001 
Q 2353 2234 1838 2234 
L 1294 2234 
L 1294 2753 
L 1863 2753 
Q 2328 2753 2575 2939 
Q 2822 3125 2822 3475 
Q 2822 3834 2567 4026 
Q 2313 4219 1838 4219 
Q 1578 4219 1281 4162 
Q 984 4106 628 3988 
L 628 4550 
Q 988 4650 1302 4700 
Q 1616 4750 1894 4750 
Q 2613 4750 3031 4423 
Q 3450 4097 3450 3541 
Q 3450 3153 3228 2886 
Q 3006 2619 2597 2516 
z
" transform="scale(0.015625)"/>
       </defs>
       <use xlink:href="#DejaVuSans-2212"/>
       <use xlink:href="#DejaVuSans-33" x="83.789062"/>
       <use xlink:href="#DejaVuSans-30" x="147.412109"/>
       <use xlink:href="#DejaVuSans-30" x="211.035156"/>
      </g>
     </g>
    </g>
    <g id="ytick_2">
     <g id="line2d_10">
      <g>
       <use xlink:href="#m3217a8ade3" x="57.6" y="244.852748" style="stroke: #000000; stroke-width: 0.8"/>
      </g>
     </g>
     <g id="text_10">
      <!-- −200 -->
      <g transform="translate(23.132812 248.651967) scale(0.1 -0.1)">
       <use xlink:href="#DejaVuSans-2212"/>
       <use xlink:href="#DejaVuSans-32" x="83.789062"/>
       <use xlink:href="#DejaVuSans-30" x="147.412109"/>
       <use xlink:href="#DejaVuSans-30" x="211.035156"/>
      </g>
     </g>
    </g>
    <g id="ytick_3">
     <g id="line2d_11">
      <g>
       <use xlink:href="#m3217a8ade3" x="57.6" y="209.644206" style="stroke: #000000; stroke-width: 0.8"/>
      </g>
     </g>
     <g id="text_11">
      <!-- −100 -->
      <g transform="translate(23.132812 213.443425) scale(0.1 -0.1)">
       <use xlink:href="#DejaVuSans-2212"/>
       <use xlink:href="#DejaVuSans-31" x="83.789062"/>
       <use xlink:href="#DejaVuSans-30" x="147.412109"/>
       <use xlink:href="#DejaVuSans-30" x="211.035156"/>
      </g>
     </g>
    </g>
    <g id="ytick_4">
     <g id="line2d_12">
      <g>
       <use xlink:href="#m3217a8ade3" x="57.6" y="174.435663" style="stroke: #000000; stroke-width: 0.8"/>
      </g>
     </g>
     <g id="text_12">
      <!-- 0 -->
      <g transform="translate(44.2375 178.234882) scale(0.1 -0.1)">
       <use xlink:href="#DejaVuSans-30"/>
      </g>
     </g>
    </g>
    <g id="ytick_5">
     <g id="line2d_13">
      <g>
       <use xlink:href="#m3217a8ade3" x="57.6" y="139.227121" style="stroke: #000000; stroke-width: 0.8"/>
      </g>
     </g>
     <g id="text_13">
      <!-- 100 -->
      <g transform="translate(31.5125 143.02634) scale(0.1 -0.1)">
       <use xlink:href="#DejaVuSans-31"/>
       <use xlink:href="#DejaVuSans-30" x="63.623047"/>
       <use xlink:href="#DejaVuSans-30" x="127.246094"/>
      </g>
     </g>
    </g>
    <g id="ytick_6">
     <g id="line2d_14">
      <g>
       <use xlink:href="#m3217a8ade3" x="57.6" y="104.018579" style="stroke: #000000; stroke-width: 0.8"/>
      </g>
     </g>
     <g id="text_14">
      <!-- 200 -->
      <g transform="translate(31.5125 107.817798) scale(0.1 -0.1)">
       <use xlink:href="#DejaVuSans-32"/>
       <use xlink:href="#DejaVuSans-30" x="63.623047"/>
       <use xlink:href="#DejaVuSans-30" x="127.246094"/>
      </g>
     </g>
    </g>
    <g id="ytick_7">
     <g id="line2d_15">
      <g>
       <use xlink:href="#m3217a8ade3" x="57.6" y="68.810037" style="stroke: #000000; stroke-width: 0.8"/>
      </g>
     </g>
     <g id="text_15">
      <!-- 300 -->
      <g transform="translate(31.5125 72.609255) scale(0.1 -0.1)">
       <use xlink:href="#DejaVuSans-33"/>
       <use xlink:href="#DejaVuSans-30" x="63.623047"/>
       <use xlink:href="#DejaVuSans-30" x="127.246094"/>
      </g>
     </g>
    </g>
   </g>
   <g id="line2d_16">
    <path d="M 73.832727 183.928466 
L 76.041262 178.529752 
L 78.249796 173.783139 
L 80.45833 177.066748 
L 82.666865 178.624615 
L 84.875399 178.534504 
L 87.083933 177.983644 
L 89.292468 179.174225 
L 91.501002 178.242836 
L 93.709536 180.067449 
L 95.918071 177.477054 
L 98.126605 179.097588 
L 100.335139 176.293315 
L 102.543673 177.027742 
L 104.752208 176.243967 
L 106.960742 175.317273 
L 109.169276 174.686138 
L 111.377811 180.652116 
L 113.586345 181.721505 
L 115.794879 183.139515 
L 118.003414 177.325414 
L 120.211948 182.498909 
L 122.420482 190.207439 
L 124.629017 183.176562 
L 126.837551 182.357752 
L 129.046085 182.385774 
L 131.25462 179.202685 
L 133.463154 178.741255 
L 135.671688 181.217538 
L 137.880223 181.496102 
L 140.088757 175.279554 
L 142.297291 178.147788 
L 144.505826 181.534476 
L 146.71436 179.513999 
L 148.922894 175.748577 
L 151.131429 177.901285 
L 153.339963 171.331397 
L 155.548497 184.442025 
L 157.757032 180.935411 
L 159.965566 181.544896 
L 162.1741 173.914045 
L 164.382635 179.34963 
L 166.591169 179.709447 
L 168.799703 179.043161 
L 171.008237 177.30916 
L 173.216772 176.161475 
L 175.425306 180.39747 
L 177.63384 176.53618 
L 179.842375 174.303911 
L 182.050909 182.223476 
L 184.259443 170.881285 
L 186.467978 181.573709 
L 188.676512 198.947562 
L 190.885046 196.961339 
L 193.093581 206.611849 
L 195.302115 183.001503 
L 197.510649 181.175858 
L 199.719184 191.086689 
L 201.927718 189.541851 
L 204.136252 183.13863 
L 206.344787 188.037702 
L 208.553321 182.666654 
L 210.761855 191.700937 
L 212.97039 187.658213 
L 215.178924 182.419485 
L 217.387458 185.985457 
L 219.595993 194.997139 
L 221.804527 178.345808 
L 224.013061 187.362512 
L 226.221596 179.16611 
L 228.43013 183.087241 
L 230.638664 177.385789 
L 232.847199 179.92795 
L 235.055733 177.106265 
L 237.264267 180.332001 
L 239.472801 176.449469 
L 241.681336 178.966041 
L 243.88987 186.248194 
L 246.098404 179.628658 
L 248.306939 175.022672 
L 250.515473 179.086422 
L 252.724007 174.506901 
L 254.932542 180.07891 
L 257.141076 179.773815 
L 259.34961 181.000357 
L 261.558145 180.933162 
L 263.766679 179.434502 
L 265.975213 176.421466 
L 268.183748 175.242097 
L 270.392282 174.6376 
L 272.600816 180.440419 
L 274.809351 178.309539 
L 277.017885 185.493191 
L 281.434954 179.230511 
L 283.643488 176.865667 
L 285.852022 179.032034 
L 288.060557 185.546574 
L 290.269091 174.239965 
L 292.477625 189.484265 
L 294.68616 180.440433 
L 296.894694 181.326663 
L 299.103228 183.989518 
L 301.311763 187.455698 
L 303.520297 183.178796 
L 305.728831 169.983795 
L 307.937365 189.204912 
L 310.1459 196.310206 
L 312.354434 174.175705 
L 314.562968 189.951359 
L 316.771503 181.397426 
L 318.980037 189.668045 
L 321.188571 195.232902 
L 323.397106 189.895777 
L 325.60564 182.013776 
L 327.814174 182.17392 
L 330.022709 193.252109 
L 332.231243 183.289814 
L 334.439777 184.522073 
L 336.648312 191.328521 
L 338.856846 187.435628 
L 341.06538 174.762548 
L 343.273915 181.411338 
L 345.482449 186.962044 
L 347.690983 185.449629 
L 349.899518 188.194743 
L 352.108052 174.411189 
L 354.316586 183.722369 
L 356.525121 184.11847 
L 358.733655 179.451945 
L 360.942189 183.643715 
L 363.150724 175.101479 
L 365.359258 180.690464 
L 367.567792 191.324162 
L 369.776327 187.711103 
L 371.984861 178.696694 
L 374.193395 189.294299 
L 376.401929 183.76117 
L 378.610464 179.106307 
L 380.818998 179.116341 
L 383.027532 173.287282 
L 385.236067 179.900974 
L 387.444601 183.881201 
L 389.653135 184.088331 
L 391.86167 184.449845 
L 394.070204 184.367107 
L 396.278738 185.523108 
L 398.487273 186.334579 
L 398.487273 186.334579 
" clip-path="url(#pc3b9991c38)" style="fill: none; stroke: #008000; stroke-opacity: 0.8; stroke-width: 0.5; stroke-linecap: square"/>
   </g>
   <g id="line2d_17">
    <path d="M 73.832727 168.25408 
L 76.041262 168.395613 
L 78.249796 155.849963 
L 80.45833 144.816082 
L 82.666865 166.684713 
L 84.875399 170.089709 
L 87.083933 168.979324 
L 89.292468 165.010358 
L 91.501002 169.366212 
L 93.709536 163.233089 
L 95.918071 167.628084 
L 98.126605 171.396634 
L 100.335139 168.375531 
L 102.543673 171.229288 
L 104.752208 168.878037 
L 106.960742 169.798373 
L 109.169276 143.405729 
L 111.377811 157.591092 
L 113.586345 167.745149 
L 115.794879 164.171763 
L 118.003414 140.860187 
L 120.211948 162.996399 
L 122.420482 169.430717 
L 124.629017 167.621455 
L 126.837551 167.824359 
L 129.046085 174.918329 
L 131.25462 169.919555 
L 133.463154 161.839584 
L 135.671688 173.093624 
L 137.880223 171.526274 
L 140.088757 159.67274 
L 142.297291 152.034314 
L 144.505826 165.877034 
L 146.71436 171.293735 
L 148.922894 164.536708 
L 151.131429 166.73613 
L 153.339963 149.751445 
L 155.548497 147.174384 
L 157.757032 153.594287 
L 159.965566 173.18156 
L 162.1741 165.215255 
L 164.382635 160.68411 
L 166.591169 174.422993 
L 168.799703 172.406264 
L 171.008237 171.359097 
L 173.216772 165.451493 
L 175.425306 172.942839 
L 177.63384 163.109941 
L 179.842375 157.950413 
L 182.050909 157.639487 
L 184.259443 137.726002 
L 186.467978 124.037248 
L 188.676512 81.577474 
L 190.885046 152.678253 
L 193.093581 164.191647 
L 195.302115 141.671617 
L 197.510649 151.66637 
L 199.719184 175.453857 
L 201.927718 124.37154 
L 204.136252 139.580109 
L 206.344787 165.692014 
L 208.553321 163.975477 
L 210.761855 184.562514 
L 212.97039 177.429433 
L 215.178924 142.052413 
L 217.387458 157.827736 
L 219.595993 175.704294 
L 221.804527 159.500245 
L 224.013061 140.17981 
L 226.221596 165.219667 
L 228.43013 171.507716 
L 230.638664 169.323376 
L 232.847199 154.75754 
L 235.055733 163.995104 
L 237.264267 137.942574 
L 239.472801 164.187175 
L 241.681336 140.062794 
L 243.88987 160.414145 
L 246.098404 167.247826 
L 248.306939 163.786928 
L 250.515473 164.024473 
L 252.724007 141.244521 
L 254.932542 169.36918 
L 257.141076 170.879738 
L 259.34961 156.474149 
L 261.558145 164.635931 
L 263.766679 155.764563 
L 265.975213 164.579752 
L 268.183748 158.134994 
L 270.392282 164.836751 
L 272.600816 156.144035 
L 274.809351 142.303865 
L 277.017885 167.178658 
L 279.226419 170.334969 
L 281.434954 169.244218 
L 283.643488 137.897724 
L 285.852022 160.256811 
L 288.060557 161.218449 
L 290.269091 140.402215 
L 292.477625 156.224935 
L 294.68616 139.939863 
L 296.894694 140.654259 
L 299.103228 139.161449 
L 301.311763 158.531789 
L 303.520297 162.147882 
L 305.728831 124.9446 
L 307.937365 127.781766 
L 310.1459 119.211018 
L 312.354434 131.15724 
L 314.562968 149.696652 
L 316.771503 163.466248 
L 318.980037 161.195455 
L 321.188571 174.483521 
L 323.397106 157.696231 
L 325.60564 125.758392 
L 327.814174 118.763464 
L 330.022709 170.07448 
L 332.231243 149.655857 
L 334.439777 139.84244 
L 336.648312 159.674138 
L 338.856846 160.051596 
L 341.06538 148.128943 
L 343.273915 160.460358 
L 345.482449 157.89615 
L 347.690983 165.796178 
L 349.899518 172.612032 
L 352.108052 152.441671 
L 354.316586 153.590483 
L 356.525121 155.782099 
L 358.733655 170.111786 
L 360.942189 162.816798 
L 363.150724 160.593772 
L 365.359258 159.350029 
L 367.567792 178.659391 
L 369.776327 165.48035 
L 371.984861 165.637035 
L 374.193395 173.452101 
L 376.401929 170.291009 
L 378.610464 154.372525 
L 380.818998 156.622189 
L 383.027532 147.211162 
L 385.236067 157.791596 
L 387.444601 155.023148 
L 389.653135 160.928153 
L 391.86167 169.220054 
L 394.070204 173.221725 
L 396.278738 169.32862 
L 398.487273 162.653973 
L 398.487273 162.653973 
" clip-path="url(#pc3b9991c38)" style="fill: none; stroke: #32cd32; stroke-opacity: 0.8; stroke-width: 0.5; stroke-linecap: square"/>
   </g>
   <g id="line2d_18">
    <path d="M 73.832727 203.935131 
L 76.041262 195.019204 
L 78.249796 208.341507 
L 80.45833 194.278229 
L 84.875399 189.307736 
L 87.083933 185.997309 
L 89.292468 190.172438 
L 91.501002 182.178371 
L 93.709536 187.81665 
L 95.918071 182.774545 
L 98.126605 191.060218 
L 100.335139 184.773531 
L 102.543673 183.781535 
L 104.752208 181.886992 
L 106.960742 183.892703 
L 109.169276 205.790607 
L 111.377811 207.205739 
L 113.586345 199.415746 
L 115.794879 203.41013 
L 118.003414 197.444452 
L 120.211948 232.993958 
L 122.420482 216.427859 
L 124.629017 194.783448 
L 126.837551 190.273092 
L 129.046085 195.330678 
L 131.25462 192.012915 
L 133.463154 190.958647 
L 135.671688 190.596414 
L 137.880223 189.489454 
L 140.088757 187.612008 
L 142.297291 190.549932 
L 144.505826 201.085728 
L 146.71436 190.603449 
L 148.922894 187.700909 
L 151.131429 185.467092 
L 153.339963 183.548066 
L 155.548497 204.489734 
L 157.757032 195.89115 
L 159.965566 195.244961 
L 162.1741 184.572217 
L 164.382635 195.728945 
L 166.591169 186.099467 
L 168.799703 187.119975 
L 171.008237 187.471551 
L 173.216772 185.556612 
L 175.425306 187.671857 
L 177.63384 184.126664 
L 179.842375 187.394522 
L 182.050909 198.604987 
L 184.259443 187.604813 
L 186.467978 244.146815 
L 188.676512 295.488 
L 190.885046 256.208692 
L 193.093581 232.687526 
L 195.302115 203.720407 
L 197.510649 205.512732 
L 199.719184 205.100559 
L 201.927718 227.086474 
L 204.136252 210.298506 
L 206.344787 207.380775 
L 208.553321 193.979929 
L 210.761855 205.036931 
L 212.97039 193.62048 
L 215.178924 217.017818 
L 217.387458 215.953549 
L 219.595993 211.348368 
L 221.804527 191.208053 
L 224.013061 212.228527 
L 226.221596 196.137818 
L 228.43013 197.13646 
L 230.638664 195.655902 
L 232.847199 194.851657 
L 235.055733 196.92252 
L 237.264267 208.138502 
L 239.472801 192.439555 
L 241.681336 217.673554 
L 243.88987 207.525281 
L 246.098404 199.378408 
L 248.306939 192.457886 
L 250.515473 194.749548 
L 252.724007 196.653629 
L 254.932542 195.535414 
L 257.141076 193.333293 
L 259.34961 201.655313 
L 261.558145 195.714654 
L 263.766679 205.827526 
L 265.975213 191.457137 
L 268.183748 191.052359 
L 270.392282 184.477869 
L 272.600816 203.739683 
L 274.809351 203.126775 
L 277.017885 208.07154 
L 279.226419 193.834198 
L 281.434954 190.706465 
L 283.643488 210.64624 
L 285.852022 215.081287 
L 288.060557 213.440105 
L 290.269091 194.591522 
L 292.477625 226.114205 
L 294.68616 210.578344 
L 296.894694 217.049896 
L 299.103228 234.521872 
L 301.311763 207.182452 
L 303.520297 208.409099 
L 305.728831 223.937705 
L 307.937365 238.383974 
L 310.1459 229.178844 
L 312.354434 204.7532 
L 314.562968 222.08588 
L 316.771503 210.452521 
L 318.980037 221.641978 
L 321.188571 221.917401 
L 323.397106 217.263945 
L 325.60564 218.963 
L 327.814174 214.34804 
L 330.022709 232.404718 
L 332.231243 215.223408 
L 334.439777 225.912312 
L 336.648312 264.839269 
L 338.856846 222.527873 
L 341.06538 206.025548 
L 343.273915 204.3403 
L 345.482449 213.885062 
L 347.690983 206.00391 
L 349.899518 212.79485 
L 352.108052 190.785593 
L 354.316586 214.580485 
L 356.525121 202.194725 
L 358.733655 195.62828 
L 360.942189 213.418608 
L 363.150724 205.350191 
L 365.359258 196.847448 
L 367.567792 208.121414 
L 369.776327 205.610626 
L 371.984861 195.365792 
L 374.193395 205.410561 
L 376.401929 207.678442 
L 378.610464 196.406705 
L 380.818998 203.543226 
L 383.027532 190.926017 
L 385.236067 197.539693 
L 387.444601 201.633356 
L 389.653135 204.195076 
L 391.86167 207.620295 
L 394.070204 194.896541 
L 396.278738 205.184901 
L 398.487273 204.747846 
L 398.487273 204.747846 
" clip-path="url(#pc3b9991c38)" style="fill: none; stroke: #32cd32; stroke-opacity: 0.8; stroke-width: 0.5; stroke-linecap: square"/>
   </g>
   <g id="line2d_19">
    <path d="M 73.832727 171.227849 
L 76.041262 173.302071 
L 78.249796 166.891783 
L 80.45833 172.817949 
L 82.666865 169.661318 
L 84.875399 173.479067 
L 87.083933 171.174622 
L 89.292468 172.296147 
L 91.501002 170.041201 
L 93.709536 172.093266 
L 98.126605 172.205066 
L 100.335139 172.974622 
L 102.543673 171.863585 
L 104.752208 172.199632 
L 106.960742 173.832446 
L 109.169276 168.495257 
L 111.377811 168.894208 
L 113.586345 167.168436 
L 115.794879 169.410361 
L 118.003414 165.382869 
L 120.211948 168.416144 
L 122.420482 163.051155 
L 124.629017 167.723533 
L 126.837551 167.963511 
L 129.046085 169.93351 
L 131.25462 168.531077 
L 133.463154 169.271572 
L 137.880223 172.636684 
L 140.088757 166.123446 
L 142.297291 167.993682 
L 144.505826 172.659807 
L 146.71436 169.957078 
L 148.922894 169.467786 
L 151.131429 170.48619 
L 153.339963 167.693215 
L 155.548497 175.319551 
L 157.757032 171.257052 
L 159.965566 174.381896 
L 162.1741 167.49824 
L 164.382635 172.443362 
L 166.591169 170.810983 
L 168.799703 171.366613 
L 171.008237 172.374664 
L 173.216772 172.532014 
L 175.425306 173.121957 
L 177.63384 172.305061 
L 179.842375 169.207742 
L 182.050909 175.483355 
L 184.259443 161.741504 
L 186.467978 163.235381 
L 188.676512 145.297281 
L 190.885046 163.869934 
L 193.093581 157.308152 
L 195.302115 165.320665 
L 197.510649 163.520816 
L 199.719184 168.571748 
L 201.927718 165.791029 
L 204.136252 169.485745 
L 208.553321 168.548129 
L 210.761855 170.548111 
L 212.97039 174.285298 
L 215.178924 165.328491 
L 217.387458 164.881175 
L 219.595993 172.016687 
L 221.804527 163.652393 
L 224.013061 171.929447 
L 226.221596 164.546206 
L 228.43013 170.512549 
L 230.638664 166.399919 
L 232.847199 172.12381 
L 235.055733 172.769871 
L 237.264267 169.943056 
L 239.472801 165.087707 
L 243.88987 168.6688 
L 246.098404 169.700811 
L 248.306939 168.738675 
L 250.515473 168.422385 
L 252.724007 168.249735 
L 254.932542 171.774896 
L 257.141076 170.452656 
L 259.34961 170.539031 
L 261.558145 169.277485 
L 263.766679 170.523115 
L 265.975213 168.659061 
L 268.183748 170.112269 
L 270.392282 168.433486 
L 272.600816 169.255736 
L 274.809351 165.663916 
L 277.017885 174.518832 
L 279.226419 169.901789 
L 281.434954 167.857044 
L 283.643488 162.742475 
L 285.852022 165.237919 
L 288.060557 170.154616 
L 290.269091 159.239381 
L 292.477625 169.084069 
L 294.68616 157.300163 
L 296.894694 165.663222 
L 299.103228 170.966136 
L 301.311763 163.346416 
L 305.728831 154.590361 
L 307.937365 163.260557 
L 310.1459 167.363621 
L 312.354434 147.13506 
L 314.562968 171.731573 
L 316.771503 168.804338 
L 318.980037 173.249001 
L 321.188571 169.199292 
L 323.397106 160.75028 
L 325.60564 160.174257 
L 327.814174 158.122079 
L 330.022709 163.096879 
L 332.231243 160.775979 
L 334.439777 158.15702 
L 336.648312 168.906498 
L 338.856846 157.554566 
L 341.06538 154.988787 
L 343.273915 158.997789 
L 345.482449 167.074787 
L 347.690983 172.386101 
L 349.899518 164.056188 
L 352.108052 161.241829 
L 354.316586 166.612547 
L 356.525121 164.948868 
L 358.733655 168.499466 
L 360.942189 168.94814 
L 363.150724 168.750778 
L 365.359258 169.280285 
L 367.567792 171.234814 
L 369.776327 169.913933 
L 371.984861 169.26652 
L 374.193395 173.088079 
L 376.401929 164.691644 
L 378.610464 167.872018 
L 380.818998 167.373014 
L 383.027532 167.523375 
L 385.236067 164.136897 
L 387.444601 168.044797 
L 389.653135 171.105001 
L 391.86167 168.881134 
L 394.070204 166.495765 
L 396.278738 169.013896 
L 398.487273 168.797698 
L 398.487273 168.797698 
" clip-path="url(#pc3b9991c38)" style="fill: none; stroke: #ff0000; stroke-opacity: 0.8; stroke-width: 0.5; stroke-linecap: square"/>
   </g>
   <g id="line2d_20">
    <path d="M 73.832727 155.141356 
L 76.041262 159.753647 
L 78.249796 145.805242 
L 80.45833 146.758169 
L 82.666865 159.478377 
L 84.875399 161.381401 
L 87.083933 162.678666 
L 89.292468 161.417565 
L 91.501002 165.401935 
L 93.709536 156.0177 
L 95.918071 164.414681 
L 98.126605 164.437194 
L 100.335139 164.055017 
L 102.543673 167.040647 
L 104.752208 166.129031 
L 106.960742 166.093942 
L 109.169276 137.834301 
L 111.377811 140.556911 
L 113.586345 151.93211 
L 115.794879 151.877086 
L 118.003414 133.066772 
L 120.211948 151.240953 
L 122.420482 136.395137 
L 124.629017 153.814584 
L 126.837551 155.886323 
L 129.046085 159.778324 
L 133.463154 150.893504 
L 135.671688 163.15219 
L 137.880223 167.752229 
L 140.088757 154.730355 
L 142.297291 146.707 
L 144.505826 156.594158 
L 146.71436 162.010598 
L 148.922894 158.69788 
L 151.131429 164.822216 
L 153.339963 147.850672 
L 155.548497 139.964856 
L 157.757032 139.165994 
L 159.965566 166.588296 
L 164.382635 148.537625 
L 166.591169 162.131688 
L 168.799703 165.405566 
L 171.008237 167.334118 
L 173.216772 163.368343 
L 175.425306 167.93759 
L 177.63384 163.547766 
L 179.842375 153.34291 
L 182.050909 152.12932 
L 184.259443 130.689001 
L 186.467978 88.194867 
L 188.676512 53.568 
L 190.885046 105.889849 
L 193.093581 124.90639 
L 195.302115 129.495489 
L 197.510649 138.229265 
L 199.719184 157.847692 
L 201.927718 98.76085 
L 204.136252 141.192645 
L 206.344787 151.177524 
L 208.553321 153.064038 
L 210.761855 158.596031 
L 212.97039 166.863322 
L 215.178924 121.738163 
L 217.387458 136.406474 
L 219.595993 143.125526 
L 221.804527 142.677595 
L 224.013061 128.988908 
L 226.221596 147.757491 
L 228.43013 158.857293 
L 230.638664 159.047771 
L 232.847199 148.225199 
L 235.055733 157.254802 
L 237.264267 132.166008 
L 239.472801 157.026051 
L 241.681336 137.950374 
L 243.88987 142.350762 
L 246.098404 153.368973 
L 248.306939 155.959273 
L 250.515473 153.757242 
L 252.724007 136.053797 
L 254.932542 163.672941 
L 257.141076 162.998303 
L 259.34961 153.180397 
L 261.558145 153.944252 
L 263.766679 143.403887 
L 265.975213 155.41967 
L 268.183748 154.336859 
L 270.392282 156.670134 
L 272.600816 144.68951 
L 274.809351 128.652921 
L 277.017885 154.878204 
L 279.226419 156.947637 
L 281.434954 151.745946 
L 283.643488 128.188276 
L 285.852022 143.117596 
L 288.060557 154.843347 
L 290.269091 131.445041 
L 292.477625 146.336066 
L 294.68616 120.830962 
L 296.894694 131.782297 
L 299.103228 124.119625 
L 301.311763 131.69741 
L 303.520297 138.812038 
L 305.728831 106.482088 
L 307.937365 101.27943 
L 310.1459 95.784427 
L 314.562968 116.849981 
L 316.771503 144.7038 
L 318.980037 143.092005 
L 321.188571 152.126347 
L 323.397106 141.508726 
L 325.60564 120.76894 
L 327.814174 97.798784 
L 330.022709 135.3788 
L 332.231243 120.117655 
L 334.439777 132.776153 
L 336.648312 137.237873 
L 338.856846 137.035576 
L 341.06538 130.622572 
L 345.482449 144.616438 
L 347.690983 148.225917 
L 349.899518 144.867991 
L 352.108052 141.262185 
L 354.316586 141.788175 
L 356.525121 136.464474 
L 358.733655 158.500274 
L 360.942189 147.947707 
L 363.150724 153.790172 
L 365.359258 143.328968 
L 367.567792 157.371239 
L 369.776327 155.653047 
L 371.984861 152.438722 
L 374.193395 157.195409 
L 376.401929 148.077187 
L 378.610464 151.0045 
L 380.818998 144.980099 
L 383.027532 145.988863 
L 385.236067 143.001432 
L 387.444601 149.155053 
L 389.653135 153.592653 
L 391.86167 151.982585 
L 394.070204 158.172858 
L 396.278738 152.814515 
L 398.487273 142.019156 
L 398.487273 142.019156 
" clip-path="url(#pc3b9991c38)" style="fill: none; stroke: #f08080; stroke-opacity: 0.8; stroke-width: 0.5; stroke-linecap: square"/>
   </g>
   <g id="line2d_21">
    <path d="M 73.832727 187.883858 
L 76.041262 188.969072 
L 78.249796 197.415503 
L 80.45833 189.284898 
L 82.666865 183.600457 
L 84.875399 182.008627 
L 87.083933 179.550315 
L 89.292468 186.919877 
L 91.501002 174.755411 
L 93.709536 181.710964 
L 95.918071 179.840175 
L 98.126605 182.724824 
L 100.335139 180.884059 
L 102.543673 177.501196 
L 104.752208 178.392219 
L 106.960742 180.167624 
L 109.169276 196.173383 
L 111.377811 190.535537 
L 113.586345 188.36533 
L 115.794879 188.430617 
L 118.003414 178.584508 
L 120.211948 212.14494 
L 122.420482 183.501906 
L 124.629017 178.130446 
L 126.837551 180.33621 
L 129.046085 177.666347 
L 131.25462 182.699602 
L 133.463154 181.942091 
L 135.671688 180.0268 
L 137.880223 179.807903 
L 140.088757 175.454012 
L 142.297291 178.657795 
L 144.505826 189.62362 
L 146.71436 176.795392 
L 148.922894 175.678936 
L 151.131429 176.052258 
L 153.339963 180.170107 
L 155.548497 195.075419 
L 159.965566 183.879192 
L 162.1741 177.836821 
L 164.382635 184.704947 
L 166.591169 177.376986 
L 168.799703 180.262643 
L 171.008237 179.732729 
L 173.216772 183.094635 
L 175.425306 180.024869 
L 177.63384 181.176707 
L 179.842375 179.042008 
L 182.050909 189.860568 
L 184.259443 177.260513 
L 186.467978 218.927133 
L 188.676512 246.725867 
L 190.885046 229.083709 
L 193.093581 185.02214 
L 195.302115 198.812357 
L 197.510649 192.18486 
L 199.719184 178.084276 
L 201.927718 197.185001 
L 204.136252 187.637567 
L 206.344787 187.012144 
L 208.553321 181.218834 
L 210.761855 185.091004 
L 212.97039 181.850517 
L 215.178924 203.237626 
L 217.387458 187.305236 
L 219.595993 194.524504 
L 221.804527 178.800607 
L 224.013061 191.995768 
L 226.221596 184.830937 
L 228.43013 184.296634 
L 230.638664 184.075111 
L 232.847199 186.006235 
L 235.055733 193.577214 
L 237.264267 197.188987 
L 239.472801 173.377455 
L 241.681336 200.041125 
L 243.88987 184.151403 
L 246.098404 188.103182 
L 248.306939 182.623326 
L 250.515473 189.447878 
L 252.724007 190.294335 
L 254.932542 191.389717 
L 257.141076 182.426223 
L 259.34961 187.924519 
L 261.558145 184.243598 
L 263.766679 192.80462 
L 265.975213 182.239536 
L 268.183748 184.670862 
L 270.392282 186.11192 
L 272.600816 184.494527 
L 274.809351 185.270306 
L 277.017885 199.287354 
L 279.226419 182.417855 
L 281.434954 179.713973 
L 283.643488 192.59882 
L 285.852022 204.433773 
L 288.060557 198.778141 
L 290.269091 182.199057 
L 292.477625 200.781982 
L 294.68616 192.605369 
L 296.894694 200.065809 
L 299.103228 211.962546 
L 301.311763 191.162386 
L 303.520297 184.291664 
L 305.728831 196.985033 
L 307.937365 204.856841 
L 310.1459 205.600226 
L 312.354434 188.096543 
L 314.562968 221.54644 
L 316.771503 191.561089 
L 318.980037 205.279335 
L 321.188571 195.811271 
L 323.397106 185.663028 
L 325.60564 186.985197 
L 327.814174 185.707927 
L 330.022709 198.479239 
L 332.231243 197.255699 
L 334.439777 191.932916 
L 336.648312 239.122392 
L 338.856846 195.102265 
L 341.06538 186.507741 
L 343.273915 188.050818 
L 345.482449 196.347265 
L 347.690983 195.622407 
L 349.899518 183.662075 
L 352.108052 181.17684 
L 354.316586 189.890815 
L 356.525121 186.236869 
L 358.733655 184.318811 
L 360.942189 198.304088 
L 363.150724 201.631254 
L 365.359258 189.796465 
L 367.567792 186.016403 
L 371.984861 189.69821 
L 374.193395 187.046442 
L 376.401929 188.076773 
L 378.610464 185.614364 
L 380.818998 188.443831 
L 383.027532 188.115401 
L 385.236067 177.502407 
L 387.444601 189.762038 
L 389.653135 187.79199 
L 391.86167 191.840483 
L 394.070204 180.946665 
L 396.278738 190.569687 
L 398.487273 184.714162 
L 398.487273 184.714162 
" clip-path="url(#pc3b9991c38)" style="fill: none; stroke: #f08080; stroke-opacity: 0.8; stroke-width: 0.5; stroke-linecap: square"/>
   </g>
   <g id="patch_3">
    <path d="M 57.6 307.584 
L 57.6 41.472 
" style="fill: none; stroke: #000000; stroke-width: 0.8; stroke-linejoin: miter; stroke-linecap: square"/>
   </g>
   <g id="patch_4">
    <path d="M 414.72 307.584 
L 414.72 41.472 
" style="fill: none; stroke: #000000; stroke-width: 0.8; stroke-linejoin: miter; stroke-linecap: square"/>
   </g>
   <g id="patch_5">
    <path d="M 57.6 307.584 
L 414.72 307.584 
" style="fill: none; stroke: #000000; stroke-width: 0.8; stroke-linejoin: miter; stroke-linecap: square"/>
   </g>
   <g id="patch_6">
    <path d="M 57.6 41.472 
L 414.72 41.472 
" style="fill: none; stroke: #000000; stroke-width: 0.8; stroke-linejoin: miter; stroke-linecap: square"/>
   </g>
   <g id="text_16">
    <!-- 1final_naive_jc_snp500 -->
    <g transform="translate(166.872187 35.472) scale(0.12 -0.12)">
     <defs>
      <path id="DejaVuSans-66" d="M 2375 4863 
L 2375 4384 
L 1825 4384 
Q 1516 4384 1395 4259 
Q 1275 4134 1275 3809 
L 1275 3500 
L 2222 3500 
L 2222 3053 
L 1275 3053 
L 1275 0 
L 697 0 
L 697 3053 
L 147 3053 
L 147 3500 
L 697 3500 
L 697 3744 
Q 697 4328 969 4595 
Q 1241 4863 1831 4863 
L 2375 4863 
z
" transform="scale(0.015625)"/>
      <path id="DejaVuSans-69" d="M 603 3500 
L 1178 3500 
L 1178 0 
L 603 0 
L 603 3500 
z
M 603 4863 
L 1178 4863 
L 1178 4134 
L 603 4134 
L 603 4863 
z
" transform="scale(0.015625)"/>
      <path id="DejaVuSans-6e" d="M 3513 2113 
L 3513 0 
L 2938 0 
L 2938 2094 
Q 2938 2591 2744 2837 
Q 2550 3084 2163 3084 
Q 1697 3084 1428 2787 
Q 1159 2491 1159 1978 
L 1159 0 
L 581 0 
L 581 3500 
L 1159 3500 
L 1159 2956 
Q 1366 3272 1645 3428 
Q 1925 3584 2291 3584 
Q 2894 3584 3203 3211 
Q 3513 2838 3513 2113 
z
" transform="scale(0.015625)"/>
      <path id="DejaVuSans-61" d="M 2194 1759 
Q 1497 1759 1228 1600 
Q 959 1441 959 1056 
Q 959 750 1161 570 
Q 1363 391 1709 391 
Q 2188 391 2477 730 
Q 2766 1069 2766 1631 
L 2766 1759 
L 2194 1759 
z
M 3341 1997 
L 3341 0 
L 2766 0 
L 2766 531 
Q 2569 213 2275 61 
Q 1981 -91 1556 -91 
Q 1019 -91 701 211 
Q 384 513 384 1019 
Q 384 1609 779 1909 
Q 1175 2209 1959 2209 
L 2766 2209 
L 2766 2266 
Q 2766 2663 2505 2880 
Q 2244 3097 1772 3097 
Q 1472 3097 1187 3025 
Q 903 2953 641 2809 
L 641 3341 
Q 956 3463 1253 3523 
Q 1550 3584 1831 3584 
Q 2591 3584 2966 3190 
Q 3341 2797 3341 1997 
z
" transform="scale(0.015625)"/>
      <path id="DejaVuSans-6c" d="M 603 4863 
L 1178 4863 
L 1178 0 
L 603 0 
L 603 4863 
z
" transform="scale(0.015625)"/>
      <path id="DejaVuSans-5f" d="M 3263 -1063 
L 3263 -1509 
L -63 -1509 
L -63 -1063 
L 3263 -1063 
z
" transform="scale(0.015625)"/>
      <path id="DejaVuSans-76" d="M 191 3500 
L 800 3500 
L 1894 563 
L 2988 3500 
L 3597 3500 
L 2284 0 
L 1503 0 
L 191 3500 
z
" transform="scale(0.015625)"/>
      <path id="DejaVuSans-65" d="M 3597 1894 
L 3597 1613 
L 953 1613 
Q 991 1019 1311 708 
Q 1631 397 2203 397 
Q 2534 397 2845 478 
Q 3156 559 3463 722 
L 3463 178 
Q 3153 47 2828 -22 
Q 2503 -91 2169 -91 
Q 1331 -91 842 396 
Q 353 884 353 1716 
Q 353 2575 817 3079 
Q 1281 3584 2069 3584 
Q 2775 3584 3186 3129 
Q 3597 2675 3597 1894 
z
M 3022 2063 
Q 3016 2534 2758 2815 
Q 2500 3097 2075 3097 
Q 1594 3097 1305 2825 
Q 1016 2553 972 2059 
L 3022 2063 
z
" transform="scale(0.015625)"/>
      <path id="DejaVuSans-6a" d="M 603 3500 
L 1178 3500 
L 1178 -63 
Q 1178 -731 923 -1031 
Q 669 -1331 103 -1331 
L -116 -1331 
L -116 -844 
L 38 -844 
Q 366 -844 484 -692 
Q 603 -541 603 -63 
L 603 3500 
z
M 603 4863 
L 1178 4863 
L 1178 4134 
L 603 4134 
L 603 4863 
z
" transform="scale(0.015625)"/>
      <path id="DejaVuSans-63" d="M 3122 3366 
L 3122 2828 
Q 2878 2963 2633 3030 
Q 2388 3097 2138 3097 
Q 1578 3097 1268 2742 
Q 959 2388 959 1747 
Q 959 1106 1268 751 
Q 1578 397 2138 397 
Q 2388 397 2633 464 
Q 2878 531 3122 666 
L 3122 134 
Q 2881 22 2623 -34 
Q 2366 -91 2075 -91 
Q 1284 -91 818 406 
Q 353 903 353 1747 
Q 353 2603 823 3093 
Q 1294 3584 2113 3584 
Q 2378 3584 2631 3529 
Q 2884 3475 3122 3366 
z
" transform="scale(0.015625)"/>
      <path id="DejaVuSans-73" d="M 2834 3397 
L 2834 2853 
Q 2591 2978 2328 3040 
Q 2066 3103 1784 3103 
Q 1356 3103 1142 2972 
Q 928 2841 928 2578 
Q 928 2378 1081 2264 
Q 1234 2150 1697 2047 
L 1894 2003 
Q 2506 1872 2764 1633 
Q 3022 1394 3022 966 
Q 3022 478 2636 193 
Q 2250 -91 1575 -91 
Q 1294 -91 989 -36 
Q 684 19 347 128 
L 347 722 
Q 666 556 975 473 
Q 1284 391 1588 391 
Q 1994 391 2212 530 
Q 2431 669 2431 922 
Q 2431 1156 2273 1281 
Q 2116 1406 1581 1522 
L 1381 1569 
Q 847 1681 609 1914 
Q 372 2147 372 2553 
Q 372 3047 722 3315 
Q 1072 3584 1716 3584 
Q 2034 3584 2315 3537 
Q 2597 3491 2834 3397 
z
" transform="scale(0.015625)"/>
      <path id="DejaVuSans-70" d="M 1159 525 
L 1159 -1331 
L 581 -1331 
L 581 3500 
L 1159 3500 
L 1159 2969 
Q 1341 3281 1617 3432 
Q 1894 3584 2278 3584 
Q 2916 3584 3314 3078 
Q 3713 2572 3713 1747 
Q 3713 922 3314 415 
Q 2916 -91 2278 -91 
Q 1894 -91 1617 61 
Q 1341 213 1159 525 
z
M 3116 1747 
Q 3116 2381 2855 2742 
Q 2594 3103 2138 3103 
Q 1681 3103 1420 2742 
Q 1159 2381 1159 1747 
Q 1159 1113 1420 752 
Q 1681 391 2138 391 
Q 2594 391 2855 752 
Q 3116 1113 3116 1747 
z
" transform="scale(0.015625)"/>
      <path id="DejaVuSans-35" d="M 691 4666 
L 3169 4666 
L 3169 4134 
L 1269 4134 
L 1269 2991 
Q 1406 3038 1543 3061 
Q 1681 3084 1819 3084 
Q 2600 3084 3056 2656 
Q 3513 2228 3513 1497 
Q 3513 744 3044 326 
Q 2575 -91 1722 -91 
Q 1428 -91 1123 -41 
Q 819 9 494 109 
L 494 744 
Q 775 591 1075 516 
Q 1375 441 1709 441 
Q 2250 441 2565 725 
Q 2881 1009 2881 1497 
Q 2881 1984 2565 2268 
Q 2250 2553 1709 2553 
Q 1456 2553 1204 2497 
Q 953 2441 691 2322 
L 691 4666 
z
" transform="scale(0.015625)"/>
     </defs>
     <use xlink:href="#DejaVuSans-31"/>
     <use xlink:href="#DejaVuSans-66" x="63.623047"/>
     <use xlink:href="#DejaVuSans-69" x="98.828125"/>
     <use xlink:href="#DejaVuSans-6e" x="126.611328"/>
     <use xlink:href="#DejaVuSans-61" x="189.990234"/>
     <use xlink:href="#DejaVuSans-6c" x="251.269531"/>
     <use xlink:href="#DejaVuSans-5f" x="279.052734"/>
     <use xlink:href="#DejaVuSans-6e" x="329.052734"/>
     <use xlink:href="#DejaVuSans-61" x="392.431641"/>
     <use xlink:href="#DejaVuSans-69" x="453.710938"/>
     <use xlink:href="#DejaVuSans-76" x="481.494141"/>
     <use xlink:href="#DejaVuSans-65" x="540.673828"/>
     <use xlink:href="#DejaVuSans-5f" x="602.197266"/>
     <use xlink:href="#DejaVuSans-6a" x="652.197266"/>
     <use xlink:href="#DejaVuSans-63" x="679.980469"/>
     <use xlink:href="#DejaVuSans-5f" x="734.960938"/>
     <use xlink:href="#DejaVuSans-73" x="784.960938"/>
     <use xlink:href="#DejaVuSans-6e" x="837.060547"/>
     <use xlink:href="#DejaVuSans-70" x="900.439453"/>
     <use xlink:href="#DejaVuSans-35" x="963.916016"/>
     <use xlink:href="#DejaVuSans-30" x="1027.539062"/>
     <use xlink:href="#DejaVuSans-30" x="1091.162109"/>
    </g>
   </g>
   <g id="legend_1">
    <g id="patch_7">
     <path d="M 64.6 302.584 
L 225.001563 302.584 
Q 227.001563 302.584 227.001563 300.584 
L 227.001563 213.51525 
Q 227.001563 211.51525 225.001563 211.51525 
L 64.6 211.51525 
Q 62.6 211.51525 62.6 213.51525 
L 62.6 300.584 
Q 62.6 302.584 64.6 302.584 
z
" style="fill: #ffffff; opacity: 0.8; stroke: #cccccc; stroke-linejoin: miter"/>
    </g>
    <g id="line2d_22">
     <path d="M 66.6 219.613687 
L 76.6 219.613687 
L 86.6 219.613687 
" style="fill: none; stroke: #008000; stroke-opacity: 0.8; stroke-width: 0.5; stroke-linecap: square"/>
    </g>
    <g id="text_17">
     <!-- Positive predictions -->
     <g transform="translate(94.6 223.113687) scale(0.1 -0.1)">
      <defs>
       <path id="DejaVuSans-50" d="M 1259 4147 
L 1259 2394 
L 2053 2394 
Q 2494 2394 2734 2622 
Q 2975 2850 2975 3272 
Q 2975 3691 2734 3919 
Q 2494 4147 2053 4147 
L 1259 4147 
z
M 628 4666 
L 2053 4666 
Q 2838 4666 3239 4311 
Q 3641 3956 3641 3272 
Q 3641 2581 3239 2228 
Q 2838 1875 2053 1875 
L 1259 1875 
L 1259 0 
L 628 0 
L 628 4666 
z
" transform="scale(0.015625)"/>
       <path id="DejaVuSans-6f" d="M 1959 3097 
Q 1497 3097 1228 2736 
Q 959 2375 959 1747 
Q 959 1119 1226 758 
Q 1494 397 1959 397 
Q 2419 397 2687 759 
Q 2956 1122 2956 1747 
Q 2956 2369 2687 2733 
Q 2419 3097 1959 3097 
z
M 1959 3584 
Q 2709 3584 3137 3096 
Q 3566 2609 3566 1747 
Q 3566 888 3137 398 
Q 2709 -91 1959 -91 
Q 1206 -91 779 398 
Q 353 888 353 1747 
Q 353 2609 779 3096 
Q 1206 3584 1959 3584 
z
" transform="scale(0.015625)"/>
       <path id="DejaVuSans-74" d="M 1172 4494 
L 1172 3500 
L 2356 3500 
L 2356 3053 
L 1172 3053 
L 1172 1153 
Q 1172 725 1289 603 
Q 1406 481 1766 481 
L 2356 481 
L 2356 0 
L 1766 0 
Q 1100 0 847 248 
Q 594 497 594 1153 
L 594 3053 
L 172 3053 
L 172 3500 
L 594 3500 
L 594 4494 
L 1172 4494 
z
" transform="scale(0.015625)"/>
       <path id="DejaVuSans-20" transform="scale(0.015625)"/>
       <path id="DejaVuSans-72" d="M 2631 2963 
Q 2534 3019 2420 3045 
Q 2306 3072 2169 3072 
Q 1681 3072 1420 2755 
Q 1159 2438 1159 1844 
L 1159 0 
L 581 0 
L 581 3500 
L 1159 3500 
L 1159 2956 
Q 1341 3275 1631 3429 
Q 1922 3584 2338 3584 
Q 2397 3584 2469 3576 
Q 2541 3569 2628 3553 
L 2631 2963 
z
" transform="scale(0.015625)"/>
       <path id="DejaVuSans-64" d="M 2906 2969 
L 2906 4863 
L 3481 4863 
L 3481 0 
L 2906 0 
L 2906 525 
Q 2725 213 2448 61 
Q 2172 -91 1784 -91 
Q 1150 -91 751 415 
Q 353 922 353 1747 
Q 353 2572 751 3078 
Q 1150 3584 1784 3584 
Q 2172 3584 2448 3432 
Q 2725 3281 2906 2969 
z
M 947 1747 
Q 947 1113 1208 752 
Q 1469 391 1925 391 
Q 2381 391 2643 752 
Q 2906 1113 2906 1747 
Q 2906 2381 2643 2742 
Q 2381 3103 1925 3103 
Q 1469 3103 1208 2742 
Q 947 2381 947 1747 
z
" transform="scale(0.015625)"/>
      </defs>
      <use xlink:href="#DejaVuSans-50"/>
      <use xlink:href="#DejaVuSans-6f" x="56.677734"/>
      <use xlink:href="#DejaVuSans-73" x="117.859375"/>
      <use xlink:href="#DejaVuSans-69" x="169.958984"/>
      <use xlink:href="#DejaVuSans-74" x="197.742188"/>
      <use xlink:href="#DejaVuSans-69" x="236.951172"/>
      <use xlink:href="#DejaVuSans-76" x="264.734375"/>
      <use xlink:href="#DejaVuSans-65" x="323.914062"/>
      <use xlink:href="#DejaVuSans-20" x="385.4375"/>
      <use xlink:href="#DejaVuSans-70" x="417.224609"/>
      <use xlink:href="#DejaVuSans-72" x="480.701172"/>
      <use xlink:href="#DejaVuSans-65" x="519.564453"/>
      <use xlink:href="#DejaVuSans-64" x="581.087891"/>
      <use xlink:href="#DejaVuSans-69" x="644.564453"/>
      <use xlink:href="#DejaVuSans-63" x="672.347656"/>
      <use xlink:href="#DejaVuSans-74" x="727.328125"/>
      <use xlink:href="#DejaVuSans-69" x="766.537109"/>
      <use xlink:href="#DejaVuSans-6f" x="794.320312"/>
      <use xlink:href="#DejaVuSans-6e" x="855.501953"/>
      <use xlink:href="#DejaVuSans-73" x="918.880859"/>
     </g>
    </g>
    <g id="line2d_23">
     <path d="M 66.6 234.291812 
L 76.6 234.291812 
L 86.6 234.291812 
" style="fill: none; stroke: #32cd32; stroke-opacity: 0.8; stroke-width: 0.5; stroke-linecap: square"/>
    </g>
    <g id="text_18">
     <!-- Positive predictions max -->
     <g transform="translate(94.6 237.791812) scale(0.1 -0.1)">
      <defs>
       <path id="DejaVuSans-6d" d="M 3328 2828 
Q 3544 3216 3844 3400 
Q 4144 3584 4550 3584 
Q 5097 3584 5394 3201 
Q 5691 2819 5691 2113 
L 5691 0 
L 5113 0 
L 5113 2094 
Q 5113 2597 4934 2840 
Q 4756 3084 4391 3084 
Q 3944 3084 3684 2787 
Q 3425 2491 3425 1978 
L 3425 0 
L 2847 0 
L 2847 2094 
Q 2847 2600 2669 2842 
Q 2491 3084 2119 3084 
Q 1678 3084 1418 2786 
Q 1159 2488 1159 1978 
L 1159 0 
L 581 0 
L 581 3500 
L 1159 3500 
L 1159 2956 
Q 1356 3278 1631 3431 
Q 1906 3584 2284 3584 
Q 2666 3584 2933 3390 
Q 3200 3197 3328 2828 
z
" transform="scale(0.015625)"/>
       <path id="DejaVuSans-78" d="M 3513 3500 
L 2247 1797 
L 3578 0 
L 2900 0 
L 1881 1375 
L 863 0 
L 184 0 
L 1544 1831 
L 300 3500 
L 978 3500 
L 1906 2253 
L 2834 3500 
L 3513 3500 
z
" transform="scale(0.015625)"/>
      </defs>
      <use xlink:href="#DejaVuSans-50"/>
      <use xlink:href="#DejaVuSans-6f" x="56.677734"/>
      <use xlink:href="#DejaVuSans-73" x="117.859375"/>
      <use xlink:href="#DejaVuSans-69" x="169.958984"/>
      <use xlink:href="#DejaVuSans-74" x="197.742188"/>
      <use xlink:href="#DejaVuSans-69" x="236.951172"/>
      <use xlink:href="#DejaVuSans-76" x="264.734375"/>
      <use xlink:href="#DejaVuSans-65" x="323.914062"/>
      <use xlink:href="#DejaVuSans-20" x="385.4375"/>
      <use xlink:href="#DejaVuSans-70" x="417.224609"/>
      <use xlink:href="#DejaVuSans-72" x="480.701172"/>
      <use xlink:href="#DejaVuSans-65" x="519.564453"/>
      <use xlink:href="#DejaVuSans-64" x="581.087891"/>
      <use xlink:href="#DejaVuSans-69" x="644.564453"/>
      <use xlink:href="#DejaVuSans-63" x="672.347656"/>
      <use xlink:href="#DejaVuSans-74" x="727.328125"/>
      <use xlink:href="#DejaVuSans-69" x="766.537109"/>
      <use xlink:href="#DejaVuSans-6f" x="794.320312"/>
      <use xlink:href="#DejaVuSans-6e" x="855.501953"/>
      <use xlink:href="#DejaVuSans-73" x="918.880859"/>
      <use xlink:href="#DejaVuSans-20" x="970.980469"/>
      <use xlink:href="#DejaVuSans-6d" x="1002.767578"/>
      <use xlink:href="#DejaVuSans-61" x="1100.179688"/>
      <use xlink:href="#DejaVuSans-78" x="1161.458984"/>
     </g>
    </g>
    <g id="line2d_24">
     <path d="M 66.6 248.969937 
L 76.6 248.969937 
L 86.6 248.969937 
" style="fill: none; stroke: #32cd32; stroke-opacity: 0.8; stroke-width: 0.5; stroke-linecap: square"/>
    </g>
    <g id="text_19">
     <!-- Positive predictions min -->
     <g transform="translate(94.6 252.469937) scale(0.1 -0.1)">
      <use xlink:href="#DejaVuSans-50"/>
      <use xlink:href="#DejaVuSans-6f" x="56.677734"/>
      <use xlink:href="#DejaVuSans-73" x="117.859375"/>
      <use xlink:href="#DejaVuSans-69" x="169.958984"/>
      <use xlink:href="#DejaVuSans-74" x="197.742188"/>
      <use xlink:href="#DejaVuSans-69" x="236.951172"/>
      <use xlink:href="#DejaVuSans-76" x="264.734375"/>
      <use xlink:href="#DejaVuSans-65" x="323.914062"/>
      <use xlink:href="#DejaVuSans-20" x="385.4375"/>
      <use xlink:href="#DejaVuSans-70" x="417.224609"/>
      <use xlink:href="#DejaVuSans-72" x="480.701172"/>
      <use xlink:href="#DejaVuSans-65" x="519.564453"/>
      <use xlink:href="#DejaVuSans-64" x="581.087891"/>
      <use xlink:href="#DejaVuSans-69" x="644.564453"/>
      <use xlink:href="#DejaVuSans-63" x="672.347656"/>
      <use xlink:href="#DejaVuSans-74" x="727.328125"/>
      <use xlink:href="#DejaVuSans-69" x="766.537109"/>
      <use xlink:href="#DejaVuSans-6f" x="794.320312"/>
      <use xlink:href="#DejaVuSans-6e" x="855.501953"/>
      <use xlink:href="#DejaVuSans-73" x="918.880859"/>
      <use xlink:href="#DejaVuSans-20" x="970.980469"/>
      <use xlink:href="#DejaVuSans-6d" x="1002.767578"/>
      <use xlink:href="#DejaVuSans-69" x="1100.179688"/>
      <use xlink:href="#DejaVuSans-6e" x="1127.962891"/>
     </g>
    </g>
    <g id="line2d_25">
     <path d="M 66.6 263.648062 
L 76.6 263.648062 
L 86.6 263.648062 
" style="fill: none; stroke: #ff0000; stroke-opacity: 0.8; stroke-width: 0.5; stroke-linecap: square"/>
    </g>
    <g id="text_20">
     <!-- Negative predictions -->
     <g transform="translate(94.6 267.148062) scale(0.1 -0.1)">
      <defs>
       <path id="DejaVuSans-4e" d="M 628 4666 
L 1478 4666 
L 3547 763 
L 3547 4666 
L 4159 4666 
L 4159 0 
L 3309 0 
L 1241 3903 
L 1241 0 
L 628 0 
L 628 4666 
z
" transform="scale(0.015625)"/>
       <path id="DejaVuSans-67" d="M 2906 1791 
Q 2906 2416 2648 2759 
Q 2391 3103 1925 3103 
Q 1463 3103 1205 2759 
Q 947 2416 947 1791 
Q 947 1169 1205 825 
Q 1463 481 1925 481 
Q 2391 481 2648 825 
Q 2906 1169 2906 1791 
z
M 3481 434 
Q 3481 -459 3084 -895 
Q 2688 -1331 1869 -1331 
Q 1566 -1331 1297 -1286 
Q 1028 -1241 775 -1147 
L 775 -588 
Q 1028 -725 1275 -790 
Q 1522 -856 1778 -856 
Q 2344 -856 2625 -561 
Q 2906 -266 2906 331 
L 2906 616 
Q 2728 306 2450 153 
Q 2172 0 1784 0 
Q 1141 0 747 490 
Q 353 981 353 1791 
Q 353 2603 747 3093 
Q 1141 3584 1784 3584 
Q 2172 3584 2450 3431 
Q 2728 3278 2906 2969 
L 2906 3500 
L 3481 3500 
L 3481 434 
z
" transform="scale(0.015625)"/>
      </defs>
      <use xlink:href="#DejaVuSans-4e"/>
      <use xlink:href="#DejaVuSans-65" x="74.804688"/>
      <use xlink:href="#DejaVuSans-67" x="136.328125"/>
      <use xlink:href="#DejaVuSans-61" x="199.804688"/>
      <use xlink:href="#DejaVuSans-74" x="261.083984"/>
      <use xlink:href="#DejaVuSans-69" x="300.292969"/>
      <use xlink:href="#DejaVuSans-76" x="328.076172"/>
      <use xlink:href="#DejaVuSans-65" x="387.255859"/>
      <use xlink:href="#DejaVuSans-20" x="448.779297"/>
      <use xlink:href="#DejaVuSans-70" x="480.566406"/>
      <use xlink:href="#DejaVuSans-72" x="544.042969"/>
      <use xlink:href="#DejaVuSans-65" x="582.90625"/>
      <use xlink:href="#DejaVuSans-64" x="644.429688"/>
      <use xlink:href="#DejaVuSans-69" x="707.90625"/>
      <use xlink:href="#DejaVuSans-63" x="735.689453"/>
      <use xlink:href="#DejaVuSans-74" x="790.669922"/>
      <use xlink:href="#DejaVuSans-69" x="829.878906"/>
      <use xlink:href="#DejaVuSans-6f" x="857.662109"/>
      <use xlink:href="#DejaVuSans-6e" x="918.84375"/>
      <use xlink:href="#DejaVuSans-73" x="982.222656"/>
     </g>
    </g>
    <g id="line2d_26">
     <path d="M 66.6 278.326188 
L 76.6 278.326188 
L 86.6 278.326188 
" style="fill: none; stroke: #f08080; stroke-opacity: 0.8; stroke-width: 0.5; stroke-linecap: square"/>
    </g>
    <g id="text_21">
     <!-- Negative predictions max -->
     <g transform="translate(94.6 281.826188) scale(0.1 -0.1)">
      <use xlink:href="#DejaVuSans-4e"/>
      <use xlink:href="#DejaVuSans-65" x="74.804688"/>
      <use xlink:href="#DejaVuSans-67" x="136.328125"/>
      <use xlink:href="#DejaVuSans-61" x="199.804688"/>
      <use xlink:href="#DejaVuSans-74" x="261.083984"/>
      <use xlink:href="#DejaVuSans-69" x="300.292969"/>
      <use xlink:href="#DejaVuSans-76" x="328.076172"/>
      <use xlink:href="#DejaVuSans-65" x="387.255859"/>
      <use xlink:href="#DejaVuSans-20" x="448.779297"/>
      <use xlink:href="#DejaVuSans-70" x="480.566406"/>
      <use xlink:href="#DejaVuSans-72" x="544.042969"/>
      <use xlink:href="#DejaVuSans-65" x="582.90625"/>
      <use xlink:href="#DejaVuSans-64" x="644.429688"/>
      <use xlink:href="#DejaVuSans-69" x="707.90625"/>
      <use xlink:href="#DejaVuSans-63" x="735.689453"/>
      <use xlink:href="#DejaVuSans-74" x="790.669922"/>
      <use xlink:href="#DejaVuSans-69" x="829.878906"/>
      <use xlink:href="#DejaVuSans-6f" x="857.662109"/>
      <use xlink:href="#DejaVuSans-6e" x="918.84375"/>
      <use xlink:href="#DejaVuSans-73" x="982.222656"/>
      <use xlink:href="#DejaVuSans-20" x="1034.322266"/>
      <use xlink:href="#DejaVuSans-6d" x="1066.109375"/>
      <use xlink:href="#DejaVuSans-61" x="1163.521484"/>
      <use xlink:href="#DejaVuSans-78" x="1224.800781"/>
     </g>
    </g>
    <g id="line2d_27">
     <path d="M 66.6 293.004312 
L 76.6 293.004312 
L 86.6 293.004312 
" style="fill: none; stroke: #f08080; stroke-opacity: 0.8; stroke-width: 0.5; stroke-linecap: square"/>
    </g>
    <g id="text_22">
     <!-- Negative predictions min -->
     <g transform="translate(94.6 296.504312) scale(0.1 -0.1)">
      <use xlink:href="#DejaVuSans-4e"/>
      <use xlink:href="#DejaVuSans-65" x="74.804688"/>
      <use xlink:href="#DejaVuSans-67" x="136.328125"/>
      <use xlink:href="#DejaVuSans-61" x="199.804688"/>
      <use xlink:href="#DejaVuSans-74" x="261.083984"/>
      <use xlink:href="#DejaVuSans-69" x="300.292969"/>
      <use xlink:href="#DejaVuSans-76" x="328.076172"/>
      <use xlink:href="#DejaVuSans-65" x="387.255859"/>
      <use xlink:href="#DejaVuSans-20" x="448.779297"/>
      <use xlink:href="#DejaVuSans-70" x="480.566406"/>
      <use xlink:href="#DejaVuSans-72" x="544.042969"/>
      <use xlink:href="#DejaVuSans-65" x="582.90625"/>
      <use xlink:href="#DejaVuSans-64" x="644.429688"/>
      <use xlink:href="#DejaVuSans-69" x="707.90625"/>
      <use xlink:href="#DejaVuSans-63" x="735.689453"/>
      <use xlink:href="#DejaVuSans-74" x="790.669922"/>
      <use xlink:href="#DejaVuSans-69" x="829.878906"/>
      <use xlink:href="#DejaVuSans-6f" x="857.662109"/>
      <use xlink:href="#DejaVuSans-6e" x="918.84375"/>
      <use xlink:href="#DejaVuSans-73" x="982.222656"/>
      <use xlink:href="#DejaVuSans-20" x="1034.322266"/>
      <use xlink:href="#DejaVuSans-6d" x="1066.109375"/>
      <use xlink:href="#DejaVuSans-69" x="1163.521484"/>
      <use xlink:href="#DejaVuSans-6e" x="1191.304688"/>
     </g>
    </g>
   </g>
  </g>
 </g>
 <defs>
  <clipPath id="pc3b9991c38">
   <rect x="57.6" y="41.472" width="357.12" height="266.112"/>
  </clipPath>
 </defs>
</svg>
