<?xml version="1.0" encoding="utf-8" standalone="no"?>
<!DOCTYPE svg PUBLIC "-//W3C//DTD SVG 1.1//EN"
  "http://www.w3.org/Graphics/SVG/1.1/DTD/svg11.dtd">
<svg xmlns:xlink="http://www.w3.org/1999/xlink" width="460.8pt" height="345.6pt" viewBox="0 0 460.8 345.6" xmlns="http://www.w3.org/2000/svg" version="1.1">
 <metadata>
  <rdf:RDF xmlns:dc="http://purl.org/dc/elements/1.1/" xmlns:cc="http://creativecommons.org/ns#" xmlns:rdf="http://www.w3.org/1999/02/22-rdf-syntax-ns#">
   <cc:Work>
    <dc:type rdf:resource="http://purl.org/dc/dcmitype/StillImage"/>
    <dc:date>2024-09-06T11:22:36.968333</dc:date>
    <dc:format>image/svg+xml</dc:format>
    <dc:creator>
     <cc:Agent>
      <dc:title>Matplotlib v3.9.0, https://matplotlib.org/</dc:title>
     </cc:Agent>
    </dc:creator>
   </cc:Work>
  </rdf:RDF>
 </metadata>
 <defs>
  <style type="text/css">*{stroke-linejoin: round; stroke-linecap: butt}</style>
 </defs>
 <g id="figure_1">
  <g id="patch_1">
   <path d="M 0 345.6 
L 460.8 345.6 
L 460.8 0 
L 0 0 
z
" style="fill: #ffffff"/>
  </g>
  <g id="axes_1">
   <g id="patch_2">
    <path d="M 57.6 307.584 
L 414.72 307.584 
L 414.72 41.472 
L 57.6 41.472 
z
" style="fill: #ffffff"/>
   </g>
   <g id="matplotlib.axis_1">
    <g id="xtick_1">
     <g id="line2d_1">
      <defs>
       <path id="m780f84a587" d="M 0 0 
L 0 3.5 
" style="stroke: #000000; stroke-width: 0.8"/>
      </defs>
      <g>
       <use xlink:href="#m780f84a587" x="73.832727" y="307.584" style="stroke: #000000; stroke-width: 0.8"/>
      </g>
     </g>
     <g id="text_1">
      <!-- 0 -->
      <g transform="translate(70.651477 322.182437) scale(0.1 -0.1)">
       <defs>
        <path id="DejaVuSans-30" d="M 2034 4250 
Q 1547 4250 1301 3770 
Q 1056 3291 1056 2328 
Q 1056 1369 1301 889 
Q 1547 409 2034 409 
Q 2525 409 2770 889 
Q 3016 1369 3016 2328 
Q 3016 3291 2770 3770 
Q 2525 4250 2034 4250 
z
M 2034 4750 
Q 2819 4750 3233 4129 
Q 3647 3509 3647 2328 
Q 3647 1150 3233 529 
Q 2819 -91 2034 -91 
Q 1250 -91 836 529 
Q 422 1150 422 2328 
Q 422 3509 836 4129 
Q 1250 4750 2034 4750 
z
" transform="scale(0.015625)"/>
       </defs>
       <use xlink:href="#DejaVuSans-30"/>
      </g>
     </g>
    </g>
    <g id="xtick_2">
     <g id="line2d_2">
      <g>
       <use xlink:href="#m780f84a587" x="149.333784" y="307.584" style="stroke: #000000; stroke-width: 0.8"/>
      </g>
     </g>
     <g id="text_2">
      <!-- 50 -->
      <g transform="translate(142.971284 322.182437) scale(0.1 -0.1)">
       <defs>
        <path id="DejaVuSans-35" d="M 691 4666 
L 3169 4666 
L 3169 4134 
L 1269 4134 
L 1269 2991 
Q 1406 3038 1543 3061 
Q 1681 3084 1819 3084 
Q 2600 3084 3056 2656 
Q 3513 2228 3513 1497 
Q 3513 744 3044 326 
Q 2575 -91 1722 -91 
Q 1428 -91 1123 -41 
Q 819 9 494 109 
L 494 744 
Q 775 591 1075 516 
Q 1375 441 1709 441 
Q 2250 441 2565 725 
Q 2881 1009 2881 1497 
Q 2881 1984 2565 2268 
Q 2250 2553 1709 2553 
Q 1456 2553 1204 2497 
Q 953 2441 691 2322 
L 691 4666 
z
" transform="scale(0.015625)"/>
       </defs>
       <use xlink:href="#DejaVuSans-35"/>
       <use xlink:href="#DejaVuSans-30" x="63.623047"/>
      </g>
     </g>
    </g>
    <g id="xtick_3">
     <g id="line2d_3">
      <g>
       <use xlink:href="#m780f84a587" x="224.834841" y="307.584" style="stroke: #000000; stroke-width: 0.8"/>
      </g>
     </g>
     <g id="text_3">
      <!-- 100 -->
      <g transform="translate(215.291091 322.182437) scale(0.1 -0.1)">
       <defs>
        <path id="DejaVuSans-31" d="M 794 531 
L 1825 531 
L 1825 4091 
L 703 3866 
L 703 4441 
L 1819 4666 
L 2450 4666 
L 2450 531 
L 3481 531 
L 3481 0 
L 794 0 
L 794 531 
z
" transform="scale(0.015625)"/>
       </defs>
       <use xlink:href="#DejaVuSans-31"/>
       <use xlink:href="#DejaVuSans-30" x="63.623047"/>
       <use xlink:href="#DejaVuSans-30" x="127.246094"/>
      </g>
     </g>
    </g>
    <g id="xtick_4">
     <g id="line2d_4">
      <g>
       <use xlink:href="#m780f84a587" x="300.335899" y="307.584" style="stroke: #000000; stroke-width: 0.8"/>
      </g>
     </g>
     <g id="text_4">
      <!-- 150 -->
      <g transform="translate(290.792149 322.182437) scale(0.1 -0.1)">
       <use xlink:href="#DejaVuSans-31"/>
       <use xlink:href="#DejaVuSans-35" x="63.623047"/>
       <use xlink:href="#DejaVuSans-30" x="127.246094"/>
      </g>
     </g>
    </g>
    <g id="xtick_5">
     <g id="line2d_5">
      <g>
       <use xlink:href="#m780f84a587" x="375.836956" y="307.584" style="stroke: #000000; stroke-width: 0.8"/>
      </g>
     </g>
     <g id="text_5">
      <!-- 200 -->
      <g transform="translate(366.293206 322.182437) scale(0.1 -0.1)">
       <defs>
        <path id="DejaVuSans-32" d="M 1228 531 
L 3431 531 
L 3431 0 
L 469 0 
L 469 531 
Q 828 903 1448 1529 
Q 2069 2156 2228 2338 
Q 2531 2678 2651 2914 
Q 2772 3150 2772 3378 
Q 2772 3750 2511 3984 
Q 2250 4219 1831 4219 
Q 1534 4219 1204 4116 
Q 875 4013 500 3803 
L 500 4441 
Q 881 4594 1212 4672 
Q 1544 4750 1819 4750 
Q 2544 4750 2975 4387 
Q 3406 4025 3406 3419 
Q 3406 3131 3298 2873 
Q 3191 2616 2906 2266 
Q 2828 2175 2409 1742 
Q 1991 1309 1228 531 
z
" transform="scale(0.015625)"/>
       </defs>
       <use xlink:href="#DejaVuSans-32"/>
       <use xlink:href="#DejaVuSans-30" x="63.623047"/>
       <use xlink:href="#DejaVuSans-30" x="127.246094"/>
      </g>
     </g>
    </g>
   </g>
   <g id="matplotlib.axis_2">
    <g id="ytick_1">
     <g id="line2d_6">
      <defs>
       <path id="m2355f62de4" d="M 0 0 
L -3.5 0 
" style="stroke: #000000; stroke-width: 0.8"/>
      </defs>
      <g>
       <use xlink:href="#m2355f62de4" x="57.6" y="275.129743" style="stroke: #000000; stroke-width: 0.8"/>
      </g>
     </g>
     <g id="text_6">
      <!-- −7500 -->
      <g transform="translate(16.770313 278.928961) scale(0.1 -0.1)">
       <defs>
        <path id="DejaVuSans-2212" d="M 678 2272 
L 4684 2272 
L 4684 1741 
L 678 1741 
L 678 2272 
z
" transform="scale(0.015625)"/>
        <path id="DejaVuSans-37" d="M 525 4666 
L 3525 4666 
L 3525 4397 
L 1831 0 
L 1172 0 
L 2766 4134 
L 525 4134 
L 525 4666 
z
" transform="scale(0.015625)"/>
       </defs>
       <use xlink:href="#DejaVuSans-2212"/>
       <use xlink:href="#DejaVuSans-37" x="83.789062"/>
       <use xlink:href="#DejaVuSans-35" x="147.412109"/>
       <use xlink:href="#DejaVuSans-30" x="211.035156"/>
       <use xlink:href="#DejaVuSans-30" x="274.658203"/>
      </g>
     </g>
    </g>
    <g id="ytick_2">
     <g id="line2d_7">
      <g>
       <use xlink:href="#m2355f62de4" x="57.6" y="239.704825" style="stroke: #000000; stroke-width: 0.8"/>
      </g>
     </g>
     <g id="text_7">
      <!-- −5000 -->
      <g transform="translate(16.770313 243.504044) scale(0.1 -0.1)">
       <use xlink:href="#DejaVuSans-2212"/>
       <use xlink:href="#DejaVuSans-35" x="83.789062"/>
       <use xlink:href="#DejaVuSans-30" x="147.412109"/>
       <use xlink:href="#DejaVuSans-30" x="211.035156"/>
       <use xlink:href="#DejaVuSans-30" x="274.658203"/>
      </g>
     </g>
    </g>
    <g id="ytick_3">
     <g id="line2d_8">
      <g>
       <use xlink:href="#m2355f62de4" x="57.6" y="204.279908" style="stroke: #000000; stroke-width: 0.8"/>
      </g>
     </g>
     <g id="text_8">
      <!-- −2500 -->
      <g transform="translate(16.770313 208.079126) scale(0.1 -0.1)">
       <use xlink:href="#DejaVuSans-2212"/>
       <use xlink:href="#DejaVuSans-32" x="83.789062"/>
       <use xlink:href="#DejaVuSans-35" x="147.412109"/>
       <use xlink:href="#DejaVuSans-30" x="211.035156"/>
       <use xlink:href="#DejaVuSans-30" x="274.658203"/>
      </g>
     </g>
    </g>
    <g id="ytick_4">
     <g id="line2d_9">
      <g>
       <use xlink:href="#m2355f62de4" x="57.6" y="168.85499" style="stroke: #000000; stroke-width: 0.8"/>
      </g>
     </g>
     <g id="text_9">
      <!-- 0 -->
      <g transform="translate(44.2375 172.654209) scale(0.1 -0.1)">
       <use xlink:href="#DejaVuSans-30"/>
      </g>
     </g>
    </g>
    <g id="ytick_5">
     <g id="line2d_10">
      <g>
       <use xlink:href="#m2355f62de4" x="57.6" y="133.430073" style="stroke: #000000; stroke-width: 0.8"/>
      </g>
     </g>
     <g id="text_10">
      <!-- 2500 -->
      <g transform="translate(25.15 137.229291) scale(0.1 -0.1)">
       <use xlink:href="#DejaVuSans-32"/>
       <use xlink:href="#DejaVuSans-35" x="63.623047"/>
       <use xlink:href="#DejaVuSans-30" x="127.246094"/>
       <use xlink:href="#DejaVuSans-30" x="190.869141"/>
      </g>
     </g>
    </g>
    <g id="ytick_6">
     <g id="line2d_11">
      <g>
       <use xlink:href="#m2355f62de4" x="57.6" y="98.005155" style="stroke: #000000; stroke-width: 0.8"/>
      </g>
     </g>
     <g id="text_11">
      <!-- 5000 -->
      <g transform="translate(25.15 101.804374) scale(0.1 -0.1)">
       <use xlink:href="#DejaVuSans-35"/>
       <use xlink:href="#DejaVuSans-30" x="63.623047"/>
       <use xlink:href="#DejaVuSans-30" x="127.246094"/>
       <use xlink:href="#DejaVuSans-30" x="190.869141"/>
      </g>
     </g>
    </g>
    <g id="ytick_7">
     <g id="line2d_12">
      <g>
       <use xlink:href="#m2355f62de4" x="57.6" y="62.580237" style="stroke: #000000; stroke-width: 0.8"/>
      </g>
     </g>
     <g id="text_12">
      <!-- 7500 -->
      <g transform="translate(25.15 66.379456) scale(0.1 -0.1)">
       <use xlink:href="#DejaVuSans-37"/>
       <use xlink:href="#DejaVuSans-35" x="63.623047"/>
       <use xlink:href="#DejaVuSans-30" x="127.246094"/>
       <use xlink:href="#DejaVuSans-30" x="190.869141"/>
      </g>
     </g>
    </g>
   </g>
   <g id="line2d_13">
    <path d="M 73.832727 171.73301 
L 75.342748 175.071667 
L 76.85277 169.902477 
L 78.362791 173.923716 
L 79.872812 170.909948 
L 81.382833 166.595249 
L 82.892854 169.046868 
L 84.402875 173.327173 
L 85.912896 168.525612 
L 87.422918 168.99129 
L 88.932939 168.453456 
L 90.44296 169.044642 
L 91.952981 173.002824 
L 93.463002 164.980781 
L 94.973023 166.118868 
L 96.483044 172.706647 
L 97.993066 170.095699 
L 99.503087 170.495375 
L 101.013108 168.240676 
L 102.523129 170.798061 
L 104.03315 171.762456 
L 105.543171 167.344187 
L 107.053192 170.575877 
L 108.563214 168.939823 
L 110.073235 170.269421 
L 111.583256 167.095021 
L 113.093277 168.542003 
L 114.603298 169.538196 
L 116.113319 167.600976 
L 117.62334 167.177607 
L 119.133362 169.821995 
L 120.643383 166.994823 
L 122.153404 171.765027 
L 123.663425 170.97146 
L 125.173446 170.592653 
L 126.683467 171.644222 
L 128.193488 168.530201 
L 129.70351 169.138837 
L 131.213531 169.278286 
L 132.723552 169.63218 
L 134.233573 169.240956 
L 135.743594 170.183449 
L 137.253615 171.703784 
L 138.763636 167.791085 
L 140.273658 168.41051 
L 141.783679 168.747325 
L 143.2937 169.411272 
L 144.803721 167.377394 
L 146.313742 168.293914 
L 147.823763 172.396872 
L 149.333784 171.04096 
L 150.843805 166.385471 
L 152.353827 165.526526 
L 153.863848 167.548848 
L 155.373869 175.946378 
L 156.88389 170.146021 
L 158.393911 168.626861 
L 159.903932 169.076708 
L 161.413953 170.495308 
L 162.923975 167.440004 
L 164.433996 165.860703 
L 165.944017 167.450613 
L 167.454038 170.505472 
L 168.964059 168.850241 
L 170.47408 167.372964 
L 171.984101 167.569444 
L 173.494123 168.599021 
L 175.004144 164.241653 
L 176.514165 168.474035 
L 178.024186 169.516577 
L 179.534207 170.149075 
L 181.044228 169.277537 
L 182.554249 170.199067 
L 184.064271 169.379206 
L 185.574292 168.744885 
L 187.084313 170.016367 
L 188.594334 168.663355 
L 190.104355 162.858274 
L 191.614376 169.367698 
L 193.124397 170.989715 
L 194.634419 167.531309 
L 196.14444 170.733921 
L 197.654461 172.806807 
L 199.164482 167.441072 
L 200.674503 169.58095 
L 202.184524 168.392598 
L 203.694545 167.923012 
L 205.204567 170.90441 
L 206.714588 168.091129 
L 208.224609 167.518686 
L 209.73463 169.893432 
L 211.244651 169.641548 
L 212.754672 165.849612 
L 214.264693 166.900618 
L 215.774715 172.472393 
L 217.284736 170.702603 
L 218.794757 168.556483 
L 220.304778 166.869913 
L 221.814799 169.926665 
L 223.32482 170.834109 
L 224.834841 171.927968 
L 226.344863 164.02805 
L 227.854884 176.300248 
L 229.364905 170.075634 
L 230.874926 170.749805 
L 232.384947 174.563862 
L 233.894968 172.477574 
L 235.404989 169.73537 
L 236.915011 155.419145 
L 238.425032 177.268137 
L 239.935053 183.870225 
L 241.445074 166.565822 
L 242.955095 169.377442 
L 244.465116 180.454073 
L 245.975137 154.636291 
L 247.485159 179.774181 
L 248.99518 173.525741 
L 250.505201 154.208776 
L 252.015222 172.884047 
L 253.525243 168.671862 
L 255.035264 158.631579 
L 256.545285 171.784266 
L 258.055307 165.077259 
L 259.565328 162.227972 
L 261.075349 166.241182 
L 262.58537 172.113622 
L 264.095391 175.525068 
L 265.605412 177.256857 
L 267.115433 174.221545 
L 268.625455 174.733459 
L 270.135476 168.524599 
L 271.645497 169.163316 
L 273.155518 153.735118 
L 274.665539 192.432266 
L 276.17556 180.802239 
L 277.685581 167.74526 
L 279.195603 152.150641 
L 280.705624 175.803811 
L 282.215645 160.661423 
L 283.725666 159.917302 
L 285.235687 157.585238 
L 286.745708 164.581068 
L 288.255729 176.994344 
L 289.765751 161.624155 
L 291.275772 182.405734 
L 292.785793 157.845636 
L 294.295814 186.179535 
L 295.805835 153.204857 
L 297.315856 177.621309 
L 298.825877 149.621542 
L 300.335899 176.975076 
L 301.84592 178.404991 
L 303.355941 161.014985 
L 304.865962 180.644967 
L 306.375983 167.684528 
L 307.886004 153.741115 
L 309.396025 169.292209 
L 310.906047 166.479808 
L 312.416068 173.404082 
L 313.926089 143.594203 
L 315.43611 176.788325 
L 316.946131 169.309485 
L 318.456152 165.867196 
L 319.966173 169.02882 
L 321.476195 173.22217 
L 322.986216 173.900257 
L 324.496237 164.345553 
L 326.006258 166.913801 
L 327.516279 169.026209 
L 329.0263 157.233378 
L 330.536321 178.864586 
L 332.046342 166.418285 
L 333.556364 163.479131 
L 335.066385 165.936732 
L 336.576406 159.447854 
L 338.086427 171.218698 
L 339.596448 171.09188 
L 341.106469 165.832124 
L 342.61649 170.849124 
L 344.126512 169.482107 
L 345.636533 174.391946 
L 347.146554 161.996206 
L 348.656575 170.004398 
L 350.166596 166.96217 
L 351.676617 161.057802 
L 353.186638 176.238667 
L 354.69666 180.99028 
L 356.206681 176.438438 
L 357.716702 168.304634 
L 359.226723 182.133358 
L 360.736744 156.566566 
L 362.246765 172.090079 
L 363.756786 172.614431 
L 365.266808 162.783423 
L 366.776829 169.124625 
L 368.28685 166.856783 
L 369.796871 178.948004 
L 371.306892 168.148961 
L 372.816913 164.149166 
L 374.326934 167.228461 
L 375.836956 169.571496 
L 377.346977 167.801973 
L 378.856998 157.515862 
L 380.367019 168.964686 
L 381.87704 168.722467 
L 383.387061 177.769469 
L 384.897082 172.167567 
L 386.407104 165.185412 
L 387.917125 172.379904 
L 389.427146 177.476 
L 390.937167 169.866439 
L 392.447188 171.664352 
L 393.957209 166.638436 
L 395.46723 177.436683 
L 396.977252 174.941843 
L 398.487273 174.337544 
L 398.487273 174.337544 
" clip-path="url(#pa03dd46bb6)" style="fill: none; stroke: #008000; stroke-opacity: 0.8; stroke-width: 0.5; stroke-linecap: square"/>
   </g>
   <g id="line2d_14">
    <path d="M 73.832727 145.249243 
L 75.342748 161.869487 
L 76.85277 149.617987 
L 78.362791 147.369072 
L 79.872812 161.574734 
L 81.382833 151.726475 
L 82.892854 153.672286 
L 84.402875 159.003182 
L 85.912896 153.872658 
L 87.422918 162.720238 
L 88.932939 159.257813 
L 90.44296 160.276493 
L 91.952981 163.481162 
L 93.463002 155.161848 
L 94.973023 151.666682 
L 96.483044 162.759213 
L 97.993066 161.165098 
L 99.503087 163.825088 
L 101.013108 160.108294 
L 102.523129 153.877051 
L 104.03315 169.122095 
L 105.543171 160.205353 
L 107.053192 164.907533 
L 108.563214 157.353225 
L 110.073235 166.115502 
L 111.583256 156.414036 
L 113.093277 166.845401 
L 114.603298 162.529802 
L 116.113319 157.823235 
L 117.62334 158.567172 
L 119.133362 159.872815 
L 120.643383 161.52298 
L 122.153404 166.650194 
L 123.663425 162.5027 
L 125.173446 162.212081 
L 126.683467 166.613949 
L 128.193488 155.928503 
L 129.70351 155.868118 
L 131.213531 165.466109 
L 132.723552 166.475446 
L 134.233573 168.182207 
L 135.743594 167.136459 
L 137.253615 165.2981 
L 138.763636 159.077381 
L 140.273658 164.37764 
L 141.783679 164.50582 
L 143.2937 160.462405 
L 144.803721 160.392811 
L 146.313742 157.861348 
L 147.823763 168.180017 
L 149.333784 162.372369 
L 150.843805 125.512756 
L 152.353827 146.998591 
L 153.863848 148.41482 
L 155.373869 169.658229 
L 156.88389 160.54144 
L 158.393911 152.166547 
L 159.903932 160.78949 
L 161.413953 165.417369 
L 162.923975 156.648359 
L 164.433996 149.530172 
L 165.944017 159.034013 
L 167.454038 164.939146 
L 168.964059 159.02434 
L 170.47408 157.411752 
L 171.984101 163.405877 
L 173.494123 157.161052 
L 175.004144 152.55456 
L 176.514165 164.915995 
L 178.024186 167.229 
L 179.534207 159.840096 
L 181.044228 164.438499 
L 182.554249 166.707098 
L 184.064271 166.223569 
L 185.574292 157.301485 
L 187.084313 163.393423 
L 188.594334 163.144286 
L 190.104355 110.646841 
L 191.614376 161.294171 
L 193.124397 163.551479 
L 194.634419 158.608651 
L 196.14444 163.733121 
L 197.654461 165.276966 
L 199.164482 157.291979 
L 200.674503 160.912592 
L 202.184524 158.89223 
L 203.694545 160.465 
L 205.204567 164.239746 
L 206.714588 163.515237 
L 208.224609 160.523755 
L 209.73463 166.035644 
L 211.244651 155.749486 
L 212.754672 136.294025 
L 214.264693 156.780919 
L 215.774715 157.728487 
L 217.284736 166.006937 
L 218.794757 162.578892 
L 220.304778 161.353169 
L 221.814799 163.861931 
L 223.32482 159.619728 
L 224.834841 160.442485 
L 226.344863 147.95451 
L 227.854884 163.239975 
L 229.364905 138.364888 
L 230.874926 156.88893 
L 232.384947 152.392809 
L 233.894968 141.40793 
L 235.404989 124.426691 
L 236.915011 99.972933 
L 238.425032 138.082603 
L 239.935053 142.67509 
L 241.445074 90.72485 
L 242.955095 132.016383 
L 244.465116 119.999165 
L 245.975137 123.743516 
L 247.485159 143.474199 
L 248.99518 133.606035 
L 250.505201 103.577972 
L 252.015222 104.544249 
L 253.525243 77.525567 
L 255.035264 85.08539 
L 256.545285 129.935169 
L 258.055307 124.334337 
L 259.565328 109.656881 
L 261.075349 124.077064 
L 262.58537 145.562927 
L 264.095391 154.31339 
L 267.115433 142.105469 
L 268.625455 142.217929 
L 270.135476 112.663764 
L 271.645497 78.457104 
L 273.155518 105.847232 
L 274.665539 155.717926 
L 276.17556 149.525218 
L 277.685581 94.304247 
L 279.195603 102.749548 
L 280.705624 128.074489 
L 282.215645 120.041443 
L 283.725666 100.649902 
L 285.235687 105.088305 
L 286.745708 93.247312 
L 288.255729 125.199733 
L 289.765751 136.852327 
L 291.275772 165.75066 
L 292.785793 109.709804 
L 294.295814 166.357077 
L 295.805835 115.899838 
L 297.315856 139.541189 
L 298.825877 77.259604 
L 300.335899 142.880278 
L 301.84592 159.491077 
L 303.355941 112.918824 
L 304.865962 148.416736 
L 306.375983 125.302932 
L 307.886004 96.271437 
L 309.396025 133.29734 
L 310.906047 143.097795 
L 312.416068 145.341092 
L 313.926089 91.336054 
L 315.43611 158.474849 
L 316.946131 110.763882 
L 318.456152 142.028973 
L 319.966173 115.472324 
L 321.476195 150.329862 
L 322.986216 145.959119 
L 324.496237 137.443425 
L 326.006258 152.070609 
L 327.516279 143.652209 
L 329.0263 97.114218 
L 330.536321 147.403625 
L 332.046342 151.039405 
L 333.556364 145.405438 
L 335.066385 153.010116 
L 336.576406 129.876649 
L 338.086427 157.528717 
L 341.106469 155.578617 
L 342.61649 159.543288 
L 344.126512 165.702415 
L 345.636533 160.753007 
L 347.146554 119.076117 
L 348.656575 152.433078 
L 350.166596 152.885873 
L 351.676617 124.807675 
L 353.186638 151.985838 
L 354.69666 152.594911 
L 356.206681 156.58465 
L 357.716702 151.1051 
L 359.226723 167.306036 
L 360.736744 127.867475 
L 362.246765 150.369632 
L 363.756786 151.785244 
L 365.266808 148.407838 
L 366.776829 156.793581 
L 368.28685 144.244054 
L 369.796871 156.896327 
L 371.306892 141.622472 
L 372.816913 140.508663 
L 374.326934 154.776353 
L 375.836956 155.056777 
L 377.346977 160.640035 
L 378.856998 80.355548 
L 380.367019 143.912077 
L 381.87704 138.829522 
L 383.387061 160.318439 
L 384.897082 143.946264 
L 386.407104 138.350261 
L 387.917125 146.90715 
L 389.427146 160.774345 
L 390.937167 119.888898 
L 392.447188 151.738362 
L 393.957209 144.121956 
L 395.46723 142.941414 
L 396.977252 136.383431 
L 398.487273 152.370531 
L 398.487273 152.370531 
" clip-path="url(#pa03dd46bb6)" style="fill: none; stroke: #32cd32; stroke-opacity: 0.8; stroke-width: 0.5; stroke-linecap: square"/>
   </g>
   <g id="line2d_15">
    <path d="M 73.832727 182.567408 
L 75.342748 197.006473 
L 76.85277 191.577944 
L 78.362791 211.959033 
L 79.872812 185.942711 
L 81.382833 178.73273 
L 82.892854 190.657899 
L 84.402875 203.753633 
L 85.912896 183.99589 
L 87.422918 178.351691 
L 88.932939 182.337299 
L 90.44296 184.159682 
L 91.952981 186.828452 
L 93.463002 173.711739 
L 94.973023 172.897118 
L 96.483044 186.37275 
L 97.993066 176.501659 
L 99.503087 183.603926 
L 101.013108 177.828122 
L 102.523129 180.776042 
L 104.03315 177.747357 
L 105.543171 173.4095 
L 108.563214 182.00061 
L 110.073235 175.341438 
L 111.583256 174.684084 
L 113.093277 170.21063 
L 114.603298 180.277824 
L 116.113319 171.392978 
L 117.62334 178.633831 
L 119.133362 184.507151 
L 120.643383 172.944973 
L 122.153404 180.353956 
L 123.663425 185.837519 
L 125.173446 178.816304 
L 126.683467 191.289483 
L 128.193488 173.452155 
L 129.70351 179.50573 
L 132.723552 173.798496 
L 134.233573 170.403381 
L 135.743594 177.887299 
L 137.253615 186.052016 
L 138.763636 173.230196 
L 140.273658 171.639302 
L 141.783679 172.858794 
L 143.2937 179.717294 
L 144.803721 183.013181 
L 146.313742 179.075584 
L 147.823763 184.069107 
L 149.333784 178.80549 
L 150.843805 188.992921 
L 152.353827 180.190839 
L 153.863848 181.226105 
L 155.373869 189.490101 
L 156.88389 185.828604 
L 158.393911 183.698114 
L 159.903932 178.049514 
L 161.413953 179.115458 
L 162.923975 176.100382 
L 164.433996 180.73219 
L 165.944017 174.306179 
L 167.454038 174.594436 
L 168.964059 186.122451 
L 170.47408 177.008118 
L 171.984101 171.61905 
L 173.494123 181.82848 
L 175.004144 171.980132 
L 176.514165 174.168126 
L 178.024186 172.690519 
L 179.534207 177.905288 
L 181.044228 177.369383 
L 182.554249 173.220378 
L 184.064271 174.05963 
L 185.574292 185.594384 
L 187.084313 179.228637 
L 188.594334 174.640446 
L 190.104355 185.154624 
L 191.614376 183.716629 
L 193.124397 187.708733 
L 194.634419 179.176171 
L 196.14444 181.397812 
L 197.654461 183.925345 
L 199.164482 177.173466 
L 200.674503 178.406655 
L 202.184524 176.144746 
L 203.694545 172.208886 
L 205.204567 183.454885 
L 206.714588 173.203624 
L 208.224609 171.257228 
L 209.73463 180.536315 
L 211.244651 176.140844 
L 212.754672 174.793037 
L 214.264693 176.005254 
L 215.774715 214.628239 
L 217.284736 178.47244 
L 218.794757 184.821139 
L 220.304778 170.695647 
L 221.814799 175.468794 
L 223.32482 185.931115 
L 224.834841 186.747908 
L 226.344863 178.408416 
L 227.854884 197.08191 
L 229.364905 186.055614 
L 230.874926 187.942247 
L 232.384947 201.692505 
L 233.894968 202.589198 
L 235.404989 220.462619 
L 236.915011 198.306734 
L 238.425032 213.214611 
L 239.935053 274.082203 
L 241.445074 226.015599 
L 242.955095 232.295268 
L 244.465116 223.566713 
L 245.975137 208.237466 
L 247.485159 207.98368 
L 248.99518 226.90637 
L 250.505201 223.169636 
L 252.015222 239.469976 
L 253.525243 263.821389 
L 255.035264 225.364649 
L 256.545285 220.286546 
L 258.055307 221.040225 
L 259.565328 196.881026 
L 261.075349 209.324319 
L 262.58537 203.739622 
L 264.095391 194.582198 
L 265.605412 195.160939 
L 267.115433 203.817906 
L 268.625455 216.309556 
L 270.135476 219.057246 
L 271.645497 214.710332 
L 273.155518 195.749304 
L 274.665539 240.143485 
L 276.17556 226.713802 
L 277.685581 232.90933 
L 279.195603 202.28379 
L 280.705624 212.390055 
L 282.215645 195.013635 
L 283.725666 210.782981 
L 285.235687 201.704793 
L 286.745708 200.481409 
L 288.255729 214.770886 
L 289.765751 195.724181 
L 291.275772 212.192561 
L 292.785793 208.38798 
L 294.295814 238.371409 
L 295.805835 198.861099 
L 297.315856 248.100807 
L 298.825877 247.851933 
L 300.335899 218.530134 
L 301.84592 200.279424 
L 303.355941 185.569386 
L 304.865962 225.976341 
L 306.375983 228.449111 
L 307.886004 226.504117 
L 309.396025 230.143668 
L 310.906047 187.156014 
L 312.416068 218.129722 
L 313.926089 171.442663 
L 315.43611 217.133784 
L 316.946131 230.760587 
L 318.456152 192.625186 
L 319.966173 190.860783 
L 321.476195 203.401591 
L 322.986216 221.07356 
L 324.496237 187.706249 
L 326.006258 173.966799 
L 327.516279 228.971186 
L 329.0263 179.952067 
L 330.536321 273.893801 
L 332.046342 181.082592 
L 333.556364 177.732876 
L 335.066385 176.007724 
L 336.576406 189.792971 
L 338.086427 202.170105 
L 339.596448 186.995481 
L 341.106469 175.765001 
L 342.61649 183.796141 
L 344.126512 175.120551 
L 345.636533 195.688175 
L 347.146554 188.783333 
L 348.656575 180.76464 
L 350.166596 182.066215 
L 351.676617 198.042244 
L 353.186638 208.099537 
L 354.69666 226.273883 
L 356.206681 203.659584 
L 357.716702 187.217302 
L 359.226723 253.784016 
L 360.736744 179.05363 
L 362.246765 198.466789 
L 363.756786 222.636408 
L 365.266808 174.18597 
L 366.776829 180.021367 
L 368.28685 182.607746 
L 369.796871 233.016905 
L 371.306892 179.316688 
L 372.816913 183.723285 
L 374.326934 176.282066 
L 375.836956 192.257687 
L 377.346977 178.170242 
L 378.856998 188.728424 
L 380.367019 215.338321 
L 381.87704 186.534349 
L 383.387061 230.862849 
L 384.897082 187.181379 
L 386.407104 191.48606 
L 387.917125 192.760776 
L 389.427146 213.878926 
L 390.937167 205.126729 
L 392.447188 185.068726 
L 393.957209 192.473876 
L 395.46723 209.13921 
L 396.977252 204.21177 
L 398.487273 209.847764 
L 398.487273 209.847764 
" clip-path="url(#pa03dd46bb6)" style="fill: none; stroke: #32cd32; stroke-opacity: 0.8; stroke-width: 0.5; stroke-linecap: square"/>
   </g>
   <g id="line2d_16">
    <path d="M 73.832727 165.881381 
L 75.342748 170.767255 
L 76.85277 169.879381 
L 78.362791 165.651232 
L 79.872812 170.727111 
L 81.382833 167.68513 
L 82.892854 172.459066 
L 85.912896 174.782954 
L 87.422918 172.035751 
L 88.932939 167.224718 
L 90.44296 169.376304 
L 91.952981 171.883663 
L 93.463002 169.485866 
L 94.973023 166.744275 
L 96.483044 173.899936 
L 97.993066 172.902683 
L 99.503087 168.429958 
L 101.013108 169.118254 
L 102.523129 167.414737 
L 104.03315 172.981697 
L 105.543171 168.602593 
L 107.053192 169.29256 
L 108.563214 170.902364 
L 110.073235 169.4222 
L 111.583256 168.36699 
L 113.093277 168.357525 
L 114.603298 170.732002 
L 116.113319 166.876762 
L 117.62334 166.475697 
L 119.133362 170.749455 
L 120.643383 169.049769 
L 122.153404 169.286109 
L 123.663425 169.079453 
L 125.173446 170.815501 
L 126.683467 165.831693 
L 128.193488 169.969842 
L 129.70351 168.067662 
L 131.213531 168.688201 
L 132.723552 167.485428 
L 134.233573 171.083453 
L 135.743594 169.201512 
L 137.253615 170.791801 
L 138.763636 169.871952 
L 140.273658 168.7568 
L 141.783679 170.528912 
L 143.2937 172.040219 
L 144.803721 167.760248 
L 146.313742 168.887689 
L 147.823763 168.217456 
L 149.333784 176.019681 
L 150.843805 166.101985 
L 152.353827 165.946499 
L 153.863848 168.189757 
L 155.373869 171.529012 
L 156.88389 170.019643 
L 158.393911 172.221855 
L 159.903932 169.707898 
L 161.413953 170.191852 
L 162.923975 169.455148 
L 164.433996 165.842592 
L 165.944017 168.933076 
L 167.454038 167.842781 
L 168.964059 166.393167 
L 170.47408 166.929097 
L 171.984101 168.249679 
L 175.004144 168.544515 
L 176.514165 167.105995 
L 178.024186 166.334455 
L 179.534207 171.144326 
L 181.044228 170.25144 
L 182.554249 169.905986 
L 184.064271 171.348571 
L 185.574292 168.009566 
L 188.594334 167.605431 
L 190.104355 169.213082 
L 191.614376 169.417865 
L 193.124397 170.215337 
L 194.634419 166.777417 
L 196.14444 172.737377 
L 197.654461 170.10347 
L 199.164482 165.912056 
L 200.674503 169.373889 
L 202.184524 169.22979 
L 203.694545 168.967227 
L 205.204567 174.583732 
L 206.714588 170.45862 
L 208.224609 167.443572 
L 209.73463 170.976561 
L 211.244651 167.514782 
L 212.754672 166.843489 
L 214.264693 168.290135 
L 215.774715 166.102824 
L 217.284736 169.400614 
L 218.794757 168.854642 
L 220.304778 169.839959 
L 221.814799 170.315876 
L 223.32482 173.647363 
L 224.834841 167.586841 
L 226.344863 170.461479 
L 227.854884 172.629647 
L 229.364905 171.979004 
L 230.874926 171.150119 
L 232.384947 174.191234 
L 233.894968 180.540016 
L 235.404989 177.233883 
L 236.915011 163.167934 
L 238.425032 174.782813 
L 239.935053 188.155711 
L 241.445074 168.543525 
L 242.955095 170.91052 
L 244.465116 184.745536 
L 245.975137 157.796921 
L 247.485159 169.759732 
L 248.99518 169.634524 
L 250.505201 159.509707 
L 252.015222 173.124783 
L 253.525243 166.709259 
L 255.035264 156.80388 
L 256.545285 175.639713 
L 258.055307 166.515694 
L 259.565328 163.396092 
L 261.075349 171.192334 
L 262.58537 163.930099 
L 264.095391 169.380506 
L 265.605412 160.201606 
L 267.115433 170.7408 
L 268.625455 163.745538 
L 270.135476 164.436832 
L 271.645497 162.145512 
L 274.665539 168.649894 
L 276.17556 184.034372 
L 279.195603 173.525904 
L 280.705624 161.765668 
L 282.215645 151.168681 
L 283.725666 154.742374 
L 285.235687 153.430338 
L 286.745708 178.710217 
L 288.255729 176.01796 
L 289.765751 156.640526 
L 291.275772 169.051532 
L 292.785793 170.349894 
L 294.295814 177.771067 
L 295.805835 162.234303 
L 297.315856 173.725604 
L 298.825877 172.146446 
L 300.335899 173.791292 
L 301.84592 176.869032 
L 303.355941 170.525116 
L 304.865962 161.028561 
L 306.375983 154.452348 
L 307.886004 158.460818 
L 309.396025 168.260867 
L 310.906047 162.165618 
L 312.416068 171.303744 
L 313.926089 141.310153 
L 315.43611 169.219503 
L 316.946131 158.893373 
L 318.456152 176.351671 
L 319.966173 179.304818 
L 321.476195 168.248467 
L 322.986216 162.500826 
L 324.496237 170.770503 
L 326.006258 168.088362 
L 327.516279 169.000492 
L 329.0263 177.452824 
L 332.046342 168.67299 
L 333.556364 176.558671 
L 335.066385 163.775439 
L 336.576406 169.181469 
L 338.086427 167.967334 
L 339.596448 169.979486 
L 341.106469 170.027088 
L 342.61649 167.617709 
L 344.126512 167.011676 
L 345.636533 179.807757 
L 347.146554 169.956079 
L 348.656575 167.093725 
L 350.166596 169.483856 
L 351.676617 167.07005 
L 353.186638 173.874511 
L 354.69666 154.568384 
L 356.206681 180.71683 
L 357.716702 173.260591 
L 359.226723 172.90558 
L 360.736744 161.311295 
L 362.246765 166.658232 
L 363.756786 165.738949 
L 365.266808 164.495077 
L 366.776829 172.418768 
L 368.28685 167.044891 
L 369.796871 175.944172 
L 371.306892 167.890123 
L 374.326934 174.535608 
L 375.836956 160.632809 
L 377.346977 164.264192 
L 378.856998 165.363787 
L 380.367019 177.559636 
L 381.87704 167.81575 
L 383.387061 170.697609 
L 384.897082 173.072328 
L 386.407104 165.100384 
L 387.917125 174.017612 
L 389.427146 181.272484 
L 390.937167 177.321994 
L 392.447188 165.926432 
L 393.957209 171.524002 
L 395.46723 189.584918 
L 396.977252 165.275648 
L 398.487273 168.881381 
L 398.487273 168.881381 
" clip-path="url(#pa03dd46bb6)" style="fill: none; stroke: #ff0000; stroke-opacity: 0.8; stroke-width: 0.5; stroke-linecap: square"/>
   </g>
   <g id="line2d_17">
    <path d="M 73.832727 146.069109 
L 75.342748 143.876175 
L 76.85277 159.12591 
L 78.362791 148.069337 
L 79.872812 147.9098 
L 81.382833 152.096167 
L 82.892854 152.143361 
L 84.402875 157.506687 
L 85.912896 163.467427 
L 87.422918 153.582042 
L 88.932939 154.939363 
L 90.44296 158.389764 
L 91.952981 166.449783 
L 93.463002 156.594433 
L 94.973023 162.15627 
L 96.483044 166.710503 
L 97.993066 144.71504 
L 99.503087 157.980675 
L 101.013108 155.559022 
L 102.523129 155.605497 
L 104.03315 166.411805 
L 105.543171 162.111643 
L 107.053192 159.818094 
L 108.563214 166.801189 
L 110.073235 165.04228 
L 111.583256 163.082133 
L 113.093277 165.802068 
L 114.603298 165.281183 
L 116.113319 155.071293 
L 117.62334 152.534443 
L 119.133362 159.872815 
L 120.643383 162.544754 
L 122.153404 158.951913 
L 123.663425 162.491122 
L 125.173446 164.888081 
L 126.683467 154.346715 
L 128.193488 167.212499 
L 129.70351 159.7881 
L 131.213531 156.882617 
L 132.723552 155.912673 
L 134.233573 167.000298 
L 135.743594 164.31454 
L 137.253615 166.880044 
L 138.763636 164.405005 
L 140.273658 163.280091 
L 141.783679 166.907201 
L 143.2937 163.905278 
L 144.803721 155.474099 
L 146.313742 162.876496 
L 147.823763 161.626204 
L 149.333784 169.623877 
L 150.843805 116.940133 
L 152.353827 156.523299 
L 153.863848 147.489406 
L 155.373869 161.875686 
L 156.88389 153.164602 
L 158.393911 146.946623 
L 159.903932 164.329028 
L 161.413953 165.136578 
L 162.923975 163.268799 
L 164.433996 149.99922 
L 165.944017 165.150872 
L 167.454038 156.229376 
L 168.964059 151.198824 
L 170.47408 157.303824 
L 171.984101 164.723185 
L 173.494123 159.001466 
L 175.004144 158.458642 
L 176.514165 159.59639 
L 178.024186 160.50479 
L 179.534207 150.315643 
L 181.044228 161.98888 
L 182.554249 160.158629 
L 184.064271 158.511551 
L 185.574292 155.473172 
L 187.084313 161.40139 
L 188.594334 157.437287 
L 190.104355 135.722888 
L 191.614376 161.352539 
L 193.124397 164.258974 
L 194.634419 157.360324 
L 196.14444 162.556914 
L 197.654461 165.37427 
L 199.164482 160.011976 
L 200.674503 159.215828 
L 202.184524 162.551181 
L 203.694545 161.247226 
L 205.204567 163.507682 
L 206.714588 166.185972 
L 208.224609 160.847437 
L 209.73463 164.625324 
L 211.244651 159.463789 
L 212.754672 150.934313 
L 214.264693 156.939155 
L 215.774715 150.637408 
L 217.284736 164.776696 
L 218.794757 157.569435 
L 220.304778 166.912888 
L 221.814799 166.692555 
L 223.32482 161.193452 
L 224.834841 146.242172 
L 226.344863 160.088845 
L 227.854884 161.675023 
L 229.364905 150.302712 
L 230.874926 155.415454 
L 232.384947 150.402759 
L 233.894968 159.690356 
L 235.404989 121.744499 
L 236.915011 109.341184 
L 238.425032 132.819214 
L 239.935053 115.039171 
L 241.445074 53.568 
L 242.955095 126.207914 
L 244.465116 138.490688 
L 245.975137 93.985202 
L 247.485159 124.858737 
L 248.99518 137.101201 
L 250.505201 104.568507 
L 252.015222 112.959729 
L 253.525243 62.91391 
L 255.035264 116.969386 
L 256.545285 134.175442 
L 258.055307 96.078095 
L 261.075349 120.161476 
L 262.58537 143.359753 
L 264.095391 150.503112 
L 265.605412 56.878597 
L 267.115433 121.418811 
L 268.625455 103.568694 
L 270.135476 98.462745 
L 271.645497 87.49591 
L 273.155518 105.791669 
L 274.665539 126.81303 
L 276.17556 158.011533 
L 277.685581 115.560637 
L 279.195603 128.0746 
L 280.705624 103.9225 
L 282.215645 110.114942 
L 283.725666 85.759923 
L 285.235687 106.641058 
L 286.745708 104.688453 
L 288.255729 137.274036 
L 289.765751 121.683945 
L 291.275772 147.954399 
L 292.785793 114.103511 
L 294.295814 138.298508 
L 295.805835 112.130661 
L 297.315856 135.954527 
L 298.825877 127.374958 
L 300.335899 153.65521 
L 301.84592 152.801635 
L 303.355941 134.620848 
L 304.865962 129.71797 
L 306.375983 126.730667 
L 307.886004 93.539125 
L 309.396025 139.263948 
L 310.906047 128.351578 
L 312.416068 152.456311 
L 313.926089 85.668953 
L 315.43611 145.290252 
L 316.946131 83.85207 
L 318.456152 153.44504 
L 319.966173 153.413102 
L 321.476195 143.461773 
L 322.986216 141.792069 
L 324.496237 137.362868 
L 326.006258 154.159323 
L 327.516279 141.234126 
L 329.0263 151.533063 
L 330.536321 164.771085 
L 332.046342 150.751141 
L 333.556364 164.785262 
L 335.066385 119.603672 
L 336.576406 148.220363 
L 338.086427 154.510071 
L 339.596448 163.723732 
L 341.106469 163.472298 
L 342.61649 153.711308 
L 344.126512 157.003854 
L 345.636533 168.805451 
L 347.146554 149.838119 
L 348.656575 160.251468 
L 350.166596 140.930967 
L 351.676617 138.475508 
L 353.186638 152.934506 
L 354.69666 88.663936 
L 356.206681 146.157637 
L 357.716702 145.640433 
L 359.226723 125.949382 
L 360.736744 129.125004 
L 362.246765 150.203079 
L 363.756786 129.901889 
L 365.266808 139.882611 
L 366.776829 150.729167 
L 368.28685 141.635411 
L 369.796871 161.892278 
L 371.306892 153.252223 
L 372.816913 153.463306 
L 374.326934 113.208063 
L 375.836956 140.255596 
L 377.346977 130.994637 
L 378.856998 139.936412 
L 380.367019 154.21091 
L 381.87704 145.191892 
L 383.387061 153.712803 
L 384.897082 163.782003 
L 386.407104 137.620287 
L 387.917125 167.028891 
L 389.427146 147.833955 
L 390.937167 153.00948 
L 392.447188 139.045891 
L 393.957209 143.648342 
L 395.46723 160.338259 
L 396.977252 114.209121 
L 398.487273 142.507943 
L 398.487273 142.507943 
" clip-path="url(#pa03dd46bb6)" style="fill: none; stroke: #f08080; stroke-opacity: 0.8; stroke-width: 0.5; stroke-linecap: square"/>
   </g>
   <g id="line2d_18">
    <path d="M 73.832727 184.450886 
L 75.342748 186.73324 
L 76.85277 187.136655 
L 78.362791 181.540369 
L 79.872812 185.573143 
L 81.382833 204.002888 
L 82.892854 207.136713 
L 84.402875 183.151497 
L 85.912896 198.245204 
L 87.422918 190.938884 
L 88.932939 187.9384 
L 90.44296 183.957912 
L 91.952981 180.318493 
L 93.463002 178.711607 
L 94.973023 172.236091 
L 96.483044 200.662449 
L 97.993066 199.274934 
L 99.503087 177.137619 
L 101.013108 201.042631 
L 102.523129 173.21211 
L 104.03315 187.959939 
L 105.543171 178.002686 
L 107.053192 181.897594 
L 108.563214 176.50451 
L 110.073235 180.475214 
L 111.583256 175.453379 
L 113.093277 171.991085 
L 114.603298 180.042041 
L 116.113319 178.858419 
L 117.62334 189.4149 
L 119.133362 188.173329 
L 120.643383 188.380032 
L 122.153404 178.351674 
L 123.663425 175.149794 
L 125.173446 201.132978 
L 126.683467 171.376234 
L 128.193488 176.131455 
L 129.70351 173.60772 
L 131.213531 173.238329 
L 132.723552 171.510548 
L 134.233573 177.820933 
L 135.743594 174.430824 
L 137.253615 177.915051 
L 138.763636 175.811226 
L 140.273658 172.988417 
L 141.783679 175.5066 
L 143.2937 180.755621 
L 144.803721 185.276301 
L 146.313742 184.538155 
L 147.823763 175.91685 
L 149.333784 193.278533 
L 150.843805 189.087946 
L 152.353827 180.243835 
L 153.863848 182.821617 
L 155.373869 186.021947 
L 156.88389 183.074593 
L 158.393911 198.516509 
L 159.903932 178.944605 
L 161.413953 178.859568 
L 162.923975 173.590845 
L 164.433996 177.62977 
L 165.944017 174.331779 
L 167.454038 177.727424 
L 168.964059 192.076183 
L 170.47408 174.657419 
L 171.984101 171.549851 
L 173.494123 184.471318 
L 175.004144 172.595699 
L 176.514165 177.254342 
L 178.024186 173.556306 
L 179.534207 190.111608 
L 181.044228 179.757174 
L 182.554249 176.185513 
L 184.064271 177.121173 
L 185.574292 175.978194 
L 187.084313 183.126499 
L 188.594334 174.106423 
L 190.104355 183.890775 
L 191.614376 179.03652 
L 193.124397 179.180018 
L 194.634419 177.800128 
L 196.14444 186.746967 
L 197.654461 179.139286 
L 199.164482 174.146822 
L 200.674503 180.681709 
L 202.184524 178.322507 
L 203.694545 181.883901 
L 205.204567 187.891248 
L 206.714588 174.464553 
L 208.224609 173.055022 
L 209.73463 185.438051 
L 211.244651 174.316073 
L 212.754672 175.42872 
L 214.264693 178.504585 
L 215.774715 184.029074 
L 217.284736 174.660024 
L 218.794757 175.458409 
L 220.304778 174.65957 
L 221.814799 174.701755 
L 223.32482 186.895448 
L 224.834841 186.474777 
L 226.344863 191.231845 
L 227.854884 186.932671 
L 229.364905 201.447492 
L 230.874926 178.973343 
L 232.384947 202.788456 
L 233.894968 213.974891 
L 235.404989 220.462619 
L 236.915011 210.314819 
L 238.425032 238.736396 
L 239.935053 295.488 
L 241.445074 219.857296 
L 242.955095 254.673901 
L 244.465116 226.417713 
L 245.975137 195.769348 
L 247.485159 232.666005 
L 248.99518 216.906815 
L 250.505201 186.862472 
L 252.015222 240.359633 
L 253.525243 227.083619 
L 255.035264 223.638753 
L 256.545285 225.260094 
L 258.055307 219.97235 
L 259.565328 218.203007 
L 261.075349 217.982902 
L 262.58537 183.361937 
L 264.095391 198.399399 
L 265.605412 198.892248 
L 267.115433 218.260739 
L 268.625455 216.543045 
L 270.135476 195.819607 
L 271.645497 221.215122 
L 273.155518 197.445943 
L 274.665539 214.642526 
L 276.17556 214.271561 
L 277.685581 233.704619 
L 279.195603 241.603988 
L 280.705624 212.390055 
L 282.215645 195.06727 
L 283.725666 199.874072 
L 285.235687 185.822093 
L 286.745708 284.921909 
L 288.255729 214.770886 
L 289.765751 209.923429 
L 291.275772 190.417653 
L 292.785793 200.419948 
L 294.295814 236.628095 
L 295.805835 197.332777 
L 297.315856 250.715 
L 298.825877 217.971417 
L 300.335899 195.11589 
L 301.84592 213.442286 
L 303.355941 218.069444 
L 304.865962 182.916579 
L 306.375983 183.072255 
L 307.886004 189.124574 
L 309.396025 195.7523 
L 310.906047 182.333569 
L 312.416068 199.413991 
L 313.926089 175.475361 
L 315.43611 189.341884 
L 316.946131 190.993183 
L 318.456152 248.351494 
L 319.966173 200.457365 
L 321.476195 201.917287 
L 322.986216 178.016808 
L 324.496237 237.376661 
L 326.006258 193.395436 
L 327.516279 188.247462 
L 329.0263 214.688634 
L 330.536321 194.086886 
L 332.046342 179.250391 
L 333.556364 214.787298 
L 335.066385 188.138184 
L 336.576406 214.857359 
L 338.086427 183.458483 
L 339.596448 181.184965 
L 341.106469 180.321081 
L 342.61649 179.203107 
L 344.126512 170.599141 
L 345.636533 201.416716 
L 347.146554 216.188298 
L 348.656575 175.549981 
L 350.166596 205.054689 
L 351.676617 192.713492 
L 353.186638 234.90259 
L 354.69666 214.039445 
L 356.206681 222.475363 
L 357.716702 200.675893 
L 359.226723 250.65987 
L 360.736744 187.993136 
L 362.246765 183.624109 
L 363.756786 198.844175 
L 365.266808 174.075758 
L 366.776829 217.801958 
L 368.28685 189.12025 
L 369.796871 200.174215 
L 371.306892 191.132973 
L 372.816913 209.470156 
L 374.326934 243.402993 
L 375.836956 176.808105 
L 377.346977 189.549452 
L 378.856998 184.646173 
L 380.367019 204.900563 
L 381.87704 193.499579 
L 383.387061 185.264919 
L 384.897082 182.624794 
L 386.407104 208.515676 
L 387.917125 190.838677 
L 389.427146 210.994092 
L 390.937167 206.384245 
L 392.447188 180.932728 
L 393.957209 197.351707 
L 395.46723 288.27914 
L 396.977252 194.269144 
L 398.487273 184.012731 
L 398.487273 184.012731 
" clip-path="url(#pa03dd46bb6)" style="fill: none; stroke: #f08080; stroke-opacity: 0.8; stroke-width: 0.5; stroke-linecap: square"/>
   </g>
   <g id="patch_3">
    <path d="M 57.6 307.584 
L 57.6 41.472 
" style="fill: none; stroke: #000000; stroke-width: 0.8; stroke-linejoin: miter; stroke-linecap: square"/>
   </g>
   <g id="patch_4">
    <path d="M 414.72 307.584 
L 414.72 41.472 
" style="fill: none; stroke: #000000; stroke-width: 0.8; stroke-linejoin: miter; stroke-linecap: square"/>
   </g>
   <g id="patch_5">
    <path d="M 57.6 307.584 
L 414.72 307.584 
" style="fill: none; stroke: #000000; stroke-width: 0.8; stroke-linejoin: miter; stroke-linecap: square"/>
   </g>
   <g id="patch_6">
    <path d="M 57.6 41.472 
L 414.72 41.472 
" style="fill: none; stroke: #000000; stroke-width: 0.8; stroke-linejoin: miter; stroke-linecap: square"/>
   </g>
   <g id="text_13">
    <!-- 1final_weighted_btcusd -->
    <g transform="translate(165.489375 35.472) scale(0.12 -0.12)">
     <defs>
      <path id="DejaVuSans-66" d="M 2375 4863 
L 2375 4384 
L 1825 4384 
Q 1516 4384 1395 4259 
Q 1275 4134 1275 3809 
L 1275 3500 
L 2222 3500 
L 2222 3053 
L 1275 3053 
L 1275 0 
L 697 0 
L 697 3053 
L 147 3053 
L 147 3500 
L 697 3500 
L 697 3744 
Q 697 4328 969 4595 
Q 1241 4863 1831 4863 
L 2375 4863 
z
" transform="scale(0.015625)"/>
      <path id="DejaVuSans-69" d="M 603 3500 
L 1178 3500 
L 1178 0 
L 603 0 
L 603 3500 
z
M 603 4863 
L 1178 4863 
L 1178 4134 
L 603 4134 
L 603 4863 
z
" transform="scale(0.015625)"/>
      <path id="DejaVuSans-6e" d="M 3513 2113 
L 3513 0 
L 2938 0 
L 2938 2094 
Q 2938 2591 2744 2837 
Q 2550 3084 2163 3084 
Q 1697 3084 1428 2787 
Q 1159 2491 1159 1978 
L 1159 0 
L 581 0 
L 581 3500 
L 1159 3500 
L 1159 2956 
Q 1366 3272 1645 3428 
Q 1925 3584 2291 3584 
Q 2894 3584 3203 3211 
Q 3513 2838 3513 2113 
z
" transform="scale(0.015625)"/>
      <path id="DejaVuSans-61" d="M 2194 1759 
Q 1497 1759 1228 1600 
Q 959 1441 959 1056 
Q 959 750 1161 570 
Q 1363 391 1709 391 
Q 2188 391 2477 730 
Q 2766 1069 2766 1631 
L 2766 1759 
L 2194 1759 
z
M 3341 1997 
L 3341 0 
L 2766 0 
L 2766 531 
Q 2569 213 2275 61 
Q 1981 -91 1556 -91 
Q 1019 -91 701 211 
Q 384 513 384 1019 
Q 384 1609 779 1909 
Q 1175 2209 1959 2209 
L 2766 2209 
L 2766 2266 
Q 2766 2663 2505 2880 
Q 2244 3097 1772 3097 
Q 1472 3097 1187 3025 
Q 903 2953 641 2809 
L 641 3341 
Q 956 3463 1253 3523 
Q 1550 3584 1831 3584 
Q 2591 3584 2966 3190 
Q 3341 2797 3341 1997 
z
" transform="scale(0.015625)"/>
      <path id="DejaVuSans-6c" d="M 603 4863 
L 1178 4863 
L 1178 0 
L 603 0 
L 603 4863 
z
" transform="scale(0.015625)"/>
      <path id="DejaVuSans-5f" d="M 3263 -1063 
L 3263 -1509 
L -63 -1509 
L -63 -1063 
L 3263 -1063 
z
" transform="scale(0.015625)"/>
      <path id="DejaVuSans-77" d="M 269 3500 
L 844 3500 
L 1563 769 
L 2278 3500 
L 2956 3500 
L 3675 769 
L 4391 3500 
L 4966 3500 
L 4050 0 
L 3372 0 
L 2619 2869 
L 1863 0 
L 1184 0 
L 269 3500 
z
" transform="scale(0.015625)"/>
      <path id="DejaVuSans-65" d="M 3597 1894 
L 3597 1613 
L 953 1613 
Q 991 1019 1311 708 
Q 1631 397 2203 397 
Q 2534 397 2845 478 
Q 3156 559 3463 722 
L 3463 178 
Q 3153 47 2828 -22 
Q 2503 -91 2169 -91 
Q 1331 -91 842 396 
Q 353 884 353 1716 
Q 353 2575 817 3079 
Q 1281 3584 2069 3584 
Q 2775 3584 3186 3129 
Q 3597 2675 3597 1894 
z
M 3022 2063 
Q 3016 2534 2758 2815 
Q 2500 3097 2075 3097 
Q 1594 3097 1305 2825 
Q 1016 2553 972 2059 
L 3022 2063 
z
" transform="scale(0.015625)"/>
      <path id="DejaVuSans-67" d="M 2906 1791 
Q 2906 2416 2648 2759 
Q 2391 3103 1925 3103 
Q 1463 3103 1205 2759 
Q 947 2416 947 1791 
Q 947 1169 1205 825 
Q 1463 481 1925 481 
Q 2391 481 2648 825 
Q 2906 1169 2906 1791 
z
M 3481 434 
Q 3481 -459 3084 -895 
Q 2688 -1331 1869 -1331 
Q 1566 -1331 1297 -1286 
Q 1028 -1241 775 -1147 
L 775 -588 
Q 1028 -725 1275 -790 
Q 1522 -856 1778 -856 
Q 2344 -856 2625 -561 
Q 2906 -266 2906 331 
L 2906 616 
Q 2728 306 2450 153 
Q 2172 0 1784 0 
Q 1141 0 747 490 
Q 353 981 353 1791 
Q 353 2603 747 3093 
Q 1141 3584 1784 3584 
Q 2172 3584 2450 3431 
Q 2728 3278 2906 2969 
L 2906 3500 
L 3481 3500 
L 3481 434 
z
" transform="scale(0.015625)"/>
      <path id="DejaVuSans-68" d="M 3513 2113 
L 3513 0 
L 2938 0 
L 2938 2094 
Q 2938 2591 2744 2837 
Q 2550 3084 2163 3084 
Q 1697 3084 1428 2787 
Q 1159 2491 1159 1978 
L 1159 0 
L 581 0 
L 581 4863 
L 1159 4863 
L 1159 2956 
Q 1366 3272 1645 3428 
Q 1925 3584 2291 3584 
Q 2894 3584 3203 3211 
Q 3513 2838 3513 2113 
z
" transform="scale(0.015625)"/>
      <path id="DejaVuSans-74" d="M 1172 4494 
L 1172 3500 
L 2356 3500 
L 2356 3053 
L 1172 3053 
L 1172 1153 
Q 1172 725 1289 603 
Q 1406 481 1766 481 
L 2356 481 
L 2356 0 
L 1766 0 
Q 1100 0 847 248 
Q 594 497 594 1153 
L 594 3053 
L 172 3053 
L 172 3500 
L 594 3500 
L 594 4494 
L 1172 4494 
z
" transform="scale(0.015625)"/>
      <path id="DejaVuSans-64" d="M 2906 2969 
L 2906 4863 
L 3481 4863 
L 3481 0 
L 2906 0 
L 2906 525 
Q 2725 213 2448 61 
Q 2172 -91 1784 -91 
Q 1150 -91 751 415 
Q 353 922 353 1747 
Q 353 2572 751 3078 
Q 1150 3584 1784 3584 
Q 2172 3584 2448 3432 
Q 2725 3281 2906 2969 
z
M 947 1747 
Q 947 1113 1208 752 
Q 1469 391 1925 391 
Q 2381 391 2643 752 
Q 2906 1113 2906 1747 
Q 2906 2381 2643 2742 
Q 2381 3103 1925 3103 
Q 1469 3103 1208 2742 
Q 947 2381 947 1747 
z
" transform="scale(0.015625)"/>
      <path id="DejaVuSans-62" d="M 3116 1747 
Q 3116 2381 2855 2742 
Q 2594 3103 2138 3103 
Q 1681 3103 1420 2742 
Q 1159 2381 1159 1747 
Q 1159 1113 1420 752 
Q 1681 391 2138 391 
Q 2594 391 2855 752 
Q 3116 1113 3116 1747 
z
M 1159 2969 
Q 1341 3281 1617 3432 
Q 1894 3584 2278 3584 
Q 2916 3584 3314 3078 
Q 3713 2572 3713 1747 
Q 3713 922 3314 415 
Q 2916 -91 2278 -91 
Q 1894 -91 1617 61 
Q 1341 213 1159 525 
L 1159 0 
L 581 0 
L 581 4863 
L 1159 4863 
L 1159 2969 
z
" transform="scale(0.015625)"/>
      <path id="DejaVuSans-63" d="M 3122 3366 
L 3122 2828 
Q 2878 2963 2633 3030 
Q 2388 3097 2138 3097 
Q 1578 3097 1268 2742 
Q 959 2388 959 1747 
Q 959 1106 1268 751 
Q 1578 397 2138 397 
Q 2388 397 2633 464 
Q 2878 531 3122 666 
L 3122 134 
Q 2881 22 2623 -34 
Q 2366 -91 2075 -91 
Q 1284 -91 818 406 
Q 353 903 353 1747 
Q 353 2603 823 3093 
Q 1294 3584 2113 3584 
Q 2378 3584 2631 3529 
Q 2884 3475 3122 3366 
z
" transform="scale(0.015625)"/>
      <path id="DejaVuSans-75" d="M 544 1381 
L 544 3500 
L 1119 3500 
L 1119 1403 
Q 1119 906 1312 657 
Q 1506 409 1894 409 
Q 2359 409 2629 706 
Q 2900 1003 2900 1516 
L 2900 3500 
L 3475 3500 
L 3475 0 
L 2900 0 
L 2900 538 
Q 2691 219 2414 64 
Q 2138 -91 1772 -91 
Q 1169 -91 856 284 
Q 544 659 544 1381 
z
M 1991 3584 
L 1991 3584 
z
" transform="scale(0.015625)"/>
      <path id="DejaVuSans-73" d="M 2834 3397 
L 2834 2853 
Q 2591 2978 2328 3040 
Q 2066 3103 1784 3103 
Q 1356 3103 1142 2972 
Q 928 2841 928 2578 
Q 928 2378 1081 2264 
Q 1234 2150 1697 2047 
L 1894 2003 
Q 2506 1872 2764 1633 
Q 3022 1394 3022 966 
Q 3022 478 2636 193 
Q 2250 -91 1575 -91 
Q 1294 -91 989 -36 
Q 684 19 347 128 
L 347 722 
Q 666 556 975 473 
Q 1284 391 1588 391 
Q 1994 391 2212 530 
Q 2431 669 2431 922 
Q 2431 1156 2273 1281 
Q 2116 1406 1581 1522 
L 1381 1569 
Q 847 1681 609 1914 
Q 372 2147 372 2553 
Q 372 3047 722 3315 
Q 1072 3584 1716 3584 
Q 2034 3584 2315 3537 
Q 2597 3491 2834 3397 
z
" transform="scale(0.015625)"/>
     </defs>
     <use xlink:href="#DejaVuSans-31"/>
     <use xlink:href="#DejaVuSans-66" x="63.623047"/>
     <use xlink:href="#DejaVuSans-69" x="98.828125"/>
     <use xlink:href="#DejaVuSans-6e" x="126.611328"/>
     <use xlink:href="#DejaVuSans-61" x="189.990234"/>
     <use xlink:href="#DejaVuSans-6c" x="251.269531"/>
     <use xlink:href="#DejaVuSans-5f" x="279.052734"/>
     <use xlink:href="#DejaVuSans-77" x="329.052734"/>
     <use xlink:href="#DejaVuSans-65" x="410.839844"/>
     <use xlink:href="#DejaVuSans-69" x="472.363281"/>
     <use xlink:href="#DejaVuSans-67" x="500.146484"/>
     <use xlink:href="#DejaVuSans-68" x="563.623047"/>
     <use xlink:href="#DejaVuSans-74" x="627.001953"/>
     <use xlink:href="#DejaVuSans-65" x="666.210938"/>
     <use xlink:href="#DejaVuSans-64" x="727.734375"/>
     <use xlink:href="#DejaVuSans-5f" x="791.210938"/>
     <use xlink:href="#DejaVuSans-62" x="841.210938"/>
     <use xlink:href="#DejaVuSans-74" x="904.6875"/>
     <use xlink:href="#DejaVuSans-63" x="943.896484"/>
     <use xlink:href="#DejaVuSans-75" x="998.876953"/>
     <use xlink:href="#DejaVuSans-73" x="1062.255859"/>
     <use xlink:href="#DejaVuSans-64" x="1114.355469"/>
    </g>
   </g>
   <g id="legend_1">
    <g id="patch_7">
     <path d="M 64.6 302.584 
L 225.001563 302.584 
Q 227.001563 302.584 227.001563 300.584 
L 227.001563 213.51525 
Q 227.001563 211.51525 225.001563 211.51525 
L 64.6 211.51525 
Q 62.6 211.51525 62.6 213.51525 
L 62.6 300.584 
Q 62.6 302.584 64.6 302.584 
z
" style="fill: #ffffff; opacity: 0.8; stroke: #cccccc; stroke-linejoin: miter"/>
    </g>
    <g id="line2d_19">
     <path d="M 66.6 219.613687 
L 76.6 219.613687 
L 86.6 219.613687 
" style="fill: none; stroke: #008000; stroke-opacity: 0.8; stroke-width: 0.5; stroke-linecap: square"/>
    </g>
    <g id="text_14">
     <!-- Positive predictions -->
     <g transform="translate(94.6 223.113687) scale(0.1 -0.1)">
      <defs>
       <path id="DejaVuSans-50" d="M 1259 4147 
L 1259 2394 
L 2053 2394 
Q 2494 2394 2734 2622 
Q 2975 2850 2975 3272 
Q 2975 3691 2734 3919 
Q 2494 4147 2053 4147 
L 1259 4147 
z
M 628 4666 
L 2053 4666 
Q 2838 4666 3239 4311 
Q 3641 3956 3641 3272 
Q 3641 2581 3239 2228 
Q 2838 1875 2053 1875 
L 1259 1875 
L 1259 0 
L 628 0 
L 628 4666 
z
" transform="scale(0.015625)"/>
       <path id="DejaVuSans-6f" d="M 1959 3097 
Q 1497 3097 1228 2736 
Q 959 2375 959 1747 
Q 959 1119 1226 758 
Q 1494 397 1959 397 
Q 2419 397 2687 759 
Q 2956 1122 2956 1747 
Q 2956 2369 2687 2733 
Q 2419 3097 1959 3097 
z
M 1959 3584 
Q 2709 3584 3137 3096 
Q 3566 2609 3566 1747 
Q 3566 888 3137 398 
Q 2709 -91 1959 -91 
Q 1206 -91 779 398 
Q 353 888 353 1747 
Q 353 2609 779 3096 
Q 1206 3584 1959 3584 
z
" transform="scale(0.015625)"/>
       <path id="DejaVuSans-76" d="M 191 3500 
L 800 3500 
L 1894 563 
L 2988 3500 
L 3597 3500 
L 2284 0 
L 1503 0 
L 191 3500 
z
" transform="scale(0.015625)"/>
       <path id="DejaVuSans-20" transform="scale(0.015625)"/>
       <path id="DejaVuSans-70" d="M 1159 525 
L 1159 -1331 
L 581 -1331 
L 581 3500 
L 1159 3500 
L 1159 2969 
Q 1341 3281 1617 3432 
Q 1894 3584 2278 3584 
Q 2916 3584 3314 3078 
Q 3713 2572 3713 1747 
Q 3713 922 3314 415 
Q 2916 -91 2278 -91 
Q 1894 -91 1617 61 
Q 1341 213 1159 525 
z
M 3116 1747 
Q 3116 2381 2855 2742 
Q 2594 3103 2138 3103 
Q 1681 3103 1420 2742 
Q 1159 2381 1159 1747 
Q 1159 1113 1420 752 
Q 1681 391 2138 391 
Q 2594 391 2855 752 
Q 3116 1113 3116 1747 
z
" transform="scale(0.015625)"/>
       <path id="DejaVuSans-72" d="M 2631 2963 
Q 2534 3019 2420 3045 
Q 2306 3072 2169 3072 
Q 1681 3072 1420 2755 
Q 1159 2438 1159 1844 
L 1159 0 
L 581 0 
L 581 3500 
L 1159 3500 
L 1159 2956 
Q 1341 3275 1631 3429 
Q 1922 3584 2338 3584 
Q 2397 3584 2469 3576 
Q 2541 3569 2628 3553 
L 2631 2963 
z
" transform="scale(0.015625)"/>
      </defs>
      <use xlink:href="#DejaVuSans-50"/>
      <use xlink:href="#DejaVuSans-6f" x="56.677734"/>
      <use xlink:href="#DejaVuSans-73" x="117.859375"/>
      <use xlink:href="#DejaVuSans-69" x="169.958984"/>
      <use xlink:href="#DejaVuSans-74" x="197.742188"/>
      <use xlink:href="#DejaVuSans-69" x="236.951172"/>
      <use xlink:href="#DejaVuSans-76" x="264.734375"/>
      <use xlink:href="#DejaVuSans-65" x="323.914062"/>
      <use xlink:href="#DejaVuSans-20" x="385.4375"/>
      <use xlink:href="#DejaVuSans-70" x="417.224609"/>
      <use xlink:href="#DejaVuSans-72" x="480.701172"/>
      <use xlink:href="#DejaVuSans-65" x="519.564453"/>
      <use xlink:href="#DejaVuSans-64" x="581.087891"/>
      <use xlink:href="#DejaVuSans-69" x="644.564453"/>
      <use xlink:href="#DejaVuSans-63" x="672.347656"/>
      <use xlink:href="#DejaVuSans-74" x="727.328125"/>
      <use xlink:href="#DejaVuSans-69" x="766.537109"/>
      <use xlink:href="#DejaVuSans-6f" x="794.320312"/>
      <use xlink:href="#DejaVuSans-6e" x="855.501953"/>
      <use xlink:href="#DejaVuSans-73" x="918.880859"/>
     </g>
    </g>
    <g id="line2d_20">
     <path d="M 66.6 234.291812 
L 76.6 234.291812 
L 86.6 234.291812 
" style="fill: none; stroke: #32cd32; stroke-opacity: 0.8; stroke-width: 0.5; stroke-linecap: square"/>
    </g>
    <g id="text_15">
     <!-- Positive predictions max -->
     <g transform="translate(94.6 237.791812) scale(0.1 -0.1)">
      <defs>
       <path id="DejaVuSans-6d" d="M 3328 2828 
Q 3544 3216 3844 3400 
Q 4144 3584 4550 3584 
Q 5097 3584 5394 3201 
Q 5691 2819 5691 2113 
L 5691 0 
L 5113 0 
L 5113 2094 
Q 5113 2597 4934 2840 
Q 4756 3084 4391 3084 
Q 3944 3084 3684 2787 
Q 3425 2491 3425 1978 
L 3425 0 
L 2847 0 
L 2847 2094 
Q 2847 2600 2669 2842 
Q 2491 3084 2119 3084 
Q 1678 3084 1418 2786 
Q 1159 2488 1159 1978 
L 1159 0 
L 581 0 
L 581 3500 
L 1159 3500 
L 1159 2956 
Q 1356 3278 1631 3431 
Q 1906 3584 2284 3584 
Q 2666 3584 2933 3390 
Q 3200 3197 3328 2828 
z
" transform="scale(0.015625)"/>
       <path id="DejaVuSans-78" d="M 3513 3500 
L 2247 1797 
L 3578 0 
L 2900 0 
L 1881 1375 
L 863 0 
L 184 0 
L 1544 1831 
L 300 3500 
L 978 3500 
L 1906 2253 
L 2834 3500 
L 3513 3500 
z
" transform="scale(0.015625)"/>
      </defs>
      <use xlink:href="#DejaVuSans-50"/>
      <use xlink:href="#DejaVuSans-6f" x="56.677734"/>
      <use xlink:href="#DejaVuSans-73" x="117.859375"/>
      <use xlink:href="#DejaVuSans-69" x="169.958984"/>
      <use xlink:href="#DejaVuSans-74" x="197.742188"/>
      <use xlink:href="#DejaVuSans-69" x="236.951172"/>
      <use xlink:href="#DejaVuSans-76" x="264.734375"/>
      <use xlink:href="#DejaVuSans-65" x="323.914062"/>
      <use xlink:href="#DejaVuSans-20" x="385.4375"/>
      <use xlink:href="#DejaVuSans-70" x="417.224609"/>
      <use xlink:href="#DejaVuSans-72" x="480.701172"/>
      <use xlink:href="#DejaVuSans-65" x="519.564453"/>
      <use xlink:href="#DejaVuSans-64" x="581.087891"/>
      <use xlink:href="#DejaVuSans-69" x="644.564453"/>
      <use xlink:href="#DejaVuSans-63" x="672.347656"/>
      <use xlink:href="#DejaVuSans-74" x="727.328125"/>
      <use xlink:href="#DejaVuSans-69" x="766.537109"/>
      <use xlink:href="#DejaVuSans-6f" x="794.320312"/>
      <use xlink:href="#DejaVuSans-6e" x="855.501953"/>
      <use xlink:href="#DejaVuSans-73" x="918.880859"/>
      <use xlink:href="#DejaVuSans-20" x="970.980469"/>
      <use xlink:href="#DejaVuSans-6d" x="1002.767578"/>
      <use xlink:href="#DejaVuSans-61" x="1100.179688"/>
      <use xlink:href="#DejaVuSans-78" x="1161.458984"/>
     </g>
    </g>
    <g id="line2d_21">
     <path d="M 66.6 248.969937 
L 76.6 248.969937 
L 86.6 248.969937 
" style="fill: none; stroke: #32cd32; stroke-opacity: 0.8; stroke-width: 0.5; stroke-linecap: square"/>
    </g>
    <g id="text_16">
     <!-- Positive predictions min -->
     <g transform="translate(94.6 252.469937) scale(0.1 -0.1)">
      <use xlink:href="#DejaVuSans-50"/>
      <use xlink:href="#DejaVuSans-6f" x="56.677734"/>
      <use xlink:href="#DejaVuSans-73" x="117.859375"/>
      <use xlink:href="#DejaVuSans-69" x="169.958984"/>
      <use xlink:href="#DejaVuSans-74" x="197.742188"/>
      <use xlink:href="#DejaVuSans-69" x="236.951172"/>
      <use xlink:href="#DejaVuSans-76" x="264.734375"/>
      <use xlink:href="#DejaVuSans-65" x="323.914062"/>
      <use xlink:href="#DejaVuSans-20" x="385.4375"/>
      <use xlink:href="#DejaVuSans-70" x="417.224609"/>
      <use xlink:href="#DejaVuSans-72" x="480.701172"/>
      <use xlink:href="#DejaVuSans-65" x="519.564453"/>
      <use xlink:href="#DejaVuSans-64" x="581.087891"/>
      <use xlink:href="#DejaVuSans-69" x="644.564453"/>
      <use xlink:href="#DejaVuSans-63" x="672.347656"/>
      <use xlink:href="#DejaVuSans-74" x="727.328125"/>
      <use xlink:href="#DejaVuSans-69" x="766.537109"/>
      <use xlink:href="#DejaVuSans-6f" x="794.320312"/>
      <use xlink:href="#DejaVuSans-6e" x="855.501953"/>
      <use xlink:href="#DejaVuSans-73" x="918.880859"/>
      <use xlink:href="#DejaVuSans-20" x="970.980469"/>
      <use xlink:href="#DejaVuSans-6d" x="1002.767578"/>
      <use xlink:href="#DejaVuSans-69" x="1100.179688"/>
      <use xlink:href="#DejaVuSans-6e" x="1127.962891"/>
     </g>
    </g>
    <g id="line2d_22">
     <path d="M 66.6 263.648062 
L 76.6 263.648062 
L 86.6 263.648062 
" style="fill: none; stroke: #ff0000; stroke-opacity: 0.8; stroke-width: 0.5; stroke-linecap: square"/>
    </g>
    <g id="text_17">
     <!-- Negative predictions -->
     <g transform="translate(94.6 267.148062) scale(0.1 -0.1)">
      <defs>
       <path id="DejaVuSans-4e" d="M 628 4666 
L 1478 4666 
L 3547 763 
L 3547 4666 
L 4159 4666 
L 4159 0 
L 3309 0 
L 1241 3903 
L 1241 0 
L 628 0 
L 628 4666 
z
" transform="scale(0.015625)"/>
      </defs>
      <use xlink:href="#DejaVuSans-4e"/>
      <use xlink:href="#DejaVuSans-65" x="74.804688"/>
      <use xlink:href="#DejaVuSans-67" x="136.328125"/>
      <use xlink:href="#DejaVuSans-61" x="199.804688"/>
      <use xlink:href="#DejaVuSans-74" x="261.083984"/>
      <use xlink:href="#DejaVuSans-69" x="300.292969"/>
      <use xlink:href="#DejaVuSans-76" x="328.076172"/>
      <use xlink:href="#DejaVuSans-65" x="387.255859"/>
      <use xlink:href="#DejaVuSans-20" x="448.779297"/>
      <use xlink:href="#DejaVuSans-70" x="480.566406"/>
      <use xlink:href="#DejaVuSans-72" x="544.042969"/>
      <use xlink:href="#DejaVuSans-65" x="582.90625"/>
      <use xlink:href="#DejaVuSans-64" x="644.429688"/>
      <use xlink:href="#DejaVuSans-69" x="707.90625"/>
      <use xlink:href="#DejaVuSans-63" x="735.689453"/>
      <use xlink:href="#DejaVuSans-74" x="790.669922"/>
      <use xlink:href="#DejaVuSans-69" x="829.878906"/>
      <use xlink:href="#DejaVuSans-6f" x="857.662109"/>
      <use xlink:href="#DejaVuSans-6e" x="918.84375"/>
      <use xlink:href="#DejaVuSans-73" x="982.222656"/>
     </g>
    </g>
    <g id="line2d_23">
     <path d="M 66.6 278.326188 
L 76.6 278.326188 
L 86.6 278.326188 
" style="fill: none; stroke: #f08080; stroke-opacity: 0.8; stroke-width: 0.5; stroke-linecap: square"/>
    </g>
    <g id="text_18">
     <!-- Negative predictions max -->
     <g transform="translate(94.6 281.826188) scale(0.1 -0.1)">
      <use xlink:href="#DejaVuSans-4e"/>
      <use xlink:href="#DejaVuSans-65" x="74.804688"/>
      <use xlink:href="#DejaVuSans-67" x="136.328125"/>
      <use xlink:href="#DejaVuSans-61" x="199.804688"/>
      <use xlink:href="#DejaVuSans-74" x="261.083984"/>
      <use xlink:href="#DejaVuSans-69" x="300.292969"/>
      <use xlink:href="#DejaVuSans-76" x="328.076172"/>
      <use xlink:href="#DejaVuSans-65" x="387.255859"/>
      <use xlink:href="#DejaVuSans-20" x="448.779297"/>
      <use xlink:href="#DejaVuSans-70" x="480.566406"/>
      <use xlink:href="#DejaVuSans-72" x="544.042969"/>
      <use xlink:href="#DejaVuSans-65" x="582.90625"/>
      <use xlink:href="#DejaVuSans-64" x="644.429688"/>
      <use xlink:href="#DejaVuSans-69" x="707.90625"/>
      <use xlink:href="#DejaVuSans-63" x="735.689453"/>
      <use xlink:href="#DejaVuSans-74" x="790.669922"/>
      <use xlink:href="#DejaVuSans-69" x="829.878906"/>
      <use xlink:href="#DejaVuSans-6f" x="857.662109"/>
      <use xlink:href="#DejaVuSans-6e" x="918.84375"/>
      <use xlink:href="#DejaVuSans-73" x="982.222656"/>
      <use xlink:href="#DejaVuSans-20" x="1034.322266"/>
      <use xlink:href="#DejaVuSans-6d" x="1066.109375"/>
      <use xlink:href="#DejaVuSans-61" x="1163.521484"/>
      <use xlink:href="#DejaVuSans-78" x="1224.800781"/>
     </g>
    </g>
    <g id="line2d_24">
     <path d="M 66.6 293.004312 
L 76.6 293.004312 
L 86.6 293.004312 
" style="fill: none; stroke: #f08080; stroke-opacity: 0.8; stroke-width: 0.5; stroke-linecap: square"/>
    </g>
    <g id="text_19">
     <!-- Negative predictions min -->
     <g transform="translate(94.6 296.504312) scale(0.1 -0.1)">
      <use xlink:href="#DejaVuSans-4e"/>
      <use xlink:href="#DejaVuSans-65" x="74.804688"/>
      <use xlink:href="#DejaVuSans-67" x="136.328125"/>
      <use xlink:href="#DejaVuSans-61" x="199.804688"/>
      <use xlink:href="#DejaVuSans-74" x="261.083984"/>
      <use xlink:href="#DejaVuSans-69" x="300.292969"/>
      <use xlink:href="#DejaVuSans-76" x="328.076172"/>
      <use xlink:href="#DejaVuSans-65" x="387.255859"/>
      <use xlink:href="#DejaVuSans-20" x="448.779297"/>
      <use xlink:href="#DejaVuSans-70" x="480.566406"/>
      <use xlink:href="#DejaVuSans-72" x="544.042969"/>
      <use xlink:href="#DejaVuSans-65" x="582.90625"/>
      <use xlink:href="#DejaVuSans-64" x="644.429688"/>
      <use xlink:href="#DejaVuSans-69" x="707.90625"/>
      <use xlink:href="#DejaVuSans-63" x="735.689453"/>
      <use xlink:href="#DejaVuSans-74" x="790.669922"/>
      <use xlink:href="#DejaVuSans-69" x="829.878906"/>
      <use xlink:href="#DejaVuSans-6f" x="857.662109"/>
      <use xlink:href="#DejaVuSans-6e" x="918.84375"/>
      <use xlink:href="#DejaVuSans-73" x="982.222656"/>
      <use xlink:href="#DejaVuSans-20" x="1034.322266"/>
      <use xlink:href="#DejaVuSans-6d" x="1066.109375"/>
      <use xlink:href="#DejaVuSans-69" x="1163.521484"/>
      <use xlink:href="#DejaVuSans-6e" x="1191.304688"/>
     </g>
    </g>
   </g>
  </g>
 </g>
 <defs>
  <clipPath id="pa03dd46bb6">
   <rect x="57.6" y="41.472" width="357.12" height="266.112"/>
  </clipPath>
 </defs>
</svg>
