<?xml version="1.0" encoding="utf-8" standalone="no"?>
<!DOCTYPE svg PUBLIC "-//W3C//DTD SVG 1.1//EN"
  "http://www.w3.org/Graphics/SVG/1.1/DTD/svg11.dtd">
<svg xmlns:xlink="http://www.w3.org/1999/xlink" width="460.8pt" height="345.6pt" viewBox="0 0 460.8 345.6" xmlns="http://www.w3.org/2000/svg" version="1.1">
 <metadata>
  <rdf:RDF xmlns:dc="http://purl.org/dc/elements/1.1/" xmlns:cc="http://creativecommons.org/ns#" xmlns:rdf="http://www.w3.org/1999/02/22-rdf-syntax-ns#">
   <cc:Work>
    <dc:type rdf:resource="http://purl.org/dc/dcmitype/StillImage"/>
    <dc:date>2024-09-06T11:18:20.361747</dc:date>
    <dc:format>image/svg+xml</dc:format>
    <dc:creator>
     <cc:Agent>
      <dc:title>Matplotlib v3.9.0, https://matplotlib.org/</dc:title>
     </cc:Agent>
    </dc:creator>
   </cc:Work>
  </rdf:RDF>
 </metadata>
 <defs>
  <style type="text/css">*{stroke-linejoin: round; stroke-linecap: butt}</style>
 </defs>
 <g id="figure_1">
  <g id="patch_1">
   <path d="M 0 345.6 
L 460.8 345.6 
L 460.8 0 
L 0 0 
z
" style="fill: #ffffff"/>
  </g>
  <g id="axes_1">
   <g id="patch_2">
    <path d="M 57.6 307.584 
L 414.72 307.584 
L 414.72 41.472 
L 57.6 41.472 
z
" style="fill: #ffffff"/>
   </g>
   <g id="matplotlib.axis_1">
    <g id="xtick_1">
     <g id="line2d_1">
      <defs>
       <path id="m9e732a0aae" d="M 0 0 
L 0 3.5 
" style="stroke: #000000; stroke-width: 0.8"/>
      </defs>
      <g>
       <use xlink:href="#m9e732a0aae" x="73.832727" y="307.584" style="stroke: #000000; stroke-width: 0.8"/>
      </g>
     </g>
     <g id="text_1">
      <!-- 0 -->
      <g transform="translate(70.651477 322.182437) scale(0.1 -0.1)">
       <defs>
        <path id="DejaVuSans-30" d="M 2034 4250 
Q 1547 4250 1301 3770 
Q 1056 3291 1056 2328 
Q 1056 1369 1301 889 
Q 1547 409 2034 409 
Q 2525 409 2770 889 
Q 3016 1369 3016 2328 
Q 3016 3291 2770 3770 
Q 2525 4250 2034 4250 
z
M 2034 4750 
Q 2819 4750 3233 4129 
Q 3647 3509 3647 2328 
Q 3647 1150 3233 529 
Q 2819 -91 2034 -91 
Q 1250 -91 836 529 
Q 422 1150 422 2328 
Q 422 3509 836 4129 
Q 1250 4750 2034 4750 
z
" transform="scale(0.015625)"/>
       </defs>
       <use xlink:href="#DejaVuSans-30"/>
      </g>
     </g>
    </g>
    <g id="xtick_2">
     <g id="line2d_2">
      <g>
       <use xlink:href="#m9e732a0aae" x="149.333784" y="307.584" style="stroke: #000000; stroke-width: 0.8"/>
      </g>
     </g>
     <g id="text_2">
      <!-- 50 -->
      <g transform="translate(142.971284 322.182437) scale(0.1 -0.1)">
       <defs>
        <path id="DejaVuSans-35" d="M 691 4666 
L 3169 4666 
L 3169 4134 
L 1269 4134 
L 1269 2991 
Q 1406 3038 1543 3061 
Q 1681 3084 1819 3084 
Q 2600 3084 3056 2656 
Q 3513 2228 3513 1497 
Q 3513 744 3044 326 
Q 2575 -91 1722 -91 
Q 1428 -91 1123 -41 
Q 819 9 494 109 
L 494 744 
Q 775 591 1075 516 
Q 1375 441 1709 441 
Q 2250 441 2565 725 
Q 2881 1009 2881 1497 
Q 2881 1984 2565 2268 
Q 2250 2553 1709 2553 
Q 1456 2553 1204 2497 
Q 953 2441 691 2322 
L 691 4666 
z
" transform="scale(0.015625)"/>
       </defs>
       <use xlink:href="#DejaVuSans-35"/>
       <use xlink:href="#DejaVuSans-30" x="63.623047"/>
      </g>
     </g>
    </g>
    <g id="xtick_3">
     <g id="line2d_3">
      <g>
       <use xlink:href="#m9e732a0aae" x="224.834841" y="307.584" style="stroke: #000000; stroke-width: 0.8"/>
      </g>
     </g>
     <g id="text_3">
      <!-- 100 -->
      <g transform="translate(215.291091 322.182437) scale(0.1 -0.1)">
       <defs>
        <path id="DejaVuSans-31" d="M 794 531 
L 1825 531 
L 1825 4091 
L 703 3866 
L 703 4441 
L 1819 4666 
L 2450 4666 
L 2450 531 
L 3481 531 
L 3481 0 
L 794 0 
L 794 531 
z
" transform="scale(0.015625)"/>
       </defs>
       <use xlink:href="#DejaVuSans-31"/>
       <use xlink:href="#DejaVuSans-30" x="63.623047"/>
       <use xlink:href="#DejaVuSans-30" x="127.246094"/>
      </g>
     </g>
    </g>
    <g id="xtick_4">
     <g id="line2d_4">
      <g>
       <use xlink:href="#m9e732a0aae" x="300.335899" y="307.584" style="stroke: #000000; stroke-width: 0.8"/>
      </g>
     </g>
     <g id="text_4">
      <!-- 150 -->
      <g transform="translate(290.792149 322.182437) scale(0.1 -0.1)">
       <use xlink:href="#DejaVuSans-31"/>
       <use xlink:href="#DejaVuSans-35" x="63.623047"/>
       <use xlink:href="#DejaVuSans-30" x="127.246094"/>
      </g>
     </g>
    </g>
    <g id="xtick_5">
     <g id="line2d_5">
      <g>
       <use xlink:href="#m9e732a0aae" x="375.836956" y="307.584" style="stroke: #000000; stroke-width: 0.8"/>
      </g>
     </g>
     <g id="text_5">
      <!-- 200 -->
      <g transform="translate(366.293206 322.182437) scale(0.1 -0.1)">
       <defs>
        <path id="DejaVuSans-32" d="M 1228 531 
L 3431 531 
L 3431 0 
L 469 0 
L 469 531 
Q 828 903 1448 1529 
Q 2069 2156 2228 2338 
Q 2531 2678 2651 2914 
Q 2772 3150 2772 3378 
Q 2772 3750 2511 3984 
Q 2250 4219 1831 4219 
Q 1534 4219 1204 4116 
Q 875 4013 500 3803 
L 500 4441 
Q 881 4594 1212 4672 
Q 1544 4750 1819 4750 
Q 2544 4750 2975 4387 
Q 3406 4025 3406 3419 
Q 3406 3131 3298 2873 
Q 3191 2616 2906 2266 
Q 2828 2175 2409 1742 
Q 1991 1309 1228 531 
z
" transform="scale(0.015625)"/>
       </defs>
       <use xlink:href="#DejaVuSans-32"/>
       <use xlink:href="#DejaVuSans-30" x="63.623047"/>
       <use xlink:href="#DejaVuSans-30" x="127.246094"/>
      </g>
     </g>
    </g>
   </g>
   <g id="matplotlib.axis_2">
    <g id="ytick_1">
     <g id="line2d_6">
      <defs>
       <path id="mdae421da92" d="M 0 0 
L -3.5 0 
" style="stroke: #000000; stroke-width: 0.8"/>
      </defs>
      <g>
       <use xlink:href="#mdae421da92" x="57.6" y="275.610834" style="stroke: #000000; stroke-width: 0.8"/>
      </g>
     </g>
     <g id="text_6">
      <!-- −6000 -->
      <g transform="translate(16.770313 279.410052) scale(0.1 -0.1)">
       <defs>
        <path id="DejaVuSans-2212" d="M 678 2272 
L 4684 2272 
L 4684 1741 
L 678 1741 
L 678 2272 
z
" transform="scale(0.015625)"/>
        <path id="DejaVuSans-36" d="M 2113 2584 
Q 1688 2584 1439 2293 
Q 1191 2003 1191 1497 
Q 1191 994 1439 701 
Q 1688 409 2113 409 
Q 2538 409 2786 701 
Q 3034 994 3034 1497 
Q 3034 2003 2786 2293 
Q 2538 2584 2113 2584 
z
M 3366 4563 
L 3366 3988 
Q 3128 4100 2886 4159 
Q 2644 4219 2406 4219 
Q 1781 4219 1451 3797 
Q 1122 3375 1075 2522 
Q 1259 2794 1537 2939 
Q 1816 3084 2150 3084 
Q 2853 3084 3261 2657 
Q 3669 2231 3669 1497 
Q 3669 778 3244 343 
Q 2819 -91 2113 -91 
Q 1303 -91 875 529 
Q 447 1150 447 2328 
Q 447 3434 972 4092 
Q 1497 4750 2381 4750 
Q 2619 4750 2861 4703 
Q 3103 4656 3366 4563 
z
" transform="scale(0.015625)"/>
       </defs>
       <use xlink:href="#DejaVuSans-2212"/>
       <use xlink:href="#DejaVuSans-36" x="83.789062"/>
       <use xlink:href="#DejaVuSans-30" x="147.412109"/>
       <use xlink:href="#DejaVuSans-30" x="211.035156"/>
       <use xlink:href="#DejaVuSans-30" x="274.658203"/>
      </g>
     </g>
    </g>
    <g id="ytick_2">
     <g id="line2d_7">
      <g>
       <use xlink:href="#mdae421da92" x="57.6" y="243.09401" style="stroke: #000000; stroke-width: 0.8"/>
      </g>
     </g>
     <g id="text_7">
      <!-- −4000 -->
      <g transform="translate(16.770313 246.893228) scale(0.1 -0.1)">
       <defs>
        <path id="DejaVuSans-34" d="M 2419 4116 
L 825 1625 
L 2419 1625 
L 2419 4116 
z
M 2253 4666 
L 3047 4666 
L 3047 1625 
L 3713 1625 
L 3713 1100 
L 3047 1100 
L 3047 0 
L 2419 0 
L 2419 1100 
L 313 1100 
L 313 1709 
L 2253 4666 
z
" transform="scale(0.015625)"/>
       </defs>
       <use xlink:href="#DejaVuSans-2212"/>
       <use xlink:href="#DejaVuSans-34" x="83.789062"/>
       <use xlink:href="#DejaVuSans-30" x="147.412109"/>
       <use xlink:href="#DejaVuSans-30" x="211.035156"/>
       <use xlink:href="#DejaVuSans-30" x="274.658203"/>
      </g>
     </g>
    </g>
    <g id="ytick_3">
     <g id="line2d_8">
      <g>
       <use xlink:href="#mdae421da92" x="57.6" y="210.577185" style="stroke: #000000; stroke-width: 0.8"/>
      </g>
     </g>
     <g id="text_8">
      <!-- −2000 -->
      <g transform="translate(16.770313 214.376404) scale(0.1 -0.1)">
       <use xlink:href="#DejaVuSans-2212"/>
       <use xlink:href="#DejaVuSans-32" x="83.789062"/>
       <use xlink:href="#DejaVuSans-30" x="147.412109"/>
       <use xlink:href="#DejaVuSans-30" x="211.035156"/>
       <use xlink:href="#DejaVuSans-30" x="274.658203"/>
      </g>
     </g>
    </g>
    <g id="ytick_4">
     <g id="line2d_9">
      <g>
       <use xlink:href="#mdae421da92" x="57.6" y="178.060361" style="stroke: #000000; stroke-width: 0.8"/>
      </g>
     </g>
     <g id="text_9">
      <!-- 0 -->
      <g transform="translate(44.2375 181.85958) scale(0.1 -0.1)">
       <use xlink:href="#DejaVuSans-30"/>
      </g>
     </g>
    </g>
    <g id="ytick_5">
     <g id="line2d_10">
      <g>
       <use xlink:href="#mdae421da92" x="57.6" y="145.543537" style="stroke: #000000; stroke-width: 0.8"/>
      </g>
     </g>
     <g id="text_10">
      <!-- 2000 -->
      <g transform="translate(25.15 149.342756) scale(0.1 -0.1)">
       <use xlink:href="#DejaVuSans-32"/>
       <use xlink:href="#DejaVuSans-30" x="63.623047"/>
       <use xlink:href="#DejaVuSans-30" x="127.246094"/>
       <use xlink:href="#DejaVuSans-30" x="190.869141"/>
      </g>
     </g>
    </g>
    <g id="ytick_6">
     <g id="line2d_11">
      <g>
       <use xlink:href="#mdae421da92" x="57.6" y="113.026713" style="stroke: #000000; stroke-width: 0.8"/>
      </g>
     </g>
     <g id="text_11">
      <!-- 4000 -->
      <g transform="translate(25.15 116.825931) scale(0.1 -0.1)">
       <use xlink:href="#DejaVuSans-34"/>
       <use xlink:href="#DejaVuSans-30" x="63.623047"/>
       <use xlink:href="#DejaVuSans-30" x="127.246094"/>
       <use xlink:href="#DejaVuSans-30" x="190.869141"/>
      </g>
     </g>
    </g>
    <g id="ytick_7">
     <g id="line2d_12">
      <g>
       <use xlink:href="#mdae421da92" x="57.6" y="80.509888" style="stroke: #000000; stroke-width: 0.8"/>
      </g>
     </g>
     <g id="text_12">
      <!-- 6000 -->
      <g transform="translate(25.15 84.309107) scale(0.1 -0.1)">
       <use xlink:href="#DejaVuSans-36"/>
       <use xlink:href="#DejaVuSans-30" x="63.623047"/>
       <use xlink:href="#DejaVuSans-30" x="127.246094"/>
       <use xlink:href="#DejaVuSans-30" x="190.869141"/>
      </g>
     </g>
    </g>
    <g id="ytick_8">
     <g id="line2d_13">
      <g>
       <use xlink:href="#mdae421da92" x="57.6" y="47.993064" style="stroke: #000000; stroke-width: 0.8"/>
      </g>
     </g>
     <g id="text_13">
      <!-- 8000 -->
      <g transform="translate(25.15 51.792283) scale(0.1 -0.1)">
       <defs>
        <path id="DejaVuSans-38" d="M 2034 2216 
Q 1584 2216 1326 1975 
Q 1069 1734 1069 1313 
Q 1069 891 1326 650 
Q 1584 409 2034 409 
Q 2484 409 2743 651 
Q 3003 894 3003 1313 
Q 3003 1734 2745 1975 
Q 2488 2216 2034 2216 
z
M 1403 2484 
Q 997 2584 770 2862 
Q 544 3141 544 3541 
Q 544 4100 942 4425 
Q 1341 4750 2034 4750 
Q 2731 4750 3128 4425 
Q 3525 4100 3525 3541 
Q 3525 3141 3298 2862 
Q 3072 2584 2669 2484 
Q 3125 2378 3379 2068 
Q 3634 1759 3634 1313 
Q 3634 634 3220 271 
Q 2806 -91 2034 -91 
Q 1263 -91 848 271 
Q 434 634 434 1313 
Q 434 1759 690 2068 
Q 947 2378 1403 2484 
z
M 1172 3481 
Q 1172 3119 1398 2916 
Q 1625 2713 2034 2713 
Q 2441 2713 2670 2916 
Q 2900 3119 2900 3481 
Q 2900 3844 2670 4047 
Q 2441 4250 2034 4250 
Q 1625 4250 1398 4047 
Q 1172 3844 1172 3481 
z
" transform="scale(0.015625)"/>
       </defs>
       <use xlink:href="#DejaVuSans-38"/>
       <use xlink:href="#DejaVuSans-30" x="63.623047"/>
       <use xlink:href="#DejaVuSans-30" x="127.246094"/>
       <use xlink:href="#DejaVuSans-30" x="190.869141"/>
      </g>
     </g>
    </g>
   </g>
   <g id="line2d_14">
    <path d="M 73.832727 178.053556 
L 75.342748 180.574007 
L 76.85277 179.808988 
L 78.362791 174.871648 
L 79.872812 177.633613 
L 81.382833 175.463816 
L 82.892854 178.65442 
L 84.402875 182.660768 
L 85.912896 179.098653 
L 87.422918 176.628029 
L 88.932939 177.503642 
L 90.44296 177.144426 
L 91.952981 179.486794 
L 93.463002 177.456176 
L 94.973023 177.369075 
L 96.483044 180.488117 
L 97.993066 179.853451 
L 99.503087 178.750696 
L 101.013108 175.482177 
L 102.523129 179.315099 
L 104.03315 181.28532 
L 105.543171 177.162337 
L 107.053192 178.358792 
L 108.563214 179.399334 
L 110.073235 177.353524 
L 113.093277 177.610336 
L 114.603298 177.841866 
L 117.62334 175.375574 
L 119.133362 178.818254 
L 120.643383 178.520644 
L 122.153404 180.288719 
L 123.663425 178.848907 
L 125.173446 178.267244 
L 126.683467 178.59682 
L 128.193488 178.6112 
L 129.70351 179.011864 
L 131.213531 179.243303 
L 132.723552 178.672755 
L 134.233573 178.309885 
L 135.743594 178.327261 
L 137.253615 180.126904 
L 138.763636 178.358941 
L 140.273658 178.436432 
L 141.783679 178.909946 
L 143.2937 181.361786 
L 144.803721 177.835827 
L 146.313742 176.985171 
L 147.823763 179.509298 
L 149.333784 180.360943 
L 150.843805 177.402062 
L 152.353827 176.062723 
L 153.863848 176.096027 
L 155.373869 179.077685 
L 156.88389 177.684722 
L 158.393911 176.494496 
L 159.903932 177.308319 
L 161.413953 177.274015 
L 162.923975 177.367011 
L 164.433996 175.30621 
L 165.944017 177.486865 
L 167.454038 178.457476 
L 168.964059 178.987071 
L 170.47408 176.881649 
L 171.984101 175.189812 
L 173.494123 177.425578 
L 175.004144 177.919331 
L 178.024186 178.003152 
L 179.534207 179.176208 
L 181.044228 178.468023 
L 182.554249 178.508082 
L 184.064271 179.306487 
L 185.574292 176.513207 
L 187.084313 175.792289 
L 188.594334 176.815679 
L 190.104355 175.038747 
L 191.614376 178.205713 
L 193.124397 179.39938 
L 194.634419 177.78688 
L 196.14444 180.285877 
L 197.654461 178.670828 
L 199.164482 177.957241 
L 200.674503 177.450773 
L 202.184524 178.35499 
L 203.694545 176.988063 
L 205.204567 177.303714 
L 206.714588 177.991643 
L 208.224609 177.568355 
L 209.73463 180.786805 
L 211.244651 178.51352 
L 212.754672 178.834519 
L 214.264693 176.605242 
L 215.774715 176.130894 
L 217.284736 179.491779 
L 218.794757 177.660901 
L 220.304778 177.563457 
L 224.834841 181.740765 
L 226.344863 178.02955 
L 227.854884 181.517974 
L 229.364905 178.404609 
L 230.874926 178.459993 
L 232.384947 185.979306 
L 233.894968 187.849668 
L 235.404989 186.784577 
L 236.915011 165.308832 
L 238.425032 185.52158 
L 239.935053 191.67106 
L 241.445074 177.131399 
L 242.955095 175.846561 
L 244.465116 187.856899 
L 245.975137 168.422768 
L 247.485159 186.912641 
L 248.99518 181.847828 
L 250.505201 154.140046 
L 252.015222 180.083676 
L 253.525243 169.921557 
L 255.035264 156.711472 
L 256.545285 178.616103 
L 258.055307 176.504422 
L 259.565328 167.01553 
L 261.075349 176.824684 
L 262.58537 171.819018 
L 264.095391 177.37686 
L 265.605412 184.489879 
L 268.625455 182.347005 
L 270.135476 174.142109 
L 271.645497 170.367215 
L 273.155518 168.405403 
L 274.665539 188.846455 
L 276.17556 191.258179 
L 277.685581 183.693525 
L 279.195603 173.86639 
L 280.705624 181.01444 
L 282.215645 166.656557 
L 283.725666 171.780185 
L 285.235687 159.736665 
L 286.745708 174.103223 
L 288.255729 176.892678 
L 289.765751 167.238364 
L 291.275772 175.847665 
L 292.785793 170.580755 
L 294.295814 186.410323 
L 295.805835 169.025574 
L 297.315856 182.095406 
L 298.825877 170.247353 
L 300.335899 180.064357 
L 301.84592 187.830596 
L 303.355941 168.255891 
L 304.865962 174.839116 
L 306.375983 172.420805 
L 307.886004 162.417797 
L 309.396025 175.79851 
L 310.906047 175.522332 
L 312.416068 177.771203 
L 313.926089 158.194289 
L 315.43611 179.705235 
L 316.946131 181.125504 
L 318.456152 178.670441 
L 319.966173 180.16935 
L 321.476195 175.558234 
L 322.986216 177.591851 
L 324.496237 172.059635 
L 326.006258 176.642995 
L 327.516279 178.519652 
L 329.0263 175.119831 
L 330.536321 179.09783 
L 332.046342 174.501167 
L 333.556364 179.971772 
L 335.066385 178.702268 
L 336.576406 169.462266 
L 338.086427 178.112459 
L 339.596448 179.007507 
L 341.106469 179.011193 
L 342.61649 174.586201 
L 344.126512 179.846678 
L 345.636533 187.339687 
L 347.146554 180.475768 
L 348.656575 179.021884 
L 350.166596 173.589717 
L 351.676617 180.737659 
L 353.186638 173.821963 
L 354.69666 179.832216 
L 356.206681 182.425512 
L 357.716702 177.605969 
L 359.226723 181.463275 
L 360.736744 171.728884 
L 362.246765 178.548006 
L 363.756786 173.278042 
L 365.266808 175.743471 
L 366.776829 177.913054 
L 368.28685 173.707226 
L 369.796871 185.012544 
L 371.306892 178.167788 
L 372.816913 177.751593 
L 374.326934 173.826036 
L 375.836956 175.922092 
L 377.346977 176.974206 
L 378.856998 171.642746 
L 380.367019 177.376082 
L 381.87704 176.479958 
L 383.387061 181.030717 
L 384.897082 179.391642 
L 386.407104 175.6641 
L 387.917125 181.937649 
L 389.427146 185.97876 
L 390.937167 181.136154 
L 392.447188 176.680449 
L 393.957209 177.474799 
L 395.46723 186.825274 
L 396.977252 175.426045 
L 398.487273 174.039345 
L 398.487273 174.039345 
" clip-path="url(#p4cee819d4b)" style="fill: none; stroke: #008000; stroke-opacity: 0.8; stroke-width: 0.5; stroke-linecap: square"/>
   </g>
   <g id="line2d_15">
    <path d="M 73.832727 156.013023 
L 75.342748 166.66743 
L 76.85277 152.175349 
L 78.362791 164.174058 
L 79.872812 167.966456 
L 81.382833 163.956912 
L 82.892854 170.117041 
L 84.402875 173.841203 
L 85.912896 157.994408 
L 87.422918 167.248021 
L 88.932939 166.015444 
L 90.44296 168.045356 
L 91.952981 174.688864 
L 93.463002 167.841438 
L 94.973023 167.103443 
L 96.483044 174.935937 
L 97.993066 169.688692 
L 99.503087 170.873235 
L 101.013108 169.978882 
L 104.03315 175.638807 
L 105.543171 172.568111 
L 107.053192 175.189887 
L 108.563214 176.362791 
L 110.073235 174.929232 
L 111.583256 174.265451 
L 113.093277 175.22971 
L 114.603298 176.02947 
L 116.113319 169.68864 
L 117.62334 166.386016 
L 119.133362 173.180298 
L 120.643383 174.71777 
L 122.153404 174.915841 
L 123.663425 175.547102 
L 125.173446 172.106678 
L 126.683467 176.96189 
L 128.193488 177.214051 
L 129.70351 177.12242 
L 131.213531 172.723624 
L 132.723552 176.732729 
L 134.233573 175.859365 
L 135.743594 175.913579 
L 137.253615 176.14622 
L 138.763636 172.808163 
L 140.273658 175.157416 
L 141.783679 175.286452 
L 143.2937 172.08394 
L 144.803721 170.369541 
L 146.313742 167.118714 
L 147.823763 174.904419 
L 149.333784 172.041643 
L 150.843805 145.712832 
L 152.353827 161.425441 
L 153.863848 152.765811 
L 155.373869 172.976063 
L 158.393911 162.361989 
L 159.903932 169.043042 
L 161.413953 172.83777 
L 162.923975 173.641388 
L 164.433996 161.434761 
L 165.944017 172.344839 
L 167.454038 173.882008 
L 168.964059 167.31323 
L 170.47408 171.389803 
L 171.984101 170.784134 
L 173.494123 170.684736 
L 175.004144 174.328243 
L 176.514165 171.604486 
L 178.024186 174.751123 
L 179.534207 174.926505 
L 181.044228 174.860106 
L 182.554249 172.358907 
L 184.064271 174.46601 
L 185.574292 168.535867 
L 187.084313 170.320587 
L 188.594334 163.366622 
L 190.104355 129.564123 
L 191.614376 172.940437 
L 193.124397 176.317127 
L 194.634419 169.89494 
L 196.14444 171.589015 
L 197.654461 172.575116 
L 199.164482 165.043997 
L 200.674503 169.456485 
L 202.184524 167.886675 
L 203.694545 169.850018 
L 205.204567 171.532034 
L 206.714588 175.784291 
L 208.224609 175.683428 
L 209.73463 175.751511 
L 211.244651 165.572716 
L 212.754672 169.664461 
L 214.264693 171.800022 
L 215.774715 157.918965 
L 217.284736 173.484084 
L 218.794757 169.188642 
L 220.304778 174.250087 
L 221.814799 175.194124 
L 223.32482 175.259651 
L 226.344863 165.167007 
L 227.854884 170.344861 
L 229.364905 151.411178 
L 230.874926 163.117763 
L 232.384947 166.603088 
L 233.894968 162.71182 
L 235.404989 128.830263 
L 236.915011 100.24539 
L 238.425032 142.242308 
L 239.935053 150.738015 
L 241.445074 86.828309 
L 242.955095 133.465934 
L 244.465116 117.242834 
L 245.975137 123.862991 
L 247.485159 147.619901 
L 248.99518 137.481299 
L 250.505201 103.676408 
L 252.015222 109.230582 
L 253.525243 53.568 
L 255.035264 80.622737 
L 256.545285 130.224448 
L 258.055307 139.638929 
L 259.565328 108.811519 
L 261.075349 129.699869 
L 262.58537 152.805832 
L 264.095391 156.094731 
L 265.605412 145.766097 
L 267.115433 154.634164 
L 268.625455 153.032092 
L 270.135476 140.645369 
L 271.645497 82.686673 
L 273.155518 103.940228 
L 274.665539 144.336725 
L 276.17556 151.846941 
L 277.685581 119.963142 
L 279.195603 131.426708 
L 280.705624 140.86611 
L 282.215645 117.811167 
L 283.725666 118.73674 
L 285.235687 101.589549 
L 286.745708 124.459446 
L 288.255729 130.552449 
L 289.765751 140.337088 
L 291.275772 151.514234 
L 292.785793 105.070495 
L 294.295814 149.610478 
L 295.805835 117.715733 
L 297.315856 149.583512 
L 298.825877 119.874676 
L 300.335899 160.123922 
L 301.84592 170.388151 
L 303.355941 135.927329 
L 304.865962 135.42544 
L 306.375983 141.145006 
L 307.886004 112.892292 
L 309.396025 145.327607 
L 310.906047 160.197684 
L 312.416068 145.688277 
L 313.926089 105.050266 
L 315.43611 166.140431 
L 316.946131 169.93892 
L 318.456152 160.113081 
L 319.966173 158.568665 
L 321.476195 170.105432 
L 322.986216 164.745826 
L 324.496237 141.111139 
L 326.006258 158.824688 
L 327.516279 144.026437 
L 329.0263 162.211859 
L 330.536321 171.664786 
L 332.046342 167.29171 
L 333.556364 171.872422 
L 335.066385 172.770888 
L 336.576406 132.147848 
L 338.086427 166.897254 
L 339.596448 172.119556 
L 341.106469 171.493438 
L 342.61649 163.461334 
L 345.636533 181.400752 
L 347.146554 166.559002 
L 348.656575 165.026175 
L 350.166596 157.036196 
L 351.676617 168.135318 
L 353.186638 157.190713 
L 354.69666 153.308784 
L 356.206681 164.483104 
L 357.716702 161.092159 
L 359.226723 173.35846 
L 360.736744 154.525643 
L 362.246765 157.048138 
L 363.756786 163.863237 
L 365.266808 165.795835 
L 366.776829 168.396861 
L 368.28685 152.924304 
L 369.796871 166.426874 
L 371.306892 170.370783 
L 372.816913 166.28415 
L 374.326934 161.441264 
L 375.836956 160.626088 
L 377.346977 171.812126 
L 378.856998 142.335846 
L 380.367019 154.096753 
L 381.87704 164.480702 
L 383.387061 166.286333 
L 384.897082 170.102242 
L 386.407104 168.069316 
L 387.917125 174.107323 
L 390.937167 169.012097 
L 392.447188 150.756161 
L 393.957209 148.404118 
L 395.46723 168.192841 
L 396.977252 135.193582 
L 398.487273 158.655449 
L 398.487273 158.655449 
" clip-path="url(#p4cee819d4b)" style="fill: none; stroke: #32cd32; stroke-opacity: 0.8; stroke-width: 0.5; stroke-linecap: square"/>
   </g>
   <g id="line2d_16">
    <path d="M 73.832727 200.21348 
L 75.342748 194.991329 
L 76.85277 197.180152 
L 78.362791 193.919124 
L 79.872812 183.487662 
L 81.382833 183.385106 
L 82.892854 185.963781 
L 84.402875 196.512848 
L 85.912896 196.726932 
L 87.422918 184.304598 
L 88.932939 183.646638 
L 90.44296 185.80441 
L 91.952981 184.671442 
L 93.463002 184.804271 
L 96.483044 185.644617 
L 97.993066 189.044328 
L 99.503087 187.894092 
L 101.013108 180.427826 
L 102.523129 189.491065 
L 104.03315 187.961897 
L 105.543171 181.518668 
L 107.053192 183.372818 
L 108.563214 182.254554 
L 110.073235 180.871574 
L 111.583256 184.148767 
L 113.093277 179.439815 
L 114.603298 179.983482 
L 116.113319 179.408327 
L 117.62334 181.842107 
L 119.133362 186.941364 
L 120.643383 182.166203 
L 122.153404 184.628796 
L 123.663425 183.188604 
L 125.173446 183.444022 
L 126.683467 180.599343 
L 128.193488 179.421583 
L 129.70351 183.111281 
L 131.213531 184.109253 
L 132.723552 180.850592 
L 134.233573 180.625256 
L 135.743594 180.170091 
L 137.253615 191.371101 
L 138.763636 181.266978 
L 141.783679 181.918302 
L 143.2937 193.016597 
L 144.803721 193.989316 
L 146.313742 186.86654 
L 147.823763 189.643669 
L 149.333784 186.100934 
L 150.843805 199.812843 
L 152.353827 189.93416 
L 153.863848 191.901814 
L 155.373869 186.99018 
L 156.88389 189.89932 
L 158.393911 186.354859 
L 159.903932 186.638672 
L 161.413953 181.925186 
L 162.923975 180.582095 
L 164.433996 182.146637 
L 165.944017 183.200663 
L 167.454038 183.234133 
L 168.964059 195.685567 
L 170.47408 182.01202 
L 171.984101 179.868535 
L 173.494123 184.174389 
L 175.004144 182.348343 
L 176.514165 189.336636 
L 178.024186 185.373142 
L 179.534207 184.661071 
L 181.044228 187.385997 
L 182.554249 184.092689 
L 184.064271 185.939872 
L 185.574292 186.17572 
L 187.084313 181.123493 
L 188.594334 183.749989 
L 190.104355 192.87411 
L 191.614376 186.998971 
L 193.124397 186.803638 
L 194.634419 184.340596 
L 196.14444 193.481778 
L 197.654461 189.155252 
L 199.164482 186.199446 
L 200.674503 184.340318 
L 202.184524 188.139607 
L 203.694545 179.82238 
L 205.204567 183.998256 
L 208.224609 179.264589 
L 209.73463 195.959328 
L 211.244651 187.57994 
L 212.754672 182.411563 
L 214.264693 180.676506 
L 215.774715 183.064851 
L 217.284736 184.616672 
L 218.794757 185.324954 
L 220.304778 180.520994 
L 221.814799 182.46403 
L 223.32482 192.004331 
L 224.834841 200.688668 
L 226.344863 189.022617 
L 227.854884 191.970257 
L 229.364905 199.768371 
L 230.874926 188.526243 
L 232.384947 210.017987 
L 233.894968 220.600496 
L 235.404989 232.542756 
L 236.915011 209.925547 
L 238.425032 224.185789 
L 239.935053 293.13057 
L 241.445074 244.521821 
L 242.955095 250.32168 
L 244.465116 236.30207 
L 245.975137 210.097474 
L 247.485159 232.848105 
L 248.99518 232.735582 
L 250.505201 188.630194 
L 252.015222 258.416668 
L 253.525243 241.033648 
L 255.035264 237.003456 
L 256.545285 208.427003 
L 258.055307 240.961234 
L 259.565328 197.387605 
L 261.075349 214.388992 
L 262.58537 189.505691 
L 264.095391 211.669074 
L 265.605412 209.975812 
L 267.115433 214.485419 
L 268.625455 228.316762 
L 270.135476 207.782345 
L 271.645497 205.118001 
L 273.155518 207.517336 
L 274.665539 252.374225 
L 276.17556 240.159424 
L 277.685581 243.632623 
L 279.195603 210.31751 
L 280.705624 242.175645 
L 282.215645 201.938089 
L 283.725666 212.623747 
L 285.235687 198.349664 
L 286.745708 210.464504 
L 288.255729 212.421139 
L 289.765751 195.647253 
L 291.275772 193.310992 
L 292.785793 199.621667 
L 294.295814 244.179302 
L 295.805835 212.923132 
L 297.315856 262.602971 
L 298.825877 233.627228 
L 300.335899 208.162062 
L 301.84592 220.06758 
L 303.355941 184.988152 
L 304.865962 192.090584 
L 306.375983 196.739964 
L 307.886004 205.780456 
L 309.396025 200.448827 
L 310.906047 191.846119 
L 312.416068 218.676935 
L 313.926089 185.095516 
L 315.43611 199.651093 
L 316.946131 195.481892 
L 318.456152 202.380231 
L 319.966173 201.198893 
L 321.476195 184.341955 
L 322.986216 191.008111 
L 324.496237 185.066963 
L 326.006258 190.214447 
L 327.516279 213.781259 
L 329.0263 192.840457 
L 330.536321 192.489069 
L 332.046342 182.035891 
L 333.556364 191.45702 
L 335.066385 190.643583 
L 336.576406 202.909344 
L 338.086427 182.240014 
L 339.596448 192.230207 
L 341.106469 188.589429 
L 342.61649 182.752982 
L 344.126512 184.600217 
L 345.636533 197.499033 
L 347.146554 205.892564 
L 348.656575 192.182782 
L 350.166596 183.471606 
L 351.676617 209.176385 
L 353.186638 183.413686 
L 354.69666 208.984336 
L 356.206681 218.811393 
L 357.716702 192.524349 
L 359.226723 201.817096 
L 360.736744 191.683222 
L 362.246765 192.058402 
L 363.756786 187.42964 
L 365.266808 181.416881 
L 366.776829 199.059931 
L 368.28685 199.438197 
L 369.796871 206.698865 
L 371.306892 187.558099 
L 372.816913 193.04425 
L 374.326934 181.243696 
L 375.836956 186.530204 
L 377.346977 184.664332 
L 378.856998 180.76577 
L 380.367019 206.640736 
L 381.87704 188.17153 
L 383.387061 186.660441 
L 384.897082 195.702401 
L 386.407104 185.13798 
L 387.917125 197.88687 
L 389.427146 231.76988 
L 390.937167 195.759133 
L 392.447188 213.613794 
L 393.957209 202.909429 
L 395.46723 213.452416 
L 396.977252 198.197224 
L 398.487273 191.461269 
L 398.487273 191.461269 
" clip-path="url(#p4cee819d4b)" style="fill: none; stroke: #32cd32; stroke-opacity: 0.8; stroke-width: 0.5; stroke-linecap: square"/>
   </g>
   <g id="line2d_17">
    <path d="M 73.832727 180.259449 
L 75.342748 184.636543 
L 76.85277 180.73207 
L 78.362791 176.333486 
L 79.872812 178.870668 
L 81.382833 176.706693 
L 84.402875 182.066191 
L 85.912896 179.88799 
L 87.422918 178.098475 
L 88.932939 178.414334 
L 90.44296 177.227063 
L 91.952981 178.521209 
L 93.463002 177.626754 
L 94.973023 177.434737 
L 96.483044 179.626206 
L 99.503087 180.399624 
L 101.013108 175.321363 
L 102.523129 178.891353 
L 104.03315 179.821754 
L 105.543171 177.565229 
L 107.053192 178.054394 
L 108.563214 179.19057 
L 110.073235 178.047462 
L 111.583256 178.422156 
L 113.093277 178.14848 
L 114.603298 178.501514 
L 116.113319 176.861718 
L 117.62334 176.353887 
L 119.133362 178.441653 
L 120.643383 178.52727 
L 122.153404 179.316762 
L 123.663425 178.318474 
L 125.173446 178.067549 
L 126.683467 178.381867 
L 128.193488 178.099181 
L 131.213531 178.905313 
L 132.723552 178.760037 
L 134.233573 178.173238 
L 135.743594 178.515415 
L 137.253615 180.151331 
L 138.763636 178.037477 
L 140.273658 178.603416 
L 141.783679 179.38695 
L 143.2937 182.354922 
L 144.803721 178.091601 
L 146.313742 177.917712 
L 149.333784 182.242211 
L 150.843805 178.505579 
L 152.353827 176.791373 
L 153.863848 177.776287 
L 155.373869 180.25176 
L 156.88389 178.478082 
L 158.393911 177.519654 
L 159.903932 179.020376 
L 162.923975 177.558546 
L 164.433996 176.087443 
L 165.944017 178.6295 
L 167.454038 177.998099 
L 168.964059 179.987955 
L 170.47408 177.353153 
L 171.984101 176.077388 
L 173.494123 178.422351 
L 175.004144 177.87488 
L 176.514165 178.649376 
L 178.024186 178.107336 
L 179.534207 179.886561 
L 181.044228 179.21229 
L 182.554249 179.833793 
L 184.064271 178.894014 
L 185.574292 177.500793 
L 187.084313 176.517848 
L 188.594334 177.176459 
L 190.104355 175.73204 
L 191.614376 178.584406 
L 193.124397 179.543694 
L 194.634419 178.031336 
L 196.14444 181.007803 
L 197.654461 179.499127 
L 199.164482 178.498527 
L 200.674503 178.172309 
L 202.184524 179.254939 
L 203.694545 177.977617 
L 205.204567 177.202366 
L 206.714588 178.699662 
L 208.224609 177.350992 
L 209.73463 181.052484 
L 211.244651 179.455475 
L 212.754672 179.390581 
L 214.264693 177.20819 
L 215.774715 176.682927 
L 217.284736 179.20696 
L 218.794757 177.850805 
L 220.304778 177.988417 
L 221.814799 179.441203 
L 223.32482 181.154823 
L 224.834841 182.412672 
L 226.344863 178.713986 
L 227.854884 182.743089 
L 229.364905 178.666048 
L 230.874926 178.8148 
L 232.384947 187.040377 
L 233.894968 190.00752 
L 235.404989 189.898068 
L 236.915011 166.688138 
L 238.425032 186.164104 
L 239.935053 193.130718 
L 241.445074 180.323484 
L 242.955095 178.136674 
L 244.465116 189.043651 
L 245.975137 170.726526 
L 247.485159 189.002555 
L 248.99518 184.745213 
L 250.505201 156.607084 
L 252.015222 182.939714 
L 253.525243 172.54284 
L 255.035264 160.062523 
L 256.545285 179.097682 
L 258.055307 178.365844 
L 259.565328 169.596856 
L 261.075349 180.062595 
L 262.58537 175.437112 
L 264.095391 180.994342 
L 265.605412 187.609508 
L 267.115433 186.46288 
L 268.625455 185.964392 
L 270.135476 177.22055 
L 271.645497 172.601214 
L 273.155518 170.810025 
L 274.665539 191.471717 
L 276.17556 193.490512 
L 277.685581 186.178408 
L 279.195603 176.541419 
L 280.705624 184.599974 
L 282.215645 169.245947 
L 283.725666 173.706727 
L 285.235687 162.425345 
L 286.745708 178.469252 
L 288.255729 178.325195 
L 289.765751 168.906745 
L 291.275772 178.603525 
L 292.785793 172.929799 
L 294.295814 188.73901 
L 295.805835 171.017251 
L 297.315856 183.609915 
L 298.825877 171.91166 
L 300.335899 181.897183 
L 301.84592 187.720263 
L 303.355941 171.496519 
L 304.865962 177.037354 
L 306.375983 173.383319 
L 307.886004 165.112808 
L 309.396025 179.806524 
L 310.906047 177.340733 
L 312.416068 180.836558 
L 313.926089 161.731701 
L 315.43611 180.460177 
L 316.946131 180.630617 
L 318.456152 178.958001 
L 319.966173 179.831288 
L 321.476195 177.140221 
L 322.986216 179.262542 
L 324.496237 172.538658 
L 326.006258 176.856377 
L 327.516279 180.081634 
L 329.0263 179.385214 
L 330.536321 180.132825 
L 332.046342 177.786105 
L 333.556364 182.405189 
L 335.066385 178.186457 
L 336.576406 171.923879 
L 338.086427 177.626665 
L 339.596448 179.305905 
L 341.106469 179.757172 
L 342.61649 179.240884 
L 344.126512 179.748823 
L 345.636533 186.805725 
L 347.146554 181.701011 
L 348.656575 180.247718 
L 350.166596 175.637266 
L 351.676617 182.136869 
L 353.186638 176.167049 
L 354.69666 181.299753 
L 356.206681 183.449294 
L 357.716702 178.700892 
L 359.226723 181.521141 
L 360.736744 172.848662 
L 362.246765 180.953941 
L 363.756786 173.471753 
L 365.266808 178.320271 
L 366.776829 180.53268 
L 368.28685 177.13371 
L 369.796871 186.567029 
L 371.306892 176.749323 
L 372.816913 178.84909 
L 374.326934 173.491997 
L 375.836956 176.732049 
L 377.346977 177.74177 
L 378.856998 172.359982 
L 380.367019 177.920676 
L 381.87704 177.542796 
L 383.387061 180.735081 
L 384.897082 180.42814 
L 386.407104 176.182188 
L 387.917125 184.639666 
L 389.427146 185.344667 
L 390.937167 182.441101 
L 392.447188 178.946294 
L 393.957209 179.208088 
L 395.46723 188.929574 
L 396.977252 178.885356 
L 398.487273 175.966755 
L 398.487273 175.966755 
" clip-path="url(#p4cee819d4b)" style="fill: none; stroke: #ff0000; stroke-opacity: 0.8; stroke-width: 0.5; stroke-linecap: square"/>
   </g>
   <g id="line2d_18">
    <path d="M 73.832727 165.778716 
L 75.342748 171.939913 
L 76.85277 162.531485 
L 78.362791 162.146213 
L 79.872812 164.129789 
L 81.382833 167.319914 
L 82.892854 170.114047 
L 84.402875 175.232155 
L 85.912896 166.266681 
L 87.422918 172.482778 
L 88.932939 169.934699 
L 90.44296 168.786087 
L 91.952981 175.185085 
L 93.463002 164.771576 
L 94.973023 166.789892 
L 96.483044 176.726395 
L 97.993066 172.723866 
L 99.503087 174.902745 
L 101.013108 170.181227 
L 102.523129 173.361152 
L 104.03315 176.199987 
L 105.543171 169.248716 
L 107.053192 174.842311 
L 108.563214 174.768727 
L 110.073235 176.240144 
L 111.583256 171.892598 
L 113.093277 176.830204 
L 114.603298 174.845137 
L 116.113319 168.850349 
L 117.62334 167.28128 
L 119.133362 173.644916 
L 120.643383 175.259774 
L 122.153404 172.742137 
L 123.663425 174.959249 
L 125.173446 172.476537 
L 126.683467 177.480471 
L 128.193488 177.134727 
L 129.70351 176.598605 
L 131.213531 174.534134 
L 132.723552 176.797405 
L 134.233573 176.530443 
L 135.743594 177.094738 
L 137.253615 176.935519 
L 138.763636 172.982742 
L 140.273658 173.079522 
L 141.783679 176.925223 
L 143.2937 173.443612 
L 144.803721 168.479108 
L 146.313742 169.070727 
L 147.823763 175.25385 
L 149.333784 175.640529 
L 150.843805 147.497793 
L 152.353827 160.370872 
L 153.863848 154.395452 
L 155.373869 171.528449 
L 156.88389 169.291736 
L 158.393911 164.599566 
L 159.903932 172.589003 
L 161.413953 175.033577 
L 162.923975 175.493066 
L 164.433996 160.112341 
L 165.944017 174.287459 
L 167.454038 174.537393 
L 168.964059 168.95148 
L 171.984101 171.845658 
L 173.494123 172.571891 
L 175.004144 174.604279 
L 176.514165 174.613181 
L 178.024186 175.806336 
L 179.534207 174.585227 
L 181.044228 174.287537 
L 182.554249 172.78375 
L 184.064271 175.366123 
L 185.574292 171.119154 
L 187.084313 169.616351 
L 188.594334 165.078492 
L 190.104355 130.219373 
L 191.614376 172.800223 
L 193.124397 176.180164 
L 194.634419 171.474288 
L 196.14444 173.556402 
L 197.654461 173.387316 
L 199.164482 164.550913 
L 200.674503 171.340808 
L 202.184524 169.261068 
L 203.694545 170.727058 
L 205.204567 172.749085 
L 206.714588 176.57729 
L 208.224609 175.63324 
L 209.73463 176.774138 
L 211.244651 167.8134 
L 212.754672 171.728457 
L 214.264693 171.52849 
L 215.774715 159.008817 
L 217.284736 174.248613 
L 218.794757 170.093381 
L 220.304778 174.859385 
L 221.814799 174.788049 
L 223.32482 176.323237 
L 224.834841 173.088586 
L 226.344863 165.656364 
L 227.854884 172.992559 
L 229.364905 153.53378 
L 230.874926 163.694471 
L 232.384947 167.534715 
L 233.894968 164.723269 
L 236.915011 100.854254 
L 238.425032 143.176525 
L 239.935053 151.119782 
L 241.445074 89.916336 
L 242.955095 134.394505 
L 244.465116 122.202978 
L 245.975137 128.257777 
L 247.485159 148.256041 
L 248.99518 142.429571 
L 250.505201 105.688123 
L 252.015222 114.89652 
L 253.525243 56.766172 
L 255.035264 82.381179 
L 256.545285 130.771894 
L 258.055307 142.467038 
L 259.565328 114.781654 
L 261.075349 125.804499 
L 262.58537 149.815306 
L 264.095391 163.258306 
L 265.605412 148.868448 
L 267.115433 156.242335 
L 268.625455 157.41843 
L 270.135476 146.869815 
L 271.645497 80.787787 
L 273.155518 104.247384 
L 274.665539 146.397664 
L 276.17556 154.750208 
L 277.685581 113.727174 
L 279.195603 136.443512 
L 280.705624 143.008847 
L 282.215645 121.187164 
L 283.725666 118.981724 
L 285.235687 105.489419 
L 286.745708 125.968449 
L 288.255729 125.995858 
L 289.765751 134.33708 
L 291.275772 157.050451 
L 292.785793 108.005592 
L 294.295814 148.437909 
L 295.805835 121.783777 
L 297.315856 153.374758 
L 298.825877 122.361512 
L 300.335899 161.794844 
L 301.84592 170.501369 
L 303.355941 138.186686 
L 304.865962 135.34218 
L 306.375983 141.177073 
L 307.886004 116.707733 
L 309.396025 145.332335 
L 310.906047 159.39707 
L 312.416068 145.440643 
L 313.926089 110.379773 
L 315.43611 164.981087 
L 316.946131 166.175073 
L 318.456152 163.388523 
L 319.966173 156.423751 
L 321.476195 169.344483 
L 322.986216 167.721518 
L 324.496237 136.707627 
L 326.006258 161.7501 
L 327.516279 142.972188 
L 329.0263 169.794651 
L 330.536321 173.038776 
L 332.046342 170.751131 
L 333.556364 173.871622 
L 335.066385 169.194031 
L 336.576406 138.650786 
L 338.086427 166.611308 
L 339.596448 173.347239 
L 341.106469 169.654792 
L 342.61649 170.309649 
L 344.126512 176.116148 
L 345.636533 178.89631 
L 347.146554 167.33432 
L 348.656575 166.657671 
L 350.166596 159.328682 
L 351.676617 170.759266 
L 354.69666 154.318924 
L 357.716702 167.587078 
L 359.226723 171.354098 
L 360.736744 155.828513 
L 362.246765 157.865731 
L 363.756786 163.342652 
L 365.266808 165.841959 
L 366.776829 169.266574 
L 368.28685 158.2879 
L 369.796871 161.888733 
L 371.306892 167.295599 
L 372.816913 167.776192 
L 374.326934 161.326054 
L 375.836956 166.755567 
L 377.346977 173.806018 
L 378.856998 144.673771 
L 381.87704 164.194319 
L 384.897082 171.088475 
L 386.407104 167.915005 
L 387.917125 175.442287 
L 389.427146 171.26553 
L 390.937167 173.220108 
L 392.447188 153.24107 
L 393.957209 153.051416 
L 395.46723 169.394686 
L 396.977252 134.132377 
L 398.487273 163.50106 
L 398.487273 163.50106 
" clip-path="url(#p4cee819d4b)" style="fill: none; stroke: #f08080; stroke-opacity: 0.8; stroke-width: 0.5; stroke-linecap: square"/>
   </g>
   <g id="line2d_19">
    <path d="M 73.832727 202.889263 
L 75.342748 200.975645 
L 76.85277 192.415298 
L 78.362791 189.569489 
L 79.872812 188.322649 
L 81.382833 182.055046 
L 82.892854 186.795102 
L 84.402875 195.429029 
L 85.912896 192.77272 
L 87.422918 188.606994 
L 88.932939 183.449492 
L 90.44296 183.335062 
L 91.952981 181.699081 
L 93.463002 183.413992 
L 94.973023 182.497641 
L 96.483044 182.588201 
L 97.993066 188.531698 
L 99.503087 190.800359 
L 101.013108 180.222875 
L 102.523129 182.748565 
L 104.03315 182.686535 
L 105.543171 182.076969 
L 107.053192 179.913597 
L 108.563214 182.212183 
L 110.073235 180.232277 
L 111.583256 184.264801 
L 113.093277 179.328017 
L 114.603298 180.170921 
L 116.113319 179.808825 
L 117.62334 182.835157 
L 119.133362 184.654855 
L 120.643383 182.632229 
L 122.153404 185.672572 
L 123.663425 181.88719 
L 125.173446 183.069393 
L 126.683467 180.112744 
L 128.193488 179.644034 
L 129.70351 182.371948 
L 131.213531 183.93283 
L 132.723552 181.272781 
L 134.233573 180.54394 
L 135.743594 180.171698 
L 137.253615 191.581407 
L 138.763636 181.247923 
L 140.273658 182.494849 
L 141.783679 181.560039 
L 143.2937 192.952983 
L 144.803721 194.075014 
L 146.313742 188.737865 
L 147.823763 185.382453 
L 149.333784 188.549505 
L 150.843805 199.450259 
L 152.353827 190.524291 
L 153.863848 193.383121 
L 155.373869 185.200237 
L 156.88389 191.787099 
L 158.393911 188.968858 
L 159.903932 189.386701 
L 161.413953 183.546803 
L 162.923975 179.239748 
L 164.433996 180.91563 
L 165.944017 184.559832 
L 167.454038 183.424926 
L 168.964059 198.58251 
L 170.47408 181.795575 
L 171.984101 179.919274 
L 173.494123 183.669673 
L 175.004144 181.069899 
L 176.514165 188.522301 
L 178.024186 182.637616 
L 179.534207 184.50482 
L 181.044228 188.380303 
L 182.554249 185.392167 
L 184.064271 185.333507 
L 185.574292 185.14923 
L 187.084313 181.523591 
L 188.594334 183.38058 
L 190.104355 193.079523 
L 191.614376 187.141404 
L 193.124397 185.609033 
L 194.634419 184.919981 
L 196.14444 194.697401 
L 197.654461 190.654367 
L 199.164482 187.042192 
L 200.674503 185.276502 
L 202.184524 189.958693 
L 203.694545 182.296354 
L 205.204567 182.465811 
L 206.714588 181.912316 
L 208.224609 178.874627 
L 209.73463 197.038714 
L 211.244651 187.436602 
L 212.754672 183.467596 
L 214.264693 181.101014 
L 215.774715 182.84582 
L 217.284736 183.231788 
L 218.794757 185.66549 
L 220.304778 181.449734 
L 221.814799 181.959956 
L 223.32482 192.353095 
L 224.834841 201.087663 
L 226.344863 188.703357 
L 227.854884 194.417293 
L 229.364905 201.427694 
L 230.874926 190.724356 
L 232.384947 209.289738 
L 233.894968 223.014961 
L 235.404989 233.370292 
L 236.915011 214.863732 
L 238.425032 226.176789 
L 239.935053 295.488 
L 241.445074 245.814243 
L 242.955095 250.665853 
L 244.465116 240.871197 
L 245.975137 210.848927 
L 247.485159 233.401833 
L 248.99518 235.657741 
L 250.505201 191.28408 
L 252.015222 259.793311 
L 253.525243 244.143278 
L 255.035264 243.858411 
L 256.545285 207.059216 
L 258.055307 242.04846 
L 259.565328 200.18827 
L 261.075349 219.873016 
L 262.58537 192.456579 
L 264.095391 217.745006 
L 265.605412 215.014102 
L 267.115433 217.5242 
L 268.625455 230.582446 
L 270.135476 210.256746 
L 271.645497 209.209519 
L 273.155518 213.744195 
L 274.665539 250.663505 
L 276.17556 242.13492 
L 277.685581 245.616837 
L 279.195603 215.207404 
L 280.705624 248.665522 
L 282.215645 205.761304 
L 283.725666 218.971813 
L 285.235687 199.011056 
L 286.745708 216.766505 
L 288.255729 213.830039 
L 289.765751 198.596741 
L 292.785793 201.505971 
L 294.295814 251.754575 
L 295.805835 213.320104 
L 297.315856 266.535517 
L 298.825877 231.867663 
L 300.335899 210.197547 
L 301.84592 216.942447 
L 303.355941 189.214101 
L 304.865962 197.780164 
L 306.375983 197.443802 
L 307.886004 210.316539 
L 309.396025 207.056683 
L 310.906047 192.388039 
L 312.416068 218.168493 
L 313.926089 183.747999 
L 315.43611 206.349017 
L 316.946131 197.253541 
L 318.456152 204.444086 
L 319.966173 202.025973 
L 321.476195 188.641777 
L 322.986216 194.098579 
L 324.496237 187.21735 
L 326.006258 192.355207 
L 327.516279 210.049517 
L 329.0263 191.16469 
L 330.536321 192.873267 
L 332.046342 185.606345 
L 333.556364 193.37895 
L 335.066385 196.377828 
L 336.576406 208.752893 
L 338.086427 188.601926 
L 339.596448 193.783979 
L 341.106469 191.319773 
L 342.61649 183.885066 
L 344.126512 182.986432 
L 345.636533 199.201444 
L 347.146554 202.759136 
L 348.656575 191.381891 
L 350.166596 182.242545 
L 351.676617 214.52535 
L 353.186638 185.692619 
L 354.69666 213.801845 
L 356.206681 216.127162 
L 357.716702 192.666701 
L 359.226723 202.954274 
L 360.736744 193.12954 
L 362.246765 197.472169 
L 363.756786 188.237298 
L 365.266808 187.795808 
L 366.776829 196.889198 
L 368.28685 197.506113 
L 369.796871 209.204866 
L 371.306892 185.277288 
L 372.816913 193.916868 
L 374.326934 181.375472 
L 375.836956 183.410306 
L 377.346977 191.047713 
L 378.856998 183.142247 
L 380.367019 206.677427 
L 381.87704 183.17971 
L 383.387061 188.927785 
L 384.897082 193.417242 
L 386.407104 183.894301 
L 387.917125 202.355475 
L 389.427146 228.124321 
L 390.937167 192.18429 
L 392.447188 218.291095 
L 393.957209 203.215865 
L 395.46723 214.088748 
L 396.977252 202.443957 
L 398.487273 191.797113 
L 398.487273 191.797113 
" clip-path="url(#p4cee819d4b)" style="fill: none; stroke: #f08080; stroke-opacity: 0.8; stroke-width: 0.5; stroke-linecap: square"/>
   </g>
   <g id="patch_3">
    <path d="M 57.6 307.584 
L 57.6 41.472 
" style="fill: none; stroke: #000000; stroke-width: 0.8; stroke-linejoin: miter; stroke-linecap: square"/>
   </g>
   <g id="patch_4">
    <path d="M 414.72 307.584 
L 414.72 41.472 
" style="fill: none; stroke: #000000; stroke-width: 0.8; stroke-linejoin: miter; stroke-linecap: square"/>
   </g>
   <g id="patch_5">
    <path d="M 57.6 307.584 
L 414.72 307.584 
" style="fill: none; stroke: #000000; stroke-width: 0.8; stroke-linejoin: miter; stroke-linecap: square"/>
   </g>
   <g id="patch_6">
    <path d="M 57.6 41.472 
L 414.72 41.472 
" style="fill: none; stroke: #000000; stroke-width: 0.8; stroke-linejoin: miter; stroke-linecap: square"/>
   </g>
   <g id="text_14">
    <!-- 1final_colouring_btcusd -->
    <g transform="translate(165.36375 35.472) scale(0.12 -0.12)">
     <defs>
      <path id="DejaVuSans-66" d="M 2375 4863 
L 2375 4384 
L 1825 4384 
Q 1516 4384 1395 4259 
Q 1275 4134 1275 3809 
L 1275 3500 
L 2222 3500 
L 2222 3053 
L 1275 3053 
L 1275 0 
L 697 0 
L 697 3053 
L 147 3053 
L 147 3500 
L 697 3500 
L 697 3744 
Q 697 4328 969 4595 
Q 1241 4863 1831 4863 
L 2375 4863 
z
" transform="scale(0.015625)"/>
      <path id="DejaVuSans-69" d="M 603 3500 
L 1178 3500 
L 1178 0 
L 603 0 
L 603 3500 
z
M 603 4863 
L 1178 4863 
L 1178 4134 
L 603 4134 
L 603 4863 
z
" transform="scale(0.015625)"/>
      <path id="DejaVuSans-6e" d="M 3513 2113 
L 3513 0 
L 2938 0 
L 2938 2094 
Q 2938 2591 2744 2837 
Q 2550 3084 2163 3084 
Q 1697 3084 1428 2787 
Q 1159 2491 1159 1978 
L 1159 0 
L 581 0 
L 581 3500 
L 1159 3500 
L 1159 2956 
Q 1366 3272 1645 3428 
Q 1925 3584 2291 3584 
Q 2894 3584 3203 3211 
Q 3513 2838 3513 2113 
z
" transform="scale(0.015625)"/>
      <path id="DejaVuSans-61" d="M 2194 1759 
Q 1497 1759 1228 1600 
Q 959 1441 959 1056 
Q 959 750 1161 570 
Q 1363 391 1709 391 
Q 2188 391 2477 730 
Q 2766 1069 2766 1631 
L 2766 1759 
L 2194 1759 
z
M 3341 1997 
L 3341 0 
L 2766 0 
L 2766 531 
Q 2569 213 2275 61 
Q 1981 -91 1556 -91 
Q 1019 -91 701 211 
Q 384 513 384 1019 
Q 384 1609 779 1909 
Q 1175 2209 1959 2209 
L 2766 2209 
L 2766 2266 
Q 2766 2663 2505 2880 
Q 2244 3097 1772 3097 
Q 1472 3097 1187 3025 
Q 903 2953 641 2809 
L 641 3341 
Q 956 3463 1253 3523 
Q 1550 3584 1831 3584 
Q 2591 3584 2966 3190 
Q 3341 2797 3341 1997 
z
" transform="scale(0.015625)"/>
      <path id="DejaVuSans-6c" d="M 603 4863 
L 1178 4863 
L 1178 0 
L 603 0 
L 603 4863 
z
" transform="scale(0.015625)"/>
      <path id="DejaVuSans-5f" d="M 3263 -1063 
L 3263 -1509 
L -63 -1509 
L -63 -1063 
L 3263 -1063 
z
" transform="scale(0.015625)"/>
      <path id="DejaVuSans-63" d="M 3122 3366 
L 3122 2828 
Q 2878 2963 2633 3030 
Q 2388 3097 2138 3097 
Q 1578 3097 1268 2742 
Q 959 2388 959 1747 
Q 959 1106 1268 751 
Q 1578 397 2138 397 
Q 2388 397 2633 464 
Q 2878 531 3122 666 
L 3122 134 
Q 2881 22 2623 -34 
Q 2366 -91 2075 -91 
Q 1284 -91 818 406 
Q 353 903 353 1747 
Q 353 2603 823 3093 
Q 1294 3584 2113 3584 
Q 2378 3584 2631 3529 
Q 2884 3475 3122 3366 
z
" transform="scale(0.015625)"/>
      <path id="DejaVuSans-6f" d="M 1959 3097 
Q 1497 3097 1228 2736 
Q 959 2375 959 1747 
Q 959 1119 1226 758 
Q 1494 397 1959 397 
Q 2419 397 2687 759 
Q 2956 1122 2956 1747 
Q 2956 2369 2687 2733 
Q 2419 3097 1959 3097 
z
M 1959 3584 
Q 2709 3584 3137 3096 
Q 3566 2609 3566 1747 
Q 3566 888 3137 398 
Q 2709 -91 1959 -91 
Q 1206 -91 779 398 
Q 353 888 353 1747 
Q 353 2609 779 3096 
Q 1206 3584 1959 3584 
z
" transform="scale(0.015625)"/>
      <path id="DejaVuSans-75" d="M 544 1381 
L 544 3500 
L 1119 3500 
L 1119 1403 
Q 1119 906 1312 657 
Q 1506 409 1894 409 
Q 2359 409 2629 706 
Q 2900 1003 2900 1516 
L 2900 3500 
L 3475 3500 
L 3475 0 
L 2900 0 
L 2900 538 
Q 2691 219 2414 64 
Q 2138 -91 1772 -91 
Q 1169 -91 856 284 
Q 544 659 544 1381 
z
M 1991 3584 
L 1991 3584 
z
" transform="scale(0.015625)"/>
      <path id="DejaVuSans-72" d="M 2631 2963 
Q 2534 3019 2420 3045 
Q 2306 3072 2169 3072 
Q 1681 3072 1420 2755 
Q 1159 2438 1159 1844 
L 1159 0 
L 581 0 
L 581 3500 
L 1159 3500 
L 1159 2956 
Q 1341 3275 1631 3429 
Q 1922 3584 2338 3584 
Q 2397 3584 2469 3576 
Q 2541 3569 2628 3553 
L 2631 2963 
z
" transform="scale(0.015625)"/>
      <path id="DejaVuSans-67" d="M 2906 1791 
Q 2906 2416 2648 2759 
Q 2391 3103 1925 3103 
Q 1463 3103 1205 2759 
Q 947 2416 947 1791 
Q 947 1169 1205 825 
Q 1463 481 1925 481 
Q 2391 481 2648 825 
Q 2906 1169 2906 1791 
z
M 3481 434 
Q 3481 -459 3084 -895 
Q 2688 -1331 1869 -1331 
Q 1566 -1331 1297 -1286 
Q 1028 -1241 775 -1147 
L 775 -588 
Q 1028 -725 1275 -790 
Q 1522 -856 1778 -856 
Q 2344 -856 2625 -561 
Q 2906 -266 2906 331 
L 2906 616 
Q 2728 306 2450 153 
Q 2172 0 1784 0 
Q 1141 0 747 490 
Q 353 981 353 1791 
Q 353 2603 747 3093 
Q 1141 3584 1784 3584 
Q 2172 3584 2450 3431 
Q 2728 3278 2906 2969 
L 2906 3500 
L 3481 3500 
L 3481 434 
z
" transform="scale(0.015625)"/>
      <path id="DejaVuSans-62" d="M 3116 1747 
Q 3116 2381 2855 2742 
Q 2594 3103 2138 3103 
Q 1681 3103 1420 2742 
Q 1159 2381 1159 1747 
Q 1159 1113 1420 752 
Q 1681 391 2138 391 
Q 2594 391 2855 752 
Q 3116 1113 3116 1747 
z
M 1159 2969 
Q 1341 3281 1617 3432 
Q 1894 3584 2278 3584 
Q 2916 3584 3314 3078 
Q 3713 2572 3713 1747 
Q 3713 922 3314 415 
Q 2916 -91 2278 -91 
Q 1894 -91 1617 61 
Q 1341 213 1159 525 
L 1159 0 
L 581 0 
L 581 4863 
L 1159 4863 
L 1159 2969 
z
" transform="scale(0.015625)"/>
      <path id="DejaVuSans-74" d="M 1172 4494 
L 1172 3500 
L 2356 3500 
L 2356 3053 
L 1172 3053 
L 1172 1153 
Q 1172 725 1289 603 
Q 1406 481 1766 481 
L 2356 481 
L 2356 0 
L 1766 0 
Q 1100 0 847 248 
Q 594 497 594 1153 
L 594 3053 
L 172 3053 
L 172 3500 
L 594 3500 
L 594 4494 
L 1172 4494 
z
" transform="scale(0.015625)"/>
      <path id="DejaVuSans-73" d="M 2834 3397 
L 2834 2853 
Q 2591 2978 2328 3040 
Q 2066 3103 1784 3103 
Q 1356 3103 1142 2972 
Q 928 2841 928 2578 
Q 928 2378 1081 2264 
Q 1234 2150 1697 2047 
L 1894 2003 
Q 2506 1872 2764 1633 
Q 3022 1394 3022 966 
Q 3022 478 2636 193 
Q 2250 -91 1575 -91 
Q 1294 -91 989 -36 
Q 684 19 347 128 
L 347 722 
Q 666 556 975 473 
Q 1284 391 1588 391 
Q 1994 391 2212 530 
Q 2431 669 2431 922 
Q 2431 1156 2273 1281 
Q 2116 1406 1581 1522 
L 1381 1569 
Q 847 1681 609 1914 
Q 372 2147 372 2553 
Q 372 3047 722 3315 
Q 1072 3584 1716 3584 
Q 2034 3584 2315 3537 
Q 2597 3491 2834 3397 
z
" transform="scale(0.015625)"/>
      <path id="DejaVuSans-64" d="M 2906 2969 
L 2906 4863 
L 3481 4863 
L 3481 0 
L 2906 0 
L 2906 525 
Q 2725 213 2448 61 
Q 2172 -91 1784 -91 
Q 1150 -91 751 415 
Q 353 922 353 1747 
Q 353 2572 751 3078 
Q 1150 3584 1784 3584 
Q 2172 3584 2448 3432 
Q 2725 3281 2906 2969 
z
M 947 1747 
Q 947 1113 1208 752 
Q 1469 391 1925 391 
Q 2381 391 2643 752 
Q 2906 1113 2906 1747 
Q 2906 2381 2643 2742 
Q 2381 3103 1925 3103 
Q 1469 3103 1208 2742 
Q 947 2381 947 1747 
z
" transform="scale(0.015625)"/>
     </defs>
     <use xlink:href="#DejaVuSans-31"/>
     <use xlink:href="#DejaVuSans-66" x="63.623047"/>
     <use xlink:href="#DejaVuSans-69" x="98.828125"/>
     <use xlink:href="#DejaVuSans-6e" x="126.611328"/>
     <use xlink:href="#DejaVuSans-61" x="189.990234"/>
     <use xlink:href="#DejaVuSans-6c" x="251.269531"/>
     <use xlink:href="#DejaVuSans-5f" x="279.052734"/>
     <use xlink:href="#DejaVuSans-63" x="329.052734"/>
     <use xlink:href="#DejaVuSans-6f" x="384.033203"/>
     <use xlink:href="#DejaVuSans-6c" x="445.214844"/>
     <use xlink:href="#DejaVuSans-6f" x="472.998047"/>
     <use xlink:href="#DejaVuSans-75" x="534.179688"/>
     <use xlink:href="#DejaVuSans-72" x="597.558594"/>
     <use xlink:href="#DejaVuSans-69" x="638.671875"/>
     <use xlink:href="#DejaVuSans-6e" x="666.455078"/>
     <use xlink:href="#DejaVuSans-67" x="729.833984"/>
     <use xlink:href="#DejaVuSans-5f" x="793.310547"/>
     <use xlink:href="#DejaVuSans-62" x="843.310547"/>
     <use xlink:href="#DejaVuSans-74" x="906.787109"/>
     <use xlink:href="#DejaVuSans-63" x="945.996094"/>
     <use xlink:href="#DejaVuSans-75" x="1000.976562"/>
     <use xlink:href="#DejaVuSans-73" x="1064.355469"/>
     <use xlink:href="#DejaVuSans-64" x="1116.455078"/>
    </g>
   </g>
   <g id="legend_1">
    <g id="patch_7">
     <path d="M 64.6 302.584 
L 225.001563 302.584 
Q 227.001563 302.584 227.001563 300.584 
L 227.001563 213.51525 
Q 227.001563 211.51525 225.001563 211.51525 
L 64.6 211.51525 
Q 62.6 211.51525 62.6 213.51525 
L 62.6 300.584 
Q 62.6 302.584 64.6 302.584 
z
" style="fill: #ffffff; opacity: 0.8; stroke: #cccccc; stroke-linejoin: miter"/>
    </g>
    <g id="line2d_20">
     <path d="M 66.6 219.613687 
L 76.6 219.613687 
L 86.6 219.613687 
" style="fill: none; stroke: #008000; stroke-opacity: 0.8; stroke-width: 0.5; stroke-linecap: square"/>
    </g>
    <g id="text_15">
     <!-- Positive predictions -->
     <g transform="translate(94.6 223.113687) scale(0.1 -0.1)">
      <defs>
       <path id="DejaVuSans-50" d="M 1259 4147 
L 1259 2394 
L 2053 2394 
Q 2494 2394 2734 2622 
Q 2975 2850 2975 3272 
Q 2975 3691 2734 3919 
Q 2494 4147 2053 4147 
L 1259 4147 
z
M 628 4666 
L 2053 4666 
Q 2838 4666 3239 4311 
Q 3641 3956 3641 3272 
Q 3641 2581 3239 2228 
Q 2838 1875 2053 1875 
L 1259 1875 
L 1259 0 
L 628 0 
L 628 4666 
z
" transform="scale(0.015625)"/>
       <path id="DejaVuSans-76" d="M 191 3500 
L 800 3500 
L 1894 563 
L 2988 3500 
L 3597 3500 
L 2284 0 
L 1503 0 
L 191 3500 
z
" transform="scale(0.015625)"/>
       <path id="DejaVuSans-65" d="M 3597 1894 
L 3597 1613 
L 953 1613 
Q 991 1019 1311 708 
Q 1631 397 2203 397 
Q 2534 397 2845 478 
Q 3156 559 3463 722 
L 3463 178 
Q 3153 47 2828 -22 
Q 2503 -91 2169 -91 
Q 1331 -91 842 396 
Q 353 884 353 1716 
Q 353 2575 817 3079 
Q 1281 3584 2069 3584 
Q 2775 3584 3186 3129 
Q 3597 2675 3597 1894 
z
M 3022 2063 
Q 3016 2534 2758 2815 
Q 2500 3097 2075 3097 
Q 1594 3097 1305 2825 
Q 1016 2553 972 2059 
L 3022 2063 
z
" transform="scale(0.015625)"/>
       <path id="DejaVuSans-20" transform="scale(0.015625)"/>
       <path id="DejaVuSans-70" d="M 1159 525 
L 1159 -1331 
L 581 -1331 
L 581 3500 
L 1159 3500 
L 1159 2969 
Q 1341 3281 1617 3432 
Q 1894 3584 2278 3584 
Q 2916 3584 3314 3078 
Q 3713 2572 3713 1747 
Q 3713 922 3314 415 
Q 2916 -91 2278 -91 
Q 1894 -91 1617 61 
Q 1341 213 1159 525 
z
M 3116 1747 
Q 3116 2381 2855 2742 
Q 2594 3103 2138 3103 
Q 1681 3103 1420 2742 
Q 1159 2381 1159 1747 
Q 1159 1113 1420 752 
Q 1681 391 2138 391 
Q 2594 391 2855 752 
Q 3116 1113 3116 1747 
z
" transform="scale(0.015625)"/>
      </defs>
      <use xlink:href="#DejaVuSans-50"/>
      <use xlink:href="#DejaVuSans-6f" x="56.677734"/>
      <use xlink:href="#DejaVuSans-73" x="117.859375"/>
      <use xlink:href="#DejaVuSans-69" x="169.958984"/>
      <use xlink:href="#DejaVuSans-74" x="197.742188"/>
      <use xlink:href="#DejaVuSans-69" x="236.951172"/>
      <use xlink:href="#DejaVuSans-76" x="264.734375"/>
      <use xlink:href="#DejaVuSans-65" x="323.914062"/>
      <use xlink:href="#DejaVuSans-20" x="385.4375"/>
      <use xlink:href="#DejaVuSans-70" x="417.224609"/>
      <use xlink:href="#DejaVuSans-72" x="480.701172"/>
      <use xlink:href="#DejaVuSans-65" x="519.564453"/>
      <use xlink:href="#DejaVuSans-64" x="581.087891"/>
      <use xlink:href="#DejaVuSans-69" x="644.564453"/>
      <use xlink:href="#DejaVuSans-63" x="672.347656"/>
      <use xlink:href="#DejaVuSans-74" x="727.328125"/>
      <use xlink:href="#DejaVuSans-69" x="766.537109"/>
      <use xlink:href="#DejaVuSans-6f" x="794.320312"/>
      <use xlink:href="#DejaVuSans-6e" x="855.501953"/>
      <use xlink:href="#DejaVuSans-73" x="918.880859"/>
     </g>
    </g>
    <g id="line2d_21">
     <path d="M 66.6 234.291812 
L 76.6 234.291812 
L 86.6 234.291812 
" style="fill: none; stroke: #32cd32; stroke-opacity: 0.8; stroke-width: 0.5; stroke-linecap: square"/>
    </g>
    <g id="text_16">
     <!-- Positive predictions max -->
     <g transform="translate(94.6 237.791812) scale(0.1 -0.1)">
      <defs>
       <path id="DejaVuSans-6d" d="M 3328 2828 
Q 3544 3216 3844 3400 
Q 4144 3584 4550 3584 
Q 5097 3584 5394 3201 
Q 5691 2819 5691 2113 
L 5691 0 
L 5113 0 
L 5113 2094 
Q 5113 2597 4934 2840 
Q 4756 3084 4391 3084 
Q 3944 3084 3684 2787 
Q 3425 2491 3425 1978 
L 3425 0 
L 2847 0 
L 2847 2094 
Q 2847 2600 2669 2842 
Q 2491 3084 2119 3084 
Q 1678 3084 1418 2786 
Q 1159 2488 1159 1978 
L 1159 0 
L 581 0 
L 581 3500 
L 1159 3500 
L 1159 2956 
Q 1356 3278 1631 3431 
Q 1906 3584 2284 3584 
Q 2666 3584 2933 3390 
Q 3200 3197 3328 2828 
z
" transform="scale(0.015625)"/>
       <path id="DejaVuSans-78" d="M 3513 3500 
L 2247 1797 
L 3578 0 
L 2900 0 
L 1881 1375 
L 863 0 
L 184 0 
L 1544 1831 
L 300 3500 
L 978 3500 
L 1906 2253 
L 2834 3500 
L 3513 3500 
z
" transform="scale(0.015625)"/>
      </defs>
      <use xlink:href="#DejaVuSans-50"/>
      <use xlink:href="#DejaVuSans-6f" x="56.677734"/>
      <use xlink:href="#DejaVuSans-73" x="117.859375"/>
      <use xlink:href="#DejaVuSans-69" x="169.958984"/>
      <use xlink:href="#DejaVuSans-74" x="197.742188"/>
      <use xlink:href="#DejaVuSans-69" x="236.951172"/>
      <use xlink:href="#DejaVuSans-76" x="264.734375"/>
      <use xlink:href="#DejaVuSans-65" x="323.914062"/>
      <use xlink:href="#DejaVuSans-20" x="385.4375"/>
      <use xlink:href="#DejaVuSans-70" x="417.224609"/>
      <use xlink:href="#DejaVuSans-72" x="480.701172"/>
      <use xlink:href="#DejaVuSans-65" x="519.564453"/>
      <use xlink:href="#DejaVuSans-64" x="581.087891"/>
      <use xlink:href="#DejaVuSans-69" x="644.564453"/>
      <use xlink:href="#DejaVuSans-63" x="672.347656"/>
      <use xlink:href="#DejaVuSans-74" x="727.328125"/>
      <use xlink:href="#DejaVuSans-69" x="766.537109"/>
      <use xlink:href="#DejaVuSans-6f" x="794.320312"/>
      <use xlink:href="#DejaVuSans-6e" x="855.501953"/>
      <use xlink:href="#DejaVuSans-73" x="918.880859"/>
      <use xlink:href="#DejaVuSans-20" x="970.980469"/>
      <use xlink:href="#DejaVuSans-6d" x="1002.767578"/>
      <use xlink:href="#DejaVuSans-61" x="1100.179688"/>
      <use xlink:href="#DejaVuSans-78" x="1161.458984"/>
     </g>
    </g>
    <g id="line2d_22">
     <path d="M 66.6 248.969937 
L 76.6 248.969937 
L 86.6 248.969937 
" style="fill: none; stroke: #32cd32; stroke-opacity: 0.8; stroke-width: 0.5; stroke-linecap: square"/>
    </g>
    <g id="text_17">
     <!-- Positive predictions min -->
     <g transform="translate(94.6 252.469937) scale(0.1 -0.1)">
      <use xlink:href="#DejaVuSans-50"/>
      <use xlink:href="#DejaVuSans-6f" x="56.677734"/>
      <use xlink:href="#DejaVuSans-73" x="117.859375"/>
      <use xlink:href="#DejaVuSans-69" x="169.958984"/>
      <use xlink:href="#DejaVuSans-74" x="197.742188"/>
      <use xlink:href="#DejaVuSans-69" x="236.951172"/>
      <use xlink:href="#DejaVuSans-76" x="264.734375"/>
      <use xlink:href="#DejaVuSans-65" x="323.914062"/>
      <use xlink:href="#DejaVuSans-20" x="385.4375"/>
      <use xlink:href="#DejaVuSans-70" x="417.224609"/>
      <use xlink:href="#DejaVuSans-72" x="480.701172"/>
      <use xlink:href="#DejaVuSans-65" x="519.564453"/>
      <use xlink:href="#DejaVuSans-64" x="581.087891"/>
      <use xlink:href="#DejaVuSans-69" x="644.564453"/>
      <use xlink:href="#DejaVuSans-63" x="672.347656"/>
      <use xlink:href="#DejaVuSans-74" x="727.328125"/>
      <use xlink:href="#DejaVuSans-69" x="766.537109"/>
      <use xlink:href="#DejaVuSans-6f" x="794.320312"/>
      <use xlink:href="#DejaVuSans-6e" x="855.501953"/>
      <use xlink:href="#DejaVuSans-73" x="918.880859"/>
      <use xlink:href="#DejaVuSans-20" x="970.980469"/>
      <use xlink:href="#DejaVuSans-6d" x="1002.767578"/>
      <use xlink:href="#DejaVuSans-69" x="1100.179688"/>
      <use xlink:href="#DejaVuSans-6e" x="1127.962891"/>
     </g>
    </g>
    <g id="line2d_23">
     <path d="M 66.6 263.648062 
L 76.6 263.648062 
L 86.6 263.648062 
" style="fill: none; stroke: #ff0000; stroke-opacity: 0.8; stroke-width: 0.5; stroke-linecap: square"/>
    </g>
    <g id="text_18">
     <!-- Negative predictions -->
     <g transform="translate(94.6 267.148062) scale(0.1 -0.1)">
      <defs>
       <path id="DejaVuSans-4e" d="M 628 4666 
L 1478 4666 
L 3547 763 
L 3547 4666 
L 4159 4666 
L 4159 0 
L 3309 0 
L 1241 3903 
L 1241 0 
L 628 0 
L 628 4666 
z
" transform="scale(0.015625)"/>
      </defs>
      <use xlink:href="#DejaVuSans-4e"/>
      <use xlink:href="#DejaVuSans-65" x="74.804688"/>
      <use xlink:href="#DejaVuSans-67" x="136.328125"/>
      <use xlink:href="#DejaVuSans-61" x="199.804688"/>
      <use xlink:href="#DejaVuSans-74" x="261.083984"/>
      <use xlink:href="#DejaVuSans-69" x="300.292969"/>
      <use xlink:href="#DejaVuSans-76" x="328.076172"/>
      <use xlink:href="#DejaVuSans-65" x="387.255859"/>
      <use xlink:href="#DejaVuSans-20" x="448.779297"/>
      <use xlink:href="#DejaVuSans-70" x="480.566406"/>
      <use xlink:href="#DejaVuSans-72" x="544.042969"/>
      <use xlink:href="#DejaVuSans-65" x="582.90625"/>
      <use xlink:href="#DejaVuSans-64" x="644.429688"/>
      <use xlink:href="#DejaVuSans-69" x="707.90625"/>
      <use xlink:href="#DejaVuSans-63" x="735.689453"/>
      <use xlink:href="#DejaVuSans-74" x="790.669922"/>
      <use xlink:href="#DejaVuSans-69" x="829.878906"/>
      <use xlink:href="#DejaVuSans-6f" x="857.662109"/>
      <use xlink:href="#DejaVuSans-6e" x="918.84375"/>
      <use xlink:href="#DejaVuSans-73" x="982.222656"/>
     </g>
    </g>
    <g id="line2d_24">
     <path d="M 66.6 278.326188 
L 76.6 278.326188 
L 86.6 278.326188 
" style="fill: none; stroke: #f08080; stroke-opacity: 0.8; stroke-width: 0.5; stroke-linecap: square"/>
    </g>
    <g id="text_19">
     <!-- Negative predictions max -->
     <g transform="translate(94.6 281.826188) scale(0.1 -0.1)">
      <use xlink:href="#DejaVuSans-4e"/>
      <use xlink:href="#DejaVuSans-65" x="74.804688"/>
      <use xlink:href="#DejaVuSans-67" x="136.328125"/>
      <use xlink:href="#DejaVuSans-61" x="199.804688"/>
      <use xlink:href="#DejaVuSans-74" x="261.083984"/>
      <use xlink:href="#DejaVuSans-69" x="300.292969"/>
      <use xlink:href="#DejaVuSans-76" x="328.076172"/>
      <use xlink:href="#DejaVuSans-65" x="387.255859"/>
      <use xlink:href="#DejaVuSans-20" x="448.779297"/>
      <use xlink:href="#DejaVuSans-70" x="480.566406"/>
      <use xlink:href="#DejaVuSans-72" x="544.042969"/>
      <use xlink:href="#DejaVuSans-65" x="582.90625"/>
      <use xlink:href="#DejaVuSans-64" x="644.429688"/>
      <use xlink:href="#DejaVuSans-69" x="707.90625"/>
      <use xlink:href="#DejaVuSans-63" x="735.689453"/>
      <use xlink:href="#DejaVuSans-74" x="790.669922"/>
      <use xlink:href="#DejaVuSans-69" x="829.878906"/>
      <use xlink:href="#DejaVuSans-6f" x="857.662109"/>
      <use xlink:href="#DejaVuSans-6e" x="918.84375"/>
      <use xlink:href="#DejaVuSans-73" x="982.222656"/>
      <use xlink:href="#DejaVuSans-20" x="1034.322266"/>
      <use xlink:href="#DejaVuSans-6d" x="1066.109375"/>
      <use xlink:href="#DejaVuSans-61" x="1163.521484"/>
      <use xlink:href="#DejaVuSans-78" x="1224.800781"/>
     </g>
    </g>
    <g id="line2d_25">
     <path d="M 66.6 293.004312 
L 76.6 293.004312 
L 86.6 293.004312 
" style="fill: none; stroke: #f08080; stroke-opacity: 0.8; stroke-width: 0.5; stroke-linecap: square"/>
    </g>
    <g id="text_20">
     <!-- Negative predictions min -->
     <g transform="translate(94.6 296.504312) scale(0.1 -0.1)">
      <use xlink:href="#DejaVuSans-4e"/>
      <use xlink:href="#DejaVuSans-65" x="74.804688"/>
      <use xlink:href="#DejaVuSans-67" x="136.328125"/>
      <use xlink:href="#DejaVuSans-61" x="199.804688"/>
      <use xlink:href="#DejaVuSans-74" x="261.083984"/>
      <use xlink:href="#DejaVuSans-69" x="300.292969"/>
      <use xlink:href="#DejaVuSans-76" x="328.076172"/>
      <use xlink:href="#DejaVuSans-65" x="387.255859"/>
      <use xlink:href="#DejaVuSans-20" x="448.779297"/>
      <use xlink:href="#DejaVuSans-70" x="480.566406"/>
      <use xlink:href="#DejaVuSans-72" x="544.042969"/>
      <use xlink:href="#DejaVuSans-65" x="582.90625"/>
      <use xlink:href="#DejaVuSans-64" x="644.429688"/>
      <use xlink:href="#DejaVuSans-69" x="707.90625"/>
      <use xlink:href="#DejaVuSans-63" x="735.689453"/>
      <use xlink:href="#DejaVuSans-74" x="790.669922"/>
      <use xlink:href="#DejaVuSans-69" x="829.878906"/>
      <use xlink:href="#DejaVuSans-6f" x="857.662109"/>
      <use xlink:href="#DejaVuSans-6e" x="918.84375"/>
      <use xlink:href="#DejaVuSans-73" x="982.222656"/>
      <use xlink:href="#DejaVuSans-20" x="1034.322266"/>
      <use xlink:href="#DejaVuSans-6d" x="1066.109375"/>
      <use xlink:href="#DejaVuSans-69" x="1163.521484"/>
      <use xlink:href="#DejaVuSans-6e" x="1191.304688"/>
     </g>
    </g>
   </g>
  </g>
 </g>
 <defs>
  <clipPath id="p4cee819d4b">
   <rect x="57.6" y="41.472" width="357.12" height="266.112"/>
  </clipPath>
 </defs>
</svg>
