<?xml version="1.0" encoding="utf-8" standalone="no"?>
<!DOCTYPE svg PUBLIC "-//W3C//DTD SVG 1.1//EN"
  "http://www.w3.org/Graphics/SVG/1.1/DTD/svg11.dtd">
<svg xmlns:xlink="http://www.w3.org/1999/xlink" width="460.8pt" height="345.6pt" viewBox="0 0 460.8 345.6" xmlns="http://www.w3.org/2000/svg" version="1.1">
 <metadata>
  <rdf:RDF xmlns:dc="http://purl.org/dc/elements/1.1/" xmlns:cc="http://creativecommons.org/ns#" xmlns:rdf="http://www.w3.org/1999/02/22-rdf-syntax-ns#">
   <cc:Work>
    <dc:type rdf:resource="http://purl.org/dc/dcmitype/StillImage"/>
    <dc:date>2024-09-08T13:28:12.913002</dc:date>
    <dc:format>image/svg+xml</dc:format>
    <dc:creator>
     <cc:Agent>
      <dc:title>Matplotlib v3.8.3, https://matplotlib.org/</dc:title>
     </cc:Agent>
    </dc:creator>
   </cc:Work>
  </rdf:RDF>
 </metadata>
 <defs>
  <style type="text/css">*{stroke-linejoin: round; stroke-linecap: butt}</style>
 </defs>
 <g id="figure_1">
  <g id="patch_1">
   <path d="M 0 345.6 
L 460.8 345.6 
L 460.8 0 
L 0 0 
z
" style="fill: #ffffff"/>
  </g>
  <g id="axes_1">
   <g id="patch_2">
    <path d="M 57.6 307.584 
L 414.72 307.584 
L 414.72 41.472 
L 57.6 41.472 
z
" style="fill: #ffffff"/>
   </g>
   <g id="matplotlib.axis_1">
    <g id="xtick_1">
     <g id="line2d_1">
      <defs>
       <path id="mc31366f582" d="M 0 0 
L 0 3.5 
" style="stroke: #000000; stroke-width: 0.8"/>
      </defs>
      <g>
       <use xlink:href="#mc31366f582" x="73.832727" y="307.584" style="stroke: #000000; stroke-width: 0.8"/>
      </g>
     </g>
     <g id="text_1">
      <!-- 0 -->
      <g transform="translate(70.651477 322.182437) scale(0.1 -0.1)">
       <defs>
        <path id="DejaVuSans-30" d="M 2034 4250 
Q 1547 4250 1301 3770 
Q 1056 3291 1056 2328 
Q 1056 1369 1301 889 
Q 1547 409 2034 409 
Q 2525 409 2770 889 
Q 3016 1369 3016 2328 
Q 3016 3291 2770 3770 
Q 2525 4250 2034 4250 
z
M 2034 4750 
Q 2819 4750 3233 4129 
Q 3647 3509 3647 2328 
Q 3647 1150 3233 529 
Q 2819 -91 2034 -91 
Q 1250 -91 836 529 
Q 422 1150 422 2328 
Q 422 3509 836 4129 
Q 1250 4750 2034 4750 
z
" transform="scale(0.015625)"/>
       </defs>
       <use xlink:href="#DejaVuSans-30"/>
      </g>
     </g>
    </g>
    <g id="xtick_2">
     <g id="line2d_2">
      <g>
       <use xlink:href="#mc31366f582" x="118.003414" y="307.584" style="stroke: #000000; stroke-width: 0.8"/>
      </g>
     </g>
     <g id="text_2">
      <!-- 20 -->
      <g transform="translate(111.640914 322.182437) scale(0.1 -0.1)">
       <defs>
        <path id="DejaVuSans-32" d="M 1228 531 
L 3431 531 
L 3431 0 
L 469 0 
L 469 531 
Q 828 903 1448 1529 
Q 2069 2156 2228 2338 
Q 2531 2678 2651 2914 
Q 2772 3150 2772 3378 
Q 2772 3750 2511 3984 
Q 2250 4219 1831 4219 
Q 1534 4219 1204 4116 
Q 875 4013 500 3803 
L 500 4441 
Q 881 4594 1212 4672 
Q 1544 4750 1819 4750 
Q 2544 4750 2975 4387 
Q 3406 4025 3406 3419 
Q 3406 3131 3298 2873 
Q 3191 2616 2906 2266 
Q 2828 2175 2409 1742 
Q 1991 1309 1228 531 
z
" transform="scale(0.015625)"/>
       </defs>
       <use xlink:href="#DejaVuSans-32"/>
       <use xlink:href="#DejaVuSans-30" x="63.623047"/>
      </g>
     </g>
    </g>
    <g id="xtick_3">
     <g id="line2d_3">
      <g>
       <use xlink:href="#mc31366f582" x="162.1741" y="307.584" style="stroke: #000000; stroke-width: 0.8"/>
      </g>
     </g>
     <g id="text_3">
      <!-- 40 -->
      <g transform="translate(155.8116 322.182437) scale(0.1 -0.1)">
       <defs>
        <path id="DejaVuSans-34" d="M 2419 4116 
L 825 1625 
L 2419 1625 
L 2419 4116 
z
M 2253 4666 
L 3047 4666 
L 3047 1625 
L 3713 1625 
L 3713 1100 
L 3047 1100 
L 3047 0 
L 2419 0 
L 2419 1100 
L 313 1100 
L 313 1709 
L 2253 4666 
z
" transform="scale(0.015625)"/>
       </defs>
       <use xlink:href="#DejaVuSans-34"/>
       <use xlink:href="#DejaVuSans-30" x="63.623047"/>
      </g>
     </g>
    </g>
    <g id="xtick_4">
     <g id="line2d_4">
      <g>
       <use xlink:href="#mc31366f582" x="206.344787" y="307.584" style="stroke: #000000; stroke-width: 0.8"/>
      </g>
     </g>
     <g id="text_4">
      <!-- 60 -->
      <g transform="translate(199.982287 322.182437) scale(0.1 -0.1)">
       <defs>
        <path id="DejaVuSans-36" d="M 2113 2584 
Q 1688 2584 1439 2293 
Q 1191 2003 1191 1497 
Q 1191 994 1439 701 
Q 1688 409 2113 409 
Q 2538 409 2786 701 
Q 3034 994 3034 1497 
Q 3034 2003 2786 2293 
Q 2538 2584 2113 2584 
z
M 3366 4563 
L 3366 3988 
Q 3128 4100 2886 4159 
Q 2644 4219 2406 4219 
Q 1781 4219 1451 3797 
Q 1122 3375 1075 2522 
Q 1259 2794 1537 2939 
Q 1816 3084 2150 3084 
Q 2853 3084 3261 2657 
Q 3669 2231 3669 1497 
Q 3669 778 3244 343 
Q 2819 -91 2113 -91 
Q 1303 -91 875 529 
Q 447 1150 447 2328 
Q 447 3434 972 4092 
Q 1497 4750 2381 4750 
Q 2619 4750 2861 4703 
Q 3103 4656 3366 4563 
z
" transform="scale(0.015625)"/>
       </defs>
       <use xlink:href="#DejaVuSans-36"/>
       <use xlink:href="#DejaVuSans-30" x="63.623047"/>
      </g>
     </g>
    </g>
    <g id="xtick_5">
     <g id="line2d_5">
      <g>
       <use xlink:href="#mc31366f582" x="250.515473" y="307.584" style="stroke: #000000; stroke-width: 0.8"/>
      </g>
     </g>
     <g id="text_5">
      <!-- 80 -->
      <g transform="translate(244.152973 322.182437) scale(0.1 -0.1)">
       <defs>
        <path id="DejaVuSans-38" d="M 2034 2216 
Q 1584 2216 1326 1975 
Q 1069 1734 1069 1313 
Q 1069 891 1326 650 
Q 1584 409 2034 409 
Q 2484 409 2743 651 
Q 3003 894 3003 1313 
Q 3003 1734 2745 1975 
Q 2488 2216 2034 2216 
z
M 1403 2484 
Q 997 2584 770 2862 
Q 544 3141 544 3541 
Q 544 4100 942 4425 
Q 1341 4750 2034 4750 
Q 2731 4750 3128 4425 
Q 3525 4100 3525 3541 
Q 3525 3141 3298 2862 
Q 3072 2584 2669 2484 
Q 3125 2378 3379 2068 
Q 3634 1759 3634 1313 
Q 3634 634 3220 271 
Q 2806 -91 2034 -91 
Q 1263 -91 848 271 
Q 434 634 434 1313 
Q 434 1759 690 2068 
Q 947 2378 1403 2484 
z
M 1172 3481 
Q 1172 3119 1398 2916 
Q 1625 2713 2034 2713 
Q 2441 2713 2670 2916 
Q 2900 3119 2900 3481 
Q 2900 3844 2670 4047 
Q 2441 4250 2034 4250 
Q 1625 4250 1398 4047 
Q 1172 3844 1172 3481 
z
" transform="scale(0.015625)"/>
       </defs>
       <use xlink:href="#DejaVuSans-38"/>
       <use xlink:href="#DejaVuSans-30" x="63.623047"/>
      </g>
     </g>
    </g>
    <g id="xtick_6">
     <g id="line2d_6">
      <g>
       <use xlink:href="#mc31366f582" x="294.68616" y="307.584" style="stroke: #000000; stroke-width: 0.8"/>
      </g>
     </g>
     <g id="text_6">
      <!-- 100 -->
      <g transform="translate(285.14241 322.182437) scale(0.1 -0.1)">
       <defs>
        <path id="DejaVuSans-31" d="M 794 531 
L 1825 531 
L 1825 4091 
L 703 3866 
L 703 4441 
L 1819 4666 
L 2450 4666 
L 2450 531 
L 3481 531 
L 3481 0 
L 794 0 
L 794 531 
z
" transform="scale(0.015625)"/>
       </defs>
       <use xlink:href="#DejaVuSans-31"/>
       <use xlink:href="#DejaVuSans-30" x="63.623047"/>
       <use xlink:href="#DejaVuSans-30" x="127.246094"/>
      </g>
     </g>
    </g>
    <g id="xtick_7">
     <g id="line2d_7">
      <g>
       <use xlink:href="#mc31366f582" x="338.856846" y="307.584" style="stroke: #000000; stroke-width: 0.8"/>
      </g>
     </g>
     <g id="text_7">
      <!-- 120 -->
      <g transform="translate(329.313096 322.182437) scale(0.1 -0.1)">
       <use xlink:href="#DejaVuSans-31"/>
       <use xlink:href="#DejaVuSans-32" x="63.623047"/>
       <use xlink:href="#DejaVuSans-30" x="127.246094"/>
      </g>
     </g>
    </g>
    <g id="xtick_8">
     <g id="line2d_8">
      <g>
       <use xlink:href="#mc31366f582" x="383.027532" y="307.584" style="stroke: #000000; stroke-width: 0.8"/>
      </g>
     </g>
     <g id="text_8">
      <!-- 140 -->
      <g transform="translate(373.483782 322.182437) scale(0.1 -0.1)">
       <use xlink:href="#DejaVuSans-31"/>
       <use xlink:href="#DejaVuSans-34" x="63.623047"/>
       <use xlink:href="#DejaVuSans-30" x="127.246094"/>
      </g>
     </g>
    </g>
   </g>
   <g id="matplotlib.axis_2">
    <g id="ytick_1">
     <g id="line2d_9">
      <defs>
       <path id="m0cc4eb05b5" d="M 0 0 
L -3.5 0 
" style="stroke: #000000; stroke-width: 0.8"/>
      </defs>
      <g>
       <use xlink:href="#m0cc4eb05b5" x="57.6" y="274.421504" style="stroke: #000000; stroke-width: 0.8"/>
      </g>
     </g>
     <g id="text_9">
      <!-- −400 -->
      <g transform="translate(23.132812 278.220723) scale(0.1 -0.1)">
       <defs>
        <path id="DejaVuSans-2212" d="M 678 2272 
L 4684 2272 
L 4684 1741 
L 678 1741 
L 678 2272 
z
" transform="scale(0.015625)"/>
       </defs>
       <use xlink:href="#DejaVuSans-2212"/>
       <use xlink:href="#DejaVuSans-34" x="83.789062"/>
       <use xlink:href="#DejaVuSans-30" x="147.412109"/>
       <use xlink:href="#DejaVuSans-30" x="211.035156"/>
      </g>
     </g>
    </g>
    <g id="ytick_2">
     <g id="line2d_10">
      <g>
       <use xlink:href="#m0cc4eb05b5" x="57.6" y="228.182547" style="stroke: #000000; stroke-width: 0.8"/>
      </g>
     </g>
     <g id="text_10">
      <!-- −200 -->
      <g transform="translate(23.132812 231.981766) scale(0.1 -0.1)">
       <use xlink:href="#DejaVuSans-2212"/>
       <use xlink:href="#DejaVuSans-32" x="83.789062"/>
       <use xlink:href="#DejaVuSans-30" x="147.412109"/>
       <use xlink:href="#DejaVuSans-30" x="211.035156"/>
      </g>
     </g>
    </g>
    <g id="ytick_3">
     <g id="line2d_11">
      <g>
       <use xlink:href="#m0cc4eb05b5" x="57.6" y="181.94359" style="stroke: #000000; stroke-width: 0.8"/>
      </g>
     </g>
     <g id="text_11">
      <!-- 0 -->
      <g transform="translate(44.2375 185.742808) scale(0.1 -0.1)">
       <use xlink:href="#DejaVuSans-30"/>
      </g>
     </g>
    </g>
    <g id="ytick_4">
     <g id="line2d_12">
      <g>
       <use xlink:href="#m0cc4eb05b5" x="57.6" y="135.704633" style="stroke: #000000; stroke-width: 0.8"/>
      </g>
     </g>
     <g id="text_12">
      <!-- 200 -->
      <g transform="translate(31.5125 139.503851) scale(0.1 -0.1)">
       <use xlink:href="#DejaVuSans-32"/>
       <use xlink:href="#DejaVuSans-30" x="63.623047"/>
       <use xlink:href="#DejaVuSans-30" x="127.246094"/>
      </g>
     </g>
    </g>
    <g id="ytick_5">
     <g id="line2d_13">
      <g>
       <use xlink:href="#m0cc4eb05b5" x="57.6" y="89.465675" style="stroke: #000000; stroke-width: 0.8"/>
      </g>
     </g>
     <g id="text_13">
      <!-- 400 -->
      <g transform="translate(31.5125 93.264894) scale(0.1 -0.1)">
       <use xlink:href="#DejaVuSans-34"/>
       <use xlink:href="#DejaVuSans-30" x="63.623047"/>
       <use xlink:href="#DejaVuSans-30" x="127.246094"/>
      </g>
     </g>
    </g>
    <g id="ytick_6">
     <g id="line2d_14">
      <g>
       <use xlink:href="#m0cc4eb05b5" x="57.6" y="43.226718" style="stroke: #000000; stroke-width: 0.8"/>
      </g>
     </g>
     <g id="text_14">
      <!-- 600 -->
      <g transform="translate(31.5125 47.025937) scale(0.1 -0.1)">
       <use xlink:href="#DejaVuSans-36"/>
       <use xlink:href="#DejaVuSans-30" x="63.623047"/>
       <use xlink:href="#DejaVuSans-30" x="127.246094"/>
      </g>
     </g>
    </g>
   </g>
   <g id="line2d_15">
    <path d="M 73.832727 189.641723 
L 76.041262 187.88499 
L 78.249796 185.744722 
L 80.45833 191.212169 
L 82.666865 187.259277 
L 84.875399 186.945173 
L 87.083933 185.273559 
L 89.292468 186.222908 
L 91.501002 183.854563 
L 93.709536 186.561421 
L 95.918071 185.605705 
L 98.126605 185.409758 
L 100.335139 185.53636 
L 102.543673 185.992684 
L 104.752208 183.735368 
L 106.960742 184.108366 
L 109.169276 187.213718 
L 111.377811 188.250771 
L 113.586345 187.167699 
L 115.794879 189.615448 
L 118.003414 190.049237 
L 120.211948 188.685053 
L 122.420482 192.026665 
L 124.629017 188.741718 
L 126.837551 190.055525 
L 129.046085 188.589382 
L 131.25462 185.353292 
L 133.463154 187.252483 
L 135.671688 189.849017 
L 137.880223 185.277342 
L 140.088757 185.810519 
L 142.297291 187.356814 
L 144.505826 187.535246 
L 146.71436 187.50183 
L 148.922894 184.634221 
L 151.131429 185.312491 
L 153.339963 182.906412 
L 155.548497 193.748884 
L 157.757032 188.731357 
L 159.965566 187.956602 
L 162.1741 182.80799 
L 164.382635 188.033758 
L 166.591169 185.477324 
L 168.799703 184.554005 
L 171.008237 185.073281 
L 173.216772 185.024438 
L 175.425306 187.100388 
L 177.63384 185.523631 
L 179.842375 184.221899 
L 182.050909 191.683083 
L 184.259443 182.233332 
L 186.467978 201.084996 
L 188.676512 209.303381 
L 190.885046 207.195118 
L 193.093581 202.633058 
L 195.302115 195.278896 
L 197.510649 195.216109 
L 199.719184 196.193098 
L 201.927718 196.181643 
L 204.136252 193.655013 
L 206.344787 192.858452 
L 208.553321 190.369541 
L 210.761855 194.722748 
L 212.97039 194.018078 
L 215.178924 194.361574 
L 217.387458 194.09464 
L 219.595993 195.448238 
L 221.804527 184.80847 
L 224.013061 195.625817 
L 226.221596 188.69819 
L 228.43013 189.833414 
L 230.638664 185.305622 
L 232.847199 188.719436 
L 235.055733 187.088793 
L 237.264267 192.119369 
L 239.472801 184.501356 
L 241.681336 189.577256 
L 243.88987 190.069469 
L 246.098404 187.919251 
L 248.306939 187.02719 
L 250.515473 187.283706 
L 252.724007 188.957401 
L 254.932542 188.244256 
L 257.141076 185.639449 
L 259.34961 188.0538 
L 261.558145 187.759309 
L 263.766679 188.470163 
L 265.975213 185.181542 
L 268.183748 186.279324 
L 270.392282 185.176595 
L 272.600816 189.156422 
L 274.809351 189.951699 
L 277.017885 188.643063 
L 279.226419 189.307367 
L 281.434954 185.263937 
L 283.643488 188.504203 
L 285.852022 190.569224 
L 288.060557 191.364864 
L 290.269091 186.778129 
L 292.477625 195.647646 
L 294.68616 192.473249 
L 296.894694 193.96053 
L 299.103228 193.3518 
L 301.311763 194.968638 
L 303.520297 189.223791 
L 305.728831 192.75976 
L 307.937365 205.021929 
L 310.1459 200.340653 
L 312.354434 186.07636 
L 314.562968 200.527544 
L 316.771503 190.729506 
L 318.980037 193.710688 
L 321.188571 192.419021 
L 323.397106 191.342468 
L 325.60564 194.9366 
L 327.814174 193.047691 
L 330.022709 191.36973 
L 332.231243 193.848956 
L 334.439777 192.804401 
L 336.648312 199.598128 
L 338.856846 195.341042 
L 341.06538 187.00458 
L 343.273915 192.881281 
L 345.482449 191.486172 
L 347.690983 194.268459 
L 349.899518 188.476051 
L 352.108052 188.281903 
L 354.316586 191.259711 
L 356.525121 193.527288 
L 358.733655 189.263163 
L 360.942189 188.90898 
L 363.150724 187.324403 
L 365.359258 188.734946 
L 367.567792 191.666467 
L 369.776327 188.757131 
L 371.984861 188.53199 
L 374.193395 190.044149 
L 376.401929 186.898184 
L 378.610464 188.251297 
L 380.818998 189.18671 
L 383.027532 184.286657 
L 385.236067 191.040772 
L 387.444601 190.466306 
L 389.653135 192.069303 
L 391.86167 192.047501 
L 394.070204 188.184368 
L 396.278738 190.63461 
L 398.487273 189.923697 
L 398.487273 189.923697 
" clip-path="url(#p75e6561f18)" style="fill: none; stroke: #008000; stroke-opacity: 0.8; stroke-width: 0.5; stroke-linecap: square"/>
   </g>
   <g id="line2d_16">
    <path d="M 73.832727 177.358603 
L 76.041262 178.669892 
L 78.249796 171.264716 
L 80.45833 169.667858 
L 82.666865 178.133504 
L 84.875399 179.267465 
L 87.083933 181.989093 
L 89.292468 176.154463 
L 91.501002 179.857023 
L 93.709536 174.640211 
L 95.918071 181.741294 
L 98.126605 179.634012 
L 100.335139 178.001764 
L 102.543673 181.088124 
L 104.752208 179.506054 
L 106.960742 179.812037 
L 109.169276 163.451807 
L 111.377811 168.816371 
L 113.586345 175.245884 
L 115.794879 175.655075 
L 118.003414 167.803692 
L 120.211948 178.540353 
L 122.420482 175.704774 
L 124.629017 179.056275 
L 126.837551 177.442178 
L 129.046085 182.103157 
L 131.25462 179.358848 
L 133.463154 175.829527 
L 135.671688 185.454025 
L 137.880223 180.455809 
L 140.088757 173.793973 
L 142.297291 170.627425 
L 144.505826 176.302422 
L 146.71436 183.642837 
L 148.922894 176.658396 
L 151.131429 179.779582 
L 153.339963 168.010228 
L 155.548497 168.218337 
L 157.757032 169.128501 
L 159.965566 180.267484 
L 162.1741 177.140898 
L 164.382635 174.427445 
L 166.591169 181.896191 
L 168.799703 180.417715 
L 171.008237 179.661727 
L 173.216772 178.600522 
L 175.425306 185.552622 
L 177.63384 177.58786 
L 179.842375 175.305978 
L 182.050909 172.807388 
L 184.259443 164.284903 
L 186.467978 147.97297 
L 188.676512 135.38674 
L 190.885046 165.290566 
L 193.093581 173.805601 
L 195.302115 169.311131 
L 197.510649 181.012399 
L 199.719184 186.794052 
L 201.927718 143.353759 
L 204.136252 170.165384 
L 206.344787 178.938086 
L 208.553321 179.916797 
L 210.761855 183.409441 
L 212.97039 184.923666 
L 215.178924 161.583932 
L 217.387458 179.848951 
L 219.595993 181.016485 
L 221.804527 172.26498 
L 224.013061 162.917433 
L 226.221596 176.31166 
L 228.43013 182.093293 
L 230.638664 178.986129 
L 232.847199 175.220633 
L 235.055733 178.940372 
L 237.264267 160.417018 
L 239.472801 177.805226 
L 241.681336 161.335702 
L 243.88987 171.930009 
L 246.098404 177.575536 
L 248.306939 180.531134 
L 250.515473 177.644529 
L 252.724007 170.658959 
L 254.932542 181.511191 
L 257.141076 178.630663 
L 259.34961 171.991885 
L 261.558145 176.944922 
L 263.766679 173.666749 
L 265.975213 176.663062 
L 268.183748 178.202817 
L 270.392282 178.727747 
L 272.600816 173.967257 
L 274.809351 163.884997 
L 277.017885 176.919732 
L 279.226419 179.7066 
L 281.434954 176.836533 
L 283.643488 158.078184 
L 285.852022 172.590173 
L 288.060557 178.41437 
L 290.269091 161.149944 
L 292.477625 178.035235 
L 294.68616 162.227687 
L 296.894694 172.722779 
L 299.103228 160.405447 
L 301.311763 172.027614 
L 303.520297 172.671904 
L 305.728831 168.975797 
L 307.937365 171.843888 
L 310.1459 155.038014 
L 312.354434 169.681066 
L 314.562968 165.816982 
L 316.771503 182.637127 
L 318.980037 175.068988 
L 321.188571 178.295386 
L 323.397106 171.648423 
L 325.60564 153.59443 
L 327.814174 148.74552 
L 330.022709 166.029856 
L 332.231243 165.316564 
L 334.439777 164.851319 
L 336.648312 170.493662 
L 338.856846 180.416891 
L 341.06538 164.54844 
L 343.273915 174.389526 
L 345.482449 169.461442 
L 347.690983 174.897539 
L 349.899518 172.490756 
L 352.108052 170.962994 
L 354.316586 171.427698 
L 356.525121 174.110667 
L 358.733655 180.79913 
L 360.942189 169.272919 
L 363.150724 178.104577 
L 365.359258 171.692449 
L 367.567792 184.350646 
L 369.776327 178.476797 
L 371.984861 175.826185 
L 374.193395 182.092581 
L 376.401929 170.127256 
L 378.610464 171.678451 
L 380.818998 175.746514 
L 383.027532 167.91924 
L 385.236067 174.610079 
L 387.444601 174.586019 
L 389.653135 174.704839 
L 391.86167 179.964307 
L 394.070204 181.461501 
L 396.278738 179.690551 
L 398.487273 172.437093 
L 398.487273 172.437093 
" clip-path="url(#p75e6561f18)" style="fill: none; stroke: #32cd32; stroke-opacity: 0.8; stroke-width: 0.5; stroke-linecap: square"/>
   </g>
   <g id="line2d_17">
    <path d="M 73.832727 203.152923 
L 76.041262 196.662991 
L 78.249796 212.490201 
L 80.45833 203.111854 
L 82.666865 195.984016 
L 84.875399 192.630563 
L 87.083933 188.807749 
L 89.292468 197.114562 
L 91.501002 187.187072 
L 93.709536 193.068672 
L 95.918071 192.136988 
L 98.126605 192.436924 
L 100.335139 192.095276 
L 102.543673 191.434542 
L 104.752208 189.270139 
L 106.960742 189.127406 
L 109.169276 208.471978 
L 111.377811 212.93752 
L 113.586345 198.584523 
L 115.794879 202.791233 
L 118.003414 201.872569 
L 120.211948 224.048755 
L 122.420482 215.741998 
L 124.629017 198.146482 
L 126.837551 198.46756 
L 129.046085 191.860195 
L 131.25462 195.951674 
L 133.463154 193.924119 
L 135.671688 194.102087 
L 137.880223 190.032486 
L 140.088757 192.067562 
L 142.297291 203.229597 
L 144.505826 200.676181 
L 146.71436 193.54109 
L 148.922894 189.237025 
L 151.131429 188.951174 
L 153.339963 190.747562 
L 155.548497 210.69037 
L 157.757032 206.706775 
L 159.965566 196.449898 
L 162.1741 191.988992 
L 164.382635 199.43571 
L 166.591169 189.710929 
L 168.799703 190.858418 
L 171.008237 189.822263 
L 173.216772 191.98902 
L 175.425306 189.761528 
L 177.63384 189.90361 
L 179.842375 189.371795 
L 182.050909 201.468035 
L 184.259443 190.449255 
L 186.467978 265.515876 
L 188.676512 295.488 
L 190.885046 240.608352 
L 193.093581 227.328537 
L 195.302115 205.079708 
L 197.510649 210.428319 
L 199.719184 209.241169 
L 201.927718 234.482548 
L 204.136252 209.432627 
L 206.344787 207.173861 
L 208.553321 200.413001 
L 210.761855 201.005588 
L 212.97039 203.294855 
L 215.178924 219.452573 
L 217.387458 207.328036 
L 219.595993 206.473379 
L 221.804527 198.841693 
L 224.013061 218.641134 
L 226.221596 201.315353 
L 228.43013 201.742296 
L 230.638664 196.532003 
L 232.847199 200.816106 
L 235.055733 198.734139 
L 237.264267 213.951339 
L 239.472801 194.768906 
L 241.681336 216.116533 
L 243.88987 199.209144 
L 246.098404 199.911788 
L 248.306939 196.437064 
L 250.515473 201.278383 
L 252.724007 213.968696 
L 254.932542 197.490254 
L 257.141076 194.037402 
L 259.34961 208.241884 
L 261.558145 201.835598 
L 263.766679 212.747924 
L 265.975213 193.962163 
L 268.183748 195.124063 
L 270.392282 197.100733 
L 272.600816 204.938271 
L 274.809351 205.488543 
L 277.017885 201.280716 
L 281.434954 193.866321 
L 283.643488 220.666346 
L 285.852022 217.866646 
L 288.060557 212.884406 
L 290.269091 202.388072 
L 292.477625 218.19132 
L 294.68616 217.471274 
L 296.894694 217.246966 
L 299.103228 225.007005 
L 301.311763 209.522712 
L 303.520297 203.804084 
L 305.728831 218.846928 
L 307.937365 226.431201 
L 310.1459 232.557948 
L 312.354434 206.568092 
L 314.562968 222.968642 
L 316.771503 204.12796 
L 318.980037 216.241359 
L 321.188571 206.302241 
L 323.397106 208.731743 
L 325.60564 213.937934 
L 327.814174 226.111107 
L 330.022709 218.82373 
L 332.231243 223.956243 
L 334.439777 209.609523 
L 336.648312 248.37512 
L 338.856846 218.177672 
L 341.06538 201.666887 
L 343.273915 207.858234 
L 345.482449 212.426588 
L 347.690983 209.645337 
L 349.899518 202.117593 
L 352.108052 199.389539 
L 354.316586 207.131498 
L 356.525121 207.627791 
L 358.733655 204.216419 
L 360.942189 209.660407 
L 363.150724 208.285938 
L 365.359258 199.58998 
L 367.567792 203.277425 
L 369.776327 202.695379 
L 371.984861 198.589614 
L 374.193395 198.959041 
L 376.401929 201.366322 
L 378.610464 200.554826 
L 380.818998 207.629861 
L 383.027532 195.35063 
L 385.236067 203.500133 
L 387.444601 202.882353 
L 389.653135 203.418439 
L 391.86167 205.830594 
L 394.070204 197.133847 
L 396.278738 205.514814 
L 398.487273 209.321658 
L 398.487273 209.321658 
" clip-path="url(#p75e6561f18)" style="fill: none; stroke: #32cd32; stroke-opacity: 0.8; stroke-width: 0.5; stroke-linecap: square"/>
   </g>
   <g id="line2d_18">
    <path d="M 73.832727 176.636823 
L 76.041262 177.54394 
L 78.249796 174.234255 
L 80.45833 177.213661 
L 82.666865 178.309195 
L 84.875399 179.233064 
L 87.083933 178.546074 
L 89.292468 178.951613 
L 91.501002 177.764216 
L 93.709536 179.663883 
L 95.918071 178.662989 
L 98.126605 179.331344 
L 100.335139 179.209235 
L 102.543673 179.433198 
L 104.752208 179.924638 
L 106.960742 179.707294 
L 109.169276 176.958998 
L 111.377811 172.967708 
L 113.586345 175.733936 
L 115.794879 176.996738 
L 118.003414 173.889528 
L 120.211948 171.555802 
L 122.420482 172.779305 
L 124.629017 176.397672 
L 126.837551 176.995076 
L 129.046085 176.245118 
L 131.25462 173.47355 
L 133.463154 177.043521 
L 135.671688 178.558358 
L 137.880223 179.749756 
L 140.088757 175.881233 
L 142.297291 176.275462 
L 144.505826 174.703478 
L 146.71436 177.251999 
L 148.922894 178.161989 
L 151.131429 178.080255 
L 153.339963 175.132173 
L 155.548497 177.038888 
L 157.757032 175.848736 
L 159.965566 179.432945 
L 162.1741 176.308491 
L 164.382635 176.744184 
L 168.799703 179.413637 
L 171.008237 179.238949 
L 173.216772 177.902075 
L 175.425306 180.550102 
L 177.63384 178.891551 
L 179.842375 177.401534 
L 182.050909 178.516124 
L 184.259443 171.326346 
L 186.467978 165.976383 
L 188.676512 155.197144 
L 190.885046 159.103252 
L 193.093581 166.947941 
L 195.302115 172.15106 
L 197.510649 171.303341 
L 199.719184 175.953676 
L 201.927718 172.299142 
L 204.136252 175.120894 
L 206.344787 176.025301 
L 208.553321 177.704247 
L 210.761855 178.938503 
L 212.97039 177.362187 
L 215.178924 168.827268 
L 217.387458 173.738663 
L 219.595993 176.432746 
L 221.804527 172.109073 
L 224.013061 174.746082 
L 226.221596 173.046819 
L 228.43013 176.419455 
L 230.638664 174.553141 
L 232.847199 178.735981 
L 235.055733 175.240204 
L 237.264267 174.00735 
L 239.472801 175.189471 
L 241.681336 170.726982 
L 243.88987 176.212738 
L 246.098404 176.71569 
L 248.306939 174.444264 
L 250.515473 175.762834 
L 252.724007 172.366339 
L 254.932542 176.938953 
L 257.141076 177.368646 
L 261.558145 177.137927 
L 263.766679 174.211704 
L 265.975213 175.896794 
L 268.183748 176.243004 
L 270.392282 176.981947 
L 272.600816 174.816197 
L 274.809351 172.036448 
L 277.017885 176.604017 
L 279.226419 178.013897 
L 281.434954 176.748604 
L 283.643488 170.770732 
L 285.852022 170.639654 
L 288.060557 174.087051 
L 290.269091 166.556847 
L 292.477625 173.348425 
L 294.68616 165.240475 
L 296.894694 164.031027 
L 299.103228 170.355516 
L 301.311763 168.980816 
L 303.520297 167.219097 
L 305.728831 163.159814 
L 307.937365 168.415532 
L 310.1459 172.674384 
L 312.354434 159.806602 
L 314.562968 170.122869 
L 316.771503 174.710147 
L 318.980037 175.916867 
L 321.188571 174.310944 
L 323.397106 170.194412 
L 325.60564 169.6379 
L 327.814174 165.885333 
L 330.022709 168.480201 
L 332.231243 168.50073 
L 334.439777 169.518002 
L 336.648312 169.213854 
L 338.856846 169.466531 
L 341.06538 168.158206 
L 343.273915 169.212892 
L 345.482449 174.061427 
L 347.690983 177.709864 
L 349.899518 172.327692 
L 352.108052 170.260711 
L 354.316586 173.279666 
L 356.525121 174.119598 
L 358.733655 175.51744 
L 360.942189 175.878235 
L 363.150724 171.76228 
L 365.359258 177.280127 
L 367.567792 175.864942 
L 369.776327 175.164147 
L 371.984861 176.651667 
L 374.193395 177.956232 
L 376.401929 173.980673 
L 378.610464 174.93447 
L 380.818998 174.348596 
L 383.027532 172.993929 
L 385.236067 173.681679 
L 387.444601 175.253956 
L 389.653135 174.158635 
L 391.86167 174.454346 
L 394.070204 174.868264 
L 396.278738 177.003788 
L 398.487273 176.776394 
L 398.487273 176.776394 
" clip-path="url(#p75e6561f18)" style="fill: none; stroke: #ff0000; stroke-opacity: 0.8; stroke-width: 0.5; stroke-linecap: square"/>
   </g>
   <g id="line2d_19">
    <path d="M 73.832727 165.033971 
L 76.041262 166.339759 
L 78.249796 155.074138 
L 80.45833 160.012371 
L 82.666865 168.642933 
L 84.875399 173.362826 
L 87.083933 174.260427 
L 89.292468 169.715722 
L 91.501002 173.389383 
L 93.709536 172.01847 
L 95.918071 171.89354 
L 98.126605 173.12006 
L 100.335139 172.783682 
L 102.543673 175.139487 
L 104.752208 176.346373 
L 106.960742 176.422629 
L 109.169276 158.188954 
L 111.377811 159.1594 
L 113.586345 162.668872 
L 115.794879 164.040308 
L 118.003414 154.082247 
L 120.211948 159.871487 
L 122.420482 156.719445 
L 124.629017 165.168082 
L 126.837551 168.311818 
L 129.046085 165.897481 
L 131.25462 166.458572 
L 133.463154 162.333689 
L 135.671688 169.187392 
L 137.880223 174.513014 
L 140.088757 167.668854 
L 142.297291 163.399521 
L 144.505826 160.713707 
L 146.71436 173.66069 
L 148.922894 173.805526 
L 151.131429 171.218432 
L 153.339963 157.424504 
L 155.548497 152.040836 
L 157.757032 161.815815 
L 159.965566 173.733861 
L 162.1741 170.050943 
L 164.382635 163.926596 
L 166.591169 173.731546 
L 168.799703 176.393786 
L 171.008237 175.899026 
L 173.216772 172.456967 
L 175.425306 175.76833 
L 177.63384 170.367651 
L 179.842375 167.352862 
L 182.050909 163.546276 
L 184.259443 151.776605 
L 186.467978 113.462125 
L 188.676512 53.568 
L 190.885046 120.916614 
L 193.093581 141.299577 
L 195.302115 157.29126 
L 197.510649 147.582919 
L 199.719184 165.350679 
L 201.927718 130.532101 
L 204.136252 156.94221 
L 208.553321 168.284584 
L 210.761855 169.556099 
L 212.97039 159.137347 
L 215.178924 140.335414 
L 217.387458 155.781552 
L 219.595993 157.01841 
L 221.804527 162.049253 
L 224.013061 148.636301 
L 226.221596 160.938787 
L 228.43013 167.244264 
L 230.638664 166.691214 
L 232.847199 163.575119 
L 235.055733 167.299748 
L 237.264267 153.786918 
L 239.472801 170.719043 
L 241.681336 149.541719 
L 243.88987 160.902508 
L 246.098404 166.113689 
L 248.306939 163.776361 
L 250.515473 164.160105 
L 252.724007 154.404317 
L 254.932542 170.358451 
L 257.141076 171.422684 
L 259.34961 162.302283 
L 261.558145 165.968045 
L 263.766679 159.842926 
L 265.975213 166.816531 
L 268.183748 165.048449 
L 270.392282 172.136758 
L 272.600816 151.833178 
L 274.809351 154.673405 
L 277.017885 167.320557 
L 279.226419 168.558977 
L 281.434954 170.508682 
L 283.643488 147.51408 
L 285.852022 154.907572 
L 288.060557 165.704527 
L 290.269091 148.204579 
L 292.477625 158.944323 
L 294.68616 138.193852 
L 296.894694 143.087894 
L 299.103228 150.658992 
L 301.311763 146.124579 
L 303.520297 149.676875 
L 305.728831 122.03874 
L 307.937365 117.67381 
L 310.1459 125.067302 
L 312.354434 139.79758 
L 314.562968 140.853345 
L 316.771503 160.391562 
L 318.980037 156.566491 
L 321.188571 159.474553 
L 323.397106 154.801937 
L 325.60564 135.74849 
L 327.814174 128.80686 
L 330.022709 147.190374 
L 332.231243 140.393326 
L 334.439777 150.651325 
L 336.648312 142.35374 
L 338.856846 152.19109 
L 341.06538 151.92341 
L 345.482449 159.195202 
L 347.690983 163.457235 
L 349.899518 157.93873 
L 352.108052 155.516279 
L 354.316586 159.839054 
L 356.525121 154.847516 
L 358.733655 167.412918 
L 360.942189 160.297696 
L 363.150724 162.15715 
L 365.359258 164.22257 
L 367.567792 165.576173 
L 369.776327 165.875552 
L 371.984861 164.311111 
L 374.193395 169.848592 
L 376.401929 164.269569 
L 378.610464 164.018882 
L 380.818998 156.937638 
L 383.027532 154.091128 
L 385.236067 163.149757 
L 387.444601 163.145072 
L 389.653135 160.777639 
L 391.86167 164.148364 
L 394.070204 168.995609 
L 396.278738 169.995403 
L 398.487273 159.325786 
L 398.487273 159.325786 
" clip-path="url(#p75e6561f18)" style="fill: none; stroke: #f08080; stroke-opacity: 0.8; stroke-width: 0.5; stroke-linecap: square"/>
   </g>
   <g id="line2d_20">
    <path d="M 73.832727 185.413854 
L 76.041262 189.971851 
L 78.249796 197.977616 
L 80.45833 190.040092 
L 82.666865 187.191756 
L 84.875399 186.767453 
L 87.083933 182.911718 
L 89.292468 188.697683 
L 91.501002 180.920146 
L 93.709536 185.264343 
L 95.918071 184.599451 
L 100.335139 184.840862 
L 102.543673 184.550307 
L 104.752208 184.108727 
L 106.960742 185.001163 
L 109.169276 193.022426 
L 111.377811 187.947147 
L 113.586345 188.689866 
L 115.794879 190.455069 
L 118.003414 184.819667 
L 120.211948 208.905075 
L 122.420482 192.373376 
L 124.629017 185.386112 
L 126.837551 186.049235 
L 129.046085 186.080467 
L 131.25462 183.946497 
L 133.463154 186.441231 
L 135.671688 185.141032 
L 137.880223 185.775068 
L 140.088757 186.267683 
L 142.297291 184.912744 
L 144.505826 188.305517 
L 146.71436 184.09947 
L 148.922894 183.268331 
L 151.131429 182.803656 
L 153.339963 185.637363 
L 155.548497 189.917524 
L 157.757032 186.072753 
L 159.965566 187.815933 
L 162.1741 182.361285 
L 164.382635 186.188407 
L 166.591169 183.009366 
L 168.799703 184.197705 
L 171.008237 185.781389 
L 173.216772 185.72709 
L 175.425306 186.065867 
L 177.63384 186.008012 
L 179.842375 184.854334 
L 182.050909 189.795452 
L 184.259443 181.198331 
L 186.467978 209.427002 
L 188.676512 226.255044 
L 190.885046 194.017732 
L 193.093581 193.585831 
L 195.302115 187.787072 
L 197.510649 197.748062 
L 199.719184 185.864644 
L 201.927718 197.159633 
L 204.136252 187.266065 
L 206.344787 185.314409 
L 208.553321 185.634621 
L 210.761855 190.323972 
L 212.97039 187.138586 
L 215.178924 190.465398 
L 217.387458 191.699942 
L 219.595993 192.110431 
L 221.804527 180.549478 
L 224.013061 186.253036 
L 226.221596 187.8321 
L 228.43013 190.675765 
L 230.638664 186.556723 
L 232.847199 189.319894 
L 235.055733 187.094673 
L 237.264267 186.895802 
L 239.472801 182.042988 
L 241.681336 200.35466 
L 243.88987 188.336075 
L 246.098404 192.2641 
L 248.306939 186.72234 
L 250.515473 185.698191 
L 252.724007 189.871832 
L 254.932542 186.821822 
L 257.141076 187.051679 
L 259.34961 195.342445 
L 261.558145 187.993488 
L 263.766679 193.804498 
L 265.975213 184.326375 
L 268.183748 182.403609 
L 270.392282 187.72233 
L 272.600816 185.209119 
L 274.809351 186.662001 
L 277.017885 196.118156 
L 279.226419 184.083925 
L 281.434954 182.252282 
L 283.643488 191.317308 
L 285.852022 191.616856 
L 288.060557 185.191295 
L 290.269091 181.826547 
L 292.477625 199.714594 
L 294.68616 188.410158 
L 296.894694 193.454862 
L 299.103228 195.041203 
L 301.311763 183.557776 
L 303.520297 182.28864 
L 305.728831 203.856295 
L 307.937365 205.73701 
L 310.1459 192.440455 
L 312.354434 187.968464 
L 314.562968 200.873792 
L 316.771503 189.045859 
L 318.980037 201.734958 
L 321.188571 199.410931 
L 323.397106 188.990402 
L 325.60564 189.139179 
L 327.814174 184.76074 
L 330.022709 196.169802 
L 332.231243 203.181111 
L 334.439777 197.270066 
L 336.648312 228.328201 
L 338.856846 190.598794 
L 341.06538 194.878983 
L 343.273915 185.245047 
L 345.482449 191.083855 
L 347.690983 196.116406 
L 349.899518 186.283685 
L 352.108052 180.702588 
L 354.316586 193.564627 
L 356.525121 185.728219 
L 360.942189 192.919566 
L 363.150724 186.364953 
L 365.359258 187.853281 
L 367.567792 186.604513 
L 369.776327 188.643309 
L 371.984861 186.418304 
L 374.193395 183.220504 
L 376.401929 187.653368 
L 378.610464 191.085041 
L 380.818998 190.224946 
L 383.027532 186.611455 
L 385.236067 180.747103 
L 387.444601 190.252773 
L 389.653135 190.234203 
L 391.86167 193.977402 
L 394.070204 182.172451 
L 396.278738 189.95091 
L 398.487273 187.679489 
L 398.487273 187.679489 
" clip-path="url(#p75e6561f18)" style="fill: none; stroke: #f08080; stroke-opacity: 0.8; stroke-width: 0.5; stroke-linecap: square"/>
   </g>
   <g id="patch_3">
    <path d="M 57.6 307.584 
L 57.6 41.472 
" style="fill: none; stroke: #000000; stroke-width: 0.8; stroke-linejoin: miter; stroke-linecap: square"/>
   </g>
   <g id="patch_4">
    <path d="M 414.72 307.584 
L 414.72 41.472 
" style="fill: none; stroke: #000000; stroke-width: 0.8; stroke-linejoin: miter; stroke-linecap: square"/>
   </g>
   <g id="patch_5">
    <path d="M 57.6 307.584 
L 414.72 307.584 
" style="fill: none; stroke: #000000; stroke-width: 0.8; stroke-linejoin: miter; stroke-linecap: square"/>
   </g>
   <g id="patch_6">
    <path d="M 57.6 41.472 
L 414.72 41.472 
" style="fill: none; stroke: #000000; stroke-width: 0.8; stroke-linejoin: miter; stroke-linecap: square"/>
   </g>
   <g id="text_15">
    <!-- 1final_max_clique_snp500 -->
    <g transform="translate(157.21875 35.472) scale(0.12 -0.12)">
     <defs>
      <path id="DejaVuSans-66" d="M 2375 4863 
L 2375 4384 
L 1825 4384 
Q 1516 4384 1395 4259 
Q 1275 4134 1275 3809 
L 1275 3500 
L 2222 3500 
L 2222 3053 
L 1275 3053 
L 1275 0 
L 697 0 
L 697 3053 
L 147 3053 
L 147 3500 
L 697 3500 
L 697 3744 
Q 697 4328 969 4595 
Q 1241 4863 1831 4863 
L 2375 4863 
z
" transform="scale(0.015625)"/>
      <path id="DejaVuSans-69" d="M 603 3500 
L 1178 3500 
L 1178 0 
L 603 0 
L 603 3500 
z
M 603 4863 
L 1178 4863 
L 1178 4134 
L 603 4134 
L 603 4863 
z
" transform="scale(0.015625)"/>
      <path id="DejaVuSans-6e" d="M 3513 2113 
L 3513 0 
L 2938 0 
L 2938 2094 
Q 2938 2591 2744 2837 
Q 2550 3084 2163 3084 
Q 1697 3084 1428 2787 
Q 1159 2491 1159 1978 
L 1159 0 
L 581 0 
L 581 3500 
L 1159 3500 
L 1159 2956 
Q 1366 3272 1645 3428 
Q 1925 3584 2291 3584 
Q 2894 3584 3203 3211 
Q 3513 2838 3513 2113 
z
" transform="scale(0.015625)"/>
      <path id="DejaVuSans-61" d="M 2194 1759 
Q 1497 1759 1228 1600 
Q 959 1441 959 1056 
Q 959 750 1161 570 
Q 1363 391 1709 391 
Q 2188 391 2477 730 
Q 2766 1069 2766 1631 
L 2766 1759 
L 2194 1759 
z
M 3341 1997 
L 3341 0 
L 2766 0 
L 2766 531 
Q 2569 213 2275 61 
Q 1981 -91 1556 -91 
Q 1019 -91 701 211 
Q 384 513 384 1019 
Q 384 1609 779 1909 
Q 1175 2209 1959 2209 
L 2766 2209 
L 2766 2266 
Q 2766 2663 2505 2880 
Q 2244 3097 1772 3097 
Q 1472 3097 1187 3025 
Q 903 2953 641 2809 
L 641 3341 
Q 956 3463 1253 3523 
Q 1550 3584 1831 3584 
Q 2591 3584 2966 3190 
Q 3341 2797 3341 1997 
z
" transform="scale(0.015625)"/>
      <path id="DejaVuSans-6c" d="M 603 4863 
L 1178 4863 
L 1178 0 
L 603 0 
L 603 4863 
z
" transform="scale(0.015625)"/>
      <path id="DejaVuSans-5f" d="M 3263 -1063 
L 3263 -1509 
L -63 -1509 
L -63 -1063 
L 3263 -1063 
z
" transform="scale(0.015625)"/>
      <path id="DejaVuSans-6d" d="M 3328 2828 
Q 3544 3216 3844 3400 
Q 4144 3584 4550 3584 
Q 5097 3584 5394 3201 
Q 5691 2819 5691 2113 
L 5691 0 
L 5113 0 
L 5113 2094 
Q 5113 2597 4934 2840 
Q 4756 3084 4391 3084 
Q 3944 3084 3684 2787 
Q 3425 2491 3425 1978 
L 3425 0 
L 2847 0 
L 2847 2094 
Q 2847 2600 2669 2842 
Q 2491 3084 2119 3084 
Q 1678 3084 1418 2786 
Q 1159 2488 1159 1978 
L 1159 0 
L 581 0 
L 581 3500 
L 1159 3500 
L 1159 2956 
Q 1356 3278 1631 3431 
Q 1906 3584 2284 3584 
Q 2666 3584 2933 3390 
Q 3200 3197 3328 2828 
z
" transform="scale(0.015625)"/>
      <path id="DejaVuSans-78" d="M 3513 3500 
L 2247 1797 
L 3578 0 
L 2900 0 
L 1881 1375 
L 863 0 
L 184 0 
L 1544 1831 
L 300 3500 
L 978 3500 
L 1906 2253 
L 2834 3500 
L 3513 3500 
z
" transform="scale(0.015625)"/>
      <path id="DejaVuSans-63" d="M 3122 3366 
L 3122 2828 
Q 2878 2963 2633 3030 
Q 2388 3097 2138 3097 
Q 1578 3097 1268 2742 
Q 959 2388 959 1747 
Q 959 1106 1268 751 
Q 1578 397 2138 397 
Q 2388 397 2633 464 
Q 2878 531 3122 666 
L 3122 134 
Q 2881 22 2623 -34 
Q 2366 -91 2075 -91 
Q 1284 -91 818 406 
Q 353 903 353 1747 
Q 353 2603 823 3093 
Q 1294 3584 2113 3584 
Q 2378 3584 2631 3529 
Q 2884 3475 3122 3366 
z
" transform="scale(0.015625)"/>
      <path id="DejaVuSans-71" d="M 947 1747 
Q 947 1113 1208 752 
Q 1469 391 1925 391 
Q 2381 391 2643 752 
Q 2906 1113 2906 1747 
Q 2906 2381 2643 2742 
Q 2381 3103 1925 3103 
Q 1469 3103 1208 2742 
Q 947 2381 947 1747 
z
M 2906 525 
Q 2725 213 2448 61 
Q 2172 -91 1784 -91 
Q 1150 -91 751 415 
Q 353 922 353 1747 
Q 353 2572 751 3078 
Q 1150 3584 1784 3584 
Q 2172 3584 2448 3432 
Q 2725 3281 2906 2969 
L 2906 3500 
L 3481 3500 
L 3481 -1331 
L 2906 -1331 
L 2906 525 
z
" transform="scale(0.015625)"/>
      <path id="DejaVuSans-75" d="M 544 1381 
L 544 3500 
L 1119 3500 
L 1119 1403 
Q 1119 906 1312 657 
Q 1506 409 1894 409 
Q 2359 409 2629 706 
Q 2900 1003 2900 1516 
L 2900 3500 
L 3475 3500 
L 3475 0 
L 2900 0 
L 2900 538 
Q 2691 219 2414 64 
Q 2138 -91 1772 -91 
Q 1169 -91 856 284 
Q 544 659 544 1381 
z
M 1991 3584 
L 1991 3584 
z
" transform="scale(0.015625)"/>
      <path id="DejaVuSans-65" d="M 3597 1894 
L 3597 1613 
L 953 1613 
Q 991 1019 1311 708 
Q 1631 397 2203 397 
Q 2534 397 2845 478 
Q 3156 559 3463 722 
L 3463 178 
Q 3153 47 2828 -22 
Q 2503 -91 2169 -91 
Q 1331 -91 842 396 
Q 353 884 353 1716 
Q 353 2575 817 3079 
Q 1281 3584 2069 3584 
Q 2775 3584 3186 3129 
Q 3597 2675 3597 1894 
z
M 3022 2063 
Q 3016 2534 2758 2815 
Q 2500 3097 2075 3097 
Q 1594 3097 1305 2825 
Q 1016 2553 972 2059 
L 3022 2063 
z
" transform="scale(0.015625)"/>
      <path id="DejaVuSans-73" d="M 2834 3397 
L 2834 2853 
Q 2591 2978 2328 3040 
Q 2066 3103 1784 3103 
Q 1356 3103 1142 2972 
Q 928 2841 928 2578 
Q 928 2378 1081 2264 
Q 1234 2150 1697 2047 
L 1894 2003 
Q 2506 1872 2764 1633 
Q 3022 1394 3022 966 
Q 3022 478 2636 193 
Q 2250 -91 1575 -91 
Q 1294 -91 989 -36 
Q 684 19 347 128 
L 347 722 
Q 666 556 975 473 
Q 1284 391 1588 391 
Q 1994 391 2212 530 
Q 2431 669 2431 922 
Q 2431 1156 2273 1281 
Q 2116 1406 1581 1522 
L 1381 1569 
Q 847 1681 609 1914 
Q 372 2147 372 2553 
Q 372 3047 722 3315 
Q 1072 3584 1716 3584 
Q 2034 3584 2315 3537 
Q 2597 3491 2834 3397 
z
" transform="scale(0.015625)"/>
      <path id="DejaVuSans-70" d="M 1159 525 
L 1159 -1331 
L 581 -1331 
L 581 3500 
L 1159 3500 
L 1159 2969 
Q 1341 3281 1617 3432 
Q 1894 3584 2278 3584 
Q 2916 3584 3314 3078 
Q 3713 2572 3713 1747 
Q 3713 922 3314 415 
Q 2916 -91 2278 -91 
Q 1894 -91 1617 61 
Q 1341 213 1159 525 
z
M 3116 1747 
Q 3116 2381 2855 2742 
Q 2594 3103 2138 3103 
Q 1681 3103 1420 2742 
Q 1159 2381 1159 1747 
Q 1159 1113 1420 752 
Q 1681 391 2138 391 
Q 2594 391 2855 752 
Q 3116 1113 3116 1747 
z
" transform="scale(0.015625)"/>
      <path id="DejaVuSans-35" d="M 691 4666 
L 3169 4666 
L 3169 4134 
L 1269 4134 
L 1269 2991 
Q 1406 3038 1543 3061 
Q 1681 3084 1819 3084 
Q 2600 3084 3056 2656 
Q 3513 2228 3513 1497 
Q 3513 744 3044 326 
Q 2575 -91 1722 -91 
Q 1428 -91 1123 -41 
Q 819 9 494 109 
L 494 744 
Q 775 591 1075 516 
Q 1375 441 1709 441 
Q 2250 441 2565 725 
Q 2881 1009 2881 1497 
Q 2881 1984 2565 2268 
Q 2250 2553 1709 2553 
Q 1456 2553 1204 2497 
Q 953 2441 691 2322 
L 691 4666 
z
" transform="scale(0.015625)"/>
     </defs>
     <use xlink:href="#DejaVuSans-31"/>
     <use xlink:href="#DejaVuSans-66" x="63.623047"/>
     <use xlink:href="#DejaVuSans-69" x="98.828125"/>
     <use xlink:href="#DejaVuSans-6e" x="126.611328"/>
     <use xlink:href="#DejaVuSans-61" x="189.990234"/>
     <use xlink:href="#DejaVuSans-6c" x="251.269531"/>
     <use xlink:href="#DejaVuSans-5f" x="279.052734"/>
     <use xlink:href="#DejaVuSans-6d" x="329.052734"/>
     <use xlink:href="#DejaVuSans-61" x="426.464844"/>
     <use xlink:href="#DejaVuSans-78" x="487.744141"/>
     <use xlink:href="#DejaVuSans-5f" x="546.923828"/>
     <use xlink:href="#DejaVuSans-63" x="596.923828"/>
     <use xlink:href="#DejaVuSans-6c" x="651.904297"/>
     <use xlink:href="#DejaVuSans-69" x="679.6875"/>
     <use xlink:href="#DejaVuSans-71" x="707.470703"/>
     <use xlink:href="#DejaVuSans-75" x="770.947266"/>
     <use xlink:href="#DejaVuSans-65" x="834.326172"/>
     <use xlink:href="#DejaVuSans-5f" x="895.849609"/>
     <use xlink:href="#DejaVuSans-73" x="945.849609"/>
     <use xlink:href="#DejaVuSans-6e" x="997.949219"/>
     <use xlink:href="#DejaVuSans-70" x="1061.328125"/>
     <use xlink:href="#DejaVuSans-35" x="1124.804688"/>
     <use xlink:href="#DejaVuSans-30" x="1188.427734"/>
     <use xlink:href="#DejaVuSans-30" x="1252.050781"/>
    </g>
   </g>
   <g id="legend_1">
    <g id="patch_7">
     <path d="M 247.318437 137.54075 
L 407.72 137.54075 
Q 409.72 137.54075 409.72 135.54075 
L 409.72 48.472 
Q 409.72 46.472 407.72 46.472 
L 247.318437 46.472 
Q 245.318437 46.472 245.318437 48.472 
L 245.318437 135.54075 
Q 245.318437 137.54075 247.318437 137.54075 
z
" style="fill: #ffffff; opacity: 0.8; stroke: #cccccc; stroke-linejoin: miter"/>
    </g>
    <g id="line2d_21">
     <path d="M 249.318437 54.570438 
L 259.318437 54.570438 
L 269.318437 54.570438 
" style="fill: none; stroke: #008000; stroke-opacity: 0.8; stroke-width: 0.5; stroke-linecap: square"/>
    </g>
    <g id="text_16">
     <!-- Positive predictions -->
     <g transform="translate(277.318437 58.070438) scale(0.1 -0.1)">
      <defs>
       <path id="DejaVuSans-50" d="M 1259 4147 
L 1259 2394 
L 2053 2394 
Q 2494 2394 2734 2622 
Q 2975 2850 2975 3272 
Q 2975 3691 2734 3919 
Q 2494 4147 2053 4147 
L 1259 4147 
z
M 628 4666 
L 2053 4666 
Q 2838 4666 3239 4311 
Q 3641 3956 3641 3272 
Q 3641 2581 3239 2228 
Q 2838 1875 2053 1875 
L 1259 1875 
L 1259 0 
L 628 0 
L 628 4666 
z
" transform="scale(0.015625)"/>
       <path id="DejaVuSans-6f" d="M 1959 3097 
Q 1497 3097 1228 2736 
Q 959 2375 959 1747 
Q 959 1119 1226 758 
Q 1494 397 1959 397 
Q 2419 397 2687 759 
Q 2956 1122 2956 1747 
Q 2956 2369 2687 2733 
Q 2419 3097 1959 3097 
z
M 1959 3584 
Q 2709 3584 3137 3096 
Q 3566 2609 3566 1747 
Q 3566 888 3137 398 
Q 2709 -91 1959 -91 
Q 1206 -91 779 398 
Q 353 888 353 1747 
Q 353 2609 779 3096 
Q 1206 3584 1959 3584 
z
" transform="scale(0.015625)"/>
       <path id="DejaVuSans-74" d="M 1172 4494 
L 1172 3500 
L 2356 3500 
L 2356 3053 
L 1172 3053 
L 1172 1153 
Q 1172 725 1289 603 
Q 1406 481 1766 481 
L 2356 481 
L 2356 0 
L 1766 0 
Q 1100 0 847 248 
Q 594 497 594 1153 
L 594 3053 
L 172 3053 
L 172 3500 
L 594 3500 
L 594 4494 
L 1172 4494 
z
" transform="scale(0.015625)"/>
       <path id="DejaVuSans-76" d="M 191 3500 
L 800 3500 
L 1894 563 
L 2988 3500 
L 3597 3500 
L 2284 0 
L 1503 0 
L 191 3500 
z
" transform="scale(0.015625)"/>
       <path id="DejaVuSans-20" transform="scale(0.015625)"/>
       <path id="DejaVuSans-72" d="M 2631 2963 
Q 2534 3019 2420 3045 
Q 2306 3072 2169 3072 
Q 1681 3072 1420 2755 
Q 1159 2438 1159 1844 
L 1159 0 
L 581 0 
L 581 3500 
L 1159 3500 
L 1159 2956 
Q 1341 3275 1631 3429 
Q 1922 3584 2338 3584 
Q 2397 3584 2469 3576 
Q 2541 3569 2628 3553 
L 2631 2963 
z
" transform="scale(0.015625)"/>
       <path id="DejaVuSans-64" d="M 2906 2969 
L 2906 4863 
L 3481 4863 
L 3481 0 
L 2906 0 
L 2906 525 
Q 2725 213 2448 61 
Q 2172 -91 1784 -91 
Q 1150 -91 751 415 
Q 353 922 353 1747 
Q 353 2572 751 3078 
Q 1150 3584 1784 3584 
Q 2172 3584 2448 3432 
Q 2725 3281 2906 2969 
z
M 947 1747 
Q 947 1113 1208 752 
Q 1469 391 1925 391 
Q 2381 391 2643 752 
Q 2906 1113 2906 1747 
Q 2906 2381 2643 2742 
Q 2381 3103 1925 3103 
Q 1469 3103 1208 2742 
Q 947 2381 947 1747 
z
" transform="scale(0.015625)"/>
      </defs>
      <use xlink:href="#DejaVuSans-50"/>
      <use xlink:href="#DejaVuSans-6f" x="56.677734"/>
      <use xlink:href="#DejaVuSans-73" x="117.859375"/>
      <use xlink:href="#DejaVuSans-69" x="169.958984"/>
      <use xlink:href="#DejaVuSans-74" x="197.742188"/>
      <use xlink:href="#DejaVuSans-69" x="236.951172"/>
      <use xlink:href="#DejaVuSans-76" x="264.734375"/>
      <use xlink:href="#DejaVuSans-65" x="323.914062"/>
      <use xlink:href="#DejaVuSans-20" x="385.4375"/>
      <use xlink:href="#DejaVuSans-70" x="417.224609"/>
      <use xlink:href="#DejaVuSans-72" x="480.701172"/>
      <use xlink:href="#DejaVuSans-65" x="519.564453"/>
      <use xlink:href="#DejaVuSans-64" x="581.087891"/>
      <use xlink:href="#DejaVuSans-69" x="644.564453"/>
      <use xlink:href="#DejaVuSans-63" x="672.347656"/>
      <use xlink:href="#DejaVuSans-74" x="727.328125"/>
      <use xlink:href="#DejaVuSans-69" x="766.537109"/>
      <use xlink:href="#DejaVuSans-6f" x="794.320312"/>
      <use xlink:href="#DejaVuSans-6e" x="855.501953"/>
      <use xlink:href="#DejaVuSans-73" x="918.880859"/>
     </g>
    </g>
    <g id="line2d_22">
     <path d="M 249.318437 69.248563 
L 259.318437 69.248563 
L 269.318437 69.248563 
" style="fill: none; stroke: #32cd32; stroke-opacity: 0.8; stroke-width: 0.5; stroke-linecap: square"/>
    </g>
    <g id="text_17">
     <!-- Positive predictions max -->
     <g transform="translate(277.318437 72.748563) scale(0.1 -0.1)">
      <use xlink:href="#DejaVuSans-50"/>
      <use xlink:href="#DejaVuSans-6f" x="56.677734"/>
      <use xlink:href="#DejaVuSans-73" x="117.859375"/>
      <use xlink:href="#DejaVuSans-69" x="169.958984"/>
      <use xlink:href="#DejaVuSans-74" x="197.742188"/>
      <use xlink:href="#DejaVuSans-69" x="236.951172"/>
      <use xlink:href="#DejaVuSans-76" x="264.734375"/>
      <use xlink:href="#DejaVuSans-65" x="323.914062"/>
      <use xlink:href="#DejaVuSans-20" x="385.4375"/>
      <use xlink:href="#DejaVuSans-70" x="417.224609"/>
      <use xlink:href="#DejaVuSans-72" x="480.701172"/>
      <use xlink:href="#DejaVuSans-65" x="519.564453"/>
      <use xlink:href="#DejaVuSans-64" x="581.087891"/>
      <use xlink:href="#DejaVuSans-69" x="644.564453"/>
      <use xlink:href="#DejaVuSans-63" x="672.347656"/>
      <use xlink:href="#DejaVuSans-74" x="727.328125"/>
      <use xlink:href="#DejaVuSans-69" x="766.537109"/>
      <use xlink:href="#DejaVuSans-6f" x="794.320312"/>
      <use xlink:href="#DejaVuSans-6e" x="855.501953"/>
      <use xlink:href="#DejaVuSans-73" x="918.880859"/>
      <use xlink:href="#DejaVuSans-20" x="970.980469"/>
      <use xlink:href="#DejaVuSans-6d" x="1002.767578"/>
      <use xlink:href="#DejaVuSans-61" x="1100.179688"/>
      <use xlink:href="#DejaVuSans-78" x="1161.458984"/>
     </g>
    </g>
    <g id="line2d_23">
     <path d="M 249.318437 83.926688 
L 259.318437 83.926688 
L 269.318437 83.926688 
" style="fill: none; stroke: #32cd32; stroke-opacity: 0.8; stroke-width: 0.5; stroke-linecap: square"/>
    </g>
    <g id="text_18">
     <!-- Positive predictions min -->
     <g transform="translate(277.318437 87.426688) scale(0.1 -0.1)">
      <use xlink:href="#DejaVuSans-50"/>
      <use xlink:href="#DejaVuSans-6f" x="56.677734"/>
      <use xlink:href="#DejaVuSans-73" x="117.859375"/>
      <use xlink:href="#DejaVuSans-69" x="169.958984"/>
      <use xlink:href="#DejaVuSans-74" x="197.742188"/>
      <use xlink:href="#DejaVuSans-69" x="236.951172"/>
      <use xlink:href="#DejaVuSans-76" x="264.734375"/>
      <use xlink:href="#DejaVuSans-65" x="323.914062"/>
      <use xlink:href="#DejaVuSans-20" x="385.4375"/>
      <use xlink:href="#DejaVuSans-70" x="417.224609"/>
      <use xlink:href="#DejaVuSans-72" x="480.701172"/>
      <use xlink:href="#DejaVuSans-65" x="519.564453"/>
      <use xlink:href="#DejaVuSans-64" x="581.087891"/>
      <use xlink:href="#DejaVuSans-69" x="644.564453"/>
      <use xlink:href="#DejaVuSans-63" x="672.347656"/>
      <use xlink:href="#DejaVuSans-74" x="727.328125"/>
      <use xlink:href="#DejaVuSans-69" x="766.537109"/>
      <use xlink:href="#DejaVuSans-6f" x="794.320312"/>
      <use xlink:href="#DejaVuSans-6e" x="855.501953"/>
      <use xlink:href="#DejaVuSans-73" x="918.880859"/>
      <use xlink:href="#DejaVuSans-20" x="970.980469"/>
      <use xlink:href="#DejaVuSans-6d" x="1002.767578"/>
      <use xlink:href="#DejaVuSans-69" x="1100.179688"/>
      <use xlink:href="#DejaVuSans-6e" x="1127.962891"/>
     </g>
    </g>
    <g id="line2d_24">
     <path d="M 249.318437 98.604813 
L 259.318437 98.604813 
L 269.318437 98.604813 
" style="fill: none; stroke: #ff0000; stroke-opacity: 0.8; stroke-width: 0.5; stroke-linecap: square"/>
    </g>
    <g id="text_19">
     <!-- Negative predictions -->
     <g transform="translate(277.318437 102.104813) scale(0.1 -0.1)">
      <defs>
       <path id="DejaVuSans-4e" d="M 628 4666 
L 1478 4666 
L 3547 763 
L 3547 4666 
L 4159 4666 
L 4159 0 
L 3309 0 
L 1241 3903 
L 1241 0 
L 628 0 
L 628 4666 
z
" transform="scale(0.015625)"/>
       <path id="DejaVuSans-67" d="M 2906 1791 
Q 2906 2416 2648 2759 
Q 2391 3103 1925 3103 
Q 1463 3103 1205 2759 
Q 947 2416 947 1791 
Q 947 1169 1205 825 
Q 1463 481 1925 481 
Q 2391 481 2648 825 
Q 2906 1169 2906 1791 
z
M 3481 434 
Q 3481 -459 3084 -895 
Q 2688 -1331 1869 -1331 
Q 1566 -1331 1297 -1286 
Q 1028 -1241 775 -1147 
L 775 -588 
Q 1028 -725 1275 -790 
Q 1522 -856 1778 -856 
Q 2344 -856 2625 -561 
Q 2906 -266 2906 331 
L 2906 616 
Q 2728 306 2450 153 
Q 2172 0 1784 0 
Q 1141 0 747 490 
Q 353 981 353 1791 
Q 353 2603 747 3093 
Q 1141 3584 1784 3584 
Q 2172 3584 2450 3431 
Q 2728 3278 2906 2969 
L 2906 3500 
L 3481 3500 
L 3481 434 
z
" transform="scale(0.015625)"/>
      </defs>
      <use xlink:href="#DejaVuSans-4e"/>
      <use xlink:href="#DejaVuSans-65" x="74.804688"/>
      <use xlink:href="#DejaVuSans-67" x="136.328125"/>
      <use xlink:href="#DejaVuSans-61" x="199.804688"/>
      <use xlink:href="#DejaVuSans-74" x="261.083984"/>
      <use xlink:href="#DejaVuSans-69" x="300.292969"/>
      <use xlink:href="#DejaVuSans-76" x="328.076172"/>
      <use xlink:href="#DejaVuSans-65" x="387.255859"/>
      <use xlink:href="#DejaVuSans-20" x="448.779297"/>
      <use xlink:href="#DejaVuSans-70" x="480.566406"/>
      <use xlink:href="#DejaVuSans-72" x="544.042969"/>
      <use xlink:href="#DejaVuSans-65" x="582.90625"/>
      <use xlink:href="#DejaVuSans-64" x="644.429688"/>
      <use xlink:href="#DejaVuSans-69" x="707.90625"/>
      <use xlink:href="#DejaVuSans-63" x="735.689453"/>
      <use xlink:href="#DejaVuSans-74" x="790.669922"/>
      <use xlink:href="#DejaVuSans-69" x="829.878906"/>
      <use xlink:href="#DejaVuSans-6f" x="857.662109"/>
      <use xlink:href="#DejaVuSans-6e" x="918.84375"/>
      <use xlink:href="#DejaVuSans-73" x="982.222656"/>
     </g>
    </g>
    <g id="line2d_25">
     <path d="M 249.318437 113.282938 
L 259.318437 113.282938 
L 269.318437 113.282938 
" style="fill: none; stroke: #f08080; stroke-opacity: 0.8; stroke-width: 0.5; stroke-linecap: square"/>
    </g>
    <g id="text_20">
     <!-- Negative predictions max -->
     <g transform="translate(277.318437 116.782938) scale(0.1 -0.1)">
      <use xlink:href="#DejaVuSans-4e"/>
      <use xlink:href="#DejaVuSans-65" x="74.804688"/>
      <use xlink:href="#DejaVuSans-67" x="136.328125"/>
      <use xlink:href="#DejaVuSans-61" x="199.804688"/>
      <use xlink:href="#DejaVuSans-74" x="261.083984"/>
      <use xlink:href="#DejaVuSans-69" x="300.292969"/>
      <use xlink:href="#DejaVuSans-76" x="328.076172"/>
      <use xlink:href="#DejaVuSans-65" x="387.255859"/>
      <use xlink:href="#DejaVuSans-20" x="448.779297"/>
      <use xlink:href="#DejaVuSans-70" x="480.566406"/>
      <use xlink:href="#DejaVuSans-72" x="544.042969"/>
      <use xlink:href="#DejaVuSans-65" x="582.90625"/>
      <use xlink:href="#DejaVuSans-64" x="644.429688"/>
      <use xlink:href="#DejaVuSans-69" x="707.90625"/>
      <use xlink:href="#DejaVuSans-63" x="735.689453"/>
      <use xlink:href="#DejaVuSans-74" x="790.669922"/>
      <use xlink:href="#DejaVuSans-69" x="829.878906"/>
      <use xlink:href="#DejaVuSans-6f" x="857.662109"/>
      <use xlink:href="#DejaVuSans-6e" x="918.84375"/>
      <use xlink:href="#DejaVuSans-73" x="982.222656"/>
      <use xlink:href="#DejaVuSans-20" x="1034.322266"/>
      <use xlink:href="#DejaVuSans-6d" x="1066.109375"/>
      <use xlink:href="#DejaVuSans-61" x="1163.521484"/>
      <use xlink:href="#DejaVuSans-78" x="1224.800781"/>
     </g>
    </g>
    <g id="line2d_26">
     <path d="M 249.318437 127.961063 
L 259.318437 127.961063 
L 269.318437 127.961063 
" style="fill: none; stroke: #f08080; stroke-opacity: 0.8; stroke-width: 0.5; stroke-linecap: square"/>
    </g>
    <g id="text_21">
     <!-- Negative predictions min -->
     <g transform="translate(277.318437 131.461063) scale(0.1 -0.1)">
      <use xlink:href="#DejaVuSans-4e"/>
      <use xlink:href="#DejaVuSans-65" x="74.804688"/>
      <use xlink:href="#DejaVuSans-67" x="136.328125"/>
      <use xlink:href="#DejaVuSans-61" x="199.804688"/>
      <use xlink:href="#DejaVuSans-74" x="261.083984"/>
      <use xlink:href="#DejaVuSans-69" x="300.292969"/>
      <use xlink:href="#DejaVuSans-76" x="328.076172"/>
      <use xlink:href="#DejaVuSans-65" x="387.255859"/>
      <use xlink:href="#DejaVuSans-20" x="448.779297"/>
      <use xlink:href="#DejaVuSans-70" x="480.566406"/>
      <use xlink:href="#DejaVuSans-72" x="544.042969"/>
      <use xlink:href="#DejaVuSans-65" x="582.90625"/>
      <use xlink:href="#DejaVuSans-64" x="644.429688"/>
      <use xlink:href="#DejaVuSans-69" x="707.90625"/>
      <use xlink:href="#DejaVuSans-63" x="735.689453"/>
      <use xlink:href="#DejaVuSans-74" x="790.669922"/>
      <use xlink:href="#DejaVuSans-69" x="829.878906"/>
      <use xlink:href="#DejaVuSans-6f" x="857.662109"/>
      <use xlink:href="#DejaVuSans-6e" x="918.84375"/>
      <use xlink:href="#DejaVuSans-73" x="982.222656"/>
      <use xlink:href="#DejaVuSans-20" x="1034.322266"/>
      <use xlink:href="#DejaVuSans-6d" x="1066.109375"/>
      <use xlink:href="#DejaVuSans-69" x="1163.521484"/>
      <use xlink:href="#DejaVuSans-6e" x="1191.304688"/>
     </g>
    </g>
   </g>
  </g>
 </g>
 <defs>
  <clipPath id="p75e6561f18">
   <rect x="57.6" y="41.472" width="357.12" height="266.112"/>
  </clipPath>
 </defs>
</svg>
