<?xml version="1.0" encoding="utf-8" standalone="no"?>
<!DOCTYPE svg PUBLIC "-//W3C//DTD SVG 1.1//EN"
  "http://www.w3.org/Graphics/SVG/1.1/DTD/svg11.dtd">
<svg xmlns:xlink="http://www.w3.org/1999/xlink" width="460.8pt" height="345.6pt" viewBox="0 0 460.8 345.6" xmlns="http://www.w3.org/2000/svg" version="1.1">
 <metadata>
  <rdf:RDF xmlns:dc="http://purl.org/dc/elements/1.1/" xmlns:cc="http://creativecommons.org/ns#" xmlns:rdf="http://www.w3.org/1999/02/22-rdf-syntax-ns#">
   <cc:Work>
    <dc:type rdf:resource="http://purl.org/dc/dcmitype/StillImage"/>
    <dc:date>2024-09-06T11:35:10.603789</dc:date>
    <dc:format>image/svg+xml</dc:format>
    <dc:creator>
     <cc:Agent>
      <dc:title>Matplotlib v3.9.0, https://matplotlib.org/</dc:title>
     </cc:Agent>
    </dc:creator>
   </cc:Work>
  </rdf:RDF>
 </metadata>
 <defs>
  <style type="text/css">*{stroke-linejoin: round; stroke-linecap: butt}</style>
 </defs>
 <g id="figure_1">
  <g id="patch_1">
   <path d="M 0 345.6 
L 460.8 345.6 
L 460.8 0 
L 0 0 
z
" style="fill: #ffffff"/>
  </g>
  <g id="axes_1">
   <g id="patch_2">
    <path d="M 57.6 307.584 
L 414.72 307.584 
L 414.72 41.472 
L 57.6 41.472 
z
" style="fill: #ffffff"/>
   </g>
   <g id="matplotlib.axis_1">
    <g id="xtick_1">
     <g id="line2d_1">
      <defs>
       <path id="m5d6c2f974a" d="M 0 0 
L 0 3.5 
" style="stroke: #000000; stroke-width: 0.8"/>
      </defs>
      <g>
       <use xlink:href="#m5d6c2f974a" x="73.832727" y="307.584" style="stroke: #000000; stroke-width: 0.8"/>
      </g>
     </g>
     <g id="text_1">
      <!-- 0 -->
      <g transform="translate(70.651477 322.182437) scale(0.1 -0.1)">
       <defs>
        <path id="DejaVuSans-30" d="M 2034 4250 
Q 1547 4250 1301 3770 
Q 1056 3291 1056 2328 
Q 1056 1369 1301 889 
Q 1547 409 2034 409 
Q 2525 409 2770 889 
Q 3016 1369 3016 2328 
Q 3016 3291 2770 3770 
Q 2525 4250 2034 4250 
z
M 2034 4750 
Q 2819 4750 3233 4129 
Q 3647 3509 3647 2328 
Q 3647 1150 3233 529 
Q 2819 -91 2034 -91 
Q 1250 -91 836 529 
Q 422 1150 422 2328 
Q 422 3509 836 4129 
Q 1250 4750 2034 4750 
z
" transform="scale(0.015625)"/>
       </defs>
       <use xlink:href="#DejaVuSans-30"/>
      </g>
     </g>
    </g>
    <g id="xtick_2">
     <g id="line2d_2">
      <g>
       <use xlink:href="#m5d6c2f974a" x="149.019051" y="307.584" style="stroke: #000000; stroke-width: 0.8"/>
      </g>
     </g>
     <g id="text_2">
      <!-- 500 -->
      <g transform="translate(139.475301 322.182437) scale(0.1 -0.1)">
       <defs>
        <path id="DejaVuSans-35" d="M 691 4666 
L 3169 4666 
L 3169 4134 
L 1269 4134 
L 1269 2991 
Q 1406 3038 1543 3061 
Q 1681 3084 1819 3084 
Q 2600 3084 3056 2656 
Q 3513 2228 3513 1497 
Q 3513 744 3044 326 
Q 2575 -91 1722 -91 
Q 1428 -91 1123 -41 
Q 819 9 494 109 
L 494 744 
Q 775 591 1075 516 
Q 1375 441 1709 441 
Q 2250 441 2565 725 
Q 2881 1009 2881 1497 
Q 2881 1984 2565 2268 
Q 2250 2553 1709 2553 
Q 1456 2553 1204 2497 
Q 953 2441 691 2322 
L 691 4666 
z
" transform="scale(0.015625)"/>
       </defs>
       <use xlink:href="#DejaVuSans-35"/>
       <use xlink:href="#DejaVuSans-30" x="63.623047"/>
       <use xlink:href="#DejaVuSans-30" x="127.246094"/>
      </g>
     </g>
    </g>
    <g id="xtick_3">
     <g id="line2d_3">
      <g>
       <use xlink:href="#m5d6c2f974a" x="224.205375" y="307.584" style="stroke: #000000; stroke-width: 0.8"/>
      </g>
     </g>
     <g id="text_3">
      <!-- 1000 -->
      <g transform="translate(211.480375 322.182437) scale(0.1 -0.1)">
       <defs>
        <path id="DejaVuSans-31" d="M 794 531 
L 1825 531 
L 1825 4091 
L 703 3866 
L 703 4441 
L 1819 4666 
L 2450 4666 
L 2450 531 
L 3481 531 
L 3481 0 
L 794 0 
L 794 531 
z
" transform="scale(0.015625)"/>
       </defs>
       <use xlink:href="#DejaVuSans-31"/>
       <use xlink:href="#DejaVuSans-30" x="63.623047"/>
       <use xlink:href="#DejaVuSans-30" x="127.246094"/>
       <use xlink:href="#DejaVuSans-30" x="190.869141"/>
      </g>
     </g>
    </g>
    <g id="xtick_4">
     <g id="line2d_4">
      <g>
       <use xlink:href="#m5d6c2f974a" x="299.391698" y="307.584" style="stroke: #000000; stroke-width: 0.8"/>
      </g>
     </g>
     <g id="text_4">
      <!-- 1500 -->
      <g transform="translate(286.666698 322.182437) scale(0.1 -0.1)">
       <use xlink:href="#DejaVuSans-31"/>
       <use xlink:href="#DejaVuSans-35" x="63.623047"/>
       <use xlink:href="#DejaVuSans-30" x="127.246094"/>
       <use xlink:href="#DejaVuSans-30" x="190.869141"/>
      </g>
     </g>
    </g>
    <g id="xtick_5">
     <g id="line2d_5">
      <g>
       <use xlink:href="#m5d6c2f974a" x="374.578022" y="307.584" style="stroke: #000000; stroke-width: 0.8"/>
      </g>
     </g>
     <g id="text_5">
      <!-- 2000 -->
      <g transform="translate(361.853022 322.182437) scale(0.1 -0.1)">
       <defs>
        <path id="DejaVuSans-32" d="M 1228 531 
L 3431 531 
L 3431 0 
L 469 0 
L 469 531 
Q 828 903 1448 1529 
Q 2069 2156 2228 2338 
Q 2531 2678 2651 2914 
Q 2772 3150 2772 3378 
Q 2772 3750 2511 3984 
Q 2250 4219 1831 4219 
Q 1534 4219 1204 4116 
Q 875 4013 500 3803 
L 500 4441 
Q 881 4594 1212 4672 
Q 1544 4750 1819 4750 
Q 2544 4750 2975 4387 
Q 3406 4025 3406 3419 
Q 3406 3131 3298 2873 
Q 3191 2616 2906 2266 
Q 2828 2175 2409 1742 
Q 1991 1309 1228 531 
z
" transform="scale(0.015625)"/>
       </defs>
       <use xlink:href="#DejaVuSans-32"/>
       <use xlink:href="#DejaVuSans-30" x="63.623047"/>
       <use xlink:href="#DejaVuSans-30" x="127.246094"/>
       <use xlink:href="#DejaVuSans-30" x="190.869141"/>
      </g>
     </g>
    </g>
   </g>
   <g id="matplotlib.axis_2">
    <g id="ytick_1">
     <g id="line2d_6">
      <defs>
       <path id="m3ef4034092" d="M 0 0 
L -3.5 0 
" style="stroke: #000000; stroke-width: 0.8"/>
      </defs>
      <g>
       <use xlink:href="#m3ef4034092" x="57.6" y="295.264517" style="stroke: #000000; stroke-width: 0.8"/>
      </g>
     </g>
     <g id="text_6">
      <!-- −1.00 -->
      <g transform="translate(19.954687 299.063736) scale(0.1 -0.1)">
       <defs>
        <path id="DejaVuSans-2212" d="M 678 2272 
L 4684 2272 
L 4684 1741 
L 678 1741 
L 678 2272 
z
" transform="scale(0.015625)"/>
        <path id="DejaVuSans-2e" d="M 684 794 
L 1344 794 
L 1344 0 
L 684 0 
L 684 794 
z
" transform="scale(0.015625)"/>
       </defs>
       <use xlink:href="#DejaVuSans-2212"/>
       <use xlink:href="#DejaVuSans-31" x="83.789062"/>
       <use xlink:href="#DejaVuSans-2e" x="147.412109"/>
       <use xlink:href="#DejaVuSans-30" x="179.199219"/>
       <use xlink:href="#DejaVuSans-30" x="242.822266"/>
      </g>
     </g>
    </g>
    <g id="ytick_2">
     <g id="line2d_7">
      <g>
       <use xlink:href="#m3ef4034092" x="57.6" y="260.509131" style="stroke: #000000; stroke-width: 0.8"/>
      </g>
     </g>
     <g id="text_7">
      <!-- −0.75 -->
      <g transform="translate(19.954687 264.308349) scale(0.1 -0.1)">
       <defs>
        <path id="DejaVuSans-37" d="M 525 4666 
L 3525 4666 
L 3525 4397 
L 1831 0 
L 1172 0 
L 2766 4134 
L 525 4134 
L 525 4666 
z
" transform="scale(0.015625)"/>
       </defs>
       <use xlink:href="#DejaVuSans-2212"/>
       <use xlink:href="#DejaVuSans-30" x="83.789062"/>
       <use xlink:href="#DejaVuSans-2e" x="147.412109"/>
       <use xlink:href="#DejaVuSans-37" x="179.199219"/>
       <use xlink:href="#DejaVuSans-35" x="242.822266"/>
      </g>
     </g>
    </g>
    <g id="ytick_3">
     <g id="line2d_8">
      <g>
       <use xlink:href="#m3ef4034092" x="57.6" y="225.753744" style="stroke: #000000; stroke-width: 0.8"/>
      </g>
     </g>
     <g id="text_8">
      <!-- −0.50 -->
      <g transform="translate(19.954687 229.552963) scale(0.1 -0.1)">
       <use xlink:href="#DejaVuSans-2212"/>
       <use xlink:href="#DejaVuSans-30" x="83.789062"/>
       <use xlink:href="#DejaVuSans-2e" x="147.412109"/>
       <use xlink:href="#DejaVuSans-35" x="179.199219"/>
       <use xlink:href="#DejaVuSans-30" x="242.822266"/>
      </g>
     </g>
    </g>
    <g id="ytick_4">
     <g id="line2d_9">
      <g>
       <use xlink:href="#m3ef4034092" x="57.6" y="190.998358" style="stroke: #000000; stroke-width: 0.8"/>
      </g>
     </g>
     <g id="text_9">
      <!-- −0.25 -->
      <g transform="translate(19.954687 194.797576) scale(0.1 -0.1)">
       <use xlink:href="#DejaVuSans-2212"/>
       <use xlink:href="#DejaVuSans-30" x="83.789062"/>
       <use xlink:href="#DejaVuSans-2e" x="147.412109"/>
       <use xlink:href="#DejaVuSans-32" x="179.199219"/>
       <use xlink:href="#DejaVuSans-35" x="242.822266"/>
      </g>
     </g>
    </g>
    <g id="ytick_5">
     <g id="line2d_10">
      <g>
       <use xlink:href="#m3ef4034092" x="57.6" y="156.242971" style="stroke: #000000; stroke-width: 0.8"/>
      </g>
     </g>
     <g id="text_10">
      <!-- 0.00 -->
      <g transform="translate(28.334375 160.04219) scale(0.1 -0.1)">
       <use xlink:href="#DejaVuSans-30"/>
       <use xlink:href="#DejaVuSans-2e" x="63.623047"/>
       <use xlink:href="#DejaVuSans-30" x="95.410156"/>
       <use xlink:href="#DejaVuSans-30" x="159.033203"/>
      </g>
     </g>
    </g>
    <g id="ytick_6">
     <g id="line2d_11">
      <g>
       <use xlink:href="#m3ef4034092" x="57.6" y="121.487585" style="stroke: #000000; stroke-width: 0.8"/>
      </g>
     </g>
     <g id="text_11">
      <!-- 0.25 -->
      <g transform="translate(28.334375 125.286803) scale(0.1 -0.1)">
       <use xlink:href="#DejaVuSans-30"/>
       <use xlink:href="#DejaVuSans-2e" x="63.623047"/>
       <use xlink:href="#DejaVuSans-32" x="95.410156"/>
       <use xlink:href="#DejaVuSans-35" x="159.033203"/>
      </g>
     </g>
    </g>
    <g id="ytick_7">
     <g id="line2d_12">
      <g>
       <use xlink:href="#m3ef4034092" x="57.6" y="86.732198" style="stroke: #000000; stroke-width: 0.8"/>
      </g>
     </g>
     <g id="text_12">
      <!-- 0.50 -->
      <g transform="translate(28.334375 90.531417) scale(0.1 -0.1)">
       <use xlink:href="#DejaVuSans-30"/>
       <use xlink:href="#DejaVuSans-2e" x="63.623047"/>
       <use xlink:href="#DejaVuSans-35" x="95.410156"/>
       <use xlink:href="#DejaVuSans-30" x="159.033203"/>
      </g>
     </g>
    </g>
    <g id="ytick_8">
     <g id="line2d_13">
      <g>
       <use xlink:href="#m3ef4034092" x="57.6" y="51.976811" style="stroke: #000000; stroke-width: 0.8"/>
      </g>
     </g>
     <g id="text_13">
      <!-- 0.75 -->
      <g transform="translate(28.334375 55.77603) scale(0.1 -0.1)">
       <use xlink:href="#DejaVuSans-30"/>
       <use xlink:href="#DejaVuSans-2e" x="63.623047"/>
       <use xlink:href="#DejaVuSans-37" x="95.410156"/>
       <use xlink:href="#DejaVuSans-35" x="159.033203"/>
      </g>
     </g>
    </g>
    <g id="text_14">
     <!-- 1e6 -->
     <g transform="translate(57.6 38.472) scale(0.1 -0.1)">
      <defs>
       <path id="DejaVuSans-65" d="M 3597 1894 
L 3597 1613 
L 953 1613 
Q 991 1019 1311 708 
Q 1631 397 2203 397 
Q 2534 397 2845 478 
Q 3156 559 3463 722 
L 3463 178 
Q 3153 47 2828 -22 
Q 2503 -91 2169 -91 
Q 1331 -91 842 396 
Q 353 884 353 1716 
Q 353 2575 817 3079 
Q 1281 3584 2069 3584 
Q 2775 3584 3186 3129 
Q 3597 2675 3597 1894 
z
M 3022 2063 
Q 3016 2534 2758 2815 
Q 2500 3097 2075 3097 
Q 1594 3097 1305 2825 
Q 1016 2553 972 2059 
L 3022 2063 
z
" transform="scale(0.015625)"/>
       <path id="DejaVuSans-36" d="M 2113 2584 
Q 1688 2584 1439 2293 
Q 1191 2003 1191 1497 
Q 1191 994 1439 701 
Q 1688 409 2113 409 
Q 2538 409 2786 701 
Q 3034 994 3034 1497 
Q 3034 2003 2786 2293 
Q 2538 2584 2113 2584 
z
M 3366 4563 
L 3366 3988 
Q 3128 4100 2886 4159 
Q 2644 4219 2406 4219 
Q 1781 4219 1451 3797 
Q 1122 3375 1075 2522 
Q 1259 2794 1537 2939 
Q 1816 3084 2150 3084 
Q 2853 3084 3261 2657 
Q 3669 2231 3669 1497 
Q 3669 778 3244 343 
Q 2819 -91 2113 -91 
Q 1303 -91 875 529 
Q 447 1150 447 2328 
Q 447 3434 972 4092 
Q 1497 4750 2381 4750 
Q 2619 4750 2861 4703 
Q 3103 4656 3366 4563 
z
" transform="scale(0.015625)"/>
      </defs>
      <use xlink:href="#DejaVuSans-31"/>
      <use xlink:href="#DejaVuSans-65" x="63.623047"/>
      <use xlink:href="#DejaVuSans-36" x="125.146484"/>
     </g>
    </g>
   </g>
   <g id="line2d_14">
    <path d="M 73.832727 156.35069 
L 74.133473 156.426093 
L 74.283845 156.59042 
L 74.584591 156.448821 
L 74.885336 156.727356 
L 75.186081 156.994517 
L 75.787572 157.236226 
L 76.088317 157.579385 
L 76.23869 157.636558 
L 76.389062 157.829224 
L 76.539435 157.794574 
L 76.84018 158.093807 
L 77.140926 158.065676 
L 77.441671 158.144225 
L 77.742416 158.358609 
L 78.193534 158.580096 
L 78.795025 158.841508 
L 79.246143 158.750572 
L 80.449124 159.212932 
L 80.599496 159.185685 
L 81.200987 159.48781 
L 82.103223 159.522457 
L 82.253596 159.594838 
L 82.554341 159.50688 
L 83.456577 159.764369 
L 84.358813 159.902561 
L 84.659558 160.076788 
L 86.313657 160.798496 
L 86.46403 160.722463 
L 86.915148 160.958826 
L 89.772228 161.787795 
L 90.524091 161.840939 
L 90.824836 161.810503 
L 96.839742 162.551722 
L 97.741978 162.787819 
L 98.193096 162.80995 
L 98.794587 163.018792 
L 99.245705 163.239741 
L 99.847195 163.479693 
L 100.147941 163.611098 
L 100.599058 163.686286 
L 101.050176 163.705017 
L 110.674026 165.202492 
L 111.877007 165.539217 
L 112.779243 165.852715 
L 113.230361 165.950502 
L 116.839304 167.235816 
L 117.14005 167.210039 
L 120.598621 167.618384 
L 121.200111 167.703026 
L 121.801602 167.732786 
L 122.403092 167.925425 
L 122.85421 167.9602 
L 123.906819 168.067908 
L 124.809055 168.228582 
L 125.410545 168.328129 
L 125.861663 168.332344 
L 129.320234 168.713005 
L 133.681041 169.573576 
L 135.485513 170.182663 
L 137.741102 170.821327 
L 138.041848 171.019745 
L 139.846319 171.372759 
L 145.259735 172.816952 
L 145.56048 172.826391 
L 147.214579 173.143569 
L 147.515324 173.129202 
L 148.116815 173.32228 
L 148.718306 173.568437 
L 149.319796 173.876727 
L 149.620541 173.917605 
L 150.372405 174.256627 
L 150.67315 174.564359 
L 150.823523 174.322341 
L 150.973895 174.516395 
L 151.575386 174.375396 
L 151.725759 174.547785 
L 152.026504 174.446188 
L 152.477622 174.683528 
L 152.627994 174.771414 
L 152.92874 174.619868 
L 153.229485 174.651767 
L 153.379858 174.55458 
L 153.53023 174.683838 
L 153.680603 174.536746 
L 154.282094 174.875236 
L 155.78582 175.09202 
L 156.688056 175.579109 
L 156.838429 175.529343 
L 157.289547 175.663492 
L 157.590292 175.687304 
L 157.891037 175.655095 
L 158.04141 175.559553 
L 158.943646 175.819358 
L 159.244391 175.721025 
L 159.545136 175.753604 
L 160.89849 175.889033 
L 161.349608 175.992624 
L 161.800726 176.000979 
L 163.304452 176.123483 
L 163.905943 176.156989 
L 164.808179 176.086736 
L 165.259297 176.164243 
L 165.860787 176.219458 
L 166.311905 176.319699 
L 166.612651 176.4163 
L 167.063769 176.44522 
L 168.417122 176.562799 
L 168.717868 176.516912 
L 169.018613 176.789488 
L 169.469731 176.855412 
L 170.071222 176.885372 
L 171.12383 176.935812 
L 171.424575 176.976711 
L 172.326811 177.031923 
L 173.529792 177.007315 
L 175.484637 177.308901 
L 176.837991 177.316883 
L 177.138736 177.437894 
L 179.09358 177.597225 
L 179.394326 177.652368 
L 184.20625 178.424261 
L 184.657368 178.570429 
L 186.010722 178.755695 
L 186.612213 178.81484 
L 187.364076 178.899515 
L 187.815194 178.864123 
L 189.619666 178.978862 
L 189.770038 178.584717 
L 190.070784 178.766006 
L 191.123392 179.31744 
L 191.273765 179.268079 
L 191.875255 179.517871 
L 192.476746 179.571713 
L 193.378982 179.795674 
L 193.679727 179.949987 
L 195.935317 180.446082 
L 196.386435 180.632279 
L 196.837553 180.698869 
L 196.987925 180.881515 
L 197.439043 180.9586 
L 198.040534 181.097548 
L 198.341279 181.241755 
L 198.94277 181.182716 
L 199.393888 181.359388 
L 199.995378 181.494506 
L 201.047987 181.425487 
L 201.649477 181.602653 
L 201.79985 181.570367 
L 201.950223 181.677528 
L 202.250968 181.704541 
L 203.153204 181.975542 
L 203.754695 182.056022 
L 204.957676 182.180152 
L 205.258421 182.239031 
L 205.859912 182.209494 
L 206.91252 182.305142 
L 208.265874 182.434183 
L 210.220718 182.654013 
L 210.521464 182.851021 
L 211.4237 183.070655 
L 213.378544 183.540298 
L 213.679289 183.628677 
L 214.28078 183.757736 
L 215.784506 184.072232 
L 216.235624 183.933537 
L 216.53637 183.976885 
L 218.641587 184.364756 
L 218.942332 184.357398 
L 219.092705 184.326105 
L 219.39345 184.428662 
L 221.498667 184.701717 
L 222.25053 184.841758 
L 223.152766 185.010706 
L 223.453511 185.219851 
L 224.055002 185.408494 
L 224.205375 185.545159 
L 224.50612 185.559706 
L 225.408356 185.863125 
L 225.709101 186.120438 
L 225.859474 186.050979 
L 226.160219 186.187766 
L 226.460964 186.320031 
L 226.76171 186.459863 
L 227.062455 186.480423 
L 227.513573 186.88612 
L 227.814318 187.057975 
L 228.566181 187.205274 
L 228.716554 187.011248 
L 228.866927 187.029981 
L 229.468417 187.437169 
L 229.769162 187.645351 
L 229.919535 187.596087 
L 230.370653 187.789425 
L 230.521026 187.710772 
L 230.821771 187.78222 
L 230.972144 187.784288 
L 231.423262 188.040592 
L 231.573634 188.07673 
L 231.87438 188.630886 
L 232.325497 188.82403 
L 232.47587 188.775573 
L 232.626243 188.941511 
L 232.776615 188.894334 
L 233.077361 189.154568 
L 233.227733 189.424246 
L 233.378106 189.42566 
L 234.129969 189.992912 
L 234.430715 190.515576 
L 234.581087 190.427765 
L 235.33295 191.660984 
L 235.784068 190.84332 
L 236.084814 191.628927 
L 236.385559 191.25691 
L 236.535932 191.22798 
L 236.686304 191.367518 
L 236.98705 191.293331 
L 237.137422 190.755818 
L 237.287795 191.218581 
L 237.438168 191.145454 
L 237.889285 191.731731 
L 238.039658 191.475066 
L 238.340403 192.299257 
L 238.490776 192.409534 
L 238.641149 192.361856 
L 238.791521 192.537862 
L 239.092267 193.332053 
L 239.242639 193.385363 
L 239.543385 193.737337 
L 239.693757 193.769117 
L 239.84413 194.822489 
L 239.994503 194.883451 
L 240.144875 194.699052 
L 240.295248 195.146446 
L 240.595993 195.081822 
L 240.746366 195.330224 
L 240.896738 195.267303 
L 241.347856 195.887185 
L 241.498229 196.493007 
L 241.648602 196.537878 
L 241.798974 196.759066 
L 242.09972 195.589271 
L 242.250092 195.736003 
L 242.550838 195.311243 
L 242.70121 195.314692 
L 242.851583 195.189683 
L 243.001955 195.840515 
L 243.152328 195.688288 
L 243.302701 196.010248 
L 243.453073 196.043562 
L 243.904191 196.837126 
L 244.505682 197.795819 
L 244.656055 197.670084 
L 244.806427 198.090516 
L 245.107173 197.394737 
L 245.257545 197.543899 
L 245.407918 197.853017 
L 245.55829 197.742917 
L 245.859036 197.858207 
L 246.009408 197.771545 
L 246.159781 197.388125 
L 246.310154 197.452068 
L 246.460526 197.290178 
L 246.610899 197.352203 
L 246.911644 198.109765 
L 247.062017 198.15676 
L 247.362762 198.663495 
L 247.513135 198.656022 
L 247.81388 198.846306 
L 247.964253 198.694085 
L 248.264998 199.016564 
L 248.415371 198.981056 
L 248.565743 198.755638 
L 248.716116 199.17266 
L 248.866489 199.223617 
L 249.167234 199.820137 
L 249.317607 199.885009 
L 249.467979 200.390623 
L 249.919097 200.209647 
L 250.06947 200.118501 
L 250.219843 199.526944 
L 250.370215 199.500578 
L 250.520588 199.644986 
L 250.821333 199.068309 
L 251.122078 199.031533 
L 251.272451 199.030877 
L 251.573196 200.14059 
L 251.723569 200.313605 
L 251.873942 200.249805 
L 252.024314 200.947482 
L 252.32506 200.994745 
L 252.475432 201.276394 
L 252.625805 200.897591 
L 252.776178 201.591276 
L 252.92655 201.509265 
L 253.377668 202.288039 
L 253.528041 202.080948 
L 253.678413 202.381402 
L 253.828786 201.451464 
L 254.129531 201.943538 
L 254.279904 201.649974 
L 254.430277 201.865094 
L 254.580649 201.66944 
L 254.731022 201.774953 
L 254.881395 201.241079 
L 255.031767 202.110106 
L 255.18214 201.923619 
L 255.332513 202.338296 
L 255.482885 202.251793 
L 255.78363 203.526058 
L 256.084376 204.218225 
L 256.385121 204.294259 
L 256.986612 205.772208 
L 257.136984 206.255009 
L 257.43773 206.066912 
L 257.588102 206.373442 
L 257.738475 206.1878 
L 257.888848 206.366163 
L 258.03922 207.107255 
L 258.189593 207.141351 
L 258.339965 207.429688 
L 258.490338 207.287046 
L 258.791083 208.40276 
L 258.941456 208.583941 
L 259.091829 208.572003 
L 259.242201 208.887334 
L 259.392574 208.866374 
L 259.693319 209.485171 
L 259.843692 209.171336 
L 260.29481 210.089347 
L 260.445183 209.881613 
L 260.595555 210.048261 
L 260.745928 210.481117 
L 260.8963 210.442855 
L 261.046673 210.634509 
L 261.347418 210.485977 
L 261.798536 210.969977 
L 261.948909 210.947556 
L 262.249654 211.198731 
L 262.400027 211.246083 
L 262.851145 211.900194 
L 263.15189 211.847091 
L 264.054126 212.282294 
L 264.204499 212.240462 
L 264.505244 212.8608 
L 265.40748 214.533911 
L 265.557853 214.632737 
L 265.708225 215.00744 
L 266.309716 214.916245 
L 266.911206 216.271338 
L 267.061579 216.229127 
L 267.211952 216.741477 
L 267.362324 216.779403 
L 267.512697 216.947822 
L 267.66307 216.913027 
L 267.813442 217.566969 
L 268.26456 217.900146 
L 268.414933 217.833678 
L 268.565305 218.066884 
L 269.016423 219.281306 
L 269.317169 219.732471 
L 269.467541 219.625098 
L 269.617914 219.951905 
L 269.768287 219.891674 
L 270.069032 220.503941 
L 270.219405 220.65828 
L 270.369777 220.546142 
L 270.52015 220.656443 
L 270.971268 221.383943 
L 271.12164 221.529991 
L 271.422386 222.270286 
L 271.572758 221.615853 
L 271.723131 221.740708 
L 271.873504 222.011614 
L 272.023876 221.984896 
L 273.226858 223.785416 
L 273.37723 223.79874 
L 273.677975 223.248643 
L 273.978721 224.180169 
L 274.129093 223.915095 
L 274.279466 224.004855 
L 274.429839 224.240491 
L 274.730584 224.164608 
L 274.880957 224.314013 
L 275.482447 225.684436 
L 275.63282 225.834925 
L 275.933565 226.871401 
L 276.083938 226.764634 
L 276.23431 226.799397 
L 276.384683 227.050621 
L 276.535056 227.05932 
L 276.986174 227.930496 
L 277.136546 228.172501 
L 277.286919 228.967037 
L 277.437292 228.98642 
L 278.038782 230.417759 
L 278.339528 229.935875 
L 278.4899 230.142438 
L 278.640273 230.138871 
L 278.790646 230.492274 
L 279.091391 230.330601 
L 279.392136 231.130738 
L 279.692881 231.260236 
L 279.843254 231.313671 
L 279.993627 231.699482 
L 280.143999 231.684116 
L 280.294372 231.498331 
L 280.595117 231.699817 
L 280.74549 231.982933 
L 280.895863 232.640569 
L 281.497353 232.466843 
L 281.798098 232.894399 
L 282.098844 232.36662 
L 282.249216 232.556078 
L 282.399589 232.200316 
L 282.700334 232.846515 
L 282.850707 232.753177 
L 283.00108 232.490736 
L 283.151452 232.746932 
L 283.301825 232.661348 
L 283.452198 233.004458 
L 283.60257 232.589855 
L 284.053688 233.672942 
L 284.204061 233.630149 
L 284.504806 233.834766 
L 284.805551 233.073902 
L 284.955924 233.280064 
L 285.256669 233.983008 
L 285.407042 234.054951 
L 285.557415 233.884884 
L 285.707787 234.042941 
L 286.008533 234.68074 
L 286.158905 234.277986 
L 286.309278 234.410935 
L 286.459651 234.802096 
L 286.760396 234.540368 
L 287.061141 234.810401 
L 287.211514 234.851255 
L 287.361886 235.144896 
L 287.512259 235.151289 
L 287.662632 235.601554 
L 287.963377 235.755167 
L 288.264122 236.087206 
L 288.414495 235.745856 
L 288.564868 235.761298 
L 288.71524 236.004507 
L 288.865613 235.977124 
L 289.166358 236.442133 
L 289.467103 236.467986 
L 289.617476 236.209085 
L 290.218967 236.596421 
L 290.519712 236.913433 
L 290.670085 237.235176 
L 290.820457 237.107464 
L 291.121203 237.355795 
L 291.572321 237.495379 
L 291.873066 237.424591 
L 292.023438 236.942409 
L 292.173811 236.834553 
L 292.474556 237.426265 
L 293.22642 237.997085 
L 293.677538 238.25534 
L 293.82791 238.037237 
L 293.978283 238.148799 
L 294.128656 238.821281 
L 294.279028 238.87692 
L 294.730146 239.467939 
L 294.880519 239.559495 
L 295.331637 239.418873 
L 295.632382 239.566788 
L 295.782755 239.901695 
L 295.933127 239.910353 
L 296.0835 239.47226 
L 296.534618 239.563834 
L 296.684991 239.528868 
L 296.835363 239.801248 
L 296.985736 239.778794 
L 297.286481 240.236983 
L 297.587226 240.202313 
L 297.887972 241.423317 
L 298.038344 241.496654 
L 298.188717 241.424663 
L 298.33909 241.098947 
L 298.639835 241.379818 
L 298.790208 241.462056 
L 299.090953 242.169618 
L 299.241326 241.833024 
L 299.542071 242.132408 
L 299.692443 242.027506 
L 299.993189 242.592676 
L 300.293934 242.888014 
L 300.895425 243.063024 
L 301.496915 243.911014 
L 301.647288 243.95751 
L 301.948033 244.487946 
L 302.248778 244.638748 
L 302.399151 244.496457 
L 303.000642 245.110276 
L 303.301387 244.79074 
L 303.45176 244.958057 
L 303.602132 244.956176 
L 303.902878 245.116737 
L 304.05325 244.807664 
L 304.353996 245.205824 
L 304.504368 245.095546 
L 304.805113 245.281925 
L 304.955486 245.213125 
L 305.256231 245.585437 
L 305.556977 245.569357 
L 305.857722 245.553343 
L 306.158467 245.878678 
L 306.30884 245.648868 
L 306.609585 245.979207 
L 306.910331 245.815436 
L 307.211076 246.004988 
L 307.361448 245.936118 
L 307.511821 246.221491 
L 307.662194 245.852216 
L 307.962939 245.910469 
L 308.113312 245.801287 
L 308.263684 245.453487 
L 308.414057 245.715585 
L 308.56443 245.596899 
L 309.16592 246.574781 
L 309.316293 246.49857 
L 309.466666 246.703498 
L 309.617038 246.71275 
L 309.767411 247.030828 
L 309.917783 246.934535 
L 310.218529 247.424487 
L 310.368901 247.389648 
L 310.820019 247.730316 
L 311.120765 247.899674 
L 311.271137 248.024718 
L 311.571883 248.575334 
L 311.722255 248.307222 
L 312.023001 248.5923 
L 312.323746 248.880653 
L 312.624491 249.239693 
L 313.075609 249.080081 
L 313.225982 249.016599 
L 313.376354 248.823776 
L 313.526727 248.32823 
L 313.827472 248.624269 
L 313.977845 248.386816 
L 314.128218 248.501631 
L 314.27859 248.436099 
L 314.579336 248.908219 
L 314.729708 249.070522 
L 314.880081 249.063054 
L 315.331199 249.639555 
L 316.53418 250.265883 
L 316.834925 250.596713 
L 317.436416 251.124545 
L 317.737161 251.046136 
L 317.887534 251.013728 
L 318.188279 251.269814 
L 318.489024 251.433501 
L 318.639397 251.37862 
L 318.940142 251.931798 
L 319.692006 252.264961 
L 319.842378 252.163067 
L 319.992751 252.243245 
L 320.293496 252.723703 
L 321.64685 253.397212 
L 322.097968 253.656497 
L 322.549086 254.128311 
L 323.150576 254.474721 
L 323.451322 254.584334 
L 323.601694 254.31577 
L 324.353558 254.781812 
L 324.50393 254.816218 
L 324.654303 254.668259 
L 324.955048 254.667659 
L 325.105421 254.866389 
L 325.406166 254.941339 
L 325.706911 255.000021 
L 326.458775 255.099359 
L 326.609147 255.160968 
L 326.909893 255.590939 
L 327.210638 255.803028 
L 327.361011 255.613426 
L 327.962501 256.003527 
L 328.112874 255.984329 
L 328.864737 256.393722 
L 329.165482 256.401353 
L 329.766973 256.634145 
L 330.368464 256.80632 
L 330.669209 257.026377 
L 332.172935 257.421237 
L 332.624053 257.779705 
L 333.225544 258.231521 
L 334.278152 259.040862 
L 335.180388 259.552432 
L 335.631506 259.752783 
L 335.932251 259.308704 
L 336.082624 259.698919 
L 336.533742 259.93238 
L 337.135233 260.403244 
L 337.435978 260.538579 
L 337.736723 260.468178 
L 338.338214 260.810045 
L 338.939704 261.006021 
L 339.24045 261.164252 
L 339.992313 261.341998 
L 340.142686 261.313632 
L 341.195294 261.981578 
L 341.646412 262.081178 
L 342.398275 262.516024 
L 342.699021 262.65608 
L 343.300511 262.980108 
L 345.255356 264.051861 
L 345.556101 264.371766 
L 346.007219 264.9158 
L 346.307964 265.108995 
L 346.458337 265.122289 
L 346.608709 265.266596 
L 346.909455 265.638863 
L 347.962063 266.218956 
L 348.112436 266.423243 
L 348.262809 266.38723 
L 348.864299 267.00809 
L 350.518398 268.201013 
L 350.668771 268.607733 
L 350.819144 268.612554 
L 351.119889 268.903524 
L 351.721379 269.19204 
L 352.32287 269.321864 
L 352.924361 269.727674 
L 353.074733 269.585624 
L 353.826596 269.654213 
L 353.976969 269.506069 
L 354.277714 269.632393 
L 354.728832 270.34358 
L 354.879205 270.355371 
L 355.029578 270.529399 
L 355.17995 270.986114 
L 355.330323 270.978809 
L 355.631068 271.265919 
L 355.781441 271.432958 
L 355.931814 271.387624 
L 356.082186 271.600784 
L 356.232559 271.531923 
L 356.533304 271.848022 
L 356.683677 271.769173 
L 356.834049 271.900742 
L 357.134795 272.268301 
L 357.43554 272.573114 
L 357.886658 272.924985 
L 358.638521 273.600006 
L 358.939266 274.060547 
L 359.991875 274.96884 
L 360.142248 274.832847 
L 360.593366 275.062841 
L 360.894111 275.283715 
L 361.345229 276.055749 
L 361.645974 276.207542 
L 361.796347 276.244678 
L 361.946719 276.088567 
L 362.54821 276.440056 
L 362.999328 276.562044 
L 363.450446 276.891385 
L 363.901564 277.215199 
L 364.202309 277.380466 
L 364.503054 277.406884 
L 365.254918 277.5985 
L 365.40529 277.48183 
L 365.856408 277.61921 
L 366.157154 277.830014 
L 367.811253 278.411617 
L 368.111998 278.396382 
L 369.314979 278.735822 
L 369.91647 279.636899 
L 370.668333 279.948813 
L 371.269824 280.44663 
L 371.720942 280.772506 
L 371.871314 280.830862 
L 372.623177 281.678487 
L 372.77355 281.766195 
L 372.923923 282.030986 
L 373.074295 282.033589 
L 373.826159 282.775162 
L 374.427649 283.359862 
L 374.578022 283.278167 
L 375.179512 283.483294 
L 377.435102 283.886068 
L 378.036593 283.856981 
L 378.337338 283.540665 
L 379.089201 283.85744 
L 379.690692 283.934295 
L 379.841064 284.007529 
L 379.991437 284.247888 
L 380.14181 284.238207 
L 380.292182 284.092772 
L 381.194418 284.297579 
L 381.495164 284.350941 
L 382.247027 284.488789 
L 383.299635 284.817395 
L 383.600381 284.803576 
L 384.803362 285.188073 
L 385.104107 285.396652 
L 386.307088 285.912373 
L 386.457461 285.888838 
L 387.961187 287.39585 
L 388.11156 287.463391 
L 388.412305 288.208973 
L 388.713051 288.400265 
L 389.013796 288.570339 
L 389.615287 289.076146 
L 389.765659 289.052878 
L 390.667895 289.763681 
L 391.119013 290.282359 
L 391.419758 290.345448 
L 391.570131 290.293305 
L 391.720504 290.693079 
L 391.870876 290.542584 
L 392.321994 290.9552 
L 392.472367 291.008225 
L 392.622739 290.908093 
L 392.923485 291.380128 
L 393.22423 291.667538 
L 393.524975 291.778092 
L 394.427211 292.849289 
L 394.727957 293.613601 
L 395.028702 293.646908 
L 395.179074 293.841608 
L 395.47982 293.902081 
L 395.630192 293.626572 
L 395.780565 293.733366 
L 396.08131 294.104184 
L 396.231683 294.017581 
L 396.382056 294.188 
L 396.532428 294.179833 
L 396.682801 294.466758 
L 396.833174 294.447244 
L 397.133919 294.747907 
L 397.434664 294.929431 
L 397.585037 294.941306 
L 397.735409 295.15405 
L 397.885782 295.136232 
L 398.036155 295.358022 
L 398.3369 295.377246 
L 398.487273 295.488 
L 398.487273 295.488 
" clip-path="url(#p1b59d2b9da)" style="fill: none; stroke: #1f77b4; stroke-opacity: 0.7; stroke-width: 1.5; stroke-linecap: square"/>
   </g>
   <g id="line2d_15">
    <path d="M 73.832727 156.320474 
L 74.133473 156.159944 
L 74.283845 156.203819 
L 74.584591 155.896145 
L 74.734963 156.040255 
L 74.885336 156.016673 
L 75.186081 156.191268 
L 75.937944 156.241165 
L 76.088317 156.31172 
L 76.539435 156.18293 
L 76.84018 156.176713 
L 77.140926 155.892439 
L 77.291298 155.939506 
L 77.592043 155.772715 
L 77.892789 155.846065 
L 78.193534 155.787524 
L 78.945397 155.567079 
L 79.246143 155.308461 
L 79.998006 155.162435 
L 80.298751 154.998744 
L 81.652105 154.903863 
L 83.005459 154.456754 
L 83.155831 154.467539 
L 83.456577 154.31385 
L 83.757322 154.273066 
L 85.110676 154.255494 
L 85.411421 154.211523 
L 86.313657 154.22953 
L 86.46403 154.077441 
L 86.764775 154.044638 
L 87.06552 154.060963 
L 87.516638 153.931576 
L 87.967756 153.959006 
L 89.020365 153.632145 
L 89.471483 153.611007 
L 92.930053 153.094027 
L 93.531544 152.960487 
L 93.982662 152.899784 
L 94.584153 152.880724 
L 95.035271 152.868956 
L 95.336016 152.780211 
L 98.794587 152.552673 
L 99.095332 152.599164 
L 100.448686 152.53975 
L 101.80204 152.19115 
L 103.456139 152.046456 
L 103.907257 152.047146 
L 104.358375 151.995 
L 105.410983 151.989166 
L 107.5162 151.750368 
L 108.117691 151.761009 
L 108.568809 151.728286 
L 109.77179 151.732584 
L 112.328125 151.615956 
L 112.779243 151.632103 
L 115.185205 151.530922 
L 117.591168 151.401337 
L 117.891913 151.226303 
L 118.343031 151.197695 
L 118.794149 151.103341 
L 120.899366 150.917859 
L 121.951974 150.823531 
L 123.004583 150.802642 
L 123.455701 150.709569 
L 123.906819 150.675024 
L 124.809055 150.622405 
L 125.410545 150.609481 
L 125.861663 150.529665 
L 127.215017 150.450618 
L 144.658244 149.746783 
L 144.808617 149.694754 
L 144.958989 149.786807 
L 145.410107 149.620466 
L 146.312343 149.701058 
L 149.019051 149.239174 
L 149.921287 149.235975 
L 150.222032 149.266205 
L 150.522777 149.315776 
L 150.67315 149.440874 
L 150.823523 149.138638 
L 150.973895 149.267996 
L 151.575386 148.834753 
L 151.725759 148.963413 
L 152.026504 148.764118 
L 152.778367 148.770603 
L 152.92874 148.610283 
L 153.079112 148.638863 
L 153.830976 148.230253 
L 153.981348 148.351546 
L 155.334702 147.947866 
L 156.236938 147.992325 
L 157.139174 148.033296 
L 157.891037 147.720375 
L 158.04141 147.580684 
L 158.492528 147.563853 
L 160.146627 147.390556 
L 160.597745 147.309475 
L 161.951099 147.149781 
L 162.702962 147.073213 
L 164.056316 146.860303 
L 164.357061 146.6422 
L 164.808179 146.542799 
L 165.259297 146.502372 
L 167.364514 146.180828 
L 168.116377 146.065072 
L 168.417122 145.991912 
L 168.717868 145.859412 
L 169.018613 146.043176 
L 169.469731 145.965252 
L 170.221594 145.777136 
L 170.672712 145.693224 
L 173.680165 144.959012 
L 174.131283 144.961349 
L 174.883146 144.757066 
L 175.635009 144.733478 
L 177.439481 144.529707 
L 177.740227 144.500225 
L 179.695071 144.23783 
L 180.146189 144.280328 
L 180.597307 144.222032 
L 181.649915 144.170817 
L 182.101033 144.092789 
L 183.003269 144.025624 
L 183.304014 144.038562 
L 183.755132 143.96674 
L 184.807741 143.901206 
L 185.409232 143.87904 
L 186.912958 143.589472 
L 187.364076 143.475105 
L 187.664821 143.370692 
L 189.018175 143.262769 
L 189.31892 143.105786 
L 189.619666 143.076791 
L 189.770038 142.645769 
L 189.920411 142.704125 
L 190.371529 142.558415 
L 191.57451 142.592486 
L 192.476746 142.366225 
L 196.837553 141.85133 
L 196.987925 141.962177 
L 197.890161 141.779065 
L 198.491652 141.725152 
L 198.792397 141.563973 
L 199.845006 141.590851 
L 201.79985 141.345729 
L 201.950223 141.414058 
L 202.250968 141.291134 
L 203.303577 141.121373 
L 203.754695 140.965267 
L 204.807303 140.751839 
L 206.611775 140.409933 
L 209.919973 139.830531 
L 210.220718 139.829989 
L 210.371091 139.945231 
L 210.822209 139.83432 
L 211.122954 139.859815 
L 211.4237 139.734915 
L 212.927426 139.555225 
L 213.980035 139.385224 
L 214.431152 139.254912 
L 215.934879 139.029466 
L 216.085252 138.848608 
L 216.385997 138.796846 
L 218.641587 138.568751 
L 219.092705 138.420966 
L 219.39345 138.423911 
L 222.852021 138.147046 
L 223.904629 138.20981 
L 225.408356 138.13261 
L 225.558728 138.311177 
L 226.460964 138.159424 
L 226.76171 138.167347 
L 227.062455 138.020585 
L 227.513573 138.201322 
L 228.566181 137.955563 
L 228.866927 137.678974 
L 229.468417 137.842407 
L 229.769162 137.896292 
L 229.919535 137.751459 
L 230.22028 137.796006 
L 230.972144 137.415942 
L 231.272889 137.472364 
L 231.573634 137.426431 
L 231.87438 137.762081 
L 232.325497 137.648896 
L 232.47587 137.467934 
L 232.626243 137.542846 
L 232.926988 137.39121 
L 233.077361 137.441917 
L 233.227733 137.610107 
L 233.378106 137.487318 
L 233.829224 137.549427 
L 234.129969 137.415152 
L 234.280342 137.704578 
L 234.430715 137.683609 
L 234.581087 137.430074 
L 235.182578 138.185463 
L 235.483323 137.544248 
L 235.784068 136.774642 
L 236.084814 137.280703 
L 236.385559 136.6182 
L 236.535932 136.449986 
L 236.686304 136.466934 
L 236.98705 136.103545 
L 237.137422 135.418073 
L 237.287795 135.626442 
L 237.438168 135.398729 
L 237.889285 135.320803 
L 238.039658 135.000116 
L 238.190031 135.321987 
L 238.490776 135.241852 
L 238.791521 134.940589 
L 239.092267 135.222309 
L 239.242639 134.968512 
L 239.543385 135.071062 
L 239.693757 134.908066 
L 239.84413 135.809122 
L 239.994503 135.651324 
L 240.144875 135.275005 
L 240.295248 135.528777 
L 240.595993 135.048426 
L 240.746366 135.099614 
L 240.896738 134.739367 
L 241.047111 134.723412 
L 241.197484 134.950149 
L 241.347856 134.576357 
L 241.498229 134.978299 
L 241.798974 134.644483 
L 242.09972 132.992383 
L 242.250092 133.041735 
L 242.851583 131.655851 
L 243.001955 132.127943 
L 243.152328 131.859373 
L 243.302701 131.902054 
L 243.603446 131.357985 
L 243.753819 131.20176 
L 243.904191 131.421583 
L 244.054564 131.30333 
L 244.204937 131.470333 
L 244.656055 131.106098 
L 244.806427 131.532869 
L 245.107173 130.389786 
L 245.257545 130.44292 
L 245.407918 130.5689 
L 245.55829 130.24898 
L 245.708663 130.342411 
L 246.009408 130.09853 
L 246.310154 129.385968 
L 246.610899 128.714815 
L 246.761272 129.095336 
L 246.911644 129.033318 
L 247.062017 128.836212 
L 247.362762 128.968242 
L 248.415371 128.051512 
L 248.565743 127.681484 
L 248.716116 127.941394 
L 248.866489 127.829626 
L 249.016861 127.938063 
L 249.317607 127.718642 
L 249.467979 128.137396 
L 249.768725 127.874643 
L 250.370215 126.359247 
L 250.520588 126.448178 
L 250.971706 125.422782 
L 251.272451 124.826714 
L 251.422824 125.377817 
L 251.573196 125.374318 
L 251.723569 125.227112 
L 251.873942 124.85681 
L 252.024314 125.239251 
L 252.174687 125.050209 
L 252.625805 123.727869 
L 252.776178 124.06087 
L 253.076923 123.739812 
L 253.227295 123.831782 
L 253.377668 123.601358 
L 253.528041 122.989222 
L 253.678413 123.017554 
L 253.828786 121.801933 
L 254.129531 121.599892 
L 254.580649 120.098221 
L 254.731022 119.828449 
L 254.881395 118.854081 
L 255.031767 119.211968 
L 255.18214 118.651317 
L 255.332513 118.60504 
L 255.482885 118.071535 
L 255.633258 118.457926 
L 256.084376 117.918282 
L 256.385121 117.099123 
L 256.685866 117.161076 
L 256.986612 116.843734 
L 257.136984 116.965481 
L 257.43773 116.176698 
L 257.588102 116.082421 
L 257.888848 115.58244 
L 258.03922 115.992648 
L 258.490338 115.301699 
L 258.640711 115.733527 
L 258.791083 115.799081 
L 258.941456 115.719714 
L 259.392574 114.714924 
L 259.693319 114.407797 
L 259.843692 113.783066 
L 260.144437 113.814503 
L 260.29481 113.820915 
L 260.445183 113.278768 
L 260.595555 113.258449 
L 260.745928 113.528567 
L 261.197046 113.171431 
L 261.347418 112.822086 
L 261.798536 112.83936 
L 261.948909 112.554263 
L 262.249654 112.521441 
L 262.400027 112.410036 
L 262.5504 112.499528 
L 262.700772 112.451603 
L 262.851145 112.560125 
L 263.15189 112.262808 
L 263.302263 112.259682 
L 263.753381 111.904347 
L 263.903753 111.90791 
L 264.204499 111.470503 
L 264.354871 111.69545 
L 264.655617 111.611668 
L 264.956362 111.608974 
L 265.257107 111.935346 
L 265.557853 111.73912 
L 265.708225 111.922208 
L 266.309716 110.835529 
L 266.911206 111.252897 
L 267.061579 111.022461 
L 267.211952 111.242756 
L 267.66307 110.623582 
L 267.813442 110.976734 
L 268.565305 109.998566 
L 268.866051 110.360619 
L 269.166796 110.073673 
L 269.317169 109.940878 
L 269.467541 109.548425 
L 269.617914 109.582378 
L 269.768287 109.187639 
L 269.918659 109.398727 
L 270.219405 109.109886 
L 270.369777 108.767694 
L 270.52015 108.771054 
L 270.820895 108.895164 
L 271.422386 109.029622 
L 271.572758 108.083058 
L 272.174249 107.572606 
L 272.324622 107.602287 
L 272.474994 107.354027 
L 272.625367 107.556639 
L 272.77574 107.54583 
L 273.37723 106.964765 
L 273.677975 105.869375 
L 273.978721 106.348796 
L 274.129093 105.970735 
L 274.429839 105.986963 
L 274.880957 105.560553 
L 275.181702 106.441711 
L 275.332075 106.236184 
L 275.63282 106.247444 
L 275.933565 106.878329 
L 276.23431 106.392807 
L 276.535056 105.984651 
L 276.685428 106.200793 
L 276.835801 105.884368 
L 276.986174 105.879463 
L 277.136546 105.608345 
L 277.286919 105.968941 
L 277.587664 105.477252 
L 277.738037 105.263893 
L 278.038782 105.283072 
L 278.339528 104.230796 
L 278.640273 103.975465 
L 278.790646 104.199943 
L 279.091391 103.288624 
L 279.392136 103.567828 
L 279.843254 102.952419 
L 279.993627 102.985217 
L 280.444745 102.178474 
L 280.595117 102.068276 
L 280.74549 102.185211 
L 280.895863 102.621756 
L 281.647726 101.446905 
L 281.798098 101.492185 
L 282.549962 99.869822 
L 282.700334 100.029897 
L 283.301825 99.086454 
L 283.452198 99.128761 
L 283.60257 98.557637 
L 283.752943 98.636505 
L 283.903316 98.881735 
L 284.053688 98.82491 
L 284.354433 98.436672 
L 284.504806 98.250168 
L 284.955924 96.859168 
L 285.106297 96.944334 
L 285.407042 96.681076 
L 285.707787 95.982172 
L 285.85816 96.171187 
L 286.008533 96.081687 
L 286.158905 95.436332 
L 286.309278 95.3275 
L 286.459651 95.472433 
L 286.760396 94.78294 
L 287.061141 94.728206 
L 287.211514 94.674421 
L 287.361886 94.833138 
L 287.512259 94.700842 
L 287.662632 94.892007 
L 288.264122 94.343764 
L 288.414495 93.868405 
L 288.564868 93.763473 
L 288.71524 93.805233 
L 288.865613 93.598138 
L 289.015986 93.684133 
L 289.467103 93.230172 
L 289.767849 92.647083 
L 290.068594 92.391687 
L 290.670085 92.137147 
L 290.97083 91.732693 
L 291.873066 90.903769 
L 292.173811 89.921575 
L 292.324184 89.974243 
L 293.677538 89.149588 
L 293.82791 88.857343 
L 293.978283 88.859065 
L 294.128656 89.439588 
L 294.279028 89.352599 
L 294.730146 89.470826 
L 294.880519 89.421033 
L 295.331637 88.897523 
L 295.632382 88.757015 
L 295.782755 88.908946 
L 295.933127 88.727074 
L 296.0835 88.039802 
L 296.684991 87.606215 
L 296.835363 87.846214 
L 296.985736 87.65181 
L 297.136108 87.81347 
L 297.436854 87.661141 
L 297.587226 87.403747 
L 297.737599 88.138038 
L 297.887972 88.123904 
L 298.038344 87.978436 
L 298.188717 87.66497 
L 298.33909 87.005957 
L 298.489462 87.013859 
L 298.790208 86.822616 
L 298.94058 86.909181 
L 299.090953 87.330514 
L 299.241326 86.738979 
L 299.542071 86.442091 
L 299.692443 86.170291 
L 299.842816 86.46617 
L 299.993189 86.378115 
L 300.143561 86.524435 
L 300.594679 86.236298 
L 300.895425 85.783926 
L 301.647288 85.729138 
L 301.797661 85.98545 
L 302.248778 85.648443 
L 302.399151 85.34005 
L 302.549524 85.383877 
L 302.699896 85.26078 
L 303.000642 85.286644 
L 303.602132 84.486472 
L 303.752505 84.555627 
L 303.902878 84.443011 
L 304.05325 83.965426 
L 304.353996 84.133078 
L 304.504368 83.911926 
L 304.805113 83.929241 
L 304.955486 83.800469 
L 305.256231 83.937647 
L 305.556977 83.687822 
L 305.857722 83.483256 
L 306.158467 83.543639 
L 306.30884 83.167709 
L 306.609585 83.198855 
L 306.910331 82.718058 
L 307.060703 82.730088 
L 307.211076 82.630631 
L 307.361448 82.396392 
L 307.511821 82.568764 
L 307.812566 81.870542 
L 308.113312 81.339133 
L 308.263684 80.735527 
L 308.414057 80.770173 
L 308.714802 80.277685 
L 309.015548 80.171922 
L 309.16592 80.214979 
L 309.316293 79.915218 
L 309.466666 79.863932 
L 309.617038 79.516337 
L 309.767411 79.665335 
L 310.068156 79.255954 
L 310.218529 79.280995 
L 310.368901 79.013184 
L 310.669647 78.881941 
L 311.120765 78.559148 
L 311.271137 78.56332 
L 311.42151 78.798477 
L 311.571883 78.709851 
L 311.722255 78.337767 
L 311.872628 78.35755 
L 312.173373 78.128802 
L 312.323746 78.062983 
L 312.474118 78.194353 
L 312.925236 77.89121 
L 313.376354 77.324019 
L 313.6771 76.48795 
L 313.827472 76.46907 
L 314.128218 76.014107 
L 314.27859 75.718924 
L 314.428963 75.820422 
L 315.331199 75.236758 
L 315.782317 74.682373 
L 316.53418 74.46665 
L 316.834925 74.581281 
L 317.436416 74.650013 
L 317.887534 74.229595 
L 318.188279 74.323845 
L 318.639397 74.231364 
L 318.940142 74.524541 
L 319.692006 74.200126 
L 319.842378 73.968466 
L 319.992751 73.956713 
L 320.293496 74.219184 
L 321.64685 73.659503 
L 321.947595 73.668435 
L 322.097968 73.522035 
L 322.398713 73.516905 
L 322.699459 73.443527 
L 323.451322 73.003907 
L 323.601694 72.654127 
L 324.203185 72.576499 
L 325.857284 71.880461 
L 326.158029 71.799662 
L 326.308402 71.61367 
L 326.609147 71.584546 
L 326.75952 71.815249 
L 327.210638 71.77698 
L 327.361011 71.431617 
L 330.368464 70.436525 
L 330.518836 70.519794 
L 331.571445 70.164981 
L 332.022563 70.115066 
L 333.075171 69.879735 
L 333.676662 69.90519 
L 333.827034 69.969702 
L 334.12778 69.885399 
L 334.428525 69.831699 
L 335.030016 69.709389 
L 335.330761 69.809063 
L 335.631506 69.659166 
L 335.932251 68.929745 
L 336.082624 69.116175 
L 336.533742 68.792968 
L 337.135233 68.625673 
L 338.037469 68.410537 
L 339.541195 68.147217 
L 340.443431 68.030693 
L 340.894549 67.977828 
L 341.195294 68.023356 
L 341.796785 67.820367 
L 341.947157 67.759354 
L 342.247903 67.792033 
L 345.405728 67.74192 
L 345.856846 68.057304 
L 346.458337 67.819976 
L 346.608709 67.816652 
L 346.759082 67.96505 
L 347.360573 67.672864 
L 347.510945 67.722187 
L 347.962063 67.576466 
L 348.112436 67.626979 
L 348.262809 67.419315 
L 348.864299 67.297455 
L 350.217653 66.737742 
L 350.518398 66.771786 
L 350.668771 67.038864 
L 350.819144 66.910292 
L 351.119889 66.932644 
L 352.32287 66.522057 
L 352.924361 66.432562 
L 353.225106 66.230913 
L 353.676224 66.171022 
L 353.826596 66.08574 
L 354.127342 65.828371 
L 354.277714 65.856656 
L 354.728832 66.314213 
L 354.879205 66.202053 
L 355.029578 66.244056 
L 355.17995 66.522797 
L 355.330323 66.392368 
L 355.480696 66.500426 
L 356.382931 65.778719 
L 356.533304 65.783878 
L 356.834049 65.499369 
L 356.984422 65.517635 
L 357.134795 65.331059 
L 357.285167 65.370336 
L 357.886658 65.048617 
L 358.638521 64.704836 
L 358.939266 64.819785 
L 359.841502 64.339679 
L 359.991875 64.402813 
L 360.442993 63.780326 
L 360.743738 63.708895 
L 360.894111 63.606237 
L 361.345229 63.744507 
L 361.796347 63.531638 
L 361.946719 63.31376 
L 362.247465 63.346518 
L 362.397837 63.270469 
L 362.54821 63.339561 
L 363.450446 62.678205 
L 363.901564 62.565289 
L 364.352682 62.577988 
L 364.653427 62.442997 
L 365.254918 62.253633 
L 365.555663 62.028043 
L 365.856408 61.958439 
L 366.006781 62.075059 
L 366.608272 61.703175 
L 366.909017 61.654059 
L 367.059389 61.602666 
L 367.209762 61.376363 
L 367.360135 61.528783 
L 367.66088 61.316089 
L 368.412743 60.896798 
L 368.713489 60.717247 
L 369.014234 60.739673 
L 369.314979 60.650021 
L 369.615724 60.956133 
L 369.766097 60.849177 
L 369.91647 60.884439 
L 370.969078 60.419771 
L 371.570569 60.300499 
L 372.021687 60.063063 
L 372.923923 59.961392 
L 373.224668 59.676644 
L 376.532866 58.712579 
L 377.88622 58.459248 
L 378.036593 58.349637 
L 378.337338 57.930529 
L 379.239574 57.851271 
L 379.841064 57.773807 
L 379.991437 57.985532 
L 380.592928 57.645966 
L 381.344791 57.623007 
L 381.946282 57.285057 
L 382.397399 57.314294 
L 384.352244 56.851736 
L 384.652989 56.898196 
L 384.803362 56.886464 
L 384.953734 57.013959 
L 385.25448 56.857516 
L 385.404852 56.889287 
L 385.705598 56.840482 
L 387.058952 56.580129 
L 387.209324 56.754935 
L 387.660442 56.701638 
L 387.961187 56.810091 
L 388.11156 56.764079 
L 388.261933 57.147536 
L 388.562678 57.165416 
L 389.013796 56.822122 
L 389.314541 56.691417 
L 390.818268 56.170723 
L 390.96864 56.200928 
L 391.419758 55.900041 
L 391.570131 55.672886 
L 391.720504 55.921491 
L 391.870876 55.61292 
L 392.472367 55.506575 
L 392.622739 55.245592 
L 392.773112 55.381338 
L 393.073857 55.28959 
L 393.825721 55.016368 
L 393.976093 54.926586 
L 394.577584 55.319369 
L 394.727957 55.534217 
L 395.47982 54.981354 
L 395.630192 54.498643 
L 395.780565 54.518719 
L 395.930938 54.710366 
L 396.532428 54.462366 
L 396.682801 54.585832 
L 396.833174 54.467324 
L 396.983546 54.63134 
L 397.284292 54.542308 
L 397.885782 53.935342 
L 398.036155 53.977883 
L 398.487273 53.568 
L 398.487273 53.568 
" clip-path="url(#p1b59d2b9da)" style="fill: none; stroke: #ff7f0e; stroke-opacity: 0.7; stroke-width: 1.5; stroke-linecap: square"/>
   </g>
   <g id="line2d_16">
    <path d="M 73.832727 156.335582 
L 74.133473 156.293018 
L 74.283845 156.39712 
L 74.584591 156.172483 
L 74.885336 156.372014 
L 75.186081 156.592893 
L 75.787572 156.687559 
L 76.088317 156.945552 
L 76.23869 156.946036 
L 76.389062 157.07269 
L 76.539435 156.988752 
L 76.84018 157.13526 
L 77.140926 156.979058 
L 77.291298 157.053406 
L 77.592043 156.987754 
L 77.892789 157.162406 
L 78.043161 157.112779 
L 78.644652 157.279262 
L 78.945397 157.18555 
L 79.246143 157.029516 
L 79.998006 157.146335 
L 80.148378 157.034623 
L 81.050614 157.241477 
L 81.95285 157.146226 
L 82.855086 157.036508 
L 83.306204 157.040306 
L 84.358813 157.050346 
L 84.659558 157.188603 
L 86.313657 157.514013 
L 86.46403 157.399952 
L 86.915148 157.516756 
L 88.719619 157.679538 
L 89.020365 157.638687 
L 89.471483 157.719422 
L 91.426327 157.564281 
L 91.877445 157.618785 
L 93.681917 157.482272 
L 94.133035 157.492733 
L 95.035271 157.572049 
L 95.336016 157.508974 
L 97.29086 157.680435 
L 97.741978 157.696998 
L 98.193096 157.661156 
L 98.794587 157.785733 
L 99.095332 157.892306 
L 100.749431 158.097783 
L 103.456139 158.033637 
L 103.907257 158.069948 
L 104.358375 158.061604 
L 106.012474 158.216857 
L 109.621417 158.334842 
L 110.373281 158.407177 
L 114.88446 159.032388 
L 115.786696 159.236739 
L 116.538559 159.345551 
L 117.591168 159.359588 
L 117.891913 159.223659 
L 118.343031 159.2573 
L 118.794149 159.215706 
L 120.748993 159.303959 
L 121.951974 159.311135 
L 123.004583 159.39636 
L 123.455701 159.348267 
L 123.906819 159.371466 
L 124.809055 159.425493 
L 125.410545 159.468805 
L 125.861663 159.431005 
L 127.666135 159.479242 
L 130.974333 159.63263 
L 134.132159 159.929065 
L 135.936631 160.19946 
L 137.289984 160.373631 
L 139.395201 160.665174 
L 140.748555 160.764479 
L 141.199673 160.840597 
L 141.650791 160.855967 
L 143.605636 161.107034 
L 143.756008 161.230845 
L 143.906381 161.189914 
L 144.207126 161.322174 
L 144.507871 161.288808 
L 144.808617 161.187435 
L 144.958989 161.303809 
L 145.410107 161.203936 
L 146.462716 161.389676 
L 146.763461 161.372573 
L 147.214579 161.314132 
L 147.515324 161.254959 
L 148.267188 161.325005 
L 149.019051 161.489555 
L 150.372405 161.751452 
L 150.67315 162.002617 
L 150.823523 161.73049 
L 150.973895 161.892196 
L 151.575386 161.605075 
L 151.725759 161.755599 
L 152.026504 161.605153 
L 152.778367 161.735004 
L 152.92874 161.615076 
L 153.079112 161.66838 
L 153.830976 161.435361 
L 154.131721 161.575085 
L 154.582839 161.526543 
L 154.883584 161.461656 
L 156.537683 161.709733 
L 156.688056 161.835305 
L 156.988801 161.826991 
L 157.289547 161.821335 
L 157.590292 161.772043 
L 157.891037 161.687735 
L 158.04141 161.570119 
L 158.943646 161.698806 
L 159.244391 161.59309 
L 159.545136 161.607315 
L 164.056316 161.495368 
L 164.357061 161.327611 
L 164.808179 161.314767 
L 165.259297 161.333308 
L 166.763023 161.333191 
L 168.567495 161.193977 
L 168.717868 161.188162 
L 169.018613 161.416332 
L 169.319358 161.398729 
L 170.071222 161.361988 
L 171.12383 161.235507 
L 171.424575 161.225624 
L 172.326811 161.175303 
L 173.529792 160.99331 
L 176.537245 160.999666 
L 176.988363 161.014451 
L 179.695071 160.966103 
L 180.146189 161.055071 
L 180.597307 161.043493 
L 181.649915 161.132304 
L 182.251406 161.090762 
L 182.702524 161.054396 
L 183.60476 161.17138 
L 187.213703 161.222329 
L 188.115939 161.108195 
L 188.416684 161.149202 
L 189.619666 161.027827 
L 189.770038 160.615243 
L 190.070784 160.698689 
L 191.123392 160.9663 
L 191.273765 160.908707 
L 191.724883 160.991438 
L 192.025628 160.972163 
L 192.326373 160.897058 
L 192.777491 160.996788 
L 193.8301 161.134223 
L 195.935317 161.195528 
L 196.386435 161.27407 
L 196.837553 161.2751 
L 196.987925 161.421846 
L 197.739789 161.398392 
L 198.491652 161.472082 
L 198.792397 161.347666 
L 199.995378 161.530071 
L 201.19836 161.431156 
L 201.649477 161.497323 
L 201.79985 161.458048 
L 201.950223 161.545793 
L 202.250968 161.497837 
L 203.303577 161.572875 
L 203.604322 161.524734 
L 206.31103 161.363415 
L 207.514011 161.333451 
L 208.265874 161.252133 
L 210.070346 161.216354 
L 210.220718 161.242001 
L 210.371091 161.386608 
L 210.822209 161.382858 
L 211.4237 161.402785 
L 213.378544 161.520526 
L 213.679289 161.54762 
L 214.28078 161.529584 
L 215.934879 161.514696 
L 216.085252 161.352073 
L 216.53637 161.382749 
L 218.641587 161.466753 
L 219.092705 161.373535 
L 219.39345 161.426286 
L 221.799412 161.511191 
L 222.400903 161.521791 
L 222.852021 161.537715 
L 224.806865 161.917452 
L 225.408356 161.997867 
L 225.558728 162.197608 
L 226.460964 162.239727 
L 226.76171 162.313605 
L 227.062455 162.250504 
L 227.513573 162.543721 
L 228.566181 162.580418 
L 228.716554 162.366771 
L 228.866927 162.354478 
L 229.468417 162.639788 
L 229.769162 162.770821 
L 229.919535 162.673773 
L 230.22028 162.784028 
L 231.122516 162.688732 
L 231.573634 162.75158 
L 231.87438 163.196483 
L 232.325497 163.236463 
L 232.47587 163.121754 
L 232.626243 163.242179 
L 232.776615 163.146169 
L 233.077361 163.298243 
L 233.227733 163.517176 
L 233.378106 163.456489 
L 233.979597 163.698001 
L 234.129969 163.704032 
L 234.280342 164.0538 
L 234.430715 164.099592 
L 234.581087 163.92892 
L 235.182578 164.952571 
L 235.483323 164.482674 
L 235.784068 163.808981 
L 236.084814 164.454815 
L 236.385559 163.937555 
L 236.535932 163.838983 
L 236.686304 163.917226 
L 236.98705 163.698438 
L 237.137422 163.086945 
L 237.287795 163.422512 
L 237.438168 163.272092 
L 237.889285 163.526267 
L 238.039658 163.237591 
L 238.340403 163.802665 
L 238.490776 163.825693 
L 238.641149 163.681877 
L 238.791521 163.739225 
L 239.092267 164.277181 
L 239.242639 164.176937 
L 239.543385 164.4042 
L 239.693757 164.338591 
L 239.84413 165.315806 
L 239.994503 165.267388 
L 240.144875 164.987029 
L 240.295248 165.337611 
L 240.595993 165.065124 
L 240.746366 165.214919 
L 240.896738 165.003335 
L 241.047111 165.113311 
L 241.197484 165.441749 
L 241.347856 165.231771 
L 241.498229 165.735653 
L 241.798974 165.701775 
L 242.09972 164.290827 
L 242.250092 164.388869 
L 242.550838 163.725583 
L 242.70121 163.662197 
L 242.851583 163.422767 
L 243.001955 163.984229 
L 243.152328 163.773831 
L 243.302701 163.956151 
L 243.453073 163.759264 
L 243.753819 163.748331 
L 243.904191 164.129354 
L 244.054564 164.192089 
L 244.204937 164.454734 
L 244.505682 164.598644 
L 244.656055 164.388091 
L 244.806427 164.811692 
L 245.107173 163.892262 
L 245.257545 163.99341 
L 245.407918 164.210959 
L 245.55829 163.995949 
L 245.859036 164.051374 
L 246.009408 163.935038 
L 246.159781 163.479417 
L 246.310154 163.419018 
L 246.610899 163.033509 
L 246.761272 163.520356 
L 246.911644 163.571541 
L 247.062017 163.496486 
L 247.362762 163.815868 
L 247.663508 163.802868 
L 247.81388 163.783985 
L 247.964253 163.558683 
L 248.264998 163.660811 
L 248.565743 163.218561 
L 248.716116 163.557027 
L 248.866489 163.526622 
L 249.167234 163.827994 
L 249.317607 163.801825 
L 249.467979 164.264009 
L 249.768725 164.146502 
L 250.06947 163.730782 
L 250.219843 163.07875 
L 250.370215 162.929913 
L 250.520588 163.046582 
L 250.971706 162.21956 
L 251.272451 161.928795 
L 251.422824 162.6475 
L 251.723569 162.770358 
L 251.873942 162.553308 
L 252.024314 163.093367 
L 252.475432 162.895505 
L 252.625805 162.31273 
L 252.776178 162.826073 
L 252.92655 162.667215 
L 253.076923 162.773309 
L 253.227295 163.043803 
L 253.377668 162.944698 
L 253.528041 162.535085 
L 253.678413 162.699478 
L 253.828786 161.626698 
L 254.129531 161.771715 
L 254.279904 161.29769 
L 254.430277 161.274344 
L 254.881395 160.04758 
L 255.031767 160.661037 
L 255.18214 160.287468 
L 255.332513 160.471668 
L 255.482885 160.161664 
L 255.633258 160.816029 
L 256.084376 161.068253 
L 256.385121 160.696691 
L 257.136984 161.610245 
L 257.43773 161.121805 
L 257.588102 161.227932 
L 257.738475 160.932276 
L 257.888848 160.974302 
L 258.03922 161.549951 
L 258.189593 161.452562 
L 258.339965 161.576208 
L 258.490338 161.294373 
L 258.791083 162.100921 
L 258.941456 162.151827 
L 259.091829 161.943973 
L 259.242201 162.028776 
L 259.392574 161.790649 
L 259.693319 161.946484 
L 259.843692 161.477201 
L 260.29481 161.955131 
L 260.445183 161.58019 
L 260.595555 161.653355 
L 260.745928 162.004842 
L 260.8963 161.923619 
L 261.046673 162.02684 
L 261.497791 161.720923 
L 261.798536 161.904668 
L 261.948909 161.75091 
L 262.249654 161.860086 
L 262.400027 161.82806 
L 262.851145 162.23016 
L 263.15189 162.054949 
L 263.302263 162.099609 
L 263.603008 161.981708 
L 263.903753 162.110887 
L 264.204499 161.855482 
L 264.354871 162.180635 
L 264.505244 162.222678 
L 265.40748 163.203695 
L 265.557853 163.185928 
L 265.708225 163.464824 
L 266.309716 162.875887 
L 266.911206 163.762117 
L 267.061579 163.625794 
L 267.211952 163.992117 
L 267.66307 163.768305 
L 267.813442 164.271852 
L 268.26456 164.107397 
L 268.414933 163.968365 
L 268.565305 164.032725 
L 269.016423 164.704036 
L 269.317169 164.836675 
L 269.467541 164.586761 
L 269.617914 164.767141 
L 269.768287 164.539657 
L 269.918659 164.863631 
L 270.219405 164.884083 
L 270.369777 164.656918 
L 270.52015 164.713748 
L 270.820895 165.018373 
L 271.422386 165.649954 
L 271.572758 164.849456 
L 271.723131 164.835203 
L 271.873504 164.963164 
L 272.023876 164.812052 
L 272.474994 164.962336 
L 272.77574 165.398771 
L 273.37723 165.381752 
L 273.677975 164.559009 
L 273.978721 165.264483 
L 274.129093 164.942915 
L 274.580211 165.025593 
L 274.730584 164.85775 
L 274.880957 164.937283 
L 275.181702 165.880625 
L 275.332075 165.807773 
L 275.783193 166.376627 
L 275.933565 166.874865 
L 276.083938 166.627296 
L 276.535056 166.521986 
L 276.685428 166.82398 
L 276.835801 166.716631 
L 276.986174 166.904979 
L 277.136546 166.890423 
L 277.286919 167.467989 
L 277.437292 167.309922 
L 277.738037 167.453589 
L 278.038782 167.850416 
L 278.339528 167.083336 
L 278.4899 167.15227 
L 278.640273 167.057168 
L 278.790646 167.346108 
L 279.091391 166.809612 
L 279.392136 167.349283 
L 279.843254 167.133045 
L 279.993627 167.34235 
L 280.444745 166.866686 
L 280.595117 166.884047 
L 280.74549 167.084072 
L 280.895863 167.631162 
L 281.497353 166.998864 
L 281.647726 167.030639 
L 281.798098 167.193292 
L 282.399589 166.007956 
L 282.700334 166.438206 
L 283.00108 165.91623 
L 283.151452 166.093088 
L 283.301825 165.873901 
L 283.452198 166.06661 
L 283.60257 165.573746 
L 283.752943 165.789289 
L 283.903316 166.225258 
L 284.053688 166.248926 
L 284.204061 166.081932 
L 284.354433 166.122923 
L 284.504806 166.042467 
L 284.805551 164.989747 
L 284.955924 165.069616 
L 285.256669 165.417312 
L 285.407042 165.368014 
L 285.557415 165.035794 
L 285.707787 165.012557 
L 285.85816 165.358375 
L 286.008533 165.381214 
L 286.158905 164.857159 
L 286.309278 164.869217 
L 286.459651 165.137264 
L 286.760396 164.661654 
L 287.061141 164.769304 
L 287.211514 164.762838 
L 287.361886 164.989017 
L 287.512259 164.926066 
L 287.662632 165.24678 
L 288.264122 165.215485 
L 288.414495 164.807131 
L 288.564868 164.762386 
L 288.71524 164.90487 
L 288.865613 164.787631 
L 289.015986 165.017446 
L 289.467103 164.849079 
L 289.617476 164.509953 
L 290.068594 164.413637 
L 290.670085 164.686162 
L 290.820457 164.454456 
L 291.121203 164.482075 
L 291.722693 164.310926 
L 291.873066 164.16418 
L 292.173811 163.378064 
L 292.474556 163.655374 
L 293.22642 163.711216 
L 293.677538 163.702464 
L 293.82791 163.44729 
L 293.978283 163.503932 
L 294.128656 164.130435 
L 294.279028 164.114759 
L 294.730146 164.469383 
L 294.880519 164.490264 
L 295.331637 164.158198 
L 295.632382 164.161901 
L 295.782755 164.405321 
L 295.933127 164.318713 
L 296.0835 163.756031 
L 296.233873 163.743013 
L 296.384245 163.845166 
L 296.684991 163.567542 
L 296.835363 163.823731 
L 296.985736 163.715302 
L 297.286481 163.994704 
L 297.436854 163.960677 
L 297.587226 163.80303 
L 297.737599 164.607611 
L 297.887972 164.773611 
L 298.038344 164.737545 
L 298.188717 164.544816 
L 298.33909 164.052452 
L 298.489462 164.16281 
L 298.790208 164.142336 
L 298.94058 164.311298 
L 299.090953 164.750066 
L 299.241326 164.286001 
L 299.542071 164.287249 
L 299.692443 164.098898 
L 299.842816 164.450116 
L 299.993189 164.485396 
L 300.143561 164.685809 
L 300.745052 164.489052 
L 300.895425 164.423475 
L 301.496915 164.836752 
L 301.647288 164.843324 
L 301.797661 165.186827 
L 302.248778 165.143595 
L 302.399151 164.918253 
L 302.699896 165.00718 
L 303.000642 165.19846 
L 303.602132 164.721324 
L 303.752505 164.83335 
L 303.902878 164.779874 
L 304.05325 164.386545 
L 304.353996 164.669451 
L 304.504368 164.503736 
L 304.805113 164.605583 
L 304.955486 164.506797 
L 305.256231 164.761542 
L 305.556977 164.628589 
L 305.857722 164.5183 
L 306.158467 164.711159 
L 306.30884 164.408289 
L 306.609585 164.589031 
L 306.910331 164.266747 
L 307.211076 164.31781 
L 307.361448 164.166255 
L 307.511821 164.395127 
L 307.662194 163.94823 
L 307.962939 163.788148 
L 308.113312 163.57021 
L 308.263684 163.094507 
L 308.414057 163.242879 
L 308.56443 162.990983 
L 309.015548 163.204927 
L 309.16592 163.39488 
L 309.316293 163.206894 
L 309.466666 163.283715 
L 309.617038 163.114543 
L 309.767411 163.348081 
L 309.917783 163.151578 
L 310.218529 163.352741 
L 310.368901 163.201416 
L 310.669647 163.261081 
L 311.120765 163.229411 
L 311.271137 163.294019 
L 311.42151 163.625552 
L 311.571883 163.642592 
L 311.722255 163.322495 
L 311.872628 163.455325 
L 312.173373 163.422404 
L 312.323746 163.471818 
L 312.474118 163.673867 
L 312.624491 163.682891 
L 313.075609 163.402402 
L 313.225982 163.322249 
L 313.376354 163.073898 
L 313.526727 162.4917 
L 313.827472 162.54667 
L 313.977845 162.241461 
L 314.128218 162.257869 
L 314.27859 162.077511 
L 314.428963 162.306935 
L 315.631944 162.341413 
L 315.932689 162.273628 
L 316.53418 162.366266 
L 316.834925 162.588997 
L 317.436416 162.887279 
L 318.037906 162.758553 
L 318.78977 163.058961 
L 319.090515 163.231385 
L 319.39126 163.2182 
L 319.992751 163.099979 
L 320.293496 163.471443 
L 322.097968 163.589266 
L 322.398713 163.741198 
L 322.699459 163.843843 
L 323.451322 163.79412 
L 323.601694 163.484948 
L 324.203185 163.650447 
L 324.50393 163.6499 
L 324.804676 163.425252 
L 324.955048 163.391098 
L 325.105421 163.524635 
L 325.406166 163.499037 
L 326.007657 163.451059 
L 326.609147 163.372757 
L 326.909893 163.694717 
L 327.210638 163.790004 
L 327.361011 163.522521 
L 328.263246 163.621481 
L 328.563992 163.540198 
L 328.714364 163.677283 
L 330.218091 163.523573 
L 330.669209 163.741567 
L 331.721817 163.710752 
L 333.676662 164.25678 
L 333.827034 164.379858 
L 333.977407 164.329883 
L 334.428525 164.469405 
L 335.030016 164.541133 
L 335.330761 164.724673 
L 335.631506 164.705974 
L 335.932251 164.119224 
L 336.082624 164.407547 
L 336.533742 164.362674 
L 337.135233 164.514459 
L 337.435978 164.53728 
L 337.736723 164.414472 
L 338.338214 164.571372 
L 338.939704 164.596023 
L 339.24045 164.678192 
L 339.992313 164.711496 
L 340.293058 164.746445 
L 340.894549 164.842253 
L 341.195294 165.002467 
L 341.646412 164.964197 
L 345.405728 165.957898 
L 346.007219 166.448459 
L 346.307964 166.516276 
L 346.608709 166.541624 
L 346.759082 166.769416 
L 347.360573 166.759239 
L 347.661318 166.862785 
L 350.518398 167.4864 
L 350.668771 167.823299 
L 350.819144 167.761423 
L 351.119889 167.918084 
L 351.871752 167.897352 
L 352.172497 167.807174 
L 352.473243 167.966023 
L 352.623615 167.938348 
L 352.924361 168.080118 
L 353.074733 167.919441 
L 353.826596 167.869976 
L 354.127342 167.677086 
L 354.277714 167.744524 
L 354.728832 168.328896 
L 354.879205 168.278712 
L 355.029578 168.386728 
L 355.17995 168.754455 
L 355.330323 168.685588 
L 355.480696 168.853267 
L 355.931814 168.734205 
L 356.082186 168.845835 
L 356.382931 168.723061 
L 356.533304 168.81595 
L 356.683677 168.67111 
L 356.834049 168.700056 
L 356.984422 168.849818 
L 357.134795 168.79968 
L 357.43554 168.916181 
L 357.736285 168.900734 
L 358.037031 169.009273 
L 358.638521 169.152421 
L 358.939266 169.440166 
L 359.841502 169.516651 
L 359.991875 169.685826 
L 360.29262 169.427471 
L 360.442993 169.306273 
L 360.743738 169.442132 
L 360.894111 169.444976 
L 361.345229 169.900128 
L 361.796347 169.888158 
L 361.946719 169.701163 
L 362.247465 169.833734 
L 362.397837 169.79021 
L 362.54821 169.889808 
L 363.149701 169.770559 
L 363.300073 169.839782 
L 363.600819 169.788793 
L 364.8038 169.956288 
L 365.555663 169.778476 
L 365.856408 169.788825 
L 366.006781 169.942517 
L 366.608272 169.819341 
L 366.909017 169.888314 
L 367.059389 169.902575 
L 367.209762 169.741896 
L 367.360135 169.954908 
L 367.66088 169.84466 
L 368.412743 169.690405 
L 368.563116 169.575611 
L 369.465352 169.901731 
L 369.615724 170.141742 
L 369.766097 170.131222 
L 370.066842 170.247689 
L 370.969078 170.31563 
L 371.570569 170.484534 
L 372.021687 170.545413 
L 373.375041 170.991181 
L 373.976531 171.126547 
L 374.427649 171.352665 
L 374.578022 171.232316 
L 375.329885 171.287851 
L 376.081748 171.218113 
L 376.683239 171.21712 
L 376.983984 171.24933 
L 378.036593 171.103309 
L 378.337338 170.735597 
L 379.239574 170.853711 
L 379.841064 170.890668 
L 379.991437 171.11671 
L 380.14181 171.063602 
L 380.292182 170.878752 
L 381.194418 170.940909 
L 381.344791 170.999419 
L 381.946282 170.791156 
L 382.397399 170.930247 
L 383.299635 170.977393 
L 383.600381 170.899738 
L 384.803362 171.037269 
L 384.953734 171.196707 
L 385.25448 171.166049 
L 385.705598 171.296423 
L 386.307088 171.278565 
L 386.457461 171.220729 
L 387.058952 171.542563 
L 387.359697 171.814158 
L 387.660442 171.89601 
L 387.961187 172.102971 
L 388.11156 172.113735 
L 388.412305 172.694274 
L 388.562678 172.77464 
L 388.863423 172.67263 
L 390.818268 173.087004 
L 391.119013 173.198194 
L 391.419758 173.122745 
L 391.570131 172.983095 
L 391.720504 173.307285 
L 391.870876 173.077752 
L 392.472367 173.2574 
L 392.622739 173.076843 
L 392.773112 173.325945 
L 393.073857 173.422488 
L 394.126466 173.721404 
L 394.577584 174.287293 
L 394.727957 174.573909 
L 395.028702 174.450152 
L 395.179074 174.538911 
L 395.47982 174.441717 
L 395.630192 174.062608 
L 395.780565 174.126043 
L 395.930938 174.362402 
L 396.08131 174.382718 
L 396.231683 174.270706 
L 396.382056 174.373238 
L 396.532428 174.3211 
L 396.682801 174.526295 
L 396.833174 174.457284 
L 397.133919 174.685359 
L 397.434664 174.650239 
L 397.585037 174.553489 
L 397.735409 174.665713 
L 397.885782 174.535787 
L 398.036155 174.667953 
L 398.3369 174.529918 
L 398.487273 174.528 
L 398.487273 174.528 
" clip-path="url(#p1b59d2b9da)" style="fill: none; stroke: #2ca02c; stroke-opacity: 0.7; stroke-width: 1.5; stroke-linecap: square"/>
   </g>
   <g id="patch_3">
    <path d="M 57.6 307.584 
L 57.6 41.472 
" style="fill: none; stroke: #000000; stroke-width: 0.8; stroke-linejoin: miter; stroke-linecap: square"/>
   </g>
   <g id="patch_4">
    <path d="M 414.72 307.584 
L 414.72 41.472 
" style="fill: none; stroke: #000000; stroke-width: 0.8; stroke-linejoin: miter; stroke-linecap: square"/>
   </g>
   <g id="patch_5">
    <path d="M 57.6 307.584 
L 414.72 307.584 
" style="fill: none; stroke: #000000; stroke-width: 0.8; stroke-linejoin: miter; stroke-linecap: square"/>
   </g>
   <g id="patch_6">
    <path d="M 57.6 41.472 
L 414.72 41.472 
" style="fill: none; stroke: #000000; stroke-width: 0.8; stroke-linejoin: miter; stroke-linecap: square"/>
   </g>
   <g id="text_15">
    <!-- 1final_naive_aa_btcusd -->
    <g transform="translate(166.476562 35.472) scale(0.12 -0.12)">
     <defs>
      <path id="DejaVuSans-66" d="M 2375 4863 
L 2375 4384 
L 1825 4384 
Q 1516 4384 1395 4259 
Q 1275 4134 1275 3809 
L 1275 3500 
L 2222 3500 
L 2222 3053 
L 1275 3053 
L 1275 0 
L 697 0 
L 697 3053 
L 147 3053 
L 147 3500 
L 697 3500 
L 697 3744 
Q 697 4328 969 4595 
Q 1241 4863 1831 4863 
L 2375 4863 
z
" transform="scale(0.015625)"/>
      <path id="DejaVuSans-69" d="M 603 3500 
L 1178 3500 
L 1178 0 
L 603 0 
L 603 3500 
z
M 603 4863 
L 1178 4863 
L 1178 4134 
L 603 4134 
L 603 4863 
z
" transform="scale(0.015625)"/>
      <path id="DejaVuSans-6e" d="M 3513 2113 
L 3513 0 
L 2938 0 
L 2938 2094 
Q 2938 2591 2744 2837 
Q 2550 3084 2163 3084 
Q 1697 3084 1428 2787 
Q 1159 2491 1159 1978 
L 1159 0 
L 581 0 
L 581 3500 
L 1159 3500 
L 1159 2956 
Q 1366 3272 1645 3428 
Q 1925 3584 2291 3584 
Q 2894 3584 3203 3211 
Q 3513 2838 3513 2113 
z
" transform="scale(0.015625)"/>
      <path id="DejaVuSans-61" d="M 2194 1759 
Q 1497 1759 1228 1600 
Q 959 1441 959 1056 
Q 959 750 1161 570 
Q 1363 391 1709 391 
Q 2188 391 2477 730 
Q 2766 1069 2766 1631 
L 2766 1759 
L 2194 1759 
z
M 3341 1997 
L 3341 0 
L 2766 0 
L 2766 531 
Q 2569 213 2275 61 
Q 1981 -91 1556 -91 
Q 1019 -91 701 211 
Q 384 513 384 1019 
Q 384 1609 779 1909 
Q 1175 2209 1959 2209 
L 2766 2209 
L 2766 2266 
Q 2766 2663 2505 2880 
Q 2244 3097 1772 3097 
Q 1472 3097 1187 3025 
Q 903 2953 641 2809 
L 641 3341 
Q 956 3463 1253 3523 
Q 1550 3584 1831 3584 
Q 2591 3584 2966 3190 
Q 3341 2797 3341 1997 
z
" transform="scale(0.015625)"/>
      <path id="DejaVuSans-6c" d="M 603 4863 
L 1178 4863 
L 1178 0 
L 603 0 
L 603 4863 
z
" transform="scale(0.015625)"/>
      <path id="DejaVuSans-5f" d="M 3263 -1063 
L 3263 -1509 
L -63 -1509 
L -63 -1063 
L 3263 -1063 
z
" transform="scale(0.015625)"/>
      <path id="DejaVuSans-76" d="M 191 3500 
L 800 3500 
L 1894 563 
L 2988 3500 
L 3597 3500 
L 2284 0 
L 1503 0 
L 191 3500 
z
" transform="scale(0.015625)"/>
      <path id="DejaVuSans-62" d="M 3116 1747 
Q 3116 2381 2855 2742 
Q 2594 3103 2138 3103 
Q 1681 3103 1420 2742 
Q 1159 2381 1159 1747 
Q 1159 1113 1420 752 
Q 1681 391 2138 391 
Q 2594 391 2855 752 
Q 3116 1113 3116 1747 
z
M 1159 2969 
Q 1341 3281 1617 3432 
Q 1894 3584 2278 3584 
Q 2916 3584 3314 3078 
Q 3713 2572 3713 1747 
Q 3713 922 3314 415 
Q 2916 -91 2278 -91 
Q 1894 -91 1617 61 
Q 1341 213 1159 525 
L 1159 0 
L 581 0 
L 581 4863 
L 1159 4863 
L 1159 2969 
z
" transform="scale(0.015625)"/>
      <path id="DejaVuSans-74" d="M 1172 4494 
L 1172 3500 
L 2356 3500 
L 2356 3053 
L 1172 3053 
L 1172 1153 
Q 1172 725 1289 603 
Q 1406 481 1766 481 
L 2356 481 
L 2356 0 
L 1766 0 
Q 1100 0 847 248 
Q 594 497 594 1153 
L 594 3053 
L 172 3053 
L 172 3500 
L 594 3500 
L 594 4494 
L 1172 4494 
z
" transform="scale(0.015625)"/>
      <path id="DejaVuSans-63" d="M 3122 3366 
L 3122 2828 
Q 2878 2963 2633 3030 
Q 2388 3097 2138 3097 
Q 1578 3097 1268 2742 
Q 959 2388 959 1747 
Q 959 1106 1268 751 
Q 1578 397 2138 397 
Q 2388 397 2633 464 
Q 2878 531 3122 666 
L 3122 134 
Q 2881 22 2623 -34 
Q 2366 -91 2075 -91 
Q 1284 -91 818 406 
Q 353 903 353 1747 
Q 353 2603 823 3093 
Q 1294 3584 2113 3584 
Q 2378 3584 2631 3529 
Q 2884 3475 3122 3366 
z
" transform="scale(0.015625)"/>
      <path id="DejaVuSans-75" d="M 544 1381 
L 544 3500 
L 1119 3500 
L 1119 1403 
Q 1119 906 1312 657 
Q 1506 409 1894 409 
Q 2359 409 2629 706 
Q 2900 1003 2900 1516 
L 2900 3500 
L 3475 3500 
L 3475 0 
L 2900 0 
L 2900 538 
Q 2691 219 2414 64 
Q 2138 -91 1772 -91 
Q 1169 -91 856 284 
Q 544 659 544 1381 
z
M 1991 3584 
L 1991 3584 
z
" transform="scale(0.015625)"/>
      <path id="DejaVuSans-73" d="M 2834 3397 
L 2834 2853 
Q 2591 2978 2328 3040 
Q 2066 3103 1784 3103 
Q 1356 3103 1142 2972 
Q 928 2841 928 2578 
Q 928 2378 1081 2264 
Q 1234 2150 1697 2047 
L 1894 2003 
Q 2506 1872 2764 1633 
Q 3022 1394 3022 966 
Q 3022 478 2636 193 
Q 2250 -91 1575 -91 
Q 1294 -91 989 -36 
Q 684 19 347 128 
L 347 722 
Q 666 556 975 473 
Q 1284 391 1588 391 
Q 1994 391 2212 530 
Q 2431 669 2431 922 
Q 2431 1156 2273 1281 
Q 2116 1406 1581 1522 
L 1381 1569 
Q 847 1681 609 1914 
Q 372 2147 372 2553 
Q 372 3047 722 3315 
Q 1072 3584 1716 3584 
Q 2034 3584 2315 3537 
Q 2597 3491 2834 3397 
z
" transform="scale(0.015625)"/>
      <path id="DejaVuSans-64" d="M 2906 2969 
L 2906 4863 
L 3481 4863 
L 3481 0 
L 2906 0 
L 2906 525 
Q 2725 213 2448 61 
Q 2172 -91 1784 -91 
Q 1150 -91 751 415 
Q 353 922 353 1747 
Q 353 2572 751 3078 
Q 1150 3584 1784 3584 
Q 2172 3584 2448 3432 
Q 2725 3281 2906 2969 
z
M 947 1747 
Q 947 1113 1208 752 
Q 1469 391 1925 391 
Q 2381 391 2643 752 
Q 2906 1113 2906 1747 
Q 2906 2381 2643 2742 
Q 2381 3103 1925 3103 
Q 1469 3103 1208 2742 
Q 947 2381 947 1747 
z
" transform="scale(0.015625)"/>
     </defs>
     <use xlink:href="#DejaVuSans-31"/>
     <use xlink:href="#DejaVuSans-66" x="63.623047"/>
     <use xlink:href="#DejaVuSans-69" x="98.828125"/>
     <use xlink:href="#DejaVuSans-6e" x="126.611328"/>
     <use xlink:href="#DejaVuSans-61" x="189.990234"/>
     <use xlink:href="#DejaVuSans-6c" x="251.269531"/>
     <use xlink:href="#DejaVuSans-5f" x="279.052734"/>
     <use xlink:href="#DejaVuSans-6e" x="329.052734"/>
     <use xlink:href="#DejaVuSans-61" x="392.431641"/>
     <use xlink:href="#DejaVuSans-69" x="453.710938"/>
     <use xlink:href="#DejaVuSans-76" x="481.494141"/>
     <use xlink:href="#DejaVuSans-65" x="540.673828"/>
     <use xlink:href="#DejaVuSans-5f" x="602.197266"/>
     <use xlink:href="#DejaVuSans-61" x="652.197266"/>
     <use xlink:href="#DejaVuSans-61" x="713.476562"/>
     <use xlink:href="#DejaVuSans-5f" x="774.755859"/>
     <use xlink:href="#DejaVuSans-62" x="824.755859"/>
     <use xlink:href="#DejaVuSans-74" x="888.232422"/>
     <use xlink:href="#DejaVuSans-63" x="927.441406"/>
     <use xlink:href="#DejaVuSans-75" x="982.421875"/>
     <use xlink:href="#DejaVuSans-73" x="1045.800781"/>
     <use xlink:href="#DejaVuSans-64" x="1097.900391"/>
    </g>
   </g>
   <g id="legend_1">
    <g id="patch_7">
     <path d="M 64.6 93.506375 
L 258.804688 93.506375 
Q 260.804688 93.506375 260.804688 91.506375 
L 260.804688 48.472 
Q 260.804688 46.472 258.804688 46.472 
L 64.6 46.472 
Q 62.6 46.472 62.6 48.472 
L 62.6 91.506375 
Q 62.6 93.506375 64.6 93.506375 
z
" style="fill: #ffffff; opacity: 0.8; stroke: #cccccc; stroke-linejoin: miter"/>
    </g>
    <g id="line2d_17">
     <path d="M 66.6 54.570438 
L 76.6 54.570438 
L 86.6 54.570438 
" style="fill: none; stroke: #1f77b4; stroke-opacity: 0.7; stroke-width: 1.5; stroke-linecap: square"/>
    </g>
    <g id="text_16">
     <!-- Positive cumulative predictions -->
     <g transform="translate(94.6 58.070438) scale(0.1 -0.1)">
      <defs>
       <path id="DejaVuSans-50" d="M 1259 4147 
L 1259 2394 
L 2053 2394 
Q 2494 2394 2734 2622 
Q 2975 2850 2975 3272 
Q 2975 3691 2734 3919 
Q 2494 4147 2053 4147 
L 1259 4147 
z
M 628 4666 
L 2053 4666 
Q 2838 4666 3239 4311 
Q 3641 3956 3641 3272 
Q 3641 2581 3239 2228 
Q 2838 1875 2053 1875 
L 1259 1875 
L 1259 0 
L 628 0 
L 628 4666 
z
" transform="scale(0.015625)"/>
       <path id="DejaVuSans-6f" d="M 1959 3097 
Q 1497 3097 1228 2736 
Q 959 2375 959 1747 
Q 959 1119 1226 758 
Q 1494 397 1959 397 
Q 2419 397 2687 759 
Q 2956 1122 2956 1747 
Q 2956 2369 2687 2733 
Q 2419 3097 1959 3097 
z
M 1959 3584 
Q 2709 3584 3137 3096 
Q 3566 2609 3566 1747 
Q 3566 888 3137 398 
Q 2709 -91 1959 -91 
Q 1206 -91 779 398 
Q 353 888 353 1747 
Q 353 2609 779 3096 
Q 1206 3584 1959 3584 
z
" transform="scale(0.015625)"/>
       <path id="DejaVuSans-20" transform="scale(0.015625)"/>
       <path id="DejaVuSans-6d" d="M 3328 2828 
Q 3544 3216 3844 3400 
Q 4144 3584 4550 3584 
Q 5097 3584 5394 3201 
Q 5691 2819 5691 2113 
L 5691 0 
L 5113 0 
L 5113 2094 
Q 5113 2597 4934 2840 
Q 4756 3084 4391 3084 
Q 3944 3084 3684 2787 
Q 3425 2491 3425 1978 
L 3425 0 
L 2847 0 
L 2847 2094 
Q 2847 2600 2669 2842 
Q 2491 3084 2119 3084 
Q 1678 3084 1418 2786 
Q 1159 2488 1159 1978 
L 1159 0 
L 581 0 
L 581 3500 
L 1159 3500 
L 1159 2956 
Q 1356 3278 1631 3431 
Q 1906 3584 2284 3584 
Q 2666 3584 2933 3390 
Q 3200 3197 3328 2828 
z
" transform="scale(0.015625)"/>
       <path id="DejaVuSans-70" d="M 1159 525 
L 1159 -1331 
L 581 -1331 
L 581 3500 
L 1159 3500 
L 1159 2969 
Q 1341 3281 1617 3432 
Q 1894 3584 2278 3584 
Q 2916 3584 3314 3078 
Q 3713 2572 3713 1747 
Q 3713 922 3314 415 
Q 2916 -91 2278 -91 
Q 1894 -91 1617 61 
Q 1341 213 1159 525 
z
M 3116 1747 
Q 3116 2381 2855 2742 
Q 2594 3103 2138 3103 
Q 1681 3103 1420 2742 
Q 1159 2381 1159 1747 
Q 1159 1113 1420 752 
Q 1681 391 2138 391 
Q 2594 391 2855 752 
Q 3116 1113 3116 1747 
z
" transform="scale(0.015625)"/>
       <path id="DejaVuSans-72" d="M 2631 2963 
Q 2534 3019 2420 3045 
Q 2306 3072 2169 3072 
Q 1681 3072 1420 2755 
Q 1159 2438 1159 1844 
L 1159 0 
L 581 0 
L 581 3500 
L 1159 3500 
L 1159 2956 
Q 1341 3275 1631 3429 
Q 1922 3584 2338 3584 
Q 2397 3584 2469 3576 
Q 2541 3569 2628 3553 
L 2631 2963 
z
" transform="scale(0.015625)"/>
      </defs>
      <use xlink:href="#DejaVuSans-50"/>
      <use xlink:href="#DejaVuSans-6f" x="56.677734"/>
      <use xlink:href="#DejaVuSans-73" x="117.859375"/>
      <use xlink:href="#DejaVuSans-69" x="169.958984"/>
      <use xlink:href="#DejaVuSans-74" x="197.742188"/>
      <use xlink:href="#DejaVuSans-69" x="236.951172"/>
      <use xlink:href="#DejaVuSans-76" x="264.734375"/>
      <use xlink:href="#DejaVuSans-65" x="323.914062"/>
      <use xlink:href="#DejaVuSans-20" x="385.4375"/>
      <use xlink:href="#DejaVuSans-63" x="417.224609"/>
      <use xlink:href="#DejaVuSans-75" x="472.205078"/>
      <use xlink:href="#DejaVuSans-6d" x="535.583984"/>
      <use xlink:href="#DejaVuSans-75" x="632.996094"/>
      <use xlink:href="#DejaVuSans-6c" x="696.375"/>
      <use xlink:href="#DejaVuSans-61" x="724.158203"/>
      <use xlink:href="#DejaVuSans-74" x="785.4375"/>
      <use xlink:href="#DejaVuSans-69" x="824.646484"/>
      <use xlink:href="#DejaVuSans-76" x="852.429688"/>
      <use xlink:href="#DejaVuSans-65" x="911.609375"/>
      <use xlink:href="#DejaVuSans-20" x="973.132812"/>
      <use xlink:href="#DejaVuSans-70" x="1004.919922"/>
      <use xlink:href="#DejaVuSans-72" x="1068.396484"/>
      <use xlink:href="#DejaVuSans-65" x="1107.259766"/>
      <use xlink:href="#DejaVuSans-64" x="1168.783203"/>
      <use xlink:href="#DejaVuSans-69" x="1232.259766"/>
      <use xlink:href="#DejaVuSans-63" x="1260.042969"/>
      <use xlink:href="#DejaVuSans-74" x="1315.023438"/>
      <use xlink:href="#DejaVuSans-69" x="1354.232422"/>
      <use xlink:href="#DejaVuSans-6f" x="1382.015625"/>
      <use xlink:href="#DejaVuSans-6e" x="1443.197266"/>
      <use xlink:href="#DejaVuSans-73" x="1506.576172"/>
     </g>
    </g>
    <g id="line2d_18">
     <path d="M 66.6 69.248563 
L 76.6 69.248563 
L 86.6 69.248563 
" style="fill: none; stroke: #ff7f0e; stroke-opacity: 0.7; stroke-width: 1.5; stroke-linecap: square"/>
    </g>
    <g id="text_17">
     <!-- Negative cumulative predictions -->
     <g transform="translate(94.6 72.748563) scale(0.1 -0.1)">
      <defs>
       <path id="DejaVuSans-4e" d="M 628 4666 
L 1478 4666 
L 3547 763 
L 3547 4666 
L 4159 4666 
L 4159 0 
L 3309 0 
L 1241 3903 
L 1241 0 
L 628 0 
L 628 4666 
z
" transform="scale(0.015625)"/>
       <path id="DejaVuSans-67" d="M 2906 1791 
Q 2906 2416 2648 2759 
Q 2391 3103 1925 3103 
Q 1463 3103 1205 2759 
Q 947 2416 947 1791 
Q 947 1169 1205 825 
Q 1463 481 1925 481 
Q 2391 481 2648 825 
Q 2906 1169 2906 1791 
z
M 3481 434 
Q 3481 -459 3084 -895 
Q 2688 -1331 1869 -1331 
Q 1566 -1331 1297 -1286 
Q 1028 -1241 775 -1147 
L 775 -588 
Q 1028 -725 1275 -790 
Q 1522 -856 1778 -856 
Q 2344 -856 2625 -561 
Q 2906 -266 2906 331 
L 2906 616 
Q 2728 306 2450 153 
Q 2172 0 1784 0 
Q 1141 0 747 490 
Q 353 981 353 1791 
Q 353 2603 747 3093 
Q 1141 3584 1784 3584 
Q 2172 3584 2450 3431 
Q 2728 3278 2906 2969 
L 2906 3500 
L 3481 3500 
L 3481 434 
z
" transform="scale(0.015625)"/>
      </defs>
      <use xlink:href="#DejaVuSans-4e"/>
      <use xlink:href="#DejaVuSans-65" x="74.804688"/>
      <use xlink:href="#DejaVuSans-67" x="136.328125"/>
      <use xlink:href="#DejaVuSans-61" x="199.804688"/>
      <use xlink:href="#DejaVuSans-74" x="261.083984"/>
      <use xlink:href="#DejaVuSans-69" x="300.292969"/>
      <use xlink:href="#DejaVuSans-76" x="328.076172"/>
      <use xlink:href="#DejaVuSans-65" x="387.255859"/>
      <use xlink:href="#DejaVuSans-20" x="448.779297"/>
      <use xlink:href="#DejaVuSans-63" x="480.566406"/>
      <use xlink:href="#DejaVuSans-75" x="535.546875"/>
      <use xlink:href="#DejaVuSans-6d" x="598.925781"/>
      <use xlink:href="#DejaVuSans-75" x="696.337891"/>
      <use xlink:href="#DejaVuSans-6c" x="759.716797"/>
      <use xlink:href="#DejaVuSans-61" x="787.5"/>
      <use xlink:href="#DejaVuSans-74" x="848.779297"/>
      <use xlink:href="#DejaVuSans-69" x="887.988281"/>
      <use xlink:href="#DejaVuSans-76" x="915.771484"/>
      <use xlink:href="#DejaVuSans-65" x="974.951172"/>
      <use xlink:href="#DejaVuSans-20" x="1036.474609"/>
      <use xlink:href="#DejaVuSans-70" x="1068.261719"/>
      <use xlink:href="#DejaVuSans-72" x="1131.738281"/>
      <use xlink:href="#DejaVuSans-65" x="1170.601562"/>
      <use xlink:href="#DejaVuSans-64" x="1232.125"/>
      <use xlink:href="#DejaVuSans-69" x="1295.601562"/>
      <use xlink:href="#DejaVuSans-63" x="1323.384766"/>
      <use xlink:href="#DejaVuSans-74" x="1378.365234"/>
      <use xlink:href="#DejaVuSans-69" x="1417.574219"/>
      <use xlink:href="#DejaVuSans-6f" x="1445.357422"/>
      <use xlink:href="#DejaVuSans-6e" x="1506.539062"/>
      <use xlink:href="#DejaVuSans-73" x="1569.917969"/>
     </g>
    </g>
    <g id="line2d_19">
     <path d="M 66.6 83.926688 
L 76.6 83.926688 
L 86.6 83.926688 
" style="fill: none; stroke: #2ca02c; stroke-opacity: 0.7; stroke-width: 1.5; stroke-linecap: square"/>
    </g>
    <g id="text_18">
     <!-- Average cumulative predictions -->
     <g transform="translate(94.6 87.426688) scale(0.1 -0.1)">
      <defs>
       <path id="DejaVuSans-41" d="M 2188 4044 
L 1331 1722 
L 3047 1722 
L 2188 4044 
z
M 1831 4666 
L 2547 4666 
L 4325 0 
L 3669 0 
L 3244 1197 
L 1141 1197 
L 716 0 
L 50 0 
L 1831 4666 
z
" transform="scale(0.015625)"/>
      </defs>
      <use xlink:href="#DejaVuSans-41"/>
      <use xlink:href="#DejaVuSans-76" x="62.533203"/>
      <use xlink:href="#DejaVuSans-65" x="121.712891"/>
      <use xlink:href="#DejaVuSans-72" x="183.236328"/>
      <use xlink:href="#DejaVuSans-61" x="224.349609"/>
      <use xlink:href="#DejaVuSans-67" x="285.628906"/>
      <use xlink:href="#DejaVuSans-65" x="349.105469"/>
      <use xlink:href="#DejaVuSans-20" x="410.628906"/>
      <use xlink:href="#DejaVuSans-63" x="442.416016"/>
      <use xlink:href="#DejaVuSans-75" x="497.396484"/>
      <use xlink:href="#DejaVuSans-6d" x="560.775391"/>
      <use xlink:href="#DejaVuSans-75" x="658.1875"/>
      <use xlink:href="#DejaVuSans-6c" x="721.566406"/>
      <use xlink:href="#DejaVuSans-61" x="749.349609"/>
      <use xlink:href="#DejaVuSans-74" x="810.628906"/>
      <use xlink:href="#DejaVuSans-69" x="849.837891"/>
      <use xlink:href="#DejaVuSans-76" x="877.621094"/>
      <use xlink:href="#DejaVuSans-65" x="936.800781"/>
      <use xlink:href="#DejaVuSans-20" x="998.324219"/>
      <use xlink:href="#DejaVuSans-70" x="1030.111328"/>
      <use xlink:href="#DejaVuSans-72" x="1093.587891"/>
      <use xlink:href="#DejaVuSans-65" x="1132.451172"/>
      <use xlink:href="#DejaVuSans-64" x="1193.974609"/>
      <use xlink:href="#DejaVuSans-69" x="1257.451172"/>
      <use xlink:href="#DejaVuSans-63" x="1285.234375"/>
      <use xlink:href="#DejaVuSans-74" x="1340.214844"/>
      <use xlink:href="#DejaVuSans-69" x="1379.423828"/>
      <use xlink:href="#DejaVuSans-6f" x="1407.207031"/>
      <use xlink:href="#DejaVuSans-6e" x="1468.388672"/>
      <use xlink:href="#DejaVuSans-73" x="1531.767578"/>
     </g>
    </g>
   </g>
  </g>
 </g>
 <defs>
  <clipPath id="p1b59d2b9da">
   <rect x="57.6" y="41.472" width="357.12" height="266.112"/>
  </clipPath>
 </defs>
</svg>
