<?xml version="1.0" encoding="utf-8" standalone="no"?>
<!DOCTYPE svg PUBLIC "-//W3C//DTD SVG 1.1//EN"
  "http://www.w3.org/Graphics/SVG/1.1/DTD/svg11.dtd">
<svg xmlns:xlink="http://www.w3.org/1999/xlink" width="460.8pt" height="345.6pt" viewBox="0 0 460.8 345.6" xmlns="http://www.w3.org/2000/svg" version="1.1">
 <metadata>
  <rdf:RDF xmlns:dc="http://purl.org/dc/elements/1.1/" xmlns:cc="http://creativecommons.org/ns#" xmlns:rdf="http://www.w3.org/1999/02/22-rdf-syntax-ns#">
   <cc:Work>
    <dc:type rdf:resource="http://purl.org/dc/dcmitype/StillImage"/>
    <dc:date>2024-09-12T12:37:28.059014</dc:date>
    <dc:format>image/svg+xml</dc:format>
    <dc:creator>
     <cc:Agent>
      <dc:title>Matplotlib v3.8.3, https://matplotlib.org/</dc:title>
     </cc:Agent>
    </dc:creator>
   </cc:Work>
  </rdf:RDF>
 </metadata>
 <defs>
  <style type="text/css">*{stroke-linejoin: round; stroke-linecap: butt}</style>
 </defs>
 <g id="figure_1">
  <g id="patch_1">
   <path d="M 0 345.6 
L 460.8 345.6 
L 460.8 0 
L 0 0 
z
" style="fill: #ffffff"/>
  </g>
  <g id="axes_1">
   <g id="patch_2">
    <path d="M 57.6 307.584 
L 414.72 307.584 
L 414.72 41.472 
L 57.6 41.472 
z
" style="fill: #ffffff"/>
   </g>
   <g id="matplotlib.axis_1">
    <g id="xtick_1">
     <g id="line2d_1">
      <defs>
       <path id="m22b8a139eb" d="M 0 0 
L 0 3.5 
" style="stroke: #000000; stroke-width: 0.8"/>
      </defs>
      <g>
       <use xlink:href="#m22b8a139eb" x="73.832727" y="307.584" style="stroke: #000000; stroke-width: 0.8"/>
      </g>
     </g>
     <g id="text_1">
      <!-- 0 -->
      <g transform="translate(70.651477 322.182437) scale(0.1 -0.1)">
       <defs>
        <path id="DejaVuSans-30" d="M 2034 4250 
Q 1547 4250 1301 3770 
Q 1056 3291 1056 2328 
Q 1056 1369 1301 889 
Q 1547 409 2034 409 
Q 2525 409 2770 889 
Q 3016 1369 3016 2328 
Q 3016 3291 2770 3770 
Q 2525 4250 2034 4250 
z
M 2034 4750 
Q 2819 4750 3233 4129 
Q 3647 3509 3647 2328 
Q 3647 1150 3233 529 
Q 2819 -91 2034 -91 
Q 1250 -91 836 529 
Q 422 1150 422 2328 
Q 422 3509 836 4129 
Q 1250 4750 2034 4750 
z
" transform="scale(0.015625)"/>
       </defs>
       <use xlink:href="#DejaVuSans-30"/>
      </g>
     </g>
    </g>
    <g id="xtick_2">
     <g id="line2d_2">
      <g>
       <use xlink:href="#m22b8a139eb" x="116.27123" y="307.584" style="stroke: #000000; stroke-width: 0.8"/>
      </g>
     </g>
     <g id="text_2">
      <!-- 20 -->
      <g transform="translate(109.90873 322.182437) scale(0.1 -0.1)">
       <defs>
        <path id="DejaVuSans-32" d="M 1228 531 
L 3431 531 
L 3431 0 
L 469 0 
L 469 531 
Q 828 903 1448 1529 
Q 2069 2156 2228 2338 
Q 2531 2678 2651 2914 
Q 2772 3150 2772 3378 
Q 2772 3750 2511 3984 
Q 2250 4219 1831 4219 
Q 1534 4219 1204 4116 
Q 875 4013 500 3803 
L 500 4441 
Q 881 4594 1212 4672 
Q 1544 4750 1819 4750 
Q 2544 4750 2975 4387 
Q 3406 4025 3406 3419 
Q 3406 3131 3298 2873 
Q 3191 2616 2906 2266 
Q 2828 2175 2409 1742 
Q 1991 1309 1228 531 
z
" transform="scale(0.015625)"/>
       </defs>
       <use xlink:href="#DejaVuSans-32"/>
       <use xlink:href="#DejaVuSans-30" x="63.623047"/>
      </g>
     </g>
    </g>
    <g id="xtick_3">
     <g id="line2d_3">
      <g>
       <use xlink:href="#m22b8a139eb" x="158.709733" y="307.584" style="stroke: #000000; stroke-width: 0.8"/>
      </g>
     </g>
     <g id="text_3">
      <!-- 40 -->
      <g transform="translate(152.347233 322.182437) scale(0.1 -0.1)">
       <defs>
        <path id="DejaVuSans-34" d="M 2419 4116 
L 825 1625 
L 2419 1625 
L 2419 4116 
z
M 2253 4666 
L 3047 4666 
L 3047 1625 
L 3713 1625 
L 3713 1100 
L 3047 1100 
L 3047 0 
L 2419 0 
L 2419 1100 
L 313 1100 
L 313 1709 
L 2253 4666 
z
" transform="scale(0.015625)"/>
       </defs>
       <use xlink:href="#DejaVuSans-34"/>
       <use xlink:href="#DejaVuSans-30" x="63.623047"/>
      </g>
     </g>
    </g>
    <g id="xtick_4">
     <g id="line2d_4">
      <g>
       <use xlink:href="#m22b8a139eb" x="201.148235" y="307.584" style="stroke: #000000; stroke-width: 0.8"/>
      </g>
     </g>
     <g id="text_4">
      <!-- 60 -->
      <g transform="translate(194.785735 322.182437) scale(0.1 -0.1)">
       <defs>
        <path id="DejaVuSans-36" d="M 2113 2584 
Q 1688 2584 1439 2293 
Q 1191 2003 1191 1497 
Q 1191 994 1439 701 
Q 1688 409 2113 409 
Q 2538 409 2786 701 
Q 3034 994 3034 1497 
Q 3034 2003 2786 2293 
Q 2538 2584 2113 2584 
z
M 3366 4563 
L 3366 3988 
Q 3128 4100 2886 4159 
Q 2644 4219 2406 4219 
Q 1781 4219 1451 3797 
Q 1122 3375 1075 2522 
Q 1259 2794 1537 2939 
Q 1816 3084 2150 3084 
Q 2853 3084 3261 2657 
Q 3669 2231 3669 1497 
Q 3669 778 3244 343 
Q 2819 -91 2113 -91 
Q 1303 -91 875 529 
Q 447 1150 447 2328 
Q 447 3434 972 4092 
Q 1497 4750 2381 4750 
Q 2619 4750 2861 4703 
Q 3103 4656 3366 4563 
z
" transform="scale(0.015625)"/>
       </defs>
       <use xlink:href="#DejaVuSans-36"/>
       <use xlink:href="#DejaVuSans-30" x="63.623047"/>
      </g>
     </g>
    </g>
    <g id="xtick_5">
     <g id="line2d_5">
      <g>
       <use xlink:href="#m22b8a139eb" x="243.586738" y="307.584" style="stroke: #000000; stroke-width: 0.8"/>
      </g>
     </g>
     <g id="text_5">
      <!-- 80 -->
      <g transform="translate(237.224238 322.182437) scale(0.1 -0.1)">
       <defs>
        <path id="DejaVuSans-38" d="M 2034 2216 
Q 1584 2216 1326 1975 
Q 1069 1734 1069 1313 
Q 1069 891 1326 650 
Q 1584 409 2034 409 
Q 2484 409 2743 651 
Q 3003 894 3003 1313 
Q 3003 1734 2745 1975 
Q 2488 2216 2034 2216 
z
M 1403 2484 
Q 997 2584 770 2862 
Q 544 3141 544 3541 
Q 544 4100 942 4425 
Q 1341 4750 2034 4750 
Q 2731 4750 3128 4425 
Q 3525 4100 3525 3541 
Q 3525 3141 3298 2862 
Q 3072 2584 2669 2484 
Q 3125 2378 3379 2068 
Q 3634 1759 3634 1313 
Q 3634 634 3220 271 
Q 2806 -91 2034 -91 
Q 1263 -91 848 271 
Q 434 634 434 1313 
Q 434 1759 690 2068 
Q 947 2378 1403 2484 
z
M 1172 3481 
Q 1172 3119 1398 2916 
Q 1625 2713 2034 2713 
Q 2441 2713 2670 2916 
Q 2900 3119 2900 3481 
Q 2900 3844 2670 4047 
Q 2441 4250 2034 4250 
Q 1625 4250 1398 4047 
Q 1172 3844 1172 3481 
z
" transform="scale(0.015625)"/>
       </defs>
       <use xlink:href="#DejaVuSans-38"/>
       <use xlink:href="#DejaVuSans-30" x="63.623047"/>
      </g>
     </g>
    </g>
    <g id="xtick_6">
     <g id="line2d_6">
      <g>
       <use xlink:href="#m22b8a139eb" x="286.025241" y="307.584" style="stroke: #000000; stroke-width: 0.8"/>
      </g>
     </g>
     <g id="text_6">
      <!-- 100 -->
      <g transform="translate(276.481491 322.182437) scale(0.1 -0.1)">
       <defs>
        <path id="DejaVuSans-31" d="M 794 531 
L 1825 531 
L 1825 4091 
L 703 3866 
L 703 4441 
L 1819 4666 
L 2450 4666 
L 2450 531 
L 3481 531 
L 3481 0 
L 794 0 
L 794 531 
z
" transform="scale(0.015625)"/>
       </defs>
       <use xlink:href="#DejaVuSans-31"/>
       <use xlink:href="#DejaVuSans-30" x="63.623047"/>
       <use xlink:href="#DejaVuSans-30" x="127.246094"/>
      </g>
     </g>
    </g>
    <g id="xtick_7">
     <g id="line2d_7">
      <g>
       <use xlink:href="#m22b8a139eb" x="328.463743" y="307.584" style="stroke: #000000; stroke-width: 0.8"/>
      </g>
     </g>
     <g id="text_7">
      <!-- 120 -->
      <g transform="translate(318.919993 322.182437) scale(0.1 -0.1)">
       <use xlink:href="#DejaVuSans-31"/>
       <use xlink:href="#DejaVuSans-32" x="63.623047"/>
       <use xlink:href="#DejaVuSans-30" x="127.246094"/>
      </g>
     </g>
    </g>
    <g id="xtick_8">
     <g id="line2d_8">
      <g>
       <use xlink:href="#m22b8a139eb" x="370.902246" y="307.584" style="stroke: #000000; stroke-width: 0.8"/>
      </g>
     </g>
     <g id="text_8">
      <!-- 140 -->
      <g transform="translate(361.358496 322.182437) scale(0.1 -0.1)">
       <use xlink:href="#DejaVuSans-31"/>
       <use xlink:href="#DejaVuSans-34" x="63.623047"/>
       <use xlink:href="#DejaVuSans-30" x="127.246094"/>
      </g>
     </g>
    </g>
    <g id="xtick_9">
     <g id="line2d_9">
      <g>
       <use xlink:href="#m22b8a139eb" x="413.340749" y="307.584" style="stroke: #000000; stroke-width: 0.8"/>
      </g>
     </g>
     <g id="text_9">
      <!-- 160 -->
      <g transform="translate(403.796999 322.182437) scale(0.1 -0.1)">
       <use xlink:href="#DejaVuSans-31"/>
       <use xlink:href="#DejaVuSans-36" x="63.623047"/>
       <use xlink:href="#DejaVuSans-30" x="127.246094"/>
      </g>
     </g>
    </g>
   </g>
   <g id="matplotlib.axis_2">
    <g id="ytick_1">
     <g id="line2d_10">
      <defs>
       <path id="m7265e087ca" d="M 0 0 
L -3.5 0 
" style="stroke: #000000; stroke-width: 0.8"/>
      </defs>
      <g>
       <use xlink:href="#m7265e087ca" x="57.6" y="305.014364" style="stroke: #000000; stroke-width: 0.8"/>
      </g>
     </g>
     <g id="text_10">
      <!-- −0.02 -->
      <g transform="translate(19.954687 308.813583) scale(0.1 -0.1)">
       <defs>
        <path id="DejaVuSans-2212" d="M 678 2272 
L 4684 2272 
L 4684 1741 
L 678 1741 
L 678 2272 
z
" transform="scale(0.015625)"/>
        <path id="DejaVuSans-2e" d="M 684 794 
L 1344 794 
L 1344 0 
L 684 0 
L 684 794 
z
" transform="scale(0.015625)"/>
       </defs>
       <use xlink:href="#DejaVuSans-2212"/>
       <use xlink:href="#DejaVuSans-30" x="83.789062"/>
       <use xlink:href="#DejaVuSans-2e" x="147.412109"/>
       <use xlink:href="#DejaVuSans-30" x="179.199219"/>
       <use xlink:href="#DejaVuSans-32" x="242.822266"/>
      </g>
     </g>
    </g>
    <g id="ytick_2">
     <g id="line2d_11">
      <g>
       <use xlink:href="#m7265e087ca" x="57.6" y="254.964681" style="stroke: #000000; stroke-width: 0.8"/>
      </g>
     </g>
     <g id="text_11">
      <!-- −0.01 -->
      <g transform="translate(19.954687 258.7639) scale(0.1 -0.1)">
       <use xlink:href="#DejaVuSans-2212"/>
       <use xlink:href="#DejaVuSans-30" x="83.789062"/>
       <use xlink:href="#DejaVuSans-2e" x="147.412109"/>
       <use xlink:href="#DejaVuSans-30" x="179.199219"/>
       <use xlink:href="#DejaVuSans-31" x="242.822266"/>
      </g>
     </g>
    </g>
    <g id="ytick_3">
     <g id="line2d_12">
      <g>
       <use xlink:href="#m7265e087ca" x="57.6" y="204.914999" style="stroke: #000000; stroke-width: 0.8"/>
      </g>
     </g>
     <g id="text_12">
      <!-- 0.00 -->
      <g transform="translate(28.334375 208.714217) scale(0.1 -0.1)">
       <use xlink:href="#DejaVuSans-30"/>
       <use xlink:href="#DejaVuSans-2e" x="63.623047"/>
       <use xlink:href="#DejaVuSans-30" x="95.410156"/>
       <use xlink:href="#DejaVuSans-30" x="159.033203"/>
      </g>
     </g>
    </g>
    <g id="ytick_4">
     <g id="line2d_13">
      <g>
       <use xlink:href="#m7265e087ca" x="57.6" y="154.865316" style="stroke: #000000; stroke-width: 0.8"/>
      </g>
     </g>
     <g id="text_13">
      <!-- 0.01 -->
      <g transform="translate(28.334375 158.664535) scale(0.1 -0.1)">
       <use xlink:href="#DejaVuSans-30"/>
       <use xlink:href="#DejaVuSans-2e" x="63.623047"/>
       <use xlink:href="#DejaVuSans-30" x="95.410156"/>
       <use xlink:href="#DejaVuSans-31" x="159.033203"/>
      </g>
     </g>
    </g>
    <g id="ytick_5">
     <g id="line2d_14">
      <g>
       <use xlink:href="#m7265e087ca" x="57.6" y="104.815633" style="stroke: #000000; stroke-width: 0.8"/>
      </g>
     </g>
     <g id="text_14">
      <!-- 0.02 -->
      <g transform="translate(28.334375 108.614852) scale(0.1 -0.1)">
       <use xlink:href="#DejaVuSans-30"/>
       <use xlink:href="#DejaVuSans-2e" x="63.623047"/>
       <use xlink:href="#DejaVuSans-30" x="95.410156"/>
       <use xlink:href="#DejaVuSans-32" x="159.033203"/>
      </g>
     </g>
    </g>
    <g id="ytick_6">
     <g id="line2d_15">
      <g>
       <use xlink:href="#m7265e087ca" x="57.6" y="54.765951" style="stroke: #000000; stroke-width: 0.8"/>
      </g>
     </g>
     <g id="text_15">
      <!-- 0.03 -->
      <g transform="translate(28.334375 58.56517) scale(0.1 -0.1)">
       <defs>
        <path id="DejaVuSans-33" d="M 2597 2516 
Q 3050 2419 3304 2112 
Q 3559 1806 3559 1356 
Q 3559 666 3084 287 
Q 2609 -91 1734 -91 
Q 1441 -91 1130 -33 
Q 819 25 488 141 
L 488 750 
Q 750 597 1062 519 
Q 1375 441 1716 441 
Q 2309 441 2620 675 
Q 2931 909 2931 1356 
Q 2931 1769 2642 2001 
Q 2353 2234 1838 2234 
L 1294 2234 
L 1294 2753 
L 1863 2753 
Q 2328 2753 2575 2939 
Q 2822 3125 2822 3475 
Q 2822 3834 2567 4026 
Q 2313 4219 1838 4219 
Q 1578 4219 1281 4162 
Q 984 4106 628 3988 
L 628 4550 
Q 988 4650 1302 4700 
Q 1616 4750 1894 4750 
Q 2613 4750 3031 4423 
Q 3450 4097 3450 3541 
Q 3450 3153 3228 2886 
Q 3006 2619 2597 2516 
z
" transform="scale(0.015625)"/>
       </defs>
       <use xlink:href="#DejaVuSans-30"/>
       <use xlink:href="#DejaVuSans-2e" x="63.623047"/>
       <use xlink:href="#DejaVuSans-30" x="95.410156"/>
       <use xlink:href="#DejaVuSans-33" x="159.033203"/>
      </g>
     </g>
    </g>
   </g>
   <g id="line2d_16">
    <path d="M 73.832727 202.954829 
L 75.954652 200.409112 
L 78.076578 202.828371 
L 80.198503 198.639351 
L 82.320428 207.354863 
L 84.442353 186.192576 
L 86.564278 195.743745 
L 88.686203 201.22682 
L 90.808128 199.716011 
L 92.930053 206.319677 
L 95.051979 211.283259 
L 97.173904 204.877758 
L 99.295829 200.184424 
L 101.417754 207.597317 
L 103.539679 209.814024 
L 105.661604 213.727488 
L 107.783529 192.888587 
L 109.905455 203.158442 
L 112.02738 203.464012 
L 114.149305 202.426896 
L 116.27123 209.673494 
L 118.393155 204.780931 
L 120.51508 209.524812 
L 122.637005 209.939674 
L 124.75893 196.155065 
L 126.880856 207.213662 
L 129.002781 206.307187 
L 131.124706 198.748589 
L 133.246631 214.875317 
L 135.368556 198.598886 
L 137.490481 206.523768 
L 139.612406 202.963945 
L 141.734332 206.047486 
L 143.856257 206.091006 
L 145.978182 208.049073 
L 148.100107 213.227195 
L 150.222032 201.203558 
L 152.343957 198.898169 
L 154.465882 209.768138 
L 156.587807 202.672297 
L 158.709733 199.890648 
L 160.831658 205.921162 
L 162.953583 204.442005 
L 165.075508 214.442913 
L 167.197433 206.384176 
L 169.319358 200.317652 
L 171.441283 204.086136 
L 173.563209 211.099968 
L 175.685134 208.681056 
L 177.807059 202.424824 
L 179.928984 201.184077 
L 182.050909 202.006609 
L 184.172834 200.433879 
L 186.294759 233.167039 
L 188.416684 171.044485 
L 190.53861 211.480523 
L 192.660535 208.858854 
L 194.78246 210.512099 
L 196.904385 198.939018 
L 199.02631 220.637071 
L 201.148235 212.183483 
L 203.27016 204.189583 
L 205.392086 209.694197 
L 207.514011 222.479073 
L 209.635936 211.589136 
L 211.757861 205.81155 
L 213.879786 206.84679 
L 216.001711 205.596309 
L 218.123636 198.855576 
L 220.245561 204.836542 
L 222.367487 201.392317 
L 224.489412 215.238864 
L 226.611337 211.319566 
L 228.733262 212.97042 
L 232.977112 203.808249 
L 235.099037 203.988903 
L 237.220963 198.819564 
L 239.342888 208.742025 
L 241.464813 194.809702 
L 243.586738 202.834326 
L 245.708663 199.281087 
L 247.830588 215.052438 
L 249.952513 207.8001 
L 252.074439 211.009296 
L 254.196364 206.793427 
L 256.318289 200.815729 
L 258.440214 196.514854 
L 260.562139 201.527965 
L 262.684064 200.038506 
L 264.805989 203.80424 
L 266.927914 202.457907 
L 269.04984 214.459778 
L 271.171765 197.199458 
L 273.29369 198.93752 
L 275.415615 204.620322 
L 277.53754 203.08717 
L 279.659465 199.379596 
L 281.78139 197.832753 
L 283.903316 206.190927 
L 286.025241 205.880901 
L 288.147166 206.728926 
L 290.269091 204.588881 
L 292.391016 210.948183 
L 294.512941 198.296929 
L 296.634866 183.123347 
L 298.756791 213.827821 
L 300.878717 205.560041 
L 303.000642 193.798821 
L 305.122567 191.504407 
L 307.244492 198.794836 
L 309.366417 222.094464 
L 311.488342 193.391658 
L 313.610267 209.374558 
L 315.732193 185.575463 
L 317.854118 207.420567 
L 319.976043 204.203189 
L 322.097968 198.87441 
L 324.219893 199.452091 
L 326.341818 211.390193 
L 328.463743 194.309449 
L 330.585668 203.137628 
L 332.707594 216.557123 
L 334.829519 224.42429 
L 336.951444 207.517367 
L 339.073369 213.260714 
L 341.195294 212.743504 
L 343.317219 204.868454 
L 345.439144 215.828719 
L 347.56107 201.620563 
L 349.682995 200.070754 
L 351.80492 202.514652 
L 353.926845 208.057703 
L 356.04877 211.585795 
L 358.170695 214.480602 
L 360.29262 206.498539 
L 362.414545 197.358911 
L 364.536471 198.853011 
L 366.658396 206.765779 
L 368.780321 213.103179 
L 370.902246 208.456154 
L 373.024171 213.00323 
L 375.146096 199.114811 
L 377.268021 198.917908 
L 379.389947 200.313974 
L 381.511872 199.959414 
L 383.633797 200.221911 
L 385.755722 203.213571 
L 389.999572 211.752193 
L 392.121497 217.817163 
L 394.243422 196.536022 
L 396.365348 218.325582 
L 398.487273 207.120494 
L 398.487273 207.120494 
" clip-path="url(#pc05a8e01d3)" style="fill: none; stroke: #008000; stroke-opacity: 0.8; stroke-width: 0.5; stroke-linecap: square"/>
   </g>
   <g id="line2d_17">
    <path d="M 73.832727 151.671008 
L 75.954652 146.581329 
L 78.076578 159.433432 
L 80.198503 152.812246 
L 82.320428 181.407002 
L 84.442353 159.589551 
L 86.564278 150.099227 
L 88.686203 162.850354 
L 90.808128 85.035204 
L 92.930053 162.957994 
L 95.051979 180.777771 
L 97.173904 158.488369 
L 99.295829 162.702301 
L 101.417754 141.759627 
L 103.539679 174.061926 
L 105.661604 174.328394 
L 107.783529 149.94795 
L 109.905455 168.709979 
L 112.02738 169.187786 
L 114.149305 160.58291 
L 116.27123 164.769834 
L 118.393155 180.909311 
L 120.51508 163.932612 
L 122.637005 134.078653 
L 124.75893 168.624469 
L 126.880856 183.948615 
L 129.002781 171.172424 
L 131.124706 148.14233 
L 133.246631 179.343581 
L 135.368556 166.289236 
L 137.490481 175.341208 
L 139.612406 170.593148 
L 141.734332 189.17132 
L 143.856257 189.368453 
L 145.978182 174.146235 
L 148.100107 190.520758 
L 150.222032 166.959076 
L 152.343957 178.445841 
L 154.465882 162.789484 
L 156.587807 185.206057 
L 158.709733 170.891253 
L 160.831658 167.186339 
L 162.953583 174.003655 
L 165.075508 198.785534 
L 167.197433 191.611097 
L 169.319358 178.627523 
L 171.441283 184.196906 
L 173.563209 174.892874 
L 175.685134 182.69699 
L 177.807059 180.948413 
L 179.928984 183.212612 
L 182.050909 183.284715 
L 184.172834 183.591552 
L 186.294759 184.824762 
L 188.416684 53.568 
L 190.53861 151.295424 
L 192.660535 165.587812 
L 194.78246 182.435523 
L 196.904385 172.929894 
L 199.02631 183.186945 
L 201.148235 166.697995 
L 203.27016 169.381297 
L 205.392086 179.797482 
L 207.514011 192.80847 
L 209.635936 158.08516 
L 211.757861 152.725429 
L 213.879786 167.008699 
L 216.001711 179.279286 
L 218.123636 166.222149 
L 220.245561 168.032857 
L 224.489412 172.113623 
L 226.611337 193.121014 
L 228.733262 188.271083 
L 230.855187 179.6127 
L 232.977112 144.852999 
L 235.099037 163.208635 
L 237.220963 167.026009 
L 239.342888 182.600451 
L 241.464813 163.383354 
L 243.586738 167.965914 
L 245.708663 158.498855 
L 247.830588 197.373355 
L 249.952513 155.129718 
L 252.074439 171.80536 
L 254.196364 176.500321 
L 256.318289 166.334127 
L 258.440214 139.028949 
L 260.562139 182.370325 
L 262.684064 160.027728 
L 264.805989 161.852206 
L 266.927914 169.893933 
L 269.04984 196.030279 
L 271.171765 178.724088 
L 273.29369 162.66811 
L 275.415615 184.73636 
L 277.53754 141.55143 
L 281.78139 158.844412 
L 283.903316 179.072004 
L 286.025241 159.891887 
L 288.147166 169.575136 
L 290.269091 164.692959 
L 292.391016 156.973284 
L 294.512941 175.822772 
L 296.634866 109.0938 
L 298.756791 164.389853 
L 300.878717 160.51342 
L 303.000642 167.583544 
L 305.122567 156.980477 
L 307.244492 139.055104 
L 309.366417 167.959084 
L 311.488342 140.840677 
L 313.610267 168.112233 
L 315.732193 117.740783 
L 317.854118 146.342049 
L 319.976043 152.75801 
L 322.097968 158.380925 
L 324.219893 157.804815 
L 326.341818 131.845394 
L 328.463743 129.903997 
L 330.585668 144.721491 
L 332.707594 143.548111 
L 334.829519 171.348644 
L 336.951444 162.926711 
L 339.073369 181.830125 
L 341.195294 177.652293 
L 343.317219 139.929522 
L 345.439144 186.933484 
L 347.56107 148.141147 
L 349.682995 173.067982 
L 351.80492 170.771824 
L 353.926845 133.163394 
L 356.04877 154.610423 
L 358.170695 171.219541 
L 360.29262 164.664059 
L 364.536471 173.825701 
L 366.658396 174.240982 
L 368.780321 179.139302 
L 370.902246 181.367523 
L 373.024171 171.08976 
L 375.146096 155.378974 
L 377.268021 183.109412 
L 379.389947 161.01317 
L 381.511872 156.767361 
L 383.633797 173.274601 
L 385.755722 161.55986 
L 387.877647 168.068595 
L 389.999572 183.895396 
L 392.121497 191.383669 
L 394.243422 164.391303 
L 396.365348 156.023078 
L 398.487273 184.956451 
L 398.487273 184.956451 
" clip-path="url(#pc05a8e01d3)" style="fill: none; stroke: #32cd32; stroke-opacity: 0.8; stroke-width: 0.5; stroke-linecap: square"/>
   </g>
   <g id="line2d_18">
    <path d="M 73.832727 256.271272 
L 75.954652 242.580692 
L 78.076578 250.675556 
L 80.198503 253.609825 
L 82.320428 229.025416 
L 84.442353 224.371437 
L 86.564278 240.954787 
L 88.686203 271.106811 
L 90.808128 235.834505 
L 92.930053 234.366018 
L 95.051979 264.484022 
L 97.173904 249.556539 
L 99.295829 229.567856 
L 101.417754 249.210484 
L 103.539679 259.112607 
L 105.661604 256.505927 
L 107.783529 227.157479 
L 109.905455 234.64595 
L 112.02738 249.83401 
L 114.149305 245.544172 
L 116.27123 250.976768 
L 118.393155 231.498675 
L 120.51508 241.068745 
L 122.637005 255.434748 
L 124.75893 218.185411 
L 126.880856 255.981332 
L 129.002781 233.998665 
L 131.124706 218.809208 
L 133.246631 242.506739 
L 135.368556 227.710523 
L 137.490481 228.203051 
L 139.612406 223.632838 
L 141.734332 217.946075 
L 143.856257 227.580025 
L 145.978182 242.207251 
L 148.100107 250.445468 
L 150.222032 231.248646 
L 152.343957 221.8308 
L 154.465882 273.948167 
L 156.587807 235.540791 
L 158.709733 236.343238 
L 160.831658 240.444357 
L 162.953583 223.788332 
L 165.075508 232.062991 
L 167.197433 225.707074 
L 169.319358 223.242096 
L 171.441283 214.525683 
L 173.563209 235.965503 
L 175.685134 246.421541 
L 177.807059 223.755745 
L 179.928984 217.303225 
L 182.050909 236.177976 
L 184.172834 231.558251 
L 186.294759 286.769401 
L 188.416684 224.621257 
L 190.53861 285.297601 
L 192.660535 251.650176 
L 194.78246 239.988078 
L 196.904385 225.230044 
L 199.02631 252.810773 
L 201.148235 256.531557 
L 203.27016 256.670867 
L 205.392086 238.354767 
L 207.514011 243.030708 
L 209.635936 263.591252 
L 211.757861 240.732006 
L 213.879786 254.402194 
L 216.001711 227.455459 
L 218.123636 236.783624 
L 220.245561 241.153599 
L 222.367487 235.597385 
L 224.489412 264.927025 
L 226.611337 233.942806 
L 228.733262 273.135706 
L 230.855187 236.385675 
L 232.977112 240.052852 
L 235.099037 235.687364 
L 237.220963 246.000539 
L 239.342888 238.116521 
L 241.464813 225.081176 
L 243.586738 245.591142 
L 245.708663 230.663232 
L 247.830588 232.699016 
L 249.952513 242.891691 
L 252.074439 256.193044 
L 254.196364 238.424491 
L 256.318289 226.231039 
L 258.440214 224.455407 
L 260.562139 232.360342 
L 262.684064 234.051313 
L 264.805989 228.544339 
L 266.927914 234.294791 
L 269.04984 228.59337 
L 271.171765 212.533268 
L 273.29369 231.381766 
L 275.415615 237.965325 
L 277.53754 246.90412 
L 279.659465 226.609926 
L 281.78139 247.123557 
L 283.903316 239.848277 
L 286.025241 226.97424 
L 288.147166 233.82081 
L 290.269091 242.841291 
L 292.391016 273.21992 
L 294.512941 230.49631 
L 296.634866 222.744768 
L 298.756791 293.308515 
L 300.878717 254.257962 
L 303.000642 240.691883 
L 305.122567 233.181841 
L 307.244492 252.587993 
L 309.366417 261.713748 
L 311.488342 254.002355 
L 313.610267 250.952271 
L 315.732193 221.139034 
L 317.854118 248.819585 
L 319.976043 250.805556 
L 322.097968 252.029177 
L 324.219893 243.474793 
L 326.341818 254.702818 
L 328.463743 266.596426 
L 330.585668 281.99569 
L 332.707594 269.895394 
L 334.829519 295.488 
L 336.951444 258.205385 
L 339.073369 257.116463 
L 341.195294 247.98219 
L 343.317219 272.601823 
L 345.439144 252.554027 
L 347.56107 281.374681 
L 349.682995 231.791547 
L 351.80492 251.308343 
L 353.926845 254.963524 
L 356.04877 253.493057 
L 358.170695 259.873355 
L 360.29262 239.763657 
L 364.536471 229.051579 
L 368.780321 256.825815 
L 370.902246 244.88565 
L 373.024171 270.564348 
L 375.146096 230.847335 
L 377.268021 214.666293 
L 379.389947 236.99953 
L 381.511872 221.496913 
L 383.633797 234.017448 
L 385.755722 225.214525 
L 387.877647 245.366227 
L 389.999572 261.953851 
L 392.121497 293.673959 
L 394.243422 229.038925 
L 396.365348 259.065167 
L 398.487273 238.071364 
L 398.487273 238.071364 
" clip-path="url(#pc05a8e01d3)" style="fill: none; stroke: #32cd32; stroke-opacity: 0.8; stroke-width: 0.5; stroke-linecap: square"/>
   </g>
   <g id="line2d_19">
    <path d="M 73.832727 202.952985 
L 75.954652 200.407027 
L 78.076578 202.826879 
L 80.198503 198.638222 
L 82.320428 207.353778 
L 84.442353 186.190286 
L 86.564278 195.742693 
L 88.686203 201.225198 
L 90.808128 199.71489 
L 92.930053 206.318705 
L 95.051979 211.28262 
L 97.173904 204.877043 
L 99.295829 200.183535 
L 101.417754 207.596445 
L 103.539679 209.813436 
L 105.661604 213.726752 
L 107.783529 192.888255 
L 109.905455 203.157866 
L 112.02738 203.463313 
L 114.149305 202.426394 
L 116.27123 209.673075 
L 118.393155 204.780374 
L 120.51508 209.524591 
L 122.637005 209.939072 
L 124.75893 196.154389 
L 126.880856 207.213083 
L 129.002781 206.305739 
L 131.124706 198.747931 
L 133.246631 214.875025 
L 135.368556 198.598358 
L 137.490481 206.523486 
L 139.612406 202.963802 
L 141.734332 206.047171 
L 143.856257 206.09082 
L 145.978182 208.048629 
L 148.100107 213.226732 
L 150.222032 201.203105 
L 152.343957 198.897764 
L 154.465882 209.767498 
L 156.587807 202.671689 
L 158.709733 199.890321 
L 160.831658 205.921008 
L 162.953583 204.441746 
L 165.075508 214.442536 
L 167.197433 206.383932 
L 169.319358 200.317443 
L 171.441283 204.085841 
L 173.563209 211.099751 
L 175.685134 208.680582 
L 177.807059 202.424347 
L 179.928984 201.1837 
L 182.050909 202.006341 
L 184.172834 200.433639 
L 186.294759 233.166509 
L 188.416684 171.044012 
L 190.53861 211.479967 
L 192.660535 208.858716 
L 194.78246 210.51166 
L 196.904385 198.938715 
L 199.02631 220.636759 
L 201.148235 212.183173 
L 203.27016 204.189435 
L 205.392086 209.693875 
L 207.514011 222.4789 
L 209.635936 211.588679 
L 211.757861 205.811234 
L 213.879786 206.846447 
L 216.001711 205.596073 
L 218.123636 198.855345 
L 220.245561 204.836036 
L 222.367487 201.392076 
L 224.489412 215.238462 
L 226.611337 211.319295 
L 228.733262 212.970174 
L 232.977112 203.808118 
L 235.099037 203.98861 
L 237.220963 198.819365 
L 239.342888 208.741702 
L 241.464813 194.8095 
L 243.586738 202.834136 
L 245.708663 199.281052 
L 247.830588 215.052208 
L 249.952513 207.799849 
L 252.074439 211.009073 
L 254.196364 206.793284 
L 256.318289 200.815562 
L 258.440214 196.514681 
L 260.562139 201.527689 
L 262.684064 200.038409 
L 264.805989 203.804117 
L 266.927914 202.457747 
L 269.04984 214.459396 
L 271.171765 197.19908 
L 273.29369 198.937341 
L 275.415615 204.619934 
L 277.53754 203.086792 
L 279.659465 199.37908 
L 281.78139 197.832551 
L 283.903316 206.190681 
L 286.025241 205.880662 
L 288.147166 206.728845 
L 290.269091 204.588596 
L 292.391016 210.947754 
L 294.512941 198.296527 
L 296.634866 183.123197 
L 298.756791 213.827678 
L 300.878717 205.559804 
L 303.000642 193.798599 
L 305.122567 191.504182 
L 307.244492 198.794592 
L 309.366417 222.09426 
L 311.488342 193.391357 
L 313.610267 209.374352 
L 315.732193 185.575187 
L 317.854118 207.420391 
L 319.976043 204.202803 
L 322.097968 198.874165 
L 324.219893 199.451932 
L 326.341818 211.389908 
L 328.463743 194.309194 
L 330.585668 203.137464 
L 332.707594 216.556957 
L 334.829519 224.424034 
L 336.951444 207.517024 
L 339.073369 213.260624 
L 341.195294 212.743226 
L 343.317219 204.868256 
L 345.439144 215.828432 
L 347.56107 201.62033 
L 349.682995 200.070675 
L 351.80492 202.514476 
L 353.926845 208.057296 
L 356.04877 211.585596 
L 358.170695 214.480477 
L 360.29262 206.498324 
L 362.414545 197.358736 
L 364.536471 198.852804 
L 366.658396 206.765512 
L 368.780321 213.103017 
L 370.902246 208.456109 
L 373.024171 213.002794 
L 375.146096 199.114557 
L 377.268021 198.917659 
L 379.389947 200.313844 
L 381.511872 199.95904 
L 383.633797 200.221734 
L 385.755722 203.213185 
L 389.999572 211.751959 
L 392.121497 217.816958 
L 394.243422 196.535889 
L 396.365348 218.325279 
L 398.487273 207.12048 
L 398.487273 207.12048 
" clip-path="url(#pc05a8e01d3)" style="fill: none; stroke: #ff0000; stroke-opacity: 0.8; stroke-width: 0.5; stroke-linecap: square"/>
   </g>
   <g id="line2d_20">
    <path d="M 73.832727 151.667507 
L 75.954652 146.580064 
L 78.076578 159.433348 
L 80.198503 152.811721 
L 82.320428 181.405707 
L 84.442353 159.587008 
L 86.564278 150.099091 
L 88.686203 162.850354 
L 90.808128 85.035204 
L 92.930053 162.956892 
L 95.051979 180.776551 
L 97.173904 158.487718 
L 99.295829 162.701922 
L 101.417754 141.759337 
L 103.539679 174.061926 
L 105.661604 174.327789 
L 107.783529 149.946924 
L 109.905455 168.707425 
L 112.02738 169.185478 
L 114.149305 160.5829 
L 116.27123 164.76934 
L 118.393155 180.908785 
L 120.51508 163.932512 
L 122.637005 134.078653 
L 124.75893 168.624369 
L 126.880856 183.948615 
L 129.002781 171.171315 
L 131.124706 148.14233 
L 133.246631 179.342734 
L 135.368556 166.288595 
L 137.490481 175.341208 
L 139.612406 170.593148 
L 141.734332 189.170669 
L 143.856257 189.368429 
L 145.978182 174.146235 
L 148.100107 190.520758 
L 150.222032 166.958394 
L 152.343957 178.445108 
L 154.465882 162.788793 
L 156.587807 185.205385 
L 158.709733 170.890779 
L 160.831658 167.185683 
L 162.953583 174.003655 
L 165.075508 198.784874 
L 167.197433 191.610909 
L 169.319358 178.627412 
L 171.441283 184.196402 
L 173.563209 174.892874 
L 175.685134 182.696963 
L 177.807059 180.94774 
L 179.928984 183.211868 
L 182.050909 183.284598 
L 184.172834 183.591434 
L 186.294759 184.824762 
L 188.416684 53.568 
L 190.53861 151.294411 
L 192.660535 165.587318 
L 194.78246 182.435383 
L 196.904385 172.929215 
L 199.02631 183.186945 
L 201.148235 166.697995 
L 203.27016 169.381297 
L 205.392086 179.796833 
L 207.514011 192.80847 
L 209.635936 158.084422 
L 211.757861 152.724782 
L 213.879786 167.008217 
L 216.001711 179.27864 
L 218.123636 166.222149 
L 220.245561 168.032857 
L 224.489412 172.112617 
L 226.611337 193.120339 
L 228.733262 188.270065 
L 230.855187 179.6127 
L 232.977112 144.852867 
L 235.099037 163.207961 
L 237.220963 167.025 
L 239.342888 182.599791 
L 241.464813 163.383354 
L 243.586738 167.965914 
L 245.708663 158.498714 
L 247.830588 197.373355 
L 249.952513 155.129578 
L 252.074439 171.805333 
L 254.196364 176.499652 
L 256.318289 166.334127 
L 258.440214 139.028949 
L 260.562139 182.370325 
L 262.684064 160.027728 
L 264.805989 161.852206 
L 266.927914 169.893933 
L 269.04984 196.029605 
L 271.171765 178.723946 
L 273.29369 162.66811 
L 275.415615 184.735349 
L 277.53754 141.55143 
L 281.78139 158.844412 
L 283.903316 179.071862 
L 286.025241 159.891887 
L 288.147166 169.575136 
L 290.269091 164.692959 
L 292.391016 156.972612 
L 294.512941 175.822772 
L 296.634866 109.0938 
L 298.756791 164.389853 
L 300.878717 160.512742 
L 303.000642 167.583544 
L 305.122567 156.980454 
L 307.244492 139.055104 
L 309.366417 167.958415 
L 311.488342 140.840677 
L 313.610267 168.112233 
L 315.732193 117.740783 
L 317.854118 146.341914 
L 319.976043 152.75801 
L 322.097968 158.380897 
L 324.219893 157.804815 
L 326.341818 131.845394 
L 328.463743 129.903997 
L 330.585668 144.721463 
L 332.707594 143.548111 
L 334.829519 171.347996 
L 336.951444 162.926711 
L 339.073369 181.829991 
L 341.195294 177.652293 
L 343.317219 139.928879 
L 345.439144 186.932845 
L 347.56107 148.141018 
L 349.682995 173.06796 
L 351.80492 170.771695 
L 353.926845 133.163261 
L 356.04877 154.610423 
L 358.170695 171.219541 
L 360.29262 164.663427 
L 364.536471 173.825013 
L 366.658396 174.240982 
L 368.780321 179.139302 
L 370.902246 181.36739 
L 373.024171 171.089298 
L 375.146096 155.378342 
L 377.268021 183.109386 
L 379.389947 161.01317 
L 381.511872 156.767361 
L 383.633797 173.274601 
L 385.755722 161.558887 
L 387.877647 168.068461 
L 389.999572 183.894422 
L 392.121497 191.383669 
L 394.243422 164.391303 
L 396.365348 156.022945 
L 398.487273 184.956451 
L 398.487273 184.956451 
" clip-path="url(#pc05a8e01d3)" style="fill: none; stroke: #f08080; stroke-opacity: 0.8; stroke-width: 0.5; stroke-linecap: square"/>
   </g>
   <g id="line2d_21">
    <path d="M 73.832727 256.271272 
L 75.954652 242.577801 
L 78.076578 250.673171 
L 80.198503 253.609111 
L 82.320428 229.025416 
L 84.442353 224.365642 
L 86.564278 240.954787 
L 88.686203 271.106811 
L 90.808128 235.833088 
L 92.930053 234.365818 
L 95.051979 264.482923 
L 97.173904 249.556539 
L 99.295829 229.567856 
L 101.417754 249.208926 
L 103.539679 259.112607 
L 105.661604 256.505563 
L 107.783529 227.157479 
L 109.905455 234.64595 
L 112.02738 249.833515 
L 114.149305 245.544074 
L 116.27123 250.976768 
L 118.393155 231.498595 
L 120.51508 241.068745 
L 122.637005 255.434191 
L 124.75893 218.185411 
L 126.880856 255.981233 
L 129.002781 233.99591 
L 131.124706 218.809208 
L 133.246631 242.506045 
L 135.368556 227.709905 
L 137.490481 228.203051 
L 139.612406 223.632838 
L 141.734332 217.946075 
L 143.856257 227.58 
L 145.978182 242.207226 
L 148.100107 250.445468 
L 150.222032 231.248646 
L 152.343957 221.8308 
L 154.465882 273.948052 
L 156.587807 235.540114 
L 158.709733 236.343238 
L 160.831658 240.444357 
L 162.953583 223.788332 
L 165.075508 232.062991 
L 167.197433 225.707074 
L 169.319358 223.242096 
L 171.441283 214.524944 
L 173.563209 235.965503 
L 175.685134 246.420802 
L 177.807059 223.754993 
L 179.928984 217.302551 
L 182.050909 236.177976 
L 184.172834 231.558123 
L 186.294759 286.769401 
L 188.416684 224.621257 
L 190.53861 285.29746 
L 192.660535 251.650176 
L 194.78246 239.988078 
L 196.904385 225.229365 
L 199.02631 252.810773 
L 201.148235 256.530889 
L 203.27016 256.670867 
L 205.392086 238.354767 
L 207.514011 243.030708 
L 209.635936 263.59024 
L 211.757861 240.732006 
L 213.879786 254.402194 
L 216.001711 227.455459 
L 218.123636 236.783624 
L 220.245561 241.153599 
L 222.367487 235.597254 
L 224.489412 264.927025 
L 226.611337 233.942806 
L 228.733262 273.13568 
L 230.855187 236.385535 
L 232.977112 240.051843 
L 235.099037 235.686705 
L 237.220963 246.000539 
L 239.342888 238.116521 
L 241.464813 225.081176 
L 243.586738 245.590131 
L 245.708663 230.663205 
L 247.830588 232.699016 
L 249.952513 242.891202 
L 252.074439 256.193044 
L 254.196364 238.423756 
L 256.318289 226.230369 
L 258.440214 224.455407 
L 260.562139 232.359846 
L 262.684064 234.051313 
L 264.805989 228.544339 
L 266.927914 234.294588 
L 269.04984 228.592703 
L 271.171765 212.533268 
L 273.29369 231.381766 
L 275.415615 237.96466 
L 277.53754 246.903509 
L 279.659465 226.609316 
L 281.78139 247.122898 
L 283.903316 239.847612 
L 286.025241 226.97424 
L 288.147166 233.82081 
L 290.269091 242.841291 
L 292.391016 273.219175 
L 294.512941 230.495638 
L 296.634866 222.744625 
L 298.756791 293.307852 
L 300.878717 254.257962 
L 303.000642 240.691883 
L 305.122567 233.181841 
L 307.244492 252.587322 
L 309.366417 261.713081 
L 311.488342 254.001688 
L 313.610267 250.952271 
L 315.732193 221.139034 
L 317.854118 248.819557 
L 319.976043 250.804889 
L 322.097968 252.029177 
L 324.219893 243.474659 
L 326.341818 254.70208 
L 328.463743 266.596426 
L 330.585668 281.995552 
L 332.707594 269.895394 
L 334.829519 295.488 
L 336.951444 258.20525 
L 339.073369 257.116463 
L 341.195294 247.981548 
L 343.317219 272.601823 
L 345.439144 252.553387 
L 347.56107 281.374681 
L 349.682995 231.791547 
L 351.80492 251.308209 
L 353.926845 254.962825 
L 356.04877 253.493057 
L 358.170695 259.873355 
L 360.29262 239.763657 
L 364.536471 229.051447 
L 368.780321 256.825789 
L 370.902246 244.885624 
L 373.024171 270.564148 
L 375.146096 230.847335 
L 377.268021 214.66616 
L 379.389947 236.99953 
L 381.511872 221.495945 
L 383.633797 234.017448 
L 385.755722 225.213822 
L 387.877647 245.365589 
L 389.999572 261.953851 
L 392.121497 293.67332 
L 394.243422 229.038925 
L 396.365348 259.065167 
L 398.487273 238.071364 
L 398.487273 238.071364 
" clip-path="url(#pc05a8e01d3)" style="fill: none; stroke: #f08080; stroke-opacity: 0.8; stroke-width: 0.5; stroke-linecap: square"/>
   </g>
   <g id="patch_3">
    <path d="M 57.6 307.584 
L 57.6 41.472 
" style="fill: none; stroke: #000000; stroke-width: 0.8; stroke-linejoin: miter; stroke-linecap: square"/>
   </g>
   <g id="patch_4">
    <path d="M 414.72 307.584 
L 414.72 41.472 
" style="fill: none; stroke: #000000; stroke-width: 0.8; stroke-linejoin: miter; stroke-linecap: square"/>
   </g>
   <g id="patch_5">
    <path d="M 57.6 307.584 
L 414.72 307.584 
" style="fill: none; stroke: #000000; stroke-width: 0.8; stroke-linejoin: miter; stroke-linecap: square"/>
   </g>
   <g id="patch_6">
    <path d="M 57.6 41.472 
L 414.72 41.472 
" style="fill: none; stroke: #000000; stroke-width: 0.8; stroke-linejoin: miter; stroke-linecap: square"/>
   </g>
   <g id="text_16">
    <!-- 1final_arima_eurusd -->
    <g transform="translate(175.3875 35.472) scale(0.12 -0.12)">
     <defs>
      <path id="DejaVuSans-66" d="M 2375 4863 
L 2375 4384 
L 1825 4384 
Q 1516 4384 1395 4259 
Q 1275 4134 1275 3809 
L 1275 3500 
L 2222 3500 
L 2222 3053 
L 1275 3053 
L 1275 0 
L 697 0 
L 697 3053 
L 147 3053 
L 147 3500 
L 697 3500 
L 697 3744 
Q 697 4328 969 4595 
Q 1241 4863 1831 4863 
L 2375 4863 
z
" transform="scale(0.015625)"/>
      <path id="DejaVuSans-69" d="M 603 3500 
L 1178 3500 
L 1178 0 
L 603 0 
L 603 3500 
z
M 603 4863 
L 1178 4863 
L 1178 4134 
L 603 4134 
L 603 4863 
z
" transform="scale(0.015625)"/>
      <path id="DejaVuSans-6e" d="M 3513 2113 
L 3513 0 
L 2938 0 
L 2938 2094 
Q 2938 2591 2744 2837 
Q 2550 3084 2163 3084 
Q 1697 3084 1428 2787 
Q 1159 2491 1159 1978 
L 1159 0 
L 581 0 
L 581 3500 
L 1159 3500 
L 1159 2956 
Q 1366 3272 1645 3428 
Q 1925 3584 2291 3584 
Q 2894 3584 3203 3211 
Q 3513 2838 3513 2113 
z
" transform="scale(0.015625)"/>
      <path id="DejaVuSans-61" d="M 2194 1759 
Q 1497 1759 1228 1600 
Q 959 1441 959 1056 
Q 959 750 1161 570 
Q 1363 391 1709 391 
Q 2188 391 2477 730 
Q 2766 1069 2766 1631 
L 2766 1759 
L 2194 1759 
z
M 3341 1997 
L 3341 0 
L 2766 0 
L 2766 531 
Q 2569 213 2275 61 
Q 1981 -91 1556 -91 
Q 1019 -91 701 211 
Q 384 513 384 1019 
Q 384 1609 779 1909 
Q 1175 2209 1959 2209 
L 2766 2209 
L 2766 2266 
Q 2766 2663 2505 2880 
Q 2244 3097 1772 3097 
Q 1472 3097 1187 3025 
Q 903 2953 641 2809 
L 641 3341 
Q 956 3463 1253 3523 
Q 1550 3584 1831 3584 
Q 2591 3584 2966 3190 
Q 3341 2797 3341 1997 
z
" transform="scale(0.015625)"/>
      <path id="DejaVuSans-6c" d="M 603 4863 
L 1178 4863 
L 1178 0 
L 603 0 
L 603 4863 
z
" transform="scale(0.015625)"/>
      <path id="DejaVuSans-5f" d="M 3263 -1063 
L 3263 -1509 
L -63 -1509 
L -63 -1063 
L 3263 -1063 
z
" transform="scale(0.015625)"/>
      <path id="DejaVuSans-72" d="M 2631 2963 
Q 2534 3019 2420 3045 
Q 2306 3072 2169 3072 
Q 1681 3072 1420 2755 
Q 1159 2438 1159 1844 
L 1159 0 
L 581 0 
L 581 3500 
L 1159 3500 
L 1159 2956 
Q 1341 3275 1631 3429 
Q 1922 3584 2338 3584 
Q 2397 3584 2469 3576 
Q 2541 3569 2628 3553 
L 2631 2963 
z
" transform="scale(0.015625)"/>
      <path id="DejaVuSans-6d" d="M 3328 2828 
Q 3544 3216 3844 3400 
Q 4144 3584 4550 3584 
Q 5097 3584 5394 3201 
Q 5691 2819 5691 2113 
L 5691 0 
L 5113 0 
L 5113 2094 
Q 5113 2597 4934 2840 
Q 4756 3084 4391 3084 
Q 3944 3084 3684 2787 
Q 3425 2491 3425 1978 
L 3425 0 
L 2847 0 
L 2847 2094 
Q 2847 2600 2669 2842 
Q 2491 3084 2119 3084 
Q 1678 3084 1418 2786 
Q 1159 2488 1159 1978 
L 1159 0 
L 581 0 
L 581 3500 
L 1159 3500 
L 1159 2956 
Q 1356 3278 1631 3431 
Q 1906 3584 2284 3584 
Q 2666 3584 2933 3390 
Q 3200 3197 3328 2828 
z
" transform="scale(0.015625)"/>
      <path id="DejaVuSans-65" d="M 3597 1894 
L 3597 1613 
L 953 1613 
Q 991 1019 1311 708 
Q 1631 397 2203 397 
Q 2534 397 2845 478 
Q 3156 559 3463 722 
L 3463 178 
Q 3153 47 2828 -22 
Q 2503 -91 2169 -91 
Q 1331 -91 842 396 
Q 353 884 353 1716 
Q 353 2575 817 3079 
Q 1281 3584 2069 3584 
Q 2775 3584 3186 3129 
Q 3597 2675 3597 1894 
z
M 3022 2063 
Q 3016 2534 2758 2815 
Q 2500 3097 2075 3097 
Q 1594 3097 1305 2825 
Q 1016 2553 972 2059 
L 3022 2063 
z
" transform="scale(0.015625)"/>
      <path id="DejaVuSans-75" d="M 544 1381 
L 544 3500 
L 1119 3500 
L 1119 1403 
Q 1119 906 1312 657 
Q 1506 409 1894 409 
Q 2359 409 2629 706 
Q 2900 1003 2900 1516 
L 2900 3500 
L 3475 3500 
L 3475 0 
L 2900 0 
L 2900 538 
Q 2691 219 2414 64 
Q 2138 -91 1772 -91 
Q 1169 -91 856 284 
Q 544 659 544 1381 
z
M 1991 3584 
L 1991 3584 
z
" transform="scale(0.015625)"/>
      <path id="DejaVuSans-73" d="M 2834 3397 
L 2834 2853 
Q 2591 2978 2328 3040 
Q 2066 3103 1784 3103 
Q 1356 3103 1142 2972 
Q 928 2841 928 2578 
Q 928 2378 1081 2264 
Q 1234 2150 1697 2047 
L 1894 2003 
Q 2506 1872 2764 1633 
Q 3022 1394 3022 966 
Q 3022 478 2636 193 
Q 2250 -91 1575 -91 
Q 1294 -91 989 -36 
Q 684 19 347 128 
L 347 722 
Q 666 556 975 473 
Q 1284 391 1588 391 
Q 1994 391 2212 530 
Q 2431 669 2431 922 
Q 2431 1156 2273 1281 
Q 2116 1406 1581 1522 
L 1381 1569 
Q 847 1681 609 1914 
Q 372 2147 372 2553 
Q 372 3047 722 3315 
Q 1072 3584 1716 3584 
Q 2034 3584 2315 3537 
Q 2597 3491 2834 3397 
z
" transform="scale(0.015625)"/>
      <path id="DejaVuSans-64" d="M 2906 2969 
L 2906 4863 
L 3481 4863 
L 3481 0 
L 2906 0 
L 2906 525 
Q 2725 213 2448 61 
Q 2172 -91 1784 -91 
Q 1150 -91 751 415 
Q 353 922 353 1747 
Q 353 2572 751 3078 
Q 1150 3584 1784 3584 
Q 2172 3584 2448 3432 
Q 2725 3281 2906 2969 
z
M 947 1747 
Q 947 1113 1208 752 
Q 1469 391 1925 391 
Q 2381 391 2643 752 
Q 2906 1113 2906 1747 
Q 2906 2381 2643 2742 
Q 2381 3103 1925 3103 
Q 1469 3103 1208 2742 
Q 947 2381 947 1747 
z
" transform="scale(0.015625)"/>
     </defs>
     <use xlink:href="#DejaVuSans-31"/>
     <use xlink:href="#DejaVuSans-66" x="63.623047"/>
     <use xlink:href="#DejaVuSans-69" x="98.828125"/>
     <use xlink:href="#DejaVuSans-6e" x="126.611328"/>
     <use xlink:href="#DejaVuSans-61" x="189.990234"/>
     <use xlink:href="#DejaVuSans-6c" x="251.269531"/>
     <use xlink:href="#DejaVuSans-5f" x="279.052734"/>
     <use xlink:href="#DejaVuSans-61" x="329.052734"/>
     <use xlink:href="#DejaVuSans-72" x="390.332031"/>
     <use xlink:href="#DejaVuSans-69" x="431.445312"/>
     <use xlink:href="#DejaVuSans-6d" x="459.228516"/>
     <use xlink:href="#DejaVuSans-61" x="556.640625"/>
     <use xlink:href="#DejaVuSans-5f" x="617.919922"/>
     <use xlink:href="#DejaVuSans-65" x="667.919922"/>
     <use xlink:href="#DejaVuSans-75" x="729.443359"/>
     <use xlink:href="#DejaVuSans-72" x="792.822266"/>
     <use xlink:href="#DejaVuSans-75" x="833.935547"/>
     <use xlink:href="#DejaVuSans-73" x="897.314453"/>
     <use xlink:href="#DejaVuSans-64" x="949.414062"/>
    </g>
   </g>
   <g id="legend_1">
    <g id="patch_7">
     <path d="M 64.6 137.54075 
L 225.001563 137.54075 
Q 227.001563 137.54075 227.001563 135.54075 
L 227.001563 48.472 
Q 227.001563 46.472 225.001563 46.472 
L 64.6 46.472 
Q 62.6 46.472 62.6 48.472 
L 62.6 135.54075 
Q 62.6 137.54075 64.6 137.54075 
z
" style="fill: #ffffff; opacity: 0.8; stroke: #cccccc; stroke-linejoin: miter"/>
    </g>
    <g id="line2d_22">
     <path d="M 66.6 54.570438 
L 76.6 54.570438 
L 86.6 54.570438 
" style="fill: none; stroke: #008000; stroke-opacity: 0.8; stroke-width: 0.5; stroke-linecap: square"/>
    </g>
    <g id="text_17">
     <!-- Positive predictions -->
     <g transform="translate(94.6 58.070438) scale(0.1 -0.1)">
      <defs>
       <path id="DejaVuSans-50" d="M 1259 4147 
L 1259 2394 
L 2053 2394 
Q 2494 2394 2734 2622 
Q 2975 2850 2975 3272 
Q 2975 3691 2734 3919 
Q 2494 4147 2053 4147 
L 1259 4147 
z
M 628 4666 
L 2053 4666 
Q 2838 4666 3239 4311 
Q 3641 3956 3641 3272 
Q 3641 2581 3239 2228 
Q 2838 1875 2053 1875 
L 1259 1875 
L 1259 0 
L 628 0 
L 628 4666 
z
" transform="scale(0.015625)"/>
       <path id="DejaVuSans-6f" d="M 1959 3097 
Q 1497 3097 1228 2736 
Q 959 2375 959 1747 
Q 959 1119 1226 758 
Q 1494 397 1959 397 
Q 2419 397 2687 759 
Q 2956 1122 2956 1747 
Q 2956 2369 2687 2733 
Q 2419 3097 1959 3097 
z
M 1959 3584 
Q 2709 3584 3137 3096 
Q 3566 2609 3566 1747 
Q 3566 888 3137 398 
Q 2709 -91 1959 -91 
Q 1206 -91 779 398 
Q 353 888 353 1747 
Q 353 2609 779 3096 
Q 1206 3584 1959 3584 
z
" transform="scale(0.015625)"/>
       <path id="DejaVuSans-74" d="M 1172 4494 
L 1172 3500 
L 2356 3500 
L 2356 3053 
L 1172 3053 
L 1172 1153 
Q 1172 725 1289 603 
Q 1406 481 1766 481 
L 2356 481 
L 2356 0 
L 1766 0 
Q 1100 0 847 248 
Q 594 497 594 1153 
L 594 3053 
L 172 3053 
L 172 3500 
L 594 3500 
L 594 4494 
L 1172 4494 
z
" transform="scale(0.015625)"/>
       <path id="DejaVuSans-76" d="M 191 3500 
L 800 3500 
L 1894 563 
L 2988 3500 
L 3597 3500 
L 2284 0 
L 1503 0 
L 191 3500 
z
" transform="scale(0.015625)"/>
       <path id="DejaVuSans-20" transform="scale(0.015625)"/>
       <path id="DejaVuSans-70" d="M 1159 525 
L 1159 -1331 
L 581 -1331 
L 581 3500 
L 1159 3500 
L 1159 2969 
Q 1341 3281 1617 3432 
Q 1894 3584 2278 3584 
Q 2916 3584 3314 3078 
Q 3713 2572 3713 1747 
Q 3713 922 3314 415 
Q 2916 -91 2278 -91 
Q 1894 -91 1617 61 
Q 1341 213 1159 525 
z
M 3116 1747 
Q 3116 2381 2855 2742 
Q 2594 3103 2138 3103 
Q 1681 3103 1420 2742 
Q 1159 2381 1159 1747 
Q 1159 1113 1420 752 
Q 1681 391 2138 391 
Q 2594 391 2855 752 
Q 3116 1113 3116 1747 
z
" transform="scale(0.015625)"/>
       <path id="DejaVuSans-63" d="M 3122 3366 
L 3122 2828 
Q 2878 2963 2633 3030 
Q 2388 3097 2138 3097 
Q 1578 3097 1268 2742 
Q 959 2388 959 1747 
Q 959 1106 1268 751 
Q 1578 397 2138 397 
Q 2388 397 2633 464 
Q 2878 531 3122 666 
L 3122 134 
Q 2881 22 2623 -34 
Q 2366 -91 2075 -91 
Q 1284 -91 818 406 
Q 353 903 353 1747 
Q 353 2603 823 3093 
Q 1294 3584 2113 3584 
Q 2378 3584 2631 3529 
Q 2884 3475 3122 3366 
z
" transform="scale(0.015625)"/>
      </defs>
      <use xlink:href="#DejaVuSans-50"/>
      <use xlink:href="#DejaVuSans-6f" x="56.677734"/>
      <use xlink:href="#DejaVuSans-73" x="117.859375"/>
      <use xlink:href="#DejaVuSans-69" x="169.958984"/>
      <use xlink:href="#DejaVuSans-74" x="197.742188"/>
      <use xlink:href="#DejaVuSans-69" x="236.951172"/>
      <use xlink:href="#DejaVuSans-76" x="264.734375"/>
      <use xlink:href="#DejaVuSans-65" x="323.914062"/>
      <use xlink:href="#DejaVuSans-20" x="385.4375"/>
      <use xlink:href="#DejaVuSans-70" x="417.224609"/>
      <use xlink:href="#DejaVuSans-72" x="480.701172"/>
      <use xlink:href="#DejaVuSans-65" x="519.564453"/>
      <use xlink:href="#DejaVuSans-64" x="581.087891"/>
      <use xlink:href="#DejaVuSans-69" x="644.564453"/>
      <use xlink:href="#DejaVuSans-63" x="672.347656"/>
      <use xlink:href="#DejaVuSans-74" x="727.328125"/>
      <use xlink:href="#DejaVuSans-69" x="766.537109"/>
      <use xlink:href="#DejaVuSans-6f" x="794.320312"/>
      <use xlink:href="#DejaVuSans-6e" x="855.501953"/>
      <use xlink:href="#DejaVuSans-73" x="918.880859"/>
     </g>
    </g>
    <g id="line2d_23">
     <path d="M 66.6 69.248563 
L 76.6 69.248563 
L 86.6 69.248563 
" style="fill: none; stroke: #32cd32; stroke-opacity: 0.8; stroke-width: 0.5; stroke-linecap: square"/>
    </g>
    <g id="text_18">
     <!-- Positive predictions max -->
     <g transform="translate(94.6 72.748563) scale(0.1 -0.1)">
      <defs>
       <path id="DejaVuSans-78" d="M 3513 3500 
L 2247 1797 
L 3578 0 
L 2900 0 
L 1881 1375 
L 863 0 
L 184 0 
L 1544 1831 
L 300 3500 
L 978 3500 
L 1906 2253 
L 2834 3500 
L 3513 3500 
z
" transform="scale(0.015625)"/>
      </defs>
      <use xlink:href="#DejaVuSans-50"/>
      <use xlink:href="#DejaVuSans-6f" x="56.677734"/>
      <use xlink:href="#DejaVuSans-73" x="117.859375"/>
      <use xlink:href="#DejaVuSans-69" x="169.958984"/>
      <use xlink:href="#DejaVuSans-74" x="197.742188"/>
      <use xlink:href="#DejaVuSans-69" x="236.951172"/>
      <use xlink:href="#DejaVuSans-76" x="264.734375"/>
      <use xlink:href="#DejaVuSans-65" x="323.914062"/>
      <use xlink:href="#DejaVuSans-20" x="385.4375"/>
      <use xlink:href="#DejaVuSans-70" x="417.224609"/>
      <use xlink:href="#DejaVuSans-72" x="480.701172"/>
      <use xlink:href="#DejaVuSans-65" x="519.564453"/>
      <use xlink:href="#DejaVuSans-64" x="581.087891"/>
      <use xlink:href="#DejaVuSans-69" x="644.564453"/>
      <use xlink:href="#DejaVuSans-63" x="672.347656"/>
      <use xlink:href="#DejaVuSans-74" x="727.328125"/>
      <use xlink:href="#DejaVuSans-69" x="766.537109"/>
      <use xlink:href="#DejaVuSans-6f" x="794.320312"/>
      <use xlink:href="#DejaVuSans-6e" x="855.501953"/>
      <use xlink:href="#DejaVuSans-73" x="918.880859"/>
      <use xlink:href="#DejaVuSans-20" x="970.980469"/>
      <use xlink:href="#DejaVuSans-6d" x="1002.767578"/>
      <use xlink:href="#DejaVuSans-61" x="1100.179688"/>
      <use xlink:href="#DejaVuSans-78" x="1161.458984"/>
     </g>
    </g>
    <g id="line2d_24">
     <path d="M 66.6 83.926688 
L 76.6 83.926688 
L 86.6 83.926688 
" style="fill: none; stroke: #32cd32; stroke-opacity: 0.8; stroke-width: 0.5; stroke-linecap: square"/>
    </g>
    <g id="text_19">
     <!-- Positive predictions min -->
     <g transform="translate(94.6 87.426688) scale(0.1 -0.1)">
      <use xlink:href="#DejaVuSans-50"/>
      <use xlink:href="#DejaVuSans-6f" x="56.677734"/>
      <use xlink:href="#DejaVuSans-73" x="117.859375"/>
      <use xlink:href="#DejaVuSans-69" x="169.958984"/>
      <use xlink:href="#DejaVuSans-74" x="197.742188"/>
      <use xlink:href="#DejaVuSans-69" x="236.951172"/>
      <use xlink:href="#DejaVuSans-76" x="264.734375"/>
      <use xlink:href="#DejaVuSans-65" x="323.914062"/>
      <use xlink:href="#DejaVuSans-20" x="385.4375"/>
      <use xlink:href="#DejaVuSans-70" x="417.224609"/>
      <use xlink:href="#DejaVuSans-72" x="480.701172"/>
      <use xlink:href="#DejaVuSans-65" x="519.564453"/>
      <use xlink:href="#DejaVuSans-64" x="581.087891"/>
      <use xlink:href="#DejaVuSans-69" x="644.564453"/>
      <use xlink:href="#DejaVuSans-63" x="672.347656"/>
      <use xlink:href="#DejaVuSans-74" x="727.328125"/>
      <use xlink:href="#DejaVuSans-69" x="766.537109"/>
      <use xlink:href="#DejaVuSans-6f" x="794.320312"/>
      <use xlink:href="#DejaVuSans-6e" x="855.501953"/>
      <use xlink:href="#DejaVuSans-73" x="918.880859"/>
      <use xlink:href="#DejaVuSans-20" x="970.980469"/>
      <use xlink:href="#DejaVuSans-6d" x="1002.767578"/>
      <use xlink:href="#DejaVuSans-69" x="1100.179688"/>
      <use xlink:href="#DejaVuSans-6e" x="1127.962891"/>
     </g>
    </g>
    <g id="line2d_25">
     <path d="M 66.6 98.604813 
L 76.6 98.604813 
L 86.6 98.604813 
" style="fill: none; stroke: #ff0000; stroke-opacity: 0.8; stroke-width: 0.5; stroke-linecap: square"/>
    </g>
    <g id="text_20">
     <!-- Negative predictions -->
     <g transform="translate(94.6 102.104813) scale(0.1 -0.1)">
      <defs>
       <path id="DejaVuSans-4e" d="M 628 4666 
L 1478 4666 
L 3547 763 
L 3547 4666 
L 4159 4666 
L 4159 0 
L 3309 0 
L 1241 3903 
L 1241 0 
L 628 0 
L 628 4666 
z
" transform="scale(0.015625)"/>
       <path id="DejaVuSans-67" d="M 2906 1791 
Q 2906 2416 2648 2759 
Q 2391 3103 1925 3103 
Q 1463 3103 1205 2759 
Q 947 2416 947 1791 
Q 947 1169 1205 825 
Q 1463 481 1925 481 
Q 2391 481 2648 825 
Q 2906 1169 2906 1791 
z
M 3481 434 
Q 3481 -459 3084 -895 
Q 2688 -1331 1869 -1331 
Q 1566 -1331 1297 -1286 
Q 1028 -1241 775 -1147 
L 775 -588 
Q 1028 -725 1275 -790 
Q 1522 -856 1778 -856 
Q 2344 -856 2625 -561 
Q 2906 -266 2906 331 
L 2906 616 
Q 2728 306 2450 153 
Q 2172 0 1784 0 
Q 1141 0 747 490 
Q 353 981 353 1791 
Q 353 2603 747 3093 
Q 1141 3584 1784 3584 
Q 2172 3584 2450 3431 
Q 2728 3278 2906 2969 
L 2906 3500 
L 3481 3500 
L 3481 434 
z
" transform="scale(0.015625)"/>
      </defs>
      <use xlink:href="#DejaVuSans-4e"/>
      <use xlink:href="#DejaVuSans-65" x="74.804688"/>
      <use xlink:href="#DejaVuSans-67" x="136.328125"/>
      <use xlink:href="#DejaVuSans-61" x="199.804688"/>
      <use xlink:href="#DejaVuSans-74" x="261.083984"/>
      <use xlink:href="#DejaVuSans-69" x="300.292969"/>
      <use xlink:href="#DejaVuSans-76" x="328.076172"/>
      <use xlink:href="#DejaVuSans-65" x="387.255859"/>
      <use xlink:href="#DejaVuSans-20" x="448.779297"/>
      <use xlink:href="#DejaVuSans-70" x="480.566406"/>
      <use xlink:href="#DejaVuSans-72" x="544.042969"/>
      <use xlink:href="#DejaVuSans-65" x="582.90625"/>
      <use xlink:href="#DejaVuSans-64" x="644.429688"/>
      <use xlink:href="#DejaVuSans-69" x="707.90625"/>
      <use xlink:href="#DejaVuSans-63" x="735.689453"/>
      <use xlink:href="#DejaVuSans-74" x="790.669922"/>
      <use xlink:href="#DejaVuSans-69" x="829.878906"/>
      <use xlink:href="#DejaVuSans-6f" x="857.662109"/>
      <use xlink:href="#DejaVuSans-6e" x="918.84375"/>
      <use xlink:href="#DejaVuSans-73" x="982.222656"/>
     </g>
    </g>
    <g id="line2d_26">
     <path d="M 66.6 113.282938 
L 76.6 113.282938 
L 86.6 113.282938 
" style="fill: none; stroke: #f08080; stroke-opacity: 0.8; stroke-width: 0.5; stroke-linecap: square"/>
    </g>
    <g id="text_21">
     <!-- Negative predictions max -->
     <g transform="translate(94.6 116.782938) scale(0.1 -0.1)">
      <use xlink:href="#DejaVuSans-4e"/>
      <use xlink:href="#DejaVuSans-65" x="74.804688"/>
      <use xlink:href="#DejaVuSans-67" x="136.328125"/>
      <use xlink:href="#DejaVuSans-61" x="199.804688"/>
      <use xlink:href="#DejaVuSans-74" x="261.083984"/>
      <use xlink:href="#DejaVuSans-69" x="300.292969"/>
      <use xlink:href="#DejaVuSans-76" x="328.076172"/>
      <use xlink:href="#DejaVuSans-65" x="387.255859"/>
      <use xlink:href="#DejaVuSans-20" x="448.779297"/>
      <use xlink:href="#DejaVuSans-70" x="480.566406"/>
      <use xlink:href="#DejaVuSans-72" x="544.042969"/>
      <use xlink:href="#DejaVuSans-65" x="582.90625"/>
      <use xlink:href="#DejaVuSans-64" x="644.429688"/>
      <use xlink:href="#DejaVuSans-69" x="707.90625"/>
      <use xlink:href="#DejaVuSans-63" x="735.689453"/>
      <use xlink:href="#DejaVuSans-74" x="790.669922"/>
      <use xlink:href="#DejaVuSans-69" x="829.878906"/>
      <use xlink:href="#DejaVuSans-6f" x="857.662109"/>
      <use xlink:href="#DejaVuSans-6e" x="918.84375"/>
      <use xlink:href="#DejaVuSans-73" x="982.222656"/>
      <use xlink:href="#DejaVuSans-20" x="1034.322266"/>
      <use xlink:href="#DejaVuSans-6d" x="1066.109375"/>
      <use xlink:href="#DejaVuSans-61" x="1163.521484"/>
      <use xlink:href="#DejaVuSans-78" x="1224.800781"/>
     </g>
    </g>
    <g id="line2d_27">
     <path d="M 66.6 127.961063 
L 76.6 127.961063 
L 86.6 127.961063 
" style="fill: none; stroke: #f08080; stroke-opacity: 0.8; stroke-width: 0.5; stroke-linecap: square"/>
    </g>
    <g id="text_22">
     <!-- Negative predictions min -->
     <g transform="translate(94.6 131.461063) scale(0.1 -0.1)">
      <use xlink:href="#DejaVuSans-4e"/>
      <use xlink:href="#DejaVuSans-65" x="74.804688"/>
      <use xlink:href="#DejaVuSans-67" x="136.328125"/>
      <use xlink:href="#DejaVuSans-61" x="199.804688"/>
      <use xlink:href="#DejaVuSans-74" x="261.083984"/>
      <use xlink:href="#DejaVuSans-69" x="300.292969"/>
      <use xlink:href="#DejaVuSans-76" x="328.076172"/>
      <use xlink:href="#DejaVuSans-65" x="387.255859"/>
      <use xlink:href="#DejaVuSans-20" x="448.779297"/>
      <use xlink:href="#DejaVuSans-70" x="480.566406"/>
      <use xlink:href="#DejaVuSans-72" x="544.042969"/>
      <use xlink:href="#DejaVuSans-65" x="582.90625"/>
      <use xlink:href="#DejaVuSans-64" x="644.429688"/>
      <use xlink:href="#DejaVuSans-69" x="707.90625"/>
      <use xlink:href="#DejaVuSans-63" x="735.689453"/>
      <use xlink:href="#DejaVuSans-74" x="790.669922"/>
      <use xlink:href="#DejaVuSans-69" x="829.878906"/>
      <use xlink:href="#DejaVuSans-6f" x="857.662109"/>
      <use xlink:href="#DejaVuSans-6e" x="918.84375"/>
      <use xlink:href="#DejaVuSans-73" x="982.222656"/>
      <use xlink:href="#DejaVuSans-20" x="1034.322266"/>
      <use xlink:href="#DejaVuSans-6d" x="1066.109375"/>
      <use xlink:href="#DejaVuSans-69" x="1163.521484"/>
      <use xlink:href="#DejaVuSans-6e" x="1191.304688"/>
     </g>
    </g>
   </g>
  </g>
 </g>
 <defs>
  <clipPath id="pc05a8e01d3">
   <rect x="57.6" y="41.472" width="357.12" height="266.112"/>
  </clipPath>
 </defs>
</svg>
