<?xml version="1.0" encoding="utf-8" standalone="no"?>
<!DOCTYPE svg PUBLIC "-//W3C//DTD SVG 1.1//EN"
  "http://www.w3.org/Graphics/SVG/1.1/DTD/svg11.dtd">
<svg xmlns:xlink="http://www.w3.org/1999/xlink" width="460.8pt" height="345.6pt" viewBox="0 0 460.8 345.6" xmlns="http://www.w3.org/2000/svg" version="1.1">
 <metadata>
  <rdf:RDF xmlns:dc="http://purl.org/dc/elements/1.1/" xmlns:cc="http://creativecommons.org/ns#" xmlns:rdf="http://www.w3.org/1999/02/22-rdf-syntax-ns#">
   <cc:Work>
    <dc:type rdf:resource="http://purl.org/dc/dcmitype/StillImage"/>
    <dc:date>2024-09-06T11:19:49.877682</dc:date>
    <dc:format>image/svg+xml</dc:format>
    <dc:creator>
     <cc:Agent>
      <dc:title>Matplotlib v3.9.0, https://matplotlib.org/</dc:title>
     </cc:Agent>
    </dc:creator>
   </cc:Work>
  </rdf:RDF>
 </metadata>
 <defs>
  <style type="text/css">*{stroke-linejoin: round; stroke-linecap: butt}</style>
 </defs>
 <g id="figure_1">
  <g id="patch_1">
   <path d="M 0 345.6 
L 460.8 345.6 
L 460.8 0 
L 0 0 
z
" style="fill: #ffffff"/>
  </g>
  <g id="axes_1">
   <g id="patch_2">
    <path d="M 57.6 307.584 
L 414.72 307.584 
L 414.72 41.472 
L 57.6 41.472 
z
" style="fill: #ffffff"/>
   </g>
   <g id="matplotlib.axis_1">
    <g id="xtick_1">
     <g id="line2d_1">
      <defs>
       <path id="m5ee4695952" d="M 0 0 
L 0 3.5 
" style="stroke: #000000; stroke-width: 0.8"/>
      </defs>
      <g>
       <use xlink:href="#m5ee4695952" x="73.832727" y="307.584" style="stroke: #000000; stroke-width: 0.8"/>
      </g>
     </g>
     <g id="text_1">
      <!-- 0 -->
      <g transform="translate(70.651477 322.182437) scale(0.1 -0.1)">
       <defs>
        <path id="DejaVuSans-30" d="M 2034 4250 
Q 1547 4250 1301 3770 
Q 1056 3291 1056 2328 
Q 1056 1369 1301 889 
Q 1547 409 2034 409 
Q 2525 409 2770 889 
Q 3016 1369 3016 2328 
Q 3016 3291 2770 3770 
Q 2525 4250 2034 4250 
z
M 2034 4750 
Q 2819 4750 3233 4129 
Q 3647 3509 3647 2328 
Q 3647 1150 3233 529 
Q 2819 -91 2034 -91 
Q 1250 -91 836 529 
Q 422 1150 422 2328 
Q 422 3509 836 4129 
Q 1250 4750 2034 4750 
z
" transform="scale(0.015625)"/>
       </defs>
       <use xlink:href="#DejaVuSans-30"/>
      </g>
     </g>
    </g>
    <g id="xtick_2">
     <g id="line2d_2">
      <g>
       <use xlink:href="#m5ee4695952" x="149.019051" y="307.584" style="stroke: #000000; stroke-width: 0.8"/>
      </g>
     </g>
     <g id="text_2">
      <!-- 500 -->
      <g transform="translate(139.475301 322.182437) scale(0.1 -0.1)">
       <defs>
        <path id="DejaVuSans-35" d="M 691 4666 
L 3169 4666 
L 3169 4134 
L 1269 4134 
L 1269 2991 
Q 1406 3038 1543 3061 
Q 1681 3084 1819 3084 
Q 2600 3084 3056 2656 
Q 3513 2228 3513 1497 
Q 3513 744 3044 326 
Q 2575 -91 1722 -91 
Q 1428 -91 1123 -41 
Q 819 9 494 109 
L 494 744 
Q 775 591 1075 516 
Q 1375 441 1709 441 
Q 2250 441 2565 725 
Q 2881 1009 2881 1497 
Q 2881 1984 2565 2268 
Q 2250 2553 1709 2553 
Q 1456 2553 1204 2497 
Q 953 2441 691 2322 
L 691 4666 
z
" transform="scale(0.015625)"/>
       </defs>
       <use xlink:href="#DejaVuSans-35"/>
       <use xlink:href="#DejaVuSans-30" x="63.623047"/>
       <use xlink:href="#DejaVuSans-30" x="127.246094"/>
      </g>
     </g>
    </g>
    <g id="xtick_3">
     <g id="line2d_3">
      <g>
       <use xlink:href="#m5ee4695952" x="224.205375" y="307.584" style="stroke: #000000; stroke-width: 0.8"/>
      </g>
     </g>
     <g id="text_3">
      <!-- 1000 -->
      <g transform="translate(211.480375 322.182437) scale(0.1 -0.1)">
       <defs>
        <path id="DejaVuSans-31" d="M 794 531 
L 1825 531 
L 1825 4091 
L 703 3866 
L 703 4441 
L 1819 4666 
L 2450 4666 
L 2450 531 
L 3481 531 
L 3481 0 
L 794 0 
L 794 531 
z
" transform="scale(0.015625)"/>
       </defs>
       <use xlink:href="#DejaVuSans-31"/>
       <use xlink:href="#DejaVuSans-30" x="63.623047"/>
       <use xlink:href="#DejaVuSans-30" x="127.246094"/>
       <use xlink:href="#DejaVuSans-30" x="190.869141"/>
      </g>
     </g>
    </g>
    <g id="xtick_4">
     <g id="line2d_4">
      <g>
       <use xlink:href="#m5ee4695952" x="299.391698" y="307.584" style="stroke: #000000; stroke-width: 0.8"/>
      </g>
     </g>
     <g id="text_4">
      <!-- 1500 -->
      <g transform="translate(286.666698 322.182437) scale(0.1 -0.1)">
       <use xlink:href="#DejaVuSans-31"/>
       <use xlink:href="#DejaVuSans-35" x="63.623047"/>
       <use xlink:href="#DejaVuSans-30" x="127.246094"/>
       <use xlink:href="#DejaVuSans-30" x="190.869141"/>
      </g>
     </g>
    </g>
    <g id="xtick_5">
     <g id="line2d_5">
      <g>
       <use xlink:href="#m5ee4695952" x="374.578022" y="307.584" style="stroke: #000000; stroke-width: 0.8"/>
      </g>
     </g>
     <g id="text_5">
      <!-- 2000 -->
      <g transform="translate(361.853022 322.182437) scale(0.1 -0.1)">
       <defs>
        <path id="DejaVuSans-32" d="M 1228 531 
L 3431 531 
L 3431 0 
L 469 0 
L 469 531 
Q 828 903 1448 1529 
Q 2069 2156 2228 2338 
Q 2531 2678 2651 2914 
Q 2772 3150 2772 3378 
Q 2772 3750 2511 3984 
Q 2250 4219 1831 4219 
Q 1534 4219 1204 4116 
Q 875 4013 500 3803 
L 500 4441 
Q 881 4594 1212 4672 
Q 1544 4750 1819 4750 
Q 2544 4750 2975 4387 
Q 3406 4025 3406 3419 
Q 3406 3131 3298 2873 
Q 3191 2616 2906 2266 
Q 2828 2175 2409 1742 
Q 1991 1309 1228 531 
z
" transform="scale(0.015625)"/>
       </defs>
       <use xlink:href="#DejaVuSans-32"/>
       <use xlink:href="#DejaVuSans-30" x="63.623047"/>
       <use xlink:href="#DejaVuSans-30" x="127.246094"/>
       <use xlink:href="#DejaVuSans-30" x="190.869141"/>
      </g>
     </g>
    </g>
   </g>
   <g id="matplotlib.axis_2">
    <g id="ytick_1">
     <g id="line2d_6">
      <defs>
       <path id="m09c2bb82a7" d="M 0 0 
L -3.5 0 
" style="stroke: #000000; stroke-width: 0.8"/>
      </defs>
      <g>
       <use xlink:href="#m09c2bb82a7" x="57.6" y="297.964409" style="stroke: #000000; stroke-width: 0.8"/>
      </g>
     </g>
     <g id="text_6">
      <!-- −600000 -->
      <g transform="translate(4.045313 301.763628) scale(0.1 -0.1)">
       <defs>
        <path id="DejaVuSans-2212" d="M 678 2272 
L 4684 2272 
L 4684 1741 
L 678 1741 
L 678 2272 
z
" transform="scale(0.015625)"/>
        <path id="DejaVuSans-36" d="M 2113 2584 
Q 1688 2584 1439 2293 
Q 1191 2003 1191 1497 
Q 1191 994 1439 701 
Q 1688 409 2113 409 
Q 2538 409 2786 701 
Q 3034 994 3034 1497 
Q 3034 2003 2786 2293 
Q 2538 2584 2113 2584 
z
M 3366 4563 
L 3366 3988 
Q 3128 4100 2886 4159 
Q 2644 4219 2406 4219 
Q 1781 4219 1451 3797 
Q 1122 3375 1075 2522 
Q 1259 2794 1537 2939 
Q 1816 3084 2150 3084 
Q 2853 3084 3261 2657 
Q 3669 2231 3669 1497 
Q 3669 778 3244 343 
Q 2819 -91 2113 -91 
Q 1303 -91 875 529 
Q 447 1150 447 2328 
Q 447 3434 972 4092 
Q 1497 4750 2381 4750 
Q 2619 4750 2861 4703 
Q 3103 4656 3366 4563 
z
" transform="scale(0.015625)"/>
       </defs>
       <use xlink:href="#DejaVuSans-2212"/>
       <use xlink:href="#DejaVuSans-36" x="83.789062"/>
       <use xlink:href="#DejaVuSans-30" x="147.412109"/>
       <use xlink:href="#DejaVuSans-30" x="211.035156"/>
       <use xlink:href="#DejaVuSans-30" x="274.658203"/>
       <use xlink:href="#DejaVuSans-30" x="338.28125"/>
       <use xlink:href="#DejaVuSans-30" x="401.904297"/>
      </g>
     </g>
    </g>
    <g id="ytick_2">
     <g id="line2d_7">
      <g>
       <use xlink:href="#m09c2bb82a7" x="57.6" y="256.617472" style="stroke: #000000; stroke-width: 0.8"/>
      </g>
     </g>
     <g id="text_7">
      <!-- −400000 -->
      <g transform="translate(4.045313 260.41669) scale(0.1 -0.1)">
       <defs>
        <path id="DejaVuSans-34" d="M 2419 4116 
L 825 1625 
L 2419 1625 
L 2419 4116 
z
M 2253 4666 
L 3047 4666 
L 3047 1625 
L 3713 1625 
L 3713 1100 
L 3047 1100 
L 3047 0 
L 2419 0 
L 2419 1100 
L 313 1100 
L 313 1709 
L 2253 4666 
z
" transform="scale(0.015625)"/>
       </defs>
       <use xlink:href="#DejaVuSans-2212"/>
       <use xlink:href="#DejaVuSans-34" x="83.789062"/>
       <use xlink:href="#DejaVuSans-30" x="147.412109"/>
       <use xlink:href="#DejaVuSans-30" x="211.035156"/>
       <use xlink:href="#DejaVuSans-30" x="274.658203"/>
       <use xlink:href="#DejaVuSans-30" x="338.28125"/>
       <use xlink:href="#DejaVuSans-30" x="401.904297"/>
      </g>
     </g>
    </g>
    <g id="ytick_3">
     <g id="line2d_8">
      <g>
       <use xlink:href="#m09c2bb82a7" x="57.6" y="215.270534" style="stroke: #000000; stroke-width: 0.8"/>
      </g>
     </g>
     <g id="text_8">
      <!-- −200000 -->
      <g transform="translate(4.045313 219.069753) scale(0.1 -0.1)">
       <use xlink:href="#DejaVuSans-2212"/>
       <use xlink:href="#DejaVuSans-32" x="83.789062"/>
       <use xlink:href="#DejaVuSans-30" x="147.412109"/>
       <use xlink:href="#DejaVuSans-30" x="211.035156"/>
       <use xlink:href="#DejaVuSans-30" x="274.658203"/>
       <use xlink:href="#DejaVuSans-30" x="338.28125"/>
       <use xlink:href="#DejaVuSans-30" x="401.904297"/>
      </g>
     </g>
    </g>
    <g id="ytick_4">
     <g id="line2d_9">
      <g>
       <use xlink:href="#m09c2bb82a7" x="57.6" y="173.923597" style="stroke: #000000; stroke-width: 0.8"/>
      </g>
     </g>
     <g id="text_9">
      <!-- 0 -->
      <g transform="translate(44.2375 177.722816) scale(0.1 -0.1)">
       <use xlink:href="#DejaVuSans-30"/>
      </g>
     </g>
    </g>
    <g id="ytick_5">
     <g id="line2d_10">
      <g>
       <use xlink:href="#m09c2bb82a7" x="57.6" y="132.57666" style="stroke: #000000; stroke-width: 0.8"/>
      </g>
     </g>
     <g id="text_10">
      <!-- 200000 -->
      <g transform="translate(12.425 136.375879) scale(0.1 -0.1)">
       <use xlink:href="#DejaVuSans-32"/>
       <use xlink:href="#DejaVuSans-30" x="63.623047"/>
       <use xlink:href="#DejaVuSans-30" x="127.246094"/>
       <use xlink:href="#DejaVuSans-30" x="190.869141"/>
       <use xlink:href="#DejaVuSans-30" x="254.492188"/>
       <use xlink:href="#DejaVuSans-30" x="318.115234"/>
      </g>
     </g>
    </g>
    <g id="ytick_6">
     <g id="line2d_11">
      <g>
       <use xlink:href="#m09c2bb82a7" x="57.6" y="91.229723" style="stroke: #000000; stroke-width: 0.8"/>
      </g>
     </g>
     <g id="text_11">
      <!-- 400000 -->
      <g transform="translate(12.425 95.028941) scale(0.1 -0.1)">
       <use xlink:href="#DejaVuSans-34"/>
       <use xlink:href="#DejaVuSans-30" x="63.623047"/>
       <use xlink:href="#DejaVuSans-30" x="127.246094"/>
       <use xlink:href="#DejaVuSans-30" x="190.869141"/>
       <use xlink:href="#DejaVuSans-30" x="254.492188"/>
       <use xlink:href="#DejaVuSans-30" x="318.115234"/>
      </g>
     </g>
    </g>
    <g id="ytick_7">
     <g id="line2d_12">
      <g>
       <use xlink:href="#m09c2bb82a7" x="57.6" y="49.882786" style="stroke: #000000; stroke-width: 0.8"/>
      </g>
     </g>
     <g id="text_12">
      <!-- 600000 -->
      <g transform="translate(12.425 53.682004) scale(0.1 -0.1)">
       <use xlink:href="#DejaVuSans-36"/>
       <use xlink:href="#DejaVuSans-30" x="63.623047"/>
       <use xlink:href="#DejaVuSans-30" x="127.246094"/>
       <use xlink:href="#DejaVuSans-30" x="190.869141"/>
       <use xlink:href="#DejaVuSans-30" x="254.492188"/>
       <use xlink:href="#DejaVuSans-30" x="318.115234"/>
      </g>
     </g>
    </g>
   </g>
   <g id="line2d_13">
    <path d="M 73.832727 173.986438 
L 74.133473 173.597373 
L 74.283845 173.647973 
L 74.434218 173.505779 
L 74.584591 173.181714 
L 74.734963 173.37704 
L 74.885336 173.338015 
L 75.186081 173.724416 
L 75.336454 173.78305 
L 75.486826 173.666866 
L 75.937944 173.901489 
L 76.389062 174.69604 
L 76.539435 174.441204 
L 76.689808 174.46918 
L 76.84018 174.324383 
L 77.140926 173.738289 
L 77.291298 173.716366 
L 77.592043 173.379275 
L 78.193534 173.559392 
L 78.343907 173.405705 
L 78.494279 173.461089 
L 78.644652 173.68301 
L 78.795025 173.638593 
L 79.546888 172.73785 
L 79.847633 172.741477 
L 80.749869 171.999016 
L 81.050614 172.261447 
L 81.35136 172.336337 
L 81.501732 172.265473 
L 81.652105 172.339703 
L 82.855086 171.348822 
L 83.306204 171.21602 
L 83.757322 170.978084 
L 84.509185 171.211223 
L 84.809931 171.331895 
L 85.110676 171.530037 
L 85.411421 171.384439 
L 85.561794 171.361392 
L 86.012912 171.62492 
L 86.163284 171.553719 
L 86.313657 171.76488 
L 87.516638 171.19422 
L 87.817383 171.300866 
L 88.118129 171.409152 
L 88.569247 171.076757 
L 89.922601 170.206448 
L 90.524091 170.107532 
L 90.824836 169.868804 
L 91.727072 169.572569 
L 92.027818 169.52709 
L 92.328563 169.566654 
L 92.779681 169.460034 
L 93.080426 169.524403 
L 93.230799 169.44872 
L 93.531544 169.173878 
L 93.832289 168.905778 
L 94.133035 168.796487 
L 94.734525 168.676805 
L 95.035271 168.603627 
L 95.336016 168.349873 
L 96.238252 167.964627 
L 96.839742 168.078908 
L 96.990115 168.022919 
L 97.591606 168.349293 
L 98.644214 167.841318 
L 98.794587 167.91263 
L 99.396077 168.553008 
L 99.696823 168.457209 
L 99.847195 168.605201 
L 99.997568 168.926317 
L 100.298313 168.800597 
L 100.899804 168.614278 
L 101.651667 168.071659 
L 102.102785 167.838175 
L 102.40353 167.673096 
L 102.854648 167.516451 
L 103.756884 167.540864 
L 104.508747 167.380717 
L 104.959865 167.401668 
L 105.260611 167.433377 
L 105.410983 167.505196 
L 105.711728 167.382964 
L 106.463592 167.498878 
L 107.065082 167.169959 
L 107.5162 167.140571 
L 107.967318 167.144459 
L 108.268063 167.031638 
L 108.869554 166.956722 
L 109.320672 166.895627 
L 109.77179 166.744585 
L 112.177752 166.175464 
L 112.478498 166.12798 
L 112.779243 166.206574 
L 113.230361 166.03636 
L 114.433342 166.179096 
L 114.734087 166.135884 
L 115.185205 166.068142 
L 115.786696 166.099331 
L 116.087441 166.158955 
L 116.688932 165.986132 
L 117.591168 165.600244 
L 118.042286 165.282065 
L 118.944521 164.843682 
L 119.245267 164.934725 
L 120.748993 164.440378 
L 121.350484 164.323726 
L 121.801602 164.203891 
L 122.403092 164.483925 
L 123.154956 164.318144 
L 124.207564 164.060782 
L 124.658682 164.033484 
L 125.260173 163.966387 
L 126.312781 163.625841 
L 127.816508 163.289363 
L 128.267626 163.234326 
L 128.869116 163.083009 
L 129.320234 163.032393 
L 129.921725 162.980709 
L 130.372843 163.095852 
L 130.823961 163.044584 
L 131.575824 163.202841 
L 132.327687 163.228511 
L 133.981786 162.971494 
L 135.635885 163.155913 
L 136.087003 163.262892 
L 136.838866 163.131818 
L 137.440357 163.175993 
L 137.741102 163.200469 
L 137.891475 163.404696 
L 138.19222 164.05914 
L 138.492966 164.080804 
L 138.944084 164.277967 
L 140.598183 164.090275 
L 141.199673 164.146942 
L 141.500419 164.016768 
L 142.252282 163.92142 
L 143.004145 164.011857 
L 143.30489 164.017265 
L 143.605636 164.299512 
L 144.056754 165.028802 
L 144.357499 165.205571 
L 144.808617 164.872327 
L 144.958989 165.03121 
L 145.259735 164.972061 
L 145.56048 164.857304 
L 146.011598 164.914684 
L 146.312343 165.177683 
L 148.116815 164.501423 
L 149.169424 164.707716 
L 149.319796 164.768596 
L 149.620541 164.666057 
L 149.770914 164.668126 
L 149.921287 164.835283 
L 150.071659 165.274519 
L 150.372405 165.34296 
L 150.522777 165.460605 
L 150.67315 165.984226 
L 150.823523 165.822141 
L 150.973895 166.020711 
L 151.575386 165.460173 
L 151.725759 165.668944 
L 152.026504 165.405106 
L 152.327249 165.41232 
L 152.627994 165.634079 
L 152.778367 165.542899 
L 152.92874 165.318283 
L 153.079112 165.358771 
L 153.229485 165.241423 
L 153.379858 164.945961 
L 153.53023 165.024733 
L 153.680603 164.709276 
L 153.830976 164.691674 
L 153.981348 164.83089 
L 154.582839 164.683009 
L 154.883584 164.457613 
L 155.78582 164.217556 
L 156.236938 164.464639 
L 156.988801 164.73643 
L 157.289547 164.714616 
L 157.590292 164.522193 
L 157.891037 164.26754 
L 158.04141 164.030592 
L 158.943646 163.994201 
L 159.244391 163.743284 
L 159.545136 163.654472 
L 160.748117 163.20844 
L 161.199235 163.386453 
L 161.951099 163.163169 
L 162.251844 163.013444 
L 162.702962 162.943851 
L 163.304452 162.804692 
L 164.056316 162.514303 
L 164.357061 162.145079 
L 164.657806 161.981683 
L 165.259297 161.929065 
L 165.560042 161.938574 
L 166.311905 161.784456 
L 166.612651 161.823364 
L 167.214141 161.569843 
L 168.717868 161.049933 
L 169.168986 161.44614 
L 170.371967 161.065873 
L 170.672712 161.019862 
L 171.875693 160.482201 
L 172.326811 160.307084 
L 172.928302 159.945007 
L 173.37942 159.681021 
L 173.680165 159.641073 
L 174.131283 159.746813 
L 175.334264 159.508637 
L 175.635009 159.477067 
L 176.2365 159.274791 
L 177.289109 158.993109 
L 178.040972 158.916544 
L 178.49209 158.808155 
L 178.792835 158.841677 
L 179.394326 158.649044 
L 179.845444 158.783475 
L 180.146189 158.94837 
L 180.446934 158.853818 
L 181.800288 158.868203 
L 182.852897 158.46377 
L 183.304014 158.583341 
L 183.905505 158.42418 
L 184.356623 158.308144 
L 184.958114 158.502976 
L 185.860349 158.39182 
L 187.213703 157.898023 
L 187.815194 157.4916 
L 188.266312 157.487781 
L 189.018175 157.466826 
L 189.31892 157.147124 
L 189.619666 157.05244 
L 189.770038 156.417749 
L 189.920411 156.480637 
L 190.371529 156.209648 
L 190.672274 156.168503 
L 190.973019 156.350544 
L 191.424137 156.280167 
L 191.724883 156.356377 
L 192.025628 156.258128 
L 192.476746 156.068318 
L 193.980472 156.145225 
L 194.43159 155.925427 
L 195.033081 155.760318 
L 195.484199 155.797015 
L 195.784944 155.610185 
L 196.08569 155.670686 
L 196.837553 155.840617 
L 196.987925 156.051639 
L 198.040534 156.011078 
L 198.341279 156.231591 
L 198.94277 155.778157 
L 199.243515 155.912899 
L 199.694633 155.772217 
L 200.145751 155.649178 
L 200.446496 155.456828 
L 200.897614 155.26636 
L 201.19836 155.225857 
L 201.499105 155.28509 
L 202.401341 155.14332 
L 203.153204 154.938255 
L 203.303577 154.922338 
L 203.604322 154.756436 
L 204.957676 154.270464 
L 205.258421 154.326138 
L 205.859912 153.958635 
L 209.468855 153.018634 
L 209.919973 153.09627 
L 210.220718 153.121762 
L 210.371091 153.365951 
L 210.822209 153.274544 
L 211.122954 153.413218 
L 211.4237 153.205577 
L 211.724445 153.186015 
L 212.175563 153.170908 
L 212.476308 153.073709 
L 212.777053 153.120369 
L 214.28078 152.826429 
L 215.934879 152.39864 
L 216.085252 152.097051 
L 216.385997 151.992375 
L 218.791959 151.683919 
L 221.197922 151.10005 
L 221.498667 151.13536 
L 222.100157 151.254978 
L 222.852021 150.993847 
L 223.152766 151.06546 
L 223.453511 151.303875 
L 223.754257 151.322192 
L 225.257983 151.132486 
L 225.408356 151.266143 
L 225.558728 151.579099 
L 225.709101 151.548806 
L 225.859474 151.337366 
L 226.009846 151.413341 
L 226.310592 151.2524 
L 226.460964 151.277111 
L 226.76171 151.440732 
L 227.062455 151.264474 
L 227.513573 151.627603 
L 227.814318 151.984081 
L 227.964691 152.469952 
L 228.265436 152.354281 
L 228.566181 152.637617 
L 228.716554 152.248584 
L 228.866927 152.182517 
L 229.167672 152.314552 
L 229.318045 152.581667 
L 229.61879 152.481987 
L 229.769162 152.470164 
L 229.919535 152.253687 
L 230.22028 152.262065 
L 230.370653 152.190006 
L 230.521026 151.947336 
L 230.821771 151.813369 
L 230.972144 151.708227 
L 231.272889 151.870917 
L 231.573634 151.911712 
L 231.724007 152.298061 
L 231.87438 153.088587 
L 232.47587 152.449476 
L 232.626243 152.591256 
L 232.776615 152.441368 
L 232.926988 152.478691 
L 233.077361 152.632811 
L 233.378106 153.506142 
L 233.678851 153.700158 
L 234.129969 154.746087 
L 234.280342 155.694284 
L 234.430715 155.796409 
L 234.581087 155.49357 
L 234.73146 155.84588 
L 234.881832 156.598816 
L 235.032205 156.539844 
L 235.33295 155.901088 
L 235.784068 154.409195 
L 236.084814 155.404853 
L 236.385559 154.686447 
L 236.535932 154.541116 
L 236.686304 154.66203 
L 236.98705 154.3394 
L 237.137422 153.308365 
L 237.287795 153.690902 
L 237.438168 153.423489 
L 237.889285 153.344456 
L 238.039658 152.896322 
L 238.340403 153.670395 
L 238.490776 153.686243 
L 238.641149 153.419005 
L 238.791521 153.42536 
L 239.092267 154.142823 
L 239.242639 154.023129 
L 239.693757 154.367921 
L 239.84413 155.792279 
L 239.994503 156.018602 
L 240.144875 155.560131 
L 240.295248 156.077072 
L 240.595993 155.479339 
L 240.746366 155.705738 
L 240.896738 155.223939 
L 241.047111 155.373947 
L 241.197484 156.067256 
L 241.347856 156.082524 
L 241.498229 156.841099 
L 241.648602 156.981802 
L 241.798974 156.753101 
L 242.400465 154.256868 
L 242.70121 153.918868 
L 242.851583 153.681274 
L 243.001955 154.567303 
L 243.152328 154.318232 
L 243.302701 154.63933 
L 243.453073 154.177725 
L 243.753819 153.991567 
L 244.505682 155.708676 
L 244.656055 155.62706 
L 244.806427 156.305844 
L 245.107173 154.535714 
L 245.257545 154.59231 
L 245.407918 154.949218 
L 245.708663 154.653806 
L 245.859036 154.561987 
L 246.009408 154.313626 
L 246.159781 153.554618 
L 246.310154 153.468261 
L 246.610899 152.563504 
L 246.761272 153.139373 
L 246.911644 153.266148 
L 247.062017 153.246755 
L 247.362762 153.831318 
L 247.81388 153.799998 
L 247.964253 153.477796 
L 248.114625 153.576518 
L 248.264998 153.497078 
L 248.415371 153.176824 
L 248.565743 152.592383 
L 248.716116 152.929179 
L 248.866489 152.831499 
L 249.167234 153.074156 
L 249.317607 153.02648 
L 249.467979 153.627086 
L 249.919097 152.770872 
L 250.06947 152.434927 
L 250.219843 151.363455 
L 250.370215 151.113901 
L 250.520588 151.123999 
L 250.971706 149.631949 
L 251.272451 149.031471 
L 251.422824 149.980533 
L 251.573196 150.20491 
L 251.723569 150.152454 
L 251.873942 149.814239 
L 252.024314 150.529341 
L 252.174687 150.574283 
L 252.32506 150.251082 
L 252.475432 150.207426 
L 252.625805 149.316321 
L 252.776178 150.001183 
L 252.92655 149.786735 
L 253.076923 149.815837 
L 253.227295 150.113029 
L 253.377668 149.98943 
L 253.528041 149.329608 
L 253.678413 149.343059 
L 253.828786 147.611971 
L 254.129531 147.424716 
L 254.430277 146.379227 
L 254.881395 144.085577 
L 255.031767 144.704643 
L 255.18214 143.959224 
L 255.332513 143.837438 
L 255.482885 143.178957 
L 255.633258 143.82422 
L 255.78363 143.786787 
L 255.934003 143.984281 
L 256.084376 143.864479 
L 256.385121 142.810787 
L 256.535494 142.85422 
L 256.685866 143.123472 
L 256.836239 143.088014 
L 256.986612 143.185987 
L 257.136984 143.60054 
L 257.888848 141.870153 
L 258.03922 142.492209 
L 258.339965 142.422685 
L 258.490338 142.058652 
L 258.791083 142.89845 
L 258.941456 142.954208 
L 259.994065 140.348851 
L 260.29481 140.558282 
L 260.445183 139.857777 
L 260.595555 139.78389 
L 260.745928 140.106722 
L 260.8963 140.080206 
L 261.046673 140.388094 
L 261.197046 140.213019 
L 261.497791 139.601904 
L 261.798536 139.809075 
L 262.099282 139.411923 
L 262.5504 138.754055 
L 262.700772 138.661594 
L 262.851145 138.766372 
L 263.302263 138.152836 
L 263.753381 137.404102 
L 263.903753 137.383952 
L 264.054126 137.204171 
L 264.204499 136.806093 
L 264.655617 137.458752 
L 265.106735 138.3466 
L 265.40748 138.8902 
L 265.557853 138.866419 
L 265.708225 139.331372 
L 265.858598 139.161249 
L 266.309716 137.875859 
L 266.610461 138.203923 
L 266.911206 138.917285 
L 267.061579 138.790165 
L 267.211952 139.128475 
L 267.512697 138.789079 
L 267.66307 138.354083 
L 267.813442 138.855674 
L 268.114188 138.547482 
L 268.565305 137.489933 
L 269.016423 138.222555 
L 269.166796 138.106802 
L 269.317169 138.15665 
L 269.467541 137.786879 
L 269.617914 137.845747 
L 269.768287 137.227283 
L 269.918659 137.463671 
L 270.219405 137.103825 
L 270.52015 136.449785 
L 271.422386 137.381579 
L 271.723131 135.836247 
L 271.873504 135.698327 
L 272.174249 135.141702 
L 272.324622 135.213465 
L 272.474994 134.929745 
L 272.77574 135.337087 
L 272.926112 135.2509 
L 273.076485 134.938044 
L 273.226858 134.940807 
L 273.37723 134.656822 
L 273.677975 132.898464 
L 273.978721 133.458247 
L 274.279466 132.732619 
L 274.429839 132.630492 
L 274.880957 131.826425 
L 275.031329 132.281783 
L 275.181702 133.150923 
L 275.482447 132.956149 
L 275.63282 133.076162 
L 275.933565 134.361677 
L 276.23431 133.89288 
L 276.384683 133.895249 
L 276.535056 133.73748 
L 276.685428 134.092152 
L 276.835801 133.867366 
L 276.986174 133.938596 
L 277.136546 133.711474 
L 277.286919 134.384061 
L 277.738037 134.089228 
L 278.038782 135.086537 
L 278.339528 133.840436 
L 278.4899 133.773966 
L 278.640273 133.564202 
L 278.790646 133.783324 
L 279.091391 132.580311 
L 279.392136 133.023229 
L 279.542509 132.879587 
L 279.843254 132.262988 
L 279.993627 132.508349 
L 280.143999 132.449642 
L 280.444745 131.640004 
L 280.595117 131.509094 
L 280.74549 131.755251 
L 280.895863 132.626064 
L 281.046235 132.513682 
L 281.346981 131.668317 
L 281.647726 131.139854 
L 281.798098 131.218084 
L 281.948471 130.829749 
L 282.098844 129.91067 
L 282.249216 129.745915 
L 282.399589 128.920358 
L 282.549962 128.948674 
L 282.700334 129.204638 
L 282.850707 128.970157 
L 283.00108 128.250377 
L 283.151452 128.307122 
L 283.301825 127.997101 
L 283.452198 127.987046 
L 283.60257 127.238061 
L 283.752943 127.280009 
L 284.053688 127.68009 
L 284.504806 127.082396 
L 284.955924 124.997936 
L 285.106297 125.134563 
L 285.256669 125.097201 
L 285.407042 124.923735 
L 285.707787 123.902551 
L 286.008533 124.240911 
L 286.309278 123.319975 
L 286.459651 123.580699 
L 287.061141 122.531794 
L 287.211514 122.52523 
L 287.361886 122.961039 
L 287.512259 122.928681 
L 287.813004 123.382319 
L 288.264122 123.180191 
L 288.564868 122.079782 
L 288.71524 122.023263 
L 288.865613 121.710896 
L 289.015986 121.783766 
L 289.166358 121.634198 
L 290.218967 119.116569 
L 290.369339 119.022614 
L 290.519712 119.170858 
L 290.670085 119.495233 
L 291.121203 118.980801 
L 291.271575 118.978349 
L 291.722693 118.325319 
L 291.873066 117.8957 
L 292.173811 116.326629 
L 292.474556 116.32829 
L 292.775302 116.224303 
L 292.925674 116.145756 
L 293.22642 116.296408 
L 293.527165 116.333582 
L 293.677538 116.370234 
L 293.978283 115.887039 
L 294.128656 116.577492 
L 294.279028 116.61496 
L 294.730146 117.369038 
L 294.880519 117.420565 
L 295.030891 117.324191 
L 295.331637 116.636099 
L 295.632382 116.492245 
L 295.782755 116.86274 
L 295.933127 116.752592 
L 296.233873 115.529336 
L 296.384245 115.341509 
L 296.684991 114.361212 
L 296.835363 114.40651 
L 296.985736 114.123006 
L 297.136108 114.12752 
L 297.286481 114.266776 
L 297.436854 114.223702 
L 297.587226 113.897464 
L 297.887972 115.087497 
L 298.038344 115.008812 
L 298.639835 113.021715 
L 298.790208 112.809319 
L 298.94058 112.879702 
L 299.090953 113.514545 
L 299.391698 112.615194 
L 299.692443 112.063175 
L 299.842816 112.220359 
L 299.993189 112.112722 
L 300.143561 112.265953 
L 300.444307 112.232446 
L 300.594679 112.335018 
L 301.045797 111.973006 
L 301.647288 112.583344 
L 301.797661 113.087109 
L 302.248778 113.239527 
L 302.399151 112.704511 
L 302.549524 112.643154 
L 302.850269 112.315124 
L 303.000642 112.274718 
L 303.151014 112.016285 
L 303.301387 111.312191 
L 303.45176 111.16165 
L 303.752505 110.652868 
L 303.902878 110.460795 
L 304.05325 109.756856 
L 305.105859 109.134115 
L 305.256231 109.3294 
L 305.406604 109.331782 
L 306.008095 108.286304 
L 306.158467 108.416041 
L 306.30884 107.907356 
L 306.459213 107.924385 
L 306.609585 107.819092 
L 307.060703 107.0419 
L 307.211076 106.90864 
L 307.361448 106.598816 
L 307.511821 106.786096 
L 307.812566 105.857265 
L 308.113312 105.019155 
L 308.263684 104.027138 
L 308.414057 103.971553 
L 308.714802 103.135892 
L 308.865175 103.15283 
L 309.16592 103.532778 
L 309.617038 102.867066 
L 309.767411 102.980994 
L 310.068156 102.576664 
L 310.218529 102.680839 
L 310.519274 102.426234 
L 310.820019 102.317773 
L 311.120765 101.975387 
L 311.271137 102.147381 
L 311.42151 102.686601 
L 311.571883 102.757249 
L 311.722255 102.326944 
L 311.872628 102.249395 
L 312.173373 101.688044 
L 312.323746 101.555422 
L 312.624491 101.76705 
L 313.376354 99.792398 
L 313.526727 98.698438 
L 314.27859 97.226182 
L 314.428963 97.335105 
L 315.030453 97.241442 
L 315.481571 97.411012 
L 316.083062 96.994841 
L 316.53418 96.757889 
L 316.834925 97.09928 
L 316.985298 97.20775 
L 317.135671 97.517558 
L 317.436416 97.6388 
L 317.586788 97.479183 
L 317.887534 96.736841 
L 318.338652 96.726776 
L 318.489024 96.897813 
L 318.639397 96.877355 
L 319.090515 97.266749 
L 319.39126 97.189172 
L 319.992751 96.208565 
L 320.594241 96.611451 
L 321.045359 96.192839 
L 321.496477 95.621078 
L 321.64685 95.612987 
L 321.797223 95.442243 
L 321.947595 95.640625 
L 322.248341 95.519741 
L 322.398713 95.560985 
L 322.699459 95.779339 
L 323.000204 95.773892 
L 323.451322 94.939998 
L 323.601694 94.244743 
L 324.654303 93.047381 
L 325.105421 92.415487 
L 325.556539 91.947202 
L 326.158029 91.817097 
L 326.458775 91.418147 
L 326.609147 91.213938 
L 326.909893 91.750957 
L 327.210638 91.91941 
L 327.812129 90.886833 
L 328.112874 90.643513 
L 328.413619 90.177502 
L 328.563992 89.892762 
L 328.864737 89.807713 
L 329.315855 89.298448 
L 329.466228 89.271195 
L 329.6166 89.12281 
L 329.917346 89.080746 
L 330.368464 88.556122 
L 330.669209 88.742851 
L 331.571445 87.378144 
L 331.721817 87.188174 
L 332.022563 87.257109 
L 332.323308 86.848559 
L 332.624053 86.953033 
L 333.075171 86.358634 
L 333.526289 86.515093 
L 333.676662 86.456455 
L 333.827034 86.664594 
L 334.428525 86.499338 
L 334.72927 86.045967 
L 334.879643 86.020734 
L 335.180388 85.802329 
L 335.330761 85.916442 
L 335.481134 85.858619 
L 335.631506 85.57961 
L 335.932251 84.183605 
L 336.082624 84.332332 
L 336.684115 83.506437 
L 336.98486 83.491975 
L 337.285605 83.332131 
L 337.586351 83.198272 
L 337.887096 82.757589 
L 338.338214 82.936255 
L 338.789332 82.806716 
L 338.939704 82.640579 
L 339.090077 82.857137 
L 339.24045 82.85621 
L 339.691568 82.458711 
L 339.84194 82.40869 
L 340.142686 82.165713 
L 340.293058 82.036367 
L 341.345667 82.378429 
L 341.646412 81.847289 
L 342.398275 81.212713 
L 342.548648 81.1791 
L 342.849393 81.267319 
L 343.150139 81.329519 
L 343.450884 80.904138 
L 344.503492 81.288103 
L 345.405728 81.723792 
L 345.856846 82.521106 
L 346.608709 82.496548 
L 346.759082 82.857425 
L 347.2102 83.069111 
L 347.360573 83.237328 
L 347.661318 83.139487 
L 347.962063 83.237733 
L 348.112436 83.403001 
L 348.563554 83.026227 
L 348.713926 83.014484 
L 350.368026 80.783148 
L 350.518398 80.793957 
L 350.668771 81.219363 
L 350.819144 80.985185 
L 350.969516 80.972202 
L 351.119889 81.146773 
L 351.571007 80.976989 
L 352.32287 79.84082 
L 352.623615 79.722253 
L 352.924361 79.55618 
L 353.225106 78.915184 
L 353.826596 78.036351 
L 354.127342 77.311227 
L 354.277714 77.19893 
L 354.879205 78.229147 
L 355.029578 78.16296 
L 355.17995 78.73477 
L 355.480696 78.696594 
L 355.631068 78.75162 
L 356.533304 78.054604 
L 356.834049 77.566711 
L 357.134795 77.523751 
L 357.285167 77.410344 
L 357.43554 77.471454 
L 357.585913 77.398842 
L 357.886658 76.98531 
L 358.638521 76.452973 
L 358.939266 76.928538 
L 359.089639 76.988719 
L 359.240012 76.838804 
L 359.540757 76.871173 
L 360.142248 75.978158 
L 360.593366 75.167157 
L 360.894111 74.904904 
L 361.345229 75.199674 
L 361.495601 75.147115 
L 362.247465 74.196561 
L 362.848955 73.545061 
L 363.149701 72.981355 
L 363.450446 72.705581 
L 363.751191 72.262143 
L 364.503054 72.187008 
L 365.104545 71.57586 
L 365.40529 71.403054 
L 365.856408 70.98393 
L 366.006781 71.164893 
L 366.157154 71.089575 
L 367.209762 69.536419 
L 367.360135 69.643293 
L 368.713489 67.899592 
L 369.314979 67.931913 
L 369.766097 68.707478 
L 370.066842 68.656755 
L 370.668333 67.95211 
L 371.269824 67.474015 
L 371.570569 67.603261 
L 372.021687 66.915551 
L 372.77355 66.569193 
L 373.074295 66.51529 
L 374.126904 65.109756 
L 374.427649 64.917632 
L 375.329885 63.926692 
L 376.081748 63.406395 
L 376.532866 62.858367 
L 376.683239 62.818468 
L 376.983984 62.932303 
L 377.435102 62.382275 
L 377.88622 62.054489 
L 378.036593 61.758973 
L 378.337338 60.8213 
L 378.638083 60.534345 
L 379.841064 60.008932 
L 379.991437 60.334997 
L 380.14181 60.316964 
L 380.442555 59.613448 
L 380.7433 59.329209 
L 381.495164 59.042205 
L 382.096654 58.311193 
L 382.698145 58.55518 
L 382.99889 58.560649 
L 383.299635 58.720947 
L 383.750753 58.015283 
L 384.201871 57.423623 
L 384.352244 57.328782 
L 384.652989 57.383788 
L 384.803362 57.197153 
L 384.953734 57.44101 
L 385.104107 57.380848 
L 385.555225 56.84031 
L 385.705598 56.751769 
L 386.156716 56.81868 
L 386.758206 55.884916 
L 387.058952 55.886613 
L 387.359697 56.276711 
L 387.660442 55.945625 
L 388.11156 56.388374 
L 388.412305 57.213326 
L 388.562678 57.399414 
L 388.713051 57.387485 
L 389.013796 56.979887 
L 389.314541 57.008641 
L 389.464914 57.0322 
L 389.765659 57.378197 
L 390.066404 57.01417 
L 390.517522 56.649437 
L 390.818268 57.013726 
L 391.119013 57.493542 
L 391.419758 56.968171 
L 391.570131 56.572453 
L 391.720504 56.863096 
L 392.171622 56.30019 
L 392.472367 56.164151 
L 392.622739 55.621484 
L 392.773112 55.757253 
L 393.073857 55.495618 
L 393.374603 55.489518 
L 393.675348 55.16583 
L 394.126466 55.229862 
L 394.577584 56.15286 
L 394.878329 57.31918 
L 395.028702 57.024539 
L 395.329447 56.97325 
L 395.47982 56.783656 
L 395.630192 56.059912 
L 395.780565 55.903089 
L 395.930938 56.002395 
L 396.08131 55.907106 
L 396.532428 55.043109 
L 396.682801 55.104727 
L 396.833174 54.998415 
L 397.284292 55.136031 
L 397.434664 55.133164 
L 397.885782 54.361705 
L 398.036155 54.352474 
L 398.487273 53.568 
L 398.487273 53.568 
" clip-path="url(#pa90150ff13)" style="fill: none; stroke: #1f77b4; stroke-opacity: 0.7; stroke-width: 1.5; stroke-linecap: square"/>
   </g>
   <g id="line2d_14">
    <path d="M 73.832727 173.79338 
L 74.434218 174.033157 
L 74.584591 173.708297 
L 74.734963 173.814234 
L 75.637199 175.156921 
L 75.787572 175.29837 
L 76.23869 176.126252 
L 76.539435 176.496119 
L 76.990553 176.851683 
L 77.291298 176.596834 
L 77.441671 176.66612 
L 77.742416 176.655846 
L 78.494279 177.627863 
L 78.795025 177.93347 
L 79.546888 177.255168 
L 79.998006 177.599947 
L 80.298751 177.497424 
L 80.599496 177.738602 
L 80.749869 177.653511 
L 81.200987 178.203362 
L 81.35136 178.174694 
L 81.95285 178.414048 
L 82.253596 178.325239 
L 82.403968 178.313307 
L 82.554341 178.109093 
L 82.704713 178.093298 
L 83.606949 178.752443 
L 83.907695 178.969735 
L 84.20844 179.176142 
L 85.110676 180.137584 
L 85.261048 180.116562 
L 85.561794 180.357164 
L 85.862539 180.699273 
L 86.163284 180.828229 
L 86.313657 181.079927 
L 86.46403 181.012742 
L 87.06552 181.34838 
L 87.366266 181.414398 
L 87.516638 181.438028 
L 87.817383 181.777944 
L 88.118129 182.011801 
L 89.020365 181.767743 
L 89.471483 182.137861 
L 89.621855 182.113089 
L 89.772228 181.942516 
L 90.223346 182.336884 
L 90.524091 182.475336 
L 90.824836 182.329816 
L 90.975209 182.437388 
L 91.275954 182.260374 
L 91.727072 182.491234 
L 92.478936 183.056985 
L 92.779681 183.214059 
L 93.230799 183.450274 
L 93.531544 183.283361 
L 93.681917 183.338259 
L 93.982662 183.20717 
L 94.43378 183.537401 
L 95.035271 183.975881 
L 95.336016 183.841637 
L 95.937506 184.212945 
L 96.388624 184.499877 
L 97.140488 184.886942 
L 98.644214 185.281644 
L 99.245705 185.83408 
L 99.847195 186.060683 
L 100.147941 186.341793 
L 100.448686 186.414921 
L 100.749431 186.539744 
L 100.899804 186.552668 
L 101.200549 186.41854 
L 102.704276 186.170159 
L 103.756884 186.775407 
L 105.561356 187.77259 
L 105.862101 187.901478 
L 106.313219 188.174878 
L 106.764337 188.000498 
L 107.065082 187.926818 
L 108.268063 188.60324 
L 108.568809 188.706226 
L 109.320672 189.142564 
L 109.621417 189.108684 
L 110.072535 189.400697 
L 110.974771 189.622149 
L 111.726634 190.005425 
L 112.02738 189.846815 
L 113.380734 190.570709 
L 114.734087 190.975218 
L 115.185205 191.091739 
L 116.237814 191.61326 
L 116.538559 191.708352 
L 116.839304 191.783799 
L 117.891913 190.988095 
L 118.192658 191.152042 
L 118.643776 191.078207 
L 119.094894 191.321493 
L 119.846757 191.648426 
L 120.297875 191.701631 
L 120.598621 191.63401 
L 121.049739 191.867389 
L 121.350484 192.000756 
L 121.651229 191.871055 
L 123.154956 192.681491 
L 123.606074 192.77227 
L 125.861663 193.62658 
L 126.162409 193.657745 
L 127.215017 194.035957 
L 127.666135 194.145225 
L 128.117253 194.26507 
L 128.568371 194.226973 
L 129.320234 194.541148 
L 129.921725 194.679564 
L 130.673588 194.992301 
L 131.124706 195.107315 
L 132.327687 195.688201 
L 134.282531 196.008983 
L 134.884022 196.212811 
L 135.184767 196.311494 
L 135.936631 196.650752 
L 136.387749 196.707362 
L 137.289984 196.879202 
L 139.545574 197.844409 
L 140.147065 198.029999 
L 140.748555 198.241803 
L 142.101909 198.505898 
L 143.906381 199.496466 
L 144.207126 199.82779 
L 144.507871 199.921137 
L 144.808617 199.806032 
L 145.109362 200.016973 
L 147.214579 200.788238 
L 147.515324 200.622631 
L 147.966442 200.773642 
L 148.267188 200.762828 
L 148.718306 201.009807 
L 149.319796 201.488476 
L 149.620541 201.551093 
L 150.372405 202.190507 
L 150.67315 202.708431 
L 150.823523 202.38491 
L 150.973895 202.629287 
L 151.124268 202.606995 
L 151.425013 202.324846 
L 151.575386 202.311903 
L 151.725759 202.621948 
L 152.026504 202.519344 
L 152.327249 202.684141 
L 152.627994 203.050955 
L 152.778367 203.031863 
L 152.92874 202.873367 
L 153.229485 202.961044 
L 153.379858 202.734871 
L 153.53023 202.772398 
L 153.680603 202.553115 
L 153.830976 202.535997 
L 153.981348 202.815136 
L 154.733212 202.938477 
L 155.033957 202.902331 
L 155.184329 202.971796 
L 155.485075 202.892335 
L 156.236938 203.37759 
L 157.289547 204.024475 
L 157.590292 203.919082 
L 157.740664 203.968134 
L 158.191782 203.702407 
L 158.943646 204.145389 
L 159.695509 203.996276 
L 160.597745 203.888418 
L 161.499981 204.419823 
L 162.101471 204.459647 
L 162.251844 204.460069 
L 162.702962 204.722131 
L 163.003707 204.750208 
L 164.056316 204.672575 
L 164.206688 204.447249 
L 164.357061 204.438307 
L 164.507434 204.307603 
L 165.860787 204.688809 
L 166.161533 204.669777 
L 167.214141 205.078247 
L 167.514887 205.087932 
L 167.966004 205.066635 
L 168.567495 205.162871 
L 168.717868 205.168177 
L 169.168986 205.71304 
L 169.620104 205.739254 
L 170.071222 205.859911 
L 170.973457 205.918739 
L 171.274203 205.996761 
L 172.627557 206.034866 
L 173.229047 205.779486 
L 173.529792 205.818888 
L 174.432028 206.289243 
L 175.033519 206.345192 
L 175.484637 206.556677 
L 176.2365 206.590065 
L 176.687618 206.610755 
L 176.837991 206.508823 
L 178.943208 207.226057 
L 179.394326 207.326184 
L 180.597307 207.914057 
L 181.048425 208.177863 
L 181.800288 208.440394 
L 182.852897 208.531615 
L 183.454387 208.95903 
L 184.20625 208.934063 
L 185.709977 209.614852 
L 186.762585 209.53388 
L 187.213703 209.661861 
L 188.266312 209.286749 
L 188.71743 209.536448 
L 189.018175 209.637558 
L 189.31892 209.420579 
L 189.619666 209.363021 
L 189.770038 208.757579 
L 190.672274 209.075245 
L 190.973019 209.414297 
L 192.025628 209.816064 
L 192.326373 209.713891 
L 193.228609 210.197924 
L 194.581963 210.585314 
L 195.183454 210.630911 
L 195.484199 210.785569 
L 195.784944 210.76724 
L 196.837553 211.241698 
L 197.138298 211.499673 
L 197.589416 211.722409 
L 197.890161 211.784971 
L 198.491652 212.17576 
L 198.792397 211.965128 
L 198.94277 211.999257 
L 199.243515 212.325173 
L 199.54426 212.336448 
L 199.995378 212.581971 
L 200.897614 212.500899 
L 201.499105 212.805188 
L 201.950223 213.080282 
L 202.250968 213.062764 
L 202.551713 213.199159 
L 203.153204 213.346135 
L 203.453949 213.353319 
L 203.754695 213.408645 
L 204.356185 213.595525 
L 204.807303 213.439524 
L 205.408794 213.632836 
L 206.160657 213.553331 
L 206.762147 213.665684 
L 207.062893 213.7152 
L 208.416247 214.058214 
L 209.318482 213.995431 
L 209.919973 214.22494 
L 210.220718 214.386673 
L 210.371091 214.67547 
L 210.972582 214.968795 
L 211.122954 215.122714 
L 211.4237 215.082707 
L 213.679289 215.876375 
L 213.980035 215.83319 
L 215.183016 215.977844 
L 215.934879 216.246003 
L 216.085252 215.995736 
L 217.13786 216.162025 
L 218.491214 216.690977 
L 218.641587 216.724205 
L 218.942332 216.645541 
L 219.39345 216.76572 
L 220.145313 217.03316 
L 220.746804 217.092406 
L 221.949785 217.713135 
L 222.551275 217.747748 
L 222.852021 217.789694 
L 223.904629 218.523404 
L 224.656492 218.747811 
L 225.408356 218.996049 
L 225.558728 219.358672 
L 225.709101 219.41944 
L 225.859474 219.331099 
L 226.160219 219.516943 
L 226.460964 219.646961 
L 226.76171 219.89912 
L 227.062455 219.866336 
L 227.964691 220.646502 
L 228.265436 220.627753 
L 228.415809 220.800635 
L 228.566181 220.787421 
L 228.716554 220.479678 
L 228.866927 220.448191 
L 229.167672 220.722137 
L 229.318045 221.084265 
L 229.468417 220.976859 
L 229.769162 221.190613 
L 229.919535 221.050912 
L 230.370653 221.283947 
L 230.521026 221.121723 
L 231.272889 221.388992 
L 231.573634 221.543395 
L 231.87438 222.343846 
L 232.325497 222.608286 
L 232.47587 222.478797 
L 232.626243 222.678073 
L 232.776615 222.631524 
L 233.077361 223.007823 
L 233.227733 223.437491 
L 233.378106 223.462376 
L 234.129969 224.340767 
L 234.430715 225.125992 
L 234.581087 225.021106 
L 235.182578 227.059381 
L 235.33295 226.971314 
L 235.784068 225.606453 
L 236.084814 226.736132 
L 236.385559 226.206777 
L 236.535932 226.163353 
L 236.686304 226.298203 
L 236.836677 226.246968 
L 236.98705 226.057999 
L 237.137422 225.037625 
L 237.287795 225.445677 
L 237.438168 225.317325 
L 237.889285 225.592986 
L 238.039658 225.218018 
L 238.340403 225.985083 
L 238.490776 226.039855 
L 238.641149 225.841713 
L 238.791521 225.94475 
L 239.092267 226.892006 
L 239.242639 226.841286 
L 239.543385 227.431441 
L 239.693757 227.420384 
L 239.84413 228.941755 
L 239.994503 229.067487 
L 240.144875 228.810006 
L 240.295248 229.47139 
L 240.595993 229.41511 
L 240.746366 229.79133 
L 240.896738 229.698737 
L 241.047111 229.970823 
L 241.197484 230.648483 
L 241.347856 230.612808 
L 241.498229 231.520102 
L 241.648602 231.632058 
L 241.798974 231.997012 
L 241.949347 231.375212 
L 242.09972 230.242283 
L 242.250092 230.389316 
L 242.550838 229.778033 
L 242.70121 229.715846 
L 242.851583 229.436279 
L 243.001955 230.314902 
L 243.152328 230.128615 
L 243.302701 230.649414 
L 243.453073 230.31509 
L 243.753819 230.510783 
L 244.355309 232.250185 
L 244.505682 232.693417 
L 244.656055 232.667443 
L 244.806427 233.484467 
L 244.9568 233.158077 
L 245.107173 232.470447 
L 245.257545 232.615689 
L 245.407918 233.120422 
L 245.55829 232.984025 
L 245.859036 233.106393 
L 246.009408 232.944023 
L 246.159781 232.284658 
L 246.310154 232.300099 
L 246.610899 231.629302 
L 246.911644 232.558238 
L 247.062017 232.63003 
L 247.362762 233.368207 
L 247.81388 233.574581 
L 247.964253 233.224579 
L 248.264998 233.578095 
L 248.415371 233.476708 
L 248.565743 233.02289 
L 248.716116 233.438499 
L 248.866489 233.501052 
L 249.167234 234.062811 
L 249.317607 234.046246 
L 249.467979 234.811642 
L 249.618352 234.808521 
L 249.768725 234.929074 
L 250.06947 234.449962 
L 250.219843 233.516504 
L 250.370215 233.370685 
L 250.520588 233.473205 
L 251.272451 231.461489 
L 251.573196 232.743493 
L 251.723569 232.780811 
L 251.873942 232.564293 
L 252.024314 233.456894 
L 252.174687 233.55613 
L 252.32506 233.390883 
L 252.475432 233.533894 
L 252.625805 232.783879 
L 252.776178 233.623682 
L 252.92655 233.4944 
L 253.377668 234.126956 
L 253.528041 233.664865 
L 253.678413 233.833671 
L 253.828786 232.356333 
L 254.129531 232.534147 
L 254.279904 231.984805 
L 254.430277 231.861987 
L 254.881395 229.714281 
L 255.031767 230.475495 
L 255.18214 229.853416 
L 255.332513 230.004081 
L 255.482885 229.534956 
L 255.633258 230.376154 
L 255.78363 230.420375 
L 255.934003 230.711394 
L 256.084376 230.64079 
L 256.385121 229.927182 
L 256.535494 229.880719 
L 256.685866 230.329826 
L 256.836239 230.298812 
L 256.986612 230.533892 
L 257.136984 230.978874 
L 257.43773 230.346962 
L 257.588102 230.430549 
L 257.738475 230.065321 
L 257.888848 230.00472 
L 258.03922 230.762142 
L 258.189593 230.743178 
L 258.339965 230.987829 
L 258.490338 230.733488 
L 258.791083 231.869406 
L 258.941456 232.019233 
L 259.091829 231.647469 
L 259.242201 231.628631 
L 259.392574 231.203994 
L 259.693319 231.241558 
L 259.843692 230.524189 
L 259.994065 230.685511 
L 260.29481 231.356255 
L 260.445183 230.842285 
L 260.595555 230.91549 
L 260.745928 231.538789 
L 260.8963 231.602845 
L 261.046673 232.012614 
L 261.197046 231.955082 
L 261.347418 231.718035 
L 261.497791 231.785473 
L 261.798536 232.298658 
L 261.948909 232.091832 
L 262.249654 232.222667 
L 262.400027 232.063224 
L 262.851145 232.583996 
L 263.753381 232.035995 
L 263.903753 232.206394 
L 264.054126 232.118411 
L 264.204499 231.805913 
L 264.655617 232.720188 
L 264.956362 233.269267 
L 265.40748 234.561961 
L 265.557853 234.629468 
L 265.708225 235.125696 
L 265.858598 235.112002 
L 266.309716 234.285849 
L 266.610461 234.912102 
L 266.911206 235.897283 
L 267.061579 235.848205 
L 267.211952 236.39762 
L 267.66307 236.154091 
L 267.813442 236.860137 
L 267.963815 236.831087 
L 268.114188 236.935923 
L 268.26456 236.835559 
L 268.414933 236.567649 
L 268.565305 236.554067 
L 269.016423 237.642879 
L 269.317169 237.911841 
L 269.467541 237.575534 
L 269.617914 237.826461 
L 269.768287 237.523854 
L 270.069032 237.996463 
L 270.219405 238.097996 
L 270.369777 237.847609 
L 270.52015 237.864369 
L 270.971268 238.637765 
L 271.12164 238.73651 
L 271.422386 239.45283 
L 271.572758 238.363887 
L 271.723131 238.12449 
L 271.873504 238.142372 
L 272.174249 237.92451 
L 272.324622 238.21992 
L 272.474994 238.107254 
L 272.77574 238.850768 
L 273.076485 238.855201 
L 273.226858 239.107329 
L 273.37723 239.015006 
L 273.677975 237.594281 
L 273.978721 238.474141 
L 274.129093 238.165465 
L 274.279466 238.22209 
L 274.429839 238.443299 
L 274.880957 238.220131 
L 275.332075 239.831472 
L 275.63282 240.279414 
L 275.933565 241.775171 
L 276.083938 241.565254 
L 276.535056 241.909274 
L 276.685428 242.473077 
L 276.835801 242.29549 
L 277.136546 242.688251 
L 277.286919 243.569126 
L 277.437292 243.545522 
L 277.738037 244.023272 
L 278.038782 245.0484 
L 278.339528 244.029563 
L 278.640273 244.134707 
L 278.790646 244.516851 
L 279.091391 243.686463 
L 279.542509 244.559758 
L 279.843254 244.501719 
L 279.993627 244.98988 
L 280.143999 245.062002 
L 280.444745 244.757772 
L 280.595117 244.790547 
L 280.74549 245.203195 
L 280.895863 246.204836 
L 281.046235 246.198999 
L 281.196608 245.915471 
L 281.647726 245.941826 
L 281.798098 246.180695 
L 281.948471 245.911165 
L 282.098844 245.170777 
L 282.249216 245.100603 
L 282.399589 244.396835 
L 282.549962 244.597884 
L 282.700334 245.049152 
L 282.850707 244.970835 
L 283.00108 244.559167 
L 283.151452 244.746197 
L 283.301825 244.604908 
L 283.452198 244.781786 
L 283.60257 244.142093 
L 283.752943 244.342688 
L 284.053688 245.21833 
L 284.204061 245.181865 
L 284.354433 245.268846 
L 284.504806 245.209772 
L 284.955924 243.710676 
L 285.256669 244.245088 
L 285.407042 244.334597 
L 285.707787 243.700192 
L 286.008533 244.364687 
L 286.309278 243.62726 
L 286.459651 244.071709 
L 286.910768 243.74948 
L 287.211514 244.017414 
L 287.361886 244.572838 
L 287.512259 244.63945 
L 287.813004 245.352526 
L 288.264122 245.592134 
L 288.564868 244.713436 
L 289.316731 244.950453 
L 289.467103 244.810086 
L 289.617476 244.250939 
L 289.767849 244.145926 
L 290.068594 243.323458 
L 290.519712 243.89417 
L 290.670085 244.275606 
L 290.820457 244.122594 
L 291.271575 244.592501 
L 291.421948 244.462534 
L 291.722693 244.500399 
L 291.873066 244.134773 
L 292.173811 242.78786 
L 292.474556 243.551317 
L 292.775302 243.823741 
L 292.925674 243.930226 
L 293.22642 244.402308 
L 293.527165 244.640093 
L 293.677538 244.826554 
L 293.82791 244.587662 
L 293.978283 244.597621 
L 294.128656 245.628826 
L 294.279028 245.741104 
L 294.730146 246.689809 
L 294.880519 246.779653 
L 295.331637 246.387291 
L 295.632382 246.554209 
L 295.782755 247.096996 
L 295.933127 247.101936 
L 296.233873 246.378715 
L 296.384245 246.338765 
L 296.684991 245.777295 
L 296.835363 245.920534 
L 296.985736 245.848658 
L 297.436854 246.619831 
L 297.587226 246.436691 
L 297.887972 247.980364 
L 298.038344 248.021708 
L 298.188717 247.822713 
L 298.33909 247.18744 
L 298.489462 247.283718 
L 298.790208 247.182147 
L 298.94058 247.3716 
L 299.090953 248.175831 
L 299.241326 247.776601 
L 299.391698 247.747063 
L 299.542071 247.878054 
L 299.692443 247.796371 
L 300.143561 248.715907 
L 300.293934 248.81186 
L 300.594679 249.338117 
L 300.895425 249.192833 
L 301.496915 250.320751 
L 301.647288 250.46012 
L 301.948033 251.186288 
L 302.248778 251.436158 
L 302.399151 251.156534 
L 303.000642 251.550337 
L 303.151014 251.378221 
L 303.301387 250.82798 
L 303.45176 250.840214 
L 303.602132 250.723815 
L 303.902878 250.819685 
L 304.05325 250.278836 
L 304.203623 250.339617 
L 304.353996 250.690437 
L 304.504368 250.569175 
L 304.805113 250.912963 
L 304.955486 250.902672 
L 305.406604 251.520006 
L 306.008095 251.254705 
L 306.158467 251.38228 
L 306.30884 251.035147 
L 306.759958 251.294604 
L 307.060703 251.253419 
L 307.211076 251.405264 
L 307.361448 251.382511 
L 307.511821 251.840929 
L 307.662194 251.334641 
L 308.113312 250.973955 
L 308.263684 249.382572 
L 308.414057 249.827675 
L 308.56443 249.540227 
L 309.16592 250.757931 
L 309.316293 250.599265 
L 309.466666 250.768071 
L 309.617038 250.562628 
L 309.767411 250.801458 
L 309.917783 250.719901 
L 310.368901 251.146605 
L 310.820019 251.527307 
L 311.120765 251.415608 
L 311.271137 251.69607 
L 311.571883 252.472742 
L 311.722255 252.207523 
L 311.872628 252.390034 
L 312.173373 252.442672 
L 312.323746 252.568166 
L 312.624491 253.023345 
L 313.075609 252.783371 
L 313.376354 252.215852 
L 313.6771 251.269644 
L 313.827472 252.229163 
L 313.977845 251.926223 
L 314.128218 252.002803 
L 314.27859 251.854448 
L 314.880081 252.303236 
L 315.331199 252.973068 
L 315.631944 253.017216 
L 316.383807 252.827526 
L 316.53418 252.883293 
L 316.834925 253.37199 
L 317.436416 254.269605 
L 318.037906 253.867078 
L 318.489024 254.481134 
L 318.639397 254.549421 
L 318.940142 255.285847 
L 319.39126 255.512331 
L 319.992751 255.36839 
L 320.443869 256.245974 
L 320.744614 256.306525 
L 321.346105 256.463113 
L 322.699459 257.985067 
L 323.000204 258.085016 
L 323.150576 258.075683 
L 323.451322 257.879906 
L 323.601694 257.367039 
L 323.752067 257.369902 
L 324.203185 257.855961 
L 324.50393 258.073495 
L 324.955048 257.772809 
L 325.105421 256.876342 
L 325.255794 256.926106 
L 325.706911 257.419823 
L 326.007657 257.525509 
L 326.158029 257.642503 
L 326.308402 257.491898 
L 326.458775 256.771895 
L 326.609147 256.933099 
L 326.909893 257.722951 
L 327.210638 258.122719 
L 327.361011 257.845944 
L 327.812129 257.899634 
L 327.962501 258.124963 
L 328.563992 258.070728 
L 328.864737 258.587271 
L 329.165482 258.746492 
L 329.766973 259.515614 
L 330.067718 259.663445 
L 330.218091 259.658587 
L 330.368464 259.78366 
L 330.669209 260.196708 
L 330.969954 260.227661 
L 331.270699 260.35838 
L 332.473681 261.184827 
L 332.924799 261.389808 
L 333.075171 261.420533 
L 333.676662 262.170392 
L 333.827034 262.458687 
L 333.977407 262.505466 
L 334.428525 262.941415 
L 335.030016 262.999 
L 335.330761 263.518436 
L 335.631506 263.633879 
L 335.781879 263.316802 
L 335.932251 262.612821 
L 336.383369 262.895106 
L 336.684115 263.11689 
L 336.98486 263.427403 
L 337.586351 263.538494 
L 337.736723 263.439756 
L 337.887096 262.709381 
L 338.187841 263.093451 
L 338.789332 263.330167 
L 338.939704 263.38319 
L 339.24045 263.789068 
L 339.541195 264.034563 
L 340.593804 264.817212 
L 341.345667 265.501181 
L 341.646412 265.397459 
L 342.548648 266.103094 
L 343.300511 266.568443 
L 343.450884 266.55957 
L 345.405728 268.491716 
L 346.007219 269.653256 
L 346.307964 269.805318 
L 346.458337 269.745294 
L 346.608709 269.832924 
L 346.909455 270.466503 
L 347.661318 271.04952 
L 348.413181 271.152194 
L 348.713926 271.502508 
L 349.014672 271.45304 
L 349.315417 271.220503 
L 349.616162 271.370003 
L 349.916908 271.051095 
L 350.06728 271.004803 
L 350.368026 271.141993 
L 350.518398 271.232223 
L 350.668771 271.804712 
L 350.819144 271.800828 
L 351.119889 272.293302 
L 351.420634 272.486016 
L 351.721379 272.537272 
L 352.022125 272.417657 
L 352.172497 272.357912 
L 352.924361 272.821848 
L 353.375479 272.621559 
L 353.676224 272.540659 
L 353.826596 272.34209 
L 354.127342 271.719412 
L 354.277714 271.725929 
L 354.728832 272.993572 
L 354.879205 273.016887 
L 355.029578 273.201985 
L 355.17995 273.795966 
L 355.330323 273.843281 
L 355.631068 274.292403 
L 355.781441 274.418199 
L 355.931814 274.281137 
L 356.082186 274.497118 
L 356.382931 274.475873 
L 356.533304 274.583928 
L 356.834049 274.543924 
L 357.134795 274.854826 
L 357.43554 275.123472 
L 357.886658 274.995875 
L 358.187403 275.153882 
L 358.638521 275.110503 
L 358.939266 275.783646 
L 359.69113 276.242015 
L 359.841502 276.104504 
L 359.991875 276.272239 
L 360.593366 275.696023 
L 361.194856 276.195524 
L 361.495601 276.666694 
L 361.796347 276.896521 
L 361.946719 276.757652 
L 362.097092 276.82349 
L 362.54821 277.384743 
L 362.848955 277.351706 
L 363.149701 277.089136 
L 363.450446 276.878489 
L 363.901564 276.67594 
L 364.352682 277.09685 
L 365.104545 277.251365 
L 365.254918 277.469284 
L 365.555663 277.414189 
L 365.856408 277.775695 
L 366.006781 278.167145 
L 367.059389 278.649486 
L 367.209762 278.508319 
L 367.360135 278.784566 
L 367.510507 278.740354 
L 367.811253 279.049341 
L 368.111998 279.012368 
L 368.412743 279.189436 
L 368.563116 279.066174 
L 368.713489 279.089464 
L 369.014234 279.562184 
L 369.314979 279.820784 
L 369.766097 280.867845 
L 370.066842 281.199966 
L 370.969078 281.512941 
L 371.720942 281.759064 
L 371.871314 281.582305 
L 372.472805 281.789522 
L 372.923923 282.240645 
L 373.525413 281.987638 
L 373.826159 281.869888 
L 374.578022 281.911085 
L 374.728394 281.827442 
L 375.781003 282.180944 
L 376.232121 282.185099 
L 376.683239 282.123256 
L 376.983984 282.480539 
L 377.435102 282.740834 
L 378.036593 282.697527 
L 378.337338 282.035093 
L 378.487711 281.874937 
L 378.788456 282.159793 
L 379.089201 282.114846 
L 379.540319 282.262295 
L 379.690692 282.219613 
L 379.841064 282.362531 
L 379.991437 282.83645 
L 380.14181 282.886279 
L 380.442555 282.676301 
L 380.592928 282.659211 
L 380.893673 282.925728 
L 381.194418 282.778993 
L 381.645536 283.051111 
L 381.795909 283.176565 
L 381.946282 282.998677 
L 382.247027 283.325783 
L 382.547772 283.642866 
L 382.99889 283.799534 
L 383.299635 284.154767 
L 383.600381 284.09174 
L 383.901126 284.085217 
L 384.051499 284.059912 
L 384.803362 284.790943 
L 384.953734 285.13891 
L 385.25448 285.300111 
L 385.705598 285.685364 
L 386.156716 285.984414 
L 386.908579 285.890217 
L 387.058952 286.088517 
L 387.359697 286.61944 
L 387.660442 286.954515 
L 387.961187 287.472795 
L 388.11156 287.623556 
L 388.412305 288.665615 
L 388.562678 288.92446 
L 389.013796 289.02698 
L 389.615287 289.684115 
L 390.517522 289.861246 
L 391.269386 290.704838 
L 391.419758 290.639272 
L 391.570131 290.38496 
L 391.720504 290.77513 
L 391.870876 290.554283 
L 392.321994 291.085028 
L 392.472367 291.240101 
L 392.622739 291.031867 
L 393.073857 291.617499 
L 393.374603 291.803085 
L 393.524975 291.805489 
L 394.427211 292.93437 
L 394.878329 294.079922 
L 395.028702 294.08 
L 395.329447 294.35326 
L 395.47982 294.371748 
L 395.630192 293.853265 
L 395.780565 293.842724 
L 396.08131 294.403196 
L 396.231683 294.312673 
L 396.833174 294.604916 
L 397.133919 295.208258 
L 397.434664 295.414318 
L 397.585037 295.303779 
L 397.735409 295.435975 
L 397.885782 295.346493 
L 398.036155 295.488 
L 398.487273 295.288718 
L 398.487273 295.288718 
" clip-path="url(#pa90150ff13)" style="fill: none; stroke: #ff7f0e; stroke-opacity: 0.7; stroke-width: 1.5; stroke-linecap: square"/>
   </g>
   <g id="line2d_15">
    <path d="M 73.832727 173.889909 
L 74.133473 173.731023 
L 74.434218 173.769468 
L 74.584591 173.445005 
L 75.035708 173.977206 
L 75.336454 174.306614 
L 75.486826 174.267152 
L 76.539435 175.468662 
L 76.84018 175.591466 
L 77.291298 175.1566 
L 77.742416 175.044984 
L 78.193534 175.38943 
L 78.343907 175.406723 
L 78.795025 175.786032 
L 79.546888 174.996509 
L 79.847633 175.096825 
L 79.998006 175.112079 
L 80.298751 174.885439 
L 80.599496 174.888152 
L 80.749869 174.826264 
L 81.200987 175.284489 
L 81.501732 175.262961 
L 81.652105 175.353782 
L 82.403968 174.971091 
L 82.704713 174.76811 
L 83.005459 174.805569 
L 83.155831 174.952728 
L 83.456577 174.880175 
L 83.757322 174.893043 
L 85.411421 175.797591 
L 85.712166 176.030011 
L 86.012912 176.202949 
L 86.163284 176.190974 
L 86.313657 176.422404 
L 86.764775 176.32753 
L 87.366266 176.335192 
L 87.516638 176.316124 
L 87.817383 176.539405 
L 88.118129 176.710477 
L 88.569247 176.457936 
L 88.719619 176.438344 
L 89.020365 176.224401 
L 89.32111 176.340376 
L 89.621855 176.25757 
L 89.772228 176.101098 
L 90.072973 176.18397 
L 90.373718 176.357204 
L 91.426327 175.944788 
L 92.027818 176.145105 
L 92.478936 176.289424 
L 92.779681 176.337047 
L 93.080426 176.480337 
L 93.230799 176.449497 
L 93.531544 176.22862 
L 94.283407 176.083373 
L 94.734525 176.237258 
L 95.035271 176.289754 
L 95.336016 176.095755 
L 97.29086 176.548168 
L 97.741978 176.66925 
L 98.042723 176.527225 
L 98.644214 176.561481 
L 98.944959 176.890588 
L 99.245705 177.176126 
L 99.847195 177.332942 
L 99.997568 177.615973 
L 100.749431 177.604591 
L 101.050176 177.46745 
L 102.553903 176.885402 
L 102.854648 176.895966 
L 103.907257 177.181355 
L 104.508747 177.276709 
L 104.959865 177.427693 
L 105.260611 177.540361 
L 105.561356 177.600976 
L 105.862101 177.664853 
L 106.313219 177.860246 
L 106.764337 177.656663 
L 107.065082 177.548389 
L 109.471045 177.957905 
L 109.77179 177.991739 
L 110.523653 178.029792 
L 110.974771 178.041001 
L 111.877007 178.107957 
L 112.177752 178.058636 
L 112.62887 178.2084 
L 112.929616 178.249818 
L 113.230361 178.257924 
L 113.982224 178.48233 
L 115.185205 178.579941 
L 116.839304 178.854863 
L 117.591168 178.359628 
L 117.891913 178.144899 
L 118.192658 178.173926 
L 118.944521 177.990809 
L 119.245267 178.173797 
L 121.049739 178.116713 
L 121.350484 178.162241 
L 121.651229 178.037661 
L 122.102347 178.28501 
L 122.703838 178.488381 
L 123.305328 178.479275 
L 123.756446 178.498464 
L 125.560918 178.704018 
L 126.312781 178.676832 
L 127.215017 178.714424 
L 127.816508 178.756997 
L 128.267626 178.733721 
L 128.718744 178.70639 
L 129.620979 178.814319 
L 129.921725 178.830136 
L 130.372843 178.997773 
L 130.974333 179.042807 
L 132.628432 179.459096 
L 133.831414 179.408697 
L 134.884022 179.606729 
L 135.33514 179.758165 
L 136.237376 179.957942 
L 136.989239 179.947719 
L 137.891475 180.325024 
L 138.19222 180.723599 
L 138.643338 180.899266 
L 139.094456 181.006443 
L 140.898928 181.18785 
L 141.199673 181.280916 
L 141.500419 181.208628 
L 142.7034 181.447733 
L 143.004145 181.472537 
L 143.30489 181.533005 
L 143.605636 181.778819 
L 143.906381 182.199105 
L 144.357499 182.567462 
L 144.808617 182.33918 
L 145.109362 182.521178 
L 145.861225 182.556592 
L 146.312343 182.891035 
L 148.567933 182.702973 
L 149.169424 183.033212 
L 149.319796 183.128536 
L 149.620541 183.108575 
L 149.921287 183.346077 
L 150.071659 183.652272 
L 150.372405 183.766734 
L 150.522777 183.927017 
L 150.67315 184.346328 
L 150.823523 184.103525 
L 150.973895 184.324999 
L 151.124268 184.237712 
L 151.425013 183.898405 
L 151.575386 183.886038 
L 151.725759 184.145446 
L 152.026504 183.962225 
L 152.327249 184.04823 
L 152.627994 184.342517 
L 152.778367 184.287381 
L 152.92874 184.095825 
L 153.079112 184.167714 
L 153.229485 184.101233 
L 153.379858 183.840416 
L 153.53023 183.898566 
L 153.680603 183.631196 
L 153.830976 183.613836 
L 153.981348 183.823013 
L 154.582839 183.851331 
L 154.883584 183.680899 
L 155.78582 183.588914 
L 156.236938 183.921114 
L 157.139174 184.385742 
L 157.289547 184.369546 
L 157.590292 184.220638 
L 157.740664 184.199374 
L 158.191782 183.864832 
L 158.943646 184.069795 
L 159.244391 183.870356 
L 159.695509 183.792038 
L 160.146627 183.649378 
L 160.447372 183.525501 
L 160.748117 183.59965 
L 161.048863 183.8512 
L 161.499981 183.859411 
L 162.101471 183.758874 
L 162.402217 183.805052 
L 163.003707 183.845109 
L 164.056316 183.593439 
L 164.357061 183.291693 
L 164.657806 183.167714 
L 165.860787 183.267811 
L 166.161533 183.221156 
L 166.913396 183.344201 
L 168.86824 183.306914 
L 169.168986 183.57959 
L 169.920849 183.479811 
L 170.823085 183.490187 
L 171.12383 183.33247 
L 171.424575 183.336601 
L 172.477184 183.178244 
L 173.529792 182.733122 
L 174.432028 182.954541 
L 174.883146 182.879607 
L 175.785382 182.961389 
L 176.2365 182.932428 
L 176.687618 182.848767 
L 176.837991 182.740387 
L 177.289109 182.847143 
L 178.040972 182.95076 
L 178.49209 182.967838 
L 178.792835 183.038839 
L 179.243953 182.944584 
L 179.845444 183.18994 
L 180.146189 183.374918 
L 180.446934 183.361456 
L 182.251406 183.619943 
L 182.702524 183.484805 
L 183.003269 183.594351 
L 183.304014 183.733547 
L 183.755132 183.724947 
L 184.356623 183.660389 
L 184.958114 183.91575 
L 186.311467 183.930983 
L 186.762585 183.779599 
L 187.213703 183.779942 
L 188.115939 183.328786 
L 188.867802 183.566266 
L 189.018175 183.552192 
L 189.31892 183.283851 
L 189.619666 183.20773 
L 189.770038 182.587664 
L 189.920411 182.648842 
L 190.221156 182.623937 
L 190.521902 182.596932 
L 190.672274 182.621874 
L 190.973019 182.88242 
L 192.176001 182.960401 
L 192.326373 182.868594 
L 193.078237 183.149744 
L 194.43159 183.233793 
L 195.333826 183.270336 
L 195.634572 183.216072 
L 195.935317 183.213882 
L 196.386435 183.415899 
L 196.837553 183.541158 
L 196.987925 183.756086 
L 198.040534 183.959511 
L 198.341279 184.195683 
L 198.491652 184.146911 
L 198.792397 183.880259 
L 199.093142 184.000953 
L 199.243515 184.119036 
L 199.54426 184.054644 
L 199.995378 184.15255 
L 201.047987 183.872308 
L 202.100595 184.113778 
L 203.453949 184.069729 
L 205.108048 183.943272 
L 205.408794 183.915731 
L 206.160657 183.730146 
L 206.762147 183.701559 
L 207.213265 183.702407 
L 208.566619 183.628031 
L 209.16811 183.511872 
L 209.619228 183.596196 
L 210.220718 183.754218 
L 210.371091 184.020711 
L 210.822209 184.081613 
L 211.122954 184.267966 
L 211.4237 184.144142 
L 211.724445 184.228114 
L 212.175563 184.2906 
L 212.777053 184.307693 
L 213.679289 184.492005 
L 214.130407 184.354071 
L 215.483761 184.319353 
L 215.934879 184.322322 
L 216.085252 184.046394 
L 217.889723 184.165328 
L 218.340841 184.258643 
L 218.641587 184.283221 
L 218.942332 184.14363 
L 219.243077 184.141505 
L 220.446058 184.127751 
L 220.746804 184.122857 
L 221.047549 184.176949 
L 221.348294 184.223927 
L 222.100157 184.502022 
L 222.852021 184.391771 
L 223.152766 184.536288 
L 223.453511 184.827495 
L 223.904629 184.913636 
L 224.656492 184.955527 
L 225.408356 185.131096 
L 225.558728 185.468885 
L 225.709101 185.484123 
L 225.859474 185.334233 
L 226.009846 185.448536 
L 226.460964 185.462036 
L 226.76171 185.669926 
L 227.062455 185.565405 
L 227.814318 186.280938 
L 227.964691 186.558227 
L 228.265436 186.491017 
L 228.566181 186.712519 
L 228.716554 186.364131 
L 228.866927 186.315354 
L 229.167672 186.518344 
L 229.318045 186.832966 
L 229.468417 186.719314 
L 229.769162 186.830389 
L 229.919535 186.652299 
L 230.370653 186.736976 
L 230.521026 186.534529 
L 230.821771 186.487294 
L 230.972144 186.411638 
L 231.423262 186.688303 
L 231.573634 186.727553 
L 232.024752 187.689148 
L 232.175125 187.728955 
L 232.47587 187.464137 
L 232.626243 187.634665 
L 232.776615 187.536446 
L 232.926988 187.614287 
L 233.077361 187.820317 
L 233.227733 188.380372 
L 233.678851 188.741049 
L 234.430715 190.4612 
L 234.581087 190.257338 
L 235.182578 191.683829 
L 235.483323 191.008816 
L 235.784068 190.007824 
L 236.084814 191.070492 
L 236.385559 190.446612 
L 236.535932 190.352235 
L 236.686304 190.480117 
L 236.98705 190.198699 
L 237.137422 189.172995 
L 237.287795 189.568289 
L 237.438168 189.370407 
L 237.889285 189.468721 
L 238.039658 189.05717 
L 238.340403 189.827739 
L 238.490776 189.863049 
L 238.641149 189.630359 
L 238.791521 189.685055 
L 239.092267 190.517414 
L 239.242639 190.432208 
L 239.543385 190.933776 
L 239.693757 190.894153 
L 239.84413 192.367017 
L 239.994503 192.543044 
L 240.144875 192.185068 
L 240.295248 192.774231 
L 240.595993 192.447225 
L 240.746366 192.748534 
L 240.896738 192.461338 
L 241.047111 192.672385 
L 241.197484 193.35787 
L 241.347856 193.347666 
L 241.498229 194.1806 
L 241.798974 194.375057 
L 242.400465 192.087136 
L 242.851583 191.558777 
L 243.001955 192.441103 
L 243.152328 192.223423 
L 243.302701 192.644372 
L 243.453073 192.246408 
L 243.753819 192.251175 
L 244.505682 194.201047 
L 244.656055 194.147251 
L 244.806427 194.895156 
L 245.107173 193.50308 
L 245.257545 193.603999 
L 245.407918 194.03482 
L 245.55829 193.838766 
L 245.859036 193.83419 
L 246.009408 193.628825 
L 246.159781 192.919638 
L 246.310154 192.88418 
L 246.610899 192.096403 
L 246.911644 192.912193 
L 247.062017 192.938392 
L 247.362762 193.599763 
L 247.81388 193.687289 
L 247.964253 193.351187 
L 248.264998 193.537586 
L 248.415371 193.326766 
L 248.565743 192.807636 
L 248.716116 193.183839 
L 248.866489 193.166275 
L 249.167234 193.568484 
L 249.317607 193.536363 
L 249.467979 194.219364 
L 249.768725 194.10604 
L 250.06947 193.442445 
L 250.219843 192.439979 
L 250.370215 192.242293 
L 250.520588 192.298602 
L 250.971706 190.977322 
L 251.272451 190.24648 
L 251.573196 191.474201 
L 251.723569 191.466632 
L 251.873942 191.189266 
L 252.024314 191.993118 
L 252.174687 192.065207 
L 252.32506 191.820982 
L 252.475432 191.87066 
L 252.625805 191.0501 
L 252.776178 191.812433 
L 252.92655 191.640567 
L 253.076923 191.796511 
L 253.227295 192.136891 
L 253.377668 192.058193 
L 253.528041 191.497237 
L 253.678413 191.588365 
L 253.828786 189.984152 
L 254.129531 189.979432 
L 254.580649 188.447097 
L 254.731022 188.185189 
L 254.881395 186.899929 
L 255.031767 187.590069 
L 255.18214 186.90632 
L 255.332513 186.920759 
L 255.482885 186.356957 
L 255.633258 187.100187 
L 255.78363 187.103581 
L 255.934003 187.347837 
L 256.084376 187.252635 
L 256.385121 186.368985 
L 256.535494 186.367469 
L 256.685866 186.726649 
L 256.836239 186.693413 
L 256.986612 186.85994 
L 257.136984 187.289707 
L 257.43773 186.546083 
L 257.588102 186.532211 
L 257.888848 185.937436 
L 258.03922 186.627176 
L 258.189593 186.56926 
L 258.339965 186.705257 
L 258.490338 186.39607 
L 258.791083 187.383928 
L 258.941456 187.48672 
L 259.392574 186.432874 
L 259.693319 186.256461 
L 259.843692 185.444472 
L 259.994065 185.517181 
L 260.29481 185.957269 
L 260.445183 185.350031 
L 260.595555 185.34969 
L 260.745928 185.822755 
L 260.8963 185.841526 
L 261.046673 186.200354 
L 261.197046 186.084051 
L 261.347418 185.71861 
L 261.497791 185.693689 
L 261.798536 186.053867 
L 261.948909 185.79641 
L 262.099282 185.799543 
L 262.249654 185.683448 
L 262.400027 185.408057 
L 262.851145 185.675184 
L 264.204499 184.306003 
L 264.655617 185.08947 
L 265.106735 186.0695 
L 265.40748 186.72608 
L 265.557853 186.747944 
L 265.708225 187.228534 
L 265.858598 187.136626 
L 266.309716 186.080854 
L 266.610461 186.558012 
L 266.911206 187.407284 
L 267.061579 187.319185 
L 267.211952 187.763047 
L 267.512697 187.581981 
L 267.66307 187.254087 
L 267.813442 187.857905 
L 268.114188 187.741703 
L 268.565305 187.022 
L 269.016423 187.932717 
L 269.317169 188.034246 
L 269.467541 187.681206 
L 269.617914 187.836104 
L 269.768287 187.375568 
L 269.918659 187.687598 
L 270.219405 187.600911 
L 270.52015 187.157077 
L 270.971268 187.751165 
L 271.12164 187.812546 
L 271.422386 188.417205 
L 271.723131 186.980368 
L 271.873504 186.920349 
L 272.174249 186.533106 
L 272.324622 186.716693 
L 272.474994 186.518499 
L 272.77574 187.093928 
L 272.926112 187.067879 
L 273.076485 186.896623 
L 273.226858 187.024068 
L 273.37723 186.835914 
L 273.677975 185.246372 
L 273.978721 185.966194 
L 274.279466 185.477355 
L 274.429839 185.536896 
L 274.880957 185.023278 
L 275.031329 185.540861 
L 275.181702 186.47994 
L 275.482447 186.481035 
L 275.63282 186.677788 
L 275.933565 188.068424 
L 276.083938 187.815457 
L 276.23431 187.784893 
L 276.384683 187.905409 
L 276.535056 187.823377 
L 276.685428 188.282615 
L 276.835801 188.081428 
L 276.986174 188.26048 
L 277.136546 188.199862 
L 277.286919 188.976593 
L 277.437292 188.916637 
L 277.738037 189.05625 
L 278.038782 190.067469 
L 278.339528 188.934999 
L 278.4899 188.957194 
L 278.640273 188.849455 
L 278.790646 189.150087 
L 279.091391 188.133387 
L 279.392136 188.765803 
L 279.542509 188.719672 
L 279.843254 188.382354 
L 279.993627 188.749115 
L 280.143999 188.755822 
L 280.444745 188.198888 
L 280.595117 188.149821 
L 280.74549 188.479223 
L 280.895863 189.41545 
L 281.046235 189.35634 
L 281.196608 188.901821 
L 281.647726 188.54084 
L 281.798098 188.69939 
L 281.948471 188.370457 
L 282.098844 187.540723 
L 282.249216 187.423259 
L 282.399589 186.658597 
L 282.549962 186.773279 
L 282.700334 187.126895 
L 282.850707 186.970496 
L 283.00108 186.404772 
L 283.151452 186.526659 
L 283.301825 186.301004 
L 283.452198 186.384416 
L 283.60257 185.690077 
L 283.752943 185.811348 
L 284.053688 186.44921 
L 284.504806 186.146084 
L 284.955924 184.354306 
L 285.256669 184.671144 
L 285.407042 184.629166 
L 285.707787 183.801372 
L 286.008533 184.302799 
L 286.309278 183.473618 
L 286.459651 183.826204 
L 286.910768 183.220911 
L 287.211514 183.271322 
L 287.361886 183.766939 
L 287.512259 183.784065 
L 287.813004 184.367422 
L 288.264122 184.386162 
L 288.564868 183.396609 
L 288.71524 183.395767 
L 288.865613 183.214634 
L 289.015986 183.363651 
L 289.166358 183.318907 
L 289.467103 182.860003 
L 289.767849 182.035732 
L 290.068594 181.270506 
L 290.369339 181.312905 
L 290.670085 181.88542 
L 290.820457 181.70312 
L 291.271575 181.785425 
L 291.873066 181.015237 
L 292.173811 179.557245 
L 292.474556 179.939803 
L 292.775302 180.024022 
L 292.925674 180.037991 
L 293.22642 180.349358 
L 293.527165 180.486838 
L 293.677538 180.598394 
L 293.978283 180.24233 
L 294.128656 181.103159 
L 294.279028 181.178032 
L 294.730146 182.029423 
L 294.880519 182.100109 
L 295.030891 181.987076 
L 295.331637 181.511695 
L 295.482009 181.455717 
L 295.632382 181.523227 
L 295.782755 181.979868 
L 295.933127 181.927264 
L 296.233873 180.954025 
L 296.384245 180.840137 
L 296.684991 180.069253 
L 296.835363 180.163522 
L 296.985736 179.985832 
L 297.436854 180.421766 
L 297.587226 180.167077 
L 297.887972 181.533931 
L 298.038344 181.51526 
L 298.188717 181.154336 
L 298.33909 180.387351 
L 298.489462 180.360104 
L 298.790208 179.995733 
L 298.94058 180.125651 
L 299.090953 180.845188 
L 299.391698 180.181129 
L 299.542071 180.150316 
L 299.692443 179.929773 
L 299.842816 180.179417 
L 299.993189 180.159841 
L 300.143561 180.49093 
L 300.293934 180.508094 
L 300.594679 180.836567 
L 300.895425 180.559311 
L 301.647288 181.521732 
L 301.948033 182.17154 
L 302.248778 182.337842 
L 302.399151 181.930522 
L 302.699896 181.853506 
L 303.000642 181.912527 
L 303.151014 181.697253 
L 303.301387 181.070085 
L 303.45176 181.000932 
L 303.602132 180.74572 
L 303.902878 180.64024 
L 304.05325 180.017846 
L 304.203623 180.002833 
L 304.353996 180.178138 
L 304.504368 179.992359 
L 304.805113 180.101594 
L 304.955486 180.011304 
L 305.406604 180.425894 
L 306.008095 179.770505 
L 306.158467 179.899161 
L 306.30884 179.471252 
L 306.609585 179.608396 
L 307.060703 179.147659 
L 307.211076 179.156952 
L 307.361448 178.990663 
L 307.511821 179.313513 
L 307.812566 178.554539 
L 308.113312 177.996555 
L 308.263684 176.704855 
L 308.414057 176.899614 
L 308.56443 176.433377 
L 308.865175 176.602904 
L 309.16592 177.145354 
L 309.316293 176.964752 
L 309.466666 176.999103 
L 309.617038 176.714847 
L 309.767411 176.891226 
L 309.917783 176.73265 
L 310.068156 176.746836 
L 310.218529 176.965702 
L 310.368901 176.837174 
L 310.820019 176.92254 
L 311.120765 176.695498 
L 311.271137 176.921725 
L 311.42151 177.501056 
L 311.571883 177.614996 
L 311.722255 177.267233 
L 311.872628 177.319714 
L 312.173373 177.065358 
L 312.323746 177.061794 
L 312.624491 177.395197 
L 313.225982 176.453314 
L 313.376354 176.004125 
L 313.6771 174.854462 
L 313.827472 175.2681 
L 313.977845 174.860073 
L 314.128218 174.802591 
L 314.27859 174.540315 
L 314.729708 174.813512 
L 314.880081 174.73089 
L 315.331199 175.202542 
L 315.631944 175.143575 
L 316.383807 174.739005 
L 316.53418 174.820591 
L 316.834925 175.235635 
L 316.985298 175.403007 
L 317.286043 175.859027 
L 317.436416 175.954203 
L 317.586788 175.819147 
L 317.887534 175.295509 
L 318.037906 175.288204 
L 318.639397 175.713388 
L 319.090515 176.335432 
L 319.39126 176.350752 
L 319.992751 175.788478 
L 320.443869 176.416635 
L 320.744614 176.410153 
L 321.346105 176.079736 
L 321.797223 176.183607 
L 321.947595 176.424617 
L 322.248341 176.475447 
L 323.000204 176.929454 
L 323.451322 176.409952 
L 323.601694 175.805891 
L 323.90244 175.777615 
L 324.50393 175.702729 
L 324.955048 175.130012 
L 325.105421 174.645914 
L 325.406166 174.601294 
L 326.158029 174.7298 
L 326.308402 174.514901 
L 326.458775 174.095021 
L 326.609147 174.073519 
L 326.909893 174.736954 
L 327.210638 175.021064 
L 327.511383 174.626546 
L 327.812129 174.393233 
L 327.962501 174.471769 
L 328.413619 174.179884 
L 328.563992 173.981745 
L 328.864737 174.197492 
L 329.165482 174.049 
L 329.766973 174.324391 
L 329.917346 174.35897 
L 330.368464 174.169891 
L 330.669209 174.469779 
L 331.721817 173.843271 
L 332.022563 174.031992 
L 332.323308 173.911846 
L 332.624053 174.121502 
L 333.075171 173.889584 
L 334.278152 174.717285 
L 334.428525 174.720377 
L 335.030016 174.409038 
L 335.330761 174.717439 
L 335.481134 174.725551 
L 335.631506 174.606744 
L 335.932251 173.398213 
L 336.082624 173.544377 
L 336.533742 173.308136 
L 336.684115 173.311663 
L 336.98486 173.459689 
L 337.736723 173.161353 
L 337.887096 172.733485 
L 338.338214 173.060348 
L 338.939704 173.011884 
L 339.24045 173.322639 
L 340.293058 173.290174 
L 341.345667 173.939805 
L 341.646412 173.622374 
L 342.548648 173.641097 
L 343.150139 173.961764 
L 343.450884 173.731854 
L 345.255356 174.877828 
L 345.706474 175.743853 
L 346.007219 176.093013 
L 346.458337 176.183369 
L 346.608709 176.164736 
L 346.909455 176.680265 
L 347.661318 177.094504 
L 347.962063 177.147581 
L 348.112436 177.293184 
L 348.413181 177.132122 
L 348.713926 177.258496 
L 349.014672 177.012334 
L 349.315417 176.63081 
L 349.616162 176.632241 
L 349.916908 176.135106 
L 350.217653 176.020275 
L 350.518398 176.01309 
L 350.668771 176.512038 
L 350.819144 176.393006 
L 351.119889 176.720037 
L 351.721379 176.628107 
L 352.32287 176.143982 
L 352.623615 176.182552 
L 352.924361 176.189014 
L 353.225106 175.775106 
L 353.676224 175.443419 
L 354.277714 174.462429 
L 354.879205 175.623017 
L 355.029578 175.682473 
L 355.17995 176.265368 
L 355.330323 176.262101 
L 355.631068 176.522012 
L 355.781441 176.52403 
L 355.931814 176.378842 
L 356.082186 176.490274 
L 356.834049 176.055317 
L 357.134795 176.189289 
L 357.585913 176.244417 
L 357.886658 175.990593 
L 358.187403 176.013226 
L 358.488149 175.761382 
L 358.638521 175.781738 
L 358.939266 176.356092 
L 359.390384 176.557584 
L 359.69113 176.454966 
L 359.841502 176.195662 
L 359.991875 176.277401 
L 360.593366 175.43159 
L 360.894111 175.36547 
L 361.495601 175.906904 
L 361.796347 175.812641 
L 361.946719 175.584835 
L 362.397837 175.587571 
L 362.54821 175.679808 
L 362.848955 175.448383 
L 363.149701 175.035246 
L 363.450446 174.792035 
L 363.751191 174.469338 
L 363.901564 174.47067 
L 364.352682 174.682445 
L 364.954172 174.510499 
L 365.104545 174.413612 
L 365.254918 174.497051 
L 365.706036 174.342877 
L 365.856408 174.379813 
L 366.006781 174.666019 
L 366.307526 174.623048 
L 366.758644 174.291634 
L 367.059389 174.26904 
L 367.209762 174.022369 
L 367.360135 174.213929 
L 367.66088 174.098564 
L 367.811253 174.063252 
L 368.111998 173.78921 
L 368.412743 173.714072 
L 368.713489 173.494528 
L 369.164607 173.845466 
L 369.314979 173.876349 
L 369.766097 174.787661 
L 370.066842 174.92836 
L 370.668333 174.634229 
L 371.269824 174.549675 
L 371.570569 174.707037 
L 372.021687 174.269514 
L 372.322432 174.256288 
L 372.472805 174.191654 
L 372.923923 174.417194 
L 373.375041 174.079595 
L 374.126904 173.487489 
L 374.427649 173.437934 
L 375.02914 173.112915 
L 375.329885 173.036978 
L 376.081748 172.786064 
L 376.683239 172.470862 
L 376.983984 172.706421 
L 378.036593 172.22825 
L 378.337338 171.428196 
L 378.487711 171.255647 
L 378.788456 171.30697 
L 379.089201 171.220665 
L 379.540319 171.144578 
L 379.841064 171.185731 
L 379.991437 171.585723 
L 380.14181 171.601622 
L 380.442555 171.144874 
L 380.7433 171.074384 
L 380.893673 171.097174 
L 381.194418 170.922396 
L 381.495164 170.978403 
L 381.795909 170.903809 
L 381.946282 170.684271 
L 382.096654 170.708374 
L 382.547772 171.099581 
L 382.99889 171.180092 
L 383.299635 171.437857 
L 383.600381 171.152016 
L 384.352244 170.789451 
L 384.652989 171.012577 
L 384.803362 170.994048 
L 384.953734 171.28996 
L 385.85597 171.314321 
L 386.156716 171.401547 
L 386.758206 170.818925 
L 387.058952 170.987565 
L 387.359697 171.448076 
L 387.660442 171.45007 
L 387.961187 171.876091 
L 388.11156 172.005965 
L 388.412305 172.939471 
L 388.562678 173.161937 
L 388.713051 173.168052 
L 389.013796 173.003434 
L 389.464914 173.255298 
L 389.765659 173.547629 
L 390.066404 173.367736 
L 390.667895 173.401748 
L 391.119013 174.059257 
L 391.419758 173.803722 
L 391.570131 173.478706 
L 391.720504 173.819113 
L 391.870876 173.581878 
L 392.321994 173.675971 
L 392.472367 173.702126 
L 392.622739 173.326676 
L 392.773112 173.520816 
L 393.073857 173.556558 
L 393.374603 173.646301 
L 393.524975 173.524749 
L 394.126466 173.813047 
L 394.577584 174.798735 
L 394.878329 175.699551 
L 395.028702 175.55227 
L 395.329447 175.663255 
L 395.47982 175.577702 
L 395.630192 174.956588 
L 395.780565 174.872906 
L 396.08131 175.155151 
L 396.532428 174.6884 
L 396.682801 174.822938 
L 396.833174 174.801665 
L 397.133919 175.157896 
L 397.434664 175.273741 
L 397.585037 175.043485 
L 397.735409 175.072182 
L 397.885782 174.854099 
L 398.036155 174.920237 
L 398.487273 174.428359 
L 398.487273 174.428359 
" clip-path="url(#pa90150ff13)" style="fill: none; stroke: #2ca02c; stroke-opacity: 0.7; stroke-width: 1.5; stroke-linecap: square"/>
   </g>
   <g id="patch_3">
    <path d="M 57.6 307.584 
L 57.6 41.472 
" style="fill: none; stroke: #000000; stroke-width: 0.8; stroke-linejoin: miter; stroke-linecap: square"/>
   </g>
   <g id="patch_4">
    <path d="M 414.72 307.584 
L 414.72 41.472 
" style="fill: none; stroke: #000000; stroke-width: 0.8; stroke-linejoin: miter; stroke-linecap: square"/>
   </g>
   <g id="patch_5">
    <path d="M 57.6 307.584 
L 414.72 307.584 
" style="fill: none; stroke: #000000; stroke-width: 0.8; stroke-linejoin: miter; stroke-linecap: square"/>
   </g>
   <g id="patch_6">
    <path d="M 57.6 41.472 
L 414.72 41.472 
" style="fill: none; stroke: #000000; stroke-width: 0.8; stroke-linejoin: miter; stroke-linecap: square"/>
   </g>
   <g id="text_13">
    <!-- 1final_isomorphism_btcusd -->
    <g transform="translate(154.525312 35.472) scale(0.12 -0.12)">
     <defs>
      <path id="DejaVuSans-66" d="M 2375 4863 
L 2375 4384 
L 1825 4384 
Q 1516 4384 1395 4259 
Q 1275 4134 1275 3809 
L 1275 3500 
L 2222 3500 
L 2222 3053 
L 1275 3053 
L 1275 0 
L 697 0 
L 697 3053 
L 147 3053 
L 147 3500 
L 697 3500 
L 697 3744 
Q 697 4328 969 4595 
Q 1241 4863 1831 4863 
L 2375 4863 
z
" transform="scale(0.015625)"/>
      <path id="DejaVuSans-69" d="M 603 3500 
L 1178 3500 
L 1178 0 
L 603 0 
L 603 3500 
z
M 603 4863 
L 1178 4863 
L 1178 4134 
L 603 4134 
L 603 4863 
z
" transform="scale(0.015625)"/>
      <path id="DejaVuSans-6e" d="M 3513 2113 
L 3513 0 
L 2938 0 
L 2938 2094 
Q 2938 2591 2744 2837 
Q 2550 3084 2163 3084 
Q 1697 3084 1428 2787 
Q 1159 2491 1159 1978 
L 1159 0 
L 581 0 
L 581 3500 
L 1159 3500 
L 1159 2956 
Q 1366 3272 1645 3428 
Q 1925 3584 2291 3584 
Q 2894 3584 3203 3211 
Q 3513 2838 3513 2113 
z
" transform="scale(0.015625)"/>
      <path id="DejaVuSans-61" d="M 2194 1759 
Q 1497 1759 1228 1600 
Q 959 1441 959 1056 
Q 959 750 1161 570 
Q 1363 391 1709 391 
Q 2188 391 2477 730 
Q 2766 1069 2766 1631 
L 2766 1759 
L 2194 1759 
z
M 3341 1997 
L 3341 0 
L 2766 0 
L 2766 531 
Q 2569 213 2275 61 
Q 1981 -91 1556 -91 
Q 1019 -91 701 211 
Q 384 513 384 1019 
Q 384 1609 779 1909 
Q 1175 2209 1959 2209 
L 2766 2209 
L 2766 2266 
Q 2766 2663 2505 2880 
Q 2244 3097 1772 3097 
Q 1472 3097 1187 3025 
Q 903 2953 641 2809 
L 641 3341 
Q 956 3463 1253 3523 
Q 1550 3584 1831 3584 
Q 2591 3584 2966 3190 
Q 3341 2797 3341 1997 
z
" transform="scale(0.015625)"/>
      <path id="DejaVuSans-6c" d="M 603 4863 
L 1178 4863 
L 1178 0 
L 603 0 
L 603 4863 
z
" transform="scale(0.015625)"/>
      <path id="DejaVuSans-5f" d="M 3263 -1063 
L 3263 -1509 
L -63 -1509 
L -63 -1063 
L 3263 -1063 
z
" transform="scale(0.015625)"/>
      <path id="DejaVuSans-73" d="M 2834 3397 
L 2834 2853 
Q 2591 2978 2328 3040 
Q 2066 3103 1784 3103 
Q 1356 3103 1142 2972 
Q 928 2841 928 2578 
Q 928 2378 1081 2264 
Q 1234 2150 1697 2047 
L 1894 2003 
Q 2506 1872 2764 1633 
Q 3022 1394 3022 966 
Q 3022 478 2636 193 
Q 2250 -91 1575 -91 
Q 1294 -91 989 -36 
Q 684 19 347 128 
L 347 722 
Q 666 556 975 473 
Q 1284 391 1588 391 
Q 1994 391 2212 530 
Q 2431 669 2431 922 
Q 2431 1156 2273 1281 
Q 2116 1406 1581 1522 
L 1381 1569 
Q 847 1681 609 1914 
Q 372 2147 372 2553 
Q 372 3047 722 3315 
Q 1072 3584 1716 3584 
Q 2034 3584 2315 3537 
Q 2597 3491 2834 3397 
z
" transform="scale(0.015625)"/>
      <path id="DejaVuSans-6f" d="M 1959 3097 
Q 1497 3097 1228 2736 
Q 959 2375 959 1747 
Q 959 1119 1226 758 
Q 1494 397 1959 397 
Q 2419 397 2687 759 
Q 2956 1122 2956 1747 
Q 2956 2369 2687 2733 
Q 2419 3097 1959 3097 
z
M 1959 3584 
Q 2709 3584 3137 3096 
Q 3566 2609 3566 1747 
Q 3566 888 3137 398 
Q 2709 -91 1959 -91 
Q 1206 -91 779 398 
Q 353 888 353 1747 
Q 353 2609 779 3096 
Q 1206 3584 1959 3584 
z
" transform="scale(0.015625)"/>
      <path id="DejaVuSans-6d" d="M 3328 2828 
Q 3544 3216 3844 3400 
Q 4144 3584 4550 3584 
Q 5097 3584 5394 3201 
Q 5691 2819 5691 2113 
L 5691 0 
L 5113 0 
L 5113 2094 
Q 5113 2597 4934 2840 
Q 4756 3084 4391 3084 
Q 3944 3084 3684 2787 
Q 3425 2491 3425 1978 
L 3425 0 
L 2847 0 
L 2847 2094 
Q 2847 2600 2669 2842 
Q 2491 3084 2119 3084 
Q 1678 3084 1418 2786 
Q 1159 2488 1159 1978 
L 1159 0 
L 581 0 
L 581 3500 
L 1159 3500 
L 1159 2956 
Q 1356 3278 1631 3431 
Q 1906 3584 2284 3584 
Q 2666 3584 2933 3390 
Q 3200 3197 3328 2828 
z
" transform="scale(0.015625)"/>
      <path id="DejaVuSans-72" d="M 2631 2963 
Q 2534 3019 2420 3045 
Q 2306 3072 2169 3072 
Q 1681 3072 1420 2755 
Q 1159 2438 1159 1844 
L 1159 0 
L 581 0 
L 581 3500 
L 1159 3500 
L 1159 2956 
Q 1341 3275 1631 3429 
Q 1922 3584 2338 3584 
Q 2397 3584 2469 3576 
Q 2541 3569 2628 3553 
L 2631 2963 
z
" transform="scale(0.015625)"/>
      <path id="DejaVuSans-70" d="M 1159 525 
L 1159 -1331 
L 581 -1331 
L 581 3500 
L 1159 3500 
L 1159 2969 
Q 1341 3281 1617 3432 
Q 1894 3584 2278 3584 
Q 2916 3584 3314 3078 
Q 3713 2572 3713 1747 
Q 3713 922 3314 415 
Q 2916 -91 2278 -91 
Q 1894 -91 1617 61 
Q 1341 213 1159 525 
z
M 3116 1747 
Q 3116 2381 2855 2742 
Q 2594 3103 2138 3103 
Q 1681 3103 1420 2742 
Q 1159 2381 1159 1747 
Q 1159 1113 1420 752 
Q 1681 391 2138 391 
Q 2594 391 2855 752 
Q 3116 1113 3116 1747 
z
" transform="scale(0.015625)"/>
      <path id="DejaVuSans-68" d="M 3513 2113 
L 3513 0 
L 2938 0 
L 2938 2094 
Q 2938 2591 2744 2837 
Q 2550 3084 2163 3084 
Q 1697 3084 1428 2787 
Q 1159 2491 1159 1978 
L 1159 0 
L 581 0 
L 581 4863 
L 1159 4863 
L 1159 2956 
Q 1366 3272 1645 3428 
Q 1925 3584 2291 3584 
Q 2894 3584 3203 3211 
Q 3513 2838 3513 2113 
z
" transform="scale(0.015625)"/>
      <path id="DejaVuSans-62" d="M 3116 1747 
Q 3116 2381 2855 2742 
Q 2594 3103 2138 3103 
Q 1681 3103 1420 2742 
Q 1159 2381 1159 1747 
Q 1159 1113 1420 752 
Q 1681 391 2138 391 
Q 2594 391 2855 752 
Q 3116 1113 3116 1747 
z
M 1159 2969 
Q 1341 3281 1617 3432 
Q 1894 3584 2278 3584 
Q 2916 3584 3314 3078 
Q 3713 2572 3713 1747 
Q 3713 922 3314 415 
Q 2916 -91 2278 -91 
Q 1894 -91 1617 61 
Q 1341 213 1159 525 
L 1159 0 
L 581 0 
L 581 4863 
L 1159 4863 
L 1159 2969 
z
" transform="scale(0.015625)"/>
      <path id="DejaVuSans-74" d="M 1172 4494 
L 1172 3500 
L 2356 3500 
L 2356 3053 
L 1172 3053 
L 1172 1153 
Q 1172 725 1289 603 
Q 1406 481 1766 481 
L 2356 481 
L 2356 0 
L 1766 0 
Q 1100 0 847 248 
Q 594 497 594 1153 
L 594 3053 
L 172 3053 
L 172 3500 
L 594 3500 
L 594 4494 
L 1172 4494 
z
" transform="scale(0.015625)"/>
      <path id="DejaVuSans-63" d="M 3122 3366 
L 3122 2828 
Q 2878 2963 2633 3030 
Q 2388 3097 2138 3097 
Q 1578 3097 1268 2742 
Q 959 2388 959 1747 
Q 959 1106 1268 751 
Q 1578 397 2138 397 
Q 2388 397 2633 464 
Q 2878 531 3122 666 
L 3122 134 
Q 2881 22 2623 -34 
Q 2366 -91 2075 -91 
Q 1284 -91 818 406 
Q 353 903 353 1747 
Q 353 2603 823 3093 
Q 1294 3584 2113 3584 
Q 2378 3584 2631 3529 
Q 2884 3475 3122 3366 
z
" transform="scale(0.015625)"/>
      <path id="DejaVuSans-75" d="M 544 1381 
L 544 3500 
L 1119 3500 
L 1119 1403 
Q 1119 906 1312 657 
Q 1506 409 1894 409 
Q 2359 409 2629 706 
Q 2900 1003 2900 1516 
L 2900 3500 
L 3475 3500 
L 3475 0 
L 2900 0 
L 2900 538 
Q 2691 219 2414 64 
Q 2138 -91 1772 -91 
Q 1169 -91 856 284 
Q 544 659 544 1381 
z
M 1991 3584 
L 1991 3584 
z
" transform="scale(0.015625)"/>
      <path id="DejaVuSans-64" d="M 2906 2969 
L 2906 4863 
L 3481 4863 
L 3481 0 
L 2906 0 
L 2906 525 
Q 2725 213 2448 61 
Q 2172 -91 1784 -91 
Q 1150 -91 751 415 
Q 353 922 353 1747 
Q 353 2572 751 3078 
Q 1150 3584 1784 3584 
Q 2172 3584 2448 3432 
Q 2725 3281 2906 2969 
z
M 947 1747 
Q 947 1113 1208 752 
Q 1469 391 1925 391 
Q 2381 391 2643 752 
Q 2906 1113 2906 1747 
Q 2906 2381 2643 2742 
Q 2381 3103 1925 3103 
Q 1469 3103 1208 2742 
Q 947 2381 947 1747 
z
" transform="scale(0.015625)"/>
     </defs>
     <use xlink:href="#DejaVuSans-31"/>
     <use xlink:href="#DejaVuSans-66" x="63.623047"/>
     <use xlink:href="#DejaVuSans-69" x="98.828125"/>
     <use xlink:href="#DejaVuSans-6e" x="126.611328"/>
     <use xlink:href="#DejaVuSans-61" x="189.990234"/>
     <use xlink:href="#DejaVuSans-6c" x="251.269531"/>
     <use xlink:href="#DejaVuSans-5f" x="279.052734"/>
     <use xlink:href="#DejaVuSans-69" x="329.052734"/>
     <use xlink:href="#DejaVuSans-73" x="356.835938"/>
     <use xlink:href="#DejaVuSans-6f" x="408.935547"/>
     <use xlink:href="#DejaVuSans-6d" x="470.117188"/>
     <use xlink:href="#DejaVuSans-6f" x="567.529297"/>
     <use xlink:href="#DejaVuSans-72" x="628.710938"/>
     <use xlink:href="#DejaVuSans-70" x="669.824219"/>
     <use xlink:href="#DejaVuSans-68" x="733.300781"/>
     <use xlink:href="#DejaVuSans-69" x="796.679688"/>
     <use xlink:href="#DejaVuSans-73" x="824.462891"/>
     <use xlink:href="#DejaVuSans-6d" x="876.5625"/>
     <use xlink:href="#DejaVuSans-5f" x="973.974609"/>
     <use xlink:href="#DejaVuSans-62" x="1023.974609"/>
     <use xlink:href="#DejaVuSans-74" x="1087.451172"/>
     <use xlink:href="#DejaVuSans-63" x="1126.660156"/>
     <use xlink:href="#DejaVuSans-75" x="1181.640625"/>
     <use xlink:href="#DejaVuSans-73" x="1245.019531"/>
     <use xlink:href="#DejaVuSans-64" x="1297.119141"/>
    </g>
   </g>
   <g id="legend_1">
    <g id="patch_7">
     <path d="M 64.6 93.506375 
L 258.804688 93.506375 
Q 260.804688 93.506375 260.804688 91.506375 
L 260.804688 48.472 
Q 260.804688 46.472 258.804688 46.472 
L 64.6 46.472 
Q 62.6 46.472 62.6 48.472 
L 62.6 91.506375 
Q 62.6 93.506375 64.6 93.506375 
z
" style="fill: #ffffff; opacity: 0.8; stroke: #cccccc; stroke-linejoin: miter"/>
    </g>
    <g id="line2d_16">
     <path d="M 66.6 54.570438 
L 76.6 54.570438 
L 86.6 54.570438 
" style="fill: none; stroke: #1f77b4; stroke-opacity: 0.7; stroke-width: 1.5; stroke-linecap: square"/>
    </g>
    <g id="text_14">
     <!-- Positive cumulative predictions -->
     <g transform="translate(94.6 58.070438) scale(0.1 -0.1)">
      <defs>
       <path id="DejaVuSans-50" d="M 1259 4147 
L 1259 2394 
L 2053 2394 
Q 2494 2394 2734 2622 
Q 2975 2850 2975 3272 
Q 2975 3691 2734 3919 
Q 2494 4147 2053 4147 
L 1259 4147 
z
M 628 4666 
L 2053 4666 
Q 2838 4666 3239 4311 
Q 3641 3956 3641 3272 
Q 3641 2581 3239 2228 
Q 2838 1875 2053 1875 
L 1259 1875 
L 1259 0 
L 628 0 
L 628 4666 
z
" transform="scale(0.015625)"/>
       <path id="DejaVuSans-76" d="M 191 3500 
L 800 3500 
L 1894 563 
L 2988 3500 
L 3597 3500 
L 2284 0 
L 1503 0 
L 191 3500 
z
" transform="scale(0.015625)"/>
       <path id="DejaVuSans-65" d="M 3597 1894 
L 3597 1613 
L 953 1613 
Q 991 1019 1311 708 
Q 1631 397 2203 397 
Q 2534 397 2845 478 
Q 3156 559 3463 722 
L 3463 178 
Q 3153 47 2828 -22 
Q 2503 -91 2169 -91 
Q 1331 -91 842 396 
Q 353 884 353 1716 
Q 353 2575 817 3079 
Q 1281 3584 2069 3584 
Q 2775 3584 3186 3129 
Q 3597 2675 3597 1894 
z
M 3022 2063 
Q 3016 2534 2758 2815 
Q 2500 3097 2075 3097 
Q 1594 3097 1305 2825 
Q 1016 2553 972 2059 
L 3022 2063 
z
" transform="scale(0.015625)"/>
       <path id="DejaVuSans-20" transform="scale(0.015625)"/>
      </defs>
      <use xlink:href="#DejaVuSans-50"/>
      <use xlink:href="#DejaVuSans-6f" x="56.677734"/>
      <use xlink:href="#DejaVuSans-73" x="117.859375"/>
      <use xlink:href="#DejaVuSans-69" x="169.958984"/>
      <use xlink:href="#DejaVuSans-74" x="197.742188"/>
      <use xlink:href="#DejaVuSans-69" x="236.951172"/>
      <use xlink:href="#DejaVuSans-76" x="264.734375"/>
      <use xlink:href="#DejaVuSans-65" x="323.914062"/>
      <use xlink:href="#DejaVuSans-20" x="385.4375"/>
      <use xlink:href="#DejaVuSans-63" x="417.224609"/>
      <use xlink:href="#DejaVuSans-75" x="472.205078"/>
      <use xlink:href="#DejaVuSans-6d" x="535.583984"/>
      <use xlink:href="#DejaVuSans-75" x="632.996094"/>
      <use xlink:href="#DejaVuSans-6c" x="696.375"/>
      <use xlink:href="#DejaVuSans-61" x="724.158203"/>
      <use xlink:href="#DejaVuSans-74" x="785.4375"/>
      <use xlink:href="#DejaVuSans-69" x="824.646484"/>
      <use xlink:href="#DejaVuSans-76" x="852.429688"/>
      <use xlink:href="#DejaVuSans-65" x="911.609375"/>
      <use xlink:href="#DejaVuSans-20" x="973.132812"/>
      <use xlink:href="#DejaVuSans-70" x="1004.919922"/>
      <use xlink:href="#DejaVuSans-72" x="1068.396484"/>
      <use xlink:href="#DejaVuSans-65" x="1107.259766"/>
      <use xlink:href="#DejaVuSans-64" x="1168.783203"/>
      <use xlink:href="#DejaVuSans-69" x="1232.259766"/>
      <use xlink:href="#DejaVuSans-63" x="1260.042969"/>
      <use xlink:href="#DejaVuSans-74" x="1315.023438"/>
      <use xlink:href="#DejaVuSans-69" x="1354.232422"/>
      <use xlink:href="#DejaVuSans-6f" x="1382.015625"/>
      <use xlink:href="#DejaVuSans-6e" x="1443.197266"/>
      <use xlink:href="#DejaVuSans-73" x="1506.576172"/>
     </g>
    </g>
    <g id="line2d_17">
     <path d="M 66.6 69.248563 
L 76.6 69.248563 
L 86.6 69.248563 
" style="fill: none; stroke: #ff7f0e; stroke-opacity: 0.7; stroke-width: 1.5; stroke-linecap: square"/>
    </g>
    <g id="text_15">
     <!-- Negative cumulative predictions -->
     <g transform="translate(94.6 72.748563) scale(0.1 -0.1)">
      <defs>
       <path id="DejaVuSans-4e" d="M 628 4666 
L 1478 4666 
L 3547 763 
L 3547 4666 
L 4159 4666 
L 4159 0 
L 3309 0 
L 1241 3903 
L 1241 0 
L 628 0 
L 628 4666 
z
" transform="scale(0.015625)"/>
       <path id="DejaVuSans-67" d="M 2906 1791 
Q 2906 2416 2648 2759 
Q 2391 3103 1925 3103 
Q 1463 3103 1205 2759 
Q 947 2416 947 1791 
Q 947 1169 1205 825 
Q 1463 481 1925 481 
Q 2391 481 2648 825 
Q 2906 1169 2906 1791 
z
M 3481 434 
Q 3481 -459 3084 -895 
Q 2688 -1331 1869 -1331 
Q 1566 -1331 1297 -1286 
Q 1028 -1241 775 -1147 
L 775 -588 
Q 1028 -725 1275 -790 
Q 1522 -856 1778 -856 
Q 2344 -856 2625 -561 
Q 2906 -266 2906 331 
L 2906 616 
Q 2728 306 2450 153 
Q 2172 0 1784 0 
Q 1141 0 747 490 
Q 353 981 353 1791 
Q 353 2603 747 3093 
Q 1141 3584 1784 3584 
Q 2172 3584 2450 3431 
Q 2728 3278 2906 2969 
L 2906 3500 
L 3481 3500 
L 3481 434 
z
" transform="scale(0.015625)"/>
      </defs>
      <use xlink:href="#DejaVuSans-4e"/>
      <use xlink:href="#DejaVuSans-65" x="74.804688"/>
      <use xlink:href="#DejaVuSans-67" x="136.328125"/>
      <use xlink:href="#DejaVuSans-61" x="199.804688"/>
      <use xlink:href="#DejaVuSans-74" x="261.083984"/>
      <use xlink:href="#DejaVuSans-69" x="300.292969"/>
      <use xlink:href="#DejaVuSans-76" x="328.076172"/>
      <use xlink:href="#DejaVuSans-65" x="387.255859"/>
      <use xlink:href="#DejaVuSans-20" x="448.779297"/>
      <use xlink:href="#DejaVuSans-63" x="480.566406"/>
      <use xlink:href="#DejaVuSans-75" x="535.546875"/>
      <use xlink:href="#DejaVuSans-6d" x="598.925781"/>
      <use xlink:href="#DejaVuSans-75" x="696.337891"/>
      <use xlink:href="#DejaVuSans-6c" x="759.716797"/>
      <use xlink:href="#DejaVuSans-61" x="787.5"/>
      <use xlink:href="#DejaVuSans-74" x="848.779297"/>
      <use xlink:href="#DejaVuSans-69" x="887.988281"/>
      <use xlink:href="#DejaVuSans-76" x="915.771484"/>
      <use xlink:href="#DejaVuSans-65" x="974.951172"/>
      <use xlink:href="#DejaVuSans-20" x="1036.474609"/>
      <use xlink:href="#DejaVuSans-70" x="1068.261719"/>
      <use xlink:href="#DejaVuSans-72" x="1131.738281"/>
      <use xlink:href="#DejaVuSans-65" x="1170.601562"/>
      <use xlink:href="#DejaVuSans-64" x="1232.125"/>
      <use xlink:href="#DejaVuSans-69" x="1295.601562"/>
      <use xlink:href="#DejaVuSans-63" x="1323.384766"/>
      <use xlink:href="#DejaVuSans-74" x="1378.365234"/>
      <use xlink:href="#DejaVuSans-69" x="1417.574219"/>
      <use xlink:href="#DejaVuSans-6f" x="1445.357422"/>
      <use xlink:href="#DejaVuSans-6e" x="1506.539062"/>
      <use xlink:href="#DejaVuSans-73" x="1569.917969"/>
     </g>
    </g>
    <g id="line2d_18">
     <path d="M 66.6 83.926688 
L 76.6 83.926688 
L 86.6 83.926688 
" style="fill: none; stroke: #2ca02c; stroke-opacity: 0.7; stroke-width: 1.5; stroke-linecap: square"/>
    </g>
    <g id="text_16">
     <!-- Average cumulative predictions -->
     <g transform="translate(94.6 87.426688) scale(0.1 -0.1)">
      <defs>
       <path id="DejaVuSans-41" d="M 2188 4044 
L 1331 1722 
L 3047 1722 
L 2188 4044 
z
M 1831 4666 
L 2547 4666 
L 4325 0 
L 3669 0 
L 3244 1197 
L 1141 1197 
L 716 0 
L 50 0 
L 1831 4666 
z
" transform="scale(0.015625)"/>
      </defs>
      <use xlink:href="#DejaVuSans-41"/>
      <use xlink:href="#DejaVuSans-76" x="62.533203"/>
      <use xlink:href="#DejaVuSans-65" x="121.712891"/>
      <use xlink:href="#DejaVuSans-72" x="183.236328"/>
      <use xlink:href="#DejaVuSans-61" x="224.349609"/>
      <use xlink:href="#DejaVuSans-67" x="285.628906"/>
      <use xlink:href="#DejaVuSans-65" x="349.105469"/>
      <use xlink:href="#DejaVuSans-20" x="410.628906"/>
      <use xlink:href="#DejaVuSans-63" x="442.416016"/>
      <use xlink:href="#DejaVuSans-75" x="497.396484"/>
      <use xlink:href="#DejaVuSans-6d" x="560.775391"/>
      <use xlink:href="#DejaVuSans-75" x="658.1875"/>
      <use xlink:href="#DejaVuSans-6c" x="721.566406"/>
      <use xlink:href="#DejaVuSans-61" x="749.349609"/>
      <use xlink:href="#DejaVuSans-74" x="810.628906"/>
      <use xlink:href="#DejaVuSans-69" x="849.837891"/>
      <use xlink:href="#DejaVuSans-76" x="877.621094"/>
      <use xlink:href="#DejaVuSans-65" x="936.800781"/>
      <use xlink:href="#DejaVuSans-20" x="998.324219"/>
      <use xlink:href="#DejaVuSans-70" x="1030.111328"/>
      <use xlink:href="#DejaVuSans-72" x="1093.587891"/>
      <use xlink:href="#DejaVuSans-65" x="1132.451172"/>
      <use xlink:href="#DejaVuSans-64" x="1193.974609"/>
      <use xlink:href="#DejaVuSans-69" x="1257.451172"/>
      <use xlink:href="#DejaVuSans-63" x="1285.234375"/>
      <use xlink:href="#DejaVuSans-74" x="1340.214844"/>
      <use xlink:href="#DejaVuSans-69" x="1379.423828"/>
      <use xlink:href="#DejaVuSans-6f" x="1407.207031"/>
      <use xlink:href="#DejaVuSans-6e" x="1468.388672"/>
      <use xlink:href="#DejaVuSans-73" x="1531.767578"/>
     </g>
    </g>
   </g>
  </g>
 </g>
 <defs>
  <clipPath id="pa90150ff13">
   <rect x="57.6" y="41.472" width="357.12" height="266.112"/>
  </clipPath>
 </defs>
</svg>
