<?xml version="1.0" encoding="utf-8" standalone="no"?>
<!DOCTYPE svg PUBLIC "-//W3C//DTD SVG 1.1//EN"
  "http://www.w3.org/Graphics/SVG/1.1/DTD/svg11.dtd">
<svg xmlns:xlink="http://www.w3.org/1999/xlink" width="460.8pt" height="345.6pt" viewBox="0 0 460.8 345.6" xmlns="http://www.w3.org/2000/svg" version="1.1">
 <metadata>
  <rdf:RDF xmlns:dc="http://purl.org/dc/elements/1.1/" xmlns:cc="http://creativecommons.org/ns#" xmlns:rdf="http://www.w3.org/1999/02/22-rdf-syntax-ns#">
   <cc:Work>
    <dc:type rdf:resource="http://purl.org/dc/dcmitype/StillImage"/>
    <dc:date>2024-09-08T12:15:47.168971</dc:date>
    <dc:format>image/svg+xml</dc:format>
    <dc:creator>
     <cc:Agent>
      <dc:title>Matplotlib v3.8.3, https://matplotlib.org/</dc:title>
     </cc:Agent>
    </dc:creator>
   </cc:Work>
  </rdf:RDF>
 </metadata>
 <defs>
  <style type="text/css">*{stroke-linejoin: round; stroke-linecap: butt}</style>
 </defs>
 <g id="figure_1">
  <g id="patch_1">
   <path d="M 0 345.6 
L 460.8 345.6 
L 460.8 0 
L 0 0 
z
" style="fill: #ffffff"/>
  </g>
  <g id="axes_1">
   <g id="patch_2">
    <path d="M 57.6 307.584 
L 414.72 307.584 
L 414.72 41.472 
L 57.6 41.472 
z
" style="fill: #ffffff"/>
   </g>
   <g id="matplotlib.axis_1">
    <g id="xtick_1">
     <g id="line2d_1">
      <defs>
       <path id="m423ef5e807" d="M 0 0 
L 0 3.5 
" style="stroke: #000000; stroke-width: 0.8"/>
      </defs>
      <g>
       <use xlink:href="#m423ef5e807" x="73.832727" y="307.584" style="stroke: #000000; stroke-width: 0.8"/>
      </g>
     </g>
     <g id="text_1">
      <!-- 0 -->
      <g transform="translate(70.651477 322.182437) scale(0.1 -0.1)">
       <defs>
        <path id="DejaVuSans-30" d="M 2034 4250 
Q 1547 4250 1301 3770 
Q 1056 3291 1056 2328 
Q 1056 1369 1301 889 
Q 1547 409 2034 409 
Q 2525 409 2770 889 
Q 3016 1369 3016 2328 
Q 3016 3291 2770 3770 
Q 2525 4250 2034 4250 
z
M 2034 4750 
Q 2819 4750 3233 4129 
Q 3647 3509 3647 2328 
Q 3647 1150 3233 529 
Q 2819 -91 2034 -91 
Q 1250 -91 836 529 
Q 422 1150 422 2328 
Q 422 3509 836 4129 
Q 1250 4750 2034 4750 
z
" transform="scale(0.015625)"/>
       </defs>
       <use xlink:href="#DejaVuSans-30"/>
      </g>
     </g>
    </g>
    <g id="xtick_2">
     <g id="line2d_2">
      <g>
       <use xlink:href="#m423ef5e807" x="116.27123" y="307.584" style="stroke: #000000; stroke-width: 0.8"/>
      </g>
     </g>
     <g id="text_2">
      <!-- 20 -->
      <g transform="translate(109.90873 322.182437) scale(0.1 -0.1)">
       <defs>
        <path id="DejaVuSans-32" d="M 1228 531 
L 3431 531 
L 3431 0 
L 469 0 
L 469 531 
Q 828 903 1448 1529 
Q 2069 2156 2228 2338 
Q 2531 2678 2651 2914 
Q 2772 3150 2772 3378 
Q 2772 3750 2511 3984 
Q 2250 4219 1831 4219 
Q 1534 4219 1204 4116 
Q 875 4013 500 3803 
L 500 4441 
Q 881 4594 1212 4672 
Q 1544 4750 1819 4750 
Q 2544 4750 2975 4387 
Q 3406 4025 3406 3419 
Q 3406 3131 3298 2873 
Q 3191 2616 2906 2266 
Q 2828 2175 2409 1742 
Q 1991 1309 1228 531 
z
" transform="scale(0.015625)"/>
       </defs>
       <use xlink:href="#DejaVuSans-32"/>
       <use xlink:href="#DejaVuSans-30" x="63.623047"/>
      </g>
     </g>
    </g>
    <g id="xtick_3">
     <g id="line2d_3">
      <g>
       <use xlink:href="#m423ef5e807" x="158.709733" y="307.584" style="stroke: #000000; stroke-width: 0.8"/>
      </g>
     </g>
     <g id="text_3">
      <!-- 40 -->
      <g transform="translate(152.347233 322.182437) scale(0.1 -0.1)">
       <defs>
        <path id="DejaVuSans-34" d="M 2419 4116 
L 825 1625 
L 2419 1625 
L 2419 4116 
z
M 2253 4666 
L 3047 4666 
L 3047 1625 
L 3713 1625 
L 3713 1100 
L 3047 1100 
L 3047 0 
L 2419 0 
L 2419 1100 
L 313 1100 
L 313 1709 
L 2253 4666 
z
" transform="scale(0.015625)"/>
       </defs>
       <use xlink:href="#DejaVuSans-34"/>
       <use xlink:href="#DejaVuSans-30" x="63.623047"/>
      </g>
     </g>
    </g>
    <g id="xtick_4">
     <g id="line2d_4">
      <g>
       <use xlink:href="#m423ef5e807" x="201.148235" y="307.584" style="stroke: #000000; stroke-width: 0.8"/>
      </g>
     </g>
     <g id="text_4">
      <!-- 60 -->
      <g transform="translate(194.785735 322.182437) scale(0.1 -0.1)">
       <defs>
        <path id="DejaVuSans-36" d="M 2113 2584 
Q 1688 2584 1439 2293 
Q 1191 2003 1191 1497 
Q 1191 994 1439 701 
Q 1688 409 2113 409 
Q 2538 409 2786 701 
Q 3034 994 3034 1497 
Q 3034 2003 2786 2293 
Q 2538 2584 2113 2584 
z
M 3366 4563 
L 3366 3988 
Q 3128 4100 2886 4159 
Q 2644 4219 2406 4219 
Q 1781 4219 1451 3797 
Q 1122 3375 1075 2522 
Q 1259 2794 1537 2939 
Q 1816 3084 2150 3084 
Q 2853 3084 3261 2657 
Q 3669 2231 3669 1497 
Q 3669 778 3244 343 
Q 2819 -91 2113 -91 
Q 1303 -91 875 529 
Q 447 1150 447 2328 
Q 447 3434 972 4092 
Q 1497 4750 2381 4750 
Q 2619 4750 2861 4703 
Q 3103 4656 3366 4563 
z
" transform="scale(0.015625)"/>
       </defs>
       <use xlink:href="#DejaVuSans-36"/>
       <use xlink:href="#DejaVuSans-30" x="63.623047"/>
      </g>
     </g>
    </g>
    <g id="xtick_5">
     <g id="line2d_5">
      <g>
       <use xlink:href="#m423ef5e807" x="243.586738" y="307.584" style="stroke: #000000; stroke-width: 0.8"/>
      </g>
     </g>
     <g id="text_5">
      <!-- 80 -->
      <g transform="translate(237.224238 322.182437) scale(0.1 -0.1)">
       <defs>
        <path id="DejaVuSans-38" d="M 2034 2216 
Q 1584 2216 1326 1975 
Q 1069 1734 1069 1313 
Q 1069 891 1326 650 
Q 1584 409 2034 409 
Q 2484 409 2743 651 
Q 3003 894 3003 1313 
Q 3003 1734 2745 1975 
Q 2488 2216 2034 2216 
z
M 1403 2484 
Q 997 2584 770 2862 
Q 544 3141 544 3541 
Q 544 4100 942 4425 
Q 1341 4750 2034 4750 
Q 2731 4750 3128 4425 
Q 3525 4100 3525 3541 
Q 3525 3141 3298 2862 
Q 3072 2584 2669 2484 
Q 3125 2378 3379 2068 
Q 3634 1759 3634 1313 
Q 3634 634 3220 271 
Q 2806 -91 2034 -91 
Q 1263 -91 848 271 
Q 434 634 434 1313 
Q 434 1759 690 2068 
Q 947 2378 1403 2484 
z
M 1172 3481 
Q 1172 3119 1398 2916 
Q 1625 2713 2034 2713 
Q 2441 2713 2670 2916 
Q 2900 3119 2900 3481 
Q 2900 3844 2670 4047 
Q 2441 4250 2034 4250 
Q 1625 4250 1398 4047 
Q 1172 3844 1172 3481 
z
" transform="scale(0.015625)"/>
       </defs>
       <use xlink:href="#DejaVuSans-38"/>
       <use xlink:href="#DejaVuSans-30" x="63.623047"/>
      </g>
     </g>
    </g>
    <g id="xtick_6">
     <g id="line2d_6">
      <g>
       <use xlink:href="#m423ef5e807" x="286.025241" y="307.584" style="stroke: #000000; stroke-width: 0.8"/>
      </g>
     </g>
     <g id="text_6">
      <!-- 100 -->
      <g transform="translate(276.481491 322.182437) scale(0.1 -0.1)">
       <defs>
        <path id="DejaVuSans-31" d="M 794 531 
L 1825 531 
L 1825 4091 
L 703 3866 
L 703 4441 
L 1819 4666 
L 2450 4666 
L 2450 531 
L 3481 531 
L 3481 0 
L 794 0 
L 794 531 
z
" transform="scale(0.015625)"/>
       </defs>
       <use xlink:href="#DejaVuSans-31"/>
       <use xlink:href="#DejaVuSans-30" x="63.623047"/>
       <use xlink:href="#DejaVuSans-30" x="127.246094"/>
      </g>
     </g>
    </g>
    <g id="xtick_7">
     <g id="line2d_7">
      <g>
       <use xlink:href="#m423ef5e807" x="328.463743" y="307.584" style="stroke: #000000; stroke-width: 0.8"/>
      </g>
     </g>
     <g id="text_7">
      <!-- 120 -->
      <g transform="translate(318.919993 322.182437) scale(0.1 -0.1)">
       <use xlink:href="#DejaVuSans-31"/>
       <use xlink:href="#DejaVuSans-32" x="63.623047"/>
       <use xlink:href="#DejaVuSans-30" x="127.246094"/>
      </g>
     </g>
    </g>
    <g id="xtick_8">
     <g id="line2d_8">
      <g>
       <use xlink:href="#m423ef5e807" x="370.902246" y="307.584" style="stroke: #000000; stroke-width: 0.8"/>
      </g>
     </g>
     <g id="text_8">
      <!-- 140 -->
      <g transform="translate(361.358496 322.182437) scale(0.1 -0.1)">
       <use xlink:href="#DejaVuSans-31"/>
       <use xlink:href="#DejaVuSans-34" x="63.623047"/>
       <use xlink:href="#DejaVuSans-30" x="127.246094"/>
      </g>
     </g>
    </g>
    <g id="xtick_9">
     <g id="line2d_9">
      <g>
       <use xlink:href="#m423ef5e807" x="413.340749" y="307.584" style="stroke: #000000; stroke-width: 0.8"/>
      </g>
     </g>
     <g id="text_9">
      <!-- 160 -->
      <g transform="translate(403.796999 322.182437) scale(0.1 -0.1)">
       <use xlink:href="#DejaVuSans-31"/>
       <use xlink:href="#DejaVuSans-36" x="63.623047"/>
       <use xlink:href="#DejaVuSans-30" x="127.246094"/>
      </g>
     </g>
    </g>
   </g>
   <g id="matplotlib.axis_2">
    <g id="ytick_1">
     <g id="line2d_10">
      <defs>
       <path id="mc35c444ef6" d="M 0 0 
L -3.5 0 
" style="stroke: #000000; stroke-width: 0.8"/>
      </defs>
      <g>
       <use xlink:href="#mc35c444ef6" x="57.6" y="287.663369" style="stroke: #000000; stroke-width: 0.8"/>
      </g>
     </g>
     <g id="text_10">
      <!-- −0.02 -->
      <g transform="translate(19.954687 291.462588) scale(0.1 -0.1)">
       <defs>
        <path id="DejaVuSans-2212" d="M 678 2272 
L 4684 2272 
L 4684 1741 
L 678 1741 
L 678 2272 
z
" transform="scale(0.015625)"/>
        <path id="DejaVuSans-2e" d="M 684 794 
L 1344 794 
L 1344 0 
L 684 0 
L 684 794 
z
" transform="scale(0.015625)"/>
       </defs>
       <use xlink:href="#DejaVuSans-2212"/>
       <use xlink:href="#DejaVuSans-30" x="83.789062"/>
       <use xlink:href="#DejaVuSans-2e" x="147.412109"/>
       <use xlink:href="#DejaVuSans-30" x="179.199219"/>
       <use xlink:href="#DejaVuSans-32" x="242.822266"/>
      </g>
     </g>
    </g>
    <g id="ytick_2">
     <g id="line2d_11">
      <g>
       <use xlink:href="#mc35c444ef6" x="57.6" y="245.599734" style="stroke: #000000; stroke-width: 0.8"/>
      </g>
     </g>
     <g id="text_11">
      <!-- −0.01 -->
      <g transform="translate(19.954687 249.398952) scale(0.1 -0.1)">
       <use xlink:href="#DejaVuSans-2212"/>
       <use xlink:href="#DejaVuSans-30" x="83.789062"/>
       <use xlink:href="#DejaVuSans-2e" x="147.412109"/>
       <use xlink:href="#DejaVuSans-30" x="179.199219"/>
       <use xlink:href="#DejaVuSans-31" x="242.822266"/>
      </g>
     </g>
    </g>
    <g id="ytick_3">
     <g id="line2d_12">
      <g>
       <use xlink:href="#mc35c444ef6" x="57.6" y="203.536098" style="stroke: #000000; stroke-width: 0.8"/>
      </g>
     </g>
     <g id="text_12">
      <!-- 0.00 -->
      <g transform="translate(28.334375 207.335317) scale(0.1 -0.1)">
       <use xlink:href="#DejaVuSans-30"/>
       <use xlink:href="#DejaVuSans-2e" x="63.623047"/>
       <use xlink:href="#DejaVuSans-30" x="95.410156"/>
       <use xlink:href="#DejaVuSans-30" x="159.033203"/>
      </g>
     </g>
    </g>
    <g id="ytick_4">
     <g id="line2d_13">
      <g>
       <use xlink:href="#mc35c444ef6" x="57.6" y="161.472463" style="stroke: #000000; stroke-width: 0.8"/>
      </g>
     </g>
     <g id="text_13">
      <!-- 0.01 -->
      <g transform="translate(28.334375 165.271681) scale(0.1 -0.1)">
       <use xlink:href="#DejaVuSans-30"/>
       <use xlink:href="#DejaVuSans-2e" x="63.623047"/>
       <use xlink:href="#DejaVuSans-30" x="95.410156"/>
       <use xlink:href="#DejaVuSans-31" x="159.033203"/>
      </g>
     </g>
    </g>
    <g id="ytick_5">
     <g id="line2d_14">
      <g>
       <use xlink:href="#mc35c444ef6" x="57.6" y="119.408827" style="stroke: #000000; stroke-width: 0.8"/>
      </g>
     </g>
     <g id="text_14">
      <!-- 0.02 -->
      <g transform="translate(28.334375 123.208046) scale(0.1 -0.1)">
       <use xlink:href="#DejaVuSans-30"/>
       <use xlink:href="#DejaVuSans-2e" x="63.623047"/>
       <use xlink:href="#DejaVuSans-30" x="95.410156"/>
       <use xlink:href="#DejaVuSans-32" x="159.033203"/>
      </g>
     </g>
    </g>
    <g id="ytick_6">
     <g id="line2d_15">
      <g>
       <use xlink:href="#mc35c444ef6" x="57.6" y="77.345192" style="stroke: #000000; stroke-width: 0.8"/>
      </g>
     </g>
     <g id="text_15">
      <!-- 0.03 -->
      <g transform="translate(28.334375 81.14441) scale(0.1 -0.1)">
       <defs>
        <path id="DejaVuSans-33" d="M 2597 2516 
Q 3050 2419 3304 2112 
Q 3559 1806 3559 1356 
Q 3559 666 3084 287 
Q 2609 -91 1734 -91 
Q 1441 -91 1130 -33 
Q 819 25 488 141 
L 488 750 
Q 750 597 1062 519 
Q 1375 441 1716 441 
Q 2309 441 2620 675 
Q 2931 909 2931 1356 
Q 2931 1769 2642 2001 
Q 2353 2234 1838 2234 
L 1294 2234 
L 1294 2753 
L 1863 2753 
Q 2328 2753 2575 2939 
Q 2822 3125 2822 3475 
Q 2822 3834 2567 4026 
Q 2313 4219 1838 4219 
Q 1578 4219 1281 4162 
Q 984 4106 628 3988 
L 628 4550 
Q 988 4650 1302 4700 
Q 1616 4750 1894 4750 
Q 2613 4750 3031 4423 
Q 3450 4097 3450 3541 
Q 3450 3153 3228 2886 
Q 3006 2619 2597 2516 
z
" transform="scale(0.015625)"/>
       </defs>
       <use xlink:href="#DejaVuSans-30"/>
       <use xlink:href="#DejaVuSans-2e" x="63.623047"/>
       <use xlink:href="#DejaVuSans-30" x="95.410156"/>
       <use xlink:href="#DejaVuSans-33" x="159.033203"/>
      </g>
     </g>
    </g>
   </g>
   <g id="line2d_16">
    <path d="M 73.832727 212.618459 
L 75.954652 214.867608 
L 78.076578 213.746345 
L 80.198503 209.010665 
L 82.320428 211.634891 
L 84.442353 200.710197 
L 86.564278 207.089527 
L 88.686203 211.989677 
L 90.808128 207.745605 
L 92.930053 222.106573 
L 95.051979 217.61006 
L 97.173904 211.399373 
L 99.295829 208.514699 
L 101.417754 218.196299 
L 103.539679 220.672945 
L 105.661604 217.355501 
L 107.783529 205.109673 
L 109.905455 212.333949 
L 112.02738 210.739229 
L 114.149305 209.877243 
L 116.27123 220.031023 
L 118.393155 211.703031 
L 120.51508 214.751534 
L 122.637005 220.391696 
L 124.75893 209.927976 
L 126.880856 212.323922 
L 129.002781 215.712981 
L 131.124706 203.686476 
L 133.246631 218.772498 
L 135.368556 204.206344 
L 137.490481 212.965758 
L 139.612406 209.980066 
L 141.734332 204.43097 
L 148.100107 214.940874 
L 150.222032 211.722019 
L 152.343957 204.874245 
L 154.465882 217.118357 
L 156.587807 209.32915 
L 158.709733 205.652126 
L 160.831658 212.518948 
L 162.953583 210.888836 
L 165.075508 217.869591 
L 167.197433 212.165691 
L 169.319358 204.70802 
L 171.441283 207.258157 
L 173.563209 211.977145 
L 175.685134 214.390106 
L 177.807059 208.086777 
L 179.928984 203.600094 
L 182.050909 204.752203 
L 184.172834 209.179149 
L 186.294759 232.791135 
L 188.416684 189.05973 
L 190.53861 221.124885 
L 192.660535 222.48493 
L 194.78246 218.47906 
L 196.904385 207.84482 
L 199.02631 225.998278 
L 201.148235 221.247739 
L 203.27016 217.136548 
L 205.392086 214.173551 
L 207.514011 228.511101 
L 209.635936 220.539242 
L 211.757861 215.040458 
L 213.879786 220.462331 
L 216.001711 213.406047 
L 218.123636 207.959832 
L 220.245561 211.431059 
L 222.367487 208.988992 
L 224.489412 218.732681 
L 226.611337 212.826754 
L 228.733262 222.346365 
L 230.855187 223.2243 
L 232.977112 207.441077 
L 235.099037 219.993011 
L 237.220963 209.400522 
L 239.342888 219.104413 
L 241.464813 205.947955 
L 243.586738 214.10116 
L 245.708663 213.561446 
L 247.830588 217.690336 
L 249.952513 214.639748 
L 252.074439 217.11713 
L 254.196364 207.932808 
L 256.318289 206.322261 
L 258.440214 210.184937 
L 260.562139 213.638796 
L 262.684064 210.182352 
L 264.805989 213.850946 
L 266.927914 209.2526 
L 269.04984 216.439116 
L 271.171765 202.310069 
L 273.29369 208.090915 
L 275.415615 209.875306 
L 277.53754 208.340123 
L 279.659465 217.601753 
L 281.78139 216.613627 
L 283.903316 217.959924 
L 286.025241 214.750167 
L 288.147166 218.238292 
L 290.269091 210.218225 
L 292.391016 218.600388 
L 294.512941 204.025198 
L 296.634866 195.219377 
L 298.756791 227.367963 
L 300.878717 212.890933 
L 303.000642 206.420602 
L 305.122567 211.602531 
L 307.244492 207.027225 
L 309.366417 226.471628 
L 311.488342 210.4646 
L 313.610267 219.890746 
L 315.732193 208.391577 
L 317.854118 225.956332 
L 319.976043 217.823731 
L 322.097968 206.795688 
L 324.219893 216.604667 
L 326.341818 225.199254 
L 328.463743 218.242938 
L 330.585668 210.044655 
L 332.707594 220.536246 
L 334.829519 234.379497 
L 336.951444 222.377673 
L 339.073369 216.475632 
L 341.195294 223.491352 
L 343.317219 210.061646 
L 345.439144 224.49699 
L 347.56107 209.99265 
L 349.682995 212.007517 
L 351.80492 218.181237 
L 353.926845 221.598452 
L 356.04877 219.570761 
L 358.170695 220.360381 
L 360.29262 209.454816 
L 362.414545 204.039356 
L 364.536471 213.285158 
L 366.658396 216.311185 
L 368.780321 213.259005 
L 370.902246 214.009 
L 373.024171 218.816484 
L 375.146096 213.080614 
L 377.268021 207.829191 
L 379.389947 208.879222 
L 381.511872 210.645514 
L 383.633797 210.544982 
L 385.755722 216.003239 
L 387.877647 216.78127 
L 389.999572 214.951564 
L 392.121497 212.794962 
L 394.243422 209.319177 
L 396.365348 218.848103 
L 398.487273 206.084043 
L 398.487273 206.084043 
" clip-path="url(#pdc9cffbeda)" style="fill: none; stroke: #008000; stroke-opacity: 0.8; stroke-width: 0.5; stroke-linecap: square"/>
   </g>
   <g id="line2d_17">
    <path d="M 73.832727 171.774538 
L 75.954652 170.899243 
L 78.076578 166.656365 
L 80.198503 168.93249 
L 82.320428 190.17546 
L 86.564278 169.734905 
L 88.686203 180.528699 
L 90.808128 111.26017 
L 92.930053 173.200738 
L 95.051979 188.217537 
L 97.173904 167.092415 
L 99.295829 174.955826 
L 101.417754 163.234889 
L 103.539679 190.653965 
L 105.661604 181.376424 
L 107.783529 166.899228 
L 109.905455 178.268012 
L 112.02738 179.703413 
L 114.149305 173.428872 
L 116.27123 183.627621 
L 118.393155 186.082058 
L 120.51508 169.769373 
L 122.637005 160.314119 
L 124.75893 186.247699 
L 126.880856 187.743989 
L 129.002781 183.72129 
L 131.124706 159.161878 
L 133.246631 181.514189 
L 135.368556 167.316089 
L 137.490481 191.466328 
L 139.612406 182.542493 
L 141.734332 190.895295 
L 143.856257 191.698911 
L 145.978182 189.029508 
L 148.100107 197.592658 
L 150.222032 179.655332 
L 152.343957 180.496143 
L 154.465882 174.976218 
L 156.587807 190.827538 
L 158.709733 179.585683 
L 160.831658 180.039233 
L 162.953583 186.974115 
L 165.075508 202.407111 
L 167.197433 201.594827 
L 169.319358 181.374812 
L 171.441283 190.047364 
L 173.563209 175.625329 
L 175.685134 191.591019 
L 177.807059 178.517307 
L 179.928984 186.70267 
L 182.050909 187.633255 
L 184.172834 195.67247 
L 186.294759 187.702905 
L 188.416684 100.63739 
L 190.53861 159.524274 
L 192.660535 184.407423 
L 194.78246 196.723166 
L 196.904385 177.695096 
L 199.02631 190.578386 
L 203.27016 177.10833 
L 205.392086 189.916175 
L 207.514011 206.183474 
L 209.635936 177.671332 
L 211.757861 146.678288 
L 213.879786 189.747191 
L 216.001711 189.307304 
L 218.123636 175.423786 
L 220.245561 173.562226 
L 222.367487 180.006871 
L 224.489412 179.810243 
L 226.611337 197.867534 
L 228.733262 193.752449 
L 230.855187 193.932364 
L 232.977112 153.810235 
L 235.099037 187.533218 
L 237.220963 177.671545 
L 239.342888 191.682726 
L 241.464813 181.501509 
L 243.586738 184.534621 
L 245.708663 176.543926 
L 247.830588 198.39965 
L 249.952513 170.215387 
L 252.074439 172.947501 
L 254.196364 180.594951 
L 256.318289 173.580516 
L 258.440214 152.109588 
L 260.562139 198.990566 
L 262.684064 177.090843 
L 264.805989 182.127169 
L 266.927914 174.296068 
L 269.04984 195.072082 
L 271.171765 182.476721 
L 273.29369 178.392679 
L 275.415615 189.181644 
L 277.53754 157.326844 
L 279.659465 176.704297 
L 281.78139 179.016802 
L 283.903316 201.372323 
L 286.025241 173.71776 
L 288.147166 194.075036 
L 290.269091 174.412693 
L 292.391016 171.106122 
L 294.512941 187.249126 
L 296.634866 137.949876 
L 298.756791 180.139306 
L 300.878717 178.510651 
L 303.000642 188.48946 
L 305.122567 183.346632 
L 307.244492 154.610998 
L 309.366417 176.631338 
L 311.488342 161.876962 
L 313.610267 184.75054 
L 315.732193 145.204076 
L 317.854118 177.101611 
L 319.976043 169.638748 
L 322.097968 170.246111 
L 324.219893 183.141026 
L 326.341818 150.656092 
L 328.463743 156.898922 
L 330.585668 160.585432 
L 332.707594 160.445642 
L 334.829519 184.139572 
L 336.951444 188.916517 
L 339.073369 195.364922 
L 341.195294 196.992821 
L 343.317219 157.734954 
L 345.439144 186.53987 
L 347.56107 169.286534 
L 349.682995 179.273466 
L 351.80492 186.066012 
L 353.926845 157.289761 
L 356.04877 170.59148 
L 358.170695 175.67915 
L 360.29262 164.630557 
L 362.414545 181.289819 
L 364.536471 191.826903 
L 366.658396 184.301202 
L 368.780321 184.389061 
L 370.902246 189.722996 
L 373.024171 194.403977 
L 375.146096 176.673835 
L 377.268021 186.223296 
L 379.389947 173.943399 
L 381.511872 172.744462 
L 383.633797 183.290153 
L 385.755722 172.033052 
L 387.877647 175.82559 
L 389.999572 187.740061 
L 392.121497 175.445438 
L 394.243422 185.957094 
L 396.365348 162.10546 
L 398.487273 187.092267 
L 398.487273 187.092267 
" clip-path="url(#pdc9cffbeda)" style="fill: none; stroke: #32cd32; stroke-opacity: 0.8; stroke-width: 0.5; stroke-linecap: square"/>
   </g>
   <g id="line2d_18">
    <path d="M 73.832727 253.49345 
L 75.954652 254.466448 
L 78.076578 250.044737 
L 80.198503 255.580207 
L 82.320428 233.291991 
L 84.442353 236.171274 
L 86.564278 247.092975 
L 88.686203 274.866852 
L 90.808128 239.94448 
L 92.930053 264.378532 
L 95.051979 251.647432 
L 97.173904 245.235566 
L 99.295829 243.178753 
L 101.417754 255.477212 
L 103.539679 258.65504 
L 105.661604 257.218003 
L 107.783529 242.268518 
L 109.905455 242.316925 
L 112.02738 252.483847 
L 114.149305 250.875096 
L 116.27123 256.30921 
L 118.393155 231.137919 
L 122.637005 264.004889 
L 124.75893 230.147281 
L 126.880856 255.763583 
L 129.002781 238.226985 
L 131.124706 222.913987 
L 133.246631 239.46473 
L 135.368556 229.853299 
L 137.490481 232.879893 
L 139.612406 226.5574 
L 141.734332 215.078746 
L 143.856257 228.796419 
L 145.978182 235.904147 
L 148.100107 250.228213 
L 150.222032 236.089786 
L 152.343957 231.375914 
L 154.465882 273.135555 
L 156.587807 237.28824 
L 158.709733 238.77939 
L 160.831658 246.944215 
L 162.953583 226.927285 
L 165.075508 237.29017 
L 167.197433 223.847581 
L 169.319358 226.402155 
L 171.441283 223.747878 
L 173.563209 231.906793 
L 175.685134 243.979883 
L 177.807059 231.087457 
L 179.928984 219.964125 
L 182.050909 231.455643 
L 184.172834 234.203855 
L 186.294759 277.675296 
L 188.416684 261.326699 
L 190.53861 275.420761 
L 192.660535 257.210181 
L 194.78246 243.916668 
L 196.904385 231.975578 
L 199.02631 250.524527 
L 201.148235 259.219896 
L 203.27016 265.721257 
L 205.392086 243.808391 
L 207.514011 248.446962 
L 209.635936 267.341856 
L 211.757861 242.339722 
L 213.879786 254.532446 
L 216.001711 237.977913 
L 218.123636 242.200548 
L 220.245561 236.991765 
L 222.367487 240.218516 
L 224.489412 263.05223 
L 226.611337 235.880078 
L 228.733262 264.590807 
L 230.855187 246.674553 
L 232.977112 238.294249 
L 235.099037 251.60832 
L 237.220963 250.738784 
L 239.342888 238.661874 
L 241.464813 234.435436 
L 243.586738 243.098147 
L 245.708663 243.375943 
L 247.830588 233.999579 
L 249.952513 247.033714 
L 252.074439 256.084526 
L 254.196364 228.79321 
L 256.318289 234.039049 
L 258.440214 241.695584 
L 260.562139 240.046559 
L 262.684064 236.577772 
L 264.805989 228.871818 
L 266.927914 236.265349 
L 269.04984 228.020509 
L 271.171765 213.786319 
L 273.29369 234.839595 
L 275.415615 237.323076 
L 277.53754 244.806308 
L 279.659465 239.433014 
L 281.78139 257.412435 
L 283.903316 246.748287 
L 286.025241 233.76025 
L 288.147166 243.674424 
L 290.269091 242.901374 
L 292.391016 263.527091 
L 294.512941 238.779891 
L 296.634866 232.293115 
L 298.756791 295.488 
L 300.878717 250.054566 
L 303.000642 245.646542 
L 305.122567 245.147999 
L 307.244492 254.342258 
L 309.366417 262.220428 
L 311.488342 259.218037 
L 313.610267 254.23658 
L 315.732193 233.589511 
L 317.854118 258.85152 
L 319.976043 265.234987 
L 322.097968 246.481772 
L 324.219893 255.182718 
L 326.341818 262.543384 
L 328.463743 283.524089 
L 330.585668 265.661398 
L 332.707594 254.902088 
L 334.829519 287.153377 
L 336.951444 256.754173 
L 339.073369 250.273379 
L 341.195294 251.783756 
L 343.317219 274.573817 
L 345.439144 264.061122 
L 347.56107 270.666225 
L 349.682995 245.008355 
L 351.80492 261.578003 
L 353.926845 258.863554 
L 356.04877 243.468417 
L 358.170695 271.975688 
L 360.29262 243.159823 
L 362.414545 241.446954 
L 364.536471 242.472227 
L 366.658396 246.413326 
L 368.780321 251.308477 
L 370.902246 251.086825 
L 373.024171 262.614618 
L 375.146096 243.110419 
L 377.268021 218.587158 
L 379.389947 232.477286 
L 381.511872 240.181159 
L 383.633797 242.405787 
L 385.755722 233.50226 
L 387.877647 252.400629 
L 389.999572 247.504942 
L 392.121497 270.942601 
L 394.243422 237.607279 
L 396.365348 251.947643 
L 398.487273 245.422592 
L 398.487273 245.422592 
" clip-path="url(#pdc9cffbeda)" style="fill: none; stroke: #32cd32; stroke-opacity: 0.8; stroke-width: 0.5; stroke-linecap: square"/>
   </g>
   <g id="line2d_19">
    <path d="M 73.832727 193.889347 
L 75.954652 188.927046 
L 78.076578 193.661457 
L 80.198503 192.594584 
L 82.320428 195.579602 
L 84.442353 186.571666 
L 86.564278 186.437477 
L 88.686203 187.953333 
L 90.808128 184.71743 
L 92.930053 191.239617 
L 95.051979 196.904149 
L 97.173904 192.873164 
L 99.295829 194.606871 
L 101.417754 200.49069 
L 103.539679 194.306774 
L 105.661604 199.230143 
L 107.783529 184.391354 
L 109.905455 194.441887 
L 112.02738 193.625096 
L 114.149305 196.272648 
L 116.27123 201.197554 
L 118.393155 193.748587 
L 120.51508 196.361311 
L 122.637005 192.742214 
L 124.75893 180.254636 
L 126.880856 191.762798 
L 129.002781 195.823612 
L 131.124706 191.302323 
L 133.246631 203.750645 
L 135.368556 194.736914 
L 139.612406 198.205483 
L 141.734332 199.377639 
L 143.856257 199.406761 
L 145.978182 198.7873 
L 148.100107 201.465308 
L 150.222032 191.70495 
L 152.343957 189.427284 
L 154.465882 197.963299 
L 156.587807 198.105916 
L 158.709733 194.195934 
L 160.831658 197.838324 
L 162.953583 196.546273 
L 165.075508 203.155724 
L 167.197433 198.977922 
L 169.319358 195.126401 
L 171.441283 196.284248 
L 173.563209 199.968332 
L 175.685134 196.972324 
L 177.807059 193.734492 
L 179.928984 194.607296 
L 182.050909 194.226149 
L 184.172834 194.91781 
L 186.294759 209.053084 
L 188.416684 159.072359 
L 190.53861 191.390051 
L 192.660535 196.873819 
L 194.78246 198.643713 
L 196.904385 193.189782 
L 199.02631 209.12996 
L 201.148235 192.413108 
L 203.27016 184.433916 
L 205.392086 193.888667 
L 207.514011 207.637255 
L 209.635936 192.89437 
L 211.757861 188.63093 
L 213.879786 192.421359 
L 218.123636 187.369333 
L 220.245561 191.930509 
L 222.367487 192.064026 
L 224.489412 202.401863 
L 226.611337 196.615978 
L 228.733262 196.638933 
L 230.855187 191.92086 
L 232.977112 188.65844 
L 235.099037 197.760092 
L 237.220963 190.159162 
L 239.342888 192.370581 
L 241.464813 187.620944 
L 243.586738 192.207368 
L 245.708663 187.487863 
L 247.830588 200.832854 
L 249.952513 196.123613 
L 252.074439 195.292971 
L 254.196364 188.568509 
L 256.318289 196.054219 
L 258.440214 190.705452 
L 260.562139 196.262531 
L 262.684064 191.010611 
L 264.805989 196.134028 
L 266.927914 195.155163 
L 269.04984 206.343261 
L 271.171765 191.385707 
L 273.29369 190.621215 
L 275.415615 196.107482 
L 277.53754 190.715421 
L 279.659465 188.8207 
L 281.78139 183.585967 
L 283.903316 190.804057 
L 286.025241 194.479386 
L 288.147166 196.321935 
L 290.269091 195.970868 
L 292.391016 203.089157 
L 294.512941 183.691722 
L 296.634866 176.966056 
L 298.756791 205.419553 
L 300.878717 192.578444 
L 303.000642 182.666624 
L 305.122567 184.829508 
L 307.244492 197.578012 
L 309.366417 208.789156 
L 311.488342 181.790776 
L 313.610267 199.146116 
L 315.732193 179.234556 
L 317.854118 189.065779 
L 319.976043 183.680453 
L 322.097968 187.795188 
L 324.219893 192.694051 
L 326.341818 199.853749 
L 328.463743 191.991912 
L 330.585668 186.895255 
L 332.707594 200.281962 
L 334.829519 207.888648 
L 336.951444 179.800944 
L 339.073369 185.960986 
L 341.195294 192.981069 
L 343.317219 191.718241 
L 345.439144 192.728902 
L 347.56107 182.278385 
L 349.682995 190.87771 
L 351.80492 183.201223 
L 353.926845 183.476562 
L 356.04877 191.961169 
L 358.170695 197.604738 
L 360.29262 196.618676 
L 362.414545 182.512634 
L 364.536471 181.451401 
L 366.658396 186.724332 
L 368.780321 193.519152 
L 370.902246 199.25711 
L 373.024171 194.321807 
L 375.146096 189.76439 
L 377.268021 193.088752 
L 379.389947 178.690903 
L 381.511872 178.396691 
L 383.633797 197.870683 
L 385.755722 187.818631 
L 387.877647 201.404465 
L 389.999572 197.882666 
L 392.121497 199.12118 
L 394.243422 184.674436 
L 396.365348 203.722235 
L 398.487273 200.290933 
L 398.487273 200.290933 
" clip-path="url(#pdc9cffbeda)" style="fill: none; stroke: #ff0000; stroke-opacity: 0.8; stroke-width: 0.5; stroke-linecap: square"/>
   </g>
   <g id="line2d_20">
    <path d="M 73.832727 144.837009 
L 75.954652 141.064577 
L 78.076578 155.824588 
L 80.198503 144.864471 
L 82.320428 171.44969 
L 84.442353 154.041097 
L 86.564278 142.634298 
L 88.686203 158.20611 
L 90.808128 85.722902 
L 92.930053 163.314985 
L 95.051979 167.272632 
L 97.173904 150.273988 
L 99.295829 165.026066 
L 101.417754 142.63077 
L 103.539679 161.852592 
L 105.661604 165.544176 
L 107.783529 152.96436 
L 109.905455 168.234472 
L 112.02738 172.555862 
L 114.149305 167.26862 
L 116.27123 162.693378 
L 118.393155 173.30643 
L 120.51508 158.514063 
L 122.637005 136.479133 
L 124.75893 156.74896 
L 126.880856 172.045482 
L 129.002781 156.273898 
L 131.124706 151.017361 
L 133.246631 168.760648 
L 135.368556 162.045061 
L 137.490481 172.748832 
L 139.612406 165.920004 
L 141.734332 183.993821 
L 143.856257 184.216647 
L 145.978182 167.666976 
L 148.100107 181.411856 
L 150.222032 157.287839 
L 152.343957 169.014024 
L 154.465882 160.812292 
L 156.587807 172.928346 
L 158.709733 162.855396 
L 160.831658 164.444691 
L 162.953583 176.874535 
L 165.075508 187.35485 
L 167.197433 185.966476 
L 169.319358 176.34439 
L 171.441283 182.142012 
L 173.563209 164.130924 
L 175.685134 171.810391 
L 177.807059 172.194116 
L 179.928984 173.324783 
L 182.050909 178.081621 
L 184.172834 179.939536 
L 186.294759 163.270324 
L 188.416684 53.568 
L 190.53861 135.587165 
L 192.660535 146.846069 
L 194.78246 170.921844 
L 196.904385 168.459534 
L 199.02631 177.869727 
L 201.148235 154.176084 
L 203.27016 147.86265 
L 207.514011 180.747932 
L 209.635936 148.753538 
L 211.757861 141.391467 
L 213.879786 160.393409 
L 216.001711 160.902702 
L 218.123636 159.061869 
L 220.245561 158.040914 
L 222.367487 167.815688 
L 224.489412 163.102008 
L 226.611337 173.438977 
L 228.733262 176.770236 
L 230.855187 166.564435 
L 232.977112 135.819757 
L 235.099037 161.231186 
L 237.220963 164.169652 
L 239.342888 165.610979 
L 241.464813 166.639416 
L 243.586738 159.377188 
L 245.708663 151.581729 
L 247.830588 185.44024 
L 249.952513 150.01365 
L 252.074439 156.270203 
L 254.196364 160.238364 
L 256.318289 162.99844 
L 258.440214 143.938149 
L 260.562139 183.445399 
L 262.684064 156.02775 
L 264.805989 163.098331 
L 266.927914 168.024224 
L 269.04984 185.961963 
L 271.171765 175.206043 
L 273.29369 158.939808 
L 275.415615 181.745674 
L 277.53754 134.146961 
L 279.659465 149.521573 
L 281.78139 153.078379 
L 283.903316 165.64321 
L 286.025241 157.186787 
L 288.147166 168.683593 
L 290.269091 162.402001 
L 292.391016 154.958243 
L 294.512941 164.019705 
L 296.634866 120.657933 
L 298.756791 154.87858 
L 300.878717 145.521549 
L 303.000642 157.182274 
L 305.122567 159.077637 
L 307.244492 135.95344 
L 309.366417 157.353318 
L 311.488342 143.878812 
L 313.610267 163.970588 
L 315.732193 120.714818 
L 317.854118 144.344564 
L 319.976043 141.425027 
L 322.097968 155.469693 
L 324.219893 140.362146 
L 326.341818 118.322743 
L 328.463743 139.541327 
L 330.585668 128.686506 
L 332.707594 132.904474 
L 334.829519 153.592076 
L 336.951444 132.642526 
L 339.073369 151.184288 
L 341.195294 161.040192 
L 343.317219 134.161264 
L 345.439144 156.536518 
L 347.56107 127.176552 
L 349.682995 161.683274 
L 351.80492 148.884538 
L 353.926845 124.140883 
L 356.04877 149.816729 
L 358.170695 159.783494 
L 360.29262 162.935125 
L 362.414545 159.416943 
L 364.536471 161.248987 
L 366.658396 158.075346 
L 368.780321 169.283146 
L 370.902246 174.488758 
L 373.024171 166.532259 
L 375.146096 157.705815 
L 377.268021 176.715705 
L 379.389947 145.387831 
L 381.511872 140.846207 
L 383.633797 161.814032 
L 385.755722 157.822413 
L 387.877647 163.196069 
L 389.999572 171.393112 
L 392.121497 163.777862 
L 394.243422 151.662127 
L 396.365348 150.013859 
L 398.487273 174.452717 
L 398.487273 174.452717 
" clip-path="url(#pdc9cffbeda)" style="fill: none; stroke: #f08080; stroke-opacity: 0.8; stroke-width: 0.5; stroke-linecap: square"/>
   </g>
   <g id="line2d_21">
    <path d="M 73.832727 242.110463 
L 75.954652 222.338504 
L 78.076578 239.283944 
L 80.198503 243.740175 
L 82.320428 212.014405 
L 84.442353 220.2713 
L 86.564278 225.547148 
L 88.686203 244.075132 
L 90.808128 220.878193 
L 92.930053 218.698783 
L 95.051979 249.589432 
L 97.173904 232.864369 
L 99.295829 230.710105 
L 101.417754 244.214723 
L 103.539679 237.982054 
L 105.661604 236.129459 
L 107.783529 216.575682 
L 109.905455 220.04738 
L 112.02738 234.63884 
L 114.149305 234.128389 
L 116.27123 239.916543 
L 118.393155 222.080932 
L 120.51508 222.649164 
L 122.637005 227.635326 
L 124.75893 200.576914 
L 126.880856 236.631697 
L 129.002781 225.114262 
L 131.124706 208.105097 
L 133.246631 225.388047 
L 135.368556 214.207944 
L 137.490481 212.736559 
L 139.612406 214.894305 
L 141.734332 208.48624 
L 143.856257 219.821515 
L 145.978182 235.393218 
L 148.100107 234.418721 
L 150.222032 218.965271 
L 152.343957 206.482963 
L 154.465882 253.628713 
L 156.587807 231.331098 
L 158.709733 230.099031 
L 160.831658 228.23282 
L 162.953583 215.505514 
L 165.075508 216.434578 
L 167.197433 219.858251 
L 169.319358 211.303931 
L 171.441283 206.957595 
L 173.563209 225.781876 
L 175.685134 232.806934 
L 177.807059 214.459816 
L 179.928984 210.137524 
L 182.050909 222.854666 
L 184.172834 222.722241 
L 186.294759 241.805178 
L 188.416684 199.766624 
L 190.53861 252.005149 
L 192.660535 240.651131 
L 194.78246 225.120257 
L 196.904385 220.871298 
L 199.02631 235.540053 
L 201.148235 225.883066 
L 203.27016 231.843756 
L 205.392086 216.831466 
L 207.514011 230.653042 
L 209.635936 234.959087 
L 211.757861 233.715121 
L 213.879786 233.931587 
L 216.001711 213.193213 
L 218.123636 216.981496 
L 220.245561 216.154137 
L 222.367487 230.659276 
L 224.489412 261.775695 
L 226.611337 218.495637 
L 228.733262 251.205829 
L 230.855187 212.524451 
L 232.977112 221.533912 
L 235.099037 228.999769 
L 237.220963 227.294668 
L 239.342888 216.22733 
L 241.464813 212.672354 
L 243.586738 225.603766 
L 245.708663 216.722303 
L 247.830588 216.22715 
L 249.952513 233.237752 
L 252.074439 231.850817 
L 254.196364 217.29089 
L 256.318289 216.261582 
L 258.440214 215.052783 
L 260.562139 213.706365 
L 262.684064 214.296567 
L 264.805989 215.780285 
L 266.927914 223.657987 
L 269.04984 221.027947 
L 271.171765 204.632642 
L 273.29369 216.768647 
L 275.415615 213.7235 
L 277.53754 229.861155 
L 279.659465 213.188104 
L 281.78139 222.9238 
L 283.903316 221.078726 
L 286.025241 213.52461 
L 288.147166 224.351651 
L 290.269091 222.63514 
L 292.391016 258.692647 
L 294.512941 206.415938 
L 296.634866 206.066798 
L 298.756791 269.240045 
L 300.878717 231.053239 
L 303.000642 215.694846 
L 305.122567 234.1961 
L 307.244492 250.08717 
L 309.366417 263.258697 
L 315.732193 208.434308 
L 317.854118 222.858793 
L 319.976043 223.041018 
L 322.097968 225.245087 
L 324.219893 238.601254 
L 326.341818 242.85375 
L 328.463743 251.466639 
L 330.585668 241.900651 
L 332.707594 249.395863 
L 334.829519 284.269998 
L 336.951444 226.658038 
L 339.073369 221.840368 
L 341.195294 223.768805 
L 343.317219 250.554399 
L 345.439144 242.580956 
L 347.56107 255.732306 
L 349.682995 219.309278 
L 351.80492 220.518007 
L 353.926845 225.24594 
L 356.04877 220.191265 
L 358.170695 229.790369 
L 360.29262 227.148607 
L 362.414545 207.537671 
L 364.536471 211.145564 
L 366.658396 219.40162 
L 368.780321 226.509797 
L 370.902246 225.680837 
L 373.024171 242.062266 
L 375.146096 212.315895 
L 377.268021 217.567325 
L 379.389947 215.403906 
L 381.511872 196.224018 
L 383.633797 218.241759 
L 385.755722 204.429033 
L 387.877647 235.683876 
L 389.999572 242.686731 
L 392.121497 276.211256 
L 394.243422 214.181046 
L 396.365348 238.71432 
L 398.487273 222.171726 
L 398.487273 222.171726 
" clip-path="url(#pdc9cffbeda)" style="fill: none; stroke: #f08080; stroke-opacity: 0.8; stroke-width: 0.5; stroke-linecap: square"/>
   </g>
   <g id="patch_3">
    <path d="M 57.6 307.584 
L 57.6 41.472 
" style="fill: none; stroke: #000000; stroke-width: 0.8; stroke-linejoin: miter; stroke-linecap: square"/>
   </g>
   <g id="patch_4">
    <path d="M 414.72 307.584 
L 414.72 41.472 
" style="fill: none; stroke: #000000; stroke-width: 0.8; stroke-linejoin: miter; stroke-linecap: square"/>
   </g>
   <g id="patch_5">
    <path d="M 57.6 307.584 
L 414.72 307.584 
" style="fill: none; stroke: #000000; stroke-width: 0.8; stroke-linejoin: miter; stroke-linecap: square"/>
   </g>
   <g id="patch_6">
    <path d="M 57.6 41.472 
L 414.72 41.472 
" style="fill: none; stroke: #000000; stroke-width: 0.8; stroke-linejoin: miter; stroke-linecap: square"/>
   </g>
   <g id="text_16">
    <!-- 1final_naive_jc_eurusd -->
    <g transform="translate(168.36375 35.472) scale(0.12 -0.12)">
     <defs>
      <path id="DejaVuSans-66" d="M 2375 4863 
L 2375 4384 
L 1825 4384 
Q 1516 4384 1395 4259 
Q 1275 4134 1275 3809 
L 1275 3500 
L 2222 3500 
L 2222 3053 
L 1275 3053 
L 1275 0 
L 697 0 
L 697 3053 
L 147 3053 
L 147 3500 
L 697 3500 
L 697 3744 
Q 697 4328 969 4595 
Q 1241 4863 1831 4863 
L 2375 4863 
z
" transform="scale(0.015625)"/>
      <path id="DejaVuSans-69" d="M 603 3500 
L 1178 3500 
L 1178 0 
L 603 0 
L 603 3500 
z
M 603 4863 
L 1178 4863 
L 1178 4134 
L 603 4134 
L 603 4863 
z
" transform="scale(0.015625)"/>
      <path id="DejaVuSans-6e" d="M 3513 2113 
L 3513 0 
L 2938 0 
L 2938 2094 
Q 2938 2591 2744 2837 
Q 2550 3084 2163 3084 
Q 1697 3084 1428 2787 
Q 1159 2491 1159 1978 
L 1159 0 
L 581 0 
L 581 3500 
L 1159 3500 
L 1159 2956 
Q 1366 3272 1645 3428 
Q 1925 3584 2291 3584 
Q 2894 3584 3203 3211 
Q 3513 2838 3513 2113 
z
" transform="scale(0.015625)"/>
      <path id="DejaVuSans-61" d="M 2194 1759 
Q 1497 1759 1228 1600 
Q 959 1441 959 1056 
Q 959 750 1161 570 
Q 1363 391 1709 391 
Q 2188 391 2477 730 
Q 2766 1069 2766 1631 
L 2766 1759 
L 2194 1759 
z
M 3341 1997 
L 3341 0 
L 2766 0 
L 2766 531 
Q 2569 213 2275 61 
Q 1981 -91 1556 -91 
Q 1019 -91 701 211 
Q 384 513 384 1019 
Q 384 1609 779 1909 
Q 1175 2209 1959 2209 
L 2766 2209 
L 2766 2266 
Q 2766 2663 2505 2880 
Q 2244 3097 1772 3097 
Q 1472 3097 1187 3025 
Q 903 2953 641 2809 
L 641 3341 
Q 956 3463 1253 3523 
Q 1550 3584 1831 3584 
Q 2591 3584 2966 3190 
Q 3341 2797 3341 1997 
z
" transform="scale(0.015625)"/>
      <path id="DejaVuSans-6c" d="M 603 4863 
L 1178 4863 
L 1178 0 
L 603 0 
L 603 4863 
z
" transform="scale(0.015625)"/>
      <path id="DejaVuSans-5f" d="M 3263 -1063 
L 3263 -1509 
L -63 -1509 
L -63 -1063 
L 3263 -1063 
z
" transform="scale(0.015625)"/>
      <path id="DejaVuSans-76" d="M 191 3500 
L 800 3500 
L 1894 563 
L 2988 3500 
L 3597 3500 
L 2284 0 
L 1503 0 
L 191 3500 
z
" transform="scale(0.015625)"/>
      <path id="DejaVuSans-65" d="M 3597 1894 
L 3597 1613 
L 953 1613 
Q 991 1019 1311 708 
Q 1631 397 2203 397 
Q 2534 397 2845 478 
Q 3156 559 3463 722 
L 3463 178 
Q 3153 47 2828 -22 
Q 2503 -91 2169 -91 
Q 1331 -91 842 396 
Q 353 884 353 1716 
Q 353 2575 817 3079 
Q 1281 3584 2069 3584 
Q 2775 3584 3186 3129 
Q 3597 2675 3597 1894 
z
M 3022 2063 
Q 3016 2534 2758 2815 
Q 2500 3097 2075 3097 
Q 1594 3097 1305 2825 
Q 1016 2553 972 2059 
L 3022 2063 
z
" transform="scale(0.015625)"/>
      <path id="DejaVuSans-6a" d="M 603 3500 
L 1178 3500 
L 1178 -63 
Q 1178 -731 923 -1031 
Q 669 -1331 103 -1331 
L -116 -1331 
L -116 -844 
L 38 -844 
Q 366 -844 484 -692 
Q 603 -541 603 -63 
L 603 3500 
z
M 603 4863 
L 1178 4863 
L 1178 4134 
L 603 4134 
L 603 4863 
z
" transform="scale(0.015625)"/>
      <path id="DejaVuSans-63" d="M 3122 3366 
L 3122 2828 
Q 2878 2963 2633 3030 
Q 2388 3097 2138 3097 
Q 1578 3097 1268 2742 
Q 959 2388 959 1747 
Q 959 1106 1268 751 
Q 1578 397 2138 397 
Q 2388 397 2633 464 
Q 2878 531 3122 666 
L 3122 134 
Q 2881 22 2623 -34 
Q 2366 -91 2075 -91 
Q 1284 -91 818 406 
Q 353 903 353 1747 
Q 353 2603 823 3093 
Q 1294 3584 2113 3584 
Q 2378 3584 2631 3529 
Q 2884 3475 3122 3366 
z
" transform="scale(0.015625)"/>
      <path id="DejaVuSans-75" d="M 544 1381 
L 544 3500 
L 1119 3500 
L 1119 1403 
Q 1119 906 1312 657 
Q 1506 409 1894 409 
Q 2359 409 2629 706 
Q 2900 1003 2900 1516 
L 2900 3500 
L 3475 3500 
L 3475 0 
L 2900 0 
L 2900 538 
Q 2691 219 2414 64 
Q 2138 -91 1772 -91 
Q 1169 -91 856 284 
Q 544 659 544 1381 
z
M 1991 3584 
L 1991 3584 
z
" transform="scale(0.015625)"/>
      <path id="DejaVuSans-72" d="M 2631 2963 
Q 2534 3019 2420 3045 
Q 2306 3072 2169 3072 
Q 1681 3072 1420 2755 
Q 1159 2438 1159 1844 
L 1159 0 
L 581 0 
L 581 3500 
L 1159 3500 
L 1159 2956 
Q 1341 3275 1631 3429 
Q 1922 3584 2338 3584 
Q 2397 3584 2469 3576 
Q 2541 3569 2628 3553 
L 2631 2963 
z
" transform="scale(0.015625)"/>
      <path id="DejaVuSans-73" d="M 2834 3397 
L 2834 2853 
Q 2591 2978 2328 3040 
Q 2066 3103 1784 3103 
Q 1356 3103 1142 2972 
Q 928 2841 928 2578 
Q 928 2378 1081 2264 
Q 1234 2150 1697 2047 
L 1894 2003 
Q 2506 1872 2764 1633 
Q 3022 1394 3022 966 
Q 3022 478 2636 193 
Q 2250 -91 1575 -91 
Q 1294 -91 989 -36 
Q 684 19 347 128 
L 347 722 
Q 666 556 975 473 
Q 1284 391 1588 391 
Q 1994 391 2212 530 
Q 2431 669 2431 922 
Q 2431 1156 2273 1281 
Q 2116 1406 1581 1522 
L 1381 1569 
Q 847 1681 609 1914 
Q 372 2147 372 2553 
Q 372 3047 722 3315 
Q 1072 3584 1716 3584 
Q 2034 3584 2315 3537 
Q 2597 3491 2834 3397 
z
" transform="scale(0.015625)"/>
      <path id="DejaVuSans-64" d="M 2906 2969 
L 2906 4863 
L 3481 4863 
L 3481 0 
L 2906 0 
L 2906 525 
Q 2725 213 2448 61 
Q 2172 -91 1784 -91 
Q 1150 -91 751 415 
Q 353 922 353 1747 
Q 353 2572 751 3078 
Q 1150 3584 1784 3584 
Q 2172 3584 2448 3432 
Q 2725 3281 2906 2969 
z
M 947 1747 
Q 947 1113 1208 752 
Q 1469 391 1925 391 
Q 2381 391 2643 752 
Q 2906 1113 2906 1747 
Q 2906 2381 2643 2742 
Q 2381 3103 1925 3103 
Q 1469 3103 1208 2742 
Q 947 2381 947 1747 
z
" transform="scale(0.015625)"/>
     </defs>
     <use xlink:href="#DejaVuSans-31"/>
     <use xlink:href="#DejaVuSans-66" x="63.623047"/>
     <use xlink:href="#DejaVuSans-69" x="98.828125"/>
     <use xlink:href="#DejaVuSans-6e" x="126.611328"/>
     <use xlink:href="#DejaVuSans-61" x="189.990234"/>
     <use xlink:href="#DejaVuSans-6c" x="251.269531"/>
     <use xlink:href="#DejaVuSans-5f" x="279.052734"/>
     <use xlink:href="#DejaVuSans-6e" x="329.052734"/>
     <use xlink:href="#DejaVuSans-61" x="392.431641"/>
     <use xlink:href="#DejaVuSans-69" x="453.710938"/>
     <use xlink:href="#DejaVuSans-76" x="481.494141"/>
     <use xlink:href="#DejaVuSans-65" x="540.673828"/>
     <use xlink:href="#DejaVuSans-5f" x="602.197266"/>
     <use xlink:href="#DejaVuSans-6a" x="652.197266"/>
     <use xlink:href="#DejaVuSans-63" x="679.980469"/>
     <use xlink:href="#DejaVuSans-5f" x="734.960938"/>
     <use xlink:href="#DejaVuSans-65" x="784.960938"/>
     <use xlink:href="#DejaVuSans-75" x="846.484375"/>
     <use xlink:href="#DejaVuSans-72" x="909.863281"/>
     <use xlink:href="#DejaVuSans-75" x="950.976562"/>
     <use xlink:href="#DejaVuSans-73" x="1014.355469"/>
     <use xlink:href="#DejaVuSans-64" x="1066.455078"/>
    </g>
   </g>
   <g id="legend_1">
    <g id="patch_7">
     <path d="M 64.6 137.54075 
L 225.001563 137.54075 
Q 227.001563 137.54075 227.001563 135.54075 
L 227.001563 48.472 
Q 227.001563 46.472 225.001563 46.472 
L 64.6 46.472 
Q 62.6 46.472 62.6 48.472 
L 62.6 135.54075 
Q 62.6 137.54075 64.6 137.54075 
z
" style="fill: #ffffff; opacity: 0.8; stroke: #cccccc; stroke-linejoin: miter"/>
    </g>
    <g id="line2d_22">
     <path d="M 66.6 54.570438 
L 76.6 54.570438 
L 86.6 54.570438 
" style="fill: none; stroke: #008000; stroke-opacity: 0.8; stroke-width: 0.5; stroke-linecap: square"/>
    </g>
    <g id="text_17">
     <!-- Positive predictions -->
     <g transform="translate(94.6 58.070438) scale(0.1 -0.1)">
      <defs>
       <path id="DejaVuSans-50" d="M 1259 4147 
L 1259 2394 
L 2053 2394 
Q 2494 2394 2734 2622 
Q 2975 2850 2975 3272 
Q 2975 3691 2734 3919 
Q 2494 4147 2053 4147 
L 1259 4147 
z
M 628 4666 
L 2053 4666 
Q 2838 4666 3239 4311 
Q 3641 3956 3641 3272 
Q 3641 2581 3239 2228 
Q 2838 1875 2053 1875 
L 1259 1875 
L 1259 0 
L 628 0 
L 628 4666 
z
" transform="scale(0.015625)"/>
       <path id="DejaVuSans-6f" d="M 1959 3097 
Q 1497 3097 1228 2736 
Q 959 2375 959 1747 
Q 959 1119 1226 758 
Q 1494 397 1959 397 
Q 2419 397 2687 759 
Q 2956 1122 2956 1747 
Q 2956 2369 2687 2733 
Q 2419 3097 1959 3097 
z
M 1959 3584 
Q 2709 3584 3137 3096 
Q 3566 2609 3566 1747 
Q 3566 888 3137 398 
Q 2709 -91 1959 -91 
Q 1206 -91 779 398 
Q 353 888 353 1747 
Q 353 2609 779 3096 
Q 1206 3584 1959 3584 
z
" transform="scale(0.015625)"/>
       <path id="DejaVuSans-74" d="M 1172 4494 
L 1172 3500 
L 2356 3500 
L 2356 3053 
L 1172 3053 
L 1172 1153 
Q 1172 725 1289 603 
Q 1406 481 1766 481 
L 2356 481 
L 2356 0 
L 1766 0 
Q 1100 0 847 248 
Q 594 497 594 1153 
L 594 3053 
L 172 3053 
L 172 3500 
L 594 3500 
L 594 4494 
L 1172 4494 
z
" transform="scale(0.015625)"/>
       <path id="DejaVuSans-20" transform="scale(0.015625)"/>
       <path id="DejaVuSans-70" d="M 1159 525 
L 1159 -1331 
L 581 -1331 
L 581 3500 
L 1159 3500 
L 1159 2969 
Q 1341 3281 1617 3432 
Q 1894 3584 2278 3584 
Q 2916 3584 3314 3078 
Q 3713 2572 3713 1747 
Q 3713 922 3314 415 
Q 2916 -91 2278 -91 
Q 1894 -91 1617 61 
Q 1341 213 1159 525 
z
M 3116 1747 
Q 3116 2381 2855 2742 
Q 2594 3103 2138 3103 
Q 1681 3103 1420 2742 
Q 1159 2381 1159 1747 
Q 1159 1113 1420 752 
Q 1681 391 2138 391 
Q 2594 391 2855 752 
Q 3116 1113 3116 1747 
z
" transform="scale(0.015625)"/>
      </defs>
      <use xlink:href="#DejaVuSans-50"/>
      <use xlink:href="#DejaVuSans-6f" x="56.677734"/>
      <use xlink:href="#DejaVuSans-73" x="117.859375"/>
      <use xlink:href="#DejaVuSans-69" x="169.958984"/>
      <use xlink:href="#DejaVuSans-74" x="197.742188"/>
      <use xlink:href="#DejaVuSans-69" x="236.951172"/>
      <use xlink:href="#DejaVuSans-76" x="264.734375"/>
      <use xlink:href="#DejaVuSans-65" x="323.914062"/>
      <use xlink:href="#DejaVuSans-20" x="385.4375"/>
      <use xlink:href="#DejaVuSans-70" x="417.224609"/>
      <use xlink:href="#DejaVuSans-72" x="480.701172"/>
      <use xlink:href="#DejaVuSans-65" x="519.564453"/>
      <use xlink:href="#DejaVuSans-64" x="581.087891"/>
      <use xlink:href="#DejaVuSans-69" x="644.564453"/>
      <use xlink:href="#DejaVuSans-63" x="672.347656"/>
      <use xlink:href="#DejaVuSans-74" x="727.328125"/>
      <use xlink:href="#DejaVuSans-69" x="766.537109"/>
      <use xlink:href="#DejaVuSans-6f" x="794.320312"/>
      <use xlink:href="#DejaVuSans-6e" x="855.501953"/>
      <use xlink:href="#DejaVuSans-73" x="918.880859"/>
     </g>
    </g>
    <g id="line2d_23">
     <path d="M 66.6 69.248563 
L 76.6 69.248563 
L 86.6 69.248563 
" style="fill: none; stroke: #32cd32; stroke-opacity: 0.8; stroke-width: 0.5; stroke-linecap: square"/>
    </g>
    <g id="text_18">
     <!-- Positive predictions max -->
     <g transform="translate(94.6 72.748563) scale(0.1 -0.1)">
      <defs>
       <path id="DejaVuSans-6d" d="M 3328 2828 
Q 3544 3216 3844 3400 
Q 4144 3584 4550 3584 
Q 5097 3584 5394 3201 
Q 5691 2819 5691 2113 
L 5691 0 
L 5113 0 
L 5113 2094 
Q 5113 2597 4934 2840 
Q 4756 3084 4391 3084 
Q 3944 3084 3684 2787 
Q 3425 2491 3425 1978 
L 3425 0 
L 2847 0 
L 2847 2094 
Q 2847 2600 2669 2842 
Q 2491 3084 2119 3084 
Q 1678 3084 1418 2786 
Q 1159 2488 1159 1978 
L 1159 0 
L 581 0 
L 581 3500 
L 1159 3500 
L 1159 2956 
Q 1356 3278 1631 3431 
Q 1906 3584 2284 3584 
Q 2666 3584 2933 3390 
Q 3200 3197 3328 2828 
z
" transform="scale(0.015625)"/>
       <path id="DejaVuSans-78" d="M 3513 3500 
L 2247 1797 
L 3578 0 
L 2900 0 
L 1881 1375 
L 863 0 
L 184 0 
L 1544 1831 
L 300 3500 
L 978 3500 
L 1906 2253 
L 2834 3500 
L 3513 3500 
z
" transform="scale(0.015625)"/>
      </defs>
      <use xlink:href="#DejaVuSans-50"/>
      <use xlink:href="#DejaVuSans-6f" x="56.677734"/>
      <use xlink:href="#DejaVuSans-73" x="117.859375"/>
      <use xlink:href="#DejaVuSans-69" x="169.958984"/>
      <use xlink:href="#DejaVuSans-74" x="197.742188"/>
      <use xlink:href="#DejaVuSans-69" x="236.951172"/>
      <use xlink:href="#DejaVuSans-76" x="264.734375"/>
      <use xlink:href="#DejaVuSans-65" x="323.914062"/>
      <use xlink:href="#DejaVuSans-20" x="385.4375"/>
      <use xlink:href="#DejaVuSans-70" x="417.224609"/>
      <use xlink:href="#DejaVuSans-72" x="480.701172"/>
      <use xlink:href="#DejaVuSans-65" x="519.564453"/>
      <use xlink:href="#DejaVuSans-64" x="581.087891"/>
      <use xlink:href="#DejaVuSans-69" x="644.564453"/>
      <use xlink:href="#DejaVuSans-63" x="672.347656"/>
      <use xlink:href="#DejaVuSans-74" x="727.328125"/>
      <use xlink:href="#DejaVuSans-69" x="766.537109"/>
      <use xlink:href="#DejaVuSans-6f" x="794.320312"/>
      <use xlink:href="#DejaVuSans-6e" x="855.501953"/>
      <use xlink:href="#DejaVuSans-73" x="918.880859"/>
      <use xlink:href="#DejaVuSans-20" x="970.980469"/>
      <use xlink:href="#DejaVuSans-6d" x="1002.767578"/>
      <use xlink:href="#DejaVuSans-61" x="1100.179688"/>
      <use xlink:href="#DejaVuSans-78" x="1161.458984"/>
     </g>
    </g>
    <g id="line2d_24">
     <path d="M 66.6 83.926688 
L 76.6 83.926688 
L 86.6 83.926688 
" style="fill: none; stroke: #32cd32; stroke-opacity: 0.8; stroke-width: 0.5; stroke-linecap: square"/>
    </g>
    <g id="text_19">
     <!-- Positive predictions min -->
     <g transform="translate(94.6 87.426688) scale(0.1 -0.1)">
      <use xlink:href="#DejaVuSans-50"/>
      <use xlink:href="#DejaVuSans-6f" x="56.677734"/>
      <use xlink:href="#DejaVuSans-73" x="117.859375"/>
      <use xlink:href="#DejaVuSans-69" x="169.958984"/>
      <use xlink:href="#DejaVuSans-74" x="197.742188"/>
      <use xlink:href="#DejaVuSans-69" x="236.951172"/>
      <use xlink:href="#DejaVuSans-76" x="264.734375"/>
      <use xlink:href="#DejaVuSans-65" x="323.914062"/>
      <use xlink:href="#DejaVuSans-20" x="385.4375"/>
      <use xlink:href="#DejaVuSans-70" x="417.224609"/>
      <use xlink:href="#DejaVuSans-72" x="480.701172"/>
      <use xlink:href="#DejaVuSans-65" x="519.564453"/>
      <use xlink:href="#DejaVuSans-64" x="581.087891"/>
      <use xlink:href="#DejaVuSans-69" x="644.564453"/>
      <use xlink:href="#DejaVuSans-63" x="672.347656"/>
      <use xlink:href="#DejaVuSans-74" x="727.328125"/>
      <use xlink:href="#DejaVuSans-69" x="766.537109"/>
      <use xlink:href="#DejaVuSans-6f" x="794.320312"/>
      <use xlink:href="#DejaVuSans-6e" x="855.501953"/>
      <use xlink:href="#DejaVuSans-73" x="918.880859"/>
      <use xlink:href="#DejaVuSans-20" x="970.980469"/>
      <use xlink:href="#DejaVuSans-6d" x="1002.767578"/>
      <use xlink:href="#DejaVuSans-69" x="1100.179688"/>
      <use xlink:href="#DejaVuSans-6e" x="1127.962891"/>
     </g>
    </g>
    <g id="line2d_25">
     <path d="M 66.6 98.604813 
L 76.6 98.604813 
L 86.6 98.604813 
" style="fill: none; stroke: #ff0000; stroke-opacity: 0.8; stroke-width: 0.5; stroke-linecap: square"/>
    </g>
    <g id="text_20">
     <!-- Negative predictions -->
     <g transform="translate(94.6 102.104813) scale(0.1 -0.1)">
      <defs>
       <path id="DejaVuSans-4e" d="M 628 4666 
L 1478 4666 
L 3547 763 
L 3547 4666 
L 4159 4666 
L 4159 0 
L 3309 0 
L 1241 3903 
L 1241 0 
L 628 0 
L 628 4666 
z
" transform="scale(0.015625)"/>
       <path id="DejaVuSans-67" d="M 2906 1791 
Q 2906 2416 2648 2759 
Q 2391 3103 1925 3103 
Q 1463 3103 1205 2759 
Q 947 2416 947 1791 
Q 947 1169 1205 825 
Q 1463 481 1925 481 
Q 2391 481 2648 825 
Q 2906 1169 2906 1791 
z
M 3481 434 
Q 3481 -459 3084 -895 
Q 2688 -1331 1869 -1331 
Q 1566 -1331 1297 -1286 
Q 1028 -1241 775 -1147 
L 775 -588 
Q 1028 -725 1275 -790 
Q 1522 -856 1778 -856 
Q 2344 -856 2625 -561 
Q 2906 -266 2906 331 
L 2906 616 
Q 2728 306 2450 153 
Q 2172 0 1784 0 
Q 1141 0 747 490 
Q 353 981 353 1791 
Q 353 2603 747 3093 
Q 1141 3584 1784 3584 
Q 2172 3584 2450 3431 
Q 2728 3278 2906 2969 
L 2906 3500 
L 3481 3500 
L 3481 434 
z
" transform="scale(0.015625)"/>
      </defs>
      <use xlink:href="#DejaVuSans-4e"/>
      <use xlink:href="#DejaVuSans-65" x="74.804688"/>
      <use xlink:href="#DejaVuSans-67" x="136.328125"/>
      <use xlink:href="#DejaVuSans-61" x="199.804688"/>
      <use xlink:href="#DejaVuSans-74" x="261.083984"/>
      <use xlink:href="#DejaVuSans-69" x="300.292969"/>
      <use xlink:href="#DejaVuSans-76" x="328.076172"/>
      <use xlink:href="#DejaVuSans-65" x="387.255859"/>
      <use xlink:href="#DejaVuSans-20" x="448.779297"/>
      <use xlink:href="#DejaVuSans-70" x="480.566406"/>
      <use xlink:href="#DejaVuSans-72" x="544.042969"/>
      <use xlink:href="#DejaVuSans-65" x="582.90625"/>
      <use xlink:href="#DejaVuSans-64" x="644.429688"/>
      <use xlink:href="#DejaVuSans-69" x="707.90625"/>
      <use xlink:href="#DejaVuSans-63" x="735.689453"/>
      <use xlink:href="#DejaVuSans-74" x="790.669922"/>
      <use xlink:href="#DejaVuSans-69" x="829.878906"/>
      <use xlink:href="#DejaVuSans-6f" x="857.662109"/>
      <use xlink:href="#DejaVuSans-6e" x="918.84375"/>
      <use xlink:href="#DejaVuSans-73" x="982.222656"/>
     </g>
    </g>
    <g id="line2d_26">
     <path d="M 66.6 113.282938 
L 76.6 113.282938 
L 86.6 113.282938 
" style="fill: none; stroke: #f08080; stroke-opacity: 0.8; stroke-width: 0.5; stroke-linecap: square"/>
    </g>
    <g id="text_21">
     <!-- Negative predictions max -->
     <g transform="translate(94.6 116.782938) scale(0.1 -0.1)">
      <use xlink:href="#DejaVuSans-4e"/>
      <use xlink:href="#DejaVuSans-65" x="74.804688"/>
      <use xlink:href="#DejaVuSans-67" x="136.328125"/>
      <use xlink:href="#DejaVuSans-61" x="199.804688"/>
      <use xlink:href="#DejaVuSans-74" x="261.083984"/>
      <use xlink:href="#DejaVuSans-69" x="300.292969"/>
      <use xlink:href="#DejaVuSans-76" x="328.076172"/>
      <use xlink:href="#DejaVuSans-65" x="387.255859"/>
      <use xlink:href="#DejaVuSans-20" x="448.779297"/>
      <use xlink:href="#DejaVuSans-70" x="480.566406"/>
      <use xlink:href="#DejaVuSans-72" x="544.042969"/>
      <use xlink:href="#DejaVuSans-65" x="582.90625"/>
      <use xlink:href="#DejaVuSans-64" x="644.429688"/>
      <use xlink:href="#DejaVuSans-69" x="707.90625"/>
      <use xlink:href="#DejaVuSans-63" x="735.689453"/>
      <use xlink:href="#DejaVuSans-74" x="790.669922"/>
      <use xlink:href="#DejaVuSans-69" x="829.878906"/>
      <use xlink:href="#DejaVuSans-6f" x="857.662109"/>
      <use xlink:href="#DejaVuSans-6e" x="918.84375"/>
      <use xlink:href="#DejaVuSans-73" x="982.222656"/>
      <use xlink:href="#DejaVuSans-20" x="1034.322266"/>
      <use xlink:href="#DejaVuSans-6d" x="1066.109375"/>
      <use xlink:href="#DejaVuSans-61" x="1163.521484"/>
      <use xlink:href="#DejaVuSans-78" x="1224.800781"/>
     </g>
    </g>
    <g id="line2d_27">
     <path d="M 66.6 127.961063 
L 76.6 127.961063 
L 86.6 127.961063 
" style="fill: none; stroke: #f08080; stroke-opacity: 0.8; stroke-width: 0.5; stroke-linecap: square"/>
    </g>
    <g id="text_22">
     <!-- Negative predictions min -->
     <g transform="translate(94.6 131.461063) scale(0.1 -0.1)">
      <use xlink:href="#DejaVuSans-4e"/>
      <use xlink:href="#DejaVuSans-65" x="74.804688"/>
      <use xlink:href="#DejaVuSans-67" x="136.328125"/>
      <use xlink:href="#DejaVuSans-61" x="199.804688"/>
      <use xlink:href="#DejaVuSans-74" x="261.083984"/>
      <use xlink:href="#DejaVuSans-69" x="300.292969"/>
      <use xlink:href="#DejaVuSans-76" x="328.076172"/>
      <use xlink:href="#DejaVuSans-65" x="387.255859"/>
      <use xlink:href="#DejaVuSans-20" x="448.779297"/>
      <use xlink:href="#DejaVuSans-70" x="480.566406"/>
      <use xlink:href="#DejaVuSans-72" x="544.042969"/>
      <use xlink:href="#DejaVuSans-65" x="582.90625"/>
      <use xlink:href="#DejaVuSans-64" x="644.429688"/>
      <use xlink:href="#DejaVuSans-69" x="707.90625"/>
      <use xlink:href="#DejaVuSans-63" x="735.689453"/>
      <use xlink:href="#DejaVuSans-74" x="790.669922"/>
      <use xlink:href="#DejaVuSans-69" x="829.878906"/>
      <use xlink:href="#DejaVuSans-6f" x="857.662109"/>
      <use xlink:href="#DejaVuSans-6e" x="918.84375"/>
      <use xlink:href="#DejaVuSans-73" x="982.222656"/>
      <use xlink:href="#DejaVuSans-20" x="1034.322266"/>
      <use xlink:href="#DejaVuSans-6d" x="1066.109375"/>
      <use xlink:href="#DejaVuSans-69" x="1163.521484"/>
      <use xlink:href="#DejaVuSans-6e" x="1191.304688"/>
     </g>
    </g>
   </g>
  </g>
 </g>
 <defs>
  <clipPath id="pdc9cffbeda">
   <rect x="57.6" y="41.472" width="357.12" height="266.112"/>
  </clipPath>
 </defs>
</svg>
