<?xml version="1.0" encoding="utf-8" standalone="no"?>
<!DOCTYPE svg PUBLIC "-//W3C//DTD SVG 1.1//EN"
  "http://www.w3.org/Graphics/SVG/1.1/DTD/svg11.dtd">
<svg xmlns:xlink="http://www.w3.org/1999/xlink" width="460.8pt" height="345.6pt" viewBox="0 0 460.8 345.6" xmlns="http://www.w3.org/2000/svg" version="1.1">
 <metadata>
  <rdf:RDF xmlns:dc="http://purl.org/dc/elements/1.1/" xmlns:cc="http://creativecommons.org/ns#" xmlns:rdf="http://www.w3.org/1999/02/22-rdf-syntax-ns#">
   <cc:Work>
    <dc:type rdf:resource="http://purl.org/dc/dcmitype/StillImage"/>
    <dc:date>2024-09-06T00:42:55.814132</dc:date>
    <dc:format>image/svg+xml</dc:format>
    <dc:creator>
     <cc:Agent>
      <dc:title>Matplotlib v3.9.0, https://matplotlib.org/</dc:title>
     </cc:Agent>
    </dc:creator>
   </cc:Work>
  </rdf:RDF>
 </metadata>
 <defs>
  <style type="text/css">*{stroke-linejoin: round; stroke-linecap: butt}</style>
 </defs>
 <g id="figure_1">
  <g id="patch_1">
   <path d="M 0 345.6 
L 460.8 345.6 
L 460.8 0 
L 0 0 
z
" style="fill: #ffffff"/>
  </g>
  <g id="axes_1">
   <g id="patch_2">
    <path d="M 57.6 307.584 
L 414.72 307.584 
L 414.72 41.472 
L 57.6 41.472 
z
" style="fill: #ffffff"/>
   </g>
   <g id="matplotlib.axis_1">
    <g id="xtick_1">
     <g id="line2d_1">
      <defs>
       <path id="m925ca5d93e" d="M 0 0 
L 0 3.5 
" style="stroke: #000000; stroke-width: 0.8"/>
      </defs>
      <g>
       <use xlink:href="#m925ca5d93e" x="73.832727" y="307.584" style="stroke: #000000; stroke-width: 0.8"/>
      </g>
     </g>
     <g id="text_1">
      <!-- 0 -->
      <g transform="translate(70.651477 322.182437) scale(0.1 -0.1)">
       <defs>
        <path id="DejaVuSans-30" d="M 2034 4250 
Q 1547 4250 1301 3770 
Q 1056 3291 1056 2328 
Q 1056 1369 1301 889 
Q 1547 409 2034 409 
Q 2525 409 2770 889 
Q 3016 1369 3016 2328 
Q 3016 3291 2770 3770 
Q 2525 4250 2034 4250 
z
M 2034 4750 
Q 2819 4750 3233 4129 
Q 3647 3509 3647 2328 
Q 3647 1150 3233 529 
Q 2819 -91 2034 -91 
Q 1250 -91 836 529 
Q 422 1150 422 2328 
Q 422 3509 836 4129 
Q 1250 4750 2034 4750 
z
" transform="scale(0.015625)"/>
       </defs>
       <use xlink:href="#DejaVuSans-30"/>
      </g>
     </g>
    </g>
    <g id="xtick_2">
     <g id="line2d_2">
      <g>
       <use xlink:href="#m925ca5d93e" x="149.333784" y="307.584" style="stroke: #000000; stroke-width: 0.8"/>
      </g>
     </g>
     <g id="text_2">
      <!-- 50 -->
      <g transform="translate(142.971284 322.182437) scale(0.1 -0.1)">
       <defs>
        <path id="DejaVuSans-35" d="M 691 4666 
L 3169 4666 
L 3169 4134 
L 1269 4134 
L 1269 2991 
Q 1406 3038 1543 3061 
Q 1681 3084 1819 3084 
Q 2600 3084 3056 2656 
Q 3513 2228 3513 1497 
Q 3513 744 3044 326 
Q 2575 -91 1722 -91 
Q 1428 -91 1123 -41 
Q 819 9 494 109 
L 494 744 
Q 775 591 1075 516 
Q 1375 441 1709 441 
Q 2250 441 2565 725 
Q 2881 1009 2881 1497 
Q 2881 1984 2565 2268 
Q 2250 2553 1709 2553 
Q 1456 2553 1204 2497 
Q 953 2441 691 2322 
L 691 4666 
z
" transform="scale(0.015625)"/>
       </defs>
       <use xlink:href="#DejaVuSans-35"/>
       <use xlink:href="#DejaVuSans-30" x="63.623047"/>
      </g>
     </g>
    </g>
    <g id="xtick_3">
     <g id="line2d_3">
      <g>
       <use xlink:href="#m925ca5d93e" x="224.834841" y="307.584" style="stroke: #000000; stroke-width: 0.8"/>
      </g>
     </g>
     <g id="text_3">
      <!-- 100 -->
      <g transform="translate(215.291091 322.182437) scale(0.1 -0.1)">
       <defs>
        <path id="DejaVuSans-31" d="M 794 531 
L 1825 531 
L 1825 4091 
L 703 3866 
L 703 4441 
L 1819 4666 
L 2450 4666 
L 2450 531 
L 3481 531 
L 3481 0 
L 794 0 
L 794 531 
z
" transform="scale(0.015625)"/>
       </defs>
       <use xlink:href="#DejaVuSans-31"/>
       <use xlink:href="#DejaVuSans-30" x="63.623047"/>
       <use xlink:href="#DejaVuSans-30" x="127.246094"/>
      </g>
     </g>
    </g>
    <g id="xtick_4">
     <g id="line2d_4">
      <g>
       <use xlink:href="#m925ca5d93e" x="300.335899" y="307.584" style="stroke: #000000; stroke-width: 0.8"/>
      </g>
     </g>
     <g id="text_4">
      <!-- 150 -->
      <g transform="translate(290.792149 322.182437) scale(0.1 -0.1)">
       <use xlink:href="#DejaVuSans-31"/>
       <use xlink:href="#DejaVuSans-35" x="63.623047"/>
       <use xlink:href="#DejaVuSans-30" x="127.246094"/>
      </g>
     </g>
    </g>
    <g id="xtick_5">
     <g id="line2d_5">
      <g>
       <use xlink:href="#m925ca5d93e" x="375.836956" y="307.584" style="stroke: #000000; stroke-width: 0.8"/>
      </g>
     </g>
     <g id="text_5">
      <!-- 200 -->
      <g transform="translate(366.293206 322.182437) scale(0.1 -0.1)">
       <defs>
        <path id="DejaVuSans-32" d="M 1228 531 
L 3431 531 
L 3431 0 
L 469 0 
L 469 531 
Q 828 903 1448 1529 
Q 2069 2156 2228 2338 
Q 2531 2678 2651 2914 
Q 2772 3150 2772 3378 
Q 2772 3750 2511 3984 
Q 2250 4219 1831 4219 
Q 1534 4219 1204 4116 
Q 875 4013 500 3803 
L 500 4441 
Q 881 4594 1212 4672 
Q 1544 4750 1819 4750 
Q 2544 4750 2975 4387 
Q 3406 4025 3406 3419 
Q 3406 3131 3298 2873 
Q 3191 2616 2906 2266 
Q 2828 2175 2409 1742 
Q 1991 1309 1228 531 
z
" transform="scale(0.015625)"/>
       </defs>
       <use xlink:href="#DejaVuSans-32"/>
       <use xlink:href="#DejaVuSans-30" x="63.623047"/>
       <use xlink:href="#DejaVuSans-30" x="127.246094"/>
      </g>
     </g>
    </g>
   </g>
   <g id="matplotlib.axis_2">
    <g id="ytick_1">
     <g id="line2d_6">
      <defs>
       <path id="md24eee23db" d="M 0 0 
L -3.5 0 
" style="stroke: #000000; stroke-width: 0.8"/>
      </defs>
      <g>
       <use xlink:href="#md24eee23db" x="57.6" y="294.929791" style="stroke: #000000; stroke-width: 0.8"/>
      </g>
     </g>
     <g id="text_6">
      <!-- 5000 -->
      <g transform="translate(25.15 298.72901) scale(0.1 -0.1)">
       <use xlink:href="#DejaVuSans-35"/>
       <use xlink:href="#DejaVuSans-30" x="63.623047"/>
       <use xlink:href="#DejaVuSans-30" x="127.246094"/>
       <use xlink:href="#DejaVuSans-30" x="190.869141"/>
      </g>
     </g>
    </g>
    <g id="ytick_2">
     <g id="line2d_7">
      <g>
       <use xlink:href="#md24eee23db" x="57.6" y="263.213393" style="stroke: #000000; stroke-width: 0.8"/>
      </g>
     </g>
     <g id="text_7">
      <!-- 5500 -->
      <g transform="translate(25.15 267.012612) scale(0.1 -0.1)">
       <use xlink:href="#DejaVuSans-35"/>
       <use xlink:href="#DejaVuSans-35" x="63.623047"/>
       <use xlink:href="#DejaVuSans-30" x="127.246094"/>
       <use xlink:href="#DejaVuSans-30" x="190.869141"/>
      </g>
     </g>
    </g>
    <g id="ytick_3">
     <g id="line2d_8">
      <g>
       <use xlink:href="#md24eee23db" x="57.6" y="231.496995" style="stroke: #000000; stroke-width: 0.8"/>
      </g>
     </g>
     <g id="text_8">
      <!-- 6000 -->
      <g transform="translate(25.15 235.296213) scale(0.1 -0.1)">
       <defs>
        <path id="DejaVuSans-36" d="M 2113 2584 
Q 1688 2584 1439 2293 
Q 1191 2003 1191 1497 
Q 1191 994 1439 701 
Q 1688 409 2113 409 
Q 2538 409 2786 701 
Q 3034 994 3034 1497 
Q 3034 2003 2786 2293 
Q 2538 2584 2113 2584 
z
M 3366 4563 
L 3366 3988 
Q 3128 4100 2886 4159 
Q 2644 4219 2406 4219 
Q 1781 4219 1451 3797 
Q 1122 3375 1075 2522 
Q 1259 2794 1537 2939 
Q 1816 3084 2150 3084 
Q 2853 3084 3261 2657 
Q 3669 2231 3669 1497 
Q 3669 778 3244 343 
Q 2819 -91 2113 -91 
Q 1303 -91 875 529 
Q 447 1150 447 2328 
Q 447 3434 972 4092 
Q 1497 4750 2381 4750 
Q 2619 4750 2861 4703 
Q 3103 4656 3366 4563 
z
" transform="scale(0.015625)"/>
       </defs>
       <use xlink:href="#DejaVuSans-36"/>
       <use xlink:href="#DejaVuSans-30" x="63.623047"/>
       <use xlink:href="#DejaVuSans-30" x="127.246094"/>
       <use xlink:href="#DejaVuSans-30" x="190.869141"/>
      </g>
     </g>
    </g>
    <g id="ytick_4">
     <g id="line2d_9">
      <g>
       <use xlink:href="#md24eee23db" x="57.6" y="199.780596" style="stroke: #000000; stroke-width: 0.8"/>
      </g>
     </g>
     <g id="text_9">
      <!-- 6500 -->
      <g transform="translate(25.15 203.579815) scale(0.1 -0.1)">
       <use xlink:href="#DejaVuSans-36"/>
       <use xlink:href="#DejaVuSans-35" x="63.623047"/>
       <use xlink:href="#DejaVuSans-30" x="127.246094"/>
       <use xlink:href="#DejaVuSans-30" x="190.869141"/>
      </g>
     </g>
    </g>
    <g id="ytick_5">
     <g id="line2d_10">
      <g>
       <use xlink:href="#md24eee23db" x="57.6" y="168.064198" style="stroke: #000000; stroke-width: 0.8"/>
      </g>
     </g>
     <g id="text_10">
      <!-- 7000 -->
      <g transform="translate(25.15 171.863417) scale(0.1 -0.1)">
       <defs>
        <path id="DejaVuSans-37" d="M 525 4666 
L 3525 4666 
L 3525 4397 
L 1831 0 
L 1172 0 
L 2766 4134 
L 525 4134 
L 525 4666 
z
" transform="scale(0.015625)"/>
       </defs>
       <use xlink:href="#DejaVuSans-37"/>
       <use xlink:href="#DejaVuSans-30" x="63.623047"/>
       <use xlink:href="#DejaVuSans-30" x="127.246094"/>
       <use xlink:href="#DejaVuSans-30" x="190.869141"/>
      </g>
     </g>
    </g>
    <g id="ytick_6">
     <g id="line2d_11">
      <g>
       <use xlink:href="#md24eee23db" x="57.6" y="136.3478" style="stroke: #000000; stroke-width: 0.8"/>
      </g>
     </g>
     <g id="text_11">
      <!-- 7500 -->
      <g transform="translate(25.15 140.147018) scale(0.1 -0.1)">
       <use xlink:href="#DejaVuSans-37"/>
       <use xlink:href="#DejaVuSans-35" x="63.623047"/>
       <use xlink:href="#DejaVuSans-30" x="127.246094"/>
       <use xlink:href="#DejaVuSans-30" x="190.869141"/>
      </g>
     </g>
    </g>
    <g id="ytick_7">
     <g id="line2d_12">
      <g>
       <use xlink:href="#md24eee23db" x="57.6" y="104.631401" style="stroke: #000000; stroke-width: 0.8"/>
      </g>
     </g>
     <g id="text_12">
      <!-- 8000 -->
      <g transform="translate(25.15 108.43062) scale(0.1 -0.1)">
       <defs>
        <path id="DejaVuSans-38" d="M 2034 2216 
Q 1584 2216 1326 1975 
Q 1069 1734 1069 1313 
Q 1069 891 1326 650 
Q 1584 409 2034 409 
Q 2484 409 2743 651 
Q 3003 894 3003 1313 
Q 3003 1734 2745 1975 
Q 2488 2216 2034 2216 
z
M 1403 2484 
Q 997 2584 770 2862 
Q 544 3141 544 3541 
Q 544 4100 942 4425 
Q 1341 4750 2034 4750 
Q 2731 4750 3128 4425 
Q 3525 4100 3525 3541 
Q 3525 3141 3298 2862 
Q 3072 2584 2669 2484 
Q 3125 2378 3379 2068 
Q 3634 1759 3634 1313 
Q 3634 634 3220 271 
Q 2806 -91 2034 -91 
Q 1263 -91 848 271 
Q 434 634 434 1313 
Q 434 1759 690 2068 
Q 947 2378 1403 2484 
z
M 1172 3481 
Q 1172 3119 1398 2916 
Q 1625 2713 2034 2713 
Q 2441 2713 2670 2916 
Q 2900 3119 2900 3481 
Q 2900 3844 2670 4047 
Q 2441 4250 2034 4250 
Q 1625 4250 1398 4047 
Q 1172 3844 1172 3481 
z
" transform="scale(0.015625)"/>
       </defs>
       <use xlink:href="#DejaVuSans-38"/>
       <use xlink:href="#DejaVuSans-30" x="63.623047"/>
       <use xlink:href="#DejaVuSans-30" x="127.246094"/>
       <use xlink:href="#DejaVuSans-30" x="190.869141"/>
      </g>
     </g>
    </g>
    <g id="ytick_8">
     <g id="line2d_13">
      <g>
       <use xlink:href="#md24eee23db" x="57.6" y="72.915003" style="stroke: #000000; stroke-width: 0.8"/>
      </g>
     </g>
     <g id="text_13">
      <!-- 8500 -->
      <g transform="translate(25.15 76.714222) scale(0.1 -0.1)">
       <use xlink:href="#DejaVuSans-38"/>
       <use xlink:href="#DejaVuSans-35" x="63.623047"/>
       <use xlink:href="#DejaVuSans-30" x="127.246094"/>
       <use xlink:href="#DejaVuSans-30" x="190.869141"/>
      </g>
     </g>
    </g>
   </g>
   <g id="line2d_14">
    <path d="M 73.832727 294.654916 
L 75.342748 295.373821 
L 76.85277 293.09024 
L 78.362791 290.278053 
L 79.872812 289.982033 
L 81.382833 289.855168 
L 82.892854 290.01375 
L 84.402875 289.580292 
L 85.912896 289.017855 
L 87.422918 286.968975 
L 88.932939 283.702186 
L 90.44296 278.373831 
L 91.952981 276.449703 
L 93.463002 277.580921 
L 94.973023 279.528308 
L 96.483044 276.470848 
L 97.993066 278.056667 
L 99.503087 276.967738 
L 102.523129 273.096223 
L 104.03315 270.769825 
L 107.053192 266.955928 
L 108.563214 267.425331 
L 110.073235 267.505679 
L 111.583256 267.442246 
L 113.093277 266.860779 
L 114.603298 265.97272 
L 116.113319 265.539262 
L 119.133362 265.632901 
L 120.643383 265.671414 
L 122.153404 265.465257 
L 123.663425 266.244071 
L 125.173446 266.392081 
L 126.683467 266.712769 
L 128.193488 266.226451 
L 129.70351 263.720855 
L 131.213531 261.919364 
L 132.723552 262.113891 
L 134.233573 260.902627 
L 135.743594 260.395165 
L 137.253615 260.078001 
L 138.763636 260.141433 
L 140.273658 259.700802 
L 141.783679 259.383638 
L 143.2937 259.581865 
L 144.803721 257.25071 
L 146.313742 257.25071 
L 147.823763 255.982054 
L 149.333784 253.635041 
L 150.843805 249.638775 
L 152.353827 247.196612 
L 153.863848 246.720866 
L 155.373869 246.122785 
L 156.88389 245.868047 
L 158.393911 244.57208 
L 159.903932 245.45221 
L 161.413953 243.612659 
L 162.923975 239.933557 
L 164.433996 238.474602 
L 165.944017 238.502795 
L 167.454038 239.299229 
L 170.47408 239.641766 
L 171.984101 240.276094 
L 173.494123 240.179359 
L 175.004144 239.242139 
L 176.514165 238.855199 
L 179.534207 236.635051 
L 181.044228 237.517824 
L 182.554249 237.657024 
L 184.064271 236.000723 
L 185.574292 235.547632 
L 188.594334 232.651472 
L 190.104355 230.228339 
L 191.614376 230.44747 
L 193.124397 229.964035 
L 196.14444 230.999291 
L 197.654461 228.705952 
L 199.164482 229.583439 
L 200.674503 228.515653 
L 202.184524 226.866401 
L 203.694545 225.010991 
L 205.204567 221.474613 
L 206.714588 221.37658 
L 208.224609 221.992647 
L 211.244651 221.974146 
L 212.754672 220.840285 
L 214.264693 218.353719 
L 215.774715 217.126583 
L 217.284736 216.438049 
L 218.794757 214.74545 
L 220.304778 215.760782 
L 221.814799 215.150851 
L 223.32482 215.721746 
L 226.344863 213.119607 
L 227.854884 212.929309 
L 229.364905 211.974332 
L 230.874926 212.707294 
L 232.384947 212.449032 
L 233.894968 211.684818 
L 235.404989 211.557952 
L 236.915011 210.45845 
L 238.425032 205.29925 
L 239.935053 205.12359 
L 242.955095 204.997944 
L 244.465116 204.677608 
L 245.975137 205.060157 
L 247.485159 201.33714 
L 248.99518 200.288059 
L 250.505201 198.948922 
L 252.015222 199.10398 
L 253.525243 197.068844 
L 255.035264 195.800188 
L 256.545285 194.071645 
L 258.055307 191.999507 
L 259.565328 192.323278 
L 261.075349 192.957606 
L 262.58537 192.747485 
L 264.095391 194.082839 
L 265.605412 193.901169 
L 267.115433 189.771807 
L 268.625455 189.779359 
L 271.645497 188.91773 
L 273.155518 186.463938 
L 274.665539 185.402496 
L 276.17556 183.872557 
L 277.685581 182.522911 
L 279.195603 181.550011 
L 282.215645 179.926131 
L 283.725666 178.116182 
L 285.235687 174.174891 
L 286.745708 171.616435 
L 288.255729 163.179873 
L 289.765751 161.023158 
L 291.275772 158.295547 
L 292.785793 159.881367 
L 294.295814 155.060475 
L 295.805835 145.133242 
L 297.315856 147.727643 
L 298.825877 146.256909 
L 300.335899 146.661972 
L 301.84592 147.519901 
L 303.355941 147.408894 
L 304.865962 147.548974 
L 306.375983 144.271613 
L 307.886004 141.695672 
L 309.396025 139.627275 
L 310.906047 139.279301 
L 312.416068 137.584739 
L 313.926089 133.937353 
L 315.43611 133.17616 
L 316.946131 124.073554 
L 318.456152 126.420567 
L 319.966173 124.182295 
L 321.476195 124.359001 
L 322.986216 122.164226 
L 324.496237 122.087314 
L 326.006258 122.467211 
L 327.516279 121.847809 
L 329.0263 121.414662 
L 330.536321 120.19781 
L 332.046342 118.275219 
L 333.556364 108.025056 
L 335.066385 106.248938 
L 336.576406 109.660716 
L 338.086427 110.340353 
L 339.596448 110.331291 
L 341.106469 111.690565 
L 342.61649 111.282783 
L 344.126512 107.331826 
L 345.636533 106.425643 
L 347.146554 105.090069 
L 348.656575 102.561906 
L 350.166596 99.624439 
L 351.676617 99.701767 
L 353.186638 96.765735 
L 356.206681 96.916387 
L 357.716702 96.791108 
L 362.246765 94.659766 
L 363.756786 91.229461 
L 365.266808 86.870218 
L 368.28685 68.284409 
L 369.796871 64.097844 
L 371.306892 64.282857 
L 372.816913 67.933089 
L 374.326934 67.820861 
L 375.836956 68.835786 
L 378.856998 68.98217 
L 380.367019 66.563794 
L 381.87704 65.933431 
L 383.387061 66.566437 
L 384.897082 66.86937 
L 387.917125 65.699522 
L 389.427146 64.917185 
L 390.937167 63.387397 
L 392.447188 61.234911 
L 393.957209 60.161046 
L 396.977252 59.585054 
L 398.487273 55.841009 
L 398.487273 55.841009 
" clip-path="url(#p87b520fe6a)" style="fill: none; stroke: #1f77b4; stroke-opacity: 0.7; stroke-width: 0.5; stroke-linecap: square"/>
   </g>
   <g id="line2d_15">
    <path d="M 73.832727 295.437254 
L 75.342748 295.488 
L 76.85277 292.950688 
L 78.362791 292.202181 
L 79.872812 291.09845 
L 81.382833 290.156473 
L 85.912896 289.4202 
L 87.422918 288.256661 
L 88.932939 283.733903 
L 90.44296 276.933001 
L 91.952981 276.293236 
L 93.463002 275.815375 
L 94.973023 279.858159 
L 96.483044 278.805174 
L 97.993066 278.310399 
L 99.503087 277.42234 
L 104.03315 271.163637 
L 105.543171 269.715255 
L 107.053192 269.176076 
L 108.563214 269.353688 
L 110.073235 268.034286 
L 111.583256 268.053315 
L 113.093277 267.780554 
L 114.603298 266.738444 
L 116.113319 266.258167 
L 117.62334 265.496974 
L 120.643383 266.702197 
L 122.153404 266.733913 
L 123.663425 265.306675 
L 125.173446 266.924212 
L 126.683467 266.892495 
L 128.193488 265.496974 
L 129.70351 264.279064 
L 131.213531 262.642498 
L 132.723552 263.572846 
L 134.233573 262.566379 
L 135.743594 261.796727 
L 138.763636 261.453133 
L 140.273658 261.04082 
L 141.783679 259.724589 
L 143.2937 260.092499 
L 144.803721 258.696978 
L 146.313742 256.838397 
L 147.823763 255.622602 
L 152.353827 248.895705 
L 153.863848 247.101463 
L 155.373869 247.36788 
L 156.88389 245.78347 
L 158.393911 246.023105 
L 159.903932 246.149971 
L 161.413953 244.297733 
L 162.923975 241.477088 
L 164.433996 239.665729 
L 165.944017 239.225224 
L 167.454038 240.250721 
L 168.964059 240.033237 
L 170.47408 240.340584 
L 171.984101 240.885049 
L 173.494123 240.555198 
L 175.004144 239.811222 
L 176.514165 239.595248 
L 178.024186 239.55296 
L 179.534207 237.840274 
L 181.044228 237.649976 
L 182.554249 238.238995 
L 184.064271 236.373391 
L 185.574292 236.008652 
L 187.084313 233.851937 
L 188.594334 232.229996 
L 190.104355 231.264408 
L 191.614376 231.969857 
L 193.124397 231.091025 
L 194.634419 230.640652 
L 196.14444 230.355204 
L 197.654461 230.997461 
L 199.164482 229.932319 
L 200.674503 229.04426 
L 202.184524 226.460431 
L 203.694545 225.208086 
L 205.204567 223.301477 
L 206.714588 222.235806 
L 209.73463 223.431271 
L 211.244651 223.173706 
L 212.754672 221.368891 
L 214.264693 218.436182 
L 215.774715 218.207824 
L 217.284736 216.742526 
L 218.794757 215.575363 
L 220.304778 217.042246 
L 221.814799 216.352414 
L 223.32482 216.751753 
L 224.834841 215.093273 
L 226.344863 214.606571 
L 227.854884 213.528213 
L 229.364905 213.467984 
L 230.874926 213.272264 
L 232.384947 212.562305 
L 233.894968 211.72182 
L 235.404989 212.213425 
L 236.915011 211.350738 
L 238.425032 205.397282 
L 239.935053 206.931203 
L 242.955095 206.060443 
L 244.465116 205.235817 
L 245.975137 206.349415 
L 247.485159 202.300608 
L 248.99518 202.291478 
L 250.505201 199.754166 
L 252.015222 200.781425 
L 253.525243 199.21946 
L 255.035264 197.845896 
L 256.545285 193.215302 
L 258.055307 194.08856 
L 259.565328 193.851299 
L 261.075349 194.071645 
L 262.58537 194.726004 
L 264.095391 194.39787 
L 265.605412 194.887209 
L 267.115433 190.878861 
L 268.625455 192.007964 
L 270.135476 191.500502 
L 271.645497 190.506721 
L 273.155518 187.757967 
L 274.665539 187.605464 
L 276.17556 185.25845 
L 277.685581 184.207845 
L 280.705624 181.251172 
L 282.215645 181.575384 
L 283.725666 179.377624 
L 285.235687 176.955362 
L 286.745708 170.865813 
L 288.255729 166.855636 
L 289.765751 163.26596 
L 291.275772 160.203411 
L 292.785793 159.376442 
L 294.295814 156.212837 
L 295.805835 148.864092 
L 298.825877 147.577942 
L 300.335899 147.575405 
L 301.84592 148.130442 
L 303.355941 147.575405 
L 304.865962 147.157494 
L 306.375983 145.758242 
L 307.886004 142.867282 
L 310.906047 139.462684 
L 312.416068 137.892575 
L 313.926089 133.796392 
L 315.43611 131.780638 
L 316.946131 128.221354 
L 318.456152 126.452283 
L 319.966173 125.8391 
L 321.476195 123.690842 
L 322.986216 123.816016 
L 324.496237 122.356337 
L 326.006258 122.709748 
L 327.516279 122.646316 
L 329.0263 121.234936 
L 330.536321 120.413481 
L 332.046342 119.877661 
L 333.556364 111.831024 
L 335.066385 110.379118 
L 336.576406 111.459489 
L 338.086427 111.697815 
L 342.61649 111.444084 
L 344.126512 108.52319 
L 345.636533 108.712245 
L 347.146554 107.443589 
L 350.166596 101.516517 
L 351.676617 101.428045 
L 353.186638 99.007027 
L 354.69666 98.637002 
L 356.206681 97.076221 
L 357.716702 97.410635 
L 359.226723 96.455619 
L 362.246765 95.897707 
L 363.756786 92.956595 
L 365.266808 85.776758 
L 366.776829 81.517698 
L 368.28685 69.148303 
L 369.796871 64.778305 
L 371.306892 65.595834 
L 372.816913 68.480748 
L 375.836956 69.60804 
L 377.346977 70.428437 
L 378.856998 70.546845 
L 380.367019 68.431306 
L 381.87704 67.637394 
L 384.897082 68.04427 
L 386.407104 67.240207 
L 387.917125 66.014421 
L 389.427146 65.984135 
L 390.937167 64.181308 
L 393.957209 61.769487 
L 395.46723 61.145336 
L 396.977252 60.841627 
L 398.487273 56.569373 
L 398.487273 56.569373 
" clip-path="url(#p87b520fe6a)" style="fill: none; stroke: #ff7f0e; stroke-opacity: 0.7; stroke-width: 0.5; stroke-linecap: square"/>
   </g>
   <g id="line2d_16">
    <path d="M 73.832727 295.046085 
L 75.342748 295.43091 
L 76.85277 293.020464 
L 78.362791 291.240117 
L 79.872812 290.540242 
L 81.382833 290.005821 
L 82.892854 289.955603 
L 85.912896 289.219027 
L 87.422918 287.612818 
L 88.932939 283.718045 
L 90.44296 277.653416 
L 91.952981 276.37147 
L 93.463002 276.698148 
L 94.973023 279.693234 
L 96.483044 277.638011 
L 97.993066 278.183533 
L 99.503087 277.195039 
L 102.523129 273.240004 
L 104.03315 270.966731 
L 105.543171 269.295012 
L 107.053192 268.066002 
L 108.563214 268.389509 
L 110.073235 267.769982 
L 111.583256 267.747781 
L 113.093277 267.320667 
L 114.603298 266.355582 
L 116.113319 265.898715 
L 117.62334 265.564937 
L 120.643383 266.186805 
L 122.153404 266.099585 
L 123.663425 265.775373 
L 125.173446 266.658146 
L 126.683467 266.802632 
L 128.193488 265.861712 
L 131.213531 262.280931 
L 132.723552 262.843368 
L 134.233573 261.734503 
L 135.743594 261.095946 
L 137.253615 260.836929 
L 138.763636 260.797283 
L 140.273658 260.370811 
L 141.783679 259.554114 
L 143.2937 259.837182 
L 144.803721 257.973844 
L 146.313742 257.044554 
L 147.823763 255.802328 
L 149.333784 253.518747 
L 150.843805 250.40903 
L 152.353827 248.046158 
L 153.863848 246.911164 
L 155.373869 246.745333 
L 156.88389 245.825759 
L 158.393911 245.297593 
L 159.903932 245.80109 
L 161.413953 243.955196 
L 162.923975 240.705322 
L 164.433996 239.070166 
L 165.944017 238.864009 
L 167.454038 239.774975 
L 168.964059 239.742352 
L 170.47408 239.991175 
L 171.984101 240.580571 
L 173.494123 240.367278 
L 175.004144 239.526681 
L 176.514165 239.225224 
L 178.024186 238.679317 
L 179.534207 237.237663 
L 182.554249 237.948009 
L 184.064271 236.187057 
L 185.574292 235.778142 
L 187.084313 233.98541 
L 190.104355 230.746373 
L 191.614376 231.208664 
L 193.124397 230.52753 
L 196.14444 230.677248 
L 197.654461 229.851707 
L 199.164482 229.757879 
L 200.674503 228.779957 
L 202.184524 226.663416 
L 203.694545 225.109539 
L 205.204567 222.388045 
L 206.714588 221.806193 
L 208.224609 222.427426 
L 209.73463 222.693458 
L 211.244651 222.573926 
L 212.754672 221.104588 
L 214.264693 218.394951 
L 215.774715 217.667203 
L 217.284736 216.590287 
L 218.794757 215.160407 
L 220.304778 216.401514 
L 221.814799 215.751633 
L 223.32482 216.236749 
L 224.834841 214.772485 
L 226.344863 213.863089 
L 227.854884 213.228761 
L 229.364905 212.721158 
L 230.874926 212.989779 
L 232.384947 212.505668 
L 233.894968 211.703319 
L 235.404989 211.885688 
L 236.915011 210.904594 
L 238.425032 205.348266 
L 239.935053 206.027396 
L 242.955095 205.529194 
L 244.465116 204.956713 
L 245.975137 205.704786 
L 247.485159 201.818874 
L 248.99518 201.289768 
L 250.505201 199.351544 
L 252.015222 199.942702 
L 253.525243 198.144152 
L 255.035264 196.823042 
L 256.545285 193.643473 
L 258.055307 193.044033 
L 259.565328 193.087289 
L 261.075349 193.514625 
L 262.58537 193.736745 
L 264.095391 194.240355 
L 265.605412 194.394189 
L 267.115433 190.325334 
L 268.625455 190.893662 
L 270.135476 190.431131 
L 271.645497 189.712226 
L 273.155518 187.110952 
L 274.665539 186.50398 
L 276.17556 184.565504 
L 280.705624 181.011537 
L 282.215645 180.750757 
L 283.725666 178.746903 
L 285.235687 175.565126 
L 286.745708 171.241124 
L 288.255729 165.017754 
L 291.275772 159.249479 
L 292.785793 159.628905 
L 294.295814 155.636656 
L 295.805835 146.998667 
L 297.315856 147.945318 
L 298.825877 146.917425 
L 300.335899 147.118689 
L 301.84592 147.825171 
L 303.355941 147.492149 
L 304.865962 147.353234 
L 306.375983 145.014927 
L 307.886004 142.281477 
L 309.396025 140.362038 
L 310.906047 139.370992 
L 312.416068 137.738657 
L 313.926089 133.866873 
L 315.43611 132.478399 
L 316.946131 126.147454 
L 318.456152 126.436425 
L 319.966173 125.010698 
L 322.986216 122.990121 
L 324.496237 122.221826 
L 326.006258 122.58848 
L 327.516279 122.247062 
L 330.536321 120.305645 
L 332.046342 119.07644 
L 333.556364 109.92804 
L 335.066385 108.314028 
L 336.576406 110.560102 
L 338.086427 111.019084 
L 339.596448 110.955512 
L 341.106469 111.618071 
L 342.61649 111.363433 
L 344.126512 107.927508 
L 345.636533 107.568944 
L 347.146554 106.266829 
L 350.166596 100.570478 
L 351.676617 100.564906 
L 353.186638 97.886381 
L 354.69666 97.743657 
L 356.206681 96.996304 
L 357.716702 97.100871 
L 359.226723 96.272368 
L 362.246765 95.278736 
L 363.756786 92.093028 
L 365.266808 86.323488 
L 366.776829 79.579222 
L 368.28685 68.716356 
L 369.796871 64.438075 
L 371.306892 64.939345 
L 372.816913 68.206919 
L 374.326934 68.433232 
L 375.836956 69.221913 
L 377.346977 69.691207 
L 378.856998 69.764507 
L 380.367019 67.49755 
L 381.87704 66.785413 
L 384.897082 67.45682 
L 386.407104 66.787029 
L 387.917125 65.856972 
L 389.427146 65.45066 
L 392.447188 62.070109 
L 393.957209 60.965267 
L 395.46723 60.489272 
L 396.977252 60.213341 
L 398.487273 56.205191 
L 398.487273 56.205191 
" clip-path="url(#p87b520fe6a)" style="fill: none; stroke: #2ca02c; stroke-opacity: 0.7; stroke-width: 0.5; stroke-linecap: square"/>
   </g>
   <g id="line2d_17">
    <path d="M 73.832727 295.437254 
L 75.342748 292.899942 
L 78.362791 291.631286 
L 79.872812 291.250689 
L 81.382833 291.187256 
L 82.892854 290.426063 
L 84.402875 290.489496 
L 85.912896 288.205915 
L 87.422918 284.336514 
L 88.932939 278.310399 
L 90.44296 278.437264 
L 91.952981 278.944727 
L 93.463002 280.340248 
L 94.973023 278.754428 
L 96.483044 278.183533 
L 97.993066 277.295474 
L 99.503087 275.265624 
L 101.013108 273.616372 
L 102.523129 271.396224 
L 104.03315 270.761896 
L 105.543171 269.239509 
L 107.053192 269.239509 
L 108.563214 269.04921 
L 110.073235 268.985778 
L 113.093277 267.209659 
L 114.603298 267.209659 
L 116.113319 267.082794 
L 117.62334 267.082794 
L 119.133362 266.829062 
L 120.643383 266.76563 
L 122.153404 267.336525 
L 123.663425 267.526823 
L 125.173446 267.46339 
L 126.683467 267.526823 
L 128.193488 264.228318 
L 129.70351 262.832796 
L 131.213531 263.784288 
L 132.723552 262.515632 
L 134.233573 262.00817 
L 135.743594 261.691006 
L 137.253615 261.754439 
L 138.763636 261.183544 
L 140.273658 260.86638 
L 141.783679 260.041753 
L 143.2937 258.646232 
L 144.803721 257.060412 
L 146.313742 255.791756 
L 147.823763 253.571608 
L 149.333784 251.605191 
L 150.843805 249.321611 
L 152.353827 247.989522 
L 153.863848 247.735791 
L 155.373869 246.403702 
L 156.88389 246.149971 
L 158.393911 246.784299 
L 161.413953 241.836541 
L 162.923975 240.377586 
L 164.433996 240.187288 
L 165.944017 240.758183 
L 168.964059 241.13878 
L 170.47408 241.773108 
L 171.984101 240.504452 
L 173.494123 240.885049 
L 175.004144 239.489527 
L 176.514165 239.426094 
L 178.024186 238.918632 
L 179.534207 239.045498 
L 181.044228 238.157438 
L 182.554249 236.508186 
L 184.064271 236.000723 
L 185.574292 233.844008 
L 187.084313 232.385054 
L 188.594334 231.814159 
L 190.104355 232.06789 
L 191.614376 231.496995 
L 193.124397 232.004457 
L 194.634419 232.385054 
L 196.14444 230.989532 
L 197.654461 231.116398 
L 199.164482 229.023116 
L 200.674503 226.676102 
L 202.184524 225.72461 
L 203.694545 223.377597 
L 205.204567 222.997 
L 206.714588 223.44103 
L 208.224609 223.44103 
L 209.73463 223.250731 
L 211.244651 221.347747 
L 212.754672 218.68357 
L 214.264693 218.747003 
L 215.774715 216.717153 
L 217.284736 216.399989 
L 218.794757 217.224615 
L 220.304778 216.717153 
L 221.814799 217.288048 
L 223.32482 215.0679 
L 224.834841 214.623871 
L 226.344863 213.545513 
L 227.854884 213.672379 
L 229.364905 214.243274 
L 232.384947 213.355215 
L 233.894968 213.228349 
L 235.404989 211.325365 
L 236.915011 205.870145 
L 238.425032 206.821637 
L 239.935053 206.694771 
L 241.445074 206.314174 
L 242.955095 205.489548 
L 244.465116 206.758204 
L 245.975137 202.191043 
L 247.485159 202.191043 
L 248.99518 199.653731 
L 250.505201 201.049252 
L 252.015222 199.019403 
L 253.525243 197.750747 
L 255.035264 193.120153 
L 256.545285 193.944779 
L 258.055307 194.135077 
L 259.565328 194.769405 
L 261.075349 194.832838 
L 262.58537 195.78433 
L 264.095391 194.64254 
L 265.605412 190.900005 
L 267.115433 191.724631 
L 270.135476 190.773139 
L 271.645497 187.474634 
L 273.155518 187.347768 
L 274.665539 185.000755 
L 276.17556 184.493292 
L 277.685581 182.590308 
L 279.195603 181.131354 
L 280.705624 181.892548 
L 282.215645 179.164937 
L 283.725666 176.881357 
L 285.235687 170.791808 
L 286.745708 166.98584 
L 289.765751 161.150023 
L 291.275772 160.071666 
L 292.785793 156.138832 
L 294.295814 149.161225 
L 295.805835 148.1463 
L 297.315856 148.273165 
L 298.825877 148.526897 
L 300.335899 149.224657 
L 301.84592 149.161225 
L 303.355941 148.463464 
L 306.375983 142.817945 
L 307.886004 141.739587 
L 309.396025 141.295558 
L 312.416068 133.810488 
L 313.926089 132.351533 
L 315.43611 128.101536 
L 316.946131 127.023179 
L 318.456152 126.198552 
L 319.966173 124.359001 
L 322.986216 123.978404 
L 324.496237 124.232136 
L 326.006258 123.66124 
L 327.516279 122.329152 
L 329.0263 122.202286 
L 330.536321 119.664974 
L 332.046342 112.053039 
L 333.556364 110.27692 
L 335.066385 111.735875 
L 336.576406 112.243337 
L 338.086427 112.243337 
L 339.596448 113.765724 
L 341.106469 113.194829 
L 342.61649 108.310504 
L 344.126512 108.500802 
L 345.636533 107.232146 
L 347.146554 104.187372 
L 348.656575 101.459761 
L 350.166596 101.776925 
L 351.676617 98.795584 
L 353.186638 98.985882 
L 354.69666 98.92245 
L 356.206681 98.668718 
L 357.716702 97.717226 
L 359.226723 97.526928 
L 360.736744 95.687377 
L 362.246765 92.896334 
L 363.756786 86.045592 
L 365.266808 81.668729 
L 366.776829 69.299334 
L 368.28685 65.112769 
L 369.796871 66.444858 
L 371.306892 69.67993 
L 372.816913 69.806796 
L 374.326934 70.821721 
L 375.836956 70.758288 
L 377.346977 71.138885 
L 378.856998 68.220976 
L 380.367019 67.967245 
L 381.87704 68.728438 
L 383.387061 68.855304 
L 384.897082 67.459782 
L 386.407104 66.825455 
L 387.917125 67.079186 
L 389.427146 63.970979 
L 390.937167 62.765756 
L 392.447188 62.004562 
L 393.957209 62.067995 
L 395.46723 61.687398 
L 396.977252 56.359043 
L 398.487273 53.568 
L 398.487273 53.568 
" clip-path="url(#p87b520fe6a)" style="fill: none; stroke: #d62728; stroke-opacity: 0.7; stroke-width: 0.5; stroke-linecap: square"/>
   </g>
   <g id="patch_3">
    <path d="M 57.6 307.584 
L 57.6 41.472 
" style="fill: none; stroke: #000000; stroke-width: 0.8; stroke-linejoin: miter; stroke-linecap: square"/>
   </g>
   <g id="patch_4">
    <path d="M 414.72 307.584 
L 414.72 41.472 
" style="fill: none; stroke: #000000; stroke-width: 0.8; stroke-linejoin: miter; stroke-linecap: square"/>
   </g>
   <g id="patch_5">
    <path d="M 57.6 307.584 
L 414.72 307.584 
" style="fill: none; stroke: #000000; stroke-width: 0.8; stroke-linejoin: miter; stroke-linecap: square"/>
   </g>
   <g id="patch_6">
    <path d="M 57.6 41.472 
L 414.72 41.472 
" style="fill: none; stroke: #000000; stroke-width: 0.8; stroke-linejoin: miter; stroke-linecap: square"/>
   </g>
   <g id="text_14">
    <!-- 1final_isomorphism_cci -->
    <g transform="translate(166.457812 35.472) scale(0.12 -0.12)">
     <defs>
      <path id="DejaVuSans-66" d="M 2375 4863 
L 2375 4384 
L 1825 4384 
Q 1516 4384 1395 4259 
Q 1275 4134 1275 3809 
L 1275 3500 
L 2222 3500 
L 2222 3053 
L 1275 3053 
L 1275 0 
L 697 0 
L 697 3053 
L 147 3053 
L 147 3500 
L 697 3500 
L 697 3744 
Q 697 4328 969 4595 
Q 1241 4863 1831 4863 
L 2375 4863 
z
" transform="scale(0.015625)"/>
      <path id="DejaVuSans-69" d="M 603 3500 
L 1178 3500 
L 1178 0 
L 603 0 
L 603 3500 
z
M 603 4863 
L 1178 4863 
L 1178 4134 
L 603 4134 
L 603 4863 
z
" transform="scale(0.015625)"/>
      <path id="DejaVuSans-6e" d="M 3513 2113 
L 3513 0 
L 2938 0 
L 2938 2094 
Q 2938 2591 2744 2837 
Q 2550 3084 2163 3084 
Q 1697 3084 1428 2787 
Q 1159 2491 1159 1978 
L 1159 0 
L 581 0 
L 581 3500 
L 1159 3500 
L 1159 2956 
Q 1366 3272 1645 3428 
Q 1925 3584 2291 3584 
Q 2894 3584 3203 3211 
Q 3513 2838 3513 2113 
z
" transform="scale(0.015625)"/>
      <path id="DejaVuSans-61" d="M 2194 1759 
Q 1497 1759 1228 1600 
Q 959 1441 959 1056 
Q 959 750 1161 570 
Q 1363 391 1709 391 
Q 2188 391 2477 730 
Q 2766 1069 2766 1631 
L 2766 1759 
L 2194 1759 
z
M 3341 1997 
L 3341 0 
L 2766 0 
L 2766 531 
Q 2569 213 2275 61 
Q 1981 -91 1556 -91 
Q 1019 -91 701 211 
Q 384 513 384 1019 
Q 384 1609 779 1909 
Q 1175 2209 1959 2209 
L 2766 2209 
L 2766 2266 
Q 2766 2663 2505 2880 
Q 2244 3097 1772 3097 
Q 1472 3097 1187 3025 
Q 903 2953 641 2809 
L 641 3341 
Q 956 3463 1253 3523 
Q 1550 3584 1831 3584 
Q 2591 3584 2966 3190 
Q 3341 2797 3341 1997 
z
" transform="scale(0.015625)"/>
      <path id="DejaVuSans-6c" d="M 603 4863 
L 1178 4863 
L 1178 0 
L 603 0 
L 603 4863 
z
" transform="scale(0.015625)"/>
      <path id="DejaVuSans-5f" d="M 3263 -1063 
L 3263 -1509 
L -63 -1509 
L -63 -1063 
L 3263 -1063 
z
" transform="scale(0.015625)"/>
      <path id="DejaVuSans-73" d="M 2834 3397 
L 2834 2853 
Q 2591 2978 2328 3040 
Q 2066 3103 1784 3103 
Q 1356 3103 1142 2972 
Q 928 2841 928 2578 
Q 928 2378 1081 2264 
Q 1234 2150 1697 2047 
L 1894 2003 
Q 2506 1872 2764 1633 
Q 3022 1394 3022 966 
Q 3022 478 2636 193 
Q 2250 -91 1575 -91 
Q 1294 -91 989 -36 
Q 684 19 347 128 
L 347 722 
Q 666 556 975 473 
Q 1284 391 1588 391 
Q 1994 391 2212 530 
Q 2431 669 2431 922 
Q 2431 1156 2273 1281 
Q 2116 1406 1581 1522 
L 1381 1569 
Q 847 1681 609 1914 
Q 372 2147 372 2553 
Q 372 3047 722 3315 
Q 1072 3584 1716 3584 
Q 2034 3584 2315 3537 
Q 2597 3491 2834 3397 
z
" transform="scale(0.015625)"/>
      <path id="DejaVuSans-6f" d="M 1959 3097 
Q 1497 3097 1228 2736 
Q 959 2375 959 1747 
Q 959 1119 1226 758 
Q 1494 397 1959 397 
Q 2419 397 2687 759 
Q 2956 1122 2956 1747 
Q 2956 2369 2687 2733 
Q 2419 3097 1959 3097 
z
M 1959 3584 
Q 2709 3584 3137 3096 
Q 3566 2609 3566 1747 
Q 3566 888 3137 398 
Q 2709 -91 1959 -91 
Q 1206 -91 779 398 
Q 353 888 353 1747 
Q 353 2609 779 3096 
Q 1206 3584 1959 3584 
z
" transform="scale(0.015625)"/>
      <path id="DejaVuSans-6d" d="M 3328 2828 
Q 3544 3216 3844 3400 
Q 4144 3584 4550 3584 
Q 5097 3584 5394 3201 
Q 5691 2819 5691 2113 
L 5691 0 
L 5113 0 
L 5113 2094 
Q 5113 2597 4934 2840 
Q 4756 3084 4391 3084 
Q 3944 3084 3684 2787 
Q 3425 2491 3425 1978 
L 3425 0 
L 2847 0 
L 2847 2094 
Q 2847 2600 2669 2842 
Q 2491 3084 2119 3084 
Q 1678 3084 1418 2786 
Q 1159 2488 1159 1978 
L 1159 0 
L 581 0 
L 581 3500 
L 1159 3500 
L 1159 2956 
Q 1356 3278 1631 3431 
Q 1906 3584 2284 3584 
Q 2666 3584 2933 3390 
Q 3200 3197 3328 2828 
z
" transform="scale(0.015625)"/>
      <path id="DejaVuSans-72" d="M 2631 2963 
Q 2534 3019 2420 3045 
Q 2306 3072 2169 3072 
Q 1681 3072 1420 2755 
Q 1159 2438 1159 1844 
L 1159 0 
L 581 0 
L 581 3500 
L 1159 3500 
L 1159 2956 
Q 1341 3275 1631 3429 
Q 1922 3584 2338 3584 
Q 2397 3584 2469 3576 
Q 2541 3569 2628 3553 
L 2631 2963 
z
" transform="scale(0.015625)"/>
      <path id="DejaVuSans-70" d="M 1159 525 
L 1159 -1331 
L 581 -1331 
L 581 3500 
L 1159 3500 
L 1159 2969 
Q 1341 3281 1617 3432 
Q 1894 3584 2278 3584 
Q 2916 3584 3314 3078 
Q 3713 2572 3713 1747 
Q 3713 922 3314 415 
Q 2916 -91 2278 -91 
Q 1894 -91 1617 61 
Q 1341 213 1159 525 
z
M 3116 1747 
Q 3116 2381 2855 2742 
Q 2594 3103 2138 3103 
Q 1681 3103 1420 2742 
Q 1159 2381 1159 1747 
Q 1159 1113 1420 752 
Q 1681 391 2138 391 
Q 2594 391 2855 752 
Q 3116 1113 3116 1747 
z
" transform="scale(0.015625)"/>
      <path id="DejaVuSans-68" d="M 3513 2113 
L 3513 0 
L 2938 0 
L 2938 2094 
Q 2938 2591 2744 2837 
Q 2550 3084 2163 3084 
Q 1697 3084 1428 2787 
Q 1159 2491 1159 1978 
L 1159 0 
L 581 0 
L 581 4863 
L 1159 4863 
L 1159 2956 
Q 1366 3272 1645 3428 
Q 1925 3584 2291 3584 
Q 2894 3584 3203 3211 
Q 3513 2838 3513 2113 
z
" transform="scale(0.015625)"/>
      <path id="DejaVuSans-63" d="M 3122 3366 
L 3122 2828 
Q 2878 2963 2633 3030 
Q 2388 3097 2138 3097 
Q 1578 3097 1268 2742 
Q 959 2388 959 1747 
Q 959 1106 1268 751 
Q 1578 397 2138 397 
Q 2388 397 2633 464 
Q 2878 531 3122 666 
L 3122 134 
Q 2881 22 2623 -34 
Q 2366 -91 2075 -91 
Q 1284 -91 818 406 
Q 353 903 353 1747 
Q 353 2603 823 3093 
Q 1294 3584 2113 3584 
Q 2378 3584 2631 3529 
Q 2884 3475 3122 3366 
z
" transform="scale(0.015625)"/>
     </defs>
     <use xlink:href="#DejaVuSans-31"/>
     <use xlink:href="#DejaVuSans-66" x="63.623047"/>
     <use xlink:href="#DejaVuSans-69" x="98.828125"/>
     <use xlink:href="#DejaVuSans-6e" x="126.611328"/>
     <use xlink:href="#DejaVuSans-61" x="189.990234"/>
     <use xlink:href="#DejaVuSans-6c" x="251.269531"/>
     <use xlink:href="#DejaVuSans-5f" x="279.052734"/>
     <use xlink:href="#DejaVuSans-69" x="329.052734"/>
     <use xlink:href="#DejaVuSans-73" x="356.835938"/>
     <use xlink:href="#DejaVuSans-6f" x="408.935547"/>
     <use xlink:href="#DejaVuSans-6d" x="470.117188"/>
     <use xlink:href="#DejaVuSans-6f" x="567.529297"/>
     <use xlink:href="#DejaVuSans-72" x="628.710938"/>
     <use xlink:href="#DejaVuSans-70" x="669.824219"/>
     <use xlink:href="#DejaVuSans-68" x="733.300781"/>
     <use xlink:href="#DejaVuSans-69" x="796.679688"/>
     <use xlink:href="#DejaVuSans-73" x="824.462891"/>
     <use xlink:href="#DejaVuSans-6d" x="876.5625"/>
     <use xlink:href="#DejaVuSans-5f" x="973.974609"/>
     <use xlink:href="#DejaVuSans-63" x="1023.974609"/>
     <use xlink:href="#DejaVuSans-63" x="1078.955078"/>
     <use xlink:href="#DejaVuSans-69" x="1133.935547"/>
    </g>
   </g>
   <g id="legend_1">
    <g id="patch_7">
     <path d="M 64.6 108.1845 
L 200.035938 108.1845 
Q 202.035938 108.1845 202.035938 106.1845 
L 202.035938 48.472 
Q 202.035938 46.472 200.035938 46.472 
L 64.6 46.472 
Q 62.6 46.472 62.6 48.472 
L 62.6 106.1845 
Q 62.6 108.1845 64.6 108.1845 
z
" style="fill: #ffffff; opacity: 0.8; stroke: #cccccc; stroke-linejoin: miter"/>
    </g>
    <g id="line2d_18">
     <path d="M 66.6 54.570438 
L 76.6 54.570438 
L 86.6 54.570438 
" style="fill: none; stroke: #1f77b4; stroke-opacity: 0.7; stroke-width: 0.5; stroke-linecap: square"/>
    </g>
    <g id="text_15">
     <!-- Positive predictions -->
     <g transform="translate(94.6 58.070438) scale(0.1 -0.1)">
      <defs>
       <path id="DejaVuSans-50" d="M 1259 4147 
L 1259 2394 
L 2053 2394 
Q 2494 2394 2734 2622 
Q 2975 2850 2975 3272 
Q 2975 3691 2734 3919 
Q 2494 4147 2053 4147 
L 1259 4147 
z
M 628 4666 
L 2053 4666 
Q 2838 4666 3239 4311 
Q 3641 3956 3641 3272 
Q 3641 2581 3239 2228 
Q 2838 1875 2053 1875 
L 1259 1875 
L 1259 0 
L 628 0 
L 628 4666 
z
" transform="scale(0.015625)"/>
       <path id="DejaVuSans-74" d="M 1172 4494 
L 1172 3500 
L 2356 3500 
L 2356 3053 
L 1172 3053 
L 1172 1153 
Q 1172 725 1289 603 
Q 1406 481 1766 481 
L 2356 481 
L 2356 0 
L 1766 0 
Q 1100 0 847 248 
Q 594 497 594 1153 
L 594 3053 
L 172 3053 
L 172 3500 
L 594 3500 
L 594 4494 
L 1172 4494 
z
" transform="scale(0.015625)"/>
       <path id="DejaVuSans-76" d="M 191 3500 
L 800 3500 
L 1894 563 
L 2988 3500 
L 3597 3500 
L 2284 0 
L 1503 0 
L 191 3500 
z
" transform="scale(0.015625)"/>
       <path id="DejaVuSans-65" d="M 3597 1894 
L 3597 1613 
L 953 1613 
Q 991 1019 1311 708 
Q 1631 397 2203 397 
Q 2534 397 2845 478 
Q 3156 559 3463 722 
L 3463 178 
Q 3153 47 2828 -22 
Q 2503 -91 2169 -91 
Q 1331 -91 842 396 
Q 353 884 353 1716 
Q 353 2575 817 3079 
Q 1281 3584 2069 3584 
Q 2775 3584 3186 3129 
Q 3597 2675 3597 1894 
z
M 3022 2063 
Q 3016 2534 2758 2815 
Q 2500 3097 2075 3097 
Q 1594 3097 1305 2825 
Q 1016 2553 972 2059 
L 3022 2063 
z
" transform="scale(0.015625)"/>
       <path id="DejaVuSans-20" transform="scale(0.015625)"/>
       <path id="DejaVuSans-64" d="M 2906 2969 
L 2906 4863 
L 3481 4863 
L 3481 0 
L 2906 0 
L 2906 525 
Q 2725 213 2448 61 
Q 2172 -91 1784 -91 
Q 1150 -91 751 415 
Q 353 922 353 1747 
Q 353 2572 751 3078 
Q 1150 3584 1784 3584 
Q 2172 3584 2448 3432 
Q 2725 3281 2906 2969 
z
M 947 1747 
Q 947 1113 1208 752 
Q 1469 391 1925 391 
Q 2381 391 2643 752 
Q 2906 1113 2906 1747 
Q 2906 2381 2643 2742 
Q 2381 3103 1925 3103 
Q 1469 3103 1208 2742 
Q 947 2381 947 1747 
z
" transform="scale(0.015625)"/>
      </defs>
      <use xlink:href="#DejaVuSans-50"/>
      <use xlink:href="#DejaVuSans-6f" x="56.677734"/>
      <use xlink:href="#DejaVuSans-73" x="117.859375"/>
      <use xlink:href="#DejaVuSans-69" x="169.958984"/>
      <use xlink:href="#DejaVuSans-74" x="197.742188"/>
      <use xlink:href="#DejaVuSans-69" x="236.951172"/>
      <use xlink:href="#DejaVuSans-76" x="264.734375"/>
      <use xlink:href="#DejaVuSans-65" x="323.914062"/>
      <use xlink:href="#DejaVuSans-20" x="385.4375"/>
      <use xlink:href="#DejaVuSans-70" x="417.224609"/>
      <use xlink:href="#DejaVuSans-72" x="480.701172"/>
      <use xlink:href="#DejaVuSans-65" x="519.564453"/>
      <use xlink:href="#DejaVuSans-64" x="581.087891"/>
      <use xlink:href="#DejaVuSans-69" x="644.564453"/>
      <use xlink:href="#DejaVuSans-63" x="672.347656"/>
      <use xlink:href="#DejaVuSans-74" x="727.328125"/>
      <use xlink:href="#DejaVuSans-69" x="766.537109"/>
      <use xlink:href="#DejaVuSans-6f" x="794.320312"/>
      <use xlink:href="#DejaVuSans-6e" x="855.501953"/>
      <use xlink:href="#DejaVuSans-73" x="918.880859"/>
     </g>
    </g>
    <g id="line2d_19">
     <path d="M 66.6 69.248563 
L 76.6 69.248563 
L 86.6 69.248563 
" style="fill: none; stroke: #ff7f0e; stroke-opacity: 0.7; stroke-width: 0.5; stroke-linecap: square"/>
    </g>
    <g id="text_16">
     <!-- Negative predictions -->
     <g transform="translate(94.6 72.748563) scale(0.1 -0.1)">
      <defs>
       <path id="DejaVuSans-4e" d="M 628 4666 
L 1478 4666 
L 3547 763 
L 3547 4666 
L 4159 4666 
L 4159 0 
L 3309 0 
L 1241 3903 
L 1241 0 
L 628 0 
L 628 4666 
z
" transform="scale(0.015625)"/>
       <path id="DejaVuSans-67" d="M 2906 1791 
Q 2906 2416 2648 2759 
Q 2391 3103 1925 3103 
Q 1463 3103 1205 2759 
Q 947 2416 947 1791 
Q 947 1169 1205 825 
Q 1463 481 1925 481 
Q 2391 481 2648 825 
Q 2906 1169 2906 1791 
z
M 3481 434 
Q 3481 -459 3084 -895 
Q 2688 -1331 1869 -1331 
Q 1566 -1331 1297 -1286 
Q 1028 -1241 775 -1147 
L 775 -588 
Q 1028 -725 1275 -790 
Q 1522 -856 1778 -856 
Q 2344 -856 2625 -561 
Q 2906 -266 2906 331 
L 2906 616 
Q 2728 306 2450 153 
Q 2172 0 1784 0 
Q 1141 0 747 490 
Q 353 981 353 1791 
Q 353 2603 747 3093 
Q 1141 3584 1784 3584 
Q 2172 3584 2450 3431 
Q 2728 3278 2906 2969 
L 2906 3500 
L 3481 3500 
L 3481 434 
z
" transform="scale(0.015625)"/>
      </defs>
      <use xlink:href="#DejaVuSans-4e"/>
      <use xlink:href="#DejaVuSans-65" x="74.804688"/>
      <use xlink:href="#DejaVuSans-67" x="136.328125"/>
      <use xlink:href="#DejaVuSans-61" x="199.804688"/>
      <use xlink:href="#DejaVuSans-74" x="261.083984"/>
      <use xlink:href="#DejaVuSans-69" x="300.292969"/>
      <use xlink:href="#DejaVuSans-76" x="328.076172"/>
      <use xlink:href="#DejaVuSans-65" x="387.255859"/>
      <use xlink:href="#DejaVuSans-20" x="448.779297"/>
      <use xlink:href="#DejaVuSans-70" x="480.566406"/>
      <use xlink:href="#DejaVuSans-72" x="544.042969"/>
      <use xlink:href="#DejaVuSans-65" x="582.90625"/>
      <use xlink:href="#DejaVuSans-64" x="644.429688"/>
      <use xlink:href="#DejaVuSans-69" x="707.90625"/>
      <use xlink:href="#DejaVuSans-63" x="735.689453"/>
      <use xlink:href="#DejaVuSans-74" x="790.669922"/>
      <use xlink:href="#DejaVuSans-69" x="829.878906"/>
      <use xlink:href="#DejaVuSans-6f" x="857.662109"/>
      <use xlink:href="#DejaVuSans-6e" x="918.84375"/>
      <use xlink:href="#DejaVuSans-73" x="982.222656"/>
     </g>
    </g>
    <g id="line2d_20">
     <path d="M 66.6 83.926688 
L 76.6 83.926688 
L 86.6 83.926688 
" style="fill: none; stroke: #2ca02c; stroke-opacity: 0.7; stroke-width: 0.5; stroke-linecap: square"/>
    </g>
    <g id="text_17">
     <!-- Average predictions -->
     <g transform="translate(94.6 87.426688) scale(0.1 -0.1)">
      <defs>
       <path id="DejaVuSans-41" d="M 2188 4044 
L 1331 1722 
L 3047 1722 
L 2188 4044 
z
M 1831 4666 
L 2547 4666 
L 4325 0 
L 3669 0 
L 3244 1197 
L 1141 1197 
L 716 0 
L 50 0 
L 1831 4666 
z
" transform="scale(0.015625)"/>
      </defs>
      <use xlink:href="#DejaVuSans-41"/>
      <use xlink:href="#DejaVuSans-76" x="62.533203"/>
      <use xlink:href="#DejaVuSans-65" x="121.712891"/>
      <use xlink:href="#DejaVuSans-72" x="183.236328"/>
      <use xlink:href="#DejaVuSans-61" x="224.349609"/>
      <use xlink:href="#DejaVuSans-67" x="285.628906"/>
      <use xlink:href="#DejaVuSans-65" x="349.105469"/>
      <use xlink:href="#DejaVuSans-20" x="410.628906"/>
      <use xlink:href="#DejaVuSans-70" x="442.416016"/>
      <use xlink:href="#DejaVuSans-72" x="505.892578"/>
      <use xlink:href="#DejaVuSans-65" x="544.755859"/>
      <use xlink:href="#DejaVuSans-64" x="606.279297"/>
      <use xlink:href="#DejaVuSans-69" x="669.755859"/>
      <use xlink:href="#DejaVuSans-63" x="697.539062"/>
      <use xlink:href="#DejaVuSans-74" x="752.519531"/>
      <use xlink:href="#DejaVuSans-69" x="791.728516"/>
      <use xlink:href="#DejaVuSans-6f" x="819.511719"/>
      <use xlink:href="#DejaVuSans-6e" x="880.693359"/>
      <use xlink:href="#DejaVuSans-73" x="944.072266"/>
     </g>
    </g>
    <g id="line2d_21">
     <path d="M 66.6 98.604813 
L 76.6 98.604813 
L 86.6 98.604813 
" style="fill: none; stroke: #d62728; stroke-opacity: 0.7; stroke-width: 0.5; stroke-linecap: square"/>
    </g>
    <g id="text_18">
     <!-- Actual values -->
     <g transform="translate(94.6 102.104813) scale(0.1 -0.1)">
      <defs>
       <path id="DejaVuSans-75" d="M 544 1381 
L 544 3500 
L 1119 3500 
L 1119 1403 
Q 1119 906 1312 657 
Q 1506 409 1894 409 
Q 2359 409 2629 706 
Q 2900 1003 2900 1516 
L 2900 3500 
L 3475 3500 
L 3475 0 
L 2900 0 
L 2900 538 
Q 2691 219 2414 64 
Q 2138 -91 1772 -91 
Q 1169 -91 856 284 
Q 544 659 544 1381 
z
M 1991 3584 
L 1991 3584 
z
" transform="scale(0.015625)"/>
      </defs>
      <use xlink:href="#DejaVuSans-41"/>
      <use xlink:href="#DejaVuSans-63" x="66.658203"/>
      <use xlink:href="#DejaVuSans-74" x="121.638672"/>
      <use xlink:href="#DejaVuSans-75" x="160.847656"/>
      <use xlink:href="#DejaVuSans-61" x="224.226562"/>
      <use xlink:href="#DejaVuSans-6c" x="285.505859"/>
      <use xlink:href="#DejaVuSans-20" x="313.289062"/>
      <use xlink:href="#DejaVuSans-76" x="345.076172"/>
      <use xlink:href="#DejaVuSans-61" x="404.255859"/>
      <use xlink:href="#DejaVuSans-6c" x="465.535156"/>
      <use xlink:href="#DejaVuSans-75" x="493.318359"/>
      <use xlink:href="#DejaVuSans-65" x="556.697266"/>
      <use xlink:href="#DejaVuSans-73" x="618.220703"/>
     </g>
    </g>
   </g>
  </g>
 </g>
 <defs>
  <clipPath id="p87b520fe6a">
   <rect x="57.6" y="41.472" width="357.12" height="266.112"/>
  </clipPath>
 </defs>
</svg>
