<?xml version="1.0" encoding="utf-8" standalone="no"?>
<!DOCTYPE svg PUBLIC "-//W3C//DTD SVG 1.1//EN"
  "http://www.w3.org/Graphics/SVG/1.1/DTD/svg11.dtd">
<svg xmlns:xlink="http://www.w3.org/1999/xlink" width="460.8pt" height="345.6pt" viewBox="0 0 460.8 345.6" xmlns="http://www.w3.org/2000/svg" version="1.1">
 <metadata>
  <rdf:RDF xmlns:dc="http://purl.org/dc/elements/1.1/" xmlns:cc="http://creativecommons.org/ns#" xmlns:rdf="http://www.w3.org/1999/02/22-rdf-syntax-ns#">
   <cc:Work>
    <dc:type rdf:resource="http://purl.org/dc/dcmitype/StillImage"/>
    <dc:date>2024-09-06T00:42:57.509931</dc:date>
    <dc:format>image/svg+xml</dc:format>
    <dc:creator>
     <cc:Agent>
      <dc:title>Matplotlib v3.9.0, https://matplotlib.org/</dc:title>
     </cc:Agent>
    </dc:creator>
   </cc:Work>
  </rdf:RDF>
 </metadata>
 <defs>
  <style type="text/css">*{stroke-linejoin: round; stroke-linecap: butt}</style>
 </defs>
 <g id="figure_1">
  <g id="patch_1">
   <path d="M 0 345.6 
L 460.8 345.6 
L 460.8 0 
L 0 0 
z
" style="fill: #ffffff"/>
  </g>
  <g id="axes_1">
   <g id="patch_2">
    <path d="M 57.6 307.584 
L 414.72 307.584 
L 414.72 41.472 
L 57.6 41.472 
z
" style="fill: #ffffff"/>
   </g>
   <g id="matplotlib.axis_1">
    <g id="xtick_1">
     <g id="line2d_1">
      <defs>
       <path id="m39e66a1f6e" d="M 0 0 
L 0 3.5 
" style="stroke: #000000; stroke-width: 0.8"/>
      </defs>
      <g>
       <use xlink:href="#m39e66a1f6e" x="73.832727" y="307.584" style="stroke: #000000; stroke-width: 0.8"/>
      </g>
     </g>
     <g id="text_1">
      <!-- 0 -->
      <g transform="translate(70.651477 322.182437) scale(0.1 -0.1)">
       <defs>
        <path id="DejaVuSans-30" d="M 2034 4250 
Q 1547 4250 1301 3770 
Q 1056 3291 1056 2328 
Q 1056 1369 1301 889 
Q 1547 409 2034 409 
Q 2525 409 2770 889 
Q 3016 1369 3016 2328 
Q 3016 3291 2770 3770 
Q 2525 4250 2034 4250 
z
M 2034 4750 
Q 2819 4750 3233 4129 
Q 3647 3509 3647 2328 
Q 3647 1150 3233 529 
Q 2819 -91 2034 -91 
Q 1250 -91 836 529 
Q 422 1150 422 2328 
Q 422 3509 836 4129 
Q 1250 4750 2034 4750 
z
" transform="scale(0.015625)"/>
       </defs>
       <use xlink:href="#DejaVuSans-30"/>
      </g>
     </g>
    </g>
    <g id="xtick_2">
     <g id="line2d_2">
      <g>
       <use xlink:href="#m39e66a1f6e" x="149.333784" y="307.584" style="stroke: #000000; stroke-width: 0.8"/>
      </g>
     </g>
     <g id="text_2">
      <!-- 50 -->
      <g transform="translate(142.971284 322.182437) scale(0.1 -0.1)">
       <defs>
        <path id="DejaVuSans-35" d="M 691 4666 
L 3169 4666 
L 3169 4134 
L 1269 4134 
L 1269 2991 
Q 1406 3038 1543 3061 
Q 1681 3084 1819 3084 
Q 2600 3084 3056 2656 
Q 3513 2228 3513 1497 
Q 3513 744 3044 326 
Q 2575 -91 1722 -91 
Q 1428 -91 1123 -41 
Q 819 9 494 109 
L 494 744 
Q 775 591 1075 516 
Q 1375 441 1709 441 
Q 2250 441 2565 725 
Q 2881 1009 2881 1497 
Q 2881 1984 2565 2268 
Q 2250 2553 1709 2553 
Q 1456 2553 1204 2497 
Q 953 2441 691 2322 
L 691 4666 
z
" transform="scale(0.015625)"/>
       </defs>
       <use xlink:href="#DejaVuSans-35"/>
       <use xlink:href="#DejaVuSans-30" x="63.623047"/>
      </g>
     </g>
    </g>
    <g id="xtick_3">
     <g id="line2d_3">
      <g>
       <use xlink:href="#m39e66a1f6e" x="224.834841" y="307.584" style="stroke: #000000; stroke-width: 0.8"/>
      </g>
     </g>
     <g id="text_3">
      <!-- 100 -->
      <g transform="translate(215.291091 322.182437) scale(0.1 -0.1)">
       <defs>
        <path id="DejaVuSans-31" d="M 794 531 
L 1825 531 
L 1825 4091 
L 703 3866 
L 703 4441 
L 1819 4666 
L 2450 4666 
L 2450 531 
L 3481 531 
L 3481 0 
L 794 0 
L 794 531 
z
" transform="scale(0.015625)"/>
       </defs>
       <use xlink:href="#DejaVuSans-31"/>
       <use xlink:href="#DejaVuSans-30" x="63.623047"/>
       <use xlink:href="#DejaVuSans-30" x="127.246094"/>
      </g>
     </g>
    </g>
    <g id="xtick_4">
     <g id="line2d_4">
      <g>
       <use xlink:href="#m39e66a1f6e" x="300.335899" y="307.584" style="stroke: #000000; stroke-width: 0.8"/>
      </g>
     </g>
     <g id="text_4">
      <!-- 150 -->
      <g transform="translate(290.792149 322.182437) scale(0.1 -0.1)">
       <use xlink:href="#DejaVuSans-31"/>
       <use xlink:href="#DejaVuSans-35" x="63.623047"/>
       <use xlink:href="#DejaVuSans-30" x="127.246094"/>
      </g>
     </g>
    </g>
    <g id="xtick_5">
     <g id="line2d_5">
      <g>
       <use xlink:href="#m39e66a1f6e" x="375.836956" y="307.584" style="stroke: #000000; stroke-width: 0.8"/>
      </g>
     </g>
     <g id="text_5">
      <!-- 200 -->
      <g transform="translate(366.293206 322.182437) scale(0.1 -0.1)">
       <defs>
        <path id="DejaVuSans-32" d="M 1228 531 
L 3431 531 
L 3431 0 
L 469 0 
L 469 531 
Q 828 903 1448 1529 
Q 2069 2156 2228 2338 
Q 2531 2678 2651 2914 
Q 2772 3150 2772 3378 
Q 2772 3750 2511 3984 
Q 2250 4219 1831 4219 
Q 1534 4219 1204 4116 
Q 875 4013 500 3803 
L 500 4441 
Q 881 4594 1212 4672 
Q 1544 4750 1819 4750 
Q 2544 4750 2975 4387 
Q 3406 4025 3406 3419 
Q 3406 3131 3298 2873 
Q 3191 2616 2906 2266 
Q 2828 2175 2409 1742 
Q 1991 1309 1228 531 
z
" transform="scale(0.015625)"/>
       </defs>
       <use xlink:href="#DejaVuSans-32"/>
       <use xlink:href="#DejaVuSans-30" x="63.623047"/>
       <use xlink:href="#DejaVuSans-30" x="127.246094"/>
      </g>
     </g>
    </g>
   </g>
   <g id="matplotlib.axis_2">
    <g id="ytick_1">
     <g id="line2d_6">
      <defs>
       <path id="m463510208d" d="M 0 0 
L -3.5 0 
" style="stroke: #000000; stroke-width: 0.8"/>
      </defs>
      <g>
       <use xlink:href="#m463510208d" x="57.6" y="293.918314" style="stroke: #000000; stroke-width: 0.8"/>
      </g>
     </g>
     <g id="text_6">
      <!-- 5000 -->
      <g transform="translate(25.15 297.717533) scale(0.1 -0.1)">
       <use xlink:href="#DejaVuSans-35"/>
       <use xlink:href="#DejaVuSans-30" x="63.623047"/>
       <use xlink:href="#DejaVuSans-30" x="127.246094"/>
       <use xlink:href="#DejaVuSans-30" x="190.869141"/>
      </g>
     </g>
    </g>
    <g id="ytick_2">
     <g id="line2d_7">
      <g>
       <use xlink:href="#m463510208d" x="57.6" y="262.524595" style="stroke: #000000; stroke-width: 0.8"/>
      </g>
     </g>
     <g id="text_7">
      <!-- 5500 -->
      <g transform="translate(25.15 266.323814) scale(0.1 -0.1)">
       <use xlink:href="#DejaVuSans-35"/>
       <use xlink:href="#DejaVuSans-35" x="63.623047"/>
       <use xlink:href="#DejaVuSans-30" x="127.246094"/>
       <use xlink:href="#DejaVuSans-30" x="190.869141"/>
      </g>
     </g>
    </g>
    <g id="ytick_3">
     <g id="line2d_8">
      <g>
       <use xlink:href="#m463510208d" x="57.6" y="231.130876" style="stroke: #000000; stroke-width: 0.8"/>
      </g>
     </g>
     <g id="text_8">
      <!-- 6000 -->
      <g transform="translate(25.15 234.930094) scale(0.1 -0.1)">
       <defs>
        <path id="DejaVuSans-36" d="M 2113 2584 
Q 1688 2584 1439 2293 
Q 1191 2003 1191 1497 
Q 1191 994 1439 701 
Q 1688 409 2113 409 
Q 2538 409 2786 701 
Q 3034 994 3034 1497 
Q 3034 2003 2786 2293 
Q 2538 2584 2113 2584 
z
M 3366 4563 
L 3366 3988 
Q 3128 4100 2886 4159 
Q 2644 4219 2406 4219 
Q 1781 4219 1451 3797 
Q 1122 3375 1075 2522 
Q 1259 2794 1537 2939 
Q 1816 3084 2150 3084 
Q 2853 3084 3261 2657 
Q 3669 2231 3669 1497 
Q 3669 778 3244 343 
Q 2819 -91 2113 -91 
Q 1303 -91 875 529 
Q 447 1150 447 2328 
Q 447 3434 972 4092 
Q 1497 4750 2381 4750 
Q 2619 4750 2861 4703 
Q 3103 4656 3366 4563 
z
" transform="scale(0.015625)"/>
       </defs>
       <use xlink:href="#DejaVuSans-36"/>
       <use xlink:href="#DejaVuSans-30" x="63.623047"/>
       <use xlink:href="#DejaVuSans-30" x="127.246094"/>
       <use xlink:href="#DejaVuSans-30" x="190.869141"/>
      </g>
     </g>
    </g>
    <g id="ytick_4">
     <g id="line2d_9">
      <g>
       <use xlink:href="#m463510208d" x="57.6" y="199.737157" style="stroke: #000000; stroke-width: 0.8"/>
      </g>
     </g>
     <g id="text_9">
      <!-- 6500 -->
      <g transform="translate(25.15 203.536375) scale(0.1 -0.1)">
       <use xlink:href="#DejaVuSans-36"/>
       <use xlink:href="#DejaVuSans-35" x="63.623047"/>
       <use xlink:href="#DejaVuSans-30" x="127.246094"/>
       <use xlink:href="#DejaVuSans-30" x="190.869141"/>
      </g>
     </g>
    </g>
    <g id="ytick_5">
     <g id="line2d_10">
      <g>
       <use xlink:href="#m463510208d" x="57.6" y="168.343437" style="stroke: #000000; stroke-width: 0.8"/>
      </g>
     </g>
     <g id="text_10">
      <!-- 7000 -->
      <g transform="translate(25.15 172.142656) scale(0.1 -0.1)">
       <defs>
        <path id="DejaVuSans-37" d="M 525 4666 
L 3525 4666 
L 3525 4397 
L 1831 0 
L 1172 0 
L 2766 4134 
L 525 4134 
L 525 4666 
z
" transform="scale(0.015625)"/>
       </defs>
       <use xlink:href="#DejaVuSans-37"/>
       <use xlink:href="#DejaVuSans-30" x="63.623047"/>
       <use xlink:href="#DejaVuSans-30" x="127.246094"/>
       <use xlink:href="#DejaVuSans-30" x="190.869141"/>
      </g>
     </g>
    </g>
    <g id="ytick_6">
     <g id="line2d_11">
      <g>
       <use xlink:href="#m463510208d" x="57.6" y="136.949718" style="stroke: #000000; stroke-width: 0.8"/>
      </g>
     </g>
     <g id="text_11">
      <!-- 7500 -->
      <g transform="translate(25.15 140.748937) scale(0.1 -0.1)">
       <use xlink:href="#DejaVuSans-37"/>
       <use xlink:href="#DejaVuSans-35" x="63.623047"/>
       <use xlink:href="#DejaVuSans-30" x="127.246094"/>
       <use xlink:href="#DejaVuSans-30" x="190.869141"/>
      </g>
     </g>
    </g>
    <g id="ytick_7">
     <g id="line2d_12">
      <g>
       <use xlink:href="#m463510208d" x="57.6" y="105.555999" style="stroke: #000000; stroke-width: 0.8"/>
      </g>
     </g>
     <g id="text_12">
      <!-- 8000 -->
      <g transform="translate(25.15 109.355218) scale(0.1 -0.1)">
       <defs>
        <path id="DejaVuSans-38" d="M 2034 2216 
Q 1584 2216 1326 1975 
Q 1069 1734 1069 1313 
Q 1069 891 1326 650 
Q 1584 409 2034 409 
Q 2484 409 2743 651 
Q 3003 894 3003 1313 
Q 3003 1734 2745 1975 
Q 2488 2216 2034 2216 
z
M 1403 2484 
Q 997 2584 770 2862 
Q 544 3141 544 3541 
Q 544 4100 942 4425 
Q 1341 4750 2034 4750 
Q 2731 4750 3128 4425 
Q 3525 4100 3525 3541 
Q 3525 3141 3298 2862 
Q 3072 2584 2669 2484 
Q 3125 2378 3379 2068 
Q 3634 1759 3634 1313 
Q 3634 634 3220 271 
Q 2806 -91 2034 -91 
Q 1263 -91 848 271 
Q 434 634 434 1313 
Q 434 1759 690 2068 
Q 947 2378 1403 2484 
z
M 1172 3481 
Q 1172 3119 1398 2916 
Q 1625 2713 2034 2713 
Q 2441 2713 2670 2916 
Q 2900 3119 2900 3481 
Q 2900 3844 2670 4047 
Q 2441 4250 2034 4250 
Q 1625 4250 1398 4047 
Q 1172 3844 1172 3481 
z
" transform="scale(0.015625)"/>
       </defs>
       <use xlink:href="#DejaVuSans-38"/>
       <use xlink:href="#DejaVuSans-30" x="63.623047"/>
       <use xlink:href="#DejaVuSans-30" x="127.246094"/>
       <use xlink:href="#DejaVuSans-30" x="190.869141"/>
      </g>
     </g>
    </g>
    <g id="ytick_8">
     <g id="line2d_13">
      <g>
       <use xlink:href="#m463510208d" x="57.6" y="74.16228" style="stroke: #000000; stroke-width: 0.8"/>
      </g>
     </g>
     <g id="text_13">
      <!-- 8500 -->
      <g transform="translate(25.15 77.961499) scale(0.1 -0.1)">
       <use xlink:href="#DejaVuSans-38"/>
       <use xlink:href="#DejaVuSans-35" x="63.623047"/>
       <use xlink:href="#DejaVuSans-30" x="127.246094"/>
       <use xlink:href="#DejaVuSans-30" x="190.869141"/>
      </g>
     </g>
    </g>
    <g id="ytick_9">
     <g id="line2d_14">
      <g>
       <use xlink:href="#m463510208d" x="57.6" y="42.768561" style="stroke: #000000; stroke-width: 0.8"/>
      </g>
     </g>
     <g id="text_14">
      <!-- 9000 -->
      <g transform="translate(25.15 46.567779) scale(0.1 -0.1)">
       <defs>
        <path id="DejaVuSans-39" d="M 703 97 
L 703 672 
Q 941 559 1184 500 
Q 1428 441 1663 441 
Q 2288 441 2617 861 
Q 2947 1281 2994 2138 
Q 2813 1869 2534 1725 
Q 2256 1581 1919 1581 
Q 1219 1581 811 2004 
Q 403 2428 403 3163 
Q 403 3881 828 4315 
Q 1253 4750 1959 4750 
Q 2769 4750 3195 4129 
Q 3622 3509 3622 2328 
Q 3622 1225 3098 567 
Q 2575 -91 1691 -91 
Q 1453 -91 1209 -44 
Q 966 3 703 97 
z
M 1959 2075 
Q 2384 2075 2632 2365 
Q 2881 2656 2881 3163 
Q 2881 3666 2632 3958 
Q 2384 4250 1959 4250 
Q 1534 4250 1286 3958 
Q 1038 3666 1038 3163 
Q 1038 2656 1286 2365 
Q 1534 2075 1959 2075 
z
" transform="scale(0.015625)"/>
       </defs>
       <use xlink:href="#DejaVuSans-39"/>
       <use xlink:href="#DejaVuSans-30" x="63.623047"/>
       <use xlink:href="#DejaVuSans-30" x="127.246094"/>
       <use xlink:href="#DejaVuSans-30" x="190.869141"/>
      </g>
     </g>
    </g>
   </g>
   <g id="line2d_15">
    <path d="M 73.832727 295.488 
L 75.342748 292.034691 
L 76.85277 291.971903 
L 78.362791 291.155667 
L 79.872812 290.025493 
L 81.382833 289.899918 
L 84.402875 290.08828 
L 85.912896 289.460406 
L 88.932939 282.804937 
L 90.44296 271.503199 
L 91.952981 276.588981 
L 93.463002 278.158667 
L 94.973023 279.477203 
L 97.993066 277.279643 
L 99.503087 274.89372 
L 101.013108 273.261247 
L 102.523129 270.435812 
L 104.03315 270.686962 
L 105.543171 269.368426 
L 107.053192 267.861527 
L 108.563214 268.238252 
L 110.073235 267.422015 
L 111.583256 267.484802 
L 113.093277 265.915117 
L 114.603298 265.412817 
L 116.113319 266.229054 
L 117.62334 265.475604 
L 119.133362 266.103479 
L 120.643383 266.542991 
L 122.153404 265.287242 
L 123.663425 266.668566 
L 125.173446 267.170865 
L 126.683467 264.031493 
L 128.193488 267.170865 
L 129.70351 262.336233 
L 131.213531 262.336233 
L 132.723552 263.089682 
L 134.233573 262.461807 
L 135.743594 260.703759 
L 137.253615 260.515397 
L 138.763636 261.017696 
L 140.273658 260.389822 
L 141.783679 260.075885 
L 143.2937 259.385223 
L 144.803721 255.492402 
L 146.313742 256.497001 
L 147.823763 254.55059 
L 149.333784 250.783344 
L 150.843805 245.069687 
L 152.353827 242.809339 
L 153.863848 246.137073 
L 155.373869 246.639373 
L 156.88389 245.634774 
L 158.393911 245.069687 
L 159.903932 246.262648 
L 161.413953 241.490803 
L 162.923975 241.490803 
L 164.433996 240.046692 
L 165.944017 239.669967 
L 167.454038 240.360629 
L 168.964059 240.423417 
L 170.47408 240.737354 
L 171.984101 241.302441 
L 173.494123 239.167668 
L 175.004144 238.225856 
L 176.514165 237.472407 
L 178.024186 238.225856 
L 179.534207 237.660769 
L 181.044228 239.10488 
L 182.554249 237.723557 
L 184.064271 232.26105 
L 185.574292 235.777146 
L 187.084313 233.454011 
L 188.594334 230.754151 
L 190.104355 230.816938 
L 191.614376 228.996103 
L 193.124397 231.5076 
L 194.634419 233.014499 
L 196.14444 232.0099 
L 197.654461 230.691364 
L 199.164482 231.256451 
L 200.674503 226.421818 
L 202.184524 225.793943 
L 203.694545 223.470808 
L 205.204567 220.708161 
L 206.714588 222.654572 
L 208.224609 223.533596 
L 209.73463 223.219658 
L 211.244651 222.717359 
L 214.264693 216.187465 
L 215.774715 218.447813 
L 217.284736 216.250253 
L 218.794757 215.810741 
L 221.814799 215.622378 
L 223.32482 217.129277 
L 224.834841 213.236456 
L 226.344863 212.859731 
L 227.854884 211.038895 
L 229.364905 213.989905 
L 230.874926 214.11548 
L 232.384947 213.362031 
L 233.894968 212.796944 
L 235.404989 212.985306 
L 236.915011 209.971509 
L 238.425032 204.446214 
L 239.935053 205.450813 
L 241.445074 206.832137 
L 242.955095 205.325239 
L 244.465116 205.513601 
L 245.975137 205.074089 
L 247.485159 201.62078 
L 248.99518 201.683567 
L 250.505201 199.423219 
L 252.015222 199.423219 
L 253.525243 197.414021 
L 255.035264 196.660572 
L 256.545285 193.27005 
L 258.055307 193.458413 
L 261.075349 194.776949 
L 262.58537 194.337437 
L 264.095391 194.525799 
L 265.605412 194.463012 
L 267.115433 190.444616 
L 268.625455 191.260852 
L 270.135476 191.825939 
L 271.645497 190.758553 
L 273.155518 185.044896 
L 274.665539 186.551794 
L 276.17556 183.851935 
L 277.685581 183.412423 
L 279.195603 180.5242 
L 280.705624 178.954514 
L 282.215645 181.528799 
L 283.725666 180.147476 
L 285.235687 174.810543 
L 286.745708 165.015703 
L 288.255729 163.508805 
L 289.765751 161.374032 
L 291.275772 158.674172 
L 292.785793 159.364834 
L 294.295814 155.472012 
L 295.805835 142.726162 
L 297.315856 144.73536 
L 298.825877 149.256056 
L 300.335899 146.305046 
L 301.84592 149.695568 
L 303.355941 149.88393 
L 304.865962 148.879331 
L 306.375983 144.860935 
L 307.886004 143.354037 
L 309.396025 140.716964 
L 310.906047 142.349438 
L 312.416068 134.375433 
L 313.926089 130.608187 
L 315.43611 133.119684 
L 316.946131 127.34324 
L 318.456152 127.84554 
L 319.966173 126.401428 
L 321.476195 125.208467 
L 322.986216 124.831743 
L 324.496237 124.64338 
L 326.006258 122.257458 
L 327.516279 124.89453 
L 329.0263 121.441221 
L 330.536321 122.069095 
L 332.046342 120.624984 
L 333.556364 113.027704 
L 335.066385 110.955719 
L 336.576406 111.018506 
L 338.086427 108.569796 
L 339.596448 112.588192 
L 341.106469 115.09969 
L 342.61649 114.032303 
L 344.126512 109.386033 
L 345.636533 108.381434 
L 347.146554 107.690772 
L 348.656575 105.367637 
L 350.166596 100.972516 
L 351.676617 102.981714 
L 353.186638 99.15168 
L 354.69666 98.963318 
L 356.206681 99.842342 
L 357.716702 99.088893 
L 359.226723 97.895931 
L 360.736744 98.461018 
L 362.246765 96.577395 
L 363.756786 92.872936 
L 365.266808 88.603391 
L 366.776829 82.01071 
L 368.28685 58.339845 
L 369.796871 65.623188 
L 371.306892 66.188275 
L 372.816913 70.395033 
L 374.326934 70.520608 
L 375.836956 72.215869 
L 377.346977 71.964719 
L 378.856998 72.529806 
L 381.87704 67.695174 
L 383.387061 67.318449 
L 384.897082 71.525207 
L 386.407104 68.51141 
L 387.917125 65.246464 
L 389.427146 65.685976 
L 390.937167 63.174478 
L 392.447188 61.604792 
L 393.957209 56.581797 
L 395.46723 63.36284 
L 396.977252 62.672179 
L 398.487273 55.828348 
L 398.487273 55.828348 
" clip-path="url(#pb4ba15c173)" style="fill: none; stroke: #1f77b4; stroke-opacity: 0.7; stroke-width: 0.5; stroke-linecap: square"/>
   </g>
   <g id="line2d_16">
    <path d="M 73.832727 294.420614 
L 75.342748 294.169464 
L 76.85277 290.716155 
L 78.362791 288.581382 
L 79.872812 291.092879 
L 81.382833 287.765145 
L 82.892854 287.702358 
L 84.402875 289.083681 
L 85.912896 289.146469 
L 87.422918 284.876923 
L 88.932939 283.370024 
L 90.44296 277.530793 
L 91.952981 277.216855 
L 94.973023 279.539991 
L 96.483044 277.970305 
L 97.993066 277.468005 
L 99.503087 275.898319 
L 101.013108 274.830933 
L 102.523129 271.628773 
L 104.03315 269.556788 
L 105.543171 269.933513 
L 107.053192 266.229054 
L 108.563214 266.480203 
L 110.073235 268.112677 
L 111.583256 266.229054 
L 113.093277 267.108078 
L 114.603298 265.663967 
L 116.113319 266.480203 
L 117.62334 266.229054 
L 119.133362 266.166266 
L 122.153404 265.789542 
L 123.663425 266.542991 
L 126.683467 266.731353 
L 128.193488 266.856928 
L 129.70351 263.780344 
L 131.213531 261.645571 
L 132.723552 261.708358 
L 134.233573 259.636373 
L 135.743594 260.138672 
L 137.253615 258.631774 
L 138.763636 261.017696 
L 140.273658 259.69916 
L 141.783679 259.887522 
L 144.803721 258.192262 
L 146.313742 256.308638 
L 147.823763 253.545991 
L 149.333784 251.913518 
L 150.843805 251.976305 
L 152.353827 246.388223 
L 153.863848 247.895122 
L 155.373869 247.141672 
L 156.88389 246.011499 
L 158.393911 244.692962 
L 159.903932 246.011499 
L 161.413953 243.123276 
L 162.923975 241.302441 
L 164.433996 238.602581 
L 165.944017 239.230455 
L 167.454038 239.669967 
L 168.964059 240.486204 
L 170.47408 240.674566 
L 171.984101 239.293243 
L 173.494123 239.544392 
L 175.004144 240.423417 
L 178.024186 238.163069 
L 179.534207 237.660769 
L 181.044228 237.786344 
L 182.554249 236.153871 
L 185.574292 235.777146 
L 187.084313 233.830736 
L 188.594334 231.382025 
L 190.104355 231.5076 
L 191.614376 231.947112 
L 193.124397 229.623977 
L 194.634419 230.754151 
L 196.14444 231.695963 
L 197.654461 230.816938 
L 199.164482 230.440214 
L 200.674503 226.484605 
L 202.184524 225.793943 
L 203.694545 224.914919 
L 205.204567 222.152272 
L 208.224609 224.098683 
L 209.73463 222.905721 
L 211.244651 222.905721 
L 212.754672 220.457011 
L 214.264693 216.250253 
L 215.774715 217.568789 
L 217.284736 214.868929 
L 218.794757 214.680567 
L 220.304778 214.806142 
L 221.814799 216.56419 
L 223.32482 217.568789 
L 224.834841 213.801543 
L 226.344863 214.303842 
L 227.854884 213.424818 
L 229.364905 212.357432 
L 230.874926 214.429417 
L 232.384947 211.541195 
L 233.894968 212.734156 
L 235.404989 212.922519 
L 236.915011 210.536596 
L 238.425032 203.56719 
L 239.935053 206.76935 
L 241.445074 206.392625 
L 242.955095 205.450813 
L 244.465116 205.388026 
L 245.975137 205.576388 
L 247.485159 201.871929 
L 248.99518 199.737157 
L 250.505201 198.983707 
L 252.015222 201.055693 
L 253.525243 197.351234 
L 255.035264 195.342036 
L 256.545285 192.893326 
L 258.055307 192.830538 
L 259.565328 195.090886 
L 261.075349 192.265451 
L 262.58537 194.463012 
L 264.095391 196.22106 
L 265.605412 193.27005 
L 267.115433 190.758553 
L 268.625455 192.391026 
L 270.135476 191.449215 
L 271.645497 189.628379 
L 273.155518 186.17507 
L 274.665539 187.305244 
L 276.17556 184.165872 
L 277.685581 182.282249 
L 279.195603 182.093886 
L 280.705624 181.340437 
L 282.215645 183.412423 
L 283.725666 178.138278 
L 285.235687 175.563993 
L 286.745708 171.168872 
L 288.255729 166.020302 
L 289.765751 164.952916 
L 291.275772 161.311244 
L 292.785793 160.369433 
L 294.295814 156.476611 
L 295.805835 147.623583 
L 297.315856 148.628182 
L 298.825877 149.381631 
L 300.335899 149.004906 
L 301.84592 149.88393 
L 303.355941 148.753757 
L 304.865962 148.125882 
L 306.375983 146.995708 
L 307.886004 142.5378 
L 309.396025 136.321844 
L 310.906047 138.958916 
L 312.416068 139.084491 
L 313.926089 128.473414 
L 315.43611 130.796549 
L 316.946131 129.226863 
L 318.456152 126.464216 
L 319.966173 125.961916 
L 321.476195 125.773554 
L 322.986216 124.329443 
L 324.496237 121.127284 
L 326.006258 121.378433 
L 327.516279 122.320245 
L 329.0263 122.948119 
L 330.536321 120.876134 
L 332.046342 119.808747 
L 333.556364 110.076695 
L 335.066385 111.771955 
L 336.576406 112.839342 
L 338.086427 112.023105 
L 339.596448 112.650979 
L 341.106469 112.085893 
L 342.61649 115.539202 
L 344.126512 106.937323 
L 345.636533 109.637182 
L 347.146554 108.946521 
L 348.656575 106.058298 
L 350.166596 101.349241 
L 351.676617 102.730564 
L 353.186638 100.721366 
L 354.69666 99.088893 
L 356.206681 98.021506 
L 357.716702 94.819347 
L 359.226723 100.219067 
L 360.736744 100.030704 
L 362.246765 94.693772 
L 363.756786 92.370637 
L 365.266808 84.20827 
L 366.776829 78.934125 
L 368.28685 70.081096 
L 369.796871 66.376637 
L 371.306892 66.376637 
L 372.816913 71.587995 
L 374.326934 70.583396 
L 375.836956 72.090294 
L 377.346977 71.587995 
L 378.856998 72.467019 
L 380.367019 66.816149 
L 381.87704 69.641584 
L 383.387061 67.130087 
L 384.897082 69.26486 
L 386.407104 67.381236 
L 387.917125 67.444024 
L 389.427146 67.067299 
L 390.937167 65.874338 
L 392.447188 64.179077 
L 393.957209 63.048903 
L 395.46723 61.604792 
L 396.977252 62.860541 
L 398.487273 53.568 
L 398.487273 53.568 
" clip-path="url(#pb4ba15c173)" style="fill: none; stroke: #ff7f0e; stroke-opacity: 0.7; stroke-width: 0.5; stroke-linecap: square"/>
   </g>
   <g id="line2d_17">
    <path d="M 73.832727 294.954307 
L 76.85277 291.344029 
L 78.362791 289.868524 
L 79.872812 290.559186 
L 81.382833 288.832532 
L 82.892854 288.832532 
L 84.402875 289.585981 
L 85.912896 289.303437 
L 87.422918 285.473404 
L 88.932939 283.087481 
L 90.44296 274.516996 
L 91.952981 276.902918 
L 94.973023 279.508597 
L 96.483044 278.158667 
L 97.993066 277.373824 
L 99.503087 275.39602 
L 101.013108 274.04609 
L 102.523129 271.032293 
L 104.03315 270.121875 
L 105.543171 269.650969 
L 107.053192 267.04529 
L 110.073235 267.767346 
L 111.583256 266.856928 
L 113.093277 266.511597 
L 114.603298 265.538392 
L 116.113319 266.354629 
L 117.62334 265.852329 
L 119.133362 266.134873 
L 120.643383 266.260447 
L 122.153404 265.538392 
L 123.663425 266.605778 
L 125.173446 266.888322 
L 126.683467 265.381423 
L 128.193488 267.013897 
L 129.70351 263.058288 
L 131.213531 261.990902 
L 132.723552 262.39902 
L 134.233573 261.04909 
L 135.743594 260.421216 
L 137.253615 259.573585 
L 138.763636 261.017696 
L 140.273658 260.044491 
L 141.783679 259.981704 
L 143.2937 259.228254 
L 144.803721 256.842332 
L 146.313742 256.40282 
L 147.823763 254.048291 
L 150.843805 248.522996 
L 152.353827 244.598781 
L 153.863848 247.016098 
L 155.373869 246.890523 
L 158.393911 244.881325 
L 159.903932 246.137073 
L 161.413953 242.30704 
L 162.923975 241.396622 
L 164.433996 239.324636 
L 165.944017 239.450211 
L 167.454038 240.015298 
L 168.964059 240.45481 
L 170.47408 240.70596 
L 171.984101 240.297842 
L 173.494123 239.35603 
L 175.004144 239.324636 
L 176.514165 238.351431 
L 178.024186 238.194462 
L 179.534207 237.660769 
L 181.044228 238.445612 
L 182.554249 236.938714 
L 184.064271 234.113279 
L 185.574292 235.777146 
L 187.084313 233.642373 
L 188.594334 231.068088 
L 190.104355 231.162269 
L 191.614376 230.471608 
L 193.124397 230.565789 
L 194.634419 231.884325 
L 196.14444 231.852931 
L 197.654461 230.754151 
L 199.164482 230.848332 
L 200.674503 226.453212 
L 202.184524 225.793943 
L 203.694545 224.192864 
L 205.204567 221.430216 
L 206.714588 222.905721 
L 208.224609 223.816139 
L 209.73463 223.06269 
L 211.244651 222.81154 
L 212.754672 219.954712 
L 214.264693 216.218859 
L 215.774715 218.008301 
L 217.284736 215.559591 
L 218.794757 215.245654 
L 220.304778 215.277047 
L 221.814799 216.093284 
L 223.32482 217.349033 
L 224.834841 213.518999 
L 226.344863 213.581787 
L 227.854884 212.231857 
L 229.364905 213.173668 
L 230.874926 214.272448 
L 232.384947 212.451613 
L 233.894968 212.76555 
L 235.404989 212.953912 
L 236.915011 210.254052 
L 238.425032 204.006702 
L 239.935053 206.110081 
L 241.445074 206.612381 
L 242.955095 205.388026 
L 244.465116 205.450813 
L 245.975137 205.325239 
L 247.485159 201.746355 
L 248.99518 200.710362 
L 250.505201 199.203463 
L 252.015222 200.239456 
L 253.525243 197.382628 
L 255.035264 196.001304 
L 256.545285 193.081688 
L 258.055307 193.144475 
L 259.565328 194.61998 
L 261.075349 193.5212 
L 264.095391 195.37343 
L 265.605412 193.866531 
L 267.115433 190.601584 
L 268.625455 191.825939 
L 270.135476 191.637577 
L 271.645497 190.193466 
L 273.155518 185.609983 
L 274.665539 186.928519 
L 276.17556 184.008903 
L 277.685581 182.847336 
L 279.195603 181.309043 
L 280.705624 180.147476 
L 282.215645 182.470611 
L 283.725666 179.142877 
L 285.235687 175.187268 
L 286.745708 168.092288 
L 288.255729 164.764553 
L 289.765751 163.163474 
L 291.275772 159.992708 
L 292.785793 159.867133 
L 294.295814 155.974312 
L 295.805835 145.174873 
L 297.315856 146.681771 
L 298.825877 149.318843 
L 300.335899 147.654976 
L 301.84592 149.789749 
L 303.355941 149.318843 
L 304.865962 148.502607 
L 306.375983 145.928322 
L 307.886004 142.945919 
L 309.396025 138.519404 
L 310.906047 140.654177 
L 312.416068 136.729962 
L 313.926089 129.5408 
L 315.43611 131.958117 
L 316.946131 128.285052 
L 318.456152 127.154878 
L 319.966173 126.181672 
L 321.476195 125.491011 
L 322.986216 124.580593 
L 324.496237 122.885332 
L 326.006258 121.817945 
L 327.516279 123.607387 
L 329.0263 122.19467 
L 330.536321 121.472615 
L 332.046342 120.216866 
L 333.556364 111.552199 
L 335.066385 111.363837 
L 336.576406 111.928924 
L 338.086427 110.296451 
L 339.596448 112.619586 
L 341.106469 113.592791 
L 342.61649 114.785752 
L 344.126512 108.161678 
L 345.636533 109.009308 
L 347.146554 108.318646 
L 348.656575 105.712968 
L 350.166596 101.160878 
L 351.676617 102.856139 
L 353.186638 99.936523 
L 354.69666 99.026105 
L 356.206681 98.931924 
L 357.716702 96.95412 
L 359.226723 99.057499 
L 360.736744 99.245861 
L 362.246765 95.635584 
L 363.756786 92.621787 
L 366.776829 80.472417 
L 368.28685 64.210471 
L 369.796871 65.999913 
L 371.306892 66.282456 
L 372.816913 70.991514 
L 374.326934 70.552002 
L 375.836956 72.153082 
L 377.346977 71.776357 
L 378.856998 72.498413 
L 380.367019 68.480017 
L 381.87704 68.668379 
L 383.387061 67.224268 
L 384.897082 70.395033 
L 386.407104 67.946323 
L 387.917125 66.345244 
L 389.427146 66.376637 
L 390.937167 64.524408 
L 392.447188 62.891935 
L 393.957209 59.81535 
L 395.46723 62.483816 
L 396.977252 62.76636 
L 398.487273 54.698174 
L 398.487273 54.698174 
" clip-path="url(#pb4ba15c173)" style="fill: none; stroke: #2ca02c; stroke-opacity: 0.7; stroke-width: 0.5; stroke-linecap: square"/>
   </g>
   <g id="line2d_18">
    <path d="M 73.832727 294.420614 
L 75.342748 291.909116 
L 78.362791 290.653367 
L 79.872812 290.276643 
L 81.382833 290.213855 
L 82.892854 289.460406 
L 84.402875 289.523193 
L 85.912896 287.262846 
L 87.422918 283.432812 
L 88.932939 277.468005 
L 90.44296 277.59358 
L 91.952981 278.09588 
L 93.463002 279.477203 
L 94.973023 277.907517 
L 96.483044 277.34243 
L 97.993066 276.463406 
L 99.503087 274.454208 
L 101.013108 272.821735 
L 102.523129 270.624174 
L 104.03315 269.9963 
L 105.543171 268.489402 
L 107.053192 268.489402 
L 108.563214 268.301039 
L 110.073235 268.238252 
L 113.093277 266.480203 
L 114.603298 266.480203 
L 116.113319 266.354629 
L 117.62334 266.354629 
L 119.133362 266.103479 
L 120.643383 266.040691 
L 122.153404 266.605778 
L 123.663425 266.794141 
L 125.173446 266.731353 
L 126.683467 266.794141 
L 128.193488 263.529194 
L 129.70351 262.14787 
L 131.213531 263.089682 
L 132.723552 261.833933 
L 134.233573 261.331634 
L 135.743594 261.017696 
L 137.253615 261.080484 
L 138.763636 260.515397 
L 140.273658 260.20146 
L 141.783679 259.385223 
L 143.2937 258.003899 
L 144.803721 256.434213 
L 146.313742 255.178465 
L 147.823763 252.980904 
L 149.333784 251.034494 
L 150.843805 248.774146 
L 152.353827 247.45561 
L 153.863848 247.20446 
L 155.373869 245.885924 
L 156.88389 245.634774 
L 158.393911 246.262648 
L 161.413953 241.365228 
L 162.923975 239.921117 
L 164.433996 239.732755 
L 165.944017 240.297842 
L 168.964059 240.674566 
L 170.47408 241.302441 
L 171.984101 240.046692 
L 173.494123 240.423417 
L 175.004144 239.042093 
L 176.514165 238.979305 
L 178.024186 238.477006 
L 179.534207 238.602581 
L 181.044228 237.723557 
L 182.554249 236.091083 
L 184.064271 235.588784 
L 185.574292 233.454011 
L 187.084313 232.0099 
L 188.594334 231.444813 
L 190.104355 231.695963 
L 191.614376 231.130876 
L 193.124397 231.633175 
L 194.634419 232.0099 
L 196.14444 230.628576 
L 197.654461 230.754151 
L 199.164482 228.682166 
L 200.674503 226.35903 
L 202.184524 225.417219 
L 203.694545 223.094084 
L 205.204567 222.717359 
L 206.714588 223.156871 
L 208.224609 223.156871 
L 209.73463 222.968509 
L 211.244651 221.084886 
L 212.754672 218.447813 
L 214.264693 218.510601 
L 215.774715 216.501403 
L 217.284736 216.187465 
L 218.794757 217.003702 
L 220.304778 216.501403 
L 221.814799 217.066489 
L 223.32482 214.868929 
L 224.834841 214.429417 
L 226.344863 213.362031 
L 227.854884 213.487606 
L 229.364905 214.052692 
L 232.384947 213.173668 
L 233.894968 213.048093 
L 235.404989 211.16447 
L 236.915011 205.764751 
L 238.425032 206.706562 
L 239.935053 206.580987 
L 241.445074 206.204263 
L 242.955095 205.388026 
L 244.465116 206.643775 
L 245.975137 202.123079 
L 247.485159 202.123079 
L 248.99518 199.611582 
L 250.505201 200.992905 
L 252.015222 198.983707 
L 253.525243 197.727958 
L 255.035264 193.144475 
L 256.545285 193.960712 
L 258.055307 194.149074 
L 259.565328 194.776949 
L 261.075349 194.839736 
L 262.58537 195.781548 
L 264.095391 194.651374 
L 265.605412 190.946915 
L 267.115433 191.763152 
L 270.135476 190.82134 
L 271.645497 187.556393 
L 273.155518 187.430819 
L 274.665539 185.107683 
L 276.17556 184.605384 
L 277.685581 182.721761 
L 279.195603 181.27765 
L 280.705624 182.031099 
L 282.215645 179.331239 
L 283.725666 177.070891 
L 285.235687 171.043297 
L 286.745708 167.276051 
L 289.765751 161.499607 
L 291.275772 160.43222 
L 292.785793 156.539399 
L 294.295814 149.632781 
L 295.805835 148.628182 
L 297.315856 148.753757 
L 298.825877 149.004906 
L 300.335899 149.695568 
L 301.84592 149.632781 
L 303.355941 148.942119 
L 306.375983 143.354037 
L 307.886004 142.28665 
L 309.396025 141.847138 
L 312.416068 134.438221 
L 313.926089 132.99411 
L 315.43611 128.787351 
L 316.946131 127.719965 
L 318.456152 126.903728 
L 319.966173 125.082892 
L 322.986216 124.706168 
L 324.496237 124.957317 
L 326.006258 124.39223 
L 327.516279 123.073694 
L 329.0263 122.948119 
L 330.536321 120.436622 
L 332.046342 112.902129 
L 333.556364 111.144081 
L 335.066385 112.588192 
L 336.576406 113.090492 
L 338.086427 113.090492 
L 339.596448 114.59739 
L 341.106469 114.032303 
L 342.61649 109.19767 
L 344.126512 109.386033 
L 345.636533 108.130284 
L 347.146554 105.116487 
L 348.656575 102.416627 
L 350.166596 102.730564 
L 351.676617 99.779555 
L 353.186638 99.967917 
L 354.69666 99.90513 
L 356.206681 99.65398 
L 357.716702 98.712168 
L 359.226723 98.523806 
L 360.736744 96.70297 
L 362.246765 93.940323 
L 363.756786 87.15928 
L 365.266808 82.826946 
L 366.776829 70.583396 
L 368.28685 66.439425 
L 369.796871 67.757961 
L 371.306892 70.96012 
L 372.816913 71.085695 
L 374.326934 72.090294 
L 375.836956 72.027507 
L 377.346977 72.404232 
L 378.856998 69.516009 
L 380.367019 69.26486 
L 381.87704 70.018309 
L 383.387061 70.143884 
L 384.897082 68.76256 
L 386.407104 68.134686 
L 387.917125 68.385835 
L 389.427146 65.309251 
L 390.937167 64.11629 
L 392.447188 63.36284 
L 393.957209 63.425628 
L 395.46723 63.048903 
L 396.977252 57.774758 
L 398.487273 55.012111 
L 398.487273 55.012111 
" clip-path="url(#pb4ba15c173)" style="fill: none; stroke: #d62728; stroke-opacity: 0.7; stroke-width: 0.5; stroke-linecap: square"/>
   </g>
   <g id="patch_3">
    <path d="M 57.6 307.584 
L 57.6 41.472 
" style="fill: none; stroke: #000000; stroke-width: 0.8; stroke-linejoin: miter; stroke-linecap: square"/>
   </g>
   <g id="patch_4">
    <path d="M 414.72 307.584 
L 414.72 41.472 
" style="fill: none; stroke: #000000; stroke-width: 0.8; stroke-linejoin: miter; stroke-linecap: square"/>
   </g>
   <g id="patch_5">
    <path d="M 57.6 307.584 
L 414.72 307.584 
" style="fill: none; stroke: #000000; stroke-width: 0.8; stroke-linejoin: miter; stroke-linecap: square"/>
   </g>
   <g id="patch_6">
    <path d="M 57.6 41.472 
L 414.72 41.472 
" style="fill: none; stroke: #000000; stroke-width: 0.8; stroke-linejoin: miter; stroke-linecap: square"/>
   </g>
   <g id="text_15">
    <!-- 1final_weighted_cci -->
    <g transform="translate(177.421875 35.472) scale(0.12 -0.12)">
     <defs>
      <path id="DejaVuSans-66" d="M 2375 4863 
L 2375 4384 
L 1825 4384 
Q 1516 4384 1395 4259 
Q 1275 4134 1275 3809 
L 1275 3500 
L 2222 3500 
L 2222 3053 
L 1275 3053 
L 1275 0 
L 697 0 
L 697 3053 
L 147 3053 
L 147 3500 
L 697 3500 
L 697 3744 
Q 697 4328 969 4595 
Q 1241 4863 1831 4863 
L 2375 4863 
z
" transform="scale(0.015625)"/>
      <path id="DejaVuSans-69" d="M 603 3500 
L 1178 3500 
L 1178 0 
L 603 0 
L 603 3500 
z
M 603 4863 
L 1178 4863 
L 1178 4134 
L 603 4134 
L 603 4863 
z
" transform="scale(0.015625)"/>
      <path id="DejaVuSans-6e" d="M 3513 2113 
L 3513 0 
L 2938 0 
L 2938 2094 
Q 2938 2591 2744 2837 
Q 2550 3084 2163 3084 
Q 1697 3084 1428 2787 
Q 1159 2491 1159 1978 
L 1159 0 
L 581 0 
L 581 3500 
L 1159 3500 
L 1159 2956 
Q 1366 3272 1645 3428 
Q 1925 3584 2291 3584 
Q 2894 3584 3203 3211 
Q 3513 2838 3513 2113 
z
" transform="scale(0.015625)"/>
      <path id="DejaVuSans-61" d="M 2194 1759 
Q 1497 1759 1228 1600 
Q 959 1441 959 1056 
Q 959 750 1161 570 
Q 1363 391 1709 391 
Q 2188 391 2477 730 
Q 2766 1069 2766 1631 
L 2766 1759 
L 2194 1759 
z
M 3341 1997 
L 3341 0 
L 2766 0 
L 2766 531 
Q 2569 213 2275 61 
Q 1981 -91 1556 -91 
Q 1019 -91 701 211 
Q 384 513 384 1019 
Q 384 1609 779 1909 
Q 1175 2209 1959 2209 
L 2766 2209 
L 2766 2266 
Q 2766 2663 2505 2880 
Q 2244 3097 1772 3097 
Q 1472 3097 1187 3025 
Q 903 2953 641 2809 
L 641 3341 
Q 956 3463 1253 3523 
Q 1550 3584 1831 3584 
Q 2591 3584 2966 3190 
Q 3341 2797 3341 1997 
z
" transform="scale(0.015625)"/>
      <path id="DejaVuSans-6c" d="M 603 4863 
L 1178 4863 
L 1178 0 
L 603 0 
L 603 4863 
z
" transform="scale(0.015625)"/>
      <path id="DejaVuSans-5f" d="M 3263 -1063 
L 3263 -1509 
L -63 -1509 
L -63 -1063 
L 3263 -1063 
z
" transform="scale(0.015625)"/>
      <path id="DejaVuSans-77" d="M 269 3500 
L 844 3500 
L 1563 769 
L 2278 3500 
L 2956 3500 
L 3675 769 
L 4391 3500 
L 4966 3500 
L 4050 0 
L 3372 0 
L 2619 2869 
L 1863 0 
L 1184 0 
L 269 3500 
z
" transform="scale(0.015625)"/>
      <path id="DejaVuSans-65" d="M 3597 1894 
L 3597 1613 
L 953 1613 
Q 991 1019 1311 708 
Q 1631 397 2203 397 
Q 2534 397 2845 478 
Q 3156 559 3463 722 
L 3463 178 
Q 3153 47 2828 -22 
Q 2503 -91 2169 -91 
Q 1331 -91 842 396 
Q 353 884 353 1716 
Q 353 2575 817 3079 
Q 1281 3584 2069 3584 
Q 2775 3584 3186 3129 
Q 3597 2675 3597 1894 
z
M 3022 2063 
Q 3016 2534 2758 2815 
Q 2500 3097 2075 3097 
Q 1594 3097 1305 2825 
Q 1016 2553 972 2059 
L 3022 2063 
z
" transform="scale(0.015625)"/>
      <path id="DejaVuSans-67" d="M 2906 1791 
Q 2906 2416 2648 2759 
Q 2391 3103 1925 3103 
Q 1463 3103 1205 2759 
Q 947 2416 947 1791 
Q 947 1169 1205 825 
Q 1463 481 1925 481 
Q 2391 481 2648 825 
Q 2906 1169 2906 1791 
z
M 3481 434 
Q 3481 -459 3084 -895 
Q 2688 -1331 1869 -1331 
Q 1566 -1331 1297 -1286 
Q 1028 -1241 775 -1147 
L 775 -588 
Q 1028 -725 1275 -790 
Q 1522 -856 1778 -856 
Q 2344 -856 2625 -561 
Q 2906 -266 2906 331 
L 2906 616 
Q 2728 306 2450 153 
Q 2172 0 1784 0 
Q 1141 0 747 490 
Q 353 981 353 1791 
Q 353 2603 747 3093 
Q 1141 3584 1784 3584 
Q 2172 3584 2450 3431 
Q 2728 3278 2906 2969 
L 2906 3500 
L 3481 3500 
L 3481 434 
z
" transform="scale(0.015625)"/>
      <path id="DejaVuSans-68" d="M 3513 2113 
L 3513 0 
L 2938 0 
L 2938 2094 
Q 2938 2591 2744 2837 
Q 2550 3084 2163 3084 
Q 1697 3084 1428 2787 
Q 1159 2491 1159 1978 
L 1159 0 
L 581 0 
L 581 4863 
L 1159 4863 
L 1159 2956 
Q 1366 3272 1645 3428 
Q 1925 3584 2291 3584 
Q 2894 3584 3203 3211 
Q 3513 2838 3513 2113 
z
" transform="scale(0.015625)"/>
      <path id="DejaVuSans-74" d="M 1172 4494 
L 1172 3500 
L 2356 3500 
L 2356 3053 
L 1172 3053 
L 1172 1153 
Q 1172 725 1289 603 
Q 1406 481 1766 481 
L 2356 481 
L 2356 0 
L 1766 0 
Q 1100 0 847 248 
Q 594 497 594 1153 
L 594 3053 
L 172 3053 
L 172 3500 
L 594 3500 
L 594 4494 
L 1172 4494 
z
" transform="scale(0.015625)"/>
      <path id="DejaVuSans-64" d="M 2906 2969 
L 2906 4863 
L 3481 4863 
L 3481 0 
L 2906 0 
L 2906 525 
Q 2725 213 2448 61 
Q 2172 -91 1784 -91 
Q 1150 -91 751 415 
Q 353 922 353 1747 
Q 353 2572 751 3078 
Q 1150 3584 1784 3584 
Q 2172 3584 2448 3432 
Q 2725 3281 2906 2969 
z
M 947 1747 
Q 947 1113 1208 752 
Q 1469 391 1925 391 
Q 2381 391 2643 752 
Q 2906 1113 2906 1747 
Q 2906 2381 2643 2742 
Q 2381 3103 1925 3103 
Q 1469 3103 1208 2742 
Q 947 2381 947 1747 
z
" transform="scale(0.015625)"/>
      <path id="DejaVuSans-63" d="M 3122 3366 
L 3122 2828 
Q 2878 2963 2633 3030 
Q 2388 3097 2138 3097 
Q 1578 3097 1268 2742 
Q 959 2388 959 1747 
Q 959 1106 1268 751 
Q 1578 397 2138 397 
Q 2388 397 2633 464 
Q 2878 531 3122 666 
L 3122 134 
Q 2881 22 2623 -34 
Q 2366 -91 2075 -91 
Q 1284 -91 818 406 
Q 353 903 353 1747 
Q 353 2603 823 3093 
Q 1294 3584 2113 3584 
Q 2378 3584 2631 3529 
Q 2884 3475 3122 3366 
z
" transform="scale(0.015625)"/>
     </defs>
     <use xlink:href="#DejaVuSans-31"/>
     <use xlink:href="#DejaVuSans-66" x="63.623047"/>
     <use xlink:href="#DejaVuSans-69" x="98.828125"/>
     <use xlink:href="#DejaVuSans-6e" x="126.611328"/>
     <use xlink:href="#DejaVuSans-61" x="189.990234"/>
     <use xlink:href="#DejaVuSans-6c" x="251.269531"/>
     <use xlink:href="#DejaVuSans-5f" x="279.052734"/>
     <use xlink:href="#DejaVuSans-77" x="329.052734"/>
     <use xlink:href="#DejaVuSans-65" x="410.839844"/>
     <use xlink:href="#DejaVuSans-69" x="472.363281"/>
     <use xlink:href="#DejaVuSans-67" x="500.146484"/>
     <use xlink:href="#DejaVuSans-68" x="563.623047"/>
     <use xlink:href="#DejaVuSans-74" x="627.001953"/>
     <use xlink:href="#DejaVuSans-65" x="666.210938"/>
     <use xlink:href="#DejaVuSans-64" x="727.734375"/>
     <use xlink:href="#DejaVuSans-5f" x="791.210938"/>
     <use xlink:href="#DejaVuSans-63" x="841.210938"/>
     <use xlink:href="#DejaVuSans-63" x="896.191406"/>
     <use xlink:href="#DejaVuSans-69" x="951.171875"/>
    </g>
   </g>
   <g id="legend_1">
    <g id="patch_7">
     <path d="M 64.6 108.1845 
L 200.035938 108.1845 
Q 202.035938 108.1845 202.035938 106.1845 
L 202.035938 48.472 
Q 202.035938 46.472 200.035938 46.472 
L 64.6 46.472 
Q 62.6 46.472 62.6 48.472 
L 62.6 106.1845 
Q 62.6 108.1845 64.6 108.1845 
z
" style="fill: #ffffff; opacity: 0.8; stroke: #cccccc; stroke-linejoin: miter"/>
    </g>
    <g id="line2d_19">
     <path d="M 66.6 54.570438 
L 76.6 54.570438 
L 86.6 54.570438 
" style="fill: none; stroke: #1f77b4; stroke-opacity: 0.7; stroke-width: 0.5; stroke-linecap: square"/>
    </g>
    <g id="text_16">
     <!-- Positive predictions -->
     <g transform="translate(94.6 58.070438) scale(0.1 -0.1)">
      <defs>
       <path id="DejaVuSans-50" d="M 1259 4147 
L 1259 2394 
L 2053 2394 
Q 2494 2394 2734 2622 
Q 2975 2850 2975 3272 
Q 2975 3691 2734 3919 
Q 2494 4147 2053 4147 
L 1259 4147 
z
M 628 4666 
L 2053 4666 
Q 2838 4666 3239 4311 
Q 3641 3956 3641 3272 
Q 3641 2581 3239 2228 
Q 2838 1875 2053 1875 
L 1259 1875 
L 1259 0 
L 628 0 
L 628 4666 
z
" transform="scale(0.015625)"/>
       <path id="DejaVuSans-6f" d="M 1959 3097 
Q 1497 3097 1228 2736 
Q 959 2375 959 1747 
Q 959 1119 1226 758 
Q 1494 397 1959 397 
Q 2419 397 2687 759 
Q 2956 1122 2956 1747 
Q 2956 2369 2687 2733 
Q 2419 3097 1959 3097 
z
M 1959 3584 
Q 2709 3584 3137 3096 
Q 3566 2609 3566 1747 
Q 3566 888 3137 398 
Q 2709 -91 1959 -91 
Q 1206 -91 779 398 
Q 353 888 353 1747 
Q 353 2609 779 3096 
Q 1206 3584 1959 3584 
z
" transform="scale(0.015625)"/>
       <path id="DejaVuSans-73" d="M 2834 3397 
L 2834 2853 
Q 2591 2978 2328 3040 
Q 2066 3103 1784 3103 
Q 1356 3103 1142 2972 
Q 928 2841 928 2578 
Q 928 2378 1081 2264 
Q 1234 2150 1697 2047 
L 1894 2003 
Q 2506 1872 2764 1633 
Q 3022 1394 3022 966 
Q 3022 478 2636 193 
Q 2250 -91 1575 -91 
Q 1294 -91 989 -36 
Q 684 19 347 128 
L 347 722 
Q 666 556 975 473 
Q 1284 391 1588 391 
Q 1994 391 2212 530 
Q 2431 669 2431 922 
Q 2431 1156 2273 1281 
Q 2116 1406 1581 1522 
L 1381 1569 
Q 847 1681 609 1914 
Q 372 2147 372 2553 
Q 372 3047 722 3315 
Q 1072 3584 1716 3584 
Q 2034 3584 2315 3537 
Q 2597 3491 2834 3397 
z
" transform="scale(0.015625)"/>
       <path id="DejaVuSans-76" d="M 191 3500 
L 800 3500 
L 1894 563 
L 2988 3500 
L 3597 3500 
L 2284 0 
L 1503 0 
L 191 3500 
z
" transform="scale(0.015625)"/>
       <path id="DejaVuSans-20" transform="scale(0.015625)"/>
       <path id="DejaVuSans-70" d="M 1159 525 
L 1159 -1331 
L 581 -1331 
L 581 3500 
L 1159 3500 
L 1159 2969 
Q 1341 3281 1617 3432 
Q 1894 3584 2278 3584 
Q 2916 3584 3314 3078 
Q 3713 2572 3713 1747 
Q 3713 922 3314 415 
Q 2916 -91 2278 -91 
Q 1894 -91 1617 61 
Q 1341 213 1159 525 
z
M 3116 1747 
Q 3116 2381 2855 2742 
Q 2594 3103 2138 3103 
Q 1681 3103 1420 2742 
Q 1159 2381 1159 1747 
Q 1159 1113 1420 752 
Q 1681 391 2138 391 
Q 2594 391 2855 752 
Q 3116 1113 3116 1747 
z
" transform="scale(0.015625)"/>
       <path id="DejaVuSans-72" d="M 2631 2963 
Q 2534 3019 2420 3045 
Q 2306 3072 2169 3072 
Q 1681 3072 1420 2755 
Q 1159 2438 1159 1844 
L 1159 0 
L 581 0 
L 581 3500 
L 1159 3500 
L 1159 2956 
Q 1341 3275 1631 3429 
Q 1922 3584 2338 3584 
Q 2397 3584 2469 3576 
Q 2541 3569 2628 3553 
L 2631 2963 
z
" transform="scale(0.015625)"/>
      </defs>
      <use xlink:href="#DejaVuSans-50"/>
      <use xlink:href="#DejaVuSans-6f" x="56.677734"/>
      <use xlink:href="#DejaVuSans-73" x="117.859375"/>
      <use xlink:href="#DejaVuSans-69" x="169.958984"/>
      <use xlink:href="#DejaVuSans-74" x="197.742188"/>
      <use xlink:href="#DejaVuSans-69" x="236.951172"/>
      <use xlink:href="#DejaVuSans-76" x="264.734375"/>
      <use xlink:href="#DejaVuSans-65" x="323.914062"/>
      <use xlink:href="#DejaVuSans-20" x="385.4375"/>
      <use xlink:href="#DejaVuSans-70" x="417.224609"/>
      <use xlink:href="#DejaVuSans-72" x="480.701172"/>
      <use xlink:href="#DejaVuSans-65" x="519.564453"/>
      <use xlink:href="#DejaVuSans-64" x="581.087891"/>
      <use xlink:href="#DejaVuSans-69" x="644.564453"/>
      <use xlink:href="#DejaVuSans-63" x="672.347656"/>
      <use xlink:href="#DejaVuSans-74" x="727.328125"/>
      <use xlink:href="#DejaVuSans-69" x="766.537109"/>
      <use xlink:href="#DejaVuSans-6f" x="794.320312"/>
      <use xlink:href="#DejaVuSans-6e" x="855.501953"/>
      <use xlink:href="#DejaVuSans-73" x="918.880859"/>
     </g>
    </g>
    <g id="line2d_20">
     <path d="M 66.6 69.248563 
L 76.6 69.248563 
L 86.6 69.248563 
" style="fill: none; stroke: #ff7f0e; stroke-opacity: 0.7; stroke-width: 0.5; stroke-linecap: square"/>
    </g>
    <g id="text_17">
     <!-- Negative predictions -->
     <g transform="translate(94.6 72.748563) scale(0.1 -0.1)">
      <defs>
       <path id="DejaVuSans-4e" d="M 628 4666 
L 1478 4666 
L 3547 763 
L 3547 4666 
L 4159 4666 
L 4159 0 
L 3309 0 
L 1241 3903 
L 1241 0 
L 628 0 
L 628 4666 
z
" transform="scale(0.015625)"/>
      </defs>
      <use xlink:href="#DejaVuSans-4e"/>
      <use xlink:href="#DejaVuSans-65" x="74.804688"/>
      <use xlink:href="#DejaVuSans-67" x="136.328125"/>
      <use xlink:href="#DejaVuSans-61" x="199.804688"/>
      <use xlink:href="#DejaVuSans-74" x="261.083984"/>
      <use xlink:href="#DejaVuSans-69" x="300.292969"/>
      <use xlink:href="#DejaVuSans-76" x="328.076172"/>
      <use xlink:href="#DejaVuSans-65" x="387.255859"/>
      <use xlink:href="#DejaVuSans-20" x="448.779297"/>
      <use xlink:href="#DejaVuSans-70" x="480.566406"/>
      <use xlink:href="#DejaVuSans-72" x="544.042969"/>
      <use xlink:href="#DejaVuSans-65" x="582.90625"/>
      <use xlink:href="#DejaVuSans-64" x="644.429688"/>
      <use xlink:href="#DejaVuSans-69" x="707.90625"/>
      <use xlink:href="#DejaVuSans-63" x="735.689453"/>
      <use xlink:href="#DejaVuSans-74" x="790.669922"/>
      <use xlink:href="#DejaVuSans-69" x="829.878906"/>
      <use xlink:href="#DejaVuSans-6f" x="857.662109"/>
      <use xlink:href="#DejaVuSans-6e" x="918.84375"/>
      <use xlink:href="#DejaVuSans-73" x="982.222656"/>
     </g>
    </g>
    <g id="line2d_21">
     <path d="M 66.6 83.926688 
L 76.6 83.926688 
L 86.6 83.926688 
" style="fill: none; stroke: #2ca02c; stroke-opacity: 0.7; stroke-width: 0.5; stroke-linecap: square"/>
    </g>
    <g id="text_18">
     <!-- Average predictions -->
     <g transform="translate(94.6 87.426688) scale(0.1 -0.1)">
      <defs>
       <path id="DejaVuSans-41" d="M 2188 4044 
L 1331 1722 
L 3047 1722 
L 2188 4044 
z
M 1831 4666 
L 2547 4666 
L 4325 0 
L 3669 0 
L 3244 1197 
L 1141 1197 
L 716 0 
L 50 0 
L 1831 4666 
z
" transform="scale(0.015625)"/>
      </defs>
      <use xlink:href="#DejaVuSans-41"/>
      <use xlink:href="#DejaVuSans-76" x="62.533203"/>
      <use xlink:href="#DejaVuSans-65" x="121.712891"/>
      <use xlink:href="#DejaVuSans-72" x="183.236328"/>
      <use xlink:href="#DejaVuSans-61" x="224.349609"/>
      <use xlink:href="#DejaVuSans-67" x="285.628906"/>
      <use xlink:href="#DejaVuSans-65" x="349.105469"/>
      <use xlink:href="#DejaVuSans-20" x="410.628906"/>
      <use xlink:href="#DejaVuSans-70" x="442.416016"/>
      <use xlink:href="#DejaVuSans-72" x="505.892578"/>
      <use xlink:href="#DejaVuSans-65" x="544.755859"/>
      <use xlink:href="#DejaVuSans-64" x="606.279297"/>
      <use xlink:href="#DejaVuSans-69" x="669.755859"/>
      <use xlink:href="#DejaVuSans-63" x="697.539062"/>
      <use xlink:href="#DejaVuSans-74" x="752.519531"/>
      <use xlink:href="#DejaVuSans-69" x="791.728516"/>
      <use xlink:href="#DejaVuSans-6f" x="819.511719"/>
      <use xlink:href="#DejaVuSans-6e" x="880.693359"/>
      <use xlink:href="#DejaVuSans-73" x="944.072266"/>
     </g>
    </g>
    <g id="line2d_22">
     <path d="M 66.6 98.604813 
L 76.6 98.604813 
L 86.6 98.604813 
" style="fill: none; stroke: #d62728; stroke-opacity: 0.7; stroke-width: 0.5; stroke-linecap: square"/>
    </g>
    <g id="text_19">
     <!-- Actual values -->
     <g transform="translate(94.6 102.104813) scale(0.1 -0.1)">
      <defs>
       <path id="DejaVuSans-75" d="M 544 1381 
L 544 3500 
L 1119 3500 
L 1119 1403 
Q 1119 906 1312 657 
Q 1506 409 1894 409 
Q 2359 409 2629 706 
Q 2900 1003 2900 1516 
L 2900 3500 
L 3475 3500 
L 3475 0 
L 2900 0 
L 2900 538 
Q 2691 219 2414 64 
Q 2138 -91 1772 -91 
Q 1169 -91 856 284 
Q 544 659 544 1381 
z
M 1991 3584 
L 1991 3584 
z
" transform="scale(0.015625)"/>
      </defs>
      <use xlink:href="#DejaVuSans-41"/>
      <use xlink:href="#DejaVuSans-63" x="66.658203"/>
      <use xlink:href="#DejaVuSans-74" x="121.638672"/>
      <use xlink:href="#DejaVuSans-75" x="160.847656"/>
      <use xlink:href="#DejaVuSans-61" x="224.226562"/>
      <use xlink:href="#DejaVuSans-6c" x="285.505859"/>
      <use xlink:href="#DejaVuSans-20" x="313.289062"/>
      <use xlink:href="#DejaVuSans-76" x="345.076172"/>
      <use xlink:href="#DejaVuSans-61" x="404.255859"/>
      <use xlink:href="#DejaVuSans-6c" x="465.535156"/>
      <use xlink:href="#DejaVuSans-75" x="493.318359"/>
      <use xlink:href="#DejaVuSans-65" x="556.697266"/>
      <use xlink:href="#DejaVuSans-73" x="618.220703"/>
     </g>
    </g>
   </g>
  </g>
 </g>
 <defs>
  <clipPath id="pb4ba15c173">
   <rect x="57.6" y="41.472" width="357.12" height="266.112"/>
  </clipPath>
 </defs>
</svg>
