<?xml version="1.0" encoding="utf-8" standalone="no"?>
<!DOCTYPE svg PUBLIC "-//W3C//DTD SVG 1.1//EN"
  "http://www.w3.org/Graphics/SVG/1.1/DTD/svg11.dtd">
<svg xmlns:xlink="http://www.w3.org/1999/xlink" width="460.8pt" height="345.6pt" viewBox="0 0 460.8 345.6" xmlns="http://www.w3.org/2000/svg" version="1.1">
 <metadata>
  <rdf:RDF xmlns:dc="http://purl.org/dc/elements/1.1/" xmlns:cc="http://creativecommons.org/ns#" xmlns:rdf="http://www.w3.org/1999/02/22-rdf-syntax-ns#">
   <cc:Work>
    <dc:type rdf:resource="http://purl.org/dc/dcmitype/StillImage"/>
    <dc:date>2024-09-06T11:36:39.500121</dc:date>
    <dc:format>image/svg+xml</dc:format>
    <dc:creator>
     <cc:Agent>
      <dc:title>Matplotlib v3.9.0, https://matplotlib.org/</dc:title>
     </cc:Agent>
    </dc:creator>
   </cc:Work>
  </rdf:RDF>
 </metadata>
 <defs>
  <style type="text/css">*{stroke-linejoin: round; stroke-linecap: butt}</style>
 </defs>
 <g id="figure_1">
  <g id="patch_1">
   <path d="M 0 345.6 
L 460.8 345.6 
L 460.8 0 
L 0 0 
z
" style="fill: #ffffff"/>
  </g>
  <g id="axes_1">
   <g id="patch_2">
    <path d="M 57.6 307.584 
L 414.72 307.584 
L 414.72 41.472 
L 57.6 41.472 
z
" style="fill: #ffffff"/>
   </g>
   <g id="matplotlib.axis_1">
    <g id="xtick_1">
     <g id="line2d_1">
      <defs>
       <path id="m7809d21189" d="M 0 0 
L 0 3.5 
" style="stroke: #000000; stroke-width: 0.8"/>
      </defs>
      <g>
       <use xlink:href="#m7809d21189" x="73.832727" y="307.584" style="stroke: #000000; stroke-width: 0.8"/>
      </g>
     </g>
     <g id="text_1">
      <!-- 0 -->
      <g transform="translate(70.651477 322.182437) scale(0.1 -0.1)">
       <defs>
        <path id="DejaVuSans-30" d="M 2034 4250 
Q 1547 4250 1301 3770 
Q 1056 3291 1056 2328 
Q 1056 1369 1301 889 
Q 1547 409 2034 409 
Q 2525 409 2770 889 
Q 3016 1369 3016 2328 
Q 3016 3291 2770 3770 
Q 2525 4250 2034 4250 
z
M 2034 4750 
Q 2819 4750 3233 4129 
Q 3647 3509 3647 2328 
Q 3647 1150 3233 529 
Q 2819 -91 2034 -91 
Q 1250 -91 836 529 
Q 422 1150 422 2328 
Q 422 3509 836 4129 
Q 1250 4750 2034 4750 
z
" transform="scale(0.015625)"/>
       </defs>
       <use xlink:href="#DejaVuSans-30"/>
      </g>
     </g>
    </g>
    <g id="xtick_2">
     <g id="line2d_2">
      <g>
       <use xlink:href="#m7809d21189" x="149.019051" y="307.584" style="stroke: #000000; stroke-width: 0.8"/>
      </g>
     </g>
     <g id="text_2">
      <!-- 500 -->
      <g transform="translate(139.475301 322.182437) scale(0.1 -0.1)">
       <defs>
        <path id="DejaVuSans-35" d="M 691 4666 
L 3169 4666 
L 3169 4134 
L 1269 4134 
L 1269 2991 
Q 1406 3038 1543 3061 
Q 1681 3084 1819 3084 
Q 2600 3084 3056 2656 
Q 3513 2228 3513 1497 
Q 3513 744 3044 326 
Q 2575 -91 1722 -91 
Q 1428 -91 1123 -41 
Q 819 9 494 109 
L 494 744 
Q 775 591 1075 516 
Q 1375 441 1709 441 
Q 2250 441 2565 725 
Q 2881 1009 2881 1497 
Q 2881 1984 2565 2268 
Q 2250 2553 1709 2553 
Q 1456 2553 1204 2497 
Q 953 2441 691 2322 
L 691 4666 
z
" transform="scale(0.015625)"/>
       </defs>
       <use xlink:href="#DejaVuSans-35"/>
       <use xlink:href="#DejaVuSans-30" x="63.623047"/>
       <use xlink:href="#DejaVuSans-30" x="127.246094"/>
      </g>
     </g>
    </g>
    <g id="xtick_3">
     <g id="line2d_3">
      <g>
       <use xlink:href="#m7809d21189" x="224.205375" y="307.584" style="stroke: #000000; stroke-width: 0.8"/>
      </g>
     </g>
     <g id="text_3">
      <!-- 1000 -->
      <g transform="translate(211.480375 322.182437) scale(0.1 -0.1)">
       <defs>
        <path id="DejaVuSans-31" d="M 794 531 
L 1825 531 
L 1825 4091 
L 703 3866 
L 703 4441 
L 1819 4666 
L 2450 4666 
L 2450 531 
L 3481 531 
L 3481 0 
L 794 0 
L 794 531 
z
" transform="scale(0.015625)"/>
       </defs>
       <use xlink:href="#DejaVuSans-31"/>
       <use xlink:href="#DejaVuSans-30" x="63.623047"/>
       <use xlink:href="#DejaVuSans-30" x="127.246094"/>
       <use xlink:href="#DejaVuSans-30" x="190.869141"/>
      </g>
     </g>
    </g>
    <g id="xtick_4">
     <g id="line2d_4">
      <g>
       <use xlink:href="#m7809d21189" x="299.391698" y="307.584" style="stroke: #000000; stroke-width: 0.8"/>
      </g>
     </g>
     <g id="text_4">
      <!-- 1500 -->
      <g transform="translate(286.666698 322.182437) scale(0.1 -0.1)">
       <use xlink:href="#DejaVuSans-31"/>
       <use xlink:href="#DejaVuSans-35" x="63.623047"/>
       <use xlink:href="#DejaVuSans-30" x="127.246094"/>
       <use xlink:href="#DejaVuSans-30" x="190.869141"/>
      </g>
     </g>
    </g>
    <g id="xtick_5">
     <g id="line2d_5">
      <g>
       <use xlink:href="#m7809d21189" x="374.578022" y="307.584" style="stroke: #000000; stroke-width: 0.8"/>
      </g>
     </g>
     <g id="text_5">
      <!-- 2000 -->
      <g transform="translate(361.853022 322.182437) scale(0.1 -0.1)">
       <defs>
        <path id="DejaVuSans-32" d="M 1228 531 
L 3431 531 
L 3431 0 
L 469 0 
L 469 531 
Q 828 903 1448 1529 
Q 2069 2156 2228 2338 
Q 2531 2678 2651 2914 
Q 2772 3150 2772 3378 
Q 2772 3750 2511 3984 
Q 2250 4219 1831 4219 
Q 1534 4219 1204 4116 
Q 875 4013 500 3803 
L 500 4441 
Q 881 4594 1212 4672 
Q 1544 4750 1819 4750 
Q 2544 4750 2975 4387 
Q 3406 4025 3406 3419 
Q 3406 3131 3298 2873 
Q 3191 2616 2906 2266 
Q 2828 2175 2409 1742 
Q 1991 1309 1228 531 
z
" transform="scale(0.015625)"/>
       </defs>
       <use xlink:href="#DejaVuSans-32"/>
       <use xlink:href="#DejaVuSans-30" x="63.623047"/>
       <use xlink:href="#DejaVuSans-30" x="127.246094"/>
       <use xlink:href="#DejaVuSans-30" x="190.869141"/>
      </g>
     </g>
    </g>
   </g>
   <g id="matplotlib.axis_2">
    <g id="ytick_1">
     <g id="line2d_6">
      <defs>
       <path id="m8c4b84f31c" d="M 0 0 
L -3.5 0 
" style="stroke: #000000; stroke-width: 0.8"/>
      </defs>
      <g>
       <use xlink:href="#m8c4b84f31c" x="57.6" y="295.53885" style="stroke: #000000; stroke-width: 0.8"/>
      </g>
     </g>
     <g id="text_6">
      <!-- −1.00 -->
      <g transform="translate(19.954687 299.338069) scale(0.1 -0.1)">
       <defs>
        <path id="DejaVuSans-2212" d="M 678 2272 
L 4684 2272 
L 4684 1741 
L 678 1741 
L 678 2272 
z
" transform="scale(0.015625)"/>
        <path id="DejaVuSans-2e" d="M 684 794 
L 1344 794 
L 1344 0 
L 684 0 
L 684 794 
z
" transform="scale(0.015625)"/>
       </defs>
       <use xlink:href="#DejaVuSans-2212"/>
       <use xlink:href="#DejaVuSans-31" x="83.789062"/>
       <use xlink:href="#DejaVuSans-2e" x="147.412109"/>
       <use xlink:href="#DejaVuSans-30" x="179.199219"/>
       <use xlink:href="#DejaVuSans-30" x="242.822266"/>
      </g>
     </g>
    </g>
    <g id="ytick_2">
     <g id="line2d_7">
      <g>
       <use xlink:href="#m8c4b84f31c" x="57.6" y="261.665673" style="stroke: #000000; stroke-width: 0.8"/>
      </g>
     </g>
     <g id="text_7">
      <!-- −0.75 -->
      <g transform="translate(19.954687 265.464892) scale(0.1 -0.1)">
       <defs>
        <path id="DejaVuSans-37" d="M 525 4666 
L 3525 4666 
L 3525 4397 
L 1831 0 
L 1172 0 
L 2766 4134 
L 525 4134 
L 525 4666 
z
" transform="scale(0.015625)"/>
       </defs>
       <use xlink:href="#DejaVuSans-2212"/>
       <use xlink:href="#DejaVuSans-30" x="83.789062"/>
       <use xlink:href="#DejaVuSans-2e" x="147.412109"/>
       <use xlink:href="#DejaVuSans-37" x="179.199219"/>
       <use xlink:href="#DejaVuSans-35" x="242.822266"/>
      </g>
     </g>
    </g>
    <g id="ytick_3">
     <g id="line2d_8">
      <g>
       <use xlink:href="#m8c4b84f31c" x="57.6" y="227.792496" style="stroke: #000000; stroke-width: 0.8"/>
      </g>
     </g>
     <g id="text_8">
      <!-- −0.50 -->
      <g transform="translate(19.954687 231.591715) scale(0.1 -0.1)">
       <use xlink:href="#DejaVuSans-2212"/>
       <use xlink:href="#DejaVuSans-30" x="83.789062"/>
       <use xlink:href="#DejaVuSans-2e" x="147.412109"/>
       <use xlink:href="#DejaVuSans-35" x="179.199219"/>
       <use xlink:href="#DejaVuSans-30" x="242.822266"/>
      </g>
     </g>
    </g>
    <g id="ytick_4">
     <g id="line2d_9">
      <g>
       <use xlink:href="#m8c4b84f31c" x="57.6" y="193.919319" style="stroke: #000000; stroke-width: 0.8"/>
      </g>
     </g>
     <g id="text_9">
      <!-- −0.25 -->
      <g transform="translate(19.954687 197.718538) scale(0.1 -0.1)">
       <use xlink:href="#DejaVuSans-2212"/>
       <use xlink:href="#DejaVuSans-30" x="83.789062"/>
       <use xlink:href="#DejaVuSans-2e" x="147.412109"/>
       <use xlink:href="#DejaVuSans-32" x="179.199219"/>
       <use xlink:href="#DejaVuSans-35" x="242.822266"/>
      </g>
     </g>
    </g>
    <g id="ytick_5">
     <g id="line2d_10">
      <g>
       <use xlink:href="#m8c4b84f31c" x="57.6" y="160.046142" style="stroke: #000000; stroke-width: 0.8"/>
      </g>
     </g>
     <g id="text_10">
      <!-- 0.00 -->
      <g transform="translate(28.334375 163.845361) scale(0.1 -0.1)">
       <use xlink:href="#DejaVuSans-30"/>
       <use xlink:href="#DejaVuSans-2e" x="63.623047"/>
       <use xlink:href="#DejaVuSans-30" x="95.410156"/>
       <use xlink:href="#DejaVuSans-30" x="159.033203"/>
      </g>
     </g>
    </g>
    <g id="ytick_6">
     <g id="line2d_11">
      <g>
       <use xlink:href="#m8c4b84f31c" x="57.6" y="126.172965" style="stroke: #000000; stroke-width: 0.8"/>
      </g>
     </g>
     <g id="text_11">
      <!-- 0.25 -->
      <g transform="translate(28.334375 129.972184) scale(0.1 -0.1)">
       <use xlink:href="#DejaVuSans-30"/>
       <use xlink:href="#DejaVuSans-2e" x="63.623047"/>
       <use xlink:href="#DejaVuSans-32" x="95.410156"/>
       <use xlink:href="#DejaVuSans-35" x="159.033203"/>
      </g>
     </g>
    </g>
    <g id="ytick_7">
     <g id="line2d_12">
      <g>
       <use xlink:href="#m8c4b84f31c" x="57.6" y="92.299789" style="stroke: #000000; stroke-width: 0.8"/>
      </g>
     </g>
     <g id="text_12">
      <!-- 0.50 -->
      <g transform="translate(28.334375 96.099007) scale(0.1 -0.1)">
       <use xlink:href="#DejaVuSans-30"/>
       <use xlink:href="#DejaVuSans-2e" x="63.623047"/>
       <use xlink:href="#DejaVuSans-35" x="95.410156"/>
       <use xlink:href="#DejaVuSans-30" x="159.033203"/>
      </g>
     </g>
    </g>
    <g id="ytick_8">
     <g id="line2d_13">
      <g>
       <use xlink:href="#m8c4b84f31c" x="57.6" y="58.426612" style="stroke: #000000; stroke-width: 0.8"/>
      </g>
     </g>
     <g id="text_13">
      <!-- 0.75 -->
      <g transform="translate(28.334375 62.22583) scale(0.1 -0.1)">
       <use xlink:href="#DejaVuSans-30"/>
       <use xlink:href="#DejaVuSans-2e" x="63.623047"/>
       <use xlink:href="#DejaVuSans-37" x="95.410156"/>
       <use xlink:href="#DejaVuSans-35" x="159.033203"/>
      </g>
     </g>
    </g>
    <g id="text_14">
     <!-- 1e6 -->
     <g transform="translate(57.6 38.472) scale(0.1 -0.1)">
      <defs>
       <path id="DejaVuSans-65" d="M 3597 1894 
L 3597 1613 
L 953 1613 
Q 991 1019 1311 708 
Q 1631 397 2203 397 
Q 2534 397 2845 478 
Q 3156 559 3463 722 
L 3463 178 
Q 3153 47 2828 -22 
Q 2503 -91 2169 -91 
Q 1331 -91 842 396 
Q 353 884 353 1716 
Q 353 2575 817 3079 
Q 1281 3584 2069 3584 
Q 2775 3584 3186 3129 
Q 3597 2675 3597 1894 
z
M 3022 2063 
Q 3016 2534 2758 2815 
Q 2500 3097 2075 3097 
Q 1594 3097 1305 2825 
Q 1016 2553 972 2059 
L 3022 2063 
z
" transform="scale(0.015625)"/>
       <path id="DejaVuSans-36" d="M 2113 2584 
Q 1688 2584 1439 2293 
Q 1191 2003 1191 1497 
Q 1191 994 1439 701 
Q 1688 409 2113 409 
Q 2538 409 2786 701 
Q 3034 994 3034 1497 
Q 3034 2003 2786 2293 
Q 2538 2584 2113 2584 
z
M 3366 4563 
L 3366 3988 
Q 3128 4100 2886 4159 
Q 2644 4219 2406 4219 
Q 1781 4219 1451 3797 
Q 1122 3375 1075 2522 
Q 1259 2794 1537 2939 
Q 1816 3084 2150 3084 
Q 2853 3084 3261 2657 
Q 3669 2231 3669 1497 
Q 3669 778 3244 343 
Q 2819 -91 2113 -91 
Q 1303 -91 875 529 
Q 447 1150 447 2328 
Q 447 3434 972 4092 
Q 1497 4750 2381 4750 
Q 2619 4750 2861 4703 
Q 3103 4656 3366 4563 
z
" transform="scale(0.015625)"/>
      </defs>
      <use xlink:href="#DejaVuSans-31"/>
      <use xlink:href="#DejaVuSans-65" x="63.623047"/>
      <use xlink:href="#DejaVuSans-36" x="125.146484"/>
     </g>
    </g>
   </g>
   <g id="line2d_14">
    <path d="M 73.832727 160.118003 
L 74.133473 160.135939 
L 74.283845 160.293825 
L 74.584591 160.069166 
L 74.885336 160.250763 
L 75.336454 160.587444 
L 75.486826 160.592331 
L 75.937944 160.979678 
L 76.84018 161.709657 
L 77.441671 161.82235 
L 77.742416 162.05387 
L 78.193534 162.329494 
L 78.795025 162.497566 
L 79.246143 162.439917 
L 79.998006 162.856497 
L 80.148378 162.769589 
L 81.501732 163.258827 
L 83.005459 163.484637 
L 83.306204 163.512771 
L 84.659558 163.873391 
L 86.012912 164.410724 
L 86.614402 164.662418 
L 86.915148 164.772417 
L 89.32111 165.50532 
L 90.072973 165.483325 
L 90.373718 165.529941 
L 90.975209 165.472319 
L 91.727072 165.582276 
L 92.629308 165.730983 
L 93.230799 165.778643 
L 93.531544 165.726851 
L 94.133035 165.803177 
L 94.884898 165.989745 
L 96.087879 166.093594 
L 96.538997 166.238164 
L 97.741978 166.539331 
L 98.193096 166.602748 
L 101.501294 167.437474 
L 101.80204 167.426969 
L 103.155393 167.572956 
L 104.208002 167.785443 
L 105.110238 167.957632 
L 105.561356 168.015632 
L 106.162846 168.123711 
L 106.463592 168.121761 
L 107.215455 168.236253 
L 109.320672 168.567138 
L 109.922163 168.68556 
L 112.177752 169.32782 
L 113.230361 169.673706 
L 113.681479 169.775183 
L 114.583715 170.166963 
L 115.937069 170.820625 
L 116.839304 171.149806 
L 117.14005 171.153353 
L 117.74154 171.139374 
L 118.192658 171.157281 
L 121.350484 171.602052 
L 122.102347 171.747725 
L 127.36539 172.540296 
L 130.372843 172.975374 
L 131.275079 173.185082 
L 131.876569 173.377622 
L 133.530668 173.645156 
L 135.184767 174.041745 
L 135.786258 174.301704 
L 137.891475 175.176393 
L 138.492966 175.442361 
L 139.395201 175.65456 
L 140.147065 175.770841 
L 140.598183 175.935932 
L 141.650791 176.322819 
L 142.7034 176.519649 
L 143.30489 176.595677 
L 143.906381 176.836221 
L 144.207126 177.029401 
L 144.507871 177.056429 
L 144.808617 177.008683 
L 144.958989 177.140572 
L 145.410107 177.107774 
L 146.161971 177.281137 
L 146.913834 177.247543 
L 147.214579 177.219802 
L 147.515324 177.195818 
L 148.567933 177.416628 
L 149.770914 177.778565 
L 150.222032 178.06511 
L 150.522777 178.220232 
L 150.67315 178.404996 
L 150.823523 178.172104 
L 150.973895 178.356489 
L 151.425013 178.351921 
L 151.725759 178.670315 
L 152.026504 178.66809 
L 152.778367 179.061082 
L 152.92874 178.983564 
L 153.229485 179.045671 
L 153.379858 178.950951 
L 153.53023 179.065471 
L 153.680603 178.922112 
L 154.131721 179.213624 
L 155.936193 179.585505 
L 157.740664 180.160126 
L 158.191782 180.140883 
L 158.943646 180.366251 
L 159.244391 180.248387 
L 159.545136 180.26676 
L 160.89849 180.383282 
L 161.349608 180.483478 
L 161.800726 180.490592 
L 163.304452 180.668723 
L 164.056316 180.686709 
L 164.357061 180.576662 
L 164.657806 180.639111 
L 167.364514 181.154157 
L 168.717868 181.229151 
L 169.018613 181.4657 
L 169.319358 181.48854 
L 170.071222 181.54443 
L 173.98091 181.678942 
L 174.281656 181.71314 
L 175.033519 181.797724 
L 175.635009 181.856197 
L 176.837991 181.879326 
L 177.138736 181.982289 
L 179.695071 182.23083 
L 180.146189 182.362532 
L 180.597307 182.405091 
L 181.649915 182.646062 
L 182.401779 182.647148 
L 183.60476 182.802176 
L 185.108486 182.969145 
L 185.709977 183.10078 
L 186.161095 183.073299 
L 186.311467 183.162424 
L 186.612213 183.149255 
L 187.213703 183.295161 
L 188.115939 183.307704 
L 188.416684 183.392042 
L 189.619666 183.421733 
L 189.770038 183.04222 
L 190.221156 183.401067 
L 190.371529 183.47014 
L 190.822647 183.988063 
L 191.424137 184.104006 
L 191.875255 184.283811 
L 192.326373 184.345377 
L 193.078237 184.65298 
L 198.040534 186.059915 
L 198.341279 186.234231 
L 198.94277 186.19704 
L 199.393888 186.374171 
L 199.995378 186.542604 
L 200.897614 186.477606 
L 201.19836 186.568758 
L 201.649477 186.702868 
L 201.79985 186.675385 
L 201.950223 186.780375 
L 202.250968 186.749392 
L 205.258421 187.287195 
L 205.859912 187.242536 
L 208.716992 187.46311 
L 210.220718 187.632133 
L 210.521464 187.788907 
L 210.972582 187.877145 
L 211.122954 187.964266 
L 211.4237 187.950815 
L 215.934879 188.610002 
L 216.085252 188.47725 
L 216.686742 188.662418 
L 217.13786 188.771118 
L 218.641587 189.164593 
L 218.942332 189.173173 
L 219.092705 189.147465 
L 219.39345 189.265359 
L 223.002393 189.796158 
L 225.408356 190.307388 
L 225.709101 190.569252 
L 225.859474 190.477029 
L 226.160219 190.561599 
L 226.460964 190.638119 
L 226.912082 190.808663 
L 227.212827 190.925486 
L 227.513573 191.022661 
L 227.814318 191.202255 
L 228.566181 191.346434 
L 228.716554 191.160241 
L 228.866927 191.192883 
L 229.318045 191.639928 
L 229.468417 191.507884 
L 229.769162 191.583654 
L 229.919535 191.508755 
L 230.22028 191.678441 
L 230.972144 191.655405 
L 231.423262 191.953471 
L 231.573634 192.016616 
L 231.87438 192.532663 
L 232.024752 192.533384 
L 232.175125 192.648452 
L 232.47587 192.504442 
L 232.626243 192.643947 
L 232.776615 192.580077 
L 233.077361 192.875605 
L 233.227733 193.120403 
L 233.378106 193.042504 
L 234.129969 193.46401 
L 234.430715 193.873362 
L 234.581087 193.792989 
L 235.182578 194.692944 
L 235.483323 194.271046 
L 235.784068 193.625722 
L 236.084814 194.53303 
L 236.385559 194.069914 
L 236.535932 194.014445 
L 236.686304 194.125044 
L 236.98705 194.038176 
L 237.137422 193.531818 
L 237.438168 194.332144 
L 237.889285 195.106078 
L 238.039658 194.919687 
L 238.340403 195.777391 
L 238.791521 196.150985 
L 239.092267 196.890855 
L 239.242639 196.954137 
L 239.693757 197.420458 
L 239.84413 198.4599 
L 239.994503 198.495042 
L 240.144875 198.354679 
L 240.295248 198.814058 
L 240.896738 198.973789 
L 241.047111 199.196123 
L 241.197484 199.648025 
L 241.347856 199.469523 
L 241.498229 200.079182 
L 241.648602 200.163892 
L 241.798974 200.397933 
L 241.949347 199.98526 
L 242.09972 199.198072 
L 242.250092 199.329073 
L 242.400465 199.096856 
L 242.550838 199.116303 
L 242.70121 199.378875 
L 242.851583 199.324688 
L 243.001955 200.244566 
L 243.152328 200.092345 
L 243.302701 200.427728 
L 243.453073 200.420561 
L 244.355309 202.309525 
L 244.505682 202.585492 
L 244.656055 202.532797 
L 244.806427 203.001692 
L 245.107173 202.479814 
L 245.55829 203.199344 
L 245.859036 203.596143 
L 246.009408 203.636765 
L 246.159781 203.371983 
L 246.310154 203.548101 
L 246.460526 203.390489 
L 246.610899 203.464992 
L 246.911644 204.280072 
L 247.062017 204.342298 
L 247.513135 204.907163 
L 247.81388 205.0876 
L 247.964253 204.939244 
L 248.264998 205.348389 
L 248.415371 205.313783 
L 248.565743 205.122681 
L 248.716116 205.583515 
L 248.866489 205.671067 
L 249.016861 206.04724 
L 249.317607 206.175377 
L 249.467979 206.677467 
L 250.06947 206.462811 
L 250.219843 205.92763 
L 250.370215 206.048903 
L 250.520588 206.374007 
L 250.821333 206.05155 
L 251.272451 206.375862 
L 251.422824 207.366598 
L 251.723569 207.747377 
L 251.873942 207.69763 
L 252.024314 208.388305 
L 252.32506 208.433104 
L 252.475432 208.707604 
L 252.625805 208.35247 
L 252.776178 209.128758 
L 252.92655 209.152709 
L 253.377668 209.920617 
L 253.528041 209.798555 
L 253.678413 210.112906 
L 253.828786 209.153627 
L 254.129531 209.760181 
L 254.279904 209.532152 
L 254.430277 209.824695 
L 254.580649 209.763003 
L 254.731022 210.027072 
L 254.881395 209.560472 
L 255.031767 210.523074 
L 255.18214 210.51226 
L 255.332513 211.006285 
L 255.482885 211.091941 
L 255.78363 212.601086 
L 256.084376 213.546035 
L 256.234748 213.583703 
L 256.535494 214.242924 
L 257.136984 216.203546 
L 257.43773 216.08395 
L 257.588102 216.376223 
L 257.738475 216.129573 
L 257.888848 216.292971 
L 258.03922 217.047697 
L 258.189593 217.131651 
L 258.339965 217.479948 
L 258.490338 217.440152 
L 258.791083 218.481962 
L 258.941456 218.712396 
L 259.091829 218.627076 
L 259.242201 218.940077 
L 259.392574 218.9776 
L 259.693319 219.713146 
L 259.843692 219.424632 
L 260.29481 220.486791 
L 260.445183 220.156785 
L 260.595555 220.324573 
L 260.745928 220.751811 
L 260.8963 220.671914 
L 261.046673 220.812254 
L 261.347418 220.693971 
L 261.798536 221.302252 
L 261.948909 221.270128 
L 262.249654 221.596959 
L 262.400027 221.58002 
L 262.700772 221.867089 
L 262.851145 222.043467 
L 263.15189 222.058964 
L 263.302263 222.205737 
L 263.452635 222.124974 
L 263.753381 222.305297 
L 263.903753 222.433644 
L 264.204499 222.320874 
L 264.505244 222.785093 
L 264.805989 223.245046 
L 265.106735 223.822994 
L 265.40748 224.264572 
L 265.557853 224.313841 
L 265.708225 224.69668 
L 266.159343 224.704183 
L 266.309716 224.652702 
L 266.911206 225.99675 
L 267.061579 226.058094 
L 267.211952 226.725927 
L 267.362324 226.586398 
L 267.512697 226.763362 
L 267.66307 226.595753 
L 267.813442 227.149516 
L 268.565305 227.647097 
L 268.866051 228.429993 
L 269.016423 228.37425 
L 269.317169 228.447795 
L 269.467541 228.158905 
L 269.617914 228.281509 
L 269.768287 228.222157 
L 270.069032 228.647429 
L 270.219405 228.697361 
L 270.369777 228.576809 
L 270.52015 228.755208 
L 270.670523 229.146145 
L 270.820895 229.142442 
L 271.12164 229.376927 
L 271.422386 229.885666 
L 271.572758 229.177507 
L 272.023876 229.62406 
L 273.226858 232.017504 
L 273.37723 232.0936 
L 273.677975 231.583506 
L 273.978721 232.597231 
L 274.129093 232.428688 
L 274.429839 232.632664 
L 274.730584 232.448566 
L 274.880957 232.594178 
L 275.482447 233.97003 
L 275.63282 234.00503 
L 275.933565 234.852956 
L 276.083938 234.570581 
L 276.384683 234.612607 
L 276.535056 234.627536 
L 276.685428 235.013423 
L 276.835801 234.872691 
L 277.136546 235.335662 
L 277.286919 236.022797 
L 277.437292 235.981579 
L 277.738037 236.230299 
L 278.038782 236.825665 
L 278.339528 236.164573 
L 278.790646 236.675692 
L 278.941018 236.400269 
L 279.091391 236.379804 
L 279.392136 237.356208 
L 279.542509 237.502 
L 279.843254 237.543512 
L 280.143999 237.988686 
L 280.294372 237.833961 
L 280.444745 237.875807 
L 280.74549 238.392007 
L 280.895863 239.048885 
L 281.647726 238.059349 
L 281.798098 238.183999 
L 282.098844 237.449272 
L 282.249216 237.567885 
L 282.399589 237.225782 
L 282.700334 237.870296 
L 283.00108 237.5715 
L 283.151452 237.872914 
L 283.301825 237.89217 
L 283.452198 238.226571 
L 283.60257 237.84048 
L 284.204061 239.029758 
L 284.504806 239.184529 
L 284.805551 238.39535 
L 285.106297 238.902014 
L 285.407042 239.344675 
L 285.557415 239.150327 
L 285.707787 239.363003 
L 285.85816 239.920918 
L 286.008533 240.041022 
L 286.158905 239.694135 
L 286.309278 239.847228 
L 286.459651 240.262806 
L 286.760396 240.052795 
L 287.061141 240.295429 
L 287.211514 240.384139 
L 287.361886 240.717833 
L 287.512259 240.705549 
L 287.662632 241.088244 
L 287.963377 241.161739 
L 288.264122 241.340063 
L 288.414495 241.007378 
L 288.564868 240.987657 
L 288.71524 241.259383 
L 288.865613 241.286575 
L 289.166358 241.860042 
L 289.467103 241.873106 
L 289.617476 241.653298 
L 290.068594 241.922505 
L 290.670085 242.703601 
L 290.820457 242.519581 
L 291.121203 242.666196 
L 291.722693 242.808016 
L 291.873066 242.766793 
L 292.023438 242.326478 
L 292.173811 242.282685 
L 292.474556 242.936563 
L 293.677538 244.055492 
L 293.82791 243.855474 
L 293.978283 243.998051 
L 294.128656 244.658089 
L 294.279028 244.701787 
L 294.880519 245.46633 
L 295.331637 245.284208 
L 295.632382 245.440623 
L 295.933127 245.899018 
L 296.0835 245.528378 
L 296.384245 245.74912 
L 296.684991 245.483993 
L 296.835363 245.786781 
L 296.985736 245.735733 
L 297.286481 246.195166 
L 297.587226 246.24895 
L 297.737599 247.113162 
L 298.038344 247.317266 
L 298.188717 247.243936 
L 298.33909 246.916368 
L 298.639835 247.155243 
L 298.790208 247.229326 
L 299.090953 248.031784 
L 299.241326 247.856019 
L 299.542071 248.313033 
L 299.692443 248.209542 
L 300.143561 249.266605 
L 300.444307 249.467181 
L 300.594679 249.613594 
L 300.895425 249.552276 
L 302.098406 251.092866 
L 302.248778 251.128203 
L 302.399151 251.029935 
L 303.000642 251.757226 
L 303.752505 251.675682 
L 303.902878 251.666212 
L 304.05325 251.392207 
L 304.353996 251.852708 
L 304.504368 251.733882 
L 304.805113 251.90932 
L 304.955486 251.872247 
L 305.406604 252.355679 
L 305.707349 252.282825 
L 306.008095 252.483545 
L 306.158467 252.736564 
L 306.30884 252.512587 
L 306.609585 252.871599 
L 306.910331 252.666268 
L 307.211076 252.93331 
L 307.361448 252.826398 
L 307.511821 253.130591 
L 307.662194 252.792383 
L 307.962939 252.859306 
L 308.113312 252.782971 
L 308.263684 252.438606 
L 308.414057 252.759267 
L 308.56443 252.698854 
L 309.16592 253.872233 
L 309.316293 253.797957 
L 309.466666 254.002789 
L 309.617038 254.011807 
L 309.767411 254.343186 
L 309.917783 254.264845 
L 310.218529 254.726438 
L 310.368901 254.692484 
L 310.820019 255.178796 
L 310.970392 255.229556 
L 311.271137 255.613384 
L 311.571883 256.147955 
L 311.722255 255.920585 
L 312.023001 256.194572 
L 312.323746 256.446463 
L 312.624491 256.744044 
L 313.075609 256.521233 
L 313.225982 256.491238 
L 313.376354 256.288067 
L 313.526727 255.792556 
L 313.6771 255.85719 
L 313.827472 256.119314 
L 313.977845 255.891278 
L 314.27859 256.047105 
L 314.579336 256.588162 
L 314.729708 256.8321 
L 314.880081 256.848912 
L 315.331199 257.511688 
L 315.932689 257.930457 
L 316.53418 258.38569 
L 316.834925 258.799995 
L 317.286043 259.263336 
L 317.586788 259.339676 
L 317.887534 259.239717 
L 318.188279 259.519911 
L 318.639397 259.634911 
L 318.940142 260.139758 
L 319.39126 260.328979 
L 319.992751 260.554608 
L 320.293496 261.078646 
L 320.744614 261.350004 
L 321.797223 261.914598 
L 322.248341 262.214442 
L 322.549086 262.430572 
L 323.300949 262.856983 
L 323.451322 262.948652 
L 323.601694 262.705698 
L 324.203185 263.181365 
L 324.50393 263.291118 
L 324.804676 263.24986 
L 324.955048 263.250807 
L 325.255794 263.556017 
L 325.556539 263.75204 
L 326.308402 263.784518 
L 327.210638 264.539533 
L 327.361011 264.337273 
L 327.661756 264.428868 
L 329.315855 265.197223 
L 329.766973 265.363429 
L 330.368464 265.643029 
L 330.669209 265.783797 
L 332.473681 266.093628 
L 332.774426 266.246636 
L 333.075171 266.280308 
L 333.827034 267.068692 
L 334.12778 267.242694 
L 334.72927 267.6289 
L 335.030016 267.750067 
L 335.330761 268.089482 
L 335.631506 268.10556 
L 335.932251 267.619508 
L 336.082624 267.943029 
L 336.383369 268.054709 
L 337.435978 268.855975 
L 337.736723 268.824352 
L 338.488586 269.273402 
L 339.390822 269.693184 
L 339.541195 269.67719 
L 339.992313 269.879156 
L 340.142686 269.844369 
L 340.443431 270.028331 
L 340.744176 270.154661 
L 340.894549 270.225934 
L 341.195294 270.527639 
L 341.646412 270.747429 
L 342.247903 271.222951 
L 343.601256 271.720161 
L 345.556101 273.086355 
L 346.007219 273.608563 
L 346.307964 273.802318 
L 346.458337 273.815256 
L 346.608709 273.959384 
L 346.909455 274.344875 
L 347.962063 275.287577 
L 348.112436 275.561385 
L 348.262809 275.600882 
L 349.014672 276.416081 
L 349.46579 276.721208 
L 350.06728 276.571834 
L 350.518398 276.690562 
L 350.668771 276.964468 
L 350.819144 276.809533 
L 351.119889 276.961741 
L 351.270261 276.905643 
L 351.571007 277.006897 
L 351.871752 277.089598 
L 352.022125 277.030502 
L 352.32287 277.271817 
L 354.277714 277.253371 
L 354.728832 277.788099 
L 354.879205 277.721287 
L 355.029578 277.823348 
L 355.17995 278.200196 
L 355.330323 278.079523 
L 355.781441 278.493436 
L 355.931814 278.45028 
L 356.082186 278.685202 
L 356.232559 278.597165 
L 356.533304 278.842158 
L 356.683677 278.759123 
L 357.585913 279.284147 
L 357.886658 279.33536 
L 358.638521 279.499284 
L 358.939266 279.862734 
L 359.240012 279.787494 
L 359.69113 280.118852 
L 359.841502 280.112798 
L 359.991875 280.386329 
L 360.142248 280.173158 
L 360.894111 280.558333 
L 361.345229 281.057555 
L 362.097092 281.179736 
L 362.54821 281.415796 
L 362.999328 281.300187 
L 363.450446 281.365505 
L 364.202309 281.595909 
L 364.503054 281.627043 
L 365.254918 281.84031 
L 365.40529 281.731325 
L 365.856408 281.884401 
L 366.006781 282.071467 
L 366.608272 281.997017 
L 366.909017 282.106517 
L 367.059389 282.125594 
L 367.209762 281.96294 
L 367.360135 282.211876 
L 367.510507 282.100854 
L 367.811253 282.22498 
L 368.111998 282.22798 
L 368.713489 282.431059 
L 368.863861 282.60156 
L 369.164607 282.611173 
L 369.465352 282.942997 
L 369.615724 283.189439 
L 369.766097 283.152399 
L 370.066842 283.222018 
L 370.367588 283.180618 
L 370.51796 283.294234 
L 370.668333 283.108984 
L 370.969078 283.384431 
L 371.269824 283.513797 
L 371.570569 283.854744 
L 372.322432 284.335006 
L 372.623177 284.535442 
L 372.77355 284.525786 
L 372.923923 284.695507 
L 373.074295 284.54603 
L 373.525413 284.657505 
L 373.976531 284.74887 
L 374.427649 284.947414 
L 374.578022 284.87705 
L 376.382494 285.641512 
L 377.735847 285.932602 
L 378.036593 285.868379 
L 378.186965 285.608767 
L 378.487711 285.658139 
L 379.239574 285.934759 
L 379.690692 286.005232 
L 379.841064 286.095474 
L 379.991437 286.339301 
L 380.14181 286.345826 
L 380.442555 286.239458 
L 381.044046 286.476847 
L 381.645536 286.643469 
L 382.096654 286.707086 
L 382.547772 286.857167 
L 382.99889 286.962964 
L 383.299635 287.101507 
L 383.600381 287.132842 
L 384.502617 287.514518 
L 384.803362 287.485085 
L 384.953734 287.676969 
L 385.25448 287.680375 
L 386.307088 288.003803 
L 386.607834 288.092526 
L 387.209324 288.711264 
L 387.660442 288.713894 
L 387.961187 288.878799 
L 388.11156 288.890942 
L 388.412305 289.576783 
L 388.713051 289.829074 
L 389.464914 290.335177 
L 389.615287 290.53574 
L 389.765659 290.530677 
L 390.216777 290.861029 
L 390.667895 290.98062 
L 390.96864 291.334443 
L 391.419758 291.202849 
L 391.570131 291.085894 
L 391.720504 291.565842 
L 391.870876 291.43539 
L 392.472367 292.038306 
L 392.622739 291.915845 
L 392.923485 292.385784 
L 393.22423 292.620453 
L 393.524975 292.691529 
L 393.825721 292.89021 
L 394.126466 293.145301 
L 394.878329 294.382501 
L 395.028702 294.40518 
L 395.179074 294.613086 
L 395.329447 294.557346 
L 395.47982 294.646361 
L 395.630192 294.343164 
L 395.780565 294.445525 
L 395.930938 294.775136 
L 396.08131 294.829217 
L 396.231683 294.640098 
L 396.382056 294.679112 
L 396.532428 294.557457 
L 396.682801 294.745264 
L 396.833174 294.749462 
L 397.133919 295.048961 
L 397.434664 295.214302 
L 397.585037 295.184439 
L 397.735409 295.269323 
L 397.885782 295.179423 
L 398.036155 295.372611 
L 398.186527 295.297819 
L 398.487273 295.488 
L 398.487273 295.488 
" clip-path="url(#pfa19e997fb)" style="fill: none; stroke: #1f77b4; stroke-opacity: 0.7; stroke-width: 1.5; stroke-linecap: square"/>
   </g>
   <g id="line2d_15">
    <path d="M 73.832727 160.096275 
L 74.133473 159.954602 
L 74.283845 159.989409 
L 74.584591 159.662883 
L 74.885336 159.827521 
L 75.186081 160.004057 
L 75.937944 159.977562 
L 76.088317 160.046326 
L 76.539435 159.884658 
L 76.84018 159.874497 
L 77.140926 159.586346 
L 77.291298 159.65103 
L 77.592043 159.515948 
L 77.892789 159.621742 
L 78.043161 159.520818 
L 78.494279 159.53209 
L 80.599496 158.791925 
L 81.802478 158.682585 
L 82.704713 158.449906 
L 87.215893 157.901678 
L 87.516638 157.833186 
L 87.967756 157.842724 
L 89.020365 157.486355 
L 89.471483 157.46856 
L 92.17819 157.0412 
L 95.787134 156.568756 
L 96.839742 156.57011 
L 97.741978 156.498544 
L 98.193096 156.396613 
L 98.794587 156.425517 
L 99.095332 156.470434 
L 100.749431 156.291619 
L 102.553903 155.790082 
L 103.606511 155.756218 
L 104.358375 155.66318 
L 106.012474 155.61223 
L 108.869554 155.397465 
L 111.275516 155.318155 
L 113.230361 155.279801 
L 116.388186 155.148072 
L 117.591168 155.038919 
L 117.891913 154.874481 
L 118.343031 154.842059 
L 118.794149 154.735698 
L 123.906819 154.381076 
L 124.508309 154.320617 
L 127.36539 154.085376 
L 131.124706 153.858951 
L 133.07955 153.74144 
L 135.485513 153.629956 
L 139.395201 153.494853 
L 141.801164 153.156568 
L 143.605636 153.100495 
L 143.756008 153.201558 
L 143.906381 153.133115 
L 144.207126 153.204941 
L 144.658244 152.954581 
L 144.808617 152.897162 
L 144.958989 152.986877 
L 145.410107 152.7952 
L 146.312343 152.842556 
L 148.718306 152.447116 
L 149.169424 152.497571 
L 150.67315 152.676756 
L 150.823523 152.381117 
L 150.973895 152.481379 
L 151.575386 151.928836 
L 151.725759 152.054299 
L 152.026504 151.861292 
L 152.778367 151.783243 
L 152.92874 151.64121 
L 153.079112 151.676563 
L 153.830976 151.288731 
L 153.981348 151.41912 
L 155.485075 151.083736 
L 155.936193 151.10918 
L 156.688056 151.229297 
L 156.988801 151.174444 
L 157.590292 150.9529 
L 158.6429 150.669049 
L 158.943646 150.683452 
L 159.244391 150.607222 
L 159.845882 150.681235 
L 160.89849 150.603573 
L 161.349608 150.565426 
L 161.800726 150.48692 
L 162.402217 150.42977 
L 166.311905 149.770637 
L 166.612651 149.782476 
L 167.214141 149.687367 
L 168.717868 149.437221 
L 169.018613 149.621125 
L 169.319358 149.535081 
L 170.823085 148.90786 
L 171.12383 148.744567 
L 171.424575 148.670126 
L 172.326811 148.378529 
L 173.078674 148.066802 
L 174.281656 147.998006 
L 175.033519 147.910489 
L 176.537245 147.798096 
L 176.988363 147.804102 
L 179.09358 147.427571 
L 179.394326 147.402734 
L 187.364076 146.437005 
L 187.664821 146.327964 
L 189.018175 146.187932 
L 189.31892 146.033768 
L 189.619666 145.99516 
L 189.770038 145.569798 
L 189.920411 145.651121 
L 190.371529 145.502996 
L 191.123392 145.455528 
L 191.424137 145.402678 
L 191.875255 145.275915 
L 192.326373 145.050651 
L 192.627119 145.078448 
L 193.980472 144.947375 
L 194.281218 144.822594 
L 195.634572 144.597985 
L 196.837553 144.495339 
L 196.987925 144.613967 
L 197.739789 144.427746 
L 199.54426 144.198839 
L 199.995378 144.195327 
L 201.047987 144.031297 
L 201.649477 144.057815 
L 201.79985 144.000867 
L 201.950223 144.095876 
L 202.250968 143.976778 
L 203.002831 143.835576 
L 210.220718 142.542602 
L 210.371091 142.654105 
L 210.972582 142.526889 
L 211.122954 142.542974 
L 211.4237 142.403459 
L 215.634134 141.776552 
L 215.934879 141.682848 
L 216.085252 141.503609 
L 216.385997 141.488361 
L 216.987487 141.459083 
L 217.438605 141.435952 
L 217.739351 141.433424 
L 218.641587 141.371075 
L 219.092705 141.242641 
L 219.39345 141.267087 
L 220.897176 141.135647 
L 221.348294 141.119701 
L 222.400903 141.058588 
L 222.852021 141.017858 
L 223.904629 141.05216 
L 224.656492 140.997726 
L 225.408356 140.904101 
L 225.558728 141.07179 
L 227.062455 140.68309 
L 227.513573 140.820822 
L 228.265436 140.656994 
L 228.415809 140.707055 
L 228.866927 140.365366 
L 229.318045 140.651894 
L 229.468417 140.496607 
L 229.769162 140.516854 
L 229.919535 140.35303 
L 230.22028 140.340673 
L 230.972144 140.002114 
L 231.272889 140.039783 
L 231.573634 139.972714 
L 231.87438 140.284942 
L 232.325497 140.113065 
L 232.47587 139.889888 
L 232.626243 139.962898 
L 232.926988 139.790891 
L 233.077361 139.830412 
L 233.227733 140.004261 
L 233.378106 139.889339 
L 233.829224 139.9891 
L 234.129969 139.790786 
L 234.280342 140.09901 
L 234.430715 140.07155 
L 234.581087 139.824451 
L 235.182578 140.502358 
L 235.483323 139.794246 
L 235.633696 139.229211 
L 235.784068 139.218227 
L 236.084814 139.687249 
L 236.385559 139.036831 
L 236.535932 138.82922 
L 236.686304 138.845737 
L 236.98705 138.422664 
L 237.137422 137.650137 
L 237.287795 137.835025 
L 237.438168 137.455751 
L 237.889285 137.251489 
L 238.039658 136.814209 
L 238.190031 137.182417 
L 238.490776 137.033665 
L 238.791521 136.632676 
L 239.092267 136.850934 
L 239.242639 136.593039 
L 239.543385 136.599426 
L 239.693757 136.436618 
L 239.84413 137.314803 
L 239.994503 137.139308 
L 240.144875 136.685344 
L 240.295248 136.951727 
L 240.746366 136.216548 
L 241.047111 135.584474 
L 241.197484 135.829033 
L 241.347856 135.489443 
L 241.498229 135.783626 
L 241.648602 135.477415 
L 241.798974 135.503422 
L 242.09972 133.471817 
L 242.250092 133.548872 
L 242.550838 132.875871 
L 242.70121 132.748957 
L 242.851583 132.36501 
L 243.001955 132.809736 
L 243.152328 132.547983 
L 243.302701 132.58958 
L 243.603446 131.863107 
L 243.753819 131.610033 
L 243.904191 131.736143 
L 244.054564 131.587804 
L 244.204937 131.694723 
L 244.505682 131.517682 
L 244.656055 131.151118 
L 244.806427 131.438703 
L 245.107173 130.306764 
L 245.407918 130.471791 
L 245.55829 130.09351 
L 245.708663 130.20992 
L 246.009408 129.989643 
L 246.610899 128.460184 
L 246.761272 128.828643 
L 247.21239 128.589831 
L 247.362762 128.573322 
L 248.415371 127.364432 
L 248.565743 126.998761 
L 248.716116 127.173588 
L 248.866489 127.101972 
L 249.016861 127.179352 
L 249.317607 126.873405 
L 249.467979 127.219082 
L 250.06947 126.189948 
L 250.219843 125.377649 
L 250.370215 125.232165 
L 250.520588 125.364096 
L 250.971706 124.500976 
L 251.272451 124.00428 
L 251.422824 124.534237 
L 251.573196 124.452925 
L 251.873942 123.847971 
L 252.024314 124.196865 
L 252.475432 123.511638 
L 252.625805 122.656381 
L 252.776178 122.794531 
L 253.076923 122.224298 
L 253.227295 122.132158 
L 253.678413 120.934349 
L 253.828786 119.80775 
L 254.129531 119.620061 
L 254.279904 119.181007 
L 254.430277 119.181583 
L 254.881395 117.316536 
L 255.031767 117.604905 
L 255.18214 116.981264 
L 255.332513 116.850576 
L 255.482885 116.322576 
L 255.633258 116.630999 
L 256.084376 115.959653 
L 256.385121 114.991606 
L 256.986612 114.579645 
L 257.136984 114.765391 
L 257.588102 113.989529 
L 257.888848 113.528739 
L 258.03922 113.906072 
L 258.490338 113.155753 
L 258.640711 113.519828 
L 258.791083 113.503246 
L 259.091829 112.678194 
L 259.542947 111.590706 
L 259.693319 111.524698 
L 259.843692 110.839473 
L 259.994065 110.829085 
L 260.29481 111.01105 
L 260.445183 110.440404 
L 260.595555 110.46226 
L 260.745928 110.734692 
L 261.197046 110.681551 
L 261.347418 110.442906 
L 261.648164 110.502971 
L 261.798536 110.558314 
L 261.948909 110.310004 
L 262.249654 110.29095 
L 262.400027 110.185816 
L 262.5504 110.27078 
L 262.700772 110.196694 
L 262.851145 110.294877 
L 263.15189 109.9698 
L 263.302263 109.947183 
L 263.603008 109.702607 
L 264.204499 109.329582 
L 264.354871 109.54771 
L 264.505244 109.463737 
L 265.106735 109.687137 
L 265.257107 109.856415 
L 265.557853 109.546633 
L 265.708225 109.660083 
L 266.309716 108.52844 
L 266.911206 108.91916 
L 267.061579 108.694573 
L 267.211952 108.909276 
L 267.66307 108.226063 
L 267.813442 108.606331 
L 268.565305 107.548848 
L 268.866051 107.8097 
L 269.166796 107.405833 
L 269.317169 107.296413 
L 269.467541 106.939256 
L 269.617914 106.973677 
L 269.768287 106.627717 
L 269.918659 106.926704 
L 270.219405 106.751464 
L 270.52015 106.366603 
L 270.670523 106.546143 
L 270.971268 106.530337 
L 271.12164 106.422455 
L 271.422386 106.612103 
L 271.572758 105.717821 
L 271.723131 105.549793 
L 271.873504 105.612405 
L 272.174249 105.308314 
L 272.324622 105.365355 
L 272.474994 105.080346 
L 272.625367 105.277815 
L 272.77574 105.279363 
L 273.076485 104.882624 
L 273.226858 104.884489 
L 273.37723 104.60471 
L 273.677975 103.619208 
L 273.978721 104.15775 
L 274.129093 103.76382 
L 274.429839 103.752009 
L 274.580211 103.674331 
L 274.730584 103.38703 
L 275.031329 103.860219 
L 275.181702 104.506926 
L 275.482447 104.319327 
L 275.63282 104.334999 
L 275.933565 105.044784 
L 276.23431 104.49424 
L 276.535056 104.025879 
L 276.685428 104.137656 
L 276.835801 103.740831 
L 276.986174 103.715571 
L 277.136546 103.451335 
L 277.286919 103.850422 
L 277.738037 102.920986 
L 277.88841 102.987792 
L 278.038782 102.887271 
L 278.189155 102.080803 
L 278.640273 101.717523 
L 278.790646 101.96693 
L 279.091391 101.136512 
L 279.392136 101.380386 
L 279.843254 100.430519 
L 279.993627 100.541307 
L 280.444745 99.749242 
L 280.595117 99.678357 
L 280.74549 99.806298 
L 280.895863 100.249887 
L 281.647726 98.996294 
L 281.798098 99.012748 
L 282.549962 97.676606 
L 282.700334 97.793443 
L 283.00108 97.046616 
L 283.151452 97.141662 
L 283.301825 96.797827 
L 283.452198 96.788723 
L 283.60257 96.144782 
L 283.752943 96.179854 
L 283.903316 96.369276 
L 284.053688 96.324949 
L 284.354433 95.903865 
L 284.504806 95.681081 
L 284.805551 94.52717 
L 284.955924 94.632447 
L 285.256669 94.992285 
L 285.407042 94.931378 
L 285.707787 94.353141 
L 285.85816 94.577965 
L 286.008533 94.495541 
L 286.158905 93.787123 
L 286.309278 93.62165 
L 286.459651 93.77005 
L 286.760396 93.153899 
L 287.512259 93.304258 
L 287.662632 93.498957 
L 288.264122 92.944656 
L 288.414495 92.467556 
L 288.564868 92.371997 
L 288.71524 92.459039 
L 288.865613 92.308597 
L 289.015986 92.472212 
L 289.467103 92.219419 
L 289.767849 91.641463 
L 290.068594 91.326475 
L 290.519712 91.139077 
L 290.670085 91.15982 
L 290.820457 90.83208 
L 290.97083 90.822888 
L 291.421948 90.400931 
L 291.722693 90.346205 
L 291.873066 90.15922 
L 292.023438 89.601697 
L 292.173811 89.616672 
L 292.324184 89.866522 
L 292.775302 89.801758 
L 293.376792 89.513853 
L 293.677538 89.526271 
L 293.82791 89.231951 
L 293.978283 89.184903 
L 294.128656 89.7092 
L 294.429401 89.672554 
L 294.730146 89.642217 
L 294.880519 89.525969 
L 295.331637 88.774034 
L 295.632382 88.629395 
L 295.782755 88.751587 
L 295.933127 88.589204 
L 296.233873 87.69325 
L 296.384245 87.643861 
L 296.684991 87.255941 
L 296.835363 87.546531 
L 296.985736 87.353493 
L 297.136108 87.528804 
L 297.436854 87.299461 
L 297.587226 87.02858 
L 297.737599 87.74744 
L 297.887972 87.755668 
L 298.188717 86.985009 
L 298.33909 86.233623 
L 298.489462 86.237011 
L 298.790208 86.066395 
L 298.94058 86.125157 
L 299.090953 86.532192 
L 299.241326 85.927644 
L 299.542071 85.731563 
L 299.692443 85.378482 
L 299.842816 85.603377 
L 299.993189 85.488516 
L 300.143561 85.566598 
L 300.293934 85.414119 
L 300.444307 85.428324 
L 300.594679 85.329617 
L 300.895425 84.915183 
L 301.19617 85.052658 
L 301.496915 85.060968 
L 301.647288 85.012622 
L 301.797661 85.234223 
L 302.248778 84.802017 
L 302.399151 84.535888 
L 302.549524 84.571133 
L 302.699896 84.44392 
L 303.000642 84.570431 
L 303.151014 84.378915 
L 303.301387 83.984811 
L 303.45176 84.026722 
L 303.602132 83.840288 
L 303.752505 83.873318 
L 303.902878 83.739629 
L 304.05325 83.281926 
L 304.203623 83.31753 
L 304.353996 83.473264 
L 304.504368 83.271869 
L 304.805113 83.242433 
L 304.955486 83.084754 
L 305.256231 83.241401 
L 305.556977 83.037671 
L 305.857722 82.829586 
L 306.008095 82.813294 
L 306.158467 82.923399 
L 306.30884 82.592303 
L 306.609585 82.73139 
L 306.910331 82.400239 
L 307.211076 82.375729 
L 307.361448 82.246016 
L 307.511821 82.4835 
L 307.812566 81.801287 
L 307.962939 81.654841 
L 308.113312 81.345104 
L 308.263684 80.726272 
L 308.414057 80.767603 
L 308.714802 80.277083 
L 309.015548 80.192025 
L 309.16592 80.225149 
L 309.316293 79.9606 
L 309.466666 79.971874 
L 309.617038 79.616632 
L 309.767411 79.794479 
L 310.068156 79.480121 
L 310.218529 79.503493 
L 310.368901 79.24012 
L 310.669647 79.113574 
L 310.970392 78.84894 
L 311.271137 78.899395 
L 311.42151 79.152978 
L 311.571883 79.055793 
L 311.722255 78.683278 
L 311.872628 78.803893 
L 312.173373 78.708429 
L 312.323746 78.691966 
L 312.474118 78.875222 
L 313.376354 78.02561 
L 313.526727 77.527184 
L 313.827472 77.588242 
L 313.977845 77.292124 
L 314.128218 77.34507 
L 314.27859 77.064867 
L 314.428963 77.156845 
L 316.083062 76.122088 
L 316.383807 75.975962 
L 316.985298 76.159814 
L 317.286043 76.264794 
L 317.586788 76.058752 
L 317.887534 75.762988 
L 318.188279 75.922086 
L 318.639397 75.883995 
L 318.78977 76.112538 
L 318.940142 76.135114 
L 319.692006 75.631926 
L 319.992751 75.360011 
L 320.293496 75.604275 
L 321.346105 75.007918 
L 321.496477 75.064215 
L 321.797223 74.951459 
L 321.947595 74.959673 
L 322.097968 74.803398 
L 322.398713 74.74355 
L 323.150576 74.4245 
L 323.451322 74.29068 
L 323.601694 73.943209 
L 324.203185 73.995046 
L 324.50393 73.957208 
L 324.804676 73.712366 
L 324.955048 73.619351 
L 325.105421 73.696268 
L 325.406166 73.616638 
L 326.007657 73.514326 
L 326.458775 73.377263 
L 326.609147 73.36513 
L 326.75952 73.613978 
L 327.210638 73.486208 
L 327.361011 73.147925 
L 329.315855 72.539667 
L 330.218091 72.374608 
L 330.669209 72.439146 
L 331.721817 72.213741 
L 332.473681 72.123932 
L 333.075171 71.893046 
L 333.676662 71.969872 
L 333.827034 72.04346 
L 334.12778 71.950639 
L 334.428525 71.879531 
L 335.030016 71.701714 
L 335.330761 71.77688 
L 335.631506 71.602584 
L 335.932251 70.909325 
L 336.082624 71.149106 
L 336.533742 71.117622 
L 336.834487 71.138093 
L 337.887096 70.694318 
L 338.488586 70.667924 
L 338.939704 70.609768 
L 339.24045 70.651179 
L 339.691568 70.602037 
L 340.443431 70.457097 
L 340.894549 70.379569 
L 341.195294 70.410298 
L 341.646412 70.248872 
L 344.804238 70.005096 
L 345.405728 70.084473 
L 345.856846 70.392922 
L 346.608709 70.101149 
L 346.759082 70.238394 
L 347.962063 69.83341 
L 348.112436 69.882641 
L 348.262809 69.683852 
L 348.713926 69.603279 
L 350.217653 68.879029 
L 350.518398 68.882264 
L 350.668771 69.136442 
L 350.819144 69.007403 
L 350.969516 69.053857 
L 352.623615 68.254227 
L 352.924361 68.254523 
L 353.225106 68.098491 
L 353.676224 68.010983 
L 353.826596 67.932991 
L 354.127342 67.663054 
L 354.277714 67.686658 
L 354.728832 68.103774 
L 354.879205 67.985154 
L 355.029578 68.017292 
L 355.17995 68.281517 
L 355.330323 68.124867 
L 355.480696 68.13126 
L 355.931814 67.627169 
L 356.082186 67.637013 
L 356.382931 67.267935 
L 356.533304 67.236897 
L 356.834049 66.898293 
L 356.984422 66.877161 
L 357.134795 66.644358 
L 357.285167 66.636084 
L 357.736285 66.23968 
L 358.037031 66.149772 
L 358.638521 65.863826 
L 358.939266 65.98584 
L 359.841502 65.434081 
L 359.991875 65.532937 
L 360.442993 64.975113 
L 360.743738 64.956657 
L 360.894111 64.868355 
L 361.345229 64.989765 
L 362.097092 64.531888 
L 362.698583 64.337088 
L 363.450446 63.906044 
L 363.901564 63.785919 
L 364.352682 63.755956 
L 364.653427 63.597003 
L 365.254918 63.423253 
L 365.555663 63.190643 
L 365.856408 63.093745 
L 366.006781 63.204117 
L 366.608272 62.886515 
L 366.909017 62.835875 
L 367.059389 62.811031 
L 367.209762 62.59423 
L 367.360135 62.807617 
L 367.66088 62.657176 
L 368.863861 62.168217 
L 369.465352 62.108911 
L 369.615724 62.263922 
L 369.766097 62.156552 
L 369.91647 62.207302 
L 370.668333 61.772279 
L 370.969078 61.691914 
L 371.570569 61.497249 
L 372.021687 61.177693 
L 372.77355 60.97503 
L 372.923923 61.063282 
L 373.224668 60.761736 
L 373.976531 60.344559 
L 374.427649 60.306603 
L 374.728394 60.101917 
L 375.02914 60.012698 
L 378.036593 59.201291 
L 378.337338 58.809816 
L 379.089201 58.834621 
L 379.841064 58.645469 
L 379.991437 58.859161 
L 380.7433 58.506058 
L 381.795909 58.207226 
L 381.946282 58.063939 
L 382.397399 58.085668 
L 382.99889 57.982822 
L 383.299635 57.941047 
L 383.600381 57.818273 
L 384.803362 57.609065 
L 384.953734 57.710937 
L 385.25448 57.528783 
L 385.705598 57.503225 
L 386.307088 57.280502 
L 386.607834 57.152763 
L 387.961187 57.345703 
L 388.11156 57.289878 
L 388.261933 57.651362 
L 388.562678 57.554543 
L 389.013796 57.119651 
L 389.615287 56.902623 
L 389.916032 56.579429 
L 390.066404 56.563112 
L 390.36715 56.363716 
L 390.818268 56.346991 
L 390.96864 56.378793 
L 391.419758 56.051043 
L 391.570131 55.803709 
L 391.720504 56.015314 
L 391.870876 55.700869 
L 392.321994 55.636242 
L 392.472367 55.559892 
L 392.622739 55.321409 
L 392.773112 55.48176 
L 393.825721 54.939288 
L 393.976093 54.86407 
L 394.727957 55.5936 
L 395.028702 55.225162 
L 395.179074 55.215017 
L 395.780565 54.500312 
L 395.930938 54.687093 
L 396.08131 54.614523 
L 396.382056 54.374365 
L 396.532428 54.23021 
L 396.682801 54.340081 
L 396.833174 54.210633 
L 396.983546 54.31266 
L 397.434664 54.112112 
L 397.585037 53.94322 
L 397.735409 53.96251 
L 397.885782 53.750095 
L 398.036155 53.880934 
L 398.487273 53.568 
L 398.487273 53.568 
" clip-path="url(#pfa19e997fb)" style="fill: none; stroke: #ff7f0e; stroke-opacity: 0.7; stroke-width: 1.5; stroke-linecap: square"/>
   </g>
   <g id="line2d_16">
    <path d="M 73.832727 160.107139 
L 74.133473 160.045271 
L 74.283845 160.141617 
L 74.584591 159.866024 
L 74.885336 160.039142 
L 75.336454 160.289126 
L 75.486826 160.233863 
L 75.637199 160.380596 
L 75.787572 160.364905 
L 76.389062 160.70841 
L 76.539435 160.641328 
L 76.84018 160.792077 
L 77.140926 160.645524 
L 77.291298 160.73641 
L 77.592043 160.704698 
L 77.892789 160.905551 
L 78.043161 160.862262 
L 78.343907 160.961779 
L 78.795025 160.96368 
L 79.246143 160.789532 
L 79.998006 160.929225 
L 80.148378 160.810402 
L 81.200987 161.017082 
L 82.103223 160.923508 
L 82.253596 160.969191 
L 82.554341 160.886672 
L 83.155831 161.006021 
L 83.606949 160.907043 
L 84.058067 160.946105 
L 84.358813 160.965953 
L 84.659558 161.093382 
L 86.163284 161.303326 
L 86.313657 161.407854 
L 86.46403 161.297497 
L 86.915148 161.38243 
L 88.719619 161.50334 
L 89.020365 161.463898 
L 89.471483 161.475157 
L 91.426327 161.296631 
L 91.877445 161.35379 
L 94.43378 161.283588 
L 94.884898 161.327072 
L 96.087879 161.325182 
L 96.68937 161.444734 
L 97.29086 161.489072 
L 97.741978 161.518938 
L 98.193096 161.499681 
L 98.794587 161.603437 
L 99.095332 161.664208 
L 99.847195 161.714479 
L 100.147941 161.789576 
L 100.749431 161.813019 
L 101.200549 161.761247 
L 102.102785 161.675042 
L 102.553903 161.612233 
L 103.756884 161.718501 
L 106.313219 161.88294 
L 106.764337 161.798657 
L 107.365828 161.84169 
L 108.117691 161.921173 
L 108.568809 161.926835 
L 115.636323 162.891026 
L 116.839304 163.139363 
L 117.14005 163.091394 
L 117.74154 163.03432 
L 118.192658 163.005627 
L 125.861663 163.267126 
L 127.515762 163.314273 
L 130.823961 163.462057 
L 132.628432 163.646274 
L 137.139612 164.1763 
L 138.944084 164.595399 
L 139.695947 164.581965 
L 140.44781 164.599323 
L 142.7034 164.820151 
L 143.30489 164.832076 
L 143.906381 164.984668 
L 144.207126 165.117171 
L 144.507871 165.053761 
L 144.808617 164.952922 
L 144.958989 165.063724 
L 145.410107 164.951487 
L 146.161971 165.082693 
L 146.913834 165.000506 
L 147.214579 164.950187 
L 147.515324 164.901945 
L 148.567933 164.936614 
L 149.770914 165.110318 
L 150.222032 165.2904 
L 150.522777 165.389095 
L 150.67315 165.540876 
L 150.823523 165.276611 
L 150.973895 165.418934 
L 151.425013 165.169703 
L 152.627994 165.512574 
L 152.92874 165.312387 
L 153.079112 165.372911 
L 153.830976 165.169178 
L 153.981348 165.320626 
L 154.883584 165.22065 
L 155.485075 165.270946 
L 155.936193 165.347342 
L 157.139174 165.591814 
L 157.891037 165.477032 
L 158.04141 165.369731 
L 158.492528 165.45013 
L 158.943646 165.524852 
L 159.244391 165.427805 
L 159.545136 165.447486 
L 160.146627 165.411803 
L 160.597745 165.394216 
L 161.951099 165.472264 
L 162.402217 165.506815 
L 164.056316 165.431362 
L 164.357061 165.28336 
L 164.958552 165.275327 
L 165.409669 165.344567 
L 166.01116 165.314699 
L 166.612651 165.437303 
L 167.214141 165.42835 
L 167.966004 165.407817 
L 168.417122 165.40553 
L 168.717868 165.333186 
L 169.018613 165.543412 
L 169.319358 165.511811 
L 170.672712 165.293083 
L 173.078674 164.785719 
L 174.281656 164.855573 
L 175.033519 164.854107 
L 175.935755 164.839724 
L 177.890599 164.892144 
L 179.695071 164.797748 
L 180.146189 164.874949 
L 180.597307 164.851858 
L 181.649915 164.92638 
L 182.401779 164.833792 
L 186.010722 164.900164 
L 186.612213 164.879876 
L 187.213703 164.899397 
L 187.965567 164.789228 
L 189.619666 164.708446 
L 189.770038 164.306009 
L 190.070784 164.423756 
L 190.973019 164.754805 
L 196.837553 165.036023 
L 196.987925 165.185858 
L 197.439043 165.198021 
L 198.040534 165.232237 
L 198.341279 165.325123 
L 198.94277 165.186869 
L 199.393888 165.292106 
L 200.145751 165.338799 
L 200.446496 165.293521 
L 201.79985 165.338126 
L 201.950223 165.438126 
L 202.250968 165.363085 
L 203.303577 165.382755 
L 203.453949 165.299129 
L 204.05544 165.383654 
L 204.65693 165.383027 
L 205.408794 165.339953 
L 206.762147 165.241118 
L 208.416247 165.154914 
L 209.619228 165.09857 
L 210.220718 165.087368 
L 210.371091 165.218375 
L 210.972582 165.202017 
L 211.122954 165.25362 
L 211.273327 165.146248 
L 212.175563 165.225764 
L 215.934879 165.146425 
L 216.085252 164.99043 
L 216.686742 165.071537 
L 217.588978 165.144045 
L 218.040096 165.251568 
L 219.844568 165.29655 
L 220.897176 165.302032 
L 221.348294 165.30842 
L 224.957238 165.578872 
L 225.408356 165.605745 
L 225.558728 165.800422 
L 225.709101 165.800504 
L 225.859474 165.677406 
L 226.160219 165.741808 
L 227.062455 165.758978 
L 227.513573 165.921741 
L 228.265436 165.972495 
L 228.415809 166.03407 
L 228.566181 165.971817 
L 228.716554 165.770129 
L 228.866927 165.779125 
L 229.318045 166.145911 
L 229.468417 166.002246 
L 229.769162 166.050254 
L 229.919535 165.930893 
L 230.22028 166.009557 
L 230.972144 165.82876 
L 231.272889 165.958702 
L 231.573634 165.994665 
L 231.87438 166.408802 
L 232.325497 166.356943 
L 232.47587 166.197165 
L 232.626243 166.303422 
L 232.776615 166.197073 
L 233.077361 166.353009 
L 233.227733 166.562332 
L 233.378106 166.465922 
L 233.979597 166.645353 
L 234.129969 166.627398 
L 234.280342 166.934566 
L 234.430715 166.972456 
L 234.581087 166.80872 
L 235.182578 167.597651 
L 235.483323 167.032646 
L 235.784068 166.421975 
L 236.084814 167.110139 
L 236.385559 166.553372 
L 236.535932 166.421832 
L 236.686304 166.48539 
L 236.98705 166.23042 
L 237.137422 165.590978 
L 237.287795 165.987167 
L 237.438168 165.893947 
L 237.889285 166.178783 
L 238.039658 165.866948 
L 238.340403 166.467282 
L 238.791521 166.391831 
L 239.092267 166.870894 
L 239.242639 166.773588 
L 239.543385 166.972777 
L 239.693757 166.928538 
L 239.84413 167.887352 
L 239.994503 167.817175 
L 240.144875 167.520012 
L 240.295248 167.882893 
L 241.047111 167.390299 
L 241.197484 167.738529 
L 241.347856 167.479483 
L 241.498229 167.931404 
L 241.648602 167.820653 
L 241.798974 167.950677 
L 242.09972 166.334945 
L 242.250092 166.438972 
L 242.550838 165.996087 
L 242.70121 166.063916 
L 242.851583 165.844849 
L 243.001955 166.527151 
L 243.152328 166.320164 
L 243.302701 166.508654 
L 243.453073 166.260375 
L 243.753819 166.296133 
L 243.904191 166.623418 
L 244.054564 166.663745 
L 244.355309 166.95051 
L 244.505682 167.051587 
L 244.656055 166.841957 
L 244.806427 167.220198 
L 245.107173 166.393289 
L 245.407918 166.767011 
L 245.55829 166.646427 
L 245.859036 166.857837 
L 246.009408 166.813204 
L 246.159781 166.448607 
L 246.310154 166.425269 
L 246.610899 165.962588 
L 246.761272 166.469105 
L 246.911644 166.495475 
L 247.062017 166.398822 
L 247.362762 166.729855 
L 248.114625 166.485692 
L 248.264998 166.492421 
L 248.565743 166.060721 
L 248.716116 166.378552 
L 248.866489 166.38652 
L 249.016861 166.613296 
L 249.317607 166.524391 
L 249.467979 166.948274 
L 250.06947 166.326379 
L 250.219843 165.65264 
L 250.370215 165.640534 
L 250.520588 165.869051 
L 250.821333 165.317152 
L 250.971706 165.356537 
L 251.272451 165.190071 
L 251.422824 165.950417 
L 251.723569 165.982933 
L 251.873942 165.772801 
L 252.024314 166.292585 
L 252.475432 166.109621 
L 252.625805 165.504426 
L 252.776178 165.961645 
L 252.92655 165.811434 
L 253.227295 165.970903 
L 253.377668 165.799714 
L 253.528041 165.352646 
L 253.678413 165.523627 
L 253.828786 164.480688 
L 254.129531 164.690121 
L 254.279904 164.35658 
L 254.430277 164.503139 
L 254.580649 164.163124 
L 254.731022 164.155637 
L 254.881395 163.438504 
L 255.031767 164.06399 
L 255.18214 163.746762 
L 255.332513 163.928431 
L 255.482885 163.707259 
L 255.633258 164.349731 
L 256.084376 164.752844 
L 256.385121 164.409215 
L 256.986612 165.077638 
L 257.136984 165.484468 
L 257.43773 165.071462 
L 257.588102 165.182876 
L 257.738475 164.89135 
L 257.888848 164.910855 
L 258.03922 165.476884 
L 258.189593 165.412655 
L 258.339965 165.536407 
L 258.490338 165.297952 
L 258.791083 165.992604 
L 258.941456 165.953033 
L 259.091829 165.652635 
L 259.242201 165.621738 
L 259.392574 165.407374 
L 259.542947 165.454556 
L 259.693319 165.618922 
L 259.843692 165.132052 
L 260.29481 165.748921 
L 260.445183 165.298595 
L 260.595555 165.393416 
L 260.745928 165.743252 
L 260.8963 165.698307 
L 261.046673 165.811118 
L 261.497791 165.655628 
L 261.798536 165.930283 
L 261.948909 165.790066 
L 262.249654 165.943954 
L 262.400027 165.882918 
L 262.5504 166.046612 
L 262.700772 166.031892 
L 262.851145 166.169172 
L 263.15189 166.014382 
L 263.302263 166.07646 
L 263.603008 165.943979 
L 264.054126 165.976494 
L 264.204499 165.825228 
L 264.354871 166.120091 
L 264.505244 166.124415 
L 264.805989 166.374127 
L 264.956362 166.487804 
L 265.257107 166.976619 
L 265.557853 166.930237 
L 265.708225 167.178382 
L 266.309716 166.590571 
L 266.911206 167.457955 
L 267.061579 167.376334 
L 267.211952 167.817601 
L 267.362324 167.636388 
L 267.512697 167.644405 
L 267.66307 167.410908 
L 267.813442 167.877923 
L 268.565305 167.597973 
L 268.866051 168.119846 
L 269.166796 167.925319 
L 269.317169 167.872104 
L 269.467541 167.549081 
L 269.617914 167.627593 
L 269.768287 167.424937 
L 269.918659 167.740772 
L 270.219405 167.724413 
L 270.369777 167.524894 
L 270.52015 167.560906 
L 270.670523 167.846144 
L 271.12164 167.899691 
L 271.422386 168.248884 
L 271.572758 167.447664 
L 271.723131 167.437123 
L 271.873504 167.611717 
L 272.023876 167.507926 
L 272.474994 167.737699 
L 272.77574 168.310948 
L 273.076485 168.299294 
L 273.226858 168.450997 
L 273.37723 168.349155 
L 273.677975 167.601357 
L 273.978721 168.37749 
L 274.129093 168.096254 
L 274.429839 168.192337 
L 274.880957 168.07332 
L 275.031329 168.412242 
L 275.181702 169.066434 
L 275.332075 169.025765 
L 275.783193 169.505019 
L 275.933565 169.94887 
L 276.23431 169.516423 
L 276.535056 169.326707 
L 276.685428 169.57554 
L 276.835801 169.306761 
L 276.986174 169.438586 
L 277.136546 169.393498 
L 277.286919 169.93661 
L 277.587664 169.644671 
L 277.738037 169.575643 
L 278.038782 169.856468 
L 278.189155 169.190489 
L 278.339528 169.043404 
L 278.640273 169.022824 
L 278.790646 169.321311 
L 279.091391 168.758158 
L 279.392136 169.368297 
L 279.692881 169.127514 
L 279.843254 168.987016 
L 279.993627 169.227146 
L 280.595117 168.868632 
L 280.74549 169.099152 
L 280.895863 169.649386 
L 281.647726 168.527822 
L 281.798098 168.598374 
L 282.098844 167.792041 
L 282.249216 167.887284 
L 282.399589 167.452953 
L 282.700334 167.831869 
L 283.00108 167.309058 
L 283.151452 167.507288 
L 283.301825 167.344999 
L 283.452198 167.507647 
L 283.60257 166.992631 
L 283.752943 167.19306 
L 283.903316 167.593171 
L 284.053688 167.641737 
L 284.354433 167.534045 
L 284.504806 167.432805 
L 284.805551 166.46126 
L 284.955924 166.605104 
L 285.256669 167.09798 
L 285.407042 167.138027 
L 285.557415 166.856971 
L 285.707787 166.858072 
L 285.85816 167.249441 
L 286.008533 167.268281 
L 286.158905 166.740629 
L 286.309278 166.734439 
L 286.459651 167.016428 
L 286.760396 166.603347 
L 287.061141 166.707676 
L 287.211514 166.782408 
L 287.361886 167.050433 
L 287.512259 167.004904 
L 287.662632 167.2936 
L 288.11375 167.185953 
L 288.264122 167.142359 
L 288.414495 166.737467 
L 288.564868 166.679827 
L 288.71524 166.859211 
L 288.865613 166.797586 
L 289.015986 167.094958 
L 289.316731 167.091657 
L 289.467103 167.046263 
L 289.617476 166.731249 
L 290.068594 166.62449 
L 290.670085 166.931711 
L 290.820457 166.67583 
L 290.97083 166.734642 
L 291.421948 166.555287 
L 291.572321 166.629866 
L 291.873066 166.463007 
L 292.023438 165.964088 
L 292.173811 165.949678 
L 292.474556 166.408329 
L 293.076047 166.647583 
L 293.527165 166.719683 
L 293.677538 166.790881 
L 293.82791 166.543713 
L 293.978283 166.591477 
L 294.128656 167.183644 
L 294.279028 167.16541 
L 294.730146 167.499091 
L 294.880519 167.49615 
L 295.331637 167.029121 
L 295.632382 167.035009 
L 295.782755 167.275513 
L 295.933127 167.244111 
L 296.0835 166.723878 
L 296.233873 166.647609 
L 296.384245 166.69649 
L 296.684991 166.369967 
L 296.835363 166.666656 
L 296.985736 166.544613 
L 297.286481 166.80544 
L 297.587226 166.638765 
L 297.737599 167.430301 
L 297.887972 167.508098 
L 298.188717 167.114472 
L 298.33909 166.574995 
L 298.489462 166.669602 
L 298.790208 166.647861 
L 298.94058 166.829653 
L 299.090953 167.281988 
L 299.241326 166.891832 
L 299.542071 167.022298 
L 299.692443 166.794012 
L 299.842816 167.136527 
L 299.993189 167.173977 
L 300.143561 167.416602 
L 300.293934 167.366319 
L 300.594679 167.471605 
L 300.895425 167.23373 
L 301.346543 167.610757 
L 301.647288 167.717068 
L 301.797661 168.044498 
L 302.248778 167.96511 
L 302.399151 167.782911 
L 303.000642 168.163828 
L 303.151014 168.049544 
L 303.301387 167.786971 
L 303.45176 167.856185 
L 303.602132 167.682502 
L 303.752505 167.7745 
L 303.902878 167.702921 
L 304.05325 167.337066 
L 304.353996 167.662986 
L 304.504368 167.502876 
L 304.805113 167.575877 
L 304.955486 167.478501 
L 305.256231 167.786131 
L 305.556977 167.67643 
L 305.857722 167.594502 
L 306.008095 167.64842 
L 306.158467 167.829982 
L 306.30884 167.552445 
L 306.609585 167.801495 
L 306.910331 167.533253 
L 307.211076 167.65452 
L 307.361448 167.536207 
L 307.511821 167.807045 
L 307.662194 167.394046 
L 308.113312 167.064038 
L 308.263684 166.582439 
L 308.414057 166.763435 
L 308.56443 166.544945 
L 309.015548 166.844779 
L 309.16592 167.048691 
L 309.316293 166.879278 
L 309.466666 166.987332 
L 309.617038 166.814219 
L 309.767411 167.068833 
L 309.917783 166.905511 
L 310.218529 167.114965 
L 310.368901 166.966302 
L 310.669647 167.093005 
L 311.120765 167.135062 
L 311.271137 167.25639 
L 311.42151 167.584016 
L 311.571883 167.601874 
L 311.722255 167.301932 
L 311.872628 167.48304 
L 312.173373 167.502999 
L 312.323746 167.569215 
L 312.474118 167.78139 
L 312.925236 167.573834 
L 313.376354 167.156839 
L 313.526727 166.65987 
L 313.6771 166.68305 
L 313.827472 166.853778 
L 313.977845 166.591701 
L 314.128218 166.67769 
L 314.27859 166.555986 
L 314.579336 166.830679 
L 314.729708 166.918396 
L 314.880081 166.827761 
L 315.180826 167.040814 
L 315.481571 167.070723 
L 316.233435 167.068959 
L 316.53418 167.190293 
L 316.834925 167.458047 
L 317.286043 167.764065 
L 317.586788 167.699214 
L 317.887534 167.501352 
L 318.188279 167.720999 
L 318.639397 167.759453 
L 318.940142 168.137436 
L 319.992751 167.95731 
L 320.293496 168.341461 
L 320.744614 168.323535 
L 321.346105 168.315634 
L 321.496477 168.440183 
L 321.797223 168.433028 
L 321.947595 168.511362 
L 322.097968 168.433033 
L 322.549086 168.562746 
L 323.451322 168.619666 
L 323.601694 168.324453 
L 324.203185 168.588206 
L 324.50393 168.624163 
L 324.804676 168.481113 
L 324.955048 168.435079 
L 325.255794 168.579218 
L 325.556539 168.681687 
L 326.308402 168.537646 
L 327.060265 168.96731 
L 327.210638 169.012871 
L 327.361011 168.742599 
L 328.263246 168.827662 
L 328.563992 168.734348 
L 328.864737 168.870588 
L 329.165482 168.795474 
L 329.6166 168.911259 
L 330.819581 169.097844 
L 331.270699 169.064644 
L 331.571445 169.024092 
L 331.87219 169.112845 
L 332.473681 169.10878 
L 333.526289 169.265023 
L 333.827034 169.556076 
L 333.977407 169.518994 
L 334.428525 169.666492 
L 335.030016 169.72589 
L 335.330761 169.933181 
L 335.631506 169.854072 
L 335.932251 169.264416 
L 336.082624 169.546068 
L 336.533742 169.645295 
L 336.834487 169.822436 
L 338.187841 169.923542 
L 339.992313 170.211671 
L 340.293058 170.243244 
L 340.894549 170.302751 
L 341.195294 170.468969 
L 341.646412 170.498151 
L 342.548648 170.742059 
L 343.751629 170.903744 
L 345.556101 171.639096 
L 345.856846 171.976658 
L 346.608709 172.030267 
L 346.759082 172.257051 
L 347.360573 172.332839 
L 347.661318 172.490081 
L 348.413181 172.733476 
L 348.713926 172.885829 
L 349.616162 172.930651 
L 349.916908 172.732195 
L 350.518398 172.786413 
L 350.668771 173.050455 
L 350.819144 172.908468 
L 351.119889 172.966497 
L 351.270261 172.879055 
L 351.420634 172.920264 
L 352.022125 172.704423 
L 352.773988 172.818065 
L 352.924361 172.794863 
L 353.225106 172.654966 
L 353.676224 172.650806 
L 353.826596 172.598932 
L 354.127342 172.398641 
L 354.277714 172.470015 
L 354.728832 172.945936 
L 354.879205 172.853221 
L 355.029578 172.92032 
L 355.17995 173.240856 
L 355.330323 173.102195 
L 355.480696 173.194206 
L 355.931814 173.038725 
L 356.082186 173.161107 
L 356.382931 172.982605 
L 356.533304 173.039528 
L 356.834049 172.880813 
L 356.984422 172.986851 
L 357.134795 172.849113 
L 357.285167 172.936645 
L 357.736285 172.751831 
L 358.037031 172.760869 
L 358.638521 172.681555 
L 358.939266 172.924287 
L 359.240012 172.811471 
L 359.69113 172.854526 
L 359.841502 172.77344 
L 359.991875 172.959633 
L 360.29262 172.704868 
L 360.442993 172.598429 
L 360.743738 172.721299 
L 360.894111 172.713344 
L 361.345229 173.02366 
L 362.097092 172.855812 
L 362.54821 172.958513 
L 362.999328 172.695002 
L 363.300073 172.711016 
L 363.600819 172.611798 
L 365.254918 172.631782 
L 365.555663 172.487691 
L 365.856408 172.489073 
L 366.006781 172.637792 
L 366.608272 172.441766 
L 366.909017 172.471196 
L 367.059389 172.468313 
L 367.209762 172.278585 
L 367.360135 172.509746 
L 367.510507 172.379835 
L 367.811253 172.404124 
L 368.111998 172.320439 
L 368.412743 172.328491 
L 368.563116 172.230897 
L 369.014234 172.366337 
L 369.314979 172.352337 
L 369.615724 172.726681 
L 369.766097 172.654475 
L 369.91647 172.723706 
L 370.367588 172.54109 
L 370.51796 172.607708 
L 370.668333 172.440632 
L 370.969078 172.538172 
L 371.269824 172.553404 
L 371.420196 172.709199 
L 372.021687 172.688366 
L 372.472805 172.757066 
L 372.923923 172.879395 
L 373.074295 172.69249 
L 374.427649 172.627008 
L 374.578022 172.501005 
L 375.781003 172.666254 
L 376.081748 172.621417 
L 377.88622 172.599127 
L 378.036593 172.534835 
L 378.337338 172.197471 
L 379.089201 172.376156 
L 379.841064 172.370472 
L 379.991437 172.599231 
L 380.14181 172.554902 
L 380.292182 172.381889 
L 381.194418 172.471344 
L 381.344791 172.547746 
L 381.946282 172.323692 
L 382.397399 172.464943 
L 382.99889 172.472893 
L 383.299635 172.521277 
L 383.600381 172.475557 
L 385.404852 172.642392 
L 385.555225 172.59009 
L 385.85597 172.669055 
L 386.908579 172.780483 
L 387.058952 172.844342 
L 387.209324 173.030609 
L 387.660442 173.005952 
L 387.961187 173.112251 
L 388.11156 173.09041 
L 388.261933 173.533082 
L 388.713051 173.607869 
L 389.013796 173.566243 
L 389.615287 173.719181 
L 389.916032 173.618932 
L 390.066404 173.717385 
L 390.36715 173.614929 
L 390.667895 173.617083 
L 390.96864 173.856618 
L 391.419758 173.626946 
L 391.570131 173.444801 
L 391.720504 173.790578 
L 391.870876 173.56813 
L 392.472367 173.799099 
L 392.622739 173.618627 
L 392.773112 173.884982 
L 393.976093 173.912024 
L 394.577584 174.672783 
L 394.727957 174.979446 
L 395.028702 174.815171 
L 395.179074 174.914052 
L 395.329447 174.792898 
L 395.47982 174.821672 
L 395.630192 174.41763 
L 395.780565 174.472918 
L 395.930938 174.731115 
L 396.08131 174.72187 
L 396.231683 174.519939 
L 396.382056 174.526739 
L 396.532428 174.393834 
L 396.682801 174.542673 
L 396.833174 174.480048 
L 397.133919 174.663083 
L 397.434664 174.663207 
L 397.585037 174.56383 
L 397.735409 174.615916 
L 397.885782 174.464759 
L 398.036155 174.626773 
L 398.3369 174.512628 
L 398.487273 174.528 
L 398.487273 174.528 
" clip-path="url(#pfa19e997fb)" style="fill: none; stroke: #2ca02c; stroke-opacity: 0.7; stroke-width: 1.5; stroke-linecap: square"/>
   </g>
   <g id="patch_3">
    <path d="M 57.6 307.584 
L 57.6 41.472 
" style="fill: none; stroke: #000000; stroke-width: 0.8; stroke-linejoin: miter; stroke-linecap: square"/>
   </g>
   <g id="patch_4">
    <path d="M 414.72 307.584 
L 414.72 41.472 
" style="fill: none; stroke: #000000; stroke-width: 0.8; stroke-linejoin: miter; stroke-linecap: square"/>
   </g>
   <g id="patch_5">
    <path d="M 57.6 307.584 
L 414.72 307.584 
" style="fill: none; stroke: #000000; stroke-width: 0.8; stroke-linejoin: miter; stroke-linecap: square"/>
   </g>
   <g id="patch_6">
    <path d="M 57.6 41.472 
L 414.72 41.472 
" style="fill: none; stroke: #000000; stroke-width: 0.8; stroke-linejoin: miter; stroke-linecap: square"/>
   </g>
   <g id="text_15">
    <!-- 1final_naive_jc_btcusd -->
    <g transform="translate(168.864375 35.472) scale(0.12 -0.12)">
     <defs>
      <path id="DejaVuSans-66" d="M 2375 4863 
L 2375 4384 
L 1825 4384 
Q 1516 4384 1395 4259 
Q 1275 4134 1275 3809 
L 1275 3500 
L 2222 3500 
L 2222 3053 
L 1275 3053 
L 1275 0 
L 697 0 
L 697 3053 
L 147 3053 
L 147 3500 
L 697 3500 
L 697 3744 
Q 697 4328 969 4595 
Q 1241 4863 1831 4863 
L 2375 4863 
z
" transform="scale(0.015625)"/>
      <path id="DejaVuSans-69" d="M 603 3500 
L 1178 3500 
L 1178 0 
L 603 0 
L 603 3500 
z
M 603 4863 
L 1178 4863 
L 1178 4134 
L 603 4134 
L 603 4863 
z
" transform="scale(0.015625)"/>
      <path id="DejaVuSans-6e" d="M 3513 2113 
L 3513 0 
L 2938 0 
L 2938 2094 
Q 2938 2591 2744 2837 
Q 2550 3084 2163 3084 
Q 1697 3084 1428 2787 
Q 1159 2491 1159 1978 
L 1159 0 
L 581 0 
L 581 3500 
L 1159 3500 
L 1159 2956 
Q 1366 3272 1645 3428 
Q 1925 3584 2291 3584 
Q 2894 3584 3203 3211 
Q 3513 2838 3513 2113 
z
" transform="scale(0.015625)"/>
      <path id="DejaVuSans-61" d="M 2194 1759 
Q 1497 1759 1228 1600 
Q 959 1441 959 1056 
Q 959 750 1161 570 
Q 1363 391 1709 391 
Q 2188 391 2477 730 
Q 2766 1069 2766 1631 
L 2766 1759 
L 2194 1759 
z
M 3341 1997 
L 3341 0 
L 2766 0 
L 2766 531 
Q 2569 213 2275 61 
Q 1981 -91 1556 -91 
Q 1019 -91 701 211 
Q 384 513 384 1019 
Q 384 1609 779 1909 
Q 1175 2209 1959 2209 
L 2766 2209 
L 2766 2266 
Q 2766 2663 2505 2880 
Q 2244 3097 1772 3097 
Q 1472 3097 1187 3025 
Q 903 2953 641 2809 
L 641 3341 
Q 956 3463 1253 3523 
Q 1550 3584 1831 3584 
Q 2591 3584 2966 3190 
Q 3341 2797 3341 1997 
z
" transform="scale(0.015625)"/>
      <path id="DejaVuSans-6c" d="M 603 4863 
L 1178 4863 
L 1178 0 
L 603 0 
L 603 4863 
z
" transform="scale(0.015625)"/>
      <path id="DejaVuSans-5f" d="M 3263 -1063 
L 3263 -1509 
L -63 -1509 
L -63 -1063 
L 3263 -1063 
z
" transform="scale(0.015625)"/>
      <path id="DejaVuSans-76" d="M 191 3500 
L 800 3500 
L 1894 563 
L 2988 3500 
L 3597 3500 
L 2284 0 
L 1503 0 
L 191 3500 
z
" transform="scale(0.015625)"/>
      <path id="DejaVuSans-6a" d="M 603 3500 
L 1178 3500 
L 1178 -63 
Q 1178 -731 923 -1031 
Q 669 -1331 103 -1331 
L -116 -1331 
L -116 -844 
L 38 -844 
Q 366 -844 484 -692 
Q 603 -541 603 -63 
L 603 3500 
z
M 603 4863 
L 1178 4863 
L 1178 4134 
L 603 4134 
L 603 4863 
z
" transform="scale(0.015625)"/>
      <path id="DejaVuSans-63" d="M 3122 3366 
L 3122 2828 
Q 2878 2963 2633 3030 
Q 2388 3097 2138 3097 
Q 1578 3097 1268 2742 
Q 959 2388 959 1747 
Q 959 1106 1268 751 
Q 1578 397 2138 397 
Q 2388 397 2633 464 
Q 2878 531 3122 666 
L 3122 134 
Q 2881 22 2623 -34 
Q 2366 -91 2075 -91 
Q 1284 -91 818 406 
Q 353 903 353 1747 
Q 353 2603 823 3093 
Q 1294 3584 2113 3584 
Q 2378 3584 2631 3529 
Q 2884 3475 3122 3366 
z
" transform="scale(0.015625)"/>
      <path id="DejaVuSans-62" d="M 3116 1747 
Q 3116 2381 2855 2742 
Q 2594 3103 2138 3103 
Q 1681 3103 1420 2742 
Q 1159 2381 1159 1747 
Q 1159 1113 1420 752 
Q 1681 391 2138 391 
Q 2594 391 2855 752 
Q 3116 1113 3116 1747 
z
M 1159 2969 
Q 1341 3281 1617 3432 
Q 1894 3584 2278 3584 
Q 2916 3584 3314 3078 
Q 3713 2572 3713 1747 
Q 3713 922 3314 415 
Q 2916 -91 2278 -91 
Q 1894 -91 1617 61 
Q 1341 213 1159 525 
L 1159 0 
L 581 0 
L 581 4863 
L 1159 4863 
L 1159 2969 
z
" transform="scale(0.015625)"/>
      <path id="DejaVuSans-74" d="M 1172 4494 
L 1172 3500 
L 2356 3500 
L 2356 3053 
L 1172 3053 
L 1172 1153 
Q 1172 725 1289 603 
Q 1406 481 1766 481 
L 2356 481 
L 2356 0 
L 1766 0 
Q 1100 0 847 248 
Q 594 497 594 1153 
L 594 3053 
L 172 3053 
L 172 3500 
L 594 3500 
L 594 4494 
L 1172 4494 
z
" transform="scale(0.015625)"/>
      <path id="DejaVuSans-75" d="M 544 1381 
L 544 3500 
L 1119 3500 
L 1119 1403 
Q 1119 906 1312 657 
Q 1506 409 1894 409 
Q 2359 409 2629 706 
Q 2900 1003 2900 1516 
L 2900 3500 
L 3475 3500 
L 3475 0 
L 2900 0 
L 2900 538 
Q 2691 219 2414 64 
Q 2138 -91 1772 -91 
Q 1169 -91 856 284 
Q 544 659 544 1381 
z
M 1991 3584 
L 1991 3584 
z
" transform="scale(0.015625)"/>
      <path id="DejaVuSans-73" d="M 2834 3397 
L 2834 2853 
Q 2591 2978 2328 3040 
Q 2066 3103 1784 3103 
Q 1356 3103 1142 2972 
Q 928 2841 928 2578 
Q 928 2378 1081 2264 
Q 1234 2150 1697 2047 
L 1894 2003 
Q 2506 1872 2764 1633 
Q 3022 1394 3022 966 
Q 3022 478 2636 193 
Q 2250 -91 1575 -91 
Q 1294 -91 989 -36 
Q 684 19 347 128 
L 347 722 
Q 666 556 975 473 
Q 1284 391 1588 391 
Q 1994 391 2212 530 
Q 2431 669 2431 922 
Q 2431 1156 2273 1281 
Q 2116 1406 1581 1522 
L 1381 1569 
Q 847 1681 609 1914 
Q 372 2147 372 2553 
Q 372 3047 722 3315 
Q 1072 3584 1716 3584 
Q 2034 3584 2315 3537 
Q 2597 3491 2834 3397 
z
" transform="scale(0.015625)"/>
      <path id="DejaVuSans-64" d="M 2906 2969 
L 2906 4863 
L 3481 4863 
L 3481 0 
L 2906 0 
L 2906 525 
Q 2725 213 2448 61 
Q 2172 -91 1784 -91 
Q 1150 -91 751 415 
Q 353 922 353 1747 
Q 353 2572 751 3078 
Q 1150 3584 1784 3584 
Q 2172 3584 2448 3432 
Q 2725 3281 2906 2969 
z
M 947 1747 
Q 947 1113 1208 752 
Q 1469 391 1925 391 
Q 2381 391 2643 752 
Q 2906 1113 2906 1747 
Q 2906 2381 2643 2742 
Q 2381 3103 1925 3103 
Q 1469 3103 1208 2742 
Q 947 2381 947 1747 
z
" transform="scale(0.015625)"/>
     </defs>
     <use xlink:href="#DejaVuSans-31"/>
     <use xlink:href="#DejaVuSans-66" x="63.623047"/>
     <use xlink:href="#DejaVuSans-69" x="98.828125"/>
     <use xlink:href="#DejaVuSans-6e" x="126.611328"/>
     <use xlink:href="#DejaVuSans-61" x="189.990234"/>
     <use xlink:href="#DejaVuSans-6c" x="251.269531"/>
     <use xlink:href="#DejaVuSans-5f" x="279.052734"/>
     <use xlink:href="#DejaVuSans-6e" x="329.052734"/>
     <use xlink:href="#DejaVuSans-61" x="392.431641"/>
     <use xlink:href="#DejaVuSans-69" x="453.710938"/>
     <use xlink:href="#DejaVuSans-76" x="481.494141"/>
     <use xlink:href="#DejaVuSans-65" x="540.673828"/>
     <use xlink:href="#DejaVuSans-5f" x="602.197266"/>
     <use xlink:href="#DejaVuSans-6a" x="652.197266"/>
     <use xlink:href="#DejaVuSans-63" x="679.980469"/>
     <use xlink:href="#DejaVuSans-5f" x="734.960938"/>
     <use xlink:href="#DejaVuSans-62" x="784.960938"/>
     <use xlink:href="#DejaVuSans-74" x="848.4375"/>
     <use xlink:href="#DejaVuSans-63" x="887.646484"/>
     <use xlink:href="#DejaVuSans-75" x="942.626953"/>
     <use xlink:href="#DejaVuSans-73" x="1006.005859"/>
     <use xlink:href="#DejaVuSans-64" x="1058.105469"/>
    </g>
   </g>
   <g id="legend_1">
    <g id="patch_7">
     <path d="M 64.6 93.506375 
L 258.804688 93.506375 
Q 260.804688 93.506375 260.804688 91.506375 
L 260.804688 48.472 
Q 260.804688 46.472 258.804688 46.472 
L 64.6 46.472 
Q 62.6 46.472 62.6 48.472 
L 62.6 91.506375 
Q 62.6 93.506375 64.6 93.506375 
z
" style="fill: #ffffff; opacity: 0.8; stroke: #cccccc; stroke-linejoin: miter"/>
    </g>
    <g id="line2d_17">
     <path d="M 66.6 54.570438 
L 76.6 54.570438 
L 86.6 54.570438 
" style="fill: none; stroke: #1f77b4; stroke-opacity: 0.7; stroke-width: 1.5; stroke-linecap: square"/>
    </g>
    <g id="text_16">
     <!-- Positive cumulative predictions -->
     <g transform="translate(94.6 58.070438) scale(0.1 -0.1)">
      <defs>
       <path id="DejaVuSans-50" d="M 1259 4147 
L 1259 2394 
L 2053 2394 
Q 2494 2394 2734 2622 
Q 2975 2850 2975 3272 
Q 2975 3691 2734 3919 
Q 2494 4147 2053 4147 
L 1259 4147 
z
M 628 4666 
L 2053 4666 
Q 2838 4666 3239 4311 
Q 3641 3956 3641 3272 
Q 3641 2581 3239 2228 
Q 2838 1875 2053 1875 
L 1259 1875 
L 1259 0 
L 628 0 
L 628 4666 
z
" transform="scale(0.015625)"/>
       <path id="DejaVuSans-6f" d="M 1959 3097 
Q 1497 3097 1228 2736 
Q 959 2375 959 1747 
Q 959 1119 1226 758 
Q 1494 397 1959 397 
Q 2419 397 2687 759 
Q 2956 1122 2956 1747 
Q 2956 2369 2687 2733 
Q 2419 3097 1959 3097 
z
M 1959 3584 
Q 2709 3584 3137 3096 
Q 3566 2609 3566 1747 
Q 3566 888 3137 398 
Q 2709 -91 1959 -91 
Q 1206 -91 779 398 
Q 353 888 353 1747 
Q 353 2609 779 3096 
Q 1206 3584 1959 3584 
z
" transform="scale(0.015625)"/>
       <path id="DejaVuSans-20" transform="scale(0.015625)"/>
       <path id="DejaVuSans-6d" d="M 3328 2828 
Q 3544 3216 3844 3400 
Q 4144 3584 4550 3584 
Q 5097 3584 5394 3201 
Q 5691 2819 5691 2113 
L 5691 0 
L 5113 0 
L 5113 2094 
Q 5113 2597 4934 2840 
Q 4756 3084 4391 3084 
Q 3944 3084 3684 2787 
Q 3425 2491 3425 1978 
L 3425 0 
L 2847 0 
L 2847 2094 
Q 2847 2600 2669 2842 
Q 2491 3084 2119 3084 
Q 1678 3084 1418 2786 
Q 1159 2488 1159 1978 
L 1159 0 
L 581 0 
L 581 3500 
L 1159 3500 
L 1159 2956 
Q 1356 3278 1631 3431 
Q 1906 3584 2284 3584 
Q 2666 3584 2933 3390 
Q 3200 3197 3328 2828 
z
" transform="scale(0.015625)"/>
       <path id="DejaVuSans-70" d="M 1159 525 
L 1159 -1331 
L 581 -1331 
L 581 3500 
L 1159 3500 
L 1159 2969 
Q 1341 3281 1617 3432 
Q 1894 3584 2278 3584 
Q 2916 3584 3314 3078 
Q 3713 2572 3713 1747 
Q 3713 922 3314 415 
Q 2916 -91 2278 -91 
Q 1894 -91 1617 61 
Q 1341 213 1159 525 
z
M 3116 1747 
Q 3116 2381 2855 2742 
Q 2594 3103 2138 3103 
Q 1681 3103 1420 2742 
Q 1159 2381 1159 1747 
Q 1159 1113 1420 752 
Q 1681 391 2138 391 
Q 2594 391 2855 752 
Q 3116 1113 3116 1747 
z
" transform="scale(0.015625)"/>
       <path id="DejaVuSans-72" d="M 2631 2963 
Q 2534 3019 2420 3045 
Q 2306 3072 2169 3072 
Q 1681 3072 1420 2755 
Q 1159 2438 1159 1844 
L 1159 0 
L 581 0 
L 581 3500 
L 1159 3500 
L 1159 2956 
Q 1341 3275 1631 3429 
Q 1922 3584 2338 3584 
Q 2397 3584 2469 3576 
Q 2541 3569 2628 3553 
L 2631 2963 
z
" transform="scale(0.015625)"/>
      </defs>
      <use xlink:href="#DejaVuSans-50"/>
      <use xlink:href="#DejaVuSans-6f" x="56.677734"/>
      <use xlink:href="#DejaVuSans-73" x="117.859375"/>
      <use xlink:href="#DejaVuSans-69" x="169.958984"/>
      <use xlink:href="#DejaVuSans-74" x="197.742188"/>
      <use xlink:href="#DejaVuSans-69" x="236.951172"/>
      <use xlink:href="#DejaVuSans-76" x="264.734375"/>
      <use xlink:href="#DejaVuSans-65" x="323.914062"/>
      <use xlink:href="#DejaVuSans-20" x="385.4375"/>
      <use xlink:href="#DejaVuSans-63" x="417.224609"/>
      <use xlink:href="#DejaVuSans-75" x="472.205078"/>
      <use xlink:href="#DejaVuSans-6d" x="535.583984"/>
      <use xlink:href="#DejaVuSans-75" x="632.996094"/>
      <use xlink:href="#DejaVuSans-6c" x="696.375"/>
      <use xlink:href="#DejaVuSans-61" x="724.158203"/>
      <use xlink:href="#DejaVuSans-74" x="785.4375"/>
      <use xlink:href="#DejaVuSans-69" x="824.646484"/>
      <use xlink:href="#DejaVuSans-76" x="852.429688"/>
      <use xlink:href="#DejaVuSans-65" x="911.609375"/>
      <use xlink:href="#DejaVuSans-20" x="973.132812"/>
      <use xlink:href="#DejaVuSans-70" x="1004.919922"/>
      <use xlink:href="#DejaVuSans-72" x="1068.396484"/>
      <use xlink:href="#DejaVuSans-65" x="1107.259766"/>
      <use xlink:href="#DejaVuSans-64" x="1168.783203"/>
      <use xlink:href="#DejaVuSans-69" x="1232.259766"/>
      <use xlink:href="#DejaVuSans-63" x="1260.042969"/>
      <use xlink:href="#DejaVuSans-74" x="1315.023438"/>
      <use xlink:href="#DejaVuSans-69" x="1354.232422"/>
      <use xlink:href="#DejaVuSans-6f" x="1382.015625"/>
      <use xlink:href="#DejaVuSans-6e" x="1443.197266"/>
      <use xlink:href="#DejaVuSans-73" x="1506.576172"/>
     </g>
    </g>
    <g id="line2d_18">
     <path d="M 66.6 69.248563 
L 76.6 69.248563 
L 86.6 69.248563 
" style="fill: none; stroke: #ff7f0e; stroke-opacity: 0.7; stroke-width: 1.5; stroke-linecap: square"/>
    </g>
    <g id="text_17">
     <!-- Negative cumulative predictions -->
     <g transform="translate(94.6 72.748563) scale(0.1 -0.1)">
      <defs>
       <path id="DejaVuSans-4e" d="M 628 4666 
L 1478 4666 
L 3547 763 
L 3547 4666 
L 4159 4666 
L 4159 0 
L 3309 0 
L 1241 3903 
L 1241 0 
L 628 0 
L 628 4666 
z
" transform="scale(0.015625)"/>
       <path id="DejaVuSans-67" d="M 2906 1791 
Q 2906 2416 2648 2759 
Q 2391 3103 1925 3103 
Q 1463 3103 1205 2759 
Q 947 2416 947 1791 
Q 947 1169 1205 825 
Q 1463 481 1925 481 
Q 2391 481 2648 825 
Q 2906 1169 2906 1791 
z
M 3481 434 
Q 3481 -459 3084 -895 
Q 2688 -1331 1869 -1331 
Q 1566 -1331 1297 -1286 
Q 1028 -1241 775 -1147 
L 775 -588 
Q 1028 -725 1275 -790 
Q 1522 -856 1778 -856 
Q 2344 -856 2625 -561 
Q 2906 -266 2906 331 
L 2906 616 
Q 2728 306 2450 153 
Q 2172 0 1784 0 
Q 1141 0 747 490 
Q 353 981 353 1791 
Q 353 2603 747 3093 
Q 1141 3584 1784 3584 
Q 2172 3584 2450 3431 
Q 2728 3278 2906 2969 
L 2906 3500 
L 3481 3500 
L 3481 434 
z
" transform="scale(0.015625)"/>
      </defs>
      <use xlink:href="#DejaVuSans-4e"/>
      <use xlink:href="#DejaVuSans-65" x="74.804688"/>
      <use xlink:href="#DejaVuSans-67" x="136.328125"/>
      <use xlink:href="#DejaVuSans-61" x="199.804688"/>
      <use xlink:href="#DejaVuSans-74" x="261.083984"/>
      <use xlink:href="#DejaVuSans-69" x="300.292969"/>
      <use xlink:href="#DejaVuSans-76" x="328.076172"/>
      <use xlink:href="#DejaVuSans-65" x="387.255859"/>
      <use xlink:href="#DejaVuSans-20" x="448.779297"/>
      <use xlink:href="#DejaVuSans-63" x="480.566406"/>
      <use xlink:href="#DejaVuSans-75" x="535.546875"/>
      <use xlink:href="#DejaVuSans-6d" x="598.925781"/>
      <use xlink:href="#DejaVuSans-75" x="696.337891"/>
      <use xlink:href="#DejaVuSans-6c" x="759.716797"/>
      <use xlink:href="#DejaVuSans-61" x="787.5"/>
      <use xlink:href="#DejaVuSans-74" x="848.779297"/>
      <use xlink:href="#DejaVuSans-69" x="887.988281"/>
      <use xlink:href="#DejaVuSans-76" x="915.771484"/>
      <use xlink:href="#DejaVuSans-65" x="974.951172"/>
      <use xlink:href="#DejaVuSans-20" x="1036.474609"/>
      <use xlink:href="#DejaVuSans-70" x="1068.261719"/>
      <use xlink:href="#DejaVuSans-72" x="1131.738281"/>
      <use xlink:href="#DejaVuSans-65" x="1170.601562"/>
      <use xlink:href="#DejaVuSans-64" x="1232.125"/>
      <use xlink:href="#DejaVuSans-69" x="1295.601562"/>
      <use xlink:href="#DejaVuSans-63" x="1323.384766"/>
      <use xlink:href="#DejaVuSans-74" x="1378.365234"/>
      <use xlink:href="#DejaVuSans-69" x="1417.574219"/>
      <use xlink:href="#DejaVuSans-6f" x="1445.357422"/>
      <use xlink:href="#DejaVuSans-6e" x="1506.539062"/>
      <use xlink:href="#DejaVuSans-73" x="1569.917969"/>
     </g>
    </g>
    <g id="line2d_19">
     <path d="M 66.6 83.926688 
L 76.6 83.926688 
L 86.6 83.926688 
" style="fill: none; stroke: #2ca02c; stroke-opacity: 0.7; stroke-width: 1.5; stroke-linecap: square"/>
    </g>
    <g id="text_18">
     <!-- Average cumulative predictions -->
     <g transform="translate(94.6 87.426688) scale(0.1 -0.1)">
      <defs>
       <path id="DejaVuSans-41" d="M 2188 4044 
L 1331 1722 
L 3047 1722 
L 2188 4044 
z
M 1831 4666 
L 2547 4666 
L 4325 0 
L 3669 0 
L 3244 1197 
L 1141 1197 
L 716 0 
L 50 0 
L 1831 4666 
z
" transform="scale(0.015625)"/>
      </defs>
      <use xlink:href="#DejaVuSans-41"/>
      <use xlink:href="#DejaVuSans-76" x="62.533203"/>
      <use xlink:href="#DejaVuSans-65" x="121.712891"/>
      <use xlink:href="#DejaVuSans-72" x="183.236328"/>
      <use xlink:href="#DejaVuSans-61" x="224.349609"/>
      <use xlink:href="#DejaVuSans-67" x="285.628906"/>
      <use xlink:href="#DejaVuSans-65" x="349.105469"/>
      <use xlink:href="#DejaVuSans-20" x="410.628906"/>
      <use xlink:href="#DejaVuSans-63" x="442.416016"/>
      <use xlink:href="#DejaVuSans-75" x="497.396484"/>
      <use xlink:href="#DejaVuSans-6d" x="560.775391"/>
      <use xlink:href="#DejaVuSans-75" x="658.1875"/>
      <use xlink:href="#DejaVuSans-6c" x="721.566406"/>
      <use xlink:href="#DejaVuSans-61" x="749.349609"/>
      <use xlink:href="#DejaVuSans-74" x="810.628906"/>
      <use xlink:href="#DejaVuSans-69" x="849.837891"/>
      <use xlink:href="#DejaVuSans-76" x="877.621094"/>
      <use xlink:href="#DejaVuSans-65" x="936.800781"/>
      <use xlink:href="#DejaVuSans-20" x="998.324219"/>
      <use xlink:href="#DejaVuSans-70" x="1030.111328"/>
      <use xlink:href="#DejaVuSans-72" x="1093.587891"/>
      <use xlink:href="#DejaVuSans-65" x="1132.451172"/>
      <use xlink:href="#DejaVuSans-64" x="1193.974609"/>
      <use xlink:href="#DejaVuSans-69" x="1257.451172"/>
      <use xlink:href="#DejaVuSans-63" x="1285.234375"/>
      <use xlink:href="#DejaVuSans-74" x="1340.214844"/>
      <use xlink:href="#DejaVuSans-69" x="1379.423828"/>
      <use xlink:href="#DejaVuSans-6f" x="1407.207031"/>
      <use xlink:href="#DejaVuSans-6e" x="1468.388672"/>
      <use xlink:href="#DejaVuSans-73" x="1531.767578"/>
     </g>
    </g>
   </g>
  </g>
 </g>
 <defs>
  <clipPath id="pfa19e997fb">
   <rect x="57.6" y="41.472" width="357.12" height="266.112"/>
  </clipPath>
 </defs>
</svg>
