<?xml version="1.0" encoding="utf-8" standalone="no"?>
<!DOCTYPE svg PUBLIC "-//W3C//DTD SVG 1.1//EN"
  "http://www.w3.org/Graphics/SVG/1.1/DTD/svg11.dtd">
<svg xmlns:xlink="http://www.w3.org/1999/xlink" width="460.8pt" height="345.6pt" viewBox="0 0 460.8 345.6" xmlns="http://www.w3.org/2000/svg" version="1.1">
 <metadata>
  <rdf:RDF xmlns:dc="http://purl.org/dc/elements/1.1/" xmlns:cc="http://creativecommons.org/ns#" xmlns:rdf="http://www.w3.org/1999/02/22-rdf-syntax-ns#">
   <cc:Work>
    <dc:type rdf:resource="http://purl.org/dc/dcmitype/StillImage"/>
    <dc:date>2024-09-08T13:30:57.138131</dc:date>
    <dc:format>image/svg+xml</dc:format>
    <dc:creator>
     <cc:Agent>
      <dc:title>Matplotlib v3.8.3, https://matplotlib.org/</dc:title>
     </cc:Agent>
    </dc:creator>
   </cc:Work>
  </rdf:RDF>
 </metadata>
 <defs>
  <style type="text/css">*{stroke-linejoin: round; stroke-linecap: butt}</style>
 </defs>
 <g id="figure_1">
  <g id="patch_1">
   <path d="M 0 345.6 
L 460.8 345.6 
L 460.8 0 
L 0 0 
z
" style="fill: #ffffff"/>
  </g>
  <g id="axes_1">
   <g id="patch_2">
    <path d="M 57.6 307.584 
L 414.72 307.584 
L 414.72 41.472 
L 57.6 41.472 
z
" style="fill: #ffffff"/>
   </g>
   <g id="matplotlib.axis_1">
    <g id="xtick_1">
     <g id="line2d_1">
      <defs>
       <path id="mbb3925f6a3" d="M 0 0 
L 0 3.5 
" style="stroke: #000000; stroke-width: 0.8"/>
      </defs>
      <g>
       <use xlink:href="#mbb3925f6a3" x="73.832727" y="307.584" style="stroke: #000000; stroke-width: 0.8"/>
      </g>
     </g>
     <g id="text_1">
      <!-- 0 -->
      <g transform="translate(70.651477 322.182437) scale(0.1 -0.1)">
       <defs>
        <path id="DejaVuSans-30" d="M 2034 4250 
Q 1547 4250 1301 3770 
Q 1056 3291 1056 2328 
Q 1056 1369 1301 889 
Q 1547 409 2034 409 
Q 2525 409 2770 889 
Q 3016 1369 3016 2328 
Q 3016 3291 2770 3770 
Q 2525 4250 2034 4250 
z
M 2034 4750 
Q 2819 4750 3233 4129 
Q 3647 3509 3647 2328 
Q 3647 1150 3233 529 
Q 2819 -91 2034 -91 
Q 1250 -91 836 529 
Q 422 1150 422 2328 
Q 422 3509 836 4129 
Q 1250 4750 2034 4750 
z
" transform="scale(0.015625)"/>
       </defs>
       <use xlink:href="#DejaVuSans-30"/>
      </g>
     </g>
    </g>
    <g id="xtick_2">
     <g id="line2d_2">
      <g>
       <use xlink:href="#mbb3925f6a3" x="118.003414" y="307.584" style="stroke: #000000; stroke-width: 0.8"/>
      </g>
     </g>
     <g id="text_2">
      <!-- 20 -->
      <g transform="translate(111.640914 322.182437) scale(0.1 -0.1)">
       <defs>
        <path id="DejaVuSans-32" d="M 1228 531 
L 3431 531 
L 3431 0 
L 469 0 
L 469 531 
Q 828 903 1448 1529 
Q 2069 2156 2228 2338 
Q 2531 2678 2651 2914 
Q 2772 3150 2772 3378 
Q 2772 3750 2511 3984 
Q 2250 4219 1831 4219 
Q 1534 4219 1204 4116 
Q 875 4013 500 3803 
L 500 4441 
Q 881 4594 1212 4672 
Q 1544 4750 1819 4750 
Q 2544 4750 2975 4387 
Q 3406 4025 3406 3419 
Q 3406 3131 3298 2873 
Q 3191 2616 2906 2266 
Q 2828 2175 2409 1742 
Q 1991 1309 1228 531 
z
" transform="scale(0.015625)"/>
       </defs>
       <use xlink:href="#DejaVuSans-32"/>
       <use xlink:href="#DejaVuSans-30" x="63.623047"/>
      </g>
     </g>
    </g>
    <g id="xtick_3">
     <g id="line2d_3">
      <g>
       <use xlink:href="#mbb3925f6a3" x="162.1741" y="307.584" style="stroke: #000000; stroke-width: 0.8"/>
      </g>
     </g>
     <g id="text_3">
      <!-- 40 -->
      <g transform="translate(155.8116 322.182437) scale(0.1 -0.1)">
       <defs>
        <path id="DejaVuSans-34" d="M 2419 4116 
L 825 1625 
L 2419 1625 
L 2419 4116 
z
M 2253 4666 
L 3047 4666 
L 3047 1625 
L 3713 1625 
L 3713 1100 
L 3047 1100 
L 3047 0 
L 2419 0 
L 2419 1100 
L 313 1100 
L 313 1709 
L 2253 4666 
z
" transform="scale(0.015625)"/>
       </defs>
       <use xlink:href="#DejaVuSans-34"/>
       <use xlink:href="#DejaVuSans-30" x="63.623047"/>
      </g>
     </g>
    </g>
    <g id="xtick_4">
     <g id="line2d_4">
      <g>
       <use xlink:href="#mbb3925f6a3" x="206.344787" y="307.584" style="stroke: #000000; stroke-width: 0.8"/>
      </g>
     </g>
     <g id="text_4">
      <!-- 60 -->
      <g transform="translate(199.982287 322.182437) scale(0.1 -0.1)">
       <defs>
        <path id="DejaVuSans-36" d="M 2113 2584 
Q 1688 2584 1439 2293 
Q 1191 2003 1191 1497 
Q 1191 994 1439 701 
Q 1688 409 2113 409 
Q 2538 409 2786 701 
Q 3034 994 3034 1497 
Q 3034 2003 2786 2293 
Q 2538 2584 2113 2584 
z
M 3366 4563 
L 3366 3988 
Q 3128 4100 2886 4159 
Q 2644 4219 2406 4219 
Q 1781 4219 1451 3797 
Q 1122 3375 1075 2522 
Q 1259 2794 1537 2939 
Q 1816 3084 2150 3084 
Q 2853 3084 3261 2657 
Q 3669 2231 3669 1497 
Q 3669 778 3244 343 
Q 2819 -91 2113 -91 
Q 1303 -91 875 529 
Q 447 1150 447 2328 
Q 447 3434 972 4092 
Q 1497 4750 2381 4750 
Q 2619 4750 2861 4703 
Q 3103 4656 3366 4563 
z
" transform="scale(0.015625)"/>
       </defs>
       <use xlink:href="#DejaVuSans-36"/>
       <use xlink:href="#DejaVuSans-30" x="63.623047"/>
      </g>
     </g>
    </g>
    <g id="xtick_5">
     <g id="line2d_5">
      <g>
       <use xlink:href="#mbb3925f6a3" x="250.515473" y="307.584" style="stroke: #000000; stroke-width: 0.8"/>
      </g>
     </g>
     <g id="text_5">
      <!-- 80 -->
      <g transform="translate(244.152973 322.182437) scale(0.1 -0.1)">
       <defs>
        <path id="DejaVuSans-38" d="M 2034 2216 
Q 1584 2216 1326 1975 
Q 1069 1734 1069 1313 
Q 1069 891 1326 650 
Q 1584 409 2034 409 
Q 2484 409 2743 651 
Q 3003 894 3003 1313 
Q 3003 1734 2745 1975 
Q 2488 2216 2034 2216 
z
M 1403 2484 
Q 997 2584 770 2862 
Q 544 3141 544 3541 
Q 544 4100 942 4425 
Q 1341 4750 2034 4750 
Q 2731 4750 3128 4425 
Q 3525 4100 3525 3541 
Q 3525 3141 3298 2862 
Q 3072 2584 2669 2484 
Q 3125 2378 3379 2068 
Q 3634 1759 3634 1313 
Q 3634 634 3220 271 
Q 2806 -91 2034 -91 
Q 1263 -91 848 271 
Q 434 634 434 1313 
Q 434 1759 690 2068 
Q 947 2378 1403 2484 
z
M 1172 3481 
Q 1172 3119 1398 2916 
Q 1625 2713 2034 2713 
Q 2441 2713 2670 2916 
Q 2900 3119 2900 3481 
Q 2900 3844 2670 4047 
Q 2441 4250 2034 4250 
Q 1625 4250 1398 4047 
Q 1172 3844 1172 3481 
z
" transform="scale(0.015625)"/>
       </defs>
       <use xlink:href="#DejaVuSans-38"/>
       <use xlink:href="#DejaVuSans-30" x="63.623047"/>
      </g>
     </g>
    </g>
    <g id="xtick_6">
     <g id="line2d_6">
      <g>
       <use xlink:href="#mbb3925f6a3" x="294.68616" y="307.584" style="stroke: #000000; stroke-width: 0.8"/>
      </g>
     </g>
     <g id="text_6">
      <!-- 100 -->
      <g transform="translate(285.14241 322.182437) scale(0.1 -0.1)">
       <defs>
        <path id="DejaVuSans-31" d="M 794 531 
L 1825 531 
L 1825 4091 
L 703 3866 
L 703 4441 
L 1819 4666 
L 2450 4666 
L 2450 531 
L 3481 531 
L 3481 0 
L 794 0 
L 794 531 
z
" transform="scale(0.015625)"/>
       </defs>
       <use xlink:href="#DejaVuSans-31"/>
       <use xlink:href="#DejaVuSans-30" x="63.623047"/>
       <use xlink:href="#DejaVuSans-30" x="127.246094"/>
      </g>
     </g>
    </g>
    <g id="xtick_7">
     <g id="line2d_7">
      <g>
       <use xlink:href="#mbb3925f6a3" x="338.856846" y="307.584" style="stroke: #000000; stroke-width: 0.8"/>
      </g>
     </g>
     <g id="text_7">
      <!-- 120 -->
      <g transform="translate(329.313096 322.182437) scale(0.1 -0.1)">
       <use xlink:href="#DejaVuSans-31"/>
       <use xlink:href="#DejaVuSans-32" x="63.623047"/>
       <use xlink:href="#DejaVuSans-30" x="127.246094"/>
      </g>
     </g>
    </g>
    <g id="xtick_8">
     <g id="line2d_8">
      <g>
       <use xlink:href="#mbb3925f6a3" x="383.027532" y="307.584" style="stroke: #000000; stroke-width: 0.8"/>
      </g>
     </g>
     <g id="text_8">
      <!-- 140 -->
      <g transform="translate(373.483782 322.182437) scale(0.1 -0.1)">
       <use xlink:href="#DejaVuSans-31"/>
       <use xlink:href="#DejaVuSans-34" x="63.623047"/>
       <use xlink:href="#DejaVuSans-30" x="127.246094"/>
      </g>
     </g>
    </g>
   </g>
   <g id="matplotlib.axis_2">
    <g id="ytick_1">
     <g id="line2d_9">
      <defs>
       <path id="m522d4db8ed" d="M 0 0 
L -3.5 0 
" style="stroke: #000000; stroke-width: 0.8"/>
      </defs>
      <g>
       <use xlink:href="#m522d4db8ed" x="57.6" y="305.377862" style="stroke: #000000; stroke-width: 0.8"/>
      </g>
     </g>
     <g id="text_9">
      <!-- −300 -->
      <g transform="translate(23.132812 309.177081) scale(0.1 -0.1)">
       <defs>
        <path id="DejaVuSans-2212" d="M 678 2272 
L 4684 2272 
L 4684 1741 
L 678 1741 
L 678 2272 
z
" transform="scale(0.015625)"/>
        <path id="DejaVuSans-33" d="M 2597 2516 
Q 3050 2419 3304 2112 
Q 3559 1806 3559 1356 
Q 3559 666 3084 287 
Q 2609 -91 1734 -91 
Q 1441 -91 1130 -33 
Q 819 25 488 141 
L 488 750 
Q 750 597 1062 519 
Q 1375 441 1716 441 
Q 2309 441 2620 675 
Q 2931 909 2931 1356 
Q 2931 1769 2642 2001 
Q 2353 2234 1838 2234 
L 1294 2234 
L 1294 2753 
L 1863 2753 
Q 2328 2753 2575 2939 
Q 2822 3125 2822 3475 
Q 2822 3834 2567 4026 
Q 2313 4219 1838 4219 
Q 1578 4219 1281 4162 
Q 984 4106 628 3988 
L 628 4550 
Q 988 4650 1302 4700 
Q 1616 4750 1894 4750 
Q 2613 4750 3031 4423 
Q 3450 4097 3450 3541 
Q 3450 3153 3228 2886 
Q 3006 2619 2597 2516 
z
" transform="scale(0.015625)"/>
       </defs>
       <use xlink:href="#DejaVuSans-2212"/>
       <use xlink:href="#DejaVuSans-33" x="83.789062"/>
       <use xlink:href="#DejaVuSans-30" x="147.412109"/>
       <use xlink:href="#DejaVuSans-30" x="211.035156"/>
      </g>
     </g>
    </g>
    <g id="ytick_2">
     <g id="line2d_10">
      <g>
       <use xlink:href="#m522d4db8ed" x="57.6" y="261.520002" style="stroke: #000000; stroke-width: 0.8"/>
      </g>
     </g>
     <g id="text_10">
      <!-- −200 -->
      <g transform="translate(23.132812 265.31922) scale(0.1 -0.1)">
       <use xlink:href="#DejaVuSans-2212"/>
       <use xlink:href="#DejaVuSans-32" x="83.789062"/>
       <use xlink:href="#DejaVuSans-30" x="147.412109"/>
       <use xlink:href="#DejaVuSans-30" x="211.035156"/>
      </g>
     </g>
    </g>
    <g id="ytick_3">
     <g id="line2d_11">
      <g>
       <use xlink:href="#m522d4db8ed" x="57.6" y="217.662141" style="stroke: #000000; stroke-width: 0.8"/>
      </g>
     </g>
     <g id="text_11">
      <!-- −100 -->
      <g transform="translate(23.132812 221.46136) scale(0.1 -0.1)">
       <use xlink:href="#DejaVuSans-2212"/>
       <use xlink:href="#DejaVuSans-31" x="83.789062"/>
       <use xlink:href="#DejaVuSans-30" x="147.412109"/>
       <use xlink:href="#DejaVuSans-30" x="211.035156"/>
      </g>
     </g>
    </g>
    <g id="ytick_4">
     <g id="line2d_12">
      <g>
       <use xlink:href="#m522d4db8ed" x="57.6" y="173.804281" style="stroke: #000000; stroke-width: 0.8"/>
      </g>
     </g>
     <g id="text_12">
      <!-- 0 -->
      <g transform="translate(44.2375 177.6035) scale(0.1 -0.1)">
       <use xlink:href="#DejaVuSans-30"/>
      </g>
     </g>
    </g>
    <g id="ytick_5">
     <g id="line2d_13">
      <g>
       <use xlink:href="#m522d4db8ed" x="57.6" y="129.946421" style="stroke: #000000; stroke-width: 0.8"/>
      </g>
     </g>
     <g id="text_13">
      <!-- 100 -->
      <g transform="translate(31.5125 133.74564) scale(0.1 -0.1)">
       <use xlink:href="#DejaVuSans-31"/>
       <use xlink:href="#DejaVuSans-30" x="63.623047"/>
       <use xlink:href="#DejaVuSans-30" x="127.246094"/>
      </g>
     </g>
    </g>
    <g id="ytick_6">
     <g id="line2d_14">
      <g>
       <use xlink:href="#m522d4db8ed" x="57.6" y="86.088561" style="stroke: #000000; stroke-width: 0.8"/>
      </g>
     </g>
     <g id="text_14">
      <!-- 200 -->
      <g transform="translate(31.5125 89.887779) scale(0.1 -0.1)">
       <use xlink:href="#DejaVuSans-32"/>
       <use xlink:href="#DejaVuSans-30" x="63.623047"/>
       <use xlink:href="#DejaVuSans-30" x="127.246094"/>
      </g>
     </g>
    </g>
    <g id="ytick_7">
     <g id="line2d_15">
      <g>
       <use xlink:href="#m522d4db8ed" x="57.6" y="42.2307" style="stroke: #000000; stroke-width: 0.8"/>
      </g>
     </g>
     <g id="text_15">
      <!-- 300 -->
      <g transform="translate(31.5125 46.029919) scale(0.1 -0.1)">
       <use xlink:href="#DejaVuSans-33"/>
       <use xlink:href="#DejaVuSans-30" x="63.623047"/>
       <use xlink:href="#DejaVuSans-30" x="127.246094"/>
      </g>
     </g>
    </g>
   </g>
   <g id="line2d_16">
    <path d="M 73.832727 174.85169 
L 76.041262 176.623783 
L 78.249796 170.680038 
L 80.45833 176.874431 
L 82.666865 174.451035 
L 84.875399 176.458559 
L 87.083933 173.432725 
L 89.292468 175.526108 
L 91.501002 171.85216 
L 93.709536 174.530421 
L 95.918071 173.580728 
L 98.126605 175.947914 
L 100.335139 173.319983 
L 102.543673 174.85327 
L 104.752208 173.78199 
L 106.960742 174.495042 
L 109.169276 173.674182 
L 111.377811 170.446779 
L 113.586345 175.665769 
L 115.794879 177.496864 
L 118.003414 169.322562 
L 120.211948 168.469704 
L 122.420482 177.305893 
L 124.629017 176.34767 
L 126.837551 178.630108 
L 129.046085 175.324457 
L 131.25462 175.22865 
L 133.463154 173.117357 
L 135.671688 176.505238 
L 137.880223 174.29073 
L 140.088757 171.019446 
L 142.297291 170.231361 
L 144.505826 178.151001 
L 146.71436 176.898291 
L 148.922894 173.772501 
L 151.131429 174.267769 
L 153.339963 169.348349 
L 155.548497 173.431572 
L 157.757032 170.485467 
L 159.965566 177.880657 
L 162.1741 170.917076 
L 164.382635 178.0508 
L 166.591169 175.166123 
L 168.799703 175.758472 
L 171.008237 175.394656 
L 173.216772 173.611225 
L 175.425306 177.164868 
L 177.63384 173.383872 
L 179.842375 171.95066 
L 182.050909 176.923906 
L 184.259443 162.94906 
L 186.467978 173.294018 
L 188.676512 156.046246 
L 190.885046 185.982613 
L 193.093581 178.889653 
L 195.302115 176.733077 
L 197.510649 178.489404 
L 199.719184 178.417009 
L 201.927718 172.266526 
L 204.136252 173.151284 
L 206.344787 176.531057 
L 208.553321 176.229601 
L 210.761855 177.721071 
L 212.97039 178.622606 
L 215.178924 169.635769 
L 217.387458 171.360191 
L 219.595993 181.319868 
L 221.804527 169.247307 
L 224.013061 178.894675 
L 226.221596 174.853483 
L 228.43013 177.992374 
L 230.638664 171.749958 
L 232.847199 177.915272 
L 235.055733 173.952844 
L 237.264267 172.473515 
L 239.472801 173.193396 
L 241.681336 169.383657 
L 243.88987 178.18569 
L 246.098404 175.697053 
L 248.306939 175.250902 
L 250.515473 172.815734 
L 252.724007 173.545875 
L 254.932542 176.336487 
L 257.141076 173.095394 
L 259.34961 175.942129 
L 261.558145 175.076468 
L 263.766679 175.157003 
L 265.975213 174.225534 
L 268.183748 173.644896 
L 270.392282 171.918909 
L 272.600816 175.808666 
L 274.809351 168.618695 
L 277.017885 179.881797 
L 279.226419 178.76336 
L 281.434954 171.652622 
L 283.643488 168.094046 
L 285.852022 168.085413 
L 288.060557 181.898266 
L 290.269091 162.152314 
L 292.477625 179.527249 
L 294.68616 168.278034 
L 296.894694 169.286815 
L 299.103228 177.883404 
L 301.311763 178.027646 
L 303.520297 170.539006 
L 305.728831 164.980201 
L 307.937365 172.136931 
L 310.1459 181.539498 
L 312.354434 155.17292 
L 314.562968 173.09263 
L 316.771503 172.437255 
L 318.980037 185.584913 
L 321.188571 181.258143 
L 323.397106 172.504622 
L 325.60564 171.360075 
L 327.814174 164.041523 
L 330.022709 174.963436 
L 332.231243 173.496519 
L 334.439777 177.626495 
L 336.648312 183.21492 
L 338.856846 179.845972 
L 341.06538 168.426463 
L 343.273915 178.309661 
L 345.482449 178.35403 
L 347.690983 182.073257 
L 349.899518 176.152862 
L 352.108052 166.733377 
L 354.316586 173.838175 
L 356.525121 176.586729 
L 358.733655 176.776009 
L 360.942189 174.610886 
L 363.150724 170.570426 
L 365.359258 177.204497 
L 367.567792 179.100464 
L 369.776327 175.61846 
L 371.984861 177.950917 
L 374.193395 176.907108 
L 376.401929 169.973244 
L 378.610464 174.960299 
L 380.818998 173.920616 
L 383.027532 168.977058 
L 385.236067 173.751226 
L 387.444601 175.199006 
L 389.653135 180.291495 
L 391.86167 181.657869 
L 394.070204 176.809231 
L 396.278738 178.549165 
L 398.487273 172.335362 
L 398.487273 172.335362 
" clip-path="url(#p33f16eeeee)" style="fill: none; stroke: #008000; stroke-opacity: 0.8; stroke-width: 0.5; stroke-linecap: square"/>
   </g>
   <g id="line2d_17">
    <path d="M 73.832727 154.775777 
L 76.041262 163.586877 
L 78.249796 143.977398 
L 80.45833 148.121066 
L 82.666865 163.14241 
L 84.875399 162.453811 
L 87.083933 166.190341 
L 89.292468 158.537873 
L 91.501002 167.42493 
L 93.709536 154.976239 
L 95.918071 157.651397 
L 98.126605 165.485301 
L 100.335139 162.8706 
L 102.543673 166.60275 
L 104.752208 165.262262 
L 106.960742 168.99846 
L 109.169276 133.435241 
L 111.377811 140.811556 
L 113.586345 149.265156 
L 115.794879 153.947748 
L 118.003414 127.386547 
L 120.211948 145.526308 
L 122.420482 146.878941 
L 124.629017 157.506253 
L 126.837551 162.749779 
L 129.046085 166.91029 
L 131.25462 163.814646 
L 133.463154 149.790773 
L 135.671688 165.664888 
L 137.880223 169.400617 
L 140.088757 152.284429 
L 142.297291 148.909565 
L 144.505826 161.747652 
L 146.71436 170.579937 
L 148.922894 156.653117 
L 151.131429 164.986966 
L 153.339963 146.110173 
L 155.548497 136.003654 
L 157.757032 139.575598 
L 159.965566 169.469693 
L 162.1741 158.989119 
L 164.382635 150.649155 
L 166.591169 168.292017 
L 168.799703 169.389574 
L 171.008237 168.377149 
L 173.216772 156.949735 
L 175.425306 171.179412 
L 177.63384 163.260284 
L 179.842375 150.554647 
L 182.050909 143.805547 
L 184.259443 123.7889 
L 186.467978 97.386243 
L 188.676512 53.568 
L 190.885046 123.898148 
L 193.093581 135.731345 
L 195.302115 139.159804 
L 197.510649 147.498807 
L 199.719184 163.369244 
L 201.927718 98.807447 
L 206.344787 155.160407 
L 208.553321 155.762419 
L 210.761855 161.604282 
L 212.97039 166.45545 
L 215.178924 117.663901 
L 217.387458 138.976683 
L 219.595993 152.117645 
L 221.804527 144.870986 
L 224.013061 125.841385 
L 226.221596 154.913714 
L 228.43013 157.967572 
L 230.638664 160.223687 
L 232.847199 147.609012 
L 235.055733 159.244102 
L 237.264267 125.670387 
L 239.472801 163.738924 
L 241.681336 129.643139 
L 243.88987 145.866942 
L 246.098404 143.774817 
L 248.306939 160.532853 
L 250.515473 154.717332 
L 252.724007 150.67804 
L 254.932542 167.735837 
L 257.141076 161.322129 
L 259.34961 150.309917 
L 261.558145 155.203535 
L 263.766679 141.52343 
L 265.975213 159.447363 
L 268.183748 151.205409 
L 270.392282 157.736237 
L 272.600816 139.981016 
L 274.809351 132.812334 
L 277.017885 159.078133 
L 279.226419 161.783658 
L 281.434954 155.217453 
L 283.643488 126.434937 
L 285.852022 138.446023 
L 288.060557 164.57657 
L 290.269091 131.265912 
L 292.477625 149.213445 
L 294.68616 123.773293 
L 296.894694 130.980902 
L 299.103228 116.333875 
L 301.311763 141.819197 
L 303.520297 143.661532 
L 305.728831 107.19351 
L 307.937365 105.885271 
L 310.1459 100.47837 
L 312.354434 106.578724 
L 314.562968 95.855715 
L 316.771503 147.147354 
L 318.980037 151.436665 
L 321.188571 162.100591 
L 323.397106 133.540917 
L 325.60564 114.982014 
L 327.814174 95.397242 
L 330.022709 138.945131 
L 332.231243 128.394905 
L 334.439777 138.485426 
L 336.648312 138.484417 
L 338.856846 146.067521 
L 341.06538 129.447999 
L 343.273915 153.286817 
L 345.482449 146.116413 
L 347.690983 150.065135 
L 349.899518 147.533359 
L 352.108052 142.915113 
L 354.316586 139.011913 
L 356.525121 145.924652 
L 358.733655 162.820821 
L 360.942189 145.006298 
L 363.150724 152.803321 
L 365.359258 152.88421 
L 367.567792 162.000654 
L 369.776327 154.942502 
L 371.984861 158.262934 
L 374.193395 159.764421 
L 376.401929 145.808525 
L 378.610464 150.369554 
L 380.818998 147.287289 
L 383.027532 141.618385 
L 385.236067 147.805222 
L 387.444601 147.777421 
L 389.653135 151.522932 
L 391.86167 157.630777 
L 394.070204 169.039571 
L 396.278738 162.442345 
L 398.487273 142.404533 
L 398.487273 142.404533 
" clip-path="url(#p33f16eeeee)" style="fill: none; stroke: #32cd32; stroke-opacity: 0.8; stroke-width: 0.5; stroke-linecap: square"/>
   </g>
   <g id="line2d_18">
    <path d="M 73.832727 195.509585 
L 76.041262 193.501179 
L 78.249796 228.94237 
L 80.45833 192.878167 
L 82.666865 188.23308 
L 84.875399 191.1851 
L 87.083933 182.514193 
L 89.292468 187.741412 
L 91.501002 176.35459 
L 93.709536 183.9111 
L 95.918071 184.109387 
L 98.126605 186.922129 
L 100.335139 186.689776 
L 102.543673 183.268198 
L 104.752208 180.121907 
L 106.960742 183.209557 
L 109.169276 215.938343 
L 111.377811 202.007455 
L 113.586345 199.164142 
L 115.794879 202.761487 
L 118.003414 187.195902 
L 120.211948 225.556419 
L 122.420482 211.654847 
L 124.629017 189.228442 
L 126.837551 193.496525 
L 129.046085 186.841838 
L 131.25462 197.671694 
L 133.463154 187.071076 
L 135.671688 182.240571 
L 137.880223 184.946393 
L 140.088757 188.860612 
L 142.297291 184.019269 
L 144.505826 202.939135 
L 146.71436 186.20439 
L 148.922894 183.662544 
L 151.131429 182.062804 
L 153.339963 183.161372 
L 155.548497 197.568832 
L 157.757032 187.373804 
L 159.965566 190.090844 
L 162.1741 181.543474 
L 164.382635 198.448094 
L 166.591169 182.480536 
L 168.799703 186.463034 
L 171.008237 183.719485 
L 173.216772 191.448397 
L 175.425306 184.376317 
L 177.63384 182.194802 
L 179.842375 183.398568 
L 182.050909 189.626719 
L 184.259443 182.399006 
L 186.467978 244.218097 
L 188.676512 295.488 
L 190.885046 253.134515 
L 193.093581 213.709682 
L 195.302115 207.064655 
L 197.510649 203.785508 
L 199.719184 193.141323 
L 201.927718 210.254476 
L 204.136252 194.306892 
L 206.344787 195.248508 
L 208.553321 193.018435 
L 210.761855 193.543212 
L 212.97039 188.516641 
L 215.178924 202.828363 
L 217.387458 194.753276 
L 219.595993 200.14297 
L 221.804527 182.684825 
L 224.013061 205.919366 
L 226.221596 194.607873 
L 228.43013 202.664862 
L 230.638664 193.45109 
L 232.847199 197.511951 
L 235.055733 195.971756 
L 237.264267 199.375307 
L 239.472801 185.663121 
L 241.681336 221.548102 
L 243.88987 196.520846 
L 246.098404 200.159397 
L 248.306939 193.04518 
L 250.515473 191.547377 
L 252.724007 209.394999 
L 254.932542 191.037523 
L 257.141076 187.938482 
L 259.34961 198.65037 
L 261.558145 194.294387 
L 263.766679 200.063329 
L 265.975213 193.140929 
L 268.183748 198.807759 
L 270.392282 189.45991 
L 272.600816 209.263511 
L 274.809351 194.764325 
L 277.017885 205.888512 
L 279.226419 192.109543 
L 281.434954 187.408998 
L 283.643488 200.37844 
L 285.852022 222.328892 
L 288.060557 207.568295 
L 290.269091 195.522488 
L 292.477625 235.080436 
L 294.68616 226.699045 
L 296.894694 214.942963 
L 299.103228 234.139248 
L 301.311763 200.779272 
L 303.520297 202.344976 
L 305.728831 222.435139 
L 307.937365 227.543717 
L 310.1459 217.959167 
L 312.354434 205.879803 
L 314.562968 217.27871 
L 316.771503 201.966327 
L 318.980037 219.686494 
L 321.188571 211.758003 
L 323.397106 206.058942 
L 325.60564 212.217956 
L 327.814174 200.197247 
L 330.022709 224.464782 
L 332.231243 223.695452 
L 334.439777 225.144318 
L 336.648312 265.386445 
L 338.856846 230.288943 
L 341.06538 201.018158 
L 343.273915 209.5615 
L 345.482449 211.506267 
L 347.690983 219.315591 
L 349.899518 200.351457 
L 352.108052 186.509056 
L 354.316586 215.385944 
L 356.525121 199.075306 
L 358.733655 198.843772 
L 360.942189 208.487567 
L 363.150724 206.027144 
L 365.359258 196.312379 
L 369.776327 204.110319 
L 371.984861 196.488555 
L 374.193395 189.910296 
L 376.401929 199.281458 
L 378.610464 194.579801 
L 380.818998 201.636984 
L 383.027532 192.699566 
L 385.236067 199.439179 
L 387.444601 203.487358 
L 389.653135 210.710521 
L 391.86167 209.996496 
L 394.070204 187.750255 
L 396.278738 201.202681 
L 398.487273 194.659791 
L 398.487273 194.659791 
" clip-path="url(#p33f16eeeee)" style="fill: none; stroke: #32cd32; stroke-opacity: 0.8; stroke-width: 0.5; stroke-linecap: square"/>
   </g>
   <g id="line2d_19">
    <path d="M 73.832727 172.931935 
L 76.041262 175.158285 
L 78.249796 170.276952 
L 80.45833 176.912676 
L 82.666865 173.328654 
L 84.875399 175.718353 
L 87.083933 171.509238 
L 89.292468 175.708334 
L 91.501002 171.901989 
L 93.709536 175.322752 
L 95.918071 173.156627 
L 98.126605 174.334353 
L 100.335139 171.714397 
L 102.543673 173.212427 
L 104.752208 173.840103 
L 106.960742 173.907816 
L 109.169276 169.18967 
L 111.377811 172.674037 
L 113.586345 172.399897 
L 115.794879 174.307885 
L 118.003414 169.563129 
L 120.211948 167.272564 
L 122.420482 174.137031 
L 124.629017 176.43851 
L 126.837551 176.431253 
L 129.046085 175.384113 
L 131.25462 174.159578 
L 133.463154 171.981831 
L 135.671688 175.792381 
L 137.880223 175.327887 
L 140.088757 171.261439 
L 142.297291 171.664499 
L 144.505826 174.592317 
L 146.71436 174.710901 
L 148.922894 173.291941 
L 151.131429 173.26307 
L 153.339963 166.366344 
L 155.548497 177.070132 
L 157.757032 171.366415 
L 159.965566 176.498147 
L 162.1741 170.543316 
L 164.382635 174.878353 
L 166.591169 173.794135 
L 168.799703 174.971939 
L 171.008237 175.526707 
L 173.216772 172.731222 
L 175.425306 177.081919 
L 179.842375 171.00562 
L 182.050909 174.560869 
L 184.259443 162.890641 
L 186.467978 167.148682 
L 188.676512 172.231515 
L 190.885046 187.816743 
L 193.093581 180.952941 
L 195.302115 174.668032 
L 197.510649 178.552827 
L 199.719184 178.102481 
L 201.927718 168.332962 
L 204.136252 171.461948 
L 206.344787 173.909982 
L 208.553321 175.10767 
L 210.761855 176.082918 
L 212.97039 178.33757 
L 215.178924 167.565502 
L 217.387458 170.893171 
L 219.595993 178.457843 
L 221.804527 167.65654 
L 224.013061 174.857315 
L 226.221596 173.928645 
L 228.43013 178.44414 
L 230.638664 171.395563 
L 232.847199 176.587479 
L 235.055733 170.861335 
L 237.264267 170.954865 
L 239.472801 171.582743 
L 241.681336 171.761568 
L 243.88987 176.972971 
L 246.098404 178.220409 
L 248.306939 173.412682 
L 250.515473 173.330234 
L 252.724007 168.566665 
L 254.932542 176.060318 
L 257.141076 173.156291 
L 259.34961 173.542465 
L 261.558145 174.488016 
L 263.766679 172.389825 
L 265.975213 174.269488 
L 268.183748 171.73411 
L 270.392282 171.402841 
L 272.600816 172.480874 
L 274.809351 168.089142 
L 277.017885 175.789468 
L 279.226419 177.314654 
L 281.434954 171.862858 
L 283.643488 169.453499 
L 285.852022 169.925805 
L 288.060557 177.312291 
L 290.269091 162.068385 
L 292.477625 169.637057 
L 294.68616 166.625829 
L 296.894694 166.180143 
L 299.103228 178.502654 
L 301.311763 169.997755 
L 303.520297 167.061488 
L 305.728831 161.810251 
L 307.937365 168.002417 
L 310.1459 181.42215 
L 312.354434 158.00091 
L 314.562968 176.543106 
L 316.771503 174.257869 
L 318.980037 182.945539 
L 321.188571 175.935994 
L 323.397106 171.094829 
L 325.60564 167.415557 
L 327.814174 160.955387 
L 330.022709 170.940906 
L 332.231243 173.413844 
L 334.439777 174.109991 
L 336.648312 180.746455 
L 338.856846 178.868297 
L 341.06538 164.467211 
L 343.273915 172.493719 
L 345.482449 176.820984 
L 347.690983 178.553395 
L 349.899518 173.504108 
L 352.108052 166.086808 
L 354.316586 173.703791 
L 356.525121 176.827966 
L 358.733655 175.974435 
L 360.942189 174.536492 
L 363.150724 171.492732 
L 365.359258 176.748025 
L 367.567792 177.091921 
L 369.776327 173.672305 
L 371.984861 176.277904 
L 374.193395 176.422009 
L 376.401929 170.783159 
L 378.610464 172.387274 
L 380.818998 170.449462 
L 383.027532 167.986739 
L 385.236067 171.025357 
L 387.444601 172.26512 
L 389.653135 174.047513 
L 391.86167 177.837875 
L 394.070204 177.238728 
L 396.278738 177.115037 
L 398.487273 173.956138 
L 398.487273 173.956138 
" clip-path="url(#p33f16eeeee)" style="fill: none; stroke: #ff0000; stroke-opacity: 0.8; stroke-width: 0.5; stroke-linecap: square"/>
   </g>
   <g id="line2d_20">
    <path d="M 73.832727 144.147545 
L 76.041262 159.264078 
L 78.249796 144.227977 
L 80.45833 137.592957 
L 82.666865 158.634226 
L 84.875399 162.914447 
L 87.083933 160.883808 
L 89.292468 159.885023 
L 91.501002 164.836491 
L 93.709536 156.425302 
L 95.918071 157.651397 
L 98.126605 161.901305 
L 100.335139 162.588918 
L 102.543673 167.011579 
L 104.752208 166.357225 
L 106.960742 169.047661 
L 109.169276 131.350449 
L 111.377811 142.645552 
L 113.586345 149.530482 
L 115.794879 151.169192 
L 118.003414 134.016306 
L 120.211948 145.397797 
L 122.420482 141.90968 
L 124.629017 157.321281 
L 129.046085 167.501909 
L 131.25462 163.724595 
L 133.463154 149.690167 
L 135.671688 163.689166 
L 137.880223 170.422364 
L 140.088757 158.344385 
L 142.297291 143.019972 
L 144.505826 160.786565 
L 146.71436 164.210374 
L 148.922894 161.109051 
L 151.131429 163.030082 
L 153.339963 135.200322 
L 155.548497 135.967204 
L 157.757032 140.084965 
L 159.965566 164.70597 
L 162.1741 157.449579 
L 164.382635 147.572869 
L 166.591169 162.909254 
L 168.799703 167.221212 
L 171.008237 168.72556 
L 173.216772 161.813611 
L 175.425306 169.440392 
L 177.63384 163.206176 
L 179.842375 149.861204 
L 182.050909 146.678259 
L 184.259443 123.610794 
L 186.467978 76.976099 
L 188.676512 56.344094 
L 190.885046 111.81225 
L 193.093581 130.646048 
L 195.302115 137.789084 
L 197.510649 136.713766 
L 199.719184 159.731174 
L 201.927718 90.892649 
L 204.136252 137.921921 
L 206.344787 156.247967 
L 208.553321 155.464691 
L 210.761855 161.43857 
L 212.97039 166.890566 
L 215.178924 117.543922 
L 217.387458 137.316455 
L 219.595993 151.79633 
L 221.804527 144.994352 
L 224.013061 121.856086 
L 226.221596 154.921579 
L 228.43013 165.826401 
L 230.638664 159.287016 
L 232.847199 148.818488 
L 235.055733 153.647333 
L 237.264267 132.96818 
L 239.472801 159.856345 
L 241.681336 130.464941 
L 243.88987 147.4149 
L 246.098404 159.872593 
L 248.306939 158.973758 
L 250.515473 155.588078 
L 252.724007 132.502225 
L 254.932542 166.234446 
L 257.141076 162.90198 
L 259.34961 148.657119 
L 261.558145 156.260097 
L 263.766679 142.567822 
L 265.975213 161.974482 
L 268.183748 151.628489 
L 270.392282 156.533755 
L 272.600816 138.785091 
L 274.809351 127.181962 
L 277.017885 154.487121 
L 279.226419 161.890315 
L 281.434954 155.809857 
L 283.643488 125.949255 
L 285.852022 148.825771 
L 288.060557 154.903256 
L 290.269091 132.052698 
L 292.477625 135.435392 
L 294.68616 108.519672 
L 296.894694 125.42904 
L 299.103228 117.027546 
L 301.311763 141.35738 
L 303.520297 139.872106 
L 305.728831 104.693749 
L 307.937365 105.190851 
L 310.1459 100.179385 
L 312.354434 106.957715 
L 314.562968 118.930981 
L 316.771503 155.511292 
L 318.980037 143.783544 
L 321.188571 145.296618 
L 323.397106 133.476848 
L 325.60564 110.632892 
L 327.814174 76.979167 
L 330.022709 133.812465 
L 332.231243 118.152982 
L 334.439777 131.122942 
L 336.648312 126.297417 
L 338.856846 141.590597 
L 341.06538 129.09116 
L 343.273915 148.429587 
L 345.482449 138.700513 
L 347.690983 150.063956 
L 349.899518 151.369939 
L 352.108052 137.466175 
L 354.316586 142.674053 
L 356.525121 144.37772 
L 358.733655 162.045892 
L 360.942189 143.572981 
L 363.150724 145.494011 
L 365.359258 152.641519 
L 367.567792 150.642919 
L 369.776327 158.432123 
L 371.984861 150.987986 
L 374.193395 159.804092 
L 376.401929 147.230872 
L 378.610464 150.937889 
L 380.818998 146.698136 
L 383.027532 141.126107 
L 385.236067 145.156595 
L 387.444601 148.291984 
L 389.653135 147.182982 
L 391.86167 156.335875 
L 394.070204 168.697833 
L 396.278738 161.780374 
L 398.487273 142.097326 
L 398.487273 142.097326 
" clip-path="url(#p33f16eeeee)" style="fill: none; stroke: #f08080; stroke-opacity: 0.8; stroke-width: 0.5; stroke-linecap: square"/>
   </g>
   <g id="line2d_21">
    <path d="M 73.832727 193.967127 
L 76.041262 195.240979 
L 78.249796 207.082818 
L 80.45833 201.2791 
L 82.666865 187.222328 
L 84.875399 189.419639 
L 87.083933 181.642329 
L 89.292468 194.895565 
L 91.501002 176.014663 
L 93.709536 186.61635 
L 95.918071 182.372661 
L 98.126605 184.096497 
L 100.335139 183.1547 
L 102.543673 181.570982 
L 104.752208 180.423567 
L 106.960742 182.207516 
L 109.169276 206.903688 
L 111.377811 201.183846 
L 113.586345 196.700258 
L 115.794879 197.005153 
L 118.003414 186.24231 
L 120.211948 228.251733 
L 122.420482 216.200248 
L 124.629017 189.335406 
L 126.837551 192.259047 
L 129.046085 186.685386 
L 131.25462 192.110502 
L 133.463154 190.904456 
L 135.671688 188.000305 
L 137.880223 183.790724 
L 140.088757 185.703095 
L 142.297291 191.36718 
L 144.505826 199.508526 
L 146.71436 185.581095 
L 148.922894 183.411322 
L 151.131429 179.401069 
L 153.339963 183.121288 
L 155.548497 196.566575 
L 157.757032 189.71053 
L 159.965566 190.320009 
L 162.1741 181.44467 
L 164.382635 191.825792 
L 166.591169 180.873816 
L 168.799703 186.196842 
L 171.008237 183.828095 
L 173.216772 184.246863 
L 175.425306 185.119739 
L 177.63384 185.18267 
L 179.842375 183.927922 
L 182.050909 194.273961 
L 184.259443 182.368514 
L 186.467978 267.488996 
L 188.676512 281.115143 
L 193.093581 223.197162 
L 195.302115 197.600168 
L 197.510649 208.732741 
L 199.719184 192.934393 
L 201.927718 209.067452 
L 204.136252 193.465382 
L 206.344787 190.513419 
L 208.553321 191.026578 
L 210.761855 193.817671 
L 212.97039 185.502332 
L 215.178924 202.714774 
L 217.387458 196.521219 
L 219.595993 199.671664 
L 221.804527 181.668072 
L 224.013061 205.743379 
L 226.221596 192.273667 
L 228.43013 197.455838 
L 230.638664 193.570197 
L 232.847199 188.878386 
L 235.055733 195.91269 
L 237.264267 199.114283 
L 239.472801 185.406283 
L 241.681336 212.882252 
L 243.88987 206.557194 
L 246.098404 200.590066 
L 248.306939 190.859378 
L 250.515473 189.934699 
L 252.724007 198.894387 
L 254.932542 193.299186 
L 257.141076 188.142632 
L 259.34961 198.177732 
L 261.558145 192.863005 
L 263.766679 200.146086 
L 265.975213 186.464955 
L 268.183748 188.322459 
L 270.392282 187.964931 
L 272.600816 195.487301 
L 274.809351 198.482733 
L 277.017885 205.314603 
L 279.226419 192.609187 
L 281.434954 186.454562 
L 283.643488 214.113895 
L 285.852022 213.494285 
L 288.060557 208.143645 
L 290.269091 191.372087 
L 292.477625 219.023977 
L 294.68616 203.29801 
L 296.894694 214.479394 
L 299.103228 219.48403 
L 301.311763 202.921467 
L 303.520297 195.290692 
L 305.728831 218.00725 
L 307.937365 219.675149 
L 310.1459 217.126004 
L 312.354434 206.373372 
L 314.562968 217.898991 
L 316.771503 205.996122 
L 318.980037 234.393765 
L 321.188571 211.715532 
L 323.397106 205.079102 
L 325.60564 204.785372 
L 327.814174 191.666752 
L 332.231243 253.502665 
L 334.439777 213.726605 
L 336.648312 266.714237 
L 338.856846 228.336313 
L 341.06538 199.649988 
L 343.273915 202.357489 
L 345.482449 212.667749 
L 347.690983 205.709861 
L 349.899518 199.829351 
L 352.108052 186.575984 
L 354.316586 215.780729 
L 356.525121 198.083768 
L 358.733655 201.369043 
L 360.942189 208.04363 
L 363.150724 207.034264 
L 365.359258 198.34723 
L 367.567792 199.762059 
L 369.776327 194.15886 
L 371.984861 193.507446 
L 374.193395 189.724584 
L 376.401929 201.991951 
L 378.610464 200.417308 
L 380.818998 189.908767 
L 383.027532 189.69514 
L 385.236067 188.261112 
L 389.653135 208.078004 
L 391.86167 209.488192 
L 394.070204 187.953778 
L 396.278738 201.028497 
L 398.487273 194.398713 
L 398.487273 194.398713 
" clip-path="url(#p33f16eeeee)" style="fill: none; stroke: #f08080; stroke-opacity: 0.8; stroke-width: 0.5; stroke-linecap: square"/>
   </g>
   <g id="patch_3">
    <path d="M 57.6 307.584 
L 57.6 41.472 
" style="fill: none; stroke: #000000; stroke-width: 0.8; stroke-linejoin: miter; stroke-linecap: square"/>
   </g>
   <g id="patch_4">
    <path d="M 414.72 307.584 
L 414.72 41.472 
" style="fill: none; stroke: #000000; stroke-width: 0.8; stroke-linejoin: miter; stroke-linecap: square"/>
   </g>
   <g id="patch_5">
    <path d="M 57.6 307.584 
L 414.72 307.584 
" style="fill: none; stroke: #000000; stroke-width: 0.8; stroke-linejoin: miter; stroke-linecap: square"/>
   </g>
   <g id="patch_6">
    <path d="M 57.6 41.472 
L 414.72 41.472 
" style="fill: none; stroke: #000000; stroke-width: 0.8; stroke-linejoin: miter; stroke-linecap: square"/>
   </g>
   <g id="text_16">
    <!-- 1final_zhang_pr_snp500 -->
    <g transform="translate(163.711875 35.472) scale(0.12 -0.12)">
     <defs>
      <path id="DejaVuSans-66" d="M 2375 4863 
L 2375 4384 
L 1825 4384 
Q 1516 4384 1395 4259 
Q 1275 4134 1275 3809 
L 1275 3500 
L 2222 3500 
L 2222 3053 
L 1275 3053 
L 1275 0 
L 697 0 
L 697 3053 
L 147 3053 
L 147 3500 
L 697 3500 
L 697 3744 
Q 697 4328 969 4595 
Q 1241 4863 1831 4863 
L 2375 4863 
z
" transform="scale(0.015625)"/>
      <path id="DejaVuSans-69" d="M 603 3500 
L 1178 3500 
L 1178 0 
L 603 0 
L 603 3500 
z
M 603 4863 
L 1178 4863 
L 1178 4134 
L 603 4134 
L 603 4863 
z
" transform="scale(0.015625)"/>
      <path id="DejaVuSans-6e" d="M 3513 2113 
L 3513 0 
L 2938 0 
L 2938 2094 
Q 2938 2591 2744 2837 
Q 2550 3084 2163 3084 
Q 1697 3084 1428 2787 
Q 1159 2491 1159 1978 
L 1159 0 
L 581 0 
L 581 3500 
L 1159 3500 
L 1159 2956 
Q 1366 3272 1645 3428 
Q 1925 3584 2291 3584 
Q 2894 3584 3203 3211 
Q 3513 2838 3513 2113 
z
" transform="scale(0.015625)"/>
      <path id="DejaVuSans-61" d="M 2194 1759 
Q 1497 1759 1228 1600 
Q 959 1441 959 1056 
Q 959 750 1161 570 
Q 1363 391 1709 391 
Q 2188 391 2477 730 
Q 2766 1069 2766 1631 
L 2766 1759 
L 2194 1759 
z
M 3341 1997 
L 3341 0 
L 2766 0 
L 2766 531 
Q 2569 213 2275 61 
Q 1981 -91 1556 -91 
Q 1019 -91 701 211 
Q 384 513 384 1019 
Q 384 1609 779 1909 
Q 1175 2209 1959 2209 
L 2766 2209 
L 2766 2266 
Q 2766 2663 2505 2880 
Q 2244 3097 1772 3097 
Q 1472 3097 1187 3025 
Q 903 2953 641 2809 
L 641 3341 
Q 956 3463 1253 3523 
Q 1550 3584 1831 3584 
Q 2591 3584 2966 3190 
Q 3341 2797 3341 1997 
z
" transform="scale(0.015625)"/>
      <path id="DejaVuSans-6c" d="M 603 4863 
L 1178 4863 
L 1178 0 
L 603 0 
L 603 4863 
z
" transform="scale(0.015625)"/>
      <path id="DejaVuSans-5f" d="M 3263 -1063 
L 3263 -1509 
L -63 -1509 
L -63 -1063 
L 3263 -1063 
z
" transform="scale(0.015625)"/>
      <path id="DejaVuSans-7a" d="M 353 3500 
L 3084 3500 
L 3084 2975 
L 922 459 
L 3084 459 
L 3084 0 
L 275 0 
L 275 525 
L 2438 3041 
L 353 3041 
L 353 3500 
z
" transform="scale(0.015625)"/>
      <path id="DejaVuSans-68" d="M 3513 2113 
L 3513 0 
L 2938 0 
L 2938 2094 
Q 2938 2591 2744 2837 
Q 2550 3084 2163 3084 
Q 1697 3084 1428 2787 
Q 1159 2491 1159 1978 
L 1159 0 
L 581 0 
L 581 4863 
L 1159 4863 
L 1159 2956 
Q 1366 3272 1645 3428 
Q 1925 3584 2291 3584 
Q 2894 3584 3203 3211 
Q 3513 2838 3513 2113 
z
" transform="scale(0.015625)"/>
      <path id="DejaVuSans-67" d="M 2906 1791 
Q 2906 2416 2648 2759 
Q 2391 3103 1925 3103 
Q 1463 3103 1205 2759 
Q 947 2416 947 1791 
Q 947 1169 1205 825 
Q 1463 481 1925 481 
Q 2391 481 2648 825 
Q 2906 1169 2906 1791 
z
M 3481 434 
Q 3481 -459 3084 -895 
Q 2688 -1331 1869 -1331 
Q 1566 -1331 1297 -1286 
Q 1028 -1241 775 -1147 
L 775 -588 
Q 1028 -725 1275 -790 
Q 1522 -856 1778 -856 
Q 2344 -856 2625 -561 
Q 2906 -266 2906 331 
L 2906 616 
Q 2728 306 2450 153 
Q 2172 0 1784 0 
Q 1141 0 747 490 
Q 353 981 353 1791 
Q 353 2603 747 3093 
Q 1141 3584 1784 3584 
Q 2172 3584 2450 3431 
Q 2728 3278 2906 2969 
L 2906 3500 
L 3481 3500 
L 3481 434 
z
" transform="scale(0.015625)"/>
      <path id="DejaVuSans-70" d="M 1159 525 
L 1159 -1331 
L 581 -1331 
L 581 3500 
L 1159 3500 
L 1159 2969 
Q 1341 3281 1617 3432 
Q 1894 3584 2278 3584 
Q 2916 3584 3314 3078 
Q 3713 2572 3713 1747 
Q 3713 922 3314 415 
Q 2916 -91 2278 -91 
Q 1894 -91 1617 61 
Q 1341 213 1159 525 
z
M 3116 1747 
Q 3116 2381 2855 2742 
Q 2594 3103 2138 3103 
Q 1681 3103 1420 2742 
Q 1159 2381 1159 1747 
Q 1159 1113 1420 752 
Q 1681 391 2138 391 
Q 2594 391 2855 752 
Q 3116 1113 3116 1747 
z
" transform="scale(0.015625)"/>
      <path id="DejaVuSans-72" d="M 2631 2963 
Q 2534 3019 2420 3045 
Q 2306 3072 2169 3072 
Q 1681 3072 1420 2755 
Q 1159 2438 1159 1844 
L 1159 0 
L 581 0 
L 581 3500 
L 1159 3500 
L 1159 2956 
Q 1341 3275 1631 3429 
Q 1922 3584 2338 3584 
Q 2397 3584 2469 3576 
Q 2541 3569 2628 3553 
L 2631 2963 
z
" transform="scale(0.015625)"/>
      <path id="DejaVuSans-73" d="M 2834 3397 
L 2834 2853 
Q 2591 2978 2328 3040 
Q 2066 3103 1784 3103 
Q 1356 3103 1142 2972 
Q 928 2841 928 2578 
Q 928 2378 1081 2264 
Q 1234 2150 1697 2047 
L 1894 2003 
Q 2506 1872 2764 1633 
Q 3022 1394 3022 966 
Q 3022 478 2636 193 
Q 2250 -91 1575 -91 
Q 1294 -91 989 -36 
Q 684 19 347 128 
L 347 722 
Q 666 556 975 473 
Q 1284 391 1588 391 
Q 1994 391 2212 530 
Q 2431 669 2431 922 
Q 2431 1156 2273 1281 
Q 2116 1406 1581 1522 
L 1381 1569 
Q 847 1681 609 1914 
Q 372 2147 372 2553 
Q 372 3047 722 3315 
Q 1072 3584 1716 3584 
Q 2034 3584 2315 3537 
Q 2597 3491 2834 3397 
z
" transform="scale(0.015625)"/>
      <path id="DejaVuSans-35" d="M 691 4666 
L 3169 4666 
L 3169 4134 
L 1269 4134 
L 1269 2991 
Q 1406 3038 1543 3061 
Q 1681 3084 1819 3084 
Q 2600 3084 3056 2656 
Q 3513 2228 3513 1497 
Q 3513 744 3044 326 
Q 2575 -91 1722 -91 
Q 1428 -91 1123 -41 
Q 819 9 494 109 
L 494 744 
Q 775 591 1075 516 
Q 1375 441 1709 441 
Q 2250 441 2565 725 
Q 2881 1009 2881 1497 
Q 2881 1984 2565 2268 
Q 2250 2553 1709 2553 
Q 1456 2553 1204 2497 
Q 953 2441 691 2322 
L 691 4666 
z
" transform="scale(0.015625)"/>
     </defs>
     <use xlink:href="#DejaVuSans-31"/>
     <use xlink:href="#DejaVuSans-66" x="63.623047"/>
     <use xlink:href="#DejaVuSans-69" x="98.828125"/>
     <use xlink:href="#DejaVuSans-6e" x="126.611328"/>
     <use xlink:href="#DejaVuSans-61" x="189.990234"/>
     <use xlink:href="#DejaVuSans-6c" x="251.269531"/>
     <use xlink:href="#DejaVuSans-5f" x="279.052734"/>
     <use xlink:href="#DejaVuSans-7a" x="329.052734"/>
     <use xlink:href="#DejaVuSans-68" x="381.542969"/>
     <use xlink:href="#DejaVuSans-61" x="444.921875"/>
     <use xlink:href="#DejaVuSans-6e" x="506.201172"/>
     <use xlink:href="#DejaVuSans-67" x="569.580078"/>
     <use xlink:href="#DejaVuSans-5f" x="633.056641"/>
     <use xlink:href="#DejaVuSans-70" x="683.056641"/>
     <use xlink:href="#DejaVuSans-72" x="746.533203"/>
     <use xlink:href="#DejaVuSans-5f" x="787.646484"/>
     <use xlink:href="#DejaVuSans-73" x="837.646484"/>
     <use xlink:href="#DejaVuSans-6e" x="889.746094"/>
     <use xlink:href="#DejaVuSans-70" x="953.125"/>
     <use xlink:href="#DejaVuSans-35" x="1016.601562"/>
     <use xlink:href="#DejaVuSans-30" x="1080.224609"/>
     <use xlink:href="#DejaVuSans-30" x="1143.847656"/>
    </g>
   </g>
   <g id="legend_1">
    <g id="patch_7">
     <path d="M 64.6 302.584 
L 225.001563 302.584 
Q 227.001563 302.584 227.001563 300.584 
L 227.001563 213.51525 
Q 227.001563 211.51525 225.001563 211.51525 
L 64.6 211.51525 
Q 62.6 211.51525 62.6 213.51525 
L 62.6 300.584 
Q 62.6 302.584 64.6 302.584 
z
" style="fill: #ffffff; opacity: 0.8; stroke: #cccccc; stroke-linejoin: miter"/>
    </g>
    <g id="line2d_22">
     <path d="M 66.6 219.613687 
L 76.6 219.613687 
L 86.6 219.613687 
" style="fill: none; stroke: #008000; stroke-opacity: 0.8; stroke-width: 0.5; stroke-linecap: square"/>
    </g>
    <g id="text_17">
     <!-- Positive predictions -->
     <g transform="translate(94.6 223.113687) scale(0.1 -0.1)">
      <defs>
       <path id="DejaVuSans-50" d="M 1259 4147 
L 1259 2394 
L 2053 2394 
Q 2494 2394 2734 2622 
Q 2975 2850 2975 3272 
Q 2975 3691 2734 3919 
Q 2494 4147 2053 4147 
L 1259 4147 
z
M 628 4666 
L 2053 4666 
Q 2838 4666 3239 4311 
Q 3641 3956 3641 3272 
Q 3641 2581 3239 2228 
Q 2838 1875 2053 1875 
L 1259 1875 
L 1259 0 
L 628 0 
L 628 4666 
z
" transform="scale(0.015625)"/>
       <path id="DejaVuSans-6f" d="M 1959 3097 
Q 1497 3097 1228 2736 
Q 959 2375 959 1747 
Q 959 1119 1226 758 
Q 1494 397 1959 397 
Q 2419 397 2687 759 
Q 2956 1122 2956 1747 
Q 2956 2369 2687 2733 
Q 2419 3097 1959 3097 
z
M 1959 3584 
Q 2709 3584 3137 3096 
Q 3566 2609 3566 1747 
Q 3566 888 3137 398 
Q 2709 -91 1959 -91 
Q 1206 -91 779 398 
Q 353 888 353 1747 
Q 353 2609 779 3096 
Q 1206 3584 1959 3584 
z
" transform="scale(0.015625)"/>
       <path id="DejaVuSans-74" d="M 1172 4494 
L 1172 3500 
L 2356 3500 
L 2356 3053 
L 1172 3053 
L 1172 1153 
Q 1172 725 1289 603 
Q 1406 481 1766 481 
L 2356 481 
L 2356 0 
L 1766 0 
Q 1100 0 847 248 
Q 594 497 594 1153 
L 594 3053 
L 172 3053 
L 172 3500 
L 594 3500 
L 594 4494 
L 1172 4494 
z
" transform="scale(0.015625)"/>
       <path id="DejaVuSans-76" d="M 191 3500 
L 800 3500 
L 1894 563 
L 2988 3500 
L 3597 3500 
L 2284 0 
L 1503 0 
L 191 3500 
z
" transform="scale(0.015625)"/>
       <path id="DejaVuSans-65" d="M 3597 1894 
L 3597 1613 
L 953 1613 
Q 991 1019 1311 708 
Q 1631 397 2203 397 
Q 2534 397 2845 478 
Q 3156 559 3463 722 
L 3463 178 
Q 3153 47 2828 -22 
Q 2503 -91 2169 -91 
Q 1331 -91 842 396 
Q 353 884 353 1716 
Q 353 2575 817 3079 
Q 1281 3584 2069 3584 
Q 2775 3584 3186 3129 
Q 3597 2675 3597 1894 
z
M 3022 2063 
Q 3016 2534 2758 2815 
Q 2500 3097 2075 3097 
Q 1594 3097 1305 2825 
Q 1016 2553 972 2059 
L 3022 2063 
z
" transform="scale(0.015625)"/>
       <path id="DejaVuSans-20" transform="scale(0.015625)"/>
       <path id="DejaVuSans-64" d="M 2906 2969 
L 2906 4863 
L 3481 4863 
L 3481 0 
L 2906 0 
L 2906 525 
Q 2725 213 2448 61 
Q 2172 -91 1784 -91 
Q 1150 -91 751 415 
Q 353 922 353 1747 
Q 353 2572 751 3078 
Q 1150 3584 1784 3584 
Q 2172 3584 2448 3432 
Q 2725 3281 2906 2969 
z
M 947 1747 
Q 947 1113 1208 752 
Q 1469 391 1925 391 
Q 2381 391 2643 752 
Q 2906 1113 2906 1747 
Q 2906 2381 2643 2742 
Q 2381 3103 1925 3103 
Q 1469 3103 1208 2742 
Q 947 2381 947 1747 
z
" transform="scale(0.015625)"/>
       <path id="DejaVuSans-63" d="M 3122 3366 
L 3122 2828 
Q 2878 2963 2633 3030 
Q 2388 3097 2138 3097 
Q 1578 3097 1268 2742 
Q 959 2388 959 1747 
Q 959 1106 1268 751 
Q 1578 397 2138 397 
Q 2388 397 2633 464 
Q 2878 531 3122 666 
L 3122 134 
Q 2881 22 2623 -34 
Q 2366 -91 2075 -91 
Q 1284 -91 818 406 
Q 353 903 353 1747 
Q 353 2603 823 3093 
Q 1294 3584 2113 3584 
Q 2378 3584 2631 3529 
Q 2884 3475 3122 3366 
z
" transform="scale(0.015625)"/>
      </defs>
      <use xlink:href="#DejaVuSans-50"/>
      <use xlink:href="#DejaVuSans-6f" x="56.677734"/>
      <use xlink:href="#DejaVuSans-73" x="117.859375"/>
      <use xlink:href="#DejaVuSans-69" x="169.958984"/>
      <use xlink:href="#DejaVuSans-74" x="197.742188"/>
      <use xlink:href="#DejaVuSans-69" x="236.951172"/>
      <use xlink:href="#DejaVuSans-76" x="264.734375"/>
      <use xlink:href="#DejaVuSans-65" x="323.914062"/>
      <use xlink:href="#DejaVuSans-20" x="385.4375"/>
      <use xlink:href="#DejaVuSans-70" x="417.224609"/>
      <use xlink:href="#DejaVuSans-72" x="480.701172"/>
      <use xlink:href="#DejaVuSans-65" x="519.564453"/>
      <use xlink:href="#DejaVuSans-64" x="581.087891"/>
      <use xlink:href="#DejaVuSans-69" x="644.564453"/>
      <use xlink:href="#DejaVuSans-63" x="672.347656"/>
      <use xlink:href="#DejaVuSans-74" x="727.328125"/>
      <use xlink:href="#DejaVuSans-69" x="766.537109"/>
      <use xlink:href="#DejaVuSans-6f" x="794.320312"/>
      <use xlink:href="#DejaVuSans-6e" x="855.501953"/>
      <use xlink:href="#DejaVuSans-73" x="918.880859"/>
     </g>
    </g>
    <g id="line2d_23">
     <path d="M 66.6 234.291812 
L 76.6 234.291812 
L 86.6 234.291812 
" style="fill: none; stroke: #32cd32; stroke-opacity: 0.8; stroke-width: 0.5; stroke-linecap: square"/>
    </g>
    <g id="text_18">
     <!-- Positive predictions max -->
     <g transform="translate(94.6 237.791812) scale(0.1 -0.1)">
      <defs>
       <path id="DejaVuSans-6d" d="M 3328 2828 
Q 3544 3216 3844 3400 
Q 4144 3584 4550 3584 
Q 5097 3584 5394 3201 
Q 5691 2819 5691 2113 
L 5691 0 
L 5113 0 
L 5113 2094 
Q 5113 2597 4934 2840 
Q 4756 3084 4391 3084 
Q 3944 3084 3684 2787 
Q 3425 2491 3425 1978 
L 3425 0 
L 2847 0 
L 2847 2094 
Q 2847 2600 2669 2842 
Q 2491 3084 2119 3084 
Q 1678 3084 1418 2786 
Q 1159 2488 1159 1978 
L 1159 0 
L 581 0 
L 581 3500 
L 1159 3500 
L 1159 2956 
Q 1356 3278 1631 3431 
Q 1906 3584 2284 3584 
Q 2666 3584 2933 3390 
Q 3200 3197 3328 2828 
z
" transform="scale(0.015625)"/>
       <path id="DejaVuSans-78" d="M 3513 3500 
L 2247 1797 
L 3578 0 
L 2900 0 
L 1881 1375 
L 863 0 
L 184 0 
L 1544 1831 
L 300 3500 
L 978 3500 
L 1906 2253 
L 2834 3500 
L 3513 3500 
z
" transform="scale(0.015625)"/>
      </defs>
      <use xlink:href="#DejaVuSans-50"/>
      <use xlink:href="#DejaVuSans-6f" x="56.677734"/>
      <use xlink:href="#DejaVuSans-73" x="117.859375"/>
      <use xlink:href="#DejaVuSans-69" x="169.958984"/>
      <use xlink:href="#DejaVuSans-74" x="197.742188"/>
      <use xlink:href="#DejaVuSans-69" x="236.951172"/>
      <use xlink:href="#DejaVuSans-76" x="264.734375"/>
      <use xlink:href="#DejaVuSans-65" x="323.914062"/>
      <use xlink:href="#DejaVuSans-20" x="385.4375"/>
      <use xlink:href="#DejaVuSans-70" x="417.224609"/>
      <use xlink:href="#DejaVuSans-72" x="480.701172"/>
      <use xlink:href="#DejaVuSans-65" x="519.564453"/>
      <use xlink:href="#DejaVuSans-64" x="581.087891"/>
      <use xlink:href="#DejaVuSans-69" x="644.564453"/>
      <use xlink:href="#DejaVuSans-63" x="672.347656"/>
      <use xlink:href="#DejaVuSans-74" x="727.328125"/>
      <use xlink:href="#DejaVuSans-69" x="766.537109"/>
      <use xlink:href="#DejaVuSans-6f" x="794.320312"/>
      <use xlink:href="#DejaVuSans-6e" x="855.501953"/>
      <use xlink:href="#DejaVuSans-73" x="918.880859"/>
      <use xlink:href="#DejaVuSans-20" x="970.980469"/>
      <use xlink:href="#DejaVuSans-6d" x="1002.767578"/>
      <use xlink:href="#DejaVuSans-61" x="1100.179688"/>
      <use xlink:href="#DejaVuSans-78" x="1161.458984"/>
     </g>
    </g>
    <g id="line2d_24">
     <path d="M 66.6 248.969937 
L 76.6 248.969937 
L 86.6 248.969937 
" style="fill: none; stroke: #32cd32; stroke-opacity: 0.8; stroke-width: 0.5; stroke-linecap: square"/>
    </g>
    <g id="text_19">
     <!-- Positive predictions min -->
     <g transform="translate(94.6 252.469937) scale(0.1 -0.1)">
      <use xlink:href="#DejaVuSans-50"/>
      <use xlink:href="#DejaVuSans-6f" x="56.677734"/>
      <use xlink:href="#DejaVuSans-73" x="117.859375"/>
      <use xlink:href="#DejaVuSans-69" x="169.958984"/>
      <use xlink:href="#DejaVuSans-74" x="197.742188"/>
      <use xlink:href="#DejaVuSans-69" x="236.951172"/>
      <use xlink:href="#DejaVuSans-76" x="264.734375"/>
      <use xlink:href="#DejaVuSans-65" x="323.914062"/>
      <use xlink:href="#DejaVuSans-20" x="385.4375"/>
      <use xlink:href="#DejaVuSans-70" x="417.224609"/>
      <use xlink:href="#DejaVuSans-72" x="480.701172"/>
      <use xlink:href="#DejaVuSans-65" x="519.564453"/>
      <use xlink:href="#DejaVuSans-64" x="581.087891"/>
      <use xlink:href="#DejaVuSans-69" x="644.564453"/>
      <use xlink:href="#DejaVuSans-63" x="672.347656"/>
      <use xlink:href="#DejaVuSans-74" x="727.328125"/>
      <use xlink:href="#DejaVuSans-69" x="766.537109"/>
      <use xlink:href="#DejaVuSans-6f" x="794.320312"/>
      <use xlink:href="#DejaVuSans-6e" x="855.501953"/>
      <use xlink:href="#DejaVuSans-73" x="918.880859"/>
      <use xlink:href="#DejaVuSans-20" x="970.980469"/>
      <use xlink:href="#DejaVuSans-6d" x="1002.767578"/>
      <use xlink:href="#DejaVuSans-69" x="1100.179688"/>
      <use xlink:href="#DejaVuSans-6e" x="1127.962891"/>
     </g>
    </g>
    <g id="line2d_25">
     <path d="M 66.6 263.648062 
L 76.6 263.648062 
L 86.6 263.648062 
" style="fill: none; stroke: #ff0000; stroke-opacity: 0.8; stroke-width: 0.5; stroke-linecap: square"/>
    </g>
    <g id="text_20">
     <!-- Negative predictions -->
     <g transform="translate(94.6 267.148062) scale(0.1 -0.1)">
      <defs>
       <path id="DejaVuSans-4e" d="M 628 4666 
L 1478 4666 
L 3547 763 
L 3547 4666 
L 4159 4666 
L 4159 0 
L 3309 0 
L 1241 3903 
L 1241 0 
L 628 0 
L 628 4666 
z
" transform="scale(0.015625)"/>
      </defs>
      <use xlink:href="#DejaVuSans-4e"/>
      <use xlink:href="#DejaVuSans-65" x="74.804688"/>
      <use xlink:href="#DejaVuSans-67" x="136.328125"/>
      <use xlink:href="#DejaVuSans-61" x="199.804688"/>
      <use xlink:href="#DejaVuSans-74" x="261.083984"/>
      <use xlink:href="#DejaVuSans-69" x="300.292969"/>
      <use xlink:href="#DejaVuSans-76" x="328.076172"/>
      <use xlink:href="#DejaVuSans-65" x="387.255859"/>
      <use xlink:href="#DejaVuSans-20" x="448.779297"/>
      <use xlink:href="#DejaVuSans-70" x="480.566406"/>
      <use xlink:href="#DejaVuSans-72" x="544.042969"/>
      <use xlink:href="#DejaVuSans-65" x="582.90625"/>
      <use xlink:href="#DejaVuSans-64" x="644.429688"/>
      <use xlink:href="#DejaVuSans-69" x="707.90625"/>
      <use xlink:href="#DejaVuSans-63" x="735.689453"/>
      <use xlink:href="#DejaVuSans-74" x="790.669922"/>
      <use xlink:href="#DejaVuSans-69" x="829.878906"/>
      <use xlink:href="#DejaVuSans-6f" x="857.662109"/>
      <use xlink:href="#DejaVuSans-6e" x="918.84375"/>
      <use xlink:href="#DejaVuSans-73" x="982.222656"/>
     </g>
    </g>
    <g id="line2d_26">
     <path d="M 66.6 278.326188 
L 76.6 278.326188 
L 86.6 278.326188 
" style="fill: none; stroke: #f08080; stroke-opacity: 0.8; stroke-width: 0.5; stroke-linecap: square"/>
    </g>
    <g id="text_21">
     <!-- Negative predictions max -->
     <g transform="translate(94.6 281.826188) scale(0.1 -0.1)">
      <use xlink:href="#DejaVuSans-4e"/>
      <use xlink:href="#DejaVuSans-65" x="74.804688"/>
      <use xlink:href="#DejaVuSans-67" x="136.328125"/>
      <use xlink:href="#DejaVuSans-61" x="199.804688"/>
      <use xlink:href="#DejaVuSans-74" x="261.083984"/>
      <use xlink:href="#DejaVuSans-69" x="300.292969"/>
      <use xlink:href="#DejaVuSans-76" x="328.076172"/>
      <use xlink:href="#DejaVuSans-65" x="387.255859"/>
      <use xlink:href="#DejaVuSans-20" x="448.779297"/>
      <use xlink:href="#DejaVuSans-70" x="480.566406"/>
      <use xlink:href="#DejaVuSans-72" x="544.042969"/>
      <use xlink:href="#DejaVuSans-65" x="582.90625"/>
      <use xlink:href="#DejaVuSans-64" x="644.429688"/>
      <use xlink:href="#DejaVuSans-69" x="707.90625"/>
      <use xlink:href="#DejaVuSans-63" x="735.689453"/>
      <use xlink:href="#DejaVuSans-74" x="790.669922"/>
      <use xlink:href="#DejaVuSans-69" x="829.878906"/>
      <use xlink:href="#DejaVuSans-6f" x="857.662109"/>
      <use xlink:href="#DejaVuSans-6e" x="918.84375"/>
      <use xlink:href="#DejaVuSans-73" x="982.222656"/>
      <use xlink:href="#DejaVuSans-20" x="1034.322266"/>
      <use xlink:href="#DejaVuSans-6d" x="1066.109375"/>
      <use xlink:href="#DejaVuSans-61" x="1163.521484"/>
      <use xlink:href="#DejaVuSans-78" x="1224.800781"/>
     </g>
    </g>
    <g id="line2d_27">
     <path d="M 66.6 293.004312 
L 76.6 293.004312 
L 86.6 293.004312 
" style="fill: none; stroke: #f08080; stroke-opacity: 0.8; stroke-width: 0.5; stroke-linecap: square"/>
    </g>
    <g id="text_22">
     <!-- Negative predictions min -->
     <g transform="translate(94.6 296.504312) scale(0.1 -0.1)">
      <use xlink:href="#DejaVuSans-4e"/>
      <use xlink:href="#DejaVuSans-65" x="74.804688"/>
      <use xlink:href="#DejaVuSans-67" x="136.328125"/>
      <use xlink:href="#DejaVuSans-61" x="199.804688"/>
      <use xlink:href="#DejaVuSans-74" x="261.083984"/>
      <use xlink:href="#DejaVuSans-69" x="300.292969"/>
      <use xlink:href="#DejaVuSans-76" x="328.076172"/>
      <use xlink:href="#DejaVuSans-65" x="387.255859"/>
      <use xlink:href="#DejaVuSans-20" x="448.779297"/>
      <use xlink:href="#DejaVuSans-70" x="480.566406"/>
      <use xlink:href="#DejaVuSans-72" x="544.042969"/>
      <use xlink:href="#DejaVuSans-65" x="582.90625"/>
      <use xlink:href="#DejaVuSans-64" x="644.429688"/>
      <use xlink:href="#DejaVuSans-69" x="707.90625"/>
      <use xlink:href="#DejaVuSans-63" x="735.689453"/>
      <use xlink:href="#DejaVuSans-74" x="790.669922"/>
      <use xlink:href="#DejaVuSans-69" x="829.878906"/>
      <use xlink:href="#DejaVuSans-6f" x="857.662109"/>
      <use xlink:href="#DejaVuSans-6e" x="918.84375"/>
      <use xlink:href="#DejaVuSans-73" x="982.222656"/>
      <use xlink:href="#DejaVuSans-20" x="1034.322266"/>
      <use xlink:href="#DejaVuSans-6d" x="1066.109375"/>
      <use xlink:href="#DejaVuSans-69" x="1163.521484"/>
      <use xlink:href="#DejaVuSans-6e" x="1191.304688"/>
     </g>
    </g>
   </g>
  </g>
 </g>
 <defs>
  <clipPath id="p33f16eeeee">
   <rect x="57.6" y="41.472" width="357.12" height="266.112"/>
  </clipPath>
 </defs>
</svg>
