<?xml version="1.0" encoding="utf-8" standalone="no"?>
<!DOCTYPE svg PUBLIC "-//W3C//DTD SVG 1.1//EN"
  "http://www.w3.org/Graphics/SVG/1.1/DTD/svg11.dtd">
<svg xmlns:xlink="http://www.w3.org/1999/xlink" width="460.8pt" height="345.6pt" viewBox="0 0 460.8 345.6" xmlns="http://www.w3.org/2000/svg" version="1.1">
 <metadata>
  <rdf:RDF xmlns:dc="http://purl.org/dc/elements/1.1/" xmlns:cc="http://creativecommons.org/ns#" xmlns:rdf="http://www.w3.org/1999/02/22-rdf-syntax-ns#">
   <cc:Work>
    <dc:type rdf:resource="http://purl.org/dc/dcmitype/StillImage"/>
    <dc:date>2024-09-06T00:42:59.230492</dc:date>
    <dc:format>image/svg+xml</dc:format>
    <dc:creator>
     <cc:Agent>
      <dc:title>Matplotlib v3.9.0, https://matplotlib.org/</dc:title>
     </cc:Agent>
    </dc:creator>
   </cc:Work>
  </rdf:RDF>
 </metadata>
 <defs>
  <style type="text/css">*{stroke-linejoin: round; stroke-linecap: butt}</style>
 </defs>
 <g id="figure_1">
  <g id="patch_1">
   <path d="M 0 345.6 
L 460.8 345.6 
L 460.8 0 
L 0 0 
z
" style="fill: #ffffff"/>
  </g>
  <g id="axes_1">
   <g id="patch_2">
    <path d="M 57.6 307.584 
L 414.72 307.584 
L 414.72 41.472 
L 57.6 41.472 
z
" style="fill: #ffffff"/>
   </g>
   <g id="matplotlib.axis_1">
    <g id="xtick_1">
     <g id="line2d_1">
      <defs>
       <path id="mec5c83c451" d="M 0 0 
L 0 3.5 
" style="stroke: #000000; stroke-width: 0.8"/>
      </defs>
      <g>
       <use xlink:href="#mec5c83c451" x="73.832727" y="307.584" style="stroke: #000000; stroke-width: 0.8"/>
      </g>
     </g>
     <g id="text_1">
      <!-- 0 -->
      <g transform="translate(70.651477 322.182437) scale(0.1 -0.1)">
       <defs>
        <path id="DejaVuSans-30" d="M 2034 4250 
Q 1547 4250 1301 3770 
Q 1056 3291 1056 2328 
Q 1056 1369 1301 889 
Q 1547 409 2034 409 
Q 2525 409 2770 889 
Q 3016 1369 3016 2328 
Q 3016 3291 2770 3770 
Q 2525 4250 2034 4250 
z
M 2034 4750 
Q 2819 4750 3233 4129 
Q 3647 3509 3647 2328 
Q 3647 1150 3233 529 
Q 2819 -91 2034 -91 
Q 1250 -91 836 529 
Q 422 1150 422 2328 
Q 422 3509 836 4129 
Q 1250 4750 2034 4750 
z
" transform="scale(0.015625)"/>
       </defs>
       <use xlink:href="#DejaVuSans-30"/>
      </g>
     </g>
    </g>
    <g id="xtick_2">
     <g id="line2d_2">
      <g>
       <use xlink:href="#mec5c83c451" x="149.333784" y="307.584" style="stroke: #000000; stroke-width: 0.8"/>
      </g>
     </g>
     <g id="text_2">
      <!-- 50 -->
      <g transform="translate(142.971284 322.182437) scale(0.1 -0.1)">
       <defs>
        <path id="DejaVuSans-35" d="M 691 4666 
L 3169 4666 
L 3169 4134 
L 1269 4134 
L 1269 2991 
Q 1406 3038 1543 3061 
Q 1681 3084 1819 3084 
Q 2600 3084 3056 2656 
Q 3513 2228 3513 1497 
Q 3513 744 3044 326 
Q 2575 -91 1722 -91 
Q 1428 -91 1123 -41 
Q 819 9 494 109 
L 494 744 
Q 775 591 1075 516 
Q 1375 441 1709 441 
Q 2250 441 2565 725 
Q 2881 1009 2881 1497 
Q 2881 1984 2565 2268 
Q 2250 2553 1709 2553 
Q 1456 2553 1204 2497 
Q 953 2441 691 2322 
L 691 4666 
z
" transform="scale(0.015625)"/>
       </defs>
       <use xlink:href="#DejaVuSans-35"/>
       <use xlink:href="#DejaVuSans-30" x="63.623047"/>
      </g>
     </g>
    </g>
    <g id="xtick_3">
     <g id="line2d_3">
      <g>
       <use xlink:href="#mec5c83c451" x="224.834841" y="307.584" style="stroke: #000000; stroke-width: 0.8"/>
      </g>
     </g>
     <g id="text_3">
      <!-- 100 -->
      <g transform="translate(215.291091 322.182437) scale(0.1 -0.1)">
       <defs>
        <path id="DejaVuSans-31" d="M 794 531 
L 1825 531 
L 1825 4091 
L 703 3866 
L 703 4441 
L 1819 4666 
L 2450 4666 
L 2450 531 
L 3481 531 
L 3481 0 
L 794 0 
L 794 531 
z
" transform="scale(0.015625)"/>
       </defs>
       <use xlink:href="#DejaVuSans-31"/>
       <use xlink:href="#DejaVuSans-30" x="63.623047"/>
       <use xlink:href="#DejaVuSans-30" x="127.246094"/>
      </g>
     </g>
    </g>
    <g id="xtick_4">
     <g id="line2d_4">
      <g>
       <use xlink:href="#mec5c83c451" x="300.335899" y="307.584" style="stroke: #000000; stroke-width: 0.8"/>
      </g>
     </g>
     <g id="text_4">
      <!-- 150 -->
      <g transform="translate(290.792149 322.182437) scale(0.1 -0.1)">
       <use xlink:href="#DejaVuSans-31"/>
       <use xlink:href="#DejaVuSans-35" x="63.623047"/>
       <use xlink:href="#DejaVuSans-30" x="127.246094"/>
      </g>
     </g>
    </g>
    <g id="xtick_5">
     <g id="line2d_5">
      <g>
       <use xlink:href="#mec5c83c451" x="375.836956" y="307.584" style="stroke: #000000; stroke-width: 0.8"/>
      </g>
     </g>
     <g id="text_5">
      <!-- 200 -->
      <g transform="translate(366.293206 322.182437) scale(0.1 -0.1)">
       <defs>
        <path id="DejaVuSans-32" d="M 1228 531 
L 3431 531 
L 3431 0 
L 469 0 
L 469 531 
Q 828 903 1448 1529 
Q 2069 2156 2228 2338 
Q 2531 2678 2651 2914 
Q 2772 3150 2772 3378 
Q 2772 3750 2511 3984 
Q 2250 4219 1831 4219 
Q 1534 4219 1204 4116 
Q 875 4013 500 3803 
L 500 4441 
Q 881 4594 1212 4672 
Q 1544 4750 1819 4750 
Q 2544 4750 2975 4387 
Q 3406 4025 3406 3419 
Q 3406 3131 3298 2873 
Q 3191 2616 2906 2266 
Q 2828 2175 2409 1742 
Q 1991 1309 1228 531 
z
" transform="scale(0.015625)"/>
       </defs>
       <use xlink:href="#DejaVuSans-32"/>
       <use xlink:href="#DejaVuSans-30" x="63.623047"/>
       <use xlink:href="#DejaVuSans-30" x="127.246094"/>
      </g>
     </g>
    </g>
   </g>
   <g id="matplotlib.axis_2">
    <g id="ytick_1">
     <g id="line2d_6">
      <defs>
       <path id="me95290a120" d="M 0 0 
L -3.5 0 
" style="stroke: #000000; stroke-width: 0.8"/>
      </defs>
      <g>
       <use xlink:href="#me95290a120" x="57.6" y="293.802881" style="stroke: #000000; stroke-width: 0.8"/>
      </g>
     </g>
     <g id="text_6">
      <!-- −1500 -->
      <g transform="translate(16.770313 297.6021) scale(0.1 -0.1)">
       <defs>
        <path id="DejaVuSans-2212" d="M 678 2272 
L 4684 2272 
L 4684 1741 
L 678 1741 
L 678 2272 
z
" transform="scale(0.015625)"/>
       </defs>
       <use xlink:href="#DejaVuSans-2212"/>
       <use xlink:href="#DejaVuSans-31" x="83.789062"/>
       <use xlink:href="#DejaVuSans-35" x="147.412109"/>
       <use xlink:href="#DejaVuSans-30" x="211.035156"/>
       <use xlink:href="#DejaVuSans-30" x="274.658203"/>
      </g>
     </g>
    </g>
    <g id="ytick_2">
     <g id="line2d_7">
      <g>
       <use xlink:href="#me95290a120" x="57.6" y="255.24583" style="stroke: #000000; stroke-width: 0.8"/>
      </g>
     </g>
     <g id="text_7">
      <!-- −1000 -->
      <g transform="translate(16.770313 259.045049) scale(0.1 -0.1)">
       <use xlink:href="#DejaVuSans-2212"/>
       <use xlink:href="#DejaVuSans-31" x="83.789062"/>
       <use xlink:href="#DejaVuSans-30" x="147.412109"/>
       <use xlink:href="#DejaVuSans-30" x="211.035156"/>
       <use xlink:href="#DejaVuSans-30" x="274.658203"/>
      </g>
     </g>
    </g>
    <g id="ytick_3">
     <g id="line2d_8">
      <g>
       <use xlink:href="#me95290a120" x="57.6" y="216.68878" style="stroke: #000000; stroke-width: 0.8"/>
      </g>
     </g>
     <g id="text_8">
      <!-- −500 -->
      <g transform="translate(23.132812 220.487998) scale(0.1 -0.1)">
       <use xlink:href="#DejaVuSans-2212"/>
       <use xlink:href="#DejaVuSans-35" x="83.789062"/>
       <use xlink:href="#DejaVuSans-30" x="147.412109"/>
       <use xlink:href="#DejaVuSans-30" x="211.035156"/>
      </g>
     </g>
    </g>
    <g id="ytick_4">
     <g id="line2d_9">
      <g>
       <use xlink:href="#me95290a120" x="57.6" y="178.131729" style="stroke: #000000; stroke-width: 0.8"/>
      </g>
     </g>
     <g id="text_9">
      <!-- 0 -->
      <g transform="translate(44.2375 181.930948) scale(0.1 -0.1)">
       <use xlink:href="#DejaVuSans-30"/>
      </g>
     </g>
    </g>
    <g id="ytick_5">
     <g id="line2d_10">
      <g>
       <use xlink:href="#me95290a120" x="57.6" y="139.574678" style="stroke: #000000; stroke-width: 0.8"/>
      </g>
     </g>
     <g id="text_10">
      <!-- 500 -->
      <g transform="translate(31.5125 143.373897) scale(0.1 -0.1)">
       <use xlink:href="#DejaVuSans-35"/>
       <use xlink:href="#DejaVuSans-30" x="63.623047"/>
       <use xlink:href="#DejaVuSans-30" x="127.246094"/>
      </g>
     </g>
    </g>
    <g id="ytick_6">
     <g id="line2d_11">
      <g>
       <use xlink:href="#me95290a120" x="57.6" y="101.017628" style="stroke: #000000; stroke-width: 0.8"/>
      </g>
     </g>
     <g id="text_11">
      <!-- 1000 -->
      <g transform="translate(25.15 104.816846) scale(0.1 -0.1)">
       <use xlink:href="#DejaVuSans-31"/>
       <use xlink:href="#DejaVuSans-30" x="63.623047"/>
       <use xlink:href="#DejaVuSans-30" x="127.246094"/>
       <use xlink:href="#DejaVuSans-30" x="190.869141"/>
      </g>
     </g>
    </g>
    <g id="ytick_7">
     <g id="line2d_12">
      <g>
       <use xlink:href="#me95290a120" x="57.6" y="62.460577" style="stroke: #000000; stroke-width: 0.8"/>
      </g>
     </g>
     <g id="text_12">
      <!-- 1500 -->
      <g transform="translate(25.15 66.259796) scale(0.1 -0.1)">
       <use xlink:href="#DejaVuSans-31"/>
       <use xlink:href="#DejaVuSans-35" x="63.623047"/>
       <use xlink:href="#DejaVuSans-30" x="127.246094"/>
       <use xlink:href="#DejaVuSans-30" x="190.869141"/>
      </g>
     </g>
    </g>
   </g>
   <g id="line2d_13">
    <path d="M 73.832727 178.972273 
L 75.342748 181.015796 
L 76.85277 180.621658 
L 78.362791 180.531691 
L 79.872812 180.223235 
L 81.382833 179.683436 
L 82.892854 180.338906 
L 84.402875 179.76055 
L 85.912896 182.189644 
L 87.422918 185.544108 
L 88.932939 188.165987 
L 90.44296 180.685919 
L 91.952981 178.978124 
L 93.463002 177.667184 
L 94.973023 180.751749 
L 96.483044 181.330104 
L 97.993066 181.715675 
L 99.503087 183.296514 
L 101.013108 183.887722 
L 102.523129 184.350407 
L 104.03315 183.3325 
L 105.543171 184.265581 
L 107.053192 182.954641 
L 108.563214 182.267041 
L 110.073235 182.228484 
L 111.583256 183.282376 
L 113.093277 183.667947 
L 114.603298 183.174417 
L 116.113319 182.91737 
L 117.62334 182.840255 
L 119.133362 183.097302 
L 120.643383 183.020188 
L 122.153404 182.218202 
L 123.663425 182.295316 
L 125.173446 182.835115 
L 126.683467 183.040752 
L 128.193488 187.127799 
L 129.70351 188.207397 
L 131.213531 185.354175 
L 132.723552 186.549444 
L 134.233573 186.973571 
L 137.253615 185.701189 
L 138.763636 186.133028 
L 140.273658 186.210142 
L 141.783679 186.672826 
L 144.803721 189.055652 
L 146.313742 188.670082 
L 147.823763 189.826793 
L 149.333784 190.096692 
L 150.843805 190.482263 
L 152.353827 189.325551 
L 153.863848 188.014612 
L 155.373869 188.81708 
L 156.88389 188.16161 
L 158.393911 186.564895 
L 159.903932 189.880801 
L 161.413953 191.654426 
L 162.923975 192.181372 
L 165.944017 189.039467 
L 167.454038 189.039467 
L 168.964059 189.270809 
L 170.47408 188.73101 
L 171.984101 190.755255 
L 173.494123 189.907 
L 175.004144 191.744886 
L 176.514165 191.205088 
L 178.024186 191.706329 
L 179.534207 191.205088 
L 181.044228 192.14588 
L 182.554249 193.688162 
L 184.064271 193.580202 
L 185.574292 195.517694 
L 187.084313 195.671922 
L 188.594334 194.695143 
L 190.104355 192.960076 
L 191.614376 193.092884 
L 193.124397 192.283186 
L 194.634419 191.897615 
L 196.14444 194.133924 
L 197.654461 193.774058 
L 199.164482 196.177448 
L 200.674503 197.835401 
L 202.184524 198.015334 
L 203.694545 199.711844 
L 205.204567 198.169562 
L 206.714588 196.875147 
L 208.224609 196.913704 
L 209.73463 197.414945 
L 211.244651 199.831187 
L 212.754672 202.568738 
L 214.264693 201.54055 
L 215.774715 203.234792 
L 217.284736 202.425094 
L 218.794757 200.612913 
L 220.304778 201.538282 
L 221.814799 201.03704 
L 223.32482 204.0959 
L 224.834841 203.633215 
L 226.344863 204.520027 
L 229.364905 202.283718 
L 230.874926 203.247644 
L 232.384947 203.864557 
L 233.894968 203.96095 
L 235.404989 205.927359 
L 236.915011 211.988528 
L 238.425032 209.498844 
L 239.935053 208.837205 
L 241.445074 209.801131 
L 242.955095 210.983547 
L 244.465116 209.325594 
L 245.975137 215.093729 
L 247.485159 213.088762 
L 248.99518 215.534381 
L 250.505201 212.893223 
L 252.015222 214.536551 
L 253.525243 215.693263 
L 255.035264 219.317626 
L 256.545285 217.023481 
L 258.055307 215.876794 
L 259.565328 215.722566 
L 261.075349 216.313774 
L 262.58537 215.58119 
L 264.095391 217.617003 
L 265.605412 222.051063 
L 267.115433 216.498848 
L 268.625455 216.903697 
L 270.135476 217.636281 
L 271.645497 221.067859 
L 273.155518 220.181046 
L 274.665539 222.449486 
L 276.17556 221.562674 
L 277.685581 223.126989 
L 279.195603 223.435445 
L 280.705624 221.190568 
L 282.215645 223.70358 
L 283.725666 225.284419 
L 285.235687 231.648362 
L 286.745708 234.918 
L 288.255729 233.915517 
L 289.765751 233.761289 
L 291.275772 231.602094 
L 292.785793 235.072228 
L 294.295814 240.508772 
L 295.805835 233.260047 
L 298.825877 230.423288 
L 300.335899 229.806375 
L 301.84592 230.461845 
L 303.355941 231.69567 
L 304.865962 235.217214 
L 306.375983 234.985872 
L 307.886004 232.865234 
L 309.396025 231.09161 
L 312.416068 237.993322 
L 313.926089 238.211812 
L 315.43611 241.604832 
L 316.946131 241.087066 
L 318.456152 239.339147 
L 319.966173 240.37858 
L 321.476195 239.093345 
L 322.986216 238.127432 
L 324.496237 237.587633 
L 326.006258 238.320217 
L 327.516279 239.746828 
L 329.0263 239.232734 
L 330.536321 241.880318 
L 332.046342 249.514614 
L 333.556364 249.900185 
L 335.066385 245.967365 
L 336.576406 244.131822 
L 338.086427 245.32709 
L 339.596448 244.273198 
L 341.106469 246.027543 
L 342.61649 252.543685 
L 344.126512 250.718651 
L 345.636533 251.952477 
L 347.146554 254.998484 
L 348.656575 256.643585 
L 350.166596 254.175934 
L 351.676617 256.860906 
L 353.186638 255.010168 
L 354.69666 254.031412 
L 356.206681 254.416983 
L 357.716702 255.522285 
L 359.226723 255.425892 
L 360.736744 257.353745 
L 362.246765 259.512939 
L 363.756786 265.887705 
L 365.266808 269.735699 
L 366.776829 283.116831 
L 368.28685 285.942012 
L 369.796871 279.233085 
L 371.306892 273.962029 
L 372.816913 276.583908 
L 377.346977 279.013003 
L 378.856998 282.753036 
L 380.367019 283.421359 
L 381.87704 281.364983 
L 383.387061 281.699144 
L 384.897082 283.935453 
L 386.407104 284.500956 
L 387.917125 284.366006 
L 389.427146 288.328485 
L 390.937167 288.058586 
L 392.447188 287.518787 
L 393.957209 286.246404 
L 395.46723 286.491355 
L 396.977252 292.776154 
L 398.487273 295.488 
L 398.487273 295.488 
" clip-path="url(#p0afe5b28ec)" style="fill: none; stroke: #1f77b4; stroke-opacity: 0.7; stroke-width: 1.5; stroke-linecap: square"/>
   </g>
   <g id="line2d_14">
    <path d="M 73.832727 177.881108 
L 75.342748 179.712568 
L 78.362791 177.42485 
L 79.872812 177.116393 
L 81.382833 175.921125 
L 82.892854 175.813165 
L 84.402875 174.425111 
L 85.912896 176.777091 
L 88.932939 183.749986 
L 90.44296 177.580858 
L 93.463002 169.496729 
L 94.973023 170.210035 
L 96.483044 168.989061 
L 97.993066 168.198642 
L 99.503087 168.884101 
L 101.013108 169.038329 
L 102.523129 169.501013 
L 104.03315 167.881617 
L 105.543171 167.997288 
L 107.053192 166.165828 
L 108.563214 164.764922 
L 110.073235 164.148009 
L 111.583256 165.227607 
L 113.093277 165.741701 
L 114.603298 164.515587 
L 117.62334 162.520551 
L 119.133362 162.829008 
L 120.643383 162.597665 
L 122.153404 161.710853 
L 123.663425 161.58233 
L 125.173446 161.890786 
L 126.683467 161.890786 
L 128.193488 165.977834 
L 129.70351 166.545845 
L 131.213531 162.535912 
L 132.723552 162.561616 
L 134.233573 161.655526 
L 135.743594 160.961499 
L 137.253615 160.036129 
L 138.763636 160.113243 
L 140.273658 159.457774 
L 141.783679 159.560592 
L 143.2937 160.276652 
L 144.803721 161.16422 
L 146.313742 160.894321 
L 147.823763 161.858247 
L 150.843805 162.42375 
L 152.353827 161.421267 
L 153.863848 159.531972 
L 155.373869 159.583381 
L 156.88389 158.310998 
L 158.393911 155.86538 
L 159.903932 157.581168 
L 161.413953 158.911387 
L 162.923975 157.677561 
L 164.433996 155.312729 
L 165.944017 152.613735 
L 167.454038 150.917225 
L 168.964059 149.503466 
L 170.47408 147.751875 
L 171.984101 148.532655 
L 173.494123 146.882413 
L 175.004144 148.039125 
L 176.514165 146.980558 
L 178.024186 146.710659 
L 179.534207 145.759585 
L 181.044228 146.280105 
L 182.554249 147.259251 
L 184.064271 146.333882 
L 185.574292 147.644822 
L 187.084313 147.670527 
L 188.594334 146.166802 
L 190.104355 144.161835 
L 191.614376 143.660593 
L 193.124397 141.94866 
L 194.634419 140.676278 
L 196.14444 142.835472 
L 197.654461 141.673381 
L 200.674503 145.288104 
L 202.184524 143.745822 
L 203.694545 144.594077 
L 205.204567 142.704782 
L 206.714588 140.50703 
L 208.224609 139.581661 
L 209.73463 139.118976 
L 211.244651 141.316728 
L 212.754672 143.236012 
L 214.264693 140.382791 
L 215.774715 141.269603 
L 217.284736 139.669485 
L 218.794757 137.240391 
L 220.304778 137.240391 
L 221.814799 135.929451 
L 223.32482 137.722354 
L 224.834841 137.114514 
L 226.344863 136.806057 
L 227.854884 135.72646 
L 229.364905 133.933557 
L 230.874926 133.73306 
L 232.384947 133.315943 
L 233.894968 132.531391 
L 235.404989 133.938723 
L 236.915011 139.5832 
L 238.425032 133.953871 
L 239.935053 131.370548 
L 241.445074 132.334475 
L 242.955095 131.655871 
L 244.465116 129.381005 
L 245.975137 134.007851 
L 247.485159 132.330619 
L 248.99518 132.639075 
L 250.505201 128.063639 
L 252.015222 129.837263 
L 253.525243 129.497961 
L 255.035264 133.122324 
L 256.545285 128.906753 
L 258.055307 126.361987 
L 259.565328 124.125678 
L 261.075349 124.819705 
L 262.58537 124.087121 
L 264.095391 126.092088 
L 265.605412 129.512098 
L 267.115433 125.540722 
L 268.625455 124.384011 
L 270.135476 125.116595 
L 271.645497 127.950538 
L 273.155518 126.421108 
L 274.665539 127.192249 
L 276.17556 125.470034 
L 277.685581 126.04839 
L 279.195603 125.832471 
L 280.705624 122.863578 
L 282.215645 125.125591 
L 283.725666 126.137714 
L 285.235687 130.494661 
L 286.745708 130.623184 
L 288.255729 128.232647 
L 289.765751 126.484727 
L 291.275772 123.014593 
L 292.785793 123.70862 
L 294.295814 127.988452 
L 297.315856 117.578049 
L 298.825877 114.082209 
L 300.335899 113.542411 
L 301.84592 114.46778 
L 306.375983 116.682957 
L 309.396025 112.377419 
L 310.906047 114.59445 
L 312.416068 116.610983 
L 313.926089 113.834876 
L 315.43611 115.762728 
L 316.946131 113.063735 
L 318.456152 110.827426 
L 319.966173 110.570379 
L 321.476195 107.860369 
L 322.986216 105.48911 
L 324.496237 103.484144 
L 326.006258 102.103801 
L 327.516279 103.029171 
L 329.0263 101.564003 
L 330.536321 103.761755 
L 332.046342 110.723055 
L 333.556364 106.713121 
L 335.066385 99.233054 
L 336.576406 95.403053 
L 338.086427 96.598322 
L 339.596448 92.729764 
L 341.106469 91.958623 
L 342.61649 97.202382 
L 344.126512 94.789275 
L 345.636533 93.478335 
L 347.146554 96.524342 
L 348.656575 97.102698 
L 350.166596 93.208436 
L 351.676617 94.622195 
L 353.186638 91.890152 
L 356.206681 88.65136 
L 357.716702 88.042159 
L 359.226723 86.56297 
L 360.736744 87.212014 
L 362.246765 88.627712 
L 363.756786 94.14137 
L 365.266808 93.601572 
L 366.776829 101.814223 
L 368.28685 97.341605 
L 369.796871 85.658819 
L 371.306892 75.556872 
L 372.816913 71.759002 
L 374.326934 67.641109 
L 377.346977 60.910762 
L 378.856998 61.812997 
L 380.367019 59.338919 
L 381.87704 56.485698 
L 383.387061 55.354691 
L 384.897082 57.591 
L 386.407104 57.467617 
L 387.917125 55.925335 
L 389.427146 58.984195 
L 390.937167 58.458319 
L 392.447188 56.761809 
L 393.957209 54.628319 
L 395.46723 53.568 
L 396.977252 59.5829 
L 398.487273 60.993988 
L 398.487273 60.993988 
" clip-path="url(#p0afe5b28ec)" style="fill: none; stroke: #ff7f0e; stroke-opacity: 0.7; stroke-width: 1.5; stroke-linecap: square"/>
   </g>
   <g id="line2d_15">
    <path d="M 73.832727 178.42669 
L 75.342748 180.364182 
L 76.85277 179.601609 
L 78.362791 178.97827 
L 79.872812 178.669814 
L 81.382833 177.80228 
L 82.892854 178.076035 
L 84.402875 177.092831 
L 85.912896 179.483368 
L 88.932939 185.957986 
L 90.44296 179.133388 
L 91.952981 176.178132 
L 93.463002 173.581957 
L 94.973023 175.480892 
L 96.483044 175.159583 
L 97.993066 174.957158 
L 99.503087 176.090307 
L 102.523129 176.92571 
L 104.03315 175.607059 
L 105.543171 176.131435 
L 107.053192 174.560235 
L 108.563214 173.515981 
L 110.073235 173.188247 
L 111.583256 174.254992 
L 113.093277 174.704824 
L 114.603298 173.845002 
L 117.62334 172.680403 
L 119.133362 172.963155 
L 120.643383 172.808927 
L 122.153404 171.964528 
L 123.663425 171.938823 
L 125.173446 172.36295 
L 126.683467 172.465769 
L 128.193488 176.552817 
L 129.70351 177.376621 
L 131.213531 173.945043 
L 132.723552 174.55553 
L 134.233573 174.314548 
L 137.253615 172.868659 
L 138.763636 173.123136 
L 140.273658 172.833958 
L 141.783679 173.116709 
L 144.803721 175.109936 
L 146.313742 174.782201 
L 147.823763 175.84252 
L 150.843805 176.453007 
L 152.353827 175.373409 
L 153.863848 173.773292 
L 155.373869 174.200231 
L 156.88389 173.236304 
L 158.393911 171.215137 
L 159.903932 173.730985 
L 161.413953 175.282906 
L 162.923975 174.929467 
L 164.433996 172.975909 
L 165.944017 170.826601 
L 167.454038 169.978346 
L 168.964059 169.387138 
L 170.47408 168.241442 
L 171.984101 169.643955 
L 173.494123 168.394707 
L 175.004144 169.892006 
L 176.514165 169.092823 
L 178.024186 169.208494 
L 179.534207 168.482336 
L 181.044228 169.212992 
L 182.554249 170.473707 
L 184.064271 169.957042 
L 185.574292 171.581258 
L 187.084313 171.671224 
L 188.594334 170.430973 
L 190.104355 168.560956 
L 191.614376 168.376739 
L 193.124397 167.115923 
L 194.634419 166.286946 
L 196.14444 168.484698 
L 197.654461 167.72372 
L 199.164482 169.812226 
L 200.674503 171.561753 
L 202.184524 170.880578 
L 203.694545 172.152961 
L 206.714588 168.691088 
L 208.224609 168.247682 
L 209.73463 168.266961 
L 212.754672 172.902375 
L 214.264693 170.96167 
L 215.774715 172.252197 
L 217.284736 171.04729 
L 218.794757 168.926652 
L 220.304778 169.389336 
L 221.814799 168.483246 
L 223.32482 170.909127 
L 224.834841 170.373864 
L 226.344863 170.663042 
L 227.854884 169.583445 
L 229.364905 168.108638 
L 230.874926 168.490352 
L 232.384947 168.59025 
L 233.894968 168.24617 
L 235.404989 169.933041 
L 236.915011 175.785864 
L 238.425032 171.726357 
L 239.935053 170.103877 
L 241.445074 171.067803 
L 242.955095 171.319709 
L 244.465116 169.353299 
L 245.975137 174.55079 
L 247.485159 172.709691 
L 248.99518 174.086728 
L 250.505201 170.478431 
L 252.015222 172.186907 
L 253.525243 172.595612 
L 255.035264 176.219975 
L 256.545285 172.965117 
L 258.055307 171.119391 
L 259.565328 169.924122 
L 261.075349 170.56674 
L 262.58537 169.834156 
L 264.095391 171.854545 
L 265.605412 175.781581 
L 267.115433 171.019785 
L 268.625455 170.643854 
L 270.135476 171.376438 
L 271.645497 174.509198 
L 273.155518 173.301077 
L 274.665539 174.820868 
L 276.17556 173.516354 
L 277.685581 174.587689 
L 279.195603 174.633958 
L 280.705624 172.027073 
L 282.215645 174.414586 
L 283.725666 175.711067 
L 285.235687 181.071511 
L 286.745708 182.770592 
L 288.255729 181.074082 
L 289.765751 180.123008 
L 291.275772 177.308343 
L 292.785793 179.390424 
L 294.295814 184.248612 
L 295.805835 177.925256 
L 297.315856 174.725021 
L 298.825877 172.252749 
L 300.335899 171.674393 
L 301.84592 172.464812 
L 303.355941 173.467296 
L 304.865962 175.672957 
L 306.375983 175.834414 
L 309.396025 171.734515 
L 312.416068 177.302153 
L 313.926089 176.023344 
L 315.43611 178.68378 
L 316.946131 177.075401 
L 318.456152 175.083286 
L 319.966173 175.47448 
L 321.476195 173.476857 
L 322.986216 171.808271 
L 324.496237 170.535888 
L 326.006258 170.212009 
L 327.516279 171.387999 
L 329.0263 170.398368 
L 330.536321 172.821036 
L 332.046342 180.118834 
L 333.556364 178.306653 
L 335.066385 172.600209 
L 336.576406 169.767438 
L 338.086427 170.962706 
L 339.596448 168.501481 
L 341.106469 168.993083 
L 342.61649 174.873034 
L 344.126512 172.753963 
L 345.636533 172.715406 
L 347.146554 175.761413 
L 348.656575 176.873141 
L 350.166596 173.692185 
L 351.676617 175.74155 
L 353.186638 173.45016 
L 354.69666 172.151084 
L 356.206681 171.534171 
L 357.716702 171.782222 
L 359.226723 170.994431 
L 360.736744 172.282879 
L 362.246765 174.070326 
L 363.756786 180.014538 
L 365.266808 181.668635 
L 366.776829 192.465527 
L 368.28685 191.641809 
L 369.796871 182.445952 
L 371.306892 174.75945 
L 372.816913 174.171455 
L 374.326934 172.517358 
L 377.346977 169.961882 
L 378.856998 172.283017 
L 380.367019 171.380139 
L 381.87704 168.92534 
L 383.387061 168.526917 
L 384.897082 170.763226 
L 386.407104 170.984287 
L 387.917125 170.145671 
L 389.427146 173.65634 
L 390.937167 173.258452 
L 392.447188 172.140298 
L 393.957209 170.437362 
L 395.46723 170.029677 
L 396.977252 176.179527 
L 398.487273 178.240994 
L 398.487273 178.240994 
" clip-path="url(#p0afe5b28ec)" style="fill: none; stroke: #2ca02c; stroke-opacity: 0.7; stroke-width: 1.5; stroke-linecap: square"/>
   </g>
   <g id="patch_3">
    <path d="M 57.6 307.584 
L 57.6 41.472 
" style="fill: none; stroke: #000000; stroke-width: 0.8; stroke-linejoin: miter; stroke-linecap: square"/>
   </g>
   <g id="patch_4">
    <path d="M 414.72 307.584 
L 414.72 41.472 
" style="fill: none; stroke: #000000; stroke-width: 0.8; stroke-linejoin: miter; stroke-linecap: square"/>
   </g>
   <g id="patch_5">
    <path d="M 57.6 307.584 
L 414.72 307.584 
" style="fill: none; stroke: #000000; stroke-width: 0.8; stroke-linejoin: miter; stroke-linecap: square"/>
   </g>
   <g id="patch_6">
    <path d="M 57.6 41.472 
L 414.72 41.472 
" style="fill: none; stroke: #000000; stroke-width: 0.8; stroke-linejoin: miter; stroke-linecap: square"/>
   </g>
   <g id="text_13">
    <!-- 1final_zhang_aa_cci -->
    <g transform="translate(176.558437 35.472) scale(0.12 -0.12)">
     <defs>
      <path id="DejaVuSans-66" d="M 2375 4863 
L 2375 4384 
L 1825 4384 
Q 1516 4384 1395 4259 
Q 1275 4134 1275 3809 
L 1275 3500 
L 2222 3500 
L 2222 3053 
L 1275 3053 
L 1275 0 
L 697 0 
L 697 3053 
L 147 3053 
L 147 3500 
L 697 3500 
L 697 3744 
Q 697 4328 969 4595 
Q 1241 4863 1831 4863 
L 2375 4863 
z
" transform="scale(0.015625)"/>
      <path id="DejaVuSans-69" d="M 603 3500 
L 1178 3500 
L 1178 0 
L 603 0 
L 603 3500 
z
M 603 4863 
L 1178 4863 
L 1178 4134 
L 603 4134 
L 603 4863 
z
" transform="scale(0.015625)"/>
      <path id="DejaVuSans-6e" d="M 3513 2113 
L 3513 0 
L 2938 0 
L 2938 2094 
Q 2938 2591 2744 2837 
Q 2550 3084 2163 3084 
Q 1697 3084 1428 2787 
Q 1159 2491 1159 1978 
L 1159 0 
L 581 0 
L 581 3500 
L 1159 3500 
L 1159 2956 
Q 1366 3272 1645 3428 
Q 1925 3584 2291 3584 
Q 2894 3584 3203 3211 
Q 3513 2838 3513 2113 
z
" transform="scale(0.015625)"/>
      <path id="DejaVuSans-61" d="M 2194 1759 
Q 1497 1759 1228 1600 
Q 959 1441 959 1056 
Q 959 750 1161 570 
Q 1363 391 1709 391 
Q 2188 391 2477 730 
Q 2766 1069 2766 1631 
L 2766 1759 
L 2194 1759 
z
M 3341 1997 
L 3341 0 
L 2766 0 
L 2766 531 
Q 2569 213 2275 61 
Q 1981 -91 1556 -91 
Q 1019 -91 701 211 
Q 384 513 384 1019 
Q 384 1609 779 1909 
Q 1175 2209 1959 2209 
L 2766 2209 
L 2766 2266 
Q 2766 2663 2505 2880 
Q 2244 3097 1772 3097 
Q 1472 3097 1187 3025 
Q 903 2953 641 2809 
L 641 3341 
Q 956 3463 1253 3523 
Q 1550 3584 1831 3584 
Q 2591 3584 2966 3190 
Q 3341 2797 3341 1997 
z
" transform="scale(0.015625)"/>
      <path id="DejaVuSans-6c" d="M 603 4863 
L 1178 4863 
L 1178 0 
L 603 0 
L 603 4863 
z
" transform="scale(0.015625)"/>
      <path id="DejaVuSans-5f" d="M 3263 -1063 
L 3263 -1509 
L -63 -1509 
L -63 -1063 
L 3263 -1063 
z
" transform="scale(0.015625)"/>
      <path id="DejaVuSans-7a" d="M 353 3500 
L 3084 3500 
L 3084 2975 
L 922 459 
L 3084 459 
L 3084 0 
L 275 0 
L 275 525 
L 2438 3041 
L 353 3041 
L 353 3500 
z
" transform="scale(0.015625)"/>
      <path id="DejaVuSans-68" d="M 3513 2113 
L 3513 0 
L 2938 0 
L 2938 2094 
Q 2938 2591 2744 2837 
Q 2550 3084 2163 3084 
Q 1697 3084 1428 2787 
Q 1159 2491 1159 1978 
L 1159 0 
L 581 0 
L 581 4863 
L 1159 4863 
L 1159 2956 
Q 1366 3272 1645 3428 
Q 1925 3584 2291 3584 
Q 2894 3584 3203 3211 
Q 3513 2838 3513 2113 
z
" transform="scale(0.015625)"/>
      <path id="DejaVuSans-67" d="M 2906 1791 
Q 2906 2416 2648 2759 
Q 2391 3103 1925 3103 
Q 1463 3103 1205 2759 
Q 947 2416 947 1791 
Q 947 1169 1205 825 
Q 1463 481 1925 481 
Q 2391 481 2648 825 
Q 2906 1169 2906 1791 
z
M 3481 434 
Q 3481 -459 3084 -895 
Q 2688 -1331 1869 -1331 
Q 1566 -1331 1297 -1286 
Q 1028 -1241 775 -1147 
L 775 -588 
Q 1028 -725 1275 -790 
Q 1522 -856 1778 -856 
Q 2344 -856 2625 -561 
Q 2906 -266 2906 331 
L 2906 616 
Q 2728 306 2450 153 
Q 2172 0 1784 0 
Q 1141 0 747 490 
Q 353 981 353 1791 
Q 353 2603 747 3093 
Q 1141 3584 1784 3584 
Q 2172 3584 2450 3431 
Q 2728 3278 2906 2969 
L 2906 3500 
L 3481 3500 
L 3481 434 
z
" transform="scale(0.015625)"/>
      <path id="DejaVuSans-63" d="M 3122 3366 
L 3122 2828 
Q 2878 2963 2633 3030 
Q 2388 3097 2138 3097 
Q 1578 3097 1268 2742 
Q 959 2388 959 1747 
Q 959 1106 1268 751 
Q 1578 397 2138 397 
Q 2388 397 2633 464 
Q 2878 531 3122 666 
L 3122 134 
Q 2881 22 2623 -34 
Q 2366 -91 2075 -91 
Q 1284 -91 818 406 
Q 353 903 353 1747 
Q 353 2603 823 3093 
Q 1294 3584 2113 3584 
Q 2378 3584 2631 3529 
Q 2884 3475 3122 3366 
z
" transform="scale(0.015625)"/>
     </defs>
     <use xlink:href="#DejaVuSans-31"/>
     <use xlink:href="#DejaVuSans-66" x="63.623047"/>
     <use xlink:href="#DejaVuSans-69" x="98.828125"/>
     <use xlink:href="#DejaVuSans-6e" x="126.611328"/>
     <use xlink:href="#DejaVuSans-61" x="189.990234"/>
     <use xlink:href="#DejaVuSans-6c" x="251.269531"/>
     <use xlink:href="#DejaVuSans-5f" x="279.052734"/>
     <use xlink:href="#DejaVuSans-7a" x="329.052734"/>
     <use xlink:href="#DejaVuSans-68" x="381.542969"/>
     <use xlink:href="#DejaVuSans-61" x="444.921875"/>
     <use xlink:href="#DejaVuSans-6e" x="506.201172"/>
     <use xlink:href="#DejaVuSans-67" x="569.580078"/>
     <use xlink:href="#DejaVuSans-5f" x="633.056641"/>
     <use xlink:href="#DejaVuSans-61" x="683.056641"/>
     <use xlink:href="#DejaVuSans-61" x="744.335938"/>
     <use xlink:href="#DejaVuSans-5f" x="805.615234"/>
     <use xlink:href="#DejaVuSans-63" x="855.615234"/>
     <use xlink:href="#DejaVuSans-63" x="910.595703"/>
     <use xlink:href="#DejaVuSans-69" x="965.576172"/>
    </g>
   </g>
   <g id="legend_1">
    <g id="patch_7">
     <path d="M 64.6 93.506375 
L 258.804688 93.506375 
Q 260.804688 93.506375 260.804688 91.506375 
L 260.804688 48.472 
Q 260.804688 46.472 258.804688 46.472 
L 64.6 46.472 
Q 62.6 46.472 62.6 48.472 
L 62.6 91.506375 
Q 62.6 93.506375 64.6 93.506375 
z
" style="fill: #ffffff; opacity: 0.8; stroke: #cccccc; stroke-linejoin: miter"/>
    </g>
    <g id="line2d_16">
     <path d="M 66.6 54.570438 
L 76.6 54.570438 
L 86.6 54.570438 
" style="fill: none; stroke: #1f77b4; stroke-opacity: 0.7; stroke-width: 1.5; stroke-linecap: square"/>
    </g>
    <g id="text_14">
     <!-- Positive cumulative predictions -->
     <g transform="translate(94.6 58.070438) scale(0.1 -0.1)">
      <defs>
       <path id="DejaVuSans-50" d="M 1259 4147 
L 1259 2394 
L 2053 2394 
Q 2494 2394 2734 2622 
Q 2975 2850 2975 3272 
Q 2975 3691 2734 3919 
Q 2494 4147 2053 4147 
L 1259 4147 
z
M 628 4666 
L 2053 4666 
Q 2838 4666 3239 4311 
Q 3641 3956 3641 3272 
Q 3641 2581 3239 2228 
Q 2838 1875 2053 1875 
L 1259 1875 
L 1259 0 
L 628 0 
L 628 4666 
z
" transform="scale(0.015625)"/>
       <path id="DejaVuSans-6f" d="M 1959 3097 
Q 1497 3097 1228 2736 
Q 959 2375 959 1747 
Q 959 1119 1226 758 
Q 1494 397 1959 397 
Q 2419 397 2687 759 
Q 2956 1122 2956 1747 
Q 2956 2369 2687 2733 
Q 2419 3097 1959 3097 
z
M 1959 3584 
Q 2709 3584 3137 3096 
Q 3566 2609 3566 1747 
Q 3566 888 3137 398 
Q 2709 -91 1959 -91 
Q 1206 -91 779 398 
Q 353 888 353 1747 
Q 353 2609 779 3096 
Q 1206 3584 1959 3584 
z
" transform="scale(0.015625)"/>
       <path id="DejaVuSans-73" d="M 2834 3397 
L 2834 2853 
Q 2591 2978 2328 3040 
Q 2066 3103 1784 3103 
Q 1356 3103 1142 2972 
Q 928 2841 928 2578 
Q 928 2378 1081 2264 
Q 1234 2150 1697 2047 
L 1894 2003 
Q 2506 1872 2764 1633 
Q 3022 1394 3022 966 
Q 3022 478 2636 193 
Q 2250 -91 1575 -91 
Q 1294 -91 989 -36 
Q 684 19 347 128 
L 347 722 
Q 666 556 975 473 
Q 1284 391 1588 391 
Q 1994 391 2212 530 
Q 2431 669 2431 922 
Q 2431 1156 2273 1281 
Q 2116 1406 1581 1522 
L 1381 1569 
Q 847 1681 609 1914 
Q 372 2147 372 2553 
Q 372 3047 722 3315 
Q 1072 3584 1716 3584 
Q 2034 3584 2315 3537 
Q 2597 3491 2834 3397 
z
" transform="scale(0.015625)"/>
       <path id="DejaVuSans-74" d="M 1172 4494 
L 1172 3500 
L 2356 3500 
L 2356 3053 
L 1172 3053 
L 1172 1153 
Q 1172 725 1289 603 
Q 1406 481 1766 481 
L 2356 481 
L 2356 0 
L 1766 0 
Q 1100 0 847 248 
Q 594 497 594 1153 
L 594 3053 
L 172 3053 
L 172 3500 
L 594 3500 
L 594 4494 
L 1172 4494 
z
" transform="scale(0.015625)"/>
       <path id="DejaVuSans-76" d="M 191 3500 
L 800 3500 
L 1894 563 
L 2988 3500 
L 3597 3500 
L 2284 0 
L 1503 0 
L 191 3500 
z
" transform="scale(0.015625)"/>
       <path id="DejaVuSans-65" d="M 3597 1894 
L 3597 1613 
L 953 1613 
Q 991 1019 1311 708 
Q 1631 397 2203 397 
Q 2534 397 2845 478 
Q 3156 559 3463 722 
L 3463 178 
Q 3153 47 2828 -22 
Q 2503 -91 2169 -91 
Q 1331 -91 842 396 
Q 353 884 353 1716 
Q 353 2575 817 3079 
Q 1281 3584 2069 3584 
Q 2775 3584 3186 3129 
Q 3597 2675 3597 1894 
z
M 3022 2063 
Q 3016 2534 2758 2815 
Q 2500 3097 2075 3097 
Q 1594 3097 1305 2825 
Q 1016 2553 972 2059 
L 3022 2063 
z
" transform="scale(0.015625)"/>
       <path id="DejaVuSans-20" transform="scale(0.015625)"/>
       <path id="DejaVuSans-75" d="M 544 1381 
L 544 3500 
L 1119 3500 
L 1119 1403 
Q 1119 906 1312 657 
Q 1506 409 1894 409 
Q 2359 409 2629 706 
Q 2900 1003 2900 1516 
L 2900 3500 
L 3475 3500 
L 3475 0 
L 2900 0 
L 2900 538 
Q 2691 219 2414 64 
Q 2138 -91 1772 -91 
Q 1169 -91 856 284 
Q 544 659 544 1381 
z
M 1991 3584 
L 1991 3584 
z
" transform="scale(0.015625)"/>
       <path id="DejaVuSans-6d" d="M 3328 2828 
Q 3544 3216 3844 3400 
Q 4144 3584 4550 3584 
Q 5097 3584 5394 3201 
Q 5691 2819 5691 2113 
L 5691 0 
L 5113 0 
L 5113 2094 
Q 5113 2597 4934 2840 
Q 4756 3084 4391 3084 
Q 3944 3084 3684 2787 
Q 3425 2491 3425 1978 
L 3425 0 
L 2847 0 
L 2847 2094 
Q 2847 2600 2669 2842 
Q 2491 3084 2119 3084 
Q 1678 3084 1418 2786 
Q 1159 2488 1159 1978 
L 1159 0 
L 581 0 
L 581 3500 
L 1159 3500 
L 1159 2956 
Q 1356 3278 1631 3431 
Q 1906 3584 2284 3584 
Q 2666 3584 2933 3390 
Q 3200 3197 3328 2828 
z
" transform="scale(0.015625)"/>
       <path id="DejaVuSans-70" d="M 1159 525 
L 1159 -1331 
L 581 -1331 
L 581 3500 
L 1159 3500 
L 1159 2969 
Q 1341 3281 1617 3432 
Q 1894 3584 2278 3584 
Q 2916 3584 3314 3078 
Q 3713 2572 3713 1747 
Q 3713 922 3314 415 
Q 2916 -91 2278 -91 
Q 1894 -91 1617 61 
Q 1341 213 1159 525 
z
M 3116 1747 
Q 3116 2381 2855 2742 
Q 2594 3103 2138 3103 
Q 1681 3103 1420 2742 
Q 1159 2381 1159 1747 
Q 1159 1113 1420 752 
Q 1681 391 2138 391 
Q 2594 391 2855 752 
Q 3116 1113 3116 1747 
z
" transform="scale(0.015625)"/>
       <path id="DejaVuSans-72" d="M 2631 2963 
Q 2534 3019 2420 3045 
Q 2306 3072 2169 3072 
Q 1681 3072 1420 2755 
Q 1159 2438 1159 1844 
L 1159 0 
L 581 0 
L 581 3500 
L 1159 3500 
L 1159 2956 
Q 1341 3275 1631 3429 
Q 1922 3584 2338 3584 
Q 2397 3584 2469 3576 
Q 2541 3569 2628 3553 
L 2631 2963 
z
" transform="scale(0.015625)"/>
       <path id="DejaVuSans-64" d="M 2906 2969 
L 2906 4863 
L 3481 4863 
L 3481 0 
L 2906 0 
L 2906 525 
Q 2725 213 2448 61 
Q 2172 -91 1784 -91 
Q 1150 -91 751 415 
Q 353 922 353 1747 
Q 353 2572 751 3078 
Q 1150 3584 1784 3584 
Q 2172 3584 2448 3432 
Q 2725 3281 2906 2969 
z
M 947 1747 
Q 947 1113 1208 752 
Q 1469 391 1925 391 
Q 2381 391 2643 752 
Q 2906 1113 2906 1747 
Q 2906 2381 2643 2742 
Q 2381 3103 1925 3103 
Q 1469 3103 1208 2742 
Q 947 2381 947 1747 
z
" transform="scale(0.015625)"/>
      </defs>
      <use xlink:href="#DejaVuSans-50"/>
      <use xlink:href="#DejaVuSans-6f" x="56.677734"/>
      <use xlink:href="#DejaVuSans-73" x="117.859375"/>
      <use xlink:href="#DejaVuSans-69" x="169.958984"/>
      <use xlink:href="#DejaVuSans-74" x="197.742188"/>
      <use xlink:href="#DejaVuSans-69" x="236.951172"/>
      <use xlink:href="#DejaVuSans-76" x="264.734375"/>
      <use xlink:href="#DejaVuSans-65" x="323.914062"/>
      <use xlink:href="#DejaVuSans-20" x="385.4375"/>
      <use xlink:href="#DejaVuSans-63" x="417.224609"/>
      <use xlink:href="#DejaVuSans-75" x="472.205078"/>
      <use xlink:href="#DejaVuSans-6d" x="535.583984"/>
      <use xlink:href="#DejaVuSans-75" x="632.996094"/>
      <use xlink:href="#DejaVuSans-6c" x="696.375"/>
      <use xlink:href="#DejaVuSans-61" x="724.158203"/>
      <use xlink:href="#DejaVuSans-74" x="785.4375"/>
      <use xlink:href="#DejaVuSans-69" x="824.646484"/>
      <use xlink:href="#DejaVuSans-76" x="852.429688"/>
      <use xlink:href="#DejaVuSans-65" x="911.609375"/>
      <use xlink:href="#DejaVuSans-20" x="973.132812"/>
      <use xlink:href="#DejaVuSans-70" x="1004.919922"/>
      <use xlink:href="#DejaVuSans-72" x="1068.396484"/>
      <use xlink:href="#DejaVuSans-65" x="1107.259766"/>
      <use xlink:href="#DejaVuSans-64" x="1168.783203"/>
      <use xlink:href="#DejaVuSans-69" x="1232.259766"/>
      <use xlink:href="#DejaVuSans-63" x="1260.042969"/>
      <use xlink:href="#DejaVuSans-74" x="1315.023438"/>
      <use xlink:href="#DejaVuSans-69" x="1354.232422"/>
      <use xlink:href="#DejaVuSans-6f" x="1382.015625"/>
      <use xlink:href="#DejaVuSans-6e" x="1443.197266"/>
      <use xlink:href="#DejaVuSans-73" x="1506.576172"/>
     </g>
    </g>
    <g id="line2d_17">
     <path d="M 66.6 69.248563 
L 76.6 69.248563 
L 86.6 69.248563 
" style="fill: none; stroke: #ff7f0e; stroke-opacity: 0.7; stroke-width: 1.5; stroke-linecap: square"/>
    </g>
    <g id="text_15">
     <!-- Negative cumulative predictions -->
     <g transform="translate(94.6 72.748563) scale(0.1 -0.1)">
      <defs>
       <path id="DejaVuSans-4e" d="M 628 4666 
L 1478 4666 
L 3547 763 
L 3547 4666 
L 4159 4666 
L 4159 0 
L 3309 0 
L 1241 3903 
L 1241 0 
L 628 0 
L 628 4666 
z
" transform="scale(0.015625)"/>
      </defs>
      <use xlink:href="#DejaVuSans-4e"/>
      <use xlink:href="#DejaVuSans-65" x="74.804688"/>
      <use xlink:href="#DejaVuSans-67" x="136.328125"/>
      <use xlink:href="#DejaVuSans-61" x="199.804688"/>
      <use xlink:href="#DejaVuSans-74" x="261.083984"/>
      <use xlink:href="#DejaVuSans-69" x="300.292969"/>
      <use xlink:href="#DejaVuSans-76" x="328.076172"/>
      <use xlink:href="#DejaVuSans-65" x="387.255859"/>
      <use xlink:href="#DejaVuSans-20" x="448.779297"/>
      <use xlink:href="#DejaVuSans-63" x="480.566406"/>
      <use xlink:href="#DejaVuSans-75" x="535.546875"/>
      <use xlink:href="#DejaVuSans-6d" x="598.925781"/>
      <use xlink:href="#DejaVuSans-75" x="696.337891"/>
      <use xlink:href="#DejaVuSans-6c" x="759.716797"/>
      <use xlink:href="#DejaVuSans-61" x="787.5"/>
      <use xlink:href="#DejaVuSans-74" x="848.779297"/>
      <use xlink:href="#DejaVuSans-69" x="887.988281"/>
      <use xlink:href="#DejaVuSans-76" x="915.771484"/>
      <use xlink:href="#DejaVuSans-65" x="974.951172"/>
      <use xlink:href="#DejaVuSans-20" x="1036.474609"/>
      <use xlink:href="#DejaVuSans-70" x="1068.261719"/>
      <use xlink:href="#DejaVuSans-72" x="1131.738281"/>
      <use xlink:href="#DejaVuSans-65" x="1170.601562"/>
      <use xlink:href="#DejaVuSans-64" x="1232.125"/>
      <use xlink:href="#DejaVuSans-69" x="1295.601562"/>
      <use xlink:href="#DejaVuSans-63" x="1323.384766"/>
      <use xlink:href="#DejaVuSans-74" x="1378.365234"/>
      <use xlink:href="#DejaVuSans-69" x="1417.574219"/>
      <use xlink:href="#DejaVuSans-6f" x="1445.357422"/>
      <use xlink:href="#DejaVuSans-6e" x="1506.539062"/>
      <use xlink:href="#DejaVuSans-73" x="1569.917969"/>
     </g>
    </g>
    <g id="line2d_18">
     <path d="M 66.6 83.926688 
L 76.6 83.926688 
L 86.6 83.926688 
" style="fill: none; stroke: #2ca02c; stroke-opacity: 0.7; stroke-width: 1.5; stroke-linecap: square"/>
    </g>
    <g id="text_16">
     <!-- Average cumulative predictions -->
     <g transform="translate(94.6 87.426688) scale(0.1 -0.1)">
      <defs>
       <path id="DejaVuSans-41" d="M 2188 4044 
L 1331 1722 
L 3047 1722 
L 2188 4044 
z
M 1831 4666 
L 2547 4666 
L 4325 0 
L 3669 0 
L 3244 1197 
L 1141 1197 
L 716 0 
L 50 0 
L 1831 4666 
z
" transform="scale(0.015625)"/>
      </defs>
      <use xlink:href="#DejaVuSans-41"/>
      <use xlink:href="#DejaVuSans-76" x="62.533203"/>
      <use xlink:href="#DejaVuSans-65" x="121.712891"/>
      <use xlink:href="#DejaVuSans-72" x="183.236328"/>
      <use xlink:href="#DejaVuSans-61" x="224.349609"/>
      <use xlink:href="#DejaVuSans-67" x="285.628906"/>
      <use xlink:href="#DejaVuSans-65" x="349.105469"/>
      <use xlink:href="#DejaVuSans-20" x="410.628906"/>
      <use xlink:href="#DejaVuSans-63" x="442.416016"/>
      <use xlink:href="#DejaVuSans-75" x="497.396484"/>
      <use xlink:href="#DejaVuSans-6d" x="560.775391"/>
      <use xlink:href="#DejaVuSans-75" x="658.1875"/>
      <use xlink:href="#DejaVuSans-6c" x="721.566406"/>
      <use xlink:href="#DejaVuSans-61" x="749.349609"/>
      <use xlink:href="#DejaVuSans-74" x="810.628906"/>
      <use xlink:href="#DejaVuSans-69" x="849.837891"/>
      <use xlink:href="#DejaVuSans-76" x="877.621094"/>
      <use xlink:href="#DejaVuSans-65" x="936.800781"/>
      <use xlink:href="#DejaVuSans-20" x="998.324219"/>
      <use xlink:href="#DejaVuSans-70" x="1030.111328"/>
      <use xlink:href="#DejaVuSans-72" x="1093.587891"/>
      <use xlink:href="#DejaVuSans-65" x="1132.451172"/>
      <use xlink:href="#DejaVuSans-64" x="1193.974609"/>
      <use xlink:href="#DejaVuSans-69" x="1257.451172"/>
      <use xlink:href="#DejaVuSans-63" x="1285.234375"/>
      <use xlink:href="#DejaVuSans-74" x="1340.214844"/>
      <use xlink:href="#DejaVuSans-69" x="1379.423828"/>
      <use xlink:href="#DejaVuSans-6f" x="1407.207031"/>
      <use xlink:href="#DejaVuSans-6e" x="1468.388672"/>
      <use xlink:href="#DejaVuSans-73" x="1531.767578"/>
     </g>
    </g>
   </g>
  </g>
 </g>
 <defs>
  <clipPath id="p0afe5b28ec">
   <rect x="57.6" y="41.472" width="357.12" height="266.112"/>
  </clipPath>
 </defs>
</svg>
