<?xml version="1.0" encoding="utf-8" standalone="no"?>
<!DOCTYPE svg PUBLIC "-//W3C//DTD SVG 1.1//EN"
  "http://www.w3.org/Graphics/SVG/1.1/DTD/svg11.dtd">
<svg xmlns:xlink="http://www.w3.org/1999/xlink" width="460.8pt" height="345.6pt" viewBox="0 0 460.8 345.6" xmlns="http://www.w3.org/2000/svg" version="1.1">
 <metadata>
  <rdf:RDF xmlns:dc="http://purl.org/dc/elements/1.1/" xmlns:cc="http://creativecommons.org/ns#" xmlns:rdf="http://www.w3.org/1999/02/22-rdf-syntax-ns#">
   <cc:Work>
    <dc:type rdf:resource="http://purl.org/dc/dcmitype/StillImage"/>
    <dc:date>2024-09-08T19:56:07.712566</dc:date>
    <dc:format>image/svg+xml</dc:format>
    <dc:creator>
     <cc:Agent>
      <dc:title>Matplotlib v3.8.3, https://matplotlib.org/</dc:title>
     </cc:Agent>
    </dc:creator>
   </cc:Work>
  </rdf:RDF>
 </metadata>
 <defs>
  <style type="text/css">*{stroke-linejoin: round; stroke-linecap: butt}</style>
 </defs>
 <g id="figure_1">
  <g id="patch_1">
   <path d="M 0 345.6 
L 460.8 345.6 
L 460.8 0 
L 0 0 
z
" style="fill: #ffffff"/>
  </g>
  <g id="axes_1">
   <g id="patch_2">
    <path d="M 57.6 307.584 
L 414.72 307.584 
L 414.72 41.472 
L 57.6 41.472 
z
" style="fill: #ffffff"/>
   </g>
   <g id="matplotlib.axis_1">
    <g id="xtick_1">
     <g id="line2d_1">
      <defs>
       <path id="m3ea990e665" d="M 0 0 
L 0 3.5 
" style="stroke: #000000; stroke-width: 0.8"/>
      </defs>
      <g>
       <use xlink:href="#m3ea990e665" x="73.832727" y="307.584" style="stroke: #000000; stroke-width: 0.8"/>
      </g>
     </g>
     <g id="text_1">
      <!-- 0 -->
      <g transform="translate(70.651477 322.182437) scale(0.1 -0.1)">
       <defs>
        <path id="DejaVuSans-30" d="M 2034 4250 
Q 1547 4250 1301 3770 
Q 1056 3291 1056 2328 
Q 1056 1369 1301 889 
Q 1547 409 2034 409 
Q 2525 409 2770 889 
Q 3016 1369 3016 2328 
Q 3016 3291 2770 3770 
Q 2525 4250 2034 4250 
z
M 2034 4750 
Q 2819 4750 3233 4129 
Q 3647 3509 3647 2328 
Q 3647 1150 3233 529 
Q 2819 -91 2034 -91 
Q 1250 -91 836 529 
Q 422 1150 422 2328 
Q 422 3509 836 4129 
Q 1250 4750 2034 4750 
z
" transform="scale(0.015625)"/>
       </defs>
       <use xlink:href="#DejaVuSans-30"/>
      </g>
     </g>
    </g>
    <g id="xtick_2">
     <g id="line2d_2">
      <g>
       <use xlink:href="#m3ea990e665" x="149.333784" y="307.584" style="stroke: #000000; stroke-width: 0.8"/>
      </g>
     </g>
     <g id="text_2">
      <!-- 50 -->
      <g transform="translate(142.971284 322.182437) scale(0.1 -0.1)">
       <defs>
        <path id="DejaVuSans-35" d="M 691 4666 
L 3169 4666 
L 3169 4134 
L 1269 4134 
L 1269 2991 
Q 1406 3038 1543 3061 
Q 1681 3084 1819 3084 
Q 2600 3084 3056 2656 
Q 3513 2228 3513 1497 
Q 3513 744 3044 326 
Q 2575 -91 1722 -91 
Q 1428 -91 1123 -41 
Q 819 9 494 109 
L 494 744 
Q 775 591 1075 516 
Q 1375 441 1709 441 
Q 2250 441 2565 725 
Q 2881 1009 2881 1497 
Q 2881 1984 2565 2268 
Q 2250 2553 1709 2553 
Q 1456 2553 1204 2497 
Q 953 2441 691 2322 
L 691 4666 
z
" transform="scale(0.015625)"/>
       </defs>
       <use xlink:href="#DejaVuSans-35"/>
       <use xlink:href="#DejaVuSans-30" x="63.623047"/>
      </g>
     </g>
    </g>
    <g id="xtick_3">
     <g id="line2d_3">
      <g>
       <use xlink:href="#m3ea990e665" x="224.834841" y="307.584" style="stroke: #000000; stroke-width: 0.8"/>
      </g>
     </g>
     <g id="text_3">
      <!-- 100 -->
      <g transform="translate(215.291091 322.182437) scale(0.1 -0.1)">
       <defs>
        <path id="DejaVuSans-31" d="M 794 531 
L 1825 531 
L 1825 4091 
L 703 3866 
L 703 4441 
L 1819 4666 
L 2450 4666 
L 2450 531 
L 3481 531 
L 3481 0 
L 794 0 
L 794 531 
z
" transform="scale(0.015625)"/>
       </defs>
       <use xlink:href="#DejaVuSans-31"/>
       <use xlink:href="#DejaVuSans-30" x="63.623047"/>
       <use xlink:href="#DejaVuSans-30" x="127.246094"/>
      </g>
     </g>
    </g>
    <g id="xtick_4">
     <g id="line2d_4">
      <g>
       <use xlink:href="#m3ea990e665" x="300.335899" y="307.584" style="stroke: #000000; stroke-width: 0.8"/>
      </g>
     </g>
     <g id="text_4">
      <!-- 150 -->
      <g transform="translate(290.792149 322.182437) scale(0.1 -0.1)">
       <use xlink:href="#DejaVuSans-31"/>
       <use xlink:href="#DejaVuSans-35" x="63.623047"/>
       <use xlink:href="#DejaVuSans-30" x="127.246094"/>
      </g>
     </g>
    </g>
    <g id="xtick_5">
     <g id="line2d_5">
      <g>
       <use xlink:href="#m3ea990e665" x="375.836956" y="307.584" style="stroke: #000000; stroke-width: 0.8"/>
      </g>
     </g>
     <g id="text_5">
      <!-- 200 -->
      <g transform="translate(366.293206 322.182437) scale(0.1 -0.1)">
       <defs>
        <path id="DejaVuSans-32" d="M 1228 531 
L 3431 531 
L 3431 0 
L 469 0 
L 469 531 
Q 828 903 1448 1529 
Q 2069 2156 2228 2338 
Q 2531 2678 2651 2914 
Q 2772 3150 2772 3378 
Q 2772 3750 2511 3984 
Q 2250 4219 1831 4219 
Q 1534 4219 1204 4116 
Q 875 4013 500 3803 
L 500 4441 
Q 881 4594 1212 4672 
Q 1544 4750 1819 4750 
Q 2544 4750 2975 4387 
Q 3406 4025 3406 3419 
Q 3406 3131 3298 2873 
Q 3191 2616 2906 2266 
Q 2828 2175 2409 1742 
Q 1991 1309 1228 531 
z
" transform="scale(0.015625)"/>
       </defs>
       <use xlink:href="#DejaVuSans-32"/>
       <use xlink:href="#DejaVuSans-30" x="63.623047"/>
       <use xlink:href="#DejaVuSans-30" x="127.246094"/>
      </g>
     </g>
    </g>
   </g>
   <g id="matplotlib.axis_2">
    <g id="ytick_1">
     <g id="line2d_6">
      <defs>
       <path id="m24a932d603" d="M 0 0 
L -3.5 0 
" style="stroke: #000000; stroke-width: 0.8"/>
      </defs>
      <g>
       <use xlink:href="#m24a932d603" x="57.6" y="293.929807" style="stroke: #000000; stroke-width: 0.8"/>
      </g>
     </g>
     <g id="text_6">
      <!-- 5000 -->
      <g transform="translate(25.15 297.729026) scale(0.1 -0.1)">
       <use xlink:href="#DejaVuSans-35"/>
       <use xlink:href="#DejaVuSans-30" x="63.623047"/>
       <use xlink:href="#DejaVuSans-30" x="127.246094"/>
       <use xlink:href="#DejaVuSans-30" x="190.869141"/>
      </g>
     </g>
    </g>
    <g id="ytick_2">
     <g id="line2d_7">
      <g>
       <use xlink:href="#m24a932d603" x="57.6" y="262.344813" style="stroke: #000000; stroke-width: 0.8"/>
      </g>
     </g>
     <g id="text_7">
      <!-- 5500 -->
      <g transform="translate(25.15 266.144031) scale(0.1 -0.1)">
       <use xlink:href="#DejaVuSans-35"/>
       <use xlink:href="#DejaVuSans-35" x="63.623047"/>
       <use xlink:href="#DejaVuSans-30" x="127.246094"/>
       <use xlink:href="#DejaVuSans-30" x="190.869141"/>
      </g>
     </g>
    </g>
    <g id="ytick_3">
     <g id="line2d_8">
      <g>
       <use xlink:href="#m24a932d603" x="57.6" y="230.759818" style="stroke: #000000; stroke-width: 0.8"/>
      </g>
     </g>
     <g id="text_8">
      <!-- 6000 -->
      <g transform="translate(25.15 234.559037) scale(0.1 -0.1)">
       <defs>
        <path id="DejaVuSans-36" d="M 2113 2584 
Q 1688 2584 1439 2293 
Q 1191 2003 1191 1497 
Q 1191 994 1439 701 
Q 1688 409 2113 409 
Q 2538 409 2786 701 
Q 3034 994 3034 1497 
Q 3034 2003 2786 2293 
Q 2538 2584 2113 2584 
z
M 3366 4563 
L 3366 3988 
Q 3128 4100 2886 4159 
Q 2644 4219 2406 4219 
Q 1781 4219 1451 3797 
Q 1122 3375 1075 2522 
Q 1259 2794 1537 2939 
Q 1816 3084 2150 3084 
Q 2853 3084 3261 2657 
Q 3669 2231 3669 1497 
Q 3669 778 3244 343 
Q 2819 -91 2113 -91 
Q 1303 -91 875 529 
Q 447 1150 447 2328 
Q 447 3434 972 4092 
Q 1497 4750 2381 4750 
Q 2619 4750 2861 4703 
Q 3103 4656 3366 4563 
z
" transform="scale(0.015625)"/>
       </defs>
       <use xlink:href="#DejaVuSans-36"/>
       <use xlink:href="#DejaVuSans-30" x="63.623047"/>
       <use xlink:href="#DejaVuSans-30" x="127.246094"/>
       <use xlink:href="#DejaVuSans-30" x="190.869141"/>
      </g>
     </g>
    </g>
    <g id="ytick_4">
     <g id="line2d_9">
      <g>
       <use xlink:href="#m24a932d603" x="57.6" y="199.174824" style="stroke: #000000; stroke-width: 0.8"/>
      </g>
     </g>
     <g id="text_9">
      <!-- 6500 -->
      <g transform="translate(25.15 202.974043) scale(0.1 -0.1)">
       <use xlink:href="#DejaVuSans-36"/>
       <use xlink:href="#DejaVuSans-35" x="63.623047"/>
       <use xlink:href="#DejaVuSans-30" x="127.246094"/>
       <use xlink:href="#DejaVuSans-30" x="190.869141"/>
      </g>
     </g>
    </g>
    <g id="ytick_5">
     <g id="line2d_10">
      <g>
       <use xlink:href="#m24a932d603" x="57.6" y="167.58983" style="stroke: #000000; stroke-width: 0.8"/>
      </g>
     </g>
     <g id="text_10">
      <!-- 7000 -->
      <g transform="translate(25.15 171.389048) scale(0.1 -0.1)">
       <defs>
        <path id="DejaVuSans-37" d="M 525 4666 
L 3525 4666 
L 3525 4397 
L 1831 0 
L 1172 0 
L 2766 4134 
L 525 4134 
L 525 4666 
z
" transform="scale(0.015625)"/>
       </defs>
       <use xlink:href="#DejaVuSans-37"/>
       <use xlink:href="#DejaVuSans-30" x="63.623047"/>
       <use xlink:href="#DejaVuSans-30" x="127.246094"/>
       <use xlink:href="#DejaVuSans-30" x="190.869141"/>
      </g>
     </g>
    </g>
    <g id="ytick_6">
     <g id="line2d_11">
      <g>
       <use xlink:href="#m24a932d603" x="57.6" y="136.004835" style="stroke: #000000; stroke-width: 0.8"/>
      </g>
     </g>
     <g id="text_11">
      <!-- 7500 -->
      <g transform="translate(25.15 139.804054) scale(0.1 -0.1)">
       <use xlink:href="#DejaVuSans-37"/>
       <use xlink:href="#DejaVuSans-35" x="63.623047"/>
       <use xlink:href="#DejaVuSans-30" x="127.246094"/>
       <use xlink:href="#DejaVuSans-30" x="190.869141"/>
      </g>
     </g>
    </g>
    <g id="ytick_7">
     <g id="line2d_12">
      <g>
       <use xlink:href="#m24a932d603" x="57.6" y="104.419841" style="stroke: #000000; stroke-width: 0.8"/>
      </g>
     </g>
     <g id="text_12">
      <!-- 8000 -->
      <g transform="translate(25.15 108.21906) scale(0.1 -0.1)">
       <defs>
        <path id="DejaVuSans-38" d="M 2034 2216 
Q 1584 2216 1326 1975 
Q 1069 1734 1069 1313 
Q 1069 891 1326 650 
Q 1584 409 2034 409 
Q 2484 409 2743 651 
Q 3003 894 3003 1313 
Q 3003 1734 2745 1975 
Q 2488 2216 2034 2216 
z
M 1403 2484 
Q 997 2584 770 2862 
Q 544 3141 544 3541 
Q 544 4100 942 4425 
Q 1341 4750 2034 4750 
Q 2731 4750 3128 4425 
Q 3525 4100 3525 3541 
Q 3525 3141 3298 2862 
Q 3072 2584 2669 2484 
Q 3125 2378 3379 2068 
Q 3634 1759 3634 1313 
Q 3634 634 3220 271 
Q 2806 -91 2034 -91 
Q 1263 -91 848 271 
Q 434 634 434 1313 
Q 434 1759 690 2068 
Q 947 2378 1403 2484 
z
M 1172 3481 
Q 1172 3119 1398 2916 
Q 1625 2713 2034 2713 
Q 2441 2713 2670 2916 
Q 2900 3119 2900 3481 
Q 2900 3844 2670 4047 
Q 2441 4250 2034 4250 
Q 1625 4250 1398 4047 
Q 1172 3844 1172 3481 
z
" transform="scale(0.015625)"/>
       </defs>
       <use xlink:href="#DejaVuSans-38"/>
       <use xlink:href="#DejaVuSans-30" x="63.623047"/>
       <use xlink:href="#DejaVuSans-30" x="127.246094"/>
       <use xlink:href="#DejaVuSans-30" x="190.869141"/>
      </g>
     </g>
    </g>
    <g id="ytick_8">
     <g id="line2d_13">
      <g>
       <use xlink:href="#m24a932d603" x="57.6" y="72.834847" style="stroke: #000000; stroke-width: 0.8"/>
      </g>
     </g>
     <g id="text_13">
      <!-- 8500 -->
      <g transform="translate(25.15 76.634065) scale(0.1 -0.1)">
       <use xlink:href="#DejaVuSans-38"/>
       <use xlink:href="#DejaVuSans-35" x="63.623047"/>
       <use xlink:href="#DejaVuSans-30" x="127.246094"/>
       <use xlink:href="#DejaVuSans-30" x="190.869141"/>
      </g>
     </g>
    </g>
   </g>
   <g id="line2d_14">
    <path d="M 73.832727 295.488 
L 75.342748 294.256185 
L 76.85277 291.213497 
L 78.362791 290.676553 
L 81.382833 290.076438 
L 82.892854 290.171193 
L 84.402875 289.053084 
L 85.912896 289.276284 
L 87.422918 286.1978 
L 88.932939 282.692568 
L 90.44296 276.826533 
L 91.952981 276.43172 
L 93.463002 276.974982 
L 94.973023 279.413344 
L 96.483044 277.049382 
L 97.993066 277.00025 
L 99.503087 275.642095 
L 101.013108 273.989147 
L 102.523129 272.009821 
L 104.03315 267.766903 
L 105.543171 268.788151 
L 107.053192 267.314185 
L 108.563214 267.587922 
L 110.073235 267.082562 
L 111.583256 268.114338 
L 113.093277 266.324522 
L 114.603298 265.692822 
L 117.62334 266.198182 
L 119.133362 265.787577 
L 120.643383 265.650709 
L 122.153404 265.850747 
L 123.663425 266.450862 
L 125.173446 266.166597 
L 126.683467 266.482447 
L 128.193488 266.419277 
L 129.70351 261.713113 
L 131.213531 261.57098 
L 132.723552 262.765946 
L 134.233573 261.397263 
L 135.743594 261.06562 
L 138.763636 260.828733 
L 140.273658 260.09175 
L 141.783679 258.807293 
L 143.2937 259.007332 
L 144.803721 257.05959 
L 146.313742 255.724598 
L 147.823763 254.665147 
L 150.843805 250.398666 
L 152.353827 247.714643 
L 153.863848 246.429691 
L 155.373869 246.792361 
L 156.88389 244.56597 
L 158.393911 244.767763 
L 159.903932 245.974761 
L 161.413953 242.709474 
L 162.923975 240.14785 
L 164.433996 239.498333 
L 165.944017 238.346534 
L 167.454038 239.982637 
L 170.47408 240.456412 
L 171.984101 241.092624 
L 173.494123 239.477277 
L 175.004144 239.793127 
L 176.514165 237.819064 
L 178.024186 238.580263 
L 179.534207 238.125439 
L 181.044228 238.024367 
L 182.554249 237.161044 
L 184.064271 235.472299 
L 185.574292 234.528961 
L 187.084313 232.023218 
L 188.594334 230.835622 
L 190.104355 230.191288 
L 191.614376 230.254458 
L 193.124397 229.854382 
L 194.634419 231.416786 
L 196.14444 231.74527 
L 197.654461 229.875438 
L 199.164482 229.713001 
L 200.674503 227.359167 
L 202.184524 225.556908 
L 203.694545 224.614281 
L 205.204567 222.056398 
L 206.714588 222.497184 
L 209.73463 222.947796 
L 211.244651 221.994982 
L 212.754672 220.178845 
L 214.264693 217.778386 
L 215.774715 216.293891 
L 217.284736 215.464785 
L 218.794757 214.992589 
L 220.304778 216.546571 
L 221.814799 215.967513 
L 223.32482 216.862421 
L 224.834841 213.340694 
L 226.344863 214.02679 
L 227.854884 211.914105 
L 229.364905 212.882711 
L 230.874926 213.482826 
L 232.384947 212.898504 
L 233.894968 212.598447 
L 235.404989 212.175208 
L 236.915011 209.698944 
L 238.425032 204.020864 
L 239.935053 206.186693 
L 241.445074 205.163339 
L 242.955095 205.289679 
L 244.465116 203.691478 
L 245.975137 206.123523 
L 247.485159 200.554035 
L 248.99518 200.327676 
L 250.505201 198.701049 
L 252.015222 199.174824 
L 253.525243 197.516612 
L 255.035264 196.995459 
L 256.545285 190.731102 
L 258.055307 191.05748 
L 259.565328 191.868162 
L 261.075349 191.131179 
L 262.58537 192.668315 
L 264.095391 194.484452 
L 265.605412 193.71062 
L 267.115433 190.318392 
L 268.625455 190.941669 
L 270.135476 189.415061 
L 271.645497 190.120459 
L 273.155518 185.656446 
L 274.665539 185.151086 
L 276.17556 182.655872 
L 277.685581 183.982442 
L 279.195603 181.471435 
L 280.705624 180.241876 
L 282.215645 181.108207 
L 285.235687 175.944061 
L 286.745708 169.194347 
L 288.255729 165.604487 
L 289.765751 162.844184 
L 291.275772 160.392963 
L 292.785793 159.310845 
L 294.295814 155.306323 
L 295.805835 148.203662 
L 297.315856 147.421056 
L 300.335899 147.308849 
L 301.84592 148.874506 
L 303.355941 148.828343 
L 304.865962 147.954491 
L 307.886004 142.326693 
L 309.396025 140.587531 
L 310.906047 140.72995 
L 312.416068 136.770771 
L 313.926089 133.187454 
L 315.43611 131.42852 
L 316.946131 127.615861 
L 318.456152 126.565434 
L 319.966173 124.495263 
L 321.476195 123.596445 
L 324.496237 123.548862 
L 326.006258 123.860405 
L 327.516279 123.226449 
L 329.0263 122.025317 
L 330.536321 121.690516 
L 332.046342 119.195876 
L 333.556364 109.625048 
L 335.066385 109.489232 
L 336.576406 110.831595 
L 338.086427 111.505408 
L 339.596448 111.579106 
L 341.106469 113.28259 
L 342.61649 112.933212 
L 344.126512 107.561112 
L 347.146554 106.251771 
L 348.656575 102.615987 
L 350.166596 99.846334 
L 351.676617 101.577191 
L 353.186638 98.608202 
L 354.69666 97.313217 
L 356.206681 97.723822 
L 357.716702 97.850162 
L 359.226723 97.386915 
L 360.736744 97.786992 
L 362.246765 94.565323 
L 363.756786 92.01145 
L 365.266808 84.258086 
L 366.776829 80.870069 
L 368.28685 69.248735 
L 369.796871 65.102097 
L 371.306892 65.749279 
L 372.816913 69.88165 
L 374.326934 70.048348 
L 375.836956 70.949222 
L 377.346977 70.567044 
L 378.856998 71.140148 
L 380.367019 68.125524 
L 381.87704 66.707358 
L 384.897082 68.844609 
L 386.407104 67.370643 
L 387.917125 67.412756 
L 389.427146 67.6707 
L 390.937167 63.138253 
L 392.447188 62.095948 
L 393.957209 62.095948 
L 395.46723 61.792733 
L 396.977252 61.864325 
L 398.487273 54.115473 
L 398.487273 54.115473 
" clip-path="url(#pad2199980b)" style="fill: none; stroke: #1f77b4; stroke-opacity: 0.7; stroke-width: 0.5; stroke-linecap: square"/>
   </g>
   <g id="line2d_15">
    <path d="M 73.832727 294.931502 
L 75.342748 293.456032 
L 76.85277 290.36702 
L 79.872812 290.276476 
L 81.382833 289.435713 
L 82.892854 289.520542 
L 84.402875 288.307678 
L 85.912896 288.547724 
L 87.422918 286.033558 
L 88.932939 281.811697 
L 90.44296 274.34711 
L 91.952981 275.842134 
L 93.463002 276.194833 
L 94.973023 277.617912 
L 96.483044 277.897264 
L 97.993066 276.400135 
L 101.013108 272.715219 
L 102.523129 271.100173 
L 104.03315 268.430188 
L 107.053192 267.193109 
L 108.563214 268.314377 
L 110.073235 267.856394 
L 111.583256 266.556145 
L 113.093277 266.144036 
L 114.603298 264.418894 
L 116.113319 264.705791 
L 119.133362 264.548743 
L 120.643383 265.132188 
L 122.153404 264.840027 
L 123.663425 265.761735 
L 126.683467 265.845483 
L 128.193488 266.014989 
L 129.70351 262.787003 
L 131.213531 261.052699 
L 132.723552 261.717972 
L 134.233573 259.58639 
L 135.743594 260.002259 
L 137.253615 259.511882 
L 138.763636 259.356386 
L 140.273658 259.58639 
L 141.783679 258.870463 
L 143.2937 258.440907 
L 144.803721 257.303848 
L 146.313742 255.219238 
L 147.823763 253.955838 
L 149.333784 251.44799 
L 150.843805 249.48972 
L 152.353827 247.041883 
L 153.863848 246.084858 
L 155.373869 245.947688 
L 156.88389 244.404536 
L 158.393911 244.366634 
L 159.903932 245.11204 
L 161.413953 241.925114 
L 162.923975 240.014222 
L 164.433996 238.908747 
L 165.944017 238.340217 
L 167.454038 238.645539 
L 168.964059 239.170451 
L 170.47408 239.489911 
L 171.984101 240.235317 
L 173.494123 239.035087 
L 175.004144 239.206548 
L 176.514165 238.4455 
L 178.024186 238.125439 
L 179.534207 237.090855 
L 181.044228 237.266327 
L 182.554249 237.266327 
L 184.064271 235.086962 
L 185.574292 233.981488 
L 187.084313 231.602085 
L 188.594334 230.87563 
L 190.104355 229.799634 
L 191.614376 230.128118 
L 194.634419 229.91334 
L 196.14444 230.725362 
L 197.654461 229.357445 
L 199.164482 229.643815 
L 200.674503 227.464451 
L 202.184524 224.695499 
L 203.694545 224.271358 
L 205.204567 221.66334 
L 206.714588 222.04236 
L 208.224609 221.427888 
L 209.73463 222.186748 
L 211.244651 221.521207 
L 212.754672 219.51556 
L 214.264693 217.125629 
L 215.774715 216.887689 
L 217.284736 214.619886 
L 218.794757 214.739909 
L 220.304778 215.809588 
L 221.814799 215.156831 
L 223.32482 216.230721 
L 224.834841 213.514411 
L 226.344863 212.743737 
L 227.854884 212.235219 
L 229.364905 211.919369 
L 230.874926 213.084855 
L 232.384947 212.314182 
L 235.404989 212.608975 
L 236.915011 209.787382 
L 238.425032 203.459855 
L 239.935053 204.571346 
L 241.445074 204.961195 
L 242.955095 204.399884 
L 244.465116 204.07501 
L 245.975137 205.084727 
L 247.485159 199.987009 
L 248.99518 199.391407 
L 250.505201 197.507136 
L 252.015222 199.064276 
L 253.525243 196.805949 
L 255.035264 196.490099 
L 256.545285 191.089065 
L 258.055307 192.213491 
L 259.565328 192.496854 
L 261.075349 192.478805 
L 262.58537 193.097871 
L 264.095391 194.384433 
L 265.605412 193.224211 
L 267.115433 189.025512 
L 268.625455 190.267856 
L 270.135476 189.181332 
L 271.645497 190.120459 
L 273.155518 185.988089 
L 274.665539 185.959662 
L 276.17556 182.803269 
L 277.685581 182.490928 
L 279.195603 180.476507 
L 280.705624 180.223827 
L 282.215645 180.729187 
L 283.725666 177.128498 
L 285.235687 174.753306 
L 286.745708 168.079397 
L 289.765751 161.399171 
L 291.275772 158.442815 
L 292.785793 156.86146 
L 294.295814 153.176544 
L 295.805835 145.175012 
L 297.315856 143.913718 
L 298.825877 145.227654 
L 300.335899 148.133473 
L 301.84592 146.206788 
L 303.355941 147.112225 
L 304.865962 146.247398 
L 307.886004 140.321451 
L 309.396025 140.325662 
L 310.906047 139.51077 
L 312.416068 135.297331 
L 313.926089 131.940899 
L 315.43611 130.330065 
L 316.946131 124.528954 
L 318.456152 124.539482 
L 319.966173 122.739138 
L 321.476195 122.707553 
L 322.986216 121.602078 
L 324.496237 122.600164 
L 326.006258 122.666943 
L 327.516279 121.696833 
L 329.0263 119.245837 
L 330.536321 119.842342 
L 332.046342 118.051924 
L 333.556364 109.299723 
L 335.066385 107.95736 
L 336.576406 108.96808 
L 338.086427 110.473631 
L 339.596448 110.554349 
L 341.106469 111.880918 
L 342.61649 111.065324 
L 344.126512 105.674216 
L 345.636533 105.978034 
L 347.146554 104.475115 
L 348.656575 102.234159 
L 350.166596 99.348193 
L 351.676617 98.692429 
L 353.186638 97.176349 
L 354.69666 97.344802 
L 356.206681 96.136676 
L 357.716702 97.786992 
L 359.226723 96.61203 
L 360.736744 96.940514 
L 362.246765 93.419239 
L 363.756786 91.419457 
L 365.266808 83.790327 
L 366.776829 78.467504 
L 368.28685 64.268996 
L 369.796871 60.000811 
L 372.816913 66.779552 
L 374.326934 67.781247 
L 375.836956 69.476309 
L 377.346977 70.455444 
L 378.856998 67.865474 
L 380.367019 65.64926 
L 381.87704 65.538713 
L 383.387061 65.164205 
L 384.897082 67.318001 
L 386.407104 66.244111 
L 387.917125 65.475543 
L 389.427146 64.172662 
L 390.937167 63.068766 
L 393.957209 59.719178 
L 395.46723 60.661087 
L 396.977252 59.605246 
L 398.487273 56.34748 
L 398.487273 56.34748 
" clip-path="url(#pad2199980b)" style="fill: none; stroke: #ff7f0e; stroke-opacity: 0.7; stroke-width: 0.5; stroke-linecap: square"/>
   </g>
   <g id="line2d_16">
    <path d="M 73.832727 295.209751 
L 75.342748 293.856109 
L 76.85277 290.790259 
L 78.362791 290.483884 
L 79.872812 290.302797 
L 81.382833 289.756076 
L 82.892854 289.845867 
L 84.402875 288.680381 
L 85.912896 288.912004 
L 87.422918 286.115679 
L 88.932939 282.252133 
L 90.44296 275.586821 
L 93.463002 276.584907 
L 94.973023 278.515628 
L 96.483044 277.473323 
L 97.993066 276.700193 
L 101.013108 273.352183 
L 102.523129 271.554997 
L 104.03315 268.098546 
L 105.543171 268.30806 
L 107.053192 267.253647 
L 108.563214 267.951149 
L 110.073235 267.469478 
L 111.583256 267.335242 
L 114.603298 265.055858 
L 116.113319 265.330159 
L 117.62334 265.422093 
L 119.133362 265.16816 
L 120.643383 265.391449 
L 122.153404 265.345387 
L 123.663425 266.106298 
L 125.173446 265.969191 
L 126.683467 266.163965 
L 128.193488 266.217133 
L 129.70351 262.250058 
L 131.213531 261.31184 
L 132.723552 262.241959 
L 134.233573 260.491826 
L 135.743594 260.53394 
L 137.253615 260.225581 
L 138.763636 260.09256 
L 140.273658 259.83907 
L 141.783679 258.838878 
L 143.2937 258.724119 
L 144.803721 257.181719 
L 146.313742 255.471918 
L 147.823763 254.310492 
L 149.333784 251.991703 
L 150.843805 249.944193 
L 152.353827 247.378263 
L 153.863848 246.257274 
L 155.373869 246.370025 
L 156.88389 244.485253 
L 158.393911 244.567199 
L 159.903932 245.5434 
L 161.413953 242.317294 
L 162.923975 240.081036 
L 165.944017 238.343375 
L 167.454038 239.314088 
L 168.964059 239.702884 
L 170.47408 239.973161 
L 171.984101 240.66397 
L 173.494123 239.256182 
L 175.004144 239.499837 
L 176.514165 238.132282 
L 178.024186 238.352851 
L 179.534207 237.608147 
L 181.044228 237.645347 
L 182.554249 237.213685 
L 184.064271 235.279631 
L 185.574292 234.255224 
L 187.084313 231.812651 
L 190.104355 229.995461 
L 191.614376 230.191288 
L 193.124397 229.917552 
L 194.634419 230.665063 
L 196.14444 231.235316 
L 197.654461 229.616441 
L 199.164482 229.678408 
L 202.184524 225.126204 
L 203.694545 224.442819 
L 205.204567 221.859869 
L 206.714588 222.269772 
L 208.224609 222.082559 
L 209.73463 222.567272 
L 211.244651 221.758095 
L 212.754672 219.847203 
L 214.264693 217.452007 
L 215.774715 216.59079 
L 217.284736 215.042335 
L 218.794757 214.866249 
L 220.304778 216.178079 
L 221.814799 215.562172 
L 223.32482 216.546571 
L 224.834841 213.427553 
L 226.344863 213.385264 
L 227.854884 212.074662 
L 229.364905 212.40104 
L 230.874926 213.283841 
L 232.384947 212.606343 
L 235.404989 212.392091 
L 236.915011 209.743163 
L 238.425032 203.74036 
L 239.935053 205.379019 
L 242.955095 204.844782 
L 244.465116 203.883244 
L 245.975137 205.604125 
L 247.485159 200.270522 
L 248.99518 199.859541 
L 250.505201 198.104093 
L 252.015222 199.11955 
L 253.525243 197.161281 
L 255.035264 196.742779 
L 256.545285 190.910084 
L 258.055307 191.635486 
L 259.565328 192.182508 
L 261.075349 191.804992 
L 262.58537 192.883093 
L 264.095391 194.434443 
L 265.605412 193.467415 
L 267.115433 189.671952 
L 268.625455 190.604762 
L 270.135476 189.298196 
L 271.645497 190.120459 
L 273.155518 185.822268 
L 274.665539 185.555374 
L 276.17556 182.72957 
L 277.685581 183.236685 
L 279.195603 180.973971 
L 280.705624 180.232852 
L 282.215645 180.918697 
L 283.725666 177.854953 
L 285.235687 175.348683 
L 286.745708 168.636872 
L 288.255729 165.104767 
L 289.765751 162.121677 
L 291.275772 159.417889 
L 292.785793 158.086153 
L 294.295814 154.241434 
L 295.805835 146.689337 
L 297.315856 145.667387 
L 298.825877 146.272452 
L 300.335899 147.721161 
L 301.84592 147.540647 
L 303.355941 147.970284 
L 304.865962 147.100945 
L 307.886004 141.324072 
L 309.396025 140.456597 
L 310.906047 140.12036 
L 312.416068 136.034051 
L 313.926089 132.564177 
L 315.43611 130.879293 
L 316.946131 126.072407 
L 318.456152 125.552458 
L 319.966173 123.6172 
L 321.476195 123.151999 
L 322.986216 122.564367 
L 324.496237 123.074513 
L 326.006258 123.263674 
L 327.516279 122.461641 
L 329.0263 120.635577 
L 330.536321 120.766429 
L 332.046342 118.6239 
L 333.556364 109.462385 
L 335.066385 108.723296 
L 338.086427 110.98952 
L 339.596448 111.066727 
L 341.106469 112.581754 
L 342.61649 111.999268 
L 344.126512 106.617664 
L 345.636533 106.45602 
L 347.146554 105.363443 
L 350.166596 99.597263 
L 351.676617 100.13481 
L 353.186638 97.892275 
L 354.69666 97.32901 
L 356.206681 96.930249 
L 357.716702 97.818577 
L 359.226723 96.999473 
L 360.736744 97.363753 
L 362.246765 93.992281 
L 363.756786 91.715454 
L 365.266808 84.024207 
L 366.776829 79.668786 
L 368.28685 66.758865 
L 369.796871 62.551454 
L 371.306892 64.554314 
L 372.816913 68.330601 
L 374.326934 68.914798 
L 375.836956 70.212766 
L 377.346977 70.511244 
L 378.856998 69.502811 
L 380.367019 66.887392 
L 381.87704 66.123035 
L 383.387061 66.454678 
L 384.897082 68.081305 
L 386.407104 66.807377 
L 387.917125 66.444149 
L 389.427146 65.921681 
L 390.937167 63.10351 
L 392.447188 61.748514 
L 393.957209 60.907563 
L 395.46723 61.22691 
L 396.977252 60.734786 
L 398.487273 55.231476 
L 398.487273 55.231476 
" clip-path="url(#pad2199980b)" style="fill: none; stroke: #2ca02c; stroke-opacity: 0.7; stroke-width: 0.5; stroke-linecap: square"/>
   </g>
   <g id="line2d_17">
    <path d="M 73.832727 294.435167 
L 75.342748 291.908367 
L 78.362791 290.644968 
L 79.872812 290.265948 
L 81.382833 290.202778 
L 82.892854 289.444738 
L 84.402875 289.507908 
L 85.912896 287.233788 
L 87.422918 283.380419 
L 88.932939 277.37927 
L 90.44296 277.50561 
L 91.952981 278.01097 
L 93.463002 279.40071 
L 94.973023 277.82146 
L 96.483044 277.25293 
L 97.993066 276.36855 
L 99.503087 274.34711 
L 101.013108 272.704691 
L 102.523129 270.493741 
L 104.03315 269.862041 
L 105.543171 268.345962 
L 107.053192 268.345962 
L 108.563214 268.156452 
L 110.073235 268.093282 
L 113.093277 266.324522 
L 114.603298 266.324522 
L 116.113319 266.198182 
L 117.62334 266.198182 
L 119.133362 265.945502 
L 120.643383 265.882332 
L 122.153404 266.450862 
L 123.663425 266.640372 
L 125.173446 266.577202 
L 126.683467 266.640372 
L 128.193488 263.355532 
L 129.70351 261.965793 
L 131.213531 262.913343 
L 132.723552 261.649943 
L 134.233573 261.144583 
L 135.743594 260.828733 
L 137.253615 260.891903 
L 138.763636 260.323373 
L 140.273658 260.007523 
L 141.783679 259.186313 
L 143.2937 257.796573 
L 144.803721 256.217324 
L 146.313742 254.953924 
L 147.823763 252.742974 
L 149.333784 250.784705 
L 150.843805 248.510585 
L 152.353827 247.184015 
L 153.863848 246.931335 
L 155.373869 245.604766 
L 156.88389 245.352086 
L 158.393911 245.983786 
L 161.413953 241.056526 
L 162.923975 239.603617 
L 164.433996 239.414107 
L 165.944017 239.982637 
L 168.964059 240.361657 
L 170.47408 240.993356 
L 171.984101 239.729957 
L 173.494123 240.108977 
L 175.004144 238.719237 
L 176.514165 238.656067 
L 178.024186 238.150707 
L 179.534207 238.277047 
L 181.044228 237.392667 
L 182.554249 235.750247 
L 184.064271 235.244887 
L 185.574292 233.097108 
L 187.084313 231.644198 
L 188.594334 231.075668 
L 190.104355 231.328348 
L 191.614376 230.759818 
L 193.124397 231.265178 
L 194.634419 231.644198 
L 196.14444 230.254458 
L 197.654461 230.380798 
L 199.164482 228.296189 
L 200.674503 225.958899 
L 202.184524 225.011349 
L 203.694545 222.67406 
L 205.204567 222.29504 
L 206.714588 222.73723 
L 208.224609 222.73723 
L 209.73463 222.54772 
L 211.244651 220.65262 
L 212.754672 217.999481 
L 214.264693 218.062651 
L 215.774715 216.041211 
L 217.284736 215.725361 
L 218.794757 216.546571 
L 220.304778 216.041211 
L 221.814799 216.609741 
L 223.32482 214.398791 
L 224.834841 213.956601 
L 226.344863 212.882711 
L 227.854884 213.009051 
L 229.364905 213.577581 
L 232.384947 212.693201 
L 233.894968 212.566862 
L 235.404989 210.671762 
L 236.915011 205.239143 
L 238.425032 206.186693 
L 239.935053 206.060353 
L 241.445074 205.681333 
L 242.955095 204.860123 
L 244.465116 206.123523 
L 245.975137 201.575283 
L 247.485159 201.575283 
L 248.99518 199.048484 
L 250.505201 200.438224 
L 252.015222 198.416784 
L 253.525243 197.153384 
L 255.035264 192.541975 
L 256.545285 193.363185 
L 258.055307 193.552695 
L 259.565328 194.184395 
L 261.075349 194.247565 
L 262.58537 195.195115 
L 264.095391 194.058055 
L 265.605412 190.331026 
L 267.115433 191.152235 
L 270.135476 190.204686 
L 271.645497 186.919846 
L 273.155518 186.793506 
L 274.665539 184.456217 
L 276.17556 183.950857 
L 277.685581 182.055757 
L 279.195603 180.602847 
L 280.705624 181.360887 
L 282.215645 178.644578 
L 283.725666 176.370458 
L 285.235687 170.306139 
L 286.745708 166.51594 
L 289.765751 160.704301 
L 291.275772 159.630411 
L 292.785793 155.713872 
L 294.295814 148.765173 
L 295.805835 147.754453 
L 297.315856 147.880793 
L 298.825877 148.133473 
L 300.335899 148.828343 
L 301.84592 148.765173 
L 303.355941 148.070303 
L 306.375983 142.448174 
L 307.886004 141.374284 
L 309.396025 140.932094 
L 312.416068 133.478036 
L 313.926089 132.025126 
L 315.43611 127.792737 
L 316.946131 126.718847 
L 318.456152 125.897637 
L 319.966173 124.065707 
L 322.986216 123.686687 
L 324.496237 123.939367 
L 326.006258 123.370837 
L 327.516279 122.044268 
L 329.0263 121.917928 
L 330.536321 119.391128 
L 332.046342 111.81073 
L 333.556364 110.04197 
L 335.066385 111.49488 
L 336.576406 112.00024 
L 338.086427 112.00024 
L 339.596448 113.516319 
L 341.106469 112.947789 
L 342.61649 108.0837 
L 344.126512 108.27321 
L 345.636533 107.00981 
L 347.146554 103.977651 
L 348.656575 101.261341 
L 350.166596 101.577191 
L 351.676617 98.608202 
L 353.186638 98.797712 
L 354.69666 98.734542 
L 356.206681 98.481862 
L 357.716702 97.534312 
L 359.226723 97.344802 
L 360.736744 95.512872 
L 362.246765 92.733393 
L 363.756786 85.911034 
L 365.266808 81.552305 
L 366.776829 69.234157 
L 368.28685 65.064938 
L 369.796871 66.391508 
L 371.306892 69.613177 
L 372.816913 69.739517 
L 374.326934 70.750237 
L 375.836956 70.687067 
L 377.346977 71.066087 
L 378.856998 68.160267 
L 380.367019 67.907587 
L 381.87704 68.665627 
L 383.387061 68.791967 
L 384.897082 67.402228 
L 386.407104 66.770528 
L 387.917125 67.023208 
L 389.427146 63.927878 
L 390.937167 62.727648 
L 392.447188 61.969608 
L 393.957209 62.032778 
L 395.46723 61.653759 
L 396.977252 56.34748 
L 398.487273 53.568 
L 398.487273 53.568 
" clip-path="url(#pad2199980b)" style="fill: none; stroke: #d62728; stroke-opacity: 0.7; stroke-width: 0.5; stroke-linecap: square"/>
   </g>
   <g id="patch_3">
    <path d="M 57.6 307.584 
L 57.6 41.472 
" style="fill: none; stroke: #000000; stroke-width: 0.8; stroke-linejoin: miter; stroke-linecap: square"/>
   </g>
   <g id="patch_4">
    <path d="M 414.72 307.584 
L 414.72 41.472 
" style="fill: none; stroke: #000000; stroke-width: 0.8; stroke-linejoin: miter; stroke-linecap: square"/>
   </g>
   <g id="patch_5">
    <path d="M 57.6 307.584 
L 414.72 307.584 
" style="fill: none; stroke: #000000; stroke-width: 0.8; stroke-linejoin: miter; stroke-linecap: square"/>
   </g>
   <g id="patch_6">
    <path d="M 57.6 41.472 
L 414.72 41.472 
" style="fill: none; stroke: #000000; stroke-width: 0.8; stroke-linejoin: miter; stroke-linecap: square"/>
   </g>
   <g id="text_14">
    <!-- 1final_naive_pr_cci -->
    <g transform="translate(179.487188 35.472) scale(0.12 -0.12)">
     <defs>
      <path id="DejaVuSans-66" d="M 2375 4863 
L 2375 4384 
L 1825 4384 
Q 1516 4384 1395 4259 
Q 1275 4134 1275 3809 
L 1275 3500 
L 2222 3500 
L 2222 3053 
L 1275 3053 
L 1275 0 
L 697 0 
L 697 3053 
L 147 3053 
L 147 3500 
L 697 3500 
L 697 3744 
Q 697 4328 969 4595 
Q 1241 4863 1831 4863 
L 2375 4863 
z
" transform="scale(0.015625)"/>
      <path id="DejaVuSans-69" d="M 603 3500 
L 1178 3500 
L 1178 0 
L 603 0 
L 603 3500 
z
M 603 4863 
L 1178 4863 
L 1178 4134 
L 603 4134 
L 603 4863 
z
" transform="scale(0.015625)"/>
      <path id="DejaVuSans-6e" d="M 3513 2113 
L 3513 0 
L 2938 0 
L 2938 2094 
Q 2938 2591 2744 2837 
Q 2550 3084 2163 3084 
Q 1697 3084 1428 2787 
Q 1159 2491 1159 1978 
L 1159 0 
L 581 0 
L 581 3500 
L 1159 3500 
L 1159 2956 
Q 1366 3272 1645 3428 
Q 1925 3584 2291 3584 
Q 2894 3584 3203 3211 
Q 3513 2838 3513 2113 
z
" transform="scale(0.015625)"/>
      <path id="DejaVuSans-61" d="M 2194 1759 
Q 1497 1759 1228 1600 
Q 959 1441 959 1056 
Q 959 750 1161 570 
Q 1363 391 1709 391 
Q 2188 391 2477 730 
Q 2766 1069 2766 1631 
L 2766 1759 
L 2194 1759 
z
M 3341 1997 
L 3341 0 
L 2766 0 
L 2766 531 
Q 2569 213 2275 61 
Q 1981 -91 1556 -91 
Q 1019 -91 701 211 
Q 384 513 384 1019 
Q 384 1609 779 1909 
Q 1175 2209 1959 2209 
L 2766 2209 
L 2766 2266 
Q 2766 2663 2505 2880 
Q 2244 3097 1772 3097 
Q 1472 3097 1187 3025 
Q 903 2953 641 2809 
L 641 3341 
Q 956 3463 1253 3523 
Q 1550 3584 1831 3584 
Q 2591 3584 2966 3190 
Q 3341 2797 3341 1997 
z
" transform="scale(0.015625)"/>
      <path id="DejaVuSans-6c" d="M 603 4863 
L 1178 4863 
L 1178 0 
L 603 0 
L 603 4863 
z
" transform="scale(0.015625)"/>
      <path id="DejaVuSans-5f" d="M 3263 -1063 
L 3263 -1509 
L -63 -1509 
L -63 -1063 
L 3263 -1063 
z
" transform="scale(0.015625)"/>
      <path id="DejaVuSans-76" d="M 191 3500 
L 800 3500 
L 1894 563 
L 2988 3500 
L 3597 3500 
L 2284 0 
L 1503 0 
L 191 3500 
z
" transform="scale(0.015625)"/>
      <path id="DejaVuSans-65" d="M 3597 1894 
L 3597 1613 
L 953 1613 
Q 991 1019 1311 708 
Q 1631 397 2203 397 
Q 2534 397 2845 478 
Q 3156 559 3463 722 
L 3463 178 
Q 3153 47 2828 -22 
Q 2503 -91 2169 -91 
Q 1331 -91 842 396 
Q 353 884 353 1716 
Q 353 2575 817 3079 
Q 1281 3584 2069 3584 
Q 2775 3584 3186 3129 
Q 3597 2675 3597 1894 
z
M 3022 2063 
Q 3016 2534 2758 2815 
Q 2500 3097 2075 3097 
Q 1594 3097 1305 2825 
Q 1016 2553 972 2059 
L 3022 2063 
z
" transform="scale(0.015625)"/>
      <path id="DejaVuSans-70" d="M 1159 525 
L 1159 -1331 
L 581 -1331 
L 581 3500 
L 1159 3500 
L 1159 2969 
Q 1341 3281 1617 3432 
Q 1894 3584 2278 3584 
Q 2916 3584 3314 3078 
Q 3713 2572 3713 1747 
Q 3713 922 3314 415 
Q 2916 -91 2278 -91 
Q 1894 -91 1617 61 
Q 1341 213 1159 525 
z
M 3116 1747 
Q 3116 2381 2855 2742 
Q 2594 3103 2138 3103 
Q 1681 3103 1420 2742 
Q 1159 2381 1159 1747 
Q 1159 1113 1420 752 
Q 1681 391 2138 391 
Q 2594 391 2855 752 
Q 3116 1113 3116 1747 
z
" transform="scale(0.015625)"/>
      <path id="DejaVuSans-72" d="M 2631 2963 
Q 2534 3019 2420 3045 
Q 2306 3072 2169 3072 
Q 1681 3072 1420 2755 
Q 1159 2438 1159 1844 
L 1159 0 
L 581 0 
L 581 3500 
L 1159 3500 
L 1159 2956 
Q 1341 3275 1631 3429 
Q 1922 3584 2338 3584 
Q 2397 3584 2469 3576 
Q 2541 3569 2628 3553 
L 2631 2963 
z
" transform="scale(0.015625)"/>
      <path id="DejaVuSans-63" d="M 3122 3366 
L 3122 2828 
Q 2878 2963 2633 3030 
Q 2388 3097 2138 3097 
Q 1578 3097 1268 2742 
Q 959 2388 959 1747 
Q 959 1106 1268 751 
Q 1578 397 2138 397 
Q 2388 397 2633 464 
Q 2878 531 3122 666 
L 3122 134 
Q 2881 22 2623 -34 
Q 2366 -91 2075 -91 
Q 1284 -91 818 406 
Q 353 903 353 1747 
Q 353 2603 823 3093 
Q 1294 3584 2113 3584 
Q 2378 3584 2631 3529 
Q 2884 3475 3122 3366 
z
" transform="scale(0.015625)"/>
     </defs>
     <use xlink:href="#DejaVuSans-31"/>
     <use xlink:href="#DejaVuSans-66" x="63.623047"/>
     <use xlink:href="#DejaVuSans-69" x="98.828125"/>
     <use xlink:href="#DejaVuSans-6e" x="126.611328"/>
     <use xlink:href="#DejaVuSans-61" x="189.990234"/>
     <use xlink:href="#DejaVuSans-6c" x="251.269531"/>
     <use xlink:href="#DejaVuSans-5f" x="279.052734"/>
     <use xlink:href="#DejaVuSans-6e" x="329.052734"/>
     <use xlink:href="#DejaVuSans-61" x="392.431641"/>
     <use xlink:href="#DejaVuSans-69" x="453.710938"/>
     <use xlink:href="#DejaVuSans-76" x="481.494141"/>
     <use xlink:href="#DejaVuSans-65" x="540.673828"/>
     <use xlink:href="#DejaVuSans-5f" x="602.197266"/>
     <use xlink:href="#DejaVuSans-70" x="652.197266"/>
     <use xlink:href="#DejaVuSans-72" x="715.673828"/>
     <use xlink:href="#DejaVuSans-5f" x="756.787109"/>
     <use xlink:href="#DejaVuSans-63" x="806.787109"/>
     <use xlink:href="#DejaVuSans-63" x="861.767578"/>
     <use xlink:href="#DejaVuSans-69" x="916.748047"/>
    </g>
   </g>
   <g id="legend_1">
    <g id="patch_7">
     <path d="M 64.6 108.1845 
L 200.035938 108.1845 
Q 202.035938 108.1845 202.035938 106.1845 
L 202.035938 48.472 
Q 202.035938 46.472 200.035938 46.472 
L 64.6 46.472 
Q 62.6 46.472 62.6 48.472 
L 62.6 106.1845 
Q 62.6 108.1845 64.6 108.1845 
z
" style="fill: #ffffff; opacity: 0.8; stroke: #cccccc; stroke-linejoin: miter"/>
    </g>
    <g id="line2d_18">
     <path d="M 66.6 54.570438 
L 76.6 54.570438 
L 86.6 54.570438 
" style="fill: none; stroke: #1f77b4; stroke-opacity: 0.7; stroke-width: 0.5; stroke-linecap: square"/>
    </g>
    <g id="text_15">
     <!-- Positive predictions -->
     <g transform="translate(94.6 58.070438) scale(0.1 -0.1)">
      <defs>
       <path id="DejaVuSans-50" d="M 1259 4147 
L 1259 2394 
L 2053 2394 
Q 2494 2394 2734 2622 
Q 2975 2850 2975 3272 
Q 2975 3691 2734 3919 
Q 2494 4147 2053 4147 
L 1259 4147 
z
M 628 4666 
L 2053 4666 
Q 2838 4666 3239 4311 
Q 3641 3956 3641 3272 
Q 3641 2581 3239 2228 
Q 2838 1875 2053 1875 
L 1259 1875 
L 1259 0 
L 628 0 
L 628 4666 
z
" transform="scale(0.015625)"/>
       <path id="DejaVuSans-6f" d="M 1959 3097 
Q 1497 3097 1228 2736 
Q 959 2375 959 1747 
Q 959 1119 1226 758 
Q 1494 397 1959 397 
Q 2419 397 2687 759 
Q 2956 1122 2956 1747 
Q 2956 2369 2687 2733 
Q 2419 3097 1959 3097 
z
M 1959 3584 
Q 2709 3584 3137 3096 
Q 3566 2609 3566 1747 
Q 3566 888 3137 398 
Q 2709 -91 1959 -91 
Q 1206 -91 779 398 
Q 353 888 353 1747 
Q 353 2609 779 3096 
Q 1206 3584 1959 3584 
z
" transform="scale(0.015625)"/>
       <path id="DejaVuSans-73" d="M 2834 3397 
L 2834 2853 
Q 2591 2978 2328 3040 
Q 2066 3103 1784 3103 
Q 1356 3103 1142 2972 
Q 928 2841 928 2578 
Q 928 2378 1081 2264 
Q 1234 2150 1697 2047 
L 1894 2003 
Q 2506 1872 2764 1633 
Q 3022 1394 3022 966 
Q 3022 478 2636 193 
Q 2250 -91 1575 -91 
Q 1294 -91 989 -36 
Q 684 19 347 128 
L 347 722 
Q 666 556 975 473 
Q 1284 391 1588 391 
Q 1994 391 2212 530 
Q 2431 669 2431 922 
Q 2431 1156 2273 1281 
Q 2116 1406 1581 1522 
L 1381 1569 
Q 847 1681 609 1914 
Q 372 2147 372 2553 
Q 372 3047 722 3315 
Q 1072 3584 1716 3584 
Q 2034 3584 2315 3537 
Q 2597 3491 2834 3397 
z
" transform="scale(0.015625)"/>
       <path id="DejaVuSans-74" d="M 1172 4494 
L 1172 3500 
L 2356 3500 
L 2356 3053 
L 1172 3053 
L 1172 1153 
Q 1172 725 1289 603 
Q 1406 481 1766 481 
L 2356 481 
L 2356 0 
L 1766 0 
Q 1100 0 847 248 
Q 594 497 594 1153 
L 594 3053 
L 172 3053 
L 172 3500 
L 594 3500 
L 594 4494 
L 1172 4494 
z
" transform="scale(0.015625)"/>
       <path id="DejaVuSans-20" transform="scale(0.015625)"/>
       <path id="DejaVuSans-64" d="M 2906 2969 
L 2906 4863 
L 3481 4863 
L 3481 0 
L 2906 0 
L 2906 525 
Q 2725 213 2448 61 
Q 2172 -91 1784 -91 
Q 1150 -91 751 415 
Q 353 922 353 1747 
Q 353 2572 751 3078 
Q 1150 3584 1784 3584 
Q 2172 3584 2448 3432 
Q 2725 3281 2906 2969 
z
M 947 1747 
Q 947 1113 1208 752 
Q 1469 391 1925 391 
Q 2381 391 2643 752 
Q 2906 1113 2906 1747 
Q 2906 2381 2643 2742 
Q 2381 3103 1925 3103 
Q 1469 3103 1208 2742 
Q 947 2381 947 1747 
z
" transform="scale(0.015625)"/>
      </defs>
      <use xlink:href="#DejaVuSans-50"/>
      <use xlink:href="#DejaVuSans-6f" x="56.677734"/>
      <use xlink:href="#DejaVuSans-73" x="117.859375"/>
      <use xlink:href="#DejaVuSans-69" x="169.958984"/>
      <use xlink:href="#DejaVuSans-74" x="197.742188"/>
      <use xlink:href="#DejaVuSans-69" x="236.951172"/>
      <use xlink:href="#DejaVuSans-76" x="264.734375"/>
      <use xlink:href="#DejaVuSans-65" x="323.914062"/>
      <use xlink:href="#DejaVuSans-20" x="385.4375"/>
      <use xlink:href="#DejaVuSans-70" x="417.224609"/>
      <use xlink:href="#DejaVuSans-72" x="480.701172"/>
      <use xlink:href="#DejaVuSans-65" x="519.564453"/>
      <use xlink:href="#DejaVuSans-64" x="581.087891"/>
      <use xlink:href="#DejaVuSans-69" x="644.564453"/>
      <use xlink:href="#DejaVuSans-63" x="672.347656"/>
      <use xlink:href="#DejaVuSans-74" x="727.328125"/>
      <use xlink:href="#DejaVuSans-69" x="766.537109"/>
      <use xlink:href="#DejaVuSans-6f" x="794.320312"/>
      <use xlink:href="#DejaVuSans-6e" x="855.501953"/>
      <use xlink:href="#DejaVuSans-73" x="918.880859"/>
     </g>
    </g>
    <g id="line2d_19">
     <path d="M 66.6 69.248563 
L 76.6 69.248563 
L 86.6 69.248563 
" style="fill: none; stroke: #ff7f0e; stroke-opacity: 0.7; stroke-width: 0.5; stroke-linecap: square"/>
    </g>
    <g id="text_16">
     <!-- Negative predictions -->
     <g transform="translate(94.6 72.748563) scale(0.1 -0.1)">
      <defs>
       <path id="DejaVuSans-4e" d="M 628 4666 
L 1478 4666 
L 3547 763 
L 3547 4666 
L 4159 4666 
L 4159 0 
L 3309 0 
L 1241 3903 
L 1241 0 
L 628 0 
L 628 4666 
z
" transform="scale(0.015625)"/>
       <path id="DejaVuSans-67" d="M 2906 1791 
Q 2906 2416 2648 2759 
Q 2391 3103 1925 3103 
Q 1463 3103 1205 2759 
Q 947 2416 947 1791 
Q 947 1169 1205 825 
Q 1463 481 1925 481 
Q 2391 481 2648 825 
Q 2906 1169 2906 1791 
z
M 3481 434 
Q 3481 -459 3084 -895 
Q 2688 -1331 1869 -1331 
Q 1566 -1331 1297 -1286 
Q 1028 -1241 775 -1147 
L 775 -588 
Q 1028 -725 1275 -790 
Q 1522 -856 1778 -856 
Q 2344 -856 2625 -561 
Q 2906 -266 2906 331 
L 2906 616 
Q 2728 306 2450 153 
Q 2172 0 1784 0 
Q 1141 0 747 490 
Q 353 981 353 1791 
Q 353 2603 747 3093 
Q 1141 3584 1784 3584 
Q 2172 3584 2450 3431 
Q 2728 3278 2906 2969 
L 2906 3500 
L 3481 3500 
L 3481 434 
z
" transform="scale(0.015625)"/>
      </defs>
      <use xlink:href="#DejaVuSans-4e"/>
      <use xlink:href="#DejaVuSans-65" x="74.804688"/>
      <use xlink:href="#DejaVuSans-67" x="136.328125"/>
      <use xlink:href="#DejaVuSans-61" x="199.804688"/>
      <use xlink:href="#DejaVuSans-74" x="261.083984"/>
      <use xlink:href="#DejaVuSans-69" x="300.292969"/>
      <use xlink:href="#DejaVuSans-76" x="328.076172"/>
      <use xlink:href="#DejaVuSans-65" x="387.255859"/>
      <use xlink:href="#DejaVuSans-20" x="448.779297"/>
      <use xlink:href="#DejaVuSans-70" x="480.566406"/>
      <use xlink:href="#DejaVuSans-72" x="544.042969"/>
      <use xlink:href="#DejaVuSans-65" x="582.90625"/>
      <use xlink:href="#DejaVuSans-64" x="644.429688"/>
      <use xlink:href="#DejaVuSans-69" x="707.90625"/>
      <use xlink:href="#DejaVuSans-63" x="735.689453"/>
      <use xlink:href="#DejaVuSans-74" x="790.669922"/>
      <use xlink:href="#DejaVuSans-69" x="829.878906"/>
      <use xlink:href="#DejaVuSans-6f" x="857.662109"/>
      <use xlink:href="#DejaVuSans-6e" x="918.84375"/>
      <use xlink:href="#DejaVuSans-73" x="982.222656"/>
     </g>
    </g>
    <g id="line2d_20">
     <path d="M 66.6 83.926688 
L 76.6 83.926688 
L 86.6 83.926688 
" style="fill: none; stroke: #2ca02c; stroke-opacity: 0.7; stroke-width: 0.5; stroke-linecap: square"/>
    </g>
    <g id="text_17">
     <!-- Average predictions -->
     <g transform="translate(94.6 87.426688) scale(0.1 -0.1)">
      <defs>
       <path id="DejaVuSans-41" d="M 2188 4044 
L 1331 1722 
L 3047 1722 
L 2188 4044 
z
M 1831 4666 
L 2547 4666 
L 4325 0 
L 3669 0 
L 3244 1197 
L 1141 1197 
L 716 0 
L 50 0 
L 1831 4666 
z
" transform="scale(0.015625)"/>
      </defs>
      <use xlink:href="#DejaVuSans-41"/>
      <use xlink:href="#DejaVuSans-76" x="62.533203"/>
      <use xlink:href="#DejaVuSans-65" x="121.712891"/>
      <use xlink:href="#DejaVuSans-72" x="183.236328"/>
      <use xlink:href="#DejaVuSans-61" x="224.349609"/>
      <use xlink:href="#DejaVuSans-67" x="285.628906"/>
      <use xlink:href="#DejaVuSans-65" x="349.105469"/>
      <use xlink:href="#DejaVuSans-20" x="410.628906"/>
      <use xlink:href="#DejaVuSans-70" x="442.416016"/>
      <use xlink:href="#DejaVuSans-72" x="505.892578"/>
      <use xlink:href="#DejaVuSans-65" x="544.755859"/>
      <use xlink:href="#DejaVuSans-64" x="606.279297"/>
      <use xlink:href="#DejaVuSans-69" x="669.755859"/>
      <use xlink:href="#DejaVuSans-63" x="697.539062"/>
      <use xlink:href="#DejaVuSans-74" x="752.519531"/>
      <use xlink:href="#DejaVuSans-69" x="791.728516"/>
      <use xlink:href="#DejaVuSans-6f" x="819.511719"/>
      <use xlink:href="#DejaVuSans-6e" x="880.693359"/>
      <use xlink:href="#DejaVuSans-73" x="944.072266"/>
     </g>
    </g>
    <g id="line2d_21">
     <path d="M 66.6 98.604813 
L 76.6 98.604813 
L 86.6 98.604813 
" style="fill: none; stroke: #d62728; stroke-opacity: 0.7; stroke-width: 0.5; stroke-linecap: square"/>
    </g>
    <g id="text_18">
     <!-- Actual values -->
     <g transform="translate(94.6 102.104813) scale(0.1 -0.1)">
      <defs>
       <path id="DejaVuSans-75" d="M 544 1381 
L 544 3500 
L 1119 3500 
L 1119 1403 
Q 1119 906 1312 657 
Q 1506 409 1894 409 
Q 2359 409 2629 706 
Q 2900 1003 2900 1516 
L 2900 3500 
L 3475 3500 
L 3475 0 
L 2900 0 
L 2900 538 
Q 2691 219 2414 64 
Q 2138 -91 1772 -91 
Q 1169 -91 856 284 
Q 544 659 544 1381 
z
M 1991 3584 
L 1991 3584 
z
" transform="scale(0.015625)"/>
      </defs>
      <use xlink:href="#DejaVuSans-41"/>
      <use xlink:href="#DejaVuSans-63" x="66.658203"/>
      <use xlink:href="#DejaVuSans-74" x="121.638672"/>
      <use xlink:href="#DejaVuSans-75" x="160.847656"/>
      <use xlink:href="#DejaVuSans-61" x="224.226562"/>
      <use xlink:href="#DejaVuSans-6c" x="285.505859"/>
      <use xlink:href="#DejaVuSans-20" x="313.289062"/>
      <use xlink:href="#DejaVuSans-76" x="345.076172"/>
      <use xlink:href="#DejaVuSans-61" x="404.255859"/>
      <use xlink:href="#DejaVuSans-6c" x="465.535156"/>
      <use xlink:href="#DejaVuSans-75" x="493.318359"/>
      <use xlink:href="#DejaVuSans-65" x="556.697266"/>
      <use xlink:href="#DejaVuSans-73" x="618.220703"/>
     </g>
    </g>
   </g>
  </g>
 </g>
 <defs>
  <clipPath id="pad2199980b">
   <rect x="57.6" y="41.472" width="357.12" height="266.112"/>
  </clipPath>
 </defs>
</svg>
