<?xml version="1.0" encoding="utf-8" standalone="no"?>
<!DOCTYPE svg PUBLIC "-//W3C//DTD SVG 1.1//EN"
  "http://www.w3.org/Graphics/SVG/1.1/DTD/svg11.dtd">
<svg xmlns:xlink="http://www.w3.org/1999/xlink" width="460.8pt" height="345.6pt" viewBox="0 0 460.8 345.6" xmlns="http://www.w3.org/2000/svg" version="1.1">
 <metadata>
  <rdf:RDF xmlns:dc="http://purl.org/dc/elements/1.1/" xmlns:cc="http://creativecommons.org/ns#" xmlns:rdf="http://www.w3.org/1999/02/22-rdf-syntax-ns#">
   <cc:Work>
    <dc:type rdf:resource="http://purl.org/dc/dcmitype/StillImage"/>
    <dc:date>2024-09-06T11:35:10.303198</dc:date>
    <dc:format>image/svg+xml</dc:format>
    <dc:creator>
     <cc:Agent>
      <dc:title>Matplotlib v3.9.0, https://matplotlib.org/</dc:title>
     </cc:Agent>
    </dc:creator>
   </cc:Work>
  </rdf:RDF>
 </metadata>
 <defs>
  <style type="text/css">*{stroke-linejoin: round; stroke-linecap: butt}</style>
 </defs>
 <g id="figure_1">
  <g id="patch_1">
   <path d="M 0 345.6 
L 460.8 345.6 
L 460.8 0 
L 0 0 
z
" style="fill: #ffffff"/>
  </g>
  <g id="axes_1">
   <g id="patch_2">
    <path d="M 57.6 307.584 
L 414.72 307.584 
L 414.72 41.472 
L 57.6 41.472 
z
" style="fill: #ffffff"/>
   </g>
   <g id="matplotlib.axis_1">
    <g id="xtick_1">
     <g id="line2d_1">
      <defs>
       <path id="m2638145dbd" d="M 0 0 
L 0 3.5 
" style="stroke: #000000; stroke-width: 0.8"/>
      </defs>
      <g>
       <use xlink:href="#m2638145dbd" x="73.832727" y="307.584" style="stroke: #000000; stroke-width: 0.8"/>
      </g>
     </g>
     <g id="text_1">
      <!-- 0 -->
      <g transform="translate(70.651477 322.182437) scale(0.1 -0.1)">
       <defs>
        <path id="DejaVuSans-30" d="M 2034 4250 
Q 1547 4250 1301 3770 
Q 1056 3291 1056 2328 
Q 1056 1369 1301 889 
Q 1547 409 2034 409 
Q 2525 409 2770 889 
Q 3016 1369 3016 2328 
Q 3016 3291 2770 3770 
Q 2525 4250 2034 4250 
z
M 2034 4750 
Q 2819 4750 3233 4129 
Q 3647 3509 3647 2328 
Q 3647 1150 3233 529 
Q 2819 -91 2034 -91 
Q 1250 -91 836 529 
Q 422 1150 422 2328 
Q 422 3509 836 4129 
Q 1250 4750 2034 4750 
z
" transform="scale(0.015625)"/>
       </defs>
       <use xlink:href="#DejaVuSans-30"/>
      </g>
     </g>
    </g>
    <g id="xtick_2">
     <g id="line2d_2">
      <g>
       <use xlink:href="#m2638145dbd" x="149.333784" y="307.584" style="stroke: #000000; stroke-width: 0.8"/>
      </g>
     </g>
     <g id="text_2">
      <!-- 50 -->
      <g transform="translate(142.971284 322.182437) scale(0.1 -0.1)">
       <defs>
        <path id="DejaVuSans-35" d="M 691 4666 
L 3169 4666 
L 3169 4134 
L 1269 4134 
L 1269 2991 
Q 1406 3038 1543 3061 
Q 1681 3084 1819 3084 
Q 2600 3084 3056 2656 
Q 3513 2228 3513 1497 
Q 3513 744 3044 326 
Q 2575 -91 1722 -91 
Q 1428 -91 1123 -41 
Q 819 9 494 109 
L 494 744 
Q 775 591 1075 516 
Q 1375 441 1709 441 
Q 2250 441 2565 725 
Q 2881 1009 2881 1497 
Q 2881 1984 2565 2268 
Q 2250 2553 1709 2553 
Q 1456 2553 1204 2497 
Q 953 2441 691 2322 
L 691 4666 
z
" transform="scale(0.015625)"/>
       </defs>
       <use xlink:href="#DejaVuSans-35"/>
       <use xlink:href="#DejaVuSans-30" x="63.623047"/>
      </g>
     </g>
    </g>
    <g id="xtick_3">
     <g id="line2d_3">
      <g>
       <use xlink:href="#m2638145dbd" x="224.834841" y="307.584" style="stroke: #000000; stroke-width: 0.8"/>
      </g>
     </g>
     <g id="text_3">
      <!-- 100 -->
      <g transform="translate(215.291091 322.182437) scale(0.1 -0.1)">
       <defs>
        <path id="DejaVuSans-31" d="M 794 531 
L 1825 531 
L 1825 4091 
L 703 3866 
L 703 4441 
L 1819 4666 
L 2450 4666 
L 2450 531 
L 3481 531 
L 3481 0 
L 794 0 
L 794 531 
z
" transform="scale(0.015625)"/>
       </defs>
       <use xlink:href="#DejaVuSans-31"/>
       <use xlink:href="#DejaVuSans-30" x="63.623047"/>
       <use xlink:href="#DejaVuSans-30" x="127.246094"/>
      </g>
     </g>
    </g>
    <g id="xtick_4">
     <g id="line2d_4">
      <g>
       <use xlink:href="#m2638145dbd" x="300.335899" y="307.584" style="stroke: #000000; stroke-width: 0.8"/>
      </g>
     </g>
     <g id="text_4">
      <!-- 150 -->
      <g transform="translate(290.792149 322.182437) scale(0.1 -0.1)">
       <use xlink:href="#DejaVuSans-31"/>
       <use xlink:href="#DejaVuSans-35" x="63.623047"/>
       <use xlink:href="#DejaVuSans-30" x="127.246094"/>
      </g>
     </g>
    </g>
    <g id="xtick_5">
     <g id="line2d_5">
      <g>
       <use xlink:href="#m2638145dbd" x="375.836956" y="307.584" style="stroke: #000000; stroke-width: 0.8"/>
      </g>
     </g>
     <g id="text_5">
      <!-- 200 -->
      <g transform="translate(366.293206 322.182437) scale(0.1 -0.1)">
       <defs>
        <path id="DejaVuSans-32" d="M 1228 531 
L 3431 531 
L 3431 0 
L 469 0 
L 469 531 
Q 828 903 1448 1529 
Q 2069 2156 2228 2338 
Q 2531 2678 2651 2914 
Q 2772 3150 2772 3378 
Q 2772 3750 2511 3984 
Q 2250 4219 1831 4219 
Q 1534 4219 1204 4116 
Q 875 4013 500 3803 
L 500 4441 
Q 881 4594 1212 4672 
Q 1544 4750 1819 4750 
Q 2544 4750 2975 4387 
Q 3406 4025 3406 3419 
Q 3406 3131 3298 2873 
Q 3191 2616 2906 2266 
Q 2828 2175 2409 1742 
Q 1991 1309 1228 531 
z
" transform="scale(0.015625)"/>
       </defs>
       <use xlink:href="#DejaVuSans-32"/>
       <use xlink:href="#DejaVuSans-30" x="63.623047"/>
       <use xlink:href="#DejaVuSans-30" x="127.246094"/>
      </g>
     </g>
    </g>
   </g>
   <g id="matplotlib.axis_2">
    <g id="ytick_1">
     <g id="line2d_6">
      <defs>
       <path id="mcb258fa31d" d="M 0 0 
L -3.5 0 
" style="stroke: #000000; stroke-width: 0.8"/>
      </defs>
      <g>
       <use xlink:href="#mcb258fa31d" x="57.6" y="301.757211" style="stroke: #000000; stroke-width: 0.8"/>
      </g>
     </g>
     <g id="text_6">
      <!-- −8000 -->
      <g transform="translate(16.770313 305.55643) scale(0.1 -0.1)">
       <defs>
        <path id="DejaVuSans-2212" d="M 678 2272 
L 4684 2272 
L 4684 1741 
L 678 1741 
L 678 2272 
z
" transform="scale(0.015625)"/>
        <path id="DejaVuSans-38" d="M 2034 2216 
Q 1584 2216 1326 1975 
Q 1069 1734 1069 1313 
Q 1069 891 1326 650 
Q 1584 409 2034 409 
Q 2484 409 2743 651 
Q 3003 894 3003 1313 
Q 3003 1734 2745 1975 
Q 2488 2216 2034 2216 
z
M 1403 2484 
Q 997 2584 770 2862 
Q 544 3141 544 3541 
Q 544 4100 942 4425 
Q 1341 4750 2034 4750 
Q 2731 4750 3128 4425 
Q 3525 4100 3525 3541 
Q 3525 3141 3298 2862 
Q 3072 2584 2669 2484 
Q 3125 2378 3379 2068 
Q 3634 1759 3634 1313 
Q 3634 634 3220 271 
Q 2806 -91 2034 -91 
Q 1263 -91 848 271 
Q 434 634 434 1313 
Q 434 1759 690 2068 
Q 947 2378 1403 2484 
z
M 1172 3481 
Q 1172 3119 1398 2916 
Q 1625 2713 2034 2713 
Q 2441 2713 2670 2916 
Q 2900 3119 2900 3481 
Q 2900 3844 2670 4047 
Q 2441 4250 2034 4250 
Q 1625 4250 1398 4047 
Q 1172 3844 1172 3481 
z
" transform="scale(0.015625)"/>
       </defs>
       <use xlink:href="#DejaVuSans-2212"/>
       <use xlink:href="#DejaVuSans-38" x="83.789062"/>
       <use xlink:href="#DejaVuSans-30" x="147.412109"/>
       <use xlink:href="#DejaVuSans-30" x="211.035156"/>
       <use xlink:href="#DejaVuSans-30" x="274.658203"/>
      </g>
     </g>
    </g>
    <g id="ytick_2">
     <g id="line2d_7">
      <g>
       <use xlink:href="#mcb258fa31d" x="57.6" y="272.112267" style="stroke: #000000; stroke-width: 0.8"/>
      </g>
     </g>
     <g id="text_7">
      <!-- −6000 -->
      <g transform="translate(16.770313 275.911485) scale(0.1 -0.1)">
       <defs>
        <path id="DejaVuSans-36" d="M 2113 2584 
Q 1688 2584 1439 2293 
Q 1191 2003 1191 1497 
Q 1191 994 1439 701 
Q 1688 409 2113 409 
Q 2538 409 2786 701 
Q 3034 994 3034 1497 
Q 3034 2003 2786 2293 
Q 2538 2584 2113 2584 
z
M 3366 4563 
L 3366 3988 
Q 3128 4100 2886 4159 
Q 2644 4219 2406 4219 
Q 1781 4219 1451 3797 
Q 1122 3375 1075 2522 
Q 1259 2794 1537 2939 
Q 1816 3084 2150 3084 
Q 2853 3084 3261 2657 
Q 3669 2231 3669 1497 
Q 3669 778 3244 343 
Q 2819 -91 2113 -91 
Q 1303 -91 875 529 
Q 447 1150 447 2328 
Q 447 3434 972 4092 
Q 1497 4750 2381 4750 
Q 2619 4750 2861 4703 
Q 3103 4656 3366 4563 
z
" transform="scale(0.015625)"/>
       </defs>
       <use xlink:href="#DejaVuSans-2212"/>
       <use xlink:href="#DejaVuSans-36" x="83.789062"/>
       <use xlink:href="#DejaVuSans-30" x="147.412109"/>
       <use xlink:href="#DejaVuSans-30" x="211.035156"/>
       <use xlink:href="#DejaVuSans-30" x="274.658203"/>
      </g>
     </g>
    </g>
    <g id="ytick_3">
     <g id="line2d_8">
      <g>
       <use xlink:href="#mcb258fa31d" x="57.6" y="242.467322" style="stroke: #000000; stroke-width: 0.8"/>
      </g>
     </g>
     <g id="text_8">
      <!-- −4000 -->
      <g transform="translate(16.770313 246.266541) scale(0.1 -0.1)">
       <defs>
        <path id="DejaVuSans-34" d="M 2419 4116 
L 825 1625 
L 2419 1625 
L 2419 4116 
z
M 2253 4666 
L 3047 4666 
L 3047 1625 
L 3713 1625 
L 3713 1100 
L 3047 1100 
L 3047 0 
L 2419 0 
L 2419 1100 
L 313 1100 
L 313 1709 
L 2253 4666 
z
" transform="scale(0.015625)"/>
       </defs>
       <use xlink:href="#DejaVuSans-2212"/>
       <use xlink:href="#DejaVuSans-34" x="83.789062"/>
       <use xlink:href="#DejaVuSans-30" x="147.412109"/>
       <use xlink:href="#DejaVuSans-30" x="211.035156"/>
       <use xlink:href="#DejaVuSans-30" x="274.658203"/>
      </g>
     </g>
    </g>
    <g id="ytick_4">
     <g id="line2d_9">
      <g>
       <use xlink:href="#mcb258fa31d" x="57.6" y="212.822378" style="stroke: #000000; stroke-width: 0.8"/>
      </g>
     </g>
     <g id="text_9">
      <!-- −2000 -->
      <g transform="translate(16.770313 216.621597) scale(0.1 -0.1)">
       <use xlink:href="#DejaVuSans-2212"/>
       <use xlink:href="#DejaVuSans-32" x="83.789062"/>
       <use xlink:href="#DejaVuSans-30" x="147.412109"/>
       <use xlink:href="#DejaVuSans-30" x="211.035156"/>
       <use xlink:href="#DejaVuSans-30" x="274.658203"/>
      </g>
     </g>
    </g>
    <g id="ytick_5">
     <g id="line2d_10">
      <g>
       <use xlink:href="#mcb258fa31d" x="57.6" y="183.177434" style="stroke: #000000; stroke-width: 0.8"/>
      </g>
     </g>
     <g id="text_10">
      <!-- 0 -->
      <g transform="translate(44.2375 186.976652) scale(0.1 -0.1)">
       <use xlink:href="#DejaVuSans-30"/>
      </g>
     </g>
    </g>
    <g id="ytick_6">
     <g id="line2d_11">
      <g>
       <use xlink:href="#mcb258fa31d" x="57.6" y="153.532489" style="stroke: #000000; stroke-width: 0.8"/>
      </g>
     </g>
     <g id="text_11">
      <!-- 2000 -->
      <g transform="translate(25.15 157.331708) scale(0.1 -0.1)">
       <use xlink:href="#DejaVuSans-32"/>
       <use xlink:href="#DejaVuSans-30" x="63.623047"/>
       <use xlink:href="#DejaVuSans-30" x="127.246094"/>
       <use xlink:href="#DejaVuSans-30" x="190.869141"/>
      </g>
     </g>
    </g>
    <g id="ytick_7">
     <g id="line2d_12">
      <g>
       <use xlink:href="#mcb258fa31d" x="57.6" y="123.887545" style="stroke: #000000; stroke-width: 0.8"/>
      </g>
     </g>
     <g id="text_12">
      <!-- 4000 -->
      <g transform="translate(25.15 127.686764) scale(0.1 -0.1)">
       <use xlink:href="#DejaVuSans-34"/>
       <use xlink:href="#DejaVuSans-30" x="63.623047"/>
       <use xlink:href="#DejaVuSans-30" x="127.246094"/>
       <use xlink:href="#DejaVuSans-30" x="190.869141"/>
      </g>
     </g>
    </g>
    <g id="ytick_8">
     <g id="line2d_13">
      <g>
       <use xlink:href="#mcb258fa31d" x="57.6" y="94.242601" style="stroke: #000000; stroke-width: 0.8"/>
      </g>
     </g>
     <g id="text_13">
      <!-- 6000 -->
      <g transform="translate(25.15 98.041819) scale(0.1 -0.1)">
       <use xlink:href="#DejaVuSans-36"/>
       <use xlink:href="#DejaVuSans-30" x="63.623047"/>
       <use xlink:href="#DejaVuSans-30" x="127.246094"/>
       <use xlink:href="#DejaVuSans-30" x="190.869141"/>
      </g>
     </g>
    </g>
    <g id="ytick_9">
     <g id="line2d_14">
      <g>
       <use xlink:href="#mcb258fa31d" x="57.6" y="64.597656" style="stroke: #000000; stroke-width: 0.8"/>
      </g>
     </g>
     <g id="text_14">
      <!-- 8000 -->
      <g transform="translate(25.15 68.396875) scale(0.1 -0.1)">
       <use xlink:href="#DejaVuSans-38"/>
       <use xlink:href="#DejaVuSans-30" x="63.623047"/>
       <use xlink:href="#DejaVuSans-30" x="127.246094"/>
       <use xlink:href="#DejaVuSans-30" x="190.869141"/>
      </g>
     </g>
    </g>
   </g>
   <g id="line2d_15">
    <path d="M 73.832727 191.190419 
L 75.342748 193.440505 
L 76.85277 189.819791 
L 78.362791 188.119565 
L 79.872812 187.913344 
L 81.382833 184.030849 
L 82.892854 186.382301 
L 84.402875 190.015219 
L 85.912896 188.653448 
L 87.422918 189.450103 
L 88.932939 186.06543 
L 90.44296 183.920089 
L 91.952981 185.192791 
L 93.463002 184.468213 
L 94.973023 184.540635 
L 96.483044 187.417378 
L 97.993066 187.995823 
L 99.503087 188.38843 
L 101.013108 183.76214 
L 102.523129 186.256442 
L 105.543171 185.157149 
L 107.053192 186.292701 
L 108.563214 185.475068 
L 110.073235 187.141256 
L 111.583256 188.228376 
L 113.093277 188.262892 
L 114.603298 189.643595 
L 116.113319 186.247178 
L 117.62334 184.286314 
L 119.133362 185.76554 
L 120.643383 184.904387 
L 122.153404 185.996702 
L 123.663425 185.644339 
L 125.173446 185.033674 
L 126.683467 184.720116 
L 128.193488 184.943433 
L 129.70351 186.009783 
L 131.213531 186.506935 
L 132.723552 186.823459 
L 134.233573 188.494489 
L 135.743594 187.094595 
L 137.253615 189.451801 
L 138.763636 186.219261 
L 140.273658 187.666673 
L 141.783679 187.080554 
L 143.2937 189.640544 
L 144.803721 184.403784 
L 146.313742 185.445348 
L 147.823763 189.157488 
L 149.333784 189.595439 
L 150.843805 185.41498 
L 152.353827 184.116656 
L 153.863848 186.594387 
L 155.373869 188.575452 
L 156.88389 186.09615 
L 158.393911 184.645288 
L 159.903932 184.203823 
L 161.413953 184.943781 
L 164.433996 183.639302 
L 165.944017 185.411638 
L 167.454038 184.808098 
L 168.964059 186.340323 
L 170.47408 184.427674 
L 171.984101 183.098593 
L 173.494123 185.204151 
L 175.004144 184.802337 
L 176.514165 184.954219 
L 178.024186 184.337116 
L 179.534207 186.204925 
L 181.044228 185.38099 
L 182.554249 186.195946 
L 184.064271 186.406592 
L 185.574292 184.521844 
L 187.084313 184.169584 
L 188.594334 184.00967 
L 190.104355 186.480974 
L 191.614376 186.385034 
L 193.124397 187.846281 
L 194.634419 186.067211 
L 196.14444 189.583913 
L 197.654461 186.775831 
L 199.164482 186.114745 
L 200.674503 183.757129 
L 202.184524 187.241152 
L 203.694545 185.455192 
L 205.204567 184.164471 
L 206.714588 184.750199 
L 208.224609 184.202051 
L 209.73463 187.134998 
L 211.244651 187.139005 
L 212.754672 187.463286 
L 214.264693 186.414378 
L 215.774715 183.697025 
L 217.284736 186.544439 
L 218.794757 184.773351 
L 220.304778 184.899024 
L 221.814799 185.897022 
L 223.32482 189.03714 
L 224.834841 190.380097 
L 226.344863 187.403671 
L 227.854884 190.905793 
L 229.364905 188.475523 
L 230.874926 187.170806 
L 232.384947 194.669337 
L 233.894968 196.752256 
L 235.404989 195.984224 
L 236.915011 180.359445 
L 238.425032 204.15414 
L 239.935053 201.833471 
L 241.445074 188.58785 
L 242.955095 190.249047 
L 244.465116 195.355695 
L 245.975137 182.723932 
L 247.485159 199.977058 
L 248.99518 198.48358 
L 250.505201 168.976677 
L 252.015222 203.073332 
L 253.525243 194.329319 
L 255.035264 196.298029 
L 256.545285 216.025724 
L 258.055307 201.767101 
L 259.565328 203.284164 
L 261.075349 192.767986 
L 262.58537 194.513247 
L 264.095391 197.170928 
L 265.605412 202.600975 
L 267.115433 203.773391 
L 268.625455 210.775882 
L 270.135476 198.870444 
L 273.155518 194.169772 
L 274.665539 205.257325 
L 276.17556 205.862193 
L 277.685581 210.802901 
L 279.195603 196.206898 
L 280.705624 195.508086 
L 282.215645 187.75968 
L 283.725666 191.532537 
L 285.235687 187.57862 
L 286.745708 191.795672 
L 288.255729 195.47341 
L 289.765751 189.488411 
L 291.275772 192.458347 
L 292.785793 188.830401 
L 294.295814 198.859673 
L 295.805835 183.824824 
L 297.315856 199.687815 
L 298.825877 191.23619 
L 301.84592 200.405254 
L 303.355941 188.213367 
L 304.865962 188.235097 
L 306.375983 186.220373 
L 307.886004 178.727643 
L 309.396025 199.995034 
L 310.906047 193.774289 
L 312.416068 195.152875 
L 313.926089 175.588133 
L 315.43611 198.547497 
L 316.946131 195.798361 
L 318.456152 189.788834 
L 319.966173 194.289461 
L 321.476195 191.197009 
L 322.986216 194.263544 
L 324.496237 184.954547 
L 326.006258 186.357032 
L 327.516279 192.438622 
L 329.0263 189.977904 
L 330.536321 189.235398 
L 332.046342 187.916053 
L 333.556364 196.93577 
L 335.066385 192.243021 
L 336.576406 189.868238 
L 338.086427 188.958614 
L 339.596448 188.493942 
L 341.106469 190.508699 
L 342.61649 191.357134 
L 344.126512 191.318351 
L 345.636533 197.401005 
L 347.146554 193.674702 
L 348.656575 195.571734 
L 350.166596 194.008998 
L 351.676617 195.797947 
L 353.186638 187.960057 
L 354.69666 190.631439 
L 356.206681 197.166305 
L 357.716702 196.585768 
L 359.226723 199.411028 
L 360.736744 192.092616 
L 362.246765 194.119157 
L 363.756786 192.829184 
L 365.266808 186.020257 
L 366.776829 190.008976 
L 368.28685 187.031157 
L 369.796871 195.469503 
L 371.306892 193.248684 
L 372.816913 198.631926 
L 374.326934 197.34591 
L 375.836956 185.352137 
L 377.346977 186.613139 
L 378.856998 182.091379 
L 380.367019 186.637194 
L 381.87704 185.187795 
L 383.387061 188.212929 
L 384.897082 189.680352 
L 386.407104 188.608472 
L 387.917125 199.245196 
L 389.427146 199.12691 
L 390.937167 197.053718 
L 392.447188 191.866795 
L 393.957209 195.907267 
L 395.46723 201.301881 
L 396.977252 191.382927 
L 398.487273 191.881007 
L 398.487273 191.881007 
" clip-path="url(#p45ceb78181)" style="fill: none; stroke: #008000; stroke-opacity: 0.8; stroke-width: 0.5; stroke-linecap: square"/>
   </g>
   <g id="line2d_16">
    <path d="M 73.832727 174.119008 
L 75.342748 179.483053 
L 76.85277 180.716579 
L 78.362791 178.622856 
L 81.382833 172.711522 
L 82.892854 180.192549 
L 84.402875 183.618516 
L 85.912896 175.070814 
L 87.422918 183.98447 
L 88.932939 180.156497 
L 90.44296 177.565282 
L 91.952981 183.027713 
L 93.463002 173.125443 
L 94.973023 175.616017 
L 96.483044 184.737941 
L 97.993066 180.410879 
L 99.503087 182.641353 
L 101.013108 178.93856 
L 102.523129 179.899444 
L 104.03315 181.993883 
L 105.543171 177.948518 
L 107.053192 182.119465 
L 108.563214 183.263553 
L 110.073235 184.564077 
L 111.583256 185.562586 
L 113.093277 183.355937 
L 114.603298 186.554472 
L 116.113319 176.36368 
L 117.62334 175.238328 
L 119.133362 181.583585 
L 120.643383 181.749033 
L 122.153404 181.081775 
L 123.663425 182.085282 
L 125.173446 179.831256 
L 126.683467 182.416206 
L 128.193488 182.731874 
L 129.70351 184.026265 
L 131.213531 182.167242 
L 132.723552 183.674268 
L 134.233573 187.361646 
L 135.743594 185.942447 
L 137.253615 185.49113 
L 138.763636 180.812156 
L 140.273658 183.899688 
L 141.783679 184.702361 
L 143.2937 181.274073 
L 144.803721 176.69444 
L 146.313742 177.613438 
L 147.823763 184.221919 
L 149.333784 182.477711 
L 150.843805 157.373526 
L 152.353827 172.815372 
L 153.863848 167.49451 
L 155.373869 182.086608 
L 156.88389 177.871302 
L 158.393911 172.512361 
L 159.903932 176.708472 
L 161.413953 179.662205 
L 162.923975 181.765784 
L 164.433996 168.8941 
L 165.944017 181.457283 
L 167.454038 182.118964 
L 168.964059 175.820409 
L 170.47408 178.427782 
L 171.984101 179.93802 
L 173.494123 180.529036 
L 175.004144 182.839367 
L 176.514165 180.272467 
L 178.024186 182.477079 
L 179.534207 181.414043 
L 181.044228 180.916178 
L 182.554249 180.564745 
L 184.064271 182.87782 
L 185.574292 178.04726 
L 187.084313 178.154222 
L 188.594334 172.513689 
L 190.104355 141.153685 
L 191.614376 177.914578 
L 193.124397 183.024592 
L 194.634419 178.621205 
L 196.14444 184.740335 
L 197.654461 180.752598 
L 199.164482 172.371402 
L 200.674503 176.86961 
L 202.184524 178.542216 
L 203.694545 178.694361 
L 205.204567 179.612513 
L 206.714588 182.305579 
L 208.224609 182.682492 
L 209.73463 183.375563 
L 211.244651 176.127525 
L 212.754672 177.89803 
L 214.264693 182.366555 
L 215.774715 167.782697 
L 217.284736 183.221666 
L 218.794757 176.861821 
L 220.304778 180.712152 
L 221.814799 182.717623 
L 223.32482 185.965179 
L 224.834841 179.70968 
L 226.344863 175.771787 
L 227.854884 180.540492 
L 229.364905 162.490405 
L 230.874926 174.791381 
L 232.384947 178.010955 
L 233.894968 173.815018 
L 235.404989 143.718447 
L 236.915011 125.8679 
L 238.425032 155.811821 
L 239.935053 163.516827 
L 241.445074 105.65751 
L 242.955095 146.841363 
L 244.465116 135.491778 
L 245.975137 142.2972 
L 247.485159 166.947681 
L 248.99518 159.143417 
L 250.505201 120.105689 
L 252.015222 142.789393 
L 253.525243 84.027388 
L 255.035264 126.255794 
L 256.545285 181.946705 
L 258.055307 163.384226 
L 259.565328 149.716377 
L 261.075349 161.028831 
L 262.58537 176.397212 
L 264.095391 178.717257 
L 265.605412 174.410202 
L 267.115433 176.240189 
L 268.625455 176.090568 
L 270.135476 171.221312 
L 271.645497 113.401835 
L 273.155518 135.4351 
L 274.665539 154.915257 
L 276.17556 171.793968 
L 277.685581 142.707685 
L 279.195603 168.762909 
L 280.705624 163.369101 
L 282.215645 145.2461 
L 283.725666 138.972399 
L 285.235687 133.364937 
L 288.255729 146.782759 
L 289.765751 155.573448 
L 291.275772 169.560767 
L 292.785793 131.767217 
L 294.295814 159.92338 
L 295.805835 136.467991 
L 297.315856 168.310359 
L 298.825877 147.289815 
L 300.335899 171.99272 
L 301.84592 185.238591 
L 303.355941 160.186795 
L 304.865962 150.223993 
L 306.375983 158.675094 
L 307.886004 143.805373 
L 309.396025 170.523144 
L 310.906047 172.910745 
L 312.416068 154.591399 
L 313.926089 130.342272 
L 315.43611 182.381125 
L 316.946131 188.512653 
L 318.456152 173.233065 
L 319.966173 172.313497 
L 321.476195 183.422849 
L 322.986216 185.819559 
L 324.496237 154.543118 
L 326.006258 175.717886 
L 327.516279 162.962076 
L 329.0263 181.130587 
L 330.536321 183.18455 
L 332.046342 181.857812 
L 333.556364 188.587974 
L 335.066385 183.333949 
L 336.576406 156.671942 
L 338.086427 175.83989 
L 339.596448 181.050017 
L 341.106469 180.153028 
L 342.61649 180.078001 
L 344.126512 187.671713 
L 345.636533 187.411639 
L 347.146554 184.594851 
L 348.656575 179.337694 
L 350.166596 181.807889 
L 351.676617 180.86459 
L 353.186638 168.032015 
L 354.69666 167.382313 
L 356.206681 175.835443 
L 357.716702 174.770543 
L 359.226723 193.081592 
L 360.736744 168.677861 
L 362.246765 166.532883 
L 363.756786 186.226401 
L 365.266808 170.738094 
L 366.776829 185.079779 
L 368.28685 173.042709 
L 369.796871 177.009091 
L 372.816913 189.399297 
L 374.326934 183.455037 
L 375.836956 174.467077 
L 377.346977 183.010402 
L 378.856998 155.018 
L 380.367019 167.671072 
L 381.87704 175.6914 
L 383.387061 178.075074 
L 384.897082 183.428569 
L 386.407104 180.668136 
L 387.917125 188.178925 
L 389.427146 184.926064 
L 390.937167 180.696588 
L 392.447188 167.131656 
L 393.957209 172.50135 
L 395.46723 183.68394 
L 396.977252 153.802753 
L 398.487273 180.57324 
L 398.487273 180.57324 
" clip-path="url(#p45ceb78181)" style="fill: none; stroke: #32cd32; stroke-opacity: 0.8; stroke-width: 0.5; stroke-linecap: square"/>
   </g>
   <g id="line2d_17">
    <path d="M 73.832727 206.228111 
L 75.342748 204.083234 
L 76.85277 199.790508 
L 78.362791 204.219901 
L 79.872812 195.297408 
L 81.382833 190.894707 
L 82.892854 192.557326 
L 84.402875 199.216379 
L 85.912896 199.806106 
L 87.422918 196.10091 
L 88.932939 191.215507 
L 90.44296 191.070173 
L 91.952981 187.380146 
L 93.463002 190.481655 
L 94.973023 190.874363 
L 96.483044 189.518919 
L 97.993066 195.778985 
L 99.503087 197.723901 
L 101.013108 188.17123 
L 102.523129 191.883459 
L 104.03315 188.343686 
L 105.543171 189.360623 
L 107.053192 188.952235 
L 108.563214 188.044338 
L 110.073235 192.82161 
L 111.583256 190.579899 
L 113.093277 191.087022 
L 114.603298 193.361523 
L 116.113319 190.580024 
L 117.62334 189.646773 
L 119.133362 192.425052 
L 120.643383 188.018981 
L 122.153404 190.480494 
L 123.663425 189.838768 
L 125.173446 188.720044 
L 126.683467 186.507701 
L 128.193488 186.939115 
L 129.70351 189.219868 
L 131.213531 190.384168 
L 132.723552 189.502184 
L 134.233573 191.617784 
L 135.743594 188.62299 
L 137.253615 200.266229 
L 138.763636 188.709192 
L 140.273658 192.996274 
L 141.783679 189.056858 
L 143.2937 198.98612 
L 144.803721 198.17834 
L 146.313742 200.111369 
L 147.823763 194.626692 
L 149.333784 195.211543 
L 150.843805 203.867422 
L 152.353827 197.309416 
L 153.863848 201.706421 
L 155.373869 192.536091 
L 156.88389 200.499546 
L 158.393911 196.345198 
L 159.903932 192.753581 
L 161.413953 190.764011 
L 162.923975 185.810016 
L 164.433996 189.748989 
L 165.944017 191.534685 
L 167.454038 187.662661 
L 168.964059 203.751762 
L 170.47408 190.299328 
L 171.984101 185.724489 
L 173.494123 190.567731 
L 175.004144 189.147535 
L 176.514165 194.799435 
L 178.024186 189.861604 
L 179.534207 190.430592 
L 181.044228 194.267912 
L 182.554249 190.838551 
L 184.064271 191.980746 
L 185.574292 192.75789 
L 187.084313 189.787793 
L 188.594334 192.56375 
L 190.104355 204.734232 
L 191.614376 192.932442 
L 193.124397 199.783174 
L 194.634419 191.279324 
L 196.14444 202.651101 
L 197.654461 198.570451 
L 199.164482 193.747772 
L 200.674503 189.680943 
L 202.184524 194.602978 
L 203.694545 188.773722 
L 205.204567 189.143516 
L 206.714588 188.424092 
L 208.224609 185.325849 
L 209.73463 201.726272 
L 211.244651 194.438507 
L 214.264693 189.757563 
L 215.774715 191.493666 
L 217.284736 189.073465 
L 218.794757 192.231314 
L 220.304778 188.449781 
L 221.814799 188.642216 
L 223.32482 198.517683 
L 224.834841 206.731344 
L 226.344863 196.244856 
L 229.364905 208.129106 
L 230.874926 196.476206 
L 232.384947 215.207286 
L 233.894968 226.903374 
L 235.404989 235.840542 
L 236.915011 232.517202 
L 238.425032 236.2621 
L 239.935053 295.488 
L 241.445074 247.770086 
L 242.955095 252.569031 
L 244.465116 240.989254 
L 245.975137 216.135577 
L 247.485159 246.421506 
L 248.99518 237.08598 
L 250.505201 198.574128 
L 252.015222 277.675403 
L 253.525243 257.13816 
L 255.035264 281.517202 
L 256.545285 240.626925 
L 258.055307 262.192596 
L 259.565328 226.273941 
L 261.075349 229.328541 
L 262.58537 214.736665 
L 264.095391 228.529134 
L 265.605412 226.182747 
L 267.115433 237.804246 
L 268.625455 252.900682 
L 270.135476 229.755554 
L 271.645497 226.614927 
L 273.155518 227.579372 
L 274.665539 249.900194 
L 276.17556 249.400323 
L 277.685581 267.890804 
L 279.195603 237.722515 
L 280.705624 253.294559 
L 282.215645 217.900059 
L 283.725666 249.996984 
L 285.235687 229.905415 
L 286.745708 236.767087 
L 288.255729 231.18461 
L 289.765751 223.014449 
L 291.275772 217.48163 
L 292.785793 224.162105 
L 294.295814 254.877384 
L 295.805835 218.885287 
L 297.315856 276.456267 
L 298.825877 231.817875 
L 300.335899 226.524429 
L 301.84592 229.098 
L 303.355941 205.416741 
L 304.865962 207.005798 
L 306.375983 207.160387 
L 307.886004 213.603833 
L 309.396025 219.092245 
L 310.906047 209.95601 
L 312.416068 228.801164 
L 313.926089 201.116736 
L 315.43611 221.278013 
L 316.946131 209.067434 
L 318.456152 215.469879 
L 319.966173 214.19937 
L 321.476195 200.114422 
L 322.986216 204.302326 
L 324.496237 198.261362 
L 326.006258 204.366076 
L 327.516279 216.287221 
L 329.0263 205.575746 
L 330.536321 202.920687 
L 332.046342 191.816073 
L 333.556364 203.694804 
L 335.066385 202.321506 
L 336.576406 224.782195 
L 338.086427 197.306451 
L 339.596448 198.258445 
L 341.106469 204.11694 
L 342.61649 199.484246 
L 344.126512 196.377099 
L 345.636533 209.411474 
L 347.146554 215.92951 
L 348.656575 206.706967 
L 350.166596 203.449484 
L 351.676617 226.541898 
L 353.186638 203.483541 
L 354.69666 213.839821 
L 356.206681 231.872291 
L 357.716702 213.165178 
L 359.226723 213.372083 
L 360.736744 212.521096 
L 362.246765 214.663283 
L 363.756786 200.343828 
L 365.266808 199.788136 
L 366.776829 203.516814 
L 368.28685 212.349057 
L 369.796871 218.0322 
L 371.306892 200.839007 
L 372.816913 211.409425 
L 374.326934 202.729234 
L 375.836956 191.229372 
L 377.346977 193.175177 
L 378.856998 191.135516 
L 380.367019 208.804529 
L 381.87704 191.520631 
L 383.387061 195.977925 
L 384.897082 203.582527 
L 386.407104 199.312413 
L 387.917125 215.319457 
L 389.427146 241.523052 
L 390.937167 208.723917 
L 392.447188 225.801343 
L 393.957209 221.822761 
L 395.46723 226.45743 
L 396.977252 213.76931 
L 398.487273 206.824724 
L 398.487273 206.824724 
" clip-path="url(#p45ceb78181)" style="fill: none; stroke: #32cd32; stroke-opacity: 0.8; stroke-width: 0.5; stroke-linecap: square"/>
   </g>
   <g id="line2d_18">
    <path d="M 73.832727 182.626179 
L 75.342748 183.338154 
L 76.85277 178.711995 
L 78.362791 177.767915 
L 79.872812 180.117479 
L 81.382833 178.055662 
L 82.892854 179.84922 
L 84.402875 183.809136 
L 85.912896 180.279499 
L 87.422918 180.611235 
L 88.932939 181.174299 
L 90.44296 179.996237 
L 91.952981 181.056075 
L 93.463002 181.265911 
L 94.973023 181.355581 
L 96.483044 182.048869 
L 97.993066 183.132417 
L 99.503087 181.739403 
L 101.013108 178.970973 
L 102.523129 182.876309 
L 104.03315 182.815805 
L 105.543171 180.965342 
L 107.053192 182.348782 
L 108.563214 183.256204 
L 110.073235 182.671138 
L 113.093277 182.44346 
L 114.603298 182.900875 
L 116.113319 181.673658 
L 117.62334 180.054083 
L 119.133362 181.686002 
L 120.643383 181.455022 
L 122.153404 182.634659 
L 123.663425 181.80631 
L 125.173446 181.93425 
L 126.683467 182.209827 
L 128.193488 182.252405 
L 129.70351 182.486255 
L 131.213531 182.600863 
L 132.723552 182.36762 
L 134.233573 182.951864 
L 135.743594 182.650538 
L 137.253615 184.040804 
L 138.763636 181.478396 
L 140.273658 181.713812 
L 141.783679 182.889999 
L 143.2937 184.228057 
L 144.803721 180.427265 
L 146.313742 180.357447 
L 147.823763 181.635587 
L 149.333784 183.119114 
L 150.843805 178.631625 
L 152.353827 178.388411 
L 153.863848 179.738938 
L 155.373869 182.806255 
L 156.88389 180.052778 
L 158.393911 180.897691 
L 159.903932 181.582106 
L 161.413953 180.774184 
L 162.923975 181.055024 
L 164.433996 178.430375 
L 165.944017 180.662097 
L 167.454038 180.411692 
L 168.964059 181.684502 
L 170.47408 179.154106 
L 171.984101 179.281297 
L 173.494123 180.593818 
L 175.004144 181.47122 
L 176.514165 181.289637 
L 178.024186 180.588309 
L 179.534207 182.846897 
L 181.044228 181.506228 
L 182.554249 182.583848 
L 184.064271 181.863465 
L 185.574292 180.491019 
L 187.084313 179.674073 
L 188.594334 180.583241 
L 190.104355 178.25266 
L 191.614376 180.317557 
L 193.124397 182.001409 
L 194.634419 180.736549 
L 196.14444 182.486381 
L 197.654461 180.650269 
L 199.164482 181.476671 
L 202.184524 180.81105 
L 203.694545 179.441348 
L 205.204567 179.918276 
L 206.714588 180.871345 
L 208.224609 179.160337 
L 209.73463 182.878637 
L 211.244651 180.511225 
L 212.754672 182.080266 
L 214.264693 179.11427 
L 215.774715 179.384959 
L 217.284736 181.903582 
L 218.794757 180.394064 
L 220.304778 180.821533 
L 221.814799 182.72493 
L 223.32482 183.747195 
L 224.834841 184.382874 
L 226.344863 180.07914 
L 227.854884 182.484173 
L 229.364905 181.380277 
L 230.874926 179.332986 
L 232.384947 183.342551 
L 233.894968 183.051162 
L 235.404989 181.584835 
L 236.915011 162.932475 
L 238.425032 181.475811 
L 239.935053 181.323487 
L 241.445074 161.255908 
L 242.955095 165.751489 
L 244.465116 172.854505 
L 245.975137 165.318897 
L 247.485159 179.993071 
L 248.99518 178.715268 
L 250.505201 152.789686 
L 252.015222 168.040915 
L 253.525243 160.488951 
L 255.035264 149.677801 
L 256.545285 167.264988 
L 258.055307 170.04234 
L 259.565328 162.716817 
L 261.075349 172.540274 
L 262.58537 177.270419 
L 264.095391 176.234983 
L 265.605412 177.195941 
L 267.115433 178.623963 
L 268.625455 177.314301 
L 270.135476 170.67356 
L 271.645497 169.014936 
L 273.155518 165.017592 
L 274.665539 189.279679 
L 276.17556 180.60877 
L 277.685581 165.867927 
L 279.195603 167.879481 
L 280.705624 170.279217 
L 282.215645 162.889039 
L 283.725666 167.225146 
L 285.235687 155.972897 
L 286.745708 169.234195 
L 288.255729 173.910151 
L 289.765751 167.396765 
L 291.275772 170.700945 
L 292.785793 164.736256 
L 294.295814 183.662336 
L 295.805835 167.040952 
L 297.315856 185.103729 
L 298.825877 168.260673 
L 300.335899 174.820496 
L 301.84592 179.907082 
L 303.355941 171.52584 
L 304.865962 176.588529 
L 306.375983 172.444615 
L 307.886004 159.769262 
L 309.396025 171.767048 
L 310.906047 171.42775 
L 312.416068 176.601659 
L 313.926089 159.426269 
L 315.43611 172.125737 
L 316.946131 183.694961 
L 318.456152 180.037631 
L 319.966173 180.861183 
L 321.476195 177.215495 
L 322.986216 176.725448 
L 324.496237 173.723569 
L 326.006258 177.265239 
L 327.516279 179.00699 
L 329.0263 177.699944 
L 330.536321 179.850093 
L 332.046342 179.571489 
L 333.556364 182.230678 
L 335.066385 181.464696 
L 336.576406 172.01261 
L 338.086427 178.601265 
L 339.596448 180.610873 
L 341.106469 181.598604 
L 342.61649 181.517626 
L 344.126512 181.924594 
L 345.636533 187.299223 
L 347.146554 179.078527 
L 348.656575 179.17483 
L 350.166596 176.875729 
L 351.676617 181.904479 
L 353.186638 179.491514 
L 354.69666 182.758837 
L 356.206681 178.66385 
L 357.716702 175.39309 
L 359.226723 178.978275 
L 360.736744 171.997938 
L 362.246765 179.597478 
L 363.756786 175.658805 
L 365.266808 177.965616 
L 366.776829 178.673725 
L 368.28685 175.103513 
L 369.796871 183.045661 
L 371.306892 178.16379 
L 372.816913 178.349556 
L 374.326934 176.610453 
L 375.836956 177.851404 
L 377.346977 180.089022 
L 378.856998 175.91307 
L 380.367019 180.749906 
L 381.87704 179.315673 
L 383.387061 180.285888 
L 384.897082 183.178539 
L 386.407104 178.258647 
L 387.917125 185.922581 
L 389.427146 181.321007 
L 392.447188 175.774242 
L 393.957209 176.993598 
L 395.46723 183.761366 
L 396.977252 179.445588 
L 398.487273 171.840104 
L 398.487273 171.840104 
" clip-path="url(#p45ceb78181)" style="fill: none; stroke: #ff0000; stroke-opacity: 0.8; stroke-width: 0.5; stroke-linecap: square"/>
   </g>
   <g id="line2d_19">
    <path d="M 73.832727 164.049499 
L 75.342748 168.972903 
L 76.85277 167.059005 
L 78.362791 166.824513 
L 79.872812 166.848729 
L 81.382833 170.649765 
L 82.892854 170.224268 
L 84.402875 176.590331 
L 85.912896 166.961719 
L 87.422918 176.623348 
L 88.932939 171.928343 
L 90.44296 173.936948 
L 91.952981 176.716888 
L 93.463002 171.554412 
L 94.973023 173.298746 
L 96.483044 178.810101 
L 97.993066 175.412535 
L 99.503087 176.460215 
L 101.013108 174.618876 
L 102.523129 177.303866 
L 104.03315 178.842482 
L 105.543171 173.544342 
L 107.053192 178.755418 
L 108.563214 180.389476 
L 110.073235 181.657385 
L 111.583256 177.605943 
L 113.093277 181.767766 
L 114.603298 179.850044 
L 116.113319 173.699794 
L 117.62334 171.464098 
L 119.133362 178.191485 
L 120.643383 179.649297 
L 122.153404 177.653059 
L 123.663425 178.759656 
L 125.173446 177.223844 
L 126.683467 180.755515 
L 128.193488 180.754018 
L 129.70351 181.363549 
L 131.213531 177.358655 
L 132.723552 180.954738 
L 134.233573 182.25066 
L 137.253615 181.335891 
L 138.763636 177.246185 
L 140.273658 178.171654 
L 141.783679 181.501515 
L 143.2937 176.352531 
L 144.803721 172.717741 
L 146.313742 171.337072 
L 147.823763 175.549683 
L 149.333784 176.113216 
L 150.843805 150.953042 
L 152.353827 164.102525 
L 153.863848 159.261576 
L 155.373869 176.704448 
L 156.88389 171.720879 
L 158.393911 168.283619 
L 159.903932 175.217627 
L 161.413953 176.169538 
L 162.923975 178.085935 
L 164.433996 164.53541 
L 165.944017 176.142207 
L 167.454038 177.373008 
L 168.964059 172.754789 
L 170.47408 172.493979 
L 171.984101 175.88474 
L 173.494123 176.44713 
L 175.004144 179.04976 
L 176.514165 176.070003 
L 178.024186 178.078904 
L 179.534207 178.277568 
L 181.044228 177.159692 
L 182.554249 177.791985 
L 184.064271 176.904217 
L 185.574292 174.128271 
L 187.084313 174.419111 
L 188.594334 170.601876 
L 190.104355 137.22183 
L 191.614376 175.299574 
L 193.124397 179.332033 
L 194.634419 174.022038 
L 196.14444 176.593926 
L 197.654461 175.434989 
L 199.164482 169.769173 
L 200.674503 173.407878 
L 202.184524 170.58409 
L 203.694545 173.220898 
L 205.204567 175.050479 
L 206.714588 178.950039 
L 208.224609 176.18553 
L 209.73463 176.04905 
L 211.244651 168.882721 
L 212.754672 175.590259 
L 214.264693 175.415854 
L 215.774715 163.894339 
L 217.284736 177.467018 
L 218.794757 174.693516 
L 220.304778 178.255349 
L 221.814799 179.126431 
L 223.32482 179.625208 
L 224.834841 175.578304 
L 226.344863 168.164365 
L 227.854884 171.047336 
L 229.364905 158.306384 
L 230.874926 164.496207 
L 232.384947 163.883304 
L 233.894968 156.145594 
L 235.404989 124.230016 
L 236.915011 110.092371 
L 238.425032 148.985841 
L 239.935053 143.054328 
L 241.445074 86.784543 
L 242.955095 132.545133 
L 244.465116 111.547465 
L 245.975137 126.901191 
L 247.485159 151.363785 
L 248.99518 143.725115 
L 250.505201 107.210051 
L 252.015222 99.294668 
L 253.525243 53.568 
L 255.035264 79.290306 
L 256.545285 128.592152 
L 258.055307 135.900792 
L 259.565328 116.568677 
L 261.075349 125.373733 
L 262.58537 152.780421 
L 264.095391 157.942158 
L 265.605412 147.233214 
L 267.115433 151.971241 
L 268.625455 151.990638 
L 270.135476 141.090405 
L 271.645497 82.254803 
L 273.155518 107.078688 
L 274.665539 142.868541 
L 276.17556 141.769386 
L 277.685581 107.929706 
L 279.195603 133.503421 
L 280.705624 137.5495 
L 282.215645 116.294922 
L 283.725666 122.284186 
L 285.235687 100.120205 
L 286.745708 114.369725 
L 288.255729 132.494702 
L 289.765751 138.466266 
L 291.275772 147.385198 
L 292.785793 109.330212 
L 294.295814 152.018326 
L 295.805835 109.900528 
L 297.315856 155.734056 
L 298.825877 112.913458 
L 300.335899 153.203892 
L 301.84592 164.919159 
L 303.355941 140.815343 
L 304.865962 132.25732 
L 306.375983 143.09583 
L 307.886004 118.821041 
L 309.396025 142.117404 
L 310.906047 151.541685 
L 312.416068 143.505877 
L 313.926089 111.864882 
L 315.43611 158.560694 
L 316.946131 173.660324 
L 318.456152 165.578865 
L 319.966173 158.477849 
L 321.476195 172.368519 
L 322.986216 167.568254 
L 324.496237 145.883963 
L 326.006258 163.346876 
L 327.516279 146.35482 
L 329.0263 166.881247 
L 330.536321 174.930101 
L 332.046342 173.47565 
L 333.556364 174.703834 
L 335.066385 172.36435 
L 336.576406 139.228358 
L 338.086427 173.815998 
L 339.596448 176.509415 
L 341.106469 174.705638 
L 342.61649 171.6341 
L 345.636533 182.393356 
L 347.146554 172.133497 
L 348.656575 161.036358 
L 350.166596 163.80923 
L 351.676617 169.469087 
L 353.186638 164.060102 
L 354.69666 159.811957 
L 356.206681 159.365835 
L 357.716702 160.698642 
L 359.226723 173.098891 
L 360.736744 155.007499 
L 362.246765 159.947293 
L 363.756786 166.859354 
L 365.266808 164.288007 
L 366.776829 171.207258 
L 368.28685 159.048956 
L 369.796871 164.866972 
L 371.306892 168.039121 
L 372.816913 167.075092 
L 374.326934 158.328915 
L 375.836956 166.224499 
L 377.346977 175.829379 
L 378.856998 150.288572 
L 381.87704 167.881622 
L 383.387061 170.006048 
L 384.897082 175.573956 
L 386.407104 171.941464 
L 387.917125 177.633319 
L 389.427146 167.032363 
L 390.937167 165.578136 
L 392.447188 150.277562 
L 393.957209 155.351487 
L 395.46723 163.425524 
L 396.977252 131.710848 
L 398.487273 157.371894 
L 398.487273 157.371894 
" clip-path="url(#p45ceb78181)" style="fill: none; stroke: #f08080; stroke-opacity: 0.8; stroke-width: 0.5; stroke-linecap: square"/>
   </g>
   <g id="line2d_20">
    <path d="M 73.832727 198.542452 
L 75.342748 194.081685 
L 76.85277 190.227813 
L 78.362791 190.130403 
L 79.872812 186.679947 
L 81.382833 184.993726 
L 82.892854 185.821209 
L 84.402875 195.58017 
L 87.422918 187.589959 
L 88.932939 186.087244 
L 90.44296 185.414519 
L 91.952981 183.574735 
L 93.463002 187.696077 
L 94.973023 188.850955 
L 96.483044 186.56737 
L 97.993066 190.181661 
L 99.503087 191.881889 
L 101.013108 182.809292 
L 102.523129 186.869977 
L 104.03315 185.124969 
L 105.543171 184.176252 
L 107.053192 185.152289 
L 108.563214 185.785882 
L 110.073235 184.363761 
L 111.583256 187.316436 
L 113.093277 183.071936 
L 114.603298 184.003414 
L 116.113319 184.210795 
L 117.62334 184.535137 
L 119.133362 188.657287 
L 120.643383 184.003941 
L 122.153404 187.708413 
L 123.663425 184.761657 
L 125.173446 185.648518 
L 126.683467 183.386088 
L 128.193488 183.292763 
L 129.70351 186.354539 
L 132.723552 184.818492 
L 134.233573 184.215184 
L 135.743594 183.24691 
L 137.253615 193.281518 
L 138.763636 183.911416 
L 140.273658 184.025088 
L 141.783679 185.524758 
L 143.2937 193.770248 
L 144.803721 192.992051 
L 146.313742 190.983874 
L 147.823763 187.643265 
L 149.333784 189.529869 
L 150.843805 196.969558 
L 152.353827 190.445007 
L 153.863848 196.109686 
L 155.373869 188.143421 
L 156.88389 192.632314 
L 158.393911 189.652231 
L 159.903932 189.018766 
L 162.923975 183.202086 
L 164.433996 184.322585 
L 165.944017 185.589003 
L 167.454038 184.062728 
L 168.964059 198.105544 
L 170.47408 183.924232 
L 171.984101 182.580637 
L 173.494123 185.097351 
L 175.004144 184.9559 
L 176.514165 190.761699 
L 178.024186 185.132567 
L 179.534207 186.993599 
L 181.044228 190.942484 
L 182.554249 188.055074 
L 184.064271 188.465307 
L 185.574292 188.319898 
L 187.084313 182.99504 
L 188.594334 186.352338 
L 190.104355 194.74744 
L 191.614376 188.756764 
L 193.124397 186.872663 
L 194.634419 188.625516 
L 196.14444 194.995907 
L 197.654461 190.255059 
L 199.164482 188.869364 
L 200.674503 186.838516 
L 202.184524 190.462622 
L 203.694545 181.852016 
L 205.204567 183.995617 
L 206.714588 184.242867 
L 208.224609 181.576045 
L 209.73463 195.464581 
L 211.244651 186.118189 
L 212.754672 185.805384 
L 214.264693 183.710427 
L 215.774715 185.796593 
L 217.284736 185.831744 
L 218.794757 188.340932 
L 220.304778 184.55141 
L 221.814799 186.292156 
L 223.32482 194.612288 
L 224.834841 202.21627 
L 226.344863 191.447928 
L 227.854884 194.222504 
L 229.364905 203.021754 
L 230.874926 188.775284 
L 232.384947 204.350593 
L 233.894968 214.036017 
L 235.404989 222.935639 
L 236.915011 205.393817 
L 238.425032 217.495224 
L 239.935053 279.248006 
L 241.445074 226.032466 
L 242.955095 233.511929 
L 244.465116 228.679727 
L 245.975137 196.609421 
L 247.485159 223.74854 
L 248.99518 227.824995 
L 250.505201 192.65922 
L 252.015222 241.936016 
L 253.525243 218.681968 
L 255.035264 224.374407 
L 256.545285 196.158044 
L 258.055307 229.21884 
L 259.565328 190.768832 
L 261.075349 211.977429 
L 262.58537 194.748095 
L 264.095391 207.161277 
L 265.605412 202.69828 
L 267.115433 206.665196 
L 268.625455 220.830437 
L 270.135476 205.683653 
L 271.645497 204.444946 
L 273.155518 204.779917 
L 274.665539 239.968906 
L 276.17556 223.19869 
L 277.685581 221.624191 
L 279.195603 207.392271 
L 280.705624 229.721822 
L 282.215645 200.244607 
L 283.725666 209.3238 
L 285.235687 192.257879 
L 286.745708 203.330126 
L 288.255729 203.559448 
L 289.765751 192.346172 
L 291.275772 185.695358 
L 292.785793 188.792942 
L 294.295814 245.072765 
L 295.805835 199.376388 
L 297.315856 261.467473 
L 298.825877 228.099897 
L 300.335899 214.724095 
L 301.84592 210.505476 
L 303.355941 190.550791 
L 304.865962 197.730403 
L 306.375983 191.588328 
L 307.886004 201.555692 
L 309.396025 199.063645 
L 310.906047 185.847309 
L 312.416068 208.249847 
L 313.926089 181.164468 
L 315.43611 193.999136 
L 316.946131 196.278798 
L 318.456152 205.041284 
L 319.966173 205.907281 
L 321.476195 187.189761 
L 322.986216 189.005908 
L 324.496237 187.868452 
L 326.006258 190.464173 
L 327.516279 207.774994 
L 329.0263 190.424056 
L 330.536321 192.05558 
L 332.046342 183.922641 
L 333.556364 191.277542 
L 335.066385 194.156481 
L 336.576406 203.054651 
L 338.086427 185.965097 
L 339.596448 190.496445 
L 341.106469 189.489465 
L 342.61649 189.64038 
L 344.126512 185.346656 
L 345.636533 195.093112 
L 347.146554 198.999612 
L 348.656575 188.563151 
L 350.166596 185.587822 
L 351.676617 211.653302 
L 353.186638 188.983923 
L 354.69666 209.889043 
L 356.206681 212.896783 
L 357.716702 187.365166 
L 359.226723 196.541861 
L 360.736744 189.908705 
L 362.246765 194.870333 
L 363.756786 190.543985 
L 365.266808 187.316583 
L 366.776829 195.61145 
L 368.28685 199.428473 
L 369.796871 199.502673 
L 371.306892 188.366611 
L 372.816913 192.99578 
L 374.326934 186.852737 
L 375.836956 185.262081 
L 377.346977 187.563209 
L 378.856998 183.999054 
L 380.367019 205.751514 
L 381.87704 187.310892 
L 383.387061 187.214347 
L 384.897082 196.770983 
L 386.407104 187.252255 
L 387.917125 201.815254 
L 389.427146 224.06161 
L 390.937167 193.180759 
L 392.447188 209.683658 
L 393.957209 197.650657 
L 395.46723 206.441674 
L 396.977252 203.610774 
L 398.487273 187.713086 
L 398.487273 187.713086 
" clip-path="url(#p45ceb78181)" style="fill: none; stroke: #f08080; stroke-opacity: 0.8; stroke-width: 0.5; stroke-linecap: square"/>
   </g>
   <g id="patch_3">
    <path d="M 57.6 307.584 
L 57.6 41.472 
" style="fill: none; stroke: #000000; stroke-width: 0.8; stroke-linejoin: miter; stroke-linecap: square"/>
   </g>
   <g id="patch_4">
    <path d="M 414.72 307.584 
L 414.72 41.472 
" style="fill: none; stroke: #000000; stroke-width: 0.8; stroke-linejoin: miter; stroke-linecap: square"/>
   </g>
   <g id="patch_5">
    <path d="M 57.6 307.584 
L 414.72 307.584 
" style="fill: none; stroke: #000000; stroke-width: 0.8; stroke-linejoin: miter; stroke-linecap: square"/>
   </g>
   <g id="patch_6">
    <path d="M 57.6 41.472 
L 414.72 41.472 
" style="fill: none; stroke: #000000; stroke-width: 0.8; stroke-linejoin: miter; stroke-linecap: square"/>
   </g>
   <g id="text_15">
    <!-- 1final_naive_aa_btcusd -->
    <g transform="translate(166.476562 35.472) scale(0.12 -0.12)">
     <defs>
      <path id="DejaVuSans-66" d="M 2375 4863 
L 2375 4384 
L 1825 4384 
Q 1516 4384 1395 4259 
Q 1275 4134 1275 3809 
L 1275 3500 
L 2222 3500 
L 2222 3053 
L 1275 3053 
L 1275 0 
L 697 0 
L 697 3053 
L 147 3053 
L 147 3500 
L 697 3500 
L 697 3744 
Q 697 4328 969 4595 
Q 1241 4863 1831 4863 
L 2375 4863 
z
" transform="scale(0.015625)"/>
      <path id="DejaVuSans-69" d="M 603 3500 
L 1178 3500 
L 1178 0 
L 603 0 
L 603 3500 
z
M 603 4863 
L 1178 4863 
L 1178 4134 
L 603 4134 
L 603 4863 
z
" transform="scale(0.015625)"/>
      <path id="DejaVuSans-6e" d="M 3513 2113 
L 3513 0 
L 2938 0 
L 2938 2094 
Q 2938 2591 2744 2837 
Q 2550 3084 2163 3084 
Q 1697 3084 1428 2787 
Q 1159 2491 1159 1978 
L 1159 0 
L 581 0 
L 581 3500 
L 1159 3500 
L 1159 2956 
Q 1366 3272 1645 3428 
Q 1925 3584 2291 3584 
Q 2894 3584 3203 3211 
Q 3513 2838 3513 2113 
z
" transform="scale(0.015625)"/>
      <path id="DejaVuSans-61" d="M 2194 1759 
Q 1497 1759 1228 1600 
Q 959 1441 959 1056 
Q 959 750 1161 570 
Q 1363 391 1709 391 
Q 2188 391 2477 730 
Q 2766 1069 2766 1631 
L 2766 1759 
L 2194 1759 
z
M 3341 1997 
L 3341 0 
L 2766 0 
L 2766 531 
Q 2569 213 2275 61 
Q 1981 -91 1556 -91 
Q 1019 -91 701 211 
Q 384 513 384 1019 
Q 384 1609 779 1909 
Q 1175 2209 1959 2209 
L 2766 2209 
L 2766 2266 
Q 2766 2663 2505 2880 
Q 2244 3097 1772 3097 
Q 1472 3097 1187 3025 
Q 903 2953 641 2809 
L 641 3341 
Q 956 3463 1253 3523 
Q 1550 3584 1831 3584 
Q 2591 3584 2966 3190 
Q 3341 2797 3341 1997 
z
" transform="scale(0.015625)"/>
      <path id="DejaVuSans-6c" d="M 603 4863 
L 1178 4863 
L 1178 0 
L 603 0 
L 603 4863 
z
" transform="scale(0.015625)"/>
      <path id="DejaVuSans-5f" d="M 3263 -1063 
L 3263 -1509 
L -63 -1509 
L -63 -1063 
L 3263 -1063 
z
" transform="scale(0.015625)"/>
      <path id="DejaVuSans-76" d="M 191 3500 
L 800 3500 
L 1894 563 
L 2988 3500 
L 3597 3500 
L 2284 0 
L 1503 0 
L 191 3500 
z
" transform="scale(0.015625)"/>
      <path id="DejaVuSans-65" d="M 3597 1894 
L 3597 1613 
L 953 1613 
Q 991 1019 1311 708 
Q 1631 397 2203 397 
Q 2534 397 2845 478 
Q 3156 559 3463 722 
L 3463 178 
Q 3153 47 2828 -22 
Q 2503 -91 2169 -91 
Q 1331 -91 842 396 
Q 353 884 353 1716 
Q 353 2575 817 3079 
Q 1281 3584 2069 3584 
Q 2775 3584 3186 3129 
Q 3597 2675 3597 1894 
z
M 3022 2063 
Q 3016 2534 2758 2815 
Q 2500 3097 2075 3097 
Q 1594 3097 1305 2825 
Q 1016 2553 972 2059 
L 3022 2063 
z
" transform="scale(0.015625)"/>
      <path id="DejaVuSans-62" d="M 3116 1747 
Q 3116 2381 2855 2742 
Q 2594 3103 2138 3103 
Q 1681 3103 1420 2742 
Q 1159 2381 1159 1747 
Q 1159 1113 1420 752 
Q 1681 391 2138 391 
Q 2594 391 2855 752 
Q 3116 1113 3116 1747 
z
M 1159 2969 
Q 1341 3281 1617 3432 
Q 1894 3584 2278 3584 
Q 2916 3584 3314 3078 
Q 3713 2572 3713 1747 
Q 3713 922 3314 415 
Q 2916 -91 2278 -91 
Q 1894 -91 1617 61 
Q 1341 213 1159 525 
L 1159 0 
L 581 0 
L 581 4863 
L 1159 4863 
L 1159 2969 
z
" transform="scale(0.015625)"/>
      <path id="DejaVuSans-74" d="M 1172 4494 
L 1172 3500 
L 2356 3500 
L 2356 3053 
L 1172 3053 
L 1172 1153 
Q 1172 725 1289 603 
Q 1406 481 1766 481 
L 2356 481 
L 2356 0 
L 1766 0 
Q 1100 0 847 248 
Q 594 497 594 1153 
L 594 3053 
L 172 3053 
L 172 3500 
L 594 3500 
L 594 4494 
L 1172 4494 
z
" transform="scale(0.015625)"/>
      <path id="DejaVuSans-63" d="M 3122 3366 
L 3122 2828 
Q 2878 2963 2633 3030 
Q 2388 3097 2138 3097 
Q 1578 3097 1268 2742 
Q 959 2388 959 1747 
Q 959 1106 1268 751 
Q 1578 397 2138 397 
Q 2388 397 2633 464 
Q 2878 531 3122 666 
L 3122 134 
Q 2881 22 2623 -34 
Q 2366 -91 2075 -91 
Q 1284 -91 818 406 
Q 353 903 353 1747 
Q 353 2603 823 3093 
Q 1294 3584 2113 3584 
Q 2378 3584 2631 3529 
Q 2884 3475 3122 3366 
z
" transform="scale(0.015625)"/>
      <path id="DejaVuSans-75" d="M 544 1381 
L 544 3500 
L 1119 3500 
L 1119 1403 
Q 1119 906 1312 657 
Q 1506 409 1894 409 
Q 2359 409 2629 706 
Q 2900 1003 2900 1516 
L 2900 3500 
L 3475 3500 
L 3475 0 
L 2900 0 
L 2900 538 
Q 2691 219 2414 64 
Q 2138 -91 1772 -91 
Q 1169 -91 856 284 
Q 544 659 544 1381 
z
M 1991 3584 
L 1991 3584 
z
" transform="scale(0.015625)"/>
      <path id="DejaVuSans-73" d="M 2834 3397 
L 2834 2853 
Q 2591 2978 2328 3040 
Q 2066 3103 1784 3103 
Q 1356 3103 1142 2972 
Q 928 2841 928 2578 
Q 928 2378 1081 2264 
Q 1234 2150 1697 2047 
L 1894 2003 
Q 2506 1872 2764 1633 
Q 3022 1394 3022 966 
Q 3022 478 2636 193 
Q 2250 -91 1575 -91 
Q 1294 -91 989 -36 
Q 684 19 347 128 
L 347 722 
Q 666 556 975 473 
Q 1284 391 1588 391 
Q 1994 391 2212 530 
Q 2431 669 2431 922 
Q 2431 1156 2273 1281 
Q 2116 1406 1581 1522 
L 1381 1569 
Q 847 1681 609 1914 
Q 372 2147 372 2553 
Q 372 3047 722 3315 
Q 1072 3584 1716 3584 
Q 2034 3584 2315 3537 
Q 2597 3491 2834 3397 
z
" transform="scale(0.015625)"/>
      <path id="DejaVuSans-64" d="M 2906 2969 
L 2906 4863 
L 3481 4863 
L 3481 0 
L 2906 0 
L 2906 525 
Q 2725 213 2448 61 
Q 2172 -91 1784 -91 
Q 1150 -91 751 415 
Q 353 922 353 1747 
Q 353 2572 751 3078 
Q 1150 3584 1784 3584 
Q 2172 3584 2448 3432 
Q 2725 3281 2906 2969 
z
M 947 1747 
Q 947 1113 1208 752 
Q 1469 391 1925 391 
Q 2381 391 2643 752 
Q 2906 1113 2906 1747 
Q 2906 2381 2643 2742 
Q 2381 3103 1925 3103 
Q 1469 3103 1208 2742 
Q 947 2381 947 1747 
z
" transform="scale(0.015625)"/>
     </defs>
     <use xlink:href="#DejaVuSans-31"/>
     <use xlink:href="#DejaVuSans-66" x="63.623047"/>
     <use xlink:href="#DejaVuSans-69" x="98.828125"/>
     <use xlink:href="#DejaVuSans-6e" x="126.611328"/>
     <use xlink:href="#DejaVuSans-61" x="189.990234"/>
     <use xlink:href="#DejaVuSans-6c" x="251.269531"/>
     <use xlink:href="#DejaVuSans-5f" x="279.052734"/>
     <use xlink:href="#DejaVuSans-6e" x="329.052734"/>
     <use xlink:href="#DejaVuSans-61" x="392.431641"/>
     <use xlink:href="#DejaVuSans-69" x="453.710938"/>
     <use xlink:href="#DejaVuSans-76" x="481.494141"/>
     <use xlink:href="#DejaVuSans-65" x="540.673828"/>
     <use xlink:href="#DejaVuSans-5f" x="602.197266"/>
     <use xlink:href="#DejaVuSans-61" x="652.197266"/>
     <use xlink:href="#DejaVuSans-61" x="713.476562"/>
     <use xlink:href="#DejaVuSans-5f" x="774.755859"/>
     <use xlink:href="#DejaVuSans-62" x="824.755859"/>
     <use xlink:href="#DejaVuSans-74" x="888.232422"/>
     <use xlink:href="#DejaVuSans-63" x="927.441406"/>
     <use xlink:href="#DejaVuSans-75" x="982.421875"/>
     <use xlink:href="#DejaVuSans-73" x="1045.800781"/>
     <use xlink:href="#DejaVuSans-64" x="1097.900391"/>
    </g>
   </g>
   <g id="legend_1">
    <g id="patch_7">
     <path d="M 64.6 302.584 
L 225.001563 302.584 
Q 227.001563 302.584 227.001563 300.584 
L 227.001563 213.51525 
Q 227.001563 211.51525 225.001563 211.51525 
L 64.6 211.51525 
Q 62.6 211.51525 62.6 213.51525 
L 62.6 300.584 
Q 62.6 302.584 64.6 302.584 
z
" style="fill: #ffffff; opacity: 0.8; stroke: #cccccc; stroke-linejoin: miter"/>
    </g>
    <g id="line2d_21">
     <path d="M 66.6 219.613687 
L 76.6 219.613687 
L 86.6 219.613687 
" style="fill: none; stroke: #008000; stroke-opacity: 0.8; stroke-width: 0.5; stroke-linecap: square"/>
    </g>
    <g id="text_16">
     <!-- Positive predictions -->
     <g transform="translate(94.6 223.113687) scale(0.1 -0.1)">
      <defs>
       <path id="DejaVuSans-50" d="M 1259 4147 
L 1259 2394 
L 2053 2394 
Q 2494 2394 2734 2622 
Q 2975 2850 2975 3272 
Q 2975 3691 2734 3919 
Q 2494 4147 2053 4147 
L 1259 4147 
z
M 628 4666 
L 2053 4666 
Q 2838 4666 3239 4311 
Q 3641 3956 3641 3272 
Q 3641 2581 3239 2228 
Q 2838 1875 2053 1875 
L 1259 1875 
L 1259 0 
L 628 0 
L 628 4666 
z
" transform="scale(0.015625)"/>
       <path id="DejaVuSans-6f" d="M 1959 3097 
Q 1497 3097 1228 2736 
Q 959 2375 959 1747 
Q 959 1119 1226 758 
Q 1494 397 1959 397 
Q 2419 397 2687 759 
Q 2956 1122 2956 1747 
Q 2956 2369 2687 2733 
Q 2419 3097 1959 3097 
z
M 1959 3584 
Q 2709 3584 3137 3096 
Q 3566 2609 3566 1747 
Q 3566 888 3137 398 
Q 2709 -91 1959 -91 
Q 1206 -91 779 398 
Q 353 888 353 1747 
Q 353 2609 779 3096 
Q 1206 3584 1959 3584 
z
" transform="scale(0.015625)"/>
       <path id="DejaVuSans-20" transform="scale(0.015625)"/>
       <path id="DejaVuSans-70" d="M 1159 525 
L 1159 -1331 
L 581 -1331 
L 581 3500 
L 1159 3500 
L 1159 2969 
Q 1341 3281 1617 3432 
Q 1894 3584 2278 3584 
Q 2916 3584 3314 3078 
Q 3713 2572 3713 1747 
Q 3713 922 3314 415 
Q 2916 -91 2278 -91 
Q 1894 -91 1617 61 
Q 1341 213 1159 525 
z
M 3116 1747 
Q 3116 2381 2855 2742 
Q 2594 3103 2138 3103 
Q 1681 3103 1420 2742 
Q 1159 2381 1159 1747 
Q 1159 1113 1420 752 
Q 1681 391 2138 391 
Q 2594 391 2855 752 
Q 3116 1113 3116 1747 
z
" transform="scale(0.015625)"/>
       <path id="DejaVuSans-72" d="M 2631 2963 
Q 2534 3019 2420 3045 
Q 2306 3072 2169 3072 
Q 1681 3072 1420 2755 
Q 1159 2438 1159 1844 
L 1159 0 
L 581 0 
L 581 3500 
L 1159 3500 
L 1159 2956 
Q 1341 3275 1631 3429 
Q 1922 3584 2338 3584 
Q 2397 3584 2469 3576 
Q 2541 3569 2628 3553 
L 2631 2963 
z
" transform="scale(0.015625)"/>
      </defs>
      <use xlink:href="#DejaVuSans-50"/>
      <use xlink:href="#DejaVuSans-6f" x="56.677734"/>
      <use xlink:href="#DejaVuSans-73" x="117.859375"/>
      <use xlink:href="#DejaVuSans-69" x="169.958984"/>
      <use xlink:href="#DejaVuSans-74" x="197.742188"/>
      <use xlink:href="#DejaVuSans-69" x="236.951172"/>
      <use xlink:href="#DejaVuSans-76" x="264.734375"/>
      <use xlink:href="#DejaVuSans-65" x="323.914062"/>
      <use xlink:href="#DejaVuSans-20" x="385.4375"/>
      <use xlink:href="#DejaVuSans-70" x="417.224609"/>
      <use xlink:href="#DejaVuSans-72" x="480.701172"/>
      <use xlink:href="#DejaVuSans-65" x="519.564453"/>
      <use xlink:href="#DejaVuSans-64" x="581.087891"/>
      <use xlink:href="#DejaVuSans-69" x="644.564453"/>
      <use xlink:href="#DejaVuSans-63" x="672.347656"/>
      <use xlink:href="#DejaVuSans-74" x="727.328125"/>
      <use xlink:href="#DejaVuSans-69" x="766.537109"/>
      <use xlink:href="#DejaVuSans-6f" x="794.320312"/>
      <use xlink:href="#DejaVuSans-6e" x="855.501953"/>
      <use xlink:href="#DejaVuSans-73" x="918.880859"/>
     </g>
    </g>
    <g id="line2d_22">
     <path d="M 66.6 234.291812 
L 76.6 234.291812 
L 86.6 234.291812 
" style="fill: none; stroke: #32cd32; stroke-opacity: 0.8; stroke-width: 0.5; stroke-linecap: square"/>
    </g>
    <g id="text_17">
     <!-- Positive predictions max -->
     <g transform="translate(94.6 237.791812) scale(0.1 -0.1)">
      <defs>
       <path id="DejaVuSans-6d" d="M 3328 2828 
Q 3544 3216 3844 3400 
Q 4144 3584 4550 3584 
Q 5097 3584 5394 3201 
Q 5691 2819 5691 2113 
L 5691 0 
L 5113 0 
L 5113 2094 
Q 5113 2597 4934 2840 
Q 4756 3084 4391 3084 
Q 3944 3084 3684 2787 
Q 3425 2491 3425 1978 
L 3425 0 
L 2847 0 
L 2847 2094 
Q 2847 2600 2669 2842 
Q 2491 3084 2119 3084 
Q 1678 3084 1418 2786 
Q 1159 2488 1159 1978 
L 1159 0 
L 581 0 
L 581 3500 
L 1159 3500 
L 1159 2956 
Q 1356 3278 1631 3431 
Q 1906 3584 2284 3584 
Q 2666 3584 2933 3390 
Q 3200 3197 3328 2828 
z
" transform="scale(0.015625)"/>
       <path id="DejaVuSans-78" d="M 3513 3500 
L 2247 1797 
L 3578 0 
L 2900 0 
L 1881 1375 
L 863 0 
L 184 0 
L 1544 1831 
L 300 3500 
L 978 3500 
L 1906 2253 
L 2834 3500 
L 3513 3500 
z
" transform="scale(0.015625)"/>
      </defs>
      <use xlink:href="#DejaVuSans-50"/>
      <use xlink:href="#DejaVuSans-6f" x="56.677734"/>
      <use xlink:href="#DejaVuSans-73" x="117.859375"/>
      <use xlink:href="#DejaVuSans-69" x="169.958984"/>
      <use xlink:href="#DejaVuSans-74" x="197.742188"/>
      <use xlink:href="#DejaVuSans-69" x="236.951172"/>
      <use xlink:href="#DejaVuSans-76" x="264.734375"/>
      <use xlink:href="#DejaVuSans-65" x="323.914062"/>
      <use xlink:href="#DejaVuSans-20" x="385.4375"/>
      <use xlink:href="#DejaVuSans-70" x="417.224609"/>
      <use xlink:href="#DejaVuSans-72" x="480.701172"/>
      <use xlink:href="#DejaVuSans-65" x="519.564453"/>
      <use xlink:href="#DejaVuSans-64" x="581.087891"/>
      <use xlink:href="#DejaVuSans-69" x="644.564453"/>
      <use xlink:href="#DejaVuSans-63" x="672.347656"/>
      <use xlink:href="#DejaVuSans-74" x="727.328125"/>
      <use xlink:href="#DejaVuSans-69" x="766.537109"/>
      <use xlink:href="#DejaVuSans-6f" x="794.320312"/>
      <use xlink:href="#DejaVuSans-6e" x="855.501953"/>
      <use xlink:href="#DejaVuSans-73" x="918.880859"/>
      <use xlink:href="#DejaVuSans-20" x="970.980469"/>
      <use xlink:href="#DejaVuSans-6d" x="1002.767578"/>
      <use xlink:href="#DejaVuSans-61" x="1100.179688"/>
      <use xlink:href="#DejaVuSans-78" x="1161.458984"/>
     </g>
    </g>
    <g id="line2d_23">
     <path d="M 66.6 248.969937 
L 76.6 248.969937 
L 86.6 248.969937 
" style="fill: none; stroke: #32cd32; stroke-opacity: 0.8; stroke-width: 0.5; stroke-linecap: square"/>
    </g>
    <g id="text_18">
     <!-- Positive predictions min -->
     <g transform="translate(94.6 252.469937) scale(0.1 -0.1)">
      <use xlink:href="#DejaVuSans-50"/>
      <use xlink:href="#DejaVuSans-6f" x="56.677734"/>
      <use xlink:href="#DejaVuSans-73" x="117.859375"/>
      <use xlink:href="#DejaVuSans-69" x="169.958984"/>
      <use xlink:href="#DejaVuSans-74" x="197.742188"/>
      <use xlink:href="#DejaVuSans-69" x="236.951172"/>
      <use xlink:href="#DejaVuSans-76" x="264.734375"/>
      <use xlink:href="#DejaVuSans-65" x="323.914062"/>
      <use xlink:href="#DejaVuSans-20" x="385.4375"/>
      <use xlink:href="#DejaVuSans-70" x="417.224609"/>
      <use xlink:href="#DejaVuSans-72" x="480.701172"/>
      <use xlink:href="#DejaVuSans-65" x="519.564453"/>
      <use xlink:href="#DejaVuSans-64" x="581.087891"/>
      <use xlink:href="#DejaVuSans-69" x="644.564453"/>
      <use xlink:href="#DejaVuSans-63" x="672.347656"/>
      <use xlink:href="#DejaVuSans-74" x="727.328125"/>
      <use xlink:href="#DejaVuSans-69" x="766.537109"/>
      <use xlink:href="#DejaVuSans-6f" x="794.320312"/>
      <use xlink:href="#DejaVuSans-6e" x="855.501953"/>
      <use xlink:href="#DejaVuSans-73" x="918.880859"/>
      <use xlink:href="#DejaVuSans-20" x="970.980469"/>
      <use xlink:href="#DejaVuSans-6d" x="1002.767578"/>
      <use xlink:href="#DejaVuSans-69" x="1100.179688"/>
      <use xlink:href="#DejaVuSans-6e" x="1127.962891"/>
     </g>
    </g>
    <g id="line2d_24">
     <path d="M 66.6 263.648062 
L 76.6 263.648062 
L 86.6 263.648062 
" style="fill: none; stroke: #ff0000; stroke-opacity: 0.8; stroke-width: 0.5; stroke-linecap: square"/>
    </g>
    <g id="text_19">
     <!-- Negative predictions -->
     <g transform="translate(94.6 267.148062) scale(0.1 -0.1)">
      <defs>
       <path id="DejaVuSans-4e" d="M 628 4666 
L 1478 4666 
L 3547 763 
L 3547 4666 
L 4159 4666 
L 4159 0 
L 3309 0 
L 1241 3903 
L 1241 0 
L 628 0 
L 628 4666 
z
" transform="scale(0.015625)"/>
       <path id="DejaVuSans-67" d="M 2906 1791 
Q 2906 2416 2648 2759 
Q 2391 3103 1925 3103 
Q 1463 3103 1205 2759 
Q 947 2416 947 1791 
Q 947 1169 1205 825 
Q 1463 481 1925 481 
Q 2391 481 2648 825 
Q 2906 1169 2906 1791 
z
M 3481 434 
Q 3481 -459 3084 -895 
Q 2688 -1331 1869 -1331 
Q 1566 -1331 1297 -1286 
Q 1028 -1241 775 -1147 
L 775 -588 
Q 1028 -725 1275 -790 
Q 1522 -856 1778 -856 
Q 2344 -856 2625 -561 
Q 2906 -266 2906 331 
L 2906 616 
Q 2728 306 2450 153 
Q 2172 0 1784 0 
Q 1141 0 747 490 
Q 353 981 353 1791 
Q 353 2603 747 3093 
Q 1141 3584 1784 3584 
Q 2172 3584 2450 3431 
Q 2728 3278 2906 2969 
L 2906 3500 
L 3481 3500 
L 3481 434 
z
" transform="scale(0.015625)"/>
      </defs>
      <use xlink:href="#DejaVuSans-4e"/>
      <use xlink:href="#DejaVuSans-65" x="74.804688"/>
      <use xlink:href="#DejaVuSans-67" x="136.328125"/>
      <use xlink:href="#DejaVuSans-61" x="199.804688"/>
      <use xlink:href="#DejaVuSans-74" x="261.083984"/>
      <use xlink:href="#DejaVuSans-69" x="300.292969"/>
      <use xlink:href="#DejaVuSans-76" x="328.076172"/>
      <use xlink:href="#DejaVuSans-65" x="387.255859"/>
      <use xlink:href="#DejaVuSans-20" x="448.779297"/>
      <use xlink:href="#DejaVuSans-70" x="480.566406"/>
      <use xlink:href="#DejaVuSans-72" x="544.042969"/>
      <use xlink:href="#DejaVuSans-65" x="582.90625"/>
      <use xlink:href="#DejaVuSans-64" x="644.429688"/>
      <use xlink:href="#DejaVuSans-69" x="707.90625"/>
      <use xlink:href="#DejaVuSans-63" x="735.689453"/>
      <use xlink:href="#DejaVuSans-74" x="790.669922"/>
      <use xlink:href="#DejaVuSans-69" x="829.878906"/>
      <use xlink:href="#DejaVuSans-6f" x="857.662109"/>
      <use xlink:href="#DejaVuSans-6e" x="918.84375"/>
      <use xlink:href="#DejaVuSans-73" x="982.222656"/>
     </g>
    </g>
    <g id="line2d_25">
     <path d="M 66.6 278.326188 
L 76.6 278.326188 
L 86.6 278.326188 
" style="fill: none; stroke: #f08080; stroke-opacity: 0.8; stroke-width: 0.5; stroke-linecap: square"/>
    </g>
    <g id="text_20">
     <!-- Negative predictions max -->
     <g transform="translate(94.6 281.826188) scale(0.1 -0.1)">
      <use xlink:href="#DejaVuSans-4e"/>
      <use xlink:href="#DejaVuSans-65" x="74.804688"/>
      <use xlink:href="#DejaVuSans-67" x="136.328125"/>
      <use xlink:href="#DejaVuSans-61" x="199.804688"/>
      <use xlink:href="#DejaVuSans-74" x="261.083984"/>
      <use xlink:href="#DejaVuSans-69" x="300.292969"/>
      <use xlink:href="#DejaVuSans-76" x="328.076172"/>
      <use xlink:href="#DejaVuSans-65" x="387.255859"/>
      <use xlink:href="#DejaVuSans-20" x="448.779297"/>
      <use xlink:href="#DejaVuSans-70" x="480.566406"/>
      <use xlink:href="#DejaVuSans-72" x="544.042969"/>
      <use xlink:href="#DejaVuSans-65" x="582.90625"/>
      <use xlink:href="#DejaVuSans-64" x="644.429688"/>
      <use xlink:href="#DejaVuSans-69" x="707.90625"/>
      <use xlink:href="#DejaVuSans-63" x="735.689453"/>
      <use xlink:href="#DejaVuSans-74" x="790.669922"/>
      <use xlink:href="#DejaVuSans-69" x="829.878906"/>
      <use xlink:href="#DejaVuSans-6f" x="857.662109"/>
      <use xlink:href="#DejaVuSans-6e" x="918.84375"/>
      <use xlink:href="#DejaVuSans-73" x="982.222656"/>
      <use xlink:href="#DejaVuSans-20" x="1034.322266"/>
      <use xlink:href="#DejaVuSans-6d" x="1066.109375"/>
      <use xlink:href="#DejaVuSans-61" x="1163.521484"/>
      <use xlink:href="#DejaVuSans-78" x="1224.800781"/>
     </g>
    </g>
    <g id="line2d_26">
     <path d="M 66.6 293.004312 
L 76.6 293.004312 
L 86.6 293.004312 
" style="fill: none; stroke: #f08080; stroke-opacity: 0.8; stroke-width: 0.5; stroke-linecap: square"/>
    </g>
    <g id="text_21">
     <!-- Negative predictions min -->
     <g transform="translate(94.6 296.504312) scale(0.1 -0.1)">
      <use xlink:href="#DejaVuSans-4e"/>
      <use xlink:href="#DejaVuSans-65" x="74.804688"/>
      <use xlink:href="#DejaVuSans-67" x="136.328125"/>
      <use xlink:href="#DejaVuSans-61" x="199.804688"/>
      <use xlink:href="#DejaVuSans-74" x="261.083984"/>
      <use xlink:href="#DejaVuSans-69" x="300.292969"/>
      <use xlink:href="#DejaVuSans-76" x="328.076172"/>
      <use xlink:href="#DejaVuSans-65" x="387.255859"/>
      <use xlink:href="#DejaVuSans-20" x="448.779297"/>
      <use xlink:href="#DejaVuSans-70" x="480.566406"/>
      <use xlink:href="#DejaVuSans-72" x="544.042969"/>
      <use xlink:href="#DejaVuSans-65" x="582.90625"/>
      <use xlink:href="#DejaVuSans-64" x="644.429688"/>
      <use xlink:href="#DejaVuSans-69" x="707.90625"/>
      <use xlink:href="#DejaVuSans-63" x="735.689453"/>
      <use xlink:href="#DejaVuSans-74" x="790.669922"/>
      <use xlink:href="#DejaVuSans-69" x="829.878906"/>
      <use xlink:href="#DejaVuSans-6f" x="857.662109"/>
      <use xlink:href="#DejaVuSans-6e" x="918.84375"/>
      <use xlink:href="#DejaVuSans-73" x="982.222656"/>
      <use xlink:href="#DejaVuSans-20" x="1034.322266"/>
      <use xlink:href="#DejaVuSans-6d" x="1066.109375"/>
      <use xlink:href="#DejaVuSans-69" x="1163.521484"/>
      <use xlink:href="#DejaVuSans-6e" x="1191.304688"/>
     </g>
    </g>
   </g>
  </g>
 </g>
 <defs>
  <clipPath id="p45ceb78181">
   <rect x="57.6" y="41.472" width="357.12" height="266.112"/>
  </clipPath>
 </defs>
</svg>
