<?xml version="1.0" encoding="utf-8" standalone="no"?>
<!DOCTYPE svg PUBLIC "-//W3C//DTD SVG 1.1//EN"
  "http://www.w3.org/Graphics/SVG/1.1/DTD/svg11.dtd">
<svg xmlns:xlink="http://www.w3.org/1999/xlink" width="460.8pt" height="345.6pt" viewBox="0 0 460.8 345.6" xmlns="http://www.w3.org/2000/svg" version="1.1">
 <metadata>
  <rdf:RDF xmlns:dc="http://purl.org/dc/elements/1.1/" xmlns:cc="http://creativecommons.org/ns#" xmlns:rdf="http://www.w3.org/1999/02/22-rdf-syntax-ns#">
   <cc:Work>
    <dc:type rdf:resource="http://purl.org/dc/dcmitype/StillImage"/>
    <dc:date>2024-09-08T14:44:58.257274</dc:date>
    <dc:format>image/svg+xml</dc:format>
    <dc:creator>
     <cc:Agent>
      <dc:title>Matplotlib v3.8.3, https://matplotlib.org/</dc:title>
     </cc:Agent>
    </dc:creator>
   </cc:Work>
  </rdf:RDF>
 </metadata>
 <defs>
  <style type="text/css">*{stroke-linejoin: round; stroke-linecap: butt}</style>
 </defs>
 <g id="figure_1">
  <g id="patch_1">
   <path d="M 0 345.6 
L 460.8 345.6 
L 460.8 0 
L 0 0 
z
" style="fill: #ffffff"/>
  </g>
  <g id="axes_1">
   <g id="patch_2">
    <path d="M 57.6 307.584 
L 414.72 307.584 
L 414.72 41.472 
L 57.6 41.472 
z
" style="fill: #ffffff"/>
   </g>
   <g id="matplotlib.axis_1">
    <g id="xtick_1">
     <g id="line2d_1">
      <defs>
       <path id="mdb8aca5827" d="M 0 0 
L 0 3.5 
" style="stroke: #000000; stroke-width: 0.8"/>
      </defs>
      <g>
       <use xlink:href="#mdb8aca5827" x="73.832727" y="307.584" style="stroke: #000000; stroke-width: 0.8"/>
      </g>
     </g>
     <g id="text_1">
      <!-- 0 -->
      <g transform="translate(70.651477 322.182437) scale(0.1 -0.1)">
       <defs>
        <path id="DejaVuSans-30" d="M 2034 4250 
Q 1547 4250 1301 3770 
Q 1056 3291 1056 2328 
Q 1056 1369 1301 889 
Q 1547 409 2034 409 
Q 2525 409 2770 889 
Q 3016 1369 3016 2328 
Q 3016 3291 2770 3770 
Q 2525 4250 2034 4250 
z
M 2034 4750 
Q 2819 4750 3233 4129 
Q 3647 3509 3647 2328 
Q 3647 1150 3233 529 
Q 2819 -91 2034 -91 
Q 1250 -91 836 529 
Q 422 1150 422 2328 
Q 422 3509 836 4129 
Q 1250 4750 2034 4750 
z
" transform="scale(0.015625)"/>
       </defs>
       <use xlink:href="#DejaVuSans-30"/>
      </g>
     </g>
    </g>
    <g id="xtick_2">
     <g id="line2d_2">
      <g>
       <use xlink:href="#mdb8aca5827" x="117.76433" y="307.584" style="stroke: #000000; stroke-width: 0.8"/>
      </g>
     </g>
     <g id="text_2">
      <!-- 200 -->
      <g transform="translate(108.22058 322.182437) scale(0.1 -0.1)">
       <defs>
        <path id="DejaVuSans-32" d="M 1228 531 
L 3431 531 
L 3431 0 
L 469 0 
L 469 531 
Q 828 903 1448 1529 
Q 2069 2156 2228 2338 
Q 2531 2678 2651 2914 
Q 2772 3150 2772 3378 
Q 2772 3750 2511 3984 
Q 2250 4219 1831 4219 
Q 1534 4219 1204 4116 
Q 875 4013 500 3803 
L 500 4441 
Q 881 4594 1212 4672 
Q 1544 4750 1819 4750 
Q 2544 4750 2975 4387 
Q 3406 4025 3406 3419 
Q 3406 3131 3298 2873 
Q 3191 2616 2906 2266 
Q 2828 2175 2409 1742 
Q 1991 1309 1228 531 
z
" transform="scale(0.015625)"/>
       </defs>
       <use xlink:href="#DejaVuSans-32"/>
       <use xlink:href="#DejaVuSans-30" x="63.623047"/>
       <use xlink:href="#DejaVuSans-30" x="127.246094"/>
      </g>
     </g>
    </g>
    <g id="xtick_3">
     <g id="line2d_3">
      <g>
       <use xlink:href="#mdb8aca5827" x="161.695933" y="307.584" style="stroke: #000000; stroke-width: 0.8"/>
      </g>
     </g>
     <g id="text_3">
      <!-- 400 -->
      <g transform="translate(152.152183 322.182437) scale(0.1 -0.1)">
       <defs>
        <path id="DejaVuSans-34" d="M 2419 4116 
L 825 1625 
L 2419 1625 
L 2419 4116 
z
M 2253 4666 
L 3047 4666 
L 3047 1625 
L 3713 1625 
L 3713 1100 
L 3047 1100 
L 3047 0 
L 2419 0 
L 2419 1100 
L 313 1100 
L 313 1709 
L 2253 4666 
z
" transform="scale(0.015625)"/>
       </defs>
       <use xlink:href="#DejaVuSans-34"/>
       <use xlink:href="#DejaVuSans-30" x="63.623047"/>
       <use xlink:href="#DejaVuSans-30" x="127.246094"/>
      </g>
     </g>
    </g>
    <g id="xtick_4">
     <g id="line2d_4">
      <g>
       <use xlink:href="#mdb8aca5827" x="205.627536" y="307.584" style="stroke: #000000; stroke-width: 0.8"/>
      </g>
     </g>
     <g id="text_4">
      <!-- 600 -->
      <g transform="translate(196.083786 322.182437) scale(0.1 -0.1)">
       <defs>
        <path id="DejaVuSans-36" d="M 2113 2584 
Q 1688 2584 1439 2293 
Q 1191 2003 1191 1497 
Q 1191 994 1439 701 
Q 1688 409 2113 409 
Q 2538 409 2786 701 
Q 3034 994 3034 1497 
Q 3034 2003 2786 2293 
Q 2538 2584 2113 2584 
z
M 3366 4563 
L 3366 3988 
Q 3128 4100 2886 4159 
Q 2644 4219 2406 4219 
Q 1781 4219 1451 3797 
Q 1122 3375 1075 2522 
Q 1259 2794 1537 2939 
Q 1816 3084 2150 3084 
Q 2853 3084 3261 2657 
Q 3669 2231 3669 1497 
Q 3669 778 3244 343 
Q 2819 -91 2113 -91 
Q 1303 -91 875 529 
Q 447 1150 447 2328 
Q 447 3434 972 4092 
Q 1497 4750 2381 4750 
Q 2619 4750 2861 4703 
Q 3103 4656 3366 4563 
z
" transform="scale(0.015625)"/>
       </defs>
       <use xlink:href="#DejaVuSans-36"/>
       <use xlink:href="#DejaVuSans-30" x="63.623047"/>
       <use xlink:href="#DejaVuSans-30" x="127.246094"/>
      </g>
     </g>
    </g>
    <g id="xtick_5">
     <g id="line2d_5">
      <g>
       <use xlink:href="#mdb8aca5827" x="249.559139" y="307.584" style="stroke: #000000; stroke-width: 0.8"/>
      </g>
     </g>
     <g id="text_5">
      <!-- 800 -->
      <g transform="translate(240.015389 322.182437) scale(0.1 -0.1)">
       <defs>
        <path id="DejaVuSans-38" d="M 2034 2216 
Q 1584 2216 1326 1975 
Q 1069 1734 1069 1313 
Q 1069 891 1326 650 
Q 1584 409 2034 409 
Q 2484 409 2743 651 
Q 3003 894 3003 1313 
Q 3003 1734 2745 1975 
Q 2488 2216 2034 2216 
z
M 1403 2484 
Q 997 2584 770 2862 
Q 544 3141 544 3541 
Q 544 4100 942 4425 
Q 1341 4750 2034 4750 
Q 2731 4750 3128 4425 
Q 3525 4100 3525 3541 
Q 3525 3141 3298 2862 
Q 3072 2584 2669 2484 
Q 3125 2378 3379 2068 
Q 3634 1759 3634 1313 
Q 3634 634 3220 271 
Q 2806 -91 2034 -91 
Q 1263 -91 848 271 
Q 434 634 434 1313 
Q 434 1759 690 2068 
Q 947 2378 1403 2484 
z
M 1172 3481 
Q 1172 3119 1398 2916 
Q 1625 2713 2034 2713 
Q 2441 2713 2670 2916 
Q 2900 3119 2900 3481 
Q 2900 3844 2670 4047 
Q 2441 4250 2034 4250 
Q 1625 4250 1398 4047 
Q 1172 3844 1172 3481 
z
" transform="scale(0.015625)"/>
       </defs>
       <use xlink:href="#DejaVuSans-38"/>
       <use xlink:href="#DejaVuSans-30" x="63.623047"/>
       <use xlink:href="#DejaVuSans-30" x="127.246094"/>
      </g>
     </g>
    </g>
    <g id="xtick_6">
     <g id="line2d_6">
      <g>
       <use xlink:href="#mdb8aca5827" x="293.490742" y="307.584" style="stroke: #000000; stroke-width: 0.8"/>
      </g>
     </g>
     <g id="text_6">
      <!-- 1000 -->
      <g transform="translate(280.765742 322.182437) scale(0.1 -0.1)">
       <defs>
        <path id="DejaVuSans-31" d="M 794 531 
L 1825 531 
L 1825 4091 
L 703 3866 
L 703 4441 
L 1819 4666 
L 2450 4666 
L 2450 531 
L 3481 531 
L 3481 0 
L 794 0 
L 794 531 
z
" transform="scale(0.015625)"/>
       </defs>
       <use xlink:href="#DejaVuSans-31"/>
       <use xlink:href="#DejaVuSans-30" x="63.623047"/>
       <use xlink:href="#DejaVuSans-30" x="127.246094"/>
       <use xlink:href="#DejaVuSans-30" x="190.869141"/>
      </g>
     </g>
    </g>
    <g id="xtick_7">
     <g id="line2d_7">
      <g>
       <use xlink:href="#mdb8aca5827" x="337.422345" y="307.584" style="stroke: #000000; stroke-width: 0.8"/>
      </g>
     </g>
     <g id="text_7">
      <!-- 1200 -->
      <g transform="translate(324.697345 322.182437) scale(0.1 -0.1)">
       <use xlink:href="#DejaVuSans-31"/>
       <use xlink:href="#DejaVuSans-32" x="63.623047"/>
       <use xlink:href="#DejaVuSans-30" x="127.246094"/>
       <use xlink:href="#DejaVuSans-30" x="190.869141"/>
      </g>
     </g>
    </g>
    <g id="xtick_8">
     <g id="line2d_8">
      <g>
       <use xlink:href="#mdb8aca5827" x="381.353948" y="307.584" style="stroke: #000000; stroke-width: 0.8"/>
      </g>
     </g>
     <g id="text_8">
      <!-- 1400 -->
      <g transform="translate(368.628948 322.182437) scale(0.1 -0.1)">
       <use xlink:href="#DejaVuSans-31"/>
       <use xlink:href="#DejaVuSans-34" x="63.623047"/>
       <use xlink:href="#DejaVuSans-30" x="127.246094"/>
       <use xlink:href="#DejaVuSans-30" x="190.869141"/>
      </g>
     </g>
    </g>
   </g>
   <g id="matplotlib.axis_2">
    <g id="ytick_1">
     <g id="line2d_9">
      <defs>
       <path id="md76096680f" d="M 0 0 
L -3.5 0 
" style="stroke: #000000; stroke-width: 0.8"/>
      </defs>
      <g>
       <use xlink:href="#md76096680f" x="57.6" y="275.411048" style="stroke: #000000; stroke-width: 0.8"/>
      </g>
     </g>
     <g id="text_9">
      <!-- −20000 -->
      <g transform="translate(10.407812 279.210267) scale(0.1 -0.1)">
       <defs>
        <path id="DejaVuSans-2212" d="M 678 2272 
L 4684 2272 
L 4684 1741 
L 678 1741 
L 678 2272 
z
" transform="scale(0.015625)"/>
       </defs>
       <use xlink:href="#DejaVuSans-2212"/>
       <use xlink:href="#DejaVuSans-32" x="83.789062"/>
       <use xlink:href="#DejaVuSans-30" x="147.412109"/>
       <use xlink:href="#DejaVuSans-30" x="211.035156"/>
       <use xlink:href="#DejaVuSans-30" x="274.658203"/>
       <use xlink:href="#DejaVuSans-30" x="338.28125"/>
      </g>
     </g>
    </g>
    <g id="ytick_2">
     <g id="line2d_10">
      <g>
       <use xlink:href="#md76096680f" x="57.6" y="223.398893" style="stroke: #000000; stroke-width: 0.8"/>
      </g>
     </g>
     <g id="text_10">
      <!-- −10000 -->
      <g transform="translate(10.407812 227.198112) scale(0.1 -0.1)">
       <use xlink:href="#DejaVuSans-2212"/>
       <use xlink:href="#DejaVuSans-31" x="83.789062"/>
       <use xlink:href="#DejaVuSans-30" x="147.412109"/>
       <use xlink:href="#DejaVuSans-30" x="211.035156"/>
       <use xlink:href="#DejaVuSans-30" x="274.658203"/>
       <use xlink:href="#DejaVuSans-30" x="338.28125"/>
      </g>
     </g>
    </g>
    <g id="ytick_3">
     <g id="line2d_11">
      <g>
       <use xlink:href="#md76096680f" x="57.6" y="171.386739" style="stroke: #000000; stroke-width: 0.8"/>
      </g>
     </g>
     <g id="text_11">
      <!-- 0 -->
      <g transform="translate(44.2375 175.185958) scale(0.1 -0.1)">
       <use xlink:href="#DejaVuSans-30"/>
      </g>
     </g>
    </g>
    <g id="ytick_4">
     <g id="line2d_12">
      <g>
       <use xlink:href="#md76096680f" x="57.6" y="119.374584" style="stroke: #000000; stroke-width: 0.8"/>
      </g>
     </g>
     <g id="text_12">
      <!-- 10000 -->
      <g transform="translate(18.7875 123.173803) scale(0.1 -0.1)">
       <use xlink:href="#DejaVuSans-31"/>
       <use xlink:href="#DejaVuSans-30" x="63.623047"/>
       <use xlink:href="#DejaVuSans-30" x="127.246094"/>
       <use xlink:href="#DejaVuSans-30" x="190.869141"/>
       <use xlink:href="#DejaVuSans-30" x="254.492188"/>
      </g>
     </g>
    </g>
    <g id="ytick_5">
     <g id="line2d_13">
      <g>
       <use xlink:href="#md76096680f" x="57.6" y="67.36243" style="stroke: #000000; stroke-width: 0.8"/>
      </g>
     </g>
     <g id="text_13">
      <!-- 20000 -->
      <g transform="translate(18.7875 71.161649) scale(0.1 -0.1)">
       <use xlink:href="#DejaVuSans-32"/>
       <use xlink:href="#DejaVuSans-30" x="63.623047"/>
       <use xlink:href="#DejaVuSans-30" x="127.246094"/>
       <use xlink:href="#DejaVuSans-30" x="190.869141"/>
       <use xlink:href="#DejaVuSans-30" x="254.492188"/>
      </g>
     </g>
    </g>
   </g>
   <g id="line2d_14">
    <path d="M 73.832727 171.525559 
L 74.272043 171.721536 
L 75.150675 171.853428 
L 75.370333 172.133212 
L 75.809649 171.79821 
L 76.029307 171.747758 
L 76.248965 171.853612 
L 76.468623 172.122781 
L 76.907939 172.253236 
L 77.566914 172.66129 
L 77.786572 172.53386 
L 78.00623 172.537667 
L 78.445546 172.742533 
L 78.665204 172.54498 
L 79.10452 172.718545 
L 79.543836 172.176278 
L 79.763494 172.655206 
L 79.983152 172.54866 
L 80.20281 172.686876 
L 80.422468 173.005763 
L 80.642126 172.69165 
L 81.081442 173.310692 
L 81.3011 173.273569 
L 81.520758 172.924837 
L 82.179732 173.172679 
L 82.39939 173.281541 
L 82.619048 173.230818 
L 83.058364 173.631087 
L 83.49768 173.369908 
L 83.717338 173.247107 
L 83.936996 173.25439 
L 84.156654 173.111389 
L 86.133576 173.6654 
L 86.572892 173.754469 
L 87.012208 173.951427 
L 88.110498 174.157174 
L 88.330156 174.323906 
L 88.769472 174.338866 
L 89.428446 174.350628 
L 89.648104 174.605237 
L 89.867762 174.5976 
L 90.08742 174.821578 
L 91.18571 174.898282 
L 91.625026 175.089872 
L 94.041265 175.054437 
L 94.480581 175.298854 
L 94.700239 175.421913 
L 94.919897 175.342439 
L 95.798529 175.911381 
L 96.018187 175.815206 
L 96.457503 176.021921 
L 96.896819 176.140258 
L 97.336135 176.227607 
L 97.995109 176.435175 
L 98.214767 176.600601 
L 98.873741 176.508071 
L 99.313057 176.701169 
L 100.191689 177.096196 
L 101.509637 176.918253 
L 101.948953 177.189078 
L 103.925875 177.513825 
L 105.024165 177.385244 
L 105.902797 177.584897 
L 106.781429 177.609818 
L 107.220745 177.764722 
L 107.87972 177.748872 
L 108.758352 177.946692 
L 108.97801 178.003461 
L 109.417326 177.839214 
L 109.856642 177.845456 
L 110.0763 177.360975 
L 110.295958 177.169927 
L 110.515616 177.467045 
L 110.735274 177.467348 
L 110.954932 177.910064 
L 111.17459 178.002237 
L 111.394248 177.893965 
L 111.833564 178.1358 
L 112.053222 178.120831 
L 112.27288 177.877766 
L 112.492538 178.323271 
L 112.712196 178.22632 
L 112.931854 178.309332 
L 113.151512 178.720373 
L 113.590828 179.075591 
L 113.810486 178.956353 
L 114.249802 179.172658 
L 114.46946 179.531556 
L 115.128434 178.960907 
L 116.007066 179.497426 
L 116.446382 179.19263 
L 116.66604 179.317422 
L 116.885698 179.30029 
L 117.544672 180.133981 
L 117.76433 180.081943 
L 118.203646 180.329482 
L 118.423304 179.864434 
L 118.642962 179.970889 
L 118.86262 179.731464 
L 119.741252 179.947148 
L 120.180568 179.568369 
L 120.400226 179.753919 
L 120.839542 179.658496 
L 121.0592 179.639175 
L 121.278858 179.466832 
L 121.498516 180.275958 
L 121.937832 180.595625 
L 122.15749 180.921022 
L 122.377148 180.93699 
L 122.596806 180.787484 
L 123.036123 181.745364 
L 123.255781 181.995811 
L 123.475439 181.957652 
L 123.914755 182.179835 
L 124.134413 182.161658 
L 124.573729 182.579068 
L 125.013045 183.060796 
L 125.232703 182.916992 
L 125.672019 183.117397 
L 125.891677 183.372501 
L 126.330993 183.427463 
L 126.989967 183.992126 
L 127.648941 184.26767 
L 127.868599 184.115336 
L 128.307915 184.198603 
L 128.747231 184.508601 
L 128.966889 184.565016 
L 129.406205 184.926435 
L 130.065179 185.150982 
L 131.163469 185.378018 
L 131.602785 185.350024 
L 131.822443 185.370642 
L 132.042101 185.250477 
L 132.261759 185.260536 
L 132.481417 185.500052 
L 134.019023 185.852371 
L 134.238681 186.133106 
L 134.458339 185.913043 
L 134.677997 185.998292 
L 134.897655 186.233393 
L 135.117313 186.162658 
L 135.995945 186.667928 
L 136.435261 186.697254 
L 136.874577 186.78123 
L 137.094235 186.676276 
L 137.753209 187.126436 
L 137.972868 187.064142 
L 139.290816 187.724921 
L 140.389106 187.965777 
L 140.608764 187.951838 
L 140.828422 188.213141 
L 141.04808 188.171895 
L 141.267738 187.927499 
L 141.926712 188.050006 
L 142.14637 187.656236 
L 142.805344 188.141112 
L 143.24466 187.936694 
L 143.464318 188.118259 
L 143.683976 188.084117 
L 143.903634 187.885985 
L 144.123292 187.977748 
L 144.562608 187.87148 
L 144.782266 187.918281 
L 145.001924 187.791735 
L 145.221582 187.847949 
L 145.660898 188.443228 
L 146.100214 188.618665 
L 146.319872 188.811793 
L 146.978846 188.872721 
L 147.418162 188.997595 
L 148.077136 189.428144 
L 148.516452 189.415707 
L 148.73611 189.288732 
L 149.175426 189.395075 
L 149.614742 189.649365 
L 150.93269 189.923232 
L 151.591664 190.329819 
L 152.03098 190.244461 
L 152.250638 190.301892 
L 152.470296 190.223007 
L 153.129271 190.681986 
L 154.007903 190.611873 
L 154.886535 189.652768 
L 155.106193 189.940174 
L 155.325851 189.926703 
L 155.545509 190.315433 
L 155.765167 190.318527 
L 155.984825 190.199076 
L 156.204483 190.525797 
L 156.424141 190.166471 
L 156.643799 190.384961 
L 157.083115 191.08166 
L 157.302773 190.869867 
L 157.522431 191.047904 
L 157.742089 190.990743 
L 157.961747 190.588493 
L 158.181405 190.806461 
L 158.401063 190.666445 
L 158.840379 191.03291 
L 159.279695 190.781941 
L 159.719011 191.062783 
L 159.938669 191.166287 
L 160.158327 191.066496 
L 160.377985 191.172523 
L 160.817301 191.524631 
L 161.476275 191.572026 
L 161.695933 191.700849 
L 162.574565 191.638553 
L 163.013881 191.856628 
L 163.233539 191.799352 
L 163.453197 191.918699 
L 163.892513 191.504568 
L 164.331829 191.922563 
L 164.551487 191.853882 
L 164.771145 191.664048 
L 165.430119 192.170971 
L 165.649777 192.118967 
L 166.089093 192.24596 
L 166.967725 192.379882 
L 167.846357 192.936255 
L 168.285674 193.001254 
L 168.505332 192.915725 
L 168.944648 193.006603 
L 170.482254 193.523357 
L 170.701912 193.4605 
L 171.141228 193.662658 
L 172.01986 193.63233 
L 172.459176 193.858643 
L 172.898492 193.896172 
L 173.337808 193.635183 
L 174.21644 194.197195 
L 174.655756 194.212868 
L 174.875414 194.363301 
L 175.095072 194.314846 
L 175.31473 194.453718 
L 175.534388 194.386103 
L 175.973704 194.581608 
L 177.071994 195.00411 
L 177.291652 194.847787 
L 177.51131 194.921872 
L 177.730968 195.133101 
L 177.950626 195.127193 
L 178.170284 195.292684 
L 178.389942 195.187338 
L 178.829258 195.422526 
L 179.048916 195.388622 
L 179.927548 195.875304 
L 180.80618 195.974456 
L 181.245496 195.647385 
L 181.465154 195.882496 
L 181.90447 196.089044 
L 182.124128 195.87249 
L 182.343786 196.02588 
L 182.563444 196.346047 
L 183.00276 196.471422 
L 183.661735 196.398381 
L 184.101051 196.567387 
L 184.760025 196.782919 
L 185.199341 196.588716 
L 185.638657 195.600052 
L 185.858315 195.709538 
L 186.077973 195.164659 
L 186.297631 195.407569 
L 186.517289 196.485534 
L 186.736947 196.197954 
L 186.956605 197.161739 
L 187.176263 196.495554 
L 187.395921 196.319597 
L 187.615579 195.23738 
L 187.835237 196.105931 
L 188.274553 194.415928 
L 188.494211 196.127753 
L 188.713869 194.007646 
L 188.933527 195.358389 
L 189.153185 195.269408 
L 189.372843 195.460239 
L 189.592501 195.177827 
L 189.812159 195.242603 
L 190.031817 196.842165 
L 190.471133 197.657037 
L 190.690791 196.796672 
L 190.910449 197.306963 
L 191.130107 197.40772 
L 191.349765 197.107233 
L 191.569423 197.481574 
L 191.789081 197.260401 
L 192.008739 198.656573 
L 192.228397 198.62593 
L 192.448055 199.662317 
L 192.667713 200.040308 
L 192.887371 199.79301 
L 193.107029 200.278406 
L 193.326687 199.955556 
L 193.766003 201.728915 
L 194.205319 201.017147 
L 195.083951 202.860549 
L 195.303609 203.138783 
L 195.523267 203.818031 
L 195.962583 203.124688 
L 196.401899 203.407865 
L 196.621557 203.320686 
L 196.841215 203.625114 
L 197.060873 204.165954 
L 197.280531 204.22477 
L 197.719847 203.690904 
L 197.939505 203.95077 
L 198.159163 203.867931 
L 198.378822 204.537171 
L 198.59848 204.281584 
L 198.818138 204.539894 
L 199.037796 204.223517 
L 199.257454 204.268572 
L 199.477112 204.452747 
L 199.69677 204.874262 
L 199.916428 204.833836 
L 200.136086 204.955102 
L 200.575402 204.88763 
L 201.014718 205.335135 
L 201.673692 206.442062 
L 201.89335 206.314355 
L 202.113008 205.469151 
L 202.771982 206.735091 
L 202.99164 206.896601 
L 203.211298 206.884041 
L 203.870272 207.205926 
L 204.08993 206.73044 
L 204.309588 206.991384 
L 204.529246 206.654684 
L 204.968562 207.086634 
L 205.18822 207.338694 
L 205.407878 207.339578 
L 205.627536 207.657614 
L 205.847194 207.45658 
L 206.066852 207.598512 
L 206.28651 207.347277 
L 206.506168 207.560518 
L 206.725826 207.473925 
L 207.3848 208.011167 
L 207.604458 208.05881 
L 207.824116 208.240974 
L 208.702748 208.047722 
L 208.922406 208.307011 
L 209.142064 208.327311 
L 209.58138 208.792061 
L 211.118986 210.099577 
L 211.338644 209.925666 
L 211.558302 210.160519 
L 211.997618 209.950527 
L 212.217276 209.982837 
L 212.436934 210.318239 
L 212.656592 210.416623 
L 213.095908 210.922967 
L 213.315566 211.342619 
L 213.974541 211.617809 
L 214.194199 211.815215 
L 214.413857 211.859483 
L 214.853173 212.359583 
L 215.072831 211.835166 
L 215.292489 211.841222 
L 215.512147 211.414561 
L 215.731805 211.929989 
L 215.951463 211.799193 
L 216.171121 211.878096 
L 216.610437 212.623404 
L 216.830095 212.661477 
L 217.269411 212.463298 
L 217.489069 212.525214 
L 217.708727 212.840498 
L 217.928385 212.241248 
L 218.367701 213.181387 
L 219.026675 213.494638 
L 219.246333 213.82723 
L 219.465991 213.872993 
L 219.685649 214.30457 
L 219.905307 214.252772 
L 220.783939 215.763273 
L 221.223255 215.731565 
L 221.442913 215.811727 
L 221.662571 215.608463 
L 221.882229 215.106857 
L 222.760861 215.296331 
L 222.980519 215.088003 
L 223.200177 215.129737 
L 223.419835 214.63694 
L 223.639493 215.023304 
L 223.859151 214.967182 
L 224.298467 215.618966 
L 224.737783 216.434829 
L 224.957441 216.361024 
L 225.177099 216.622396 
L 225.836073 216.359277 
L 226.275389 216.618493 
L 226.495047 216.453285 
L 226.714705 216.140991 
L 227.373679 216.378491 
L 227.593337 216.665098 
L 227.812995 216.708522 
L 228.252311 216.441634 
L 228.471969 216.631323 
L 228.911286 216.580472 
L 229.130944 216.726367 
L 229.789918 216.381728 
L 230.229234 216.631784 
L 230.448892 216.460109 
L 230.888208 216.869834 
L 231.327524 216.858144 
L 231.986498 216.561549 
L 232.645472 216.922403 
L 232.86513 216.903926 
L 233.084788 217.039938 
L 233.304446 216.747196 
L 233.524104 216.821028 
L 234.183078 217.457681 
L 234.402736 217.394738 
L 235.281368 217.965353 
L 235.720684 218.794679 
L 235.940342 218.917531 
L 236.16 218.712472 
L 236.599316 218.932701 
L 236.818974 218.533047 
L 237.038632 218.841401 
L 237.25829 218.578922 
L 237.697606 219.536995 
L 237.917264 219.565195 
L 238.35658 219.904915 
L 239.235212 220.220818 
L 239.45487 220.518157 
L 239.674528 220.526686 
L 240.113844 220.815722 
L 240.772818 220.998612 
L 240.992476 221.251307 
L 241.431792 220.783067 
L 241.65145 221.333304 
L 242.310424 220.684525 
L 242.530082 221.240054 
L 242.74974 221.186313 
L 242.969398 221.519467 
L 243.189056 221.61051 
L 243.408714 222.059988 
L 243.848031 222.025686 
L 244.287347 222.100448 
L 244.726663 221.64764 
L 244.946321 221.858515 
L 245.165979 221.658122 
L 245.385637 221.631659 
L 245.605295 221.82768 
L 245.824953 222.213044 
L 246.044611 222.279515 
L 246.483927 222.202278 
L 246.923243 222.845981 
L 247.362559 223.085692 
L 247.582217 223.088782 
L 248.021533 223.433301 
L 248.241191 223.582236 
L 248.460849 223.423006 
L 248.900165 223.991009 
L 249.119823 224.002505 
L 249.339481 223.885739 
L 249.559139 224.239495 
L 249.778797 224.230847 
L 250.218113 224.774671 
L 250.437771 224.916887 
L 250.657429 224.779472 
L 250.877087 224.981305 
L 251.096745 224.898828 
L 251.316403 224.962076 
L 251.536061 224.839107 
L 251.755719 224.893367 
L 251.975377 225.16699 
L 252.195035 225.200728 
L 252.634351 224.775236 
L 252.854009 224.294226 
L 253.293325 224.968206 
L 253.732641 224.688033 
L 253.952299 224.69991 
L 254.171957 224.955729 
L 254.611273 225.183206 
L 254.830931 224.939165 
L 255.050589 225.164886 
L 255.929221 225.230982 
L 256.148879 225.166695 
L 256.368537 225.454708 
L 256.588195 225.524143 
L 257.027511 225.436496 
L 257.466827 225.613007 
L 257.906143 225.633266 
L 258.125801 225.509705 
L 258.345459 225.558757 
L 258.565117 225.258389 
L 259.004434 225.843792 
L 259.44375 225.966848 
L 260.981356 226.437106 
L 261.201014 226.634069 
L 261.420672 226.483147 
L 261.859988 226.834886 
L 262.73862 226.972477 
L 262.958278 226.66197 
L 263.397594 227.449922 
L 263.617252 227.527843 
L 264.056568 228.021798 
L 264.276226 227.989493 
L 264.495884 228.08313 
L 264.9352 227.967187 
L 265.154858 227.942755 
L 265.374516 228.27072 
L 266.253148 228.373121 
L 267.571096 228.612312 
L 267.790754 228.352199 
L 268.010412 228.505671 
L 268.449728 229.153622 
L 268.889044 229.381246 
L 269.108702 229.244341 
L 269.32836 229.605701 
L 270.42665 230.007927 
L 270.646308 229.946505 
L 271.085624 230.010872 
L 271.305282 229.739837 
L 271.52494 229.873619 
L 271.744598 229.827633 
L 272.183914 230.184419 
L 272.62323 229.630168 
L 273.062546 230.052295 
L 273.282204 230.470118 
L 273.72152 230.547656 
L 273.941178 230.059262 
L 274.160837 230.181136 
L 274.380495 230.037781 
L 274.600153 230.396543 
L 274.819811 230.224409 
L 275.259127 230.817799 
L 275.478785 231.029535 
L 275.698443 231.086898 
L 276.137759 231.001835 
L 276.357417 231.036188 
L 276.577075 231.339457 
L 277.236049 231.625986 
L 277.455707 231.838016 
L 277.895023 232.005905 
L 278.334339 232.289282 
L 278.553997 232.220239 
L 278.993313 232.494122 
L 279.432629 232.705682 
L 280.091603 233.246801 
L 280.530919 233.354826 
L 280.750577 233.253801 
L 280.970235 233.310867 
L 281.189893 233.571476 
L 281.409551 233.641847 
L 281.629209 233.835104 
L 281.848867 233.808303 
L 282.068525 233.982655 
L 282.507841 234.00522 
L 282.947157 234.05584 
L 283.166815 233.41441 
L 283.386473 233.81251 
L 283.825789 233.261935 
L 284.045447 233.79869 
L 284.265105 233.777799 
L 284.704421 234.744064 
L 284.924079 234.859427 
L 285.143737 234.65557 
L 285.363395 234.860978 
L 285.802711 234.059121 
L 286.022369 234.382079 
L 286.461685 233.957361 
L 286.681343 233.821932 
L 287.120659 234.601438 
L 287.340317 234.677979 
L 287.779633 235.063307 
L 288.218949 234.840694 
L 288.877923 235.059864 
L 289.097581 234.699261 
L 289.536898 234.972937 
L 289.756556 234.995021 
L 289.976214 235.290176 
L 290.195872 235.279307 
L 290.41553 235.014199 
L 290.635188 235.15349 
L 290.854846 234.835218 
L 291.074504 234.863606 
L 291.294162 234.768061 
L 291.51382 234.520509 
L 291.733478 234.876524 
L 291.953136 234.698844 
L 292.172794 234.86084 
L 292.392452 234.753797 
L 292.831768 235.984484 
L 293.271084 236.532234 
L 293.490742 236.05876 
L 293.930058 236.6164 
L 294.149716 236.826295 
L 294.369374 237.235028 
L 294.80869 236.698709 
L 295.028348 236.856148 
L 295.248006 237.430039 
L 295.467664 237.501296 
L 295.687322 237.110415 
L 296.126638 237.066381 
L 296.346296 236.831288 
L 296.785612 238.002907 
L 297.00527 237.99358 
L 297.224928 237.778535 
L 297.444586 238.430327 
L 297.883902 238.414697 
L 298.10356 237.937562 
L 298.323218 238.048026 
L 298.542876 238.874017 
L 298.762534 238.725546 
L 298.982192 238.092077 
L 299.20185 237.986159 
L 299.641166 238.95203 
L 300.080482 239.620064 
L 300.519798 239.740323 
L 300.739456 239.493832 
L 300.959114 240.061926 
L 301.178772 240.258532 
L 301.618088 240.98744 
L 301.837746 240.900561 
L 302.057404 240.649014 
L 302.49672 241.283846 
L 302.936036 241.216165 
L 303.375352 241.711853 
L 303.814668 241.732438 
L 304.034326 242.159386 
L 304.253984 241.85031 
L 304.473643 241.9537 
L 304.693301 242.472997 
L 304.912959 242.454472 
L 305.352275 241.513476 
L 305.571933 241.901923 
L 305.791591 241.510386 
L 306.011249 241.803274 
L 306.230907 242.425201 
L 306.450565 241.732995 
L 306.889881 242.254823 
L 307.109539 243.178337 
L 307.329197 242.572293 
L 307.548855 242.621001 
L 307.768513 242.005784 
L 307.988171 242.513462 
L 308.427487 242.077094 
L 308.647145 243.010086 
L 308.866803 243.301702 
L 309.086461 243.935705 
L 309.306119 243.206651 
L 309.965093 244.513413 
L 310.184751 244.692781 
L 310.843725 246.391349 
L 311.063383 246.191122 
L 311.283041 246.161767 
L 311.502699 246.598762 
L 311.722357 246.440022 
L 311.942015 246.439295 
L 312.161673 246.838878 
L 312.381331 246.894115 
L 313.040305 245.817856 
L 313.479621 246.566715 
L 313.699279 245.954969 
L 313.918937 246.266288 
L 314.138595 247.043652 
L 314.358253 247.250536 
L 314.577911 247.666692 
L 314.797569 248.544181 
L 315.017227 248.703776 
L 315.676201 248.213404 
L 315.895859 248.651963 
L 316.115517 248.749306 
L 316.335175 248.697417 
L 316.554833 249.254244 
L 316.994149 249.123514 
L 317.433465 248.908111 
L 317.653123 248.976884 
L 317.872781 249.495842 
L 318.092439 249.397234 
L 318.312097 250.056106 
L 318.971071 250.596115 
L 319.190729 250.757085 
L 319.410388 250.666644 
L 319.849704 251.677512 
L 320.069362 252.136993 
L 320.508678 251.999787 
L 320.728336 252.543307 
L 321.38731 253.047509 
L 321.606968 252.90956 
L 321.826626 253.425832 
L 322.046284 253.568787 
L 322.4856 254.457608 
L 322.705258 254.724274 
L 322.924916 254.576176 
L 323.144574 254.667035 
L 323.58389 254.492295 
L 324.023206 254.820291 
L 324.242864 255.26926 
L 324.462522 254.665832 
L 325.121496 254.961204 
L 325.341154 255.22 
L 325.78047 255.157268 
L 326.439444 256.365411 
L 326.659102 256.531486 
L 326.87876 255.747148 
L 327.098418 256.193611 
L 327.537734 255.752428 
L 327.757392 256.066147 
L 328.416366 255.924684 
L 328.636024 255.627294 
L 329.07534 255.764822 
L 329.294998 256.239484 
L 329.734314 256.159985 
L 330.17363 257.657309 
L 330.393288 257.796754 
L 330.612946 257.794539 
L 330.832604 257.566518 
L 331.491578 258.111566 
L 331.711236 258.93706 
L 331.930894 258.724056 
L 332.150552 259.279086 
L 332.589868 259.376336 
L 332.809526 259.284769 
L 333.029184 260.033856 
L 333.688158 260.737128 
L 333.907816 260.661941 
L 334.127474 261.440476 
L 334.347132 261.079834 
L 334.566791 261.088772 
L 334.786449 260.691069 
L 335.006107 260.633544 
L 335.665081 261.45434 
L 335.884739 261.191054 
L 336.104397 262.570157 
L 336.324055 262.880558 
L 336.543713 262.756603 
L 336.983029 263.134247 
L 337.202687 263.11945 
L 337.642003 263.475372 
L 337.861661 263.974412 
L 338.300977 264.119677 
L 338.520635 263.818099 
L 338.740293 263.893153 
L 338.959951 264.43786 
L 339.399267 264.621779 
L 339.618925 264.446768 
L 339.838583 264.427516 
L 340.058241 264.559028 
L 340.277899 264.964924 
L 340.497557 264.903831 
L 340.936873 265.580659 
L 341.156531 265.588083 
L 341.376189 265.180047 
L 341.595847 265.164111 
L 341.815505 265.023292 
L 342.035163 265.201892 
L 342.254821 265.648735 
L 342.474479 265.419576 
L 342.694137 265.744246 
L 343.133453 265.541357 
L 343.353111 265.94417 
L 344.012085 266.498346 
L 344.231743 266.325949 
L 344.451401 266.722021 
L 344.671059 266.595839 
L 345.549691 267.598587 
L 345.769349 267.618798 
L 346.208665 267.299954 
L 346.647981 268.078569 
L 347.526613 268.790061 
L 347.746271 268.675461 
L 348.405245 269.576318 
L 348.844561 269.567527 
L 349.064219 270.094264 
L 349.503535 270.004015 
L 350.382168 271.04953 
L 350.601826 270.880338 
L 350.821484 270.98513 
L 351.041142 270.597463 
L 352.139432 270.998689 
L 352.35909 270.918621 
L 352.578748 271.040058 
L 352.798406 271.369683 
L 353.018064 271.325707 
L 353.237722 271.031184 
L 353.45738 271.184443 
L 353.677038 270.925734 
L 353.896696 270.844378 
L 354.116354 271.02618 
L 354.336012 271.550601 
L 354.55567 271.491442 
L 354.775328 271.993578 
L 354.994986 271.766315 
L 355.214644 272.129204 
L 355.434302 272.260665 
L 355.65396 271.946893 
L 356.312934 272.304436 
L 356.532592 272.234864 
L 357.191566 273.351409 
L 357.411224 273.52765 
L 357.630882 273.424095 
L 358.509514 273.926615 
L 358.729172 273.858635 
L 359.168488 274.428533 
L 360.486436 275.421724 
L 360.706094 275.207407 
L 360.925752 275.297275 
L 361.365068 276.16986 
L 361.584726 276.33412 
L 361.804384 276.254542 
L 362.024042 276.394515 
L 362.2437 276.321398 
L 362.463358 276.894664 
L 363.122332 277.358833 
L 363.34199 277.369686 
L 363.781306 277.786844 
L 364.000964 277.672522 
L 364.44028 278.129838 
L 364.659938 278.015087 
L 364.879597 278.123219 
L 365.099255 277.857819 
L 365.318913 277.858053 
L 365.977887 278.537357 
L 366.197545 278.42452 
L 366.636861 279.344468 
L 367.076177 279.683741 
L 367.295835 279.48066 
L 367.735151 279.761004 
L 368.174467 280.174948 
L 368.394125 280.405551 
L 368.613783 280.853697 
L 369.931731 281.016 
L 370.151389 281.374144 
L 370.810363 281.89767 
L 371.249679 282.383791 
L 371.688995 282.336911 
L 371.908653 282.492953 
L 372.787285 284.122798 
L 373.006943 284.466638 
L 373.226601 284.559064 
L 373.446259 284.859201 
L 373.665917 284.631179 
L 373.885575 284.777227 
L 374.105233 284.768386 
L 374.544549 285.104369 
L 374.764207 284.86461 
L 375.203523 285.433584 
L 375.423181 285.567255 
L 375.642839 285.417531 
L 375.862497 285.649656 
L 376.082155 285.681225 
L 376.301813 286.107616 
L 376.521471 286.02275 
L 376.741129 286.060273 
L 377.180445 286.349852 
L 377.400103 286.721751 
L 377.619761 286.433613 
L 378.278735 286.222676 
L 378.498393 286.430205 
L 378.718051 286.433436 
L 378.937709 286.750658 
L 379.157367 286.457155 
L 379.596683 286.920546 
L 379.816341 287.287725 
L 380.255658 287.371006 
L 380.475316 287.534636 
L 381.13429 287.177876 
L 381.353948 287.287093 
L 381.573606 287.53363 
L 381.793264 287.42532 
L 382.012922 287.536188 
L 382.23258 287.865434 
L 382.452238 287.618614 
L 382.671896 287.73191 
L 382.891554 287.707219 
L 383.33087 287.170809 
L 383.770186 287.434292 
L 383.989844 287.258733 
L 384.42916 287.680989 
L 384.648818 287.691265 
L 384.868476 287.831751 
L 385.088134 287.607605 
L 385.307792 287.946801 
L 385.52745 287.911758 
L 385.747108 288.198252 
L 385.966766 288.25324 
L 386.406082 288.600927 
L 386.845398 288.382383 
L 387.065056 288.67451 
L 387.284714 288.693921 
L 387.504372 288.307496 
L 387.72403 288.326732 
L 387.943688 288.119898 
L 388.383004 288.393561 
L 388.82232 288.084105 
L 389.041978 288.12065 
L 390.359926 289.899474 
L 391.0189 289.82762 
L 391.238558 290.290965 
L 391.458216 290.414451 
L 391.677874 291.003137 
L 392.336848 291.342602 
L 392.556506 291.648368 
L 392.776164 291.696079 
L 393.21548 292.022213 
L 393.874454 292.166624 
L 394.31377 292.699849 
L 394.972744 292.659782 
L 395.412061 293.225705 
L 395.631719 293.29488 
L 395.851377 293.590827 
L 396.290693 294.327199 
L 396.730009 294.696805 
L 396.949667 295.010377 
L 397.169325 294.741066 
L 397.388983 295.03533 
L 397.828299 295.13817 
L 398.267615 295.365117 
L 398.487273 295.488 
L 398.487273 295.488 
" clip-path="url(#pb13fb407b9)" style="fill: none; stroke: #1f77b4; stroke-opacity: 0.7; stroke-width: 1.5; stroke-linecap: square"/>
   </g>
   <g id="line2d_15">
    <path d="M 73.832727 171.770259 
L 74.491701 172.011739 
L 74.931017 172.125719 
L 75.150675 172.445646 
L 75.370333 172.544001 
L 76.029307 171.835076 
L 76.248965 171.867576 
L 76.468623 172.021116 
L 77.127597 171.982784 
L 77.347256 172.209284 
L 77.566914 172.19082 
L 78.00623 171.922532 
L 78.884862 171.549053 
L 79.10452 171.44919 
L 79.543836 170.733685 
L 79.763494 171.006298 
L 79.983152 170.691763 
L 80.20281 170.670531 
L 80.422468 170.901232 
L 80.642126 170.726407 
L 81.081442 171.067836 
L 81.3011 171.246148 
L 81.520758 170.995147 
L 81.740416 171.094795 
L 81.960074 171.345196 
L 82.179732 171.27741 
L 82.39939 171.399366 
L 83.49768 171.154774 
L 84.156654 170.754002 
L 85.254944 170.497062 
L 85.69426 170.26145 
L 86.133576 170.471544 
L 86.572892 170.57439 
L 87.012208 170.62511 
L 88.549814 170.237837 
L 88.769472 170.270813 
L 89.428446 169.890223 
L 89.648104 170.07614 
L 89.867762 169.901601 
L 90.08742 170.04144 
L 90.746394 170.036868 
L 91.18571 169.900445 
L 92.942975 169.687042 
L 93.601949 169.270018 
L 94.260923 169.243259 
L 95.139555 169.264416 
L 95.798529 169.386003 
L 96.018187 169.203789 
L 96.237845 169.283727 
L 96.896819 169.147845 
L 97.116477 169.140199 
L 97.555793 168.998611 
L 97.995109 169.040984 
L 98.214767 169.122709 
L 98.873741 168.758349 
L 99.313057 168.795133 
L 100.191689 168.795903 
L 101.070321 168.45287 
L 101.289979 168.478631 
L 101.509637 168.302154 
L 101.729295 168.399565 
L 103.047243 168.309739 
L 103.266901 168.3811 
L 104.145533 168.141621 
L 105.683139 167.841905 
L 106.122455 167.836421 
L 106.342113 167.707067 
L 107.001087 167.818077 
L 108.099378 167.474741 
L 109.197668 167.327214 
L 109.636984 167.189476 
L 109.856642 167.180531 
L 110.295958 166.357559 
L 110.515616 166.537275 
L 110.735274 166.442812 
L 110.954932 166.731941 
L 111.17459 166.663649 
L 111.394248 166.447575 
L 111.833564 166.301247 
L 112.053222 166.18674 
L 112.27288 165.765494 
L 112.492538 166.077228 
L 112.931854 165.697488 
L 113.151512 165.948914 
L 114.249802 166.186589 
L 114.46946 166.467246 
L 114.908776 166.0855 
L 115.128434 165.735475 
L 115.348092 165.732822 
L 115.56775 165.504611 
L 116.007066 165.480824 
L 116.446382 164.898086 
L 117.325014 164.889678 
L 117.544672 165.217771 
L 117.76433 165.102815 
L 118.203646 165.155421 
L 118.423304 164.540544 
L 118.642962 164.536025 
L 118.86262 164.154551 
L 119.741252 164.280732 
L 120.619884 163.492614 
L 120.839542 163.327839 
L 121.278858 162.57686 
L 121.498516 163.126405 
L 122.15749 163.137624 
L 122.377148 163.102571 
L 122.596806 162.696391 
L 122.816465 163.072277 
L 123.914755 162.820096 
L 124.134413 162.644332 
L 124.354071 162.641569 
L 124.573729 162.458157 
L 125.013045 162.675921 
L 125.232703 162.335418 
L 126.111335 161.988611 
L 126.330993 161.857487 
L 126.550651 161.883673 
L 127.209625 161.475717 
L 127.429283 161.561068 
L 128.307915 160.945074 
L 128.527573 161.064355 
L 128.966889 160.865629 
L 129.186547 160.900036 
L 129.845521 160.494239 
L 130.065179 160.569319 
L 130.943811 160.165259 
L 131.163469 160.175817 
L 132.261759 159.347927 
L 132.481417 159.455013 
L 133.140391 159.197743 
L 133.579707 159.206729 
L 134.019023 158.978364 
L 134.238681 159.086582 
L 134.458339 158.633073 
L 135.556629 158.282533 
L 135.776287 158.336157 
L 135.995945 158.186602 
L 136.435261 158.221688 
L 136.874577 158.158696 
L 137.313893 157.895782 
L 139.290816 157.588418 
L 140.169448 157.14377 
L 140.608764 156.84564 
L 140.828422 156.881565 
L 141.04808 156.715708 
L 141.267738 156.346747 
L 141.926712 156.106209 
L 142.14637 155.645519 
L 142.805344 155.756386 
L 143.24466 155.452797 
L 143.464318 155.523098 
L 143.683976 155.38708 
L 143.903634 155.098907 
L 144.34295 154.96245 
L 144.562608 154.789345 
L 144.782266 154.848744 
L 145.001924 154.438758 
L 145.221582 154.48769 
L 145.44124 154.874773 
L 146.100214 155.014756 
L 146.319872 155.11497 
L 146.759188 154.895806 
L 146.978846 154.929711 
L 147.418162 154.768102 
L 147.63782 154.844091 
L 148.516452 154.545343 
L 148.955768 154.243526 
L 149.8344 154.236256 
L 150.054058 154.234473 
L 150.713032 153.870936 
L 151.372006 153.907677 
L 152.470296 153.574942 
L 153.129271 153.722945 
L 153.348929 153.570954 
L 153.568587 153.625629 
L 154.447219 153.133729 
L 154.666877 153.030165 
L 154.886535 152.54529 
L 155.106193 152.693818 
L 155.325851 152.551122 
L 155.545509 152.849953 
L 155.984825 152.481438 
L 156.204483 152.624608 
L 156.424141 152.084873 
L 156.643799 152.073438 
L 157.083115 152.400021 
L 157.302773 152.18711 
L 157.522431 152.222092 
L 157.742089 152.069288 
L 157.961747 151.545183 
L 158.181405 151.727294 
L 158.401063 151.538619 
L 158.620721 151.745247 
L 158.840379 151.797863 
L 159.279695 151.510768 
L 159.719011 151.652829 
L 160.158327 151.450229 
L 160.597643 151.497831 
L 161.036959 151.386787 
L 162.354907 150.969392 
L 162.574565 150.778265 
L 162.794223 150.808523 
L 163.233539 150.571703 
L 163.453197 150.652344 
L 163.892513 150.130039 
L 164.331829 150.319666 
L 164.771145 149.894787 
L 164.990803 150.066608 
L 166.308751 149.798111 
L 166.528409 149.553602 
L 166.748067 149.55011 
L 167.187383 149.393271 
L 167.626699 149.41298 
L 167.846357 149.477079 
L 168.505332 149.377417 
L 168.72499 149.537835 
L 169.164306 149.442644 
L 170.042938 149.402729 
L 171.141228 149.288581 
L 172.01986 149.081751 
L 172.459176 149.145145 
L 172.678834 149.154611 
L 173.11815 148.856383 
L 173.337808 148.722015 
L 173.996782 148.919869 
L 174.436098 148.765899 
L 176.193362 148.787746 
L 176.852336 148.699172 
L 177.730968 148.614877 
L 177.950626 148.41091 
L 178.170284 148.470074 
L 178.389942 148.412353 
L 178.829258 148.568792 
L 179.048916 148.456898 
L 179.268574 148.563105 
L 179.70789 148.474597 
L 179.927548 148.673388 
L 180.147206 148.701506 
L 180.586522 148.489002 
L 180.80618 148.471308 
L 181.465154 148.17175 
L 181.90447 148.091915 
L 182.124128 147.729588 
L 182.343786 147.771379 
L 182.783102 148.007811 
L 183.00276 148.000551 
L 183.222419 147.81351 
L 183.442077 147.851873 
L 184.101051 147.709687 
L 184.320709 147.712606 
L 184.540367 147.553137 
L 184.760025 147.613167 
L 185.199341 147.254193 
L 185.638657 146.077128 
L 185.858315 145.936405 
L 186.077973 145.163122 
L 186.297631 145.021625 
L 186.517289 145.700353 
L 186.736947 145.180538 
L 186.956605 145.797361 
L 187.395921 144.867093 
L 187.615579 143.624878 
L 187.835237 144.272311 
L 188.054895 143.417926 
L 188.274553 142.043363 
L 188.494211 143.137154 
L 188.713869 141.317387 
L 188.933527 142.73494 
L 189.372843 143.136552 
L 189.812159 142.601097 
L 190.031817 143.524778 
L 190.251475 143.512913 
L 190.471133 144.264779 
L 190.690791 144.088926 
L 190.910449 144.3466 
L 191.130107 144.035919 
L 191.349765 143.403395 
L 191.569423 143.743571 
L 191.789081 143.45409 
L 192.008739 144.288875 
L 192.228397 143.929013 
L 192.448055 144.424065 
L 192.667713 144.355747 
L 192.887371 143.937911 
L 193.107029 143.934406 
L 193.326687 143.262287 
L 193.546345 142.998384 
L 193.766003 143.462246 
L 194.205319 142.033958 
L 194.424977 142.416611 
L 194.644635 142.084358 
L 194.864293 142.19015 
L 195.083951 142.165171 
L 195.303609 141.849602 
L 195.523267 142.069991 
L 196.182241 140.544555 
L 196.401899 140.488151 
L 196.621557 140.142635 
L 197.280531 140.025152 
L 197.719847 139.106857 
L 197.939505 139.133895 
L 198.159163 139.038348 
L 198.378822 139.272298 
L 198.59848 138.792356 
L 198.818138 138.759968 
L 199.257454 138.304081 
L 199.69677 138.50345 
L 200.355744 138.10049 
L 201.014718 138.09376 
L 201.234376 138.46912 
L 201.454034 138.418391 
L 201.89335 137.868353 
L 202.113008 136.865091 
L 202.332666 136.789075 
L 202.771982 137.158683 
L 203.430956 136.190165 
L 203.870272 135.890875 
L 204.08993 135.299271 
L 204.309588 135.434754 
L 204.529246 135.256716 
L 204.968562 135.380513 
L 205.407878 134.970418 
L 205.627536 135.264296 
L 205.847194 134.752948 
L 206.066852 134.747417 
L 206.28651 134.342045 
L 206.506168 134.316969 
L 206.725826 133.957851 
L 206.945484 134.160889 
L 207.165142 134.161982 
L 207.604458 133.898657 
L 207.824116 134.008368 
L 208.263432 133.972414 
L 208.702748 133.435754 
L 208.922406 133.411655 
L 209.142064 133.207105 
L 209.361722 133.308414 
L 209.801038 133.169659 
L 211.118986 133.054734 
L 211.338644 132.798897 
L 211.558302 133.073366 
L 212.217276 132.793609 
L 212.87625 132.607374 
L 213.754883 132.781828 
L 214.413857 132.508515 
L 214.853173 132.708568 
L 215.072831 131.954886 
L 215.512147 131.268589 
L 215.731805 131.602333 
L 215.951463 131.144782 
L 216.171121 131.01774 
L 216.390779 131.245234 
L 216.610437 131.240493 
L 217.489069 130.315283 
L 217.708727 130.463119 
L 217.928385 130.013552 
L 218.148043 130.028636 
L 218.587359 130.337573 
L 218.807017 130.13756 
L 219.246333 130.100039 
L 219.465991 129.763584 
L 219.685649 130.023414 
L 219.905307 129.527204 
L 220.124965 129.658916 
L 220.564281 129.701605 
L 220.783939 129.90782 
L 221.442913 129.172084 
L 221.662571 129.159627 
L 221.882229 128.777872 
L 222.321545 128.829608 
L 222.760861 128.730049 
L 222.980519 128.234509 
L 223.200177 128.182938 
L 223.419835 127.459807 
L 223.639493 127.655547 
L 223.859151 127.332395 
L 224.737783 128.155394 
L 224.957441 127.927664 
L 225.177099 127.987796 
L 225.396757 127.762343 
L 225.616415 128.014586 
L 225.836073 127.700581 
L 226.495047 127.961042 
L 226.714705 127.560653 
L 226.934363 127.565802 
L 227.154021 127.421271 
L 227.373679 127.474288 
L 227.593337 127.670425 
L 228.252311 127.401075 
L 228.471969 127.48693 
L 228.911286 127.393217 
L 229.130944 127.561724 
L 229.350602 127.397174 
L 229.57026 127.473216 
L 230.009576 127.260097 
L 230.229234 127.279528 
L 230.448892 127.126508 
L 230.66855 127.275693 
L 230.888208 127.223232 
L 231.107866 127.321471 
L 231.327524 127.237978 
L 231.76684 126.88085 
L 233.084788 126.736161 
L 233.304446 126.321208 
L 234.183078 126.376761 
L 234.622394 125.932194 
L 235.06171 125.73126 
L 235.281368 125.438871 
L 235.501026 125.47551 
L 235.720684 125.634305 
L 236.599316 125.245045 
L 236.818974 124.719045 
L 237.038632 124.92027 
L 237.25829 124.485787 
L 237.697606 125.146453 
L 237.917264 124.974157 
L 238.136922 125.043615 
L 238.35658 124.897659 
L 238.576238 124.903753 
L 239.015554 124.635265 
L 239.45487 124.473944 
L 239.894186 124.39344 
L 240.55316 123.775513 
L 240.772818 123.831791 
L 240.992476 124.008071 
L 241.212134 123.435782 
L 241.431792 123.380357 
L 241.65145 123.774204 
L 242.310424 122.655335 
L 242.530082 122.998079 
L 242.74974 122.712679 
L 242.969398 122.870275 
L 243.189056 122.796349 
L 243.408714 122.96883 
L 243.628372 122.788015 
L 244.287347 122.715809 
L 244.507005 122.391612 
L 244.946321 122.439678 
L 245.385637 122.012224 
L 245.605295 122.095558 
L 245.824953 122.511942 
L 246.483927 122.166852 
L 246.923243 122.626584 
L 247.142901 122.491115 
L 247.801875 122.59622 
L 248.460849 122.309246 
L 248.680507 122.447628 
L 248.900165 122.407008 
L 249.339481 121.988084 
L 249.559139 122.161894 
L 249.778797 121.850705 
L 249.998455 121.908248 
L 250.657429 121.767479 
L 250.877087 121.857916 
L 251.096745 121.617461 
L 252.195035 121.443143 
L 252.854009 120.404608 
L 253.293325 120.800866 
L 253.952299 119.987915 
L 254.171957 120.04681 
L 254.391615 119.860768 
L 254.611273 119.90775 
L 254.830931 119.765988 
L 255.489905 119.726256 
L 255.709563 119.608276 
L 255.929221 119.64896 
L 256.148879 119.461821 
L 256.368537 119.613399 
L 256.588195 119.487633 
L 257.247169 119.486929 
L 257.906143 119.327023 
L 258.125801 119.146263 
L 258.345459 119.146321 
L 258.565117 118.782108 
L 258.784775 118.971068 
L 259.224092 118.864418 
L 259.663408 119.012629 
L 259.883066 119.106496 
L 260.322382 118.912083 
L 260.761698 118.988123 
L 260.981356 118.830892 
L 261.201014 118.91997 
L 261.420672 118.696353 
L 261.64033 118.839397 
L 261.859988 118.830483 
L 262.079646 118.651743 
L 262.299304 118.643629 
L 262.73862 118.242621 
L 262.958278 117.816759 
L 263.397594 118.25135 
L 263.617252 118.209553 
L 263.83691 118.386128 
L 264.276226 118.104627 
L 265.154858 117.775438 
L 265.374516 117.91642 
L 265.594174 117.702236 
L 265.813832 117.771464 
L 266.03349 117.703172 
L 266.472806 117.730669 
L 267.571096 117.527477 
L 267.790754 117.258137 
L 268.010412 117.201373 
L 268.449728 117.349908 
L 269.108702 116.910331 
L 269.32836 117.059591 
L 269.767676 116.92599 
L 271.085624 116.561378 
L 271.305282 116.359381 
L 271.52494 116.343673 
L 271.744598 116.078715 
L 271.964256 116.223004 
L 272.183914 116.091173 
L 272.403572 115.775643 
L 272.62323 115.239405 
L 272.842888 115.167391 
L 273.282204 115.578003 
L 273.72152 115.352151 
L 273.941178 114.72589 
L 274.160837 114.74361 
L 274.380495 114.304836 
L 274.600153 114.436035 
L 274.819811 114.14175 
L 275.039469 114.197902 
L 275.698443 113.922991 
L 276.137759 113.459053 
L 276.577075 114.051567 
L 277.675365 113.888807 
L 277.895023 113.736517 
L 278.114681 113.794468 
L 278.334339 113.706642 
L 278.553997 113.477935 
L 278.773655 113.635851 
L 278.993313 113.507836 
L 279.432629 113.48101 
L 280.091603 113.290197 
L 280.530919 112.952265 
L 280.750577 112.653917 
L 281.629209 112.719927 
L 281.848867 112.495841 
L 282.288183 112.398498 
L 282.507841 112.204418 
L 282.947157 112.185733 
L 283.166815 111.557674 
L 283.386473 111.749507 
L 283.825789 110.778963 
L 284.045447 111.056391 
L 284.265105 110.745471 
L 284.484763 110.940507 
L 284.704421 111.3206 
L 284.924079 111.239097 
L 285.143737 110.953957 
L 285.363395 111.214132 
L 285.802711 110.54455 
L 286.022369 110.869632 
L 286.461685 110.198352 
L 286.681343 109.987889 
L 287.120659 110.490841 
L 287.559975 110.875184 
L 288.438607 110.208487 
L 288.658265 110.245747 
L 288.877923 110.0152 
L 289.097581 109.51425 
L 289.756556 109.27932 
L 289.976214 109.438854 
L 290.195872 109.353254 
L 290.41553 108.794486 
L 290.635188 108.839207 
L 290.854846 108.388703 
L 291.074504 108.219325 
L 291.51382 107.42843 
L 291.733478 107.380179 
L 292.392452 106.556964 
L 292.831768 107.258242 
L 293.271084 107.439694 
L 293.490742 106.625689 
L 293.7104 106.636111 
L 293.930058 106.329533 
L 294.149716 106.350204 
L 294.369374 106.553451 
L 294.589032 105.936314 
L 295.028348 105.399623 
L 295.248006 105.843983 
L 295.467664 105.766911 
L 296.126638 104.814588 
L 296.346296 104.289642 
L 296.565954 104.390742 
L 296.785612 104.822358 
L 297.00527 104.733559 
L 297.224928 104.153606 
L 297.444586 104.302012 
L 297.883902 103.663816 
L 298.10356 102.77187 
L 298.323218 102.527787 
L 298.542876 103.259779 
L 298.762534 103.09087 
L 299.20185 102.255551 
L 299.641166 102.88665 
L 300.080482 102.919461 
L 300.30014 102.671063 
L 300.519798 102.816654 
L 300.739456 102.272211 
L 300.959114 102.642823 
L 301.178772 102.713897 
L 301.39843 102.668065 
L 301.618088 102.959749 
L 302.277062 102.022802 
L 302.49672 102.138873 
L 302.716378 101.611272 
L 303.375352 101.062624 
L 303.59501 100.496003 
L 303.814668 100.257816 
L 304.034326 100.467225 
L 304.253984 100.12215 
L 304.473643 100.031865 
L 304.693301 100.41881 
L 304.912959 100.232117 
L 305.352275 99.023025 
L 305.571933 99.049227 
L 305.791591 98.449277 
L 306.011249 98.395098 
L 306.230907 98.769586 
L 306.450565 97.746885 
L 306.670223 97.61329 
L 306.889881 97.656852 
L 307.109539 98.06314 
L 307.329197 97.020999 
L 307.548855 96.945516 
L 307.768513 96.022817 
L 307.988171 95.885661 
L 308.207829 95.314601 
L 308.427487 95.175993 
L 308.647145 95.556975 
L 308.866803 95.291865 
L 309.086461 95.456734 
L 309.306119 94.668135 
L 309.745435 94.134913 
L 309.965093 94.325682 
L 310.184751 94.155176 
L 310.404409 94.21571 
L 310.843725 94.901127 
L 311.283041 94.18393 
L 311.502699 94.404298 
L 311.722357 93.796477 
L 311.942015 93.730392 
L 312.161673 94.09921 
L 312.381331 93.74431 
L 313.040305 91.387859 
L 313.259963 91.121532 
L 313.479621 91.328385 
L 313.699279 90.523173 
L 313.918937 90.415732 
L 314.138595 90.834378 
L 314.358253 90.642175 
L 314.577911 90.732474 
L 314.797569 91.127452 
L 315.017227 90.958398 
L 315.236885 90.466233 
L 315.456543 90.338812 
L 315.676201 89.973221 
L 316.115517 89.967902 
L 316.335175 89.891654 
L 316.554833 90.072462 
L 316.774491 89.942347 
L 317.433465 89.010087 
L 317.653123 88.988762 
L 317.872781 89.224837 
L 318.092439 88.942438 
L 318.312097 89.415313 
L 318.751413 89.496347 
L 319.410388 88.635516 
L 319.630046 89.124158 
L 319.849704 89.158491 
L 320.069362 89.358281 
L 320.508678 89.067191 
L 320.728336 89.121639 
L 321.606968 88.226711 
L 321.826626 88.730033 
L 322.046284 88.475874 
L 322.265942 88.684 
L 323.144574 87.856554 
L 323.58389 86.693753 
L 324.242864 86.453039 
L 324.462522 85.432612 
L 325.121496 84.424324 
L 325.341154 84.551789 
L 325.78047 84.121101 
L 326.000128 84.443496 
L 326.219786 84.312009 
L 326.659102 84.71273 
L 326.87876 83.578951 
L 327.098418 83.752041 
L 327.318076 83.3743 
L 327.757392 83.761999 
L 327.97705 83.360387 
L 328.416366 83.20002 
L 328.855682 82.586889 
L 329.07534 82.623849 
L 329.294998 83.03494 
L 329.734314 82.214267 
L 330.17363 82.81066 
L 330.612946 82.155567 
L 330.832604 81.39536 
L 331.052262 81.1295 
L 331.27192 81.133922 
L 331.491578 80.904009 
L 331.711236 81.2651 
L 331.930894 80.874671 
L 332.150552 81.564858 
L 332.37021 81.844709 
L 332.809526 81.138781 
L 333.029184 81.37528 
L 333.4685 81.455077 
L 333.907816 80.842781 
L 334.127474 81.189087 
L 335.006107 79.394154 
L 335.665081 79.58042 
L 335.884739 79.047304 
L 336.104397 80.1432 
L 336.763371 79.566517 
L 337.202687 78.611017 
L 337.642003 78.655994 
L 337.861661 78.587807 
L 338.300977 77.896898 
L 338.740293 77.117759 
L 338.959951 77.794855 
L 339.838583 75.842708 
L 340.497557 75.531638 
L 340.717215 75.715259 
L 341.156531 75.580165 
L 341.376189 74.983039 
L 342.035163 74.567271 
L 342.254821 74.745818 
L 342.474479 74.282316 
L 342.913795 74.066665 
L 343.133453 73.564158 
L 343.353111 73.819293 
L 343.572769 73.77081 
L 343.792427 73.422935 
L 344.012085 73.286176 
L 344.231743 73.002294 
L 344.451401 73.437341 
L 344.890717 73.298416 
L 345.110375 73.316174 
L 345.330033 73.052021 
L 345.769349 73.005276 
L 346.208665 72.424399 
L 346.428323 72.742999 
L 346.647981 72.832845 
L 346.867639 72.612846 
L 347.526613 72.520457 
L 347.746271 72.13877 
L 347.965929 72.377591 
L 348.185587 72.373783 
L 348.405245 72.515857 
L 348.844561 71.727687 
L 349.064219 72.06388 
L 349.503535 71.47328 
L 349.723194 71.44587 
L 349.942852 71.591757 
L 350.16251 71.352422 
L 350.382168 71.315274 
L 350.601826 71.038178 
L 350.821484 71.008261 
L 351.041142 70.576361 
L 351.2608 70.453456 
L 351.480458 70.588472 
L 351.700116 70.245467 
L 352.139432 70.234693 
L 352.35909 69.984445 
L 352.578748 70.096342 
L 352.798406 70.461875 
L 353.018064 70.383258 
L 353.237722 69.961412 
L 353.45738 69.83924 
L 353.896696 69.101205 
L 354.116354 69.039952 
L 354.336012 69.262623 
L 354.55567 68.952474 
L 354.775328 69.298719 
L 354.994986 68.823666 
L 355.434302 69.168568 
L 355.65396 68.675423 
L 355.873618 68.561893 
L 356.093276 68.597478 
L 356.312934 68.463852 
L 356.532592 68.494657 
L 356.75225 68.7491 
L 356.971908 68.76945 
L 357.191566 68.987308 
L 357.411224 68.873827 
L 357.630882 68.584836 
L 358.509514 68.199819 
L 358.729172 67.983448 
L 358.94883 68.17112 
L 360.266778 67.523812 
L 360.486436 67.47797 
L 360.706094 67.086005 
L 360.925752 66.978176 
L 361.14541 67.370744 
L 361.584726 67.21802 
L 362.024042 66.701844 
L 362.2437 66.432137 
L 362.463358 66.717846 
L 362.902674 66.500882 
L 363.122332 66.457485 
L 363.561648 66.201509 
L 363.781306 66.169135 
L 364.000964 65.834584 
L 364.44028 66.269431 
L 365.318913 65.378332 
L 365.758229 65.713885 
L 366.417203 65.389358 
L 366.636861 65.478965 
L 367.295835 64.979177 
L 368.394125 65.005602 
L 368.613783 65.197103 
L 369.272757 64.581507 
L 369.492415 64.610262 
L 369.712073 64.361371 
L 369.931731 64.318252 
L 370.151389 64.447161 
L 370.371047 64.262041 
L 370.590705 64.275461 
L 370.810363 64.494952 
L 371.908653 63.916384 
L 372.347969 63.99788 
L 372.567627 64.113326 
L 372.787285 63.958602 
L 373.446259 64.004286 
L 373.885575 63.67408 
L 374.544549 63.622193 
L 374.764207 63.430988 
L 374.983865 63.678825 
L 375.203523 63.689031 
L 375.423181 63.529372 
L 375.642839 63.152562 
L 376.082155 62.816818 
L 376.301813 62.993515 
L 376.741129 62.456889 
L 377.400103 62.52319 
L 377.619761 62.118942 
L 377.839419 61.99314 
L 378.278735 61.603248 
L 378.498393 61.648196 
L 378.718051 61.462381 
L 378.937709 61.600936 
L 379.157367 61.145134 
L 379.596683 61.248333 
L 379.816341 61.490809 
L 380.475316 61.114337 
L 381.13429 60.570986 
L 381.353948 60.506452 
L 381.573606 60.608889 
L 381.793264 60.4665 
L 382.012922 60.476413 
L 382.23258 60.618606 
L 382.452238 60.310214 
L 382.671896 60.319899 
L 382.891554 60.214992 
L 383.550528 59.273885 
L 383.770186 59.247618 
L 383.989844 58.845719 
L 384.209502 58.686023 
L 384.42916 58.746776 
L 384.868476 58.693357 
L 385.088134 58.227192 
L 385.307792 58.285272 
L 385.52745 58.151 
L 385.747108 58.578878 
L 386.406082 58.521932 
L 386.845398 57.983997 
L 387.065056 58.096557 
L 387.284714 57.922703 
L 387.943688 56.946256 
L 388.163346 56.838287 
L 388.383004 56.898206 
L 388.82232 56.173056 
L 389.041978 56.002109 
L 389.481294 56.08531 
L 389.700952 56.085365 
L 390.140268 56.354476 
L 391.0189 55.491323 
L 391.238558 55.704924 
L 391.458216 55.473015 
L 391.677874 55.785848 
L 392.11719 55.476585 
L 392.776164 55.149312 
L 392.995822 55.215171 
L 393.435138 54.924559 
L 394.31377 54.703356 
L 394.533428 54.486868 
L 394.753086 54.43393 
L 394.972744 54.169478 
L 395.412061 54.26346 
L 395.851377 54.235698 
L 396.071035 54.400124 
L 396.949667 54.183402 
L 397.169325 53.568 
L 397.388983 53.708675 
L 397.608641 53.687436 
L 398.047957 53.944706 
L 398.487273 53.691924 
L 398.487273 53.691924 
" clip-path="url(#pb13fb407b9)" style="fill: none; stroke: #ff7f0e; stroke-opacity: 0.7; stroke-width: 1.5; stroke-linecap: square"/>
   </g>
   <g id="line2d_16">
    <path d="M 73.832727 171.647909 
L 74.272043 171.815917 
L 75.150675 172.149537 
L 75.370333 172.338606 
L 75.809649 171.925219 
L 76.029307 171.791417 
L 76.248965 171.860594 
L 76.468623 172.071948 
L 77.127597 172.185229 
L 77.347256 172.423134 
L 77.566914 172.426055 
L 78.00623 172.2301 
L 78.445546 172.317432 
L 78.665204 172.094338 
L 79.10452 172.083867 
L 79.543836 171.454982 
L 79.763494 171.830752 
L 79.983152 171.620212 
L 80.20281 171.678704 
L 80.422468 171.953498 
L 80.642126 171.709029 
L 81.3011 172.259858 
L 81.520758 171.959992 
L 83.058364 172.496558 
L 84.376312 171.94546 
L 84.815628 172.081463 
L 85.035286 171.97547 
L 85.254944 172.008711 
L 85.69426 171.879816 
L 85.913918 172.047966 
L 86.572892 172.16443 
L 87.012208 172.288269 
L 88.110498 172.217288 
L 88.330156 172.344079 
L 88.549814 172.263037 
L 88.98913 172.248326 
L 89.208788 172.247422 
L 89.428446 172.120425 
L 89.648104 172.340689 
L 89.867762 172.2496 
L 90.08742 172.431509 
L 92.503659 172.463555 
L 94.041265 172.136846 
L 94.480581 172.264438 
L 95.359213 172.464455 
L 95.798529 172.648692 
L 96.018187 172.509498 
L 96.457503 172.615141 
L 96.896819 172.644051 
L 97.336135 172.621956 
L 97.995109 172.73808 
L 98.214767 172.861655 
L 98.873741 172.63321 
L 99.313057 172.748151 
L 100.191689 172.94605 
L 101.509637 172.610203 
L 101.948953 172.779403 
L 102.607927 172.783895 
L 103.047243 172.829902 
L 103.486559 172.885926 
L 103.706217 172.954703 
L 104.365191 172.77276 
L 105.024165 172.608371 
L 106.122455 172.708627 
L 106.342113 172.607011 
L 107.001087 172.778199 
L 108.319036 172.66916 
L 108.97801 172.727465 
L 109.417326 172.537235 
L 109.856642 172.512993 
L 110.295958 171.763743 
L 110.515616 172.00216 
L 110.735274 171.95508 
L 110.954932 172.321003 
L 111.17459 172.332943 
L 111.394248 172.17077 
L 111.833564 172.218523 
L 112.053222 172.153785 
L 112.27288 171.82163 
L 112.492538 172.20025 
L 112.712196 172.018558 
L 112.931854 172.00341 
L 113.151512 172.334643 
L 113.590828 172.564326 
L 113.810486 172.47233 
L 114.249802 172.679623 
L 114.46946 172.999401 
L 114.908776 172.651457 
L 115.128434 172.348191 
L 115.348092 172.430643 
L 115.56775 172.340957 
L 116.007066 172.489125 
L 116.446382 172.045358 
L 117.325014 172.297815 
L 117.544672 172.675876 
L 117.76433 172.592379 
L 118.203646 172.742451 
L 118.423304 172.202489 
L 118.642962 172.253457 
L 118.86262 171.943008 
L 119.741252 172.11394 
L 120.180568 171.681279 
L 120.400226 171.739409 
L 121.278858 171.021846 
L 121.498516 171.701182 
L 122.377148 172.019781 
L 122.596806 171.741938 
L 122.816465 172.250727 
L 123.255781 172.517804 
L 124.573729 172.518612 
L 125.013045 172.868359 
L 125.232703 172.626205 
L 125.672019 172.619121 
L 125.891677 172.801176 
L 126.330993 172.642475 
L 126.770309 172.810892 
L 127.209625 172.774989 
L 127.429283 172.883057 
L 127.648941 172.833959 
L 127.868599 172.611768 
L 128.307915 172.571839 
L 128.527573 172.737092 
L 128.966889 172.715323 
L 129.186547 172.855184 
L 131.602785 172.617319 
L 132.261759 172.304232 
L 132.481417 172.477533 
L 133.360049 172.455984 
L 133.799365 172.465863 
L 134.019023 172.415367 
L 134.238681 172.609844 
L 134.458339 172.273058 
L 135.556629 172.351808 
L 135.776287 172.491279 
L 136.215603 172.457074 
L 136.874577 172.469963 
L 137.094235 172.317474 
L 138.8515 172.660802 
L 139.071158 172.751819 
L 139.510474 172.638909 
L 140.169448 172.575946 
L 140.608764 172.398739 
L 140.828422 172.547353 
L 141.04808 172.443801 
L 141.267738 172.137123 
L 141.926712 172.078107 
L 142.14637 171.650877 
L 142.805344 171.948749 
L 143.24466 171.694745 
L 143.464318 171.820678 
L 143.683976 171.735599 
L 143.903634 171.492446 
L 144.123292 171.518971 
L 144.562608 171.330413 
L 144.782266 171.383512 
L 145.001924 171.115246 
L 145.221582 171.16782 
L 145.44124 171.568094 
L 146.319872 171.963381 
L 146.759188 171.8773 
L 148.516452 171.980525 
L 148.73611 171.80219 
L 149.175426 171.804512 
L 149.8344 171.956412 
L 150.054058 172.022645 
L 150.713032 171.821283 
L 151.591664 172.085304 
L 152.470296 171.898974 
L 153.129271 172.202465 
L 153.348929 172.119358 
L 153.568587 172.192176 
L 154.007903 172.024138 
L 154.886535 171.099029 
L 155.106193 171.316996 
L 155.325851 171.238912 
L 155.545509 171.582693 
L 155.984825 171.340257 
L 156.204483 171.575202 
L 156.424141 171.125672 
L 156.643799 171.229199 
L 157.083115 171.740841 
L 157.302773 171.528489 
L 157.522431 171.634998 
L 157.742089 171.530016 
L 157.961747 171.066838 
L 158.181405 171.266878 
L 158.401063 171.102532 
L 158.840379 171.415386 
L 159.279695 171.146355 
L 159.719011 171.357806 
L 160.377985 171.296516 
L 160.817301 171.50509 
L 161.476275 171.436172 
L 161.915591 171.425855 
L 162.135249 171.311493 
L 162.354907 171.346401 
L 162.574565 171.208409 
L 163.013881 171.273802 
L 163.233539 171.185527 
L 163.453197 171.285521 
L 163.892513 170.817304 
L 164.331829 171.121115 
L 164.771145 170.779417 
L 165.210461 171.006453 
L 165.430119 171.119341 
L 165.649777 171.006227 
L 165.869435 171.111047 
L 166.967725 170.893078 
L 168.285674 171.23519 
L 168.505332 171.146571 
L 168.72499 171.276754 
L 169.603622 171.352624 
L 170.262596 171.438883 
L 172.459176 171.501894 
L 172.898492 171.473852 
L 173.337808 171.178599 
L 173.996782 171.545954 
L 174.655756 171.49567 
L 174.875414 171.607356 
L 175.095072 171.54468 
L 175.31473 171.6585 
L 175.754046 171.596197 
L 176.41302 171.749172 
L 177.071994 171.835108 
L 177.291652 171.692317 
L 177.51131 171.72638 
L 177.730968 171.873989 
L 177.950626 171.769052 
L 178.170284 171.881379 
L 178.389942 171.799846 
L 178.829258 171.995659 
L 179.048916 171.92276 
L 179.268574 172.050884 
L 179.70789 172.091094 
L 179.927548 172.274346 
L 180.147206 172.30897 
L 180.586522 172.207696 
L 180.80618 172.222882 
L 181.245496 171.85046 
L 181.465154 172.027123 
L 181.90447 172.09048 
L 182.124128 171.801039 
L 182.343786 171.89863 
L 182.783102 172.224091 
L 183.00276 172.235986 
L 183.222419 172.11841 
L 183.881393 172.159688 
L 184.540367 172.099737 
L 184.760025 172.198043 
L 185.199341 171.921455 
L 185.638657 170.83859 
L 185.858315 170.822971 
L 186.077973 170.163891 
L 186.297631 170.214597 
L 186.517289 171.092944 
L 186.736947 170.689246 
L 186.956605 171.47955 
L 187.176263 170.841509 
L 187.395921 170.593345 
L 187.615579 169.431129 
L 187.835237 170.189121 
L 188.274553 168.229646 
L 188.494211 169.632454 
L 188.713869 167.662516 
L 188.933527 169.046664 
L 189.153185 169.083716 
L 189.372843 169.298396 
L 189.592501 169.004534 
L 189.812159 168.92185 
L 190.031817 170.183472 
L 190.251475 170.40039 
L 190.471133 170.960908 
L 190.690791 170.442799 
L 190.910449 170.826782 
L 191.130107 170.72182 
L 191.349765 170.255314 
L 191.569423 170.612573 
L 191.789081 170.357246 
L 192.008739 171.472724 
L 192.228397 171.277472 
L 192.448055 172.043191 
L 192.667713 172.198028 
L 192.887371 171.86546 
L 193.107029 172.106406 
L 193.326687 171.608922 
L 193.546345 171.857279 
L 193.766003 172.595581 
L 194.205319 171.525552 
L 194.424977 171.973572 
L 194.644635 171.937375 
L 195.083951 172.51286 
L 195.303609 172.494192 
L 195.523267 172.944011 
L 196.182241 171.901308 
L 196.401899 171.948008 
L 196.621557 171.73166 
L 196.841215 171.866093 
L 197.060873 172.137638 
L 197.280531 172.124961 
L 197.719847 171.398881 
L 197.939505 171.542332 
L 198.159163 171.45314 
L 198.378822 171.904735 
L 198.59848 171.53697 
L 198.818138 171.649931 
L 199.037796 171.370424 
L 199.257454 171.286326 
L 199.69677 171.688856 
L 200.355744 171.488865 
L 200.575402 171.507984 
L 201.014718 171.714447 
L 201.454034 172.345553 
L 201.673692 172.280588 
L 201.89335 172.091354 
L 202.113008 171.167121 
L 202.552324 171.588578 
L 202.771982 171.946887 
L 203.650614 171.584991 
L 203.870272 171.5484 
L 204.08993 171.014856 
L 204.309588 171.213069 
L 204.529246 170.9557 
L 204.968562 171.233574 
L 205.18822 171.264406 
L 205.407878 171.154998 
L 205.627536 171.460955 
L 205.847194 171.104764 
L 206.066852 171.172965 
L 206.28651 170.844661 
L 206.506168 170.938743 
L 206.725826 170.715888 
L 207.165142 171.064963 
L 207.604458 170.978733 
L 207.824116 171.124671 
L 208.48309 170.893771 
L 208.702748 170.741738 
L 208.922406 170.859333 
L 209.142064 170.767208 
L 209.361722 170.957135 
L 210.020696 171.121576 
L 210.460012 171.403702 
L 211.118986 171.577155 
L 211.338644 171.362281 
L 211.558302 171.616942 
L 211.997618 171.401403 
L 212.217276 171.388223 
L 213.754883 172.147049 
L 214.413857 172.183999 
L 214.853173 172.534075 
L 215.072831 171.895026 
L 215.292489 171.756785 
L 215.512147 171.341575 
L 215.731805 171.766161 
L 215.951463 171.471988 
L 216.171121 171.447918 
L 216.390779 171.80767 
L 216.610437 171.931949 
L 216.830095 171.847751 
L 217.269411 171.503275 
L 217.489069 171.420249 
L 217.708727 171.651809 
L 217.928385 171.1274 
L 218.587359 171.813839 
L 218.807017 171.725311 
L 219.246333 171.963635 
L 219.465991 171.818289 
L 219.685649 172.163992 
L 219.905307 171.889988 
L 220.344623 172.343649 
L 220.783939 172.835547 
L 221.442913 172.491905 
L 221.662571 172.384045 
L 221.882229 171.942364 
L 222.541203 172.056475 
L 222.760861 172.01319 
L 222.980519 171.661256 
L 223.200177 171.656338 
L 223.419835 171.048374 
L 223.639493 171.339425 
L 223.859151 171.149788 
L 224.737783 172.295112 
L 224.957441 172.144344 
L 225.177099 172.305096 
L 225.396757 172.153914 
L 225.616415 172.278833 
L 225.836073 172.029929 
L 226.275389 172.329782 
L 226.495047 172.207164 
L 226.714705 171.850822 
L 226.934363 171.883212 
L 227.154021 171.80066 
L 227.812995 172.145164 
L 228.032653 172.09409 
L 228.252311 171.921355 
L 228.471969 172.059126 
L 228.911286 171.986845 
L 229.130944 172.144045 
L 229.350602 172.002857 
L 229.57026 172.025509 
L 229.789918 171.861287 
L 230.229234 171.955656 
L 230.448892 171.793309 
L 230.66855 172.003865 
L 231.327524 172.048061 
L 231.76684 171.773376 
L 232.206156 171.756782 
L 232.425814 171.942067 
L 232.86513 171.791905 
L 233.084788 171.88805 
L 233.304446 171.534202 
L 233.743762 171.660726 
L 234.183078 171.917221 
L 234.402736 171.752724 
L 234.842052 171.834268 
L 235.06171 171.854995 
L 235.281368 171.702112 
L 235.940342 172.224107 
L 236.16 172.056707 
L 236.599316 172.088873 
L 236.818974 171.626046 
L 237.038632 171.880835 
L 237.25829 171.532354 
L 237.697606 172.341724 
L 237.917264 172.269676 
L 238.136922 172.40642 
L 239.235212 172.375838 
L 239.674528 172.49449 
L 239.894186 172.554775 
L 240.772818 172.415202 
L 240.992476 172.629689 
L 241.212134 172.180721 
L 241.431792 172.081712 
L 241.65145 172.553754 
L 242.310424 171.66993 
L 242.530082 172.119066 
L 242.74974 171.949496 
L 242.969398 172.194871 
L 243.189056 172.203429 
L 243.408714 172.514409 
L 243.628372 172.386579 
L 244.287347 172.408129 
L 244.507005 172.116115 
L 244.726663 172.02787 
L 244.946321 172.149096 
L 245.385637 171.821941 
L 245.605295 171.961619 
L 245.824953 172.362493 
L 246.483927 172.184565 
L 246.923243 172.736283 
L 247.582217 172.786963 
L 247.801875 172.960739 
L 248.460849 172.866126 
L 248.680507 173.123328 
L 248.900165 173.199009 
L 249.339481 172.936911 
L 249.559139 173.200695 
L 249.778797 173.040776 
L 249.998455 173.253737 
L 250.437771 173.36874 
L 250.657429 173.273476 
L 250.877087 173.41961 
L 251.096745 173.258145 
L 251.316403 173.266017 
L 251.536061 173.131715 
L 251.755719 173.138125 
L 252.195035 173.321935 
L 252.634351 172.846988 
L 252.854009 172.349417 
L 253.293325 172.884536 
L 253.952299 172.343913 
L 254.171957 172.501269 
L 254.391615 172.437762 
L 254.611273 172.545478 
L 254.830931 172.352576 
L 255.270247 172.524429 
L 256.148879 172.314258 
L 256.368537 172.534053 
L 257.027511 172.439107 
L 257.466827 172.53698 
L 257.906143 172.480144 
L 258.125801 172.327984 
L 258.345459 172.352539 
L 258.565117 172.020249 
L 258.784775 172.311988 
L 259.883066 172.601141 
L 260.322382 172.562712 
L 261.201014 172.777019 
L 261.420672 172.58975 
L 261.859988 172.832684 
L 262.73862 172.607549 
L 262.958278 172.239365 
L 263.397594 172.850636 
L 263.617252 172.868698 
L 263.83691 173.114486 
L 264.056568 173.160922 
L 264.495884 173.041429 
L 265.154858 172.859096 
L 265.374516 173.09357 
L 265.594174 172.990108 
L 267.351438 173.16323 
L 267.571096 173.069894 
L 267.790754 172.805168 
L 268.010412 172.853522 
L 268.449728 173.251765 
L 268.889044 173.283451 
L 269.108702 173.077336 
L 269.32836 173.332646 
L 270.42665 173.396747 
L 271.744598 172.953174 
L 271.964256 173.14158 
L 272.183914 173.137796 
L 272.842888 172.475016 
L 273.501862 173.029191 
L 273.72152 172.949903 
L 273.941178 172.392576 
L 274.160837 172.462373 
L 274.380495 172.171308 
L 274.600153 172.416289 
L 274.819811 172.18308 
L 275.039469 172.407221 
L 275.698443 172.504945 
L 276.137759 172.230444 
L 276.357417 172.375873 
L 276.577075 172.695512 
L 277.236049 172.822895 
L 277.675365 172.883131 
L 277.895023 172.871211 
L 278.334339 172.997962 
L 278.553997 172.849087 
L 278.773655 173.029869 
L 279.212971 173.069258 
L 280.530919 173.153546 
L 280.750577 172.953859 
L 280.970235 172.989049 
L 281.189893 173.153543 
L 282.947157 173.120786 
L 283.166815 172.486042 
L 283.386473 172.781008 
L 283.825789 172.020449 
L 284.045447 172.427541 
L 284.265105 172.261635 
L 284.704421 173.032332 
L 284.924079 173.049262 
L 285.143737 172.804764 
L 285.363395 173.037555 
L 285.802711 172.301835 
L 286.022369 172.625855 
L 286.461685 172.077857 
L 286.681343 171.90491 
L 287.120659 172.54614 
L 287.340317 172.656349 
L 287.559975 172.911588 
L 287.999291 172.796368 
L 288.438607 172.575544 
L 288.658265 172.620296 
L 288.877923 172.537532 
L 289.097581 172.106756 
L 289.756556 172.13717 
L 289.976214 172.364515 
L 290.195872 172.31628 
L 290.41553 171.904343 
L 290.635188 171.996349 
L 290.854846 171.61196 
L 291.074504 171.541466 
L 291.51382 170.974469 
L 291.733478 171.128352 
L 291.953136 170.870832 
L 292.172794 170.844032 
L 292.392452 170.65538 
L 292.831768 171.621363 
L 293.271084 171.985964 
L 293.490742 171.342224 
L 293.7104 171.530783 
L 293.930058 171.472967 
L 294.149716 171.58825 
L 294.369374 171.894239 
L 294.80869 171.201973 
L 295.028348 171.127886 
L 295.248006 171.637011 
L 295.467664 171.634103 
L 295.90698 171.153359 
L 296.126638 170.940485 
L 296.346296 170.560465 
L 296.785612 171.412633 
L 297.00527 171.36357 
L 297.224928 170.96607 
L 297.444586 171.366169 
L 297.883902 171.039256 
L 298.10356 170.354716 
L 298.323218 170.287906 
L 298.542876 171.066898 
L 298.762534 170.908208 
L 298.982192 170.353251 
L 299.20185 170.120855 
L 299.641166 170.91934 
L 300.080482 171.269763 
L 300.30014 171.182028 
L 300.519798 171.278489 
L 300.739456 170.883022 
L 300.959114 171.352375 
L 301.39843 171.658627 
L 301.618088 171.973594 
L 301.837746 171.753491 
L 302.057404 171.368332 
L 302.49672 171.71136 
L 302.716378 171.424924 
L 302.936036 171.339431 
L 303.155694 171.425379 
L 303.375352 171.387239 
L 303.59501 171.087069 
L 303.814668 170.995127 
L 304.034326 171.313306 
L 304.253984 170.98623 
L 304.473643 170.992782 
L 304.693301 171.445904 
L 304.912959 171.343294 
L 305.352275 170.268251 
L 305.571933 170.475575 
L 305.791591 169.979831 
L 306.011249 170.099186 
L 306.230907 170.597394 
L 306.450565 169.73994 
L 306.889881 169.955837 
L 307.109539 170.620738 
L 307.329197 169.796646 
L 307.548855 169.783259 
L 307.768513 169.014301 
L 307.988171 169.199561 
L 308.207829 168.796802 
L 308.427487 168.626544 
L 308.647145 169.283531 
L 308.866803 169.296783 
L 309.086461 169.69622 
L 309.306119 168.937393 
L 309.745435 168.998593 
L 309.965093 169.419548 
L 310.184751 169.423979 
L 310.404409 169.728443 
L 310.843725 170.646238 
L 311.283041 170.172848 
L 311.502699 170.50153 
L 311.722357 170.11825 
L 311.942015 170.084843 
L 312.161673 170.469044 
L 312.381331 170.319212 
L 313.040305 168.602857 
L 313.259963 168.648902 
L 313.479621 168.94755 
L 313.699279 168.239071 
L 313.918937 168.34101 
L 314.138595 168.939015 
L 314.358253 168.946355 
L 314.577911 169.199583 
L 314.797569 169.835817 
L 315.017227 169.831087 
L 315.236885 169.482462 
L 315.456543 169.375751 
L 315.676201 169.093313 
L 315.895859 169.325074 
L 316.335175 169.294535 
L 316.554833 169.663353 
L 316.774491 169.577519 
L 317.433465 168.959099 
L 317.653123 168.982823 
L 317.872781 169.360339 
L 318.092439 169.169836 
L 318.312097 169.73571 
L 318.751413 170.062711 
L 318.971071 169.891849 
L 319.190729 169.904146 
L 319.410388 169.65108 
L 319.630046 170.233056 
L 320.28902 170.659867 
L 320.508678 170.533489 
L 320.728336 170.832473 
L 321.606968 170.568135 
L 321.826626 171.077933 
L 322.046284 171.02233 
L 322.265942 171.39816 
L 322.705258 171.475018 
L 322.924916 171.250211 
L 323.144574 171.261794 
L 323.58389 170.593024 
L 324.023206 170.646894 
L 324.242864 170.86115 
L 324.462522 170.049222 
L 325.121496 169.692764 
L 325.341154 169.885895 
L 325.78047 169.639184 
L 326.000128 170.039649 
L 326.219786 170.142927 
L 326.659102 170.622108 
L 326.87876 169.663049 
L 327.098418 169.972826 
L 327.318076 169.652404 
L 327.537734 169.681475 
L 327.757392 169.914073 
L 328.196708 169.530809 
L 328.416366 169.562352 
L 328.636024 169.233438 
L 328.855682 169.119656 
L 329.07534 169.194336 
L 329.294998 169.637212 
L 329.734314 169.187126 
L 330.17363 170.233984 
L 330.393288 170.17658 
L 330.612946 169.975053 
L 330.832604 169.480939 
L 331.052262 169.463796 
L 331.27192 169.58437 
L 331.491578 169.507788 
L 331.711236 170.10108 
L 331.930894 169.799363 
L 332.150552 170.421972 
L 332.37021 170.602181 
L 332.809526 170.211775 
L 333.029184 170.704568 
L 333.4685 171.107253 
L 333.907816 170.752361 
L 334.127474 171.314782 
L 334.786449 170.201292 
L 335.006107 170.013849 
L 335.665081 170.51738 
L 335.884739 170.119179 
L 336.104397 171.356679 
L 336.324055 171.420494 
L 336.543713 171.237389 
L 336.763371 171.282948 
L 337.202687 170.865233 
L 337.861661 171.281109 
L 338.300977 171.008287 
L 338.520635 170.595502 
L 338.740293 170.505456 
L 338.959951 171.116357 
L 339.618925 170.356063 
L 339.838583 170.135112 
L 340.058241 170.144528 
L 340.277899 170.324037 
L 340.497557 170.217735 
L 340.936873 170.628022 
L 341.156531 170.584124 
L 341.376189 170.081543 
L 342.035163 169.884582 
L 342.254821 170.197276 
L 342.474479 169.850946 
L 342.694137 169.977409 
L 342.913795 169.856395 
L 343.133453 169.552757 
L 343.353111 169.881732 
L 343.572769 169.928539 
L 343.792427 169.823419 
L 344.012085 169.892261 
L 344.231743 169.664121 
L 344.451401 170.079681 
L 344.671059 169.950379 
L 345.330033 170.240136 
L 345.769349 170.312037 
L 346.208665 169.862176 
L 346.428323 170.283956 
L 346.647981 170.455707 
L 347.087297 170.488903 
L 347.306955 170.647738 
L 347.526613 170.655259 
L 347.746271 170.407115 
L 348.185587 170.862954 
L 348.405245 171.046087 
L 348.844561 170.647607 
L 349.064219 171.079072 
L 349.503535 170.738648 
L 350.382168 171.182402 
L 350.601826 170.959258 
L 350.821484 170.996696 
L 351.041142 170.586912 
L 351.2608 170.576353 
L 351.480458 170.753581 
L 351.700116 170.522715 
L 351.919774 170.647269 
L 352.139432 170.616691 
L 352.35909 170.451533 
L 352.578748 170.5682 
L 352.798406 170.915779 
L 353.018064 170.854483 
L 353.237722 170.496298 
L 353.45738 170.511841 
L 353.896696 169.972792 
L 354.116354 170.033066 
L 354.336012 170.406612 
L 354.55567 170.221958 
L 354.775328 170.646149 
L 354.994986 170.29499 
L 355.434302 170.714617 
L 355.65396 170.311158 
L 356.532592 170.364761 
L 356.75225 170.704569 
L 356.971908 170.812543 
L 357.191566 171.169359 
L 357.411224 171.200738 
L 357.630882 171.004466 
L 358.509514 171.063217 
L 358.729172 170.921042 
L 358.94883 171.192239 
L 359.827462 171.379239 
L 360.04712 171.280214 
L 360.486436 171.449847 
L 360.706094 171.146706 
L 360.925752 171.137725 
L 361.14541 171.565838 
L 361.365068 171.748547 
L 361.584726 171.77607 
L 361.804384 171.559587 
L 362.024042 171.548179 
L 362.2437 171.376768 
L 362.463358 171.806255 
L 363.561648 171.892197 
L 363.781306 171.97799 
L 364.000964 171.753553 
L 364.44028 172.199634 
L 364.659938 172.019068 
L 364.879597 172.026032 
L 365.318913 171.618193 
L 365.538571 171.78352 
L 365.758229 172.088316 
L 365.977887 172.051906 
L 366.197545 171.892413 
L 366.636861 172.411717 
L 367.735151 172.321644 
L 368.394125 172.705577 
L 368.613783 173.0254 
L 369.272757 172.735459 
L 369.492415 172.848809 
L 369.712073 172.687277 
L 369.931731 172.667126 
L 370.151389 172.910652 
L 370.590705 172.934456 
L 371.030021 173.296906 
L 371.469337 173.151358 
L 371.688995 173.083907 
L 372.128311 173.430759 
L 373.006943 174.221119 
L 373.446259 174.431743 
L 373.665917 174.206526 
L 374.544549 174.363281 
L 374.764207 174.147799 
L 375.203523 174.561307 
L 375.423181 174.548314 
L 375.642839 174.285046 
L 375.862497 174.333194 
L 376.082155 174.249021 
L 376.301813 174.550566 
L 376.741129 174.258581 
L 377.400103 174.622471 
L 377.619761 174.276277 
L 378.278735 173.912962 
L 378.498393 174.0392 
L 378.718051 173.947908 
L 378.937709 174.175797 
L 379.157367 173.801145 
L 379.596683 174.08444 
L 379.816341 174.389267 
L 380.475316 174.324486 
L 381.13429 173.874431 
L 381.353948 173.896773 
L 381.573606 174.071259 
L 381.793264 173.94591 
L 382.012922 174.0063 
L 382.23258 174.24202 
L 382.452238 173.964414 
L 382.671896 174.025904 
L 382.891554 173.961105 
L 383.33087 173.33046 
L 383.550528 173.273122 
L 383.770186 173.340955 
L 383.989844 173.052226 
L 384.868476 173.262554 
L 385.088134 172.917399 
L 385.307792 173.116037 
L 385.52745 173.031379 
L 385.747108 173.388565 
L 386.186424 173.503515 
L 386.406082 173.56143 
L 386.845398 173.18319 
L 387.065056 173.385534 
L 387.284714 173.308312 
L 387.504372 172.924345 
L 388.163346 172.526333 
L 388.383004 172.645883 
L 388.82232 172.128581 
L 389.041978 172.061379 
L 390.140268 173.104919 
L 390.799242 172.891431 
L 391.0189 172.659471 
L 391.238558 172.997945 
L 391.458216 172.943733 
L 391.677874 173.394493 
L 392.336848 173.356689 
L 392.556506 173.510466 
L 392.776164 173.422696 
L 392.995822 173.545587 
L 393.874454 173.454425 
L 394.31377 173.701603 
L 394.533428 173.573062 
L 394.753086 173.581775 
L 394.972744 173.41463 
L 395.412061 173.744582 
L 395.631719 173.766728 
L 395.851377 173.913262 
L 396.071035 174.248528 
L 396.949667 174.596889 
L 397.169325 174.154533 
L 397.388983 174.372003 
L 397.608641 174.361964 
L 398.047957 174.626187 
L 398.487273 174.589962 
L 398.487273 174.589962 
" clip-path="url(#pb13fb407b9)" style="fill: none; stroke: #2ca02c; stroke-opacity: 0.7; stroke-width: 1.5; stroke-linecap: square"/>
   </g>
   <g id="patch_3">
    <path d="M 57.6 307.584 
L 57.6 41.472 
" style="fill: none; stroke: #000000; stroke-width: 0.8; stroke-linejoin: miter; stroke-linecap: square"/>
   </g>
   <g id="patch_4">
    <path d="M 414.72 307.584 
L 414.72 41.472 
" style="fill: none; stroke: #000000; stroke-width: 0.8; stroke-linejoin: miter; stroke-linecap: square"/>
   </g>
   <g id="patch_5">
    <path d="M 57.6 307.584 
L 414.72 307.584 
" style="fill: none; stroke: #000000; stroke-width: 0.8; stroke-linejoin: miter; stroke-linecap: square"/>
   </g>
   <g id="patch_6">
    <path d="M 57.6 41.472 
L 414.72 41.472 
" style="fill: none; stroke: #000000; stroke-width: 0.8; stroke-linejoin: miter; stroke-linecap: square"/>
   </g>
   <g id="text_14">
    <!-- 1final_naive_pr_snp500 -->
    <g transform="translate(165.5625 35.472) scale(0.12 -0.12)">
     <defs>
      <path id="DejaVuSans-66" d="M 2375 4863 
L 2375 4384 
L 1825 4384 
Q 1516 4384 1395 4259 
Q 1275 4134 1275 3809 
L 1275 3500 
L 2222 3500 
L 2222 3053 
L 1275 3053 
L 1275 0 
L 697 0 
L 697 3053 
L 147 3053 
L 147 3500 
L 697 3500 
L 697 3744 
Q 697 4328 969 4595 
Q 1241 4863 1831 4863 
L 2375 4863 
z
" transform="scale(0.015625)"/>
      <path id="DejaVuSans-69" d="M 603 3500 
L 1178 3500 
L 1178 0 
L 603 0 
L 603 3500 
z
M 603 4863 
L 1178 4863 
L 1178 4134 
L 603 4134 
L 603 4863 
z
" transform="scale(0.015625)"/>
      <path id="DejaVuSans-6e" d="M 3513 2113 
L 3513 0 
L 2938 0 
L 2938 2094 
Q 2938 2591 2744 2837 
Q 2550 3084 2163 3084 
Q 1697 3084 1428 2787 
Q 1159 2491 1159 1978 
L 1159 0 
L 581 0 
L 581 3500 
L 1159 3500 
L 1159 2956 
Q 1366 3272 1645 3428 
Q 1925 3584 2291 3584 
Q 2894 3584 3203 3211 
Q 3513 2838 3513 2113 
z
" transform="scale(0.015625)"/>
      <path id="DejaVuSans-61" d="M 2194 1759 
Q 1497 1759 1228 1600 
Q 959 1441 959 1056 
Q 959 750 1161 570 
Q 1363 391 1709 391 
Q 2188 391 2477 730 
Q 2766 1069 2766 1631 
L 2766 1759 
L 2194 1759 
z
M 3341 1997 
L 3341 0 
L 2766 0 
L 2766 531 
Q 2569 213 2275 61 
Q 1981 -91 1556 -91 
Q 1019 -91 701 211 
Q 384 513 384 1019 
Q 384 1609 779 1909 
Q 1175 2209 1959 2209 
L 2766 2209 
L 2766 2266 
Q 2766 2663 2505 2880 
Q 2244 3097 1772 3097 
Q 1472 3097 1187 3025 
Q 903 2953 641 2809 
L 641 3341 
Q 956 3463 1253 3523 
Q 1550 3584 1831 3584 
Q 2591 3584 2966 3190 
Q 3341 2797 3341 1997 
z
" transform="scale(0.015625)"/>
      <path id="DejaVuSans-6c" d="M 603 4863 
L 1178 4863 
L 1178 0 
L 603 0 
L 603 4863 
z
" transform="scale(0.015625)"/>
      <path id="DejaVuSans-5f" d="M 3263 -1063 
L 3263 -1509 
L -63 -1509 
L -63 -1063 
L 3263 -1063 
z
" transform="scale(0.015625)"/>
      <path id="DejaVuSans-76" d="M 191 3500 
L 800 3500 
L 1894 563 
L 2988 3500 
L 3597 3500 
L 2284 0 
L 1503 0 
L 191 3500 
z
" transform="scale(0.015625)"/>
      <path id="DejaVuSans-65" d="M 3597 1894 
L 3597 1613 
L 953 1613 
Q 991 1019 1311 708 
Q 1631 397 2203 397 
Q 2534 397 2845 478 
Q 3156 559 3463 722 
L 3463 178 
Q 3153 47 2828 -22 
Q 2503 -91 2169 -91 
Q 1331 -91 842 396 
Q 353 884 353 1716 
Q 353 2575 817 3079 
Q 1281 3584 2069 3584 
Q 2775 3584 3186 3129 
Q 3597 2675 3597 1894 
z
M 3022 2063 
Q 3016 2534 2758 2815 
Q 2500 3097 2075 3097 
Q 1594 3097 1305 2825 
Q 1016 2553 972 2059 
L 3022 2063 
z
" transform="scale(0.015625)"/>
      <path id="DejaVuSans-70" d="M 1159 525 
L 1159 -1331 
L 581 -1331 
L 581 3500 
L 1159 3500 
L 1159 2969 
Q 1341 3281 1617 3432 
Q 1894 3584 2278 3584 
Q 2916 3584 3314 3078 
Q 3713 2572 3713 1747 
Q 3713 922 3314 415 
Q 2916 -91 2278 -91 
Q 1894 -91 1617 61 
Q 1341 213 1159 525 
z
M 3116 1747 
Q 3116 2381 2855 2742 
Q 2594 3103 2138 3103 
Q 1681 3103 1420 2742 
Q 1159 2381 1159 1747 
Q 1159 1113 1420 752 
Q 1681 391 2138 391 
Q 2594 391 2855 752 
Q 3116 1113 3116 1747 
z
" transform="scale(0.015625)"/>
      <path id="DejaVuSans-72" d="M 2631 2963 
Q 2534 3019 2420 3045 
Q 2306 3072 2169 3072 
Q 1681 3072 1420 2755 
Q 1159 2438 1159 1844 
L 1159 0 
L 581 0 
L 581 3500 
L 1159 3500 
L 1159 2956 
Q 1341 3275 1631 3429 
Q 1922 3584 2338 3584 
Q 2397 3584 2469 3576 
Q 2541 3569 2628 3553 
L 2631 2963 
z
" transform="scale(0.015625)"/>
      <path id="DejaVuSans-73" d="M 2834 3397 
L 2834 2853 
Q 2591 2978 2328 3040 
Q 2066 3103 1784 3103 
Q 1356 3103 1142 2972 
Q 928 2841 928 2578 
Q 928 2378 1081 2264 
Q 1234 2150 1697 2047 
L 1894 2003 
Q 2506 1872 2764 1633 
Q 3022 1394 3022 966 
Q 3022 478 2636 193 
Q 2250 -91 1575 -91 
Q 1294 -91 989 -36 
Q 684 19 347 128 
L 347 722 
Q 666 556 975 473 
Q 1284 391 1588 391 
Q 1994 391 2212 530 
Q 2431 669 2431 922 
Q 2431 1156 2273 1281 
Q 2116 1406 1581 1522 
L 1381 1569 
Q 847 1681 609 1914 
Q 372 2147 372 2553 
Q 372 3047 722 3315 
Q 1072 3584 1716 3584 
Q 2034 3584 2315 3537 
Q 2597 3491 2834 3397 
z
" transform="scale(0.015625)"/>
      <path id="DejaVuSans-35" d="M 691 4666 
L 3169 4666 
L 3169 4134 
L 1269 4134 
L 1269 2991 
Q 1406 3038 1543 3061 
Q 1681 3084 1819 3084 
Q 2600 3084 3056 2656 
Q 3513 2228 3513 1497 
Q 3513 744 3044 326 
Q 2575 -91 1722 -91 
Q 1428 -91 1123 -41 
Q 819 9 494 109 
L 494 744 
Q 775 591 1075 516 
Q 1375 441 1709 441 
Q 2250 441 2565 725 
Q 2881 1009 2881 1497 
Q 2881 1984 2565 2268 
Q 2250 2553 1709 2553 
Q 1456 2553 1204 2497 
Q 953 2441 691 2322 
L 691 4666 
z
" transform="scale(0.015625)"/>
     </defs>
     <use xlink:href="#DejaVuSans-31"/>
     <use xlink:href="#DejaVuSans-66" x="63.623047"/>
     <use xlink:href="#DejaVuSans-69" x="98.828125"/>
     <use xlink:href="#DejaVuSans-6e" x="126.611328"/>
     <use xlink:href="#DejaVuSans-61" x="189.990234"/>
     <use xlink:href="#DejaVuSans-6c" x="251.269531"/>
     <use xlink:href="#DejaVuSans-5f" x="279.052734"/>
     <use xlink:href="#DejaVuSans-6e" x="329.052734"/>
     <use xlink:href="#DejaVuSans-61" x="392.431641"/>
     <use xlink:href="#DejaVuSans-69" x="453.710938"/>
     <use xlink:href="#DejaVuSans-76" x="481.494141"/>
     <use xlink:href="#DejaVuSans-65" x="540.673828"/>
     <use xlink:href="#DejaVuSans-5f" x="602.197266"/>
     <use xlink:href="#DejaVuSans-70" x="652.197266"/>
     <use xlink:href="#DejaVuSans-72" x="715.673828"/>
     <use xlink:href="#DejaVuSans-5f" x="756.787109"/>
     <use xlink:href="#DejaVuSans-73" x="806.787109"/>
     <use xlink:href="#DejaVuSans-6e" x="858.886719"/>
     <use xlink:href="#DejaVuSans-70" x="922.265625"/>
     <use xlink:href="#DejaVuSans-35" x="985.742188"/>
     <use xlink:href="#DejaVuSans-30" x="1049.365234"/>
     <use xlink:href="#DejaVuSans-30" x="1112.988281"/>
    </g>
   </g>
   <g id="legend_1">
    <g id="patch_7">
     <path d="M 64.6 93.506375 
L 258.804688 93.506375 
Q 260.804688 93.506375 260.804688 91.506375 
L 260.804688 48.472 
Q 260.804688 46.472 258.804688 46.472 
L 64.6 46.472 
Q 62.6 46.472 62.6 48.472 
L 62.6 91.506375 
Q 62.6 93.506375 64.6 93.506375 
z
" style="fill: #ffffff; opacity: 0.8; stroke: #cccccc; stroke-linejoin: miter"/>
    </g>
    <g id="line2d_17">
     <path d="M 66.6 54.570438 
L 76.6 54.570438 
L 86.6 54.570438 
" style="fill: none; stroke: #1f77b4; stroke-opacity: 0.7; stroke-width: 1.5; stroke-linecap: square"/>
    </g>
    <g id="text_15">
     <!-- Positive cumulative predictions -->
     <g transform="translate(94.6 58.070438) scale(0.1 -0.1)">
      <defs>
       <path id="DejaVuSans-50" d="M 1259 4147 
L 1259 2394 
L 2053 2394 
Q 2494 2394 2734 2622 
Q 2975 2850 2975 3272 
Q 2975 3691 2734 3919 
Q 2494 4147 2053 4147 
L 1259 4147 
z
M 628 4666 
L 2053 4666 
Q 2838 4666 3239 4311 
Q 3641 3956 3641 3272 
Q 3641 2581 3239 2228 
Q 2838 1875 2053 1875 
L 1259 1875 
L 1259 0 
L 628 0 
L 628 4666 
z
" transform="scale(0.015625)"/>
       <path id="DejaVuSans-6f" d="M 1959 3097 
Q 1497 3097 1228 2736 
Q 959 2375 959 1747 
Q 959 1119 1226 758 
Q 1494 397 1959 397 
Q 2419 397 2687 759 
Q 2956 1122 2956 1747 
Q 2956 2369 2687 2733 
Q 2419 3097 1959 3097 
z
M 1959 3584 
Q 2709 3584 3137 3096 
Q 3566 2609 3566 1747 
Q 3566 888 3137 398 
Q 2709 -91 1959 -91 
Q 1206 -91 779 398 
Q 353 888 353 1747 
Q 353 2609 779 3096 
Q 1206 3584 1959 3584 
z
" transform="scale(0.015625)"/>
       <path id="DejaVuSans-74" d="M 1172 4494 
L 1172 3500 
L 2356 3500 
L 2356 3053 
L 1172 3053 
L 1172 1153 
Q 1172 725 1289 603 
Q 1406 481 1766 481 
L 2356 481 
L 2356 0 
L 1766 0 
Q 1100 0 847 248 
Q 594 497 594 1153 
L 594 3053 
L 172 3053 
L 172 3500 
L 594 3500 
L 594 4494 
L 1172 4494 
z
" transform="scale(0.015625)"/>
       <path id="DejaVuSans-20" transform="scale(0.015625)"/>
       <path id="DejaVuSans-63" d="M 3122 3366 
L 3122 2828 
Q 2878 2963 2633 3030 
Q 2388 3097 2138 3097 
Q 1578 3097 1268 2742 
Q 959 2388 959 1747 
Q 959 1106 1268 751 
Q 1578 397 2138 397 
Q 2388 397 2633 464 
Q 2878 531 3122 666 
L 3122 134 
Q 2881 22 2623 -34 
Q 2366 -91 2075 -91 
Q 1284 -91 818 406 
Q 353 903 353 1747 
Q 353 2603 823 3093 
Q 1294 3584 2113 3584 
Q 2378 3584 2631 3529 
Q 2884 3475 3122 3366 
z
" transform="scale(0.015625)"/>
       <path id="DejaVuSans-75" d="M 544 1381 
L 544 3500 
L 1119 3500 
L 1119 1403 
Q 1119 906 1312 657 
Q 1506 409 1894 409 
Q 2359 409 2629 706 
Q 2900 1003 2900 1516 
L 2900 3500 
L 3475 3500 
L 3475 0 
L 2900 0 
L 2900 538 
Q 2691 219 2414 64 
Q 2138 -91 1772 -91 
Q 1169 -91 856 284 
Q 544 659 544 1381 
z
M 1991 3584 
L 1991 3584 
z
" transform="scale(0.015625)"/>
       <path id="DejaVuSans-6d" d="M 3328 2828 
Q 3544 3216 3844 3400 
Q 4144 3584 4550 3584 
Q 5097 3584 5394 3201 
Q 5691 2819 5691 2113 
L 5691 0 
L 5113 0 
L 5113 2094 
Q 5113 2597 4934 2840 
Q 4756 3084 4391 3084 
Q 3944 3084 3684 2787 
Q 3425 2491 3425 1978 
L 3425 0 
L 2847 0 
L 2847 2094 
Q 2847 2600 2669 2842 
Q 2491 3084 2119 3084 
Q 1678 3084 1418 2786 
Q 1159 2488 1159 1978 
L 1159 0 
L 581 0 
L 581 3500 
L 1159 3500 
L 1159 2956 
Q 1356 3278 1631 3431 
Q 1906 3584 2284 3584 
Q 2666 3584 2933 3390 
Q 3200 3197 3328 2828 
z
" transform="scale(0.015625)"/>
       <path id="DejaVuSans-64" d="M 2906 2969 
L 2906 4863 
L 3481 4863 
L 3481 0 
L 2906 0 
L 2906 525 
Q 2725 213 2448 61 
Q 2172 -91 1784 -91 
Q 1150 -91 751 415 
Q 353 922 353 1747 
Q 353 2572 751 3078 
Q 1150 3584 1784 3584 
Q 2172 3584 2448 3432 
Q 2725 3281 2906 2969 
z
M 947 1747 
Q 947 1113 1208 752 
Q 1469 391 1925 391 
Q 2381 391 2643 752 
Q 2906 1113 2906 1747 
Q 2906 2381 2643 2742 
Q 2381 3103 1925 3103 
Q 1469 3103 1208 2742 
Q 947 2381 947 1747 
z
" transform="scale(0.015625)"/>
      </defs>
      <use xlink:href="#DejaVuSans-50"/>
      <use xlink:href="#DejaVuSans-6f" x="56.677734"/>
      <use xlink:href="#DejaVuSans-73" x="117.859375"/>
      <use xlink:href="#DejaVuSans-69" x="169.958984"/>
      <use xlink:href="#DejaVuSans-74" x="197.742188"/>
      <use xlink:href="#DejaVuSans-69" x="236.951172"/>
      <use xlink:href="#DejaVuSans-76" x="264.734375"/>
      <use xlink:href="#DejaVuSans-65" x="323.914062"/>
      <use xlink:href="#DejaVuSans-20" x="385.4375"/>
      <use xlink:href="#DejaVuSans-63" x="417.224609"/>
      <use xlink:href="#DejaVuSans-75" x="472.205078"/>
      <use xlink:href="#DejaVuSans-6d" x="535.583984"/>
      <use xlink:href="#DejaVuSans-75" x="632.996094"/>
      <use xlink:href="#DejaVuSans-6c" x="696.375"/>
      <use xlink:href="#DejaVuSans-61" x="724.158203"/>
      <use xlink:href="#DejaVuSans-74" x="785.4375"/>
      <use xlink:href="#DejaVuSans-69" x="824.646484"/>
      <use xlink:href="#DejaVuSans-76" x="852.429688"/>
      <use xlink:href="#DejaVuSans-65" x="911.609375"/>
      <use xlink:href="#DejaVuSans-20" x="973.132812"/>
      <use xlink:href="#DejaVuSans-70" x="1004.919922"/>
      <use xlink:href="#DejaVuSans-72" x="1068.396484"/>
      <use xlink:href="#DejaVuSans-65" x="1107.259766"/>
      <use xlink:href="#DejaVuSans-64" x="1168.783203"/>
      <use xlink:href="#DejaVuSans-69" x="1232.259766"/>
      <use xlink:href="#DejaVuSans-63" x="1260.042969"/>
      <use xlink:href="#DejaVuSans-74" x="1315.023438"/>
      <use xlink:href="#DejaVuSans-69" x="1354.232422"/>
      <use xlink:href="#DejaVuSans-6f" x="1382.015625"/>
      <use xlink:href="#DejaVuSans-6e" x="1443.197266"/>
      <use xlink:href="#DejaVuSans-73" x="1506.576172"/>
     </g>
    </g>
    <g id="line2d_18">
     <path d="M 66.6 69.248563 
L 76.6 69.248563 
L 86.6 69.248563 
" style="fill: none; stroke: #ff7f0e; stroke-opacity: 0.7; stroke-width: 1.5; stroke-linecap: square"/>
    </g>
    <g id="text_16">
     <!-- Negative cumulative predictions -->
     <g transform="translate(94.6 72.748563) scale(0.1 -0.1)">
      <defs>
       <path id="DejaVuSans-4e" d="M 628 4666 
L 1478 4666 
L 3547 763 
L 3547 4666 
L 4159 4666 
L 4159 0 
L 3309 0 
L 1241 3903 
L 1241 0 
L 628 0 
L 628 4666 
z
" transform="scale(0.015625)"/>
       <path id="DejaVuSans-67" d="M 2906 1791 
Q 2906 2416 2648 2759 
Q 2391 3103 1925 3103 
Q 1463 3103 1205 2759 
Q 947 2416 947 1791 
Q 947 1169 1205 825 
Q 1463 481 1925 481 
Q 2391 481 2648 825 
Q 2906 1169 2906 1791 
z
M 3481 434 
Q 3481 -459 3084 -895 
Q 2688 -1331 1869 -1331 
Q 1566 -1331 1297 -1286 
Q 1028 -1241 775 -1147 
L 775 -588 
Q 1028 -725 1275 -790 
Q 1522 -856 1778 -856 
Q 2344 -856 2625 -561 
Q 2906 -266 2906 331 
L 2906 616 
Q 2728 306 2450 153 
Q 2172 0 1784 0 
Q 1141 0 747 490 
Q 353 981 353 1791 
Q 353 2603 747 3093 
Q 1141 3584 1784 3584 
Q 2172 3584 2450 3431 
Q 2728 3278 2906 2969 
L 2906 3500 
L 3481 3500 
L 3481 434 
z
" transform="scale(0.015625)"/>
      </defs>
      <use xlink:href="#DejaVuSans-4e"/>
      <use xlink:href="#DejaVuSans-65" x="74.804688"/>
      <use xlink:href="#DejaVuSans-67" x="136.328125"/>
      <use xlink:href="#DejaVuSans-61" x="199.804688"/>
      <use xlink:href="#DejaVuSans-74" x="261.083984"/>
      <use xlink:href="#DejaVuSans-69" x="300.292969"/>
      <use xlink:href="#DejaVuSans-76" x="328.076172"/>
      <use xlink:href="#DejaVuSans-65" x="387.255859"/>
      <use xlink:href="#DejaVuSans-20" x="448.779297"/>
      <use xlink:href="#DejaVuSans-63" x="480.566406"/>
      <use xlink:href="#DejaVuSans-75" x="535.546875"/>
      <use xlink:href="#DejaVuSans-6d" x="598.925781"/>
      <use xlink:href="#DejaVuSans-75" x="696.337891"/>
      <use xlink:href="#DejaVuSans-6c" x="759.716797"/>
      <use xlink:href="#DejaVuSans-61" x="787.5"/>
      <use xlink:href="#DejaVuSans-74" x="848.779297"/>
      <use xlink:href="#DejaVuSans-69" x="887.988281"/>
      <use xlink:href="#DejaVuSans-76" x="915.771484"/>
      <use xlink:href="#DejaVuSans-65" x="974.951172"/>
      <use xlink:href="#DejaVuSans-20" x="1036.474609"/>
      <use xlink:href="#DejaVuSans-70" x="1068.261719"/>
      <use xlink:href="#DejaVuSans-72" x="1131.738281"/>
      <use xlink:href="#DejaVuSans-65" x="1170.601562"/>
      <use xlink:href="#DejaVuSans-64" x="1232.125"/>
      <use xlink:href="#DejaVuSans-69" x="1295.601562"/>
      <use xlink:href="#DejaVuSans-63" x="1323.384766"/>
      <use xlink:href="#DejaVuSans-74" x="1378.365234"/>
      <use xlink:href="#DejaVuSans-69" x="1417.574219"/>
      <use xlink:href="#DejaVuSans-6f" x="1445.357422"/>
      <use xlink:href="#DejaVuSans-6e" x="1506.539062"/>
      <use xlink:href="#DejaVuSans-73" x="1569.917969"/>
     </g>
    </g>
    <g id="line2d_19">
     <path d="M 66.6 83.926688 
L 76.6 83.926688 
L 86.6 83.926688 
" style="fill: none; stroke: #2ca02c; stroke-opacity: 0.7; stroke-width: 1.5; stroke-linecap: square"/>
    </g>
    <g id="text_17">
     <!-- Average cumulative predictions -->
     <g transform="translate(94.6 87.426688) scale(0.1 -0.1)">
      <defs>
       <path id="DejaVuSans-41" d="M 2188 4044 
L 1331 1722 
L 3047 1722 
L 2188 4044 
z
M 1831 4666 
L 2547 4666 
L 4325 0 
L 3669 0 
L 3244 1197 
L 1141 1197 
L 716 0 
L 50 0 
L 1831 4666 
z
" transform="scale(0.015625)"/>
      </defs>
      <use xlink:href="#DejaVuSans-41"/>
      <use xlink:href="#DejaVuSans-76" x="62.533203"/>
      <use xlink:href="#DejaVuSans-65" x="121.712891"/>
      <use xlink:href="#DejaVuSans-72" x="183.236328"/>
      <use xlink:href="#DejaVuSans-61" x="224.349609"/>
      <use xlink:href="#DejaVuSans-67" x="285.628906"/>
      <use xlink:href="#DejaVuSans-65" x="349.105469"/>
      <use xlink:href="#DejaVuSans-20" x="410.628906"/>
      <use xlink:href="#DejaVuSans-63" x="442.416016"/>
      <use xlink:href="#DejaVuSans-75" x="497.396484"/>
      <use xlink:href="#DejaVuSans-6d" x="560.775391"/>
      <use xlink:href="#DejaVuSans-75" x="658.1875"/>
      <use xlink:href="#DejaVuSans-6c" x="721.566406"/>
      <use xlink:href="#DejaVuSans-61" x="749.349609"/>
      <use xlink:href="#DejaVuSans-74" x="810.628906"/>
      <use xlink:href="#DejaVuSans-69" x="849.837891"/>
      <use xlink:href="#DejaVuSans-76" x="877.621094"/>
      <use xlink:href="#DejaVuSans-65" x="936.800781"/>
      <use xlink:href="#DejaVuSans-20" x="998.324219"/>
      <use xlink:href="#DejaVuSans-70" x="1030.111328"/>
      <use xlink:href="#DejaVuSans-72" x="1093.587891"/>
      <use xlink:href="#DejaVuSans-65" x="1132.451172"/>
      <use xlink:href="#DejaVuSans-64" x="1193.974609"/>
      <use xlink:href="#DejaVuSans-69" x="1257.451172"/>
      <use xlink:href="#DejaVuSans-63" x="1285.234375"/>
      <use xlink:href="#DejaVuSans-74" x="1340.214844"/>
      <use xlink:href="#DejaVuSans-69" x="1379.423828"/>
      <use xlink:href="#DejaVuSans-6f" x="1407.207031"/>
      <use xlink:href="#DejaVuSans-6e" x="1468.388672"/>
      <use xlink:href="#DejaVuSans-73" x="1531.767578"/>
     </g>
    </g>
   </g>
  </g>
 </g>
 <defs>
  <clipPath id="pb13fb407b9">
   <rect x="57.6" y="41.472" width="357.12" height="266.112"/>
  </clipPath>
 </defs>
</svg>
