<?xml version="1.0" encoding="utf-8" standalone="no"?>
<!DOCTYPE svg PUBLIC "-//W3C//DTD SVG 1.1//EN"
  "http://www.w3.org/Graphics/SVG/1.1/DTD/svg11.dtd">
<svg xmlns:xlink="http://www.w3.org/1999/xlink" width="460.8pt" height="345.6pt" viewBox="0 0 460.8 345.6" xmlns="http://www.w3.org/2000/svg" version="1.1">
 <metadata>
  <rdf:RDF xmlns:dc="http://purl.org/dc/elements/1.1/" xmlns:cc="http://creativecommons.org/ns#" xmlns:rdf="http://www.w3.org/1999/02/22-rdf-syntax-ns#">
   <cc:Work>
    <dc:type rdf:resource="http://purl.org/dc/dcmitype/StillImage"/>
    <dc:date>2024-09-06T11:24:44.000776</dc:date>
    <dc:format>image/svg+xml</dc:format>
    <dc:creator>
     <cc:Agent>
      <dc:title>Matplotlib v3.9.0, https://matplotlib.org/</dc:title>
     </cc:Agent>
    </dc:creator>
   </cc:Work>
  </rdf:RDF>
 </metadata>
 <defs>
  <style type="text/css">*{stroke-linejoin: round; stroke-linecap: butt}</style>
 </defs>
 <g id="figure_1">
  <g id="patch_1">
   <path d="M 0 345.6 
L 460.8 345.6 
L 460.8 0 
L 0 0 
z
" style="fill: #ffffff"/>
  </g>
  <g id="axes_1">
   <g id="patch_2">
    <path d="M 57.6 307.584 
L 414.72 307.584 
L 414.72 41.472 
L 57.6 41.472 
z
" style="fill: #ffffff"/>
   </g>
   <g id="matplotlib.axis_1">
    <g id="xtick_1">
     <g id="line2d_1">
      <defs>
       <path id="maae27bfa03" d="M 0 0 
L 0 3.5 
" style="stroke: #000000; stroke-width: 0.8"/>
      </defs>
      <g>
       <use xlink:href="#maae27bfa03" x="73.832727" y="307.584" style="stroke: #000000; stroke-width: 0.8"/>
      </g>
     </g>
     <g id="text_1">
      <!-- 0 -->
      <g transform="translate(70.651477 322.182437) scale(0.1 -0.1)">
       <defs>
        <path id="DejaVuSans-30" d="M 2034 4250 
Q 1547 4250 1301 3770 
Q 1056 3291 1056 2328 
Q 1056 1369 1301 889 
Q 1547 409 2034 409 
Q 2525 409 2770 889 
Q 3016 1369 3016 2328 
Q 3016 3291 2770 3770 
Q 2525 4250 2034 4250 
z
M 2034 4750 
Q 2819 4750 3233 4129 
Q 3647 3509 3647 2328 
Q 3647 1150 3233 529 
Q 2819 -91 2034 -91 
Q 1250 -91 836 529 
Q 422 1150 422 2328 
Q 422 3509 836 4129 
Q 1250 4750 2034 4750 
z
" transform="scale(0.015625)"/>
       </defs>
       <use xlink:href="#DejaVuSans-30"/>
      </g>
     </g>
    </g>
    <g id="xtick_2">
     <g id="line2d_2">
      <g>
       <use xlink:href="#maae27bfa03" x="149.333784" y="307.584" style="stroke: #000000; stroke-width: 0.8"/>
      </g>
     </g>
     <g id="text_2">
      <!-- 50 -->
      <g transform="translate(142.971284 322.182437) scale(0.1 -0.1)">
       <defs>
        <path id="DejaVuSans-35" d="M 691 4666 
L 3169 4666 
L 3169 4134 
L 1269 4134 
L 1269 2991 
Q 1406 3038 1543 3061 
Q 1681 3084 1819 3084 
Q 2600 3084 3056 2656 
Q 3513 2228 3513 1497 
Q 3513 744 3044 326 
Q 2575 -91 1722 -91 
Q 1428 -91 1123 -41 
Q 819 9 494 109 
L 494 744 
Q 775 591 1075 516 
Q 1375 441 1709 441 
Q 2250 441 2565 725 
Q 2881 1009 2881 1497 
Q 2881 1984 2565 2268 
Q 2250 2553 1709 2553 
Q 1456 2553 1204 2497 
Q 953 2441 691 2322 
L 691 4666 
z
" transform="scale(0.015625)"/>
       </defs>
       <use xlink:href="#DejaVuSans-35"/>
       <use xlink:href="#DejaVuSans-30" x="63.623047"/>
      </g>
     </g>
    </g>
    <g id="xtick_3">
     <g id="line2d_3">
      <g>
       <use xlink:href="#maae27bfa03" x="224.834841" y="307.584" style="stroke: #000000; stroke-width: 0.8"/>
      </g>
     </g>
     <g id="text_3">
      <!-- 100 -->
      <g transform="translate(215.291091 322.182437) scale(0.1 -0.1)">
       <defs>
        <path id="DejaVuSans-31" d="M 794 531 
L 1825 531 
L 1825 4091 
L 703 3866 
L 703 4441 
L 1819 4666 
L 2450 4666 
L 2450 531 
L 3481 531 
L 3481 0 
L 794 0 
L 794 531 
z
" transform="scale(0.015625)"/>
       </defs>
       <use xlink:href="#DejaVuSans-31"/>
       <use xlink:href="#DejaVuSans-30" x="63.623047"/>
       <use xlink:href="#DejaVuSans-30" x="127.246094"/>
      </g>
     </g>
    </g>
    <g id="xtick_4">
     <g id="line2d_4">
      <g>
       <use xlink:href="#maae27bfa03" x="300.335899" y="307.584" style="stroke: #000000; stroke-width: 0.8"/>
      </g>
     </g>
     <g id="text_4">
      <!-- 150 -->
      <g transform="translate(290.792149 322.182437) scale(0.1 -0.1)">
       <use xlink:href="#DejaVuSans-31"/>
       <use xlink:href="#DejaVuSans-35" x="63.623047"/>
       <use xlink:href="#DejaVuSans-30" x="127.246094"/>
      </g>
     </g>
    </g>
    <g id="xtick_5">
     <g id="line2d_5">
      <g>
       <use xlink:href="#maae27bfa03" x="375.836956" y="307.584" style="stroke: #000000; stroke-width: 0.8"/>
      </g>
     </g>
     <g id="text_5">
      <!-- 200 -->
      <g transform="translate(366.293206 322.182437) scale(0.1 -0.1)">
       <defs>
        <path id="DejaVuSans-32" d="M 1228 531 
L 3431 531 
L 3431 0 
L 469 0 
L 469 531 
Q 828 903 1448 1529 
Q 2069 2156 2228 2338 
Q 2531 2678 2651 2914 
Q 2772 3150 2772 3378 
Q 2772 3750 2511 3984 
Q 2250 4219 1831 4219 
Q 1534 4219 1204 4116 
Q 875 4013 500 3803 
L 500 4441 
Q 881 4594 1212 4672 
Q 1544 4750 1819 4750 
Q 2544 4750 2975 4387 
Q 3406 4025 3406 3419 
Q 3406 3131 3298 2873 
Q 3191 2616 2906 2266 
Q 2828 2175 2409 1742 
Q 1991 1309 1228 531 
z
" transform="scale(0.015625)"/>
       </defs>
       <use xlink:href="#DejaVuSans-32"/>
       <use xlink:href="#DejaVuSans-30" x="63.623047"/>
       <use xlink:href="#DejaVuSans-30" x="127.246094"/>
      </g>
     </g>
    </g>
   </g>
   <g id="matplotlib.axis_2">
    <g id="ytick_1">
     <g id="line2d_6">
      <defs>
       <path id="m6dcd37b0a0" d="M 0 0 
L -3.5 0 
" style="stroke: #000000; stroke-width: 0.8"/>
      </defs>
      <g>
       <use xlink:href="#m6dcd37b0a0" x="57.6" y="305.607708" style="stroke: #000000; stroke-width: 0.8"/>
      </g>
     </g>
     <g id="text_6">
      <!-- −8000 -->
      <g transform="translate(16.770313 309.406927) scale(0.1 -0.1)">
       <defs>
        <path id="DejaVuSans-2212" d="M 678 2272 
L 4684 2272 
L 4684 1741 
L 678 1741 
L 678 2272 
z
" transform="scale(0.015625)"/>
        <path id="DejaVuSans-38" d="M 2034 2216 
Q 1584 2216 1326 1975 
Q 1069 1734 1069 1313 
Q 1069 891 1326 650 
Q 1584 409 2034 409 
Q 2484 409 2743 651 
Q 3003 894 3003 1313 
Q 3003 1734 2745 1975 
Q 2488 2216 2034 2216 
z
M 1403 2484 
Q 997 2584 770 2862 
Q 544 3141 544 3541 
Q 544 4100 942 4425 
Q 1341 4750 2034 4750 
Q 2731 4750 3128 4425 
Q 3525 4100 3525 3541 
Q 3525 3141 3298 2862 
Q 3072 2584 2669 2484 
Q 3125 2378 3379 2068 
Q 3634 1759 3634 1313 
Q 3634 634 3220 271 
Q 2806 -91 2034 -91 
Q 1263 -91 848 271 
Q 434 634 434 1313 
Q 434 1759 690 2068 
Q 947 2378 1403 2484 
z
M 1172 3481 
Q 1172 3119 1398 2916 
Q 1625 2713 2034 2713 
Q 2441 2713 2670 2916 
Q 2900 3119 2900 3481 
Q 2900 3844 2670 4047 
Q 2441 4250 2034 4250 
Q 1625 4250 1398 4047 
Q 1172 3844 1172 3481 
z
" transform="scale(0.015625)"/>
       </defs>
       <use xlink:href="#DejaVuSans-2212"/>
       <use xlink:href="#DejaVuSans-38" x="83.789062"/>
       <use xlink:href="#DejaVuSans-30" x="147.412109"/>
       <use xlink:href="#DejaVuSans-30" x="211.035156"/>
       <use xlink:href="#DejaVuSans-30" x="274.658203"/>
      </g>
     </g>
    </g>
    <g id="ytick_2">
     <g id="line2d_7">
      <g>
       <use xlink:href="#m6dcd37b0a0" x="57.6" y="274.172117" style="stroke: #000000; stroke-width: 0.8"/>
      </g>
     </g>
     <g id="text_7">
      <!-- −6000 -->
      <g transform="translate(16.770313 277.971336) scale(0.1 -0.1)">
       <defs>
        <path id="DejaVuSans-36" d="M 2113 2584 
Q 1688 2584 1439 2293 
Q 1191 2003 1191 1497 
Q 1191 994 1439 701 
Q 1688 409 2113 409 
Q 2538 409 2786 701 
Q 3034 994 3034 1497 
Q 3034 2003 2786 2293 
Q 2538 2584 2113 2584 
z
M 3366 4563 
L 3366 3988 
Q 3128 4100 2886 4159 
Q 2644 4219 2406 4219 
Q 1781 4219 1451 3797 
Q 1122 3375 1075 2522 
Q 1259 2794 1537 2939 
Q 1816 3084 2150 3084 
Q 2853 3084 3261 2657 
Q 3669 2231 3669 1497 
Q 3669 778 3244 343 
Q 2819 -91 2113 -91 
Q 1303 -91 875 529 
Q 447 1150 447 2328 
Q 447 3434 972 4092 
Q 1497 4750 2381 4750 
Q 2619 4750 2861 4703 
Q 3103 4656 3366 4563 
z
" transform="scale(0.015625)"/>
       </defs>
       <use xlink:href="#DejaVuSans-2212"/>
       <use xlink:href="#DejaVuSans-36" x="83.789062"/>
       <use xlink:href="#DejaVuSans-30" x="147.412109"/>
       <use xlink:href="#DejaVuSans-30" x="211.035156"/>
       <use xlink:href="#DejaVuSans-30" x="274.658203"/>
      </g>
     </g>
    </g>
    <g id="ytick_3">
     <g id="line2d_8">
      <g>
       <use xlink:href="#m6dcd37b0a0" x="57.6" y="242.736526" style="stroke: #000000; stroke-width: 0.8"/>
      </g>
     </g>
     <g id="text_8">
      <!-- −4000 -->
      <g transform="translate(16.770313 246.535745) scale(0.1 -0.1)">
       <defs>
        <path id="DejaVuSans-34" d="M 2419 4116 
L 825 1625 
L 2419 1625 
L 2419 4116 
z
M 2253 4666 
L 3047 4666 
L 3047 1625 
L 3713 1625 
L 3713 1100 
L 3047 1100 
L 3047 0 
L 2419 0 
L 2419 1100 
L 313 1100 
L 313 1709 
L 2253 4666 
z
" transform="scale(0.015625)"/>
       </defs>
       <use xlink:href="#DejaVuSans-2212"/>
       <use xlink:href="#DejaVuSans-34" x="83.789062"/>
       <use xlink:href="#DejaVuSans-30" x="147.412109"/>
       <use xlink:href="#DejaVuSans-30" x="211.035156"/>
       <use xlink:href="#DejaVuSans-30" x="274.658203"/>
      </g>
     </g>
    </g>
    <g id="ytick_4">
     <g id="line2d_9">
      <g>
       <use xlink:href="#m6dcd37b0a0" x="57.6" y="211.300935" style="stroke: #000000; stroke-width: 0.8"/>
      </g>
     </g>
     <g id="text_9">
      <!-- −2000 -->
      <g transform="translate(16.770313 215.100154) scale(0.1 -0.1)">
       <use xlink:href="#DejaVuSans-2212"/>
       <use xlink:href="#DejaVuSans-32" x="83.789062"/>
       <use xlink:href="#DejaVuSans-30" x="147.412109"/>
       <use xlink:href="#DejaVuSans-30" x="211.035156"/>
       <use xlink:href="#DejaVuSans-30" x="274.658203"/>
      </g>
     </g>
    </g>
    <g id="ytick_5">
     <g id="line2d_10">
      <g>
       <use xlink:href="#m6dcd37b0a0" x="57.6" y="179.865345" style="stroke: #000000; stroke-width: 0.8"/>
      </g>
     </g>
     <g id="text_10">
      <!-- 0 -->
      <g transform="translate(44.2375 183.664563) scale(0.1 -0.1)">
       <use xlink:href="#DejaVuSans-30"/>
      </g>
     </g>
    </g>
    <g id="ytick_6">
     <g id="line2d_11">
      <g>
       <use xlink:href="#m6dcd37b0a0" x="57.6" y="148.429754" style="stroke: #000000; stroke-width: 0.8"/>
      </g>
     </g>
     <g id="text_11">
      <!-- 2000 -->
      <g transform="translate(25.15 152.228972) scale(0.1 -0.1)">
       <use xlink:href="#DejaVuSans-32"/>
       <use xlink:href="#DejaVuSans-30" x="63.623047"/>
       <use xlink:href="#DejaVuSans-30" x="127.246094"/>
       <use xlink:href="#DejaVuSans-30" x="190.869141"/>
      </g>
     </g>
    </g>
    <g id="ytick_7">
     <g id="line2d_12">
      <g>
       <use xlink:href="#m6dcd37b0a0" x="57.6" y="116.994163" style="stroke: #000000; stroke-width: 0.8"/>
      </g>
     </g>
     <g id="text_12">
      <!-- 4000 -->
      <g transform="translate(25.15 120.793381) scale(0.1 -0.1)">
       <use xlink:href="#DejaVuSans-34"/>
       <use xlink:href="#DejaVuSans-30" x="63.623047"/>
       <use xlink:href="#DejaVuSans-30" x="127.246094"/>
       <use xlink:href="#DejaVuSans-30" x="190.869141"/>
      </g>
     </g>
    </g>
    <g id="ytick_8">
     <g id="line2d_13">
      <g>
       <use xlink:href="#m6dcd37b0a0" x="57.6" y="85.558572" style="stroke: #000000; stroke-width: 0.8"/>
      </g>
     </g>
     <g id="text_13">
      <!-- 6000 -->
      <g transform="translate(25.15 89.357791) scale(0.1 -0.1)">
       <use xlink:href="#DejaVuSans-36"/>
       <use xlink:href="#DejaVuSans-30" x="63.623047"/>
       <use xlink:href="#DejaVuSans-30" x="127.246094"/>
       <use xlink:href="#DejaVuSans-30" x="190.869141"/>
      </g>
     </g>
    </g>
    <g id="ytick_9">
     <g id="line2d_14">
      <g>
       <use xlink:href="#m6dcd37b0a0" x="57.6" y="54.122981" style="stroke: #000000; stroke-width: 0.8"/>
      </g>
     </g>
     <g id="text_14">
      <!-- 8000 -->
      <g transform="translate(25.15 57.9222) scale(0.1 -0.1)">
       <use xlink:href="#DejaVuSans-38"/>
       <use xlink:href="#DejaVuSans-30" x="63.623047"/>
       <use xlink:href="#DejaVuSans-30" x="127.246094"/>
       <use xlink:href="#DejaVuSans-30" x="190.869141"/>
      </g>
     </g>
    </g>
   </g>
   <g id="line2d_15">
    <path d="M 73.832727 186.472751 
L 75.342748 181.983469 
L 76.85277 182.430274 
L 78.362791 181.4932 
L 79.872812 182.563968 
L 81.382833 180.18676 
L 82.892854 182.224511 
L 84.402875 183.131057 
L 85.912896 180.871316 
L 87.422918 181.007487 
L 88.932939 181.458088 
L 90.44296 180.757098 
L 91.952981 180.405191 
L 93.463002 181.701391 
L 94.973023 180.311995 
L 97.993066 180.99863 
L 99.503087 180.251613 
L 101.013108 179.107002 
L 102.523129 181.846217 
L 104.03315 180.998516 
L 105.543171 179.567298 
L 107.053192 181.681754 
L 108.563214 181.180395 
L 110.073235 180.277576 
L 111.583256 180.554732 
L 113.093277 180.187957 
L 114.603298 180.282589 
L 116.113319 179.530991 
L 117.62334 181.233581 
L 120.643383 181.166835 
L 122.153404 181.05383 
L 123.663425 180.629313 
L 125.173446 180.37211 
L 126.683467 180.397187 
L 128.193488 180.096879 
L 129.70351 180.436109 
L 131.213531 180.107345 
L 132.723552 180.690164 
L 135.743594 180.026052 
L 137.253615 181.392334 
L 138.763636 179.907968 
L 140.273658 180.212345 
L 141.783679 181.407034 
L 143.2937 181.049241 
L 144.803721 181.102525 
L 146.313742 179.800767 
L 147.823763 183.343003 
L 149.333784 182.210153 
L 150.843805 181.433028 
L 152.353827 181.599354 
L 153.863848 184.256657 
L 155.373869 181.988867 
L 156.88389 179.277829 
L 158.393911 183.084801 
L 159.903932 181.934077 
L 161.413953 180.337158 
L 162.923975 180.044977 
L 164.433996 182.104586 
L 165.944017 180.843493 
L 167.454038 180.583717 
L 168.964059 181.930554 
L 170.47408 180.338779 
L 171.984101 179.70198 
L 173.494123 181.668626 
L 175.004144 180.71894 
L 176.514165 181.128091 
L 178.024186 180.427544 
L 179.534207 182.033281 
L 181.044228 180.592682 
L 182.554249 181.934044 
L 184.064271 180.810383 
L 185.574292 179.360741 
L 187.084313 181.225376 
L 188.594334 181.050763 
L 190.104355 183.914826 
L 191.614376 181.862396 
L 193.124397 181.6764 
L 194.634419 180.622074 
L 196.14444 182.313272 
L 197.654461 180.760474 
L 199.164482 182.272078 
L 200.674503 180.88026 
L 202.184524 181.256787 
L 203.694545 180.030823 
L 205.204567 180.217917 
L 206.714588 181.021449 
L 208.224609 179.883662 
L 209.73463 180.498079 
L 212.754672 181.057587 
L 214.264693 180.025624 
L 215.774715 181.223265 
L 217.284736 182.878283 
L 218.794757 180.925805 
L 220.304778 180.103244 
L 221.814799 180.635381 
L 223.32482 182.323784 
L 224.834841 183.331804 
L 226.344863 180.796236 
L 227.854884 183.168637 
L 229.364905 183.087542 
L 230.874926 181.863746 
L 232.384947 184.583027 
L 233.894968 184.804953 
L 235.404989 189.137446 
L 236.915011 178.887296 
L 238.425032 190.225391 
L 239.935053 191.724156 
L 241.445074 173.052252 
L 242.955095 205.304536 
L 244.465116 187.372348 
L 245.975137 190.156355 
L 247.485159 189.865177 
L 248.99518 188.337169 
L 250.505201 181.51355 
L 252.015222 186.118544 
L 253.525243 189.896772 
L 255.035264 188.578648 
L 256.545285 193.391781 
L 258.055307 191.804208 
L 259.565328 181.013921 
L 261.075349 191.359736 
L 262.58537 181.322423 
L 264.095391 188.037054 
L 265.605412 179.333958 
L 267.115433 191.496068 
L 268.625455 191.994851 
L 270.135476 183.207933 
L 271.645497 180.281455 
L 273.155518 183.658042 
L 274.665539 199.468892 
L 276.17556 194.293907 
L 277.685581 182.538216 
L 279.195603 190.390232 
L 280.705624 189.948271 
L 282.215645 189.957335 
L 283.725666 186.59995 
L 285.235687 181.059869 
L 286.745708 192.824428 
L 288.255729 184.283542 
L 289.765751 184.679546 
L 291.275772 183.480164 
L 292.785793 191.112037 
L 294.295814 188.109205 
L 295.805835 180.151194 
L 297.315856 198.826831 
L 298.825877 185.412505 
L 300.335899 189.559928 
L 301.84592 185.769593 
L 303.355941 182.440178 
L 304.865962 185.739646 
L 306.375983 181.852096 
L 307.886004 175.125119 
L 309.396025 193.818956 
L 310.906047 183.635664 
L 312.416068 180.454127 
L 313.926089 182.280153 
L 315.43611 188.169299 
L 316.946131 182.655661 
L 318.456152 183.692287 
L 319.966173 181.829247 
L 321.476195 179.427767 
L 322.986216 180.291081 
L 324.496237 181.555172 
L 326.006258 182.447393 
L 327.516279 183.785038 
L 329.0263 184.429851 
L 332.046342 181.535964 
L 333.556364 182.69954 
L 335.066385 180.906322 
L 336.576406 182.94104 
L 338.086427 184.040445 
L 339.596448 182.433269 
L 341.106469 181.928157 
L 342.61649 181.851996 
L 344.126512 181.182485 
L 345.636533 181.939482 
L 347.146554 180.15798 
L 348.656575 182.006262 
L 350.166596 181.360624 
L 351.676617 184.194604 
L 353.186638 182.031003 
L 354.69666 186.295902 
L 356.206681 184.293254 
L 357.716702 183.508368 
L 359.226723 183.043391 
L 360.736744 180.284707 
L 362.246765 183.561906 
L 363.756786 181.979723 
L 365.266808 181.215566 
L 366.776829 183.814111 
L 368.28685 180.449316 
L 369.796871 183.029534 
L 371.306892 180.599163 
L 372.816913 182.551937 
L 374.326934 180.171654 
L 375.836956 180.581581 
L 377.346977 182.040691 
L 378.856998 181.872937 
L 380.367019 183.97602 
L 381.87704 183.457953 
L 383.387061 182.137589 
L 384.897082 184.15753 
L 386.407104 178.964717 
L 387.917125 185.987856 
L 389.427146 183.483125 
L 390.937167 184.352532 
L 392.447188 181.785417 
L 393.957209 180.982689 
L 395.46723 182.672626 
L 396.977252 184.82144 
L 398.487273 179.809784 
L 398.487273 179.809784 
" clip-path="url(#p4225c01186)" style="fill: none; stroke: #008000; stroke-opacity: 0.8; stroke-width: 0.5; stroke-linecap: square"/>
   </g>
   <g id="line2d_16">
    <path d="M 73.832727 166.970267 
L 75.342748 163.612354 
L 76.85277 165.849783 
L 78.362791 167.189799 
L 81.382833 169.470859 
L 82.892854 171.704534 
L 84.402875 173.310072 
L 85.912896 163.130965 
L 87.422918 176.43957 
L 88.932939 172.955673 
L 90.44296 175.350204 
L 91.952981 175.423816 
L 93.463002 169.185135 
L 94.973023 170.026784 
L 96.483044 176.883987 
L 97.993066 171.541981 
L 99.503087 164.838518 
L 101.013108 174.294215 
L 102.523129 175.290288 
L 104.03315 177.34641 
L 105.543171 170.22562 
L 107.053192 176.550133 
L 108.563214 178.182653 
L 110.073235 179.485757 
L 111.583256 175.31049 
L 113.093277 179.408755 
L 114.603298 177.485704 
L 116.113319 170.509323 
L 117.62334 170.358282 
L 119.133362 176.730836 
L 120.643383 177.808751 
L 122.153404 175.94929 
L 123.663425 177.714827 
L 125.173446 174.744036 
L 126.683467 178.342575 
L 128.193488 178.169675 
L 129.70351 179.025047 
L 131.213531 173.897799 
L 132.723552 178.612659 
L 134.233573 179.320586 
L 135.743594 178.985975 
L 137.253615 177.611928 
L 138.763636 175.504374 
L 140.273658 176.268331 
L 141.783679 178.319705 
L 143.2937 163.230852 
L 144.803721 171.519026 
L 146.313742 171.637191 
L 147.823763 176.484803 
L 149.333784 173.52392 
L 150.843805 131.788707 
L 152.353827 166.647277 
L 153.863848 161.494327 
L 155.373869 175.985161 
L 156.88389 166.985432 
L 158.393911 170.39774 
L 159.903932 174.563022 
L 161.413953 175.058431 
L 162.923975 177.972629 
L 164.433996 164.548587 
L 165.944017 175.32454 
L 167.454038 177.557844 
L 168.964059 170.398381 
L 170.47408 173.059177 
L 171.984101 176.037919 
L 173.494123 175.757931 
L 175.004144 177.159996 
L 176.514165 176.517733 
L 178.024186 176.49141 
L 179.534207 177.108612 
L 181.044228 175.695029 
L 182.554249 175.68592 
L 184.064271 176.192638 
L 185.574292 170.239914 
L 187.084313 176.236974 
L 188.594334 168.488888 
L 190.104355 137.568582 
L 191.614376 174.336637 
L 193.124397 178.528998 
L 194.634419 172.844223 
L 196.14444 175.800323 
L 197.654461 175.894046 
L 199.164482 166.202513 
L 200.674503 173.448471 
L 202.184524 169.710158 
L 203.694545 171.766056 
L 205.204567 175.188472 
L 206.714588 177.466382 
L 208.224609 177.086526 
L 209.73463 161.573668 
L 211.244651 166.352403 
L 212.754672 172.308941 
L 214.264693 174.522597 
L 215.774715 162.320917 
L 217.284736 174.552024 
L 218.794757 173.237385 
L 220.304778 174.95054 
L 221.814799 175.794988 
L 223.32482 177.090294 
L 224.834841 171.682676 
L 226.344863 168.387705 
L 227.854884 172.055465 
L 229.364905 154.98971 
L 230.874926 167.158182 
L 232.384947 161.60495 
L 233.894968 156.840892 
L 235.404989 148.90712 
L 236.915011 115.179474 
L 238.425032 154.072662 
L 239.935053 150.825735 
L 241.445074 94.753705 
L 242.955095 141.662076 
L 244.465116 125.936999 
L 245.975137 140.110021 
L 247.485159 149.436286 
L 248.99518 150.859197 
L 250.505201 130.31435 
L 252.015222 124.021982 
L 253.525243 73.138873 
L 255.035264 114.89375 
L 256.545285 148.266994 
L 258.055307 133.660327 
L 259.565328 128.994157 
L 261.075349 142.355539 
L 262.58537 157.455256 
L 264.095391 168.507756 
L 265.605412 155.467867 
L 267.115433 153.378158 
L 268.625455 163.308934 
L 270.135476 149.859725 
L 271.645497 74.516329 
L 273.155518 116.945659 
L 274.665539 114.541266 
L 276.17556 153.98764 
L 277.685581 93.205157 
L 279.195603 145.098809 
L 280.705624 148.537991 
L 282.215645 135.479597 
L 283.725666 123.94588 
L 285.235687 135.953569 
L 286.745708 137.067243 
L 288.255729 132.853889 
L 289.765751 154.642243 
L 291.275772 139.458392 
L 292.785793 126.810018 
L 294.295814 156.920305 
L 295.805835 129.760188 
L 297.315856 165.566989 
L 298.825877 141.084498 
L 300.335899 166.93578 
L 301.84592 168.459168 
L 303.355941 145.277832 
L 304.865962 144.441977 
L 306.375983 145.952101 
L 307.886004 121.587658 
L 309.396025 159.967276 
L 310.906047 160.564802 
L 313.926089 130.215817 
L 315.43611 169.125792 
L 316.946131 164.535275 
L 318.456152 167.241568 
L 319.966173 163.168206 
L 321.476195 164.892702 
L 322.986216 166.999408 
L 324.496237 148.431181 
L 326.006258 167.100778 
L 327.516279 141.848756 
L 329.0263 174.181535 
L 330.536321 178.18319 
L 332.046342 176.440538 
L 333.556364 172.022073 
L 335.066385 161.645442 
L 336.576406 152.411314 
L 338.086427 177.164652 
L 339.596448 177.090002 
L 341.106469 172.240372 
L 342.61649 170.552545 
L 344.126512 177.853827 
L 345.636533 178.075312 
L 347.146554 161.597736 
L 348.656575 163.260606 
L 350.166596 163.790655 
L 351.676617 168.615547 
L 353.186638 164.502473 
L 354.69666 163.170518 
L 356.206681 165.138568 
L 357.716702 168.214887 
L 359.226723 169.207359 
L 360.736744 155.458179 
L 362.246765 162.435701 
L 363.756786 170.764943 
L 365.266808 167.878177 
L 366.776829 171.82183 
L 368.28685 159.531122 
L 369.796871 151.340309 
L 371.306892 170.433224 
L 372.816913 173.185997 
L 374.326934 161.413574 
L 375.836956 167.786658 
L 377.346977 176.457398 
L 378.856998 153.398204 
L 380.367019 160.472031 
L 381.87704 169.918206 
L 383.387061 171.984161 
L 384.897082 174.702939 
L 386.407104 167.704498 
L 387.917125 178.724282 
L 389.427146 164.973286 
L 390.937167 169.923804 
L 392.447188 150.958194 
L 393.957209 149.112393 
L 395.46723 141.596381 
L 396.977252 143.047729 
L 398.487273 163.683291 
L 398.487273 163.683291 
" clip-path="url(#p4225c01186)" style="fill: none; stroke: #32cd32; stroke-opacity: 0.8; stroke-width: 0.5; stroke-linecap: square"/>
   </g>
   <g id="line2d_17">
    <path d="M 73.832727 209.863544 
L 75.342748 197.646664 
L 76.85277 195.899921 
L 78.362791 195.223749 
L 79.872812 189.476799 
L 81.382833 189.531628 
L 82.892854 188.454272 
L 84.402875 194.629545 
L 87.422918 188.808673 
L 88.932939 187.806669 
L 90.44296 188.036796 
L 91.952981 182.968229 
L 93.463002 189.358268 
L 94.973023 186.669622 
L 96.483044 183.740418 
L 97.993066 188.970507 
L 99.503087 190.114874 
L 101.013108 184.03301 
L 102.523129 189.067016 
L 104.03315 184.099254 
L 105.543171 185.431724 
L 108.563214 183.511167 
L 110.073235 181.67181 
L 111.583256 184.540364 
L 113.093277 180.860121 
L 114.603298 181.129899 
L 116.113319 184.317414 
L 117.62334 191.43576 
L 119.133362 188.216601 
L 120.643383 183.492168 
L 122.153404 185.390989 
L 123.663425 186.314991 
L 125.173446 184.248685 
L 126.683467 181.512768 
L 128.193488 181.53126 
L 129.70351 184.592495 
L 131.213531 182.97479 
L 132.723552 182.649718 
L 134.233573 181.307827 
L 135.743594 180.69255 
L 137.253615 190.985236 
L 138.763636 182.167959 
L 140.273658 183.322314 
L 141.783679 184.116364 
L 143.2937 193.446143 
L 144.803721 199.250605 
L 146.313742 190.001166 
L 147.823763 189.831275 
L 149.333784 188.485936 
L 150.843805 204.157034 
L 152.353827 196.603216 
L 153.863848 204.594517 
L 155.373869 185.994118 
L 156.88389 190.663639 
L 158.393911 194.408987 
L 159.903932 190.46379 
L 161.413953 184.738744 
L 162.923975 182.600632 
L 164.433996 189.159903 
L 165.944017 187.205447 
L 167.454038 184.442255 
L 168.964059 202.806545 
L 170.47408 187.235955 
L 171.984101 183.274594 
L 173.494123 187.198709 
L 175.004144 183.852827 
L 176.514165 193.888462 
L 178.024186 185.542909 
L 179.534207 187.232428 
L 181.044228 190.990546 
L 182.554249 186.976641 
L 184.064271 187.69386 
L 185.574292 190.22617 
L 187.084313 185.819212 
L 188.594334 187.543529 
L 190.104355 201.567724 
L 191.614376 192.311139 
L 193.124397 188.56852 
L 194.634419 189.055397 
L 196.14444 194.488927 
L 197.654461 189.495883 
L 199.164482 191.318107 
L 200.674503 186.53682 
L 202.184524 191.286614 
L 203.694545 183.694376 
L 205.204567 185.740638 
L 206.714588 185.332652 
L 208.224609 181.038807 
L 209.73463 196.513874 
L 211.244651 187.173974 
L 212.754672 185.510389 
L 214.264693 185.651826 
L 215.774715 197.612424 
L 217.284736 187.035775 
L 218.794757 191.56842 
L 220.304778 182.987547 
L 221.814799 184.720608 
L 223.32482 193.417747 
L 224.834841 199.712761 
L 226.344863 195.879591 
L 227.854884 194.665752 
L 229.364905 202.198306 
L 230.874926 196.022195 
L 233.894968 218.947889 
L 235.404989 268.044357 
L 236.915011 232.906317 
L 238.425032 238.131141 
L 239.935053 295.488 
L 241.445074 245.539812 
L 242.955095 262.205625 
L 244.465116 241.50953 
L 245.975137 235.909447 
L 247.485159 257.676997 
L 248.99518 239.270538 
L 250.505201 230.610923 
L 252.015222 275.149752 
L 253.525243 252.414866 
L 255.035264 277.992539 
L 256.545285 226.586706 
L 258.055307 259.513093 
L 259.565328 224.090278 
L 261.075349 238.043936 
L 262.58537 203.807369 
L 264.095391 231.703847 
L 265.605412 215.01296 
L 267.115433 222.884771 
L 268.625455 242.905268 
L 270.135476 226.773939 
L 271.645497 235.995219 
L 273.155518 230.558349 
L 274.665539 276.751463 
L 276.17556 240.932333 
L 277.685581 247.873851 
L 279.195603 249.313933 
L 280.705624 245.103697 
L 282.215645 231.869513 
L 283.725666 237.442454 
L 285.235687 239.698295 
L 286.745708 243.159986 
L 288.255729 224.366629 
L 289.765751 208.28056 
L 291.275772 206.03422 
L 292.785793 243.862528 
L 294.295814 260.664391 
L 295.805835 214.960572 
L 297.315856 275.045514 
L 298.825877 242.556717 
L 300.335899 224.667432 
L 301.84592 212.082374 
L 303.355941 211.380752 
L 304.865962 212.555074 
L 306.375983 203.603315 
L 307.886004 216.84292 
L 309.396025 232.18129 
L 310.906047 200.81009 
L 312.416068 208.803998 
L 313.926089 221.613621 
L 315.43611 224.981189 
L 316.946131 201.899248 
L 318.456152 210.762586 
L 319.966173 217.202968 
L 321.476195 192.941568 
L 322.986216 195.080732 
L 324.496237 201.735076 
L 326.006258 195.62687 
L 327.516279 214.635687 
L 329.0263 201.312507 
L 332.046342 185.493789 
L 333.556364 193.823693 
L 335.066385 196.760163 
L 336.576406 243.789764 
L 338.086427 193.455213 
L 339.596448 191.235696 
L 341.106469 190.632819 
L 342.61649 191.525106 
L 344.126512 184.162366 
L 345.636533 188.458747 
L 347.146554 205.440132 
L 348.656575 194.044807 
L 350.166596 193.442358 
L 351.676617 214.551419 
L 353.186638 191.997856 
L 354.69666 210.076782 
L 356.206681 214.724007 
L 357.716702 202.55257 
L 359.226723 200.865718 
L 360.736744 200.51027 
L 362.246765 199.684855 
L 363.756786 192.180849 
L 365.266808 187.93806 
L 366.776829 200.402786 
L 368.28685 207.676084 
L 369.796871 200.397221 
L 371.306892 188.643406 
L 372.816913 198.24541 
L 374.326934 188.407138 
L 375.836956 188.830703 
L 377.346977 190.356026 
L 378.856998 201.442102 
L 380.367019 209.0525 
L 381.87704 192.696484 
L 383.387061 193.50803 
L 384.897082 196.253495 
L 386.407104 190.437841 
L 387.917125 201.965946 
L 389.427146 226.026376 
L 390.937167 195.688472 
L 392.447188 228.612215 
L 393.957209 210.719203 
L 395.46723 203.436512 
L 396.977252 220.814254 
L 398.487273 200.170035 
L 398.487273 200.170035 
" clip-path="url(#p4225c01186)" style="fill: none; stroke: #32cd32; stroke-opacity: 0.8; stroke-width: 0.5; stroke-linecap: square"/>
   </g>
   <g id="line2d_18">
    <path d="M 73.832727 179.914072 
L 75.342748 177.322704 
L 76.85277 176.32201 
L 78.362791 178.141079 
L 79.872812 177.940632 
L 81.382833 177.329767 
L 82.892854 179.213781 
L 84.402875 179.746244 
L 85.912896 177.482022 
L 87.422918 178.104993 
L 88.932939 179.031931 
L 90.44296 178.286574 
L 91.952981 179.101951 
L 93.463002 178.591026 
L 94.973023 178.618989 
L 97.993066 179.290135 
L 99.503087 178.047263 
L 101.013108 178.036545 
L 102.523129 179.900303 
L 104.03315 179.910438 
L 105.543171 178.224352 
L 107.053192 179.439062 
L 108.563214 179.772824 
L 110.073235 179.099242 
L 114.603298 179.65382 
L 116.113319 178.482156 
L 119.133362 178.606017 
L 120.643383 179.443353 
L 122.153404 178.960275 
L 123.663425 179.212426 
L 125.173446 179.217896 
L 126.683467 179.670921 
L 128.193488 179.598317 
L 129.70351 179.7498 
L 131.213531 179.304032 
L 132.723552 179.800716 
L 135.743594 179.523487 
L 137.253615 179.545703 
L 138.763636 178.501912 
L 141.783679 179.717002 
L 143.2937 179.691464 
L 144.803721 177.672147 
L 146.313742 177.277034 
L 147.823763 180.428428 
L 149.333784 178.969216 
L 150.843805 175.387802 
L 152.353827 174.877712 
L 153.863848 177.843011 
L 155.373869 179.529449 
L 156.88389 176.472777 
L 158.393911 178.416035 
L 159.903932 179.83967 
L 161.413953 177.888093 
L 162.923975 178.988074 
L 164.433996 179.398237 
L 165.944017 178.747473 
L 167.454038 179.093074 
L 168.964059 178.042743 
L 170.47408 177.641791 
L 171.984101 177.936399 
L 173.494123 178.556344 
L 175.004144 178.873337 
L 176.514165 179.485756 
L 178.024186 178.827496 
L 179.534207 179.474019 
L 181.044228 178.469893 
L 182.554249 179.13314 
L 184.064271 179.040424 
L 185.574292 177.905613 
L 187.084313 179.193599 
L 188.594334 178.638052 
L 190.104355 176.235813 
L 191.614376 176.903245 
L 193.124397 179.017729 
L 194.634419 178.512935 
L 196.14444 180.459664 
L 197.654461 177.67565 
L 199.164482 177.214721 
L 200.674503 178.256082 
L 202.184524 178.760081 
L 203.694545 178.464435 
L 205.204567 179.548249 
L 206.714588 179.740572 
L 208.224609 179.002157 
L 209.73463 180.349314 
L 211.244651 177.49649 
L 212.754672 179.478471 
L 214.264693 177.767251 
L 215.774715 177.937015 
L 217.284736 179.749313 
L 218.794757 178.343069 
L 221.814799 179.346039 
L 223.32482 179.272876 
L 224.834841 181.312944 
L 226.344863 174.83455 
L 227.854884 178.023635 
L 229.364905 175.462691 
L 230.874926 177.409939 
L 232.384947 177.184304 
L 233.894968 176.614563 
L 235.404989 178.051322 
L 236.915011 163.939518 
L 238.425032 179.829891 
L 239.935053 167.933078 
L 241.445074 161.618156 
L 242.955095 177.126198 
L 244.465116 170.865073 
L 245.975137 167.259482 
L 247.485159 179.184267 
L 248.99518 176.09376 
L 250.505201 162.158249 
L 252.015222 168.694358 
L 253.525243 167.681249 
L 255.035264 172.258335 
L 256.545285 171.192375 
L 258.055307 175.244588 
L 259.565328 165.383901 
L 261.075349 171.338937 
L 262.58537 173.721549 
L 264.095391 180.990019 
L 265.605412 171.507602 
L 267.115433 175.657994 
L 268.625455 177.241573 
L 270.135476 171.381756 
L 271.645497 167.876802 
L 273.155518 165.401099 
L 274.665539 187.40095 
L 276.17556 167.835187 
L 277.685581 169.535437 
L 279.195603 169.561038 
L 280.705624 171.181364 
L 282.215645 168.05063 
L 283.725666 167.408072 
L 285.235687 160.082933 
L 286.745708 176.635193 
L 288.255729 171.513974 
L 289.765751 172.953954 
L 291.275772 176.014863 
L 292.785793 180.580667 
L 294.295814 177.501323 
L 295.805835 165.167343 
L 297.315856 182.641507 
L 298.825877 159.464661 
L 300.335899 175.292188 
L 301.84592 181.574477 
L 303.355941 171.141838 
L 304.865962 177.036821 
L 306.375983 171.052398 
L 307.886004 170.19745 
L 309.396025 183.883598 
L 310.906047 177.666446 
L 312.416068 173.794972 
L 313.926089 172.634212 
L 315.43611 178.545454 
L 316.946131 180.029743 
L 318.456152 176.843861 
L 319.966173 176.667664 
L 321.476195 173.070628 
L 322.986216 176.829827 
L 324.496237 176.497122 
L 326.006258 177.542755 
L 327.516279 175.419861 
L 329.0263 178.094552 
L 330.536321 178.066026 
L 332.046342 178.722425 
L 333.556364 180.867098 
L 335.066385 177.093712 
L 336.576406 175.724847 
L 338.086427 177.614054 
L 339.596448 178.921392 
L 341.106469 178.830299 
L 342.61649 178.611047 
L 344.126512 179.479655 
L 345.636533 182.020128 
L 347.146554 175.001734 
L 348.656575 177.139564 
L 350.166596 177.747203 
L 351.676617 176.306851 
L 353.186638 177.551667 
L 354.69666 179.585424 
L 356.206681 174.959469 
L 357.716702 177.664746 
L 359.226723 177.992251 
L 360.736744 175.912068 
L 362.246765 177.826618 
L 363.756786 176.141091 
L 365.266808 177.700571 
L 366.776829 179.634462 
L 368.28685 177.563617 
L 369.796871 179.383248 
L 371.306892 174.444178 
L 372.816913 178.720124 
L 374.326934 177.284917 
L 375.836956 178.123112 
L 377.346977 179.642516 
L 378.856998 175.391108 
L 380.367019 177.38929 
L 381.87704 178.951399 
L 383.387061 178.665662 
L 384.897082 180.225305 
L 386.407104 175.444401 
L 387.917125 180.782451 
L 389.427146 176.061926 
L 390.937167 178.139537 
L 392.447188 174.803387 
L 393.957209 176.32366 
L 395.46723 177.475597 
L 396.977252 174.263065 
L 398.487273 172.025485 
L 398.487273 172.025485 
" clip-path="url(#p4225c01186)" style="fill: none; stroke: #ff0000; stroke-opacity: 0.8; stroke-width: 0.5; stroke-linecap: square"/>
   </g>
   <g id="line2d_19">
    <path d="M 73.832727 163.442297 
L 75.342748 161.169058 
L 76.85277 161.958846 
L 78.362791 163.699917 
L 79.872812 168.341844 
L 81.382833 167.159517 
L 82.892854 165.590286 
L 84.402875 170.26746 
L 85.912896 162.446146 
L 87.422918 173.790259 
L 88.932939 171.896261 
L 90.44296 172.423724 
L 91.952981 175.225771 
L 93.463002 168.085455 
L 94.973023 168.805237 
L 96.483044 175.645742 
L 97.993066 172.194906 
L 99.503087 168.143499 
L 101.013108 172.678147 
L 102.523129 173.588469 
L 104.03315 175.79739 
L 105.543171 169.651134 
L 107.053192 175.506406 
L 108.563214 176.828003 
L 110.073235 177.542883 
L 111.583256 174.503405 
L 113.093277 177.472778 
L 114.603298 177.357094 
L 116.113319 170.205067 
L 117.62334 168.075545 
L 119.133362 172.153542 
L 120.643383 176.584617 
L 122.153404 172.661906 
L 123.663425 176.139162 
L 125.173446 173.51697 
L 126.683467 177.400419 
L 128.193488 178.08568 
L 129.70351 178.028227 
L 131.213531 173.417677 
L 132.723552 178.437093 
L 134.233573 178.739845 
L 135.743594 178.51872 
L 137.253615 172.672212 
L 138.763636 174.725267 
L 140.273658 175.352737 
L 141.783679 176.74692 
L 143.2937 168.115959 
L 144.803721 167.776032 
L 146.313742 169.253873 
L 147.823763 174.645417 
L 149.333784 171.834384 
L 150.843805 135.289845 
L 152.353827 161.739917 
L 153.863848 156.185984 
L 155.373869 173.235344 
L 156.88389 168.321199 
L 158.393911 166.758376 
L 159.903932 172.720532 
L 161.413953 172.606371 
L 162.923975 176.77435 
L 164.433996 164.720282 
L 165.944017 172.893528 
L 167.454038 175.258496 
L 168.964059 164.4361 
L 170.47408 170.601274 
L 171.984101 174.966404 
L 173.494123 174.009345 
L 175.004144 176.069129 
L 176.514165 175.697105 
L 178.024186 174.675718 
L 179.534207 172.63489 
L 181.044228 173.348231 
L 182.554249 173.219234 
L 184.064271 173.790344 
L 185.574292 170.815517 
L 187.084313 172.512112 
L 188.594334 166.451664 
L 190.104355 133.740925 
L 191.614376 169.328855 
L 193.124397 175.714527 
L 194.634419 170.995224 
L 196.14444 172.882006 
L 197.654461 170.700665 
L 199.164482 164.998761 
L 200.674503 172.278653 
L 202.184524 166.355887 
L 203.694545 170.162494 
L 205.204567 172.335546 
L 206.714588 177.316944 
L 208.224609 175.645188 
L 209.73463 168.31387 
L 211.244651 163.911004 
L 212.754672 170.351289 
L 214.264693 172.272977 
L 215.774715 163.592016 
L 217.284736 174.552024 
L 218.794757 172.433114 
L 220.304778 174.97807 
L 221.814799 175.258475 
L 223.32482 171.07704 
L 224.834841 170.055237 
L 226.344863 157.102615 
L 227.854884 168.461262 
L 229.364905 152.115607 
L 230.874926 163.606206 
L 232.384947 156.504667 
L 233.894968 140.350101 
L 235.404989 125.424642 
L 236.915011 101.368402 
L 238.425032 141.605775 
L 239.935053 95.747571 
L 241.445074 85.326335 
L 242.955095 120.495588 
L 244.465116 111.017778 
L 247.485159 145.955122 
L 248.99518 143.092334 
L 250.505201 107.159378 
L 252.015222 102.985539 
L 253.525243 53.568 
L 255.035264 96.893435 
L 256.545285 122.401714 
L 258.055307 123.654118 
L 259.565328 116.368183 
L 261.075349 115.374493 
L 262.58537 144.702364 
L 264.095391 161.52874 
L 265.605412 141.196621 
L 267.115433 138.986398 
L 268.625455 137.385209 
L 270.135476 136.028045 
L 271.645497 67.218084 
L 273.155518 110.506366 
L 274.665539 114.541266 
L 276.17556 106.310175 
L 277.685581 89.235861 
L 279.195603 124.82146 
L 280.705624 120.153163 
L 282.215645 119.122793 
L 283.725666 117.231243 
L 286.745708 104.602707 
L 288.255729 123.458492 
L 289.765751 144.871991 
L 291.275772 141.80547 
L 292.785793 130.20982 
L 294.295814 143.185413 
L 295.805835 115.244484 
L 297.315856 148.45769 
L 298.825877 109.042401 
L 300.335899 155.306842 
L 301.84592 164.526956 
L 303.355941 144.579917 
L 304.865962 138.279619 
L 306.375983 142.243338 
L 307.886004 129.979755 
L 309.396025 141.306446 
L 310.906047 154.313313 
L 312.416068 130.096403 
L 313.926089 137.787271 
L 315.43611 167.256035 
L 316.946131 171.446117 
L 318.456152 162.894137 
L 319.966173 155.954904 
L 321.476195 158.782746 
L 322.986216 163.058754 
L 324.496237 145.098748 
L 326.006258 164.700112 
L 327.516279 142.0875 
L 329.0263 166.892903 
L 330.536321 166.937535 
L 332.046342 171.704432 
L 333.556364 172.668114 
L 335.066385 161.050514 
L 336.576406 138.050295 
L 338.086427 172.073131 
L 339.596448 169.223522 
L 341.106469 167.992254 
L 342.61649 167.759654 
L 344.126512 175.602362 
L 345.636533 178.208099 
L 347.146554 161.807869 
L 348.656575 159.943121 
L 350.166596 160.846751 
L 351.676617 149.463398 
L 353.186638 159.796176 
L 354.69666 153.755323 
L 356.206681 154.359771 
L 359.226723 163.408659 
L 360.736744 150.99685 
L 362.246765 156.794512 
L 363.756786 164.297405 
L 365.266808 162.153615 
L 366.776829 166.092759 
L 369.796871 153.09559 
L 371.306892 162.451861 
L 372.816913 166.495944 
L 374.326934 158.47353 
L 375.836956 163.600585 
L 377.346977 170.971958 
L 378.856998 150.889323 
L 380.367019 149.037237 
L 381.87704 169.030757 
L 383.387061 168.026099 
L 384.897082 171.818232 
L 386.407104 166.336674 
L 387.917125 165.20695 
L 389.427146 150.800838 
L 390.937167 163.466223 
L 392.447188 147.327113 
L 393.957209 146.720106 
L 395.46723 142.373184 
L 396.977252 131.471647 
L 398.487273 158.272271 
L 398.487273 158.272271 
" clip-path="url(#p4225c01186)" style="fill: none; stroke: #f08080; stroke-opacity: 0.8; stroke-width: 0.5; stroke-linecap: square"/>
   </g>
   <g id="line2d_20">
    <path d="M 73.832727 202.245756 
L 75.342748 190.387348 
L 76.85277 192.681523 
L 78.362791 195.223749 
L 79.872812 186.536653 
L 81.382833 185.495301 
L 82.892854 185.681163 
L 84.402875 192.787498 
L 85.912896 189.219871 
L 87.422918 186.133551 
L 88.932939 185.01831 
L 90.44296 186.884039 
L 91.952981 181.881669 
L 93.463002 185.75293 
L 94.973023 185.286436 
L 96.483044 182.864584 
L 97.993066 185.311169 
L 99.503087 188.419377 
L 101.013108 183.708507 
L 102.523129 186.847075 
L 104.03315 183.603743 
L 105.543171 183.033424 
L 107.053192 183.42503 
L 108.563214 182.348669 
L 110.073235 180.919775 
L 111.583256 184.487108 
L 113.093277 180.754379 
L 114.603298 180.762853 
L 116.113319 180.284859 
L 117.62334 188.823229 
L 119.133362 186.896316 
L 120.643383 182.214989 
L 122.153404 184.389689 
L 123.663425 183.520365 
L 125.173446 183.037513 
L 126.683467 180.647333 
L 128.193488 180.566625 
L 129.70351 184.151801 
L 131.213531 183.235896 
L 132.723552 181.854939 
L 134.233573 180.819694 
L 135.743594 180.530356 
L 137.253615 190.755332 
L 138.763636 179.847132 
L 140.273658 181.655494 
L 141.783679 182.647847 
L 143.2937 189.731822 
L 144.803721 195.570078 
L 146.313742 187.66943 
L 147.823763 184.835173 
L 149.333784 186.069123 
L 150.843805 195.940506 
L 152.353827 189.279015 
L 153.863848 195.686339 
L 155.373869 186.63676 
L 156.88389 188.713153 
L 158.393911 189.066886 
L 159.903932 187.821691 
L 161.413953 182.70016 
L 162.923975 180.421715 
L 164.433996 195.193096 
L 165.944017 184.172696 
L 167.454038 183.535237 
L 168.964059 198.544287 
L 170.47408 184.152498 
L 171.984101 181.213476 
L 173.494123 183.45003 
L 175.004144 182.629495 
L 176.514165 190.144794 
L 178.024186 182.738075 
L 179.534207 185.17567 
L 181.044228 189.771359 
L 182.554249 183.729553 
L 184.064271 187.32898 
L 185.574292 188.533624 
L 187.084313 187.490901 
L 188.594334 185.849557 
L 190.104355 193.080476 
L 191.614376 187.640722 
L 193.124397 185.468686 
L 194.634419 186.660736 
L 196.14444 193.40762 
L 197.654461 187.724933 
L 199.164482 185.741967 
L 200.674503 184.951978 
L 202.184524 190.793027 
L 203.694545 181.887313 
L 205.204567 185.166678 
L 206.714588 184.709772 
L 208.224609 180.083294 
L 209.73463 194.036019 
L 211.244651 187.173974 
L 212.754672 184.690961 
L 214.264693 182.675956 
L 215.774715 186.475164 
L 217.284736 185.157998 
L 218.794757 189.640501 
L 220.304778 182.207682 
L 221.814799 183.268531 
L 224.834841 198.012054 
L 226.344863 186.348377 
L 227.854884 190.917769 
L 229.364905 194.228432 
L 230.874926 194.810451 
L 232.384947 207.468541 
L 233.894968 212.598339 
L 235.404989 259.037354 
L 236.915011 219.540246 
L 238.425032 228.57599 
L 239.935053 284.135603 
L 241.445074 226.521625 
L 242.955095 267.007258 
L 244.465116 221.354108 
L 245.975137 199.932886 
L 247.485159 250.64663 
L 248.99518 227.969985 
L 250.505201 203.052163 
L 252.015222 275.179837 
L 253.525243 244.855015 
L 255.035264 290.641727 
L 256.545285 204.175077 
L 258.055307 242.116656 
L 259.565328 200.318003 
L 261.075349 217.284947 
L 262.58537 198.886783 
L 264.095391 231.951448 
L 265.605412 200.877356 
L 267.115433 219.245974 
L 268.625455 230.279989 
L 270.135476 207.12485 
L 271.645497 197.379696 
L 273.155518 212.920339 
L 274.665539 258.940898 
L 276.17556 214.259473 
L 277.685581 236.955417 
L 279.195603 220.444382 
L 280.705624 237.746578 
L 282.215645 223.670779 
L 283.725666 214.502703 
L 285.235687 196.715251 
L 286.745708 219.914594 
L 288.255729 211.938857 
L 289.765751 202.648289 
L 291.275772 194.306192 
L 292.785793 223.812853 
L 294.295814 245.396671 
L 295.805835 209.115834 
L 297.315856 264.429371 
L 298.825877 229.138386 
L 300.335899 208.982336 
L 301.84592 208.741145 
L 303.355941 194.996271 
L 304.865962 203.86959 
L 306.375983 197.010591 
L 307.886004 210.295918 
L 309.396025 250.410986 
L 310.906047 200.81009 
L 312.416068 209.277146 
L 313.926089 242.652657 
L 315.43611 214.721643 
L 316.946131 194.496248 
L 318.456152 202.110108 
L 319.966173 204.290001 
L 321.476195 187.783644 
L 322.986216 192.26842 
L 324.496237 203.720722 
L 326.006258 190.439344 
L 327.516279 208.239665 
L 329.0263 193.783477 
L 330.536321 189.666679 
L 332.046342 184.233428 
L 333.556364 190.578496 
L 335.066385 194.397405 
L 336.576406 248.496822 
L 338.086427 186.31399 
L 339.596448 189.946294 
L 341.106469 187.790725 
L 342.61649 188.288405 
L 344.126512 182.054211 
L 345.636533 188.75408 
L 347.146554 198.660255 
L 348.656575 187.869564 
L 350.166596 190.863688 
L 351.676617 210.475352 
L 353.186638 187.858437 
L 354.69666 203.010517 
L 356.206681 214.724007 
L 357.716702 196.948414 
L 359.226723 196.343925 
L 360.736744 203.593997 
L 362.246765 190.16357 
L 363.756786 186.696712 
L 365.266808 184.724446 
L 366.776829 195.916667 
L 368.28685 203.8598 
L 369.796871 197.645131 
L 371.306892 183.727048 
L 372.816913 196.176579 
L 374.326934 184.939721 
L 375.836956 186.793208 
L 377.346977 187.878351 
L 378.856998 190.264907 
L 380.367019 204.579982 
L 381.87704 187.668548 
L 383.387061 191.41001 
L 384.897082 196.253495 
L 386.407104 188.317098 
L 387.917125 199.127974 
L 389.427146 221.794784 
L 390.937167 191.32196 
L 392.447188 216.999383 
L 393.957209 209.349166 
L 395.46723 199.457454 
L 396.977252 199.404615 
L 398.487273 192.345868 
L 398.487273 192.345868 
" clip-path="url(#p4225c01186)" style="fill: none; stroke: #f08080; stroke-opacity: 0.8; stroke-width: 0.5; stroke-linecap: square"/>
   </g>
   <g id="patch_3">
    <path d="M 57.6 307.584 
L 57.6 41.472 
" style="fill: none; stroke: #000000; stroke-width: 0.8; stroke-linejoin: miter; stroke-linecap: square"/>
   </g>
   <g id="patch_4">
    <path d="M 414.72 307.584 
L 414.72 41.472 
" style="fill: none; stroke: #000000; stroke-width: 0.8; stroke-linejoin: miter; stroke-linecap: square"/>
   </g>
   <g id="patch_5">
    <path d="M 57.6 307.584 
L 414.72 307.584 
" style="fill: none; stroke: #000000; stroke-width: 0.8; stroke-linejoin: miter; stroke-linecap: square"/>
   </g>
   <g id="patch_6">
    <path d="M 57.6 41.472 
L 414.72 41.472 
" style="fill: none; stroke: #000000; stroke-width: 0.8; stroke-linejoin: miter; stroke-linecap: square"/>
   </g>
   <g id="text_15">
    <!-- 1final_zhang_aa_btcusd -->
    <g transform="translate(164.625938 35.472) scale(0.12 -0.12)">
     <defs>
      <path id="DejaVuSans-66" d="M 2375 4863 
L 2375 4384 
L 1825 4384 
Q 1516 4384 1395 4259 
Q 1275 4134 1275 3809 
L 1275 3500 
L 2222 3500 
L 2222 3053 
L 1275 3053 
L 1275 0 
L 697 0 
L 697 3053 
L 147 3053 
L 147 3500 
L 697 3500 
L 697 3744 
Q 697 4328 969 4595 
Q 1241 4863 1831 4863 
L 2375 4863 
z
" transform="scale(0.015625)"/>
      <path id="DejaVuSans-69" d="M 603 3500 
L 1178 3500 
L 1178 0 
L 603 0 
L 603 3500 
z
M 603 4863 
L 1178 4863 
L 1178 4134 
L 603 4134 
L 603 4863 
z
" transform="scale(0.015625)"/>
      <path id="DejaVuSans-6e" d="M 3513 2113 
L 3513 0 
L 2938 0 
L 2938 2094 
Q 2938 2591 2744 2837 
Q 2550 3084 2163 3084 
Q 1697 3084 1428 2787 
Q 1159 2491 1159 1978 
L 1159 0 
L 581 0 
L 581 3500 
L 1159 3500 
L 1159 2956 
Q 1366 3272 1645 3428 
Q 1925 3584 2291 3584 
Q 2894 3584 3203 3211 
Q 3513 2838 3513 2113 
z
" transform="scale(0.015625)"/>
      <path id="DejaVuSans-61" d="M 2194 1759 
Q 1497 1759 1228 1600 
Q 959 1441 959 1056 
Q 959 750 1161 570 
Q 1363 391 1709 391 
Q 2188 391 2477 730 
Q 2766 1069 2766 1631 
L 2766 1759 
L 2194 1759 
z
M 3341 1997 
L 3341 0 
L 2766 0 
L 2766 531 
Q 2569 213 2275 61 
Q 1981 -91 1556 -91 
Q 1019 -91 701 211 
Q 384 513 384 1019 
Q 384 1609 779 1909 
Q 1175 2209 1959 2209 
L 2766 2209 
L 2766 2266 
Q 2766 2663 2505 2880 
Q 2244 3097 1772 3097 
Q 1472 3097 1187 3025 
Q 903 2953 641 2809 
L 641 3341 
Q 956 3463 1253 3523 
Q 1550 3584 1831 3584 
Q 2591 3584 2966 3190 
Q 3341 2797 3341 1997 
z
" transform="scale(0.015625)"/>
      <path id="DejaVuSans-6c" d="M 603 4863 
L 1178 4863 
L 1178 0 
L 603 0 
L 603 4863 
z
" transform="scale(0.015625)"/>
      <path id="DejaVuSans-5f" d="M 3263 -1063 
L 3263 -1509 
L -63 -1509 
L -63 -1063 
L 3263 -1063 
z
" transform="scale(0.015625)"/>
      <path id="DejaVuSans-7a" d="M 353 3500 
L 3084 3500 
L 3084 2975 
L 922 459 
L 3084 459 
L 3084 0 
L 275 0 
L 275 525 
L 2438 3041 
L 353 3041 
L 353 3500 
z
" transform="scale(0.015625)"/>
      <path id="DejaVuSans-68" d="M 3513 2113 
L 3513 0 
L 2938 0 
L 2938 2094 
Q 2938 2591 2744 2837 
Q 2550 3084 2163 3084 
Q 1697 3084 1428 2787 
Q 1159 2491 1159 1978 
L 1159 0 
L 581 0 
L 581 4863 
L 1159 4863 
L 1159 2956 
Q 1366 3272 1645 3428 
Q 1925 3584 2291 3584 
Q 2894 3584 3203 3211 
Q 3513 2838 3513 2113 
z
" transform="scale(0.015625)"/>
      <path id="DejaVuSans-67" d="M 2906 1791 
Q 2906 2416 2648 2759 
Q 2391 3103 1925 3103 
Q 1463 3103 1205 2759 
Q 947 2416 947 1791 
Q 947 1169 1205 825 
Q 1463 481 1925 481 
Q 2391 481 2648 825 
Q 2906 1169 2906 1791 
z
M 3481 434 
Q 3481 -459 3084 -895 
Q 2688 -1331 1869 -1331 
Q 1566 -1331 1297 -1286 
Q 1028 -1241 775 -1147 
L 775 -588 
Q 1028 -725 1275 -790 
Q 1522 -856 1778 -856 
Q 2344 -856 2625 -561 
Q 2906 -266 2906 331 
L 2906 616 
Q 2728 306 2450 153 
Q 2172 0 1784 0 
Q 1141 0 747 490 
Q 353 981 353 1791 
Q 353 2603 747 3093 
Q 1141 3584 1784 3584 
Q 2172 3584 2450 3431 
Q 2728 3278 2906 2969 
L 2906 3500 
L 3481 3500 
L 3481 434 
z
" transform="scale(0.015625)"/>
      <path id="DejaVuSans-62" d="M 3116 1747 
Q 3116 2381 2855 2742 
Q 2594 3103 2138 3103 
Q 1681 3103 1420 2742 
Q 1159 2381 1159 1747 
Q 1159 1113 1420 752 
Q 1681 391 2138 391 
Q 2594 391 2855 752 
Q 3116 1113 3116 1747 
z
M 1159 2969 
Q 1341 3281 1617 3432 
Q 1894 3584 2278 3584 
Q 2916 3584 3314 3078 
Q 3713 2572 3713 1747 
Q 3713 922 3314 415 
Q 2916 -91 2278 -91 
Q 1894 -91 1617 61 
Q 1341 213 1159 525 
L 1159 0 
L 581 0 
L 581 4863 
L 1159 4863 
L 1159 2969 
z
" transform="scale(0.015625)"/>
      <path id="DejaVuSans-74" d="M 1172 4494 
L 1172 3500 
L 2356 3500 
L 2356 3053 
L 1172 3053 
L 1172 1153 
Q 1172 725 1289 603 
Q 1406 481 1766 481 
L 2356 481 
L 2356 0 
L 1766 0 
Q 1100 0 847 248 
Q 594 497 594 1153 
L 594 3053 
L 172 3053 
L 172 3500 
L 594 3500 
L 594 4494 
L 1172 4494 
z
" transform="scale(0.015625)"/>
      <path id="DejaVuSans-63" d="M 3122 3366 
L 3122 2828 
Q 2878 2963 2633 3030 
Q 2388 3097 2138 3097 
Q 1578 3097 1268 2742 
Q 959 2388 959 1747 
Q 959 1106 1268 751 
Q 1578 397 2138 397 
Q 2388 397 2633 464 
Q 2878 531 3122 666 
L 3122 134 
Q 2881 22 2623 -34 
Q 2366 -91 2075 -91 
Q 1284 -91 818 406 
Q 353 903 353 1747 
Q 353 2603 823 3093 
Q 1294 3584 2113 3584 
Q 2378 3584 2631 3529 
Q 2884 3475 3122 3366 
z
" transform="scale(0.015625)"/>
      <path id="DejaVuSans-75" d="M 544 1381 
L 544 3500 
L 1119 3500 
L 1119 1403 
Q 1119 906 1312 657 
Q 1506 409 1894 409 
Q 2359 409 2629 706 
Q 2900 1003 2900 1516 
L 2900 3500 
L 3475 3500 
L 3475 0 
L 2900 0 
L 2900 538 
Q 2691 219 2414 64 
Q 2138 -91 1772 -91 
Q 1169 -91 856 284 
Q 544 659 544 1381 
z
M 1991 3584 
L 1991 3584 
z
" transform="scale(0.015625)"/>
      <path id="DejaVuSans-73" d="M 2834 3397 
L 2834 2853 
Q 2591 2978 2328 3040 
Q 2066 3103 1784 3103 
Q 1356 3103 1142 2972 
Q 928 2841 928 2578 
Q 928 2378 1081 2264 
Q 1234 2150 1697 2047 
L 1894 2003 
Q 2506 1872 2764 1633 
Q 3022 1394 3022 966 
Q 3022 478 2636 193 
Q 2250 -91 1575 -91 
Q 1294 -91 989 -36 
Q 684 19 347 128 
L 347 722 
Q 666 556 975 473 
Q 1284 391 1588 391 
Q 1994 391 2212 530 
Q 2431 669 2431 922 
Q 2431 1156 2273 1281 
Q 2116 1406 1581 1522 
L 1381 1569 
Q 847 1681 609 1914 
Q 372 2147 372 2553 
Q 372 3047 722 3315 
Q 1072 3584 1716 3584 
Q 2034 3584 2315 3537 
Q 2597 3491 2834 3397 
z
" transform="scale(0.015625)"/>
      <path id="DejaVuSans-64" d="M 2906 2969 
L 2906 4863 
L 3481 4863 
L 3481 0 
L 2906 0 
L 2906 525 
Q 2725 213 2448 61 
Q 2172 -91 1784 -91 
Q 1150 -91 751 415 
Q 353 922 353 1747 
Q 353 2572 751 3078 
Q 1150 3584 1784 3584 
Q 2172 3584 2448 3432 
Q 2725 3281 2906 2969 
z
M 947 1747 
Q 947 1113 1208 752 
Q 1469 391 1925 391 
Q 2381 391 2643 752 
Q 2906 1113 2906 1747 
Q 2906 2381 2643 2742 
Q 2381 3103 1925 3103 
Q 1469 3103 1208 2742 
Q 947 2381 947 1747 
z
" transform="scale(0.015625)"/>
     </defs>
     <use xlink:href="#DejaVuSans-31"/>
     <use xlink:href="#DejaVuSans-66" x="63.623047"/>
     <use xlink:href="#DejaVuSans-69" x="98.828125"/>
     <use xlink:href="#DejaVuSans-6e" x="126.611328"/>
     <use xlink:href="#DejaVuSans-61" x="189.990234"/>
     <use xlink:href="#DejaVuSans-6c" x="251.269531"/>
     <use xlink:href="#DejaVuSans-5f" x="279.052734"/>
     <use xlink:href="#DejaVuSans-7a" x="329.052734"/>
     <use xlink:href="#DejaVuSans-68" x="381.542969"/>
     <use xlink:href="#DejaVuSans-61" x="444.921875"/>
     <use xlink:href="#DejaVuSans-6e" x="506.201172"/>
     <use xlink:href="#DejaVuSans-67" x="569.580078"/>
     <use xlink:href="#DejaVuSans-5f" x="633.056641"/>
     <use xlink:href="#DejaVuSans-61" x="683.056641"/>
     <use xlink:href="#DejaVuSans-61" x="744.335938"/>
     <use xlink:href="#DejaVuSans-5f" x="805.615234"/>
     <use xlink:href="#DejaVuSans-62" x="855.615234"/>
     <use xlink:href="#DejaVuSans-74" x="919.091797"/>
     <use xlink:href="#DejaVuSans-63" x="958.300781"/>
     <use xlink:href="#DejaVuSans-75" x="1013.28125"/>
     <use xlink:href="#DejaVuSans-73" x="1076.660156"/>
     <use xlink:href="#DejaVuSans-64" x="1128.759766"/>
    </g>
   </g>
   <g id="legend_1">
    <g id="patch_7">
     <path d="M 64.6 302.584 
L 225.001563 302.584 
Q 227.001563 302.584 227.001563 300.584 
L 227.001563 213.51525 
Q 227.001563 211.51525 225.001563 211.51525 
L 64.6 211.51525 
Q 62.6 211.51525 62.6 213.51525 
L 62.6 300.584 
Q 62.6 302.584 64.6 302.584 
z
" style="fill: #ffffff; opacity: 0.8; stroke: #cccccc; stroke-linejoin: miter"/>
    </g>
    <g id="line2d_21">
     <path d="M 66.6 219.613687 
L 76.6 219.613687 
L 86.6 219.613687 
" style="fill: none; stroke: #008000; stroke-opacity: 0.8; stroke-width: 0.5; stroke-linecap: square"/>
    </g>
    <g id="text_16">
     <!-- Positive predictions -->
     <g transform="translate(94.6 223.113687) scale(0.1 -0.1)">
      <defs>
       <path id="DejaVuSans-50" d="M 1259 4147 
L 1259 2394 
L 2053 2394 
Q 2494 2394 2734 2622 
Q 2975 2850 2975 3272 
Q 2975 3691 2734 3919 
Q 2494 4147 2053 4147 
L 1259 4147 
z
M 628 4666 
L 2053 4666 
Q 2838 4666 3239 4311 
Q 3641 3956 3641 3272 
Q 3641 2581 3239 2228 
Q 2838 1875 2053 1875 
L 1259 1875 
L 1259 0 
L 628 0 
L 628 4666 
z
" transform="scale(0.015625)"/>
       <path id="DejaVuSans-6f" d="M 1959 3097 
Q 1497 3097 1228 2736 
Q 959 2375 959 1747 
Q 959 1119 1226 758 
Q 1494 397 1959 397 
Q 2419 397 2687 759 
Q 2956 1122 2956 1747 
Q 2956 2369 2687 2733 
Q 2419 3097 1959 3097 
z
M 1959 3584 
Q 2709 3584 3137 3096 
Q 3566 2609 3566 1747 
Q 3566 888 3137 398 
Q 2709 -91 1959 -91 
Q 1206 -91 779 398 
Q 353 888 353 1747 
Q 353 2609 779 3096 
Q 1206 3584 1959 3584 
z
" transform="scale(0.015625)"/>
       <path id="DejaVuSans-76" d="M 191 3500 
L 800 3500 
L 1894 563 
L 2988 3500 
L 3597 3500 
L 2284 0 
L 1503 0 
L 191 3500 
z
" transform="scale(0.015625)"/>
       <path id="DejaVuSans-65" d="M 3597 1894 
L 3597 1613 
L 953 1613 
Q 991 1019 1311 708 
Q 1631 397 2203 397 
Q 2534 397 2845 478 
Q 3156 559 3463 722 
L 3463 178 
Q 3153 47 2828 -22 
Q 2503 -91 2169 -91 
Q 1331 -91 842 396 
Q 353 884 353 1716 
Q 353 2575 817 3079 
Q 1281 3584 2069 3584 
Q 2775 3584 3186 3129 
Q 3597 2675 3597 1894 
z
M 3022 2063 
Q 3016 2534 2758 2815 
Q 2500 3097 2075 3097 
Q 1594 3097 1305 2825 
Q 1016 2553 972 2059 
L 3022 2063 
z
" transform="scale(0.015625)"/>
       <path id="DejaVuSans-20" transform="scale(0.015625)"/>
       <path id="DejaVuSans-70" d="M 1159 525 
L 1159 -1331 
L 581 -1331 
L 581 3500 
L 1159 3500 
L 1159 2969 
Q 1341 3281 1617 3432 
Q 1894 3584 2278 3584 
Q 2916 3584 3314 3078 
Q 3713 2572 3713 1747 
Q 3713 922 3314 415 
Q 2916 -91 2278 -91 
Q 1894 -91 1617 61 
Q 1341 213 1159 525 
z
M 3116 1747 
Q 3116 2381 2855 2742 
Q 2594 3103 2138 3103 
Q 1681 3103 1420 2742 
Q 1159 2381 1159 1747 
Q 1159 1113 1420 752 
Q 1681 391 2138 391 
Q 2594 391 2855 752 
Q 3116 1113 3116 1747 
z
" transform="scale(0.015625)"/>
       <path id="DejaVuSans-72" d="M 2631 2963 
Q 2534 3019 2420 3045 
Q 2306 3072 2169 3072 
Q 1681 3072 1420 2755 
Q 1159 2438 1159 1844 
L 1159 0 
L 581 0 
L 581 3500 
L 1159 3500 
L 1159 2956 
Q 1341 3275 1631 3429 
Q 1922 3584 2338 3584 
Q 2397 3584 2469 3576 
Q 2541 3569 2628 3553 
L 2631 2963 
z
" transform="scale(0.015625)"/>
      </defs>
      <use xlink:href="#DejaVuSans-50"/>
      <use xlink:href="#DejaVuSans-6f" x="56.677734"/>
      <use xlink:href="#DejaVuSans-73" x="117.859375"/>
      <use xlink:href="#DejaVuSans-69" x="169.958984"/>
      <use xlink:href="#DejaVuSans-74" x="197.742188"/>
      <use xlink:href="#DejaVuSans-69" x="236.951172"/>
      <use xlink:href="#DejaVuSans-76" x="264.734375"/>
      <use xlink:href="#DejaVuSans-65" x="323.914062"/>
      <use xlink:href="#DejaVuSans-20" x="385.4375"/>
      <use xlink:href="#DejaVuSans-70" x="417.224609"/>
      <use xlink:href="#DejaVuSans-72" x="480.701172"/>
      <use xlink:href="#DejaVuSans-65" x="519.564453"/>
      <use xlink:href="#DejaVuSans-64" x="581.087891"/>
      <use xlink:href="#DejaVuSans-69" x="644.564453"/>
      <use xlink:href="#DejaVuSans-63" x="672.347656"/>
      <use xlink:href="#DejaVuSans-74" x="727.328125"/>
      <use xlink:href="#DejaVuSans-69" x="766.537109"/>
      <use xlink:href="#DejaVuSans-6f" x="794.320312"/>
      <use xlink:href="#DejaVuSans-6e" x="855.501953"/>
      <use xlink:href="#DejaVuSans-73" x="918.880859"/>
     </g>
    </g>
    <g id="line2d_22">
     <path d="M 66.6 234.291812 
L 76.6 234.291812 
L 86.6 234.291812 
" style="fill: none; stroke: #32cd32; stroke-opacity: 0.8; stroke-width: 0.5; stroke-linecap: square"/>
    </g>
    <g id="text_17">
     <!-- Positive predictions max -->
     <g transform="translate(94.6 237.791812) scale(0.1 -0.1)">
      <defs>
       <path id="DejaVuSans-6d" d="M 3328 2828 
Q 3544 3216 3844 3400 
Q 4144 3584 4550 3584 
Q 5097 3584 5394 3201 
Q 5691 2819 5691 2113 
L 5691 0 
L 5113 0 
L 5113 2094 
Q 5113 2597 4934 2840 
Q 4756 3084 4391 3084 
Q 3944 3084 3684 2787 
Q 3425 2491 3425 1978 
L 3425 0 
L 2847 0 
L 2847 2094 
Q 2847 2600 2669 2842 
Q 2491 3084 2119 3084 
Q 1678 3084 1418 2786 
Q 1159 2488 1159 1978 
L 1159 0 
L 581 0 
L 581 3500 
L 1159 3500 
L 1159 2956 
Q 1356 3278 1631 3431 
Q 1906 3584 2284 3584 
Q 2666 3584 2933 3390 
Q 3200 3197 3328 2828 
z
" transform="scale(0.015625)"/>
       <path id="DejaVuSans-78" d="M 3513 3500 
L 2247 1797 
L 3578 0 
L 2900 0 
L 1881 1375 
L 863 0 
L 184 0 
L 1544 1831 
L 300 3500 
L 978 3500 
L 1906 2253 
L 2834 3500 
L 3513 3500 
z
" transform="scale(0.015625)"/>
      </defs>
      <use xlink:href="#DejaVuSans-50"/>
      <use xlink:href="#DejaVuSans-6f" x="56.677734"/>
      <use xlink:href="#DejaVuSans-73" x="117.859375"/>
      <use xlink:href="#DejaVuSans-69" x="169.958984"/>
      <use xlink:href="#DejaVuSans-74" x="197.742188"/>
      <use xlink:href="#DejaVuSans-69" x="236.951172"/>
      <use xlink:href="#DejaVuSans-76" x="264.734375"/>
      <use xlink:href="#DejaVuSans-65" x="323.914062"/>
      <use xlink:href="#DejaVuSans-20" x="385.4375"/>
      <use xlink:href="#DejaVuSans-70" x="417.224609"/>
      <use xlink:href="#DejaVuSans-72" x="480.701172"/>
      <use xlink:href="#DejaVuSans-65" x="519.564453"/>
      <use xlink:href="#DejaVuSans-64" x="581.087891"/>
      <use xlink:href="#DejaVuSans-69" x="644.564453"/>
      <use xlink:href="#DejaVuSans-63" x="672.347656"/>
      <use xlink:href="#DejaVuSans-74" x="727.328125"/>
      <use xlink:href="#DejaVuSans-69" x="766.537109"/>
      <use xlink:href="#DejaVuSans-6f" x="794.320312"/>
      <use xlink:href="#DejaVuSans-6e" x="855.501953"/>
      <use xlink:href="#DejaVuSans-73" x="918.880859"/>
      <use xlink:href="#DejaVuSans-20" x="970.980469"/>
      <use xlink:href="#DejaVuSans-6d" x="1002.767578"/>
      <use xlink:href="#DejaVuSans-61" x="1100.179688"/>
      <use xlink:href="#DejaVuSans-78" x="1161.458984"/>
     </g>
    </g>
    <g id="line2d_23">
     <path d="M 66.6 248.969937 
L 76.6 248.969937 
L 86.6 248.969937 
" style="fill: none; stroke: #32cd32; stroke-opacity: 0.8; stroke-width: 0.5; stroke-linecap: square"/>
    </g>
    <g id="text_18">
     <!-- Positive predictions min -->
     <g transform="translate(94.6 252.469937) scale(0.1 -0.1)">
      <use xlink:href="#DejaVuSans-50"/>
      <use xlink:href="#DejaVuSans-6f" x="56.677734"/>
      <use xlink:href="#DejaVuSans-73" x="117.859375"/>
      <use xlink:href="#DejaVuSans-69" x="169.958984"/>
      <use xlink:href="#DejaVuSans-74" x="197.742188"/>
      <use xlink:href="#DejaVuSans-69" x="236.951172"/>
      <use xlink:href="#DejaVuSans-76" x="264.734375"/>
      <use xlink:href="#DejaVuSans-65" x="323.914062"/>
      <use xlink:href="#DejaVuSans-20" x="385.4375"/>
      <use xlink:href="#DejaVuSans-70" x="417.224609"/>
      <use xlink:href="#DejaVuSans-72" x="480.701172"/>
      <use xlink:href="#DejaVuSans-65" x="519.564453"/>
      <use xlink:href="#DejaVuSans-64" x="581.087891"/>
      <use xlink:href="#DejaVuSans-69" x="644.564453"/>
      <use xlink:href="#DejaVuSans-63" x="672.347656"/>
      <use xlink:href="#DejaVuSans-74" x="727.328125"/>
      <use xlink:href="#DejaVuSans-69" x="766.537109"/>
      <use xlink:href="#DejaVuSans-6f" x="794.320312"/>
      <use xlink:href="#DejaVuSans-6e" x="855.501953"/>
      <use xlink:href="#DejaVuSans-73" x="918.880859"/>
      <use xlink:href="#DejaVuSans-20" x="970.980469"/>
      <use xlink:href="#DejaVuSans-6d" x="1002.767578"/>
      <use xlink:href="#DejaVuSans-69" x="1100.179688"/>
      <use xlink:href="#DejaVuSans-6e" x="1127.962891"/>
     </g>
    </g>
    <g id="line2d_24">
     <path d="M 66.6 263.648062 
L 76.6 263.648062 
L 86.6 263.648062 
" style="fill: none; stroke: #ff0000; stroke-opacity: 0.8; stroke-width: 0.5; stroke-linecap: square"/>
    </g>
    <g id="text_19">
     <!-- Negative predictions -->
     <g transform="translate(94.6 267.148062) scale(0.1 -0.1)">
      <defs>
       <path id="DejaVuSans-4e" d="M 628 4666 
L 1478 4666 
L 3547 763 
L 3547 4666 
L 4159 4666 
L 4159 0 
L 3309 0 
L 1241 3903 
L 1241 0 
L 628 0 
L 628 4666 
z
" transform="scale(0.015625)"/>
      </defs>
      <use xlink:href="#DejaVuSans-4e"/>
      <use xlink:href="#DejaVuSans-65" x="74.804688"/>
      <use xlink:href="#DejaVuSans-67" x="136.328125"/>
      <use xlink:href="#DejaVuSans-61" x="199.804688"/>
      <use xlink:href="#DejaVuSans-74" x="261.083984"/>
      <use xlink:href="#DejaVuSans-69" x="300.292969"/>
      <use xlink:href="#DejaVuSans-76" x="328.076172"/>
      <use xlink:href="#DejaVuSans-65" x="387.255859"/>
      <use xlink:href="#DejaVuSans-20" x="448.779297"/>
      <use xlink:href="#DejaVuSans-70" x="480.566406"/>
      <use xlink:href="#DejaVuSans-72" x="544.042969"/>
      <use xlink:href="#DejaVuSans-65" x="582.90625"/>
      <use xlink:href="#DejaVuSans-64" x="644.429688"/>
      <use xlink:href="#DejaVuSans-69" x="707.90625"/>
      <use xlink:href="#DejaVuSans-63" x="735.689453"/>
      <use xlink:href="#DejaVuSans-74" x="790.669922"/>
      <use xlink:href="#DejaVuSans-69" x="829.878906"/>
      <use xlink:href="#DejaVuSans-6f" x="857.662109"/>
      <use xlink:href="#DejaVuSans-6e" x="918.84375"/>
      <use xlink:href="#DejaVuSans-73" x="982.222656"/>
     </g>
    </g>
    <g id="line2d_25">
     <path d="M 66.6 278.326188 
L 76.6 278.326188 
L 86.6 278.326188 
" style="fill: none; stroke: #f08080; stroke-opacity: 0.8; stroke-width: 0.5; stroke-linecap: square"/>
    </g>
    <g id="text_20">
     <!-- Negative predictions max -->
     <g transform="translate(94.6 281.826188) scale(0.1 -0.1)">
      <use xlink:href="#DejaVuSans-4e"/>
      <use xlink:href="#DejaVuSans-65" x="74.804688"/>
      <use xlink:href="#DejaVuSans-67" x="136.328125"/>
      <use xlink:href="#DejaVuSans-61" x="199.804688"/>
      <use xlink:href="#DejaVuSans-74" x="261.083984"/>
      <use xlink:href="#DejaVuSans-69" x="300.292969"/>
      <use xlink:href="#DejaVuSans-76" x="328.076172"/>
      <use xlink:href="#DejaVuSans-65" x="387.255859"/>
      <use xlink:href="#DejaVuSans-20" x="448.779297"/>
      <use xlink:href="#DejaVuSans-70" x="480.566406"/>
      <use xlink:href="#DejaVuSans-72" x="544.042969"/>
      <use xlink:href="#DejaVuSans-65" x="582.90625"/>
      <use xlink:href="#DejaVuSans-64" x="644.429688"/>
      <use xlink:href="#DejaVuSans-69" x="707.90625"/>
      <use xlink:href="#DejaVuSans-63" x="735.689453"/>
      <use xlink:href="#DejaVuSans-74" x="790.669922"/>
      <use xlink:href="#DejaVuSans-69" x="829.878906"/>
      <use xlink:href="#DejaVuSans-6f" x="857.662109"/>
      <use xlink:href="#DejaVuSans-6e" x="918.84375"/>
      <use xlink:href="#DejaVuSans-73" x="982.222656"/>
      <use xlink:href="#DejaVuSans-20" x="1034.322266"/>
      <use xlink:href="#DejaVuSans-6d" x="1066.109375"/>
      <use xlink:href="#DejaVuSans-61" x="1163.521484"/>
      <use xlink:href="#DejaVuSans-78" x="1224.800781"/>
     </g>
    </g>
    <g id="line2d_26">
     <path d="M 66.6 293.004312 
L 76.6 293.004312 
L 86.6 293.004312 
" style="fill: none; stroke: #f08080; stroke-opacity: 0.8; stroke-width: 0.5; stroke-linecap: square"/>
    </g>
    <g id="text_21">
     <!-- Negative predictions min -->
     <g transform="translate(94.6 296.504312) scale(0.1 -0.1)">
      <use xlink:href="#DejaVuSans-4e"/>
      <use xlink:href="#DejaVuSans-65" x="74.804688"/>
      <use xlink:href="#DejaVuSans-67" x="136.328125"/>
      <use xlink:href="#DejaVuSans-61" x="199.804688"/>
      <use xlink:href="#DejaVuSans-74" x="261.083984"/>
      <use xlink:href="#DejaVuSans-69" x="300.292969"/>
      <use xlink:href="#DejaVuSans-76" x="328.076172"/>
      <use xlink:href="#DejaVuSans-65" x="387.255859"/>
      <use xlink:href="#DejaVuSans-20" x="448.779297"/>
      <use xlink:href="#DejaVuSans-70" x="480.566406"/>
      <use xlink:href="#DejaVuSans-72" x="544.042969"/>
      <use xlink:href="#DejaVuSans-65" x="582.90625"/>
      <use xlink:href="#DejaVuSans-64" x="644.429688"/>
      <use xlink:href="#DejaVuSans-69" x="707.90625"/>
      <use xlink:href="#DejaVuSans-63" x="735.689453"/>
      <use xlink:href="#DejaVuSans-74" x="790.669922"/>
      <use xlink:href="#DejaVuSans-69" x="829.878906"/>
      <use xlink:href="#DejaVuSans-6f" x="857.662109"/>
      <use xlink:href="#DejaVuSans-6e" x="918.84375"/>
      <use xlink:href="#DejaVuSans-73" x="982.222656"/>
      <use xlink:href="#DejaVuSans-20" x="1034.322266"/>
      <use xlink:href="#DejaVuSans-6d" x="1066.109375"/>
      <use xlink:href="#DejaVuSans-69" x="1163.521484"/>
      <use xlink:href="#DejaVuSans-6e" x="1191.304688"/>
     </g>
    </g>
   </g>
  </g>
 </g>
 <defs>
  <clipPath id="p4225c01186">
   <rect x="57.6" y="41.472" width="357.12" height="266.112"/>
  </clipPath>
 </defs>
</svg>
