<?xml version="1.0" encoding="utf-8" standalone="no"?>
<!DOCTYPE svg PUBLIC "-//W3C//DTD SVG 1.1//EN"
  "http://www.w3.org/Graphics/SVG/1.1/DTD/svg11.dtd">
<svg xmlns:xlink="http://www.w3.org/1999/xlink" width="460.8pt" height="345.6pt" viewBox="0 0 460.8 345.6" xmlns="http://www.w3.org/2000/svg" version="1.1">
 <metadata>
  <rdf:RDF xmlns:dc="http://purl.org/dc/elements/1.1/" xmlns:cc="http://creativecommons.org/ns#" xmlns:rdf="http://www.w3.org/1999/02/22-rdf-syntax-ns#">
   <cc:Work>
    <dc:type rdf:resource="http://purl.org/dc/dcmitype/StillImage"/>
    <dc:date>2024-09-06T07:10:56.142005</dc:date>
    <dc:format>image/svg+xml</dc:format>
    <dc:creator>
     <cc:Agent>
      <dc:title>Matplotlib v3.9.0, https://matplotlib.org/</dc:title>
     </cc:Agent>
    </dc:creator>
   </cc:Work>
  </rdf:RDF>
 </metadata>
 <defs>
  <style type="text/css">*{stroke-linejoin: round; stroke-linecap: butt}</style>
 </defs>
 <g id="figure_1">
  <g id="patch_1">
   <path d="M 0 345.6 
L 460.8 345.6 
L 460.8 0 
L 0 0 
z
" style="fill: #ffffff"/>
  </g>
  <g id="axes_1">
   <g id="patch_2">
    <path d="M 57.6 307.584 
L 414.72 307.584 
L 414.72 41.472 
L 57.6 41.472 
z
" style="fill: #ffffff"/>
   </g>
   <g id="matplotlib.axis_1">
    <g id="xtick_1">
     <g id="line2d_1">
      <defs>
       <path id="mf34ce73615" d="M 0 0 
L 0 3.5 
" style="stroke: #000000; stroke-width: 0.8"/>
      </defs>
      <g>
       <use xlink:href="#mf34ce73615" x="73.832727" y="307.584" style="stroke: #000000; stroke-width: 0.8"/>
      </g>
     </g>
     <g id="text_1">
      <!-- 0 -->
      <g transform="translate(70.651477 322.182437) scale(0.1 -0.1)">
       <defs>
        <path id="DejaVuSans-30" d="M 2034 4250 
Q 1547 4250 1301 3770 
Q 1056 3291 1056 2328 
Q 1056 1369 1301 889 
Q 1547 409 2034 409 
Q 2525 409 2770 889 
Q 3016 1369 3016 2328 
Q 3016 3291 2770 3770 
Q 2525 4250 2034 4250 
z
M 2034 4750 
Q 2819 4750 3233 4129 
Q 3647 3509 3647 2328 
Q 3647 1150 3233 529 
Q 2819 -91 2034 -91 
Q 1250 -91 836 529 
Q 422 1150 422 2328 
Q 422 3509 836 4129 
Q 1250 4750 2034 4750 
z
" transform="scale(0.015625)"/>
       </defs>
       <use xlink:href="#DejaVuSans-30"/>
      </g>
     </g>
    </g>
    <g id="xtick_2">
     <g id="line2d_2">
      <g>
       <use xlink:href="#mf34ce73615" x="149.333784" y="307.584" style="stroke: #000000; stroke-width: 0.8"/>
      </g>
     </g>
     <g id="text_2">
      <!-- 50 -->
      <g transform="translate(142.971284 322.182437) scale(0.1 -0.1)">
       <defs>
        <path id="DejaVuSans-35" d="M 691 4666 
L 3169 4666 
L 3169 4134 
L 1269 4134 
L 1269 2991 
Q 1406 3038 1543 3061 
Q 1681 3084 1819 3084 
Q 2600 3084 3056 2656 
Q 3513 2228 3513 1497 
Q 3513 744 3044 326 
Q 2575 -91 1722 -91 
Q 1428 -91 1123 -41 
Q 819 9 494 109 
L 494 744 
Q 775 591 1075 516 
Q 1375 441 1709 441 
Q 2250 441 2565 725 
Q 2881 1009 2881 1497 
Q 2881 1984 2565 2268 
Q 2250 2553 1709 2553 
Q 1456 2553 1204 2497 
Q 953 2441 691 2322 
L 691 4666 
z
" transform="scale(0.015625)"/>
       </defs>
       <use xlink:href="#DejaVuSans-35"/>
       <use xlink:href="#DejaVuSans-30" x="63.623047"/>
      </g>
     </g>
    </g>
    <g id="xtick_3">
     <g id="line2d_3">
      <g>
       <use xlink:href="#mf34ce73615" x="224.834841" y="307.584" style="stroke: #000000; stroke-width: 0.8"/>
      </g>
     </g>
     <g id="text_3">
      <!-- 100 -->
      <g transform="translate(215.291091 322.182437) scale(0.1 -0.1)">
       <defs>
        <path id="DejaVuSans-31" d="M 794 531 
L 1825 531 
L 1825 4091 
L 703 3866 
L 703 4441 
L 1819 4666 
L 2450 4666 
L 2450 531 
L 3481 531 
L 3481 0 
L 794 0 
L 794 531 
z
" transform="scale(0.015625)"/>
       </defs>
       <use xlink:href="#DejaVuSans-31"/>
       <use xlink:href="#DejaVuSans-30" x="63.623047"/>
       <use xlink:href="#DejaVuSans-30" x="127.246094"/>
      </g>
     </g>
    </g>
    <g id="xtick_4">
     <g id="line2d_4">
      <g>
       <use xlink:href="#mf34ce73615" x="300.335899" y="307.584" style="stroke: #000000; stroke-width: 0.8"/>
      </g>
     </g>
     <g id="text_4">
      <!-- 150 -->
      <g transform="translate(290.792149 322.182437) scale(0.1 -0.1)">
       <use xlink:href="#DejaVuSans-31"/>
       <use xlink:href="#DejaVuSans-35" x="63.623047"/>
       <use xlink:href="#DejaVuSans-30" x="127.246094"/>
      </g>
     </g>
    </g>
    <g id="xtick_5">
     <g id="line2d_5">
      <g>
       <use xlink:href="#mf34ce73615" x="375.836956" y="307.584" style="stroke: #000000; stroke-width: 0.8"/>
      </g>
     </g>
     <g id="text_5">
      <!-- 200 -->
      <g transform="translate(366.293206 322.182437) scale(0.1 -0.1)">
       <defs>
        <path id="DejaVuSans-32" d="M 1228 531 
L 3431 531 
L 3431 0 
L 469 0 
L 469 531 
Q 828 903 1448 1529 
Q 2069 2156 2228 2338 
Q 2531 2678 2651 2914 
Q 2772 3150 2772 3378 
Q 2772 3750 2511 3984 
Q 2250 4219 1831 4219 
Q 1534 4219 1204 4116 
Q 875 4013 500 3803 
L 500 4441 
Q 881 4594 1212 4672 
Q 1544 4750 1819 4750 
Q 2544 4750 2975 4387 
Q 3406 4025 3406 3419 
Q 3406 3131 3298 2873 
Q 3191 2616 2906 2266 
Q 2828 2175 2409 1742 
Q 1991 1309 1228 531 
z
" transform="scale(0.015625)"/>
       </defs>
       <use xlink:href="#DejaVuSans-32"/>
       <use xlink:href="#DejaVuSans-30" x="63.623047"/>
       <use xlink:href="#DejaVuSans-30" x="127.246094"/>
      </g>
     </g>
    </g>
   </g>
   <g id="matplotlib.axis_2">
    <g id="ytick_1">
     <g id="line2d_6">
      <defs>
       <path id="mf28302cecd" d="M 0 0 
L -3.5 0 
" style="stroke: #000000; stroke-width: 0.8"/>
      </defs>
      <g>
       <use xlink:href="#mf28302cecd" x="57.6" y="293.835699" style="stroke: #000000; stroke-width: 0.8"/>
      </g>
     </g>
     <g id="text_6">
      <!-- 5000 -->
      <g transform="translate(25.15 297.634918) scale(0.1 -0.1)">
       <use xlink:href="#DejaVuSans-35"/>
       <use xlink:href="#DejaVuSans-30" x="63.623047"/>
       <use xlink:href="#DejaVuSans-30" x="127.246094"/>
       <use xlink:href="#DejaVuSans-30" x="190.869141"/>
      </g>
     </g>
    </g>
    <g id="ytick_2">
     <g id="line2d_7">
      <g>
       <use xlink:href="#mf28302cecd" x="57.6" y="262.263071" style="stroke: #000000; stroke-width: 0.8"/>
      </g>
     </g>
     <g id="text_7">
      <!-- 5500 -->
      <g transform="translate(25.15 266.06229) scale(0.1 -0.1)">
       <use xlink:href="#DejaVuSans-35"/>
       <use xlink:href="#DejaVuSans-35" x="63.623047"/>
       <use xlink:href="#DejaVuSans-30" x="127.246094"/>
       <use xlink:href="#DejaVuSans-30" x="190.869141"/>
      </g>
     </g>
    </g>
    <g id="ytick_3">
     <g id="line2d_8">
      <g>
       <use xlink:href="#mf28302cecd" x="57.6" y="230.690443" style="stroke: #000000; stroke-width: 0.8"/>
      </g>
     </g>
     <g id="text_8">
      <!-- 6000 -->
      <g transform="translate(25.15 234.489662) scale(0.1 -0.1)">
       <defs>
        <path id="DejaVuSans-36" d="M 2113 2584 
Q 1688 2584 1439 2293 
Q 1191 2003 1191 1497 
Q 1191 994 1439 701 
Q 1688 409 2113 409 
Q 2538 409 2786 701 
Q 3034 994 3034 1497 
Q 3034 2003 2786 2293 
Q 2538 2584 2113 2584 
z
M 3366 4563 
L 3366 3988 
Q 3128 4100 2886 4159 
Q 2644 4219 2406 4219 
Q 1781 4219 1451 3797 
Q 1122 3375 1075 2522 
Q 1259 2794 1537 2939 
Q 1816 3084 2150 3084 
Q 2853 3084 3261 2657 
Q 3669 2231 3669 1497 
Q 3669 778 3244 343 
Q 2819 -91 2113 -91 
Q 1303 -91 875 529 
Q 447 1150 447 2328 
Q 447 3434 972 4092 
Q 1497 4750 2381 4750 
Q 2619 4750 2861 4703 
Q 3103 4656 3366 4563 
z
" transform="scale(0.015625)"/>
       </defs>
       <use xlink:href="#DejaVuSans-36"/>
       <use xlink:href="#DejaVuSans-30" x="63.623047"/>
       <use xlink:href="#DejaVuSans-30" x="127.246094"/>
       <use xlink:href="#DejaVuSans-30" x="190.869141"/>
      </g>
     </g>
    </g>
    <g id="ytick_4">
     <g id="line2d_9">
      <g>
       <use xlink:href="#mf28302cecd" x="57.6" y="199.117815" style="stroke: #000000; stroke-width: 0.8"/>
      </g>
     </g>
     <g id="text_9">
      <!-- 6500 -->
      <g transform="translate(25.15 202.917034) scale(0.1 -0.1)">
       <use xlink:href="#DejaVuSans-36"/>
       <use xlink:href="#DejaVuSans-35" x="63.623047"/>
       <use xlink:href="#DejaVuSans-30" x="127.246094"/>
       <use xlink:href="#DejaVuSans-30" x="190.869141"/>
      </g>
     </g>
    </g>
    <g id="ytick_5">
     <g id="line2d_10">
      <g>
       <use xlink:href="#mf28302cecd" x="57.6" y="167.545187" style="stroke: #000000; stroke-width: 0.8"/>
      </g>
     </g>
     <g id="text_10">
      <!-- 7000 -->
      <g transform="translate(25.15 171.344406) scale(0.1 -0.1)">
       <defs>
        <path id="DejaVuSans-37" d="M 525 4666 
L 3525 4666 
L 3525 4397 
L 1831 0 
L 1172 0 
L 2766 4134 
L 525 4134 
L 525 4666 
z
" transform="scale(0.015625)"/>
       </defs>
       <use xlink:href="#DejaVuSans-37"/>
       <use xlink:href="#DejaVuSans-30" x="63.623047"/>
       <use xlink:href="#DejaVuSans-30" x="127.246094"/>
       <use xlink:href="#DejaVuSans-30" x="190.869141"/>
      </g>
     </g>
    </g>
    <g id="ytick_6">
     <g id="line2d_11">
      <g>
       <use xlink:href="#mf28302cecd" x="57.6" y="135.972559" style="stroke: #000000; stroke-width: 0.8"/>
      </g>
     </g>
     <g id="text_11">
      <!-- 7500 -->
      <g transform="translate(25.15 139.771778) scale(0.1 -0.1)">
       <use xlink:href="#DejaVuSans-37"/>
       <use xlink:href="#DejaVuSans-35" x="63.623047"/>
       <use xlink:href="#DejaVuSans-30" x="127.246094"/>
       <use xlink:href="#DejaVuSans-30" x="190.869141"/>
      </g>
     </g>
    </g>
    <g id="ytick_7">
     <g id="line2d_12">
      <g>
       <use xlink:href="#mf28302cecd" x="57.6" y="104.399931" style="stroke: #000000; stroke-width: 0.8"/>
      </g>
     </g>
     <g id="text_12">
      <!-- 8000 -->
      <g transform="translate(25.15 108.19915) scale(0.1 -0.1)">
       <defs>
        <path id="DejaVuSans-38" d="M 2034 2216 
Q 1584 2216 1326 1975 
Q 1069 1734 1069 1313 
Q 1069 891 1326 650 
Q 1584 409 2034 409 
Q 2484 409 2743 651 
Q 3003 894 3003 1313 
Q 3003 1734 2745 1975 
Q 2488 2216 2034 2216 
z
M 1403 2484 
Q 997 2584 770 2862 
Q 544 3141 544 3541 
Q 544 4100 942 4425 
Q 1341 4750 2034 4750 
Q 2731 4750 3128 4425 
Q 3525 4100 3525 3541 
Q 3525 3141 3298 2862 
Q 3072 2584 2669 2484 
Q 3125 2378 3379 2068 
Q 3634 1759 3634 1313 
Q 3634 634 3220 271 
Q 2806 -91 2034 -91 
Q 1263 -91 848 271 
Q 434 634 434 1313 
Q 434 1759 690 2068 
Q 947 2378 1403 2484 
z
M 1172 3481 
Q 1172 3119 1398 2916 
Q 1625 2713 2034 2713 
Q 2441 2713 2670 2916 
Q 2900 3119 2900 3481 
Q 2900 3844 2670 4047 
Q 2441 4250 2034 4250 
Q 1625 4250 1398 4047 
Q 1172 3844 1172 3481 
z
" transform="scale(0.015625)"/>
       </defs>
       <use xlink:href="#DejaVuSans-38"/>
       <use xlink:href="#DejaVuSans-30" x="63.623047"/>
       <use xlink:href="#DejaVuSans-30" x="127.246094"/>
       <use xlink:href="#DejaVuSans-30" x="190.869141"/>
      </g>
     </g>
    </g>
    <g id="ytick_8">
     <g id="line2d_13">
      <g>
       <use xlink:href="#mf28302cecd" x="57.6" y="72.827303" style="stroke: #000000; stroke-width: 0.8"/>
      </g>
     </g>
     <g id="text_13">
      <!-- 8500 -->
      <g transform="translate(25.15 76.626522) scale(0.1 -0.1)">
       <use xlink:href="#DejaVuSans-38"/>
       <use xlink:href="#DejaVuSans-35" x="63.623047"/>
       <use xlink:href="#DejaVuSans-30" x="127.246094"/>
       <use xlink:href="#DejaVuSans-30" x="190.869141"/>
      </g>
     </g>
    </g>
   </g>
   <g id="line2d_14">
    <path d="M 73.832727 295.488 
L 75.342748 294.098804 
L 76.85277 291.159919 
L 78.362791 290.715271 
L 79.872812 290.010149 
L 81.382833 289.512678 
L 82.892854 289.444234 
L 84.402875 288.861256 
L 85.912896 289.019821 
L 87.422918 286.52233 
L 88.932939 282.62347 
L 90.44296 276.36025 
L 91.952981 276.845416 
L 93.463002 277.102206 
L 94.973023 278.78608 
L 96.483044 276.990773 
L 97.993066 276.760169 
L 99.503087 275.506353 
L 102.523129 271.987441 
L 104.03315 269.595498 
L 105.543171 269.127863 
L 107.053192 267.621397 
L 108.563214 267.693563 
L 110.073235 267.446723 
L 111.583256 267.543593 
L 113.093277 266.462231 
L 114.603298 265.841302 
L 116.113319 265.897431 
L 117.62334 265.704488 
L 119.133362 265.995657 
L 120.643383 265.633449 
L 122.153404 265.73606 
L 123.663425 266.403596 
L 125.173446 266.472755 
L 126.683467 266.351726 
L 128.193488 266.516765 
L 129.70351 262.405148 
L 131.213531 261.428151 
L 132.723552 262.509338 
L 134.233573 261.305368 
L 135.743594 260.540108 
L 137.253615 260.958069 
L 138.763636 260.991145 
L 140.273658 260.337141 
L 141.783679 259.509938 
L 143.2937 258.239816 
L 144.803721 257.447193 
L 146.313742 255.809626 
L 147.823763 254.547869 
L 152.353827 247.933308 
L 153.863848 246.192603 
L 155.373869 246.385547 
L 156.88389 244.463125 
L 158.393911 244.754614 
L 159.903932 245.396973 
L 161.413953 242.8003 
L 162.923975 240.437099 
L 164.433996 239.323302 
L 165.944017 238.65046 
L 167.454038 239.891609 
L 170.47408 240.231691 
L 171.984101 241.119935 
L 173.494123 239.341343 
L 175.004144 239.676013 
L 176.514165 238.069417 
L 178.024186 238.554132 
L 179.534207 238.15737 
L 181.044228 238.1921 
L 182.554249 237.282808 
L 184.064271 235.370208 
L 185.574292 234.810671 
L 187.084313 232.548718 
L 188.594334 231.271379 
L 190.104355 230.603618 
L 191.614376 231.13246 
L 193.124397 230.590463 
L 194.634419 231.287453 
L 196.14444 231.505591 
L 197.654461 229.947272 
L 199.164482 229.916914 
L 202.184524 225.575677 
L 203.694545 224.663579 
L 205.204567 222.057585 
L 206.714588 221.706978 
L 208.224609 222.578383 
L 211.244651 222.113832 
L 212.754672 220.409247 
L 214.264693 217.42152 
L 215.774715 217.465459 
L 217.284736 215.565297 
L 218.794757 215.361004 
L 220.304778 216.243711 
L 221.814799 216.069446 
L 223.32482 216.376203 
L 224.834841 214.141876 
L 226.344863 213.763004 
L 227.854884 212.409892 
L 229.364905 212.646686 
L 230.874926 213.310926 
L 235.404989 212.294125 
L 236.915011 210.048961 
L 238.425032 204.081032 
L 239.935053 205.70597 
L 241.445074 205.345516 
L 242.955095 205.188179 
L 244.465116 204.236791 
L 245.975137 205.967218 
L 247.485159 200.651873 
L 248.99518 201.149607 
L 250.505201 198.222301 
L 252.015222 199.778983 
L 255.035264 196.921763 
L 256.545285 192.223142 
L 258.055307 192.915008 
L 259.565328 192.972992 
L 261.075349 193.787026 
L 262.58537 193.801774 
L 264.095391 194.669583 
L 265.605412 193.965736 
L 267.115433 189.958039 
L 268.625455 190.433681 
L 270.135476 190.28035 
L 271.645497 190.38009 
L 273.155518 186.264247 
L 274.665539 186.36949 
L 276.17556 183.533566 
L 277.685581 183.412688 
L 279.195603 181.316593 
L 280.705624 179.944619 
L 282.215645 181.268756 
L 285.235687 175.709869 
L 286.745708 169.910879 
L 288.255729 166.250709 
L 291.275772 160.196658 
L 292.785793 159.137513 
L 294.295814 155.245675 
L 295.805835 148.080662 
L 297.315856 147.093641 
L 298.825877 147.280822 
L 300.335899 147.337332 
L 301.84592 148.390678 
L 303.355941 148.28408 
L 304.865962 147.59279 
L 307.886004 142.107364 
L 309.396025 140.864529 
L 310.906047 140.625879 
L 312.416068 136.702676 
L 313.926089 133.093135 
L 315.43611 131.325068 
L 316.946131 127.377227 
L 318.456152 126.323557 
L 319.966173 125.522921 
L 321.476195 123.556623 
L 324.496237 123.532944 
L 326.006258 123.644662 
L 327.516279 122.998464 
L 329.0263 121.810955 
L 330.536321 121.58287 
L 332.046342 119.151365 
L 333.556364 111.363669 
L 335.066385 109.610918 
L 336.576406 111.379144 
L 338.086427 111.761339 
L 339.596448 111.892442 
L 341.106469 113.321137 
L 342.61649 112.725473 
L 344.126512 107.907876 
L 345.636533 107.972623 
L 347.146554 106.739411 
L 348.656575 103.796728 
L 350.166596 100.246376 
L 351.676617 100.590167 
L 353.186638 97.845454 
L 354.69666 98.306414 
L 356.206681 97.44606 
L 357.716702 97.914913 
L 359.226723 97.317138 
L 360.736744 96.917218 
L 362.246765 94.839739 
L 363.756786 92.029775 
L 365.266808 85.470082 
L 366.776829 81.362437 
L 368.28685 68.828508 
L 369.796871 64.679182 
L 371.306892 65.89954 
L 372.816913 69.334796 
L 374.326934 69.275967 
L 375.836956 70.44357 
L 377.346977 70.39334 
L 378.856998 70.9025 
L 380.367019 67.593493 
L 381.87704 67.010923 
L 383.387061 68.527887 
L 384.897082 69.579833 
L 386.407104 67.126189 
L 387.917125 66.899542 
L 389.427146 67.472585 
L 390.937167 63.653199 
L 392.447188 62.724062 
L 393.957209 61.960579 
L 395.46723 61.994384 
L 396.977252 62.359223 
L 398.487273 55.512874 
L 398.487273 55.512874 
" clip-path="url(#p7aecda45f2)" style="fill: none; stroke: #1f77b4; stroke-opacity: 0.7; stroke-width: 0.5; stroke-linecap: square"/>
   </g>
   <g id="line2d_15">
    <path d="M 73.832727 294.638546 
L 75.342748 293.071642 
L 76.85277 290.973114 
L 78.362791 289.978981 
L 79.872812 289.712314 
L 81.382833 289.141902 
L 82.892854 288.960885 
L 84.402875 288.026336 
L 85.912896 288.405207 
L 87.422918 285.921494 
L 88.932939 282.033277 
L 90.44296 275.263978 
L 91.952981 276.035753 
L 93.463002 275.896132 
L 94.973023 278.623433 
L 96.483044 276.797004 
L 97.993066 276.264097 
L 99.503087 275.393338 
L 101.013108 273.780766 
L 102.523129 271.267585 
L 104.03315 269.737891 
L 105.543171 267.993503 
L 107.053192 267.269588 
L 108.563214 267.169458 
L 110.073235 266.93582 
L 111.583256 266.893723 
L 113.093277 265.755004 
L 114.603298 264.33634 
L 116.113319 264.795898 
L 117.62334 264.564365 
L 120.643383 264.876313 
L 122.153404 264.571381 
L 123.663425 265.657129 
L 125.173446 265.630818 
L 126.683467 265.762371 
L 128.193488 265.60977 
L 129.70351 261.635828 
L 131.213531 260.905448 
L 132.723552 261.577945 
L 134.233573 260.135076 
L 135.743594 259.709196 
L 137.253615 259.48047 
L 138.763636 259.768834 
L 140.273658 258.879538 
L 141.783679 258.994552 
L 143.2937 257.369314 
L 144.803721 256.35899 
L 146.313742 254.7551 
L 147.823763 253.649006 
L 149.333784 251.016199 
L 150.843805 249.243667 
L 152.353827 246.987181 
L 153.863848 245.649554 
L 155.373869 245.403288 
L 156.88389 244.21756 
L 159.903932 244.669224 
L 161.413953 242.00046 
L 162.923975 239.688642 
L 164.433996 238.128954 
L 165.944017 238.078438 
L 167.454038 238.908347 
L 168.964059 239.492892 
L 170.47408 239.178218 
L 171.984101 240.24432 
L 173.494123 239.157648 
L 175.004144 238.820395 
L 176.514165 237.727631 
L 178.024186 237.462772 
L 179.534207 237.068114 
L 181.044228 237.510131 
L 182.554249 236.069271 
L 184.064271 235.28426 
L 185.574292 234.151592 
L 187.084313 232.048066 
L 188.594334 230.564153 
L 190.104355 229.707181 
L 191.614376 229.903998 
L 193.124397 229.32995 
L 194.634419 230.236945 
L 196.14444 230.520437 
L 197.654461 228.941805 
L 199.164482 229.266167 
L 200.674503 227.464295 
L 202.184524 224.572369 
L 203.694545 223.965473 
L 205.204567 221.729557 
L 206.714588 221.063662 
L 208.224609 221.840393 
L 209.73463 221.844845 
L 211.244651 221.516339 
L 212.754672 219.537412 
L 214.264693 216.624837 
L 215.774715 217.105192 
L 217.284736 214.777839 
L 218.794757 214.245614 
L 220.304778 215.732911 
L 221.814799 214.993585 
L 223.32482 215.823243 
L 224.834841 213.369699 
L 226.344863 212.712087 
L 227.854884 211.866842 
L 229.364905 211.947783 
L 230.874926 212.615114 
L 232.384947 211.986818 
L 233.894968 212.01348 
L 235.404989 211.445712 
L 236.915011 209.39192 
L 238.425032 203.819266 
L 239.935053 204.859176 
L 241.445074 204.921438 
L 242.955095 204.383158 
L 244.465116 204.053669 
L 245.975137 204.364133 
L 247.485159 199.907131 
L 248.99518 199.78084 
L 250.505201 196.802489 
L 252.015222 198.849448 
L 253.525243 196.592005 
L 255.035264 195.240696 
L 256.545285 189.826442 
L 258.055307 191.769286 
L 259.565328 192.197095 
L 261.075349 192.371797 
L 262.58537 193.156903 
L 264.095391 194.550308 
L 265.605412 193.187902 
L 267.115433 188.469946 
L 268.625455 189.933051 
L 270.135476 189.014574 
L 271.645497 189.140865 
L 273.155518 186.133572 
L 274.665539 185.183762 
L 276.17556 183.410433 
L 277.685581 182.400109 
L 279.195603 180.654142 
L 280.705624 179.55331 
L 282.215645 180.363674 
L 283.725666 177.269557 
L 285.235687 174.838464 
L 286.745708 168.358182 
L 288.255729 164.569467 
L 289.765751 161.268549 
L 291.275772 158.767997 
L 292.785793 156.803477 
L 294.295814 153.107885 
L 295.805835 145.976572 
L 297.315856 144.459282 
L 298.825877 145.583267 
L 300.335899 144.686604 
L 301.84592 147.187157 
L 303.355941 146.238174 
L 304.865962 146.14526 
L 306.375983 143.152175 
L 307.886004 140.713715 
L 309.396025 138.837058 
L 310.906047 139.214016 
L 312.416068 134.77854 
L 313.926089 131.063015 
L 315.43611 130.079002 
L 316.946131 125.119468 
L 318.456152 123.730273 
L 319.966173 123.217217 
L 321.476195 121.259714 
L 322.986216 121.343908 
L 324.496237 122.04903 
L 326.006258 121.594384 
L 327.516279 121.736812 
L 329.0263 120.091527 
L 330.536321 120.347616 
L 332.046342 117.780411 
L 333.556364 109.778759 
L 335.066385 107.613323 
L 336.576406 109.425241 
L 338.086427 110.525021 
L 339.596448 110.390837 
L 341.106469 112.217314 
L 342.61649 111.035445 
L 344.126512 105.848325 
L 345.636533 106.572128 
L 347.146554 104.084205 
L 348.656575 101.874121 
L 350.166596 98.931552 
L 351.676617 99.664037 
L 353.186638 96.482487 
L 354.69666 97.601292 
L 356.206681 96.294786 
L 357.716702 96.69621 
L 359.226723 96.212096 
L 360.736744 95.262813 
L 362.246765 93.217959 
L 363.756786 90.638776 
L 365.266808 83.576569 
L 366.776829 78.92082 
L 368.28685 66.154954 
L 369.796871 62.088099 
L 371.306892 63.821818 
L 372.816913 66.554874 
L 374.326934 67.540642 
L 375.836956 68.091409 
L 377.346977 69.30921 
L 378.856998 67.859876 
L 380.367019 65.186727 
L 381.87704 65.739248 
L 383.387061 67.070561 
L 384.897082 67.665178 
L 387.917125 64.134306 
L 389.427146 64.861286 
L 392.447188 60.586838 
L 393.957209 60.539236 
L 395.46723 60.032496 
L 396.977252 59.899364 
L 398.487273 53.865685 
L 398.487273 53.865685 
" clip-path="url(#p7aecda45f2)" style="fill: none; stroke: #ff7f0e; stroke-opacity: 0.7; stroke-width: 0.5; stroke-linecap: square"/>
   </g>
   <g id="line2d_16">
    <path d="M 73.832727 295.063273 
L 75.342748 293.585223 
L 76.85277 291.066517 
L 78.362791 290.347126 
L 81.382833 289.32729 
L 82.892854 289.202559 
L 84.402875 288.443796 
L 85.912896 288.712514 
L 87.422918 286.221912 
L 88.932939 282.328373 
L 90.44296 275.812114 
L 91.952981 276.440584 
L 93.463002 276.499169 
L 94.973023 278.704756 
L 96.483044 276.893889 
L 97.993066 276.512133 
L 99.503087 275.449846 
L 101.013108 273.734707 
L 104.03315 269.666695 
L 107.053192 267.445492 
L 108.563214 267.43151 
L 110.073235 267.191271 
L 111.583256 267.218658 
L 114.603298 265.088821 
L 116.113319 265.346664 
L 117.62334 265.134426 
L 119.133362 265.343475 
L 122.153404 265.153721 
L 123.663425 266.030362 
L 128.193488 266.063267 
L 129.70351 262.020488 
L 131.213531 261.166799 
L 132.723552 262.043641 
L 134.233573 260.720222 
L 135.743594 260.124652 
L 138.763636 260.379989 
L 140.273658 259.608339 
L 141.783679 259.252245 
L 143.2937 257.804565 
L 144.803721 256.903091 
L 146.313742 255.282363 
L 147.823763 254.098437 
L 149.333784 251.65403 
L 150.843805 249.719283 
L 152.353827 247.460244 
L 153.863848 245.921079 
L 155.373869 245.894418 
L 156.88389 244.340343 
L 158.393911 244.586418 
L 159.903932 245.033099 
L 161.413953 242.40038 
L 162.923975 240.062871 
L 164.433996 238.726128 
L 165.944017 238.364449 
L 167.454038 239.399978 
L 168.964059 239.753892 
L 170.47408 239.704955 
L 171.984101 240.682127 
L 173.494123 239.249496 
L 175.004144 239.248204 
L 176.514165 237.898524 
L 178.024186 238.008452 
L 179.534207 237.612742 
L 181.044228 237.851115 
L 182.554249 236.676039 
L 184.064271 235.327234 
L 185.574292 234.481132 
L 187.084313 232.298392 
L 188.594334 230.917766 
L 190.104355 230.1554 
L 191.614376 230.518229 
L 193.124397 229.960207 
L 194.634419 230.762199 
L 196.14444 231.013014 
L 197.654461 229.444539 
L 199.164482 229.59154 
L 200.674503 227.555568 
L 202.184524 225.074023 
L 203.694545 224.314526 
L 205.204567 221.893571 
L 206.714588 221.38532 
L 208.224609 222.209388 
L 209.73463 222.092164 
L 211.244651 221.815086 
L 212.754672 219.97333 
L 214.264693 217.023179 
L 215.774715 217.285325 
L 217.284736 215.171568 
L 218.794757 214.803309 
L 220.304778 215.988311 
L 221.814799 215.531516 
L 223.32482 216.099723 
L 224.834841 213.755788 
L 226.344863 213.237545 
L 227.854884 212.138367 
L 229.364905 212.297235 
L 230.874926 212.96302 
L 232.384947 212.473037 
L 233.894968 212.337976 
L 235.404989 211.869919 
L 236.915011 209.72044 
L 238.425032 203.950149 
L 239.935053 205.282573 
L 241.445074 205.133477 
L 242.955095 204.785669 
L 244.465116 204.14523 
L 245.975137 205.165676 
L 247.485159 200.279502 
L 248.99518 200.465223 
L 250.505201 197.512395 
L 252.015222 199.314215 
L 253.525243 197.466567 
L 255.035264 196.08123 
L 256.545285 191.024792 
L 258.055307 192.342147 
L 259.565328 192.585044 
L 262.58537 193.479338 
L 264.095391 194.609945 
L 265.605412 193.576819 
L 267.115433 189.213992 
L 268.625455 190.183366 
L 270.135476 189.647462 
L 271.645497 189.760477 
L 273.155518 186.19891 
L 274.665539 185.776626 
L 276.17556 183.471999 
L 277.685581 182.906398 
L 279.195603 180.985368 
L 280.705624 179.748965 
L 282.215645 180.816215 
L 283.725666 177.916795 
L 285.235687 175.274166 
L 286.745708 169.134531 
L 288.255729 165.410088 
L 289.765751 162.27782 
L 291.275772 159.482327 
L 292.785793 157.970495 
L 294.295814 154.17678 
L 295.805835 147.028617 
L 297.315856 145.776461 
L 298.825877 146.432045 
L 300.335899 146.011968 
L 301.84592 147.788917 
L 303.355941 147.261127 
L 304.865962 146.869025 
L 306.375983 143.997954 
L 307.886004 141.410539 
L 309.396025 139.850793 
L 310.906047 139.919947 
L 312.416068 135.740608 
L 313.926089 132.078075 
L 315.43611 130.702035 
L 316.946131 126.248348 
L 318.456152 125.026915 
L 319.966173 124.370069 
L 321.476195 122.408169 
L 322.986216 122.425068 
L 324.496237 122.790987 
L 327.516279 122.367638 
L 329.0263 120.951241 
L 330.536321 120.965243 
L 332.046342 118.465888 
L 333.556364 110.571214 
L 335.066385 108.612121 
L 336.576406 110.402192 
L 338.086427 111.14318 
L 339.596448 111.14164 
L 341.106469 112.769225 
L 342.61649 111.880459 
L 344.126512 106.8781 
L 345.636533 107.272376 
L 347.146554 105.411808 
L 348.656575 102.835424 
L 350.166596 99.588964 
L 351.676617 100.127102 
L 353.186638 97.16397 
L 354.69666 97.953853 
L 356.206681 96.870423 
L 357.716702 97.305562 
L 359.226723 96.764617 
L 360.736744 96.090015 
L 362.246765 94.028849 
L 363.756786 91.334276 
L 365.266808 84.523325 
L 366.776829 80.141629 
L 368.28685 67.491731 
L 369.796871 63.383641 
L 371.306892 64.860679 
L 372.816913 67.944835 
L 374.326934 68.408305 
L 375.836956 69.267489 
L 377.346977 69.851275 
L 378.856998 69.381188 
L 380.367019 66.39011 
L 381.87704 66.375086 
L 383.387061 67.799224 
L 384.897082 68.622506 
L 386.407104 66.524805 
L 387.917125 65.516924 
L 389.427146 66.166936 
L 390.937167 63.200112 
L 392.447188 61.65545 
L 393.957209 61.249907 
L 395.46723 61.01344 
L 396.977252 61.129294 
L 398.487273 54.689279 
L 398.487273 54.689279 
" clip-path="url(#p7aecda45f2)" style="fill: none; stroke: #2ca02c; stroke-opacity: 0.7; stroke-width: 0.5; stroke-linecap: square"/>
   </g>
   <g id="line2d_17">
    <path d="M 73.832727 294.340861 
L 75.342748 291.815051 
L 78.362791 290.552146 
L 79.872812 290.173274 
L 81.382833 290.110129 
L 82.892854 289.352386 
L 84.402875 289.415531 
L 85.912896 287.142302 
L 87.422918 283.290441 
L 88.932939 277.291642 
L 90.44296 277.417933 
L 91.952981 277.923095 
L 93.463002 279.31229 
L 94.973023 277.733659 
L 96.483044 277.165352 
L 97.993066 276.281318 
L 99.503087 274.26067 
L 101.013108 272.618893 
L 102.523129 270.408809 
L 104.03315 269.777357 
L 105.543171 268.26187 
L 107.053192 268.26187 
L 108.563214 268.072435 
L 110.073235 268.009289 
L 113.093277 266.241222 
L 114.603298 266.241222 
L 116.113319 266.114932 
L 117.62334 266.114932 
L 119.133362 265.862351 
L 120.643383 265.799205 
L 122.153404 266.367513 
L 123.663425 266.556949 
L 125.173446 266.493803 
L 126.683467 266.556949 
L 128.193488 263.273395 
L 129.70351 261.8842 
L 131.213531 262.831378 
L 132.723552 261.568473 
L 134.233573 261.063311 
L 135.743594 260.747585 
L 137.253615 260.81073 
L 138.763636 260.242423 
L 140.273658 259.926697 
L 141.783679 259.105808 
L 143.2937 257.716613 
L 144.803721 256.137981 
L 146.313742 254.875076 
L 147.823763 252.664992 
L 149.333784 250.707489 
L 150.843805 248.43426 
L 152.353827 247.10821 
L 153.863848 246.855629 
L 155.373869 245.529578 
L 156.88389 245.276997 
L 158.393911 245.90845 
L 161.413953 240.98312 
L 162.923975 239.530779 
L 164.433996 239.341343 
L 165.944017 239.90965 
L 168.964059 240.288522 
L 170.47408 240.919975 
L 171.984101 239.657069 
L 173.494123 240.035941 
L 175.004144 238.646745 
L 176.514165 238.5836 
L 178.024186 238.078438 
L 179.534207 238.204729 
L 181.044228 237.320695 
L 182.554249 235.678918 
L 184.064271 235.173756 
L 185.574292 233.026818 
L 187.084313 231.574477 
L 188.594334 231.006169 
L 190.104355 231.25875 
L 191.614376 230.690443 
L 193.124397 231.195605 
L 194.634419 231.574477 
L 196.14444 230.185281 
L 197.654461 230.311572 
L 199.164482 228.227778 
L 200.674503 225.891404 
L 202.184524 224.944225 
L 203.694545 222.60785 
L 205.204567 222.228979 
L 206.714588 222.670996 
L 208.224609 222.670996 
L 209.73463 222.48156 
L 211.244651 220.587202 
L 212.754672 217.935101 
L 214.264693 217.998247 
L 215.774715 215.977598 
L 217.284736 215.661872 
L 218.794757 216.482761 
L 220.304778 215.977598 
L 221.814799 216.545906 
L 223.32482 214.335822 
L 224.834841 213.893805 
L 226.344863 212.820336 
L 227.854884 212.946626 
L 229.364905 213.514933 
L 232.384947 212.6309 
L 233.894968 212.504609 
L 235.404989 210.610252 
L 236.915011 205.17976 
L 238.425032 206.126939 
L 239.935053 206.000648 
L 241.445074 205.621776 
L 242.955095 204.800888 
L 244.465116 206.063793 
L 245.975137 201.517335 
L 247.485159 201.517335 
L 248.99518 198.991525 
L 250.505201 200.38072 
L 252.015222 198.360072 
L 253.525243 197.097167 
L 255.035264 192.487563 
L 256.545285 193.308452 
L 258.055307 193.497887 
L 259.565328 194.12934 
L 261.075349 194.192485 
L 262.58537 195.139664 
L 264.095391 194.003049 
L 265.605412 190.277479 
L 267.115433 191.098368 
L 270.135476 190.151189 
L 271.645497 186.867635 
L 273.155518 186.741345 
L 274.665539 184.40497 
L 276.17556 183.899808 
L 277.685581 182.005451 
L 279.195603 180.55311 
L 280.705624 181.310853 
L 282.215645 178.595607 
L 283.725666 176.322378 
L 285.235687 170.260433 
L 286.745708 166.471718 
L 289.765751 160.662354 
L 291.275772 159.588885 
L 292.785793 155.673879 
L 294.295814 148.727901 
L 295.805835 147.717577 
L 297.315856 147.843867 
L 298.825877 148.096448 
L 300.335899 148.791046 
L 301.84592 148.727901 
L 303.355941 148.033303 
L 306.375983 142.413375 
L 307.886004 141.339906 
L 309.396025 140.897889 
L 312.416068 133.446749 
L 313.926089 131.994408 
L 315.43611 127.763676 
L 316.946131 126.690206 
L 318.456152 125.869318 
L 319.966173 124.038106 
L 322.986216 123.659234 
L 324.496237 123.911815 
L 326.006258 123.343508 
L 327.516279 122.017458 
L 329.0263 121.891167 
L 330.536321 119.365357 
L 332.046342 111.787926 
L 333.556364 110.019859 
L 335.066385 111.4722 
L 336.576406 111.977362 
L 338.086427 111.977362 
L 339.596448 113.492848 
L 341.106469 112.924541 
L 342.61649 108.062356 
L 344.126512 108.251792 
L 345.636533 106.988887 
L 347.146554 103.957914 
L 348.656575 101.242668 
L 350.166596 101.558395 
L 351.676617 98.590568 
L 353.186638 98.780003 
L 354.69666 98.716858 
L 356.206681 98.464277 
L 357.716702 97.517098 
L 359.226723 97.327662 
L 360.736744 95.49645 
L 362.246765 92.718059 
L 363.756786 85.898371 
L 365.266808 81.541348 
L 366.776829 69.228023 
L 368.28685 65.060437 
L 369.796871 66.386487 
L 371.306892 69.606895 
L 372.816913 69.733186 
L 374.326934 70.74351 
L 375.836956 70.680364 
L 377.346977 71.059236 
L 378.856998 68.154554 
L 380.367019 67.901973 
L 381.87704 68.659716 
L 383.387061 68.786007 
L 384.897082 67.396811 
L 386.407104 66.765359 
L 387.917125 67.01794 
L 389.427146 63.923822 
L 390.937167 62.724062 
L 392.447188 61.966319 
L 393.957209 62.029464 
L 395.46723 61.650593 
L 396.977252 56.346391 
L 398.487273 53.568 
L 398.487273 53.568 
" clip-path="url(#p7aecda45f2)" style="fill: none; stroke: #d62728; stroke-opacity: 0.7; stroke-width: 0.5; stroke-linecap: square"/>
   </g>
   <g id="patch_3">
    <path d="M 57.6 307.584 
L 57.6 41.472 
" style="fill: none; stroke: #000000; stroke-width: 0.8; stroke-linejoin: miter; stroke-linecap: square"/>
   </g>
   <g id="patch_4">
    <path d="M 414.72 307.584 
L 414.72 41.472 
" style="fill: none; stroke: #000000; stroke-width: 0.8; stroke-linejoin: miter; stroke-linecap: square"/>
   </g>
   <g id="patch_5">
    <path d="M 57.6 307.584 
L 414.72 307.584 
" style="fill: none; stroke: #000000; stroke-width: 0.8; stroke-linejoin: miter; stroke-linecap: square"/>
   </g>
   <g id="patch_6">
    <path d="M 57.6 41.472 
L 414.72 41.472 
" style="fill: none; stroke: #000000; stroke-width: 0.8; stroke-linejoin: miter; stroke-linecap: square"/>
   </g>
   <g id="text_14">
    <!-- 1final_naive_aa_cci -->
    <g transform="translate(178.409063 35.472) scale(0.12 -0.12)">
     <defs>
      <path id="DejaVuSans-66" d="M 2375 4863 
L 2375 4384 
L 1825 4384 
Q 1516 4384 1395 4259 
Q 1275 4134 1275 3809 
L 1275 3500 
L 2222 3500 
L 2222 3053 
L 1275 3053 
L 1275 0 
L 697 0 
L 697 3053 
L 147 3053 
L 147 3500 
L 697 3500 
L 697 3744 
Q 697 4328 969 4595 
Q 1241 4863 1831 4863 
L 2375 4863 
z
" transform="scale(0.015625)"/>
      <path id="DejaVuSans-69" d="M 603 3500 
L 1178 3500 
L 1178 0 
L 603 0 
L 603 3500 
z
M 603 4863 
L 1178 4863 
L 1178 4134 
L 603 4134 
L 603 4863 
z
" transform="scale(0.015625)"/>
      <path id="DejaVuSans-6e" d="M 3513 2113 
L 3513 0 
L 2938 0 
L 2938 2094 
Q 2938 2591 2744 2837 
Q 2550 3084 2163 3084 
Q 1697 3084 1428 2787 
Q 1159 2491 1159 1978 
L 1159 0 
L 581 0 
L 581 3500 
L 1159 3500 
L 1159 2956 
Q 1366 3272 1645 3428 
Q 1925 3584 2291 3584 
Q 2894 3584 3203 3211 
Q 3513 2838 3513 2113 
z
" transform="scale(0.015625)"/>
      <path id="DejaVuSans-61" d="M 2194 1759 
Q 1497 1759 1228 1600 
Q 959 1441 959 1056 
Q 959 750 1161 570 
Q 1363 391 1709 391 
Q 2188 391 2477 730 
Q 2766 1069 2766 1631 
L 2766 1759 
L 2194 1759 
z
M 3341 1997 
L 3341 0 
L 2766 0 
L 2766 531 
Q 2569 213 2275 61 
Q 1981 -91 1556 -91 
Q 1019 -91 701 211 
Q 384 513 384 1019 
Q 384 1609 779 1909 
Q 1175 2209 1959 2209 
L 2766 2209 
L 2766 2266 
Q 2766 2663 2505 2880 
Q 2244 3097 1772 3097 
Q 1472 3097 1187 3025 
Q 903 2953 641 2809 
L 641 3341 
Q 956 3463 1253 3523 
Q 1550 3584 1831 3584 
Q 2591 3584 2966 3190 
Q 3341 2797 3341 1997 
z
" transform="scale(0.015625)"/>
      <path id="DejaVuSans-6c" d="M 603 4863 
L 1178 4863 
L 1178 0 
L 603 0 
L 603 4863 
z
" transform="scale(0.015625)"/>
      <path id="DejaVuSans-5f" d="M 3263 -1063 
L 3263 -1509 
L -63 -1509 
L -63 -1063 
L 3263 -1063 
z
" transform="scale(0.015625)"/>
      <path id="DejaVuSans-76" d="M 191 3500 
L 800 3500 
L 1894 563 
L 2988 3500 
L 3597 3500 
L 2284 0 
L 1503 0 
L 191 3500 
z
" transform="scale(0.015625)"/>
      <path id="DejaVuSans-65" d="M 3597 1894 
L 3597 1613 
L 953 1613 
Q 991 1019 1311 708 
Q 1631 397 2203 397 
Q 2534 397 2845 478 
Q 3156 559 3463 722 
L 3463 178 
Q 3153 47 2828 -22 
Q 2503 -91 2169 -91 
Q 1331 -91 842 396 
Q 353 884 353 1716 
Q 353 2575 817 3079 
Q 1281 3584 2069 3584 
Q 2775 3584 3186 3129 
Q 3597 2675 3597 1894 
z
M 3022 2063 
Q 3016 2534 2758 2815 
Q 2500 3097 2075 3097 
Q 1594 3097 1305 2825 
Q 1016 2553 972 2059 
L 3022 2063 
z
" transform="scale(0.015625)"/>
      <path id="DejaVuSans-63" d="M 3122 3366 
L 3122 2828 
Q 2878 2963 2633 3030 
Q 2388 3097 2138 3097 
Q 1578 3097 1268 2742 
Q 959 2388 959 1747 
Q 959 1106 1268 751 
Q 1578 397 2138 397 
Q 2388 397 2633 464 
Q 2878 531 3122 666 
L 3122 134 
Q 2881 22 2623 -34 
Q 2366 -91 2075 -91 
Q 1284 -91 818 406 
Q 353 903 353 1747 
Q 353 2603 823 3093 
Q 1294 3584 2113 3584 
Q 2378 3584 2631 3529 
Q 2884 3475 3122 3366 
z
" transform="scale(0.015625)"/>
     </defs>
     <use xlink:href="#DejaVuSans-31"/>
     <use xlink:href="#DejaVuSans-66" x="63.623047"/>
     <use xlink:href="#DejaVuSans-69" x="98.828125"/>
     <use xlink:href="#DejaVuSans-6e" x="126.611328"/>
     <use xlink:href="#DejaVuSans-61" x="189.990234"/>
     <use xlink:href="#DejaVuSans-6c" x="251.269531"/>
     <use xlink:href="#DejaVuSans-5f" x="279.052734"/>
     <use xlink:href="#DejaVuSans-6e" x="329.052734"/>
     <use xlink:href="#DejaVuSans-61" x="392.431641"/>
     <use xlink:href="#DejaVuSans-69" x="453.710938"/>
     <use xlink:href="#DejaVuSans-76" x="481.494141"/>
     <use xlink:href="#DejaVuSans-65" x="540.673828"/>
     <use xlink:href="#DejaVuSans-5f" x="602.197266"/>
     <use xlink:href="#DejaVuSans-61" x="652.197266"/>
     <use xlink:href="#DejaVuSans-61" x="713.476562"/>
     <use xlink:href="#DejaVuSans-5f" x="774.755859"/>
     <use xlink:href="#DejaVuSans-63" x="824.755859"/>
     <use xlink:href="#DejaVuSans-63" x="879.736328"/>
     <use xlink:href="#DejaVuSans-69" x="934.716797"/>
    </g>
   </g>
   <g id="legend_1">
    <g id="patch_7">
     <path d="M 64.6 108.1845 
L 200.035938 108.1845 
Q 202.035938 108.1845 202.035938 106.1845 
L 202.035938 48.472 
Q 202.035938 46.472 200.035938 46.472 
L 64.6 46.472 
Q 62.6 46.472 62.6 48.472 
L 62.6 106.1845 
Q 62.6 108.1845 64.6 108.1845 
z
" style="fill: #ffffff; opacity: 0.8; stroke: #cccccc; stroke-linejoin: miter"/>
    </g>
    <g id="line2d_18">
     <path d="M 66.6 54.570438 
L 76.6 54.570438 
L 86.6 54.570438 
" style="fill: none; stroke: #1f77b4; stroke-opacity: 0.7; stroke-width: 0.5; stroke-linecap: square"/>
    </g>
    <g id="text_15">
     <!-- Positive predictions -->
     <g transform="translate(94.6 58.070438) scale(0.1 -0.1)">
      <defs>
       <path id="DejaVuSans-50" d="M 1259 4147 
L 1259 2394 
L 2053 2394 
Q 2494 2394 2734 2622 
Q 2975 2850 2975 3272 
Q 2975 3691 2734 3919 
Q 2494 4147 2053 4147 
L 1259 4147 
z
M 628 4666 
L 2053 4666 
Q 2838 4666 3239 4311 
Q 3641 3956 3641 3272 
Q 3641 2581 3239 2228 
Q 2838 1875 2053 1875 
L 1259 1875 
L 1259 0 
L 628 0 
L 628 4666 
z
" transform="scale(0.015625)"/>
       <path id="DejaVuSans-6f" d="M 1959 3097 
Q 1497 3097 1228 2736 
Q 959 2375 959 1747 
Q 959 1119 1226 758 
Q 1494 397 1959 397 
Q 2419 397 2687 759 
Q 2956 1122 2956 1747 
Q 2956 2369 2687 2733 
Q 2419 3097 1959 3097 
z
M 1959 3584 
Q 2709 3584 3137 3096 
Q 3566 2609 3566 1747 
Q 3566 888 3137 398 
Q 2709 -91 1959 -91 
Q 1206 -91 779 398 
Q 353 888 353 1747 
Q 353 2609 779 3096 
Q 1206 3584 1959 3584 
z
" transform="scale(0.015625)"/>
       <path id="DejaVuSans-73" d="M 2834 3397 
L 2834 2853 
Q 2591 2978 2328 3040 
Q 2066 3103 1784 3103 
Q 1356 3103 1142 2972 
Q 928 2841 928 2578 
Q 928 2378 1081 2264 
Q 1234 2150 1697 2047 
L 1894 2003 
Q 2506 1872 2764 1633 
Q 3022 1394 3022 966 
Q 3022 478 2636 193 
Q 2250 -91 1575 -91 
Q 1294 -91 989 -36 
Q 684 19 347 128 
L 347 722 
Q 666 556 975 473 
Q 1284 391 1588 391 
Q 1994 391 2212 530 
Q 2431 669 2431 922 
Q 2431 1156 2273 1281 
Q 2116 1406 1581 1522 
L 1381 1569 
Q 847 1681 609 1914 
Q 372 2147 372 2553 
Q 372 3047 722 3315 
Q 1072 3584 1716 3584 
Q 2034 3584 2315 3537 
Q 2597 3491 2834 3397 
z
" transform="scale(0.015625)"/>
       <path id="DejaVuSans-74" d="M 1172 4494 
L 1172 3500 
L 2356 3500 
L 2356 3053 
L 1172 3053 
L 1172 1153 
Q 1172 725 1289 603 
Q 1406 481 1766 481 
L 2356 481 
L 2356 0 
L 1766 0 
Q 1100 0 847 248 
Q 594 497 594 1153 
L 594 3053 
L 172 3053 
L 172 3500 
L 594 3500 
L 594 4494 
L 1172 4494 
z
" transform="scale(0.015625)"/>
       <path id="DejaVuSans-20" transform="scale(0.015625)"/>
       <path id="DejaVuSans-70" d="M 1159 525 
L 1159 -1331 
L 581 -1331 
L 581 3500 
L 1159 3500 
L 1159 2969 
Q 1341 3281 1617 3432 
Q 1894 3584 2278 3584 
Q 2916 3584 3314 3078 
Q 3713 2572 3713 1747 
Q 3713 922 3314 415 
Q 2916 -91 2278 -91 
Q 1894 -91 1617 61 
Q 1341 213 1159 525 
z
M 3116 1747 
Q 3116 2381 2855 2742 
Q 2594 3103 2138 3103 
Q 1681 3103 1420 2742 
Q 1159 2381 1159 1747 
Q 1159 1113 1420 752 
Q 1681 391 2138 391 
Q 2594 391 2855 752 
Q 3116 1113 3116 1747 
z
" transform="scale(0.015625)"/>
       <path id="DejaVuSans-72" d="M 2631 2963 
Q 2534 3019 2420 3045 
Q 2306 3072 2169 3072 
Q 1681 3072 1420 2755 
Q 1159 2438 1159 1844 
L 1159 0 
L 581 0 
L 581 3500 
L 1159 3500 
L 1159 2956 
Q 1341 3275 1631 3429 
Q 1922 3584 2338 3584 
Q 2397 3584 2469 3576 
Q 2541 3569 2628 3553 
L 2631 2963 
z
" transform="scale(0.015625)"/>
       <path id="DejaVuSans-64" d="M 2906 2969 
L 2906 4863 
L 3481 4863 
L 3481 0 
L 2906 0 
L 2906 525 
Q 2725 213 2448 61 
Q 2172 -91 1784 -91 
Q 1150 -91 751 415 
Q 353 922 353 1747 
Q 353 2572 751 3078 
Q 1150 3584 1784 3584 
Q 2172 3584 2448 3432 
Q 2725 3281 2906 2969 
z
M 947 1747 
Q 947 1113 1208 752 
Q 1469 391 1925 391 
Q 2381 391 2643 752 
Q 2906 1113 2906 1747 
Q 2906 2381 2643 2742 
Q 2381 3103 1925 3103 
Q 1469 3103 1208 2742 
Q 947 2381 947 1747 
z
" transform="scale(0.015625)"/>
      </defs>
      <use xlink:href="#DejaVuSans-50"/>
      <use xlink:href="#DejaVuSans-6f" x="56.677734"/>
      <use xlink:href="#DejaVuSans-73" x="117.859375"/>
      <use xlink:href="#DejaVuSans-69" x="169.958984"/>
      <use xlink:href="#DejaVuSans-74" x="197.742188"/>
      <use xlink:href="#DejaVuSans-69" x="236.951172"/>
      <use xlink:href="#DejaVuSans-76" x="264.734375"/>
      <use xlink:href="#DejaVuSans-65" x="323.914062"/>
      <use xlink:href="#DejaVuSans-20" x="385.4375"/>
      <use xlink:href="#DejaVuSans-70" x="417.224609"/>
      <use xlink:href="#DejaVuSans-72" x="480.701172"/>
      <use xlink:href="#DejaVuSans-65" x="519.564453"/>
      <use xlink:href="#DejaVuSans-64" x="581.087891"/>
      <use xlink:href="#DejaVuSans-69" x="644.564453"/>
      <use xlink:href="#DejaVuSans-63" x="672.347656"/>
      <use xlink:href="#DejaVuSans-74" x="727.328125"/>
      <use xlink:href="#DejaVuSans-69" x="766.537109"/>
      <use xlink:href="#DejaVuSans-6f" x="794.320312"/>
      <use xlink:href="#DejaVuSans-6e" x="855.501953"/>
      <use xlink:href="#DejaVuSans-73" x="918.880859"/>
     </g>
    </g>
    <g id="line2d_19">
     <path d="M 66.6 69.248563 
L 76.6 69.248563 
L 86.6 69.248563 
" style="fill: none; stroke: #ff7f0e; stroke-opacity: 0.7; stroke-width: 0.5; stroke-linecap: square"/>
    </g>
    <g id="text_16">
     <!-- Negative predictions -->
     <g transform="translate(94.6 72.748563) scale(0.1 -0.1)">
      <defs>
       <path id="DejaVuSans-4e" d="M 628 4666 
L 1478 4666 
L 3547 763 
L 3547 4666 
L 4159 4666 
L 4159 0 
L 3309 0 
L 1241 3903 
L 1241 0 
L 628 0 
L 628 4666 
z
" transform="scale(0.015625)"/>
       <path id="DejaVuSans-67" d="M 2906 1791 
Q 2906 2416 2648 2759 
Q 2391 3103 1925 3103 
Q 1463 3103 1205 2759 
Q 947 2416 947 1791 
Q 947 1169 1205 825 
Q 1463 481 1925 481 
Q 2391 481 2648 825 
Q 2906 1169 2906 1791 
z
M 3481 434 
Q 3481 -459 3084 -895 
Q 2688 -1331 1869 -1331 
Q 1566 -1331 1297 -1286 
Q 1028 -1241 775 -1147 
L 775 -588 
Q 1028 -725 1275 -790 
Q 1522 -856 1778 -856 
Q 2344 -856 2625 -561 
Q 2906 -266 2906 331 
L 2906 616 
Q 2728 306 2450 153 
Q 2172 0 1784 0 
Q 1141 0 747 490 
Q 353 981 353 1791 
Q 353 2603 747 3093 
Q 1141 3584 1784 3584 
Q 2172 3584 2450 3431 
Q 2728 3278 2906 2969 
L 2906 3500 
L 3481 3500 
L 3481 434 
z
" transform="scale(0.015625)"/>
      </defs>
      <use xlink:href="#DejaVuSans-4e"/>
      <use xlink:href="#DejaVuSans-65" x="74.804688"/>
      <use xlink:href="#DejaVuSans-67" x="136.328125"/>
      <use xlink:href="#DejaVuSans-61" x="199.804688"/>
      <use xlink:href="#DejaVuSans-74" x="261.083984"/>
      <use xlink:href="#DejaVuSans-69" x="300.292969"/>
      <use xlink:href="#DejaVuSans-76" x="328.076172"/>
      <use xlink:href="#DejaVuSans-65" x="387.255859"/>
      <use xlink:href="#DejaVuSans-20" x="448.779297"/>
      <use xlink:href="#DejaVuSans-70" x="480.566406"/>
      <use xlink:href="#DejaVuSans-72" x="544.042969"/>
      <use xlink:href="#DejaVuSans-65" x="582.90625"/>
      <use xlink:href="#DejaVuSans-64" x="644.429688"/>
      <use xlink:href="#DejaVuSans-69" x="707.90625"/>
      <use xlink:href="#DejaVuSans-63" x="735.689453"/>
      <use xlink:href="#DejaVuSans-74" x="790.669922"/>
      <use xlink:href="#DejaVuSans-69" x="829.878906"/>
      <use xlink:href="#DejaVuSans-6f" x="857.662109"/>
      <use xlink:href="#DejaVuSans-6e" x="918.84375"/>
      <use xlink:href="#DejaVuSans-73" x="982.222656"/>
     </g>
    </g>
    <g id="line2d_20">
     <path d="M 66.6 83.926688 
L 76.6 83.926688 
L 86.6 83.926688 
" style="fill: none; stroke: #2ca02c; stroke-opacity: 0.7; stroke-width: 0.5; stroke-linecap: square"/>
    </g>
    <g id="text_17">
     <!-- Average predictions -->
     <g transform="translate(94.6 87.426688) scale(0.1 -0.1)">
      <defs>
       <path id="DejaVuSans-41" d="M 2188 4044 
L 1331 1722 
L 3047 1722 
L 2188 4044 
z
M 1831 4666 
L 2547 4666 
L 4325 0 
L 3669 0 
L 3244 1197 
L 1141 1197 
L 716 0 
L 50 0 
L 1831 4666 
z
" transform="scale(0.015625)"/>
      </defs>
      <use xlink:href="#DejaVuSans-41"/>
      <use xlink:href="#DejaVuSans-76" x="62.533203"/>
      <use xlink:href="#DejaVuSans-65" x="121.712891"/>
      <use xlink:href="#DejaVuSans-72" x="183.236328"/>
      <use xlink:href="#DejaVuSans-61" x="224.349609"/>
      <use xlink:href="#DejaVuSans-67" x="285.628906"/>
      <use xlink:href="#DejaVuSans-65" x="349.105469"/>
      <use xlink:href="#DejaVuSans-20" x="410.628906"/>
      <use xlink:href="#DejaVuSans-70" x="442.416016"/>
      <use xlink:href="#DejaVuSans-72" x="505.892578"/>
      <use xlink:href="#DejaVuSans-65" x="544.755859"/>
      <use xlink:href="#DejaVuSans-64" x="606.279297"/>
      <use xlink:href="#DejaVuSans-69" x="669.755859"/>
      <use xlink:href="#DejaVuSans-63" x="697.539062"/>
      <use xlink:href="#DejaVuSans-74" x="752.519531"/>
      <use xlink:href="#DejaVuSans-69" x="791.728516"/>
      <use xlink:href="#DejaVuSans-6f" x="819.511719"/>
      <use xlink:href="#DejaVuSans-6e" x="880.693359"/>
      <use xlink:href="#DejaVuSans-73" x="944.072266"/>
     </g>
    </g>
    <g id="line2d_21">
     <path d="M 66.6 98.604813 
L 76.6 98.604813 
L 86.6 98.604813 
" style="fill: none; stroke: #d62728; stroke-opacity: 0.7; stroke-width: 0.5; stroke-linecap: square"/>
    </g>
    <g id="text_18">
     <!-- Actual values -->
     <g transform="translate(94.6 102.104813) scale(0.1 -0.1)">
      <defs>
       <path id="DejaVuSans-75" d="M 544 1381 
L 544 3500 
L 1119 3500 
L 1119 1403 
Q 1119 906 1312 657 
Q 1506 409 1894 409 
Q 2359 409 2629 706 
Q 2900 1003 2900 1516 
L 2900 3500 
L 3475 3500 
L 3475 0 
L 2900 0 
L 2900 538 
Q 2691 219 2414 64 
Q 2138 -91 1772 -91 
Q 1169 -91 856 284 
Q 544 659 544 1381 
z
M 1991 3584 
L 1991 3584 
z
" transform="scale(0.015625)"/>
      </defs>
      <use xlink:href="#DejaVuSans-41"/>
      <use xlink:href="#DejaVuSans-63" x="66.658203"/>
      <use xlink:href="#DejaVuSans-74" x="121.638672"/>
      <use xlink:href="#DejaVuSans-75" x="160.847656"/>
      <use xlink:href="#DejaVuSans-61" x="224.226562"/>
      <use xlink:href="#DejaVuSans-6c" x="285.505859"/>
      <use xlink:href="#DejaVuSans-20" x="313.289062"/>
      <use xlink:href="#DejaVuSans-76" x="345.076172"/>
      <use xlink:href="#DejaVuSans-61" x="404.255859"/>
      <use xlink:href="#DejaVuSans-6c" x="465.535156"/>
      <use xlink:href="#DejaVuSans-75" x="493.318359"/>
      <use xlink:href="#DejaVuSans-65" x="556.697266"/>
      <use xlink:href="#DejaVuSans-73" x="618.220703"/>
     </g>
    </g>
   </g>
  </g>
 </g>
 <defs>
  <clipPath id="p7aecda45f2">
   <rect x="57.6" y="41.472" width="357.12" height="266.112"/>
  </clipPath>
 </defs>
</svg>
