<?xml version="1.0" encoding="utf-8" standalone="no"?>
<!DOCTYPE svg PUBLIC "-//W3C//DTD SVG 1.1//EN"
  "http://www.w3.org/Graphics/SVG/1.1/DTD/svg11.dtd">
<svg xmlns:xlink="http://www.w3.org/1999/xlink" width="460.8pt" height="345.6pt" viewBox="0 0 460.8 345.6" xmlns="http://www.w3.org/2000/svg" version="1.1">
 <metadata>
  <rdf:RDF xmlns:dc="http://purl.org/dc/elements/1.1/" xmlns:cc="http://creativecommons.org/ns#" xmlns:rdf="http://www.w3.org/1999/02/22-rdf-syntax-ns#">
   <cc:Work>
    <dc:type rdf:resource="http://purl.org/dc/dcmitype/StillImage"/>
    <dc:date>2024-09-06T11:25:58.012807</dc:date>
    <dc:format>image/svg+xml</dc:format>
    <dc:creator>
     <cc:Agent>
      <dc:title>Matplotlib v3.9.0, https://matplotlib.org/</dc:title>
     </cc:Agent>
    </dc:creator>
   </cc:Work>
  </rdf:RDF>
 </metadata>
 <defs>
  <style type="text/css">*{stroke-linejoin: round; stroke-linecap: butt}</style>
 </defs>
 <g id="figure_1">
  <g id="patch_1">
   <path d="M 0 345.6 
L 460.8 345.6 
L 460.8 0 
L 0 0 
z
" style="fill: #ffffff"/>
  </g>
  <g id="axes_1">
   <g id="patch_2">
    <path d="M 57.6 307.584 
L 414.72 307.584 
L 414.72 41.472 
L 57.6 41.472 
z
" style="fill: #ffffff"/>
   </g>
   <g id="matplotlib.axis_1">
    <g id="xtick_1">
     <g id="line2d_1">
      <defs>
       <path id="m9ddb132a0f" d="M 0 0 
L 0 3.5 
" style="stroke: #000000; stroke-width: 0.8"/>
      </defs>
      <g>
       <use xlink:href="#m9ddb132a0f" x="73.832727" y="307.584" style="stroke: #000000; stroke-width: 0.8"/>
      </g>
     </g>
     <g id="text_1">
      <!-- 0 -->
      <g transform="translate(70.651477 322.182437) scale(0.1 -0.1)">
       <defs>
        <path id="DejaVuSans-30" d="M 2034 4250 
Q 1547 4250 1301 3770 
Q 1056 3291 1056 2328 
Q 1056 1369 1301 889 
Q 1547 409 2034 409 
Q 2525 409 2770 889 
Q 3016 1369 3016 2328 
Q 3016 3291 2770 3770 
Q 2525 4250 2034 4250 
z
M 2034 4750 
Q 2819 4750 3233 4129 
Q 3647 3509 3647 2328 
Q 3647 1150 3233 529 
Q 2819 -91 2034 -91 
Q 1250 -91 836 529 
Q 422 1150 422 2328 
Q 422 3509 836 4129 
Q 1250 4750 2034 4750 
z
" transform="scale(0.015625)"/>
       </defs>
       <use xlink:href="#DejaVuSans-30"/>
      </g>
     </g>
    </g>
    <g id="xtick_2">
     <g id="line2d_2">
      <g>
       <use xlink:href="#m9ddb132a0f" x="149.333784" y="307.584" style="stroke: #000000; stroke-width: 0.8"/>
      </g>
     </g>
     <g id="text_2">
      <!-- 50 -->
      <g transform="translate(142.971284 322.182437) scale(0.1 -0.1)">
       <defs>
        <path id="DejaVuSans-35" d="M 691 4666 
L 3169 4666 
L 3169 4134 
L 1269 4134 
L 1269 2991 
Q 1406 3038 1543 3061 
Q 1681 3084 1819 3084 
Q 2600 3084 3056 2656 
Q 3513 2228 3513 1497 
Q 3513 744 3044 326 
Q 2575 -91 1722 -91 
Q 1428 -91 1123 -41 
Q 819 9 494 109 
L 494 744 
Q 775 591 1075 516 
Q 1375 441 1709 441 
Q 2250 441 2565 725 
Q 2881 1009 2881 1497 
Q 2881 1984 2565 2268 
Q 2250 2553 1709 2553 
Q 1456 2553 1204 2497 
Q 953 2441 691 2322 
L 691 4666 
z
" transform="scale(0.015625)"/>
       </defs>
       <use xlink:href="#DejaVuSans-35"/>
       <use xlink:href="#DejaVuSans-30" x="63.623047"/>
      </g>
     </g>
    </g>
    <g id="xtick_3">
     <g id="line2d_3">
      <g>
       <use xlink:href="#m9ddb132a0f" x="224.834841" y="307.584" style="stroke: #000000; stroke-width: 0.8"/>
      </g>
     </g>
     <g id="text_3">
      <!-- 100 -->
      <g transform="translate(215.291091 322.182437) scale(0.1 -0.1)">
       <defs>
        <path id="DejaVuSans-31" d="M 794 531 
L 1825 531 
L 1825 4091 
L 703 3866 
L 703 4441 
L 1819 4666 
L 2450 4666 
L 2450 531 
L 3481 531 
L 3481 0 
L 794 0 
L 794 531 
z
" transform="scale(0.015625)"/>
       </defs>
       <use xlink:href="#DejaVuSans-31"/>
       <use xlink:href="#DejaVuSans-30" x="63.623047"/>
       <use xlink:href="#DejaVuSans-30" x="127.246094"/>
      </g>
     </g>
    </g>
    <g id="xtick_4">
     <g id="line2d_4">
      <g>
       <use xlink:href="#m9ddb132a0f" x="300.335899" y="307.584" style="stroke: #000000; stroke-width: 0.8"/>
      </g>
     </g>
     <g id="text_4">
      <!-- 150 -->
      <g transform="translate(290.792149 322.182437) scale(0.1 -0.1)">
       <use xlink:href="#DejaVuSans-31"/>
       <use xlink:href="#DejaVuSans-35" x="63.623047"/>
       <use xlink:href="#DejaVuSans-30" x="127.246094"/>
      </g>
     </g>
    </g>
    <g id="xtick_5">
     <g id="line2d_5">
      <g>
       <use xlink:href="#m9ddb132a0f" x="375.836956" y="307.584" style="stroke: #000000; stroke-width: 0.8"/>
      </g>
     </g>
     <g id="text_5">
      <!-- 200 -->
      <g transform="translate(366.293206 322.182437) scale(0.1 -0.1)">
       <defs>
        <path id="DejaVuSans-32" d="M 1228 531 
L 3431 531 
L 3431 0 
L 469 0 
L 469 531 
Q 828 903 1448 1529 
Q 2069 2156 2228 2338 
Q 2531 2678 2651 2914 
Q 2772 3150 2772 3378 
Q 2772 3750 2511 3984 
Q 2250 4219 1831 4219 
Q 1534 4219 1204 4116 
Q 875 4013 500 3803 
L 500 4441 
Q 881 4594 1212 4672 
Q 1544 4750 1819 4750 
Q 2544 4750 2975 4387 
Q 3406 4025 3406 3419 
Q 3406 3131 3298 2873 
Q 3191 2616 2906 2266 
Q 2828 2175 2409 1742 
Q 1991 1309 1228 531 
z
" transform="scale(0.015625)"/>
       </defs>
       <use xlink:href="#DejaVuSans-32"/>
       <use xlink:href="#DejaVuSans-30" x="63.623047"/>
       <use xlink:href="#DejaVuSans-30" x="127.246094"/>
      </g>
     </g>
    </g>
   </g>
   <g id="matplotlib.axis_2">
    <g id="ytick_1">
     <g id="line2d_6">
      <defs>
       <path id="m520f363c12" d="M 0 0 
L -3.5 0 
" style="stroke: #000000; stroke-width: 0.8"/>
      </defs>
      <g>
       <use xlink:href="#m520f363c12" x="57.6" y="276.839106" style="stroke: #000000; stroke-width: 0.8"/>
      </g>
     </g>
     <g id="text_6">
      <!-- −6000 -->
      <g transform="translate(16.770313 280.638325) scale(0.1 -0.1)">
       <defs>
        <path id="DejaVuSans-2212" d="M 678 2272 
L 4684 2272 
L 4684 1741 
L 678 1741 
L 678 2272 
z
" transform="scale(0.015625)"/>
        <path id="DejaVuSans-36" d="M 2113 2584 
Q 1688 2584 1439 2293 
Q 1191 2003 1191 1497 
Q 1191 994 1439 701 
Q 1688 409 2113 409 
Q 2538 409 2786 701 
Q 3034 994 3034 1497 
Q 3034 2003 2786 2293 
Q 2538 2584 2113 2584 
z
M 3366 4563 
L 3366 3988 
Q 3128 4100 2886 4159 
Q 2644 4219 2406 4219 
Q 1781 4219 1451 3797 
Q 1122 3375 1075 2522 
Q 1259 2794 1537 2939 
Q 1816 3084 2150 3084 
Q 2853 3084 3261 2657 
Q 3669 2231 3669 1497 
Q 3669 778 3244 343 
Q 2819 -91 2113 -91 
Q 1303 -91 875 529 
Q 447 1150 447 2328 
Q 447 3434 972 4092 
Q 1497 4750 2381 4750 
Q 2619 4750 2861 4703 
Q 3103 4656 3366 4563 
z
" transform="scale(0.015625)"/>
       </defs>
       <use xlink:href="#DejaVuSans-2212"/>
       <use xlink:href="#DejaVuSans-36" x="83.789062"/>
       <use xlink:href="#DejaVuSans-30" x="147.412109"/>
       <use xlink:href="#DejaVuSans-30" x="211.035156"/>
       <use xlink:href="#DejaVuSans-30" x="274.658203"/>
      </g>
     </g>
    </g>
    <g id="ytick_2">
     <g id="line2d_7">
      <g>
       <use xlink:href="#m520f363c12" x="57.6" y="245.826682" style="stroke: #000000; stroke-width: 0.8"/>
      </g>
     </g>
     <g id="text_7">
      <!-- −4000 -->
      <g transform="translate(16.770313 249.6259) scale(0.1 -0.1)">
       <defs>
        <path id="DejaVuSans-34" d="M 2419 4116 
L 825 1625 
L 2419 1625 
L 2419 4116 
z
M 2253 4666 
L 3047 4666 
L 3047 1625 
L 3713 1625 
L 3713 1100 
L 3047 1100 
L 3047 0 
L 2419 0 
L 2419 1100 
L 313 1100 
L 313 1709 
L 2253 4666 
z
" transform="scale(0.015625)"/>
       </defs>
       <use xlink:href="#DejaVuSans-2212"/>
       <use xlink:href="#DejaVuSans-34" x="83.789062"/>
       <use xlink:href="#DejaVuSans-30" x="147.412109"/>
       <use xlink:href="#DejaVuSans-30" x="211.035156"/>
       <use xlink:href="#DejaVuSans-30" x="274.658203"/>
      </g>
     </g>
    </g>
    <g id="ytick_3">
     <g id="line2d_8">
      <g>
       <use xlink:href="#m520f363c12" x="57.6" y="214.814257" style="stroke: #000000; stroke-width: 0.8"/>
      </g>
     </g>
     <g id="text_8">
      <!-- −2000 -->
      <g transform="translate(16.770313 218.613475) scale(0.1 -0.1)">
       <use xlink:href="#DejaVuSans-2212"/>
       <use xlink:href="#DejaVuSans-32" x="83.789062"/>
       <use xlink:href="#DejaVuSans-30" x="147.412109"/>
       <use xlink:href="#DejaVuSans-30" x="211.035156"/>
       <use xlink:href="#DejaVuSans-30" x="274.658203"/>
      </g>
     </g>
    </g>
    <g id="ytick_4">
     <g id="line2d_9">
      <g>
       <use xlink:href="#m520f363c12" x="57.6" y="183.801832" style="stroke: #000000; stroke-width: 0.8"/>
      </g>
     </g>
     <g id="text_9">
      <!-- 0 -->
      <g transform="translate(44.2375 187.60105) scale(0.1 -0.1)">
       <use xlink:href="#DejaVuSans-30"/>
      </g>
     </g>
    </g>
    <g id="ytick_5">
     <g id="line2d_10">
      <g>
       <use xlink:href="#m520f363c12" x="57.6" y="152.789407" style="stroke: #000000; stroke-width: 0.8"/>
      </g>
     </g>
     <g id="text_10">
      <!-- 2000 -->
      <g transform="translate(25.15 156.588625) scale(0.1 -0.1)">
       <use xlink:href="#DejaVuSans-32"/>
       <use xlink:href="#DejaVuSans-30" x="63.623047"/>
       <use xlink:href="#DejaVuSans-30" x="127.246094"/>
       <use xlink:href="#DejaVuSans-30" x="190.869141"/>
      </g>
     </g>
    </g>
    <g id="ytick_6">
     <g id="line2d_11">
      <g>
       <use xlink:href="#m520f363c12" x="57.6" y="121.776982" style="stroke: #000000; stroke-width: 0.8"/>
      </g>
     </g>
     <g id="text_11">
      <!-- 4000 -->
      <g transform="translate(25.15 125.576201) scale(0.1 -0.1)">
       <use xlink:href="#DejaVuSans-34"/>
       <use xlink:href="#DejaVuSans-30" x="63.623047"/>
       <use xlink:href="#DejaVuSans-30" x="127.246094"/>
       <use xlink:href="#DejaVuSans-30" x="190.869141"/>
      </g>
     </g>
    </g>
    <g id="ytick_7">
     <g id="line2d_12">
      <g>
       <use xlink:href="#m520f363c12" x="57.6" y="90.764557" style="stroke: #000000; stroke-width: 0.8"/>
      </g>
     </g>
     <g id="text_12">
      <!-- 6000 -->
      <g transform="translate(25.15 94.563776) scale(0.1 -0.1)">
       <use xlink:href="#DejaVuSans-36"/>
       <use xlink:href="#DejaVuSans-30" x="63.623047"/>
       <use xlink:href="#DejaVuSans-30" x="127.246094"/>
       <use xlink:href="#DejaVuSans-30" x="190.869141"/>
      </g>
     </g>
    </g>
    <g id="ytick_8">
     <g id="line2d_13">
      <g>
       <use xlink:href="#m520f363c12" x="57.6" y="59.752132" style="stroke: #000000; stroke-width: 0.8"/>
      </g>
     </g>
     <g id="text_13">
      <!-- 8000 -->
      <g transform="translate(25.15 63.551351) scale(0.1 -0.1)">
       <defs>
        <path id="DejaVuSans-38" d="M 2034 2216 
Q 1584 2216 1326 1975 
Q 1069 1734 1069 1313 
Q 1069 891 1326 650 
Q 1584 409 2034 409 
Q 2484 409 2743 651 
Q 3003 894 3003 1313 
Q 3003 1734 2745 1975 
Q 2488 2216 2034 2216 
z
M 1403 2484 
Q 997 2584 770 2862 
Q 544 3141 544 3541 
Q 544 4100 942 4425 
Q 1341 4750 2034 4750 
Q 2731 4750 3128 4425 
Q 3525 4100 3525 3541 
Q 3525 3141 3298 2862 
Q 3072 2584 2669 2484 
Q 3125 2378 3379 2068 
Q 3634 1759 3634 1313 
Q 3634 634 3220 271 
Q 2806 -91 2034 -91 
Q 1263 -91 848 271 
Q 434 634 434 1313 
Q 434 1759 690 2068 
Q 947 2378 1403 2484 
z
M 1172 3481 
Q 1172 3119 1398 2916 
Q 1625 2713 2034 2713 
Q 2441 2713 2670 2916 
Q 2900 3119 2900 3481 
Q 2900 3844 2670 4047 
Q 2441 4250 2034 4250 
Q 1625 4250 1398 4047 
Q 1172 3844 1172 3481 
z
" transform="scale(0.015625)"/>
       </defs>
       <use xlink:href="#DejaVuSans-38"/>
       <use xlink:href="#DejaVuSans-30" x="63.623047"/>
       <use xlink:href="#DejaVuSans-30" x="127.246094"/>
       <use xlink:href="#DejaVuSans-30" x="190.869141"/>
      </g>
     </g>
    </g>
   </g>
   <g id="line2d_14">
    <path d="M 73.832727 186.920061 
L 75.342748 183.279812 
L 76.85277 183.771578 
L 78.362791 184.383391 
L 79.872812 184.85221 
L 81.382833 183.308888 
L 82.892854 185.031519 
L 84.402875 185.744449 
L 85.912896 182.544453 
L 87.422918 184.480472 
L 88.932939 185.147186 
L 90.44296 183.498315 
L 91.952981 183.663325 
L 93.463002 182.613551 
L 94.973023 183.212949 
L 96.483044 184.244103 
L 97.993066 184.551833 
L 101.013108 182.748161 
L 102.523129 185.042598 
L 104.03315 184.385863 
L 105.543171 182.581823 
L 107.053192 184.329323 
L 108.563214 184.783181 
L 110.073235 184.003792 
L 111.583256 184.044582 
L 114.603298 183.849563 
L 116.113319 183.293892 
L 117.62334 183.286031 
L 119.133362 184.339798 
L 120.643383 184.745142 
L 122.153404 183.939357 
L 123.663425 183.962372 
L 125.173446 183.511206 
L 128.193488 183.691933 
L 129.70351 184.09106 
L 131.213531 183.716553 
L 134.233573 184.026619 
L 135.743594 183.559032 
L 137.253615 185.171746 
L 138.763636 183.534924 
L 140.273658 183.711335 
L 141.783679 184.821913 
L 143.2937 184.814823 
L 146.313742 183.630571 
L 147.823763 186.017304 
L 149.333784 184.905648 
L 150.843805 180.434341 
L 152.353827 182.376369 
L 153.863848 187.154691 
L 155.373869 185.914911 
L 156.88389 182.449723 
L 158.393911 185.659321 
L 159.903932 184.605416 
L 161.413953 184.254949 
L 162.923975 183.693055 
L 164.433996 183.388904 
L 165.944017 183.997823 
L 167.454038 184.039419 
L 168.964059 184.546042 
L 170.47408 183.471954 
L 171.984101 183.041341 
L 173.494123 185.048037 
L 175.004144 184.291675 
L 176.514165 184.385037 
L 178.024186 183.776212 
L 179.534207 185.05818 
L 181.044228 183.723298 
L 182.554249 185.402353 
L 184.064271 184.353037 
L 185.574292 183.082777 
L 187.084313 183.95999 
L 188.594334 184.292599 
L 190.104355 181.11182 
L 191.614376 185.207238 
L 193.124397 184.106617 
L 194.634419 184.238881 
L 196.14444 185.787798 
L 197.654461 182.739122 
L 199.164482 184.706838 
L 203.694545 182.925999 
L 205.204567 184.119486 
L 206.714588 184.335468 
L 208.224609 183.493554 
L 209.73463 184.301635 
L 211.244651 182.97597 
L 212.754672 184.289462 
L 214.264693 182.851186 
L 215.774715 184.177978 
L 217.284736 184.280378 
L 218.794757 183.337472 
L 220.304778 183.516483 
L 221.814799 183.473199 
L 223.32482 185.30739 
L 224.834841 186.39777 
L 226.344863 181.639837 
L 227.854884 185.221879 
L 230.874926 182.886771 
L 232.384947 187.577456 
L 233.894968 188.501032 
L 235.404989 192.348985 
L 236.915011 172.641592 
L 238.425032 191.568358 
L 239.935053 189.882096 
L 241.445074 172.480726 
L 242.955095 194.336203 
L 244.465116 183.922181 
L 245.975137 187.123448 
L 247.485159 192.501261 
L 248.99518 189.32094 
L 250.505201 175.412034 
L 252.015222 190.700323 
L 253.525243 187.023216 
L 255.035264 185.924731 
L 256.545285 195.68016 
L 258.055307 188.202644 
L 259.565328 177.473433 
L 261.075349 191.425069 
L 262.58537 181.320978 
L 264.095391 189.092699 
L 265.605412 180.046223 
L 267.115433 184.430661 
L 268.625455 190.80184 
L 270.135476 182.651394 
L 271.645497 176.527591 
L 273.155518 180.303173 
L 274.665539 195.281928 
L 276.17556 182.654885 
L 277.685581 176.44606 
L 279.195603 184.387986 
L 280.705624 183.872284 
L 282.215645 189.623203 
L 283.725666 182.546291 
L 285.235687 184.389584 
L 286.745708 190.41375 
L 288.255729 186.031748 
L 289.765751 183.443079 
L 291.275772 184.797395 
L 292.785793 185.579599 
L 294.295814 188.304339 
L 295.805835 182.299949 
L 297.315856 195.327288 
L 298.825877 184.349948 
L 300.335899 186.992286 
L 301.84592 185.329626 
L 303.355941 184.153118 
L 304.865962 185.127106 
L 307.886004 176.782489 
L 309.396025 188.714278 
L 310.906047 184.627592 
L 312.416068 184.8943 
L 313.926089 181.001418 
L 315.43611 190.700238 
L 316.946131 184.237593 
L 318.456152 186.656463 
L 319.966173 185.841977 
L 321.476195 182.542067 
L 322.986216 183.66771 
L 324.496237 182.66141 
L 326.006258 183.788172 
L 327.516279 184.128088 
L 329.0263 185.582001 
L 330.536321 183.147801 
L 332.046342 184.673913 
L 333.556364 185.940103 
L 335.066385 183.215005 
L 336.576406 184.432314 
L 338.086427 184.962685 
L 341.106469 184.216189 
L 342.61649 184.378517 
L 344.126512 184.036055 
L 345.636533 185.308841 
L 347.146554 183.015246 
L 348.656575 182.949885 
L 350.166596 183.546193 
L 351.676617 186.61124 
L 353.186638 183.892489 
L 354.69666 188.83753 
L 356.206681 185.455331 
L 357.716702 184.191976 
L 359.226723 186.00418 
L 360.736744 182.51172 
L 362.246765 183.194199 
L 363.756786 184.126703 
L 365.266808 183.309389 
L 366.776829 184.815429 
L 368.28685 182.558733 
L 369.796871 185.904775 
L 371.306892 182.94558 
L 372.816913 185.746847 
L 374.326934 182.387199 
L 375.836956 182.004473 
L 377.346977 184.367551 
L 378.856998 183.570295 
L 380.367019 185.611558 
L 381.87704 183.577072 
L 383.387061 184.721157 
L 384.897082 186.681406 
L 386.407104 181.853407 
L 387.917125 188.240371 
L 389.427146 186.869139 
L 390.937167 186.945757 
L 392.447188 182.120492 
L 393.957209 183.710454 
L 395.46723 185.54572 
L 396.977252 185.583586 
L 398.487273 182.582763 
L 398.487273 182.582763 
" clip-path="url(#p04866af5e5)" style="fill: none; stroke: #008000; stroke-opacity: 0.8; stroke-width: 0.5; stroke-linecap: square"/>
   </g>
   <g id="line2d_15">
    <path d="M 73.832727 165.731522 
L 75.342748 166.74101 
L 76.85277 169.974939 
L 78.362791 170.557982 
L 79.872812 167.758227 
L 81.382833 174.337309 
L 82.892854 175.750877 
L 84.402875 174.291708 
L 85.912896 167.29272 
L 87.422918 179.45043 
L 88.932939 176.160984 
L 90.44296 178.188911 
L 91.952981 179.224713 
L 93.463002 173.368789 
L 94.973023 174.095711 
L 96.483044 180.860607 
L 97.993066 175.590512 
L 99.503087 168.977287 
L 101.013108 178.091157 
L 102.523129 179.259674 
L 104.03315 179.853123 
L 105.543171 174.291871 
L 107.053192 180.108018 
L 108.563214 182.191207 
L 110.073235 183.281538 
L 111.583256 179.042655 
L 113.093277 182.942106 
L 114.603298 181.324396 
L 116.113319 174.571755 
L 117.62334 172.585455 
L 119.133362 180.372436 
L 120.643383 182.127468 
L 122.153404 176.714115 
L 123.663425 180.014114 
L 125.173446 177.538915 
L 126.683467 181.443721 
L 129.70351 182.85995 
L 131.213531 177.914617 
L 132.723552 182.241795 
L 134.233573 182.691483 
L 137.253615 181.57875 
L 138.763636 178.742968 
L 140.273658 179.380244 
L 141.783679 182.276999 
L 143.2937 167.391262 
L 144.803721 175.308779 
L 146.313742 175.700379 
L 147.823763 178.652172 
L 149.333784 175.049286 
L 150.843805 136.372371 
L 152.353827 165.920398 
L 153.863848 165.678113 
L 155.373869 179.973881 
L 156.88389 173.273416 
L 158.393911 175.417628 
L 159.903932 176.985453 
L 161.413953 179.059626 
L 162.923975 181.659854 
L 164.433996 168.860642 
L 165.944017 178.973864 
L 167.454038 180.899687 
L 168.964059 174.462307 
L 171.984101 180.025929 
L 173.494123 178.024662 
L 175.004144 181.141691 
L 176.514165 179.689702 
L 178.024186 180.168411 
L 179.534207 176.385168 
L 181.044228 177.372447 
L 182.554249 179.678668 
L 184.064271 180.178564 
L 185.574292 174.305973 
L 187.084313 177.70203 
L 188.594334 171.229688 
L 190.104355 139.220229 
L 191.614376 178.512669 
L 193.124397 179.188832 
L 194.634419 177.528221 
L 196.14444 178.550548 
L 197.654461 173.797179 
L 199.164482 170.309155 
L 200.674503 176.317268 
L 202.184524 173.783348 
L 203.694545 174.535068 
L 205.204567 178.78746 
L 206.714588 181.435163 
L 208.224609 181.028695 
L 209.73463 165.756386 
L 211.244651 166.092117 
L 212.754672 175.470283 
L 214.264693 177.417561 
L 215.774715 167.747564 
L 217.284736 178.560035 
L 218.794757 176.476095 
L 220.304778 178.953187 
L 221.814799 179.139959 
L 223.32482 181.064137 
L 224.834841 175.729313 
L 226.344863 164.636543 
L 227.854884 171.851266 
L 229.364905 157.407088 
L 230.874926 170.013917 
L 232.384947 165.787247 
L 233.894968 161.08732 
L 235.404989 151.046349 
L 236.915011 106.361565 
L 238.425032 158.356354 
L 239.935053 155.153135 
L 241.445074 99.454723 
L 242.955095 125.231273 
L 244.465116 115.881047 
L 245.975137 143.754524 
L 247.485159 151.720629 
L 248.99518 154.955249 
L 250.505201 127.064419 
L 252.015222 128.710197 
L 253.525243 53.568 
L 255.035264 119.231207 
L 256.545285 153.817399 
L 258.055307 122.584153 
L 259.565328 131.710074 
L 261.075349 144.042661 
L 262.58537 150.292725 
L 264.095391 164.53194 
L 265.605412 155.977426 
L 267.115433 145.083061 
L 268.625455 154.100853 
L 270.135476 133.046243 
L 271.645497 79.870958 
L 273.155518 115.37652 
L 274.665539 119.357104 
L 276.17556 100.035697 
L 277.685581 98.308208 
L 279.195603 129.543505 
L 280.705624 108.831778 
L 282.215645 135.590643 
L 283.725666 128.635119 
L 285.235687 140.481169 
L 286.745708 141.579851 
L 288.255729 139.105719 
L 289.765751 156.386424 
L 292.785793 131.460702 
L 294.295814 149.639707 
L 295.805835 125.891834 
L 297.315856 160.808451 
L 298.825877 145.543029 
L 300.335899 163.142529 
L 301.84592 168.669919 
L 303.355941 151.267597 
L 304.865962 148.855311 
L 306.375983 150.345107 
L 307.886004 135.567365 
L 309.396025 140.190549 
L 310.906047 164.761101 
L 312.416068 150.984558 
L 313.926089 135.504916 
L 315.43611 170.859899 
L 316.946131 168.360551 
L 318.456152 167.019756 
L 319.966173 166.871826 
L 322.986216 171.109088 
L 324.496237 152.369073 
L 326.006258 169.501439 
L 327.516279 146.296998 
L 329.0263 173.409065 
L 330.536321 170.010752 
L 332.046342 177.247247 
L 333.556364 176.064141 
L 335.066385 165.827194 
L 336.576406 156.853973 
L 338.086427 177.080131 
L 339.596448 179.748541 
L 341.106469 176.279501 
L 342.61649 172.412167 
L 344.126512 179.453126 
L 345.636533 182.035895 
L 347.146554 165.78013 
L 348.656575 167.380049 
L 350.166596 166.513384 
L 351.676617 172.263959 
L 353.186638 164.002821 
L 354.69666 168.307718 
L 356.206681 168.568586 
L 357.716702 166.668027 
L 359.226723 173.287317 
L 360.736744 157.997291 
L 362.246765 166.101324 
L 363.756786 172.919079 
L 365.266808 170.466859 
L 366.776829 175.866594 
L 368.28685 164.349303 
L 369.796871 155.660782 
L 371.306892 173.676816 
L 372.816913 176.716992 
L 374.326934 165.598447 
L 375.836956 168.365079 
L 377.346977 178.818747 
L 378.856998 157.690975 
L 380.367019 160.930474 
L 381.87704 173.988595 
L 383.387061 173.465838 
L 384.897082 178.708919 
L 386.407104 171.804687 
L 387.917125 172.518276 
L 389.427146 169.11024 
L 390.937167 173.994118 
L 392.447188 153.97219 
L 393.957209 151.102773 
L 395.46723 146.04802 
L 396.977252 141.962779 
L 398.487273 167.837611 
L 398.487273 167.837611 
" clip-path="url(#p04866af5e5)" style="fill: none; stroke: #32cd32; stroke-opacity: 0.8; stroke-width: 0.5; stroke-linecap: square"/>
   </g>
   <g id="line2d_16">
    <path d="M 73.832727 213.396214 
L 75.342748 199.930954 
L 76.85277 199.021179 
L 78.362791 198.953491 
L 79.872812 191.534874 
L 81.382833 190.823201 
L 82.892854 192.275141 
L 84.402875 199.475213 
L 85.912896 195.415523 
L 87.422918 192.624771 
L 88.932939 191.636255 
L 90.44296 190.936321 
L 91.952981 185.969016 
L 93.463002 192.180611 
L 94.973023 190.395383 
L 96.483044 187.643154 
L 97.993066 192.678596 
L 99.503087 193.913389 
L 101.013108 188.496799 
L 102.523129 192.879636 
L 104.03315 187.489906 
L 105.543171 186.927265 
L 107.053192 187.892834 
L 108.563214 187.398576 
L 110.073235 185.625598 
L 111.583256 188.413919 
L 113.093277 184.783217 
L 114.603298 184.851291 
L 116.113319 187.308401 
L 117.62334 192.639131 
L 119.133362 190.883725 
L 120.643383 187.379833 
L 122.153404 189.253093 
L 123.663425 189.219917 
L 125.173446 187.325018 
L 126.683467 184.87661 
L 128.193488 184.738379 
L 129.70351 188.255258 
L 131.213531 186.869419 
L 132.723552 186.689815 
L 134.233573 185.134628 
L 135.743594 184.707211 
L 137.253615 194.593122 
L 138.763636 185.848053 
L 140.273658 186.403712 
L 141.783679 187.674599 
L 143.2937 196.423609 
L 144.803721 202.92614 
L 146.313742 193.195881 
L 147.823763 193.37978 
L 149.333784 192.306378 
L 150.843805 207.766522 
L 152.353827 200.314388 
L 153.863848 205.805071 
L 155.373869 189.848104 
L 156.88389 193.252308 
L 158.393911 198.149697 
L 159.903932 190.957691 
L 161.413953 188.609628 
L 162.923975 186.500299 
L 164.433996 192.971273 
L 165.944017 189.588732 
L 167.454038 188.263275 
L 168.964059 202.22933 
L 170.47408 188.247473 
L 171.984101 187.165188 
L 173.494123 190.750299 
L 175.004144 187.735637 
L 176.514165 197.636178 
L 178.024186 189.199356 
L 179.534207 190.964498 
L 181.044228 193.574497 
L 182.554249 190.8174 
L 184.064271 191.774539 
L 185.574292 192.353425 
L 187.084313 189.675552 
L 188.594334 191.376657 
L 190.104355 205.157778 
L 191.614376 195.922674 
L 193.124397 190.80724 
L 194.634419 192.735863 
L 196.14444 197.989065 
L 197.654461 193.30273 
L 199.164482 193.358388 
L 200.674503 190.3835 
L 202.184524 194.582412 
L 203.694545 188.592711 
L 205.204567 189.598036 
L 206.714588 188.73314 
L 208.224609 184.959498 
L 209.73463 200.226249 
L 211.244651 191.012077 
L 212.754672 189.23359 
L 214.264693 189.27613 
L 215.774715 201.310011 
L 217.284736 189.937045 
L 218.794757 193.445401 
L 220.304778 186.213419 
L 221.814799 186.626355 
L 224.834841 203.382074 
L 226.344863 199.600504 
L 227.854884 197.339906 
L 229.364905 198.318751 
L 230.874926 196.705565 
L 232.384947 210.520429 
L 233.894968 222.358271 
L 235.404989 269.146894 
L 236.915011 258.264451 
L 238.425032 241.767279 
L 239.935053 295.488 
L 241.445074 245.843134 
L 242.955095 265.0337 
L 244.465116 227.446096 
L 245.975137 239.091504 
L 247.485159 251.638624 
L 248.99518 242.40735 
L 250.505201 225.641833 
L 252.015222 277.803581 
L 253.525243 272.79568 
L 255.035264 293.087013 
L 256.545285 223.720092 
L 258.055307 247.693393 
L 259.565328 217.902335 
L 261.075349 213.494199 
L 262.58537 208.604836 
L 264.095391 234.942517 
L 265.605412 218.029162 
L 267.115433 222.652344 
L 268.625455 244.949066 
L 270.135476 222.542529 
L 271.645497 213.276794 
L 273.155518 221.597094 
L 274.665539 261.81292 
L 276.17556 220.882556 
L 277.685581 240.123394 
L 279.195603 246.154735 
L 280.705624 248.161987 
L 282.215645 228.142815 
L 283.725666 230.068311 
L 285.235687 242.829349 
L 286.745708 223.311964 
L 288.255729 213.001181 
L 289.765751 211.83454 
L 291.275772 209.618438 
L 292.785793 237.834481 
L 294.295814 248.069752 
L 295.805835 218.42463 
L 297.315856 273.214869 
L 298.825877 231.669722 
L 300.335899 220.184918 
L 301.84592 217.412577 
L 303.355941 214.892999 
L 304.865962 208.781765 
L 306.375983 208.699236 
L 307.886004 217.338059 
L 309.396025 235.413533 
L 310.906047 204.457282 
L 312.416068 219.613967 
L 313.926089 224.988119 
L 315.43611 218.188917 
L 316.946131 197.437456 
L 318.456152 208.170587 
L 319.966173 211.910597 
L 321.476195 196.702031 
L 322.986216 194.898768 
L 324.496237 207.336083 
L 326.006258 199.351186 
L 327.516279 218.104118 
L 329.0263 201.740228 
L 330.536321 195.792995 
L 332.046342 188.791511 
L 333.556364 194.30461 
L 335.066385 197.552087 
L 336.576406 246.865742 
L 338.086427 197.208762 
L 339.596448 195.019123 
L 341.106469 191.130637 
L 342.61649 195.147579 
L 344.126512 187.746164 
L 345.636533 190.718965 
L 347.146554 209.032347 
L 348.656575 194.527441 
L 350.166596 194.652122 
L 351.676617 218.020984 
L 353.186638 194.397849 
L 354.69666 215.508129 
L 356.206681 218.191249 
L 357.716702 198.564806 
L 359.226723 203.111008 
L 360.736744 205.34358 
L 362.246765 199.955053 
L 363.756786 193.153425 
L 365.266808 191.327961 
L 366.776829 199.919732 
L 368.28685 216.926221 
L 369.796871 204.057321 
L 371.306892 192.420424 
L 372.816913 201.364855 
L 374.326934 188.8079 
L 375.836956 191.412565 
L 377.346977 192.321234 
L 380.367019 208.638877 
L 381.87704 191.811548 
L 383.387061 199.884893 
L 384.897082 199.969375 
L 386.407104 192.624503 
L 387.917125 205.604929 
L 389.427146 229.341473 
L 390.937167 197.980877 
L 392.447188 231.892502 
L 393.957209 221.092637 
L 395.46723 207.055699 
L 396.977252 217.901648 
L 398.487273 201.948916 
L 398.487273 201.948916 
" clip-path="url(#p04866af5e5)" style="fill: none; stroke: #32cd32; stroke-opacity: 0.8; stroke-width: 0.5; stroke-linecap: square"/>
   </g>
   <g id="line2d_17">
    <path d="M 73.832727 185.765307 
L 76.85277 182.568561 
L 78.362791 182.945791 
L 79.872812 183.157694 
L 81.382833 182.324241 
L 82.892854 183.596927 
L 84.402875 184.697064 
L 85.912896 182.482652 
L 87.422918 182.946644 
L 88.932939 184.434195 
L 90.44296 182.588203 
L 91.952981 183.789549 
L 93.463002 183.909676 
L 94.973023 183.113625 
L 96.483044 183.634898 
L 99.503087 183.312065 
L 101.013108 182.673914 
L 102.523129 185.295908 
L 104.03315 184.280227 
L 105.543171 182.308698 
L 107.053192 183.532742 
L 108.563214 183.860539 
L 110.073235 183.529401 
L 111.583256 183.557581 
L 113.093277 183.880381 
L 114.603298 183.690487 
L 116.113319 182.487151 
L 117.62334 183.07607 
L 119.133362 184.339492 
L 120.643383 183.711736 
L 122.153404 183.305004 
L 123.663425 184.195933 
L 125.173446 183.587736 
L 126.683467 183.948975 
L 128.193488 183.643323 
L 129.70351 184.08977 
L 131.213531 183.567542 
L 132.723552 184.006927 
L 134.233573 183.935434 
L 135.743594 183.528604 
L 137.253615 184.556982 
L 138.763636 183.273344 
L 140.273658 183.539773 
L 141.783679 184.338322 
L 143.2937 184.420649 
L 144.803721 183.817384 
L 146.313742 182.267752 
L 147.823763 185.874574 
L 149.333784 183.606038 
L 150.843805 181.608745 
L 152.353827 179.129067 
L 153.863848 185.271564 
L 155.373869 184.412758 
L 156.88389 181.508357 
L 158.393911 184.346808 
L 159.903932 184.009999 
L 161.413953 183.072152 
L 162.923975 183.651615 
L 164.433996 184.074411 
L 165.944017 183.42012 
L 167.454038 183.462241 
L 168.964059 184.151859 
L 170.47408 182.645836 
L 171.984101 182.970379 
L 173.494123 183.954172 
L 175.004144 183.606437 
L 176.514165 184.658865 
L 178.024186 183.698766 
L 179.534207 184.042658 
L 182.554249 183.752414 
L 184.064271 184.025038 
L 185.574292 182.647281 
L 187.084313 183.580947 
L 188.594334 182.979371 
L 190.104355 181.787494 
L 191.614376 183.847924 
L 193.124397 184.471379 
L 194.634419 183.480002 
L 196.14444 184.748556 
L 197.654461 183.463578 
L 199.164482 181.595287 
L 200.674503 182.665058 
L 202.184524 183.519786 
L 203.694545 183.359473 
L 205.204567 183.803874 
L 206.714588 183.963816 
L 208.224609 183.493672 
L 209.73463 184.440436 
L 211.244651 182.650776 
L 212.754672 184.062833 
L 214.264693 182.601003 
L 215.774715 182.265174 
L 217.284736 184.472556 
L 218.794757 183.006226 
L 220.304778 183.441302 
L 221.814799 183.491467 
L 223.32482 184.178094 
L 224.834841 185.689346 
L 226.344863 179.609003 
L 227.854884 183.377072 
L 229.364905 179.975238 
L 230.874926 183.258636 
L 232.384947 184.512249 
L 233.894968 182.301441 
L 235.404989 180.708628 
L 236.915011 177.13139 
L 238.425032 188.268708 
L 239.935053 185.939494 
L 241.445074 173.165265 
L 242.955095 191.279908 
L 244.465116 177.134211 
L 245.975137 182.118934 
L 247.485159 188.313595 
L 248.99518 186.464304 
L 250.505201 172.76041 
L 252.015222 189.759151 
L 253.525243 187.468889 
L 255.035264 190.74319 
L 256.545285 182.05602 
L 258.055307 184.759004 
L 259.565328 180.054303 
L 261.075349 179.840437 
L 262.58537 180.265418 
L 264.095391 187.441372 
L 265.605412 175.622939 
L 267.115433 180.959952 
L 268.625455 185.102936 
L 270.135476 183.773801 
L 271.645497 174.616587 
L 273.155518 175.018734 
L 274.665539 195.675031 
L 276.17556 175.611626 
L 277.685581 177.823674 
L 279.195603 174.64806 
L 280.705624 183.560807 
L 282.215645 181.222906 
L 283.725666 177.850071 
L 285.235687 168.905925 
L 286.745708 186.651889 
L 288.255729 181.120658 
L 289.765751 179.355995 
L 291.275772 182.023053 
L 292.785793 186.757474 
L 294.295814 186.543881 
L 295.805835 174.677651 
L 297.315856 191.561609 
L 298.825877 173.581366 
L 300.335899 185.343712 
L 301.84592 188.916676 
L 303.355941 177.805757 
L 304.865962 184.945842 
L 306.375983 181.951393 
L 307.886004 175.363971 
L 309.396025 190.31084 
L 310.906047 184.801184 
L 312.416068 178.439247 
L 313.926089 178.946016 
L 315.43611 187.038686 
L 316.946131 186.422051 
L 318.456152 182.826606 
L 319.966173 182.678919 
L 321.476195 181.466851 
L 322.986216 183.154094 
L 324.496237 181.788244 
L 326.006258 183.729246 
L 327.516279 182.119106 
L 329.0263 184.629272 
L 330.536321 183.534689 
L 332.046342 183.172722 
L 333.556364 185.154535 
L 335.066385 183.289555 
L 336.576406 183.821245 
L 338.086427 182.403618 
L 339.596448 184.32588 
L 341.106469 183.970861 
L 342.61649 183.471739 
L 344.126512 183.919536 
L 345.636533 186.264761 
L 347.146554 179.744824 
L 348.656575 183.472245 
L 350.166596 183.374247 
L 351.676617 186.343714 
L 353.186638 182.563129 
L 354.69666 184.417567 
L 356.206681 182.859566 
L 357.716702 184.039528 
L 359.226723 184.430278 
L 360.736744 181.238945 
L 362.246765 182.407028 
L 363.756786 182.901221 
L 365.266808 181.94111 
L 366.776829 184.138299 
L 368.28685 185.127678 
L 369.796871 184.318946 
L 371.306892 184.792292 
L 372.816913 184.40216 
L 374.326934 181.971795 
L 375.836956 182.414437 
L 377.346977 184.484389 
L 378.856998 182.635209 
L 380.367019 182.041679 
L 381.87704 183.728904 
L 383.387061 183.267905 
L 384.897082 185.724405 
L 386.407104 182.224109 
L 387.917125 186.669328 
L 389.427146 185.840726 
L 390.937167 183.753651 
L 392.447188 185.906162 
L 395.46723 182.483893 
L 396.977252 181.662337 
L 398.487273 181.007168 
L 398.487273 181.007168 
" clip-path="url(#p04866af5e5)" style="fill: none; stroke: #ff0000; stroke-opacity: 0.8; stroke-width: 0.5; stroke-linecap: square"/>
   </g>
   <g id="line2d_18">
    <path d="M 73.832727 167.599861 
L 75.342748 166.74101 
L 76.85277 171.237151 
L 78.362791 169.086834 
L 79.872812 172.433454 
L 81.382833 174.439929 
L 82.892854 169.718935 
L 84.402875 175.730303 
L 85.912896 163.654923 
L 87.422918 177.808525 
L 88.932939 175.940023 
L 90.44296 177.084272 
L 91.952981 179.442418 
L 93.463002 172.180516 
L 94.973023 173.810294 
L 96.483044 180.443954 
L 97.993066 176.604703 
L 99.503087 172.237778 
L 101.013108 176.711383 
L 102.523129 179.259674 
L 104.03315 181.164454 
L 105.543171 174.110964 
L 107.053192 180.143347 
L 108.563214 180.992489 
L 110.073235 181.510634 
L 111.583256 178.785839 
L 113.093277 183.155761 
L 114.603298 181.327345 
L 116.113319 174.173045 
L 117.62334 172.299081 
L 119.133362 179.413498 
L 120.643383 180.565268 
L 122.153404 177.070741 
L 123.663425 180.598905 
L 125.173446 178.48951 
L 126.683467 181.443721 
L 128.193488 182.046124 
L 129.70351 182.959805 
L 131.213531 177.191476 
L 132.723552 182.513543 
L 134.233573 182.911503 
L 135.743594 182.473334 
L 137.253615 179.241567 
L 138.763636 179.119748 
L 140.273658 179.34997 
L 141.783679 181.942354 
L 143.2937 172.210608 
L 144.803721 171.875258 
L 146.313742 174.216032 
L 147.823763 178.652172 
L 149.333784 176.365384 
L 150.843805 139.82638 
L 152.353827 165.920398 
L 153.863848 160.530754 
L 155.373869 177.26108 
L 156.88389 171.095301 
L 158.393911 176.126627 
L 159.903932 176.985453 
L 161.413953 179.059626 
L 162.923975 180.752446 
L 164.433996 168.860642 
L 165.944017 177.93531 
L 167.454038 180.880728 
L 168.964059 172.310585 
L 170.47408 176.61072 
L 171.984101 180.372599 
L 173.494123 178.35135 
L 175.004144 180.667638 
L 176.514165 180.764651 
L 178.024186 179.11358 
L 179.534207 176.668709 
L 181.044228 178.554697 
L 182.554249 177.245187 
L 184.064271 177.808609 
L 185.574292 176.06196 
L 187.084313 176.547583 
L 188.594334 170.568718 
L 190.104355 138.087714 
L 191.614376 178.029962 
L 193.124397 179.188832 
L 194.634419 176.875224 
L 196.14444 178.658837 
L 199.164482 169.135372 
L 200.674503 176.394333 
L 202.184524 170.297594 
L 203.694545 174.535068 
L 205.204567 179.196668 
L 206.714588 180.00761 
L 208.224609 181.06042 
L 209.73463 172.405856 
L 211.244651 167.827828 
L 212.754672 175.589452 
L 214.264693 176.707414 
L 215.774715 165.444904 
L 217.284736 180.845879 
L 218.794757 176.476095 
L 220.304778 178.980346 
L 221.814799 179.256977 
L 223.32482 176.943371 
L 224.834841 174.123781 
L 226.344863 164.098806 
L 227.854884 173.15977 
L 229.364905 156.246535 
L 230.874926 170.013917 
L 232.384947 164.948026 
L 233.894968 160.305483 
L 235.404989 127.008972 
L 236.915011 118.165125 
L 238.425032 148.485842 
L 239.935053 144.914977 
L 241.445074 90.535447 
L 242.955095 146.112831 
L 244.465116 113.223212 
L 245.975137 145.132124 
L 247.485159 152.585312 
L 248.99518 147.124884 
L 250.505201 128.310246 
L 252.015222 126.685324 
L 253.525243 77.517527 
L 255.035264 101.946838 
L 256.545285 142.715134 
L 258.055307 128.347285 
L 259.565328 123.763448 
L 261.075349 122.334145 
L 262.58537 150.292725 
L 264.095391 165.712063 
L 265.605412 141.976892 
L 267.115433 147.200205 
L 268.625455 141.893536 
L 270.135476 151.788832 
L 271.645497 79.870958 
L 273.155518 118.871339 
L 274.665539 131.453828 
L 276.17556 111.236816 
L 277.685581 98.308208 
L 279.195603 129.543505 
L 280.705624 127.751931 
L 282.215645 127.361629 
L 283.725666 128.635119 
L 285.235687 118.757339 
L 286.745708 120.277785 
L 288.255729 139.105719 
L 289.765751 149.279536 
L 291.275772 146.254295 
L 292.785793 134.814739 
L 294.295814 147.615662 
L 295.805835 140.221561 
L 297.315856 156.175455 
L 298.825877 113.932262 
L 300.335899 161.354917 
L 301.84592 172.549197 
L 303.355941 148.991394 
L 304.865962 142.775907 
L 306.375983 146.726459 
L 307.886004 129.018545 
L 309.396025 145.761988 
L 310.906047 156.103027 
L 312.416068 137.504925 
L 313.926089 142.290187 
L 315.43611 171.36226 
L 316.946131 174.029708 
L 318.456152 167.05908 
L 319.966173 161.708288 
L 321.476195 169.030741 
L 322.986216 167.221481 
L 324.496237 152.790815 
L 326.006258 169.763617 
L 327.516279 146.532529 
L 329.0263 169.516688 
L 330.536321 171.048048 
L 332.046342 175.750776 
L 333.556364 176.701485 
L 335.066385 170.067204 
L 336.576406 142.54967 
L 338.086427 176.346478 
L 339.596448 173.303263 
L 341.106469 176.279501 
L 342.61649 171.8591 
L 344.126512 180.101192 
L 345.636533 182.15991 
L 347.146554 165.987435 
L 348.656575 164.147789 
L 350.166596 166.513384 
L 351.676617 153.809137 
L 353.186638 169.199583 
L 354.69666 158.043287 
L 356.206681 158.639598 
L 357.716702 168.559259 
L 359.226723 173.287317 
L 360.736744 159.021563 
L 362.246765 162.566383 
L 363.756786 169.623298 
L 365.266808 166.328526 
L 366.776829 167.939915 
L 368.28685 163.741336 
L 369.796871 157.392435 
L 371.306892 172.856475 
L 372.816913 173.536128 
L 374.326934 160.607021 
L 375.836956 168.365079 
L 377.346977 175.028162 
L 378.856998 152.739463 
L 380.367019 156.381932 
L 381.87704 173.628094 
L 383.387061 172.121959 
L 384.897082 175.863045 
L 386.407104 168.466506 
L 387.917125 169.340759 
L 389.427146 167.451076 
L 390.937167 168.815744 
L 392.447188 151.70161 
L 393.957209 153.462857 
L 395.46723 146.814366 
L 396.977252 143.647222 
L 398.487273 166.889521 
L 398.487273 166.889521 
" clip-path="url(#p04866af5e5)" style="fill: none; stroke: #f08080; stroke-opacity: 0.8; stroke-width: 0.5; stroke-linecap: square"/>
   </g>
   <g id="line2d_19">
    <path d="M 73.832727 205.880972 
L 75.342748 202.790446 
L 76.85277 196.986913 
L 78.362791 198.953491 
L 79.872812 191.001454 
L 81.382833 191.520829 
L 82.892854 188.720015 
L 84.402875 196.550036 
L 85.912896 193.309127 
L 87.422918 192.114411 
L 90.44296 190.726045 
L 91.952981 186.185442 
L 93.463002 192.452905 
L 94.973023 189.149948 
L 96.483044 186.207081 
L 97.993066 189.174348 
L 99.503087 192.597727 
L 101.013108 187.59326 
L 102.523129 194.807374 
L 104.03315 186.923075 
L 105.543171 186.927265 
L 107.053192 187.313599 
L 108.563214 186.380321 
L 110.073235 184.842068 
L 111.583256 188.413919 
L 113.093277 184.678898 
L 114.603298 184.699722 
L 116.113319 184.232606 
L 117.62334 192.639131 
L 119.133362 192.040669 
L 120.643383 186.241611 
L 122.153404 188.274564 
L 123.663425 189.308427 
L 125.173446 187.584742 
L 126.683467 185.347933 
L 128.193488 184.709589 
L 129.70351 188.255258 
L 131.213531 187.141335 
L 132.723552 185.764643 
L 134.233573 184.743334 
L 135.743594 184.5274 
L 137.253615 194.68345 
L 138.763636 185.733188 
L 140.273658 186.642418 
L 141.783679 186.681759 
L 143.2937 193.535493 
L 144.803721 199.295158 
L 146.313742 192.102668 
L 147.823763 193.37978 
L 149.333784 189.922099 
L 150.843805 199.6606 
L 152.353827 193.088781 
L 153.863848 211.33081 
L 155.373869 190.79393 
L 156.88389 193.327757 
L 158.393911 192.879508 
L 159.903932 191.692813 
L 161.413953 188.709169 
L 162.923975 187.098462 
L 164.433996 198.923251 
L 165.944017 189.753068 
L 167.454038 187.181886 
L 168.964059 202.22933 
L 170.47408 188.031274 
L 171.984101 185.743481 
L 173.494123 190.739181 
L 175.004144 187.901423 
L 176.514165 198.195519 
L 178.024186 189.213162 
L 179.534207 189.936521 
L 181.044228 193.574497 
L 182.554249 187.481324 
L 184.064271 191.774539 
L 185.574292 192.353425 
L 187.084313 191.324737 
L 188.594334 189.713252 
L 190.104355 199.370791 
L 191.614376 195.922674 
L 193.124397 191.267818 
L 194.634419 192.735863 
L 196.14444 198.22856 
L 197.654461 191.627866 
L 199.164482 189.898167 
L 200.674503 188.544176 
L 202.184524 195.086851 
L 203.694545 186.733422 
L 205.204567 189.031802 
L 206.714588 188.581046 
L 208.224609 184.318842 
L 209.73463 197.78175 
L 211.244651 189.822149 
L 212.754672 189.163748 
L 214.264693 186.574608 
L 215.774715 190.322674 
L 217.284736 189.023238 
L 218.794757 191.651623 
L 220.304778 186.213419 
L 221.814799 188.591737 
L 223.32482 195.168764 
L 224.834841 203.382074 
L 226.344863 190.3912 
L 227.854884 198.403005 
L 229.364905 199.126331 
L 230.874926 198.545756 
L 232.384947 211.033451 
L 233.894968 216.872609 
L 235.404989 261.908078 
L 236.915011 258.264451 
L 238.425032 231.856765 
L 239.935053 291.340292 
L 241.445074 229.830055 
L 242.955095 269.770696 
L 244.465116 224.7321 
L 245.975137 233.484948 
L 247.485159 253.630304 
L 248.99518 244.609686 
L 250.505201 206.676524 
L 252.015222 277.833261 
L 253.525243 272.79568 
L 255.035264 293.087013 
L 256.545285 217.285458 
L 258.055307 248.042192 
L 259.565328 227.431438 
L 261.075349 229.942384 
L 262.58537 202.567216 
L 264.095391 235.186785 
L 265.605412 204.530993 
L 267.115433 224.792323 
L 268.625455 228.097508 
L 270.135476 215.782456 
L 271.645497 207.066329 
L 273.155518 220.320222 
L 274.665539 261.81292 
L 276.17556 219.642049 
L 277.685581 240.123394 
L 279.195603 223.83462 
L 280.705624 232.478679 
L 282.215645 239.676772 
L 283.725666 240.603874 
L 285.235687 204.972917 
L 286.745708 223.311964 
L 288.255729 222.011138 
L 289.765751 211.388413 
L 291.275772 197.306713 
L 294.295814 258.06286 
L 295.805835 211.977559 
L 297.315856 267.227511 
L 298.825877 231.669722 
L 300.335899 216.878339 
L 301.84592 217.412577 
L 303.355941 198.729075 
L 304.865962 213.644022 
L 306.375983 211.706442 
L 307.886004 213.822768 
L 309.396025 253.397832 
L 310.906047 204.464632 
L 312.416068 212.817711 
L 313.926089 245.743941 
L 315.43611 218.188917 
L 316.946131 198.235783 
L 318.456152 210.702597 
L 319.966173 209.450966 
L 321.476195 196.747074 
L 322.986216 196.432777 
L 324.496237 207.336083 
L 326.006258 195.495696 
L 327.516279 214.997363 
L 329.0263 197.532607 
L 330.536321 195.792995 
L 332.046342 188.111115 
L 333.556364 194.541186 
L 335.066385 200.469223 
L 336.576406 251.509436 
L 338.086427 190.744477 
L 339.596448 195.019123 
L 341.106469 192.11354 
L 342.61649 192.111506 
L 344.126512 186.22068 
L 345.636533 192.570913 
L 347.146554 202.343737 
L 348.656575 197.790419 
L 350.166596 196.052527 
L 351.676617 212.809867 
L 353.186638 191.687326 
L 354.69666 206.644717 
L 356.206681 218.191249 
L 357.716702 201.426179 
L 359.226723 201.111944 
L 360.736744 207.211064 
L 362.246765 198.315374 
L 365.266808 191.765877 
L 366.776829 200.36604 
L 368.28685 207.473289 
L 369.796871 203.989941 
L 371.306892 192.461728 
L 372.816913 199.893495 
L 374.326934 188.8079 
L 375.836956 191.694872 
L 377.346977 191.798207 
L 378.856998 205.8553 
L 380.367019 208.685971 
L 381.87704 191.767452 
L 383.387061 195.19109 
L 384.897082 199.969375 
L 386.407104 193.823524 
L 387.917125 202.582581 
L 389.427146 229.341473 
L 390.937167 196.763067 
L 392.447188 220.435996 
L 395.46723 204.842005 
L 396.977252 205.069935 
L 398.487273 204.276998 
L 398.487273 204.276998 
" clip-path="url(#p04866af5e5)" style="fill: none; stroke: #f08080; stroke-opacity: 0.8; stroke-width: 0.5; stroke-linecap: square"/>
   </g>
   <g id="patch_3">
    <path d="M 57.6 307.584 
L 57.6 41.472 
" style="fill: none; stroke: #000000; stroke-width: 0.8; stroke-linejoin: miter; stroke-linecap: square"/>
   </g>
   <g id="patch_4">
    <path d="M 414.72 307.584 
L 414.72 41.472 
" style="fill: none; stroke: #000000; stroke-width: 0.8; stroke-linejoin: miter; stroke-linecap: square"/>
   </g>
   <g id="patch_5">
    <path d="M 57.6 307.584 
L 414.72 307.584 
" style="fill: none; stroke: #000000; stroke-width: 0.8; stroke-linejoin: miter; stroke-linecap: square"/>
   </g>
   <g id="patch_6">
    <path d="M 57.6 41.472 
L 414.72 41.472 
" style="fill: none; stroke: #000000; stroke-width: 0.8; stroke-linejoin: miter; stroke-linecap: square"/>
   </g>
   <g id="text_14">
    <!-- 1final_zhang_jc_btcusd -->
    <g transform="translate(167.01375 35.472) scale(0.12 -0.12)">
     <defs>
      <path id="DejaVuSans-66" d="M 2375 4863 
L 2375 4384 
L 1825 4384 
Q 1516 4384 1395 4259 
Q 1275 4134 1275 3809 
L 1275 3500 
L 2222 3500 
L 2222 3053 
L 1275 3053 
L 1275 0 
L 697 0 
L 697 3053 
L 147 3053 
L 147 3500 
L 697 3500 
L 697 3744 
Q 697 4328 969 4595 
Q 1241 4863 1831 4863 
L 2375 4863 
z
" transform="scale(0.015625)"/>
      <path id="DejaVuSans-69" d="M 603 3500 
L 1178 3500 
L 1178 0 
L 603 0 
L 603 3500 
z
M 603 4863 
L 1178 4863 
L 1178 4134 
L 603 4134 
L 603 4863 
z
" transform="scale(0.015625)"/>
      <path id="DejaVuSans-6e" d="M 3513 2113 
L 3513 0 
L 2938 0 
L 2938 2094 
Q 2938 2591 2744 2837 
Q 2550 3084 2163 3084 
Q 1697 3084 1428 2787 
Q 1159 2491 1159 1978 
L 1159 0 
L 581 0 
L 581 3500 
L 1159 3500 
L 1159 2956 
Q 1366 3272 1645 3428 
Q 1925 3584 2291 3584 
Q 2894 3584 3203 3211 
Q 3513 2838 3513 2113 
z
" transform="scale(0.015625)"/>
      <path id="DejaVuSans-61" d="M 2194 1759 
Q 1497 1759 1228 1600 
Q 959 1441 959 1056 
Q 959 750 1161 570 
Q 1363 391 1709 391 
Q 2188 391 2477 730 
Q 2766 1069 2766 1631 
L 2766 1759 
L 2194 1759 
z
M 3341 1997 
L 3341 0 
L 2766 0 
L 2766 531 
Q 2569 213 2275 61 
Q 1981 -91 1556 -91 
Q 1019 -91 701 211 
Q 384 513 384 1019 
Q 384 1609 779 1909 
Q 1175 2209 1959 2209 
L 2766 2209 
L 2766 2266 
Q 2766 2663 2505 2880 
Q 2244 3097 1772 3097 
Q 1472 3097 1187 3025 
Q 903 2953 641 2809 
L 641 3341 
Q 956 3463 1253 3523 
Q 1550 3584 1831 3584 
Q 2591 3584 2966 3190 
Q 3341 2797 3341 1997 
z
" transform="scale(0.015625)"/>
      <path id="DejaVuSans-6c" d="M 603 4863 
L 1178 4863 
L 1178 0 
L 603 0 
L 603 4863 
z
" transform="scale(0.015625)"/>
      <path id="DejaVuSans-5f" d="M 3263 -1063 
L 3263 -1509 
L -63 -1509 
L -63 -1063 
L 3263 -1063 
z
" transform="scale(0.015625)"/>
      <path id="DejaVuSans-7a" d="M 353 3500 
L 3084 3500 
L 3084 2975 
L 922 459 
L 3084 459 
L 3084 0 
L 275 0 
L 275 525 
L 2438 3041 
L 353 3041 
L 353 3500 
z
" transform="scale(0.015625)"/>
      <path id="DejaVuSans-68" d="M 3513 2113 
L 3513 0 
L 2938 0 
L 2938 2094 
Q 2938 2591 2744 2837 
Q 2550 3084 2163 3084 
Q 1697 3084 1428 2787 
Q 1159 2491 1159 1978 
L 1159 0 
L 581 0 
L 581 4863 
L 1159 4863 
L 1159 2956 
Q 1366 3272 1645 3428 
Q 1925 3584 2291 3584 
Q 2894 3584 3203 3211 
Q 3513 2838 3513 2113 
z
" transform="scale(0.015625)"/>
      <path id="DejaVuSans-67" d="M 2906 1791 
Q 2906 2416 2648 2759 
Q 2391 3103 1925 3103 
Q 1463 3103 1205 2759 
Q 947 2416 947 1791 
Q 947 1169 1205 825 
Q 1463 481 1925 481 
Q 2391 481 2648 825 
Q 2906 1169 2906 1791 
z
M 3481 434 
Q 3481 -459 3084 -895 
Q 2688 -1331 1869 -1331 
Q 1566 -1331 1297 -1286 
Q 1028 -1241 775 -1147 
L 775 -588 
Q 1028 -725 1275 -790 
Q 1522 -856 1778 -856 
Q 2344 -856 2625 -561 
Q 2906 -266 2906 331 
L 2906 616 
Q 2728 306 2450 153 
Q 2172 0 1784 0 
Q 1141 0 747 490 
Q 353 981 353 1791 
Q 353 2603 747 3093 
Q 1141 3584 1784 3584 
Q 2172 3584 2450 3431 
Q 2728 3278 2906 2969 
L 2906 3500 
L 3481 3500 
L 3481 434 
z
" transform="scale(0.015625)"/>
      <path id="DejaVuSans-6a" d="M 603 3500 
L 1178 3500 
L 1178 -63 
Q 1178 -731 923 -1031 
Q 669 -1331 103 -1331 
L -116 -1331 
L -116 -844 
L 38 -844 
Q 366 -844 484 -692 
Q 603 -541 603 -63 
L 603 3500 
z
M 603 4863 
L 1178 4863 
L 1178 4134 
L 603 4134 
L 603 4863 
z
" transform="scale(0.015625)"/>
      <path id="DejaVuSans-63" d="M 3122 3366 
L 3122 2828 
Q 2878 2963 2633 3030 
Q 2388 3097 2138 3097 
Q 1578 3097 1268 2742 
Q 959 2388 959 1747 
Q 959 1106 1268 751 
Q 1578 397 2138 397 
Q 2388 397 2633 464 
Q 2878 531 3122 666 
L 3122 134 
Q 2881 22 2623 -34 
Q 2366 -91 2075 -91 
Q 1284 -91 818 406 
Q 353 903 353 1747 
Q 353 2603 823 3093 
Q 1294 3584 2113 3584 
Q 2378 3584 2631 3529 
Q 2884 3475 3122 3366 
z
" transform="scale(0.015625)"/>
      <path id="DejaVuSans-62" d="M 3116 1747 
Q 3116 2381 2855 2742 
Q 2594 3103 2138 3103 
Q 1681 3103 1420 2742 
Q 1159 2381 1159 1747 
Q 1159 1113 1420 752 
Q 1681 391 2138 391 
Q 2594 391 2855 752 
Q 3116 1113 3116 1747 
z
M 1159 2969 
Q 1341 3281 1617 3432 
Q 1894 3584 2278 3584 
Q 2916 3584 3314 3078 
Q 3713 2572 3713 1747 
Q 3713 922 3314 415 
Q 2916 -91 2278 -91 
Q 1894 -91 1617 61 
Q 1341 213 1159 525 
L 1159 0 
L 581 0 
L 581 4863 
L 1159 4863 
L 1159 2969 
z
" transform="scale(0.015625)"/>
      <path id="DejaVuSans-74" d="M 1172 4494 
L 1172 3500 
L 2356 3500 
L 2356 3053 
L 1172 3053 
L 1172 1153 
Q 1172 725 1289 603 
Q 1406 481 1766 481 
L 2356 481 
L 2356 0 
L 1766 0 
Q 1100 0 847 248 
Q 594 497 594 1153 
L 594 3053 
L 172 3053 
L 172 3500 
L 594 3500 
L 594 4494 
L 1172 4494 
z
" transform="scale(0.015625)"/>
      <path id="DejaVuSans-75" d="M 544 1381 
L 544 3500 
L 1119 3500 
L 1119 1403 
Q 1119 906 1312 657 
Q 1506 409 1894 409 
Q 2359 409 2629 706 
Q 2900 1003 2900 1516 
L 2900 3500 
L 3475 3500 
L 3475 0 
L 2900 0 
L 2900 538 
Q 2691 219 2414 64 
Q 2138 -91 1772 -91 
Q 1169 -91 856 284 
Q 544 659 544 1381 
z
M 1991 3584 
L 1991 3584 
z
" transform="scale(0.015625)"/>
      <path id="DejaVuSans-73" d="M 2834 3397 
L 2834 2853 
Q 2591 2978 2328 3040 
Q 2066 3103 1784 3103 
Q 1356 3103 1142 2972 
Q 928 2841 928 2578 
Q 928 2378 1081 2264 
Q 1234 2150 1697 2047 
L 1894 2003 
Q 2506 1872 2764 1633 
Q 3022 1394 3022 966 
Q 3022 478 2636 193 
Q 2250 -91 1575 -91 
Q 1294 -91 989 -36 
Q 684 19 347 128 
L 347 722 
Q 666 556 975 473 
Q 1284 391 1588 391 
Q 1994 391 2212 530 
Q 2431 669 2431 922 
Q 2431 1156 2273 1281 
Q 2116 1406 1581 1522 
L 1381 1569 
Q 847 1681 609 1914 
Q 372 2147 372 2553 
Q 372 3047 722 3315 
Q 1072 3584 1716 3584 
Q 2034 3584 2315 3537 
Q 2597 3491 2834 3397 
z
" transform="scale(0.015625)"/>
      <path id="DejaVuSans-64" d="M 2906 2969 
L 2906 4863 
L 3481 4863 
L 3481 0 
L 2906 0 
L 2906 525 
Q 2725 213 2448 61 
Q 2172 -91 1784 -91 
Q 1150 -91 751 415 
Q 353 922 353 1747 
Q 353 2572 751 3078 
Q 1150 3584 1784 3584 
Q 2172 3584 2448 3432 
Q 2725 3281 2906 2969 
z
M 947 1747 
Q 947 1113 1208 752 
Q 1469 391 1925 391 
Q 2381 391 2643 752 
Q 2906 1113 2906 1747 
Q 2906 2381 2643 2742 
Q 2381 3103 1925 3103 
Q 1469 3103 1208 2742 
Q 947 2381 947 1747 
z
" transform="scale(0.015625)"/>
     </defs>
     <use xlink:href="#DejaVuSans-31"/>
     <use xlink:href="#DejaVuSans-66" x="63.623047"/>
     <use xlink:href="#DejaVuSans-69" x="98.828125"/>
     <use xlink:href="#DejaVuSans-6e" x="126.611328"/>
     <use xlink:href="#DejaVuSans-61" x="189.990234"/>
     <use xlink:href="#DejaVuSans-6c" x="251.269531"/>
     <use xlink:href="#DejaVuSans-5f" x="279.052734"/>
     <use xlink:href="#DejaVuSans-7a" x="329.052734"/>
     <use xlink:href="#DejaVuSans-68" x="381.542969"/>
     <use xlink:href="#DejaVuSans-61" x="444.921875"/>
     <use xlink:href="#DejaVuSans-6e" x="506.201172"/>
     <use xlink:href="#DejaVuSans-67" x="569.580078"/>
     <use xlink:href="#DejaVuSans-5f" x="633.056641"/>
     <use xlink:href="#DejaVuSans-6a" x="683.056641"/>
     <use xlink:href="#DejaVuSans-63" x="710.839844"/>
     <use xlink:href="#DejaVuSans-5f" x="765.820312"/>
     <use xlink:href="#DejaVuSans-62" x="815.820312"/>
     <use xlink:href="#DejaVuSans-74" x="879.296875"/>
     <use xlink:href="#DejaVuSans-63" x="918.505859"/>
     <use xlink:href="#DejaVuSans-75" x="973.486328"/>
     <use xlink:href="#DejaVuSans-73" x="1036.865234"/>
     <use xlink:href="#DejaVuSans-64" x="1088.964844"/>
    </g>
   </g>
   <g id="legend_1">
    <g id="patch_7">
     <path d="M 64.6 137.54075 
L 225.001563 137.54075 
Q 227.001563 137.54075 227.001563 135.54075 
L 227.001563 48.472 
Q 227.001563 46.472 225.001563 46.472 
L 64.6 46.472 
Q 62.6 46.472 62.6 48.472 
L 62.6 135.54075 
Q 62.6 137.54075 64.6 137.54075 
z
" style="fill: #ffffff; opacity: 0.8; stroke: #cccccc; stroke-linejoin: miter"/>
    </g>
    <g id="line2d_20">
     <path d="M 66.6 54.570438 
L 76.6 54.570438 
L 86.6 54.570438 
" style="fill: none; stroke: #008000; stroke-opacity: 0.8; stroke-width: 0.5; stroke-linecap: square"/>
    </g>
    <g id="text_15">
     <!-- Positive predictions -->
     <g transform="translate(94.6 58.070438) scale(0.1 -0.1)">
      <defs>
       <path id="DejaVuSans-50" d="M 1259 4147 
L 1259 2394 
L 2053 2394 
Q 2494 2394 2734 2622 
Q 2975 2850 2975 3272 
Q 2975 3691 2734 3919 
Q 2494 4147 2053 4147 
L 1259 4147 
z
M 628 4666 
L 2053 4666 
Q 2838 4666 3239 4311 
Q 3641 3956 3641 3272 
Q 3641 2581 3239 2228 
Q 2838 1875 2053 1875 
L 1259 1875 
L 1259 0 
L 628 0 
L 628 4666 
z
" transform="scale(0.015625)"/>
       <path id="DejaVuSans-6f" d="M 1959 3097 
Q 1497 3097 1228 2736 
Q 959 2375 959 1747 
Q 959 1119 1226 758 
Q 1494 397 1959 397 
Q 2419 397 2687 759 
Q 2956 1122 2956 1747 
Q 2956 2369 2687 2733 
Q 2419 3097 1959 3097 
z
M 1959 3584 
Q 2709 3584 3137 3096 
Q 3566 2609 3566 1747 
Q 3566 888 3137 398 
Q 2709 -91 1959 -91 
Q 1206 -91 779 398 
Q 353 888 353 1747 
Q 353 2609 779 3096 
Q 1206 3584 1959 3584 
z
" transform="scale(0.015625)"/>
       <path id="DejaVuSans-76" d="M 191 3500 
L 800 3500 
L 1894 563 
L 2988 3500 
L 3597 3500 
L 2284 0 
L 1503 0 
L 191 3500 
z
" transform="scale(0.015625)"/>
       <path id="DejaVuSans-65" d="M 3597 1894 
L 3597 1613 
L 953 1613 
Q 991 1019 1311 708 
Q 1631 397 2203 397 
Q 2534 397 2845 478 
Q 3156 559 3463 722 
L 3463 178 
Q 3153 47 2828 -22 
Q 2503 -91 2169 -91 
Q 1331 -91 842 396 
Q 353 884 353 1716 
Q 353 2575 817 3079 
Q 1281 3584 2069 3584 
Q 2775 3584 3186 3129 
Q 3597 2675 3597 1894 
z
M 3022 2063 
Q 3016 2534 2758 2815 
Q 2500 3097 2075 3097 
Q 1594 3097 1305 2825 
Q 1016 2553 972 2059 
L 3022 2063 
z
" transform="scale(0.015625)"/>
       <path id="DejaVuSans-20" transform="scale(0.015625)"/>
       <path id="DejaVuSans-70" d="M 1159 525 
L 1159 -1331 
L 581 -1331 
L 581 3500 
L 1159 3500 
L 1159 2969 
Q 1341 3281 1617 3432 
Q 1894 3584 2278 3584 
Q 2916 3584 3314 3078 
Q 3713 2572 3713 1747 
Q 3713 922 3314 415 
Q 2916 -91 2278 -91 
Q 1894 -91 1617 61 
Q 1341 213 1159 525 
z
M 3116 1747 
Q 3116 2381 2855 2742 
Q 2594 3103 2138 3103 
Q 1681 3103 1420 2742 
Q 1159 2381 1159 1747 
Q 1159 1113 1420 752 
Q 1681 391 2138 391 
Q 2594 391 2855 752 
Q 3116 1113 3116 1747 
z
" transform="scale(0.015625)"/>
       <path id="DejaVuSans-72" d="M 2631 2963 
Q 2534 3019 2420 3045 
Q 2306 3072 2169 3072 
Q 1681 3072 1420 2755 
Q 1159 2438 1159 1844 
L 1159 0 
L 581 0 
L 581 3500 
L 1159 3500 
L 1159 2956 
Q 1341 3275 1631 3429 
Q 1922 3584 2338 3584 
Q 2397 3584 2469 3576 
Q 2541 3569 2628 3553 
L 2631 2963 
z
" transform="scale(0.015625)"/>
      </defs>
      <use xlink:href="#DejaVuSans-50"/>
      <use xlink:href="#DejaVuSans-6f" x="56.677734"/>
      <use xlink:href="#DejaVuSans-73" x="117.859375"/>
      <use xlink:href="#DejaVuSans-69" x="169.958984"/>
      <use xlink:href="#DejaVuSans-74" x="197.742188"/>
      <use xlink:href="#DejaVuSans-69" x="236.951172"/>
      <use xlink:href="#DejaVuSans-76" x="264.734375"/>
      <use xlink:href="#DejaVuSans-65" x="323.914062"/>
      <use xlink:href="#DejaVuSans-20" x="385.4375"/>
      <use xlink:href="#DejaVuSans-70" x="417.224609"/>
      <use xlink:href="#DejaVuSans-72" x="480.701172"/>
      <use xlink:href="#DejaVuSans-65" x="519.564453"/>
      <use xlink:href="#DejaVuSans-64" x="581.087891"/>
      <use xlink:href="#DejaVuSans-69" x="644.564453"/>
      <use xlink:href="#DejaVuSans-63" x="672.347656"/>
      <use xlink:href="#DejaVuSans-74" x="727.328125"/>
      <use xlink:href="#DejaVuSans-69" x="766.537109"/>
      <use xlink:href="#DejaVuSans-6f" x="794.320312"/>
      <use xlink:href="#DejaVuSans-6e" x="855.501953"/>
      <use xlink:href="#DejaVuSans-73" x="918.880859"/>
     </g>
    </g>
    <g id="line2d_21">
     <path d="M 66.6 69.248563 
L 76.6 69.248563 
L 86.6 69.248563 
" style="fill: none; stroke: #32cd32; stroke-opacity: 0.8; stroke-width: 0.5; stroke-linecap: square"/>
    </g>
    <g id="text_16">
     <!-- Positive predictions max -->
     <g transform="translate(94.6 72.748563) scale(0.1 -0.1)">
      <defs>
       <path id="DejaVuSans-6d" d="M 3328 2828 
Q 3544 3216 3844 3400 
Q 4144 3584 4550 3584 
Q 5097 3584 5394 3201 
Q 5691 2819 5691 2113 
L 5691 0 
L 5113 0 
L 5113 2094 
Q 5113 2597 4934 2840 
Q 4756 3084 4391 3084 
Q 3944 3084 3684 2787 
Q 3425 2491 3425 1978 
L 3425 0 
L 2847 0 
L 2847 2094 
Q 2847 2600 2669 2842 
Q 2491 3084 2119 3084 
Q 1678 3084 1418 2786 
Q 1159 2488 1159 1978 
L 1159 0 
L 581 0 
L 581 3500 
L 1159 3500 
L 1159 2956 
Q 1356 3278 1631 3431 
Q 1906 3584 2284 3584 
Q 2666 3584 2933 3390 
Q 3200 3197 3328 2828 
z
" transform="scale(0.015625)"/>
       <path id="DejaVuSans-78" d="M 3513 3500 
L 2247 1797 
L 3578 0 
L 2900 0 
L 1881 1375 
L 863 0 
L 184 0 
L 1544 1831 
L 300 3500 
L 978 3500 
L 1906 2253 
L 2834 3500 
L 3513 3500 
z
" transform="scale(0.015625)"/>
      </defs>
      <use xlink:href="#DejaVuSans-50"/>
      <use xlink:href="#DejaVuSans-6f" x="56.677734"/>
      <use xlink:href="#DejaVuSans-73" x="117.859375"/>
      <use xlink:href="#DejaVuSans-69" x="169.958984"/>
      <use xlink:href="#DejaVuSans-74" x="197.742188"/>
      <use xlink:href="#DejaVuSans-69" x="236.951172"/>
      <use xlink:href="#DejaVuSans-76" x="264.734375"/>
      <use xlink:href="#DejaVuSans-65" x="323.914062"/>
      <use xlink:href="#DejaVuSans-20" x="385.4375"/>
      <use xlink:href="#DejaVuSans-70" x="417.224609"/>
      <use xlink:href="#DejaVuSans-72" x="480.701172"/>
      <use xlink:href="#DejaVuSans-65" x="519.564453"/>
      <use xlink:href="#DejaVuSans-64" x="581.087891"/>
      <use xlink:href="#DejaVuSans-69" x="644.564453"/>
      <use xlink:href="#DejaVuSans-63" x="672.347656"/>
      <use xlink:href="#DejaVuSans-74" x="727.328125"/>
      <use xlink:href="#DejaVuSans-69" x="766.537109"/>
      <use xlink:href="#DejaVuSans-6f" x="794.320312"/>
      <use xlink:href="#DejaVuSans-6e" x="855.501953"/>
      <use xlink:href="#DejaVuSans-73" x="918.880859"/>
      <use xlink:href="#DejaVuSans-20" x="970.980469"/>
      <use xlink:href="#DejaVuSans-6d" x="1002.767578"/>
      <use xlink:href="#DejaVuSans-61" x="1100.179688"/>
      <use xlink:href="#DejaVuSans-78" x="1161.458984"/>
     </g>
    </g>
    <g id="line2d_22">
     <path d="M 66.6 83.926688 
L 76.6 83.926688 
L 86.6 83.926688 
" style="fill: none; stroke: #32cd32; stroke-opacity: 0.8; stroke-width: 0.5; stroke-linecap: square"/>
    </g>
    <g id="text_17">
     <!-- Positive predictions min -->
     <g transform="translate(94.6 87.426688) scale(0.1 -0.1)">
      <use xlink:href="#DejaVuSans-50"/>
      <use xlink:href="#DejaVuSans-6f" x="56.677734"/>
      <use xlink:href="#DejaVuSans-73" x="117.859375"/>
      <use xlink:href="#DejaVuSans-69" x="169.958984"/>
      <use xlink:href="#DejaVuSans-74" x="197.742188"/>
      <use xlink:href="#DejaVuSans-69" x="236.951172"/>
      <use xlink:href="#DejaVuSans-76" x="264.734375"/>
      <use xlink:href="#DejaVuSans-65" x="323.914062"/>
      <use xlink:href="#DejaVuSans-20" x="385.4375"/>
      <use xlink:href="#DejaVuSans-70" x="417.224609"/>
      <use xlink:href="#DejaVuSans-72" x="480.701172"/>
      <use xlink:href="#DejaVuSans-65" x="519.564453"/>
      <use xlink:href="#DejaVuSans-64" x="581.087891"/>
      <use xlink:href="#DejaVuSans-69" x="644.564453"/>
      <use xlink:href="#DejaVuSans-63" x="672.347656"/>
      <use xlink:href="#DejaVuSans-74" x="727.328125"/>
      <use xlink:href="#DejaVuSans-69" x="766.537109"/>
      <use xlink:href="#DejaVuSans-6f" x="794.320312"/>
      <use xlink:href="#DejaVuSans-6e" x="855.501953"/>
      <use xlink:href="#DejaVuSans-73" x="918.880859"/>
      <use xlink:href="#DejaVuSans-20" x="970.980469"/>
      <use xlink:href="#DejaVuSans-6d" x="1002.767578"/>
      <use xlink:href="#DejaVuSans-69" x="1100.179688"/>
      <use xlink:href="#DejaVuSans-6e" x="1127.962891"/>
     </g>
    </g>
    <g id="line2d_23">
     <path d="M 66.6 98.604813 
L 76.6 98.604813 
L 86.6 98.604813 
" style="fill: none; stroke: #ff0000; stroke-opacity: 0.8; stroke-width: 0.5; stroke-linecap: square"/>
    </g>
    <g id="text_18">
     <!-- Negative predictions -->
     <g transform="translate(94.6 102.104813) scale(0.1 -0.1)">
      <defs>
       <path id="DejaVuSans-4e" d="M 628 4666 
L 1478 4666 
L 3547 763 
L 3547 4666 
L 4159 4666 
L 4159 0 
L 3309 0 
L 1241 3903 
L 1241 0 
L 628 0 
L 628 4666 
z
" transform="scale(0.015625)"/>
      </defs>
      <use xlink:href="#DejaVuSans-4e"/>
      <use xlink:href="#DejaVuSans-65" x="74.804688"/>
      <use xlink:href="#DejaVuSans-67" x="136.328125"/>
      <use xlink:href="#DejaVuSans-61" x="199.804688"/>
      <use xlink:href="#DejaVuSans-74" x="261.083984"/>
      <use xlink:href="#DejaVuSans-69" x="300.292969"/>
      <use xlink:href="#DejaVuSans-76" x="328.076172"/>
      <use xlink:href="#DejaVuSans-65" x="387.255859"/>
      <use xlink:href="#DejaVuSans-20" x="448.779297"/>
      <use xlink:href="#DejaVuSans-70" x="480.566406"/>
      <use xlink:href="#DejaVuSans-72" x="544.042969"/>
      <use xlink:href="#DejaVuSans-65" x="582.90625"/>
      <use xlink:href="#DejaVuSans-64" x="644.429688"/>
      <use xlink:href="#DejaVuSans-69" x="707.90625"/>
      <use xlink:href="#DejaVuSans-63" x="735.689453"/>
      <use xlink:href="#DejaVuSans-74" x="790.669922"/>
      <use xlink:href="#DejaVuSans-69" x="829.878906"/>
      <use xlink:href="#DejaVuSans-6f" x="857.662109"/>
      <use xlink:href="#DejaVuSans-6e" x="918.84375"/>
      <use xlink:href="#DejaVuSans-73" x="982.222656"/>
     </g>
    </g>
    <g id="line2d_24">
     <path d="M 66.6 113.282938 
L 76.6 113.282938 
L 86.6 113.282938 
" style="fill: none; stroke: #f08080; stroke-opacity: 0.8; stroke-width: 0.5; stroke-linecap: square"/>
    </g>
    <g id="text_19">
     <!-- Negative predictions max -->
     <g transform="translate(94.6 116.782938) scale(0.1 -0.1)">
      <use xlink:href="#DejaVuSans-4e"/>
      <use xlink:href="#DejaVuSans-65" x="74.804688"/>
      <use xlink:href="#DejaVuSans-67" x="136.328125"/>
      <use xlink:href="#DejaVuSans-61" x="199.804688"/>
      <use xlink:href="#DejaVuSans-74" x="261.083984"/>
      <use xlink:href="#DejaVuSans-69" x="300.292969"/>
      <use xlink:href="#DejaVuSans-76" x="328.076172"/>
      <use xlink:href="#DejaVuSans-65" x="387.255859"/>
      <use xlink:href="#DejaVuSans-20" x="448.779297"/>
      <use xlink:href="#DejaVuSans-70" x="480.566406"/>
      <use xlink:href="#DejaVuSans-72" x="544.042969"/>
      <use xlink:href="#DejaVuSans-65" x="582.90625"/>
      <use xlink:href="#DejaVuSans-64" x="644.429688"/>
      <use xlink:href="#DejaVuSans-69" x="707.90625"/>
      <use xlink:href="#DejaVuSans-63" x="735.689453"/>
      <use xlink:href="#DejaVuSans-74" x="790.669922"/>
      <use xlink:href="#DejaVuSans-69" x="829.878906"/>
      <use xlink:href="#DejaVuSans-6f" x="857.662109"/>
      <use xlink:href="#DejaVuSans-6e" x="918.84375"/>
      <use xlink:href="#DejaVuSans-73" x="982.222656"/>
      <use xlink:href="#DejaVuSans-20" x="1034.322266"/>
      <use xlink:href="#DejaVuSans-6d" x="1066.109375"/>
      <use xlink:href="#DejaVuSans-61" x="1163.521484"/>
      <use xlink:href="#DejaVuSans-78" x="1224.800781"/>
     </g>
    </g>
    <g id="line2d_25">
     <path d="M 66.6 127.961063 
L 76.6 127.961063 
L 86.6 127.961063 
" style="fill: none; stroke: #f08080; stroke-opacity: 0.8; stroke-width: 0.5; stroke-linecap: square"/>
    </g>
    <g id="text_20">
     <!-- Negative predictions min -->
     <g transform="translate(94.6 131.461063) scale(0.1 -0.1)">
      <use xlink:href="#DejaVuSans-4e"/>
      <use xlink:href="#DejaVuSans-65" x="74.804688"/>
      <use xlink:href="#DejaVuSans-67" x="136.328125"/>
      <use xlink:href="#DejaVuSans-61" x="199.804688"/>
      <use xlink:href="#DejaVuSans-74" x="261.083984"/>
      <use xlink:href="#DejaVuSans-69" x="300.292969"/>
      <use xlink:href="#DejaVuSans-76" x="328.076172"/>
      <use xlink:href="#DejaVuSans-65" x="387.255859"/>
      <use xlink:href="#DejaVuSans-20" x="448.779297"/>
      <use xlink:href="#DejaVuSans-70" x="480.566406"/>
      <use xlink:href="#DejaVuSans-72" x="544.042969"/>
      <use xlink:href="#DejaVuSans-65" x="582.90625"/>
      <use xlink:href="#DejaVuSans-64" x="644.429688"/>
      <use xlink:href="#DejaVuSans-69" x="707.90625"/>
      <use xlink:href="#DejaVuSans-63" x="735.689453"/>
      <use xlink:href="#DejaVuSans-74" x="790.669922"/>
      <use xlink:href="#DejaVuSans-69" x="829.878906"/>
      <use xlink:href="#DejaVuSans-6f" x="857.662109"/>
      <use xlink:href="#DejaVuSans-6e" x="918.84375"/>
      <use xlink:href="#DejaVuSans-73" x="982.222656"/>
      <use xlink:href="#DejaVuSans-20" x="1034.322266"/>
      <use xlink:href="#DejaVuSans-6d" x="1066.109375"/>
      <use xlink:href="#DejaVuSans-69" x="1163.521484"/>
      <use xlink:href="#DejaVuSans-6e" x="1191.304688"/>
     </g>
    </g>
   </g>
  </g>
 </g>
 <defs>
  <clipPath id="p04866af5e5">
   <rect x="57.6" y="41.472" width="357.12" height="266.112"/>
  </clipPath>
 </defs>
</svg>
