<?xml version="1.0" encoding="utf-8" standalone="no"?>
<!DOCTYPE svg PUBLIC "-//W3C//DTD SVG 1.1//EN"
  "http://www.w3.org/Graphics/SVG/1.1/DTD/svg11.dtd">
<svg xmlns:xlink="http://www.w3.org/1999/xlink" width="460.8pt" height="345.6pt" viewBox="0 0 460.8 345.6" xmlns="http://www.w3.org/2000/svg" version="1.1">
 <metadata>
  <rdf:RDF xmlns:dc="http://purl.org/dc/elements/1.1/" xmlns:cc="http://creativecommons.org/ns#" xmlns:rdf="http://www.w3.org/1999/02/22-rdf-syntax-ns#">
   <cc:Work>
    <dc:type rdf:resource="http://purl.org/dc/dcmitype/StillImage"/>
    <dc:date>2024-09-06T11:29:30.467863</dc:date>
    <dc:format>image/svg+xml</dc:format>
    <dc:creator>
     <cc:Agent>
      <dc:title>Matplotlib v3.9.0, https://matplotlib.org/</dc:title>
     </cc:Agent>
    </dc:creator>
   </cc:Work>
  </rdf:RDF>
 </metadata>
 <defs>
  <style type="text/css">*{stroke-linejoin: round; stroke-linecap: butt}</style>
 </defs>
 <g id="figure_1">
  <g id="patch_1">
   <path d="M 0 345.6 
L 460.8 345.6 
L 460.8 0 
L 0 0 
z
" style="fill: #ffffff"/>
  </g>
  <g id="axes_1">
   <g id="patch_2">
    <path d="M 57.6 307.584 
L 414.72 307.584 
L 414.72 41.472 
L 57.6 41.472 
z
" style="fill: #ffffff"/>
   </g>
   <g id="matplotlib.axis_1">
    <g id="xtick_1">
     <g id="line2d_1">
      <defs>
       <path id="m8ca926290d" d="M 0 0 
L 0 3.5 
" style="stroke: #000000; stroke-width: 0.8"/>
      </defs>
      <g>
       <use xlink:href="#m8ca926290d" x="73.832727" y="307.584" style="stroke: #000000; stroke-width: 0.8"/>
      </g>
     </g>
     <g id="text_1">
      <!-- 0 -->
      <g transform="translate(70.651477 322.182437) scale(0.1 -0.1)">
       <defs>
        <path id="DejaVuSans-30" d="M 2034 4250 
Q 1547 4250 1301 3770 
Q 1056 3291 1056 2328 
Q 1056 1369 1301 889 
Q 1547 409 2034 409 
Q 2525 409 2770 889 
Q 3016 1369 3016 2328 
Q 3016 3291 2770 3770 
Q 2525 4250 2034 4250 
z
M 2034 4750 
Q 2819 4750 3233 4129 
Q 3647 3509 3647 2328 
Q 3647 1150 3233 529 
Q 2819 -91 2034 -91 
Q 1250 -91 836 529 
Q 422 1150 422 2328 
Q 422 3509 836 4129 
Q 1250 4750 2034 4750 
z
" transform="scale(0.015625)"/>
       </defs>
       <use xlink:href="#DejaVuSans-30"/>
      </g>
     </g>
    </g>
    <g id="xtick_2">
     <g id="line2d_2">
      <g>
       <use xlink:href="#m8ca926290d" x="149.333784" y="307.584" style="stroke: #000000; stroke-width: 0.8"/>
      </g>
     </g>
     <g id="text_2">
      <!-- 50 -->
      <g transform="translate(142.971284 322.182437) scale(0.1 -0.1)">
       <defs>
        <path id="DejaVuSans-35" d="M 691 4666 
L 3169 4666 
L 3169 4134 
L 1269 4134 
L 1269 2991 
Q 1406 3038 1543 3061 
Q 1681 3084 1819 3084 
Q 2600 3084 3056 2656 
Q 3513 2228 3513 1497 
Q 3513 744 3044 326 
Q 2575 -91 1722 -91 
Q 1428 -91 1123 -41 
Q 819 9 494 109 
L 494 744 
Q 775 591 1075 516 
Q 1375 441 1709 441 
Q 2250 441 2565 725 
Q 2881 1009 2881 1497 
Q 2881 1984 2565 2268 
Q 2250 2553 1709 2553 
Q 1456 2553 1204 2497 
Q 953 2441 691 2322 
L 691 4666 
z
" transform="scale(0.015625)"/>
       </defs>
       <use xlink:href="#DejaVuSans-35"/>
       <use xlink:href="#DejaVuSans-30" x="63.623047"/>
      </g>
     </g>
    </g>
    <g id="xtick_3">
     <g id="line2d_3">
      <g>
       <use xlink:href="#m8ca926290d" x="224.834841" y="307.584" style="stroke: #000000; stroke-width: 0.8"/>
      </g>
     </g>
     <g id="text_3">
      <!-- 100 -->
      <g transform="translate(215.291091 322.182437) scale(0.1 -0.1)">
       <defs>
        <path id="DejaVuSans-31" d="M 794 531 
L 1825 531 
L 1825 4091 
L 703 3866 
L 703 4441 
L 1819 4666 
L 2450 4666 
L 2450 531 
L 3481 531 
L 3481 0 
L 794 0 
L 794 531 
z
" transform="scale(0.015625)"/>
       </defs>
       <use xlink:href="#DejaVuSans-31"/>
       <use xlink:href="#DejaVuSans-30" x="63.623047"/>
       <use xlink:href="#DejaVuSans-30" x="127.246094"/>
      </g>
     </g>
    </g>
    <g id="xtick_4">
     <g id="line2d_4">
      <g>
       <use xlink:href="#m8ca926290d" x="300.335899" y="307.584" style="stroke: #000000; stroke-width: 0.8"/>
      </g>
     </g>
     <g id="text_4">
      <!-- 150 -->
      <g transform="translate(290.792149 322.182437) scale(0.1 -0.1)">
       <use xlink:href="#DejaVuSans-31"/>
       <use xlink:href="#DejaVuSans-35" x="63.623047"/>
       <use xlink:href="#DejaVuSans-30" x="127.246094"/>
      </g>
     </g>
    </g>
    <g id="xtick_5">
     <g id="line2d_5">
      <g>
       <use xlink:href="#m8ca926290d" x="375.836956" y="307.584" style="stroke: #000000; stroke-width: 0.8"/>
      </g>
     </g>
     <g id="text_5">
      <!-- 200 -->
      <g transform="translate(366.293206 322.182437) scale(0.1 -0.1)">
       <defs>
        <path id="DejaVuSans-32" d="M 1228 531 
L 3431 531 
L 3431 0 
L 469 0 
L 469 531 
Q 828 903 1448 1529 
Q 2069 2156 2228 2338 
Q 2531 2678 2651 2914 
Q 2772 3150 2772 3378 
Q 2772 3750 2511 3984 
Q 2250 4219 1831 4219 
Q 1534 4219 1204 4116 
Q 875 4013 500 3803 
L 500 4441 
Q 881 4594 1212 4672 
Q 1544 4750 1819 4750 
Q 2544 4750 2975 4387 
Q 3406 4025 3406 3419 
Q 3406 3131 3298 2873 
Q 3191 2616 2906 2266 
Q 2828 2175 2409 1742 
Q 1991 1309 1228 531 
z
" transform="scale(0.015625)"/>
       </defs>
       <use xlink:href="#DejaVuSans-32"/>
       <use xlink:href="#DejaVuSans-30" x="63.623047"/>
       <use xlink:href="#DejaVuSans-30" x="127.246094"/>
      </g>
     </g>
    </g>
   </g>
   <g id="matplotlib.axis_2">
    <g id="ytick_1">
     <g id="line2d_6">
      <defs>
       <path id="m5247b0b389" d="M 0 0 
L -3.5 0 
" style="stroke: #000000; stroke-width: 0.8"/>
      </defs>
      <g>
       <use xlink:href="#m5247b0b389" x="57.6" y="278.653327" style="stroke: #000000; stroke-width: 0.8"/>
      </g>
     </g>
     <g id="text_6">
      <!-- −6000 -->
      <g transform="translate(16.770313 282.452546) scale(0.1 -0.1)">
       <defs>
        <path id="DejaVuSans-2212" d="M 678 2272 
L 4684 2272 
L 4684 1741 
L 678 1741 
L 678 2272 
z
" transform="scale(0.015625)"/>
        <path id="DejaVuSans-36" d="M 2113 2584 
Q 1688 2584 1439 2293 
Q 1191 2003 1191 1497 
Q 1191 994 1439 701 
Q 1688 409 2113 409 
Q 2538 409 2786 701 
Q 3034 994 3034 1497 
Q 3034 2003 2786 2293 
Q 2538 2584 2113 2584 
z
M 3366 4563 
L 3366 3988 
Q 3128 4100 2886 4159 
Q 2644 4219 2406 4219 
Q 1781 4219 1451 3797 
Q 1122 3375 1075 2522 
Q 1259 2794 1537 2939 
Q 1816 3084 2150 3084 
Q 2853 3084 3261 2657 
Q 3669 2231 3669 1497 
Q 3669 778 3244 343 
Q 2819 -91 2113 -91 
Q 1303 -91 875 529 
Q 447 1150 447 2328 
Q 447 3434 972 4092 
Q 1497 4750 2381 4750 
Q 2619 4750 2861 4703 
Q 3103 4656 3366 4563 
z
" transform="scale(0.015625)"/>
       </defs>
       <use xlink:href="#DejaVuSans-2212"/>
       <use xlink:href="#DejaVuSans-36" x="83.789062"/>
       <use xlink:href="#DejaVuSans-30" x="147.412109"/>
       <use xlink:href="#DejaVuSans-30" x="211.035156"/>
       <use xlink:href="#DejaVuSans-30" x="274.658203"/>
      </g>
     </g>
    </g>
    <g id="ytick_2">
     <g id="line2d_7">
      <g>
       <use xlink:href="#m5247b0b389" x="57.6" y="245.576314" style="stroke: #000000; stroke-width: 0.8"/>
      </g>
     </g>
     <g id="text_7">
      <!-- −4000 -->
      <g transform="translate(16.770313 249.375533) scale(0.1 -0.1)">
       <defs>
        <path id="DejaVuSans-34" d="M 2419 4116 
L 825 1625 
L 2419 1625 
L 2419 4116 
z
M 2253 4666 
L 3047 4666 
L 3047 1625 
L 3713 1625 
L 3713 1100 
L 3047 1100 
L 3047 0 
L 2419 0 
L 2419 1100 
L 313 1100 
L 313 1709 
L 2253 4666 
z
" transform="scale(0.015625)"/>
       </defs>
       <use xlink:href="#DejaVuSans-2212"/>
       <use xlink:href="#DejaVuSans-34" x="83.789062"/>
       <use xlink:href="#DejaVuSans-30" x="147.412109"/>
       <use xlink:href="#DejaVuSans-30" x="211.035156"/>
       <use xlink:href="#DejaVuSans-30" x="274.658203"/>
      </g>
     </g>
    </g>
    <g id="ytick_3">
     <g id="line2d_8">
      <g>
       <use xlink:href="#m5247b0b389" x="57.6" y="212.499301" style="stroke: #000000; stroke-width: 0.8"/>
      </g>
     </g>
     <g id="text_8">
      <!-- −2000 -->
      <g transform="translate(16.770313 216.298519) scale(0.1 -0.1)">
       <use xlink:href="#DejaVuSans-2212"/>
       <use xlink:href="#DejaVuSans-32" x="83.789062"/>
       <use xlink:href="#DejaVuSans-30" x="147.412109"/>
       <use xlink:href="#DejaVuSans-30" x="211.035156"/>
       <use xlink:href="#DejaVuSans-30" x="274.658203"/>
      </g>
     </g>
    </g>
    <g id="ytick_4">
     <g id="line2d_9">
      <g>
       <use xlink:href="#m5247b0b389" x="57.6" y="179.422288" style="stroke: #000000; stroke-width: 0.8"/>
      </g>
     </g>
     <g id="text_9">
      <!-- 0 -->
      <g transform="translate(44.2375 183.221506) scale(0.1 -0.1)">
       <use xlink:href="#DejaVuSans-30"/>
      </g>
     </g>
    </g>
    <g id="ytick_5">
     <g id="line2d_10">
      <g>
       <use xlink:href="#m5247b0b389" x="57.6" y="146.345274" style="stroke: #000000; stroke-width: 0.8"/>
      </g>
     </g>
     <g id="text_10">
      <!-- 2000 -->
      <g transform="translate(25.15 150.144493) scale(0.1 -0.1)">
       <use xlink:href="#DejaVuSans-32"/>
       <use xlink:href="#DejaVuSans-30" x="63.623047"/>
       <use xlink:href="#DejaVuSans-30" x="127.246094"/>
       <use xlink:href="#DejaVuSans-30" x="190.869141"/>
      </g>
     </g>
    </g>
    <g id="ytick_6">
     <g id="line2d_11">
      <g>
       <use xlink:href="#m5247b0b389" x="57.6" y="113.268261" style="stroke: #000000; stroke-width: 0.8"/>
      </g>
     </g>
     <g id="text_11">
      <!-- 4000 -->
      <g transform="translate(25.15 117.06748) scale(0.1 -0.1)">
       <use xlink:href="#DejaVuSans-34"/>
       <use xlink:href="#DejaVuSans-30" x="63.623047"/>
       <use xlink:href="#DejaVuSans-30" x="127.246094"/>
       <use xlink:href="#DejaVuSans-30" x="190.869141"/>
      </g>
     </g>
    </g>
    <g id="ytick_7">
     <g id="line2d_12">
      <g>
       <use xlink:href="#m5247b0b389" x="57.6" y="80.191248" style="stroke: #000000; stroke-width: 0.8"/>
      </g>
     </g>
     <g id="text_12">
      <!-- 6000 -->
      <g transform="translate(25.15 83.990467) scale(0.1 -0.1)">
       <use xlink:href="#DejaVuSans-36"/>
       <use xlink:href="#DejaVuSans-30" x="63.623047"/>
       <use xlink:href="#DejaVuSans-30" x="127.246094"/>
       <use xlink:href="#DejaVuSans-30" x="190.869141"/>
      </g>
     </g>
    </g>
    <g id="ytick_8">
     <g id="line2d_13">
      <g>
       <use xlink:href="#m5247b0b389" x="57.6" y="47.114235" style="stroke: #000000; stroke-width: 0.8"/>
      </g>
     </g>
     <g id="text_13">
      <!-- 8000 -->
      <g transform="translate(25.15 50.913454) scale(0.1 -0.1)">
       <defs>
        <path id="DejaVuSans-38" d="M 2034 2216 
Q 1584 2216 1326 1975 
Q 1069 1734 1069 1313 
Q 1069 891 1326 650 
Q 1584 409 2034 409 
Q 2484 409 2743 651 
Q 3003 894 3003 1313 
Q 3003 1734 2745 1975 
Q 2488 2216 2034 2216 
z
M 1403 2484 
Q 997 2584 770 2862 
Q 544 3141 544 3541 
Q 544 4100 942 4425 
Q 1341 4750 2034 4750 
Q 2731 4750 3128 4425 
Q 3525 4100 3525 3541 
Q 3525 3141 3298 2862 
Q 3072 2584 2669 2484 
Q 3125 2378 3379 2068 
Q 3634 1759 3634 1313 
Q 3634 634 3220 271 
Q 2806 -91 2034 -91 
Q 1263 -91 848 271 
Q 434 634 434 1313 
Q 434 1759 690 2068 
Q 947 2378 1403 2484 
z
M 1172 3481 
Q 1172 3119 1398 2916 
Q 1625 2713 2034 2713 
Q 2441 2713 2670 2916 
Q 2900 3119 2900 3481 
Q 2900 3844 2670 4047 
Q 2441 4250 2034 4250 
Q 1625 4250 1398 4047 
Q 1172 3844 1172 3481 
z
" transform="scale(0.015625)"/>
       </defs>
       <use xlink:href="#DejaVuSans-38"/>
       <use xlink:href="#DejaVuSans-30" x="63.623047"/>
       <use xlink:href="#DejaVuSans-30" x="127.246094"/>
       <use xlink:href="#DejaVuSans-30" x="190.869141"/>
      </g>
     </g>
    </g>
   </g>
   <g id="line2d_14">
    <path d="M 73.832727 183.856626 
L 75.342748 182.645903 
L 76.85277 179.476672 
L 78.362791 180.191825 
L 79.872812 180.086988 
L 81.382833 178.885226 
L 82.892854 180.182543 
L 84.402875 182.033556 
L 85.912896 178.450727 
L 87.422918 179.912936 
L 88.932939 180.761994 
L 90.44296 179.743881 
L 91.952981 179.742003 
L 93.463002 179.854055 
L 94.973023 179.248103 
L 97.993066 181.012236 
L 101.013108 178.313628 
L 102.523129 181.186449 
L 104.03315 180.471859 
L 105.543171 178.304394 
L 107.053192 179.592664 
L 108.563214 180.4656 
L 110.073235 179.638978 
L 111.583256 179.872216 
L 113.093277 179.626512 
L 114.603298 179.599729 
L 116.113319 178.75449 
L 117.62334 178.963964 
L 119.133362 180.071163 
L 120.643383 180.255499 
L 122.153404 180.043542 
L 125.173446 179.435952 
L 128.193488 179.468006 
L 129.70351 179.801775 
L 131.213531 179.446826 
L 134.233573 179.75208 
L 135.743594 179.284171 
L 137.253615 180.69047 
L 138.763636 178.909094 
L 140.273658 179.449894 
L 141.783679 180.504236 
L 143.2937 181.886526 
L 144.803721 179.243367 
L 146.313742 178.781801 
L 147.823763 181.721284 
L 149.333784 181.548155 
L 150.843805 178.74345 
L 152.353827 177.930116 
L 153.863848 182.243712 
L 155.373869 181.775557 
L 156.88389 178.390432 
L 158.393911 181.462983 
L 161.413953 179.75746 
L 162.923975 179.38054 
L 164.433996 180.10841 
L 165.944017 179.733749 
L 167.454038 179.521126 
L 168.964059 181.518332 
L 170.47408 179.171244 
L 171.984101 178.79116 
L 173.494123 180.663234 
L 175.004144 179.74174 
L 176.514165 180.221221 
L 178.024186 179.392356 
L 179.534207 181.023166 
L 181.044228 179.778068 
L 182.554249 180.936584 
L 184.064271 180.107959 
L 185.574292 178.403802 
L 187.084313 179.642457 
L 190.104355 180.029269 
L 191.614376 180.789456 
L 194.634419 179.67799 
L 196.14444 181.93437 
L 197.654461 178.579493 
L 199.164482 180.351285 
L 203.694545 178.935218 
L 205.204567 179.857756 
L 206.714588 179.945995 
L 208.224609 179.15192 
L 209.73463 181.333151 
L 211.244651 179.449307 
L 212.754672 180.071281 
L 214.264693 178.261601 
L 215.774715 179.831028 
L 217.284736 180.803424 
L 218.794757 179.203758 
L 220.304778 179.382711 
L 221.814799 179.848076 
L 223.32482 181.69593 
L 224.834841 182.654085 
L 226.344863 178.044035 
L 227.854884 181.52058 
L 229.364905 180.647647 
L 230.874926 180.144231 
L 232.384947 185.726568 
L 233.894968 182.421021 
L 235.404989 189.265984 
L 236.915011 172.647109 
L 238.425032 189.238616 
L 239.935053 189.106905 
L 241.445074 173.478128 
L 242.955095 189.080883 
L 244.465116 180.713696 
L 245.975137 181.758486 
L 247.485159 189.150026 
L 248.99518 186.3662 
L 250.505201 172.848914 
L 252.015222 186.907749 
L 253.525243 184.606962 
L 255.035264 185.059605 
L 256.545285 190.10804 
L 258.055307 185.014339 
L 259.565328 178.370216 
L 261.075349 185.153372 
L 262.58537 178.610388 
L 264.095391 185.938065 
L 265.605412 181.400756 
L 267.115433 185.351828 
L 268.625455 187.567488 
L 270.135476 178.66123 
L 271.645497 173.419632 
L 273.155518 175.228033 
L 274.665539 197.782624 
L 276.17556 181.828701 
L 277.685581 177.353266 
L 279.195603 176.925021 
L 280.705624 183.192155 
L 282.215645 185.361983 
L 285.235687 178.777473 
L 286.745708 185.311527 
L 288.255729 181.532264 
L 289.765751 179.667238 
L 291.275772 180.937938 
L 292.785793 183.736597 
L 294.295814 187.776434 
L 295.805835 176.895697 
L 297.315856 192.283245 
L 298.825877 180.088621 
L 300.335899 182.142688 
L 301.84592 184.744966 
L 303.355941 179.194107 
L 304.865962 183.827407 
L 306.375983 177.443663 
L 307.886004 171.720055 
L 309.396025 190.340115 
L 310.906047 181.583251 
L 312.416068 179.506783 
L 313.926089 177.942965 
L 315.43611 186.472072 
L 316.946131 184.076834 
L 318.456152 182.487111 
L 319.966173 182.299399 
L 321.476195 179.546724 
L 322.986216 179.416403 
L 324.496237 178.78523 
L 326.006258 179.753701 
L 327.516279 181.235773 
L 329.0263 180.623989 
L 330.536321 180.248259 
L 332.046342 180.374475 
L 333.556364 182.184815 
L 335.066385 179.918514 
L 336.576406 180.590134 
L 338.086427 180.634129 
L 339.596448 180.369184 
L 341.106469 179.805361 
L 342.61649 180.260388 
L 344.126512 180.075479 
L 345.636533 183.583431 
L 347.146554 178.882011 
L 348.656575 179.34243 
L 350.166596 179.64854 
L 351.676617 182.058661 
L 353.186638 180.229854 
L 354.69666 185.157203 
L 356.206681 181.942729 
L 357.716702 180.339315 
L 359.226723 182.360261 
L 360.736744 177.780122 
L 362.246765 180.334172 
L 363.756786 179.828557 
L 365.266808 179.143225 
L 366.776829 181.245037 
L 368.28685 179.192751 
L 369.796871 185.959876 
L 371.306892 179.302897 
L 372.816913 180.528267 
L 374.326934 177.784497 
L 375.836956 178.392054 
L 377.346977 179.815824 
L 378.856998 179.459587 
L 380.367019 180.455835 
L 381.87704 179.62228 
L 384.897082 182.726421 
L 386.407104 177.17111 
L 387.917125 184.607253 
L 389.427146 182.520064 
L 390.937167 182.026536 
L 392.447188 179.114875 
L 393.957209 179.426547 
L 395.46723 185.537784 
L 398.487273 177.824803 
L 398.487273 177.824803 
" clip-path="url(#pc2d1f85585)" style="fill: none; stroke: #008000; stroke-opacity: 0.8; stroke-width: 0.5; stroke-linecap: square"/>
   </g>
   <g id="line2d_15">
    <path d="M 73.832727 163.841542 
L 75.342748 165.350965 
L 76.85277 165.886065 
L 79.872812 165.180026 
L 81.382833 168.43569 
L 82.892854 168.398046 
L 84.402875 172.660021 
L 85.912896 161.574767 
L 87.422918 175.018314 
L 88.932939 171.425172 
L 90.44296 173.494762 
L 91.952981 175.335839 
L 93.463002 168.171082 
L 94.973023 168.986459 
L 96.483044 176.946444 
L 97.993066 173.021516 
L 99.503087 171.830348 
L 101.013108 172.968391 
L 102.523129 174.737937 
L 104.03315 175.994348 
L 105.543171 169.130554 
L 107.053192 175.384897 
L 108.563214 177.577534 
L 110.073235 178.822551 
L 111.583256 174.411207 
L 113.093277 178.647116 
L 114.603298 176.900867 
L 116.113319 169.402275 
L 117.62334 167.211583 
L 119.133362 175.209726 
L 120.643383 177.264651 
L 122.153404 173.399581 
L 123.663425 176.405779 
L 125.173446 173.431871 
L 126.683467 177.066494 
L 129.70351 178.582678 
L 131.213531 173.259715 
L 132.723552 178.02258 
L 134.233573 178.677554 
L 135.743594 178.164879 
L 137.253615 177.10603 
L 138.763636 174.027636 
L 140.273658 174.801365 
L 141.783679 178.313101 
L 143.2937 171.118433 
L 144.803721 169.549368 
L 146.313742 170.00655 
L 147.823763 175.192318 
L 149.333784 173.757507 
L 150.843805 140.596237 
L 152.353827 162.586158 
L 153.863848 157.307441 
L 155.373869 174.376249 
L 156.88389 168.25159 
L 158.393911 168.616056 
L 159.903932 172.864136 
L 161.413953 176.053673 
L 162.923975 177.110146 
L 164.433996 163.506133 
L 165.944017 174.050177 
L 167.454038 176.589117 
L 168.964059 170.842021 
L 170.47408 172.385835 
L 171.984101 175.278931 
L 173.494123 175.049799 
L 175.004144 176.887217 
L 176.514165 176.214085 
L 178.024186 175.960991 
L 179.534207 175.023085 
L 182.554249 175.010844 
L 184.064271 175.791927 
L 185.574292 169.2903 
L 187.084313 173.511652 
L 188.594334 166.657406 
L 190.104355 132.104779 
L 191.614376 174.602919 
L 193.124397 176.445966 
L 194.634419 171.551417 
L 196.14444 174.348981 
L 197.654461 173.279458 
L 199.164482 168.529121 
L 200.674503 172.864573 
L 202.184524 168.291295 
L 203.694545 169.634643 
L 205.204567 173.925946 
L 206.714588 176.855815 
L 208.224609 176.615362 
L 209.73463 172.96549 
L 211.244651 164.448545 
L 212.754672 171.14814 
L 214.264693 172.250096 
L 215.774715 161.193962 
L 217.284736 175.806816 
L 218.794757 171.646686 
L 220.304778 175.525694 
L 221.814799 175.58024 
L 223.32482 177.581189 
L 224.834841 171.753473 
L 226.344863 163.442844 
L 227.854884 169.64737 
L 229.364905 151.683416 
L 230.874926 165.23851 
L 232.384947 165.435894 
L 233.894968 150.308426 
L 235.404989 144.146138 
L 236.915011 106.472675 
L 238.425032 146.63219 
L 239.935053 148.152906 
L 241.445074 87.934986 
L 242.955095 133.716287 
L 244.465116 118.613377 
L 245.975137 136.267561 
L 247.485159 146.758006 
L 248.99518 148.704557 
L 250.505201 121.325966 
L 252.015222 116.062146 
L 253.525243 53.568 
L 255.035264 105.771255 
L 256.545285 143.407579 
L 258.055307 138.91512 
L 259.565328 119.204816 
L 261.075349 127.344403 
L 262.58537 152.107916 
L 264.095391 164.144619 
L 265.605412 146.694385 
L 267.115433 155.060404 
L 268.625455 157.166577 
L 270.135476 138.684361 
L 271.645497 74.592625 
L 273.155518 107.935716 
L 274.665539 134.206097 
L 276.17556 133.928629 
L 277.685581 102.871952 
L 279.195603 123.328498 
L 280.705624 131.150614 
L 282.215645 129.236665 
L 283.725666 121.828043 
L 285.235687 136.027445 
L 286.745708 122.89132 
L 288.255729 131.205074 
L 289.765751 151.059507 
L 291.275772 150.35895 
L 292.785793 123.596655 
L 294.295814 149.028944 
L 295.805835 118.887118 
L 297.315856 157.156344 
L 298.825877 120.926528 
L 300.335899 162.63404 
L 301.84592 164.67833 
L 303.355941 145.420656 
L 304.865962 142.650009 
L 306.375983 137.711789 
L 307.886004 127.707319 
L 309.396025 150.410704 
L 310.906047 159.948861 
L 312.416068 139.544193 
L 313.926089 127.666833 
L 315.43611 170.823908 
L 316.946131 174.565266 
L 318.456152 165.513862 
L 319.966173 160.698565 
L 321.476195 174.667092 
L 322.986216 166.48387 
L 324.496237 144.908138 
L 326.006258 165.172212 
L 327.516279 142.234493 
L 329.0263 166.609659 
L 330.536321 173.634249 
L 332.046342 175.818654 
L 333.556364 174.609014 
L 335.066385 166.871923 
L 336.576406 147.155067 
L 338.086427 173.404601 
L 339.596448 174.184496 
L 341.106469 170.195195 
L 342.61649 168.149751 
L 344.126512 176.210917 
L 345.636533 178.064668 
L 347.146554 166.751267 
L 348.656575 161.078444 
L 350.166596 161.305265 
L 351.676617 167.128615 
L 353.186638 160.569344 
L 354.69666 162.549702 
L 356.206681 163.455494 
L 357.716702 160.792219 
L 359.226723 175.176773 
L 360.736744 151.561156 
L 362.246765 158.708966 
L 363.756786 169.117271 
L 365.266808 165.068831 
L 366.776829 169.66281 
L 368.28685 157.242507 
L 369.796871 167.162894 
L 371.306892 168.799873 
L 372.816913 170.635902 
L 374.326934 159.880449 
L 375.836956 163.737144 
L 377.346977 173.003928 
L 378.856998 151.573154 
L 380.367019 153.21775 
L 381.87704 168.89752 
L 383.387061 168.316908 
L 384.897082 174.524543 
L 386.407104 168.715881 
L 387.917125 174.419396 
L 389.427146 163.393952 
L 390.937167 165.761816 
L 392.447188 148.132581 
L 393.957209 147.818985 
L 395.46723 158.039768 
L 396.977252 136.414858 
L 398.487273 159.767854 
L 398.487273 159.767854 
" clip-path="url(#pc2d1f85585)" style="fill: none; stroke: #32cd32; stroke-opacity: 0.8; stroke-width: 0.5; stroke-linecap: square"/>
   </g>
   <g id="line2d_16">
    <path d="M 73.832727 210.986855 
L 75.342748 196.70116 
L 76.85277 194.127285 
L 78.362791 197.074832 
L 79.872812 187.934232 
L 81.382833 186.91109 
L 82.892854 186.417586 
L 84.402875 195.245233 
L 85.912896 191.262277 
L 87.422918 187.924487 
L 88.932939 187.778271 
L 90.44296 187.153816 
L 91.952981 181.809483 
L 93.463002 188.385811 
L 94.973023 186.340828 
L 96.483044 183.641207 
L 97.993066 188.954876 
L 99.503087 189.980349 
L 101.013108 184.222398 
L 102.523129 189.104428 
L 104.03315 183.470144 
L 105.543171 181.987643 
L 107.053192 183.190574 
L 108.563214 182.936793 
L 110.073235 181.351035 
L 111.583256 184.551748 
L 113.093277 180.293516 
L 114.603298 180.652908 
L 116.113319 182.464277 
L 117.62334 187.649568 
L 119.133362 188.1683 
L 120.643383 182.686578 
L 122.153404 185.316173 
L 123.663425 185.384277 
L 125.173446 183.501499 
L 126.683467 180.693695 
L 128.193488 180.677827 
L 129.70351 184.256552 
L 131.213531 183.198292 
L 132.723552 182.484975 
L 134.233573 180.689048 
L 135.743594 180.206485 
L 137.253615 191.062283 
L 138.763636 181.21909 
L 140.273658 182.34438 
L 141.783679 183.675738 
L 143.2937 192.668758 
L 144.803721 196.200644 
L 146.313742 188.802811 
L 147.823763 187.422026 
L 149.333784 188.603614 
L 150.843805 200.696715 
L 152.353827 197.034133 
L 153.863848 202.890348 
L 155.373869 188.249308 
L 156.88389 190.511098 
L 158.393911 194.725332 
L 159.903932 188.808712 
L 161.413953 184.042135 
L 162.923975 182.3004 
L 164.433996 189.202165 
L 165.944017 185.648079 
L 167.454038 183.959692 
L 168.964059 201.296782 
L 170.47408 185.281566 
L 171.984101 183.009553 
L 173.494123 186.523774 
L 175.004144 183.608088 
L 176.514165 194.177627 
L 178.024186 185.290613 
L 179.534207 187.081934 
L 181.044228 190.483394 
L 182.554249 186.836384 
L 185.574292 188.89937 
L 187.084313 185.687038 
L 188.594334 186.208285 
L 190.104355 206.064284 
L 191.614376 192.337362 
L 193.124397 187.325683 
L 194.634419 189.005329 
L 196.14444 195.097707 
L 197.654461 188.593126 
L 199.164482 188.429281 
L 200.674503 186.442116 
L 202.184524 191.023987 
L 203.694545 184.552326 
L 205.204567 185.533792 
L 206.714588 184.718017 
L 208.224609 180.657023 
L 209.73463 196.034947 
L 211.244651 187.502153 
L 212.754672 185.20555 
L 214.264693 183.313948 
L 215.774715 198.096038 
L 217.284736 185.720073 
L 218.794757 190.519292 
L 220.304778 182.178398 
L 221.814799 183.30099 
L 224.834841 202.007915 
L 226.344863 196.272724 
L 227.854884 192.379761 
L 229.364905 199.35008 
L 230.874926 194.921085 
L 232.384947 209.143334 
L 233.894968 217.291835 
L 235.404989 268.120553 
L 236.915011 252.004033 
L 238.425032 241.449422 
L 239.935053 295.488 
L 241.445074 242.778538 
L 242.955095 266.062 
L 244.465116 230.82951 
L 245.975137 238.392755 
L 247.485159 256.0147 
L 248.99518 241.929347 
L 250.505201 217.997342 
L 252.015222 280.702731 
L 253.525243 271.375695 
L 255.035264 293.270506 
L 256.545285 218.946452 
L 258.055307 254.137674 
L 259.565328 220.227435 
L 261.075349 224.798137 
L 262.58537 205.653787 
L 264.095391 233.967558 
L 265.605412 216.148657 
L 267.115433 221.832717 
L 268.625455 244.705779 
L 270.135476 221.687733 
L 271.645497 208.998604 
L 273.155518 217.98199 
L 274.665539 270.263271 
L 276.17556 230.699083 
L 277.685581 240.259244 
L 279.195603 233.601548 
L 280.705624 239.698215 
L 282.215645 230.067002 
L 283.725666 228.768863 
L 285.235687 242.37944 
L 286.745708 230.238497 
L 288.255729 215.906982 
L 289.765751 208.746245 
L 291.275772 200.136498 
L 292.785793 234.822862 
L 294.295814 254.506884 
L 295.805835 211.434606 
L 297.315856 277.759791 
L 298.825877 235.178291 
L 300.335899 218.815893 
L 301.84592 214.39572 
L 303.355941 212.583285 
L 304.865962 210.13763 
L 306.375983 206.111349 
L 307.886004 216.774806 
L 309.396025 234.469931 
L 310.906047 198.978831 
L 312.416068 217.639759 
L 313.926089 223.350467 
L 315.43611 221.31068 
L 316.946131 198.686287 
L 318.456152 208.287363 
L 319.966173 212.863291 
L 321.476195 193.381079 
L 322.986216 192.454127 
L 324.496237 203.019536 
L 326.006258 196.728368 
L 327.516279 215.200665 
L 329.0263 199.70812 
L 332.046342 184.098128 
L 333.556364 192.154642 
L 335.066385 195.902624 
L 336.576406 246.684547 
L 338.086427 193.721756 
L 339.596448 192.29985 
L 341.106469 188.554323 
L 342.61649 191.523355 
L 344.126512 182.544102 
L 345.636533 191.21163 
L 347.146554 204.198868 
L 348.656575 190.268491 
L 350.166596 191.537396 
L 351.676617 212.130512 
L 353.186638 190.679936 
L 354.69666 206.152317 
L 356.206681 217.491917 
L 357.716702 198.174209 
L 360.736744 202.349417 
L 362.246765 196.887286 
L 363.756786 190.443448 
L 365.266808 186.70649 
L 366.776829 199.130302 
L 368.28685 212.875674 
L 369.796871 202.981822 
L 371.306892 188.616138 
L 372.816913 197.549474 
L 374.326934 185.392068 
L 375.836956 187.694776 
L 377.346977 188.657604 
L 378.856998 196.129935 
L 380.367019 206.783608 
L 381.87704 188.613622 
L 383.387061 195.964957 
L 384.897082 196.429782 
L 386.407104 188.667784 
L 387.917125 200.656105 
L 389.427146 228.751959 
L 390.937167 195.362328 
L 392.447188 230.714495 
L 393.957209 218.85963 
L 395.46723 208.572438 
L 396.977252 211.291671 
L 398.487273 199.889533 
L 398.487273 199.889533 
" clip-path="url(#pc2d1f85585)" style="fill: none; stroke: #32cd32; stroke-opacity: 0.8; stroke-width: 0.5; stroke-linecap: square"/>
   </g>
   <g id="line2d_17">
    <path d="M 73.832727 181.19126 
L 75.342748 179.471966 
L 76.85277 178.146652 
L 78.362791 177.349341 
L 79.872812 178.295366 
L 81.382833 177.592628 
L 82.892854 179.416809 
L 84.402875 180.356523 
L 85.912896 177.745729 
L 87.422918 178.033496 
L 88.932939 179.25759 
L 90.44296 178.255782 
L 91.952981 179.361074 
L 94.973023 179.016093 
L 96.483044 179.303022 
L 97.993066 179.246203 
L 99.503087 178.546698 
L 101.013108 177.146523 
L 102.523129 180.207144 
L 104.03315 179.953385 
L 105.543171 177.662586 
L 107.053192 179.262508 
L 108.563214 179.81325 
L 110.073235 179.102539 
L 113.093277 179.358454 
L 114.603298 179.38795 
L 116.113319 178.046554 
L 117.62334 178.064717 
L 119.133362 179.321303 
L 120.643383 179.391389 
L 122.153404 178.984323 
L 123.663425 179.448579 
L 125.173446 179.080177 
L 126.683467 179.429604 
L 128.193488 179.264108 
L 129.70351 179.589848 
L 131.213531 179.032195 
L 132.723552 179.69166 
L 134.233573 179.536141 
L 135.743594 179.098168 
L 137.253615 179.783425 
L 138.763636 178.78152 
L 140.273658 179.096105 
L 143.2937 180.290779 
L 144.803721 178.124696 
L 146.313742 177.35059 
L 147.823763 180.583374 
L 149.333784 178.99222 
L 150.843805 175.495372 
L 152.353827 175.744129 
L 153.863848 178.850781 
L 155.373869 179.574534 
L 156.88389 177.00585 
L 158.393911 178.936874 
L 159.903932 179.344007 
L 161.413953 178.290903 
L 162.923975 178.662756 
L 164.433996 178.204293 
L 165.944017 179.226873 
L 167.454038 179.102293 
L 168.964059 180.838855 
L 170.47408 178.679019 
L 171.984101 178.435598 
L 173.494123 179.298613 
L 175.004144 179.183464 
L 176.514165 179.68405 
L 178.024186 179.161163 
L 179.534207 179.960746 
L 181.044228 178.974213 
L 182.554249 179.373096 
L 184.064271 179.467837 
L 185.574292 177.901024 
L 187.084313 178.263036 
L 188.594334 178.462238 
L 190.104355 177.155672 
L 191.614376 178.984806 
L 193.124397 179.753498 
L 194.634419 178.921358 
L 196.14444 180.719327 
L 197.654461 177.850413 
L 199.164482 177.937082 
L 202.184524 179.126425 
L 203.694545 178.549629 
L 205.204567 178.839435 
L 206.714588 179.77707 
L 208.224609 178.999678 
L 209.73463 180.397295 
L 211.244651 178.245901 
L 212.754672 179.572447 
L 214.264693 177.647225 
L 215.774715 177.912327 
L 217.284736 180.014293 
L 218.794757 178.697 
L 220.304778 179.019543 
L 221.814799 179.077235 
L 223.32482 179.609752 
L 224.834841 181.568313 
L 226.344863 176.133793 
L 227.854884 179.306845 
L 229.364905 177.034227 
L 232.384947 180.821461 
L 233.894968 178.128607 
L 235.404989 179.250446 
L 236.915011 169.20993 
L 238.425032 186.013151 
L 239.935053 177.974116 
L 241.445074 166.812986 
L 242.955095 182.841417 
L 244.465116 173.495656 
L 245.975137 172.630853 
L 247.485159 185.816517 
L 248.99518 182.563638 
L 250.505201 161.033116 
L 252.015222 184.494034 
L 253.525243 178.089289 
L 255.035264 177.178656 
L 256.545285 179.366924 
L 258.055307 180.878134 
L 259.565328 171.848459 
L 261.075349 174.76037 
L 262.58537 175.681112 
L 264.095391 181.647712 
L 265.605412 173.297094 
L 267.115433 177.290985 
L 268.625455 180.061499 
L 270.135476 176.09254 
L 271.645497 167.729064 
L 273.155518 169.563678 
L 274.665539 194.053334 
L 276.17556 171.058028 
L 277.685581 171.56089 
L 279.195603 172.24242 
L 280.705624 175.387712 
L 282.215645 173.439704 
L 283.725666 170.917285 
L 285.235687 166.196564 
L 286.745708 182.163185 
L 288.255729 175.676845 
L 289.765751 174.153075 
L 291.275772 177.641527 
L 292.785793 177.878506 
L 294.295814 179.740057 
L 295.805835 169.933385 
L 297.315856 187.147013 
L 298.825877 169.434299 
L 300.335899 180.340575 
L 301.84592 180.78598 
L 303.355941 173.196893 
L 304.865962 179.579286 
L 306.375983 175.035127 
L 307.886004 168.279354 
L 309.396025 183.038733 
L 310.906047 179.053396 
L 312.416068 176.718457 
L 313.926089 167.393462 
L 315.43611 182.744245 
L 316.946131 180.772263 
L 319.966173 179.101031 
L 321.476195 177.295307 
L 322.986216 177.897229 
L 324.496237 176.267455 
L 326.006258 178.474752 
L 327.516279 178.794794 
L 329.0263 179.67639 
L 330.536321 178.653961 
L 332.046342 179.129373 
L 333.556364 180.793078 
L 335.066385 178.536373 
L 336.576406 174.894684 
L 338.086427 178.124666 
L 339.596448 179.33516 
L 341.106469 179.027876 
L 342.61649 179.435752 
L 344.126512 179.58977 
L 345.636533 181.878362 
L 347.146554 175.533323 
L 348.656575 177.730194 
L 350.166596 177.105984 
L 351.676617 179.228723 
L 353.186638 177.203893 
L 354.69666 177.834248 
L 356.206681 176.991102 
L 357.716702 177.942013 
L 359.226723 179.227143 
L 360.736744 175.703486 
L 362.246765 179.461515 
L 363.756786 177.08907 
L 365.266808 177.500795 
L 366.776829 179.455048 
L 368.28685 179.049825 
L 369.796871 180.234146 
L 371.306892 176.963527 
L 372.816913 179.04909 
L 374.326934 177.007263 
L 375.836956 178.014048 
L 377.346977 179.514204 
L 378.856998 175.238117 
L 380.367019 177.432273 
L 381.87704 178.673321 
L 383.387061 180.106051 
L 384.897082 181.346659 
L 386.407104 176.219602 
L 387.917125 181.272899 
L 389.427146 178.723981 
L 390.937167 179.750231 
L 392.447188 178.714795 
L 393.957209 178.451101 
L 395.46723 179.154064 
L 396.977252 178.327913 
L 398.487273 174.633646 
L 398.487273 174.633646 
" clip-path="url(#pc2d1f85585)" style="fill: none; stroke: #ff0000; stroke-opacity: 0.8; stroke-width: 0.5; stroke-linecap: square"/>
   </g>
   <g id="line2d_18">
    <path d="M 73.832727 161.542895 
L 75.342748 161.306222 
L 76.85277 163.584553 
L 78.362791 164.095884 
L 79.872812 166.004822 
L 81.382833 168.345436 
L 82.892854 164.401851 
L 84.402875 170.491549 
L 85.912896 159.631667 
L 87.422918 173.54242 
L 88.932939 169.727003 
L 90.44296 172.270594 
L 91.952981 175.07273 
L 93.463002 167.541115 
L 94.973023 168.76373 
L 96.483044 175.98373 
L 97.993066 172.091059 
L 99.503087 167.088381 
L 101.013108 172.129351 
L 102.523129 173.997591 
L 104.03315 176.092947 
L 105.543171 169.081144 
L 107.053192 175.45712 
L 108.563214 176.425919 
L 110.073235 176.978558 
L 111.583256 174.132946 
L 113.093277 178.196325 
L 114.603298 176.844235 
L 116.113319 169.26593 
L 117.62334 167.18482 
L 119.133362 173.231927 
L 120.643383 175.970256 
L 122.153404 171.995581 
L 123.663425 176.340285 
L 125.173446 173.372598 
L 126.683467 176.898987 
L 129.70351 178.384459 
L 131.213531 172.492812 
L 132.723552 177.978716 
L 134.233573 178.476306 
L 135.743594 178.005348 
L 137.253615 174.558432 
L 138.763636 174.158132 
L 140.273658 174.940293 
L 141.783679 176.902816 
L 143.2937 167.059403 
L 144.803721 169.586323 
L 146.313742 169.087557 
L 147.823763 173.935226 
L 149.333784 171.296228 
L 150.843805 132.51926 
L 152.353827 159.548351 
L 153.863848 156.772 
L 155.373869 172.21973 
L 156.88389 166.66116 
L 158.393911 167.167348 
L 159.903932 172.03874 
L 161.413953 173.321537 
L 162.923975 176.169895 
L 164.433996 162.006407 
L 165.944017 173.660915 
L 167.454038 175.98604 
L 168.964059 169.872808 
L 170.47408 172.056849 
L 171.984101 174.504293 
L 173.494123 173.990056 
L 175.004144 176.240095 
L 176.514165 175.149707 
L 178.024186 174.705525 
L 179.534207 171.814292 
L 181.044228 174.295001 
L 182.554249 172.429148 
L 184.064271 174.11528 
L 185.574292 170.276245 
L 187.084313 171.907815 
L 188.594334 166.707927 
L 190.104355 130.848532 
L 191.614376 171.731909 
L 193.124397 175.057958 
L 194.634419 171.496469 
L 196.14444 174.026493 
L 197.654461 169.77907 
L 199.164482 165.168026 
L 200.674503 171.579019 
L 202.184524 165.14925 
L 205.204567 173.505544 
L 206.714588 176.002758 
L 208.224609 176.346712 
L 209.73463 167.267648 
L 211.244651 162.484863 
L 212.754672 170.075078 
L 214.264693 171.753271 
L 215.774715 160.258604 
L 217.284736 175.377989 
L 218.794757 171.345137 
L 220.304778 174.279821 
L 221.814799 174.669141 
L 223.32482 173.211331 
L 224.834841 169.375688 
L 226.344863 161.045773 
L 227.854884 167.952761 
L 229.364905 150.349725 
L 230.874926 164.381658 
L 232.384947 160.997862 
L 233.894968 149.043782 
L 235.404989 134.222159 
L 236.915011 98.792463 
L 238.425032 143.947881 
L 239.935053 124.845641 
L 241.445074 90.747785 
L 242.955095 136.440257 
L 244.465116 110.531898 
L 245.975137 130.737322 
L 247.485159 143.560678 
L 248.99518 145.009486 
L 250.505201 111.542856 
L 252.015222 111.869314 
L 253.525243 60.014092 
L 255.035264 94.368968 
L 256.545285 136.301622 
L 258.055307 120.275969 
L 259.565328 114.756149 
L 261.075349 112.879614 
L 262.58537 143.376168 
L 264.095391 160.12823 
L 265.605412 139.36323 
L 267.115433 138.736717 
L 268.625455 134.724034 
L 270.135476 142.18213 
L 271.645497 68.248671 
L 273.155518 108.195044 
L 274.665539 142.088911 
L 276.17556 102.026405 
L 277.685581 90.407779 
L 279.195603 123.775324 
L 280.705624 119.640981 
L 282.215645 120.71996 
L 283.725666 118.163631 
L 285.235687 117.010244 
L 286.745708 120.560217 
L 288.255729 126.444083 
L 289.765751 142.398408 
L 291.275772 139.375101 
L 292.785793 116.222445 
L 294.295814 140.827098 
L 295.805835 121.278227 
L 297.315856 152.18669 
L 298.825877 104.901295 
L 300.335899 156.041817 
L 301.84592 164.282195 
L 303.355941 140.584929 
L 304.865962 137.640299 
L 306.375983 139.078955 
L 307.886004 123.402318 
L 309.396025 138.85002 
L 310.906047 150.010142 
L 312.416068 134.800457 
L 313.926089 114.687434 
L 315.43611 167.691774 
L 316.946131 169.982051 
L 319.966173 157.257806 
L 321.476195 167.642332 
L 322.986216 161.738134 
L 324.496237 143.161283 
L 326.006258 164.312582 
L 327.516279 137.831706 
L 329.0263 164.314762 
L 330.536321 165.819447 
L 332.046342 172.888205 
L 333.556364 171.84925 
L 335.066385 162.854211 
L 336.576406 135.752201 
L 338.086427 171.470609 
L 339.596448 168.224798 
L 341.106469 169.163785 
L 342.61649 168.64496 
L 344.126512 175.384732 
L 345.636533 177.615435 
L 347.146554 160.421934 
L 348.656575 159.121848 
L 350.166596 160.749879 
L 351.676617 147.432891 
L 353.186638 161.077703 
L 354.69666 154.880007 
L 356.206681 151.405767 
L 357.716702 160.634138 
L 359.226723 165.543295 
L 360.736744 152.366385 
L 363.756786 164.331764 
L 365.266808 160.785732 
L 366.776829 163.474862 
L 369.796871 151.25474 
L 371.306892 164.408236 
L 372.816913 168.743115 
L 374.326934 155.209886 
L 375.836956 163.13072 
L 377.346977 170.064529 
L 378.856998 147.833314 
L 380.367019 154.568403 
L 381.87704 168.365817 
L 383.387061 168.001041 
L 384.897082 170.954992 
L 386.407104 163.975116 
L 387.917125 163.998499 
L 389.427146 158.814913 
L 390.937167 164.591257 
L 392.447188 146.672475 
L 393.957209 147.619022 
L 395.46723 139.972458 
L 396.977252 133.265331 
L 398.487273 161.347402 
L 398.487273 161.347402 
" clip-path="url(#pc2d1f85585)" style="fill: none; stroke: #f08080; stroke-opacity: 0.8; stroke-width: 0.5; stroke-linecap: square"/>
   </g>
   <g id="line2d_19">
    <path d="M 73.832727 200.872525 
L 75.342748 194.842778 
L 76.85277 191.899064 
L 78.362791 193.946627 
L 79.872812 186.825092 
L 81.382833 184.732778 
L 82.892854 185.081688 
L 84.402875 193.019177 
L 85.912896 190.431331 
L 87.422918 186.961299 
L 88.932939 184.77675 
L 90.44296 186.32414 
L 91.952981 181.911848 
L 93.463002 186.478899 
L 94.973023 185.385606 
L 96.483044 182.542514 
L 97.993066 185.152468 
L 99.503087 188.843175 
L 101.013108 182.322201 
L 102.523129 187.258402 
L 104.03315 183.015985 
L 105.543171 181.305792 
L 107.053192 182.346048 
L 108.563214 182.813155 
L 110.073235 180.942441 
L 111.583256 184.803758 
L 113.093277 180.103565 
L 114.603298 180.609998 
L 116.113319 180.136184 
L 117.62334 185.729987 
L 119.133362 187.614164 
L 120.643383 182.191987 
L 122.153404 184.182872 
L 123.663425 184.522472 
L 125.173446 183.241737 
L 126.683467 180.656705 
L 128.193488 180.34457 
L 129.70351 184.053692 
L 132.723552 182.023272 
L 134.233573 180.426469 
L 135.743594 180.060631 
L 137.253615 190.963282 
L 138.763636 180.849971 
L 140.273658 182.089633 
L 141.783679 182.469963 
L 143.2937 191.8164 
L 144.803721 195.24828 
L 146.313742 188.329491 
L 147.823763 185.433063 
L 149.333784 185.949999 
L 150.843805 199.233823 
L 152.353827 189.327496 
L 153.863848 198.541883 
L 155.373869 186.74549 
L 156.88389 189.843721 
L 159.903932 187.836312 
L 161.413953 183.866296 
L 162.923975 180.989749 
L 164.433996 185.209979 
L 165.944017 185.590745 
L 167.454038 183.167592 
L 168.964059 199.303941 
L 170.47408 184.855295 
L 171.984101 181.583135 
L 173.494123 185.148976 
L 175.004144 183.238822 
L 176.514165 191.275368 
L 178.024186 184.984094 
L 179.534207 186.295269 
L 181.044228 189.900512 
L 182.554249 183.707044 
L 184.064271 187.144375 
L 185.574292 187.718082 
L 187.084313 183.312804 
L 188.594334 185.301487 
L 190.104355 195.049843 
L 193.124397 186.854367 
L 194.634419 188.023968 
L 196.14444 194.630507 
L 197.654461 187.74666 
L 199.164482 186.810477 
L 200.674503 184.864012 
L 202.184524 190.976898 
L 203.694545 182.018386 
L 205.204567 185.094312 
L 206.714588 184.633937 
L 208.224609 180.044525 
L 209.73463 194.33289 
L 211.244651 187.898114 
L 212.754672 184.399835 
L 214.264693 182.111761 
L 215.774715 186.500431 
L 217.284736 185.733751 
L 218.794757 187.921967 
L 220.304778 181.892674 
L 221.814799 183.879115 
L 223.32482 191.270069 
L 224.834841 200.951181 
L 226.344863 190.872924 
L 227.854884 191.335084 
L 229.364905 198.705283 
L 230.874926 191.423535 
L 232.384947 208.201994 
L 233.894968 215.881297 
L 235.404989 246.079 
L 236.915011 232.989984 
L 238.425032 233.716645 
L 239.935053 292.677323 
L 241.445074 235.874151 
L 242.955095 259.141016 
L 244.465116 230.100344 
L 245.975137 216.44285 
L 247.485159 247.461429 
L 248.99518 236.205911 
L 250.505201 190.745578 
L 252.015222 275.973197 
L 253.525243 267.03346 
L 255.035264 278.665253 
L 256.545285 208.389849 
L 258.055307 249.341281 
L 259.565328 213.190121 
L 261.075349 226.428302 
L 262.58537 200.897004 
L 264.095391 222.717463 
L 265.605412 206.734682 
L 267.115433 212.477272 
L 268.625455 235.656574 
L 270.135476 212.953688 
L 271.645497 204.364726 
L 273.155518 215.859522 
L 274.665539 236.342048 
L 276.17556 216.196753 
L 277.685581 238.117538 
L 279.195603 217.94188 
L 280.705624 237.37855 
L 282.215645 212.763953 
L 283.725666 228.553191 
L 285.235687 214.909379 
L 286.745708 222.844437 
L 288.255729 214.08855 
L 289.765751 202.423154 
L 291.275772 196.270187 
L 292.785793 214.292634 
L 294.295814 255.22474 
L 295.805835 211.656001 
L 297.315856 276.880438 
L 298.825877 230.939173 
L 300.335899 213.185928 
L 301.84592 211.03656 
L 303.355941 195.337145 
L 304.865962 204.558644 
L 306.375983 199.869886 
L 307.886004 211.479694 
L 309.396025 217.102544 
L 310.906047 197.223495 
L 312.416068 210.369839 
L 313.926089 196.588147 
L 315.43611 215.697188 
L 316.946131 194.62497 
L 318.456152 207.731739 
L 319.966173 209.831016 
L 321.476195 192.76534 
L 322.986216 192.895277 
L 324.496237 197.4806 
L 326.006258 191.91564 
L 327.516279 214.582964 
L 329.0263 195.398595 
L 330.536321 190.690416 
L 332.046342 183.40957 
L 333.556364 191.574517 
L 335.066385 195.740886 
L 336.576406 215.046384 
L 338.086427 187.275593 
L 339.596448 191.530133 
L 341.106469 188.234077 
L 342.61649 188.264066 
L 344.126512 182.206394 
L 345.636533 188.775152 
L 347.146554 201.30522 
L 348.656575 189.56301 
L 350.166596 189.387241 
L 351.676617 211.526522 
L 353.186638 186.976533 
L 354.69666 204.718177 
L 356.206681 211.027473 
L 357.716702 196.137895 
L 359.226723 198.584496 
L 360.736744 198.184056 
L 362.246765 193.228922 
L 363.756786 191.045539 
L 365.266808 186.463814 
L 366.776829 196.745237 
L 368.28685 204.903767 
L 369.796871 200.244949 
L 371.306892 186.620575 
L 372.816913 196.924172 
L 374.326934 185.384456 
L 375.836956 187.44772 
L 377.346977 188.124821 
L 378.856998 185.101117 
L 380.367019 205.860479 
L 381.87704 187.873875 
L 383.387061 192.507455 
L 384.897082 195.651021 
L 386.407104 187.981804 
L 387.917125 199.492892 
L 389.427146 226.754514 
L 390.937167 191.973544 
L 392.447188 221.444259 
L 393.957209 206.238499 
L 395.46723 204.04388 
L 396.977252 206.373261 
L 398.487273 193.474954 
L 398.487273 193.474954 
" clip-path="url(#pc2d1f85585)" style="fill: none; stroke: #f08080; stroke-opacity: 0.8; stroke-width: 0.5; stroke-linecap: square"/>
   </g>
   <g id="patch_3">
    <path d="M 57.6 307.584 
L 57.6 41.472 
" style="fill: none; stroke: #000000; stroke-width: 0.8; stroke-linejoin: miter; stroke-linecap: square"/>
   </g>
   <g id="patch_4">
    <path d="M 414.72 307.584 
L 414.72 41.472 
" style="fill: none; stroke: #000000; stroke-width: 0.8; stroke-linejoin: miter; stroke-linecap: square"/>
   </g>
   <g id="patch_5">
    <path d="M 57.6 307.584 
L 414.72 307.584 
" style="fill: none; stroke: #000000; stroke-width: 0.8; stroke-linejoin: miter; stroke-linecap: square"/>
   </g>
   <g id="patch_6">
    <path d="M 57.6 41.472 
L 414.72 41.472 
" style="fill: none; stroke: #000000; stroke-width: 0.8; stroke-linejoin: miter; stroke-linecap: square"/>
   </g>
   <g id="text_14">
    <!-- 1final_zhangext_jc_btcusd -->
    <g transform="translate(157.523438 35.472) scale(0.12 -0.12)">
     <defs>
      <path id="DejaVuSans-66" d="M 2375 4863 
L 2375 4384 
L 1825 4384 
Q 1516 4384 1395 4259 
Q 1275 4134 1275 3809 
L 1275 3500 
L 2222 3500 
L 2222 3053 
L 1275 3053 
L 1275 0 
L 697 0 
L 697 3053 
L 147 3053 
L 147 3500 
L 697 3500 
L 697 3744 
Q 697 4328 969 4595 
Q 1241 4863 1831 4863 
L 2375 4863 
z
" transform="scale(0.015625)"/>
      <path id="DejaVuSans-69" d="M 603 3500 
L 1178 3500 
L 1178 0 
L 603 0 
L 603 3500 
z
M 603 4863 
L 1178 4863 
L 1178 4134 
L 603 4134 
L 603 4863 
z
" transform="scale(0.015625)"/>
      <path id="DejaVuSans-6e" d="M 3513 2113 
L 3513 0 
L 2938 0 
L 2938 2094 
Q 2938 2591 2744 2837 
Q 2550 3084 2163 3084 
Q 1697 3084 1428 2787 
Q 1159 2491 1159 1978 
L 1159 0 
L 581 0 
L 581 3500 
L 1159 3500 
L 1159 2956 
Q 1366 3272 1645 3428 
Q 1925 3584 2291 3584 
Q 2894 3584 3203 3211 
Q 3513 2838 3513 2113 
z
" transform="scale(0.015625)"/>
      <path id="DejaVuSans-61" d="M 2194 1759 
Q 1497 1759 1228 1600 
Q 959 1441 959 1056 
Q 959 750 1161 570 
Q 1363 391 1709 391 
Q 2188 391 2477 730 
Q 2766 1069 2766 1631 
L 2766 1759 
L 2194 1759 
z
M 3341 1997 
L 3341 0 
L 2766 0 
L 2766 531 
Q 2569 213 2275 61 
Q 1981 -91 1556 -91 
Q 1019 -91 701 211 
Q 384 513 384 1019 
Q 384 1609 779 1909 
Q 1175 2209 1959 2209 
L 2766 2209 
L 2766 2266 
Q 2766 2663 2505 2880 
Q 2244 3097 1772 3097 
Q 1472 3097 1187 3025 
Q 903 2953 641 2809 
L 641 3341 
Q 956 3463 1253 3523 
Q 1550 3584 1831 3584 
Q 2591 3584 2966 3190 
Q 3341 2797 3341 1997 
z
" transform="scale(0.015625)"/>
      <path id="DejaVuSans-6c" d="M 603 4863 
L 1178 4863 
L 1178 0 
L 603 0 
L 603 4863 
z
" transform="scale(0.015625)"/>
      <path id="DejaVuSans-5f" d="M 3263 -1063 
L 3263 -1509 
L -63 -1509 
L -63 -1063 
L 3263 -1063 
z
" transform="scale(0.015625)"/>
      <path id="DejaVuSans-7a" d="M 353 3500 
L 3084 3500 
L 3084 2975 
L 922 459 
L 3084 459 
L 3084 0 
L 275 0 
L 275 525 
L 2438 3041 
L 353 3041 
L 353 3500 
z
" transform="scale(0.015625)"/>
      <path id="DejaVuSans-68" d="M 3513 2113 
L 3513 0 
L 2938 0 
L 2938 2094 
Q 2938 2591 2744 2837 
Q 2550 3084 2163 3084 
Q 1697 3084 1428 2787 
Q 1159 2491 1159 1978 
L 1159 0 
L 581 0 
L 581 4863 
L 1159 4863 
L 1159 2956 
Q 1366 3272 1645 3428 
Q 1925 3584 2291 3584 
Q 2894 3584 3203 3211 
Q 3513 2838 3513 2113 
z
" transform="scale(0.015625)"/>
      <path id="DejaVuSans-67" d="M 2906 1791 
Q 2906 2416 2648 2759 
Q 2391 3103 1925 3103 
Q 1463 3103 1205 2759 
Q 947 2416 947 1791 
Q 947 1169 1205 825 
Q 1463 481 1925 481 
Q 2391 481 2648 825 
Q 2906 1169 2906 1791 
z
M 3481 434 
Q 3481 -459 3084 -895 
Q 2688 -1331 1869 -1331 
Q 1566 -1331 1297 -1286 
Q 1028 -1241 775 -1147 
L 775 -588 
Q 1028 -725 1275 -790 
Q 1522 -856 1778 -856 
Q 2344 -856 2625 -561 
Q 2906 -266 2906 331 
L 2906 616 
Q 2728 306 2450 153 
Q 2172 0 1784 0 
Q 1141 0 747 490 
Q 353 981 353 1791 
Q 353 2603 747 3093 
Q 1141 3584 1784 3584 
Q 2172 3584 2450 3431 
Q 2728 3278 2906 2969 
L 2906 3500 
L 3481 3500 
L 3481 434 
z
" transform="scale(0.015625)"/>
      <path id="DejaVuSans-65" d="M 3597 1894 
L 3597 1613 
L 953 1613 
Q 991 1019 1311 708 
Q 1631 397 2203 397 
Q 2534 397 2845 478 
Q 3156 559 3463 722 
L 3463 178 
Q 3153 47 2828 -22 
Q 2503 -91 2169 -91 
Q 1331 -91 842 396 
Q 353 884 353 1716 
Q 353 2575 817 3079 
Q 1281 3584 2069 3584 
Q 2775 3584 3186 3129 
Q 3597 2675 3597 1894 
z
M 3022 2063 
Q 3016 2534 2758 2815 
Q 2500 3097 2075 3097 
Q 1594 3097 1305 2825 
Q 1016 2553 972 2059 
L 3022 2063 
z
" transform="scale(0.015625)"/>
      <path id="DejaVuSans-78" d="M 3513 3500 
L 2247 1797 
L 3578 0 
L 2900 0 
L 1881 1375 
L 863 0 
L 184 0 
L 1544 1831 
L 300 3500 
L 978 3500 
L 1906 2253 
L 2834 3500 
L 3513 3500 
z
" transform="scale(0.015625)"/>
      <path id="DejaVuSans-74" d="M 1172 4494 
L 1172 3500 
L 2356 3500 
L 2356 3053 
L 1172 3053 
L 1172 1153 
Q 1172 725 1289 603 
Q 1406 481 1766 481 
L 2356 481 
L 2356 0 
L 1766 0 
Q 1100 0 847 248 
Q 594 497 594 1153 
L 594 3053 
L 172 3053 
L 172 3500 
L 594 3500 
L 594 4494 
L 1172 4494 
z
" transform="scale(0.015625)"/>
      <path id="DejaVuSans-6a" d="M 603 3500 
L 1178 3500 
L 1178 -63 
Q 1178 -731 923 -1031 
Q 669 -1331 103 -1331 
L -116 -1331 
L -116 -844 
L 38 -844 
Q 366 -844 484 -692 
Q 603 -541 603 -63 
L 603 3500 
z
M 603 4863 
L 1178 4863 
L 1178 4134 
L 603 4134 
L 603 4863 
z
" transform="scale(0.015625)"/>
      <path id="DejaVuSans-63" d="M 3122 3366 
L 3122 2828 
Q 2878 2963 2633 3030 
Q 2388 3097 2138 3097 
Q 1578 3097 1268 2742 
Q 959 2388 959 1747 
Q 959 1106 1268 751 
Q 1578 397 2138 397 
Q 2388 397 2633 464 
Q 2878 531 3122 666 
L 3122 134 
Q 2881 22 2623 -34 
Q 2366 -91 2075 -91 
Q 1284 -91 818 406 
Q 353 903 353 1747 
Q 353 2603 823 3093 
Q 1294 3584 2113 3584 
Q 2378 3584 2631 3529 
Q 2884 3475 3122 3366 
z
" transform="scale(0.015625)"/>
      <path id="DejaVuSans-62" d="M 3116 1747 
Q 3116 2381 2855 2742 
Q 2594 3103 2138 3103 
Q 1681 3103 1420 2742 
Q 1159 2381 1159 1747 
Q 1159 1113 1420 752 
Q 1681 391 2138 391 
Q 2594 391 2855 752 
Q 3116 1113 3116 1747 
z
M 1159 2969 
Q 1341 3281 1617 3432 
Q 1894 3584 2278 3584 
Q 2916 3584 3314 3078 
Q 3713 2572 3713 1747 
Q 3713 922 3314 415 
Q 2916 -91 2278 -91 
Q 1894 -91 1617 61 
Q 1341 213 1159 525 
L 1159 0 
L 581 0 
L 581 4863 
L 1159 4863 
L 1159 2969 
z
" transform="scale(0.015625)"/>
      <path id="DejaVuSans-75" d="M 544 1381 
L 544 3500 
L 1119 3500 
L 1119 1403 
Q 1119 906 1312 657 
Q 1506 409 1894 409 
Q 2359 409 2629 706 
Q 2900 1003 2900 1516 
L 2900 3500 
L 3475 3500 
L 3475 0 
L 2900 0 
L 2900 538 
Q 2691 219 2414 64 
Q 2138 -91 1772 -91 
Q 1169 -91 856 284 
Q 544 659 544 1381 
z
M 1991 3584 
L 1991 3584 
z
" transform="scale(0.015625)"/>
      <path id="DejaVuSans-73" d="M 2834 3397 
L 2834 2853 
Q 2591 2978 2328 3040 
Q 2066 3103 1784 3103 
Q 1356 3103 1142 2972 
Q 928 2841 928 2578 
Q 928 2378 1081 2264 
Q 1234 2150 1697 2047 
L 1894 2003 
Q 2506 1872 2764 1633 
Q 3022 1394 3022 966 
Q 3022 478 2636 193 
Q 2250 -91 1575 -91 
Q 1294 -91 989 -36 
Q 684 19 347 128 
L 347 722 
Q 666 556 975 473 
Q 1284 391 1588 391 
Q 1994 391 2212 530 
Q 2431 669 2431 922 
Q 2431 1156 2273 1281 
Q 2116 1406 1581 1522 
L 1381 1569 
Q 847 1681 609 1914 
Q 372 2147 372 2553 
Q 372 3047 722 3315 
Q 1072 3584 1716 3584 
Q 2034 3584 2315 3537 
Q 2597 3491 2834 3397 
z
" transform="scale(0.015625)"/>
      <path id="DejaVuSans-64" d="M 2906 2969 
L 2906 4863 
L 3481 4863 
L 3481 0 
L 2906 0 
L 2906 525 
Q 2725 213 2448 61 
Q 2172 -91 1784 -91 
Q 1150 -91 751 415 
Q 353 922 353 1747 
Q 353 2572 751 3078 
Q 1150 3584 1784 3584 
Q 2172 3584 2448 3432 
Q 2725 3281 2906 2969 
z
M 947 1747 
Q 947 1113 1208 752 
Q 1469 391 1925 391 
Q 2381 391 2643 752 
Q 2906 1113 2906 1747 
Q 2906 2381 2643 2742 
Q 2381 3103 1925 3103 
Q 1469 3103 1208 2742 
Q 947 2381 947 1747 
z
" transform="scale(0.015625)"/>
     </defs>
     <use xlink:href="#DejaVuSans-31"/>
     <use xlink:href="#DejaVuSans-66" x="63.623047"/>
     <use xlink:href="#DejaVuSans-69" x="98.828125"/>
     <use xlink:href="#DejaVuSans-6e" x="126.611328"/>
     <use xlink:href="#DejaVuSans-61" x="189.990234"/>
     <use xlink:href="#DejaVuSans-6c" x="251.269531"/>
     <use xlink:href="#DejaVuSans-5f" x="279.052734"/>
     <use xlink:href="#DejaVuSans-7a" x="329.052734"/>
     <use xlink:href="#DejaVuSans-68" x="381.542969"/>
     <use xlink:href="#DejaVuSans-61" x="444.921875"/>
     <use xlink:href="#DejaVuSans-6e" x="506.201172"/>
     <use xlink:href="#DejaVuSans-67" x="569.580078"/>
     <use xlink:href="#DejaVuSans-65" x="633.056641"/>
     <use xlink:href="#DejaVuSans-78" x="692.830078"/>
     <use xlink:href="#DejaVuSans-74" x="752.009766"/>
     <use xlink:href="#DejaVuSans-5f" x="791.21875"/>
     <use xlink:href="#DejaVuSans-6a" x="841.21875"/>
     <use xlink:href="#DejaVuSans-63" x="869.001953"/>
     <use xlink:href="#DejaVuSans-5f" x="923.982422"/>
     <use xlink:href="#DejaVuSans-62" x="973.982422"/>
     <use xlink:href="#DejaVuSans-74" x="1037.458984"/>
     <use xlink:href="#DejaVuSans-63" x="1076.667969"/>
     <use xlink:href="#DejaVuSans-75" x="1131.648438"/>
     <use xlink:href="#DejaVuSans-73" x="1195.027344"/>
     <use xlink:href="#DejaVuSans-64" x="1247.126953"/>
    </g>
   </g>
   <g id="legend_1">
    <g id="patch_7">
     <path d="M 64.6 302.584 
L 225.001563 302.584 
Q 227.001563 302.584 227.001563 300.584 
L 227.001563 213.51525 
Q 227.001563 211.51525 225.001563 211.51525 
L 64.6 211.51525 
Q 62.6 211.51525 62.6 213.51525 
L 62.6 300.584 
Q 62.6 302.584 64.6 302.584 
z
" style="fill: #ffffff; opacity: 0.8; stroke: #cccccc; stroke-linejoin: miter"/>
    </g>
    <g id="line2d_20">
     <path d="M 66.6 219.613687 
L 76.6 219.613687 
L 86.6 219.613687 
" style="fill: none; stroke: #008000; stroke-opacity: 0.8; stroke-width: 0.5; stroke-linecap: square"/>
    </g>
    <g id="text_15">
     <!-- Positive predictions -->
     <g transform="translate(94.6 223.113687) scale(0.1 -0.1)">
      <defs>
       <path id="DejaVuSans-50" d="M 1259 4147 
L 1259 2394 
L 2053 2394 
Q 2494 2394 2734 2622 
Q 2975 2850 2975 3272 
Q 2975 3691 2734 3919 
Q 2494 4147 2053 4147 
L 1259 4147 
z
M 628 4666 
L 2053 4666 
Q 2838 4666 3239 4311 
Q 3641 3956 3641 3272 
Q 3641 2581 3239 2228 
Q 2838 1875 2053 1875 
L 1259 1875 
L 1259 0 
L 628 0 
L 628 4666 
z
" transform="scale(0.015625)"/>
       <path id="DejaVuSans-6f" d="M 1959 3097 
Q 1497 3097 1228 2736 
Q 959 2375 959 1747 
Q 959 1119 1226 758 
Q 1494 397 1959 397 
Q 2419 397 2687 759 
Q 2956 1122 2956 1747 
Q 2956 2369 2687 2733 
Q 2419 3097 1959 3097 
z
M 1959 3584 
Q 2709 3584 3137 3096 
Q 3566 2609 3566 1747 
Q 3566 888 3137 398 
Q 2709 -91 1959 -91 
Q 1206 -91 779 398 
Q 353 888 353 1747 
Q 353 2609 779 3096 
Q 1206 3584 1959 3584 
z
" transform="scale(0.015625)"/>
       <path id="DejaVuSans-76" d="M 191 3500 
L 800 3500 
L 1894 563 
L 2988 3500 
L 3597 3500 
L 2284 0 
L 1503 0 
L 191 3500 
z
" transform="scale(0.015625)"/>
       <path id="DejaVuSans-20" transform="scale(0.015625)"/>
       <path id="DejaVuSans-70" d="M 1159 525 
L 1159 -1331 
L 581 -1331 
L 581 3500 
L 1159 3500 
L 1159 2969 
Q 1341 3281 1617 3432 
Q 1894 3584 2278 3584 
Q 2916 3584 3314 3078 
Q 3713 2572 3713 1747 
Q 3713 922 3314 415 
Q 2916 -91 2278 -91 
Q 1894 -91 1617 61 
Q 1341 213 1159 525 
z
M 3116 1747 
Q 3116 2381 2855 2742 
Q 2594 3103 2138 3103 
Q 1681 3103 1420 2742 
Q 1159 2381 1159 1747 
Q 1159 1113 1420 752 
Q 1681 391 2138 391 
Q 2594 391 2855 752 
Q 3116 1113 3116 1747 
z
" transform="scale(0.015625)"/>
       <path id="DejaVuSans-72" d="M 2631 2963 
Q 2534 3019 2420 3045 
Q 2306 3072 2169 3072 
Q 1681 3072 1420 2755 
Q 1159 2438 1159 1844 
L 1159 0 
L 581 0 
L 581 3500 
L 1159 3500 
L 1159 2956 
Q 1341 3275 1631 3429 
Q 1922 3584 2338 3584 
Q 2397 3584 2469 3576 
Q 2541 3569 2628 3553 
L 2631 2963 
z
" transform="scale(0.015625)"/>
      </defs>
      <use xlink:href="#DejaVuSans-50"/>
      <use xlink:href="#DejaVuSans-6f" x="56.677734"/>
      <use xlink:href="#DejaVuSans-73" x="117.859375"/>
      <use xlink:href="#DejaVuSans-69" x="169.958984"/>
      <use xlink:href="#DejaVuSans-74" x="197.742188"/>
      <use xlink:href="#DejaVuSans-69" x="236.951172"/>
      <use xlink:href="#DejaVuSans-76" x="264.734375"/>
      <use xlink:href="#DejaVuSans-65" x="323.914062"/>
      <use xlink:href="#DejaVuSans-20" x="385.4375"/>
      <use xlink:href="#DejaVuSans-70" x="417.224609"/>
      <use xlink:href="#DejaVuSans-72" x="480.701172"/>
      <use xlink:href="#DejaVuSans-65" x="519.564453"/>
      <use xlink:href="#DejaVuSans-64" x="581.087891"/>
      <use xlink:href="#DejaVuSans-69" x="644.564453"/>
      <use xlink:href="#DejaVuSans-63" x="672.347656"/>
      <use xlink:href="#DejaVuSans-74" x="727.328125"/>
      <use xlink:href="#DejaVuSans-69" x="766.537109"/>
      <use xlink:href="#DejaVuSans-6f" x="794.320312"/>
      <use xlink:href="#DejaVuSans-6e" x="855.501953"/>
      <use xlink:href="#DejaVuSans-73" x="918.880859"/>
     </g>
    </g>
    <g id="line2d_21">
     <path d="M 66.6 234.291812 
L 76.6 234.291812 
L 86.6 234.291812 
" style="fill: none; stroke: #32cd32; stroke-opacity: 0.8; stroke-width: 0.5; stroke-linecap: square"/>
    </g>
    <g id="text_16">
     <!-- Positive predictions max -->
     <g transform="translate(94.6 237.791812) scale(0.1 -0.1)">
      <defs>
       <path id="DejaVuSans-6d" d="M 3328 2828 
Q 3544 3216 3844 3400 
Q 4144 3584 4550 3584 
Q 5097 3584 5394 3201 
Q 5691 2819 5691 2113 
L 5691 0 
L 5113 0 
L 5113 2094 
Q 5113 2597 4934 2840 
Q 4756 3084 4391 3084 
Q 3944 3084 3684 2787 
Q 3425 2491 3425 1978 
L 3425 0 
L 2847 0 
L 2847 2094 
Q 2847 2600 2669 2842 
Q 2491 3084 2119 3084 
Q 1678 3084 1418 2786 
Q 1159 2488 1159 1978 
L 1159 0 
L 581 0 
L 581 3500 
L 1159 3500 
L 1159 2956 
Q 1356 3278 1631 3431 
Q 1906 3584 2284 3584 
Q 2666 3584 2933 3390 
Q 3200 3197 3328 2828 
z
" transform="scale(0.015625)"/>
      </defs>
      <use xlink:href="#DejaVuSans-50"/>
      <use xlink:href="#DejaVuSans-6f" x="56.677734"/>
      <use xlink:href="#DejaVuSans-73" x="117.859375"/>
      <use xlink:href="#DejaVuSans-69" x="169.958984"/>
      <use xlink:href="#DejaVuSans-74" x="197.742188"/>
      <use xlink:href="#DejaVuSans-69" x="236.951172"/>
      <use xlink:href="#DejaVuSans-76" x="264.734375"/>
      <use xlink:href="#DejaVuSans-65" x="323.914062"/>
      <use xlink:href="#DejaVuSans-20" x="385.4375"/>
      <use xlink:href="#DejaVuSans-70" x="417.224609"/>
      <use xlink:href="#DejaVuSans-72" x="480.701172"/>
      <use xlink:href="#DejaVuSans-65" x="519.564453"/>
      <use xlink:href="#DejaVuSans-64" x="581.087891"/>
      <use xlink:href="#DejaVuSans-69" x="644.564453"/>
      <use xlink:href="#DejaVuSans-63" x="672.347656"/>
      <use xlink:href="#DejaVuSans-74" x="727.328125"/>
      <use xlink:href="#DejaVuSans-69" x="766.537109"/>
      <use xlink:href="#DejaVuSans-6f" x="794.320312"/>
      <use xlink:href="#DejaVuSans-6e" x="855.501953"/>
      <use xlink:href="#DejaVuSans-73" x="918.880859"/>
      <use xlink:href="#DejaVuSans-20" x="970.980469"/>
      <use xlink:href="#DejaVuSans-6d" x="1002.767578"/>
      <use xlink:href="#DejaVuSans-61" x="1100.179688"/>
      <use xlink:href="#DejaVuSans-78" x="1161.458984"/>
     </g>
    </g>
    <g id="line2d_22">
     <path d="M 66.6 248.969937 
L 76.6 248.969937 
L 86.6 248.969937 
" style="fill: none; stroke: #32cd32; stroke-opacity: 0.8; stroke-width: 0.5; stroke-linecap: square"/>
    </g>
    <g id="text_17">
     <!-- Positive predictions min -->
     <g transform="translate(94.6 252.469937) scale(0.1 -0.1)">
      <use xlink:href="#DejaVuSans-50"/>
      <use xlink:href="#DejaVuSans-6f" x="56.677734"/>
      <use xlink:href="#DejaVuSans-73" x="117.859375"/>
      <use xlink:href="#DejaVuSans-69" x="169.958984"/>
      <use xlink:href="#DejaVuSans-74" x="197.742188"/>
      <use xlink:href="#DejaVuSans-69" x="236.951172"/>
      <use xlink:href="#DejaVuSans-76" x="264.734375"/>
      <use xlink:href="#DejaVuSans-65" x="323.914062"/>
      <use xlink:href="#DejaVuSans-20" x="385.4375"/>
      <use xlink:href="#DejaVuSans-70" x="417.224609"/>
      <use xlink:href="#DejaVuSans-72" x="480.701172"/>
      <use xlink:href="#DejaVuSans-65" x="519.564453"/>
      <use xlink:href="#DejaVuSans-64" x="581.087891"/>
      <use xlink:href="#DejaVuSans-69" x="644.564453"/>
      <use xlink:href="#DejaVuSans-63" x="672.347656"/>
      <use xlink:href="#DejaVuSans-74" x="727.328125"/>
      <use xlink:href="#DejaVuSans-69" x="766.537109"/>
      <use xlink:href="#DejaVuSans-6f" x="794.320312"/>
      <use xlink:href="#DejaVuSans-6e" x="855.501953"/>
      <use xlink:href="#DejaVuSans-73" x="918.880859"/>
      <use xlink:href="#DejaVuSans-20" x="970.980469"/>
      <use xlink:href="#DejaVuSans-6d" x="1002.767578"/>
      <use xlink:href="#DejaVuSans-69" x="1100.179688"/>
      <use xlink:href="#DejaVuSans-6e" x="1127.962891"/>
     </g>
    </g>
    <g id="line2d_23">
     <path d="M 66.6 263.648062 
L 76.6 263.648062 
L 86.6 263.648062 
" style="fill: none; stroke: #ff0000; stroke-opacity: 0.8; stroke-width: 0.5; stroke-linecap: square"/>
    </g>
    <g id="text_18">
     <!-- Negative predictions -->
     <g transform="translate(94.6 267.148062) scale(0.1 -0.1)">
      <defs>
       <path id="DejaVuSans-4e" d="M 628 4666 
L 1478 4666 
L 3547 763 
L 3547 4666 
L 4159 4666 
L 4159 0 
L 3309 0 
L 1241 3903 
L 1241 0 
L 628 0 
L 628 4666 
z
" transform="scale(0.015625)"/>
      </defs>
      <use xlink:href="#DejaVuSans-4e"/>
      <use xlink:href="#DejaVuSans-65" x="74.804688"/>
      <use xlink:href="#DejaVuSans-67" x="136.328125"/>
      <use xlink:href="#DejaVuSans-61" x="199.804688"/>
      <use xlink:href="#DejaVuSans-74" x="261.083984"/>
      <use xlink:href="#DejaVuSans-69" x="300.292969"/>
      <use xlink:href="#DejaVuSans-76" x="328.076172"/>
      <use xlink:href="#DejaVuSans-65" x="387.255859"/>
      <use xlink:href="#DejaVuSans-20" x="448.779297"/>
      <use xlink:href="#DejaVuSans-70" x="480.566406"/>
      <use xlink:href="#DejaVuSans-72" x="544.042969"/>
      <use xlink:href="#DejaVuSans-65" x="582.90625"/>
      <use xlink:href="#DejaVuSans-64" x="644.429688"/>
      <use xlink:href="#DejaVuSans-69" x="707.90625"/>
      <use xlink:href="#DejaVuSans-63" x="735.689453"/>
      <use xlink:href="#DejaVuSans-74" x="790.669922"/>
      <use xlink:href="#DejaVuSans-69" x="829.878906"/>
      <use xlink:href="#DejaVuSans-6f" x="857.662109"/>
      <use xlink:href="#DejaVuSans-6e" x="918.84375"/>
      <use xlink:href="#DejaVuSans-73" x="982.222656"/>
     </g>
    </g>
    <g id="line2d_24">
     <path d="M 66.6 278.326188 
L 76.6 278.326188 
L 86.6 278.326188 
" style="fill: none; stroke: #f08080; stroke-opacity: 0.8; stroke-width: 0.5; stroke-linecap: square"/>
    </g>
    <g id="text_19">
     <!-- Negative predictions max -->
     <g transform="translate(94.6 281.826188) scale(0.1 -0.1)">
      <use xlink:href="#DejaVuSans-4e"/>
      <use xlink:href="#DejaVuSans-65" x="74.804688"/>
      <use xlink:href="#DejaVuSans-67" x="136.328125"/>
      <use xlink:href="#DejaVuSans-61" x="199.804688"/>
      <use xlink:href="#DejaVuSans-74" x="261.083984"/>
      <use xlink:href="#DejaVuSans-69" x="300.292969"/>
      <use xlink:href="#DejaVuSans-76" x="328.076172"/>
      <use xlink:href="#DejaVuSans-65" x="387.255859"/>
      <use xlink:href="#DejaVuSans-20" x="448.779297"/>
      <use xlink:href="#DejaVuSans-70" x="480.566406"/>
      <use xlink:href="#DejaVuSans-72" x="544.042969"/>
      <use xlink:href="#DejaVuSans-65" x="582.90625"/>
      <use xlink:href="#DejaVuSans-64" x="644.429688"/>
      <use xlink:href="#DejaVuSans-69" x="707.90625"/>
      <use xlink:href="#DejaVuSans-63" x="735.689453"/>
      <use xlink:href="#DejaVuSans-74" x="790.669922"/>
      <use xlink:href="#DejaVuSans-69" x="829.878906"/>
      <use xlink:href="#DejaVuSans-6f" x="857.662109"/>
      <use xlink:href="#DejaVuSans-6e" x="918.84375"/>
      <use xlink:href="#DejaVuSans-73" x="982.222656"/>
      <use xlink:href="#DejaVuSans-20" x="1034.322266"/>
      <use xlink:href="#DejaVuSans-6d" x="1066.109375"/>
      <use xlink:href="#DejaVuSans-61" x="1163.521484"/>
      <use xlink:href="#DejaVuSans-78" x="1224.800781"/>
     </g>
    </g>
    <g id="line2d_25">
     <path d="M 66.6 293.004312 
L 76.6 293.004312 
L 86.6 293.004312 
" style="fill: none; stroke: #f08080; stroke-opacity: 0.8; stroke-width: 0.5; stroke-linecap: square"/>
    </g>
    <g id="text_20">
     <!-- Negative predictions min -->
     <g transform="translate(94.6 296.504312) scale(0.1 -0.1)">
      <use xlink:href="#DejaVuSans-4e"/>
      <use xlink:href="#DejaVuSans-65" x="74.804688"/>
      <use xlink:href="#DejaVuSans-67" x="136.328125"/>
      <use xlink:href="#DejaVuSans-61" x="199.804688"/>
      <use xlink:href="#DejaVuSans-74" x="261.083984"/>
      <use xlink:href="#DejaVuSans-69" x="300.292969"/>
      <use xlink:href="#DejaVuSans-76" x="328.076172"/>
      <use xlink:href="#DejaVuSans-65" x="387.255859"/>
      <use xlink:href="#DejaVuSans-20" x="448.779297"/>
      <use xlink:href="#DejaVuSans-70" x="480.566406"/>
      <use xlink:href="#DejaVuSans-72" x="544.042969"/>
      <use xlink:href="#DejaVuSans-65" x="582.90625"/>
      <use xlink:href="#DejaVuSans-64" x="644.429688"/>
      <use xlink:href="#DejaVuSans-69" x="707.90625"/>
      <use xlink:href="#DejaVuSans-63" x="735.689453"/>
      <use xlink:href="#DejaVuSans-74" x="790.669922"/>
      <use xlink:href="#DejaVuSans-69" x="829.878906"/>
      <use xlink:href="#DejaVuSans-6f" x="857.662109"/>
      <use xlink:href="#DejaVuSans-6e" x="918.84375"/>
      <use xlink:href="#DejaVuSans-73" x="982.222656"/>
      <use xlink:href="#DejaVuSans-20" x="1034.322266"/>
      <use xlink:href="#DejaVuSans-6d" x="1066.109375"/>
      <use xlink:href="#DejaVuSans-69" x="1163.521484"/>
      <use xlink:href="#DejaVuSans-6e" x="1191.304688"/>
     </g>
    </g>
   </g>
  </g>
 </g>
 <defs>
  <clipPath id="pc2d1f85585">
   <rect x="57.6" y="41.472" width="357.12" height="266.112"/>
  </clipPath>
 </defs>
</svg>
