<?xml version="1.0" encoding="utf-8" standalone="no"?>
<!DOCTYPE svg PUBLIC "-//W3C//DTD SVG 1.1//EN"
  "http://www.w3.org/Graphics/SVG/1.1/DTD/svg11.dtd">
<svg xmlns:xlink="http://www.w3.org/1999/xlink" width="460.8pt" height="345.6pt" viewBox="0 0 460.8 345.6" xmlns="http://www.w3.org/2000/svg" version="1.1">
 <metadata>
  <rdf:RDF xmlns:dc="http://purl.org/dc/elements/1.1/" xmlns:cc="http://creativecommons.org/ns#" xmlns:rdf="http://www.w3.org/1999/02/22-rdf-syntax-ns#">
   <cc:Work>
    <dc:type rdf:resource="http://purl.org/dc/dcmitype/StillImage"/>
    <dc:date>2024-09-06T07:10:49.558725</dc:date>
    <dc:format>image/svg+xml</dc:format>
    <dc:creator>
     <cc:Agent>
      <dc:title>Matplotlib v3.9.0, https://matplotlib.org/</dc:title>
     </cc:Agent>
    </dc:creator>
   </cc:Work>
  </rdf:RDF>
 </metadata>
 <defs>
  <style type="text/css">*{stroke-linejoin: round; stroke-linecap: butt}</style>
 </defs>
 <g id="figure_1">
  <g id="patch_1">
   <path d="M 0 345.6 
L 460.8 345.6 
L 460.8 0 
L 0 0 
z
" style="fill: #ffffff"/>
  </g>
  <g id="axes_1">
   <g id="patch_2">
    <path d="M 57.6 307.584 
L 414.72 307.584 
L 414.72 41.472 
L 57.6 41.472 
z
" style="fill: #ffffff"/>
   </g>
   <g id="matplotlib.axis_1">
    <g id="xtick_1">
     <g id="line2d_1">
      <defs>
       <path id="me297de6393" d="M 0 0 
L 0 3.5 
" style="stroke: #000000; stroke-width: 0.8"/>
      </defs>
      <g>
       <use xlink:href="#me297de6393" x="73.832727" y="307.584" style="stroke: #000000; stroke-width: 0.8"/>
      </g>
     </g>
     <g id="text_1">
      <!-- 0 -->
      <g transform="translate(70.651477 322.182437) scale(0.1 -0.1)">
       <defs>
        <path id="DejaVuSans-30" d="M 2034 4250 
Q 1547 4250 1301 3770 
Q 1056 3291 1056 2328 
Q 1056 1369 1301 889 
Q 1547 409 2034 409 
Q 2525 409 2770 889 
Q 3016 1369 3016 2328 
Q 3016 3291 2770 3770 
Q 2525 4250 2034 4250 
z
M 2034 4750 
Q 2819 4750 3233 4129 
Q 3647 3509 3647 2328 
Q 3647 1150 3233 529 
Q 2819 -91 2034 -91 
Q 1250 -91 836 529 
Q 422 1150 422 2328 
Q 422 3509 836 4129 
Q 1250 4750 2034 4750 
z
" transform="scale(0.015625)"/>
       </defs>
       <use xlink:href="#DejaVuSans-30"/>
      </g>
     </g>
    </g>
    <g id="xtick_2">
     <g id="line2d_2">
      <g>
       <use xlink:href="#me297de6393" x="149.333784" y="307.584" style="stroke: #000000; stroke-width: 0.8"/>
      </g>
     </g>
     <g id="text_2">
      <!-- 50 -->
      <g transform="translate(142.971284 322.182437) scale(0.1 -0.1)">
       <defs>
        <path id="DejaVuSans-35" d="M 691 4666 
L 3169 4666 
L 3169 4134 
L 1269 4134 
L 1269 2991 
Q 1406 3038 1543 3061 
Q 1681 3084 1819 3084 
Q 2600 3084 3056 2656 
Q 3513 2228 3513 1497 
Q 3513 744 3044 326 
Q 2575 -91 1722 -91 
Q 1428 -91 1123 -41 
Q 819 9 494 109 
L 494 744 
Q 775 591 1075 516 
Q 1375 441 1709 441 
Q 2250 441 2565 725 
Q 2881 1009 2881 1497 
Q 2881 1984 2565 2268 
Q 2250 2553 1709 2553 
Q 1456 2553 1204 2497 
Q 953 2441 691 2322 
L 691 4666 
z
" transform="scale(0.015625)"/>
       </defs>
       <use xlink:href="#DejaVuSans-35"/>
       <use xlink:href="#DejaVuSans-30" x="63.623047"/>
      </g>
     </g>
    </g>
    <g id="xtick_3">
     <g id="line2d_3">
      <g>
       <use xlink:href="#me297de6393" x="224.834841" y="307.584" style="stroke: #000000; stroke-width: 0.8"/>
      </g>
     </g>
     <g id="text_3">
      <!-- 100 -->
      <g transform="translate(215.291091 322.182437) scale(0.1 -0.1)">
       <defs>
        <path id="DejaVuSans-31" d="M 794 531 
L 1825 531 
L 1825 4091 
L 703 3866 
L 703 4441 
L 1819 4666 
L 2450 4666 
L 2450 531 
L 3481 531 
L 3481 0 
L 794 0 
L 794 531 
z
" transform="scale(0.015625)"/>
       </defs>
       <use xlink:href="#DejaVuSans-31"/>
       <use xlink:href="#DejaVuSans-30" x="63.623047"/>
       <use xlink:href="#DejaVuSans-30" x="127.246094"/>
      </g>
     </g>
    </g>
    <g id="xtick_4">
     <g id="line2d_4">
      <g>
       <use xlink:href="#me297de6393" x="300.335899" y="307.584" style="stroke: #000000; stroke-width: 0.8"/>
      </g>
     </g>
     <g id="text_4">
      <!-- 150 -->
      <g transform="translate(290.792149 322.182437) scale(0.1 -0.1)">
       <use xlink:href="#DejaVuSans-31"/>
       <use xlink:href="#DejaVuSans-35" x="63.623047"/>
       <use xlink:href="#DejaVuSans-30" x="127.246094"/>
      </g>
     </g>
    </g>
    <g id="xtick_5">
     <g id="line2d_5">
      <g>
       <use xlink:href="#me297de6393" x="375.836956" y="307.584" style="stroke: #000000; stroke-width: 0.8"/>
      </g>
     </g>
     <g id="text_5">
      <!-- 200 -->
      <g transform="translate(366.293206 322.182437) scale(0.1 -0.1)">
       <defs>
        <path id="DejaVuSans-32" d="M 1228 531 
L 3431 531 
L 3431 0 
L 469 0 
L 469 531 
Q 828 903 1448 1529 
Q 2069 2156 2228 2338 
Q 2531 2678 2651 2914 
Q 2772 3150 2772 3378 
Q 2772 3750 2511 3984 
Q 2250 4219 1831 4219 
Q 1534 4219 1204 4116 
Q 875 4013 500 3803 
L 500 4441 
Q 881 4594 1212 4672 
Q 1544 4750 1819 4750 
Q 2544 4750 2975 4387 
Q 3406 4025 3406 3419 
Q 3406 3131 3298 2873 
Q 3191 2616 2906 2266 
Q 2828 2175 2409 1742 
Q 1991 1309 1228 531 
z
" transform="scale(0.015625)"/>
       </defs>
       <use xlink:href="#DejaVuSans-32"/>
       <use xlink:href="#DejaVuSans-30" x="63.623047"/>
       <use xlink:href="#DejaVuSans-30" x="127.246094"/>
      </g>
     </g>
    </g>
   </g>
   <g id="matplotlib.axis_2">
    <g id="ytick_1">
     <g id="line2d_6">
      <defs>
       <path id="mf3635fc603" d="M 0 0 
L -3.5 0 
" style="stroke: #000000; stroke-width: 0.8"/>
      </defs>
      <g>
       <use xlink:href="#mf3635fc603" x="57.6" y="294.497014" style="stroke: #000000; stroke-width: 0.8"/>
      </g>
     </g>
     <g id="text_6">
      <!-- 5000 -->
      <g transform="translate(25.15 298.296233) scale(0.1 -0.1)">
       <use xlink:href="#DejaVuSans-35"/>
       <use xlink:href="#DejaVuSans-30" x="63.623047"/>
       <use xlink:href="#DejaVuSans-30" x="127.246094"/>
       <use xlink:href="#DejaVuSans-30" x="190.869141"/>
      </g>
     </g>
    </g>
    <g id="ytick_2">
     <g id="line2d_7">
      <g>
       <use xlink:href="#mf3635fc603" x="57.6" y="262.837485" style="stroke: #000000; stroke-width: 0.8"/>
      </g>
     </g>
     <g id="text_7">
      <!-- 5500 -->
      <g transform="translate(25.15 266.636704) scale(0.1 -0.1)">
       <use xlink:href="#DejaVuSans-35"/>
       <use xlink:href="#DejaVuSans-35" x="63.623047"/>
       <use xlink:href="#DejaVuSans-30" x="127.246094"/>
       <use xlink:href="#DejaVuSans-30" x="190.869141"/>
      </g>
     </g>
    </g>
    <g id="ytick_3">
     <g id="line2d_8">
      <g>
       <use xlink:href="#mf3635fc603" x="57.6" y="231.177956" style="stroke: #000000; stroke-width: 0.8"/>
      </g>
     </g>
     <g id="text_8">
      <!-- 6000 -->
      <g transform="translate(25.15 234.977175) scale(0.1 -0.1)">
       <defs>
        <path id="DejaVuSans-36" d="M 2113 2584 
Q 1688 2584 1439 2293 
Q 1191 2003 1191 1497 
Q 1191 994 1439 701 
Q 1688 409 2113 409 
Q 2538 409 2786 701 
Q 3034 994 3034 1497 
Q 3034 2003 2786 2293 
Q 2538 2584 2113 2584 
z
M 3366 4563 
L 3366 3988 
Q 3128 4100 2886 4159 
Q 2644 4219 2406 4219 
Q 1781 4219 1451 3797 
Q 1122 3375 1075 2522 
Q 1259 2794 1537 2939 
Q 1816 3084 2150 3084 
Q 2853 3084 3261 2657 
Q 3669 2231 3669 1497 
Q 3669 778 3244 343 
Q 2819 -91 2113 -91 
Q 1303 -91 875 529 
Q 447 1150 447 2328 
Q 447 3434 972 4092 
Q 1497 4750 2381 4750 
Q 2619 4750 2861 4703 
Q 3103 4656 3366 4563 
z
" transform="scale(0.015625)"/>
       </defs>
       <use xlink:href="#DejaVuSans-36"/>
       <use xlink:href="#DejaVuSans-30" x="63.623047"/>
       <use xlink:href="#DejaVuSans-30" x="127.246094"/>
       <use xlink:href="#DejaVuSans-30" x="190.869141"/>
      </g>
     </g>
    </g>
    <g id="ytick_4">
     <g id="line2d_9">
      <g>
       <use xlink:href="#mf3635fc603" x="57.6" y="199.518428" style="stroke: #000000; stroke-width: 0.8"/>
      </g>
     </g>
     <g id="text_9">
      <!-- 6500 -->
      <g transform="translate(25.15 203.317646) scale(0.1 -0.1)">
       <use xlink:href="#DejaVuSans-36"/>
       <use xlink:href="#DejaVuSans-35" x="63.623047"/>
       <use xlink:href="#DejaVuSans-30" x="127.246094"/>
       <use xlink:href="#DejaVuSans-30" x="190.869141"/>
      </g>
     </g>
    </g>
    <g id="ytick_5">
     <g id="line2d_10">
      <g>
       <use xlink:href="#mf3635fc603" x="57.6" y="167.858899" style="stroke: #000000; stroke-width: 0.8"/>
      </g>
     </g>
     <g id="text_10">
      <!-- 7000 -->
      <g transform="translate(25.15 171.658118) scale(0.1 -0.1)">
       <defs>
        <path id="DejaVuSans-37" d="M 525 4666 
L 3525 4666 
L 3525 4397 
L 1831 0 
L 1172 0 
L 2766 4134 
L 525 4134 
L 525 4666 
z
" transform="scale(0.015625)"/>
       </defs>
       <use xlink:href="#DejaVuSans-37"/>
       <use xlink:href="#DejaVuSans-30" x="63.623047"/>
       <use xlink:href="#DejaVuSans-30" x="127.246094"/>
       <use xlink:href="#DejaVuSans-30" x="190.869141"/>
      </g>
     </g>
    </g>
    <g id="ytick_6">
     <g id="line2d_11">
      <g>
       <use xlink:href="#mf3635fc603" x="57.6" y="136.19937" style="stroke: #000000; stroke-width: 0.8"/>
      </g>
     </g>
     <g id="text_11">
      <!-- 7500 -->
      <g transform="translate(25.15 139.998589) scale(0.1 -0.1)">
       <use xlink:href="#DejaVuSans-37"/>
       <use xlink:href="#DejaVuSans-35" x="63.623047"/>
       <use xlink:href="#DejaVuSans-30" x="127.246094"/>
       <use xlink:href="#DejaVuSans-30" x="190.869141"/>
      </g>
     </g>
    </g>
    <g id="ytick_7">
     <g id="line2d_12">
      <g>
       <use xlink:href="#mf3635fc603" x="57.6" y="104.539841" style="stroke: #000000; stroke-width: 0.8"/>
      </g>
     </g>
     <g id="text_12">
      <!-- 8000 -->
      <g transform="translate(25.15 108.33906) scale(0.1 -0.1)">
       <defs>
        <path id="DejaVuSans-38" d="M 2034 2216 
Q 1584 2216 1326 1975 
Q 1069 1734 1069 1313 
Q 1069 891 1326 650 
Q 1584 409 2034 409 
Q 2484 409 2743 651 
Q 3003 894 3003 1313 
Q 3003 1734 2745 1975 
Q 2488 2216 2034 2216 
z
M 1403 2484 
Q 997 2584 770 2862 
Q 544 3141 544 3541 
Q 544 4100 942 4425 
Q 1341 4750 2034 4750 
Q 2731 4750 3128 4425 
Q 3525 4100 3525 3541 
Q 3525 3141 3298 2862 
Q 3072 2584 2669 2484 
Q 3125 2378 3379 2068 
Q 3634 1759 3634 1313 
Q 3634 634 3220 271 
Q 2806 -91 2034 -91 
Q 1263 -91 848 271 
Q 434 634 434 1313 
Q 434 1759 690 2068 
Q 947 2378 1403 2484 
z
M 1172 3481 
Q 1172 3119 1398 2916 
Q 1625 2713 2034 2713 
Q 2441 2713 2670 2916 
Q 2900 3119 2900 3481 
Q 2900 3844 2670 4047 
Q 2441 4250 2034 4250 
Q 1625 4250 1398 4047 
Q 1172 3844 1172 3481 
z
" transform="scale(0.015625)"/>
       </defs>
       <use xlink:href="#DejaVuSans-38"/>
       <use xlink:href="#DejaVuSans-30" x="63.623047"/>
       <use xlink:href="#DejaVuSans-30" x="127.246094"/>
       <use xlink:href="#DejaVuSans-30" x="190.869141"/>
      </g>
     </g>
    </g>
    <g id="ytick_8">
     <g id="line2d_13">
      <g>
       <use xlink:href="#mf3635fc603" x="57.6" y="72.880313" style="stroke: #000000; stroke-width: 0.8"/>
      </g>
     </g>
     <g id="text_13">
      <!-- 8500 -->
      <g transform="translate(25.15 76.679531) scale(0.1 -0.1)">
       <use xlink:href="#DejaVuSans-38"/>
       <use xlink:href="#DejaVuSans-35" x="63.623047"/>
       <use xlink:href="#DejaVuSans-30" x="127.246094"/>
       <use xlink:href="#DejaVuSans-30" x="190.869141"/>
      </g>
     </g>
    </g>
   </g>
   <g id="line2d_14">
    <path d="M 73.832727 295.488 
L 75.342748 294.155407 
L 76.85277 291.235371 
L 78.362791 290.631842 
L 79.872812 290.571232 
L 81.382833 290.317956 
L 82.892854 290.539573 
L 84.402875 289.509099 
L 85.912896 289.761653 
L 87.422918 286.830216 
L 88.932939 282.256573 
L 90.44296 275.511987 
L 91.952981 276.401036 
L 93.463002 278.857207 
L 94.973023 280.883416 
L 96.483044 277.613111 
L 97.993066 277.102023 
L 99.503087 276.169455 
L 101.013108 273.666574 
L 102.523129 271.865478 
L 104.03315 269.389796 
L 105.543171 269.122032 
L 107.053192 267.485217 
L 108.563214 268.088351 
L 111.583256 268.483434 
L 113.093277 267.122756 
L 114.603298 266.172616 
L 116.113319 266.416714 
L 117.62334 266.454205 
L 119.133362 266.641905 
L 120.643383 266.262132 
L 122.153404 266.250973 
L 123.663425 267.2065 
L 125.173446 267.40454 
L 126.683467 267.155979 
L 128.193488 267.20339 
L 129.70351 263.00182 
L 131.213531 261.608733 
L 132.723552 262.984387 
L 134.233573 261.465183 
L 135.743594 260.96918 
L 137.253615 260.829578 
L 138.763636 261.237887 
L 140.273658 260.426599 
L 141.783679 260.115313 
L 143.2937 259.167053 
L 146.313742 255.731376 
L 147.823763 254.498633 
L 149.333784 251.854221 
L 150.843805 249.700575 
L 152.353827 247.229464 
L 153.863848 246.163198 
L 155.373869 246.539164 
L 156.88389 245.187253 
L 158.393911 245.05713 
L 159.903932 246.627806 
L 161.413953 242.98558 
L 162.923975 240.42389 
L 164.433996 238.86688 
L 165.944017 238.906763 
L 167.454038 240.612496 
L 168.964059 240.876406 
L 170.47408 241.009197 
L 171.984101 241.840433 
L 173.494123 239.948827 
L 175.004144 240.408946 
L 176.514165 238.747687 
L 178.024186 238.68332 
L 179.534207 238.248014 
L 181.044228 238.539634 
L 182.554249 237.46563 
L 184.064271 235.525412 
L 185.574292 235.073726 
L 187.084313 232.551729 
L 188.594334 230.969528 
L 190.104355 230.570873 
L 191.614376 231.396432 
L 193.124397 230.752165 
L 194.634419 231.679986 
L 196.14444 232.329784 
L 197.654461 230.16284 
L 199.164482 230.461362 
L 202.184524 225.253359 
L 203.694545 224.589368 
L 205.204567 221.831643 
L 206.714588 221.653668 
L 208.224609 223.168096 
L 209.73463 223.224648 
L 211.244651 222.870593 
L 212.754672 220.102656 
L 214.264693 217.05694 
L 215.774715 217.440864 
L 217.284736 215.57406 
L 218.794757 215.170005 
L 220.304778 217.184445 
L 221.814799 216.228819 
L 223.32482 217.131679 
L 224.834841 214.033509 
L 226.344863 213.691188 
L 227.854884 212.498143 
L 229.364905 212.902579 
L 230.874926 214.303427 
L 232.384947 213.339631 
L 233.894968 212.755009 
L 235.404989 212.713399 
L 236.915011 210.219081 
L 238.425032 203.908391 
L 239.935053 205.280416 
L 241.445074 205.577371 
L 242.955095 205.399165 
L 244.465116 204.537513 
L 245.975137 206.565224 
L 247.485159 200.571035 
L 248.99518 200.487031 
L 250.505201 198.348074 
L 252.015222 200.157495 
L 253.525243 197.610476 
L 255.035264 196.198179 
L 256.545285 191.871288 
L 258.055307 192.311401 
L 259.565328 193.014432 
L 261.075349 194.937257 
L 262.58537 194.386447 
L 264.095391 196.050462 
L 265.605412 194.237077 
L 267.115433 189.050453 
L 268.625455 190.6642 
L 271.645497 189.989441 
L 273.155518 185.934665 
L 274.665539 185.985222 
L 276.17556 183.606715 
L 277.685581 183.169596 
L 279.195603 181.218819 
L 280.705624 179.727196 
L 282.215645 180.901206 
L 283.725666 177.85019 
L 285.235687 175.350304 
L 286.745708 168.763171 
L 288.255729 164.653957 
L 291.275772 158.641373 
L 292.785793 158.439884 
L 294.295814 153.48816 
L 295.805835 145.283975 
L 297.315856 146.541928 
L 298.825877 147.139793 
L 300.335899 148.546586 
L 301.84592 149.528032 
L 303.355941 149.160589 
L 304.865962 147.919793 
L 306.375983 143.913468 
L 307.886004 140.674446 
L 309.396025 140.152028 
L 310.906047 140.32706 
L 312.416068 136.410452 
L 313.926089 131.678148 
L 315.43611 130.447418 
L 316.946131 125.484947 
L 318.456152 125.136357 
L 319.966173 125.059567 
L 321.476195 122.565898 
L 322.986216 123.008121 
L 324.496237 123.662197 
L 326.006258 124.13709 
L 327.516279 123.22376 
L 329.0263 121.396678 
L 330.536321 121.515905 
L 332.046342 118.380356 
L 333.556364 110.30111 
L 335.066385 108.50988 
L 336.576406 110.437126 
L 338.086427 111.431993 
L 339.596448 111.723977 
L 341.106469 114.379259 
L 342.61649 112.964079 
L 344.126512 106.376198 
L 345.636533 107.098987 
L 347.146554 106.016022 
L 348.656575 102.464743 
L 350.166596 99.425695 
L 351.676617 100.389443 
L 353.186638 97.097051 
L 356.206681 98.338782 
L 357.716702 98.252335 
L 359.226723 97.00892 
L 360.736744 97.012411 
L 362.246765 94.735943 
L 363.756786 91.250849 
L 365.266808 84.654107 
L 366.776829 79.794758 
L 368.28685 65.505675 
L 369.796871 62.165458 
L 371.306892 64.558451 
L 372.816913 71.930527 
L 374.326934 70.582965 
L 375.836956 71.564125 
L 377.346977 70.600043 
L 378.856998 71.113178 
L 380.367019 67.260363 
L 381.87704 67.09711 
L 383.387061 68.975585 
L 384.897082 69.064167 
L 386.407104 66.837735 
L 387.917125 66.316379 
L 389.427146 66.920633 
L 390.937167 63.137253 
L 392.447188 61.843716 
L 393.957209 61.187527 
L 395.46723 61.558911 
L 396.977252 61.254811 
L 398.487273 55.131305 
L 398.487273 55.131305 
" clip-path="url(#peea4c686e9)" style="fill: none; stroke: #1f77b4; stroke-opacity: 0.7; stroke-width: 0.5; stroke-linecap: square"/>
   </g>
   <g id="line2d_15">
    <path d="M 73.832727 295.383896 
L 75.342748 294.100904 
L 76.85277 290.683429 
L 78.362791 290.708489 
L 79.872812 290.267528 
L 81.382833 289.999239 
L 82.892854 290.178181 
L 84.402875 289.305945 
L 85.912896 289.546161 
L 87.422918 286.896405 
L 88.932939 280.851757 
L 90.44296 272.968534 
L 91.952981 275.76836 
L 94.973023 279.812017 
L 96.483044 277.439184 
L 97.993066 276.992005 
L 99.503087 276.054779 
L 101.013108 273.44907 
L 102.523129 271.635206 
L 104.03315 269.066497 
L 105.543171 268.98849 
L 107.053192 267.425735 
L 108.563214 267.822709 
L 111.583256 268.054603 
L 113.093277 266.840459 
L 114.603298 265.992744 
L 116.113319 266.220131 
L 119.133362 266.358506 
L 120.643383 266.145893 
L 122.153404 266.119743 
L 123.663425 266.811298 
L 125.173446 267.138879 
L 128.193488 267.202605 
L 129.70351 263.163674 
L 131.213531 261.527445 
L 132.723552 263.348757 
L 134.233573 261.715044 
L 135.743594 261.0791 
L 137.253615 260.842517 
L 138.763636 261.058907 
L 140.273658 260.161695 
L 141.783679 259.993843 
L 143.2937 258.952048 
L 144.803721 257.233904 
L 146.313742 255.207539 
L 147.823763 254.070962 
L 149.333784 251.492821 
L 150.843805 249.3547 
L 152.353827 246.83887 
L 153.863848 245.856388 
L 155.373869 246.299281 
L 156.88389 244.814591 
L 158.393911 244.823405 
L 159.903932 245.965079 
L 161.413953 242.817214 
L 162.923975 240.005266 
L 164.433996 238.506219 
L 165.944017 238.887088 
L 167.454038 240.069444 
L 168.964059 240.14205 
L 170.47408 240.378597 
L 171.984101 241.232205 
L 173.494123 239.651553 
L 175.004144 240.057153 
L 176.514165 238.455233 
L 178.024186 238.483899 
L 179.534207 237.975129 
L 181.044228 238.264483 
L 182.554249 237.192685 
L 184.064271 234.913781 
L 185.574292 234.892265 
L 187.084313 232.148849 
L 188.594334 230.574456 
L 190.104355 230.48411 
L 191.614376 231.239263 
L 193.124397 230.613915 
L 194.634419 231.364526 
L 196.14444 231.869129 
L 197.654461 230.114997 
L 199.164482 230.201394 
L 200.674503 227.844028 
L 202.184524 224.149541 
L 203.694545 224.208518 
L 205.204567 221.319726 
L 206.714588 221.488946 
L 208.224609 222.567105 
L 209.73463 222.733001 
L 211.244651 222.568737 
L 212.754672 220.157803 
L 214.264693 216.108021 
L 215.774715 217.495111 
L 217.284736 215.157205 
L 218.794757 215.109859 
L 220.304778 216.685673 
L 221.814799 215.875689 
L 223.32482 216.8209 
L 224.834841 213.990589 
L 226.344863 213.633859 
L 227.854884 212.431764 
L 229.364905 212.95749 
L 230.874926 213.673636 
L 232.384947 212.840708 
L 233.894968 212.453259 
L 235.404989 212.442675 
L 236.915011 210.275669 
L 238.425032 201.924552 
L 239.935053 205.969479 
L 241.445074 205.919055 
L 242.955095 205.45309 
L 244.465116 204.503813 
L 245.975137 206.459367 
L 247.485159 200.64644 
L 248.99518 201.073717 
L 250.505201 197.905902 
L 252.015222 200.356709 
L 253.525243 198.069034 
L 255.035264 196.363649 
L 256.545285 190.013031 
L 258.055307 192.76031 
L 259.565328 193.050489 
L 261.075349 194.195819 
L 262.58537 194.340007 
L 264.095391 195.597628 
L 265.605412 194.061455 
L 267.115433 188.215976 
L 268.625455 191.147957 
L 270.135476 190.770185 
L 271.645497 190.011344 
L 273.155518 185.648926 
L 274.665539 186.146212 
L 276.17556 183.358876 
L 277.685581 183.127097 
L 279.195603 180.980634 
L 280.705624 179.430646 
L 282.215645 180.970027 
L 283.725666 177.746637 
L 285.235687 174.905885 
L 286.745708 166.510437 
L 288.255729 162.678309 
L 291.275772 157.742266 
L 292.785793 157.592986 
L 294.295814 153.151641 
L 295.805835 143.544381 
L 297.315856 145.357797 
L 298.825877 146.022439 
L 300.335899 147.002797 
L 301.84592 148.118942 
L 303.355941 147.734911 
L 304.865962 147.11607 
L 306.375983 143.45301 
L 307.886004 140.446633 
L 309.396025 139.861875 
L 310.906047 139.612056 
L 312.416068 135.52184 
L 313.926089 129.930783 
L 315.43611 129.948154 
L 316.946131 124.950438 
L 319.966173 124.310298 
L 321.476195 122.402018 
L 322.986216 122.775707 
L 324.496237 122.728028 
L 326.006258 123.25531 
L 327.516279 122.534175 
L 329.0263 120.743798 
L 330.536321 121.003144 
L 332.046342 118.069973 
L 333.556364 106.882646 
L 335.066385 107.056909 
L 336.576406 111.242145 
L 338.086427 111.809772 
L 339.596448 110.865009 
L 341.106469 112.594935 
L 342.61649 112.073088 
L 344.126512 106.6657 
L 345.636533 107.407794 
L 347.146554 106.180813 
L 348.656575 101.929513 
L 350.166596 98.751809 
L 351.676617 100.474292 
L 353.186638 97.005146 
L 354.69666 97.672405 
L 356.206681 97.915011 
L 357.716702 97.6865 
L 359.226723 96.378739 
L 360.736744 96.469556 
L 362.246765 94.454881 
L 363.756786 90.51467 
L 365.266808 81.175109 
L 366.776829 76.805135 
L 368.28685 61.115632 
L 369.796871 58.733228 
L 371.306892 63.274636 
L 372.816913 68.913787 
L 374.326934 68.786759 
L 375.836956 70.309519 
L 377.346977 70.158875 
L 378.856998 70.622174 
L 380.367019 66.4919 
L 381.87704 66.798123 
L 383.387061 68.1535 
L 384.897082 68.291298 
L 386.407104 66.473382 
L 387.917125 66.015865 
L 389.427146 66.564209 
L 390.937167 62.582787 
L 392.447188 61.388404 
L 393.957209 60.918874 
L 395.46723 61.142119 
L 396.977252 60.73108 
L 398.487273 54.630309 
L 398.487273 54.630309 
" clip-path="url(#peea4c686e9)" style="fill: none; stroke: #ff7f0e; stroke-opacity: 0.7; stroke-width: 0.5; stroke-linecap: square"/>
   </g>
   <g id="line2d_16">
    <path d="M 73.832727 295.435948 
L 75.342748 294.128155 
L 76.85277 290.9594 
L 81.382833 290.158597 
L 82.892854 290.358877 
L 84.402875 289.407522 
L 85.912896 289.653907 
L 87.422918 286.863311 
L 88.932939 281.554165 
L 90.44296 274.240261 
L 91.952981 276.084698 
L 94.973023 280.347717 
L 96.483044 277.526148 
L 97.993066 277.047014 
L 99.503087 276.112117 
L 101.013108 273.557822 
L 102.523129 271.750342 
L 104.03315 269.228147 
L 105.543171 269.055261 
L 107.053192 267.455476 
L 108.563214 267.95553 
L 111.583256 268.269019 
L 113.093277 266.981608 
L 114.603298 266.08268 
L 116.113319 266.318422 
L 117.62334 266.346843 
L 119.133362 266.500206 
L 120.643383 266.204013 
L 122.153404 266.185358 
L 123.663425 267.008899 
L 125.173446 267.27171 
L 126.683467 267.137898 
L 128.193488 267.202997 
L 129.70351 263.082747 
L 131.213531 261.568089 
L 132.723552 263.166572 
L 134.233573 261.590113 
L 135.743594 261.02414 
L 137.253615 260.836048 
L 138.763636 261.148397 
L 140.273658 260.294147 
L 141.783679 260.054578 
L 143.2937 259.05955 
L 144.803721 257.374434 
L 146.313742 255.469457 
L 147.823763 254.284797 
L 149.333784 251.673521 
L 150.843805 249.527637 
L 152.353827 247.034167 
L 153.863848 246.009793 
L 155.373869 246.419223 
L 156.88389 245.000922 
L 158.393911 244.940268 
L 159.903932 246.296443 
L 161.413953 242.901397 
L 162.923975 240.214578 
L 164.433996 238.686549 
L 165.944017 238.896926 
L 167.454038 240.34097 
L 170.47408 240.693897 
L 171.984101 241.536319 
L 173.494123 239.80019 
L 175.004144 240.233049 
L 176.514165 238.60146 
L 178.024186 238.58361 
L 179.534207 238.111571 
L 181.044228 238.402059 
L 182.554249 237.329158 
L 184.064271 235.219596 
L 185.574292 234.982995 
L 187.084313 232.350289 
L 188.594334 230.771992 
L 190.104355 230.527491 
L 191.614376 231.317847 
L 193.124397 230.68304 
L 194.634419 231.522256 
L 196.14444 232.099457 
L 197.654461 230.138918 
L 199.164482 230.331378 
L 200.674503 227.853203 
L 202.184524 224.70145 
L 203.694545 224.398943 
L 205.204567 221.575685 
L 206.714588 221.571307 
L 208.224609 222.8676 
L 209.73463 222.978825 
L 211.244651 222.719665 
L 212.754672 220.130229 
L 214.264693 216.58248 
L 215.774715 217.467988 
L 217.284736 215.365633 
L 218.794757 215.139932 
L 220.304778 216.935059 
L 221.814799 216.052254 
L 223.32482 216.976289 
L 224.834841 214.012049 
L 226.344863 213.662524 
L 227.854884 212.464954 
L 229.364905 212.930035 
L 230.874926 213.988531 
L 232.384947 213.090169 
L 233.894968 212.604134 
L 235.404989 212.578037 
L 236.915011 210.247375 
L 238.425032 202.916471 
L 239.935053 205.624948 
L 241.445074 205.748213 
L 242.955095 205.426128 
L 244.465116 204.520663 
L 245.975137 206.512296 
L 247.485159 200.608738 
L 248.99518 200.780374 
L 250.505201 198.126988 
L 252.015222 200.257102 
L 253.525243 197.839755 
L 255.035264 196.280914 
L 256.545285 190.94216 
L 258.055307 192.535856 
L 259.565328 193.03246 
L 261.075349 194.566538 
L 262.58537 194.363227 
L 264.095391 195.824045 
L 265.605412 194.149266 
L 267.115433 188.633214 
L 268.625455 190.906079 
L 270.135476 190.563628 
L 271.645497 190.000392 
L 273.155518 185.791795 
L 274.665539 186.065717 
L 276.17556 183.482796 
L 277.685581 183.148346 
L 279.195603 181.099727 
L 280.705624 179.578921 
L 282.215645 180.935617 
L 283.725666 177.798413 
L 285.235687 175.128095 
L 286.745708 167.636804 
L 288.255729 163.666133 
L 291.275772 158.19182 
L 292.785793 158.016435 
L 294.295814 153.3199 
L 295.805835 144.414178 
L 297.315856 145.949863 
L 298.825877 146.581116 
L 300.335899 147.774691 
L 301.84592 148.823487 
L 303.355941 148.44775 
L 304.865962 147.517932 
L 306.375983 143.683239 
L 307.886004 140.56054 
L 309.396025 140.006951 
L 310.906047 139.969558 
L 312.416068 135.966146 
L 313.926089 130.804466 
L 315.43611 130.197786 
L 316.946131 125.217693 
L 318.456152 124.869478 
L 319.966173 124.684932 
L 321.476195 122.483958 
L 326.006258 123.6962 
L 327.516279 122.878968 
L 329.0263 121.070238 
L 330.536321 121.259525 
L 332.046342 118.225164 
L 333.556364 108.591878 
L 335.066385 107.783394 
L 336.576406 110.839636 
L 338.086427 111.620882 
L 339.596448 111.294493 
L 341.106469 113.487097 
L 342.61649 112.518583 
L 344.126512 106.520949 
L 345.636533 107.25339 
L 347.146554 106.098417 
L 348.656575 102.197128 
L 350.166596 99.088752 
L 351.676617 100.431867 
L 353.186638 97.051099 
L 354.69666 97.669247 
L 356.206681 98.126897 
L 357.716702 97.969418 
L 359.226723 96.693829 
L 360.736744 96.740984 
L 362.246765 94.595412 
L 363.756786 90.882759 
L 365.266808 82.914608 
L 366.776829 78.299946 
L 368.28685 63.310653 
L 369.796871 60.449343 
L 371.306892 63.916543 
L 372.816913 70.422157 
L 374.326934 69.684862 
L 375.836956 70.936822 
L 377.346977 70.379459 
L 378.856998 70.867676 
L 380.367019 66.876132 
L 381.87704 66.947617 
L 383.387061 68.564543 
L 384.897082 68.677733 
L 386.407104 66.655558 
L 387.917125 66.166122 
L 389.427146 66.742421 
L 390.937167 62.86002 
L 392.447188 61.61606 
L 393.957209 61.0532 
L 395.46723 61.350515 
L 396.977252 60.992946 
L 398.487273 54.880807 
L 398.487273 54.880807 
" clip-path="url(#peea4c686e9)" style="fill: none; stroke: #2ca02c; stroke-opacity: 0.7; stroke-width: 0.5; stroke-linecap: square"/>
   </g>
   <g id="line2d_17">
    <path d="M 73.832727 295.003566 
L 75.342748 292.470804 
L 78.362791 291.204423 
L 79.872812 290.824508 
L 81.382833 290.761189 
L 82.892854 290.001361 
L 84.402875 290.06468 
L 85.912896 287.785194 
L 87.422918 283.922731 
L 88.932939 277.907421 
L 90.44296 278.034059 
L 91.952981 278.540611 
L 93.463002 279.933631 
L 94.973023 278.350654 
L 96.483044 277.780783 
L 97.993066 276.894316 
L 99.503087 274.868106 
L 101.013108 273.22181 
L 102.523129 271.005643 
L 104.03315 270.372453 
L 105.543171 268.852796 
L 107.053192 268.852796 
L 108.563214 268.662838 
L 110.073235 268.599519 
L 113.093277 266.826586 
L 114.603298 266.826586 
L 116.113319 266.699948 
L 117.62334 266.699948 
L 119.133362 266.446671 
L 120.643383 266.383352 
L 122.153404 266.953224 
L 123.663425 267.143181 
L 125.173446 267.079862 
L 126.683467 267.143181 
L 128.193488 263.85059 
L 129.70351 262.457571 
L 131.213531 263.407357 
L 132.723552 262.140975 
L 134.233573 261.634423 
L 135.743594 261.317828 
L 137.253615 261.381147 
L 138.763636 260.811275 
L 140.273658 260.49468 
L 141.783679 259.671532 
L 143.2937 258.278513 
L 144.803721 256.695536 
L 146.313742 255.429155 
L 147.823763 253.212988 
L 149.333784 251.250098 
L 150.843805 248.970611 
L 152.353827 247.640911 
L 153.863848 247.387635 
L 155.373869 246.057935 
L 156.88389 245.804659 
L 158.393911 246.437849 
L 161.413953 241.498963 
L 162.923975 240.042624 
L 164.433996 239.852667 
L 165.944017 240.422539 
L 168.964059 240.802453 
L 170.47408 241.435644 
L 171.984101 240.169262 
L 173.494123 240.549177 
L 175.004144 239.156158 
L 176.514165 239.092838 
L 178.024186 238.586286 
L 179.534207 238.712924 
L 181.044228 237.826457 
L 182.554249 236.180162 
L 184.064271 235.673609 
L 185.574292 233.520761 
L 187.084313 232.064423 
L 188.594334 231.494552 
L 190.104355 231.747828 
L 191.614376 231.177956 
L 193.124397 231.684509 
L 194.634419 232.064423 
L 196.14444 230.671404 
L 197.654461 230.798042 
L 199.164482 228.708513 
L 200.674503 226.365708 
L 202.184524 225.415922 
L 203.694545 223.073117 
L 205.204567 222.693203 
L 206.714588 223.136436 
L 208.224609 223.136436 
L 209.73463 222.946479 
L 211.244651 221.046907 
L 212.754672 218.387507 
L 214.264693 218.450826 
L 215.774715 216.424616 
L 217.284736 216.108021 
L 218.794757 216.931168 
L 220.304778 216.424616 
L 221.814799 216.994487 
L 223.32482 214.77832 
L 224.834841 214.335087 
L 226.344863 213.258663 
L 227.854884 213.385301 
L 229.364905 213.955173 
L 232.384947 213.068706 
L 233.894968 212.942068 
L 235.404989 211.042496 
L 236.915011 205.597057 
L 238.425032 206.546843 
L 239.935053 206.420205 
L 241.445074 206.04029 
L 242.955095 205.217143 
L 244.465116 206.483524 
L 245.975137 201.924552 
L 247.485159 201.924552 
L 248.99518 199.391789 
L 250.505201 200.784809 
L 252.015222 198.758599 
L 253.525243 197.492218 
L 255.035264 192.869927 
L 256.545285 193.693074 
L 258.055307 193.883031 
L 259.565328 194.516222 
L 261.075349 194.579541 
L 262.58537 195.529327 
L 264.095391 194.389584 
L 265.605412 190.653759 
L 267.115433 191.476907 
L 270.135476 190.527121 
L 271.645497 187.23453 
L 273.155518 187.107892 
L 274.665539 184.765087 
L 276.17556 184.258535 
L 277.685581 182.358963 
L 279.195603 180.902625 
L 280.705624 181.662453 
L 282.215645 178.939734 
L 283.725666 176.660248 
L 285.235687 170.581618 
L 286.745708 166.782475 
L 289.765751 160.957122 
L 291.275772 159.880698 
L 292.785793 155.954916 
L 294.295814 148.98982 
L 295.805835 147.976715 
L 297.315856 148.103353 
L 298.825877 148.356629 
L 300.335899 149.053139 
L 301.84592 148.98982 
L 303.355941 148.29331 
L 306.375983 142.657914 
L 307.886004 141.58149 
L 309.396025 141.138257 
L 312.416068 133.666608 
L 313.926089 132.210269 
L 315.43611 127.967893 
L 316.946131 126.891469 
L 318.456152 126.068321 
L 319.966173 124.232068 
L 322.986216 123.852154 
L 324.496237 124.10543 
L 326.006258 123.535559 
L 327.516279 122.205858 
L 329.0263 122.07922 
L 330.536321 119.546458 
L 332.046342 111.948171 
L 333.556364 110.175237 
L 335.066385 111.631576 
L 336.576406 112.138128 
L 338.086427 112.138128 
L 339.596448 113.657786 
L 341.106469 113.087914 
L 342.61649 108.212347 
L 344.126512 108.402304 
L 345.636533 107.135923 
L 347.146554 104.096608 
L 348.656575 101.373888 
L 350.166596 101.690484 
L 351.676617 98.714488 
L 353.186638 98.904445 
L 354.69666 98.841126 
L 356.206681 98.58785 
L 357.716702 97.638064 
L 359.226723 97.448107 
L 360.736744 95.611854 
L 362.246765 92.825816 
L 363.756786 85.987357 
L 365.266808 81.618342 
L 366.776829 69.271126 
L 368.28685 65.092068 
L 369.796871 66.421769 
L 371.306892 69.651041 
L 372.816913 69.777679 
L 374.326934 70.790784 
L 375.836956 70.727465 
L 377.346977 71.107379 
L 378.856998 68.194702 
L 380.367019 67.941426 
L 381.87704 68.701255 
L 383.387061 68.827893 
L 384.897082 67.434874 
L 386.407104 66.801683 
L 387.917125 67.054959 
L 389.427146 63.952325 
L 390.937167 62.749263 
L 392.447188 61.989435 
L 393.957209 62.052754 
L 395.46723 61.672839 
L 396.977252 56.354039 
L 398.487273 53.568 
L 398.487273 53.568 
" clip-path="url(#peea4c686e9)" style="fill: none; stroke: #d62728; stroke-opacity: 0.7; stroke-width: 0.5; stroke-linecap: square"/>
   </g>
   <g id="patch_3">
    <path d="M 57.6 307.584 
L 57.6 41.472 
" style="fill: none; stroke: #000000; stroke-width: 0.8; stroke-linejoin: miter; stroke-linecap: square"/>
   </g>
   <g id="patch_4">
    <path d="M 414.72 307.584 
L 414.72 41.472 
" style="fill: none; stroke: #000000; stroke-width: 0.8; stroke-linejoin: miter; stroke-linecap: square"/>
   </g>
   <g id="patch_5">
    <path d="M 57.6 307.584 
L 414.72 307.584 
" style="fill: none; stroke: #000000; stroke-width: 0.8; stroke-linejoin: miter; stroke-linecap: square"/>
   </g>
   <g id="patch_6">
    <path d="M 57.6 41.472 
L 414.72 41.472 
" style="fill: none; stroke: #000000; stroke-width: 0.8; stroke-linejoin: miter; stroke-linecap: square"/>
   </g>
   <g id="text_14">
    <!-- 1final_zhangext_jc_cci -->
    <g transform="translate(169.455938 35.472) scale(0.12 -0.12)">
     <defs>
      <path id="DejaVuSans-66" d="M 2375 4863 
L 2375 4384 
L 1825 4384 
Q 1516 4384 1395 4259 
Q 1275 4134 1275 3809 
L 1275 3500 
L 2222 3500 
L 2222 3053 
L 1275 3053 
L 1275 0 
L 697 0 
L 697 3053 
L 147 3053 
L 147 3500 
L 697 3500 
L 697 3744 
Q 697 4328 969 4595 
Q 1241 4863 1831 4863 
L 2375 4863 
z
" transform="scale(0.015625)"/>
      <path id="DejaVuSans-69" d="M 603 3500 
L 1178 3500 
L 1178 0 
L 603 0 
L 603 3500 
z
M 603 4863 
L 1178 4863 
L 1178 4134 
L 603 4134 
L 603 4863 
z
" transform="scale(0.015625)"/>
      <path id="DejaVuSans-6e" d="M 3513 2113 
L 3513 0 
L 2938 0 
L 2938 2094 
Q 2938 2591 2744 2837 
Q 2550 3084 2163 3084 
Q 1697 3084 1428 2787 
Q 1159 2491 1159 1978 
L 1159 0 
L 581 0 
L 581 3500 
L 1159 3500 
L 1159 2956 
Q 1366 3272 1645 3428 
Q 1925 3584 2291 3584 
Q 2894 3584 3203 3211 
Q 3513 2838 3513 2113 
z
" transform="scale(0.015625)"/>
      <path id="DejaVuSans-61" d="M 2194 1759 
Q 1497 1759 1228 1600 
Q 959 1441 959 1056 
Q 959 750 1161 570 
Q 1363 391 1709 391 
Q 2188 391 2477 730 
Q 2766 1069 2766 1631 
L 2766 1759 
L 2194 1759 
z
M 3341 1997 
L 3341 0 
L 2766 0 
L 2766 531 
Q 2569 213 2275 61 
Q 1981 -91 1556 -91 
Q 1019 -91 701 211 
Q 384 513 384 1019 
Q 384 1609 779 1909 
Q 1175 2209 1959 2209 
L 2766 2209 
L 2766 2266 
Q 2766 2663 2505 2880 
Q 2244 3097 1772 3097 
Q 1472 3097 1187 3025 
Q 903 2953 641 2809 
L 641 3341 
Q 956 3463 1253 3523 
Q 1550 3584 1831 3584 
Q 2591 3584 2966 3190 
Q 3341 2797 3341 1997 
z
" transform="scale(0.015625)"/>
      <path id="DejaVuSans-6c" d="M 603 4863 
L 1178 4863 
L 1178 0 
L 603 0 
L 603 4863 
z
" transform="scale(0.015625)"/>
      <path id="DejaVuSans-5f" d="M 3263 -1063 
L 3263 -1509 
L -63 -1509 
L -63 -1063 
L 3263 -1063 
z
" transform="scale(0.015625)"/>
      <path id="DejaVuSans-7a" d="M 353 3500 
L 3084 3500 
L 3084 2975 
L 922 459 
L 3084 459 
L 3084 0 
L 275 0 
L 275 525 
L 2438 3041 
L 353 3041 
L 353 3500 
z
" transform="scale(0.015625)"/>
      <path id="DejaVuSans-68" d="M 3513 2113 
L 3513 0 
L 2938 0 
L 2938 2094 
Q 2938 2591 2744 2837 
Q 2550 3084 2163 3084 
Q 1697 3084 1428 2787 
Q 1159 2491 1159 1978 
L 1159 0 
L 581 0 
L 581 4863 
L 1159 4863 
L 1159 2956 
Q 1366 3272 1645 3428 
Q 1925 3584 2291 3584 
Q 2894 3584 3203 3211 
Q 3513 2838 3513 2113 
z
" transform="scale(0.015625)"/>
      <path id="DejaVuSans-67" d="M 2906 1791 
Q 2906 2416 2648 2759 
Q 2391 3103 1925 3103 
Q 1463 3103 1205 2759 
Q 947 2416 947 1791 
Q 947 1169 1205 825 
Q 1463 481 1925 481 
Q 2391 481 2648 825 
Q 2906 1169 2906 1791 
z
M 3481 434 
Q 3481 -459 3084 -895 
Q 2688 -1331 1869 -1331 
Q 1566 -1331 1297 -1286 
Q 1028 -1241 775 -1147 
L 775 -588 
Q 1028 -725 1275 -790 
Q 1522 -856 1778 -856 
Q 2344 -856 2625 -561 
Q 2906 -266 2906 331 
L 2906 616 
Q 2728 306 2450 153 
Q 2172 0 1784 0 
Q 1141 0 747 490 
Q 353 981 353 1791 
Q 353 2603 747 3093 
Q 1141 3584 1784 3584 
Q 2172 3584 2450 3431 
Q 2728 3278 2906 2969 
L 2906 3500 
L 3481 3500 
L 3481 434 
z
" transform="scale(0.015625)"/>
      <path id="DejaVuSans-65" d="M 3597 1894 
L 3597 1613 
L 953 1613 
Q 991 1019 1311 708 
Q 1631 397 2203 397 
Q 2534 397 2845 478 
Q 3156 559 3463 722 
L 3463 178 
Q 3153 47 2828 -22 
Q 2503 -91 2169 -91 
Q 1331 -91 842 396 
Q 353 884 353 1716 
Q 353 2575 817 3079 
Q 1281 3584 2069 3584 
Q 2775 3584 3186 3129 
Q 3597 2675 3597 1894 
z
M 3022 2063 
Q 3016 2534 2758 2815 
Q 2500 3097 2075 3097 
Q 1594 3097 1305 2825 
Q 1016 2553 972 2059 
L 3022 2063 
z
" transform="scale(0.015625)"/>
      <path id="DejaVuSans-78" d="M 3513 3500 
L 2247 1797 
L 3578 0 
L 2900 0 
L 1881 1375 
L 863 0 
L 184 0 
L 1544 1831 
L 300 3500 
L 978 3500 
L 1906 2253 
L 2834 3500 
L 3513 3500 
z
" transform="scale(0.015625)"/>
      <path id="DejaVuSans-74" d="M 1172 4494 
L 1172 3500 
L 2356 3500 
L 2356 3053 
L 1172 3053 
L 1172 1153 
Q 1172 725 1289 603 
Q 1406 481 1766 481 
L 2356 481 
L 2356 0 
L 1766 0 
Q 1100 0 847 248 
Q 594 497 594 1153 
L 594 3053 
L 172 3053 
L 172 3500 
L 594 3500 
L 594 4494 
L 1172 4494 
z
" transform="scale(0.015625)"/>
      <path id="DejaVuSans-6a" d="M 603 3500 
L 1178 3500 
L 1178 -63 
Q 1178 -731 923 -1031 
Q 669 -1331 103 -1331 
L -116 -1331 
L -116 -844 
L 38 -844 
Q 366 -844 484 -692 
Q 603 -541 603 -63 
L 603 3500 
z
M 603 4863 
L 1178 4863 
L 1178 4134 
L 603 4134 
L 603 4863 
z
" transform="scale(0.015625)"/>
      <path id="DejaVuSans-63" d="M 3122 3366 
L 3122 2828 
Q 2878 2963 2633 3030 
Q 2388 3097 2138 3097 
Q 1578 3097 1268 2742 
Q 959 2388 959 1747 
Q 959 1106 1268 751 
Q 1578 397 2138 397 
Q 2388 397 2633 464 
Q 2878 531 3122 666 
L 3122 134 
Q 2881 22 2623 -34 
Q 2366 -91 2075 -91 
Q 1284 -91 818 406 
Q 353 903 353 1747 
Q 353 2603 823 3093 
Q 1294 3584 2113 3584 
Q 2378 3584 2631 3529 
Q 2884 3475 3122 3366 
z
" transform="scale(0.015625)"/>
     </defs>
     <use xlink:href="#DejaVuSans-31"/>
     <use xlink:href="#DejaVuSans-66" x="63.623047"/>
     <use xlink:href="#DejaVuSans-69" x="98.828125"/>
     <use xlink:href="#DejaVuSans-6e" x="126.611328"/>
     <use xlink:href="#DejaVuSans-61" x="189.990234"/>
     <use xlink:href="#DejaVuSans-6c" x="251.269531"/>
     <use xlink:href="#DejaVuSans-5f" x="279.052734"/>
     <use xlink:href="#DejaVuSans-7a" x="329.052734"/>
     <use xlink:href="#DejaVuSans-68" x="381.542969"/>
     <use xlink:href="#DejaVuSans-61" x="444.921875"/>
     <use xlink:href="#DejaVuSans-6e" x="506.201172"/>
     <use xlink:href="#DejaVuSans-67" x="569.580078"/>
     <use xlink:href="#DejaVuSans-65" x="633.056641"/>
     <use xlink:href="#DejaVuSans-78" x="692.830078"/>
     <use xlink:href="#DejaVuSans-74" x="752.009766"/>
     <use xlink:href="#DejaVuSans-5f" x="791.21875"/>
     <use xlink:href="#DejaVuSans-6a" x="841.21875"/>
     <use xlink:href="#DejaVuSans-63" x="869.001953"/>
     <use xlink:href="#DejaVuSans-5f" x="923.982422"/>
     <use xlink:href="#DejaVuSans-63" x="973.982422"/>
     <use xlink:href="#DejaVuSans-63" x="1028.962891"/>
     <use xlink:href="#DejaVuSans-69" x="1083.943359"/>
    </g>
   </g>
   <g id="legend_1">
    <g id="patch_7">
     <path d="M 64.6 108.1845 
L 200.035938 108.1845 
Q 202.035938 108.1845 202.035938 106.1845 
L 202.035938 48.472 
Q 202.035938 46.472 200.035938 46.472 
L 64.6 46.472 
Q 62.6 46.472 62.6 48.472 
L 62.6 106.1845 
Q 62.6 108.1845 64.6 108.1845 
z
" style="fill: #ffffff; opacity: 0.8; stroke: #cccccc; stroke-linejoin: miter"/>
    </g>
    <g id="line2d_18">
     <path d="M 66.6 54.570438 
L 76.6 54.570438 
L 86.6 54.570438 
" style="fill: none; stroke: #1f77b4; stroke-opacity: 0.7; stroke-width: 0.5; stroke-linecap: square"/>
    </g>
    <g id="text_15">
     <!-- Positive predictions -->
     <g transform="translate(94.6 58.070438) scale(0.1 -0.1)">
      <defs>
       <path id="DejaVuSans-50" d="M 1259 4147 
L 1259 2394 
L 2053 2394 
Q 2494 2394 2734 2622 
Q 2975 2850 2975 3272 
Q 2975 3691 2734 3919 
Q 2494 4147 2053 4147 
L 1259 4147 
z
M 628 4666 
L 2053 4666 
Q 2838 4666 3239 4311 
Q 3641 3956 3641 3272 
Q 3641 2581 3239 2228 
Q 2838 1875 2053 1875 
L 1259 1875 
L 1259 0 
L 628 0 
L 628 4666 
z
" transform="scale(0.015625)"/>
       <path id="DejaVuSans-6f" d="M 1959 3097 
Q 1497 3097 1228 2736 
Q 959 2375 959 1747 
Q 959 1119 1226 758 
Q 1494 397 1959 397 
Q 2419 397 2687 759 
Q 2956 1122 2956 1747 
Q 2956 2369 2687 2733 
Q 2419 3097 1959 3097 
z
M 1959 3584 
Q 2709 3584 3137 3096 
Q 3566 2609 3566 1747 
Q 3566 888 3137 398 
Q 2709 -91 1959 -91 
Q 1206 -91 779 398 
Q 353 888 353 1747 
Q 353 2609 779 3096 
Q 1206 3584 1959 3584 
z
" transform="scale(0.015625)"/>
       <path id="DejaVuSans-73" d="M 2834 3397 
L 2834 2853 
Q 2591 2978 2328 3040 
Q 2066 3103 1784 3103 
Q 1356 3103 1142 2972 
Q 928 2841 928 2578 
Q 928 2378 1081 2264 
Q 1234 2150 1697 2047 
L 1894 2003 
Q 2506 1872 2764 1633 
Q 3022 1394 3022 966 
Q 3022 478 2636 193 
Q 2250 -91 1575 -91 
Q 1294 -91 989 -36 
Q 684 19 347 128 
L 347 722 
Q 666 556 975 473 
Q 1284 391 1588 391 
Q 1994 391 2212 530 
Q 2431 669 2431 922 
Q 2431 1156 2273 1281 
Q 2116 1406 1581 1522 
L 1381 1569 
Q 847 1681 609 1914 
Q 372 2147 372 2553 
Q 372 3047 722 3315 
Q 1072 3584 1716 3584 
Q 2034 3584 2315 3537 
Q 2597 3491 2834 3397 
z
" transform="scale(0.015625)"/>
       <path id="DejaVuSans-76" d="M 191 3500 
L 800 3500 
L 1894 563 
L 2988 3500 
L 3597 3500 
L 2284 0 
L 1503 0 
L 191 3500 
z
" transform="scale(0.015625)"/>
       <path id="DejaVuSans-20" transform="scale(0.015625)"/>
       <path id="DejaVuSans-70" d="M 1159 525 
L 1159 -1331 
L 581 -1331 
L 581 3500 
L 1159 3500 
L 1159 2969 
Q 1341 3281 1617 3432 
Q 1894 3584 2278 3584 
Q 2916 3584 3314 3078 
Q 3713 2572 3713 1747 
Q 3713 922 3314 415 
Q 2916 -91 2278 -91 
Q 1894 -91 1617 61 
Q 1341 213 1159 525 
z
M 3116 1747 
Q 3116 2381 2855 2742 
Q 2594 3103 2138 3103 
Q 1681 3103 1420 2742 
Q 1159 2381 1159 1747 
Q 1159 1113 1420 752 
Q 1681 391 2138 391 
Q 2594 391 2855 752 
Q 3116 1113 3116 1747 
z
" transform="scale(0.015625)"/>
       <path id="DejaVuSans-72" d="M 2631 2963 
Q 2534 3019 2420 3045 
Q 2306 3072 2169 3072 
Q 1681 3072 1420 2755 
Q 1159 2438 1159 1844 
L 1159 0 
L 581 0 
L 581 3500 
L 1159 3500 
L 1159 2956 
Q 1341 3275 1631 3429 
Q 1922 3584 2338 3584 
Q 2397 3584 2469 3576 
Q 2541 3569 2628 3553 
L 2631 2963 
z
" transform="scale(0.015625)"/>
       <path id="DejaVuSans-64" d="M 2906 2969 
L 2906 4863 
L 3481 4863 
L 3481 0 
L 2906 0 
L 2906 525 
Q 2725 213 2448 61 
Q 2172 -91 1784 -91 
Q 1150 -91 751 415 
Q 353 922 353 1747 
Q 353 2572 751 3078 
Q 1150 3584 1784 3584 
Q 2172 3584 2448 3432 
Q 2725 3281 2906 2969 
z
M 947 1747 
Q 947 1113 1208 752 
Q 1469 391 1925 391 
Q 2381 391 2643 752 
Q 2906 1113 2906 1747 
Q 2906 2381 2643 2742 
Q 2381 3103 1925 3103 
Q 1469 3103 1208 2742 
Q 947 2381 947 1747 
z
" transform="scale(0.015625)"/>
      </defs>
      <use xlink:href="#DejaVuSans-50"/>
      <use xlink:href="#DejaVuSans-6f" x="56.677734"/>
      <use xlink:href="#DejaVuSans-73" x="117.859375"/>
      <use xlink:href="#DejaVuSans-69" x="169.958984"/>
      <use xlink:href="#DejaVuSans-74" x="197.742188"/>
      <use xlink:href="#DejaVuSans-69" x="236.951172"/>
      <use xlink:href="#DejaVuSans-76" x="264.734375"/>
      <use xlink:href="#DejaVuSans-65" x="323.914062"/>
      <use xlink:href="#DejaVuSans-20" x="385.4375"/>
      <use xlink:href="#DejaVuSans-70" x="417.224609"/>
      <use xlink:href="#DejaVuSans-72" x="480.701172"/>
      <use xlink:href="#DejaVuSans-65" x="519.564453"/>
      <use xlink:href="#DejaVuSans-64" x="581.087891"/>
      <use xlink:href="#DejaVuSans-69" x="644.564453"/>
      <use xlink:href="#DejaVuSans-63" x="672.347656"/>
      <use xlink:href="#DejaVuSans-74" x="727.328125"/>
      <use xlink:href="#DejaVuSans-69" x="766.537109"/>
      <use xlink:href="#DejaVuSans-6f" x="794.320312"/>
      <use xlink:href="#DejaVuSans-6e" x="855.501953"/>
      <use xlink:href="#DejaVuSans-73" x="918.880859"/>
     </g>
    </g>
    <g id="line2d_19">
     <path d="M 66.6 69.248563 
L 76.6 69.248563 
L 86.6 69.248563 
" style="fill: none; stroke: #ff7f0e; stroke-opacity: 0.7; stroke-width: 0.5; stroke-linecap: square"/>
    </g>
    <g id="text_16">
     <!-- Negative predictions -->
     <g transform="translate(94.6 72.748563) scale(0.1 -0.1)">
      <defs>
       <path id="DejaVuSans-4e" d="M 628 4666 
L 1478 4666 
L 3547 763 
L 3547 4666 
L 4159 4666 
L 4159 0 
L 3309 0 
L 1241 3903 
L 1241 0 
L 628 0 
L 628 4666 
z
" transform="scale(0.015625)"/>
      </defs>
      <use xlink:href="#DejaVuSans-4e"/>
      <use xlink:href="#DejaVuSans-65" x="74.804688"/>
      <use xlink:href="#DejaVuSans-67" x="136.328125"/>
      <use xlink:href="#DejaVuSans-61" x="199.804688"/>
      <use xlink:href="#DejaVuSans-74" x="261.083984"/>
      <use xlink:href="#DejaVuSans-69" x="300.292969"/>
      <use xlink:href="#DejaVuSans-76" x="328.076172"/>
      <use xlink:href="#DejaVuSans-65" x="387.255859"/>
      <use xlink:href="#DejaVuSans-20" x="448.779297"/>
      <use xlink:href="#DejaVuSans-70" x="480.566406"/>
      <use xlink:href="#DejaVuSans-72" x="544.042969"/>
      <use xlink:href="#DejaVuSans-65" x="582.90625"/>
      <use xlink:href="#DejaVuSans-64" x="644.429688"/>
      <use xlink:href="#DejaVuSans-69" x="707.90625"/>
      <use xlink:href="#DejaVuSans-63" x="735.689453"/>
      <use xlink:href="#DejaVuSans-74" x="790.669922"/>
      <use xlink:href="#DejaVuSans-69" x="829.878906"/>
      <use xlink:href="#DejaVuSans-6f" x="857.662109"/>
      <use xlink:href="#DejaVuSans-6e" x="918.84375"/>
      <use xlink:href="#DejaVuSans-73" x="982.222656"/>
     </g>
    </g>
    <g id="line2d_20">
     <path d="M 66.6 83.926688 
L 76.6 83.926688 
L 86.6 83.926688 
" style="fill: none; stroke: #2ca02c; stroke-opacity: 0.7; stroke-width: 0.5; stroke-linecap: square"/>
    </g>
    <g id="text_17">
     <!-- Average predictions -->
     <g transform="translate(94.6 87.426688) scale(0.1 -0.1)">
      <defs>
       <path id="DejaVuSans-41" d="M 2188 4044 
L 1331 1722 
L 3047 1722 
L 2188 4044 
z
M 1831 4666 
L 2547 4666 
L 4325 0 
L 3669 0 
L 3244 1197 
L 1141 1197 
L 716 0 
L 50 0 
L 1831 4666 
z
" transform="scale(0.015625)"/>
      </defs>
      <use xlink:href="#DejaVuSans-41"/>
      <use xlink:href="#DejaVuSans-76" x="62.533203"/>
      <use xlink:href="#DejaVuSans-65" x="121.712891"/>
      <use xlink:href="#DejaVuSans-72" x="183.236328"/>
      <use xlink:href="#DejaVuSans-61" x="224.349609"/>
      <use xlink:href="#DejaVuSans-67" x="285.628906"/>
      <use xlink:href="#DejaVuSans-65" x="349.105469"/>
      <use xlink:href="#DejaVuSans-20" x="410.628906"/>
      <use xlink:href="#DejaVuSans-70" x="442.416016"/>
      <use xlink:href="#DejaVuSans-72" x="505.892578"/>
      <use xlink:href="#DejaVuSans-65" x="544.755859"/>
      <use xlink:href="#DejaVuSans-64" x="606.279297"/>
      <use xlink:href="#DejaVuSans-69" x="669.755859"/>
      <use xlink:href="#DejaVuSans-63" x="697.539062"/>
      <use xlink:href="#DejaVuSans-74" x="752.519531"/>
      <use xlink:href="#DejaVuSans-69" x="791.728516"/>
      <use xlink:href="#DejaVuSans-6f" x="819.511719"/>
      <use xlink:href="#DejaVuSans-6e" x="880.693359"/>
      <use xlink:href="#DejaVuSans-73" x="944.072266"/>
     </g>
    </g>
    <g id="line2d_21">
     <path d="M 66.6 98.604813 
L 76.6 98.604813 
L 86.6 98.604813 
" style="fill: none; stroke: #d62728; stroke-opacity: 0.7; stroke-width: 0.5; stroke-linecap: square"/>
    </g>
    <g id="text_18">
     <!-- Actual values -->
     <g transform="translate(94.6 102.104813) scale(0.1 -0.1)">
      <defs>
       <path id="DejaVuSans-75" d="M 544 1381 
L 544 3500 
L 1119 3500 
L 1119 1403 
Q 1119 906 1312 657 
Q 1506 409 1894 409 
Q 2359 409 2629 706 
Q 2900 1003 2900 1516 
L 2900 3500 
L 3475 3500 
L 3475 0 
L 2900 0 
L 2900 538 
Q 2691 219 2414 64 
Q 2138 -91 1772 -91 
Q 1169 -91 856 284 
Q 544 659 544 1381 
z
M 1991 3584 
L 1991 3584 
z
" transform="scale(0.015625)"/>
      </defs>
      <use xlink:href="#DejaVuSans-41"/>
      <use xlink:href="#DejaVuSans-63" x="66.658203"/>
      <use xlink:href="#DejaVuSans-74" x="121.638672"/>
      <use xlink:href="#DejaVuSans-75" x="160.847656"/>
      <use xlink:href="#DejaVuSans-61" x="224.226562"/>
      <use xlink:href="#DejaVuSans-6c" x="285.505859"/>
      <use xlink:href="#DejaVuSans-20" x="313.289062"/>
      <use xlink:href="#DejaVuSans-76" x="345.076172"/>
      <use xlink:href="#DejaVuSans-61" x="404.255859"/>
      <use xlink:href="#DejaVuSans-6c" x="465.535156"/>
      <use xlink:href="#DejaVuSans-75" x="493.318359"/>
      <use xlink:href="#DejaVuSans-65" x="556.697266"/>
      <use xlink:href="#DejaVuSans-73" x="618.220703"/>
     </g>
    </g>
   </g>
  </g>
 </g>
 <defs>
  <clipPath id="peea4c686e9">
   <rect x="57.6" y="41.472" width="357.12" height="266.112"/>
  </clipPath>
 </defs>
</svg>
