<?xml version="1.0" encoding="utf-8" standalone="no"?>
<!DOCTYPE svg PUBLIC "-//W3C//DTD SVG 1.1//EN"
  "http://www.w3.org/Graphics/SVG/1.1/DTD/svg11.dtd">
<svg xmlns:xlink="http://www.w3.org/1999/xlink" width="460.8pt" height="345.6pt" viewBox="0 0 460.8 345.6" xmlns="http://www.w3.org/2000/svg" version="1.1">
 <metadata>
  <rdf:RDF xmlns:dc="http://purl.org/dc/elements/1.1/" xmlns:cc="http://creativecommons.org/ns#" xmlns:rdf="http://www.w3.org/1999/02/22-rdf-syntax-ns#">
   <cc:Work>
    <dc:type rdf:resource="http://purl.org/dc/dcmitype/StillImage"/>
    <dc:date>2024-09-08T12:14:36.001173</dc:date>
    <dc:format>image/svg+xml</dc:format>
    <dc:creator>
     <cc:Agent>
      <dc:title>Matplotlib v3.8.3, https://matplotlib.org/</dc:title>
     </cc:Agent>
    </dc:creator>
   </cc:Work>
  </rdf:RDF>
 </metadata>
 <defs>
  <style type="text/css">*{stroke-linejoin: round; stroke-linecap: butt}</style>
 </defs>
 <g id="figure_1">
  <g id="patch_1">
   <path d="M 0 345.6 
L 460.8 345.6 
L 460.8 0 
L 0 0 
z
" style="fill: #ffffff"/>
  </g>
  <g id="axes_1">
   <g id="patch_2">
    <path d="M 57.6 307.584 
L 414.72 307.584 
L 414.72 41.472 
L 57.6 41.472 
z
" style="fill: #ffffff"/>
   </g>
   <g id="matplotlib.axis_1">
    <g id="xtick_1">
     <g id="line2d_1">
      <defs>
       <path id="m41135b4066" d="M 0 0 
L 0 3.5 
" style="stroke: #000000; stroke-width: 0.8"/>
      </defs>
      <g>
       <use xlink:href="#m41135b4066" x="73.832727" y="307.584" style="stroke: #000000; stroke-width: 0.8"/>
      </g>
     </g>
     <g id="text_1">
      <!-- 0 -->
      <g transform="translate(70.651477 322.182437) scale(0.1 -0.1)">
       <defs>
        <path id="DejaVuSans-30" d="M 2034 4250 
Q 1547 4250 1301 3770 
Q 1056 3291 1056 2328 
Q 1056 1369 1301 889 
Q 1547 409 2034 409 
Q 2525 409 2770 889 
Q 3016 1369 3016 2328 
Q 3016 3291 2770 3770 
Q 2525 4250 2034 4250 
z
M 2034 4750 
Q 2819 4750 3233 4129 
Q 3647 3509 3647 2328 
Q 3647 1150 3233 529 
Q 2819 -91 2034 -91 
Q 1250 -91 836 529 
Q 422 1150 422 2328 
Q 422 3509 836 4129 
Q 1250 4750 2034 4750 
z
" transform="scale(0.015625)"/>
       </defs>
       <use xlink:href="#DejaVuSans-30"/>
      </g>
     </g>
    </g>
    <g id="xtick_2">
     <g id="line2d_2">
      <g>
       <use xlink:href="#m41135b4066" x="116.27123" y="307.584" style="stroke: #000000; stroke-width: 0.8"/>
      </g>
     </g>
     <g id="text_2">
      <!-- 20 -->
      <g transform="translate(109.90873 322.182437) scale(0.1 -0.1)">
       <defs>
        <path id="DejaVuSans-32" d="M 1228 531 
L 3431 531 
L 3431 0 
L 469 0 
L 469 531 
Q 828 903 1448 1529 
Q 2069 2156 2228 2338 
Q 2531 2678 2651 2914 
Q 2772 3150 2772 3378 
Q 2772 3750 2511 3984 
Q 2250 4219 1831 4219 
Q 1534 4219 1204 4116 
Q 875 4013 500 3803 
L 500 4441 
Q 881 4594 1212 4672 
Q 1544 4750 1819 4750 
Q 2544 4750 2975 4387 
Q 3406 4025 3406 3419 
Q 3406 3131 3298 2873 
Q 3191 2616 2906 2266 
Q 2828 2175 2409 1742 
Q 1991 1309 1228 531 
z
" transform="scale(0.015625)"/>
       </defs>
       <use xlink:href="#DejaVuSans-32"/>
       <use xlink:href="#DejaVuSans-30" x="63.623047"/>
      </g>
     </g>
    </g>
    <g id="xtick_3">
     <g id="line2d_3">
      <g>
       <use xlink:href="#m41135b4066" x="158.709733" y="307.584" style="stroke: #000000; stroke-width: 0.8"/>
      </g>
     </g>
     <g id="text_3">
      <!-- 40 -->
      <g transform="translate(152.347233 322.182437) scale(0.1 -0.1)">
       <defs>
        <path id="DejaVuSans-34" d="M 2419 4116 
L 825 1625 
L 2419 1625 
L 2419 4116 
z
M 2253 4666 
L 3047 4666 
L 3047 1625 
L 3713 1625 
L 3713 1100 
L 3047 1100 
L 3047 0 
L 2419 0 
L 2419 1100 
L 313 1100 
L 313 1709 
L 2253 4666 
z
" transform="scale(0.015625)"/>
       </defs>
       <use xlink:href="#DejaVuSans-34"/>
       <use xlink:href="#DejaVuSans-30" x="63.623047"/>
      </g>
     </g>
    </g>
    <g id="xtick_4">
     <g id="line2d_4">
      <g>
       <use xlink:href="#m41135b4066" x="201.148235" y="307.584" style="stroke: #000000; stroke-width: 0.8"/>
      </g>
     </g>
     <g id="text_4">
      <!-- 60 -->
      <g transform="translate(194.785735 322.182437) scale(0.1 -0.1)">
       <defs>
        <path id="DejaVuSans-36" d="M 2113 2584 
Q 1688 2584 1439 2293 
Q 1191 2003 1191 1497 
Q 1191 994 1439 701 
Q 1688 409 2113 409 
Q 2538 409 2786 701 
Q 3034 994 3034 1497 
Q 3034 2003 2786 2293 
Q 2538 2584 2113 2584 
z
M 3366 4563 
L 3366 3988 
Q 3128 4100 2886 4159 
Q 2644 4219 2406 4219 
Q 1781 4219 1451 3797 
Q 1122 3375 1075 2522 
Q 1259 2794 1537 2939 
Q 1816 3084 2150 3084 
Q 2853 3084 3261 2657 
Q 3669 2231 3669 1497 
Q 3669 778 3244 343 
Q 2819 -91 2113 -91 
Q 1303 -91 875 529 
Q 447 1150 447 2328 
Q 447 3434 972 4092 
Q 1497 4750 2381 4750 
Q 2619 4750 2861 4703 
Q 3103 4656 3366 4563 
z
" transform="scale(0.015625)"/>
       </defs>
       <use xlink:href="#DejaVuSans-36"/>
       <use xlink:href="#DejaVuSans-30" x="63.623047"/>
      </g>
     </g>
    </g>
    <g id="xtick_5">
     <g id="line2d_5">
      <g>
       <use xlink:href="#m41135b4066" x="243.586738" y="307.584" style="stroke: #000000; stroke-width: 0.8"/>
      </g>
     </g>
     <g id="text_5">
      <!-- 80 -->
      <g transform="translate(237.224238 322.182437) scale(0.1 -0.1)">
       <defs>
        <path id="DejaVuSans-38" d="M 2034 2216 
Q 1584 2216 1326 1975 
Q 1069 1734 1069 1313 
Q 1069 891 1326 650 
Q 1584 409 2034 409 
Q 2484 409 2743 651 
Q 3003 894 3003 1313 
Q 3003 1734 2745 1975 
Q 2488 2216 2034 2216 
z
M 1403 2484 
Q 997 2584 770 2862 
Q 544 3141 544 3541 
Q 544 4100 942 4425 
Q 1341 4750 2034 4750 
Q 2731 4750 3128 4425 
Q 3525 4100 3525 3541 
Q 3525 3141 3298 2862 
Q 3072 2584 2669 2484 
Q 3125 2378 3379 2068 
Q 3634 1759 3634 1313 
Q 3634 634 3220 271 
Q 2806 -91 2034 -91 
Q 1263 -91 848 271 
Q 434 634 434 1313 
Q 434 1759 690 2068 
Q 947 2378 1403 2484 
z
M 1172 3481 
Q 1172 3119 1398 2916 
Q 1625 2713 2034 2713 
Q 2441 2713 2670 2916 
Q 2900 3119 2900 3481 
Q 2900 3844 2670 4047 
Q 2441 4250 2034 4250 
Q 1625 4250 1398 4047 
Q 1172 3844 1172 3481 
z
" transform="scale(0.015625)"/>
       </defs>
       <use xlink:href="#DejaVuSans-38"/>
       <use xlink:href="#DejaVuSans-30" x="63.623047"/>
      </g>
     </g>
    </g>
    <g id="xtick_6">
     <g id="line2d_6">
      <g>
       <use xlink:href="#m41135b4066" x="286.025241" y="307.584" style="stroke: #000000; stroke-width: 0.8"/>
      </g>
     </g>
     <g id="text_6">
      <!-- 100 -->
      <g transform="translate(276.481491 322.182437) scale(0.1 -0.1)">
       <defs>
        <path id="DejaVuSans-31" d="M 794 531 
L 1825 531 
L 1825 4091 
L 703 3866 
L 703 4441 
L 1819 4666 
L 2450 4666 
L 2450 531 
L 3481 531 
L 3481 0 
L 794 0 
L 794 531 
z
" transform="scale(0.015625)"/>
       </defs>
       <use xlink:href="#DejaVuSans-31"/>
       <use xlink:href="#DejaVuSans-30" x="63.623047"/>
       <use xlink:href="#DejaVuSans-30" x="127.246094"/>
      </g>
     </g>
    </g>
    <g id="xtick_7">
     <g id="line2d_7">
      <g>
       <use xlink:href="#m41135b4066" x="328.463743" y="307.584" style="stroke: #000000; stroke-width: 0.8"/>
      </g>
     </g>
     <g id="text_7">
      <!-- 120 -->
      <g transform="translate(318.919993 322.182437) scale(0.1 -0.1)">
       <use xlink:href="#DejaVuSans-31"/>
       <use xlink:href="#DejaVuSans-32" x="63.623047"/>
       <use xlink:href="#DejaVuSans-30" x="127.246094"/>
      </g>
     </g>
    </g>
    <g id="xtick_8">
     <g id="line2d_8">
      <g>
       <use xlink:href="#m41135b4066" x="370.902246" y="307.584" style="stroke: #000000; stroke-width: 0.8"/>
      </g>
     </g>
     <g id="text_8">
      <!-- 140 -->
      <g transform="translate(361.358496 322.182437) scale(0.1 -0.1)">
       <use xlink:href="#DejaVuSans-31"/>
       <use xlink:href="#DejaVuSans-34" x="63.623047"/>
       <use xlink:href="#DejaVuSans-30" x="127.246094"/>
      </g>
     </g>
    </g>
    <g id="xtick_9">
     <g id="line2d_9">
      <g>
       <use xlink:href="#m41135b4066" x="413.340749" y="307.584" style="stroke: #000000; stroke-width: 0.8"/>
      </g>
     </g>
     <g id="text_9">
      <!-- 160 -->
      <g transform="translate(403.796999 322.182437) scale(0.1 -0.1)">
       <use xlink:href="#DejaVuSans-31"/>
       <use xlink:href="#DejaVuSans-36" x="63.623047"/>
       <use xlink:href="#DejaVuSans-30" x="127.246094"/>
      </g>
     </g>
    </g>
   </g>
   <g id="matplotlib.axis_2">
    <g id="ytick_1">
     <g id="line2d_10">
      <defs>
       <path id="mab7eb6b14f" d="M 0 0 
L -3.5 0 
" style="stroke: #000000; stroke-width: 0.8"/>
      </defs>
      <g>
       <use xlink:href="#mab7eb6b14f" x="57.6" y="288.214406" style="stroke: #000000; stroke-width: 0.8"/>
      </g>
     </g>
     <g id="text_10">
      <!-- −0.02 -->
      <g transform="translate(19.954687 292.013624) scale(0.1 -0.1)">
       <defs>
        <path id="DejaVuSans-2212" d="M 678 2272 
L 4684 2272 
L 4684 1741 
L 678 1741 
L 678 2272 
z
" transform="scale(0.015625)"/>
        <path id="DejaVuSans-2e" d="M 684 794 
L 1344 794 
L 1344 0 
L 684 0 
L 684 794 
z
" transform="scale(0.015625)"/>
       </defs>
       <use xlink:href="#DejaVuSans-2212"/>
       <use xlink:href="#DejaVuSans-30" x="83.789062"/>
       <use xlink:href="#DejaVuSans-2e" x="147.412109"/>
       <use xlink:href="#DejaVuSans-30" x="179.199219"/>
       <use xlink:href="#DejaVuSans-32" x="242.822266"/>
      </g>
     </g>
    </g>
    <g id="ytick_2">
     <g id="line2d_11">
      <g>
       <use xlink:href="#mab7eb6b14f" x="57.6" y="244.516664" style="stroke: #000000; stroke-width: 0.8"/>
      </g>
     </g>
     <g id="text_11">
      <!-- −0.01 -->
      <g transform="translate(19.954687 248.315883) scale(0.1 -0.1)">
       <use xlink:href="#DejaVuSans-2212"/>
       <use xlink:href="#DejaVuSans-30" x="83.789062"/>
       <use xlink:href="#DejaVuSans-2e" x="147.412109"/>
       <use xlink:href="#DejaVuSans-30" x="179.199219"/>
       <use xlink:href="#DejaVuSans-31" x="242.822266"/>
      </g>
     </g>
    </g>
    <g id="ytick_3">
     <g id="line2d_12">
      <g>
       <use xlink:href="#mab7eb6b14f" x="57.6" y="200.818923" style="stroke: #000000; stroke-width: 0.8"/>
      </g>
     </g>
     <g id="text_12">
      <!-- 0.00 -->
      <g transform="translate(28.334375 204.618142) scale(0.1 -0.1)">
       <use xlink:href="#DejaVuSans-30"/>
       <use xlink:href="#DejaVuSans-2e" x="63.623047"/>
       <use xlink:href="#DejaVuSans-30" x="95.410156"/>
       <use xlink:href="#DejaVuSans-30" x="159.033203"/>
      </g>
     </g>
    </g>
    <g id="ytick_4">
     <g id="line2d_13">
      <g>
       <use xlink:href="#mab7eb6b14f" x="57.6" y="157.121182" style="stroke: #000000; stroke-width: 0.8"/>
      </g>
     </g>
     <g id="text_13">
      <!-- 0.01 -->
      <g transform="translate(28.334375 160.920401) scale(0.1 -0.1)">
       <use xlink:href="#DejaVuSans-30"/>
       <use xlink:href="#DejaVuSans-2e" x="63.623047"/>
       <use xlink:href="#DejaVuSans-30" x="95.410156"/>
       <use xlink:href="#DejaVuSans-31" x="159.033203"/>
      </g>
     </g>
    </g>
    <g id="ytick_5">
     <g id="line2d_14">
      <g>
       <use xlink:href="#mab7eb6b14f" x="57.6" y="113.423441" style="stroke: #000000; stroke-width: 0.8"/>
      </g>
     </g>
     <g id="text_14">
      <!-- 0.02 -->
      <g transform="translate(28.334375 117.222659) scale(0.1 -0.1)">
       <use xlink:href="#DejaVuSans-30"/>
       <use xlink:href="#DejaVuSans-2e" x="63.623047"/>
       <use xlink:href="#DejaVuSans-30" x="95.410156"/>
       <use xlink:href="#DejaVuSans-32" x="159.033203"/>
      </g>
     </g>
    </g>
    <g id="ytick_6">
     <g id="line2d_15">
      <g>
       <use xlink:href="#mab7eb6b14f" x="57.6" y="69.725699" style="stroke: #000000; stroke-width: 0.8"/>
      </g>
     </g>
     <g id="text_15">
      <!-- 0.03 -->
      <g transform="translate(28.334375 73.524918) scale(0.1 -0.1)">
       <defs>
        <path id="DejaVuSans-33" d="M 2597 2516 
Q 3050 2419 3304 2112 
Q 3559 1806 3559 1356 
Q 3559 666 3084 287 
Q 2609 -91 1734 -91 
Q 1441 -91 1130 -33 
Q 819 25 488 141 
L 488 750 
Q 750 597 1062 519 
Q 1375 441 1716 441 
Q 2309 441 2620 675 
Q 2931 909 2931 1356 
Q 2931 1769 2642 2001 
Q 2353 2234 1838 2234 
L 1294 2234 
L 1294 2753 
L 1863 2753 
Q 2328 2753 2575 2939 
Q 2822 3125 2822 3475 
Q 2822 3834 2567 4026 
Q 2313 4219 1838 4219 
Q 1578 4219 1281 4162 
Q 984 4106 628 3988 
L 628 4550 
Q 988 4650 1302 4700 
Q 1616 4750 1894 4750 
Q 2613 4750 3031 4423 
Q 3450 4097 3450 3541 
Q 3450 3153 3228 2886 
Q 3006 2619 2597 2516 
z
" transform="scale(0.015625)"/>
       </defs>
       <use xlink:href="#DejaVuSans-30"/>
       <use xlink:href="#DejaVuSans-2e" x="63.623047"/>
       <use xlink:href="#DejaVuSans-30" x="95.410156"/>
       <use xlink:href="#DejaVuSans-33" x="159.033203"/>
      </g>
     </g>
    </g>
   </g>
   <g id="line2d_16">
    <path d="M 73.832727 206.566017 
L 75.954652 207.824993 
L 78.076578 210.405345 
L 80.198503 203.755937 
L 82.320428 209.271078 
L 84.442353 196.353125 
L 86.564278 203.952222 
L 88.686203 209.917589 
L 90.808128 206.462305 
L 92.930053 215.097438 
L 95.051979 213.300818 
L 97.173904 214.379921 
L 99.295829 204.728359 
L 101.417754 214.824914 
L 103.539679 218.115191 
L 105.661604 219.677809 
L 107.783529 203.190279 
L 109.905455 208.489369 
L 112.02738 206.845157 
L 114.149305 205.510061 
L 116.27123 216.601278 
L 118.393155 208.547334 
L 120.51508 216.101427 
L 122.637005 219.601059 
L 124.75893 211.291638 
L 126.880856 208.126531 
L 129.002781 211.288287 
L 131.124706 199.414522 
L 133.246631 216.039382 
L 135.368556 204.055744 
L 137.490481 207.401307 
L 141.734332 204.078608 
L 143.856257 209.148523 
L 148.100107 215.579027 
L 150.222032 204.302228 
L 152.343957 198.624411 
L 154.465882 213.852686 
L 156.587807 203.566285 
L 158.709733 201.078357 
L 160.831658 209.142822 
L 162.953583 206.13832 
L 165.075508 213.537161 
L 167.197433 209.896312 
L 169.319358 206.012326 
L 171.441283 202.955 
L 173.563209 213.171667 
L 175.685134 210.699767 
L 177.807059 209.234738 
L 179.928984 203.537184 
L 182.050909 203.832199 
L 184.172834 206.730653 
L 186.294759 232.904438 
L 188.416684 178.290315 
L 190.53861 216.834022 
L 192.660535 217.864027 
L 194.78246 215.549742 
L 196.904385 204.276577 
L 199.02631 225.068044 
L 201.148235 216.891413 
L 203.27016 211.038269 
L 205.392086 211.747175 
L 207.514011 227.570611 
L 209.635936 219.782469 
L 211.757861 217.674767 
L 213.879786 217.999729 
L 216.001711 209.609467 
L 218.123636 203.28846 
L 220.245561 207.598553 
L 222.367487 207.882821 
L 224.489412 216.767196 
L 226.611337 212.194375 
L 228.733262 223.939428 
L 230.855187 221.108765 
L 232.977112 216.266748 
L 235.099037 215.749076 
L 237.220963 204.358032 
L 239.342888 216.492504 
L 241.464813 202.117017 
L 243.586738 211.93671 
L 245.708663 207.227928 
L 247.830588 215.382706 
L 249.952513 210.628654 
L 252.074439 217.429008 
L 254.196364 213.431967 
L 256.318289 206.206301 
L 258.440214 203.70165 
L 260.562139 208.288721 
L 262.684064 208.912212 
L 264.805989 210.292979 
L 266.927914 207.104012 
L 269.04984 215.772737 
L 271.171765 199.045448 
L 273.29369 203.546236 
L 275.415615 206.831377 
L 277.53754 205.818779 
L 279.659465 206.266831 
L 281.78139 211.284525 
L 283.903316 212.276242 
L 286.025241 211.565943 
L 288.147166 213.945855 
L 290.269091 208.967728 
L 292.391016 217.068403 
L 294.512941 199.251475 
L 296.634866 191.033866 
L 298.756791 223.979896 
L 300.878717 213.654131 
L 303.000642 208.408749 
L 305.122567 204.462937 
L 307.244492 204.550022 
L 309.366417 225.812065 
L 311.488342 202.865444 
L 313.610267 216.551574 
L 315.732193 200.990051 
L 317.854118 223.307483 
L 319.976043 212.586847 
L 322.097968 204.466189 
L 324.219893 214.525894 
L 326.341818 219.345361 
L 328.463743 210.368343 
L 330.585668 210.213505 
L 332.707594 221.082481 
L 334.829519 233.423149 
L 336.951444 222.94136 
L 339.073369 223.947852 
L 341.195294 225.303519 
L 343.317219 215.417796 
L 345.439144 228.867054 
L 347.56107 215.967354 
L 349.682995 214.918034 
L 351.80492 212.847173 
L 353.926845 217.298337 
L 356.04877 213.099881 
L 358.170695 221.739985 
L 360.29262 217.081484 
L 362.414545 209.916128 
L 364.536471 207.641326 
L 366.658396 212.888508 
L 368.780321 211.349258 
L 370.902246 212.151313 
L 373.024171 221.480078 
L 375.146096 210.03466 
L 377.268021 203.256216 
L 379.389947 209.14767 
L 381.511872 206.755436 
L 383.633797 206.71172 
L 385.755722 213.305862 
L 387.877647 212.773538 
L 389.999572 218.660887 
L 392.121497 219.954689 
L 394.243422 205.32116 
L 396.365348 217.492419 
L 398.487273 203.496076 
L 398.487273 203.496076 
" clip-path="url(#pa79da10ffc)" style="fill: none; stroke: #008000; stroke-opacity: 0.8; stroke-width: 0.5; stroke-linecap: square"/>
   </g>
   <g id="line2d_17">
    <path d="M 73.832727 167.823477 
L 75.954652 158.067679 
L 78.076578 170.425148 
L 80.198503 167.676109 
L 82.320428 187.367071 
L 84.442353 173.663948 
L 86.564278 165.704607 
L 88.686203 172.352509 
L 90.808128 103.353464 
L 92.930053 169.305083 
L 95.051979 187.033532 
L 97.173904 162.95946 
L 99.295829 168.449383 
L 101.417754 157.550575 
L 103.539679 187.519935 
L 105.661604 183.17565 
L 107.783529 160.664853 
L 109.905455 171.504021 
L 112.02738 171.39622 
L 114.149305 169.542079 
L 116.27123 177.003262 
L 118.393155 181.641443 
L 120.51508 169.527439 
L 122.637005 152.389138 
L 124.75893 178.776032 
L 126.880856 181.112012 
L 129.002781 178.716679 
L 131.124706 154.362791 
L 133.246631 183.621347 
L 135.368556 170.007858 
L 137.490481 185.199793 
L 139.612406 178.315106 
L 141.734332 191.697863 
L 143.856257 195.25205 
L 145.978182 182.348264 
L 148.100107 196.91992 
L 150.222032 173.889889 
L 152.343957 176.519792 
L 154.465882 171.019958 
L 156.587807 187.46025 
L 158.709733 173.067603 
L 160.831658 177.073152 
L 162.953583 179.998313 
L 165.075508 196.733314 
L 167.197433 198.417469 
L 169.319358 185.349533 
L 171.441283 185.512136 
L 173.563209 179.996117 
L 175.685134 190.258909 
L 177.807059 188.147521 
L 179.928984 180.335529 
L 184.172834 191.872891 
L 186.294759 189.874877 
L 188.416684 79.08394 
L 190.53861 159.981582 
L 192.660535 186.786964 
L 194.78246 191.359788 
L 196.904385 181.095591 
L 199.02631 192.074148 
L 201.148235 179.805886 
L 205.392086 187.09028 
L 207.514011 200.651564 
L 209.635936 173.713691 
L 211.757861 170.352075 
L 213.879786 175.003881 
L 216.001711 186.458091 
L 218.123636 173.267457 
L 220.245561 166.983393 
L 222.367487 176.64626 
L 224.489412 177.606079 
L 226.611337 194.808535 
L 228.733262 200.916282 
L 230.855187 198.267956 
L 232.977112 152.384587 
L 235.099037 181.478056 
L 237.220963 175.389806 
L 239.342888 188.505066 
L 241.464813 176.81619 
L 243.586738 179.839559 
L 245.708663 171.193062 
L 247.830588 194.287744 
L 249.952513 165.657791 
L 252.074439 181.350551 
L 254.196364 189.505581 
L 256.318289 174.346929 
L 258.440214 147.394574 
L 260.562139 191.282266 
L 262.684064 173.175168 
L 264.805989 175.810992 
L 266.927914 175.437275 
L 269.04984 193.102801 
L 271.171765 177.663742 
L 273.29369 171.556671 
L 275.415615 186.408361 
L 277.53754 151.307702 
L 279.659465 161.017799 
L 281.78139 177.328922 
L 283.903316 185.478419 
L 286.025241 172.740561 
L 288.147166 186.974784 
L 290.269091 173.890501 
L 292.391016 176.999615 
L 294.512941 179.554496 
L 296.634866 132.68478 
L 298.756791 171.059939 
L 300.878717 168.010364 
L 303.000642 185.914817 
L 305.122567 175.802605 
L 307.244492 148.37189 
L 309.366417 172.772636 
L 311.488342 160.505484 
L 313.610267 182.93328 
L 315.732193 142.818821 
L 317.854118 179.206223 
L 319.976043 160.144518 
L 322.097968 165.784215 
L 324.219893 181.700575 
L 326.341818 146.804547 
L 328.463743 149.84877 
L 330.585668 161.779035 
L 332.707594 154.571852 
L 334.829519 182.470916 
L 336.951444 188.079071 
L 339.073369 195.09671 
L 341.195294 194.387066 
L 343.317219 156.897713 
L 345.439144 204.169732 
L 347.56107 166.375396 
L 349.682995 189.862863 
L 351.80492 186.796564 
L 353.926845 148.839674 
L 356.04877 161.445604 
L 358.170695 181.450643 
L 360.29262 182.724308 
L 362.414545 184.397598 
L 364.536471 182.320182 
L 366.658396 177.097374 
L 368.780321 184.493135 
L 370.902246 184.0939 
L 373.024171 188.878448 
L 375.146096 173.839991 
L 377.268021 181.613796 
L 379.389947 173.776814 
L 381.511872 167.764241 
L 383.633797 178.288076 
L 385.755722 167.617114 
L 387.877647 173.676797 
L 389.999572 198.007791 
L 392.121497 193.799199 
L 394.243422 182.282612 
L 396.365348 159.514146 
L 398.487273 187.417095 
L 398.487273 187.417095 
" clip-path="url(#pa79da10ffc)" style="fill: none; stroke: #32cd32; stroke-opacity: 0.8; stroke-width: 0.5; stroke-linecap: square"/>
   </g>
   <g id="line2d_18">
    <path d="M 73.832727 244.803193 
L 75.954652 253.651956 
L 78.076578 253.13662 
L 80.198503 254.743799 
L 82.320428 233.213305 
L 84.442353 234.472497 
L 86.564278 245.654828 
L 88.686203 275.135799 
L 90.808128 242.838942 
L 92.930053 243.298261 
L 95.051979 253.281211 
L 97.173904 246.07016 
L 99.295829 233.707353 
L 101.417754 245.894045 
L 103.539679 261.49945 
L 105.661604 260.604279 
L 107.783529 233.987472 
L 109.905455 238.487457 
L 112.02738 246.721816 
L 114.149305 249.996966 
L 116.27123 255.322713 
L 118.393155 231.814093 
L 120.51508 247.389275 
L 122.637005 258.000096 
L 124.75893 228.853172 
L 126.880856 252.742955 
L 129.002781 233.430155 
L 131.124706 216.432519 
L 133.246631 238.733916 
L 135.368556 229.629273 
L 137.490481 228.00517 
L 139.612406 224.296735 
L 141.734332 212.644275 
L 143.856257 232.130568 
L 145.978182 242.5704 
L 148.100107 252.419536 
L 150.222032 231.891546 
L 152.343957 223.467729 
L 154.465882 267.895994 
L 156.587807 230.527205 
L 158.709733 235.85015 
L 160.831658 240.692371 
L 162.953583 223.722996 
L 165.075508 230.200138 
L 167.197433 227.372772 
L 169.319358 225.486908 
L 171.441283 216.526049 
L 173.563209 234.596449 
L 175.685134 242.833885 
L 177.807059 232.403412 
L 179.928984 222.562661 
L 182.050909 229.237066 
L 184.172834 234.478018 
L 186.294759 282.071056 
L 188.416684 226.90133 
L 190.53861 270.239433 
L 192.660535 245.459657 
L 194.78246 238.935742 
L 196.904385 227.05739 
L 199.02631 248.745006 
L 203.27016 263.14587 
L 205.392086 233.805051 
L 207.514011 246.617657 
L 209.635936 265.309687 
L 211.757861 249.232867 
L 213.879786 262.655417 
L 216.001711 233.092377 
L 218.123636 240.045934 
L 220.245561 235.57429 
L 222.367487 237.504897 
L 224.489412 256.112913 
L 226.611337 237.438133 
L 228.733262 275.775756 
L 230.855187 242.909519 
L 232.977112 249.320742 
L 235.099037 244.982505 
L 237.220963 251.451836 
L 239.342888 242.591637 
L 241.464813 229.060185 
L 243.586738 248.311703 
L 245.708663 237.401721 
L 247.830588 233.886181 
L 249.952513 242.662119 
L 252.074439 255.985551 
L 254.196364 235.914416 
L 256.318289 233.009849 
L 258.440214 234.731497 
L 260.562139 235.690715 
L 262.684064 241.429621 
L 264.805989 228.902897 
L 266.927914 235.691431 
L 269.04984 226.694235 
L 271.171765 217.170442 
L 273.29369 229.078335 
L 275.415615 236.024988 
L 277.53754 244.502818 
L 279.659465 228.472567 
L 281.78139 253.698404 
L 283.903316 245.621489 
L 286.025241 230.761323 
L 288.147166 242.516559 
L 290.269091 237.116514 
L 292.391016 259.369027 
L 294.512941 236.197741 
L 296.634866 225.581729 
L 298.756791 295.488 
L 300.878717 259.612336 
L 303.000642 245.059253 
L 305.122567 242.938503 
L 307.244492 253.682829 
L 309.366417 257.761244 
L 311.488342 255.625221 
L 313.610267 250.82039 
L 315.732193 223.134984 
L 317.854118 254.824455 
L 319.976043 259.729881 
L 322.097968 246.153867 
L 324.219893 255.409445 
L 326.341818 262.118549 
L 328.463743 278.035244 
L 330.585668 278.649441 
L 332.707594 268.330911 
L 334.829519 292.264978 
L 336.951444 264.459621 
L 339.073369 266.161553 
L 341.195294 256.842543 
L 343.317219 273.901157 
L 345.439144 262.01245 
L 347.56107 284.972548 
L 349.682995 243.710802 
L 351.80492 259.429089 
L 353.926845 254.556716 
L 356.04877 241.853388 
L 358.170695 266.308395 
L 360.29262 248.323668 
L 362.414545 246.11208 
L 364.536471 233.461361 
L 366.658396 246.109589 
L 368.780321 249.418354 
L 370.902246 250.200442 
L 373.024171 270.347442 
L 377.268021 213.848589 
L 379.389947 237.136403 
L 381.511872 229.837684 
L 383.633797 239.554448 
L 385.755722 234.228369 
L 387.877647 250.950151 
L 389.999572 257.246418 
L 392.121497 285.70975 
L 394.243422 224.729429 
L 396.365348 251.11118 
L 398.487273 238.500597 
L 398.487273 238.500597 
" clip-path="url(#pa79da10ffc)" style="fill: none; stroke: #32cd32; stroke-opacity: 0.8; stroke-width: 0.5; stroke-linecap: square"/>
   </g>
   <g id="line2d_19">
    <path d="M 73.832727 192.952355 
L 75.954652 188.253694 
L 78.076578 193.430561 
L 80.198503 187.03509 
L 82.320428 193.698104 
L 84.442353 179.996238 
L 86.564278 183.234879 
L 88.686203 188.409425 
L 90.808128 184.6754 
L 92.930053 189.712889 
L 95.051979 191.496991 
L 97.173904 190.771965 
L 99.295829 189.003658 
L 101.417754 196.795907 
L 103.539679 194.906668 
L 105.661604 197.636828 
L 107.783529 180.142741 
L 109.905455 191.436199 
L 112.02738 191.864234 
L 114.149305 191.730974 
L 116.27123 197.064431 
L 118.393155 193.826523 
L 122.637005 196.452964 
L 124.75893 185.681748 
L 126.880856 188.982316 
L 129.002781 197.969436 
L 131.124706 189.938663 
L 133.246631 202.846252 
L 135.368556 192.399131 
L 137.490481 196.009647 
L 139.612406 192.9518 
L 141.734332 196.302408 
L 143.856257 197.143154 
L 145.978182 196.664678 
L 148.100107 200.284492 
L 150.222032 190.158989 
L 152.343957 187.149945 
L 154.465882 199.241055 
L 156.587807 196.480312 
L 158.709733 189.640629 
L 160.831658 196.176358 
L 162.953583 193.362577 
L 165.075508 199.536833 
L 167.197433 195.244149 
L 169.319358 191.415354 
L 171.441283 194.292113 
L 173.563209 199.085221 
L 175.685134 195.936382 
L 177.807059 191.582102 
L 179.928984 192.019878 
L 182.050909 192.943819 
L 184.172834 193.023359 
L 186.294759 215.929873 
L 188.416684 158.14062 
L 190.53861 201.764264 
L 192.660535 197.776506 
L 194.78246 195.540255 
L 196.904385 189.131128 
L 199.02631 205.841048 
L 201.148235 193.434819 
L 203.27016 185.548293 
L 205.392086 192.625261 
L 207.514011 205.00717 
L 209.635936 189.48882 
L 211.757861 187.241357 
L 213.879786 187.577331 
L 216.001711 186.135371 
L 218.123636 180.180138 
L 220.245561 187.532837 
L 222.367487 182.563995 
L 224.489412 198.857484 
L 226.611337 195.720654 
L 228.733262 192.197455 
L 230.855187 190.81833 
L 232.977112 186.513575 
L 235.099037 193.724234 
L 237.220963 183.144646 
L 239.342888 189.357327 
L 241.464813 183.385609 
L 243.586738 187.628294 
L 245.708663 182.237955 
L 247.830588 195.331176 
L 249.952513 193.691451 
L 252.074439 195.451521 
L 254.196364 188.478133 
L 256.318289 190.39399 
L 258.440214 183.10343 
L 260.562139 187.897483 
L 262.684064 183.605518 
L 264.805989 186.196757 
L 266.927914 187.700348 
L 269.04984 195.724621 
L 271.171765 188.699488 
L 273.29369 186.529398 
L 275.415615 188.885114 
L 277.53754 185.124999 
L 279.659465 182.494422 
L 281.78139 180.093028 
L 283.903316 187.80561 
L 286.025241 193.927653 
L 288.147166 193.348566 
L 290.269091 195.541995 
L 292.391016 195.747356 
L 294.512941 181.900595 
L 296.634866 173.74618 
L 298.756791 199.286122 
L 300.878717 190.463176 
L 303.000642 180.0872 
L 305.122567 174.699455 
L 307.244492 181.49364 
L 309.366417 199.764366 
L 311.488342 180.979253 
L 313.610267 198.5049 
L 315.732193 172.990496 
L 317.854118 185.67124 
L 319.976043 183.77336 
L 322.097968 184.575985 
L 324.219893 181.127703 
L 326.341818 190.028577 
L 328.463743 176.901906 
L 330.585668 187.07113 
L 332.707594 199.404365 
L 334.829519 204.826825 
L 336.951444 182.233547 
L 339.073369 188.33231 
L 341.195294 187.479954 
L 343.317219 186.24553 
L 345.439144 193.517255 
L 347.56107 180.877134 
L 349.682995 186.907245 
L 351.80492 183.356778 
L 353.926845 182.852267 
L 356.04877 190.816954 
L 358.170695 197.696435 
L 360.29262 193.652069 
L 362.414545 179.627095 
L 364.536471 181.182614 
L 366.658396 185.042395 
L 370.902246 198.051891 
L 373.024171 193.453217 
L 375.146096 188.210552 
L 377.268021 186.685452 
L 379.389947 176.681153 
L 381.511872 179.387921 
L 383.633797 178.59043 
L 385.755722 183.246849 
L 387.877647 197.352673 
L 389.999572 198.037215 
L 392.121497 199.655909 
L 394.243422 184.941877 
L 396.365348 203.53181 
L 398.487273 197.698514 
L 398.487273 197.698514 
" clip-path="url(#pa79da10ffc)" style="fill: none; stroke: #ff0000; stroke-opacity: 0.8; stroke-width: 0.5; stroke-linecap: square"/>
   </g>
   <g id="line2d_20">
    <path d="M 73.832727 146.079933 
L 75.954652 138.961276 
L 78.076578 151.253896 
L 80.198503 143.375834 
L 82.320428 170.09252 
L 84.442353 149.82956 
L 86.564278 144.209642 
L 88.686203 154.423113 
L 90.808128 81.894656 
L 92.930053 158.541158 
L 95.051979 172.092918 
L 97.173904 146.114514 
L 99.295829 152.848657 
L 101.417754 136.160178 
L 103.539679 157.516079 
L 105.661604 165.456622 
L 107.783529 150.270114 
L 109.905455 162.361066 
L 112.02738 164.479186 
L 114.149305 160.030749 
L 116.27123 153.882902 
L 118.393155 172.937651 
L 120.51508 156.124621 
L 122.637005 131.156901 
L 124.75893 158.407734 
L 126.880856 168.210593 
L 129.002781 157.120529 
L 131.124706 147.158478 
L 133.246631 171.888239 
L 135.368556 157.716025 
L 137.490481 171.643236 
L 139.612406 162.417567 
L 141.734332 183.201636 
L 143.856257 183.246391 
L 145.978182 166.118253 
L 148.100107 177.835189 
L 150.222032 153.34737 
L 152.343957 161.852458 
L 154.465882 157.229271 
L 156.587807 176.240081 
L 158.709733 163.243853 
L 160.831658 159.049947 
L 162.953583 172.689832 
L 165.075508 184.804013 
L 167.197433 183.28796 
L 169.319358 173.447912 
L 171.441283 176.332876 
L 173.563209 160.742866 
L 175.685134 172.005821 
L 177.807059 170.835979 
L 179.928984 172.118313 
L 182.050909 176.909149 
L 184.172834 177.956477 
L 186.294759 171.31533 
L 188.416684 53.568 
L 190.53861 148.066448 
L 192.660535 149.729402 
L 194.78246 170.295817 
L 196.904385 164.024633 
L 199.02631 170.027885 
L 201.148235 149.541351 
L 203.27016 142.98265 
L 205.392086 164.357161 
L 207.514011 175.757527 
L 209.635936 141.991691 
L 211.757861 136.260071 
L 213.879786 157.121907 
L 216.001711 156.529287 
L 218.123636 150.738419 
L 220.245561 156.688713 
L 222.367487 154.156395 
L 224.489412 159.12691 
L 226.611337 176.63733 
L 228.733262 171.316088 
L 230.855187 166.505927 
L 232.977112 134.448763 
L 235.099037 154.646239 
L 237.220963 153.133078 
L 239.342888 163.812346 
L 241.464813 151.039162 
L 243.586738 158.674764 
L 245.708663 142.081966 
L 247.830588 174.488521 
L 249.952513 147.388398 
L 254.196364 161.112929 
L 256.318289 160.035602 
L 258.440214 135.382461 
L 260.562139 172.123826 
L 262.684064 152.701292 
L 264.805989 149.794111 
L 266.927914 156.526484 
L 269.04984 176.834172 
L 271.171765 171.662328 
L 273.29369 157.51564 
L 275.415615 174.337553 
L 277.53754 131.103122 
L 279.659465 141.297177 
L 281.78139 148.29766 
L 283.903316 164.176532 
L 286.025241 153.343876 
L 288.147166 163.655875 
L 290.269091 157.460634 
L 292.391016 145.03413 
L 294.512941 162.544411 
L 296.634866 107.027719 
L 298.756791 150.059187 
L 300.878717 142.150628 
L 303.000642 153.960774 
L 305.122567 146.268414 
L 307.244492 127.871677 
L 309.366417 153.197691 
L 311.488342 138.283704 
L 313.610267 165.436014 
L 315.732193 114.149237 
L 317.854118 134.938886 
L 319.976043 141.914699 
L 322.097968 151.256472 
L 324.219893 133.295556 
L 326.341818 117.606996 
L 328.463743 117.445305 
L 330.585668 129.518773 
L 332.707594 134.41202 
L 334.829519 149.785498 
L 336.951444 132.229531 
L 339.073369 160.617953 
L 341.195294 159.916598 
L 343.317219 127.961711 
L 345.439144 165.483906 
L 347.56107 125.578825 
L 349.682995 156.315845 
L 351.80492 149.044777 
L 353.926845 120.464579 
L 356.04877 144.12508 
L 358.170695 155.366599 
L 360.29262 154.84885 
L 362.414545 154.985808 
L 364.536471 159.843817 
L 366.658396 154.505175 
L 368.780321 166.791308 
L 370.902246 171.018482 
L 375.146096 152.396761 
L 377.268021 169.780434 
L 379.389947 140.498897 
L 381.511872 149.412736 
L 383.633797 156.529277 
L 385.755722 140.342101 
L 387.877647 158.911748 
L 389.999572 173.599696 
L 392.121497 171.918346 
L 394.243422 150.645071 
L 396.365348 147.882669 
L 398.487273 175.397307 
L 398.487273 175.397307 
" clip-path="url(#pa79da10ffc)" style="fill: none; stroke: #f08080; stroke-opacity: 0.8; stroke-width: 0.5; stroke-linecap: square"/>
   </g>
   <g id="line2d_21">
    <path d="M 73.832727 241.115471 
L 75.954652 225.386219 
L 78.076578 240.073195 
L 80.198503 238.777441 
L 82.320428 213.673162 
L 84.442353 214.452779 
L 86.564278 224.283225 
L 88.686203 245.0819 
L 90.808128 218.550384 
L 92.930053 216.224152 
L 95.051979 239.791205 
L 99.295829 222.87867 
L 101.417754 235.130509 
L 103.539679 242.016034 
L 105.661604 230.422955 
L 107.783529 212.245643 
L 109.905455 221.152721 
L 112.02738 235.164484 
L 114.149305 226.222555 
L 116.27123 231.352873 
L 118.393155 212.273512 
L 120.51508 225.766854 
L 122.637005 238.29921 
L 124.75893 201.384466 
L 126.880856 237.769318 
L 129.002781 220.392885 
L 131.124706 212.003546 
L 133.246631 227.945983 
L 135.368556 211.905353 
L 137.490481 213.172486 
L 139.612406 208.932346 
L 141.734332 203.006657 
L 143.856257 218.327058 
L 145.978182 231.892415 
L 148.100107 232.105701 
L 150.222032 223.286576 
L 152.343957 206.553764 
L 154.465882 258.340587 
L 156.587807 229.693715 
L 158.709733 221.654925 
L 160.831658 230.184789 
L 162.953583 213.322287 
L 165.075508 216.354019 
L 167.197433 214.833848 
L 169.319358 208.285641 
L 171.441283 204.37334 
L 173.563209 223.928915 
L 175.685134 233.488796 
L 177.807059 213.088618 
L 179.928984 207.343743 
L 182.050909 223.875941 
L 184.172834 220.164193 
L 186.294759 247.609181 
L 188.416684 213.95803 
L 190.53861 267.11642 
L 192.660535 244.800291 
L 194.78246 220.444774 
L 196.904385 217.057958 
L 199.02631 235.659981 
L 201.148235 233.015737 
L 203.27016 230.707408 
L 205.392086 223.091605 
L 207.514011 226.840621 
L 209.635936 239.766201 
L 211.757861 219.865399 
L 213.879786 229.574844 
L 216.001711 207.889185 
L 218.123636 213.591694 
L 220.245561 216.742647 
L 222.367487 216.183129 
L 224.489412 248.101161 
L 226.611337 217.22974 
L 228.733262 249.333288 
L 230.855187 217.555776 
L 232.977112 221.76919 
L 235.099037 223.556409 
L 237.220963 222.195431 
L 239.342888 215.995983 
L 241.464813 210.310108 
L 243.586738 225.766173 
L 245.708663 213.430638 
L 247.830588 211.077702 
L 249.952513 229.385676 
L 252.074439 234.756148 
L 254.196364 220.096639 
L 256.318289 208.95722 
L 258.440214 207.604037 
L 260.562139 215.449 
L 262.684064 214.919513 
L 264.805989 209.262626 
L 266.927914 213.144697 
L 269.04984 209.485556 
L 271.171765 202.110988 
L 273.29369 212.834983 
L 275.415615 219.109655 
L 277.53754 230.589954 
L 279.659465 206.952937 
L 281.78139 222.365998 
L 283.903316 216.417872 
L 286.025241 214.228007 
L 288.147166 218.679478 
L 290.269091 226.738934 
L 292.391016 250.19353 
L 294.512941 203.81064 
L 296.634866 212.569447 
L 298.756791 269.628753 
L 300.878717 225.928941 
L 303.000642 217.941396 
L 305.122567 206.658339 
L 307.244492 235.186114 
L 309.366417 233.495187 
L 311.488342 241.503479 
L 313.610267 226.62764 
L 315.732193 210.206641 
L 317.854118 223.85377 
L 319.976043 221.110142 
L 322.097968 226.111169 
L 324.219893 224.292284 
L 326.341818 226.707105 
L 328.463743 236.292892 
L 330.585668 248.290042 
L 332.707594 246.44723 
L 334.829519 273.771923 
L 336.951444 231.047515 
L 339.073369 228.288768 
L 341.195294 221.837639 
L 343.317219 246.067864 
L 345.439144 236.041917 
L 347.56107 253.15724 
L 349.682995 211.229919 
L 351.80492 225.47235 
L 353.926845 223.506328 
L 356.04877 215.981937 
L 358.170695 236.831673 
L 360.29262 226.348751 
L 362.414545 210.242636 
L 364.536471 208.724005 
L 368.780321 233.409408 
L 370.902246 230.566291 
L 373.024171 243.816309 
L 375.146096 216.141499 
L 377.268021 210.857954 
L 379.389947 213.869542 
L 381.511872 198.126761 
L 383.633797 208.05045 
L 385.755722 201.583086 
L 387.877647 234.215592 
L 389.999572 241.490496 
L 392.121497 275.582394 
L 394.243422 209.891626 
L 396.365348 239.426709 
L 398.487273 220.178516 
L 398.487273 220.178516 
" clip-path="url(#pa79da10ffc)" style="fill: none; stroke: #f08080; stroke-opacity: 0.8; stroke-width: 0.5; stroke-linecap: square"/>
   </g>
   <g id="patch_3">
    <path d="M 57.6 307.584 
L 57.6 41.472 
" style="fill: none; stroke: #000000; stroke-width: 0.8; stroke-linejoin: miter; stroke-linecap: square"/>
   </g>
   <g id="patch_4">
    <path d="M 414.72 307.584 
L 414.72 41.472 
" style="fill: none; stroke: #000000; stroke-width: 0.8; stroke-linejoin: miter; stroke-linecap: square"/>
   </g>
   <g id="patch_5">
    <path d="M 57.6 307.584 
L 414.72 307.584 
" style="fill: none; stroke: #000000; stroke-width: 0.8; stroke-linejoin: miter; stroke-linecap: square"/>
   </g>
   <g id="patch_6">
    <path d="M 57.6 41.472 
L 414.72 41.472 
" style="fill: none; stroke: #000000; stroke-width: 0.8; stroke-linejoin: miter; stroke-linecap: square"/>
   </g>
   <g id="text_16">
    <!-- 1final_naive_aa_eurusd -->
    <g transform="translate(165.975937 35.472) scale(0.12 -0.12)">
     <defs>
      <path id="DejaVuSans-66" d="M 2375 4863 
L 2375 4384 
L 1825 4384 
Q 1516 4384 1395 4259 
Q 1275 4134 1275 3809 
L 1275 3500 
L 2222 3500 
L 2222 3053 
L 1275 3053 
L 1275 0 
L 697 0 
L 697 3053 
L 147 3053 
L 147 3500 
L 697 3500 
L 697 3744 
Q 697 4328 969 4595 
Q 1241 4863 1831 4863 
L 2375 4863 
z
" transform="scale(0.015625)"/>
      <path id="DejaVuSans-69" d="M 603 3500 
L 1178 3500 
L 1178 0 
L 603 0 
L 603 3500 
z
M 603 4863 
L 1178 4863 
L 1178 4134 
L 603 4134 
L 603 4863 
z
" transform="scale(0.015625)"/>
      <path id="DejaVuSans-6e" d="M 3513 2113 
L 3513 0 
L 2938 0 
L 2938 2094 
Q 2938 2591 2744 2837 
Q 2550 3084 2163 3084 
Q 1697 3084 1428 2787 
Q 1159 2491 1159 1978 
L 1159 0 
L 581 0 
L 581 3500 
L 1159 3500 
L 1159 2956 
Q 1366 3272 1645 3428 
Q 1925 3584 2291 3584 
Q 2894 3584 3203 3211 
Q 3513 2838 3513 2113 
z
" transform="scale(0.015625)"/>
      <path id="DejaVuSans-61" d="M 2194 1759 
Q 1497 1759 1228 1600 
Q 959 1441 959 1056 
Q 959 750 1161 570 
Q 1363 391 1709 391 
Q 2188 391 2477 730 
Q 2766 1069 2766 1631 
L 2766 1759 
L 2194 1759 
z
M 3341 1997 
L 3341 0 
L 2766 0 
L 2766 531 
Q 2569 213 2275 61 
Q 1981 -91 1556 -91 
Q 1019 -91 701 211 
Q 384 513 384 1019 
Q 384 1609 779 1909 
Q 1175 2209 1959 2209 
L 2766 2209 
L 2766 2266 
Q 2766 2663 2505 2880 
Q 2244 3097 1772 3097 
Q 1472 3097 1187 3025 
Q 903 2953 641 2809 
L 641 3341 
Q 956 3463 1253 3523 
Q 1550 3584 1831 3584 
Q 2591 3584 2966 3190 
Q 3341 2797 3341 1997 
z
" transform="scale(0.015625)"/>
      <path id="DejaVuSans-6c" d="M 603 4863 
L 1178 4863 
L 1178 0 
L 603 0 
L 603 4863 
z
" transform="scale(0.015625)"/>
      <path id="DejaVuSans-5f" d="M 3263 -1063 
L 3263 -1509 
L -63 -1509 
L -63 -1063 
L 3263 -1063 
z
" transform="scale(0.015625)"/>
      <path id="DejaVuSans-76" d="M 191 3500 
L 800 3500 
L 1894 563 
L 2988 3500 
L 3597 3500 
L 2284 0 
L 1503 0 
L 191 3500 
z
" transform="scale(0.015625)"/>
      <path id="DejaVuSans-65" d="M 3597 1894 
L 3597 1613 
L 953 1613 
Q 991 1019 1311 708 
Q 1631 397 2203 397 
Q 2534 397 2845 478 
Q 3156 559 3463 722 
L 3463 178 
Q 3153 47 2828 -22 
Q 2503 -91 2169 -91 
Q 1331 -91 842 396 
Q 353 884 353 1716 
Q 353 2575 817 3079 
Q 1281 3584 2069 3584 
Q 2775 3584 3186 3129 
Q 3597 2675 3597 1894 
z
M 3022 2063 
Q 3016 2534 2758 2815 
Q 2500 3097 2075 3097 
Q 1594 3097 1305 2825 
Q 1016 2553 972 2059 
L 3022 2063 
z
" transform="scale(0.015625)"/>
      <path id="DejaVuSans-75" d="M 544 1381 
L 544 3500 
L 1119 3500 
L 1119 1403 
Q 1119 906 1312 657 
Q 1506 409 1894 409 
Q 2359 409 2629 706 
Q 2900 1003 2900 1516 
L 2900 3500 
L 3475 3500 
L 3475 0 
L 2900 0 
L 2900 538 
Q 2691 219 2414 64 
Q 2138 -91 1772 -91 
Q 1169 -91 856 284 
Q 544 659 544 1381 
z
M 1991 3584 
L 1991 3584 
z
" transform="scale(0.015625)"/>
      <path id="DejaVuSans-72" d="M 2631 2963 
Q 2534 3019 2420 3045 
Q 2306 3072 2169 3072 
Q 1681 3072 1420 2755 
Q 1159 2438 1159 1844 
L 1159 0 
L 581 0 
L 581 3500 
L 1159 3500 
L 1159 2956 
Q 1341 3275 1631 3429 
Q 1922 3584 2338 3584 
Q 2397 3584 2469 3576 
Q 2541 3569 2628 3553 
L 2631 2963 
z
" transform="scale(0.015625)"/>
      <path id="DejaVuSans-73" d="M 2834 3397 
L 2834 2853 
Q 2591 2978 2328 3040 
Q 2066 3103 1784 3103 
Q 1356 3103 1142 2972 
Q 928 2841 928 2578 
Q 928 2378 1081 2264 
Q 1234 2150 1697 2047 
L 1894 2003 
Q 2506 1872 2764 1633 
Q 3022 1394 3022 966 
Q 3022 478 2636 193 
Q 2250 -91 1575 -91 
Q 1294 -91 989 -36 
Q 684 19 347 128 
L 347 722 
Q 666 556 975 473 
Q 1284 391 1588 391 
Q 1994 391 2212 530 
Q 2431 669 2431 922 
Q 2431 1156 2273 1281 
Q 2116 1406 1581 1522 
L 1381 1569 
Q 847 1681 609 1914 
Q 372 2147 372 2553 
Q 372 3047 722 3315 
Q 1072 3584 1716 3584 
Q 2034 3584 2315 3537 
Q 2597 3491 2834 3397 
z
" transform="scale(0.015625)"/>
      <path id="DejaVuSans-64" d="M 2906 2969 
L 2906 4863 
L 3481 4863 
L 3481 0 
L 2906 0 
L 2906 525 
Q 2725 213 2448 61 
Q 2172 -91 1784 -91 
Q 1150 -91 751 415 
Q 353 922 353 1747 
Q 353 2572 751 3078 
Q 1150 3584 1784 3584 
Q 2172 3584 2448 3432 
Q 2725 3281 2906 2969 
z
M 947 1747 
Q 947 1113 1208 752 
Q 1469 391 1925 391 
Q 2381 391 2643 752 
Q 2906 1113 2906 1747 
Q 2906 2381 2643 2742 
Q 2381 3103 1925 3103 
Q 1469 3103 1208 2742 
Q 947 2381 947 1747 
z
" transform="scale(0.015625)"/>
     </defs>
     <use xlink:href="#DejaVuSans-31"/>
     <use xlink:href="#DejaVuSans-66" x="63.623047"/>
     <use xlink:href="#DejaVuSans-69" x="98.828125"/>
     <use xlink:href="#DejaVuSans-6e" x="126.611328"/>
     <use xlink:href="#DejaVuSans-61" x="189.990234"/>
     <use xlink:href="#DejaVuSans-6c" x="251.269531"/>
     <use xlink:href="#DejaVuSans-5f" x="279.052734"/>
     <use xlink:href="#DejaVuSans-6e" x="329.052734"/>
     <use xlink:href="#DejaVuSans-61" x="392.431641"/>
     <use xlink:href="#DejaVuSans-69" x="453.710938"/>
     <use xlink:href="#DejaVuSans-76" x="481.494141"/>
     <use xlink:href="#DejaVuSans-65" x="540.673828"/>
     <use xlink:href="#DejaVuSans-5f" x="602.197266"/>
     <use xlink:href="#DejaVuSans-61" x="652.197266"/>
     <use xlink:href="#DejaVuSans-61" x="713.476562"/>
     <use xlink:href="#DejaVuSans-5f" x="774.755859"/>
     <use xlink:href="#DejaVuSans-65" x="824.755859"/>
     <use xlink:href="#DejaVuSans-75" x="886.279297"/>
     <use xlink:href="#DejaVuSans-72" x="949.658203"/>
     <use xlink:href="#DejaVuSans-75" x="990.771484"/>
     <use xlink:href="#DejaVuSans-73" x="1054.150391"/>
     <use xlink:href="#DejaVuSans-64" x="1106.25"/>
    </g>
   </g>
   <g id="legend_1">
    <g id="patch_7">
     <path d="M 64.6 137.54075 
L 225.001563 137.54075 
Q 227.001563 137.54075 227.001563 135.54075 
L 227.001563 48.472 
Q 227.001563 46.472 225.001563 46.472 
L 64.6 46.472 
Q 62.6 46.472 62.6 48.472 
L 62.6 135.54075 
Q 62.6 137.54075 64.6 137.54075 
z
" style="fill: #ffffff; opacity: 0.8; stroke: #cccccc; stroke-linejoin: miter"/>
    </g>
    <g id="line2d_22">
     <path d="M 66.6 54.570438 
L 76.6 54.570438 
L 86.6 54.570438 
" style="fill: none; stroke: #008000; stroke-opacity: 0.8; stroke-width: 0.5; stroke-linecap: square"/>
    </g>
    <g id="text_17">
     <!-- Positive predictions -->
     <g transform="translate(94.6 58.070438) scale(0.1 -0.1)">
      <defs>
       <path id="DejaVuSans-50" d="M 1259 4147 
L 1259 2394 
L 2053 2394 
Q 2494 2394 2734 2622 
Q 2975 2850 2975 3272 
Q 2975 3691 2734 3919 
Q 2494 4147 2053 4147 
L 1259 4147 
z
M 628 4666 
L 2053 4666 
Q 2838 4666 3239 4311 
Q 3641 3956 3641 3272 
Q 3641 2581 3239 2228 
Q 2838 1875 2053 1875 
L 1259 1875 
L 1259 0 
L 628 0 
L 628 4666 
z
" transform="scale(0.015625)"/>
       <path id="DejaVuSans-6f" d="M 1959 3097 
Q 1497 3097 1228 2736 
Q 959 2375 959 1747 
Q 959 1119 1226 758 
Q 1494 397 1959 397 
Q 2419 397 2687 759 
Q 2956 1122 2956 1747 
Q 2956 2369 2687 2733 
Q 2419 3097 1959 3097 
z
M 1959 3584 
Q 2709 3584 3137 3096 
Q 3566 2609 3566 1747 
Q 3566 888 3137 398 
Q 2709 -91 1959 -91 
Q 1206 -91 779 398 
Q 353 888 353 1747 
Q 353 2609 779 3096 
Q 1206 3584 1959 3584 
z
" transform="scale(0.015625)"/>
       <path id="DejaVuSans-74" d="M 1172 4494 
L 1172 3500 
L 2356 3500 
L 2356 3053 
L 1172 3053 
L 1172 1153 
Q 1172 725 1289 603 
Q 1406 481 1766 481 
L 2356 481 
L 2356 0 
L 1766 0 
Q 1100 0 847 248 
Q 594 497 594 1153 
L 594 3053 
L 172 3053 
L 172 3500 
L 594 3500 
L 594 4494 
L 1172 4494 
z
" transform="scale(0.015625)"/>
       <path id="DejaVuSans-20" transform="scale(0.015625)"/>
       <path id="DejaVuSans-70" d="M 1159 525 
L 1159 -1331 
L 581 -1331 
L 581 3500 
L 1159 3500 
L 1159 2969 
Q 1341 3281 1617 3432 
Q 1894 3584 2278 3584 
Q 2916 3584 3314 3078 
Q 3713 2572 3713 1747 
Q 3713 922 3314 415 
Q 2916 -91 2278 -91 
Q 1894 -91 1617 61 
Q 1341 213 1159 525 
z
M 3116 1747 
Q 3116 2381 2855 2742 
Q 2594 3103 2138 3103 
Q 1681 3103 1420 2742 
Q 1159 2381 1159 1747 
Q 1159 1113 1420 752 
Q 1681 391 2138 391 
Q 2594 391 2855 752 
Q 3116 1113 3116 1747 
z
" transform="scale(0.015625)"/>
       <path id="DejaVuSans-63" d="M 3122 3366 
L 3122 2828 
Q 2878 2963 2633 3030 
Q 2388 3097 2138 3097 
Q 1578 3097 1268 2742 
Q 959 2388 959 1747 
Q 959 1106 1268 751 
Q 1578 397 2138 397 
Q 2388 397 2633 464 
Q 2878 531 3122 666 
L 3122 134 
Q 2881 22 2623 -34 
Q 2366 -91 2075 -91 
Q 1284 -91 818 406 
Q 353 903 353 1747 
Q 353 2603 823 3093 
Q 1294 3584 2113 3584 
Q 2378 3584 2631 3529 
Q 2884 3475 3122 3366 
z
" transform="scale(0.015625)"/>
      </defs>
      <use xlink:href="#DejaVuSans-50"/>
      <use xlink:href="#DejaVuSans-6f" x="56.677734"/>
      <use xlink:href="#DejaVuSans-73" x="117.859375"/>
      <use xlink:href="#DejaVuSans-69" x="169.958984"/>
      <use xlink:href="#DejaVuSans-74" x="197.742188"/>
      <use xlink:href="#DejaVuSans-69" x="236.951172"/>
      <use xlink:href="#DejaVuSans-76" x="264.734375"/>
      <use xlink:href="#DejaVuSans-65" x="323.914062"/>
      <use xlink:href="#DejaVuSans-20" x="385.4375"/>
      <use xlink:href="#DejaVuSans-70" x="417.224609"/>
      <use xlink:href="#DejaVuSans-72" x="480.701172"/>
      <use xlink:href="#DejaVuSans-65" x="519.564453"/>
      <use xlink:href="#DejaVuSans-64" x="581.087891"/>
      <use xlink:href="#DejaVuSans-69" x="644.564453"/>
      <use xlink:href="#DejaVuSans-63" x="672.347656"/>
      <use xlink:href="#DejaVuSans-74" x="727.328125"/>
      <use xlink:href="#DejaVuSans-69" x="766.537109"/>
      <use xlink:href="#DejaVuSans-6f" x="794.320312"/>
      <use xlink:href="#DejaVuSans-6e" x="855.501953"/>
      <use xlink:href="#DejaVuSans-73" x="918.880859"/>
     </g>
    </g>
    <g id="line2d_23">
     <path d="M 66.6 69.248563 
L 76.6 69.248563 
L 86.6 69.248563 
" style="fill: none; stroke: #32cd32; stroke-opacity: 0.8; stroke-width: 0.5; stroke-linecap: square"/>
    </g>
    <g id="text_18">
     <!-- Positive predictions max -->
     <g transform="translate(94.6 72.748563) scale(0.1 -0.1)">
      <defs>
       <path id="DejaVuSans-6d" d="M 3328 2828 
Q 3544 3216 3844 3400 
Q 4144 3584 4550 3584 
Q 5097 3584 5394 3201 
Q 5691 2819 5691 2113 
L 5691 0 
L 5113 0 
L 5113 2094 
Q 5113 2597 4934 2840 
Q 4756 3084 4391 3084 
Q 3944 3084 3684 2787 
Q 3425 2491 3425 1978 
L 3425 0 
L 2847 0 
L 2847 2094 
Q 2847 2600 2669 2842 
Q 2491 3084 2119 3084 
Q 1678 3084 1418 2786 
Q 1159 2488 1159 1978 
L 1159 0 
L 581 0 
L 581 3500 
L 1159 3500 
L 1159 2956 
Q 1356 3278 1631 3431 
Q 1906 3584 2284 3584 
Q 2666 3584 2933 3390 
Q 3200 3197 3328 2828 
z
" transform="scale(0.015625)"/>
       <path id="DejaVuSans-78" d="M 3513 3500 
L 2247 1797 
L 3578 0 
L 2900 0 
L 1881 1375 
L 863 0 
L 184 0 
L 1544 1831 
L 300 3500 
L 978 3500 
L 1906 2253 
L 2834 3500 
L 3513 3500 
z
" transform="scale(0.015625)"/>
      </defs>
      <use xlink:href="#DejaVuSans-50"/>
      <use xlink:href="#DejaVuSans-6f" x="56.677734"/>
      <use xlink:href="#DejaVuSans-73" x="117.859375"/>
      <use xlink:href="#DejaVuSans-69" x="169.958984"/>
      <use xlink:href="#DejaVuSans-74" x="197.742188"/>
      <use xlink:href="#DejaVuSans-69" x="236.951172"/>
      <use xlink:href="#DejaVuSans-76" x="264.734375"/>
      <use xlink:href="#DejaVuSans-65" x="323.914062"/>
      <use xlink:href="#DejaVuSans-20" x="385.4375"/>
      <use xlink:href="#DejaVuSans-70" x="417.224609"/>
      <use xlink:href="#DejaVuSans-72" x="480.701172"/>
      <use xlink:href="#DejaVuSans-65" x="519.564453"/>
      <use xlink:href="#DejaVuSans-64" x="581.087891"/>
      <use xlink:href="#DejaVuSans-69" x="644.564453"/>
      <use xlink:href="#DejaVuSans-63" x="672.347656"/>
      <use xlink:href="#DejaVuSans-74" x="727.328125"/>
      <use xlink:href="#DejaVuSans-69" x="766.537109"/>
      <use xlink:href="#DejaVuSans-6f" x="794.320312"/>
      <use xlink:href="#DejaVuSans-6e" x="855.501953"/>
      <use xlink:href="#DejaVuSans-73" x="918.880859"/>
      <use xlink:href="#DejaVuSans-20" x="970.980469"/>
      <use xlink:href="#DejaVuSans-6d" x="1002.767578"/>
      <use xlink:href="#DejaVuSans-61" x="1100.179688"/>
      <use xlink:href="#DejaVuSans-78" x="1161.458984"/>
     </g>
    </g>
    <g id="line2d_24">
     <path d="M 66.6 83.926688 
L 76.6 83.926688 
L 86.6 83.926688 
" style="fill: none; stroke: #32cd32; stroke-opacity: 0.8; stroke-width: 0.5; stroke-linecap: square"/>
    </g>
    <g id="text_19">
     <!-- Positive predictions min -->
     <g transform="translate(94.6 87.426688) scale(0.1 -0.1)">
      <use xlink:href="#DejaVuSans-50"/>
      <use xlink:href="#DejaVuSans-6f" x="56.677734"/>
      <use xlink:href="#DejaVuSans-73" x="117.859375"/>
      <use xlink:href="#DejaVuSans-69" x="169.958984"/>
      <use xlink:href="#DejaVuSans-74" x="197.742188"/>
      <use xlink:href="#DejaVuSans-69" x="236.951172"/>
      <use xlink:href="#DejaVuSans-76" x="264.734375"/>
      <use xlink:href="#DejaVuSans-65" x="323.914062"/>
      <use xlink:href="#DejaVuSans-20" x="385.4375"/>
      <use xlink:href="#DejaVuSans-70" x="417.224609"/>
      <use xlink:href="#DejaVuSans-72" x="480.701172"/>
      <use xlink:href="#DejaVuSans-65" x="519.564453"/>
      <use xlink:href="#DejaVuSans-64" x="581.087891"/>
      <use xlink:href="#DejaVuSans-69" x="644.564453"/>
      <use xlink:href="#DejaVuSans-63" x="672.347656"/>
      <use xlink:href="#DejaVuSans-74" x="727.328125"/>
      <use xlink:href="#DejaVuSans-69" x="766.537109"/>
      <use xlink:href="#DejaVuSans-6f" x="794.320312"/>
      <use xlink:href="#DejaVuSans-6e" x="855.501953"/>
      <use xlink:href="#DejaVuSans-73" x="918.880859"/>
      <use xlink:href="#DejaVuSans-20" x="970.980469"/>
      <use xlink:href="#DejaVuSans-6d" x="1002.767578"/>
      <use xlink:href="#DejaVuSans-69" x="1100.179688"/>
      <use xlink:href="#DejaVuSans-6e" x="1127.962891"/>
     </g>
    </g>
    <g id="line2d_25">
     <path d="M 66.6 98.604813 
L 76.6 98.604813 
L 86.6 98.604813 
" style="fill: none; stroke: #ff0000; stroke-opacity: 0.8; stroke-width: 0.5; stroke-linecap: square"/>
    </g>
    <g id="text_20">
     <!-- Negative predictions -->
     <g transform="translate(94.6 102.104813) scale(0.1 -0.1)">
      <defs>
       <path id="DejaVuSans-4e" d="M 628 4666 
L 1478 4666 
L 3547 763 
L 3547 4666 
L 4159 4666 
L 4159 0 
L 3309 0 
L 1241 3903 
L 1241 0 
L 628 0 
L 628 4666 
z
" transform="scale(0.015625)"/>
       <path id="DejaVuSans-67" d="M 2906 1791 
Q 2906 2416 2648 2759 
Q 2391 3103 1925 3103 
Q 1463 3103 1205 2759 
Q 947 2416 947 1791 
Q 947 1169 1205 825 
Q 1463 481 1925 481 
Q 2391 481 2648 825 
Q 2906 1169 2906 1791 
z
M 3481 434 
Q 3481 -459 3084 -895 
Q 2688 -1331 1869 -1331 
Q 1566 -1331 1297 -1286 
Q 1028 -1241 775 -1147 
L 775 -588 
Q 1028 -725 1275 -790 
Q 1522 -856 1778 -856 
Q 2344 -856 2625 -561 
Q 2906 -266 2906 331 
L 2906 616 
Q 2728 306 2450 153 
Q 2172 0 1784 0 
Q 1141 0 747 490 
Q 353 981 353 1791 
Q 353 2603 747 3093 
Q 1141 3584 1784 3584 
Q 2172 3584 2450 3431 
Q 2728 3278 2906 2969 
L 2906 3500 
L 3481 3500 
L 3481 434 
z
" transform="scale(0.015625)"/>
      </defs>
      <use xlink:href="#DejaVuSans-4e"/>
      <use xlink:href="#DejaVuSans-65" x="74.804688"/>
      <use xlink:href="#DejaVuSans-67" x="136.328125"/>
      <use xlink:href="#DejaVuSans-61" x="199.804688"/>
      <use xlink:href="#DejaVuSans-74" x="261.083984"/>
      <use xlink:href="#DejaVuSans-69" x="300.292969"/>
      <use xlink:href="#DejaVuSans-76" x="328.076172"/>
      <use xlink:href="#DejaVuSans-65" x="387.255859"/>
      <use xlink:href="#DejaVuSans-20" x="448.779297"/>
      <use xlink:href="#DejaVuSans-70" x="480.566406"/>
      <use xlink:href="#DejaVuSans-72" x="544.042969"/>
      <use xlink:href="#DejaVuSans-65" x="582.90625"/>
      <use xlink:href="#DejaVuSans-64" x="644.429688"/>
      <use xlink:href="#DejaVuSans-69" x="707.90625"/>
      <use xlink:href="#DejaVuSans-63" x="735.689453"/>
      <use xlink:href="#DejaVuSans-74" x="790.669922"/>
      <use xlink:href="#DejaVuSans-69" x="829.878906"/>
      <use xlink:href="#DejaVuSans-6f" x="857.662109"/>
      <use xlink:href="#DejaVuSans-6e" x="918.84375"/>
      <use xlink:href="#DejaVuSans-73" x="982.222656"/>
     </g>
    </g>
    <g id="line2d_26">
     <path d="M 66.6 113.282938 
L 76.6 113.282938 
L 86.6 113.282938 
" style="fill: none; stroke: #f08080; stroke-opacity: 0.8; stroke-width: 0.5; stroke-linecap: square"/>
    </g>
    <g id="text_21">
     <!-- Negative predictions max -->
     <g transform="translate(94.6 116.782938) scale(0.1 -0.1)">
      <use xlink:href="#DejaVuSans-4e"/>
      <use xlink:href="#DejaVuSans-65" x="74.804688"/>
      <use xlink:href="#DejaVuSans-67" x="136.328125"/>
      <use xlink:href="#DejaVuSans-61" x="199.804688"/>
      <use xlink:href="#DejaVuSans-74" x="261.083984"/>
      <use xlink:href="#DejaVuSans-69" x="300.292969"/>
      <use xlink:href="#DejaVuSans-76" x="328.076172"/>
      <use xlink:href="#DejaVuSans-65" x="387.255859"/>
      <use xlink:href="#DejaVuSans-20" x="448.779297"/>
      <use xlink:href="#DejaVuSans-70" x="480.566406"/>
      <use xlink:href="#DejaVuSans-72" x="544.042969"/>
      <use xlink:href="#DejaVuSans-65" x="582.90625"/>
      <use xlink:href="#DejaVuSans-64" x="644.429688"/>
      <use xlink:href="#DejaVuSans-69" x="707.90625"/>
      <use xlink:href="#DejaVuSans-63" x="735.689453"/>
      <use xlink:href="#DejaVuSans-74" x="790.669922"/>
      <use xlink:href="#DejaVuSans-69" x="829.878906"/>
      <use xlink:href="#DejaVuSans-6f" x="857.662109"/>
      <use xlink:href="#DejaVuSans-6e" x="918.84375"/>
      <use xlink:href="#DejaVuSans-73" x="982.222656"/>
      <use xlink:href="#DejaVuSans-20" x="1034.322266"/>
      <use xlink:href="#DejaVuSans-6d" x="1066.109375"/>
      <use xlink:href="#DejaVuSans-61" x="1163.521484"/>
      <use xlink:href="#DejaVuSans-78" x="1224.800781"/>
     </g>
    </g>
    <g id="line2d_27">
     <path d="M 66.6 127.961063 
L 76.6 127.961063 
L 86.6 127.961063 
" style="fill: none; stroke: #f08080; stroke-opacity: 0.8; stroke-width: 0.5; stroke-linecap: square"/>
    </g>
    <g id="text_22">
     <!-- Negative predictions min -->
     <g transform="translate(94.6 131.461063) scale(0.1 -0.1)">
      <use xlink:href="#DejaVuSans-4e"/>
      <use xlink:href="#DejaVuSans-65" x="74.804688"/>
      <use xlink:href="#DejaVuSans-67" x="136.328125"/>
      <use xlink:href="#DejaVuSans-61" x="199.804688"/>
      <use xlink:href="#DejaVuSans-74" x="261.083984"/>
      <use xlink:href="#DejaVuSans-69" x="300.292969"/>
      <use xlink:href="#DejaVuSans-76" x="328.076172"/>
      <use xlink:href="#DejaVuSans-65" x="387.255859"/>
      <use xlink:href="#DejaVuSans-20" x="448.779297"/>
      <use xlink:href="#DejaVuSans-70" x="480.566406"/>
      <use xlink:href="#DejaVuSans-72" x="544.042969"/>
      <use xlink:href="#DejaVuSans-65" x="582.90625"/>
      <use xlink:href="#DejaVuSans-64" x="644.429688"/>
      <use xlink:href="#DejaVuSans-69" x="707.90625"/>
      <use xlink:href="#DejaVuSans-63" x="735.689453"/>
      <use xlink:href="#DejaVuSans-74" x="790.669922"/>
      <use xlink:href="#DejaVuSans-69" x="829.878906"/>
      <use xlink:href="#DejaVuSans-6f" x="857.662109"/>
      <use xlink:href="#DejaVuSans-6e" x="918.84375"/>
      <use xlink:href="#DejaVuSans-73" x="982.222656"/>
      <use xlink:href="#DejaVuSans-20" x="1034.322266"/>
      <use xlink:href="#DejaVuSans-6d" x="1066.109375"/>
      <use xlink:href="#DejaVuSans-69" x="1163.521484"/>
      <use xlink:href="#DejaVuSans-6e" x="1191.304688"/>
     </g>
    </g>
   </g>
  </g>
 </g>
 <defs>
  <clipPath id="pa79da10ffc">
   <rect x="57.6" y="41.472" width="357.12" height="266.112"/>
  </clipPath>
 </defs>
</svg>
