<?xml version="1.0" encoding="utf-8" standalone="no"?>
<!DOCTYPE svg PUBLIC "-//W3C//DTD SVG 1.1//EN"
  "http://www.w3.org/Graphics/SVG/1.1/DTD/svg11.dtd">
<svg xmlns:xlink="http://www.w3.org/1999/xlink" width="460.8pt" height="345.6pt" viewBox="0 0 460.8 345.6" xmlns="http://www.w3.org/2000/svg" version="1.1">
 <metadata>
  <rdf:RDF xmlns:dc="http://purl.org/dc/elements/1.1/" xmlns:cc="http://creativecommons.org/ns#" xmlns:rdf="http://www.w3.org/1999/02/22-rdf-syntax-ns#">
   <cc:Work>
    <dc:type rdf:resource="http://purl.org/dc/dcmitype/StillImage"/>
    <dc:date>2024-09-12T12:38:13.287207</dc:date>
    <dc:format>image/svg+xml</dc:format>
    <dc:creator>
     <cc:Agent>
      <dc:title>Matplotlib v3.8.3, https://matplotlib.org/</dc:title>
     </cc:Agent>
    </dc:creator>
   </cc:Work>
  </rdf:RDF>
 </metadata>
 <defs>
  <style type="text/css">*{stroke-linejoin: round; stroke-linecap: butt}</style>
 </defs>
 <g id="figure_1">
  <g id="patch_1">
   <path d="M 0 345.6 
L 460.8 345.6 
L 460.8 0 
L 0 0 
z
" style="fill: #ffffff"/>
  </g>
  <g id="axes_1">
   <g id="patch_2">
    <path d="M 57.6 307.584 
L 414.72 307.584 
L 414.72 41.472 
L 57.6 41.472 
z
" style="fill: #ffffff"/>
   </g>
   <g id="matplotlib.axis_1">
    <g id="xtick_1">
     <g id="line2d_1">
      <defs>
       <path id="me3a6b073e2" d="M 0 0 
L 0 3.5 
" style="stroke: #000000; stroke-width: 0.8"/>
      </defs>
      <g>
       <use xlink:href="#me3a6b073e2" x="73.832727" y="307.584" style="stroke: #000000; stroke-width: 0.8"/>
      </g>
     </g>
     <g id="text_1">
      <!-- 0 -->
      <g transform="translate(70.651477 322.182437) scale(0.1 -0.1)">
       <defs>
        <path id="DejaVuSans-30" d="M 2034 4250 
Q 1547 4250 1301 3770 
Q 1056 3291 1056 2328 
Q 1056 1369 1301 889 
Q 1547 409 2034 409 
Q 2525 409 2770 889 
Q 3016 1369 3016 2328 
Q 3016 3291 2770 3770 
Q 2525 4250 2034 4250 
z
M 2034 4750 
Q 2819 4750 3233 4129 
Q 3647 3509 3647 2328 
Q 3647 1150 3233 529 
Q 2819 -91 2034 -91 
Q 1250 -91 836 529 
Q 422 1150 422 2328 
Q 422 3509 836 4129 
Q 1250 4750 2034 4750 
z
" transform="scale(0.015625)"/>
       </defs>
       <use xlink:href="#DejaVuSans-30"/>
      </g>
     </g>
    </g>
    <g id="xtick_2">
     <g id="line2d_2">
      <g>
       <use xlink:href="#me3a6b073e2" x="118.003414" y="307.584" style="stroke: #000000; stroke-width: 0.8"/>
      </g>
     </g>
     <g id="text_2">
      <!-- 20 -->
      <g transform="translate(111.640914 322.182437) scale(0.1 -0.1)">
       <defs>
        <path id="DejaVuSans-32" d="M 1228 531 
L 3431 531 
L 3431 0 
L 469 0 
L 469 531 
Q 828 903 1448 1529 
Q 2069 2156 2228 2338 
Q 2531 2678 2651 2914 
Q 2772 3150 2772 3378 
Q 2772 3750 2511 3984 
Q 2250 4219 1831 4219 
Q 1534 4219 1204 4116 
Q 875 4013 500 3803 
L 500 4441 
Q 881 4594 1212 4672 
Q 1544 4750 1819 4750 
Q 2544 4750 2975 4387 
Q 3406 4025 3406 3419 
Q 3406 3131 3298 2873 
Q 3191 2616 2906 2266 
Q 2828 2175 2409 1742 
Q 1991 1309 1228 531 
z
" transform="scale(0.015625)"/>
       </defs>
       <use xlink:href="#DejaVuSans-32"/>
       <use xlink:href="#DejaVuSans-30" x="63.623047"/>
      </g>
     </g>
    </g>
    <g id="xtick_3">
     <g id="line2d_3">
      <g>
       <use xlink:href="#me3a6b073e2" x="162.1741" y="307.584" style="stroke: #000000; stroke-width: 0.8"/>
      </g>
     </g>
     <g id="text_3">
      <!-- 40 -->
      <g transform="translate(155.8116 322.182437) scale(0.1 -0.1)">
       <defs>
        <path id="DejaVuSans-34" d="M 2419 4116 
L 825 1625 
L 2419 1625 
L 2419 4116 
z
M 2253 4666 
L 3047 4666 
L 3047 1625 
L 3713 1625 
L 3713 1100 
L 3047 1100 
L 3047 0 
L 2419 0 
L 2419 1100 
L 313 1100 
L 313 1709 
L 2253 4666 
z
" transform="scale(0.015625)"/>
       </defs>
       <use xlink:href="#DejaVuSans-34"/>
       <use xlink:href="#DejaVuSans-30" x="63.623047"/>
      </g>
     </g>
    </g>
    <g id="xtick_4">
     <g id="line2d_4">
      <g>
       <use xlink:href="#me3a6b073e2" x="206.344787" y="307.584" style="stroke: #000000; stroke-width: 0.8"/>
      </g>
     </g>
     <g id="text_4">
      <!-- 60 -->
      <g transform="translate(199.982287 322.182437) scale(0.1 -0.1)">
       <defs>
        <path id="DejaVuSans-36" d="M 2113 2584 
Q 1688 2584 1439 2293 
Q 1191 2003 1191 1497 
Q 1191 994 1439 701 
Q 1688 409 2113 409 
Q 2538 409 2786 701 
Q 3034 994 3034 1497 
Q 3034 2003 2786 2293 
Q 2538 2584 2113 2584 
z
M 3366 4563 
L 3366 3988 
Q 3128 4100 2886 4159 
Q 2644 4219 2406 4219 
Q 1781 4219 1451 3797 
Q 1122 3375 1075 2522 
Q 1259 2794 1537 2939 
Q 1816 3084 2150 3084 
Q 2853 3084 3261 2657 
Q 3669 2231 3669 1497 
Q 3669 778 3244 343 
Q 2819 -91 2113 -91 
Q 1303 -91 875 529 
Q 447 1150 447 2328 
Q 447 3434 972 4092 
Q 1497 4750 2381 4750 
Q 2619 4750 2861 4703 
Q 3103 4656 3366 4563 
z
" transform="scale(0.015625)"/>
       </defs>
       <use xlink:href="#DejaVuSans-36"/>
       <use xlink:href="#DejaVuSans-30" x="63.623047"/>
      </g>
     </g>
    </g>
    <g id="xtick_5">
     <g id="line2d_5">
      <g>
       <use xlink:href="#me3a6b073e2" x="250.515473" y="307.584" style="stroke: #000000; stroke-width: 0.8"/>
      </g>
     </g>
     <g id="text_5">
      <!-- 80 -->
      <g transform="translate(244.152973 322.182437) scale(0.1 -0.1)">
       <defs>
        <path id="DejaVuSans-38" d="M 2034 2216 
Q 1584 2216 1326 1975 
Q 1069 1734 1069 1313 
Q 1069 891 1326 650 
Q 1584 409 2034 409 
Q 2484 409 2743 651 
Q 3003 894 3003 1313 
Q 3003 1734 2745 1975 
Q 2488 2216 2034 2216 
z
M 1403 2484 
Q 997 2584 770 2862 
Q 544 3141 544 3541 
Q 544 4100 942 4425 
Q 1341 4750 2034 4750 
Q 2731 4750 3128 4425 
Q 3525 4100 3525 3541 
Q 3525 3141 3298 2862 
Q 3072 2584 2669 2484 
Q 3125 2378 3379 2068 
Q 3634 1759 3634 1313 
Q 3634 634 3220 271 
Q 2806 -91 2034 -91 
Q 1263 -91 848 271 
Q 434 634 434 1313 
Q 434 1759 690 2068 
Q 947 2378 1403 2484 
z
M 1172 3481 
Q 1172 3119 1398 2916 
Q 1625 2713 2034 2713 
Q 2441 2713 2670 2916 
Q 2900 3119 2900 3481 
Q 2900 3844 2670 4047 
Q 2441 4250 2034 4250 
Q 1625 4250 1398 4047 
Q 1172 3844 1172 3481 
z
" transform="scale(0.015625)"/>
       </defs>
       <use xlink:href="#DejaVuSans-38"/>
       <use xlink:href="#DejaVuSans-30" x="63.623047"/>
      </g>
     </g>
    </g>
    <g id="xtick_6">
     <g id="line2d_6">
      <g>
       <use xlink:href="#me3a6b073e2" x="294.68616" y="307.584" style="stroke: #000000; stroke-width: 0.8"/>
      </g>
     </g>
     <g id="text_6">
      <!-- 100 -->
      <g transform="translate(285.14241 322.182437) scale(0.1 -0.1)">
       <defs>
        <path id="DejaVuSans-31" d="M 794 531 
L 1825 531 
L 1825 4091 
L 703 3866 
L 703 4441 
L 1819 4666 
L 2450 4666 
L 2450 531 
L 3481 531 
L 3481 0 
L 794 0 
L 794 531 
z
" transform="scale(0.015625)"/>
       </defs>
       <use xlink:href="#DejaVuSans-31"/>
       <use xlink:href="#DejaVuSans-30" x="63.623047"/>
       <use xlink:href="#DejaVuSans-30" x="127.246094"/>
      </g>
     </g>
    </g>
    <g id="xtick_7">
     <g id="line2d_7">
      <g>
       <use xlink:href="#me3a6b073e2" x="338.856846" y="307.584" style="stroke: #000000; stroke-width: 0.8"/>
      </g>
     </g>
     <g id="text_7">
      <!-- 120 -->
      <g transform="translate(329.313096 322.182437) scale(0.1 -0.1)">
       <use xlink:href="#DejaVuSans-31"/>
       <use xlink:href="#DejaVuSans-32" x="63.623047"/>
       <use xlink:href="#DejaVuSans-30" x="127.246094"/>
      </g>
     </g>
    </g>
    <g id="xtick_8">
     <g id="line2d_8">
      <g>
       <use xlink:href="#me3a6b073e2" x="383.027532" y="307.584" style="stroke: #000000; stroke-width: 0.8"/>
      </g>
     </g>
     <g id="text_8">
      <!-- 140 -->
      <g transform="translate(373.483782 322.182437) scale(0.1 -0.1)">
       <use xlink:href="#DejaVuSans-31"/>
       <use xlink:href="#DejaVuSans-34" x="63.623047"/>
       <use xlink:href="#DejaVuSans-30" x="127.246094"/>
      </g>
     </g>
    </g>
   </g>
   <g id="matplotlib.axis_2">
    <g id="ytick_1">
     <g id="line2d_9">
      <defs>
       <path id="mbfe2ee3e93" d="M 0 0 
L -3.5 0 
" style="stroke: #000000; stroke-width: 0.8"/>
      </defs>
      <g>
       <use xlink:href="#mbfe2ee3e93" x="57.6" y="282.091944" style="stroke: #000000; stroke-width: 0.8"/>
      </g>
     </g>
     <g id="text_9">
      <!-- −200 -->
      <g transform="translate(23.132812 285.891162) scale(0.1 -0.1)">
       <defs>
        <path id="DejaVuSans-2212" d="M 678 2272 
L 4684 2272 
L 4684 1741 
L 678 1741 
L 678 2272 
z
" transform="scale(0.015625)"/>
       </defs>
       <use xlink:href="#DejaVuSans-2212"/>
       <use xlink:href="#DejaVuSans-32" x="83.789062"/>
       <use xlink:href="#DejaVuSans-30" x="147.412109"/>
       <use xlink:href="#DejaVuSans-30" x="211.035156"/>
      </g>
     </g>
    </g>
    <g id="ytick_2">
     <g id="line2d_10">
      <g>
       <use xlink:href="#mbfe2ee3e93" x="57.6" y="238.556748" style="stroke: #000000; stroke-width: 0.8"/>
      </g>
     </g>
     <g id="text_10">
      <!-- −100 -->
      <g transform="translate(23.132812 242.355967) scale(0.1 -0.1)">
       <use xlink:href="#DejaVuSans-2212"/>
       <use xlink:href="#DejaVuSans-31" x="83.789062"/>
       <use xlink:href="#DejaVuSans-30" x="147.412109"/>
       <use xlink:href="#DejaVuSans-30" x="211.035156"/>
      </g>
     </g>
    </g>
    <g id="ytick_3">
     <g id="line2d_11">
      <g>
       <use xlink:href="#mbfe2ee3e93" x="57.6" y="195.021552" style="stroke: #000000; stroke-width: 0.8"/>
      </g>
     </g>
     <g id="text_11">
      <!-- 0 -->
      <g transform="translate(44.2375 198.820771) scale(0.1 -0.1)">
       <use xlink:href="#DejaVuSans-30"/>
      </g>
     </g>
    </g>
    <g id="ytick_4">
     <g id="line2d_12">
      <g>
       <use xlink:href="#mbfe2ee3e93" x="57.6" y="151.486357" style="stroke: #000000; stroke-width: 0.8"/>
      </g>
     </g>
     <g id="text_12">
      <!-- 100 -->
      <g transform="translate(31.5125 155.285576) scale(0.1 -0.1)">
       <use xlink:href="#DejaVuSans-31"/>
       <use xlink:href="#DejaVuSans-30" x="63.623047"/>
       <use xlink:href="#DejaVuSans-30" x="127.246094"/>
      </g>
     </g>
    </g>
    <g id="ytick_5">
     <g id="line2d_13">
      <g>
       <use xlink:href="#mbfe2ee3e93" x="57.6" y="107.951161" style="stroke: #000000; stroke-width: 0.8"/>
      </g>
     </g>
     <g id="text_13">
      <!-- 200 -->
      <g transform="translate(31.5125 111.75038) scale(0.1 -0.1)">
       <use xlink:href="#DejaVuSans-32"/>
       <use xlink:href="#DejaVuSans-30" x="63.623047"/>
       <use xlink:href="#DejaVuSans-30" x="127.246094"/>
      </g>
     </g>
    </g>
    <g id="ytick_6">
     <g id="line2d_14">
      <g>
       <use xlink:href="#mbfe2ee3e93" x="57.6" y="64.415966" style="stroke: #000000; stroke-width: 0.8"/>
      </g>
     </g>
     <g id="text_14">
      <!-- 300 -->
      <g transform="translate(31.5125 68.215184) scale(0.1 -0.1)">
       <defs>
        <path id="DejaVuSans-33" d="M 2597 2516 
Q 3050 2419 3304 2112 
Q 3559 1806 3559 1356 
Q 3559 666 3084 287 
Q 2609 -91 1734 -91 
Q 1441 -91 1130 -33 
Q 819 25 488 141 
L 488 750 
Q 750 597 1062 519 
Q 1375 441 1716 441 
Q 2309 441 2620 675 
Q 2931 909 2931 1356 
Q 2931 1769 2642 2001 
Q 2353 2234 1838 2234 
L 1294 2234 
L 1294 2753 
L 1863 2753 
Q 2328 2753 2575 2939 
Q 2822 3125 2822 3475 
Q 2822 3834 2567 4026 
Q 2313 4219 1838 4219 
Q 1578 4219 1281 4162 
Q 984 4106 628 3988 
L 628 4550 
Q 988 4650 1302 4700 
Q 1616 4750 1894 4750 
Q 2613 4750 3031 4423 
Q 3450 4097 3450 3541 
Q 3450 3153 3228 2886 
Q 3006 2619 2597 2516 
z
" transform="scale(0.015625)"/>
       </defs>
       <use xlink:href="#DejaVuSans-33"/>
       <use xlink:href="#DejaVuSans-30" x="63.623047"/>
       <use xlink:href="#DejaVuSans-30" x="127.246094"/>
      </g>
     </g>
    </g>
   </g>
   <g id="line2d_15">
    <path d="M 73.832727 196.922511 
L 76.041262 196.217156 
L 78.249796 188.762162 
L 80.45833 198.068084 
L 82.666865 195.28881 
L 84.875399 197.647727 
L 87.083933 195.095168 
L 89.292468 197.094595 
L 91.501002 193.66959 
L 93.709536 196.188498 
L 95.918071 195.681266 
L 98.126605 196.526074 
L 100.335139 194.894677 
L 102.543673 196.252358 
L 104.752208 194.868031 
L 106.960742 195.329998 
L 109.169276 189.74577 
L 111.377811 189.402128 
L 113.586345 196.637753 
L 115.794879 195.980685 
L 118.003414 190.955496 
L 120.211948 188.188318 
L 122.420482 199.509917 
L 124.629017 197.622787 
L 126.837551 199.566697 
L 129.046085 196.976013 
L 131.25462 195.703494 
L 133.463154 194.601192 
L 135.671688 198.39905 
L 137.880223 196.389923 
L 140.088757 192.309752 
L 142.297291 192.709692 
L 144.505826 197.118874 
L 146.71436 198.135531 
L 148.922894 195.833135 
L 151.131429 195.078704 
L 153.339963 188.583964 
L 155.548497 198.252422 
L 157.757032 194.049365 
L 159.965566 199.06112 
L 162.1741 191.879571 
L 164.382635 197.203297 
L 166.591169 196.518979 
L 168.799703 197.064036 
L 171.008237 196.759954 
L 173.216772 194.680081 
L 175.425306 198.861867 
L 177.63384 195.655484 
L 179.842375 193.560728 
L 182.050909 199.252927 
L 184.259443 184.737941 
L 186.467978 184.057272 
L 188.676512 176.235082 
L 190.885046 204.370676 
L 193.093581 201.046504 
L 195.302115 197.039396 
L 197.510649 200.244245 
L 199.719184 200.912338 
L 201.927718 194.84461 
L 204.136252 195.386692 
L 206.344787 198.815486 
L 208.553321 196.671377 
L 210.761855 199.024757 
L 212.97039 200.434605 
L 215.178924 189.120911 
L 217.387458 193.231719 
L 219.595993 202.536736 
L 221.804527 188.73968 
L 224.013061 201.114906 
L 226.221596 195.672837 
L 228.43013 199.882854 
L 230.638664 193.788197 
L 232.847199 199.50261 
L 235.055733 196.026265 
L 237.264267 196.369148 
L 239.472801 193.893872 
L 241.681336 191.985862 
L 243.88987 199.54876 
L 246.098404 200.14918 
L 248.306939 196.919409 
L 250.515473 195.541989 
L 252.724007 192.661388 
L 254.932542 197.7627 
L 257.141076 194.926733 
L 259.34961 197.462135 
L 261.558145 196.929204 
L 263.766679 196.783023 
L 265.975213 196.005101 
L 268.183748 194.581605 
L 270.392282 193.666567 
L 272.600816 194.07711 
L 274.809351 191.457357 
L 277.017885 200.907403 
L 279.226419 200.804863 
L 281.434954 194.151143 
L 283.643488 189.541537 
L 285.852022 193.128547 
L 288.060557 203.954937 
L 290.269091 182.812804 
L 292.477625 196.746728 
L 294.68616 189.284264 
L 296.894694 189.477435 
L 299.103228 196.472687 
L 301.311763 199.445207 
L 303.520297 188.293422 
L 305.728831 183.016407 
L 307.937365 189.763204 
L 310.1459 200.363935 
L 312.354434 176.683811 
L 314.562968 197.734518 
L 316.771503 193.721311 
L 318.980037 204.219374 
L 321.188571 202.610889 
L 323.397106 191.421088 
L 325.60564 188.67273 
L 327.814174 183.759425 
L 330.022709 194.070622 
L 332.231243 191.248123 
L 334.439777 196.977479 
L 336.648312 204.470846 
L 338.856846 200.009369 
L 341.06538 185.024864 
L 343.273915 193.397722 
L 345.482449 199.161066 
L 347.690983 202.859973 
L 349.899518 195.771938 
L 352.108052 187.338383 
L 354.316586 193.685315 
L 356.525121 198.542526 
L 358.733655 198.337745 
L 360.942189 195.940717 
L 363.150724 192.581262 
L 365.359258 198.095515 
L 367.567792 200.336027 
L 369.776327 196.208722 
L 371.984861 198.561562 
L 374.193395 198.565759 
L 376.401929 190.138897 
L 378.610464 193.108566 
L 380.818998 195.139212 
L 383.027532 189.212493 
L 385.236067 191.414324 
L 387.444601 195.392237 
L 389.653135 196.305702 
L 391.86167 202.810512 
L 394.070204 198.239955 
L 396.278738 199.884485 
L 398.487273 196.690174 
L 398.487273 196.690174 
" clip-path="url(#pd90babf33d)" style="fill: none; stroke: #008000; stroke-opacity: 0.8; stroke-width: 0.5; stroke-linecap: square"/>
   </g>
   <g id="line2d_16">
    <path d="M 73.832727 178.658995 
L 76.041262 179.078003 
L 78.249796 165.18318 
L 80.45833 169.738675 
L 82.666865 179.612622 
L 84.875399 185.645764 
L 87.083933 186.725019 
L 89.292468 181.209937 
L 91.501002 187.110661 
L 93.709536 178.344874 
L 95.918071 186.064558 
L 98.126605 186.481137 
L 100.335139 185.217495 
L 102.543673 188.82876 
L 104.752208 187.46311 
L 106.960742 189.978109 
L 109.169276 153.396968 
L 111.377811 158.099421 
L 113.586345 170.997671 
L 115.794879 173.768842 
L 118.003414 155.527448 
L 120.211948 166.993389 
L 122.420482 168.290952 
L 124.629017 178.602418 
L 126.837551 183.837256 
L 129.046085 190.610105 
L 131.25462 185.105411 
L 133.463154 171.211517 
L 135.671688 187.097774 
L 137.880223 191.859098 
L 140.088757 173.635207 
L 142.297291 164.513986 
L 144.505826 178.885821 
L 146.71436 192.23271 
L 148.922894 182.551049 
L 151.131429 186.131354 
L 153.339963 156.752537 
L 155.548497 157.45541 
L 157.757032 161.764514 
L 159.965566 190.598539 
L 162.1741 178.856332 
L 164.382635 171.862264 
L 166.591169 189.61451 
L 168.799703 190.679823 
L 171.008237 189.529472 
L 173.216772 182.816298 
L 175.425306 193.982083 
L 177.63384 184.522006 
L 179.842375 171.948886 
L 182.050909 169.219965 
L 184.259443 145.802608 
L 186.467978 96.49459 
L 188.676512 53.568 
L 190.885046 145.43806 
L 193.093581 157.22405 
L 195.302115 159.283397 
L 197.510649 168.697676 
L 199.719184 184.764429 
L 201.927718 112.806987 
L 204.136252 159.470673 
L 206.344787 179.711089 
L 208.553321 177.05725 
L 210.761855 182.921042 
L 212.97039 188.064711 
L 215.178924 139.689608 
L 217.387458 160.387169 
L 219.595993 173.838544 
L 221.804527 166.502996 
L 224.013061 142.505659 
L 226.221596 176.30129 
L 228.43013 187.181805 
L 230.638664 181.616271 
L 232.847199 170.282902 
L 235.055733 182.514119 
L 237.264267 151.33546 
L 239.472801 181.200592 
L 241.681336 152.511891 
L 243.88987 168.793274 
L 246.098404 181.260628 
L 248.306939 181.920895 
L 250.515473 177.511612 
L 252.724007 155.497898 
L 254.932542 188.997755 
L 257.141076 184.278694 
L 259.34961 170.135203 
L 261.558145 177.95896 
L 263.766679 164.327977 
L 265.975213 183.786386 
L 268.183748 173.370887 
L 270.392282 179.071721 
L 272.600816 161.447127 
L 274.809351 154.821671 
L 277.017885 181.117912 
L 279.226419 184.109413 
L 281.434954 177.351097 
L 283.643488 147.619449 
L 285.852022 171.273624 
L 288.060557 187.874425 
L 290.269091 153.646147 
L 292.477625 157.345358 
L 294.68616 145.487144 
L 296.894694 153.026451 
L 299.103228 138.71506 
L 301.311763 162.881571 
L 303.520297 161.31773 
L 305.728831 126.657027 
L 307.937365 127.642566 
L 310.1459 122.563569 
L 312.354434 128.713929 
L 314.562968 140.952561 
L 316.771503 174.991256 
L 318.980037 174.604341 
L 321.188571 182.537823 
L 323.397106 155.054408 
L 325.60564 132.8772 
L 327.814174 117.129245 
L 330.022709 160.44252 
L 332.231243 148.989717 
L 334.439777 152.634137 
L 338.856846 167.481961 
L 341.06538 151.219844 
L 343.273915 170.208824 
L 345.482449 167.537225 
L 347.690983 171.570262 
L 349.899518 174.436162 
L 352.108052 158.965059 
L 356.525121 165.898082 
L 358.733655 184.141586 
L 360.942189 166.075119 
L 363.150724 173.520133 
L 365.359258 174.05741 
L 367.567792 183.35411 
L 369.776327 179.877657 
L 371.984861 179.133313 
L 374.193395 181.006921 
L 376.401929 166.862777 
L 378.610464 171.890943 
L 380.818998 168.497272 
L 383.027532 163.07245 
L 385.236067 166.702175 
L 387.444601 169.008681 
L 389.653135 168.042083 
L 394.070204 190.476409 
L 396.278738 183.647839 
L 398.487273 163.937072 
L 398.487273 163.937072 
" clip-path="url(#pd90babf33d)" style="fill: none; stroke: #32cd32; stroke-opacity: 0.8; stroke-width: 0.5; stroke-linecap: square"/>
   </g>
   <g id="line2d_17">
    <path d="M 73.832727 213.788371 
L 76.041262 215.326798 
L 78.249796 226.458568 
L 80.45833 214.596056 
L 82.666865 207.560953 
L 84.875399 210.031012 
L 87.083933 203.667385 
L 89.292468 209.914426 
L 91.501002 197.697848 
L 93.709536 205.404599 
L 95.918071 205.327638 
L 98.126605 205.809678 
L 100.335139 204.396501 
L 102.543673 204.143319 
L 104.752208 201.301851 
L 106.960742 204.434512 
L 109.169276 220.642975 
L 111.377811 216.642732 
L 113.586345 220.342167 
L 115.794879 221.874036 
L 118.003414 208.047971 
L 120.211948 246.393568 
L 122.420482 232.041209 
L 124.629017 210.249483 
L 126.837551 212.983095 
L 129.046085 207.948226 
L 131.25462 212.466244 
L 133.463154 208.18114 
L 135.671688 209.102756 
L 137.880223 205.931108 
L 140.088757 206.974607 
L 142.297291 205.865201 
L 144.505826 220.569335 
L 146.71436 207.015044 
L 148.922894 204.631 
L 151.131429 200.709005 
L 153.339963 204.340186 
L 155.548497 218.374204 
L 157.757032 210.77184 
L 159.965566 211.409877 
L 162.1741 202.703808 
L 164.382635 212.824403 
L 166.591169 203.675289 
L 168.799703 207.476332 
L 171.008237 205.02554 
L 173.216772 207.041908 
L 175.425306 206.353106 
L 177.63384 206.342615 
L 179.842375 206.497813 
L 182.050909 215.750667 
L 184.259443 203.924939 
L 186.467978 254.045401 
L 188.676512 295.488 
L 190.885046 271.380279 
L 193.093581 234.479259 
L 195.302115 228.035455 
L 197.510649 234.171999 
L 199.719184 214.119675 
L 201.927718 230.239723 
L 204.136252 215.256308 
L 206.344787 216.362357 
L 208.553321 212.08342 
L 210.761855 214.911816 
L 212.97039 209.81787 
L 215.178924 223.832103 
L 217.387458 217.774871 
L 219.595993 220.811131 
L 221.804527 202.371219 
L 224.013061 226.949517 
L 226.221596 215.472122 
L 228.43013 219.666935 
L 230.638664 214.98212 
L 232.847199 218.644554 
L 235.055733 217.442225 
L 237.264267 220.404451 
L 239.472801 206.876665 
L 241.681336 233.882672 
L 243.88987 217.956398 
L 246.098404 222.677417 
L 248.306939 214.189153 
L 250.515473 213.941116 
L 252.724007 221.001408 
L 254.932542 213.205989 
L 257.141076 210.389169 
L 259.34961 219.684847 
L 261.558145 215.435961 
L 263.766679 222.36861 
L 265.975213 209.87252 
L 268.183748 210.673247 
L 270.392282 211.320934 
L 272.600816 217.453377 
L 274.809351 215.827392 
L 277.017885 226.675066 
L 279.226419 213.659217 
L 281.434954 208.766663 
L 285.852022 235.580304 
L 288.060557 229.560582 
L 290.269091 212.797253 
L 292.477625 240.189059 
L 294.68616 224.518784 
L 296.894694 236.129204 
L 299.103228 241.072081 
L 301.311763 222.128231 
L 303.520297 215.726746 
L 305.728831 239.501895 
L 307.937365 248.715116 
L 312.354434 227.379017 
L 314.562968 245.101469 
L 316.771503 219.630507 
L 318.980037 240.666437 
L 321.188571 232.696047 
L 323.397106 226.182696 
L 325.60564 225.779219 
L 327.814174 221.172601 
L 330.022709 243.640967 
L 332.231243 236.007139 
L 334.439777 235.441565 
L 336.648312 285.112959 
L 338.856846 247.899111 
L 341.06538 219.04625 
L 343.273915 223.404013 
L 345.482449 232.504446 
L 349.899518 220.897525 
L 352.108052 207.643662 
L 354.316586 224.379787 
L 356.525121 219.214749 
L 358.733655 220.033686 
L 360.942189 229.128231 
L 363.150724 227.243406 
L 365.359258 218.138147 
L 367.567792 221.242917 
L 369.776327 217.671594 
L 371.984861 217.968298 
L 374.193395 210.955875 
L 376.401929 213.961276 
L 378.610464 215.599296 
L 380.818998 222.49137 
L 383.027532 210.878746 
L 385.236067 209.492621 
L 387.444601 216.454718 
L 389.653135 229.357534 
L 391.86167 231.150525 
L 394.070204 209.009995 
L 396.278738 222.051503 
L 398.487273 215.512112 
L 398.487273 215.512112 
" clip-path="url(#pd90babf33d)" style="fill: none; stroke: #32cd32; stroke-opacity: 0.8; stroke-width: 0.5; stroke-linecap: square"/>
   </g>
   <g id="line2d_18">
    <path d="M 73.832727 196.922511 
L 76.041262 196.217156 
L 78.249796 188.762162 
L 80.45833 198.068084 
L 82.666865 195.28881 
L 84.875399 197.647727 
L 87.083933 195.095168 
L 89.292468 197.094595 
L 91.501002 193.66959 
L 93.709536 196.188498 
L 95.918071 195.681266 
L 98.126605 196.526074 
L 100.335139 194.894677 
L 102.543673 196.252358 
L 104.752208 194.868031 
L 106.960742 195.329998 
L 109.169276 189.74577 
L 111.377811 189.402128 
L 113.586345 196.637753 
L 115.794879 195.980685 
L 118.003414 190.955496 
L 120.211948 188.188318 
L 122.420482 199.509917 
L 124.629017 197.622787 
L 126.837551 199.566697 
L 129.046085 196.976013 
L 131.25462 195.703494 
L 133.463154 194.601192 
L 135.671688 198.39905 
L 137.880223 196.389923 
L 140.088757 192.309752 
L 142.297291 192.709692 
L 144.505826 197.118874 
L 146.71436 198.135531 
L 148.922894 195.833135 
L 151.131429 195.078704 
L 153.339963 188.583964 
L 155.548497 198.252422 
L 157.757032 194.049365 
L 159.965566 199.06112 
L 162.1741 191.879571 
L 164.382635 197.203297 
L 166.591169 196.518979 
L 168.799703 197.064036 
L 171.008237 196.759954 
L 173.216772 194.680081 
L 175.425306 198.861867 
L 177.63384 195.655484 
L 179.842375 193.560728 
L 182.050909 199.252927 
L 184.259443 184.737941 
L 186.467978 184.057272 
L 188.676512 176.235082 
L 190.885046 204.370676 
L 193.093581 201.046504 
L 195.302115 197.039396 
L 197.510649 200.244245 
L 199.719184 200.912338 
L 201.927718 194.84461 
L 204.136252 195.386692 
L 206.344787 198.815486 
L 208.553321 196.671377 
L 210.761855 199.024757 
L 212.97039 200.434605 
L 215.178924 189.120911 
L 217.387458 193.231719 
L 219.595993 202.536736 
L 221.804527 188.73968 
L 224.013061 201.114906 
L 226.221596 195.672837 
L 228.43013 199.882854 
L 230.638664 193.788197 
L 232.847199 199.50261 
L 235.055733 196.026265 
L 237.264267 196.369148 
L 239.472801 193.893872 
L 241.681336 191.985862 
L 243.88987 199.54876 
L 246.098404 200.14918 
L 248.306939 196.919409 
L 250.515473 195.541989 
L 252.724007 192.661388 
L 254.932542 197.7627 
L 257.141076 194.926733 
L 259.34961 197.462135 
L 261.558145 196.929204 
L 263.766679 196.783023 
L 265.975213 196.005101 
L 268.183748 194.581605 
L 270.392282 193.666567 
L 272.600816 194.07711 
L 274.809351 191.457357 
L 277.017885 200.907403 
L 279.226419 200.804863 
L 281.434954 194.151143 
L 283.643488 189.541537 
L 285.852022 193.128547 
L 288.060557 203.954937 
L 290.269091 182.812804 
L 292.477625 196.746728 
L 294.68616 189.284264 
L 296.894694 189.477435 
L 299.103228 196.472687 
L 301.311763 199.445207 
L 303.520297 188.293422 
L 305.728831 183.016407 
L 307.937365 189.763204 
L 310.1459 200.363935 
L 312.354434 176.683811 
L 314.562968 197.734518 
L 316.771503 193.721311 
L 318.980037 204.219374 
L 321.188571 202.610889 
L 323.397106 191.421088 
L 325.60564 188.67273 
L 327.814174 183.759425 
L 330.022709 194.070622 
L 332.231243 191.248123 
L 334.439777 196.977479 
L 336.648312 204.470846 
L 338.856846 200.009369 
L 341.06538 185.024864 
L 343.273915 193.397722 
L 345.482449 199.161066 
L 347.690983 202.859973 
L 349.899518 195.771938 
L 352.108052 187.338383 
L 354.316586 193.685315 
L 356.525121 198.542526 
L 358.733655 198.337745 
L 360.942189 195.940717 
L 363.150724 192.581262 
L 365.359258 198.095515 
L 367.567792 200.336027 
L 369.776327 196.208722 
L 371.984861 198.561562 
L 374.193395 198.565759 
L 376.401929 190.138897 
L 378.610464 193.108566 
L 380.818998 195.139212 
L 383.027532 189.212493 
L 385.236067 191.414324 
L 387.444601 195.392237 
L 389.653135 196.305702 
L 391.86167 202.810512 
L 394.070204 198.239955 
L 396.278738 199.884485 
L 398.487273 196.690174 
L 398.487273 196.690174 
" clip-path="url(#pd90babf33d)" style="fill: none; stroke: #ff0000; stroke-opacity: 0.8; stroke-width: 0.5; stroke-linecap: square"/>
   </g>
   <g id="line2d_19">
    <path d="M 73.832727 178.658995 
L 76.041262 179.078003 
L 78.249796 165.18318 
L 80.45833 169.738675 
L 82.666865 179.612622 
L 84.875399 185.645764 
L 87.083933 186.725019 
L 89.292468 181.209937 
L 91.501002 187.110661 
L 93.709536 178.344874 
L 95.918071 186.064558 
L 98.126605 186.481137 
L 100.335139 185.217495 
L 102.543673 188.82876 
L 104.752208 187.46311 
L 106.960742 189.978109 
L 109.169276 153.396968 
L 111.377811 158.099421 
L 113.586345 170.997671 
L 115.794879 173.768842 
L 118.003414 155.527448 
L 120.211948 166.993389 
L 122.420482 168.290952 
L 124.629017 178.602418 
L 126.837551 183.837256 
L 129.046085 190.610105 
L 131.25462 185.105411 
L 133.463154 171.211517 
L 135.671688 187.097774 
L 137.880223 191.859098 
L 140.088757 173.635207 
L 142.297291 164.513986 
L 144.505826 178.885821 
L 146.71436 192.23271 
L 148.922894 182.551049 
L 151.131429 186.131354 
L 153.339963 156.752537 
L 155.548497 157.45541 
L 157.757032 161.764514 
L 159.965566 190.598539 
L 162.1741 178.856332 
L 164.382635 171.862264 
L 166.591169 189.61451 
L 168.799703 190.679823 
L 171.008237 189.529472 
L 173.216772 182.816298 
L 175.425306 193.982083 
L 177.63384 184.522006 
L 179.842375 171.948886 
L 182.050909 169.219965 
L 184.259443 145.802608 
L 186.467978 96.49459 
L 188.676512 53.568 
L 190.885046 145.43806 
L 193.093581 157.22405 
L 195.302115 159.283397 
L 197.510649 168.697676 
L 199.719184 184.764429 
L 201.927718 112.806987 
L 204.136252 159.470673 
L 206.344787 179.711089 
L 208.553321 177.05725 
L 210.761855 182.921042 
L 212.97039 188.064711 
L 215.178924 139.689608 
L 217.387458 160.387169 
L 219.595993 173.838544 
L 221.804527 166.502996 
L 224.013061 142.505659 
L 226.221596 176.30129 
L 228.43013 187.181805 
L 230.638664 181.616271 
L 232.847199 170.282902 
L 235.055733 182.514119 
L 237.264267 151.33546 
L 239.472801 181.200592 
L 241.681336 152.511891 
L 243.88987 168.793274 
L 246.098404 181.260628 
L 248.306939 181.920895 
L 250.515473 177.511612 
L 252.724007 155.497898 
L 254.932542 188.997755 
L 257.141076 184.278694 
L 259.34961 170.135203 
L 261.558145 177.95896 
L 263.766679 164.327977 
L 265.975213 183.786386 
L 268.183748 173.370887 
L 270.392282 179.071721 
L 272.600816 161.447127 
L 274.809351 154.821671 
L 277.017885 181.117912 
L 279.226419 184.109413 
L 281.434954 177.351097 
L 283.643488 147.619449 
L 285.852022 171.273624 
L 288.060557 187.874425 
L 290.269091 153.646147 
L 292.477625 157.345358 
L 294.68616 145.487144 
L 296.894694 153.026451 
L 299.103228 138.71506 
L 301.311763 162.881571 
L 303.520297 161.31773 
L 305.728831 126.657027 
L 307.937365 127.642566 
L 310.1459 122.563569 
L 312.354434 128.713929 
L 314.562968 140.952561 
L 316.771503 174.991256 
L 318.980037 174.604341 
L 321.188571 182.537823 
L 323.397106 155.054408 
L 325.60564 132.8772 
L 327.814174 117.129245 
L 330.022709 160.44252 
L 332.231243 148.989717 
L 334.439777 152.634137 
L 338.856846 167.481961 
L 341.06538 151.219844 
L 343.273915 170.208824 
L 345.482449 167.537225 
L 347.690983 171.570262 
L 349.899518 174.436162 
L 352.108052 158.965059 
L 356.525121 165.898082 
L 358.733655 184.141586 
L 360.942189 166.075119 
L 363.150724 173.520133 
L 365.359258 174.05741 
L 367.567792 183.35411 
L 369.776327 179.877657 
L 371.984861 179.133313 
L 374.193395 181.006921 
L 376.401929 166.862777 
L 378.610464 171.890943 
L 380.818998 168.497272 
L 383.027532 163.07245 
L 385.236067 166.702175 
L 387.444601 169.008681 
L 389.653135 168.042083 
L 394.070204 190.476409 
L 396.278738 183.647839 
L 398.487273 163.937072 
L 398.487273 163.937072 
" clip-path="url(#pd90babf33d)" style="fill: none; stroke: #f08080; stroke-opacity: 0.8; stroke-width: 0.5; stroke-linecap: square"/>
   </g>
   <g id="line2d_20">
    <path d="M 73.832727 213.788371 
L 76.041262 215.326798 
L 78.249796 226.458568 
L 80.45833 214.596056 
L 82.666865 207.560953 
L 84.875399 210.031012 
L 87.083933 203.667385 
L 89.292468 209.914426 
L 91.501002 197.697848 
L 93.709536 205.404599 
L 95.918071 205.327638 
L 98.126605 205.809678 
L 100.335139 204.396501 
L 102.543673 204.143319 
L 104.752208 201.301851 
L 106.960742 204.434512 
L 109.169276 220.642975 
L 111.377811 216.642732 
L 113.586345 220.342167 
L 115.794879 221.874036 
L 118.003414 208.047971 
L 120.211948 246.393568 
L 122.420482 232.041209 
L 124.629017 210.249483 
L 126.837551 212.983095 
L 129.046085 207.948226 
L 131.25462 212.466244 
L 133.463154 208.18114 
L 135.671688 209.102756 
L 137.880223 205.931108 
L 140.088757 206.974607 
L 142.297291 205.865201 
L 144.505826 220.569335 
L 146.71436 207.015044 
L 148.922894 204.631 
L 151.131429 200.709005 
L 153.339963 204.340186 
L 155.548497 218.374204 
L 157.757032 210.77184 
L 159.965566 211.409877 
L 162.1741 202.703808 
L 164.382635 212.824403 
L 166.591169 203.675289 
L 168.799703 207.476332 
L 171.008237 205.02554 
L 173.216772 207.041908 
L 175.425306 206.353106 
L 177.63384 206.342615 
L 179.842375 206.497813 
L 182.050909 215.750667 
L 184.259443 203.924939 
L 186.467978 254.045401 
L 188.676512 295.488 
L 190.885046 271.380279 
L 193.093581 234.479259 
L 195.302115 228.035455 
L 197.510649 234.171999 
L 199.719184 214.119675 
L 201.927718 230.239723 
L 204.136252 215.256308 
L 206.344787 216.362357 
L 208.553321 212.08342 
L 210.761855 214.911816 
L 212.97039 209.81787 
L 215.178924 223.832103 
L 217.387458 217.774871 
L 219.595993 220.811131 
L 221.804527 202.371219 
L 224.013061 226.949517 
L 226.221596 215.472122 
L 228.43013 219.666935 
L 230.638664 214.98212 
L 232.847199 218.644554 
L 235.055733 217.442225 
L 237.264267 220.404451 
L 239.472801 206.876665 
L 241.681336 233.882672 
L 243.88987 217.956398 
L 246.098404 222.677417 
L 248.306939 214.189153 
L 250.515473 213.941116 
L 252.724007 221.001408 
L 254.932542 213.205989 
L 257.141076 210.389169 
L 259.34961 219.684847 
L 261.558145 215.435961 
L 263.766679 222.36861 
L 265.975213 209.87252 
L 268.183748 210.673247 
L 270.392282 211.320934 
L 272.600816 217.453377 
L 274.809351 215.827392 
L 277.017885 226.675066 
L 279.226419 213.659217 
L 281.434954 208.766663 
L 285.852022 235.580304 
L 288.060557 229.560582 
L 290.269091 212.797253 
L 292.477625 240.189059 
L 294.68616 224.518784 
L 296.894694 236.129204 
L 299.103228 241.072081 
L 301.311763 222.128231 
L 303.520297 215.726746 
L 305.728831 239.501895 
L 307.937365 248.715116 
L 312.354434 227.379017 
L 314.562968 245.101469 
L 316.771503 219.630507 
L 318.980037 240.666437 
L 321.188571 232.696047 
L 323.397106 226.182696 
L 325.60564 225.779219 
L 327.814174 221.172601 
L 330.022709 243.640967 
L 332.231243 236.007139 
L 334.439777 235.441565 
L 336.648312 285.112959 
L 338.856846 247.899111 
L 341.06538 219.04625 
L 343.273915 223.404013 
L 345.482449 232.504446 
L 349.899518 220.897525 
L 352.108052 207.643662 
L 354.316586 224.379787 
L 356.525121 219.214749 
L 358.733655 220.033686 
L 360.942189 229.128231 
L 363.150724 227.243406 
L 365.359258 218.138147 
L 367.567792 221.242917 
L 369.776327 217.671594 
L 371.984861 217.968298 
L 374.193395 210.955875 
L 376.401929 213.961276 
L 378.610464 215.599296 
L 380.818998 222.49137 
L 383.027532 210.878746 
L 385.236067 209.492621 
L 387.444601 216.454718 
L 389.653135 229.357534 
L 391.86167 231.150525 
L 394.070204 209.009995 
L 396.278738 222.051503 
L 398.487273 215.512112 
L 398.487273 215.512112 
" clip-path="url(#pd90babf33d)" style="fill: none; stroke: #f08080; stroke-opacity: 0.8; stroke-width: 0.5; stroke-linecap: square"/>
   </g>
   <g id="patch_3">
    <path d="M 57.6 307.584 
L 57.6 41.472 
" style="fill: none; stroke: #000000; stroke-width: 0.8; stroke-linejoin: miter; stroke-linecap: square"/>
   </g>
   <g id="patch_4">
    <path d="M 414.72 307.584 
L 414.72 41.472 
" style="fill: none; stroke: #000000; stroke-width: 0.8; stroke-linejoin: miter; stroke-linecap: square"/>
   </g>
   <g id="patch_5">
    <path d="M 57.6 307.584 
L 414.72 307.584 
" style="fill: none; stroke: #000000; stroke-width: 0.8; stroke-linejoin: miter; stroke-linecap: square"/>
   </g>
   <g id="patch_6">
    <path d="M 57.6 41.472 
L 414.72 41.472 
" style="fill: none; stroke: #000000; stroke-width: 0.8; stroke-linejoin: miter; stroke-linecap: square"/>
   </g>
   <g id="text_15">
    <!-- 1final_arima_snp500 -->
    <g transform="translate(173.895938 35.472) scale(0.12 -0.12)">
     <defs>
      <path id="DejaVuSans-66" d="M 2375 4863 
L 2375 4384 
L 1825 4384 
Q 1516 4384 1395 4259 
Q 1275 4134 1275 3809 
L 1275 3500 
L 2222 3500 
L 2222 3053 
L 1275 3053 
L 1275 0 
L 697 0 
L 697 3053 
L 147 3053 
L 147 3500 
L 697 3500 
L 697 3744 
Q 697 4328 969 4595 
Q 1241 4863 1831 4863 
L 2375 4863 
z
" transform="scale(0.015625)"/>
      <path id="DejaVuSans-69" d="M 603 3500 
L 1178 3500 
L 1178 0 
L 603 0 
L 603 3500 
z
M 603 4863 
L 1178 4863 
L 1178 4134 
L 603 4134 
L 603 4863 
z
" transform="scale(0.015625)"/>
      <path id="DejaVuSans-6e" d="M 3513 2113 
L 3513 0 
L 2938 0 
L 2938 2094 
Q 2938 2591 2744 2837 
Q 2550 3084 2163 3084 
Q 1697 3084 1428 2787 
Q 1159 2491 1159 1978 
L 1159 0 
L 581 0 
L 581 3500 
L 1159 3500 
L 1159 2956 
Q 1366 3272 1645 3428 
Q 1925 3584 2291 3584 
Q 2894 3584 3203 3211 
Q 3513 2838 3513 2113 
z
" transform="scale(0.015625)"/>
      <path id="DejaVuSans-61" d="M 2194 1759 
Q 1497 1759 1228 1600 
Q 959 1441 959 1056 
Q 959 750 1161 570 
Q 1363 391 1709 391 
Q 2188 391 2477 730 
Q 2766 1069 2766 1631 
L 2766 1759 
L 2194 1759 
z
M 3341 1997 
L 3341 0 
L 2766 0 
L 2766 531 
Q 2569 213 2275 61 
Q 1981 -91 1556 -91 
Q 1019 -91 701 211 
Q 384 513 384 1019 
Q 384 1609 779 1909 
Q 1175 2209 1959 2209 
L 2766 2209 
L 2766 2266 
Q 2766 2663 2505 2880 
Q 2244 3097 1772 3097 
Q 1472 3097 1187 3025 
Q 903 2953 641 2809 
L 641 3341 
Q 956 3463 1253 3523 
Q 1550 3584 1831 3584 
Q 2591 3584 2966 3190 
Q 3341 2797 3341 1997 
z
" transform="scale(0.015625)"/>
      <path id="DejaVuSans-6c" d="M 603 4863 
L 1178 4863 
L 1178 0 
L 603 0 
L 603 4863 
z
" transform="scale(0.015625)"/>
      <path id="DejaVuSans-5f" d="M 3263 -1063 
L 3263 -1509 
L -63 -1509 
L -63 -1063 
L 3263 -1063 
z
" transform="scale(0.015625)"/>
      <path id="DejaVuSans-72" d="M 2631 2963 
Q 2534 3019 2420 3045 
Q 2306 3072 2169 3072 
Q 1681 3072 1420 2755 
Q 1159 2438 1159 1844 
L 1159 0 
L 581 0 
L 581 3500 
L 1159 3500 
L 1159 2956 
Q 1341 3275 1631 3429 
Q 1922 3584 2338 3584 
Q 2397 3584 2469 3576 
Q 2541 3569 2628 3553 
L 2631 2963 
z
" transform="scale(0.015625)"/>
      <path id="DejaVuSans-6d" d="M 3328 2828 
Q 3544 3216 3844 3400 
Q 4144 3584 4550 3584 
Q 5097 3584 5394 3201 
Q 5691 2819 5691 2113 
L 5691 0 
L 5113 0 
L 5113 2094 
Q 5113 2597 4934 2840 
Q 4756 3084 4391 3084 
Q 3944 3084 3684 2787 
Q 3425 2491 3425 1978 
L 3425 0 
L 2847 0 
L 2847 2094 
Q 2847 2600 2669 2842 
Q 2491 3084 2119 3084 
Q 1678 3084 1418 2786 
Q 1159 2488 1159 1978 
L 1159 0 
L 581 0 
L 581 3500 
L 1159 3500 
L 1159 2956 
Q 1356 3278 1631 3431 
Q 1906 3584 2284 3584 
Q 2666 3584 2933 3390 
Q 3200 3197 3328 2828 
z
" transform="scale(0.015625)"/>
      <path id="DejaVuSans-73" d="M 2834 3397 
L 2834 2853 
Q 2591 2978 2328 3040 
Q 2066 3103 1784 3103 
Q 1356 3103 1142 2972 
Q 928 2841 928 2578 
Q 928 2378 1081 2264 
Q 1234 2150 1697 2047 
L 1894 2003 
Q 2506 1872 2764 1633 
Q 3022 1394 3022 966 
Q 3022 478 2636 193 
Q 2250 -91 1575 -91 
Q 1294 -91 989 -36 
Q 684 19 347 128 
L 347 722 
Q 666 556 975 473 
Q 1284 391 1588 391 
Q 1994 391 2212 530 
Q 2431 669 2431 922 
Q 2431 1156 2273 1281 
Q 2116 1406 1581 1522 
L 1381 1569 
Q 847 1681 609 1914 
Q 372 2147 372 2553 
Q 372 3047 722 3315 
Q 1072 3584 1716 3584 
Q 2034 3584 2315 3537 
Q 2597 3491 2834 3397 
z
" transform="scale(0.015625)"/>
      <path id="DejaVuSans-70" d="M 1159 525 
L 1159 -1331 
L 581 -1331 
L 581 3500 
L 1159 3500 
L 1159 2969 
Q 1341 3281 1617 3432 
Q 1894 3584 2278 3584 
Q 2916 3584 3314 3078 
Q 3713 2572 3713 1747 
Q 3713 922 3314 415 
Q 2916 -91 2278 -91 
Q 1894 -91 1617 61 
Q 1341 213 1159 525 
z
M 3116 1747 
Q 3116 2381 2855 2742 
Q 2594 3103 2138 3103 
Q 1681 3103 1420 2742 
Q 1159 2381 1159 1747 
Q 1159 1113 1420 752 
Q 1681 391 2138 391 
Q 2594 391 2855 752 
Q 3116 1113 3116 1747 
z
" transform="scale(0.015625)"/>
      <path id="DejaVuSans-35" d="M 691 4666 
L 3169 4666 
L 3169 4134 
L 1269 4134 
L 1269 2991 
Q 1406 3038 1543 3061 
Q 1681 3084 1819 3084 
Q 2600 3084 3056 2656 
Q 3513 2228 3513 1497 
Q 3513 744 3044 326 
Q 2575 -91 1722 -91 
Q 1428 -91 1123 -41 
Q 819 9 494 109 
L 494 744 
Q 775 591 1075 516 
Q 1375 441 1709 441 
Q 2250 441 2565 725 
Q 2881 1009 2881 1497 
Q 2881 1984 2565 2268 
Q 2250 2553 1709 2553 
Q 1456 2553 1204 2497 
Q 953 2441 691 2322 
L 691 4666 
z
" transform="scale(0.015625)"/>
     </defs>
     <use xlink:href="#DejaVuSans-31"/>
     <use xlink:href="#DejaVuSans-66" x="63.623047"/>
     <use xlink:href="#DejaVuSans-69" x="98.828125"/>
     <use xlink:href="#DejaVuSans-6e" x="126.611328"/>
     <use xlink:href="#DejaVuSans-61" x="189.990234"/>
     <use xlink:href="#DejaVuSans-6c" x="251.269531"/>
     <use xlink:href="#DejaVuSans-5f" x="279.052734"/>
     <use xlink:href="#DejaVuSans-61" x="329.052734"/>
     <use xlink:href="#DejaVuSans-72" x="390.332031"/>
     <use xlink:href="#DejaVuSans-69" x="431.445312"/>
     <use xlink:href="#DejaVuSans-6d" x="459.228516"/>
     <use xlink:href="#DejaVuSans-61" x="556.640625"/>
     <use xlink:href="#DejaVuSans-5f" x="617.919922"/>
     <use xlink:href="#DejaVuSans-73" x="667.919922"/>
     <use xlink:href="#DejaVuSans-6e" x="720.019531"/>
     <use xlink:href="#DejaVuSans-70" x="783.398438"/>
     <use xlink:href="#DejaVuSans-35" x="846.875"/>
     <use xlink:href="#DejaVuSans-30" x="910.498047"/>
     <use xlink:href="#DejaVuSans-30" x="974.121094"/>
    </g>
   </g>
   <g id="legend_1">
    <g id="patch_7">
     <path d="M 64.6 137.54075 
L 225.001563 137.54075 
Q 227.001563 137.54075 227.001563 135.54075 
L 227.001563 48.472 
Q 227.001563 46.472 225.001563 46.472 
L 64.6 46.472 
Q 62.6 46.472 62.6 48.472 
L 62.6 135.54075 
Q 62.6 137.54075 64.6 137.54075 
z
" style="fill: #ffffff; opacity: 0.8; stroke: #cccccc; stroke-linejoin: miter"/>
    </g>
    <g id="line2d_21">
     <path d="M 66.6 54.570438 
L 76.6 54.570438 
L 86.6 54.570438 
" style="fill: none; stroke: #008000; stroke-opacity: 0.8; stroke-width: 0.5; stroke-linecap: square"/>
    </g>
    <g id="text_16">
     <!-- Positive predictions -->
     <g transform="translate(94.6 58.070438) scale(0.1 -0.1)">
      <defs>
       <path id="DejaVuSans-50" d="M 1259 4147 
L 1259 2394 
L 2053 2394 
Q 2494 2394 2734 2622 
Q 2975 2850 2975 3272 
Q 2975 3691 2734 3919 
Q 2494 4147 2053 4147 
L 1259 4147 
z
M 628 4666 
L 2053 4666 
Q 2838 4666 3239 4311 
Q 3641 3956 3641 3272 
Q 3641 2581 3239 2228 
Q 2838 1875 2053 1875 
L 1259 1875 
L 1259 0 
L 628 0 
L 628 4666 
z
" transform="scale(0.015625)"/>
       <path id="DejaVuSans-6f" d="M 1959 3097 
Q 1497 3097 1228 2736 
Q 959 2375 959 1747 
Q 959 1119 1226 758 
Q 1494 397 1959 397 
Q 2419 397 2687 759 
Q 2956 1122 2956 1747 
Q 2956 2369 2687 2733 
Q 2419 3097 1959 3097 
z
M 1959 3584 
Q 2709 3584 3137 3096 
Q 3566 2609 3566 1747 
Q 3566 888 3137 398 
Q 2709 -91 1959 -91 
Q 1206 -91 779 398 
Q 353 888 353 1747 
Q 353 2609 779 3096 
Q 1206 3584 1959 3584 
z
" transform="scale(0.015625)"/>
       <path id="DejaVuSans-74" d="M 1172 4494 
L 1172 3500 
L 2356 3500 
L 2356 3053 
L 1172 3053 
L 1172 1153 
Q 1172 725 1289 603 
Q 1406 481 1766 481 
L 2356 481 
L 2356 0 
L 1766 0 
Q 1100 0 847 248 
Q 594 497 594 1153 
L 594 3053 
L 172 3053 
L 172 3500 
L 594 3500 
L 594 4494 
L 1172 4494 
z
" transform="scale(0.015625)"/>
       <path id="DejaVuSans-76" d="M 191 3500 
L 800 3500 
L 1894 563 
L 2988 3500 
L 3597 3500 
L 2284 0 
L 1503 0 
L 191 3500 
z
" transform="scale(0.015625)"/>
       <path id="DejaVuSans-65" d="M 3597 1894 
L 3597 1613 
L 953 1613 
Q 991 1019 1311 708 
Q 1631 397 2203 397 
Q 2534 397 2845 478 
Q 3156 559 3463 722 
L 3463 178 
Q 3153 47 2828 -22 
Q 2503 -91 2169 -91 
Q 1331 -91 842 396 
Q 353 884 353 1716 
Q 353 2575 817 3079 
Q 1281 3584 2069 3584 
Q 2775 3584 3186 3129 
Q 3597 2675 3597 1894 
z
M 3022 2063 
Q 3016 2534 2758 2815 
Q 2500 3097 2075 3097 
Q 1594 3097 1305 2825 
Q 1016 2553 972 2059 
L 3022 2063 
z
" transform="scale(0.015625)"/>
       <path id="DejaVuSans-20" transform="scale(0.015625)"/>
       <path id="DejaVuSans-64" d="M 2906 2969 
L 2906 4863 
L 3481 4863 
L 3481 0 
L 2906 0 
L 2906 525 
Q 2725 213 2448 61 
Q 2172 -91 1784 -91 
Q 1150 -91 751 415 
Q 353 922 353 1747 
Q 353 2572 751 3078 
Q 1150 3584 1784 3584 
Q 2172 3584 2448 3432 
Q 2725 3281 2906 2969 
z
M 947 1747 
Q 947 1113 1208 752 
Q 1469 391 1925 391 
Q 2381 391 2643 752 
Q 2906 1113 2906 1747 
Q 2906 2381 2643 2742 
Q 2381 3103 1925 3103 
Q 1469 3103 1208 2742 
Q 947 2381 947 1747 
z
" transform="scale(0.015625)"/>
       <path id="DejaVuSans-63" d="M 3122 3366 
L 3122 2828 
Q 2878 2963 2633 3030 
Q 2388 3097 2138 3097 
Q 1578 3097 1268 2742 
Q 959 2388 959 1747 
Q 959 1106 1268 751 
Q 1578 397 2138 397 
Q 2388 397 2633 464 
Q 2878 531 3122 666 
L 3122 134 
Q 2881 22 2623 -34 
Q 2366 -91 2075 -91 
Q 1284 -91 818 406 
Q 353 903 353 1747 
Q 353 2603 823 3093 
Q 1294 3584 2113 3584 
Q 2378 3584 2631 3529 
Q 2884 3475 3122 3366 
z
" transform="scale(0.015625)"/>
      </defs>
      <use xlink:href="#DejaVuSans-50"/>
      <use xlink:href="#DejaVuSans-6f" x="56.677734"/>
      <use xlink:href="#DejaVuSans-73" x="117.859375"/>
      <use xlink:href="#DejaVuSans-69" x="169.958984"/>
      <use xlink:href="#DejaVuSans-74" x="197.742188"/>
      <use xlink:href="#DejaVuSans-69" x="236.951172"/>
      <use xlink:href="#DejaVuSans-76" x="264.734375"/>
      <use xlink:href="#DejaVuSans-65" x="323.914062"/>
      <use xlink:href="#DejaVuSans-20" x="385.4375"/>
      <use xlink:href="#DejaVuSans-70" x="417.224609"/>
      <use xlink:href="#DejaVuSans-72" x="480.701172"/>
      <use xlink:href="#DejaVuSans-65" x="519.564453"/>
      <use xlink:href="#DejaVuSans-64" x="581.087891"/>
      <use xlink:href="#DejaVuSans-69" x="644.564453"/>
      <use xlink:href="#DejaVuSans-63" x="672.347656"/>
      <use xlink:href="#DejaVuSans-74" x="727.328125"/>
      <use xlink:href="#DejaVuSans-69" x="766.537109"/>
      <use xlink:href="#DejaVuSans-6f" x="794.320312"/>
      <use xlink:href="#DejaVuSans-6e" x="855.501953"/>
      <use xlink:href="#DejaVuSans-73" x="918.880859"/>
     </g>
    </g>
    <g id="line2d_22">
     <path d="M 66.6 69.248563 
L 76.6 69.248563 
L 86.6 69.248563 
" style="fill: none; stroke: #32cd32; stroke-opacity: 0.8; stroke-width: 0.5; stroke-linecap: square"/>
    </g>
    <g id="text_17">
     <!-- Positive predictions max -->
     <g transform="translate(94.6 72.748563) scale(0.1 -0.1)">
      <defs>
       <path id="DejaVuSans-78" d="M 3513 3500 
L 2247 1797 
L 3578 0 
L 2900 0 
L 1881 1375 
L 863 0 
L 184 0 
L 1544 1831 
L 300 3500 
L 978 3500 
L 1906 2253 
L 2834 3500 
L 3513 3500 
z
" transform="scale(0.015625)"/>
      </defs>
      <use xlink:href="#DejaVuSans-50"/>
      <use xlink:href="#DejaVuSans-6f" x="56.677734"/>
      <use xlink:href="#DejaVuSans-73" x="117.859375"/>
      <use xlink:href="#DejaVuSans-69" x="169.958984"/>
      <use xlink:href="#DejaVuSans-74" x="197.742188"/>
      <use xlink:href="#DejaVuSans-69" x="236.951172"/>
      <use xlink:href="#DejaVuSans-76" x="264.734375"/>
      <use xlink:href="#DejaVuSans-65" x="323.914062"/>
      <use xlink:href="#DejaVuSans-20" x="385.4375"/>
      <use xlink:href="#DejaVuSans-70" x="417.224609"/>
      <use xlink:href="#DejaVuSans-72" x="480.701172"/>
      <use xlink:href="#DejaVuSans-65" x="519.564453"/>
      <use xlink:href="#DejaVuSans-64" x="581.087891"/>
      <use xlink:href="#DejaVuSans-69" x="644.564453"/>
      <use xlink:href="#DejaVuSans-63" x="672.347656"/>
      <use xlink:href="#DejaVuSans-74" x="727.328125"/>
      <use xlink:href="#DejaVuSans-69" x="766.537109"/>
      <use xlink:href="#DejaVuSans-6f" x="794.320312"/>
      <use xlink:href="#DejaVuSans-6e" x="855.501953"/>
      <use xlink:href="#DejaVuSans-73" x="918.880859"/>
      <use xlink:href="#DejaVuSans-20" x="970.980469"/>
      <use xlink:href="#DejaVuSans-6d" x="1002.767578"/>
      <use xlink:href="#DejaVuSans-61" x="1100.179688"/>
      <use xlink:href="#DejaVuSans-78" x="1161.458984"/>
     </g>
    </g>
    <g id="line2d_23">
     <path d="M 66.6 83.926688 
L 76.6 83.926688 
L 86.6 83.926688 
" style="fill: none; stroke: #32cd32; stroke-opacity: 0.8; stroke-width: 0.5; stroke-linecap: square"/>
    </g>
    <g id="text_18">
     <!-- Positive predictions min -->
     <g transform="translate(94.6 87.426688) scale(0.1 -0.1)">
      <use xlink:href="#DejaVuSans-50"/>
      <use xlink:href="#DejaVuSans-6f" x="56.677734"/>
      <use xlink:href="#DejaVuSans-73" x="117.859375"/>
      <use xlink:href="#DejaVuSans-69" x="169.958984"/>
      <use xlink:href="#DejaVuSans-74" x="197.742188"/>
      <use xlink:href="#DejaVuSans-69" x="236.951172"/>
      <use xlink:href="#DejaVuSans-76" x="264.734375"/>
      <use xlink:href="#DejaVuSans-65" x="323.914062"/>
      <use xlink:href="#DejaVuSans-20" x="385.4375"/>
      <use xlink:href="#DejaVuSans-70" x="417.224609"/>
      <use xlink:href="#DejaVuSans-72" x="480.701172"/>
      <use xlink:href="#DejaVuSans-65" x="519.564453"/>
      <use xlink:href="#DejaVuSans-64" x="581.087891"/>
      <use xlink:href="#DejaVuSans-69" x="644.564453"/>
      <use xlink:href="#DejaVuSans-63" x="672.347656"/>
      <use xlink:href="#DejaVuSans-74" x="727.328125"/>
      <use xlink:href="#DejaVuSans-69" x="766.537109"/>
      <use xlink:href="#DejaVuSans-6f" x="794.320312"/>
      <use xlink:href="#DejaVuSans-6e" x="855.501953"/>
      <use xlink:href="#DejaVuSans-73" x="918.880859"/>
      <use xlink:href="#DejaVuSans-20" x="970.980469"/>
      <use xlink:href="#DejaVuSans-6d" x="1002.767578"/>
      <use xlink:href="#DejaVuSans-69" x="1100.179688"/>
      <use xlink:href="#DejaVuSans-6e" x="1127.962891"/>
     </g>
    </g>
    <g id="line2d_24">
     <path d="M 66.6 98.604813 
L 76.6 98.604813 
L 86.6 98.604813 
" style="fill: none; stroke: #ff0000; stroke-opacity: 0.8; stroke-width: 0.5; stroke-linecap: square"/>
    </g>
    <g id="text_19">
     <!-- Negative predictions -->
     <g transform="translate(94.6 102.104813) scale(0.1 -0.1)">
      <defs>
       <path id="DejaVuSans-4e" d="M 628 4666 
L 1478 4666 
L 3547 763 
L 3547 4666 
L 4159 4666 
L 4159 0 
L 3309 0 
L 1241 3903 
L 1241 0 
L 628 0 
L 628 4666 
z
" transform="scale(0.015625)"/>
       <path id="DejaVuSans-67" d="M 2906 1791 
Q 2906 2416 2648 2759 
Q 2391 3103 1925 3103 
Q 1463 3103 1205 2759 
Q 947 2416 947 1791 
Q 947 1169 1205 825 
Q 1463 481 1925 481 
Q 2391 481 2648 825 
Q 2906 1169 2906 1791 
z
M 3481 434 
Q 3481 -459 3084 -895 
Q 2688 -1331 1869 -1331 
Q 1566 -1331 1297 -1286 
Q 1028 -1241 775 -1147 
L 775 -588 
Q 1028 -725 1275 -790 
Q 1522 -856 1778 -856 
Q 2344 -856 2625 -561 
Q 2906 -266 2906 331 
L 2906 616 
Q 2728 306 2450 153 
Q 2172 0 1784 0 
Q 1141 0 747 490 
Q 353 981 353 1791 
Q 353 2603 747 3093 
Q 1141 3584 1784 3584 
Q 2172 3584 2450 3431 
Q 2728 3278 2906 2969 
L 2906 3500 
L 3481 3500 
L 3481 434 
z
" transform="scale(0.015625)"/>
      </defs>
      <use xlink:href="#DejaVuSans-4e"/>
      <use xlink:href="#DejaVuSans-65" x="74.804688"/>
      <use xlink:href="#DejaVuSans-67" x="136.328125"/>
      <use xlink:href="#DejaVuSans-61" x="199.804688"/>
      <use xlink:href="#DejaVuSans-74" x="261.083984"/>
      <use xlink:href="#DejaVuSans-69" x="300.292969"/>
      <use xlink:href="#DejaVuSans-76" x="328.076172"/>
      <use xlink:href="#DejaVuSans-65" x="387.255859"/>
      <use xlink:href="#DejaVuSans-20" x="448.779297"/>
      <use xlink:href="#DejaVuSans-70" x="480.566406"/>
      <use xlink:href="#DejaVuSans-72" x="544.042969"/>
      <use xlink:href="#DejaVuSans-65" x="582.90625"/>
      <use xlink:href="#DejaVuSans-64" x="644.429688"/>
      <use xlink:href="#DejaVuSans-69" x="707.90625"/>
      <use xlink:href="#DejaVuSans-63" x="735.689453"/>
      <use xlink:href="#DejaVuSans-74" x="790.669922"/>
      <use xlink:href="#DejaVuSans-69" x="829.878906"/>
      <use xlink:href="#DejaVuSans-6f" x="857.662109"/>
      <use xlink:href="#DejaVuSans-6e" x="918.84375"/>
      <use xlink:href="#DejaVuSans-73" x="982.222656"/>
     </g>
    </g>
    <g id="line2d_25">
     <path d="M 66.6 113.282938 
L 76.6 113.282938 
L 86.6 113.282938 
" style="fill: none; stroke: #f08080; stroke-opacity: 0.8; stroke-width: 0.5; stroke-linecap: square"/>
    </g>
    <g id="text_20">
     <!-- Negative predictions max -->
     <g transform="translate(94.6 116.782938) scale(0.1 -0.1)">
      <use xlink:href="#DejaVuSans-4e"/>
      <use xlink:href="#DejaVuSans-65" x="74.804688"/>
      <use xlink:href="#DejaVuSans-67" x="136.328125"/>
      <use xlink:href="#DejaVuSans-61" x="199.804688"/>
      <use xlink:href="#DejaVuSans-74" x="261.083984"/>
      <use xlink:href="#DejaVuSans-69" x="300.292969"/>
      <use xlink:href="#DejaVuSans-76" x="328.076172"/>
      <use xlink:href="#DejaVuSans-65" x="387.255859"/>
      <use xlink:href="#DejaVuSans-20" x="448.779297"/>
      <use xlink:href="#DejaVuSans-70" x="480.566406"/>
      <use xlink:href="#DejaVuSans-72" x="544.042969"/>
      <use xlink:href="#DejaVuSans-65" x="582.90625"/>
      <use xlink:href="#DejaVuSans-64" x="644.429688"/>
      <use xlink:href="#DejaVuSans-69" x="707.90625"/>
      <use xlink:href="#DejaVuSans-63" x="735.689453"/>
      <use xlink:href="#DejaVuSans-74" x="790.669922"/>
      <use xlink:href="#DejaVuSans-69" x="829.878906"/>
      <use xlink:href="#DejaVuSans-6f" x="857.662109"/>
      <use xlink:href="#DejaVuSans-6e" x="918.84375"/>
      <use xlink:href="#DejaVuSans-73" x="982.222656"/>
      <use xlink:href="#DejaVuSans-20" x="1034.322266"/>
      <use xlink:href="#DejaVuSans-6d" x="1066.109375"/>
      <use xlink:href="#DejaVuSans-61" x="1163.521484"/>
      <use xlink:href="#DejaVuSans-78" x="1224.800781"/>
     </g>
    </g>
    <g id="line2d_26">
     <path d="M 66.6 127.961063 
L 76.6 127.961063 
L 86.6 127.961063 
" style="fill: none; stroke: #f08080; stroke-opacity: 0.8; stroke-width: 0.5; stroke-linecap: square"/>
    </g>
    <g id="text_21">
     <!-- Negative predictions min -->
     <g transform="translate(94.6 131.461063) scale(0.1 -0.1)">
      <use xlink:href="#DejaVuSans-4e"/>
      <use xlink:href="#DejaVuSans-65" x="74.804688"/>
      <use xlink:href="#DejaVuSans-67" x="136.328125"/>
      <use xlink:href="#DejaVuSans-61" x="199.804688"/>
      <use xlink:href="#DejaVuSans-74" x="261.083984"/>
      <use xlink:href="#DejaVuSans-69" x="300.292969"/>
      <use xlink:href="#DejaVuSans-76" x="328.076172"/>
      <use xlink:href="#DejaVuSans-65" x="387.255859"/>
      <use xlink:href="#DejaVuSans-20" x="448.779297"/>
      <use xlink:href="#DejaVuSans-70" x="480.566406"/>
      <use xlink:href="#DejaVuSans-72" x="544.042969"/>
      <use xlink:href="#DejaVuSans-65" x="582.90625"/>
      <use xlink:href="#DejaVuSans-64" x="644.429688"/>
      <use xlink:href="#DejaVuSans-69" x="707.90625"/>
      <use xlink:href="#DejaVuSans-63" x="735.689453"/>
      <use xlink:href="#DejaVuSans-74" x="790.669922"/>
      <use xlink:href="#DejaVuSans-69" x="829.878906"/>
      <use xlink:href="#DejaVuSans-6f" x="857.662109"/>
      <use xlink:href="#DejaVuSans-6e" x="918.84375"/>
      <use xlink:href="#DejaVuSans-73" x="982.222656"/>
      <use xlink:href="#DejaVuSans-20" x="1034.322266"/>
      <use xlink:href="#DejaVuSans-6d" x="1066.109375"/>
      <use xlink:href="#DejaVuSans-69" x="1163.521484"/>
      <use xlink:href="#DejaVuSans-6e" x="1191.304688"/>
     </g>
    </g>
   </g>
  </g>
 </g>
 <defs>
  <clipPath id="pd90babf33d">
   <rect x="57.6" y="41.472" width="357.12" height="266.112"/>
  </clipPath>
 </defs>
</svg>
