<?xml version="1.0" encoding="utf-8" standalone="no"?>
<!DOCTYPE svg PUBLIC "-//W3C//DTD SVG 1.1//EN"
  "http://www.w3.org/Graphics/SVG/1.1/DTD/svg11.dtd">
<svg xmlns:xlink="http://www.w3.org/1999/xlink" width="460.8pt" height="345.6pt" viewBox="0 0 460.8 345.6" xmlns="http://www.w3.org/2000/svg" version="1.1">
 <metadata>
  <rdf:RDF xmlns:dc="http://purl.org/dc/elements/1.1/" xmlns:cc="http://creativecommons.org/ns#" xmlns:rdf="http://www.w3.org/1999/02/22-rdf-syntax-ns#">
   <cc:Work>
    <dc:type rdf:resource="http://purl.org/dc/dcmitype/StillImage"/>
    <dc:date>2024-09-06T00:42:57.358994</dc:date>
    <dc:format>image/svg+xml</dc:format>
    <dc:creator>
     <cc:Agent>
      <dc:title>Matplotlib v3.9.0, https://matplotlib.org/</dc:title>
     </cc:Agent>
    </dc:creator>
   </cc:Work>
  </rdf:RDF>
 </metadata>
 <defs>
  <style type="text/css">*{stroke-linejoin: round; stroke-linecap: butt}</style>
 </defs>
 <g id="figure_1">
  <g id="patch_1">
   <path d="M 0 345.6 
L 460.8 345.6 
L 460.8 0 
L 0 0 
z
" style="fill: #ffffff"/>
  </g>
  <g id="axes_1">
   <g id="patch_2">
    <path d="M 57.6 307.584 
L 414.72 307.584 
L 414.72 41.472 
L 57.6 41.472 
z
" style="fill: #ffffff"/>
   </g>
   <g id="matplotlib.axis_1">
    <g id="xtick_1">
     <g id="line2d_1">
      <defs>
       <path id="mbc0dead0ff" d="M 0 0 
L 0 3.5 
" style="stroke: #000000; stroke-width: 0.8"/>
      </defs>
      <g>
       <use xlink:href="#mbc0dead0ff" x="73.832727" y="307.584" style="stroke: #000000; stroke-width: 0.8"/>
      </g>
     </g>
     <g id="text_1">
      <!-- 0 -->
      <g transform="translate(70.651477 322.182437) scale(0.1 -0.1)">
       <defs>
        <path id="DejaVuSans-30" d="M 2034 4250 
Q 1547 4250 1301 3770 
Q 1056 3291 1056 2328 
Q 1056 1369 1301 889 
Q 1547 409 2034 409 
Q 2525 409 2770 889 
Q 3016 1369 3016 2328 
Q 3016 3291 2770 3770 
Q 2525 4250 2034 4250 
z
M 2034 4750 
Q 2819 4750 3233 4129 
Q 3647 3509 3647 2328 
Q 3647 1150 3233 529 
Q 2819 -91 2034 -91 
Q 1250 -91 836 529 
Q 422 1150 422 2328 
Q 422 3509 836 4129 
Q 1250 4750 2034 4750 
z
" transform="scale(0.015625)"/>
       </defs>
       <use xlink:href="#DejaVuSans-30"/>
      </g>
     </g>
    </g>
    <g id="xtick_2">
     <g id="line2d_2">
      <g>
       <use xlink:href="#mbc0dead0ff" x="149.333784" y="307.584" style="stroke: #000000; stroke-width: 0.8"/>
      </g>
     </g>
     <g id="text_2">
      <!-- 50 -->
      <g transform="translate(142.971284 322.182437) scale(0.1 -0.1)">
       <defs>
        <path id="DejaVuSans-35" d="M 691 4666 
L 3169 4666 
L 3169 4134 
L 1269 4134 
L 1269 2991 
Q 1406 3038 1543 3061 
Q 1681 3084 1819 3084 
Q 2600 3084 3056 2656 
Q 3513 2228 3513 1497 
Q 3513 744 3044 326 
Q 2575 -91 1722 -91 
Q 1428 -91 1123 -41 
Q 819 9 494 109 
L 494 744 
Q 775 591 1075 516 
Q 1375 441 1709 441 
Q 2250 441 2565 725 
Q 2881 1009 2881 1497 
Q 2881 1984 2565 2268 
Q 2250 2553 1709 2553 
Q 1456 2553 1204 2497 
Q 953 2441 691 2322 
L 691 4666 
z
" transform="scale(0.015625)"/>
       </defs>
       <use xlink:href="#DejaVuSans-35"/>
       <use xlink:href="#DejaVuSans-30" x="63.623047"/>
      </g>
     </g>
    </g>
    <g id="xtick_3">
     <g id="line2d_3">
      <g>
       <use xlink:href="#mbc0dead0ff" x="224.834841" y="307.584" style="stroke: #000000; stroke-width: 0.8"/>
      </g>
     </g>
     <g id="text_3">
      <!-- 100 -->
      <g transform="translate(215.291091 322.182437) scale(0.1 -0.1)">
       <defs>
        <path id="DejaVuSans-31" d="M 794 531 
L 1825 531 
L 1825 4091 
L 703 3866 
L 703 4441 
L 1819 4666 
L 2450 4666 
L 2450 531 
L 3481 531 
L 3481 0 
L 794 0 
L 794 531 
z
" transform="scale(0.015625)"/>
       </defs>
       <use xlink:href="#DejaVuSans-31"/>
       <use xlink:href="#DejaVuSans-30" x="63.623047"/>
       <use xlink:href="#DejaVuSans-30" x="127.246094"/>
      </g>
     </g>
    </g>
    <g id="xtick_4">
     <g id="line2d_4">
      <g>
       <use xlink:href="#mbc0dead0ff" x="300.335899" y="307.584" style="stroke: #000000; stroke-width: 0.8"/>
      </g>
     </g>
     <g id="text_4">
      <!-- 150 -->
      <g transform="translate(290.792149 322.182437) scale(0.1 -0.1)">
       <use xlink:href="#DejaVuSans-31"/>
       <use xlink:href="#DejaVuSans-35" x="63.623047"/>
       <use xlink:href="#DejaVuSans-30" x="127.246094"/>
      </g>
     </g>
    </g>
    <g id="xtick_5">
     <g id="line2d_5">
      <g>
       <use xlink:href="#mbc0dead0ff" x="375.836956" y="307.584" style="stroke: #000000; stroke-width: 0.8"/>
      </g>
     </g>
     <g id="text_5">
      <!-- 200 -->
      <g transform="translate(366.293206 322.182437) scale(0.1 -0.1)">
       <defs>
        <path id="DejaVuSans-32" d="M 1228 531 
L 3431 531 
L 3431 0 
L 469 0 
L 469 531 
Q 828 903 1448 1529 
Q 2069 2156 2228 2338 
Q 2531 2678 2651 2914 
Q 2772 3150 2772 3378 
Q 2772 3750 2511 3984 
Q 2250 4219 1831 4219 
Q 1534 4219 1204 4116 
Q 875 4013 500 3803 
L 500 4441 
Q 881 4594 1212 4672 
Q 1544 4750 1819 4750 
Q 2544 4750 2975 4387 
Q 3406 4025 3406 3419 
Q 3406 3131 3298 2873 
Q 3191 2616 2906 2266 
Q 2828 2175 2409 1742 
Q 1991 1309 1228 531 
z
" transform="scale(0.015625)"/>
       </defs>
       <use xlink:href="#DejaVuSans-32"/>
       <use xlink:href="#DejaVuSans-30" x="63.623047"/>
       <use xlink:href="#DejaVuSans-30" x="127.246094"/>
      </g>
     </g>
    </g>
   </g>
   <g id="matplotlib.axis_2">
    <g id="ytick_1">
     <g id="line2d_6">
      <defs>
       <path id="mdfbf3f9ab5" d="M 0 0 
L -3.5 0 
" style="stroke: #000000; stroke-width: 0.8"/>
      </defs>
      <g>
       <use xlink:href="#mdfbf3f9ab5" x="57.6" y="300.538522" style="stroke: #000000; stroke-width: 0.8"/>
      </g>
     </g>
     <g id="text_6">
      <!-- −1400 -->
      <g transform="translate(16.770313 304.337741) scale(0.1 -0.1)">
       <defs>
        <path id="DejaVuSans-2212" d="M 678 2272 
L 4684 2272 
L 4684 1741 
L 678 1741 
L 678 2272 
z
" transform="scale(0.015625)"/>
        <path id="DejaVuSans-34" d="M 2419 4116 
L 825 1625 
L 2419 1625 
L 2419 4116 
z
M 2253 4666 
L 3047 4666 
L 3047 1625 
L 3713 1625 
L 3713 1100 
L 3047 1100 
L 3047 0 
L 2419 0 
L 2419 1100 
L 313 1100 
L 313 1709 
L 2253 4666 
z
" transform="scale(0.015625)"/>
       </defs>
       <use xlink:href="#DejaVuSans-2212"/>
       <use xlink:href="#DejaVuSans-31" x="83.789062"/>
       <use xlink:href="#DejaVuSans-34" x="147.412109"/>
       <use xlink:href="#DejaVuSans-30" x="211.035156"/>
       <use xlink:href="#DejaVuSans-30" x="274.658203"/>
      </g>
     </g>
    </g>
    <g id="ytick_2">
     <g id="line2d_7">
      <g>
       <use xlink:href="#mdfbf3f9ab5" x="57.6" y="266.868376" style="stroke: #000000; stroke-width: 0.8"/>
      </g>
     </g>
     <g id="text_7">
      <!-- −1200 -->
      <g transform="translate(16.770313 270.667595) scale(0.1 -0.1)">
       <use xlink:href="#DejaVuSans-2212"/>
       <use xlink:href="#DejaVuSans-31" x="83.789062"/>
       <use xlink:href="#DejaVuSans-32" x="147.412109"/>
       <use xlink:href="#DejaVuSans-30" x="211.035156"/>
       <use xlink:href="#DejaVuSans-30" x="274.658203"/>
      </g>
     </g>
    </g>
    <g id="ytick_3">
     <g id="line2d_8">
      <g>
       <use xlink:href="#mdfbf3f9ab5" x="57.6" y="233.19823" style="stroke: #000000; stroke-width: 0.8"/>
      </g>
     </g>
     <g id="text_8">
      <!-- −1000 -->
      <g transform="translate(16.770313 236.997448) scale(0.1 -0.1)">
       <use xlink:href="#DejaVuSans-2212"/>
       <use xlink:href="#DejaVuSans-31" x="83.789062"/>
       <use xlink:href="#DejaVuSans-30" x="147.412109"/>
       <use xlink:href="#DejaVuSans-30" x="211.035156"/>
       <use xlink:href="#DejaVuSans-30" x="274.658203"/>
      </g>
     </g>
    </g>
    <g id="ytick_4">
     <g id="line2d_9">
      <g>
       <use xlink:href="#mdfbf3f9ab5" x="57.6" y="199.528084" style="stroke: #000000; stroke-width: 0.8"/>
      </g>
     </g>
     <g id="text_9">
      <!-- −800 -->
      <g transform="translate(23.132812 203.327302) scale(0.1 -0.1)">
       <defs>
        <path id="DejaVuSans-38" d="M 2034 2216 
Q 1584 2216 1326 1975 
Q 1069 1734 1069 1313 
Q 1069 891 1326 650 
Q 1584 409 2034 409 
Q 2484 409 2743 651 
Q 3003 894 3003 1313 
Q 3003 1734 2745 1975 
Q 2488 2216 2034 2216 
z
M 1403 2484 
Q 997 2584 770 2862 
Q 544 3141 544 3541 
Q 544 4100 942 4425 
Q 1341 4750 2034 4750 
Q 2731 4750 3128 4425 
Q 3525 4100 3525 3541 
Q 3525 3141 3298 2862 
Q 3072 2584 2669 2484 
Q 3125 2378 3379 2068 
Q 3634 1759 3634 1313 
Q 3634 634 3220 271 
Q 2806 -91 2034 -91 
Q 1263 -91 848 271 
Q 434 634 434 1313 
Q 434 1759 690 2068 
Q 947 2378 1403 2484 
z
M 1172 3481 
Q 1172 3119 1398 2916 
Q 1625 2713 2034 2713 
Q 2441 2713 2670 2916 
Q 2900 3119 2900 3481 
Q 2900 3844 2670 4047 
Q 2441 4250 2034 4250 
Q 1625 4250 1398 4047 
Q 1172 3844 1172 3481 
z
" transform="scale(0.015625)"/>
       </defs>
       <use xlink:href="#DejaVuSans-2212"/>
       <use xlink:href="#DejaVuSans-38" x="83.789062"/>
       <use xlink:href="#DejaVuSans-30" x="147.412109"/>
       <use xlink:href="#DejaVuSans-30" x="211.035156"/>
      </g>
     </g>
    </g>
    <g id="ytick_5">
     <g id="line2d_10">
      <g>
       <use xlink:href="#mdfbf3f9ab5" x="57.6" y="165.857937" style="stroke: #000000; stroke-width: 0.8"/>
      </g>
     </g>
     <g id="text_10">
      <!-- −600 -->
      <g transform="translate(23.132812 169.657156) scale(0.1 -0.1)">
       <defs>
        <path id="DejaVuSans-36" d="M 2113 2584 
Q 1688 2584 1439 2293 
Q 1191 2003 1191 1497 
Q 1191 994 1439 701 
Q 1688 409 2113 409 
Q 2538 409 2786 701 
Q 3034 994 3034 1497 
Q 3034 2003 2786 2293 
Q 2538 2584 2113 2584 
z
M 3366 4563 
L 3366 3988 
Q 3128 4100 2886 4159 
Q 2644 4219 2406 4219 
Q 1781 4219 1451 3797 
Q 1122 3375 1075 2522 
Q 1259 2794 1537 2939 
Q 1816 3084 2150 3084 
Q 2853 3084 3261 2657 
Q 3669 2231 3669 1497 
Q 3669 778 3244 343 
Q 2819 -91 2113 -91 
Q 1303 -91 875 529 
Q 447 1150 447 2328 
Q 447 3434 972 4092 
Q 1497 4750 2381 4750 
Q 2619 4750 2861 4703 
Q 3103 4656 3366 4563 
z
" transform="scale(0.015625)"/>
       </defs>
       <use xlink:href="#DejaVuSans-2212"/>
       <use xlink:href="#DejaVuSans-36" x="83.789062"/>
       <use xlink:href="#DejaVuSans-30" x="147.412109"/>
       <use xlink:href="#DejaVuSans-30" x="211.035156"/>
      </g>
     </g>
    </g>
    <g id="ytick_6">
     <g id="line2d_11">
      <g>
       <use xlink:href="#mdfbf3f9ab5" x="57.6" y="132.187791" style="stroke: #000000; stroke-width: 0.8"/>
      </g>
     </g>
     <g id="text_11">
      <!-- −400 -->
      <g transform="translate(23.132812 135.98701) scale(0.1 -0.1)">
       <use xlink:href="#DejaVuSans-2212"/>
       <use xlink:href="#DejaVuSans-34" x="83.789062"/>
       <use xlink:href="#DejaVuSans-30" x="147.412109"/>
       <use xlink:href="#DejaVuSans-30" x="211.035156"/>
      </g>
     </g>
    </g>
    <g id="ytick_7">
     <g id="line2d_12">
      <g>
       <use xlink:href="#mdfbf3f9ab5" x="57.6" y="98.517645" style="stroke: #000000; stroke-width: 0.8"/>
      </g>
     </g>
     <g id="text_12">
      <!-- −200 -->
      <g transform="translate(23.132812 102.316864) scale(0.1 -0.1)">
       <use xlink:href="#DejaVuSans-2212"/>
       <use xlink:href="#DejaVuSans-32" x="83.789062"/>
       <use xlink:href="#DejaVuSans-30" x="147.412109"/>
       <use xlink:href="#DejaVuSans-30" x="211.035156"/>
      </g>
     </g>
    </g>
    <g id="ytick_8">
     <g id="line2d_13">
      <g>
       <use xlink:href="#mdfbf3f9ab5" x="57.6" y="64.847499" style="stroke: #000000; stroke-width: 0.8"/>
      </g>
     </g>
     <g id="text_13">
      <!-- 0 -->
      <g transform="translate(44.2375 68.646718) scale(0.1 -0.1)">
       <use xlink:href="#DejaVuSans-30"/>
      </g>
     </g>
    </g>
   </g>
   <g id="line2d_14">
    <path d="M 73.832727 67.709461 
L 75.342748 68.046163 
L 76.85277 69.898021 
L 78.362791 71.244827 
L 79.872812 70.571424 
L 81.382833 69.72967 
L 82.892854 71.076476 
L 84.402875 72.591633 
L 85.912896 78.483908 
L 87.422918 85.554639 
L 88.932939 99.864451 
L 90.44296 83.53443 
L 91.952981 79.494013 
L 93.463002 75.958647 
L 94.973023 80.167415 
L 96.483044 82.861027 
L 97.993066 85.049587 
L 101.013108 87.406497 
L 102.523129 86.901445 
L 104.03315 88.753303 
L 105.543171 91.110213 
L 107.053192 89.426706 
L 108.563214 89.258355 
L 110.073235 87.069795 
L 111.583256 87.574848 
L 113.093277 86.059691 
L 114.603298 83.197729 
L 116.113319 82.861027 
L 117.62334 80.504117 
L 119.133362 80.504117 
L 120.643383 81.850923 
L 122.153404 78.315557 
L 123.663425 77.978856 
L 125.173446 79.157311 
L 126.683467 71.749879 
L 128.193488 81.514221 
L 129.70351 82.019273 
L 131.213531 79.999065 
L 132.723552 83.366079 
L 134.233573 86.396392 
L 135.743594 85.554639 
L 137.253615 84.039482 
L 138.763636 85.386288 
L 140.273658 85.89134 
L 141.783679 87.743198 
L 143.2937 91.446914 
L 144.803721 88.921653 
L 146.313742 92.457019 
L 147.823763 96.665787 
L 149.333784 95.992384 
L 150.843805 86.059691 
L 152.353827 73.601737 
L 153.863848 70.739775 
L 155.373869 72.759983 
L 156.88389 72.759983 
L 158.393911 69.561319 
L 159.903932 76.295349 
L 161.413953 76.63205 
L 162.923975 80.840818 
L 164.433996 81.682572 
L 165.944017 79.999065 
L 167.454038 79.662363 
L 168.964059 78.98896 
L 170.47408 77.473804 
L 171.984101 80.840818 
L 173.494123 77.473804 
L 175.004144 75.285244 
L 176.514165 71.244827 
L 178.024186 70.571424 
L 179.534207 68.046163 
L 181.044228 71.749879 
L 182.554249 76.126998 
L 184.064271 67.204409 
L 185.574292 73.433386 
L 187.084313 77.305453 
L 188.594334 75.453595 
L 190.104355 73.096685 
L 191.614376 67.37276 
L 193.124397 67.036058 
L 194.634419 69.72967 
L 196.14444 73.433386 
L 197.654461 73.265035 
L 199.164482 80.167415 
L 200.674503 80.335766 
L 203.694545 82.355975 
L 205.204567 76.968752 
L 206.714588 75.621946 
L 208.224609 76.63205 
L 209.73463 77.305453 
L 211.244651 81.682572 
L 212.754672 84.376184 
L 214.264693 78.147207 
L 215.774715 83.366079 
L 217.284736 83.53443 
L 218.794757 80.335766 
L 220.304778 78.315557 
L 221.814799 74.443491 
L 223.32482 80.504117 
L 224.834841 77.305453 
L 226.344863 75.958647 
L 227.854884 69.392969 
L 229.364905 69.224618 
L 230.874926 70.571424 
L 232.384947 71.076476 
L 233.894968 70.403073 
L 235.404989 75.285244 
L 236.915011 86.564743 
L 238.425032 80.504117 
L 239.935053 77.473804 
L 241.445074 79.157311 
L 242.955095 78.98896 
L 244.465116 75.958647 
L 245.975137 83.871132 
L 247.485159 82.524326 
L 248.99518 88.0799 
L 250.505201 83.871132 
L 252.015222 85.049587 
L 253.525243 84.207833 
L 255.035264 93.635474 
L 259.565328 88.248251 
L 261.075349 88.0799 
L 262.58537 84.207833 
L 264.095391 83.871132 
L 265.605412 93.298772 
L 267.115433 89.763407 
L 268.625455 89.763407 
L 270.135476 92.457019 
L 271.645497 101.042906 
L 273.155518 94.645578 
L 274.665539 98.517645 
L 276.17556 96.497436 
L 277.685581 98.349294 
L 279.195603 96.329086 
L 280.705624 88.0799 
L 282.215645 93.972175 
L 283.725666 102.221361 
L 285.235687 112.322405 
L 286.745708 106.261779 
L 288.255729 104.073219 
L 289.765751 103.736518 
L 291.275772 99.022697 
L 292.785793 106.59848 
L 294.295814 122.255098 
L 295.805835 106.430129 
L 297.315856 95.655683 
L 298.825877 96.329086 
L 300.335899 87.238146 
L 301.84592 87.406497 
L 303.355941 89.931758 
L 304.865962 97.507541 
L 306.375983 101.547958 
L 307.886004 104.409921 
L 309.396025 101.379608 
L 310.906047 112.322405 
L 312.416068 112.154054 
L 313.926089 105.756727 
L 315.43611 117.372927 
L 316.946131 116.362823 
L 318.456152 118.888084 
L 319.966173 122.423449 
L 321.476195 123.265203 
L 322.986216 123.601904 
L 324.496237 122.76015 
L 326.006258 117.036225 
L 327.516279 121.918397 
L 329.0263 117.877979 
L 330.536321 122.255098 
L 332.046342 142.962238 
L 333.556364 148.01276 
L 335.066385 143.635641 
L 336.576406 138.080067 
L 338.086427 125.958814 
L 339.596448 120.571591 
L 341.106469 123.433553 
L 342.61649 136.396559 
L 344.126512 136.396559 
L 345.636533 137.069962 
L 347.146554 143.972342 
L 348.656575 151.884827 
L 350.166596 147.171006 
L 351.676617 155.756894 
L 353.186638 153.568334 
L 354.69666 151.043073 
L 356.206681 151.548125 
L 357.716702 152.55823 
L 359.226723 150.874722 
L 360.736744 155.588543 
L 362.246765 162.659273 
L 365.266808 193.467457 
L 366.776829 224.10729 
L 368.28685 202.390046 
L 369.796871 196.666121 
L 371.306892 183.871466 
L 372.816913 182.019608 
L 374.326934 177.810839 
L 375.836956 178.315891 
L 377.346977 177.137436 
L 378.856998 185.218271 
L 380.367019 187.575182 
L 381.87704 181.346205 
L 383.387061 173.770422 
L 384.897082 181.177854 
L 386.407104 182.187958 
L 387.917125 173.770422 
L 389.427146 174.780526 
L 390.937167 172.255265 
L 392.447188 167.541445 
L 393.957209 149.191215 
L 395.46723 150.032969 
L 396.977252 163.164326 
L 398.487273 165.352885 
L 398.487273 165.352885 
" clip-path="url(#p5ae03c819f)" style="fill: none; stroke: #1f77b4; stroke-opacity: 0.7; stroke-width: 1.5; stroke-linecap: square"/>
   </g>
   <g id="line2d_15">
    <path d="M 73.832727 64.847499 
L 75.342748 70.908125 
L 76.85277 69.392969 
L 78.362791 63.837395 
L 79.872812 66.025954 
L 81.382833 59.460276 
L 82.892854 54.746455 
L 84.402875 53.568 
L 85.912896 58.618522 
L 87.422918 62.490589 
L 88.932939 78.315557 
L 90.44296 78.147207 
L 91.952981 75.790296 
L 93.463002 72.759983 
L 94.973023 77.137102 
L 96.483044 78.82061 
L 97.993066 81.514221 
L 99.503087 85.386288 
L 101.013108 90.773511 
L 102.523129 93.467123 
L 104.03315 92.288668 
L 105.543171 96.160735 
L 107.053192 90.100109 
L 108.563214 85.217937 
L 110.073235 84.881236 
L 111.583256 82.019273 
L 113.093277 83.702781 
L 114.603298 81.514221 
L 116.113319 81.850923 
L 117.62334 81.514221 
L 119.133362 81.682572 
L 120.643383 81.514221 
L 122.153404 79.325662 
L 123.663425 78.652259 
L 125.173446 78.315557 
L 126.683467 78.147207 
L 128.193488 87.069795 
L 129.70351 91.446914 
L 131.213531 87.574848 
L 132.723552 87.238146 
L 134.233573 82.692676 
L 135.743594 80.335766 
L 137.253615 73.770088 
L 138.763636 75.116894 
L 140.273658 73.770088 
L 141.783679 75.116894 
L 143.2937 77.978856 
L 144.803721 82.692676 
L 146.313742 85.72299 
L 147.823763 87.238146 
L 149.333784 89.595056 
L 150.843805 98.180944 
L 152.353827 95.318981 
L 153.863848 97.170839 
L 155.373869 100.537854 
L 156.88389 101.547958 
L 158.393911 97.33919 
L 159.903932 103.399816 
L 161.413953 108.113637 
L 162.923975 111.817353 
L 165.944017 105.925077 
L 167.454038 103.736518 
L 168.964059 103.231466 
L 170.47408 101.547958 
L 171.984101 99.527749 
L 173.494123 97.170839 
L 175.004144 100.874555 
L 176.514165 101.547958 
L 178.024186 100.706205 
L 179.534207 98.180944 
L 182.554249 98.517645 
L 184.064271 99.527749 
L 185.574292 105.756727 
L 187.084313 110.638898 
L 188.594334 110.470547 
L 190.104355 109.965495 
L 191.614376 112.154054 
L 193.124397 106.766831 
L 194.634419 103.399816 
L 196.14444 106.261779 
L 197.654461 106.430129 
L 199.164482 111.14395 
L 200.674503 111.480651 
L 202.184524 112.490756 
L 203.694545 117.372927 
L 205.204567 115.85777 
L 206.714588 115.85777 
L 208.224609 118.383031 
L 209.73463 118.214681 
L 211.244651 123.096852 
L 212.754672 128.484075 
L 214.264693 122.423449 
L 215.774715 125.285411 
L 217.284736 121.750046 
L 218.794757 115.521069 
L 220.304778 110.975599 
L 221.814799 109.628793 
L 223.32482 116.867875 
L 224.834841 115.184367 
L 226.344863 117.709628 
L 227.854884 117.541278 
L 229.364905 112.995808 
L 230.874926 115.184367 
L 232.384947 110.807248 
L 233.894968 109.965495 
L 235.404989 114.679315 
L 236.915011 127.473971 
L 238.425032 119.056434 
L 241.445074 120.066539 
L 242.955095 120.234889 
L 244.465116 116.867875 
L 245.975137 126.127165 
L 247.485159 125.453762 
L 248.99518 125.790463 
L 250.505201 120.40324 
L 252.015222 125.958814 
L 253.525243 124.94871 
L 255.035264 130.840985 
L 256.545285 127.979023 
L 258.055307 124.443658 
L 259.565328 125.285411 
L 261.075349 118.383031 
L 262.58537 114.847666 
L 264.095391 119.056434 
L 265.605412 125.285411 
L 267.115433 122.5918 
L 268.625455 125.622113 
L 270.135476 127.30562 
L 271.645497 132.861194 
L 273.155518 129.49418 
L 274.665539 135.386455 
L 277.685581 133.029545 
L 279.195603 135.218104 
L 280.705624 133.366246 
L 282.215645 144.309044 
L 283.725666 147.171006 
L 285.235687 159.292259 
L 286.745708 169.730004 
L 288.255729 174.275474 
L 289.765751 183.534764 
L 291.275772 185.891674 
L 292.785793 196.161069 
L 294.295814 214.511299 
L 295.805835 211.817687 
L 297.315856 211.480985 
L 298.825877 212.49109 
L 300.335899 210.639232 
L 301.84592 211.312635 
L 303.355941 210.807582 
L 304.865962 216.363157 
L 306.375983 226.127499 
L 307.886004 226.800902 
L 309.396025 211.986038 
L 310.906047 213.837896 
L 312.416068 226.29585 
L 313.926089 214.174597 
L 315.43611 219.56182 
L 316.946131 223.602238 
L 318.456152 222.423783 
L 321.476195 227.137603 
L 322.986216 226.127499 
L 324.496237 215.858104 
L 326.006258 207.777269 
L 327.516279 205.757061 
L 329.0263 205.757061 
L 330.536321 206.935516 
L 332.046342 225.454096 
L 333.556364 222.592134 
L 335.066385 220.403574 
L 336.576406 219.730171 
L 338.086427 216.868209 
L 341.106469 206.430463 
L 342.61649 223.433887 
L 344.126512 216.868209 
L 345.636533 220.908626 
L 348.656575 240.942363 
L 350.166596 237.238647 
L 351.676617 245.151132 
L 353.186638 247.17134 
L 354.69666 244.982781 
L 356.206681 240.605662 
L 357.716702 230.167916 
L 359.226723 234.713386 
L 360.736744 243.635975 
L 362.246765 245.656184 
L 363.756786 259.629294 
L 365.266808 263.33301 
L 366.776829 285.723658 
L 368.28685 295.488 
L 369.796871 291.784284 
L 371.306892 279.494681 
L 372.816913 280.841486 
L 374.326934 276.801069 
L 375.836956 276.96942 
L 377.346977 274.78086 
L 378.856998 282.693344 
L 380.367019 276.127666 
L 381.87704 275.117562 
L 383.387061 267.036727 
L 384.897082 268.383532 
L 386.407104 266.363324 
L 387.917125 263.838063 
L 390.937167 273.265704 
L 392.447188 275.454263 
L 393.957209 274.444159 
L 395.46723 270.572092 
L 396.977252 284.208501 
L 398.487273 280.336434 
L 398.487273 280.336434 
" clip-path="url(#p5ae03c819f)" style="fill: none; stroke: #ff7f0e; stroke-opacity: 0.7; stroke-width: 1.5; stroke-linecap: square"/>
   </g>
   <g id="line2d_16">
    <path d="M 73.832727 66.27848 
L 75.342748 69.477144 
L 76.85277 69.645495 
L 78.362791 67.541111 
L 79.872812 68.298689 
L 81.382833 64.594973 
L 82.892854 62.911466 
L 84.402875 63.079816 
L 87.422918 74.022614 
L 88.932939 89.090004 
L 90.44296 80.840818 
L 93.463002 74.359315 
L 94.973023 78.652259 
L 96.483044 80.840818 
L 99.503087 85.807165 
L 101.013108 89.090004 
L 102.523129 90.184284 
L 104.03315 90.520985 
L 105.543171 93.635474 
L 107.053192 89.763407 
L 108.563214 87.238146 
L 111.583256 84.797061 
L 113.093277 84.881236 
L 114.603298 82.355975 
L 116.113319 82.355975 
L 117.62334 81.009169 
L 119.133362 81.093344 
L 120.643383 81.682572 
L 122.153404 78.82061 
L 123.663425 78.315557 
L 125.173446 78.736434 
L 126.683467 74.948543 
L 128.193488 84.292008 
L 129.70351 86.733094 
L 131.213531 83.786956 
L 132.723552 85.302113 
L 134.233573 84.544534 
L 135.743594 82.945203 
L 137.253615 78.904785 
L 138.763636 80.251591 
L 140.273658 79.830714 
L 141.783679 81.430046 
L 143.2937 84.712885 
L 144.803721 85.807165 
L 146.313742 89.090004 
L 147.823763 91.951967 
L 149.333784 92.79372 
L 150.843805 92.120317 
L 152.353827 84.460359 
L 153.863848 83.955307 
L 155.373869 86.648919 
L 156.88389 87.153971 
L 158.393911 83.450255 
L 159.903932 89.847582 
L 161.413953 92.372843 
L 162.923975 96.329086 
L 164.433996 95.234806 
L 165.944017 92.962071 
L 167.454038 91.699441 
L 168.964059 91.110213 
L 170.47408 89.510881 
L 171.984101 90.184284 
L 173.494123 87.322322 
L 175.004144 88.0799 
L 176.514165 86.396392 
L 178.024186 85.638814 
L 179.534207 83.113553 
L 181.044228 85.049587 
L 182.554249 87.322322 
L 184.064271 83.366079 
L 185.574292 89.595056 
L 187.084313 93.972175 
L 188.594334 92.962071 
L 190.104355 91.53109 
L 191.614376 89.763407 
L 193.124397 86.901445 
L 194.634419 86.564743 
L 196.14444 89.847582 
L 197.654461 89.847582 
L 199.164482 95.655683 
L 200.674503 95.908209 
L 202.184524 96.918313 
L 203.694545 99.864451 
L 205.204567 96.413261 
L 206.714588 95.739858 
L 208.224609 97.507541 
L 209.73463 97.760067 
L 211.244651 102.389712 
L 212.754672 106.430129 
L 214.264693 100.285328 
L 215.774715 104.325745 
L 217.284736 102.642238 
L 218.794757 97.928418 
L 220.304778 94.645578 
L 221.814799 92.036142 
L 223.32482 98.685996 
L 224.834841 96.24491 
L 226.344863 96.834138 
L 227.854884 93.467123 
L 229.364905 91.110213 
L 230.874926 92.877896 
L 232.384947 90.941862 
L 233.894968 90.184284 
L 235.404989 94.98228 
L 236.915011 107.019357 
L 238.425032 99.780276 
L 239.935053 98.517645 
L 241.445074 99.611925 
L 242.955095 99.611925 
L 244.465116 96.413261 
L 245.975137 104.999148 
L 247.485159 103.989044 
L 248.99518 106.935182 
L 250.505201 102.137186 
L 252.015222 105.5042 
L 253.525243 104.578271 
L 255.035264 112.23823 
L 256.545285 109.881319 
L 258.055307 107.187708 
L 259.565328 106.766831 
L 262.58537 99.527749 
L 264.095391 101.463783 
L 265.605412 109.292092 
L 267.115433 106.177603 
L 268.625455 107.69276 
L 270.135476 109.881319 
L 271.645497 116.95205 
L 273.155518 112.069879 
L 274.665539 116.95205 
L 276.17556 115.352718 
L 277.685581 115.68942 
L 279.195603 115.773595 
L 280.705624 110.723073 
L 282.215645 119.14061 
L 283.725666 124.696184 
L 285.235687 135.807332 
L 286.745708 137.995891 
L 288.255729 139.174347 
L 289.765751 143.635641 
L 291.275772 142.457186 
L 292.785793 151.379775 
L 294.295814 168.383198 
L 295.805835 159.123908 
L 297.315856 153.568334 
L 298.825877 154.410088 
L 300.335899 148.938689 
L 301.84592 149.359566 
L 303.355941 150.36967 
L 306.375983 163.837729 
L 307.886004 165.605411 
L 309.396025 156.682823 
L 312.416068 169.224952 
L 313.926089 159.965662 
L 315.43611 168.467374 
L 316.946131 169.98253 
L 318.456152 170.655933 
L 319.966173 173.602071 
L 321.476195 175.201403 
L 322.986216 174.864701 
L 324.496237 169.309127 
L 326.006258 162.406747 
L 327.516279 163.837729 
L 329.0263 161.81752 
L 330.536321 164.595307 
L 332.046342 184.208167 
L 333.556364 185.302447 
L 336.576406 178.905119 
L 338.086427 171.413511 
L 339.596448 166.110463 
L 341.106469 164.932008 
L 342.61649 179.915223 
L 344.126512 176.632384 
L 345.636533 178.989294 
L 348.656575 196.413595 
L 350.166596 192.204827 
L 351.676617 200.454013 
L 353.186638 200.369837 
L 354.69666 198.012927 
L 356.206681 196.076894 
L 357.716702 191.363073 
L 359.226723 192.794054 
L 360.736744 199.612259 
L 362.246765 204.157729 
L 363.756786 218.804242 
L 365.266808 228.400234 
L 366.776829 254.915474 
L 368.28685 248.939023 
L 369.796871 244.225203 
L 371.306892 231.683073 
L 372.816913 231.430547 
L 374.326934 227.305954 
L 375.836956 227.642656 
L 377.346977 225.959148 
L 378.856998 233.955808 
L 380.367019 231.851424 
L 381.87704 228.231883 
L 383.387061 220.403574 
L 384.897082 224.780693 
L 386.407104 224.275641 
L 387.917125 218.804242 
L 389.427146 221.666205 
L 390.937167 222.760484 
L 392.447188 221.497854 
L 393.957209 211.817687 
L 395.46723 210.30253 
L 396.977252 223.686413 
L 398.487273 222.84466 
L 398.487273 222.84466 
" clip-path="url(#p5ae03c819f)" style="fill: none; stroke: #2ca02c; stroke-opacity: 0.7; stroke-width: 1.5; stroke-linecap: square"/>
   </g>
   <g id="patch_3">
    <path d="M 57.6 307.584 
L 57.6 41.472 
" style="fill: none; stroke: #000000; stroke-width: 0.8; stroke-linejoin: miter; stroke-linecap: square"/>
   </g>
   <g id="patch_4">
    <path d="M 414.72 307.584 
L 414.72 41.472 
" style="fill: none; stroke: #000000; stroke-width: 0.8; stroke-linejoin: miter; stroke-linecap: square"/>
   </g>
   <g id="patch_5">
    <path d="M 57.6 307.584 
L 414.72 307.584 
" style="fill: none; stroke: #000000; stroke-width: 0.8; stroke-linejoin: miter; stroke-linecap: square"/>
   </g>
   <g id="patch_6">
    <path d="M 57.6 41.472 
L 414.72 41.472 
" style="fill: none; stroke: #000000; stroke-width: 0.8; stroke-linejoin: miter; stroke-linecap: square"/>
   </g>
   <g id="text_14">
    <!-- 1final_weighted_cci -->
    <g transform="translate(177.421875 35.472) scale(0.12 -0.12)">
     <defs>
      <path id="DejaVuSans-66" d="M 2375 4863 
L 2375 4384 
L 1825 4384 
Q 1516 4384 1395 4259 
Q 1275 4134 1275 3809 
L 1275 3500 
L 2222 3500 
L 2222 3053 
L 1275 3053 
L 1275 0 
L 697 0 
L 697 3053 
L 147 3053 
L 147 3500 
L 697 3500 
L 697 3744 
Q 697 4328 969 4595 
Q 1241 4863 1831 4863 
L 2375 4863 
z
" transform="scale(0.015625)"/>
      <path id="DejaVuSans-69" d="M 603 3500 
L 1178 3500 
L 1178 0 
L 603 0 
L 603 3500 
z
M 603 4863 
L 1178 4863 
L 1178 4134 
L 603 4134 
L 603 4863 
z
" transform="scale(0.015625)"/>
      <path id="DejaVuSans-6e" d="M 3513 2113 
L 3513 0 
L 2938 0 
L 2938 2094 
Q 2938 2591 2744 2837 
Q 2550 3084 2163 3084 
Q 1697 3084 1428 2787 
Q 1159 2491 1159 1978 
L 1159 0 
L 581 0 
L 581 3500 
L 1159 3500 
L 1159 2956 
Q 1366 3272 1645 3428 
Q 1925 3584 2291 3584 
Q 2894 3584 3203 3211 
Q 3513 2838 3513 2113 
z
" transform="scale(0.015625)"/>
      <path id="DejaVuSans-61" d="M 2194 1759 
Q 1497 1759 1228 1600 
Q 959 1441 959 1056 
Q 959 750 1161 570 
Q 1363 391 1709 391 
Q 2188 391 2477 730 
Q 2766 1069 2766 1631 
L 2766 1759 
L 2194 1759 
z
M 3341 1997 
L 3341 0 
L 2766 0 
L 2766 531 
Q 2569 213 2275 61 
Q 1981 -91 1556 -91 
Q 1019 -91 701 211 
Q 384 513 384 1019 
Q 384 1609 779 1909 
Q 1175 2209 1959 2209 
L 2766 2209 
L 2766 2266 
Q 2766 2663 2505 2880 
Q 2244 3097 1772 3097 
Q 1472 3097 1187 3025 
Q 903 2953 641 2809 
L 641 3341 
Q 956 3463 1253 3523 
Q 1550 3584 1831 3584 
Q 2591 3584 2966 3190 
Q 3341 2797 3341 1997 
z
" transform="scale(0.015625)"/>
      <path id="DejaVuSans-6c" d="M 603 4863 
L 1178 4863 
L 1178 0 
L 603 0 
L 603 4863 
z
" transform="scale(0.015625)"/>
      <path id="DejaVuSans-5f" d="M 3263 -1063 
L 3263 -1509 
L -63 -1509 
L -63 -1063 
L 3263 -1063 
z
" transform="scale(0.015625)"/>
      <path id="DejaVuSans-77" d="M 269 3500 
L 844 3500 
L 1563 769 
L 2278 3500 
L 2956 3500 
L 3675 769 
L 4391 3500 
L 4966 3500 
L 4050 0 
L 3372 0 
L 2619 2869 
L 1863 0 
L 1184 0 
L 269 3500 
z
" transform="scale(0.015625)"/>
      <path id="DejaVuSans-65" d="M 3597 1894 
L 3597 1613 
L 953 1613 
Q 991 1019 1311 708 
Q 1631 397 2203 397 
Q 2534 397 2845 478 
Q 3156 559 3463 722 
L 3463 178 
Q 3153 47 2828 -22 
Q 2503 -91 2169 -91 
Q 1331 -91 842 396 
Q 353 884 353 1716 
Q 353 2575 817 3079 
Q 1281 3584 2069 3584 
Q 2775 3584 3186 3129 
Q 3597 2675 3597 1894 
z
M 3022 2063 
Q 3016 2534 2758 2815 
Q 2500 3097 2075 3097 
Q 1594 3097 1305 2825 
Q 1016 2553 972 2059 
L 3022 2063 
z
" transform="scale(0.015625)"/>
      <path id="DejaVuSans-67" d="M 2906 1791 
Q 2906 2416 2648 2759 
Q 2391 3103 1925 3103 
Q 1463 3103 1205 2759 
Q 947 2416 947 1791 
Q 947 1169 1205 825 
Q 1463 481 1925 481 
Q 2391 481 2648 825 
Q 2906 1169 2906 1791 
z
M 3481 434 
Q 3481 -459 3084 -895 
Q 2688 -1331 1869 -1331 
Q 1566 -1331 1297 -1286 
Q 1028 -1241 775 -1147 
L 775 -588 
Q 1028 -725 1275 -790 
Q 1522 -856 1778 -856 
Q 2344 -856 2625 -561 
Q 2906 -266 2906 331 
L 2906 616 
Q 2728 306 2450 153 
Q 2172 0 1784 0 
Q 1141 0 747 490 
Q 353 981 353 1791 
Q 353 2603 747 3093 
Q 1141 3584 1784 3584 
Q 2172 3584 2450 3431 
Q 2728 3278 2906 2969 
L 2906 3500 
L 3481 3500 
L 3481 434 
z
" transform="scale(0.015625)"/>
      <path id="DejaVuSans-68" d="M 3513 2113 
L 3513 0 
L 2938 0 
L 2938 2094 
Q 2938 2591 2744 2837 
Q 2550 3084 2163 3084 
Q 1697 3084 1428 2787 
Q 1159 2491 1159 1978 
L 1159 0 
L 581 0 
L 581 4863 
L 1159 4863 
L 1159 2956 
Q 1366 3272 1645 3428 
Q 1925 3584 2291 3584 
Q 2894 3584 3203 3211 
Q 3513 2838 3513 2113 
z
" transform="scale(0.015625)"/>
      <path id="DejaVuSans-74" d="M 1172 4494 
L 1172 3500 
L 2356 3500 
L 2356 3053 
L 1172 3053 
L 1172 1153 
Q 1172 725 1289 603 
Q 1406 481 1766 481 
L 2356 481 
L 2356 0 
L 1766 0 
Q 1100 0 847 248 
Q 594 497 594 1153 
L 594 3053 
L 172 3053 
L 172 3500 
L 594 3500 
L 594 4494 
L 1172 4494 
z
" transform="scale(0.015625)"/>
      <path id="DejaVuSans-64" d="M 2906 2969 
L 2906 4863 
L 3481 4863 
L 3481 0 
L 2906 0 
L 2906 525 
Q 2725 213 2448 61 
Q 2172 -91 1784 -91 
Q 1150 -91 751 415 
Q 353 922 353 1747 
Q 353 2572 751 3078 
Q 1150 3584 1784 3584 
Q 2172 3584 2448 3432 
Q 2725 3281 2906 2969 
z
M 947 1747 
Q 947 1113 1208 752 
Q 1469 391 1925 391 
Q 2381 391 2643 752 
Q 2906 1113 2906 1747 
Q 2906 2381 2643 2742 
Q 2381 3103 1925 3103 
Q 1469 3103 1208 2742 
Q 947 2381 947 1747 
z
" transform="scale(0.015625)"/>
      <path id="DejaVuSans-63" d="M 3122 3366 
L 3122 2828 
Q 2878 2963 2633 3030 
Q 2388 3097 2138 3097 
Q 1578 3097 1268 2742 
Q 959 2388 959 1747 
Q 959 1106 1268 751 
Q 1578 397 2138 397 
Q 2388 397 2633 464 
Q 2878 531 3122 666 
L 3122 134 
Q 2881 22 2623 -34 
Q 2366 -91 2075 -91 
Q 1284 -91 818 406 
Q 353 903 353 1747 
Q 353 2603 823 3093 
Q 1294 3584 2113 3584 
Q 2378 3584 2631 3529 
Q 2884 3475 3122 3366 
z
" transform="scale(0.015625)"/>
     </defs>
     <use xlink:href="#DejaVuSans-31"/>
     <use xlink:href="#DejaVuSans-66" x="63.623047"/>
     <use xlink:href="#DejaVuSans-69" x="98.828125"/>
     <use xlink:href="#DejaVuSans-6e" x="126.611328"/>
     <use xlink:href="#DejaVuSans-61" x="189.990234"/>
     <use xlink:href="#DejaVuSans-6c" x="251.269531"/>
     <use xlink:href="#DejaVuSans-5f" x="279.052734"/>
     <use xlink:href="#DejaVuSans-77" x="329.052734"/>
     <use xlink:href="#DejaVuSans-65" x="410.839844"/>
     <use xlink:href="#DejaVuSans-69" x="472.363281"/>
     <use xlink:href="#DejaVuSans-67" x="500.146484"/>
     <use xlink:href="#DejaVuSans-68" x="563.623047"/>
     <use xlink:href="#DejaVuSans-74" x="627.001953"/>
     <use xlink:href="#DejaVuSans-65" x="666.210938"/>
     <use xlink:href="#DejaVuSans-64" x="727.734375"/>
     <use xlink:href="#DejaVuSans-5f" x="791.210938"/>
     <use xlink:href="#DejaVuSans-63" x="841.210938"/>
     <use xlink:href="#DejaVuSans-63" x="896.191406"/>
     <use xlink:href="#DejaVuSans-69" x="951.171875"/>
    </g>
   </g>
   <g id="legend_1">
    <g id="patch_7">
     <path d="M 64.6 302.584 
L 258.804688 302.584 
Q 260.804688 302.584 260.804688 300.584 
L 260.804688 257.549625 
Q 260.804688 255.549625 258.804688 255.549625 
L 64.6 255.549625 
Q 62.6 255.549625 62.6 257.549625 
L 62.6 300.584 
Q 62.6 302.584 64.6 302.584 
z
" style="fill: #ffffff; opacity: 0.8; stroke: #cccccc; stroke-linejoin: miter"/>
    </g>
    <g id="line2d_17">
     <path d="M 66.6 263.648062 
L 76.6 263.648062 
L 86.6 263.648062 
" style="fill: none; stroke: #1f77b4; stroke-opacity: 0.7; stroke-width: 1.5; stroke-linecap: square"/>
    </g>
    <g id="text_15">
     <!-- Positive cumulative predictions -->
     <g transform="translate(94.6 267.148062) scale(0.1 -0.1)">
      <defs>
       <path id="DejaVuSans-50" d="M 1259 4147 
L 1259 2394 
L 2053 2394 
Q 2494 2394 2734 2622 
Q 2975 2850 2975 3272 
Q 2975 3691 2734 3919 
Q 2494 4147 2053 4147 
L 1259 4147 
z
M 628 4666 
L 2053 4666 
Q 2838 4666 3239 4311 
Q 3641 3956 3641 3272 
Q 3641 2581 3239 2228 
Q 2838 1875 2053 1875 
L 1259 1875 
L 1259 0 
L 628 0 
L 628 4666 
z
" transform="scale(0.015625)"/>
       <path id="DejaVuSans-6f" d="M 1959 3097 
Q 1497 3097 1228 2736 
Q 959 2375 959 1747 
Q 959 1119 1226 758 
Q 1494 397 1959 397 
Q 2419 397 2687 759 
Q 2956 1122 2956 1747 
Q 2956 2369 2687 2733 
Q 2419 3097 1959 3097 
z
M 1959 3584 
Q 2709 3584 3137 3096 
Q 3566 2609 3566 1747 
Q 3566 888 3137 398 
Q 2709 -91 1959 -91 
Q 1206 -91 779 398 
Q 353 888 353 1747 
Q 353 2609 779 3096 
Q 1206 3584 1959 3584 
z
" transform="scale(0.015625)"/>
       <path id="DejaVuSans-73" d="M 2834 3397 
L 2834 2853 
Q 2591 2978 2328 3040 
Q 2066 3103 1784 3103 
Q 1356 3103 1142 2972 
Q 928 2841 928 2578 
Q 928 2378 1081 2264 
Q 1234 2150 1697 2047 
L 1894 2003 
Q 2506 1872 2764 1633 
Q 3022 1394 3022 966 
Q 3022 478 2636 193 
Q 2250 -91 1575 -91 
Q 1294 -91 989 -36 
Q 684 19 347 128 
L 347 722 
Q 666 556 975 473 
Q 1284 391 1588 391 
Q 1994 391 2212 530 
Q 2431 669 2431 922 
Q 2431 1156 2273 1281 
Q 2116 1406 1581 1522 
L 1381 1569 
Q 847 1681 609 1914 
Q 372 2147 372 2553 
Q 372 3047 722 3315 
Q 1072 3584 1716 3584 
Q 2034 3584 2315 3537 
Q 2597 3491 2834 3397 
z
" transform="scale(0.015625)"/>
       <path id="DejaVuSans-76" d="M 191 3500 
L 800 3500 
L 1894 563 
L 2988 3500 
L 3597 3500 
L 2284 0 
L 1503 0 
L 191 3500 
z
" transform="scale(0.015625)"/>
       <path id="DejaVuSans-20" transform="scale(0.015625)"/>
       <path id="DejaVuSans-75" d="M 544 1381 
L 544 3500 
L 1119 3500 
L 1119 1403 
Q 1119 906 1312 657 
Q 1506 409 1894 409 
Q 2359 409 2629 706 
Q 2900 1003 2900 1516 
L 2900 3500 
L 3475 3500 
L 3475 0 
L 2900 0 
L 2900 538 
Q 2691 219 2414 64 
Q 2138 -91 1772 -91 
Q 1169 -91 856 284 
Q 544 659 544 1381 
z
M 1991 3584 
L 1991 3584 
z
" transform="scale(0.015625)"/>
       <path id="DejaVuSans-6d" d="M 3328 2828 
Q 3544 3216 3844 3400 
Q 4144 3584 4550 3584 
Q 5097 3584 5394 3201 
Q 5691 2819 5691 2113 
L 5691 0 
L 5113 0 
L 5113 2094 
Q 5113 2597 4934 2840 
Q 4756 3084 4391 3084 
Q 3944 3084 3684 2787 
Q 3425 2491 3425 1978 
L 3425 0 
L 2847 0 
L 2847 2094 
Q 2847 2600 2669 2842 
Q 2491 3084 2119 3084 
Q 1678 3084 1418 2786 
Q 1159 2488 1159 1978 
L 1159 0 
L 581 0 
L 581 3500 
L 1159 3500 
L 1159 2956 
Q 1356 3278 1631 3431 
Q 1906 3584 2284 3584 
Q 2666 3584 2933 3390 
Q 3200 3197 3328 2828 
z
" transform="scale(0.015625)"/>
       <path id="DejaVuSans-70" d="M 1159 525 
L 1159 -1331 
L 581 -1331 
L 581 3500 
L 1159 3500 
L 1159 2969 
Q 1341 3281 1617 3432 
Q 1894 3584 2278 3584 
Q 2916 3584 3314 3078 
Q 3713 2572 3713 1747 
Q 3713 922 3314 415 
Q 2916 -91 2278 -91 
Q 1894 -91 1617 61 
Q 1341 213 1159 525 
z
M 3116 1747 
Q 3116 2381 2855 2742 
Q 2594 3103 2138 3103 
Q 1681 3103 1420 2742 
Q 1159 2381 1159 1747 
Q 1159 1113 1420 752 
Q 1681 391 2138 391 
Q 2594 391 2855 752 
Q 3116 1113 3116 1747 
z
" transform="scale(0.015625)"/>
       <path id="DejaVuSans-72" d="M 2631 2963 
Q 2534 3019 2420 3045 
Q 2306 3072 2169 3072 
Q 1681 3072 1420 2755 
Q 1159 2438 1159 1844 
L 1159 0 
L 581 0 
L 581 3500 
L 1159 3500 
L 1159 2956 
Q 1341 3275 1631 3429 
Q 1922 3584 2338 3584 
Q 2397 3584 2469 3576 
Q 2541 3569 2628 3553 
L 2631 2963 
z
" transform="scale(0.015625)"/>
      </defs>
      <use xlink:href="#DejaVuSans-50"/>
      <use xlink:href="#DejaVuSans-6f" x="56.677734"/>
      <use xlink:href="#DejaVuSans-73" x="117.859375"/>
      <use xlink:href="#DejaVuSans-69" x="169.958984"/>
      <use xlink:href="#DejaVuSans-74" x="197.742188"/>
      <use xlink:href="#DejaVuSans-69" x="236.951172"/>
      <use xlink:href="#DejaVuSans-76" x="264.734375"/>
      <use xlink:href="#DejaVuSans-65" x="323.914062"/>
      <use xlink:href="#DejaVuSans-20" x="385.4375"/>
      <use xlink:href="#DejaVuSans-63" x="417.224609"/>
      <use xlink:href="#DejaVuSans-75" x="472.205078"/>
      <use xlink:href="#DejaVuSans-6d" x="535.583984"/>
      <use xlink:href="#DejaVuSans-75" x="632.996094"/>
      <use xlink:href="#DejaVuSans-6c" x="696.375"/>
      <use xlink:href="#DejaVuSans-61" x="724.158203"/>
      <use xlink:href="#DejaVuSans-74" x="785.4375"/>
      <use xlink:href="#DejaVuSans-69" x="824.646484"/>
      <use xlink:href="#DejaVuSans-76" x="852.429688"/>
      <use xlink:href="#DejaVuSans-65" x="911.609375"/>
      <use xlink:href="#DejaVuSans-20" x="973.132812"/>
      <use xlink:href="#DejaVuSans-70" x="1004.919922"/>
      <use xlink:href="#DejaVuSans-72" x="1068.396484"/>
      <use xlink:href="#DejaVuSans-65" x="1107.259766"/>
      <use xlink:href="#DejaVuSans-64" x="1168.783203"/>
      <use xlink:href="#DejaVuSans-69" x="1232.259766"/>
      <use xlink:href="#DejaVuSans-63" x="1260.042969"/>
      <use xlink:href="#DejaVuSans-74" x="1315.023438"/>
      <use xlink:href="#DejaVuSans-69" x="1354.232422"/>
      <use xlink:href="#DejaVuSans-6f" x="1382.015625"/>
      <use xlink:href="#DejaVuSans-6e" x="1443.197266"/>
      <use xlink:href="#DejaVuSans-73" x="1506.576172"/>
     </g>
    </g>
    <g id="line2d_18">
     <path d="M 66.6 278.326188 
L 76.6 278.326188 
L 86.6 278.326188 
" style="fill: none; stroke: #ff7f0e; stroke-opacity: 0.7; stroke-width: 1.5; stroke-linecap: square"/>
    </g>
    <g id="text_16">
     <!-- Negative cumulative predictions -->
     <g transform="translate(94.6 281.826188) scale(0.1 -0.1)">
      <defs>
       <path id="DejaVuSans-4e" d="M 628 4666 
L 1478 4666 
L 3547 763 
L 3547 4666 
L 4159 4666 
L 4159 0 
L 3309 0 
L 1241 3903 
L 1241 0 
L 628 0 
L 628 4666 
z
" transform="scale(0.015625)"/>
      </defs>
      <use xlink:href="#DejaVuSans-4e"/>
      <use xlink:href="#DejaVuSans-65" x="74.804688"/>
      <use xlink:href="#DejaVuSans-67" x="136.328125"/>
      <use xlink:href="#DejaVuSans-61" x="199.804688"/>
      <use xlink:href="#DejaVuSans-74" x="261.083984"/>
      <use xlink:href="#DejaVuSans-69" x="300.292969"/>
      <use xlink:href="#DejaVuSans-76" x="328.076172"/>
      <use xlink:href="#DejaVuSans-65" x="387.255859"/>
      <use xlink:href="#DejaVuSans-20" x="448.779297"/>
      <use xlink:href="#DejaVuSans-63" x="480.566406"/>
      <use xlink:href="#DejaVuSans-75" x="535.546875"/>
      <use xlink:href="#DejaVuSans-6d" x="598.925781"/>
      <use xlink:href="#DejaVuSans-75" x="696.337891"/>
      <use xlink:href="#DejaVuSans-6c" x="759.716797"/>
      <use xlink:href="#DejaVuSans-61" x="787.5"/>
      <use xlink:href="#DejaVuSans-74" x="848.779297"/>
      <use xlink:href="#DejaVuSans-69" x="887.988281"/>
      <use xlink:href="#DejaVuSans-76" x="915.771484"/>
      <use xlink:href="#DejaVuSans-65" x="974.951172"/>
      <use xlink:href="#DejaVuSans-20" x="1036.474609"/>
      <use xlink:href="#DejaVuSans-70" x="1068.261719"/>
      <use xlink:href="#DejaVuSans-72" x="1131.738281"/>
      <use xlink:href="#DejaVuSans-65" x="1170.601562"/>
      <use xlink:href="#DejaVuSans-64" x="1232.125"/>
      <use xlink:href="#DejaVuSans-69" x="1295.601562"/>
      <use xlink:href="#DejaVuSans-63" x="1323.384766"/>
      <use xlink:href="#DejaVuSans-74" x="1378.365234"/>
      <use xlink:href="#DejaVuSans-69" x="1417.574219"/>
      <use xlink:href="#DejaVuSans-6f" x="1445.357422"/>
      <use xlink:href="#DejaVuSans-6e" x="1506.539062"/>
      <use xlink:href="#DejaVuSans-73" x="1569.917969"/>
     </g>
    </g>
    <g id="line2d_19">
     <path d="M 66.6 293.004312 
L 76.6 293.004312 
L 86.6 293.004312 
" style="fill: none; stroke: #2ca02c; stroke-opacity: 0.7; stroke-width: 1.5; stroke-linecap: square"/>
    </g>
    <g id="text_17">
     <!-- Average cumulative predictions -->
     <g transform="translate(94.6 296.504312) scale(0.1 -0.1)">
      <defs>
       <path id="DejaVuSans-41" d="M 2188 4044 
L 1331 1722 
L 3047 1722 
L 2188 4044 
z
M 1831 4666 
L 2547 4666 
L 4325 0 
L 3669 0 
L 3244 1197 
L 1141 1197 
L 716 0 
L 50 0 
L 1831 4666 
z
" transform="scale(0.015625)"/>
      </defs>
      <use xlink:href="#DejaVuSans-41"/>
      <use xlink:href="#DejaVuSans-76" x="62.533203"/>
      <use xlink:href="#DejaVuSans-65" x="121.712891"/>
      <use xlink:href="#DejaVuSans-72" x="183.236328"/>
      <use xlink:href="#DejaVuSans-61" x="224.349609"/>
      <use xlink:href="#DejaVuSans-67" x="285.628906"/>
      <use xlink:href="#DejaVuSans-65" x="349.105469"/>
      <use xlink:href="#DejaVuSans-20" x="410.628906"/>
      <use xlink:href="#DejaVuSans-63" x="442.416016"/>
      <use xlink:href="#DejaVuSans-75" x="497.396484"/>
      <use xlink:href="#DejaVuSans-6d" x="560.775391"/>
      <use xlink:href="#DejaVuSans-75" x="658.1875"/>
      <use xlink:href="#DejaVuSans-6c" x="721.566406"/>
      <use xlink:href="#DejaVuSans-61" x="749.349609"/>
      <use xlink:href="#DejaVuSans-74" x="810.628906"/>
      <use xlink:href="#DejaVuSans-69" x="849.837891"/>
      <use xlink:href="#DejaVuSans-76" x="877.621094"/>
      <use xlink:href="#DejaVuSans-65" x="936.800781"/>
      <use xlink:href="#DejaVuSans-20" x="998.324219"/>
      <use xlink:href="#DejaVuSans-70" x="1030.111328"/>
      <use xlink:href="#DejaVuSans-72" x="1093.587891"/>
      <use xlink:href="#DejaVuSans-65" x="1132.451172"/>
      <use xlink:href="#DejaVuSans-64" x="1193.974609"/>
      <use xlink:href="#DejaVuSans-69" x="1257.451172"/>
      <use xlink:href="#DejaVuSans-63" x="1285.234375"/>
      <use xlink:href="#DejaVuSans-74" x="1340.214844"/>
      <use xlink:href="#DejaVuSans-69" x="1379.423828"/>
      <use xlink:href="#DejaVuSans-6f" x="1407.207031"/>
      <use xlink:href="#DejaVuSans-6e" x="1468.388672"/>
      <use xlink:href="#DejaVuSans-73" x="1531.767578"/>
     </g>
    </g>
   </g>
  </g>
 </g>
 <defs>
  <clipPath id="p5ae03c819f">
   <rect x="57.6" y="41.472" width="357.12" height="266.112"/>
  </clipPath>
 </defs>
</svg>
