<?xml version="1.0" encoding="utf-8" standalone="no"?>
<!DOCTYPE svg PUBLIC "-//W3C//DTD SVG 1.1//EN"
  "http://www.w3.org/Graphics/SVG/1.1/DTD/svg11.dtd">
<svg xmlns:xlink="http://www.w3.org/1999/xlink" width="460.8pt" height="345.6pt" viewBox="0 0 460.8 345.6" xmlns="http://www.w3.org/2000/svg" version="1.1">
 <metadata>
  <rdf:RDF xmlns:dc="http://purl.org/dc/elements/1.1/" xmlns:cc="http://creativecommons.org/ns#" xmlns:rdf="http://www.w3.org/1999/02/22-rdf-syntax-ns#">
   <cc:Work>
    <dc:type rdf:resource="http://purl.org/dc/dcmitype/StillImage"/>
    <dc:date>2024-09-12T12:26:52.512955</dc:date>
    <dc:format>image/svg+xml</dc:format>
    <dc:creator>
     <cc:Agent>
      <dc:title>Matplotlib v3.8.3, https://matplotlib.org/</dc:title>
     </cc:Agent>
    </dc:creator>
   </cc:Work>
  </rdf:RDF>
 </metadata>
 <defs>
  <style type="text/css">*{stroke-linejoin: round; stroke-linecap: butt}</style>
 </defs>
 <g id="figure_1">
  <g id="patch_1">
   <path d="M 0 345.6 
L 460.8 345.6 
L 460.8 0 
L 0 0 
z
" style="fill: #ffffff"/>
  </g>
  <g id="axes_1">
   <g id="patch_2">
    <path d="M 57.6 307.584 
L 414.72 307.584 
L 414.72 41.472 
L 57.6 41.472 
z
" style="fill: #ffffff"/>
   </g>
   <g id="matplotlib.axis_1">
    <g id="xtick_1">
     <g id="line2d_1">
      <defs>
       <path id="m639b8ddb7c" d="M 0 0 
L 0 3.5 
" style="stroke: #000000; stroke-width: 0.8"/>
      </defs>
      <g>
       <use xlink:href="#m639b8ddb7c" x="73.832727" y="307.584" style="stroke: #000000; stroke-width: 0.8"/>
      </g>
     </g>
     <g id="text_1">
      <!-- 0 -->
      <g transform="translate(70.651477 322.182437) scale(0.1 -0.1)">
       <defs>
        <path id="DejaVuSans-30" d="M 2034 4250 
Q 1547 4250 1301 3770 
Q 1056 3291 1056 2328 
Q 1056 1369 1301 889 
Q 1547 409 2034 409 
Q 2525 409 2770 889 
Q 3016 1369 3016 2328 
Q 3016 3291 2770 3770 
Q 2525 4250 2034 4250 
z
M 2034 4750 
Q 2819 4750 3233 4129 
Q 3647 3509 3647 2328 
Q 3647 1150 3233 529 
Q 2819 -91 2034 -91 
Q 1250 -91 836 529 
Q 422 1150 422 2328 
Q 422 3509 836 4129 
Q 1250 4750 2034 4750 
z
" transform="scale(0.015625)"/>
       </defs>
       <use xlink:href="#DejaVuSans-30"/>
      </g>
     </g>
    </g>
    <g id="xtick_2">
     <g id="line2d_2">
      <g>
       <use xlink:href="#m639b8ddb7c" x="149.333784" y="307.584" style="stroke: #000000; stroke-width: 0.8"/>
      </g>
     </g>
     <g id="text_2">
      <!-- 50 -->
      <g transform="translate(142.971284 322.182437) scale(0.1 -0.1)">
       <defs>
        <path id="DejaVuSans-35" d="M 691 4666 
L 3169 4666 
L 3169 4134 
L 1269 4134 
L 1269 2991 
Q 1406 3038 1543 3061 
Q 1681 3084 1819 3084 
Q 2600 3084 3056 2656 
Q 3513 2228 3513 1497 
Q 3513 744 3044 326 
Q 2575 -91 1722 -91 
Q 1428 -91 1123 -41 
Q 819 9 494 109 
L 494 744 
Q 775 591 1075 516 
Q 1375 441 1709 441 
Q 2250 441 2565 725 
Q 2881 1009 2881 1497 
Q 2881 1984 2565 2268 
Q 2250 2553 1709 2553 
Q 1456 2553 1204 2497 
Q 953 2441 691 2322 
L 691 4666 
z
" transform="scale(0.015625)"/>
       </defs>
       <use xlink:href="#DejaVuSans-35"/>
       <use xlink:href="#DejaVuSans-30" x="63.623047"/>
      </g>
     </g>
    </g>
    <g id="xtick_3">
     <g id="line2d_3">
      <g>
       <use xlink:href="#m639b8ddb7c" x="224.834841" y="307.584" style="stroke: #000000; stroke-width: 0.8"/>
      </g>
     </g>
     <g id="text_3">
      <!-- 100 -->
      <g transform="translate(215.291091 322.182437) scale(0.1 -0.1)">
       <defs>
        <path id="DejaVuSans-31" d="M 794 531 
L 1825 531 
L 1825 4091 
L 703 3866 
L 703 4441 
L 1819 4666 
L 2450 4666 
L 2450 531 
L 3481 531 
L 3481 0 
L 794 0 
L 794 531 
z
" transform="scale(0.015625)"/>
       </defs>
       <use xlink:href="#DejaVuSans-31"/>
       <use xlink:href="#DejaVuSans-30" x="63.623047"/>
       <use xlink:href="#DejaVuSans-30" x="127.246094"/>
      </g>
     </g>
    </g>
    <g id="xtick_4">
     <g id="line2d_4">
      <g>
       <use xlink:href="#m639b8ddb7c" x="300.335899" y="307.584" style="stroke: #000000; stroke-width: 0.8"/>
      </g>
     </g>
     <g id="text_4">
      <!-- 150 -->
      <g transform="translate(290.792149 322.182437) scale(0.1 -0.1)">
       <use xlink:href="#DejaVuSans-31"/>
       <use xlink:href="#DejaVuSans-35" x="63.623047"/>
       <use xlink:href="#DejaVuSans-30" x="127.246094"/>
      </g>
     </g>
    </g>
    <g id="xtick_5">
     <g id="line2d_5">
      <g>
       <use xlink:href="#m639b8ddb7c" x="375.836956" y="307.584" style="stroke: #000000; stroke-width: 0.8"/>
      </g>
     </g>
     <g id="text_5">
      <!-- 200 -->
      <g transform="translate(366.293206 322.182437) scale(0.1 -0.1)">
       <defs>
        <path id="DejaVuSans-32" d="M 1228 531 
L 3431 531 
L 3431 0 
L 469 0 
L 469 531 
Q 828 903 1448 1529 
Q 2069 2156 2228 2338 
Q 2531 2678 2651 2914 
Q 2772 3150 2772 3378 
Q 2772 3750 2511 3984 
Q 2250 4219 1831 4219 
Q 1534 4219 1204 4116 
Q 875 4013 500 3803 
L 500 4441 
Q 881 4594 1212 4672 
Q 1544 4750 1819 4750 
Q 2544 4750 2975 4387 
Q 3406 4025 3406 3419 
Q 3406 3131 3298 2873 
Q 3191 2616 2906 2266 
Q 2828 2175 2409 1742 
Q 1991 1309 1228 531 
z
" transform="scale(0.015625)"/>
       </defs>
       <use xlink:href="#DejaVuSans-32"/>
       <use xlink:href="#DejaVuSans-30" x="63.623047"/>
       <use xlink:href="#DejaVuSans-30" x="127.246094"/>
      </g>
     </g>
    </g>
   </g>
   <g id="matplotlib.axis_2">
    <g id="ytick_1">
     <g id="line2d_6">
      <defs>
       <path id="m71ce89427f" d="M 0 0 
L -3.5 0 
" style="stroke: #000000; stroke-width: 0.8"/>
      </defs>
      <g>
       <use xlink:href="#m71ce89427f" x="57.6" y="281.272142" style="stroke: #000000; stroke-width: 0.8"/>
      </g>
     </g>
     <g id="text_6">
      <!-- −1000 -->
      <g transform="translate(16.770313 285.071361) scale(0.1 -0.1)">
       <defs>
        <path id="DejaVuSans-2212" d="M 678 2272 
L 4684 2272 
L 4684 1741 
L 678 1741 
L 678 2272 
z
" transform="scale(0.015625)"/>
       </defs>
       <use xlink:href="#DejaVuSans-2212"/>
       <use xlink:href="#DejaVuSans-31" x="83.789062"/>
       <use xlink:href="#DejaVuSans-30" x="147.412109"/>
       <use xlink:href="#DejaVuSans-30" x="211.035156"/>
       <use xlink:href="#DejaVuSans-30" x="274.658203"/>
      </g>
     </g>
    </g>
    <g id="ytick_2">
     <g id="line2d_7">
      <g>
       <use xlink:href="#m71ce89427f" x="57.6" y="236.16059" style="stroke: #000000; stroke-width: 0.8"/>
      </g>
     </g>
     <g id="text_7">
      <!-- −800 -->
      <g transform="translate(23.132812 239.959809) scale(0.1 -0.1)">
       <defs>
        <path id="DejaVuSans-38" d="M 2034 2216 
Q 1584 2216 1326 1975 
Q 1069 1734 1069 1313 
Q 1069 891 1326 650 
Q 1584 409 2034 409 
Q 2484 409 2743 651 
Q 3003 894 3003 1313 
Q 3003 1734 2745 1975 
Q 2488 2216 2034 2216 
z
M 1403 2484 
Q 997 2584 770 2862 
Q 544 3141 544 3541 
Q 544 4100 942 4425 
Q 1341 4750 2034 4750 
Q 2731 4750 3128 4425 
Q 3525 4100 3525 3541 
Q 3525 3141 3298 2862 
Q 3072 2584 2669 2484 
Q 3125 2378 3379 2068 
Q 3634 1759 3634 1313 
Q 3634 634 3220 271 
Q 2806 -91 2034 -91 
Q 1263 -91 848 271 
Q 434 634 434 1313 
Q 434 1759 690 2068 
Q 947 2378 1403 2484 
z
M 1172 3481 
Q 1172 3119 1398 2916 
Q 1625 2713 2034 2713 
Q 2441 2713 2670 2916 
Q 2900 3119 2900 3481 
Q 2900 3844 2670 4047 
Q 2441 4250 2034 4250 
Q 1625 4250 1398 4047 
Q 1172 3844 1172 3481 
z
" transform="scale(0.015625)"/>
       </defs>
       <use xlink:href="#DejaVuSans-2212"/>
       <use xlink:href="#DejaVuSans-38" x="83.789062"/>
       <use xlink:href="#DejaVuSans-30" x="147.412109"/>
       <use xlink:href="#DejaVuSans-30" x="211.035156"/>
      </g>
     </g>
    </g>
    <g id="ytick_3">
     <g id="line2d_8">
      <g>
       <use xlink:href="#m71ce89427f" x="57.6" y="191.049038" style="stroke: #000000; stroke-width: 0.8"/>
      </g>
     </g>
     <g id="text_8">
      <!-- −600 -->
      <g transform="translate(23.132812 194.848257) scale(0.1 -0.1)">
       <defs>
        <path id="DejaVuSans-36" d="M 2113 2584 
Q 1688 2584 1439 2293 
Q 1191 2003 1191 1497 
Q 1191 994 1439 701 
Q 1688 409 2113 409 
Q 2538 409 2786 701 
Q 3034 994 3034 1497 
Q 3034 2003 2786 2293 
Q 2538 2584 2113 2584 
z
M 3366 4563 
L 3366 3988 
Q 3128 4100 2886 4159 
Q 2644 4219 2406 4219 
Q 1781 4219 1451 3797 
Q 1122 3375 1075 2522 
Q 1259 2794 1537 2939 
Q 1816 3084 2150 3084 
Q 2853 3084 3261 2657 
Q 3669 2231 3669 1497 
Q 3669 778 3244 343 
Q 2819 -91 2113 -91 
Q 1303 -91 875 529 
Q 447 1150 447 2328 
Q 447 3434 972 4092 
Q 1497 4750 2381 4750 
Q 2619 4750 2861 4703 
Q 3103 4656 3366 4563 
z
" transform="scale(0.015625)"/>
       </defs>
       <use xlink:href="#DejaVuSans-2212"/>
       <use xlink:href="#DejaVuSans-36" x="83.789062"/>
       <use xlink:href="#DejaVuSans-30" x="147.412109"/>
       <use xlink:href="#DejaVuSans-30" x="211.035156"/>
      </g>
     </g>
    </g>
    <g id="ytick_4">
     <g id="line2d_9">
      <g>
       <use xlink:href="#m71ce89427f" x="57.6" y="145.937486" style="stroke: #000000; stroke-width: 0.8"/>
      </g>
     </g>
     <g id="text_9">
      <!-- −400 -->
      <g transform="translate(23.132812 149.736705) scale(0.1 -0.1)">
       <defs>
        <path id="DejaVuSans-34" d="M 2419 4116 
L 825 1625 
L 2419 1625 
L 2419 4116 
z
M 2253 4666 
L 3047 4666 
L 3047 1625 
L 3713 1625 
L 3713 1100 
L 3047 1100 
L 3047 0 
L 2419 0 
L 2419 1100 
L 313 1100 
L 313 1709 
L 2253 4666 
z
" transform="scale(0.015625)"/>
       </defs>
       <use xlink:href="#DejaVuSans-2212"/>
       <use xlink:href="#DejaVuSans-34" x="83.789062"/>
       <use xlink:href="#DejaVuSans-30" x="147.412109"/>
       <use xlink:href="#DejaVuSans-30" x="211.035156"/>
      </g>
     </g>
    </g>
    <g id="ytick_5">
     <g id="line2d_10">
      <g>
       <use xlink:href="#m71ce89427f" x="57.6" y="100.825934" style="stroke: #000000; stroke-width: 0.8"/>
      </g>
     </g>
     <g id="text_10">
      <!-- −200 -->
      <g transform="translate(23.132812 104.625153) scale(0.1 -0.1)">
       <use xlink:href="#DejaVuSans-2212"/>
       <use xlink:href="#DejaVuSans-32" x="83.789062"/>
       <use xlink:href="#DejaVuSans-30" x="147.412109"/>
       <use xlink:href="#DejaVuSans-30" x="211.035156"/>
      </g>
     </g>
    </g>
    <g id="ytick_6">
     <g id="line2d_11">
      <g>
       <use xlink:href="#m71ce89427f" x="57.6" y="55.714382" style="stroke: #000000; stroke-width: 0.8"/>
      </g>
     </g>
     <g id="text_11">
      <!-- 0 -->
      <g transform="translate(44.2375 59.513601) scale(0.1 -0.1)">
       <use xlink:href="#DejaVuSans-30"/>
      </g>
     </g>
    </g>
   </g>
   <g id="line2d_12">
    <path d="M 73.832727 57.721068 
L 75.342748 64.397578 
L 78.362791 63.795939 
L 79.872812 62.606634 
L 81.382833 60.32452 
L 82.892854 60.588745 
L 84.402875 57.91338 
L 85.912896 63.655958 
L 87.422918 74.88636 
L 88.932939 93.497767 
L 90.44296 89.764786 
L 91.952981 84.769507 
L 93.463002 76.735355 
L 94.973023 79.489258 
L 96.483044 78.571648 
L 97.993066 78.802218 
L 99.503087 83.087815 
L 101.013108 85.928883 
L 102.523129 90.740782 
L 104.03315 89.815535 
L 105.543171 92.066601 
L 107.053192 88.860143 
L 108.563214 86.392021 
L 110.073235 83.519351 
L 111.583256 83.857688 
L 113.093277 83.738757 
L 114.603298 80.6897 
L 116.113319 78.14525 
L 117.62334 75.193554 
L 119.133362 73.194119 
L 120.643383 70.551333 
L 122.153404 65.696295 
L 123.663425 62.27291 
L 125.173446 59.806096 
L 126.683467 56.92671 
L 128.193488 66.046184 
L 129.70351 68.260751 
L 131.213531 62.096628 
L 132.723552 63.917675 
L 134.233573 63.005637 
L 135.743594 61.429955 
L 137.253615 58.523119 
L 138.763636 57.912234 
L 140.273658 56.407485 
L 141.783679 56.727533 
L 143.2937 59.073334 
L 144.803721 62.064942 
L 146.313742 63.88991 
L 147.823763 69.074846 
L 149.333784 73.29192 
L 150.843805 78.584069 
L 152.353827 80.427516 
L 153.863848 78.414001 
L 155.373869 80.259226 
L 156.88389 78.248003 
L 158.393911 73.102632 
L 159.903932 79.29498 
L 161.413953 84.965035 
L 162.923975 87.187292 
L 164.433996 84.873424 
L 165.944017 79.878573 
L 168.964059 72.744325 
L 170.47408 67.655936 
L 171.984101 69.388412 
L 173.494123 65.238149 
L 175.004144 67.446735 
L 176.514165 64.89584 
L 178.024186 63.949878 
L 179.534207 60.757894 
L 181.044228 61.206754 
L 182.554249 64.357863 
L 184.064271 63.418039 
L 185.574292 68.351841 
L 187.084313 70.757068 
L 188.594334 69.981579 
L 190.104355 66.281155 
L 191.614376 65.547565 
L 193.124397 60.986286 
L 194.634419 56.917969 
L 196.14444 59.202254 
L 197.654461 56.052573 
L 199.164482 60.825536 
L 200.674503 66.458492 
L 202.184524 67.079765 
L 203.694545 72.657907 
L 205.204567 71.19567 
L 206.714588 66.813681 
L 208.224609 64.047731 
L 209.73463 61.981698 
L 211.244651 66.022941 
L 212.754672 72.737478 
L 214.264693 69.697995 
L 215.774715 74.126629 
L 217.284736 72.429489 
L 218.794757 66.685886 
L 220.304778 65.72458 
L 221.814799 60.936362 
L 223.32482 66.110093 
L 224.834841 64.928101 
L 226.344863 66.010778 
L 227.854884 62.799593 
L 229.364905 58.033831 
L 232.384947 55.800186 
L 233.894968 53.568 
L 235.404989 57.667844 
L 236.915011 74.368997 
L 238.425032 68.167793 
L 239.935053 65.845684 
L 241.445074 64.442392 
L 242.955095 64.627958 
L 244.465116 57.36881 
L 245.975137 70.911739 
L 247.485159 68.120462 
L 248.99518 74.370745 
L 250.505201 66.593637 
L 252.015222 71.049554 
L 253.525243 72.76867 
L 255.035264 86.430809 
L 256.545285 80.603901 
L 258.055307 77.071158 
L 259.565328 71.982753 
L 261.075349 68.957626 
L 262.58537 62.794333 
L 264.095391 64.11421 
L 265.605412 74.673494 
L 267.115433 68.925363 
L 268.625455 67.950325 
L 270.135476 66.755862 
L 271.645497 75.718963 
L 273.155518 73.348505 
L 274.665539 78.887202 
L 276.17556 77.850743 
L 277.685581 81.782875 
L 279.195603 84.112271 
L 280.705624 78.533114 
L 282.215645 85.393041 
L 283.725666 90.633231 
L 285.235687 109.37588 
L 286.745708 119.888198 
L 289.765751 134.430554 
L 291.275772 135.098101 
L 292.785793 145.91191 
L 294.295814 167.490699 
L 295.805835 167.744451 
L 297.315856 163.936731 
L 298.825877 159.699286 
L 300.335899 153.90661 
L 301.84592 150.852808 
L 303.355941 150.071456 
L 304.865962 157.188919 
L 306.375983 163.590815 
L 307.886004 164.093417 
L 309.396025 162.337724 
L 310.906047 171.869358 
L 312.416068 182.252252 
L 313.926089 184.008724 
L 315.43611 195.680443 
L 316.946131 196.012843 
L 318.456152 195.441273 
L 319.966173 198.481604 
L 322.986216 192.816394 
L 324.496237 188.426693 
L 326.006258 186.991639 
L 327.516279 188.270563 
L 329.0263 185.257431 
L 330.536321 190.830634 
L 332.046342 214.420593 
L 333.556364 217.141874 
L 335.066385 208.346238 
L 336.576406 202.977297 
L 338.086427 199.439136 
L 339.596448 190.504848 
L 341.106469 189.057336 
L 342.61649 202.954745 
L 344.126512 198.740719 
L 345.636533 199.734684 
L 347.146554 207.039533 
L 348.656575 213.181974 
L 350.166596 208.468668 
L 351.676617 215.506493 
L 353.186638 211.233544 
L 354.69666 207.8827 
L 356.206681 205.224042 
L 357.716702 205.058772 
L 359.226723 202.187566 
L 360.736744 205.193973 
L 362.246765 211.570081 
L 363.756786 232.353034 
L 365.266808 244.245618 
L 366.776829 284.50515 
L 368.28685 295.488 
L 369.796871 286.798513 
L 371.306892 271.380741 
L 372.816913 267.08322 
L 374.326934 259.646739 
L 375.836956 256.077214 
L 377.346977 250.944304 
L 378.856998 257.562617 
L 380.367019 254.678978 
L 381.87704 248.198791 
L 383.387061 244.001874 
L 384.897082 245.236203 
L 386.407104 243.758609 
L 387.917125 239.12944 
L 389.427146 246.474283 
L 390.937167 247.021662 
L 392.447188 245.987855 
L 393.957209 242.026088 
L 395.46723 239.659595 
L 396.977252 254.896347 
L 398.487273 261.048342 
L 398.487273 261.048342 
" clip-path="url(#p80bee98e63)" style="fill: none; stroke: #1f77b4; stroke-opacity: 0.7; stroke-width: 1.5; stroke-linecap: square"/>
   </g>
   <g id="line2d_13">
    <path d="M 73.832727 57.721068 
L 75.342748 64.397578 
L 78.362791 63.795939 
L 79.872812 62.606634 
L 81.382833 60.32452 
L 82.892854 60.588745 
L 84.402875 57.91338 
L 85.912896 63.655958 
L 87.422918 74.88636 
L 88.932939 93.497767 
L 90.44296 89.764786 
L 91.952981 84.769507 
L 93.463002 76.735355 
L 94.973023 79.489258 
L 96.483044 78.571648 
L 97.993066 78.802218 
L 99.503087 83.087815 
L 101.013108 85.928883 
L 102.523129 90.740782 
L 104.03315 89.815535 
L 105.543171 92.066601 
L 107.053192 88.860143 
L 108.563214 86.392021 
L 110.073235 83.519351 
L 111.583256 83.857688 
L 113.093277 83.738757 
L 114.603298 80.6897 
L 116.113319 78.14525 
L 117.62334 75.193554 
L 119.133362 73.194119 
L 120.643383 70.551333 
L 122.153404 65.696295 
L 123.663425 62.27291 
L 125.173446 59.806096 
L 126.683467 56.92671 
L 128.193488 66.046184 
L 129.70351 68.260751 
L 131.213531 62.096628 
L 132.723552 63.917675 
L 134.233573 63.005637 
L 135.743594 61.429955 
L 137.253615 58.523119 
L 138.763636 57.912234 
L 140.273658 56.407485 
L 141.783679 56.727533 
L 143.2937 59.073334 
L 144.803721 62.064942 
L 146.313742 63.88991 
L 147.823763 69.074846 
L 149.333784 73.29192 
L 150.843805 78.584069 
L 152.353827 80.427516 
L 153.863848 78.414001 
L 155.373869 80.259226 
L 156.88389 78.248003 
L 158.393911 73.102632 
L 159.903932 79.29498 
L 161.413953 84.965035 
L 162.923975 87.187292 
L 164.433996 84.873424 
L 165.944017 79.878573 
L 168.964059 72.744325 
L 170.47408 67.655936 
L 171.984101 69.388412 
L 173.494123 65.238149 
L 175.004144 67.446735 
L 176.514165 64.89584 
L 178.024186 63.949878 
L 179.534207 60.757894 
L 181.044228 61.206754 
L 182.554249 64.357863 
L 184.064271 63.418039 
L 185.574292 68.351841 
L 187.084313 70.757068 
L 188.594334 69.981579 
L 190.104355 66.281155 
L 191.614376 65.547565 
L 193.124397 60.986286 
L 194.634419 56.917969 
L 196.14444 59.202254 
L 197.654461 56.052573 
L 199.164482 60.825536 
L 200.674503 66.458492 
L 202.184524 67.079765 
L 203.694545 72.657907 
L 205.204567 71.19567 
L 206.714588 66.813681 
L 208.224609 64.047731 
L 209.73463 61.981698 
L 211.244651 66.022941 
L 212.754672 72.737478 
L 214.264693 69.697995 
L 215.774715 74.126629 
L 217.284736 72.429489 
L 218.794757 66.685886 
L 220.304778 65.72458 
L 221.814799 60.936362 
L 223.32482 66.110093 
L 224.834841 64.928101 
L 226.344863 66.010778 
L 227.854884 62.799593 
L 229.364905 58.033831 
L 232.384947 55.800186 
L 233.894968 53.568 
L 235.404989 57.667844 
L 236.915011 74.368997 
L 238.425032 68.167793 
L 239.935053 65.845684 
L 241.445074 64.442392 
L 242.955095 64.627958 
L 244.465116 57.36881 
L 245.975137 70.911739 
L 247.485159 68.120462 
L 248.99518 74.370745 
L 250.505201 66.593637 
L 252.015222 71.049554 
L 253.525243 72.76867 
L 255.035264 86.430809 
L 256.545285 80.603901 
L 258.055307 77.071158 
L 259.565328 71.982753 
L 261.075349 68.957626 
L 262.58537 62.794333 
L 264.095391 64.11421 
L 265.605412 74.673494 
L 267.115433 68.925363 
L 268.625455 67.950325 
L 270.135476 66.755862 
L 271.645497 75.718963 
L 273.155518 73.348505 
L 274.665539 78.887202 
L 276.17556 77.850743 
L 277.685581 81.782875 
L 279.195603 84.112271 
L 280.705624 78.533114 
L 282.215645 85.393041 
L 283.725666 90.633231 
L 285.235687 109.37588 
L 286.745708 119.888198 
L 289.765751 134.430554 
L 291.275772 135.098101 
L 292.785793 145.91191 
L 294.295814 167.490699 
L 295.805835 167.744451 
L 297.315856 163.936731 
L 298.825877 159.699286 
L 300.335899 153.90661 
L 301.84592 150.852808 
L 303.355941 150.071456 
L 304.865962 157.188919 
L 306.375983 163.590815 
L 307.886004 164.093417 
L 309.396025 162.337724 
L 310.906047 171.869358 
L 312.416068 182.252252 
L 313.926089 184.008724 
L 315.43611 195.680443 
L 316.946131 196.012843 
L 318.456152 195.441273 
L 319.966173 198.481604 
L 322.986216 192.816394 
L 324.496237 188.426693 
L 326.006258 186.991639 
L 327.516279 188.270563 
L 329.0263 185.257431 
L 330.536321 190.830634 
L 332.046342 214.420593 
L 333.556364 217.141874 
L 335.066385 208.346238 
L 336.576406 202.977297 
L 338.086427 199.439136 
L 339.596448 190.504848 
L 341.106469 189.057336 
L 342.61649 202.954745 
L 344.126512 198.740719 
L 345.636533 199.734684 
L 347.146554 207.039533 
L 348.656575 213.181974 
L 350.166596 208.468668 
L 351.676617 215.506493 
L 353.186638 211.233544 
L 354.69666 207.8827 
L 356.206681 205.224042 
L 357.716702 205.058772 
L 359.226723 202.187566 
L 360.736744 205.193973 
L 362.246765 211.570081 
L 363.756786 232.353034 
L 365.266808 244.245618 
L 366.776829 284.50515 
L 368.28685 295.488 
L 369.796871 286.798513 
L 371.306892 271.380741 
L 372.816913 267.08322 
L 374.326934 259.646739 
L 375.836956 256.077214 
L 377.346977 250.944304 
L 378.856998 257.562617 
L 380.367019 254.678978 
L 381.87704 248.198791 
L 383.387061 244.001874 
L 384.897082 245.236203 
L 386.407104 243.758609 
L 387.917125 239.12944 
L 389.427146 246.474283 
L 390.937167 247.021662 
L 392.447188 245.987855 
L 393.957209 242.026088 
L 395.46723 239.659595 
L 396.977252 254.896347 
L 398.487273 261.048342 
L 398.487273 261.048342 
" clip-path="url(#p80bee98e63)" style="fill: none; stroke: #ff7f0e; stroke-opacity: 0.7; stroke-width: 1.5; stroke-linecap: square"/>
   </g>
   <g id="line2d_14">
    <path d="M 73.832727 57.721068 
L 75.342748 64.397578 
L 78.362791 63.795939 
L 79.872812 62.606634 
L 81.382833 60.32452 
L 82.892854 60.588745 
L 84.402875 57.91338 
L 85.912896 63.655958 
L 87.422918 74.88636 
L 88.932939 93.497767 
L 90.44296 89.764786 
L 91.952981 84.769507 
L 93.463002 76.735355 
L 94.973023 79.489258 
L 96.483044 78.571648 
L 97.993066 78.802218 
L 99.503087 83.087815 
L 101.013108 85.928883 
L 102.523129 90.740782 
L 104.03315 89.815535 
L 105.543171 92.066601 
L 107.053192 88.860143 
L 108.563214 86.392021 
L 110.073235 83.519351 
L 111.583256 83.857688 
L 113.093277 83.738757 
L 114.603298 80.6897 
L 116.113319 78.14525 
L 117.62334 75.193554 
L 119.133362 73.194119 
L 120.643383 70.551333 
L 122.153404 65.696295 
L 123.663425 62.27291 
L 125.173446 59.806096 
L 126.683467 56.92671 
L 128.193488 66.046184 
L 129.70351 68.260751 
L 131.213531 62.096628 
L 132.723552 63.917675 
L 134.233573 63.005637 
L 135.743594 61.429955 
L 137.253615 58.523119 
L 138.763636 57.912234 
L 140.273658 56.407485 
L 141.783679 56.727533 
L 143.2937 59.073334 
L 144.803721 62.064942 
L 146.313742 63.88991 
L 147.823763 69.074846 
L 149.333784 73.29192 
L 150.843805 78.584069 
L 152.353827 80.427516 
L 153.863848 78.414001 
L 155.373869 80.259226 
L 156.88389 78.248003 
L 158.393911 73.102632 
L 159.903932 79.29498 
L 161.413953 84.965035 
L 162.923975 87.187292 
L 164.433996 84.873424 
L 165.944017 79.878573 
L 168.964059 72.744325 
L 170.47408 67.655936 
L 171.984101 69.388412 
L 173.494123 65.238149 
L 175.004144 67.446735 
L 176.514165 64.89584 
L 178.024186 63.949878 
L 179.534207 60.757894 
L 181.044228 61.206754 
L 182.554249 64.357863 
L 184.064271 63.418039 
L 185.574292 68.351841 
L 187.084313 70.757068 
L 188.594334 69.981579 
L 190.104355 66.281155 
L 191.614376 65.547565 
L 193.124397 60.986286 
L 194.634419 56.917969 
L 196.14444 59.202254 
L 197.654461 56.052573 
L 199.164482 60.825536 
L 200.674503 66.458492 
L 202.184524 67.079765 
L 203.694545 72.657907 
L 205.204567 71.19567 
L 206.714588 66.813681 
L 208.224609 64.047731 
L 209.73463 61.981698 
L 211.244651 66.022941 
L 212.754672 72.737478 
L 214.264693 69.697995 
L 215.774715 74.126629 
L 217.284736 72.429489 
L 218.794757 66.685886 
L 220.304778 65.72458 
L 221.814799 60.936362 
L 223.32482 66.110093 
L 224.834841 64.928101 
L 226.344863 66.010778 
L 227.854884 62.799593 
L 229.364905 58.033831 
L 232.384947 55.800186 
L 233.894968 53.568 
L 235.404989 57.667844 
L 236.915011 74.368997 
L 238.425032 68.167793 
L 239.935053 65.845684 
L 241.445074 64.442392 
L 242.955095 64.627958 
L 244.465116 57.36881 
L 245.975137 70.911739 
L 247.485159 68.120462 
L 248.99518 74.370745 
L 250.505201 66.593637 
L 252.015222 71.049554 
L 253.525243 72.76867 
L 255.035264 86.430809 
L 256.545285 80.603901 
L 258.055307 77.071158 
L 259.565328 71.982753 
L 261.075349 68.957626 
L 262.58537 62.794333 
L 264.095391 64.11421 
L 265.605412 74.673494 
L 267.115433 68.925363 
L 268.625455 67.950325 
L 270.135476 66.755862 
L 271.645497 75.718963 
L 273.155518 73.348505 
L 274.665539 78.887202 
L 276.17556 77.850743 
L 277.685581 81.782875 
L 279.195603 84.112271 
L 280.705624 78.533114 
L 282.215645 85.393041 
L 283.725666 90.633231 
L 285.235687 109.37588 
L 286.745708 119.888198 
L 289.765751 134.430554 
L 291.275772 135.098101 
L 292.785793 145.91191 
L 294.295814 167.490699 
L 295.805835 167.744451 
L 297.315856 163.936731 
L 298.825877 159.699286 
L 300.335899 153.90661 
L 301.84592 150.852808 
L 303.355941 150.071456 
L 304.865962 157.188919 
L 306.375983 163.590815 
L 307.886004 164.093417 
L 309.396025 162.337724 
L 310.906047 171.869358 
L 312.416068 182.252252 
L 313.926089 184.008724 
L 315.43611 195.680443 
L 316.946131 196.012843 
L 318.456152 195.441273 
L 319.966173 198.481604 
L 322.986216 192.816394 
L 324.496237 188.426693 
L 326.006258 186.991639 
L 327.516279 188.270563 
L 329.0263 185.257431 
L 330.536321 190.830634 
L 332.046342 214.420593 
L 333.556364 217.141874 
L 335.066385 208.346238 
L 336.576406 202.977297 
L 338.086427 199.439136 
L 339.596448 190.504848 
L 341.106469 189.057336 
L 342.61649 202.954745 
L 344.126512 198.740719 
L 345.636533 199.734684 
L 347.146554 207.039533 
L 348.656575 213.181974 
L 350.166596 208.468668 
L 351.676617 215.506493 
L 353.186638 211.233544 
L 354.69666 207.8827 
L 356.206681 205.224042 
L 357.716702 205.058772 
L 359.226723 202.187566 
L 360.736744 205.193973 
L 362.246765 211.570081 
L 363.756786 232.353034 
L 365.266808 244.245618 
L 366.776829 284.50515 
L 368.28685 295.488 
L 369.796871 286.798513 
L 371.306892 271.380741 
L 372.816913 267.08322 
L 374.326934 259.646739 
L 375.836956 256.077214 
L 377.346977 250.944304 
L 378.856998 257.562617 
L 380.367019 254.678978 
L 381.87704 248.198791 
L 383.387061 244.001874 
L 384.897082 245.236203 
L 386.407104 243.758609 
L 387.917125 239.12944 
L 389.427146 246.474283 
L 390.937167 247.021662 
L 392.447188 245.987855 
L 393.957209 242.026088 
L 395.46723 239.659595 
L 396.977252 254.896347 
L 398.487273 261.048342 
L 398.487273 261.048342 
" clip-path="url(#p80bee98e63)" style="fill: none; stroke: #2ca02c; stroke-opacity: 0.7; stroke-width: 1.5; stroke-linecap: square"/>
   </g>
   <g id="patch_3">
    <path d="M 57.6 307.584 
L 57.6 41.472 
" style="fill: none; stroke: #000000; stroke-width: 0.8; stroke-linejoin: miter; stroke-linecap: square"/>
   </g>
   <g id="patch_4">
    <path d="M 414.72 307.584 
L 414.72 41.472 
" style="fill: none; stroke: #000000; stroke-width: 0.8; stroke-linejoin: miter; stroke-linecap: square"/>
   </g>
   <g id="patch_5">
    <path d="M 57.6 307.584 
L 414.72 307.584 
" style="fill: none; stroke: #000000; stroke-width: 0.8; stroke-linejoin: miter; stroke-linecap: square"/>
   </g>
   <g id="patch_6">
    <path d="M 57.6 41.472 
L 414.72 41.472 
" style="fill: none; stroke: #000000; stroke-width: 0.8; stroke-linejoin: miter; stroke-linecap: square"/>
   </g>
   <g id="text_12">
    <!-- 1final_arima_cci -->
    <g transform="translate(187.820625 35.472) scale(0.12 -0.12)">
     <defs>
      <path id="DejaVuSans-66" d="M 2375 4863 
L 2375 4384 
L 1825 4384 
Q 1516 4384 1395 4259 
Q 1275 4134 1275 3809 
L 1275 3500 
L 2222 3500 
L 2222 3053 
L 1275 3053 
L 1275 0 
L 697 0 
L 697 3053 
L 147 3053 
L 147 3500 
L 697 3500 
L 697 3744 
Q 697 4328 969 4595 
Q 1241 4863 1831 4863 
L 2375 4863 
z
" transform="scale(0.015625)"/>
      <path id="DejaVuSans-69" d="M 603 3500 
L 1178 3500 
L 1178 0 
L 603 0 
L 603 3500 
z
M 603 4863 
L 1178 4863 
L 1178 4134 
L 603 4134 
L 603 4863 
z
" transform="scale(0.015625)"/>
      <path id="DejaVuSans-6e" d="M 3513 2113 
L 3513 0 
L 2938 0 
L 2938 2094 
Q 2938 2591 2744 2837 
Q 2550 3084 2163 3084 
Q 1697 3084 1428 2787 
Q 1159 2491 1159 1978 
L 1159 0 
L 581 0 
L 581 3500 
L 1159 3500 
L 1159 2956 
Q 1366 3272 1645 3428 
Q 1925 3584 2291 3584 
Q 2894 3584 3203 3211 
Q 3513 2838 3513 2113 
z
" transform="scale(0.015625)"/>
      <path id="DejaVuSans-61" d="M 2194 1759 
Q 1497 1759 1228 1600 
Q 959 1441 959 1056 
Q 959 750 1161 570 
Q 1363 391 1709 391 
Q 2188 391 2477 730 
Q 2766 1069 2766 1631 
L 2766 1759 
L 2194 1759 
z
M 3341 1997 
L 3341 0 
L 2766 0 
L 2766 531 
Q 2569 213 2275 61 
Q 1981 -91 1556 -91 
Q 1019 -91 701 211 
Q 384 513 384 1019 
Q 384 1609 779 1909 
Q 1175 2209 1959 2209 
L 2766 2209 
L 2766 2266 
Q 2766 2663 2505 2880 
Q 2244 3097 1772 3097 
Q 1472 3097 1187 3025 
Q 903 2953 641 2809 
L 641 3341 
Q 956 3463 1253 3523 
Q 1550 3584 1831 3584 
Q 2591 3584 2966 3190 
Q 3341 2797 3341 1997 
z
" transform="scale(0.015625)"/>
      <path id="DejaVuSans-6c" d="M 603 4863 
L 1178 4863 
L 1178 0 
L 603 0 
L 603 4863 
z
" transform="scale(0.015625)"/>
      <path id="DejaVuSans-5f" d="M 3263 -1063 
L 3263 -1509 
L -63 -1509 
L -63 -1063 
L 3263 -1063 
z
" transform="scale(0.015625)"/>
      <path id="DejaVuSans-72" d="M 2631 2963 
Q 2534 3019 2420 3045 
Q 2306 3072 2169 3072 
Q 1681 3072 1420 2755 
Q 1159 2438 1159 1844 
L 1159 0 
L 581 0 
L 581 3500 
L 1159 3500 
L 1159 2956 
Q 1341 3275 1631 3429 
Q 1922 3584 2338 3584 
Q 2397 3584 2469 3576 
Q 2541 3569 2628 3553 
L 2631 2963 
z
" transform="scale(0.015625)"/>
      <path id="DejaVuSans-6d" d="M 3328 2828 
Q 3544 3216 3844 3400 
Q 4144 3584 4550 3584 
Q 5097 3584 5394 3201 
Q 5691 2819 5691 2113 
L 5691 0 
L 5113 0 
L 5113 2094 
Q 5113 2597 4934 2840 
Q 4756 3084 4391 3084 
Q 3944 3084 3684 2787 
Q 3425 2491 3425 1978 
L 3425 0 
L 2847 0 
L 2847 2094 
Q 2847 2600 2669 2842 
Q 2491 3084 2119 3084 
Q 1678 3084 1418 2786 
Q 1159 2488 1159 1978 
L 1159 0 
L 581 0 
L 581 3500 
L 1159 3500 
L 1159 2956 
Q 1356 3278 1631 3431 
Q 1906 3584 2284 3584 
Q 2666 3584 2933 3390 
Q 3200 3197 3328 2828 
z
" transform="scale(0.015625)"/>
      <path id="DejaVuSans-63" d="M 3122 3366 
L 3122 2828 
Q 2878 2963 2633 3030 
Q 2388 3097 2138 3097 
Q 1578 3097 1268 2742 
Q 959 2388 959 1747 
Q 959 1106 1268 751 
Q 1578 397 2138 397 
Q 2388 397 2633 464 
Q 2878 531 3122 666 
L 3122 134 
Q 2881 22 2623 -34 
Q 2366 -91 2075 -91 
Q 1284 -91 818 406 
Q 353 903 353 1747 
Q 353 2603 823 3093 
Q 1294 3584 2113 3584 
Q 2378 3584 2631 3529 
Q 2884 3475 3122 3366 
z
" transform="scale(0.015625)"/>
     </defs>
     <use xlink:href="#DejaVuSans-31"/>
     <use xlink:href="#DejaVuSans-66" x="63.623047"/>
     <use xlink:href="#DejaVuSans-69" x="98.828125"/>
     <use xlink:href="#DejaVuSans-6e" x="126.611328"/>
     <use xlink:href="#DejaVuSans-61" x="189.990234"/>
     <use xlink:href="#DejaVuSans-6c" x="251.269531"/>
     <use xlink:href="#DejaVuSans-5f" x="279.052734"/>
     <use xlink:href="#DejaVuSans-61" x="329.052734"/>
     <use xlink:href="#DejaVuSans-72" x="390.332031"/>
     <use xlink:href="#DejaVuSans-69" x="431.445312"/>
     <use xlink:href="#DejaVuSans-6d" x="459.228516"/>
     <use xlink:href="#DejaVuSans-61" x="556.640625"/>
     <use xlink:href="#DejaVuSans-5f" x="617.919922"/>
     <use xlink:href="#DejaVuSans-63" x="667.919922"/>
     <use xlink:href="#DejaVuSans-63" x="722.900391"/>
     <use xlink:href="#DejaVuSans-69" x="777.880859"/>
    </g>
   </g>
   <g id="legend_1">
    <g id="patch_7">
     <path d="M 64.6 302.584 
L 258.804688 302.584 
Q 260.804688 302.584 260.804688 300.584 
L 260.804688 257.549625 
Q 260.804688 255.549625 258.804688 255.549625 
L 64.6 255.549625 
Q 62.6 255.549625 62.6 257.549625 
L 62.6 300.584 
Q 62.6 302.584 64.6 302.584 
z
" style="fill: #ffffff; opacity: 0.8; stroke: #cccccc; stroke-linejoin: miter"/>
    </g>
    <g id="line2d_15">
     <path d="M 66.6 263.648062 
L 76.6 263.648062 
L 86.6 263.648062 
" style="fill: none; stroke: #1f77b4; stroke-opacity: 0.7; stroke-width: 1.5; stroke-linecap: square"/>
    </g>
    <g id="text_13">
     <!-- Positive cumulative predictions -->
     <g transform="translate(94.6 267.148062) scale(0.1 -0.1)">
      <defs>
       <path id="DejaVuSans-50" d="M 1259 4147 
L 1259 2394 
L 2053 2394 
Q 2494 2394 2734 2622 
Q 2975 2850 2975 3272 
Q 2975 3691 2734 3919 
Q 2494 4147 2053 4147 
L 1259 4147 
z
M 628 4666 
L 2053 4666 
Q 2838 4666 3239 4311 
Q 3641 3956 3641 3272 
Q 3641 2581 3239 2228 
Q 2838 1875 2053 1875 
L 1259 1875 
L 1259 0 
L 628 0 
L 628 4666 
z
" transform="scale(0.015625)"/>
       <path id="DejaVuSans-6f" d="M 1959 3097 
Q 1497 3097 1228 2736 
Q 959 2375 959 1747 
Q 959 1119 1226 758 
Q 1494 397 1959 397 
Q 2419 397 2687 759 
Q 2956 1122 2956 1747 
Q 2956 2369 2687 2733 
Q 2419 3097 1959 3097 
z
M 1959 3584 
Q 2709 3584 3137 3096 
Q 3566 2609 3566 1747 
Q 3566 888 3137 398 
Q 2709 -91 1959 -91 
Q 1206 -91 779 398 
Q 353 888 353 1747 
Q 353 2609 779 3096 
Q 1206 3584 1959 3584 
z
" transform="scale(0.015625)"/>
       <path id="DejaVuSans-73" d="M 2834 3397 
L 2834 2853 
Q 2591 2978 2328 3040 
Q 2066 3103 1784 3103 
Q 1356 3103 1142 2972 
Q 928 2841 928 2578 
Q 928 2378 1081 2264 
Q 1234 2150 1697 2047 
L 1894 2003 
Q 2506 1872 2764 1633 
Q 3022 1394 3022 966 
Q 3022 478 2636 193 
Q 2250 -91 1575 -91 
Q 1294 -91 989 -36 
Q 684 19 347 128 
L 347 722 
Q 666 556 975 473 
Q 1284 391 1588 391 
Q 1994 391 2212 530 
Q 2431 669 2431 922 
Q 2431 1156 2273 1281 
Q 2116 1406 1581 1522 
L 1381 1569 
Q 847 1681 609 1914 
Q 372 2147 372 2553 
Q 372 3047 722 3315 
Q 1072 3584 1716 3584 
Q 2034 3584 2315 3537 
Q 2597 3491 2834 3397 
z
" transform="scale(0.015625)"/>
       <path id="DejaVuSans-74" d="M 1172 4494 
L 1172 3500 
L 2356 3500 
L 2356 3053 
L 1172 3053 
L 1172 1153 
Q 1172 725 1289 603 
Q 1406 481 1766 481 
L 2356 481 
L 2356 0 
L 1766 0 
Q 1100 0 847 248 
Q 594 497 594 1153 
L 594 3053 
L 172 3053 
L 172 3500 
L 594 3500 
L 594 4494 
L 1172 4494 
z
" transform="scale(0.015625)"/>
       <path id="DejaVuSans-76" d="M 191 3500 
L 800 3500 
L 1894 563 
L 2988 3500 
L 3597 3500 
L 2284 0 
L 1503 0 
L 191 3500 
z
" transform="scale(0.015625)"/>
       <path id="DejaVuSans-65" d="M 3597 1894 
L 3597 1613 
L 953 1613 
Q 991 1019 1311 708 
Q 1631 397 2203 397 
Q 2534 397 2845 478 
Q 3156 559 3463 722 
L 3463 178 
Q 3153 47 2828 -22 
Q 2503 -91 2169 -91 
Q 1331 -91 842 396 
Q 353 884 353 1716 
Q 353 2575 817 3079 
Q 1281 3584 2069 3584 
Q 2775 3584 3186 3129 
Q 3597 2675 3597 1894 
z
M 3022 2063 
Q 3016 2534 2758 2815 
Q 2500 3097 2075 3097 
Q 1594 3097 1305 2825 
Q 1016 2553 972 2059 
L 3022 2063 
z
" transform="scale(0.015625)"/>
       <path id="DejaVuSans-20" transform="scale(0.015625)"/>
       <path id="DejaVuSans-75" d="M 544 1381 
L 544 3500 
L 1119 3500 
L 1119 1403 
Q 1119 906 1312 657 
Q 1506 409 1894 409 
Q 2359 409 2629 706 
Q 2900 1003 2900 1516 
L 2900 3500 
L 3475 3500 
L 3475 0 
L 2900 0 
L 2900 538 
Q 2691 219 2414 64 
Q 2138 -91 1772 -91 
Q 1169 -91 856 284 
Q 544 659 544 1381 
z
M 1991 3584 
L 1991 3584 
z
" transform="scale(0.015625)"/>
       <path id="DejaVuSans-70" d="M 1159 525 
L 1159 -1331 
L 581 -1331 
L 581 3500 
L 1159 3500 
L 1159 2969 
Q 1341 3281 1617 3432 
Q 1894 3584 2278 3584 
Q 2916 3584 3314 3078 
Q 3713 2572 3713 1747 
Q 3713 922 3314 415 
Q 2916 -91 2278 -91 
Q 1894 -91 1617 61 
Q 1341 213 1159 525 
z
M 3116 1747 
Q 3116 2381 2855 2742 
Q 2594 3103 2138 3103 
Q 1681 3103 1420 2742 
Q 1159 2381 1159 1747 
Q 1159 1113 1420 752 
Q 1681 391 2138 391 
Q 2594 391 2855 752 
Q 3116 1113 3116 1747 
z
" transform="scale(0.015625)"/>
       <path id="DejaVuSans-64" d="M 2906 2969 
L 2906 4863 
L 3481 4863 
L 3481 0 
L 2906 0 
L 2906 525 
Q 2725 213 2448 61 
Q 2172 -91 1784 -91 
Q 1150 -91 751 415 
Q 353 922 353 1747 
Q 353 2572 751 3078 
Q 1150 3584 1784 3584 
Q 2172 3584 2448 3432 
Q 2725 3281 2906 2969 
z
M 947 1747 
Q 947 1113 1208 752 
Q 1469 391 1925 391 
Q 2381 391 2643 752 
Q 2906 1113 2906 1747 
Q 2906 2381 2643 2742 
Q 2381 3103 1925 3103 
Q 1469 3103 1208 2742 
Q 947 2381 947 1747 
z
" transform="scale(0.015625)"/>
      </defs>
      <use xlink:href="#DejaVuSans-50"/>
      <use xlink:href="#DejaVuSans-6f" x="56.677734"/>
      <use xlink:href="#DejaVuSans-73" x="117.859375"/>
      <use xlink:href="#DejaVuSans-69" x="169.958984"/>
      <use xlink:href="#DejaVuSans-74" x="197.742188"/>
      <use xlink:href="#DejaVuSans-69" x="236.951172"/>
      <use xlink:href="#DejaVuSans-76" x="264.734375"/>
      <use xlink:href="#DejaVuSans-65" x="323.914062"/>
      <use xlink:href="#DejaVuSans-20" x="385.4375"/>
      <use xlink:href="#DejaVuSans-63" x="417.224609"/>
      <use xlink:href="#DejaVuSans-75" x="472.205078"/>
      <use xlink:href="#DejaVuSans-6d" x="535.583984"/>
      <use xlink:href="#DejaVuSans-75" x="632.996094"/>
      <use xlink:href="#DejaVuSans-6c" x="696.375"/>
      <use xlink:href="#DejaVuSans-61" x="724.158203"/>
      <use xlink:href="#DejaVuSans-74" x="785.4375"/>
      <use xlink:href="#DejaVuSans-69" x="824.646484"/>
      <use xlink:href="#DejaVuSans-76" x="852.429688"/>
      <use xlink:href="#DejaVuSans-65" x="911.609375"/>
      <use xlink:href="#DejaVuSans-20" x="973.132812"/>
      <use xlink:href="#DejaVuSans-70" x="1004.919922"/>
      <use xlink:href="#DejaVuSans-72" x="1068.396484"/>
      <use xlink:href="#DejaVuSans-65" x="1107.259766"/>
      <use xlink:href="#DejaVuSans-64" x="1168.783203"/>
      <use xlink:href="#DejaVuSans-69" x="1232.259766"/>
      <use xlink:href="#DejaVuSans-63" x="1260.042969"/>
      <use xlink:href="#DejaVuSans-74" x="1315.023438"/>
      <use xlink:href="#DejaVuSans-69" x="1354.232422"/>
      <use xlink:href="#DejaVuSans-6f" x="1382.015625"/>
      <use xlink:href="#DejaVuSans-6e" x="1443.197266"/>
      <use xlink:href="#DejaVuSans-73" x="1506.576172"/>
     </g>
    </g>
    <g id="line2d_16">
     <path d="M 66.6 278.326188 
L 76.6 278.326188 
L 86.6 278.326188 
" style="fill: none; stroke: #ff7f0e; stroke-opacity: 0.7; stroke-width: 1.5; stroke-linecap: square"/>
    </g>
    <g id="text_14">
     <!-- Negative cumulative predictions -->
     <g transform="translate(94.6 281.826188) scale(0.1 -0.1)">
      <defs>
       <path id="DejaVuSans-4e" d="M 628 4666 
L 1478 4666 
L 3547 763 
L 3547 4666 
L 4159 4666 
L 4159 0 
L 3309 0 
L 1241 3903 
L 1241 0 
L 628 0 
L 628 4666 
z
" transform="scale(0.015625)"/>
       <path id="DejaVuSans-67" d="M 2906 1791 
Q 2906 2416 2648 2759 
Q 2391 3103 1925 3103 
Q 1463 3103 1205 2759 
Q 947 2416 947 1791 
Q 947 1169 1205 825 
Q 1463 481 1925 481 
Q 2391 481 2648 825 
Q 2906 1169 2906 1791 
z
M 3481 434 
Q 3481 -459 3084 -895 
Q 2688 -1331 1869 -1331 
Q 1566 -1331 1297 -1286 
Q 1028 -1241 775 -1147 
L 775 -588 
Q 1028 -725 1275 -790 
Q 1522 -856 1778 -856 
Q 2344 -856 2625 -561 
Q 2906 -266 2906 331 
L 2906 616 
Q 2728 306 2450 153 
Q 2172 0 1784 0 
Q 1141 0 747 490 
Q 353 981 353 1791 
Q 353 2603 747 3093 
Q 1141 3584 1784 3584 
Q 2172 3584 2450 3431 
Q 2728 3278 2906 2969 
L 2906 3500 
L 3481 3500 
L 3481 434 
z
" transform="scale(0.015625)"/>
      </defs>
      <use xlink:href="#DejaVuSans-4e"/>
      <use xlink:href="#DejaVuSans-65" x="74.804688"/>
      <use xlink:href="#DejaVuSans-67" x="136.328125"/>
      <use xlink:href="#DejaVuSans-61" x="199.804688"/>
      <use xlink:href="#DejaVuSans-74" x="261.083984"/>
      <use xlink:href="#DejaVuSans-69" x="300.292969"/>
      <use xlink:href="#DejaVuSans-76" x="328.076172"/>
      <use xlink:href="#DejaVuSans-65" x="387.255859"/>
      <use xlink:href="#DejaVuSans-20" x="448.779297"/>
      <use xlink:href="#DejaVuSans-63" x="480.566406"/>
      <use xlink:href="#DejaVuSans-75" x="535.546875"/>
      <use xlink:href="#DejaVuSans-6d" x="598.925781"/>
      <use xlink:href="#DejaVuSans-75" x="696.337891"/>
      <use xlink:href="#DejaVuSans-6c" x="759.716797"/>
      <use xlink:href="#DejaVuSans-61" x="787.5"/>
      <use xlink:href="#DejaVuSans-74" x="848.779297"/>
      <use xlink:href="#DejaVuSans-69" x="887.988281"/>
      <use xlink:href="#DejaVuSans-76" x="915.771484"/>
      <use xlink:href="#DejaVuSans-65" x="974.951172"/>
      <use xlink:href="#DejaVuSans-20" x="1036.474609"/>
      <use xlink:href="#DejaVuSans-70" x="1068.261719"/>
      <use xlink:href="#DejaVuSans-72" x="1131.738281"/>
      <use xlink:href="#DejaVuSans-65" x="1170.601562"/>
      <use xlink:href="#DejaVuSans-64" x="1232.125"/>
      <use xlink:href="#DejaVuSans-69" x="1295.601562"/>
      <use xlink:href="#DejaVuSans-63" x="1323.384766"/>
      <use xlink:href="#DejaVuSans-74" x="1378.365234"/>
      <use xlink:href="#DejaVuSans-69" x="1417.574219"/>
      <use xlink:href="#DejaVuSans-6f" x="1445.357422"/>
      <use xlink:href="#DejaVuSans-6e" x="1506.539062"/>
      <use xlink:href="#DejaVuSans-73" x="1569.917969"/>
     </g>
    </g>
    <g id="line2d_17">
     <path d="M 66.6 293.004312 
L 76.6 293.004312 
L 86.6 293.004312 
" style="fill: none; stroke: #2ca02c; stroke-opacity: 0.7; stroke-width: 1.5; stroke-linecap: square"/>
    </g>
    <g id="text_15">
     <!-- Average cumulative predictions -->
     <g transform="translate(94.6 296.504312) scale(0.1 -0.1)">
      <defs>
       <path id="DejaVuSans-41" d="M 2188 4044 
L 1331 1722 
L 3047 1722 
L 2188 4044 
z
M 1831 4666 
L 2547 4666 
L 4325 0 
L 3669 0 
L 3244 1197 
L 1141 1197 
L 716 0 
L 50 0 
L 1831 4666 
z
" transform="scale(0.015625)"/>
      </defs>
      <use xlink:href="#DejaVuSans-41"/>
      <use xlink:href="#DejaVuSans-76" x="62.533203"/>
      <use xlink:href="#DejaVuSans-65" x="121.712891"/>
      <use xlink:href="#DejaVuSans-72" x="183.236328"/>
      <use xlink:href="#DejaVuSans-61" x="224.349609"/>
      <use xlink:href="#DejaVuSans-67" x="285.628906"/>
      <use xlink:href="#DejaVuSans-65" x="349.105469"/>
      <use xlink:href="#DejaVuSans-20" x="410.628906"/>
      <use xlink:href="#DejaVuSans-63" x="442.416016"/>
      <use xlink:href="#DejaVuSans-75" x="497.396484"/>
      <use xlink:href="#DejaVuSans-6d" x="560.775391"/>
      <use xlink:href="#DejaVuSans-75" x="658.1875"/>
      <use xlink:href="#DejaVuSans-6c" x="721.566406"/>
      <use xlink:href="#DejaVuSans-61" x="749.349609"/>
      <use xlink:href="#DejaVuSans-74" x="810.628906"/>
      <use xlink:href="#DejaVuSans-69" x="849.837891"/>
      <use xlink:href="#DejaVuSans-76" x="877.621094"/>
      <use xlink:href="#DejaVuSans-65" x="936.800781"/>
      <use xlink:href="#DejaVuSans-20" x="998.324219"/>
      <use xlink:href="#DejaVuSans-70" x="1030.111328"/>
      <use xlink:href="#DejaVuSans-72" x="1093.587891"/>
      <use xlink:href="#DejaVuSans-65" x="1132.451172"/>
      <use xlink:href="#DejaVuSans-64" x="1193.974609"/>
      <use xlink:href="#DejaVuSans-69" x="1257.451172"/>
      <use xlink:href="#DejaVuSans-63" x="1285.234375"/>
      <use xlink:href="#DejaVuSans-74" x="1340.214844"/>
      <use xlink:href="#DejaVuSans-69" x="1379.423828"/>
      <use xlink:href="#DejaVuSans-6f" x="1407.207031"/>
      <use xlink:href="#DejaVuSans-6e" x="1468.388672"/>
      <use xlink:href="#DejaVuSans-73" x="1531.767578"/>
     </g>
    </g>
   </g>
  </g>
 </g>
 <defs>
  <clipPath id="p80bee98e63">
   <rect x="57.6" y="41.472" width="357.12" height="266.112"/>
  </clipPath>
 </defs>
</svg>
