<?xml version="1.0" encoding="utf-8" standalone="no"?>
<!DOCTYPE svg PUBLIC "-//W3C//DTD SVG 1.1//EN"
  "http://www.w3.org/Graphics/SVG/1.1/DTD/svg11.dtd">
<svg xmlns:xlink="http://www.w3.org/1999/xlink" width="460.8pt" height="345.6pt" viewBox="0 0 460.8 345.6" xmlns="http://www.w3.org/2000/svg" version="1.1">
 <metadata>
  <rdf:RDF xmlns:dc="http://purl.org/dc/elements/1.1/" xmlns:cc="http://creativecommons.org/ns#" xmlns:rdf="http://www.w3.org/1999/02/22-rdf-syntax-ns#">
   <cc:Work>
    <dc:type rdf:resource="http://purl.org/dc/dcmitype/StillImage"/>
    <dc:date>2024-09-06T07:10:50.792690</dc:date>
    <dc:format>image/svg+xml</dc:format>
    <dc:creator>
     <cc:Agent>
      <dc:title>Matplotlib v3.9.0, https://matplotlib.org/</dc:title>
     </cc:Agent>
    </dc:creator>
   </cc:Work>
  </rdf:RDF>
 </metadata>
 <defs>
  <style type="text/css">*{stroke-linejoin: round; stroke-linecap: butt}</style>
 </defs>
 <g id="figure_1">
  <g id="patch_1">
   <path d="M 0 345.6 
L 460.8 345.6 
L 460.8 0 
L 0 0 
z
" style="fill: #ffffff"/>
  </g>
  <g id="axes_1">
   <g id="patch_2">
    <path d="M 57.6 307.584 
L 414.72 307.584 
L 414.72 41.472 
L 57.6 41.472 
z
" style="fill: #ffffff"/>
   </g>
   <g id="matplotlib.axis_1">
    <g id="xtick_1">
     <g id="line2d_1">
      <defs>
       <path id="m0b614abc8f" d="M 0 0 
L 0 3.5 
" style="stroke: #000000; stroke-width: 0.8"/>
      </defs>
      <g>
       <use xlink:href="#m0b614abc8f" x="73.832727" y="307.584" style="stroke: #000000; stroke-width: 0.8"/>
      </g>
     </g>
     <g id="text_1">
      <!-- 0 -->
      <g transform="translate(70.651477 322.182437) scale(0.1 -0.1)">
       <defs>
        <path id="DejaVuSans-30" d="M 2034 4250 
Q 1547 4250 1301 3770 
Q 1056 3291 1056 2328 
Q 1056 1369 1301 889 
Q 1547 409 2034 409 
Q 2525 409 2770 889 
Q 3016 1369 3016 2328 
Q 3016 3291 2770 3770 
Q 2525 4250 2034 4250 
z
M 2034 4750 
Q 2819 4750 3233 4129 
Q 3647 3509 3647 2328 
Q 3647 1150 3233 529 
Q 2819 -91 2034 -91 
Q 1250 -91 836 529 
Q 422 1150 422 2328 
Q 422 3509 836 4129 
Q 1250 4750 2034 4750 
z
" transform="scale(0.015625)"/>
       </defs>
       <use xlink:href="#DejaVuSans-30"/>
      </g>
     </g>
    </g>
    <g id="xtick_2">
     <g id="line2d_2">
      <g>
       <use xlink:href="#m0b614abc8f" x="149.333784" y="307.584" style="stroke: #000000; stroke-width: 0.8"/>
      </g>
     </g>
     <g id="text_2">
      <!-- 50 -->
      <g transform="translate(142.971284 322.182437) scale(0.1 -0.1)">
       <defs>
        <path id="DejaVuSans-35" d="M 691 4666 
L 3169 4666 
L 3169 4134 
L 1269 4134 
L 1269 2991 
Q 1406 3038 1543 3061 
Q 1681 3084 1819 3084 
Q 2600 3084 3056 2656 
Q 3513 2228 3513 1497 
Q 3513 744 3044 326 
Q 2575 -91 1722 -91 
Q 1428 -91 1123 -41 
Q 819 9 494 109 
L 494 744 
Q 775 591 1075 516 
Q 1375 441 1709 441 
Q 2250 441 2565 725 
Q 2881 1009 2881 1497 
Q 2881 1984 2565 2268 
Q 2250 2553 1709 2553 
Q 1456 2553 1204 2497 
Q 953 2441 691 2322 
L 691 4666 
z
" transform="scale(0.015625)"/>
       </defs>
       <use xlink:href="#DejaVuSans-35"/>
       <use xlink:href="#DejaVuSans-30" x="63.623047"/>
      </g>
     </g>
    </g>
    <g id="xtick_3">
     <g id="line2d_3">
      <g>
       <use xlink:href="#m0b614abc8f" x="224.834841" y="307.584" style="stroke: #000000; stroke-width: 0.8"/>
      </g>
     </g>
     <g id="text_3">
      <!-- 100 -->
      <g transform="translate(215.291091 322.182437) scale(0.1 -0.1)">
       <defs>
        <path id="DejaVuSans-31" d="M 794 531 
L 1825 531 
L 1825 4091 
L 703 3866 
L 703 4441 
L 1819 4666 
L 2450 4666 
L 2450 531 
L 3481 531 
L 3481 0 
L 794 0 
L 794 531 
z
" transform="scale(0.015625)"/>
       </defs>
       <use xlink:href="#DejaVuSans-31"/>
       <use xlink:href="#DejaVuSans-30" x="63.623047"/>
       <use xlink:href="#DejaVuSans-30" x="127.246094"/>
      </g>
     </g>
    </g>
    <g id="xtick_4">
     <g id="line2d_4">
      <g>
       <use xlink:href="#m0b614abc8f" x="300.335899" y="307.584" style="stroke: #000000; stroke-width: 0.8"/>
      </g>
     </g>
     <g id="text_4">
      <!-- 150 -->
      <g transform="translate(290.792149 322.182437) scale(0.1 -0.1)">
       <use xlink:href="#DejaVuSans-31"/>
       <use xlink:href="#DejaVuSans-35" x="63.623047"/>
       <use xlink:href="#DejaVuSans-30" x="127.246094"/>
      </g>
     </g>
    </g>
    <g id="xtick_5">
     <g id="line2d_5">
      <g>
       <use xlink:href="#m0b614abc8f" x="375.836956" y="307.584" style="stroke: #000000; stroke-width: 0.8"/>
      </g>
     </g>
     <g id="text_5">
      <!-- 200 -->
      <g transform="translate(366.293206 322.182437) scale(0.1 -0.1)">
       <defs>
        <path id="DejaVuSans-32" d="M 1228 531 
L 3431 531 
L 3431 0 
L 469 0 
L 469 531 
Q 828 903 1448 1529 
Q 2069 2156 2228 2338 
Q 2531 2678 2651 2914 
Q 2772 3150 2772 3378 
Q 2772 3750 2511 3984 
Q 2250 4219 1831 4219 
Q 1534 4219 1204 4116 
Q 875 4013 500 3803 
L 500 4441 
Q 881 4594 1212 4672 
Q 1544 4750 1819 4750 
Q 2544 4750 2975 4387 
Q 3406 4025 3406 3419 
Q 3406 3131 3298 2873 
Q 3191 2616 2906 2266 
Q 2828 2175 2409 1742 
Q 1991 1309 1228 531 
z
" transform="scale(0.015625)"/>
       </defs>
       <use xlink:href="#DejaVuSans-32"/>
       <use xlink:href="#DejaVuSans-30" x="63.623047"/>
       <use xlink:href="#DejaVuSans-30" x="127.246094"/>
      </g>
     </g>
    </g>
   </g>
   <g id="matplotlib.axis_2">
    <g id="ytick_1">
     <g id="line2d_6">
      <defs>
       <path id="m497c3c4cc0" d="M 0 0 
L -3.5 0 
" style="stroke: #000000; stroke-width: 0.8"/>
      </defs>
      <g>
       <use xlink:href="#m497c3c4cc0" x="57.6" y="295.036975" style="stroke: #000000; stroke-width: 0.8"/>
      </g>
     </g>
     <g id="text_6">
      <!-- −800 -->
      <g transform="translate(23.132812 298.836194) scale(0.1 -0.1)">
       <defs>
        <path id="DejaVuSans-2212" d="M 678 2272 
L 4684 2272 
L 4684 1741 
L 678 1741 
L 678 2272 
z
" transform="scale(0.015625)"/>
        <path id="DejaVuSans-38" d="M 2034 2216 
Q 1584 2216 1326 1975 
Q 1069 1734 1069 1313 
Q 1069 891 1326 650 
Q 1584 409 2034 409 
Q 2484 409 2743 651 
Q 3003 894 3003 1313 
Q 3003 1734 2745 1975 
Q 2488 2216 2034 2216 
z
M 1403 2484 
Q 997 2584 770 2862 
Q 544 3141 544 3541 
Q 544 4100 942 4425 
Q 1341 4750 2034 4750 
Q 2731 4750 3128 4425 
Q 3525 4100 3525 3541 
Q 3525 3141 3298 2862 
Q 3072 2584 2669 2484 
Q 3125 2378 3379 2068 
Q 3634 1759 3634 1313 
Q 3634 634 3220 271 
Q 2806 -91 2034 -91 
Q 1263 -91 848 271 
Q 434 634 434 1313 
Q 434 1759 690 2068 
Q 947 2378 1403 2484 
z
M 1172 3481 
Q 1172 3119 1398 2916 
Q 1625 2713 2034 2713 
Q 2441 2713 2670 2916 
Q 2900 3119 2900 3481 
Q 2900 3844 2670 4047 
Q 2441 4250 2034 4250 
Q 1625 4250 1398 4047 
Q 1172 3844 1172 3481 
z
" transform="scale(0.015625)"/>
       </defs>
       <use xlink:href="#DejaVuSans-2212"/>
       <use xlink:href="#DejaVuSans-38" x="83.789062"/>
       <use xlink:href="#DejaVuSans-30" x="147.412109"/>
       <use xlink:href="#DejaVuSans-30" x="211.035156"/>
      </g>
     </g>
    </g>
    <g id="ytick_2">
     <g id="line2d_7">
      <g>
       <use xlink:href="#m497c3c4cc0" x="57.6" y="241.226324" style="stroke: #000000; stroke-width: 0.8"/>
      </g>
     </g>
     <g id="text_7">
      <!-- −600 -->
      <g transform="translate(23.132812 245.025542) scale(0.1 -0.1)">
       <defs>
        <path id="DejaVuSans-36" d="M 2113 2584 
Q 1688 2584 1439 2293 
Q 1191 2003 1191 1497 
Q 1191 994 1439 701 
Q 1688 409 2113 409 
Q 2538 409 2786 701 
Q 3034 994 3034 1497 
Q 3034 2003 2786 2293 
Q 2538 2584 2113 2584 
z
M 3366 4563 
L 3366 3988 
Q 3128 4100 2886 4159 
Q 2644 4219 2406 4219 
Q 1781 4219 1451 3797 
Q 1122 3375 1075 2522 
Q 1259 2794 1537 2939 
Q 1816 3084 2150 3084 
Q 2853 3084 3261 2657 
Q 3669 2231 3669 1497 
Q 3669 778 3244 343 
Q 2819 -91 2113 -91 
Q 1303 -91 875 529 
Q 447 1150 447 2328 
Q 447 3434 972 4092 
Q 1497 4750 2381 4750 
Q 2619 4750 2861 4703 
Q 3103 4656 3366 4563 
z
" transform="scale(0.015625)"/>
       </defs>
       <use xlink:href="#DejaVuSans-2212"/>
       <use xlink:href="#DejaVuSans-36" x="83.789062"/>
       <use xlink:href="#DejaVuSans-30" x="147.412109"/>
       <use xlink:href="#DejaVuSans-30" x="211.035156"/>
      </g>
     </g>
    </g>
    <g id="ytick_3">
     <g id="line2d_8">
      <g>
       <use xlink:href="#m497c3c4cc0" x="57.6" y="187.415672" style="stroke: #000000; stroke-width: 0.8"/>
      </g>
     </g>
     <g id="text_8">
      <!-- −400 -->
      <g transform="translate(23.132812 191.214891) scale(0.1 -0.1)">
       <defs>
        <path id="DejaVuSans-34" d="M 2419 4116 
L 825 1625 
L 2419 1625 
L 2419 4116 
z
M 2253 4666 
L 3047 4666 
L 3047 1625 
L 3713 1625 
L 3713 1100 
L 3047 1100 
L 3047 0 
L 2419 0 
L 2419 1100 
L 313 1100 
L 313 1709 
L 2253 4666 
z
" transform="scale(0.015625)"/>
       </defs>
       <use xlink:href="#DejaVuSans-2212"/>
       <use xlink:href="#DejaVuSans-34" x="83.789062"/>
       <use xlink:href="#DejaVuSans-30" x="147.412109"/>
       <use xlink:href="#DejaVuSans-30" x="211.035156"/>
      </g>
     </g>
    </g>
    <g id="ytick_4">
     <g id="line2d_9">
      <g>
       <use xlink:href="#m497c3c4cc0" x="57.6" y="133.60502" style="stroke: #000000; stroke-width: 0.8"/>
      </g>
     </g>
     <g id="text_9">
      <!-- −200 -->
      <g transform="translate(23.132812 137.404239) scale(0.1 -0.1)">
       <use xlink:href="#DejaVuSans-2212"/>
       <use xlink:href="#DejaVuSans-32" x="83.789062"/>
       <use xlink:href="#DejaVuSans-30" x="147.412109"/>
       <use xlink:href="#DejaVuSans-30" x="211.035156"/>
      </g>
     </g>
    </g>
    <g id="ytick_5">
     <g id="line2d_10">
      <g>
       <use xlink:href="#m497c3c4cc0" x="57.6" y="79.794368" style="stroke: #000000; stroke-width: 0.8"/>
      </g>
     </g>
     <g id="text_10">
      <!-- 0 -->
      <g transform="translate(44.2375 83.593587) scale(0.1 -0.1)">
       <use xlink:href="#DejaVuSans-30"/>
      </g>
     </g>
    </g>
   </g>
   <g id="line2d_11">
    <path d="M 73.832727 81.650114 
L 75.342748 89.017801 
L 76.85277 87.753531 
L 78.362791 86.330472 
L 79.872812 84.018638 
L 81.382833 80.641932 
L 82.892854 80.516858 
L 84.402875 77.1737 
L 85.912896 83.979506 
L 87.422918 96.897285 
L 88.932939 117.179105 
L 90.44296 107.913388 
L 91.952981 99.524083 
L 93.463002 88.285997 
L 94.973023 91.251747 
L 96.483044 89.283261 
L 97.993066 89.120876 
L 99.503087 93.834296 
L 101.013108 96.103295 
L 102.523129 100.621454 
L 104.03315 98.099282 
L 105.543171 99.527994 
L 107.053192 94.664987 
L 110.073235 86.890468 
L 111.583256 87.101449 
L 113.093277 86.630745 
L 114.603298 82.639844 
L 117.62334 76.066545 
L 119.133362 73.955269 
L 120.643383 70.562018 
L 122.153404 65.133155 
L 123.663425 61.937558 
L 126.683467 56.470756 
L 128.193488 68.15577 
L 129.70351 71.348585 
L 131.213531 64.500463 
L 132.723552 66.615177 
L 134.233573 65.545353 
L 135.743594 63.776269 
L 137.253615 60.537877 
L 138.763636 60.039378 
L 140.273658 58.461773 
L 141.783679 59.459971 
L 143.2937 62.635661 
L 144.803721 66.604581 
L 146.313742 68.661818 
L 147.823763 74.471559 
L 149.333784 78.537196 
L 150.843805 83.885074 
L 152.353827 84.374278 
L 153.863848 81.326817 
L 155.373869 83.186305 
L 156.88389 80.43696 
L 158.393911 74.104212 
L 159.903932 81.034888 
L 161.413953 87.312691 
L 162.923975 89.468295 
L 164.433996 86.010087 
L 165.944017 79.693741 
L 167.454038 74.989288 
L 168.964059 71.063434 
L 170.47408 65.124188 
L 171.984101 67.111965 
L 173.494123 62.823118 
L 175.004144 65.525468 
L 176.514165 63.096624 
L 178.024186 62.072742 
L 179.534207 58.386266 
L 181.044228 59.177933 
L 182.554249 63.441628 
L 184.064271 62.711216 
L 185.574292 68.352091 
L 187.084313 71.132745 
L 188.594334 70.388521 
L 190.104355 65.928249 
L 191.614376 65.028213 
L 193.124397 59.556084 
L 194.634419 54.719763 
L 196.14444 57.993346 
L 197.654461 54.729936 
L 199.164482 60.676348 
L 200.674503 67.559825 
L 202.184524 68.514657 
L 203.694545 75.199656 
L 205.204567 73.365196 
L 206.714588 68.105931 
L 208.224609 64.527711 
L 209.73463 62.452557 
L 211.244651 67.872654 
L 212.754672 76.116663 
L 214.264693 72.5668 
L 215.774715 77.843061 
L 217.284736 75.628057 
L 218.794757 68.555493 
L 220.304778 67.227073 
L 221.814799 61.645161 
L 223.32482 67.754157 
L 224.834841 66.436152 
L 226.344863 67.444291 
L 227.854884 63.539621 
L 229.364905 57.974754 
L 230.874926 56.852324 
L 232.384947 56.083744 
L 233.894968 53.568 
L 235.404989 58.668862 
L 236.915011 78.885037 
L 238.425032 71.53508 
L 239.935053 68.769663 
L 241.445074 66.784561 
L 242.955095 67.345601 
L 244.465116 58.710779 
L 245.975137 74.991265 
L 247.485159 71.363218 
L 248.99518 78.820682 
L 250.505201 69.241957 
L 252.015222 74.682506 
L 253.525243 75.92417 
L 255.035264 91.691691 
L 256.545285 84.258808 
L 258.055307 79.714483 
L 259.565328 73.787151 
L 261.075349 70.510682 
L 262.58537 63.065946 
L 264.095391 65.143645 
L 265.605412 77.823104 
L 267.115433 69.750374 
L 268.625455 68.586922 
L 270.135476 67.236649 
L 271.645497 78.070265 
L 273.155518 75.209653 
L 274.665539 81.761006 
L 276.17556 80.422923 
L 277.685581 85.009206 
L 279.195603 87.555218 
L 280.705624 80.653783 
L 282.215645 88.597695 
L 283.725666 94.517426 
L 285.235687 116.616286 
L 286.745708 128.479615 
L 288.255729 135.337976 
L 289.765751 141.169444 
L 291.275772 138.858141 
L 292.785793 151.380062 
L 294.295814 173.599068 
L 295.805835 166.028385 
L 297.315856 160.53041 
L 298.825877 153.945365 
L 300.335899 146.107066 
L 301.84592 141.602009 
L 303.355941 140.082513 
L 304.865962 147.783404 
L 306.375983 153.858064 
L 307.886004 152.393769 
L 309.396025 148.860869 
L 310.906047 158.101231 
L 312.416068 168.594861 
L 313.926089 166.911685 
L 315.43611 178.321491 
L 316.946131 175.060904 
L 318.456152 172.846028 
L 319.966173 175.118601 
L 321.476195 170.158699 
L 322.986216 165.89381 
L 324.496237 159.747299 
L 326.006258 157.5949 
L 327.516279 158.204918 
L 329.0263 153.735275 
L 330.536321 158.636012 
L 332.046342 186.164052 
L 333.556364 186.976446 
L 335.066385 173.670077 
L 336.576406 166.284621 
L 338.086427 161.591651 
L 339.596448 150.902648 
L 341.106469 147.525578 
L 342.61649 163.329885 
L 344.126512 157.240761 
L 345.636533 157.279394 
L 348.656575 170.500042 
L 350.166596 163.880658 
L 351.676617 171.235543 
L 353.186638 164.641676 
L 354.69666 158.845263 
L 356.206681 154.812105 
L 357.716702 154.248304 
L 359.226723 150.742046 
L 360.736744 152.892591 
L 362.246765 160.068077 
L 363.756786 183.228306 
L 365.266808 195.535065 
L 366.776829 240.708145 
L 368.28685 246.733036 
L 369.796871 229.870732 
L 371.306892 209.567572 
L 372.816913 202.664609 
L 374.326934 192.933198 
L 375.836956 188.050838 
L 377.346977 180.002419 
L 378.856998 187.207513 
L 380.367019 183.421736 
L 381.87704 174.232981 
L 383.387061 167.653657 
L 384.897082 168.659457 
L 386.407104 165.719045 
L 387.917125 159.571292 
L 389.427146 166.884072 
L 390.937167 167.055645 
L 392.447188 165.082649 
L 393.957209 159.245314 
L 395.46723 155.358843 
L 396.977252 172.834118 
L 398.487273 179.360993 
L 398.487273 179.360993 
" clip-path="url(#pca2a68fd7c)" style="fill: none; stroke: #1f77b4; stroke-opacity: 0.7; stroke-width: 1.5; stroke-linecap: square"/>
   </g>
   <g id="line2d_12">
    <path d="M 73.832727 81.629652 
L 75.342748 89.219686 
L 76.85277 88.057518 
L 78.362791 86.623472 
L 79.872812 84.340131 
L 81.382833 80.997984 
L 82.892854 81.169312 
L 84.402875 77.633048 
L 85.912896 84.380129 
L 87.422918 97.543631 
L 88.932939 118.444762 
L 90.44296 110.06847 
L 91.952981 102.386475 
L 93.463002 92.000268 
L 94.973023 96.412057 
L 96.483044 94.576 
L 97.993066 94.219747 
L 99.503087 98.552079 
L 101.013108 101.350144 
L 102.523129 105.974095 
L 104.03315 103.779774 
L 105.543171 105.37208 
L 107.053192 100.895955 
L 110.073235 93.335354 
L 111.583256 94.185175 
L 113.093277 94.187674 
L 114.603298 90.019736 
L 116.113319 87.028675 
L 117.62334 83.460829 
L 119.133362 81.290561 
L 120.643383 78.614837 
L 122.153404 73.388005 
L 123.663425 69.698016 
L 125.173446 67.451411 
L 126.683467 64.905577 
L 128.193488 76.569307 
L 129.70351 79.473565 
L 131.213531 72.254631 
L 132.723552 75.326734 
L 134.233573 74.486742 
L 135.743594 72.836125 
L 137.253615 70.065282 
L 138.763636 70.70193 
L 140.273658 69.487643 
L 141.783679 70.425159 
L 143.2937 73.462055 
L 144.803721 77.13199 
L 146.313742 79.564834 
L 147.823763 86.026026 
L 149.333784 90.911501 
L 150.843805 96.379023 
L 152.353827 98.293486 
L 153.863848 95.279363 
L 155.373869 97.209434 
L 156.88389 94.097382 
L 158.393911 87.88829 
L 159.903932 94.994749 
L 161.413953 101.551839 
L 162.923975 103.083142 
L 164.433996 99.124684 
L 165.944017 92.938585 
L 167.454038 89.543367 
L 168.964059 85.174264 
L 170.47408 79.429906 
L 171.984101 81.457469 
L 173.494123 76.466754 
L 175.004144 79.120481 
L 176.514165 76.223765 
L 178.024186 75.226768 
L 179.534207 71.572781 
L 181.044228 72.904466 
L 182.554249 77.05372 
L 184.064271 76.067818 
L 185.574292 82.464872 
L 187.084313 85.384356 
L 188.594334 83.958543 
L 190.104355 79.690519 
L 191.614376 78.649057 
L 193.124397 73.293981 
L 194.634419 68.503103 
L 196.14444 71.757023 
L 197.654461 68.240386 
L 199.164482 74.20132 
L 200.674503 81.016668 
L 202.184524 81.918605 
L 203.694545 88.439154 
L 205.204567 86.610078 
L 206.714588 81.042701 
L 208.224609 77.705745 
L 209.73463 75.289801 
L 211.244651 80.217508 
L 212.754672 88.202299 
L 214.264693 84.583229 
L 215.774715 89.58249 
L 217.284736 87.48841 
L 218.794757 80.358072 
L 220.304778 79.825294 
L 221.814799 74.583563 
L 223.32482 81.480831 
L 224.834841 80.070091 
L 226.344863 81.607239 
L 227.854884 77.992396 
L 229.364905 72.782932 
L 232.384947 70.622453 
L 233.894968 68.420022 
L 235.404989 73.596921 
L 236.915011 93.745291 
L 238.425032 86.369773 
L 239.935053 84.143393 
L 241.445074 82.351064 
L 242.955095 83.157842 
L 244.465116 74.907632 
L 245.975137 91.162305 
L 247.485159 87.823689 
L 248.99518 95.470794 
L 250.505201 86.129176 
L 252.015222 91.54776 
L 253.525243 93.603565 
L 255.035264 109.687286 
L 256.545285 102.148292 
L 258.055307 98.218362 
L 259.565328 91.977171 
L 261.075349 88.912214 
L 262.58537 81.522318 
L 264.095391 83.622602 
L 265.605412 96.275639 
L 267.115433 89.369748 
L 268.625455 89.17149 
L 270.135476 88.116655 
L 271.645497 98.876436 
L 273.155518 96.033652 
L 274.665539 102.841057 
L 276.17556 101.512055 
L 277.685581 106.184664 
L 279.195603 108.909016 
L 280.705624 101.638267 
L 282.215645 109.51912 
L 283.725666 115.665085 
L 285.235687 136.782704 
L 286.745708 147.719176 
L 288.255729 155.030111 
L 289.765751 161.27666 
L 291.275772 159.041733 
L 292.785793 169.697955 
L 294.295814 194.976674 
L 295.805835 194.428573 
L 297.315856 188.779263 
L 298.825877 182.402367 
L 300.335899 174.602526 
L 301.84592 168.870886 
L 303.355941 167.744537 
L 304.865962 175.523898 
L 306.375983 182.687282 
L 307.886004 180.769367 
L 309.396025 177.859997 
L 310.906047 187.556483 
L 312.416068 199.421704 
L 313.926089 200.385513 
L 315.43611 212.407322 
L 316.946131 212.375282 
L 318.456152 209.733575 
L 319.966173 212.549321 
L 321.476195 206.840916 
L 322.986216 202.561177 
L 324.496237 195.76591 
L 326.006258 192.468601 
L 327.516279 193.300299 
L 329.0263 188.955865 
L 330.536321 194.458373 
L 332.046342 222.071626 
L 333.556364 224.106566 
L 335.066385 212.277142 
L 336.576406 206.603503 
L 338.086427 201.371644 
L 339.596448 189.580508 
L 341.106469 186.606956 
L 342.61649 202.665983 
L 344.126512 197.111616 
L 345.636533 197.741973 
L 347.146554 205.620282 
L 348.656575 211.331474 
L 350.166596 204.45443 
L 351.676617 212.105597 
L 353.186638 206.573189 
L 354.69666 201.844194 
L 356.206681 198.190318 
L 357.716702 196.960719 
L 359.226723 193.27648 
L 360.736744 195.926366 
L 362.246765 203.046982 
L 363.756786 227.047931 
L 365.266808 240.101505 
L 366.776829 285.151692 
L 368.28685 295.488 
L 369.796871 282.651413 
L 371.306892 262.018743 
L 372.816913 253.157475 
L 374.326934 242.368371 
L 375.836956 235.617752 
L 377.346977 228.000419 
L 378.856998 235.335893 
L 380.367019 231.090441 
L 381.87704 222.203881 
L 383.387061 216.524257 
L 384.897082 217.031543 
L 386.407104 214.126566 
L 387.917125 208.113377 
L 389.427146 216.317586 
L 390.937167 216.314376 
L 392.447188 214.322319 
L 393.957209 209.498614 
L 395.46723 205.952819 
L 396.977252 223.43398 
L 398.487273 230.115354 
L 398.487273 230.115354 
" clip-path="url(#pca2a68fd7c)" style="fill: none; stroke: #ff7f0e; stroke-opacity: 0.7; stroke-width: 1.5; stroke-linecap: square"/>
   </g>
   <g id="line2d_13">
    <path d="M 73.832727 81.639883 
L 75.342748 89.118744 
L 76.85277 87.905525 
L 78.362791 86.476972 
L 79.872812 84.179385 
L 81.382833 80.819958 
L 82.892854 80.843085 
L 84.402875 77.403374 
L 85.912896 84.179817 
L 87.422918 97.220458 
L 88.932939 117.811933 
L 90.44296 108.990929 
L 91.952981 100.955279 
L 93.463002 90.143133 
L 94.973023 93.831902 
L 96.483044 91.92963 
L 97.993066 91.670312 
L 99.503087 96.193188 
L 101.013108 98.72672 
L 102.523129 103.297774 
L 104.03315 100.939528 
L 105.543171 102.450037 
L 107.053192 97.780471 
L 110.073235 90.112911 
L 111.583256 90.643312 
L 113.093277 90.40921 
L 114.603298 86.32979 
L 117.62334 79.763687 
L 119.133362 77.622915 
L 120.643383 74.588427 
L 122.153404 69.26058 
L 123.663425 65.817787 
L 126.683467 60.688166 
L 128.193488 72.362539 
L 129.70351 75.411075 
L 131.213531 68.377547 
L 132.723552 70.970956 
L 134.233573 70.016048 
L 135.743594 68.306197 
L 137.253615 65.30158 
L 138.763636 65.370654 
L 140.273658 63.974708 
L 141.783679 64.942565 
L 143.2937 68.048858 
L 144.803721 71.868285 
L 146.313742 74.113326 
L 147.823763 80.248793 
L 149.333784 84.724349 
L 150.843805 90.132049 
L 152.353827 91.333882 
L 153.863848 88.30309 
L 155.373869 90.197869 
L 156.88389 87.267171 
L 158.393911 80.996251 
L 159.903932 88.014819 
L 161.413953 94.432265 
L 162.923975 96.275719 
L 164.433996 92.567386 
L 165.944017 86.316163 
L 168.964059 78.118849 
L 170.47408 72.277047 
L 171.984101 74.284717 
L 173.494123 69.644936 
L 175.004144 72.322975 
L 176.514165 69.660195 
L 178.024186 68.649755 
L 179.534207 64.979523 
L 181.044228 66.041199 
L 182.554249 70.247674 
L 184.064271 69.389517 
L 185.574292 75.408481 
L 187.084313 78.25855 
L 188.594334 77.173532 
L 190.104355 72.809384 
L 191.614376 71.838635 
L 193.124397 66.425032 
L 194.634419 61.611433 
L 196.14444 64.875184 
L 197.654461 61.485161 
L 199.164482 67.438834 
L 200.674503 74.288247 
L 202.184524 75.216631 
L 203.694545 81.819405 
L 205.204567 79.987637 
L 206.714588 74.574316 
L 208.224609 71.116728 
L 209.73463 68.871179 
L 211.244651 74.045081 
L 212.754672 82.159481 
L 214.264693 78.575014 
L 215.774715 83.712775 
L 217.284736 81.558234 
L 218.794757 74.456782 
L 220.304778 73.526184 
L 221.814799 68.114362 
L 223.32482 74.617494 
L 224.834841 73.253121 
L 226.344863 74.525765 
L 227.854884 70.766009 
L 229.364905 65.378843 
L 230.874926 64.290157 
L 232.384947 63.353098 
L 233.894968 60.994011 
L 235.404989 66.132891 
L 236.915011 86.315164 
L 238.425032 78.952426 
L 239.935053 76.456528 
L 241.445074 74.567813 
L 242.955095 75.251722 
L 244.465116 66.809205 
L 245.975137 83.076785 
L 247.485159 79.593453 
L 248.99518 87.145738 
L 250.505201 77.685566 
L 252.015222 83.115133 
L 253.525243 84.763868 
L 255.035264 100.689488 
L 256.545285 93.20355 
L 258.055307 88.966422 
L 259.565328 82.882161 
L 261.075349 79.711448 
L 262.58537 72.294132 
L 264.095391 74.383123 
L 265.605412 87.049372 
L 267.115433 79.560061 
L 268.625455 78.879206 
L 270.135476 77.676652 
L 271.645497 88.47335 
L 273.155518 85.621653 
L 274.665539 92.301031 
L 276.17556 90.967489 
L 277.685581 95.596935 
L 279.195603 98.232117 
L 280.705624 91.146025 
L 282.215645 99.058407 
L 283.725666 105.091256 
L 285.235687 126.699495 
L 286.745708 138.099395 
L 288.255729 145.184043 
L 289.765751 151.223052 
L 291.275772 148.949937 
L 292.785793 160.539009 
L 294.295814 184.287871 
L 295.805835 180.228479 
L 297.315856 174.654837 
L 298.825877 168.173866 
L 300.335899 160.354796 
L 301.84592 155.236447 
L 303.355941 153.913525 
L 304.865962 161.653651 
L 306.375983 168.272673 
L 307.886004 166.581568 
L 309.396025 163.360433 
L 310.906047 172.828857 
L 312.416068 184.008282 
L 313.926089 183.648599 
L 315.43611 195.364406 
L 316.946131 193.718093 
L 318.456152 191.289801 
L 319.966173 193.833961 
L 321.476195 188.499808 
L 322.986216 184.227493 
L 324.496237 177.756604 
L 326.006258 175.031751 
L 327.516279 175.752609 
L 329.0263 171.34557 
L 330.536321 176.547193 
L 332.046342 204.117839 
L 333.556364 205.541506 
L 335.066385 192.973609 
L 336.576406 186.444062 
L 338.086427 181.481647 
L 339.596448 170.241578 
L 341.106469 167.066267 
L 342.61649 182.997934 
L 344.126512 177.176188 
L 345.636533 177.510684 
L 347.146554 184.850126 
L 348.656575 190.915758 
L 350.166596 184.167544 
L 351.676617 191.67057 
L 353.186638 185.607433 
L 354.69666 180.344728 
L 356.206681 176.501211 
L 357.716702 175.604512 
L 359.226723 172.009263 
L 360.736744 174.409479 
L 362.246765 181.55753 
L 363.756786 205.138119 
L 365.266808 217.818285 
L 366.776829 262.929919 
L 368.28685 271.110518 
L 369.796871 256.261072 
L 371.306892 235.793158 
L 372.816913 227.911042 
L 374.326934 217.650785 
L 375.836956 211.834295 
L 377.346977 204.001419 
L 378.856998 211.271703 
L 380.367019 207.256088 
L 381.87704 198.218431 
L 383.387061 192.088957 
L 384.897082 192.8455 
L 386.407104 189.922805 
L 387.917125 183.842335 
L 389.427146 191.600829 
L 390.937167 191.685011 
L 392.447188 189.702484 
L 393.957209 184.371964 
L 395.46723 180.655831 
L 396.977252 198.134049 
L 398.487273 204.738174 
L 398.487273 204.738174 
" clip-path="url(#pca2a68fd7c)" style="fill: none; stroke: #2ca02c; stroke-opacity: 0.7; stroke-width: 1.5; stroke-linecap: square"/>
   </g>
   <g id="patch_3">
    <path d="M 57.6 307.584 
L 57.6 41.472 
" style="fill: none; stroke: #000000; stroke-width: 0.8; stroke-linejoin: miter; stroke-linecap: square"/>
   </g>
   <g id="patch_4">
    <path d="M 414.72 307.584 
L 414.72 41.472 
" style="fill: none; stroke: #000000; stroke-width: 0.8; stroke-linejoin: miter; stroke-linecap: square"/>
   </g>
   <g id="patch_5">
    <path d="M 57.6 307.584 
L 414.72 307.584 
" style="fill: none; stroke: #000000; stroke-width: 0.8; stroke-linejoin: miter; stroke-linecap: square"/>
   </g>
   <g id="patch_6">
    <path d="M 57.6 41.472 
L 414.72 41.472 
" style="fill: none; stroke: #000000; stroke-width: 0.8; stroke-linejoin: miter; stroke-linecap: square"/>
   </g>
   <g id="text_11">
    <!-- 1final_zhangext_pr_cci -->
    <g transform="translate(168.14625 35.472) scale(0.12 -0.12)">
     <defs>
      <path id="DejaVuSans-66" d="M 2375 4863 
L 2375 4384 
L 1825 4384 
Q 1516 4384 1395 4259 
Q 1275 4134 1275 3809 
L 1275 3500 
L 2222 3500 
L 2222 3053 
L 1275 3053 
L 1275 0 
L 697 0 
L 697 3053 
L 147 3053 
L 147 3500 
L 697 3500 
L 697 3744 
Q 697 4328 969 4595 
Q 1241 4863 1831 4863 
L 2375 4863 
z
" transform="scale(0.015625)"/>
      <path id="DejaVuSans-69" d="M 603 3500 
L 1178 3500 
L 1178 0 
L 603 0 
L 603 3500 
z
M 603 4863 
L 1178 4863 
L 1178 4134 
L 603 4134 
L 603 4863 
z
" transform="scale(0.015625)"/>
      <path id="DejaVuSans-6e" d="M 3513 2113 
L 3513 0 
L 2938 0 
L 2938 2094 
Q 2938 2591 2744 2837 
Q 2550 3084 2163 3084 
Q 1697 3084 1428 2787 
Q 1159 2491 1159 1978 
L 1159 0 
L 581 0 
L 581 3500 
L 1159 3500 
L 1159 2956 
Q 1366 3272 1645 3428 
Q 1925 3584 2291 3584 
Q 2894 3584 3203 3211 
Q 3513 2838 3513 2113 
z
" transform="scale(0.015625)"/>
      <path id="DejaVuSans-61" d="M 2194 1759 
Q 1497 1759 1228 1600 
Q 959 1441 959 1056 
Q 959 750 1161 570 
Q 1363 391 1709 391 
Q 2188 391 2477 730 
Q 2766 1069 2766 1631 
L 2766 1759 
L 2194 1759 
z
M 3341 1997 
L 3341 0 
L 2766 0 
L 2766 531 
Q 2569 213 2275 61 
Q 1981 -91 1556 -91 
Q 1019 -91 701 211 
Q 384 513 384 1019 
Q 384 1609 779 1909 
Q 1175 2209 1959 2209 
L 2766 2209 
L 2766 2266 
Q 2766 2663 2505 2880 
Q 2244 3097 1772 3097 
Q 1472 3097 1187 3025 
Q 903 2953 641 2809 
L 641 3341 
Q 956 3463 1253 3523 
Q 1550 3584 1831 3584 
Q 2591 3584 2966 3190 
Q 3341 2797 3341 1997 
z
" transform="scale(0.015625)"/>
      <path id="DejaVuSans-6c" d="M 603 4863 
L 1178 4863 
L 1178 0 
L 603 0 
L 603 4863 
z
" transform="scale(0.015625)"/>
      <path id="DejaVuSans-5f" d="M 3263 -1063 
L 3263 -1509 
L -63 -1509 
L -63 -1063 
L 3263 -1063 
z
" transform="scale(0.015625)"/>
      <path id="DejaVuSans-7a" d="M 353 3500 
L 3084 3500 
L 3084 2975 
L 922 459 
L 3084 459 
L 3084 0 
L 275 0 
L 275 525 
L 2438 3041 
L 353 3041 
L 353 3500 
z
" transform="scale(0.015625)"/>
      <path id="DejaVuSans-68" d="M 3513 2113 
L 3513 0 
L 2938 0 
L 2938 2094 
Q 2938 2591 2744 2837 
Q 2550 3084 2163 3084 
Q 1697 3084 1428 2787 
Q 1159 2491 1159 1978 
L 1159 0 
L 581 0 
L 581 4863 
L 1159 4863 
L 1159 2956 
Q 1366 3272 1645 3428 
Q 1925 3584 2291 3584 
Q 2894 3584 3203 3211 
Q 3513 2838 3513 2113 
z
" transform="scale(0.015625)"/>
      <path id="DejaVuSans-67" d="M 2906 1791 
Q 2906 2416 2648 2759 
Q 2391 3103 1925 3103 
Q 1463 3103 1205 2759 
Q 947 2416 947 1791 
Q 947 1169 1205 825 
Q 1463 481 1925 481 
Q 2391 481 2648 825 
Q 2906 1169 2906 1791 
z
M 3481 434 
Q 3481 -459 3084 -895 
Q 2688 -1331 1869 -1331 
Q 1566 -1331 1297 -1286 
Q 1028 -1241 775 -1147 
L 775 -588 
Q 1028 -725 1275 -790 
Q 1522 -856 1778 -856 
Q 2344 -856 2625 -561 
Q 2906 -266 2906 331 
L 2906 616 
Q 2728 306 2450 153 
Q 2172 0 1784 0 
Q 1141 0 747 490 
Q 353 981 353 1791 
Q 353 2603 747 3093 
Q 1141 3584 1784 3584 
Q 2172 3584 2450 3431 
Q 2728 3278 2906 2969 
L 2906 3500 
L 3481 3500 
L 3481 434 
z
" transform="scale(0.015625)"/>
      <path id="DejaVuSans-65" d="M 3597 1894 
L 3597 1613 
L 953 1613 
Q 991 1019 1311 708 
Q 1631 397 2203 397 
Q 2534 397 2845 478 
Q 3156 559 3463 722 
L 3463 178 
Q 3153 47 2828 -22 
Q 2503 -91 2169 -91 
Q 1331 -91 842 396 
Q 353 884 353 1716 
Q 353 2575 817 3079 
Q 1281 3584 2069 3584 
Q 2775 3584 3186 3129 
Q 3597 2675 3597 1894 
z
M 3022 2063 
Q 3016 2534 2758 2815 
Q 2500 3097 2075 3097 
Q 1594 3097 1305 2825 
Q 1016 2553 972 2059 
L 3022 2063 
z
" transform="scale(0.015625)"/>
      <path id="DejaVuSans-78" d="M 3513 3500 
L 2247 1797 
L 3578 0 
L 2900 0 
L 1881 1375 
L 863 0 
L 184 0 
L 1544 1831 
L 300 3500 
L 978 3500 
L 1906 2253 
L 2834 3500 
L 3513 3500 
z
" transform="scale(0.015625)"/>
      <path id="DejaVuSans-74" d="M 1172 4494 
L 1172 3500 
L 2356 3500 
L 2356 3053 
L 1172 3053 
L 1172 1153 
Q 1172 725 1289 603 
Q 1406 481 1766 481 
L 2356 481 
L 2356 0 
L 1766 0 
Q 1100 0 847 248 
Q 594 497 594 1153 
L 594 3053 
L 172 3053 
L 172 3500 
L 594 3500 
L 594 4494 
L 1172 4494 
z
" transform="scale(0.015625)"/>
      <path id="DejaVuSans-70" d="M 1159 525 
L 1159 -1331 
L 581 -1331 
L 581 3500 
L 1159 3500 
L 1159 2969 
Q 1341 3281 1617 3432 
Q 1894 3584 2278 3584 
Q 2916 3584 3314 3078 
Q 3713 2572 3713 1747 
Q 3713 922 3314 415 
Q 2916 -91 2278 -91 
Q 1894 -91 1617 61 
Q 1341 213 1159 525 
z
M 3116 1747 
Q 3116 2381 2855 2742 
Q 2594 3103 2138 3103 
Q 1681 3103 1420 2742 
Q 1159 2381 1159 1747 
Q 1159 1113 1420 752 
Q 1681 391 2138 391 
Q 2594 391 2855 752 
Q 3116 1113 3116 1747 
z
" transform="scale(0.015625)"/>
      <path id="DejaVuSans-72" d="M 2631 2963 
Q 2534 3019 2420 3045 
Q 2306 3072 2169 3072 
Q 1681 3072 1420 2755 
Q 1159 2438 1159 1844 
L 1159 0 
L 581 0 
L 581 3500 
L 1159 3500 
L 1159 2956 
Q 1341 3275 1631 3429 
Q 1922 3584 2338 3584 
Q 2397 3584 2469 3576 
Q 2541 3569 2628 3553 
L 2631 2963 
z
" transform="scale(0.015625)"/>
      <path id="DejaVuSans-63" d="M 3122 3366 
L 3122 2828 
Q 2878 2963 2633 3030 
Q 2388 3097 2138 3097 
Q 1578 3097 1268 2742 
Q 959 2388 959 1747 
Q 959 1106 1268 751 
Q 1578 397 2138 397 
Q 2388 397 2633 464 
Q 2878 531 3122 666 
L 3122 134 
Q 2881 22 2623 -34 
Q 2366 -91 2075 -91 
Q 1284 -91 818 406 
Q 353 903 353 1747 
Q 353 2603 823 3093 
Q 1294 3584 2113 3584 
Q 2378 3584 2631 3529 
Q 2884 3475 3122 3366 
z
" transform="scale(0.015625)"/>
     </defs>
     <use xlink:href="#DejaVuSans-31"/>
     <use xlink:href="#DejaVuSans-66" x="63.623047"/>
     <use xlink:href="#DejaVuSans-69" x="98.828125"/>
     <use xlink:href="#DejaVuSans-6e" x="126.611328"/>
     <use xlink:href="#DejaVuSans-61" x="189.990234"/>
     <use xlink:href="#DejaVuSans-6c" x="251.269531"/>
     <use xlink:href="#DejaVuSans-5f" x="279.052734"/>
     <use xlink:href="#DejaVuSans-7a" x="329.052734"/>
     <use xlink:href="#DejaVuSans-68" x="381.542969"/>
     <use xlink:href="#DejaVuSans-61" x="444.921875"/>
     <use xlink:href="#DejaVuSans-6e" x="506.201172"/>
     <use xlink:href="#DejaVuSans-67" x="569.580078"/>
     <use xlink:href="#DejaVuSans-65" x="633.056641"/>
     <use xlink:href="#DejaVuSans-78" x="692.830078"/>
     <use xlink:href="#DejaVuSans-74" x="752.009766"/>
     <use xlink:href="#DejaVuSans-5f" x="791.21875"/>
     <use xlink:href="#DejaVuSans-70" x="841.21875"/>
     <use xlink:href="#DejaVuSans-72" x="904.695312"/>
     <use xlink:href="#DejaVuSans-5f" x="945.808594"/>
     <use xlink:href="#DejaVuSans-63" x="995.808594"/>
     <use xlink:href="#DejaVuSans-63" x="1050.789062"/>
     <use xlink:href="#DejaVuSans-69" x="1105.769531"/>
    </g>
   </g>
   <g id="legend_1">
    <g id="patch_7">
     <path d="M 64.6 302.584 
L 258.804688 302.584 
Q 260.804688 302.584 260.804688 300.584 
L 260.804688 257.549625 
Q 260.804688 255.549625 258.804688 255.549625 
L 64.6 255.549625 
Q 62.6 255.549625 62.6 257.549625 
L 62.6 300.584 
Q 62.6 302.584 64.6 302.584 
z
" style="fill: #ffffff; opacity: 0.8; stroke: #cccccc; stroke-linejoin: miter"/>
    </g>
    <g id="line2d_14">
     <path d="M 66.6 263.648062 
L 76.6 263.648062 
L 86.6 263.648062 
" style="fill: none; stroke: #1f77b4; stroke-opacity: 0.7; stroke-width: 1.5; stroke-linecap: square"/>
    </g>
    <g id="text_12">
     <!-- Positive cumulative predictions -->
     <g transform="translate(94.6 267.148062) scale(0.1 -0.1)">
      <defs>
       <path id="DejaVuSans-50" d="M 1259 4147 
L 1259 2394 
L 2053 2394 
Q 2494 2394 2734 2622 
Q 2975 2850 2975 3272 
Q 2975 3691 2734 3919 
Q 2494 4147 2053 4147 
L 1259 4147 
z
M 628 4666 
L 2053 4666 
Q 2838 4666 3239 4311 
Q 3641 3956 3641 3272 
Q 3641 2581 3239 2228 
Q 2838 1875 2053 1875 
L 1259 1875 
L 1259 0 
L 628 0 
L 628 4666 
z
" transform="scale(0.015625)"/>
       <path id="DejaVuSans-6f" d="M 1959 3097 
Q 1497 3097 1228 2736 
Q 959 2375 959 1747 
Q 959 1119 1226 758 
Q 1494 397 1959 397 
Q 2419 397 2687 759 
Q 2956 1122 2956 1747 
Q 2956 2369 2687 2733 
Q 2419 3097 1959 3097 
z
M 1959 3584 
Q 2709 3584 3137 3096 
Q 3566 2609 3566 1747 
Q 3566 888 3137 398 
Q 2709 -91 1959 -91 
Q 1206 -91 779 398 
Q 353 888 353 1747 
Q 353 2609 779 3096 
Q 1206 3584 1959 3584 
z
" transform="scale(0.015625)"/>
       <path id="DejaVuSans-73" d="M 2834 3397 
L 2834 2853 
Q 2591 2978 2328 3040 
Q 2066 3103 1784 3103 
Q 1356 3103 1142 2972 
Q 928 2841 928 2578 
Q 928 2378 1081 2264 
Q 1234 2150 1697 2047 
L 1894 2003 
Q 2506 1872 2764 1633 
Q 3022 1394 3022 966 
Q 3022 478 2636 193 
Q 2250 -91 1575 -91 
Q 1294 -91 989 -36 
Q 684 19 347 128 
L 347 722 
Q 666 556 975 473 
Q 1284 391 1588 391 
Q 1994 391 2212 530 
Q 2431 669 2431 922 
Q 2431 1156 2273 1281 
Q 2116 1406 1581 1522 
L 1381 1569 
Q 847 1681 609 1914 
Q 372 2147 372 2553 
Q 372 3047 722 3315 
Q 1072 3584 1716 3584 
Q 2034 3584 2315 3537 
Q 2597 3491 2834 3397 
z
" transform="scale(0.015625)"/>
       <path id="DejaVuSans-76" d="M 191 3500 
L 800 3500 
L 1894 563 
L 2988 3500 
L 3597 3500 
L 2284 0 
L 1503 0 
L 191 3500 
z
" transform="scale(0.015625)"/>
       <path id="DejaVuSans-20" transform="scale(0.015625)"/>
       <path id="DejaVuSans-75" d="M 544 1381 
L 544 3500 
L 1119 3500 
L 1119 1403 
Q 1119 906 1312 657 
Q 1506 409 1894 409 
Q 2359 409 2629 706 
Q 2900 1003 2900 1516 
L 2900 3500 
L 3475 3500 
L 3475 0 
L 2900 0 
L 2900 538 
Q 2691 219 2414 64 
Q 2138 -91 1772 -91 
Q 1169 -91 856 284 
Q 544 659 544 1381 
z
M 1991 3584 
L 1991 3584 
z
" transform="scale(0.015625)"/>
       <path id="DejaVuSans-6d" d="M 3328 2828 
Q 3544 3216 3844 3400 
Q 4144 3584 4550 3584 
Q 5097 3584 5394 3201 
Q 5691 2819 5691 2113 
L 5691 0 
L 5113 0 
L 5113 2094 
Q 5113 2597 4934 2840 
Q 4756 3084 4391 3084 
Q 3944 3084 3684 2787 
Q 3425 2491 3425 1978 
L 3425 0 
L 2847 0 
L 2847 2094 
Q 2847 2600 2669 2842 
Q 2491 3084 2119 3084 
Q 1678 3084 1418 2786 
Q 1159 2488 1159 1978 
L 1159 0 
L 581 0 
L 581 3500 
L 1159 3500 
L 1159 2956 
Q 1356 3278 1631 3431 
Q 1906 3584 2284 3584 
Q 2666 3584 2933 3390 
Q 3200 3197 3328 2828 
z
" transform="scale(0.015625)"/>
       <path id="DejaVuSans-64" d="M 2906 2969 
L 2906 4863 
L 3481 4863 
L 3481 0 
L 2906 0 
L 2906 525 
Q 2725 213 2448 61 
Q 2172 -91 1784 -91 
Q 1150 -91 751 415 
Q 353 922 353 1747 
Q 353 2572 751 3078 
Q 1150 3584 1784 3584 
Q 2172 3584 2448 3432 
Q 2725 3281 2906 2969 
z
M 947 1747 
Q 947 1113 1208 752 
Q 1469 391 1925 391 
Q 2381 391 2643 752 
Q 2906 1113 2906 1747 
Q 2906 2381 2643 2742 
Q 2381 3103 1925 3103 
Q 1469 3103 1208 2742 
Q 947 2381 947 1747 
z
" transform="scale(0.015625)"/>
      </defs>
      <use xlink:href="#DejaVuSans-50"/>
      <use xlink:href="#DejaVuSans-6f" x="56.677734"/>
      <use xlink:href="#DejaVuSans-73" x="117.859375"/>
      <use xlink:href="#DejaVuSans-69" x="169.958984"/>
      <use xlink:href="#DejaVuSans-74" x="197.742188"/>
      <use xlink:href="#DejaVuSans-69" x="236.951172"/>
      <use xlink:href="#DejaVuSans-76" x="264.734375"/>
      <use xlink:href="#DejaVuSans-65" x="323.914062"/>
      <use xlink:href="#DejaVuSans-20" x="385.4375"/>
      <use xlink:href="#DejaVuSans-63" x="417.224609"/>
      <use xlink:href="#DejaVuSans-75" x="472.205078"/>
      <use xlink:href="#DejaVuSans-6d" x="535.583984"/>
      <use xlink:href="#DejaVuSans-75" x="632.996094"/>
      <use xlink:href="#DejaVuSans-6c" x="696.375"/>
      <use xlink:href="#DejaVuSans-61" x="724.158203"/>
      <use xlink:href="#DejaVuSans-74" x="785.4375"/>
      <use xlink:href="#DejaVuSans-69" x="824.646484"/>
      <use xlink:href="#DejaVuSans-76" x="852.429688"/>
      <use xlink:href="#DejaVuSans-65" x="911.609375"/>
      <use xlink:href="#DejaVuSans-20" x="973.132812"/>
      <use xlink:href="#DejaVuSans-70" x="1004.919922"/>
      <use xlink:href="#DejaVuSans-72" x="1068.396484"/>
      <use xlink:href="#DejaVuSans-65" x="1107.259766"/>
      <use xlink:href="#DejaVuSans-64" x="1168.783203"/>
      <use xlink:href="#DejaVuSans-69" x="1232.259766"/>
      <use xlink:href="#DejaVuSans-63" x="1260.042969"/>
      <use xlink:href="#DejaVuSans-74" x="1315.023438"/>
      <use xlink:href="#DejaVuSans-69" x="1354.232422"/>
      <use xlink:href="#DejaVuSans-6f" x="1382.015625"/>
      <use xlink:href="#DejaVuSans-6e" x="1443.197266"/>
      <use xlink:href="#DejaVuSans-73" x="1506.576172"/>
     </g>
    </g>
    <g id="line2d_15">
     <path d="M 66.6 278.326188 
L 76.6 278.326188 
L 86.6 278.326188 
" style="fill: none; stroke: #ff7f0e; stroke-opacity: 0.7; stroke-width: 1.5; stroke-linecap: square"/>
    </g>
    <g id="text_13">
     <!-- Negative cumulative predictions -->
     <g transform="translate(94.6 281.826188) scale(0.1 -0.1)">
      <defs>
       <path id="DejaVuSans-4e" d="M 628 4666 
L 1478 4666 
L 3547 763 
L 3547 4666 
L 4159 4666 
L 4159 0 
L 3309 0 
L 1241 3903 
L 1241 0 
L 628 0 
L 628 4666 
z
" transform="scale(0.015625)"/>
      </defs>
      <use xlink:href="#DejaVuSans-4e"/>
      <use xlink:href="#DejaVuSans-65" x="74.804688"/>
      <use xlink:href="#DejaVuSans-67" x="136.328125"/>
      <use xlink:href="#DejaVuSans-61" x="199.804688"/>
      <use xlink:href="#DejaVuSans-74" x="261.083984"/>
      <use xlink:href="#DejaVuSans-69" x="300.292969"/>
      <use xlink:href="#DejaVuSans-76" x="328.076172"/>
      <use xlink:href="#DejaVuSans-65" x="387.255859"/>
      <use xlink:href="#DejaVuSans-20" x="448.779297"/>
      <use xlink:href="#DejaVuSans-63" x="480.566406"/>
      <use xlink:href="#DejaVuSans-75" x="535.546875"/>
      <use xlink:href="#DejaVuSans-6d" x="598.925781"/>
      <use xlink:href="#DejaVuSans-75" x="696.337891"/>
      <use xlink:href="#DejaVuSans-6c" x="759.716797"/>
      <use xlink:href="#DejaVuSans-61" x="787.5"/>
      <use xlink:href="#DejaVuSans-74" x="848.779297"/>
      <use xlink:href="#DejaVuSans-69" x="887.988281"/>
      <use xlink:href="#DejaVuSans-76" x="915.771484"/>
      <use xlink:href="#DejaVuSans-65" x="974.951172"/>
      <use xlink:href="#DejaVuSans-20" x="1036.474609"/>
      <use xlink:href="#DejaVuSans-70" x="1068.261719"/>
      <use xlink:href="#DejaVuSans-72" x="1131.738281"/>
      <use xlink:href="#DejaVuSans-65" x="1170.601562"/>
      <use xlink:href="#DejaVuSans-64" x="1232.125"/>
      <use xlink:href="#DejaVuSans-69" x="1295.601562"/>
      <use xlink:href="#DejaVuSans-63" x="1323.384766"/>
      <use xlink:href="#DejaVuSans-74" x="1378.365234"/>
      <use xlink:href="#DejaVuSans-69" x="1417.574219"/>
      <use xlink:href="#DejaVuSans-6f" x="1445.357422"/>
      <use xlink:href="#DejaVuSans-6e" x="1506.539062"/>
      <use xlink:href="#DejaVuSans-73" x="1569.917969"/>
     </g>
    </g>
    <g id="line2d_16">
     <path d="M 66.6 293.004312 
L 76.6 293.004312 
L 86.6 293.004312 
" style="fill: none; stroke: #2ca02c; stroke-opacity: 0.7; stroke-width: 1.5; stroke-linecap: square"/>
    </g>
    <g id="text_14">
     <!-- Average cumulative predictions -->
     <g transform="translate(94.6 296.504312) scale(0.1 -0.1)">
      <defs>
       <path id="DejaVuSans-41" d="M 2188 4044 
L 1331 1722 
L 3047 1722 
L 2188 4044 
z
M 1831 4666 
L 2547 4666 
L 4325 0 
L 3669 0 
L 3244 1197 
L 1141 1197 
L 716 0 
L 50 0 
L 1831 4666 
z
" transform="scale(0.015625)"/>
      </defs>
      <use xlink:href="#DejaVuSans-41"/>
      <use xlink:href="#DejaVuSans-76" x="62.533203"/>
      <use xlink:href="#DejaVuSans-65" x="121.712891"/>
      <use xlink:href="#DejaVuSans-72" x="183.236328"/>
      <use xlink:href="#DejaVuSans-61" x="224.349609"/>
      <use xlink:href="#DejaVuSans-67" x="285.628906"/>
      <use xlink:href="#DejaVuSans-65" x="349.105469"/>
      <use xlink:href="#DejaVuSans-20" x="410.628906"/>
      <use xlink:href="#DejaVuSans-63" x="442.416016"/>
      <use xlink:href="#DejaVuSans-75" x="497.396484"/>
      <use xlink:href="#DejaVuSans-6d" x="560.775391"/>
      <use xlink:href="#DejaVuSans-75" x="658.1875"/>
      <use xlink:href="#DejaVuSans-6c" x="721.566406"/>
      <use xlink:href="#DejaVuSans-61" x="749.349609"/>
      <use xlink:href="#DejaVuSans-74" x="810.628906"/>
      <use xlink:href="#DejaVuSans-69" x="849.837891"/>
      <use xlink:href="#DejaVuSans-76" x="877.621094"/>
      <use xlink:href="#DejaVuSans-65" x="936.800781"/>
      <use xlink:href="#DejaVuSans-20" x="998.324219"/>
      <use xlink:href="#DejaVuSans-70" x="1030.111328"/>
      <use xlink:href="#DejaVuSans-72" x="1093.587891"/>
      <use xlink:href="#DejaVuSans-65" x="1132.451172"/>
      <use xlink:href="#DejaVuSans-64" x="1193.974609"/>
      <use xlink:href="#DejaVuSans-69" x="1257.451172"/>
      <use xlink:href="#DejaVuSans-63" x="1285.234375"/>
      <use xlink:href="#DejaVuSans-74" x="1340.214844"/>
      <use xlink:href="#DejaVuSans-69" x="1379.423828"/>
      <use xlink:href="#DejaVuSans-6f" x="1407.207031"/>
      <use xlink:href="#DejaVuSans-6e" x="1468.388672"/>
      <use xlink:href="#DejaVuSans-73" x="1531.767578"/>
     </g>
    </g>
   </g>
  </g>
 </g>
 <defs>
  <clipPath id="pca2a68fd7c">
   <rect x="57.6" y="41.472" width="357.12" height="266.112"/>
  </clipPath>
 </defs>
</svg>
