<?xml version="1.0" encoding="utf-8" standalone="no"?>
<!DOCTYPE svg PUBLIC "-//W3C//DTD SVG 1.1//EN"
  "http://www.w3.org/Graphics/SVG/1.1/DTD/svg11.dtd">
<svg xmlns:xlink="http://www.w3.org/1999/xlink" width="460.8pt" height="345.6pt" viewBox="0 0 460.8 345.6" xmlns="http://www.w3.org/2000/svg" version="1.1">
 <metadata>
  <rdf:RDF xmlns:dc="http://purl.org/dc/elements/1.1/" xmlns:cc="http://creativecommons.org/ns#" xmlns:rdf="http://www.w3.org/1999/02/22-rdf-syntax-ns#">
   <cc:Work>
    <dc:type rdf:resource="http://purl.org/dc/dcmitype/StillImage"/>
    <dc:date>2024-09-06T07:10:55.983958</dc:date>
    <dc:format>image/svg+xml</dc:format>
    <dc:creator>
     <cc:Agent>
      <dc:title>Matplotlib v3.9.0, https://matplotlib.org/</dc:title>
     </cc:Agent>
    </dc:creator>
   </cc:Work>
  </rdf:RDF>
 </metadata>
 <defs>
  <style type="text/css">*{stroke-linejoin: round; stroke-linecap: butt}</style>
 </defs>
 <g id="figure_1">
  <g id="patch_1">
   <path d="M 0 345.6 
L 460.8 345.6 
L 460.8 0 
L 0 0 
z
" style="fill: #ffffff"/>
  </g>
  <g id="axes_1">
   <g id="patch_2">
    <path d="M 57.6 307.584 
L 414.72 307.584 
L 414.72 41.472 
L 57.6 41.472 
z
" style="fill: #ffffff"/>
   </g>
   <g id="matplotlib.axis_1">
    <g id="xtick_1">
     <g id="line2d_1">
      <defs>
       <path id="mcec5cab646" d="M 0 0 
L 0 3.5 
" style="stroke: #000000; stroke-width: 0.8"/>
      </defs>
      <g>
       <use xlink:href="#mcec5cab646" x="73.832727" y="307.584" style="stroke: #000000; stroke-width: 0.8"/>
      </g>
     </g>
     <g id="text_1">
      <!-- 0 -->
      <g transform="translate(70.651477 322.182437) scale(0.1 -0.1)">
       <defs>
        <path id="DejaVuSans-30" d="M 2034 4250 
Q 1547 4250 1301 3770 
Q 1056 3291 1056 2328 
Q 1056 1369 1301 889 
Q 1547 409 2034 409 
Q 2525 409 2770 889 
Q 3016 1369 3016 2328 
Q 3016 3291 2770 3770 
Q 2525 4250 2034 4250 
z
M 2034 4750 
Q 2819 4750 3233 4129 
Q 3647 3509 3647 2328 
Q 3647 1150 3233 529 
Q 2819 -91 2034 -91 
Q 1250 -91 836 529 
Q 422 1150 422 2328 
Q 422 3509 836 4129 
Q 1250 4750 2034 4750 
z
" transform="scale(0.015625)"/>
       </defs>
       <use xlink:href="#DejaVuSans-30"/>
      </g>
     </g>
    </g>
    <g id="xtick_2">
     <g id="line2d_2">
      <g>
       <use xlink:href="#mcec5cab646" x="149.333784" y="307.584" style="stroke: #000000; stroke-width: 0.8"/>
      </g>
     </g>
     <g id="text_2">
      <!-- 50 -->
      <g transform="translate(142.971284 322.182437) scale(0.1 -0.1)">
       <defs>
        <path id="DejaVuSans-35" d="M 691 4666 
L 3169 4666 
L 3169 4134 
L 1269 4134 
L 1269 2991 
Q 1406 3038 1543 3061 
Q 1681 3084 1819 3084 
Q 2600 3084 3056 2656 
Q 3513 2228 3513 1497 
Q 3513 744 3044 326 
Q 2575 -91 1722 -91 
Q 1428 -91 1123 -41 
Q 819 9 494 109 
L 494 744 
Q 775 591 1075 516 
Q 1375 441 1709 441 
Q 2250 441 2565 725 
Q 2881 1009 2881 1497 
Q 2881 1984 2565 2268 
Q 2250 2553 1709 2553 
Q 1456 2553 1204 2497 
Q 953 2441 691 2322 
L 691 4666 
z
" transform="scale(0.015625)"/>
       </defs>
       <use xlink:href="#DejaVuSans-35"/>
       <use xlink:href="#DejaVuSans-30" x="63.623047"/>
      </g>
     </g>
    </g>
    <g id="xtick_3">
     <g id="line2d_3">
      <g>
       <use xlink:href="#mcec5cab646" x="224.834841" y="307.584" style="stroke: #000000; stroke-width: 0.8"/>
      </g>
     </g>
     <g id="text_3">
      <!-- 100 -->
      <g transform="translate(215.291091 322.182437) scale(0.1 -0.1)">
       <defs>
        <path id="DejaVuSans-31" d="M 794 531 
L 1825 531 
L 1825 4091 
L 703 3866 
L 703 4441 
L 1819 4666 
L 2450 4666 
L 2450 531 
L 3481 531 
L 3481 0 
L 794 0 
L 794 531 
z
" transform="scale(0.015625)"/>
       </defs>
       <use xlink:href="#DejaVuSans-31"/>
       <use xlink:href="#DejaVuSans-30" x="63.623047"/>
       <use xlink:href="#DejaVuSans-30" x="127.246094"/>
      </g>
     </g>
    </g>
    <g id="xtick_4">
     <g id="line2d_4">
      <g>
       <use xlink:href="#mcec5cab646" x="300.335899" y="307.584" style="stroke: #000000; stroke-width: 0.8"/>
      </g>
     </g>
     <g id="text_4">
      <!-- 150 -->
      <g transform="translate(290.792149 322.182437) scale(0.1 -0.1)">
       <use xlink:href="#DejaVuSans-31"/>
       <use xlink:href="#DejaVuSans-35" x="63.623047"/>
       <use xlink:href="#DejaVuSans-30" x="127.246094"/>
      </g>
     </g>
    </g>
    <g id="xtick_5">
     <g id="line2d_5">
      <g>
       <use xlink:href="#mcec5cab646" x="375.836956" y="307.584" style="stroke: #000000; stroke-width: 0.8"/>
      </g>
     </g>
     <g id="text_5">
      <!-- 200 -->
      <g transform="translate(366.293206 322.182437) scale(0.1 -0.1)">
       <defs>
        <path id="DejaVuSans-32" d="M 1228 531 
L 3431 531 
L 3431 0 
L 469 0 
L 469 531 
Q 828 903 1448 1529 
Q 2069 2156 2228 2338 
Q 2531 2678 2651 2914 
Q 2772 3150 2772 3378 
Q 2772 3750 2511 3984 
Q 2250 4219 1831 4219 
Q 1534 4219 1204 4116 
Q 875 4013 500 3803 
L 500 4441 
Q 881 4594 1212 4672 
Q 1544 4750 1819 4750 
Q 2544 4750 2975 4387 
Q 3406 4025 3406 3419 
Q 3406 3131 3298 2873 
Q 3191 2616 2906 2266 
Q 2828 2175 2409 1742 
Q 1991 1309 1228 531 
z
" transform="scale(0.015625)"/>
       </defs>
       <use xlink:href="#DejaVuSans-32"/>
       <use xlink:href="#DejaVuSans-30" x="63.623047"/>
       <use xlink:href="#DejaVuSans-30" x="127.246094"/>
      </g>
     </g>
    </g>
   </g>
   <g id="matplotlib.axis_2">
    <g id="ytick_1">
     <g id="line2d_6">
      <defs>
       <path id="mf2075f7e19" d="M 0 0 
L -3.5 0 
" style="stroke: #000000; stroke-width: 0.8"/>
      </defs>
      <g>
       <use xlink:href="#mf2075f7e19" x="57.6" y="291.398569" style="stroke: #000000; stroke-width: 0.8"/>
      </g>
     </g>
     <g id="text_6">
      <!-- −2500 -->
      <g transform="translate(16.770313 295.197788) scale(0.1 -0.1)">
       <defs>
        <path id="DejaVuSans-2212" d="M 678 2272 
L 4684 2272 
L 4684 1741 
L 678 1741 
L 678 2272 
z
" transform="scale(0.015625)"/>
       </defs>
       <use xlink:href="#DejaVuSans-2212"/>
       <use xlink:href="#DejaVuSans-32" x="83.789062"/>
       <use xlink:href="#DejaVuSans-35" x="147.412109"/>
       <use xlink:href="#DejaVuSans-30" x="211.035156"/>
       <use xlink:href="#DejaVuSans-30" x="274.658203"/>
      </g>
     </g>
    </g>
    <g id="ytick_2">
     <g id="line2d_7">
      <g>
       <use xlink:href="#mf2075f7e19" x="57.6" y="261.184094" style="stroke: #000000; stroke-width: 0.8"/>
      </g>
     </g>
     <g id="text_7">
      <!-- −2000 -->
      <g transform="translate(16.770313 264.983312) scale(0.1 -0.1)">
       <use xlink:href="#DejaVuSans-2212"/>
       <use xlink:href="#DejaVuSans-32" x="83.789062"/>
       <use xlink:href="#DejaVuSans-30" x="147.412109"/>
       <use xlink:href="#DejaVuSans-30" x="211.035156"/>
       <use xlink:href="#DejaVuSans-30" x="274.658203"/>
      </g>
     </g>
    </g>
    <g id="ytick_3">
     <g id="line2d_8">
      <g>
       <use xlink:href="#mf2075f7e19" x="57.6" y="230.969618" style="stroke: #000000; stroke-width: 0.8"/>
      </g>
     </g>
     <g id="text_8">
      <!-- −1500 -->
      <g transform="translate(16.770313 234.768837) scale(0.1 -0.1)">
       <use xlink:href="#DejaVuSans-2212"/>
       <use xlink:href="#DejaVuSans-31" x="83.789062"/>
       <use xlink:href="#DejaVuSans-35" x="147.412109"/>
       <use xlink:href="#DejaVuSans-30" x="211.035156"/>
       <use xlink:href="#DejaVuSans-30" x="274.658203"/>
      </g>
     </g>
    </g>
    <g id="ytick_4">
     <g id="line2d_9">
      <g>
       <use xlink:href="#mf2075f7e19" x="57.6" y="200.755142" style="stroke: #000000; stroke-width: 0.8"/>
      </g>
     </g>
     <g id="text_9">
      <!-- −1000 -->
      <g transform="translate(16.770313 204.554361) scale(0.1 -0.1)">
       <use xlink:href="#DejaVuSans-2212"/>
       <use xlink:href="#DejaVuSans-31" x="83.789062"/>
       <use xlink:href="#DejaVuSans-30" x="147.412109"/>
       <use xlink:href="#DejaVuSans-30" x="211.035156"/>
       <use xlink:href="#DejaVuSans-30" x="274.658203"/>
      </g>
     </g>
    </g>
    <g id="ytick_5">
     <g id="line2d_10">
      <g>
       <use xlink:href="#mf2075f7e19" x="57.6" y="170.540666" style="stroke: #000000; stroke-width: 0.8"/>
      </g>
     </g>
     <g id="text_10">
      <!-- −500 -->
      <g transform="translate(23.132812 174.339885) scale(0.1 -0.1)">
       <use xlink:href="#DejaVuSans-2212"/>
       <use xlink:href="#DejaVuSans-35" x="83.789062"/>
       <use xlink:href="#DejaVuSans-30" x="147.412109"/>
       <use xlink:href="#DejaVuSans-30" x="211.035156"/>
      </g>
     </g>
    </g>
    <g id="ytick_6">
     <g id="line2d_11">
      <g>
       <use xlink:href="#mf2075f7e19" x="57.6" y="140.326191" style="stroke: #000000; stroke-width: 0.8"/>
      </g>
     </g>
     <g id="text_11">
      <!-- 0 -->
      <g transform="translate(44.2375 144.125409) scale(0.1 -0.1)">
       <use xlink:href="#DejaVuSans-30"/>
      </g>
     </g>
    </g>
    <g id="ytick_7">
     <g id="line2d_12">
      <g>
       <use xlink:href="#mf2075f7e19" x="57.6" y="110.111715" style="stroke: #000000; stroke-width: 0.8"/>
      </g>
     </g>
     <g id="text_12">
      <!-- 500 -->
      <g transform="translate(31.5125 113.910934) scale(0.1 -0.1)">
       <use xlink:href="#DejaVuSans-35"/>
       <use xlink:href="#DejaVuSans-30" x="63.623047"/>
       <use xlink:href="#DejaVuSans-30" x="127.246094"/>
      </g>
     </g>
    </g>
    <g id="ytick_8">
     <g id="line2d_13">
      <g>
       <use xlink:href="#mf2075f7e19" x="57.6" y="79.897239" style="stroke: #000000; stroke-width: 0.8"/>
      </g>
     </g>
     <g id="text_13">
      <!-- 1000 -->
      <g transform="translate(25.15 83.696458) scale(0.1 -0.1)">
       <use xlink:href="#DejaVuSans-31"/>
       <use xlink:href="#DejaVuSans-30" x="63.623047"/>
       <use xlink:href="#DejaVuSans-30" x="127.246094"/>
       <use xlink:href="#DejaVuSans-30" x="190.869141"/>
      </g>
     </g>
    </g>
    <g id="ytick_9">
     <g id="line2d_14">
      <g>
       <use xlink:href="#mf2075f7e19" x="57.6" y="49.682763" style="stroke: #000000; stroke-width: 0.8"/>
      </g>
     </g>
     <g id="text_14">
      <!-- 1500 -->
      <g transform="translate(25.15 53.481982) scale(0.1 -0.1)">
       <use xlink:href="#DejaVuSans-31"/>
       <use xlink:href="#DejaVuSans-35" x="63.623047"/>
       <use xlink:href="#DejaVuSans-30" x="127.246094"/>
       <use xlink:href="#DejaVuSans-30" x="190.869141"/>
      </g>
     </g>
    </g>
   </g>
   <g id="line2d_15">
    <path d="M 73.832727 141.423983 
L 75.342748 143.609497 
L 76.85277 143.586836 
L 78.362791 143.742944 
L 79.872812 143.586836 
L 81.382833 143.015085 
L 82.892854 143.102982 
L 84.402875 142.57255 
L 85.912896 144.369304 
L 87.422918 147.462168 
L 88.932939 152.564637 
L 91.952981 150.521132 
L 93.463002 148.406118 
L 94.973023 149.413268 
L 96.483044 149.246199 
L 97.993066 149.704452 
L 99.503087 150.896551 
L 101.013108 151.920288 
L 102.523129 153.431012 
L 104.03315 153.256977 
L 105.543171 154.085716 
L 107.053192 153.472794 
L 108.563214 153.110221 
L 110.073235 152.571853 
L 111.583256 153.032624 
L 113.093277 153.244126 
L 114.603298 152.861409 
L 116.113319 152.653265 
L 117.62334 152.260477 
L 119.133362 152.388049 
L 120.643383 152.229423 
L 122.153404 151.625133 
L 123.663425 151.478377 
L 125.173446 151.458234 
L 126.683467 151.26184 
L 128.193488 154.365691 
L 129.70351 154.86423 
L 131.213531 153.521364 
L 132.723552 154.421755 
L 134.233573 154.6534 
L 135.743594 154.454848 
L 137.253615 154.595848 
L 138.763636 155.312363 
L 143.2937 156.592594 
L 144.803721 157.845487 
L 146.313742 158.739836 
L 147.823763 160.541717 
L 149.333784 162.057934 
L 150.843805 163.742836 
L 152.353827 164.532441 
L 153.863848 163.897937 
L 155.373869 164.717085 
L 156.88389 163.938223 
L 158.393911 162.834021 
L 159.903932 164.761705 
L 161.413953 166.500716 
L 162.923975 167.368049 
L 164.433996 167.350783 
L 165.944017 166.145759 
L 168.964059 165.685348 
L 170.47408 165.026672 
L 171.984101 166.42661 
L 173.494123 165.761891 
L 175.004144 166.746883 
L 176.514165 166.254819 
L 178.024186 166.71005 
L 179.534207 166.664728 
L 181.044228 167.498648 
L 182.554249 169.033543 
L 184.064271 169.221545 
L 185.574292 170.928662 
L 187.084313 171.860995 
L 188.594334 172.114796 
L 190.104355 171.487846 
L 191.614376 171.910849 
L 193.124397 171.331738 
L 194.634419 171.057061 
L 196.14444 172.320575 
L 197.654461 171.971947 
L 200.674503 175.268346 
L 202.184524 175.872636 
L 203.694545 177.839934 
L 205.204567 177.675912 
L 206.714588 176.753364 
L 209.73463 176.528769 
L 211.244651 177.989728 
L 212.754672 180.357444 
L 214.264693 179.805526 
L 215.774715 181.229384 
L 217.284736 181.136963 
L 218.794757 180.06346 
L 220.304778 180.318125 
L 221.814799 179.862161 
L 223.32482 181.814772 
L 224.834841 182.052171 
L 226.344863 182.954289 
L 227.854884 182.440643 
L 229.364905 181.609745 
L 233.894968 182.302819 
L 235.404989 183.914257 
L 236.915011 188.574001 
L 238.425032 186.616103 
L 241.445074 186.069724 
L 242.955095 186.440355 
L 244.465116 184.691944 
L 245.975137 188.950408 
L 247.485159 188.122176 
L 248.99518 190.187424 
L 250.505201 188.121853 
L 252.015222 189.479727 
L 253.525243 190.670177 
L 255.035264 194.913633 
L 256.545285 193.87501 
L 258.055307 193.317204 
L 259.565328 192.210599 
L 261.075349 191.822582 
L 262.58537 190.542243 
L 264.095391 191.180104 
L 265.605412 194.709704 
L 267.115433 193.618429 
L 268.625455 193.465766 
L 270.135476 193.589371 
L 271.645497 196.950731 
L 273.155518 196.494157 
L 274.665539 198.374169 
L 276.17556 198.023681 
L 277.685581 199.370383 
L 279.195603 200.101024 
L 280.705624 198.793561 
L 282.215645 201.35172 
L 283.725666 203.496948 
L 285.235687 208.711967 
L 286.745708 212.003186 
L 289.765751 217.143676 
L 291.275772 217.725304 
L 292.785793 221.039944 
L 294.295814 227.277345 
L 295.805835 227.624812 
L 298.825877 226.126317 
L 300.335899 224.735138 
L 301.84592 224.412422 
L 303.355941 224.652411 
L 306.375983 229.336391 
L 307.886004 230.070835 
L 309.396025 230.03891 
L 312.416068 236.338919 
L 313.926089 237.390383 
L 315.43611 240.798575 
L 316.946131 241.456042 
L 318.456152 241.890741 
L 319.966173 243.311685 
L 321.476195 243.032201 
L 322.986216 242.885777 
L 324.496237 242.523203 
L 326.006258 242.811403 
L 327.516279 243.75021 
L 329.0263 243.673448 
L 330.536321 245.795571 
L 332.046342 252.842258 
L 333.556364 254.128262 
L 335.066385 252.347047 
L 336.576406 251.774562 
L 338.086427 251.567831 
L 339.596448 250.03627 
L 341.106469 250.415806 
L 342.61649 254.87833 
L 344.126512 254.549208 
L 345.636533 255.490628 
L 348.656575 260.596666 
L 350.166596 259.341086 
L 351.676617 261.25467 
L 353.186638 260.360321 
L 354.69666 259.967533 
L 356.206681 258.993116 
L 357.716702 259.373819 
L 359.226723 259.363747 
L 360.736744 260.723399 
L 362.246765 262.753811 
L 363.756786 268.621463 
L 365.266808 272.381194 
L 366.776829 283.993625 
L 368.28685 287.599606 
L 369.796871 285.965744 
L 371.306892 282.417867 
L 372.816913 282.036616 
L 374.326934 280.632202 
L 375.836956 280.405593 
L 377.346977 279.768343 
L 378.856998 282.398081 
L 380.367019 282.102871 
L 381.87704 280.525004 
L 383.387061 280.277987 
L 384.897082 282.367102 
L 386.407104 282.712411 
L 387.917125 282.599106 
L 389.427146 285.995213 
L 390.937167 286.884382 
L 392.447188 287.60953 
L 393.957209 287.543607 
L 395.46723 287.872609 
L 396.977252 293.626788 
L 398.487273 295.488 
L 398.487273 295.488 
" clip-path="url(#p95c8b6e760)" style="fill: none; stroke: #1f77b4; stroke-opacity: 0.7; stroke-width: 1.5; stroke-linecap: square"/>
   </g>
   <g id="line2d_16">
    <path d="M 73.832727 140.61107 
L 75.342748 141.813606 
L 76.85277 141.612176 
L 79.872812 140.622536 
L 81.382833 139.695959 
L 82.892854 139.321299 
L 84.402875 137.991862 
L 85.912896 139.200441 
L 87.422918 141.718314 
L 88.932939 146.255979 
L 90.44296 144.194681 
L 91.952981 142.388526 
L 93.463002 139.11932 
L 94.973023 139.970819 
L 96.483044 139.618317 
L 97.993066 139.601836 
L 101.013108 141.797673 
L 102.523129 142.619507 
L 104.03315 142.581739 
L 105.543171 142.324916 
L 110.073235 139.483892 
L 111.583256 139.322748 
L 113.093277 138.857445 
L 114.603298 137.034505 
L 116.113319 135.772211 
L 117.62334 134.288345 
L 119.133362 133.167662 
L 120.643383 132.28447 
L 122.153404 130.565602 
L 125.173446 128.878627 
L 126.683467 128.11823 
L 128.193488 130.354101 
L 129.70351 130.116414 
L 131.213531 128.27333 
L 132.723552 128.282395 
L 135.743594 126.400369 
L 137.253615 125.127332 
L 138.763636 124.674115 
L 140.273658 123.672002 
L 141.783679 123.565532 
L 143.2937 123.233172 
L 144.803721 123.444674 
L 146.313742 123.329859 
L 147.823763 124.271543 
L 149.333784 124.566974 
L 150.843805 125.341563 
L 152.353827 125.225741 
L 153.863848 124.071548 
L 155.373869 123.95069 
L 156.88389 122.936826 
L 158.393911 121.510703 
L 159.903932 122.741943 
L 161.413953 123.71552 
L 162.923975 123.866593 
L 164.433996 122.706357 
L 165.944017 120.953917 
L 167.454038 119.8144 
L 168.964059 119.052995 
L 170.47408 117.386163 
L 171.984101 117.948153 
L 173.494123 117.107641 
L 175.004144 117.27382 
L 176.514165 116.454672 
L 178.024186 115.86549 
L 179.534207 114.777769 
L 181.044228 114.959056 
L 182.554249 115.332617 
L 184.064271 115.438367 
L 185.574292 116.514758 
L 187.084313 116.967975 
L 188.594334 116.544972 
L 190.104355 115.060147 
L 191.614376 114.307532 
L 193.124397 112.522131 
L 194.634419 111.242136 
L 196.14444 111.562874 
L 197.654461 110.252031 
L 199.164482 111.245751 
L 200.674503 112.750981 
L 202.184524 112.395122 
L 203.694545 113.694344 
L 205.204567 113.216406 
L 206.714588 111.678215 
L 208.224609 110.883342 
L 209.73463 110.274017 
L 211.244651 111.163185 
L 212.754672 112.69657 
L 214.264693 111.38224 
L 215.774715 112.461329 
L 217.284736 111.615323 
L 218.794757 109.474412 
L 220.304778 109.24025 
L 221.814799 107.754705 
L 223.32482 109.178142 
L 224.834841 108.676582 
L 226.344863 108.57299 
L 227.854884 107.539654 
L 229.364905 106.039918 
L 230.874926 105.601808 
L 232.384947 104.985433 
L 233.894968 104.51543 
L 235.404989 105.314951 
L 236.915011 109.345918 
L 238.425032 107.137514 
L 239.935053 106.045145 
L 241.445074 105.374933 
L 242.955095 104.975172 
L 244.465116 103.051517 
L 245.975137 105.775855 
L 247.485159 104.234917 
L 248.99518 104.990279 
L 250.505201 101.565972 
L 252.015222 102.034296 
L 253.525243 101.550865 
L 255.035264 104.185567 
L 256.545285 100.853342 
L 258.055307 99.199099 
L 262.58537 93.710136 
L 264.095391 94.233854 
L 265.605412 97.019079 
L 267.115433 94.503724 
L 268.625455 93.871967 
L 270.135476 92.784246 
L 271.645497 94.959688 
L 273.155518 94.378059 
L 274.665539 95.12335 
L 276.17556 94.655025 
L 277.685581 95.032706 
L 279.195603 95.129393 
L 280.705624 93.447453 
L 282.215645 95.139464 
L 283.725666 96.045898 
L 285.235687 100.426997 
L 286.745708 102.232312 
L 288.255729 103.252051 
L 289.765751 103.832169 
L 291.275772 103.046592 
L 292.785793 104.127599 
L 294.295814 108.319171 
L 295.805835 106.653058 
L 297.315856 103.414067 
L 298.825877 101.008994 
L 300.335899 97.081113 
L 301.84592 95.606646 
L 303.355941 93.888737 
L 304.865962 94.861643 
L 306.375983 95.568662 
L 307.886004 94.969408 
L 309.396025 92.997227 
L 310.906047 94.830239 
L 312.416068 96.10474 
L 313.926089 95.213413 
L 315.43611 97.429141 
L 316.946131 95.925971 
L 318.456152 93.878941 
L 319.966173 93.093364 
L 321.476195 90.615777 
L 322.986216 88.400049 
L 326.006258 84.943513 
L 327.516279 84.67494 
L 329.0263 82.952715 
L 330.536321 83.892721 
L 332.046342 89.627428 
L 333.556364 89.396699 
L 335.066385 85.703819 
L 336.576406 83.261482 
L 338.086427 81.871616 
L 339.596448 78.903044 
L 341.106469 78.22624 
L 342.61649 81.071436 
L 344.126512 78.771359 
L 345.636533 78.372528 
L 347.146554 78.493386 
L 348.656575 79.097676 
L 350.166596 76.583831 
L 351.676617 77.611123 
L 353.186638 75.412439 
L 354.69666 74.344861 
L 356.206681 72.268695 
L 357.716702 71.483119 
L 359.226723 70.415541 
L 360.736744 70.191953 
L 362.246765 70.670349 
L 363.756786 75.206837 
L 365.266808 77.154509 
L 366.776829 86.430353 
L 368.28685 87.477788 
L 369.796871 83.364303 
L 371.306892 77.828081 
L 374.326934 71.7214 
L 375.836956 69.243813 
L 377.346977 67.569068 
L 378.856998 67.287066 
L 381.87704 61.893782 
L 383.387061 60.252129 
L 384.897082 60.508952 
L 386.407104 59.703232 
L 387.917125 56.943644 
L 389.427146 57.840781 
L 390.937167 57.862755 
L 393.957209 55.116492 
L 395.46723 53.568 
L 396.977252 56.968136 
L 398.487273 57.253015 
L 398.487273 57.253015 
" clip-path="url(#p95c8b6e760)" style="fill: none; stroke: #ff7f0e; stroke-opacity: 0.7; stroke-width: 1.5; stroke-linecap: square"/>
   </g>
   <g id="line2d_17">
    <path d="M 73.832727 141.017527 
L 75.342748 142.711552 
L 78.362791 142.403306 
L 79.872812 142.104686 
L 81.382833 141.355522 
L 82.892854 141.212141 
L 84.402875 140.282206 
L 85.912896 141.784873 
L 87.422918 144.590241 
L 88.932939 149.410308 
L 91.952981 146.454829 
L 93.463002 143.762719 
L 94.973023 144.692043 
L 96.483044 144.432258 
L 97.993066 144.653144 
L 102.523129 148.025259 
L 104.03315 147.919358 
L 105.543171 148.205316 
L 107.053192 147.424056 
L 108.563214 146.810702 
L 110.073235 146.027873 
L 111.583256 146.177686 
L 113.093277 146.050785 
L 114.603298 144.947957 
L 116.113319 144.212738 
L 117.62334 143.274411 
L 120.643383 142.256946 
L 122.153404 141.095368 
L 126.683467 139.690035 
L 128.193488 142.359896 
L 129.70351 142.490322 
L 131.213531 140.897347 
L 132.723552 141.352075 
L 134.233573 141.023745 
L 137.253615 139.86159 
L 138.763636 139.993239 
L 140.273658 139.688576 
L 143.2937 139.912883 
L 144.803721 140.64508 
L 146.313742 141.034847 
L 147.823763 142.40663 
L 149.333784 143.312454 
L 150.843805 144.542199 
L 152.353827 144.879091 
L 153.863848 143.984742 
L 155.373869 144.333887 
L 156.88389 143.437525 
L 158.393911 142.172362 
L 159.903932 143.751824 
L 161.413953 145.108118 
L 162.923975 145.617321 
L 164.433996 145.02857 
L 165.944017 143.549838 
L 167.454038 142.880803 
L 168.964059 142.369172 
L 170.47408 141.206418 
L 171.984101 142.187381 
L 173.494123 141.434766 
L 175.004144 142.010352 
L 176.514165 141.354746 
L 178.024186 141.28777 
L 179.534207 140.721249 
L 181.044228 141.228852 
L 182.554249 142.18308 
L 184.064271 142.329956 
L 185.574292 143.72171 
L 187.084313 144.414485 
L 188.594334 144.329884 
L 190.104355 143.273996 
L 191.614376 143.10919 
L 193.124397 141.926934 
L 194.634419 141.149598 
L 196.14444 141.941725 
L 197.654461 141.111989 
L 199.164482 142.417086 
L 200.674503 144.009664 
L 202.184524 144.133879 
L 203.694545 145.767139 
L 205.204567 145.446159 
L 206.714588 144.215789 
L 209.73463 143.401393 
L 211.244651 144.576457 
L 212.754672 146.527007 
L 214.264693 145.593883 
L 215.774715 146.845356 
L 217.284736 146.376143 
L 218.794757 144.768936 
L 220.304778 144.779188 
L 221.814799 143.808433 
L 223.32482 145.496457 
L 224.834841 145.364377 
L 226.344863 145.763639 
L 227.854884 144.990149 
L 229.364905 143.824831 
L 233.894968 143.409124 
L 235.404989 144.614604 
L 236.915011 148.959959 
L 238.425032 146.876808 
L 239.935053 146.189623 
L 241.445074 145.722329 
L 242.955095 145.707764 
L 244.465116 143.871731 
L 245.975137 147.363132 
L 247.485159 146.178547 
L 248.99518 147.588852 
L 250.505201 144.843912 
L 252.015222 145.757012 
L 253.525243 146.110521 
L 255.035264 149.5496 
L 256.545285 147.364176 
L 258.055307 146.258152 
L 259.565328 144.780286 
L 261.075349 143.715093 
L 262.58537 142.12619 
L 264.095391 142.706979 
L 265.605412 145.864392 
L 267.115433 144.061076 
L 270.135476 143.186808 
L 271.645497 145.95521 
L 273.155518 145.436108 
L 274.665539 146.748759 
L 276.17556 146.339353 
L 277.685581 147.201545 
L 279.195603 147.615208 
L 280.705624 146.120507 
L 282.215645 148.245592 
L 283.725666 149.771423 
L 285.235687 154.569482 
L 286.745708 157.117749 
L 288.255729 158.941948 
L 289.765751 160.487922 
L 291.275772 160.385948 
L 292.785793 162.583772 
L 294.295814 167.798258 
L 295.805835 167.138935 
L 297.315856 165.160462 
L 298.825877 163.567656 
L 300.335899 160.908125 
L 301.84592 160.009534 
L 303.355941 159.270574 
L 306.375983 162.452526 
L 307.886004 162.520122 
L 309.396025 161.518069 
L 310.906047 164.026645 
L 312.416068 166.22183 
L 313.926089 166.301898 
L 315.43611 169.113858 
L 316.946131 168.691007 
L 318.456152 167.884841 
L 319.966173 168.202524 
L 321.476195 166.823989 
L 324.496237 164.570299 
L 326.006258 163.877458 
L 327.516279 164.212575 
L 329.0263 163.313082 
L 330.536321 164.844146 
L 332.046342 171.234843 
L 333.556364 171.762481 
L 335.066385 169.025433 
L 336.576406 167.518022 
L 338.086427 166.719724 
L 339.596448 164.469657 
L 341.106469 164.321023 
L 342.61649 167.974883 
L 344.126512 166.660284 
L 345.636533 166.931578 
L 348.656575 169.847171 
L 350.166596 167.962459 
L 351.676617 169.432897 
L 353.186638 167.88638 
L 354.69666 167.156197 
L 356.206681 165.630906 
L 357.716702 165.428469 
L 359.226723 164.889644 
L 360.736744 165.457676 
L 362.246765 166.71208 
L 363.756786 171.91415 
L 365.266808 174.767851 
L 366.776829 185.211989 
L 368.28685 187.538697 
L 369.796871 184.665023 
L 371.306892 180.122974 
L 372.816913 178.411553 
L 374.326934 176.176801 
L 375.836956 174.824703 
L 377.346977 173.668705 
L 378.856998 174.842573 
L 380.367019 173.395746 
L 381.87704 171.209393 
L 383.387061 170.265058 
L 384.897082 171.438027 
L 386.407104 171.207822 
L 387.917125 169.771375 
L 389.427146 171.917997 
L 390.937167 172.373569 
L 392.447188 172.076072 
L 393.957209 171.33005 
L 395.46723 170.720305 
L 396.977252 175.297462 
L 398.487273 176.370508 
L 398.487273 176.370508 
" clip-path="url(#p95c8b6e760)" style="fill: none; stroke: #2ca02c; stroke-opacity: 0.7; stroke-width: 1.5; stroke-linecap: square"/>
   </g>
   <g id="patch_3">
    <path d="M 57.6 307.584 
L 57.6 41.472 
" style="fill: none; stroke: #000000; stroke-width: 0.8; stroke-linejoin: miter; stroke-linecap: square"/>
   </g>
   <g id="patch_4">
    <path d="M 414.72 307.584 
L 414.72 41.472 
" style="fill: none; stroke: #000000; stroke-width: 0.8; stroke-linejoin: miter; stroke-linecap: square"/>
   </g>
   <g id="patch_5">
    <path d="M 57.6 307.584 
L 414.72 307.584 
" style="fill: none; stroke: #000000; stroke-width: 0.8; stroke-linejoin: miter; stroke-linecap: square"/>
   </g>
   <g id="patch_6">
    <path d="M 57.6 41.472 
L 414.72 41.472 
" style="fill: none; stroke: #000000; stroke-width: 0.8; stroke-linejoin: miter; stroke-linecap: square"/>
   </g>
   <g id="text_15">
    <!-- 1final_naive_aa_cci -->
    <g transform="translate(178.409063 35.472) scale(0.12 -0.12)">
     <defs>
      <path id="DejaVuSans-66" d="M 2375 4863 
L 2375 4384 
L 1825 4384 
Q 1516 4384 1395 4259 
Q 1275 4134 1275 3809 
L 1275 3500 
L 2222 3500 
L 2222 3053 
L 1275 3053 
L 1275 0 
L 697 0 
L 697 3053 
L 147 3053 
L 147 3500 
L 697 3500 
L 697 3744 
Q 697 4328 969 4595 
Q 1241 4863 1831 4863 
L 2375 4863 
z
" transform="scale(0.015625)"/>
      <path id="DejaVuSans-69" d="M 603 3500 
L 1178 3500 
L 1178 0 
L 603 0 
L 603 3500 
z
M 603 4863 
L 1178 4863 
L 1178 4134 
L 603 4134 
L 603 4863 
z
" transform="scale(0.015625)"/>
      <path id="DejaVuSans-6e" d="M 3513 2113 
L 3513 0 
L 2938 0 
L 2938 2094 
Q 2938 2591 2744 2837 
Q 2550 3084 2163 3084 
Q 1697 3084 1428 2787 
Q 1159 2491 1159 1978 
L 1159 0 
L 581 0 
L 581 3500 
L 1159 3500 
L 1159 2956 
Q 1366 3272 1645 3428 
Q 1925 3584 2291 3584 
Q 2894 3584 3203 3211 
Q 3513 2838 3513 2113 
z
" transform="scale(0.015625)"/>
      <path id="DejaVuSans-61" d="M 2194 1759 
Q 1497 1759 1228 1600 
Q 959 1441 959 1056 
Q 959 750 1161 570 
Q 1363 391 1709 391 
Q 2188 391 2477 730 
Q 2766 1069 2766 1631 
L 2766 1759 
L 2194 1759 
z
M 3341 1997 
L 3341 0 
L 2766 0 
L 2766 531 
Q 2569 213 2275 61 
Q 1981 -91 1556 -91 
Q 1019 -91 701 211 
Q 384 513 384 1019 
Q 384 1609 779 1909 
Q 1175 2209 1959 2209 
L 2766 2209 
L 2766 2266 
Q 2766 2663 2505 2880 
Q 2244 3097 1772 3097 
Q 1472 3097 1187 3025 
Q 903 2953 641 2809 
L 641 3341 
Q 956 3463 1253 3523 
Q 1550 3584 1831 3584 
Q 2591 3584 2966 3190 
Q 3341 2797 3341 1997 
z
" transform="scale(0.015625)"/>
      <path id="DejaVuSans-6c" d="M 603 4863 
L 1178 4863 
L 1178 0 
L 603 0 
L 603 4863 
z
" transform="scale(0.015625)"/>
      <path id="DejaVuSans-5f" d="M 3263 -1063 
L 3263 -1509 
L -63 -1509 
L -63 -1063 
L 3263 -1063 
z
" transform="scale(0.015625)"/>
      <path id="DejaVuSans-76" d="M 191 3500 
L 800 3500 
L 1894 563 
L 2988 3500 
L 3597 3500 
L 2284 0 
L 1503 0 
L 191 3500 
z
" transform="scale(0.015625)"/>
      <path id="DejaVuSans-65" d="M 3597 1894 
L 3597 1613 
L 953 1613 
Q 991 1019 1311 708 
Q 1631 397 2203 397 
Q 2534 397 2845 478 
Q 3156 559 3463 722 
L 3463 178 
Q 3153 47 2828 -22 
Q 2503 -91 2169 -91 
Q 1331 -91 842 396 
Q 353 884 353 1716 
Q 353 2575 817 3079 
Q 1281 3584 2069 3584 
Q 2775 3584 3186 3129 
Q 3597 2675 3597 1894 
z
M 3022 2063 
Q 3016 2534 2758 2815 
Q 2500 3097 2075 3097 
Q 1594 3097 1305 2825 
Q 1016 2553 972 2059 
L 3022 2063 
z
" transform="scale(0.015625)"/>
      <path id="DejaVuSans-63" d="M 3122 3366 
L 3122 2828 
Q 2878 2963 2633 3030 
Q 2388 3097 2138 3097 
Q 1578 3097 1268 2742 
Q 959 2388 959 1747 
Q 959 1106 1268 751 
Q 1578 397 2138 397 
Q 2388 397 2633 464 
Q 2878 531 3122 666 
L 3122 134 
Q 2881 22 2623 -34 
Q 2366 -91 2075 -91 
Q 1284 -91 818 406 
Q 353 903 353 1747 
Q 353 2603 823 3093 
Q 1294 3584 2113 3584 
Q 2378 3584 2631 3529 
Q 2884 3475 3122 3366 
z
" transform="scale(0.015625)"/>
     </defs>
     <use xlink:href="#DejaVuSans-31"/>
     <use xlink:href="#DejaVuSans-66" x="63.623047"/>
     <use xlink:href="#DejaVuSans-69" x="98.828125"/>
     <use xlink:href="#DejaVuSans-6e" x="126.611328"/>
     <use xlink:href="#DejaVuSans-61" x="189.990234"/>
     <use xlink:href="#DejaVuSans-6c" x="251.269531"/>
     <use xlink:href="#DejaVuSans-5f" x="279.052734"/>
     <use xlink:href="#DejaVuSans-6e" x="329.052734"/>
     <use xlink:href="#DejaVuSans-61" x="392.431641"/>
     <use xlink:href="#DejaVuSans-69" x="453.710938"/>
     <use xlink:href="#DejaVuSans-76" x="481.494141"/>
     <use xlink:href="#DejaVuSans-65" x="540.673828"/>
     <use xlink:href="#DejaVuSans-5f" x="602.197266"/>
     <use xlink:href="#DejaVuSans-61" x="652.197266"/>
     <use xlink:href="#DejaVuSans-61" x="713.476562"/>
     <use xlink:href="#DejaVuSans-5f" x="774.755859"/>
     <use xlink:href="#DejaVuSans-63" x="824.755859"/>
     <use xlink:href="#DejaVuSans-63" x="879.736328"/>
     <use xlink:href="#DejaVuSans-69" x="934.716797"/>
    </g>
   </g>
   <g id="legend_1">
    <g id="patch_7">
     <path d="M 64.6 93.506375 
L 258.804688 93.506375 
Q 260.804688 93.506375 260.804688 91.506375 
L 260.804688 48.472 
Q 260.804688 46.472 258.804688 46.472 
L 64.6 46.472 
Q 62.6 46.472 62.6 48.472 
L 62.6 91.506375 
Q 62.6 93.506375 64.6 93.506375 
z
" style="fill: #ffffff; opacity: 0.8; stroke: #cccccc; stroke-linejoin: miter"/>
    </g>
    <g id="line2d_18">
     <path d="M 66.6 54.570438 
L 76.6 54.570438 
L 86.6 54.570438 
" style="fill: none; stroke: #1f77b4; stroke-opacity: 0.7; stroke-width: 1.5; stroke-linecap: square"/>
    </g>
    <g id="text_16">
     <!-- Positive cumulative predictions -->
     <g transform="translate(94.6 58.070438) scale(0.1 -0.1)">
      <defs>
       <path id="DejaVuSans-50" d="M 1259 4147 
L 1259 2394 
L 2053 2394 
Q 2494 2394 2734 2622 
Q 2975 2850 2975 3272 
Q 2975 3691 2734 3919 
Q 2494 4147 2053 4147 
L 1259 4147 
z
M 628 4666 
L 2053 4666 
Q 2838 4666 3239 4311 
Q 3641 3956 3641 3272 
Q 3641 2581 3239 2228 
Q 2838 1875 2053 1875 
L 1259 1875 
L 1259 0 
L 628 0 
L 628 4666 
z
" transform="scale(0.015625)"/>
       <path id="DejaVuSans-6f" d="M 1959 3097 
Q 1497 3097 1228 2736 
Q 959 2375 959 1747 
Q 959 1119 1226 758 
Q 1494 397 1959 397 
Q 2419 397 2687 759 
Q 2956 1122 2956 1747 
Q 2956 2369 2687 2733 
Q 2419 3097 1959 3097 
z
M 1959 3584 
Q 2709 3584 3137 3096 
Q 3566 2609 3566 1747 
Q 3566 888 3137 398 
Q 2709 -91 1959 -91 
Q 1206 -91 779 398 
Q 353 888 353 1747 
Q 353 2609 779 3096 
Q 1206 3584 1959 3584 
z
" transform="scale(0.015625)"/>
       <path id="DejaVuSans-73" d="M 2834 3397 
L 2834 2853 
Q 2591 2978 2328 3040 
Q 2066 3103 1784 3103 
Q 1356 3103 1142 2972 
Q 928 2841 928 2578 
Q 928 2378 1081 2264 
Q 1234 2150 1697 2047 
L 1894 2003 
Q 2506 1872 2764 1633 
Q 3022 1394 3022 966 
Q 3022 478 2636 193 
Q 2250 -91 1575 -91 
Q 1294 -91 989 -36 
Q 684 19 347 128 
L 347 722 
Q 666 556 975 473 
Q 1284 391 1588 391 
Q 1994 391 2212 530 
Q 2431 669 2431 922 
Q 2431 1156 2273 1281 
Q 2116 1406 1581 1522 
L 1381 1569 
Q 847 1681 609 1914 
Q 372 2147 372 2553 
Q 372 3047 722 3315 
Q 1072 3584 1716 3584 
Q 2034 3584 2315 3537 
Q 2597 3491 2834 3397 
z
" transform="scale(0.015625)"/>
       <path id="DejaVuSans-74" d="M 1172 4494 
L 1172 3500 
L 2356 3500 
L 2356 3053 
L 1172 3053 
L 1172 1153 
Q 1172 725 1289 603 
Q 1406 481 1766 481 
L 2356 481 
L 2356 0 
L 1766 0 
Q 1100 0 847 248 
Q 594 497 594 1153 
L 594 3053 
L 172 3053 
L 172 3500 
L 594 3500 
L 594 4494 
L 1172 4494 
z
" transform="scale(0.015625)"/>
       <path id="DejaVuSans-20" transform="scale(0.015625)"/>
       <path id="DejaVuSans-75" d="M 544 1381 
L 544 3500 
L 1119 3500 
L 1119 1403 
Q 1119 906 1312 657 
Q 1506 409 1894 409 
Q 2359 409 2629 706 
Q 2900 1003 2900 1516 
L 2900 3500 
L 3475 3500 
L 3475 0 
L 2900 0 
L 2900 538 
Q 2691 219 2414 64 
Q 2138 -91 1772 -91 
Q 1169 -91 856 284 
Q 544 659 544 1381 
z
M 1991 3584 
L 1991 3584 
z
" transform="scale(0.015625)"/>
       <path id="DejaVuSans-6d" d="M 3328 2828 
Q 3544 3216 3844 3400 
Q 4144 3584 4550 3584 
Q 5097 3584 5394 3201 
Q 5691 2819 5691 2113 
L 5691 0 
L 5113 0 
L 5113 2094 
Q 5113 2597 4934 2840 
Q 4756 3084 4391 3084 
Q 3944 3084 3684 2787 
Q 3425 2491 3425 1978 
L 3425 0 
L 2847 0 
L 2847 2094 
Q 2847 2600 2669 2842 
Q 2491 3084 2119 3084 
Q 1678 3084 1418 2786 
Q 1159 2488 1159 1978 
L 1159 0 
L 581 0 
L 581 3500 
L 1159 3500 
L 1159 2956 
Q 1356 3278 1631 3431 
Q 1906 3584 2284 3584 
Q 2666 3584 2933 3390 
Q 3200 3197 3328 2828 
z
" transform="scale(0.015625)"/>
       <path id="DejaVuSans-70" d="M 1159 525 
L 1159 -1331 
L 581 -1331 
L 581 3500 
L 1159 3500 
L 1159 2969 
Q 1341 3281 1617 3432 
Q 1894 3584 2278 3584 
Q 2916 3584 3314 3078 
Q 3713 2572 3713 1747 
Q 3713 922 3314 415 
Q 2916 -91 2278 -91 
Q 1894 -91 1617 61 
Q 1341 213 1159 525 
z
M 3116 1747 
Q 3116 2381 2855 2742 
Q 2594 3103 2138 3103 
Q 1681 3103 1420 2742 
Q 1159 2381 1159 1747 
Q 1159 1113 1420 752 
Q 1681 391 2138 391 
Q 2594 391 2855 752 
Q 3116 1113 3116 1747 
z
" transform="scale(0.015625)"/>
       <path id="DejaVuSans-72" d="M 2631 2963 
Q 2534 3019 2420 3045 
Q 2306 3072 2169 3072 
Q 1681 3072 1420 2755 
Q 1159 2438 1159 1844 
L 1159 0 
L 581 0 
L 581 3500 
L 1159 3500 
L 1159 2956 
Q 1341 3275 1631 3429 
Q 1922 3584 2338 3584 
Q 2397 3584 2469 3576 
Q 2541 3569 2628 3553 
L 2631 2963 
z
" transform="scale(0.015625)"/>
       <path id="DejaVuSans-64" d="M 2906 2969 
L 2906 4863 
L 3481 4863 
L 3481 0 
L 2906 0 
L 2906 525 
Q 2725 213 2448 61 
Q 2172 -91 1784 -91 
Q 1150 -91 751 415 
Q 353 922 353 1747 
Q 353 2572 751 3078 
Q 1150 3584 1784 3584 
Q 2172 3584 2448 3432 
Q 2725 3281 2906 2969 
z
M 947 1747 
Q 947 1113 1208 752 
Q 1469 391 1925 391 
Q 2381 391 2643 752 
Q 2906 1113 2906 1747 
Q 2906 2381 2643 2742 
Q 2381 3103 1925 3103 
Q 1469 3103 1208 2742 
Q 947 2381 947 1747 
z
" transform="scale(0.015625)"/>
      </defs>
      <use xlink:href="#DejaVuSans-50"/>
      <use xlink:href="#DejaVuSans-6f" x="56.677734"/>
      <use xlink:href="#DejaVuSans-73" x="117.859375"/>
      <use xlink:href="#DejaVuSans-69" x="169.958984"/>
      <use xlink:href="#DejaVuSans-74" x="197.742188"/>
      <use xlink:href="#DejaVuSans-69" x="236.951172"/>
      <use xlink:href="#DejaVuSans-76" x="264.734375"/>
      <use xlink:href="#DejaVuSans-65" x="323.914062"/>
      <use xlink:href="#DejaVuSans-20" x="385.4375"/>
      <use xlink:href="#DejaVuSans-63" x="417.224609"/>
      <use xlink:href="#DejaVuSans-75" x="472.205078"/>
      <use xlink:href="#DejaVuSans-6d" x="535.583984"/>
      <use xlink:href="#DejaVuSans-75" x="632.996094"/>
      <use xlink:href="#DejaVuSans-6c" x="696.375"/>
      <use xlink:href="#DejaVuSans-61" x="724.158203"/>
      <use xlink:href="#DejaVuSans-74" x="785.4375"/>
      <use xlink:href="#DejaVuSans-69" x="824.646484"/>
      <use xlink:href="#DejaVuSans-76" x="852.429688"/>
      <use xlink:href="#DejaVuSans-65" x="911.609375"/>
      <use xlink:href="#DejaVuSans-20" x="973.132812"/>
      <use xlink:href="#DejaVuSans-70" x="1004.919922"/>
      <use xlink:href="#DejaVuSans-72" x="1068.396484"/>
      <use xlink:href="#DejaVuSans-65" x="1107.259766"/>
      <use xlink:href="#DejaVuSans-64" x="1168.783203"/>
      <use xlink:href="#DejaVuSans-69" x="1232.259766"/>
      <use xlink:href="#DejaVuSans-63" x="1260.042969"/>
      <use xlink:href="#DejaVuSans-74" x="1315.023438"/>
      <use xlink:href="#DejaVuSans-69" x="1354.232422"/>
      <use xlink:href="#DejaVuSans-6f" x="1382.015625"/>
      <use xlink:href="#DejaVuSans-6e" x="1443.197266"/>
      <use xlink:href="#DejaVuSans-73" x="1506.576172"/>
     </g>
    </g>
    <g id="line2d_19">
     <path d="M 66.6 69.248563 
L 76.6 69.248563 
L 86.6 69.248563 
" style="fill: none; stroke: #ff7f0e; stroke-opacity: 0.7; stroke-width: 1.5; stroke-linecap: square"/>
    </g>
    <g id="text_17">
     <!-- Negative cumulative predictions -->
     <g transform="translate(94.6 72.748563) scale(0.1 -0.1)">
      <defs>
       <path id="DejaVuSans-4e" d="M 628 4666 
L 1478 4666 
L 3547 763 
L 3547 4666 
L 4159 4666 
L 4159 0 
L 3309 0 
L 1241 3903 
L 1241 0 
L 628 0 
L 628 4666 
z
" transform="scale(0.015625)"/>
       <path id="DejaVuSans-67" d="M 2906 1791 
Q 2906 2416 2648 2759 
Q 2391 3103 1925 3103 
Q 1463 3103 1205 2759 
Q 947 2416 947 1791 
Q 947 1169 1205 825 
Q 1463 481 1925 481 
Q 2391 481 2648 825 
Q 2906 1169 2906 1791 
z
M 3481 434 
Q 3481 -459 3084 -895 
Q 2688 -1331 1869 -1331 
Q 1566 -1331 1297 -1286 
Q 1028 -1241 775 -1147 
L 775 -588 
Q 1028 -725 1275 -790 
Q 1522 -856 1778 -856 
Q 2344 -856 2625 -561 
Q 2906 -266 2906 331 
L 2906 616 
Q 2728 306 2450 153 
Q 2172 0 1784 0 
Q 1141 0 747 490 
Q 353 981 353 1791 
Q 353 2603 747 3093 
Q 1141 3584 1784 3584 
Q 2172 3584 2450 3431 
Q 2728 3278 2906 2969 
L 2906 3500 
L 3481 3500 
L 3481 434 
z
" transform="scale(0.015625)"/>
      </defs>
      <use xlink:href="#DejaVuSans-4e"/>
      <use xlink:href="#DejaVuSans-65" x="74.804688"/>
      <use xlink:href="#DejaVuSans-67" x="136.328125"/>
      <use xlink:href="#DejaVuSans-61" x="199.804688"/>
      <use xlink:href="#DejaVuSans-74" x="261.083984"/>
      <use xlink:href="#DejaVuSans-69" x="300.292969"/>
      <use xlink:href="#DejaVuSans-76" x="328.076172"/>
      <use xlink:href="#DejaVuSans-65" x="387.255859"/>
      <use xlink:href="#DejaVuSans-20" x="448.779297"/>
      <use xlink:href="#DejaVuSans-63" x="480.566406"/>
      <use xlink:href="#DejaVuSans-75" x="535.546875"/>
      <use xlink:href="#DejaVuSans-6d" x="598.925781"/>
      <use xlink:href="#DejaVuSans-75" x="696.337891"/>
      <use xlink:href="#DejaVuSans-6c" x="759.716797"/>
      <use xlink:href="#DejaVuSans-61" x="787.5"/>
      <use xlink:href="#DejaVuSans-74" x="848.779297"/>
      <use xlink:href="#DejaVuSans-69" x="887.988281"/>
      <use xlink:href="#DejaVuSans-76" x="915.771484"/>
      <use xlink:href="#DejaVuSans-65" x="974.951172"/>
      <use xlink:href="#DejaVuSans-20" x="1036.474609"/>
      <use xlink:href="#DejaVuSans-70" x="1068.261719"/>
      <use xlink:href="#DejaVuSans-72" x="1131.738281"/>
      <use xlink:href="#DejaVuSans-65" x="1170.601562"/>
      <use xlink:href="#DejaVuSans-64" x="1232.125"/>
      <use xlink:href="#DejaVuSans-69" x="1295.601562"/>
      <use xlink:href="#DejaVuSans-63" x="1323.384766"/>
      <use xlink:href="#DejaVuSans-74" x="1378.365234"/>
      <use xlink:href="#DejaVuSans-69" x="1417.574219"/>
      <use xlink:href="#DejaVuSans-6f" x="1445.357422"/>
      <use xlink:href="#DejaVuSans-6e" x="1506.539062"/>
      <use xlink:href="#DejaVuSans-73" x="1569.917969"/>
     </g>
    </g>
    <g id="line2d_20">
     <path d="M 66.6 83.926688 
L 76.6 83.926688 
L 86.6 83.926688 
" style="fill: none; stroke: #2ca02c; stroke-opacity: 0.7; stroke-width: 1.5; stroke-linecap: square"/>
    </g>
    <g id="text_18">
     <!-- Average cumulative predictions -->
     <g transform="translate(94.6 87.426688) scale(0.1 -0.1)">
      <defs>
       <path id="DejaVuSans-41" d="M 2188 4044 
L 1331 1722 
L 3047 1722 
L 2188 4044 
z
M 1831 4666 
L 2547 4666 
L 4325 0 
L 3669 0 
L 3244 1197 
L 1141 1197 
L 716 0 
L 50 0 
L 1831 4666 
z
" transform="scale(0.015625)"/>
      </defs>
      <use xlink:href="#DejaVuSans-41"/>
      <use xlink:href="#DejaVuSans-76" x="62.533203"/>
      <use xlink:href="#DejaVuSans-65" x="121.712891"/>
      <use xlink:href="#DejaVuSans-72" x="183.236328"/>
      <use xlink:href="#DejaVuSans-61" x="224.349609"/>
      <use xlink:href="#DejaVuSans-67" x="285.628906"/>
      <use xlink:href="#DejaVuSans-65" x="349.105469"/>
      <use xlink:href="#DejaVuSans-20" x="410.628906"/>
      <use xlink:href="#DejaVuSans-63" x="442.416016"/>
      <use xlink:href="#DejaVuSans-75" x="497.396484"/>
      <use xlink:href="#DejaVuSans-6d" x="560.775391"/>
      <use xlink:href="#DejaVuSans-75" x="658.1875"/>
      <use xlink:href="#DejaVuSans-6c" x="721.566406"/>
      <use xlink:href="#DejaVuSans-61" x="749.349609"/>
      <use xlink:href="#DejaVuSans-74" x="810.628906"/>
      <use xlink:href="#DejaVuSans-69" x="849.837891"/>
      <use xlink:href="#DejaVuSans-76" x="877.621094"/>
      <use xlink:href="#DejaVuSans-65" x="936.800781"/>
      <use xlink:href="#DejaVuSans-20" x="998.324219"/>
      <use xlink:href="#DejaVuSans-70" x="1030.111328"/>
      <use xlink:href="#DejaVuSans-72" x="1093.587891"/>
      <use xlink:href="#DejaVuSans-65" x="1132.451172"/>
      <use xlink:href="#DejaVuSans-64" x="1193.974609"/>
      <use xlink:href="#DejaVuSans-69" x="1257.451172"/>
      <use xlink:href="#DejaVuSans-63" x="1285.234375"/>
      <use xlink:href="#DejaVuSans-74" x="1340.214844"/>
      <use xlink:href="#DejaVuSans-69" x="1379.423828"/>
      <use xlink:href="#DejaVuSans-6f" x="1407.207031"/>
      <use xlink:href="#DejaVuSans-6e" x="1468.388672"/>
      <use xlink:href="#DejaVuSans-73" x="1531.767578"/>
     </g>
    </g>
   </g>
  </g>
 </g>
 <defs>
  <clipPath id="p95c8b6e760">
   <rect x="57.6" y="41.472" width="357.12" height="266.112"/>
  </clipPath>
 </defs>
</svg>
