<?xml version="1.0" encoding="utf-8" standalone="no"?>
<!DOCTYPE svg PUBLIC "-//W3C//DTD SVG 1.1//EN"
  "http://www.w3.org/Graphics/SVG/1.1/DTD/svg11.dtd">
<svg xmlns:xlink="http://www.w3.org/1999/xlink" width="460.8pt" height="345.6pt" viewBox="0 0 460.8 345.6" xmlns="http://www.w3.org/2000/svg" version="1.1">
 <metadata>
  <rdf:RDF xmlns:dc="http://purl.org/dc/elements/1.1/" xmlns:cc="http://creativecommons.org/ns#" xmlns:rdf="http://www.w3.org/1999/02/22-rdf-syntax-ns#">
   <cc:Work>
    <dc:type rdf:resource="http://purl.org/dc/dcmitype/StillImage"/>
    <dc:date>2024-09-06T11:31:49.075624</dc:date>
    <dc:format>image/svg+xml</dc:format>
    <dc:creator>
     <cc:Agent>
      <dc:title>Matplotlib v3.9.0, https://matplotlib.org/</dc:title>
     </cc:Agent>
    </dc:creator>
   </cc:Work>
  </rdf:RDF>
 </metadata>
 <defs>
  <style type="text/css">*{stroke-linejoin: round; stroke-linecap: butt}</style>
 </defs>
 <g id="figure_1">
  <g id="patch_1">
   <path d="M 0 345.6 
L 460.8 345.6 
L 460.8 0 
L 0 0 
z
" style="fill: #ffffff"/>
  </g>
  <g id="axes_1">
   <g id="patch_2">
    <path d="M 57.6 307.584 
L 414.72 307.584 
L 414.72 41.472 
L 57.6 41.472 
z
" style="fill: #ffffff"/>
   </g>
   <g id="matplotlib.axis_1">
    <g id="xtick_1">
     <g id="line2d_1">
      <defs>
       <path id="m365b9ac273" d="M 0 0 
L 0 3.5 
" style="stroke: #000000; stroke-width: 0.8"/>
      </defs>
      <g>
       <use xlink:href="#m365b9ac273" x="73.832727" y="307.584" style="stroke: #000000; stroke-width: 0.8"/>
      </g>
     </g>
     <g id="text_1">
      <!-- 0 -->
      <g transform="translate(70.651477 322.182437) scale(0.1 -0.1)">
       <defs>
        <path id="DejaVuSans-30" d="M 2034 4250 
Q 1547 4250 1301 3770 
Q 1056 3291 1056 2328 
Q 1056 1369 1301 889 
Q 1547 409 2034 409 
Q 2525 409 2770 889 
Q 3016 1369 3016 2328 
Q 3016 3291 2770 3770 
Q 2525 4250 2034 4250 
z
M 2034 4750 
Q 2819 4750 3233 4129 
Q 3647 3509 3647 2328 
Q 3647 1150 3233 529 
Q 2819 -91 2034 -91 
Q 1250 -91 836 529 
Q 422 1150 422 2328 
Q 422 3509 836 4129 
Q 1250 4750 2034 4750 
z
" transform="scale(0.015625)"/>
       </defs>
       <use xlink:href="#DejaVuSans-30"/>
      </g>
     </g>
    </g>
    <g id="xtick_2">
     <g id="line2d_2">
      <g>
       <use xlink:href="#m365b9ac273" x="149.333784" y="307.584" style="stroke: #000000; stroke-width: 0.8"/>
      </g>
     </g>
     <g id="text_2">
      <!-- 50 -->
      <g transform="translate(142.971284 322.182437) scale(0.1 -0.1)">
       <defs>
        <path id="DejaVuSans-35" d="M 691 4666 
L 3169 4666 
L 3169 4134 
L 1269 4134 
L 1269 2991 
Q 1406 3038 1543 3061 
Q 1681 3084 1819 3084 
Q 2600 3084 3056 2656 
Q 3513 2228 3513 1497 
Q 3513 744 3044 326 
Q 2575 -91 1722 -91 
Q 1428 -91 1123 -41 
Q 819 9 494 109 
L 494 744 
Q 775 591 1075 516 
Q 1375 441 1709 441 
Q 2250 441 2565 725 
Q 2881 1009 2881 1497 
Q 2881 1984 2565 2268 
Q 2250 2553 1709 2553 
Q 1456 2553 1204 2497 
Q 953 2441 691 2322 
L 691 4666 
z
" transform="scale(0.015625)"/>
       </defs>
       <use xlink:href="#DejaVuSans-35"/>
       <use xlink:href="#DejaVuSans-30" x="63.623047"/>
      </g>
     </g>
    </g>
    <g id="xtick_3">
     <g id="line2d_3">
      <g>
       <use xlink:href="#m365b9ac273" x="224.834841" y="307.584" style="stroke: #000000; stroke-width: 0.8"/>
      </g>
     </g>
     <g id="text_3">
      <!-- 100 -->
      <g transform="translate(215.291091 322.182437) scale(0.1 -0.1)">
       <defs>
        <path id="DejaVuSans-31" d="M 794 531 
L 1825 531 
L 1825 4091 
L 703 3866 
L 703 4441 
L 1819 4666 
L 2450 4666 
L 2450 531 
L 3481 531 
L 3481 0 
L 794 0 
L 794 531 
z
" transform="scale(0.015625)"/>
       </defs>
       <use xlink:href="#DejaVuSans-31"/>
       <use xlink:href="#DejaVuSans-30" x="63.623047"/>
       <use xlink:href="#DejaVuSans-30" x="127.246094"/>
      </g>
     </g>
    </g>
    <g id="xtick_4">
     <g id="line2d_4">
      <g>
       <use xlink:href="#m365b9ac273" x="300.335899" y="307.584" style="stroke: #000000; stroke-width: 0.8"/>
      </g>
     </g>
     <g id="text_4">
      <!-- 150 -->
      <g transform="translate(290.792149 322.182437) scale(0.1 -0.1)">
       <use xlink:href="#DejaVuSans-31"/>
       <use xlink:href="#DejaVuSans-35" x="63.623047"/>
       <use xlink:href="#DejaVuSans-30" x="127.246094"/>
      </g>
     </g>
    </g>
    <g id="xtick_5">
     <g id="line2d_5">
      <g>
       <use xlink:href="#m365b9ac273" x="375.836956" y="307.584" style="stroke: #000000; stroke-width: 0.8"/>
      </g>
     </g>
     <g id="text_5">
      <!-- 200 -->
      <g transform="translate(366.293206 322.182437) scale(0.1 -0.1)">
       <defs>
        <path id="DejaVuSans-32" d="M 1228 531 
L 3431 531 
L 3431 0 
L 469 0 
L 469 531 
Q 828 903 1448 1529 
Q 2069 2156 2228 2338 
Q 2531 2678 2651 2914 
Q 2772 3150 2772 3378 
Q 2772 3750 2511 3984 
Q 2250 4219 1831 4219 
Q 1534 4219 1204 4116 
Q 875 4013 500 3803 
L 500 4441 
Q 881 4594 1212 4672 
Q 1544 4750 1819 4750 
Q 2544 4750 2975 4387 
Q 3406 4025 3406 3419 
Q 3406 3131 3298 2873 
Q 3191 2616 2906 2266 
Q 2828 2175 2409 1742 
Q 1991 1309 1228 531 
z
" transform="scale(0.015625)"/>
       </defs>
       <use xlink:href="#DejaVuSans-32"/>
       <use xlink:href="#DejaVuSans-30" x="63.623047"/>
       <use xlink:href="#DejaVuSans-30" x="127.246094"/>
      </g>
     </g>
    </g>
   </g>
   <g id="matplotlib.axis_2">
    <g id="ytick_1">
     <g id="line2d_6">
      <defs>
       <path id="ma3a6eca5c4" d="M 0 0 
L -3.5 0 
" style="stroke: #000000; stroke-width: 0.8"/>
      </defs>
      <g>
       <use xlink:href="#ma3a6eca5c4" x="57.6" y="275.735716" style="stroke: #000000; stroke-width: 0.8"/>
      </g>
     </g>
     <g id="text_6">
      <!-- −6000 -->
      <g transform="translate(16.770313 279.534935) scale(0.1 -0.1)">
       <defs>
        <path id="DejaVuSans-2212" d="M 678 2272 
L 4684 2272 
L 4684 1741 
L 678 1741 
L 678 2272 
z
" transform="scale(0.015625)"/>
        <path id="DejaVuSans-36" d="M 2113 2584 
Q 1688 2584 1439 2293 
Q 1191 2003 1191 1497 
Q 1191 994 1439 701 
Q 1688 409 2113 409 
Q 2538 409 2786 701 
Q 3034 994 3034 1497 
Q 3034 2003 2786 2293 
Q 2538 2584 2113 2584 
z
M 3366 4563 
L 3366 3988 
Q 3128 4100 2886 4159 
Q 2644 4219 2406 4219 
Q 1781 4219 1451 3797 
Q 1122 3375 1075 2522 
Q 1259 2794 1537 2939 
Q 1816 3084 2150 3084 
Q 2853 3084 3261 2657 
Q 3669 2231 3669 1497 
Q 3669 778 3244 343 
Q 2819 -91 2113 -91 
Q 1303 -91 875 529 
Q 447 1150 447 2328 
Q 447 3434 972 4092 
Q 1497 4750 2381 4750 
Q 2619 4750 2861 4703 
Q 3103 4656 3366 4563 
z
" transform="scale(0.015625)"/>
       </defs>
       <use xlink:href="#DejaVuSans-2212"/>
       <use xlink:href="#DejaVuSans-36" x="83.789062"/>
       <use xlink:href="#DejaVuSans-30" x="147.412109"/>
       <use xlink:href="#DejaVuSans-30" x="211.035156"/>
       <use xlink:href="#DejaVuSans-30" x="274.658203"/>
      </g>
     </g>
    </g>
    <g id="ytick_2">
     <g id="line2d_7">
      <g>
       <use xlink:href="#ma3a6eca5c4" x="57.6" y="243.355579" style="stroke: #000000; stroke-width: 0.8"/>
      </g>
     </g>
     <g id="text_7">
      <!-- −4000 -->
      <g transform="translate(16.770313 247.154798) scale(0.1 -0.1)">
       <defs>
        <path id="DejaVuSans-34" d="M 2419 4116 
L 825 1625 
L 2419 1625 
L 2419 4116 
z
M 2253 4666 
L 3047 4666 
L 3047 1625 
L 3713 1625 
L 3713 1100 
L 3047 1100 
L 3047 0 
L 2419 0 
L 2419 1100 
L 313 1100 
L 313 1709 
L 2253 4666 
z
" transform="scale(0.015625)"/>
       </defs>
       <use xlink:href="#DejaVuSans-2212"/>
       <use xlink:href="#DejaVuSans-34" x="83.789062"/>
       <use xlink:href="#DejaVuSans-30" x="147.412109"/>
       <use xlink:href="#DejaVuSans-30" x="211.035156"/>
       <use xlink:href="#DejaVuSans-30" x="274.658203"/>
      </g>
     </g>
    </g>
    <g id="ytick_3">
     <g id="line2d_8">
      <g>
       <use xlink:href="#ma3a6eca5c4" x="57.6" y="210.975442" style="stroke: #000000; stroke-width: 0.8"/>
      </g>
     </g>
     <g id="text_8">
      <!-- −2000 -->
      <g transform="translate(16.770313 214.774661) scale(0.1 -0.1)">
       <use xlink:href="#DejaVuSans-2212"/>
       <use xlink:href="#DejaVuSans-32" x="83.789062"/>
       <use xlink:href="#DejaVuSans-30" x="147.412109"/>
       <use xlink:href="#DejaVuSans-30" x="211.035156"/>
       <use xlink:href="#DejaVuSans-30" x="274.658203"/>
      </g>
     </g>
    </g>
    <g id="ytick_4">
     <g id="line2d_9">
      <g>
       <use xlink:href="#ma3a6eca5c4" x="57.6" y="178.595305" style="stroke: #000000; stroke-width: 0.8"/>
      </g>
     </g>
     <g id="text_9">
      <!-- 0 -->
      <g transform="translate(44.2375 182.394524) scale(0.1 -0.1)">
       <use xlink:href="#DejaVuSans-30"/>
      </g>
     </g>
    </g>
    <g id="ytick_5">
     <g id="line2d_10">
      <g>
       <use xlink:href="#ma3a6eca5c4" x="57.6" y="146.215169" style="stroke: #000000; stroke-width: 0.8"/>
      </g>
     </g>
     <g id="text_10">
      <!-- 2000 -->
      <g transform="translate(25.15 150.014387) scale(0.1 -0.1)">
       <use xlink:href="#DejaVuSans-32"/>
       <use xlink:href="#DejaVuSans-30" x="63.623047"/>
       <use xlink:href="#DejaVuSans-30" x="127.246094"/>
       <use xlink:href="#DejaVuSans-30" x="190.869141"/>
      </g>
     </g>
    </g>
    <g id="ytick_6">
     <g id="line2d_11">
      <g>
       <use xlink:href="#ma3a6eca5c4" x="57.6" y="113.835032" style="stroke: #000000; stroke-width: 0.8"/>
      </g>
     </g>
     <g id="text_11">
      <!-- 4000 -->
      <g transform="translate(25.15 117.634251) scale(0.1 -0.1)">
       <use xlink:href="#DejaVuSans-34"/>
       <use xlink:href="#DejaVuSans-30" x="63.623047"/>
       <use xlink:href="#DejaVuSans-30" x="127.246094"/>
       <use xlink:href="#DejaVuSans-30" x="190.869141"/>
      </g>
     </g>
    </g>
    <g id="ytick_7">
     <g id="line2d_12">
      <g>
       <use xlink:href="#ma3a6eca5c4" x="57.6" y="81.454895" style="stroke: #000000; stroke-width: 0.8"/>
      </g>
     </g>
     <g id="text_12">
      <!-- 6000 -->
      <g transform="translate(25.15 85.254114) scale(0.1 -0.1)">
       <use xlink:href="#DejaVuSans-36"/>
       <use xlink:href="#DejaVuSans-30" x="63.623047"/>
       <use xlink:href="#DejaVuSans-30" x="127.246094"/>
       <use xlink:href="#DejaVuSans-30" x="190.869141"/>
      </g>
     </g>
    </g>
    <g id="ytick_8">
     <g id="line2d_13">
      <g>
       <use xlink:href="#ma3a6eca5c4" x="57.6" y="49.074758" style="stroke: #000000; stroke-width: 0.8"/>
      </g>
     </g>
     <g id="text_13">
      <!-- 8000 -->
      <g transform="translate(25.15 52.873977) scale(0.1 -0.1)">
       <defs>
        <path id="DejaVuSans-38" d="M 2034 2216 
Q 1584 2216 1326 1975 
Q 1069 1734 1069 1313 
Q 1069 891 1326 650 
Q 1584 409 2034 409 
Q 2484 409 2743 651 
Q 3003 894 3003 1313 
Q 3003 1734 2745 1975 
Q 2488 2216 2034 2216 
z
M 1403 2484 
Q 997 2584 770 2862 
Q 544 3141 544 3541 
Q 544 4100 942 4425 
Q 1341 4750 2034 4750 
Q 2731 4750 3128 4425 
Q 3525 4100 3525 3541 
Q 3525 3141 3298 2862 
Q 3072 2584 2669 2484 
Q 3125 2378 3379 2068 
Q 3634 1759 3634 1313 
Q 3634 634 3220 271 
Q 2806 -91 2034 -91 
Q 1263 -91 848 271 
Q 434 634 434 1313 
Q 434 1759 690 2068 
Q 947 2378 1403 2484 
z
M 1172 3481 
Q 1172 3119 1398 2916 
Q 1625 2713 2034 2713 
Q 2441 2713 2670 2916 
Q 2900 3119 2900 3481 
Q 2900 3844 2670 4047 
Q 2441 4250 2034 4250 
Q 1625 4250 1398 4047 
Q 1172 3844 1172 3481 
z
" transform="scale(0.015625)"/>
       </defs>
       <use xlink:href="#DejaVuSans-38"/>
       <use xlink:href="#DejaVuSans-30" x="63.623047"/>
       <use xlink:href="#DejaVuSans-30" x="127.246094"/>
       <use xlink:href="#DejaVuSans-30" x="190.869141"/>
      </g>
     </g>
    </g>
   </g>
   <g id="line2d_14">
    <path d="M 73.832727 179.912183 
L 75.342748 182.999118 
L 76.85277 178.082435 
L 78.362791 176.366503 
L 79.872812 178.650571 
L 81.382833 176.400292 
L 82.892854 179.58283 
L 84.402875 182.25783 
L 85.912896 179.073569 
L 87.422918 178.20022 
L 88.932939 178.050263 
L 90.44296 177.309681 
L 91.952981 179.104866 
L 93.463002 177.935752 
L 94.973023 178.208926 
L 96.483044 179.796366 
L 97.993066 180.018111 
L 99.503087 179.776012 
L 101.013108 175.608588 
L 102.523129 179.164152 
L 104.03315 179.887396 
L 105.543171 177.708355 
L 107.053192 178.478362 
L 108.563214 179.400976 
L 110.073235 178.609596 
L 114.603298 178.697973 
L 116.113319 177.298256 
L 117.62334 176.154281 
L 119.133362 178.620084 
L 120.643383 178.739223 
L 122.153404 179.880899 
L 123.663425 178.851578 
L 125.173446 178.506343 
L 126.683467 178.823447 
L 128.193488 178.656019 
L 129.70351 179.102098 
L 131.213531 179.132884 
L 132.723552 178.890802 
L 134.233573 178.96468 
L 135.743594 178.623937 
L 137.253615 180.398582 
L 138.763636 178.614102 
L 140.273658 178.754967 
L 141.783679 179.54046 
L 143.2937 182.271945 
L 144.803721 177.951932 
L 146.313742 177.762954 
L 147.823763 180.098248 
L 149.333784 181.709105 
L 150.843805 177.635264 
L 152.353827 176.511466 
L 153.863848 177.487453 
L 155.373869 180.205573 
L 156.88389 178.362346 
L 158.393911 177.570468 
L 159.903932 178.374899 
L 161.413953 178.480535 
L 162.923975 177.829431 
L 164.433996 176.009684 
L 165.944017 178.424169 
L 167.454038 178.191249 
L 168.964059 180.388344 
L 170.47408 177.680046 
L 171.984101 176.801645 
L 173.494123 178.371649 
L 175.004144 178.393634 
L 176.514165 178.617735 
L 178.024186 178.689124 
L 179.534207 180.175912 
L 181.044228 179.232118 
L 182.554249 179.86436 
L 184.064271 179.392006 
L 185.574292 177.536557 
L 187.084313 176.852782 
L 188.594334 177.582009 
L 190.104355 176.01781 
L 191.614376 179.101773 
L 193.124397 180.074445 
L 194.634419 178.399704 
L 196.14444 181.234099 
L 197.654461 179.773324 
L 199.164482 178.608921 
L 200.674503 178.041282 
L 202.184524 178.955168 
L 203.694545 177.853836 
L 205.204567 178.132915 
L 206.714588 178.993939 
L 208.224609 178.077372 
L 209.73463 181.386503 
L 211.244651 179.450926 
L 212.754672 179.332902 
L 214.264693 176.886763 
L 215.774715 176.833533 
L 217.284736 179.584844 
L 218.794757 178.086738 
L 220.304778 178.258638 
L 221.814799 179.553583 
L 223.32482 181.254695 
L 224.834841 182.273618 
L 226.344863 178.799905 
L 227.854884 182.527146 
L 229.364905 178.674834 
L 230.874926 178.448126 
L 232.384947 185.637816 
L 233.894968 184.797806 
L 235.404989 183.250555 
L 236.915011 166.097636 
L 238.425032 185.890536 
L 239.935053 191.251127 
L 241.445074 173.106407 
L 242.955095 177.014111 
L 244.465116 187.143127 
L 245.975137 169.718328 
L 247.485159 188.199913 
L 248.99518 183.243667 
L 250.505201 156.561281 
L 252.015222 182.926969 
L 255.035264 160.234766 
L 256.545285 179.661138 
L 258.055307 178.630585 
L 259.565328 169.438283 
L 261.075349 180.191614 
L 262.58537 175.309849 
L 264.095391 180.038924 
L 265.605412 187.193554 
L 267.115433 186.645583 
L 268.625455 185.596408 
L 270.135476 176.292195 
L 271.645497 171.759194 
L 273.155518 170.441693 
L 274.665539 189.576712 
L 276.17556 192.113944 
L 279.195603 175.852895 
L 280.705624 183.265758 
L 282.215645 169.307142 
L 283.725666 172.683722 
L 285.235687 162.224926 
L 286.745708 177.584107 
L 288.255729 178.880816 
L 289.765751 170.089907 
L 291.275772 178.191627 
L 292.785793 172.890881 
L 294.295814 188.216135 
L 295.805835 171.784704 
L 297.315856 183.778574 
L 298.825877 172.178572 
L 300.335899 181.33048 
L 301.84592 187.543064 
L 303.355941 171.302561 
L 304.865962 176.343429 
L 306.375983 173.963084 
L 307.886004 165.186546 
L 309.396025 178.516632 
L 310.906047 177.403102 
L 312.416068 179.911166 
L 313.926089 161.352141 
L 315.43611 181.456599 
L 316.946131 181.557212 
L 318.456152 180.300712 
L 319.966173 181.084497 
L 321.476195 177.695477 
L 322.986216 179.136297 
L 324.496237 173.224065 
L 326.006258 177.114866 
L 327.516279 180.495333 
L 329.0263 178.061519 
L 330.536321 180.154497 
L 332.046342 177.891618 
L 333.556364 181.500307 
L 335.066385 179.696384 
L 336.576406 171.961722 
L 338.086427 178.318391 
L 339.596448 179.526927 
L 341.106469 179.361551 
L 342.61649 177.937267 
L 344.126512 179.027282 
L 345.636533 185.616965 
L 347.146554 181.47802 
L 348.656575 179.892737 
L 350.166596 175.869716 
L 351.676617 182.11059 
L 353.186638 176.227539 
L 354.69666 182.038424 
L 356.206681 183.584657 
L 357.716702 179.356176 
L 359.226723 182.16344 
L 360.736744 173.822485 
L 362.246765 180.476061 
L 363.756786 175.48752 
L 366.776829 179.667877 
L 368.28685 176.574874 
L 369.796871 186.325226 
L 371.306892 179.091078 
L 372.816913 178.997316 
L 374.326934 176.213085 
L 375.836956 176.889602 
L 377.346977 178.955621 
L 378.856998 173.178166 
L 380.367019 178.262714 
L 381.87704 177.614832 
L 383.387061 180.832977 
L 384.897082 180.814738 
L 386.407104 176.71101 
L 387.917125 183.552841 
L 389.427146 185.99957 
L 390.937167 182.641837 
L 392.447188 178.378118 
L 393.957209 178.47398 
L 395.46723 188.114311 
L 396.977252 177.354125 
L 398.487273 175.731009 
L 398.487273 175.731009 
" clip-path="url(#pd960f3430b)" style="fill: none; stroke: #008000; stroke-opacity: 0.8; stroke-width: 0.5; stroke-linecap: square"/>
   </g>
   <g id="line2d_15">
    <path d="M 73.832727 160.989524 
L 75.342748 167.014378 
L 76.85277 166.485693 
L 78.362791 164.262036 
L 79.872812 164.714641 
L 81.382833 167.138958 
L 82.892854 170.278259 
L 84.402875 174.287986 
L 85.912896 164.934134 
L 87.422918 173.949549 
L 88.932939 169.128344 
L 90.44296 171.029063 
L 91.952981 175.334684 
L 93.463002 166.862392 
L 94.973023 168.416471 
L 96.483044 177.280809 
L 97.993066 172.237443 
L 99.503087 174.929495 
L 101.013108 171.546546 
L 102.523129 172.588487 
L 104.03315 175.615379 
L 105.543171 169.397411 
L 107.053192 174.929976 
L 108.563214 176.287097 
L 110.073235 177.845377 
L 111.583256 173.433408 
L 113.093277 177.668886 
L 114.603298 176.227598 
L 116.113319 168.606633 
L 117.62334 166.439457 
L 119.133362 174.719971 
L 120.643383 176.375538 
L 122.153404 174.793102 
L 123.663425 175.172607 
L 125.173446 172.957086 
L 126.683467 176.814934 
L 128.193488 177.043617 
L 129.70351 178.019278 
L 131.213531 173.450799 
L 132.723552 177.34526 
L 134.233573 177.855979 
L 135.743594 177.625235 
L 137.253615 177.818733 
L 138.763636 174.369982 
L 140.273658 174.279792 
L 141.783679 178.000449 
L 143.2937 174.999906 
L 144.803721 169.011605 
L 146.313742 169.485053 
L 147.823763 174.036121 
L 149.333784 174.218414 
L 150.843805 143.795992 
L 152.353827 159.478187 
L 153.863848 155.676647 
L 155.373869 172.148302 
L 156.88389 169.922898 
L 158.393911 164.695643 
L 159.903932 171.631896 
L 161.413953 174.628859 
L 162.923975 175.703255 
L 164.433996 160.429889 
L 165.944017 174.335993 
L 167.454038 175.915989 
L 168.964059 169.560517 
L 171.984101 172.540714 
L 173.494123 173.042522 
L 175.004144 176.010654 
L 176.514165 173.89651 
L 178.024186 176.275518 
L 179.534207 175.190148 
L 181.044228 174.773188 
L 182.554249 173.92096 
L 184.064271 175.79758 
L 185.574292 170.064947 
L 187.084313 169.947222 
L 188.594334 165.560386 
L 190.104355 131.104492 
L 191.614376 172.974516 
L 193.124397 177.108926 
L 194.634419 171.543701 
L 196.14444 173.656941 
L 197.654461 174.467747 
L 199.164482 164.555714 
L 200.674503 171.335151 
L 202.184524 168.168059 
L 203.694545 169.491476 
L 205.204567 173.446085 
L 206.714588 176.57631 
L 208.224609 176.125604 
L 209.73463 177.309778 
L 211.244651 166.928813 
L 212.754672 170.855347 
L 214.264693 171.600038 
L 215.774715 159.490173 
L 217.284736 174.451881 
L 218.794757 170.724005 
L 220.304778 175.409306 
L 221.814799 175.40529 
L 223.32482 177.148783 
L 226.344863 166.509488 
L 227.854884 171.737893 
L 229.364905 152.664678 
L 230.874926 163.909855 
L 232.384947 167.238972 
L 233.894968 153.346841 
L 235.404989 131.699205 
L 236.915011 102.194342 
L 238.425032 143.107782 
L 239.935053 149.116247 
L 241.445074 85.705677 
L 242.955095 138.61196 
L 244.465116 119.840913 
L 245.975137 128.341549 
L 247.485159 148.007606 
L 248.99518 141.230324 
L 250.505201 106.283349 
L 252.015222 114.607202 
L 253.525243 53.568 
L 255.035264 81.825899 
L 256.545285 131.892602 
L 258.055307 141.639862 
L 259.565328 112.814182 
L 261.075349 129.79213 
L 262.58537 153.452117 
L 264.095391 161.74886 
L 265.605412 151.15028 
L 267.115433 159.006553 
L 268.625455 156.782074 
L 270.135476 142.842803 
L 271.645497 82.919776 
L 273.155518 106.307409 
L 274.665539 144.522899 
L 276.17556 152.198351 
L 277.685581 115.835348 
L 279.195603 133.064153 
L 280.705624 145.366617 
L 282.215645 122.309469 
L 283.725666 117.533912 
L 285.235687 106.302781 
L 286.745708 123.295052 
L 288.255729 128.581167 
L 291.275772 156.797956 
L 292.785793 109.882399 
L 294.295814 149.874943 
L 295.805835 122.758984 
L 297.315856 151.212273 
L 298.825877 124.53583 
L 300.335899 161.495921 
L 301.84592 171.034978 
L 303.355941 139.896679 
L 304.865962 134.930041 
L 306.375983 140.526193 
L 307.886004 117.665949 
L 309.396025 143.682225 
L 310.906047 159.291425 
L 312.416068 146.122264 
L 313.926089 109.546299 
L 315.43611 168.106567 
L 316.946131 170.77596 
L 318.456152 164.048727 
L 319.966173 158.435296 
L 321.476195 172.724369 
L 322.986216 168.584629 
L 324.496237 141.055373 
L 326.006258 162.954699 
L 327.516279 146.034414 
L 329.0263 167.386883 
L 330.536321 174.862761 
L 332.046342 172.137798 
L 333.556364 175.433834 
L 335.066385 171.768508 
L 336.576406 136.228147 
L 338.086427 170.324998 
L 339.596448 175.180763 
L 341.106469 171.574222 
L 342.61649 166.928844 
L 344.126512 175.720162 
L 345.636533 178.287221 
L 348.656575 163.5419 
L 350.166596 160.217742 
L 351.676617 167.733387 
L 353.186638 160.286071 
L 354.69666 156.767305 
L 356.206681 164.36195 
L 357.716702 162.967306 
L 359.226723 176.306226 
L 360.736744 152.837222 
L 363.756786 166.775544 
L 365.266808 164.394751 
L 366.776829 170.671625 
L 368.28685 156.649452 
L 369.796871 165.818879 
L 371.306892 168.81506 
L 372.816913 168.916937 
L 374.326934 159.489756 
L 375.836956 163.735926 
L 377.346977 175.333386 
L 378.856998 145.543837 
L 381.87704 167.632254 
L 383.387061 169.276854 
L 384.897082 173.362478 
L 386.407104 170.400426 
L 387.917125 176.652525 
L 389.427146 172.009533 
L 390.937167 170.548406 
L 392.447188 150.459512 
L 393.957209 150.764527 
L 395.46723 171.001043 
L 396.977252 136.888739 
L 398.487273 160.721705 
L 398.487273 160.721705 
" clip-path="url(#pd960f3430b)" style="fill: none; stroke: #32cd32; stroke-opacity: 0.8; stroke-width: 0.5; stroke-linecap: square"/>
   </g>
   <g id="line2d_16">
    <path d="M 73.832727 196.795055 
L 76.85277 190.748369 
L 78.362791 190.855081 
L 79.872812 186.552014 
L 81.382833 181.809567 
L 82.892854 186.057425 
L 84.402875 194.617926 
L 85.912896 190.93958 
L 87.422918 186.803367 
L 88.932939 183.395378 
L 90.44296 184.541171 
L 91.952981 180.912736 
L 93.463002 185.013952 
L 94.973023 184.322937 
L 96.483044 182.640842 
L 97.993066 188.28238 
L 99.503087 190.037679 
L 101.013108 179.242877 
L 102.523129 183.344197 
L 104.03315 182.054929 
L 105.543171 181.166126 
L 107.053192 181.382943 
L 108.563214 182.279775 
L 110.073235 179.901862 
L 111.583256 183.834704 
L 113.093277 179.200629 
L 114.603298 179.66742 
L 116.113319 179.757822 
L 117.62334 181.97236 
L 119.133362 186.062817 
L 120.643383 181.42057 
L 122.153404 185.374431 
L 123.663425 183.362043 
L 125.173446 182.695158 
L 126.683467 180.037941 
L 128.193488 179.543052 
L 129.70351 183.163236 
L 131.213531 182.773229 
L 132.723552 180.806419 
L 134.233573 180.194657 
L 135.743594 179.430608 
L 137.253615 190.358341 
L 138.763636 180.903874 
L 140.273658 181.275173 
L 141.783679 182.804651 
L 143.2937 191.770731 
L 144.803721 194.126979 
L 146.313742 188.437522 
L 147.823763 186.051131 
L 149.333784 188.034128 
L 150.843805 197.799567 
L 152.353827 191.640369 
L 153.863848 193.655568 
L 155.373869 186.573145 
L 156.88389 192.012419 
L 158.393911 187.477608 
L 159.903932 187.873078 
L 161.413953 183.036511 
L 162.923975 179.489981 
L 165.944017 184.354002 
L 167.454038 182.355444 
L 168.964059 197.563363 
L 170.47408 182.536478 
L 171.984101 179.555795 
L 173.494123 183.932927 
L 175.004144 181.728198 
L 176.514165 189.032119 
L 178.024186 183.861918 
L 179.534207 185.026955 
L 181.044228 189.579548 
L 182.554249 185.834701 
L 184.064271 185.457782 
L 185.574292 185.763568 
L 187.084313 182.637419 
L 188.594334 183.944707 
L 190.104355 194.424523 
L 191.614376 188.127406 
L 193.124397 186.286761 
L 194.634419 186.307234 
L 196.14444 194.724695 
L 197.654461 189.502251 
L 199.164482 186.154665 
L 200.674503 184.276671 
L 202.184524 189.863634 
L 203.694545 181.095805 
L 205.204567 184.12884 
L 206.714588 183.407267 
L 208.224609 179.09455 
L 209.73463 196.09193 
L 211.244651 186.971092 
L 212.754672 184.178711 
L 214.264693 180.724599 
L 215.774715 183.160999 
L 217.284736 184.213949 
L 218.794757 186.814447 
L 220.304778 180.723291 
L 221.814799 182.366198 
L 223.32482 193.125188 
L 224.834841 201.670687 
L 226.344863 188.729686 
L 227.854884 192.799931 
L 229.364905 200.681677 
L 230.874926 190.665281 
L 232.384947 207.995755 
L 233.894968 218.507801 
L 235.404989 234.948289 
L 236.915011 212.651633 
L 238.425032 226.718181 
L 239.935053 295.27817 
L 241.445074 241.287134 
L 242.955095 249.664427 
L 244.465116 240.377337 
L 245.975137 212.42374 
L 247.485159 234.442498 
L 248.99518 234.578 
L 250.505201 190.237274 
L 252.015222 260.20808 
L 253.525243 243.314685 
L 255.035264 241.463444 
L 256.545285 206.595319 
L 258.055307 243.092915 
L 259.565328 197.129643 
L 261.075349 217.742995 
L 262.58537 194.015756 
L 264.095391 215.376361 
L 265.605412 214.011202 
L 267.115433 219.337342 
L 268.625455 232.582583 
L 270.135476 212.347898 
L 271.645497 206.542196 
L 273.155518 211.949828 
L 274.665539 244.71387 
L 276.17556 239.624512 
L 277.685581 246.692156 
L 279.195603 215.143232 
L 280.705624 245.689074 
L 282.215645 205.608679 
L 283.725666 214.978409 
L 285.235687 201.2537 
L 286.745708 215.079145 
L 288.255729 213.308257 
L 289.765751 200.270378 
L 291.275772 198.719134 
L 292.785793 201.586087 
L 294.295814 248.294086 
L 295.805835 210.581642 
L 297.315856 266.922166 
L 298.825877 229.98339 
L 300.335899 207.448864 
L 301.84592 215.54788 
L 303.355941 190.129932 
L 304.865962 195.974728 
L 306.375983 196.245113 
L 307.886004 209.603409 
L 309.396025 204.104656 
L 310.906047 193.487877 
L 312.416068 215.795312 
L 313.926089 185.259267 
L 315.43611 204.508565 
L 316.946131 196.736886 
L 318.456152 206.176548 
L 319.966173 206.07795 
L 321.476195 189.777002 
L 322.986216 191.169599 
L 324.496237 183.918897 
L 326.006258 190.133179 
L 327.516279 211.796543 
L 329.0263 193.770019 
L 330.536321 191.056454 
L 332.046342 183.277118 
L 333.556364 190.736037 
L 335.066385 193.912634 
L 336.576406 206.891092 
L 338.086427 185.959978 
L 339.596448 190.725514 
L 341.106469 187.891381 
L 342.61649 186.029464 
L 344.126512 181.81275 
L 345.636533 196.425473 
L 347.146554 204.564752 
L 348.656575 190.638365 
L 350.166596 186.899983 
L 351.676617 212.549541 
L 353.186638 186.383946 
L 354.69666 211.776739 
L 356.206681 216.846237 
L 357.716702 195.757696 
L 359.226723 199.762476 
L 360.736744 193.730524 
L 362.246765 195.347631 
L 363.756786 189.451954 
L 365.266808 184.56216 
L 366.776829 198.266906 
L 368.28685 202.502328 
L 369.796871 206.201764 
L 371.306892 186.830298 
L 372.816913 195.848787 
L 374.326934 183.667405 
L 375.836956 185.718117 
L 377.346977 187.971321 
L 378.856998 180.432692 
L 380.367019 204.70428 
L 381.87704 186.494743 
L 383.387061 189.395017 
L 384.897082 194.985981 
L 386.407104 187.03881 
L 387.917125 200.519681 
L 389.427146 228.671752 
L 390.937167 194.907422 
L 392.447188 216.276184 
L 393.957209 204.416241 
L 395.46723 212.628661 
L 396.977252 201.247728 
L 398.487273 193.003943 
L 398.487273 193.003943 
" clip-path="url(#pd960f3430b)" style="fill: none; stroke: #32cd32; stroke-opacity: 0.8; stroke-width: 0.5; stroke-linecap: square"/>
   </g>
   <g id="line2d_17">
    <path d="M 73.832727 180.424857 
L 75.342748 183.443593 
L 76.85277 178.545463 
L 78.362791 176.789652 
L 79.872812 178.958906 
L 81.382833 176.413626 
L 82.892854 179.782127 
L 84.402875 182.39727 
L 85.912896 179.042434 
L 87.422918 178.073118 
L 88.932939 178.069479 
L 90.44296 177.196852 
L 91.952981 179.217251 
L 93.463002 178.011261 
L 94.973023 178.273773 
L 96.483044 179.800379 
L 97.993066 180.092388 
L 99.503087 179.598812 
L 101.013108 175.692163 
L 102.523129 179.168036 
L 104.03315 179.940676 
L 105.543171 177.69215 
L 108.563214 179.385943 
L 110.073235 178.651768 
L 114.603298 178.709055 
L 116.113319 177.311364 
L 117.62334 176.516797 
L 119.133362 178.764841 
L 120.643383 178.691072 
L 122.153404 179.901987 
L 123.663425 178.909479 
L 125.173446 178.544557 
L 126.683467 178.861472 
L 128.193488 178.68196 
L 129.70351 179.109468 
L 131.213531 179.114583 
L 132.723552 178.96975 
L 134.233573 178.972399 
L 135.743594 178.629165 
L 137.253615 180.375839 
L 138.763636 178.574638 
L 140.273658 178.791179 
L 141.783679 179.520952 
L 143.2937 182.303626 
L 144.803721 178.134786 
L 146.313742 177.750153 
L 147.823763 180.045512 
L 149.333784 181.702987 
L 150.843805 178.51428 
L 152.353827 176.545828 
L 153.863848 177.708573 
L 155.373869 180.000092 
L 156.88389 178.193498 
L 158.393911 177.632608 
L 159.903932 178.364926 
L 161.413953 178.442577 
L 162.923975 177.891903 
L 164.433996 176.006953 
L 165.944017 178.56056 
L 167.454038 178.223496 
L 168.964059 180.310338 
L 170.47408 177.71678 
L 171.984101 176.797095 
L 173.494123 178.328591 
L 175.004144 178.385986 
L 176.514165 178.640574 
L 178.024186 178.603034 
L 179.534207 180.14791 
L 181.044228 179.341932 
L 182.554249 179.89999 
L 184.064271 179.442766 
L 185.574292 177.622395 
L 187.084313 176.860701 
L 188.594334 177.464853 
L 190.104355 176.028045 
L 191.614376 179.1068 
L 193.124397 180.084981 
L 194.634419 178.475401 
L 196.14444 181.155937 
L 199.164482 178.543818 
L 200.674503 177.963171 
L 202.184524 178.983484 
L 203.694545 177.931147 
L 205.204567 178.098393 
L 206.714588 179.002234 
L 208.224609 178.089445 
L 209.73463 181.300033 
L 211.244651 179.444513 
L 212.754672 179.425957 
L 214.264693 176.871434 
L 215.774715 176.760384 
L 217.284736 179.571778 
L 218.794757 178.104369 
L 220.304778 178.275074 
L 221.814799 179.578812 
L 223.32482 181.208433 
L 224.834841 182.260411 
L 226.344863 178.792168 
L 227.854884 182.373425 
L 229.364905 178.669026 
L 230.874926 178.436116 
L 232.384947 185.844729 
L 233.894968 189.200741 
L 235.404989 188.053794 
L 236.915011 166.809703 
L 238.425032 186.187506 
L 239.935053 191.542381 
L 241.445074 178.97827 
L 242.955095 177.696384 
L 244.465116 187.226498 
L 245.975137 169.966162 
L 247.485159 187.9309 
L 248.99518 183.780291 
L 250.505201 156.248068 
L 252.015222 182.662754 
L 255.035264 160.543677 
L 256.545285 178.986526 
L 258.055307 178.599358 
L 259.565328 170.066648 
L 261.075349 179.825581 
L 262.58537 174.965589 
L 264.095391 179.849245 
L 265.605412 186.464103 
L 267.115433 185.685275 
L 268.625455 185.467087 
L 270.135476 176.928088 
L 271.645497 171.317316 
L 273.155518 170.408661 
L 274.665539 190.390242 
L 276.17556 192.174002 
L 277.685581 184.698413 
L 279.195603 175.413298 
L 280.705624 183.586603 
L 282.215645 168.509267 
L 283.725666 173.230264 
L 285.235687 162.085593 
L 286.745708 177.751281 
L 288.255729 178.703103 
L 289.765751 169.642599 
L 291.275772 178.35579 
L 292.785793 172.76639 
L 294.295814 187.883598 
L 295.805835 172.073131 
L 297.315856 183.94808 
L 298.825877 173.430023 
L 300.335899 181.355085 
L 301.84592 187.588833 
L 303.355941 171.239521 
L 304.865962 176.365967 
L 306.375983 173.574398 
L 307.886004 165.401161 
L 309.396025 179.308877 
L 310.906047 177.709922 
L 312.416068 179.812471 
L 313.926089 161.562589 
L 315.43611 181.637881 
L 316.946131 181.741073 
L 318.456152 180.322569 
L 319.966173 180.859917 
L 321.476195 177.650322 
L 322.986216 178.950256 
L 324.496237 173.436448 
L 326.006258 177.035895 
L 327.516279 180.233927 
L 329.0263 178.288998 
L 330.536321 180.117441 
L 332.046342 177.91751 
L 333.556364 181.206939 
L 335.066385 179.542481 
L 336.576406 172.058073 
L 338.086427 178.531011 
L 339.596448 179.727814 
L 341.106469 179.520546 
L 342.61649 178.089751 
L 344.126512 178.831086 
L 345.636533 185.515672 
L 347.146554 181.08481 
L 348.656575 179.864996 
L 350.166596 175.941661 
L 351.676617 182.279924 
L 353.186638 176.19478 
L 354.69666 181.599188 
L 356.206681 183.504075 
L 357.716702 179.49507 
L 359.226723 181.998448 
L 360.736744 173.555793 
L 362.246765 180.508452 
L 363.756786 175.338096 
L 366.776829 179.748357 
L 368.28685 176.991427 
L 369.796871 186.038366 
L 371.306892 179.227448 
L 372.816913 178.942897 
L 374.326934 176.264555 
L 375.836956 176.986582 
L 377.346977 178.948428 
L 378.856998 173.138234 
L 380.367019 178.389339 
L 381.87704 177.696426 
L 383.387061 180.50384 
L 384.897082 180.924036 
L 386.407104 176.858321 
L 387.917125 183.508402 
L 389.427146 185.498492 
L 390.937167 182.479902 
L 392.447188 178.583723 
L 393.957209 178.763311 
L 395.46723 187.580128 
L 396.977252 177.947838 
L 398.487273 175.561677 
L 398.487273 175.561677 
" clip-path="url(#pd960f3430b)" style="fill: none; stroke: #ff0000; stroke-opacity: 0.8; stroke-width: 0.5; stroke-linecap: square"/>
   </g>
   <g id="line2d_18">
    <path d="M 73.832727 160.92408 
L 75.342748 168.602143 
L 76.85277 167.121486 
L 78.362791 165.296319 
L 79.872812 165.29959 
L 81.382833 166.676642 
L 82.892854 170.347238 
L 84.402875 174.835325 
L 85.912896 164.368727 
L 87.422918 173.875422 
L 88.932939 169.082069 
L 90.44296 170.792073 
L 91.952981 175.765061 
L 93.463002 167.105097 
L 94.973023 168.721925 
L 96.483044 177.426217 
L 97.993066 172.345508 
L 99.503087 174.171187 
L 101.013108 171.657045 
L 102.523129 172.605214 
L 104.03315 175.652949 
L 105.543171 169.399343 
L 107.053192 174.976721 
L 108.563214 176.356404 
L 110.073235 177.951047 
L 111.583256 173.400999 
L 113.093277 177.745096 
L 114.603298 176.21442 
L 116.113319 168.75847 
L 117.62334 166.583658 
L 119.133362 174.667838 
L 120.643383 176.282068 
L 122.153404 174.72432 
L 123.663425 175.618608 
L 125.173446 173.107325 
L 126.683467 176.810785 
L 128.193488 177.018096 
L 129.70351 177.998837 
L 131.213531 173.462316 
L 132.723552 177.425172 
L 134.233573 177.857427 
L 137.253615 177.660913 
L 138.763636 174.184073 
L 140.273658 174.433239 
L 141.783679 177.845877 
L 143.2937 174.493482 
L 144.803721 169.47348 
L 146.313742 169.659889 
L 147.823763 173.955842 
L 149.333784 174.434767 
L 150.843805 148.190336 
L 152.353827 159.758415 
L 153.863848 155.419781 
L 155.373869 172.010086 
L 156.88389 169.96835 
L 158.393911 164.744869 
L 159.903932 171.358307 
L 161.413953 174.805611 
L 162.923975 175.819327 
L 164.433996 160.365747 
L 165.944017 174.567795 
L 167.454038 175.986935 
L 168.964059 169.876324 
L 171.984101 172.418341 
L 173.494123 173.040409 
L 175.004144 175.833062 
L 176.514165 173.878616 
L 178.024186 176.004339 
L 179.534207 174.941137 
L 181.044228 174.623896 
L 182.554249 174.078139 
L 184.064271 175.397546 
L 185.574292 170.210237 
L 187.084313 170.075228 
L 188.594334 165.567472 
L 190.104355 131.36787 
L 191.614376 173.152883 
L 193.124397 177.13213 
L 194.634419 171.543782 
L 196.14444 173.730585 
L 197.654461 174.70218 
L 199.164482 164.835208 
L 200.674503 171.322205 
L 202.184524 168.028295 
L 203.694545 169.582969 
L 205.204567 173.464704 
L 206.714588 176.475492 
L 208.224609 176.097897 
L 209.73463 177.210148 
L 211.244651 166.830963 
L 212.754672 170.741667 
L 214.264693 171.784728 
L 215.774715 159.460441 
L 217.284736 174.486917 
L 218.794757 170.775072 
L 220.304778 175.438856 
L 221.814799 175.560634 
L 223.32482 177.14009 
L 224.834841 172.085397 
L 226.344863 166.445339 
L 227.854884 172.068336 
L 229.364905 152.455199 
L 230.874926 163.769004 
L 232.384947 165.547408 
L 233.894968 162.801021 
L 235.404989 133.957842 
L 236.915011 100.582289 
L 238.425032 143.205723 
L 239.935053 144.483694 
L 241.445074 89.872747 
L 242.955095 134.915851 
L 244.465116 120.526425 
L 245.975137 128.352652 
L 247.485159 148.757781 
L 248.99518 141.289893 
L 250.505201 104.328539 
L 252.015222 114.792043 
L 253.525243 54.384579 
L 255.035264 83.092774 
L 256.545285 135.211491 
L 258.055307 140.43908 
L 259.565328 113.712606 
L 261.075349 128.365088 
L 262.58537 152.794596 
L 264.095391 161.130015 
L 265.605412 151.16267 
L 267.115433 157.641482 
L 268.625455 156.302426 
L 270.135476 144.843837 
L 271.645497 81.954704 
L 273.155518 106.355416 
L 274.665539 142.509191 
L 276.17556 152.525866 
L 277.685581 113.296185 
L 279.195603 134.049666 
L 280.705624 146.789814 
L 282.215645 121.823176 
L 283.725666 117.277366 
L 285.235687 106.882879 
L 286.745708 123.366724 
L 288.255729 129.342197 
L 289.765751 140.216453 
L 291.275772 156.554003 
L 292.785793 110.271975 
L 294.295814 148.854538 
L 295.805835 124.353414 
L 297.315856 150.890201 
L 298.825877 128.981382 
L 300.335899 161.237131 
L 301.84592 171.18004 
L 303.355941 140.048449 
L 304.865962 134.837553 
L 306.375983 140.451672 
L 307.886004 118.743051 
L 309.396025 146.989941 
L 310.906047 159.012273 
L 312.416068 146.182247 
L 313.926089 109.231773 
L 315.43611 167.009732 
L 316.946131 171.447562 
L 318.456152 165.693085 
L 319.966173 158.474959 
L 321.476195 173.178053 
L 322.986216 168.764693 
L 324.496237 140.708977 
L 326.006258 162.830607 
L 327.516279 144.92496 
L 329.0263 167.343949 
L 330.536321 174.762272 
L 332.046342 172.237715 
L 333.556364 175.245758 
L 335.066385 170.088895 
L 336.576406 135.834748 
L 338.086427 170.740097 
L 339.596448 175.285909 
L 342.61649 167.42746 
L 344.126512 175.413995 
L 345.636533 178.263837 
L 347.146554 169.892921 
L 348.656575 163.481637 
L 350.166596 160.465285 
L 351.676617 167.554008 
L 353.186638 160.884386 
L 354.69666 156.691785 
L 356.206681 164.334989 
L 357.716702 164.489622 
L 359.226723 175.436036 
L 360.736744 153.094679 
L 363.756786 166.232735 
L 365.266808 164.177734 
L 366.776829 170.38866 
L 368.28685 156.66719 
L 369.796871 165.952194 
L 371.306892 168.689999 
L 372.816913 168.737224 
L 374.326934 160.083324 
L 375.836956 163.917745 
L 377.346977 175.249628 
L 378.856998 145.420405 
L 380.367019 157.253107 
L 381.87704 167.852814 
L 383.387061 169.058983 
L 384.897082 173.275932 
L 386.407104 170.512489 
L 387.917125 176.690606 
L 389.427146 169.228292 
L 390.937167 170.253613 
L 392.447188 150.448801 
L 393.957209 151.174323 
L 395.46723 169.344709 
L 396.977252 137.020597 
L 398.487273 160.24282 
L 398.487273 160.24282 
" clip-path="url(#pd960f3430b)" style="fill: none; stroke: #f08080; stroke-opacity: 0.8; stroke-width: 0.5; stroke-linecap: square"/>
   </g>
   <g id="line2d_19">
    <path d="M 73.832727 197.144825 
L 75.342748 195.839264 
L 76.85277 190.774036 
L 78.362791 191.899669 
L 79.872812 186.213978 
L 81.382833 182.026139 
L 82.892854 185.752219 
L 84.402875 194.679686 
L 88.932939 183.169786 
L 90.44296 184.411333 
L 91.952981 180.93557 
L 93.463002 184.48106 
L 94.973023 184.243501 
L 96.483044 182.66585 
L 97.993066 188.45856 
L 99.503087 189.761322 
L 101.013108 179.354726 
L 102.523129 183.133475 
L 105.543171 181.158736 
L 108.563214 182.264875 
L 110.073235 180.015351 
L 111.583256 183.760434 
L 113.093277 179.153429 
L 114.603298 179.776369 
L 116.113319 179.769745 
L 117.62334 183.018836 
L 119.133362 186.586908 
L 120.643383 181.421337 
L 122.153404 184.991438 
L 123.663425 183.395972 
L 125.173446 182.66317 
L 126.683467 180.036411 
L 128.193488 179.567725 
L 129.70351 183.246728 
L 131.213531 182.820608 
L 132.723552 180.945378 
L 135.743594 179.400515 
L 137.253615 190.415621 
L 138.763636 180.701223 
L 140.273658 181.463825 
L 141.783679 182.880603 
L 143.2937 191.981381 
L 144.803721 193.287508 
L 146.313742 188.355203 
L 147.823763 185.705609 
L 149.333784 188.177607 
L 150.843805 198.099697 
L 152.353827 192.236258 
L 153.863848 195.162573 
L 155.373869 186.291133 
L 156.88389 191.004904 
L 158.393911 187.482671 
L 159.903932 187.934587 
L 161.413953 182.884928 
L 162.923975 179.419532 
L 165.944017 184.543588 
L 167.454038 182.221789 
L 168.964059 197.456876 
L 170.47408 182.518305 
L 171.984101 179.565468 
L 173.494123 183.674217 
L 175.004144 181.979542 
L 176.514165 188.97661 
L 178.024186 183.818383 
L 179.534207 184.871849 
L 181.044228 189.590011 
L 182.554249 185.771668 
L 184.064271 185.862735 
L 185.574292 185.631738 
L 187.084313 182.77381 
L 188.594334 183.862381 
L 190.104355 194.159996 
L 191.614376 189.249757 
L 193.124397 186.346765 
L 194.634419 186.380892 
L 196.14444 194.60226 
L 197.654461 189.454216 
L 199.164482 186.095811 
L 200.674503 184.178254 
L 202.184524 189.956171 
L 203.694545 181.077479 
L 205.204567 184.103202 
L 206.714588 183.419796 
L 208.224609 179.1559 
L 209.73463 196.094154 
L 211.244651 187.110497 
L 212.754672 184.282961 
L 214.264693 180.575529 
L 215.774715 183.08214 
L 217.284736 184.2918 
L 218.794757 186.838801 
L 220.304778 180.838893 
L 221.814799 182.553633 
L 223.32482 192.924185 
L 224.834841 201.365856 
L 226.344863 188.844072 
L 227.854884 193.18463 
L 229.364905 200.857466 
L 230.874926 190.373099 
L 232.384947 208.68456 
L 233.894968 222.14952 
L 235.404989 232.244855 
L 236.915011 213.052809 
L 238.425032 226.136965 
L 239.935053 295.488 
L 241.445074 243.150793 
L 242.955095 252.470294 
L 244.465116 238.422638 
L 245.975137 210.20663 
L 247.485159 233.237995 
L 248.99518 234.688473 
L 250.505201 189.254772 
L 252.015222 258.265303 
L 253.525243 246.12809 
L 255.035264 242.409958 
L 256.545285 204.664927 
L 258.055307 242.048672 
L 259.565328 197.689129 
L 261.075349 217.873747 
L 262.58537 192.817966 
L 264.095391 216.411192 
L 265.605412 212.539198 
L 267.115433 217.721617 
L 268.625455 232.510012 
L 270.135476 211.9242 
L 271.645497 206.113326 
L 273.155518 212.517842 
L 274.665539 247.95838 
L 276.17556 239.757125 
L 277.685581 246.339797 
L 279.195603 211.827559 
L 280.705624 245.863044 
L 282.215645 202.964797 
L 283.725666 216.940435 
L 285.235687 197.367307 
L 286.745708 216.624122 
L 288.255729 213.707543 
L 289.765751 200.669014 
L 291.275772 198.320201 
L 292.785793 200.623953 
L 294.295814 249.524361 
L 295.805835 210.352598 
L 297.315856 267.116671 
L 298.825877 230.756208 
L 300.335899 208.21439 
L 301.84592 215.47686 
L 303.355941 190.131345 
L 304.865962 196.129399 
L 306.375983 196.42008 
L 307.886004 209.718101 
L 309.396025 205.117593 
L 310.906047 193.80353 
L 312.416068 215.490056 
L 313.926089 188.362884 
L 315.43611 206.520775 
L 316.946131 197.178648 
L 318.456152 206.247978 
L 319.966173 206.361596 
L 321.476195 190.460329 
L 322.986216 191.821419 
L 324.496237 184.861798 
L 326.006258 190.186004 
L 327.516279 212.134339 
L 329.0263 193.317183 
L 330.536321 190.333941 
L 332.046342 182.451534 
L 333.556364 191.008117 
L 335.066385 193.960827 
L 336.576406 206.415495 
L 338.086427 185.846473 
L 339.596448 190.515197 
L 341.106469 188.141689 
L 342.61649 186.462218 
L 344.126512 181.449471 
L 345.636533 196.074059 
L 347.146554 204.383066 
L 348.656575 190.855549 
L 350.166596 186.660018 
L 351.676617 212.43069 
L 353.186638 186.559288 
L 354.69666 211.671832 
L 356.206681 216.761341 
L 357.716702 195.995291 
L 359.226723 200.127573 
L 360.736744 193.732855 
L 362.246765 195.409807 
L 363.756786 189.592199 
L 365.266808 184.719394 
L 366.776829 197.852837 
L 368.28685 202.395499 
L 369.796871 206.098451 
L 371.306892 187.146531 
L 372.816913 195.893342 
L 374.326934 183.533476 
L 377.346977 187.829725 
L 378.856998 180.444018 
L 380.367019 205.146307 
L 381.87704 186.562971 
L 383.387061 189.617001 
L 384.897082 195.046288 
L 386.407104 187.12796 
L 387.917125 200.569123 
L 389.427146 228.159598 
L 390.937167 194.643058 
L 392.447188 216.219358 
L 393.957209 204.512786 
L 395.46723 212.154674 
L 396.977252 201.317399 
L 398.487273 193.01185 
L 398.487273 193.01185 
" clip-path="url(#pd960f3430b)" style="fill: none; stroke: #f08080; stroke-opacity: 0.8; stroke-width: 0.5; stroke-linecap: square"/>
   </g>
   <g id="patch_3">
    <path d="M 57.6 307.584 
L 57.6 41.472 
" style="fill: none; stroke: #000000; stroke-width: 0.8; stroke-linejoin: miter; stroke-linecap: square"/>
   </g>
   <g id="patch_4">
    <path d="M 414.72 307.584 
L 414.72 41.472 
" style="fill: none; stroke: #000000; stroke-width: 0.8; stroke-linejoin: miter; stroke-linecap: square"/>
   </g>
   <g id="patch_5">
    <path d="M 57.6 307.584 
L 414.72 307.584 
" style="fill: none; stroke: #000000; stroke-width: 0.8; stroke-linejoin: miter; stroke-linecap: square"/>
   </g>
   <g id="patch_6">
    <path d="M 57.6 41.472 
L 414.72 41.472 
" style="fill: none; stroke: #000000; stroke-width: 0.8; stroke-linejoin: miter; stroke-linecap: square"/>
   </g>
   <g id="text_14">
    <!-- 1final_zhangext_pr_btcusd -->
    <g transform="translate(156.21375 35.472) scale(0.12 -0.12)">
     <defs>
      <path id="DejaVuSans-66" d="M 2375 4863 
L 2375 4384 
L 1825 4384 
Q 1516 4384 1395 4259 
Q 1275 4134 1275 3809 
L 1275 3500 
L 2222 3500 
L 2222 3053 
L 1275 3053 
L 1275 0 
L 697 0 
L 697 3053 
L 147 3053 
L 147 3500 
L 697 3500 
L 697 3744 
Q 697 4328 969 4595 
Q 1241 4863 1831 4863 
L 2375 4863 
z
" transform="scale(0.015625)"/>
      <path id="DejaVuSans-69" d="M 603 3500 
L 1178 3500 
L 1178 0 
L 603 0 
L 603 3500 
z
M 603 4863 
L 1178 4863 
L 1178 4134 
L 603 4134 
L 603 4863 
z
" transform="scale(0.015625)"/>
      <path id="DejaVuSans-6e" d="M 3513 2113 
L 3513 0 
L 2938 0 
L 2938 2094 
Q 2938 2591 2744 2837 
Q 2550 3084 2163 3084 
Q 1697 3084 1428 2787 
Q 1159 2491 1159 1978 
L 1159 0 
L 581 0 
L 581 3500 
L 1159 3500 
L 1159 2956 
Q 1366 3272 1645 3428 
Q 1925 3584 2291 3584 
Q 2894 3584 3203 3211 
Q 3513 2838 3513 2113 
z
" transform="scale(0.015625)"/>
      <path id="DejaVuSans-61" d="M 2194 1759 
Q 1497 1759 1228 1600 
Q 959 1441 959 1056 
Q 959 750 1161 570 
Q 1363 391 1709 391 
Q 2188 391 2477 730 
Q 2766 1069 2766 1631 
L 2766 1759 
L 2194 1759 
z
M 3341 1997 
L 3341 0 
L 2766 0 
L 2766 531 
Q 2569 213 2275 61 
Q 1981 -91 1556 -91 
Q 1019 -91 701 211 
Q 384 513 384 1019 
Q 384 1609 779 1909 
Q 1175 2209 1959 2209 
L 2766 2209 
L 2766 2266 
Q 2766 2663 2505 2880 
Q 2244 3097 1772 3097 
Q 1472 3097 1187 3025 
Q 903 2953 641 2809 
L 641 3341 
Q 956 3463 1253 3523 
Q 1550 3584 1831 3584 
Q 2591 3584 2966 3190 
Q 3341 2797 3341 1997 
z
" transform="scale(0.015625)"/>
      <path id="DejaVuSans-6c" d="M 603 4863 
L 1178 4863 
L 1178 0 
L 603 0 
L 603 4863 
z
" transform="scale(0.015625)"/>
      <path id="DejaVuSans-5f" d="M 3263 -1063 
L 3263 -1509 
L -63 -1509 
L -63 -1063 
L 3263 -1063 
z
" transform="scale(0.015625)"/>
      <path id="DejaVuSans-7a" d="M 353 3500 
L 3084 3500 
L 3084 2975 
L 922 459 
L 3084 459 
L 3084 0 
L 275 0 
L 275 525 
L 2438 3041 
L 353 3041 
L 353 3500 
z
" transform="scale(0.015625)"/>
      <path id="DejaVuSans-68" d="M 3513 2113 
L 3513 0 
L 2938 0 
L 2938 2094 
Q 2938 2591 2744 2837 
Q 2550 3084 2163 3084 
Q 1697 3084 1428 2787 
Q 1159 2491 1159 1978 
L 1159 0 
L 581 0 
L 581 4863 
L 1159 4863 
L 1159 2956 
Q 1366 3272 1645 3428 
Q 1925 3584 2291 3584 
Q 2894 3584 3203 3211 
Q 3513 2838 3513 2113 
z
" transform="scale(0.015625)"/>
      <path id="DejaVuSans-67" d="M 2906 1791 
Q 2906 2416 2648 2759 
Q 2391 3103 1925 3103 
Q 1463 3103 1205 2759 
Q 947 2416 947 1791 
Q 947 1169 1205 825 
Q 1463 481 1925 481 
Q 2391 481 2648 825 
Q 2906 1169 2906 1791 
z
M 3481 434 
Q 3481 -459 3084 -895 
Q 2688 -1331 1869 -1331 
Q 1566 -1331 1297 -1286 
Q 1028 -1241 775 -1147 
L 775 -588 
Q 1028 -725 1275 -790 
Q 1522 -856 1778 -856 
Q 2344 -856 2625 -561 
Q 2906 -266 2906 331 
L 2906 616 
Q 2728 306 2450 153 
Q 2172 0 1784 0 
Q 1141 0 747 490 
Q 353 981 353 1791 
Q 353 2603 747 3093 
Q 1141 3584 1784 3584 
Q 2172 3584 2450 3431 
Q 2728 3278 2906 2969 
L 2906 3500 
L 3481 3500 
L 3481 434 
z
" transform="scale(0.015625)"/>
      <path id="DejaVuSans-65" d="M 3597 1894 
L 3597 1613 
L 953 1613 
Q 991 1019 1311 708 
Q 1631 397 2203 397 
Q 2534 397 2845 478 
Q 3156 559 3463 722 
L 3463 178 
Q 3153 47 2828 -22 
Q 2503 -91 2169 -91 
Q 1331 -91 842 396 
Q 353 884 353 1716 
Q 353 2575 817 3079 
Q 1281 3584 2069 3584 
Q 2775 3584 3186 3129 
Q 3597 2675 3597 1894 
z
M 3022 2063 
Q 3016 2534 2758 2815 
Q 2500 3097 2075 3097 
Q 1594 3097 1305 2825 
Q 1016 2553 972 2059 
L 3022 2063 
z
" transform="scale(0.015625)"/>
      <path id="DejaVuSans-78" d="M 3513 3500 
L 2247 1797 
L 3578 0 
L 2900 0 
L 1881 1375 
L 863 0 
L 184 0 
L 1544 1831 
L 300 3500 
L 978 3500 
L 1906 2253 
L 2834 3500 
L 3513 3500 
z
" transform="scale(0.015625)"/>
      <path id="DejaVuSans-74" d="M 1172 4494 
L 1172 3500 
L 2356 3500 
L 2356 3053 
L 1172 3053 
L 1172 1153 
Q 1172 725 1289 603 
Q 1406 481 1766 481 
L 2356 481 
L 2356 0 
L 1766 0 
Q 1100 0 847 248 
Q 594 497 594 1153 
L 594 3053 
L 172 3053 
L 172 3500 
L 594 3500 
L 594 4494 
L 1172 4494 
z
" transform="scale(0.015625)"/>
      <path id="DejaVuSans-70" d="M 1159 525 
L 1159 -1331 
L 581 -1331 
L 581 3500 
L 1159 3500 
L 1159 2969 
Q 1341 3281 1617 3432 
Q 1894 3584 2278 3584 
Q 2916 3584 3314 3078 
Q 3713 2572 3713 1747 
Q 3713 922 3314 415 
Q 2916 -91 2278 -91 
Q 1894 -91 1617 61 
Q 1341 213 1159 525 
z
M 3116 1747 
Q 3116 2381 2855 2742 
Q 2594 3103 2138 3103 
Q 1681 3103 1420 2742 
Q 1159 2381 1159 1747 
Q 1159 1113 1420 752 
Q 1681 391 2138 391 
Q 2594 391 2855 752 
Q 3116 1113 3116 1747 
z
" transform="scale(0.015625)"/>
      <path id="DejaVuSans-72" d="M 2631 2963 
Q 2534 3019 2420 3045 
Q 2306 3072 2169 3072 
Q 1681 3072 1420 2755 
Q 1159 2438 1159 1844 
L 1159 0 
L 581 0 
L 581 3500 
L 1159 3500 
L 1159 2956 
Q 1341 3275 1631 3429 
Q 1922 3584 2338 3584 
Q 2397 3584 2469 3576 
Q 2541 3569 2628 3553 
L 2631 2963 
z
" transform="scale(0.015625)"/>
      <path id="DejaVuSans-62" d="M 3116 1747 
Q 3116 2381 2855 2742 
Q 2594 3103 2138 3103 
Q 1681 3103 1420 2742 
Q 1159 2381 1159 1747 
Q 1159 1113 1420 752 
Q 1681 391 2138 391 
Q 2594 391 2855 752 
Q 3116 1113 3116 1747 
z
M 1159 2969 
Q 1341 3281 1617 3432 
Q 1894 3584 2278 3584 
Q 2916 3584 3314 3078 
Q 3713 2572 3713 1747 
Q 3713 922 3314 415 
Q 2916 -91 2278 -91 
Q 1894 -91 1617 61 
Q 1341 213 1159 525 
L 1159 0 
L 581 0 
L 581 4863 
L 1159 4863 
L 1159 2969 
z
" transform="scale(0.015625)"/>
      <path id="DejaVuSans-63" d="M 3122 3366 
L 3122 2828 
Q 2878 2963 2633 3030 
Q 2388 3097 2138 3097 
Q 1578 3097 1268 2742 
Q 959 2388 959 1747 
Q 959 1106 1268 751 
Q 1578 397 2138 397 
Q 2388 397 2633 464 
Q 2878 531 3122 666 
L 3122 134 
Q 2881 22 2623 -34 
Q 2366 -91 2075 -91 
Q 1284 -91 818 406 
Q 353 903 353 1747 
Q 353 2603 823 3093 
Q 1294 3584 2113 3584 
Q 2378 3584 2631 3529 
Q 2884 3475 3122 3366 
z
" transform="scale(0.015625)"/>
      <path id="DejaVuSans-75" d="M 544 1381 
L 544 3500 
L 1119 3500 
L 1119 1403 
Q 1119 906 1312 657 
Q 1506 409 1894 409 
Q 2359 409 2629 706 
Q 2900 1003 2900 1516 
L 2900 3500 
L 3475 3500 
L 3475 0 
L 2900 0 
L 2900 538 
Q 2691 219 2414 64 
Q 2138 -91 1772 -91 
Q 1169 -91 856 284 
Q 544 659 544 1381 
z
M 1991 3584 
L 1991 3584 
z
" transform="scale(0.015625)"/>
      <path id="DejaVuSans-73" d="M 2834 3397 
L 2834 2853 
Q 2591 2978 2328 3040 
Q 2066 3103 1784 3103 
Q 1356 3103 1142 2972 
Q 928 2841 928 2578 
Q 928 2378 1081 2264 
Q 1234 2150 1697 2047 
L 1894 2003 
Q 2506 1872 2764 1633 
Q 3022 1394 3022 966 
Q 3022 478 2636 193 
Q 2250 -91 1575 -91 
Q 1294 -91 989 -36 
Q 684 19 347 128 
L 347 722 
Q 666 556 975 473 
Q 1284 391 1588 391 
Q 1994 391 2212 530 
Q 2431 669 2431 922 
Q 2431 1156 2273 1281 
Q 2116 1406 1581 1522 
L 1381 1569 
Q 847 1681 609 1914 
Q 372 2147 372 2553 
Q 372 3047 722 3315 
Q 1072 3584 1716 3584 
Q 2034 3584 2315 3537 
Q 2597 3491 2834 3397 
z
" transform="scale(0.015625)"/>
      <path id="DejaVuSans-64" d="M 2906 2969 
L 2906 4863 
L 3481 4863 
L 3481 0 
L 2906 0 
L 2906 525 
Q 2725 213 2448 61 
Q 2172 -91 1784 -91 
Q 1150 -91 751 415 
Q 353 922 353 1747 
Q 353 2572 751 3078 
Q 1150 3584 1784 3584 
Q 2172 3584 2448 3432 
Q 2725 3281 2906 2969 
z
M 947 1747 
Q 947 1113 1208 752 
Q 1469 391 1925 391 
Q 2381 391 2643 752 
Q 2906 1113 2906 1747 
Q 2906 2381 2643 2742 
Q 2381 3103 1925 3103 
Q 1469 3103 1208 2742 
Q 947 2381 947 1747 
z
" transform="scale(0.015625)"/>
     </defs>
     <use xlink:href="#DejaVuSans-31"/>
     <use xlink:href="#DejaVuSans-66" x="63.623047"/>
     <use xlink:href="#DejaVuSans-69" x="98.828125"/>
     <use xlink:href="#DejaVuSans-6e" x="126.611328"/>
     <use xlink:href="#DejaVuSans-61" x="189.990234"/>
     <use xlink:href="#DejaVuSans-6c" x="251.269531"/>
     <use xlink:href="#DejaVuSans-5f" x="279.052734"/>
     <use xlink:href="#DejaVuSans-7a" x="329.052734"/>
     <use xlink:href="#DejaVuSans-68" x="381.542969"/>
     <use xlink:href="#DejaVuSans-61" x="444.921875"/>
     <use xlink:href="#DejaVuSans-6e" x="506.201172"/>
     <use xlink:href="#DejaVuSans-67" x="569.580078"/>
     <use xlink:href="#DejaVuSans-65" x="633.056641"/>
     <use xlink:href="#DejaVuSans-78" x="692.830078"/>
     <use xlink:href="#DejaVuSans-74" x="752.009766"/>
     <use xlink:href="#DejaVuSans-5f" x="791.21875"/>
     <use xlink:href="#DejaVuSans-70" x="841.21875"/>
     <use xlink:href="#DejaVuSans-72" x="904.695312"/>
     <use xlink:href="#DejaVuSans-5f" x="945.808594"/>
     <use xlink:href="#DejaVuSans-62" x="995.808594"/>
     <use xlink:href="#DejaVuSans-74" x="1059.285156"/>
     <use xlink:href="#DejaVuSans-63" x="1098.494141"/>
     <use xlink:href="#DejaVuSans-75" x="1153.474609"/>
     <use xlink:href="#DejaVuSans-73" x="1216.853516"/>
     <use xlink:href="#DejaVuSans-64" x="1268.953125"/>
    </g>
   </g>
   <g id="legend_1">
    <g id="patch_7">
     <path d="M 64.6 302.584 
L 225.001563 302.584 
Q 227.001563 302.584 227.001563 300.584 
L 227.001563 213.51525 
Q 227.001563 211.51525 225.001563 211.51525 
L 64.6 211.51525 
Q 62.6 211.51525 62.6 213.51525 
L 62.6 300.584 
Q 62.6 302.584 64.6 302.584 
z
" style="fill: #ffffff; opacity: 0.8; stroke: #cccccc; stroke-linejoin: miter"/>
    </g>
    <g id="line2d_20">
     <path d="M 66.6 219.613687 
L 76.6 219.613687 
L 86.6 219.613687 
" style="fill: none; stroke: #008000; stroke-opacity: 0.8; stroke-width: 0.5; stroke-linecap: square"/>
    </g>
    <g id="text_15">
     <!-- Positive predictions -->
     <g transform="translate(94.6 223.113687) scale(0.1 -0.1)">
      <defs>
       <path id="DejaVuSans-50" d="M 1259 4147 
L 1259 2394 
L 2053 2394 
Q 2494 2394 2734 2622 
Q 2975 2850 2975 3272 
Q 2975 3691 2734 3919 
Q 2494 4147 2053 4147 
L 1259 4147 
z
M 628 4666 
L 2053 4666 
Q 2838 4666 3239 4311 
Q 3641 3956 3641 3272 
Q 3641 2581 3239 2228 
Q 2838 1875 2053 1875 
L 1259 1875 
L 1259 0 
L 628 0 
L 628 4666 
z
" transform="scale(0.015625)"/>
       <path id="DejaVuSans-6f" d="M 1959 3097 
Q 1497 3097 1228 2736 
Q 959 2375 959 1747 
Q 959 1119 1226 758 
Q 1494 397 1959 397 
Q 2419 397 2687 759 
Q 2956 1122 2956 1747 
Q 2956 2369 2687 2733 
Q 2419 3097 1959 3097 
z
M 1959 3584 
Q 2709 3584 3137 3096 
Q 3566 2609 3566 1747 
Q 3566 888 3137 398 
Q 2709 -91 1959 -91 
Q 1206 -91 779 398 
Q 353 888 353 1747 
Q 353 2609 779 3096 
Q 1206 3584 1959 3584 
z
" transform="scale(0.015625)"/>
       <path id="DejaVuSans-76" d="M 191 3500 
L 800 3500 
L 1894 563 
L 2988 3500 
L 3597 3500 
L 2284 0 
L 1503 0 
L 191 3500 
z
" transform="scale(0.015625)"/>
       <path id="DejaVuSans-20" transform="scale(0.015625)"/>
      </defs>
      <use xlink:href="#DejaVuSans-50"/>
      <use xlink:href="#DejaVuSans-6f" x="56.677734"/>
      <use xlink:href="#DejaVuSans-73" x="117.859375"/>
      <use xlink:href="#DejaVuSans-69" x="169.958984"/>
      <use xlink:href="#DejaVuSans-74" x="197.742188"/>
      <use xlink:href="#DejaVuSans-69" x="236.951172"/>
      <use xlink:href="#DejaVuSans-76" x="264.734375"/>
      <use xlink:href="#DejaVuSans-65" x="323.914062"/>
      <use xlink:href="#DejaVuSans-20" x="385.4375"/>
      <use xlink:href="#DejaVuSans-70" x="417.224609"/>
      <use xlink:href="#DejaVuSans-72" x="480.701172"/>
      <use xlink:href="#DejaVuSans-65" x="519.564453"/>
      <use xlink:href="#DejaVuSans-64" x="581.087891"/>
      <use xlink:href="#DejaVuSans-69" x="644.564453"/>
      <use xlink:href="#DejaVuSans-63" x="672.347656"/>
      <use xlink:href="#DejaVuSans-74" x="727.328125"/>
      <use xlink:href="#DejaVuSans-69" x="766.537109"/>
      <use xlink:href="#DejaVuSans-6f" x="794.320312"/>
      <use xlink:href="#DejaVuSans-6e" x="855.501953"/>
      <use xlink:href="#DejaVuSans-73" x="918.880859"/>
     </g>
    </g>
    <g id="line2d_21">
     <path d="M 66.6 234.291812 
L 76.6 234.291812 
L 86.6 234.291812 
" style="fill: none; stroke: #32cd32; stroke-opacity: 0.8; stroke-width: 0.5; stroke-linecap: square"/>
    </g>
    <g id="text_16">
     <!-- Positive predictions max -->
     <g transform="translate(94.6 237.791812) scale(0.1 -0.1)">
      <defs>
       <path id="DejaVuSans-6d" d="M 3328 2828 
Q 3544 3216 3844 3400 
Q 4144 3584 4550 3584 
Q 5097 3584 5394 3201 
Q 5691 2819 5691 2113 
L 5691 0 
L 5113 0 
L 5113 2094 
Q 5113 2597 4934 2840 
Q 4756 3084 4391 3084 
Q 3944 3084 3684 2787 
Q 3425 2491 3425 1978 
L 3425 0 
L 2847 0 
L 2847 2094 
Q 2847 2600 2669 2842 
Q 2491 3084 2119 3084 
Q 1678 3084 1418 2786 
Q 1159 2488 1159 1978 
L 1159 0 
L 581 0 
L 581 3500 
L 1159 3500 
L 1159 2956 
Q 1356 3278 1631 3431 
Q 1906 3584 2284 3584 
Q 2666 3584 2933 3390 
Q 3200 3197 3328 2828 
z
" transform="scale(0.015625)"/>
      </defs>
      <use xlink:href="#DejaVuSans-50"/>
      <use xlink:href="#DejaVuSans-6f" x="56.677734"/>
      <use xlink:href="#DejaVuSans-73" x="117.859375"/>
      <use xlink:href="#DejaVuSans-69" x="169.958984"/>
      <use xlink:href="#DejaVuSans-74" x="197.742188"/>
      <use xlink:href="#DejaVuSans-69" x="236.951172"/>
      <use xlink:href="#DejaVuSans-76" x="264.734375"/>
      <use xlink:href="#DejaVuSans-65" x="323.914062"/>
      <use xlink:href="#DejaVuSans-20" x="385.4375"/>
      <use xlink:href="#DejaVuSans-70" x="417.224609"/>
      <use xlink:href="#DejaVuSans-72" x="480.701172"/>
      <use xlink:href="#DejaVuSans-65" x="519.564453"/>
      <use xlink:href="#DejaVuSans-64" x="581.087891"/>
      <use xlink:href="#DejaVuSans-69" x="644.564453"/>
      <use xlink:href="#DejaVuSans-63" x="672.347656"/>
      <use xlink:href="#DejaVuSans-74" x="727.328125"/>
      <use xlink:href="#DejaVuSans-69" x="766.537109"/>
      <use xlink:href="#DejaVuSans-6f" x="794.320312"/>
      <use xlink:href="#DejaVuSans-6e" x="855.501953"/>
      <use xlink:href="#DejaVuSans-73" x="918.880859"/>
      <use xlink:href="#DejaVuSans-20" x="970.980469"/>
      <use xlink:href="#DejaVuSans-6d" x="1002.767578"/>
      <use xlink:href="#DejaVuSans-61" x="1100.179688"/>
      <use xlink:href="#DejaVuSans-78" x="1161.458984"/>
     </g>
    </g>
    <g id="line2d_22">
     <path d="M 66.6 248.969937 
L 76.6 248.969937 
L 86.6 248.969937 
" style="fill: none; stroke: #32cd32; stroke-opacity: 0.8; stroke-width: 0.5; stroke-linecap: square"/>
    </g>
    <g id="text_17">
     <!-- Positive predictions min -->
     <g transform="translate(94.6 252.469937) scale(0.1 -0.1)">
      <use xlink:href="#DejaVuSans-50"/>
      <use xlink:href="#DejaVuSans-6f" x="56.677734"/>
      <use xlink:href="#DejaVuSans-73" x="117.859375"/>
      <use xlink:href="#DejaVuSans-69" x="169.958984"/>
      <use xlink:href="#DejaVuSans-74" x="197.742188"/>
      <use xlink:href="#DejaVuSans-69" x="236.951172"/>
      <use xlink:href="#DejaVuSans-76" x="264.734375"/>
      <use xlink:href="#DejaVuSans-65" x="323.914062"/>
      <use xlink:href="#DejaVuSans-20" x="385.4375"/>
      <use xlink:href="#DejaVuSans-70" x="417.224609"/>
      <use xlink:href="#DejaVuSans-72" x="480.701172"/>
      <use xlink:href="#DejaVuSans-65" x="519.564453"/>
      <use xlink:href="#DejaVuSans-64" x="581.087891"/>
      <use xlink:href="#DejaVuSans-69" x="644.564453"/>
      <use xlink:href="#DejaVuSans-63" x="672.347656"/>
      <use xlink:href="#DejaVuSans-74" x="727.328125"/>
      <use xlink:href="#DejaVuSans-69" x="766.537109"/>
      <use xlink:href="#DejaVuSans-6f" x="794.320312"/>
      <use xlink:href="#DejaVuSans-6e" x="855.501953"/>
      <use xlink:href="#DejaVuSans-73" x="918.880859"/>
      <use xlink:href="#DejaVuSans-20" x="970.980469"/>
      <use xlink:href="#DejaVuSans-6d" x="1002.767578"/>
      <use xlink:href="#DejaVuSans-69" x="1100.179688"/>
      <use xlink:href="#DejaVuSans-6e" x="1127.962891"/>
     </g>
    </g>
    <g id="line2d_23">
     <path d="M 66.6 263.648062 
L 76.6 263.648062 
L 86.6 263.648062 
" style="fill: none; stroke: #ff0000; stroke-opacity: 0.8; stroke-width: 0.5; stroke-linecap: square"/>
    </g>
    <g id="text_18">
     <!-- Negative predictions -->
     <g transform="translate(94.6 267.148062) scale(0.1 -0.1)">
      <defs>
       <path id="DejaVuSans-4e" d="M 628 4666 
L 1478 4666 
L 3547 763 
L 3547 4666 
L 4159 4666 
L 4159 0 
L 3309 0 
L 1241 3903 
L 1241 0 
L 628 0 
L 628 4666 
z
" transform="scale(0.015625)"/>
      </defs>
      <use xlink:href="#DejaVuSans-4e"/>
      <use xlink:href="#DejaVuSans-65" x="74.804688"/>
      <use xlink:href="#DejaVuSans-67" x="136.328125"/>
      <use xlink:href="#DejaVuSans-61" x="199.804688"/>
      <use xlink:href="#DejaVuSans-74" x="261.083984"/>
      <use xlink:href="#DejaVuSans-69" x="300.292969"/>
      <use xlink:href="#DejaVuSans-76" x="328.076172"/>
      <use xlink:href="#DejaVuSans-65" x="387.255859"/>
      <use xlink:href="#DejaVuSans-20" x="448.779297"/>
      <use xlink:href="#DejaVuSans-70" x="480.566406"/>
      <use xlink:href="#DejaVuSans-72" x="544.042969"/>
      <use xlink:href="#DejaVuSans-65" x="582.90625"/>
      <use xlink:href="#DejaVuSans-64" x="644.429688"/>
      <use xlink:href="#DejaVuSans-69" x="707.90625"/>
      <use xlink:href="#DejaVuSans-63" x="735.689453"/>
      <use xlink:href="#DejaVuSans-74" x="790.669922"/>
      <use xlink:href="#DejaVuSans-69" x="829.878906"/>
      <use xlink:href="#DejaVuSans-6f" x="857.662109"/>
      <use xlink:href="#DejaVuSans-6e" x="918.84375"/>
      <use xlink:href="#DejaVuSans-73" x="982.222656"/>
     </g>
    </g>
    <g id="line2d_24">
     <path d="M 66.6 278.326188 
L 76.6 278.326188 
L 86.6 278.326188 
" style="fill: none; stroke: #f08080; stroke-opacity: 0.8; stroke-width: 0.5; stroke-linecap: square"/>
    </g>
    <g id="text_19">
     <!-- Negative predictions max -->
     <g transform="translate(94.6 281.826188) scale(0.1 -0.1)">
      <use xlink:href="#DejaVuSans-4e"/>
      <use xlink:href="#DejaVuSans-65" x="74.804688"/>
      <use xlink:href="#DejaVuSans-67" x="136.328125"/>
      <use xlink:href="#DejaVuSans-61" x="199.804688"/>
      <use xlink:href="#DejaVuSans-74" x="261.083984"/>
      <use xlink:href="#DejaVuSans-69" x="300.292969"/>
      <use xlink:href="#DejaVuSans-76" x="328.076172"/>
      <use xlink:href="#DejaVuSans-65" x="387.255859"/>
      <use xlink:href="#DejaVuSans-20" x="448.779297"/>
      <use xlink:href="#DejaVuSans-70" x="480.566406"/>
      <use xlink:href="#DejaVuSans-72" x="544.042969"/>
      <use xlink:href="#DejaVuSans-65" x="582.90625"/>
      <use xlink:href="#DejaVuSans-64" x="644.429688"/>
      <use xlink:href="#DejaVuSans-69" x="707.90625"/>
      <use xlink:href="#DejaVuSans-63" x="735.689453"/>
      <use xlink:href="#DejaVuSans-74" x="790.669922"/>
      <use xlink:href="#DejaVuSans-69" x="829.878906"/>
      <use xlink:href="#DejaVuSans-6f" x="857.662109"/>
      <use xlink:href="#DejaVuSans-6e" x="918.84375"/>
      <use xlink:href="#DejaVuSans-73" x="982.222656"/>
      <use xlink:href="#DejaVuSans-20" x="1034.322266"/>
      <use xlink:href="#DejaVuSans-6d" x="1066.109375"/>
      <use xlink:href="#DejaVuSans-61" x="1163.521484"/>
      <use xlink:href="#DejaVuSans-78" x="1224.800781"/>
     </g>
    </g>
    <g id="line2d_25">
     <path d="M 66.6 293.004312 
L 76.6 293.004312 
L 86.6 293.004312 
" style="fill: none; stroke: #f08080; stroke-opacity: 0.8; stroke-width: 0.5; stroke-linecap: square"/>
    </g>
    <g id="text_20">
     <!-- Negative predictions min -->
     <g transform="translate(94.6 296.504312) scale(0.1 -0.1)">
      <use xlink:href="#DejaVuSans-4e"/>
      <use xlink:href="#DejaVuSans-65" x="74.804688"/>
      <use xlink:href="#DejaVuSans-67" x="136.328125"/>
      <use xlink:href="#DejaVuSans-61" x="199.804688"/>
      <use xlink:href="#DejaVuSans-74" x="261.083984"/>
      <use xlink:href="#DejaVuSans-69" x="300.292969"/>
      <use xlink:href="#DejaVuSans-76" x="328.076172"/>
      <use xlink:href="#DejaVuSans-65" x="387.255859"/>
      <use xlink:href="#DejaVuSans-20" x="448.779297"/>
      <use xlink:href="#DejaVuSans-70" x="480.566406"/>
      <use xlink:href="#DejaVuSans-72" x="544.042969"/>
      <use xlink:href="#DejaVuSans-65" x="582.90625"/>
      <use xlink:href="#DejaVuSans-64" x="644.429688"/>
      <use xlink:href="#DejaVuSans-69" x="707.90625"/>
      <use xlink:href="#DejaVuSans-63" x="735.689453"/>
      <use xlink:href="#DejaVuSans-74" x="790.669922"/>
      <use xlink:href="#DejaVuSans-69" x="829.878906"/>
      <use xlink:href="#DejaVuSans-6f" x="857.662109"/>
      <use xlink:href="#DejaVuSans-6e" x="918.84375"/>
      <use xlink:href="#DejaVuSans-73" x="982.222656"/>
      <use xlink:href="#DejaVuSans-20" x="1034.322266"/>
      <use xlink:href="#DejaVuSans-6d" x="1066.109375"/>
      <use xlink:href="#DejaVuSans-69" x="1163.521484"/>
      <use xlink:href="#DejaVuSans-6e" x="1191.304688"/>
     </g>
    </g>
   </g>
  </g>
 </g>
 <defs>
  <clipPath id="pd960f3430b">
   <rect x="57.6" y="41.472" width="357.12" height="266.112"/>
  </clipPath>
 </defs>
</svg>
