<?xml version="1.0" encoding="utf-8" standalone="no"?>
<!DOCTYPE svg PUBLIC "-//W3C//DTD SVG 1.1//EN"
  "http://www.w3.org/Graphics/SVG/1.1/DTD/svg11.dtd">
<svg xmlns:xlink="http://www.w3.org/1999/xlink" width="460.8pt" height="345.6pt" viewBox="0 0 460.8 345.6" xmlns="http://www.w3.org/2000/svg" version="1.1">
 <metadata>
  <rdf:RDF xmlns:dc="http://purl.org/dc/elements/1.1/" xmlns:cc="http://creativecommons.org/ns#" xmlns:rdf="http://www.w3.org/1999/02/22-rdf-syntax-ns#">
   <cc:Work>
    <dc:type rdf:resource="http://purl.org/dc/dcmitype/StillImage"/>
    <dc:date>2024-09-06T00:42:58.363950</dc:date>
    <dc:format>image/svg+xml</dc:format>
    <dc:creator>
     <cc:Agent>
      <dc:title>Matplotlib v3.9.0, https://matplotlib.org/</dc:title>
     </cc:Agent>
    </dc:creator>
   </cc:Work>
  </rdf:RDF>
 </metadata>
 <defs>
  <style type="text/css">*{stroke-linejoin: round; stroke-linecap: butt}</style>
 </defs>
 <g id="figure_1">
  <g id="patch_1">
   <path d="M 0 345.6 
L 460.8 345.6 
L 460.8 0 
L 0 0 
z
" style="fill: #ffffff"/>
  </g>
  <g id="axes_1">
   <g id="patch_2">
    <path d="M 57.6 307.584 
L 414.72 307.584 
L 414.72 41.472 
L 57.6 41.472 
z
" style="fill: #ffffff"/>
   </g>
   <g id="matplotlib.axis_1">
    <g id="xtick_1">
     <g id="line2d_1">
      <defs>
       <path id="mc1cb395c0f" d="M 0 0 
L 0 3.5 
" style="stroke: #000000; stroke-width: 0.8"/>
      </defs>
      <g>
       <use xlink:href="#mc1cb395c0f" x="73.832727" y="307.584" style="stroke: #000000; stroke-width: 0.8"/>
      </g>
     </g>
     <g id="text_1">
      <!-- 0 -->
      <g transform="translate(70.651477 322.182437) scale(0.1 -0.1)">
       <defs>
        <path id="DejaVuSans-30" d="M 2034 4250 
Q 1547 4250 1301 3770 
Q 1056 3291 1056 2328 
Q 1056 1369 1301 889 
Q 1547 409 2034 409 
Q 2525 409 2770 889 
Q 3016 1369 3016 2328 
Q 3016 3291 2770 3770 
Q 2525 4250 2034 4250 
z
M 2034 4750 
Q 2819 4750 3233 4129 
Q 3647 3509 3647 2328 
Q 3647 1150 3233 529 
Q 2819 -91 2034 -91 
Q 1250 -91 836 529 
Q 422 1150 422 2328 
Q 422 3509 836 4129 
Q 1250 4750 2034 4750 
z
" transform="scale(0.015625)"/>
       </defs>
       <use xlink:href="#DejaVuSans-30"/>
      </g>
     </g>
    </g>
    <g id="xtick_2">
     <g id="line2d_2">
      <g>
       <use xlink:href="#mc1cb395c0f" x="149.333784" y="307.584" style="stroke: #000000; stroke-width: 0.8"/>
      </g>
     </g>
     <g id="text_2">
      <!-- 50 -->
      <g transform="translate(142.971284 322.182437) scale(0.1 -0.1)">
       <defs>
        <path id="DejaVuSans-35" d="M 691 4666 
L 3169 4666 
L 3169 4134 
L 1269 4134 
L 1269 2991 
Q 1406 3038 1543 3061 
Q 1681 3084 1819 3084 
Q 2600 3084 3056 2656 
Q 3513 2228 3513 1497 
Q 3513 744 3044 326 
Q 2575 -91 1722 -91 
Q 1428 -91 1123 -41 
Q 819 9 494 109 
L 494 744 
Q 775 591 1075 516 
Q 1375 441 1709 441 
Q 2250 441 2565 725 
Q 2881 1009 2881 1497 
Q 2881 1984 2565 2268 
Q 2250 2553 1709 2553 
Q 1456 2553 1204 2497 
Q 953 2441 691 2322 
L 691 4666 
z
" transform="scale(0.015625)"/>
       </defs>
       <use xlink:href="#DejaVuSans-35"/>
       <use xlink:href="#DejaVuSans-30" x="63.623047"/>
      </g>
     </g>
    </g>
    <g id="xtick_3">
     <g id="line2d_3">
      <g>
       <use xlink:href="#mc1cb395c0f" x="224.834841" y="307.584" style="stroke: #000000; stroke-width: 0.8"/>
      </g>
     </g>
     <g id="text_3">
      <!-- 100 -->
      <g transform="translate(215.291091 322.182437) scale(0.1 -0.1)">
       <defs>
        <path id="DejaVuSans-31" d="M 794 531 
L 1825 531 
L 1825 4091 
L 703 3866 
L 703 4441 
L 1819 4666 
L 2450 4666 
L 2450 531 
L 3481 531 
L 3481 0 
L 794 0 
L 794 531 
z
" transform="scale(0.015625)"/>
       </defs>
       <use xlink:href="#DejaVuSans-31"/>
       <use xlink:href="#DejaVuSans-30" x="63.623047"/>
       <use xlink:href="#DejaVuSans-30" x="127.246094"/>
      </g>
     </g>
    </g>
    <g id="xtick_4">
     <g id="line2d_4">
      <g>
       <use xlink:href="#mc1cb395c0f" x="300.335899" y="307.584" style="stroke: #000000; stroke-width: 0.8"/>
      </g>
     </g>
     <g id="text_4">
      <!-- 150 -->
      <g transform="translate(290.792149 322.182437) scale(0.1 -0.1)">
       <use xlink:href="#DejaVuSans-31"/>
       <use xlink:href="#DejaVuSans-35" x="63.623047"/>
       <use xlink:href="#DejaVuSans-30" x="127.246094"/>
      </g>
     </g>
    </g>
    <g id="xtick_5">
     <g id="line2d_5">
      <g>
       <use xlink:href="#mc1cb395c0f" x="375.836956" y="307.584" style="stroke: #000000; stroke-width: 0.8"/>
      </g>
     </g>
     <g id="text_5">
      <!-- 200 -->
      <g transform="translate(366.293206 322.182437) scale(0.1 -0.1)">
       <defs>
        <path id="DejaVuSans-32" d="M 1228 531 
L 3431 531 
L 3431 0 
L 469 0 
L 469 531 
Q 828 903 1448 1529 
Q 2069 2156 2228 2338 
Q 2531 2678 2651 2914 
Q 2772 3150 2772 3378 
Q 2772 3750 2511 3984 
Q 2250 4219 1831 4219 
Q 1534 4219 1204 4116 
Q 875 4013 500 3803 
L 500 4441 
Q 881 4594 1212 4672 
Q 1544 4750 1819 4750 
Q 2544 4750 2975 4387 
Q 3406 4025 3406 3419 
Q 3406 3131 3298 2873 
Q 3191 2616 2906 2266 
Q 2828 2175 2409 1742 
Q 1991 1309 1228 531 
z
" transform="scale(0.015625)"/>
       </defs>
       <use xlink:href="#DejaVuSans-32"/>
       <use xlink:href="#DejaVuSans-30" x="63.623047"/>
       <use xlink:href="#DejaVuSans-30" x="127.246094"/>
      </g>
     </g>
    </g>
   </g>
   <g id="matplotlib.axis_2">
    <g id="ytick_1">
     <g id="line2d_6">
      <defs>
       <path id="m1c27ad9d67" d="M 0 0 
L -3.5 0 
" style="stroke: #000000; stroke-width: 0.8"/>
      </defs>
      <g>
       <use xlink:href="#m1c27ad9d67" x="57.6" y="294.298435" style="stroke: #000000; stroke-width: 0.8"/>
      </g>
     </g>
     <g id="text_6">
      <!-- 5000 -->
      <g transform="translate(25.15 298.097654) scale(0.1 -0.1)">
       <use xlink:href="#DejaVuSans-35"/>
       <use xlink:href="#DejaVuSans-30" x="63.623047"/>
       <use xlink:href="#DejaVuSans-30" x="127.246094"/>
       <use xlink:href="#DejaVuSans-30" x="190.869141"/>
      </g>
     </g>
    </g>
    <g id="ytick_2">
     <g id="line2d_7">
      <g>
       <use xlink:href="#m1c27ad9d67" x="57.6" y="262.994087" style="stroke: #000000; stroke-width: 0.8"/>
      </g>
     </g>
     <g id="text_7">
      <!-- 5500 -->
      <g transform="translate(25.15 266.793306) scale(0.1 -0.1)">
       <use xlink:href="#DejaVuSans-35"/>
       <use xlink:href="#DejaVuSans-35" x="63.623047"/>
       <use xlink:href="#DejaVuSans-30" x="127.246094"/>
       <use xlink:href="#DejaVuSans-30" x="190.869141"/>
      </g>
     </g>
    </g>
    <g id="ytick_3">
     <g id="line2d_8">
      <g>
       <use xlink:href="#m1c27ad9d67" x="57.6" y="231.689739" style="stroke: #000000; stroke-width: 0.8"/>
      </g>
     </g>
     <g id="text_8">
      <!-- 6000 -->
      <g transform="translate(25.15 235.488958) scale(0.1 -0.1)">
       <defs>
        <path id="DejaVuSans-36" d="M 2113 2584 
Q 1688 2584 1439 2293 
Q 1191 2003 1191 1497 
Q 1191 994 1439 701 
Q 1688 409 2113 409 
Q 2538 409 2786 701 
Q 3034 994 3034 1497 
Q 3034 2003 2786 2293 
Q 2538 2584 2113 2584 
z
M 3366 4563 
L 3366 3988 
Q 3128 4100 2886 4159 
Q 2644 4219 2406 4219 
Q 1781 4219 1451 3797 
Q 1122 3375 1075 2522 
Q 1259 2794 1537 2939 
Q 1816 3084 2150 3084 
Q 2853 3084 3261 2657 
Q 3669 2231 3669 1497 
Q 3669 778 3244 343 
Q 2819 -91 2113 -91 
Q 1303 -91 875 529 
Q 447 1150 447 2328 
Q 447 3434 972 4092 
Q 1497 4750 2381 4750 
Q 2619 4750 2861 4703 
Q 3103 4656 3366 4563 
z
" transform="scale(0.015625)"/>
       </defs>
       <use xlink:href="#DejaVuSans-36"/>
       <use xlink:href="#DejaVuSans-30" x="63.623047"/>
       <use xlink:href="#DejaVuSans-30" x="127.246094"/>
       <use xlink:href="#DejaVuSans-30" x="190.869141"/>
      </g>
     </g>
    </g>
    <g id="ytick_4">
     <g id="line2d_9">
      <g>
       <use xlink:href="#m1c27ad9d67" x="57.6" y="200.385391" style="stroke: #000000; stroke-width: 0.8"/>
      </g>
     </g>
     <g id="text_9">
      <!-- 6500 -->
      <g transform="translate(25.15 204.18461) scale(0.1 -0.1)">
       <use xlink:href="#DejaVuSans-36"/>
       <use xlink:href="#DejaVuSans-35" x="63.623047"/>
       <use xlink:href="#DejaVuSans-30" x="127.246094"/>
       <use xlink:href="#DejaVuSans-30" x="190.869141"/>
      </g>
     </g>
    </g>
    <g id="ytick_5">
     <g id="line2d_10">
      <g>
       <use xlink:href="#m1c27ad9d67" x="57.6" y="169.081043" style="stroke: #000000; stroke-width: 0.8"/>
      </g>
     </g>
     <g id="text_10">
      <!-- 7000 -->
      <g transform="translate(25.15 172.880262) scale(0.1 -0.1)">
       <defs>
        <path id="DejaVuSans-37" d="M 525 4666 
L 3525 4666 
L 3525 4397 
L 1831 0 
L 1172 0 
L 2766 4134 
L 525 4134 
L 525 4666 
z
" transform="scale(0.015625)"/>
       </defs>
       <use xlink:href="#DejaVuSans-37"/>
       <use xlink:href="#DejaVuSans-30" x="63.623047"/>
       <use xlink:href="#DejaVuSans-30" x="127.246094"/>
       <use xlink:href="#DejaVuSans-30" x="190.869141"/>
      </g>
     </g>
    </g>
    <g id="ytick_6">
     <g id="line2d_11">
      <g>
       <use xlink:href="#m1c27ad9d67" x="57.6" y="137.776696" style="stroke: #000000; stroke-width: 0.8"/>
      </g>
     </g>
     <g id="text_11">
      <!-- 7500 -->
      <g transform="translate(25.15 141.575914) scale(0.1 -0.1)">
       <use xlink:href="#DejaVuSans-37"/>
       <use xlink:href="#DejaVuSans-35" x="63.623047"/>
       <use xlink:href="#DejaVuSans-30" x="127.246094"/>
       <use xlink:href="#DejaVuSans-30" x="190.869141"/>
      </g>
     </g>
    </g>
    <g id="ytick_7">
     <g id="line2d_12">
      <g>
       <use xlink:href="#m1c27ad9d67" x="57.6" y="106.472348" style="stroke: #000000; stroke-width: 0.8"/>
      </g>
     </g>
     <g id="text_12">
      <!-- 8000 -->
      <g transform="translate(25.15 110.271567) scale(0.1 -0.1)">
       <defs>
        <path id="DejaVuSans-38" d="M 2034 2216 
Q 1584 2216 1326 1975 
Q 1069 1734 1069 1313 
Q 1069 891 1326 650 
Q 1584 409 2034 409 
Q 2484 409 2743 651 
Q 3003 894 3003 1313 
Q 3003 1734 2745 1975 
Q 2488 2216 2034 2216 
z
M 1403 2484 
Q 997 2584 770 2862 
Q 544 3141 544 3541 
Q 544 4100 942 4425 
Q 1341 4750 2034 4750 
Q 2731 4750 3128 4425 
Q 3525 4100 3525 3541 
Q 3525 3141 3298 2862 
Q 3072 2584 2669 2484 
Q 3125 2378 3379 2068 
Q 3634 1759 3634 1313 
Q 3634 634 3220 271 
Q 2806 -91 2034 -91 
Q 1263 -91 848 271 
Q 434 634 434 1313 
Q 434 1759 690 2068 
Q 947 2378 1403 2484 
z
M 1172 3481 
Q 1172 3119 1398 2916 
Q 1625 2713 2034 2713 
Q 2441 2713 2670 2916 
Q 2900 3119 2900 3481 
Q 2900 3844 2670 4047 
Q 2441 4250 2034 4250 
Q 1625 4250 1398 4047 
Q 1172 3844 1172 3481 
z
" transform="scale(0.015625)"/>
       </defs>
       <use xlink:href="#DejaVuSans-38"/>
       <use xlink:href="#DejaVuSans-30" x="63.623047"/>
       <use xlink:href="#DejaVuSans-30" x="127.246094"/>
       <use xlink:href="#DejaVuSans-30" x="190.869141"/>
      </g>
     </g>
    </g>
    <g id="ytick_8">
     <g id="line2d_13">
      <g>
       <use xlink:href="#m1c27ad9d67" x="57.6" y="75.168" style="stroke: #000000; stroke-width: 0.8"/>
      </g>
     </g>
     <g id="text_13">
      <!-- 8500 -->
      <g transform="translate(25.15 78.967219) scale(0.1 -0.1)">
       <use xlink:href="#DejaVuSans-38"/>
       <use xlink:href="#DejaVuSans-35" x="63.623047"/>
       <use xlink:href="#DejaVuSans-30" x="127.246094"/>
       <use xlink:href="#DejaVuSans-30" x="190.869141"/>
      </g>
     </g>
    </g>
    <g id="ytick_9">
     <g id="line2d_14">
      <g>
       <use xlink:href="#m1c27ad9d67" x="57.6" y="43.863652" style="stroke: #000000; stroke-width: 0.8"/>
      </g>
     </g>
     <g id="text_14">
      <!-- 9000 -->
      <g transform="translate(25.15 47.662871) scale(0.1 -0.1)">
       <defs>
        <path id="DejaVuSans-39" d="M 703 97 
L 703 672 
Q 941 559 1184 500 
Q 1428 441 1663 441 
Q 2288 441 2617 861 
Q 2947 1281 2994 2138 
Q 2813 1869 2534 1725 
Q 2256 1581 1919 1581 
Q 1219 1581 811 2004 
Q 403 2428 403 3163 
Q 403 3881 828 4315 
Q 1253 4750 1959 4750 
Q 2769 4750 3195 4129 
Q 3622 3509 3622 2328 
Q 3622 1225 3098 567 
Q 2575 -91 1691 -91 
Q 1453 -91 1209 -44 
Q 966 3 703 97 
z
M 1959 2075 
Q 2384 2075 2632 2365 
Q 2881 2656 2881 3163 
Q 2881 3666 2632 3958 
Q 2384 4250 1959 4250 
Q 1534 4250 1286 3958 
Q 1038 3666 1038 3163 
Q 1038 2656 1286 2365 
Q 1534 2075 1959 2075 
z
" transform="scale(0.015625)"/>
       </defs>
       <use xlink:href="#DejaVuSans-39"/>
       <use xlink:href="#DejaVuSans-30" x="63.623047"/>
       <use xlink:href="#DejaVuSans-30" x="127.246094"/>
       <use xlink:href="#DejaVuSans-30" x="190.869141"/>
      </g>
     </g>
    </g>
   </g>
   <g id="line2d_15">
    <path d="M 73.832727 295.488 
L 75.342748 294.736696 
L 76.85277 291.929739 
L 78.362791 291.042783 
L 79.872812 290.416696 
L 81.382833 290.291478 
L 82.892854 290.541913 
L 84.402875 289.634087 
L 85.912896 289.978435 
L 87.422918 287.536696 
L 88.932939 283.75513 
L 90.44296 277.492472 
L 91.952981 278.145391 
L 93.463002 279.021913 
L 94.973023 281.275826 
L 96.483044 278.646261 
L 97.993066 277.790609 
L 99.503087 276.689739 
L 101.013108 274.326261 
L 102.523129 272.773565 
L 104.03315 270.298435 
L 105.543171 269.818435 
L 107.053192 268.941913 
L 108.563214 268.941913 
L 110.073235 268.660174 
L 111.583256 268.62887 
L 114.603298 266.672348 
L 116.113319 266.938435 
L 117.62334 266.750609 
L 119.133362 266.813217 
L 120.643383 266.562783 
L 122.153404 266.437565 
L 123.663425 267.62713 
L 125.173446 267.62713 
L 126.683467 267.418435 
L 128.193488 267.564522 
L 129.70351 264.183652 
L 131.213531 262.242783 
L 132.723552 264.496696 
L 134.233573 262.14887 
L 137.253615 261.804522 
L 138.763636 261.616696 
L 140.273658 260.740174 
L 141.783679 260.552348 
L 143.2937 259.50887 
L 144.803721 258.314087 
L 146.313742 256.470261 
L 147.823763 255.581217 
L 149.333784 252.601043 
L 150.843805 250.758559 
L 152.353827 248.320174 
L 153.863848 247.654957 
L 155.373869 247.46713 
L 156.88389 246.302609 
L 158.393911 245.901913 
L 159.903932 247.404522 
L 161.413953 244.128 
L 162.923975 241.769739 
L 164.433996 240.141913 
L 165.944017 240.079304 
L 167.454038 241.394087 
L 168.964059 241.394087 
L 170.47408 241.581913 
L 171.984101 242.458435 
L 173.494123 240.893217 
L 175.004144 241.331478 
L 176.514165 239.90713 
L 178.024186 239.453217 
L 179.534207 239.244522 
L 181.044228 239.265391 
L 182.554249 238.46713 
L 184.064271 236.473043 
L 185.574292 236.244522 
L 187.084313 234.131478 
L 188.594334 232.467876 
L 190.104355 231.940174 
L 191.614376 232.503652 
L 193.124397 231.533217 
L 194.634419 232.691478 
L 196.14444 233.004522 
L 197.654461 231.021913 
L 199.164482 231.439304 
L 200.674503 229.540174 
L 202.184524 226.94713 
L 203.694545 225.817043 
L 205.204567 223.143652 
L 206.714588 222.924522 
L 208.224609 224.176696 
L 211.244651 223.634087 
L 212.754672 221.265391 
L 214.264693 218.191304 
L 215.774715 219.168 
L 217.284736 217.164522 
L 218.794757 216.475826 
L 220.304778 218.416696 
L 221.814799 217.258435 
L 223.32482 218.22887 
L 224.834841 215.766261 
L 226.344863 215.056696 
L 227.854884 213.721043 
L 229.364905 214.221913 
L 230.874926 215.223652 
L 233.894968 213.86713 
L 235.404989 213.846261 
L 236.915011 211.451478 
L 238.425032 206.220522 
L 239.935053 208.274087 
L 242.955095 206.980174 
L 244.465116 205.926261 
L 245.975137 208.524522 
L 247.485159 202.939826 
L 248.99518 202.764522 
L 250.505201 200.573217 
L 252.015222 203.014957 
L 253.525243 199.321043 
L 255.035264 198.444522 
L 256.545285 193.820422 
L 258.055307 195.439304 
L 259.565328 195.314087 
L 261.075349 196.065391 
L 262.58537 195.846261 
L 264.095391 197.380174 
L 265.605412 195.856696 
L 267.115433 191.103652 
L 268.625455 193.248 
L 270.135476 192.089739 
L 271.645497 191.682783 
L 273.155518 188.849739 
L 274.665539 187.98887 
L 276.17556 186.26087 
L 277.685581 184.795826 
L 279.195603 183.806609 
L 280.705624 182.281043 
L 282.215645 183.481043 
L 283.725666 180.632348 
L 285.235687 178.15036 
L 286.745708 171.342783 
L 288.255729 167.696696 
L 291.275772 162.041043 
L 292.785793 161.138683 
L 294.295814 157.289739 
L 295.805835 149.935304 
L 297.315856 149.077565 
L 298.825877 149.672348 
L 300.335899 150.048 
L 301.84592 151.174957 
L 303.355941 150.736696 
L 304.865962 149.714087 
L 306.375983 146.119304 
L 307.886004 143.474087 
L 310.906047 142.221913 
L 312.416068 138.814211 
L 313.926089 134.552348 
L 315.43611 133.409739 
L 316.946131 128.795826 
L 318.456152 128.331727 
L 321.476195 125.630609 
L 322.986216 125.568 
L 324.496237 125.380174 
L 326.006258 126.06887 
L 327.516279 125.098435 
L 329.0263 123.397565 
L 330.536321 123.689739 
L 332.046342 121.143652 
L 333.556364 113.498435 
L 335.066385 111.6 
L 336.576406 114.924522 
L 338.086427 114.955826 
L 339.596448 114.632348 
L 341.106469 116.990609 
L 342.61649 116.395826 
L 344.126512 110.964522 
L 345.636533 110.479304 
L 347.146554 108.50713 
L 348.656575 106.760348 
L 350.166596 103.498435 
L 351.676617 103.968 
L 353.186638 101.463652 
L 354.69666 101.088 
L 356.206681 100.900174 
L 357.716702 100.545391 
L 359.226723 99.381913 
L 360.736744 99.272348 
L 362.246765 97.394087 
L 363.756786 94.221913 
L 365.266808 88.244273 
L 366.776829 83.369739 
L 368.28685 71.326103 
L 369.796871 66.872348 
L 371.306892 70.096696 
L 372.816913 75.168 
L 374.326934 73.759304 
L 375.836956 75.199304 
L 377.346977 74.416696 
L 378.856998 75.042783 
L 380.367019 71.035826 
L 381.87704 71.703652 
L 383.387061 71.78713 
L 384.897082 71.599304 
L 386.407104 71.536696 
L 387.917125 70.409739 
L 389.427146 69.658435 
L 390.937167 67.392 
L 392.447188 65.914435 
L 396.977252 63.929739 
L 398.487273 59.54713 
L 398.487273 59.54713 
" clip-path="url(#pc7638b652d)" style="fill: none; stroke: #1f77b4; stroke-opacity: 0.7; stroke-width: 0.5; stroke-linecap: square"/>
   </g>
   <g id="line2d_16">
    <path d="M 73.832727 294.298435 
L 75.342748 292.858435 
L 76.85277 289.790609 
L 78.362791 290.103652 
L 79.872812 289.477565 
L 81.382833 289.498435 
L 82.892854 289.712348 
L 84.402875 288.397565 
L 85.912896 288.763826 
L 87.422918 285.408 
L 88.932939 280.023652 
L 90.44296 271.94713 
L 91.952981 275.10887 
L 93.463002 276.74713 
L 94.973023 278.912348 
L 96.483044 276.423652 
L 97.993066 276.30887 
L 99.503087 274.764522 
L 101.013108 272.886261 
L 102.523129 271.446261 
L 104.03315 268.879304 
L 105.543171 268.503652 
L 107.053192 267.18887 
L 108.563214 267.110609 
L 111.583256 267.42887 
L 113.093277 265.498435 
L 114.603298 264.972522 
L 116.113319 265.300174 
L 117.62334 265.154087 
L 119.133362 265.391106 
L 120.643383 264.768 
L 122.153404 264.952845 
L 123.663425 265.780174 
L 125.173446 266.138435 
L 126.683467 265.425391 
L 128.193488 265.74887 
L 129.70351 260.740174 
L 131.213531 260.301913 
L 132.723552 262.326261 
L 134.233573 261.053217 
L 135.743594 259.550609 
L 137.253615 259.884522 
L 138.763636 260.364522 
L 140.273658 258.642783 
L 141.783679 258.736696 
L 143.2937 258.110609 
L 144.803721 257.10887 
L 146.313742 255.355826 
L 147.823763 254.260174 
L 149.333784 251.286261 
L 150.843805 249.470609 
L 152.353827 247.02887 
L 153.863848 245.839304 
L 155.373869 246.058435 
L 156.88389 244.58713 
L 158.393911 244.22713 
L 159.903932 245.363478 
L 161.413953 241.769739 
L 162.923975 239.453217 
L 164.433996 238.34713 
L 165.944017 238.639304 
L 167.454038 239.641043 
L 168.964059 239.484522 
L 170.47408 239.741217 
L 171.984101 240.715826 
L 173.494123 239.328 
L 175.004144 238.927304 
L 176.514165 238.201043 
L 179.534207 237.637565 
L 181.044228 238.013217 
L 182.554249 237.38713 
L 184.064271 235.008 
L 185.574292 235.070609 
L 187.084313 231.877565 
L 188.594334 230.781913 
L 190.104355 230.625391 
L 191.614376 231.282783 
L 193.124397 230.312348 
L 196.14444 231.702261 
L 197.654461 229.811478 
L 199.164482 229.861565 
L 202.184524 224.614957 
L 203.694545 223.801043 
L 205.204567 221.359304 
L 206.714588 221.06713 
L 208.224609 222.173217 
L 209.73463 222.063652 
L 211.244651 221.82887 
L 212.754672 219.794087 
L 214.264693 216.413217 
L 215.774715 216.851478 
L 217.284736 215.098435 
L 218.794757 214.618435 
L 220.304778 216.178435 
L 221.814799 215.432348 
L 223.32482 215.912348 
L 224.834841 213.282783 
L 226.344863 213.721043 
L 227.854884 212.343652 
L 229.364905 213.053217 
L 230.874926 212.54713 
L 232.384947 212.443826 
L 233.894968 211.980522 
L 235.404989 212.103652 
L 236.915011 209.901913 
L 238.425032 201.011478 
L 239.935053 205.112348 
L 241.445074 203.578435 
L 242.955095 204.288 
L 244.465116 203.328 
L 245.975137 205.159304 
L 247.485159 198.256696 
L 248.99518 200.510609 
L 250.505201 197.755826 
L 252.015222 201.074087 
L 253.525243 197.630609 
L 255.035264 196.754087 
L 256.545285 189.241043 
L 258.055307 192.74713 
L 259.565328 192.204522 
L 261.075349 193.639304 
L 262.58537 193.561043 
L 264.095391 195.076174 
L 265.605412 194.18713 
L 267.115433 187.926261 
L 268.625455 190.994087 
L 270.135476 189.835826 
L 271.645497 189.950609 
L 273.155518 184.983652 
L 274.665539 186.423652 
L 276.17556 183.481043 
L 279.195603 181.540174 
L 280.705624 180.319304 
L 282.215645 180.246261 
L 283.725666 177.345391 
L 285.235687 175.310609 
L 286.745708 165.762783 
L 288.255729 163.133217 
L 291.275772 158.374957 
L 292.785793 157.874087 
L 294.295814 153.42887 
L 295.805835 143.536696 
L 297.315856 145.477565 
L 298.825877 146.959304 
L 300.335899 147.919304 
L 301.84592 149.121391 
L 303.355941 147.178435 
L 304.865962 146.385391 
L 307.886004 141.376696 
L 309.396025 140.886261 
L 310.906047 140.891478 
L 312.416068 135.522783 
L 313.926089 131.453217 
L 315.43611 130.138435 
L 316.946131 125.442783 
L 319.966173 123.898435 
L 321.476195 122.594087 
L 322.986216 123.038609 
L 324.496237 122.850783 
L 326.006258 123.522783 
L 327.516279 122.260174 
L 329.0263 120.820174 
L 330.536321 121.122783 
L 332.046342 118.806261 
L 333.556364 106.284522 
L 335.066385 107.411478 
L 336.576406 110.875826 
L 338.086427 111.063652 
L 339.596448 110.620174 
L 341.106469 112.169739 
L 342.61649 111.659925 
L 344.126512 105.282783 
L 345.636533 107.974957 
L 347.146554 106.002783 
L 348.656575 103.02887 
L 350.166596 100.493217 
L 351.676617 101.860174 
L 353.186638 97.769739 
L 354.69666 97.310609 
L 356.206681 98.129739 
L 357.716702 97.381565 
L 359.226723 95.775205 
L 360.736744 96.048 
L 362.246765 95.82887 
L 363.756786 92.134957 
L 365.266808 81.366261 
L 366.776829 78.26713 
L 368.28685 59.390609 
L 369.796871 59.296696 
L 371.306892 63.773217 
L 372.816913 69.016696 
L 374.326934 66.30887 
L 375.836956 68.669217 
L 377.346977 67.201043 
L 378.856998 68.819478 
L 380.367019 67.654957 
L 381.87704 66.152348 
L 383.387061 68.124522 
L 384.897082 65.952 
L 386.407104 67.801043 
L 387.917125 67.514087 
L 389.427146 68.143304 
L 390.937167 63.272348 
L 393.957209 62.729739 
L 395.46723 61.26887 
L 396.977252 61.456696 
L 398.487273 53.568 
L 398.487273 53.568 
" clip-path="url(#pc7638b652d)" style="fill: none; stroke: #ff7f0e; stroke-opacity: 0.7; stroke-width: 0.5; stroke-linecap: square"/>
   </g>
   <g id="line2d_17">
    <path d="M 73.832727 294.893217 
L 75.342748 293.797565 
L 76.85277 290.860174 
L 78.362791 290.573217 
L 79.872812 289.94713 
L 81.382833 289.894957 
L 82.892854 290.12713 
L 84.402875 289.015826 
L 85.912896 289.37113 
L 87.422918 286.472348 
L 88.932939 281.889391 
L 90.44296 274.719801 
L 91.952981 276.62713 
L 93.463002 277.884522 
L 94.973023 280.094087 
L 96.483044 277.534957 
L 97.993066 277.049739 
L 99.503087 275.72713 
L 101.013108 273.606261 
L 102.523129 272.109913 
L 104.03315 269.58887 
L 105.543171 269.161043 
L 107.053192 268.065391 
L 111.583256 268.02887 
L 113.093277 266.583652 
L 114.603298 265.822435 
L 116.113319 266.119304 
L 117.62334 265.952348 
L 119.133362 266.102161 
L 120.643383 265.665391 
L 122.153404 265.695205 
L 123.663425 266.703652 
L 125.173446 266.882783 
L 126.683467 266.421913 
L 128.193488 266.656696 
L 129.70351 262.461913 
L 131.213531 261.272348 
L 132.723552 263.411478 
L 134.233573 261.601043 
L 135.743594 260.78713 
L 138.763636 260.990609 
L 140.273658 259.691478 
L 141.783679 259.644522 
L 143.2937 258.809739 
L 144.803721 257.711478 
L 146.313742 255.913043 
L 147.823763 254.920696 
L 149.333784 251.943652 
L 150.843805 250.114584 
L 152.353827 247.674522 
L 153.863848 246.74713 
L 155.373869 246.762783 
L 156.88389 245.44487 
L 158.393911 245.064522 
L 159.903932 246.384 
L 161.413953 242.94887 
L 162.923975 240.611478 
L 164.433996 239.244522 
L 165.944017 239.359304 
L 167.454038 240.517565 
L 168.964059 240.439304 
L 170.47408 240.661565 
L 171.984101 241.58713 
L 173.494123 240.110609 
L 175.004144 240.129391 
L 176.514165 239.054087 
L 178.024186 238.686261 
L 179.534207 238.441043 
L 181.044228 238.639304 
L 182.554249 237.92713 
L 184.064271 235.740522 
L 185.574292 235.657565 
L 187.084313 233.004522 
L 188.594334 231.624894 
L 190.104355 231.282783 
L 191.614376 231.893217 
L 193.124397 230.922783 
L 194.634419 231.854087 
L 196.14444 232.353391 
L 197.654461 230.416696 
L 199.164482 230.650435 
L 200.674503 228.361043 
L 202.184524 225.781043 
L 203.694545 224.809043 
L 205.204567 222.251478 
L 206.714588 221.995826 
L 208.224609 223.174957 
L 209.73463 223.010609 
L 211.244651 222.731478 
L 212.754672 220.529739 
L 214.264693 217.302261 
L 215.774715 218.009739 
L 217.284736 216.131478 
L 218.794757 215.54713 
L 220.304778 217.297565 
L 221.814799 216.345391 
L 223.32482 217.070609 
L 224.834841 214.524522 
L 226.344863 214.38887 
L 227.854884 213.032348 
L 229.364905 213.637565 
L 230.874926 213.885391 
L 232.384947 213.505043 
L 233.894968 212.923826 
L 235.404989 212.974957 
L 236.915011 210.676696 
L 238.425032 203.616 
L 239.935053 206.693217 
L 241.445074 205.597565 
L 242.955095 205.634087 
L 244.465116 204.62713 
L 245.975137 206.841913 
L 247.485159 200.598261 
L 248.99518 201.637565 
L 250.505201 199.164522 
L 252.015222 202.044522 
L 253.525243 198.475826 
L 255.035264 197.599304 
L 256.545285 191.530733 
L 258.055307 194.093217 
L 259.565328 193.759304 
L 261.075349 194.852348 
L 262.58537 194.703652 
L 264.095391 196.228174 
L 265.605412 195.021913 
L 267.115433 189.514957 
L 268.625455 192.121043 
L 270.135476 190.962783 
L 271.645497 190.816696 
L 273.155518 186.916696 
L 274.665539 187.206261 
L 276.17556 184.870957 
L 277.685581 183.653217 
L 279.195603 182.673391 
L 280.705624 181.300174 
L 282.215645 181.863652 
L 283.725666 178.98887 
L 285.235687 176.730484 
L 286.745708 168.552783 
L 288.255729 165.414957 
L 291.275772 160.208 
L 292.785793 159.506385 
L 294.295814 155.359304 
L 295.805835 146.736 
L 297.315856 147.277565 
L 298.825877 148.315826 
L 300.335899 148.983652 
L 301.84592 150.148174 
L 303.355941 148.957565 
L 304.865962 148.049739 
L 306.375983 145.04713 
L 307.886004 142.425391 
L 309.396025 141.877565 
L 310.906047 141.556696 
L 313.926089 133.002783 
L 315.43611 131.774087 
L 316.946131 127.119304 
L 318.456152 126.511602 
L 319.966173 125.421913 
L 321.476195 124.112348 
L 322.986216 124.303304 
L 324.496237 124.115478 
L 326.006258 124.795826 
L 327.516279 123.679304 
L 329.0263 122.10887 
L 330.536321 122.406261 
L 332.046342 119.974957 
L 333.556364 109.891478 
L 335.066385 109.505739 
L 336.576406 112.900174 
L 338.086427 113.009739 
L 339.596448 112.626261 
L 341.106469 114.580174 
L 342.61649 114.027876 
L 344.126512 108.123652 
L 345.636533 109.22713 
L 347.146554 107.254957 
L 348.656575 104.894609 
L 350.166596 101.995826 
L 351.676617 102.914087 
L 353.186638 99.616696 
L 354.69666 99.199304 
L 356.206681 99.514957 
L 357.716702 98.963478 
L 359.226723 97.578559 
L 360.736744 97.660174 
L 362.246765 96.611478 
L 363.756786 93.178435 
L 365.266808 84.805267 
L 366.776829 80.818435 
L 368.28685 65.358356 
L 369.796871 63.084522 
L 371.306892 66.934957 
L 372.816913 72.092348 
L 374.326934 70.034087 
L 375.836956 71.934261 
L 377.346977 70.80887 
L 378.856998 71.93113 
L 380.367019 69.345391 
L 381.87704 68.928 
L 383.387061 69.955826 
L 384.897082 68.775652 
L 386.407104 69.66887 
L 387.917125 68.961913 
L 389.427146 68.90087 
L 390.937167 65.332174 
L 392.447188 64.468174 
L 393.957209 63.990261 
L 395.46723 62.896696 
L 396.977252 62.693217 
L 398.487273 56.557565 
L 398.487273 56.557565 
" clip-path="url(#pc7638b652d)" style="fill: none; stroke: #2ca02c; stroke-opacity: 0.7; stroke-width: 0.5; stroke-linecap: square"/>
   </g>
   <g id="line2d_18">
    <path d="M 73.832727 294.799304 
L 75.342748 292.294957 
L 78.362791 291.042783 
L 79.872812 290.66713 
L 81.382833 290.604522 
L 82.892854 289.853217 
L 84.402875 289.915826 
L 85.912896 287.661913 
L 87.422918 283.842783 
L 88.932939 277.894957 
L 90.44296 278.020174 
L 91.952981 278.521043 
L 93.463002 279.898435 
L 94.973023 278.333217 
L 96.483044 277.769739 
L 97.993066 276.893217 
L 99.503087 274.889739 
L 101.013108 273.261913 
L 102.523129 271.070609 
L 104.03315 270.444522 
L 105.543171 268.941913 
L 107.053192 268.941913 
L 108.563214 268.754087 
L 110.073235 268.691478 
L 113.093277 266.938435 
L 114.603298 266.938435 
L 116.113319 266.813217 
L 117.62334 266.813217 
L 119.133362 266.562783 
L 120.643383 266.500174 
L 122.153404 267.063652 
L 123.663425 267.251478 
L 125.173446 267.18887 
L 126.683467 267.251478 
L 128.193488 263.995826 
L 129.70351 262.618435 
L 131.213531 263.557565 
L 132.723552 262.305391 
L 134.233573 261.804522 
L 135.743594 261.491478 
L 137.253615 261.554087 
L 138.763636 260.990609 
L 140.273658 260.677565 
L 141.783679 259.863652 
L 143.2937 258.486261 
L 144.803721 256.921043 
L 146.313742 255.66887 
L 147.823763 253.477565 
L 149.333784 251.536696 
L 150.843805 249.282783 
L 152.353827 247.968 
L 153.863848 247.717565 
L 155.373869 246.402783 
L 156.88389 246.152348 
L 158.393911 246.778435 
L 161.413953 241.894957 
L 162.923975 240.454957 
L 164.433996 240.26713 
L 165.944017 240.830609 
L 168.964059 241.206261 
L 170.47408 241.832348 
L 171.984101 240.580174 
L 173.494123 240.955826 
L 175.004144 239.578435 
L 176.514165 239.515826 
L 178.024186 239.014957 
L 179.534207 239.140174 
L 181.044228 238.263652 
L 182.554249 236.635826 
L 184.064271 236.134957 
L 185.574292 234.006261 
L 187.084313 232.566261 
L 188.594334 232.002783 
L 190.104355 232.253217 
L 191.614376 231.689739 
L 193.124397 232.190609 
L 194.634419 232.566261 
L 196.14444 231.18887 
L 197.654461 231.314087 
L 199.164482 229.248 
L 200.674503 226.931478 
L 202.184524 225.992348 
L 203.694545 223.675826 
L 205.204567 223.300174 
L 206.714588 223.738435 
L 208.224609 223.738435 
L 209.73463 223.550609 
L 211.244651 221.672348 
L 212.754672 219.042783 
L 214.264693 219.105391 
L 215.774715 217.101913 
L 217.284736 216.78887 
L 218.794757 217.602783 
L 220.304778 217.101913 
L 221.814799 217.665391 
L 223.32482 215.474087 
L 224.834841 215.035826 
L 226.344863 213.971478 
L 227.854884 214.096696 
L 229.364905 214.660174 
L 232.384947 213.783652 
L 233.894968 213.658435 
L 235.404989 211.780174 
L 236.915011 206.395826 
L 238.425032 207.334957 
L 239.935053 207.209739 
L 241.445074 206.834087 
L 242.955095 206.020174 
L 244.465116 207.272348 
L 245.975137 202.764522 
L 247.485159 202.764522 
L 248.99518 200.260174 
L 250.505201 201.637565 
L 252.015222 199.634087 
L 253.525243 198.381913 
L 255.035264 193.811478 
L 256.545285 194.625391 
L 258.055307 194.813217 
L 259.565328 195.439304 
L 261.075349 195.501913 
L 262.58537 196.441043 
L 264.095391 195.314087 
L 265.605412 191.620174 
L 267.115433 192.434087 
L 270.135476 191.494957 
L 271.645497 188.239304 
L 273.155518 188.114087 
L 274.665539 185.797565 
L 276.17556 185.296696 
L 277.685581 183.418435 
L 279.195603 181.978435 
L 280.705624 182.729739 
L 282.215645 180.037565 
L 283.725666 177.783652 
L 285.235687 171.773217 
L 286.745708 168.016696 
L 289.765751 162.256696 
L 291.275772 161.192348 
L 292.785793 157.310609 
L 294.295814 150.423652 
L 295.805835 149.421913 
L 297.315856 149.54713 
L 298.825877 149.797565 
L 300.335899 150.486261 
L 301.84592 150.423652 
L 303.355941 149.734957 
L 306.375983 144.162783 
L 307.886004 143.098435 
L 309.396025 142.660174 
L 312.416068 135.272348 
L 313.926089 133.832348 
L 315.43611 129.637565 
L 316.946131 128.573217 
L 318.456152 127.759304 
L 319.966173 125.943652 
L 322.986216 125.568 
L 324.496237 125.818435 
L 326.006258 125.254957 
L 327.516279 123.940174 
L 329.0263 123.814957 
L 330.536321 121.310609 
L 332.046342 113.797565 
L 333.556364 112.044522 
L 335.066385 113.484522 
L 336.576406 113.985391 
L 338.086427 113.985391 
L 339.596448 115.488 
L 341.106469 114.924522 
L 342.61649 110.103652 
L 344.126512 110.291478 
L 345.636533 109.039304 
L 347.146554 106.034087 
L 348.656575 103.341913 
L 350.166596 103.654957 
L 351.676617 100.712348 
L 353.186638 100.900174 
L 354.69666 100.837565 
L 356.206681 100.58713 
L 357.716702 99.648 
L 359.226723 99.460174 
L 360.736744 97.644522 
L 362.246765 94.889739 
L 363.756786 88.128 
L 365.266808 83.808 
L 366.776829 71.599304 
L 368.28685 67.46713 
L 369.796871 68.781913 
L 371.306892 71.974957 
L 372.816913 72.100174 
L 374.326934 73.101913 
L 375.836956 73.039304 
L 377.346977 73.414957 
L 378.856998 70.534957 
L 380.367019 70.284522 
L 381.87704 71.035826 
L 383.387061 71.161043 
L 384.897082 69.783652 
L 386.407104 69.157565 
L 387.917125 69.408 
L 389.427146 66.340174 
L 390.937167 65.150609 
L 392.447188 64.399304 
L 393.957209 64.461913 
L 395.46723 64.086261 
L 396.977252 58.82713 
L 398.487273 56.072348 
L 398.487273 56.072348 
" clip-path="url(#pc7638b652d)" style="fill: none; stroke: #d62728; stroke-opacity: 0.7; stroke-width: 0.5; stroke-linecap: square"/>
   </g>
   <g id="patch_3">
    <path d="M 57.6 307.584 
L 57.6 41.472 
" style="fill: none; stroke: #000000; stroke-width: 0.8; stroke-linejoin: miter; stroke-linecap: square"/>
   </g>
   <g id="patch_4">
    <path d="M 414.72 307.584 
L 414.72 41.472 
" style="fill: none; stroke: #000000; stroke-width: 0.8; stroke-linejoin: miter; stroke-linecap: square"/>
   </g>
   <g id="patch_5">
    <path d="M 57.6 307.584 
L 414.72 307.584 
" style="fill: none; stroke: #000000; stroke-width: 0.8; stroke-linejoin: miter; stroke-linecap: square"/>
   </g>
   <g id="patch_6">
    <path d="M 57.6 41.472 
L 414.72 41.472 
" style="fill: none; stroke: #000000; stroke-width: 0.8; stroke-linejoin: miter; stroke-linecap: square"/>
   </g>
   <g id="text_15">
    <!-- 1final_max_clique_cci -->
    <g transform="translate(171.143438 35.472) scale(0.12 -0.12)">
     <defs>
      <path id="DejaVuSans-66" d="M 2375 4863 
L 2375 4384 
L 1825 4384 
Q 1516 4384 1395 4259 
Q 1275 4134 1275 3809 
L 1275 3500 
L 2222 3500 
L 2222 3053 
L 1275 3053 
L 1275 0 
L 697 0 
L 697 3053 
L 147 3053 
L 147 3500 
L 697 3500 
L 697 3744 
Q 697 4328 969 4595 
Q 1241 4863 1831 4863 
L 2375 4863 
z
" transform="scale(0.015625)"/>
      <path id="DejaVuSans-69" d="M 603 3500 
L 1178 3500 
L 1178 0 
L 603 0 
L 603 3500 
z
M 603 4863 
L 1178 4863 
L 1178 4134 
L 603 4134 
L 603 4863 
z
" transform="scale(0.015625)"/>
      <path id="DejaVuSans-6e" d="M 3513 2113 
L 3513 0 
L 2938 0 
L 2938 2094 
Q 2938 2591 2744 2837 
Q 2550 3084 2163 3084 
Q 1697 3084 1428 2787 
Q 1159 2491 1159 1978 
L 1159 0 
L 581 0 
L 581 3500 
L 1159 3500 
L 1159 2956 
Q 1366 3272 1645 3428 
Q 1925 3584 2291 3584 
Q 2894 3584 3203 3211 
Q 3513 2838 3513 2113 
z
" transform="scale(0.015625)"/>
      <path id="DejaVuSans-61" d="M 2194 1759 
Q 1497 1759 1228 1600 
Q 959 1441 959 1056 
Q 959 750 1161 570 
Q 1363 391 1709 391 
Q 2188 391 2477 730 
Q 2766 1069 2766 1631 
L 2766 1759 
L 2194 1759 
z
M 3341 1997 
L 3341 0 
L 2766 0 
L 2766 531 
Q 2569 213 2275 61 
Q 1981 -91 1556 -91 
Q 1019 -91 701 211 
Q 384 513 384 1019 
Q 384 1609 779 1909 
Q 1175 2209 1959 2209 
L 2766 2209 
L 2766 2266 
Q 2766 2663 2505 2880 
Q 2244 3097 1772 3097 
Q 1472 3097 1187 3025 
Q 903 2953 641 2809 
L 641 3341 
Q 956 3463 1253 3523 
Q 1550 3584 1831 3584 
Q 2591 3584 2966 3190 
Q 3341 2797 3341 1997 
z
" transform="scale(0.015625)"/>
      <path id="DejaVuSans-6c" d="M 603 4863 
L 1178 4863 
L 1178 0 
L 603 0 
L 603 4863 
z
" transform="scale(0.015625)"/>
      <path id="DejaVuSans-5f" d="M 3263 -1063 
L 3263 -1509 
L -63 -1509 
L -63 -1063 
L 3263 -1063 
z
" transform="scale(0.015625)"/>
      <path id="DejaVuSans-6d" d="M 3328 2828 
Q 3544 3216 3844 3400 
Q 4144 3584 4550 3584 
Q 5097 3584 5394 3201 
Q 5691 2819 5691 2113 
L 5691 0 
L 5113 0 
L 5113 2094 
Q 5113 2597 4934 2840 
Q 4756 3084 4391 3084 
Q 3944 3084 3684 2787 
Q 3425 2491 3425 1978 
L 3425 0 
L 2847 0 
L 2847 2094 
Q 2847 2600 2669 2842 
Q 2491 3084 2119 3084 
Q 1678 3084 1418 2786 
Q 1159 2488 1159 1978 
L 1159 0 
L 581 0 
L 581 3500 
L 1159 3500 
L 1159 2956 
Q 1356 3278 1631 3431 
Q 1906 3584 2284 3584 
Q 2666 3584 2933 3390 
Q 3200 3197 3328 2828 
z
" transform="scale(0.015625)"/>
      <path id="DejaVuSans-78" d="M 3513 3500 
L 2247 1797 
L 3578 0 
L 2900 0 
L 1881 1375 
L 863 0 
L 184 0 
L 1544 1831 
L 300 3500 
L 978 3500 
L 1906 2253 
L 2834 3500 
L 3513 3500 
z
" transform="scale(0.015625)"/>
      <path id="DejaVuSans-63" d="M 3122 3366 
L 3122 2828 
Q 2878 2963 2633 3030 
Q 2388 3097 2138 3097 
Q 1578 3097 1268 2742 
Q 959 2388 959 1747 
Q 959 1106 1268 751 
Q 1578 397 2138 397 
Q 2388 397 2633 464 
Q 2878 531 3122 666 
L 3122 134 
Q 2881 22 2623 -34 
Q 2366 -91 2075 -91 
Q 1284 -91 818 406 
Q 353 903 353 1747 
Q 353 2603 823 3093 
Q 1294 3584 2113 3584 
Q 2378 3584 2631 3529 
Q 2884 3475 3122 3366 
z
" transform="scale(0.015625)"/>
      <path id="DejaVuSans-71" d="M 947 1747 
Q 947 1113 1208 752 
Q 1469 391 1925 391 
Q 2381 391 2643 752 
Q 2906 1113 2906 1747 
Q 2906 2381 2643 2742 
Q 2381 3103 1925 3103 
Q 1469 3103 1208 2742 
Q 947 2381 947 1747 
z
M 2906 525 
Q 2725 213 2448 61 
Q 2172 -91 1784 -91 
Q 1150 -91 751 415 
Q 353 922 353 1747 
Q 353 2572 751 3078 
Q 1150 3584 1784 3584 
Q 2172 3584 2448 3432 
Q 2725 3281 2906 2969 
L 2906 3500 
L 3481 3500 
L 3481 -1331 
L 2906 -1331 
L 2906 525 
z
" transform="scale(0.015625)"/>
      <path id="DejaVuSans-75" d="M 544 1381 
L 544 3500 
L 1119 3500 
L 1119 1403 
Q 1119 906 1312 657 
Q 1506 409 1894 409 
Q 2359 409 2629 706 
Q 2900 1003 2900 1516 
L 2900 3500 
L 3475 3500 
L 3475 0 
L 2900 0 
L 2900 538 
Q 2691 219 2414 64 
Q 2138 -91 1772 -91 
Q 1169 -91 856 284 
Q 544 659 544 1381 
z
M 1991 3584 
L 1991 3584 
z
" transform="scale(0.015625)"/>
      <path id="DejaVuSans-65" d="M 3597 1894 
L 3597 1613 
L 953 1613 
Q 991 1019 1311 708 
Q 1631 397 2203 397 
Q 2534 397 2845 478 
Q 3156 559 3463 722 
L 3463 178 
Q 3153 47 2828 -22 
Q 2503 -91 2169 -91 
Q 1331 -91 842 396 
Q 353 884 353 1716 
Q 353 2575 817 3079 
Q 1281 3584 2069 3584 
Q 2775 3584 3186 3129 
Q 3597 2675 3597 1894 
z
M 3022 2063 
Q 3016 2534 2758 2815 
Q 2500 3097 2075 3097 
Q 1594 3097 1305 2825 
Q 1016 2553 972 2059 
L 3022 2063 
z
" transform="scale(0.015625)"/>
     </defs>
     <use xlink:href="#DejaVuSans-31"/>
     <use xlink:href="#DejaVuSans-66" x="63.623047"/>
     <use xlink:href="#DejaVuSans-69" x="98.828125"/>
     <use xlink:href="#DejaVuSans-6e" x="126.611328"/>
     <use xlink:href="#DejaVuSans-61" x="189.990234"/>
     <use xlink:href="#DejaVuSans-6c" x="251.269531"/>
     <use xlink:href="#DejaVuSans-5f" x="279.052734"/>
     <use xlink:href="#DejaVuSans-6d" x="329.052734"/>
     <use xlink:href="#DejaVuSans-61" x="426.464844"/>
     <use xlink:href="#DejaVuSans-78" x="487.744141"/>
     <use xlink:href="#DejaVuSans-5f" x="546.923828"/>
     <use xlink:href="#DejaVuSans-63" x="596.923828"/>
     <use xlink:href="#DejaVuSans-6c" x="651.904297"/>
     <use xlink:href="#DejaVuSans-69" x="679.6875"/>
     <use xlink:href="#DejaVuSans-71" x="707.470703"/>
     <use xlink:href="#DejaVuSans-75" x="770.947266"/>
     <use xlink:href="#DejaVuSans-65" x="834.326172"/>
     <use xlink:href="#DejaVuSans-5f" x="895.849609"/>
     <use xlink:href="#DejaVuSans-63" x="945.849609"/>
     <use xlink:href="#DejaVuSans-63" x="1000.830078"/>
     <use xlink:href="#DejaVuSans-69" x="1055.810547"/>
    </g>
   </g>
   <g id="legend_1">
    <g id="patch_7">
     <path d="M 64.6 108.1845 
L 200.035938 108.1845 
Q 202.035938 108.1845 202.035938 106.1845 
L 202.035938 48.472 
Q 202.035938 46.472 200.035938 46.472 
L 64.6 46.472 
Q 62.6 46.472 62.6 48.472 
L 62.6 106.1845 
Q 62.6 108.1845 64.6 108.1845 
z
" style="fill: #ffffff; opacity: 0.8; stroke: #cccccc; stroke-linejoin: miter"/>
    </g>
    <g id="line2d_19">
     <path d="M 66.6 54.570438 
L 76.6 54.570438 
L 86.6 54.570438 
" style="fill: none; stroke: #1f77b4; stroke-opacity: 0.7; stroke-width: 0.5; stroke-linecap: square"/>
    </g>
    <g id="text_16">
     <!-- Positive predictions -->
     <g transform="translate(94.6 58.070438) scale(0.1 -0.1)">
      <defs>
       <path id="DejaVuSans-50" d="M 1259 4147 
L 1259 2394 
L 2053 2394 
Q 2494 2394 2734 2622 
Q 2975 2850 2975 3272 
Q 2975 3691 2734 3919 
Q 2494 4147 2053 4147 
L 1259 4147 
z
M 628 4666 
L 2053 4666 
Q 2838 4666 3239 4311 
Q 3641 3956 3641 3272 
Q 3641 2581 3239 2228 
Q 2838 1875 2053 1875 
L 1259 1875 
L 1259 0 
L 628 0 
L 628 4666 
z
" transform="scale(0.015625)"/>
       <path id="DejaVuSans-6f" d="M 1959 3097 
Q 1497 3097 1228 2736 
Q 959 2375 959 1747 
Q 959 1119 1226 758 
Q 1494 397 1959 397 
Q 2419 397 2687 759 
Q 2956 1122 2956 1747 
Q 2956 2369 2687 2733 
Q 2419 3097 1959 3097 
z
M 1959 3584 
Q 2709 3584 3137 3096 
Q 3566 2609 3566 1747 
Q 3566 888 3137 398 
Q 2709 -91 1959 -91 
Q 1206 -91 779 398 
Q 353 888 353 1747 
Q 353 2609 779 3096 
Q 1206 3584 1959 3584 
z
" transform="scale(0.015625)"/>
       <path id="DejaVuSans-73" d="M 2834 3397 
L 2834 2853 
Q 2591 2978 2328 3040 
Q 2066 3103 1784 3103 
Q 1356 3103 1142 2972 
Q 928 2841 928 2578 
Q 928 2378 1081 2264 
Q 1234 2150 1697 2047 
L 1894 2003 
Q 2506 1872 2764 1633 
Q 3022 1394 3022 966 
Q 3022 478 2636 193 
Q 2250 -91 1575 -91 
Q 1294 -91 989 -36 
Q 684 19 347 128 
L 347 722 
Q 666 556 975 473 
Q 1284 391 1588 391 
Q 1994 391 2212 530 
Q 2431 669 2431 922 
Q 2431 1156 2273 1281 
Q 2116 1406 1581 1522 
L 1381 1569 
Q 847 1681 609 1914 
Q 372 2147 372 2553 
Q 372 3047 722 3315 
Q 1072 3584 1716 3584 
Q 2034 3584 2315 3537 
Q 2597 3491 2834 3397 
z
" transform="scale(0.015625)"/>
       <path id="DejaVuSans-74" d="M 1172 4494 
L 1172 3500 
L 2356 3500 
L 2356 3053 
L 1172 3053 
L 1172 1153 
Q 1172 725 1289 603 
Q 1406 481 1766 481 
L 2356 481 
L 2356 0 
L 1766 0 
Q 1100 0 847 248 
Q 594 497 594 1153 
L 594 3053 
L 172 3053 
L 172 3500 
L 594 3500 
L 594 4494 
L 1172 4494 
z
" transform="scale(0.015625)"/>
       <path id="DejaVuSans-76" d="M 191 3500 
L 800 3500 
L 1894 563 
L 2988 3500 
L 3597 3500 
L 2284 0 
L 1503 0 
L 191 3500 
z
" transform="scale(0.015625)"/>
       <path id="DejaVuSans-20" transform="scale(0.015625)"/>
       <path id="DejaVuSans-70" d="M 1159 525 
L 1159 -1331 
L 581 -1331 
L 581 3500 
L 1159 3500 
L 1159 2969 
Q 1341 3281 1617 3432 
Q 1894 3584 2278 3584 
Q 2916 3584 3314 3078 
Q 3713 2572 3713 1747 
Q 3713 922 3314 415 
Q 2916 -91 2278 -91 
Q 1894 -91 1617 61 
Q 1341 213 1159 525 
z
M 3116 1747 
Q 3116 2381 2855 2742 
Q 2594 3103 2138 3103 
Q 1681 3103 1420 2742 
Q 1159 2381 1159 1747 
Q 1159 1113 1420 752 
Q 1681 391 2138 391 
Q 2594 391 2855 752 
Q 3116 1113 3116 1747 
z
" transform="scale(0.015625)"/>
       <path id="DejaVuSans-72" d="M 2631 2963 
Q 2534 3019 2420 3045 
Q 2306 3072 2169 3072 
Q 1681 3072 1420 2755 
Q 1159 2438 1159 1844 
L 1159 0 
L 581 0 
L 581 3500 
L 1159 3500 
L 1159 2956 
Q 1341 3275 1631 3429 
Q 1922 3584 2338 3584 
Q 2397 3584 2469 3576 
Q 2541 3569 2628 3553 
L 2631 2963 
z
" transform="scale(0.015625)"/>
       <path id="DejaVuSans-64" d="M 2906 2969 
L 2906 4863 
L 3481 4863 
L 3481 0 
L 2906 0 
L 2906 525 
Q 2725 213 2448 61 
Q 2172 -91 1784 -91 
Q 1150 -91 751 415 
Q 353 922 353 1747 
Q 353 2572 751 3078 
Q 1150 3584 1784 3584 
Q 2172 3584 2448 3432 
Q 2725 3281 2906 2969 
z
M 947 1747 
Q 947 1113 1208 752 
Q 1469 391 1925 391 
Q 2381 391 2643 752 
Q 2906 1113 2906 1747 
Q 2906 2381 2643 2742 
Q 2381 3103 1925 3103 
Q 1469 3103 1208 2742 
Q 947 2381 947 1747 
z
" transform="scale(0.015625)"/>
      </defs>
      <use xlink:href="#DejaVuSans-50"/>
      <use xlink:href="#DejaVuSans-6f" x="56.677734"/>
      <use xlink:href="#DejaVuSans-73" x="117.859375"/>
      <use xlink:href="#DejaVuSans-69" x="169.958984"/>
      <use xlink:href="#DejaVuSans-74" x="197.742188"/>
      <use xlink:href="#DejaVuSans-69" x="236.951172"/>
      <use xlink:href="#DejaVuSans-76" x="264.734375"/>
      <use xlink:href="#DejaVuSans-65" x="323.914062"/>
      <use xlink:href="#DejaVuSans-20" x="385.4375"/>
      <use xlink:href="#DejaVuSans-70" x="417.224609"/>
      <use xlink:href="#DejaVuSans-72" x="480.701172"/>
      <use xlink:href="#DejaVuSans-65" x="519.564453"/>
      <use xlink:href="#DejaVuSans-64" x="581.087891"/>
      <use xlink:href="#DejaVuSans-69" x="644.564453"/>
      <use xlink:href="#DejaVuSans-63" x="672.347656"/>
      <use xlink:href="#DejaVuSans-74" x="727.328125"/>
      <use xlink:href="#DejaVuSans-69" x="766.537109"/>
      <use xlink:href="#DejaVuSans-6f" x="794.320312"/>
      <use xlink:href="#DejaVuSans-6e" x="855.501953"/>
      <use xlink:href="#DejaVuSans-73" x="918.880859"/>
     </g>
    </g>
    <g id="line2d_20">
     <path d="M 66.6 69.248563 
L 76.6 69.248563 
L 86.6 69.248563 
" style="fill: none; stroke: #ff7f0e; stroke-opacity: 0.7; stroke-width: 0.5; stroke-linecap: square"/>
    </g>
    <g id="text_17">
     <!-- Negative predictions -->
     <g transform="translate(94.6 72.748563) scale(0.1 -0.1)">
      <defs>
       <path id="DejaVuSans-4e" d="M 628 4666 
L 1478 4666 
L 3547 763 
L 3547 4666 
L 4159 4666 
L 4159 0 
L 3309 0 
L 1241 3903 
L 1241 0 
L 628 0 
L 628 4666 
z
" transform="scale(0.015625)"/>
       <path id="DejaVuSans-67" d="M 2906 1791 
Q 2906 2416 2648 2759 
Q 2391 3103 1925 3103 
Q 1463 3103 1205 2759 
Q 947 2416 947 1791 
Q 947 1169 1205 825 
Q 1463 481 1925 481 
Q 2391 481 2648 825 
Q 2906 1169 2906 1791 
z
M 3481 434 
Q 3481 -459 3084 -895 
Q 2688 -1331 1869 -1331 
Q 1566 -1331 1297 -1286 
Q 1028 -1241 775 -1147 
L 775 -588 
Q 1028 -725 1275 -790 
Q 1522 -856 1778 -856 
Q 2344 -856 2625 -561 
Q 2906 -266 2906 331 
L 2906 616 
Q 2728 306 2450 153 
Q 2172 0 1784 0 
Q 1141 0 747 490 
Q 353 981 353 1791 
Q 353 2603 747 3093 
Q 1141 3584 1784 3584 
Q 2172 3584 2450 3431 
Q 2728 3278 2906 2969 
L 2906 3500 
L 3481 3500 
L 3481 434 
z
" transform="scale(0.015625)"/>
      </defs>
      <use xlink:href="#DejaVuSans-4e"/>
      <use xlink:href="#DejaVuSans-65" x="74.804688"/>
      <use xlink:href="#DejaVuSans-67" x="136.328125"/>
      <use xlink:href="#DejaVuSans-61" x="199.804688"/>
      <use xlink:href="#DejaVuSans-74" x="261.083984"/>
      <use xlink:href="#DejaVuSans-69" x="300.292969"/>
      <use xlink:href="#DejaVuSans-76" x="328.076172"/>
      <use xlink:href="#DejaVuSans-65" x="387.255859"/>
      <use xlink:href="#DejaVuSans-20" x="448.779297"/>
      <use xlink:href="#DejaVuSans-70" x="480.566406"/>
      <use xlink:href="#DejaVuSans-72" x="544.042969"/>
      <use xlink:href="#DejaVuSans-65" x="582.90625"/>
      <use xlink:href="#DejaVuSans-64" x="644.429688"/>
      <use xlink:href="#DejaVuSans-69" x="707.90625"/>
      <use xlink:href="#DejaVuSans-63" x="735.689453"/>
      <use xlink:href="#DejaVuSans-74" x="790.669922"/>
      <use xlink:href="#DejaVuSans-69" x="829.878906"/>
      <use xlink:href="#DejaVuSans-6f" x="857.662109"/>
      <use xlink:href="#DejaVuSans-6e" x="918.84375"/>
      <use xlink:href="#DejaVuSans-73" x="982.222656"/>
     </g>
    </g>
    <g id="line2d_21">
     <path d="M 66.6 83.926688 
L 76.6 83.926688 
L 86.6 83.926688 
" style="fill: none; stroke: #2ca02c; stroke-opacity: 0.7; stroke-width: 0.5; stroke-linecap: square"/>
    </g>
    <g id="text_18">
     <!-- Average predictions -->
     <g transform="translate(94.6 87.426688) scale(0.1 -0.1)">
      <defs>
       <path id="DejaVuSans-41" d="M 2188 4044 
L 1331 1722 
L 3047 1722 
L 2188 4044 
z
M 1831 4666 
L 2547 4666 
L 4325 0 
L 3669 0 
L 3244 1197 
L 1141 1197 
L 716 0 
L 50 0 
L 1831 4666 
z
" transform="scale(0.015625)"/>
      </defs>
      <use xlink:href="#DejaVuSans-41"/>
      <use xlink:href="#DejaVuSans-76" x="62.533203"/>
      <use xlink:href="#DejaVuSans-65" x="121.712891"/>
      <use xlink:href="#DejaVuSans-72" x="183.236328"/>
      <use xlink:href="#DejaVuSans-61" x="224.349609"/>
      <use xlink:href="#DejaVuSans-67" x="285.628906"/>
      <use xlink:href="#DejaVuSans-65" x="349.105469"/>
      <use xlink:href="#DejaVuSans-20" x="410.628906"/>
      <use xlink:href="#DejaVuSans-70" x="442.416016"/>
      <use xlink:href="#DejaVuSans-72" x="505.892578"/>
      <use xlink:href="#DejaVuSans-65" x="544.755859"/>
      <use xlink:href="#DejaVuSans-64" x="606.279297"/>
      <use xlink:href="#DejaVuSans-69" x="669.755859"/>
      <use xlink:href="#DejaVuSans-63" x="697.539062"/>
      <use xlink:href="#DejaVuSans-74" x="752.519531"/>
      <use xlink:href="#DejaVuSans-69" x="791.728516"/>
      <use xlink:href="#DejaVuSans-6f" x="819.511719"/>
      <use xlink:href="#DejaVuSans-6e" x="880.693359"/>
      <use xlink:href="#DejaVuSans-73" x="944.072266"/>
     </g>
    </g>
    <g id="line2d_22">
     <path d="M 66.6 98.604813 
L 76.6 98.604813 
L 86.6 98.604813 
" style="fill: none; stroke: #d62728; stroke-opacity: 0.7; stroke-width: 0.5; stroke-linecap: square"/>
    </g>
    <g id="text_19">
     <!-- Actual values -->
     <g transform="translate(94.6 102.104813) scale(0.1 -0.1)">
      <use xlink:href="#DejaVuSans-41"/>
      <use xlink:href="#DejaVuSans-63" x="66.658203"/>
      <use xlink:href="#DejaVuSans-74" x="121.638672"/>
      <use xlink:href="#DejaVuSans-75" x="160.847656"/>
      <use xlink:href="#DejaVuSans-61" x="224.226562"/>
      <use xlink:href="#DejaVuSans-6c" x="285.505859"/>
      <use xlink:href="#DejaVuSans-20" x="313.289062"/>
      <use xlink:href="#DejaVuSans-76" x="345.076172"/>
      <use xlink:href="#DejaVuSans-61" x="404.255859"/>
      <use xlink:href="#DejaVuSans-6c" x="465.535156"/>
      <use xlink:href="#DejaVuSans-75" x="493.318359"/>
      <use xlink:href="#DejaVuSans-65" x="556.697266"/>
      <use xlink:href="#DejaVuSans-73" x="618.220703"/>
     </g>
    </g>
   </g>
  </g>
 </g>
 <defs>
  <clipPath id="pc7638b652d">
   <rect x="57.6" y="41.472" width="357.12" height="266.112"/>
  </clipPath>
 </defs>
</svg>
