<?xml version="1.0" encoding="utf-8" standalone="no"?>
<!DOCTYPE svg PUBLIC "-//W3C//DTD SVG 1.1//EN"
  "http://www.w3.org/Graphics/SVG/1.1/DTD/svg11.dtd">
<svg xmlns:xlink="http://www.w3.org/1999/xlink" width="460.8pt" height="345.6pt" viewBox="0 0 460.8 345.6" xmlns="http://www.w3.org/2000/svg" version="1.1">
 <metadata>
  <rdf:RDF xmlns:dc="http://purl.org/dc/elements/1.1/" xmlns:cc="http://creativecommons.org/ns#" xmlns:rdf="http://www.w3.org/1999/02/22-rdf-syntax-ns#">
   <cc:Work>
    <dc:type rdf:resource="http://purl.org/dc/dcmitype/StillImage"/>
    <dc:date>2024-09-08T12:06:44.588939</dc:date>
    <dc:format>image/svg+xml</dc:format>
    <dc:creator>
     <cc:Agent>
      <dc:title>Matplotlib v3.8.3, https://matplotlib.org/</dc:title>
     </cc:Agent>
    </dc:creator>
   </cc:Work>
  </rdf:RDF>
 </metadata>
 <defs>
  <style type="text/css">*{stroke-linejoin: round; stroke-linecap: butt}</style>
 </defs>
 <g id="figure_1">
  <g id="patch_1">
   <path d="M 0 345.6 
L 460.8 345.6 
L 460.8 0 
L 0 0 
z
" style="fill: #ffffff"/>
  </g>
  <g id="axes_1">
   <g id="patch_2">
    <path d="M 57.6 307.584 
L 414.72 307.584 
L 414.72 41.472 
L 57.6 41.472 
z
" style="fill: #ffffff"/>
   </g>
   <g id="matplotlib.axis_1">
    <g id="xtick_1">
     <g id="line2d_1">
      <defs>
       <path id="m91ce80d6b7" d="M 0 0 
L 0 3.5 
" style="stroke: #000000; stroke-width: 0.8"/>
      </defs>
      <g>
       <use xlink:href="#m91ce80d6b7" x="73.832727" y="307.584" style="stroke: #000000; stroke-width: 0.8"/>
      </g>
     </g>
     <g id="text_1">
      <!-- 0 -->
      <g transform="translate(70.651477 322.182437) scale(0.1 -0.1)">
       <defs>
        <path id="DejaVuSans-30" d="M 2034 4250 
Q 1547 4250 1301 3770 
Q 1056 3291 1056 2328 
Q 1056 1369 1301 889 
Q 1547 409 2034 409 
Q 2525 409 2770 889 
Q 3016 1369 3016 2328 
Q 3016 3291 2770 3770 
Q 2525 4250 2034 4250 
z
M 2034 4750 
Q 2819 4750 3233 4129 
Q 3647 3509 3647 2328 
Q 3647 1150 3233 529 
Q 2819 -91 2034 -91 
Q 1250 -91 836 529 
Q 422 1150 422 2328 
Q 422 3509 836 4129 
Q 1250 4750 2034 4750 
z
" transform="scale(0.015625)"/>
       </defs>
       <use xlink:href="#DejaVuSans-30"/>
      </g>
     </g>
    </g>
    <g id="xtick_2">
     <g id="line2d_2">
      <g>
       <use xlink:href="#m91ce80d6b7" x="116.27123" y="307.584" style="stroke: #000000; stroke-width: 0.8"/>
      </g>
     </g>
     <g id="text_2">
      <!-- 20 -->
      <g transform="translate(109.90873 322.182437) scale(0.1 -0.1)">
       <defs>
        <path id="DejaVuSans-32" d="M 1228 531 
L 3431 531 
L 3431 0 
L 469 0 
L 469 531 
Q 828 903 1448 1529 
Q 2069 2156 2228 2338 
Q 2531 2678 2651 2914 
Q 2772 3150 2772 3378 
Q 2772 3750 2511 3984 
Q 2250 4219 1831 4219 
Q 1534 4219 1204 4116 
Q 875 4013 500 3803 
L 500 4441 
Q 881 4594 1212 4672 
Q 1544 4750 1819 4750 
Q 2544 4750 2975 4387 
Q 3406 4025 3406 3419 
Q 3406 3131 3298 2873 
Q 3191 2616 2906 2266 
Q 2828 2175 2409 1742 
Q 1991 1309 1228 531 
z
" transform="scale(0.015625)"/>
       </defs>
       <use xlink:href="#DejaVuSans-32"/>
       <use xlink:href="#DejaVuSans-30" x="63.623047"/>
      </g>
     </g>
    </g>
    <g id="xtick_3">
     <g id="line2d_3">
      <g>
       <use xlink:href="#m91ce80d6b7" x="158.709733" y="307.584" style="stroke: #000000; stroke-width: 0.8"/>
      </g>
     </g>
     <g id="text_3">
      <!-- 40 -->
      <g transform="translate(152.347233 322.182437) scale(0.1 -0.1)">
       <defs>
        <path id="DejaVuSans-34" d="M 2419 4116 
L 825 1625 
L 2419 1625 
L 2419 4116 
z
M 2253 4666 
L 3047 4666 
L 3047 1625 
L 3713 1625 
L 3713 1100 
L 3047 1100 
L 3047 0 
L 2419 0 
L 2419 1100 
L 313 1100 
L 313 1709 
L 2253 4666 
z
" transform="scale(0.015625)"/>
       </defs>
       <use xlink:href="#DejaVuSans-34"/>
       <use xlink:href="#DejaVuSans-30" x="63.623047"/>
      </g>
     </g>
    </g>
    <g id="xtick_4">
     <g id="line2d_4">
      <g>
       <use xlink:href="#m91ce80d6b7" x="201.148235" y="307.584" style="stroke: #000000; stroke-width: 0.8"/>
      </g>
     </g>
     <g id="text_4">
      <!-- 60 -->
      <g transform="translate(194.785735 322.182437) scale(0.1 -0.1)">
       <defs>
        <path id="DejaVuSans-36" d="M 2113 2584 
Q 1688 2584 1439 2293 
Q 1191 2003 1191 1497 
Q 1191 994 1439 701 
Q 1688 409 2113 409 
Q 2538 409 2786 701 
Q 3034 994 3034 1497 
Q 3034 2003 2786 2293 
Q 2538 2584 2113 2584 
z
M 3366 4563 
L 3366 3988 
Q 3128 4100 2886 4159 
Q 2644 4219 2406 4219 
Q 1781 4219 1451 3797 
Q 1122 3375 1075 2522 
Q 1259 2794 1537 2939 
Q 1816 3084 2150 3084 
Q 2853 3084 3261 2657 
Q 3669 2231 3669 1497 
Q 3669 778 3244 343 
Q 2819 -91 2113 -91 
Q 1303 -91 875 529 
Q 447 1150 447 2328 
Q 447 3434 972 4092 
Q 1497 4750 2381 4750 
Q 2619 4750 2861 4703 
Q 3103 4656 3366 4563 
z
" transform="scale(0.015625)"/>
       </defs>
       <use xlink:href="#DejaVuSans-36"/>
       <use xlink:href="#DejaVuSans-30" x="63.623047"/>
      </g>
     </g>
    </g>
    <g id="xtick_5">
     <g id="line2d_5">
      <g>
       <use xlink:href="#m91ce80d6b7" x="243.586738" y="307.584" style="stroke: #000000; stroke-width: 0.8"/>
      </g>
     </g>
     <g id="text_5">
      <!-- 80 -->
      <g transform="translate(237.224238 322.182437) scale(0.1 -0.1)">
       <defs>
        <path id="DejaVuSans-38" d="M 2034 2216 
Q 1584 2216 1326 1975 
Q 1069 1734 1069 1313 
Q 1069 891 1326 650 
Q 1584 409 2034 409 
Q 2484 409 2743 651 
Q 3003 894 3003 1313 
Q 3003 1734 2745 1975 
Q 2488 2216 2034 2216 
z
M 1403 2484 
Q 997 2584 770 2862 
Q 544 3141 544 3541 
Q 544 4100 942 4425 
Q 1341 4750 2034 4750 
Q 2731 4750 3128 4425 
Q 3525 4100 3525 3541 
Q 3525 3141 3298 2862 
Q 3072 2584 2669 2484 
Q 3125 2378 3379 2068 
Q 3634 1759 3634 1313 
Q 3634 634 3220 271 
Q 2806 -91 2034 -91 
Q 1263 -91 848 271 
Q 434 634 434 1313 
Q 434 1759 690 2068 
Q 947 2378 1403 2484 
z
M 1172 3481 
Q 1172 3119 1398 2916 
Q 1625 2713 2034 2713 
Q 2441 2713 2670 2916 
Q 2900 3119 2900 3481 
Q 2900 3844 2670 4047 
Q 2441 4250 2034 4250 
Q 1625 4250 1398 4047 
Q 1172 3844 1172 3481 
z
" transform="scale(0.015625)"/>
       </defs>
       <use xlink:href="#DejaVuSans-38"/>
       <use xlink:href="#DejaVuSans-30" x="63.623047"/>
      </g>
     </g>
    </g>
    <g id="xtick_6">
     <g id="line2d_6">
      <g>
       <use xlink:href="#m91ce80d6b7" x="286.025241" y="307.584" style="stroke: #000000; stroke-width: 0.8"/>
      </g>
     </g>
     <g id="text_6">
      <!-- 100 -->
      <g transform="translate(276.481491 322.182437) scale(0.1 -0.1)">
       <defs>
        <path id="DejaVuSans-31" d="M 794 531 
L 1825 531 
L 1825 4091 
L 703 3866 
L 703 4441 
L 1819 4666 
L 2450 4666 
L 2450 531 
L 3481 531 
L 3481 0 
L 794 0 
L 794 531 
z
" transform="scale(0.015625)"/>
       </defs>
       <use xlink:href="#DejaVuSans-31"/>
       <use xlink:href="#DejaVuSans-30" x="63.623047"/>
       <use xlink:href="#DejaVuSans-30" x="127.246094"/>
      </g>
     </g>
    </g>
    <g id="xtick_7">
     <g id="line2d_7">
      <g>
       <use xlink:href="#m91ce80d6b7" x="328.463743" y="307.584" style="stroke: #000000; stroke-width: 0.8"/>
      </g>
     </g>
     <g id="text_7">
      <!-- 120 -->
      <g transform="translate(318.919993 322.182437) scale(0.1 -0.1)">
       <use xlink:href="#DejaVuSans-31"/>
       <use xlink:href="#DejaVuSans-32" x="63.623047"/>
       <use xlink:href="#DejaVuSans-30" x="127.246094"/>
      </g>
     </g>
    </g>
    <g id="xtick_8">
     <g id="line2d_8">
      <g>
       <use xlink:href="#m91ce80d6b7" x="370.902246" y="307.584" style="stroke: #000000; stroke-width: 0.8"/>
      </g>
     </g>
     <g id="text_8">
      <!-- 140 -->
      <g transform="translate(361.358496 322.182437) scale(0.1 -0.1)">
       <use xlink:href="#DejaVuSans-31"/>
       <use xlink:href="#DejaVuSans-34" x="63.623047"/>
       <use xlink:href="#DejaVuSans-30" x="127.246094"/>
      </g>
     </g>
    </g>
    <g id="xtick_9">
     <g id="line2d_9">
      <g>
       <use xlink:href="#m91ce80d6b7" x="413.340749" y="307.584" style="stroke: #000000; stroke-width: 0.8"/>
      </g>
     </g>
     <g id="text_9">
      <!-- 160 -->
      <g transform="translate(403.796999 322.182437) scale(0.1 -0.1)">
       <use xlink:href="#DejaVuSans-31"/>
       <use xlink:href="#DejaVuSans-36" x="63.623047"/>
       <use xlink:href="#DejaVuSans-30" x="127.246094"/>
      </g>
     </g>
    </g>
   </g>
   <g id="matplotlib.axis_2">
    <g id="ytick_1">
     <g id="line2d_10">
      <defs>
       <path id="m3c190bf3d5" d="M 0 0 
L -3.5 0 
" style="stroke: #000000; stroke-width: 0.8"/>
      </defs>
      <g>
       <use xlink:href="#m3c190bf3d5" x="57.6" y="281.421471" style="stroke: #000000; stroke-width: 0.8"/>
      </g>
     </g>
     <g id="text_10">
      <!-- −0.03 -->
      <g transform="translate(19.954687 285.22069) scale(0.1 -0.1)">
       <defs>
        <path id="DejaVuSans-2212" d="M 678 2272 
L 4684 2272 
L 4684 1741 
L 678 1741 
L 678 2272 
z
" transform="scale(0.015625)"/>
        <path id="DejaVuSans-2e" d="M 684 794 
L 1344 794 
L 1344 0 
L 684 0 
L 684 794 
z
" transform="scale(0.015625)"/>
        <path id="DejaVuSans-33" d="M 2597 2516 
Q 3050 2419 3304 2112 
Q 3559 1806 3559 1356 
Q 3559 666 3084 287 
Q 2609 -91 1734 -91 
Q 1441 -91 1130 -33 
Q 819 25 488 141 
L 488 750 
Q 750 597 1062 519 
Q 1375 441 1716 441 
Q 2309 441 2620 675 
Q 2931 909 2931 1356 
Q 2931 1769 2642 2001 
Q 2353 2234 1838 2234 
L 1294 2234 
L 1294 2753 
L 1863 2753 
Q 2328 2753 2575 2939 
Q 2822 3125 2822 3475 
Q 2822 3834 2567 4026 
Q 2313 4219 1838 4219 
Q 1578 4219 1281 4162 
Q 984 4106 628 3988 
L 628 4550 
Q 988 4650 1302 4700 
Q 1616 4750 1894 4750 
Q 2613 4750 3031 4423 
Q 3450 4097 3450 3541 
Q 3450 3153 3228 2886 
Q 3006 2619 2597 2516 
z
" transform="scale(0.015625)"/>
       </defs>
       <use xlink:href="#DejaVuSans-2212"/>
       <use xlink:href="#DejaVuSans-30" x="83.789062"/>
       <use xlink:href="#DejaVuSans-2e" x="147.412109"/>
       <use xlink:href="#DejaVuSans-30" x="179.199219"/>
       <use xlink:href="#DejaVuSans-33" x="242.822266"/>
      </g>
     </g>
    </g>
    <g id="ytick_2">
     <g id="line2d_11">
      <g>
       <use xlink:href="#m3c190bf3d5" x="57.6" y="245.328282" style="stroke: #000000; stroke-width: 0.8"/>
      </g>
     </g>
     <g id="text_11">
      <!-- −0.02 -->
      <g transform="translate(19.954687 249.127501) scale(0.1 -0.1)">
       <use xlink:href="#DejaVuSans-2212"/>
       <use xlink:href="#DejaVuSans-30" x="83.789062"/>
       <use xlink:href="#DejaVuSans-2e" x="147.412109"/>
       <use xlink:href="#DejaVuSans-30" x="179.199219"/>
       <use xlink:href="#DejaVuSans-32" x="242.822266"/>
      </g>
     </g>
    </g>
    <g id="ytick_3">
     <g id="line2d_12">
      <g>
       <use xlink:href="#m3c190bf3d5" x="57.6" y="209.235093" style="stroke: #000000; stroke-width: 0.8"/>
      </g>
     </g>
     <g id="text_12">
      <!-- −0.01 -->
      <g transform="translate(19.954687 213.034311) scale(0.1 -0.1)">
       <use xlink:href="#DejaVuSans-2212"/>
       <use xlink:href="#DejaVuSans-30" x="83.789062"/>
       <use xlink:href="#DejaVuSans-2e" x="147.412109"/>
       <use xlink:href="#DejaVuSans-30" x="179.199219"/>
       <use xlink:href="#DejaVuSans-31" x="242.822266"/>
      </g>
     </g>
    </g>
    <g id="ytick_4">
     <g id="line2d_13">
      <g>
       <use xlink:href="#m3c190bf3d5" x="57.6" y="173.141903" style="stroke: #000000; stroke-width: 0.8"/>
      </g>
     </g>
     <g id="text_13">
      <!-- 0.00 -->
      <g transform="translate(28.334375 176.941122) scale(0.1 -0.1)">
       <use xlink:href="#DejaVuSans-30"/>
       <use xlink:href="#DejaVuSans-2e" x="63.623047"/>
       <use xlink:href="#DejaVuSans-30" x="95.410156"/>
       <use xlink:href="#DejaVuSans-30" x="159.033203"/>
      </g>
     </g>
    </g>
    <g id="ytick_5">
     <g id="line2d_14">
      <g>
       <use xlink:href="#m3c190bf3d5" x="57.6" y="137.048714" style="stroke: #000000; stroke-width: 0.8"/>
      </g>
     </g>
     <g id="text_14">
      <!-- 0.01 -->
      <g transform="translate(28.334375 140.847933) scale(0.1 -0.1)">
       <use xlink:href="#DejaVuSans-30"/>
       <use xlink:href="#DejaVuSans-2e" x="63.623047"/>
       <use xlink:href="#DejaVuSans-30" x="95.410156"/>
       <use xlink:href="#DejaVuSans-31" x="159.033203"/>
      </g>
     </g>
    </g>
    <g id="ytick_6">
     <g id="line2d_15">
      <g>
       <use xlink:href="#m3c190bf3d5" x="57.6" y="100.955525" style="stroke: #000000; stroke-width: 0.8"/>
      </g>
     </g>
     <g id="text_15">
      <!-- 0.02 -->
      <g transform="translate(28.334375 104.754744) scale(0.1 -0.1)">
       <use xlink:href="#DejaVuSans-30"/>
       <use xlink:href="#DejaVuSans-2e" x="63.623047"/>
       <use xlink:href="#DejaVuSans-30" x="95.410156"/>
       <use xlink:href="#DejaVuSans-32" x="159.033203"/>
      </g>
     </g>
    </g>
    <g id="ytick_7">
     <g id="line2d_16">
      <g>
       <use xlink:href="#m3c190bf3d5" x="57.6" y="64.862336" style="stroke: #000000; stroke-width: 0.8"/>
      </g>
     </g>
     <g id="text_16">
      <!-- 0.03 -->
      <g transform="translate(28.334375 68.661555) scale(0.1 -0.1)">
       <use xlink:href="#DejaVuSans-30"/>
       <use xlink:href="#DejaVuSans-2e" x="63.623047"/>
       <use xlink:href="#DejaVuSans-30" x="95.410156"/>
       <use xlink:href="#DejaVuSans-33" x="159.033203"/>
      </g>
     </g>
    </g>
   </g>
   <g id="line2d_17">
    <path d="M 73.832727 180.457516 
L 75.954652 171.184373 
L 78.076578 166.598529 
L 80.198503 172.886929 
L 82.320428 171.551689 
L 84.442353 159.964154 
L 86.564278 169.133991 
L 88.686203 172.1498 
L 90.808128 178.179309 
L 92.930053 174.07988 
L 95.051979 188.489605 
L 97.173904 169.089373 
L 99.295829 166.201869 
L 101.417754 173.58955 
L 103.539679 170.540912 
L 105.661604 175.937374 
L 107.783529 154.67328 
L 109.905455 161.991517 
L 112.02738 175.257255 
L 114.149305 176.958735 
L 116.27123 182.99685 
L 118.393155 172.584883 
L 120.51508 174.000582 
L 122.637005 184.307435 
L 124.75893 167.064721 
L 126.880856 172.758065 
L 129.002781 173.055119 
L 131.124706 166.628476 
L 133.246631 187.538161 
L 135.368556 157.50386 
L 137.490481 172.837663 
L 139.612406 164.633211 
L 141.734332 170.153072 
L 143.856257 172.785989 
L 145.978182 178.151987 
L 148.100107 178.888815 
L 152.343957 163.96785 
L 154.465882 180.089812 
L 156.587807 167.719927 
L 158.709733 176.80242 
L 160.831658 174.207066 
L 162.953583 186.831925 
L 165.075508 179.983537 
L 167.197433 164.360294 
L 169.319358 175.286212 
L 171.441283 178.820188 
L 173.563209 177.974159 
L 175.685134 177.677449 
L 179.928984 167.412245 
L 182.050909 174.968634 
L 184.172834 164.794904 
L 186.294759 197.41716 
L 188.416684 146.543005 
L 190.53861 181.258367 
L 192.660535 181.850798 
L 194.78246 174.979476 
L 196.904385 171.770651 
L 199.02631 188.38191 
L 201.148235 174.016115 
L 203.27016 167.878049 
L 205.392086 179.410425 
L 207.514011 181.660019 
L 209.635936 176.484283 
L 211.757861 169.587705 
L 213.879786 178.152977 
L 216.001711 175.431641 
L 218.123636 170.523444 
L 220.245561 171.190439 
L 222.367487 177.395583 
L 224.489412 189.523358 
L 226.611337 178.636293 
L 228.733262 190.702755 
L 230.855187 176.591591 
L 232.977112 168.295965 
L 235.099037 171.996841 
L 237.220963 162.160051 
L 239.342888 181.982545 
L 243.586738 170.715901 
L 245.708663 170.881338 
L 247.830588 183.604814 
L 249.952513 176.983734 
L 252.074439 177.253208 
L 254.196364 170.427323 
L 256.318289 170.964034 
L 258.440214 165.514779 
L 260.562139 165.661112 
L 262.684064 170.206124 
L 264.805989 171.165656 
L 266.927914 167.290222 
L 269.04984 189.950653 
L 271.171765 169.283035 
L 273.29369 167.514132 
L 275.415615 176.062021 
L 277.53754 167.291384 
L 279.659465 166.547758 
L 281.78139 164.004552 
L 283.903316 163.029917 
L 286.025241 170.935379 
L 288.147166 177.824169 
L 290.269091 186.400757 
L 292.391016 176.434028 
L 294.512941 171.666226 
L 296.634866 155.878149 
L 298.756791 175.322182 
L 300.878717 174.74197 
L 303.000642 166.715991 
L 305.122567 157.46221 
L 307.244492 172.266832 
L 309.366417 196.344683 
L 311.488342 170.701917 
L 313.610267 182.218287 
L 315.732193 156.049308 
L 317.854118 177.873822 
L 319.976043 177.208633 
L 322.097968 179.034761 
L 324.219893 171.347766 
L 326.341818 190.801566 
L 328.463743 163.703259 
L 330.585668 163.288377 
L 332.707594 186.912772 
L 334.829519 193.37872 
L 336.951444 172.633546 
L 339.073369 170.829792 
L 341.195294 181.080496 
L 343.317219 168.720593 
L 345.439144 184.766269 
L 347.56107 170.850961 
L 349.682995 166.769732 
L 351.80492 175.942967 
L 353.926845 178.829675 
L 356.04877 175.749262 
L 358.170695 183.582139 
L 360.29262 178.569344 
L 362.414545 162.291755 
L 364.536471 160.647672 
L 366.658396 171.463313 
L 368.780321 180.314539 
L 370.902246 174.026484 
L 373.024171 179.029942 
L 375.146096 165.592829 
L 377.268021 159.961487 
L 379.389947 166.336584 
L 381.511872 164.849569 
L 383.633797 168.307066 
L 385.755722 177.25579 
L 387.877647 171.782397 
L 389.999572 176.976247 
L 392.121497 188.86316 
L 394.243422 163.373913 
L 396.365348 174.590345 
L 398.487273 179.941457 
L 398.487273 179.941457 
" clip-path="url(#p48e51e49fc)" style="fill: none; stroke: #008000; stroke-opacity: 0.8; stroke-width: 0.5; stroke-linecap: square"/>
   </g>
   <g id="line2d_18">
    <path d="M 73.832727 149.369798 
L 75.954652 103.131441 
L 78.076578 108.200385 
L 80.198503 119.864421 
L 82.320428 134.328187 
L 84.442353 131.493175 
L 86.564278 141.782517 
L 88.686203 121.287305 
L 90.808128 73.594654 
L 92.930053 120.792501 
L 95.051979 150.399851 
L 97.173904 129.748884 
L 99.295829 131.531899 
L 101.417754 126.746929 
L 103.539679 119.16266 
L 105.661604 120.539506 
L 107.783529 101.705975 
L 109.905455 128.300614 
L 112.02738 134.497281 
L 114.149305 122.51571 
L 116.27123 130.42698 
L 118.393155 122.54927 
L 120.51508 145.469022 
L 122.637005 145.493977 
L 124.75893 123.844366 
L 126.880856 150.214838 
L 129.002781 136.220059 
L 131.124706 125.004789 
L 133.246631 166.647063 
L 135.368556 119.133832 
L 137.490481 156.851665 
L 139.612406 127.672858 
L 141.734332 149.701962 
L 143.856257 142.166743 
L 145.978182 140.690506 
L 148.100107 158.426433 
L 150.222032 135.109117 
L 152.343957 155.422327 
L 154.465882 158.689324 
L 156.587807 122.860782 
L 158.709733 138.142481 
L 160.831658 143.741941 
L 162.953583 164.562863 
L 165.075508 159.52963 
L 167.197433 121.910758 
L 169.319358 144.731549 
L 171.441283 159.128194 
L 173.563209 130.568968 
L 175.685134 145.664792 
L 177.807059 118.745734 
L 179.928984 147.632821 
L 182.050909 154.393995 
L 184.172834 132.075753 
L 186.294759 155.689951 
L 188.416684 53.568 
L 190.53861 123.595673 
L 192.660535 131.820176 
L 194.78246 155.584106 
L 196.904385 131.249646 
L 199.02631 143.363738 
L 201.148235 135.310911 
L 203.27016 136.835768 
L 205.392086 151.92815 
L 207.514011 154.085065 
L 209.635936 118.1382 
L 211.757861 127.567874 
L 213.879786 128.686991 
L 216.001711 138.469912 
L 218.123636 149.594396 
L 220.245561 148.055771 
L 222.367487 144.269015 
L 224.489412 144.63646 
L 226.611337 147.208581 
L 228.733262 162.176617 
L 230.855187 133.540803 
L 232.977112 131.400238 
L 235.099037 140.564008 
L 237.220963 126.97583 
L 239.342888 154.244693 
L 241.464813 141.777354 
L 243.586738 128.363863 
L 245.708663 136.356023 
L 247.830588 140.998145 
L 249.952513 142.755775 
L 252.074439 155.714476 
L 254.196364 121.211148 
L 256.318289 123.26437 
L 258.440214 125.091702 
L 260.562139 134.162535 
L 262.684064 139.02108 
L 264.805989 139.528792 
L 266.927914 140.860891 
L 269.04984 156.688595 
L 271.171765 138.506914 
L 273.29369 106.867856 
L 275.415615 161.848755 
L 277.53754 129.926153 
L 279.659465 132.172563 
L 281.78139 114.313581 
L 283.903316 135.369857 
L 286.025241 138.810681 
L 288.147166 129.263976 
L 290.269091 125.646743 
L 292.391016 127.460308 
L 294.512941 150.926925 
L 296.634866 106.407904 
L 298.756791 121.726175 
L 300.878717 132.666506 
L 303.000642 147.837197 
L 305.122567 110.803914 
L 307.244492 117.479896 
L 309.366417 141.224464 
L 311.488342 143.503144 
L 313.610267 131.123148 
L 315.732193 100.67248 
L 317.854118 149.830181 
L 319.976043 130.76861 
L 322.097968 143.10558 
L 324.219893 148.710203 
L 326.341818 107.054161 
L 328.463743 105.624177 
L 330.585668 113.22243 
L 332.707594 138.240796 
L 334.829519 117.405245 
L 336.951444 121.00247 
L 339.073369 123.056982 
L 341.195294 147.991231 
L 343.317219 125.014685 
L 345.439144 160.055413 
L 347.56107 125.524979 
L 349.682995 145.568843 
L 351.80492 130.526802 
L 353.926845 118.886 
L 356.04877 138.494007 
L 358.170695 135.275199 
L 360.29262 160.8144 
L 362.414545 119.339498 
L 364.536471 139.630335 
L 366.658396 143.938141 
L 368.780321 158.648879 
L 370.902246 121.199531 
L 373.024171 112.859287 
L 375.146096 133.281354 
L 377.268021 97.308673 
L 379.389947 111.945406 
L 381.511872 139.516745 
L 383.633797 137.48977 
L 385.755722 124.704465 
L 387.877647 134.546331 
L 389.999572 155.658112 
L 392.121497 158.956949 
L 394.243422 142.538922 
L 396.365348 118.128304 
L 398.487273 156.199815 
L 398.487273 156.199815 
" clip-path="url(#p48e51e49fc)" style="fill: none; stroke: #32cd32; stroke-opacity: 0.8; stroke-width: 0.5; stroke-linecap: square"/>
   </g>
   <g id="line2d_19">
    <path d="M 73.832727 198.826964 
L 75.954652 212.085129 
L 78.076578 234.218357 
L 80.198503 207.720528 
L 82.320428 219.337665 
L 84.442353 201.049279 
L 86.564278 212.787751 
L 88.686203 210.798209 
L 90.808128 210.70269 
L 92.930053 232.20515 
L 95.051979 205.18498 
L 97.173904 217.936294 
L 99.295829 208.230391 
L 101.417754 223.108071 
L 103.539679 243.607586 
L 105.661604 216.198887 
L 107.783529 207.662012 
L 109.905455 192.952134 
L 112.02738 231.066241 
L 114.149305 236.503061 
L 116.27123 228.803481 
L 118.393155 199.555832 
L 120.51508 193.69434 
L 122.637005 237.663484 
L 124.75893 194.486027 
L 126.880856 212.025753 
L 129.002781 216.169629 
L 131.124706 222.516888 
L 133.246631 215.778518 
L 135.368556 189.715686 
L 137.490481 188.6809 
L 139.612406 196.189874 
L 141.734332 207.289403 
L 143.856257 197.332225 
L 145.978182 203.536637 
L 148.100107 206.638413 
L 150.222032 200.13884 
L 152.343957 178.944018 
L 154.465882 226.457249 
L 156.587807 186.204729 
L 158.709733 204.285297 
L 160.831658 205.091182 
L 162.953583 211.968097 
L 165.075508 214.512681 
L 167.197433 213.89267 
L 169.319358 192.369126 
L 171.441283 227.601322 
L 175.685134 201.0837 
L 177.807059 200.943434 
L 179.928984 196.941545 
L 184.172834 197.251766 
L 186.294759 259.975272 
L 188.416684 226.319134 
L 190.53861 241.09097 
L 192.660535 225.055448 
L 194.78246 202.541006 
L 196.904385 204.780531 
L 199.02631 216.138219 
L 201.148235 208.893428 
L 203.27016 205.2336 
L 205.392086 215.831011 
L 207.514011 219.529563 
L 209.635936 238.027488 
L 211.757861 213.865993 
L 213.879786 213.744659 
L 216.001711 201.195139 
L 218.123636 212.279178 
L 220.245561 195.084955 
L 222.367487 220.384928 
L 224.489412 226.383674 
L 226.611337 201.268714 
L 228.733262 224.544724 
L 230.855187 228.391718 
L 232.977112 191.970701 
L 235.099037 205.855332 
L 237.220963 204.009498 
L 239.342888 218.012021 
L 241.464813 220.201206 
L 243.586738 233.696016 
L 245.708663 208.422719 
L 247.830588 203.829647 
L 249.952513 203.489738 
L 252.074439 205.767988 
L 254.196364 197.098162 
L 256.318289 191.573998 
L 258.440214 194.544112 
L 260.562139 185.754672 
L 262.684064 200.916758 
L 264.805989 209.228174 
L 266.927914 225.491736 
L 269.04984 293.991971 
L 271.171765 203.588269 
L 273.29369 195.661079 
L 275.415615 201.056163 
L 277.53754 208.751871 
L 279.659465 205.293837 
L 281.78139 188.33841 
L 283.903316 181.609936 
L 286.025241 212.633286 
L 288.147166 203.921724 
L 290.269091 216.74145 
L 292.391016 223.573187 
L 294.512941 202.869297 
L 296.634866 200.569104 
L 298.756791 225.873811 
L 300.878717 215.831871 
L 303.000642 184.772809 
L 307.244492 217.179459 
L 309.366417 256.886834 
L 311.488342 208.621932 
L 313.610267 215.760447 
L 315.732193 180.699066 
L 317.854118 214.9352 
L 319.976043 244.722831 
L 322.097968 207.376316 
L 324.219893 210.688061 
L 326.341818 217.950063 
L 328.463743 241.322452 
L 330.585668 228.456042 
L 332.707594 247.035932 
L 334.829519 229.088961 
L 336.951444 214.502354 
L 339.073369 212.269282 
L 341.195294 211.302048 
L 343.317219 212.012415 
L 345.439144 207.304462 
L 347.56107 210.400644 
L 349.682995 204.842059 
L 351.80492 200.842322 
L 353.926845 232.674569 
L 356.04877 205.797676 
L 358.170695 265.704672 
L 360.29262 230.708261 
L 362.414545 202.18948 
L 364.536471 218.790799 
L 366.658396 202.852947 
L 368.780321 224.200943 
L 370.902246 214.976936 
L 373.024171 227.349187 
L 375.146096 192.544244 
L 377.268021 185.348933 
L 379.389947 211.165654 
L 381.511872 182.815967 
L 383.633797 201.862909 
L 385.755722 195.836627 
L 387.877647 215.625344 
L 389.999572 219.234402 
L 392.121497 227.58239 
L 394.243422 223.354183 
L 396.365348 215.497125 
L 398.487273 224.752542 
L 398.487273 224.752542 
" clip-path="url(#p48e51e49fc)" style="fill: none; stroke: #32cd32; stroke-opacity: 0.8; stroke-width: 0.5; stroke-linecap: square"/>
   </g>
   <g id="line2d_20">
    <path d="M 73.832727 173.430353 
L 75.954652 158.278293 
L 78.076578 174.806854 
L 80.198503 175.515112 
L 82.320428 164.704592 
L 84.442353 163.708573 
L 86.564278 164.027227 
L 88.686203 173.677324 
L 90.808128 169.888546 
L 92.930053 178.124408 
L 95.051979 176.433856 
L 97.173904 169.074658 
L 99.295829 167.703061 
L 101.417754 170.723904 
L 103.539679 176.075962 
L 105.661604 168.836807 
L 107.783529 167.467362 
L 109.905455 186.403511 
L 112.02738 174.610267 
L 114.149305 171.270124 
L 116.27123 172.058283 
L 118.393155 175.670352 
L 120.51508 174.203667 
L 122.637005 184.608965 
L 124.75893 174.788783 
L 126.880856 175.113461 
L 129.002781 170.891793 
L 131.124706 174.673214 
L 133.246631 171.427687 
L 135.368556 166.545607 
L 137.490481 174.605792 
L 139.612406 169.009774 
L 141.734332 182.553291 
L 143.856257 175.305014 
L 145.978182 177.874338 
L 148.100107 179.774729 
L 150.222032 177.019101 
L 152.343957 159.850478 
L 154.465882 169.001039 
L 156.587807 163.181929 
L 158.709733 173.191083 
L 160.831658 178.919149 
L 162.953583 174.305553 
L 165.075508 174.31532 
L 167.197433 182.160287 
L 169.319358 171.956224 
L 171.441283 181.500003 
L 173.563209 178.513668 
L 175.685134 179.368818 
L 177.807059 177.49833 
L 179.928984 162.564113 
L 184.172834 168.438813 
L 186.294759 195.669211 
L 188.416684 160.274977 
L 190.53861 182.468528 
L 192.660535 178.794114 
L 194.78246 171.307385 
L 196.904385 172.19984 
L 199.02631 198.637561 
L 201.148235 188.60995 
L 203.27016 177.48099 
L 205.392086 173.088034 
L 207.514011 173.597338 
L 209.635936 178.582811 
L 211.757861 169.088211 
L 213.879786 185.171922 
L 218.123636 161.964582 
L 220.245561 176.633197 
L 222.367487 171.192806 
L 224.489412 182.199398 
L 226.611337 169.423172 
L 228.733262 190.824692 
L 230.855187 176.97728 
L 232.977112 174.963255 
L 235.099037 175.616225 
L 237.220963 170.327975 
L 239.342888 158.376995 
L 241.464813 166.995147 
L 243.586738 167.393529 
L 245.708663 169.680814 
L 247.830588 180.542192 
L 249.952513 171.009685 
L 252.074439 181.406851 
L 254.196364 187.182806 
L 256.318289 167.869702 
L 258.440214 175.603058 
L 260.562139 172.020333 
L 262.684064 158.482668 
L 264.805989 177.447559 
L 266.927914 172.173637 
L 269.04984 185.876781 
L 271.171765 166.711947 
L 273.29369 168.84438 
L 275.415615 177.375489 
L 277.53754 174.884861 
L 279.659465 163.536811 
L 281.78139 161.069719 
L 283.903316 181.318475 
L 286.025241 169.911866 
L 288.147166 170.987226 
L 290.269091 179.053434 
L 292.391016 173.139322 
L 296.634866 157.898928 
L 298.756791 183.970409 
L 300.878717 173.91625 
L 303.000642 156.471914 
L 305.122567 167.8401 
L 307.244492 158.188625 
L 309.366417 184.327572 
L 311.488342 166.961888 
L 313.610267 173.73541 
L 315.732193 157.163951 
L 317.854118 173.690275 
L 319.976043 168.041636 
L 322.097968 159.195143 
L 326.341818 179.558371 
L 328.463743 175.439988 
L 330.585668 180.816313 
L 332.707594 178.851791 
L 334.829519 178.161346 
L 336.951444 173.725062 
L 339.073369 181.474704 
L 341.195294 175.295936 
L 343.317219 191.121274 
L 345.439144 187.94063 
L 347.56107 178.296814 
L 349.682995 176.573046 
L 351.80492 163.241564 
L 353.926845 175.816384 
L 356.04877 187.69069 
L 358.170695 177.862377 
L 362.414545 170.006223 
L 364.536471 170.133538 
L 366.658396 177.567732 
L 368.780321 181.726753 
L 370.902246 184.806155 
L 373.024171 172.344495 
L 375.146096 167.944869 
L 377.268021 171.242717 
L 379.389947 170.885425 
L 381.511872 174.639352 
L 383.633797 166.19933 
L 385.755722 177.400165 
L 387.877647 181.710725 
L 389.999572 175.907212 
L 392.121497 179.817455 
L 394.243422 168.541517 
L 396.365348 187.655946 
L 398.487273 172.209047 
L 398.487273 172.209047 
" clip-path="url(#p48e51e49fc)" style="fill: none; stroke: #ff0000; stroke-opacity: 0.8; stroke-width: 0.5; stroke-linecap: square"/>
   </g>
   <g id="line2d_21">
    <path d="M 73.832727 112.869183 
L 75.954652 111.347769 
L 78.076578 113.302459 
L 80.198503 149.239428 
L 84.442353 128.931812 
L 86.564278 122.7274 
L 88.686203 146.265011 
L 90.808128 82.575562 
L 92.930053 146.384624 
L 95.051979 133.163892 
L 97.173904 101.684031 
L 99.295829 146.184982 
L 101.417754 121.737362 
L 103.539679 142.594856 
L 105.661604 142.595717 
L 107.783529 149.848683 
L 109.905455 157.539658 
L 112.02738 143.041901 
L 114.149305 144.24492 
L 116.27123 140.427615 
L 118.393155 131.497908 
L 120.51508 115.750664 
L 122.637005 152.652285 
L 124.75893 135.563476 
L 126.880856 127.229256 
L 129.002781 133.055035 
L 131.124706 124.659717 
L 133.246631 125.666966 
L 135.368556 132.080917 
L 137.490481 147.410805 
L 139.612406 142.936486 
L 141.734332 161.969229 
L 143.856257 146.029656 
L 145.978182 146.079137 
L 148.100107 141.334612 
L 150.222032 144.047428 
L 152.343957 137.424369 
L 154.465882 105.448844 
L 156.587807 135.712348 
L 158.709733 133.490032 
L 160.831658 140.087706 
L 162.953583 144.870954 
L 165.075508 151.301255 
L 167.197433 162.147789 
L 169.319358 146.590721 
L 171.441283 154.084205 
L 173.563209 152.924212 
L 175.685134 164.784019 
L 177.807059 155.36209 
L 179.928984 127.602725 
L 182.050909 125.057281 
L 184.172834 131.074098 
L 186.294759 157.096055 
L 188.416684 82.826836 
L 190.53861 129.181795 
L 192.660535 156.449798 
L 194.78246 119.023254 
L 196.904385 138.817565 
L 199.02631 134.342816 
L 201.148235 172.19231 
L 203.27016 142.678758 
L 205.392086 145.737507 
L 211.757861 130.778076 
L 213.879786 147.682732 
L 216.001711 146.588139 
L 218.123636 126.765001 
L 220.245561 143.690309 
L 222.367487 138.71129 
L 224.489412 141.849638 
L 226.611337 127.786448 
L 228.733262 155.846998 
L 230.855187 162.091424 
L 232.977112 136.385711 
L 235.099037 132.872603 
L 237.220963 102.733876 
L 239.342888 100.275346 
L 241.464813 142.362083 
L 243.586738 130.309518 
L 245.708663 120.767116 
L 247.830588 162.544493 
L 249.952513 143.488085 
L 252.074439 136.115936 
L 254.196364 162.242447 
L 256.318289 124.734153 
L 258.440214 106.914755 
L 260.562139 140.397066 
L 262.684064 116.775553 
L 264.805989 132.766758 
L 266.927914 129.813423 
L 269.04984 168.335851 
L 271.171765 146.401835 
L 273.29369 142.307439 
L 275.415615 147.930994 
L 277.53754 128.158627 
L 279.659465 128.390969 
L 281.78139 120.836388 
L 283.903316 156.590064 
L 286.025241 142.947673 
L 288.147166 148.88403 
L 290.269091 144.117992 
L 292.391016 146.750349 
L 294.512941 134.369062 
L 296.634866 93.127795 
L 298.756791 140.640165 
L 300.878717 138.316738 
L 303.000642 129.190401 
L 305.122567 101.500308 
L 307.244492 119.014649 
L 309.366417 138.89028 
L 311.488342 113.69443 
L 313.610267 131.734123 
L 315.732193 105.023743 
L 317.854118 136.321602 
L 319.976043 119.049931 
L 322.097968 109.237322 
L 324.219893 109.675116 
L 326.341818 128.351815 
L 328.463743 125.310492 
L 330.585668 129.892162 
L 332.707594 118.982379 
L 334.829519 131.55793 
L 336.951444 111.924753 
L 339.073369 150.936391 
L 341.195294 123.936443 
L 343.317219 129.712742 
L 345.439144 142.891308 
L 347.56107 147.560537 
L 349.682995 138.468191 
L 351.80492 118.784027 
L 353.926845 109.257544 
L 356.04877 127.869059 
L 358.170695 138.176471 
L 360.29262 137.547425 
L 362.414545 145.375224 
L 364.536471 122.970069 
L 366.658396 146.666878 
L 368.780321 158.180321 
L 370.902246 156.260052 
L 373.024171 143.615013 
L 375.146096 111.791801 
L 377.268021 147.152646 
L 379.389947 146.984843 
L 381.511872 135.844008 
L 383.633797 131.537923 
L 385.755722 105.419371 
L 387.877647 144.661416 
L 389.999572 132.176435 
L 392.121497 151.499607 
L 394.243422 138.979775 
L 396.365348 145.478918 
L 398.487273 150.260446 
L 398.487273 150.260446 
" clip-path="url(#p48e51e49fc)" style="fill: none; stroke: #f08080; stroke-opacity: 0.8; stroke-width: 0.5; stroke-linecap: square"/>
   </g>
   <g id="line2d_22">
    <path d="M 73.832727 210.330941 
L 75.954652 221.359907 
L 78.076578 222.954037 
L 80.198503 233.21283 
L 82.320428 181.942961 
L 84.442353 201.58754 
L 86.564278 208.488119 
L 88.686203 250.927243 
L 90.808128 203.404976 
L 92.930053 218.726259 
L 95.051979 216.738868 
L 97.173904 232.758901 
L 99.295829 190.230282 
L 101.417754 221.214908 
L 103.539679 229.694128 
L 105.661604 204.942311 
L 107.783529 196.066388 
L 109.905455 213.939999 
L 112.02738 227.314336 
L 114.149305 224.979291 
L 116.27123 197.55123 
L 118.393155 218.542537 
L 120.51508 227.145242 
L 122.637005 232.540326 
L 124.75893 213.142289 
L 126.880856 218.249526 
L 129.002781 199.777848 
L 131.124706 224.695317 
L 133.246631 206.075197 
L 135.368556 197.02975 
L 137.490481 200.553184 
L 139.612406 211.77792 
L 141.734332 205.302012 
L 143.856257 195.74455 
L 145.978182 202.735055 
L 148.100107 219.418124 
L 150.222032 196.999631 
L 152.343957 184.801637 
L 154.465882 213.092808 
L 156.587807 183.107686 
L 158.709733 208.853844 
L 160.831658 209.832695 
L 162.953583 204.116203 
L 165.075508 190.801673 
L 167.197433 209.919609 
L 169.319358 206.406931 
L 171.441283 217.520659 
L 173.563209 198.870851 
L 175.685134 201.857315 
L 177.807059 215.057826 
L 179.928984 191.017666 
L 182.050909 198.672499 
L 184.172834 203.643343 
L 186.294759 224.052071 
L 188.416684 208.966143 
L 190.53861 237.438025 
L 192.660535 207.820349 
L 194.78246 204.347255 
L 196.904385 198.776623 
L 199.02631 280.1224 
L 201.148235 209.694581 
L 203.27016 219.848819 
L 205.392086 224.761147 
L 207.514011 193.121659 
L 209.635936 243.231535 
L 211.757861 201.081979 
L 213.879786 249.576643 
L 216.001711 195.375383 
L 218.123636 204.145461 
L 220.245561 226.104002 
L 222.367487 217.075765 
L 224.489412 241.499721 
L 226.611337 194.960178 
L 228.733262 249.166601 
L 230.855187 188.991121 
L 232.977112 214.561731 
L 235.099037 223.666555 
L 237.220963 205.643642 
L 239.342888 191.151478 
L 241.464813 200.698614 
L 243.586738 217.419116 
L 245.708663 218.464659 
L 247.830588 194.501947 
L 249.952513 204.069304 
L 252.074439 211.552032 
L 254.196364 208.192528 
L 256.318289 199.536039 
L 258.440214 217.191076 
L 260.562139 194.596605 
L 262.684064 215.58662 
L 264.805989 218.077851 
L 266.927914 210.00351 
L 269.04984 208.084531 
L 271.171765 193.74253 
L 273.29369 197.574034 
L 275.415615 211.692728 
L 277.53754 210.031908 
L 279.659465 208.599128 
L 281.78139 184.574888 
L 283.903316 219.044655 
L 286.025241 220.474854 
L 288.147166 195.181334 
L 290.269091 230.986642 
L 292.391016 214.945096 
L 294.512941 194.033389 
L 296.634866 216.300429 
L 298.756791 235.113307 
L 300.878717 219.94778 
L 303.000642 185.827387 
L 305.122567 207.314358 
L 307.244492 215.509603 
L 309.366417 227.533771 
L 311.488342 208.57116 
L 313.610267 193.22234 
L 315.732193 214.020458 
L 317.854118 207.634475 
L 319.976043 225.761081 
L 322.097968 202.309954 
L 324.219893 237.279688 
L 326.341818 231.393242 
L 328.463743 251.382893 
L 330.585668 241.11528 
L 332.707594 224.464695 
L 334.829519 243.050609 
L 336.951444 227.993723 
L 339.073369 219.86603 
L 341.195294 207.110843 
L 343.317219 266.348778 
L 345.439144 237.165668 
L 347.56107 229.391652 
L 349.682995 214.670588 
L 351.80492 216.605917 
L 353.926845 218.87384 
L 356.04877 227.459335 
L 358.170695 219.625082 
L 360.29262 208.247602 
L 362.414545 215.29361 
L 364.536471 218.799404 
L 366.658396 236.022456 
L 368.780321 219.234402 
L 370.902246 212.730956 
L 375.146096 191.558508 
L 377.268021 200.796284 
L 379.389947 200.418512 
L 381.511872 212.348881 
L 383.633797 197.06331 
L 385.755722 295.488 
L 387.877647 235.521413 
L 389.999572 206.255478 
L 392.121497 224.767171 
L 394.243422 221.141763 
L 396.365348 214.320783 
L 398.487273 187.662465 
L 398.487273 187.662465 
" clip-path="url(#p48e51e49fc)" style="fill: none; stroke: #f08080; stroke-opacity: 0.8; stroke-width: 0.5; stroke-linecap: square"/>
   </g>
   <g id="patch_3">
    <path d="M 57.6 307.584 
L 57.6 41.472 
" style="fill: none; stroke: #000000; stroke-width: 0.8; stroke-linejoin: miter; stroke-linecap: square"/>
   </g>
   <g id="patch_4">
    <path d="M 414.72 307.584 
L 414.72 41.472 
" style="fill: none; stroke: #000000; stroke-width: 0.8; stroke-linejoin: miter; stroke-linecap: square"/>
   </g>
   <g id="patch_5">
    <path d="M 57.6 307.584 
L 414.72 307.584 
" style="fill: none; stroke: #000000; stroke-width: 0.8; stroke-linejoin: miter; stroke-linecap: square"/>
   </g>
   <g id="patch_6">
    <path d="M 57.6 41.472 
L 414.72 41.472 
" style="fill: none; stroke: #000000; stroke-width: 0.8; stroke-linejoin: miter; stroke-linecap: square"/>
   </g>
   <g id="text_17">
    <!-- 1final_weighted_eurusd -->
    <g transform="translate(164.98875 35.472) scale(0.12 -0.12)">
     <defs>
      <path id="DejaVuSans-66" d="M 2375 4863 
L 2375 4384 
L 1825 4384 
Q 1516 4384 1395 4259 
Q 1275 4134 1275 3809 
L 1275 3500 
L 2222 3500 
L 2222 3053 
L 1275 3053 
L 1275 0 
L 697 0 
L 697 3053 
L 147 3053 
L 147 3500 
L 697 3500 
L 697 3744 
Q 697 4328 969 4595 
Q 1241 4863 1831 4863 
L 2375 4863 
z
" transform="scale(0.015625)"/>
      <path id="DejaVuSans-69" d="M 603 3500 
L 1178 3500 
L 1178 0 
L 603 0 
L 603 3500 
z
M 603 4863 
L 1178 4863 
L 1178 4134 
L 603 4134 
L 603 4863 
z
" transform="scale(0.015625)"/>
      <path id="DejaVuSans-6e" d="M 3513 2113 
L 3513 0 
L 2938 0 
L 2938 2094 
Q 2938 2591 2744 2837 
Q 2550 3084 2163 3084 
Q 1697 3084 1428 2787 
Q 1159 2491 1159 1978 
L 1159 0 
L 581 0 
L 581 3500 
L 1159 3500 
L 1159 2956 
Q 1366 3272 1645 3428 
Q 1925 3584 2291 3584 
Q 2894 3584 3203 3211 
Q 3513 2838 3513 2113 
z
" transform="scale(0.015625)"/>
      <path id="DejaVuSans-61" d="M 2194 1759 
Q 1497 1759 1228 1600 
Q 959 1441 959 1056 
Q 959 750 1161 570 
Q 1363 391 1709 391 
Q 2188 391 2477 730 
Q 2766 1069 2766 1631 
L 2766 1759 
L 2194 1759 
z
M 3341 1997 
L 3341 0 
L 2766 0 
L 2766 531 
Q 2569 213 2275 61 
Q 1981 -91 1556 -91 
Q 1019 -91 701 211 
Q 384 513 384 1019 
Q 384 1609 779 1909 
Q 1175 2209 1959 2209 
L 2766 2209 
L 2766 2266 
Q 2766 2663 2505 2880 
Q 2244 3097 1772 3097 
Q 1472 3097 1187 3025 
Q 903 2953 641 2809 
L 641 3341 
Q 956 3463 1253 3523 
Q 1550 3584 1831 3584 
Q 2591 3584 2966 3190 
Q 3341 2797 3341 1997 
z
" transform="scale(0.015625)"/>
      <path id="DejaVuSans-6c" d="M 603 4863 
L 1178 4863 
L 1178 0 
L 603 0 
L 603 4863 
z
" transform="scale(0.015625)"/>
      <path id="DejaVuSans-5f" d="M 3263 -1063 
L 3263 -1509 
L -63 -1509 
L -63 -1063 
L 3263 -1063 
z
" transform="scale(0.015625)"/>
      <path id="DejaVuSans-77" d="M 269 3500 
L 844 3500 
L 1563 769 
L 2278 3500 
L 2956 3500 
L 3675 769 
L 4391 3500 
L 4966 3500 
L 4050 0 
L 3372 0 
L 2619 2869 
L 1863 0 
L 1184 0 
L 269 3500 
z
" transform="scale(0.015625)"/>
      <path id="DejaVuSans-65" d="M 3597 1894 
L 3597 1613 
L 953 1613 
Q 991 1019 1311 708 
Q 1631 397 2203 397 
Q 2534 397 2845 478 
Q 3156 559 3463 722 
L 3463 178 
Q 3153 47 2828 -22 
Q 2503 -91 2169 -91 
Q 1331 -91 842 396 
Q 353 884 353 1716 
Q 353 2575 817 3079 
Q 1281 3584 2069 3584 
Q 2775 3584 3186 3129 
Q 3597 2675 3597 1894 
z
M 3022 2063 
Q 3016 2534 2758 2815 
Q 2500 3097 2075 3097 
Q 1594 3097 1305 2825 
Q 1016 2553 972 2059 
L 3022 2063 
z
" transform="scale(0.015625)"/>
      <path id="DejaVuSans-67" d="M 2906 1791 
Q 2906 2416 2648 2759 
Q 2391 3103 1925 3103 
Q 1463 3103 1205 2759 
Q 947 2416 947 1791 
Q 947 1169 1205 825 
Q 1463 481 1925 481 
Q 2391 481 2648 825 
Q 2906 1169 2906 1791 
z
M 3481 434 
Q 3481 -459 3084 -895 
Q 2688 -1331 1869 -1331 
Q 1566 -1331 1297 -1286 
Q 1028 -1241 775 -1147 
L 775 -588 
Q 1028 -725 1275 -790 
Q 1522 -856 1778 -856 
Q 2344 -856 2625 -561 
Q 2906 -266 2906 331 
L 2906 616 
Q 2728 306 2450 153 
Q 2172 0 1784 0 
Q 1141 0 747 490 
Q 353 981 353 1791 
Q 353 2603 747 3093 
Q 1141 3584 1784 3584 
Q 2172 3584 2450 3431 
Q 2728 3278 2906 2969 
L 2906 3500 
L 3481 3500 
L 3481 434 
z
" transform="scale(0.015625)"/>
      <path id="DejaVuSans-68" d="M 3513 2113 
L 3513 0 
L 2938 0 
L 2938 2094 
Q 2938 2591 2744 2837 
Q 2550 3084 2163 3084 
Q 1697 3084 1428 2787 
Q 1159 2491 1159 1978 
L 1159 0 
L 581 0 
L 581 4863 
L 1159 4863 
L 1159 2956 
Q 1366 3272 1645 3428 
Q 1925 3584 2291 3584 
Q 2894 3584 3203 3211 
Q 3513 2838 3513 2113 
z
" transform="scale(0.015625)"/>
      <path id="DejaVuSans-74" d="M 1172 4494 
L 1172 3500 
L 2356 3500 
L 2356 3053 
L 1172 3053 
L 1172 1153 
Q 1172 725 1289 603 
Q 1406 481 1766 481 
L 2356 481 
L 2356 0 
L 1766 0 
Q 1100 0 847 248 
Q 594 497 594 1153 
L 594 3053 
L 172 3053 
L 172 3500 
L 594 3500 
L 594 4494 
L 1172 4494 
z
" transform="scale(0.015625)"/>
      <path id="DejaVuSans-64" d="M 2906 2969 
L 2906 4863 
L 3481 4863 
L 3481 0 
L 2906 0 
L 2906 525 
Q 2725 213 2448 61 
Q 2172 -91 1784 -91 
Q 1150 -91 751 415 
Q 353 922 353 1747 
Q 353 2572 751 3078 
Q 1150 3584 1784 3584 
Q 2172 3584 2448 3432 
Q 2725 3281 2906 2969 
z
M 947 1747 
Q 947 1113 1208 752 
Q 1469 391 1925 391 
Q 2381 391 2643 752 
Q 2906 1113 2906 1747 
Q 2906 2381 2643 2742 
Q 2381 3103 1925 3103 
Q 1469 3103 1208 2742 
Q 947 2381 947 1747 
z
" transform="scale(0.015625)"/>
      <path id="DejaVuSans-75" d="M 544 1381 
L 544 3500 
L 1119 3500 
L 1119 1403 
Q 1119 906 1312 657 
Q 1506 409 1894 409 
Q 2359 409 2629 706 
Q 2900 1003 2900 1516 
L 2900 3500 
L 3475 3500 
L 3475 0 
L 2900 0 
L 2900 538 
Q 2691 219 2414 64 
Q 2138 -91 1772 -91 
Q 1169 -91 856 284 
Q 544 659 544 1381 
z
M 1991 3584 
L 1991 3584 
z
" transform="scale(0.015625)"/>
      <path id="DejaVuSans-72" d="M 2631 2963 
Q 2534 3019 2420 3045 
Q 2306 3072 2169 3072 
Q 1681 3072 1420 2755 
Q 1159 2438 1159 1844 
L 1159 0 
L 581 0 
L 581 3500 
L 1159 3500 
L 1159 2956 
Q 1341 3275 1631 3429 
Q 1922 3584 2338 3584 
Q 2397 3584 2469 3576 
Q 2541 3569 2628 3553 
L 2631 2963 
z
" transform="scale(0.015625)"/>
      <path id="DejaVuSans-73" d="M 2834 3397 
L 2834 2853 
Q 2591 2978 2328 3040 
Q 2066 3103 1784 3103 
Q 1356 3103 1142 2972 
Q 928 2841 928 2578 
Q 928 2378 1081 2264 
Q 1234 2150 1697 2047 
L 1894 2003 
Q 2506 1872 2764 1633 
Q 3022 1394 3022 966 
Q 3022 478 2636 193 
Q 2250 -91 1575 -91 
Q 1294 -91 989 -36 
Q 684 19 347 128 
L 347 722 
Q 666 556 975 473 
Q 1284 391 1588 391 
Q 1994 391 2212 530 
Q 2431 669 2431 922 
Q 2431 1156 2273 1281 
Q 2116 1406 1581 1522 
L 1381 1569 
Q 847 1681 609 1914 
Q 372 2147 372 2553 
Q 372 3047 722 3315 
Q 1072 3584 1716 3584 
Q 2034 3584 2315 3537 
Q 2597 3491 2834 3397 
z
" transform="scale(0.015625)"/>
     </defs>
     <use xlink:href="#DejaVuSans-31"/>
     <use xlink:href="#DejaVuSans-66" x="63.623047"/>
     <use xlink:href="#DejaVuSans-69" x="98.828125"/>
     <use xlink:href="#DejaVuSans-6e" x="126.611328"/>
     <use xlink:href="#DejaVuSans-61" x="189.990234"/>
     <use xlink:href="#DejaVuSans-6c" x="251.269531"/>
     <use xlink:href="#DejaVuSans-5f" x="279.052734"/>
     <use xlink:href="#DejaVuSans-77" x="329.052734"/>
     <use xlink:href="#DejaVuSans-65" x="410.839844"/>
     <use xlink:href="#DejaVuSans-69" x="472.363281"/>
     <use xlink:href="#DejaVuSans-67" x="500.146484"/>
     <use xlink:href="#DejaVuSans-68" x="563.623047"/>
     <use xlink:href="#DejaVuSans-74" x="627.001953"/>
     <use xlink:href="#DejaVuSans-65" x="666.210938"/>
     <use xlink:href="#DejaVuSans-64" x="727.734375"/>
     <use xlink:href="#DejaVuSans-5f" x="791.210938"/>
     <use xlink:href="#DejaVuSans-65" x="841.210938"/>
     <use xlink:href="#DejaVuSans-75" x="902.734375"/>
     <use xlink:href="#DejaVuSans-72" x="966.113281"/>
     <use xlink:href="#DejaVuSans-75" x="1007.226562"/>
     <use xlink:href="#DejaVuSans-73" x="1070.605469"/>
     <use xlink:href="#DejaVuSans-64" x="1122.705078"/>
    </g>
   </g>
   <g id="legend_1">
    <g id="patch_7">
     <path d="M 155.959219 302.584 
L 316.360781 302.584 
Q 318.360781 302.584 318.360781 300.584 
L 318.360781 213.51525 
Q 318.360781 211.51525 316.360781 211.51525 
L 155.959219 211.51525 
Q 153.959219 211.51525 153.959219 213.51525 
L 153.959219 300.584 
Q 153.959219 302.584 155.959219 302.584 
z
" style="fill: #ffffff; opacity: 0.8; stroke: #cccccc; stroke-linejoin: miter"/>
    </g>
    <g id="line2d_23">
     <path d="M 157.959219 219.613687 
L 167.959219 219.613687 
L 177.959219 219.613687 
" style="fill: none; stroke: #008000; stroke-opacity: 0.8; stroke-width: 0.5; stroke-linecap: square"/>
    </g>
    <g id="text_18">
     <!-- Positive predictions -->
     <g transform="translate(185.959219 223.113687) scale(0.1 -0.1)">
      <defs>
       <path id="DejaVuSans-50" d="M 1259 4147 
L 1259 2394 
L 2053 2394 
Q 2494 2394 2734 2622 
Q 2975 2850 2975 3272 
Q 2975 3691 2734 3919 
Q 2494 4147 2053 4147 
L 1259 4147 
z
M 628 4666 
L 2053 4666 
Q 2838 4666 3239 4311 
Q 3641 3956 3641 3272 
Q 3641 2581 3239 2228 
Q 2838 1875 2053 1875 
L 1259 1875 
L 1259 0 
L 628 0 
L 628 4666 
z
" transform="scale(0.015625)"/>
       <path id="DejaVuSans-6f" d="M 1959 3097 
Q 1497 3097 1228 2736 
Q 959 2375 959 1747 
Q 959 1119 1226 758 
Q 1494 397 1959 397 
Q 2419 397 2687 759 
Q 2956 1122 2956 1747 
Q 2956 2369 2687 2733 
Q 2419 3097 1959 3097 
z
M 1959 3584 
Q 2709 3584 3137 3096 
Q 3566 2609 3566 1747 
Q 3566 888 3137 398 
Q 2709 -91 1959 -91 
Q 1206 -91 779 398 
Q 353 888 353 1747 
Q 353 2609 779 3096 
Q 1206 3584 1959 3584 
z
" transform="scale(0.015625)"/>
       <path id="DejaVuSans-76" d="M 191 3500 
L 800 3500 
L 1894 563 
L 2988 3500 
L 3597 3500 
L 2284 0 
L 1503 0 
L 191 3500 
z
" transform="scale(0.015625)"/>
       <path id="DejaVuSans-20" transform="scale(0.015625)"/>
       <path id="DejaVuSans-70" d="M 1159 525 
L 1159 -1331 
L 581 -1331 
L 581 3500 
L 1159 3500 
L 1159 2969 
Q 1341 3281 1617 3432 
Q 1894 3584 2278 3584 
Q 2916 3584 3314 3078 
Q 3713 2572 3713 1747 
Q 3713 922 3314 415 
Q 2916 -91 2278 -91 
Q 1894 -91 1617 61 
Q 1341 213 1159 525 
z
M 3116 1747 
Q 3116 2381 2855 2742 
Q 2594 3103 2138 3103 
Q 1681 3103 1420 2742 
Q 1159 2381 1159 1747 
Q 1159 1113 1420 752 
Q 1681 391 2138 391 
Q 2594 391 2855 752 
Q 3116 1113 3116 1747 
z
" transform="scale(0.015625)"/>
       <path id="DejaVuSans-63" d="M 3122 3366 
L 3122 2828 
Q 2878 2963 2633 3030 
Q 2388 3097 2138 3097 
Q 1578 3097 1268 2742 
Q 959 2388 959 1747 
Q 959 1106 1268 751 
Q 1578 397 2138 397 
Q 2388 397 2633 464 
Q 2878 531 3122 666 
L 3122 134 
Q 2881 22 2623 -34 
Q 2366 -91 2075 -91 
Q 1284 -91 818 406 
Q 353 903 353 1747 
Q 353 2603 823 3093 
Q 1294 3584 2113 3584 
Q 2378 3584 2631 3529 
Q 2884 3475 3122 3366 
z
" transform="scale(0.015625)"/>
      </defs>
      <use xlink:href="#DejaVuSans-50"/>
      <use xlink:href="#DejaVuSans-6f" x="56.677734"/>
      <use xlink:href="#DejaVuSans-73" x="117.859375"/>
      <use xlink:href="#DejaVuSans-69" x="169.958984"/>
      <use xlink:href="#DejaVuSans-74" x="197.742188"/>
      <use xlink:href="#DejaVuSans-69" x="236.951172"/>
      <use xlink:href="#DejaVuSans-76" x="264.734375"/>
      <use xlink:href="#DejaVuSans-65" x="323.914062"/>
      <use xlink:href="#DejaVuSans-20" x="385.4375"/>
      <use xlink:href="#DejaVuSans-70" x="417.224609"/>
      <use xlink:href="#DejaVuSans-72" x="480.701172"/>
      <use xlink:href="#DejaVuSans-65" x="519.564453"/>
      <use xlink:href="#DejaVuSans-64" x="581.087891"/>
      <use xlink:href="#DejaVuSans-69" x="644.564453"/>
      <use xlink:href="#DejaVuSans-63" x="672.347656"/>
      <use xlink:href="#DejaVuSans-74" x="727.328125"/>
      <use xlink:href="#DejaVuSans-69" x="766.537109"/>
      <use xlink:href="#DejaVuSans-6f" x="794.320312"/>
      <use xlink:href="#DejaVuSans-6e" x="855.501953"/>
      <use xlink:href="#DejaVuSans-73" x="918.880859"/>
     </g>
    </g>
    <g id="line2d_24">
     <path d="M 157.959219 234.291812 
L 167.959219 234.291812 
L 177.959219 234.291812 
" style="fill: none; stroke: #32cd32; stroke-opacity: 0.8; stroke-width: 0.5; stroke-linecap: square"/>
    </g>
    <g id="text_19">
     <!-- Positive predictions max -->
     <g transform="translate(185.959219 237.791812) scale(0.1 -0.1)">
      <defs>
       <path id="DejaVuSans-6d" d="M 3328 2828 
Q 3544 3216 3844 3400 
Q 4144 3584 4550 3584 
Q 5097 3584 5394 3201 
Q 5691 2819 5691 2113 
L 5691 0 
L 5113 0 
L 5113 2094 
Q 5113 2597 4934 2840 
Q 4756 3084 4391 3084 
Q 3944 3084 3684 2787 
Q 3425 2491 3425 1978 
L 3425 0 
L 2847 0 
L 2847 2094 
Q 2847 2600 2669 2842 
Q 2491 3084 2119 3084 
Q 1678 3084 1418 2786 
Q 1159 2488 1159 1978 
L 1159 0 
L 581 0 
L 581 3500 
L 1159 3500 
L 1159 2956 
Q 1356 3278 1631 3431 
Q 1906 3584 2284 3584 
Q 2666 3584 2933 3390 
Q 3200 3197 3328 2828 
z
" transform="scale(0.015625)"/>
       <path id="DejaVuSans-78" d="M 3513 3500 
L 2247 1797 
L 3578 0 
L 2900 0 
L 1881 1375 
L 863 0 
L 184 0 
L 1544 1831 
L 300 3500 
L 978 3500 
L 1906 2253 
L 2834 3500 
L 3513 3500 
z
" transform="scale(0.015625)"/>
      </defs>
      <use xlink:href="#DejaVuSans-50"/>
      <use xlink:href="#DejaVuSans-6f" x="56.677734"/>
      <use xlink:href="#DejaVuSans-73" x="117.859375"/>
      <use xlink:href="#DejaVuSans-69" x="169.958984"/>
      <use xlink:href="#DejaVuSans-74" x="197.742188"/>
      <use xlink:href="#DejaVuSans-69" x="236.951172"/>
      <use xlink:href="#DejaVuSans-76" x="264.734375"/>
      <use xlink:href="#DejaVuSans-65" x="323.914062"/>
      <use xlink:href="#DejaVuSans-20" x="385.4375"/>
      <use xlink:href="#DejaVuSans-70" x="417.224609"/>
      <use xlink:href="#DejaVuSans-72" x="480.701172"/>
      <use xlink:href="#DejaVuSans-65" x="519.564453"/>
      <use xlink:href="#DejaVuSans-64" x="581.087891"/>
      <use xlink:href="#DejaVuSans-69" x="644.564453"/>
      <use xlink:href="#DejaVuSans-63" x="672.347656"/>
      <use xlink:href="#DejaVuSans-74" x="727.328125"/>
      <use xlink:href="#DejaVuSans-69" x="766.537109"/>
      <use xlink:href="#DejaVuSans-6f" x="794.320312"/>
      <use xlink:href="#DejaVuSans-6e" x="855.501953"/>
      <use xlink:href="#DejaVuSans-73" x="918.880859"/>
      <use xlink:href="#DejaVuSans-20" x="970.980469"/>
      <use xlink:href="#DejaVuSans-6d" x="1002.767578"/>
      <use xlink:href="#DejaVuSans-61" x="1100.179688"/>
      <use xlink:href="#DejaVuSans-78" x="1161.458984"/>
     </g>
    </g>
    <g id="line2d_25">
     <path d="M 157.959219 248.969937 
L 167.959219 248.969937 
L 177.959219 248.969937 
" style="fill: none; stroke: #32cd32; stroke-opacity: 0.8; stroke-width: 0.5; stroke-linecap: square"/>
    </g>
    <g id="text_20">
     <!-- Positive predictions min -->
     <g transform="translate(185.959219 252.469937) scale(0.1 -0.1)">
      <use xlink:href="#DejaVuSans-50"/>
      <use xlink:href="#DejaVuSans-6f" x="56.677734"/>
      <use xlink:href="#DejaVuSans-73" x="117.859375"/>
      <use xlink:href="#DejaVuSans-69" x="169.958984"/>
      <use xlink:href="#DejaVuSans-74" x="197.742188"/>
      <use xlink:href="#DejaVuSans-69" x="236.951172"/>
      <use xlink:href="#DejaVuSans-76" x="264.734375"/>
      <use xlink:href="#DejaVuSans-65" x="323.914062"/>
      <use xlink:href="#DejaVuSans-20" x="385.4375"/>
      <use xlink:href="#DejaVuSans-70" x="417.224609"/>
      <use xlink:href="#DejaVuSans-72" x="480.701172"/>
      <use xlink:href="#DejaVuSans-65" x="519.564453"/>
      <use xlink:href="#DejaVuSans-64" x="581.087891"/>
      <use xlink:href="#DejaVuSans-69" x="644.564453"/>
      <use xlink:href="#DejaVuSans-63" x="672.347656"/>
      <use xlink:href="#DejaVuSans-74" x="727.328125"/>
      <use xlink:href="#DejaVuSans-69" x="766.537109"/>
      <use xlink:href="#DejaVuSans-6f" x="794.320312"/>
      <use xlink:href="#DejaVuSans-6e" x="855.501953"/>
      <use xlink:href="#DejaVuSans-73" x="918.880859"/>
      <use xlink:href="#DejaVuSans-20" x="970.980469"/>
      <use xlink:href="#DejaVuSans-6d" x="1002.767578"/>
      <use xlink:href="#DejaVuSans-69" x="1100.179688"/>
      <use xlink:href="#DejaVuSans-6e" x="1127.962891"/>
     </g>
    </g>
    <g id="line2d_26">
     <path d="M 157.959219 263.648062 
L 167.959219 263.648062 
L 177.959219 263.648062 
" style="fill: none; stroke: #ff0000; stroke-opacity: 0.8; stroke-width: 0.5; stroke-linecap: square"/>
    </g>
    <g id="text_21">
     <!-- Negative predictions -->
     <g transform="translate(185.959219 267.148062) scale(0.1 -0.1)">
      <defs>
       <path id="DejaVuSans-4e" d="M 628 4666 
L 1478 4666 
L 3547 763 
L 3547 4666 
L 4159 4666 
L 4159 0 
L 3309 0 
L 1241 3903 
L 1241 0 
L 628 0 
L 628 4666 
z
" transform="scale(0.015625)"/>
      </defs>
      <use xlink:href="#DejaVuSans-4e"/>
      <use xlink:href="#DejaVuSans-65" x="74.804688"/>
      <use xlink:href="#DejaVuSans-67" x="136.328125"/>
      <use xlink:href="#DejaVuSans-61" x="199.804688"/>
      <use xlink:href="#DejaVuSans-74" x="261.083984"/>
      <use xlink:href="#DejaVuSans-69" x="300.292969"/>
      <use xlink:href="#DejaVuSans-76" x="328.076172"/>
      <use xlink:href="#DejaVuSans-65" x="387.255859"/>
      <use xlink:href="#DejaVuSans-20" x="448.779297"/>
      <use xlink:href="#DejaVuSans-70" x="480.566406"/>
      <use xlink:href="#DejaVuSans-72" x="544.042969"/>
      <use xlink:href="#DejaVuSans-65" x="582.90625"/>
      <use xlink:href="#DejaVuSans-64" x="644.429688"/>
      <use xlink:href="#DejaVuSans-69" x="707.90625"/>
      <use xlink:href="#DejaVuSans-63" x="735.689453"/>
      <use xlink:href="#DejaVuSans-74" x="790.669922"/>
      <use xlink:href="#DejaVuSans-69" x="829.878906"/>
      <use xlink:href="#DejaVuSans-6f" x="857.662109"/>
      <use xlink:href="#DejaVuSans-6e" x="918.84375"/>
      <use xlink:href="#DejaVuSans-73" x="982.222656"/>
     </g>
    </g>
    <g id="line2d_27">
     <path d="M 157.959219 278.326188 
L 167.959219 278.326188 
L 177.959219 278.326188 
" style="fill: none; stroke: #f08080; stroke-opacity: 0.8; stroke-width: 0.5; stroke-linecap: square"/>
    </g>
    <g id="text_22">
     <!-- Negative predictions max -->
     <g transform="translate(185.959219 281.826188) scale(0.1 -0.1)">
      <use xlink:href="#DejaVuSans-4e"/>
      <use xlink:href="#DejaVuSans-65" x="74.804688"/>
      <use xlink:href="#DejaVuSans-67" x="136.328125"/>
      <use xlink:href="#DejaVuSans-61" x="199.804688"/>
      <use xlink:href="#DejaVuSans-74" x="261.083984"/>
      <use xlink:href="#DejaVuSans-69" x="300.292969"/>
      <use xlink:href="#DejaVuSans-76" x="328.076172"/>
      <use xlink:href="#DejaVuSans-65" x="387.255859"/>
      <use xlink:href="#DejaVuSans-20" x="448.779297"/>
      <use xlink:href="#DejaVuSans-70" x="480.566406"/>
      <use xlink:href="#DejaVuSans-72" x="544.042969"/>
      <use xlink:href="#DejaVuSans-65" x="582.90625"/>
      <use xlink:href="#DejaVuSans-64" x="644.429688"/>
      <use xlink:href="#DejaVuSans-69" x="707.90625"/>
      <use xlink:href="#DejaVuSans-63" x="735.689453"/>
      <use xlink:href="#DejaVuSans-74" x="790.669922"/>
      <use xlink:href="#DejaVuSans-69" x="829.878906"/>
      <use xlink:href="#DejaVuSans-6f" x="857.662109"/>
      <use xlink:href="#DejaVuSans-6e" x="918.84375"/>
      <use xlink:href="#DejaVuSans-73" x="982.222656"/>
      <use xlink:href="#DejaVuSans-20" x="1034.322266"/>
      <use xlink:href="#DejaVuSans-6d" x="1066.109375"/>
      <use xlink:href="#DejaVuSans-61" x="1163.521484"/>
      <use xlink:href="#DejaVuSans-78" x="1224.800781"/>
     </g>
    </g>
    <g id="line2d_28">
     <path d="M 157.959219 293.004312 
L 167.959219 293.004312 
L 177.959219 293.004312 
" style="fill: none; stroke: #f08080; stroke-opacity: 0.8; stroke-width: 0.5; stroke-linecap: square"/>
    </g>
    <g id="text_23">
     <!-- Negative predictions min -->
     <g transform="translate(185.959219 296.504312) scale(0.1 -0.1)">
      <use xlink:href="#DejaVuSans-4e"/>
      <use xlink:href="#DejaVuSans-65" x="74.804688"/>
      <use xlink:href="#DejaVuSans-67" x="136.328125"/>
      <use xlink:href="#DejaVuSans-61" x="199.804688"/>
      <use xlink:href="#DejaVuSans-74" x="261.083984"/>
      <use xlink:href="#DejaVuSans-69" x="300.292969"/>
      <use xlink:href="#DejaVuSans-76" x="328.076172"/>
      <use xlink:href="#DejaVuSans-65" x="387.255859"/>
      <use xlink:href="#DejaVuSans-20" x="448.779297"/>
      <use xlink:href="#DejaVuSans-70" x="480.566406"/>
      <use xlink:href="#DejaVuSans-72" x="544.042969"/>
      <use xlink:href="#DejaVuSans-65" x="582.90625"/>
      <use xlink:href="#DejaVuSans-64" x="644.429688"/>
      <use xlink:href="#DejaVuSans-69" x="707.90625"/>
      <use xlink:href="#DejaVuSans-63" x="735.689453"/>
      <use xlink:href="#DejaVuSans-74" x="790.669922"/>
      <use xlink:href="#DejaVuSans-69" x="829.878906"/>
      <use xlink:href="#DejaVuSans-6f" x="857.662109"/>
      <use xlink:href="#DejaVuSans-6e" x="918.84375"/>
      <use xlink:href="#DejaVuSans-73" x="982.222656"/>
      <use xlink:href="#DejaVuSans-20" x="1034.322266"/>
      <use xlink:href="#DejaVuSans-6d" x="1066.109375"/>
      <use xlink:href="#DejaVuSans-69" x="1163.521484"/>
      <use xlink:href="#DejaVuSans-6e" x="1191.304688"/>
     </g>
    </g>
   </g>
  </g>
 </g>
 <defs>
  <clipPath id="p48e51e49fc">
   <rect x="57.6" y="41.472" width="357.12" height="266.112"/>
  </clipPath>
 </defs>
</svg>
