<?xml version="1.0" encoding="utf-8" standalone="no"?>
<!DOCTYPE svg PUBLIC "-//W3C//DTD SVG 1.1//EN"
  "http://www.w3.org/Graphics/SVG/1.1/DTD/svg11.dtd">
<svg xmlns:xlink="http://www.w3.org/1999/xlink" width="460.8pt" height="345.6pt" viewBox="0 0 460.8 345.6" xmlns="http://www.w3.org/2000/svg" version="1.1">
 <metadata>
  <rdf:RDF xmlns:dc="http://purl.org/dc/elements/1.1/" xmlns:cc="http://creativecommons.org/ns#" xmlns:rdf="http://www.w3.org/1999/02/22-rdf-syntax-ns#">
   <cc:Work>
    <dc:type rdf:resource="http://purl.org/dc/dcmitype/StillImage"/>
    <dc:date>2024-09-06T07:10:46.850872</dc:date>
    <dc:format>image/svg+xml</dc:format>
    <dc:creator>
     <cc:Agent>
      <dc:title>Matplotlib v3.9.0, https://matplotlib.org/</dc:title>
     </cc:Agent>
    </dc:creator>
   </cc:Work>
  </rdf:RDF>
 </metadata>
 <defs>
  <style type="text/css">*{stroke-linejoin: round; stroke-linecap: butt}</style>
 </defs>
 <g id="figure_1">
  <g id="patch_1">
   <path d="M 0 345.6 
L 460.8 345.6 
L 460.8 0 
L 0 0 
z
" style="fill: #ffffff"/>
  </g>
  <g id="axes_1">
   <g id="patch_2">
    <path d="M 57.6 307.584 
L 414.72 307.584 
L 414.72 41.472 
L 57.6 41.472 
z
" style="fill: #ffffff"/>
   </g>
   <g id="matplotlib.axis_1">
    <g id="xtick_1">
     <g id="line2d_1">
      <defs>
       <path id="m05a62d04d2" d="M 0 0 
L 0 3.5 
" style="stroke: #000000; stroke-width: 0.8"/>
      </defs>
      <g>
       <use xlink:href="#m05a62d04d2" x="73.832727" y="307.584" style="stroke: #000000; stroke-width: 0.8"/>
      </g>
     </g>
     <g id="text_1">
      <!-- 0 -->
      <g transform="translate(70.651477 322.182437) scale(0.1 -0.1)">
       <defs>
        <path id="DejaVuSans-30" d="M 2034 4250 
Q 1547 4250 1301 3770 
Q 1056 3291 1056 2328 
Q 1056 1369 1301 889 
Q 1547 409 2034 409 
Q 2525 409 2770 889 
Q 3016 1369 3016 2328 
Q 3016 3291 2770 3770 
Q 2525 4250 2034 4250 
z
M 2034 4750 
Q 2819 4750 3233 4129 
Q 3647 3509 3647 2328 
Q 3647 1150 3233 529 
Q 2819 -91 2034 -91 
Q 1250 -91 836 529 
Q 422 1150 422 2328 
Q 422 3509 836 4129 
Q 1250 4750 2034 4750 
z
" transform="scale(0.015625)"/>
       </defs>
       <use xlink:href="#DejaVuSans-30"/>
      </g>
     </g>
    </g>
    <g id="xtick_2">
     <g id="line2d_2">
      <g>
       <use xlink:href="#m05a62d04d2" x="149.333784" y="307.584" style="stroke: #000000; stroke-width: 0.8"/>
      </g>
     </g>
     <g id="text_2">
      <!-- 50 -->
      <g transform="translate(142.971284 322.182437) scale(0.1 -0.1)">
       <defs>
        <path id="DejaVuSans-35" d="M 691 4666 
L 3169 4666 
L 3169 4134 
L 1269 4134 
L 1269 2991 
Q 1406 3038 1543 3061 
Q 1681 3084 1819 3084 
Q 2600 3084 3056 2656 
Q 3513 2228 3513 1497 
Q 3513 744 3044 326 
Q 2575 -91 1722 -91 
Q 1428 -91 1123 -41 
Q 819 9 494 109 
L 494 744 
Q 775 591 1075 516 
Q 1375 441 1709 441 
Q 2250 441 2565 725 
Q 2881 1009 2881 1497 
Q 2881 1984 2565 2268 
Q 2250 2553 1709 2553 
Q 1456 2553 1204 2497 
Q 953 2441 691 2322 
L 691 4666 
z
" transform="scale(0.015625)"/>
       </defs>
       <use xlink:href="#DejaVuSans-35"/>
       <use xlink:href="#DejaVuSans-30" x="63.623047"/>
      </g>
     </g>
    </g>
    <g id="xtick_3">
     <g id="line2d_3">
      <g>
       <use xlink:href="#m05a62d04d2" x="224.834841" y="307.584" style="stroke: #000000; stroke-width: 0.8"/>
      </g>
     </g>
     <g id="text_3">
      <!-- 100 -->
      <g transform="translate(215.291091 322.182437) scale(0.1 -0.1)">
       <defs>
        <path id="DejaVuSans-31" d="M 794 531 
L 1825 531 
L 1825 4091 
L 703 3866 
L 703 4441 
L 1819 4666 
L 2450 4666 
L 2450 531 
L 3481 531 
L 3481 0 
L 794 0 
L 794 531 
z
" transform="scale(0.015625)"/>
       </defs>
       <use xlink:href="#DejaVuSans-31"/>
       <use xlink:href="#DejaVuSans-30" x="63.623047"/>
       <use xlink:href="#DejaVuSans-30" x="127.246094"/>
      </g>
     </g>
    </g>
    <g id="xtick_4">
     <g id="line2d_4">
      <g>
       <use xlink:href="#m05a62d04d2" x="300.335899" y="307.584" style="stroke: #000000; stroke-width: 0.8"/>
      </g>
     </g>
     <g id="text_4">
      <!-- 150 -->
      <g transform="translate(290.792149 322.182437) scale(0.1 -0.1)">
       <use xlink:href="#DejaVuSans-31"/>
       <use xlink:href="#DejaVuSans-35" x="63.623047"/>
       <use xlink:href="#DejaVuSans-30" x="127.246094"/>
      </g>
     </g>
    </g>
    <g id="xtick_5">
     <g id="line2d_5">
      <g>
       <use xlink:href="#m05a62d04d2" x="375.836956" y="307.584" style="stroke: #000000; stroke-width: 0.8"/>
      </g>
     </g>
     <g id="text_5">
      <!-- 200 -->
      <g transform="translate(366.293206 322.182437) scale(0.1 -0.1)">
       <defs>
        <path id="DejaVuSans-32" d="M 1228 531 
L 3431 531 
L 3431 0 
L 469 0 
L 469 531 
Q 828 903 1448 1529 
Q 2069 2156 2228 2338 
Q 2531 2678 2651 2914 
Q 2772 3150 2772 3378 
Q 2772 3750 2511 3984 
Q 2250 4219 1831 4219 
Q 1534 4219 1204 4116 
Q 875 4013 500 3803 
L 500 4441 
Q 881 4594 1212 4672 
Q 1544 4750 1819 4750 
Q 2544 4750 2975 4387 
Q 3406 4025 3406 3419 
Q 3406 3131 3298 2873 
Q 3191 2616 2906 2266 
Q 2828 2175 2409 1742 
Q 1991 1309 1228 531 
z
" transform="scale(0.015625)"/>
       </defs>
       <use xlink:href="#DejaVuSans-32"/>
       <use xlink:href="#DejaVuSans-30" x="63.623047"/>
       <use xlink:href="#DejaVuSans-30" x="127.246094"/>
      </g>
     </g>
    </g>
   </g>
   <g id="matplotlib.axis_2">
    <g id="ytick_1">
     <g id="line2d_6">
      <defs>
       <path id="m2d679b8fd4" d="M 0 0 
L -3.5 0 
" style="stroke: #000000; stroke-width: 0.8"/>
      </defs>
      <g>
       <use xlink:href="#m2d679b8fd4" x="57.6" y="296.906739" style="stroke: #000000; stroke-width: 0.8"/>
      </g>
     </g>
     <g id="text_6">
      <!-- −1000 -->
      <g transform="translate(16.770313 300.705958) scale(0.1 -0.1)">
       <defs>
        <path id="DejaVuSans-2212" d="M 678 2272 
L 4684 2272 
L 4684 1741 
L 678 1741 
L 678 2272 
z
" transform="scale(0.015625)"/>
       </defs>
       <use xlink:href="#DejaVuSans-2212"/>
       <use xlink:href="#DejaVuSans-31" x="83.789062"/>
       <use xlink:href="#DejaVuSans-30" x="147.412109"/>
       <use xlink:href="#DejaVuSans-30" x="211.035156"/>
       <use xlink:href="#DejaVuSans-30" x="274.658203"/>
      </g>
     </g>
    </g>
    <g id="ytick_2">
     <g id="line2d_7">
      <g>
       <use xlink:href="#m2d679b8fd4" x="57.6" y="255.943661" style="stroke: #000000; stroke-width: 0.8"/>
      </g>
     </g>
     <g id="text_7">
      <!-- −800 -->
      <g transform="translate(23.132812 259.742879) scale(0.1 -0.1)">
       <defs>
        <path id="DejaVuSans-38" d="M 2034 2216 
Q 1584 2216 1326 1975 
Q 1069 1734 1069 1313 
Q 1069 891 1326 650 
Q 1584 409 2034 409 
Q 2484 409 2743 651 
Q 3003 894 3003 1313 
Q 3003 1734 2745 1975 
Q 2488 2216 2034 2216 
z
M 1403 2484 
Q 997 2584 770 2862 
Q 544 3141 544 3541 
Q 544 4100 942 4425 
Q 1341 4750 2034 4750 
Q 2731 4750 3128 4425 
Q 3525 4100 3525 3541 
Q 3525 3141 3298 2862 
Q 3072 2584 2669 2484 
Q 3125 2378 3379 2068 
Q 3634 1759 3634 1313 
Q 3634 634 3220 271 
Q 2806 -91 2034 -91 
Q 1263 -91 848 271 
Q 434 634 434 1313 
Q 434 1759 690 2068 
Q 947 2378 1403 2484 
z
M 1172 3481 
Q 1172 3119 1398 2916 
Q 1625 2713 2034 2713 
Q 2441 2713 2670 2916 
Q 2900 3119 2900 3481 
Q 2900 3844 2670 4047 
Q 2441 4250 2034 4250 
Q 1625 4250 1398 4047 
Q 1172 3844 1172 3481 
z
" transform="scale(0.015625)"/>
       </defs>
       <use xlink:href="#DejaVuSans-2212"/>
       <use xlink:href="#DejaVuSans-38" x="83.789062"/>
       <use xlink:href="#DejaVuSans-30" x="147.412109"/>
       <use xlink:href="#DejaVuSans-30" x="211.035156"/>
      </g>
     </g>
    </g>
    <g id="ytick_3">
     <g id="line2d_8">
      <g>
       <use xlink:href="#m2d679b8fd4" x="57.6" y="214.980582" style="stroke: #000000; stroke-width: 0.8"/>
      </g>
     </g>
     <g id="text_8">
      <!-- −600 -->
      <g transform="translate(23.132812 218.779801) scale(0.1 -0.1)">
       <defs>
        <path id="DejaVuSans-36" d="M 2113 2584 
Q 1688 2584 1439 2293 
Q 1191 2003 1191 1497 
Q 1191 994 1439 701 
Q 1688 409 2113 409 
Q 2538 409 2786 701 
Q 3034 994 3034 1497 
Q 3034 2003 2786 2293 
Q 2538 2584 2113 2584 
z
M 3366 4563 
L 3366 3988 
Q 3128 4100 2886 4159 
Q 2644 4219 2406 4219 
Q 1781 4219 1451 3797 
Q 1122 3375 1075 2522 
Q 1259 2794 1537 2939 
Q 1816 3084 2150 3084 
Q 2853 3084 3261 2657 
Q 3669 2231 3669 1497 
Q 3669 778 3244 343 
Q 2819 -91 2113 -91 
Q 1303 -91 875 529 
Q 447 1150 447 2328 
Q 447 3434 972 4092 
Q 1497 4750 2381 4750 
Q 2619 4750 2861 4703 
Q 3103 4656 3366 4563 
z
" transform="scale(0.015625)"/>
       </defs>
       <use xlink:href="#DejaVuSans-2212"/>
       <use xlink:href="#DejaVuSans-36" x="83.789062"/>
       <use xlink:href="#DejaVuSans-30" x="147.412109"/>
       <use xlink:href="#DejaVuSans-30" x="211.035156"/>
      </g>
     </g>
    </g>
    <g id="ytick_4">
     <g id="line2d_9">
      <g>
       <use xlink:href="#m2d679b8fd4" x="57.6" y="174.017503" style="stroke: #000000; stroke-width: 0.8"/>
      </g>
     </g>
     <g id="text_9">
      <!-- −400 -->
      <g transform="translate(23.132812 177.816722) scale(0.1 -0.1)">
       <defs>
        <path id="DejaVuSans-34" d="M 2419 4116 
L 825 1625 
L 2419 1625 
L 2419 4116 
z
M 2253 4666 
L 3047 4666 
L 3047 1625 
L 3713 1625 
L 3713 1100 
L 3047 1100 
L 3047 0 
L 2419 0 
L 2419 1100 
L 313 1100 
L 313 1709 
L 2253 4666 
z
" transform="scale(0.015625)"/>
       </defs>
       <use xlink:href="#DejaVuSans-2212"/>
       <use xlink:href="#DejaVuSans-34" x="83.789062"/>
       <use xlink:href="#DejaVuSans-30" x="147.412109"/>
       <use xlink:href="#DejaVuSans-30" x="211.035156"/>
      </g>
     </g>
    </g>
    <g id="ytick_5">
     <g id="line2d_10">
      <g>
       <use xlink:href="#m2d679b8fd4" x="57.6" y="133.054424" style="stroke: #000000; stroke-width: 0.8"/>
      </g>
     </g>
     <g id="text_10">
      <!-- −200 -->
      <g transform="translate(23.132812 136.853643) scale(0.1 -0.1)">
       <use xlink:href="#DejaVuSans-2212"/>
       <use xlink:href="#DejaVuSans-32" x="83.789062"/>
       <use xlink:href="#DejaVuSans-30" x="147.412109"/>
       <use xlink:href="#DejaVuSans-30" x="211.035156"/>
      </g>
     </g>
    </g>
    <g id="ytick_6">
     <g id="line2d_11">
      <g>
       <use xlink:href="#m2d679b8fd4" x="57.6" y="92.091345" style="stroke: #000000; stroke-width: 0.8"/>
      </g>
     </g>
     <g id="text_11">
      <!-- 0 -->
      <g transform="translate(44.2375 95.890564) scale(0.1 -0.1)">
       <use xlink:href="#DejaVuSans-30"/>
      </g>
     </g>
    </g>
    <g id="ytick_7">
     <g id="line2d_12">
      <g>
       <use xlink:href="#m2d679b8fd4" x="57.6" y="51.128267" style="stroke: #000000; stroke-width: 0.8"/>
      </g>
     </g>
     <g id="text_12">
      <!-- 200 -->
      <g transform="translate(31.5125 54.927485) scale(0.1 -0.1)">
       <use xlink:href="#DejaVuSans-32"/>
       <use xlink:href="#DejaVuSans-30" x="63.623047"/>
       <use xlink:href="#DejaVuSans-30" x="127.246094"/>
      </g>
     </g>
    </g>
   </g>
   <g id="line2d_13">
    <path d="M 73.832727 93.115422 
L 75.342748 98.167535 
L 76.85277 95.163576 
L 78.362791 92.500976 
L 79.872812 91.681715 
L 81.382833 90.248007 
L 82.892854 91.988938 
L 84.402875 90.452822 
L 85.912896 96.699692 
L 87.422918 105.609161 
L 88.932939 112.572885 
L 90.44296 96.187653 
L 91.952981 84.820399 
L 93.463002 81.338537 
L 94.973023 89.531153 
L 96.483044 91.067268 
L 97.993066 90.452822 
L 99.503087 93.729869 
L 101.013108 94.958761 
L 102.523129 97.785213 
L 104.03315 95.020206 
L 105.543171 96.633127 
L 107.053192 91.717557 
L 108.563214 89.874219 
L 110.073235 89.464588 
L 111.583256 92.127188 
L 113.093277 93.151265 
L 114.603298 90.28385 
L 116.113319 89.382662 
L 117.62334 88.973031 
L 119.133362 89.587477 
L 120.643383 89.382662 
L 122.153404 87.027285 
L 123.663425 87.2321 
L 125.173446 88.051362 
L 126.683467 88.051362 
L 128.193488 98.906578 
L 129.70351 101.773993 
L 131.213531 97.177025 
L 132.723552 100.089955 
L 134.233573 97.632171 
L 135.743594 95.788832 
L 137.253615 94.252717 
L 138.763636 95.686424 
L 140.273658 94.867163 
L 141.783679 96.096055 
L 143.2937 98.758655 
L 144.803721 101.912812 
L 146.313742 103.59685 
L 147.823763 108.184715 
L 149.333784 111.53624 
L 150.843805 112.150686 
L 153.863848 106.664559 
L 155.373869 107.95197 
L 156.88389 106.362885 
L 158.393911 101.754539 
L 159.903932 110.561601 
L 161.413953 115.272355 
L 164.433996 108.64999 
L 165.944017 102.956123 
L 168.964059 102.956123 
L 170.47408 101.522415 
L 171.984101 106.950023 
L 173.494123 104.697053 
L 175.004144 107.769284 
L 176.514165 105.516315 
L 178.024186 104.799461 
L 179.534207 103.453531 
L 181.044228 105.706501 
L 182.554249 109.666265 
L 184.064271 109.179828 
L 185.574292 112.66169 
L 187.084313 112.729962 
L 188.594334 109.91375 
L 190.104355 104.58855 
L 191.614376 104.889749 
L 193.124397 101.407887 
L 194.634419 100.076587 
L 196.14444 105.811418 
L 197.654461 104.531322 
L 199.164482 110.334425 
L 200.674503 114.294189 
L 202.184524 114.772092 
L 203.694545 119.790069 
L 205.204567 114.942771 
L 206.714588 110.580203 
L 208.224609 110.682611 
L 209.73463 111.297057 
L 211.244651 117.134296 
L 212.754672 123.483573 
L 214.264693 119.438469 
L 215.774715 122.961294 
L 217.284736 121.288635 
L 218.794757 114.83695 
L 220.304778 117.294735 
L 221.814799 113.812873 
L 223.32482 121.08382 
L 224.834841 119.854927 
L 226.344863 121.237431 
L 227.854884 118.267608 
L 229.364905 114.512659 
L 230.874926 117.072851 
L 232.384947 118.711375 
L 233.894968 117.687298 
L 235.404989 122.91009 
L 236.915011 139.00858 
L 238.425032 132.395969 
L 239.935053 128.811699 
L 241.445074 129.630961 
L 242.955095 131.4743 
L 244.465116 125.944284 
L 245.975137 140.639788 
L 247.485159 135.314588 
L 248.99518 136.13385 
L 250.505201 127.326788 
L 252.015222 132.037542 
L 253.525243 129.579757 
L 255.035264 139.206081 
L 258.055307 126.647173 
L 259.565328 125.213465 
L 261.075349 126.33995 
L 262.58537 124.223524 
L 264.095391 129.548725 
L 265.605412 141.32561 
L 267.115433 126.578901 
L 268.625455 123.848029 
L 270.135476 123.643214 
L 271.645497 132.757499 
L 273.155518 127.125076 
L 274.665539 131.17018 
L 276.17556 128.361283 
L 277.685581 129.897398 
L 279.195603 130.284272 
L 280.705624 122.398879 
L 282.215645 128.236118 
L 283.725666 131.922795 
L 285.235687 143.494865 
L 286.745708 152.209272 
L 288.255729 158.058419 
L 289.765751 163.364999 
L 291.275772 162.818825 
L 292.785793 172.586813 
L 294.295814 190.915611 
L 295.805835 189.609913 
L 297.315856 186.028142 
L 298.825877 182.065624 
L 300.335899 180.427101 
L 301.84592 182.168032 
L 303.355941 184.216186 
L 304.865962 193.569422 
L 306.375983 199.969903 
L 307.886004 194.33748 
L 309.396025 189.626726 
L 310.906047 198.484992 
L 312.416068 204.424638 
L 313.926089 196.641653 
L 315.43611 206.645268 
L 316.946131 205.482445 
L 318.456152 204.924953 
L 319.966173 207.523734 
L 321.476195 203.837057 
L 322.986216 201.174457 
L 324.496237 199.740749 
L 326.006258 201.686495 
L 327.516279 204.14428 
L 329.0263 202.778844 
L 330.536321 208.786762 
L 332.046342 229.063486 
L 333.556364 230.143677 
L 335.066385 220.763686 
L 336.576406 215.834392 
L 338.086427 217.472915 
L 339.596448 213.376607 
L 341.106469 217.404643 
L 342.61649 234.353117 
L 344.126512 229.505819 
L 345.636533 227.935568 
L 348.656575 239.430832 
L 350.166596 229.087654 
L 351.676617 233.28637 
L 353.186638 223.0456 
L 354.69666 218.744477 
L 356.206681 219.358923 
L 357.716702 221.919116 
L 359.226723 219.461331 
L 360.736744 224.223289 
L 362.246765 229.95812 
L 363.756786 246.889526 
L 365.266808 255.377986 
L 366.776829 288.82434 
L 368.28685 292.80893 
L 369.796871 283.442321 
L 371.306892 267.322145 
L 372.816913 261.643394 
L 374.326934 258.775978 
L 375.836956 260.824132 
L 377.346977 260.755861 
L 378.856998 271.355057 
L 380.367019 270.894223 
L 381.87704 267.514769 
L 383.387061 268.026807 
L 384.897082 272.942377 
L 386.407104 272.942377 
L 387.917125 270.074961 
L 389.427146 279.496469 
L 390.937167 279.445265 
L 392.447188 277.970594 
L 393.957209 275.393334 
L 395.46723 274.983703 
L 396.977252 290.959304 
L 398.487273 295.488 
L 398.487273 295.488 
" clip-path="url(#p5fb49c8aa8)" style="fill: none; stroke: #1f77b4; stroke-opacity: 0.7; stroke-width: 1.5; stroke-linecap: square"/>
   </g>
   <g id="line2d_14">
    <path d="M 73.832727 93.21783 
L 75.342748 98.082196 
L 76.85277 94.088295 
L 78.362791 94.088295 
L 79.872812 93.269034 
L 81.382833 90.094395 
L 82.892854 91.391559 
L 84.402875 88.342086 
L 85.912896 93.325927 
L 88.932939 112.364449 
L 90.44296 95.979217 
L 91.952981 84.816778 
L 93.463002 74.507737 
L 94.973023 76.402279 
L 96.483044 73.159369 
L 97.993066 74.183446 
L 99.503087 78.382161 
L 101.013108 78.996608 
L 102.523129 80.839946 
L 104.03315 76.641231 
L 105.543171 76.948454 
L 107.053192 72.084088 
L 108.563214 70.377293 
L 110.073235 70.274885 
L 111.583256 73.074029 
L 113.093277 72.459583 
L 114.603298 69.796983 
L 116.113319 70.206614 
L 117.62334 70.001798 
L 119.133362 70.684516 
L 120.643383 68.482751 
L 122.153404 64.362347 
L 123.663425 64.020988 
L 125.173446 62.317786 
L 126.683467 61.647481 
L 128.193488 72.502697 
L 129.70351 74.876694 
L 131.213531 67.298524 
L 132.723552 70.677978 
L 134.233573 70.473163 
L 135.743594 69.705105 
L 137.253615 68.476213 
L 138.763636 69.50029 
L 140.273658 67.915197 
L 141.783679 69.55372 
L 143.2937 71.510361 
L 144.803721 73.046476 
L 146.313742 72.329622 
L 147.823763 75.401853 
L 149.333784 76.118707 
L 150.843805 77.142784 
L 152.353827 74.582591 
L 153.863848 69.564614 
L 155.373869 69.701158 
L 156.88389 66.321704 
L 158.393911 59.870019 
L 159.903932 67.089762 
L 161.413953 70.735476 
L 162.923975 67.663245 
L 164.433996 62.030821 
L 165.944017 55.818088 
L 168.964059 55.818088 
L 170.47408 54.38438 
L 171.984101 59.760784 
L 173.494123 58.600164 
L 175.004144 61.560677 
L 176.514165 60.126969 
L 178.024186 59.410115 
L 179.534207 58.078815 
L 181.044228 60.468328 
L 182.554249 64.428092 
L 184.064271 61.970308 
L 185.574292 67.295508 
L 187.084313 67.705139 
L 188.594334 64.837723 
L 190.104355 60.741415 
L 191.614376 59.717338 
L 193.124397 55.382079 
L 194.634419 54.358002 
L 196.14444 59.324776 
L 197.654461 58.164155 
L 199.164482 63.006576 
L 200.674503 67.410107 
L 202.184524 63.313799 
L 203.694545 65.566768 
L 205.204567 61.470461 
L 206.714588 56.076989 
L 208.224609 53.619204 
L 209.73463 54.950504 
L 212.754672 66.932204 
L 214.264693 59.354035 
L 215.774715 61.709412 
L 217.284736 59.55885 
L 218.794757 54.438465 
L 220.304778 54.8993 
L 221.814799 53.568 
L 223.32482 59.985549 
L 224.834841 58.756657 
L 226.344863 60.804811 
L 227.854884 57.937395 
L 229.364905 54.592077 
L 230.874926 55.616154 
L 232.384947 56.2306 
L 233.894968 55.283329 
L 235.404989 61.01816 
L 236.915011 76.077677 
L 238.425032 61.126154 
L 239.935053 64.608015 
L 241.445074 67.168208 
L 242.955095 69.011546 
L 244.465116 62.969492 
L 245.975137 78.289684 
L 247.485159 75.299379 
L 248.99518 83.491995 
L 250.505201 74.889748 
L 252.015222 80.214948 
L 253.525243 83.287179 
L 255.035264 94.142395 
L 256.545285 81.955879 
L 258.055307 84.004033 
L 259.565328 83.594402 
L 261.075349 85.164654 
L 262.58537 83.218907 
L 264.095391 88.626034 
L 265.605412 101.160736 
L 267.115433 90.612743 
L 268.625455 94.913866 
L 270.135476 96.859613 
L 271.645497 107.373469 
L 273.155518 101.741046 
L 274.665539 108.909585 
L 276.17556 106.554208 
L 277.685581 109.489895 
L 279.195603 110.309157 
L 280.705624 103.140618 
L 282.215645 109.438691 
L 283.725666 113.125368 
L 285.235687 125.414292 
L 286.745708 124.1854 
L 288.255729 121.5228 
L 289.765751 119.781869 
L 291.275772 112.886417 
L 292.785793 116.931521 
L 294.295814 129.998743 
L 295.805835 115.661666 
L 297.315856 111.974989 
L 298.825877 102.690024 
L 300.335899 101.256316 
L 301.84592 95.960375 
L 303.355941 93.374581 
L 304.865962 98.244636 
L 306.375983 99.814887 
L 307.886004 94.489687 
L 309.396025 89.778933 
L 310.906047 96.8792 
L 312.416068 103.023662 
L 313.926089 95.650308 
L 315.43611 100.770693 
L 318.456152 89.096215 
L 319.966173 88.8914 
L 321.476195 83.402347 
L 322.986216 78.828137 
L 324.496237 77.394429 
L 326.006258 75.492572 
L 327.516279 79.281657 
L 329.0263 75.390164 
L 330.536321 83.173149 
L 332.046342 103.944844 
L 335.066385 82.848858 
L 336.576406 80.698296 
L 338.086427 83.872935 
L 339.596448 79.110977 
L 341.106469 83.770527 
L 342.61649 94.987182 
L 344.126512 89.56367 
L 345.636533 94.274424 
L 347.146554 102.364633 
L 348.656575 104.207971 
L 350.166596 94.376832 
L 351.676617 100.111663 
L 353.186638 93.694114 
L 354.69666 89.700214 
L 356.206681 90.724291 
L 357.716702 91.994146 
L 359.226723 88.057139 
L 360.736744 90.831457 
L 362.246765 96.082179 
L 363.756786 110.72648 
L 365.266808 109.292772 
L 366.776829 135.099511 
L 368.28685 121.581695 
L 369.796871 103.762756 
L 371.306892 77.495182 
L 372.816913 67.408024 
L 374.326934 55.392187 
L 375.836956 58.874049 
L 377.346977 59.181272 
L 378.856998 69.831673 
L 380.367019 63.260512 
L 381.87704 57.798768 
L 383.387061 59.846922 
L 384.897082 65.786569 
L 386.407104 65.786569 
L 387.917125 62.919153 
L 389.427146 73.774369 
L 390.937167 73.910913 
L 392.447188 72.477205 
L 393.957209 69.097751 
L 395.46723 68.278489 
L 396.977252 84.322362 
L 398.487273 88.41867 
L 398.487273 88.41867 
" clip-path="url(#p5fb49c8aa8)" style="fill: none; stroke: #ff7f0e; stroke-opacity: 0.7; stroke-width: 1.5; stroke-linecap: square"/>
   </g>
   <g id="line2d_15">
    <path d="M 73.832727 93.166626 
L 75.342748 98.124866 
L 76.85277 94.625936 
L 78.362791 93.294636 
L 79.872812 92.475374 
L 81.382833 90.171201 
L 82.892854 91.690249 
L 84.402875 89.397454 
L 85.912896 95.012809 
L 87.422918 104.224847 
L 88.932939 112.468667 
L 90.44296 96.083435 
L 91.952981 84.818589 
L 93.463002 77.923137 
L 94.973023 82.966716 
L 96.483044 82.113319 
L 97.993066 82.318134 
L 99.503087 86.056015 
L 101.013108 86.977684 
L 102.523129 89.31258 
L 104.03315 85.830718 
L 105.543171 86.79079 
L 107.053192 81.900823 
L 108.563214 80.125756 
L 110.073235 79.869737 
L 111.583256 82.600609 
L 113.093277 82.805424 
L 114.603298 80.040416 
L 117.62334 79.487415 
L 119.133362 80.135997 
L 120.643383 78.932706 
L 122.153404 75.694816 
L 123.663425 75.626544 
L 126.683467 74.849422 
L 128.193488 85.704637 
L 129.70351 88.325343 
L 131.213531 82.237775 
L 132.723552 85.383967 
L 137.253615 81.364465 
L 138.763636 82.593357 
L 140.273658 81.39118 
L 141.783679 82.824888 
L 144.803721 87.479644 
L 146.313742 87.963236 
L 147.823763 91.793284 
L 149.333784 93.827473 
L 150.843805 94.646735 
L 152.353827 92.035339 
L 153.863848 88.114587 
L 155.373869 88.826564 
L 156.88389 86.342295 
L 158.393911 80.812279 
L 159.903932 88.825681 
L 161.413953 93.003915 
L 162.923975 89.829277 
L 164.433996 85.340406 
L 165.944017 79.387105 
L 168.964059 79.387105 
L 170.47408 77.953397 
L 171.984101 83.355403 
L 173.494123 81.648608 
L 175.004144 84.664981 
L 176.514165 82.821642 
L 178.024186 82.104788 
L 179.534207 80.766173 
L 181.044228 83.087414 
L 182.554249 87.047179 
L 184.064271 85.575068 
L 185.574292 89.978599 
L 187.084313 90.21755 
L 188.594334 87.375737 
L 190.104355 82.664983 
L 191.614376 82.303544 
L 193.124397 78.394983 
L 194.634419 77.217295 
L 196.14444 82.568097 
L 197.654461 81.347739 
L 199.164482 86.670501 
L 200.674503 90.852148 
L 202.184524 89.042946 
L 203.694545 92.678419 
L 205.204567 88.206616 
L 206.714588 83.328596 
L 208.224609 82.150907 
L 209.73463 83.123781 
L 212.754672 95.207889 
L 214.264693 89.396252 
L 215.774715 92.335353 
L 217.284736 90.423743 
L 218.794757 84.637708 
L 220.304778 86.097017 
L 221.814799 83.690437 
L 223.32482 90.534684 
L 224.834841 89.305792 
L 226.344863 91.021121 
L 227.854884 88.102501 
L 229.364905 84.552368 
L 230.874926 86.344503 
L 232.384947 87.470987 
L 233.894968 86.485313 
L 235.404989 91.964125 
L 236.915011 107.543129 
L 238.425032 96.761061 
L 239.935053 96.709857 
L 242.955095 100.242923 
L 244.465116 94.456888 
L 245.975137 109.464736 
L 247.485159 105.306984 
L 248.99518 109.812922 
L 250.505201 101.108268 
L 252.015222 106.126245 
L 253.525243 106.433468 
L 255.035264 116.674238 
L 256.545285 107.476165 
L 258.055307 105.325603 
L 259.565328 104.403934 
L 261.075349 105.752302 
L 262.58537 103.721216 
L 264.095391 109.087379 
L 265.605412 121.243173 
L 267.115433 108.595822 
L 270.135476 110.251413 
L 271.645497 120.065484 
L 273.155518 114.433061 
L 274.665539 120.039882 
L 276.17556 117.457745 
L 277.685581 119.693647 
L 279.195603 120.296714 
L 280.705624 112.769749 
L 282.215645 118.837405 
L 283.725666 122.524082 
L 285.235687 134.454578 
L 286.745708 138.197336 
L 288.255729 139.790609 
L 289.765751 141.573434 
L 291.275772 137.852621 
L 292.785793 144.759167 
L 294.295814 160.457177 
L 295.805835 152.63579 
L 297.315856 149.001565 
L 298.825877 142.377824 
L 300.335899 140.841709 
L 301.84592 139.064204 
L 303.355941 138.795384 
L 304.865962 145.907029 
L 306.375983 149.892395 
L 307.886004 144.413584 
L 309.396025 139.70283 
L 310.906047 147.682096 
L 312.416068 153.72415 
L 313.926089 146.145981 
L 315.43611 153.70798 
L 318.456152 147.010584 
L 319.966173 148.207567 
L 321.476195 143.619702 
L 322.986216 140.001297 
L 324.496237 138.567589 
L 326.006258 138.589534 
L 327.516279 141.712968 
L 329.0263 139.084504 
L 330.536321 145.979956 
L 332.046342 166.504165 
L 333.556364 161.71906 
L 335.066385 151.806272 
L 336.576406 148.266344 
L 338.086427 150.672925 
L 339.596448 146.243792 
L 341.106469 150.587585 
L 342.61649 164.670149 
L 344.126512 159.534745 
L 345.636533 161.104996 
L 347.146554 168.017516 
L 348.656575 171.819401 
L 350.166596 161.732243 
L 351.676617 166.699017 
L 353.186638 158.369857 
L 354.69666 154.222345 
L 356.206681 155.041607 
L 357.716702 156.956631 
L 359.226723 153.759235 
L 360.736744 157.527373 
L 362.246765 163.020149 
L 363.756786 178.808003 
L 365.266808 182.335379 
L 366.776829 211.961926 
L 368.28685 207.195313 
L 369.796871 193.602539 
L 371.306892 172.408663 
L 374.326934 157.084083 
L 375.836956 159.849091 
L 377.346977 159.968566 
L 378.856998 170.593365 
L 380.367019 167.077367 
L 381.87704 162.656768 
L 383.387061 163.936865 
L 384.897082 169.364473 
L 386.407104 169.364473 
L 387.917125 166.497057 
L 389.427146 176.635419 
L 390.937167 176.678089 
L 392.447188 175.2239 
L 393.957209 172.245542 
L 395.46723 171.631096 
L 396.977252 187.640833 
L 398.487273 191.953335 
L 398.487273 191.953335 
" clip-path="url(#p5fb49c8aa8)" style="fill: none; stroke: #2ca02c; stroke-opacity: 0.7; stroke-width: 1.5; stroke-linecap: square"/>
   </g>
   <g id="patch_3">
    <path d="M 57.6 307.584 
L 57.6 41.472 
" style="fill: none; stroke: #000000; stroke-width: 0.8; stroke-linejoin: miter; stroke-linecap: square"/>
   </g>
   <g id="patch_4">
    <path d="M 414.72 307.584 
L 414.72 41.472 
" style="fill: none; stroke: #000000; stroke-width: 0.8; stroke-linejoin: miter; stroke-linecap: square"/>
   </g>
   <g id="patch_5">
    <path d="M 57.6 307.584 
L 414.72 307.584 
" style="fill: none; stroke: #000000; stroke-width: 0.8; stroke-linejoin: miter; stroke-linecap: square"/>
   </g>
   <g id="patch_6">
    <path d="M 57.6 41.472 
L 414.72 41.472 
" style="fill: none; stroke: #000000; stroke-width: 0.8; stroke-linejoin: miter; stroke-linecap: square"/>
   </g>
   <g id="text_13">
    <!-- 1final_zhang_sr_cci -->
    <g transform="translate(178.32 35.472) scale(0.12 -0.12)">
     <defs>
      <path id="DejaVuSans-66" d="M 2375 4863 
L 2375 4384 
L 1825 4384 
Q 1516 4384 1395 4259 
Q 1275 4134 1275 3809 
L 1275 3500 
L 2222 3500 
L 2222 3053 
L 1275 3053 
L 1275 0 
L 697 0 
L 697 3053 
L 147 3053 
L 147 3500 
L 697 3500 
L 697 3744 
Q 697 4328 969 4595 
Q 1241 4863 1831 4863 
L 2375 4863 
z
" transform="scale(0.015625)"/>
      <path id="DejaVuSans-69" d="M 603 3500 
L 1178 3500 
L 1178 0 
L 603 0 
L 603 3500 
z
M 603 4863 
L 1178 4863 
L 1178 4134 
L 603 4134 
L 603 4863 
z
" transform="scale(0.015625)"/>
      <path id="DejaVuSans-6e" d="M 3513 2113 
L 3513 0 
L 2938 0 
L 2938 2094 
Q 2938 2591 2744 2837 
Q 2550 3084 2163 3084 
Q 1697 3084 1428 2787 
Q 1159 2491 1159 1978 
L 1159 0 
L 581 0 
L 581 3500 
L 1159 3500 
L 1159 2956 
Q 1366 3272 1645 3428 
Q 1925 3584 2291 3584 
Q 2894 3584 3203 3211 
Q 3513 2838 3513 2113 
z
" transform="scale(0.015625)"/>
      <path id="DejaVuSans-61" d="M 2194 1759 
Q 1497 1759 1228 1600 
Q 959 1441 959 1056 
Q 959 750 1161 570 
Q 1363 391 1709 391 
Q 2188 391 2477 730 
Q 2766 1069 2766 1631 
L 2766 1759 
L 2194 1759 
z
M 3341 1997 
L 3341 0 
L 2766 0 
L 2766 531 
Q 2569 213 2275 61 
Q 1981 -91 1556 -91 
Q 1019 -91 701 211 
Q 384 513 384 1019 
Q 384 1609 779 1909 
Q 1175 2209 1959 2209 
L 2766 2209 
L 2766 2266 
Q 2766 2663 2505 2880 
Q 2244 3097 1772 3097 
Q 1472 3097 1187 3025 
Q 903 2953 641 2809 
L 641 3341 
Q 956 3463 1253 3523 
Q 1550 3584 1831 3584 
Q 2591 3584 2966 3190 
Q 3341 2797 3341 1997 
z
" transform="scale(0.015625)"/>
      <path id="DejaVuSans-6c" d="M 603 4863 
L 1178 4863 
L 1178 0 
L 603 0 
L 603 4863 
z
" transform="scale(0.015625)"/>
      <path id="DejaVuSans-5f" d="M 3263 -1063 
L 3263 -1509 
L -63 -1509 
L -63 -1063 
L 3263 -1063 
z
" transform="scale(0.015625)"/>
      <path id="DejaVuSans-7a" d="M 353 3500 
L 3084 3500 
L 3084 2975 
L 922 459 
L 3084 459 
L 3084 0 
L 275 0 
L 275 525 
L 2438 3041 
L 353 3041 
L 353 3500 
z
" transform="scale(0.015625)"/>
      <path id="DejaVuSans-68" d="M 3513 2113 
L 3513 0 
L 2938 0 
L 2938 2094 
Q 2938 2591 2744 2837 
Q 2550 3084 2163 3084 
Q 1697 3084 1428 2787 
Q 1159 2491 1159 1978 
L 1159 0 
L 581 0 
L 581 4863 
L 1159 4863 
L 1159 2956 
Q 1366 3272 1645 3428 
Q 1925 3584 2291 3584 
Q 2894 3584 3203 3211 
Q 3513 2838 3513 2113 
z
" transform="scale(0.015625)"/>
      <path id="DejaVuSans-67" d="M 2906 1791 
Q 2906 2416 2648 2759 
Q 2391 3103 1925 3103 
Q 1463 3103 1205 2759 
Q 947 2416 947 1791 
Q 947 1169 1205 825 
Q 1463 481 1925 481 
Q 2391 481 2648 825 
Q 2906 1169 2906 1791 
z
M 3481 434 
Q 3481 -459 3084 -895 
Q 2688 -1331 1869 -1331 
Q 1566 -1331 1297 -1286 
Q 1028 -1241 775 -1147 
L 775 -588 
Q 1028 -725 1275 -790 
Q 1522 -856 1778 -856 
Q 2344 -856 2625 -561 
Q 2906 -266 2906 331 
L 2906 616 
Q 2728 306 2450 153 
Q 2172 0 1784 0 
Q 1141 0 747 490 
Q 353 981 353 1791 
Q 353 2603 747 3093 
Q 1141 3584 1784 3584 
Q 2172 3584 2450 3431 
Q 2728 3278 2906 2969 
L 2906 3500 
L 3481 3500 
L 3481 434 
z
" transform="scale(0.015625)"/>
      <path id="DejaVuSans-73" d="M 2834 3397 
L 2834 2853 
Q 2591 2978 2328 3040 
Q 2066 3103 1784 3103 
Q 1356 3103 1142 2972 
Q 928 2841 928 2578 
Q 928 2378 1081 2264 
Q 1234 2150 1697 2047 
L 1894 2003 
Q 2506 1872 2764 1633 
Q 3022 1394 3022 966 
Q 3022 478 2636 193 
Q 2250 -91 1575 -91 
Q 1294 -91 989 -36 
Q 684 19 347 128 
L 347 722 
Q 666 556 975 473 
Q 1284 391 1588 391 
Q 1994 391 2212 530 
Q 2431 669 2431 922 
Q 2431 1156 2273 1281 
Q 2116 1406 1581 1522 
L 1381 1569 
Q 847 1681 609 1914 
Q 372 2147 372 2553 
Q 372 3047 722 3315 
Q 1072 3584 1716 3584 
Q 2034 3584 2315 3537 
Q 2597 3491 2834 3397 
z
" transform="scale(0.015625)"/>
      <path id="DejaVuSans-72" d="M 2631 2963 
Q 2534 3019 2420 3045 
Q 2306 3072 2169 3072 
Q 1681 3072 1420 2755 
Q 1159 2438 1159 1844 
L 1159 0 
L 581 0 
L 581 3500 
L 1159 3500 
L 1159 2956 
Q 1341 3275 1631 3429 
Q 1922 3584 2338 3584 
Q 2397 3584 2469 3576 
Q 2541 3569 2628 3553 
L 2631 2963 
z
" transform="scale(0.015625)"/>
      <path id="DejaVuSans-63" d="M 3122 3366 
L 3122 2828 
Q 2878 2963 2633 3030 
Q 2388 3097 2138 3097 
Q 1578 3097 1268 2742 
Q 959 2388 959 1747 
Q 959 1106 1268 751 
Q 1578 397 2138 397 
Q 2388 397 2633 464 
Q 2878 531 3122 666 
L 3122 134 
Q 2881 22 2623 -34 
Q 2366 -91 2075 -91 
Q 1284 -91 818 406 
Q 353 903 353 1747 
Q 353 2603 823 3093 
Q 1294 3584 2113 3584 
Q 2378 3584 2631 3529 
Q 2884 3475 3122 3366 
z
" transform="scale(0.015625)"/>
     </defs>
     <use xlink:href="#DejaVuSans-31"/>
     <use xlink:href="#DejaVuSans-66" x="63.623047"/>
     <use xlink:href="#DejaVuSans-69" x="98.828125"/>
     <use xlink:href="#DejaVuSans-6e" x="126.611328"/>
     <use xlink:href="#DejaVuSans-61" x="189.990234"/>
     <use xlink:href="#DejaVuSans-6c" x="251.269531"/>
     <use xlink:href="#DejaVuSans-5f" x="279.052734"/>
     <use xlink:href="#DejaVuSans-7a" x="329.052734"/>
     <use xlink:href="#DejaVuSans-68" x="381.542969"/>
     <use xlink:href="#DejaVuSans-61" x="444.921875"/>
     <use xlink:href="#DejaVuSans-6e" x="506.201172"/>
     <use xlink:href="#DejaVuSans-67" x="569.580078"/>
     <use xlink:href="#DejaVuSans-5f" x="633.056641"/>
     <use xlink:href="#DejaVuSans-73" x="683.056641"/>
     <use xlink:href="#DejaVuSans-72" x="735.15625"/>
     <use xlink:href="#DejaVuSans-5f" x="776.269531"/>
     <use xlink:href="#DejaVuSans-63" x="826.269531"/>
     <use xlink:href="#DejaVuSans-63" x="881.25"/>
     <use xlink:href="#DejaVuSans-69" x="936.230469"/>
    </g>
   </g>
   <g id="legend_1">
    <g id="patch_7">
     <path d="M 64.6 302.584 
L 258.804688 302.584 
Q 260.804688 302.584 260.804688 300.584 
L 260.804688 257.549625 
Q 260.804688 255.549625 258.804688 255.549625 
L 64.6 255.549625 
Q 62.6 255.549625 62.6 257.549625 
L 62.6 300.584 
Q 62.6 302.584 64.6 302.584 
z
" style="fill: #ffffff; opacity: 0.8; stroke: #cccccc; stroke-linejoin: miter"/>
    </g>
    <g id="line2d_16">
     <path d="M 66.6 263.648062 
L 76.6 263.648062 
L 86.6 263.648062 
" style="fill: none; stroke: #1f77b4; stroke-opacity: 0.7; stroke-width: 1.5; stroke-linecap: square"/>
    </g>
    <g id="text_14">
     <!-- Positive cumulative predictions -->
     <g transform="translate(94.6 267.148062) scale(0.1 -0.1)">
      <defs>
       <path id="DejaVuSans-50" d="M 1259 4147 
L 1259 2394 
L 2053 2394 
Q 2494 2394 2734 2622 
Q 2975 2850 2975 3272 
Q 2975 3691 2734 3919 
Q 2494 4147 2053 4147 
L 1259 4147 
z
M 628 4666 
L 2053 4666 
Q 2838 4666 3239 4311 
Q 3641 3956 3641 3272 
Q 3641 2581 3239 2228 
Q 2838 1875 2053 1875 
L 1259 1875 
L 1259 0 
L 628 0 
L 628 4666 
z
" transform="scale(0.015625)"/>
       <path id="DejaVuSans-6f" d="M 1959 3097 
Q 1497 3097 1228 2736 
Q 959 2375 959 1747 
Q 959 1119 1226 758 
Q 1494 397 1959 397 
Q 2419 397 2687 759 
Q 2956 1122 2956 1747 
Q 2956 2369 2687 2733 
Q 2419 3097 1959 3097 
z
M 1959 3584 
Q 2709 3584 3137 3096 
Q 3566 2609 3566 1747 
Q 3566 888 3137 398 
Q 2709 -91 1959 -91 
Q 1206 -91 779 398 
Q 353 888 353 1747 
Q 353 2609 779 3096 
Q 1206 3584 1959 3584 
z
" transform="scale(0.015625)"/>
       <path id="DejaVuSans-74" d="M 1172 4494 
L 1172 3500 
L 2356 3500 
L 2356 3053 
L 1172 3053 
L 1172 1153 
Q 1172 725 1289 603 
Q 1406 481 1766 481 
L 2356 481 
L 2356 0 
L 1766 0 
Q 1100 0 847 248 
Q 594 497 594 1153 
L 594 3053 
L 172 3053 
L 172 3500 
L 594 3500 
L 594 4494 
L 1172 4494 
z
" transform="scale(0.015625)"/>
       <path id="DejaVuSans-76" d="M 191 3500 
L 800 3500 
L 1894 563 
L 2988 3500 
L 3597 3500 
L 2284 0 
L 1503 0 
L 191 3500 
z
" transform="scale(0.015625)"/>
       <path id="DejaVuSans-65" d="M 3597 1894 
L 3597 1613 
L 953 1613 
Q 991 1019 1311 708 
Q 1631 397 2203 397 
Q 2534 397 2845 478 
Q 3156 559 3463 722 
L 3463 178 
Q 3153 47 2828 -22 
Q 2503 -91 2169 -91 
Q 1331 -91 842 396 
Q 353 884 353 1716 
Q 353 2575 817 3079 
Q 1281 3584 2069 3584 
Q 2775 3584 3186 3129 
Q 3597 2675 3597 1894 
z
M 3022 2063 
Q 3016 2534 2758 2815 
Q 2500 3097 2075 3097 
Q 1594 3097 1305 2825 
Q 1016 2553 972 2059 
L 3022 2063 
z
" transform="scale(0.015625)"/>
       <path id="DejaVuSans-20" transform="scale(0.015625)"/>
       <path id="DejaVuSans-75" d="M 544 1381 
L 544 3500 
L 1119 3500 
L 1119 1403 
Q 1119 906 1312 657 
Q 1506 409 1894 409 
Q 2359 409 2629 706 
Q 2900 1003 2900 1516 
L 2900 3500 
L 3475 3500 
L 3475 0 
L 2900 0 
L 2900 538 
Q 2691 219 2414 64 
Q 2138 -91 1772 -91 
Q 1169 -91 856 284 
Q 544 659 544 1381 
z
M 1991 3584 
L 1991 3584 
z
" transform="scale(0.015625)"/>
       <path id="DejaVuSans-6d" d="M 3328 2828 
Q 3544 3216 3844 3400 
Q 4144 3584 4550 3584 
Q 5097 3584 5394 3201 
Q 5691 2819 5691 2113 
L 5691 0 
L 5113 0 
L 5113 2094 
Q 5113 2597 4934 2840 
Q 4756 3084 4391 3084 
Q 3944 3084 3684 2787 
Q 3425 2491 3425 1978 
L 3425 0 
L 2847 0 
L 2847 2094 
Q 2847 2600 2669 2842 
Q 2491 3084 2119 3084 
Q 1678 3084 1418 2786 
Q 1159 2488 1159 1978 
L 1159 0 
L 581 0 
L 581 3500 
L 1159 3500 
L 1159 2956 
Q 1356 3278 1631 3431 
Q 1906 3584 2284 3584 
Q 2666 3584 2933 3390 
Q 3200 3197 3328 2828 
z
" transform="scale(0.015625)"/>
       <path id="DejaVuSans-70" d="M 1159 525 
L 1159 -1331 
L 581 -1331 
L 581 3500 
L 1159 3500 
L 1159 2969 
Q 1341 3281 1617 3432 
Q 1894 3584 2278 3584 
Q 2916 3584 3314 3078 
Q 3713 2572 3713 1747 
Q 3713 922 3314 415 
Q 2916 -91 2278 -91 
Q 1894 -91 1617 61 
Q 1341 213 1159 525 
z
M 3116 1747 
Q 3116 2381 2855 2742 
Q 2594 3103 2138 3103 
Q 1681 3103 1420 2742 
Q 1159 2381 1159 1747 
Q 1159 1113 1420 752 
Q 1681 391 2138 391 
Q 2594 391 2855 752 
Q 3116 1113 3116 1747 
z
" transform="scale(0.015625)"/>
       <path id="DejaVuSans-64" d="M 2906 2969 
L 2906 4863 
L 3481 4863 
L 3481 0 
L 2906 0 
L 2906 525 
Q 2725 213 2448 61 
Q 2172 -91 1784 -91 
Q 1150 -91 751 415 
Q 353 922 353 1747 
Q 353 2572 751 3078 
Q 1150 3584 1784 3584 
Q 2172 3584 2448 3432 
Q 2725 3281 2906 2969 
z
M 947 1747 
Q 947 1113 1208 752 
Q 1469 391 1925 391 
Q 2381 391 2643 752 
Q 2906 1113 2906 1747 
Q 2906 2381 2643 2742 
Q 2381 3103 1925 3103 
Q 1469 3103 1208 2742 
Q 947 2381 947 1747 
z
" transform="scale(0.015625)"/>
      </defs>
      <use xlink:href="#DejaVuSans-50"/>
      <use xlink:href="#DejaVuSans-6f" x="56.677734"/>
      <use xlink:href="#DejaVuSans-73" x="117.859375"/>
      <use xlink:href="#DejaVuSans-69" x="169.958984"/>
      <use xlink:href="#DejaVuSans-74" x="197.742188"/>
      <use xlink:href="#DejaVuSans-69" x="236.951172"/>
      <use xlink:href="#DejaVuSans-76" x="264.734375"/>
      <use xlink:href="#DejaVuSans-65" x="323.914062"/>
      <use xlink:href="#DejaVuSans-20" x="385.4375"/>
      <use xlink:href="#DejaVuSans-63" x="417.224609"/>
      <use xlink:href="#DejaVuSans-75" x="472.205078"/>
      <use xlink:href="#DejaVuSans-6d" x="535.583984"/>
      <use xlink:href="#DejaVuSans-75" x="632.996094"/>
      <use xlink:href="#DejaVuSans-6c" x="696.375"/>
      <use xlink:href="#DejaVuSans-61" x="724.158203"/>
      <use xlink:href="#DejaVuSans-74" x="785.4375"/>
      <use xlink:href="#DejaVuSans-69" x="824.646484"/>
      <use xlink:href="#DejaVuSans-76" x="852.429688"/>
      <use xlink:href="#DejaVuSans-65" x="911.609375"/>
      <use xlink:href="#DejaVuSans-20" x="973.132812"/>
      <use xlink:href="#DejaVuSans-70" x="1004.919922"/>
      <use xlink:href="#DejaVuSans-72" x="1068.396484"/>
      <use xlink:href="#DejaVuSans-65" x="1107.259766"/>
      <use xlink:href="#DejaVuSans-64" x="1168.783203"/>
      <use xlink:href="#DejaVuSans-69" x="1232.259766"/>
      <use xlink:href="#DejaVuSans-63" x="1260.042969"/>
      <use xlink:href="#DejaVuSans-74" x="1315.023438"/>
      <use xlink:href="#DejaVuSans-69" x="1354.232422"/>
      <use xlink:href="#DejaVuSans-6f" x="1382.015625"/>
      <use xlink:href="#DejaVuSans-6e" x="1443.197266"/>
      <use xlink:href="#DejaVuSans-73" x="1506.576172"/>
     </g>
    </g>
    <g id="line2d_17">
     <path d="M 66.6 278.326188 
L 76.6 278.326188 
L 86.6 278.326188 
" style="fill: none; stroke: #ff7f0e; stroke-opacity: 0.7; stroke-width: 1.5; stroke-linecap: square"/>
    </g>
    <g id="text_15">
     <!-- Negative cumulative predictions -->
     <g transform="translate(94.6 281.826188) scale(0.1 -0.1)">
      <defs>
       <path id="DejaVuSans-4e" d="M 628 4666 
L 1478 4666 
L 3547 763 
L 3547 4666 
L 4159 4666 
L 4159 0 
L 3309 0 
L 1241 3903 
L 1241 0 
L 628 0 
L 628 4666 
z
" transform="scale(0.015625)"/>
      </defs>
      <use xlink:href="#DejaVuSans-4e"/>
      <use xlink:href="#DejaVuSans-65" x="74.804688"/>
      <use xlink:href="#DejaVuSans-67" x="136.328125"/>
      <use xlink:href="#DejaVuSans-61" x="199.804688"/>
      <use xlink:href="#DejaVuSans-74" x="261.083984"/>
      <use xlink:href="#DejaVuSans-69" x="300.292969"/>
      <use xlink:href="#DejaVuSans-76" x="328.076172"/>
      <use xlink:href="#DejaVuSans-65" x="387.255859"/>
      <use xlink:href="#DejaVuSans-20" x="448.779297"/>
      <use xlink:href="#DejaVuSans-63" x="480.566406"/>
      <use xlink:href="#DejaVuSans-75" x="535.546875"/>
      <use xlink:href="#DejaVuSans-6d" x="598.925781"/>
      <use xlink:href="#DejaVuSans-75" x="696.337891"/>
      <use xlink:href="#DejaVuSans-6c" x="759.716797"/>
      <use xlink:href="#DejaVuSans-61" x="787.5"/>
      <use xlink:href="#DejaVuSans-74" x="848.779297"/>
      <use xlink:href="#DejaVuSans-69" x="887.988281"/>
      <use xlink:href="#DejaVuSans-76" x="915.771484"/>
      <use xlink:href="#DejaVuSans-65" x="974.951172"/>
      <use xlink:href="#DejaVuSans-20" x="1036.474609"/>
      <use xlink:href="#DejaVuSans-70" x="1068.261719"/>
      <use xlink:href="#DejaVuSans-72" x="1131.738281"/>
      <use xlink:href="#DejaVuSans-65" x="1170.601562"/>
      <use xlink:href="#DejaVuSans-64" x="1232.125"/>
      <use xlink:href="#DejaVuSans-69" x="1295.601562"/>
      <use xlink:href="#DejaVuSans-63" x="1323.384766"/>
      <use xlink:href="#DejaVuSans-74" x="1378.365234"/>
      <use xlink:href="#DejaVuSans-69" x="1417.574219"/>
      <use xlink:href="#DejaVuSans-6f" x="1445.357422"/>
      <use xlink:href="#DejaVuSans-6e" x="1506.539062"/>
      <use xlink:href="#DejaVuSans-73" x="1569.917969"/>
     </g>
    </g>
    <g id="line2d_18">
     <path d="M 66.6 293.004312 
L 76.6 293.004312 
L 86.6 293.004312 
" style="fill: none; stroke: #2ca02c; stroke-opacity: 0.7; stroke-width: 1.5; stroke-linecap: square"/>
    </g>
    <g id="text_16">
     <!-- Average cumulative predictions -->
     <g transform="translate(94.6 296.504312) scale(0.1 -0.1)">
      <defs>
       <path id="DejaVuSans-41" d="M 2188 4044 
L 1331 1722 
L 3047 1722 
L 2188 4044 
z
M 1831 4666 
L 2547 4666 
L 4325 0 
L 3669 0 
L 3244 1197 
L 1141 1197 
L 716 0 
L 50 0 
L 1831 4666 
z
" transform="scale(0.015625)"/>
      </defs>
      <use xlink:href="#DejaVuSans-41"/>
      <use xlink:href="#DejaVuSans-76" x="62.533203"/>
      <use xlink:href="#DejaVuSans-65" x="121.712891"/>
      <use xlink:href="#DejaVuSans-72" x="183.236328"/>
      <use xlink:href="#DejaVuSans-61" x="224.349609"/>
      <use xlink:href="#DejaVuSans-67" x="285.628906"/>
      <use xlink:href="#DejaVuSans-65" x="349.105469"/>
      <use xlink:href="#DejaVuSans-20" x="410.628906"/>
      <use xlink:href="#DejaVuSans-63" x="442.416016"/>
      <use xlink:href="#DejaVuSans-75" x="497.396484"/>
      <use xlink:href="#DejaVuSans-6d" x="560.775391"/>
      <use xlink:href="#DejaVuSans-75" x="658.1875"/>
      <use xlink:href="#DejaVuSans-6c" x="721.566406"/>
      <use xlink:href="#DejaVuSans-61" x="749.349609"/>
      <use xlink:href="#DejaVuSans-74" x="810.628906"/>
      <use xlink:href="#DejaVuSans-69" x="849.837891"/>
      <use xlink:href="#DejaVuSans-76" x="877.621094"/>
      <use xlink:href="#DejaVuSans-65" x="936.800781"/>
      <use xlink:href="#DejaVuSans-20" x="998.324219"/>
      <use xlink:href="#DejaVuSans-70" x="1030.111328"/>
      <use xlink:href="#DejaVuSans-72" x="1093.587891"/>
      <use xlink:href="#DejaVuSans-65" x="1132.451172"/>
      <use xlink:href="#DejaVuSans-64" x="1193.974609"/>
      <use xlink:href="#DejaVuSans-69" x="1257.451172"/>
      <use xlink:href="#DejaVuSans-63" x="1285.234375"/>
      <use xlink:href="#DejaVuSans-74" x="1340.214844"/>
      <use xlink:href="#DejaVuSans-69" x="1379.423828"/>
      <use xlink:href="#DejaVuSans-6f" x="1407.207031"/>
      <use xlink:href="#DejaVuSans-6e" x="1468.388672"/>
      <use xlink:href="#DejaVuSans-73" x="1531.767578"/>
     </g>
    </g>
   </g>
  </g>
 </g>
 <defs>
  <clipPath id="p5fb49c8aa8">
   <rect x="57.6" y="41.472" width="357.12" height="266.112"/>
  </clipPath>
 </defs>
</svg>
