<?xml version="1.0" encoding="utf-8" standalone="no"?>
<!DOCTYPE svg PUBLIC "-//W3C//DTD SVG 1.1//EN"
  "http://www.w3.org/Graphics/SVG/1.1/DTD/svg11.dtd">
<svg xmlns:xlink="http://www.w3.org/1999/xlink" width="460.8pt" height="345.6pt" viewBox="0 0 460.8 345.6" xmlns="http://www.w3.org/2000/svg" version="1.1">
 <metadata>
  <rdf:RDF xmlns:dc="http://purl.org/dc/elements/1.1/" xmlns:cc="http://creativecommons.org/ns#" xmlns:rdf="http://www.w3.org/1999/02/22-rdf-syntax-ns#">
   <cc:Work>
    <dc:type rdf:resource="http://purl.org/dc/dcmitype/StillImage"/>
    <dc:date>2024-09-06T11:32:57.322008</dc:date>
    <dc:format>image/svg+xml</dc:format>
    <dc:creator>
     <cc:Agent>
      <dc:title>Matplotlib v3.9.0, https://matplotlib.org/</dc:title>
     </cc:Agent>
    </dc:creator>
   </cc:Work>
  </rdf:RDF>
 </metadata>
 <defs>
  <style type="text/css">*{stroke-linejoin: round; stroke-linecap: butt}</style>
 </defs>
 <g id="figure_1">
  <g id="patch_1">
   <path d="M 0 345.6 
L 460.8 345.6 
L 460.8 0 
L 0 0 
z
" style="fill: #ffffff"/>
  </g>
  <g id="axes_1">
   <g id="patch_2">
    <path d="M 57.6 307.584 
L 414.72 307.584 
L 414.72 41.472 
L 57.6 41.472 
z
" style="fill: #ffffff"/>
   </g>
   <g id="matplotlib.axis_1">
    <g id="xtick_1">
     <g id="line2d_1">
      <defs>
       <path id="ma5e944cdb6" d="M 0 0 
L 0 3.5 
" style="stroke: #000000; stroke-width: 0.8"/>
      </defs>
      <g>
       <use xlink:href="#ma5e944cdb6" x="73.832727" y="307.584" style="stroke: #000000; stroke-width: 0.8"/>
      </g>
     </g>
     <g id="text_1">
      <!-- 0 -->
      <g transform="translate(70.651477 322.182437) scale(0.1 -0.1)">
       <defs>
        <path id="DejaVuSans-30" d="M 2034 4250 
Q 1547 4250 1301 3770 
Q 1056 3291 1056 2328 
Q 1056 1369 1301 889 
Q 1547 409 2034 409 
Q 2525 409 2770 889 
Q 3016 1369 3016 2328 
Q 3016 3291 2770 3770 
Q 2525 4250 2034 4250 
z
M 2034 4750 
Q 2819 4750 3233 4129 
Q 3647 3509 3647 2328 
Q 3647 1150 3233 529 
Q 2819 -91 2034 -91 
Q 1250 -91 836 529 
Q 422 1150 422 2328 
Q 422 3509 836 4129 
Q 1250 4750 2034 4750 
z
" transform="scale(0.015625)"/>
       </defs>
       <use xlink:href="#DejaVuSans-30"/>
      </g>
     </g>
    </g>
    <g id="xtick_2">
     <g id="line2d_2">
      <g>
       <use xlink:href="#ma5e944cdb6" x="149.333784" y="307.584" style="stroke: #000000; stroke-width: 0.8"/>
      </g>
     </g>
     <g id="text_2">
      <!-- 50 -->
      <g transform="translate(142.971284 322.182437) scale(0.1 -0.1)">
       <defs>
        <path id="DejaVuSans-35" d="M 691 4666 
L 3169 4666 
L 3169 4134 
L 1269 4134 
L 1269 2991 
Q 1406 3038 1543 3061 
Q 1681 3084 1819 3084 
Q 2600 3084 3056 2656 
Q 3513 2228 3513 1497 
Q 3513 744 3044 326 
Q 2575 -91 1722 -91 
Q 1428 -91 1123 -41 
Q 819 9 494 109 
L 494 744 
Q 775 591 1075 516 
Q 1375 441 1709 441 
Q 2250 441 2565 725 
Q 2881 1009 2881 1497 
Q 2881 1984 2565 2268 
Q 2250 2553 1709 2553 
Q 1456 2553 1204 2497 
Q 953 2441 691 2322 
L 691 4666 
z
" transform="scale(0.015625)"/>
       </defs>
       <use xlink:href="#DejaVuSans-35"/>
       <use xlink:href="#DejaVuSans-30" x="63.623047"/>
      </g>
     </g>
    </g>
    <g id="xtick_3">
     <g id="line2d_3">
      <g>
       <use xlink:href="#ma5e944cdb6" x="224.834841" y="307.584" style="stroke: #000000; stroke-width: 0.8"/>
      </g>
     </g>
     <g id="text_3">
      <!-- 100 -->
      <g transform="translate(215.291091 322.182437) scale(0.1 -0.1)">
       <defs>
        <path id="DejaVuSans-31" d="M 794 531 
L 1825 531 
L 1825 4091 
L 703 3866 
L 703 4441 
L 1819 4666 
L 2450 4666 
L 2450 531 
L 3481 531 
L 3481 0 
L 794 0 
L 794 531 
z
" transform="scale(0.015625)"/>
       </defs>
       <use xlink:href="#DejaVuSans-31"/>
       <use xlink:href="#DejaVuSans-30" x="63.623047"/>
       <use xlink:href="#DejaVuSans-30" x="127.246094"/>
      </g>
     </g>
    </g>
    <g id="xtick_4">
     <g id="line2d_4">
      <g>
       <use xlink:href="#ma5e944cdb6" x="300.335899" y="307.584" style="stroke: #000000; stroke-width: 0.8"/>
      </g>
     </g>
     <g id="text_4">
      <!-- 150 -->
      <g transform="translate(290.792149 322.182437) scale(0.1 -0.1)">
       <use xlink:href="#DejaVuSans-31"/>
       <use xlink:href="#DejaVuSans-35" x="63.623047"/>
       <use xlink:href="#DejaVuSans-30" x="127.246094"/>
      </g>
     </g>
    </g>
    <g id="xtick_5">
     <g id="line2d_5">
      <g>
       <use xlink:href="#ma5e944cdb6" x="375.836956" y="307.584" style="stroke: #000000; stroke-width: 0.8"/>
      </g>
     </g>
     <g id="text_5">
      <!-- 200 -->
      <g transform="translate(366.293206 322.182437) scale(0.1 -0.1)">
       <defs>
        <path id="DejaVuSans-32" d="M 1228 531 
L 3431 531 
L 3431 0 
L 469 0 
L 469 531 
Q 828 903 1448 1529 
Q 2069 2156 2228 2338 
Q 2531 2678 2651 2914 
Q 2772 3150 2772 3378 
Q 2772 3750 2511 3984 
Q 2250 4219 1831 4219 
Q 1534 4219 1204 4116 
Q 875 4013 500 3803 
L 500 4441 
Q 881 4594 1212 4672 
Q 1544 4750 1819 4750 
Q 2544 4750 2975 4387 
Q 3406 4025 3406 3419 
Q 3406 3131 3298 2873 
Q 3191 2616 2906 2266 
Q 2828 2175 2409 1742 
Q 1991 1309 1228 531 
z
" transform="scale(0.015625)"/>
       </defs>
       <use xlink:href="#DejaVuSans-32"/>
       <use xlink:href="#DejaVuSans-30" x="63.623047"/>
       <use xlink:href="#DejaVuSans-30" x="127.246094"/>
      </g>
     </g>
    </g>
   </g>
   <g id="matplotlib.axis_2">
    <g id="ytick_1">
     <g id="line2d_6">
      <defs>
       <path id="m3e7be76e85" d="M 0 0 
L -3.5 0 
" style="stroke: #000000; stroke-width: 0.8"/>
      </defs>
      <g>
       <use xlink:href="#m3e7be76e85" x="57.6" y="276.872577" style="stroke: #000000; stroke-width: 0.8"/>
      </g>
     </g>
     <g id="text_6">
      <!-- −6000 -->
      <g transform="translate(16.770313 280.671796) scale(0.1 -0.1)">
       <defs>
        <path id="DejaVuSans-2212" d="M 678 2272 
L 4684 2272 
L 4684 1741 
L 678 1741 
L 678 2272 
z
" transform="scale(0.015625)"/>
        <path id="DejaVuSans-36" d="M 2113 2584 
Q 1688 2584 1439 2293 
Q 1191 2003 1191 1497 
Q 1191 994 1439 701 
Q 1688 409 2113 409 
Q 2538 409 2786 701 
Q 3034 994 3034 1497 
Q 3034 2003 2786 2293 
Q 2538 2584 2113 2584 
z
M 3366 4563 
L 3366 3988 
Q 3128 4100 2886 4159 
Q 2644 4219 2406 4219 
Q 1781 4219 1451 3797 
Q 1122 3375 1075 2522 
Q 1259 2794 1537 2939 
Q 1816 3084 2150 3084 
Q 2853 3084 3261 2657 
Q 3669 2231 3669 1497 
Q 3669 778 3244 343 
Q 2819 -91 2113 -91 
Q 1303 -91 875 529 
Q 447 1150 447 2328 
Q 447 3434 972 4092 
Q 1497 4750 2381 4750 
Q 2619 4750 2861 4703 
Q 3103 4656 3366 4563 
z
" transform="scale(0.015625)"/>
       </defs>
       <use xlink:href="#DejaVuSans-2212"/>
       <use xlink:href="#DejaVuSans-36" x="83.789062"/>
       <use xlink:href="#DejaVuSans-30" x="147.412109"/>
       <use xlink:href="#DejaVuSans-30" x="211.035156"/>
       <use xlink:href="#DejaVuSans-30" x="274.658203"/>
      </g>
     </g>
    </g>
    <g id="ytick_2">
     <g id="line2d_7">
      <g>
       <use xlink:href="#m3e7be76e85" x="57.6" y="243.676539" style="stroke: #000000; stroke-width: 0.8"/>
      </g>
     </g>
     <g id="text_7">
      <!-- −4000 -->
      <g transform="translate(16.770313 247.475758) scale(0.1 -0.1)">
       <defs>
        <path id="DejaVuSans-34" d="M 2419 4116 
L 825 1625 
L 2419 1625 
L 2419 4116 
z
M 2253 4666 
L 3047 4666 
L 3047 1625 
L 3713 1625 
L 3713 1100 
L 3047 1100 
L 3047 0 
L 2419 0 
L 2419 1100 
L 313 1100 
L 313 1709 
L 2253 4666 
z
" transform="scale(0.015625)"/>
       </defs>
       <use xlink:href="#DejaVuSans-2212"/>
       <use xlink:href="#DejaVuSans-34" x="83.789062"/>
       <use xlink:href="#DejaVuSans-30" x="147.412109"/>
       <use xlink:href="#DejaVuSans-30" x="211.035156"/>
       <use xlink:href="#DejaVuSans-30" x="274.658203"/>
      </g>
     </g>
    </g>
    <g id="ytick_3">
     <g id="line2d_8">
      <g>
       <use xlink:href="#m3e7be76e85" x="57.6" y="210.480501" style="stroke: #000000; stroke-width: 0.8"/>
      </g>
     </g>
     <g id="text_8">
      <!-- −2000 -->
      <g transform="translate(16.770313 214.279719) scale(0.1 -0.1)">
       <use xlink:href="#DejaVuSans-2212"/>
       <use xlink:href="#DejaVuSans-32" x="83.789062"/>
       <use xlink:href="#DejaVuSans-30" x="147.412109"/>
       <use xlink:href="#DejaVuSans-30" x="211.035156"/>
       <use xlink:href="#DejaVuSans-30" x="274.658203"/>
      </g>
     </g>
    </g>
    <g id="ytick_4">
     <g id="line2d_9">
      <g>
       <use xlink:href="#m3e7be76e85" x="57.6" y="177.284462" style="stroke: #000000; stroke-width: 0.8"/>
      </g>
     </g>
     <g id="text_9">
      <!-- 0 -->
      <g transform="translate(44.2375 181.083681) scale(0.1 -0.1)">
       <use xlink:href="#DejaVuSans-30"/>
      </g>
     </g>
    </g>
    <g id="ytick_5">
     <g id="line2d_10">
      <g>
       <use xlink:href="#m3e7be76e85" x="57.6" y="144.088424" style="stroke: #000000; stroke-width: 0.8"/>
      </g>
     </g>
     <g id="text_10">
      <!-- 2000 -->
      <g transform="translate(25.15 147.887643) scale(0.1 -0.1)">
       <use xlink:href="#DejaVuSans-32"/>
       <use xlink:href="#DejaVuSans-30" x="63.623047"/>
       <use xlink:href="#DejaVuSans-30" x="127.246094"/>
       <use xlink:href="#DejaVuSans-30" x="190.869141"/>
      </g>
     </g>
    </g>
    <g id="ytick_6">
     <g id="line2d_11">
      <g>
       <use xlink:href="#m3e7be76e85" x="57.6" y="110.892385" style="stroke: #000000; stroke-width: 0.8"/>
      </g>
     </g>
     <g id="text_11">
      <!-- 4000 -->
      <g transform="translate(25.15 114.691604) scale(0.1 -0.1)">
       <use xlink:href="#DejaVuSans-34"/>
       <use xlink:href="#DejaVuSans-30" x="63.623047"/>
       <use xlink:href="#DejaVuSans-30" x="127.246094"/>
       <use xlink:href="#DejaVuSans-30" x="190.869141"/>
      </g>
     </g>
    </g>
    <g id="ytick_7">
     <g id="line2d_12">
      <g>
       <use xlink:href="#m3e7be76e85" x="57.6" y="77.696347" style="stroke: #000000; stroke-width: 0.8"/>
      </g>
     </g>
     <g id="text_12">
      <!-- 6000 -->
      <g transform="translate(25.15 81.495566) scale(0.1 -0.1)">
       <use xlink:href="#DejaVuSans-36"/>
       <use xlink:href="#DejaVuSans-30" x="63.623047"/>
       <use xlink:href="#DejaVuSans-30" x="127.246094"/>
       <use xlink:href="#DejaVuSans-30" x="190.869141"/>
      </g>
     </g>
    </g>
    <g id="ytick_8">
     <g id="line2d_13">
      <g>
       <use xlink:href="#m3e7be76e85" x="57.6" y="44.500309" style="stroke: #000000; stroke-width: 0.8"/>
      </g>
     </g>
     <g id="text_13">
      <!-- 8000 -->
      <g transform="translate(25.15 48.299527) scale(0.1 -0.1)">
       <defs>
        <path id="DejaVuSans-38" d="M 2034 2216 
Q 1584 2216 1326 1975 
Q 1069 1734 1069 1313 
Q 1069 891 1326 650 
Q 1584 409 2034 409 
Q 2484 409 2743 651 
Q 3003 894 3003 1313 
Q 3003 1734 2745 1975 
Q 2488 2216 2034 2216 
z
M 1403 2484 
Q 997 2584 770 2862 
Q 544 3141 544 3541 
Q 544 4100 942 4425 
Q 1341 4750 2034 4750 
Q 2731 4750 3128 4425 
Q 3525 4100 3525 3541 
Q 3525 3141 3298 2862 
Q 3072 2584 2669 2484 
Q 3125 2378 3379 2068 
Q 3634 1759 3634 1313 
Q 3634 634 3220 271 
Q 2806 -91 2034 -91 
Q 1263 -91 848 271 
Q 434 634 434 1313 
Q 434 1759 690 2068 
Q 947 2378 1403 2484 
z
M 1172 3481 
Q 1172 3119 1398 2916 
Q 1625 2713 2034 2713 
Q 2441 2713 2670 2916 
Q 2900 3119 2900 3481 
Q 2900 3844 2670 4047 
Q 2441 4250 2034 4250 
Q 1625 4250 1398 4047 
Q 1172 3844 1172 3481 
z
" transform="scale(0.015625)"/>
       </defs>
       <use xlink:href="#DejaVuSans-38"/>
       <use xlink:href="#DejaVuSans-30" x="63.623047"/>
       <use xlink:href="#DejaVuSans-30" x="127.246094"/>
       <use xlink:href="#DejaVuSans-30" x="190.869141"/>
      </g>
     </g>
    </g>
   </g>
   <g id="line2d_14">
    <path d="M 73.832727 182.366127 
L 75.342748 181.233021 
L 76.85277 177.764295 
L 78.362791 178.06293 
L 79.872812 178.499684 
L 81.382833 176.972176 
L 82.892854 178.548957 
L 84.402875 180.364592 
L 85.912896 177.535246 
L 87.422918 178.025863 
L 88.932939 178.742436 
L 90.44296 177.737462 
L 91.952981 177.755161 
L 93.463002 178.002145 
L 94.973023 177.426442 
L 96.483044 178.29327 
L 97.993066 178.927593 
L 99.503087 178.252006 
L 101.013108 176.083833 
L 102.523129 179.153933 
L 104.03315 178.56883 
L 105.543171 176.413862 
L 107.053192 177.731999 
L 108.563214 178.5516 
L 110.073235 177.582146 
L 111.583256 177.943233 
L 113.093277 177.572459 
L 114.603298 177.595372 
L 116.113319 176.619049 
L 117.62334 177.169617 
L 119.133362 178.154938 
L 122.153404 178.195329 
L 125.173446 177.493055 
L 128.193488 177.411305 
L 129.70351 177.76188 
L 131.213531 177.574403 
L 132.723552 177.83423 
L 134.233573 177.722982 
L 135.743594 177.271699 
L 137.253615 178.882497 
L 138.763636 177.133924 
L 140.273658 177.462719 
L 141.783679 178.552823 
L 143.2937 180.073742 
L 144.803721 177.960411 
L 146.313742 176.82463 
L 147.823763 179.616482 
L 149.333784 179.878012 
L 152.353827 176.472025 
L 153.863848 180.505062 
L 155.373869 179.803613 
L 156.88389 176.674112 
L 158.393911 179.592681 
L 159.903932 178.69805 
L 161.413953 177.645687 
L 162.923975 177.311561 
L 164.433996 178.286462 
L 165.944017 177.852135 
L 167.454038 177.62488 
L 168.964059 179.959054 
L 170.47408 177.277645 
L 171.984101 176.812762 
L 173.494123 178.648311 
L 175.004144 177.76009 
L 176.514165 178.31766 
L 178.024186 177.596096 
L 179.534207 179.184348 
L 181.044228 178.034567 
L 182.554249 179.133382 
L 184.064271 178.144806 
L 185.574292 176.371056 
L 187.084313 177.780256 
L 188.594334 177.915519 
L 190.104355 179.231072 
L 191.614376 179.019259 
L 193.124397 178.556069 
L 194.634419 177.850474 
L 196.14444 180.026982 
L 197.654461 177.33179 
L 199.164482 178.544062 
L 200.674503 177.884051 
L 202.184524 177.797287 
L 203.694545 177.114955 
L 205.204567 177.688688 
L 206.714588 177.950374 
L 208.224609 177.141206 
L 209.73463 179.388043 
L 211.244651 177.958428 
L 212.754672 178.207621 
L 214.264693 176.527632 
L 217.284736 179.072415 
L 218.794757 177.414855 
L 220.304778 177.360246 
L 221.814799 177.936609 
L 223.32482 179.831613 
L 224.834841 181.257935 
L 226.344863 176.840584 
L 227.854884 179.581742 
L 229.364905 180.241643 
L 230.874926 178.703642 
L 232.384947 184.260121 
L 233.894968 180.696114 
L 235.404989 188.257245 
L 236.915011 172.628849 
L 238.425032 187.835454 
L 239.935053 188.530661 
L 241.445074 173.029766 
L 242.955095 192.882186 
L 244.465116 181.871655 
L 245.975137 181.799416 
L 247.485159 187.823708 
L 248.99518 185.27131 
L 250.505201 173.609367 
L 252.015222 185.947205 
L 253.525243 184.684208 
L 255.035264 185.482085 
L 256.545285 188.514819 
L 258.055307 184.833444 
L 259.565328 178.049082 
L 261.075349 184.514192 
L 262.58537 177.983226 
L 264.095391 184.717734 
L 265.605412 180.931221 
L 267.115433 186.798456 
L 268.625455 188.519483 
L 270.135476 178.480299 
L 271.645497 173.307665 
L 273.155518 175.254357 
L 274.665539 197.358816 
L 276.17556 184.284595 
L 277.685581 181.123588 
L 279.195603 179.445628 
L 280.705624 182.793763 
L 282.215645 184.577881 
L 285.235687 177.501378 
L 286.745708 185.036758 
L 288.255729 180.4725 
L 289.765751 179.157298 
L 291.275772 179.746455 
L 292.785793 182.885396 
L 294.295814 186.727141 
L 295.805835 176.092099 
L 297.315856 191.639669 
L 298.825877 179.290835 
L 300.335899 182.413347 
L 301.84592 183.846156 
L 303.355941 178.052942 
L 304.865962 182.545582 
L 306.375983 176.145967 
L 307.886004 170.688174 
L 309.396025 189.257925 
L 310.906047 180.492467 
L 312.416068 179.324798 
L 313.926089 176.575324 
L 315.43611 184.886643 
L 316.946131 182.829215 
L 318.456152 181.119875 
L 319.966173 180.976001 
L 321.476195 177.931164 
L 322.986216 177.811143 
L 324.496237 177.207231 
L 326.006258 178.258687 
L 327.516279 180.531445 
L 329.0263 179.550121 
L 330.536321 178.92043 
L 332.046342 178.583682 
L 333.556364 180.868316 
L 335.066385 178.514232 
L 336.576406 179.157404 
L 338.086427 178.814085 
L 339.596448 178.91541 
L 341.106469 178.559083 
L 342.61649 178.794123 
L 344.126512 178.349701 
L 345.636533 182.209258 
L 347.146554 176.925863 
L 348.656575 178.412243 
L 350.166596 178.158154 
L 351.676617 181.075314 
L 353.186638 178.639403 
L 354.69666 183.369444 
L 357.716702 179.71687 
L 359.226723 180.920703 
L 360.736744 175.235962 
L 362.246765 178.934059 
L 363.756786 178.010506 
L 365.266808 177.394382 
L 366.776829 180.217793 
L 368.28685 177.745008 
L 369.796871 184.256 
L 371.306892 178.337727 
L 372.816913 179.084369 
L 374.326934 176.678594 
L 375.836956 176.761478 
L 377.346977 178.229643 
L 378.856998 177.661704 
L 380.367019 178.972428 
L 381.87704 178.307254 
L 384.897082 181.104099 
L 386.407104 175.807329 
L 387.917125 183.335845 
L 389.427146 181.100225 
L 390.937167 180.662076 
L 393.957209 177.395487 
L 395.46723 184.184318 
L 396.977252 180.670084 
L 398.487273 176.332928 
L 398.487273 176.332928 
" clip-path="url(#pebaa0cbb18)" style="fill: none; stroke: #008000; stroke-opacity: 0.8; stroke-width: 0.5; stroke-linecap: square"/>
   </g>
   <g id="line2d_15">
    <path d="M 73.832727 162.202161 
L 75.342748 163.448096 
L 76.85277 164.081645 
L 78.362791 163.964262 
L 79.872812 163.691997 
L 81.382833 166.134184 
L 82.892854 166.417067 
L 84.402875 171.123909 
L 85.912896 159.619127 
L 87.422918 173.237803 
L 88.932939 169.445574 
L 91.952981 173.380791 
L 93.463002 165.981349 
L 94.973023 167.272255 
L 96.483044 175.274165 
L 97.993066 170.849687 
L 99.503087 169.909794 
L 102.523129 172.368384 
L 104.03315 174.069835 
L 105.543171 167.291152 
L 107.053192 173.644427 
L 108.563214 175.569233 
L 110.073235 176.748903 
L 111.583256 172.292236 
L 113.093277 176.621802 
L 114.603298 174.873348 
L 116.113319 167.369235 
L 117.62334 165.239901 
L 119.133362 173.214081 
L 120.643383 175.263425 
L 122.153404 171.541315 
L 123.663425 174.808029 
L 125.173446 171.559466 
L 126.683467 175.00067 
L 128.193488 175.731695 
L 129.70351 176.600997 
L 131.213531 171.231789 
L 132.723552 176.053613 
L 134.233573 176.560551 
L 135.743594 176.154717 
L 137.253615 175.496858 
L 138.763636 172.182338 
L 140.273658 173.366436 
L 141.783679 176.191873 
L 143.2937 169.191016 
L 146.313742 167.908069 
L 147.823763 173.091711 
L 149.333784 172.360305 
L 150.843805 138.348176 
L 152.353827 161.373879 
L 153.863848 155.529178 
L 155.373869 172.241437 
L 156.88389 166.951146 
L 158.393911 166.552936 
L 159.903932 171.040874 
L 161.413953 173.858655 
L 162.923975 175.110561 
L 164.433996 161.261664 
L 165.944017 172.100274 
L 167.454038 174.718405 
L 168.964059 168.782607 
L 170.47408 170.203771 
L 171.984101 173.140811 
L 173.494123 173.181667 
L 175.004144 174.792143 
L 176.514165 174.028955 
L 178.024186 173.892084 
L 179.534207 174.042467 
L 181.044228 172.838239 
L 182.554249 173.01242 
L 184.064271 173.643106 
L 185.574292 167.730292 
L 187.084313 171.641109 
L 188.594334 164.640844 
L 190.104355 130.019663 
L 191.614376 173.011252 
L 193.124397 174.662602 
L 194.634419 170.477837 
L 196.14444 172.491408 
L 197.654461 172.363523 
L 199.164482 166.352097 
L 200.674503 170.77657 
L 202.184524 166.145361 
L 203.694545 167.691084 
L 205.204567 171.418959 
L 206.714588 174.599128 
L 208.224609 174.565292 
L 209.73463 171.807662 
L 211.244651 162.479882 
L 212.754672 168.971239 
L 214.264693 170.467928 
L 215.774715 158.789595 
L 217.284736 174.257054 
L 218.794757 169.577234 
L 220.304778 173.433995 
L 221.814799 173.586785 
L 223.32482 175.434552 
L 224.834841 169.621123 
L 226.344863 165.105402 
L 227.854884 167.831867 
L 229.364905 150.957305 
L 230.874926 163.426842 
L 232.384947 164.248264 
L 233.894968 148.058083 
L 235.404989 142.005732 
L 236.915011 105.017591 
L 238.425032 145.267365 
L 239.935053 146.012339 
L 241.445074 87.349851 
L 242.955095 135.108279 
L 244.465116 120.279911 
L 245.975137 134.298964 
L 247.485159 145.207773 
L 248.99518 146.530343 
L 250.505201 119.837094 
L 252.015222 115.326646 
L 253.525243 56.836295 
L 255.035264 104.810641 
L 256.545285 140.830331 
L 258.055307 137.522984 
L 259.565328 117.674126 
L 261.075349 126.433381 
L 262.58537 151.133312 
L 264.095391 162.995557 
L 265.605412 151.256037 
L 267.115433 155.763534 
L 268.625455 159.176936 
L 270.135476 142.893453 
L 271.645497 73.035289 
L 273.155518 107.384904 
L 274.665539 135.410374 
L 276.17556 133.285805 
L 277.685581 102.984543 
L 279.195603 127.044757 
L 280.705624 143.148239 
L 282.215645 127.635997 
L 283.725666 120.219846 
L 285.235687 134.432494 
L 286.745708 121.32079 
L 288.255729 130.068027 
L 289.765751 149.249094 
L 291.275772 148.194475 
L 292.785793 121.257946 
L 294.295814 148.304934 
L 295.805835 123.627234 
L 297.315856 155.475837 
L 298.825877 119.177858 
L 300.335899 161.919283 
L 301.84592 164.563061 
L 303.355941 142.616459 
L 304.865962 140.53844 
L 306.375983 136.187705 
L 307.886004 125.505617 
L 309.396025 150.374742 
L 310.906047 158.613657 
L 312.416068 139.49212 
L 313.926089 125.220696 
L 315.43611 169.703604 
L 316.946131 174.29722 
L 318.456152 161.820923 
L 319.966173 158.671698 
L 321.476195 172.210727 
L 322.986216 165.130283 
L 324.496237 142.98239 
L 326.006258 163.190253 
L 327.516279 139.827172 
L 329.0263 166.6543 
L 330.536321 171.739385 
L 332.046342 173.667861 
L 333.556364 173.086558 
L 335.066385 165.252539 
L 336.576406 146.420175 
L 338.086427 171.556957 
L 339.596448 172.595557 
L 341.106469 169.390138 
L 342.61649 167.25962 
L 344.126512 174.525408 
L 345.636533 176.338301 
L 347.146554 167.154379 
L 348.656575 158.954694 
L 350.166596 160.119415 
L 351.676617 164.973264 
L 353.186638 159.45916 
L 354.69666 160.177045 
L 356.206681 161.081098 
L 357.716702 161.577897 
L 359.226723 172.988796 
L 360.736744 149.857194 
L 362.246765 156.897095 
L 363.756786 166.898299 
L 365.266808 162.743702 
L 366.776829 170.116558 
L 368.28685 155.582177 
L 369.796871 165.399592 
L 371.306892 166.873097 
L 372.816913 169.827859 
L 374.326934 157.862638 
L 375.836956 162.280403 
L 377.346977 171.58343 
L 378.856998 149.335116 
L 380.367019 153.853794 
L 381.87704 167.05312 
L 383.387061 167.853357 
L 384.897082 173.007218 
L 386.407104 166.630085 
L 387.917125 175.467205 
L 389.427146 160.098818 
L 390.937167 164.020552 
L 392.447188 146.146025 
L 393.957209 147.361174 
L 395.46723 157.31576 
L 396.977252 136.643016 
L 398.487273 158.464231 
L 398.487273 158.464231 
" clip-path="url(#pebaa0cbb18)" style="fill: none; stroke: #32cd32; stroke-opacity: 0.8; stroke-width: 0.5; stroke-linecap: square"/>
   </g>
   <g id="line2d_16">
    <path d="M 73.832727 208.962613 
L 75.342748 194.68707 
L 76.85277 192.527746 
L 78.362791 194.794365 
L 79.872812 186.251653 
L 81.382833 185.007026 
L 82.892854 184.502547 
L 84.402875 193.348523 
L 85.912896 189.266816 
L 87.422918 186.138925 
L 90.44296 185.101291 
L 91.952981 179.88174 
L 93.463002 186.647534 
L 94.973023 184.327468 
L 96.483044 181.634613 
L 97.993066 186.906677 
L 99.503087 188.367333 
L 101.013108 181.997766 
L 102.523129 187.001443 
L 104.03315 181.456433 
L 105.543171 179.916134 
L 107.053192 180.667751 
L 108.563214 180.914922 
L 110.073235 179.188332 
L 111.583256 182.696087 
L 113.093277 178.213934 
L 114.603298 178.755767 
L 116.113319 179.073969 
L 117.62334 186.259845 
L 119.133362 186.313103 
L 120.643383 180.598981 
L 122.153404 183.656914 
L 123.663425 183.58967 
L 125.173446 181.444298 
L 126.683467 178.778227 
L 128.193488 178.675039 
L 129.70351 182.20543 
L 131.213531 181.323241 
L 132.723552 180.300278 
L 134.233573 178.835846 
L 135.743594 178.037273 
L 137.253615 189.19119 
L 138.763636 179.593758 
L 140.273658 180.383537 
L 141.783679 181.513301 
L 143.2937 191.506666 
L 144.803721 195.654186 
L 146.313742 187.097317 
L 147.823763 185.194573 
L 149.333784 186.610946 
L 150.843805 199.130171 
L 152.353827 194.959683 
L 153.863848 200.83697 
L 155.373869 186.319221 
L 156.88389 188.609239 
L 158.393911 192.642574 
L 159.903932 186.919059 
L 161.413953 182.059455 
L 162.923975 180.172931 
L 164.433996 187.099532 
L 165.944017 183.788062 
L 167.454038 181.958094 
L 168.964059 200.059149 
L 170.47408 183.770319 
L 171.984101 180.884636 
L 173.494123 184.396474 
L 175.004144 181.658691 
L 176.514165 192.092898 
L 178.024186 183.153652 
L 179.534207 184.99762 
L 181.044228 188.9765 
L 182.554249 184.774812 
L 184.064271 185.684961 
L 185.574292 187.331846 
L 187.084313 183.571756 
L 188.594334 184.171839 
L 190.104355 203.831322 
L 191.614376 190.267355 
L 193.124397 185.682379 
L 194.634419 186.940106 
L 196.14444 193.06571 
L 197.654461 187.048714 
L 199.164482 186.91968 
L 200.674503 184.329551 
L 202.184524 189.033476 
L 203.694545 182.079295 
L 205.204567 183.50354 
L 206.714588 182.737759 
L 208.224609 178.52364 
L 209.73463 194.01772 
L 211.244651 186.640918 
L 212.754672 182.935136 
L 214.264693 181.163452 
L 215.774715 196.025409 
L 217.284736 184.066372 
L 218.794757 188.624987 
L 220.304778 180.128606 
L 221.814799 181.742699 
L 224.834841 200.042062 
L 226.344863 194.195534 
L 227.854884 191.109265 
L 229.364905 197.951032 
L 230.874926 193.224711 
L 232.384947 207.310144 
L 233.894968 215.318587 
L 235.404989 267.256762 
L 236.915011 245.289592 
L 238.425032 239.249194 
L 239.935053 295.488 
L 241.445074 246.580341 
L 242.955095 268.825059 
L 244.465116 231.291632 
L 245.975137 236.467131 
L 247.485159 255.849955 
L 248.99518 240.016449 
L 250.505201 220.579549 
L 252.015222 279.795839 
L 253.525243 265.495379 
L 255.035264 289.168379 
L 256.545285 219.386203 
L 258.055307 256.153134 
L 259.565328 217.554461 
L 261.075349 229.438197 
L 262.58537 203.200575 
L 264.095391 232.02601 
L 265.605412 212.52747 
L 267.115433 221.094668 
L 268.625455 243.29593 
L 270.135476 222.786473 
L 271.645497 206.792976 
L 273.155518 218.782064 
L 274.665539 270.854245 
L 276.17556 229.430644 
L 277.685581 243.33662 
L 279.195603 235.33706 
L 280.705624 237.561582 
L 282.215645 229.724794 
L 283.725666 228.493951 
L 285.235687 240.468161 
L 286.745708 231.965514 
L 288.255729 214.97647 
L 289.765751 207.668774 
L 291.275772 198.65607 
L 292.785793 235.674897 
L 294.295814 257.064316 
L 295.805835 210.544297 
L 297.315856 276.521763 
L 298.825877 234.282321 
L 300.335899 218.704846 
L 301.84592 212.756228 
L 303.355941 210.564787 
L 304.865962 207.526268 
L 306.375983 203.768479 
L 307.886004 215.031633 
L 309.396025 232.530191 
L 310.906047 197.941309 
L 312.416068 216.451043 
L 313.926089 221.370714 
L 315.43611 221.415101 
L 316.946131 197.059521 
L 318.456152 207.474252 
L 319.966173 212.233626 
L 321.476195 191.446563 
L 322.986216 192.621418 
L 324.496237 200.589335 
L 326.006258 195.335026 
L 327.516279 213.327711 
L 329.0263 198.516159 
L 330.536321 189.870687 
L 332.046342 182.828831 
L 333.556364 191.837978 
L 335.066385 194.915261 
L 336.576406 244.78876 
L 338.086427 191.635387 
L 339.596448 190.574982 
L 341.106469 187.641323 
L 342.61649 189.429074 
L 344.126512 181.042687 
L 345.636533 190.348986 
L 347.146554 201.740278 
L 348.656575 189.990437 
L 350.166596 189.602426 
L 351.676617 210.592646 
L 353.186638 188.684805 
L 354.69666 204.261256 
L 356.206681 215.91539 
L 357.716702 197.99803 
L 359.226723 198.171095 
L 360.736744 199.597395 
L 362.246765 193.486822 
L 365.266808 184.976412 
L 366.776829 197.620843 
L 368.28685 209.165761 
L 369.796871 200.414234 
L 371.306892 186.532004 
L 372.816913 195.636049 
L 374.326934 183.622295 
L 375.836956 185.877655 
L 377.346977 186.706798 
L 378.856998 195.453707 
L 380.367019 205.106356 
L 381.87704 187.484109 
L 383.387061 193.026316 
L 384.897082 194.437729 
L 386.407104 187.128971 
L 387.917125 198.8942 
L 389.427146 226.835093 
L 390.937167 192.98717 
L 392.447188 228.761241 
L 393.957209 213.533569 
L 395.46723 206.734156 
L 396.977252 213.014572 
L 398.487273 198.258671 
L 398.487273 198.258671 
" clip-path="url(#pebaa0cbb18)" style="fill: none; stroke: #32cd32; stroke-opacity: 0.8; stroke-width: 0.5; stroke-linecap: square"/>
   </g>
   <g id="line2d_17">
    <path d="M 73.832727 178.465593 
L 75.342748 176.677176 
L 76.85277 175.5305 
L 78.362791 174.793812 
L 79.872812 175.541398 
L 81.382833 175.195707 
L 82.892854 177.079945 
L 84.402875 177.960735 
L 85.912896 175.35606 
L 87.422918 175.652648 
L 88.932939 176.608243 
L 90.44296 175.837434 
L 91.952981 176.941128 
L 93.463002 176.508576 
L 94.973023 176.33791 
L 96.483044 177.149148 
L 97.993066 177.025845 
L 99.503087 176.250946 
L 101.013108 174.843942 
L 102.523129 177.730859 
L 104.03315 177.661737 
L 105.543171 175.518305 
L 107.053192 176.874473 
L 108.563214 177.604863 
L 110.073235 176.85956 
L 111.583256 176.899483 
L 113.093277 177.135236 
L 114.603298 177.184779 
L 116.113319 175.90035 
L 117.62334 175.775292 
L 119.133362 176.842349 
L 120.643383 177.130188 
L 122.153404 176.767275 
L 123.663425 177.134293 
L 125.173446 176.851078 
L 126.683467 177.169249 
L 128.193488 177.068793 
L 129.70351 177.343559 
L 131.213531 176.803831 
L 132.723552 177.459605 
L 134.233573 177.309354 
L 135.743594 176.941068 
L 137.253615 177.485842 
L 138.763636 176.440612 
L 140.273658 176.851192 
L 143.2937 177.936445 
L 144.803721 175.45484 
L 146.313742 174.920646 
L 147.823763 178.140343 
L 149.333784 176.707053 
L 150.843805 173.163521 
L 152.353827 173.305674 
L 153.863848 175.638047 
L 155.373869 177.264083 
L 156.88389 174.65247 
L 158.393911 176.005348 
L 159.903932 176.962781 
L 161.413953 175.971763 
L 162.923975 176.377468 
L 164.433996 175.616725 
L 165.944017 176.772109 
L 167.454038 176.793047 
L 168.964059 177.83807 
L 170.47408 176.101403 
L 171.984101 175.913986 
L 173.494123 176.563902 
L 176.514165 177.119137 
L 178.024186 176.752212 
L 179.534207 177.656852 
L 181.044228 176.549724 
L 182.554249 177.124854 
L 184.064271 177.141086 
L 185.574292 175.51582 
L 187.084313 175.92495 
L 188.594334 176.04319 
L 190.104355 174.206029 
L 191.614376 176.394327 
L 193.124397 177.249741 
L 194.634419 176.591623 
L 196.14444 178.467216 
L 197.654461 175.245744 
L 202.184524 176.687315 
L 203.694545 176.022579 
L 206.714588 177.399277 
L 208.224609 176.664807 
L 209.73463 178.274334 
L 211.244651 175.70125 
L 212.754672 177.136076 
L 214.264693 175.219726 
L 215.774715 175.323753 
L 217.284736 177.531859 
L 218.794757 176.252909 
L 220.304778 176.643293 
L 221.814799 176.85208 
L 223.32482 177.274992 
L 224.834841 179.282141 
L 226.344863 173.649008 
L 227.854884 176.897102 
L 229.364905 174.583218 
L 230.874926 175.976842 
L 232.384947 177.922483 
L 233.894968 175.419704 
L 235.404989 176.356266 
L 236.915011 163.062404 
L 238.425032 181.130484 
L 239.935053 173.521928 
L 241.445074 162.674248 
L 242.955095 177.232857 
L 244.465116 169.785638 
L 245.975137 169.325786 
L 247.485159 180.322305 
L 248.99518 178.004716 
L 250.505201 156.983066 
L 252.015222 176.657539 
L 253.525243 170.356921 
L 255.035264 167.322885 
L 256.545285 174.027515 
L 258.055307 175.969696 
L 259.565328 166.400881 
L 261.075349 170.84682 
L 262.58537 172.650211 
L 264.095391 178.12135 
L 265.605412 170.47709 
L 267.115433 174.394219 
L 268.625455 176.341066 
L 270.135476 171.761678 
L 271.645497 165.202274 
L 273.155518 166.383106 
L 274.665539 187.175453 
L 276.17556 167.969483 
L 277.685581 167.765561 
L 279.195603 168.877443 
L 280.705624 171.294961 
L 282.215645 168.494446 
L 283.725666 165.3464 
L 285.235687 161.158491 
L 286.745708 176.602361 
L 288.255729 172.469201 
L 289.765751 170.22251 
L 291.275772 174.806193 
L 292.785793 172.398184 
L 294.295814 175.977413 
L 295.805835 166.901812 
L 297.315856 183.487241 
L 298.825877 165.271935 
L 300.335899 176.557643 
L 301.84592 177.823407 
L 303.355941 170.072598 
L 304.865962 175.93497 
L 306.375983 171.495366 
L 307.886004 165.383052 
L 309.396025 178.882016 
L 310.906047 175.462389 
L 312.416068 173.89732 
L 313.926089 163.768824 
L 315.43611 178.505029 
L 316.946131 178.231127 
L 318.456152 177.276438 
L 319.966173 176.00029 
L 321.476195 174.241495 
L 322.986216 175.280825 
L 324.496237 173.076401 
L 326.006258 175.359948 
L 327.516279 175.713175 
L 329.0263 176.676893 
L 330.536321 176.262867 
L 332.046342 176.707461 
L 333.556364 178.62217 
L 335.066385 176.080139 
L 336.576406 170.376215 
L 338.086427 175.541885 
L 339.596448 176.743522 
L 341.106469 176.541693 
L 342.61649 176.811597 
L 344.126512 177.321146 
L 345.636533 179.686095 
L 347.146554 172.732598 
L 348.656575 175.221961 
L 350.166596 174.385048 
L 351.676617 176.166129 
L 353.186638 174.556057 
L 354.69666 175.107391 
L 356.206681 173.756886 
L 359.226723 176.273608 
L 360.736744 172.574682 
L 362.246765 176.625321 
L 363.756786 174.053424 
L 365.266808 175.047089 
L 366.776829 176.606474 
L 368.28685 175.394948 
L 369.796871 177.555056 
L 371.306892 174.147771 
L 372.816913 176.243265 
L 374.326934 174.487285 
L 375.836956 175.471355 
L 377.346977 176.927153 
L 378.856998 172.365157 
L 380.367019 175.01296 
L 381.87704 176.050299 
L 384.897082 178.752765 
L 386.407104 173.620316 
L 387.917125 178.802031 
L 389.427146 175.615271 
L 390.937167 177.473994 
L 392.447188 174.557068 
L 393.957209 174.745078 
L 395.46723 176.782792 
L 396.977252 175.132239 
L 398.487273 171.603346 
L 398.487273 171.603346 
" clip-path="url(#pebaa0cbb18)" style="fill: none; stroke: #ff0000; stroke-opacity: 0.8; stroke-width: 0.5; stroke-linecap: square"/>
   </g>
   <g id="line2d_18">
    <path d="M 73.832727 159.387402 
L 75.342748 158.894933 
L 78.362791 161.648648 
L 79.872812 162.389801 
L 81.382833 165.33497 
L 82.892854 162.209976 
L 84.402875 168.175024 
L 85.912896 157.699217 
L 87.422918 171.383437 
L 88.932939 167.486892 
L 91.952981 172.763665 
L 93.463002 165.238007 
L 94.973023 166.463002 
L 96.483044 173.585836 
L 97.993066 169.904195 
L 99.503087 164.906173 
L 101.013108 169.874239 
L 102.523129 171.086048 
L 104.03315 173.55696 
L 105.543171 166.838128 
L 107.053192 173.172692 
L 108.563214 174.277311 
L 110.073235 174.831939 
L 111.583256 171.951408 
L 113.093277 175.818038 
L 114.603298 174.641633 
L 116.113319 167.110222 
L 117.62334 164.892845 
L 119.133362 170.39145 
L 120.643383 173.820009 
L 122.153404 169.818247 
L 123.663425 174.032275 
L 125.173446 171.048114 
L 126.683467 174.738808 
L 129.70351 176.067406 
L 131.213531 170.34219 
L 132.723552 175.802681 
L 134.233573 176.254363 
L 135.743594 175.862424 
L 137.253615 171.690883 
L 138.763636 171.879935 
L 140.273658 172.704634 
L 141.783679 174.547833 
L 143.2937 164.87709 
L 144.803721 167.186787 
L 146.313742 166.551224 
L 147.823763 171.781779 
L 149.333784 169.06408 
L 150.843805 130.212658 
L 152.353827 157.375679 
L 153.863848 152.599074 
L 155.373869 170.053757 
L 156.88389 164.725584 
L 158.393911 164.996871 
L 159.903932 169.854256 
L 161.413953 170.812707 
L 162.923975 174.020366 
L 164.433996 159.75507 
L 165.944017 170.860351 
L 167.454038 173.553188 
L 168.964059 166.494184 
L 171.984101 172.117926 
L 173.494123 171.281949 
L 175.004144 173.982919 
L 176.514165 172.893081 
L 178.024186 172.352653 
L 179.534207 169.64909 
L 181.044228 171.879586 
L 182.554249 170.266158 
L 184.064271 172.024934 
L 185.574292 168.116763 
L 187.084313 169.614328 
L 188.594334 164.432262 
L 190.104355 128.88112 
L 191.614376 169.110686 
L 193.124397 172.972298 
L 194.634419 168.968105 
L 196.14444 171.40808 
L 197.654461 167.606545 
L 199.164482 162.997918 
L 200.674503 169.380925 
L 202.184524 162.988225 
L 203.694545 167.22966 
L 205.204567 170.761482 
L 206.714588 174.73225 
L 208.224609 173.588997 
L 209.73463 165.086085 
L 211.244651 160.311183 
L 212.754672 167.661461 
L 214.264693 169.430838 
L 215.774715 158.222537 
L 217.284736 172.513417 
L 218.794757 169.088333 
L 220.304778 172.123491 
L 221.814799 172.475275 
L 223.32482 170.173519 
L 224.834841 167.210269 
L 226.344863 156.964452 
L 227.854884 165.760004 
L 229.364905 148.573921 
L 230.874926 161.879959 
L 232.384947 157.722377 
L 233.894968 143.684402 
L 235.404989 131.472085 
L 236.915011 96.33438 
L 238.425032 137.930027 
L 241.445074 87.762814 
L 242.955095 125.765821 
L 244.465116 104.446658 
L 245.975137 127.273254 
L 247.485159 140.106238 
L 248.99518 141.527145 
L 250.505201 108.22745 
L 252.015222 106.799779 
L 253.525243 53.568 
L 256.545285 129.736969 
L 258.055307 117.92531 
L 259.565328 109.482178 
L 261.075349 110.210401 
L 262.58537 141.076478 
L 264.095391 157.920976 
L 265.605412 136.693466 
L 267.115433 136.063495 
L 268.625455 132.425365 
L 270.135476 138.420663 
L 271.645497 63.751028 
L 273.155518 104.616811 
L 274.665539 129.137937 
L 276.17556 99.610076 
L 277.685581 86.8372 
L 279.195603 121.705534 
L 280.705624 117.288037 
L 282.215645 117.567061 
L 283.725666 113.12008 
L 285.235687 114.46174 
L 286.745708 112.048555 
L 288.255729 123.246803 
L 289.765751 139.521751 
L 291.275772 137.093169 
L 292.785793 111.772364 
L 294.295814 138.550391 
L 295.805835 114.236602 
L 297.315856 148.972377 
L 298.825877 102.495311 
L 300.335899 153.663915 
L 301.84592 160.117877 
L 303.355941 137.770088 
L 304.865962 135.555146 
L 306.375983 137.557624 
L 307.886004 124.623481 
L 310.906047 148.968416 
L 313.926089 111.261146 
L 315.43611 162.46314 
L 316.946131 167.974586 
L 319.966173 154.642258 
L 321.476195 164.509219 
L 322.986216 159.536674 
L 324.496237 140.727493 
L 326.006258 161.663535 
L 327.516279 134.758836 
L 329.0263 162.789515 
L 330.536321 163.632672 
L 332.046342 170.372501 
L 333.556364 169.684174 
L 335.066385 160.296973 
L 336.576406 133.415274 
L 338.086427 169.30417 
L 339.596448 166.046679 
L 342.61649 166.50599 
L 344.126512 173.115832 
L 345.636533 175.485175 
L 347.146554 158.215737 
L 348.656575 156.965275 
L 350.166596 158.187157 
L 351.676617 145.179954 
L 353.186638 157.01052 
L 354.69666 152.130532 
L 356.206681 149.167126 
L 357.716702 158.16772 
L 359.226723 162.487383 
L 360.736744 148.899469 
L 363.756786 161.800484 
L 365.266808 158.580845 
L 366.776829 161.523141 
L 368.28685 154.419619 
L 369.796871 149.015556 
L 371.306892 162.101617 
L 372.816913 166.171954 
L 374.326934 154.094884 
L 377.346977 167.893031 
L 378.856998 144.653502 
L 380.367019 149.683026 
L 381.87704 166.202133 
L 383.387061 165.536175 
L 384.897082 168.786698 
L 386.407104 161.933762 
L 387.917125 161.805172 
L 389.427146 155.087426 
L 390.937167 162.321463 
L 392.447188 143.816765 
L 393.957209 144.367878 
L 396.977252 130.561376 
L 398.487273 158.478967 
L 398.487273 158.478967 
" clip-path="url(#pebaa0cbb18)" style="fill: none; stroke: #f08080; stroke-opacity: 0.8; stroke-width: 0.5; stroke-linecap: square"/>
   </g>
   <g id="line2d_19">
    <path d="M 73.832727 198.823792 
L 75.342748 192.51573 
L 76.85277 189.640394 
L 78.362791 191.544086 
L 79.872812 184.433683 
L 81.382833 182.411153 
L 82.892854 182.999729 
L 84.402875 190.930279 
L 85.912896 188.192765 
L 88.932939 181.521612 
L 90.44296 184.035705 
L 91.952981 179.593029 
L 93.463002 184.209366 
L 94.973023 183.240759 
L 96.483044 180.515079 
L 97.993066 183.035262 
L 99.503087 186.746668 
L 101.013108 180.023841 
L 102.523129 184.716582 
L 104.03315 180.778235 
L 105.543171 179.109835 
L 107.053192 180.065894 
L 108.563214 180.670314 
L 110.073235 178.73978 
L 111.583256 182.261916 
L 113.093277 177.88166 
L 114.603298 178.355273 
L 116.113319 178.004974 
L 117.62334 183.612657 
L 119.133362 184.771738 
L 120.643383 179.830605 
L 122.153404 182.062177 
L 123.663425 182.333007 
L 125.173446 181.004451 
L 126.683467 178.417308 
L 128.193488 178.158706 
L 129.70351 181.860453 
L 132.723552 179.807184 
L 134.233573 178.292257 
L 135.743594 177.882592 
L 137.253615 188.861424 
L 138.763636 178.562813 
L 140.273658 179.88559 
L 141.783679 180.294979 
L 143.2937 188.935993 
L 144.803721 192.779988 
L 146.313742 186.049672 
L 147.823763 182.973246 
L 149.333784 183.835663 
L 150.843805 197.753966 
L 152.353827 187.225314 
L 153.863848 192.555196 
L 155.373869 184.490716 
L 156.88389 187.539139 
L 158.393911 186.358298 
L 159.903932 185.708716 
L 161.413953 181.465425 
L 162.923975 178.665868 
L 164.433996 182.98247 
L 165.944017 182.45303 
L 167.454038 181.169293 
L 168.964059 197.127536 
L 170.47408 182.588557 
L 171.984101 179.155536 
L 173.494123 181.835599 
L 175.004144 180.911614 
L 176.514165 189.052055 
L 178.024186 182.123524 
L 179.534207 183.94457 
L 181.044228 187.693493 
L 182.554249 181.611315 
L 184.064271 184.886103 
L 185.574292 185.130025 
L 187.084313 181.243467 
L 188.594334 182.9595 
L 190.104355 192.374585 
L 191.614376 188.542038 
L 193.124397 184.402817 
L 194.634419 185.738198 
L 196.14444 192.43779 
L 197.654461 185.622868 
L 199.164482 184.271855 
L 200.674503 182.609043 
L 202.184524 188.658811 
L 203.694545 180.154668 
L 205.204567 182.936858 
L 206.714588 182.370219 
L 208.224609 177.786821 
L 209.73463 192.248719 
L 211.244651 185.287916 
L 212.754672 182.121813 
L 214.264693 179.989236 
L 215.774715 184.540856 
L 217.284736 183.396988 
L 218.794757 185.939682 
L 220.304778 179.589088 
L 221.814799 181.38894 
L 223.32482 189.087611 
L 224.834841 198.414598 
L 226.344863 188.872976 
L 227.854884 189.103746 
L 229.364905 196.409179 
L 230.874926 189.253227 
L 232.384947 205.545522 
L 233.894968 213.455124 
L 235.404989 244.067056 
L 236.915011 230.065735 
L 238.425032 231.697504 
L 239.935053 290.289024 
L 241.445074 232.792509 
L 242.955095 256.504344 
L 244.465116 227.651692 
L 245.975137 212.798883 
L 247.485159 242.40338 
L 248.99518 232.468486 
L 250.505201 188.763873 
L 252.015222 273.592105 
L 253.525243 260.73922 
L 255.035264 274.706712 
L 256.545285 203.012155 
L 258.055307 244.778771 
L 259.565328 196.144237 
L 261.075349 216.870138 
L 262.58537 197.672457 
L 264.095391 220.248466 
L 265.605412 203.556838 
L 267.115433 209.681048 
L 268.625455 232.351932 
L 270.135476 208.956214 
L 271.645497 200.790834 
L 273.155518 213.896084 
L 274.665539 233.898448 
L 276.17556 214.238783 
L 277.685581 235.976378 
L 279.195603 215.450922 
L 280.705624 236.328879 
L 282.215645 205.934175 
L 283.725666 215.852991 
L 285.235687 196.218952 
L 286.745708 219.633639 
L 289.765751 200.25866 
L 291.275772 191.96184 
L 292.785793 211.30895 
L 294.295814 251.718823 
L 295.805835 209.054228 
L 297.315856 274.829193 
L 298.825877 229.104288 
L 300.335899 211.012766 
L 301.84592 208.644569 
L 303.355941 192.646216 
L 304.865962 199.859822 
L 306.375983 196.672264 
L 307.886004 209.427966 
L 309.396025 213.534057 
L 310.906047 193.03761 
L 312.416068 208.343376 
L 313.926089 193.661617 
L 315.43611 213.535942 
L 316.946131 192.516239 
L 318.456152 204.442788 
L 319.966173 206.641434 
L 321.476195 190.093135 
L 322.986216 190.794585 
L 324.496237 193.999053 
L 326.006258 189.316255 
L 327.516279 209.5545 
L 329.0263 192.905897 
L 330.536321 188.549319 
L 332.046342 181.21283 
L 333.556364 189.408261 
L 335.066385 193.373578 
L 336.576406 212.83041 
L 338.086427 184.845058 
L 339.596448 189.214653 
L 341.106469 185.973216 
L 342.61649 186.174032 
L 344.126512 179.985409 
L 345.636533 186.670982 
L 347.146554 199.241112 
L 348.656575 186.965771 
L 350.166596 186.565622 
L 351.676617 209.709268 
L 353.186638 185.411829 
L 354.69666 201.991238 
L 356.206681 207.778195 
L 357.716702 193.41302 
L 359.226723 196.376652 
L 360.736744 195.912752 
L 362.246765 190.434211 
L 363.756786 187.114163 
L 365.266808 182.926305 
L 366.776829 194.536737 
L 368.28685 202.499869 
L 369.796871 197.605449 
L 371.306892 184.021575 
L 372.816913 194.221367 
L 374.326934 182.586353 
L 375.836956 184.824647 
L 377.346977 186.067426 
L 378.856998 182.055009 
L 380.367019 203.502643 
L 381.87704 185.722147 
L 384.897082 192.817223 
L 386.407104 185.781082 
L 387.917125 197.506706 
L 389.427146 224.464243 
L 390.937167 189.610095 
L 392.447188 218.31471 
L 393.957209 203.783696 
L 395.46723 201.892013 
L 396.977252 204.318341 
L 398.487273 191.447524 
L 398.487273 191.447524 
" clip-path="url(#pebaa0cbb18)" style="fill: none; stroke: #f08080; stroke-opacity: 0.8; stroke-width: 0.5; stroke-linecap: square"/>
   </g>
   <g id="patch_3">
    <path d="M 57.6 307.584 
L 57.6 41.472 
" style="fill: none; stroke: #000000; stroke-width: 0.8; stroke-linejoin: miter; stroke-linecap: square"/>
   </g>
   <g id="patch_4">
    <path d="M 414.72 307.584 
L 414.72 41.472 
" style="fill: none; stroke: #000000; stroke-width: 0.8; stroke-linejoin: miter; stroke-linecap: square"/>
   </g>
   <g id="patch_5">
    <path d="M 57.6 307.584 
L 414.72 307.584 
" style="fill: none; stroke: #000000; stroke-width: 0.8; stroke-linejoin: miter; stroke-linecap: square"/>
   </g>
   <g id="patch_6">
    <path d="M 57.6 41.472 
L 414.72 41.472 
" style="fill: none; stroke: #000000; stroke-width: 0.8; stroke-linejoin: miter; stroke-linecap: square"/>
   </g>
   <g id="text_14">
    <!-- 1final_zhangext_aa_btcusd -->
    <g transform="translate(155.135625 35.472) scale(0.12 -0.12)">
     <defs>
      <path id="DejaVuSans-66" d="M 2375 4863 
L 2375 4384 
L 1825 4384 
Q 1516 4384 1395 4259 
Q 1275 4134 1275 3809 
L 1275 3500 
L 2222 3500 
L 2222 3053 
L 1275 3053 
L 1275 0 
L 697 0 
L 697 3053 
L 147 3053 
L 147 3500 
L 697 3500 
L 697 3744 
Q 697 4328 969 4595 
Q 1241 4863 1831 4863 
L 2375 4863 
z
" transform="scale(0.015625)"/>
      <path id="DejaVuSans-69" d="M 603 3500 
L 1178 3500 
L 1178 0 
L 603 0 
L 603 3500 
z
M 603 4863 
L 1178 4863 
L 1178 4134 
L 603 4134 
L 603 4863 
z
" transform="scale(0.015625)"/>
      <path id="DejaVuSans-6e" d="M 3513 2113 
L 3513 0 
L 2938 0 
L 2938 2094 
Q 2938 2591 2744 2837 
Q 2550 3084 2163 3084 
Q 1697 3084 1428 2787 
Q 1159 2491 1159 1978 
L 1159 0 
L 581 0 
L 581 3500 
L 1159 3500 
L 1159 2956 
Q 1366 3272 1645 3428 
Q 1925 3584 2291 3584 
Q 2894 3584 3203 3211 
Q 3513 2838 3513 2113 
z
" transform="scale(0.015625)"/>
      <path id="DejaVuSans-61" d="M 2194 1759 
Q 1497 1759 1228 1600 
Q 959 1441 959 1056 
Q 959 750 1161 570 
Q 1363 391 1709 391 
Q 2188 391 2477 730 
Q 2766 1069 2766 1631 
L 2766 1759 
L 2194 1759 
z
M 3341 1997 
L 3341 0 
L 2766 0 
L 2766 531 
Q 2569 213 2275 61 
Q 1981 -91 1556 -91 
Q 1019 -91 701 211 
Q 384 513 384 1019 
Q 384 1609 779 1909 
Q 1175 2209 1959 2209 
L 2766 2209 
L 2766 2266 
Q 2766 2663 2505 2880 
Q 2244 3097 1772 3097 
Q 1472 3097 1187 3025 
Q 903 2953 641 2809 
L 641 3341 
Q 956 3463 1253 3523 
Q 1550 3584 1831 3584 
Q 2591 3584 2966 3190 
Q 3341 2797 3341 1997 
z
" transform="scale(0.015625)"/>
      <path id="DejaVuSans-6c" d="M 603 4863 
L 1178 4863 
L 1178 0 
L 603 0 
L 603 4863 
z
" transform="scale(0.015625)"/>
      <path id="DejaVuSans-5f" d="M 3263 -1063 
L 3263 -1509 
L -63 -1509 
L -63 -1063 
L 3263 -1063 
z
" transform="scale(0.015625)"/>
      <path id="DejaVuSans-7a" d="M 353 3500 
L 3084 3500 
L 3084 2975 
L 922 459 
L 3084 459 
L 3084 0 
L 275 0 
L 275 525 
L 2438 3041 
L 353 3041 
L 353 3500 
z
" transform="scale(0.015625)"/>
      <path id="DejaVuSans-68" d="M 3513 2113 
L 3513 0 
L 2938 0 
L 2938 2094 
Q 2938 2591 2744 2837 
Q 2550 3084 2163 3084 
Q 1697 3084 1428 2787 
Q 1159 2491 1159 1978 
L 1159 0 
L 581 0 
L 581 4863 
L 1159 4863 
L 1159 2956 
Q 1366 3272 1645 3428 
Q 1925 3584 2291 3584 
Q 2894 3584 3203 3211 
Q 3513 2838 3513 2113 
z
" transform="scale(0.015625)"/>
      <path id="DejaVuSans-67" d="M 2906 1791 
Q 2906 2416 2648 2759 
Q 2391 3103 1925 3103 
Q 1463 3103 1205 2759 
Q 947 2416 947 1791 
Q 947 1169 1205 825 
Q 1463 481 1925 481 
Q 2391 481 2648 825 
Q 2906 1169 2906 1791 
z
M 3481 434 
Q 3481 -459 3084 -895 
Q 2688 -1331 1869 -1331 
Q 1566 -1331 1297 -1286 
Q 1028 -1241 775 -1147 
L 775 -588 
Q 1028 -725 1275 -790 
Q 1522 -856 1778 -856 
Q 2344 -856 2625 -561 
Q 2906 -266 2906 331 
L 2906 616 
Q 2728 306 2450 153 
Q 2172 0 1784 0 
Q 1141 0 747 490 
Q 353 981 353 1791 
Q 353 2603 747 3093 
Q 1141 3584 1784 3584 
Q 2172 3584 2450 3431 
Q 2728 3278 2906 2969 
L 2906 3500 
L 3481 3500 
L 3481 434 
z
" transform="scale(0.015625)"/>
      <path id="DejaVuSans-65" d="M 3597 1894 
L 3597 1613 
L 953 1613 
Q 991 1019 1311 708 
Q 1631 397 2203 397 
Q 2534 397 2845 478 
Q 3156 559 3463 722 
L 3463 178 
Q 3153 47 2828 -22 
Q 2503 -91 2169 -91 
Q 1331 -91 842 396 
Q 353 884 353 1716 
Q 353 2575 817 3079 
Q 1281 3584 2069 3584 
Q 2775 3584 3186 3129 
Q 3597 2675 3597 1894 
z
M 3022 2063 
Q 3016 2534 2758 2815 
Q 2500 3097 2075 3097 
Q 1594 3097 1305 2825 
Q 1016 2553 972 2059 
L 3022 2063 
z
" transform="scale(0.015625)"/>
      <path id="DejaVuSans-78" d="M 3513 3500 
L 2247 1797 
L 3578 0 
L 2900 0 
L 1881 1375 
L 863 0 
L 184 0 
L 1544 1831 
L 300 3500 
L 978 3500 
L 1906 2253 
L 2834 3500 
L 3513 3500 
z
" transform="scale(0.015625)"/>
      <path id="DejaVuSans-74" d="M 1172 4494 
L 1172 3500 
L 2356 3500 
L 2356 3053 
L 1172 3053 
L 1172 1153 
Q 1172 725 1289 603 
Q 1406 481 1766 481 
L 2356 481 
L 2356 0 
L 1766 0 
Q 1100 0 847 248 
Q 594 497 594 1153 
L 594 3053 
L 172 3053 
L 172 3500 
L 594 3500 
L 594 4494 
L 1172 4494 
z
" transform="scale(0.015625)"/>
      <path id="DejaVuSans-62" d="M 3116 1747 
Q 3116 2381 2855 2742 
Q 2594 3103 2138 3103 
Q 1681 3103 1420 2742 
Q 1159 2381 1159 1747 
Q 1159 1113 1420 752 
Q 1681 391 2138 391 
Q 2594 391 2855 752 
Q 3116 1113 3116 1747 
z
M 1159 2969 
Q 1341 3281 1617 3432 
Q 1894 3584 2278 3584 
Q 2916 3584 3314 3078 
Q 3713 2572 3713 1747 
Q 3713 922 3314 415 
Q 2916 -91 2278 -91 
Q 1894 -91 1617 61 
Q 1341 213 1159 525 
L 1159 0 
L 581 0 
L 581 4863 
L 1159 4863 
L 1159 2969 
z
" transform="scale(0.015625)"/>
      <path id="DejaVuSans-63" d="M 3122 3366 
L 3122 2828 
Q 2878 2963 2633 3030 
Q 2388 3097 2138 3097 
Q 1578 3097 1268 2742 
Q 959 2388 959 1747 
Q 959 1106 1268 751 
Q 1578 397 2138 397 
Q 2388 397 2633 464 
Q 2878 531 3122 666 
L 3122 134 
Q 2881 22 2623 -34 
Q 2366 -91 2075 -91 
Q 1284 -91 818 406 
Q 353 903 353 1747 
Q 353 2603 823 3093 
Q 1294 3584 2113 3584 
Q 2378 3584 2631 3529 
Q 2884 3475 3122 3366 
z
" transform="scale(0.015625)"/>
      <path id="DejaVuSans-75" d="M 544 1381 
L 544 3500 
L 1119 3500 
L 1119 1403 
Q 1119 906 1312 657 
Q 1506 409 1894 409 
Q 2359 409 2629 706 
Q 2900 1003 2900 1516 
L 2900 3500 
L 3475 3500 
L 3475 0 
L 2900 0 
L 2900 538 
Q 2691 219 2414 64 
Q 2138 -91 1772 -91 
Q 1169 -91 856 284 
Q 544 659 544 1381 
z
M 1991 3584 
L 1991 3584 
z
" transform="scale(0.015625)"/>
      <path id="DejaVuSans-73" d="M 2834 3397 
L 2834 2853 
Q 2591 2978 2328 3040 
Q 2066 3103 1784 3103 
Q 1356 3103 1142 2972 
Q 928 2841 928 2578 
Q 928 2378 1081 2264 
Q 1234 2150 1697 2047 
L 1894 2003 
Q 2506 1872 2764 1633 
Q 3022 1394 3022 966 
Q 3022 478 2636 193 
Q 2250 -91 1575 -91 
Q 1294 -91 989 -36 
Q 684 19 347 128 
L 347 722 
Q 666 556 975 473 
Q 1284 391 1588 391 
Q 1994 391 2212 530 
Q 2431 669 2431 922 
Q 2431 1156 2273 1281 
Q 2116 1406 1581 1522 
L 1381 1569 
Q 847 1681 609 1914 
Q 372 2147 372 2553 
Q 372 3047 722 3315 
Q 1072 3584 1716 3584 
Q 2034 3584 2315 3537 
Q 2597 3491 2834 3397 
z
" transform="scale(0.015625)"/>
      <path id="DejaVuSans-64" d="M 2906 2969 
L 2906 4863 
L 3481 4863 
L 3481 0 
L 2906 0 
L 2906 525 
Q 2725 213 2448 61 
Q 2172 -91 1784 -91 
Q 1150 -91 751 415 
Q 353 922 353 1747 
Q 353 2572 751 3078 
Q 1150 3584 1784 3584 
Q 2172 3584 2448 3432 
Q 2725 3281 2906 2969 
z
M 947 1747 
Q 947 1113 1208 752 
Q 1469 391 1925 391 
Q 2381 391 2643 752 
Q 2906 1113 2906 1747 
Q 2906 2381 2643 2742 
Q 2381 3103 1925 3103 
Q 1469 3103 1208 2742 
Q 947 2381 947 1747 
z
" transform="scale(0.015625)"/>
     </defs>
     <use xlink:href="#DejaVuSans-31"/>
     <use xlink:href="#DejaVuSans-66" x="63.623047"/>
     <use xlink:href="#DejaVuSans-69" x="98.828125"/>
     <use xlink:href="#DejaVuSans-6e" x="126.611328"/>
     <use xlink:href="#DejaVuSans-61" x="189.990234"/>
     <use xlink:href="#DejaVuSans-6c" x="251.269531"/>
     <use xlink:href="#DejaVuSans-5f" x="279.052734"/>
     <use xlink:href="#DejaVuSans-7a" x="329.052734"/>
     <use xlink:href="#DejaVuSans-68" x="381.542969"/>
     <use xlink:href="#DejaVuSans-61" x="444.921875"/>
     <use xlink:href="#DejaVuSans-6e" x="506.201172"/>
     <use xlink:href="#DejaVuSans-67" x="569.580078"/>
     <use xlink:href="#DejaVuSans-65" x="633.056641"/>
     <use xlink:href="#DejaVuSans-78" x="692.830078"/>
     <use xlink:href="#DejaVuSans-74" x="752.009766"/>
     <use xlink:href="#DejaVuSans-5f" x="791.21875"/>
     <use xlink:href="#DejaVuSans-61" x="841.21875"/>
     <use xlink:href="#DejaVuSans-61" x="902.498047"/>
     <use xlink:href="#DejaVuSans-5f" x="963.777344"/>
     <use xlink:href="#DejaVuSans-62" x="1013.777344"/>
     <use xlink:href="#DejaVuSans-74" x="1077.253906"/>
     <use xlink:href="#DejaVuSans-63" x="1116.462891"/>
     <use xlink:href="#DejaVuSans-75" x="1171.443359"/>
     <use xlink:href="#DejaVuSans-73" x="1234.822266"/>
     <use xlink:href="#DejaVuSans-64" x="1286.921875"/>
    </g>
   </g>
   <g id="legend_1">
    <g id="patch_7">
     <path d="M 64.6 302.584 
L 225.001563 302.584 
Q 227.001563 302.584 227.001563 300.584 
L 227.001563 213.51525 
Q 227.001563 211.51525 225.001563 211.51525 
L 64.6 211.51525 
Q 62.6 211.51525 62.6 213.51525 
L 62.6 300.584 
Q 62.6 302.584 64.6 302.584 
z
" style="fill: #ffffff; opacity: 0.8; stroke: #cccccc; stroke-linejoin: miter"/>
    </g>
    <g id="line2d_20">
     <path d="M 66.6 219.613687 
L 76.6 219.613687 
L 86.6 219.613687 
" style="fill: none; stroke: #008000; stroke-opacity: 0.8; stroke-width: 0.5; stroke-linecap: square"/>
    </g>
    <g id="text_15">
     <!-- Positive predictions -->
     <g transform="translate(94.6 223.113687) scale(0.1 -0.1)">
      <defs>
       <path id="DejaVuSans-50" d="M 1259 4147 
L 1259 2394 
L 2053 2394 
Q 2494 2394 2734 2622 
Q 2975 2850 2975 3272 
Q 2975 3691 2734 3919 
Q 2494 4147 2053 4147 
L 1259 4147 
z
M 628 4666 
L 2053 4666 
Q 2838 4666 3239 4311 
Q 3641 3956 3641 3272 
Q 3641 2581 3239 2228 
Q 2838 1875 2053 1875 
L 1259 1875 
L 1259 0 
L 628 0 
L 628 4666 
z
" transform="scale(0.015625)"/>
       <path id="DejaVuSans-6f" d="M 1959 3097 
Q 1497 3097 1228 2736 
Q 959 2375 959 1747 
Q 959 1119 1226 758 
Q 1494 397 1959 397 
Q 2419 397 2687 759 
Q 2956 1122 2956 1747 
Q 2956 2369 2687 2733 
Q 2419 3097 1959 3097 
z
M 1959 3584 
Q 2709 3584 3137 3096 
Q 3566 2609 3566 1747 
Q 3566 888 3137 398 
Q 2709 -91 1959 -91 
Q 1206 -91 779 398 
Q 353 888 353 1747 
Q 353 2609 779 3096 
Q 1206 3584 1959 3584 
z
" transform="scale(0.015625)"/>
       <path id="DejaVuSans-76" d="M 191 3500 
L 800 3500 
L 1894 563 
L 2988 3500 
L 3597 3500 
L 2284 0 
L 1503 0 
L 191 3500 
z
" transform="scale(0.015625)"/>
       <path id="DejaVuSans-20" transform="scale(0.015625)"/>
       <path id="DejaVuSans-70" d="M 1159 525 
L 1159 -1331 
L 581 -1331 
L 581 3500 
L 1159 3500 
L 1159 2969 
Q 1341 3281 1617 3432 
Q 1894 3584 2278 3584 
Q 2916 3584 3314 3078 
Q 3713 2572 3713 1747 
Q 3713 922 3314 415 
Q 2916 -91 2278 -91 
Q 1894 -91 1617 61 
Q 1341 213 1159 525 
z
M 3116 1747 
Q 3116 2381 2855 2742 
Q 2594 3103 2138 3103 
Q 1681 3103 1420 2742 
Q 1159 2381 1159 1747 
Q 1159 1113 1420 752 
Q 1681 391 2138 391 
Q 2594 391 2855 752 
Q 3116 1113 3116 1747 
z
" transform="scale(0.015625)"/>
       <path id="DejaVuSans-72" d="M 2631 2963 
Q 2534 3019 2420 3045 
Q 2306 3072 2169 3072 
Q 1681 3072 1420 2755 
Q 1159 2438 1159 1844 
L 1159 0 
L 581 0 
L 581 3500 
L 1159 3500 
L 1159 2956 
Q 1341 3275 1631 3429 
Q 1922 3584 2338 3584 
Q 2397 3584 2469 3576 
Q 2541 3569 2628 3553 
L 2631 2963 
z
" transform="scale(0.015625)"/>
      </defs>
      <use xlink:href="#DejaVuSans-50"/>
      <use xlink:href="#DejaVuSans-6f" x="56.677734"/>
      <use xlink:href="#DejaVuSans-73" x="117.859375"/>
      <use xlink:href="#DejaVuSans-69" x="169.958984"/>
      <use xlink:href="#DejaVuSans-74" x="197.742188"/>
      <use xlink:href="#DejaVuSans-69" x="236.951172"/>
      <use xlink:href="#DejaVuSans-76" x="264.734375"/>
      <use xlink:href="#DejaVuSans-65" x="323.914062"/>
      <use xlink:href="#DejaVuSans-20" x="385.4375"/>
      <use xlink:href="#DejaVuSans-70" x="417.224609"/>
      <use xlink:href="#DejaVuSans-72" x="480.701172"/>
      <use xlink:href="#DejaVuSans-65" x="519.564453"/>
      <use xlink:href="#DejaVuSans-64" x="581.087891"/>
      <use xlink:href="#DejaVuSans-69" x="644.564453"/>
      <use xlink:href="#DejaVuSans-63" x="672.347656"/>
      <use xlink:href="#DejaVuSans-74" x="727.328125"/>
      <use xlink:href="#DejaVuSans-69" x="766.537109"/>
      <use xlink:href="#DejaVuSans-6f" x="794.320312"/>
      <use xlink:href="#DejaVuSans-6e" x="855.501953"/>
      <use xlink:href="#DejaVuSans-73" x="918.880859"/>
     </g>
    </g>
    <g id="line2d_21">
     <path d="M 66.6 234.291812 
L 76.6 234.291812 
L 86.6 234.291812 
" style="fill: none; stroke: #32cd32; stroke-opacity: 0.8; stroke-width: 0.5; stroke-linecap: square"/>
    </g>
    <g id="text_16">
     <!-- Positive predictions max -->
     <g transform="translate(94.6 237.791812) scale(0.1 -0.1)">
      <defs>
       <path id="DejaVuSans-6d" d="M 3328 2828 
Q 3544 3216 3844 3400 
Q 4144 3584 4550 3584 
Q 5097 3584 5394 3201 
Q 5691 2819 5691 2113 
L 5691 0 
L 5113 0 
L 5113 2094 
Q 5113 2597 4934 2840 
Q 4756 3084 4391 3084 
Q 3944 3084 3684 2787 
Q 3425 2491 3425 1978 
L 3425 0 
L 2847 0 
L 2847 2094 
Q 2847 2600 2669 2842 
Q 2491 3084 2119 3084 
Q 1678 3084 1418 2786 
Q 1159 2488 1159 1978 
L 1159 0 
L 581 0 
L 581 3500 
L 1159 3500 
L 1159 2956 
Q 1356 3278 1631 3431 
Q 1906 3584 2284 3584 
Q 2666 3584 2933 3390 
Q 3200 3197 3328 2828 
z
" transform="scale(0.015625)"/>
      </defs>
      <use xlink:href="#DejaVuSans-50"/>
      <use xlink:href="#DejaVuSans-6f" x="56.677734"/>
      <use xlink:href="#DejaVuSans-73" x="117.859375"/>
      <use xlink:href="#DejaVuSans-69" x="169.958984"/>
      <use xlink:href="#DejaVuSans-74" x="197.742188"/>
      <use xlink:href="#DejaVuSans-69" x="236.951172"/>
      <use xlink:href="#DejaVuSans-76" x="264.734375"/>
      <use xlink:href="#DejaVuSans-65" x="323.914062"/>
      <use xlink:href="#DejaVuSans-20" x="385.4375"/>
      <use xlink:href="#DejaVuSans-70" x="417.224609"/>
      <use xlink:href="#DejaVuSans-72" x="480.701172"/>
      <use xlink:href="#DejaVuSans-65" x="519.564453"/>
      <use xlink:href="#DejaVuSans-64" x="581.087891"/>
      <use xlink:href="#DejaVuSans-69" x="644.564453"/>
      <use xlink:href="#DejaVuSans-63" x="672.347656"/>
      <use xlink:href="#DejaVuSans-74" x="727.328125"/>
      <use xlink:href="#DejaVuSans-69" x="766.537109"/>
      <use xlink:href="#DejaVuSans-6f" x="794.320312"/>
      <use xlink:href="#DejaVuSans-6e" x="855.501953"/>
      <use xlink:href="#DejaVuSans-73" x="918.880859"/>
      <use xlink:href="#DejaVuSans-20" x="970.980469"/>
      <use xlink:href="#DejaVuSans-6d" x="1002.767578"/>
      <use xlink:href="#DejaVuSans-61" x="1100.179688"/>
      <use xlink:href="#DejaVuSans-78" x="1161.458984"/>
     </g>
    </g>
    <g id="line2d_22">
     <path d="M 66.6 248.969937 
L 76.6 248.969937 
L 86.6 248.969937 
" style="fill: none; stroke: #32cd32; stroke-opacity: 0.8; stroke-width: 0.5; stroke-linecap: square"/>
    </g>
    <g id="text_17">
     <!-- Positive predictions min -->
     <g transform="translate(94.6 252.469937) scale(0.1 -0.1)">
      <use xlink:href="#DejaVuSans-50"/>
      <use xlink:href="#DejaVuSans-6f" x="56.677734"/>
      <use xlink:href="#DejaVuSans-73" x="117.859375"/>
      <use xlink:href="#DejaVuSans-69" x="169.958984"/>
      <use xlink:href="#DejaVuSans-74" x="197.742188"/>
      <use xlink:href="#DejaVuSans-69" x="236.951172"/>
      <use xlink:href="#DejaVuSans-76" x="264.734375"/>
      <use xlink:href="#DejaVuSans-65" x="323.914062"/>
      <use xlink:href="#DejaVuSans-20" x="385.4375"/>
      <use xlink:href="#DejaVuSans-70" x="417.224609"/>
      <use xlink:href="#DejaVuSans-72" x="480.701172"/>
      <use xlink:href="#DejaVuSans-65" x="519.564453"/>
      <use xlink:href="#DejaVuSans-64" x="581.087891"/>
      <use xlink:href="#DejaVuSans-69" x="644.564453"/>
      <use xlink:href="#DejaVuSans-63" x="672.347656"/>
      <use xlink:href="#DejaVuSans-74" x="727.328125"/>
      <use xlink:href="#DejaVuSans-69" x="766.537109"/>
      <use xlink:href="#DejaVuSans-6f" x="794.320312"/>
      <use xlink:href="#DejaVuSans-6e" x="855.501953"/>
      <use xlink:href="#DejaVuSans-73" x="918.880859"/>
      <use xlink:href="#DejaVuSans-20" x="970.980469"/>
      <use xlink:href="#DejaVuSans-6d" x="1002.767578"/>
      <use xlink:href="#DejaVuSans-69" x="1100.179688"/>
      <use xlink:href="#DejaVuSans-6e" x="1127.962891"/>
     </g>
    </g>
    <g id="line2d_23">
     <path d="M 66.6 263.648062 
L 76.6 263.648062 
L 86.6 263.648062 
" style="fill: none; stroke: #ff0000; stroke-opacity: 0.8; stroke-width: 0.5; stroke-linecap: square"/>
    </g>
    <g id="text_18">
     <!-- Negative predictions -->
     <g transform="translate(94.6 267.148062) scale(0.1 -0.1)">
      <defs>
       <path id="DejaVuSans-4e" d="M 628 4666 
L 1478 4666 
L 3547 763 
L 3547 4666 
L 4159 4666 
L 4159 0 
L 3309 0 
L 1241 3903 
L 1241 0 
L 628 0 
L 628 4666 
z
" transform="scale(0.015625)"/>
      </defs>
      <use xlink:href="#DejaVuSans-4e"/>
      <use xlink:href="#DejaVuSans-65" x="74.804688"/>
      <use xlink:href="#DejaVuSans-67" x="136.328125"/>
      <use xlink:href="#DejaVuSans-61" x="199.804688"/>
      <use xlink:href="#DejaVuSans-74" x="261.083984"/>
      <use xlink:href="#DejaVuSans-69" x="300.292969"/>
      <use xlink:href="#DejaVuSans-76" x="328.076172"/>
      <use xlink:href="#DejaVuSans-65" x="387.255859"/>
      <use xlink:href="#DejaVuSans-20" x="448.779297"/>
      <use xlink:href="#DejaVuSans-70" x="480.566406"/>
      <use xlink:href="#DejaVuSans-72" x="544.042969"/>
      <use xlink:href="#DejaVuSans-65" x="582.90625"/>
      <use xlink:href="#DejaVuSans-64" x="644.429688"/>
      <use xlink:href="#DejaVuSans-69" x="707.90625"/>
      <use xlink:href="#DejaVuSans-63" x="735.689453"/>
      <use xlink:href="#DejaVuSans-74" x="790.669922"/>
      <use xlink:href="#DejaVuSans-69" x="829.878906"/>
      <use xlink:href="#DejaVuSans-6f" x="857.662109"/>
      <use xlink:href="#DejaVuSans-6e" x="918.84375"/>
      <use xlink:href="#DejaVuSans-73" x="982.222656"/>
     </g>
    </g>
    <g id="line2d_24">
     <path d="M 66.6 278.326188 
L 76.6 278.326188 
L 86.6 278.326188 
" style="fill: none; stroke: #f08080; stroke-opacity: 0.8; stroke-width: 0.5; stroke-linecap: square"/>
    </g>
    <g id="text_19">
     <!-- Negative predictions max -->
     <g transform="translate(94.6 281.826188) scale(0.1 -0.1)">
      <use xlink:href="#DejaVuSans-4e"/>
      <use xlink:href="#DejaVuSans-65" x="74.804688"/>
      <use xlink:href="#DejaVuSans-67" x="136.328125"/>
      <use xlink:href="#DejaVuSans-61" x="199.804688"/>
      <use xlink:href="#DejaVuSans-74" x="261.083984"/>
      <use xlink:href="#DejaVuSans-69" x="300.292969"/>
      <use xlink:href="#DejaVuSans-76" x="328.076172"/>
      <use xlink:href="#DejaVuSans-65" x="387.255859"/>
      <use xlink:href="#DejaVuSans-20" x="448.779297"/>
      <use xlink:href="#DejaVuSans-70" x="480.566406"/>
      <use xlink:href="#DejaVuSans-72" x="544.042969"/>
      <use xlink:href="#DejaVuSans-65" x="582.90625"/>
      <use xlink:href="#DejaVuSans-64" x="644.429688"/>
      <use xlink:href="#DejaVuSans-69" x="707.90625"/>
      <use xlink:href="#DejaVuSans-63" x="735.689453"/>
      <use xlink:href="#DejaVuSans-74" x="790.669922"/>
      <use xlink:href="#DejaVuSans-69" x="829.878906"/>
      <use xlink:href="#DejaVuSans-6f" x="857.662109"/>
      <use xlink:href="#DejaVuSans-6e" x="918.84375"/>
      <use xlink:href="#DejaVuSans-73" x="982.222656"/>
      <use xlink:href="#DejaVuSans-20" x="1034.322266"/>
      <use xlink:href="#DejaVuSans-6d" x="1066.109375"/>
      <use xlink:href="#DejaVuSans-61" x="1163.521484"/>
      <use xlink:href="#DejaVuSans-78" x="1224.800781"/>
     </g>
    </g>
    <g id="line2d_25">
     <path d="M 66.6 293.004312 
L 76.6 293.004312 
L 86.6 293.004312 
" style="fill: none; stroke: #f08080; stroke-opacity: 0.8; stroke-width: 0.5; stroke-linecap: square"/>
    </g>
    <g id="text_20">
     <!-- Negative predictions min -->
     <g transform="translate(94.6 296.504312) scale(0.1 -0.1)">
      <use xlink:href="#DejaVuSans-4e"/>
      <use xlink:href="#DejaVuSans-65" x="74.804688"/>
      <use xlink:href="#DejaVuSans-67" x="136.328125"/>
      <use xlink:href="#DejaVuSans-61" x="199.804688"/>
      <use xlink:href="#DejaVuSans-74" x="261.083984"/>
      <use xlink:href="#DejaVuSans-69" x="300.292969"/>
      <use xlink:href="#DejaVuSans-76" x="328.076172"/>
      <use xlink:href="#DejaVuSans-65" x="387.255859"/>
      <use xlink:href="#DejaVuSans-20" x="448.779297"/>
      <use xlink:href="#DejaVuSans-70" x="480.566406"/>
      <use xlink:href="#DejaVuSans-72" x="544.042969"/>
      <use xlink:href="#DejaVuSans-65" x="582.90625"/>
      <use xlink:href="#DejaVuSans-64" x="644.429688"/>
      <use xlink:href="#DejaVuSans-69" x="707.90625"/>
      <use xlink:href="#DejaVuSans-63" x="735.689453"/>
      <use xlink:href="#DejaVuSans-74" x="790.669922"/>
      <use xlink:href="#DejaVuSans-69" x="829.878906"/>
      <use xlink:href="#DejaVuSans-6f" x="857.662109"/>
      <use xlink:href="#DejaVuSans-6e" x="918.84375"/>
      <use xlink:href="#DejaVuSans-73" x="982.222656"/>
      <use xlink:href="#DejaVuSans-20" x="1034.322266"/>
      <use xlink:href="#DejaVuSans-6d" x="1066.109375"/>
      <use xlink:href="#DejaVuSans-69" x="1163.521484"/>
      <use xlink:href="#DejaVuSans-6e" x="1191.304688"/>
     </g>
    </g>
   </g>
  </g>
 </g>
 <defs>
  <clipPath id="pebaa0cbb18">
   <rect x="57.6" y="41.472" width="357.12" height="266.112"/>
  </clipPath>
 </defs>
</svg>
