<?xml version="1.0" encoding="utf-8" standalone="no"?>
<!DOCTYPE svg PUBLIC "-//W3C//DTD SVG 1.1//EN"
  "http://www.w3.org/Graphics/SVG/1.1/DTD/svg11.dtd">
<svg xmlns:xlink="http://www.w3.org/1999/xlink" width="460.8pt" height="345.6pt" viewBox="0 0 460.8 345.6" xmlns="http://www.w3.org/2000/svg" version="1.1">
 <metadata>
  <rdf:RDF xmlns:dc="http://purl.org/dc/elements/1.1/" xmlns:cc="http://creativecommons.org/ns#" xmlns:rdf="http://www.w3.org/1999/02/22-rdf-syntax-ns#">
   <cc:Work>
    <dc:type rdf:resource="http://purl.org/dc/dcmitype/StillImage"/>
    <dc:date>2024-09-08T19:54:14.316399</dc:date>
    <dc:format>image/svg+xml</dc:format>
    <dc:creator>
     <cc:Agent>
      <dc:title>Matplotlib v3.8.3, https://matplotlib.org/</dc:title>
     </cc:Agent>
    </dc:creator>
   </cc:Work>
  </rdf:RDF>
 </metadata>
 <defs>
  <style type="text/css">*{stroke-linejoin: round; stroke-linecap: butt}</style>
 </defs>
 <g id="figure_1">
  <g id="patch_1">
   <path d="M 0 345.6 
L 460.8 345.6 
L 460.8 0 
L 0 0 
z
" style="fill: #ffffff"/>
  </g>
  <g id="axes_1">
   <g id="patch_2">
    <path d="M 57.6 307.584 
L 414.72 307.584 
L 414.72 41.472 
L 57.6 41.472 
z
" style="fill: #ffffff"/>
   </g>
   <g id="matplotlib.axis_1">
    <g id="xtick_1">
     <g id="line2d_1">
      <defs>
       <path id="mc713f64c64" d="M 0 0 
L 0 3.5 
" style="stroke: #000000; stroke-width: 0.8"/>
      </defs>
      <g>
       <use xlink:href="#mc713f64c64" x="73.832727" y="307.584" style="stroke: #000000; stroke-width: 0.8"/>
      </g>
     </g>
     <g id="text_1">
      <!-- 0 -->
      <g transform="translate(70.651477 322.182437) scale(0.1 -0.1)">
       <defs>
        <path id="DejaVuSans-30" d="M 2034 4250 
Q 1547 4250 1301 3770 
Q 1056 3291 1056 2328 
Q 1056 1369 1301 889 
Q 1547 409 2034 409 
Q 2525 409 2770 889 
Q 3016 1369 3016 2328 
Q 3016 3291 2770 3770 
Q 2525 4250 2034 4250 
z
M 2034 4750 
Q 2819 4750 3233 4129 
Q 3647 3509 3647 2328 
Q 3647 1150 3233 529 
Q 2819 -91 2034 -91 
Q 1250 -91 836 529 
Q 422 1150 422 2328 
Q 422 3509 836 4129 
Q 1250 4750 2034 4750 
z
" transform="scale(0.015625)"/>
       </defs>
       <use xlink:href="#DejaVuSans-30"/>
      </g>
     </g>
    </g>
    <g id="xtick_2">
     <g id="line2d_2">
      <g>
       <use xlink:href="#mc713f64c64" x="149.333784" y="307.584" style="stroke: #000000; stroke-width: 0.8"/>
      </g>
     </g>
     <g id="text_2">
      <!-- 50 -->
      <g transform="translate(142.971284 322.182437) scale(0.1 -0.1)">
       <defs>
        <path id="DejaVuSans-35" d="M 691 4666 
L 3169 4666 
L 3169 4134 
L 1269 4134 
L 1269 2991 
Q 1406 3038 1543 3061 
Q 1681 3084 1819 3084 
Q 2600 3084 3056 2656 
Q 3513 2228 3513 1497 
Q 3513 744 3044 326 
Q 2575 -91 1722 -91 
Q 1428 -91 1123 -41 
Q 819 9 494 109 
L 494 744 
Q 775 591 1075 516 
Q 1375 441 1709 441 
Q 2250 441 2565 725 
Q 2881 1009 2881 1497 
Q 2881 1984 2565 2268 
Q 2250 2553 1709 2553 
Q 1456 2553 1204 2497 
Q 953 2441 691 2322 
L 691 4666 
z
" transform="scale(0.015625)"/>
       </defs>
       <use xlink:href="#DejaVuSans-35"/>
       <use xlink:href="#DejaVuSans-30" x="63.623047"/>
      </g>
     </g>
    </g>
    <g id="xtick_3">
     <g id="line2d_3">
      <g>
       <use xlink:href="#mc713f64c64" x="224.834841" y="307.584" style="stroke: #000000; stroke-width: 0.8"/>
      </g>
     </g>
     <g id="text_3">
      <!-- 100 -->
      <g transform="translate(215.291091 322.182437) scale(0.1 -0.1)">
       <defs>
        <path id="DejaVuSans-31" d="M 794 531 
L 1825 531 
L 1825 4091 
L 703 3866 
L 703 4441 
L 1819 4666 
L 2450 4666 
L 2450 531 
L 3481 531 
L 3481 0 
L 794 0 
L 794 531 
z
" transform="scale(0.015625)"/>
       </defs>
       <use xlink:href="#DejaVuSans-31"/>
       <use xlink:href="#DejaVuSans-30" x="63.623047"/>
       <use xlink:href="#DejaVuSans-30" x="127.246094"/>
      </g>
     </g>
    </g>
    <g id="xtick_4">
     <g id="line2d_4">
      <g>
       <use xlink:href="#mc713f64c64" x="300.335899" y="307.584" style="stroke: #000000; stroke-width: 0.8"/>
      </g>
     </g>
     <g id="text_4">
      <!-- 150 -->
      <g transform="translate(290.792149 322.182437) scale(0.1 -0.1)">
       <use xlink:href="#DejaVuSans-31"/>
       <use xlink:href="#DejaVuSans-35" x="63.623047"/>
       <use xlink:href="#DejaVuSans-30" x="127.246094"/>
      </g>
     </g>
    </g>
    <g id="xtick_5">
     <g id="line2d_5">
      <g>
       <use xlink:href="#mc713f64c64" x="375.836956" y="307.584" style="stroke: #000000; stroke-width: 0.8"/>
      </g>
     </g>
     <g id="text_5">
      <!-- 200 -->
      <g transform="translate(366.293206 322.182437) scale(0.1 -0.1)">
       <defs>
        <path id="DejaVuSans-32" d="M 1228 531 
L 3431 531 
L 3431 0 
L 469 0 
L 469 531 
Q 828 903 1448 1529 
Q 2069 2156 2228 2338 
Q 2531 2678 2651 2914 
Q 2772 3150 2772 3378 
Q 2772 3750 2511 3984 
Q 2250 4219 1831 4219 
Q 1534 4219 1204 4116 
Q 875 4013 500 3803 
L 500 4441 
Q 881 4594 1212 4672 
Q 1544 4750 1819 4750 
Q 2544 4750 2975 4387 
Q 3406 4025 3406 3419 
Q 3406 3131 3298 2873 
Q 3191 2616 2906 2266 
Q 2828 2175 2409 1742 
Q 1991 1309 1228 531 
z
" transform="scale(0.015625)"/>
       </defs>
       <use xlink:href="#DejaVuSans-32"/>
       <use xlink:href="#DejaVuSans-30" x="63.623047"/>
       <use xlink:href="#DejaVuSans-30" x="127.246094"/>
      </g>
     </g>
    </g>
   </g>
   <g id="matplotlib.axis_2">
    <g id="ytick_1">
     <g id="line2d_6">
      <defs>
       <path id="m35577d051b" d="M 0 0 
L -3.5 0 
" style="stroke: #000000; stroke-width: 0.8"/>
      </defs>
      <g>
       <use xlink:href="#m35577d051b" x="57.6" y="286.221852" style="stroke: #000000; stroke-width: 0.8"/>
      </g>
     </g>
     <g id="text_6">
      <!-- −7500 -->
      <g transform="translate(16.770313 290.02107) scale(0.1 -0.1)">
       <defs>
        <path id="DejaVuSans-2212" d="M 678 2272 
L 4684 2272 
L 4684 1741 
L 678 1741 
L 678 2272 
z
" transform="scale(0.015625)"/>
        <path id="DejaVuSans-37" d="M 525 4666 
L 3525 4666 
L 3525 4397 
L 1831 0 
L 1172 0 
L 2766 4134 
L 525 4134 
L 525 4666 
z
" transform="scale(0.015625)"/>
       </defs>
       <use xlink:href="#DejaVuSans-2212"/>
       <use xlink:href="#DejaVuSans-37" x="83.789062"/>
       <use xlink:href="#DejaVuSans-35" x="147.412109"/>
       <use xlink:href="#DejaVuSans-30" x="211.035156"/>
       <use xlink:href="#DejaVuSans-30" x="274.658203"/>
      </g>
     </g>
    </g>
    <g id="ytick_2">
     <g id="line2d_7">
      <g>
       <use xlink:href="#m35577d051b" x="57.6" y="252.170461" style="stroke: #000000; stroke-width: 0.8"/>
      </g>
     </g>
     <g id="text_7">
      <!-- −5000 -->
      <g transform="translate(16.770313 255.969679) scale(0.1 -0.1)">
       <use xlink:href="#DejaVuSans-2212"/>
       <use xlink:href="#DejaVuSans-35" x="83.789062"/>
       <use xlink:href="#DejaVuSans-30" x="147.412109"/>
       <use xlink:href="#DejaVuSans-30" x="211.035156"/>
       <use xlink:href="#DejaVuSans-30" x="274.658203"/>
      </g>
     </g>
    </g>
    <g id="ytick_3">
     <g id="line2d_8">
      <g>
       <use xlink:href="#m35577d051b" x="57.6" y="218.11907" style="stroke: #000000; stroke-width: 0.8"/>
      </g>
     </g>
     <g id="text_8">
      <!-- −2500 -->
      <g transform="translate(16.770313 221.918288) scale(0.1 -0.1)">
       <use xlink:href="#DejaVuSans-2212"/>
       <use xlink:href="#DejaVuSans-32" x="83.789062"/>
       <use xlink:href="#DejaVuSans-35" x="147.412109"/>
       <use xlink:href="#DejaVuSans-30" x="211.035156"/>
       <use xlink:href="#DejaVuSans-30" x="274.658203"/>
      </g>
     </g>
    </g>
    <g id="ytick_4">
     <g id="line2d_9">
      <g>
       <use xlink:href="#m35577d051b" x="57.6" y="184.067679" style="stroke: #000000; stroke-width: 0.8"/>
      </g>
     </g>
     <g id="text_9">
      <!-- 0 -->
      <g transform="translate(44.2375 187.866897) scale(0.1 -0.1)">
       <use xlink:href="#DejaVuSans-30"/>
      </g>
     </g>
    </g>
    <g id="ytick_5">
     <g id="line2d_10">
      <g>
       <use xlink:href="#m35577d051b" x="57.6" y="150.016288" style="stroke: #000000; stroke-width: 0.8"/>
      </g>
     </g>
     <g id="text_10">
      <!-- 2500 -->
      <g transform="translate(25.15 153.815507) scale(0.1 -0.1)">
       <use xlink:href="#DejaVuSans-32"/>
       <use xlink:href="#DejaVuSans-35" x="63.623047"/>
       <use xlink:href="#DejaVuSans-30" x="127.246094"/>
       <use xlink:href="#DejaVuSans-30" x="190.869141"/>
      </g>
     </g>
    </g>
    <g id="ytick_6">
     <g id="line2d_11">
      <g>
       <use xlink:href="#m35577d051b" x="57.6" y="115.964897" style="stroke: #000000; stroke-width: 0.8"/>
      </g>
     </g>
     <g id="text_11">
      <!-- 5000 -->
      <g transform="translate(25.15 119.764116) scale(0.1 -0.1)">
       <use xlink:href="#DejaVuSans-35"/>
       <use xlink:href="#DejaVuSans-30" x="63.623047"/>
       <use xlink:href="#DejaVuSans-30" x="127.246094"/>
       <use xlink:href="#DejaVuSans-30" x="190.869141"/>
      </g>
     </g>
    </g>
    <g id="ytick_7">
     <g id="line2d_12">
      <g>
       <use xlink:href="#m35577d051b" x="57.6" y="81.913506" style="stroke: #000000; stroke-width: 0.8"/>
      </g>
     </g>
     <g id="text_12">
      <!-- 7500 -->
      <g transform="translate(25.15 85.712725) scale(0.1 -0.1)">
       <use xlink:href="#DejaVuSans-37"/>
       <use xlink:href="#DejaVuSans-35" x="63.623047"/>
       <use xlink:href="#DejaVuSans-30" x="127.246094"/>
       <use xlink:href="#DejaVuSans-30" x="190.869141"/>
      </g>
     </g>
    </g>
    <g id="ytick_8">
     <g id="line2d_13">
      <g>
       <use xlink:href="#m35577d051b" x="57.6" y="47.862115" style="stroke: #000000; stroke-width: 0.8"/>
      </g>
     </g>
     <g id="text_13">
      <!-- 10000 -->
      <g transform="translate(18.7875 51.661334) scale(0.1 -0.1)">
       <use xlink:href="#DejaVuSans-31"/>
       <use xlink:href="#DejaVuSans-30" x="63.623047"/>
       <use xlink:href="#DejaVuSans-30" x="127.246094"/>
       <use xlink:href="#DejaVuSans-30" x="190.869141"/>
       <use xlink:href="#DejaVuSans-30" x="254.492188"/>
      </g>
     </g>
    </g>
   </g>
   <g id="line2d_14">
    <path d="M 73.832727 190.555607 
L 75.342748 192.009254 
L 76.85277 189.57755 
L 78.362791 186.30711 
L 79.872812 186.796374 
L 81.382833 183.679308 
L 82.892854 186.863311 
L 84.402875 190.780604 
L 85.912896 188.632145 
L 87.422918 189.146412 
L 88.932939 187.916514 
L 90.44296 184.781725 
L 91.952981 185.289257 
L 93.463002 185.251982 
L 94.973023 185.423315 
L 96.483044 187.594315 
L 97.993066 189.114408 
L 99.503087 187.60865 
L 101.013108 185.557269 
L 102.523129 186.715192 
L 104.03315 186.096718 
L 105.543171 186.226201 
L 107.053192 187.22791 
L 108.563214 186.456407 
L 110.073235 186.861872 
L 111.583256 186.498461 
L 113.093277 189.399557 
L 114.603298 188.593695 
L 117.62334 185.968722 
L 119.133362 185.925998 
L 120.643383 186.083461 
L 122.153404 186.548316 
L 123.663425 186.765027 
L 125.173446 185.90634 
L 126.683467 185.888914 
L 128.193488 186.19366 
L 129.70351 186.968195 
L 131.213531 187.032481 
L 132.723552 188.445008 
L 134.233573 188.779951 
L 135.743594 186.62638 
L 137.253615 189.156778 
L 138.763636 184.949154 
L 140.273658 187.582455 
L 141.783679 187.658375 
L 143.2937 189.514995 
L 144.803721 184.632 
L 146.313742 185.817683 
L 147.823763 188.748529 
L 149.333784 189.514319 
L 150.843805 185.715651 
L 152.353827 186.370772 
L 153.863848 185.853871 
L 155.373869 188.022778 
L 156.88389 186.816675 
L 158.393911 185.769138 
L 159.903932 184.94183 
L 161.413953 185.209041 
L 162.923975 184.987068 
L 164.433996 184.58224 
L 165.944017 186.157149 
L 167.454038 184.344974 
L 168.964059 188.684654 
L 170.47408 185.001063 
L 171.984101 184.151775 
L 173.494123 185.482432 
L 175.004144 185.18436 
L 176.514165 185.592816 
L 178.024186 185.347032 
L 179.534207 186.167983 
L 181.044228 185.882219 
L 182.554249 186.71044 
L 184.064271 186.163504 
L 185.574292 185.129893 
L 187.084313 184.865676 
L 188.594334 184.734959 
L 190.104355 187.955157 
L 191.614376 186.385952 
L 193.124397 186.531492 
L 194.634419 186.397763 
L 196.14444 189.15231 
L 197.654461 186.343601 
L 199.164482 186.332404 
L 200.674503 184.995516 
L 202.184524 187.253018 
L 203.694545 186.812792 
L 205.204567 185.117098 
L 206.714588 185.726277 
L 208.224609 185.632546 
L 209.73463 187.735639 
L 211.244651 187.544717 
L 212.754672 188.350606 
L 214.264693 189.543135 
L 215.774715 183.827037 
L 217.284736 186.08968 
L 218.794757 185.104779 
L 220.304778 184.881644 
L 221.814799 187.118349 
L 223.32482 188.956796 
L 224.834841 191.21162 
L 226.344863 189.905616 
L 227.854884 190.465094 
L 229.364905 183.625896 
L 230.874926 184.146388 
L 232.384947 192.60175 
L 233.894968 196.12128 
L 235.404989 195.627459 
L 236.915011 180.819656 
L 238.425032 199.850533 
L 239.935053 195.059448 
L 241.445074 188.030895 
L 242.955095 189.730263 
L 244.465116 193.261007 
L 245.975137 171.937127 
L 247.485159 196.490175 
L 248.99518 196.683986 
L 250.505201 162.960815 
L 252.015222 195.171884 
L 253.525243 194.929014 
L 255.035264 197.030294 
L 256.545285 210.95953 
L 258.055307 207.742212 
L 259.565328 194.162985 
L 261.075349 194.318914 
L 262.58537 189.266082 
L 264.095391 194.712201 
L 265.605412 201.221372 
L 267.115433 201.447564 
L 268.625455 206.82354 
L 270.135476 195.495542 
L 271.645497 196.620173 
L 273.155518 195.674055 
L 274.665539 205.779441 
L 276.17556 205.066423 
L 277.685581 204.546892 
L 279.195603 195.59896 
L 280.705624 192.643974 
L 282.215645 184.068081 
L 283.725666 184.268649 
L 285.235687 183.964497 
L 286.745708 188.530545 
L 288.255729 190.965302 
L 289.765751 188.752017 
L 291.275772 192.730892 
L 292.785793 190.457629 
L 294.295814 204.777897 
L 295.805835 185.397942 
L 297.315856 201.67754 
L 298.825877 194.019133 
L 300.335899 194.556312 
L 301.84592 194.727083 
L 303.355941 189.350052 
L 304.865962 183.209014 
L 306.375983 188.308161 
L 307.886004 177.478394 
L 309.396025 198.014167 
L 310.906047 183.928063 
L 312.416068 194.925284 
L 313.926089 176.934429 
L 315.43611 192.047232 
L 316.946131 192.865274 
L 318.456152 192.178875 
L 319.966173 195.462705 
L 321.476195 194.466506 
L 322.986216 195.331004 
L 324.496237 186.671223 
L 326.006258 186.095372 
L 327.516279 193.298828 
L 329.0263 190.871451 
L 330.536321 189.05697 
L 332.046342 188.655199 
L 333.556364 195.662223 
L 335.066385 193.974328 
L 336.576406 189.337936 
L 338.086427 185.582099 
L 339.596448 188.259608 
L 341.106469 187.399026 
L 345.636533 196.529083 
L 347.146554 193.406876 
L 348.656575 193.78694 
L 350.166596 193.176673 
L 351.676617 196.490624 
L 353.186638 187.687772 
L 354.69666 192.553713 
L 356.206681 192.673154 
L 357.716702 193.109767 
L 359.226723 196.402728 
L 360.736744 189.35786 
L 362.246765 191.859021 
L 363.756786 188.674866 
L 365.266808 186.351936 
L 366.776829 192.845161 
L 368.28685 187.386329 
L 369.796871 191.17486 
L 371.306892 189.834214 
L 372.816913 196.273506 
L 374.326934 191.929666 
L 375.836956 186.719196 
L 377.346977 188.872516 
L 378.856998 184.090121 
L 380.367019 186.004273 
L 381.87704 185.086888 
L 383.387061 188.463568 
L 384.897082 189.871088 
L 386.407104 188.149613 
L 387.917125 195.336797 
L 389.427146 195.813399 
L 390.937167 195.198896 
L 392.447188 189.973631 
L 393.957209 192.769277 
L 395.46723 196.858776 
L 396.977252 188.25671 
L 398.487273 191.359774 
L 398.487273 191.359774 
" clip-path="url(#pc533d3fd28)" style="fill: none; stroke: #008000; stroke-opacity: 0.8; stroke-width: 0.5; stroke-linecap: square"/>
   </g>
   <g id="line2d_15">
    <path d="M 73.832727 173.211557 
L 75.342748 178.955374 
L 76.85277 176.578647 
L 78.362791 172.97605 
L 79.872812 173.641588 
L 81.382833 173.14404 
L 82.892854 175.916697 
L 84.402875 183.667758 
L 85.912896 176.491929 
L 87.422918 182.577288 
L 88.932939 181.501315 
L 90.44296 178.289855 
L 91.952981 182.204865 
L 93.463002 175.891978 
L 94.973023 178.512167 
L 96.483044 186.245778 
L 97.993066 182.229724 
L 101.013108 181.79583 
L 102.523129 180.516119 
L 104.03315 182.133673 
L 105.543171 177.806929 
L 107.053192 181.896779 
L 108.563214 181.884719 
L 110.073235 183.307787 
L 111.583256 183.400746 
L 113.093277 186.21707 
L 114.603298 184.499933 
L 116.113319 178.334754 
L 117.62334 178.518531 
L 119.133362 181.484419 
L 120.643383 182.1042 
L 122.153404 181.604705 
L 123.663425 181.802959 
L 125.173446 182.532905 
L 126.683467 183.64427 
L 128.193488 184.900696 
L 129.70351 182.919121 
L 131.213531 184.709915 
L 132.723552 184.080942 
L 134.233573 183.843855 
L 135.743594 183.416788 
L 137.253615 183.559116 
L 138.763636 181.494671 
L 140.273658 183.945845 
L 141.783679 183.005751 
L 143.2937 181.768102 
L 144.803721 176.307706 
L 146.313742 178.041268 
L 147.823763 181.73744 
L 149.333784 183.320779 
L 150.843805 160.147002 
L 152.353827 174.62974 
L 153.863848 170.504866 
L 155.373869 178.544627 
L 156.88389 177.835574 
L 158.393911 175.847696 
L 159.903932 178.388519 
L 161.413953 181.871661 
L 162.923975 183.453493 
L 164.433996 171.280947 
L 165.944017 182.897133 
L 167.454038 182.000662 
L 168.964059 178.066673 
L 170.47408 179.232275 
L 171.984101 179.899393 
L 173.494123 181.228583 
L 175.004144 183.252659 
L 176.514165 183.206081 
L 178.024186 181.560557 
L 179.534207 181.888261 
L 181.044228 180.238926 
L 182.554249 181.443002 
L 184.064271 182.173074 
L 185.574292 177.136861 
L 187.084313 180.462605 
L 188.594334 173.680007 
L 190.104355 146.413355 
L 191.614376 179.352422 
L 193.124397 181.78391 
L 194.634419 179.96969 
L 196.14444 181.886471 
L 197.654461 180.229598 
L 199.164482 175.078471 
L 200.674503 177.973905 
L 203.694545 182.163464 
L 205.204567 181.671693 
L 206.714588 183.580861 
L 208.224609 184.082985 
L 209.73463 184.217561 
L 211.244651 175.9365 
L 212.754672 177.854011 
L 214.264693 182.584404 
L 215.774715 169.227221 
L 217.284736 183.525007 
L 218.794757 179.014245 
L 220.304778 182.148032 
L 221.814799 184.065106 
L 223.32482 185.339105 
L 224.834841 182.175636 
L 226.344863 183.000141 
L 227.854884 180.962668 
L 229.364905 164.651124 
L 230.874926 165.728218 
L 232.384947 175.712751 
L 233.894968 175.464437 
L 235.404989 147.808319 
L 236.915011 122.634438 
L 238.425032 152.935311 
L 239.935053 166.397619 
L 241.445074 112.850488 
L 242.955095 150.594412 
L 244.465116 111.189322 
L 245.975137 129.115065 
L 247.485159 165.834269 
L 248.99518 160.798661 
L 250.505201 111.580581 
L 252.015222 139.194676 
L 253.525243 92.389874 
L 255.035264 131.761667 
L 256.545285 185.816688 
L 258.055307 149.64517 
L 259.565328 152.028539 
L 261.075349 168.840367 
L 262.58537 172.06584 
L 264.095391 168.734151 
L 265.605412 176.70276 
L 267.115433 179.082449 
L 268.625455 175.572898 
L 270.135476 148.734998 
L 271.645497 105.806037 
L 273.155518 143.643644 
L 274.665539 165.205775 
L 276.17556 164.572814 
L 277.685581 123.017224 
L 279.195603 166.11112 
L 280.705624 139.435386 
L 282.215645 140.924095 
L 283.725666 123.17077 
L 285.235687 137.090765 
L 286.745708 144.291536 
L 288.255729 152.946899 
L 289.765751 164.083244 
L 291.275772 171.052687 
L 292.785793 131.818381 
L 294.295814 165.268819 
L 295.805835 150.894149 
L 297.315856 171.962665 
L 298.825877 157.413846 
L 300.335899 175.145381 
L 301.84592 183.400842 
L 303.355941 156.548961 
L 304.865962 141.458517 
L 306.375983 158.645708 
L 307.886004 132.822889 
L 309.396025 174.386379 
L 310.906047 165.562096 
L 312.416068 160.971519 
L 313.926089 134.341728 
L 315.43611 173.615411 
L 316.946131 179.534454 
L 318.456152 175.949326 
L 319.966173 175.419008 
L 321.476195 185.514509 
L 322.986216 184.903318 
L 324.496237 159.828409 
L 326.006258 176.543701 
L 327.516279 164.492852 
L 329.0263 177.279547 
L 330.536321 174.959437 
L 332.046342 182.329696 
L 333.556364 185.911834 
L 335.066385 179.259235 
L 336.576406 162.117335 
L 338.086427 179.912098 
L 339.596448 180.362125 
L 341.106469 179.809535 
L 342.61649 182.301774 
L 344.126512 184.514985 
L 345.636533 186.346242 
L 347.146554 182.718796 
L 348.656575 177.831241 
L 350.166596 175.626026 
L 351.676617 181.979914 
L 353.186638 166.283236 
L 354.69666 168.729187 
L 356.206681 176.204398 
L 357.716702 166.588759 
L 359.226723 184.223475 
L 360.736744 172.261024 
L 362.246765 171.867418 
L 363.756786 172.905726 
L 365.266808 172.440995 
L 366.776829 185.842602 
L 368.28685 176.84161 
L 369.796871 170.969604 
L 371.306892 180.21621 
L 372.816913 186.967891 
L 374.326934 180.598175 
L 375.836956 177.308717 
L 377.346977 181.780458 
L 378.856998 158.904467 
L 381.87704 174.970271 
L 384.897082 182.863791 
L 386.407104 184.124502 
L 387.917125 184.511743 
L 389.427146 179.950347 
L 390.937167 177.379267 
L 392.447188 170.746859 
L 393.957209 166.26252 
L 395.46723 182.312632 
L 396.977252 154.988417 
L 398.487273 173.791565 
L 398.487273 173.791565 
" clip-path="url(#pc533d3fd28)" style="fill: none; stroke: #32cd32; stroke-opacity: 0.8; stroke-width: 0.5; stroke-linecap: square"/>
   </g>
   <g id="line2d_16">
    <path d="M 73.832727 205.145782 
L 75.342748 203.702717 
L 76.85277 201.887692 
L 78.362791 203.906739 
L 81.382833 189.05353 
L 84.402875 199.999959 
L 85.912896 201.024658 
L 87.422918 197.840576 
L 88.932939 193.651268 
L 90.44296 191.236753 
L 91.952981 187.929604 
L 93.463002 191.021357 
L 94.973023 191.944554 
L 96.483044 189.384984 
L 97.993066 193.741782 
L 99.503087 192.796 
L 101.013108 189.71694 
L 102.523129 192.768122 
L 104.03315 189.409207 
L 105.543171 190.881072 
L 107.053192 189.664818 
L 108.563214 190.275033 
L 110.073235 190.144136 
L 111.583256 191.6727 
L 113.093277 194.336512 
L 114.603298 193.174657 
L 116.113319 194.73734 
L 117.62334 190.889997 
L 119.133362 191.68645 
L 120.643383 188.070617 
L 122.153404 190.816173 
L 123.663425 190.723236 
L 125.173446 188.709471 
L 126.683467 187.730546 
L 128.193488 186.939692 
L 129.70351 188.727935 
L 131.213531 189.437393 
L 132.723552 193.893502 
L 134.233573 193.816978 
L 135.743594 188.996142 
L 137.253615 193.868055 
L 138.763636 187.475206 
L 140.273658 191.673589 
L 141.783679 192.279121 
L 143.2937 197.052618 
L 144.803721 197.953169 
L 146.313742 192.472992 
L 147.823763 194.01413 
L 149.333784 199.048133 
L 150.843805 202.778848 
L 152.353827 197.941306 
L 153.863848 204.069326 
L 155.373869 193.118715 
L 156.88389 199.19196 
L 158.393911 194.013547 
L 161.413953 189.070461 
L 162.923975 186.788571 
L 164.433996 189.919924 
L 165.944017 190.545301 
L 167.454038 188.258467 
L 168.964059 201.752027 
L 170.47408 190.989266 
L 171.984101 187.134281 
L 173.494123 190.558536 
L 175.004144 186.720326 
L 176.514165 194.728639 
L 178.024186 188.701734 
L 179.534207 190.97784 
L 181.044228 196.465716 
L 182.554249 189.757013 
L 184.064271 192.272136 
L 185.574292 192.978131 
L 187.084313 190.448268 
L 188.594334 190.329683 
L 190.104355 209.744772 
L 191.614376 193.609402 
L 193.124397 191.875814 
L 194.634419 192.165124 
L 196.14444 202.849526 
L 197.654461 193.154465 
L 199.164482 192.976997 
L 200.674503 190.416749 
L 202.184524 193.00007 
L 203.694545 190.597878 
L 205.204567 187.77807 
L 206.714588 188.825988 
L 208.224609 187.813285 
L 209.73463 199.016874 
L 211.244651 194.145177 
L 212.754672 192.236435 
L 214.264693 195.700009 
L 215.774715 192.157418 
L 217.284736 190.321799 
L 218.794757 193.742941 
L 220.304778 189.334594 
L 221.814799 188.918577 
L 223.32482 198.610463 
L 224.834841 201.819339 
L 226.344863 203.383257 
L 227.854884 200.550747 
L 229.364905 203.602837 
L 230.874926 192.954568 
L 232.384947 213.282645 
L 233.894968 224.247996 
L 235.404989 232.635485 
L 236.915011 230.559577 
L 238.425032 240.828075 
L 239.935053 295.488 
L 241.445074 243.583623 
L 242.955095 236.307855 
L 244.465116 237.921497 
L 245.975137 190.53594 
L 247.485159 250.583293 
L 248.99518 227.752304 
L 250.505201 197.989625 
L 252.015222 270.105781 
L 253.525243 269.650881 
L 255.035264 273.147802 
L 256.545285 252.241756 
L 258.055307 276.387484 
L 259.565328 231.796545 
L 261.075349 226.21516 
L 262.58537 212.120181 
L 264.095391 233.092517 
L 265.605412 224.855661 
L 267.115433 230.841491 
L 268.625455 248.217009 
L 270.135476 234.15671 
L 271.645497 224.844625 
L 273.155518 230.026172 
L 274.665539 251.623776 
L 276.17556 247.19521 
L 277.685581 280.671911 
L 279.195603 222.30912 
L 280.705624 246.818795 
L 282.215645 210.59052 
L 283.725666 220.068264 
L 285.235687 222.345368 
L 286.745708 228.916118 
L 288.255729 216.68687 
L 289.765751 203.490433 
L 291.275772 206.089922 
L 292.785793 225.481395 
L 294.295814 261.21725 
L 295.805835 220.295012 
L 297.315856 267.673027 
L 298.825877 234.264164 
L 300.335899 226.302754 
L 301.84592 227.201677 
L 303.355941 209.824964 
L 304.865962 205.649093 
L 306.375983 211.800515 
L 307.886004 215.225819 
L 309.396025 216.652897 
L 310.906047 196.89803 
L 312.416068 234.249862 
L 313.926089 203.866083 
L 315.43611 218.662429 
L 316.946131 206.774128 
L 318.456152 216.156427 
L 319.966173 213.274922 
L 321.476195 203.480397 
L 322.986216 203.950262 
L 324.496237 199.75993 
L 326.006258 199.518724 
L 327.516279 212.011075 
L 329.0263 211.811207 
L 330.536321 208.568989 
L 332.046342 193.69324 
L 333.556364 205.041161 
L 335.066385 205.423168 
L 336.576406 228.691046 
L 338.086427 193.300645 
L 339.596448 196.252059 
L 341.106469 203.017792 
L 342.61649 199.749045 
L 344.126512 202.934517 
L 345.636533 208.019166 
L 347.146554 213.695529 
L 348.656575 211.801965 
L 350.166596 202.185864 
L 351.676617 217.683345 
L 353.186638 208.123122 
L 354.69666 212.56911 
L 356.206681 224.037757 
L 357.716702 208.304398 
L 359.226723 213.234834 
L 360.736744 214.212932 
L 362.246765 210.805675 
L 363.756786 199.963698 
L 365.266808 195.26623 
L 366.776829 207.497097 
L 368.28685 215.131415 
L 369.796871 207.525783 
L 371.306892 197.057099 
L 372.816913 211.615206 
L 374.326934 207.69284 
L 375.836956 195.495804 
L 377.346977 196.077963 
L 378.856998 194.046392 
L 380.367019 206.466608 
L 381.87704 192.951155 
L 383.387061 199.644615 
L 384.897082 204.08231 
L 386.407104 197.136991 
L 387.917125 209.493702 
L 389.427146 227.517704 
L 390.937167 209.87803 
L 392.447188 223.19067 
L 393.957209 214.228326 
L 395.46723 225.14578 
L 396.977252 215.692035 
L 398.487273 210.931885 
L 398.487273 210.931885 
" clip-path="url(#pc533d3fd28)" style="fill: none; stroke: #32cd32; stroke-opacity: 0.8; stroke-width: 0.5; stroke-linecap: square"/>
   </g>
   <g id="line2d_17">
    <path d="M 73.832727 185.327508 
L 75.342748 184.7536 
L 76.85277 181.279089 
L 78.362791 178.174713 
L 79.872812 182.045253 
L 81.382833 180.611323 
L 82.892854 184.644905 
L 84.402875 184.073029 
L 85.912896 182.731861 
L 87.422918 183.182281 
L 88.932939 181.041598 
L 90.44296 181.764721 
L 91.952981 183.199868 
L 93.463002 183.442709 
L 94.973023 183.999443 
L 96.483044 185.528026 
L 97.993066 183.908186 
L 99.503087 183.381009 
L 101.013108 180.736062 
L 102.523129 184.315104 
L 104.03315 184.583958 
L 105.543171 182.27407 
L 107.053192 182.976003 
L 108.563214 184.225688 
L 110.073235 183.467251 
L 111.583256 183.353946 
L 113.093277 183.448221 
L 114.603298 183.738235 
L 116.113319 182.819213 
L 117.62334 181.661947 
L 119.133362 183.844844 
L 120.643383 183.404546 
L 122.153404 184.174879 
L 123.663425 183.288396 
L 126.683467 183.079655 
L 129.70351 183.528792 
L 132.723552 183.188232 
L 134.233573 183.733932 
L 135.743594 183.788789 
L 137.253615 184.813517 
L 138.763636 182.553949 
L 140.273658 182.412136 
L 141.783679 183.312659 
L 143.2937 183.931816 
L 144.803721 182.673624 
L 146.313742 181.691922 
L 147.823763 183.635762 
L 149.333784 184.13612 
L 150.843805 182.343474 
L 152.353827 181.055973 
L 153.863848 180.66218 
L 155.373869 184.613258 
L 156.88389 181.401727 
L 158.393911 182.406782 
L 159.903932 182.952603 
L 161.413953 181.8043 
L 162.923975 182.650179 
L 164.433996 179.972586 
L 165.944017 181.767622 
L 167.454038 182.221961 
L 168.964059 182.257475 
L 170.47408 180.312764 
L 171.984101 180.792216 
L 173.494123 182.772407 
L 176.514165 183.763516 
L 178.024186 182.689989 
L 179.534207 183.181582 
L 181.044228 182.583407 
L 182.554249 183.159578 
L 184.064271 183.367846 
L 185.574292 181.935961 
L 187.084313 182.131094 
L 188.594334 181.779951 
L 190.104355 180.072365 
L 193.124397 183.07411 
L 194.634419 182.753292 
L 196.14444 183.785464 
L 197.654461 181.589234 
L 199.164482 182.613625 
L 200.674503 182.126688 
L 205.204567 181.949046 
L 206.714588 182.131248 
L 208.224609 180.249717 
L 209.73463 183.8986 
L 211.244651 181.905504 
L 212.754672 183.861436 
L 214.264693 181.447375 
L 215.774715 181.235457 
L 217.284736 183.305946 
L 218.794757 181.456962 
L 220.304778 181.837248 
L 221.814799 183.80197 
L 223.32482 184.304215 
L 224.834841 185.745975 
L 226.344863 181.595832 
L 227.854884 184.750218 
L 229.364905 181.808613 
L 230.874926 182.176443 
L 232.384947 183.897458 
L 233.894968 184.697427 
L 235.404989 182.65782 
L 236.915011 168.741155 
L 238.425032 180.858684 
L 239.935053 172.622326 
L 241.445074 168.653605 
L 242.955095 171.302056 
L 244.465116 182.542512 
L 245.975137 167.076923 
L 247.485159 184.594673 
L 248.99518 182.776558 
L 250.505201 164.552492 
L 252.015222 172.948655 
L 255.035264 163.163973 
L 256.545285 176.888672 
L 258.055307 178.763983 
L 259.565328 168.435498 
L 261.075349 178.863219 
L 262.58537 179.656923 
L 264.095391 181.373312 
L 265.605412 181.233109 
L 267.115433 183.830503 
L 268.625455 183.464781 
L 270.135476 173.524215 
L 271.645497 172.069466 
L 273.155518 165.767381 
L 274.665539 186.752691 
L 276.17556 183.979327 
L 277.685581 176.938321 
L 279.195603 174.516113 
L 280.705624 171.669479 
L 282.215645 165.474758 
L 283.725666 172.408518 
L 285.235687 161.758252 
L 286.745708 176.155767 
L 288.255729 177.10666 
L 289.765751 175.796556 
L 291.275772 178.333018 
L 292.785793 172.608166 
L 294.295814 184.310335 
L 295.805835 166.539494 
L 297.315856 187.991513 
L 298.825877 170.043452 
L 300.335899 181.229085 
L 301.84592 179.425454 
L 303.355941 172.801433 
L 304.865962 176.140888 
L 306.375983 176.228952 
L 307.886004 162.28543 
L 309.396025 174.563641 
L 310.906047 178.121581 
L 312.416068 176.266514 
L 313.926089 165.119912 
L 315.43611 176.829415 
L 316.946131 182.568703 
L 318.456152 181.726196 
L 319.966173 183.315033 
L 321.476195 178.157866 
L 322.986216 179.54377 
L 324.496237 176.393776 
L 326.006258 178.143347 
L 327.516279 179.696764 
L 329.0263 180.712429 
L 330.536321 181.154756 
L 332.046342 182.21618 
L 333.556364 183.51232 
L 335.066385 182.67317 
L 336.576406 174.996358 
L 338.086427 182.415132 
L 339.596448 182.371311 
L 341.106469 183.60512 
L 342.61649 181.929495 
L 344.126512 183.386262 
L 345.636533 187.04601 
L 347.146554 180.812743 
L 348.656575 181.815494 
L 350.166596 180.09464 
L 351.676617 183.31292 
L 353.186638 180.789973 
L 354.69666 183.755983 
L 356.206681 182.798777 
L 357.716702 181.046244 
L 359.226723 183.394608 
L 360.736744 174.208008 
L 362.246765 183.116651 
L 363.756786 178.174048 
L 365.266808 178.667298 
L 366.776829 179.738857 
L 368.28685 177.577804 
L 369.796871 185.233805 
L 371.306892 180.531424 
L 372.816913 180.585034 
L 374.326934 180.21596 
L 375.836956 178.740917 
L 377.346977 181.500154 
L 378.856998 177.252542 
L 380.367019 181.864572 
L 381.87704 182.721822 
L 383.387061 181.491425 
L 384.897082 183.501701 
L 386.407104 180.019055 
L 387.917125 185.267078 
L 389.427146 180.06809 
L 390.937167 179.680293 
L 392.447188 174.95868 
L 393.957209 177.635627 
L 395.46723 184.025012 
L 396.977252 183.610738 
L 398.487273 176.15117 
L 398.487273 176.15117 
" clip-path="url(#pc533d3fd28)" style="fill: none; stroke: #ff0000; stroke-opacity: 0.8; stroke-width: 0.5; stroke-linecap: square"/>
   </g>
   <g id="line2d_18">
    <path d="M 73.832727 170.685011 
L 75.342748 167.706568 
L 76.85277 171.729337 
L 78.362791 168.069409 
L 79.872812 175.954256 
L 81.382833 173.324059 
L 82.892854 173.608561 
L 84.402875 175.625923 
L 85.912896 167.640781 
L 87.422918 179.371107 
L 88.932939 173.501626 
L 90.44296 174.910197 
L 91.952981 178.16757 
L 93.463002 174.185488 
L 94.973023 175.302279 
L 96.483044 181.929621 
L 97.993066 178.708728 
L 99.503087 177.794332 
L 101.013108 176.230488 
L 102.523129 180.404683 
L 104.03315 181.863162 
L 105.543171 174.684013 
L 107.053192 179.622341 
L 108.563214 181.766149 
L 110.073235 182.002328 
L 111.583256 179.458376 
L 113.093277 181.857351 
L 114.603298 181.142169 
L 116.113319 175.397922 
L 117.62334 174.940359 
L 119.133362 179.383104 
L 120.643383 180.853069 
L 122.153404 179.715601 
L 123.663425 180.105727 
L 125.173446 179.520946 
L 126.683467 181.625049 
L 128.193488 181.595843 
L 129.70351 182.316579 
L 131.213531 178.364304 
L 132.723552 181.967366 
L 134.233573 182.100939 
L 135.743594 183.196674 
L 137.253615 181.956973 
L 138.763636 180.330594 
L 140.273658 178.431793 
L 141.783679 181.648906 
L 143.2937 176.740114 
L 144.803721 172.669815 
L 146.313742 176.122191 
L 147.823763 178.875455 
L 149.333784 178.081015 
L 150.843805 151.403995 
L 152.353827 168.20073 
L 153.863848 163.263411 
L 155.373869 179.944033 
L 156.88389 174.464085 
L 158.393911 171.170691 
L 159.903932 177.181724 
L 161.413953 177.987253 
L 162.923975 179.586078 
L 164.433996 167.69584 
L 165.944017 177.314233 
L 167.454038 178.615573 
L 168.964059 175.387455 
L 170.47408 173.555557 
L 171.984101 176.257306 
L 175.004144 180.866149 
L 176.514165 178.027884 
L 178.024186 179.872808 
L 179.534207 178.246028 
L 182.554249 178.257967 
L 184.064271 178.985693 
L 185.574292 176.261118 
L 187.084313 176.12502 
L 188.594334 172.549197 
L 190.104355 142.004649 
L 191.614376 175.906287 
L 193.124397 181.459696 
L 194.634419 175.56846 
L 196.14444 177.710083 
L 197.654461 176.057189 
L 199.164482 170.207124 
L 200.674503 175.044762 
L 202.184524 172.571276 
L 203.694545 175.628008 
L 205.204567 179.024162 
L 206.714588 179.151724 
L 208.224609 177.795033 
L 209.73463 178.053591 
L 211.244651 169.805325 
L 212.754672 176.143463 
L 214.264693 176.934648 
L 215.774715 166.242086 
L 217.284736 177.483613 
L 218.794757 176.785027 
L 220.304778 179.608468 
L 221.814799 179.995478 
L 223.32482 179.770633 
L 224.834841 176.243159 
L 226.344863 170.452605 
L 227.854884 174.18771 
L 229.364905 162.869172 
L 230.874926 171.020367 
L 232.384947 166.54919 
L 233.894968 159.227781 
L 235.404989 127.92343 
L 236.915011 113.778771 
L 238.425032 138.226511 
L 239.935053 136.820669 
L 241.445074 105.204423 
L 242.955095 138.053624 
L 244.465116 122.60661 
L 245.975137 141.720007 
L 247.485159 159.275416 
L 248.99518 151.834589 
L 250.505201 113.245432 
L 252.015222 115.355031 
L 253.525243 53.568 
L 255.035264 83.622456 
L 256.545285 139.568462 
L 258.055307 143.559082 
L 259.565328 141.426319 
L 261.075349 126.984504 
L 262.58537 154.856464 
L 264.095391 160.204998 
L 265.605412 149.078693 
L 267.115433 157.020433 
L 268.625455 147.057448 
L 270.135476 146.950146 
L 271.645497 93.184073 
L 273.155518 113.798616 
L 274.665539 150.37277 
L 276.17556 145.205491 
L 277.685581 111.727382 
L 279.195603 135.24522 
L 280.705624 131.479668 
L 282.215645 121.992037 
L 283.725666 131.000264 
L 285.235687 109.70407 
L 286.745708 133.671359 
L 288.255729 142.120502 
L 289.765751 148.468993 
L 291.275772 160.344426 
L 292.785793 113.573126 
L 294.295814 155.451302 
L 295.805835 116.470305 
L 297.315856 157.374839 
L 298.825877 124.222634 
L 300.335899 150.460185 
L 301.84592 169.930862 
L 303.355941 152.547086 
L 304.865962 137.209028 
L 306.375983 145.397621 
L 307.886004 122.452397 
L 310.906047 164.160853 
L 312.416068 138.958852 
L 313.926089 120.152751 
L 315.43611 164.049038 
L 316.946131 174.071538 
L 318.456152 171.074227 
L 319.966173 163.744324 
L 321.476195 171.133657 
L 322.986216 168.47054 
L 324.496237 152.956801 
L 326.006258 163.715665 
L 327.516279 155.388178 
L 329.0263 171.538676 
L 330.536321 176.752886 
L 332.046342 175.365855 
L 333.556364 176.155428 
L 335.066385 173.634152 
L 336.576406 143.171944 
L 338.086427 174.000282 
L 339.596448 177.423465 
L 341.106469 176.583762 
L 342.61649 172.444359 
L 344.126512 178.678614 
L 345.636533 182.163653 
L 347.146554 172.410518 
L 348.656575 163.603551 
L 350.166596 167.061879 
L 351.676617 170.006094 
L 353.186638 166.348967 
L 354.69666 166.641556 
L 356.206681 165.162511 
L 357.716702 167.073048 
L 359.226723 175.543015 
L 360.736744 157.378859 
L 362.246765 163.256772 
L 363.756786 171.049827 
L 365.266808 165.974206 
L 366.776829 168.932523 
L 368.28685 163.794444 
L 369.796871 169.932448 
L 371.306892 169.8125 
L 372.816913 167.393282 
L 374.326934 160.149221 
L 375.836956 167.826841 
L 377.346977 176.659916 
L 378.856998 152.336985 
L 381.87704 168.753739 
L 383.387061 169.706771 
L 384.897082 178.7242 
L 386.407104 172.628974 
L 387.917125 177.316842 
L 389.427146 163.534365 
L 390.937167 165.299623 
L 392.447188 142.468624 
L 393.957209 151.635245 
L 395.46723 164.447839 
L 396.977252 138.889113 
L 398.487273 156.692333 
L 398.487273 156.692333 
" clip-path="url(#pc533d3fd28)" style="fill: none; stroke: #f08080; stroke-opacity: 0.8; stroke-width: 0.5; stroke-linecap: square"/>
   </g>
   <g id="line2d_19">
    <path d="M 73.832727 201.443722 
L 75.342748 193.54398 
L 76.85277 189.11981 
L 78.362791 189.040098 
L 79.872812 186.037813 
L 81.382833 187.72483 
L 82.892854 190.686043 
L 84.402875 196.534851 
L 85.912896 191.024651 
L 87.422918 189.687527 
L 88.932939 186.031648 
L 90.44296 186.787943 
L 91.952981 185.868292 
L 93.463002 189.485667 
L 94.973023 191.073383 
L 96.483044 189.820152 
L 97.993066 190.242762 
L 99.503087 192.370868 
L 101.013108 183.70899 
L 102.523129 187.434747 
L 104.03315 187.642259 
L 105.543171 185.380972 
L 107.053192 185.317742 
L 108.563214 186.653293 
L 110.073235 184.9084 
L 111.583256 187.248856 
L 113.093277 184.210149 
L 114.603298 184.884502 
L 116.113319 184.805644 
L 117.62334 185.676445 
L 119.133362 193.299185 
L 120.643383 187.730365 
L 122.153404 188.68654 
L 123.663425 185.737183 
L 125.173446 187.289908 
L 126.683467 184.71265 
L 128.193488 184.850392 
L 129.70351 186.897624 
L 131.213531 185.948575 
L 132.723552 185.912492 
L 134.233573 184.672532 
L 135.743594 184.324775 
L 137.253615 193.436019 
L 138.763636 185.319909 
L 140.273658 186.263342 
L 141.783679 185.161467 
L 143.2937 193.446596 
L 144.803721 197.408905 
L 146.313742 190.534487 
L 147.823763 187.227087 
L 149.333784 189.210975 
L 150.843805 198.220123 
L 152.353827 194.781575 
L 153.863848 197.644953 
L 155.373869 190.196239 
L 156.88389 191.66033 
L 158.393911 192.247679 
L 159.903932 189.541943 
L 161.413953 185.816135 
L 162.923975 185.203422 
L 164.433996 185.308137 
L 165.944017 186.014452 
L 167.454038 186.065165 
L 168.964059 196.886137 
L 170.47408 185.627035 
L 171.984101 185.716661 
L 173.494123 187.510333 
L 175.004144 186.951293 
L 176.514165 192.002919 
L 178.024186 186.209662 
L 179.534207 187.954384 
L 181.044228 190.808946 
L 182.554249 187.127347 
L 184.064271 189.639835 
L 185.574292 189.399781 
L 187.084313 185.760228 
L 188.594334 187.025177 
L 190.104355 195.882951 
L 193.124397 186.619248 
L 194.634419 188.921916 
L 196.14444 194.969133 
L 197.654461 189.694324 
L 199.164482 190.046965 
L 200.674503 186.810549 
L 202.184524 189.379465 
L 203.694545 186.205082 
L 205.204567 186.796745 
L 208.224609 184.589431 
L 209.73463 195.673045 
L 211.244651 189.88506 
L 212.754672 186.917175 
L 214.264693 186.433232 
L 215.774715 187.062079 
L 217.284736 189.657481 
L 218.794757 189.578394 
L 220.304778 184.860677 
L 221.814799 188.552061 
L 223.32482 194.569648 
L 224.834841 202.301818 
L 226.344863 190.739313 
L 227.854884 195.436201 
L 229.364905 197.464753 
L 230.874926 188.6225 
L 232.384947 205.687279 
L 233.894968 211.351622 
L 235.404989 225.383278 
L 236.915011 201.09095 
L 238.425032 210.198246 
L 239.935053 270.007604 
L 241.445074 245.418357 
L 242.955095 248.697414 
L 244.465116 241.64741 
L 245.975137 197.305237 
L 247.485159 229.203507 
L 248.99518 235.692567 
L 250.505201 201.080772 
L 252.015222 238.061681 
L 253.525243 220.461841 
L 255.035264 234.238509 
L 256.545285 221.222508 
L 258.055307 224.35988 
L 259.565328 216.082743 
L 261.075349 233.053957 
L 262.58537 203.87234 
L 264.095391 211.688338 
L 265.605412 206.240175 
L 267.115433 216.049756 
L 268.625455 219.775297 
L 270.135476 205.251842 
L 271.645497 212.701238 
L 273.155518 195.562293 
L 274.665539 229.517087 
L 276.17556 224.65734 
L 277.685581 225.948841 
L 279.195603 211.135655 
L 280.705624 224.229751 
L 282.215645 203.395546 
L 283.725666 240.542815 
L 285.235687 204.944859 
L 286.745708 200.833653 
L 288.255729 212.929786 
L 289.765751 200.144468 
L 291.275772 194.616804 
L 292.785793 195.993909 
L 294.295814 241.893272 
L 295.805835 195.765534 
L 297.315856 256.617992 
L 298.825877 229.610105 
L 300.335899 214.084844 
L 301.84592 211.593209 
L 303.355941 194.54241 
L 306.375983 198.147381 
L 307.886004 196.533372 
L 309.396025 203.078365 
L 310.906047 196.598803 
L 312.416068 205.298641 
L 313.926089 181.882267 
L 315.43611 193.588607 
L 316.946131 196.945064 
L 318.456152 206.707027 
L 319.966173 206.56077 
L 321.476195 192.283056 
L 322.986216 192.298847 
L 324.496237 189.080868 
L 326.006258 193.702278 
L 327.516279 212.128051 
L 329.0263 200.762695 
L 330.536321 191.557107 
L 332.046342 187.783425 
L 333.556364 191.96765 
L 335.066385 194.729415 
L 336.576406 201.495044 
L 338.086427 191.767033 
L 339.596448 192.754709 
L 341.106469 189.638794 
L 342.61649 188.625322 
L 344.126512 188.330161 
L 345.636533 194.440174 
L 347.146554 205.020821 
L 348.656575 189.287423 
L 350.166596 186.760745 
L 351.676617 212.579208 
L 353.186638 191.432236 
L 354.69666 210.020155 
L 356.206681 210.324829 
L 357.716702 188.758112 
L 359.226723 197.511109 
L 360.736744 190.930621 
L 362.246765 201.307911 
L 363.756786 191.811967 
L 365.266808 187.440853 
L 366.776829 196.643214 
L 368.28685 201.861039 
L 369.796871 199.249735 
L 371.306892 187.143725 
L 372.816913 199.17648 
L 374.326934 185.45008 
L 375.836956 185.714814 
L 377.346977 189.282563 
L 378.856998 184.236074 
L 380.367019 204.901025 
L 381.87704 192.418366 
L 383.387061 189.447532 
L 384.897082 194.60756 
L 386.407104 186.834077 
L 387.917125 201.228203 
L 389.427146 221.576689 
L 390.937167 188.431451 
L 392.447188 210.454337 
L 393.957209 195.698004 
L 395.46723 207.592184 
L 396.977252 207.250557 
L 398.487273 201.142128 
L 398.487273 201.142128 
" clip-path="url(#pc533d3fd28)" style="fill: none; stroke: #f08080; stroke-opacity: 0.8; stroke-width: 0.5; stroke-linecap: square"/>
   </g>
   <g id="patch_3">
    <path d="M 57.6 307.584 
L 57.6 41.472 
" style="fill: none; stroke: #000000; stroke-width: 0.8; stroke-linejoin: miter; stroke-linecap: square"/>
   </g>
   <g id="patch_4">
    <path d="M 414.72 307.584 
L 414.72 41.472 
" style="fill: none; stroke: #000000; stroke-width: 0.8; stroke-linejoin: miter; stroke-linecap: square"/>
   </g>
   <g id="patch_5">
    <path d="M 57.6 307.584 
L 414.72 307.584 
" style="fill: none; stroke: #000000; stroke-width: 0.8; stroke-linejoin: miter; stroke-linecap: square"/>
   </g>
   <g id="patch_6">
    <path d="M 57.6 41.472 
L 414.72 41.472 
" style="fill: none; stroke: #000000; stroke-width: 0.8; stroke-linejoin: miter; stroke-linecap: square"/>
   </g>
   <g id="text_14">
    <!-- 1final_naive_pr_btcusd -->
    <g transform="translate(167.554688 35.472) scale(0.12 -0.12)">
     <defs>
      <path id="DejaVuSans-66" d="M 2375 4863 
L 2375 4384 
L 1825 4384 
Q 1516 4384 1395 4259 
Q 1275 4134 1275 3809 
L 1275 3500 
L 2222 3500 
L 2222 3053 
L 1275 3053 
L 1275 0 
L 697 0 
L 697 3053 
L 147 3053 
L 147 3500 
L 697 3500 
L 697 3744 
Q 697 4328 969 4595 
Q 1241 4863 1831 4863 
L 2375 4863 
z
" transform="scale(0.015625)"/>
      <path id="DejaVuSans-69" d="M 603 3500 
L 1178 3500 
L 1178 0 
L 603 0 
L 603 3500 
z
M 603 4863 
L 1178 4863 
L 1178 4134 
L 603 4134 
L 603 4863 
z
" transform="scale(0.015625)"/>
      <path id="DejaVuSans-6e" d="M 3513 2113 
L 3513 0 
L 2938 0 
L 2938 2094 
Q 2938 2591 2744 2837 
Q 2550 3084 2163 3084 
Q 1697 3084 1428 2787 
Q 1159 2491 1159 1978 
L 1159 0 
L 581 0 
L 581 3500 
L 1159 3500 
L 1159 2956 
Q 1366 3272 1645 3428 
Q 1925 3584 2291 3584 
Q 2894 3584 3203 3211 
Q 3513 2838 3513 2113 
z
" transform="scale(0.015625)"/>
      <path id="DejaVuSans-61" d="M 2194 1759 
Q 1497 1759 1228 1600 
Q 959 1441 959 1056 
Q 959 750 1161 570 
Q 1363 391 1709 391 
Q 2188 391 2477 730 
Q 2766 1069 2766 1631 
L 2766 1759 
L 2194 1759 
z
M 3341 1997 
L 3341 0 
L 2766 0 
L 2766 531 
Q 2569 213 2275 61 
Q 1981 -91 1556 -91 
Q 1019 -91 701 211 
Q 384 513 384 1019 
Q 384 1609 779 1909 
Q 1175 2209 1959 2209 
L 2766 2209 
L 2766 2266 
Q 2766 2663 2505 2880 
Q 2244 3097 1772 3097 
Q 1472 3097 1187 3025 
Q 903 2953 641 2809 
L 641 3341 
Q 956 3463 1253 3523 
Q 1550 3584 1831 3584 
Q 2591 3584 2966 3190 
Q 3341 2797 3341 1997 
z
" transform="scale(0.015625)"/>
      <path id="DejaVuSans-6c" d="M 603 4863 
L 1178 4863 
L 1178 0 
L 603 0 
L 603 4863 
z
" transform="scale(0.015625)"/>
      <path id="DejaVuSans-5f" d="M 3263 -1063 
L 3263 -1509 
L -63 -1509 
L -63 -1063 
L 3263 -1063 
z
" transform="scale(0.015625)"/>
      <path id="DejaVuSans-76" d="M 191 3500 
L 800 3500 
L 1894 563 
L 2988 3500 
L 3597 3500 
L 2284 0 
L 1503 0 
L 191 3500 
z
" transform="scale(0.015625)"/>
      <path id="DejaVuSans-65" d="M 3597 1894 
L 3597 1613 
L 953 1613 
Q 991 1019 1311 708 
Q 1631 397 2203 397 
Q 2534 397 2845 478 
Q 3156 559 3463 722 
L 3463 178 
Q 3153 47 2828 -22 
Q 2503 -91 2169 -91 
Q 1331 -91 842 396 
Q 353 884 353 1716 
Q 353 2575 817 3079 
Q 1281 3584 2069 3584 
Q 2775 3584 3186 3129 
Q 3597 2675 3597 1894 
z
M 3022 2063 
Q 3016 2534 2758 2815 
Q 2500 3097 2075 3097 
Q 1594 3097 1305 2825 
Q 1016 2553 972 2059 
L 3022 2063 
z
" transform="scale(0.015625)"/>
      <path id="DejaVuSans-70" d="M 1159 525 
L 1159 -1331 
L 581 -1331 
L 581 3500 
L 1159 3500 
L 1159 2969 
Q 1341 3281 1617 3432 
Q 1894 3584 2278 3584 
Q 2916 3584 3314 3078 
Q 3713 2572 3713 1747 
Q 3713 922 3314 415 
Q 2916 -91 2278 -91 
Q 1894 -91 1617 61 
Q 1341 213 1159 525 
z
M 3116 1747 
Q 3116 2381 2855 2742 
Q 2594 3103 2138 3103 
Q 1681 3103 1420 2742 
Q 1159 2381 1159 1747 
Q 1159 1113 1420 752 
Q 1681 391 2138 391 
Q 2594 391 2855 752 
Q 3116 1113 3116 1747 
z
" transform="scale(0.015625)"/>
      <path id="DejaVuSans-72" d="M 2631 2963 
Q 2534 3019 2420 3045 
Q 2306 3072 2169 3072 
Q 1681 3072 1420 2755 
Q 1159 2438 1159 1844 
L 1159 0 
L 581 0 
L 581 3500 
L 1159 3500 
L 1159 2956 
Q 1341 3275 1631 3429 
Q 1922 3584 2338 3584 
Q 2397 3584 2469 3576 
Q 2541 3569 2628 3553 
L 2631 2963 
z
" transform="scale(0.015625)"/>
      <path id="DejaVuSans-62" d="M 3116 1747 
Q 3116 2381 2855 2742 
Q 2594 3103 2138 3103 
Q 1681 3103 1420 2742 
Q 1159 2381 1159 1747 
Q 1159 1113 1420 752 
Q 1681 391 2138 391 
Q 2594 391 2855 752 
Q 3116 1113 3116 1747 
z
M 1159 2969 
Q 1341 3281 1617 3432 
Q 1894 3584 2278 3584 
Q 2916 3584 3314 3078 
Q 3713 2572 3713 1747 
Q 3713 922 3314 415 
Q 2916 -91 2278 -91 
Q 1894 -91 1617 61 
Q 1341 213 1159 525 
L 1159 0 
L 581 0 
L 581 4863 
L 1159 4863 
L 1159 2969 
z
" transform="scale(0.015625)"/>
      <path id="DejaVuSans-74" d="M 1172 4494 
L 1172 3500 
L 2356 3500 
L 2356 3053 
L 1172 3053 
L 1172 1153 
Q 1172 725 1289 603 
Q 1406 481 1766 481 
L 2356 481 
L 2356 0 
L 1766 0 
Q 1100 0 847 248 
Q 594 497 594 1153 
L 594 3053 
L 172 3053 
L 172 3500 
L 594 3500 
L 594 4494 
L 1172 4494 
z
" transform="scale(0.015625)"/>
      <path id="DejaVuSans-63" d="M 3122 3366 
L 3122 2828 
Q 2878 2963 2633 3030 
Q 2388 3097 2138 3097 
Q 1578 3097 1268 2742 
Q 959 2388 959 1747 
Q 959 1106 1268 751 
Q 1578 397 2138 397 
Q 2388 397 2633 464 
Q 2878 531 3122 666 
L 3122 134 
Q 2881 22 2623 -34 
Q 2366 -91 2075 -91 
Q 1284 -91 818 406 
Q 353 903 353 1747 
Q 353 2603 823 3093 
Q 1294 3584 2113 3584 
Q 2378 3584 2631 3529 
Q 2884 3475 3122 3366 
z
" transform="scale(0.015625)"/>
      <path id="DejaVuSans-75" d="M 544 1381 
L 544 3500 
L 1119 3500 
L 1119 1403 
Q 1119 906 1312 657 
Q 1506 409 1894 409 
Q 2359 409 2629 706 
Q 2900 1003 2900 1516 
L 2900 3500 
L 3475 3500 
L 3475 0 
L 2900 0 
L 2900 538 
Q 2691 219 2414 64 
Q 2138 -91 1772 -91 
Q 1169 -91 856 284 
Q 544 659 544 1381 
z
M 1991 3584 
L 1991 3584 
z
" transform="scale(0.015625)"/>
      <path id="DejaVuSans-73" d="M 2834 3397 
L 2834 2853 
Q 2591 2978 2328 3040 
Q 2066 3103 1784 3103 
Q 1356 3103 1142 2972 
Q 928 2841 928 2578 
Q 928 2378 1081 2264 
Q 1234 2150 1697 2047 
L 1894 2003 
Q 2506 1872 2764 1633 
Q 3022 1394 3022 966 
Q 3022 478 2636 193 
Q 2250 -91 1575 -91 
Q 1294 -91 989 -36 
Q 684 19 347 128 
L 347 722 
Q 666 556 975 473 
Q 1284 391 1588 391 
Q 1994 391 2212 530 
Q 2431 669 2431 922 
Q 2431 1156 2273 1281 
Q 2116 1406 1581 1522 
L 1381 1569 
Q 847 1681 609 1914 
Q 372 2147 372 2553 
Q 372 3047 722 3315 
Q 1072 3584 1716 3584 
Q 2034 3584 2315 3537 
Q 2597 3491 2834 3397 
z
" transform="scale(0.015625)"/>
      <path id="DejaVuSans-64" d="M 2906 2969 
L 2906 4863 
L 3481 4863 
L 3481 0 
L 2906 0 
L 2906 525 
Q 2725 213 2448 61 
Q 2172 -91 1784 -91 
Q 1150 -91 751 415 
Q 353 922 353 1747 
Q 353 2572 751 3078 
Q 1150 3584 1784 3584 
Q 2172 3584 2448 3432 
Q 2725 3281 2906 2969 
z
M 947 1747 
Q 947 1113 1208 752 
Q 1469 391 1925 391 
Q 2381 391 2643 752 
Q 2906 1113 2906 1747 
Q 2906 2381 2643 2742 
Q 2381 3103 1925 3103 
Q 1469 3103 1208 2742 
Q 947 2381 947 1747 
z
" transform="scale(0.015625)"/>
     </defs>
     <use xlink:href="#DejaVuSans-31"/>
     <use xlink:href="#DejaVuSans-66" x="63.623047"/>
     <use xlink:href="#DejaVuSans-69" x="98.828125"/>
     <use xlink:href="#DejaVuSans-6e" x="126.611328"/>
     <use xlink:href="#DejaVuSans-61" x="189.990234"/>
     <use xlink:href="#DejaVuSans-6c" x="251.269531"/>
     <use xlink:href="#DejaVuSans-5f" x="279.052734"/>
     <use xlink:href="#DejaVuSans-6e" x="329.052734"/>
     <use xlink:href="#DejaVuSans-61" x="392.431641"/>
     <use xlink:href="#DejaVuSans-69" x="453.710938"/>
     <use xlink:href="#DejaVuSans-76" x="481.494141"/>
     <use xlink:href="#DejaVuSans-65" x="540.673828"/>
     <use xlink:href="#DejaVuSans-5f" x="602.197266"/>
     <use xlink:href="#DejaVuSans-70" x="652.197266"/>
     <use xlink:href="#DejaVuSans-72" x="715.673828"/>
     <use xlink:href="#DejaVuSans-5f" x="756.787109"/>
     <use xlink:href="#DejaVuSans-62" x="806.787109"/>
     <use xlink:href="#DejaVuSans-74" x="870.263672"/>
     <use xlink:href="#DejaVuSans-63" x="909.472656"/>
     <use xlink:href="#DejaVuSans-75" x="964.453125"/>
     <use xlink:href="#DejaVuSans-73" x="1027.832031"/>
     <use xlink:href="#DejaVuSans-64" x="1079.931641"/>
    </g>
   </g>
   <g id="legend_1">
    <g id="patch_7">
     <path d="M 64.6 137.54075 
L 225.001563 137.54075 
Q 227.001563 137.54075 227.001563 135.54075 
L 227.001563 48.472 
Q 227.001563 46.472 225.001563 46.472 
L 64.6 46.472 
Q 62.6 46.472 62.6 48.472 
L 62.6 135.54075 
Q 62.6 137.54075 64.6 137.54075 
z
" style="fill: #ffffff; opacity: 0.8; stroke: #cccccc; stroke-linejoin: miter"/>
    </g>
    <g id="line2d_20">
     <path d="M 66.6 54.570438 
L 76.6 54.570438 
L 86.6 54.570438 
" style="fill: none; stroke: #008000; stroke-opacity: 0.8; stroke-width: 0.5; stroke-linecap: square"/>
    </g>
    <g id="text_15">
     <!-- Positive predictions -->
     <g transform="translate(94.6 58.070438) scale(0.1 -0.1)">
      <defs>
       <path id="DejaVuSans-50" d="M 1259 4147 
L 1259 2394 
L 2053 2394 
Q 2494 2394 2734 2622 
Q 2975 2850 2975 3272 
Q 2975 3691 2734 3919 
Q 2494 4147 2053 4147 
L 1259 4147 
z
M 628 4666 
L 2053 4666 
Q 2838 4666 3239 4311 
Q 3641 3956 3641 3272 
Q 3641 2581 3239 2228 
Q 2838 1875 2053 1875 
L 1259 1875 
L 1259 0 
L 628 0 
L 628 4666 
z
" transform="scale(0.015625)"/>
       <path id="DejaVuSans-6f" d="M 1959 3097 
Q 1497 3097 1228 2736 
Q 959 2375 959 1747 
Q 959 1119 1226 758 
Q 1494 397 1959 397 
Q 2419 397 2687 759 
Q 2956 1122 2956 1747 
Q 2956 2369 2687 2733 
Q 2419 3097 1959 3097 
z
M 1959 3584 
Q 2709 3584 3137 3096 
Q 3566 2609 3566 1747 
Q 3566 888 3137 398 
Q 2709 -91 1959 -91 
Q 1206 -91 779 398 
Q 353 888 353 1747 
Q 353 2609 779 3096 
Q 1206 3584 1959 3584 
z
" transform="scale(0.015625)"/>
       <path id="DejaVuSans-20" transform="scale(0.015625)"/>
      </defs>
      <use xlink:href="#DejaVuSans-50"/>
      <use xlink:href="#DejaVuSans-6f" x="56.677734"/>
      <use xlink:href="#DejaVuSans-73" x="117.859375"/>
      <use xlink:href="#DejaVuSans-69" x="169.958984"/>
      <use xlink:href="#DejaVuSans-74" x="197.742188"/>
      <use xlink:href="#DejaVuSans-69" x="236.951172"/>
      <use xlink:href="#DejaVuSans-76" x="264.734375"/>
      <use xlink:href="#DejaVuSans-65" x="323.914062"/>
      <use xlink:href="#DejaVuSans-20" x="385.4375"/>
      <use xlink:href="#DejaVuSans-70" x="417.224609"/>
      <use xlink:href="#DejaVuSans-72" x="480.701172"/>
      <use xlink:href="#DejaVuSans-65" x="519.564453"/>
      <use xlink:href="#DejaVuSans-64" x="581.087891"/>
      <use xlink:href="#DejaVuSans-69" x="644.564453"/>
      <use xlink:href="#DejaVuSans-63" x="672.347656"/>
      <use xlink:href="#DejaVuSans-74" x="727.328125"/>
      <use xlink:href="#DejaVuSans-69" x="766.537109"/>
      <use xlink:href="#DejaVuSans-6f" x="794.320312"/>
      <use xlink:href="#DejaVuSans-6e" x="855.501953"/>
      <use xlink:href="#DejaVuSans-73" x="918.880859"/>
     </g>
    </g>
    <g id="line2d_21">
     <path d="M 66.6 69.248563 
L 76.6 69.248563 
L 86.6 69.248563 
" style="fill: none; stroke: #32cd32; stroke-opacity: 0.8; stroke-width: 0.5; stroke-linecap: square"/>
    </g>
    <g id="text_16">
     <!-- Positive predictions max -->
     <g transform="translate(94.6 72.748563) scale(0.1 -0.1)">
      <defs>
       <path id="DejaVuSans-6d" d="M 3328 2828 
Q 3544 3216 3844 3400 
Q 4144 3584 4550 3584 
Q 5097 3584 5394 3201 
Q 5691 2819 5691 2113 
L 5691 0 
L 5113 0 
L 5113 2094 
Q 5113 2597 4934 2840 
Q 4756 3084 4391 3084 
Q 3944 3084 3684 2787 
Q 3425 2491 3425 1978 
L 3425 0 
L 2847 0 
L 2847 2094 
Q 2847 2600 2669 2842 
Q 2491 3084 2119 3084 
Q 1678 3084 1418 2786 
Q 1159 2488 1159 1978 
L 1159 0 
L 581 0 
L 581 3500 
L 1159 3500 
L 1159 2956 
Q 1356 3278 1631 3431 
Q 1906 3584 2284 3584 
Q 2666 3584 2933 3390 
Q 3200 3197 3328 2828 
z
" transform="scale(0.015625)"/>
       <path id="DejaVuSans-78" d="M 3513 3500 
L 2247 1797 
L 3578 0 
L 2900 0 
L 1881 1375 
L 863 0 
L 184 0 
L 1544 1831 
L 300 3500 
L 978 3500 
L 1906 2253 
L 2834 3500 
L 3513 3500 
z
" transform="scale(0.015625)"/>
      </defs>
      <use xlink:href="#DejaVuSans-50"/>
      <use xlink:href="#DejaVuSans-6f" x="56.677734"/>
      <use xlink:href="#DejaVuSans-73" x="117.859375"/>
      <use xlink:href="#DejaVuSans-69" x="169.958984"/>
      <use xlink:href="#DejaVuSans-74" x="197.742188"/>
      <use xlink:href="#DejaVuSans-69" x="236.951172"/>
      <use xlink:href="#DejaVuSans-76" x="264.734375"/>
      <use xlink:href="#DejaVuSans-65" x="323.914062"/>
      <use xlink:href="#DejaVuSans-20" x="385.4375"/>
      <use xlink:href="#DejaVuSans-70" x="417.224609"/>
      <use xlink:href="#DejaVuSans-72" x="480.701172"/>
      <use xlink:href="#DejaVuSans-65" x="519.564453"/>
      <use xlink:href="#DejaVuSans-64" x="581.087891"/>
      <use xlink:href="#DejaVuSans-69" x="644.564453"/>
      <use xlink:href="#DejaVuSans-63" x="672.347656"/>
      <use xlink:href="#DejaVuSans-74" x="727.328125"/>
      <use xlink:href="#DejaVuSans-69" x="766.537109"/>
      <use xlink:href="#DejaVuSans-6f" x="794.320312"/>
      <use xlink:href="#DejaVuSans-6e" x="855.501953"/>
      <use xlink:href="#DejaVuSans-73" x="918.880859"/>
      <use xlink:href="#DejaVuSans-20" x="970.980469"/>
      <use xlink:href="#DejaVuSans-6d" x="1002.767578"/>
      <use xlink:href="#DejaVuSans-61" x="1100.179688"/>
      <use xlink:href="#DejaVuSans-78" x="1161.458984"/>
     </g>
    </g>
    <g id="line2d_22">
     <path d="M 66.6 83.926688 
L 76.6 83.926688 
L 86.6 83.926688 
" style="fill: none; stroke: #32cd32; stroke-opacity: 0.8; stroke-width: 0.5; stroke-linecap: square"/>
    </g>
    <g id="text_17">
     <!-- Positive predictions min -->
     <g transform="translate(94.6 87.426688) scale(0.1 -0.1)">
      <use xlink:href="#DejaVuSans-50"/>
      <use xlink:href="#DejaVuSans-6f" x="56.677734"/>
      <use xlink:href="#DejaVuSans-73" x="117.859375"/>
      <use xlink:href="#DejaVuSans-69" x="169.958984"/>
      <use xlink:href="#DejaVuSans-74" x="197.742188"/>
      <use xlink:href="#DejaVuSans-69" x="236.951172"/>
      <use xlink:href="#DejaVuSans-76" x="264.734375"/>
      <use xlink:href="#DejaVuSans-65" x="323.914062"/>
      <use xlink:href="#DejaVuSans-20" x="385.4375"/>
      <use xlink:href="#DejaVuSans-70" x="417.224609"/>
      <use xlink:href="#DejaVuSans-72" x="480.701172"/>
      <use xlink:href="#DejaVuSans-65" x="519.564453"/>
      <use xlink:href="#DejaVuSans-64" x="581.087891"/>
      <use xlink:href="#DejaVuSans-69" x="644.564453"/>
      <use xlink:href="#DejaVuSans-63" x="672.347656"/>
      <use xlink:href="#DejaVuSans-74" x="727.328125"/>
      <use xlink:href="#DejaVuSans-69" x="766.537109"/>
      <use xlink:href="#DejaVuSans-6f" x="794.320312"/>
      <use xlink:href="#DejaVuSans-6e" x="855.501953"/>
      <use xlink:href="#DejaVuSans-73" x="918.880859"/>
      <use xlink:href="#DejaVuSans-20" x="970.980469"/>
      <use xlink:href="#DejaVuSans-6d" x="1002.767578"/>
      <use xlink:href="#DejaVuSans-69" x="1100.179688"/>
      <use xlink:href="#DejaVuSans-6e" x="1127.962891"/>
     </g>
    </g>
    <g id="line2d_23">
     <path d="M 66.6 98.604813 
L 76.6 98.604813 
L 86.6 98.604813 
" style="fill: none; stroke: #ff0000; stroke-opacity: 0.8; stroke-width: 0.5; stroke-linecap: square"/>
    </g>
    <g id="text_18">
     <!-- Negative predictions -->
     <g transform="translate(94.6 102.104813) scale(0.1 -0.1)">
      <defs>
       <path id="DejaVuSans-4e" d="M 628 4666 
L 1478 4666 
L 3547 763 
L 3547 4666 
L 4159 4666 
L 4159 0 
L 3309 0 
L 1241 3903 
L 1241 0 
L 628 0 
L 628 4666 
z
" transform="scale(0.015625)"/>
       <path id="DejaVuSans-67" d="M 2906 1791 
Q 2906 2416 2648 2759 
Q 2391 3103 1925 3103 
Q 1463 3103 1205 2759 
Q 947 2416 947 1791 
Q 947 1169 1205 825 
Q 1463 481 1925 481 
Q 2391 481 2648 825 
Q 2906 1169 2906 1791 
z
M 3481 434 
Q 3481 -459 3084 -895 
Q 2688 -1331 1869 -1331 
Q 1566 -1331 1297 -1286 
Q 1028 -1241 775 -1147 
L 775 -588 
Q 1028 -725 1275 -790 
Q 1522 -856 1778 -856 
Q 2344 -856 2625 -561 
Q 2906 -266 2906 331 
L 2906 616 
Q 2728 306 2450 153 
Q 2172 0 1784 0 
Q 1141 0 747 490 
Q 353 981 353 1791 
Q 353 2603 747 3093 
Q 1141 3584 1784 3584 
Q 2172 3584 2450 3431 
Q 2728 3278 2906 2969 
L 2906 3500 
L 3481 3500 
L 3481 434 
z
" transform="scale(0.015625)"/>
      </defs>
      <use xlink:href="#DejaVuSans-4e"/>
      <use xlink:href="#DejaVuSans-65" x="74.804688"/>
      <use xlink:href="#DejaVuSans-67" x="136.328125"/>
      <use xlink:href="#DejaVuSans-61" x="199.804688"/>
      <use xlink:href="#DejaVuSans-74" x="261.083984"/>
      <use xlink:href="#DejaVuSans-69" x="300.292969"/>
      <use xlink:href="#DejaVuSans-76" x="328.076172"/>
      <use xlink:href="#DejaVuSans-65" x="387.255859"/>
      <use xlink:href="#DejaVuSans-20" x="448.779297"/>
      <use xlink:href="#DejaVuSans-70" x="480.566406"/>
      <use xlink:href="#DejaVuSans-72" x="544.042969"/>
      <use xlink:href="#DejaVuSans-65" x="582.90625"/>
      <use xlink:href="#DejaVuSans-64" x="644.429688"/>
      <use xlink:href="#DejaVuSans-69" x="707.90625"/>
      <use xlink:href="#DejaVuSans-63" x="735.689453"/>
      <use xlink:href="#DejaVuSans-74" x="790.669922"/>
      <use xlink:href="#DejaVuSans-69" x="829.878906"/>
      <use xlink:href="#DejaVuSans-6f" x="857.662109"/>
      <use xlink:href="#DejaVuSans-6e" x="918.84375"/>
      <use xlink:href="#DejaVuSans-73" x="982.222656"/>
     </g>
    </g>
    <g id="line2d_24">
     <path d="M 66.6 113.282938 
L 76.6 113.282938 
L 86.6 113.282938 
" style="fill: none; stroke: #f08080; stroke-opacity: 0.8; stroke-width: 0.5; stroke-linecap: square"/>
    </g>
    <g id="text_19">
     <!-- Negative predictions max -->
     <g transform="translate(94.6 116.782938) scale(0.1 -0.1)">
      <use xlink:href="#DejaVuSans-4e"/>
      <use xlink:href="#DejaVuSans-65" x="74.804688"/>
      <use xlink:href="#DejaVuSans-67" x="136.328125"/>
      <use xlink:href="#DejaVuSans-61" x="199.804688"/>
      <use xlink:href="#DejaVuSans-74" x="261.083984"/>
      <use xlink:href="#DejaVuSans-69" x="300.292969"/>
      <use xlink:href="#DejaVuSans-76" x="328.076172"/>
      <use xlink:href="#DejaVuSans-65" x="387.255859"/>
      <use xlink:href="#DejaVuSans-20" x="448.779297"/>
      <use xlink:href="#DejaVuSans-70" x="480.566406"/>
      <use xlink:href="#DejaVuSans-72" x="544.042969"/>
      <use xlink:href="#DejaVuSans-65" x="582.90625"/>
      <use xlink:href="#DejaVuSans-64" x="644.429688"/>
      <use xlink:href="#DejaVuSans-69" x="707.90625"/>
      <use xlink:href="#DejaVuSans-63" x="735.689453"/>
      <use xlink:href="#DejaVuSans-74" x="790.669922"/>
      <use xlink:href="#DejaVuSans-69" x="829.878906"/>
      <use xlink:href="#DejaVuSans-6f" x="857.662109"/>
      <use xlink:href="#DejaVuSans-6e" x="918.84375"/>
      <use xlink:href="#DejaVuSans-73" x="982.222656"/>
      <use xlink:href="#DejaVuSans-20" x="1034.322266"/>
      <use xlink:href="#DejaVuSans-6d" x="1066.109375"/>
      <use xlink:href="#DejaVuSans-61" x="1163.521484"/>
      <use xlink:href="#DejaVuSans-78" x="1224.800781"/>
     </g>
    </g>
    <g id="line2d_25">
     <path d="M 66.6 127.961063 
L 76.6 127.961063 
L 86.6 127.961063 
" style="fill: none; stroke: #f08080; stroke-opacity: 0.8; stroke-width: 0.5; stroke-linecap: square"/>
    </g>
    <g id="text_20">
     <!-- Negative predictions min -->
     <g transform="translate(94.6 131.461063) scale(0.1 -0.1)">
      <use xlink:href="#DejaVuSans-4e"/>
      <use xlink:href="#DejaVuSans-65" x="74.804688"/>
      <use xlink:href="#DejaVuSans-67" x="136.328125"/>
      <use xlink:href="#DejaVuSans-61" x="199.804688"/>
      <use xlink:href="#DejaVuSans-74" x="261.083984"/>
      <use xlink:href="#DejaVuSans-69" x="300.292969"/>
      <use xlink:href="#DejaVuSans-76" x="328.076172"/>
      <use xlink:href="#DejaVuSans-65" x="387.255859"/>
      <use xlink:href="#DejaVuSans-20" x="448.779297"/>
      <use xlink:href="#DejaVuSans-70" x="480.566406"/>
      <use xlink:href="#DejaVuSans-72" x="544.042969"/>
      <use xlink:href="#DejaVuSans-65" x="582.90625"/>
      <use xlink:href="#DejaVuSans-64" x="644.429688"/>
      <use xlink:href="#DejaVuSans-69" x="707.90625"/>
      <use xlink:href="#DejaVuSans-63" x="735.689453"/>
      <use xlink:href="#DejaVuSans-74" x="790.669922"/>
      <use xlink:href="#DejaVuSans-69" x="829.878906"/>
      <use xlink:href="#DejaVuSans-6f" x="857.662109"/>
      <use xlink:href="#DejaVuSans-6e" x="918.84375"/>
      <use xlink:href="#DejaVuSans-73" x="982.222656"/>
      <use xlink:href="#DejaVuSans-20" x="1034.322266"/>
      <use xlink:href="#DejaVuSans-6d" x="1066.109375"/>
      <use xlink:href="#DejaVuSans-69" x="1163.521484"/>
      <use xlink:href="#DejaVuSans-6e" x="1191.304688"/>
     </g>
    </g>
   </g>
  </g>
 </g>
 <defs>
  <clipPath id="pc533d3fd28">
   <rect x="57.6" y="41.472" width="357.12" height="266.112"/>
  </clipPath>
 </defs>
</svg>
