<?xml version="1.0" encoding="utf-8" standalone="no"?>
<!DOCTYPE svg PUBLIC "-//W3C//DTD SVG 1.1//EN"
  "http://www.w3.org/Graphics/SVG/1.1/DTD/svg11.dtd">
<svg xmlns:xlink="http://www.w3.org/1999/xlink" width="460.8pt" height="345.6pt" viewBox="0 0 460.8 345.6" xmlns="http://www.w3.org/2000/svg" version="1.1">
 <metadata>
  <rdf:RDF xmlns:dc="http://purl.org/dc/elements/1.1/" xmlns:cc="http://creativecommons.org/ns#" xmlns:rdf="http://www.w3.org/1999/02/22-rdf-syntax-ns#">
   <cc:Work>
    <dc:type rdf:resource="http://purl.org/dc/dcmitype/StillImage"/>
    <dc:date>2024-09-08T12:04:51.339326</dc:date>
    <dc:format>image/svg+xml</dc:format>
    <dc:creator>
     <cc:Agent>
      <dc:title>Matplotlib v3.8.3, https://matplotlib.org/</dc:title>
     </cc:Agent>
    </dc:creator>
   </cc:Work>
  </rdf:RDF>
 </metadata>
 <defs>
  <style type="text/css">*{stroke-linejoin: round; stroke-linecap: butt}</style>
 </defs>
 <g id="figure_1">
  <g id="patch_1">
   <path d="M 0 345.6 
L 460.8 345.6 
L 460.8 0 
L 0 0 
z
" style="fill: #ffffff"/>
  </g>
  <g id="axes_1">
   <g id="patch_2">
    <path d="M 57.6 307.584 
L 414.72 307.584 
L 414.72 41.472 
L 57.6 41.472 
z
" style="fill: #ffffff"/>
   </g>
   <g id="matplotlib.axis_1">
    <g id="xtick_1">
     <g id="line2d_1">
      <defs>
       <path id="m97ea71107e" d="M 0 0 
L 0 3.5 
" style="stroke: #000000; stroke-width: 0.8"/>
      </defs>
      <g>
       <use xlink:href="#m97ea71107e" x="73.832727" y="307.584" style="stroke: #000000; stroke-width: 0.8"/>
      </g>
     </g>
     <g id="text_1">
      <!-- 0 -->
      <g transform="translate(70.651477 322.182437) scale(0.1 -0.1)">
       <defs>
        <path id="DejaVuSans-30" d="M 2034 4250 
Q 1547 4250 1301 3770 
Q 1056 3291 1056 2328 
Q 1056 1369 1301 889 
Q 1547 409 2034 409 
Q 2525 409 2770 889 
Q 3016 1369 3016 2328 
Q 3016 3291 2770 3770 
Q 2525 4250 2034 4250 
z
M 2034 4750 
Q 2819 4750 3233 4129 
Q 3647 3509 3647 2328 
Q 3647 1150 3233 529 
Q 2819 -91 2034 -91 
Q 1250 -91 836 529 
Q 422 1150 422 2328 
Q 422 3509 836 4129 
Q 1250 4750 2034 4750 
z
" transform="scale(0.015625)"/>
       </defs>
       <use xlink:href="#DejaVuSans-30"/>
      </g>
     </g>
    </g>
    <g id="xtick_2">
     <g id="line2d_2">
      <g>
       <use xlink:href="#m97ea71107e" x="116.27123" y="307.584" style="stroke: #000000; stroke-width: 0.8"/>
      </g>
     </g>
     <g id="text_2">
      <!-- 20 -->
      <g transform="translate(109.90873 322.182437) scale(0.1 -0.1)">
       <defs>
        <path id="DejaVuSans-32" d="M 1228 531 
L 3431 531 
L 3431 0 
L 469 0 
L 469 531 
Q 828 903 1448 1529 
Q 2069 2156 2228 2338 
Q 2531 2678 2651 2914 
Q 2772 3150 2772 3378 
Q 2772 3750 2511 3984 
Q 2250 4219 1831 4219 
Q 1534 4219 1204 4116 
Q 875 4013 500 3803 
L 500 4441 
Q 881 4594 1212 4672 
Q 1544 4750 1819 4750 
Q 2544 4750 2975 4387 
Q 3406 4025 3406 3419 
Q 3406 3131 3298 2873 
Q 3191 2616 2906 2266 
Q 2828 2175 2409 1742 
Q 1991 1309 1228 531 
z
" transform="scale(0.015625)"/>
       </defs>
       <use xlink:href="#DejaVuSans-32"/>
       <use xlink:href="#DejaVuSans-30" x="63.623047"/>
      </g>
     </g>
    </g>
    <g id="xtick_3">
     <g id="line2d_3">
      <g>
       <use xlink:href="#m97ea71107e" x="158.709733" y="307.584" style="stroke: #000000; stroke-width: 0.8"/>
      </g>
     </g>
     <g id="text_3">
      <!-- 40 -->
      <g transform="translate(152.347233 322.182437) scale(0.1 -0.1)">
       <defs>
        <path id="DejaVuSans-34" d="M 2419 4116 
L 825 1625 
L 2419 1625 
L 2419 4116 
z
M 2253 4666 
L 3047 4666 
L 3047 1625 
L 3713 1625 
L 3713 1100 
L 3047 1100 
L 3047 0 
L 2419 0 
L 2419 1100 
L 313 1100 
L 313 1709 
L 2253 4666 
z
" transform="scale(0.015625)"/>
       </defs>
       <use xlink:href="#DejaVuSans-34"/>
       <use xlink:href="#DejaVuSans-30" x="63.623047"/>
      </g>
     </g>
    </g>
    <g id="xtick_4">
     <g id="line2d_4">
      <g>
       <use xlink:href="#m97ea71107e" x="201.148235" y="307.584" style="stroke: #000000; stroke-width: 0.8"/>
      </g>
     </g>
     <g id="text_4">
      <!-- 60 -->
      <g transform="translate(194.785735 322.182437) scale(0.1 -0.1)">
       <defs>
        <path id="DejaVuSans-36" d="M 2113 2584 
Q 1688 2584 1439 2293 
Q 1191 2003 1191 1497 
Q 1191 994 1439 701 
Q 1688 409 2113 409 
Q 2538 409 2786 701 
Q 3034 994 3034 1497 
Q 3034 2003 2786 2293 
Q 2538 2584 2113 2584 
z
M 3366 4563 
L 3366 3988 
Q 3128 4100 2886 4159 
Q 2644 4219 2406 4219 
Q 1781 4219 1451 3797 
Q 1122 3375 1075 2522 
Q 1259 2794 1537 2939 
Q 1816 3084 2150 3084 
Q 2853 3084 3261 2657 
Q 3669 2231 3669 1497 
Q 3669 778 3244 343 
Q 2819 -91 2113 -91 
Q 1303 -91 875 529 
Q 447 1150 447 2328 
Q 447 3434 972 4092 
Q 1497 4750 2381 4750 
Q 2619 4750 2861 4703 
Q 3103 4656 3366 4563 
z
" transform="scale(0.015625)"/>
       </defs>
       <use xlink:href="#DejaVuSans-36"/>
       <use xlink:href="#DejaVuSans-30" x="63.623047"/>
      </g>
     </g>
    </g>
    <g id="xtick_5">
     <g id="line2d_5">
      <g>
       <use xlink:href="#m97ea71107e" x="243.586738" y="307.584" style="stroke: #000000; stroke-width: 0.8"/>
      </g>
     </g>
     <g id="text_5">
      <!-- 80 -->
      <g transform="translate(237.224238 322.182437) scale(0.1 -0.1)">
       <defs>
        <path id="DejaVuSans-38" d="M 2034 2216 
Q 1584 2216 1326 1975 
Q 1069 1734 1069 1313 
Q 1069 891 1326 650 
Q 1584 409 2034 409 
Q 2484 409 2743 651 
Q 3003 894 3003 1313 
Q 3003 1734 2745 1975 
Q 2488 2216 2034 2216 
z
M 1403 2484 
Q 997 2584 770 2862 
Q 544 3141 544 3541 
Q 544 4100 942 4425 
Q 1341 4750 2034 4750 
Q 2731 4750 3128 4425 
Q 3525 4100 3525 3541 
Q 3525 3141 3298 2862 
Q 3072 2584 2669 2484 
Q 3125 2378 3379 2068 
Q 3634 1759 3634 1313 
Q 3634 634 3220 271 
Q 2806 -91 2034 -91 
Q 1263 -91 848 271 
Q 434 634 434 1313 
Q 434 1759 690 2068 
Q 947 2378 1403 2484 
z
M 1172 3481 
Q 1172 3119 1398 2916 
Q 1625 2713 2034 2713 
Q 2441 2713 2670 2916 
Q 2900 3119 2900 3481 
Q 2900 3844 2670 4047 
Q 2441 4250 2034 4250 
Q 1625 4250 1398 4047 
Q 1172 3844 1172 3481 
z
" transform="scale(0.015625)"/>
       </defs>
       <use xlink:href="#DejaVuSans-38"/>
       <use xlink:href="#DejaVuSans-30" x="63.623047"/>
      </g>
     </g>
    </g>
    <g id="xtick_6">
     <g id="line2d_6">
      <g>
       <use xlink:href="#m97ea71107e" x="286.025241" y="307.584" style="stroke: #000000; stroke-width: 0.8"/>
      </g>
     </g>
     <g id="text_6">
      <!-- 100 -->
      <g transform="translate(276.481491 322.182437) scale(0.1 -0.1)">
       <defs>
        <path id="DejaVuSans-31" d="M 794 531 
L 1825 531 
L 1825 4091 
L 703 3866 
L 703 4441 
L 1819 4666 
L 2450 4666 
L 2450 531 
L 3481 531 
L 3481 0 
L 794 0 
L 794 531 
z
" transform="scale(0.015625)"/>
       </defs>
       <use xlink:href="#DejaVuSans-31"/>
       <use xlink:href="#DejaVuSans-30" x="63.623047"/>
       <use xlink:href="#DejaVuSans-30" x="127.246094"/>
      </g>
     </g>
    </g>
    <g id="xtick_7">
     <g id="line2d_7">
      <g>
       <use xlink:href="#m97ea71107e" x="328.463743" y="307.584" style="stroke: #000000; stroke-width: 0.8"/>
      </g>
     </g>
     <g id="text_7">
      <!-- 120 -->
      <g transform="translate(318.919993 322.182437) scale(0.1 -0.1)">
       <use xlink:href="#DejaVuSans-31"/>
       <use xlink:href="#DejaVuSans-32" x="63.623047"/>
       <use xlink:href="#DejaVuSans-30" x="127.246094"/>
      </g>
     </g>
    </g>
    <g id="xtick_8">
     <g id="line2d_8">
      <g>
       <use xlink:href="#m97ea71107e" x="370.902246" y="307.584" style="stroke: #000000; stroke-width: 0.8"/>
      </g>
     </g>
     <g id="text_8">
      <!-- 140 -->
      <g transform="translate(361.358496 322.182437) scale(0.1 -0.1)">
       <use xlink:href="#DejaVuSans-31"/>
       <use xlink:href="#DejaVuSans-34" x="63.623047"/>
       <use xlink:href="#DejaVuSans-30" x="127.246094"/>
      </g>
     </g>
    </g>
    <g id="xtick_9">
     <g id="line2d_9">
      <g>
       <use xlink:href="#m97ea71107e" x="413.340749" y="307.584" style="stroke: #000000; stroke-width: 0.8"/>
      </g>
     </g>
     <g id="text_9">
      <!-- 160 -->
      <g transform="translate(403.796999 322.182437) scale(0.1 -0.1)">
       <use xlink:href="#DejaVuSans-31"/>
       <use xlink:href="#DejaVuSans-36" x="63.623047"/>
       <use xlink:href="#DejaVuSans-30" x="127.246094"/>
      </g>
     </g>
    </g>
   </g>
   <g id="matplotlib.axis_2">
    <g id="ytick_1">
     <g id="line2d_10">
      <defs>
       <path id="me66d34dbba" d="M 0 0 
L -3.5 0 
" style="stroke: #000000; stroke-width: 0.8"/>
      </defs>
      <g>
       <use xlink:href="#me66d34dbba" x="57.6" y="303.238256" style="stroke: #000000; stroke-width: 0.8"/>
      </g>
     </g>
     <g id="text_10">
      <!-- −0.02 -->
      <g transform="translate(19.954687 307.037475) scale(0.1 -0.1)">
       <defs>
        <path id="DejaVuSans-2212" d="M 678 2272 
L 4684 2272 
L 4684 1741 
L 678 1741 
L 678 2272 
z
" transform="scale(0.015625)"/>
        <path id="DejaVuSans-2e" d="M 684 794 
L 1344 794 
L 1344 0 
L 684 0 
L 684 794 
z
" transform="scale(0.015625)"/>
       </defs>
       <use xlink:href="#DejaVuSans-2212"/>
       <use xlink:href="#DejaVuSans-30" x="83.789062"/>
       <use xlink:href="#DejaVuSans-2e" x="147.412109"/>
       <use xlink:href="#DejaVuSans-30" x="179.199219"/>
       <use xlink:href="#DejaVuSans-32" x="242.822266"/>
      </g>
     </g>
    </g>
    <g id="ytick_2">
     <g id="line2d_11">
      <g>
       <use xlink:href="#me66d34dbba" x="57.6" y="252.896038" style="stroke: #000000; stroke-width: 0.8"/>
      </g>
     </g>
     <g id="text_11">
      <!-- −0.01 -->
      <g transform="translate(19.954687 256.695256) scale(0.1 -0.1)">
       <use xlink:href="#DejaVuSans-2212"/>
       <use xlink:href="#DejaVuSans-30" x="83.789062"/>
       <use xlink:href="#DejaVuSans-2e" x="147.412109"/>
       <use xlink:href="#DejaVuSans-30" x="179.199219"/>
       <use xlink:href="#DejaVuSans-31" x="242.822266"/>
      </g>
     </g>
    </g>
    <g id="ytick_3">
     <g id="line2d_12">
      <g>
       <use xlink:href="#me66d34dbba" x="57.6" y="202.55382" style="stroke: #000000; stroke-width: 0.8"/>
      </g>
     </g>
     <g id="text_12">
      <!-- 0.00 -->
      <g transform="translate(28.334375 206.353038) scale(0.1 -0.1)">
       <use xlink:href="#DejaVuSans-30"/>
       <use xlink:href="#DejaVuSans-2e" x="63.623047"/>
       <use xlink:href="#DejaVuSans-30" x="95.410156"/>
       <use xlink:href="#DejaVuSans-30" x="159.033203"/>
      </g>
     </g>
    </g>
    <g id="ytick_4">
     <g id="line2d_13">
      <g>
       <use xlink:href="#me66d34dbba" x="57.6" y="152.211601" style="stroke: #000000; stroke-width: 0.8"/>
      </g>
     </g>
     <g id="text_13">
      <!-- 0.01 -->
      <g transform="translate(28.334375 156.01082) scale(0.1 -0.1)">
       <use xlink:href="#DejaVuSans-30"/>
       <use xlink:href="#DejaVuSans-2e" x="63.623047"/>
       <use xlink:href="#DejaVuSans-30" x="95.410156"/>
       <use xlink:href="#DejaVuSans-31" x="159.033203"/>
      </g>
     </g>
    </g>
    <g id="ytick_5">
     <g id="line2d_14">
      <g>
       <use xlink:href="#me66d34dbba" x="57.6" y="101.869383" style="stroke: #000000; stroke-width: 0.8"/>
      </g>
     </g>
     <g id="text_14">
      <!-- 0.02 -->
      <g transform="translate(28.334375 105.668602) scale(0.1 -0.1)">
       <use xlink:href="#DejaVuSans-30"/>
       <use xlink:href="#DejaVuSans-2e" x="63.623047"/>
       <use xlink:href="#DejaVuSans-30" x="95.410156"/>
       <use xlink:href="#DejaVuSans-32" x="159.033203"/>
      </g>
     </g>
    </g>
    <g id="ytick_6">
     <g id="line2d_15">
      <g>
       <use xlink:href="#me66d34dbba" x="57.6" y="51.527165" style="stroke: #000000; stroke-width: 0.8"/>
      </g>
     </g>
     <g id="text_15">
      <!-- 0.03 -->
      <g transform="translate(28.334375 55.326384) scale(0.1 -0.1)">
       <defs>
        <path id="DejaVuSans-33" d="M 2597 2516 
Q 3050 2419 3304 2112 
Q 3559 1806 3559 1356 
Q 3559 666 3084 287 
Q 2609 -91 1734 -91 
Q 1441 -91 1130 -33 
Q 819 25 488 141 
L 488 750 
Q 750 597 1062 519 
Q 1375 441 1716 441 
Q 2309 441 2620 675 
Q 2931 909 2931 1356 
Q 2931 1769 2642 2001 
Q 2353 2234 1838 2234 
L 1294 2234 
L 1294 2753 
L 1863 2753 
Q 2328 2753 2575 2939 
Q 2822 3125 2822 3475 
Q 2822 3834 2567 4026 
Q 2313 4219 1838 4219 
Q 1578 4219 1281 4162 
Q 984 4106 628 3988 
L 628 4550 
Q 988 4650 1302 4700 
Q 1616 4750 1894 4750 
Q 2613 4750 3031 4423 
Q 3450 4097 3450 3541 
Q 3450 3153 3228 2886 
Q 3006 2619 2597 2516 
z
" transform="scale(0.015625)"/>
       </defs>
       <use xlink:href="#DejaVuSans-30"/>
       <use xlink:href="#DejaVuSans-2e" x="63.623047"/>
       <use xlink:href="#DejaVuSans-30" x="95.410156"/>
       <use xlink:href="#DejaVuSans-33" x="159.033203"/>
      </g>
     </g>
    </g>
   </g>
   <g id="line2d_16">
    <path d="M 73.832727 205.500139 
L 75.954652 195.948276 
L 78.076578 203.788847 
L 80.198503 195.131907 
L 82.320428 201.272163 
L 84.442353 187.168719 
L 86.564278 194.687955 
L 88.686203 198.512364 
L 90.808128 194.426367 
L 92.930053 204.883728 
L 95.051979 207.09805 
L 97.173904 200.796697 
L 99.295829 199.143164 
L 101.417754 204.858757 
L 103.539679 205.734268 
L 105.661604 211.923675 
L 107.783529 189.961902 
L 109.905455 201.901155 
L 112.02738 201.976327 
L 114.149305 198.899196 
L 116.27123 208.279603 
L 118.393155 203.647626 
L 120.51508 206.276691 
L 122.637005 207.675463 
L 124.75893 193.916947 
L 126.880856 205.650905 
L 129.002781 203.471073 
L 131.124706 195.62312 
L 133.246631 212.005632 
L 135.368556 195.986025 
L 137.490481 205.830328 
L 139.612406 200.488408 
L 141.734332 203.647373 
L 143.856257 204.283848 
L 145.978182 204.216585 
L 148.100107 211.668117 
L 150.222032 199.215246 
L 152.343957 197.571846 
L 154.465882 208.037643 
L 156.587807 200.047775 
L 158.709733 197.816027 
L 160.831658 204.125818 
L 162.953583 202.957829 
L 165.075508 211.038168 
L 167.197433 203.137495 
L 169.319358 198.547757 
L 171.441283 201.906813 
L 173.563209 208.692841 
L 175.685134 206.347085 
L 177.807059 198.769887 
L 179.928984 198.769788 
L 182.050909 199.691608 
L 184.172834 198.819368 
L 186.294759 231.481378 
L 188.416684 168.741123 
L 190.53861 210.235918 
L 192.660535 207.774987 
L 194.78246 208.216054 
L 196.904385 196.409611 
L 199.02631 218.056687 
L 201.148235 209.74176 
L 203.27016 202.151943 
L 205.392086 207.523472 
L 207.514011 220.263077 
L 209.635936 207.777876 
L 211.757861 203.567839 
L 213.879786 206.19666 
L 216.001711 204.909554 
L 218.123636 198.346371 
L 220.245561 200.802135 
L 222.367487 197.763927 
L 224.489412 212.240267 
L 226.611337 208.395561 
L 228.733262 207.685753 
L 230.855187 205.943987 
L 232.977112 201.505393 
L 235.099037 202.399192 
L 237.220963 197.218453 
L 239.342888 206.342195 
L 241.464813 193.893276 
L 243.586738 199.067871 
L 245.708663 195.810291 
L 247.830588 211.053405 
L 249.952513 205.731833 
L 252.074439 207.55505 
L 254.196364 203.29298 
L 256.318289 200.08433 
L 258.440214 194.841423 
L 260.562139 200.487297 
L 262.684064 196.359503 
L 264.805989 201.528934 
L 266.927914 203.193519 
L 269.04984 212.229902 
L 271.171765 194.37683 
L 273.29369 196.769318 
L 275.415615 201.800105 
L 277.53754 200.648734 
L 279.659465 196.331978 
L 281.78139 195.768361 
L 283.903316 204.020939 
L 286.025241 205.111766 
L 288.147166 204.817995 
L 290.269091 202.903885 
L 292.391016 207.149256 
L 294.512941 196.555393 
L 296.634866 181.449806 
L 298.756791 211.429032 
L 300.878717 202.163862 
L 303.000642 190.69876 
L 305.122567 190.462687 
L 307.244492 196.10717 
L 309.366417 221.630765 
L 311.488342 191.897421 
L 313.610267 206.224852 
L 315.732193 183.362053 
L 317.854118 205.035525 
L 322.097968 198.147236 
L 324.219893 197.05211 
L 326.341818 209.056707 
L 328.463743 192.267803 
L 330.585668 200.509004 
L 332.707594 212.988902 
L 334.829519 221.929511 
L 336.951444 203.964188 
L 339.073369 209.978424 
L 341.195294 209.735378 
L 343.317219 201.961158 
L 345.439144 213.219384 
L 347.56107 197.633348 
L 349.682995 196.116317 
L 351.80492 199.307092 
L 353.926845 205.208245 
L 356.04877 208.54879 
L 358.170695 211.056115 
L 362.414545 193.835997 
L 364.536471 195.346665 
L 366.658396 204.734609 
L 368.780321 208.787829 
L 370.902246 206.090802 
L 373.024171 209.55971 
L 375.146096 195.974918 
L 377.268021 195.439152 
L 379.389947 197.823806 
L 381.511872 196.249475 
L 383.633797 197.962893 
L 385.755722 199.408143 
L 387.877647 203.089028 
L 389.999572 210.159891 
L 392.121497 214.329556 
L 394.243422 193.767799 
L 396.365348 214.503349 
L 398.487273 204.650907 
L 398.487273 204.650907 
" clip-path="url(#p19918a523f)" style="fill: none; stroke: #008000; stroke-opacity: 0.8; stroke-width: 0.5; stroke-linecap: square"/>
   </g>
   <g id="line2d_17">
    <path d="M 73.832727 160.016048 
L 75.954652 152.917548 
L 78.076578 163.080746 
L 80.198503 146.706446 
L 82.320428 174.087509 
L 84.442353 158.754886 
L 86.564278 144.343697 
L 88.686203 151.161762 
L 90.808128 78.565063 
L 92.930053 160.970177 
L 95.051979 180.257818 
L 97.173904 147.6894 
L 99.295829 165.241121 
L 101.417754 141.573434 
L 103.539679 162.292766 
L 105.661604 172.149186 
L 107.783529 149.892042 
L 109.905455 164.466582 
L 112.02738 169.322151 
L 114.149305 155.932376 
L 116.27123 164.330539 
L 118.393155 177.342501 
L 120.51508 161.303158 
L 122.637005 133.679478 
L 124.75893 165.61193 
L 126.880856 181.830268 
L 129.002781 170.157645 
L 131.124706 145.375567 
L 133.246631 173.917857 
L 135.368556 165.721129 
L 137.490481 172.824552 
L 139.612406 168.411303 
L 141.734332 190.768283 
L 143.856257 189.023406 
L 145.978182 172.841662 
L 148.100107 185.042623 
L 150.222032 162.901206 
L 152.343957 177.484433 
L 154.465882 163.141032 
L 156.587807 180.56503 
L 158.709733 167.285352 
L 160.831658 168.852499 
L 162.953583 175.939144 
L 165.075508 194.754123 
L 167.197433 187.762933 
L 169.319358 178.696072 
L 171.441283 184.402685 
L 173.563209 170.108585 
L 175.685134 178.307781 
L 177.807059 177.897572 
L 179.928984 181.596971 
L 182.050909 179.856137 
L 184.172834 180.046021 
L 186.294759 181.635852 
L 188.416684 54.476234 
L 190.53861 151.979178 
L 192.660535 165.236425 
L 194.78246 183.890215 
L 196.904385 167.380026 
L 199.02631 177.727164 
L 201.148235 159.783297 
L 203.27016 173.507263 
L 205.392086 175.51756 
L 207.514011 200.129237 
L 209.635936 152.759344 
L 211.757861 147.205026 
L 213.879786 158.384454 
L 216.001711 179.934131 
L 218.123636 166.484291 
L 220.245561 166.43072 
L 222.367487 161.556691 
L 224.489412 169.029509 
L 226.611337 188.567328 
L 230.855187 171.353969 
L 232.977112 138.2189 
L 235.099037 163.813412 
L 237.220963 162.439106 
L 239.342888 177.774282 
L 241.464813 162.831187 
L 243.586738 160.760402 
L 245.708663 153.819924 
L 247.830588 191.567296 
L 249.952513 154.272987 
L 252.074439 163.381512 
L 254.196364 174.097237 
L 256.318289 165.402136 
L 258.440214 143.237405 
L 260.562139 174.41968 
L 262.684064 155.145117 
L 264.805989 165.72029 
L 266.927914 162.4755 
L 269.04984 196.932903 
L 271.171765 179.005492 
L 273.29369 165.727062 
L 275.415615 177.574031 
L 277.53754 144.26132 
L 279.659465 144.620317 
L 281.78139 162.029684 
L 283.903316 172.76365 
L 286.025241 163.252288 
L 288.147166 170.31032 
L 290.269091 163.929844 
L 292.391016 150.007363 
L 294.512941 168.798315 
L 296.634866 111.079192 
L 298.756791 164.104551 
L 300.878717 153.199041 
L 303.000642 163.494705 
L 305.122567 149.815407 
L 307.244492 138.161661 
L 309.366417 167.122223 
L 311.488342 134.137493 
L 313.610267 166.369428 
L 315.732193 119.474851 
L 317.854118 140.219802 
L 319.976043 151.915819 
L 322.097968 151.88286 
L 324.219893 159.137802 
L 326.341818 125.631585 
L 328.463743 128.964984 
L 330.585668 138.156184 
L 332.707594 141.669336 
L 334.829519 167.038201 
L 336.951444 160.406657 
L 339.073369 175.809699 
L 341.195294 171.543207 
L 343.317219 131.448566 
L 345.439144 186.532349 
L 347.56107 142.610762 
L 349.682995 167.164249 
L 351.80492 170.979407 
L 353.926845 130.708217 
L 356.04877 148.869323 
L 358.170695 171.357774 
L 360.29262 156.704881 
L 362.414545 169.091054 
L 364.536471 173.930618 
L 366.658396 174.167981 
L 368.780321 171.039426 
L 370.902246 179.482727 
L 373.024171 171.488401 
L 375.146096 149.31793 
L 377.268021 179.069335 
L 379.389947 152.718686 
L 381.511872 157.118568 
L 383.633797 172.846606 
L 385.755722 155.512267 
L 387.877647 167.59615 
L 389.999572 184.047274 
L 392.121497 183.480268 
L 394.243422 156.139942 
L 396.365348 147.731576 
L 398.487273 183.955089 
L 398.487273 183.955089 
" clip-path="url(#p19918a523f)" style="fill: none; stroke: #32cd32; stroke-opacity: 0.8; stroke-width: 0.5; stroke-linecap: square"/>
   </g>
   <g id="line2d_18">
    <path d="M 73.832727 263.238201 
L 75.954652 239.444232 
L 78.076578 247.998089 
L 80.198503 240.851889 
L 82.320428 225.266428 
L 84.442353 226.753181 
L 86.564278 241.292141 
L 88.686203 273.668391 
L 90.808128 244.209304 
L 92.930053 232.8718 
L 95.051979 263.525514 
L 97.173904 256.846493 
L 99.295829 231.775441 
L 101.417754 242.412989 
L 103.539679 259.521681 
L 105.661604 255.447581 
L 107.783529 228.023428 
L 109.905455 229.741178 
L 112.02738 246.638741 
L 114.149305 241.68957 
L 116.27123 248.173323 
L 118.393155 227.069077 
L 122.637005 256.882597 
L 124.75893 216.261941 
L 126.880856 253.931796 
L 129.002781 233.540135 
L 131.124706 217.865609 
L 133.246631 239.79807 
L 135.368556 226.216355 
L 137.490481 227.793877 
L 139.612406 220.023621 
L 141.734332 215.545837 
L 143.856257 229.510111 
L 145.978182 237.340772 
L 148.100107 249.619382 
L 150.222032 226.656288 
L 152.343957 222.799254 
L 154.465882 269.757572 
L 156.587807 230.038202 
L 158.709733 232.169389 
L 160.831658 237.197578 
L 162.953583 220.242492 
L 165.075508 232.874261 
L 167.197433 223.474134 
L 169.319358 219.97422 
L 171.441283 211.717994 
L 173.563209 233.050289 
L 175.685134 240.613831 
L 177.807059 223.347376 
L 179.928984 214.205259 
L 182.050909 233.162384 
L 184.172834 232.13204 
L 186.294759 283.884104 
L 188.416684 219.10573 
L 190.53861 287.024613 
L 192.660535 252.441008 
L 194.78246 242.026121 
L 196.904385 219.568883 
L 199.02631 256.558852 
L 201.148235 261.098099 
L 203.27016 248.91862 
L 205.392086 233.933917 
L 207.514011 236.480522 
L 209.635936 256.222538 
L 211.757861 239.530535 
L 213.879786 246.518807 
L 216.001711 219.857924 
L 218.123636 233.861332 
L 220.245561 232.850808 
L 222.367487 231.409846 
L 224.489412 266.422193 
L 226.611337 225.608376 
L 228.733262 268.991474 
L 230.855187 231.237013 
L 232.977112 240.13923 
L 235.099037 230.978001 
L 237.220963 245.926309 
L 239.342888 231.578779 
L 241.464813 225.35027 
L 243.586738 240.218587 
L 245.708663 231.615608 
L 247.830588 225.858731 
L 249.952513 243.888123 
L 252.074439 251.754059 
L 254.196364 234.77007 
L 256.318289 225.988224 
L 258.440214 219.611737 
L 260.562139 236.65158 
L 262.684064 226.578974 
L 264.805989 227.696861 
L 266.927914 238.495501 
L 269.04984 232.707214 
L 271.171765 211.719351 
L 273.29369 224.938688 
L 275.415615 231.200394 
L 277.53754 242.090231 
L 279.659465 222.941654 
L 281.78139 241.937477 
L 283.903316 243.491212 
L 286.025241 226.619678 
L 288.147166 233.397504 
L 290.269091 237.824873 
L 292.391016 266.689261 
L 294.512941 230.232928 
L 296.634866 225.419497 
L 298.756791 287.560565 
L 300.878717 248.94918 
L 303.000642 234.062825 
L 305.122567 235.831041 
L 307.244492 247.887222 
L 309.366417 264.718914 
L 311.488342 252.801007 
L 313.610267 245.345812 
L 315.732193 219.823823 
L 317.854118 251.24986 
L 319.976043 249.516558 
L 322.097968 254.442724 
L 324.219893 242.642414 
L 326.341818 253.538722 
L 328.463743 265.31352 
L 330.585668 277.91077 
L 332.707594 265.08547 
L 334.829519 294.638226 
L 336.951444 256.235378 
L 339.073369 257.594179 
L 341.195294 249.701917 
L 343.317219 265.089229 
L 345.439144 247.396777 
L 347.56107 276.306457 
L 349.682995 229.080674 
L 351.80492 244.107672 
L 353.926845 249.181491 
L 356.04877 251.758466 
L 358.170695 252.646043 
L 360.29262 240.128619 
L 362.414545 226.893108 
L 364.536471 221.601866 
L 366.658396 243.235748 
L 368.780321 252.142501 
L 370.902246 245.242149 
L 373.024171 271.017906 
L 375.146096 230.843308 
L 377.268021 206.912395 
L 379.389947 231.570773 
L 381.511872 215.847442 
L 383.633797 234.997411 
L 385.755722 223.618598 
L 389.999572 259.617646 
L 392.121497 286.331419 
L 394.243422 229.028854 
L 396.365348 258.381669 
L 398.487273 237.310641 
L 398.487273 237.310641 
" clip-path="url(#p19918a523f)" style="fill: none; stroke: #32cd32; stroke-opacity: 0.8; stroke-width: 0.5; stroke-linecap: square"/>
   </g>
   <g id="line2d_19">
    <path d="M 73.832727 204.643662 
L 75.954652 193.92654 
L 78.076578 206.141444 
L 80.198503 196.247742 
L 82.320428 204.115188 
L 84.442353 183.896406 
L 86.564278 196.051303 
L 88.686203 206.427859 
L 90.808128 199.010885 
L 92.930053 206.153956 
L 95.051979 211.84097 
L 97.173904 206.36216 
L 99.295829 199.388984 
L 101.417754 210.504388 
L 103.539679 204.365956 
L 105.661604 212.087261 
L 107.783529 196.997152 
L 109.905455 202.306244 
L 112.02738 200.828308 
L 114.149305 203.58668 
L 116.27123 209.277564 
L 118.393155 203.534931 
L 120.51508 209.317561 
L 122.637005 210.241673 
L 124.75893 194.682925 
L 126.880856 204.1207 
L 129.002781 205.276435 
L 131.124706 198.209461 
L 133.246631 216.229023 
L 135.368556 197.165665 
L 137.490481 206.301637 
L 139.612406 202.905283 
L 141.734332 203.912542 
L 143.856257 203.780963 
L 145.978182 206.299559 
L 148.100107 212.758881 
L 150.222032 197.946118 
L 152.343957 196.477073 
L 154.465882 208.780026 
L 156.587807 199.825228 
L 158.709733 198.808875 
L 160.831658 204.564184 
L 162.953583 202.187256 
L 165.075508 212.309949 
L 169.319358 198.039068 
L 171.441283 201.109962 
L 173.563209 210.198634 
L 175.685134 207.671934 
L 177.807059 199.711556 
L 182.050909 200.047334 
L 184.172834 199.265695 
L 186.294759 232.754245 
L 188.416684 169.318711 
L 190.53861 210.146977 
L 192.660535 207.515437 
L 194.78246 208.675986 
L 196.904385 197.560212 
L 199.02631 218.43976 
L 201.148235 209.734521 
L 203.27016 202.857 
L 205.392086 207.708547 
L 207.514011 220.580362 
L 209.635936 209.48039 
L 211.757861 203.819162 
L 213.879786 204.694836 
L 216.001711 204.087366 
L 218.123636 197.432616 
L 220.245561 202.861055 
L 222.367487 199.147586 
L 224.489412 213.688751 
L 226.611337 209.613753 
L 228.733262 211.158811 
L 230.855187 205.648172 
L 232.977112 202.278212 
L 235.099037 202.325657 
L 237.220963 197.278817 
L 239.342888 206.879876 
L 241.464813 192.943722 
L 243.586738 201.468207 
L 245.708663 199.219939 
L 247.830588 213.441042 
L 249.952513 206.97781 
L 252.074439 207.625114 
L 254.196364 204.793715 
L 256.318289 199.10499 
L 258.440214 195.495714 
L 260.562139 200.938386 
L 262.684064 198.495033 
L 264.805989 202.367047 
L 266.927914 198.865664 
L 269.04984 212.857616 
L 271.171765 195.553748 
L 273.29369 195.963014 
L 275.415615 202.073656 
L 277.53754 200.927832 
L 279.659465 197.428804 
L 281.78139 197.545996 
L 283.903316 204.500439 
L 286.025241 204.691388 
L 288.147166 203.453936 
L 290.269091 203.655612 
L 292.391016 210.579738 
L 294.512941 197.30152 
L 296.634866 182.776591 
L 298.756791 214.16253 
L 300.878717 204.939464 
L 303.000642 193.929214 
L 305.122567 191.268411 
L 307.244492 196.769699 
L 309.366417 221.552566 
L 311.488342 191.420489 
L 313.610267 209.40304 
L 315.732193 184.744542 
L 317.854118 205.600399 
L 319.976043 200.466068 
L 322.097968 196.073556 
L 324.219893 198.670638 
L 326.341818 210.4944 
L 328.463743 194.257513 
L 330.585668 199.687203 
L 332.707594 216.271807 
L 334.829519 223.361031 
L 336.951444 205.203793 
L 339.073369 212.114597 
L 341.195294 211.677749 
L 343.317219 202.366465 
L 345.439144 214.961747 
L 347.56107 198.977816 
L 349.682995 196.935074 
L 351.80492 197.578258 
L 353.926845 205.269806 
L 356.04877 208.906892 
L 358.170695 212.978114 
L 360.29262 204.554519 
L 362.414545 194.048309 
L 364.536471 198.339218 
L 366.658396 204.230966 
L 368.780321 211.027291 
L 370.902246 207.449757 
L 373.024171 210.133935 
L 375.146096 197.180482 
L 377.268021 198.746387 
L 379.389947 198.286407 
L 381.511872 195.355022 
L 383.633797 199.712424 
L 385.755722 201.38922 
L 387.877647 205.602954 
L 389.999572 210.079209 
L 392.121497 215.512836 
L 394.243422 194.493075 
L 396.365348 216.436274 
L 398.487273 204.11191 
L 398.487273 204.11191 
" clip-path="url(#p19918a523f)" style="fill: none; stroke: #ff0000; stroke-opacity: 0.8; stroke-width: 0.5; stroke-linecap: square"/>
   </g>
   <g id="line2d_20">
    <path d="M 73.832727 146.753803 
L 75.954652 138.461862 
L 78.076578 170.776033 
L 80.198503 135.249524 
L 82.320428 180.680502 
L 84.442353 147.749455 
L 86.564278 130.873846 
L 88.686203 171.091814 
L 90.808128 94.942201 
L 92.930053 161.172343 
L 95.051979 176.165443 
L 97.173904 166.526826 
L 99.295829 153.927724 
L 101.417754 132.350336 
L 103.539679 169.994806 
L 105.661604 173.910739 
L 107.783529 154.518285 
L 109.905455 163.456596 
L 112.02738 165.051137 
L 114.149305 158.333165 
L 116.27123 165.144345 
L 118.393155 178.481839 
L 120.51508 163.278093 
L 122.637005 133.318391 
L 124.75893 173.205349 
L 126.880856 175.319411 
L 129.002781 174.302888 
L 131.124706 149.267126 
L 133.246631 182.789451 
L 135.368556 169.828524 
L 137.490481 178.567191 
L 139.612406 171.336787 
L 141.734332 183.76526 
L 143.856257 185.764569 
L 145.978182 176.488392 
L 148.100107 193.121533 
L 150.222032 163.702995 
L 152.343957 175.028869 
L 154.465882 158.48387 
L 156.587807 180.67216 
L 158.709733 166.5754 
L 160.831658 164.67111 
L 162.953583 173.800151 
L 165.075508 194.848709 
L 167.197433 187.780323 
L 169.319358 173.245132 
L 171.441283 176.348251 
L 173.563209 174.208918 
L 175.685134 182.28817 
L 177.807059 178.205193 
L 179.928984 183.389175 
L 182.050909 176.582408 
L 184.172834 182.037526 
L 186.294759 183.579507 
L 188.416684 53.568 
L 190.53861 150.054878 
L 194.78246 180.81623 
L 196.904385 173.287076 
L 199.02631 180.890427 
L 201.148235 162.462948 
L 203.27016 169.355138 
L 205.392086 175.829756 
L 207.514011 189.82504 
L 209.635936 154.132121 
L 211.757861 152.645454 
L 213.879786 162.347072 
L 216.001711 177.229357 
L 218.123636 162.274575 
L 220.245561 165.1763 
L 222.367487 166.661567 
L 224.489412 167.774757 
L 226.611337 191.674247 
L 228.733262 186.23697 
L 230.855187 177.463584 
L 232.977112 145.172808 
L 235.099037 160.14893 
L 237.220963 163.286306 
L 239.342888 181.262682 
L 241.464813 163.280701 
L 243.586738 167.090618 
L 245.708663 160.847272 
L 247.830588 192.667103 
L 249.952513 152.085063 
L 252.074439 168.186394 
L 254.196364 171.213669 
L 256.318289 166.281558 
L 258.440214 134.13045 
L 260.562139 181.170032 
L 262.684064 159.407006 
L 264.805989 161.469214 
L 266.927914 169.353474 
L 269.04984 194.213901 
L 273.29369 159.080091 
L 275.415615 181.729222 
L 277.53754 138.169523 
L 279.659465 147.459352 
L 281.78139 156.239859 
L 283.903316 176.689433 
L 286.025241 161.047899 
L 288.147166 167.508145 
L 290.269091 156.78544 
L 292.391016 158.860683 
L 294.512941 167.909776 
L 296.634866 109.881619 
L 298.756791 166.152569 
L 300.878717 162.444197 
L 303.000642 162.356068 
L 305.122567 152.325046 
L 307.244492 134.629798 
L 309.366417 164.959328 
L 311.488342 141.969775 
L 313.610267 169.280687 
L 315.732193 109.445465 
L 317.854118 147.922942 
L 319.976043 150.299254 
L 322.097968 153.235106 
L 324.219893 156.999443 
L 326.341818 126.534768 
L 328.463743 127.127801 
L 330.585668 138.684452 
L 332.707594 138.969113 
L 334.829519 166.221615 
L 336.951444 159.991813 
L 339.073369 178.169843 
L 341.195294 172.172046 
L 343.317219 141.015015 
L 345.439144 184.623279 
L 347.56107 144.523928 
L 349.682995 170.318661 
L 351.80492 167.671737 
L 353.926845 127.510742 
L 356.04877 151.407667 
L 358.170695 171.791675 
L 360.29262 161.544858 
L 362.414545 166.279996 
L 364.536471 177.008342 
L 366.658396 171.150204 
L 368.780321 174.090062 
L 370.902246 181.740189 
L 373.024171 167.465273 
L 375.146096 152.31449 
L 377.268021 183.327364 
L 379.389947 158.095794 
L 381.511872 151.235942 
L 383.633797 176.218194 
L 385.755722 156.249554 
L 387.877647 169.364936 
L 389.999572 180.149351 
L 392.121497 186.103825 
L 394.243422 159.035958 
L 396.365348 153.095674 
L 398.487273 182.119265 
L 398.487273 182.119265 
" clip-path="url(#p19918a523f)" style="fill: none; stroke: #f08080; stroke-opacity: 0.8; stroke-width: 0.5; stroke-linecap: square"/>
   </g>
   <g id="line2d_21">
    <path d="M 73.832727 252.174295 
L 75.954652 252.952301 
L 78.076578 256.785406 
L 80.198503 248.462477 
L 82.320428 241.943937 
L 84.442353 224.317652 
L 86.564278 255.213343 
L 88.686203 276.381583 
L 90.808128 241.250545 
L 92.930053 247.191725 
L 95.051979 254.271879 
L 97.173904 259.488956 
L 99.295829 225.859694 
L 101.417754 255.965143 
L 103.539679 247.863633 
L 105.661604 244.265077 
L 107.783529 236.372535 
L 109.905455 230.315692 
L 112.02738 239.388354 
L 114.149305 237.661791 
L 116.27123 247.955046 
L 118.393155 231.408741 
L 120.51508 240.275016 
L 122.637005 254.496826 
L 124.75893 215.794961 
L 126.880856 249.072079 
L 129.002781 230.965641 
L 131.124706 222.270359 
L 133.246631 245.094502 
L 135.368556 220.517071 
L 137.490481 224.77311 
L 139.612406 227.2944 
L 141.734332 221.470423 
L 143.856257 221.886037 
L 145.978182 245.391776 
L 148.100107 247.01302 
L 150.222032 225.765093 
L 152.343957 223.395195 
L 154.465882 270.804334 
L 156.587807 231.322023 
L 158.709733 236.587415 
L 160.831658 236.980671 
L 162.953583 220.959225 
L 165.075508 232.633677 
L 167.197433 223.139827 
L 169.319358 223.125347 
L 171.441283 212.116802 
L 173.563209 233.700669 
L 175.685134 244.36208 
L 177.807059 218.8516 
L 179.928984 217.679968 
L 182.050909 237.416055 
L 184.172834 230.928154 
L 186.294759 287.878928 
L 188.416684 222.405111 
L 190.53861 285.098176 
L 192.660535 252.077137 
L 194.78246 240.710633 
L 196.904385 221.296055 
L 199.02631 253.747048 
L 201.148235 254.581348 
L 203.27016 256.483381 
L 205.392086 235.830705 
L 207.514011 240.171285 
L 209.635936 260.041338 
L 211.757861 236.49207 
L 213.879786 255.683509 
L 216.001711 223.200842 
L 218.123636 238.39036 
L 220.245561 239.024443 
L 222.367487 234.061286 
L 224.489412 267.176534 
L 226.611337 232.719265 
L 228.733262 269.376611 
L 230.855187 237.370063 
L 232.977112 236.454734 
L 235.099037 236.234767 
L 237.220963 246.07733 
L 241.464813 222.253867 
L 243.586738 242.794685 
L 245.708663 233.425942 
L 247.830588 235.354145 
L 249.952513 243.079337 
L 252.074439 259.052118 
L 254.196364 233.912284 
L 256.318289 223.843961 
L 258.440214 222.469919 
L 260.562139 229.342686 
L 262.684064 233.082523 
L 264.805989 228.529386 
L 266.927914 233.383669 
L 269.04984 227.029672 
L 271.171765 210.86226 
L 273.29369 229.314545 
L 275.415615 229.135772 
L 277.53754 245.250125 
L 279.659465 224.699819 
L 281.78139 245.259897 
L 283.903316 240.732675 
L 286.025241 227.654754 
L 288.147166 234.923558 
L 290.269091 241.225157 
L 292.391016 265.726324 
L 294.512941 231.57411 
L 296.634866 221.169644 
L 298.756791 291.528519 
L 300.878717 252.200496 
L 303.000642 242.462291 
L 305.122567 230.880905 
L 307.244492 254.405979 
L 309.366417 262.429994 
L 311.488342 251.533202 
L 313.610267 251.881791 
L 315.732193 222.0045 
L 317.854118 243.920441 
L 319.976043 244.857334 
L 322.097968 247.427868 
L 324.219893 245.546137 
L 326.341818 246.465456 
L 328.463743 266.80532 
L 330.585668 276.838751 
L 332.707594 267.681712 
L 334.829519 294.838662 
L 336.951444 256.092031 
L 339.073369 254.851533 
L 341.195294 244.795835 
L 343.317219 265.56585 
L 345.439144 254.554194 
L 347.56107 282.991635 
L 349.682995 223.361718 
L 351.80492 248.580279 
L 353.926845 252.447917 
L 356.04877 250.76351 
L 358.170695 261.117067 
L 360.29262 242.762071 
L 362.414545 231.786608 
L 364.536471 232.535001 
L 366.658396 242.328529 
L 368.780321 253.695275 
L 370.902246 242.485346 
L 373.024171 266.029874 
L 375.146096 229.804133 
L 377.268021 211.38826 
L 379.389947 238.645296 
L 381.511872 219.090562 
L 383.633797 230.524511 
L 385.755722 222.695386 
L 387.877647 240.564499 
L 389.999572 259.876909 
L 392.121497 295.488 
L 394.243422 224.05601 
L 396.365348 261.048106 
L 398.487273 234.308855 
L 398.487273 234.308855 
" clip-path="url(#p19918a523f)" style="fill: none; stroke: #f08080; stroke-opacity: 0.8; stroke-width: 0.5; stroke-linecap: square"/>
   </g>
   <g id="patch_3">
    <path d="M 57.6 307.584 
L 57.6 41.472 
" style="fill: none; stroke: #000000; stroke-width: 0.8; stroke-linejoin: miter; stroke-linecap: square"/>
   </g>
   <g id="patch_4">
    <path d="M 414.72 307.584 
L 414.72 41.472 
" style="fill: none; stroke: #000000; stroke-width: 0.8; stroke-linejoin: miter; stroke-linecap: square"/>
   </g>
   <g id="patch_5">
    <path d="M 57.6 307.584 
L 414.72 307.584 
" style="fill: none; stroke: #000000; stroke-width: 0.8; stroke-linejoin: miter; stroke-linecap: square"/>
   </g>
   <g id="patch_6">
    <path d="M 57.6 41.472 
L 414.72 41.472 
" style="fill: none; stroke: #000000; stroke-width: 0.8; stroke-linejoin: miter; stroke-linecap: square"/>
   </g>
   <g id="text_16">
    <!-- 1final_colouring_eurusd -->
    <g transform="translate(164.863125 35.472) scale(0.12 -0.12)">
     <defs>
      <path id="DejaVuSans-66" d="M 2375 4863 
L 2375 4384 
L 1825 4384 
Q 1516 4384 1395 4259 
Q 1275 4134 1275 3809 
L 1275 3500 
L 2222 3500 
L 2222 3053 
L 1275 3053 
L 1275 0 
L 697 0 
L 697 3053 
L 147 3053 
L 147 3500 
L 697 3500 
L 697 3744 
Q 697 4328 969 4595 
Q 1241 4863 1831 4863 
L 2375 4863 
z
" transform="scale(0.015625)"/>
      <path id="DejaVuSans-69" d="M 603 3500 
L 1178 3500 
L 1178 0 
L 603 0 
L 603 3500 
z
M 603 4863 
L 1178 4863 
L 1178 4134 
L 603 4134 
L 603 4863 
z
" transform="scale(0.015625)"/>
      <path id="DejaVuSans-6e" d="M 3513 2113 
L 3513 0 
L 2938 0 
L 2938 2094 
Q 2938 2591 2744 2837 
Q 2550 3084 2163 3084 
Q 1697 3084 1428 2787 
Q 1159 2491 1159 1978 
L 1159 0 
L 581 0 
L 581 3500 
L 1159 3500 
L 1159 2956 
Q 1366 3272 1645 3428 
Q 1925 3584 2291 3584 
Q 2894 3584 3203 3211 
Q 3513 2838 3513 2113 
z
" transform="scale(0.015625)"/>
      <path id="DejaVuSans-61" d="M 2194 1759 
Q 1497 1759 1228 1600 
Q 959 1441 959 1056 
Q 959 750 1161 570 
Q 1363 391 1709 391 
Q 2188 391 2477 730 
Q 2766 1069 2766 1631 
L 2766 1759 
L 2194 1759 
z
M 3341 1997 
L 3341 0 
L 2766 0 
L 2766 531 
Q 2569 213 2275 61 
Q 1981 -91 1556 -91 
Q 1019 -91 701 211 
Q 384 513 384 1019 
Q 384 1609 779 1909 
Q 1175 2209 1959 2209 
L 2766 2209 
L 2766 2266 
Q 2766 2663 2505 2880 
Q 2244 3097 1772 3097 
Q 1472 3097 1187 3025 
Q 903 2953 641 2809 
L 641 3341 
Q 956 3463 1253 3523 
Q 1550 3584 1831 3584 
Q 2591 3584 2966 3190 
Q 3341 2797 3341 1997 
z
" transform="scale(0.015625)"/>
      <path id="DejaVuSans-6c" d="M 603 4863 
L 1178 4863 
L 1178 0 
L 603 0 
L 603 4863 
z
" transform="scale(0.015625)"/>
      <path id="DejaVuSans-5f" d="M 3263 -1063 
L 3263 -1509 
L -63 -1509 
L -63 -1063 
L 3263 -1063 
z
" transform="scale(0.015625)"/>
      <path id="DejaVuSans-63" d="M 3122 3366 
L 3122 2828 
Q 2878 2963 2633 3030 
Q 2388 3097 2138 3097 
Q 1578 3097 1268 2742 
Q 959 2388 959 1747 
Q 959 1106 1268 751 
Q 1578 397 2138 397 
Q 2388 397 2633 464 
Q 2878 531 3122 666 
L 3122 134 
Q 2881 22 2623 -34 
Q 2366 -91 2075 -91 
Q 1284 -91 818 406 
Q 353 903 353 1747 
Q 353 2603 823 3093 
Q 1294 3584 2113 3584 
Q 2378 3584 2631 3529 
Q 2884 3475 3122 3366 
z
" transform="scale(0.015625)"/>
      <path id="DejaVuSans-6f" d="M 1959 3097 
Q 1497 3097 1228 2736 
Q 959 2375 959 1747 
Q 959 1119 1226 758 
Q 1494 397 1959 397 
Q 2419 397 2687 759 
Q 2956 1122 2956 1747 
Q 2956 2369 2687 2733 
Q 2419 3097 1959 3097 
z
M 1959 3584 
Q 2709 3584 3137 3096 
Q 3566 2609 3566 1747 
Q 3566 888 3137 398 
Q 2709 -91 1959 -91 
Q 1206 -91 779 398 
Q 353 888 353 1747 
Q 353 2609 779 3096 
Q 1206 3584 1959 3584 
z
" transform="scale(0.015625)"/>
      <path id="DejaVuSans-75" d="M 544 1381 
L 544 3500 
L 1119 3500 
L 1119 1403 
Q 1119 906 1312 657 
Q 1506 409 1894 409 
Q 2359 409 2629 706 
Q 2900 1003 2900 1516 
L 2900 3500 
L 3475 3500 
L 3475 0 
L 2900 0 
L 2900 538 
Q 2691 219 2414 64 
Q 2138 -91 1772 -91 
Q 1169 -91 856 284 
Q 544 659 544 1381 
z
M 1991 3584 
L 1991 3584 
z
" transform="scale(0.015625)"/>
      <path id="DejaVuSans-72" d="M 2631 2963 
Q 2534 3019 2420 3045 
Q 2306 3072 2169 3072 
Q 1681 3072 1420 2755 
Q 1159 2438 1159 1844 
L 1159 0 
L 581 0 
L 581 3500 
L 1159 3500 
L 1159 2956 
Q 1341 3275 1631 3429 
Q 1922 3584 2338 3584 
Q 2397 3584 2469 3576 
Q 2541 3569 2628 3553 
L 2631 2963 
z
" transform="scale(0.015625)"/>
      <path id="DejaVuSans-67" d="M 2906 1791 
Q 2906 2416 2648 2759 
Q 2391 3103 1925 3103 
Q 1463 3103 1205 2759 
Q 947 2416 947 1791 
Q 947 1169 1205 825 
Q 1463 481 1925 481 
Q 2391 481 2648 825 
Q 2906 1169 2906 1791 
z
M 3481 434 
Q 3481 -459 3084 -895 
Q 2688 -1331 1869 -1331 
Q 1566 -1331 1297 -1286 
Q 1028 -1241 775 -1147 
L 775 -588 
Q 1028 -725 1275 -790 
Q 1522 -856 1778 -856 
Q 2344 -856 2625 -561 
Q 2906 -266 2906 331 
L 2906 616 
Q 2728 306 2450 153 
Q 2172 0 1784 0 
Q 1141 0 747 490 
Q 353 981 353 1791 
Q 353 2603 747 3093 
Q 1141 3584 1784 3584 
Q 2172 3584 2450 3431 
Q 2728 3278 2906 2969 
L 2906 3500 
L 3481 3500 
L 3481 434 
z
" transform="scale(0.015625)"/>
      <path id="DejaVuSans-65" d="M 3597 1894 
L 3597 1613 
L 953 1613 
Q 991 1019 1311 708 
Q 1631 397 2203 397 
Q 2534 397 2845 478 
Q 3156 559 3463 722 
L 3463 178 
Q 3153 47 2828 -22 
Q 2503 -91 2169 -91 
Q 1331 -91 842 396 
Q 353 884 353 1716 
Q 353 2575 817 3079 
Q 1281 3584 2069 3584 
Q 2775 3584 3186 3129 
Q 3597 2675 3597 1894 
z
M 3022 2063 
Q 3016 2534 2758 2815 
Q 2500 3097 2075 3097 
Q 1594 3097 1305 2825 
Q 1016 2553 972 2059 
L 3022 2063 
z
" transform="scale(0.015625)"/>
      <path id="DejaVuSans-73" d="M 2834 3397 
L 2834 2853 
Q 2591 2978 2328 3040 
Q 2066 3103 1784 3103 
Q 1356 3103 1142 2972 
Q 928 2841 928 2578 
Q 928 2378 1081 2264 
Q 1234 2150 1697 2047 
L 1894 2003 
Q 2506 1872 2764 1633 
Q 3022 1394 3022 966 
Q 3022 478 2636 193 
Q 2250 -91 1575 -91 
Q 1294 -91 989 -36 
Q 684 19 347 128 
L 347 722 
Q 666 556 975 473 
Q 1284 391 1588 391 
Q 1994 391 2212 530 
Q 2431 669 2431 922 
Q 2431 1156 2273 1281 
Q 2116 1406 1581 1522 
L 1381 1569 
Q 847 1681 609 1914 
Q 372 2147 372 2553 
Q 372 3047 722 3315 
Q 1072 3584 1716 3584 
Q 2034 3584 2315 3537 
Q 2597 3491 2834 3397 
z
" transform="scale(0.015625)"/>
      <path id="DejaVuSans-64" d="M 2906 2969 
L 2906 4863 
L 3481 4863 
L 3481 0 
L 2906 0 
L 2906 525 
Q 2725 213 2448 61 
Q 2172 -91 1784 -91 
Q 1150 -91 751 415 
Q 353 922 353 1747 
Q 353 2572 751 3078 
Q 1150 3584 1784 3584 
Q 2172 3584 2448 3432 
Q 2725 3281 2906 2969 
z
M 947 1747 
Q 947 1113 1208 752 
Q 1469 391 1925 391 
Q 2381 391 2643 752 
Q 2906 1113 2906 1747 
Q 2906 2381 2643 2742 
Q 2381 3103 1925 3103 
Q 1469 3103 1208 2742 
Q 947 2381 947 1747 
z
" transform="scale(0.015625)"/>
     </defs>
     <use xlink:href="#DejaVuSans-31"/>
     <use xlink:href="#DejaVuSans-66" x="63.623047"/>
     <use xlink:href="#DejaVuSans-69" x="98.828125"/>
     <use xlink:href="#DejaVuSans-6e" x="126.611328"/>
     <use xlink:href="#DejaVuSans-61" x="189.990234"/>
     <use xlink:href="#DejaVuSans-6c" x="251.269531"/>
     <use xlink:href="#DejaVuSans-5f" x="279.052734"/>
     <use xlink:href="#DejaVuSans-63" x="329.052734"/>
     <use xlink:href="#DejaVuSans-6f" x="384.033203"/>
     <use xlink:href="#DejaVuSans-6c" x="445.214844"/>
     <use xlink:href="#DejaVuSans-6f" x="472.998047"/>
     <use xlink:href="#DejaVuSans-75" x="534.179688"/>
     <use xlink:href="#DejaVuSans-72" x="597.558594"/>
     <use xlink:href="#DejaVuSans-69" x="638.671875"/>
     <use xlink:href="#DejaVuSans-6e" x="666.455078"/>
     <use xlink:href="#DejaVuSans-67" x="729.833984"/>
     <use xlink:href="#DejaVuSans-5f" x="793.310547"/>
     <use xlink:href="#DejaVuSans-65" x="843.310547"/>
     <use xlink:href="#DejaVuSans-75" x="904.833984"/>
     <use xlink:href="#DejaVuSans-72" x="968.212891"/>
     <use xlink:href="#DejaVuSans-75" x="1009.326172"/>
     <use xlink:href="#DejaVuSans-73" x="1072.705078"/>
     <use xlink:href="#DejaVuSans-64" x="1124.804688"/>
    </g>
   </g>
   <g id="legend_1">
    <g id="patch_7">
     <path d="M 64.6 137.54075 
L 225.001563 137.54075 
Q 227.001563 137.54075 227.001563 135.54075 
L 227.001563 48.472 
Q 227.001563 46.472 225.001563 46.472 
L 64.6 46.472 
Q 62.6 46.472 62.6 48.472 
L 62.6 135.54075 
Q 62.6 137.54075 64.6 137.54075 
z
" style="fill: #ffffff; opacity: 0.8; stroke: #cccccc; stroke-linejoin: miter"/>
    </g>
    <g id="line2d_22">
     <path d="M 66.6 54.570438 
L 76.6 54.570438 
L 86.6 54.570438 
" style="fill: none; stroke: #008000; stroke-opacity: 0.8; stroke-width: 0.5; stroke-linecap: square"/>
    </g>
    <g id="text_17">
     <!-- Positive predictions -->
     <g transform="translate(94.6 58.070438) scale(0.1 -0.1)">
      <defs>
       <path id="DejaVuSans-50" d="M 1259 4147 
L 1259 2394 
L 2053 2394 
Q 2494 2394 2734 2622 
Q 2975 2850 2975 3272 
Q 2975 3691 2734 3919 
Q 2494 4147 2053 4147 
L 1259 4147 
z
M 628 4666 
L 2053 4666 
Q 2838 4666 3239 4311 
Q 3641 3956 3641 3272 
Q 3641 2581 3239 2228 
Q 2838 1875 2053 1875 
L 1259 1875 
L 1259 0 
L 628 0 
L 628 4666 
z
" transform="scale(0.015625)"/>
       <path id="DejaVuSans-74" d="M 1172 4494 
L 1172 3500 
L 2356 3500 
L 2356 3053 
L 1172 3053 
L 1172 1153 
Q 1172 725 1289 603 
Q 1406 481 1766 481 
L 2356 481 
L 2356 0 
L 1766 0 
Q 1100 0 847 248 
Q 594 497 594 1153 
L 594 3053 
L 172 3053 
L 172 3500 
L 594 3500 
L 594 4494 
L 1172 4494 
z
" transform="scale(0.015625)"/>
       <path id="DejaVuSans-76" d="M 191 3500 
L 800 3500 
L 1894 563 
L 2988 3500 
L 3597 3500 
L 2284 0 
L 1503 0 
L 191 3500 
z
" transform="scale(0.015625)"/>
       <path id="DejaVuSans-20" transform="scale(0.015625)"/>
       <path id="DejaVuSans-70" d="M 1159 525 
L 1159 -1331 
L 581 -1331 
L 581 3500 
L 1159 3500 
L 1159 2969 
Q 1341 3281 1617 3432 
Q 1894 3584 2278 3584 
Q 2916 3584 3314 3078 
Q 3713 2572 3713 1747 
Q 3713 922 3314 415 
Q 2916 -91 2278 -91 
Q 1894 -91 1617 61 
Q 1341 213 1159 525 
z
M 3116 1747 
Q 3116 2381 2855 2742 
Q 2594 3103 2138 3103 
Q 1681 3103 1420 2742 
Q 1159 2381 1159 1747 
Q 1159 1113 1420 752 
Q 1681 391 2138 391 
Q 2594 391 2855 752 
Q 3116 1113 3116 1747 
z
" transform="scale(0.015625)"/>
      </defs>
      <use xlink:href="#DejaVuSans-50"/>
      <use xlink:href="#DejaVuSans-6f" x="56.677734"/>
      <use xlink:href="#DejaVuSans-73" x="117.859375"/>
      <use xlink:href="#DejaVuSans-69" x="169.958984"/>
      <use xlink:href="#DejaVuSans-74" x="197.742188"/>
      <use xlink:href="#DejaVuSans-69" x="236.951172"/>
      <use xlink:href="#DejaVuSans-76" x="264.734375"/>
      <use xlink:href="#DejaVuSans-65" x="323.914062"/>
      <use xlink:href="#DejaVuSans-20" x="385.4375"/>
      <use xlink:href="#DejaVuSans-70" x="417.224609"/>
      <use xlink:href="#DejaVuSans-72" x="480.701172"/>
      <use xlink:href="#DejaVuSans-65" x="519.564453"/>
      <use xlink:href="#DejaVuSans-64" x="581.087891"/>
      <use xlink:href="#DejaVuSans-69" x="644.564453"/>
      <use xlink:href="#DejaVuSans-63" x="672.347656"/>
      <use xlink:href="#DejaVuSans-74" x="727.328125"/>
      <use xlink:href="#DejaVuSans-69" x="766.537109"/>
      <use xlink:href="#DejaVuSans-6f" x="794.320312"/>
      <use xlink:href="#DejaVuSans-6e" x="855.501953"/>
      <use xlink:href="#DejaVuSans-73" x="918.880859"/>
     </g>
    </g>
    <g id="line2d_23">
     <path d="M 66.6 69.248563 
L 76.6 69.248563 
L 86.6 69.248563 
" style="fill: none; stroke: #32cd32; stroke-opacity: 0.8; stroke-width: 0.5; stroke-linecap: square"/>
    </g>
    <g id="text_18">
     <!-- Positive predictions max -->
     <g transform="translate(94.6 72.748563) scale(0.1 -0.1)">
      <defs>
       <path id="DejaVuSans-6d" d="M 3328 2828 
Q 3544 3216 3844 3400 
Q 4144 3584 4550 3584 
Q 5097 3584 5394 3201 
Q 5691 2819 5691 2113 
L 5691 0 
L 5113 0 
L 5113 2094 
Q 5113 2597 4934 2840 
Q 4756 3084 4391 3084 
Q 3944 3084 3684 2787 
Q 3425 2491 3425 1978 
L 3425 0 
L 2847 0 
L 2847 2094 
Q 2847 2600 2669 2842 
Q 2491 3084 2119 3084 
Q 1678 3084 1418 2786 
Q 1159 2488 1159 1978 
L 1159 0 
L 581 0 
L 581 3500 
L 1159 3500 
L 1159 2956 
Q 1356 3278 1631 3431 
Q 1906 3584 2284 3584 
Q 2666 3584 2933 3390 
Q 3200 3197 3328 2828 
z
" transform="scale(0.015625)"/>
       <path id="DejaVuSans-78" d="M 3513 3500 
L 2247 1797 
L 3578 0 
L 2900 0 
L 1881 1375 
L 863 0 
L 184 0 
L 1544 1831 
L 300 3500 
L 978 3500 
L 1906 2253 
L 2834 3500 
L 3513 3500 
z
" transform="scale(0.015625)"/>
      </defs>
      <use xlink:href="#DejaVuSans-50"/>
      <use xlink:href="#DejaVuSans-6f" x="56.677734"/>
      <use xlink:href="#DejaVuSans-73" x="117.859375"/>
      <use xlink:href="#DejaVuSans-69" x="169.958984"/>
      <use xlink:href="#DejaVuSans-74" x="197.742188"/>
      <use xlink:href="#DejaVuSans-69" x="236.951172"/>
      <use xlink:href="#DejaVuSans-76" x="264.734375"/>
      <use xlink:href="#DejaVuSans-65" x="323.914062"/>
      <use xlink:href="#DejaVuSans-20" x="385.4375"/>
      <use xlink:href="#DejaVuSans-70" x="417.224609"/>
      <use xlink:href="#DejaVuSans-72" x="480.701172"/>
      <use xlink:href="#DejaVuSans-65" x="519.564453"/>
      <use xlink:href="#DejaVuSans-64" x="581.087891"/>
      <use xlink:href="#DejaVuSans-69" x="644.564453"/>
      <use xlink:href="#DejaVuSans-63" x="672.347656"/>
      <use xlink:href="#DejaVuSans-74" x="727.328125"/>
      <use xlink:href="#DejaVuSans-69" x="766.537109"/>
      <use xlink:href="#DejaVuSans-6f" x="794.320312"/>
      <use xlink:href="#DejaVuSans-6e" x="855.501953"/>
      <use xlink:href="#DejaVuSans-73" x="918.880859"/>
      <use xlink:href="#DejaVuSans-20" x="970.980469"/>
      <use xlink:href="#DejaVuSans-6d" x="1002.767578"/>
      <use xlink:href="#DejaVuSans-61" x="1100.179688"/>
      <use xlink:href="#DejaVuSans-78" x="1161.458984"/>
     </g>
    </g>
    <g id="line2d_24">
     <path d="M 66.6 83.926688 
L 76.6 83.926688 
L 86.6 83.926688 
" style="fill: none; stroke: #32cd32; stroke-opacity: 0.8; stroke-width: 0.5; stroke-linecap: square"/>
    </g>
    <g id="text_19">
     <!-- Positive predictions min -->
     <g transform="translate(94.6 87.426688) scale(0.1 -0.1)">
      <use xlink:href="#DejaVuSans-50"/>
      <use xlink:href="#DejaVuSans-6f" x="56.677734"/>
      <use xlink:href="#DejaVuSans-73" x="117.859375"/>
      <use xlink:href="#DejaVuSans-69" x="169.958984"/>
      <use xlink:href="#DejaVuSans-74" x="197.742188"/>
      <use xlink:href="#DejaVuSans-69" x="236.951172"/>
      <use xlink:href="#DejaVuSans-76" x="264.734375"/>
      <use xlink:href="#DejaVuSans-65" x="323.914062"/>
      <use xlink:href="#DejaVuSans-20" x="385.4375"/>
      <use xlink:href="#DejaVuSans-70" x="417.224609"/>
      <use xlink:href="#DejaVuSans-72" x="480.701172"/>
      <use xlink:href="#DejaVuSans-65" x="519.564453"/>
      <use xlink:href="#DejaVuSans-64" x="581.087891"/>
      <use xlink:href="#DejaVuSans-69" x="644.564453"/>
      <use xlink:href="#DejaVuSans-63" x="672.347656"/>
      <use xlink:href="#DejaVuSans-74" x="727.328125"/>
      <use xlink:href="#DejaVuSans-69" x="766.537109"/>
      <use xlink:href="#DejaVuSans-6f" x="794.320312"/>
      <use xlink:href="#DejaVuSans-6e" x="855.501953"/>
      <use xlink:href="#DejaVuSans-73" x="918.880859"/>
      <use xlink:href="#DejaVuSans-20" x="970.980469"/>
      <use xlink:href="#DejaVuSans-6d" x="1002.767578"/>
      <use xlink:href="#DejaVuSans-69" x="1100.179688"/>
      <use xlink:href="#DejaVuSans-6e" x="1127.962891"/>
     </g>
    </g>
    <g id="line2d_25">
     <path d="M 66.6 98.604813 
L 76.6 98.604813 
L 86.6 98.604813 
" style="fill: none; stroke: #ff0000; stroke-opacity: 0.8; stroke-width: 0.5; stroke-linecap: square"/>
    </g>
    <g id="text_20">
     <!-- Negative predictions -->
     <g transform="translate(94.6 102.104813) scale(0.1 -0.1)">
      <defs>
       <path id="DejaVuSans-4e" d="M 628 4666 
L 1478 4666 
L 3547 763 
L 3547 4666 
L 4159 4666 
L 4159 0 
L 3309 0 
L 1241 3903 
L 1241 0 
L 628 0 
L 628 4666 
z
" transform="scale(0.015625)"/>
      </defs>
      <use xlink:href="#DejaVuSans-4e"/>
      <use xlink:href="#DejaVuSans-65" x="74.804688"/>
      <use xlink:href="#DejaVuSans-67" x="136.328125"/>
      <use xlink:href="#DejaVuSans-61" x="199.804688"/>
      <use xlink:href="#DejaVuSans-74" x="261.083984"/>
      <use xlink:href="#DejaVuSans-69" x="300.292969"/>
      <use xlink:href="#DejaVuSans-76" x="328.076172"/>
      <use xlink:href="#DejaVuSans-65" x="387.255859"/>
      <use xlink:href="#DejaVuSans-20" x="448.779297"/>
      <use xlink:href="#DejaVuSans-70" x="480.566406"/>
      <use xlink:href="#DejaVuSans-72" x="544.042969"/>
      <use xlink:href="#DejaVuSans-65" x="582.90625"/>
      <use xlink:href="#DejaVuSans-64" x="644.429688"/>
      <use xlink:href="#DejaVuSans-69" x="707.90625"/>
      <use xlink:href="#DejaVuSans-63" x="735.689453"/>
      <use xlink:href="#DejaVuSans-74" x="790.669922"/>
      <use xlink:href="#DejaVuSans-69" x="829.878906"/>
      <use xlink:href="#DejaVuSans-6f" x="857.662109"/>
      <use xlink:href="#DejaVuSans-6e" x="918.84375"/>
      <use xlink:href="#DejaVuSans-73" x="982.222656"/>
     </g>
    </g>
    <g id="line2d_26">
     <path d="M 66.6 113.282938 
L 76.6 113.282938 
L 86.6 113.282938 
" style="fill: none; stroke: #f08080; stroke-opacity: 0.8; stroke-width: 0.5; stroke-linecap: square"/>
    </g>
    <g id="text_21">
     <!-- Negative predictions max -->
     <g transform="translate(94.6 116.782938) scale(0.1 -0.1)">
      <use xlink:href="#DejaVuSans-4e"/>
      <use xlink:href="#DejaVuSans-65" x="74.804688"/>
      <use xlink:href="#DejaVuSans-67" x="136.328125"/>
      <use xlink:href="#DejaVuSans-61" x="199.804688"/>
      <use xlink:href="#DejaVuSans-74" x="261.083984"/>
      <use xlink:href="#DejaVuSans-69" x="300.292969"/>
      <use xlink:href="#DejaVuSans-76" x="328.076172"/>
      <use xlink:href="#DejaVuSans-65" x="387.255859"/>
      <use xlink:href="#DejaVuSans-20" x="448.779297"/>
      <use xlink:href="#DejaVuSans-70" x="480.566406"/>
      <use xlink:href="#DejaVuSans-72" x="544.042969"/>
      <use xlink:href="#DejaVuSans-65" x="582.90625"/>
      <use xlink:href="#DejaVuSans-64" x="644.429688"/>
      <use xlink:href="#DejaVuSans-69" x="707.90625"/>
      <use xlink:href="#DejaVuSans-63" x="735.689453"/>
      <use xlink:href="#DejaVuSans-74" x="790.669922"/>
      <use xlink:href="#DejaVuSans-69" x="829.878906"/>
      <use xlink:href="#DejaVuSans-6f" x="857.662109"/>
      <use xlink:href="#DejaVuSans-6e" x="918.84375"/>
      <use xlink:href="#DejaVuSans-73" x="982.222656"/>
      <use xlink:href="#DejaVuSans-20" x="1034.322266"/>
      <use xlink:href="#DejaVuSans-6d" x="1066.109375"/>
      <use xlink:href="#DejaVuSans-61" x="1163.521484"/>
      <use xlink:href="#DejaVuSans-78" x="1224.800781"/>
     </g>
    </g>
    <g id="line2d_27">
     <path d="M 66.6 127.961063 
L 76.6 127.961063 
L 86.6 127.961063 
" style="fill: none; stroke: #f08080; stroke-opacity: 0.8; stroke-width: 0.5; stroke-linecap: square"/>
    </g>
    <g id="text_22">
     <!-- Negative predictions min -->
     <g transform="translate(94.6 131.461063) scale(0.1 -0.1)">
      <use xlink:href="#DejaVuSans-4e"/>
      <use xlink:href="#DejaVuSans-65" x="74.804688"/>
      <use xlink:href="#DejaVuSans-67" x="136.328125"/>
      <use xlink:href="#DejaVuSans-61" x="199.804688"/>
      <use xlink:href="#DejaVuSans-74" x="261.083984"/>
      <use xlink:href="#DejaVuSans-69" x="300.292969"/>
      <use xlink:href="#DejaVuSans-76" x="328.076172"/>
      <use xlink:href="#DejaVuSans-65" x="387.255859"/>
      <use xlink:href="#DejaVuSans-20" x="448.779297"/>
      <use xlink:href="#DejaVuSans-70" x="480.566406"/>
      <use xlink:href="#DejaVuSans-72" x="544.042969"/>
      <use xlink:href="#DejaVuSans-65" x="582.90625"/>
      <use xlink:href="#DejaVuSans-64" x="644.429688"/>
      <use xlink:href="#DejaVuSans-69" x="707.90625"/>
      <use xlink:href="#DejaVuSans-63" x="735.689453"/>
      <use xlink:href="#DejaVuSans-74" x="790.669922"/>
      <use xlink:href="#DejaVuSans-69" x="829.878906"/>
      <use xlink:href="#DejaVuSans-6f" x="857.662109"/>
      <use xlink:href="#DejaVuSans-6e" x="918.84375"/>
      <use xlink:href="#DejaVuSans-73" x="982.222656"/>
      <use xlink:href="#DejaVuSans-20" x="1034.322266"/>
      <use xlink:href="#DejaVuSans-6d" x="1066.109375"/>
      <use xlink:href="#DejaVuSans-69" x="1163.521484"/>
      <use xlink:href="#DejaVuSans-6e" x="1191.304688"/>
     </g>
    </g>
   </g>
  </g>
 </g>
 <defs>
  <clipPath id="p19918a523f">
   <rect x="57.6" y="41.472" width="357.12" height="266.112"/>
  </clipPath>
 </defs>
</svg>
