<?xml version="1.0" encoding="utf-8" standalone="no"?>
<!DOCTYPE svg PUBLIC "-//W3C//DTD SVG 1.1//EN"
  "http://www.w3.org/Graphics/SVG/1.1/DTD/svg11.dtd">
<svg xmlns:xlink="http://www.w3.org/1999/xlink" width="460.8pt" height="345.6pt" viewBox="0 0 460.8 345.6" xmlns="http://www.w3.org/2000/svg" version="1.1">
 <metadata>
  <rdf:RDF xmlns:dc="http://purl.org/dc/elements/1.1/" xmlns:cc="http://creativecommons.org/ns#" xmlns:rdf="http://www.w3.org/1999/02/22-rdf-syntax-ns#">
   <cc:Work>
    <dc:type rdf:resource="http://purl.org/dc/dcmitype/StillImage"/>
    <dc:date>2024-09-08T13:25:36.464092</dc:date>
    <dc:format>image/svg+xml</dc:format>
    <dc:creator>
     <cc:Agent>
      <dc:title>Matplotlib v3.8.3, https://matplotlib.org/</dc:title>
     </cc:Agent>
    </dc:creator>
   </cc:Work>
  </rdf:RDF>
 </metadata>
 <defs>
  <style type="text/css">*{stroke-linejoin: round; stroke-linecap: butt}</style>
 </defs>
 <g id="figure_1">
  <g id="patch_1">
   <path d="M 0 345.6 
L 460.8 345.6 
L 460.8 0 
L 0 0 
z
" style="fill: #ffffff"/>
  </g>
  <g id="axes_1">
   <g id="patch_2">
    <path d="M 57.6 307.584 
L 414.72 307.584 
L 414.72 41.472 
L 57.6 41.472 
z
" style="fill: #ffffff"/>
   </g>
   <g id="matplotlib.axis_1">
    <g id="xtick_1">
     <g id="line2d_1">
      <defs>
       <path id="m52b31b60fc" d="M 0 0 
L 0 3.5 
" style="stroke: #000000; stroke-width: 0.8"/>
      </defs>
      <g>
       <use xlink:href="#m52b31b60fc" x="73.832727" y="307.584" style="stroke: #000000; stroke-width: 0.8"/>
      </g>
     </g>
     <g id="text_1">
      <!-- 0 -->
      <g transform="translate(70.651477 322.182437) scale(0.1 -0.1)">
       <defs>
        <path id="DejaVuSans-30" d="M 2034 4250 
Q 1547 4250 1301 3770 
Q 1056 3291 1056 2328 
Q 1056 1369 1301 889 
Q 1547 409 2034 409 
Q 2525 409 2770 889 
Q 3016 1369 3016 2328 
Q 3016 3291 2770 3770 
Q 2525 4250 2034 4250 
z
M 2034 4750 
Q 2819 4750 3233 4129 
Q 3647 3509 3647 2328 
Q 3647 1150 3233 529 
Q 2819 -91 2034 -91 
Q 1250 -91 836 529 
Q 422 1150 422 2328 
Q 422 3509 836 4129 
Q 1250 4750 2034 4750 
z
" transform="scale(0.015625)"/>
       </defs>
       <use xlink:href="#DejaVuSans-30"/>
      </g>
     </g>
    </g>
    <g id="xtick_2">
     <g id="line2d_2">
      <g>
       <use xlink:href="#m52b31b60fc" x="116.27123" y="307.584" style="stroke: #000000; stroke-width: 0.8"/>
      </g>
     </g>
     <g id="text_2">
      <!-- 20 -->
      <g transform="translate(109.90873 322.182437) scale(0.1 -0.1)">
       <defs>
        <path id="DejaVuSans-32" d="M 1228 531 
L 3431 531 
L 3431 0 
L 469 0 
L 469 531 
Q 828 903 1448 1529 
Q 2069 2156 2228 2338 
Q 2531 2678 2651 2914 
Q 2772 3150 2772 3378 
Q 2772 3750 2511 3984 
Q 2250 4219 1831 4219 
Q 1534 4219 1204 4116 
Q 875 4013 500 3803 
L 500 4441 
Q 881 4594 1212 4672 
Q 1544 4750 1819 4750 
Q 2544 4750 2975 4387 
Q 3406 4025 3406 3419 
Q 3406 3131 3298 2873 
Q 3191 2616 2906 2266 
Q 2828 2175 2409 1742 
Q 1991 1309 1228 531 
z
" transform="scale(0.015625)"/>
       </defs>
       <use xlink:href="#DejaVuSans-32"/>
       <use xlink:href="#DejaVuSans-30" x="63.623047"/>
      </g>
     </g>
    </g>
    <g id="xtick_3">
     <g id="line2d_3">
      <g>
       <use xlink:href="#m52b31b60fc" x="158.709733" y="307.584" style="stroke: #000000; stroke-width: 0.8"/>
      </g>
     </g>
     <g id="text_3">
      <!-- 40 -->
      <g transform="translate(152.347233 322.182437) scale(0.1 -0.1)">
       <defs>
        <path id="DejaVuSans-34" d="M 2419 4116 
L 825 1625 
L 2419 1625 
L 2419 4116 
z
M 2253 4666 
L 3047 4666 
L 3047 1625 
L 3713 1625 
L 3713 1100 
L 3047 1100 
L 3047 0 
L 2419 0 
L 2419 1100 
L 313 1100 
L 313 1709 
L 2253 4666 
z
" transform="scale(0.015625)"/>
       </defs>
       <use xlink:href="#DejaVuSans-34"/>
       <use xlink:href="#DejaVuSans-30" x="63.623047"/>
      </g>
     </g>
    </g>
    <g id="xtick_4">
     <g id="line2d_4">
      <g>
       <use xlink:href="#m52b31b60fc" x="201.148235" y="307.584" style="stroke: #000000; stroke-width: 0.8"/>
      </g>
     </g>
     <g id="text_4">
      <!-- 60 -->
      <g transform="translate(194.785735 322.182437) scale(0.1 -0.1)">
       <defs>
        <path id="DejaVuSans-36" d="M 2113 2584 
Q 1688 2584 1439 2293 
Q 1191 2003 1191 1497 
Q 1191 994 1439 701 
Q 1688 409 2113 409 
Q 2538 409 2786 701 
Q 3034 994 3034 1497 
Q 3034 2003 2786 2293 
Q 2538 2584 2113 2584 
z
M 3366 4563 
L 3366 3988 
Q 3128 4100 2886 4159 
Q 2644 4219 2406 4219 
Q 1781 4219 1451 3797 
Q 1122 3375 1075 2522 
Q 1259 2794 1537 2939 
Q 1816 3084 2150 3084 
Q 2853 3084 3261 2657 
Q 3669 2231 3669 1497 
Q 3669 778 3244 343 
Q 2819 -91 2113 -91 
Q 1303 -91 875 529 
Q 447 1150 447 2328 
Q 447 3434 972 4092 
Q 1497 4750 2381 4750 
Q 2619 4750 2861 4703 
Q 3103 4656 3366 4563 
z
" transform="scale(0.015625)"/>
       </defs>
       <use xlink:href="#DejaVuSans-36"/>
       <use xlink:href="#DejaVuSans-30" x="63.623047"/>
      </g>
     </g>
    </g>
    <g id="xtick_5">
     <g id="line2d_5">
      <g>
       <use xlink:href="#m52b31b60fc" x="243.586738" y="307.584" style="stroke: #000000; stroke-width: 0.8"/>
      </g>
     </g>
     <g id="text_5">
      <!-- 80 -->
      <g transform="translate(237.224238 322.182437) scale(0.1 -0.1)">
       <defs>
        <path id="DejaVuSans-38" d="M 2034 2216 
Q 1584 2216 1326 1975 
Q 1069 1734 1069 1313 
Q 1069 891 1326 650 
Q 1584 409 2034 409 
Q 2484 409 2743 651 
Q 3003 894 3003 1313 
Q 3003 1734 2745 1975 
Q 2488 2216 2034 2216 
z
M 1403 2484 
Q 997 2584 770 2862 
Q 544 3141 544 3541 
Q 544 4100 942 4425 
Q 1341 4750 2034 4750 
Q 2731 4750 3128 4425 
Q 3525 4100 3525 3541 
Q 3525 3141 3298 2862 
Q 3072 2584 2669 2484 
Q 3125 2378 3379 2068 
Q 3634 1759 3634 1313 
Q 3634 634 3220 271 
Q 2806 -91 2034 -91 
Q 1263 -91 848 271 
Q 434 634 434 1313 
Q 434 1759 690 2068 
Q 947 2378 1403 2484 
z
M 1172 3481 
Q 1172 3119 1398 2916 
Q 1625 2713 2034 2713 
Q 2441 2713 2670 2916 
Q 2900 3119 2900 3481 
Q 2900 3844 2670 4047 
Q 2441 4250 2034 4250 
Q 1625 4250 1398 4047 
Q 1172 3844 1172 3481 
z
" transform="scale(0.015625)"/>
       </defs>
       <use xlink:href="#DejaVuSans-38"/>
       <use xlink:href="#DejaVuSans-30" x="63.623047"/>
      </g>
     </g>
    </g>
    <g id="xtick_6">
     <g id="line2d_6">
      <g>
       <use xlink:href="#m52b31b60fc" x="286.025241" y="307.584" style="stroke: #000000; stroke-width: 0.8"/>
      </g>
     </g>
     <g id="text_6">
      <!-- 100 -->
      <g transform="translate(276.481491 322.182437) scale(0.1 -0.1)">
       <defs>
        <path id="DejaVuSans-31" d="M 794 531 
L 1825 531 
L 1825 4091 
L 703 3866 
L 703 4441 
L 1819 4666 
L 2450 4666 
L 2450 531 
L 3481 531 
L 3481 0 
L 794 0 
L 794 531 
z
" transform="scale(0.015625)"/>
       </defs>
       <use xlink:href="#DejaVuSans-31"/>
       <use xlink:href="#DejaVuSans-30" x="63.623047"/>
       <use xlink:href="#DejaVuSans-30" x="127.246094"/>
      </g>
     </g>
    </g>
    <g id="xtick_7">
     <g id="line2d_7">
      <g>
       <use xlink:href="#m52b31b60fc" x="328.463743" y="307.584" style="stroke: #000000; stroke-width: 0.8"/>
      </g>
     </g>
     <g id="text_7">
      <!-- 120 -->
      <g transform="translate(318.919993 322.182437) scale(0.1 -0.1)">
       <use xlink:href="#DejaVuSans-31"/>
       <use xlink:href="#DejaVuSans-32" x="63.623047"/>
       <use xlink:href="#DejaVuSans-30" x="127.246094"/>
      </g>
     </g>
    </g>
    <g id="xtick_8">
     <g id="line2d_8">
      <g>
       <use xlink:href="#m52b31b60fc" x="370.902246" y="307.584" style="stroke: #000000; stroke-width: 0.8"/>
      </g>
     </g>
     <g id="text_8">
      <!-- 140 -->
      <g transform="translate(361.358496 322.182437) scale(0.1 -0.1)">
       <use xlink:href="#DejaVuSans-31"/>
       <use xlink:href="#DejaVuSans-34" x="63.623047"/>
       <use xlink:href="#DejaVuSans-30" x="127.246094"/>
      </g>
     </g>
    </g>
    <g id="xtick_9">
     <g id="line2d_9">
      <g>
       <use xlink:href="#m52b31b60fc" x="413.340749" y="307.584" style="stroke: #000000; stroke-width: 0.8"/>
      </g>
     </g>
     <g id="text_9">
      <!-- 160 -->
      <g transform="translate(403.796999 322.182437) scale(0.1 -0.1)">
       <use xlink:href="#DejaVuSans-31"/>
       <use xlink:href="#DejaVuSans-36" x="63.623047"/>
       <use xlink:href="#DejaVuSans-30" x="127.246094"/>
      </g>
     </g>
    </g>
   </g>
   <g id="matplotlib.axis_2">
    <g id="ytick_1">
     <g id="line2d_10">
      <defs>
       <path id="mc87dbe7180" d="M 0 0 
L -3.5 0 
" style="stroke: #000000; stroke-width: 0.8"/>
      </defs>
      <g>
       <use xlink:href="#mc87dbe7180" x="57.6" y="282.61129" style="stroke: #000000; stroke-width: 0.8"/>
      </g>
     </g>
     <g id="text_10">
      <!-- −0.02 -->
      <g transform="translate(19.954687 286.410509) scale(0.1 -0.1)">
       <defs>
        <path id="DejaVuSans-2212" d="M 678 2272 
L 4684 2272 
L 4684 1741 
L 678 1741 
L 678 2272 
z
" transform="scale(0.015625)"/>
        <path id="DejaVuSans-2e" d="M 684 794 
L 1344 794 
L 1344 0 
L 684 0 
L 684 794 
z
" transform="scale(0.015625)"/>
       </defs>
       <use xlink:href="#DejaVuSans-2212"/>
       <use xlink:href="#DejaVuSans-30" x="83.789062"/>
       <use xlink:href="#DejaVuSans-2e" x="147.412109"/>
       <use xlink:href="#DejaVuSans-30" x="179.199219"/>
       <use xlink:href="#DejaVuSans-32" x="242.822266"/>
      </g>
     </g>
    </g>
    <g id="ytick_2">
     <g id="line2d_11">
      <g>
       <use xlink:href="#mc87dbe7180" x="57.6" y="237.280643" style="stroke: #000000; stroke-width: 0.8"/>
      </g>
     </g>
     <g id="text_11">
      <!-- −0.01 -->
      <g transform="translate(19.954687 241.079861) scale(0.1 -0.1)">
       <use xlink:href="#DejaVuSans-2212"/>
       <use xlink:href="#DejaVuSans-30" x="83.789062"/>
       <use xlink:href="#DejaVuSans-2e" x="147.412109"/>
       <use xlink:href="#DejaVuSans-30" x="179.199219"/>
       <use xlink:href="#DejaVuSans-31" x="242.822266"/>
      </g>
     </g>
    </g>
    <g id="ytick_3">
     <g id="line2d_12">
      <g>
       <use xlink:href="#mc87dbe7180" x="57.6" y="191.949995" style="stroke: #000000; stroke-width: 0.8"/>
      </g>
     </g>
     <g id="text_12">
      <!-- 0.00 -->
      <g transform="translate(28.334375 195.749214) scale(0.1 -0.1)">
       <use xlink:href="#DejaVuSans-30"/>
       <use xlink:href="#DejaVuSans-2e" x="63.623047"/>
       <use xlink:href="#DejaVuSans-30" x="95.410156"/>
       <use xlink:href="#DejaVuSans-30" x="159.033203"/>
      </g>
     </g>
    </g>
    <g id="ytick_4">
     <g id="line2d_13">
      <g>
       <use xlink:href="#mc87dbe7180" x="57.6" y="146.619348" style="stroke: #000000; stroke-width: 0.8"/>
      </g>
     </g>
     <g id="text_13">
      <!-- 0.01 -->
      <g transform="translate(28.334375 150.418567) scale(0.1 -0.1)">
       <use xlink:href="#DejaVuSans-30"/>
       <use xlink:href="#DejaVuSans-2e" x="63.623047"/>
       <use xlink:href="#DejaVuSans-30" x="95.410156"/>
       <use xlink:href="#DejaVuSans-31" x="159.033203"/>
      </g>
     </g>
    </g>
    <g id="ytick_5">
     <g id="line2d_14">
      <g>
       <use xlink:href="#mc87dbe7180" x="57.6" y="101.288701" style="stroke: #000000; stroke-width: 0.8"/>
      </g>
     </g>
     <g id="text_14">
      <!-- 0.02 -->
      <g transform="translate(28.334375 105.08792) scale(0.1 -0.1)">
       <use xlink:href="#DejaVuSans-30"/>
       <use xlink:href="#DejaVuSans-2e" x="63.623047"/>
       <use xlink:href="#DejaVuSans-30" x="95.410156"/>
       <use xlink:href="#DejaVuSans-32" x="159.033203"/>
      </g>
     </g>
    </g>
    <g id="ytick_6">
     <g id="line2d_15">
      <g>
       <use xlink:href="#mc87dbe7180" x="57.6" y="55.958054" style="stroke: #000000; stroke-width: 0.8"/>
      </g>
     </g>
     <g id="text_15">
      <!-- 0.03 -->
      <g transform="translate(28.334375 59.757272) scale(0.1 -0.1)">
       <defs>
        <path id="DejaVuSans-33" d="M 2597 2516 
Q 3050 2419 3304 2112 
Q 3559 1806 3559 1356 
Q 3559 666 3084 287 
Q 2609 -91 1734 -91 
Q 1441 -91 1130 -33 
Q 819 25 488 141 
L 488 750 
Q 750 597 1062 519 
Q 1375 441 1716 441 
Q 2309 441 2620 675 
Q 2931 909 2931 1356 
Q 2931 1769 2642 2001 
Q 2353 2234 1838 2234 
L 1294 2234 
L 1294 2753 
L 1863 2753 
Q 2328 2753 2575 2939 
Q 2822 3125 2822 3475 
Q 2822 3834 2567 4026 
Q 2313 4219 1838 4219 
Q 1578 4219 1281 4162 
Q 984 4106 628 3988 
L 628 4550 
Q 988 4650 1302 4700 
Q 1616 4750 1894 4750 
Q 2613 4750 3031 4423 
Q 3450 4097 3450 3541 
Q 3450 3153 3228 2886 
Q 3006 2619 2597 2516 
z
" transform="scale(0.015625)"/>
       </defs>
       <use xlink:href="#DejaVuSans-30"/>
       <use xlink:href="#DejaVuSans-2e" x="63.623047"/>
       <use xlink:href="#DejaVuSans-30" x="95.410156"/>
       <use xlink:href="#DejaVuSans-33" x="159.033203"/>
      </g>
     </g>
    </g>
   </g>
   <g id="line2d_16">
    <path d="M 73.832727 200.688807 
L 75.954652 198.432165 
L 78.076578 202.124391 
L 80.198503 194.207082 
L 82.320428 198.656246 
L 84.442353 191.342369 
L 86.564278 191.697428 
L 88.686203 197.337149 
L 90.808128 199.928496 
L 92.930053 207.733196 
L 95.051979 209.646209 
L 97.173904 208.086008 
L 99.295829 202.252491 
L 101.417754 203.62311 
L 103.539679 201.30712 
L 105.661604 207.605978 
L 107.783529 196.854809 
L 109.905455 197.315824 
L 112.02738 202.432685 
L 114.149305 199.378164 
L 116.27123 208.253968 
L 118.393155 197.863348 
L 120.51508 212.94773 
L 122.637005 207.892396 
L 124.75893 192.694216 
L 126.880856 195.621385 
L 129.002781 200.296072 
L 131.124706 190.046802 
L 133.246631 206.661802 
L 135.368556 195.429317 
L 137.490481 198.580764 
L 139.612406 200.42309 
L 141.734332 198.515045 
L 143.856257 202.914676 
L 145.978182 201.246259 
L 148.100107 207.817074 
L 150.222032 201.06485 
L 152.343957 192.926698 
L 154.465882 201.403264 
L 156.587807 195.226935 
L 158.709733 193.641017 
L 160.831658 195.716451 
L 162.953583 196.882793 
L 165.075508 199.977306 
L 167.197433 199.169428 
L 169.319358 198.52339 
L 171.441283 193.772434 
L 173.563209 204.350625 
L 175.685134 204.959653 
L 177.807059 192.838654 
L 179.928984 195.474757 
L 182.050909 194.490088 
L 184.172834 197.230173 
L 186.294759 222.14497 
L 188.416684 167.176317 
L 190.53861 215.12827 
L 192.660535 210.448632 
L 194.78246 207.366692 
L 196.904385 196.429412 
L 199.02631 212.683077 
L 203.27016 204.297267 
L 205.392086 202.294571 
L 207.514011 215.388146 
L 209.635936 211.369503 
L 211.757861 202.400214 
L 213.879786 208.822193 
L 216.001711 201.28441 
L 218.123636 192.642609 
L 220.245561 198.615527 
L 222.367487 197.644171 
L 224.489412 205.042811 
L 226.611337 201.9242 
L 228.733262 214.191898 
L 230.855187 206.464086 
L 232.977112 202.334721 
L 235.099037 206.70572 
L 237.220963 195.51121 
L 239.342888 200.647538 
L 241.464813 194.735961 
L 243.586738 202.073706 
L 245.708663 198.646198 
L 247.830588 204.78606 
L 249.952513 201.568979 
L 252.074439 211.42222 
L 254.196364 201.542542 
L 256.318289 199.649381 
L 258.440214 196.897062 
L 260.562139 202.165715 
L 262.684064 198.051492 
L 264.805989 198.624118 
L 266.927914 200.728525 
L 269.04984 206.69318 
L 271.171765 192.837172 
L 273.29369 195.301701 
L 275.415615 196.324269 
L 277.53754 197.04141 
L 279.659465 195.561677 
L 281.78139 204.768924 
L 283.903316 206.893654 
L 286.025241 205.835008 
L 288.147166 206.780162 
L 290.269091 192.971297 
L 292.391016 205.772828 
L 294.512941 191.874014 
L 296.634866 185.162636 
L 298.756791 209.148518 
L 300.878717 207.232551 
L 303.000642 196.452713 
L 305.122567 191.652642 
L 307.244492 199.004053 
L 309.366417 208.069617 
L 311.488342 183.367842 
L 313.610267 208.942541 
L 315.732193 194.27789 
L 317.854118 211.415713 
L 319.976043 198.444077 
L 322.097968 199.071988 
L 324.219893 201.039752 
L 326.341818 210.064458 
L 328.463743 205.249123 
L 330.585668 203.970046 
L 332.707594 207.534207 
L 334.829519 219.81573 
L 336.951444 213.038325 
L 339.073369 216.055711 
L 341.195294 211.146439 
L 343.317219 202.255837 
L 345.439144 216.063989 
L 347.56107 204.890457 
L 349.682995 203.755492 
L 351.80492 204.932632 
L 353.926845 210.004869 
L 356.04877 206.28926 
L 358.170695 209.386534 
L 360.29262 200.524727 
L 362.414545 198.457811 
L 364.536471 200.886939 
L 366.658396 197.774971 
L 368.780321 201.712376 
L 370.902246 202.769536 
L 373.024171 210.528389 
L 375.146096 200.811384 
L 377.268021 193.449065 
L 379.389947 196.206563 
L 381.511872 201.982889 
L 383.633797 200.316488 
L 385.755722 201.68485 
L 387.877647 206.115311 
L 389.999572 211.720284 
L 392.121497 209.770302 
L 394.243422 193.947696 
L 396.365348 210.983666 
L 398.487273 194.55473 
L 398.487273 194.55473 
" clip-path="url(#p7d273781fe)" style="fill: none; stroke: #008000; stroke-opacity: 0.8; stroke-width: 0.5; stroke-linecap: square"/>
   </g>
   <g id="line2d_17">
    <path d="M 73.832727 167.322156 
L 75.954652 144.840449 
L 78.076578 159.813573 
L 80.198503 156.952819 
L 82.320428 173.862011 
L 84.442353 166.544499 
L 86.564278 151.488678 
L 88.686203 166.087862 
L 90.808128 93.663923 
L 92.930053 169.572255 
L 95.051979 185.522855 
L 97.173904 160.412215 
L 99.295829 168.618266 
L 101.417754 147.364256 
L 103.539679 156.260642 
L 105.661604 166.650865 
L 107.783529 158.079708 
L 109.905455 172.703807 
L 112.02738 169.022607 
L 114.149305 157.214905 
L 116.27123 156.072805 
L 118.393155 170.410312 
L 120.51508 163.277454 
L 122.637005 139.193713 
L 124.75893 157.226307 
L 126.880856 167.730731 
L 129.002781 165.247827 
L 131.124706 148.397373 
L 133.246631 160.240566 
L 135.368556 156.320715 
L 137.490481 173.865118 
L 139.612406 169.296041 
L 141.734332 182.27389 
L 143.856257 185.929223 
L 145.978182 172.276719 
L 148.100107 186.066391 
L 150.222032 171.992555 
L 152.343957 171.694803 
L 154.465882 151.466847 
L 156.587807 176.579329 
L 158.709733 171.990663 
L 160.831658 168.134277 
L 162.953583 166.049186 
L 165.075508 176.56618 
L 167.197433 186.325376 
L 171.441283 172.321648 
L 173.563209 170.424902 
L 175.685134 181.772684 
L 177.807059 175.625417 
L 179.928984 175.110783 
L 182.050909 174.003538 
L 184.172834 177.879762 
L 186.294759 184.888599 
L 188.416684 56.864715 
L 190.53861 150.887002 
L 192.660535 173.356753 
L 194.78246 185.10685 
L 196.904385 165.517275 
L 199.02631 182.341798 
L 201.148235 171.238855 
L 203.27016 161.249822 
L 205.392086 172.059923 
L 207.514011 182.085188 
L 209.635936 160.69339 
L 211.757861 160.258669 
L 213.879786 166.594124 
L 216.001711 181.281025 
L 218.123636 163.232553 
L 220.245561 167.493052 
L 222.367487 173.695951 
L 224.489412 162.904859 
L 226.611337 181.964945 
L 228.733262 193.411192 
L 230.855187 181.864897 
L 232.977112 141.604363 
L 235.099037 171.673458 
L 237.220963 165.570638 
L 239.342888 168.705763 
L 241.464813 173.985849 
L 243.586738 164.323613 
L 245.708663 161.492905 
L 247.830588 180.4274 
L 249.952513 161.124255 
L 252.074439 167.999445 
L 254.196364 164.520673 
L 256.318289 164.600326 
L 258.440214 137.928945 
L 260.562139 187.509124 
L 262.684064 162.947185 
L 264.805989 168.180304 
L 266.927914 170.721933 
L 269.04984 191.483722 
L 271.171765 172.430806 
L 273.29369 158.591766 
L 275.415615 182.976658 
L 277.53754 135.174016 
L 279.659465 161.343435 
L 283.903316 181.904808 
L 286.025241 165.590903 
L 288.147166 174.194725 
L 290.269091 162.894443 
L 292.391016 161.004722 
L 294.512941 171.634461 
L 296.634866 129.330148 
L 298.756791 149.875202 
L 300.878717 139.451385 
L 303.000642 157.355054 
L 305.122567 155.593719 
L 307.244492 136.402632 
L 309.366417 146.427015 
L 311.488342 148.189806 
L 313.610267 184.831389 
L 315.732193 130.383417 
L 317.854118 169.786092 
L 319.976043 141.054523 
L 322.097968 160.565066 
L 324.219893 159.561999 
L 326.341818 131.494228 
L 328.463743 150.235547 
L 330.585668 170.038708 
L 332.707594 125.546653 
L 334.829519 142.388324 
L 336.951444 176.306908 
L 339.073369 180.905234 
L 341.195294 170.255222 
L 343.317219 136.051923 
L 345.439144 173.5571 
L 347.56107 145.03051 
L 349.682995 174.162735 
L 351.80492 164.530184 
L 353.926845 134.050505 
L 356.04877 154.355761 
L 358.170695 172.358001 
L 360.29262 150.021645 
L 362.414545 171.500401 
L 364.536471 178.397071 
L 366.658396 170.610563 
L 368.780321 169.236059 
L 370.902246 181.604115 
L 373.024171 168.507352 
L 375.146096 163.427297 
L 377.268021 175.376706 
L 379.389947 151.911907 
L 381.511872 157.615005 
L 383.633797 163.749222 
L 385.755722 161.16219 
L 387.877647 166.792499 
L 389.999572 189.640235 
L 392.121497 170.879365 
L 394.243422 170.217719 
L 396.365348 143.368205 
L 398.487273 177.201952 
L 398.487273 177.201952 
" clip-path="url(#p7d273781fe)" style="fill: none; stroke: #32cd32; stroke-opacity: 0.8; stroke-width: 0.5; stroke-linecap: square"/>
   </g>
   <g id="line2d_18">
    <path d="M 73.832727 239.983752 
L 75.954652 247.674643 
L 78.076578 246.135412 
L 80.198503 258.362488 
L 82.320428 229.603012 
L 84.442353 233.356119 
L 86.564278 238.811614 
L 88.686203 270.700207 
L 90.808128 232.708091 
L 92.930053 244.597991 
L 95.051979 249.338895 
L 97.173904 241.316993 
L 99.295829 238.023549 
L 101.417754 240.897602 
L 103.539679 239.799327 
L 105.661604 253.581188 
L 107.783529 228.107267 
L 109.905455 227.131967 
L 112.02738 249.29181 
L 114.149305 248.023602 
L 116.27123 249.056162 
L 118.393155 222.135273 
L 120.51508 238.658469 
L 122.637005 240.319356 
L 124.75893 220.990111 
L 126.880856 249.180653 
L 129.002781 230.253048 
L 131.124706 206.986524 
L 133.246631 227.363618 
L 135.368556 222.723056 
L 137.490481 215.083918 
L 139.612406 219.136377 
L 141.734332 212.361142 
L 143.856257 225.162069 
L 145.978182 234.009427 
L 148.100107 244.988883 
L 150.222032 229.525233 
L 152.343957 217.30846 
L 154.465882 266.664643 
L 156.587807 224.999846 
L 158.709733 229.675706 
L 160.831658 235.642002 
L 162.953583 218.434403 
L 165.075508 216.995214 
L 167.197433 221.866619 
L 169.319358 218.427394 
L 171.441283 205.104549 
L 173.563209 225.242275 
L 175.685134 242.712804 
L 177.807059 225.037589 
L 179.928984 218.463717 
L 182.050909 219.647798 
L 184.172834 225.227167 
L 186.294759 271.751213 
L 188.416684 228.33185 
L 190.53861 293.136071 
L 192.660535 248.743444 
L 194.78246 226.558987 
L 196.904385 223.291153 
L 199.02631 246.872405 
L 201.148235 251.082582 
L 203.27016 264.115423 
L 205.392086 237.256012 
L 207.514011 240.044985 
L 209.635936 258.850663 
L 211.757861 241.190577 
L 213.879786 258.005848 
L 216.001711 227.27441 
L 218.123636 220.607069 
L 220.245561 241.795719 
L 222.367487 227.48669 
L 224.489412 247.579092 
L 226.611337 232.077548 
L 228.733262 264.17206 
L 230.855187 232.756741 
L 232.977112 228.678836 
L 235.099037 236.672128 
L 237.220963 245.797583 
L 239.342888 227.815012 
L 241.464813 220.539197 
L 243.586738 242.815098 
L 245.708663 231.667772 
L 247.830588 229.557362 
L 249.952513 239.933187 
L 252.074439 246.698222 
L 254.196364 235.005405 
L 256.318289 228.699851 
L 258.440214 227.184616 
L 260.562139 234.717291 
L 262.684064 234.34348 
L 264.805989 224.499721 
L 266.927914 234.114925 
L 269.04984 219.606433 
L 271.171765 215.123567 
L 273.29369 224.827031 
L 275.415615 222.137029 
L 277.53754 236.849238 
L 279.659465 216.572458 
L 281.78139 239.916157 
L 283.903316 229.267389 
L 286.025241 232.097377 
L 288.147166 238.748011 
L 290.269091 225.35094 
L 292.391016 264.511061 
L 294.512941 222.775988 
L 296.634866 221.385491 
L 298.756791 295.488 
L 300.878717 252.039165 
L 303.000642 238.623812 
L 305.122567 233.532824 
L 307.244492 244.544231 
L 309.366417 252.215446 
L 311.488342 235.737535 
L 313.610267 242.276714 
L 315.732193 231.091588 
L 317.854118 239.283531 
L 319.976043 258.321599 
L 322.097968 243.166276 
L 324.219893 242.002956 
L 326.341818 247.6819 
L 328.463743 274.307618 
L 330.585668 238.736284 
L 332.707594 269.27964 
L 334.829519 286.107664 
L 336.951444 258.923383 
L 339.073369 261.462384 
L 341.195294 247.716718 
L 343.317219 253.037099 
L 345.439144 256.843973 
L 347.56107 277.846684 
L 349.682995 230.960995 
L 351.80492 257.904873 
L 353.926845 259.346976 
L 356.04877 252.028312 
L 358.170695 259.338078 
L 360.29262 236.995187 
L 362.414545 244.194265 
L 364.536471 230.196281 
L 366.658396 238.739527 
L 368.780321 237.926177 
L 370.902246 224.527145 
L 373.024171 261.661213 
L 377.268021 205.656064 
L 379.389947 225.918227 
L 381.511872 224.957561 
L 383.633797 241.592184 
L 385.755722 226.249032 
L 387.877647 240.729086 
L 389.999572 263.328393 
L 392.121497 288.348589 
L 394.243422 214.744989 
L 396.365348 240.497502 
L 398.487273 230.567995 
L 398.487273 230.567995 
" clip-path="url(#p7d273781fe)" style="fill: none; stroke: #32cd32; stroke-opacity: 0.8; stroke-width: 0.5; stroke-linecap: square"/>
   </g>
   <g id="line2d_19">
    <path d="M 73.832727 190.375309 
L 75.954652 182.485726 
L 78.076578 191.932227 
L 80.198503 182.900292 
L 82.320428 185.910197 
L 84.442353 171.134034 
L 86.564278 176.435778 
L 88.686203 182.153543 
L 90.808128 179.418269 
L 92.930053 185.913959 
L 95.051979 177.087797 
L 97.173904 175.784799 
L 99.295829 180.578917 
L 101.417754 190.797622 
L 103.539679 184.255041 
L 105.661604 188.66905 
L 107.783529 172.691188 
L 109.905455 183.265939 
L 114.149305 189.903332 
L 116.27123 188.725055 
L 118.393155 182.38086 
L 120.51508 186.735453 
L 122.637005 187.784845 
L 124.75893 180.91629 
L 126.880856 187.777934 
L 129.002781 197.847421 
L 131.124706 183.72809 
L 133.246631 209.010897 
L 135.368556 181.898578 
L 137.490481 184.190087 
L 139.612406 183.930474 
L 141.734332 189.757603 
L 143.856257 189.544686 
L 145.978182 187.909074 
L 148.100107 192.751609 
L 150.222032 181.390536 
L 152.343957 180.745434 
L 154.465882 195.775611 
L 158.709733 182.188383 
L 160.831658 188.549712 
L 162.953583 196.65491 
L 165.075508 197.224364 
L 167.197433 185.644032 
L 169.319358 182.358753 
L 171.441283 187.169654 
L 173.563209 190.71247 
L 175.685134 188.482116 
L 177.807059 181.226371 
L 179.928984 185.519473 
L 182.050909 184.092667 
L 184.172834 185.566161 
L 186.294759 212.612201 
L 188.416684 153.998937 
L 190.53861 193.201208 
L 192.660535 189.786074 
L 194.78246 184.01361 
L 196.904385 177.157794 
L 199.02631 192.41854 
L 201.148235 184.866026 
L 203.27016 179.763025 
L 205.392086 185.645147 
L 207.514011 199.162968 
L 209.635936 181.735823 
L 211.757861 187.137208 
L 213.879786 185.481911 
L 216.001711 178.915803 
L 218.123636 173.445627 
L 220.245561 182.982794 
L 222.367487 175.512925 
L 224.489412 193.076367 
L 226.611337 182.932386 
L 228.733262 180.255521 
L 230.855187 181.626531 
L 232.977112 184.563135 
L 235.099037 179.478276 
L 237.220963 176.535677 
L 239.342888 182.946122 
L 241.464813 173.146477 
L 243.586738 180.287441 
L 245.708663 175.23478 
L 247.830588 188.051632 
L 249.952513 186.001456 
L 252.074439 191.02382 
L 254.196364 180.015247 
L 256.318289 184.24056 
L 258.440214 171.840549 
L 260.562139 181.546268 
L 262.684064 178.321324 
L 264.805989 183.14192 
L 266.927914 175.135944 
L 269.04984 185.725495 
L 271.171765 181.812028 
L 273.29369 180.732961 
L 275.415615 180.707928 
L 277.53754 181.166132 
L 279.659465 179.117254 
L 281.78139 175.130027 
L 283.903316 181.244653 
L 286.025241 190.054915 
L 288.147166 187.771688 
L 290.269091 189.524639 
L 292.391016 187.685906 
L 294.512941 173.013506 
L 296.634866 168.955643 
L 298.756791 190.654236 
L 300.878717 188.951518 
L 303.000642 179.027783 
L 305.122567 168.033036 
L 307.244492 173.298213 
L 309.366417 201.520831 
L 311.488342 170.923015 
L 313.610267 186.973294 
L 315.732193 175.635058 
L 317.854118 177.639093 
L 319.976043 185.813723 
L 324.219893 177.946625 
L 326.341818 190.240537 
L 328.463743 180.694148 
L 330.585668 176.023418 
L 332.707594 189.219662 
L 334.829519 204.625106 
L 336.951444 171.482789 
L 339.073369 174.194057 
L 341.195294 183.086268 
L 343.317219 179.060571 
L 345.439144 189.79678 
L 347.56107 174.551333 
L 349.682995 176.277722 
L 351.80492 182.446404 
L 353.926845 180.784236 
L 356.04877 182.795584 
L 358.170695 194.386607 
L 360.29262 187.866679 
L 362.414545 177.711176 
L 364.536471 177.811072 
L 366.658396 180.088064 
L 368.780321 185.414176 
L 370.902246 186.339956 
L 373.024171 181.14459 
L 375.146096 176.400661 
L 377.268021 182.281699 
L 379.389947 173.162727 
L 381.511872 171.055718 
L 383.633797 175.264456 
L 385.755722 177.223292 
L 387.877647 185.449385 
L 389.999572 187.810005 
L 392.121497 188.286117 
L 394.243422 175.199225 
L 396.365348 196.509995 
L 398.487273 191.284839 
L 398.487273 191.284839 
" clip-path="url(#p7d273781fe)" style="fill: none; stroke: #ff0000; stroke-opacity: 0.8; stroke-width: 0.5; stroke-linecap: square"/>
   </g>
   <g id="line2d_20">
    <path d="M 73.832727 143.612248 
L 75.954652 150.733871 
L 78.076578 129.841026 
L 80.198503 133.871544 
L 82.320428 161.025473 
L 84.442353 138.816885 
L 86.564278 141.512922 
L 88.686203 148.840599 
L 90.808128 64.160393 
L 92.930053 152.959633 
L 95.051979 143.895048 
L 97.173904 133.395128 
L 99.295829 145.659825 
L 101.417754 121.836018 
L 103.539679 150.407479 
L 105.661604 148.368072 
L 107.783529 134.900745 
L 109.905455 158.573445 
L 112.02738 154.770265 
L 114.149305 155.154748 
L 116.27123 152.029633 
L 118.393155 150.524067 
L 120.51508 134.34523 
L 122.637005 128.506279 
L 124.75893 157.861636 
L 126.880856 157.02361 
L 129.002781 155.5386 
L 131.124706 131.838747 
L 133.246631 168.933444 
L 135.368556 160.77379 
L 137.490481 153.779742 
L 139.612406 155.650279 
L 141.734332 174.595041 
L 143.856257 175.964157 
L 145.978182 160.311221 
L 148.100107 163.345571 
L 150.222032 143.489581 
L 152.343957 151.791633 
L 154.465882 151.522966 
L 156.587807 167.854208 
L 158.709733 162.893733 
L 160.831658 145.466213 
L 162.953583 170.682881 
L 165.075508 181.230004 
L 167.197433 171.161013 
L 169.319358 160.266572 
L 171.441283 165.47418 
L 173.563209 150.308184 
L 175.685134 164.294523 
L 177.807059 159.902124 
L 179.928984 167.034691 
L 182.050909 169.101651 
L 184.172834 165.169741 
L 186.294759 166.91181 
L 188.416684 53.568 
L 190.53861 124.362889 
L 192.660535 152.96356 
L 194.78246 160.609841 
L 196.904385 148.637832 
L 199.02631 153.474696 
L 201.148235 131.843687 
L 203.27016 136.533855 
L 205.392086 153.12223 
L 207.514011 176.349936 
L 209.635936 125.825545 
L 211.757861 128.497093 
L 213.879786 163.637506 
L 216.001711 145.751738 
L 218.123636 132.915605 
L 220.245561 155.610426 
L 222.367487 151.387843 
L 224.489412 153.491898 
L 226.611337 167.600967 
L 228.733262 154.475161 
L 230.855187 153.653717 
L 232.977112 131.133083 
L 235.099037 138.397458 
L 237.220963 140.889706 
L 239.342888 167.654735 
L 241.464813 135.363265 
L 243.586738 146.176526 
L 245.708663 137.677126 
L 247.830588 173.566259 
L 249.952513 134.667515 
L 252.074439 143.997914 
L 254.196364 146.667269 
L 256.318289 150.9778 
L 258.440214 122.163907 
L 260.562139 164.480324 
L 262.684064 140.706561 
L 264.805989 140.400287 
L 266.927914 142.416938 
L 269.04984 163.465507 
L 271.171765 161.58468 
L 273.29369 144.670391 
L 275.415615 163.448356 
L 277.53754 120.740699 
L 279.659465 125.472837 
L 281.78139 148.861658 
L 283.903316 158.592127 
L 286.025241 148.864468 
L 288.147166 152.05727 
L 292.391016 146.213996 
L 294.512941 153.163435 
L 296.634866 91.772737 
L 298.756791 136.826347 
L 300.878717 133.459704 
L 303.000642 142.055706 
L 305.122567 139.085501 
L 307.244492 123.35602 
L 309.366417 147.552724 
L 311.488342 127.969769 
L 313.610267 140.857437 
L 315.732193 112.525088 
L 317.854118 120.852289 
L 319.976043 132.478314 
L 322.097968 138.535472 
L 324.219893 128.73655 
L 326.341818 122.911149 
L 328.463743 145.247493 
L 330.585668 136.143698 
L 332.707594 118.523938 
L 334.829519 136.039585 
L 336.951444 120.721137 
L 339.073369 146.421071 
L 341.195294 148.906609 
L 343.317219 121.46076 
L 345.439144 143.124191 
L 347.56107 113.832573 
L 349.682995 152.354481 
L 351.80492 148.568915 
L 353.926845 102.721276 
L 356.04877 135.154887 
L 358.170695 145.108119 
L 360.29262 142.664433 
L 362.414545 151.598935 
L 364.536471 152.895134 
L 368.780321 156.951252 
L 370.902246 166.437683 
L 373.024171 146.433049 
L 375.146096 145.425144 
L 377.268021 160.131814 
L 379.389947 132.408388 
L 381.511872 137.802124 
L 383.633797 139.936489 
L 385.755722 121.559425 
L 389.999572 162.24683 
L 392.121497 162.010484 
L 394.243422 138.135912 
L 396.365348 135.212113 
L 398.487273 163.532466 
L 398.487273 163.532466 
" clip-path="url(#p7d273781fe)" style="fill: none; stroke: #f08080; stroke-opacity: 0.8; stroke-width: 0.5; stroke-linecap: square"/>
   </g>
   <g id="line2d_21">
    <path d="M 73.832727 233.56141 
L 75.954652 217.435327 
L 78.076578 232.664644 
L 80.198503 226.453927 
L 82.320428 210.388418 
L 84.442353 208.63679 
L 86.564278 219.332917 
L 88.686203 240.33667 
L 90.808128 220.521328 
L 92.930053 220.74937 
L 95.051979 238.97317 
L 97.173904 217.766814 
L 99.295829 198.626216 
L 101.417754 222.01855 
L 103.539679 230.44225 
L 105.661604 224.064352 
L 107.783529 205.180676 
L 109.905455 213.507836 
L 112.02738 227.593146 
L 114.149305 217.229997 
L 116.27123 222.025508 
L 118.393155 208.027213 
L 120.51508 220.766158 
L 122.637005 236.631464 
L 124.75893 192.126593 
L 126.880856 253.209806 
L 129.002781 221.826444 
L 131.124706 206.904634 
L 133.246631 242.174852 
L 135.368556 203.059414 
L 137.490481 204.490365 
L 139.612406 195.608053 
L 141.734332 198.899326 
L 143.856257 211.289418 
L 145.978182 219.465779 
L 148.100107 219.813354 
L 150.222032 205.16484 
L 152.343957 198.930236 
L 154.465882 256.347218 
L 156.587807 211.974263 
L 158.709733 212.219845 
L 160.831658 233.446714 
L 162.953583 218.033583 
L 165.075508 215.112855 
L 167.197433 201.820485 
L 169.319358 202.475584 
L 171.441283 195.840524 
L 175.685134 231.344623 
L 177.807059 198.860554 
L 179.928984 199.321096 
L 182.050909 215.91793 
L 184.172834 214.186719 
L 186.294759 242.135944 
L 188.416684 236.115293 
L 190.53861 247.186136 
L 192.660535 234.771734 
L 194.78246 217.612418 
L 196.904385 201.749849 
L 199.02631 225.044427 
L 201.148235 230.617672 
L 203.27016 239.852392 
L 205.392086 216.045692 
L 207.514011 217.457354 
L 209.635936 233.174982 
L 211.757861 221.219683 
L 213.879786 233.084738 
L 216.001711 198.102605 
L 218.123636 209.334014 
L 220.245561 208.900418 
L 222.367487 210.772901 
L 224.489412 249.272518 
L 226.611337 210.789113 
L 228.733262 239.358219 
L 230.855187 202.43311 
L 232.977112 225.248422 
L 235.099037 201.00484 
L 237.220963 230.31657 
L 239.342888 205.565064 
L 241.464813 197.820721 
L 243.586738 216.422378 
L 245.708663 211.408167 
L 247.830588 221.6161 
L 249.952513 221.311594 
L 252.074439 236.870881 
L 254.196364 220.810407 
L 256.318289 213.425103 
L 258.440214 196.775836 
L 260.562139 212.370236 
L 262.684064 211.568616 
L 264.805989 215.185672 
L 266.927914 197.129767 
L 269.04984 208.173387 
L 271.171765 194.853295 
L 273.29369 202.784278 
L 275.415615 215.710959 
L 277.53754 222.771737 
L 279.659465 221.537609 
L 281.78139 211.409098 
L 283.903316 222.030739 
L 288.147166 219.682203 
L 290.269091 225.014571 
L 292.391016 234.551705 
L 294.512941 209.127253 
L 296.634866 226.201839 
L 298.756791 268.993541 
L 300.878717 236.45039 
L 303.000642 230.781948 
L 305.122567 196.395189 
L 309.366417 245.076063 
L 311.488342 247.04141 
L 313.610267 225.066043 
L 315.732193 215.939237 
L 317.854118 216.202518 
L 319.976043 254.434531 
L 322.097968 224.458922 
L 324.219893 222.716301 
L 326.341818 228.470728 
L 328.463743 239.769673 
L 330.585668 242.140255 
L 332.707594 243.409142 
L 334.829519 277.056512 
L 336.951444 225.387796 
L 339.073369 223.367719 
L 341.195294 219.103398 
L 343.317219 246.584381 
L 345.439144 231.81327 
L 347.56107 242.473684 
L 349.682995 199.825994 
L 351.80492 230.119901 
L 353.926845 226.780949 
L 356.04877 215.653914 
L 358.170695 236.522441 
L 360.29262 218.400467 
L 362.414545 215.324956 
L 364.536471 198.387043 
L 366.658396 211.91365 
L 368.780321 236.568374 
L 370.902246 220.267618 
L 373.024171 234.382163 
L 375.146096 205.82207 
L 377.268021 217.903801 
L 379.389947 209.20941 
L 381.511872 186.017936 
L 383.633797 223.772403 
L 385.755722 223.627272 
L 387.877647 219.957978 
L 389.999572 239.128062 
L 392.121497 272.566151 
L 394.243422 204.962293 
L 396.365348 239.06785 
L 398.487273 216.469758 
L 398.487273 216.469758 
" clip-path="url(#p7d273781fe)" style="fill: none; stroke: #f08080; stroke-opacity: 0.8; stroke-width: 0.5; stroke-linecap: square"/>
   </g>
   <g id="patch_3">
    <path d="M 57.6 307.584 
L 57.6 41.472 
" style="fill: none; stroke: #000000; stroke-width: 0.8; stroke-linejoin: miter; stroke-linecap: square"/>
   </g>
   <g id="patch_4">
    <path d="M 414.72 307.584 
L 414.72 41.472 
" style="fill: none; stroke: #000000; stroke-width: 0.8; stroke-linejoin: miter; stroke-linecap: square"/>
   </g>
   <g id="patch_5">
    <path d="M 57.6 307.584 
L 414.72 307.584 
" style="fill: none; stroke: #000000; stroke-width: 0.8; stroke-linejoin: miter; stroke-linecap: square"/>
   </g>
   <g id="patch_6">
    <path d="M 57.6 41.472 
L 414.72 41.472 
" style="fill: none; stroke: #000000; stroke-width: 0.8; stroke-linejoin: miter; stroke-linecap: square"/>
   </g>
   <g id="text_16">
    <!-- 1final_naive_pr_eurusd -->
    <g transform="translate(167.054062 35.472) scale(0.12 -0.12)">
     <defs>
      <path id="DejaVuSans-66" d="M 2375 4863 
L 2375 4384 
L 1825 4384 
Q 1516 4384 1395 4259 
Q 1275 4134 1275 3809 
L 1275 3500 
L 2222 3500 
L 2222 3053 
L 1275 3053 
L 1275 0 
L 697 0 
L 697 3053 
L 147 3053 
L 147 3500 
L 697 3500 
L 697 3744 
Q 697 4328 969 4595 
Q 1241 4863 1831 4863 
L 2375 4863 
z
" transform="scale(0.015625)"/>
      <path id="DejaVuSans-69" d="M 603 3500 
L 1178 3500 
L 1178 0 
L 603 0 
L 603 3500 
z
M 603 4863 
L 1178 4863 
L 1178 4134 
L 603 4134 
L 603 4863 
z
" transform="scale(0.015625)"/>
      <path id="DejaVuSans-6e" d="M 3513 2113 
L 3513 0 
L 2938 0 
L 2938 2094 
Q 2938 2591 2744 2837 
Q 2550 3084 2163 3084 
Q 1697 3084 1428 2787 
Q 1159 2491 1159 1978 
L 1159 0 
L 581 0 
L 581 3500 
L 1159 3500 
L 1159 2956 
Q 1366 3272 1645 3428 
Q 1925 3584 2291 3584 
Q 2894 3584 3203 3211 
Q 3513 2838 3513 2113 
z
" transform="scale(0.015625)"/>
      <path id="DejaVuSans-61" d="M 2194 1759 
Q 1497 1759 1228 1600 
Q 959 1441 959 1056 
Q 959 750 1161 570 
Q 1363 391 1709 391 
Q 2188 391 2477 730 
Q 2766 1069 2766 1631 
L 2766 1759 
L 2194 1759 
z
M 3341 1997 
L 3341 0 
L 2766 0 
L 2766 531 
Q 2569 213 2275 61 
Q 1981 -91 1556 -91 
Q 1019 -91 701 211 
Q 384 513 384 1019 
Q 384 1609 779 1909 
Q 1175 2209 1959 2209 
L 2766 2209 
L 2766 2266 
Q 2766 2663 2505 2880 
Q 2244 3097 1772 3097 
Q 1472 3097 1187 3025 
Q 903 2953 641 2809 
L 641 3341 
Q 956 3463 1253 3523 
Q 1550 3584 1831 3584 
Q 2591 3584 2966 3190 
Q 3341 2797 3341 1997 
z
" transform="scale(0.015625)"/>
      <path id="DejaVuSans-6c" d="M 603 4863 
L 1178 4863 
L 1178 0 
L 603 0 
L 603 4863 
z
" transform="scale(0.015625)"/>
      <path id="DejaVuSans-5f" d="M 3263 -1063 
L 3263 -1509 
L -63 -1509 
L -63 -1063 
L 3263 -1063 
z
" transform="scale(0.015625)"/>
      <path id="DejaVuSans-76" d="M 191 3500 
L 800 3500 
L 1894 563 
L 2988 3500 
L 3597 3500 
L 2284 0 
L 1503 0 
L 191 3500 
z
" transform="scale(0.015625)"/>
      <path id="DejaVuSans-65" d="M 3597 1894 
L 3597 1613 
L 953 1613 
Q 991 1019 1311 708 
Q 1631 397 2203 397 
Q 2534 397 2845 478 
Q 3156 559 3463 722 
L 3463 178 
Q 3153 47 2828 -22 
Q 2503 -91 2169 -91 
Q 1331 -91 842 396 
Q 353 884 353 1716 
Q 353 2575 817 3079 
Q 1281 3584 2069 3584 
Q 2775 3584 3186 3129 
Q 3597 2675 3597 1894 
z
M 3022 2063 
Q 3016 2534 2758 2815 
Q 2500 3097 2075 3097 
Q 1594 3097 1305 2825 
Q 1016 2553 972 2059 
L 3022 2063 
z
" transform="scale(0.015625)"/>
      <path id="DejaVuSans-70" d="M 1159 525 
L 1159 -1331 
L 581 -1331 
L 581 3500 
L 1159 3500 
L 1159 2969 
Q 1341 3281 1617 3432 
Q 1894 3584 2278 3584 
Q 2916 3584 3314 3078 
Q 3713 2572 3713 1747 
Q 3713 922 3314 415 
Q 2916 -91 2278 -91 
Q 1894 -91 1617 61 
Q 1341 213 1159 525 
z
M 3116 1747 
Q 3116 2381 2855 2742 
Q 2594 3103 2138 3103 
Q 1681 3103 1420 2742 
Q 1159 2381 1159 1747 
Q 1159 1113 1420 752 
Q 1681 391 2138 391 
Q 2594 391 2855 752 
Q 3116 1113 3116 1747 
z
" transform="scale(0.015625)"/>
      <path id="DejaVuSans-72" d="M 2631 2963 
Q 2534 3019 2420 3045 
Q 2306 3072 2169 3072 
Q 1681 3072 1420 2755 
Q 1159 2438 1159 1844 
L 1159 0 
L 581 0 
L 581 3500 
L 1159 3500 
L 1159 2956 
Q 1341 3275 1631 3429 
Q 1922 3584 2338 3584 
Q 2397 3584 2469 3576 
Q 2541 3569 2628 3553 
L 2631 2963 
z
" transform="scale(0.015625)"/>
      <path id="DejaVuSans-75" d="M 544 1381 
L 544 3500 
L 1119 3500 
L 1119 1403 
Q 1119 906 1312 657 
Q 1506 409 1894 409 
Q 2359 409 2629 706 
Q 2900 1003 2900 1516 
L 2900 3500 
L 3475 3500 
L 3475 0 
L 2900 0 
L 2900 538 
Q 2691 219 2414 64 
Q 2138 -91 1772 -91 
Q 1169 -91 856 284 
Q 544 659 544 1381 
z
M 1991 3584 
L 1991 3584 
z
" transform="scale(0.015625)"/>
      <path id="DejaVuSans-73" d="M 2834 3397 
L 2834 2853 
Q 2591 2978 2328 3040 
Q 2066 3103 1784 3103 
Q 1356 3103 1142 2972 
Q 928 2841 928 2578 
Q 928 2378 1081 2264 
Q 1234 2150 1697 2047 
L 1894 2003 
Q 2506 1872 2764 1633 
Q 3022 1394 3022 966 
Q 3022 478 2636 193 
Q 2250 -91 1575 -91 
Q 1294 -91 989 -36 
Q 684 19 347 128 
L 347 722 
Q 666 556 975 473 
Q 1284 391 1588 391 
Q 1994 391 2212 530 
Q 2431 669 2431 922 
Q 2431 1156 2273 1281 
Q 2116 1406 1581 1522 
L 1381 1569 
Q 847 1681 609 1914 
Q 372 2147 372 2553 
Q 372 3047 722 3315 
Q 1072 3584 1716 3584 
Q 2034 3584 2315 3537 
Q 2597 3491 2834 3397 
z
" transform="scale(0.015625)"/>
      <path id="DejaVuSans-64" d="M 2906 2969 
L 2906 4863 
L 3481 4863 
L 3481 0 
L 2906 0 
L 2906 525 
Q 2725 213 2448 61 
Q 2172 -91 1784 -91 
Q 1150 -91 751 415 
Q 353 922 353 1747 
Q 353 2572 751 3078 
Q 1150 3584 1784 3584 
Q 2172 3584 2448 3432 
Q 2725 3281 2906 2969 
z
M 947 1747 
Q 947 1113 1208 752 
Q 1469 391 1925 391 
Q 2381 391 2643 752 
Q 2906 1113 2906 1747 
Q 2906 2381 2643 2742 
Q 2381 3103 1925 3103 
Q 1469 3103 1208 2742 
Q 947 2381 947 1747 
z
" transform="scale(0.015625)"/>
     </defs>
     <use xlink:href="#DejaVuSans-31"/>
     <use xlink:href="#DejaVuSans-66" x="63.623047"/>
     <use xlink:href="#DejaVuSans-69" x="98.828125"/>
     <use xlink:href="#DejaVuSans-6e" x="126.611328"/>
     <use xlink:href="#DejaVuSans-61" x="189.990234"/>
     <use xlink:href="#DejaVuSans-6c" x="251.269531"/>
     <use xlink:href="#DejaVuSans-5f" x="279.052734"/>
     <use xlink:href="#DejaVuSans-6e" x="329.052734"/>
     <use xlink:href="#DejaVuSans-61" x="392.431641"/>
     <use xlink:href="#DejaVuSans-69" x="453.710938"/>
     <use xlink:href="#DejaVuSans-76" x="481.494141"/>
     <use xlink:href="#DejaVuSans-65" x="540.673828"/>
     <use xlink:href="#DejaVuSans-5f" x="602.197266"/>
     <use xlink:href="#DejaVuSans-70" x="652.197266"/>
     <use xlink:href="#DejaVuSans-72" x="715.673828"/>
     <use xlink:href="#DejaVuSans-5f" x="756.787109"/>
     <use xlink:href="#DejaVuSans-65" x="806.787109"/>
     <use xlink:href="#DejaVuSans-75" x="868.310547"/>
     <use xlink:href="#DejaVuSans-72" x="931.689453"/>
     <use xlink:href="#DejaVuSans-75" x="972.802734"/>
     <use xlink:href="#DejaVuSans-73" x="1036.181641"/>
     <use xlink:href="#DejaVuSans-64" x="1088.28125"/>
    </g>
   </g>
   <g id="legend_1">
    <g id="patch_7">
     <path d="M 64.6 137.54075 
L 225.001563 137.54075 
Q 227.001563 137.54075 227.001563 135.54075 
L 227.001563 48.472 
Q 227.001563 46.472 225.001563 46.472 
L 64.6 46.472 
Q 62.6 46.472 62.6 48.472 
L 62.6 135.54075 
Q 62.6 137.54075 64.6 137.54075 
z
" style="fill: #ffffff; opacity: 0.8; stroke: #cccccc; stroke-linejoin: miter"/>
    </g>
    <g id="line2d_22">
     <path d="M 66.6 54.570438 
L 76.6 54.570438 
L 86.6 54.570438 
" style="fill: none; stroke: #008000; stroke-opacity: 0.8; stroke-width: 0.5; stroke-linecap: square"/>
    </g>
    <g id="text_17">
     <!-- Positive predictions -->
     <g transform="translate(94.6 58.070438) scale(0.1 -0.1)">
      <defs>
       <path id="DejaVuSans-50" d="M 1259 4147 
L 1259 2394 
L 2053 2394 
Q 2494 2394 2734 2622 
Q 2975 2850 2975 3272 
Q 2975 3691 2734 3919 
Q 2494 4147 2053 4147 
L 1259 4147 
z
M 628 4666 
L 2053 4666 
Q 2838 4666 3239 4311 
Q 3641 3956 3641 3272 
Q 3641 2581 3239 2228 
Q 2838 1875 2053 1875 
L 1259 1875 
L 1259 0 
L 628 0 
L 628 4666 
z
" transform="scale(0.015625)"/>
       <path id="DejaVuSans-6f" d="M 1959 3097 
Q 1497 3097 1228 2736 
Q 959 2375 959 1747 
Q 959 1119 1226 758 
Q 1494 397 1959 397 
Q 2419 397 2687 759 
Q 2956 1122 2956 1747 
Q 2956 2369 2687 2733 
Q 2419 3097 1959 3097 
z
M 1959 3584 
Q 2709 3584 3137 3096 
Q 3566 2609 3566 1747 
Q 3566 888 3137 398 
Q 2709 -91 1959 -91 
Q 1206 -91 779 398 
Q 353 888 353 1747 
Q 353 2609 779 3096 
Q 1206 3584 1959 3584 
z
" transform="scale(0.015625)"/>
       <path id="DejaVuSans-74" d="M 1172 4494 
L 1172 3500 
L 2356 3500 
L 2356 3053 
L 1172 3053 
L 1172 1153 
Q 1172 725 1289 603 
Q 1406 481 1766 481 
L 2356 481 
L 2356 0 
L 1766 0 
Q 1100 0 847 248 
Q 594 497 594 1153 
L 594 3053 
L 172 3053 
L 172 3500 
L 594 3500 
L 594 4494 
L 1172 4494 
z
" transform="scale(0.015625)"/>
       <path id="DejaVuSans-20" transform="scale(0.015625)"/>
       <path id="DejaVuSans-63" d="M 3122 3366 
L 3122 2828 
Q 2878 2963 2633 3030 
Q 2388 3097 2138 3097 
Q 1578 3097 1268 2742 
Q 959 2388 959 1747 
Q 959 1106 1268 751 
Q 1578 397 2138 397 
Q 2388 397 2633 464 
Q 2878 531 3122 666 
L 3122 134 
Q 2881 22 2623 -34 
Q 2366 -91 2075 -91 
Q 1284 -91 818 406 
Q 353 903 353 1747 
Q 353 2603 823 3093 
Q 1294 3584 2113 3584 
Q 2378 3584 2631 3529 
Q 2884 3475 3122 3366 
z
" transform="scale(0.015625)"/>
      </defs>
      <use xlink:href="#DejaVuSans-50"/>
      <use xlink:href="#DejaVuSans-6f" x="56.677734"/>
      <use xlink:href="#DejaVuSans-73" x="117.859375"/>
      <use xlink:href="#DejaVuSans-69" x="169.958984"/>
      <use xlink:href="#DejaVuSans-74" x="197.742188"/>
      <use xlink:href="#DejaVuSans-69" x="236.951172"/>
      <use xlink:href="#DejaVuSans-76" x="264.734375"/>
      <use xlink:href="#DejaVuSans-65" x="323.914062"/>
      <use xlink:href="#DejaVuSans-20" x="385.4375"/>
      <use xlink:href="#DejaVuSans-70" x="417.224609"/>
      <use xlink:href="#DejaVuSans-72" x="480.701172"/>
      <use xlink:href="#DejaVuSans-65" x="519.564453"/>
      <use xlink:href="#DejaVuSans-64" x="581.087891"/>
      <use xlink:href="#DejaVuSans-69" x="644.564453"/>
      <use xlink:href="#DejaVuSans-63" x="672.347656"/>
      <use xlink:href="#DejaVuSans-74" x="727.328125"/>
      <use xlink:href="#DejaVuSans-69" x="766.537109"/>
      <use xlink:href="#DejaVuSans-6f" x="794.320312"/>
      <use xlink:href="#DejaVuSans-6e" x="855.501953"/>
      <use xlink:href="#DejaVuSans-73" x="918.880859"/>
     </g>
    </g>
    <g id="line2d_23">
     <path d="M 66.6 69.248563 
L 76.6 69.248563 
L 86.6 69.248563 
" style="fill: none; stroke: #32cd32; stroke-opacity: 0.8; stroke-width: 0.5; stroke-linecap: square"/>
    </g>
    <g id="text_18">
     <!-- Positive predictions max -->
     <g transform="translate(94.6 72.748563) scale(0.1 -0.1)">
      <defs>
       <path id="DejaVuSans-6d" d="M 3328 2828 
Q 3544 3216 3844 3400 
Q 4144 3584 4550 3584 
Q 5097 3584 5394 3201 
Q 5691 2819 5691 2113 
L 5691 0 
L 5113 0 
L 5113 2094 
Q 5113 2597 4934 2840 
Q 4756 3084 4391 3084 
Q 3944 3084 3684 2787 
Q 3425 2491 3425 1978 
L 3425 0 
L 2847 0 
L 2847 2094 
Q 2847 2600 2669 2842 
Q 2491 3084 2119 3084 
Q 1678 3084 1418 2786 
Q 1159 2488 1159 1978 
L 1159 0 
L 581 0 
L 581 3500 
L 1159 3500 
L 1159 2956 
Q 1356 3278 1631 3431 
Q 1906 3584 2284 3584 
Q 2666 3584 2933 3390 
Q 3200 3197 3328 2828 
z
" transform="scale(0.015625)"/>
       <path id="DejaVuSans-78" d="M 3513 3500 
L 2247 1797 
L 3578 0 
L 2900 0 
L 1881 1375 
L 863 0 
L 184 0 
L 1544 1831 
L 300 3500 
L 978 3500 
L 1906 2253 
L 2834 3500 
L 3513 3500 
z
" transform="scale(0.015625)"/>
      </defs>
      <use xlink:href="#DejaVuSans-50"/>
      <use xlink:href="#DejaVuSans-6f" x="56.677734"/>
      <use xlink:href="#DejaVuSans-73" x="117.859375"/>
      <use xlink:href="#DejaVuSans-69" x="169.958984"/>
      <use xlink:href="#DejaVuSans-74" x="197.742188"/>
      <use xlink:href="#DejaVuSans-69" x="236.951172"/>
      <use xlink:href="#DejaVuSans-76" x="264.734375"/>
      <use xlink:href="#DejaVuSans-65" x="323.914062"/>
      <use xlink:href="#DejaVuSans-20" x="385.4375"/>
      <use xlink:href="#DejaVuSans-70" x="417.224609"/>
      <use xlink:href="#DejaVuSans-72" x="480.701172"/>
      <use xlink:href="#DejaVuSans-65" x="519.564453"/>
      <use xlink:href="#DejaVuSans-64" x="581.087891"/>
      <use xlink:href="#DejaVuSans-69" x="644.564453"/>
      <use xlink:href="#DejaVuSans-63" x="672.347656"/>
      <use xlink:href="#DejaVuSans-74" x="727.328125"/>
      <use xlink:href="#DejaVuSans-69" x="766.537109"/>
      <use xlink:href="#DejaVuSans-6f" x="794.320312"/>
      <use xlink:href="#DejaVuSans-6e" x="855.501953"/>
      <use xlink:href="#DejaVuSans-73" x="918.880859"/>
      <use xlink:href="#DejaVuSans-20" x="970.980469"/>
      <use xlink:href="#DejaVuSans-6d" x="1002.767578"/>
      <use xlink:href="#DejaVuSans-61" x="1100.179688"/>
      <use xlink:href="#DejaVuSans-78" x="1161.458984"/>
     </g>
    </g>
    <g id="line2d_24">
     <path d="M 66.6 83.926688 
L 76.6 83.926688 
L 86.6 83.926688 
" style="fill: none; stroke: #32cd32; stroke-opacity: 0.8; stroke-width: 0.5; stroke-linecap: square"/>
    </g>
    <g id="text_19">
     <!-- Positive predictions min -->
     <g transform="translate(94.6 87.426688) scale(0.1 -0.1)">
      <use xlink:href="#DejaVuSans-50"/>
      <use xlink:href="#DejaVuSans-6f" x="56.677734"/>
      <use xlink:href="#DejaVuSans-73" x="117.859375"/>
      <use xlink:href="#DejaVuSans-69" x="169.958984"/>
      <use xlink:href="#DejaVuSans-74" x="197.742188"/>
      <use xlink:href="#DejaVuSans-69" x="236.951172"/>
      <use xlink:href="#DejaVuSans-76" x="264.734375"/>
      <use xlink:href="#DejaVuSans-65" x="323.914062"/>
      <use xlink:href="#DejaVuSans-20" x="385.4375"/>
      <use xlink:href="#DejaVuSans-70" x="417.224609"/>
      <use xlink:href="#DejaVuSans-72" x="480.701172"/>
      <use xlink:href="#DejaVuSans-65" x="519.564453"/>
      <use xlink:href="#DejaVuSans-64" x="581.087891"/>
      <use xlink:href="#DejaVuSans-69" x="644.564453"/>
      <use xlink:href="#DejaVuSans-63" x="672.347656"/>
      <use xlink:href="#DejaVuSans-74" x="727.328125"/>
      <use xlink:href="#DejaVuSans-69" x="766.537109"/>
      <use xlink:href="#DejaVuSans-6f" x="794.320312"/>
      <use xlink:href="#DejaVuSans-6e" x="855.501953"/>
      <use xlink:href="#DejaVuSans-73" x="918.880859"/>
      <use xlink:href="#DejaVuSans-20" x="970.980469"/>
      <use xlink:href="#DejaVuSans-6d" x="1002.767578"/>
      <use xlink:href="#DejaVuSans-69" x="1100.179688"/>
      <use xlink:href="#DejaVuSans-6e" x="1127.962891"/>
     </g>
    </g>
    <g id="line2d_25">
     <path d="M 66.6 98.604813 
L 76.6 98.604813 
L 86.6 98.604813 
" style="fill: none; stroke: #ff0000; stroke-opacity: 0.8; stroke-width: 0.5; stroke-linecap: square"/>
    </g>
    <g id="text_20">
     <!-- Negative predictions -->
     <g transform="translate(94.6 102.104813) scale(0.1 -0.1)">
      <defs>
       <path id="DejaVuSans-4e" d="M 628 4666 
L 1478 4666 
L 3547 763 
L 3547 4666 
L 4159 4666 
L 4159 0 
L 3309 0 
L 1241 3903 
L 1241 0 
L 628 0 
L 628 4666 
z
" transform="scale(0.015625)"/>
       <path id="DejaVuSans-67" d="M 2906 1791 
Q 2906 2416 2648 2759 
Q 2391 3103 1925 3103 
Q 1463 3103 1205 2759 
Q 947 2416 947 1791 
Q 947 1169 1205 825 
Q 1463 481 1925 481 
Q 2391 481 2648 825 
Q 2906 1169 2906 1791 
z
M 3481 434 
Q 3481 -459 3084 -895 
Q 2688 -1331 1869 -1331 
Q 1566 -1331 1297 -1286 
Q 1028 -1241 775 -1147 
L 775 -588 
Q 1028 -725 1275 -790 
Q 1522 -856 1778 -856 
Q 2344 -856 2625 -561 
Q 2906 -266 2906 331 
L 2906 616 
Q 2728 306 2450 153 
Q 2172 0 1784 0 
Q 1141 0 747 490 
Q 353 981 353 1791 
Q 353 2603 747 3093 
Q 1141 3584 1784 3584 
Q 2172 3584 2450 3431 
Q 2728 3278 2906 2969 
L 2906 3500 
L 3481 3500 
L 3481 434 
z
" transform="scale(0.015625)"/>
      </defs>
      <use xlink:href="#DejaVuSans-4e"/>
      <use xlink:href="#DejaVuSans-65" x="74.804688"/>
      <use xlink:href="#DejaVuSans-67" x="136.328125"/>
      <use xlink:href="#DejaVuSans-61" x="199.804688"/>
      <use xlink:href="#DejaVuSans-74" x="261.083984"/>
      <use xlink:href="#DejaVuSans-69" x="300.292969"/>
      <use xlink:href="#DejaVuSans-76" x="328.076172"/>
      <use xlink:href="#DejaVuSans-65" x="387.255859"/>
      <use xlink:href="#DejaVuSans-20" x="448.779297"/>
      <use xlink:href="#DejaVuSans-70" x="480.566406"/>
      <use xlink:href="#DejaVuSans-72" x="544.042969"/>
      <use xlink:href="#DejaVuSans-65" x="582.90625"/>
      <use xlink:href="#DejaVuSans-64" x="644.429688"/>
      <use xlink:href="#DejaVuSans-69" x="707.90625"/>
      <use xlink:href="#DejaVuSans-63" x="735.689453"/>
      <use xlink:href="#DejaVuSans-74" x="790.669922"/>
      <use xlink:href="#DejaVuSans-69" x="829.878906"/>
      <use xlink:href="#DejaVuSans-6f" x="857.662109"/>
      <use xlink:href="#DejaVuSans-6e" x="918.84375"/>
      <use xlink:href="#DejaVuSans-73" x="982.222656"/>
     </g>
    </g>
    <g id="line2d_26">
     <path d="M 66.6 113.282938 
L 76.6 113.282938 
L 86.6 113.282938 
" style="fill: none; stroke: #f08080; stroke-opacity: 0.8; stroke-width: 0.5; stroke-linecap: square"/>
    </g>
    <g id="text_21">
     <!-- Negative predictions max -->
     <g transform="translate(94.6 116.782938) scale(0.1 -0.1)">
      <use xlink:href="#DejaVuSans-4e"/>
      <use xlink:href="#DejaVuSans-65" x="74.804688"/>
      <use xlink:href="#DejaVuSans-67" x="136.328125"/>
      <use xlink:href="#DejaVuSans-61" x="199.804688"/>
      <use xlink:href="#DejaVuSans-74" x="261.083984"/>
      <use xlink:href="#DejaVuSans-69" x="300.292969"/>
      <use xlink:href="#DejaVuSans-76" x="328.076172"/>
      <use xlink:href="#DejaVuSans-65" x="387.255859"/>
      <use xlink:href="#DejaVuSans-20" x="448.779297"/>
      <use xlink:href="#DejaVuSans-70" x="480.566406"/>
      <use xlink:href="#DejaVuSans-72" x="544.042969"/>
      <use xlink:href="#DejaVuSans-65" x="582.90625"/>
      <use xlink:href="#DejaVuSans-64" x="644.429688"/>
      <use xlink:href="#DejaVuSans-69" x="707.90625"/>
      <use xlink:href="#DejaVuSans-63" x="735.689453"/>
      <use xlink:href="#DejaVuSans-74" x="790.669922"/>
      <use xlink:href="#DejaVuSans-69" x="829.878906"/>
      <use xlink:href="#DejaVuSans-6f" x="857.662109"/>
      <use xlink:href="#DejaVuSans-6e" x="918.84375"/>
      <use xlink:href="#DejaVuSans-73" x="982.222656"/>
      <use xlink:href="#DejaVuSans-20" x="1034.322266"/>
      <use xlink:href="#DejaVuSans-6d" x="1066.109375"/>
      <use xlink:href="#DejaVuSans-61" x="1163.521484"/>
      <use xlink:href="#DejaVuSans-78" x="1224.800781"/>
     </g>
    </g>
    <g id="line2d_27">
     <path d="M 66.6 127.961063 
L 76.6 127.961063 
L 86.6 127.961063 
" style="fill: none; stroke: #f08080; stroke-opacity: 0.8; stroke-width: 0.5; stroke-linecap: square"/>
    </g>
    <g id="text_22">
     <!-- Negative predictions min -->
     <g transform="translate(94.6 131.461063) scale(0.1 -0.1)">
      <use xlink:href="#DejaVuSans-4e"/>
      <use xlink:href="#DejaVuSans-65" x="74.804688"/>
      <use xlink:href="#DejaVuSans-67" x="136.328125"/>
      <use xlink:href="#DejaVuSans-61" x="199.804688"/>
      <use xlink:href="#DejaVuSans-74" x="261.083984"/>
      <use xlink:href="#DejaVuSans-69" x="300.292969"/>
      <use xlink:href="#DejaVuSans-76" x="328.076172"/>
      <use xlink:href="#DejaVuSans-65" x="387.255859"/>
      <use xlink:href="#DejaVuSans-20" x="448.779297"/>
      <use xlink:href="#DejaVuSans-70" x="480.566406"/>
      <use xlink:href="#DejaVuSans-72" x="544.042969"/>
      <use xlink:href="#DejaVuSans-65" x="582.90625"/>
      <use xlink:href="#DejaVuSans-64" x="644.429688"/>
      <use xlink:href="#DejaVuSans-69" x="707.90625"/>
      <use xlink:href="#DejaVuSans-63" x="735.689453"/>
      <use xlink:href="#DejaVuSans-74" x="790.669922"/>
      <use xlink:href="#DejaVuSans-69" x="829.878906"/>
      <use xlink:href="#DejaVuSans-6f" x="857.662109"/>
      <use xlink:href="#DejaVuSans-6e" x="918.84375"/>
      <use xlink:href="#DejaVuSans-73" x="982.222656"/>
      <use xlink:href="#DejaVuSans-20" x="1034.322266"/>
      <use xlink:href="#DejaVuSans-6d" x="1066.109375"/>
      <use xlink:href="#DejaVuSans-69" x="1163.521484"/>
      <use xlink:href="#DejaVuSans-6e" x="1191.304688"/>
     </g>
    </g>
   </g>
  </g>
 </g>
 <defs>
  <clipPath id="p7d273781fe">
   <rect x="57.6" y="41.472" width="357.12" height="266.112"/>
  </clipPath>
 </defs>
</svg>
