<?xml version="1.0" encoding="utf-8" standalone="no"?>
<!DOCTYPE svg PUBLIC "-//W3C//DTD SVG 1.1//EN"
  "http://www.w3.org/Graphics/SVG/1.1/DTD/svg11.dtd">
<svg xmlns:xlink="http://www.w3.org/1999/xlink" width="460.8pt" height="345.6pt" viewBox="0 0 460.8 345.6" xmlns="http://www.w3.org/2000/svg" version="1.1">
 <metadata>
  <rdf:RDF xmlns:dc="http://purl.org/dc/elements/1.1/" xmlns:cc="http://creativecommons.org/ns#" xmlns:rdf="http://www.w3.org/1999/02/22-rdf-syntax-ns#">
   <cc:Work>
    <dc:type rdf:resource="http://purl.org/dc/dcmitype/StillImage"/>
    <dc:date>2024-09-08T12:08:06.637157</dc:date>
    <dc:format>image/svg+xml</dc:format>
    <dc:creator>
     <cc:Agent>
      <dc:title>Matplotlib v3.8.3, https://matplotlib.org/</dc:title>
     </cc:Agent>
    </dc:creator>
   </cc:Work>
  </rdf:RDF>
 </metadata>
 <defs>
  <style type="text/css">*{stroke-linejoin: round; stroke-linecap: butt}</style>
 </defs>
 <g id="figure_1">
  <g id="patch_1">
   <path d="M 0 345.6 
L 460.8 345.6 
L 460.8 0 
L 0 0 
z
" style="fill: #ffffff"/>
  </g>
  <g id="axes_1">
   <g id="patch_2">
    <path d="M 57.6 307.584 
L 414.72 307.584 
L 414.72 41.472 
L 57.6 41.472 
z
" style="fill: #ffffff"/>
   </g>
   <g id="matplotlib.axis_1">
    <g id="xtick_1">
     <g id="line2d_1">
      <defs>
       <path id="m3e4ee551e1" d="M 0 0 
L 0 3.5 
" style="stroke: #000000; stroke-width: 0.8"/>
      </defs>
      <g>
       <use xlink:href="#m3e4ee551e1" x="73.832727" y="307.584" style="stroke: #000000; stroke-width: 0.8"/>
      </g>
     </g>
     <g id="text_1">
      <!-- 0 -->
      <g transform="translate(70.651477 322.182437) scale(0.1 -0.1)">
       <defs>
        <path id="DejaVuSans-30" d="M 2034 4250 
Q 1547 4250 1301 3770 
Q 1056 3291 1056 2328 
Q 1056 1369 1301 889 
Q 1547 409 2034 409 
Q 2525 409 2770 889 
Q 3016 1369 3016 2328 
Q 3016 3291 2770 3770 
Q 2525 4250 2034 4250 
z
M 2034 4750 
Q 2819 4750 3233 4129 
Q 3647 3509 3647 2328 
Q 3647 1150 3233 529 
Q 2819 -91 2034 -91 
Q 1250 -91 836 529 
Q 422 1150 422 2328 
Q 422 3509 836 4129 
Q 1250 4750 2034 4750 
z
" transform="scale(0.015625)"/>
       </defs>
       <use xlink:href="#DejaVuSans-30"/>
      </g>
     </g>
    </g>
    <g id="xtick_2">
     <g id="line2d_2">
      <g>
       <use xlink:href="#m3e4ee551e1" x="116.27123" y="307.584" style="stroke: #000000; stroke-width: 0.8"/>
      </g>
     </g>
     <g id="text_2">
      <!-- 20 -->
      <g transform="translate(109.90873 322.182437) scale(0.1 -0.1)">
       <defs>
        <path id="DejaVuSans-32" d="M 1228 531 
L 3431 531 
L 3431 0 
L 469 0 
L 469 531 
Q 828 903 1448 1529 
Q 2069 2156 2228 2338 
Q 2531 2678 2651 2914 
Q 2772 3150 2772 3378 
Q 2772 3750 2511 3984 
Q 2250 4219 1831 4219 
Q 1534 4219 1204 4116 
Q 875 4013 500 3803 
L 500 4441 
Q 881 4594 1212 4672 
Q 1544 4750 1819 4750 
Q 2544 4750 2975 4387 
Q 3406 4025 3406 3419 
Q 3406 3131 3298 2873 
Q 3191 2616 2906 2266 
Q 2828 2175 2409 1742 
Q 1991 1309 1228 531 
z
" transform="scale(0.015625)"/>
       </defs>
       <use xlink:href="#DejaVuSans-32"/>
       <use xlink:href="#DejaVuSans-30" x="63.623047"/>
      </g>
     </g>
    </g>
    <g id="xtick_3">
     <g id="line2d_3">
      <g>
       <use xlink:href="#m3e4ee551e1" x="158.709733" y="307.584" style="stroke: #000000; stroke-width: 0.8"/>
      </g>
     </g>
     <g id="text_3">
      <!-- 40 -->
      <g transform="translate(152.347233 322.182437) scale(0.1 -0.1)">
       <defs>
        <path id="DejaVuSans-34" d="M 2419 4116 
L 825 1625 
L 2419 1625 
L 2419 4116 
z
M 2253 4666 
L 3047 4666 
L 3047 1625 
L 3713 1625 
L 3713 1100 
L 3047 1100 
L 3047 0 
L 2419 0 
L 2419 1100 
L 313 1100 
L 313 1709 
L 2253 4666 
z
" transform="scale(0.015625)"/>
       </defs>
       <use xlink:href="#DejaVuSans-34"/>
       <use xlink:href="#DejaVuSans-30" x="63.623047"/>
      </g>
     </g>
    </g>
    <g id="xtick_4">
     <g id="line2d_4">
      <g>
       <use xlink:href="#m3e4ee551e1" x="201.148235" y="307.584" style="stroke: #000000; stroke-width: 0.8"/>
      </g>
     </g>
     <g id="text_4">
      <!-- 60 -->
      <g transform="translate(194.785735 322.182437) scale(0.1 -0.1)">
       <defs>
        <path id="DejaVuSans-36" d="M 2113 2584 
Q 1688 2584 1439 2293 
Q 1191 2003 1191 1497 
Q 1191 994 1439 701 
Q 1688 409 2113 409 
Q 2538 409 2786 701 
Q 3034 994 3034 1497 
Q 3034 2003 2786 2293 
Q 2538 2584 2113 2584 
z
M 3366 4563 
L 3366 3988 
Q 3128 4100 2886 4159 
Q 2644 4219 2406 4219 
Q 1781 4219 1451 3797 
Q 1122 3375 1075 2522 
Q 1259 2794 1537 2939 
Q 1816 3084 2150 3084 
Q 2853 3084 3261 2657 
Q 3669 2231 3669 1497 
Q 3669 778 3244 343 
Q 2819 -91 2113 -91 
Q 1303 -91 875 529 
Q 447 1150 447 2328 
Q 447 3434 972 4092 
Q 1497 4750 2381 4750 
Q 2619 4750 2861 4703 
Q 3103 4656 3366 4563 
z
" transform="scale(0.015625)"/>
       </defs>
       <use xlink:href="#DejaVuSans-36"/>
       <use xlink:href="#DejaVuSans-30" x="63.623047"/>
      </g>
     </g>
    </g>
    <g id="xtick_5">
     <g id="line2d_5">
      <g>
       <use xlink:href="#m3e4ee551e1" x="243.586738" y="307.584" style="stroke: #000000; stroke-width: 0.8"/>
      </g>
     </g>
     <g id="text_5">
      <!-- 80 -->
      <g transform="translate(237.224238 322.182437) scale(0.1 -0.1)">
       <defs>
        <path id="DejaVuSans-38" d="M 2034 2216 
Q 1584 2216 1326 1975 
Q 1069 1734 1069 1313 
Q 1069 891 1326 650 
Q 1584 409 2034 409 
Q 2484 409 2743 651 
Q 3003 894 3003 1313 
Q 3003 1734 2745 1975 
Q 2488 2216 2034 2216 
z
M 1403 2484 
Q 997 2584 770 2862 
Q 544 3141 544 3541 
Q 544 4100 942 4425 
Q 1341 4750 2034 4750 
Q 2731 4750 3128 4425 
Q 3525 4100 3525 3541 
Q 3525 3141 3298 2862 
Q 3072 2584 2669 2484 
Q 3125 2378 3379 2068 
Q 3634 1759 3634 1313 
Q 3634 634 3220 271 
Q 2806 -91 2034 -91 
Q 1263 -91 848 271 
Q 434 634 434 1313 
Q 434 1759 690 2068 
Q 947 2378 1403 2484 
z
M 1172 3481 
Q 1172 3119 1398 2916 
Q 1625 2713 2034 2713 
Q 2441 2713 2670 2916 
Q 2900 3119 2900 3481 
Q 2900 3844 2670 4047 
Q 2441 4250 2034 4250 
Q 1625 4250 1398 4047 
Q 1172 3844 1172 3481 
z
" transform="scale(0.015625)"/>
       </defs>
       <use xlink:href="#DejaVuSans-38"/>
       <use xlink:href="#DejaVuSans-30" x="63.623047"/>
      </g>
     </g>
    </g>
    <g id="xtick_6">
     <g id="line2d_6">
      <g>
       <use xlink:href="#m3e4ee551e1" x="286.025241" y="307.584" style="stroke: #000000; stroke-width: 0.8"/>
      </g>
     </g>
     <g id="text_6">
      <!-- 100 -->
      <g transform="translate(276.481491 322.182437) scale(0.1 -0.1)">
       <defs>
        <path id="DejaVuSans-31" d="M 794 531 
L 1825 531 
L 1825 4091 
L 703 3866 
L 703 4441 
L 1819 4666 
L 2450 4666 
L 2450 531 
L 3481 531 
L 3481 0 
L 794 0 
L 794 531 
z
" transform="scale(0.015625)"/>
       </defs>
       <use xlink:href="#DejaVuSans-31"/>
       <use xlink:href="#DejaVuSans-30" x="63.623047"/>
       <use xlink:href="#DejaVuSans-30" x="127.246094"/>
      </g>
     </g>
    </g>
    <g id="xtick_7">
     <g id="line2d_7">
      <g>
       <use xlink:href="#m3e4ee551e1" x="328.463743" y="307.584" style="stroke: #000000; stroke-width: 0.8"/>
      </g>
     </g>
     <g id="text_7">
      <!-- 120 -->
      <g transform="translate(318.919993 322.182437) scale(0.1 -0.1)">
       <use xlink:href="#DejaVuSans-31"/>
       <use xlink:href="#DejaVuSans-32" x="63.623047"/>
       <use xlink:href="#DejaVuSans-30" x="127.246094"/>
      </g>
     </g>
    </g>
    <g id="xtick_8">
     <g id="line2d_8">
      <g>
       <use xlink:href="#m3e4ee551e1" x="370.902246" y="307.584" style="stroke: #000000; stroke-width: 0.8"/>
      </g>
     </g>
     <g id="text_8">
      <!-- 140 -->
      <g transform="translate(361.358496 322.182437) scale(0.1 -0.1)">
       <use xlink:href="#DejaVuSans-31"/>
       <use xlink:href="#DejaVuSans-34" x="63.623047"/>
       <use xlink:href="#DejaVuSans-30" x="127.246094"/>
      </g>
     </g>
    </g>
    <g id="xtick_9">
     <g id="line2d_9">
      <g>
       <use xlink:href="#m3e4ee551e1" x="413.340749" y="307.584" style="stroke: #000000; stroke-width: 0.8"/>
      </g>
     </g>
     <g id="text_9">
      <!-- 160 -->
      <g transform="translate(403.796999 322.182437) scale(0.1 -0.1)">
       <use xlink:href="#DejaVuSans-31"/>
       <use xlink:href="#DejaVuSans-36" x="63.623047"/>
       <use xlink:href="#DejaVuSans-30" x="127.246094"/>
      </g>
     </g>
    </g>
   </g>
   <g id="matplotlib.axis_2">
    <g id="ytick_1">
     <g id="line2d_10">
      <defs>
       <path id="m3835b6de23" d="M 0 0 
L -3.5 0 
" style="stroke: #000000; stroke-width: 0.8"/>
      </defs>
      <g>
       <use xlink:href="#m3835b6de23" x="57.6" y="274.617458" style="stroke: #000000; stroke-width: 0.8"/>
      </g>
     </g>
     <g id="text_10">
      <!-- −0.02 -->
      <g transform="translate(19.954687 278.416677) scale(0.1 -0.1)">
       <defs>
        <path id="DejaVuSans-2212" d="M 678 2272 
L 4684 2272 
L 4684 1741 
L 678 1741 
L 678 2272 
z
" transform="scale(0.015625)"/>
        <path id="DejaVuSans-2e" d="M 684 794 
L 1344 794 
L 1344 0 
L 684 0 
L 684 794 
z
" transform="scale(0.015625)"/>
       </defs>
       <use xlink:href="#DejaVuSans-2212"/>
       <use xlink:href="#DejaVuSans-30" x="83.789062"/>
       <use xlink:href="#DejaVuSans-2e" x="147.412109"/>
       <use xlink:href="#DejaVuSans-30" x="179.199219"/>
       <use xlink:href="#DejaVuSans-32" x="242.822266"/>
      </g>
     </g>
    </g>
    <g id="ytick_2">
     <g id="line2d_11">
      <g>
       <use xlink:href="#m3835b6de23" x="57.6" y="227.140628" style="stroke: #000000; stroke-width: 0.8"/>
      </g>
     </g>
     <g id="text_11">
      <!-- −0.01 -->
      <g transform="translate(19.954687 230.939847) scale(0.1 -0.1)">
       <use xlink:href="#DejaVuSans-2212"/>
       <use xlink:href="#DejaVuSans-30" x="83.789062"/>
       <use xlink:href="#DejaVuSans-2e" x="147.412109"/>
       <use xlink:href="#DejaVuSans-30" x="179.199219"/>
       <use xlink:href="#DejaVuSans-31" x="242.822266"/>
      </g>
     </g>
    </g>
    <g id="ytick_3">
     <g id="line2d_12">
      <g>
       <use xlink:href="#m3835b6de23" x="57.6" y="179.663799" style="stroke: #000000; stroke-width: 0.8"/>
      </g>
     </g>
     <g id="text_12">
      <!-- 0.00 -->
      <g transform="translate(28.334375 183.463017) scale(0.1 -0.1)">
       <use xlink:href="#DejaVuSans-30"/>
       <use xlink:href="#DejaVuSans-2e" x="63.623047"/>
       <use xlink:href="#DejaVuSans-30" x="95.410156"/>
       <use xlink:href="#DejaVuSans-30" x="159.033203"/>
      </g>
     </g>
    </g>
    <g id="ytick_4">
     <g id="line2d_13">
      <g>
       <use xlink:href="#m3835b6de23" x="57.6" y="132.186969" style="stroke: #000000; stroke-width: 0.8"/>
      </g>
     </g>
     <g id="text_13">
      <!-- 0.01 -->
      <g transform="translate(28.334375 135.986188) scale(0.1 -0.1)">
       <use xlink:href="#DejaVuSans-30"/>
       <use xlink:href="#DejaVuSans-2e" x="63.623047"/>
       <use xlink:href="#DejaVuSans-30" x="95.410156"/>
       <use xlink:href="#DejaVuSans-31" x="159.033203"/>
      </g>
     </g>
    </g>
    <g id="ytick_5">
     <g id="line2d_14">
      <g>
       <use xlink:href="#m3835b6de23" x="57.6" y="84.710139" style="stroke: #000000; stroke-width: 0.8"/>
      </g>
     </g>
     <g id="text_14">
      <!-- 0.02 -->
      <g transform="translate(28.334375 88.509358) scale(0.1 -0.1)">
       <use xlink:href="#DejaVuSans-30"/>
       <use xlink:href="#DejaVuSans-2e" x="63.623047"/>
       <use xlink:href="#DejaVuSans-30" x="95.410156"/>
       <use xlink:href="#DejaVuSans-32" x="159.033203"/>
      </g>
     </g>
    </g>
   </g>
   <g id="line2d_15">
    <path d="M 73.832727 194.040022 
L 75.954652 184.132206 
L 78.076578 191.360068 
L 80.198503 183.352254 
L 82.320428 186.047323 
L 84.442353 185.621408 
L 86.564278 181.317841 
L 88.686203 188.345554 
L 90.808128 169.96339 
L 92.930053 197.310025 
L 95.051979 191.180906 
L 97.173904 185.872101 
L 99.295829 185.367033 
L 101.417754 197.956149 
L 103.539679 184.734709 
L 105.661604 191.965949 
L 107.783529 182.510705 
L 109.905455 185.145524 
L 112.02738 190.699537 
L 114.149305 183.503992 
L 116.27123 187.632849 
L 118.393155 182.945833 
L 120.51508 186.091618 
L 122.637005 186.751001 
L 124.75893 181.116039 
L 126.880856 183.367495 
L 129.002781 186.890197 
L 131.124706 176.273519 
L 133.246631 187.978901 
L 135.368556 185.037701 
L 137.490481 181.060237 
L 139.612406 184.965991 
L 141.734332 181.693463 
L 143.856257 184.712701 
L 145.978182 179.785152 
L 148.100107 190.219046 
L 150.222032 184.294762 
L 152.343957 182.068335 
L 154.465882 189.645982 
L 156.587807 185.731483 
L 158.709733 184.464786 
L 160.831658 182.253119 
L 162.953583 187.453559 
L 165.075508 183.974035 
L 167.197433 182.578594 
L 169.319358 183.053548 
L 171.441283 181.169618 
L 173.563209 182.559067 
L 175.685134 187.443317 
L 177.807059 181.564861 
L 179.928984 181.690064 
L 182.050909 184.788973 
L 184.172834 186.542837 
L 186.294759 190.852924 
L 188.416684 165.172042 
L 190.53861 205.395756 
L 192.660535 188.550689 
L 194.78246 192.008467 
L 196.904385 181.254003 
L 199.02631 195.706007 
L 201.148235 176.71866 
L 203.27016 191.277399 
L 205.392086 186.757426 
L 207.514011 188.545767 
L 209.635936 179.218621 
L 211.757861 187.407332 
L 213.879786 189.203122 
L 216.001711 187.143599 
L 218.123636 187.052468 
L 220.245561 182.736804 
L 222.367487 181.808192 
L 224.489412 195.032849 
L 226.611337 181.508648 
L 228.733262 182.493973 
L 230.855187 185.138839 
L 232.977112 178.063551 
L 235.099037 193.451196 
L 237.220963 181.923027 
L 239.342888 183.692384 
L 241.464813 180.089341 
L 243.586738 190.596376 
L 245.708663 188.313307 
L 247.830588 188.730336 
L 249.952513 181.485777 
L 252.074439 196.099203 
L 254.196364 182.751751 
L 256.318289 180.898132 
L 258.440214 187.515955 
L 260.562139 185.217284 
L 262.684064 180.709658 
L 264.805989 177.300618 
L 266.927914 188.715471 
L 269.04984 186.535658 
L 271.171765 177.815719 
L 273.29369 185.547966 
L 275.415615 186.267851 
L 277.53754 179.4758 
L 279.659465 184.568729 
L 281.78139 193.056043 
L 283.903316 185.075945 
L 286.025241 184.63815 
L 288.147166 184.860519 
L 290.269091 183.474231 
L 292.391016 192.3735 
L 294.512941 178.290836 
L 296.634866 175.704834 
L 298.756791 206.376673 
L 300.878717 183.737144 
L 303.000642 186.998595 
L 305.122567 186.591719 
L 307.244492 185.846285 
L 309.366417 195.016114 
L 311.488342 173.878418 
L 313.610267 197.567916 
L 315.732193 181.442672 
L 317.854118 196.615501 
L 319.976043 185.20911 
L 322.097968 183.281404 
L 324.219893 191.045844 
L 326.341818 195.736895 
L 328.463743 187.832451 
L 330.585668 194.17045 
L 332.707594 185.407282 
L 334.829519 205.156966 
L 336.951444 178.208748 
L 339.073369 187.542916 
L 341.195294 189.034791 
L 343.317219 188.499576 
L 345.439144 189.894299 
L 347.56107 177.999183 
L 349.682995 192.696751 
L 351.80492 184.525415 
L 353.926845 191.82153 
L 356.04877 183.370412 
L 358.170695 189.850569 
L 360.29262 187.905763 
L 362.414545 179.150915 
L 364.536471 185.766881 
L 366.658396 186.057132 
L 368.780321 186.120219 
L 370.902246 191.334957 
L 373.024171 185.329901 
L 375.146096 186.537551 
L 377.268021 181.899012 
L 379.389947 179.250014 
L 381.511872 189.327864 
L 383.633797 185.00606 
L 385.755722 181.556036 
L 387.877647 189.126394 
L 392.121497 192.912207 
L 394.243422 183.162389 
L 396.365348 191.456342 
L 398.487273 178.168819 
L 398.487273 178.168819 
" clip-path="url(#p153ccd4ca3)" style="fill: none; stroke: #008000; stroke-opacity: 0.8; stroke-width: 0.5; stroke-linecap: square"/>
   </g>
   <g id="line2d_16">
    <path d="M 73.832727 127.823321 
L 75.954652 128.279572 
L 78.076578 145.471036 
L 80.198503 107.150858 
L 82.320428 156.339978 
L 84.442353 148.374734 
L 86.564278 124.060564 
L 88.686203 153.722565 
L 90.808128 63.665421 
L 92.930053 145.599484 
L 95.051979 161.051167 
L 97.173904 135.463403 
L 99.295829 134.726512 
L 101.417754 129.207618 
L 103.539679 149.488653 
L 105.661604 150.615341 
L 107.783529 129.494124 
L 109.905455 146.732578 
L 112.02738 153.201403 
L 114.149305 143.479772 
L 116.27123 120.960475 
L 118.393155 156.662636 
L 120.51508 136.814557 
L 122.637005 113.851699 
L 124.75893 144.709196 
L 126.880856 147.871117 
L 129.002781 144.097526 
L 131.124706 134.541818 
L 133.246631 119.859667 
L 135.368556 144.077754 
L 137.490481 152.465362 
L 139.612406 154.661742 
L 141.734332 168.167247 
L 143.856257 160.253363 
L 145.978182 157.963457 
L 148.100107 157.870072 
L 150.222032 145.209653 
L 152.343957 159.190287 
L 154.465882 142.534323 
L 156.587807 162.497879 
L 158.709733 155.98172 
L 160.831658 144.776971 
L 162.953583 154.309757 
L 165.075508 167.362769 
L 167.197433 164.2191 
L 169.319358 155.366579 
L 171.441283 162.521358 
L 173.563209 126.586196 
L 175.685134 163.812169 
L 177.807059 155.036675 
L 179.928984 161.812553 
L 182.050909 167.35812 
L 184.172834 166.123016 
L 186.294759 142.523286 
L 188.416684 83.109107 
L 190.53861 84.975669 
L 192.660535 121.350427 
L 194.78246 159.924819 
L 196.904385 146.672963 
L 199.02631 162.237743 
L 201.148235 122.56556 
L 203.27016 149.846156 
L 205.392086 149.113417 
L 207.514011 160.368255 
L 209.635936 100.287931 
L 211.757861 127.35613 
L 213.879786 144.82021 
L 216.001711 159.277634 
L 218.123636 145.757227 
L 220.245561 142.362551 
L 222.367487 149.727492 
L 224.489412 127.777558 
L 226.611337 166.525985 
L 228.733262 151.638766 
L 230.855187 151.987289 
L 232.977112 120.907022 
L 235.099037 153.870377 
L 237.220963 149.014938 
L 241.464813 148.404448 
L 243.586738 149.40871 
L 245.708663 143.468075 
L 247.830588 162.619109 
L 249.952513 133.758945 
L 252.074439 154.640659 
L 254.196364 150.457364 
L 256.318289 148.63574 
L 258.440214 113.220015 
L 260.562139 157.408242 
L 262.684064 143.555731 
L 264.805989 145.007319 
L 266.927914 151.050599 
L 269.04984 161.003271 
L 271.171765 158.464015 
L 273.29369 148.149573 
L 275.415615 168.935715 
L 277.53754 117.141889 
L 279.659465 132.849692 
L 281.78139 144.355324 
L 283.903316 148.389544 
L 286.025241 137.552484 
L 288.147166 142.694209 
L 290.269091 150.286102 
L 292.391016 152.977846 
L 294.512941 156.104252 
L 296.634866 104.006057 
L 298.756791 150.403399 
L 300.878717 103.797498 
L 303.000642 152.724504 
L 305.122567 143.485798 
L 307.244492 129.222474 
L 309.366417 130.104252 
L 311.488342 123.366582 
L 313.610267 128.11912 
L 315.732193 106.897304 
L 317.854118 155.060608 
L 319.976043 133.457046 
L 324.219893 145.191259 
L 326.341818 104.252395 
L 328.463743 104.531275 
L 330.585668 120.358002 
L 332.707594 59.86056 
L 334.829519 151.141091 
L 336.951444 110.53761 
L 339.073369 138.215139 
L 341.195294 139.081069 
L 343.317219 119.31633 
L 345.439144 158.595239 
L 347.56107 119.895323 
L 349.682995 146.021817 
L 351.80492 133.098789 
L 353.926845 111.277518 
L 356.04877 117.236406 
L 358.170695 146.984334 
L 360.29262 140.825949 
L 362.414545 148.38728 
L 364.536471 158.536641 
L 366.658396 143.568629 
L 368.780321 155.995498 
L 370.902246 160.281662 
L 373.024171 144.227416 
L 375.146096 139.802301 
L 377.268021 165.378957 
L 379.389947 107.604198 
L 381.511872 139.382102 
L 383.633797 158.490616 
L 385.755722 128.84837 
L 387.877647 141.58859 
L 389.999572 161.965699 
L 392.121497 158.47297 
L 394.243422 142.197417 
L 396.365348 81.951702 
L 398.487273 129.299446 
L 398.487273 129.299446 
" clip-path="url(#p153ccd4ca3)" style="fill: none; stroke: #32cd32; stroke-opacity: 0.8; stroke-width: 0.5; stroke-linecap: square"/>
   </g>
   <g id="line2d_17">
    <path d="M 73.832727 236.169582 
L 75.954652 246.95993 
L 78.076578 238.464129 
L 80.198503 227.026823 
L 82.320428 213.880521 
L 84.442353 228.741423 
L 86.564278 233.585543 
L 88.686203 275.896172 
L 90.808128 215.597638 
L 92.930053 246.466406 
L 95.051979 255.265509 
L 97.173904 229.453316 
L 99.295829 220.25049 
L 101.417754 234.651543 
L 103.539679 234.139137 
L 107.783529 225.343748 
L 109.905455 216.979252 
L 112.02738 234.893777 
L 114.149305 248.334383 
L 116.27123 230.585441 
L 118.393155 222.049136 
L 120.51508 224.114494 
L 122.637005 255.840533 
L 124.75893 208.225652 
L 126.880856 237.349615 
L 129.002781 221.601455 
L 131.124706 199.279398 
L 133.246631 216.925428 
L 135.368556 220.479141 
L 137.490481 205.657148 
L 139.612406 207.968609 
L 141.734332 195.564101 
L 143.856257 209.422674 
L 145.978182 213.436613 
L 148.100107 220.534719 
L 150.222032 215.959887 
L 152.343957 202.419671 
L 154.465882 252.024306 
L 156.587807 215.663037 
L 158.709733 222.187232 
L 160.831658 216.333856 
L 162.953583 211.478553 
L 165.075508 199.102533 
L 167.197433 200.58452 
L 169.319358 199.787637 
L 171.441283 195.735023 
L 173.563209 204.723726 
L 175.685134 215.518432 
L 177.807059 210.745624 
L 179.928984 198.367482 
L 182.050909 213.792701 
L 184.172834 214.16025 
L 188.416684 277.305715 
L 190.53861 276.423371 
L 192.660535 246.739674 
L 194.78246 220.675249 
L 196.904385 223.099289 
L 199.02631 228.909799 
L 201.148235 206.283533 
L 203.27016 247.292719 
L 205.392086 212.268138 
L 207.514011 211.034588 
L 209.635936 230.267839 
L 211.757861 228.997901 
L 213.879786 235.177004 
L 216.001711 216.708379 
L 218.123636 222.868374 
L 220.245561 219.790527 
L 222.367487 211.757292 
L 224.489412 253.113605 
L 226.611337 209.267574 
L 228.733262 244.705587 
L 230.855187 206.791144 
L 232.977112 213.307441 
L 235.099037 228.832827 
L 237.220963 237.264475 
L 239.342888 220.488479 
L 241.464813 221.934244 
L 243.586738 233.080605 
L 245.708663 227.022862 
L 247.830588 211.33259 
L 249.952513 219.618869 
L 252.074439 230.312833 
L 254.196364 212.656238 
L 256.318289 212.275624 
L 258.440214 238.237138 
L 260.562139 222.301557 
L 262.684064 215.382723 
L 264.805989 200.546883 
L 266.927914 208.969193 
L 269.04984 211.751208 
L 271.171765 196.189213 
L 273.29369 221.781716 
L 275.415615 218.319842 
L 277.53754 225.626619 
L 279.659465 209.666041 
L 281.78139 227.709947 
L 283.903316 219.181659 
L 286.025241 205.673137 
L 288.147166 215.170928 
L 290.269091 212.380423 
L 292.391016 237.989905 
L 294.512941 229.541419 
L 296.634866 225.803767 
L 298.756791 289.715316 
L 300.878717 229.771202 
L 303.000642 230.808495 
L 305.122567 227.839553 
L 307.244492 235.193967 
L 309.366417 243.000702 
L 311.488342 254.008212 
L 313.610267 240.184445 
L 315.732193 230.37509 
L 317.854118 222.222982 
L 319.976043 247.081613 
L 322.097968 220.519041 
L 324.219893 230.788057 
L 326.341818 242.820087 
L 328.463743 271.65811 
L 330.585668 251.353539 
L 332.707594 238.38113 
L 334.829519 295.1845 
L 336.951444 234.34177 
L 339.073369 240.777014 
L 341.195294 224.23264 
L 343.317219 267.94121 
L 345.439144 221.066049 
L 347.56107 259.034431 
L 349.682995 227.416775 
L 351.80492 234.051885 
L 353.926845 243.040885 
L 356.04877 221.420157 
L 358.170695 232.801366 
L 360.29262 234.080481 
L 362.414545 214.3565 
L 364.536471 220.820136 
L 366.658396 221.734882 
L 368.780321 221.357523 
L 370.902246 219.578403 
L 373.024171 237.756443 
L 375.146096 219.190432 
L 377.268021 197.11923 
L 379.389947 213.839989 
L 381.511872 225.693403 
L 383.633797 229.454826 
L 385.755722 218.234512 
L 387.877647 221.987415 
L 389.999572 236.350933 
L 392.121497 265.854675 
L 394.243422 210.965031 
L 396.365348 230.807701 
L 398.487273 206.921096 
L 398.487273 206.921096 
" clip-path="url(#p153ccd4ca3)" style="fill: none; stroke: #32cd32; stroke-opacity: 0.8; stroke-width: 0.5; stroke-linecap: square"/>
   </g>
   <g id="line2d_18">
    <path d="M 73.832727 170.25969 
L 75.954652 167.558211 
L 78.076578 176.756706 
L 80.198503 171.350878 
L 82.320428 176.003384 
L 84.442353 172.826768 
L 86.564278 169.367178 
L 88.686203 181.910789 
L 90.808128 159.218132 
L 92.930053 177.269521 
L 95.051979 176.136461 
L 97.173904 174.334182 
L 99.295829 173.5133 
L 101.417754 177.08778 
L 103.539679 171.127539 
L 105.661604 179.045397 
L 107.783529 169.821393 
L 109.905455 170.915332 
L 112.02738 181.300538 
L 114.149305 169.85001 
L 116.27123 172.977067 
L 118.393155 173.320498 
L 120.51508 175.979857 
L 122.637005 170.421251 
L 124.75893 168.082867 
L 126.880856 170.818435 
L 129.002781 179.830512 
L 131.124706 170.335911 
L 133.246631 182.077037 
L 135.368556 172.627004 
L 137.490481 174.426154 
L 139.612406 175.647592 
L 141.734332 175.384641 
L 143.856257 179.044 
L 145.978182 169.916904 
L 148.100107 177.028772 
L 150.222032 176.009473 
L 152.343957 171.733568 
L 154.465882 175.880943 
L 156.587807 177.857013 
L 158.709733 173.925384 
L 160.831658 173.544777 
L 162.953583 177.431571 
L 165.075508 179.656453 
L 167.197433 172.579211 
L 169.319358 177.651646 
L 171.441283 173.599162 
L 173.563209 175.43365 
L 175.685134 181.478818 
L 177.807059 168.130249 
L 179.928984 174.277934 
L 182.050909 175.739116 
L 186.294759 184.715261 
L 188.416684 142.649155 
L 190.53861 164.614308 
L 192.660535 179.235869 
L 194.78246 177.88659 
L 196.904385 171.579892 
L 199.02631 179.417102 
L 201.148235 165.296133 
L 203.27016 172.309836 
L 205.392086 178.188968 
L 207.514011 179.309097 
L 209.635936 164.283508 
L 211.757861 170.725041 
L 216.001711 175.205732 
L 218.123636 173.219157 
L 220.245561 172.821363 
L 222.367487 171.32326 
L 224.489412 180.79733 
L 226.611337 176.359309 
L 228.733262 172.66112 
L 230.855187 174.792919 
L 232.977112 167.591255 
L 235.099037 175.25962 
L 237.220963 175.990495 
L 239.342888 173.530435 
L 241.464813 166.712746 
L 243.586738 177.612295 
L 245.708663 173.514166 
L 247.830588 176.146745 
L 249.952513 173.814224 
L 252.074439 178.391534 
L 254.196364 170.686506 
L 256.318289 171.430733 
L 258.440214 176.245649 
L 260.562139 177.067696 
L 262.684064 171.120209 
L 264.805989 172.918173 
L 266.927914 176.690578 
L 269.04984 179.36403 
L 271.171765 171.214132 
L 273.29369 174.955512 
L 275.415615 176.351548 
L 277.53754 174.401421 
L 279.659465 171.173566 
L 281.78139 177.918709 
L 283.903316 171.684118 
L 286.025241 174.762932 
L 288.147166 178.885261 
L 290.269091 170.276163 
L 292.391016 175.070795 
L 294.512941 159.782133 
L 296.634866 161.543392 
L 298.756791 173.546208 
L 300.878717 171.396623 
L 303.000642 175.049909 
L 305.122567 170.877945 
L 307.244492 169.526976 
L 309.366417 174.087106 
L 311.488342 163.736969 
L 313.610267 178.955294 
L 315.732193 163.729698 
L 317.854118 174.629599 
L 319.976043 171.352937 
L 322.097968 167.104541 
L 324.219893 171.086729 
L 326.341818 177.750051 
L 328.463743 166.955082 
L 330.585668 168.514165 
L 332.707594 170.345085 
L 334.829519 179.966769 
L 336.951444 154.244387 
L 339.073369 172.182288 
L 341.195294 175.846815 
L 343.317219 171.731843 
L 345.439144 170.410258 
L 347.56107 167.808421 
L 349.682995 170.869961 
L 351.80492 172.495879 
L 353.926845 169.806755 
L 356.04877 170.349401 
L 358.170695 173.933411 
L 360.29262 171.393404 
L 362.414545 168.462972 
L 364.536471 176.35931 
L 366.658396 179.186756 
L 368.780321 172.547968 
L 370.902246 180.00154 
L 373.024171 163.586256 
L 375.146096 174.485967 
L 377.268021 172.990052 
L 379.389947 172.045983 
L 381.511872 174.495989 
L 383.633797 173.497208 
L 385.755722 170.763818 
L 387.877647 175.952458 
L 389.999572 175.825058 
L 392.121497 178.81993 
L 394.243422 172.747534 
L 396.365348 179.802253 
L 398.487273 175.993847 
L 398.487273 175.993847 
" clip-path="url(#p153ccd4ca3)" style="fill: none; stroke: #ff0000; stroke-opacity: 0.8; stroke-width: 0.5; stroke-linecap: square"/>
   </g>
   <g id="line2d_19">
    <path d="M 73.832727 100.550257 
L 75.954652 109.839205 
L 78.076578 134.01705 
L 80.198503 120.624856 
L 82.320428 143.891419 
L 84.442353 143.825861 
L 86.564278 114.013407 
L 88.686203 137.234599 
L 90.808128 53.568 
L 92.930053 131.497288 
L 95.051979 150.876218 
L 97.173904 124.990591 
L 99.295829 125.916939 
L 101.417754 118.936404 
L 103.539679 137.948681 
L 105.661604 127.119055 
L 107.783529 119.870873 
L 109.905455 138.651783 
L 112.02738 142.50027 
L 114.149305 135.610959 
L 116.27123 109.564145 
L 118.393155 133.369038 
L 120.51508 121.852582 
L 122.637005 106.31747 
L 124.75893 141.966223 
L 126.880856 140.883819 
L 129.002781 145.837269 
L 131.124706 123.191445 
L 133.246631 142.433926 
L 135.368556 133.697696 
L 137.490481 146.012549 
L 139.612406 147.858854 
L 141.734332 160.924601 
L 143.856257 159.304518 
L 145.978182 145.497353 
L 148.100107 140.41166 
L 150.222032 143.675031 
L 152.343957 147.460507 
L 154.465882 123.043237 
L 156.587807 152.690051 
L 158.709733 148.450442 
L 160.831658 126.285101 
L 162.953583 147.867085 
L 165.075508 162.476768 
L 167.197433 156.840765 
L 169.319358 152.231192 
L 171.441283 154.798564 
L 173.563209 128.269101 
L 175.685134 154.149076 
L 177.807059 142.007548 
L 179.928984 156.245461 
L 182.050909 149.592792 
L 184.172834 158.929765 
L 186.294759 129.204929 
L 188.416684 60.863738 
L 190.53861 68.865675 
L 192.660535 127.177349 
L 194.78246 153.322274 
L 196.904385 133.839358 
L 199.02631 139.806263 
L 201.148235 124.638464 
L 203.27016 118.481535 
L 205.392086 140.804064 
L 207.514011 150.738311 
L 209.635936 100.532146 
L 211.757861 110.051557 
L 213.879786 127.257622 
L 216.001711 153.930483 
L 218.123636 132.863063 
L 220.245561 132.889664 
L 222.367487 140.977345 
L 224.489412 110.417342 
L 226.611337 159.41856 
L 228.733262 135.294555 
L 230.855187 131.809231 
L 232.977112 104.720026 
L 235.099037 141.683013 
L 237.220963 145.383971 
L 239.342888 155.469897 
L 241.464813 137.126311 
L 243.586738 140.12617 
L 245.708663 133.184788 
L 247.830588 154.21873 
L 249.952513 123.77192 
L 252.074439 126.63402 
L 254.196364 132.166074 
L 256.318289 140.042649 
L 258.440214 113.220015 
L 260.562139 156.307435 
L 262.684064 125.647255 
L 264.805989 142.446598 
L 266.927914 135.95919 
L 269.04984 164.03035 
L 271.171765 151.145122 
L 273.29369 139.595817 
L 275.415615 156.904342 
L 277.53754 113.486538 
L 279.659465 121.286472 
L 281.78139 134.887112 
L 283.903316 147.672462 
L 286.025241 119.346334 
L 288.147166 139.68507 
L 290.269091 133.630685 
L 292.391016 142.180168 
L 294.512941 137.033964 
L 296.634866 109.961454 
L 298.756791 101.733979 
L 300.878717 97.304148 
L 303.000642 143.569585 
L 305.122567 131.066398 
L 307.244492 113.458853 
L 309.366417 109.05251 
L 311.488342 124.475642 
L 313.610267 132.500561 
L 315.732193 97.176413 
L 317.854118 124.066507 
L 319.976043 113.851776 
L 322.097968 125.253624 
L 324.219893 132.548102 
L 326.341818 81.720788 
L 328.463743 106.763453 
L 330.585668 103.027357 
L 332.707594 71.962086 
L 334.829519 98.138856 
L 336.951444 101.906316 
L 339.073369 129.016745 
L 341.195294 130.720308 
L 343.317219 109.866183 
L 345.439144 130.656298 
L 347.56107 114.928106 
L 349.682995 142.271548 
L 351.80492 128.734421 
L 353.926845 88.529382 
L 356.04877 117.695972 
L 358.170695 114.827081 
L 360.29262 120.131898 
L 362.414545 134.161959 
L 364.536471 151.577641 
L 366.658396 144.484365 
L 368.780321 140.670024 
L 370.902246 151.545017 
L 373.024171 131.988926 
L 375.146096 125.351216 
L 377.268021 146.410354 
L 379.389947 112.276263 
L 381.511872 131.036402 
L 383.633797 153.211095 
L 385.755722 125.323804 
L 387.877647 123.508462 
L 389.999572 140.194045 
L 392.121497 135.045341 
L 394.243422 137.280443 
L 396.365348 86.702154 
L 398.487273 146.925432 
L 398.487273 146.925432 
" clip-path="url(#p153ccd4ca3)" style="fill: none; stroke: #f08080; stroke-opacity: 0.8; stroke-width: 0.5; stroke-linecap: square"/>
   </g>
   <g id="line2d_20">
    <path d="M 73.832727 209.58822 
L 75.954652 219.696538 
L 78.076578 231.9864 
L 80.198503 227.026823 
L 82.320428 201.279057 
L 84.442353 225.652653 
L 86.564278 222.85847 
L 88.686203 281.982308 
L 90.808128 205.82442 
L 92.930053 236.737701 
L 95.051979 234.033789 
L 97.173904 217.939567 
L 99.295829 207.63648 
L 101.417754 244.710491 
L 103.539679 221.549386 
L 105.661604 220.549132 
L 107.783529 219.919587 
L 109.905455 197.448491 
L 112.02738 228.033963 
L 114.149305 221.525191 
L 116.27123 218.694361 
L 118.393155 202.416218 
L 120.51508 214.594395 
L 122.637005 218.410981 
L 124.75893 189.596374 
L 126.880856 227.065132 
L 129.002781 207.429901 
L 131.124706 197.306716 
L 133.246631 221.66739 
L 135.368556 201.767357 
L 137.490481 203.672157 
L 139.612406 196.575077 
L 141.734332 187.696707 
L 143.856257 201.096169 
L 145.978182 213.263321 
L 148.100107 203.14508 
L 150.222032 208.229048 
L 152.343957 193.418966 
L 154.465882 235.507287 
L 156.587807 207.557339 
L 158.709733 208.93971 
L 160.831658 213.490003 
L 162.953583 201.896433 
L 165.075508 199.102533 
L 167.197433 191.246049 
L 169.319358 203.662536 
L 171.441283 185.216793 
L 173.563209 204.812017 
L 175.685134 215.607006 
L 179.928984 187.255409 
L 182.050909 207.767964 
L 184.172834 205.66012 
L 186.294759 229.915807 
L 188.416684 208.587872 
L 190.53861 224.115484 
L 192.660535 233.378964 
L 194.78246 209.550187 
L 196.904385 196.862557 
L 199.02631 222.290611 
L 201.148235 201.934636 
L 203.27016 237.491004 
L 205.392086 208.808429 
L 207.514011 199.626336 
L 209.635936 212.061641 
L 211.757861 207.43924 
L 213.879786 222.50889 
L 216.001711 198.282822 
L 218.123636 210.296812 
L 222.367487 201.110495 
L 224.489412 236.036467 
L 226.611337 207.874469 
L 228.733262 239.074582 
L 230.855187 199.293311 
L 232.977112 213.523848 
L 235.099037 205.146545 
L 237.220963 235.783196 
L 239.342888 200.881936 
L 241.464813 214.243872 
L 243.586738 236.690726 
L 245.708663 202.022381 
L 247.830588 194.42877 
L 249.952513 209.941384 
L 252.074439 224.430351 
L 254.196364 200.81119 
L 256.318289 203.245135 
L 258.440214 217.0024 
L 260.562139 220.365381 
L 262.684064 209.323489 
L 264.805989 196.081113 
L 266.927914 204.328114 
L 269.04984 200.639711 
L 271.171765 194.518758 
L 273.29369 208.10595 
L 275.415615 213.319081 
L 277.53754 218.847455 
L 279.659465 199.202622 
L 281.78139 218.735431 
L 286.025241 198.602594 
L 288.147166 203.616127 
L 290.269091 204.337924 
L 292.391016 220.789291 
L 294.512941 203.242093 
L 296.634866 202.824904 
L 298.756791 262.808503 
L 300.878717 221.967674 
L 303.000642 213.815304 
L 305.122567 218.905184 
L 307.244492 220.415564 
L 309.366417 222.087621 
L 311.488342 237.902463 
L 313.610267 212.955446 
L 315.732193 205.627577 
L 317.854118 214.974537 
L 319.976043 217.986578 
L 322.097968 214.797672 
L 324.219893 215.526992 
L 326.341818 228.796888 
L 328.463743 245.894496 
L 330.585668 223.953335 
L 332.707594 223.022883 
L 334.829519 295.488 
L 336.951444 209.079698 
L 339.073369 221.310453 
L 341.195294 211.345975 
L 343.317219 249.181354 
L 345.439144 216.614995 
L 347.56107 247.921906 
L 349.682995 213.731105 
L 351.80492 217.815413 
L 353.926845 222.235675 
L 356.04877 220.37953 
L 358.170695 240.946521 
L 360.29262 206.192979 
L 362.414545 201.236881 
L 364.536471 217.860407 
L 368.780321 209.513512 
L 370.902246 213.055674 
L 373.024171 222.078566 
L 375.146096 218.29026 
L 377.268021 193.335886 
L 379.389947 197.947437 
L 381.511872 200.185116 
L 383.633797 213.750537 
L 385.755722 200.184663 
L 387.877647 205.378551 
L 389.999572 226.615506 
L 392.121497 255.325219 
L 394.243422 216.563775 
L 396.365348 217.682499 
L 398.487273 198.892147 
L 398.487273 198.892147 
" clip-path="url(#p153ccd4ca3)" style="fill: none; stroke: #f08080; stroke-opacity: 0.8; stroke-width: 0.5; stroke-linecap: square"/>
   </g>
   <g id="patch_3">
    <path d="M 57.6 307.584 
L 57.6 41.472 
" style="fill: none; stroke: #000000; stroke-width: 0.8; stroke-linejoin: miter; stroke-linecap: square"/>
   </g>
   <g id="patch_4">
    <path d="M 414.72 307.584 
L 414.72 41.472 
" style="fill: none; stroke: #000000; stroke-width: 0.8; stroke-linejoin: miter; stroke-linecap: square"/>
   </g>
   <g id="patch_5">
    <path d="M 57.6 307.584 
L 414.72 307.584 
" style="fill: none; stroke: #000000; stroke-width: 0.8; stroke-linejoin: miter; stroke-linecap: square"/>
   </g>
   <g id="patch_6">
    <path d="M 57.6 41.472 
L 414.72 41.472 
" style="fill: none; stroke: #000000; stroke-width: 0.8; stroke-linejoin: miter; stroke-linecap: square"/>
   </g>
   <g id="text_15">
    <!-- 1final_zhang_aa_eurusd -->
    <g transform="translate(164.125313 35.472) scale(0.12 -0.12)">
     <defs>
      <path id="DejaVuSans-66" d="M 2375 4863 
L 2375 4384 
L 1825 4384 
Q 1516 4384 1395 4259 
Q 1275 4134 1275 3809 
L 1275 3500 
L 2222 3500 
L 2222 3053 
L 1275 3053 
L 1275 0 
L 697 0 
L 697 3053 
L 147 3053 
L 147 3500 
L 697 3500 
L 697 3744 
Q 697 4328 969 4595 
Q 1241 4863 1831 4863 
L 2375 4863 
z
" transform="scale(0.015625)"/>
      <path id="DejaVuSans-69" d="M 603 3500 
L 1178 3500 
L 1178 0 
L 603 0 
L 603 3500 
z
M 603 4863 
L 1178 4863 
L 1178 4134 
L 603 4134 
L 603 4863 
z
" transform="scale(0.015625)"/>
      <path id="DejaVuSans-6e" d="M 3513 2113 
L 3513 0 
L 2938 0 
L 2938 2094 
Q 2938 2591 2744 2837 
Q 2550 3084 2163 3084 
Q 1697 3084 1428 2787 
Q 1159 2491 1159 1978 
L 1159 0 
L 581 0 
L 581 3500 
L 1159 3500 
L 1159 2956 
Q 1366 3272 1645 3428 
Q 1925 3584 2291 3584 
Q 2894 3584 3203 3211 
Q 3513 2838 3513 2113 
z
" transform="scale(0.015625)"/>
      <path id="DejaVuSans-61" d="M 2194 1759 
Q 1497 1759 1228 1600 
Q 959 1441 959 1056 
Q 959 750 1161 570 
Q 1363 391 1709 391 
Q 2188 391 2477 730 
Q 2766 1069 2766 1631 
L 2766 1759 
L 2194 1759 
z
M 3341 1997 
L 3341 0 
L 2766 0 
L 2766 531 
Q 2569 213 2275 61 
Q 1981 -91 1556 -91 
Q 1019 -91 701 211 
Q 384 513 384 1019 
Q 384 1609 779 1909 
Q 1175 2209 1959 2209 
L 2766 2209 
L 2766 2266 
Q 2766 2663 2505 2880 
Q 2244 3097 1772 3097 
Q 1472 3097 1187 3025 
Q 903 2953 641 2809 
L 641 3341 
Q 956 3463 1253 3523 
Q 1550 3584 1831 3584 
Q 2591 3584 2966 3190 
Q 3341 2797 3341 1997 
z
" transform="scale(0.015625)"/>
      <path id="DejaVuSans-6c" d="M 603 4863 
L 1178 4863 
L 1178 0 
L 603 0 
L 603 4863 
z
" transform="scale(0.015625)"/>
      <path id="DejaVuSans-5f" d="M 3263 -1063 
L 3263 -1509 
L -63 -1509 
L -63 -1063 
L 3263 -1063 
z
" transform="scale(0.015625)"/>
      <path id="DejaVuSans-7a" d="M 353 3500 
L 3084 3500 
L 3084 2975 
L 922 459 
L 3084 459 
L 3084 0 
L 275 0 
L 275 525 
L 2438 3041 
L 353 3041 
L 353 3500 
z
" transform="scale(0.015625)"/>
      <path id="DejaVuSans-68" d="M 3513 2113 
L 3513 0 
L 2938 0 
L 2938 2094 
Q 2938 2591 2744 2837 
Q 2550 3084 2163 3084 
Q 1697 3084 1428 2787 
Q 1159 2491 1159 1978 
L 1159 0 
L 581 0 
L 581 4863 
L 1159 4863 
L 1159 2956 
Q 1366 3272 1645 3428 
Q 1925 3584 2291 3584 
Q 2894 3584 3203 3211 
Q 3513 2838 3513 2113 
z
" transform="scale(0.015625)"/>
      <path id="DejaVuSans-67" d="M 2906 1791 
Q 2906 2416 2648 2759 
Q 2391 3103 1925 3103 
Q 1463 3103 1205 2759 
Q 947 2416 947 1791 
Q 947 1169 1205 825 
Q 1463 481 1925 481 
Q 2391 481 2648 825 
Q 2906 1169 2906 1791 
z
M 3481 434 
Q 3481 -459 3084 -895 
Q 2688 -1331 1869 -1331 
Q 1566 -1331 1297 -1286 
Q 1028 -1241 775 -1147 
L 775 -588 
Q 1028 -725 1275 -790 
Q 1522 -856 1778 -856 
Q 2344 -856 2625 -561 
Q 2906 -266 2906 331 
L 2906 616 
Q 2728 306 2450 153 
Q 2172 0 1784 0 
Q 1141 0 747 490 
Q 353 981 353 1791 
Q 353 2603 747 3093 
Q 1141 3584 1784 3584 
Q 2172 3584 2450 3431 
Q 2728 3278 2906 2969 
L 2906 3500 
L 3481 3500 
L 3481 434 
z
" transform="scale(0.015625)"/>
      <path id="DejaVuSans-65" d="M 3597 1894 
L 3597 1613 
L 953 1613 
Q 991 1019 1311 708 
Q 1631 397 2203 397 
Q 2534 397 2845 478 
Q 3156 559 3463 722 
L 3463 178 
Q 3153 47 2828 -22 
Q 2503 -91 2169 -91 
Q 1331 -91 842 396 
Q 353 884 353 1716 
Q 353 2575 817 3079 
Q 1281 3584 2069 3584 
Q 2775 3584 3186 3129 
Q 3597 2675 3597 1894 
z
M 3022 2063 
Q 3016 2534 2758 2815 
Q 2500 3097 2075 3097 
Q 1594 3097 1305 2825 
Q 1016 2553 972 2059 
L 3022 2063 
z
" transform="scale(0.015625)"/>
      <path id="DejaVuSans-75" d="M 544 1381 
L 544 3500 
L 1119 3500 
L 1119 1403 
Q 1119 906 1312 657 
Q 1506 409 1894 409 
Q 2359 409 2629 706 
Q 2900 1003 2900 1516 
L 2900 3500 
L 3475 3500 
L 3475 0 
L 2900 0 
L 2900 538 
Q 2691 219 2414 64 
Q 2138 -91 1772 -91 
Q 1169 -91 856 284 
Q 544 659 544 1381 
z
M 1991 3584 
L 1991 3584 
z
" transform="scale(0.015625)"/>
      <path id="DejaVuSans-72" d="M 2631 2963 
Q 2534 3019 2420 3045 
Q 2306 3072 2169 3072 
Q 1681 3072 1420 2755 
Q 1159 2438 1159 1844 
L 1159 0 
L 581 0 
L 581 3500 
L 1159 3500 
L 1159 2956 
Q 1341 3275 1631 3429 
Q 1922 3584 2338 3584 
Q 2397 3584 2469 3576 
Q 2541 3569 2628 3553 
L 2631 2963 
z
" transform="scale(0.015625)"/>
      <path id="DejaVuSans-73" d="M 2834 3397 
L 2834 2853 
Q 2591 2978 2328 3040 
Q 2066 3103 1784 3103 
Q 1356 3103 1142 2972 
Q 928 2841 928 2578 
Q 928 2378 1081 2264 
Q 1234 2150 1697 2047 
L 1894 2003 
Q 2506 1872 2764 1633 
Q 3022 1394 3022 966 
Q 3022 478 2636 193 
Q 2250 -91 1575 -91 
Q 1294 -91 989 -36 
Q 684 19 347 128 
L 347 722 
Q 666 556 975 473 
Q 1284 391 1588 391 
Q 1994 391 2212 530 
Q 2431 669 2431 922 
Q 2431 1156 2273 1281 
Q 2116 1406 1581 1522 
L 1381 1569 
Q 847 1681 609 1914 
Q 372 2147 372 2553 
Q 372 3047 722 3315 
Q 1072 3584 1716 3584 
Q 2034 3584 2315 3537 
Q 2597 3491 2834 3397 
z
" transform="scale(0.015625)"/>
      <path id="DejaVuSans-64" d="M 2906 2969 
L 2906 4863 
L 3481 4863 
L 3481 0 
L 2906 0 
L 2906 525 
Q 2725 213 2448 61 
Q 2172 -91 1784 -91 
Q 1150 -91 751 415 
Q 353 922 353 1747 
Q 353 2572 751 3078 
Q 1150 3584 1784 3584 
Q 2172 3584 2448 3432 
Q 2725 3281 2906 2969 
z
M 947 1747 
Q 947 1113 1208 752 
Q 1469 391 1925 391 
Q 2381 391 2643 752 
Q 2906 1113 2906 1747 
Q 2906 2381 2643 2742 
Q 2381 3103 1925 3103 
Q 1469 3103 1208 2742 
Q 947 2381 947 1747 
z
" transform="scale(0.015625)"/>
     </defs>
     <use xlink:href="#DejaVuSans-31"/>
     <use xlink:href="#DejaVuSans-66" x="63.623047"/>
     <use xlink:href="#DejaVuSans-69" x="98.828125"/>
     <use xlink:href="#DejaVuSans-6e" x="126.611328"/>
     <use xlink:href="#DejaVuSans-61" x="189.990234"/>
     <use xlink:href="#DejaVuSans-6c" x="251.269531"/>
     <use xlink:href="#DejaVuSans-5f" x="279.052734"/>
     <use xlink:href="#DejaVuSans-7a" x="329.052734"/>
     <use xlink:href="#DejaVuSans-68" x="381.542969"/>
     <use xlink:href="#DejaVuSans-61" x="444.921875"/>
     <use xlink:href="#DejaVuSans-6e" x="506.201172"/>
     <use xlink:href="#DejaVuSans-67" x="569.580078"/>
     <use xlink:href="#DejaVuSans-5f" x="633.056641"/>
     <use xlink:href="#DejaVuSans-61" x="683.056641"/>
     <use xlink:href="#DejaVuSans-61" x="744.335938"/>
     <use xlink:href="#DejaVuSans-5f" x="805.615234"/>
     <use xlink:href="#DejaVuSans-65" x="855.615234"/>
     <use xlink:href="#DejaVuSans-75" x="917.138672"/>
     <use xlink:href="#DejaVuSans-72" x="980.517578"/>
     <use xlink:href="#DejaVuSans-75" x="1021.630859"/>
     <use xlink:href="#DejaVuSans-73" x="1085.009766"/>
     <use xlink:href="#DejaVuSans-64" x="1137.109375"/>
    </g>
   </g>
   <g id="legend_1">
    <g id="patch_7">
     <path d="M 64.6 137.54075 
L 225.001563 137.54075 
Q 227.001563 137.54075 227.001563 135.54075 
L 227.001563 48.472 
Q 227.001563 46.472 225.001563 46.472 
L 64.6 46.472 
Q 62.6 46.472 62.6 48.472 
L 62.6 135.54075 
Q 62.6 137.54075 64.6 137.54075 
z
" style="fill: #ffffff; opacity: 0.8; stroke: #cccccc; stroke-linejoin: miter"/>
    </g>
    <g id="line2d_21">
     <path d="M 66.6 54.570438 
L 76.6 54.570438 
L 86.6 54.570438 
" style="fill: none; stroke: #008000; stroke-opacity: 0.8; stroke-width: 0.5; stroke-linecap: square"/>
    </g>
    <g id="text_16">
     <!-- Positive predictions -->
     <g transform="translate(94.6 58.070438) scale(0.1 -0.1)">
      <defs>
       <path id="DejaVuSans-50" d="M 1259 4147 
L 1259 2394 
L 2053 2394 
Q 2494 2394 2734 2622 
Q 2975 2850 2975 3272 
Q 2975 3691 2734 3919 
Q 2494 4147 2053 4147 
L 1259 4147 
z
M 628 4666 
L 2053 4666 
Q 2838 4666 3239 4311 
Q 3641 3956 3641 3272 
Q 3641 2581 3239 2228 
Q 2838 1875 2053 1875 
L 1259 1875 
L 1259 0 
L 628 0 
L 628 4666 
z
" transform="scale(0.015625)"/>
       <path id="DejaVuSans-6f" d="M 1959 3097 
Q 1497 3097 1228 2736 
Q 959 2375 959 1747 
Q 959 1119 1226 758 
Q 1494 397 1959 397 
Q 2419 397 2687 759 
Q 2956 1122 2956 1747 
Q 2956 2369 2687 2733 
Q 2419 3097 1959 3097 
z
M 1959 3584 
Q 2709 3584 3137 3096 
Q 3566 2609 3566 1747 
Q 3566 888 3137 398 
Q 2709 -91 1959 -91 
Q 1206 -91 779 398 
Q 353 888 353 1747 
Q 353 2609 779 3096 
Q 1206 3584 1959 3584 
z
" transform="scale(0.015625)"/>
       <path id="DejaVuSans-74" d="M 1172 4494 
L 1172 3500 
L 2356 3500 
L 2356 3053 
L 1172 3053 
L 1172 1153 
Q 1172 725 1289 603 
Q 1406 481 1766 481 
L 2356 481 
L 2356 0 
L 1766 0 
Q 1100 0 847 248 
Q 594 497 594 1153 
L 594 3053 
L 172 3053 
L 172 3500 
L 594 3500 
L 594 4494 
L 1172 4494 
z
" transform="scale(0.015625)"/>
       <path id="DejaVuSans-76" d="M 191 3500 
L 800 3500 
L 1894 563 
L 2988 3500 
L 3597 3500 
L 2284 0 
L 1503 0 
L 191 3500 
z
" transform="scale(0.015625)"/>
       <path id="DejaVuSans-20" transform="scale(0.015625)"/>
       <path id="DejaVuSans-70" d="M 1159 525 
L 1159 -1331 
L 581 -1331 
L 581 3500 
L 1159 3500 
L 1159 2969 
Q 1341 3281 1617 3432 
Q 1894 3584 2278 3584 
Q 2916 3584 3314 3078 
Q 3713 2572 3713 1747 
Q 3713 922 3314 415 
Q 2916 -91 2278 -91 
Q 1894 -91 1617 61 
Q 1341 213 1159 525 
z
M 3116 1747 
Q 3116 2381 2855 2742 
Q 2594 3103 2138 3103 
Q 1681 3103 1420 2742 
Q 1159 2381 1159 1747 
Q 1159 1113 1420 752 
Q 1681 391 2138 391 
Q 2594 391 2855 752 
Q 3116 1113 3116 1747 
z
" transform="scale(0.015625)"/>
       <path id="DejaVuSans-63" d="M 3122 3366 
L 3122 2828 
Q 2878 2963 2633 3030 
Q 2388 3097 2138 3097 
Q 1578 3097 1268 2742 
Q 959 2388 959 1747 
Q 959 1106 1268 751 
Q 1578 397 2138 397 
Q 2388 397 2633 464 
Q 2878 531 3122 666 
L 3122 134 
Q 2881 22 2623 -34 
Q 2366 -91 2075 -91 
Q 1284 -91 818 406 
Q 353 903 353 1747 
Q 353 2603 823 3093 
Q 1294 3584 2113 3584 
Q 2378 3584 2631 3529 
Q 2884 3475 3122 3366 
z
" transform="scale(0.015625)"/>
      </defs>
      <use xlink:href="#DejaVuSans-50"/>
      <use xlink:href="#DejaVuSans-6f" x="56.677734"/>
      <use xlink:href="#DejaVuSans-73" x="117.859375"/>
      <use xlink:href="#DejaVuSans-69" x="169.958984"/>
      <use xlink:href="#DejaVuSans-74" x="197.742188"/>
      <use xlink:href="#DejaVuSans-69" x="236.951172"/>
      <use xlink:href="#DejaVuSans-76" x="264.734375"/>
      <use xlink:href="#DejaVuSans-65" x="323.914062"/>
      <use xlink:href="#DejaVuSans-20" x="385.4375"/>
      <use xlink:href="#DejaVuSans-70" x="417.224609"/>
      <use xlink:href="#DejaVuSans-72" x="480.701172"/>
      <use xlink:href="#DejaVuSans-65" x="519.564453"/>
      <use xlink:href="#DejaVuSans-64" x="581.087891"/>
      <use xlink:href="#DejaVuSans-69" x="644.564453"/>
      <use xlink:href="#DejaVuSans-63" x="672.347656"/>
      <use xlink:href="#DejaVuSans-74" x="727.328125"/>
      <use xlink:href="#DejaVuSans-69" x="766.537109"/>
      <use xlink:href="#DejaVuSans-6f" x="794.320312"/>
      <use xlink:href="#DejaVuSans-6e" x="855.501953"/>
      <use xlink:href="#DejaVuSans-73" x="918.880859"/>
     </g>
    </g>
    <g id="line2d_22">
     <path d="M 66.6 69.248563 
L 76.6 69.248563 
L 86.6 69.248563 
" style="fill: none; stroke: #32cd32; stroke-opacity: 0.8; stroke-width: 0.5; stroke-linecap: square"/>
    </g>
    <g id="text_17">
     <!-- Positive predictions max -->
     <g transform="translate(94.6 72.748563) scale(0.1 -0.1)">
      <defs>
       <path id="DejaVuSans-6d" d="M 3328 2828 
Q 3544 3216 3844 3400 
Q 4144 3584 4550 3584 
Q 5097 3584 5394 3201 
Q 5691 2819 5691 2113 
L 5691 0 
L 5113 0 
L 5113 2094 
Q 5113 2597 4934 2840 
Q 4756 3084 4391 3084 
Q 3944 3084 3684 2787 
Q 3425 2491 3425 1978 
L 3425 0 
L 2847 0 
L 2847 2094 
Q 2847 2600 2669 2842 
Q 2491 3084 2119 3084 
Q 1678 3084 1418 2786 
Q 1159 2488 1159 1978 
L 1159 0 
L 581 0 
L 581 3500 
L 1159 3500 
L 1159 2956 
Q 1356 3278 1631 3431 
Q 1906 3584 2284 3584 
Q 2666 3584 2933 3390 
Q 3200 3197 3328 2828 
z
" transform="scale(0.015625)"/>
       <path id="DejaVuSans-78" d="M 3513 3500 
L 2247 1797 
L 3578 0 
L 2900 0 
L 1881 1375 
L 863 0 
L 184 0 
L 1544 1831 
L 300 3500 
L 978 3500 
L 1906 2253 
L 2834 3500 
L 3513 3500 
z
" transform="scale(0.015625)"/>
      </defs>
      <use xlink:href="#DejaVuSans-50"/>
      <use xlink:href="#DejaVuSans-6f" x="56.677734"/>
      <use xlink:href="#DejaVuSans-73" x="117.859375"/>
      <use xlink:href="#DejaVuSans-69" x="169.958984"/>
      <use xlink:href="#DejaVuSans-74" x="197.742188"/>
      <use xlink:href="#DejaVuSans-69" x="236.951172"/>
      <use xlink:href="#DejaVuSans-76" x="264.734375"/>
      <use xlink:href="#DejaVuSans-65" x="323.914062"/>
      <use xlink:href="#DejaVuSans-20" x="385.4375"/>
      <use xlink:href="#DejaVuSans-70" x="417.224609"/>
      <use xlink:href="#DejaVuSans-72" x="480.701172"/>
      <use xlink:href="#DejaVuSans-65" x="519.564453"/>
      <use xlink:href="#DejaVuSans-64" x="581.087891"/>
      <use xlink:href="#DejaVuSans-69" x="644.564453"/>
      <use xlink:href="#DejaVuSans-63" x="672.347656"/>
      <use xlink:href="#DejaVuSans-74" x="727.328125"/>
      <use xlink:href="#DejaVuSans-69" x="766.537109"/>
      <use xlink:href="#DejaVuSans-6f" x="794.320312"/>
      <use xlink:href="#DejaVuSans-6e" x="855.501953"/>
      <use xlink:href="#DejaVuSans-73" x="918.880859"/>
      <use xlink:href="#DejaVuSans-20" x="970.980469"/>
      <use xlink:href="#DejaVuSans-6d" x="1002.767578"/>
      <use xlink:href="#DejaVuSans-61" x="1100.179688"/>
      <use xlink:href="#DejaVuSans-78" x="1161.458984"/>
     </g>
    </g>
    <g id="line2d_23">
     <path d="M 66.6 83.926688 
L 76.6 83.926688 
L 86.6 83.926688 
" style="fill: none; stroke: #32cd32; stroke-opacity: 0.8; stroke-width: 0.5; stroke-linecap: square"/>
    </g>
    <g id="text_18">
     <!-- Positive predictions min -->
     <g transform="translate(94.6 87.426688) scale(0.1 -0.1)">
      <use xlink:href="#DejaVuSans-50"/>
      <use xlink:href="#DejaVuSans-6f" x="56.677734"/>
      <use xlink:href="#DejaVuSans-73" x="117.859375"/>
      <use xlink:href="#DejaVuSans-69" x="169.958984"/>
      <use xlink:href="#DejaVuSans-74" x="197.742188"/>
      <use xlink:href="#DejaVuSans-69" x="236.951172"/>
      <use xlink:href="#DejaVuSans-76" x="264.734375"/>
      <use xlink:href="#DejaVuSans-65" x="323.914062"/>
      <use xlink:href="#DejaVuSans-20" x="385.4375"/>
      <use xlink:href="#DejaVuSans-70" x="417.224609"/>
      <use xlink:href="#DejaVuSans-72" x="480.701172"/>
      <use xlink:href="#DejaVuSans-65" x="519.564453"/>
      <use xlink:href="#DejaVuSans-64" x="581.087891"/>
      <use xlink:href="#DejaVuSans-69" x="644.564453"/>
      <use xlink:href="#DejaVuSans-63" x="672.347656"/>
      <use xlink:href="#DejaVuSans-74" x="727.328125"/>
      <use xlink:href="#DejaVuSans-69" x="766.537109"/>
      <use xlink:href="#DejaVuSans-6f" x="794.320312"/>
      <use xlink:href="#DejaVuSans-6e" x="855.501953"/>
      <use xlink:href="#DejaVuSans-73" x="918.880859"/>
      <use xlink:href="#DejaVuSans-20" x="970.980469"/>
      <use xlink:href="#DejaVuSans-6d" x="1002.767578"/>
      <use xlink:href="#DejaVuSans-69" x="1100.179688"/>
      <use xlink:href="#DejaVuSans-6e" x="1127.962891"/>
     </g>
    </g>
    <g id="line2d_24">
     <path d="M 66.6 98.604813 
L 76.6 98.604813 
L 86.6 98.604813 
" style="fill: none; stroke: #ff0000; stroke-opacity: 0.8; stroke-width: 0.5; stroke-linecap: square"/>
    </g>
    <g id="text_19">
     <!-- Negative predictions -->
     <g transform="translate(94.6 102.104813) scale(0.1 -0.1)">
      <defs>
       <path id="DejaVuSans-4e" d="M 628 4666 
L 1478 4666 
L 3547 763 
L 3547 4666 
L 4159 4666 
L 4159 0 
L 3309 0 
L 1241 3903 
L 1241 0 
L 628 0 
L 628 4666 
z
" transform="scale(0.015625)"/>
      </defs>
      <use xlink:href="#DejaVuSans-4e"/>
      <use xlink:href="#DejaVuSans-65" x="74.804688"/>
      <use xlink:href="#DejaVuSans-67" x="136.328125"/>
      <use xlink:href="#DejaVuSans-61" x="199.804688"/>
      <use xlink:href="#DejaVuSans-74" x="261.083984"/>
      <use xlink:href="#DejaVuSans-69" x="300.292969"/>
      <use xlink:href="#DejaVuSans-76" x="328.076172"/>
      <use xlink:href="#DejaVuSans-65" x="387.255859"/>
      <use xlink:href="#DejaVuSans-20" x="448.779297"/>
      <use xlink:href="#DejaVuSans-70" x="480.566406"/>
      <use xlink:href="#DejaVuSans-72" x="544.042969"/>
      <use xlink:href="#DejaVuSans-65" x="582.90625"/>
      <use xlink:href="#DejaVuSans-64" x="644.429688"/>
      <use xlink:href="#DejaVuSans-69" x="707.90625"/>
      <use xlink:href="#DejaVuSans-63" x="735.689453"/>
      <use xlink:href="#DejaVuSans-74" x="790.669922"/>
      <use xlink:href="#DejaVuSans-69" x="829.878906"/>
      <use xlink:href="#DejaVuSans-6f" x="857.662109"/>
      <use xlink:href="#DejaVuSans-6e" x="918.84375"/>
      <use xlink:href="#DejaVuSans-73" x="982.222656"/>
     </g>
    </g>
    <g id="line2d_25">
     <path d="M 66.6 113.282938 
L 76.6 113.282938 
L 86.6 113.282938 
" style="fill: none; stroke: #f08080; stroke-opacity: 0.8; stroke-width: 0.5; stroke-linecap: square"/>
    </g>
    <g id="text_20">
     <!-- Negative predictions max -->
     <g transform="translate(94.6 116.782938) scale(0.1 -0.1)">
      <use xlink:href="#DejaVuSans-4e"/>
      <use xlink:href="#DejaVuSans-65" x="74.804688"/>
      <use xlink:href="#DejaVuSans-67" x="136.328125"/>
      <use xlink:href="#DejaVuSans-61" x="199.804688"/>
      <use xlink:href="#DejaVuSans-74" x="261.083984"/>
      <use xlink:href="#DejaVuSans-69" x="300.292969"/>
      <use xlink:href="#DejaVuSans-76" x="328.076172"/>
      <use xlink:href="#DejaVuSans-65" x="387.255859"/>
      <use xlink:href="#DejaVuSans-20" x="448.779297"/>
      <use xlink:href="#DejaVuSans-70" x="480.566406"/>
      <use xlink:href="#DejaVuSans-72" x="544.042969"/>
      <use xlink:href="#DejaVuSans-65" x="582.90625"/>
      <use xlink:href="#DejaVuSans-64" x="644.429688"/>
      <use xlink:href="#DejaVuSans-69" x="707.90625"/>
      <use xlink:href="#DejaVuSans-63" x="735.689453"/>
      <use xlink:href="#DejaVuSans-74" x="790.669922"/>
      <use xlink:href="#DejaVuSans-69" x="829.878906"/>
      <use xlink:href="#DejaVuSans-6f" x="857.662109"/>
      <use xlink:href="#DejaVuSans-6e" x="918.84375"/>
      <use xlink:href="#DejaVuSans-73" x="982.222656"/>
      <use xlink:href="#DejaVuSans-20" x="1034.322266"/>
      <use xlink:href="#DejaVuSans-6d" x="1066.109375"/>
      <use xlink:href="#DejaVuSans-61" x="1163.521484"/>
      <use xlink:href="#DejaVuSans-78" x="1224.800781"/>
     </g>
    </g>
    <g id="line2d_26">
     <path d="M 66.6 127.961063 
L 76.6 127.961063 
L 86.6 127.961063 
" style="fill: none; stroke: #f08080; stroke-opacity: 0.8; stroke-width: 0.5; stroke-linecap: square"/>
    </g>
    <g id="text_21">
     <!-- Negative predictions min -->
     <g transform="translate(94.6 131.461063) scale(0.1 -0.1)">
      <use xlink:href="#DejaVuSans-4e"/>
      <use xlink:href="#DejaVuSans-65" x="74.804688"/>
      <use xlink:href="#DejaVuSans-67" x="136.328125"/>
      <use xlink:href="#DejaVuSans-61" x="199.804688"/>
      <use xlink:href="#DejaVuSans-74" x="261.083984"/>
      <use xlink:href="#DejaVuSans-69" x="300.292969"/>
      <use xlink:href="#DejaVuSans-76" x="328.076172"/>
      <use xlink:href="#DejaVuSans-65" x="387.255859"/>
      <use xlink:href="#DejaVuSans-20" x="448.779297"/>
      <use xlink:href="#DejaVuSans-70" x="480.566406"/>
      <use xlink:href="#DejaVuSans-72" x="544.042969"/>
      <use xlink:href="#DejaVuSans-65" x="582.90625"/>
      <use xlink:href="#DejaVuSans-64" x="644.429688"/>
      <use xlink:href="#DejaVuSans-69" x="707.90625"/>
      <use xlink:href="#DejaVuSans-63" x="735.689453"/>
      <use xlink:href="#DejaVuSans-74" x="790.669922"/>
      <use xlink:href="#DejaVuSans-69" x="829.878906"/>
      <use xlink:href="#DejaVuSans-6f" x="857.662109"/>
      <use xlink:href="#DejaVuSans-6e" x="918.84375"/>
      <use xlink:href="#DejaVuSans-73" x="982.222656"/>
      <use xlink:href="#DejaVuSans-20" x="1034.322266"/>
      <use xlink:href="#DejaVuSans-6d" x="1066.109375"/>
      <use xlink:href="#DejaVuSans-69" x="1163.521484"/>
      <use xlink:href="#DejaVuSans-6e" x="1191.304688"/>
     </g>
    </g>
   </g>
  </g>
 </g>
 <defs>
  <clipPath id="p153ccd4ca3">
   <rect x="57.6" y="41.472" width="357.12" height="266.112"/>
  </clipPath>
 </defs>
</svg>
