<?xml version="1.0" encoding="utf-8" standalone="no"?>
<!DOCTYPE svg PUBLIC "-//W3C//DTD SVG 1.1//EN"
  "http://www.w3.org/Graphics/SVG/1.1/DTD/svg11.dtd">
<svg xmlns:xlink="http://www.w3.org/1999/xlink" width="460.8pt" height="345.6pt" viewBox="0 0 460.8 345.6" xmlns="http://www.w3.org/2000/svg" version="1.1">
 <metadata>
  <rdf:RDF xmlns:dc="http://purl.org/dc/elements/1.1/" xmlns:cc="http://creativecommons.org/ns#" xmlns:rdf="http://www.w3.org/1999/02/22-rdf-syntax-ns#">
   <cc:Work>
    <dc:type rdf:resource="http://purl.org/dc/dcmitype/StillImage"/>
    <dc:date>2024-09-06T07:10:59.299570</dc:date>
    <dc:format>image/svg+xml</dc:format>
    <dc:creator>
     <cc:Agent>
      <dc:title>Matplotlib v3.9.0, https://matplotlib.org/</dc:title>
     </cc:Agent>
    </dc:creator>
   </cc:Work>
  </rdf:RDF>
 </metadata>
 <defs>
  <style type="text/css">*{stroke-linejoin: round; stroke-linecap: butt}</style>
 </defs>
 <g id="figure_1">
  <g id="patch_1">
   <path d="M 0 345.6 
L 460.8 345.6 
L 460.8 0 
L 0 0 
z
" style="fill: #ffffff"/>
  </g>
  <g id="axes_1">
   <g id="patch_2">
    <path d="M 57.6 307.584 
L 414.72 307.584 
L 414.72 41.472 
L 57.6 41.472 
z
" style="fill: #ffffff"/>
   </g>
   <g id="matplotlib.axis_1">
    <g id="xtick_1">
     <g id="line2d_1">
      <defs>
       <path id="mf50f7f631d" d="M 0 0 
L 0 3.5 
" style="stroke: #000000; stroke-width: 0.8"/>
      </defs>
      <g>
       <use xlink:href="#mf50f7f631d" x="73.832727" y="307.584" style="stroke: #000000; stroke-width: 0.8"/>
      </g>
     </g>
     <g id="text_1">
      <!-- 0 -->
      <g transform="translate(70.651477 322.182437) scale(0.1 -0.1)">
       <defs>
        <path id="DejaVuSans-30" d="M 2034 4250 
Q 1547 4250 1301 3770 
Q 1056 3291 1056 2328 
Q 1056 1369 1301 889 
Q 1547 409 2034 409 
Q 2525 409 2770 889 
Q 3016 1369 3016 2328 
Q 3016 3291 2770 3770 
Q 2525 4250 2034 4250 
z
M 2034 4750 
Q 2819 4750 3233 4129 
Q 3647 3509 3647 2328 
Q 3647 1150 3233 529 
Q 2819 -91 2034 -91 
Q 1250 -91 836 529 
Q 422 1150 422 2328 
Q 422 3509 836 4129 
Q 1250 4750 2034 4750 
z
" transform="scale(0.015625)"/>
       </defs>
       <use xlink:href="#DejaVuSans-30"/>
      </g>
     </g>
    </g>
    <g id="xtick_2">
     <g id="line2d_2">
      <g>
       <use xlink:href="#mf50f7f631d" x="149.333784" y="307.584" style="stroke: #000000; stroke-width: 0.8"/>
      </g>
     </g>
     <g id="text_2">
      <!-- 50 -->
      <g transform="translate(142.971284 322.182437) scale(0.1 -0.1)">
       <defs>
        <path id="DejaVuSans-35" d="M 691 4666 
L 3169 4666 
L 3169 4134 
L 1269 4134 
L 1269 2991 
Q 1406 3038 1543 3061 
Q 1681 3084 1819 3084 
Q 2600 3084 3056 2656 
Q 3513 2228 3513 1497 
Q 3513 744 3044 326 
Q 2575 -91 1722 -91 
Q 1428 -91 1123 -41 
Q 819 9 494 109 
L 494 744 
Q 775 591 1075 516 
Q 1375 441 1709 441 
Q 2250 441 2565 725 
Q 2881 1009 2881 1497 
Q 2881 1984 2565 2268 
Q 2250 2553 1709 2553 
Q 1456 2553 1204 2497 
Q 953 2441 691 2322 
L 691 4666 
z
" transform="scale(0.015625)"/>
       </defs>
       <use xlink:href="#DejaVuSans-35"/>
       <use xlink:href="#DejaVuSans-30" x="63.623047"/>
      </g>
     </g>
    </g>
    <g id="xtick_3">
     <g id="line2d_3">
      <g>
       <use xlink:href="#mf50f7f631d" x="224.834841" y="307.584" style="stroke: #000000; stroke-width: 0.8"/>
      </g>
     </g>
     <g id="text_3">
      <!-- 100 -->
      <g transform="translate(215.291091 322.182437) scale(0.1 -0.1)">
       <defs>
        <path id="DejaVuSans-31" d="M 794 531 
L 1825 531 
L 1825 4091 
L 703 3866 
L 703 4441 
L 1819 4666 
L 2450 4666 
L 2450 531 
L 3481 531 
L 3481 0 
L 794 0 
L 794 531 
z
" transform="scale(0.015625)"/>
       </defs>
       <use xlink:href="#DejaVuSans-31"/>
       <use xlink:href="#DejaVuSans-30" x="63.623047"/>
       <use xlink:href="#DejaVuSans-30" x="127.246094"/>
      </g>
     </g>
    </g>
    <g id="xtick_4">
     <g id="line2d_4">
      <g>
       <use xlink:href="#mf50f7f631d" x="300.335899" y="307.584" style="stroke: #000000; stroke-width: 0.8"/>
      </g>
     </g>
     <g id="text_4">
      <!-- 150 -->
      <g transform="translate(290.792149 322.182437) scale(0.1 -0.1)">
       <use xlink:href="#DejaVuSans-31"/>
       <use xlink:href="#DejaVuSans-35" x="63.623047"/>
       <use xlink:href="#DejaVuSans-30" x="127.246094"/>
      </g>
     </g>
    </g>
    <g id="xtick_5">
     <g id="line2d_5">
      <g>
       <use xlink:href="#mf50f7f631d" x="375.836956" y="307.584" style="stroke: #000000; stroke-width: 0.8"/>
      </g>
     </g>
     <g id="text_5">
      <!-- 200 -->
      <g transform="translate(366.293206 322.182437) scale(0.1 -0.1)">
       <defs>
        <path id="DejaVuSans-32" d="M 1228 531 
L 3431 531 
L 3431 0 
L 469 0 
L 469 531 
Q 828 903 1448 1529 
Q 2069 2156 2228 2338 
Q 2531 2678 2651 2914 
Q 2772 3150 2772 3378 
Q 2772 3750 2511 3984 
Q 2250 4219 1831 4219 
Q 1534 4219 1204 4116 
Q 875 4013 500 3803 
L 500 4441 
Q 881 4594 1212 4672 
Q 1544 4750 1819 4750 
Q 2544 4750 2975 4387 
Q 3406 4025 3406 3419 
Q 3406 3131 3298 2873 
Q 3191 2616 2906 2266 
Q 2828 2175 2409 1742 
Q 1991 1309 1228 531 
z
" transform="scale(0.015625)"/>
       </defs>
       <use xlink:href="#DejaVuSans-32"/>
       <use xlink:href="#DejaVuSans-30" x="63.623047"/>
       <use xlink:href="#DejaVuSans-30" x="127.246094"/>
      </g>
     </g>
    </g>
   </g>
   <g id="matplotlib.axis_2">
    <g id="ytick_1">
     <g id="line2d_6">
      <defs>
       <path id="m65f4907c11" d="M 0 0 
L -3.5 0 
" style="stroke: #000000; stroke-width: 0.8"/>
      </defs>
      <g>
       <use xlink:href="#m65f4907c11" x="57.6" y="261.184081" style="stroke: #000000; stroke-width: 0.8"/>
      </g>
     </g>
     <g id="text_6">
      <!-- −2000 -->
      <g transform="translate(16.770313 264.983299) scale(0.1 -0.1)">
       <defs>
        <path id="DejaVuSans-2212" d="M 678 2272 
L 4684 2272 
L 4684 1741 
L 678 1741 
L 678 2272 
z
" transform="scale(0.015625)"/>
       </defs>
       <use xlink:href="#DejaVuSans-2212"/>
       <use xlink:href="#DejaVuSans-32" x="83.789062"/>
       <use xlink:href="#DejaVuSans-30" x="147.412109"/>
       <use xlink:href="#DejaVuSans-30" x="211.035156"/>
       <use xlink:href="#DejaVuSans-30" x="274.658203"/>
      </g>
     </g>
    </g>
    <g id="ytick_2">
     <g id="line2d_7">
      <g>
       <use xlink:href="#m65f4907c11" x="57.6" y="205.183325" style="stroke: #000000; stroke-width: 0.8"/>
      </g>
     </g>
     <g id="text_7">
      <!-- −1000 -->
      <g transform="translate(16.770313 208.982543) scale(0.1 -0.1)">
       <use xlink:href="#DejaVuSans-2212"/>
       <use xlink:href="#DejaVuSans-31" x="83.789062"/>
       <use xlink:href="#DejaVuSans-30" x="147.412109"/>
       <use xlink:href="#DejaVuSans-30" x="211.035156"/>
       <use xlink:href="#DejaVuSans-30" x="274.658203"/>
      </g>
     </g>
    </g>
    <g id="ytick_3">
     <g id="line2d_8">
      <g>
       <use xlink:href="#m65f4907c11" x="57.6" y="149.182569" style="stroke: #000000; stroke-width: 0.8"/>
      </g>
     </g>
     <g id="text_8">
      <!-- 0 -->
      <g transform="translate(44.2375 152.981788) scale(0.1 -0.1)">
       <use xlink:href="#DejaVuSans-30"/>
      </g>
     </g>
    </g>
    <g id="ytick_4">
     <g id="line2d_9">
      <g>
       <use xlink:href="#m65f4907c11" x="57.6" y="93.181813" style="stroke: #000000; stroke-width: 0.8"/>
      </g>
     </g>
     <g id="text_9">
      <!-- 1000 -->
      <g transform="translate(25.15 96.981032) scale(0.1 -0.1)">
       <use xlink:href="#DejaVuSans-31"/>
       <use xlink:href="#DejaVuSans-30" x="63.623047"/>
       <use xlink:href="#DejaVuSans-30" x="127.246094"/>
       <use xlink:href="#DejaVuSans-30" x="190.869141"/>
      </g>
     </g>
    </g>
   </g>
   <g id="line2d_10">
    <path d="M 73.832727 150.199916 
L 75.342748 152.395145 
L 76.85277 152.329811 
L 78.362791 152.684483 
L 79.872812 152.533281 
L 81.382833 152.147498 
L 82.892854 152.489725 
L 84.402875 152.16772 
L 85.912896 153.827379 
L 87.422918 157.271425 
L 88.932939 161.751486 
L 90.44296 159.469455 
L 91.952981 157.856633 
L 93.463002 154.910994 
L 94.973023 155.265665 
L 96.483044 154.713658 
L 97.993066 154.862993 
L 99.503087 156.739018 
L 101.013108 157.299026 
L 102.523129 159.12305 
L 104.03315 158.857047 
L 105.543171 159.625057 
L 107.053192 159.186385 
L 108.563214 159.210385 
L 110.073235 158.923381 
L 113.093277 159.807726 
L 114.603298 159.611724 
L 117.62334 159.552923 
L 119.133362 159.765726 
L 120.643383 159.80306 
L 122.153404 159.243052 
L 123.663425 159.187051 
L 126.683467 159.358787 
L 128.193488 162.350827 
L 129.70351 163.116171 
L 131.213531 162.188158 
L 132.723552 163.348174 
L 134.233573 163.643451 
L 135.743594 163.459448 
L 137.253615 163.590117 
L 138.763636 164.290126 
L 140.273658 164.668131 
L 141.783679 165.410141 
L 146.313742 168.224179 
L 147.823763 169.864201 
L 149.333784 171.048217 
L 150.843805 172.563971 
L 152.353827 173.175672 
L 153.863848 172.620331 
L 155.373869 173.379452 
L 156.88389 172.686443 
L 158.393911 171.663156 
L 161.413953 175.193431 
L 162.923975 176.380647 
L 164.433996 176.55985 
L 165.944017 176.027843 
L 168.964059 175.85984 
L 170.47408 175.3745 
L 171.984101 176.707318 
L 173.494123 176.595317 
L 175.004144 178.107337 
L 176.514165 178.409741 
L 178.024186 179.05935 
L 179.534207 179.143351 
L 181.044228 180.025363 
L 182.554249 181.635385 
L 184.064271 182.01139 
L 185.574292 183.870615 
L 187.084313 185.345302 
L 188.594334 185.687529 
L 190.104355 185.231522 
L 191.614376 185.586194 
L 193.124397 185.087278 
L 194.634419 184.891275 
L 196.14444 186.266405 
L 197.654461 185.908862 
L 199.164482 187.628885 
L 200.674503 189.611312 
L 202.184524 190.21612 
L 203.694545 192.108945 
L 205.204567 191.604939 
L 206.714588 190.652926 
L 208.224609 190.364922 
L 209.73463 190.287921 
L 211.244651 191.538604 
L 212.754672 193.598188 
L 214.264693 193.150182 
L 215.774715 194.636356 
L 217.284736 194.819631 
L 218.794757 193.851618 
L 220.304778 193.667615 
L 221.814799 193.28961 
L 223.32482 194.936032 
L 224.834841 195.160035 
L 226.344863 196.22405 
L 227.854884 195.706043 
L 229.364905 195.062034 
L 230.874926 195.146035 
L 232.384947 195.650042 
L 233.894968 195.858045 
L 235.404989 197.322065 
L 236.915011 201.823125 
L 238.425032 199.485094 
L 241.445074 198.062675 
L 242.955095 197.894672 
L 244.465116 195.856245 
L 245.975137 200.196303 
L 247.485159 199.154689 
L 248.99518 200.526708 
L 250.505201 199.322692 
L 252.015222 201.240718 
L 253.525243 202.67807 
L 255.035264 206.579456 
L 256.545285 206.308786 
L 258.055307 206.532789 
L 259.565328 206.462788 
L 261.075349 207.036796 
L 262.58537 206.850127 
L 264.095391 208.380814 
L 265.605412 212.216866 
L 267.115433 209.836834 
L 268.625455 209.426161 
L 270.135476 209.35616 
L 271.645497 212.457202 
L 273.155518 212.494536 
L 274.665539 214.559564 
L 276.17556 215.301574 
L 277.685581 216.549591 
L 279.195603 218.069611 
L 280.705624 217.2296 
L 282.215645 219.600299 
L 283.725666 221.584326 
L 285.235687 226.316389 
L 286.745708 229.015626 
L 288.255729 230.720538 
L 289.765751 232.911567 
L 291.275772 233.58573 
L 292.785793 236.770307 
L 294.295814 242.592518 
L 295.805835 242.904256 
L 298.825877 242.133543 
L 300.335899 241.325032 
L 301.84592 240.970361 
L 303.355941 241.423458 
L 304.865962 243.859491 
L 306.375983 245.614181 
L 307.886004 246.108854 
L 309.396025 246.094854 
L 310.906047 249.096495 
L 312.416068 251.806931 
L 313.926089 252.590942 
L 315.43611 255.474981 
L 316.946131 256.042988 
L 318.456152 255.714984 
L 319.966173 257.183804 
L 322.986216 256.380028 
L 324.496237 255.714608 
L 326.006258 255.809109 
L 327.516279 256.89179 
L 329.0263 256.600586 
L 330.536321 258.485945 
L 332.046342 265.24337 
L 333.556364 265.097768 
L 335.066385 262.017726 
L 336.576406 261.149714 
L 339.596448 258.500078 
L 341.106469 259.216888 
L 342.61649 262.106527 
L 344.126512 260.706508 
L 345.636533 260.445171 
L 347.146554 263.618548 
L 348.656575 266.091914 
L 350.166596 265.737243 
L 351.676617 268.331945 
L 353.186638 268.75195 
L 354.69666 268.70395 
L 356.206681 268.513547 
L 357.716702 269.346558 
L 359.226723 269.416559 
L 360.736744 271.008581 
L 362.246765 272.923807 
L 363.756786 278.35588 
L 365.266808 280.786313 
L 366.776829 290.292441 
L 368.28685 291.031651 
L 369.796871 288.00761 
L 371.306892 281.421921 
L 372.816913 279.549896 
L 374.326934 277.459201 
L 375.836956 277.147197 
L 377.346977 275.809401 
L 378.856998 279.253448 
L 380.367019 279.155446 
L 381.87704 278.797041 
L 383.387061 279.058378 
L 384.897082 281.093072 
L 386.407104 281.843482 
L 387.917125 281.738481 
L 389.427146 284.930524 
L 390.937167 286.171874 
L 392.447188 287.123887 
L 393.957209 287.563893 
L 395.46723 287.868786 
L 396.977252 293.201302 
L 398.487273 295.488 
L 398.487273 295.488 
" clip-path="url(#pc106f60d7d)" style="fill: none; stroke: #1f77b4; stroke-opacity: 0.7; stroke-width: 1.5; stroke-linecap: square"/>
   </g>
   <g id="line2d_11">
    <path d="M 73.832727 149.275903 
L 75.342748 149.919912 
L 76.85277 149.539107 
L 78.362791 148.795824 
L 79.872812 148.207816 
L 81.382833 147.0318 
L 82.892854 146.695796 
L 84.402875 145.671782 
L 85.912896 146.959799 
L 87.422918 149.166229 
L 88.932939 153.506288 
L 91.952981 150.028241 
L 93.463002 146.917088 
L 94.973023 147.694876 
L 96.483044 147.253092 
L 97.993066 147.286693 
L 99.503087 148.658711 
L 101.013108 149.689125 
L 102.523129 150.450735 
L 104.03315 150.425846 
L 105.543171 150.187843 
L 107.053192 148.899826 
L 108.563214 148.041147 
L 110.073235 146.902465 
L 111.583256 146.654462 
L 113.093277 146.038454 
L 114.603298 144.29123 
L 116.113319 143.51522 
L 117.62334 141.859197 
L 120.643383 139.818224 
L 122.153404 137.690195 
L 126.683467 135.154379 
L 128.193488 137.108184 
L 129.70351 136.514576 
L 131.213531 134.585661 
L 132.723552 134.081654 
L 135.743594 132.092392 
L 137.253615 130.300367 
L 138.763636 129.677771 
L 140.273658 129.429767 
L 143.2937 129.406434 
L 144.803721 129.616437 
L 146.313742 129.504435 
L 147.823763 130.649339 
L 149.333784 131.144013 
L 150.843805 131.949024 
L 152.353827 131.781021 
L 153.863848 130.731007 
L 155.373869 130.777675 
L 158.393911 128.789648 
L 159.903932 129.949663 
L 161.413953 130.877676 
L 162.923975 131.027011 
L 164.433996 129.589659 
L 165.944017 127.613632 
L 167.454038 126.318614 
L 168.964059 125.57816 
L 170.47408 124.091029 
L 171.984101 124.731037 
L 173.494123 124.208364 
L 175.004144 124.456367 
L 178.024186 123.152794 
L 179.534207 122.028112 
L 181.044228 122.036112 
L 182.554249 122.288116 
L 184.064271 122.064112 
L 185.574292 122.786522 
L 187.084313 123.034526 
L 188.594334 122.498518 
L 190.104355 121.121833 
L 191.614376 120.41249 
L 193.124397 118.802468 
L 194.634419 118.326462 
L 196.14444 118.91447 
L 197.654461 117.738454 
L 199.164482 118.662467 
L 200.674503 120.096086 
L 202.184524 120.044752 
L 203.694545 121.295435 
L 205.204567 120.772762 
L 206.714588 119.186074 
L 208.224609 118.312462 
L 209.73463 117.836455 
L 211.244651 118.788468 
L 212.754672 120.276488 
L 214.264693 119.119139 
L 215.774715 120.043152 
L 217.284736 119.259141 
L 218.794757 117.275115 
L 220.304778 116.91111 
L 221.814799 115.126086 
L 223.32482 116.199433 
L 224.834841 115.912429 
L 226.344863 116.181233 
L 227.854884 115.413223 
L 229.364905 114.053204 
L 230.874926 113.647199 
L 233.894968 112.214513 
L 235.404989 113.068524 
L 236.915011 116.571683 
L 238.425032 114.375209 
L 239.935053 113.260794 
L 242.955095 111.797774 
L 244.465116 109.831525 
L 245.975137 112.250758 
L 247.485159 110.318732 
L 248.99518 110.626736 
L 250.505201 106.841085 
L 252.015222 106.738417 
L 253.525243 105.683736 
L 255.035264 108.125369 
L 256.545285 104.662655 
L 258.055307 102.01662 
L 261.075349 98.284169 
L 262.58537 96.296142 
L 264.095391 96.696148 
L 265.605412 99.342184 
L 267.115433 97.307489 
L 268.625455 96.64348 
L 270.135476 95.265862 
L 271.645497 97.113887 
L 273.155518 96.544546 
L 274.665539 97.293556 
L 276.17556 96.464745 
L 277.685581 97.043419 
L 279.195603 96.800749 
L 280.705624 94.868723 
L 282.215645 96.156741 
L 283.725666 96.838083 
L 285.235687 100.879471 
L 286.745708 102.327491 
L 288.255729 103.0475 
L 289.765751 103.509506 
L 291.275772 102.576161 
L 292.785793 103.584174 
L 294.295814 107.128222 
L 295.805835 105.408199 
L 298.825877 99.982792 
L 300.335899 96.342743 
L 301.84592 94.976325 
L 303.355941 93.417637 
L 304.865962 94.36965 
L 306.375983 95.041659 
L 307.886004 94.627253 
L 309.396025 92.779228 
L 310.906047 94.477918 
L 312.416068 95.659025 
L 313.926089 94.443008 
L 315.43611 95.28302 
L 316.946131 93.220325 
L 318.456152 92.454981 
L 319.966173 91.816573 
L 321.476195 90.346553 
L 322.986216 88.489195 
L 324.496237 87.966521 
L 326.006258 86.726504 
L 327.516279 87.435847 
L 329.0263 85.839826 
L 330.536321 87.055842 
L 332.046342 92.424914 
L 333.556364 92.284913 
L 335.066385 88.910867 
L 336.576406 86.711565 
L 338.086427 85.248545 
L 339.596448 82.012946 
L 341.106469 81.452938 
L 342.61649 84.210975 
L 344.126512 82.418951 
L 345.636533 82.34895 
L 348.656575 82.717311 
L 350.166596 80.01683 
L 351.676617 81.136845 
L 353.186638 79.224819 
L 354.69666 77.572797 
L 356.206681 77.09119 
L 357.716702 76.139177 
L 359.226723 75.60717 
L 360.736744 75.57517 
L 362.246765 76.045576 
L 363.756786 80.320301 
L 365.266808 82.045124 
L 366.776829 90.506329 
L 368.28685 90.989972 
L 369.796871 86.717114 
L 371.306892 81.492244 
L 372.816913 77.852194 
L 374.326934 76.186172 
L 375.836956 73.787473 
L 377.346977 72.235452 
L 378.856998 71.899447 
L 380.367019 69.491415 
L 381.87704 66.219371 
L 383.387061 64.698017 
L 384.897082 63.522001 
L 386.407104 61.825978 
L 387.917125 59.00194 
L 390.937167 58.800337 
L 392.447188 56.690975 
L 393.957209 55.369358 
L 395.46723 53.568 
L 396.977252 56.280926 
L 398.487273 56.448928 
L 398.487273 56.448928 
" clip-path="url(#pc106f60d7d)" style="fill: none; stroke: #ff7f0e; stroke-opacity: 0.7; stroke-width: 1.5; stroke-linecap: square"/>
   </g>
   <g id="line2d_12">
    <path d="M 73.832727 149.73791 
L 75.342748 151.157529 
L 78.362791 150.740153 
L 79.872812 150.370548 
L 81.382833 149.589649 
L 82.892854 149.59276 
L 84.402875 148.919751 
L 85.912896 150.393589 
L 87.422918 153.218827 
L 88.932939 157.628887 
L 90.44296 155.595859 
L 91.952981 153.942437 
L 93.463002 150.914041 
L 94.973023 151.48027 
L 96.483044 150.983375 
L 97.993066 151.074843 
L 99.503087 152.698865 
L 101.013108 153.494075 
L 102.523129 154.786893 
L 104.03315 154.641446 
L 105.543171 154.90645 
L 107.053192 154.043105 
L 108.563214 153.625766 
L 110.073235 152.912923 
L 111.583256 153.002424 
L 113.093277 152.92309 
L 114.603298 151.951477 
L 116.113319 151.541071 
L 117.62334 150.70606 
L 120.643383 149.810642 
L 122.153404 148.466624 
L 125.173446 147.627121 
L 126.683467 147.256583 
L 128.193488 149.729505 
L 129.70351 149.815373 
L 131.213531 148.38691 
L 132.723552 148.714914 
L 134.233573 148.362046 
L 135.743594 147.77592 
L 137.253615 146.945242 
L 140.273658 147.048949 
L 141.783679 147.387287 
L 143.2937 147.863294 
L 144.803721 148.486302 
L 146.313742 148.864307 
L 147.823763 150.25677 
L 149.333784 151.096115 
L 150.843805 152.256497 
L 152.353827 152.478347 
L 153.863848 151.675669 
L 155.373869 152.078563 
L 156.88389 151.251386 
L 158.393911 150.226402 
L 161.413953 153.035554 
L 162.923975 153.703829 
L 164.433996 153.074754 
L 165.944017 151.820737 
L 167.454038 151.137228 
L 168.964059 150.719 
L 170.47408 149.732765 
L 171.984101 150.719178 
L 173.494123 150.40184 
L 175.004144 151.281852 
L 176.514165 151.11105 
L 178.024186 151.106072 
L 179.534207 150.585732 
L 181.044228 151.030738 
L 182.554249 151.96175 
L 184.064271 152.037751 
L 185.574292 153.328569 
L 187.084313 154.189914 
L 188.594334 154.093023 
L 190.104355 153.176678 
L 191.614376 152.999342 
L 193.124397 151.944873 
L 194.634419 151.608869 
L 196.14444 152.590438 
L 197.654461 151.823658 
L 199.164482 153.145676 
L 200.674503 154.853699 
L 202.184524 155.130436 
L 203.694545 156.70219 
L 205.204567 156.18885 
L 206.714588 154.9195 
L 208.224609 154.338692 
L 209.73463 154.062188 
L 211.244651 155.163536 
L 212.754672 156.937338 
L 214.264693 156.134661 
L 215.774715 157.339754 
L 217.284736 157.039386 
L 218.794757 155.563366 
L 220.304778 155.289362 
L 221.814799 154.207848 
L 223.32482 155.567733 
L 224.834841 155.536232 
L 226.344863 156.202641 
L 227.854884 155.559633 
L 229.364905 154.557619 
L 233.894968 154.036279 
L 235.404989 155.195295 
L 236.915011 159.197404 
L 238.425032 156.930151 
L 239.935053 156.008939 
L 241.445074 155.31873 
L 242.955095 154.846223 
L 244.465116 152.843885 
L 245.975137 156.223531 
L 247.485159 154.736711 
L 248.99518 155.576722 
L 250.505201 153.081888 
L 252.015222 153.989567 
L 253.525243 154.180903 
L 255.035264 157.352413 
L 256.545285 155.485721 
L 258.055307 154.274704 
L 259.565328 153.336692 
L 261.075349 152.660483 
L 262.58537 151.573135 
L 264.095391 152.538481 
L 265.605412 155.779525 
L 267.115433 153.572162 
L 268.625455 153.034821 
L 270.135476 152.311011 
L 271.645497 154.785545 
L 273.155518 154.519541 
L 274.665539 155.92656 
L 276.17556 155.883159 
L 277.685581 156.796505 
L 279.195603 157.43518 
L 280.705624 156.049162 
L 282.215645 157.87852 
L 283.725666 159.211204 
L 285.235687 163.59793 
L 286.745708 165.671558 
L 289.765751 168.210537 
L 291.275772 168.080945 
L 292.785793 170.17724 
L 294.295814 174.86037 
L 295.805835 174.156227 
L 298.825877 171.058168 
L 300.335899 168.833888 
L 301.84592 167.973343 
L 303.355941 167.420547 
L 304.865962 169.11457 
L 306.375983 170.32792 
L 307.886004 170.368054 
L 309.396025 169.437041 
L 310.906047 171.787206 
L 312.416068 173.732978 
L 313.926089 173.516975 
L 315.43611 175.379 
L 316.946131 174.631657 
L 318.456152 174.084983 
L 319.966173 174.500188 
L 321.476195 173.569176 
L 322.986216 172.434611 
L 326.006258 171.267806 
L 327.516279 172.163819 
L 329.0263 171.220206 
L 330.536321 172.770893 
L 332.046342 178.834142 
L 333.556364 178.69134 
L 335.066385 175.464296 
L 336.576406 173.930639 
L 338.086427 172.563121 
L 339.596448 170.256512 
L 341.106469 170.334913 
L 342.61649 173.158751 
L 344.126512 171.56273 
L 345.636533 171.397061 
L 347.146554 173.06215 
L 348.656575 174.404612 
L 350.166596 172.877036 
L 351.676617 174.734395 
L 354.69666 173.138373 
L 356.206681 172.802369 
L 357.716702 172.742868 
L 359.226723 172.511865 
L 360.736744 173.291875 
L 362.246765 174.484691 
L 363.756786 179.33809 
L 365.266808 181.415718 
L 366.776829 190.399385 
L 368.28685 191.010811 
L 369.796871 187.362362 
L 371.306892 181.457082 
L 372.816913 178.701045 
L 374.326934 176.822687 
L 377.346977 174.022427 
L 378.856998 175.576447 
L 380.367019 174.323431 
L 381.87704 172.508206 
L 383.387061 171.878198 
L 384.897082 172.307537 
L 386.407104 171.83473 
L 387.917125 170.370211 
L 389.427146 171.924232 
L 390.937167 172.486106 
L 392.447188 171.907431 
L 393.957209 171.466625 
L 395.46723 170.718393 
L 396.977252 174.741114 
L 398.487273 175.968464 
L 398.487273 175.968464 
" clip-path="url(#pc106f60d7d)" style="fill: none; stroke: #2ca02c; stroke-opacity: 0.7; stroke-width: 1.5; stroke-linecap: square"/>
   </g>
   <g id="patch_3">
    <path d="M 57.6 307.584 
L 57.6 41.472 
" style="fill: none; stroke: #000000; stroke-width: 0.8; stroke-linejoin: miter; stroke-linecap: square"/>
   </g>
   <g id="patch_4">
    <path d="M 414.72 307.584 
L 414.72 41.472 
" style="fill: none; stroke: #000000; stroke-width: 0.8; stroke-linejoin: miter; stroke-linecap: square"/>
   </g>
   <g id="patch_5">
    <path d="M 57.6 307.584 
L 414.72 307.584 
" style="fill: none; stroke: #000000; stroke-width: 0.8; stroke-linejoin: miter; stroke-linecap: square"/>
   </g>
   <g id="patch_6">
    <path d="M 57.6 41.472 
L 414.72 41.472 
" style="fill: none; stroke: #000000; stroke-width: 0.8; stroke-linejoin: miter; stroke-linecap: square"/>
   </g>
   <g id="text_10">
    <!-- 1final_naive_jc_cci -->
    <g transform="translate(180.796875 35.472) scale(0.12 -0.12)">
     <defs>
      <path id="DejaVuSans-66" d="M 2375 4863 
L 2375 4384 
L 1825 4384 
Q 1516 4384 1395 4259 
Q 1275 4134 1275 3809 
L 1275 3500 
L 2222 3500 
L 2222 3053 
L 1275 3053 
L 1275 0 
L 697 0 
L 697 3053 
L 147 3053 
L 147 3500 
L 697 3500 
L 697 3744 
Q 697 4328 969 4595 
Q 1241 4863 1831 4863 
L 2375 4863 
z
" transform="scale(0.015625)"/>
      <path id="DejaVuSans-69" d="M 603 3500 
L 1178 3500 
L 1178 0 
L 603 0 
L 603 3500 
z
M 603 4863 
L 1178 4863 
L 1178 4134 
L 603 4134 
L 603 4863 
z
" transform="scale(0.015625)"/>
      <path id="DejaVuSans-6e" d="M 3513 2113 
L 3513 0 
L 2938 0 
L 2938 2094 
Q 2938 2591 2744 2837 
Q 2550 3084 2163 3084 
Q 1697 3084 1428 2787 
Q 1159 2491 1159 1978 
L 1159 0 
L 581 0 
L 581 3500 
L 1159 3500 
L 1159 2956 
Q 1366 3272 1645 3428 
Q 1925 3584 2291 3584 
Q 2894 3584 3203 3211 
Q 3513 2838 3513 2113 
z
" transform="scale(0.015625)"/>
      <path id="DejaVuSans-61" d="M 2194 1759 
Q 1497 1759 1228 1600 
Q 959 1441 959 1056 
Q 959 750 1161 570 
Q 1363 391 1709 391 
Q 2188 391 2477 730 
Q 2766 1069 2766 1631 
L 2766 1759 
L 2194 1759 
z
M 3341 1997 
L 3341 0 
L 2766 0 
L 2766 531 
Q 2569 213 2275 61 
Q 1981 -91 1556 -91 
Q 1019 -91 701 211 
Q 384 513 384 1019 
Q 384 1609 779 1909 
Q 1175 2209 1959 2209 
L 2766 2209 
L 2766 2266 
Q 2766 2663 2505 2880 
Q 2244 3097 1772 3097 
Q 1472 3097 1187 3025 
Q 903 2953 641 2809 
L 641 3341 
Q 956 3463 1253 3523 
Q 1550 3584 1831 3584 
Q 2591 3584 2966 3190 
Q 3341 2797 3341 1997 
z
" transform="scale(0.015625)"/>
      <path id="DejaVuSans-6c" d="M 603 4863 
L 1178 4863 
L 1178 0 
L 603 0 
L 603 4863 
z
" transform="scale(0.015625)"/>
      <path id="DejaVuSans-5f" d="M 3263 -1063 
L 3263 -1509 
L -63 -1509 
L -63 -1063 
L 3263 -1063 
z
" transform="scale(0.015625)"/>
      <path id="DejaVuSans-76" d="M 191 3500 
L 800 3500 
L 1894 563 
L 2988 3500 
L 3597 3500 
L 2284 0 
L 1503 0 
L 191 3500 
z
" transform="scale(0.015625)"/>
      <path id="DejaVuSans-65" d="M 3597 1894 
L 3597 1613 
L 953 1613 
Q 991 1019 1311 708 
Q 1631 397 2203 397 
Q 2534 397 2845 478 
Q 3156 559 3463 722 
L 3463 178 
Q 3153 47 2828 -22 
Q 2503 -91 2169 -91 
Q 1331 -91 842 396 
Q 353 884 353 1716 
Q 353 2575 817 3079 
Q 1281 3584 2069 3584 
Q 2775 3584 3186 3129 
Q 3597 2675 3597 1894 
z
M 3022 2063 
Q 3016 2534 2758 2815 
Q 2500 3097 2075 3097 
Q 1594 3097 1305 2825 
Q 1016 2553 972 2059 
L 3022 2063 
z
" transform="scale(0.015625)"/>
      <path id="DejaVuSans-6a" d="M 603 3500 
L 1178 3500 
L 1178 -63 
Q 1178 -731 923 -1031 
Q 669 -1331 103 -1331 
L -116 -1331 
L -116 -844 
L 38 -844 
Q 366 -844 484 -692 
Q 603 -541 603 -63 
L 603 3500 
z
M 603 4863 
L 1178 4863 
L 1178 4134 
L 603 4134 
L 603 4863 
z
" transform="scale(0.015625)"/>
      <path id="DejaVuSans-63" d="M 3122 3366 
L 3122 2828 
Q 2878 2963 2633 3030 
Q 2388 3097 2138 3097 
Q 1578 3097 1268 2742 
Q 959 2388 959 1747 
Q 959 1106 1268 751 
Q 1578 397 2138 397 
Q 2388 397 2633 464 
Q 2878 531 3122 666 
L 3122 134 
Q 2881 22 2623 -34 
Q 2366 -91 2075 -91 
Q 1284 -91 818 406 
Q 353 903 353 1747 
Q 353 2603 823 3093 
Q 1294 3584 2113 3584 
Q 2378 3584 2631 3529 
Q 2884 3475 3122 3366 
z
" transform="scale(0.015625)"/>
     </defs>
     <use xlink:href="#DejaVuSans-31"/>
     <use xlink:href="#DejaVuSans-66" x="63.623047"/>
     <use xlink:href="#DejaVuSans-69" x="98.828125"/>
     <use xlink:href="#DejaVuSans-6e" x="126.611328"/>
     <use xlink:href="#DejaVuSans-61" x="189.990234"/>
     <use xlink:href="#DejaVuSans-6c" x="251.269531"/>
     <use xlink:href="#DejaVuSans-5f" x="279.052734"/>
     <use xlink:href="#DejaVuSans-6e" x="329.052734"/>
     <use xlink:href="#DejaVuSans-61" x="392.431641"/>
     <use xlink:href="#DejaVuSans-69" x="453.710938"/>
     <use xlink:href="#DejaVuSans-76" x="481.494141"/>
     <use xlink:href="#DejaVuSans-65" x="540.673828"/>
     <use xlink:href="#DejaVuSans-5f" x="602.197266"/>
     <use xlink:href="#DejaVuSans-6a" x="652.197266"/>
     <use xlink:href="#DejaVuSans-63" x="679.980469"/>
     <use xlink:href="#DejaVuSans-5f" x="734.960938"/>
     <use xlink:href="#DejaVuSans-63" x="784.960938"/>
     <use xlink:href="#DejaVuSans-63" x="839.941406"/>
     <use xlink:href="#DejaVuSans-69" x="894.921875"/>
    </g>
   </g>
   <g id="legend_1">
    <g id="patch_7">
     <path d="M 64.6 93.506375 
L 258.804688 93.506375 
Q 260.804688 93.506375 260.804688 91.506375 
L 260.804688 48.472 
Q 260.804688 46.472 258.804688 46.472 
L 64.6 46.472 
Q 62.6 46.472 62.6 48.472 
L 62.6 91.506375 
Q 62.6 93.506375 64.6 93.506375 
z
" style="fill: #ffffff; opacity: 0.8; stroke: #cccccc; stroke-linejoin: miter"/>
    </g>
    <g id="line2d_13">
     <path d="M 66.6 54.570438 
L 76.6 54.570438 
L 86.6 54.570438 
" style="fill: none; stroke: #1f77b4; stroke-opacity: 0.7; stroke-width: 1.5; stroke-linecap: square"/>
    </g>
    <g id="text_11">
     <!-- Positive cumulative predictions -->
     <g transform="translate(94.6 58.070438) scale(0.1 -0.1)">
      <defs>
       <path id="DejaVuSans-50" d="M 1259 4147 
L 1259 2394 
L 2053 2394 
Q 2494 2394 2734 2622 
Q 2975 2850 2975 3272 
Q 2975 3691 2734 3919 
Q 2494 4147 2053 4147 
L 1259 4147 
z
M 628 4666 
L 2053 4666 
Q 2838 4666 3239 4311 
Q 3641 3956 3641 3272 
Q 3641 2581 3239 2228 
Q 2838 1875 2053 1875 
L 1259 1875 
L 1259 0 
L 628 0 
L 628 4666 
z
" transform="scale(0.015625)"/>
       <path id="DejaVuSans-6f" d="M 1959 3097 
Q 1497 3097 1228 2736 
Q 959 2375 959 1747 
Q 959 1119 1226 758 
Q 1494 397 1959 397 
Q 2419 397 2687 759 
Q 2956 1122 2956 1747 
Q 2956 2369 2687 2733 
Q 2419 3097 1959 3097 
z
M 1959 3584 
Q 2709 3584 3137 3096 
Q 3566 2609 3566 1747 
Q 3566 888 3137 398 
Q 2709 -91 1959 -91 
Q 1206 -91 779 398 
Q 353 888 353 1747 
Q 353 2609 779 3096 
Q 1206 3584 1959 3584 
z
" transform="scale(0.015625)"/>
       <path id="DejaVuSans-73" d="M 2834 3397 
L 2834 2853 
Q 2591 2978 2328 3040 
Q 2066 3103 1784 3103 
Q 1356 3103 1142 2972 
Q 928 2841 928 2578 
Q 928 2378 1081 2264 
Q 1234 2150 1697 2047 
L 1894 2003 
Q 2506 1872 2764 1633 
Q 3022 1394 3022 966 
Q 3022 478 2636 193 
Q 2250 -91 1575 -91 
Q 1294 -91 989 -36 
Q 684 19 347 128 
L 347 722 
Q 666 556 975 473 
Q 1284 391 1588 391 
Q 1994 391 2212 530 
Q 2431 669 2431 922 
Q 2431 1156 2273 1281 
Q 2116 1406 1581 1522 
L 1381 1569 
Q 847 1681 609 1914 
Q 372 2147 372 2553 
Q 372 3047 722 3315 
Q 1072 3584 1716 3584 
Q 2034 3584 2315 3537 
Q 2597 3491 2834 3397 
z
" transform="scale(0.015625)"/>
       <path id="DejaVuSans-74" d="M 1172 4494 
L 1172 3500 
L 2356 3500 
L 2356 3053 
L 1172 3053 
L 1172 1153 
Q 1172 725 1289 603 
Q 1406 481 1766 481 
L 2356 481 
L 2356 0 
L 1766 0 
Q 1100 0 847 248 
Q 594 497 594 1153 
L 594 3053 
L 172 3053 
L 172 3500 
L 594 3500 
L 594 4494 
L 1172 4494 
z
" transform="scale(0.015625)"/>
       <path id="DejaVuSans-20" transform="scale(0.015625)"/>
       <path id="DejaVuSans-75" d="M 544 1381 
L 544 3500 
L 1119 3500 
L 1119 1403 
Q 1119 906 1312 657 
Q 1506 409 1894 409 
Q 2359 409 2629 706 
Q 2900 1003 2900 1516 
L 2900 3500 
L 3475 3500 
L 3475 0 
L 2900 0 
L 2900 538 
Q 2691 219 2414 64 
Q 2138 -91 1772 -91 
Q 1169 -91 856 284 
Q 544 659 544 1381 
z
M 1991 3584 
L 1991 3584 
z
" transform="scale(0.015625)"/>
       <path id="DejaVuSans-6d" d="M 3328 2828 
Q 3544 3216 3844 3400 
Q 4144 3584 4550 3584 
Q 5097 3584 5394 3201 
Q 5691 2819 5691 2113 
L 5691 0 
L 5113 0 
L 5113 2094 
Q 5113 2597 4934 2840 
Q 4756 3084 4391 3084 
Q 3944 3084 3684 2787 
Q 3425 2491 3425 1978 
L 3425 0 
L 2847 0 
L 2847 2094 
Q 2847 2600 2669 2842 
Q 2491 3084 2119 3084 
Q 1678 3084 1418 2786 
Q 1159 2488 1159 1978 
L 1159 0 
L 581 0 
L 581 3500 
L 1159 3500 
L 1159 2956 
Q 1356 3278 1631 3431 
Q 1906 3584 2284 3584 
Q 2666 3584 2933 3390 
Q 3200 3197 3328 2828 
z
" transform="scale(0.015625)"/>
       <path id="DejaVuSans-70" d="M 1159 525 
L 1159 -1331 
L 581 -1331 
L 581 3500 
L 1159 3500 
L 1159 2969 
Q 1341 3281 1617 3432 
Q 1894 3584 2278 3584 
Q 2916 3584 3314 3078 
Q 3713 2572 3713 1747 
Q 3713 922 3314 415 
Q 2916 -91 2278 -91 
Q 1894 -91 1617 61 
Q 1341 213 1159 525 
z
M 3116 1747 
Q 3116 2381 2855 2742 
Q 2594 3103 2138 3103 
Q 1681 3103 1420 2742 
Q 1159 2381 1159 1747 
Q 1159 1113 1420 752 
Q 1681 391 2138 391 
Q 2594 391 2855 752 
Q 3116 1113 3116 1747 
z
" transform="scale(0.015625)"/>
       <path id="DejaVuSans-72" d="M 2631 2963 
Q 2534 3019 2420 3045 
Q 2306 3072 2169 3072 
Q 1681 3072 1420 2755 
Q 1159 2438 1159 1844 
L 1159 0 
L 581 0 
L 581 3500 
L 1159 3500 
L 1159 2956 
Q 1341 3275 1631 3429 
Q 1922 3584 2338 3584 
Q 2397 3584 2469 3576 
Q 2541 3569 2628 3553 
L 2631 2963 
z
" transform="scale(0.015625)"/>
       <path id="DejaVuSans-64" d="M 2906 2969 
L 2906 4863 
L 3481 4863 
L 3481 0 
L 2906 0 
L 2906 525 
Q 2725 213 2448 61 
Q 2172 -91 1784 -91 
Q 1150 -91 751 415 
Q 353 922 353 1747 
Q 353 2572 751 3078 
Q 1150 3584 1784 3584 
Q 2172 3584 2448 3432 
Q 2725 3281 2906 2969 
z
M 947 1747 
Q 947 1113 1208 752 
Q 1469 391 1925 391 
Q 2381 391 2643 752 
Q 2906 1113 2906 1747 
Q 2906 2381 2643 2742 
Q 2381 3103 1925 3103 
Q 1469 3103 1208 2742 
Q 947 2381 947 1747 
z
" transform="scale(0.015625)"/>
      </defs>
      <use xlink:href="#DejaVuSans-50"/>
      <use xlink:href="#DejaVuSans-6f" x="56.677734"/>
      <use xlink:href="#DejaVuSans-73" x="117.859375"/>
      <use xlink:href="#DejaVuSans-69" x="169.958984"/>
      <use xlink:href="#DejaVuSans-74" x="197.742188"/>
      <use xlink:href="#DejaVuSans-69" x="236.951172"/>
      <use xlink:href="#DejaVuSans-76" x="264.734375"/>
      <use xlink:href="#DejaVuSans-65" x="323.914062"/>
      <use xlink:href="#DejaVuSans-20" x="385.4375"/>
      <use xlink:href="#DejaVuSans-63" x="417.224609"/>
      <use xlink:href="#DejaVuSans-75" x="472.205078"/>
      <use xlink:href="#DejaVuSans-6d" x="535.583984"/>
      <use xlink:href="#DejaVuSans-75" x="632.996094"/>
      <use xlink:href="#DejaVuSans-6c" x="696.375"/>
      <use xlink:href="#DejaVuSans-61" x="724.158203"/>
      <use xlink:href="#DejaVuSans-74" x="785.4375"/>
      <use xlink:href="#DejaVuSans-69" x="824.646484"/>
      <use xlink:href="#DejaVuSans-76" x="852.429688"/>
      <use xlink:href="#DejaVuSans-65" x="911.609375"/>
      <use xlink:href="#DejaVuSans-20" x="973.132812"/>
      <use xlink:href="#DejaVuSans-70" x="1004.919922"/>
      <use xlink:href="#DejaVuSans-72" x="1068.396484"/>
      <use xlink:href="#DejaVuSans-65" x="1107.259766"/>
      <use xlink:href="#DejaVuSans-64" x="1168.783203"/>
      <use xlink:href="#DejaVuSans-69" x="1232.259766"/>
      <use xlink:href="#DejaVuSans-63" x="1260.042969"/>
      <use xlink:href="#DejaVuSans-74" x="1315.023438"/>
      <use xlink:href="#DejaVuSans-69" x="1354.232422"/>
      <use xlink:href="#DejaVuSans-6f" x="1382.015625"/>
      <use xlink:href="#DejaVuSans-6e" x="1443.197266"/>
      <use xlink:href="#DejaVuSans-73" x="1506.576172"/>
     </g>
    </g>
    <g id="line2d_14">
     <path d="M 66.6 69.248563 
L 76.6 69.248563 
L 86.6 69.248563 
" style="fill: none; stroke: #ff7f0e; stroke-opacity: 0.7; stroke-width: 1.5; stroke-linecap: square"/>
    </g>
    <g id="text_12">
     <!-- Negative cumulative predictions -->
     <g transform="translate(94.6 72.748563) scale(0.1 -0.1)">
      <defs>
       <path id="DejaVuSans-4e" d="M 628 4666 
L 1478 4666 
L 3547 763 
L 3547 4666 
L 4159 4666 
L 4159 0 
L 3309 0 
L 1241 3903 
L 1241 0 
L 628 0 
L 628 4666 
z
" transform="scale(0.015625)"/>
       <path id="DejaVuSans-67" d="M 2906 1791 
Q 2906 2416 2648 2759 
Q 2391 3103 1925 3103 
Q 1463 3103 1205 2759 
Q 947 2416 947 1791 
Q 947 1169 1205 825 
Q 1463 481 1925 481 
Q 2391 481 2648 825 
Q 2906 1169 2906 1791 
z
M 3481 434 
Q 3481 -459 3084 -895 
Q 2688 -1331 1869 -1331 
Q 1566 -1331 1297 -1286 
Q 1028 -1241 775 -1147 
L 775 -588 
Q 1028 -725 1275 -790 
Q 1522 -856 1778 -856 
Q 2344 -856 2625 -561 
Q 2906 -266 2906 331 
L 2906 616 
Q 2728 306 2450 153 
Q 2172 0 1784 0 
Q 1141 0 747 490 
Q 353 981 353 1791 
Q 353 2603 747 3093 
Q 1141 3584 1784 3584 
Q 2172 3584 2450 3431 
Q 2728 3278 2906 2969 
L 2906 3500 
L 3481 3500 
L 3481 434 
z
" transform="scale(0.015625)"/>
      </defs>
      <use xlink:href="#DejaVuSans-4e"/>
      <use xlink:href="#DejaVuSans-65" x="74.804688"/>
      <use xlink:href="#DejaVuSans-67" x="136.328125"/>
      <use xlink:href="#DejaVuSans-61" x="199.804688"/>
      <use xlink:href="#DejaVuSans-74" x="261.083984"/>
      <use xlink:href="#DejaVuSans-69" x="300.292969"/>
      <use xlink:href="#DejaVuSans-76" x="328.076172"/>
      <use xlink:href="#DejaVuSans-65" x="387.255859"/>
      <use xlink:href="#DejaVuSans-20" x="448.779297"/>
      <use xlink:href="#DejaVuSans-63" x="480.566406"/>
      <use xlink:href="#DejaVuSans-75" x="535.546875"/>
      <use xlink:href="#DejaVuSans-6d" x="598.925781"/>
      <use xlink:href="#DejaVuSans-75" x="696.337891"/>
      <use xlink:href="#DejaVuSans-6c" x="759.716797"/>
      <use xlink:href="#DejaVuSans-61" x="787.5"/>
      <use xlink:href="#DejaVuSans-74" x="848.779297"/>
      <use xlink:href="#DejaVuSans-69" x="887.988281"/>
      <use xlink:href="#DejaVuSans-76" x="915.771484"/>
      <use xlink:href="#DejaVuSans-65" x="974.951172"/>
      <use xlink:href="#DejaVuSans-20" x="1036.474609"/>
      <use xlink:href="#DejaVuSans-70" x="1068.261719"/>
      <use xlink:href="#DejaVuSans-72" x="1131.738281"/>
      <use xlink:href="#DejaVuSans-65" x="1170.601562"/>
      <use xlink:href="#DejaVuSans-64" x="1232.125"/>
      <use xlink:href="#DejaVuSans-69" x="1295.601562"/>
      <use xlink:href="#DejaVuSans-63" x="1323.384766"/>
      <use xlink:href="#DejaVuSans-74" x="1378.365234"/>
      <use xlink:href="#DejaVuSans-69" x="1417.574219"/>
      <use xlink:href="#DejaVuSans-6f" x="1445.357422"/>
      <use xlink:href="#DejaVuSans-6e" x="1506.539062"/>
      <use xlink:href="#DejaVuSans-73" x="1569.917969"/>
     </g>
    </g>
    <g id="line2d_15">
     <path d="M 66.6 83.926688 
L 76.6 83.926688 
L 86.6 83.926688 
" style="fill: none; stroke: #2ca02c; stroke-opacity: 0.7; stroke-width: 1.5; stroke-linecap: square"/>
    </g>
    <g id="text_13">
     <!-- Average cumulative predictions -->
     <g transform="translate(94.6 87.426688) scale(0.1 -0.1)">
      <defs>
       <path id="DejaVuSans-41" d="M 2188 4044 
L 1331 1722 
L 3047 1722 
L 2188 4044 
z
M 1831 4666 
L 2547 4666 
L 4325 0 
L 3669 0 
L 3244 1197 
L 1141 1197 
L 716 0 
L 50 0 
L 1831 4666 
z
" transform="scale(0.015625)"/>
      </defs>
      <use xlink:href="#DejaVuSans-41"/>
      <use xlink:href="#DejaVuSans-76" x="62.533203"/>
      <use xlink:href="#DejaVuSans-65" x="121.712891"/>
      <use xlink:href="#DejaVuSans-72" x="183.236328"/>
      <use xlink:href="#DejaVuSans-61" x="224.349609"/>
      <use xlink:href="#DejaVuSans-67" x="285.628906"/>
      <use xlink:href="#DejaVuSans-65" x="349.105469"/>
      <use xlink:href="#DejaVuSans-20" x="410.628906"/>
      <use xlink:href="#DejaVuSans-63" x="442.416016"/>
      <use xlink:href="#DejaVuSans-75" x="497.396484"/>
      <use xlink:href="#DejaVuSans-6d" x="560.775391"/>
      <use xlink:href="#DejaVuSans-75" x="658.1875"/>
      <use xlink:href="#DejaVuSans-6c" x="721.566406"/>
      <use xlink:href="#DejaVuSans-61" x="749.349609"/>
      <use xlink:href="#DejaVuSans-74" x="810.628906"/>
      <use xlink:href="#DejaVuSans-69" x="849.837891"/>
      <use xlink:href="#DejaVuSans-76" x="877.621094"/>
      <use xlink:href="#DejaVuSans-65" x="936.800781"/>
      <use xlink:href="#DejaVuSans-20" x="998.324219"/>
      <use xlink:href="#DejaVuSans-70" x="1030.111328"/>
      <use xlink:href="#DejaVuSans-72" x="1093.587891"/>
      <use xlink:href="#DejaVuSans-65" x="1132.451172"/>
      <use xlink:href="#DejaVuSans-64" x="1193.974609"/>
      <use xlink:href="#DejaVuSans-69" x="1257.451172"/>
      <use xlink:href="#DejaVuSans-63" x="1285.234375"/>
      <use xlink:href="#DejaVuSans-74" x="1340.214844"/>
      <use xlink:href="#DejaVuSans-69" x="1379.423828"/>
      <use xlink:href="#DejaVuSans-6f" x="1407.207031"/>
      <use xlink:href="#DejaVuSans-6e" x="1468.388672"/>
      <use xlink:href="#DejaVuSans-73" x="1531.767578"/>
     </g>
    </g>
   </g>
  </g>
 </g>
 <defs>
  <clipPath id="pc106f60d7d">
   <rect x="57.6" y="41.472" width="357.12" height="266.112"/>
  </clipPath>
 </defs>
</svg>
