<?xml version="1.0" encoding="utf-8" standalone="no"?>
<!DOCTYPE svg PUBLIC "-//W3C//DTD SVG 1.1//EN"
  "http://www.w3.org/Graphics/SVG/1.1/DTD/svg11.dtd">
<svg xmlns:xlink="http://www.w3.org/1999/xlink" width="460.8pt" height="345.6pt" viewBox="0 0 460.8 345.6" xmlns="http://www.w3.org/2000/svg" version="1.1">
 <metadata>
  <rdf:RDF xmlns:dc="http://purl.org/dc/elements/1.1/" xmlns:cc="http://creativecommons.org/ns#" xmlns:rdf="http://www.w3.org/1999/02/22-rdf-syntax-ns#">
   <cc:Work>
    <dc:type rdf:resource="http://purl.org/dc/dcmitype/StillImage"/>
    <dc:date>2024-09-08T13:31:54.577177</dc:date>
    <dc:format>image/svg+xml</dc:format>
    <dc:creator>
     <cc:Agent>
      <dc:title>Matplotlib v3.8.3, https://matplotlib.org/</dc:title>
     </cc:Agent>
    </dc:creator>
   </cc:Work>
  </rdf:RDF>
 </metadata>
 <defs>
  <style type="text/css">*{stroke-linejoin: round; stroke-linecap: butt}</style>
 </defs>
 <g id="figure_1">
  <g id="patch_1">
   <path d="M 0 345.6 
L 460.8 345.6 
L 460.8 0 
L 0 0 
z
" style="fill: #ffffff"/>
  </g>
  <g id="axes_1">
   <g id="patch_2">
    <path d="M 57.6 307.584 
L 414.72 307.584 
L 414.72 41.472 
L 57.6 41.472 
z
" style="fill: #ffffff"/>
   </g>
   <g id="matplotlib.axis_1">
    <g id="xtick_1">
     <g id="line2d_1">
      <defs>
       <path id="ma7c1056330" d="M 0 0 
L 0 3.5 
" style="stroke: #000000; stroke-width: 0.8"/>
      </defs>
      <g>
       <use xlink:href="#ma7c1056330" x="73.832727" y="307.584" style="stroke: #000000; stroke-width: 0.8"/>
      </g>
     </g>
     <g id="text_1">
      <!-- 0 -->
      <g transform="translate(70.651477 322.182437) scale(0.1 -0.1)">
       <defs>
        <path id="DejaVuSans-30" d="M 2034 4250 
Q 1547 4250 1301 3770 
Q 1056 3291 1056 2328 
Q 1056 1369 1301 889 
Q 1547 409 2034 409 
Q 2525 409 2770 889 
Q 3016 1369 3016 2328 
Q 3016 3291 2770 3770 
Q 2525 4250 2034 4250 
z
M 2034 4750 
Q 2819 4750 3233 4129 
Q 3647 3509 3647 2328 
Q 3647 1150 3233 529 
Q 2819 -91 2034 -91 
Q 1250 -91 836 529 
Q 422 1150 422 2328 
Q 422 3509 836 4129 
Q 1250 4750 2034 4750 
z
" transform="scale(0.015625)"/>
       </defs>
       <use xlink:href="#DejaVuSans-30"/>
      </g>
     </g>
    </g>
    <g id="xtick_2">
     <g id="line2d_2">
      <g>
       <use xlink:href="#ma7c1056330" x="118.003414" y="307.584" style="stroke: #000000; stroke-width: 0.8"/>
      </g>
     </g>
     <g id="text_2">
      <!-- 20 -->
      <g transform="translate(111.640914 322.182437) scale(0.1 -0.1)">
       <defs>
        <path id="DejaVuSans-32" d="M 1228 531 
L 3431 531 
L 3431 0 
L 469 0 
L 469 531 
Q 828 903 1448 1529 
Q 2069 2156 2228 2338 
Q 2531 2678 2651 2914 
Q 2772 3150 2772 3378 
Q 2772 3750 2511 3984 
Q 2250 4219 1831 4219 
Q 1534 4219 1204 4116 
Q 875 4013 500 3803 
L 500 4441 
Q 881 4594 1212 4672 
Q 1544 4750 1819 4750 
Q 2544 4750 2975 4387 
Q 3406 4025 3406 3419 
Q 3406 3131 3298 2873 
Q 3191 2616 2906 2266 
Q 2828 2175 2409 1742 
Q 1991 1309 1228 531 
z
" transform="scale(0.015625)"/>
       </defs>
       <use xlink:href="#DejaVuSans-32"/>
       <use xlink:href="#DejaVuSans-30" x="63.623047"/>
      </g>
     </g>
    </g>
    <g id="xtick_3">
     <g id="line2d_3">
      <g>
       <use xlink:href="#ma7c1056330" x="162.1741" y="307.584" style="stroke: #000000; stroke-width: 0.8"/>
      </g>
     </g>
     <g id="text_3">
      <!-- 40 -->
      <g transform="translate(155.8116 322.182437) scale(0.1 -0.1)">
       <defs>
        <path id="DejaVuSans-34" d="M 2419 4116 
L 825 1625 
L 2419 1625 
L 2419 4116 
z
M 2253 4666 
L 3047 4666 
L 3047 1625 
L 3713 1625 
L 3713 1100 
L 3047 1100 
L 3047 0 
L 2419 0 
L 2419 1100 
L 313 1100 
L 313 1709 
L 2253 4666 
z
" transform="scale(0.015625)"/>
       </defs>
       <use xlink:href="#DejaVuSans-34"/>
       <use xlink:href="#DejaVuSans-30" x="63.623047"/>
      </g>
     </g>
    </g>
    <g id="xtick_4">
     <g id="line2d_4">
      <g>
       <use xlink:href="#ma7c1056330" x="206.344787" y="307.584" style="stroke: #000000; stroke-width: 0.8"/>
      </g>
     </g>
     <g id="text_4">
      <!-- 60 -->
      <g transform="translate(199.982287 322.182437) scale(0.1 -0.1)">
       <defs>
        <path id="DejaVuSans-36" d="M 2113 2584 
Q 1688 2584 1439 2293 
Q 1191 2003 1191 1497 
Q 1191 994 1439 701 
Q 1688 409 2113 409 
Q 2538 409 2786 701 
Q 3034 994 3034 1497 
Q 3034 2003 2786 2293 
Q 2538 2584 2113 2584 
z
M 3366 4563 
L 3366 3988 
Q 3128 4100 2886 4159 
Q 2644 4219 2406 4219 
Q 1781 4219 1451 3797 
Q 1122 3375 1075 2522 
Q 1259 2794 1537 2939 
Q 1816 3084 2150 3084 
Q 2853 3084 3261 2657 
Q 3669 2231 3669 1497 
Q 3669 778 3244 343 
Q 2819 -91 2113 -91 
Q 1303 -91 875 529 
Q 447 1150 447 2328 
Q 447 3434 972 4092 
Q 1497 4750 2381 4750 
Q 2619 4750 2861 4703 
Q 3103 4656 3366 4563 
z
" transform="scale(0.015625)"/>
       </defs>
       <use xlink:href="#DejaVuSans-36"/>
       <use xlink:href="#DejaVuSans-30" x="63.623047"/>
      </g>
     </g>
    </g>
    <g id="xtick_5">
     <g id="line2d_5">
      <g>
       <use xlink:href="#ma7c1056330" x="250.515473" y="307.584" style="stroke: #000000; stroke-width: 0.8"/>
      </g>
     </g>
     <g id="text_5">
      <!-- 80 -->
      <g transform="translate(244.152973 322.182437) scale(0.1 -0.1)">
       <defs>
        <path id="DejaVuSans-38" d="M 2034 2216 
Q 1584 2216 1326 1975 
Q 1069 1734 1069 1313 
Q 1069 891 1326 650 
Q 1584 409 2034 409 
Q 2484 409 2743 651 
Q 3003 894 3003 1313 
Q 3003 1734 2745 1975 
Q 2488 2216 2034 2216 
z
M 1403 2484 
Q 997 2584 770 2862 
Q 544 3141 544 3541 
Q 544 4100 942 4425 
Q 1341 4750 2034 4750 
Q 2731 4750 3128 4425 
Q 3525 4100 3525 3541 
Q 3525 3141 3298 2862 
Q 3072 2584 2669 2484 
Q 3125 2378 3379 2068 
Q 3634 1759 3634 1313 
Q 3634 634 3220 271 
Q 2806 -91 2034 -91 
Q 1263 -91 848 271 
Q 434 634 434 1313 
Q 434 1759 690 2068 
Q 947 2378 1403 2484 
z
M 1172 3481 
Q 1172 3119 1398 2916 
Q 1625 2713 2034 2713 
Q 2441 2713 2670 2916 
Q 2900 3119 2900 3481 
Q 2900 3844 2670 4047 
Q 2441 4250 2034 4250 
Q 1625 4250 1398 4047 
Q 1172 3844 1172 3481 
z
" transform="scale(0.015625)"/>
       </defs>
       <use xlink:href="#DejaVuSans-38"/>
       <use xlink:href="#DejaVuSans-30" x="63.623047"/>
      </g>
     </g>
    </g>
    <g id="xtick_6">
     <g id="line2d_6">
      <g>
       <use xlink:href="#ma7c1056330" x="294.68616" y="307.584" style="stroke: #000000; stroke-width: 0.8"/>
      </g>
     </g>
     <g id="text_6">
      <!-- 100 -->
      <g transform="translate(285.14241 322.182437) scale(0.1 -0.1)">
       <defs>
        <path id="DejaVuSans-31" d="M 794 531 
L 1825 531 
L 1825 4091 
L 703 3866 
L 703 4441 
L 1819 4666 
L 2450 4666 
L 2450 531 
L 3481 531 
L 3481 0 
L 794 0 
L 794 531 
z
" transform="scale(0.015625)"/>
       </defs>
       <use xlink:href="#DejaVuSans-31"/>
       <use xlink:href="#DejaVuSans-30" x="63.623047"/>
       <use xlink:href="#DejaVuSans-30" x="127.246094"/>
      </g>
     </g>
    </g>
    <g id="xtick_7">
     <g id="line2d_7">
      <g>
       <use xlink:href="#ma7c1056330" x="338.856846" y="307.584" style="stroke: #000000; stroke-width: 0.8"/>
      </g>
     </g>
     <g id="text_7">
      <!-- 120 -->
      <g transform="translate(329.313096 322.182437) scale(0.1 -0.1)">
       <use xlink:href="#DejaVuSans-31"/>
       <use xlink:href="#DejaVuSans-32" x="63.623047"/>
       <use xlink:href="#DejaVuSans-30" x="127.246094"/>
      </g>
     </g>
    </g>
    <g id="xtick_8">
     <g id="line2d_8">
      <g>
       <use xlink:href="#ma7c1056330" x="383.027532" y="307.584" style="stroke: #000000; stroke-width: 0.8"/>
      </g>
     </g>
     <g id="text_8">
      <!-- 140 -->
      <g transform="translate(373.483782 322.182437) scale(0.1 -0.1)">
       <use xlink:href="#DejaVuSans-31"/>
       <use xlink:href="#DejaVuSans-34" x="63.623047"/>
       <use xlink:href="#DejaVuSans-30" x="127.246094"/>
      </g>
     </g>
    </g>
   </g>
   <g id="matplotlib.axis_2">
    <g id="ytick_1">
     <g id="line2d_9">
      <defs>
       <path id="m67ac352ea7" d="M 0 0 
L -3.5 0 
" style="stroke: #000000; stroke-width: 0.8"/>
      </defs>
      <g>
       <use xlink:href="#m67ac352ea7" x="57.6" y="285.335087" style="stroke: #000000; stroke-width: 0.8"/>
      </g>
     </g>
     <g id="text_9">
      <!-- −400 -->
      <g transform="translate(23.132812 289.134306) scale(0.1 -0.1)">
       <defs>
        <path id="DejaVuSans-2212" d="M 678 2272 
L 4684 2272 
L 4684 1741 
L 678 1741 
L 678 2272 
z
" transform="scale(0.015625)"/>
       </defs>
       <use xlink:href="#DejaVuSans-2212"/>
       <use xlink:href="#DejaVuSans-34" x="83.789062"/>
       <use xlink:href="#DejaVuSans-30" x="147.412109"/>
       <use xlink:href="#DejaVuSans-30" x="211.035156"/>
      </g>
     </g>
    </g>
    <g id="ytick_2">
     <g id="line2d_10">
      <g>
       <use xlink:href="#m67ac352ea7" x="57.6" y="252.767782" style="stroke: #000000; stroke-width: 0.8"/>
      </g>
     </g>
     <g id="text_10">
      <!-- −300 -->
      <g transform="translate(23.132812 256.567001) scale(0.1 -0.1)">
       <defs>
        <path id="DejaVuSans-33" d="M 2597 2516 
Q 3050 2419 3304 2112 
Q 3559 1806 3559 1356 
Q 3559 666 3084 287 
Q 2609 -91 1734 -91 
Q 1441 -91 1130 -33 
Q 819 25 488 141 
L 488 750 
Q 750 597 1062 519 
Q 1375 441 1716 441 
Q 2309 441 2620 675 
Q 2931 909 2931 1356 
Q 2931 1769 2642 2001 
Q 2353 2234 1838 2234 
L 1294 2234 
L 1294 2753 
L 1863 2753 
Q 2328 2753 2575 2939 
Q 2822 3125 2822 3475 
Q 2822 3834 2567 4026 
Q 2313 4219 1838 4219 
Q 1578 4219 1281 4162 
Q 984 4106 628 3988 
L 628 4550 
Q 988 4650 1302 4700 
Q 1616 4750 1894 4750 
Q 2613 4750 3031 4423 
Q 3450 4097 3450 3541 
Q 3450 3153 3228 2886 
Q 3006 2619 2597 2516 
z
" transform="scale(0.015625)"/>
       </defs>
       <use xlink:href="#DejaVuSans-2212"/>
       <use xlink:href="#DejaVuSans-33" x="83.789062"/>
       <use xlink:href="#DejaVuSans-30" x="147.412109"/>
       <use xlink:href="#DejaVuSans-30" x="211.035156"/>
      </g>
     </g>
    </g>
    <g id="ytick_3">
     <g id="line2d_11">
      <g>
       <use xlink:href="#m67ac352ea7" x="57.6" y="220.200477" style="stroke: #000000; stroke-width: 0.8"/>
      </g>
     </g>
     <g id="text_11">
      <!-- −200 -->
      <g transform="translate(23.132812 223.999696) scale(0.1 -0.1)">
       <use xlink:href="#DejaVuSans-2212"/>
       <use xlink:href="#DejaVuSans-32" x="83.789062"/>
       <use xlink:href="#DejaVuSans-30" x="147.412109"/>
       <use xlink:href="#DejaVuSans-30" x="211.035156"/>
      </g>
     </g>
    </g>
    <g id="ytick_4">
     <g id="line2d_12">
      <g>
       <use xlink:href="#m67ac352ea7" x="57.6" y="187.633172" style="stroke: #000000; stroke-width: 0.8"/>
      </g>
     </g>
     <g id="text_12">
      <!-- −100 -->
      <g transform="translate(23.132812 191.432391) scale(0.1 -0.1)">
       <use xlink:href="#DejaVuSans-2212"/>
       <use xlink:href="#DejaVuSans-31" x="83.789062"/>
       <use xlink:href="#DejaVuSans-30" x="147.412109"/>
       <use xlink:href="#DejaVuSans-30" x="211.035156"/>
      </g>
     </g>
    </g>
    <g id="ytick_5">
     <g id="line2d_13">
      <g>
       <use xlink:href="#m67ac352ea7" x="57.6" y="155.065867" style="stroke: #000000; stroke-width: 0.8"/>
      </g>
     </g>
     <g id="text_13">
      <!-- 0 -->
      <g transform="translate(44.2375 158.865085) scale(0.1 -0.1)">
       <use xlink:href="#DejaVuSans-30"/>
      </g>
     </g>
    </g>
    <g id="ytick_6">
     <g id="line2d_14">
      <g>
       <use xlink:href="#m67ac352ea7" x="57.6" y="122.498562" style="stroke: #000000; stroke-width: 0.8"/>
      </g>
     </g>
     <g id="text_14">
      <!-- 100 -->
      <g transform="translate(31.5125 126.29778) scale(0.1 -0.1)">
       <use xlink:href="#DejaVuSans-31"/>
       <use xlink:href="#DejaVuSans-30" x="63.623047"/>
       <use xlink:href="#DejaVuSans-30" x="127.246094"/>
      </g>
     </g>
    </g>
    <g id="ytick_7">
     <g id="line2d_15">
      <g>
       <use xlink:href="#m67ac352ea7" x="57.6" y="89.931257" style="stroke: #000000; stroke-width: 0.8"/>
      </g>
     </g>
     <g id="text_15">
      <!-- 200 -->
      <g transform="translate(31.5125 93.730475) scale(0.1 -0.1)">
       <use xlink:href="#DejaVuSans-32"/>
       <use xlink:href="#DejaVuSans-30" x="63.623047"/>
       <use xlink:href="#DejaVuSans-30" x="127.246094"/>
      </g>
     </g>
    </g>
    <g id="ytick_8">
     <g id="line2d_16">
      <g>
       <use xlink:href="#m67ac352ea7" x="57.6" y="57.363952" style="stroke: #000000; stroke-width: 0.8"/>
      </g>
     </g>
     <g id="text_16">
      <!-- 300 -->
      <g transform="translate(31.5125 61.16317) scale(0.1 -0.1)">
       <use xlink:href="#DejaVuSans-33"/>
       <use xlink:href="#DejaVuSans-30" x="63.623047"/>
       <use xlink:href="#DejaVuSans-30" x="127.246094"/>
      </g>
     </g>
    </g>
   </g>
   <g id="line2d_17">
    <path d="M 73.832727 156.032673 
L 76.041262 156.750746 
L 78.249796 154.346021 
L 80.45833 157.519647 
L 82.666865 156.439839 
L 84.875399 156.989981 
L 87.083933 154.480325 
L 89.292468 156.870272 
L 91.501002 154.362004 
L 93.709536 157.011301 
L 95.918071 154.795563 
L 98.126605 156.461486 
L 100.335139 155.458381 
L 102.543673 155.361302 
L 104.752208 155.843237 
L 106.960742 155.669371 
L 109.169276 155.684895 
L 111.377811 153.756352 
L 113.586345 156.795192 
L 115.794879 159.362211 
L 118.003414 152.942799 
L 120.211948 158.416358 
L 122.420482 157.013788 
L 124.629017 155.214846 
L 126.837551 158.080577 
L 129.046085 155.598422 
L 131.25462 156.636902 
L 133.463154 154.197958 
L 135.671688 156.512205 
L 137.880223 155.408773 
L 140.088757 153.927267 
L 142.297291 155.249612 
L 144.505826 159.209044 
L 146.71436 156.148747 
L 148.922894 155.572523 
L 151.131429 155.939636 
L 153.339963 152.536003 
L 155.548497 161.167508 
L 157.757032 154.571767 
L 159.965566 157.359848 
L 162.1741 153.82485 
L 164.382635 158.456262 
L 166.591169 155.422166 
L 168.799703 155.485456 
L 171.008237 156.331891 
L 173.216772 155.271541 
L 175.425306 156.926213 
L 177.63384 154.922321 
L 179.842375 153.210049 
L 182.050909 159.609609 
L 184.259443 150.102377 
L 186.467978 162.215144 
L 188.676512 158.350165 
L 190.885046 164.988743 
L 193.093581 159.057081 
L 195.302115 156.563835 
L 197.510649 158.691186 
L 199.719184 156.291043 
L 201.927718 155.781569 
L 204.136252 156.581436 
L 206.344787 156.08642 
L 208.553321 155.122994 
L 210.761855 155.687615 
L 212.97039 157.017305 
L 215.178924 152.645251 
L 217.387458 158.286095 
L 219.595993 158.576101 
L 221.804527 151.423798 
L 224.013061 161.201984 
L 226.221596 155.302374 
L 228.43013 157.012161 
L 230.638664 154.877448 
L 232.847199 157.830913 
L 235.055733 155.361678 
L 237.264267 157.840322 
L 239.472801 153.95764 
L 241.681336 156.319135 
L 243.88987 157.379463 
L 246.098404 157.551523 
L 248.306939 154.003419 
L 250.515473 155.532621 
L 252.724007 155.636458 
L 254.932542 157.290201 
L 257.141076 154.426659 
L 259.34961 157.419933 
L 261.558145 155.869262 
L 263.766679 158.400966 
L 265.975213 155.236448 
L 268.183748 154.565376 
L 270.392282 154.818178 
L 272.600816 159.262554 
L 274.809351 155.677184 
L 277.017885 158.821054 
L 279.226419 157.717244 
L 281.434954 154.482892 
L 283.643488 154.505704 
L 285.852022 153.211517 
L 288.060557 161.788816 
L 290.269091 151.30783 
L 292.477625 164.311674 
L 294.68616 152.713729 
L 296.894694 157.152232 
L 299.103228 162.28891 
L 301.311763 154.136126 
L 303.520297 155.674362 
L 305.728831 153.995449 
L 307.937365 159.395434 
L 310.1459 158.708349 
L 312.354434 146.441758 
L 314.562968 165.783796 
L 316.771503 157.046312 
L 318.980037 162.087993 
L 321.188571 160.241127 
L 323.397106 155.216504 
L 325.60564 156.930255 
L 327.814174 149.547821 
L 330.022709 160.876022 
L 332.231243 157.978872 
L 334.439777 157.351153 
L 336.648312 162.562143 
L 338.856846 158.247953 
L 341.06538 153.499479 
L 343.273915 159.451529 
L 345.482449 156.842286 
L 347.690983 162.020804 
L 349.899518 153.878396 
L 352.108052 155.082248 
L 354.316586 157.716594 
L 356.525121 155.735557 
L 360.942189 156.781082 
L 363.150724 154.204254 
L 365.359258 158.754568 
L 367.567792 157.662908 
L 369.776327 156.020951 
L 371.984861 157.93214 
L 374.193395 155.173734 
L 376.401929 154.121905 
L 378.610464 157.775633 
L 380.818998 154.90562 
L 383.027532 152.659573 
L 385.236067 158.928865 
L 387.444601 155.111844 
L 389.653135 161.46034 
L 391.86167 157.22215 
L 394.070204 155.986393 
L 396.278738 156.751067 
L 398.487273 154.174757 
L 398.487273 154.174757 
" clip-path="url(#pb22b03fa2b)" style="fill: none; stroke: #008000; stroke-opacity: 0.8; stroke-width: 0.5; stroke-linecap: square"/>
   </g>
   <g id="line2d_18">
    <path d="M 73.832727 139.622873 
L 76.041262 146.434139 
L 78.249796 134.387147 
L 80.45833 134.837971 
L 82.666865 145.519091 
L 84.875399 147.089623 
L 87.083933 147.897108 
L 89.292468 146.764464 
L 91.501002 149.915156 
L 93.709536 143.388545 
L 95.918071 146.588611 
L 98.126605 146.992922 
L 100.335139 146.50294 
L 102.543673 149.046004 
L 104.752208 148.825231 
L 106.960742 150.17634 
L 109.169276 125.927458 
L 111.377811 131.854236 
L 113.586345 142.576273 
L 115.794879 139.355618 
L 118.003414 122.481765 
L 120.211948 138.723863 
L 122.420482 133.938568 
L 124.629017 137.920628 
L 126.837551 145.904726 
L 129.046085 150.235653 
L 131.25462 149.441099 
L 133.463154 135.835641 
L 135.671688 147.640174 
L 137.880223 151.674536 
L 140.088757 137.819004 
L 142.297291 133.605257 
L 144.505826 145.311445 
L 146.71436 150.328408 
L 148.922894 147.394541 
L 151.131429 149.057831 
L 153.339963 134.370959 
L 155.548497 126.264858 
L 157.757032 130.810371 
L 159.965566 150.824495 
L 162.1741 143.358559 
L 164.382635 137.397538 
L 166.591169 150.814037 
L 168.799703 150.479116 
L 171.008237 150.960254 
L 173.216772 145.132751 
L 175.425306 153.214858 
L 177.63384 145.90636 
L 179.842375 141.678778 
L 182.050909 135.205304 
L 184.259443 126.517316 
L 186.467978 92.194324 
L 188.676512 54.297747 
L 190.885046 114.271971 
L 193.093581 125.880094 
L 195.302115 124.601219 
L 199.719184 144.674311 
L 201.927718 93.237745 
L 204.136252 127.338371 
L 206.344787 139.649334 
L 208.553321 138.993556 
L 210.761855 143.42148 
L 212.97039 148.260288 
L 215.178924 107.62365 
L 217.387458 131.811748 
L 219.595993 136.581532 
L 221.804527 132.775721 
L 224.013061 121.185115 
L 226.221596 138.916484 
L 228.43013 146.283654 
L 230.638664 144.504879 
L 232.847199 135.917593 
L 235.055733 143.999794 
L 237.264267 122.226576 
L 239.472801 148.126428 
L 241.681336 120.953526 
L 243.88987 134.969303 
L 246.098404 141.885502 
L 248.306939 143.961237 
L 250.515473 138.922237 
L 252.724007 130.938827 
L 254.932542 146.928886 
L 257.141076 146.768688 
L 259.34961 139.314929 
L 261.558145 141.728752 
L 263.766679 140.37798 
L 265.975213 144.217518 
L 268.183748 138.792246 
L 270.392282 148.208933 
L 272.600816 136.108894 
L 274.809351 126.894578 
L 277.017885 143.250737 
L 279.226419 144.433341 
L 281.434954 141.642892 
L 283.643488 118.59625 
L 285.852022 132.422896 
L 288.060557 147.162626 
L 290.269091 122.498445 
L 292.477625 143.170222 
L 294.68616 108.222824 
L 296.894694 120.838886 
L 299.103228 122.842045 
L 301.311763 128.813451 
L 303.520297 131.916791 
L 305.728831 99.602917 
L 310.1459 93.769997 
L 312.354434 124.528637 
L 314.562968 118.693887 
L 316.771503 137.334324 
L 318.980037 137.30106 
L 321.188571 142.734545 
L 323.397106 133.105609 
L 325.60564 102.820255 
L 327.814174 88.2823 
L 330.022709 127.153625 
L 332.231243 120.961114 
L 334.439777 123.910029 
L 336.648312 125.562071 
L 338.856846 134.231766 
L 341.06538 121.980914 
L 343.273915 133.903234 
L 345.482449 133.749025 
L 347.690983 135.296501 
L 349.899518 131.419919 
L 352.108052 133.937651 
L 354.316586 131.691058 
L 356.525121 127.693539 
L 358.733655 144.114446 
L 360.942189 133.037913 
L 363.150724 139.601936 
L 365.359258 137.876937 
L 367.567792 146.110539 
L 369.776327 142.247958 
L 371.984861 143.046065 
L 374.193395 140.989763 
L 376.401929 134.325163 
L 378.610464 136.79989 
L 380.818998 132.194161 
L 383.027532 133.952419 
L 385.236067 136.447788 
L 387.444601 135.234957 
L 389.653135 135.34978 
L 391.86167 142.677181 
L 394.070204 146.339315 
L 396.278738 144.230599 
L 398.487273 126.694067 
L 398.487273 126.694067 
" clip-path="url(#pb22b03fa2b)" style="fill: none; stroke: #32cd32; stroke-opacity: 0.8; stroke-width: 0.5; stroke-linecap: square"/>
   </g>
   <g id="line2d_19">
    <path d="M 73.832727 170.598483 
L 76.041262 170.36634 
L 78.249796 194.328591 
L 80.45833 170.949005 
L 82.666865 166.529234 
L 84.875399 168.604883 
L 87.083933 163.114286 
L 89.292468 172.359058 
L 91.501002 159.385885 
L 93.709536 164.390687 
L 95.918071 162.520363 
L 98.126605 164.930566 
L 100.335139 165.099536 
L 102.543673 161.807283 
L 104.752208 161.382292 
L 106.960742 161.676509 
L 109.169276 184.679916 
L 111.377811 185.333016 
L 113.586345 172.741798 
L 115.794879 173.239379 
L 118.003414 168.169104 
L 120.211948 211.980413 
L 122.420482 187.161511 
L 124.629017 165.881199 
L 126.837551 169.215006 
L 129.046085 164.705435 
L 131.25462 172.145934 
L 133.463154 165.485072 
L 135.671688 162.715162 
L 137.880223 162.934373 
L 140.088757 165.614934 
L 142.297291 170.008778 
L 144.505826 178.698815 
L 146.71436 163.93674 
L 148.922894 161.970133 
L 151.131429 163.412948 
L 153.339963 162.290565 
L 155.548497 182.663804 
L 157.757032 169.457183 
L 159.965566 167.239918 
L 162.1741 165.224929 
L 164.382635 177.076388 
L 166.591169 162.105372 
L 168.799703 164.266923 
L 171.008237 162.394253 
L 173.216772 168.592822 
L 175.425306 162.414187 
L 177.63384 162.832018 
L 179.842375 162.258833 
L 182.050909 179.024065 
L 184.259443 160.843114 
L 186.467978 243.77581 
L 188.676512 295.488 
L 190.885046 215.40863 
L 193.093581 197.973291 
L 195.302115 177.9425 
L 197.510649 181.583709 
L 199.719184 167.681909 
L 201.927718 200.651033 
L 204.136252 177.369817 
L 206.344787 169.455917 
L 208.553321 169.105 
L 210.761855 170.853806 
L 212.97039 164.696554 
L 215.178924 197.247718 
L 217.387458 178.672273 
L 219.595993 175.318485 
L 221.804527 167.824609 
L 224.013061 188.938894 
L 226.221596 170.787796 
L 228.43013 173.478774 
L 230.638664 173.547364 
L 232.847199 168.342469 
L 235.055733 171.823359 
L 237.264267 184.019799 
L 239.472801 162.832016 
L 241.681336 195.573082 
L 243.88987 171.226897 
L 246.098404 176.086948 
L 248.306939 169.520666 
L 250.515473 175.825933 
L 252.724007 191.515849 
L 254.932542 174.769389 
L 257.141076 168.234918 
L 259.34961 183.138926 
L 261.558145 173.057024 
L 263.766679 192.628866 
L 265.975213 169.189194 
L 268.183748 169.802493 
L 270.392282 168.447028 
L 272.600816 177.785062 
L 274.809351 181.478905 
L 277.017885 178.76449 
L 279.226419 169.148614 
L 281.434954 168.134907 
L 283.643488 191.414426 
L 285.852022 186.406215 
L 288.060557 197.903243 
L 290.269091 173.642244 
L 292.477625 199.238341 
L 294.68616 187.103269 
L 296.894694 195.812792 
L 299.103228 208.205152 
L 301.311763 175.2498 
L 303.520297 180.082345 
L 305.728831 198.441593 
L 307.937365 196.102933 
L 310.1459 184.022001 
L 312.354434 188.966793 
L 314.562968 197.955953 
L 316.771503 175.685712 
L 318.980037 195.250865 
L 321.188571 187.266392 
L 323.397106 178.821399 
L 325.60564 185.80778 
L 327.814174 171.782262 
L 330.022709 196.508114 
L 332.231243 192.877003 
L 334.439777 192.215374 
L 336.648312 228.055782 
L 338.856846 198.561053 
L 341.06538 176.803199 
L 343.273915 185.136656 
L 345.482449 186.402733 
L 347.690983 191.002705 
L 349.899518 173.281608 
L 352.108052 170.874697 
L 354.316586 184.653636 
L 356.525121 172.681388 
L 358.733655 175.40198 
L 360.942189 189.026217 
L 363.150724 188.351168 
L 365.359258 176.614363 
L 367.567792 173.956491 
L 369.776327 176.726842 
L 371.984861 170.141828 
L 374.193395 165.673237 
L 376.401929 175.075243 
L 378.610464 172.142822 
L 380.818998 175.654209 
L 383.027532 167.216262 
L 385.236067 173.586218 
L 387.444601 173.792941 
L 389.653135 180.476591 
L 391.86167 178.5424 
L 394.070204 163.846452 
L 396.278738 172.42264 
L 398.487273 170.153759 
L 398.487273 170.153759 
" clip-path="url(#pb22b03fa2b)" style="fill: none; stroke: #32cd32; stroke-opacity: 0.8; stroke-width: 0.5; stroke-linecap: square"/>
   </g>
   <g id="line2d_20">
    <path d="M 73.832727 153.068227 
L 76.041262 154.075108 
L 78.249796 153.213721 
L 80.45833 156.62146 
L 82.666865 153.990689 
L 84.875399 155.556524 
L 87.083933 153.514375 
L 89.292468 155.633523 
L 91.501002 153.660525 
L 93.709536 156.284177 
L 95.918071 153.398965 
L 98.126605 154.872974 
L 100.335139 154.483215 
L 102.543673 154.242305 
L 104.752208 154.853124 
L 106.960742 154.774547 
L 109.169276 154.276376 
L 111.377811 152.510001 
L 113.586345 153.569614 
L 115.794879 156.836975 
L 118.003414 150.93655 
L 120.211948 153.806702 
L 122.420482 155.795066 
L 124.629017 153.828352 
L 126.837551 156.181527 
L 129.046085 154.233027 
L 131.25462 155.712313 
L 133.463154 153.506548 
L 135.671688 154.722809 
L 137.880223 154.837387 
L 140.088757 152.702634 
L 142.297291 153.948945 
L 144.505826 157.123959 
L 146.71436 154.29339 
L 148.922894 153.043875 
L 151.131429 154.217335 
L 153.339963 149.770874 
L 155.548497 158.411287 
L 157.757032 152.209736 
L 159.965566 155.100505 
L 162.1741 152.908283 
L 164.382635 155.667086 
L 166.591169 153.700768 
L 168.799703 154.862612 
L 171.008237 154.824855 
L 173.216772 153.69332 
L 175.425306 155.280072 
L 177.63384 153.72146 
L 179.842375 152.454823 
L 182.050909 155.788677 
L 184.259443 146.72295 
L 186.467978 153.850227 
L 188.676512 152.767545 
L 190.885046 158.183765 
L 193.093581 151.348551 
L 195.302115 152.659944 
L 197.510649 155.636441 
L 199.719184 153.565642 
L 201.927718 152.095814 
L 204.136252 153.567278 
L 206.344787 154.364152 
L 210.761855 154.322123 
L 212.97039 155.716729 
L 215.178924 149.589613 
L 217.387458 153.934959 
L 219.595993 155.132838 
L 221.804527 148.571747 
L 224.013061 154.50217 
L 226.221596 151.093277 
L 228.43013 155.012684 
L 230.638664 153.62233 
L 232.847199 156.833164 
L 235.055733 151.721353 
L 237.264267 154.757206 
L 239.472801 151.595559 
L 241.681336 154.943541 
L 243.88987 155.014136 
L 246.098404 154.768684 
L 248.306939 152.378698 
L 250.515473 154.345388 
L 252.724007 151.479743 
L 254.932542 156.114575 
L 257.141076 154.259069 
L 259.34961 156.63628 
L 261.558145 154.149167 
L 263.766679 155.4361 
L 265.975213 155.130649 
L 268.183748 151.902904 
L 272.600816 155.368841 
L 274.809351 152.553928 
L 277.017885 154.284678 
L 279.226419 155.591791 
L 281.434954 152.812988 
L 283.643488 152.693273 
L 285.852022 150.18892 
L 288.060557 158.349912 
L 290.269091 148.443254 
L 292.477625 159.748224 
L 294.68616 151.422969 
L 296.894694 150.648874 
L 299.103228 155.55571 
L 301.311763 149.342699 
L 303.520297 151.045579 
L 305.728831 147.122858 
L 307.937365 153.605725 
L 310.1459 157.802868 
L 312.354434 136.732281 
L 314.562968 153.743741 
L 316.771503 153.26859 
L 318.980037 159.059223 
L 321.188571 155.597006 
L 323.397106 150.143589 
L 325.60564 153.131076 
L 327.814174 147.930371 
L 330.022709 154.037571 
L 332.231243 155.777452 
L 334.439777 152.685796 
L 336.648312 158.233273 
L 338.856846 156.363624 
L 341.06538 148.738943 
L 343.273915 154.98532 
L 345.482449 153.978804 
L 347.690983 159.289286 
L 349.899518 151.877759 
L 352.108052 151.32901 
L 354.316586 154.286294 
L 356.525121 154.5442 
L 358.733655 153.568877 
L 360.942189 156.021468 
L 363.150724 154.263289 
L 365.359258 157.115646 
L 367.567792 154.037784 
L 369.776327 152.938516 
L 371.984861 155.00867 
L 374.193395 152.47483 
L 376.401929 151.515841 
L 378.610464 155.517398 
L 380.818998 151.553026 
L 383.027532 150.940338 
L 385.236067 154.860759 
L 387.444601 152.595594 
L 389.653135 157.543375 
L 391.86167 152.188098 
L 394.070204 153.640838 
L 396.278738 154.361411 
L 398.487273 153.608828 
L 398.487273 153.608828 
" clip-path="url(#pb22b03fa2b)" style="fill: none; stroke: #ff0000; stroke-opacity: 0.8; stroke-width: 0.5; stroke-linecap: square"/>
   </g>
   <g id="line2d_21">
    <path d="M 73.832727 135.627757 
L 76.041262 144.225861 
L 78.249796 134.270099 
L 80.45833 130.654526 
L 82.666865 143.502202 
L 84.875399 145.108976 
L 87.083933 146.412033 
L 89.292468 144.893524 
L 91.501002 149.243373 
L 93.709536 143.475228 
L 95.918071 143.472035 
L 98.126605 145.889973 
L 100.335139 147.660807 
L 102.543673 147.299803 
L 104.752208 148.188874 
L 106.960742 149.832471 
L 109.169276 124.826821 
L 111.377811 130.886815 
L 113.586345 135.752678 
L 115.794879 138.903735 
L 118.003414 117.000558 
L 120.211948 137.570917 
L 122.420482 133.580194 
L 124.629017 133.859669 
L 126.837551 144.923175 
L 129.046085 148.909286 
L 131.25462 148.765568 
L 133.463154 134.502071 
L 135.671688 146.655376 
L 137.880223 149.857844 
L 140.088757 140.022627 
L 142.297291 132.473248 
L 144.505826 143.828319 
L 146.71436 147.708062 
L 148.922894 144.355245 
L 151.131429 148.181535 
L 153.339963 129.131419 
L 155.548497 125.697221 
L 157.757032 128.446408 
L 159.965566 144.59384 
L 162.1741 143.104081 
L 164.382635 139.489678 
L 166.591169 147.770298 
L 168.799703 150.068308 
L 171.008237 150.536907 
L 173.216772 146.195191 
L 175.425306 149.2705 
L 177.63384 141.622074 
L 179.842375 139.623759 
L 182.050909 135.1851 
L 184.259443 120.988473 
L 186.467978 93.110804 
L 188.676512 53.568 
L 190.885046 96.251771 
L 193.093581 122.146624 
L 195.302115 124.665702 
L 197.510649 128.71358 
L 199.719184 139.843951 
L 201.927718 93.564427 
L 204.136252 125.078233 
L 206.344787 134.132383 
L 208.553321 137.334793 
L 212.97039 147.686637 
L 215.178924 100.989471 
L 217.387458 131.081364 
L 219.595993 132.713254 
L 221.804527 130.814974 
L 224.013061 117.207573 
L 226.221596 135.939463 
L 228.43013 140.509927 
L 230.638664 142.214121 
L 232.847199 132.621036 
L 235.055733 137.291067 
L 237.264267 122.172427 
L 239.472801 145.979902 
L 241.681336 118.63489 
L 243.88987 131.754722 
L 246.098404 136.671859 
L 248.306939 142.703925 
L 250.515473 140.326842 
L 252.724007 125.573959 
L 254.932542 145.225419 
L 257.141076 146.898308 
L 259.34961 137.066673 
L 261.558145 139.13002 
L 263.766679 133.50827 
L 265.975213 144.765181 
L 268.183748 138.907897 
L 270.392282 146.119997 
L 272.600816 130.407658 
L 274.809351 125.074859 
L 277.017885 142.350313 
L 279.226419 143.115583 
L 281.434954 141.664063 
L 283.643488 117.777226 
L 285.852022 131.535098 
L 288.060557 137.843058 
L 290.269091 122.613382 
L 292.477625 134.66329 
L 294.68616 107.898756 
L 296.894694 121.186195 
L 299.103228 117.129519 
L 301.311763 124.929889 
L 303.520297 129.201323 
L 305.728831 86.114457 
L 307.937365 81.74958 
L 310.1459 90.508957 
L 312.354434 106.933657 
L 314.562968 115.659865 
L 316.771503 135.857681 
L 318.980037 131.352607 
L 321.188571 136.289866 
L 323.397106 130.085099 
L 325.60564 100.461045 
L 327.814174 82.312945 
L 330.022709 119.142563 
L 332.231243 124.25389 
L 334.439777 123.099866 
L 336.648312 122.340188 
L 338.856846 131.120591 
L 341.06538 122.869729 
L 343.273915 131.101616 
L 345.482449 131.136409 
L 347.690983 132.385589 
L 349.899518 123.997741 
L 352.108052 128.843392 
L 354.316586 128.993026 
L 356.525121 119.562535 
L 358.733655 137.992919 
L 360.942189 132.313568 
L 363.150724 136.644518 
L 365.359258 138.130064 
L 367.567792 135.574303 
L 369.776327 140.230492 
L 371.984861 140.55314 
L 374.193395 138.699871 
L 376.401929 134.602155 
L 378.610464 136.662987 
L 380.818998 129.560102 
L 383.027532 131.088307 
L 385.236067 134.138827 
L 387.444601 133.689617 
L 389.653135 134.641256 
L 391.86167 138.396759 
L 394.070204 145.545849 
L 396.278738 140.656609 
L 398.487273 124.209105 
L 398.487273 124.209105 
" clip-path="url(#pb22b03fa2b)" style="fill: none; stroke: #f08080; stroke-opacity: 0.8; stroke-width: 0.5; stroke-linecap: square"/>
   </g>
   <g id="line2d_22">
    <path d="M 73.832727 168.362686 
L 76.041262 168.463345 
L 78.249796 186.10119 
L 80.45833 172.47835 
L 82.666865 165.653688 
L 84.875399 166.879086 
L 87.083933 161.83023 
L 89.292468 169.357154 
L 91.501002 157.940374 
L 93.709536 163.865371 
L 95.918071 162.962163 
L 98.126605 160.860729 
L 100.335139 162.996104 
L 102.543673 160.771763 
L 104.752208 160.336974 
L 106.960742 161.432709 
L 109.169276 178.641559 
L 111.377811 174.44478 
L 113.586345 170.672005 
L 115.794879 172.684163 
L 118.003414 163.753844 
L 120.211948 204.973582 
L 122.420482 188.883087 
L 124.629017 163.606298 
L 126.837551 167.696409 
L 129.046085 164.364314 
L 131.25462 170.604545 
L 133.463154 164.825182 
L 135.671688 161.017589 
L 137.880223 162.157908 
L 140.088757 163.910626 
L 142.297291 166.661936 
L 144.505826 176.968703 
L 146.71436 162.909223 
L 148.922894 159.390549 
L 151.131429 159.733043 
L 153.339963 162.146847 
L 155.548497 176.652439 
L 157.757032 168.987562 
L 159.965566 165.556116 
L 162.1741 163.030897 
L 164.382635 171.692442 
L 166.591169 161.053821 
L 168.799703 162.884356 
L 171.008237 161.788958 
L 173.216772 164.0937 
L 175.425306 162.359751 
L 177.63384 163.340712 
L 179.842375 162.364171 
L 182.050909 172.282501 
L 184.259443 159.386186 
L 186.467978 209.947083 
L 188.676512 251.397883 
L 190.885046 215.39432 
L 193.093581 181.235321 
L 195.302115 176.541466 
L 197.510649 183.852109 
L 199.719184 164.67325 
L 201.927718 176.917358 
L 204.136252 171.925809 
L 206.344787 167.33613 
L 208.553321 167.012575 
L 210.761855 170.322771 
L 212.97039 162.549597 
L 215.178924 188.365179 
L 217.387458 176.173393 
L 219.595993 175.206583 
L 221.804527 165.236464 
L 224.013061 176.925101 
L 226.221596 169.137129 
L 228.43013 171.543429 
L 230.638664 172.086449 
L 232.847199 171.03898 
L 235.055733 171.653831 
L 237.264267 174.658735 
L 239.472801 158.201682 
L 241.681336 188.714445 
L 243.88987 175.697984 
L 246.098404 176.155967 
L 248.306939 168.718732 
L 250.515473 168.522936 
L 252.724007 178.529091 
L 254.932542 173.528062 
L 257.141076 167.422121 
L 259.34961 178.210103 
L 261.558145 170.79365 
L 263.766679 181.828548 
L 265.975213 167.369431 
L 268.183748 167.054432 
L 270.392282 169.041458 
L 272.600816 172.413563 
L 274.809351 173.670296 
L 277.017885 178.678337 
L 279.226419 168.242738 
L 281.434954 165.165528 
L 283.643488 181.908697 
L 285.852022 183.464699 
L 288.060557 188.998677 
L 290.269091 172.332314 
L 292.477625 194.428031 
L 294.68616 184.239151 
L 296.894694 189.878733 
L 299.103228 193.536613 
L 301.311763 173.394866 
L 303.520297 175.031048 
L 305.728831 198.281389 
L 307.937365 197.213718 
L 310.1459 183.043824 
L 312.354434 178.792235 
L 314.562968 191.979042 
L 316.771503 171.920615 
L 318.980037 191.755343 
L 321.188571 184.594888 
L 323.397106 174.612978 
L 325.60564 183.858611 
L 327.814174 175.369265 
L 330.022709 193.544917 
L 332.231243 197.927247 
L 334.439777 187.028518 
L 336.648312 229.13165 
L 338.856846 197.267515 
L 341.06538 174.296847 
L 343.273915 180.092543 
L 345.482449 187.086775 
L 347.690983 185.64795 
L 349.899518 173.837138 
L 352.108052 166.819234 
L 354.316586 180.223837 
L 356.525121 172.214621 
L 358.733655 173.597185 
L 360.942189 184.259734 
L 363.150724 183.143525 
L 365.359258 172.882907 
L 367.567792 171.612916 
L 369.776327 172.909059 
L 371.984861 169.664454 
L 374.193395 159.747683 
L 376.401929 170.932517 
L 380.818998 172.265747 
L 383.027532 167.077137 
L 385.236067 169.407704 
L 387.444601 173.185916 
L 389.653135 176.17942 
L 391.86167 178.414086 
L 394.070204 161.307327 
L 396.278738 170.395031 
L 398.487273 169.781659 
L 398.487273 169.781659 
" clip-path="url(#pb22b03fa2b)" style="fill: none; stroke: #f08080; stroke-opacity: 0.8; stroke-width: 0.5; stroke-linecap: square"/>
   </g>
   <g id="patch_3">
    <path d="M 57.6 307.584 
L 57.6 41.472 
" style="fill: none; stroke: #000000; stroke-width: 0.8; stroke-linejoin: miter; stroke-linecap: square"/>
   </g>
   <g id="patch_4">
    <path d="M 414.72 307.584 
L 414.72 41.472 
" style="fill: none; stroke: #000000; stroke-width: 0.8; stroke-linejoin: miter; stroke-linecap: square"/>
   </g>
   <g id="patch_5">
    <path d="M 57.6 307.584 
L 414.72 307.584 
" style="fill: none; stroke: #000000; stroke-width: 0.8; stroke-linejoin: miter; stroke-linecap: square"/>
   </g>
   <g id="patch_6">
    <path d="M 57.6 41.472 
L 414.72 41.472 
" style="fill: none; stroke: #000000; stroke-width: 0.8; stroke-linejoin: miter; stroke-linecap: square"/>
   </g>
   <g id="text_17">
    <!-- 1final_zhangext_jc_snp500 -->
    <g transform="translate(155.53125 35.472) scale(0.12 -0.12)">
     <defs>
      <path id="DejaVuSans-66" d="M 2375 4863 
L 2375 4384 
L 1825 4384 
Q 1516 4384 1395 4259 
Q 1275 4134 1275 3809 
L 1275 3500 
L 2222 3500 
L 2222 3053 
L 1275 3053 
L 1275 0 
L 697 0 
L 697 3053 
L 147 3053 
L 147 3500 
L 697 3500 
L 697 3744 
Q 697 4328 969 4595 
Q 1241 4863 1831 4863 
L 2375 4863 
z
" transform="scale(0.015625)"/>
      <path id="DejaVuSans-69" d="M 603 3500 
L 1178 3500 
L 1178 0 
L 603 0 
L 603 3500 
z
M 603 4863 
L 1178 4863 
L 1178 4134 
L 603 4134 
L 603 4863 
z
" transform="scale(0.015625)"/>
      <path id="DejaVuSans-6e" d="M 3513 2113 
L 3513 0 
L 2938 0 
L 2938 2094 
Q 2938 2591 2744 2837 
Q 2550 3084 2163 3084 
Q 1697 3084 1428 2787 
Q 1159 2491 1159 1978 
L 1159 0 
L 581 0 
L 581 3500 
L 1159 3500 
L 1159 2956 
Q 1366 3272 1645 3428 
Q 1925 3584 2291 3584 
Q 2894 3584 3203 3211 
Q 3513 2838 3513 2113 
z
" transform="scale(0.015625)"/>
      <path id="DejaVuSans-61" d="M 2194 1759 
Q 1497 1759 1228 1600 
Q 959 1441 959 1056 
Q 959 750 1161 570 
Q 1363 391 1709 391 
Q 2188 391 2477 730 
Q 2766 1069 2766 1631 
L 2766 1759 
L 2194 1759 
z
M 3341 1997 
L 3341 0 
L 2766 0 
L 2766 531 
Q 2569 213 2275 61 
Q 1981 -91 1556 -91 
Q 1019 -91 701 211 
Q 384 513 384 1019 
Q 384 1609 779 1909 
Q 1175 2209 1959 2209 
L 2766 2209 
L 2766 2266 
Q 2766 2663 2505 2880 
Q 2244 3097 1772 3097 
Q 1472 3097 1187 3025 
Q 903 2953 641 2809 
L 641 3341 
Q 956 3463 1253 3523 
Q 1550 3584 1831 3584 
Q 2591 3584 2966 3190 
Q 3341 2797 3341 1997 
z
" transform="scale(0.015625)"/>
      <path id="DejaVuSans-6c" d="M 603 4863 
L 1178 4863 
L 1178 0 
L 603 0 
L 603 4863 
z
" transform="scale(0.015625)"/>
      <path id="DejaVuSans-5f" d="M 3263 -1063 
L 3263 -1509 
L -63 -1509 
L -63 -1063 
L 3263 -1063 
z
" transform="scale(0.015625)"/>
      <path id="DejaVuSans-7a" d="M 353 3500 
L 3084 3500 
L 3084 2975 
L 922 459 
L 3084 459 
L 3084 0 
L 275 0 
L 275 525 
L 2438 3041 
L 353 3041 
L 353 3500 
z
" transform="scale(0.015625)"/>
      <path id="DejaVuSans-68" d="M 3513 2113 
L 3513 0 
L 2938 0 
L 2938 2094 
Q 2938 2591 2744 2837 
Q 2550 3084 2163 3084 
Q 1697 3084 1428 2787 
Q 1159 2491 1159 1978 
L 1159 0 
L 581 0 
L 581 4863 
L 1159 4863 
L 1159 2956 
Q 1366 3272 1645 3428 
Q 1925 3584 2291 3584 
Q 2894 3584 3203 3211 
Q 3513 2838 3513 2113 
z
" transform="scale(0.015625)"/>
      <path id="DejaVuSans-67" d="M 2906 1791 
Q 2906 2416 2648 2759 
Q 2391 3103 1925 3103 
Q 1463 3103 1205 2759 
Q 947 2416 947 1791 
Q 947 1169 1205 825 
Q 1463 481 1925 481 
Q 2391 481 2648 825 
Q 2906 1169 2906 1791 
z
M 3481 434 
Q 3481 -459 3084 -895 
Q 2688 -1331 1869 -1331 
Q 1566 -1331 1297 -1286 
Q 1028 -1241 775 -1147 
L 775 -588 
Q 1028 -725 1275 -790 
Q 1522 -856 1778 -856 
Q 2344 -856 2625 -561 
Q 2906 -266 2906 331 
L 2906 616 
Q 2728 306 2450 153 
Q 2172 0 1784 0 
Q 1141 0 747 490 
Q 353 981 353 1791 
Q 353 2603 747 3093 
Q 1141 3584 1784 3584 
Q 2172 3584 2450 3431 
Q 2728 3278 2906 2969 
L 2906 3500 
L 3481 3500 
L 3481 434 
z
" transform="scale(0.015625)"/>
      <path id="DejaVuSans-65" d="M 3597 1894 
L 3597 1613 
L 953 1613 
Q 991 1019 1311 708 
Q 1631 397 2203 397 
Q 2534 397 2845 478 
Q 3156 559 3463 722 
L 3463 178 
Q 3153 47 2828 -22 
Q 2503 -91 2169 -91 
Q 1331 -91 842 396 
Q 353 884 353 1716 
Q 353 2575 817 3079 
Q 1281 3584 2069 3584 
Q 2775 3584 3186 3129 
Q 3597 2675 3597 1894 
z
M 3022 2063 
Q 3016 2534 2758 2815 
Q 2500 3097 2075 3097 
Q 1594 3097 1305 2825 
Q 1016 2553 972 2059 
L 3022 2063 
z
" transform="scale(0.015625)"/>
      <path id="DejaVuSans-78" d="M 3513 3500 
L 2247 1797 
L 3578 0 
L 2900 0 
L 1881 1375 
L 863 0 
L 184 0 
L 1544 1831 
L 300 3500 
L 978 3500 
L 1906 2253 
L 2834 3500 
L 3513 3500 
z
" transform="scale(0.015625)"/>
      <path id="DejaVuSans-74" d="M 1172 4494 
L 1172 3500 
L 2356 3500 
L 2356 3053 
L 1172 3053 
L 1172 1153 
Q 1172 725 1289 603 
Q 1406 481 1766 481 
L 2356 481 
L 2356 0 
L 1766 0 
Q 1100 0 847 248 
Q 594 497 594 1153 
L 594 3053 
L 172 3053 
L 172 3500 
L 594 3500 
L 594 4494 
L 1172 4494 
z
" transform="scale(0.015625)"/>
      <path id="DejaVuSans-6a" d="M 603 3500 
L 1178 3500 
L 1178 -63 
Q 1178 -731 923 -1031 
Q 669 -1331 103 -1331 
L -116 -1331 
L -116 -844 
L 38 -844 
Q 366 -844 484 -692 
Q 603 -541 603 -63 
L 603 3500 
z
M 603 4863 
L 1178 4863 
L 1178 4134 
L 603 4134 
L 603 4863 
z
" transform="scale(0.015625)"/>
      <path id="DejaVuSans-63" d="M 3122 3366 
L 3122 2828 
Q 2878 2963 2633 3030 
Q 2388 3097 2138 3097 
Q 1578 3097 1268 2742 
Q 959 2388 959 1747 
Q 959 1106 1268 751 
Q 1578 397 2138 397 
Q 2388 397 2633 464 
Q 2878 531 3122 666 
L 3122 134 
Q 2881 22 2623 -34 
Q 2366 -91 2075 -91 
Q 1284 -91 818 406 
Q 353 903 353 1747 
Q 353 2603 823 3093 
Q 1294 3584 2113 3584 
Q 2378 3584 2631 3529 
Q 2884 3475 3122 3366 
z
" transform="scale(0.015625)"/>
      <path id="DejaVuSans-73" d="M 2834 3397 
L 2834 2853 
Q 2591 2978 2328 3040 
Q 2066 3103 1784 3103 
Q 1356 3103 1142 2972 
Q 928 2841 928 2578 
Q 928 2378 1081 2264 
Q 1234 2150 1697 2047 
L 1894 2003 
Q 2506 1872 2764 1633 
Q 3022 1394 3022 966 
Q 3022 478 2636 193 
Q 2250 -91 1575 -91 
Q 1294 -91 989 -36 
Q 684 19 347 128 
L 347 722 
Q 666 556 975 473 
Q 1284 391 1588 391 
Q 1994 391 2212 530 
Q 2431 669 2431 922 
Q 2431 1156 2273 1281 
Q 2116 1406 1581 1522 
L 1381 1569 
Q 847 1681 609 1914 
Q 372 2147 372 2553 
Q 372 3047 722 3315 
Q 1072 3584 1716 3584 
Q 2034 3584 2315 3537 
Q 2597 3491 2834 3397 
z
" transform="scale(0.015625)"/>
      <path id="DejaVuSans-70" d="M 1159 525 
L 1159 -1331 
L 581 -1331 
L 581 3500 
L 1159 3500 
L 1159 2969 
Q 1341 3281 1617 3432 
Q 1894 3584 2278 3584 
Q 2916 3584 3314 3078 
Q 3713 2572 3713 1747 
Q 3713 922 3314 415 
Q 2916 -91 2278 -91 
Q 1894 -91 1617 61 
Q 1341 213 1159 525 
z
M 3116 1747 
Q 3116 2381 2855 2742 
Q 2594 3103 2138 3103 
Q 1681 3103 1420 2742 
Q 1159 2381 1159 1747 
Q 1159 1113 1420 752 
Q 1681 391 2138 391 
Q 2594 391 2855 752 
Q 3116 1113 3116 1747 
z
" transform="scale(0.015625)"/>
      <path id="DejaVuSans-35" d="M 691 4666 
L 3169 4666 
L 3169 4134 
L 1269 4134 
L 1269 2991 
Q 1406 3038 1543 3061 
Q 1681 3084 1819 3084 
Q 2600 3084 3056 2656 
Q 3513 2228 3513 1497 
Q 3513 744 3044 326 
Q 2575 -91 1722 -91 
Q 1428 -91 1123 -41 
Q 819 9 494 109 
L 494 744 
Q 775 591 1075 516 
Q 1375 441 1709 441 
Q 2250 441 2565 725 
Q 2881 1009 2881 1497 
Q 2881 1984 2565 2268 
Q 2250 2553 1709 2553 
Q 1456 2553 1204 2497 
Q 953 2441 691 2322 
L 691 4666 
z
" transform="scale(0.015625)"/>
     </defs>
     <use xlink:href="#DejaVuSans-31"/>
     <use xlink:href="#DejaVuSans-66" x="63.623047"/>
     <use xlink:href="#DejaVuSans-69" x="98.828125"/>
     <use xlink:href="#DejaVuSans-6e" x="126.611328"/>
     <use xlink:href="#DejaVuSans-61" x="189.990234"/>
     <use xlink:href="#DejaVuSans-6c" x="251.269531"/>
     <use xlink:href="#DejaVuSans-5f" x="279.052734"/>
     <use xlink:href="#DejaVuSans-7a" x="329.052734"/>
     <use xlink:href="#DejaVuSans-68" x="381.542969"/>
     <use xlink:href="#DejaVuSans-61" x="444.921875"/>
     <use xlink:href="#DejaVuSans-6e" x="506.201172"/>
     <use xlink:href="#DejaVuSans-67" x="569.580078"/>
     <use xlink:href="#DejaVuSans-65" x="633.056641"/>
     <use xlink:href="#DejaVuSans-78" x="692.830078"/>
     <use xlink:href="#DejaVuSans-74" x="752.009766"/>
     <use xlink:href="#DejaVuSans-5f" x="791.21875"/>
     <use xlink:href="#DejaVuSans-6a" x="841.21875"/>
     <use xlink:href="#DejaVuSans-63" x="869.001953"/>
     <use xlink:href="#DejaVuSans-5f" x="923.982422"/>
     <use xlink:href="#DejaVuSans-73" x="973.982422"/>
     <use xlink:href="#DejaVuSans-6e" x="1026.082031"/>
     <use xlink:href="#DejaVuSans-70" x="1089.460938"/>
     <use xlink:href="#DejaVuSans-35" x="1152.9375"/>
     <use xlink:href="#DejaVuSans-30" x="1216.560547"/>
     <use xlink:href="#DejaVuSans-30" x="1280.183594"/>
    </g>
   </g>
   <g id="legend_1">
    <g id="patch_7">
     <path d="M 247.318437 302.584 
L 407.72 302.584 
Q 409.72 302.584 409.72 300.584 
L 409.72 213.51525 
Q 409.72 211.51525 407.72 211.51525 
L 247.318437 211.51525 
Q 245.318437 211.51525 245.318437 213.51525 
L 245.318437 300.584 
Q 245.318437 302.584 247.318437 302.584 
z
" style="fill: #ffffff; opacity: 0.8; stroke: #cccccc; stroke-linejoin: miter"/>
    </g>
    <g id="line2d_23">
     <path d="M 249.318437 219.613687 
L 259.318437 219.613687 
L 269.318437 219.613687 
" style="fill: none; stroke: #008000; stroke-opacity: 0.8; stroke-width: 0.5; stroke-linecap: square"/>
    </g>
    <g id="text_18">
     <!-- Positive predictions -->
     <g transform="translate(277.318437 223.113687) scale(0.1 -0.1)">
      <defs>
       <path id="DejaVuSans-50" d="M 1259 4147 
L 1259 2394 
L 2053 2394 
Q 2494 2394 2734 2622 
Q 2975 2850 2975 3272 
Q 2975 3691 2734 3919 
Q 2494 4147 2053 4147 
L 1259 4147 
z
M 628 4666 
L 2053 4666 
Q 2838 4666 3239 4311 
Q 3641 3956 3641 3272 
Q 3641 2581 3239 2228 
Q 2838 1875 2053 1875 
L 1259 1875 
L 1259 0 
L 628 0 
L 628 4666 
z
" transform="scale(0.015625)"/>
       <path id="DejaVuSans-6f" d="M 1959 3097 
Q 1497 3097 1228 2736 
Q 959 2375 959 1747 
Q 959 1119 1226 758 
Q 1494 397 1959 397 
Q 2419 397 2687 759 
Q 2956 1122 2956 1747 
Q 2956 2369 2687 2733 
Q 2419 3097 1959 3097 
z
M 1959 3584 
Q 2709 3584 3137 3096 
Q 3566 2609 3566 1747 
Q 3566 888 3137 398 
Q 2709 -91 1959 -91 
Q 1206 -91 779 398 
Q 353 888 353 1747 
Q 353 2609 779 3096 
Q 1206 3584 1959 3584 
z
" transform="scale(0.015625)"/>
       <path id="DejaVuSans-76" d="M 191 3500 
L 800 3500 
L 1894 563 
L 2988 3500 
L 3597 3500 
L 2284 0 
L 1503 0 
L 191 3500 
z
" transform="scale(0.015625)"/>
       <path id="DejaVuSans-20" transform="scale(0.015625)"/>
       <path id="DejaVuSans-72" d="M 2631 2963 
Q 2534 3019 2420 3045 
Q 2306 3072 2169 3072 
Q 1681 3072 1420 2755 
Q 1159 2438 1159 1844 
L 1159 0 
L 581 0 
L 581 3500 
L 1159 3500 
L 1159 2956 
Q 1341 3275 1631 3429 
Q 1922 3584 2338 3584 
Q 2397 3584 2469 3576 
Q 2541 3569 2628 3553 
L 2631 2963 
z
" transform="scale(0.015625)"/>
       <path id="DejaVuSans-64" d="M 2906 2969 
L 2906 4863 
L 3481 4863 
L 3481 0 
L 2906 0 
L 2906 525 
Q 2725 213 2448 61 
Q 2172 -91 1784 -91 
Q 1150 -91 751 415 
Q 353 922 353 1747 
Q 353 2572 751 3078 
Q 1150 3584 1784 3584 
Q 2172 3584 2448 3432 
Q 2725 3281 2906 2969 
z
M 947 1747 
Q 947 1113 1208 752 
Q 1469 391 1925 391 
Q 2381 391 2643 752 
Q 2906 1113 2906 1747 
Q 2906 2381 2643 2742 
Q 2381 3103 1925 3103 
Q 1469 3103 1208 2742 
Q 947 2381 947 1747 
z
" transform="scale(0.015625)"/>
      </defs>
      <use xlink:href="#DejaVuSans-50"/>
      <use xlink:href="#DejaVuSans-6f" x="56.677734"/>
      <use xlink:href="#DejaVuSans-73" x="117.859375"/>
      <use xlink:href="#DejaVuSans-69" x="169.958984"/>
      <use xlink:href="#DejaVuSans-74" x="197.742188"/>
      <use xlink:href="#DejaVuSans-69" x="236.951172"/>
      <use xlink:href="#DejaVuSans-76" x="264.734375"/>
      <use xlink:href="#DejaVuSans-65" x="323.914062"/>
      <use xlink:href="#DejaVuSans-20" x="385.4375"/>
      <use xlink:href="#DejaVuSans-70" x="417.224609"/>
      <use xlink:href="#DejaVuSans-72" x="480.701172"/>
      <use xlink:href="#DejaVuSans-65" x="519.564453"/>
      <use xlink:href="#DejaVuSans-64" x="581.087891"/>
      <use xlink:href="#DejaVuSans-69" x="644.564453"/>
      <use xlink:href="#DejaVuSans-63" x="672.347656"/>
      <use xlink:href="#DejaVuSans-74" x="727.328125"/>
      <use xlink:href="#DejaVuSans-69" x="766.537109"/>
      <use xlink:href="#DejaVuSans-6f" x="794.320312"/>
      <use xlink:href="#DejaVuSans-6e" x="855.501953"/>
      <use xlink:href="#DejaVuSans-73" x="918.880859"/>
     </g>
    </g>
    <g id="line2d_24">
     <path d="M 249.318437 234.291812 
L 259.318437 234.291812 
L 269.318437 234.291812 
" style="fill: none; stroke: #32cd32; stroke-opacity: 0.8; stroke-width: 0.5; stroke-linecap: square"/>
    </g>
    <g id="text_19">
     <!-- Positive predictions max -->
     <g transform="translate(277.318437 237.791812) scale(0.1 -0.1)">
      <defs>
       <path id="DejaVuSans-6d" d="M 3328 2828 
Q 3544 3216 3844 3400 
Q 4144 3584 4550 3584 
Q 5097 3584 5394 3201 
Q 5691 2819 5691 2113 
L 5691 0 
L 5113 0 
L 5113 2094 
Q 5113 2597 4934 2840 
Q 4756 3084 4391 3084 
Q 3944 3084 3684 2787 
Q 3425 2491 3425 1978 
L 3425 0 
L 2847 0 
L 2847 2094 
Q 2847 2600 2669 2842 
Q 2491 3084 2119 3084 
Q 1678 3084 1418 2786 
Q 1159 2488 1159 1978 
L 1159 0 
L 581 0 
L 581 3500 
L 1159 3500 
L 1159 2956 
Q 1356 3278 1631 3431 
Q 1906 3584 2284 3584 
Q 2666 3584 2933 3390 
Q 3200 3197 3328 2828 
z
" transform="scale(0.015625)"/>
      </defs>
      <use xlink:href="#DejaVuSans-50"/>
      <use xlink:href="#DejaVuSans-6f" x="56.677734"/>
      <use xlink:href="#DejaVuSans-73" x="117.859375"/>
      <use xlink:href="#DejaVuSans-69" x="169.958984"/>
      <use xlink:href="#DejaVuSans-74" x="197.742188"/>
      <use xlink:href="#DejaVuSans-69" x="236.951172"/>
      <use xlink:href="#DejaVuSans-76" x="264.734375"/>
      <use xlink:href="#DejaVuSans-65" x="323.914062"/>
      <use xlink:href="#DejaVuSans-20" x="385.4375"/>
      <use xlink:href="#DejaVuSans-70" x="417.224609"/>
      <use xlink:href="#DejaVuSans-72" x="480.701172"/>
      <use xlink:href="#DejaVuSans-65" x="519.564453"/>
      <use xlink:href="#DejaVuSans-64" x="581.087891"/>
      <use xlink:href="#DejaVuSans-69" x="644.564453"/>
      <use xlink:href="#DejaVuSans-63" x="672.347656"/>
      <use xlink:href="#DejaVuSans-74" x="727.328125"/>
      <use xlink:href="#DejaVuSans-69" x="766.537109"/>
      <use xlink:href="#DejaVuSans-6f" x="794.320312"/>
      <use xlink:href="#DejaVuSans-6e" x="855.501953"/>
      <use xlink:href="#DejaVuSans-73" x="918.880859"/>
      <use xlink:href="#DejaVuSans-20" x="970.980469"/>
      <use xlink:href="#DejaVuSans-6d" x="1002.767578"/>
      <use xlink:href="#DejaVuSans-61" x="1100.179688"/>
      <use xlink:href="#DejaVuSans-78" x="1161.458984"/>
     </g>
    </g>
    <g id="line2d_25">
     <path d="M 249.318437 248.969937 
L 259.318437 248.969937 
L 269.318437 248.969937 
" style="fill: none; stroke: #32cd32; stroke-opacity: 0.8; stroke-width: 0.5; stroke-linecap: square"/>
    </g>
    <g id="text_20">
     <!-- Positive predictions min -->
     <g transform="translate(277.318437 252.469937) scale(0.1 -0.1)">
      <use xlink:href="#DejaVuSans-50"/>
      <use xlink:href="#DejaVuSans-6f" x="56.677734"/>
      <use xlink:href="#DejaVuSans-73" x="117.859375"/>
      <use xlink:href="#DejaVuSans-69" x="169.958984"/>
      <use xlink:href="#DejaVuSans-74" x="197.742188"/>
      <use xlink:href="#DejaVuSans-69" x="236.951172"/>
      <use xlink:href="#DejaVuSans-76" x="264.734375"/>
      <use xlink:href="#DejaVuSans-65" x="323.914062"/>
      <use xlink:href="#DejaVuSans-20" x="385.4375"/>
      <use xlink:href="#DejaVuSans-70" x="417.224609"/>
      <use xlink:href="#DejaVuSans-72" x="480.701172"/>
      <use xlink:href="#DejaVuSans-65" x="519.564453"/>
      <use xlink:href="#DejaVuSans-64" x="581.087891"/>
      <use xlink:href="#DejaVuSans-69" x="644.564453"/>
      <use xlink:href="#DejaVuSans-63" x="672.347656"/>
      <use xlink:href="#DejaVuSans-74" x="727.328125"/>
      <use xlink:href="#DejaVuSans-69" x="766.537109"/>
      <use xlink:href="#DejaVuSans-6f" x="794.320312"/>
      <use xlink:href="#DejaVuSans-6e" x="855.501953"/>
      <use xlink:href="#DejaVuSans-73" x="918.880859"/>
      <use xlink:href="#DejaVuSans-20" x="970.980469"/>
      <use xlink:href="#DejaVuSans-6d" x="1002.767578"/>
      <use xlink:href="#DejaVuSans-69" x="1100.179688"/>
      <use xlink:href="#DejaVuSans-6e" x="1127.962891"/>
     </g>
    </g>
    <g id="line2d_26">
     <path d="M 249.318437 263.648062 
L 259.318437 263.648062 
L 269.318437 263.648062 
" style="fill: none; stroke: #ff0000; stroke-opacity: 0.8; stroke-width: 0.5; stroke-linecap: square"/>
    </g>
    <g id="text_21">
     <!-- Negative predictions -->
     <g transform="translate(277.318437 267.148062) scale(0.1 -0.1)">
      <defs>
       <path id="DejaVuSans-4e" d="M 628 4666 
L 1478 4666 
L 3547 763 
L 3547 4666 
L 4159 4666 
L 4159 0 
L 3309 0 
L 1241 3903 
L 1241 0 
L 628 0 
L 628 4666 
z
" transform="scale(0.015625)"/>
      </defs>
      <use xlink:href="#DejaVuSans-4e"/>
      <use xlink:href="#DejaVuSans-65" x="74.804688"/>
      <use xlink:href="#DejaVuSans-67" x="136.328125"/>
      <use xlink:href="#DejaVuSans-61" x="199.804688"/>
      <use xlink:href="#DejaVuSans-74" x="261.083984"/>
      <use xlink:href="#DejaVuSans-69" x="300.292969"/>
      <use xlink:href="#DejaVuSans-76" x="328.076172"/>
      <use xlink:href="#DejaVuSans-65" x="387.255859"/>
      <use xlink:href="#DejaVuSans-20" x="448.779297"/>
      <use xlink:href="#DejaVuSans-70" x="480.566406"/>
      <use xlink:href="#DejaVuSans-72" x="544.042969"/>
      <use xlink:href="#DejaVuSans-65" x="582.90625"/>
      <use xlink:href="#DejaVuSans-64" x="644.429688"/>
      <use xlink:href="#DejaVuSans-69" x="707.90625"/>
      <use xlink:href="#DejaVuSans-63" x="735.689453"/>
      <use xlink:href="#DejaVuSans-74" x="790.669922"/>
      <use xlink:href="#DejaVuSans-69" x="829.878906"/>
      <use xlink:href="#DejaVuSans-6f" x="857.662109"/>
      <use xlink:href="#DejaVuSans-6e" x="918.84375"/>
      <use xlink:href="#DejaVuSans-73" x="982.222656"/>
     </g>
    </g>
    <g id="line2d_27">
     <path d="M 249.318437 278.326188 
L 259.318437 278.326188 
L 269.318437 278.326188 
" style="fill: none; stroke: #f08080; stroke-opacity: 0.8; stroke-width: 0.5; stroke-linecap: square"/>
    </g>
    <g id="text_22">
     <!-- Negative predictions max -->
     <g transform="translate(277.318437 281.826188) scale(0.1 -0.1)">
      <use xlink:href="#DejaVuSans-4e"/>
      <use xlink:href="#DejaVuSans-65" x="74.804688"/>
      <use xlink:href="#DejaVuSans-67" x="136.328125"/>
      <use xlink:href="#DejaVuSans-61" x="199.804688"/>
      <use xlink:href="#DejaVuSans-74" x="261.083984"/>
      <use xlink:href="#DejaVuSans-69" x="300.292969"/>
      <use xlink:href="#DejaVuSans-76" x="328.076172"/>
      <use xlink:href="#DejaVuSans-65" x="387.255859"/>
      <use xlink:href="#DejaVuSans-20" x="448.779297"/>
      <use xlink:href="#DejaVuSans-70" x="480.566406"/>
      <use xlink:href="#DejaVuSans-72" x="544.042969"/>
      <use xlink:href="#DejaVuSans-65" x="582.90625"/>
      <use xlink:href="#DejaVuSans-64" x="644.429688"/>
      <use xlink:href="#DejaVuSans-69" x="707.90625"/>
      <use xlink:href="#DejaVuSans-63" x="735.689453"/>
      <use xlink:href="#DejaVuSans-74" x="790.669922"/>
      <use xlink:href="#DejaVuSans-69" x="829.878906"/>
      <use xlink:href="#DejaVuSans-6f" x="857.662109"/>
      <use xlink:href="#DejaVuSans-6e" x="918.84375"/>
      <use xlink:href="#DejaVuSans-73" x="982.222656"/>
      <use xlink:href="#DejaVuSans-20" x="1034.322266"/>
      <use xlink:href="#DejaVuSans-6d" x="1066.109375"/>
      <use xlink:href="#DejaVuSans-61" x="1163.521484"/>
      <use xlink:href="#DejaVuSans-78" x="1224.800781"/>
     </g>
    </g>
    <g id="line2d_28">
     <path d="M 249.318437 293.004312 
L 259.318437 293.004312 
L 269.318437 293.004312 
" style="fill: none; stroke: #f08080; stroke-opacity: 0.8; stroke-width: 0.5; stroke-linecap: square"/>
    </g>
    <g id="text_23">
     <!-- Negative predictions min -->
     <g transform="translate(277.318437 296.504312) scale(0.1 -0.1)">
      <use xlink:href="#DejaVuSans-4e"/>
      <use xlink:href="#DejaVuSans-65" x="74.804688"/>
      <use xlink:href="#DejaVuSans-67" x="136.328125"/>
      <use xlink:href="#DejaVuSans-61" x="199.804688"/>
      <use xlink:href="#DejaVuSans-74" x="261.083984"/>
      <use xlink:href="#DejaVuSans-69" x="300.292969"/>
      <use xlink:href="#DejaVuSans-76" x="328.076172"/>
      <use xlink:href="#DejaVuSans-65" x="387.255859"/>
      <use xlink:href="#DejaVuSans-20" x="448.779297"/>
      <use xlink:href="#DejaVuSans-70" x="480.566406"/>
      <use xlink:href="#DejaVuSans-72" x="544.042969"/>
      <use xlink:href="#DejaVuSans-65" x="582.90625"/>
      <use xlink:href="#DejaVuSans-64" x="644.429688"/>
      <use xlink:href="#DejaVuSans-69" x="707.90625"/>
      <use xlink:href="#DejaVuSans-63" x="735.689453"/>
      <use xlink:href="#DejaVuSans-74" x="790.669922"/>
      <use xlink:href="#DejaVuSans-69" x="829.878906"/>
      <use xlink:href="#DejaVuSans-6f" x="857.662109"/>
      <use xlink:href="#DejaVuSans-6e" x="918.84375"/>
      <use xlink:href="#DejaVuSans-73" x="982.222656"/>
      <use xlink:href="#DejaVuSans-20" x="1034.322266"/>
      <use xlink:href="#DejaVuSans-6d" x="1066.109375"/>
      <use xlink:href="#DejaVuSans-69" x="1163.521484"/>
      <use xlink:href="#DejaVuSans-6e" x="1191.304688"/>
     </g>
    </g>
   </g>
  </g>
 </g>
 <defs>
  <clipPath id="pb22b03fa2b">
   <rect x="57.6" y="41.472" width="357.12" height="266.112"/>
  </clipPath>
 </defs>
</svg>
