<?xml version="1.0" encoding="utf-8" standalone="no"?>
<!DOCTYPE svg PUBLIC "-//W3C//DTD SVG 1.1//EN"
  "http://www.w3.org/Graphics/SVG/1.1/DTD/svg11.dtd">
<svg xmlns:xlink="http://www.w3.org/1999/xlink" width="460.8pt" height="345.6pt" viewBox="0 0 460.8 345.6" xmlns="http://www.w3.org/2000/svg" version="1.1">
 <metadata>
  <rdf:RDF xmlns:dc="http://purl.org/dc/elements/1.1/" xmlns:cc="http://creativecommons.org/ns#" xmlns:rdf="http://www.w3.org/1999/02/22-rdf-syntax-ns#">
   <cc:Work>
    <dc:type rdf:resource="http://purl.org/dc/dcmitype/StillImage"/>
    <dc:date>2024-09-06T07:10:49.414683</dc:date>
    <dc:format>image/svg+xml</dc:format>
    <dc:creator>
     <cc:Agent>
      <dc:title>Matplotlib v3.9.0, https://matplotlib.org/</dc:title>
     </cc:Agent>
    </dc:creator>
   </cc:Work>
  </rdf:RDF>
 </metadata>
 <defs>
  <style type="text/css">*{stroke-linejoin: round; stroke-linecap: butt}</style>
 </defs>
 <g id="figure_1">
  <g id="patch_1">
   <path d="M 0 345.6 
L 460.8 345.6 
L 460.8 0 
L 0 0 
z
" style="fill: #ffffff"/>
  </g>
  <g id="axes_1">
   <g id="patch_2">
    <path d="M 57.6 307.584 
L 414.72 307.584 
L 414.72 41.472 
L 57.6 41.472 
z
" style="fill: #ffffff"/>
   </g>
   <g id="matplotlib.axis_1">
    <g id="xtick_1">
     <g id="line2d_1">
      <defs>
       <path id="m2976f2b26b" d="M 0 0 
L 0 3.5 
" style="stroke: #000000; stroke-width: 0.8"/>
      </defs>
      <g>
       <use xlink:href="#m2976f2b26b" x="73.832727" y="307.584" style="stroke: #000000; stroke-width: 0.8"/>
      </g>
     </g>
     <g id="text_1">
      <!-- 0 -->
      <g transform="translate(70.651477 322.182437) scale(0.1 -0.1)">
       <defs>
        <path id="DejaVuSans-30" d="M 2034 4250 
Q 1547 4250 1301 3770 
Q 1056 3291 1056 2328 
Q 1056 1369 1301 889 
Q 1547 409 2034 409 
Q 2525 409 2770 889 
Q 3016 1369 3016 2328 
Q 3016 3291 2770 3770 
Q 2525 4250 2034 4250 
z
M 2034 4750 
Q 2819 4750 3233 4129 
Q 3647 3509 3647 2328 
Q 3647 1150 3233 529 
Q 2819 -91 2034 -91 
Q 1250 -91 836 529 
Q 422 1150 422 2328 
Q 422 3509 836 4129 
Q 1250 4750 2034 4750 
z
" transform="scale(0.015625)"/>
       </defs>
       <use xlink:href="#DejaVuSans-30"/>
      </g>
     </g>
    </g>
    <g id="xtick_2">
     <g id="line2d_2">
      <g>
       <use xlink:href="#m2976f2b26b" x="149.333784" y="307.584" style="stroke: #000000; stroke-width: 0.8"/>
      </g>
     </g>
     <g id="text_2">
      <!-- 50 -->
      <g transform="translate(142.971284 322.182437) scale(0.1 -0.1)">
       <defs>
        <path id="DejaVuSans-35" d="M 691 4666 
L 3169 4666 
L 3169 4134 
L 1269 4134 
L 1269 2991 
Q 1406 3038 1543 3061 
Q 1681 3084 1819 3084 
Q 2600 3084 3056 2656 
Q 3513 2228 3513 1497 
Q 3513 744 3044 326 
Q 2575 -91 1722 -91 
Q 1428 -91 1123 -41 
Q 819 9 494 109 
L 494 744 
Q 775 591 1075 516 
Q 1375 441 1709 441 
Q 2250 441 2565 725 
Q 2881 1009 2881 1497 
Q 2881 1984 2565 2268 
Q 2250 2553 1709 2553 
Q 1456 2553 1204 2497 
Q 953 2441 691 2322 
L 691 4666 
z
" transform="scale(0.015625)"/>
       </defs>
       <use xlink:href="#DejaVuSans-35"/>
       <use xlink:href="#DejaVuSans-30" x="63.623047"/>
      </g>
     </g>
    </g>
    <g id="xtick_3">
     <g id="line2d_3">
      <g>
       <use xlink:href="#m2976f2b26b" x="224.834841" y="307.584" style="stroke: #000000; stroke-width: 0.8"/>
      </g>
     </g>
     <g id="text_3">
      <!-- 100 -->
      <g transform="translate(215.291091 322.182437) scale(0.1 -0.1)">
       <defs>
        <path id="DejaVuSans-31" d="M 794 531 
L 1825 531 
L 1825 4091 
L 703 3866 
L 703 4441 
L 1819 4666 
L 2450 4666 
L 2450 531 
L 3481 531 
L 3481 0 
L 794 0 
L 794 531 
z
" transform="scale(0.015625)"/>
       </defs>
       <use xlink:href="#DejaVuSans-31"/>
       <use xlink:href="#DejaVuSans-30" x="63.623047"/>
       <use xlink:href="#DejaVuSans-30" x="127.246094"/>
      </g>
     </g>
    </g>
    <g id="xtick_4">
     <g id="line2d_4">
      <g>
       <use xlink:href="#m2976f2b26b" x="300.335899" y="307.584" style="stroke: #000000; stroke-width: 0.8"/>
      </g>
     </g>
     <g id="text_4">
      <!-- 150 -->
      <g transform="translate(290.792149 322.182437) scale(0.1 -0.1)">
       <use xlink:href="#DejaVuSans-31"/>
       <use xlink:href="#DejaVuSans-35" x="63.623047"/>
       <use xlink:href="#DejaVuSans-30" x="127.246094"/>
      </g>
     </g>
    </g>
    <g id="xtick_5">
     <g id="line2d_5">
      <g>
       <use xlink:href="#m2976f2b26b" x="375.836956" y="307.584" style="stroke: #000000; stroke-width: 0.8"/>
      </g>
     </g>
     <g id="text_5">
      <!-- 200 -->
      <g transform="translate(366.293206 322.182437) scale(0.1 -0.1)">
       <defs>
        <path id="DejaVuSans-32" d="M 1228 531 
L 3431 531 
L 3431 0 
L 469 0 
L 469 531 
Q 828 903 1448 1529 
Q 2069 2156 2228 2338 
Q 2531 2678 2651 2914 
Q 2772 3150 2772 3378 
Q 2772 3750 2511 3984 
Q 2250 4219 1831 4219 
Q 1534 4219 1204 4116 
Q 875 4013 500 3803 
L 500 4441 
Q 881 4594 1212 4672 
Q 1544 4750 1819 4750 
Q 2544 4750 2975 4387 
Q 3406 4025 3406 3419 
Q 3406 3131 3298 2873 
Q 3191 2616 2906 2266 
Q 2828 2175 2409 1742 
Q 1991 1309 1228 531 
z
" transform="scale(0.015625)"/>
       </defs>
       <use xlink:href="#DejaVuSans-32"/>
       <use xlink:href="#DejaVuSans-30" x="63.623047"/>
       <use xlink:href="#DejaVuSans-30" x="127.246094"/>
      </g>
     </g>
    </g>
   </g>
   <g id="matplotlib.axis_2">
    <g id="ytick_1">
     <g id="line2d_6">
      <defs>
       <path id="m7f56ed1016" d="M 0 0 
L -3.5 0 
" style="stroke: #000000; stroke-width: 0.8"/>
      </defs>
      <g>
       <use xlink:href="#m7f56ed1016" x="57.6" y="306.446678" style="stroke: #000000; stroke-width: 0.8"/>
      </g>
     </g>
     <g id="text_6">
      <!-- −1250 -->
      <g transform="translate(16.770313 310.245897) scale(0.1 -0.1)">
       <defs>
        <path id="DejaVuSans-2212" d="M 678 2272 
L 4684 2272 
L 4684 1741 
L 678 1741 
L 678 2272 
z
" transform="scale(0.015625)"/>
       </defs>
       <use xlink:href="#DejaVuSans-2212"/>
       <use xlink:href="#DejaVuSans-31" x="83.789062"/>
       <use xlink:href="#DejaVuSans-32" x="147.412109"/>
       <use xlink:href="#DejaVuSans-35" x="211.035156"/>
       <use xlink:href="#DejaVuSans-30" x="274.658203"/>
      </g>
     </g>
    </g>
    <g id="ytick_2">
     <g id="line2d_7">
      <g>
       <use xlink:href="#m7f56ed1016" x="57.6" y="271.978166" style="stroke: #000000; stroke-width: 0.8"/>
      </g>
     </g>
     <g id="text_7">
      <!-- −1000 -->
      <g transform="translate(16.770313 275.777385) scale(0.1 -0.1)">
       <use xlink:href="#DejaVuSans-2212"/>
       <use xlink:href="#DejaVuSans-31" x="83.789062"/>
       <use xlink:href="#DejaVuSans-30" x="147.412109"/>
       <use xlink:href="#DejaVuSans-30" x="211.035156"/>
       <use xlink:href="#DejaVuSans-30" x="274.658203"/>
      </g>
     </g>
    </g>
    <g id="ytick_3">
     <g id="line2d_8">
      <g>
       <use xlink:href="#m7f56ed1016" x="57.6" y="237.509654" style="stroke: #000000; stroke-width: 0.8"/>
      </g>
     </g>
     <g id="text_8">
      <!-- −750 -->
      <g transform="translate(23.132812 241.308873) scale(0.1 -0.1)">
       <defs>
        <path id="DejaVuSans-37" d="M 525 4666 
L 3525 4666 
L 3525 4397 
L 1831 0 
L 1172 0 
L 2766 4134 
L 525 4134 
L 525 4666 
z
" transform="scale(0.015625)"/>
       </defs>
       <use xlink:href="#DejaVuSans-2212"/>
       <use xlink:href="#DejaVuSans-37" x="83.789062"/>
       <use xlink:href="#DejaVuSans-35" x="147.412109"/>
       <use xlink:href="#DejaVuSans-30" x="211.035156"/>
      </g>
     </g>
    </g>
    <g id="ytick_4">
     <g id="line2d_9">
      <g>
       <use xlink:href="#m7f56ed1016" x="57.6" y="203.041142" style="stroke: #000000; stroke-width: 0.8"/>
      </g>
     </g>
     <g id="text_9">
      <!-- −500 -->
      <g transform="translate(23.132812 206.840361) scale(0.1 -0.1)">
       <use xlink:href="#DejaVuSans-2212"/>
       <use xlink:href="#DejaVuSans-35" x="83.789062"/>
       <use xlink:href="#DejaVuSans-30" x="147.412109"/>
       <use xlink:href="#DejaVuSans-30" x="211.035156"/>
      </g>
     </g>
    </g>
    <g id="ytick_5">
     <g id="line2d_10">
      <g>
       <use xlink:href="#m7f56ed1016" x="57.6" y="168.57263" style="stroke: #000000; stroke-width: 0.8"/>
      </g>
     </g>
     <g id="text_10">
      <!-- −250 -->
      <g transform="translate(23.132812 172.371849) scale(0.1 -0.1)">
       <use xlink:href="#DejaVuSans-2212"/>
       <use xlink:href="#DejaVuSans-32" x="83.789062"/>
       <use xlink:href="#DejaVuSans-35" x="147.412109"/>
       <use xlink:href="#DejaVuSans-30" x="211.035156"/>
      </g>
     </g>
    </g>
    <g id="ytick_6">
     <g id="line2d_11">
      <g>
       <use xlink:href="#m7f56ed1016" x="57.6" y="134.104118" style="stroke: #000000; stroke-width: 0.8"/>
      </g>
     </g>
     <g id="text_11">
      <!-- 0 -->
      <g transform="translate(44.2375 137.903337) scale(0.1 -0.1)">
       <use xlink:href="#DejaVuSans-30"/>
      </g>
     </g>
    </g>
    <g id="ytick_7">
     <g id="line2d_12">
      <g>
       <use xlink:href="#m7f56ed1016" x="57.6" y="99.635606" style="stroke: #000000; stroke-width: 0.8"/>
      </g>
     </g>
     <g id="text_12">
      <!-- 250 -->
      <g transform="translate(31.5125 103.434825) scale(0.1 -0.1)">
       <use xlink:href="#DejaVuSans-32"/>
       <use xlink:href="#DejaVuSans-35" x="63.623047"/>
       <use xlink:href="#DejaVuSans-30" x="127.246094"/>
      </g>
     </g>
    </g>
    <g id="ytick_8">
     <g id="line2d_13">
      <g>
       <use xlink:href="#m7f56ed1016" x="57.6" y="65.167094" style="stroke: #000000; stroke-width: 0.8"/>
      </g>
     </g>
     <g id="text_13">
      <!-- 500 -->
      <g transform="translate(31.5125 68.966313) scale(0.1 -0.1)">
       <use xlink:href="#DejaVuSans-35"/>
       <use xlink:href="#DejaVuSans-30" x="63.623047"/>
       <use xlink:href="#DejaVuSans-30" x="127.246094"/>
      </g>
     </g>
    </g>
   </g>
   <g id="line2d_14">
    <path d="M 73.832727 135.158948 
L 75.342748 138.827086 
L 78.362791 136.268969 
L 79.872812 135.717473 
L 81.382833 134.752354 
L 82.892854 135.924284 
L 84.402875 134.714535 
L 85.912896 139.018175 
L 87.422918 145.349075 
L 88.932939 154.819134 
L 90.44296 149.327451 
L 91.952981 144.668635 
L 93.463002 142.324776 
L 94.973023 147.839738 
L 96.483044 147.474642 
L 97.993066 147.926913 
L 99.503087 150.760534 
L 101.013108 151.728985 
L 102.523129 153.601232 
L 104.03315 151.461547 
L 105.543171 152.047796 
L 107.053192 149.069964 
L 108.563214 147.819047 
L 110.073235 147.067928 
L 111.583256 148.88327 
L 113.093277 149.528166 
L 114.603298 148.104181 
L 117.62334 146.952362 
L 119.133362 147.377474 
L 120.643383 147.113524 
L 122.153404 145.584409 
L 123.663425 145.722283 
L 125.173446 146.429254 
L 126.683467 146.457122 
L 128.193488 153.757674 
L 129.70351 154.94275 
L 131.213531 151.026339 
L 132.723552 152.862824 
L 134.233573 152.494312 
L 135.743594 151.735148 
L 137.253615 150.534136 
L 138.763636 151.463063 
L 140.273658 151.314819 
L 141.783679 152.281129 
L 144.803721 156.000141 
L 146.313742 156.658211 
L 147.823763 159.457637 
L 149.333784 160.773086 
L 150.843805 162.362544 
L 152.353827 161.466639 
L 153.863848 158.800489 
L 155.373869 159.848341 
L 156.88389 158.503973 
L 158.393911 155.497527 
L 159.903932 161.426112 
L 161.413953 164.663146 
L 162.923975 165.493333 
L 164.433996 163.34683 
L 165.944017 160.046306 
L 167.454038 160.046306 
L 168.964059 160.207334 
L 170.47408 159.278767 
L 171.984101 162.917657 
L 173.494123 161.610426 
L 175.004144 164.338309 
L 176.514165 163.586759 
L 178.024186 163.798046 
L 179.534207 162.785728 
L 181.044228 164.338634 
L 182.554249 167.137677 
L 184.064271 166.814984 
L 185.574292 170.196486 
L 187.084313 171.257569 
L 188.594334 170.114356 
L 190.104355 167.551597 
L 191.614376 168.027316 
L 193.124397 165.997184 
L 194.634419 165.160092 
L 196.14444 168.771132 
L 197.654461 167.388011 
L 199.164482 171.20475 
L 200.674503 174.463675 
L 202.184524 174.109703 
L 203.694545 177.411264 
L 205.204567 175.535261 
L 206.714588 172.306609 
L 208.224609 172.375546 
L 209.73463 172.981245 
L 212.754672 180.686879 
L 214.264693 177.651764 
L 215.774715 179.864594 
L 217.284736 178.701922 
L 218.794757 174.867078 
L 220.304778 176.521567 
L 221.814799 174.854362 
L 223.32482 179.97868 
L 224.834841 179.322009 
L 226.344863 180.263811 
L 227.854884 178.332068 
L 229.364905 176.040099 
L 230.874926 177.763525 
L 232.384947 178.353451 
L 233.894968 177.94614 
L 235.404989 181.584448 
L 236.915011 191.648671 
L 238.425032 185.903575 
L 239.935053 183.421743 
L 241.445074 182.41376 
L 242.955095 182.810104 
L 244.465116 178.572764 
L 245.975137 188.677594 
L 247.485159 185.730381 
L 248.99518 188.115214 
L 250.505201 182.809348 
L 252.015222 185.855372 
L 253.525243 186.112874 
L 255.035264 193.359977 
L 256.545285 189.393129 
L 259.565328 182.700912 
L 261.075349 183.479821 
L 262.58537 180.991258 
L 264.095391 184.607736 
L 265.605412 192.410229 
L 267.115433 187.126747 
L 268.625455 186.460111 
L 270.135476 186.089834 
L 271.645497 192.088513 
L 273.155518 189.53387 
L 274.665539 192.190652 
L 276.17556 190.771347 
L 277.685581 192.53646 
L 279.195603 193.224958 
L 280.705624 189.011033 
L 282.215645 193.28204 
L 283.725666 195.873078 
L 285.235687 206.256651 
L 286.745708 210.569517 
L 288.255729 212.414857 
L 289.765751 213.812303 
L 291.275772 211.113737 
L 292.785793 216.524628 
L 294.295814 226.319537 
L 295.805835 220.456231 
L 297.315856 217.056308 
L 298.825877 214.406708 
L 300.335899 213.303716 
L 301.84592 214.475645 
L 303.355941 216.364102 
L 304.865962 221.892994 
L 306.375983 224.6269 
L 309.396025 220.504394 
L 312.416068 232.571457 
L 313.926089 231.41279 
L 315.43611 236.81183 
L 316.946131 233.749201 
L 318.456152 231.719896 
L 319.966173 233.521734 
L 321.476195 230.307354 
L 322.986216 228.469514 
L 324.496237 227.504396 
L 326.006258 228.814199 
L 327.516279 231.030629 
L 329.0263 229.544428 
L 330.536321 233.832801 
L 332.046342 247.838558 
L 333.556364 248.112639 
L 335.066385 241.315303 
L 336.576406 237.611457 
L 338.086427 236.073883 
L 339.596448 231.863112 
L 341.106469 234.674951 
L 342.61649 245.021607 
L 344.126512 240.609865 
L 345.636533 240.529439 
L 347.146554 244.708865 
L 348.656575 247.084146 
L 350.166596 242.152683 
L 351.676617 245.799812 
L 353.186638 241.864303 
L 354.69666 239.305719 
L 356.206681 238.763386 
L 357.716702 240.100931 
L 359.226723 239.144623 
L 360.736744 242.194266 
L 362.246765 246.353472 
L 363.756786 257.814458 
L 365.266808 264.424681 
L 366.776829 287.339357 
L 368.28685 288.239964 
L 369.796871 278.972063 
L 371.306892 267.883207 
L 372.816913 272.570924 
L 374.326934 272.11841 
L 375.836956 273.940195 
L 377.346977 272.835497 
L 378.856998 279.190329 
L 380.367019 277.70735 
L 381.87704 274.214406 
L 383.387061 274.535999 
L 384.897082 278.083704 
L 386.407104 278.162205 
L 387.917125 276.553984 
L 389.427146 283.017324 
L 390.937167 283.862153 
L 392.447188 283.544859 
L 393.957209 281.66087 
L 395.46723 281.412797 
L 396.977252 292.083982 
L 398.487273 295.488 
L 398.487273 295.488 
" clip-path="url(#p169348f876)" style="fill: none; stroke: #1f77b4; stroke-opacity: 0.7; stroke-width: 1.5; stroke-linecap: square"/>
   </g>
   <g id="line2d_15">
    <path d="M 73.832727 134.932268 
L 75.342748 138.481729 
L 76.85277 135.968551 
L 79.872812 133.675884 
L 81.382833 132.016775 
L 82.892854 132.401793 
L 84.402875 130.749686 
L 85.912896 134.584103 
L 88.932939 147.470272 
L 90.44296 136.440348 
L 91.952981 130.403911 
L 93.463002 125.644618 
L 94.973023 128.826662 
L 96.483044 128.08285 
L 97.993066 128.295562 
L 99.503087 130.879482 
L 101.013108 131.374329 
L 102.523129 132.74517 
L 104.03315 129.901517 
L 105.543171 130.196985 
L 107.053192 127.089632 
L 108.563214 125.260292 
L 110.073235 123.747819 
L 111.583256 124.629402 
L 113.093277 124.659611 
L 114.603298 122.843963 
L 117.62334 120.796546 
L 119.133362 120.604571 
L 120.643383 120.087516 
L 122.153404 118.272655 
L 123.663425 117.549996 
L 125.173446 117.678502 
L 126.683467 117.627629 
L 128.193488 124.926473 
L 129.70351 126.463977 
L 131.213531 122.370564 
L 132.723552 125.000448 
L 134.233573 125.175997 
L 135.743594 124.656178 
L 137.253615 123.483339 
L 138.763636 124.022544 
L 140.273658 123.297486 
L 141.783679 123.999302 
L 143.2937 125.465891 
L 144.803721 126.638159 
L 146.313742 126.155599 
L 147.823763 128.023793 
L 149.333784 128.55231 
L 150.843805 129.388643 
L 152.353827 127.642238 
L 153.863848 124.308026 
L 155.373869 124.833545 
L 156.88389 122.677724 
L 158.393911 119.162352 
L 159.903932 123.647881 
L 161.413953 126.518306 
L 162.923975 126.43696 
L 164.433996 123.505136 
L 165.944017 120.161771 
L 167.454038 118.979303 
L 168.964059 117.541308 
L 170.47408 115.239643 
L 171.984101 117.554147 
L 173.494123 115.599616 
L 175.004144 117.561489 
L 176.514165 116.173136 
L 178.024186 115.950194 
L 179.534207 114.343681 
L 181.044228 115.297461 
L 182.554249 117.502179 
L 184.064271 115.84769 
L 185.574292 118.834069 
L 187.084313 119.017901 
L 188.594334 117.01444 
L 190.104355 114.262757 
L 191.614376 114.396249 
L 193.124397 112.065085 
L 194.634419 110.541095 
L 196.14444 113.149081 
L 197.654461 111.661784 
L 200.674503 118.131424 
L 202.184524 115.373943 
L 203.694545 117.846222 
L 205.204567 114.855547 
L 206.714588 111.26822 
L 208.224609 110.02853 
L 209.73463 109.563694 
L 211.244651 112.877402 
L 212.754672 116.732133 
L 214.264693 111.630793 
L 215.774715 113.961742 
L 217.284736 111.891389 
L 218.794757 107.925581 
L 220.304778 108.49402 
L 221.814799 106.057893 
L 223.32482 110.505508 
L 224.834841 109.75538 
L 226.344863 110.572351 
L 229.364905 106.32367 
L 230.874926 106.675755 
L 232.384947 106.179301 
L 233.894968 105.114945 
L 235.404989 108.163763 
L 236.915011 118.351205 
L 238.425032 108.2864 
L 239.935053 107.304968 
L 241.445074 107.040983 
L 242.955095 107.554747 
L 244.465116 103.244026 
L 245.975137 113.118356 
L 247.485159 110.335333 
L 248.99518 113.997645 
L 250.505201 107.728972 
L 252.015222 111.208776 
L 253.525243 112.464764 
L 255.035264 120.072167 
L 256.545285 112.059059 
L 258.055307 109.614389 
L 259.565328 106.422829 
L 261.075349 105.587292 
L 262.58537 102.997609 
L 264.095391 105.628063 
L 265.605412 113.048147 
L 267.115433 105.947634 
L 268.625455 106.334354 
L 270.135476 106.863612 
L 271.645497 112.909983 
L 273.155518 109.733157 
L 274.665539 112.740487 
L 276.17556 110.781527 
L 277.685581 112.454099 
L 279.195603 112.62396 
L 280.705624 107.764313 
L 282.215645 112.185174 
L 283.725666 114.550731 
L 285.235687 123.966602 
L 286.745708 123.374255 
L 288.255729 120.917721 
L 289.765751 119.472643 
L 291.275772 114.816317 
L 292.785793 118.383133 
L 294.295814 127.445288 
L 295.805835 117.794104 
L 297.315856 111.815795 
L 298.825877 106.733214 
L 300.335899 102.268697 
L 301.84592 100.372406 
L 303.355941 99.15652 
L 304.865962 102.935345 
L 306.375983 104.666626 
L 307.886004 102.195532 
L 309.396025 99.416277 
L 310.906047 103.951873 
L 312.416068 107.991548 
L 313.926089 103.028082 
L 315.43611 107.340002 
L 316.946131 103.113506 
L 318.456152 99.921969 
L 319.966173 100.09231 
L 321.476195 96.52109 
L 322.986216 94.177181 
L 324.496237 91.177958 
L 326.006258 90.567732 
L 327.516279 91.282625 
L 329.0263 88.37481 
L 330.536321 91.546671 
L 332.046342 104.876585 
L 333.556364 97.707134 
L 335.066385 87.746029 
L 336.576406 85.795072 
L 338.086427 85.080093 
L 339.596448 78.998964 
L 341.106469 77.925526 
L 342.61649 86.332095 
L 344.126512 82.550728 
L 345.636533 83.142714 
L 347.146554 87.680966 
L 348.656575 88.890811 
L 350.166596 82.491994 
L 351.676617 86.323879 
L 353.186638 82.188251 
L 354.69666 79.643419 
L 356.206681 78.178346 
L 357.716702 78.283813 
L 359.226723 75.955319 
L 360.736744 77.822921 
L 362.246765 81.370128 
L 363.756786 91.228122 
L 365.266808 90.263004 
L 366.776829 106.667927 
L 368.28685 98.009437 
L 369.796871 81.268029 
L 371.306892 67.383729 
L 372.816913 65.50265 
L 374.326934 61.138987 
L 375.836956 60.228932 
L 377.346977 58.163613 
L 378.856998 63.44931 
L 380.367019 60.293041 
L 381.87704 56.149068 
L 383.387061 54.680613 
L 384.897082 56.545434 
L 386.407104 55.830574 
L 387.917125 53.568 
L 389.427146 59.255244 
L 390.937167 58.892751 
L 392.447188 57.584037 
L 393.957209 55.115071 
L 395.46723 53.959453 
L 396.977252 63.49024 
L 398.487273 65.803363 
L 398.487273 65.803363 
" clip-path="url(#p169348f876)" style="fill: none; stroke: #ff7f0e; stroke-opacity: 0.7; stroke-width: 1.5; stroke-linecap: square"/>
   </g>
   <g id="line2d_16">
    <path d="M 73.832727 135.045608 
L 75.342748 138.654407 
L 76.85277 136.742143 
L 78.362791 135.578824 
L 79.872812 134.696678 
L 81.382833 133.384565 
L 82.892854 134.163038 
L 84.402875 132.73211 
L 85.912896 136.801139 
L 87.422918 143.204102 
L 88.932939 151.144703 
L 90.44296 142.883899 
L 91.952981 137.536273 
L 93.463002 133.984697 
L 94.973023 138.3332 
L 96.483044 137.778746 
L 97.993066 138.111238 
L 99.503087 140.820008 
L 101.013108 141.551657 
L 102.523129 143.173201 
L 104.03315 140.681532 
L 105.543171 141.12239 
L 107.053192 138.079798 
L 108.563214 136.53967 
L 110.073235 135.407873 
L 111.583256 136.756336 
L 113.093277 137.093888 
L 114.603298 135.474072 
L 117.62334 133.874454 
L 119.133362 133.991022 
L 120.643383 133.60052 
L 122.153404 131.928532 
L 123.663425 131.636139 
L 125.173446 132.053878 
L 126.683467 132.042376 
L 128.193488 139.342073 
L 129.70351 140.703364 
L 131.213531 136.698452 
L 132.723552 138.931636 
L 134.233573 138.835154 
L 135.743594 138.195663 
L 137.253615 137.008738 
L 138.763636 137.742803 
L 140.273658 137.306153 
L 141.783679 138.140216 
L 143.2937 139.840885 
L 144.803721 141.31915 
L 146.313742 141.406905 
L 147.823763 143.740715 
L 149.333784 144.662698 
L 150.843805 145.875593 
L 152.353827 144.554439 
L 153.863848 141.554257 
L 155.373869 142.340943 
L 156.88389 140.590848 
L 158.393911 137.32994 
L 159.903932 142.536996 
L 161.413953 145.590726 
L 162.923975 145.965146 
L 164.433996 143.425983 
L 165.944017 140.104038 
L 168.964059 138.874321 
L 170.47408 137.259205 
L 171.984101 140.235902 
L 173.494123 138.605021 
L 175.004144 140.949899 
L 176.514165 139.879947 
L 178.024186 139.87412 
L 179.534207 138.564705 
L 181.044228 139.818047 
L 182.554249 142.319928 
L 184.064271 141.331337 
L 185.574292 144.515277 
L 187.084313 145.137735 
L 188.594334 143.564398 
L 190.104355 140.907177 
L 191.614376 141.211782 
L 193.124397 139.031135 
L 194.634419 137.850594 
L 196.14444 140.960106 
L 197.654461 139.524897 
L 199.164482 143.058603 
L 200.674503 146.297549 
L 202.184524 144.741823 
L 203.694545 147.628743 
L 205.204567 145.195404 
L 206.714588 141.787415 
L 208.224609 141.202038 
L 209.73463 141.27247 
L 212.754672 148.709506 
L 214.264693 144.641278 
L 215.774715 146.913168 
L 217.284736 145.296656 
L 218.794757 141.396329 
L 220.304778 142.507793 
L 221.814799 140.456128 
L 223.32482 145.242094 
L 224.834841 144.538694 
L 226.344863 145.418081 
L 227.854884 143.41407 
L 229.364905 141.181885 
L 230.874926 142.21964 
L 232.384947 142.266376 
L 233.894968 141.530543 
L 235.404989 144.874106 
L 236.915011 154.999938 
L 238.425032 147.094987 
L 239.935053 145.363355 
L 241.445074 144.727372 
L 242.955095 145.182426 
L 244.465116 140.908395 
L 245.975137 150.897975 
L 247.485159 148.032857 
L 248.99518 151.056429 
L 250.505201 145.26916 
L 252.015222 148.532074 
L 253.525243 149.288819 
L 255.035264 156.716072 
L 256.545285 150.726094 
L 258.055307 147.792687 
L 259.565328 144.56187 
L 261.075349 144.533557 
L 262.58537 141.994433 
L 264.095391 145.117899 
L 265.605412 152.729188 
L 267.115433 146.53719 
L 268.625455 146.397232 
L 270.135476 146.476723 
L 271.645497 152.499248 
L 273.155518 149.633514 
L 274.665539 152.46557 
L 276.17556 150.776437 
L 277.685581 152.49528 
L 279.195603 152.924459 
L 280.705624 148.387673 
L 282.215645 152.733607 
L 283.725666 155.211904 
L 285.235687 165.111627 
L 286.745708 166.971886 
L 288.255729 166.666289 
L 289.765751 166.642473 
L 291.275772 162.965027 
L 292.785793 167.45388 
L 294.295814 176.882412 
L 295.805835 169.125168 
L 297.315856 164.436052 
L 298.825877 160.569961 
L 300.335899 157.786206 
L 301.84592 157.424025 
L 303.355941 157.760311 
L 304.865962 162.41417 
L 306.375983 164.646763 
L 307.886004 162.423695 
L 309.396025 159.960336 
L 312.416068 170.281502 
L 313.926089 167.220436 
L 315.43611 172.075916 
L 316.946131 168.431353 
L 318.456152 165.820933 
L 319.966173 166.807022 
L 321.476195 163.414222 
L 324.496237 159.341177 
L 326.006258 159.690966 
L 327.516279 161.156627 
L 329.0263 158.959619 
L 330.536321 162.689736 
L 332.046342 176.357571 
L 333.556364 172.909887 
L 335.066385 164.530666 
L 336.576406 161.703264 
L 338.086427 160.576988 
L 339.596448 155.431038 
L 341.106469 156.300238 
L 342.61649 165.676851 
L 344.126512 161.580297 
L 345.636533 161.836076 
L 347.146554 166.194915 
L 348.656575 167.987478 
L 350.166596 162.322338 
L 351.676617 166.061845 
L 353.186638 162.026277 
L 354.69666 159.474569 
L 356.206681 158.470866 
L 357.716702 159.192372 
L 359.226723 157.549971 
L 360.736744 160.008593 
L 362.246765 163.8618 
L 363.756786 174.52129 
L 365.266808 177.343842 
L 366.776829 197.003642 
L 368.28685 193.1247 
L 371.306892 167.633468 
L 372.816913 169.036787 
L 374.326934 166.628698 
L 375.836956 167.084563 
L 377.346977 165.499555 
L 378.856998 171.31982 
L 380.367019 169.000195 
L 381.87704 165.181737 
L 383.387061 164.608306 
L 384.897082 167.314569 
L 386.407104 166.99639 
L 387.917125 165.060992 
L 389.427146 171.136284 
L 390.937167 171.377452 
L 392.447188 170.564448 
L 393.957209 168.38797 
L 395.46723 167.686125 
L 396.977252 177.787111 
L 398.487273 180.645682 
L 398.487273 180.645682 
" clip-path="url(#p169348f876)" style="fill: none; stroke: #2ca02c; stroke-opacity: 0.7; stroke-width: 1.5; stroke-linecap: square"/>
   </g>
   <g id="patch_3">
    <path d="M 57.6 307.584 
L 57.6 41.472 
" style="fill: none; stroke: #000000; stroke-width: 0.8; stroke-linejoin: miter; stroke-linecap: square"/>
   </g>
   <g id="patch_4">
    <path d="M 414.72 307.584 
L 414.72 41.472 
" style="fill: none; stroke: #000000; stroke-width: 0.8; stroke-linejoin: miter; stroke-linecap: square"/>
   </g>
   <g id="patch_5">
    <path d="M 57.6 307.584 
L 414.72 307.584 
" style="fill: none; stroke: #000000; stroke-width: 0.8; stroke-linejoin: miter; stroke-linecap: square"/>
   </g>
   <g id="patch_6">
    <path d="M 57.6 41.472 
L 414.72 41.472 
" style="fill: none; stroke: #000000; stroke-width: 0.8; stroke-linejoin: miter; stroke-linecap: square"/>
   </g>
   <g id="text_14">
    <!-- 1final_zhangext_jc_cci -->
    <g transform="translate(169.455938 35.472) scale(0.12 -0.12)">
     <defs>
      <path id="DejaVuSans-66" d="M 2375 4863 
L 2375 4384 
L 1825 4384 
Q 1516 4384 1395 4259 
Q 1275 4134 1275 3809 
L 1275 3500 
L 2222 3500 
L 2222 3053 
L 1275 3053 
L 1275 0 
L 697 0 
L 697 3053 
L 147 3053 
L 147 3500 
L 697 3500 
L 697 3744 
Q 697 4328 969 4595 
Q 1241 4863 1831 4863 
L 2375 4863 
z
" transform="scale(0.015625)"/>
      <path id="DejaVuSans-69" d="M 603 3500 
L 1178 3500 
L 1178 0 
L 603 0 
L 603 3500 
z
M 603 4863 
L 1178 4863 
L 1178 4134 
L 603 4134 
L 603 4863 
z
" transform="scale(0.015625)"/>
      <path id="DejaVuSans-6e" d="M 3513 2113 
L 3513 0 
L 2938 0 
L 2938 2094 
Q 2938 2591 2744 2837 
Q 2550 3084 2163 3084 
Q 1697 3084 1428 2787 
Q 1159 2491 1159 1978 
L 1159 0 
L 581 0 
L 581 3500 
L 1159 3500 
L 1159 2956 
Q 1366 3272 1645 3428 
Q 1925 3584 2291 3584 
Q 2894 3584 3203 3211 
Q 3513 2838 3513 2113 
z
" transform="scale(0.015625)"/>
      <path id="DejaVuSans-61" d="M 2194 1759 
Q 1497 1759 1228 1600 
Q 959 1441 959 1056 
Q 959 750 1161 570 
Q 1363 391 1709 391 
Q 2188 391 2477 730 
Q 2766 1069 2766 1631 
L 2766 1759 
L 2194 1759 
z
M 3341 1997 
L 3341 0 
L 2766 0 
L 2766 531 
Q 2569 213 2275 61 
Q 1981 -91 1556 -91 
Q 1019 -91 701 211 
Q 384 513 384 1019 
Q 384 1609 779 1909 
Q 1175 2209 1959 2209 
L 2766 2209 
L 2766 2266 
Q 2766 2663 2505 2880 
Q 2244 3097 1772 3097 
Q 1472 3097 1187 3025 
Q 903 2953 641 2809 
L 641 3341 
Q 956 3463 1253 3523 
Q 1550 3584 1831 3584 
Q 2591 3584 2966 3190 
Q 3341 2797 3341 1997 
z
" transform="scale(0.015625)"/>
      <path id="DejaVuSans-6c" d="M 603 4863 
L 1178 4863 
L 1178 0 
L 603 0 
L 603 4863 
z
" transform="scale(0.015625)"/>
      <path id="DejaVuSans-5f" d="M 3263 -1063 
L 3263 -1509 
L -63 -1509 
L -63 -1063 
L 3263 -1063 
z
" transform="scale(0.015625)"/>
      <path id="DejaVuSans-7a" d="M 353 3500 
L 3084 3500 
L 3084 2975 
L 922 459 
L 3084 459 
L 3084 0 
L 275 0 
L 275 525 
L 2438 3041 
L 353 3041 
L 353 3500 
z
" transform="scale(0.015625)"/>
      <path id="DejaVuSans-68" d="M 3513 2113 
L 3513 0 
L 2938 0 
L 2938 2094 
Q 2938 2591 2744 2837 
Q 2550 3084 2163 3084 
Q 1697 3084 1428 2787 
Q 1159 2491 1159 1978 
L 1159 0 
L 581 0 
L 581 4863 
L 1159 4863 
L 1159 2956 
Q 1366 3272 1645 3428 
Q 1925 3584 2291 3584 
Q 2894 3584 3203 3211 
Q 3513 2838 3513 2113 
z
" transform="scale(0.015625)"/>
      <path id="DejaVuSans-67" d="M 2906 1791 
Q 2906 2416 2648 2759 
Q 2391 3103 1925 3103 
Q 1463 3103 1205 2759 
Q 947 2416 947 1791 
Q 947 1169 1205 825 
Q 1463 481 1925 481 
Q 2391 481 2648 825 
Q 2906 1169 2906 1791 
z
M 3481 434 
Q 3481 -459 3084 -895 
Q 2688 -1331 1869 -1331 
Q 1566 -1331 1297 -1286 
Q 1028 -1241 775 -1147 
L 775 -588 
Q 1028 -725 1275 -790 
Q 1522 -856 1778 -856 
Q 2344 -856 2625 -561 
Q 2906 -266 2906 331 
L 2906 616 
Q 2728 306 2450 153 
Q 2172 0 1784 0 
Q 1141 0 747 490 
Q 353 981 353 1791 
Q 353 2603 747 3093 
Q 1141 3584 1784 3584 
Q 2172 3584 2450 3431 
Q 2728 3278 2906 2969 
L 2906 3500 
L 3481 3500 
L 3481 434 
z
" transform="scale(0.015625)"/>
      <path id="DejaVuSans-65" d="M 3597 1894 
L 3597 1613 
L 953 1613 
Q 991 1019 1311 708 
Q 1631 397 2203 397 
Q 2534 397 2845 478 
Q 3156 559 3463 722 
L 3463 178 
Q 3153 47 2828 -22 
Q 2503 -91 2169 -91 
Q 1331 -91 842 396 
Q 353 884 353 1716 
Q 353 2575 817 3079 
Q 1281 3584 2069 3584 
Q 2775 3584 3186 3129 
Q 3597 2675 3597 1894 
z
M 3022 2063 
Q 3016 2534 2758 2815 
Q 2500 3097 2075 3097 
Q 1594 3097 1305 2825 
Q 1016 2553 972 2059 
L 3022 2063 
z
" transform="scale(0.015625)"/>
      <path id="DejaVuSans-78" d="M 3513 3500 
L 2247 1797 
L 3578 0 
L 2900 0 
L 1881 1375 
L 863 0 
L 184 0 
L 1544 1831 
L 300 3500 
L 978 3500 
L 1906 2253 
L 2834 3500 
L 3513 3500 
z
" transform="scale(0.015625)"/>
      <path id="DejaVuSans-74" d="M 1172 4494 
L 1172 3500 
L 2356 3500 
L 2356 3053 
L 1172 3053 
L 1172 1153 
Q 1172 725 1289 603 
Q 1406 481 1766 481 
L 2356 481 
L 2356 0 
L 1766 0 
Q 1100 0 847 248 
Q 594 497 594 1153 
L 594 3053 
L 172 3053 
L 172 3500 
L 594 3500 
L 594 4494 
L 1172 4494 
z
" transform="scale(0.015625)"/>
      <path id="DejaVuSans-6a" d="M 603 3500 
L 1178 3500 
L 1178 -63 
Q 1178 -731 923 -1031 
Q 669 -1331 103 -1331 
L -116 -1331 
L -116 -844 
L 38 -844 
Q 366 -844 484 -692 
Q 603 -541 603 -63 
L 603 3500 
z
M 603 4863 
L 1178 4863 
L 1178 4134 
L 603 4134 
L 603 4863 
z
" transform="scale(0.015625)"/>
      <path id="DejaVuSans-63" d="M 3122 3366 
L 3122 2828 
Q 2878 2963 2633 3030 
Q 2388 3097 2138 3097 
Q 1578 3097 1268 2742 
Q 959 2388 959 1747 
Q 959 1106 1268 751 
Q 1578 397 2138 397 
Q 2388 397 2633 464 
Q 2878 531 3122 666 
L 3122 134 
Q 2881 22 2623 -34 
Q 2366 -91 2075 -91 
Q 1284 -91 818 406 
Q 353 903 353 1747 
Q 353 2603 823 3093 
Q 1294 3584 2113 3584 
Q 2378 3584 2631 3529 
Q 2884 3475 3122 3366 
z
" transform="scale(0.015625)"/>
     </defs>
     <use xlink:href="#DejaVuSans-31"/>
     <use xlink:href="#DejaVuSans-66" x="63.623047"/>
     <use xlink:href="#DejaVuSans-69" x="98.828125"/>
     <use xlink:href="#DejaVuSans-6e" x="126.611328"/>
     <use xlink:href="#DejaVuSans-61" x="189.990234"/>
     <use xlink:href="#DejaVuSans-6c" x="251.269531"/>
     <use xlink:href="#DejaVuSans-5f" x="279.052734"/>
     <use xlink:href="#DejaVuSans-7a" x="329.052734"/>
     <use xlink:href="#DejaVuSans-68" x="381.542969"/>
     <use xlink:href="#DejaVuSans-61" x="444.921875"/>
     <use xlink:href="#DejaVuSans-6e" x="506.201172"/>
     <use xlink:href="#DejaVuSans-67" x="569.580078"/>
     <use xlink:href="#DejaVuSans-65" x="633.056641"/>
     <use xlink:href="#DejaVuSans-78" x="692.830078"/>
     <use xlink:href="#DejaVuSans-74" x="752.009766"/>
     <use xlink:href="#DejaVuSans-5f" x="791.21875"/>
     <use xlink:href="#DejaVuSans-6a" x="841.21875"/>
     <use xlink:href="#DejaVuSans-63" x="869.001953"/>
     <use xlink:href="#DejaVuSans-5f" x="923.982422"/>
     <use xlink:href="#DejaVuSans-63" x="973.982422"/>
     <use xlink:href="#DejaVuSans-63" x="1028.962891"/>
     <use xlink:href="#DejaVuSans-69" x="1083.943359"/>
    </g>
   </g>
   <g id="legend_1">
    <g id="patch_7">
     <path d="M 64.6 93.506375 
L 258.804688 93.506375 
Q 260.804688 93.506375 260.804688 91.506375 
L 260.804688 48.472 
Q 260.804688 46.472 258.804688 46.472 
L 64.6 46.472 
Q 62.6 46.472 62.6 48.472 
L 62.6 91.506375 
Q 62.6 93.506375 64.6 93.506375 
z
" style="fill: #ffffff; opacity: 0.8; stroke: #cccccc; stroke-linejoin: miter"/>
    </g>
    <g id="line2d_17">
     <path d="M 66.6 54.570438 
L 76.6 54.570438 
L 86.6 54.570438 
" style="fill: none; stroke: #1f77b4; stroke-opacity: 0.7; stroke-width: 1.5; stroke-linecap: square"/>
    </g>
    <g id="text_15">
     <!-- Positive cumulative predictions -->
     <g transform="translate(94.6 58.070438) scale(0.1 -0.1)">
      <defs>
       <path id="DejaVuSans-50" d="M 1259 4147 
L 1259 2394 
L 2053 2394 
Q 2494 2394 2734 2622 
Q 2975 2850 2975 3272 
Q 2975 3691 2734 3919 
Q 2494 4147 2053 4147 
L 1259 4147 
z
M 628 4666 
L 2053 4666 
Q 2838 4666 3239 4311 
Q 3641 3956 3641 3272 
Q 3641 2581 3239 2228 
Q 2838 1875 2053 1875 
L 1259 1875 
L 1259 0 
L 628 0 
L 628 4666 
z
" transform="scale(0.015625)"/>
       <path id="DejaVuSans-6f" d="M 1959 3097 
Q 1497 3097 1228 2736 
Q 959 2375 959 1747 
Q 959 1119 1226 758 
Q 1494 397 1959 397 
Q 2419 397 2687 759 
Q 2956 1122 2956 1747 
Q 2956 2369 2687 2733 
Q 2419 3097 1959 3097 
z
M 1959 3584 
Q 2709 3584 3137 3096 
Q 3566 2609 3566 1747 
Q 3566 888 3137 398 
Q 2709 -91 1959 -91 
Q 1206 -91 779 398 
Q 353 888 353 1747 
Q 353 2609 779 3096 
Q 1206 3584 1959 3584 
z
" transform="scale(0.015625)"/>
       <path id="DejaVuSans-73" d="M 2834 3397 
L 2834 2853 
Q 2591 2978 2328 3040 
Q 2066 3103 1784 3103 
Q 1356 3103 1142 2972 
Q 928 2841 928 2578 
Q 928 2378 1081 2264 
Q 1234 2150 1697 2047 
L 1894 2003 
Q 2506 1872 2764 1633 
Q 3022 1394 3022 966 
Q 3022 478 2636 193 
Q 2250 -91 1575 -91 
Q 1294 -91 989 -36 
Q 684 19 347 128 
L 347 722 
Q 666 556 975 473 
Q 1284 391 1588 391 
Q 1994 391 2212 530 
Q 2431 669 2431 922 
Q 2431 1156 2273 1281 
Q 2116 1406 1581 1522 
L 1381 1569 
Q 847 1681 609 1914 
Q 372 2147 372 2553 
Q 372 3047 722 3315 
Q 1072 3584 1716 3584 
Q 2034 3584 2315 3537 
Q 2597 3491 2834 3397 
z
" transform="scale(0.015625)"/>
       <path id="DejaVuSans-76" d="M 191 3500 
L 800 3500 
L 1894 563 
L 2988 3500 
L 3597 3500 
L 2284 0 
L 1503 0 
L 191 3500 
z
" transform="scale(0.015625)"/>
       <path id="DejaVuSans-20" transform="scale(0.015625)"/>
       <path id="DejaVuSans-75" d="M 544 1381 
L 544 3500 
L 1119 3500 
L 1119 1403 
Q 1119 906 1312 657 
Q 1506 409 1894 409 
Q 2359 409 2629 706 
Q 2900 1003 2900 1516 
L 2900 3500 
L 3475 3500 
L 3475 0 
L 2900 0 
L 2900 538 
Q 2691 219 2414 64 
Q 2138 -91 1772 -91 
Q 1169 -91 856 284 
Q 544 659 544 1381 
z
M 1991 3584 
L 1991 3584 
z
" transform="scale(0.015625)"/>
       <path id="DejaVuSans-6d" d="M 3328 2828 
Q 3544 3216 3844 3400 
Q 4144 3584 4550 3584 
Q 5097 3584 5394 3201 
Q 5691 2819 5691 2113 
L 5691 0 
L 5113 0 
L 5113 2094 
Q 5113 2597 4934 2840 
Q 4756 3084 4391 3084 
Q 3944 3084 3684 2787 
Q 3425 2491 3425 1978 
L 3425 0 
L 2847 0 
L 2847 2094 
Q 2847 2600 2669 2842 
Q 2491 3084 2119 3084 
Q 1678 3084 1418 2786 
Q 1159 2488 1159 1978 
L 1159 0 
L 581 0 
L 581 3500 
L 1159 3500 
L 1159 2956 
Q 1356 3278 1631 3431 
Q 1906 3584 2284 3584 
Q 2666 3584 2933 3390 
Q 3200 3197 3328 2828 
z
" transform="scale(0.015625)"/>
       <path id="DejaVuSans-70" d="M 1159 525 
L 1159 -1331 
L 581 -1331 
L 581 3500 
L 1159 3500 
L 1159 2969 
Q 1341 3281 1617 3432 
Q 1894 3584 2278 3584 
Q 2916 3584 3314 3078 
Q 3713 2572 3713 1747 
Q 3713 922 3314 415 
Q 2916 -91 2278 -91 
Q 1894 -91 1617 61 
Q 1341 213 1159 525 
z
M 3116 1747 
Q 3116 2381 2855 2742 
Q 2594 3103 2138 3103 
Q 1681 3103 1420 2742 
Q 1159 2381 1159 1747 
Q 1159 1113 1420 752 
Q 1681 391 2138 391 
Q 2594 391 2855 752 
Q 3116 1113 3116 1747 
z
" transform="scale(0.015625)"/>
       <path id="DejaVuSans-72" d="M 2631 2963 
Q 2534 3019 2420 3045 
Q 2306 3072 2169 3072 
Q 1681 3072 1420 2755 
Q 1159 2438 1159 1844 
L 1159 0 
L 581 0 
L 581 3500 
L 1159 3500 
L 1159 2956 
Q 1341 3275 1631 3429 
Q 1922 3584 2338 3584 
Q 2397 3584 2469 3576 
Q 2541 3569 2628 3553 
L 2631 2963 
z
" transform="scale(0.015625)"/>
       <path id="DejaVuSans-64" d="M 2906 2969 
L 2906 4863 
L 3481 4863 
L 3481 0 
L 2906 0 
L 2906 525 
Q 2725 213 2448 61 
Q 2172 -91 1784 -91 
Q 1150 -91 751 415 
Q 353 922 353 1747 
Q 353 2572 751 3078 
Q 1150 3584 1784 3584 
Q 2172 3584 2448 3432 
Q 2725 3281 2906 2969 
z
M 947 1747 
Q 947 1113 1208 752 
Q 1469 391 1925 391 
Q 2381 391 2643 752 
Q 2906 1113 2906 1747 
Q 2906 2381 2643 2742 
Q 2381 3103 1925 3103 
Q 1469 3103 1208 2742 
Q 947 2381 947 1747 
z
" transform="scale(0.015625)"/>
      </defs>
      <use xlink:href="#DejaVuSans-50"/>
      <use xlink:href="#DejaVuSans-6f" x="56.677734"/>
      <use xlink:href="#DejaVuSans-73" x="117.859375"/>
      <use xlink:href="#DejaVuSans-69" x="169.958984"/>
      <use xlink:href="#DejaVuSans-74" x="197.742188"/>
      <use xlink:href="#DejaVuSans-69" x="236.951172"/>
      <use xlink:href="#DejaVuSans-76" x="264.734375"/>
      <use xlink:href="#DejaVuSans-65" x="323.914062"/>
      <use xlink:href="#DejaVuSans-20" x="385.4375"/>
      <use xlink:href="#DejaVuSans-63" x="417.224609"/>
      <use xlink:href="#DejaVuSans-75" x="472.205078"/>
      <use xlink:href="#DejaVuSans-6d" x="535.583984"/>
      <use xlink:href="#DejaVuSans-75" x="632.996094"/>
      <use xlink:href="#DejaVuSans-6c" x="696.375"/>
      <use xlink:href="#DejaVuSans-61" x="724.158203"/>
      <use xlink:href="#DejaVuSans-74" x="785.4375"/>
      <use xlink:href="#DejaVuSans-69" x="824.646484"/>
      <use xlink:href="#DejaVuSans-76" x="852.429688"/>
      <use xlink:href="#DejaVuSans-65" x="911.609375"/>
      <use xlink:href="#DejaVuSans-20" x="973.132812"/>
      <use xlink:href="#DejaVuSans-70" x="1004.919922"/>
      <use xlink:href="#DejaVuSans-72" x="1068.396484"/>
      <use xlink:href="#DejaVuSans-65" x="1107.259766"/>
      <use xlink:href="#DejaVuSans-64" x="1168.783203"/>
      <use xlink:href="#DejaVuSans-69" x="1232.259766"/>
      <use xlink:href="#DejaVuSans-63" x="1260.042969"/>
      <use xlink:href="#DejaVuSans-74" x="1315.023438"/>
      <use xlink:href="#DejaVuSans-69" x="1354.232422"/>
      <use xlink:href="#DejaVuSans-6f" x="1382.015625"/>
      <use xlink:href="#DejaVuSans-6e" x="1443.197266"/>
      <use xlink:href="#DejaVuSans-73" x="1506.576172"/>
     </g>
    </g>
    <g id="line2d_18">
     <path d="M 66.6 69.248563 
L 76.6 69.248563 
L 86.6 69.248563 
" style="fill: none; stroke: #ff7f0e; stroke-opacity: 0.7; stroke-width: 1.5; stroke-linecap: square"/>
    </g>
    <g id="text_16">
     <!-- Negative cumulative predictions -->
     <g transform="translate(94.6 72.748563) scale(0.1 -0.1)">
      <defs>
       <path id="DejaVuSans-4e" d="M 628 4666 
L 1478 4666 
L 3547 763 
L 3547 4666 
L 4159 4666 
L 4159 0 
L 3309 0 
L 1241 3903 
L 1241 0 
L 628 0 
L 628 4666 
z
" transform="scale(0.015625)"/>
      </defs>
      <use xlink:href="#DejaVuSans-4e"/>
      <use xlink:href="#DejaVuSans-65" x="74.804688"/>
      <use xlink:href="#DejaVuSans-67" x="136.328125"/>
      <use xlink:href="#DejaVuSans-61" x="199.804688"/>
      <use xlink:href="#DejaVuSans-74" x="261.083984"/>
      <use xlink:href="#DejaVuSans-69" x="300.292969"/>
      <use xlink:href="#DejaVuSans-76" x="328.076172"/>
      <use xlink:href="#DejaVuSans-65" x="387.255859"/>
      <use xlink:href="#DejaVuSans-20" x="448.779297"/>
      <use xlink:href="#DejaVuSans-63" x="480.566406"/>
      <use xlink:href="#DejaVuSans-75" x="535.546875"/>
      <use xlink:href="#DejaVuSans-6d" x="598.925781"/>
      <use xlink:href="#DejaVuSans-75" x="696.337891"/>
      <use xlink:href="#DejaVuSans-6c" x="759.716797"/>
      <use xlink:href="#DejaVuSans-61" x="787.5"/>
      <use xlink:href="#DejaVuSans-74" x="848.779297"/>
      <use xlink:href="#DejaVuSans-69" x="887.988281"/>
      <use xlink:href="#DejaVuSans-76" x="915.771484"/>
      <use xlink:href="#DejaVuSans-65" x="974.951172"/>
      <use xlink:href="#DejaVuSans-20" x="1036.474609"/>
      <use xlink:href="#DejaVuSans-70" x="1068.261719"/>
      <use xlink:href="#DejaVuSans-72" x="1131.738281"/>
      <use xlink:href="#DejaVuSans-65" x="1170.601562"/>
      <use xlink:href="#DejaVuSans-64" x="1232.125"/>
      <use xlink:href="#DejaVuSans-69" x="1295.601562"/>
      <use xlink:href="#DejaVuSans-63" x="1323.384766"/>
      <use xlink:href="#DejaVuSans-74" x="1378.365234"/>
      <use xlink:href="#DejaVuSans-69" x="1417.574219"/>
      <use xlink:href="#DejaVuSans-6f" x="1445.357422"/>
      <use xlink:href="#DejaVuSans-6e" x="1506.539062"/>
      <use xlink:href="#DejaVuSans-73" x="1569.917969"/>
     </g>
    </g>
    <g id="line2d_19">
     <path d="M 66.6 83.926688 
L 76.6 83.926688 
L 86.6 83.926688 
" style="fill: none; stroke: #2ca02c; stroke-opacity: 0.7; stroke-width: 1.5; stroke-linecap: square"/>
    </g>
    <g id="text_17">
     <!-- Average cumulative predictions -->
     <g transform="translate(94.6 87.426688) scale(0.1 -0.1)">
      <defs>
       <path id="DejaVuSans-41" d="M 2188 4044 
L 1331 1722 
L 3047 1722 
L 2188 4044 
z
M 1831 4666 
L 2547 4666 
L 4325 0 
L 3669 0 
L 3244 1197 
L 1141 1197 
L 716 0 
L 50 0 
L 1831 4666 
z
" transform="scale(0.015625)"/>
      </defs>
      <use xlink:href="#DejaVuSans-41"/>
      <use xlink:href="#DejaVuSans-76" x="62.533203"/>
      <use xlink:href="#DejaVuSans-65" x="121.712891"/>
      <use xlink:href="#DejaVuSans-72" x="183.236328"/>
      <use xlink:href="#DejaVuSans-61" x="224.349609"/>
      <use xlink:href="#DejaVuSans-67" x="285.628906"/>
      <use xlink:href="#DejaVuSans-65" x="349.105469"/>
      <use xlink:href="#DejaVuSans-20" x="410.628906"/>
      <use xlink:href="#DejaVuSans-63" x="442.416016"/>
      <use xlink:href="#DejaVuSans-75" x="497.396484"/>
      <use xlink:href="#DejaVuSans-6d" x="560.775391"/>
      <use xlink:href="#DejaVuSans-75" x="658.1875"/>
      <use xlink:href="#DejaVuSans-6c" x="721.566406"/>
      <use xlink:href="#DejaVuSans-61" x="749.349609"/>
      <use xlink:href="#DejaVuSans-74" x="810.628906"/>
      <use xlink:href="#DejaVuSans-69" x="849.837891"/>
      <use xlink:href="#DejaVuSans-76" x="877.621094"/>
      <use xlink:href="#DejaVuSans-65" x="936.800781"/>
      <use xlink:href="#DejaVuSans-20" x="998.324219"/>
      <use xlink:href="#DejaVuSans-70" x="1030.111328"/>
      <use xlink:href="#DejaVuSans-72" x="1093.587891"/>
      <use xlink:href="#DejaVuSans-65" x="1132.451172"/>
      <use xlink:href="#DejaVuSans-64" x="1193.974609"/>
      <use xlink:href="#DejaVuSans-69" x="1257.451172"/>
      <use xlink:href="#DejaVuSans-63" x="1285.234375"/>
      <use xlink:href="#DejaVuSans-74" x="1340.214844"/>
      <use xlink:href="#DejaVuSans-69" x="1379.423828"/>
      <use xlink:href="#DejaVuSans-6f" x="1407.207031"/>
      <use xlink:href="#DejaVuSans-6e" x="1468.388672"/>
      <use xlink:href="#DejaVuSans-73" x="1531.767578"/>
     </g>
    </g>
   </g>
  </g>
 </g>
 <defs>
  <clipPath id="p169348f876">
   <rect x="57.6" y="41.472" width="357.12" height="266.112"/>
  </clipPath>
 </defs>
</svg>
