<?xml version="1.0" encoding="utf-8" standalone="no"?>
<!DOCTYPE svg PUBLIC "-//W3C//DTD SVG 1.1//EN"
  "http://www.w3.org/Graphics/SVG/1.1/DTD/svg11.dtd">
<svg xmlns:xlink="http://www.w3.org/1999/xlink" width="460.8pt" height="345.6pt" viewBox="0 0 460.8 345.6" xmlns="http://www.w3.org/2000/svg" version="1.1">
 <metadata>
  <rdf:RDF xmlns:dc="http://purl.org/dc/elements/1.1/" xmlns:cc="http://creativecommons.org/ns#" xmlns:rdf="http://www.w3.org/1999/02/22-rdf-syntax-ns#">
   <cc:Work>
    <dc:type rdf:resource="http://purl.org/dc/dcmitype/StillImage"/>
    <dc:date>2024-09-06T00:42:58.227707</dc:date>
    <dc:format>image/svg+xml</dc:format>
    <dc:creator>
     <cc:Agent>
      <dc:title>Matplotlib v3.9.0, https://matplotlib.org/</dc:title>
     </cc:Agent>
    </dc:creator>
   </cc:Work>
  </rdf:RDF>
 </metadata>
 <defs>
  <style type="text/css">*{stroke-linejoin: round; stroke-linecap: butt}</style>
 </defs>
 <g id="figure_1">
  <g id="patch_1">
   <path d="M 0 345.6 
L 460.8 345.6 
L 460.8 0 
L 0 0 
z
" style="fill: #ffffff"/>
  </g>
  <g id="axes_1">
   <g id="patch_2">
    <path d="M 57.6 307.584 
L 414.72 307.584 
L 414.72 41.472 
L 57.6 41.472 
z
" style="fill: #ffffff"/>
   </g>
   <g id="matplotlib.axis_1">
    <g id="xtick_1">
     <g id="line2d_1">
      <defs>
       <path id="m53485e0f9b" d="M 0 0 
L 0 3.5 
" style="stroke: #000000; stroke-width: 0.8"/>
      </defs>
      <g>
       <use xlink:href="#m53485e0f9b" x="73.832727" y="307.584" style="stroke: #000000; stroke-width: 0.8"/>
      </g>
     </g>
     <g id="text_1">
      <!-- 0 -->
      <g transform="translate(70.651477 322.182437) scale(0.1 -0.1)">
       <defs>
        <path id="DejaVuSans-30" d="M 2034 4250 
Q 1547 4250 1301 3770 
Q 1056 3291 1056 2328 
Q 1056 1369 1301 889 
Q 1547 409 2034 409 
Q 2525 409 2770 889 
Q 3016 1369 3016 2328 
Q 3016 3291 2770 3770 
Q 2525 4250 2034 4250 
z
M 2034 4750 
Q 2819 4750 3233 4129 
Q 3647 3509 3647 2328 
Q 3647 1150 3233 529 
Q 2819 -91 2034 -91 
Q 1250 -91 836 529 
Q 422 1150 422 2328 
Q 422 3509 836 4129 
Q 1250 4750 2034 4750 
z
" transform="scale(0.015625)"/>
       </defs>
       <use xlink:href="#DejaVuSans-30"/>
      </g>
     </g>
    </g>
    <g id="xtick_2">
     <g id="line2d_2">
      <g>
       <use xlink:href="#m53485e0f9b" x="149.333784" y="307.584" style="stroke: #000000; stroke-width: 0.8"/>
      </g>
     </g>
     <g id="text_2">
      <!-- 50 -->
      <g transform="translate(142.971284 322.182437) scale(0.1 -0.1)">
       <defs>
        <path id="DejaVuSans-35" d="M 691 4666 
L 3169 4666 
L 3169 4134 
L 1269 4134 
L 1269 2991 
Q 1406 3038 1543 3061 
Q 1681 3084 1819 3084 
Q 2600 3084 3056 2656 
Q 3513 2228 3513 1497 
Q 3513 744 3044 326 
Q 2575 -91 1722 -91 
Q 1428 -91 1123 -41 
Q 819 9 494 109 
L 494 744 
Q 775 591 1075 516 
Q 1375 441 1709 441 
Q 2250 441 2565 725 
Q 2881 1009 2881 1497 
Q 2881 1984 2565 2268 
Q 2250 2553 1709 2553 
Q 1456 2553 1204 2497 
Q 953 2441 691 2322 
L 691 4666 
z
" transform="scale(0.015625)"/>
       </defs>
       <use xlink:href="#DejaVuSans-35"/>
       <use xlink:href="#DejaVuSans-30" x="63.623047"/>
      </g>
     </g>
    </g>
    <g id="xtick_3">
     <g id="line2d_3">
      <g>
       <use xlink:href="#m53485e0f9b" x="224.834841" y="307.584" style="stroke: #000000; stroke-width: 0.8"/>
      </g>
     </g>
     <g id="text_3">
      <!-- 100 -->
      <g transform="translate(215.291091 322.182437) scale(0.1 -0.1)">
       <defs>
        <path id="DejaVuSans-31" d="M 794 531 
L 1825 531 
L 1825 4091 
L 703 3866 
L 703 4441 
L 1819 4666 
L 2450 4666 
L 2450 531 
L 3481 531 
L 3481 0 
L 794 0 
L 794 531 
z
" transform="scale(0.015625)"/>
       </defs>
       <use xlink:href="#DejaVuSans-31"/>
       <use xlink:href="#DejaVuSans-30" x="63.623047"/>
       <use xlink:href="#DejaVuSans-30" x="127.246094"/>
      </g>
     </g>
    </g>
    <g id="xtick_4">
     <g id="line2d_4">
      <g>
       <use xlink:href="#m53485e0f9b" x="300.335899" y="307.584" style="stroke: #000000; stroke-width: 0.8"/>
      </g>
     </g>
     <g id="text_4">
      <!-- 150 -->
      <g transform="translate(290.792149 322.182437) scale(0.1 -0.1)">
       <use xlink:href="#DejaVuSans-31"/>
       <use xlink:href="#DejaVuSans-35" x="63.623047"/>
       <use xlink:href="#DejaVuSans-30" x="127.246094"/>
      </g>
     </g>
    </g>
    <g id="xtick_5">
     <g id="line2d_5">
      <g>
       <use xlink:href="#m53485e0f9b" x="375.836956" y="307.584" style="stroke: #000000; stroke-width: 0.8"/>
      </g>
     </g>
     <g id="text_5">
      <!-- 200 -->
      <g transform="translate(366.293206 322.182437) scale(0.1 -0.1)">
       <defs>
        <path id="DejaVuSans-32" d="M 1228 531 
L 3431 531 
L 3431 0 
L 469 0 
L 469 531 
Q 828 903 1448 1529 
Q 2069 2156 2228 2338 
Q 2531 2678 2651 2914 
Q 2772 3150 2772 3378 
Q 2772 3750 2511 3984 
Q 2250 4219 1831 4219 
Q 1534 4219 1204 4116 
Q 875 4013 500 3803 
L 500 4441 
Q 881 4594 1212 4672 
Q 1544 4750 1819 4750 
Q 2544 4750 2975 4387 
Q 3406 4025 3406 3419 
Q 3406 3131 3298 2873 
Q 3191 2616 2906 2266 
Q 2828 2175 2409 1742 
Q 1991 1309 1228 531 
z
" transform="scale(0.015625)"/>
       </defs>
       <use xlink:href="#DejaVuSans-32"/>
       <use xlink:href="#DejaVuSans-30" x="63.623047"/>
       <use xlink:href="#DejaVuSans-30" x="127.246094"/>
      </g>
     </g>
    </g>
   </g>
   <g id="matplotlib.axis_2">
    <g id="ytick_1">
     <g id="line2d_6">
      <defs>
       <path id="m6a57ac63bb" d="M 0 0 
L -3.5 0 
" style="stroke: #000000; stroke-width: 0.8"/>
      </defs>
      <g>
       <use xlink:href="#m6a57ac63bb" x="57.6" y="287.800348" style="stroke: #000000; stroke-width: 0.8"/>
      </g>
     </g>
     <g id="text_6">
      <!-- −4000 -->
      <g transform="translate(16.770313 291.599567) scale(0.1 -0.1)">
       <defs>
        <path id="DejaVuSans-2212" d="M 678 2272 
L 4684 2272 
L 4684 1741 
L 678 1741 
L 678 2272 
z
" transform="scale(0.015625)"/>
        <path id="DejaVuSans-34" d="M 2419 4116 
L 825 1625 
L 2419 1625 
L 2419 4116 
z
M 2253 4666 
L 3047 4666 
L 3047 1625 
L 3713 1625 
L 3713 1100 
L 3047 1100 
L 3047 0 
L 2419 0 
L 2419 1100 
L 313 1100 
L 313 1709 
L 2253 4666 
z
" transform="scale(0.015625)"/>
       </defs>
       <use xlink:href="#DejaVuSans-2212"/>
       <use xlink:href="#DejaVuSans-34" x="83.789062"/>
       <use xlink:href="#DejaVuSans-30" x="147.412109"/>
       <use xlink:href="#DejaVuSans-30" x="211.035156"/>
       <use xlink:href="#DejaVuSans-30" x="274.658203"/>
      </g>
     </g>
    </g>
    <g id="ytick_2">
     <g id="line2d_7">
      <g>
       <use xlink:href="#m6a57ac63bb" x="57.6" y="235.035746" style="stroke: #000000; stroke-width: 0.8"/>
      </g>
     </g>
     <g id="text_7">
      <!-- −2000 -->
      <g transform="translate(16.770313 238.834965) scale(0.1 -0.1)">
       <use xlink:href="#DejaVuSans-2212"/>
       <use xlink:href="#DejaVuSans-32" x="83.789062"/>
       <use xlink:href="#DejaVuSans-30" x="147.412109"/>
       <use xlink:href="#DejaVuSans-30" x="211.035156"/>
       <use xlink:href="#DejaVuSans-30" x="274.658203"/>
      </g>
     </g>
    </g>
    <g id="ytick_3">
     <g id="line2d_8">
      <g>
       <use xlink:href="#m6a57ac63bb" x="57.6" y="182.271144" style="stroke: #000000; stroke-width: 0.8"/>
      </g>
     </g>
     <g id="text_8">
      <!-- 0 -->
      <g transform="translate(44.2375 186.070363) scale(0.1 -0.1)">
       <use xlink:href="#DejaVuSans-30"/>
      </g>
     </g>
    </g>
    <g id="ytick_4">
     <g id="line2d_9">
      <g>
       <use xlink:href="#m6a57ac63bb" x="57.6" y="129.506543" style="stroke: #000000; stroke-width: 0.8"/>
      </g>
     </g>
     <g id="text_9">
      <!-- 2000 -->
      <g transform="translate(25.15 133.305761) scale(0.1 -0.1)">
       <use xlink:href="#DejaVuSans-32"/>
       <use xlink:href="#DejaVuSans-30" x="63.623047"/>
       <use xlink:href="#DejaVuSans-30" x="127.246094"/>
       <use xlink:href="#DejaVuSans-30" x="190.869141"/>
      </g>
     </g>
    </g>
    <g id="ytick_5">
     <g id="line2d_10">
      <g>
       <use xlink:href="#m6a57ac63bb" x="57.6" y="76.741941" style="stroke: #000000; stroke-width: 0.8"/>
      </g>
     </g>
     <g id="text_10">
      <!-- 4000 -->
      <g transform="translate(25.15 80.54116) scale(0.1 -0.1)">
       <use xlink:href="#DejaVuSans-34"/>
       <use xlink:href="#DejaVuSans-30" x="63.623047"/>
       <use xlink:href="#DejaVuSans-30" x="127.246094"/>
       <use xlink:href="#DejaVuSans-30" x="190.869141"/>
      </g>
     </g>
    </g>
   </g>
   <g id="line2d_11">
    <path d="M 73.832727 182.56135 
L 75.342748 183.590259 
L 78.362791 183.700186 
L 81.382833 183.462745 
L 82.892854 183.75295 
L 84.402875 183.63423 
L 85.912896 184.610375 
L 87.422918 186.166931 
L 88.932939 188.636314 
L 93.463002 187.886303 
L 94.973023 189.126271 
L 97.993066 189.87377 
L 99.503087 190.632261 
L 101.013108 191.08076 
L 102.523129 191.798359 
L 104.03315 191.7368 
L 105.543171 192.106152 
L 110.073235 192.172108 
L 113.093277 192.849254 
L 114.603298 192.737129 
L 120.643383 192.895423 
L 122.153404 192.6316 
L 126.683467 193.044922 
L 128.193488 194.548713 
L 129.70351 195.208271 
L 131.213531 194.654243 
L 132.723552 195.577623 
L 137.253615 196.052505 
L 138.763636 196.316328 
L 140.273658 196.34271 
L 141.783679 196.632915 
L 143.2937 197.063826 
L 144.803721 197.650832 
L 146.313742 197.988526 
L 147.823763 198.874971 
L 149.333784 199.32347 
L 150.843805 199.945339 
L 152.353827 200.093739 
L 153.863848 200.067357 
L 155.373869 200.515856 
L 156.88389 200.579173 
L 158.393911 200.209821 
L 159.903932 201.528936 
L 161.413953 202.469905 
L 162.923975 203.023933 
L 164.433996 202.971169 
L 165.944017 202.654581 
L 168.964059 202.892022 
L 170.47408 202.786493 
L 171.984101 203.577962 
L 173.494123 203.551579 
L 175.004144 204.290284 
L 179.534207 204.68382 
L 181.044228 205.105937 
L 182.554249 205.877619 
L 184.064271 206.020083 
L 185.574292 206.963251 
L 187.084313 207.622808 
L 188.594334 207.818791 
L 190.104355 207.686879 
L 191.614376 208.029849 
L 193.124397 207.752835 
L 194.634419 207.8056 
L 196.14444 208.570687 
L 197.654461 208.447569 
L 199.164482 209.37095 
L 200.674503 210.470212 
L 202.184524 210.872542 
L 203.694545 211.774817 
L 205.204567 211.708861 
L 206.714588 211.365891 
L 209.73463 211.722052 
L 212.754672 213.485269 
L 214.264693 213.100088 
L 215.774715 213.970704 
L 217.284736 214.128998 
L 218.794757 213.654116 
L 220.304778 214.208144 
L 221.814799 214.03666 
L 223.32482 215.197481 
L 224.834841 215.505274 
L 226.344863 215.962568 
L 229.364905 215.619598 
L 232.384947 216.371493 
L 233.894968 216.459434 
L 235.404989 217.33005 
L 236.915011 219.460421 
L 238.425032 218.990816 
L 239.935053 219.439315 
L 242.955095 220.173622 
L 244.465116 219.606403 
L 245.975137 222.033575 
L 247.485159 222.107445 
L 248.99518 223.162737 
L 250.505201 222.714238 
L 252.015222 224.138882 
L 253.525243 224.534617 
L 255.035264 226.486907 
L 256.545285 226.147706 
L 258.055307 226.411529 
L 259.565328 226.358764 
L 261.075349 226.596205 
L 262.58537 226.345573 
L 264.095391 227.216189 
L 265.605412 229.001392 
L 267.115433 228.440768 
L 268.625455 228.994796 
L 270.135476 229.245428 
L 271.645497 230.696454 
L 273.155518 231.006446 
L 274.665539 231.929827 
L 276.17556 232.336114 
L 277.685581 232.916525 
L 279.195603 233.686888 
L 280.705624 233.497815 
L 282.215645 234.948842 
L 283.725666 236.149236 
L 285.235687 238.836462 
L 286.745708 240.238022 
L 289.765751 242.433616 
L 291.275772 242.791242 
L 292.785793 244.404332 
L 294.295814 247.297591 
L 295.805835 247.513925 
L 297.315856 247.316058 
L 298.825877 247.263294 
L 300.335899 247.078617 
L 303.355941 247.817322 
L 304.865962 249.022114 
L 306.375983 249.84656 
L 309.396025 250.092795 
L 310.906047 251.41191 
L 312.416068 252.904395 
L 313.926089 253.207791 
L 315.43611 254.797325 
L 316.946131 254.891129 
L 318.456152 255.132338 
L 319.966173 255.554455 
L 324.496237 255.317014 
L 326.006258 255.659984 
L 327.516279 256.148057 
L 329.0263 255.972175 
L 330.536321 256.974702 
L 332.046342 260.070226 
L 333.556364 260.682881 
L 335.066385 259.888774 
L 338.086427 260.693434 
L 339.596448 260.332876 
L 341.106469 261.203492 
L 342.61649 263.854913 
L 344.126512 264.138523 
L 345.636533 264.745316 
L 347.146554 265.787417 
L 348.656575 267.22789 
L 350.166596 267.161935 
L 351.676617 268.533814 
L 353.186638 268.771255 
L 356.206681 269.008696 
L 357.716702 269.386842 
L 359.226723 269.353864 
L 360.736744 270.039804 
L 362.246765 271.095096 
L 363.756786 273.662973 
L 365.266808 275.532348 
L 366.776829 280.49222 
L 368.28685 282.118329 
L 371.306892 280.5222 
L 372.816913 281.814933 
L 374.326934 282.091947 
L 375.836956 283.002136 
L 377.346977 283.424253 
L 378.856998 285.323779 
L 383.387061 286.185601 
L 384.897082 286.950687 
L 386.407104 287.953215 
L 387.917125 288.375332 
L 389.427146 289.773594 
L 390.937167 290.71808 
L 392.447188 291.356532 
L 393.957209 291.688949 
L 395.46723 291.873625 
L 396.977252 294.023782 
L 398.487273 295.488 
L 398.487273 295.488 
" clip-path="url(#p9adb730a38)" style="fill: none; stroke: #1f77b4; stroke-opacity: 0.7; stroke-width: 1.5; stroke-linecap: square"/>
   </g>
   <g id="line2d_12">
    <path d="M 73.832727 182.060086 
L 75.342748 182.297527 
L 76.85277 181.506058 
L 79.872812 180.609059 
L 81.382833 180.142972 
L 82.892854 180.083612 
L 84.402875 179.443841 
L 85.912896 179.90817 
L 87.422918 180.567727 
L 88.932939 181.464725 
L 90.44296 178.905642 
L 93.463002 176.139898 
L 94.973023 176.383934 
L 96.483044 175.816714 
L 97.993066 175.57048 
L 102.523129 175.517715 
L 104.03315 174.858158 
L 105.543171 174.673481 
L 108.563214 173.242242 
L 110.073235 172.635449 
L 111.583256 172.49914 
L 113.093277 171.892347 
L 114.603298 171.063943 
L 120.643383 168.503603 
L 122.153404 167.614143 
L 123.663425 166.994159 
L 125.173446 166.551523 
L 126.683467 165.782039 
L 128.193488 166.520743 
L 129.70351 165.729274 
L 131.213531 164.357395 
L 132.723552 164.366189 
L 134.233573 164.049601 
L 137.253615 162.528222 
L 138.763636 162.264399 
L 140.273658 161.406974 
L 141.783679 160.932093 
L 143.2937 160.773799 
L 144.803721 160.852946 
L 146.313742 160.721034 
L 147.823763 161.050813 
L 149.333784 160.945284 
L 150.843805 161.024431 
L 152.353827 160.628696 
L 153.863848 159.837227 
L 155.373869 159.692124 
L 156.88389 159.032567 
L 158.393911 157.957488 
L 159.903932 158.41654 
L 161.413953 158.363776 
L 162.923975 157.941659 
L 167.454038 155.62881 
L 168.964059 154.903297 
L 170.47408 154.022128 
L 171.984101 154.07929 
L 173.494123 153.39335 
L 175.004144 153.118974 
L 179.534207 151.47008 
L 181.044228 151.364551 
L 182.554249 151.681139 
L 184.064271 151.206257 
L 185.574292 151.654756 
L 187.084313 151.364551 
L 188.594334 150.850096 
L 190.104355 150.164156 
L 191.614376 149.992671 
L 193.124397 149.201202 
L 194.634419 148.54824 
L 196.14444 148.764575 
L 197.654461 148.1314 
L 199.164482 148.389947 
L 200.674503 148.495476 
L 202.184524 147.915065 
L 203.694545 147.96783 
L 205.204567 147.149979 
L 206.714588 146.024334 
L 209.73463 144.738197 
L 211.244651 144.804152 
L 212.754672 145.12074 
L 214.264693 143.986301 
L 215.774715 143.880772 
L 217.284736 143.16845 
L 218.794757 141.910893 
L 220.304778 141.521754 
L 221.814799 140.580786 
L 223.32482 140.765462 
L 224.834841 140.026757 
L 226.344863 139.921228 
L 230.874926 137.799651 
L 232.384947 137.23507 
L 233.894968 136.528025 
L 235.404989 136.664333 
L 236.915011 138.141742 
L 238.425032 135.47713 
L 239.935053 134.593322 
L 241.445074 133.221443 
L 242.955095 132.491532 
L 244.465116 130.829448 
L 245.975137 131.838571 
L 247.485159 129.939045 
L 248.99518 130.044574 
L 250.505201 128.408871 
L 252.015222 129.015664 
L 253.525243 128.699077 
L 255.035264 129.939045 
L 256.545285 127.670167 
L 258.055307 126.799551 
L 259.565328 125.436466 
L 261.075349 124.651592 
L 262.58537 123.438006 
L 264.095391 123.337753 
L 265.605412 124.419428 
L 267.115433 122.519902 
L 268.625455 122.124168 
L 270.135476 121.425037 
L 271.645497 122.146153 
L 273.155518 120.827038 
L 274.665539 121.090861 
L 276.17556 120.325774 
L 277.685581 119.943231 
L 279.195603 119.758555 
L 280.705624 118.742836 
L 282.215645 118.830777 
L 283.725666 118.646101 
L 285.235687 120.136701 
L 286.745708 119.186938 
L 288.255729 118.369087 
L 289.765751 117.771088 
L 291.275772 116.583884 
L 292.785793 116.821325 
L 294.295814 118.087676 
L 295.805835 115.607739 
L 297.315856 113.89289 
L 300.335899 111.615218 
L 301.84592 111.066466 
L 303.355941 109.989189 
L 304.865962 109.791321 
L 306.375983 109.712174 
L 309.396025 108.239163 
L 310.906047 108.997654 
L 312.416068 109.103183 
L 313.926089 108.100656 
L 315.43611 108.311714 
L 318.456152 105.699866 
L 319.966173 104.838044 
L 321.476195 103.505738 
L 322.986216 102.439893 
L 324.496237 101.189372 
L 327.516279 99.751537 
L 329.0263 98.489583 
L 330.536321 98.410437 
L 332.046342 100.521021 
L 335.066385 95.534766 
L 338.086427 92.993271 
L 339.596448 90.942047 
L 341.106469 89.781226 
L 342.61649 90.437014 
L 344.126512 88.32643 
L 345.636533 87.877931 
L 347.146554 87.86474 
L 348.656575 87.732828 
L 350.166596 86.400522 
L 351.676617 86.884198 
L 353.186638 85.565083 
L 354.69666 84.07888 
L 357.716702 82.088335 
L 359.226723 80.535548 
L 360.736744 79.8628 
L 362.246765 80.258534 
L 363.756786 81.947001 
L 365.266808 80.918092 
L 366.776829 83.727807 
L 368.28685 80.32449 
L 369.796871 76.327571 
L 371.306892 72.87149 
L 372.816913 71.572162 
L 374.326934 68.709682 
L 375.836956 66.868197 
L 377.346977 64.249754 
L 378.856998 63.526879 
L 380.367019 62.418822 
L 381.87704 60.361003 
L 383.387061 59.081461 
L 384.897082 57.466864 
L 386.407104 56.895248 
L 387.917125 56.097183 
L 389.427146 56.856994 
L 390.937167 56.065524 
L 392.447188 55.485114 
L 393.957209 54.755204 
L 395.46723 53.568 
L 396.977252 54.676057 
L 398.487273 53.620765 
L 398.487273 53.620765 
" clip-path="url(#p9adb730a38)" style="fill: none; stroke: #ff7f0e; stroke-opacity: 0.7; stroke-width: 1.5; stroke-linecap: square"/>
   </g>
   <g id="line2d_13">
    <path d="M 73.832727 182.310718 
L 75.342748 182.943893 
L 76.85277 182.603122 
L 79.872812 182.101858 
L 81.382833 181.802859 
L 82.892854 181.918281 
L 84.402875 181.539036 
L 85.912896 182.259272 
L 87.422918 183.367329 
L 88.932939 185.05052 
L 90.44296 183.659796 
L 93.463002 182.0131 
L 94.973023 182.755103 
L 96.483044 182.656169 
L 97.993066 182.722125 
L 99.503087 183.074988 
L 101.013108 183.220091 
L 102.523129 183.658037 
L 104.03315 183.297479 
L 105.543171 183.389817 
L 108.563214 182.71377 
L 110.073235 182.403778 
L 111.583256 182.5203 
L 113.093277 182.3708 
L 114.603298 181.900536 
L 120.643383 180.699513 
L 122.153404 180.122871 
L 126.683467 179.413481 
L 128.193488 180.534728 
L 129.70351 180.468773 
L 131.213531 179.505819 
L 132.723552 179.971906 
L 134.233573 179.886163 
L 137.253615 179.290363 
L 138.763636 179.290363 
L 140.273658 178.874842 
L 141.783679 178.782504 
L 143.2937 178.918812 
L 144.803721 179.251889 
L 146.313742 179.35478 
L 147.823763 179.962892 
L 149.333784 180.134377 
L 150.843805 180.484885 
L 152.353827 180.361218 
L 153.863848 179.952292 
L 155.373869 180.10399 
L 156.88389 179.80587 
L 158.393911 179.083655 
L 159.903932 179.972738 
L 161.413953 180.41684 
L 162.923975 180.482796 
L 164.433996 180.051885 
L 165.944017 179.431901 
L 168.964059 178.897659 
L 170.47408 178.40431 
L 171.984101 178.828626 
L 173.494123 178.472465 
L 175.004144 178.704629 
L 179.534207 178.07695 
L 181.044228 178.235244 
L 182.554249 178.779379 
L 184.064271 178.61317 
L 185.574292 179.309004 
L 187.084313 179.49368 
L 188.594334 179.334444 
L 190.104355 178.925518 
L 191.614376 179.01126 
L 193.124397 178.477019 
L 194.634419 178.17692 
L 196.14444 178.667631 
L 197.654461 178.289485 
L 200.674503 179.482844 
L 202.184524 179.393804 
L 203.694545 179.871323 
L 205.204567 179.42942 
L 206.714588 178.695112 
L 209.73463 178.230124 
L 211.244651 178.676425 
L 212.754672 179.303005 
L 214.264693 178.543194 
L 215.774715 178.925738 
L 217.284736 178.648724 
L 218.794757 177.782505 
L 220.304778 177.864949 
L 221.814799 177.308723 
L 223.32482 177.981471 
L 224.834841 177.766016 
L 226.344863 177.941898 
L 229.364905 177.062488 
L 232.384947 176.803282 
L 233.894968 176.493729 
L 235.404989 176.997192 
L 236.915011 178.801081 
L 238.425032 177.233973 
L 239.935053 177.016319 
L 241.445074 176.495268 
L 242.955095 176.332577 
L 244.465116 175.217925 
L 245.975137 176.936073 
L 247.485159 176.023245 
L 248.99518 176.603656 
L 250.505201 175.561555 
L 252.015222 176.577273 
L 253.525243 176.616847 
L 255.035264 178.212976 
L 256.545285 176.908937 
L 258.055307 176.60554 
L 259.565328 175.897615 
L 261.075349 175.623899 
L 262.58537 174.89179 
L 264.095391 175.276971 
L 265.605412 176.71041 
L 267.115433 175.480335 
L 268.625455 175.559482 
L 270.135476 175.335232 
L 271.645497 176.421304 
L 273.155518 175.916742 
L 274.665539 176.510344 
L 276.17556 176.330944 
L 277.685581 176.429878 
L 279.195603 176.722721 
L 280.705624 176.120326 
L 282.215645 176.889809 
L 283.725666 177.397669 
L 285.235687 179.486582 
L 289.765751 180.102352 
L 291.275772 179.687563 
L 292.785793 180.612828 
L 294.295814 182.692633 
L 295.805835 181.560832 
L 297.315856 180.604474 
L 300.335899 179.346918 
L 301.84592 179.230835 
L 303.355941 178.903255 
L 304.865962 179.406717 
L 306.375983 179.779367 
L 309.396025 179.165979 
L 310.906047 180.204782 
L 312.416068 181.003789 
L 313.926089 180.654223 
L 315.43611 181.554519 
L 318.456152 180.416102 
L 319.966173 180.19625 
L 321.476195 179.503714 
L 322.986216 178.970792 
L 324.496237 178.253193 
L 327.516279 177.949797 
L 329.0263 177.230879 
L 330.536321 177.692569 
L 332.046342 180.295623 
L 333.556364 179.388365 
L 335.066385 177.71177 
L 338.086427 176.843352 
L 339.596448 175.637461 
L 341.106469 175.492359 
L 342.61649 177.145964 
L 344.126512 176.232477 
L 345.636533 176.311623 
L 347.146554 176.826078 
L 348.656575 177.480359 
L 350.166596 176.781228 
L 351.676617 177.709006 
L 353.186638 177.168169 
L 354.69666 176.477832 
L 356.206681 176.026035 
L 357.716702 175.737589 
L 359.226723 174.944706 
L 360.736744 174.951302 
L 362.246765 175.676815 
L 363.756786 177.804987 
L 365.266808 178.22522 
L 366.776829 182.110013 
L 368.28685 181.22141 
L 369.796871 178.82062 
L 371.306892 176.696845 
L 372.816913 176.693547 
L 374.326934 175.400814 
L 375.836956 174.935167 
L 377.346977 173.837004 
L 378.856998 174.425329 
L 380.367019 174.029594 
L 381.87704 173.14139 
L 384.897082 172.208776 
L 386.407104 172.424231 
L 387.917125 172.236257 
L 389.427146 173.315294 
L 392.447188 173.420823 
L 393.957209 173.222076 
L 395.46723 172.720812 
L 396.977252 174.349919 
L 398.487273 174.554382 
L 398.487273 174.554382 
" clip-path="url(#p9adb730a38)" style="fill: none; stroke: #2ca02c; stroke-opacity: 0.7; stroke-width: 1.5; stroke-linecap: square"/>
   </g>
   <g id="patch_3">
    <path d="M 57.6 307.584 
L 57.6 41.472 
" style="fill: none; stroke: #000000; stroke-width: 0.8; stroke-linejoin: miter; stroke-linecap: square"/>
   </g>
   <g id="patch_4">
    <path d="M 414.72 307.584 
L 414.72 41.472 
" style="fill: none; stroke: #000000; stroke-width: 0.8; stroke-linejoin: miter; stroke-linecap: square"/>
   </g>
   <g id="patch_5">
    <path d="M 57.6 307.584 
L 414.72 307.584 
" style="fill: none; stroke: #000000; stroke-width: 0.8; stroke-linejoin: miter; stroke-linecap: square"/>
   </g>
   <g id="patch_6">
    <path d="M 57.6 41.472 
L 414.72 41.472 
" style="fill: none; stroke: #000000; stroke-width: 0.8; stroke-linejoin: miter; stroke-linecap: square"/>
   </g>
   <g id="text_11">
    <!-- 1final_max_clique_cci -->
    <g transform="translate(171.143438 35.472) scale(0.12 -0.12)">
     <defs>
      <path id="DejaVuSans-66" d="M 2375 4863 
L 2375 4384 
L 1825 4384 
Q 1516 4384 1395 4259 
Q 1275 4134 1275 3809 
L 1275 3500 
L 2222 3500 
L 2222 3053 
L 1275 3053 
L 1275 0 
L 697 0 
L 697 3053 
L 147 3053 
L 147 3500 
L 697 3500 
L 697 3744 
Q 697 4328 969 4595 
Q 1241 4863 1831 4863 
L 2375 4863 
z
" transform="scale(0.015625)"/>
      <path id="DejaVuSans-69" d="M 603 3500 
L 1178 3500 
L 1178 0 
L 603 0 
L 603 3500 
z
M 603 4863 
L 1178 4863 
L 1178 4134 
L 603 4134 
L 603 4863 
z
" transform="scale(0.015625)"/>
      <path id="DejaVuSans-6e" d="M 3513 2113 
L 3513 0 
L 2938 0 
L 2938 2094 
Q 2938 2591 2744 2837 
Q 2550 3084 2163 3084 
Q 1697 3084 1428 2787 
Q 1159 2491 1159 1978 
L 1159 0 
L 581 0 
L 581 3500 
L 1159 3500 
L 1159 2956 
Q 1366 3272 1645 3428 
Q 1925 3584 2291 3584 
Q 2894 3584 3203 3211 
Q 3513 2838 3513 2113 
z
" transform="scale(0.015625)"/>
      <path id="DejaVuSans-61" d="M 2194 1759 
Q 1497 1759 1228 1600 
Q 959 1441 959 1056 
Q 959 750 1161 570 
Q 1363 391 1709 391 
Q 2188 391 2477 730 
Q 2766 1069 2766 1631 
L 2766 1759 
L 2194 1759 
z
M 3341 1997 
L 3341 0 
L 2766 0 
L 2766 531 
Q 2569 213 2275 61 
Q 1981 -91 1556 -91 
Q 1019 -91 701 211 
Q 384 513 384 1019 
Q 384 1609 779 1909 
Q 1175 2209 1959 2209 
L 2766 2209 
L 2766 2266 
Q 2766 2663 2505 2880 
Q 2244 3097 1772 3097 
Q 1472 3097 1187 3025 
Q 903 2953 641 2809 
L 641 3341 
Q 956 3463 1253 3523 
Q 1550 3584 1831 3584 
Q 2591 3584 2966 3190 
Q 3341 2797 3341 1997 
z
" transform="scale(0.015625)"/>
      <path id="DejaVuSans-6c" d="M 603 4863 
L 1178 4863 
L 1178 0 
L 603 0 
L 603 4863 
z
" transform="scale(0.015625)"/>
      <path id="DejaVuSans-5f" d="M 3263 -1063 
L 3263 -1509 
L -63 -1509 
L -63 -1063 
L 3263 -1063 
z
" transform="scale(0.015625)"/>
      <path id="DejaVuSans-6d" d="M 3328 2828 
Q 3544 3216 3844 3400 
Q 4144 3584 4550 3584 
Q 5097 3584 5394 3201 
Q 5691 2819 5691 2113 
L 5691 0 
L 5113 0 
L 5113 2094 
Q 5113 2597 4934 2840 
Q 4756 3084 4391 3084 
Q 3944 3084 3684 2787 
Q 3425 2491 3425 1978 
L 3425 0 
L 2847 0 
L 2847 2094 
Q 2847 2600 2669 2842 
Q 2491 3084 2119 3084 
Q 1678 3084 1418 2786 
Q 1159 2488 1159 1978 
L 1159 0 
L 581 0 
L 581 3500 
L 1159 3500 
L 1159 2956 
Q 1356 3278 1631 3431 
Q 1906 3584 2284 3584 
Q 2666 3584 2933 3390 
Q 3200 3197 3328 2828 
z
" transform="scale(0.015625)"/>
      <path id="DejaVuSans-78" d="M 3513 3500 
L 2247 1797 
L 3578 0 
L 2900 0 
L 1881 1375 
L 863 0 
L 184 0 
L 1544 1831 
L 300 3500 
L 978 3500 
L 1906 2253 
L 2834 3500 
L 3513 3500 
z
" transform="scale(0.015625)"/>
      <path id="DejaVuSans-63" d="M 3122 3366 
L 3122 2828 
Q 2878 2963 2633 3030 
Q 2388 3097 2138 3097 
Q 1578 3097 1268 2742 
Q 959 2388 959 1747 
Q 959 1106 1268 751 
Q 1578 397 2138 397 
Q 2388 397 2633 464 
Q 2878 531 3122 666 
L 3122 134 
Q 2881 22 2623 -34 
Q 2366 -91 2075 -91 
Q 1284 -91 818 406 
Q 353 903 353 1747 
Q 353 2603 823 3093 
Q 1294 3584 2113 3584 
Q 2378 3584 2631 3529 
Q 2884 3475 3122 3366 
z
" transform="scale(0.015625)"/>
      <path id="DejaVuSans-71" d="M 947 1747 
Q 947 1113 1208 752 
Q 1469 391 1925 391 
Q 2381 391 2643 752 
Q 2906 1113 2906 1747 
Q 2906 2381 2643 2742 
Q 2381 3103 1925 3103 
Q 1469 3103 1208 2742 
Q 947 2381 947 1747 
z
M 2906 525 
Q 2725 213 2448 61 
Q 2172 -91 1784 -91 
Q 1150 -91 751 415 
Q 353 922 353 1747 
Q 353 2572 751 3078 
Q 1150 3584 1784 3584 
Q 2172 3584 2448 3432 
Q 2725 3281 2906 2969 
L 2906 3500 
L 3481 3500 
L 3481 -1331 
L 2906 -1331 
L 2906 525 
z
" transform="scale(0.015625)"/>
      <path id="DejaVuSans-75" d="M 544 1381 
L 544 3500 
L 1119 3500 
L 1119 1403 
Q 1119 906 1312 657 
Q 1506 409 1894 409 
Q 2359 409 2629 706 
Q 2900 1003 2900 1516 
L 2900 3500 
L 3475 3500 
L 3475 0 
L 2900 0 
L 2900 538 
Q 2691 219 2414 64 
Q 2138 -91 1772 -91 
Q 1169 -91 856 284 
Q 544 659 544 1381 
z
M 1991 3584 
L 1991 3584 
z
" transform="scale(0.015625)"/>
      <path id="DejaVuSans-65" d="M 3597 1894 
L 3597 1613 
L 953 1613 
Q 991 1019 1311 708 
Q 1631 397 2203 397 
Q 2534 397 2845 478 
Q 3156 559 3463 722 
L 3463 178 
Q 3153 47 2828 -22 
Q 2503 -91 2169 -91 
Q 1331 -91 842 396 
Q 353 884 353 1716 
Q 353 2575 817 3079 
Q 1281 3584 2069 3584 
Q 2775 3584 3186 3129 
Q 3597 2675 3597 1894 
z
M 3022 2063 
Q 3016 2534 2758 2815 
Q 2500 3097 2075 3097 
Q 1594 3097 1305 2825 
Q 1016 2553 972 2059 
L 3022 2063 
z
" transform="scale(0.015625)"/>
     </defs>
     <use xlink:href="#DejaVuSans-31"/>
     <use xlink:href="#DejaVuSans-66" x="63.623047"/>
     <use xlink:href="#DejaVuSans-69" x="98.828125"/>
     <use xlink:href="#DejaVuSans-6e" x="126.611328"/>
     <use xlink:href="#DejaVuSans-61" x="189.990234"/>
     <use xlink:href="#DejaVuSans-6c" x="251.269531"/>
     <use xlink:href="#DejaVuSans-5f" x="279.052734"/>
     <use xlink:href="#DejaVuSans-6d" x="329.052734"/>
     <use xlink:href="#DejaVuSans-61" x="426.464844"/>
     <use xlink:href="#DejaVuSans-78" x="487.744141"/>
     <use xlink:href="#DejaVuSans-5f" x="546.923828"/>
     <use xlink:href="#DejaVuSans-63" x="596.923828"/>
     <use xlink:href="#DejaVuSans-6c" x="651.904297"/>
     <use xlink:href="#DejaVuSans-69" x="679.6875"/>
     <use xlink:href="#DejaVuSans-71" x="707.470703"/>
     <use xlink:href="#DejaVuSans-75" x="770.947266"/>
     <use xlink:href="#DejaVuSans-65" x="834.326172"/>
     <use xlink:href="#DejaVuSans-5f" x="895.849609"/>
     <use xlink:href="#DejaVuSans-63" x="945.849609"/>
     <use xlink:href="#DejaVuSans-63" x="1000.830078"/>
     <use xlink:href="#DejaVuSans-69" x="1055.810547"/>
    </g>
   </g>
   <g id="legend_1">
    <g id="patch_7">
     <path d="M 64.6 93.506375 
L 258.804688 93.506375 
Q 260.804688 93.506375 260.804688 91.506375 
L 260.804688 48.472 
Q 260.804688 46.472 258.804688 46.472 
L 64.6 46.472 
Q 62.6 46.472 62.6 48.472 
L 62.6 91.506375 
Q 62.6 93.506375 64.6 93.506375 
z
" style="fill: #ffffff; opacity: 0.8; stroke: #cccccc; stroke-linejoin: miter"/>
    </g>
    <g id="line2d_14">
     <path d="M 66.6 54.570438 
L 76.6 54.570438 
L 86.6 54.570438 
" style="fill: none; stroke: #1f77b4; stroke-opacity: 0.7; stroke-width: 1.5; stroke-linecap: square"/>
    </g>
    <g id="text_12">
     <!-- Positive cumulative predictions -->
     <g transform="translate(94.6 58.070438) scale(0.1 -0.1)">
      <defs>
       <path id="DejaVuSans-50" d="M 1259 4147 
L 1259 2394 
L 2053 2394 
Q 2494 2394 2734 2622 
Q 2975 2850 2975 3272 
Q 2975 3691 2734 3919 
Q 2494 4147 2053 4147 
L 1259 4147 
z
M 628 4666 
L 2053 4666 
Q 2838 4666 3239 4311 
Q 3641 3956 3641 3272 
Q 3641 2581 3239 2228 
Q 2838 1875 2053 1875 
L 1259 1875 
L 1259 0 
L 628 0 
L 628 4666 
z
" transform="scale(0.015625)"/>
       <path id="DejaVuSans-6f" d="M 1959 3097 
Q 1497 3097 1228 2736 
Q 959 2375 959 1747 
Q 959 1119 1226 758 
Q 1494 397 1959 397 
Q 2419 397 2687 759 
Q 2956 1122 2956 1747 
Q 2956 2369 2687 2733 
Q 2419 3097 1959 3097 
z
M 1959 3584 
Q 2709 3584 3137 3096 
Q 3566 2609 3566 1747 
Q 3566 888 3137 398 
Q 2709 -91 1959 -91 
Q 1206 -91 779 398 
Q 353 888 353 1747 
Q 353 2609 779 3096 
Q 1206 3584 1959 3584 
z
" transform="scale(0.015625)"/>
       <path id="DejaVuSans-73" d="M 2834 3397 
L 2834 2853 
Q 2591 2978 2328 3040 
Q 2066 3103 1784 3103 
Q 1356 3103 1142 2972 
Q 928 2841 928 2578 
Q 928 2378 1081 2264 
Q 1234 2150 1697 2047 
L 1894 2003 
Q 2506 1872 2764 1633 
Q 3022 1394 3022 966 
Q 3022 478 2636 193 
Q 2250 -91 1575 -91 
Q 1294 -91 989 -36 
Q 684 19 347 128 
L 347 722 
Q 666 556 975 473 
Q 1284 391 1588 391 
Q 1994 391 2212 530 
Q 2431 669 2431 922 
Q 2431 1156 2273 1281 
Q 2116 1406 1581 1522 
L 1381 1569 
Q 847 1681 609 1914 
Q 372 2147 372 2553 
Q 372 3047 722 3315 
Q 1072 3584 1716 3584 
Q 2034 3584 2315 3537 
Q 2597 3491 2834 3397 
z
" transform="scale(0.015625)"/>
       <path id="DejaVuSans-74" d="M 1172 4494 
L 1172 3500 
L 2356 3500 
L 2356 3053 
L 1172 3053 
L 1172 1153 
Q 1172 725 1289 603 
Q 1406 481 1766 481 
L 2356 481 
L 2356 0 
L 1766 0 
Q 1100 0 847 248 
Q 594 497 594 1153 
L 594 3053 
L 172 3053 
L 172 3500 
L 594 3500 
L 594 4494 
L 1172 4494 
z
" transform="scale(0.015625)"/>
       <path id="DejaVuSans-76" d="M 191 3500 
L 800 3500 
L 1894 563 
L 2988 3500 
L 3597 3500 
L 2284 0 
L 1503 0 
L 191 3500 
z
" transform="scale(0.015625)"/>
       <path id="DejaVuSans-20" transform="scale(0.015625)"/>
       <path id="DejaVuSans-70" d="M 1159 525 
L 1159 -1331 
L 581 -1331 
L 581 3500 
L 1159 3500 
L 1159 2969 
Q 1341 3281 1617 3432 
Q 1894 3584 2278 3584 
Q 2916 3584 3314 3078 
Q 3713 2572 3713 1747 
Q 3713 922 3314 415 
Q 2916 -91 2278 -91 
Q 1894 -91 1617 61 
Q 1341 213 1159 525 
z
M 3116 1747 
Q 3116 2381 2855 2742 
Q 2594 3103 2138 3103 
Q 1681 3103 1420 2742 
Q 1159 2381 1159 1747 
Q 1159 1113 1420 752 
Q 1681 391 2138 391 
Q 2594 391 2855 752 
Q 3116 1113 3116 1747 
z
" transform="scale(0.015625)"/>
       <path id="DejaVuSans-72" d="M 2631 2963 
Q 2534 3019 2420 3045 
Q 2306 3072 2169 3072 
Q 1681 3072 1420 2755 
Q 1159 2438 1159 1844 
L 1159 0 
L 581 0 
L 581 3500 
L 1159 3500 
L 1159 2956 
Q 1341 3275 1631 3429 
Q 1922 3584 2338 3584 
Q 2397 3584 2469 3576 
Q 2541 3569 2628 3553 
L 2631 2963 
z
" transform="scale(0.015625)"/>
       <path id="DejaVuSans-64" d="M 2906 2969 
L 2906 4863 
L 3481 4863 
L 3481 0 
L 2906 0 
L 2906 525 
Q 2725 213 2448 61 
Q 2172 -91 1784 -91 
Q 1150 -91 751 415 
Q 353 922 353 1747 
Q 353 2572 751 3078 
Q 1150 3584 1784 3584 
Q 2172 3584 2448 3432 
Q 2725 3281 2906 2969 
z
M 947 1747 
Q 947 1113 1208 752 
Q 1469 391 1925 391 
Q 2381 391 2643 752 
Q 2906 1113 2906 1747 
Q 2906 2381 2643 2742 
Q 2381 3103 1925 3103 
Q 1469 3103 1208 2742 
Q 947 2381 947 1747 
z
" transform="scale(0.015625)"/>
      </defs>
      <use xlink:href="#DejaVuSans-50"/>
      <use xlink:href="#DejaVuSans-6f" x="56.677734"/>
      <use xlink:href="#DejaVuSans-73" x="117.859375"/>
      <use xlink:href="#DejaVuSans-69" x="169.958984"/>
      <use xlink:href="#DejaVuSans-74" x="197.742188"/>
      <use xlink:href="#DejaVuSans-69" x="236.951172"/>
      <use xlink:href="#DejaVuSans-76" x="264.734375"/>
      <use xlink:href="#DejaVuSans-65" x="323.914062"/>
      <use xlink:href="#DejaVuSans-20" x="385.4375"/>
      <use xlink:href="#DejaVuSans-63" x="417.224609"/>
      <use xlink:href="#DejaVuSans-75" x="472.205078"/>
      <use xlink:href="#DejaVuSans-6d" x="535.583984"/>
      <use xlink:href="#DejaVuSans-75" x="632.996094"/>
      <use xlink:href="#DejaVuSans-6c" x="696.375"/>
      <use xlink:href="#DejaVuSans-61" x="724.158203"/>
      <use xlink:href="#DejaVuSans-74" x="785.4375"/>
      <use xlink:href="#DejaVuSans-69" x="824.646484"/>
      <use xlink:href="#DejaVuSans-76" x="852.429688"/>
      <use xlink:href="#DejaVuSans-65" x="911.609375"/>
      <use xlink:href="#DejaVuSans-20" x="973.132812"/>
      <use xlink:href="#DejaVuSans-70" x="1004.919922"/>
      <use xlink:href="#DejaVuSans-72" x="1068.396484"/>
      <use xlink:href="#DejaVuSans-65" x="1107.259766"/>
      <use xlink:href="#DejaVuSans-64" x="1168.783203"/>
      <use xlink:href="#DejaVuSans-69" x="1232.259766"/>
      <use xlink:href="#DejaVuSans-63" x="1260.042969"/>
      <use xlink:href="#DejaVuSans-74" x="1315.023438"/>
      <use xlink:href="#DejaVuSans-69" x="1354.232422"/>
      <use xlink:href="#DejaVuSans-6f" x="1382.015625"/>
      <use xlink:href="#DejaVuSans-6e" x="1443.197266"/>
      <use xlink:href="#DejaVuSans-73" x="1506.576172"/>
     </g>
    </g>
    <g id="line2d_15">
     <path d="M 66.6 69.248563 
L 76.6 69.248563 
L 86.6 69.248563 
" style="fill: none; stroke: #ff7f0e; stroke-opacity: 0.7; stroke-width: 1.5; stroke-linecap: square"/>
    </g>
    <g id="text_13">
     <!-- Negative cumulative predictions -->
     <g transform="translate(94.6 72.748563) scale(0.1 -0.1)">
      <defs>
       <path id="DejaVuSans-4e" d="M 628 4666 
L 1478 4666 
L 3547 763 
L 3547 4666 
L 4159 4666 
L 4159 0 
L 3309 0 
L 1241 3903 
L 1241 0 
L 628 0 
L 628 4666 
z
" transform="scale(0.015625)"/>
       <path id="DejaVuSans-67" d="M 2906 1791 
Q 2906 2416 2648 2759 
Q 2391 3103 1925 3103 
Q 1463 3103 1205 2759 
Q 947 2416 947 1791 
Q 947 1169 1205 825 
Q 1463 481 1925 481 
Q 2391 481 2648 825 
Q 2906 1169 2906 1791 
z
M 3481 434 
Q 3481 -459 3084 -895 
Q 2688 -1331 1869 -1331 
Q 1566 -1331 1297 -1286 
Q 1028 -1241 775 -1147 
L 775 -588 
Q 1028 -725 1275 -790 
Q 1522 -856 1778 -856 
Q 2344 -856 2625 -561 
Q 2906 -266 2906 331 
L 2906 616 
Q 2728 306 2450 153 
Q 2172 0 1784 0 
Q 1141 0 747 490 
Q 353 981 353 1791 
Q 353 2603 747 3093 
Q 1141 3584 1784 3584 
Q 2172 3584 2450 3431 
Q 2728 3278 2906 2969 
L 2906 3500 
L 3481 3500 
L 3481 434 
z
" transform="scale(0.015625)"/>
      </defs>
      <use xlink:href="#DejaVuSans-4e"/>
      <use xlink:href="#DejaVuSans-65" x="74.804688"/>
      <use xlink:href="#DejaVuSans-67" x="136.328125"/>
      <use xlink:href="#DejaVuSans-61" x="199.804688"/>
      <use xlink:href="#DejaVuSans-74" x="261.083984"/>
      <use xlink:href="#DejaVuSans-69" x="300.292969"/>
      <use xlink:href="#DejaVuSans-76" x="328.076172"/>
      <use xlink:href="#DejaVuSans-65" x="387.255859"/>
      <use xlink:href="#DejaVuSans-20" x="448.779297"/>
      <use xlink:href="#DejaVuSans-63" x="480.566406"/>
      <use xlink:href="#DejaVuSans-75" x="535.546875"/>
      <use xlink:href="#DejaVuSans-6d" x="598.925781"/>
      <use xlink:href="#DejaVuSans-75" x="696.337891"/>
      <use xlink:href="#DejaVuSans-6c" x="759.716797"/>
      <use xlink:href="#DejaVuSans-61" x="787.5"/>
      <use xlink:href="#DejaVuSans-74" x="848.779297"/>
      <use xlink:href="#DejaVuSans-69" x="887.988281"/>
      <use xlink:href="#DejaVuSans-76" x="915.771484"/>
      <use xlink:href="#DejaVuSans-65" x="974.951172"/>
      <use xlink:href="#DejaVuSans-20" x="1036.474609"/>
      <use xlink:href="#DejaVuSans-70" x="1068.261719"/>
      <use xlink:href="#DejaVuSans-72" x="1131.738281"/>
      <use xlink:href="#DejaVuSans-65" x="1170.601562"/>
      <use xlink:href="#DejaVuSans-64" x="1232.125"/>
      <use xlink:href="#DejaVuSans-69" x="1295.601562"/>
      <use xlink:href="#DejaVuSans-63" x="1323.384766"/>
      <use xlink:href="#DejaVuSans-74" x="1378.365234"/>
      <use xlink:href="#DejaVuSans-69" x="1417.574219"/>
      <use xlink:href="#DejaVuSans-6f" x="1445.357422"/>
      <use xlink:href="#DejaVuSans-6e" x="1506.539062"/>
      <use xlink:href="#DejaVuSans-73" x="1569.917969"/>
     </g>
    </g>
    <g id="line2d_16">
     <path d="M 66.6 83.926688 
L 76.6 83.926688 
L 86.6 83.926688 
" style="fill: none; stroke: #2ca02c; stroke-opacity: 0.7; stroke-width: 1.5; stroke-linecap: square"/>
    </g>
    <g id="text_14">
     <!-- Average cumulative predictions -->
     <g transform="translate(94.6 87.426688) scale(0.1 -0.1)">
      <defs>
       <path id="DejaVuSans-41" d="M 2188 4044 
L 1331 1722 
L 3047 1722 
L 2188 4044 
z
M 1831 4666 
L 2547 4666 
L 4325 0 
L 3669 0 
L 3244 1197 
L 1141 1197 
L 716 0 
L 50 0 
L 1831 4666 
z
" transform="scale(0.015625)"/>
      </defs>
      <use xlink:href="#DejaVuSans-41"/>
      <use xlink:href="#DejaVuSans-76" x="62.533203"/>
      <use xlink:href="#DejaVuSans-65" x="121.712891"/>
      <use xlink:href="#DejaVuSans-72" x="183.236328"/>
      <use xlink:href="#DejaVuSans-61" x="224.349609"/>
      <use xlink:href="#DejaVuSans-67" x="285.628906"/>
      <use xlink:href="#DejaVuSans-65" x="349.105469"/>
      <use xlink:href="#DejaVuSans-20" x="410.628906"/>
      <use xlink:href="#DejaVuSans-63" x="442.416016"/>
      <use xlink:href="#DejaVuSans-75" x="497.396484"/>
      <use xlink:href="#DejaVuSans-6d" x="560.775391"/>
      <use xlink:href="#DejaVuSans-75" x="658.1875"/>
      <use xlink:href="#DejaVuSans-6c" x="721.566406"/>
      <use xlink:href="#DejaVuSans-61" x="749.349609"/>
      <use xlink:href="#DejaVuSans-74" x="810.628906"/>
      <use xlink:href="#DejaVuSans-69" x="849.837891"/>
      <use xlink:href="#DejaVuSans-76" x="877.621094"/>
      <use xlink:href="#DejaVuSans-65" x="936.800781"/>
      <use xlink:href="#DejaVuSans-20" x="998.324219"/>
      <use xlink:href="#DejaVuSans-70" x="1030.111328"/>
      <use xlink:href="#DejaVuSans-72" x="1093.587891"/>
      <use xlink:href="#DejaVuSans-65" x="1132.451172"/>
      <use xlink:href="#DejaVuSans-64" x="1193.974609"/>
      <use xlink:href="#DejaVuSans-69" x="1257.451172"/>
      <use xlink:href="#DejaVuSans-63" x="1285.234375"/>
      <use xlink:href="#DejaVuSans-74" x="1340.214844"/>
      <use xlink:href="#DejaVuSans-69" x="1379.423828"/>
      <use xlink:href="#DejaVuSans-6f" x="1407.207031"/>
      <use xlink:href="#DejaVuSans-6e" x="1468.388672"/>
      <use xlink:href="#DejaVuSans-73" x="1531.767578"/>
     </g>
    </g>
   </g>
  </g>
 </g>
 <defs>
  <clipPath id="p9adb730a38">
   <rect x="57.6" y="41.472" width="357.12" height="266.112"/>
  </clipPath>
 </defs>
</svg>
