<?xml version="1.0" encoding="utf-8" standalone="no"?>
<!DOCTYPE svg PUBLIC "-//W3C//DTD SVG 1.1//EN"
  "http://www.w3.org/Graphics/SVG/1.1/DTD/svg11.dtd">
<svg xmlns:xlink="http://www.w3.org/1999/xlink" width="460.8pt" height="345.6pt" viewBox="0 0 460.8 345.6" xmlns="http://www.w3.org/2000/svg" version="1.1">
 <metadata>
  <rdf:RDF xmlns:dc="http://purl.org/dc/elements/1.1/" xmlns:cc="http://creativecommons.org/ns#" xmlns:rdf="http://www.w3.org/1999/02/22-rdf-syntax-ns#">
   <cc:Work>
    <dc:type rdf:resource="http://purl.org/dc/dcmitype/StillImage"/>
    <dc:date>2024-09-08T13:35:16.806252</dc:date>
    <dc:format>image/svg+xml</dc:format>
    <dc:creator>
     <cc:Agent>
      <dc:title>Matplotlib v3.8.3, https://matplotlib.org/</dc:title>
     </cc:Agent>
    </dc:creator>
   </cc:Work>
  </rdf:RDF>
 </metadata>
 <defs>
  <style type="text/css">*{stroke-linejoin: round; stroke-linecap: butt}</style>
 </defs>
 <g id="figure_1">
  <g id="patch_1">
   <path d="M 0 345.6 
L 460.8 345.6 
L 460.8 0 
L 0 0 
z
" style="fill: #ffffff"/>
  </g>
  <g id="axes_1">
   <g id="patch_2">
    <path d="M 57.6 307.584 
L 414.72 307.584 
L 414.72 41.472 
L 57.6 41.472 
z
" style="fill: #ffffff"/>
   </g>
   <g id="matplotlib.axis_1">
    <g id="xtick_1">
     <g id="line2d_1">
      <defs>
       <path id="md50d6822e4" d="M 0 0 
L 0 3.5 
" style="stroke: #000000; stroke-width: 0.8"/>
      </defs>
      <g>
       <use xlink:href="#md50d6822e4" x="73.832727" y="307.584" style="stroke: #000000; stroke-width: 0.8"/>
      </g>
     </g>
     <g id="text_1">
      <!-- 0 -->
      <g transform="translate(70.651477 322.182437) scale(0.1 -0.1)">
       <defs>
        <path id="DejaVuSans-30" d="M 2034 4250 
Q 1547 4250 1301 3770 
Q 1056 3291 1056 2328 
Q 1056 1369 1301 889 
Q 1547 409 2034 409 
Q 2525 409 2770 889 
Q 3016 1369 3016 2328 
Q 3016 3291 2770 3770 
Q 2525 4250 2034 4250 
z
M 2034 4750 
Q 2819 4750 3233 4129 
Q 3647 3509 3647 2328 
Q 3647 1150 3233 529 
Q 2819 -91 2034 -91 
Q 1250 -91 836 529 
Q 422 1150 422 2328 
Q 422 3509 836 4129 
Q 1250 4750 2034 4750 
z
" transform="scale(0.015625)"/>
       </defs>
       <use xlink:href="#DejaVuSans-30"/>
      </g>
     </g>
    </g>
    <g id="xtick_2">
     <g id="line2d_2">
      <g>
       <use xlink:href="#md50d6822e4" x="117.76433" y="307.584" style="stroke: #000000; stroke-width: 0.8"/>
      </g>
     </g>
     <g id="text_2">
      <!-- 200 -->
      <g transform="translate(108.22058 322.182437) scale(0.1 -0.1)">
       <defs>
        <path id="DejaVuSans-32" d="M 1228 531 
L 3431 531 
L 3431 0 
L 469 0 
L 469 531 
Q 828 903 1448 1529 
Q 2069 2156 2228 2338 
Q 2531 2678 2651 2914 
Q 2772 3150 2772 3378 
Q 2772 3750 2511 3984 
Q 2250 4219 1831 4219 
Q 1534 4219 1204 4116 
Q 875 4013 500 3803 
L 500 4441 
Q 881 4594 1212 4672 
Q 1544 4750 1819 4750 
Q 2544 4750 2975 4387 
Q 3406 4025 3406 3419 
Q 3406 3131 3298 2873 
Q 3191 2616 2906 2266 
Q 2828 2175 2409 1742 
Q 1991 1309 1228 531 
z
" transform="scale(0.015625)"/>
       </defs>
       <use xlink:href="#DejaVuSans-32"/>
       <use xlink:href="#DejaVuSans-30" x="63.623047"/>
       <use xlink:href="#DejaVuSans-30" x="127.246094"/>
      </g>
     </g>
    </g>
    <g id="xtick_3">
     <g id="line2d_3">
      <g>
       <use xlink:href="#md50d6822e4" x="161.695933" y="307.584" style="stroke: #000000; stroke-width: 0.8"/>
      </g>
     </g>
     <g id="text_3">
      <!-- 400 -->
      <g transform="translate(152.152183 322.182437) scale(0.1 -0.1)">
       <defs>
        <path id="DejaVuSans-34" d="M 2419 4116 
L 825 1625 
L 2419 1625 
L 2419 4116 
z
M 2253 4666 
L 3047 4666 
L 3047 1625 
L 3713 1625 
L 3713 1100 
L 3047 1100 
L 3047 0 
L 2419 0 
L 2419 1100 
L 313 1100 
L 313 1709 
L 2253 4666 
z
" transform="scale(0.015625)"/>
       </defs>
       <use xlink:href="#DejaVuSans-34"/>
       <use xlink:href="#DejaVuSans-30" x="63.623047"/>
       <use xlink:href="#DejaVuSans-30" x="127.246094"/>
      </g>
     </g>
    </g>
    <g id="xtick_4">
     <g id="line2d_4">
      <g>
       <use xlink:href="#md50d6822e4" x="205.627536" y="307.584" style="stroke: #000000; stroke-width: 0.8"/>
      </g>
     </g>
     <g id="text_4">
      <!-- 600 -->
      <g transform="translate(196.083786 322.182437) scale(0.1 -0.1)">
       <defs>
        <path id="DejaVuSans-36" d="M 2113 2584 
Q 1688 2584 1439 2293 
Q 1191 2003 1191 1497 
Q 1191 994 1439 701 
Q 1688 409 2113 409 
Q 2538 409 2786 701 
Q 3034 994 3034 1497 
Q 3034 2003 2786 2293 
Q 2538 2584 2113 2584 
z
M 3366 4563 
L 3366 3988 
Q 3128 4100 2886 4159 
Q 2644 4219 2406 4219 
Q 1781 4219 1451 3797 
Q 1122 3375 1075 2522 
Q 1259 2794 1537 2939 
Q 1816 3084 2150 3084 
Q 2853 3084 3261 2657 
Q 3669 2231 3669 1497 
Q 3669 778 3244 343 
Q 2819 -91 2113 -91 
Q 1303 -91 875 529 
Q 447 1150 447 2328 
Q 447 3434 972 4092 
Q 1497 4750 2381 4750 
Q 2619 4750 2861 4703 
Q 3103 4656 3366 4563 
z
" transform="scale(0.015625)"/>
       </defs>
       <use xlink:href="#DejaVuSans-36"/>
       <use xlink:href="#DejaVuSans-30" x="63.623047"/>
       <use xlink:href="#DejaVuSans-30" x="127.246094"/>
      </g>
     </g>
    </g>
    <g id="xtick_5">
     <g id="line2d_5">
      <g>
       <use xlink:href="#md50d6822e4" x="249.559139" y="307.584" style="stroke: #000000; stroke-width: 0.8"/>
      </g>
     </g>
     <g id="text_5">
      <!-- 800 -->
      <g transform="translate(240.015389 322.182437) scale(0.1 -0.1)">
       <defs>
        <path id="DejaVuSans-38" d="M 2034 2216 
Q 1584 2216 1326 1975 
Q 1069 1734 1069 1313 
Q 1069 891 1326 650 
Q 1584 409 2034 409 
Q 2484 409 2743 651 
Q 3003 894 3003 1313 
Q 3003 1734 2745 1975 
Q 2488 2216 2034 2216 
z
M 1403 2484 
Q 997 2584 770 2862 
Q 544 3141 544 3541 
Q 544 4100 942 4425 
Q 1341 4750 2034 4750 
Q 2731 4750 3128 4425 
Q 3525 4100 3525 3541 
Q 3525 3141 3298 2862 
Q 3072 2584 2669 2484 
Q 3125 2378 3379 2068 
Q 3634 1759 3634 1313 
Q 3634 634 3220 271 
Q 2806 -91 2034 -91 
Q 1263 -91 848 271 
Q 434 634 434 1313 
Q 434 1759 690 2068 
Q 947 2378 1403 2484 
z
M 1172 3481 
Q 1172 3119 1398 2916 
Q 1625 2713 2034 2713 
Q 2441 2713 2670 2916 
Q 2900 3119 2900 3481 
Q 2900 3844 2670 4047 
Q 2441 4250 2034 4250 
Q 1625 4250 1398 4047 
Q 1172 3844 1172 3481 
z
" transform="scale(0.015625)"/>
       </defs>
       <use xlink:href="#DejaVuSans-38"/>
       <use xlink:href="#DejaVuSans-30" x="63.623047"/>
       <use xlink:href="#DejaVuSans-30" x="127.246094"/>
      </g>
     </g>
    </g>
    <g id="xtick_6">
     <g id="line2d_6">
      <g>
       <use xlink:href="#md50d6822e4" x="293.490742" y="307.584" style="stroke: #000000; stroke-width: 0.8"/>
      </g>
     </g>
     <g id="text_6">
      <!-- 1000 -->
      <g transform="translate(280.765742 322.182437) scale(0.1 -0.1)">
       <defs>
        <path id="DejaVuSans-31" d="M 794 531 
L 1825 531 
L 1825 4091 
L 703 3866 
L 703 4441 
L 1819 4666 
L 2450 4666 
L 2450 531 
L 3481 531 
L 3481 0 
L 794 0 
L 794 531 
z
" transform="scale(0.015625)"/>
       </defs>
       <use xlink:href="#DejaVuSans-31"/>
       <use xlink:href="#DejaVuSans-30" x="63.623047"/>
       <use xlink:href="#DejaVuSans-30" x="127.246094"/>
       <use xlink:href="#DejaVuSans-30" x="190.869141"/>
      </g>
     </g>
    </g>
    <g id="xtick_7">
     <g id="line2d_7">
      <g>
       <use xlink:href="#md50d6822e4" x="337.422345" y="307.584" style="stroke: #000000; stroke-width: 0.8"/>
      </g>
     </g>
     <g id="text_7">
      <!-- 1200 -->
      <g transform="translate(324.697345 322.182437) scale(0.1 -0.1)">
       <use xlink:href="#DejaVuSans-31"/>
       <use xlink:href="#DejaVuSans-32" x="63.623047"/>
       <use xlink:href="#DejaVuSans-30" x="127.246094"/>
       <use xlink:href="#DejaVuSans-30" x="190.869141"/>
      </g>
     </g>
    </g>
    <g id="xtick_8">
     <g id="line2d_8">
      <g>
       <use xlink:href="#md50d6822e4" x="381.353948" y="307.584" style="stroke: #000000; stroke-width: 0.8"/>
      </g>
     </g>
     <g id="text_8">
      <!-- 1400 -->
      <g transform="translate(368.628948 322.182437) scale(0.1 -0.1)">
       <use xlink:href="#DejaVuSans-31"/>
       <use xlink:href="#DejaVuSans-34" x="63.623047"/>
       <use xlink:href="#DejaVuSans-30" x="127.246094"/>
       <use xlink:href="#DejaVuSans-30" x="190.869141"/>
      </g>
     </g>
    </g>
   </g>
   <g id="matplotlib.axis_2">
    <g id="ytick_1">
     <g id="line2d_9">
      <defs>
       <path id="m4a59ee9075" d="M 0 0 
L -3.5 0 
" style="stroke: #000000; stroke-width: 0.8"/>
      </defs>
      <g>
       <use xlink:href="#m4a59ee9075" x="57.6" y="288.423524" style="stroke: #000000; stroke-width: 0.8"/>
      </g>
     </g>
     <g id="text_9">
      <!-- −30000 -->
      <g transform="translate(10.407812 292.222743) scale(0.1 -0.1)">
       <defs>
        <path id="DejaVuSans-2212" d="M 678 2272 
L 4684 2272 
L 4684 1741 
L 678 1741 
L 678 2272 
z
" transform="scale(0.015625)"/>
        <path id="DejaVuSans-33" d="M 2597 2516 
Q 3050 2419 3304 2112 
Q 3559 1806 3559 1356 
Q 3559 666 3084 287 
Q 2609 -91 1734 -91 
Q 1441 -91 1130 -33 
Q 819 25 488 141 
L 488 750 
Q 750 597 1062 519 
Q 1375 441 1716 441 
Q 2309 441 2620 675 
Q 2931 909 2931 1356 
Q 2931 1769 2642 2001 
Q 2353 2234 1838 2234 
L 1294 2234 
L 1294 2753 
L 1863 2753 
Q 2328 2753 2575 2939 
Q 2822 3125 2822 3475 
Q 2822 3834 2567 4026 
Q 2313 4219 1838 4219 
Q 1578 4219 1281 4162 
Q 984 4106 628 3988 
L 628 4550 
Q 988 4650 1302 4700 
Q 1616 4750 1894 4750 
Q 2613 4750 3031 4423 
Q 3450 4097 3450 3541 
Q 3450 3153 3228 2886 
Q 3006 2619 2597 2516 
z
" transform="scale(0.015625)"/>
       </defs>
       <use xlink:href="#DejaVuSans-2212"/>
       <use xlink:href="#DejaVuSans-33" x="83.789062"/>
       <use xlink:href="#DejaVuSans-30" x="147.412109"/>
       <use xlink:href="#DejaVuSans-30" x="211.035156"/>
       <use xlink:href="#DejaVuSans-30" x="274.658203"/>
       <use xlink:href="#DejaVuSans-30" x="338.28125"/>
      </g>
     </g>
    </g>
    <g id="ytick_2">
     <g id="line2d_10">
      <g>
       <use xlink:href="#m4a59ee9075" x="57.6" y="246.918969" style="stroke: #000000; stroke-width: 0.8"/>
      </g>
     </g>
     <g id="text_10">
      <!-- −20000 -->
      <g transform="translate(10.407812 250.718188) scale(0.1 -0.1)">
       <use xlink:href="#DejaVuSans-2212"/>
       <use xlink:href="#DejaVuSans-32" x="83.789062"/>
       <use xlink:href="#DejaVuSans-30" x="147.412109"/>
       <use xlink:href="#DejaVuSans-30" x="211.035156"/>
       <use xlink:href="#DejaVuSans-30" x="274.658203"/>
       <use xlink:href="#DejaVuSans-30" x="338.28125"/>
      </g>
     </g>
    </g>
    <g id="ytick_3">
     <g id="line2d_11">
      <g>
       <use xlink:href="#m4a59ee9075" x="57.6" y="205.414414" style="stroke: #000000; stroke-width: 0.8"/>
      </g>
     </g>
     <g id="text_11">
      <!-- −10000 -->
      <g transform="translate(10.407812 209.213632) scale(0.1 -0.1)">
       <use xlink:href="#DejaVuSans-2212"/>
       <use xlink:href="#DejaVuSans-31" x="83.789062"/>
       <use xlink:href="#DejaVuSans-30" x="147.412109"/>
       <use xlink:href="#DejaVuSans-30" x="211.035156"/>
       <use xlink:href="#DejaVuSans-30" x="274.658203"/>
       <use xlink:href="#DejaVuSans-30" x="338.28125"/>
      </g>
     </g>
    </g>
    <g id="ytick_4">
     <g id="line2d_12">
      <g>
       <use xlink:href="#m4a59ee9075" x="57.6" y="163.909858" style="stroke: #000000; stroke-width: 0.8"/>
      </g>
     </g>
     <g id="text_12">
      <!-- 0 -->
      <g transform="translate(44.2375 167.709077) scale(0.1 -0.1)">
       <use xlink:href="#DejaVuSans-30"/>
      </g>
     </g>
    </g>
    <g id="ytick_5">
     <g id="line2d_13">
      <g>
       <use xlink:href="#m4a59ee9075" x="57.6" y="122.405303" style="stroke: #000000; stroke-width: 0.8"/>
      </g>
     </g>
     <g id="text_13">
      <!-- 10000 -->
      <g transform="translate(18.7875 126.204522) scale(0.1 -0.1)">
       <use xlink:href="#DejaVuSans-31"/>
       <use xlink:href="#DejaVuSans-30" x="63.623047"/>
       <use xlink:href="#DejaVuSans-30" x="127.246094"/>
       <use xlink:href="#DejaVuSans-30" x="190.869141"/>
       <use xlink:href="#DejaVuSans-30" x="254.492188"/>
      </g>
     </g>
    </g>
    <g id="ytick_6">
     <g id="line2d_14">
      <g>
       <use xlink:href="#m4a59ee9075" x="57.6" y="80.900747" style="stroke: #000000; stroke-width: 0.8"/>
      </g>
     </g>
     <g id="text_14">
      <!-- 20000 -->
      <g transform="translate(18.7875 84.699966) scale(0.1 -0.1)">
       <use xlink:href="#DejaVuSans-32"/>
       <use xlink:href="#DejaVuSans-30" x="63.623047"/>
       <use xlink:href="#DejaVuSans-30" x="127.246094"/>
       <use xlink:href="#DejaVuSans-30" x="190.869141"/>
       <use xlink:href="#DejaVuSans-30" x="254.492188"/>
      </g>
     </g>
    </g>
   </g>
   <g id="line2d_15">
    <path d="M 73.832727 164.191376 
L 74.052385 164.440342 
L 74.272043 164.495434 
L 74.711359 164.38908 
L 74.931017 164.415326 
L 75.370333 164.821765 
L 76.029307 164.614094 
L 76.907939 165.036396 
L 77.127597 165.088266 
L 77.347256 165.289095 
L 78.445546 165.305232 
L 78.665204 165.171266 
L 79.10452 165.308364 
L 79.543836 164.914076 
L 79.763494 165.298229 
L 79.983152 165.160928 
L 80.20281 165.210903 
L 80.422468 165.431925 
L 80.642126 165.199163 
L 81.3011 165.641724 
L 81.520758 165.374717 
L 81.740416 165.386043 
L 81.960074 165.571029 
L 82.179732 165.492225 
L 83.278022 165.808096 
L 84.376312 165.734867 
L 84.815628 165.939063 
L 85.035286 165.895087 
L 85.474602 165.939858 
L 85.69426 165.944714 
L 86.133576 166.158395 
L 86.353234 166.136549 
L 87.231866 166.426148 
L 87.451524 166.361827 
L 87.89084 166.487791 
L 88.110498 166.481429 
L 88.769472 166.709564 
L 89.867762 166.821828 
L 90.307078 167.125612 
L 92.503659 167.705196 
L 94.480581 167.90715 
L 94.700239 168.012081 
L 94.919897 167.969937 
L 95.798529 168.444613 
L 96.018187 168.370413 
L 96.457503 168.543213 
L 96.896819 168.619549 
L 97.336135 168.689252 
L 97.995109 168.834655 
L 98.214767 169.017 
L 99.313057 169.068901 
L 100.191689 169.434099 
L 100.850663 169.358229 
L 101.070321 169.318446 
L 101.289979 169.39926 
L 101.509637 169.3227 
L 102.168611 169.51192 
L 102.607927 169.549353 
L 102.827585 169.51517 
L 103.706217 169.828362 
L 104.365191 169.764987 
L 105.243823 169.733768 
L 107.660062 170.0824 
L 108.099378 170.132127 
L 109.197668 170.24152 
L 109.636984 170.217091 
L 109.856642 170.22243 
L 110.295958 169.671327 
L 110.515616 169.8953 
L 110.735274 169.881114 
L 110.954932 170.194574 
L 111.17459 170.209969 
L 111.394248 170.068845 
L 112.053222 170.068004 
L 112.27288 169.868748 
L 112.492538 170.191267 
L 112.712196 170.104979 
L 112.931854 170.167176 
L 113.590828 170.883436 
L 113.810486 170.829969 
L 114.249802 171.03517 
L 114.46946 171.309425 
L 114.908776 171.289432 
L 115.128434 171.150318 
L 116.226724 171.360426 
L 116.446382 171.203158 
L 117.325014 171.692178 
L 117.544672 172.020493 
L 117.76433 172.02272 
L 118.203646 172.369698 
L 118.423304 172.030076 
L 118.642962 172.098887 
L 118.86262 171.923105 
L 119.741252 172.308862 
L 120.180568 172.146081 
L 120.400226 172.261654 
L 121.278858 171.984557 
L 121.498516 172.626175 
L 122.377148 173.485717 
L 122.596806 173.405585 
L 123.036123 174.16519 
L 123.255781 174.407996 
L 124.134413 174.752397 
L 124.573729 175.08132 
L 125.013045 175.399623 
L 125.232703 175.28487 
L 126.989967 175.941925 
L 127.648941 176.209367 
L 127.868599 176.11302 
L 128.307915 176.186891 
L 128.747231 176.444688 
L 128.966889 176.489705 
L 129.406205 176.813325 
L 130.065179 177.038441 
L 131.822443 177.236177 
L 132.261759 177.163981 
L 132.701075 177.414347 
L 133.140391 177.536391 
L 134.238681 177.974407 
L 134.458339 177.800102 
L 135.336971 178.116363 
L 135.995945 178.436849 
L 137.094235 178.660967 
L 139.290816 179.670827 
L 140.608764 180.153205 
L 140.828422 180.365722 
L 141.04808 180.307087 
L 141.267738 180.106014 
L 141.926712 180.217854 
L 142.14637 179.929901 
L 142.805344 180.327809 
L 143.24466 180.266395 
L 143.683976 180.480033 
L 143.903634 180.397406 
L 144.34295 180.436175 
L 145.221582 180.475907 
L 145.660898 180.905306 
L 146.319872 181.241543 
L 146.978846 181.231877 
L 147.418162 181.309441 
L 148.077136 181.701865 
L 149.175426 181.689057 
L 150.273716 182.083075 
L 150.713032 182.159712 
L 151.372006 182.512138 
L 151.811322 182.587157 
L 152.470296 182.648269 
L 153.788245 183.167687 
L 154.227561 183.082551 
L 154.666877 182.982208 
L 154.886535 182.682549 
L 155.545509 183.288836 
L 155.984825 183.186743 
L 156.204483 183.441509 
L 156.424141 183.120148 
L 157.302773 183.685435 
L 157.742089 183.857214 
L 157.961747 183.611532 
L 158.181405 183.808397 
L 158.401063 183.846337 
L 159.060037 184.271866 
L 159.279695 184.22148 
L 159.938669 184.705139 
L 160.377985 184.719046 
L 160.817301 184.923942 
L 161.695933 184.980769 
L 162.354907 185.019221 
L 162.574565 184.980502 
L 163.013881 185.170693 
L 163.233539 185.120943 
L 163.453197 185.205294 
L 163.892513 184.906645 
L 164.551487 185.29277 
L 164.771145 185.131619 
L 165.430119 185.586393 
L 165.649777 185.534731 
L 166.089093 185.697814 
L 166.748067 185.902264 
L 167.187383 185.970867 
L 169.82328 186.765506 
L 170.482254 186.896206 
L 171.580544 187.141988 
L 172.01986 187.21437 
L 172.678834 187.537532 
L 173.557466 187.62308 
L 175.095072 188.184022 
L 175.31473 188.364055 
L 175.973704 188.504288 
L 176.41302 188.688479 
L 178.6096 189.346733 
L 178.829258 189.507921 
L 179.048916 189.523809 
L 179.488232 189.744079 
L 180.80618 190.292802 
L 181.245496 190.067984 
L 181.684812 190.327448 
L 181.90447 190.443694 
L 182.124128 190.271819 
L 182.563444 190.724779 
L 182.783102 190.916644 
L 183.222419 190.881394 
L 184.320709 191.343446 
L 185.199341 191.390213 
L 185.638657 190.72689 
L 185.858315 190.769212 
L 186.077973 190.283954 
L 186.297631 190.304367 
L 186.517289 191.001176 
L 186.736947 190.696069 
L 186.956605 191.292839 
L 187.176263 190.947635 
L 187.395921 190.877472 
L 187.615579 190.091263 
L 187.835237 190.864705 
L 188.054895 190.452668 
L 188.274553 189.69678 
L 188.494211 190.968075 
L 188.713869 189.676189 
L 188.933527 190.581387 
L 189.153185 190.3532 
L 189.372843 190.983363 
L 189.812159 191.178186 
L 190.031817 192.451048 
L 190.251475 192.799627 
L 190.471133 193.598423 
L 190.690791 193.24675 
L 190.910449 193.737953 
L 191.130107 193.613029 
L 191.349765 193.356549 
L 191.569423 193.72853 
L 191.789081 193.78342 
L 192.008739 194.572431 
L 192.228397 194.898524 
L 192.667713 195.928107 
L 192.887371 196.100984 
L 193.107029 196.716885 
L 193.326687 196.854668 
L 193.546345 197.261825 
L 193.766003 197.908285 
L 193.985661 197.807968 
L 194.205319 197.578795 
L 194.424977 198.064263 
L 194.644635 198.133959 
L 195.083951 198.975977 
L 195.303609 199.098881 
L 195.523267 199.63507 
L 195.742925 199.514514 
L 195.962583 199.17802 
L 196.401899 199.837877 
L 196.621557 199.885462 
L 197.280531 200.723337 
L 197.719847 200.51794 
L 198.378822 201.124428 
L 198.59848 201.05258 
L 198.818138 201.397496 
L 199.037796 201.362438 
L 199.257454 201.453971 
L 200.136086 202.547112 
L 200.575402 202.854162 
L 201.014718 203.31317 
L 201.454034 204.250753 
L 201.89335 204.474864 
L 202.113008 203.879606 
L 203.211298 205.565337 
L 203.870272 206.127881 
L 204.08993 205.716997 
L 204.309588 205.920561 
L 204.529246 205.706605 
L 205.627536 206.962392 
L 205.847194 206.839506 
L 206.066852 207.067993 
L 206.28651 207.017226 
L 207.824116 208.006525 
L 208.043774 208.008094 
L 208.263432 208.176651 
L 208.702748 208.063151 
L 208.922406 208.241211 
L 209.142064 208.208915 
L 209.361722 208.451961 
L 209.801038 208.68322 
L 210.67967 209.440801 
L 211.118986 209.78682 
L 211.338644 209.834666 
L 211.558302 210.169778 
L 212.217276 210.571843 
L 212.436934 210.763148 
L 212.87625 210.94595 
L 214.633515 212.375303 
L 214.853173 212.791707 
L 215.072831 212.364577 
L 215.292489 212.350172 
L 215.512147 212.078777 
L 215.731805 212.488506 
L 215.951463 212.324127 
L 216.390779 212.834193 
L 216.830095 213.143191 
L 217.489069 212.968328 
L 217.708727 213.179026 
L 217.928385 212.932094 
L 218.148043 213.166025 
L 218.587359 213.820685 
L 218.807017 213.890697 
L 219.246333 214.404119 
L 219.465991 214.456823 
L 219.685649 214.832178 
L 219.905307 214.796293 
L 220.783939 216.070481 
L 221.442913 216.23241 
L 221.662571 216.272619 
L 221.882229 216.09163 
L 222.541203 216.34824 
L 222.760861 216.352535 
L 222.980519 216.158807 
L 223.200177 216.178127 
L 223.419835 215.774312 
L 223.639493 216.067464 
L 223.859151 216.017451 
L 224.737783 217.281042 
L 224.957441 217.322557 
L 225.177099 217.505261 
L 225.836073 217.410713 
L 226.275389 217.830452 
L 226.934363 217.693676 
L 227.154021 217.719173 
L 228.032653 218.35292 
L 228.252311 218.304267 
L 228.691628 218.614186 
L 228.911286 218.689277 
L 229.130944 218.909708 
L 230.448892 219.208402 
L 230.888208 219.614718 
L 231.107866 219.786509 
L 231.76684 219.869729 
L 232.206156 220.080866 
L 232.425814 220.279252 
L 232.86513 220.243425 
L 233.084788 220.327846 
L 233.304446 220.176463 
L 234.402736 220.966921 
L 235.501026 221.40401 
L 235.720684 221.73366 
L 236.599316 222.05593 
L 236.818974 221.714153 
L 237.038632 221.953065 
L 237.25829 221.717433 
L 237.697606 222.354123 
L 237.917264 222.433124 
L 238.35658 222.79615 
L 238.795896 223.121288 
L 240.333502 223.796075 
L 240.55316 223.786305 
L 240.772818 223.900005 
L 240.992476 224.195554 
L 241.212134 223.890391 
L 241.431792 223.925909 
L 241.65145 224.402036 
L 242.090766 224.086978 
L 242.310424 223.899286 
L 242.530082 224.253244 
L 242.74974 224.229938 
L 243.408714 224.96705 
L 243.628372 224.975798 
L 244.067689 225.124583 
L 244.287347 225.235744 
L 244.507005 225.057468 
L 244.726663 225.113203 
L 244.946321 225.301506 
L 245.385637 225.226196 
L 245.605295 225.383622 
L 245.824953 225.715235 
L 246.703585 225.987032 
L 246.923243 226.290964 
L 247.582217 226.600681 
L 248.021533 226.886391 
L 248.241191 227.056996 
L 248.460849 227.084018 
L 248.900165 227.534461 
L 249.339481 227.568367 
L 249.559139 227.869401 
L 249.778797 227.851622 
L 249.998455 228.168521 
L 250.437771 228.359818 
L 250.657429 228.383384 
L 250.877087 228.529291 
L 251.096745 228.506608 
L 251.316403 228.656017 
L 251.536061 228.632837 
L 251.755719 228.735607 
L 252.195035 229.176888 
L 252.634351 229.013156 
L 252.854009 228.724408 
L 253.293325 229.32923 
L 253.952299 229.242695 
L 254.171957 229.475438 
L 254.391615 229.512744 
L 254.611273 229.670207 
L 254.830931 229.637603 
L 255.270247 229.712572 
L 256.148879 229.775811 
L 256.368537 229.958916 
L 257.247169 230.115655 
L 257.906143 230.24279 
L 258.345459 230.166831 
L 258.565117 229.934252 
L 259.004434 230.372701 
L 259.224092 230.401074 
L 259.663408 230.598026 
L 260.54204 230.930387 
L 260.761698 231.15556 
L 261.420672 231.258003 
L 261.859988 231.684406 
L 262.73862 231.771058 
L 262.958278 231.559571 
L 263.397594 232.183776 
L 263.617252 232.31348 
L 264.056568 232.714283 
L 264.495884 232.810173 
L 264.715542 232.978336 
L 265.154858 233.02161 
L 265.374516 233.256775 
L 265.594174 233.259007 
L 266.03349 233.572049 
L 267.571096 233.995023 
L 267.790754 233.914953 
L 268.010412 234.053341 
L 268.449728 234.594848 
L 268.889044 234.778318 
L 269.108702 234.714603 
L 269.548018 235.130773 
L 270.206992 235.347721 
L 270.865966 235.50199 
L 271.744598 235.472111 
L 271.964256 235.744884 
L 272.183914 235.838747 
L 272.403572 235.783597 
L 272.62323 235.5529 
L 272.842888 235.655463 
L 273.501862 236.308073 
L 273.72152 236.222988 
L 273.941178 235.843572 
L 274.160837 235.911588 
L 274.380495 235.73302 
L 274.600153 236.108156 
L 274.819811 235.939279 
L 275.259127 236.418722 
L 275.698443 236.643757 
L 275.918101 236.55821 
L 276.357417 236.755245 
L 276.796733 237.250614 
L 278.334339 238.006299 
L 278.553997 237.92554 
L 278.993313 238.156416 
L 279.652287 238.490524 
L 280.530919 238.783387 
L 280.750577 238.719123 
L 280.970235 238.771777 
L 281.409551 239.012303 
L 281.629209 239.135755 
L 281.848867 239.108047 
L 282.068525 239.260714 
L 282.727499 239.311901 
L 282.947157 239.363988 
L 283.166815 238.900318 
L 283.386473 239.202143 
L 283.825789 238.75546 
L 284.045447 239.136667 
L 284.265105 239.057784 
L 284.924079 239.922108 
L 285.143737 239.787613 
L 285.363395 239.929052 
L 285.802711 239.669639 
L 286.022369 239.990478 
L 286.681343 239.556974 
L 287.120659 240.196551 
L 287.999291 240.853441 
L 288.438607 240.908954 
L 288.658265 241.130462 
L 288.877923 241.189707 
L 289.097581 240.866644 
L 290.195872 241.355829 
L 290.41553 241.135059 
L 290.635188 241.246209 
L 290.854846 240.975765 
L 291.074504 240.998418 
L 291.51382 240.677671 
L 291.733478 240.946199 
L 291.953136 240.881483 
L 292.392452 241.0735 
L 292.831768 242.098071 
L 293.271084 242.625607 
L 293.490742 242.259947 
L 293.7104 242.433979 
L 293.930058 242.455518 
L 294.369374 243.120112 
L 294.80869 242.53825 
L 295.028348 242.603201 
L 295.248006 243.03643 
L 295.467664 243.176962 
L 295.687322 242.85939 
L 296.126638 242.808465 
L 296.346296 242.603733 
L 296.785612 243.511941 
L 297.00527 243.56387 
L 297.224928 243.405069 
L 297.444586 243.836385 
L 297.664244 243.873989 
L 297.883902 243.757616 
L 298.10356 243.341796 
L 298.323218 243.340366 
L 298.542876 244.031564 
L 299.20185 243.744396 
L 299.860824 244.928549 
L 300.080482 245.209709 
L 300.30014 245.306245 
L 300.519798 245.548648 
L 300.739456 245.340283 
L 300.959114 245.726309 
L 301.178772 245.876789 
L 301.618088 246.529951 
L 302.057404 246.3786 
L 302.277062 246.610905 
L 302.49672 247.005192 
L 302.936036 246.860942 
L 303.375352 247.15672 
L 303.59501 247.032165 
L 303.814668 247.10017 
L 304.034326 247.388775 
L 304.253984 247.227257 
L 304.473643 247.249862 
L 304.693301 247.587111 
L 304.912959 247.57638 
L 305.132617 247.306965 
L 305.352275 246.818392 
L 305.571933 247.0049 
L 305.791591 246.584163 
L 306.011249 246.700738 
L 306.230907 247.243463 
L 306.450565 246.691767 
L 306.889881 247.064153 
L 307.109539 247.71957 
L 307.329197 247.03959 
L 307.548855 247.02942 
L 307.768513 246.606671 
L 307.988171 246.839476 
L 308.427487 246.646938 
L 308.647145 247.333676 
L 308.866803 247.551649 
L 309.086461 248.039876 
L 309.306119 247.459339 
L 309.745435 247.755848 
L 309.965093 248.20462 
L 310.184751 248.278866 
L 310.843725 249.591847 
L 311.283041 249.693724 
L 311.502699 250.172437 
L 311.722357 250.142617 
L 312.161673 250.755705 
L 312.381331 250.654611 
L 312.820647 250.050018 
L 313.040305 249.562556 
L 313.259963 249.741258 
L 313.479621 250.073075 
L 313.699279 249.703635 
L 313.918937 250.016584 
L 314.138595 250.601939 
L 314.358253 250.700546 
L 315.017227 251.52177 
L 315.236885 251.273372 
L 315.676201 251.237189 
L 315.895859 251.415514 
L 316.335175 251.411395 
L 316.554833 251.782791 
L 317.433465 251.646988 
L 317.653123 251.739799 
L 317.872781 252.137629 
L 318.092439 252.049824 
L 318.312097 252.606302 
L 318.751413 253.091573 
L 318.971071 253.060041 
L 319.190729 253.236887 
L 319.410388 253.166058 
L 320.069362 254.473725 
L 320.508678 254.467004 
L 320.728336 254.866514 
L 321.167652 255.105998 
L 321.606968 255.363692 
L 321.826626 255.873251 
L 322.046284 255.98589 
L 322.4856 256.716802 
L 322.705258 257.017368 
L 322.924916 257.115551 
L 323.144574 257.372521 
L 323.364232 257.350402 
L 323.58389 257.160591 
L 324.023206 257.528081 
L 324.242864 257.90833 
L 324.462522 257.411056 
L 325.78047 257.698307 
L 326.219786 258.442482 
L 326.659102 259.083833 
L 326.87876 258.406573 
L 327.098418 258.622009 
L 327.537734 258.52543 
L 327.757392 258.969744 
L 328.855682 258.79379 
L 329.07534 258.93832 
L 329.294998 259.369168 
L 329.734314 259.296204 
L 330.17363 260.451464 
L 330.612946 260.663064 
L 330.832604 260.372929 
L 331.491578 260.703357 
L 331.711236 261.211644 
L 331.930894 261.001829 
L 332.37021 261.775889 
L 332.809526 261.805427 
L 333.248842 262.711474 
L 333.4685 263.079105 
L 333.907816 263.017956 
L 334.127474 263.533055 
L 334.347132 263.449252 
L 334.566791 263.492025 
L 334.786449 263.147884 
L 335.006107 263.050857 
L 335.445423 263.626944 
L 335.665081 263.783392 
L 335.884739 263.634607 
L 336.104397 264.654502 
L 336.324055 264.895035 
L 336.543713 264.784177 
L 336.983029 265.105004 
L 337.202687 265.189264 
L 338.081319 266.054717 
L 338.300977 266.101633 
L 338.520635 265.964647 
L 338.740293 266.015089 
L 338.959951 266.612027 
L 339.399267 266.75503 
L 339.838583 266.361702 
L 340.058241 266.39886 
L 340.277899 266.625672 
L 340.497557 266.609079 
L 340.936873 267.283494 
L 341.156531 267.3177 
L 341.376189 266.997637 
L 341.815505 266.970765 
L 342.035163 267.174782 
L 342.254821 267.549376 
L 342.474479 267.384267 
L 342.694137 267.536921 
L 343.133453 267.414872 
L 343.353111 267.763614 
L 343.572769 267.894436 
L 343.792427 267.829232 
L 344.012085 268.046658 
L 344.231743 267.959863 
L 344.451401 268.378196 
L 344.671059 268.442819 
L 345.549691 269.287679 
L 345.769349 269.281096 
L 346.208665 269.045188 
L 346.647981 269.598493 
L 347.087297 269.753144 
L 347.526613 270.137084 
L 347.746271 270.058781 
L 348.405245 271.219899 
L 348.844561 271.175611 
L 349.064219 271.591311 
L 349.503535 271.552662 
L 349.723194 271.716888 
L 350.16251 272.172949 
L 350.382168 272.375647 
L 350.601826 272.252824 
L 350.821484 272.298189 
L 351.041142 271.988839 
L 352.578748 272.427481 
L 352.798406 272.780502 
L 353.018064 272.792075 
L 353.237722 272.583248 
L 353.45738 272.649871 
L 353.677038 272.370791 
L 353.896696 272.305504 
L 354.116354 272.413099 
L 354.336012 272.75362 
L 354.55567 272.761476 
L 354.775328 273.135201 
L 354.994986 273.030992 
L 355.434302 273.676845 
L 355.65396 273.478295 
L 356.971908 274.162805 
L 357.411224 274.584504 
L 357.85054 274.655179 
L 358.509514 275.018553 
L 358.729172 275.024698 
L 358.94883 275.327932 
L 359.607804 275.666407 
L 359.827462 275.827451 
L 360.04712 275.796659 
L 360.486436 276.017147 
L 360.706094 275.827803 
L 360.925752 275.830999 
L 361.365068 276.485313 
L 361.584726 276.629024 
L 362.024042 276.5691 
L 362.2437 276.611686 
L 362.463358 277.102508 
L 363.34199 277.552676 
L 364.220622 277.95219 
L 364.659938 278.284265 
L 364.879597 278.428196 
L 365.318913 278.378248 
L 365.977887 279.196054 
L 366.197545 279.200677 
L 366.856519 279.971635 
L 368.394125 281.198515 
L 368.613783 281.54778 
L 369.272757 281.67865 
L 369.492415 281.898127 
L 369.931731 281.964071 
L 370.371047 282.357194 
L 370.590705 282.496867 
L 371.249679 283.297527 
L 371.688995 283.563091 
L 372.347969 284.456837 
L 372.787285 285.014158 
L 373.665917 285.817406 
L 375.423181 287.249252 
L 375.642839 287.141954 
L 376.082155 287.277219 
L 376.301813 287.579223 
L 377.180445 287.718949 
L 377.400103 288.021658 
L 377.839419 287.722685 
L 378.059077 287.641744 
L 378.278735 287.681414 
L 378.498393 287.849923 
L 378.718051 287.830472 
L 378.937709 288.086057 
L 379.157367 287.877365 
L 379.596683 288.164631 
L 379.816341 288.493513 
L 380.036 288.591291 
L 381.353948 288.517405 
L 381.573606 288.683811 
L 382.012922 288.623564 
L 382.23258 288.88457 
L 382.452238 288.657871 
L 382.891554 288.730044 
L 383.550528 288.404236 
L 383.770186 288.525357 
L 383.989844 288.396003 
L 384.868476 288.821833 
L 385.088134 288.62387 
L 385.307792 288.829451 
L 385.52745 288.872853 
L 385.966766 289.319557 
L 386.406082 289.619503 
L 386.845398 289.511749 
L 387.065056 289.790277 
L 387.284714 289.838137 
L 387.504372 289.590438 
L 387.72403 289.526527 
L 387.943688 289.325577 
L 388.602662 289.410049 
L 389.041978 289.294151 
L 390.140268 290.693289 
L 390.799242 290.833646 
L 391.0189 290.736934 
L 391.238558 291.024012 
L 391.458216 291.070782 
L 391.677874 291.458463 
L 394.094112 292.43468 
L 394.31377 292.655865 
L 394.753086 292.711429 
L 394.972744 292.722159 
L 396.290693 294.061841 
L 396.730009 294.311945 
L 396.949667 294.564082 
L 397.169325 294.42526 
L 397.608641 294.941395 
L 398.047957 295.348496 
L 398.487273 295.488 
L 398.487273 295.488 
" clip-path="url(#pfcd4f43fe9)" style="fill: none; stroke: #1f77b4; stroke-opacity: 0.7; stroke-width: 1.5; stroke-linecap: square"/>
   </g>
   <g id="line2d_16">
    <path d="M 73.832727 164.078157 
L 74.052385 164.226644 
L 74.491701 164.20567 
L 74.931017 164.109247 
L 75.370333 164.296818 
L 76.029307 163.727254 
L 77.566914 163.994033 
L 78.00623 163.756814 
L 79.10452 163.409943 
L 79.543836 162.807864 
L 79.763494 163.091065 
L 79.983152 162.888813 
L 80.20281 162.839339 
L 80.422468 162.98021 
L 80.642126 162.718123 
L 81.3011 163.091925 
L 81.520758 162.849964 
L 81.740416 162.872278 
L 81.960074 163.074691 
L 82.179732 162.969035 
L 82.39939 163.03795 
L 82.838706 162.97353 
L 83.058364 163.041944 
L 84.376312 162.509371 
L 84.815628 162.632908 
L 85.035286 162.470018 
L 85.254944 162.478391 
L 85.69426 162.29607 
L 86.133576 162.424483 
L 86.353234 162.379092 
L 86.79255 162.497743 
L 87.89084 162.300702 
L 88.110498 162.227571 
L 88.330156 162.295162 
L 89.428446 161.967762 
L 89.648104 162.123566 
L 89.867762 162.003101 
L 90.307078 162.111407 
L 90.746394 162.055703 
L 95.139555 161.123371 
L 95.798529 161.291484 
L 96.018187 161.163224 
L 96.457503 161.197145 
L 96.896819 161.159802 
L 97.336135 161.063571 
L 97.775451 161.041488 
L 98.434425 161.084034 
L 98.873741 160.892426 
L 100.191689 160.835863 
L 100.850663 160.655665 
L 101.509637 160.494862 
L 101.948953 160.570996 
L 104.145533 160.375983 
L 105.683139 160.137475 
L 106.122455 160.15157 
L 106.342113 160.054433 
L 107.001087 160.185698 
L 108.758352 159.988522 
L 108.97801 159.98451 
L 109.636984 159.714321 
L 109.856642 159.667107 
L 110.295958 159.009423 
L 110.515616 159.157738 
L 110.735274 159.063947 
L 110.954932 159.297833 
L 111.17459 159.26477 
L 111.394248 159.081264 
L 111.833564 158.973507 
L 112.053222 158.891525 
L 112.27288 158.520851 
L 112.492538 158.71114 
L 112.931854 158.400907 
L 113.590828 158.644675 
L 114.030144 158.532922 
L 114.249802 158.558774 
L 114.46946 158.753917 
L 114.908776 158.487879 
L 115.128434 158.201956 
L 115.348092 158.145877 
L 115.56775 157.966644 
L 116.007066 157.988808 
L 116.446382 157.50501 
L 116.66604 157.540021 
L 116.885698 157.401738 
L 117.105356 157.521628 
L 117.325014 157.513742 
L 117.544672 157.700156 
L 117.76433 157.582265 
L 118.203646 157.632218 
L 118.423304 157.171158 
L 118.642962 157.117047 
L 118.86262 156.765674 
L 119.741252 156.710551 
L 120.180568 156.16395 
L 120.400226 156.124297 
L 121.0592 155.458058 
L 121.278858 155.141511 
L 121.498516 155.587622 
L 121.937832 155.584595 
L 122.377148 155.613798 
L 122.596806 155.302944 
L 122.816465 155.609755 
L 123.695097 155.56624 
L 124.573729 155.261368 
L 125.013045 155.313285 
L 125.452361 154.973482 
L 126.330993 154.541028 
L 126.770309 154.576755 
L 127.209625 154.416638 
L 127.648941 154.228149 
L 128.088257 153.94479 
L 128.307915 153.883521 
L 128.747231 153.933053 
L 128.966889 153.760269 
L 129.406205 153.760226 
L 131.602785 153.119569 
L 132.261759 152.719886 
L 132.481417 152.83508 
L 134.238681 152.695423 
L 134.458339 152.401385 
L 135.556629 152.106347 
L 135.776287 152.172257 
L 136.435261 151.978869 
L 136.874577 151.928711 
L 137.094235 151.762833 
L 139.94979 151.434033 
L 141.04808 151.026775 
L 141.267738 150.747231 
L 141.926712 150.622271 
L 142.14637 150.296046 
L 142.805344 150.425838 
L 143.24466 150.152712 
L 143.464318 150.21439 
L 144.782266 149.684027 
L 145.221582 149.393862 
L 145.44124 149.588992 
L 146.53953 149.56275 
L 147.198504 149.362925 
L 147.63782 149.339409 
L 148.516452 149.123303 
L 148.955768 148.882417 
L 151.591664 148.604527 
L 152.470296 148.28206 
L 153.788245 148.176689 
L 154.227561 147.943463 
L 154.666877 147.672202 
L 154.886535 147.288563 
L 155.106193 147.43829 
L 155.325851 147.391017 
L 155.545509 147.558571 
L 155.984825 147.242198 
L 156.204483 147.376192 
L 156.424141 146.964178 
L 156.643799 146.940707 
L 157.083115 147.21781 
L 157.302773 147.039632 
L 157.522431 147.078241 
L 157.742089 146.967296 
L 157.961747 146.552095 
L 158.181405 146.665917 
L 158.620721 146.593096 
L 158.840379 146.665599 
L 159.499353 146.567007 
L 159.938669 146.586475 
L 160.377985 146.491385 
L 160.817301 146.555469 
L 162.574565 145.945713 
L 162.794223 145.992971 
L 163.672855 145.643467 
L 163.892513 145.381729 
L 164.551487 145.393474 
L 164.771145 145.147798 
L 165.430119 145.37684 
L 165.649777 145.315496 
L 165.869435 145.419675 
L 166.308751 145.311161 
L 166.528409 145.131557 
L 166.748067 145.129685 
L 167.187383 144.991625 
L 168.505332 144.816918 
L 168.944648 144.884982 
L 169.603622 144.739605 
L 172.898492 144.297882 
L 173.337808 144.032409 
L 173.996782 144.204185 
L 174.655756 144.082614 
L 175.095072 144.124702 
L 175.534388 144.145876 
L 175.973704 144.098337 
L 176.41302 144.084156 
L 176.852336 144.05985 
L 178.6096 143.895188 
L 178.829258 143.93459 
L 179.048916 143.838873 
L 179.268574 143.894439 
L 179.70789 143.792742 
L 180.147206 143.87533 
L 180.586522 143.725873 
L 180.80618 143.711754 
L 181.245496 143.323258 
L 181.465154 143.413617 
L 181.90447 143.319956 
L 182.124128 143.037757 
L 182.563444 143.268456 
L 182.783102 143.389713 
L 183.00276 143.382357 
L 183.222419 143.256706 
L 183.442077 143.336027 
L 184.979683 143.007408 
L 185.199341 142.803482 
L 185.638657 141.879946 
L 185.858315 141.793546 
L 186.077973 141.209513 
L 186.297631 141.052187 
L 186.517289 141.566034 
L 186.736947 141.139196 
L 186.956605 141.590441 
L 187.615579 139.80159 
L 187.835237 140.315836 
L 188.054895 139.680509 
L 188.274553 138.551539 
L 188.494211 139.475809 
L 188.713869 138.105287 
L 188.933527 138.687419 
L 189.153185 138.14424 
L 189.372843 138.162105 
L 189.812159 137.443997 
L 190.031817 138.203192 
L 190.251475 138.21308 
L 190.471133 138.774377 
L 190.690791 138.343737 
L 190.910449 138.633349 
L 191.130107 138.371509 
L 191.349765 137.795923 
L 191.569423 137.951716 
L 191.789081 137.710997 
L 192.008739 138.362456 
L 192.228397 138.141823 
L 192.667713 138.230601 
L 192.887371 137.916504 
L 193.107029 137.851501 
L 193.326687 137.303279 
L 193.546345 137.123029 
L 193.766003 137.14186 
L 194.205319 136.14362 
L 194.424977 136.270564 
L 194.644635 136.029635 
L 195.083951 135.996273 
L 195.303609 135.765996 
L 195.523267 135.954682 
L 195.742925 135.647276 
L 195.962583 134.981626 
L 196.621557 134.549192 
L 197.280531 134.524382 
L 197.719847 133.74735 
L 198.159163 133.605455 
L 198.378822 133.79178 
L 198.59848 133.491082 
L 198.818138 133.51589 
L 199.257454 133.135278 
L 199.69677 133.182975 
L 200.136086 132.907581 
L 200.575402 132.800168 
L 200.79506 132.871699 
L 201.014718 132.736669 
L 201.234376 133.02875 
L 201.454034 133.027131 
L 201.89335 132.634978 
L 202.113008 131.813795 
L 202.771982 131.865742 
L 203.430956 131.321877 
L 203.870272 131.1856 
L 204.08993 130.774152 
L 204.309588 130.866245 
L 204.529246 130.441409 
L 205.18822 130.466368 
L 205.407878 130.368651 
L 205.627536 130.423827 
L 205.847194 130.081925 
L 206.066852 130.035753 
L 206.28651 129.821486 
L 206.506168 129.856785 
L 206.725826 129.627773 
L 207.165142 129.731252 
L 207.604458 129.514134 
L 208.043774 129.492225 
L 208.263432 129.503947 
L 208.702748 129.132759 
L 208.922406 129.139679 
L 209.142064 128.958829 
L 209.361722 129.032873 
L 209.58138 128.891239 
L 210.899328 128.752582 
L 211.118986 128.693612 
L 211.338644 128.486439 
L 211.558302 128.647652 
L 212.217276 128.465723 
L 213.535225 128.360567 
L 213.754883 128.437765 
L 214.633515 128.326714 
L 214.853173 128.46295 
L 215.072831 127.838882 
L 215.292489 127.63597 
L 215.512147 127.118289 
L 215.731805 127.347977 
L 215.951463 127.013 
L 216.171121 126.9786 
L 216.610437 127.080538 
L 217.269411 126.50143 
L 217.489069 126.282408 
L 217.708727 126.321986 
L 217.928385 125.885351 
L 218.148043 125.82467 
L 218.587359 126.047934 
L 218.807017 125.846039 
L 219.246333 125.828607 
L 219.465991 125.568634 
L 219.685649 125.760616 
L 219.905307 125.442245 
L 220.124965 125.572839 
L 220.564281 125.602511 
L 220.783939 125.774234 
L 221.442913 125.238253 
L 221.662571 125.183453 
L 221.882229 124.866344 
L 222.760861 124.868773 
L 222.980519 124.490857 
L 223.200177 124.404303 
L 223.419835 123.890761 
L 223.639493 123.9404 
L 223.859151 123.660163 
L 224.518125 124.087981 
L 224.737783 124.239034 
L 224.957441 124.09872 
L 225.177099 124.129932 
L 225.396757 124.042008 
L 225.616415 124.103647 
L 225.836073 123.804902 
L 226.275389 123.916048 
L 226.495047 123.776439 
L 226.714705 123.489494 
L 226.934363 123.389731 
L 227.154021 123.145689 
L 227.373679 123.115416 
L 227.593337 123.247939 
L 228.252311 122.845702 
L 228.691628 122.842765 
L 229.789918 122.467501 
L 230.448892 122.128095 
L 230.66855 122.247185 
L 232.206156 121.740983 
L 232.425814 121.854844 
L 232.86513 121.718582 
L 233.084788 121.772379 
L 233.304446 121.463405 
L 234.183078 121.601442 
L 234.622394 121.26919 
L 235.06171 121.028299 
L 235.281368 120.845403 
L 235.940342 121.045487 
L 236.379658 120.916838 
L 236.599316 120.833318 
L 236.818974 120.367732 
L 237.038632 120.455986 
L 237.25829 120.077284 
L 237.697606 120.354294 
L 237.917264 120.30035 
L 238.136922 120.397958 
L 239.015554 120.200701 
L 240.333502 119.616477 
L 240.55316 119.42193 
L 240.772818 119.43632 
L 240.992476 119.584096 
L 241.212134 119.141368 
L 241.431792 118.973735 
L 241.65145 119.282372 
L 242.310424 118.430323 
L 242.530082 118.655903 
L 242.74974 118.488425 
L 243.189056 118.586223 
L 243.408714 118.657053 
L 243.628372 118.555143 
L 243.848031 118.600243 
L 244.726663 118.042569 
L 244.946321 118.110873 
L 245.385637 117.745495 
L 245.605295 117.743314 
L 245.824953 117.904707 
L 246.483927 117.551217 
L 246.923243 117.825378 
L 247.362559 117.697022 
L 248.241191 117.532649 
L 248.460849 117.404668 
L 248.900165 117.466344 
L 249.339481 117.122007 
L 249.559139 117.17167 
L 249.778797 116.913244 
L 249.998455 117.053314 
L 251.316403 116.674693 
L 251.755719 116.408625 
L 252.195035 116.490954 
L 252.854009 115.52727 
L 253.293325 115.857724 
L 254.171957 115.535141 
L 254.391615 115.442248 
L 254.611273 115.512076 
L 255.709563 115.22292 
L 255.929221 115.222902 
L 256.148879 115.068339 
L 256.368537 115.169711 
L 257.027511 114.929105 
L 257.686485 114.951676 
L 258.565117 114.464257 
L 258.784775 114.642331 
L 259.44375 114.601703 
L 261.201014 114.411593 
L 261.420672 114.182866 
L 261.64033 114.342796 
L 261.859988 114.338084 
L 262.73862 113.901579 
L 262.958278 113.547192 
L 263.397594 113.824521 
L 263.617252 113.793513 
L 263.83691 113.907417 
L 264.056568 113.836161 
L 264.276226 113.621092 
L 266.692464 113.06297 
L 267.351438 113.08053 
L 268.010412 112.645562 
L 268.449728 112.8387 
L 269.32836 112.727104 
L 269.767676 112.65404 
L 270.865966 112.37474 
L 271.744598 111.884976 
L 271.964256 111.952156 
L 272.183914 111.835998 
L 272.842888 111.07121 
L 273.501862 111.173913 
L 273.72152 111.015574 
L 273.941178 110.530415 
L 274.160837 110.514496 
L 274.380495 110.226983 
L 274.600153 110.363336 
L 274.819811 110.070463 
L 275.039469 110.144057 
L 275.698443 109.91903 
L 276.137759 109.521979 
L 276.357417 109.499715 
L 276.577075 109.741883 
L 277.455707 109.790865 
L 278.334339 109.592178 
L 278.553997 109.402451 
L 278.773655 109.503685 
L 279.432629 109.409362 
L 280.091603 109.466005 
L 280.530919 109.250404 
L 280.750577 109.011406 
L 282.947157 108.516426 
L 283.166815 107.981246 
L 283.386473 108.149196 
L 283.825789 107.370453 
L 284.045447 107.573244 
L 284.265105 107.321455 
L 284.484763 107.452624 
L 284.704421 107.775034 
L 284.924079 107.715982 
L 285.143737 107.496723 
L 285.363395 107.613353 
L 285.802711 107.152948 
L 286.022369 107.40024 
L 286.681343 106.595165 
L 287.120659 106.870738 
L 287.340317 106.855981 
L 287.559975 106.959815 
L 288.438607 106.294598 
L 288.658265 106.313679 
L 288.877923 106.183468 
L 289.097581 105.676686 
L 289.756556 105.495092 
L 289.976214 105.645147 
L 290.195872 105.652605 
L 290.41553 105.334124 
L 290.635188 105.329895 
L 291.51382 103.990111 
L 291.733478 103.927577 
L 291.953136 103.575082 
L 292.392452 103.23195 
L 292.831768 103.784489 
L 293.271084 103.861112 
L 293.490742 103.242294 
L 293.7104 103.232431 
L 293.930058 102.968038 
L 294.149716 102.958148 
L 294.369374 103.064732 
L 294.80869 102.114884 
L 295.028348 101.915475 
L 295.248006 102.129663 
L 295.467664 102.137294 
L 295.687322 101.68858 
L 296.126638 101.205189 
L 296.346296 100.747233 
L 296.565954 100.864046 
L 296.785612 101.124738 
L 297.00527 100.964406 
L 297.224928 100.527081 
L 297.444586 100.72328 
L 297.883902 100.227731 
L 298.10356 99.537735 
L 298.323218 99.307362 
L 298.542876 99.633312 
L 298.762534 99.401039 
L 299.20185 98.736828 
L 299.860824 99.25991 
L 300.080482 99.317243 
L 300.30014 99.174882 
L 300.519798 99.258326 
L 300.739456 98.850776 
L 300.959114 98.94114 
L 301.618088 98.863197 
L 302.277062 97.913512 
L 302.49672 97.91225 
L 302.936036 97.27229 
L 303.155694 97.27131 
L 303.375352 97.095496 
L 303.59501 96.675558 
L 303.814668 96.501257 
L 304.034326 96.649672 
L 304.473643 96.234709 
L 304.693301 96.447361 
L 304.912959 96.354353 
L 305.132617 95.989943 
L 305.352275 95.408454 
L 305.571933 95.378503 
L 305.791591 94.781991 
L 306.011249 94.625024 
L 306.230907 94.861358 
L 306.450565 94.029297 
L 306.889881 93.852625 
L 307.109539 94.189287 
L 307.329197 93.375024 
L 307.548855 93.119198 
L 307.768513 92.383712 
L 307.988171 92.282814 
L 308.207829 91.862169 
L 308.427487 91.73349 
L 308.647145 91.996513 
L 308.866803 91.768026 
L 309.086461 91.978671 
L 309.306119 91.164755 
L 309.745435 90.763363 
L 309.965093 90.917607 
L 310.184751 90.619222 
L 310.404409 90.608329 
L 310.843725 91.048102 
L 311.283041 90.483364 
L 311.502699 90.652486 
L 311.722357 90.225551 
L 311.942015 90.114598 
L 312.161673 90.234937 
L 312.381331 89.985916 
L 313.040305 88.06867 
L 313.259963 87.923994 
L 313.479621 88.046717 
L 313.699279 87.397754 
L 313.918937 87.289683 
L 314.138595 87.57266 
L 314.358253 87.397931 
L 314.577911 87.437549 
L 314.797569 87.77773 
L 315.017227 87.599174 
L 315.236885 87.148279 
L 315.456543 87.023949 
L 315.676201 86.748389 
L 316.335175 86.822858 
L 316.554833 87.032918 
L 316.774491 86.984988 
L 317.213807 86.485388 
L 317.433465 86.345997 
L 317.653123 86.340746 
L 317.872781 86.570253 
L 318.092439 86.352737 
L 318.312097 86.720165 
L 318.751413 86.731589 
L 318.971071 86.426798 
L 319.190729 86.364514 
L 319.410388 86.083783 
L 319.630046 86.469314 
L 320.069362 86.682054 
L 320.508678 86.300673 
L 320.728336 86.396874 
L 321.606968 85.772874 
L 321.826626 86.044942 
L 322.046284 85.902485 
L 322.265942 86.024833 
L 322.705258 85.83183 
L 323.803548 84.517788 
L 324.023206 84.463369 
L 324.242864 84.572858 
L 324.462522 83.889871 
L 325.560812 82.832717 
L 325.78047 82.686919 
L 326.000128 82.842131 
L 326.219786 82.840019 
L 326.659102 83.10142 
L 326.87876 82.203564 
L 327.098418 82.256947 
L 327.537734 81.774853 
L 327.757392 81.817548 
L 329.07534 80.210747 
L 329.294998 80.38083 
L 329.734314 79.570376 
L 330.17363 80.056237 
L 330.612946 79.538006 
L 330.832604 78.932741 
L 331.491578 78.191193 
L 331.711236 78.437081 
L 331.930894 77.89959 
L 332.150552 78.153722 
L 332.37021 78.210068 
L 332.809526 77.677514 
L 333.029184 77.914195 
L 333.4685 78.019346 
L 333.907816 77.479908 
L 334.127474 77.766409 
L 334.566791 77.296371 
L 334.786449 76.820193 
L 335.006107 76.633602 
L 335.445423 76.865983 
L 335.665081 76.908092 
L 335.884739 76.550432 
L 336.104397 77.332635 
L 336.324055 77.230764 
L 336.543713 76.792269 
L 336.763371 76.769912 
L 337.642003 76.067531 
L 337.861661 76.207675 
L 338.081319 76.192393 
L 338.300977 75.986643 
L 338.740293 75.39959 
L 338.959951 75.734077 
L 339.399267 75.29781 
L 339.838583 74.385607 
L 340.058241 74.251543 
L 340.277899 74.281277 
L 340.497557 74.088031 
L 340.717215 74.280719 
L 340.936873 74.294888 
L 341.156531 74.041354 
L 341.595847 73.249145 
L 341.815505 72.951705 
L 342.035163 72.855612 
L 342.254821 73.005474 
L 342.474479 72.604571 
L 342.694137 72.521293 
L 342.913795 72.308901 
L 343.133453 71.845921 
L 343.353111 72.02284 
L 343.792427 71.793542 
L 344.012085 71.779516 
L 344.231743 71.526 
L 344.451401 71.847207 
L 345.769349 71.327407 
L 346.208665 70.797011 
L 346.647981 71.143172 
L 347.087297 70.935805 
L 347.306955 71.038855 
L 347.526613 70.986362 
L 347.746271 70.669427 
L 348.405245 71.028061 
L 348.844561 70.552166 
L 349.064219 70.691478 
L 349.503535 70.113102 
L 349.723194 70.088988 
L 349.942852 70.211759 
L 350.821484 69.561958 
L 351.041142 69.188366 
L 351.2608 69.101428 
L 351.480458 69.157433 
L 351.700116 68.932473 
L 351.919774 68.916064 
L 352.35909 68.549248 
L 353.018064 68.71486 
L 353.237722 68.365888 
L 353.45738 68.312743 
L 353.896696 67.709998 
L 354.116354 67.590243 
L 354.336012 67.769128 
L 354.55567 67.569729 
L 354.775328 67.747182 
L 354.994986 67.424487 
L 355.434302 67.563703 
L 355.65396 67.171508 
L 356.312934 66.947403 
L 356.532592 66.808861 
L 356.75225 66.982828 
L 356.971908 67.002471 
L 357.191566 67.143317 
L 357.630882 66.930467 
L 358.729172 66.270676 
L 358.94883 66.428776 
L 360.266778 65.894159 
L 360.486436 65.813293 
L 360.925752 65.393334 
L 361.14541 65.692959 
L 361.365068 65.780077 
L 361.584726 65.720037 
L 362.2437 65.091791 
L 362.463358 65.364647 
L 363.781306 65.005763 
L 364.000964 64.832635 
L 364.44028 65.058806 
L 365.318913 64.296842 
L 365.977887 64.453182 
L 366.197545 64.296834 
L 366.636861 64.511224 
L 367.295835 64.134074 
L 368.833441 64.121593 
L 369.272757 63.788555 
L 369.492415 63.793345 
L 369.931731 63.436663 
L 370.151389 63.550594 
L 370.590705 63.326785 
L 370.810363 63.478317 
L 371.249679 63.235375 
L 371.688995 62.862622 
L 372.567627 63.149468 
L 372.787285 63.0398 
L 373.446259 63.089336 
L 373.885575 62.82084 
L 374.544549 62.793674 
L 374.764207 62.64816 
L 374.983865 62.812636 
L 375.423181 62.628675 
L 375.862497 62.193766 
L 376.082155 61.963035 
L 376.301813 62.052514 
L 376.960787 61.63566 
L 377.619761 61.374157 
L 378.278735 60.923052 
L 378.498393 60.962726 
L 378.718051 60.826937 
L 378.937709 60.964054 
L 379.157367 60.6053 
L 379.596683 60.661259 
L 379.816341 60.838647 
L 380.475316 60.572883 
L 381.13429 60.028193 
L 381.353948 59.994361 
L 381.573606 60.11078 
L 382.012922 59.990301 
L 382.23258 60.151561 
L 382.452238 59.880393 
L 382.891554 59.708605 
L 383.111212 59.490001 
L 383.33087 59.105696 
L 383.770186 58.925949 
L 383.989844 58.540512 
L 384.868476 58.247212 
L 385.088134 57.892468 
L 385.307792 57.939843 
L 385.52745 57.857659 
L 385.966766 58.009689 
L 386.406082 58.006415 
L 386.845398 57.548162 
L 387.065056 57.643256 
L 387.284714 57.545805 
L 387.943688 56.86594 
L 388.163346 56.753804 
L 388.383004 56.801449 
L 388.82232 56.165735 
L 389.041978 55.982787 
L 389.481294 55.971764 
L 389.700952 55.984565 
L 389.92061 56.143128 
L 390.140268 56.155397 
L 391.0189 55.453175 
L 391.238558 55.599616 
L 391.458216 55.410262 
L 391.677874 55.585488 
L 392.336848 55.222775 
L 392.556506 55.293244 
L 392.776164 55.116394 
L 393.21548 55.019567 
L 393.874454 54.675498 
L 394.31377 54.673625 
L 394.753086 54.342634 
L 394.972744 54.205686 
L 395.192403 54.278674 
L 395.851377 54.212716 
L 396.071035 54.410474 
L 396.730009 54.17326 
L 396.949667 54.220534 
L 397.169325 53.829267 
L 397.388983 53.951729 
L 398.487273 53.568 
L 398.487273 53.568 
" clip-path="url(#pfcd4f43fe9)" style="fill: none; stroke: #ff7f0e; stroke-opacity: 0.7; stroke-width: 1.5; stroke-linecap: square"/>
   </g>
   <g id="line2d_17">
    <path d="M 73.832727 164.134767 
L 74.052385 164.333493 
L 74.491701 164.306448 
L 74.931017 164.262287 
L 75.370333 164.559291 
L 76.029307 164.170674 
L 77.566914 164.647339 
L 78.225888 164.480868 
L 78.445546 164.499425 
L 78.665204 164.350134 
L 79.10452 164.359154 
L 79.543836 163.86097 
L 79.763494 164.194647 
L 79.983152 164.02487 
L 80.20281 164.025121 
L 80.422468 164.206067 
L 80.642126 163.958643 
L 81.3011 164.366824 
L 81.520758 164.112341 
L 81.740416 164.129161 
L 81.960074 164.32286 
L 82.179732 164.23063 
L 82.619048 164.254689 
L 83.278022 164.380684 
L 84.376312 164.122119 
L 84.815628 164.285985 
L 85.035286 164.182553 
L 85.254944 164.224091 
L 85.69426 164.120392 
L 86.133576 164.291439 
L 86.353234 164.257821 
L 87.012208 164.418635 
L 87.89084 164.394247 
L 88.110498 164.3545 
L 88.549814 164.426234 
L 88.98913 164.452135 
L 89.428446 164.322593 
L 89.648104 164.489333 
L 89.867762 164.412465 
L 90.307078 164.618509 
L 90.966052 164.684319 
L 92.064342 164.749469 
L 93.382291 164.656569 
L 93.601949 164.490281 
L 93.821607 164.54977 
L 94.041265 164.47197 
L 94.700239 164.590676 
L 94.919897 164.513245 
L 95.798529 164.868049 
L 96.018187 164.766818 
L 96.457503 164.870179 
L 96.896819 164.889676 
L 97.336135 164.876411 
L 97.775451 164.887381 
L 98.434425 165.050494 
L 98.873741 164.930922 
L 100.191689 165.134981 
L 100.850663 165.006947 
L 101.070321 164.949419 
L 101.289979 165.010591 
L 101.509637 164.908781 
L 102.168611 165.035913 
L 102.607927 165.026726 
L 103.047243 165.053758 
L 103.706217 165.174634 
L 104.584849 165.001217 
L 105.243823 164.936061 
L 106.122455 165.029639 
L 106.342113 164.948132 
L 107.220745 165.115362 
L 107.87972 165.019495 
L 108.97801 165.147581 
L 109.636984 164.965706 
L 109.856642 164.944768 
L 110.295958 164.340375 
L 110.515616 164.526519 
L 110.735274 164.472531 
L 110.954932 164.746204 
L 111.17459 164.73737 
L 111.394248 164.575054 
L 111.833564 164.531492 
L 112.053222 164.479764 
L 112.27288 164.1948 
L 112.492538 164.451204 
L 112.712196 164.29864 
L 112.931854 164.284041 
L 113.590828 164.764056 
L 113.810486 164.679678 
L 114.249802 164.796972 
L 114.46946 165.031671 
L 114.908776 164.888656 
L 115.128434 164.676137 
L 116.007066 164.730962 
L 116.446382 164.354084 
L 116.66604 164.42898 
L 116.885698 164.360906 
L 117.544672 164.860325 
L 117.76433 164.802493 
L 118.203646 165.000958 
L 118.423304 164.600617 
L 118.642962 164.607967 
L 118.86262 164.344389 
L 119.741252 164.509706 
L 120.180568 164.155016 
L 120.400226 164.192975 
L 121.278858 163.563034 
L 121.498516 164.106898 
L 122.377148 164.549758 
L 122.596806 164.354265 
L 122.816465 164.755177 
L 123.475439 165.043568 
L 123.914755 165.096625 
L 124.134413 165.035098 
L 125.013045 165.356454 
L 125.232703 165.174139 
L 126.989967 165.194168 
L 127.648941 165.218758 
L 127.868599 165.061636 
L 128.307915 165.035206 
L 128.747231 165.18887 
L 128.966889 165.124987 
L 129.406205 165.286776 
L 130.284837 165.336 
L 130.943811 165.229309 
L 131.163469 165.284987 
L 132.261759 164.941934 
L 132.481417 165.094934 
L 134.019023 165.188094 
L 134.238681 165.334915 
L 134.458339 165.100743 
L 135.336971 165.136741 
L 136.654919 165.302039 
L 137.533551 165.294554 
L 137.972868 165.400859 
L 139.290816 165.617356 
L 140.608764 165.645522 
L 140.828422 165.765667 
L 141.04808 165.666931 
L 141.267738 165.426623 
L 141.926712 165.420062 
L 142.14637 165.112973 
L 142.805344 165.376823 
L 143.24466 165.209554 
L 143.464318 165.320746 
L 143.683976 165.306688 
L 143.903634 165.166825 
L 144.34295 165.128758 
L 145.221582 164.934884 
L 145.44124 165.184958 
L 146.319872 165.439124 
L 147.198504 165.312625 
L 147.418162 165.303025 
L 148.077136 165.508185 
L 149.395084 165.335431 
L 150.054058 165.482706 
L 150.713032 165.416449 
L 151.372006 165.592191 
L 153.348929 165.594386 
L 153.788245 165.672188 
L 154.227561 165.513007 
L 154.666877 165.327205 
L 154.886535 164.985556 
L 155.106193 165.169595 
L 155.325851 165.182019 
L 155.545509 165.423703 
L 155.984825 165.21447 
L 156.204483 165.40885 
L 156.424141 165.042163 
L 156.643799 165.115097 
L 157.083115 165.475288 
L 157.302773 165.362533 
L 157.742089 165.412255 
L 157.961747 165.081813 
L 158.181405 165.237157 
L 158.401063 165.21184 
L 159.060037 165.437915 
L 159.279695 165.344983 
L 159.719011 165.638474 
L 161.915591 165.641848 
L 162.574565 165.463108 
L 163.013881 165.544755 
L 163.233539 165.467246 
L 163.453197 165.519403 
L 163.892513 165.144187 
L 164.551487 165.343122 
L 164.771145 165.139709 
L 165.430119 165.481616 
L 165.649777 165.425113 
L 165.869435 165.543276 
L 167.626699 165.541494 
L 168.066016 165.587973 
L 169.82328 165.738581 
L 170.482254 165.736061 
L 172.898492 165.919035 
L 173.337808 165.747967 
L 173.996782 166.04383 
L 174.655756 166.029837 
L 175.31473 166.276422 
L 175.973704 166.301312 
L 176.41302 166.386318 
L 177.51131 166.446753 
L 177.730968 166.564854 
L 177.950626 166.489158 
L 178.829258 166.721255 
L 179.048916 166.681341 
L 179.488232 166.78549 
L 179.927548 166.940442 
L 180.366864 166.958037 
L 181.025838 166.896129 
L 181.245496 166.695621 
L 181.465154 166.838709 
L 181.90447 166.881825 
L 182.124128 166.654788 
L 182.563444 166.996617 
L 182.783102 167.153179 
L 183.661735 167.171195 
L 184.101051 167.246558 
L 184.760025 167.280481 
L 185.199341 167.096848 
L 185.638657 166.303418 
L 185.858315 166.281379 
L 186.077973 165.746733 
L 186.297631 165.678277 
L 186.517289 166.283605 
L 186.736947 165.917633 
L 186.956605 166.44164 
L 187.176263 166.009726 
L 187.395921 165.837936 
L 187.615579 164.946427 
L 187.835237 165.590271 
L 188.054895 165.066588 
L 188.274553 164.12416 
L 188.494211 165.221942 
L 188.713869 163.890738 
L 188.933527 164.634403 
L 189.153185 164.24872 
L 189.372843 164.572734 
L 189.812159 164.311092 
L 190.031817 165.32712 
L 190.251475 165.506353 
L 190.471133 166.1864 
L 190.690791 165.795244 
L 190.910449 166.185651 
L 191.130107 165.992269 
L 191.349765 165.576236 
L 191.569423 165.840123 
L 191.789081 165.747209 
L 192.008739 166.467443 
L 192.228397 166.520174 
L 192.667713 167.079354 
L 192.887371 167.008744 
L 193.107029 167.284193 
L 193.326687 167.078974 
L 193.546345 167.192427 
L 193.766003 167.525072 
L 194.205319 166.861208 
L 194.424977 167.167414 
L 194.644635 167.081797 
L 195.083951 167.486125 
L 195.303609 167.432438 
L 195.523267 167.794876 
L 195.742925 167.580895 
L 195.962583 167.079823 
L 196.401899 167.277307 
L 196.621557 167.217327 
L 197.060873 167.624495 
L 197.280531 167.623859 
L 197.719847 167.132645 
L 198.159163 167.18383 
L 198.378822 167.458104 
L 198.59848 167.271831 
L 198.818138 167.456693 
L 199.037796 167.302927 
L 199.257454 167.294625 
L 200.136086 167.727347 
L 200.575402 167.827165 
L 201.673692 168.569439 
L 201.89335 168.554921 
L 202.113008 167.8467 
L 202.771982 168.50397 
L 202.99164 168.447548 
L 203.650614 168.62914 
L 203.870272 168.656741 
L 204.08993 168.245575 
L 204.309588 168.393403 
L 204.529246 168.074007 
L 205.627536 168.693109 
L 205.847194 168.460716 
L 206.066852 168.551873 
L 206.28651 168.419356 
L 206.506168 168.507384 
L 206.725826 168.405391 
L 207.165142 168.661512 
L 207.604458 168.679108 
L 207.824116 168.780993 
L 208.043774 168.75016 
L 208.263432 168.840299 
L 208.702748 168.597955 
L 208.922406 168.690445 
L 209.142064 168.583872 
L 209.361722 168.742417 
L 209.58138 168.701901 
L 211.118986 169.240216 
L 211.338644 169.160553 
L 211.558302 169.408715 
L 212.217276 169.518783 
L 212.656592 169.570839 
L 213.095908 169.703103 
L 213.315566 169.892689 
L 213.754883 170.051998 
L 214.633515 170.351008 
L 214.853173 170.627329 
L 215.072831 170.10173 
L 215.292489 169.993071 
L 215.512147 169.598533 
L 215.731805 169.918241 
L 215.951463 169.668564 
L 216.171121 169.74753 
L 216.610437 170.072534 
L 217.049753 169.929727 
L 217.489069 169.625368 
L 217.708727 169.750506 
L 217.928385 169.408722 
L 218.148043 169.495347 
L 218.587359 169.934309 
L 218.807017 169.868368 
L 219.246333 170.116363 
L 219.465991 170.012729 
L 219.685649 170.296397 
L 219.905307 170.119269 
L 220.783939 170.922357 
L 221.442913 170.735331 
L 221.662571 170.728036 
L 221.882229 170.478987 
L 222.541203 170.594854 
L 222.760861 170.610654 
L 222.980519 170.324832 
L 223.200177 170.291215 
L 223.419835 169.832537 
L 223.639493 170.003932 
L 223.859151 169.838807 
L 224.737783 170.760038 
L 224.957441 170.710639 
L 225.177099 170.817596 
L 225.396757 170.759569 
L 225.616415 170.820267 
L 225.836073 170.607808 
L 226.275389 170.87325 
L 227.154021 170.432431 
L 227.373679 170.512157 
L 227.593337 170.737419 
L 228.252311 170.574984 
L 228.691628 170.728476 
L 228.911286 170.73842 
L 229.130944 170.867315 
L 230.448892 170.668248 
L 230.66855 170.871383 
L 231.547182 170.849797 
L 232.206156 170.910924 
L 232.425814 171.067048 
L 232.86513 170.981004 
L 233.084788 171.050112 
L 233.304446 170.819934 
L 234.183078 171.302921 
L 234.622394 171.151582 
L 235.06171 171.112593 
L 235.281368 171.007727 
L 235.940342 171.445061 
L 236.379658 171.464742 
L 236.599316 171.444624 
L 236.818974 171.040943 
L 237.038632 171.204525 
L 237.25829 170.897359 
L 237.697606 171.354208 
L 237.917264 171.366737 
L 238.136922 171.548875 
L 239.894186 171.791955 
L 240.55316 171.604117 
L 240.772818 171.668163 
L 240.992476 171.889825 
L 241.212134 171.515879 
L 241.431792 171.449822 
L 241.65145 171.842204 
L 242.310424 171.164805 
L 242.530082 171.454573 
L 242.74974 171.359182 
L 243.408714 171.812052 
L 243.628372 171.765471 
L 243.848031 171.853691 
L 244.726663 171.577886 
L 244.946321 171.70619 
L 245.385637 171.485846 
L 245.605295 171.563468 
L 245.824953 171.809971 
L 246.483927 171.697067 
L 247.142901 172.042864 
L 247.582217 172.134265 
L 247.801875 172.263883 
L 248.460849 172.244343 
L 248.900165 172.500403 
L 249.339481 172.345187 
L 249.559139 172.520535 
L 249.778797 172.382433 
L 249.998455 172.610917 
L 250.877087 172.733377 
L 251.096745 172.607348 
L 251.316403 172.665355 
L 251.755719 172.572116 
L 252.195035 172.833921 
L 252.854009 172.125839 
L 253.293325 172.593477 
L 253.952299 172.323112 
L 254.171957 172.505289 
L 254.391615 172.477496 
L 254.611273 172.591141 
L 255.270247 172.545721 
L 256.148879 172.422075 
L 256.368537 172.564313 
L 257.247169 172.545021 
L 257.906143 172.549594 
L 258.565117 172.199255 
L 258.784775 172.445244 
L 259.44375 172.571791 
L 260.54204 172.696545 
L 260.761698 172.848893 
L 260.981356 172.799777 
L 261.201014 172.869984 
L 261.420672 172.720435 
L 261.64033 172.945493 
L 262.079646 172.962217 
L 262.518962 172.949251 
L 262.73862 172.836318 
L 262.958278 172.553382 
L 263.397594 173.004149 
L 263.617252 173.053497 
L 263.83691 173.247137 
L 264.056568 173.275222 
L 264.495884 173.186337 
L 264.715542 173.261627 
L 265.154858 173.150679 
L 265.374516 173.324111 
L 265.594174 173.245256 
L 266.03349 173.401234 
L 266.912122 173.42371 
L 267.351438 173.546577 
L 268.010412 173.349452 
L 268.449728 173.716774 
L 268.889044 173.776486 
L 269.108702 173.656705 
L 269.548018 173.929573 
L 270.206992 173.981436 
L 270.646308 173.96659 
L 271.085624 173.876729 
L 271.305282 173.740158 
L 271.52494 173.78419 
L 271.744598 173.678544 
L 271.964256 173.84852 
L 272.183914 173.837373 
L 272.403572 173.680166 
L 272.62323 173.367898 
L 272.842888 173.363337 
L 273.501862 173.740993 
L 273.72152 173.619281 
L 273.941178 173.186993 
L 274.160837 173.213042 
L 274.380495 172.980001 
L 274.600153 173.235746 
L 274.819811 173.004871 
L 275.259127 173.241232 
L 275.478785 173.342387 
L 276.357417 173.12748 
L 276.577075 173.415329 
L 277.455707 173.726405 
L 278.334339 173.799239 
L 278.553997 173.663995 
L 278.773655 173.804689 
L 279.432629 173.866624 
L 280.091603 174.080498 
L 280.530919 174.016895 
L 280.750577 173.865265 
L 280.970235 173.866204 
L 281.189893 173.992318 
L 282.727499 173.908849 
L 282.947157 173.940207 
L 283.166815 173.440782 
L 283.386473 173.675669 
L 283.825789 173.062956 
L 284.045447 173.354956 
L 284.265105 173.189619 
L 284.484763 173.412746 
L 284.704421 173.806906 
L 284.924079 173.819045 
L 285.143737 173.642168 
L 285.363395 173.771202 
L 285.802711 173.411293 
L 286.022369 173.695359 
L 286.681343 173.07607 
L 287.120659 173.533644 
L 287.340317 173.61603 
L 287.559975 173.826113 
L 288.438607 173.601776 
L 288.658265 173.722071 
L 288.877923 173.686587 
L 289.097581 173.271665 
L 289.756556 173.262381 
L 290.195872 173.504217 
L 290.41553 173.234591 
L 290.635188 173.288052 
L 290.854846 172.964518 
L 291.294162 172.654396 
L 291.51382 172.333891 
L 291.733478 172.436888 
L 291.953136 172.228282 
L 292.392452 172.152725 
L 292.831768 172.94128 
L 293.271084 173.243359 
L 293.490742 172.75112 
L 293.7104 172.833205 
L 293.930058 172.711778 
L 294.369374 173.092422 
L 294.80869 172.326567 
L 295.028348 172.259338 
L 295.248006 172.583047 
L 295.467664 172.657128 
L 295.687322 172.273985 
L 296.126638 172.006827 
L 296.346296 171.675483 
L 296.785612 172.31834 
L 297.00527 172.264138 
L 297.224928 171.966075 
L 297.444586 172.279833 
L 297.883902 171.992673 
L 298.10356 171.439766 
L 298.323218 171.323864 
L 298.542876 171.832438 
L 298.982192 171.396382 
L 299.20185 171.240612 
L 299.860824 172.094229 
L 300.080482 172.263476 
L 300.30014 172.240564 
L 300.519798 172.403487 
L 300.739456 172.095529 
L 300.959114 172.333724 
L 301.39843 172.507147 
L 301.618088 172.696574 
L 302.057404 172.203753 
L 302.277062 172.262208 
L 302.49672 172.458721 
L 302.936036 172.066616 
L 303.375352 172.126108 
L 303.59501 171.853861 
L 303.814668 171.800713 
L 304.034326 172.019224 
L 304.253984 171.78804 
L 304.473643 171.742285 
L 304.693301 172.017236 
L 304.912959 171.965367 
L 305.132617 171.648454 
L 305.352275 171.113423 
L 305.571933 171.191701 
L 305.791591 170.683077 
L 306.011249 170.662881 
L 306.230907 171.05241 
L 306.450565 170.360532 
L 306.889881 170.458389 
L 307.109539 170.954429 
L 307.329197 170.207307 
L 307.548855 170.074309 
L 307.768513 169.495191 
L 307.988171 169.561145 
L 308.207829 169.277395 
L 308.427487 169.190214 
L 308.647145 169.665095 
L 308.866803 169.659837 
L 309.086461 170.009274 
L 309.306119 169.312047 
L 309.745435 169.259605 
L 309.965093 169.561113 
L 310.184751 169.449044 
L 310.624067 169.955354 
L 310.843725 170.319975 
L 311.283041 170.088544 
L 311.502699 170.412462 
L 311.722357 170.184084 
L 311.942015 170.261924 
L 312.161673 170.495321 
L 312.381331 170.320264 
L 313.259963 168.832626 
L 313.479621 169.059896 
L 313.699279 168.550694 
L 313.918937 168.653133 
L 314.138595 169.0873 
L 314.358253 169.049238 
L 314.577911 169.228167 
L 314.797569 169.652836 
L 315.017227 169.560472 
L 315.236885 169.210825 
L 315.895859 169.102157 
L 316.335175 169.117126 
L 316.554833 169.407855 
L 316.774491 169.365985 
L 317.213807 169.050755 
L 317.653123 169.040272 
L 317.872781 169.353941 
L 318.092439 169.20128 
L 318.312097 169.663233 
L 318.751413 169.911581 
L 318.971071 169.74342 
L 319.190729 169.800701 
L 319.410388 169.62492 
L 319.630046 170.084142 
L 320.069362 170.577889 
L 320.508678 170.383839 
L 320.728336 170.631694 
L 321.606968 170.568283 
L 321.826626 170.959096 
L 322.046284 170.944187 
L 322.4856 171.330489 
L 322.705258 171.424599 
L 322.924916 171.342873 
L 323.144574 171.413003 
L 323.803548 170.911496 
L 324.023206 170.995725 
L 324.242864 171.240594 
L 324.462522 170.650463 
L 325.78047 170.192613 
L 326.000128 170.517345 
L 326.219786 170.64125 
L 326.659102 171.092627 
L 326.87876 170.305068 
L 327.098418 170.439478 
L 327.537734 170.150141 
L 327.757392 170.393646 
L 329.07534 169.574533 
L 329.294998 169.874999 
L 329.734314 169.43329 
L 330.17363 170.25385 
L 330.612946 170.100535 
L 330.832604 169.652835 
L 331.491578 169.447275 
L 331.711236 169.824362 
L 331.930894 169.450709 
L 332.37021 169.992979 
L 332.809526 169.74147 
L 333.248842 170.323441 
L 333.4685 170.549226 
L 333.907816 170.248932 
L 334.127474 170.649732 
L 334.566791 170.394198 
L 334.786449 169.984039 
L 335.006107 169.84223 
L 335.445423 170.246463 
L 335.665081 170.345742 
L 335.884739 170.092519 
L 336.104397 170.993568 
L 336.324055 171.0629 
L 336.543713 170.788223 
L 336.763371 170.883647 
L 337.202687 170.762102 
L 337.422345 170.870692 
L 337.642003 170.808473 
L 337.861661 171.063085 
L 338.081319 171.123555 
L 338.300977 171.044138 
L 338.520635 170.775886 
L 338.740293 170.707339 
L 338.959951 171.173052 
L 339.399267 171.02642 
L 339.838583 170.373654 
L 340.058241 170.325201 
L 340.277899 170.453474 
L 340.497557 170.348555 
L 340.936873 170.789191 
L 341.156531 170.679527 
L 341.376189 170.261257 
L 341.815505 169.961235 
L 342.035163 170.015197 
L 342.254821 170.277425 
L 342.474479 169.994419 
L 342.694137 170.029107 
L 342.913795 169.917329 
L 343.133453 169.630397 
L 343.353111 169.893227 
L 344.012085 169.913087 
L 344.231743 169.742931 
L 344.451401 170.112702 
L 344.890717 170.191125 
L 345.110375 170.400291 
L 345.549691 170.399403 
L 345.769349 170.304251 
L 346.208665 169.9211 
L 346.647981 170.370832 
L 347.087297 170.344474 
L 347.526613 170.561723 
L 347.746271 170.364104 
L 348.405245 171.12398 
L 348.844561 170.863888 
L 349.064219 171.141394 
L 349.503535 170.832882 
L 349.723194 170.902938 
L 349.942852 171.121601 
L 350.382168 171.175628 
L 350.601826 170.955613 
L 350.821484 170.930073 
L 351.041142 170.588602 
L 351.2608 170.574542 
L 351.480458 170.689214 
L 351.700116 170.531138 
L 352.139432 170.498069 
L 352.35909 170.389506 
L 352.578748 170.5236 
L 352.798406 170.79213 
L 353.018064 170.753468 
L 353.237722 170.474568 
L 353.45738 170.481307 
L 353.896696 170.007751 
L 354.116354 170.001671 
L 354.336012 170.261374 
L 354.55567 170.165602 
L 354.775328 170.441192 
L 354.994986 170.22774 
L 355.434302 170.620274 
L 355.65396 170.324902 
L 356.75225 170.508846 
L 356.971908 170.582638 
L 357.191566 170.794283 
L 357.411224 170.833601 
L 357.85054 170.72683 
L 358.509514 170.737647 
L 358.729172 170.647687 
L 358.94883 170.878354 
L 359.607804 170.930192 
L 359.827462 170.969319 
L 360.04712 170.857823 
L 360.486436 170.91522 
L 360.706094 170.67206 
L 360.925752 170.612166 
L 361.365068 171.132695 
L 361.584726 171.17453 
L 362.024042 170.922104 
L 362.2437 170.851739 
L 362.463358 171.233577 
L 363.34199 171.330134 
L 364.000964 171.267774 
L 364.44028 171.629885 
L 365.318913 171.337545 
L 365.977887 171.824618 
L 366.197545 171.748756 
L 366.636861 172.184056 
L 367.295835 172.152607 
L 368.174467 172.602384 
L 368.394125 172.661378 
L 368.613783 172.912416 
L 369.272757 172.733602 
L 369.492415 172.845736 
L 369.931731 172.700367 
L 370.151389 172.901282 
L 370.590705 172.911826 
L 371.030021 173.237925 
L 371.908653 173.371193 
L 373.446259 174.453838 
L 373.885575 174.402129 
L 374.544549 174.660081 
L 374.764207 174.609442 
L 374.983865 174.873978 
L 375.423181 174.938964 
L 375.642839 174.734349 
L 376.082155 174.620127 
L 376.301813 174.815869 
L 377.180445 174.651963 
L 377.400103 174.824447 
L 377.839419 174.461195 
L 378.059077 174.313031 
L 378.278735 174.302233 
L 378.498393 174.406324 
L 378.718051 174.328705 
L 378.937709 174.525055 
L 379.157367 174.241332 
L 379.596683 174.412945 
L 379.816341 174.66608 
L 380.255658 174.612302 
L 380.475316 174.598676 
L 381.13429 174.228158 
L 381.353948 174.255883 
L 381.573606 174.397296 
L 382.012922 174.306933 
L 382.23258 174.518065 
L 382.452238 174.269132 
L 382.891554 174.219325 
L 383.550528 173.687448 
L 383.770186 173.725653 
L 383.989844 173.468258 
L 384.868476 173.534523 
L 385.088134 173.258169 
L 385.307792 173.384647 
L 385.52745 173.365256 
L 385.966766 173.664623 
L 386.406082 173.812959 
L 386.845398 173.529955 
L 387.065056 173.716766 
L 387.284714 173.691971 
L 387.72403 173.309212 
L 387.943688 173.095758 
L 388.163346 173.071796 
L 388.383004 173.185032 
L 388.82232 172.738668 
L 389.041978 172.638469 
L 390.140268 173.424343 
L 390.799242 173.298662 
L 391.0189 173.095055 
L 391.238558 173.311814 
L 391.458216 173.240522 
L 391.677874 173.521975 
L 392.336848 173.432932 
L 392.556506 173.5844 
L 392.776164 173.495435 
L 393.21548 173.558894 
L 393.874454 173.474293 
L 394.31377 173.664745 
L 394.753086 173.527032 
L 394.972744 173.463923 
L 395.412061 173.700344 
L 395.851377 173.874103 
L 396.071035 174.161667 
L 396.949667 174.392308 
L 397.169325 174.127263 
L 397.388983 174.362277 
L 398.487273 174.528 
L 398.487273 174.528 
" clip-path="url(#pfcd4f43fe9)" style="fill: none; stroke: #2ca02c; stroke-opacity: 0.7; stroke-width: 1.5; stroke-linecap: square"/>
   </g>
   <g id="patch_3">
    <path d="M 57.6 307.584 
L 57.6 41.472 
" style="fill: none; stroke: #000000; stroke-width: 0.8; stroke-linejoin: miter; stroke-linecap: square"/>
   </g>
   <g id="patch_4">
    <path d="M 414.72 307.584 
L 414.72 41.472 
" style="fill: none; stroke: #000000; stroke-width: 0.8; stroke-linejoin: miter; stroke-linecap: square"/>
   </g>
   <g id="patch_5">
    <path d="M 57.6 307.584 
L 414.72 307.584 
" style="fill: none; stroke: #000000; stroke-width: 0.8; stroke-linejoin: miter; stroke-linecap: square"/>
   </g>
   <g id="patch_6">
    <path d="M 57.6 41.472 
L 414.72 41.472 
" style="fill: none; stroke: #000000; stroke-width: 0.8; stroke-linejoin: miter; stroke-linecap: square"/>
   </g>
   <g id="text_15">
    <!-- 1final_naive_aa_snp500 -->
    <g transform="translate(164.484375 35.472) scale(0.12 -0.12)">
     <defs>
      <path id="DejaVuSans-66" d="M 2375 4863 
L 2375 4384 
L 1825 4384 
Q 1516 4384 1395 4259 
Q 1275 4134 1275 3809 
L 1275 3500 
L 2222 3500 
L 2222 3053 
L 1275 3053 
L 1275 0 
L 697 0 
L 697 3053 
L 147 3053 
L 147 3500 
L 697 3500 
L 697 3744 
Q 697 4328 969 4595 
Q 1241 4863 1831 4863 
L 2375 4863 
z
" transform="scale(0.015625)"/>
      <path id="DejaVuSans-69" d="M 603 3500 
L 1178 3500 
L 1178 0 
L 603 0 
L 603 3500 
z
M 603 4863 
L 1178 4863 
L 1178 4134 
L 603 4134 
L 603 4863 
z
" transform="scale(0.015625)"/>
      <path id="DejaVuSans-6e" d="M 3513 2113 
L 3513 0 
L 2938 0 
L 2938 2094 
Q 2938 2591 2744 2837 
Q 2550 3084 2163 3084 
Q 1697 3084 1428 2787 
Q 1159 2491 1159 1978 
L 1159 0 
L 581 0 
L 581 3500 
L 1159 3500 
L 1159 2956 
Q 1366 3272 1645 3428 
Q 1925 3584 2291 3584 
Q 2894 3584 3203 3211 
Q 3513 2838 3513 2113 
z
" transform="scale(0.015625)"/>
      <path id="DejaVuSans-61" d="M 2194 1759 
Q 1497 1759 1228 1600 
Q 959 1441 959 1056 
Q 959 750 1161 570 
Q 1363 391 1709 391 
Q 2188 391 2477 730 
Q 2766 1069 2766 1631 
L 2766 1759 
L 2194 1759 
z
M 3341 1997 
L 3341 0 
L 2766 0 
L 2766 531 
Q 2569 213 2275 61 
Q 1981 -91 1556 -91 
Q 1019 -91 701 211 
Q 384 513 384 1019 
Q 384 1609 779 1909 
Q 1175 2209 1959 2209 
L 2766 2209 
L 2766 2266 
Q 2766 2663 2505 2880 
Q 2244 3097 1772 3097 
Q 1472 3097 1187 3025 
Q 903 2953 641 2809 
L 641 3341 
Q 956 3463 1253 3523 
Q 1550 3584 1831 3584 
Q 2591 3584 2966 3190 
Q 3341 2797 3341 1997 
z
" transform="scale(0.015625)"/>
      <path id="DejaVuSans-6c" d="M 603 4863 
L 1178 4863 
L 1178 0 
L 603 0 
L 603 4863 
z
" transform="scale(0.015625)"/>
      <path id="DejaVuSans-5f" d="M 3263 -1063 
L 3263 -1509 
L -63 -1509 
L -63 -1063 
L 3263 -1063 
z
" transform="scale(0.015625)"/>
      <path id="DejaVuSans-76" d="M 191 3500 
L 800 3500 
L 1894 563 
L 2988 3500 
L 3597 3500 
L 2284 0 
L 1503 0 
L 191 3500 
z
" transform="scale(0.015625)"/>
      <path id="DejaVuSans-65" d="M 3597 1894 
L 3597 1613 
L 953 1613 
Q 991 1019 1311 708 
Q 1631 397 2203 397 
Q 2534 397 2845 478 
Q 3156 559 3463 722 
L 3463 178 
Q 3153 47 2828 -22 
Q 2503 -91 2169 -91 
Q 1331 -91 842 396 
Q 353 884 353 1716 
Q 353 2575 817 3079 
Q 1281 3584 2069 3584 
Q 2775 3584 3186 3129 
Q 3597 2675 3597 1894 
z
M 3022 2063 
Q 3016 2534 2758 2815 
Q 2500 3097 2075 3097 
Q 1594 3097 1305 2825 
Q 1016 2553 972 2059 
L 3022 2063 
z
" transform="scale(0.015625)"/>
      <path id="DejaVuSans-73" d="M 2834 3397 
L 2834 2853 
Q 2591 2978 2328 3040 
Q 2066 3103 1784 3103 
Q 1356 3103 1142 2972 
Q 928 2841 928 2578 
Q 928 2378 1081 2264 
Q 1234 2150 1697 2047 
L 1894 2003 
Q 2506 1872 2764 1633 
Q 3022 1394 3022 966 
Q 3022 478 2636 193 
Q 2250 -91 1575 -91 
Q 1294 -91 989 -36 
Q 684 19 347 128 
L 347 722 
Q 666 556 975 473 
Q 1284 391 1588 391 
Q 1994 391 2212 530 
Q 2431 669 2431 922 
Q 2431 1156 2273 1281 
Q 2116 1406 1581 1522 
L 1381 1569 
Q 847 1681 609 1914 
Q 372 2147 372 2553 
Q 372 3047 722 3315 
Q 1072 3584 1716 3584 
Q 2034 3584 2315 3537 
Q 2597 3491 2834 3397 
z
" transform="scale(0.015625)"/>
      <path id="DejaVuSans-70" d="M 1159 525 
L 1159 -1331 
L 581 -1331 
L 581 3500 
L 1159 3500 
L 1159 2969 
Q 1341 3281 1617 3432 
Q 1894 3584 2278 3584 
Q 2916 3584 3314 3078 
Q 3713 2572 3713 1747 
Q 3713 922 3314 415 
Q 2916 -91 2278 -91 
Q 1894 -91 1617 61 
Q 1341 213 1159 525 
z
M 3116 1747 
Q 3116 2381 2855 2742 
Q 2594 3103 2138 3103 
Q 1681 3103 1420 2742 
Q 1159 2381 1159 1747 
Q 1159 1113 1420 752 
Q 1681 391 2138 391 
Q 2594 391 2855 752 
Q 3116 1113 3116 1747 
z
" transform="scale(0.015625)"/>
      <path id="DejaVuSans-35" d="M 691 4666 
L 3169 4666 
L 3169 4134 
L 1269 4134 
L 1269 2991 
Q 1406 3038 1543 3061 
Q 1681 3084 1819 3084 
Q 2600 3084 3056 2656 
Q 3513 2228 3513 1497 
Q 3513 744 3044 326 
Q 2575 -91 1722 -91 
Q 1428 -91 1123 -41 
Q 819 9 494 109 
L 494 744 
Q 775 591 1075 516 
Q 1375 441 1709 441 
Q 2250 441 2565 725 
Q 2881 1009 2881 1497 
Q 2881 1984 2565 2268 
Q 2250 2553 1709 2553 
Q 1456 2553 1204 2497 
Q 953 2441 691 2322 
L 691 4666 
z
" transform="scale(0.015625)"/>
     </defs>
     <use xlink:href="#DejaVuSans-31"/>
     <use xlink:href="#DejaVuSans-66" x="63.623047"/>
     <use xlink:href="#DejaVuSans-69" x="98.828125"/>
     <use xlink:href="#DejaVuSans-6e" x="126.611328"/>
     <use xlink:href="#DejaVuSans-61" x="189.990234"/>
     <use xlink:href="#DejaVuSans-6c" x="251.269531"/>
     <use xlink:href="#DejaVuSans-5f" x="279.052734"/>
     <use xlink:href="#DejaVuSans-6e" x="329.052734"/>
     <use xlink:href="#DejaVuSans-61" x="392.431641"/>
     <use xlink:href="#DejaVuSans-69" x="453.710938"/>
     <use xlink:href="#DejaVuSans-76" x="481.494141"/>
     <use xlink:href="#DejaVuSans-65" x="540.673828"/>
     <use xlink:href="#DejaVuSans-5f" x="602.197266"/>
     <use xlink:href="#DejaVuSans-61" x="652.197266"/>
     <use xlink:href="#DejaVuSans-61" x="713.476562"/>
     <use xlink:href="#DejaVuSans-5f" x="774.755859"/>
     <use xlink:href="#DejaVuSans-73" x="824.755859"/>
     <use xlink:href="#DejaVuSans-6e" x="876.855469"/>
     <use xlink:href="#DejaVuSans-70" x="940.234375"/>
     <use xlink:href="#DejaVuSans-35" x="1003.710938"/>
     <use xlink:href="#DejaVuSans-30" x="1067.333984"/>
     <use xlink:href="#DejaVuSans-30" x="1130.957031"/>
    </g>
   </g>
   <g id="legend_1">
    <g id="patch_7">
     <path d="M 64.6 93.506375 
L 258.804688 93.506375 
Q 260.804688 93.506375 260.804688 91.506375 
L 260.804688 48.472 
Q 260.804688 46.472 258.804688 46.472 
L 64.6 46.472 
Q 62.6 46.472 62.6 48.472 
L 62.6 91.506375 
Q 62.6 93.506375 64.6 93.506375 
z
" style="fill: #ffffff; opacity: 0.8; stroke: #cccccc; stroke-linejoin: miter"/>
    </g>
    <g id="line2d_18">
     <path d="M 66.6 54.570438 
L 76.6 54.570438 
L 86.6 54.570438 
" style="fill: none; stroke: #1f77b4; stroke-opacity: 0.7; stroke-width: 1.5; stroke-linecap: square"/>
    </g>
    <g id="text_16">
     <!-- Positive cumulative predictions -->
     <g transform="translate(94.6 58.070438) scale(0.1 -0.1)">
      <defs>
       <path id="DejaVuSans-50" d="M 1259 4147 
L 1259 2394 
L 2053 2394 
Q 2494 2394 2734 2622 
Q 2975 2850 2975 3272 
Q 2975 3691 2734 3919 
Q 2494 4147 2053 4147 
L 1259 4147 
z
M 628 4666 
L 2053 4666 
Q 2838 4666 3239 4311 
Q 3641 3956 3641 3272 
Q 3641 2581 3239 2228 
Q 2838 1875 2053 1875 
L 1259 1875 
L 1259 0 
L 628 0 
L 628 4666 
z
" transform="scale(0.015625)"/>
       <path id="DejaVuSans-6f" d="M 1959 3097 
Q 1497 3097 1228 2736 
Q 959 2375 959 1747 
Q 959 1119 1226 758 
Q 1494 397 1959 397 
Q 2419 397 2687 759 
Q 2956 1122 2956 1747 
Q 2956 2369 2687 2733 
Q 2419 3097 1959 3097 
z
M 1959 3584 
Q 2709 3584 3137 3096 
Q 3566 2609 3566 1747 
Q 3566 888 3137 398 
Q 2709 -91 1959 -91 
Q 1206 -91 779 398 
Q 353 888 353 1747 
Q 353 2609 779 3096 
Q 1206 3584 1959 3584 
z
" transform="scale(0.015625)"/>
       <path id="DejaVuSans-74" d="M 1172 4494 
L 1172 3500 
L 2356 3500 
L 2356 3053 
L 1172 3053 
L 1172 1153 
Q 1172 725 1289 603 
Q 1406 481 1766 481 
L 2356 481 
L 2356 0 
L 1766 0 
Q 1100 0 847 248 
Q 594 497 594 1153 
L 594 3053 
L 172 3053 
L 172 3500 
L 594 3500 
L 594 4494 
L 1172 4494 
z
" transform="scale(0.015625)"/>
       <path id="DejaVuSans-20" transform="scale(0.015625)"/>
       <path id="DejaVuSans-63" d="M 3122 3366 
L 3122 2828 
Q 2878 2963 2633 3030 
Q 2388 3097 2138 3097 
Q 1578 3097 1268 2742 
Q 959 2388 959 1747 
Q 959 1106 1268 751 
Q 1578 397 2138 397 
Q 2388 397 2633 464 
Q 2878 531 3122 666 
L 3122 134 
Q 2881 22 2623 -34 
Q 2366 -91 2075 -91 
Q 1284 -91 818 406 
Q 353 903 353 1747 
Q 353 2603 823 3093 
Q 1294 3584 2113 3584 
Q 2378 3584 2631 3529 
Q 2884 3475 3122 3366 
z
" transform="scale(0.015625)"/>
       <path id="DejaVuSans-75" d="M 544 1381 
L 544 3500 
L 1119 3500 
L 1119 1403 
Q 1119 906 1312 657 
Q 1506 409 1894 409 
Q 2359 409 2629 706 
Q 2900 1003 2900 1516 
L 2900 3500 
L 3475 3500 
L 3475 0 
L 2900 0 
L 2900 538 
Q 2691 219 2414 64 
Q 2138 -91 1772 -91 
Q 1169 -91 856 284 
Q 544 659 544 1381 
z
M 1991 3584 
L 1991 3584 
z
" transform="scale(0.015625)"/>
       <path id="DejaVuSans-6d" d="M 3328 2828 
Q 3544 3216 3844 3400 
Q 4144 3584 4550 3584 
Q 5097 3584 5394 3201 
Q 5691 2819 5691 2113 
L 5691 0 
L 5113 0 
L 5113 2094 
Q 5113 2597 4934 2840 
Q 4756 3084 4391 3084 
Q 3944 3084 3684 2787 
Q 3425 2491 3425 1978 
L 3425 0 
L 2847 0 
L 2847 2094 
Q 2847 2600 2669 2842 
Q 2491 3084 2119 3084 
Q 1678 3084 1418 2786 
Q 1159 2488 1159 1978 
L 1159 0 
L 581 0 
L 581 3500 
L 1159 3500 
L 1159 2956 
Q 1356 3278 1631 3431 
Q 1906 3584 2284 3584 
Q 2666 3584 2933 3390 
Q 3200 3197 3328 2828 
z
" transform="scale(0.015625)"/>
       <path id="DejaVuSans-72" d="M 2631 2963 
Q 2534 3019 2420 3045 
Q 2306 3072 2169 3072 
Q 1681 3072 1420 2755 
Q 1159 2438 1159 1844 
L 1159 0 
L 581 0 
L 581 3500 
L 1159 3500 
L 1159 2956 
Q 1341 3275 1631 3429 
Q 1922 3584 2338 3584 
Q 2397 3584 2469 3576 
Q 2541 3569 2628 3553 
L 2631 2963 
z
" transform="scale(0.015625)"/>
       <path id="DejaVuSans-64" d="M 2906 2969 
L 2906 4863 
L 3481 4863 
L 3481 0 
L 2906 0 
L 2906 525 
Q 2725 213 2448 61 
Q 2172 -91 1784 -91 
Q 1150 -91 751 415 
Q 353 922 353 1747 
Q 353 2572 751 3078 
Q 1150 3584 1784 3584 
Q 2172 3584 2448 3432 
Q 2725 3281 2906 2969 
z
M 947 1747 
Q 947 1113 1208 752 
Q 1469 391 1925 391 
Q 2381 391 2643 752 
Q 2906 1113 2906 1747 
Q 2906 2381 2643 2742 
Q 2381 3103 1925 3103 
Q 1469 3103 1208 2742 
Q 947 2381 947 1747 
z
" transform="scale(0.015625)"/>
      </defs>
      <use xlink:href="#DejaVuSans-50"/>
      <use xlink:href="#DejaVuSans-6f" x="56.677734"/>
      <use xlink:href="#DejaVuSans-73" x="117.859375"/>
      <use xlink:href="#DejaVuSans-69" x="169.958984"/>
      <use xlink:href="#DejaVuSans-74" x="197.742188"/>
      <use xlink:href="#DejaVuSans-69" x="236.951172"/>
      <use xlink:href="#DejaVuSans-76" x="264.734375"/>
      <use xlink:href="#DejaVuSans-65" x="323.914062"/>
      <use xlink:href="#DejaVuSans-20" x="385.4375"/>
      <use xlink:href="#DejaVuSans-63" x="417.224609"/>
      <use xlink:href="#DejaVuSans-75" x="472.205078"/>
      <use xlink:href="#DejaVuSans-6d" x="535.583984"/>
      <use xlink:href="#DejaVuSans-75" x="632.996094"/>
      <use xlink:href="#DejaVuSans-6c" x="696.375"/>
      <use xlink:href="#DejaVuSans-61" x="724.158203"/>
      <use xlink:href="#DejaVuSans-74" x="785.4375"/>
      <use xlink:href="#DejaVuSans-69" x="824.646484"/>
      <use xlink:href="#DejaVuSans-76" x="852.429688"/>
      <use xlink:href="#DejaVuSans-65" x="911.609375"/>
      <use xlink:href="#DejaVuSans-20" x="973.132812"/>
      <use xlink:href="#DejaVuSans-70" x="1004.919922"/>
      <use xlink:href="#DejaVuSans-72" x="1068.396484"/>
      <use xlink:href="#DejaVuSans-65" x="1107.259766"/>
      <use xlink:href="#DejaVuSans-64" x="1168.783203"/>
      <use xlink:href="#DejaVuSans-69" x="1232.259766"/>
      <use xlink:href="#DejaVuSans-63" x="1260.042969"/>
      <use xlink:href="#DejaVuSans-74" x="1315.023438"/>
      <use xlink:href="#DejaVuSans-69" x="1354.232422"/>
      <use xlink:href="#DejaVuSans-6f" x="1382.015625"/>
      <use xlink:href="#DejaVuSans-6e" x="1443.197266"/>
      <use xlink:href="#DejaVuSans-73" x="1506.576172"/>
     </g>
    </g>
    <g id="line2d_19">
     <path d="M 66.6 69.248563 
L 76.6 69.248563 
L 86.6 69.248563 
" style="fill: none; stroke: #ff7f0e; stroke-opacity: 0.7; stroke-width: 1.5; stroke-linecap: square"/>
    </g>
    <g id="text_17">
     <!-- Negative cumulative predictions -->
     <g transform="translate(94.6 72.748563) scale(0.1 -0.1)">
      <defs>
       <path id="DejaVuSans-4e" d="M 628 4666 
L 1478 4666 
L 3547 763 
L 3547 4666 
L 4159 4666 
L 4159 0 
L 3309 0 
L 1241 3903 
L 1241 0 
L 628 0 
L 628 4666 
z
" transform="scale(0.015625)"/>
       <path id="DejaVuSans-67" d="M 2906 1791 
Q 2906 2416 2648 2759 
Q 2391 3103 1925 3103 
Q 1463 3103 1205 2759 
Q 947 2416 947 1791 
Q 947 1169 1205 825 
Q 1463 481 1925 481 
Q 2391 481 2648 825 
Q 2906 1169 2906 1791 
z
M 3481 434 
Q 3481 -459 3084 -895 
Q 2688 -1331 1869 -1331 
Q 1566 -1331 1297 -1286 
Q 1028 -1241 775 -1147 
L 775 -588 
Q 1028 -725 1275 -790 
Q 1522 -856 1778 -856 
Q 2344 -856 2625 -561 
Q 2906 -266 2906 331 
L 2906 616 
Q 2728 306 2450 153 
Q 2172 0 1784 0 
Q 1141 0 747 490 
Q 353 981 353 1791 
Q 353 2603 747 3093 
Q 1141 3584 1784 3584 
Q 2172 3584 2450 3431 
Q 2728 3278 2906 2969 
L 2906 3500 
L 3481 3500 
L 3481 434 
z
" transform="scale(0.015625)"/>
      </defs>
      <use xlink:href="#DejaVuSans-4e"/>
      <use xlink:href="#DejaVuSans-65" x="74.804688"/>
      <use xlink:href="#DejaVuSans-67" x="136.328125"/>
      <use xlink:href="#DejaVuSans-61" x="199.804688"/>
      <use xlink:href="#DejaVuSans-74" x="261.083984"/>
      <use xlink:href="#DejaVuSans-69" x="300.292969"/>
      <use xlink:href="#DejaVuSans-76" x="328.076172"/>
      <use xlink:href="#DejaVuSans-65" x="387.255859"/>
      <use xlink:href="#DejaVuSans-20" x="448.779297"/>
      <use xlink:href="#DejaVuSans-63" x="480.566406"/>
      <use xlink:href="#DejaVuSans-75" x="535.546875"/>
      <use xlink:href="#DejaVuSans-6d" x="598.925781"/>
      <use xlink:href="#DejaVuSans-75" x="696.337891"/>
      <use xlink:href="#DejaVuSans-6c" x="759.716797"/>
      <use xlink:href="#DejaVuSans-61" x="787.5"/>
      <use xlink:href="#DejaVuSans-74" x="848.779297"/>
      <use xlink:href="#DejaVuSans-69" x="887.988281"/>
      <use xlink:href="#DejaVuSans-76" x="915.771484"/>
      <use xlink:href="#DejaVuSans-65" x="974.951172"/>
      <use xlink:href="#DejaVuSans-20" x="1036.474609"/>
      <use xlink:href="#DejaVuSans-70" x="1068.261719"/>
      <use xlink:href="#DejaVuSans-72" x="1131.738281"/>
      <use xlink:href="#DejaVuSans-65" x="1170.601562"/>
      <use xlink:href="#DejaVuSans-64" x="1232.125"/>
      <use xlink:href="#DejaVuSans-69" x="1295.601562"/>
      <use xlink:href="#DejaVuSans-63" x="1323.384766"/>
      <use xlink:href="#DejaVuSans-74" x="1378.365234"/>
      <use xlink:href="#DejaVuSans-69" x="1417.574219"/>
      <use xlink:href="#DejaVuSans-6f" x="1445.357422"/>
      <use xlink:href="#DejaVuSans-6e" x="1506.539062"/>
      <use xlink:href="#DejaVuSans-73" x="1569.917969"/>
     </g>
    </g>
    <g id="line2d_20">
     <path d="M 66.6 83.926688 
L 76.6 83.926688 
L 86.6 83.926688 
" style="fill: none; stroke: #2ca02c; stroke-opacity: 0.7; stroke-width: 1.5; stroke-linecap: square"/>
    </g>
    <g id="text_18">
     <!-- Average cumulative predictions -->
     <g transform="translate(94.6 87.426688) scale(0.1 -0.1)">
      <defs>
       <path id="DejaVuSans-41" d="M 2188 4044 
L 1331 1722 
L 3047 1722 
L 2188 4044 
z
M 1831 4666 
L 2547 4666 
L 4325 0 
L 3669 0 
L 3244 1197 
L 1141 1197 
L 716 0 
L 50 0 
L 1831 4666 
z
" transform="scale(0.015625)"/>
      </defs>
      <use xlink:href="#DejaVuSans-41"/>
      <use xlink:href="#DejaVuSans-76" x="62.533203"/>
      <use xlink:href="#DejaVuSans-65" x="121.712891"/>
      <use xlink:href="#DejaVuSans-72" x="183.236328"/>
      <use xlink:href="#DejaVuSans-61" x="224.349609"/>
      <use xlink:href="#DejaVuSans-67" x="285.628906"/>
      <use xlink:href="#DejaVuSans-65" x="349.105469"/>
      <use xlink:href="#DejaVuSans-20" x="410.628906"/>
      <use xlink:href="#DejaVuSans-63" x="442.416016"/>
      <use xlink:href="#DejaVuSans-75" x="497.396484"/>
      <use xlink:href="#DejaVuSans-6d" x="560.775391"/>
      <use xlink:href="#DejaVuSans-75" x="658.1875"/>
      <use xlink:href="#DejaVuSans-6c" x="721.566406"/>
      <use xlink:href="#DejaVuSans-61" x="749.349609"/>
      <use xlink:href="#DejaVuSans-74" x="810.628906"/>
      <use xlink:href="#DejaVuSans-69" x="849.837891"/>
      <use xlink:href="#DejaVuSans-76" x="877.621094"/>
      <use xlink:href="#DejaVuSans-65" x="936.800781"/>
      <use xlink:href="#DejaVuSans-20" x="998.324219"/>
      <use xlink:href="#DejaVuSans-70" x="1030.111328"/>
      <use xlink:href="#DejaVuSans-72" x="1093.587891"/>
      <use xlink:href="#DejaVuSans-65" x="1132.451172"/>
      <use xlink:href="#DejaVuSans-64" x="1193.974609"/>
      <use xlink:href="#DejaVuSans-69" x="1257.451172"/>
      <use xlink:href="#DejaVuSans-63" x="1285.234375"/>
      <use xlink:href="#DejaVuSans-74" x="1340.214844"/>
      <use xlink:href="#DejaVuSans-69" x="1379.423828"/>
      <use xlink:href="#DejaVuSans-6f" x="1407.207031"/>
      <use xlink:href="#DejaVuSans-6e" x="1468.388672"/>
      <use xlink:href="#DejaVuSans-73" x="1531.767578"/>
     </g>
    </g>
   </g>
  </g>
 </g>
 <defs>
  <clipPath id="pfcd4f43fe9">
   <rect x="57.6" y="41.472" width="357.12" height="266.112"/>
  </clipPath>
 </defs>
</svg>
