<?xml version="1.0" encoding="utf-8" standalone="no"?>
<!DOCTYPE svg PUBLIC "-//W3C//DTD SVG 1.1//EN"
  "http://www.w3.org/Graphics/SVG/1.1/DTD/svg11.dtd">
<svg xmlns:xlink="http://www.w3.org/1999/xlink" width="460.8pt" height="345.6pt" viewBox="0 0 460.8 345.6" xmlns="http://www.w3.org/2000/svg" version="1.1">
 <metadata>
  <rdf:RDF xmlns:dc="http://purl.org/dc/elements/1.1/" xmlns:cc="http://creativecommons.org/ns#" xmlns:rdf="http://www.w3.org/1999/02/22-rdf-syntax-ns#">
   <cc:Work>
    <dc:type rdf:resource="http://purl.org/dc/dcmitype/StillImage"/>
    <dc:date>2024-09-08T13:33:38.195218</dc:date>
    <dc:format>image/svg+xml</dc:format>
    <dc:creator>
     <cc:Agent>
      <dc:title>Matplotlib v3.8.3, https://matplotlib.org/</dc:title>
     </cc:Agent>
    </dc:creator>
   </cc:Work>
  </rdf:RDF>
 </metadata>
 <defs>
  <style type="text/css">*{stroke-linejoin: round; stroke-linecap: butt}</style>
 </defs>
 <g id="figure_1">
  <g id="patch_1">
   <path d="M 0 345.6 
L 460.8 345.6 
L 460.8 0 
L 0 0 
z
" style="fill: #ffffff"/>
  </g>
  <g id="axes_1">
   <g id="patch_2">
    <path d="M 57.6 307.584 
L 414.72 307.584 
L 414.72 41.472 
L 57.6 41.472 
z
" style="fill: #ffffff"/>
   </g>
   <g id="matplotlib.axis_1">
    <g id="xtick_1">
     <g id="line2d_1">
      <defs>
       <path id="mce8e29651c" d="M 0 0 
L 0 3.5 
" style="stroke: #000000; stroke-width: 0.8"/>
      </defs>
      <g>
       <use xlink:href="#mce8e29651c" x="73.832727" y="307.584" style="stroke: #000000; stroke-width: 0.8"/>
      </g>
     </g>
     <g id="text_1">
      <!-- 0 -->
      <g transform="translate(70.651477 322.182437) scale(0.1 -0.1)">
       <defs>
        <path id="DejaVuSans-30" d="M 2034 4250 
Q 1547 4250 1301 3770 
Q 1056 3291 1056 2328 
Q 1056 1369 1301 889 
Q 1547 409 2034 409 
Q 2525 409 2770 889 
Q 3016 1369 3016 2328 
Q 3016 3291 2770 3770 
Q 2525 4250 2034 4250 
z
M 2034 4750 
Q 2819 4750 3233 4129 
Q 3647 3509 3647 2328 
Q 3647 1150 3233 529 
Q 2819 -91 2034 -91 
Q 1250 -91 836 529 
Q 422 1150 422 2328 
Q 422 3509 836 4129 
Q 1250 4750 2034 4750 
z
" transform="scale(0.015625)"/>
       </defs>
       <use xlink:href="#DejaVuSans-30"/>
      </g>
     </g>
    </g>
    <g id="xtick_2">
     <g id="line2d_2">
      <g>
       <use xlink:href="#mce8e29651c" x="118.003414" y="307.584" style="stroke: #000000; stroke-width: 0.8"/>
      </g>
     </g>
     <g id="text_2">
      <!-- 20 -->
      <g transform="translate(111.640914 322.182437) scale(0.1 -0.1)">
       <defs>
        <path id="DejaVuSans-32" d="M 1228 531 
L 3431 531 
L 3431 0 
L 469 0 
L 469 531 
Q 828 903 1448 1529 
Q 2069 2156 2228 2338 
Q 2531 2678 2651 2914 
Q 2772 3150 2772 3378 
Q 2772 3750 2511 3984 
Q 2250 4219 1831 4219 
Q 1534 4219 1204 4116 
Q 875 4013 500 3803 
L 500 4441 
Q 881 4594 1212 4672 
Q 1544 4750 1819 4750 
Q 2544 4750 2975 4387 
Q 3406 4025 3406 3419 
Q 3406 3131 3298 2873 
Q 3191 2616 2906 2266 
Q 2828 2175 2409 1742 
Q 1991 1309 1228 531 
z
" transform="scale(0.015625)"/>
       </defs>
       <use xlink:href="#DejaVuSans-32"/>
       <use xlink:href="#DejaVuSans-30" x="63.623047"/>
      </g>
     </g>
    </g>
    <g id="xtick_3">
     <g id="line2d_3">
      <g>
       <use xlink:href="#mce8e29651c" x="162.1741" y="307.584" style="stroke: #000000; stroke-width: 0.8"/>
      </g>
     </g>
     <g id="text_3">
      <!-- 40 -->
      <g transform="translate(155.8116 322.182437) scale(0.1 -0.1)">
       <defs>
        <path id="DejaVuSans-34" d="M 2419 4116 
L 825 1625 
L 2419 1625 
L 2419 4116 
z
M 2253 4666 
L 3047 4666 
L 3047 1625 
L 3713 1625 
L 3713 1100 
L 3047 1100 
L 3047 0 
L 2419 0 
L 2419 1100 
L 313 1100 
L 313 1709 
L 2253 4666 
z
" transform="scale(0.015625)"/>
       </defs>
       <use xlink:href="#DejaVuSans-34"/>
       <use xlink:href="#DejaVuSans-30" x="63.623047"/>
      </g>
     </g>
    </g>
    <g id="xtick_4">
     <g id="line2d_4">
      <g>
       <use xlink:href="#mce8e29651c" x="206.344787" y="307.584" style="stroke: #000000; stroke-width: 0.8"/>
      </g>
     </g>
     <g id="text_4">
      <!-- 60 -->
      <g transform="translate(199.982287 322.182437) scale(0.1 -0.1)">
       <defs>
        <path id="DejaVuSans-36" d="M 2113 2584 
Q 1688 2584 1439 2293 
Q 1191 2003 1191 1497 
Q 1191 994 1439 701 
Q 1688 409 2113 409 
Q 2538 409 2786 701 
Q 3034 994 3034 1497 
Q 3034 2003 2786 2293 
Q 2538 2584 2113 2584 
z
M 3366 4563 
L 3366 3988 
Q 3128 4100 2886 4159 
Q 2644 4219 2406 4219 
Q 1781 4219 1451 3797 
Q 1122 3375 1075 2522 
Q 1259 2794 1537 2939 
Q 1816 3084 2150 3084 
Q 2853 3084 3261 2657 
Q 3669 2231 3669 1497 
Q 3669 778 3244 343 
Q 2819 -91 2113 -91 
Q 1303 -91 875 529 
Q 447 1150 447 2328 
Q 447 3434 972 4092 
Q 1497 4750 2381 4750 
Q 2619 4750 2861 4703 
Q 3103 4656 3366 4563 
z
" transform="scale(0.015625)"/>
       </defs>
       <use xlink:href="#DejaVuSans-36"/>
       <use xlink:href="#DejaVuSans-30" x="63.623047"/>
      </g>
     </g>
    </g>
    <g id="xtick_5">
     <g id="line2d_5">
      <g>
       <use xlink:href="#mce8e29651c" x="250.515473" y="307.584" style="stroke: #000000; stroke-width: 0.8"/>
      </g>
     </g>
     <g id="text_5">
      <!-- 80 -->
      <g transform="translate(244.152973 322.182437) scale(0.1 -0.1)">
       <defs>
        <path id="DejaVuSans-38" d="M 2034 2216 
Q 1584 2216 1326 1975 
Q 1069 1734 1069 1313 
Q 1069 891 1326 650 
Q 1584 409 2034 409 
Q 2484 409 2743 651 
Q 3003 894 3003 1313 
Q 3003 1734 2745 1975 
Q 2488 2216 2034 2216 
z
M 1403 2484 
Q 997 2584 770 2862 
Q 544 3141 544 3541 
Q 544 4100 942 4425 
Q 1341 4750 2034 4750 
Q 2731 4750 3128 4425 
Q 3525 4100 3525 3541 
Q 3525 3141 3298 2862 
Q 3072 2584 2669 2484 
Q 3125 2378 3379 2068 
Q 3634 1759 3634 1313 
Q 3634 634 3220 271 
Q 2806 -91 2034 -91 
Q 1263 -91 848 271 
Q 434 634 434 1313 
Q 434 1759 690 2068 
Q 947 2378 1403 2484 
z
M 1172 3481 
Q 1172 3119 1398 2916 
Q 1625 2713 2034 2713 
Q 2441 2713 2670 2916 
Q 2900 3119 2900 3481 
Q 2900 3844 2670 4047 
Q 2441 4250 2034 4250 
Q 1625 4250 1398 4047 
Q 1172 3844 1172 3481 
z
" transform="scale(0.015625)"/>
       </defs>
       <use xlink:href="#DejaVuSans-38"/>
       <use xlink:href="#DejaVuSans-30" x="63.623047"/>
      </g>
     </g>
    </g>
    <g id="xtick_6">
     <g id="line2d_6">
      <g>
       <use xlink:href="#mce8e29651c" x="294.68616" y="307.584" style="stroke: #000000; stroke-width: 0.8"/>
      </g>
     </g>
     <g id="text_6">
      <!-- 100 -->
      <g transform="translate(285.14241 322.182437) scale(0.1 -0.1)">
       <defs>
        <path id="DejaVuSans-31" d="M 794 531 
L 1825 531 
L 1825 4091 
L 703 3866 
L 703 4441 
L 1819 4666 
L 2450 4666 
L 2450 531 
L 3481 531 
L 3481 0 
L 794 0 
L 794 531 
z
" transform="scale(0.015625)"/>
       </defs>
       <use xlink:href="#DejaVuSans-31"/>
       <use xlink:href="#DejaVuSans-30" x="63.623047"/>
       <use xlink:href="#DejaVuSans-30" x="127.246094"/>
      </g>
     </g>
    </g>
    <g id="xtick_7">
     <g id="line2d_7">
      <g>
       <use xlink:href="#mce8e29651c" x="338.856846" y="307.584" style="stroke: #000000; stroke-width: 0.8"/>
      </g>
     </g>
     <g id="text_7">
      <!-- 120 -->
      <g transform="translate(329.313096 322.182437) scale(0.1 -0.1)">
       <use xlink:href="#DejaVuSans-31"/>
       <use xlink:href="#DejaVuSans-32" x="63.623047"/>
       <use xlink:href="#DejaVuSans-30" x="127.246094"/>
      </g>
     </g>
    </g>
    <g id="xtick_8">
     <g id="line2d_8">
      <g>
       <use xlink:href="#mce8e29651c" x="383.027532" y="307.584" style="stroke: #000000; stroke-width: 0.8"/>
      </g>
     </g>
     <g id="text_8">
      <!-- 140 -->
      <g transform="translate(373.483782 322.182437) scale(0.1 -0.1)">
       <use xlink:href="#DejaVuSans-31"/>
       <use xlink:href="#DejaVuSans-34" x="63.623047"/>
       <use xlink:href="#DejaVuSans-30" x="127.246094"/>
      </g>
     </g>
    </g>
   </g>
   <g id="matplotlib.axis_2">
    <g id="ytick_1">
     <g id="line2d_9">
      <defs>
       <path id="m0a1662a2a8" d="M 0 0 
L -3.5 0 
" style="stroke: #000000; stroke-width: 0.8"/>
      </defs>
      <g>
       <use xlink:href="#m0a1662a2a8" x="57.6" y="285.519777" style="stroke: #000000; stroke-width: 0.8"/>
      </g>
     </g>
     <g id="text_9">
      <!-- −400 -->
      <g transform="translate(23.132812 289.318995) scale(0.1 -0.1)">
       <defs>
        <path id="DejaVuSans-2212" d="M 678 2272 
L 4684 2272 
L 4684 1741 
L 678 1741 
L 678 2272 
z
" transform="scale(0.015625)"/>
       </defs>
       <use xlink:href="#DejaVuSans-2212"/>
       <use xlink:href="#DejaVuSans-34" x="83.789062"/>
       <use xlink:href="#DejaVuSans-30" x="147.412109"/>
       <use xlink:href="#DejaVuSans-30" x="211.035156"/>
      </g>
     </g>
    </g>
    <g id="ytick_2">
     <g id="line2d_10">
      <g>
       <use xlink:href="#m0a1662a2a8" x="57.6" y="253.544897" style="stroke: #000000; stroke-width: 0.8"/>
      </g>
     </g>
     <g id="text_10">
      <!-- −300 -->
      <g transform="translate(23.132812 257.344115) scale(0.1 -0.1)">
       <defs>
        <path id="DejaVuSans-33" d="M 2597 2516 
Q 3050 2419 3304 2112 
Q 3559 1806 3559 1356 
Q 3559 666 3084 287 
Q 2609 -91 1734 -91 
Q 1441 -91 1130 -33 
Q 819 25 488 141 
L 488 750 
Q 750 597 1062 519 
Q 1375 441 1716 441 
Q 2309 441 2620 675 
Q 2931 909 2931 1356 
Q 2931 1769 2642 2001 
Q 2353 2234 1838 2234 
L 1294 2234 
L 1294 2753 
L 1863 2753 
Q 2328 2753 2575 2939 
Q 2822 3125 2822 3475 
Q 2822 3834 2567 4026 
Q 2313 4219 1838 4219 
Q 1578 4219 1281 4162 
Q 984 4106 628 3988 
L 628 4550 
Q 988 4650 1302 4700 
Q 1616 4750 1894 4750 
Q 2613 4750 3031 4423 
Q 3450 4097 3450 3541 
Q 3450 3153 3228 2886 
Q 3006 2619 2597 2516 
z
" transform="scale(0.015625)"/>
       </defs>
       <use xlink:href="#DejaVuSans-2212"/>
       <use xlink:href="#DejaVuSans-33" x="83.789062"/>
       <use xlink:href="#DejaVuSans-30" x="147.412109"/>
       <use xlink:href="#DejaVuSans-30" x="211.035156"/>
      </g>
     </g>
    </g>
    <g id="ytick_3">
     <g id="line2d_11">
      <g>
       <use xlink:href="#m0a1662a2a8" x="57.6" y="221.570017" style="stroke: #000000; stroke-width: 0.8"/>
      </g>
     </g>
     <g id="text_11">
      <!-- −200 -->
      <g transform="translate(23.132812 225.369235) scale(0.1 -0.1)">
       <use xlink:href="#DejaVuSans-2212"/>
       <use xlink:href="#DejaVuSans-32" x="83.789062"/>
       <use xlink:href="#DejaVuSans-30" x="147.412109"/>
       <use xlink:href="#DejaVuSans-30" x="211.035156"/>
      </g>
     </g>
    </g>
    <g id="ytick_4">
     <g id="line2d_12">
      <g>
       <use xlink:href="#m0a1662a2a8" x="57.6" y="189.595137" style="stroke: #000000; stroke-width: 0.8"/>
      </g>
     </g>
     <g id="text_12">
      <!-- −100 -->
      <g transform="translate(23.132812 193.394355) scale(0.1 -0.1)">
       <use xlink:href="#DejaVuSans-2212"/>
       <use xlink:href="#DejaVuSans-31" x="83.789062"/>
       <use xlink:href="#DejaVuSans-30" x="147.412109"/>
       <use xlink:href="#DejaVuSans-30" x="211.035156"/>
      </g>
     </g>
    </g>
    <g id="ytick_5">
     <g id="line2d_13">
      <g>
       <use xlink:href="#m0a1662a2a8" x="57.6" y="157.620257" style="stroke: #000000; stroke-width: 0.8"/>
      </g>
     </g>
     <g id="text_13">
      <!-- 0 -->
      <g transform="translate(44.2375 161.419475) scale(0.1 -0.1)">
       <use xlink:href="#DejaVuSans-30"/>
      </g>
     </g>
    </g>
    <g id="ytick_6">
     <g id="line2d_14">
      <g>
       <use xlink:href="#m0a1662a2a8" x="57.6" y="125.645377" style="stroke: #000000; stroke-width: 0.8"/>
      </g>
     </g>
     <g id="text_14">
      <!-- 100 -->
      <g transform="translate(31.5125 129.444595) scale(0.1 -0.1)">
       <use xlink:href="#DejaVuSans-31"/>
       <use xlink:href="#DejaVuSans-30" x="63.623047"/>
       <use xlink:href="#DejaVuSans-30" x="127.246094"/>
      </g>
     </g>
    </g>
    <g id="ytick_7">
     <g id="line2d_15">
      <g>
       <use xlink:href="#m0a1662a2a8" x="57.6" y="93.670497" style="stroke: #000000; stroke-width: 0.8"/>
      </g>
     </g>
     <g id="text_15">
      <!-- 200 -->
      <g transform="translate(31.5125 97.469715) scale(0.1 -0.1)">
       <use xlink:href="#DejaVuSans-32"/>
       <use xlink:href="#DejaVuSans-30" x="63.623047"/>
       <use xlink:href="#DejaVuSans-30" x="127.246094"/>
      </g>
     </g>
    </g>
    <g id="ytick_8">
     <g id="line2d_16">
      <g>
       <use xlink:href="#m0a1662a2a8" x="57.6" y="61.695617" style="stroke: #000000; stroke-width: 0.8"/>
      </g>
     </g>
     <g id="text_16">
      <!-- 300 -->
      <g transform="translate(31.5125 65.494836) scale(0.1 -0.1)">
       <use xlink:href="#DejaVuSans-33"/>
       <use xlink:href="#DejaVuSans-30" x="63.623047"/>
       <use xlink:href="#DejaVuSans-30" x="127.246094"/>
      </g>
     </g>
    </g>
   </g>
   <g id="line2d_17">
    <path d="M 73.832727 158.964249 
L 76.041262 159.815042 
L 78.249796 157.359163 
L 80.45833 160.946435 
L 82.666865 159.226201 
L 84.875399 159.818935 
L 87.083933 157.459133 
L 89.292468 159.705952 
L 91.501002 157.227228 
L 93.709536 159.84059 
L 95.918071 157.537368 
L 98.126605 159.4125 
L 100.335139 158.260813 
L 102.543673 158.201444 
L 104.752208 158.452609 
L 106.960742 158.454745 
L 109.169276 158.630823 
L 111.377811 157.370348 
L 113.586345 159.595457 
L 115.794879 162.372134 
L 118.003414 156.551637 
L 120.211948 160.991612 
L 122.420482 159.816771 
L 124.629017 158.771349 
L 126.837551 161.104655 
L 129.046085 158.309865 
L 131.25462 159.281336 
L 133.463154 157.311022 
L 135.671688 159.52052 
L 137.880223 158.60935 
L 140.088757 156.985759 
L 142.297291 158.398452 
L 144.505826 161.971038 
L 146.71436 158.703326 
L 148.922894 158.590556 
L 151.131429 158.683503 
L 153.339963 155.370503 
L 155.548497 164.135035 
L 157.757032 157.662272 
L 159.965566 159.952488 
L 162.1741 156.621832 
L 164.382635 161.23445 
L 166.591169 158.225157 
L 168.799703 158.440406 
L 171.008237 159.079349 
L 173.216772 158.178273 
L 175.425306 159.743284 
L 179.842375 156.510876 
L 182.050909 162.461068 
L 184.259443 153.051586 
L 186.467978 165.65898 
L 188.676512 164.775789 
L 190.885046 167.560787 
L 193.093581 162.978055 
L 195.302115 160.979265 
L 197.510649 162.409023 
L 199.719184 160.36438 
L 201.927718 160.75644 
L 206.344787 159.708006 
L 208.553321 158.433904 
L 210.761855 159.070671 
L 212.97039 160.311772 
L 215.178924 157.308181 
L 217.387458 161.352104 
L 219.595993 161.687863 
L 221.804527 154.885821 
L 224.013061 164.801809 
L 226.221596 158.281126 
L 228.43013 160.130181 
L 230.638664 157.478988 
L 232.847199 161.189078 
L 235.055733 158.904435 
L 237.264267 161.084822 
L 239.472801 157.058804 
L 241.681336 159.623003 
L 243.88987 159.978164 
L 246.098404 160.704662 
L 248.306939 157.83346 
L 250.515473 158.643697 
L 252.724007 158.383261 
L 254.932542 160.150724 
L 257.141076 157.248501 
L 259.34961 160.21993 
L 261.558145 158.667247 
L 263.766679 161.172812 
L 265.975213 158.206229 
L 268.183748 157.529437 
L 270.392282 157.588436 
L 272.600816 162.00799 
L 274.809351 159.086054 
L 277.017885 161.212585 
L 279.226419 160.356835 
L 281.434954 157.47455 
L 283.643488 158.306138 
L 285.852022 156.347132 
L 288.060557 164.899553 
L 290.269091 154.899947 
L 292.477625 167.191086 
L 294.68616 156.895661 
L 296.894694 160.21226 
L 299.103228 165.506319 
L 301.311763 157.597885 
L 303.520297 159.279458 
L 305.728831 157.566374 
L 307.937365 164.257166 
L 310.1459 163.456397 
L 312.354434 150.618617 
L 314.562968 168.928921 
L 316.771503 160.481322 
L 318.980037 165.729504 
L 321.188571 163.216749 
L 323.397106 158.415601 
L 325.60564 160.669399 
L 327.814174 153.985008 
L 330.022709 163.678251 
L 332.231243 161.435642 
L 334.439777 161.284227 
L 336.648312 165.891857 
L 338.856846 162.076364 
L 341.06538 156.353105 
L 343.273915 162.556059 
L 345.482449 160.077446 
L 347.690983 164.886834 
L 349.899518 158.242687 
L 352.108052 158.059971 
L 354.316586 161.089507 
L 356.525121 159.296503 
L 358.733655 159.731934 
L 360.942189 159.952073 
L 363.150724 157.164529 
L 365.359258 161.895306 
L 369.776327 159.497352 
L 371.984861 160.890756 
L 374.193395 158.997665 
L 376.401929 157.372055 
L 378.610464 160.689202 
L 380.818998 158.071665 
L 383.027532 155.754126 
L 385.236067 161.868071 
L 387.444601 158.042328 
L 389.653135 164.455754 
L 391.86167 160.760601 
L 394.070204 159.180682 
L 396.278738 159.940816 
L 398.487273 157.964105 
L 398.487273 157.964105 
" clip-path="url(#p9c57cea036)" style="fill: none; stroke: #008000; stroke-opacity: 0.8; stroke-width: 0.5; stroke-linecap: square"/>
   </g>
   <g id="line2d_18">
    <path d="M 73.832727 142.864197 
L 76.041262 149.667942 
L 78.249796 137.993965 
L 80.45833 137.819796 
L 82.666865 148.207532 
L 84.875399 150.208632 
L 87.083933 151.094735 
L 89.292468 149.469863 
L 91.501002 152.663062 
L 93.709536 146.62139 
L 95.918071 149.324095 
L 98.126605 151.49342 
L 100.335139 149.427867 
L 102.543673 151.855353 
L 104.752208 151.495599 
L 106.960742 154.000937 
L 109.169276 129.276644 
L 111.377811 135.059773 
L 113.586345 145.357859 
L 115.794879 142.685795 
L 118.003414 126.327772 
L 120.211948 142.264347 
L 122.420482 136.962367 
L 124.629017 141.716175 
L 126.837551 149.597517 
L 129.046085 153.201667 
L 131.25462 152.596843 
L 133.463154 139.063633 
L 135.671688 150.527476 
L 137.880223 154.451045 
L 140.088757 141.386819 
L 142.297291 136.73237 
L 144.505826 148.229073 
L 146.71436 153.237398 
L 148.922894 150.088478 
L 151.131429 151.562911 
L 153.339963 137.402824 
L 155.548497 129.242801 
L 157.757032 133.875194 
L 159.965566 153.999617 
L 162.1741 146.125189 
L 164.382635 141.1448 
L 166.591169 153.423561 
L 168.799703 153.211161 
L 171.008237 153.645979 
L 173.216772 148.722465 
L 175.425306 155.814719 
L 177.63384 148.636627 
L 179.842375 144.25447 
L 182.050909 138.69781 
L 184.259443 129.591027 
L 186.467978 99.232573 
L 188.676512 56.974958 
L 190.885046 118.07932 
L 193.093581 130.808641 
L 195.302115 132.52824 
L 197.510649 138.143813 
L 199.719184 149.118461 
L 201.927718 99.713512 
L 204.136252 131.233959 
L 206.344787 143.316211 
L 208.553321 142.675585 
L 210.761855 146.859227 
L 212.97039 151.324933 
L 215.178924 112.199684 
L 217.387458 134.176777 
L 219.595993 139.904415 
L 221.804527 136.309675 
L 224.013061 126.080968 
L 226.221596 142.471084 
L 228.43013 149.484503 
L 230.638664 147.490781 
L 232.847199 138.941227 
L 235.055733 146.995767 
L 237.264267 125.54541 
L 239.472801 151.000629 
L 241.681336 123.969393 
L 243.88987 137.922181 
L 246.098404 146.436953 
L 248.306939 147.001064 
L 250.515473 142.674006 
L 252.724007 133.796883 
L 254.932542 150.798883 
L 257.141076 149.549808 
L 259.34961 142.804938 
L 261.558145 144.60779 
L 263.766679 143.199555 
L 265.975213 147.69724 
L 268.183748 141.73824 
L 270.392282 150.909643 
L 272.600816 139.189406 
L 274.809351 129.942434 
L 277.017885 146.469072 
L 279.226419 147.133203 
L 281.434954 144.659052 
L 283.643488 122.033558 
L 285.852022 138.109288 
L 288.060557 152.525015 
L 290.269091 126.367358 
L 292.477625 146.524349 
L 294.68616 112.637897 
L 296.894694 125.928122 
L 299.103228 125.982612 
L 301.311763 134.250496 
L 303.520297 136.459801 
L 305.728831 103.820669 
L 307.937365 100.801256 
L 310.1459 99.158639 
L 312.354434 128.810788 
L 314.562968 122.313137 
L 316.771503 141.1422 
L 318.980037 141.263527 
L 321.188571 146.311191 
L 323.397106 136.416745 
L 325.60564 107.018519 
L 327.814174 92.818257 
L 330.022709 130.661728 
L 332.231243 124.610609 
L 334.439777 130.151002 
L 336.648312 129.486236 
L 338.856846 136.809668 
L 341.06538 125.188614 
L 343.273915 137.233072 
L 345.482449 138.56348 
L 347.690983 139.037197 
L 349.899518 136.119689 
L 352.108052 137.332623 
L 354.316586 135.147327 
L 356.525121 130.811266 
L 358.733655 148.075401 
L 360.942189 137.068186 
L 363.150724 142.098351 
L 365.359258 143.177268 
L 367.567792 148.888869 
L 369.776327 147.186512 
L 371.984861 146.523944 
L 374.193395 144.15806 
L 376.401929 137.409473 
L 378.610464 139.990188 
L 380.818998 135.942135 
L 383.027532 137.087417 
L 385.236067 139.845384 
L 387.444601 138.707307 
L 389.653135 138.85028 
L 391.86167 145.802504 
L 394.070204 150.567659 
L 396.278738 147.086313 
L 398.487273 130.202983 
L 398.487273 130.202983 
" clip-path="url(#p9c57cea036)" style="fill: none; stroke: #32cd32; stroke-opacity: 0.8; stroke-width: 0.5; stroke-linecap: square"/>
   </g>
   <g id="line2d_19">
    <path d="M 73.832727 173.315783 
L 76.041262 172.719104 
L 78.249796 196.386176 
L 80.45833 175.164287 
L 82.666865 169.893237 
L 84.875399 171.408553 
L 87.083933 165.472496 
L 89.292468 174.598871 
L 91.501002 161.86169 
L 93.709536 167.292196 
L 95.918071 165.510031 
L 98.126605 167.199247 
L 100.335139 167.698252 
L 102.543673 164.239041 
L 104.752208 163.758933 
L 106.960742 164.30406 
L 109.169276 187.881043 
L 111.377811 186.310007 
L 113.586345 175.191387 
L 115.794879 176.456202 
L 118.003414 172.840266 
L 120.211948 213.499482 
L 122.420482 189.35825 
L 124.629017 168.283844 
L 126.837551 172.44572 
L 129.046085 167.34714 
L 131.25462 174.483539 
L 133.463154 167.82172 
L 135.671688 165.635524 
L 137.880223 165.269618 
L 140.088757 167.970888 
L 142.297291 172.271173 
L 144.505826 181.682491 
L 146.71436 166.579604 
L 148.922894 164.825274 
L 151.131429 165.815498 
L 153.339963 164.812261 
L 155.548497 184.566917 
L 157.757032 171.871387 
L 159.965566 169.448114 
L 162.1741 167.639853 
L 164.382635 179.230389 
L 166.591169 164.499878 
L 168.799703 166.750948 
L 171.008237 164.844669 
L 173.216772 170.892007 
L 175.425306 165.275604 
L 177.63384 166.353995 
L 179.842375 166.149874 
L 182.050909 181.142636 
L 184.259443 163.471337 
L 186.467978 243.614001 
L 188.676512 295.488 
L 190.885046 219.704304 
L 193.093581 199.747161 
L 195.302115 183.556294 
L 197.510649 186.041932 
L 199.719184 170.656968 
L 201.927718 198.823583 
L 204.136252 181.564096 
L 206.344787 172.607935 
L 210.761855 172.315493 
L 212.97039 167.377942 
L 215.178924 202.20119 
L 217.387458 180.899555 
L 219.595993 177.807566 
L 221.804527 170.114977 
L 224.013061 190.860822 
L 226.221596 172.691515 
L 228.43013 176.345286 
L 230.638664 176.14744 
L 232.847199 173.295555 
L 235.055733 174.072917 
L 237.264267 186.818431 
L 239.472801 165.416747 
L 241.681336 197.390614 
L 243.88987 175.022978 
L 246.098404 178.369338 
L 248.306939 171.72201 
L 250.515473 178.002681 
L 252.724007 192.49446 
L 254.932542 177.506358 
L 257.141076 170.160595 
L 259.34961 185.121516 
L 261.558145 172.634928 
L 263.766679 194.499955 
L 265.975213 172.17953 
L 268.183748 172.159015 
L 270.392282 169.610799 
L 272.600816 180.268717 
L 274.809351 184.276893 
L 277.017885 181.407402 
L 279.226419 171.193255 
L 281.434954 172.231052 
L 283.643488 195.401044 
L 285.852022 188.531849 
L 288.060557 199.678387 
L 290.269091 176.651215 
L 292.477625 201.178571 
L 294.68616 190.02326 
L 296.894694 197.662861 
L 299.103228 211.512973 
L 301.311763 178.269682 
L 303.520297 184.013693 
L 305.728831 203.788786 
L 307.937365 199.667064 
L 310.1459 188.972753 
L 312.354434 190.904499 
L 314.562968 200.312415 
L 316.771503 178.927077 
L 318.980037 197.808951 
L 323.397106 180.649729 
L 325.60564 188.918186 
L 327.814174 175.925006 
L 330.022709 200.270797 
L 332.231243 195.161387 
L 334.439777 194.093985 
L 336.648312 229.560674 
L 338.856846 201.640652 
L 341.06538 179.232331 
L 343.273915 186.881664 
L 345.482449 188.666741 
L 347.690983 193.373049 
L 349.899518 178.98444 
L 352.108052 175.074553 
L 354.316586 187.524151 
L 356.525121 175.730303 
L 358.733655 177.212404 
L 360.942189 192.091724 
L 363.150724 188.037597 
L 365.359258 178.992877 
L 367.567792 176.351795 
L 369.776327 179.702636 
L 371.984861 173.003904 
L 374.193395 168.280831 
L 376.401929 178.245947 
L 378.610464 174.710497 
L 380.818998 178.517115 
L 383.027532 170.627054 
L 385.236067 175.652057 
L 387.444601 176.51404 
L 389.653135 183.426436 
L 391.86167 184.454244 
L 394.070204 166.662298 
L 396.278738 174.912348 
L 398.487273 173.044125 
L 398.487273 173.044125 
" clip-path="url(#p9c57cea036)" style="fill: none; stroke: #32cd32; stroke-opacity: 0.8; stroke-width: 0.5; stroke-linecap: square"/>
   </g>
   <g id="line2d_20">
    <path d="M 73.832727 154.979562 
L 76.041262 156.245266 
L 78.249796 154.361715 
L 80.45833 158.18481 
L 82.666865 156.34435 
L 84.875399 157.78247 
L 87.083933 155.790486 
L 89.292468 157.536712 
L 91.501002 156.084545 
L 93.709536 158.129333 
L 95.918071 155.767094 
L 98.126605 157.20302 
L 102.543673 156.619964 
L 104.752208 157.290265 
L 106.960742 157.051822 
L 109.169276 155.791313 
L 111.377811 153.499307 
L 113.586345 155.881751 
L 115.794879 158.945106 
L 118.003414 152.691204 
L 120.211948 154.627143 
L 122.420482 156.320003 
L 124.629017 156.157745 
L 126.837551 158.307474 
L 129.046085 156.314949 
L 131.25462 157.359379 
L 133.463154 155.647173 
L 135.671688 157.055898 
L 137.880223 157.139231 
L 140.088757 154.783612 
L 142.297291 155.18757 
L 144.505826 158.659849 
L 146.71436 156.251591 
L 148.922894 155.458149 
L 151.131429 156.497123 
L 153.339963 152.099519 
L 155.548497 159.028416 
L 157.757032 153.9475 
L 159.965566 157.400822 
L 162.1741 155.082277 
L 164.382635 157.323082 
L 166.591169 156.080367 
L 168.799703 157.138283 
L 171.008237 157.11857 
L 173.216772 155.645314 
L 175.425306 157.638106 
L 177.63384 156.118106 
L 179.842375 154.808099 
L 182.050909 157.387786 
L 184.259443 148.979788 
L 186.467978 154.099661 
L 188.676512 150.789958 
L 190.885046 156.098916 
L 193.093581 152.600725 
L 195.302115 154.113485 
L 197.510649 156.956158 
L 199.719184 155.671623 
L 201.927718 152.448355 
L 204.136252 154.991267 
L 206.344787 156.158922 
L 208.553321 156.425413 
L 210.761855 156.456127 
L 212.97039 157.823562 
L 215.178924 151.926713 
L 217.387458 155.392397 
L 219.595993 156.975374 
L 221.804527 150.86284 
L 224.013061 156.064796 
L 226.221596 152.981571 
L 228.43013 156.786717 
L 230.638664 155.06707 
L 232.847199 158.591085 
L 235.055733 153.942046 
L 237.264267 155.835925 
L 239.472801 153.786187 
L 241.681336 155.974243 
L 243.88987 156.146943 
L 246.098404 156.846946 
L 248.306939 154.56664 
L 250.515473 156.100682 
L 252.724007 153.357815 
L 254.932542 157.787736 
L 257.141076 156.324919 
L 259.34961 157.709096 
L 261.558145 155.986778 
L 265.975213 156.888789 
L 268.183748 154.596586 
L 272.600816 156.691064 
L 274.809351 153.427255 
L 277.017885 156.245574 
L 279.226419 157.71524 
L 281.434954 154.830384 
L 283.643488 153.821553 
L 285.852022 151.755877 
L 288.060557 159.715562 
L 290.269091 150.365807 
L 292.477625 160.451783 
L 294.68616 152.590818 
L 296.894694 151.632374 
L 299.103228 156.434524 
L 301.311763 151.35483 
L 303.520297 152.842307 
L 305.728831 147.790669 
L 307.937365 154.117072 
L 310.1459 158.11008 
L 312.354434 139.355539 
L 314.562968 154.637785 
L 316.771503 155.335991 
L 318.980037 160.352845 
L 321.188571 157.169729 
L 323.397106 151.620744 
L 325.60564 155.294289 
L 327.814174 149.555968 
L 330.022709 154.990654 
L 332.231243 155.182746 
L 334.439777 154.062538 
L 336.648312 159.297297 
L 338.856846 157.600458 
L 341.06538 150.723485 
L 343.273915 156.750404 
L 345.482449 155.678879 
L 347.690983 160.923765 
L 349.899518 153.917414 
L 352.108052 153.444729 
L 354.316586 156.059037 
L 356.525121 156.308511 
L 358.733655 155.704832 
L 360.942189 157.541531 
L 363.150724 155.053194 
L 365.359258 158.96208 
L 367.567792 156.02275 
L 369.776327 155.248102 
L 371.984861 157.02788 
L 374.193395 154.987893 
L 376.401929 153.356155 
L 378.610464 157.736293 
L 380.818998 153.800201 
L 383.027532 153.341149 
L 385.236067 156.617665 
L 387.444601 154.362899 
L 389.653135 159.184662 
L 391.86167 153.855005 
L 394.070204 155.620743 
L 396.278738 156.235841 
L 398.487273 155.258766 
L 398.487273 155.258766 
" clip-path="url(#p9c57cea036)" style="fill: none; stroke: #ff0000; stroke-opacity: 0.8; stroke-width: 0.5; stroke-linecap: square"/>
   </g>
   <g id="line2d_21">
    <path d="M 73.832727 138.087714 
L 76.041262 146.552608 
L 78.249796 136.318876 
L 80.45833 133.499583 
L 82.666865 146.223422 
L 84.875399 147.158193 
L 87.083933 148.86912 
L 89.292468 147.430321 
L 91.501002 151.972089 
L 93.709536 145.390354 
L 95.918071 146.124493 
L 98.126605 148.61128 
L 100.335139 150.198051 
L 102.543673 149.651881 
L 104.752208 150.558989 
L 106.960742 151.813 
L 109.169276 127.863594 
L 111.377811 133.125363 
L 113.586345 138.705581 
L 115.794879 140.916686 
L 118.003414 120.216809 
L 120.211948 140.045663 
L 122.420482 133.749796 
L 124.629017 136.799817 
L 126.837551 147.038919 
L 129.046085 150.77616 
L 131.25462 150.696448 
L 133.463154 137.272364 
L 135.671688 149.36276 
L 137.880223 152.852834 
L 140.088757 140.343389 
L 142.297291 134.2041 
L 144.505826 145.13115 
L 146.71436 150.080861 
L 148.922894 146.998751 
L 151.131429 150.371409 
L 153.339963 132.022845 
L 155.548497 128.100836 
L 157.757032 130.853462 
L 159.965566 147.338725 
L 162.1741 145.251552 
L 164.382635 141.14158 
L 166.591169 149.990871 
L 168.799703 152.239277 
L 171.008237 152.577175 
L 173.216772 148.527014 
L 175.425306 151.930313 
L 177.63384 144.421017 
L 179.842375 142.088095 
L 182.050909 137.070328 
L 184.259443 123.79568 
L 186.467978 94.151208 
L 188.676512 53.568 
L 190.885046 93.75679 
L 193.093581 124.272264 
L 195.302115 126.05297 
L 197.510649 132.474966 
L 199.719184 142.67524 
L 201.927718 96.380342 
L 204.136252 127.737111 
L 206.344787 136.695882 
L 208.553321 139.765045 
L 210.761855 145.12423 
L 212.97039 149.90116 
L 215.178924 104.527553 
L 217.387458 130.590865 
L 219.595993 135.674256 
L 221.804527 133.478359 
L 224.013061 120.32225 
L 226.221596 138.23327 
L 228.43013 143.329101 
L 230.638664 144.267189 
L 232.847199 135.843553 
L 235.055733 139.305482 
L 237.264267 124.475018 
L 239.472801 148.240593 
L 241.681336 121.954351 
L 243.88987 134.331172 
L 246.098404 139.560851 
L 248.306939 144.294102 
L 250.515473 142.311107 
L 252.724007 128.580039 
L 254.932542 147.399822 
L 257.141076 149.398287 
L 259.34961 139.563671 
L 261.558145 141.736645 
L 263.766679 136.236602 
L 265.975213 146.636809 
L 268.183748 142.369442 
L 270.392282 148.586474 
L 272.600816 133.098361 
L 274.809351 127.050815 
L 277.017885 144.202313 
L 279.226419 145.524567 
L 281.434954 144.17207 
L 283.643488 120.804658 
L 285.852022 132.953782 
L 288.060557 140.039728 
L 290.269091 124.951236 
L 292.477625 137.068239 
L 294.68616 109.375394 
L 296.894694 122.311583 
L 299.103228 119.654366 
L 301.311763 127.289522 
L 303.520297 131.747896 
L 305.728831 89.923128 
L 307.937365 88.062975 
L 310.1459 91.15347 
L 312.354434 110.212426 
L 314.562968 117.552473 
L 316.771503 137.074947 
L 318.980037 133.066333 
L 321.188571 139.378502 
L 323.397106 132.285793 
L 325.60564 104.583499 
L 327.814174 85.360242 
L 330.022709 122.350426 
L 332.231243 124.27619 
L 334.439777 124.938548 
L 336.648312 124.737009 
L 338.856846 133.137205 
L 341.06538 124.525331 
L 343.273915 133.83501 
L 345.482449 133.793812 
L 347.690983 134.611223 
L 349.899518 126.902631 
L 352.108052 131.626749 
L 354.316586 129.906516 
L 356.525121 122.762759 
L 358.733655 140.716959 
L 360.942189 134.949037 
L 363.150724 137.166133 
L 365.359258 140.096571 
L 367.567792 138.48326 
L 369.776327 142.92461 
L 371.984861 143.180582 
L 374.193395 141.326304 
L 376.401929 136.239809 
L 378.610464 139.553781 
L 380.818998 132.101229 
L 383.027532 135.180297 
L 385.236067 136.259414 
L 387.444601 134.9562 
L 389.653135 137.463849 
L 391.86167 140.666401 
L 394.070204 147.628809 
L 396.278738 143.380955 
L 398.487273 127.313808 
L 398.487273 127.313808 
" clip-path="url(#p9c57cea036)" style="fill: none; stroke: #f08080; stroke-opacity: 0.8; stroke-width: 0.5; stroke-linecap: square"/>
   </g>
   <g id="line2d_22">
    <path d="M 73.832727 170.21432 
L 76.041262 170.464049 
L 78.249796 186.585992 
L 80.45833 173.948023 
L 82.666865 167.722292 
L 84.875399 169.058841 
L 87.083933 164.115932 
L 89.292468 171.376092 
L 91.501002 160.199965 
L 93.709536 165.451599 
L 95.918071 165.185674 
L 98.126605 163.335714 
L 100.335139 165.195467 
L 102.543673 163.000846 
L 104.752208 162.996585 
L 106.960742 163.317562 
L 109.169276 180.645117 
L 111.377811 176.509941 
L 113.586345 173.47247 
L 115.794879 174.910792 
L 118.003414 164.858062 
L 120.211948 206.321737 
L 122.420482 187.904418 
L 124.629017 165.554909 
L 126.837551 169.610932 
L 129.046085 165.605133 
L 131.25462 171.80426 
L 133.463154 166.763087 
L 135.671688 163.463713 
L 137.880223 164.434648 
L 140.088757 166.041379 
L 142.297291 168.231383 
L 144.505826 178.862455 
L 146.71436 164.878745 
L 148.922894 161.496933 
L 151.131429 161.797812 
L 153.339963 164.485311 
L 155.548497 178.922611 
L 157.757032 171.702887 
L 159.965566 167.850422 
L 162.1741 165.142945 
L 164.382635 170.225574 
L 166.591169 163.176144 
L 168.799703 165.357959 
L 171.008237 163.541632 
L 173.216772 164.514296 
L 175.425306 164.427064 
L 177.63384 165.089899 
L 179.842375 164.531641 
L 182.050909 171.986827 
L 184.259443 161.345339 
L 186.467978 211.498929 
L 188.676512 252.272143 
L 190.885046 215.165295 
L 193.093581 183.170615 
L 195.302115 177.588588 
L 197.510649 182.945537 
L 199.719184 166.134329 
L 201.927718 179.015258 
L 204.136252 173.93922 
L 206.344787 169.703492 
L 208.553321 169.27275 
L 210.761855 172.588782 
L 212.97039 164.997532 
L 215.178924 190.015418 
L 217.387458 172.599324 
L 219.595993 176.75476 
L 221.804527 166.692205 
L 224.013061 177.929657 
L 226.221596 170.586849 
L 228.43013 173.095378 
L 230.638664 172.896862 
L 232.847199 171.36577 
L 235.055733 173.047193 
L 237.264267 176.768884 
L 239.472801 160.228608 
L 241.681336 189.370897 
L 243.88987 171.014401 
L 246.098404 177.833413 
L 248.306939 170.730596 
L 250.515473 170.926515 
L 252.724007 178.176536 
L 254.932542 173.663082 
L 257.141076 169.488558 
L 259.34961 178.688232 
L 261.558145 171.82654 
L 263.766679 183.57544 
L 265.975213 169.155441 
L 268.183748 169.815178 
L 270.392282 170.701312 
L 272.600816 173.233592 
L 274.809351 175.48448 
L 277.017885 180.356243 
L 279.226419 170.340442 
L 281.434954 166.721626 
L 283.643488 183.748344 
L 285.852022 184.681422 
L 288.060557 190.282692 
L 290.269091 173.680967 
L 292.477625 196.009975 
L 294.68616 184.76406 
L 296.894694 188.760298 
L 299.103228 195.289244 
L 301.311763 174.080252 
L 303.520297 175.053961 
L 305.728831 189.766573 
L 307.937365 194.180304 
L 310.1459 183.383964 
L 312.354434 180.404464 
L 314.562968 185.804446 
L 316.771503 173.407452 
L 318.980037 193.078454 
L 321.188571 185.882789 
L 323.397106 173.874738 
L 325.60564 185.731566 
L 327.814174 175.610653 
L 330.022709 193.056924 
L 332.231243 188.439132 
L 334.439777 187.791103 
L 336.648312 229.114015 
L 338.856846 198.089914 
L 341.06538 175.546298 
L 343.273915 181.408777 
L 345.482449 188.084523 
L 347.690983 187.058997 
L 349.899518 175.027386 
L 352.108052 168.772934 
L 354.316586 181.28723 
L 356.525121 174.208735 
L 358.733655 175.350354 
L 360.942189 184.578366 
L 363.150724 184.716554 
L 365.359258 174.642401 
L 367.567792 173.117636 
L 369.776327 174.834734 
L 371.984861 171.253342 
L 374.193395 162.045741 
L 376.401929 173.106612 
L 378.610464 171.513633 
L 380.818998 174.401007 
L 383.027532 168.664053 
L 387.444601 174.081896 
L 389.653135 178.096875 
L 391.86167 178.548485 
L 394.070204 163.326528 
L 396.278738 172.310653 
L 398.487273 173.024949 
L 398.487273 173.024949 
" clip-path="url(#p9c57cea036)" style="fill: none; stroke: #f08080; stroke-opacity: 0.8; stroke-width: 0.5; stroke-linecap: square"/>
   </g>
   <g id="patch_3">
    <path d="M 57.6 307.584 
L 57.6 41.472 
" style="fill: none; stroke: #000000; stroke-width: 0.8; stroke-linejoin: miter; stroke-linecap: square"/>
   </g>
   <g id="patch_4">
    <path d="M 414.72 307.584 
L 414.72 41.472 
" style="fill: none; stroke: #000000; stroke-width: 0.8; stroke-linejoin: miter; stroke-linecap: square"/>
   </g>
   <g id="patch_5">
    <path d="M 57.6 307.584 
L 414.72 307.584 
" style="fill: none; stroke: #000000; stroke-width: 0.8; stroke-linejoin: miter; stroke-linecap: square"/>
   </g>
   <g id="patch_6">
    <path d="M 57.6 41.472 
L 414.72 41.472 
" style="fill: none; stroke: #000000; stroke-width: 0.8; stroke-linejoin: miter; stroke-linecap: square"/>
   </g>
   <g id="text_17">
    <!-- 1final_zhangext_aa_snp500 -->
    <g transform="translate(153.143438 35.472) scale(0.12 -0.12)">
     <defs>
      <path id="DejaVuSans-66" d="M 2375 4863 
L 2375 4384 
L 1825 4384 
Q 1516 4384 1395 4259 
Q 1275 4134 1275 3809 
L 1275 3500 
L 2222 3500 
L 2222 3053 
L 1275 3053 
L 1275 0 
L 697 0 
L 697 3053 
L 147 3053 
L 147 3500 
L 697 3500 
L 697 3744 
Q 697 4328 969 4595 
Q 1241 4863 1831 4863 
L 2375 4863 
z
" transform="scale(0.015625)"/>
      <path id="DejaVuSans-69" d="M 603 3500 
L 1178 3500 
L 1178 0 
L 603 0 
L 603 3500 
z
M 603 4863 
L 1178 4863 
L 1178 4134 
L 603 4134 
L 603 4863 
z
" transform="scale(0.015625)"/>
      <path id="DejaVuSans-6e" d="M 3513 2113 
L 3513 0 
L 2938 0 
L 2938 2094 
Q 2938 2591 2744 2837 
Q 2550 3084 2163 3084 
Q 1697 3084 1428 2787 
Q 1159 2491 1159 1978 
L 1159 0 
L 581 0 
L 581 3500 
L 1159 3500 
L 1159 2956 
Q 1366 3272 1645 3428 
Q 1925 3584 2291 3584 
Q 2894 3584 3203 3211 
Q 3513 2838 3513 2113 
z
" transform="scale(0.015625)"/>
      <path id="DejaVuSans-61" d="M 2194 1759 
Q 1497 1759 1228 1600 
Q 959 1441 959 1056 
Q 959 750 1161 570 
Q 1363 391 1709 391 
Q 2188 391 2477 730 
Q 2766 1069 2766 1631 
L 2766 1759 
L 2194 1759 
z
M 3341 1997 
L 3341 0 
L 2766 0 
L 2766 531 
Q 2569 213 2275 61 
Q 1981 -91 1556 -91 
Q 1019 -91 701 211 
Q 384 513 384 1019 
Q 384 1609 779 1909 
Q 1175 2209 1959 2209 
L 2766 2209 
L 2766 2266 
Q 2766 2663 2505 2880 
Q 2244 3097 1772 3097 
Q 1472 3097 1187 3025 
Q 903 2953 641 2809 
L 641 3341 
Q 956 3463 1253 3523 
Q 1550 3584 1831 3584 
Q 2591 3584 2966 3190 
Q 3341 2797 3341 1997 
z
" transform="scale(0.015625)"/>
      <path id="DejaVuSans-6c" d="M 603 4863 
L 1178 4863 
L 1178 0 
L 603 0 
L 603 4863 
z
" transform="scale(0.015625)"/>
      <path id="DejaVuSans-5f" d="M 3263 -1063 
L 3263 -1509 
L -63 -1509 
L -63 -1063 
L 3263 -1063 
z
" transform="scale(0.015625)"/>
      <path id="DejaVuSans-7a" d="M 353 3500 
L 3084 3500 
L 3084 2975 
L 922 459 
L 3084 459 
L 3084 0 
L 275 0 
L 275 525 
L 2438 3041 
L 353 3041 
L 353 3500 
z
" transform="scale(0.015625)"/>
      <path id="DejaVuSans-68" d="M 3513 2113 
L 3513 0 
L 2938 0 
L 2938 2094 
Q 2938 2591 2744 2837 
Q 2550 3084 2163 3084 
Q 1697 3084 1428 2787 
Q 1159 2491 1159 1978 
L 1159 0 
L 581 0 
L 581 4863 
L 1159 4863 
L 1159 2956 
Q 1366 3272 1645 3428 
Q 1925 3584 2291 3584 
Q 2894 3584 3203 3211 
Q 3513 2838 3513 2113 
z
" transform="scale(0.015625)"/>
      <path id="DejaVuSans-67" d="M 2906 1791 
Q 2906 2416 2648 2759 
Q 2391 3103 1925 3103 
Q 1463 3103 1205 2759 
Q 947 2416 947 1791 
Q 947 1169 1205 825 
Q 1463 481 1925 481 
Q 2391 481 2648 825 
Q 2906 1169 2906 1791 
z
M 3481 434 
Q 3481 -459 3084 -895 
Q 2688 -1331 1869 -1331 
Q 1566 -1331 1297 -1286 
Q 1028 -1241 775 -1147 
L 775 -588 
Q 1028 -725 1275 -790 
Q 1522 -856 1778 -856 
Q 2344 -856 2625 -561 
Q 2906 -266 2906 331 
L 2906 616 
Q 2728 306 2450 153 
Q 2172 0 1784 0 
Q 1141 0 747 490 
Q 353 981 353 1791 
Q 353 2603 747 3093 
Q 1141 3584 1784 3584 
Q 2172 3584 2450 3431 
Q 2728 3278 2906 2969 
L 2906 3500 
L 3481 3500 
L 3481 434 
z
" transform="scale(0.015625)"/>
      <path id="DejaVuSans-65" d="M 3597 1894 
L 3597 1613 
L 953 1613 
Q 991 1019 1311 708 
Q 1631 397 2203 397 
Q 2534 397 2845 478 
Q 3156 559 3463 722 
L 3463 178 
Q 3153 47 2828 -22 
Q 2503 -91 2169 -91 
Q 1331 -91 842 396 
Q 353 884 353 1716 
Q 353 2575 817 3079 
Q 1281 3584 2069 3584 
Q 2775 3584 3186 3129 
Q 3597 2675 3597 1894 
z
M 3022 2063 
Q 3016 2534 2758 2815 
Q 2500 3097 2075 3097 
Q 1594 3097 1305 2825 
Q 1016 2553 972 2059 
L 3022 2063 
z
" transform="scale(0.015625)"/>
      <path id="DejaVuSans-78" d="M 3513 3500 
L 2247 1797 
L 3578 0 
L 2900 0 
L 1881 1375 
L 863 0 
L 184 0 
L 1544 1831 
L 300 3500 
L 978 3500 
L 1906 2253 
L 2834 3500 
L 3513 3500 
z
" transform="scale(0.015625)"/>
      <path id="DejaVuSans-74" d="M 1172 4494 
L 1172 3500 
L 2356 3500 
L 2356 3053 
L 1172 3053 
L 1172 1153 
Q 1172 725 1289 603 
Q 1406 481 1766 481 
L 2356 481 
L 2356 0 
L 1766 0 
Q 1100 0 847 248 
Q 594 497 594 1153 
L 594 3053 
L 172 3053 
L 172 3500 
L 594 3500 
L 594 4494 
L 1172 4494 
z
" transform="scale(0.015625)"/>
      <path id="DejaVuSans-73" d="M 2834 3397 
L 2834 2853 
Q 2591 2978 2328 3040 
Q 2066 3103 1784 3103 
Q 1356 3103 1142 2972 
Q 928 2841 928 2578 
Q 928 2378 1081 2264 
Q 1234 2150 1697 2047 
L 1894 2003 
Q 2506 1872 2764 1633 
Q 3022 1394 3022 966 
Q 3022 478 2636 193 
Q 2250 -91 1575 -91 
Q 1294 -91 989 -36 
Q 684 19 347 128 
L 347 722 
Q 666 556 975 473 
Q 1284 391 1588 391 
Q 1994 391 2212 530 
Q 2431 669 2431 922 
Q 2431 1156 2273 1281 
Q 2116 1406 1581 1522 
L 1381 1569 
Q 847 1681 609 1914 
Q 372 2147 372 2553 
Q 372 3047 722 3315 
Q 1072 3584 1716 3584 
Q 2034 3584 2315 3537 
Q 2597 3491 2834 3397 
z
" transform="scale(0.015625)"/>
      <path id="DejaVuSans-70" d="M 1159 525 
L 1159 -1331 
L 581 -1331 
L 581 3500 
L 1159 3500 
L 1159 2969 
Q 1341 3281 1617 3432 
Q 1894 3584 2278 3584 
Q 2916 3584 3314 3078 
Q 3713 2572 3713 1747 
Q 3713 922 3314 415 
Q 2916 -91 2278 -91 
Q 1894 -91 1617 61 
Q 1341 213 1159 525 
z
M 3116 1747 
Q 3116 2381 2855 2742 
Q 2594 3103 2138 3103 
Q 1681 3103 1420 2742 
Q 1159 2381 1159 1747 
Q 1159 1113 1420 752 
Q 1681 391 2138 391 
Q 2594 391 2855 752 
Q 3116 1113 3116 1747 
z
" transform="scale(0.015625)"/>
      <path id="DejaVuSans-35" d="M 691 4666 
L 3169 4666 
L 3169 4134 
L 1269 4134 
L 1269 2991 
Q 1406 3038 1543 3061 
Q 1681 3084 1819 3084 
Q 2600 3084 3056 2656 
Q 3513 2228 3513 1497 
Q 3513 744 3044 326 
Q 2575 -91 1722 -91 
Q 1428 -91 1123 -41 
Q 819 9 494 109 
L 494 744 
Q 775 591 1075 516 
Q 1375 441 1709 441 
Q 2250 441 2565 725 
Q 2881 1009 2881 1497 
Q 2881 1984 2565 2268 
Q 2250 2553 1709 2553 
Q 1456 2553 1204 2497 
Q 953 2441 691 2322 
L 691 4666 
z
" transform="scale(0.015625)"/>
     </defs>
     <use xlink:href="#DejaVuSans-31"/>
     <use xlink:href="#DejaVuSans-66" x="63.623047"/>
     <use xlink:href="#DejaVuSans-69" x="98.828125"/>
     <use xlink:href="#DejaVuSans-6e" x="126.611328"/>
     <use xlink:href="#DejaVuSans-61" x="189.990234"/>
     <use xlink:href="#DejaVuSans-6c" x="251.269531"/>
     <use xlink:href="#DejaVuSans-5f" x="279.052734"/>
     <use xlink:href="#DejaVuSans-7a" x="329.052734"/>
     <use xlink:href="#DejaVuSans-68" x="381.542969"/>
     <use xlink:href="#DejaVuSans-61" x="444.921875"/>
     <use xlink:href="#DejaVuSans-6e" x="506.201172"/>
     <use xlink:href="#DejaVuSans-67" x="569.580078"/>
     <use xlink:href="#DejaVuSans-65" x="633.056641"/>
     <use xlink:href="#DejaVuSans-78" x="692.830078"/>
     <use xlink:href="#DejaVuSans-74" x="752.009766"/>
     <use xlink:href="#DejaVuSans-5f" x="791.21875"/>
     <use xlink:href="#DejaVuSans-61" x="841.21875"/>
     <use xlink:href="#DejaVuSans-61" x="902.498047"/>
     <use xlink:href="#DejaVuSans-5f" x="963.777344"/>
     <use xlink:href="#DejaVuSans-73" x="1013.777344"/>
     <use xlink:href="#DejaVuSans-6e" x="1065.876953"/>
     <use xlink:href="#DejaVuSans-70" x="1129.255859"/>
     <use xlink:href="#DejaVuSans-35" x="1192.732422"/>
     <use xlink:href="#DejaVuSans-30" x="1256.355469"/>
     <use xlink:href="#DejaVuSans-30" x="1319.978516"/>
    </g>
   </g>
   <g id="legend_1">
    <g id="patch_7">
     <path d="M 247.318437 302.584 
L 407.72 302.584 
Q 409.72 302.584 409.72 300.584 
L 409.72 213.51525 
Q 409.72 211.51525 407.72 211.51525 
L 247.318437 211.51525 
Q 245.318437 211.51525 245.318437 213.51525 
L 245.318437 300.584 
Q 245.318437 302.584 247.318437 302.584 
z
" style="fill: #ffffff; opacity: 0.8; stroke: #cccccc; stroke-linejoin: miter"/>
    </g>
    <g id="line2d_23">
     <path d="M 249.318437 219.613687 
L 259.318437 219.613687 
L 269.318437 219.613687 
" style="fill: none; stroke: #008000; stroke-opacity: 0.8; stroke-width: 0.5; stroke-linecap: square"/>
    </g>
    <g id="text_18">
     <!-- Positive predictions -->
     <g transform="translate(277.318437 223.113687) scale(0.1 -0.1)">
      <defs>
       <path id="DejaVuSans-50" d="M 1259 4147 
L 1259 2394 
L 2053 2394 
Q 2494 2394 2734 2622 
Q 2975 2850 2975 3272 
Q 2975 3691 2734 3919 
Q 2494 4147 2053 4147 
L 1259 4147 
z
M 628 4666 
L 2053 4666 
Q 2838 4666 3239 4311 
Q 3641 3956 3641 3272 
Q 3641 2581 3239 2228 
Q 2838 1875 2053 1875 
L 1259 1875 
L 1259 0 
L 628 0 
L 628 4666 
z
" transform="scale(0.015625)"/>
       <path id="DejaVuSans-6f" d="M 1959 3097 
Q 1497 3097 1228 2736 
Q 959 2375 959 1747 
Q 959 1119 1226 758 
Q 1494 397 1959 397 
Q 2419 397 2687 759 
Q 2956 1122 2956 1747 
Q 2956 2369 2687 2733 
Q 2419 3097 1959 3097 
z
M 1959 3584 
Q 2709 3584 3137 3096 
Q 3566 2609 3566 1747 
Q 3566 888 3137 398 
Q 2709 -91 1959 -91 
Q 1206 -91 779 398 
Q 353 888 353 1747 
Q 353 2609 779 3096 
Q 1206 3584 1959 3584 
z
" transform="scale(0.015625)"/>
       <path id="DejaVuSans-76" d="M 191 3500 
L 800 3500 
L 1894 563 
L 2988 3500 
L 3597 3500 
L 2284 0 
L 1503 0 
L 191 3500 
z
" transform="scale(0.015625)"/>
       <path id="DejaVuSans-20" transform="scale(0.015625)"/>
       <path id="DejaVuSans-72" d="M 2631 2963 
Q 2534 3019 2420 3045 
Q 2306 3072 2169 3072 
Q 1681 3072 1420 2755 
Q 1159 2438 1159 1844 
L 1159 0 
L 581 0 
L 581 3500 
L 1159 3500 
L 1159 2956 
Q 1341 3275 1631 3429 
Q 1922 3584 2338 3584 
Q 2397 3584 2469 3576 
Q 2541 3569 2628 3553 
L 2631 2963 
z
" transform="scale(0.015625)"/>
       <path id="DejaVuSans-64" d="M 2906 2969 
L 2906 4863 
L 3481 4863 
L 3481 0 
L 2906 0 
L 2906 525 
Q 2725 213 2448 61 
Q 2172 -91 1784 -91 
Q 1150 -91 751 415 
Q 353 922 353 1747 
Q 353 2572 751 3078 
Q 1150 3584 1784 3584 
Q 2172 3584 2448 3432 
Q 2725 3281 2906 2969 
z
M 947 1747 
Q 947 1113 1208 752 
Q 1469 391 1925 391 
Q 2381 391 2643 752 
Q 2906 1113 2906 1747 
Q 2906 2381 2643 2742 
Q 2381 3103 1925 3103 
Q 1469 3103 1208 2742 
Q 947 2381 947 1747 
z
" transform="scale(0.015625)"/>
       <path id="DejaVuSans-63" d="M 3122 3366 
L 3122 2828 
Q 2878 2963 2633 3030 
Q 2388 3097 2138 3097 
Q 1578 3097 1268 2742 
Q 959 2388 959 1747 
Q 959 1106 1268 751 
Q 1578 397 2138 397 
Q 2388 397 2633 464 
Q 2878 531 3122 666 
L 3122 134 
Q 2881 22 2623 -34 
Q 2366 -91 2075 -91 
Q 1284 -91 818 406 
Q 353 903 353 1747 
Q 353 2603 823 3093 
Q 1294 3584 2113 3584 
Q 2378 3584 2631 3529 
Q 2884 3475 3122 3366 
z
" transform="scale(0.015625)"/>
      </defs>
      <use xlink:href="#DejaVuSans-50"/>
      <use xlink:href="#DejaVuSans-6f" x="56.677734"/>
      <use xlink:href="#DejaVuSans-73" x="117.859375"/>
      <use xlink:href="#DejaVuSans-69" x="169.958984"/>
      <use xlink:href="#DejaVuSans-74" x="197.742188"/>
      <use xlink:href="#DejaVuSans-69" x="236.951172"/>
      <use xlink:href="#DejaVuSans-76" x="264.734375"/>
      <use xlink:href="#DejaVuSans-65" x="323.914062"/>
      <use xlink:href="#DejaVuSans-20" x="385.4375"/>
      <use xlink:href="#DejaVuSans-70" x="417.224609"/>
      <use xlink:href="#DejaVuSans-72" x="480.701172"/>
      <use xlink:href="#DejaVuSans-65" x="519.564453"/>
      <use xlink:href="#DejaVuSans-64" x="581.087891"/>
      <use xlink:href="#DejaVuSans-69" x="644.564453"/>
      <use xlink:href="#DejaVuSans-63" x="672.347656"/>
      <use xlink:href="#DejaVuSans-74" x="727.328125"/>
      <use xlink:href="#DejaVuSans-69" x="766.537109"/>
      <use xlink:href="#DejaVuSans-6f" x="794.320312"/>
      <use xlink:href="#DejaVuSans-6e" x="855.501953"/>
      <use xlink:href="#DejaVuSans-73" x="918.880859"/>
     </g>
    </g>
    <g id="line2d_24">
     <path d="M 249.318437 234.291812 
L 259.318437 234.291812 
L 269.318437 234.291812 
" style="fill: none; stroke: #32cd32; stroke-opacity: 0.8; stroke-width: 0.5; stroke-linecap: square"/>
    </g>
    <g id="text_19">
     <!-- Positive predictions max -->
     <g transform="translate(277.318437 237.791812) scale(0.1 -0.1)">
      <defs>
       <path id="DejaVuSans-6d" d="M 3328 2828 
Q 3544 3216 3844 3400 
Q 4144 3584 4550 3584 
Q 5097 3584 5394 3201 
Q 5691 2819 5691 2113 
L 5691 0 
L 5113 0 
L 5113 2094 
Q 5113 2597 4934 2840 
Q 4756 3084 4391 3084 
Q 3944 3084 3684 2787 
Q 3425 2491 3425 1978 
L 3425 0 
L 2847 0 
L 2847 2094 
Q 2847 2600 2669 2842 
Q 2491 3084 2119 3084 
Q 1678 3084 1418 2786 
Q 1159 2488 1159 1978 
L 1159 0 
L 581 0 
L 581 3500 
L 1159 3500 
L 1159 2956 
Q 1356 3278 1631 3431 
Q 1906 3584 2284 3584 
Q 2666 3584 2933 3390 
Q 3200 3197 3328 2828 
z
" transform="scale(0.015625)"/>
      </defs>
      <use xlink:href="#DejaVuSans-50"/>
      <use xlink:href="#DejaVuSans-6f" x="56.677734"/>
      <use xlink:href="#DejaVuSans-73" x="117.859375"/>
      <use xlink:href="#DejaVuSans-69" x="169.958984"/>
      <use xlink:href="#DejaVuSans-74" x="197.742188"/>
      <use xlink:href="#DejaVuSans-69" x="236.951172"/>
      <use xlink:href="#DejaVuSans-76" x="264.734375"/>
      <use xlink:href="#DejaVuSans-65" x="323.914062"/>
      <use xlink:href="#DejaVuSans-20" x="385.4375"/>
      <use xlink:href="#DejaVuSans-70" x="417.224609"/>
      <use xlink:href="#DejaVuSans-72" x="480.701172"/>
      <use xlink:href="#DejaVuSans-65" x="519.564453"/>
      <use xlink:href="#DejaVuSans-64" x="581.087891"/>
      <use xlink:href="#DejaVuSans-69" x="644.564453"/>
      <use xlink:href="#DejaVuSans-63" x="672.347656"/>
      <use xlink:href="#DejaVuSans-74" x="727.328125"/>
      <use xlink:href="#DejaVuSans-69" x="766.537109"/>
      <use xlink:href="#DejaVuSans-6f" x="794.320312"/>
      <use xlink:href="#DejaVuSans-6e" x="855.501953"/>
      <use xlink:href="#DejaVuSans-73" x="918.880859"/>
      <use xlink:href="#DejaVuSans-20" x="970.980469"/>
      <use xlink:href="#DejaVuSans-6d" x="1002.767578"/>
      <use xlink:href="#DejaVuSans-61" x="1100.179688"/>
      <use xlink:href="#DejaVuSans-78" x="1161.458984"/>
     </g>
    </g>
    <g id="line2d_25">
     <path d="M 249.318437 248.969937 
L 259.318437 248.969937 
L 269.318437 248.969937 
" style="fill: none; stroke: #32cd32; stroke-opacity: 0.8; stroke-width: 0.5; stroke-linecap: square"/>
    </g>
    <g id="text_20">
     <!-- Positive predictions min -->
     <g transform="translate(277.318437 252.469937) scale(0.1 -0.1)">
      <use xlink:href="#DejaVuSans-50"/>
      <use xlink:href="#DejaVuSans-6f" x="56.677734"/>
      <use xlink:href="#DejaVuSans-73" x="117.859375"/>
      <use xlink:href="#DejaVuSans-69" x="169.958984"/>
      <use xlink:href="#DejaVuSans-74" x="197.742188"/>
      <use xlink:href="#DejaVuSans-69" x="236.951172"/>
      <use xlink:href="#DejaVuSans-76" x="264.734375"/>
      <use xlink:href="#DejaVuSans-65" x="323.914062"/>
      <use xlink:href="#DejaVuSans-20" x="385.4375"/>
      <use xlink:href="#DejaVuSans-70" x="417.224609"/>
      <use xlink:href="#DejaVuSans-72" x="480.701172"/>
      <use xlink:href="#DejaVuSans-65" x="519.564453"/>
      <use xlink:href="#DejaVuSans-64" x="581.087891"/>
      <use xlink:href="#DejaVuSans-69" x="644.564453"/>
      <use xlink:href="#DejaVuSans-63" x="672.347656"/>
      <use xlink:href="#DejaVuSans-74" x="727.328125"/>
      <use xlink:href="#DejaVuSans-69" x="766.537109"/>
      <use xlink:href="#DejaVuSans-6f" x="794.320312"/>
      <use xlink:href="#DejaVuSans-6e" x="855.501953"/>
      <use xlink:href="#DejaVuSans-73" x="918.880859"/>
      <use xlink:href="#DejaVuSans-20" x="970.980469"/>
      <use xlink:href="#DejaVuSans-6d" x="1002.767578"/>
      <use xlink:href="#DejaVuSans-69" x="1100.179688"/>
      <use xlink:href="#DejaVuSans-6e" x="1127.962891"/>
     </g>
    </g>
    <g id="line2d_26">
     <path d="M 249.318437 263.648062 
L 259.318437 263.648062 
L 269.318437 263.648062 
" style="fill: none; stroke: #ff0000; stroke-opacity: 0.8; stroke-width: 0.5; stroke-linecap: square"/>
    </g>
    <g id="text_21">
     <!-- Negative predictions -->
     <g transform="translate(277.318437 267.148062) scale(0.1 -0.1)">
      <defs>
       <path id="DejaVuSans-4e" d="M 628 4666 
L 1478 4666 
L 3547 763 
L 3547 4666 
L 4159 4666 
L 4159 0 
L 3309 0 
L 1241 3903 
L 1241 0 
L 628 0 
L 628 4666 
z
" transform="scale(0.015625)"/>
      </defs>
      <use xlink:href="#DejaVuSans-4e"/>
      <use xlink:href="#DejaVuSans-65" x="74.804688"/>
      <use xlink:href="#DejaVuSans-67" x="136.328125"/>
      <use xlink:href="#DejaVuSans-61" x="199.804688"/>
      <use xlink:href="#DejaVuSans-74" x="261.083984"/>
      <use xlink:href="#DejaVuSans-69" x="300.292969"/>
      <use xlink:href="#DejaVuSans-76" x="328.076172"/>
      <use xlink:href="#DejaVuSans-65" x="387.255859"/>
      <use xlink:href="#DejaVuSans-20" x="448.779297"/>
      <use xlink:href="#DejaVuSans-70" x="480.566406"/>
      <use xlink:href="#DejaVuSans-72" x="544.042969"/>
      <use xlink:href="#DejaVuSans-65" x="582.90625"/>
      <use xlink:href="#DejaVuSans-64" x="644.429688"/>
      <use xlink:href="#DejaVuSans-69" x="707.90625"/>
      <use xlink:href="#DejaVuSans-63" x="735.689453"/>
      <use xlink:href="#DejaVuSans-74" x="790.669922"/>
      <use xlink:href="#DejaVuSans-69" x="829.878906"/>
      <use xlink:href="#DejaVuSans-6f" x="857.662109"/>
      <use xlink:href="#DejaVuSans-6e" x="918.84375"/>
      <use xlink:href="#DejaVuSans-73" x="982.222656"/>
     </g>
    </g>
    <g id="line2d_27">
     <path d="M 249.318437 278.326188 
L 259.318437 278.326188 
L 269.318437 278.326188 
" style="fill: none; stroke: #f08080; stroke-opacity: 0.8; stroke-width: 0.5; stroke-linecap: square"/>
    </g>
    <g id="text_22">
     <!-- Negative predictions max -->
     <g transform="translate(277.318437 281.826188) scale(0.1 -0.1)">
      <use xlink:href="#DejaVuSans-4e"/>
      <use xlink:href="#DejaVuSans-65" x="74.804688"/>
      <use xlink:href="#DejaVuSans-67" x="136.328125"/>
      <use xlink:href="#DejaVuSans-61" x="199.804688"/>
      <use xlink:href="#DejaVuSans-74" x="261.083984"/>
      <use xlink:href="#DejaVuSans-69" x="300.292969"/>
      <use xlink:href="#DejaVuSans-76" x="328.076172"/>
      <use xlink:href="#DejaVuSans-65" x="387.255859"/>
      <use xlink:href="#DejaVuSans-20" x="448.779297"/>
      <use xlink:href="#DejaVuSans-70" x="480.566406"/>
      <use xlink:href="#DejaVuSans-72" x="544.042969"/>
      <use xlink:href="#DejaVuSans-65" x="582.90625"/>
      <use xlink:href="#DejaVuSans-64" x="644.429688"/>
      <use xlink:href="#DejaVuSans-69" x="707.90625"/>
      <use xlink:href="#DejaVuSans-63" x="735.689453"/>
      <use xlink:href="#DejaVuSans-74" x="790.669922"/>
      <use xlink:href="#DejaVuSans-69" x="829.878906"/>
      <use xlink:href="#DejaVuSans-6f" x="857.662109"/>
      <use xlink:href="#DejaVuSans-6e" x="918.84375"/>
      <use xlink:href="#DejaVuSans-73" x="982.222656"/>
      <use xlink:href="#DejaVuSans-20" x="1034.322266"/>
      <use xlink:href="#DejaVuSans-6d" x="1066.109375"/>
      <use xlink:href="#DejaVuSans-61" x="1163.521484"/>
      <use xlink:href="#DejaVuSans-78" x="1224.800781"/>
     </g>
    </g>
    <g id="line2d_28">
     <path d="M 249.318437 293.004312 
L 259.318437 293.004312 
L 269.318437 293.004312 
" style="fill: none; stroke: #f08080; stroke-opacity: 0.8; stroke-width: 0.5; stroke-linecap: square"/>
    </g>
    <g id="text_23">
     <!-- Negative predictions min -->
     <g transform="translate(277.318437 296.504312) scale(0.1 -0.1)">
      <use xlink:href="#DejaVuSans-4e"/>
      <use xlink:href="#DejaVuSans-65" x="74.804688"/>
      <use xlink:href="#DejaVuSans-67" x="136.328125"/>
      <use xlink:href="#DejaVuSans-61" x="199.804688"/>
      <use xlink:href="#DejaVuSans-74" x="261.083984"/>
      <use xlink:href="#DejaVuSans-69" x="300.292969"/>
      <use xlink:href="#DejaVuSans-76" x="328.076172"/>
      <use xlink:href="#DejaVuSans-65" x="387.255859"/>
      <use xlink:href="#DejaVuSans-20" x="448.779297"/>
      <use xlink:href="#DejaVuSans-70" x="480.566406"/>
      <use xlink:href="#DejaVuSans-72" x="544.042969"/>
      <use xlink:href="#DejaVuSans-65" x="582.90625"/>
      <use xlink:href="#DejaVuSans-64" x="644.429688"/>
      <use xlink:href="#DejaVuSans-69" x="707.90625"/>
      <use xlink:href="#DejaVuSans-63" x="735.689453"/>
      <use xlink:href="#DejaVuSans-74" x="790.669922"/>
      <use xlink:href="#DejaVuSans-69" x="829.878906"/>
      <use xlink:href="#DejaVuSans-6f" x="857.662109"/>
      <use xlink:href="#DejaVuSans-6e" x="918.84375"/>
      <use xlink:href="#DejaVuSans-73" x="982.222656"/>
      <use xlink:href="#DejaVuSans-20" x="1034.322266"/>
      <use xlink:href="#DejaVuSans-6d" x="1066.109375"/>
      <use xlink:href="#DejaVuSans-69" x="1163.521484"/>
      <use xlink:href="#DejaVuSans-6e" x="1191.304688"/>
     </g>
    </g>
   </g>
  </g>
 </g>
 <defs>
  <clipPath id="p9c57cea036">
   <rect x="57.6" y="41.472" width="357.12" height="266.112"/>
  </clipPath>
 </defs>
</svg>
