<?xml version="1.0" encoding="utf-8" standalone="no"?>
<!DOCTYPE svg PUBLIC "-//W3C//DTD SVG 1.1//EN"
  "http://www.w3.org/Graphics/SVG/1.1/DTD/svg11.dtd">
<svg xmlns:xlink="http://www.w3.org/1999/xlink" width="460.8pt" height="345.6pt" viewBox="0 0 460.8 345.6" xmlns="http://www.w3.org/2000/svg" version="1.1">
 <metadata>
  <rdf:RDF xmlns:dc="http://purl.org/dc/elements/1.1/" xmlns:cc="http://creativecommons.org/ns#" xmlns:rdf="http://www.w3.org/1999/02/22-rdf-syntax-ns#">
   <cc:Work>
    <dc:type rdf:resource="http://purl.org/dc/dcmitype/StillImage"/>
    <dc:date>2024-09-08T12:14:36.472638</dc:date>
    <dc:format>image/svg+xml</dc:format>
    <dc:creator>
     <cc:Agent>
      <dc:title>Matplotlib v3.8.3, https://matplotlib.org/</dc:title>
     </cc:Agent>
    </dc:creator>
   </cc:Work>
  </rdf:RDF>
 </metadata>
 <defs>
  <style type="text/css">*{stroke-linejoin: round; stroke-linecap: butt}</style>
 </defs>
 <g id="figure_1">
  <g id="patch_1">
   <path d="M 0 345.6 
L 460.8 345.6 
L 460.8 0 
L 0 0 
z
" style="fill: #ffffff"/>
  </g>
  <g id="axes_1">
   <g id="patch_2">
    <path d="M 57.6 307.584 
L 414.72 307.584 
L 414.72 41.472 
L 57.6 41.472 
z
" style="fill: #ffffff"/>
   </g>
   <g id="matplotlib.axis_1">
    <g id="xtick_1">
     <g id="line2d_1">
      <defs>
       <path id="me6279ae58c" d="M 0 0 
L 0 3.5 
" style="stroke: #000000; stroke-width: 0.8"/>
      </defs>
      <g>
       <use xlink:href="#me6279ae58c" x="73.832727" y="307.584" style="stroke: #000000; stroke-width: 0.8"/>
      </g>
     </g>
     <g id="text_1">
      <!-- 0 -->
      <g transform="translate(70.651477 322.182437) scale(0.1 -0.1)">
       <defs>
        <path id="DejaVuSans-30" d="M 2034 4250 
Q 1547 4250 1301 3770 
Q 1056 3291 1056 2328 
Q 1056 1369 1301 889 
Q 1547 409 2034 409 
Q 2525 409 2770 889 
Q 3016 1369 3016 2328 
Q 3016 3291 2770 3770 
Q 2525 4250 2034 4250 
z
M 2034 4750 
Q 2819 4750 3233 4129 
Q 3647 3509 3647 2328 
Q 3647 1150 3233 529 
Q 2819 -91 2034 -91 
Q 1250 -91 836 529 
Q 422 1150 422 2328 
Q 422 3509 836 4129 
Q 1250 4750 2034 4750 
z
" transform="scale(0.015625)"/>
       </defs>
       <use xlink:href="#DejaVuSans-30"/>
      </g>
     </g>
    </g>
    <g id="xtick_2">
     <g id="line2d_2">
      <g>
       <use xlink:href="#me6279ae58c" x="116.18818" y="307.584" style="stroke: #000000; stroke-width: 0.8"/>
      </g>
     </g>
     <g id="text_2">
      <!-- 200 -->
      <g transform="translate(106.64443 322.182437) scale(0.1 -0.1)">
       <defs>
        <path id="DejaVuSans-32" d="M 1228 531 
L 3431 531 
L 3431 0 
L 469 0 
L 469 531 
Q 828 903 1448 1529 
Q 2069 2156 2228 2338 
Q 2531 2678 2651 2914 
Q 2772 3150 2772 3378 
Q 2772 3750 2511 3984 
Q 2250 4219 1831 4219 
Q 1534 4219 1204 4116 
Q 875 4013 500 3803 
L 500 4441 
Q 881 4594 1212 4672 
Q 1544 4750 1819 4750 
Q 2544 4750 2975 4387 
Q 3406 4025 3406 3419 
Q 3406 3131 3298 2873 
Q 3191 2616 2906 2266 
Q 2828 2175 2409 1742 
Q 1991 1309 1228 531 
z
" transform="scale(0.015625)"/>
       </defs>
       <use xlink:href="#DejaVuSans-32"/>
       <use xlink:href="#DejaVuSans-30" x="63.623047"/>
       <use xlink:href="#DejaVuSans-30" x="127.246094"/>
      </g>
     </g>
    </g>
    <g id="xtick_3">
     <g id="line2d_3">
      <g>
       <use xlink:href="#me6279ae58c" x="158.543633" y="307.584" style="stroke: #000000; stroke-width: 0.8"/>
      </g>
     </g>
     <g id="text_3">
      <!-- 400 -->
      <g transform="translate(148.999883 322.182437) scale(0.1 -0.1)">
       <defs>
        <path id="DejaVuSans-34" d="M 2419 4116 
L 825 1625 
L 2419 1625 
L 2419 4116 
z
M 2253 4666 
L 3047 4666 
L 3047 1625 
L 3713 1625 
L 3713 1100 
L 3047 1100 
L 3047 0 
L 2419 0 
L 2419 1100 
L 313 1100 
L 313 1709 
L 2253 4666 
z
" transform="scale(0.015625)"/>
       </defs>
       <use xlink:href="#DejaVuSans-34"/>
       <use xlink:href="#DejaVuSans-30" x="63.623047"/>
       <use xlink:href="#DejaVuSans-30" x="127.246094"/>
      </g>
     </g>
    </g>
    <g id="xtick_4">
     <g id="line2d_4">
      <g>
       <use xlink:href="#me6279ae58c" x="200.899086" y="307.584" style="stroke: #000000; stroke-width: 0.8"/>
      </g>
     </g>
     <g id="text_4">
      <!-- 600 -->
      <g transform="translate(191.355336 322.182437) scale(0.1 -0.1)">
       <defs>
        <path id="DejaVuSans-36" d="M 2113 2584 
Q 1688 2584 1439 2293 
Q 1191 2003 1191 1497 
Q 1191 994 1439 701 
Q 1688 409 2113 409 
Q 2538 409 2786 701 
Q 3034 994 3034 1497 
Q 3034 2003 2786 2293 
Q 2538 2584 2113 2584 
z
M 3366 4563 
L 3366 3988 
Q 3128 4100 2886 4159 
Q 2644 4219 2406 4219 
Q 1781 4219 1451 3797 
Q 1122 3375 1075 2522 
Q 1259 2794 1537 2939 
Q 1816 3084 2150 3084 
Q 2853 3084 3261 2657 
Q 3669 2231 3669 1497 
Q 3669 778 3244 343 
Q 2819 -91 2113 -91 
Q 1303 -91 875 529 
Q 447 1150 447 2328 
Q 447 3434 972 4092 
Q 1497 4750 2381 4750 
Q 2619 4750 2861 4703 
Q 3103 4656 3366 4563 
z
" transform="scale(0.015625)"/>
       </defs>
       <use xlink:href="#DejaVuSans-36"/>
       <use xlink:href="#DejaVuSans-30" x="63.623047"/>
       <use xlink:href="#DejaVuSans-30" x="127.246094"/>
      </g>
     </g>
    </g>
    <g id="xtick_5">
     <g id="line2d_5">
      <g>
       <use xlink:href="#me6279ae58c" x="243.254538" y="307.584" style="stroke: #000000; stroke-width: 0.8"/>
      </g>
     </g>
     <g id="text_5">
      <!-- 800 -->
      <g transform="translate(233.710788 322.182437) scale(0.1 -0.1)">
       <defs>
        <path id="DejaVuSans-38" d="M 2034 2216 
Q 1584 2216 1326 1975 
Q 1069 1734 1069 1313 
Q 1069 891 1326 650 
Q 1584 409 2034 409 
Q 2484 409 2743 651 
Q 3003 894 3003 1313 
Q 3003 1734 2745 1975 
Q 2488 2216 2034 2216 
z
M 1403 2484 
Q 997 2584 770 2862 
Q 544 3141 544 3541 
Q 544 4100 942 4425 
Q 1341 4750 2034 4750 
Q 2731 4750 3128 4425 
Q 3525 4100 3525 3541 
Q 3525 3141 3298 2862 
Q 3072 2584 2669 2484 
Q 3125 2378 3379 2068 
Q 3634 1759 3634 1313 
Q 3634 634 3220 271 
Q 2806 -91 2034 -91 
Q 1263 -91 848 271 
Q 434 634 434 1313 
Q 434 1759 690 2068 
Q 947 2378 1403 2484 
z
M 1172 3481 
Q 1172 3119 1398 2916 
Q 1625 2713 2034 2713 
Q 2441 2713 2670 2916 
Q 2900 3119 2900 3481 
Q 2900 3844 2670 4047 
Q 2441 4250 2034 4250 
Q 1625 4250 1398 4047 
Q 1172 3844 1172 3481 
z
" transform="scale(0.015625)"/>
       </defs>
       <use xlink:href="#DejaVuSans-38"/>
       <use xlink:href="#DejaVuSans-30" x="63.623047"/>
       <use xlink:href="#DejaVuSans-30" x="127.246094"/>
      </g>
     </g>
    </g>
    <g id="xtick_6">
     <g id="line2d_6">
      <g>
       <use xlink:href="#me6279ae58c" x="285.609991" y="307.584" style="stroke: #000000; stroke-width: 0.8"/>
      </g>
     </g>
     <g id="text_6">
      <!-- 1000 -->
      <g transform="translate(272.884991 322.182437) scale(0.1 -0.1)">
       <defs>
        <path id="DejaVuSans-31" d="M 794 531 
L 1825 531 
L 1825 4091 
L 703 3866 
L 703 4441 
L 1819 4666 
L 2450 4666 
L 2450 531 
L 3481 531 
L 3481 0 
L 794 0 
L 794 531 
z
" transform="scale(0.015625)"/>
       </defs>
       <use xlink:href="#DejaVuSans-31"/>
       <use xlink:href="#DejaVuSans-30" x="63.623047"/>
       <use xlink:href="#DejaVuSans-30" x="127.246094"/>
       <use xlink:href="#DejaVuSans-30" x="190.869141"/>
      </g>
     </g>
    </g>
    <g id="xtick_7">
     <g id="line2d_7">
      <g>
       <use xlink:href="#me6279ae58c" x="327.965444" y="307.584" style="stroke: #000000; stroke-width: 0.8"/>
      </g>
     </g>
     <g id="text_7">
      <!-- 1200 -->
      <g transform="translate(315.240444 322.182437) scale(0.1 -0.1)">
       <use xlink:href="#DejaVuSans-31"/>
       <use xlink:href="#DejaVuSans-32" x="63.623047"/>
       <use xlink:href="#DejaVuSans-30" x="127.246094"/>
       <use xlink:href="#DejaVuSans-30" x="190.869141"/>
      </g>
     </g>
    </g>
    <g id="xtick_8">
     <g id="line2d_8">
      <g>
       <use xlink:href="#me6279ae58c" x="370.320897" y="307.584" style="stroke: #000000; stroke-width: 0.8"/>
      </g>
     </g>
     <g id="text_8">
      <!-- 1400 -->
      <g transform="translate(357.595897 322.182437) scale(0.1 -0.1)">
       <use xlink:href="#DejaVuSans-31"/>
       <use xlink:href="#DejaVuSans-34" x="63.623047"/>
       <use xlink:href="#DejaVuSans-30" x="127.246094"/>
       <use xlink:href="#DejaVuSans-30" x="190.869141"/>
      </g>
     </g>
    </g>
    <g id="xtick_9">
     <g id="line2d_9">
      <g>
       <use xlink:href="#me6279ae58c" x="412.676349" y="307.584" style="stroke: #000000; stroke-width: 0.8"/>
      </g>
     </g>
     <g id="text_9">
      <!-- 1600 -->
      <g transform="translate(399.951349 322.182437) scale(0.1 -0.1)">
       <use xlink:href="#DejaVuSans-31"/>
       <use xlink:href="#DejaVuSans-36" x="63.623047"/>
       <use xlink:href="#DejaVuSans-30" x="127.246094"/>
       <use xlink:href="#DejaVuSans-30" x="190.869141"/>
      </g>
     </g>
    </g>
   </g>
   <g id="matplotlib.axis_2">
    <g id="ytick_1">
     <g id="line2d_10">
      <defs>
       <path id="mf4d3e1a4b3" d="M 0 0 
L -3.5 0 
" style="stroke: #000000; stroke-width: 0.8"/>
      </defs>
      <g>
       <use xlink:href="#mf4d3e1a4b3" x="57.6" y="305.602146" style="stroke: #000000; stroke-width: 0.8"/>
      </g>
     </g>
     <g id="text_10">
      <!-- −4 -->
      <g transform="translate(35.857813 309.401364) scale(0.1 -0.1)">
       <defs>
        <path id="DejaVuSans-2212" d="M 678 2272 
L 4684 2272 
L 4684 1741 
L 678 1741 
L 678 2272 
z
" transform="scale(0.015625)"/>
       </defs>
       <use xlink:href="#DejaVuSans-2212"/>
       <use xlink:href="#DejaVuSans-34" x="83.789062"/>
      </g>
     </g>
    </g>
    <g id="ytick_2">
     <g id="line2d_11">
      <g>
       <use xlink:href="#mf4d3e1a4b3" x="57.6" y="273.071372" style="stroke: #000000; stroke-width: 0.8"/>
      </g>
     </g>
     <g id="text_11">
      <!-- −3 -->
      <g transform="translate(35.857813 276.870591) scale(0.1 -0.1)">
       <defs>
        <path id="DejaVuSans-33" d="M 2597 2516 
Q 3050 2419 3304 2112 
Q 3559 1806 3559 1356 
Q 3559 666 3084 287 
Q 2609 -91 1734 -91 
Q 1441 -91 1130 -33 
Q 819 25 488 141 
L 488 750 
Q 750 597 1062 519 
Q 1375 441 1716 441 
Q 2309 441 2620 675 
Q 2931 909 2931 1356 
Q 2931 1769 2642 2001 
Q 2353 2234 1838 2234 
L 1294 2234 
L 1294 2753 
L 1863 2753 
Q 2328 2753 2575 2939 
Q 2822 3125 2822 3475 
Q 2822 3834 2567 4026 
Q 2313 4219 1838 4219 
Q 1578 4219 1281 4162 
Q 984 4106 628 3988 
L 628 4550 
Q 988 4650 1302 4700 
Q 1616 4750 1894 4750 
Q 2613 4750 3031 4423 
Q 3450 4097 3450 3541 
Q 3450 3153 3228 2886 
Q 3006 2619 2597 2516 
z
" transform="scale(0.015625)"/>
       </defs>
       <use xlink:href="#DejaVuSans-2212"/>
       <use xlink:href="#DejaVuSans-33" x="83.789062"/>
      </g>
     </g>
    </g>
    <g id="ytick_3">
     <g id="line2d_12">
      <g>
       <use xlink:href="#mf4d3e1a4b3" x="57.6" y="240.540598" style="stroke: #000000; stroke-width: 0.8"/>
      </g>
     </g>
     <g id="text_12">
      <!-- −2 -->
      <g transform="translate(35.857813 244.339817) scale(0.1 -0.1)">
       <use xlink:href="#DejaVuSans-2212"/>
       <use xlink:href="#DejaVuSans-32" x="83.789062"/>
      </g>
     </g>
    </g>
    <g id="ytick_4">
     <g id="line2d_13">
      <g>
       <use xlink:href="#mf4d3e1a4b3" x="57.6" y="208.009824" style="stroke: #000000; stroke-width: 0.8"/>
      </g>
     </g>
     <g id="text_13">
      <!-- −1 -->
      <g transform="translate(35.857813 211.809043) scale(0.1 -0.1)">
       <use xlink:href="#DejaVuSans-2212"/>
       <use xlink:href="#DejaVuSans-31" x="83.789062"/>
      </g>
     </g>
    </g>
    <g id="ytick_5">
     <g id="line2d_14">
      <g>
       <use xlink:href="#mf4d3e1a4b3" x="57.6" y="175.479051" style="stroke: #000000; stroke-width: 0.8"/>
      </g>
     </g>
     <g id="text_14">
      <!-- 0 -->
      <g transform="translate(44.2375 179.27827) scale(0.1 -0.1)">
       <use xlink:href="#DejaVuSans-30"/>
      </g>
     </g>
    </g>
    <g id="ytick_6">
     <g id="line2d_15">
      <g>
       <use xlink:href="#mf4d3e1a4b3" x="57.6" y="142.948277" style="stroke: #000000; stroke-width: 0.8"/>
      </g>
     </g>
     <g id="text_15">
      <!-- 1 -->
      <g transform="translate(44.2375 146.747496) scale(0.1 -0.1)">
       <use xlink:href="#DejaVuSans-31"/>
      </g>
     </g>
    </g>
    <g id="ytick_7">
     <g id="line2d_16">
      <g>
       <use xlink:href="#mf4d3e1a4b3" x="57.6" y="110.417503" style="stroke: #000000; stroke-width: 0.8"/>
      </g>
     </g>
     <g id="text_16">
      <!-- 2 -->
      <g transform="translate(44.2375 114.216722) scale(0.1 -0.1)">
       <use xlink:href="#DejaVuSans-32"/>
      </g>
     </g>
    </g>
    <g id="ytick_8">
     <g id="line2d_17">
      <g>
       <use xlink:href="#mf4d3e1a4b3" x="57.6" y="77.88673" style="stroke: #000000; stroke-width: 0.8"/>
      </g>
     </g>
     <g id="text_17">
      <!-- 3 -->
      <g transform="translate(44.2375 81.685948) scale(0.1 -0.1)">
       <use xlink:href="#DejaVuSans-33"/>
      </g>
     </g>
    </g>
    <g id="ytick_9">
     <g id="line2d_18">
      <g>
       <use xlink:href="#mf4d3e1a4b3" x="57.6" y="45.355956" style="stroke: #000000; stroke-width: 0.8"/>
      </g>
     </g>
     <g id="text_18">
      <!-- 4 -->
      <g transform="translate(44.2375 49.155175) scale(0.1 -0.1)">
       <use xlink:href="#DejaVuSans-34"/>
      </g>
     </g>
    </g>
   </g>
   <g id="line2d_19">
    <path d="M 73.832727 175.46438 
L 74.256282 175.854679 
L 74.468059 176.18212 
L 74.679836 176.280166 
L 74.891614 176.034532 
L 75.315168 175.854053 
L 75.526945 175.753067 
L 75.738723 175.906893 
L 75.9505 175.873439 
L 76.162277 176.031765 
L 76.585832 175.729329 
L 77.009386 176.301636 
L 77.221163 176.41541 
L 77.432941 176.689178 
L 77.644718 176.746721 
L 77.856495 176.42846 
L 78.28005 176.635083 
L 78.491827 176.923911 
L 78.703604 176.919383 
L 78.915382 176.758643 
L 79.127159 176.806619 
L 79.338936 177.030443 
L 79.550713 176.804177 
L 79.762491 177.193656 
L 79.974268 177.142121 
L 80.186045 177.305943 
L 80.397822 177.707386 
L 81.033154 177.411316 
L 81.244932 177.487329 
L 81.668486 177.405802 
L 82.303818 177.479091 
L 82.727372 177.867301 
L 82.93915 177.921876 
L 83.150927 177.831588 
L 83.362704 177.870855 
L 83.574481 178.112015 
L 84.209813 177.989987 
L 84.633368 177.588992 
L 84.845145 177.736928 
L 85.2687 177.504249 
L 85.480477 177.656441 
L 85.692254 177.618742 
L 85.904031 177.428028 
L 86.115809 177.406997 
L 86.327586 177.657531 
L 87.174695 177.569372 
L 87.598249 178.047736 
L 87.810027 178.048893 
L 88.021804 177.787484 
L 88.445358 177.890789 
L 88.657136 177.898032 
L 89.08069 178.18537 
L 89.292468 177.973452 
L 89.716022 178.034963 
L 90.139577 177.760756 
L 90.563131 178.568139 
L 90.774908 178.585509 
L 91.198463 178.993817 
L 91.622017 179.432378 
L 92.045572 179.540132 
L 92.257349 179.480581 
L 92.469126 179.713842 
L 92.680904 178.988261 
L 93.104458 179.557657 
L 93.528013 179.603435 
L 93.951567 180.108975 
L 94.163345 180.342363 
L 94.798676 180.051224 
L 95.010454 180.44178 
L 95.222231 180.412903 
L 95.434008 180.633925 
L 95.645785 180.647155 
L 96.06934 181.058758 
L 96.281117 181.162864 
L 96.916449 180.980439 
L 97.128226 181.038579 
L 97.340004 181.270356 
L 97.551781 181.205964 
L 97.763558 181.286981 
L 98.187113 181.817792 
L 98.39889 181.729145 
L 98.822444 182.271832 
L 99.034222 181.989987 
L 99.669553 182.272567 
L 99.881331 182.251776 
L 100.093108 182.010801 
L 100.304885 181.97662 
L 100.516663 182.090183 
L 100.940217 182.455758 
L 101.151994 182.281025 
L 101.363772 181.958914 
L 101.575549 182.097672 
L 101.787326 182.038675 
L 102.210881 182.359125 
L 102.846212 183.285192 
L 103.05799 183.389716 
L 103.269767 183.3237 
L 103.693321 184.001597 
L 104.116876 184.293552 
L 104.963985 184.263045 
L 105.175762 184.581577 
L 105.38754 184.611321 
L 105.599317 184.479975 
L 106.022871 184.788205 
L 106.446426 185.271858 
L 106.658203 185.163736 
L 107.081758 185.525642 
L 107.293535 185.570198 
L 107.505312 186.01527 
L 107.928867 186.086157 
L 108.352421 186.292417 
L 108.564199 185.99349 
L 109.411308 185.944882 
L 109.834862 186.350145 
L 110.046639 186.391031 
L 110.681971 186.990352 
L 110.893748 186.854924 
L 111.105526 187.023302 
L 111.317303 187.036992 
L 111.52908 186.818757 
L 111.740857 186.762832 
L 111.952635 187.00783 
L 112.164412 186.901827 
L 112.376189 186.986611 
L 112.587967 186.767573 
L 112.799744 186.765135 
L 113.011521 186.895781 
L 113.646853 186.869731 
L 113.85863 187.211455 
L 114.282185 187.311956 
L 114.705739 187.474895 
L 115.341071 187.02313 
L 115.552848 187.389236 
L 115.976403 187.560686 
L 116.399957 188.205849 
L 116.611735 188.028554 
L 117.035289 188.339457 
L 117.247066 188.23574 
L 117.670621 188.240059 
L 118.094175 188.735603 
L 118.305953 188.592837 
L 118.51773 188.750148 
L 118.941284 188.820831 
L 119.576616 189.086525 
L 119.788394 189.049115 
L 120.000171 189.279858 
L 120.211948 189.310945 
L 120.423725 189.216989 
L 120.84728 189.628389 
L 121.270834 190.037577 
L 121.482612 189.804628 
L 121.906166 190.179392 
L 122.117943 190.101957 
L 122.329721 190.44865 
L 122.541498 190.579986 
L 122.753275 190.873944 
L 122.965052 190.909208 
L 123.17683 190.548673 
L 123.812162 191.396371 
L 124.023939 191.428718 
L 124.235716 191.854403 
L 124.659271 191.841528 
L 124.871048 192.016177 
L 125.294602 192.111075 
L 126.353489 192.790625 
L 126.565266 192.626527 
L 126.777043 193.013075 
L 127.412375 193.41433 
L 127.624152 193.267622 
L 128.047707 193.353256 
L 129.106593 193.111644 
L 129.31837 193.354418 
L 129.530148 193.189878 
L 129.953702 193.477849 
L 131.224366 194.123281 
L 131.436143 194.235527 
L 131.859698 194.201279 
L 132.071475 194.243684 
L 132.495029 194.090551 
L 132.706807 194.191225 
L 132.918584 193.845383 
L 133.765693 194.581068 
L 133.97747 194.545714 
L 134.612802 194.824238 
L 134.824579 195.106497 
L 135.248134 194.749096 
L 135.459911 194.892173 
L 135.883466 194.783241 
L 136.730575 195.002086 
L 136.942352 195.216565 
L 137.365906 195.279641 
L 137.789461 195.549351 
L 139.060125 195.825736 
L 139.271902 195.70946 
L 139.695456 195.899394 
L 139.907234 195.861613 
L 140.119011 195.694084 
L 140.542565 195.802239 
L 140.96612 196.145926 
L 142.025006 196.190382 
L 142.872115 196.400476 
L 143.507447 196.317895 
L 144.142779 196.386886 
L 144.566333 196.653673 
L 145.413442 196.704892 
L 146.048774 197.325335 
L 146.260552 197.301294 
L 147.107661 197.960598 
L 147.742992 197.799611 
L 148.378324 198.096348 
L 149.013656 198.855054 
L 149.43721 198.859622 
L 149.860765 198.898426 
L 150.072542 198.697953 
L 150.707874 198.778195 
L 150.919651 198.594852 
L 151.343206 198.722887 
L 151.554983 198.954207 
L 151.76676 198.998142 
L 151.978538 199.157741 
L 152.190315 199.166753 
L 152.402092 199.042385 
L 152.825647 199.325545 
L 153.460978 198.97422 
L 154.308088 199.084227 
L 154.519865 199.209714 
L 154.731642 198.987875 
L 155.155197 199.275116 
L 155.366974 199.774471 
L 155.790528 199.798149 
L 156.214083 199.964669 
L 156.42586 200.055853 
L 157.272969 199.778393 
L 157.484746 199.767791 
L 157.908301 199.911313 
L 158.120078 199.948033 
L 158.331856 200.169196 
L 158.75541 200.062419 
L 159.178965 200.064796 
L 159.390742 199.858201 
L 159.814296 199.908581 
L 160.026074 200.169371 
L 160.449628 200.188509 
L 160.873183 200.411081 
L 161.08496 200.37227 
L 161.508514 200.720835 
L 161.720292 200.54406 
L 161.932069 200.840898 
L 162.143846 200.717679 
L 162.355624 200.852734 
L 162.779178 200.775501 
L 162.990955 200.937113 
L 163.41451 200.732834 
L 163.626287 200.873546 
L 163.838064 200.779849 
L 164.261619 201.077586 
L 164.896951 201.173769 
L 165.108728 201.152836 
L 165.532283 201.426137 
L 167.438278 202.293103 
L 167.861832 202.282386 
L 168.920719 202.826759 
L 169.767828 202.643447 
L 171.038491 203.213382 
L 171.462046 203.360636 
L 171.8856 203.32083 
L 172.309155 203.210809 
L 173.791596 203.756445 
L 174.003373 203.848387 
L 174.21515 203.755825 
L 174.638705 204.021272 
L 175.062259 204.447017 
L 175.274037 204.292002 
L 175.697591 204.489954 
L 175.909368 204.422296 
L 176.121146 204.504112 
L 176.332923 204.425498 
L 177.180032 204.714801 
L 177.603587 205.193646 
L 178.027141 205.384211 
L 178.238918 205.289879 
L 178.450696 205.370058 
L 178.662473 205.605188 
L 179.086027 205.486579 
L 179.933136 205.881215 
L 180.144914 206.043086 
L 180.992023 205.913427 
L 181.2038 205.999918 
L 181.627355 205.856457 
L 182.262686 205.962955 
L 182.474464 206.046464 
L 182.686241 206.258023 
L 183.956904 206.052633 
L 184.380459 206.093518 
L 184.804014 206.100873 
L 185.015791 206.172268 
L 185.227568 206.105669 
L 186.498232 206.851155 
L 187.133563 207.833168 
L 187.345341 208.032559 
L 187.557118 207.951086 
L 187.768895 208.304603 
L 187.980672 208.909485 
L 188.19245 208.97954 
L 188.827782 208.425345 
L 189.039559 208.376787 
L 189.251336 208.447589 
L 189.463113 208.028411 
L 189.674891 207.944428 
L 189.886668 207.038172 
L 190.098445 207.232343 
L 191.157331 209.164413 
L 191.369109 208.8604 
L 191.580886 208.90186 
L 192.216218 208.424587 
L 192.427995 208.517588 
L 192.639772 208.849916 
L 193.063327 209.181043 
L 193.698659 209.720707 
L 194.122213 209.527232 
L 194.545768 209.787592 
L 194.969322 209.752766 
L 195.181099 209.745108 
L 195.392877 210.028869 
L 195.816431 210.235659 
L 196.451763 210.790144 
L 197.087095 210.483692 
L 197.510649 210.777453 
L 197.722427 210.706499 
L 198.145981 210.892042 
L 198.357758 210.874459 
L 198.569536 211.047549 
L 198.99309 211.559301 
L 199.204867 211.819774 
L 199.840199 211.839604 
L 200.263754 212.368422 
L 200.687308 212.852775 
L 200.899086 212.931713 
L 201.534417 213.842462 
L 201.957972 213.89256 
L 202.381526 214.219138 
L 202.593304 214.062706 
L 202.805081 214.049291 
L 203.016858 214.44313 
L 203.440413 214.306373 
L 203.863967 214.29208 
L 204.287522 214.967825 
L 204.711076 214.807053 
L 205.134631 214.895372 
L 205.98174 215.194073 
L 206.193517 215.428332 
L 206.405294 215.34606 
L 206.617072 215.591625 
L 206.828849 215.489422 
L 207.252403 215.784554 
L 207.675958 216.172719 
L 207.887735 216.171473 
L 209.158399 217.615152 
L 209.370176 218.095253 
L 209.581953 218.032294 
L 210.005508 218.726187 
L 210.217285 218.544261 
L 210.429062 218.582334 
L 211.064394 219.228678 
L 211.276171 219.026893 
L 211.487949 218.998149 
L 211.699726 219.121672 
L 212.123281 219.633699 
L 212.758612 220.399755 
L 212.97039 220.172945 
L 213.182167 220.401487 
L 213.393944 220.281726 
L 213.605721 220.403897 
L 214.029276 220.815955 
L 214.241053 220.866204 
L 214.45283 221.326545 
L 214.876385 221.577689 
L 215.088162 221.385509 
L 216.147049 221.747761 
L 216.994158 222.067448 
L 217.205935 221.960538 
L 217.417712 222.182787 
L 217.629489 222.215162 
L 218.264821 221.70746 
L 218.476598 221.857941 
L 218.688376 221.804301 
L 219.323708 222.29019 
L 219.959039 222.657743 
L 220.170817 222.54044 
L 221.017926 222.970086 
L 221.229703 222.718197 
L 221.653257 222.812955 
L 221.865035 222.903716 
L 222.500366 223.55824 
L 222.712144 223.469535 
L 222.923921 223.630593 
L 223.347476 223.581539 
L 223.559253 223.616934 
L 223.77103 223.436981 
L 223.982807 223.429588 
L 224.194585 223.543677 
L 224.406362 223.955313 
L 224.618139 223.932518 
L 225.041694 224.452992 
L 225.253471 224.280184 
L 225.888803 224.384555 
L 226.10058 224.616857 
L 226.524134 224.724708 
L 226.947689 224.727428 
L 227.583021 224.932021 
L 228.43013 225.469407 
L 228.853684 226.294935 
L 229.065462 226.521575 
L 229.912571 226.782257 
L 230.124348 227.108737 
L 230.547903 227.34932 
L 230.75968 227.471554 
L 231.183234 228.05041 
L 231.395012 228.037887 
L 231.606789 228.254365 
L 231.818566 228.235375 
L 232.665675 228.879258 
L 233.08923 229.392058 
L 233.301007 229.031489 
L 233.512784 229.392561 
L 233.724561 229.528642 
L 234.148116 230.08658 
L 234.783448 229.900342 
L 234.995225 230.195403 
L 235.207002 230.17177 
L 235.41878 230.271416 
L 235.630557 230.127433 
L 235.842334 230.294649 
L 236.054111 230.623425 
L 236.265889 230.672624 
L 236.689443 230.956872 
L 236.90122 230.923607 
L 237.112998 231.004226 
L 237.324775 230.814919 
L 237.748329 231.047696 
L 238.171884 230.889956 
L 238.383661 231.00649 
L 238.595439 230.843404 
L 238.807216 231.220341 
L 239.018993 231.355135 
L 239.442548 231.789443 
L 240.289657 232.036266 
L 240.501434 231.944595 
L 241.136766 232.579926 
L 241.348543 232.574764 
L 241.772097 232.747512 
L 242.195652 232.537833 
L 242.407429 232.748075 
L 242.619207 232.704464 
L 243.042761 232.483797 
L 243.254538 232.327616 
L 243.88987 233.045986 
L 244.525202 233.147427 
L 244.736979 233.500987 
L 245.160534 233.31146 
L 245.372311 233.537955 
L 245.584088 233.317406 
L 246.21942 233.41486 
L 246.431197 233.469329 
L 246.642975 233.390729 
L 246.854752 233.491768 
L 247.066529 233.764109 
L 247.278306 233.788579 
L 247.701861 234.265398 
L 247.913638 234.288678 
L 248.125415 234.446417 
L 248.337193 234.453483 
L 248.972524 234.86039 
L 249.396079 234.872779 
L 249.607856 235.184281 
L 250.243188 235.20327 
L 250.454965 235.485958 
L 250.87852 235.597452 
L 251.090297 235.813203 
L 251.302074 235.864821 
L 251.513852 235.603064 
L 251.725629 235.784081 
L 251.937406 235.729733 
L 252.149183 235.805927 
L 252.784515 236.470443 
L 252.996292 236.544056 
L 253.20807 236.399124 
L 253.419847 236.476903 
L 253.631624 236.839602 
L 253.843402 236.926769 
L 254.055179 237.180999 
L 254.266956 237.112186 
L 254.478733 237.373454 
L 254.690511 237.303743 
L 255.114065 237.691252 
L 255.325842 237.60703 
L 255.749397 237.778579 
L 255.961174 238.001572 
L 256.384729 238.064554 
L 256.596506 237.870976 
L 257.02006 238.299348 
L 257.655392 238.376713 
L 257.86717 238.179643 
L 258.290724 238.300464 
L 258.714279 237.718224 
L 258.926056 237.6511 
L 259.34961 238.068531 
L 260.408497 238.396257 
L 260.832051 238.427939 
L 261.255606 238.615986 
L 261.67916 238.556183 
L 262.102715 238.950336 
L 262.314492 238.991553 
L 262.526269 238.785759 
L 262.738047 239.088085 
L 264.00871 239.445461 
L 264.855819 239.965667 
L 265.067597 240.174738 
L 265.491151 240.275902 
L 265.702928 240.356486 
L 265.914706 240.31787 
L 266.126483 240.444308 
L 266.33826 240.258137 
L 266.761815 240.372007 
L 267.397146 240.852202 
L 267.608924 240.82693 
L 267.820701 240.637976 
L 268.456033 240.72603 
L 268.879587 240.964134 
L 269.091365 241.116819 
L 269.303142 241.059376 
L 269.938474 241.427738 
L 270.573805 241.839266 
L 271.632692 241.76147 
L 272.268023 241.932089 
L 272.691578 241.70724 
L 273.115133 241.768242 
L 273.32691 241.682508 
L 273.538687 241.884576 
L 274.174019 241.908149 
L 274.385796 241.690306 
L 274.597573 241.699898 
L 275.021128 242.036261 
L 275.868237 241.988246 
L 276.291791 241.970439 
L 276.503569 242.23253 
L 276.927123 242.357872 
L 277.562455 242.733819 
L 277.774232 242.683769 
L 277.98601 242.784983 
L 278.409564 242.727133 
L 278.621341 242.773467 
L 278.833119 243.098672 
L 279.044896 242.730086 
L 279.256673 242.935953 
L 279.46845 242.955909 
L 279.680228 243.119806 
L 279.892005 243.0144 
L 280.527337 243.405323 
L 280.739114 243.109024 
L 281.586223 242.950407 
L 281.798 243.058071 
L 282.009778 243.349976 
L 282.221555 243.175104 
L 282.433332 243.171918 
L 283.915773 244.294889 
L 284.762882 244.455544 
L 284.974659 244.789077 
L 285.186437 244.674875 
L 285.609991 244.754417 
L 285.821768 244.734521 
L 286.245323 245.114693 
L 286.4571 244.905664 
L 287.092432 245.440409 
L 287.939541 245.656434 
L 288.151318 245.889661 
L 288.363096 245.808841 
L 288.574873 246.010087 
L 288.78665 245.907024 
L 288.998427 245.971026 
L 289.633759 246.545002 
L 289.845536 246.56325 
L 290.057314 246.696783 
L 290.480868 247.087246 
L 290.692645 247.011575 
L 290.904423 247.083765 
L 291.1162 246.883296 
L 291.327977 247.001355 
L 291.539754 246.986717 
L 291.963309 247.190262 
L 292.175086 247.20728 
L 292.598641 246.902533 
L 292.810418 247.010973 
L 293.869304 248.361332 
L 294.504636 248.24151 
L 294.716413 248.25817 
L 295.139968 247.954142 
L 295.563523 248.310664 
L 296.198854 248.30025 
L 296.410632 248.440385 
L 296.622409 248.410491 
L 296.834186 248.093982 
L 297.045963 248.139741 
L 297.257741 248.324087 
L 297.469518 248.081308 
L 297.893072 248.02342 
L 298.10485 247.516195 
L 298.528404 247.883687 
L 298.740181 248.588451 
L 299.163736 248.219652 
L 299.375513 248.33038 
L 300.010845 249.35028 
L 300.222622 249.240413 
L 301.281509 249.555335 
L 301.493286 249.654617 
L 301.91684 250.398008 
L 302.128618 250.153765 
L 302.552172 250.157897 
L 302.975727 250.171837 
L 303.187504 250.18909 
L 303.611059 250.471436 
L 303.822836 250.404106 
L 304.034613 250.733453 
L 304.24639 250.622499 
L 304.458168 250.760954 
L 304.669945 250.759207 
L 304.881722 250.925492 
L 305.093499 251.239051 
L 305.517054 251.338892 
L 306.152386 250.840056 
L 306.364163 250.801569 
L 306.57594 251.032233 
L 306.787717 251.084858 
L 306.999495 251.252284 
L 307.211272 251.645829 
L 307.423049 251.448431 
L 307.634827 251.471575 
L 307.846604 251.670462 
L 308.270158 251.579566 
L 308.481936 251.189124 
L 308.693713 251.309994 
L 309.117267 251.92498 
L 309.329045 251.716189 
L 309.540822 252.138111 
L 309.752599 252.17328 
L 310.176154 252.964803 
L 310.387931 252.905574 
L 311.023263 253.407156 
L 311.446817 253.134719 
L 311.658595 253.542724 
L 312.293926 253.632751 
L 312.505704 253.819079 
L 313.141035 253.226499 
L 313.776367 253.932424 
L 313.988144 253.799274 
L 314.623476 254.280855 
L 314.835254 254.286808 
L 315.258808 254.604229 
L 315.89414 254.540223 
L 316.105917 254.537542 
L 316.317694 254.694646 
L 316.529472 254.262864 
L 316.741249 254.225557 
L 317.164803 254.506918 
L 317.376581 254.346022 
L 318.435467 255.621891 
L 318.647244 255.9543 
L 318.859022 255.957114 
L 319.070799 256.180256 
L 319.282576 256.181078 
L 319.494353 256.306887 
L 319.706131 256.143071 
L 319.917908 256.579526 
L 320.129685 256.517182 
L 320.341462 256.638603 
L 320.55324 256.93624 
L 320.765017 256.633439 
L 320.976794 256.792328 
L 321.188571 257.23089 
L 321.400349 257.057141 
L 322.247458 257.719031 
L 322.671012 257.32377 
L 323.094567 257.514813 
L 323.306344 257.30975 
L 323.518121 257.328662 
L 323.729899 257.228733 
L 324.36523 257.834549 
L 324.577008 257.84206 
L 324.788785 258.248459 
L 325.212339 258.486574 
L 325.424117 258.344248 
L 325.635894 258.349077 
L 325.847671 258.612504 
L 326.059448 258.522112 
L 326.271226 258.978457 
L 326.483003 259.118216 
L 326.906558 259.625512 
L 327.118335 259.223402 
L 327.965444 259.931892 
L 328.177221 259.804508 
L 328.388998 259.425061 
L 328.600776 259.643213 
L 328.812553 259.280107 
L 329.236107 259.371506 
L 329.659662 260.481333 
L 329.871439 260.439183 
L 330.083217 260.682042 
L 330.294994 261.261451 
L 330.930326 260.736568 
L 331.35388 260.776943 
L 331.565657 260.84787 
L 332.412766 261.721999 
L 332.624544 261.377713 
L 333.259875 262.000204 
L 333.68343 262.83052 
L 333.895207 262.563425 
L 334.106985 262.647083 
L 334.318762 262.510491 
L 334.530539 262.623229 
L 334.954094 262.435603 
L 335.377648 263.556936 
L 335.589425 263.901955 
L 335.801203 263.79642 
L 336.224757 265.074304 
L 336.648312 265.624021 
L 336.860089 265.968201 
L 337.283643 266.008617 
L 337.495421 265.913775 
L 337.918975 266.783078 
L 338.766084 266.90079 
L 339.189639 267.871803 
L 339.401416 268.025372 
L 339.824971 267.979091 
L 340.248525 268.438948 
L 340.460302 268.443041 
L 340.67208 268.594646 
L 341.095634 269.277795 
L 341.519189 269.235038 
L 341.942743 269.652291 
L 342.366298 269.848728 
L 342.578075 270.265796 
L 343.213407 270.610401 
L 343.636961 271.005577 
L 343.848739 270.990967 
L 344.060516 270.663996 
L 344.272293 270.974506 
L 344.48407 270.808548 
L 344.907625 271.727262 
L 345.33118 272.110527 
L 345.542957 272.566082 
L 345.754734 272.596816 
L 345.966511 272.777446 
L 346.178289 272.802391 
L 346.601843 273.217505 
L 347.448952 274.094175 
L 348.084284 274.270182 
L 348.296061 274.439442 
L 348.507838 275.065923 
L 348.931393 274.568376 
L 349.14317 274.512443 
L 349.778502 274.971393 
L 349.990279 274.88983 
L 350.413834 275.3524 
L 350.837388 275.415406 
L 351.260943 275.735051 
L 351.47272 275.784561 
L 351.684497 275.705619 
L 351.896275 275.788473 
L 352.108052 275.7292 
L 352.319829 275.973372 
L 352.531606 275.976842 
L 352.743384 276.413166 
L 352.955161 276.308776 
L 353.166938 276.513427 
L 353.378716 276.883185 
L 353.590493 276.529104 
L 354.014047 276.873245 
L 354.437602 277.455152 
L 354.649379 277.53611 
L 354.861156 277.149151 
L 355.920043 278.466957 
L 356.13182 278.450645 
L 356.343597 278.297666 
L 357.190706 278.947606 
L 357.402484 278.654492 
L 357.826038 279.388048 
L 358.037815 279.299824 
L 358.46137 279.53034 
L 358.673147 279.490537 
L 359.308479 280.356147 
L 359.732033 280.077254 
L 359.943811 280.350296 
L 360.155588 280.376378 
L 360.79092 281.028964 
L 361.002697 280.906698 
L 361.214474 281.260347 
L 361.849806 281.449908 
L 362.273361 282.089058 
L 362.485138 282.052125 
L 362.908692 282.174387 
L 363.12047 282.161813 
L 363.332247 282.307218 
L 363.755801 282.099867 
L 364.179356 282.389151 
L 364.391133 282.400444 
L 364.602911 282.26273 
L 364.814688 282.505737 
L 365.026465 282.567262 
L 365.45002 282.517013 
L 365.873574 282.607761 
L 366.085351 282.622951 
L 366.297129 282.813797 
L 366.508906 282.777405 
L 366.720683 283.062285 
L 366.93246 282.88569 
L 367.356015 283.099588 
L 367.567792 283.205558 
L 367.779569 283.542724 
L 367.991347 283.50628 
L 368.414901 283.75125 
L 369.050233 284.312555 
L 369.473788 284.254924 
L 369.685565 284.486242 
L 370.320897 284.315521 
L 370.532674 284.51595 
L 370.956228 284.297565 
L 371.379783 284.617947 
L 371.803337 284.589989 
L 372.015115 284.76623 
L 372.438669 285.290605 
L 372.650447 285.368597 
L 373.074001 286.272765 
L 374.344665 286.67197 
L 374.556442 286.584643 
L 374.979996 286.875754 
L 375.191774 286.674909 
L 375.403551 286.977285 
L 375.827105 287.207105 
L 376.038883 287.057196 
L 376.25066 287.136602 
L 376.674215 287.420306 
L 376.885992 287.277334 
L 377.309546 287.394978 
L 377.733101 287.318499 
L 378.58021 287.539479 
L 378.791987 287.689734 
L 379.003764 287.63994 
L 379.215542 287.80841 
L 379.427319 287.709163 
L 379.639096 287.785381 
L 380.274428 288.485472 
L 380.697983 288.159513 
L 380.90976 288.305387 
L 381.121537 288.126063 
L 381.756869 288.356971 
L 382.180423 288.636042 
L 382.392201 288.631502 
L 382.603978 288.385426 
L 383.027532 288.780448 
L 383.451087 288.788601 
L 383.874642 288.948688 
L 384.086419 288.780957 
L 384.298196 288.811577 
L 384.509973 288.685743 
L 384.721751 288.97411 
L 384.933528 289.040145 
L 385.145305 288.885919 
L 385.357082 288.982236 
L 386.204191 289.851465 
L 386.627746 290.169674 
L 386.839523 289.922503 
L 387.0513 289.969735 
L 387.474855 290.30279 
L 387.686632 290.270906 
L 387.89841 290.49691 
L 388.110187 290.516714 
L 388.321964 290.889916 
L 388.533741 290.687856 
L 388.745519 290.656388 
L 389.169073 290.859696 
L 389.38085 291.147355 
L 389.592628 291.126428 
L 390.016182 291.431329 
L 390.227959 291.851404 
L 390.651514 291.886507 
L 390.863291 292.037166 
L 391.075068 292.018413 
L 391.498623 292.343881 
L 391.7104 292.97585 
L 392.133955 292.976223 
L 392.557509 293.388102 
L 392.981064 293.284557 
L 394.03995 293.921278 
L 394.251727 293.783285 
L 394.463505 293.900812 
L 395.098837 293.797161 
L 395.310614 293.958347 
L 395.734168 294.010513 
L 395.945946 294.193417 
L 396.3695 294.908397 
L 396.581277 294.600904 
L 396.793055 294.71687 
L 397.004832 294.985654 
L 397.216609 294.851384 
L 397.640164 295.188929 
L 397.851941 295.097809 
L 398.063718 295.207479 
L 398.275495 295.488 
L 398.487273 295.38823 
L 398.487273 295.38823 
" clip-path="url(#pdfc54576a4)" style="fill: none; stroke: #1f77b4; stroke-opacity: 0.7; stroke-width: 1.5; stroke-linecap: square"/>
   </g>
   <g id="line2d_20">
    <path d="M 73.832727 175.365144 
L 74.679836 175.86143 
L 74.891614 175.453926 
L 75.103391 175.347013 
L 75.526945 174.828406 
L 75.738723 174.893424 
L 75.9505 174.707961 
L 76.162277 174.716463 
L 76.585832 174.161673 
L 77.009386 174.434383 
L 77.221163 174.372311 
L 77.432941 174.543563 
L 77.644718 174.418505 
L 77.856495 173.958006 
L 78.068273 173.863375 
L 78.491827 174.01652 
L 79.127159 173.485001 
L 79.338936 173.625082 
L 79.550713 173.256096 
L 79.762491 173.548324 
L 80.186045 173.400925 
L 80.397822 173.683507 
L 81.033154 172.885953 
L 81.456709 172.742567 
L 82.303818 172.416231 
L 82.93915 172.534999 
L 83.362704 172.214461 
L 83.574481 172.298889 
L 84.42159 171.631968 
L 84.633368 171.379037 
L 84.845145 171.450898 
L 85.2687 171.030782 
L 85.480477 170.994314 
L 86.115809 170.200092 
L 86.327586 170.301589 
L 87.174695 169.651048 
L 87.386472 169.825728 
L 87.598249 169.846056 
L 87.810027 169.696593 
L 88.021804 169.275166 
L 88.233581 169.202506 
L 88.657136 168.793923 
L 89.08069 168.725814 
L 89.292468 168.42698 
L 89.504245 168.466895 
L 89.927799 168.105178 
L 90.139577 167.759785 
L 90.351354 168.089301 
L 90.563131 168.06872 
L 90.774908 167.890793 
L 91.622017 168.042415 
L 92.257349 167.672361 
L 92.469126 167.752247 
L 92.680904 166.866916 
L 93.104458 166.907046 
L 93.528013 166.540634 
L 93.73979 166.528373 
L 94.163345 166.657794 
L 94.586899 166.053181 
L 94.798676 166.040128 
L 95.010454 166.330257 
L 95.222231 166.116406 
L 95.645785 166.006332 
L 95.857563 165.937636 
L 96.06934 166.046792 
L 97.128226 165.380427 
L 97.340004 165.472579 
L 97.763558 165.174504 
L 97.975335 165.065188 
L 98.187113 165.292004 
L 98.610667 164.884248 
L 98.822444 165.005458 
L 99.034222 164.598211 
L 99.245999 164.554073 
L 99.457776 164.650726 
L 99.881331 164.371538 
L 100.093108 164.014423 
L 100.516663 163.823186 
L 100.940217 164.015902 
L 101.787326 163.013271 
L 102.210881 163.081086 
L 102.846212 163.653286 
L 103.05799 163.597752 
L 103.269767 163.41913 
L 103.481544 163.725822 
L 103.905099 163.684807 
L 104.116876 163.649968 
L 104.540431 163.0758 
L 104.752208 163.075764 
L 104.963985 162.888273 
L 105.175762 163.080288 
L 106.022871 162.741421 
L 106.234649 162.745487 
L 106.446426 162.886421 
L 106.658203 162.623166 
L 107.081758 162.698316 
L 107.293535 162.521715 
L 107.505312 162.742102 
L 107.928867 162.451796 
L 108.352421 162.269485 
L 108.775976 161.713774 
L 109.411308 161.117798 
L 109.623085 161.202864 
L 110.258417 161.015893 
L 110.681971 161.245137 
L 110.893748 161.050073 
L 111.317303 161.015739 
L 111.740857 160.504367 
L 111.952635 160.625071 
L 112.799744 159.941097 
L 113.011521 160.008086 
L 113.646853 159.58205 
L 113.85863 159.837736 
L 114.282185 159.754756 
L 114.705739 159.740236 
L 115.341071 158.977816 
L 115.552848 159.166933 
L 115.976403 159.161183 
L 116.399957 159.45828 
L 116.611735 159.108865 
L 117.035289 159.117887 
L 117.247066 158.854031 
L 117.458844 158.820279 
L 117.670621 158.642407 
L 117.882398 158.840037 
L 118.094175 158.88168 
L 118.305953 158.674118 
L 118.729507 158.640722 
L 119.153062 158.673247 
L 119.364839 158.708591 
L 119.788394 158.362315 
L 120.000171 158.447588 
L 120.211948 158.361131 
L 120.423725 158.117421 
L 120.84728 158.229485 
L 121.059057 158.194124 
L 121.270834 158.339425 
L 121.482612 158.006698 
L 121.906166 158.043651 
L 122.117943 157.752928 
L 122.329721 157.938653 
L 122.541498 157.909625 
L 122.753275 158.036229 
L 122.965052 157.850646 
L 123.17683 157.332047 
L 123.388607 157.545456 
L 124.023939 157.520748 
L 124.235716 157.79977 
L 125.082825 157.10748 
L 126.141711 156.798263 
L 126.353489 156.802473 
L 126.565266 156.486743 
L 126.777043 156.76182 
L 127.412375 156.734731 
L 127.624152 156.500287 
L 127.83593 156.46189 
L 129.106593 155.329622 
L 129.31837 155.47534 
L 129.530148 155.150028 
L 129.953702 155.313609 
L 130.589034 155.45344 
L 131.012589 155.374915 
L 131.436143 155.479775 
L 131.859698 155.301452 
L 132.071475 155.269638 
L 132.495029 154.973007 
L 132.706807 154.982931 
L 132.918584 154.583456 
L 133.765693 154.863129 
L 134.189247 154.741168 
L 134.612802 154.747808 
L 134.824579 154.949755 
L 135.459911 154.440806 
L 135.883466 154.247409 
L 136.730575 154.110745 
L 136.942352 154.193278 
L 137.365906 154.072533 
L 137.789461 154.153631 
L 138.63657 154.085123 
L 138.848347 153.948409 
L 139.060125 153.966741 
L 139.271902 153.749543 
L 139.695456 153.73738 
L 140.330788 153.231247 
L 141.177897 153.27893 
L 141.601452 153.174234 
L 142.872115 153.099399 
L 143.507447 152.827643 
L 144.142779 152.684628 
L 144.566333 152.780554 
L 145.413442 152.423661 
L 146.048774 152.772752 
L 146.260552 152.67242 
L 146.684106 152.853639 
L 147.531215 152.503067 
L 147.742992 152.244738 
L 148.378324 152.194319 
L 149.013656 152.583749 
L 149.43721 152.330257 
L 149.860765 152.204952 
L 150.072542 151.85155 
L 150.496097 151.717557 
L 150.707874 151.702509 
L 150.919651 151.404089 
L 151.343206 151.267681 
L 151.554983 151.434941 
L 152.190315 151.355122 
L 152.402092 151.082661 
L 153.037424 150.887034 
L 153.249201 150.80037 
L 153.460978 150.510284 
L 154.519865 150.434977 
L 154.731642 150.110474 
L 155.155197 150.175508 
L 155.366974 150.603728 
L 155.790528 150.363706 
L 156.002306 150.246405 
L 156.42586 150.279578 
L 157.061192 149.819146 
L 157.484746 149.722652 
L 157.908301 149.800304 
L 158.120078 149.738376 
L 158.331856 149.953335 
L 158.75541 149.703136 
L 159.178965 149.57354 
L 159.602519 149.168334 
L 159.814296 149.140783 
L 160.026074 149.295897 
L 161.296737 149.020981 
L 161.508514 149.086855 
L 161.720292 148.775906 
L 161.932069 148.99452 
L 162.143846 148.840686 
L 162.355624 148.881753 
L 162.779178 148.661233 
L 162.990955 148.754315 
L 163.41451 148.424746 
L 163.626287 148.442946 
L 163.838064 148.245268 
L 164.473396 148.258485 
L 164.896951 148.101241 
L 165.108728 147.992013 
L 165.74406 148.012737 
L 166.167614 147.901821 
L 166.802946 148.125019 
L 167.650055 147.754717 
L 167.861832 147.647101 
L 168.920719 147.710005 
L 169.556051 147.334808 
L 169.767828 147.164651 
L 170.191382 147.126955 
L 170.614937 146.961591 
L 171.8856 146.874249 
L 172.309155 146.636033 
L 173.156264 146.524068 
L 173.368041 146.69611 
L 174.003373 146.692132 
L 174.426928 146.481172 
L 175.062259 146.693349 
L 175.274037 146.395002 
L 175.697591 146.315311 
L 175.909368 146.100812 
L 176.121146 146.083277 
L 176.332923 145.885444 
L 177.180032 145.788311 
L 177.391809 146.031522 
L 178.027141 146.002825 
L 178.450696 145.702017 
L 178.662473 145.793359 
L 179.086027 145.442962 
L 180.356691 145.264634 
L 180.568468 145.050972 
L 181.2038 144.999812 
L 181.627355 144.688842 
L 182.474464 144.57725 
L 182.686241 144.748898 
L 183.956904 143.965892 
L 184.168682 143.962373 
L 184.592236 143.67584 
L 185.015791 143.613011 
L 185.227568 143.442812 
L 185.439345 143.488074 
L 185.651123 143.378224 
L 185.8629 143.52224 
L 186.498232 143.583976 
L 186.921786 144.025322 
L 187.133563 144.282061 
L 187.345341 144.34754 
L 187.557118 144.127901 
L 187.768895 144.298844 
L 187.980672 144.647174 
L 188.19245 144.468087 
L 188.616004 143.706726 
L 189.039559 143.203238 
L 189.251336 143.158171 
L 189.463113 142.58805 
L 189.674891 142.468384 
L 189.886668 141.372175 
L 190.098445 141.469989 
L 190.733777 142.065236 
L 191.157331 142.82418 
L 191.369109 142.431464 
L 191.580886 142.365786 
L 192.00444 141.785451 
L 192.216218 141.540364 
L 192.427995 141.608049 
L 192.639772 141.935469 
L 192.85155 141.842059 
L 193.063327 141.988352 
L 193.698659 142.004673 
L 194.122213 141.430864 
L 194.969322 140.883268 
L 195.181099 140.656039 
L 195.392877 140.767807 
L 195.816431 140.693383 
L 196.239986 140.969632 
L 196.451763 140.920901 
L 197.087095 140.185781 
L 197.510649 140.246345 
L 197.722427 140.120064 
L 197.934204 140.240955 
L 198.357758 140.040314 
L 198.569536 140.050804 
L 198.781313 140.310178 
L 199.204867 140.454283 
L 199.840199 139.935555 
L 200.263754 140.210091 
L 200.687308 140.424676 
L 200.899086 140.410901 
L 201.534417 140.830831 
L 202.169749 140.46545 
L 202.381526 140.434086 
L 202.805081 139.874966 
L 203.016858 140.097471 
L 203.440413 139.481544 
L 203.863967 139.103266 
L 204.075745 139.29048 
L 204.287522 139.274602 
L 204.711076 138.803472 
L 205.98174 138.440344 
L 206.193517 138.528171 
L 206.405294 138.338627 
L 206.617072 138.504435 
L 207.040626 138.128168 
L 207.675958 138.209975 
L 207.887735 138.023406 
L 208.734844 138.343349 
L 208.946622 138.334185 
L 209.158399 138.439962 
L 209.370176 138.729904 
L 209.581953 138.414251 
L 210.005508 138.718304 
L 210.429062 138.049961 
L 210.852617 138.159777 
L 211.064394 138.025699 
L 211.487949 137.343965 
L 211.699726 137.246195 
L 212.123281 137.266545 
L 212.758612 137.434058 
L 212.97039 136.95345 
L 213.182167 136.926213 
L 213.393944 136.585711 
L 213.605721 136.476861 
L 213.817499 136.498756 
L 214.241053 136.133422 
L 214.45283 136.347496 
L 214.876385 136.136849 
L 215.088162 135.811546 
L 215.723494 135.447586 
L 215.935271 135.117872 
L 216.570603 135.042106 
L 216.78238 135.011721 
L 217.205935 134.585634 
L 217.417712 134.638269 
L 217.629489 134.506824 
L 218.264821 133.572892 
L 218.476598 133.505752 
L 218.688376 133.296931 
L 219.323708 133.248025 
L 219.535485 133.177358 
L 219.747262 132.97037 
L 219.959039 133.088914 
L 220.170817 132.782659 
L 220.382594 132.774599 
L 220.594371 132.627312 
L 220.806148 132.670893 
L 221.017926 132.580858 
L 221.229703 132.252331 
L 221.44148 132.20848 
L 221.865035 131.981288 
L 222.500366 132.13918 
L 222.712144 131.901364 
L 222.923921 131.855945 
L 223.982807 130.6223 
L 224.194585 130.551976 
L 224.406362 130.903968 
L 224.618139 130.722067 
L 225.041694 131.065363 
L 225.253471 130.754987 
L 225.888803 130.441405 
L 226.312357 130.410129 
L 227.159466 130.210374 
L 227.371244 130.030355 
L 227.794798 130.150299 
L 228.006575 130.000257 
L 228.218353 130.09674 
L 228.43013 129.879005 
L 228.641907 130.24017 
L 229.065462 130.203179 
L 229.700793 129.68816 
L 229.912571 129.486105 
L 230.124348 129.598233 
L 230.547903 129.389362 
L 230.75968 129.322115 
L 231.183234 129.502622 
L 231.395012 129.247179 
L 231.606789 129.174792 
L 231.818566 128.93357 
L 232.877452 128.704508 
L 233.08923 128.727687 
L 233.301007 128.233595 
L 233.512784 128.389559 
L 233.724561 128.299135 
L 234.148116 128.368345 
L 234.783448 127.549228 
L 234.995225 127.636829 
L 235.630557 127.033713 
L 235.842334 127.008031 
L 236.054111 127.1773 
L 236.265889 127.029596 
L 236.477666 127.144593 
L 236.689443 127.117296 
L 237.536552 126.58577 
L 237.748329 126.532015 
L 238.171884 126.08961 
L 238.383661 125.997394 
L 238.595439 125.642397 
L 238.807216 125.801535 
L 239.018993 125.697631 
L 239.23077 125.810616 
L 240.077879 125.322214 
L 240.501434 124.821454 
L 241.136766 125.018934 
L 241.348543 124.886618 
L 241.56032 124.91211 
L 241.772097 124.815588 
L 242.195652 124.359874 
L 242.407429 124.400462 
L 242.619207 124.232274 
L 243.042761 123.650454 
L 243.254538 123.353445 
L 243.88987 123.55448 
L 244.525202 122.991061 
L 244.736979 123.17678 
L 245.160534 122.668478 
L 245.372311 122.729129 
L 245.795866 122.097856 
L 246.007643 121.839406 
L 246.431197 121.649328 
L 246.642975 121.36891 
L 246.854752 121.310698 
L 247.066529 121.404586 
L 247.278306 121.285218 
L 247.701861 121.437821 
L 247.913638 121.310613 
L 248.125415 121.339785 
L 248.54897 121.052489 
L 248.972524 121.080797 
L 249.396079 120.876683 
L 249.607856 121.075804 
L 250.243188 120.735118 
L 250.454965 120.947783 
L 250.87852 120.788234 
L 251.090297 120.854664 
L 251.302074 120.743842 
L 251.513852 120.346078 
L 251.725629 120.394901 
L 252.149183 120.058418 
L 252.572738 120.469249 
L 253.419847 119.792012 
L 253.631624 119.946502 
L 253.843402 119.878129 
L 254.055179 120.021642 
L 254.266956 119.726675 
L 254.478733 119.833051 
L 254.690511 119.53746 
L 255.114065 119.524846 
L 255.53762 119.15319 
L 255.749397 119.027792 
L 255.961174 119.088378 
L 256.384729 118.876904 
L 256.596506 118.573293 
L 257.02006 118.658188 
L 258.290724 118.129213 
L 258.714279 117.345923 
L 258.926056 117.12081 
L 259.34961 117.170836 
L 261.890938 115.947017 
L 262.102715 115.970943 
L 262.314492 115.873974 
L 262.526269 115.515762 
L 262.738047 115.620734 
L 263.585156 114.99793 
L 264.644042 114.745134 
L 265.491151 114.413955 
L 266.126483 113.980798 
L 266.550037 113.446529 
L 267.185369 113.212283 
L 267.397146 113.304042 
L 267.608924 113.15969 
L 267.820701 112.829955 
L 268.456033 112.624332 
L 268.879587 112.676133 
L 269.091365 112.623468 
L 269.303142 112.444913 
L 269.514919 112.451254 
L 269.938474 112.245723 
L 270.573805 112.245087 
L 271.632692 111.770555 
L 272.268023 111.707844 
L 272.691578 111.342856 
L 273.115133 111.224457 
L 273.32691 111.034511 
L 273.538687 111.123964 
L 274.174019 110.720122 
L 274.597573 110.248617 
L 275.021128 110.236826 
L 275.65646 109.822697 
L 276.080014 109.640165 
L 276.291791 109.485405 
L 276.503569 109.62157 
L 277.138901 109.31729 
L 277.774232 109.016545 
L 277.98601 108.940147 
L 278.409564 108.576177 
L 278.621341 108.519695 
L 278.833119 108.741326 
L 279.044896 108.222327 
L 279.256673 108.267991 
L 279.46845 108.110389 
L 279.680228 108.142784 
L 279.892005 107.852459 
L 280.527337 107.658987 
L 280.950891 106.999201 
L 281.162669 106.858159 
L 281.586223 106.25123 
L 281.798 106.132709 
L 282.009778 106.178377 
L 282.433332 105.55718 
L 282.645109 105.460206 
L 283.068664 105.154814 
L 283.280441 105.315221 
L 283.492218 105.208137 
L 283.703996 105.237236 
L 284.762882 104.492493 
L 284.974659 104.608619 
L 285.186437 104.335835 
L 285.398214 104.346445 
L 285.821768 104.133398 
L 286.245323 104.289447 
L 286.4571 103.936019 
L 287.092432 104.013005 
L 287.939541 103.693464 
L 288.151318 103.750415 
L 288.363096 103.570364 
L 288.574873 103.665935 
L 288.998427 103.254531 
L 289.210205 103.279986 
L 289.421982 103.144331 
L 289.633759 103.277294 
L 289.845536 103.118899 
L 290.057314 103.152654 
L 290.269091 103.345615 
L 290.480868 103.316148 
L 290.692645 103.102908 
L 290.904423 103.092355 
L 291.1162 102.769574 
L 291.327977 102.888534 
L 292.175086 102.662186 
L 292.810418 101.944342 
L 293.233973 102.204042 
L 293.44575 102.203977 
L 293.657527 102.571546 
L 294.081082 102.379082 
L 295.351745 101.49414 
L 295.563523 101.49906 
L 296.622409 100.852002 
L 296.834186 100.395115 
L 297.045963 100.325734 
L 297.257741 100.413211 
L 297.681295 99.969368 
L 297.893072 99.781324 
L 298.10485 99.083096 
L 298.316627 98.957631 
L 298.528404 98.995737 
L 298.740181 99.507992 
L 299.375513 98.896929 
L 299.587291 98.889432 
L 300.010845 99.178525 
L 300.4344 98.756635 
L 300.646177 98.727817 
L 300.857954 98.520548 
L 301.069731 98.578458 
L 301.493286 98.512672 
L 301.91684 98.799307 
L 302.128618 98.362551 
L 302.340395 98.198053 
L 302.763949 97.639623 
L 303.822836 97.009766 
L 304.034613 97.137234 
L 304.24639 96.788398 
L 304.881722 96.377447 
L 305.093499 96.420918 
L 305.517054 96.064058 
L 306.364163 94.705758 
L 306.57594 94.710217 
L 306.787717 94.504171 
L 306.999495 94.509497 
L 307.211272 94.765344 
L 307.423049 94.367442 
L 307.634827 94.213851 
L 307.846604 94.259727 
L 308.270158 93.855573 
L 308.481936 93.312517 
L 308.90549 93.286792 
L 309.117267 93.528014 
L 309.329045 93.173498 
L 309.540822 93.407318 
L 309.752599 93.256048 
L 309.964376 93.499306 
L 310.176154 93.546779 
L 310.387931 93.261057 
L 310.599708 93.298538 
L 311.23504 92.967099 
L 311.446817 92.613826 
L 311.658595 92.916702 
L 312.505704 92.550084 
L 313.141035 91.474916 
L 313.776367 91.850439 
L 313.988144 91.587031 
L 314.623476 91.624051 
L 314.835254 91.368172 
L 315.047031 91.54381 
L 315.258808 91.487075 
L 315.682363 90.918555 
L 315.89414 90.988442 
L 316.317694 90.759096 
L 316.741249 89.777822 
L 317.164803 89.472123 
L 317.376581 88.981679 
L 318.011912 88.525857 
L 318.647244 88.843761 
L 318.859022 88.551261 
L 319.070799 88.533357 
L 319.706131 87.88117 
L 319.917908 88.018091 
L 320.341462 87.78644 
L 320.55324 87.862325 
L 320.765017 87.437705 
L 320.976794 87.362952 
L 321.188571 87.51401 
L 321.400349 87.075497 
L 321.823903 87.047114 
L 322.03568 87.235402 
L 322.247458 87.142988 
L 322.671012 86.461899 
L 323.094567 86.431373 
L 323.729899 85.363615 
L 324.153453 85.30213 
L 324.36523 85.226224 
L 324.577008 85.023536 
L 324.788785 85.198283 
L 325.212339 85.044214 
L 325.635894 84.40038 
L 325.847671 84.508546 
L 326.059448 84.211547 
L 326.271226 84.404271 
L 326.483003 84.334819 
L 326.906558 84.449243 
L 327.118335 83.829772 
L 327.753667 83.597093 
L 327.965444 83.518972 
L 328.600776 82.715797 
L 329.02433 81.764293 
L 329.236107 81.55706 
L 329.659662 82.064356 
L 329.871439 81.816591 
L 330.083217 81.808832 
L 330.294994 82.162231 
L 331.35388 80.646511 
L 331.565657 80.624522 
L 331.777435 80.828215 
L 331.989212 80.793137 
L 332.200989 81.132816 
L 332.412766 80.97769 
L 332.624544 80.520893 
L 332.836321 80.555513 
L 333.048098 80.772545 
L 333.259875 80.762127 
L 333.471653 80.919558 
L 333.68343 81.244789 
L 333.895207 80.750423 
L 334.106985 80.68783 
L 334.318762 80.319594 
L 334.530539 80.266533 
L 334.954094 79.604195 
L 335.165871 80.147294 
L 335.589425 80.372062 
L 335.801203 80.118876 
L 336.224757 80.986198 
L 336.648312 80.805935 
L 336.860089 80.799985 
L 337.283643 80.329948 
L 337.495421 79.819335 
L 337.707198 79.916036 
L 337.918975 80.141072 
L 338.130753 79.956295 
L 338.554307 79.363989 
L 338.766084 79.167104 
L 339.189639 79.484497 
L 339.401416 79.411514 
L 339.824971 78.864468 
L 340.248525 78.906031 
L 340.460302 78.673045 
L 340.67208 78.623184 
L 341.095634 78.674074 
L 341.519189 78.102811 
L 341.942743 77.961131 
L 342.366298 77.523551 
L 342.578075 77.680025 
L 343.00163 77.414726 
L 343.425184 77.269393 
L 343.636961 77.344541 
L 343.848739 77.11623 
L 344.060516 76.573844 
L 344.272293 76.661883 
L 344.48407 76.258254 
L 344.695848 76.595109 
L 344.907625 76.719752 
L 345.33118 76.486301 
L 345.542957 76.748519 
L 345.754734 76.485467 
L 345.966511 76.422342 
L 346.390066 76.112402 
L 346.81362 76.051537 
L 348.296061 75.228491 
L 348.507838 75.618123 
L 348.931393 74.566971 
L 349.354948 74.264108 
L 349.778502 74.203341 
L 349.990279 73.872038 
L 350.413834 73.919345 
L 350.837388 73.492602 
L 351.049166 73.531316 
L 351.260943 73.418531 
L 351.684497 72.929122 
L 352.108052 72.597769 
L 352.319829 72.675712 
L 352.531606 72.454395 
L 352.743384 72.637928 
L 352.955161 72.252495 
L 353.378716 72.257065 
L 353.590493 71.669443 
L 354.014047 71.523388 
L 354.225825 71.692284 
L 354.437602 71.664088 
L 354.649379 71.512919 
L 354.861156 70.914722 
L 355.496488 70.91722 
L 355.920043 71.103357 
L 356.343597 70.562906 
L 356.978929 70.487417 
L 357.190706 70.571281 
L 357.402484 70.149224 
L 357.614261 70.41732 
L 357.826038 70.482523 
L 358.037815 70.144153 
L 358.46137 70.020018 
L 358.673147 69.794251 
L 358.884924 69.863941 
L 359.308479 70.19268 
L 359.732033 69.663064 
L 359.943811 69.853121 
L 360.367365 69.811055 
L 360.579143 69.85483 
L 360.79092 70.020603 
L 361.002697 69.678379 
L 361.214474 69.757477 
L 361.849806 69.140199 
L 362.273361 69.234972 
L 362.696915 68.792008 
L 365.873574 66.343784 
L 366.508906 65.92895 
L 366.720683 66.066319 
L 366.93246 65.721536 
L 367.567792 65.297735 
L 367.779569 65.447583 
L 368.203124 65.051511 
L 368.626679 64.99676 
L 368.838456 65.23938 
L 369.26201 64.898924 
L 369.473788 64.734602 
L 369.685565 64.916112 
L 370.320897 64.436852 
L 370.532674 64.526651 
L 370.956228 64.157967 
L 371.168006 64.257316 
L 371.59156 64.125074 
L 371.803337 64.00857 
L 372.015115 64.06317 
L 372.226892 64.284624 
L 372.438669 64.328191 
L 372.650447 64.215435 
L 373.074001 64.697669 
L 373.709333 64.346338 
L 374.768219 63.425494 
L 374.979996 63.457256 
L 375.191774 63.096777 
L 375.403551 63.11998 
L 376.25066 62.683585 
L 376.462437 62.797654 
L 376.674215 62.776316 
L 376.885992 62.54525 
L 377.309546 62.622257 
L 377.733101 62.240182 
L 378.156655 62.048058 
L 379.215542 61.244541 
L 379.639096 60.735322 
L 380.062651 60.67712 
L 380.274428 60.774276 
L 380.697983 59.948553 
L 380.90976 59.881953 
L 381.121537 59.527438 
L 382.392201 58.786146 
L 382.603978 58.403453 
L 383.23931 58.191594 
L 384.509973 56.771497 
L 384.721751 56.825332 
L 384.933528 56.698322 
L 385.145305 56.287104 
L 385.56886 56.171082 
L 385.992414 56.138843 
L 386.627746 55.953391 
L 386.839523 55.503171 
L 387.0513 55.39017 
L 387.263078 55.473517 
L 387.686632 55.193161 
L 387.89841 55.375829 
L 388.110187 55.369214 
L 388.321964 55.617836 
L 388.533741 55.305858 
L 388.957296 55.19239 
L 389.169073 55.132125 
L 389.38085 55.258859 
L 389.804405 55.078025 
L 390.016182 55.085386 
L 390.227959 55.388166 
L 391.075068 54.906899 
L 391.498623 54.946633 
L 391.7104 55.503209 
L 392.133955 55.251662 
L 392.557509 55.290967 
L 392.981064 54.873141 
L 393.616396 54.802571 
L 393.828173 54.85361 
L 394.03995 54.653039 
L 394.251727 54.27952 
L 394.463505 54.246842 
L 395.098837 53.708417 
L 395.310614 53.775958 
L 395.734168 53.568 
L 395.945946 53.636756 
L 396.3695 54.196362 
L 396.581277 53.802278 
L 396.793055 53.808155 
L 397.004832 53.978824 
L 397.216609 53.743937 
L 397.428386 53.870358 
L 397.640164 53.858454 
L 397.851941 53.669203 
L 398.063718 53.655301 
L 398.275495 53.799424 
L 398.487273 53.626156 
L 398.487273 53.626156 
" clip-path="url(#pdfc54576a4)" style="fill: none; stroke: #ff7f0e; stroke-opacity: 0.7; stroke-width: 1.5; stroke-linecap: square"/>
   </g>
   <g id="line2d_21">
    <path d="M 73.832727 175.414762 
L 74.256282 175.715738 
L 74.468059 176.029452 
L 74.679836 176.070798 
L 74.891614 175.744229 
L 75.103391 175.668977 
L 75.526945 175.290736 
L 75.738723 175.400159 
L 75.9505 175.2907 
L 76.162277 175.374114 
L 76.585832 174.945501 
L 77.009386 175.36801 
L 77.221163 175.393861 
L 77.432941 175.61637 
L 77.644718 175.582613 
L 77.856495 175.193233 
L 78.28005 175.265799 
L 78.491827 175.470215 
L 79.127159 175.14581 
L 79.338936 175.327763 
L 79.550713 175.030136 
L 79.762491 175.37099 
L 79.974268 175.27505 
L 80.186045 175.353434 
L 80.397822 175.695447 
L 81.033154 175.148635 
L 81.244932 175.177194 
L 82.092041 174.871305 
L 82.515595 175.088627 
L 82.93915 175.228437 
L 83.362704 175.042658 
L 83.574481 175.205452 
L 84.209813 174.92086 
L 84.633368 174.484015 
L 84.845145 174.593913 
L 85.2687 174.267516 
L 85.480477 174.325378 
L 85.692254 174.185151 
L 85.904031 173.899999 
L 86.115809 173.803544 
L 86.327586 173.97956 
L 87.174695 173.61021 
L 87.598249 173.946896 
L 87.810027 173.872743 
L 88.021804 173.531325 
L 88.445358 173.441667 
L 88.657136 173.345977 
L 89.08069 173.455592 
L 89.292468 173.200216 
L 89.504245 173.254348 
L 89.927799 173.011967 
L 90.139577 172.760271 
L 90.351354 173.201654 
L 90.563131 173.31843 
L 90.774908 173.238151 
L 91.833795 173.707126 
L 92.257349 173.576471 
L 92.469126 173.733045 
L 92.680904 172.927588 
L 93.104458 173.232351 
L 93.528013 173.072034 
L 93.73979 173.160556 
L 94.163345 173.500078 
L 94.586899 173.013672 
L 94.798676 173.045676 
L 95.010454 173.386018 
L 95.222231 173.264654 
L 95.434008 173.365625 
L 95.645785 173.326744 
L 96.281117 173.52433 
L 96.916449 173.163298 
L 97.128226 173.209503 
L 97.340004 173.371467 
L 97.551781 173.228749 
L 97.975335 173.277911 
L 98.187113 173.554898 
L 98.39889 173.37801 
L 98.610667 173.409604 
L 98.822444 173.638645 
L 99.034222 173.294099 
L 99.669553 173.401405 
L 99.881331 173.311657 
L 100.093108 173.012612 
L 100.516663 172.956684 
L 100.940217 173.23583 
L 101.575549 172.672038 
L 101.787326 172.525973 
L 102.210881 172.720106 
L 102.846212 173.469239 
L 103.05799 173.493734 
L 103.269767 173.371415 
L 103.481544 173.750629 
L 103.905099 173.920534 
L 104.116876 173.97176 
L 104.963985 173.575659 
L 105.175762 173.830932 
L 105.38754 173.795157 
L 105.599317 173.625129 
L 106.022871 173.764813 
L 106.446426 174.079139 
L 106.658203 173.893451 
L 107.081758 174.111979 
L 107.293535 174.045956 
L 107.505312 174.378686 
L 107.928867 174.268976 
L 108.352421 174.280951 
L 108.564199 173.943332 
L 109.411308 173.53134 
L 109.834862 173.744324 
L 110.258417 173.780489 
L 110.681971 174.117745 
L 110.893748 173.952498 
L 111.105526 174.052999 
L 111.317303 174.026365 
L 111.740857 173.633599 
L 111.952635 173.81645 
L 112.164412 173.665035 
L 112.376189 173.6744 
L 112.799744 173.353116 
L 113.011521 173.451934 
L 113.646853 173.22589 
L 113.85863 173.524595 
L 114.282185 173.533356 
L 114.705739 173.607566 
L 115.341071 173.000473 
L 115.552848 173.278085 
L 115.976403 173.360935 
L 116.399957 173.832065 
L 116.611735 173.568709 
L 117.035289 173.728672 
L 117.247066 173.544885 
L 117.670621 173.441233 
L 118.094175 173.808642 
L 118.305953 173.633477 
L 118.51773 173.730863 
L 118.941284 173.716328 
L 119.364839 173.933288 
L 119.788394 173.705715 
L 120.000171 173.863723 
L 120.211948 173.836038 
L 120.423725 173.667205 
L 120.84728 173.928937 
L 121.059057 173.983181 
L 121.270834 174.188501 
L 121.482612 173.905663 
L 121.906166 174.111522 
L 122.117943 173.927443 
L 122.329721 174.193652 
L 122.541498 174.244806 
L 122.753275 174.455087 
L 122.965052 174.379927 
L 123.17683 173.94036 
L 123.600384 174.313351 
L 123.812162 174.539915 
L 124.023939 174.474733 
L 124.235716 174.827087 
L 124.659271 174.624212 
L 124.871048 174.679092 
L 125.082825 174.558087 
L 126.141711 174.690093 
L 126.353489 174.796549 
L 126.565266 174.556635 
L 126.777043 174.887448 
L 127.412375 175.074531 
L 127.624152 174.883955 
L 127.83593 174.913403 
L 129.106593 174.220633 
L 129.31837 174.414879 
L 129.530148 174.169953 
L 129.953702 174.395729 
L 130.800811 174.671685 
L 131.224366 174.79073 
L 131.436143 174.857651 
L 131.859698 174.751366 
L 132.071475 174.756661 
L 132.495029 174.531779 
L 132.706807 174.587078 
L 132.918584 174.214419 
L 133.765693 174.722098 
L 133.97747 174.64244 
L 134.612802 174.786023 
L 134.824579 175.028126 
L 135.248134 174.581299 
L 135.459911 174.666489 
L 135.883466 174.515325 
L 136.730575 174.556416 
L 136.942352 174.704921 
L 137.365906 174.676087 
L 137.789461 174.851491 
L 138.63657 174.935697 
L 138.848347 174.847043 
L 139.060125 174.896239 
L 139.271902 174.729501 
L 139.695456 174.818387 
L 139.907234 174.719384 
L 140.119011 174.49268 
L 140.542565 174.521233 
L 140.96612 174.749803 
L 142.025006 174.63976 
L 142.872115 174.749937 
L 143.507447 174.572769 
L 144.142779 174.535757 
L 144.566333 174.717113 
L 145.413442 174.564277 
L 146.048774 175.049044 
L 146.260552 174.986857 
L 146.895883 175.280139 
L 147.107661 175.355302 
L 147.95477 175.053623 
L 148.166547 174.992092 
L 148.590101 175.344757 
L 148.801879 175.653284 
L 149.013656 175.719402 
L 149.43721 175.59494 
L 149.860765 175.551689 
L 150.072542 175.274752 
L 150.707874 175.240352 
L 150.919651 174.999471 
L 151.343206 174.995284 
L 151.554983 175.194574 
L 152.190315 175.260938 
L 152.402092 175.062523 
L 152.825647 175.205592 
L 153.460978 174.742252 
L 154.519865 174.822345 
L 154.731642 174.549175 
L 155.155197 174.725312 
L 155.366974 175.1891 
L 155.790528 175.080928 
L 156.002306 175.043972 
L 156.42586 175.167716 
L 157.061192 174.817134 
L 157.484746 174.745222 
L 157.908301 174.855808 
L 158.120078 174.843205 
L 158.331856 175.061265 
L 158.75541 174.882778 
L 159.178965 174.819168 
L 159.390742 174.576006 
L 159.814296 174.524682 
L 160.026074 174.732634 
L 161.08496 174.651413 
L 161.508514 174.903845 
L 161.720292 174.659983 
L 161.932069 174.917709 
L 162.143846 174.779183 
L 162.355624 174.867244 
L 162.779178 174.718367 
L 162.990955 174.845714 
L 163.41451 174.57879 
L 163.626287 174.658246 
L 163.838064 174.512559 
L 164.473396 174.700409 
L 164.896951 174.637505 
L 165.108728 174.572424 
L 165.74406 174.770155 
L 166.167614 174.767337 
L 166.802946 175.138006 
L 167.650055 175.014971 
L 167.861832 174.964743 
L 168.920719 175.268382 
L 169.767828 174.904049 
L 171.673823 175.159755 
L 172.732709 174.885906 
L 173.156264 174.948235 
L 173.368041 175.147772 
L 174.003373 175.27026 
L 174.21515 175.135923 
L 174.638705 175.27068 
L 175.062259 175.570183 
L 175.274037 175.343502 
L 175.697591 175.402633 
L 175.909368 175.261554 
L 176.121146 175.293694 
L 176.332923 175.155471 
L 177.180032 175.251556 
L 177.391809 175.529552 
L 178.027141 175.693518 
L 178.238918 175.534748 
L 178.450696 175.536037 
L 178.662473 175.699274 
L 179.086027 175.46477 
L 180.356691 175.632157 
L 180.568468 175.449082 
L 181.415577 175.370964 
L 181.839132 175.262421 
L 182.474464 175.311857 
L 182.686241 175.503461 
L 183.956904 175.009263 
L 184.168682 175.04691 
L 184.804014 174.868711 
L 185.015791 174.89264 
L 185.227568 174.774241 
L 185.439345 174.867186 
L 185.651123 174.824264 
L 186.074677 175.070014 
L 186.710009 175.576133 
L 187.345341 176.19005 
L 187.557118 176.039493 
L 187.768895 176.301724 
L 187.980672 176.778329 
L 188.19245 176.723813 
L 188.616004 176.164987 
L 189.039559 175.790012 
L 189.251336 175.80288 
L 189.463113 175.30823 
L 189.674891 175.206406 
L 189.886668 174.205173 
L 190.098445 174.351166 
L 191.157331 175.994297 
L 191.369109 175.645932 
L 191.580886 175.633823 
L 192.216218 174.982475 
L 192.427995 175.062819 
L 192.639772 175.392692 
L 192.85155 175.399609 
L 193.275104 175.663837 
L 193.486881 175.666687 
L 193.698659 175.86269 
L 194.122213 175.479048 
L 194.757545 175.444276 
L 195.181099 175.200573 
L 195.392877 175.398338 
L 195.816431 175.464521 
L 196.451763 175.855523 
L 197.087095 175.334737 
L 197.510649 175.511899 
L 197.722427 175.413282 
L 197.934204 175.555013 
L 198.357758 175.457386 
L 198.569536 175.549177 
L 198.781313 175.849065 
L 199.416645 176.024071 
L 199.628422 175.876909 
L 199.840199 175.887579 
L 200.263754 176.289257 
L 200.687308 176.638725 
L 200.899086 176.671307 
L 201.534417 177.336646 
L 201.957972 177.193441 
L 202.381526 177.326612 
L 202.805081 176.962129 
L 203.016858 177.270301 
L 203.440413 176.893958 
L 203.863967 176.697673 
L 204.075745 177.023277 
L 204.287522 177.121213 
L 204.711076 176.805262 
L 205.346408 176.809215 
L 205.769963 176.816358 
L 205.98174 176.817209 
L 206.193517 176.978252 
L 206.405294 176.842343 
L 206.617072 177.04803 
L 206.828849 176.861209 
L 207.252403 176.978614 
L 207.464181 177.180706 
L 208.099513 177.263316 
L 208.31129 177.340884 
L 208.734844 177.741288 
L 209.158399 178.027557 
L 209.370176 178.412579 
L 209.581953 178.223273 
L 210.005508 178.722245 
L 210.217285 178.412313 
L 210.429062 178.316147 
L 210.852617 178.640836 
L 211.064394 178.627188 
L 211.487949 178.171057 
L 211.699726 178.183934 
L 212.123281 178.450122 
L 212.758612 178.916907 
L 212.97039 178.563197 
L 213.182167 178.66385 
L 213.393944 178.433718 
L 213.605721 178.440379 
L 213.817499 178.58515 
L 214.241053 178.499813 
L 214.45283 178.837021 
L 214.876385 178.857269 
L 215.088162 178.598528 
L 215.723494 178.522341 
L 215.935271 178.312687 
L 216.358826 178.463465 
L 216.994158 178.444325 
L 217.205935 178.273086 
L 217.417712 178.410528 
L 217.629489 178.360993 
L 218.264821 177.640176 
L 218.476598 177.681847 
L 218.688376 177.550616 
L 219.323708 177.769107 
L 219.535485 177.788206 
L 219.747262 177.684688 
L 219.959039 177.873329 
L 220.170817 177.661549 
L 220.806148 177.812055 
L 221.017926 177.775472 
L 221.229703 177.485264 
L 221.44148 177.516043 
L 221.865035 177.442502 
L 222.500366 177.84871 
L 222.712144 177.68545 
L 222.923921 177.743269 
L 223.982807 177.025944 
L 224.194585 177.047826 
L 224.406362 177.429641 
L 224.618139 177.327293 
L 225.041694 177.759178 
L 225.253471 177.517586 
L 225.888803 177.41298 
L 226.10058 177.546569 
L 227.159466 177.488867 
L 227.371244 177.382709 
L 227.794798 177.617524 
L 228.006575 177.595674 
L 228.218353 177.780221 
L 228.43013 177.674206 
L 228.641907 178.133797 
L 229.065462 178.362377 
L 229.912571 178.134181 
L 230.124348 178.353485 
L 230.547903 178.369341 
L 230.75968 178.396834 
L 231.183234 178.776516 
L 231.395012 178.642533 
L 231.606789 178.714579 
L 231.818566 178.584472 
L 232.877452 178.910979 
L 233.08923 179.059873 
L 233.301007 178.632542 
L 233.512784 178.89106 
L 233.724561 178.913889 
L 234.148116 179.227462 
L 234.783448 178.724785 
L 234.995225 178.916116 
L 235.207002 178.804983 
L 235.41878 178.824431 
L 235.630557 178.580573 
L 235.842334 178.65134 
L 236.054111 178.900362 
L 236.265889 178.85111 
L 236.689443 179.037084 
L 237.536552 178.754072 
L 237.748329 178.789855 
L 238.171884 178.489783 
L 238.383661 178.501942 
L 238.595439 178.242901 
L 238.807216 178.510938 
L 239.018993 178.526383 
L 239.23077 178.738364 
L 240.077879 178.686929 
L 240.501434 178.383025 
L 241.136766 178.79943 
L 241.348543 178.730691 
L 241.56032 178.816988 
L 241.772097 178.78155 
L 242.195652 178.448853 
L 242.407429 178.574269 
L 242.619207 178.468369 
L 243.042761 178.067125 
L 243.254538 177.840531 
L 243.88987 178.300233 
L 244.525202 178.069244 
L 244.736979 178.338884 
L 245.160534 177.989969 
L 245.372311 178.133542 
L 245.584088 177.804634 
L 246.21942 177.601006 
L 246.431197 177.559329 
L 246.642975 177.37982 
L 246.854752 177.401233 
L 247.066529 177.584347 
L 247.278306 177.536898 
L 247.701861 177.851609 
L 247.913638 177.799646 
L 248.125415 177.893101 
L 248.54897 177.814896 
L 248.972524 177.970594 
L 249.396079 177.874731 
L 249.607856 178.130042 
L 250.243188 177.969194 
L 250.454965 178.216871 
L 250.87852 178.192843 
L 251.090297 178.333934 
L 251.302074 178.304331 
L 251.513852 177.974571 
L 251.725629 178.089491 
L 252.149183 177.932173 
L 252.572738 178.481249 
L 253.419847 178.134458 
L 253.631624 178.393052 
L 253.843402 178.402449 
L 254.055179 178.60132 
L 254.266956 178.419431 
L 254.478733 178.603253 
L 254.690511 178.420601 
L 255.114065 178.608049 
L 255.53762 178.422094 
L 255.749397 178.403186 
L 255.961174 178.544975 
L 256.384729 178.470729 
L 256.596506 178.222135 
L 257.02006 178.478768 
L 258.290724 178.214839 
L 258.714279 177.532073 
L 258.926056 177.385955 
L 259.34961 177.619684 
L 260.408497 177.504411 
L 260.832051 177.363549 
L 261.255606 177.413724 
L 261.67916 177.197144 
L 262.102715 177.460639 
L 262.314492 177.432763 
L 262.526269 177.150761 
L 262.738047 177.35441 
L 263.585156 177.148009 
L 264.855819 177.326863 
L 265.067597 177.447574 
L 265.491151 177.344929 
L 266.126483 177.212553 
L 266.33826 176.92954 
L 266.761815 176.865787 
L 267.397146 177.078122 
L 267.608924 176.99331 
L 267.820701 176.733966 
L 268.456033 176.675181 
L 268.879587 176.820133 
L 269.091365 176.870143 
L 269.303142 176.752145 
L 269.726696 176.81512 
L 270.150251 176.922946 
L 270.573805 177.042177 
L 271.632692 176.766013 
L 272.268023 176.819966 
L 272.691578 176.525048 
L 273.115133 176.496349 
L 273.32691 176.358509 
L 273.538687 176.50427 
L 274.174019 176.314135 
L 274.385796 176.044028 
L 274.597573 175.974257 
L 275.021128 176.136543 
L 275.65646 175.8845 
L 276.080014 175.82115 
L 276.291791 175.727922 
L 276.503569 175.92705 
L 277.138901 175.902137 
L 277.562455 175.976887 
L 277.774232 175.850157 
L 277.98601 175.862565 
L 278.409564 175.651655 
L 278.621341 175.646581 
L 278.833119 175.919999 
L 279.044896 175.476206 
L 279.256673 175.601972 
L 279.46845 175.533149 
L 279.680228 175.631295 
L 279.892005 175.433429 
L 280.527337 175.532155 
L 280.739114 175.162451 
L 281.798 174.59539 
L 282.009778 174.764176 
L 282.433332 174.364549 
L 282.645109 174.396976 
L 282.856887 174.295246 
L 283.068664 174.33796 
L 283.280441 174.614994 
L 283.492218 174.606875 
L 283.703996 174.741382 
L 284.762882 174.474019 
L 284.974659 174.698848 
L 285.186437 174.505355 
L 285.398214 174.557076 
L 285.821768 174.433959 
L 286.245323 174.70207 
L 286.4571 174.420841 
L 287.092432 174.726707 
L 287.939541 174.674949 
L 288.151318 174.820038 
L 288.363096 174.689602 
L 288.574873 174.838011 
L 288.78665 174.648149 
L 288.998427 174.612778 
L 289.210205 174.725983 
L 289.421982 174.689458 
L 289.633759 174.911148 
L 289.845536 174.841075 
L 290.057314 174.924718 
L 290.269091 175.156308 
L 290.480868 175.201697 
L 290.692645 175.057242 
L 290.904423 175.08806 
L 291.1162 174.826435 
L 291.327977 174.944945 
L 291.539754 174.916603 
L 291.751532 175.018047 
L 292.175086 174.934733 
L 292.810418 174.477658 
L 293.233973 174.871905 
L 293.44575 174.981691 
L 293.657527 175.383414 
L 293.869304 175.434116 
L 294.928191 174.923604 
L 295.139968 174.713005 
L 295.563523 174.904862 
L 296.198854 174.645009 
L 296.410632 174.70686 
L 296.622409 174.631246 
L 296.834186 174.244549 
L 297.045963 174.232737 
L 297.257741 174.368649 
L 297.469518 174.107479 
L 297.893072 173.902372 
L 298.10485 173.299646 
L 298.316627 173.297389 
L 298.528404 173.439712 
L 298.740181 174.048221 
L 299.163736 173.552964 
L 299.587291 173.770707 
L 300.010845 174.264403 
L 300.4344 174.020523 
L 300.646177 174.084128 
L 300.857954 173.961475 
L 301.493286 174.083645 
L 301.91684 174.598658 
L 302.128618 174.258158 
L 302.340395 174.196992 
L 302.763949 173.874337 
L 303.822836 173.706936 
L 304.034613 173.935343 
L 304.24639 173.705449 
L 304.881722 173.65147 
L 305.093499 173.829985 
L 305.517054 173.701475 
L 306.152386 172.896813 
L 306.364163 172.753664 
L 306.57594 172.871225 
L 306.787717 172.794514 
L 306.999495 172.88089 
L 307.211272 173.205586 
L 307.423049 172.907936 
L 307.634827 172.842713 
L 307.846604 172.965094 
L 308.270158 172.717569 
L 308.481936 172.250821 
L 308.90549 172.433383 
L 309.117267 172.726497 
L 309.329045 172.444844 
L 309.540822 172.772714 
L 309.752599 172.714664 
L 310.176154 173.255791 
L 310.387931 173.083315 
L 310.599708 173.207143 
L 310.811486 173.181824 
L 311.023263 173.297694 
L 311.446817 172.874272 
L 311.658595 173.229713 
L 312.293926 173.068243 
L 312.505704 173.184582 
L 313.141035 172.350708 
L 313.776367 172.891432 
L 313.988144 172.693153 
L 314.623476 172.952453 
L 314.835254 172.82749 
L 315.047031 173.018994 
L 315.258808 173.045652 
L 315.682363 172.646323 
L 315.89414 172.764333 
L 316.105917 172.683439 
L 316.317694 172.726871 
L 316.529472 172.188374 
L 316.741249 172.001689 
L 317.164803 171.98952 
L 317.376581 171.663851 
L 318.011912 171.721174 
L 318.647244 172.39903 
L 318.859022 172.254188 
L 319.070799 172.356807 
L 319.282576 172.262766 
L 319.494353 172.304367 
L 319.706131 172.012121 
L 319.917908 172.298809 
L 320.129685 172.178591 
L 320.341462 172.212522 
L 320.55324 172.399282 
L 320.765017 172.035572 
L 320.976794 172.07764 
L 321.188571 172.37245 
L 321.400349 172.066319 
L 322.247458 172.431009 
L 322.671012 171.892835 
L 323.094567 171.973093 
L 323.729899 171.296174 
L 324.153453 171.464327 
L 324.36523 171.530386 
L 324.577008 171.432798 
L 324.788785 171.723371 
L 325.212339 171.765394 
L 325.635894 171.374728 
L 325.847671 171.560525 
L 326.059448 171.366829 
L 326.271226 171.691364 
L 326.483003 171.726518 
L 326.906558 172.037378 
L 327.118335 171.526587 
L 327.753667 171.662685 
L 327.965444 171.725432 
L 328.177221 171.514591 
L 328.388998 171.104541 
L 328.600776 171.179505 
L 328.812553 170.687614 
L 329.236107 170.464283 
L 329.659662 171.272844 
L 329.871439 171.127887 
L 330.083217 171.245437 
L 330.294994 171.711841 
L 331.142103 170.754863 
L 331.565657 170.736196 
L 331.777435 170.938804 
L 331.989212 170.96585 
L 332.200989 171.324709 
L 332.412766 171.349845 
L 332.624544 170.949303 
L 332.836321 171.063816 
L 333.048098 171.338893 
L 333.259875 171.381165 
L 333.471653 171.623742 
L 333.68343 172.037654 
L 333.895207 171.656924 
L 334.106985 171.667456 
L 334.318762 171.415043 
L 334.530539 171.444881 
L 334.954094 171.019899 
L 335.377648 171.919165 
L 335.589425 172.137009 
L 335.801203 171.957648 
L 336.224757 173.030251 
L 336.648312 173.214978 
L 336.860089 173.384093 
L 337.283643 173.169283 
L 337.495421 172.866555 
L 337.918975 173.462075 
L 338.130753 173.380935 
L 338.554307 173.087984 
L 338.766084 173.033947 
L 339.189639 173.67815 
L 339.401416 173.718443 
L 339.824971 173.421779 
L 340.248525 173.67249 
L 340.460302 173.558043 
L 340.67208 173.608915 
L 341.095634 173.975935 
L 341.519189 173.668925 
L 341.942743 173.806711 
L 342.366298 173.68614 
L 342.578075 173.972911 
L 343.00163 173.96101 
L 343.213407 173.949308 
L 343.636961 174.175059 
L 343.848739 174.053598 
L 344.060516 173.61892 
L 344.272293 173.818194 
L 344.48407 173.533401 
L 344.907625 174.223507 
L 345.33118 174.298414 
L 345.542957 174.6573 
L 345.754734 174.541142 
L 345.966511 174.599894 
L 346.390066 174.538597 
L 347.025398 174.769701 
L 347.660729 174.875013 
L 348.084284 174.76409 
L 348.296061 174.833966 
L 348.507838 175.342023 
L 348.931393 174.567673 
L 349.14317 174.426172 
L 349.778502 174.587367 
L 349.990279 174.380934 
L 350.413834 174.635873 
L 350.837388 174.454004 
L 351.260943 174.576791 
L 352.108052 174.163485 
L 352.319829 174.324542 
L 352.531606 174.215619 
L 352.743384 174.525547 
L 352.955161 174.280636 
L 353.378716 174.570125 
L 353.590493 174.099274 
L 353.80227 174.090669 
L 354.014047 174.198316 
L 354.225825 174.48279 
L 354.649379 174.524515 
L 354.861156 174.031936 
L 355.708265 174.575976 
L 355.920043 174.785157 
L 356.343597 174.430286 
L 357.190706 174.759444 
L 357.402484 174.401858 
L 357.826038 174.935285 
L 358.037815 174.721988 
L 358.46137 174.775179 
L 358.673147 174.642394 
L 359.308479 175.274414 
L 359.732033 174.870159 
L 359.943811 175.101709 
L 360.367365 175.179064 
L 360.579143 175.274294 
L 360.79092 175.524784 
L 361.002697 175.292539 
L 361.214474 175.508912 
L 361.849806 175.295053 
L 362.273361 175.662015 
L 362.696915 175.470512 
L 363.544024 175.13294 
L 363.755801 174.952738 
L 364.179356 175.01641 
L 364.391133 174.919083 
L 364.602911 174.697707 
L 364.814688 174.848635 
L 365.026465 174.795138 
L 365.45002 174.568162 
L 365.873574 174.475772 
L 366.085351 174.422978 
L 366.297129 174.493763 
L 366.508906 174.353178 
L 366.720683 174.564302 
L 366.93246 174.303613 
L 367.356015 174.257777 
L 367.567792 174.251647 
L 367.779569 174.495154 
L 367.991347 174.337791 
L 368.414901 174.363014 
L 368.626679 174.482315 
L 368.838456 174.784524 
L 369.473788 174.494763 
L 369.685565 174.701177 
L 370.320897 174.376187 
L 370.532674 174.521301 
L 370.956228 174.227766 
L 371.379783 174.421477 
L 371.803337 174.299279 
L 372.015115 174.4147 
L 372.226892 174.709237 
L 372.650447 174.792016 
L 373.074001 175.485217 
L 373.92111 175.411312 
L 374.132887 175.220475 
L 374.344665 175.204127 
L 374.556442 175.050231 
L 374.768219 175.049133 
L 374.979996 175.166505 
L 375.191774 174.885843 
L 375.403551 175.048632 
L 376.25066 174.910094 
L 376.462437 175.077845 
L 376.674215 175.098311 
L 376.885992 174.911292 
L 377.309546 175.008618 
L 377.733101 174.77934 
L 378.791987 174.673944 
L 379.003764 174.48919 
L 379.215542 174.526475 
L 379.427319 174.302957 
L 379.639096 174.260352 
L 380.274428 174.629874 
L 380.697983 174.054033 
L 380.90976 174.09367 
L 381.121537 173.82675 
L 382.392201 173.708824 
L 382.603978 173.39444 
L 383.027532 173.555692 
L 383.874642 173.296201 
L 384.509973 172.72862 
L 384.721751 172.899721 
L 384.933528 172.869234 
L 385.145305 172.586511 
L 385.357082 172.5775 
L 386.204191 172.948517 
L 386.627746 173.061532 
L 386.839523 172.712837 
L 387.0513 172.679952 
L 387.474855 172.830588 
L 387.686632 172.732034 
L 387.89841 172.93637 
L 388.110187 172.942964 
L 388.321964 173.253876 
L 388.533741 172.996857 
L 388.745519 172.926673 
L 390.016182 173.258358 
L 390.227959 173.619785 
L 390.651514 173.500717 
L 390.863291 173.573349 
L 391.075068 173.462656 
L 391.498623 173.645257 
L 391.7104 174.23953 
L 392.133955 174.113942 
L 392.557509 174.339534 
L 392.981064 174.078849 
L 393.616396 174.251751 
L 393.828173 174.366271 
L 394.03995 174.287159 
L 394.251727 174.031402 
L 394.463505 174.073827 
L 395.098837 173.752789 
L 395.310614 173.867153 
L 395.734168 173.789256 
L 395.945946 173.915087 
L 396.3695 174.552379 
L 396.581277 174.201591 
L 396.793055 174.262512 
L 397.004832 174.482239 
L 397.216609 174.29766 
L 397.640164 174.523692 
L 397.851941 174.383506 
L 398.063718 174.43139 
L 398.275495 174.643712 
L 398.487273 174.507193 
L 398.487273 174.507193 
" clip-path="url(#pdfc54576a4)" style="fill: none; stroke: #2ca02c; stroke-opacity: 0.7; stroke-width: 1.5; stroke-linecap: square"/>
   </g>
   <g id="patch_3">
    <path d="M 57.6 307.584 
L 57.6 41.472 
" style="fill: none; stroke: #000000; stroke-width: 0.8; stroke-linejoin: miter; stroke-linecap: square"/>
   </g>
   <g id="patch_4">
    <path d="M 414.72 307.584 
L 414.72 41.472 
" style="fill: none; stroke: #000000; stroke-width: 0.8; stroke-linejoin: miter; stroke-linecap: square"/>
   </g>
   <g id="patch_5">
    <path d="M 57.6 307.584 
L 414.72 307.584 
" style="fill: none; stroke: #000000; stroke-width: 0.8; stroke-linejoin: miter; stroke-linecap: square"/>
   </g>
   <g id="patch_6">
    <path d="M 57.6 41.472 
L 414.72 41.472 
" style="fill: none; stroke: #000000; stroke-width: 0.8; stroke-linejoin: miter; stroke-linecap: square"/>
   </g>
   <g id="text_19">
    <!-- 1final_naive_aa_eurusd -->
    <g transform="translate(165.975937 35.472) scale(0.12 -0.12)">
     <defs>
      <path id="DejaVuSans-66" d="M 2375 4863 
L 2375 4384 
L 1825 4384 
Q 1516 4384 1395 4259 
Q 1275 4134 1275 3809 
L 1275 3500 
L 2222 3500 
L 2222 3053 
L 1275 3053 
L 1275 0 
L 697 0 
L 697 3053 
L 147 3053 
L 147 3500 
L 697 3500 
L 697 3744 
Q 697 4328 969 4595 
Q 1241 4863 1831 4863 
L 2375 4863 
z
" transform="scale(0.015625)"/>
      <path id="DejaVuSans-69" d="M 603 3500 
L 1178 3500 
L 1178 0 
L 603 0 
L 603 3500 
z
M 603 4863 
L 1178 4863 
L 1178 4134 
L 603 4134 
L 603 4863 
z
" transform="scale(0.015625)"/>
      <path id="DejaVuSans-6e" d="M 3513 2113 
L 3513 0 
L 2938 0 
L 2938 2094 
Q 2938 2591 2744 2837 
Q 2550 3084 2163 3084 
Q 1697 3084 1428 2787 
Q 1159 2491 1159 1978 
L 1159 0 
L 581 0 
L 581 3500 
L 1159 3500 
L 1159 2956 
Q 1366 3272 1645 3428 
Q 1925 3584 2291 3584 
Q 2894 3584 3203 3211 
Q 3513 2838 3513 2113 
z
" transform="scale(0.015625)"/>
      <path id="DejaVuSans-61" d="M 2194 1759 
Q 1497 1759 1228 1600 
Q 959 1441 959 1056 
Q 959 750 1161 570 
Q 1363 391 1709 391 
Q 2188 391 2477 730 
Q 2766 1069 2766 1631 
L 2766 1759 
L 2194 1759 
z
M 3341 1997 
L 3341 0 
L 2766 0 
L 2766 531 
Q 2569 213 2275 61 
Q 1981 -91 1556 -91 
Q 1019 -91 701 211 
Q 384 513 384 1019 
Q 384 1609 779 1909 
Q 1175 2209 1959 2209 
L 2766 2209 
L 2766 2266 
Q 2766 2663 2505 2880 
Q 2244 3097 1772 3097 
Q 1472 3097 1187 3025 
Q 903 2953 641 2809 
L 641 3341 
Q 956 3463 1253 3523 
Q 1550 3584 1831 3584 
Q 2591 3584 2966 3190 
Q 3341 2797 3341 1997 
z
" transform="scale(0.015625)"/>
      <path id="DejaVuSans-6c" d="M 603 4863 
L 1178 4863 
L 1178 0 
L 603 0 
L 603 4863 
z
" transform="scale(0.015625)"/>
      <path id="DejaVuSans-5f" d="M 3263 -1063 
L 3263 -1509 
L -63 -1509 
L -63 -1063 
L 3263 -1063 
z
" transform="scale(0.015625)"/>
      <path id="DejaVuSans-76" d="M 191 3500 
L 800 3500 
L 1894 563 
L 2988 3500 
L 3597 3500 
L 2284 0 
L 1503 0 
L 191 3500 
z
" transform="scale(0.015625)"/>
      <path id="DejaVuSans-65" d="M 3597 1894 
L 3597 1613 
L 953 1613 
Q 991 1019 1311 708 
Q 1631 397 2203 397 
Q 2534 397 2845 478 
Q 3156 559 3463 722 
L 3463 178 
Q 3153 47 2828 -22 
Q 2503 -91 2169 -91 
Q 1331 -91 842 396 
Q 353 884 353 1716 
Q 353 2575 817 3079 
Q 1281 3584 2069 3584 
Q 2775 3584 3186 3129 
Q 3597 2675 3597 1894 
z
M 3022 2063 
Q 3016 2534 2758 2815 
Q 2500 3097 2075 3097 
Q 1594 3097 1305 2825 
Q 1016 2553 972 2059 
L 3022 2063 
z
" transform="scale(0.015625)"/>
      <path id="DejaVuSans-75" d="M 544 1381 
L 544 3500 
L 1119 3500 
L 1119 1403 
Q 1119 906 1312 657 
Q 1506 409 1894 409 
Q 2359 409 2629 706 
Q 2900 1003 2900 1516 
L 2900 3500 
L 3475 3500 
L 3475 0 
L 2900 0 
L 2900 538 
Q 2691 219 2414 64 
Q 2138 -91 1772 -91 
Q 1169 -91 856 284 
Q 544 659 544 1381 
z
M 1991 3584 
L 1991 3584 
z
" transform="scale(0.015625)"/>
      <path id="DejaVuSans-72" d="M 2631 2963 
Q 2534 3019 2420 3045 
Q 2306 3072 2169 3072 
Q 1681 3072 1420 2755 
Q 1159 2438 1159 1844 
L 1159 0 
L 581 0 
L 581 3500 
L 1159 3500 
L 1159 2956 
Q 1341 3275 1631 3429 
Q 1922 3584 2338 3584 
Q 2397 3584 2469 3576 
Q 2541 3569 2628 3553 
L 2631 2963 
z
" transform="scale(0.015625)"/>
      <path id="DejaVuSans-73" d="M 2834 3397 
L 2834 2853 
Q 2591 2978 2328 3040 
Q 2066 3103 1784 3103 
Q 1356 3103 1142 2972 
Q 928 2841 928 2578 
Q 928 2378 1081 2264 
Q 1234 2150 1697 2047 
L 1894 2003 
Q 2506 1872 2764 1633 
Q 3022 1394 3022 966 
Q 3022 478 2636 193 
Q 2250 -91 1575 -91 
Q 1294 -91 989 -36 
Q 684 19 347 128 
L 347 722 
Q 666 556 975 473 
Q 1284 391 1588 391 
Q 1994 391 2212 530 
Q 2431 669 2431 922 
Q 2431 1156 2273 1281 
Q 2116 1406 1581 1522 
L 1381 1569 
Q 847 1681 609 1914 
Q 372 2147 372 2553 
Q 372 3047 722 3315 
Q 1072 3584 1716 3584 
Q 2034 3584 2315 3537 
Q 2597 3491 2834 3397 
z
" transform="scale(0.015625)"/>
      <path id="DejaVuSans-64" d="M 2906 2969 
L 2906 4863 
L 3481 4863 
L 3481 0 
L 2906 0 
L 2906 525 
Q 2725 213 2448 61 
Q 2172 -91 1784 -91 
Q 1150 -91 751 415 
Q 353 922 353 1747 
Q 353 2572 751 3078 
Q 1150 3584 1784 3584 
Q 2172 3584 2448 3432 
Q 2725 3281 2906 2969 
z
M 947 1747 
Q 947 1113 1208 752 
Q 1469 391 1925 391 
Q 2381 391 2643 752 
Q 2906 1113 2906 1747 
Q 2906 2381 2643 2742 
Q 2381 3103 1925 3103 
Q 1469 3103 1208 2742 
Q 947 2381 947 1747 
z
" transform="scale(0.015625)"/>
     </defs>
     <use xlink:href="#DejaVuSans-31"/>
     <use xlink:href="#DejaVuSans-66" x="63.623047"/>
     <use xlink:href="#DejaVuSans-69" x="98.828125"/>
     <use xlink:href="#DejaVuSans-6e" x="126.611328"/>
     <use xlink:href="#DejaVuSans-61" x="189.990234"/>
     <use xlink:href="#DejaVuSans-6c" x="251.269531"/>
     <use xlink:href="#DejaVuSans-5f" x="279.052734"/>
     <use xlink:href="#DejaVuSans-6e" x="329.052734"/>
     <use xlink:href="#DejaVuSans-61" x="392.431641"/>
     <use xlink:href="#DejaVuSans-69" x="453.710938"/>
     <use xlink:href="#DejaVuSans-76" x="481.494141"/>
     <use xlink:href="#DejaVuSans-65" x="540.673828"/>
     <use xlink:href="#DejaVuSans-5f" x="602.197266"/>
     <use xlink:href="#DejaVuSans-61" x="652.197266"/>
     <use xlink:href="#DejaVuSans-61" x="713.476562"/>
     <use xlink:href="#DejaVuSans-5f" x="774.755859"/>
     <use xlink:href="#DejaVuSans-65" x="824.755859"/>
     <use xlink:href="#DejaVuSans-75" x="886.279297"/>
     <use xlink:href="#DejaVuSans-72" x="949.658203"/>
     <use xlink:href="#DejaVuSans-75" x="990.771484"/>
     <use xlink:href="#DejaVuSans-73" x="1054.150391"/>
     <use xlink:href="#DejaVuSans-64" x="1106.25"/>
    </g>
   </g>
   <g id="legend_1">
    <g id="patch_7">
     <path d="M 64.6 93.506375 
L 258.804688 93.506375 
Q 260.804688 93.506375 260.804688 91.506375 
L 260.804688 48.472 
Q 260.804688 46.472 258.804688 46.472 
L 64.6 46.472 
Q 62.6 46.472 62.6 48.472 
L 62.6 91.506375 
Q 62.6 93.506375 64.6 93.506375 
z
" style="fill: #ffffff; opacity: 0.8; stroke: #cccccc; stroke-linejoin: miter"/>
    </g>
    <g id="line2d_22">
     <path d="M 66.6 54.570438 
L 76.6 54.570438 
L 86.6 54.570438 
" style="fill: none; stroke: #1f77b4; stroke-opacity: 0.7; stroke-width: 1.5; stroke-linecap: square"/>
    </g>
    <g id="text_20">
     <!-- Positive cumulative predictions -->
     <g transform="translate(94.6 58.070438) scale(0.1 -0.1)">
      <defs>
       <path id="DejaVuSans-50" d="M 1259 4147 
L 1259 2394 
L 2053 2394 
Q 2494 2394 2734 2622 
Q 2975 2850 2975 3272 
Q 2975 3691 2734 3919 
Q 2494 4147 2053 4147 
L 1259 4147 
z
M 628 4666 
L 2053 4666 
Q 2838 4666 3239 4311 
Q 3641 3956 3641 3272 
Q 3641 2581 3239 2228 
Q 2838 1875 2053 1875 
L 1259 1875 
L 1259 0 
L 628 0 
L 628 4666 
z
" transform="scale(0.015625)"/>
       <path id="DejaVuSans-6f" d="M 1959 3097 
Q 1497 3097 1228 2736 
Q 959 2375 959 1747 
Q 959 1119 1226 758 
Q 1494 397 1959 397 
Q 2419 397 2687 759 
Q 2956 1122 2956 1747 
Q 2956 2369 2687 2733 
Q 2419 3097 1959 3097 
z
M 1959 3584 
Q 2709 3584 3137 3096 
Q 3566 2609 3566 1747 
Q 3566 888 3137 398 
Q 2709 -91 1959 -91 
Q 1206 -91 779 398 
Q 353 888 353 1747 
Q 353 2609 779 3096 
Q 1206 3584 1959 3584 
z
" transform="scale(0.015625)"/>
       <path id="DejaVuSans-74" d="M 1172 4494 
L 1172 3500 
L 2356 3500 
L 2356 3053 
L 1172 3053 
L 1172 1153 
Q 1172 725 1289 603 
Q 1406 481 1766 481 
L 2356 481 
L 2356 0 
L 1766 0 
Q 1100 0 847 248 
Q 594 497 594 1153 
L 594 3053 
L 172 3053 
L 172 3500 
L 594 3500 
L 594 4494 
L 1172 4494 
z
" transform="scale(0.015625)"/>
       <path id="DejaVuSans-20" transform="scale(0.015625)"/>
       <path id="DejaVuSans-63" d="M 3122 3366 
L 3122 2828 
Q 2878 2963 2633 3030 
Q 2388 3097 2138 3097 
Q 1578 3097 1268 2742 
Q 959 2388 959 1747 
Q 959 1106 1268 751 
Q 1578 397 2138 397 
Q 2388 397 2633 464 
Q 2878 531 3122 666 
L 3122 134 
Q 2881 22 2623 -34 
Q 2366 -91 2075 -91 
Q 1284 -91 818 406 
Q 353 903 353 1747 
Q 353 2603 823 3093 
Q 1294 3584 2113 3584 
Q 2378 3584 2631 3529 
Q 2884 3475 3122 3366 
z
" transform="scale(0.015625)"/>
       <path id="DejaVuSans-6d" d="M 3328 2828 
Q 3544 3216 3844 3400 
Q 4144 3584 4550 3584 
Q 5097 3584 5394 3201 
Q 5691 2819 5691 2113 
L 5691 0 
L 5113 0 
L 5113 2094 
Q 5113 2597 4934 2840 
Q 4756 3084 4391 3084 
Q 3944 3084 3684 2787 
Q 3425 2491 3425 1978 
L 3425 0 
L 2847 0 
L 2847 2094 
Q 2847 2600 2669 2842 
Q 2491 3084 2119 3084 
Q 1678 3084 1418 2786 
Q 1159 2488 1159 1978 
L 1159 0 
L 581 0 
L 581 3500 
L 1159 3500 
L 1159 2956 
Q 1356 3278 1631 3431 
Q 1906 3584 2284 3584 
Q 2666 3584 2933 3390 
Q 3200 3197 3328 2828 
z
" transform="scale(0.015625)"/>
       <path id="DejaVuSans-70" d="M 1159 525 
L 1159 -1331 
L 581 -1331 
L 581 3500 
L 1159 3500 
L 1159 2969 
Q 1341 3281 1617 3432 
Q 1894 3584 2278 3584 
Q 2916 3584 3314 3078 
Q 3713 2572 3713 1747 
Q 3713 922 3314 415 
Q 2916 -91 2278 -91 
Q 1894 -91 1617 61 
Q 1341 213 1159 525 
z
M 3116 1747 
Q 3116 2381 2855 2742 
Q 2594 3103 2138 3103 
Q 1681 3103 1420 2742 
Q 1159 2381 1159 1747 
Q 1159 1113 1420 752 
Q 1681 391 2138 391 
Q 2594 391 2855 752 
Q 3116 1113 3116 1747 
z
" transform="scale(0.015625)"/>
      </defs>
      <use xlink:href="#DejaVuSans-50"/>
      <use xlink:href="#DejaVuSans-6f" x="56.677734"/>
      <use xlink:href="#DejaVuSans-73" x="117.859375"/>
      <use xlink:href="#DejaVuSans-69" x="169.958984"/>
      <use xlink:href="#DejaVuSans-74" x="197.742188"/>
      <use xlink:href="#DejaVuSans-69" x="236.951172"/>
      <use xlink:href="#DejaVuSans-76" x="264.734375"/>
      <use xlink:href="#DejaVuSans-65" x="323.914062"/>
      <use xlink:href="#DejaVuSans-20" x="385.4375"/>
      <use xlink:href="#DejaVuSans-63" x="417.224609"/>
      <use xlink:href="#DejaVuSans-75" x="472.205078"/>
      <use xlink:href="#DejaVuSans-6d" x="535.583984"/>
      <use xlink:href="#DejaVuSans-75" x="632.996094"/>
      <use xlink:href="#DejaVuSans-6c" x="696.375"/>
      <use xlink:href="#DejaVuSans-61" x="724.158203"/>
      <use xlink:href="#DejaVuSans-74" x="785.4375"/>
      <use xlink:href="#DejaVuSans-69" x="824.646484"/>
      <use xlink:href="#DejaVuSans-76" x="852.429688"/>
      <use xlink:href="#DejaVuSans-65" x="911.609375"/>
      <use xlink:href="#DejaVuSans-20" x="973.132812"/>
      <use xlink:href="#DejaVuSans-70" x="1004.919922"/>
      <use xlink:href="#DejaVuSans-72" x="1068.396484"/>
      <use xlink:href="#DejaVuSans-65" x="1107.259766"/>
      <use xlink:href="#DejaVuSans-64" x="1168.783203"/>
      <use xlink:href="#DejaVuSans-69" x="1232.259766"/>
      <use xlink:href="#DejaVuSans-63" x="1260.042969"/>
      <use xlink:href="#DejaVuSans-74" x="1315.023438"/>
      <use xlink:href="#DejaVuSans-69" x="1354.232422"/>
      <use xlink:href="#DejaVuSans-6f" x="1382.015625"/>
      <use xlink:href="#DejaVuSans-6e" x="1443.197266"/>
      <use xlink:href="#DejaVuSans-73" x="1506.576172"/>
     </g>
    </g>
    <g id="line2d_23">
     <path d="M 66.6 69.248563 
L 76.6 69.248563 
L 86.6 69.248563 
" style="fill: none; stroke: #ff7f0e; stroke-opacity: 0.7; stroke-width: 1.5; stroke-linecap: square"/>
    </g>
    <g id="text_21">
     <!-- Negative cumulative predictions -->
     <g transform="translate(94.6 72.748563) scale(0.1 -0.1)">
      <defs>
       <path id="DejaVuSans-4e" d="M 628 4666 
L 1478 4666 
L 3547 763 
L 3547 4666 
L 4159 4666 
L 4159 0 
L 3309 0 
L 1241 3903 
L 1241 0 
L 628 0 
L 628 4666 
z
" transform="scale(0.015625)"/>
       <path id="DejaVuSans-67" d="M 2906 1791 
Q 2906 2416 2648 2759 
Q 2391 3103 1925 3103 
Q 1463 3103 1205 2759 
Q 947 2416 947 1791 
Q 947 1169 1205 825 
Q 1463 481 1925 481 
Q 2391 481 2648 825 
Q 2906 1169 2906 1791 
z
M 3481 434 
Q 3481 -459 3084 -895 
Q 2688 -1331 1869 -1331 
Q 1566 -1331 1297 -1286 
Q 1028 -1241 775 -1147 
L 775 -588 
Q 1028 -725 1275 -790 
Q 1522 -856 1778 -856 
Q 2344 -856 2625 -561 
Q 2906 -266 2906 331 
L 2906 616 
Q 2728 306 2450 153 
Q 2172 0 1784 0 
Q 1141 0 747 490 
Q 353 981 353 1791 
Q 353 2603 747 3093 
Q 1141 3584 1784 3584 
Q 2172 3584 2450 3431 
Q 2728 3278 2906 2969 
L 2906 3500 
L 3481 3500 
L 3481 434 
z
" transform="scale(0.015625)"/>
      </defs>
      <use xlink:href="#DejaVuSans-4e"/>
      <use xlink:href="#DejaVuSans-65" x="74.804688"/>
      <use xlink:href="#DejaVuSans-67" x="136.328125"/>
      <use xlink:href="#DejaVuSans-61" x="199.804688"/>
      <use xlink:href="#DejaVuSans-74" x="261.083984"/>
      <use xlink:href="#DejaVuSans-69" x="300.292969"/>
      <use xlink:href="#DejaVuSans-76" x="328.076172"/>
      <use xlink:href="#DejaVuSans-65" x="387.255859"/>
      <use xlink:href="#DejaVuSans-20" x="448.779297"/>
      <use xlink:href="#DejaVuSans-63" x="480.566406"/>
      <use xlink:href="#DejaVuSans-75" x="535.546875"/>
      <use xlink:href="#DejaVuSans-6d" x="598.925781"/>
      <use xlink:href="#DejaVuSans-75" x="696.337891"/>
      <use xlink:href="#DejaVuSans-6c" x="759.716797"/>
      <use xlink:href="#DejaVuSans-61" x="787.5"/>
      <use xlink:href="#DejaVuSans-74" x="848.779297"/>
      <use xlink:href="#DejaVuSans-69" x="887.988281"/>
      <use xlink:href="#DejaVuSans-76" x="915.771484"/>
      <use xlink:href="#DejaVuSans-65" x="974.951172"/>
      <use xlink:href="#DejaVuSans-20" x="1036.474609"/>
      <use xlink:href="#DejaVuSans-70" x="1068.261719"/>
      <use xlink:href="#DejaVuSans-72" x="1131.738281"/>
      <use xlink:href="#DejaVuSans-65" x="1170.601562"/>
      <use xlink:href="#DejaVuSans-64" x="1232.125"/>
      <use xlink:href="#DejaVuSans-69" x="1295.601562"/>
      <use xlink:href="#DejaVuSans-63" x="1323.384766"/>
      <use xlink:href="#DejaVuSans-74" x="1378.365234"/>
      <use xlink:href="#DejaVuSans-69" x="1417.574219"/>
      <use xlink:href="#DejaVuSans-6f" x="1445.357422"/>
      <use xlink:href="#DejaVuSans-6e" x="1506.539062"/>
      <use xlink:href="#DejaVuSans-73" x="1569.917969"/>
     </g>
    </g>
    <g id="line2d_24">
     <path d="M 66.6 83.926688 
L 76.6 83.926688 
L 86.6 83.926688 
" style="fill: none; stroke: #2ca02c; stroke-opacity: 0.7; stroke-width: 1.5; stroke-linecap: square"/>
    </g>
    <g id="text_22">
     <!-- Average cumulative predictions -->
     <g transform="translate(94.6 87.426688) scale(0.1 -0.1)">
      <defs>
       <path id="DejaVuSans-41" d="M 2188 4044 
L 1331 1722 
L 3047 1722 
L 2188 4044 
z
M 1831 4666 
L 2547 4666 
L 4325 0 
L 3669 0 
L 3244 1197 
L 1141 1197 
L 716 0 
L 50 0 
L 1831 4666 
z
" transform="scale(0.015625)"/>
      </defs>
      <use xlink:href="#DejaVuSans-41"/>
      <use xlink:href="#DejaVuSans-76" x="62.533203"/>
      <use xlink:href="#DejaVuSans-65" x="121.712891"/>
      <use xlink:href="#DejaVuSans-72" x="183.236328"/>
      <use xlink:href="#DejaVuSans-61" x="224.349609"/>
      <use xlink:href="#DejaVuSans-67" x="285.628906"/>
      <use xlink:href="#DejaVuSans-65" x="349.105469"/>
      <use xlink:href="#DejaVuSans-20" x="410.628906"/>
      <use xlink:href="#DejaVuSans-63" x="442.416016"/>
      <use xlink:href="#DejaVuSans-75" x="497.396484"/>
      <use xlink:href="#DejaVuSans-6d" x="560.775391"/>
      <use xlink:href="#DejaVuSans-75" x="658.1875"/>
      <use xlink:href="#DejaVuSans-6c" x="721.566406"/>
      <use xlink:href="#DejaVuSans-61" x="749.349609"/>
      <use xlink:href="#DejaVuSans-74" x="810.628906"/>
      <use xlink:href="#DejaVuSans-69" x="849.837891"/>
      <use xlink:href="#DejaVuSans-76" x="877.621094"/>
      <use xlink:href="#DejaVuSans-65" x="936.800781"/>
      <use xlink:href="#DejaVuSans-20" x="998.324219"/>
      <use xlink:href="#DejaVuSans-70" x="1030.111328"/>
      <use xlink:href="#DejaVuSans-72" x="1093.587891"/>
      <use xlink:href="#DejaVuSans-65" x="1132.451172"/>
      <use xlink:href="#DejaVuSans-64" x="1193.974609"/>
      <use xlink:href="#DejaVuSans-69" x="1257.451172"/>
      <use xlink:href="#DejaVuSans-63" x="1285.234375"/>
      <use xlink:href="#DejaVuSans-74" x="1340.214844"/>
      <use xlink:href="#DejaVuSans-69" x="1379.423828"/>
      <use xlink:href="#DejaVuSans-6f" x="1407.207031"/>
      <use xlink:href="#DejaVuSans-6e" x="1468.388672"/>
      <use xlink:href="#DejaVuSans-73" x="1531.767578"/>
     </g>
    </g>
   </g>
  </g>
 </g>
 <defs>
  <clipPath id="pdfc54576a4">
   <rect x="57.6" y="41.472" width="357.12" height="266.112"/>
  </clipPath>
 </defs>
</svg>
