<?xml version="1.0" encoding="utf-8" standalone="no"?>
<!DOCTYPE svg PUBLIC "-//W3C//DTD SVG 1.1//EN"
  "http://www.w3.org/Graphics/SVG/1.1/DTD/svg11.dtd">
<svg xmlns:xlink="http://www.w3.org/1999/xlink" width="460.8pt" height="345.6pt" viewBox="0 0 460.8 345.6" xmlns="http://www.w3.org/2000/svg" version="1.1">
 <metadata>
  <rdf:RDF xmlns:dc="http://purl.org/dc/elements/1.1/" xmlns:cc="http://creativecommons.org/ns#" xmlns:rdf="http://www.w3.org/1999/02/22-rdf-syntax-ns#">
   <cc:Work>
    <dc:type rdf:resource="http://purl.org/dc/dcmitype/StillImage"/>
    <dc:date>2024-09-08T12:15:47.638894</dc:date>
    <dc:format>image/svg+xml</dc:format>
    <dc:creator>
     <cc:Agent>
      <dc:title>Matplotlib v3.8.3, https://matplotlib.org/</dc:title>
     </cc:Agent>
    </dc:creator>
   </cc:Work>
  </rdf:RDF>
 </metadata>
 <defs>
  <style type="text/css">*{stroke-linejoin: round; stroke-linecap: butt}</style>
 </defs>
 <g id="figure_1">
  <g id="patch_1">
   <path d="M 0 345.6 
L 460.8 345.6 
L 460.8 0 
L 0 0 
z
" style="fill: #ffffff"/>
  </g>
  <g id="axes_1">
   <g id="patch_2">
    <path d="M 57.6 307.584 
L 414.72 307.584 
L 414.72 41.472 
L 57.6 41.472 
z
" style="fill: #ffffff"/>
   </g>
   <g id="matplotlib.axis_1">
    <g id="xtick_1">
     <g id="line2d_1">
      <defs>
       <path id="m7d24d3fd49" d="M 0 0 
L 0 3.5 
" style="stroke: #000000; stroke-width: 0.8"/>
      </defs>
      <g>
       <use xlink:href="#m7d24d3fd49" x="73.832727" y="307.584" style="stroke: #000000; stroke-width: 0.8"/>
      </g>
     </g>
     <g id="text_1">
      <!-- 0 -->
      <g transform="translate(70.651477 322.182437) scale(0.1 -0.1)">
       <defs>
        <path id="DejaVuSans-30" d="M 2034 4250 
Q 1547 4250 1301 3770 
Q 1056 3291 1056 2328 
Q 1056 1369 1301 889 
Q 1547 409 2034 409 
Q 2525 409 2770 889 
Q 3016 1369 3016 2328 
Q 3016 3291 2770 3770 
Q 2525 4250 2034 4250 
z
M 2034 4750 
Q 2819 4750 3233 4129 
Q 3647 3509 3647 2328 
Q 3647 1150 3233 529 
Q 2819 -91 2034 -91 
Q 1250 -91 836 529 
Q 422 1150 422 2328 
Q 422 3509 836 4129 
Q 1250 4750 2034 4750 
z
" transform="scale(0.015625)"/>
       </defs>
       <use xlink:href="#DejaVuSans-30"/>
      </g>
     </g>
    </g>
    <g id="xtick_2">
     <g id="line2d_2">
      <g>
       <use xlink:href="#m7d24d3fd49" x="116.18818" y="307.584" style="stroke: #000000; stroke-width: 0.8"/>
      </g>
     </g>
     <g id="text_2">
      <!-- 200 -->
      <g transform="translate(106.64443 322.182437) scale(0.1 -0.1)">
       <defs>
        <path id="DejaVuSans-32" d="M 1228 531 
L 3431 531 
L 3431 0 
L 469 0 
L 469 531 
Q 828 903 1448 1529 
Q 2069 2156 2228 2338 
Q 2531 2678 2651 2914 
Q 2772 3150 2772 3378 
Q 2772 3750 2511 3984 
Q 2250 4219 1831 4219 
Q 1534 4219 1204 4116 
Q 875 4013 500 3803 
L 500 4441 
Q 881 4594 1212 4672 
Q 1544 4750 1819 4750 
Q 2544 4750 2975 4387 
Q 3406 4025 3406 3419 
Q 3406 3131 3298 2873 
Q 3191 2616 2906 2266 
Q 2828 2175 2409 1742 
Q 1991 1309 1228 531 
z
" transform="scale(0.015625)"/>
       </defs>
       <use xlink:href="#DejaVuSans-32"/>
       <use xlink:href="#DejaVuSans-30" x="63.623047"/>
       <use xlink:href="#DejaVuSans-30" x="127.246094"/>
      </g>
     </g>
    </g>
    <g id="xtick_3">
     <g id="line2d_3">
      <g>
       <use xlink:href="#m7d24d3fd49" x="158.543633" y="307.584" style="stroke: #000000; stroke-width: 0.8"/>
      </g>
     </g>
     <g id="text_3">
      <!-- 400 -->
      <g transform="translate(148.999883 322.182437) scale(0.1 -0.1)">
       <defs>
        <path id="DejaVuSans-34" d="M 2419 4116 
L 825 1625 
L 2419 1625 
L 2419 4116 
z
M 2253 4666 
L 3047 4666 
L 3047 1625 
L 3713 1625 
L 3713 1100 
L 3047 1100 
L 3047 0 
L 2419 0 
L 2419 1100 
L 313 1100 
L 313 1709 
L 2253 4666 
z
" transform="scale(0.015625)"/>
       </defs>
       <use xlink:href="#DejaVuSans-34"/>
       <use xlink:href="#DejaVuSans-30" x="63.623047"/>
       <use xlink:href="#DejaVuSans-30" x="127.246094"/>
      </g>
     </g>
    </g>
    <g id="xtick_4">
     <g id="line2d_4">
      <g>
       <use xlink:href="#m7d24d3fd49" x="200.899086" y="307.584" style="stroke: #000000; stroke-width: 0.8"/>
      </g>
     </g>
     <g id="text_4">
      <!-- 600 -->
      <g transform="translate(191.355336 322.182437) scale(0.1 -0.1)">
       <defs>
        <path id="DejaVuSans-36" d="M 2113 2584 
Q 1688 2584 1439 2293 
Q 1191 2003 1191 1497 
Q 1191 994 1439 701 
Q 1688 409 2113 409 
Q 2538 409 2786 701 
Q 3034 994 3034 1497 
Q 3034 2003 2786 2293 
Q 2538 2584 2113 2584 
z
M 3366 4563 
L 3366 3988 
Q 3128 4100 2886 4159 
Q 2644 4219 2406 4219 
Q 1781 4219 1451 3797 
Q 1122 3375 1075 2522 
Q 1259 2794 1537 2939 
Q 1816 3084 2150 3084 
Q 2853 3084 3261 2657 
Q 3669 2231 3669 1497 
Q 3669 778 3244 343 
Q 2819 -91 2113 -91 
Q 1303 -91 875 529 
Q 447 1150 447 2328 
Q 447 3434 972 4092 
Q 1497 4750 2381 4750 
Q 2619 4750 2861 4703 
Q 3103 4656 3366 4563 
z
" transform="scale(0.015625)"/>
       </defs>
       <use xlink:href="#DejaVuSans-36"/>
       <use xlink:href="#DejaVuSans-30" x="63.623047"/>
       <use xlink:href="#DejaVuSans-30" x="127.246094"/>
      </g>
     </g>
    </g>
    <g id="xtick_5">
     <g id="line2d_5">
      <g>
       <use xlink:href="#m7d24d3fd49" x="243.254538" y="307.584" style="stroke: #000000; stroke-width: 0.8"/>
      </g>
     </g>
     <g id="text_5">
      <!-- 800 -->
      <g transform="translate(233.710788 322.182437) scale(0.1 -0.1)">
       <defs>
        <path id="DejaVuSans-38" d="M 2034 2216 
Q 1584 2216 1326 1975 
Q 1069 1734 1069 1313 
Q 1069 891 1326 650 
Q 1584 409 2034 409 
Q 2484 409 2743 651 
Q 3003 894 3003 1313 
Q 3003 1734 2745 1975 
Q 2488 2216 2034 2216 
z
M 1403 2484 
Q 997 2584 770 2862 
Q 544 3141 544 3541 
Q 544 4100 942 4425 
Q 1341 4750 2034 4750 
Q 2731 4750 3128 4425 
Q 3525 4100 3525 3541 
Q 3525 3141 3298 2862 
Q 3072 2584 2669 2484 
Q 3125 2378 3379 2068 
Q 3634 1759 3634 1313 
Q 3634 634 3220 271 
Q 2806 -91 2034 -91 
Q 1263 -91 848 271 
Q 434 634 434 1313 
Q 434 1759 690 2068 
Q 947 2378 1403 2484 
z
M 1172 3481 
Q 1172 3119 1398 2916 
Q 1625 2713 2034 2713 
Q 2441 2713 2670 2916 
Q 2900 3119 2900 3481 
Q 2900 3844 2670 4047 
Q 2441 4250 2034 4250 
Q 1625 4250 1398 4047 
Q 1172 3844 1172 3481 
z
" transform="scale(0.015625)"/>
       </defs>
       <use xlink:href="#DejaVuSans-38"/>
       <use xlink:href="#DejaVuSans-30" x="63.623047"/>
       <use xlink:href="#DejaVuSans-30" x="127.246094"/>
      </g>
     </g>
    </g>
    <g id="xtick_6">
     <g id="line2d_6">
      <g>
       <use xlink:href="#m7d24d3fd49" x="285.609991" y="307.584" style="stroke: #000000; stroke-width: 0.8"/>
      </g>
     </g>
     <g id="text_6">
      <!-- 1000 -->
      <g transform="translate(272.884991 322.182437) scale(0.1 -0.1)">
       <defs>
        <path id="DejaVuSans-31" d="M 794 531 
L 1825 531 
L 1825 4091 
L 703 3866 
L 703 4441 
L 1819 4666 
L 2450 4666 
L 2450 531 
L 3481 531 
L 3481 0 
L 794 0 
L 794 531 
z
" transform="scale(0.015625)"/>
       </defs>
       <use xlink:href="#DejaVuSans-31"/>
       <use xlink:href="#DejaVuSans-30" x="63.623047"/>
       <use xlink:href="#DejaVuSans-30" x="127.246094"/>
       <use xlink:href="#DejaVuSans-30" x="190.869141"/>
      </g>
     </g>
    </g>
    <g id="xtick_7">
     <g id="line2d_7">
      <g>
       <use xlink:href="#m7d24d3fd49" x="327.965444" y="307.584" style="stroke: #000000; stroke-width: 0.8"/>
      </g>
     </g>
     <g id="text_7">
      <!-- 1200 -->
      <g transform="translate(315.240444 322.182437) scale(0.1 -0.1)">
       <use xlink:href="#DejaVuSans-31"/>
       <use xlink:href="#DejaVuSans-32" x="63.623047"/>
       <use xlink:href="#DejaVuSans-30" x="127.246094"/>
       <use xlink:href="#DejaVuSans-30" x="190.869141"/>
      </g>
     </g>
    </g>
    <g id="xtick_8">
     <g id="line2d_8">
      <g>
       <use xlink:href="#m7d24d3fd49" x="370.320897" y="307.584" style="stroke: #000000; stroke-width: 0.8"/>
      </g>
     </g>
     <g id="text_8">
      <!-- 1400 -->
      <g transform="translate(357.595897 322.182437) scale(0.1 -0.1)">
       <use xlink:href="#DejaVuSans-31"/>
       <use xlink:href="#DejaVuSans-34" x="63.623047"/>
       <use xlink:href="#DejaVuSans-30" x="127.246094"/>
       <use xlink:href="#DejaVuSans-30" x="190.869141"/>
      </g>
     </g>
    </g>
    <g id="xtick_9">
     <g id="line2d_9">
      <g>
       <use xlink:href="#m7d24d3fd49" x="412.676349" y="307.584" style="stroke: #000000; stroke-width: 0.8"/>
      </g>
     </g>
     <g id="text_9">
      <!-- 1600 -->
      <g transform="translate(399.951349 322.182437) scale(0.1 -0.1)">
       <use xlink:href="#DejaVuSans-31"/>
       <use xlink:href="#DejaVuSans-36" x="63.623047"/>
       <use xlink:href="#DejaVuSans-30" x="127.246094"/>
       <use xlink:href="#DejaVuSans-30" x="190.869141"/>
      </g>
     </g>
    </g>
   </g>
   <g id="matplotlib.axis_2">
    <g id="ytick_1">
     <g id="line2d_10">
      <defs>
       <path id="m23168e3e90" d="M 0 0 
L -3.5 0 
" style="stroke: #000000; stroke-width: 0.8"/>
      </defs>
      <g>
       <use xlink:href="#m23168e3e90" x="57.6" y="306.32873" style="stroke: #000000; stroke-width: 0.8"/>
      </g>
     </g>
     <g id="text_10">
      <!-- −4 -->
      <g transform="translate(35.857813 310.127949) scale(0.1 -0.1)">
       <defs>
        <path id="DejaVuSans-2212" d="M 678 2272 
L 4684 2272 
L 4684 1741 
L 678 1741 
L 678 2272 
z
" transform="scale(0.015625)"/>
       </defs>
       <use xlink:href="#DejaVuSans-2212"/>
       <use xlink:href="#DejaVuSans-34" x="83.789062"/>
      </g>
     </g>
    </g>
    <g id="ytick_2">
     <g id="line2d_11">
      <g>
       <use xlink:href="#m23168e3e90" x="57.6" y="273.988666" style="stroke: #000000; stroke-width: 0.8"/>
      </g>
     </g>
     <g id="text_11">
      <!-- −3 -->
      <g transform="translate(35.857813 277.787884) scale(0.1 -0.1)">
       <defs>
        <path id="DejaVuSans-33" d="M 2597 2516 
Q 3050 2419 3304 2112 
Q 3559 1806 3559 1356 
Q 3559 666 3084 287 
Q 2609 -91 1734 -91 
Q 1441 -91 1130 -33 
Q 819 25 488 141 
L 488 750 
Q 750 597 1062 519 
Q 1375 441 1716 441 
Q 2309 441 2620 675 
Q 2931 909 2931 1356 
Q 2931 1769 2642 2001 
Q 2353 2234 1838 2234 
L 1294 2234 
L 1294 2753 
L 1863 2753 
Q 2328 2753 2575 2939 
Q 2822 3125 2822 3475 
Q 2822 3834 2567 4026 
Q 2313 4219 1838 4219 
Q 1578 4219 1281 4162 
Q 984 4106 628 3988 
L 628 4550 
Q 988 4650 1302 4700 
Q 1616 4750 1894 4750 
Q 2613 4750 3031 4423 
Q 3450 4097 3450 3541 
Q 3450 3153 3228 2886 
Q 3006 2619 2597 2516 
z
" transform="scale(0.015625)"/>
       </defs>
       <use xlink:href="#DejaVuSans-2212"/>
       <use xlink:href="#DejaVuSans-33" x="83.789062"/>
      </g>
     </g>
    </g>
    <g id="ytick_3">
     <g id="line2d_12">
      <g>
       <use xlink:href="#m23168e3e90" x="57.6" y="241.648601" style="stroke: #000000; stroke-width: 0.8"/>
      </g>
     </g>
     <g id="text_12">
      <!-- −2 -->
      <g transform="translate(35.857813 245.44782) scale(0.1 -0.1)">
       <use xlink:href="#DejaVuSans-2212"/>
       <use xlink:href="#DejaVuSans-32" x="83.789062"/>
      </g>
     </g>
    </g>
    <g id="ytick_4">
     <g id="line2d_13">
      <g>
       <use xlink:href="#m23168e3e90" x="57.6" y="209.308537" style="stroke: #000000; stroke-width: 0.8"/>
      </g>
     </g>
     <g id="text_13">
      <!-- −1 -->
      <g transform="translate(35.857813 213.107755) scale(0.1 -0.1)">
       <use xlink:href="#DejaVuSans-2212"/>
       <use xlink:href="#DejaVuSans-31" x="83.789062"/>
      </g>
     </g>
    </g>
    <g id="ytick_5">
     <g id="line2d_14">
      <g>
       <use xlink:href="#m23168e3e90" x="57.6" y="176.968472" style="stroke: #000000; stroke-width: 0.8"/>
      </g>
     </g>
     <g id="text_14">
      <!-- 0 -->
      <g transform="translate(44.2375 180.767691) scale(0.1 -0.1)">
       <use xlink:href="#DejaVuSans-30"/>
      </g>
     </g>
    </g>
    <g id="ytick_6">
     <g id="line2d_15">
      <g>
       <use xlink:href="#m23168e3e90" x="57.6" y="144.628408" style="stroke: #000000; stroke-width: 0.8"/>
      </g>
     </g>
     <g id="text_15">
      <!-- 1 -->
      <g transform="translate(44.2375 148.427626) scale(0.1 -0.1)">
       <use xlink:href="#DejaVuSans-31"/>
      </g>
     </g>
    </g>
    <g id="ytick_7">
     <g id="line2d_16">
      <g>
       <use xlink:href="#m23168e3e90" x="57.6" y="112.288343" style="stroke: #000000; stroke-width: 0.8"/>
      </g>
     </g>
     <g id="text_16">
      <!-- 2 -->
      <g transform="translate(44.2375 116.087562) scale(0.1 -0.1)">
       <use xlink:href="#DejaVuSans-32"/>
      </g>
     </g>
    </g>
    <g id="ytick_8">
     <g id="line2d_17">
      <g>
       <use xlink:href="#m23168e3e90" x="57.6" y="79.948279" style="stroke: #000000; stroke-width: 0.8"/>
      </g>
     </g>
     <g id="text_17">
      <!-- 3 -->
      <g transform="translate(44.2375 83.747497) scale(0.1 -0.1)">
       <use xlink:href="#DejaVuSans-33"/>
      </g>
     </g>
    </g>
    <g id="ytick_9">
     <g id="line2d_18">
      <g>
       <use xlink:href="#m23168e3e90" x="57.6" y="47.608214" style="stroke: #000000; stroke-width: 0.8"/>
      </g>
     </g>
     <g id="text_18">
      <!-- 4 -->
      <g transform="translate(44.2375 51.407433) scale(0.1 -0.1)">
       <use xlink:href="#DejaVuSans-34"/>
      </g>
     </g>
    </g>
   </g>
   <g id="line2d_19">
    <path d="M 73.832727 176.979232 
L 74.256282 177.545793 
L 74.468059 177.929883 
L 74.679836 178.057659 
L 74.891614 177.813465 
L 75.315168 177.634044 
L 75.526945 177.513833 
L 75.738723 177.666757 
L 75.9505 177.633499 
L 76.162277 177.790897 
L 76.585832 177.692446 
L 77.009386 178.260455 
L 77.644718 178.788889 
L 77.856495 178.537965 
L 78.28005 178.772233 
L 78.491827 179.059368 
L 78.703604 179.093235 
L 78.915382 178.972485 
L 79.127159 179.011825 
L 79.338936 179.334484 
L 79.550713 179.050939 
L 79.762491 179.408514 
L 79.974268 179.322966 
L 80.186045 179.460141 
L 80.397822 179.860275 
L 80.6096 179.764225 
L 80.821377 179.49818 
L 81.244932 179.73419 
L 81.668486 179.730019 
L 82.303818 179.882036 
L 82.93915 180.303215 
L 83.362704 180.258594 
L 83.574481 180.487368 
L 84.209813 180.366536 
L 84.633368 180.037921 
L 84.845145 180.234068 
L 85.2687 179.982192 
L 85.480477 180.136747 
L 85.692254 180.105852 
L 85.904031 179.922678 
L 86.115809 179.898359 
L 86.327586 180.14927 
L 87.174695 180.060655 
L 87.598249 180.533646 
L 87.810027 180.560431 
L 88.021804 180.300555 
L 88.445358 180.422471 
L 88.657136 180.429671 
L 89.08069 180.681203 
L 89.292468 180.504313 
L 89.504245 180.605004 
L 89.927799 180.447824 
L 90.139577 180.295582 
L 90.351354 180.843999 
L 90.563131 181.072413 
L 90.774908 181.060941 
L 92.045572 181.846039 
L 92.257349 181.825586 
L 92.469126 182.105507 
L 92.680904 181.396056 
L 93.104458 181.948677 
L 93.316236 181.949036 
L 93.528013 182.084764 
L 94.163345 183.191717 
L 94.798676 182.823822 
L 95.010454 183.193719 
L 95.222231 183.197055 
L 96.281117 184.076289 
L 96.704672 183.855273 
L 97.128226 183.992341 
L 97.340004 184.211381 
L 97.551781 184.133839 
L 97.975335 184.323485 
L 98.187113 184.644085 
L 98.39889 184.534647 
L 98.610667 184.584071 
L 98.822444 184.790629 
L 99.034222 184.510437 
L 99.457776 185.007469 
L 100.304885 184.704105 
L 100.516663 184.759142 
L 100.940217 185.100038 
L 101.363772 184.583359 
L 101.575549 184.712123 
L 101.787326 184.653472 
L 102.210881 184.990091 
L 102.846212 186.052093 
L 103.05799 186.109513 
L 103.269767 186.02034 
L 103.481544 186.444114 
L 104.328653 186.842852 
L 104.540431 186.743809 
L 104.752208 186.967121 
L 104.963985 186.922626 
L 105.175762 187.266757 
L 105.38754 187.337883 
L 105.599317 187.245959 
L 105.811094 187.500028 
L 106.022871 187.557993 
L 106.446426 188.013753 
L 106.658203 187.843381 
L 107.081758 188.006306 
L 107.293535 187.987644 
L 107.505312 188.40037 
L 107.717089 188.344096 
L 108.352421 188.59363 
L 108.564199 188.311953 
L 108.987753 188.294021 
L 109.19953 188.349475 
L 109.411308 188.223563 
L 109.834862 188.663227 
L 110.046639 188.718346 
L 110.681971 189.383233 
L 110.893748 189.237483 
L 111.105526 189.407568 
L 111.317303 189.421177 
L 111.52908 189.226907 
L 111.740857 189.197763 
L 111.952635 189.441325 
L 112.164412 189.339582 
L 112.376189 189.430691 
L 112.587967 189.247456 
L 112.799744 189.274707 
L 113.011521 189.414697 
L 113.646853 189.375238 
L 113.85863 189.751566 
L 114.282185 189.868993 
L 114.705739 190.031428 
L 115.341071 189.642023 
L 115.552848 190.005983 
L 115.976403 190.239097 
L 116.399957 190.941015 
L 116.611735 190.864125 
L 117.035289 191.125352 
L 117.247066 190.972288 
L 117.670621 191.022031 
L 118.094175 191.507287 
L 118.305953 191.491818 
L 119.364839 192.174445 
L 119.788394 191.96887 
L 120.000171 192.181083 
L 120.423725 192.013081 
L 120.84728 192.305753 
L 121.270834 192.698938 
L 121.482612 192.439327 
L 121.906166 192.740962 
L 122.117943 192.656741 
L 122.329721 192.997474 
L 122.541498 193.087006 
L 122.753275 193.381099 
L 122.965052 193.350287 
L 123.17683 193.01798 
L 123.388607 193.412594 
L 124.023939 193.784731 
L 124.235716 194.249638 
L 124.659271 194.325694 
L 124.871048 194.530291 
L 125.082825 194.446325 
L 126.353489 194.917745 
L 126.565266 194.784825 
L 126.777043 195.186369 
L 127.412375 195.615837 
L 127.624152 195.494422 
L 128.047707 195.579553 
L 129.106593 195.438925 
L 129.31837 195.705641 
L 129.530148 195.553298 
L 129.953702 195.908103 
L 130.800811 196.396669 
L 131.224366 196.602431 
L 131.436143 196.724123 
L 132.706807 196.749396 
L 132.918584 196.40823 
L 133.765693 197.156019 
L 133.97747 197.141466 
L 134.612802 197.491585 
L 134.824579 197.748973 
L 135.248134 197.301188 
L 135.459911 197.399819 
L 135.883466 197.20173 
L 136.518797 197.317363 
L 138.63657 198.361104 
L 138.848347 198.342215 
L 139.060125 198.448975 
L 139.271902 198.356179 
L 139.695456 198.60382 
L 139.907234 198.567702 
L 140.119011 198.406296 
L 140.542565 198.618745 
L 140.96612 198.961926 
L 141.601452 198.915318 
L 142.872115 199.100069 
L 143.507447 198.920415 
L 144.142779 198.939117 
L 144.566333 199.209045 
L 144.989888 199.128072 
L 145.413442 199.064356 
L 146.048774 199.551576 
L 146.260552 199.493538 
L 146.684106 199.90186 
L 146.895883 199.857265 
L 147.107661 200.011756 
L 147.742992 199.876879 
L 148.590101 200.479553 
L 148.801879 200.838539 
L 149.860765 200.75372 
L 150.072542 200.570116 
L 150.707874 200.795167 
L 150.919651 200.694887 
L 151.343206 200.876111 
L 151.554983 201.126396 
L 151.76676 201.173006 
L 152.190315 201.475117 
L 152.402092 201.409656 
L 152.825647 201.771968 
L 153.460978 201.384778 
L 154.308088 201.611889 
L 154.519865 201.7027 
L 154.731642 201.483121 
L 155.155197 201.771712 
L 155.366974 202.306818 
L 155.790528 202.314823 
L 156.637637 202.596852 
L 157.272969 202.493507 
L 157.908301 202.665702 
L 158.120078 202.716111 
L 158.331856 202.97561 
L 158.75541 202.874032 
L 159.178965 202.930182 
L 159.390742 202.746043 
L 159.814296 202.782074 
L 160.026074 203.053037 
L 161.08496 203.316412 
L 161.508514 203.65858 
L 161.720292 203.477927 
L 161.932069 203.811665 
L 162.143846 203.709161 
L 162.355624 203.843206 
L 162.779178 203.809677 
L 162.990955 203.980542 
L 163.202733 203.853207 
L 163.41451 203.856414 
L 163.626287 203.991717 
L 163.838064 203.907714 
L 164.473396 204.314794 
L 164.896951 204.385558 
L 165.108728 204.378711 
L 165.532283 204.676267 
L 166.167614 204.903752 
L 166.802946 205.496249 
L 167.650055 205.656373 
L 168.07361 205.770722 
L 168.920719 206.159724 
L 169.767828 205.730942 
L 171.038491 206.249825 
L 171.462046 206.443216 
L 171.8856 206.415854 
L 172.309155 206.327119 
L 173.156264 206.535991 
L 173.579819 206.833808 
L 174.003373 206.963253 
L 174.21515 206.811689 
L 174.850482 207.194963 
L 175.062259 207.399558 
L 175.274037 207.18497 
L 175.697591 207.290793 
L 175.909368 207.198955 
L 177.180032 207.708519 
L 177.391809 208.019465 
L 178.027141 208.227418 
L 178.238918 208.035064 
L 178.450696 208.099564 
L 178.662473 208.311389 
L 179.086027 208.186152 
L 180.356691 208.578716 
L 180.780246 208.461057 
L 181.2038 208.563491 
L 181.627355 208.374259 
L 182.262686 208.443004 
L 182.898018 208.695102 
L 183.53335 208.545332 
L 183.956904 208.41712 
L 184.380459 208.402543 
L 184.804014 208.480518 
L 185.015791 208.554517 
L 185.227568 208.494722 
L 186.498232 209.263879 
L 186.921786 209.898436 
L 187.345341 210.371881 
L 187.557118 210.250149 
L 187.768895 210.580841 
L 187.980672 211.15085 
L 188.19245 211.234212 
L 188.827782 210.681248 
L 189.039559 210.638795 
L 189.251336 210.811253 
L 189.463113 210.449911 
L 189.674891 210.384661 
L 189.886668 209.593538 
L 191.157331 212.172423 
L 191.369109 211.834044 
L 191.580886 211.868289 
L 192.216218 211.390144 
L 192.427995 211.483302 
L 193.275104 212.595784 
L 193.486881 212.688493 
L 193.698659 212.995614 
L 194.122213 212.714818 
L 194.757545 213.058548 
L 195.181099 213.041148 
L 195.392877 213.351609 
L 195.816431 213.524546 
L 196.451763 213.995869 
L 196.875318 213.651225 
L 197.087095 213.610072 
L 197.510649 213.950691 
L 197.722427 213.880153 
L 198.145981 214.096434 
L 198.569536 214.32714 
L 198.781313 214.688404 
L 199.416645 215.055966 
L 199.628422 214.956343 
L 199.840199 215.052941 
L 200.263754 215.56126 
L 200.687308 216.054114 
L 200.899086 216.189936 
L 201.534417 217.189399 
L 201.957972 217.242871 
L 202.381526 217.587956 
L 202.805081 217.41585 
L 203.016858 217.829314 
L 203.228635 217.626128 
L 203.863967 217.784332 
L 204.287522 218.52913 
L 204.711076 218.311237 
L 205.134631 218.539271 
L 205.346408 218.557908 
L 205.769963 218.707755 
L 205.98174 218.821917 
L 206.193517 219.131545 
L 206.405294 219.02683 
L 206.617072 219.270014 
L 206.828849 219.171235 
L 207.252403 219.412679 
L 207.464181 219.639148 
L 207.887735 219.721151 
L 209.370176 221.690081 
L 209.581953 221.63966 
L 210.005508 222.345321 
L 210.217285 222.167524 
L 210.429062 222.215702 
L 210.852617 222.73573 
L 211.064394 222.705641 
L 211.276171 222.506783 
L 211.487949 222.507446 
L 211.911503 222.969208 
L 212.758612 223.901155 
L 212.97039 223.464012 
L 213.182167 223.575585 
L 213.393944 223.39128 
L 213.605721 223.404475 
L 213.817499 223.729438 
L 214.241053 223.903665 
L 214.45283 224.295743 
L 214.876385 224.576194 
L 215.088162 224.470179 
L 216.570603 225.199233 
L 216.78238 225.350648 
L 217.205935 225.198338 
L 217.417712 225.419283 
L 217.629489 225.451469 
L 218.053044 225.097482 
L 218.264821 224.966383 
L 219.959039 226.048801 
L 220.170817 225.990666 
L 221.017926 226.41278 
L 221.229703 226.18233 
L 221.865035 226.398575 
L 222.288589 226.932312 
L 222.500366 227.012057 
L 222.712144 226.957021 
L 222.923921 227.143961 
L 223.982807 226.817814 
L 224.194585 226.951853 
L 224.406362 227.409435 
L 224.618139 227.32358 
L 225.041694 227.818126 
L 225.253471 227.635713 
L 225.888803 227.740807 
L 226.10058 227.986183 
L 226.735912 228.084661 
L 227.159466 228.137132 
L 227.371244 228.128902 
L 227.794798 228.381497 
L 228.006575 228.45181 
L 228.218353 228.700482 
L 228.43013 228.625262 
L 228.641907 229.094673 
L 229.277239 229.567847 
L 229.912571 229.799097 
L 230.124348 230.129862 
L 230.547903 230.24322 
L 230.75968 230.405259 
L 231.183234 231.060318 
L 231.395012 230.998656 
L 231.606789 231.211382 
L 231.818566 231.137545 
L 233.08923 232.087013 
L 233.301007 231.704702 
L 233.512784 231.971936 
L 233.724561 232.047782 
L 234.148116 232.368887 
L 234.783448 232.030449 
L 234.995225 232.338619 
L 235.207002 232.349783 
L 235.41878 232.500189 
L 235.630557 232.377153 
L 235.842334 232.577312 
L 236.054111 232.946909 
L 236.265889 232.909665 
L 236.689443 233.225883 
L 237.536552 233.22132 
L 237.748329 233.345909 
L 237.960107 233.252799 
L 238.171884 233.283209 
L 238.383661 233.437475 
L 238.595439 233.313849 
L 238.807216 233.676761 
L 240.077879 234.443883 
L 240.501434 234.337461 
L 241.136766 235.111275 
L 241.348543 235.128511 
L 241.772097 235.309387 
L 242.195652 235.063393 
L 242.407429 235.270526 
L 242.619207 235.241245 
L 243.042761 235.059142 
L 243.254538 234.914163 
L 243.88987 235.643506 
L 244.525202 235.82207 
L 244.736979 236.126237 
L 245.160534 235.871423 
L 245.372311 236.106134 
L 245.584088 235.898609 
L 246.854752 236.298658 
L 247.066529 236.604961 
L 247.278306 236.642209 
L 247.701861 237.059926 
L 249.396079 237.730438 
L 249.607856 238.064864 
L 250.87852 238.530669 
L 251.302074 238.840309 
L 251.513852 238.584128 
L 251.725629 238.783452 
L 251.937406 238.751182 
L 252.149183 238.834807 
L 252.572738 239.548986 
L 253.419847 239.235619 
L 253.631624 239.628287 
L 253.843402 239.665004 
L 254.055179 239.842297 
L 254.266956 239.665917 
L 254.478733 239.860103 
L 254.690511 239.760278 
L 255.114065 240.039865 
L 255.325842 239.867862 
L 255.749397 239.966322 
L 255.961174 240.168998 
L 256.384729 240.204207 
L 256.596506 239.973897 
L 257.02006 240.346614 
L 257.231838 240.284439 
L 257.655392 240.38274 
L 257.86717 240.180533 
L 258.290724 240.262517 
L 258.502501 239.867131 
L 258.714279 239.729747 
L 258.926056 239.729559 
L 259.34961 240.253933 
L 260.196719 240.714321 
L 260.620274 240.72996 
L 261.043829 240.930434 
L 261.255606 241.064101 
L 261.67916 241.058284 
L 262.102715 241.468452 
L 262.314492 241.469919 
L 262.526269 241.266598 
L 262.738047 241.520635 
L 263.796933 241.778366 
L 264.220487 241.979441 
L 265.067597 242.649936 
L 266.973592 243.068905 
L 267.185369 243.122287 
L 267.397146 243.373921 
L 267.608924 243.317199 
L 267.820701 243.092391 
L 268.244255 243.06837 
L 269.091365 243.510472 
L 269.303142 243.445398 
L 270.573805 244.204021 
L 271.632692 244.21405 
L 272.268023 244.364206 
L 272.691578 244.109759 
L 273.115133 244.194037 
L 273.32691 244.121095 
L 273.538687 244.361767 
L 274.174019 244.434583 
L 274.385796 244.241271 
L 274.597573 244.250806 
L 275.021128 244.585198 
L 275.868237 244.516173 
L 276.291791 244.501785 
L 276.503569 244.761551 
L 277.138901 245.080015 
L 277.562455 245.333983 
L 277.774232 245.271783 
L 277.98601 245.364013 
L 278.409564 245.300863 
L 278.621341 245.354656 
L 278.833119 245.671956 
L 279.044896 245.316683 
L 279.680228 245.921791 
L 279.892005 245.893875 
L 280.527337 246.499223 
L 280.739114 246.29293 
L 281.798 246.422328 
L 282.009778 246.678392 
L 282.221555 246.489879 
L 282.433332 246.530153 
L 283.068664 246.989329 
L 283.280441 247.40355 
L 283.492218 247.512366 
L 283.915773 247.854917 
L 284.762882 248.060062 
L 284.974659 248.392293 
L 285.186437 248.375657 
L 285.609991 248.537487 
L 285.821768 248.537289 
L 286.245323 248.861278 
L 286.4571 248.632023 
L 287.092432 249.1958 
L 288.574873 249.868181 
L 288.78665 249.795441 
L 288.998427 249.884809 
L 289.210205 250.13421 
L 289.421982 250.196446 
L 289.633759 250.505044 
L 289.845536 250.469009 
L 290.057314 250.615 
L 290.269091 250.917655 
L 290.480868 250.993502 
L 291.1162 250.702916 
L 291.963309 251.059447 
L 292.175086 251.108672 
L 292.598641 250.69801 
L 292.810418 250.780535 
L 293.869304 252.176988 
L 294.928191 251.96125 
L 295.139968 251.83603 
L 295.563523 252.234942 
L 295.7753 252.299052 
L 295.987077 252.214592 
L 296.622409 252.40717 
L 296.834186 252.096088 
L 297.045963 252.111603 
L 297.257741 252.332697 
L 297.469518 252.124624 
L 297.893072 252.079423 
L 298.10485 251.575172 
L 298.528404 252.03136 
L 298.740181 252.73832 
L 299.163736 252.409706 
L 299.375513 252.598506 
L 300.010845 253.587336 
L 300.222622 253.407453 
L 300.4344 253.421941 
L 300.646177 253.674557 
L 301.493286 253.808976 
L 301.91684 254.336172 
L 302.128618 254.143767 
L 302.552172 254.011003 
L 302.975727 253.923831 
L 303.187504 253.872459 
L 303.611059 254.080861 
L 303.822836 253.997357 
L 304.034613 254.321118 
L 304.24639 254.210815 
L 304.458168 254.348458 
L 304.669945 254.35035 
L 304.881722 254.524299 
L 305.305277 254.977433 
L 305.517054 255.072825 
L 305.940608 254.880353 
L 306.364163 254.740592 
L 306.57594 254.968635 
L 306.787717 255.031716 
L 306.999495 255.215358 
L 307.211272 255.605975 
L 307.423049 255.335667 
L 307.634827 255.353572 
L 307.846604 255.553493 
L 308.270158 255.478965 
L 308.481936 255.102811 
L 308.693713 255.237046 
L 309.117267 255.836156 
L 309.329045 255.629302 
L 309.540822 256.012489 
L 309.752599 256.028789 
L 310.176154 256.807479 
L 310.387931 256.758362 
L 310.599708 256.970771 
L 310.811486 257.000414 
L 311.023263 257.294006 
L 311.23504 257.289657 
L 311.446817 257.142529 
L 311.658595 257.570632 
L 312.293926 257.857995 
L 312.505704 258.046012 
L 313.141035 257.388672 
L 313.776367 258.154773 
L 313.988144 258.022404 
L 314.623476 258.551907 
L 314.835254 258.557825 
L 315.258808 258.890515 
L 315.682363 258.791223 
L 315.89414 259.022284 
L 316.105917 259.053006 
L 316.317694 259.251456 
L 316.529472 258.802978 
L 316.953026 258.961517 
L 317.164803 259.163814 
L 317.376581 258.960576 
L 318.011912 259.688572 
L 318.435467 260.414871 
L 318.647244 260.711928 
L 318.859022 260.698671 
L 319.070799 260.896016 
L 319.282576 260.887564 
L 319.494353 261.012635 
L 319.706131 260.84978 
L 319.917908 261.283676 
L 320.129685 261.216803 
L 320.341462 261.374727 
L 320.55324 261.720024 
L 320.765017 261.459409 
L 320.976794 261.651802 
L 321.188571 262.126165 
L 321.400349 261.98605 
L 321.612126 262.192014 
L 321.823903 262.222664 
L 322.03568 262.552846 
L 322.247458 262.643966 
L 322.459235 262.532215 
L 322.671012 262.276269 
L 323.094567 262.423182 
L 323.306344 262.231547 
L 323.518121 262.236659 
L 323.729899 262.079854 
L 324.153453 262.511538 
L 324.36523 262.671036 
L 324.577008 262.678503 
L 324.788785 263.075582 
L 325.212339 263.354512 
L 325.424117 263.21302 
L 325.635894 263.241418 
L 325.847671 263.560425 
L 326.059448 263.495481 
L 326.271226 263.94915 
L 326.483003 264.08809 
L 326.906558 264.759284 
L 327.118335 264.352723 
L 327.330112 264.601799 
L 327.541889 264.670424 
L 327.965444 265.144995 
L 328.177221 265.106058 
L 328.388998 264.747494 
L 328.600776 264.985944 
L 328.812553 264.722249 
L 329.236107 264.882825 
L 329.659662 266.071663 
L 329.871439 266.037677 
L 330.083217 266.241409 
L 330.294994 266.719051 
L 330.930326 266.058333 
L 331.142103 265.999513 
L 331.565657 266.173783 
L 331.777435 266.493771 
L 331.989212 266.538079 
L 332.412766 267.115731 
L 332.624544 266.819008 
L 333.471653 267.652432 
L 333.68343 268.047353 
L 333.895207 267.716058 
L 334.106985 267.845112 
L 334.318762 267.810273 
L 334.742316 267.884746 
L 334.954094 267.834525 
L 335.377648 268.985965 
L 335.589425 269.387887 
L 335.801203 269.23876 
L 336.224757 270.216466 
L 336.436534 270.257961 
L 337.071866 270.885248 
L 337.283643 270.951743 
L 337.495421 270.885208 
L 337.918975 271.686372 
L 338.130753 271.777476 
L 338.766084 271.553698 
L 339.189639 272.255498 
L 339.824971 272.221676 
L 340.248525 272.722737 
L 340.460302 272.659914 
L 340.67208 272.80784 
L 341.095634 273.4807 
L 342.154521 273.756414 
L 342.366298 273.887202 
L 342.578075 274.194147 
L 342.789852 274.098844 
L 343.00163 274.289296 
L 343.213407 274.280055 
L 343.636961 274.539326 
L 343.848739 274.41941 
L 344.060516 274.067274 
L 344.272293 274.343035 
L 344.48407 274.149691 
L 344.907625 275.008673 
L 345.33118 275.265858 
L 345.542957 275.731196 
L 345.754734 275.752674 
L 345.966511 275.948098 
L 346.178289 275.817424 
L 346.81362 276.307405 
L 347.025398 276.336764 
L 347.660729 276.861283 
L 348.084284 276.697274 
L 348.296061 276.786285 
L 348.507838 277.302406 
L 349.14317 276.617269 
L 349.566725 276.631892 
L 349.778502 276.838182 
L 349.990279 276.76767 
L 350.202057 277.086523 
L 351.896275 277.715554 
L 352.108052 277.698549 
L 352.319829 277.992618 
L 352.531606 278.038997 
L 352.743384 278.485244 
L 352.955161 278.350928 
L 353.378716 278.893163 
L 353.590493 278.547992 
L 354.014047 278.913104 
L 354.437602 279.57751 
L 354.649379 279.719031 
L 354.861156 279.363473 
L 355.708265 280.380645 
L 355.920043 280.684336 
L 356.555374 280.861453 
L 357.190706 281.455888 
L 357.402484 281.202598 
L 357.614261 281.728787 
L 357.826038 281.927449 
L 358.037815 281.81221 
L 358.46137 281.858441 
L 358.673147 281.771953 
L 359.308479 282.710285 
L 359.732033 282.303155 
L 360.579143 282.693362 
L 360.79092 282.998004 
L 361.002697 282.698884 
L 361.214474 282.990842 
L 361.638029 282.951163 
L 361.849806 282.933316 
L 362.273361 283.492804 
L 362.485138 283.392092 
L 362.908692 283.362602 
L 363.12047 283.269337 
L 363.332247 283.319093 
L 363.755801 282.989856 
L 364.179356 283.26005 
L 364.391133 283.298804 
L 364.602911 283.208779 
L 364.814688 283.508134 
L 365.238242 283.58121 
L 366.085351 283.811723 
L 366.297129 284.017772 
L 366.508906 283.999263 
L 366.720683 284.307382 
L 366.93246 284.159497 
L 367.356015 284.353438 
L 367.567792 284.437058 
L 367.779569 284.766714 
L 367.991347 284.721595 
L 368.414901 285.017778 
L 369.050233 285.56384 
L 369.473788 285.448737 
L 369.685565 285.672963 
L 370.320897 285.424297 
L 370.532674 285.610441 
L 370.956228 285.429532 
L 371.379783 285.735099 
L 371.803337 285.736857 
L 372.015115 285.908735 
L 372.226892 286.274322 
L 372.650447 286.342758 
L 373.074001 287.051871 
L 373.497556 287.237136 
L 373.92111 287.417448 
L 374.132887 287.347237 
L 374.344665 287.449134 
L 374.556442 287.358299 
L 374.979996 287.637907 
L 375.191774 287.43138 
L 375.403551 287.735642 
L 375.827105 288.034493 
L 376.038883 287.885462 
L 376.25066 287.96361 
L 376.674215 288.244858 
L 376.885992 288.11175 
L 377.309546 288.261267 
L 377.944878 288.272627 
L 378.368433 288.40135 
L 378.791987 288.640703 
L 379.003764 288.58363 
L 379.215542 288.726569 
L 379.427319 288.594556 
L 379.639096 288.658489 
L 380.274428 289.257239 
L 380.697983 288.923819 
L 380.90976 289.081202 
L 381.121537 288.863373 
L 381.545092 288.988661 
L 382.392201 289.425414 
L 382.603978 289.188677 
L 383.027532 289.69873 
L 383.451087 289.712706 
L 383.874642 289.9016 
L 384.086419 289.745942 
L 384.298196 289.7554 
L 384.509973 289.610029 
L 384.721751 289.908873 
L 384.933528 290.009286 
L 385.145305 289.895735 
L 385.357082 289.991488 
L 386.415969 291.028272 
L 386.627746 291.174407 
L 386.839523 290.9322 
L 387.0513 290.967805 
L 387.474855 291.287689 
L 387.686632 291.276787 
L 387.89841 291.548015 
L 388.110187 291.615867 
L 388.321964 291.991555 
L 388.533741 291.778507 
L 388.745519 291.791297 
L 390.016182 292.536192 
L 390.227959 292.874241 
L 391.075068 292.734295 
L 391.498623 292.959146 
L 391.7104 293.477392 
L 392.133955 293.373845 
L 392.557509 293.638364 
L 392.981064 293.326058 
L 393.616396 293.681653 
L 393.828173 293.943605 
L 394.03995 293.980848 
L 394.251727 293.845694 
L 394.463505 293.979308 
L 395.098837 293.8418 
L 395.310614 294.016768 
L 395.734168 294.111949 
L 395.945946 294.248129 
L 396.3695 294.944254 
L 396.581277 294.62572 
L 396.793055 294.731185 
L 397.004832 295.022195 
L 397.216609 294.873414 
L 397.640164 295.197528 
L 397.851941 295.071102 
L 398.063718 295.165961 
L 398.275495 295.488 
L 398.487273 295.393424 
L 398.487273 295.393424 
" clip-path="url(#pe5f360f64d)" style="fill: none; stroke: #1f77b4; stroke-opacity: 0.7; stroke-width: 1.5; stroke-linecap: square"/>
   </g>
   <g id="line2d_20">
    <path d="M 73.832727 176.808902 
L 74.679836 177.259655 
L 74.891614 176.808355 
L 75.315168 176.346592 
L 75.526945 176.078298 
L 75.738723 176.226794 
L 75.9505 176.054739 
L 76.162277 176.026043 
L 76.585832 175.498238 
L 77.009386 175.74643 
L 77.221163 175.655675 
L 77.432941 175.771241 
L 77.644718 175.583901 
L 77.856495 175.103597 
L 78.068273 174.955001 
L 78.703604 174.893352 
L 78.915382 174.580726 
L 79.127159 174.480248 
L 79.338936 174.589465 
L 79.550713 174.222641 
L 79.762491 174.497484 
L 79.974268 174.344398 
L 80.186045 174.37257 
L 80.397822 174.681674 
L 81.033154 173.880113 
L 81.456709 173.729928 
L 82.515595 173.630985 
L 82.93915 173.620906 
L 83.362704 173.254605 
L 83.574481 173.302616 
L 84.633368 172.4857 
L 84.845145 172.614366 
L 85.2687 172.277968 
L 85.480477 172.270386 
L 86.115809 171.487422 
L 86.327586 171.587162 
L 87.174695 170.890845 
L 87.598249 171.088262 
L 87.810027 170.919075 
L 88.021804 170.45084 
L 88.233581 170.481288 
L 88.657136 170.0751 
L 89.08069 169.896755 
L 89.292468 169.575931 
L 89.504245 169.587322 
L 89.716022 169.443078 
L 90.139577 168.806574 
L 90.351354 169.118252 
L 90.563131 169.074498 
L 90.774908 168.860697 
L 91.41024 169.12046 
L 91.833795 168.817352 
L 92.257349 168.454022 
L 92.469126 168.53344 
L 92.680904 167.627649 
L 93.104458 167.635815 
L 93.528013 167.269199 
L 93.73979 167.201636 
L 94.163345 167.335418 
L 94.798676 166.682251 
L 95.010454 167.036326 
L 95.222231 166.841266 
L 96.281117 166.761948 
L 97.128226 166.181131 
L 97.340004 166.24786 
L 97.763558 165.958015 
L 97.975335 165.902875 
L 98.187113 166.128362 
L 98.610667 165.719856 
L 98.822444 165.762056 
L 99.034222 165.352557 
L 99.881331 165.144596 
L 100.093108 164.848517 
L 100.516663 164.71696 
L 100.72844 164.925884 
L 100.940217 164.922381 
L 101.151994 164.666045 
L 101.363772 164.197783 
L 101.575549 164.241739 
L 101.787326 164.033001 
L 102.210881 164.040908 
L 102.846212 164.733203 
L 103.05799 164.661809 
L 103.269767 164.431903 
L 103.481544 164.696736 
L 103.905099 164.554501 
L 104.116876 164.474667 
L 104.540431 163.868809 
L 104.752208 163.874622 
L 104.963985 163.687487 
L 105.175762 163.853234 
L 105.811094 163.521219 
L 106.234649 163.464512 
L 106.446426 163.577835 
L 106.658203 163.285739 
L 106.86998 163.349255 
L 107.293535 163.140672 
L 107.505312 163.391261 
L 107.928867 163.036554 
L 108.352421 162.766377 
L 108.775976 162.204086 
L 109.623085 161.919343 
L 110.470194 161.773778 
L 110.681971 161.900723 
L 110.893748 161.701339 
L 111.105526 161.774443 
L 111.317303 161.684587 
L 111.740857 161.220147 
L 111.952635 161.392366 
L 112.587967 160.912845 
L 113.646853 160.219023 
L 113.85863 160.458153 
L 114.282185 160.326129 
L 114.705739 160.265601 
L 115.341071 159.563088 
L 115.552848 159.798292 
L 115.764626 159.788837 
L 115.976403 159.899712 
L 116.399957 160.322882 
L 116.611735 160.008868 
L 117.035289 160.022702 
L 117.247066 159.728852 
L 117.458844 159.723324 
L 117.670621 159.529839 
L 118.094175 159.719916 
L 118.305953 159.507732 
L 118.51773 159.519652 
L 118.941284 159.292743 
L 119.364839 159.332303 
L 119.788394 158.917546 
L 120.000171 159.060126 
L 120.635503 158.831455 
L 121.270834 158.95663 
L 121.482612 158.610484 
L 121.694389 158.655877 
L 121.906166 158.578264 
L 122.117943 158.287854 
L 122.329721 158.415793 
L 122.965052 158.232037 
L 123.17683 157.716478 
L 123.388607 157.901762 
L 123.812162 157.967148 
L 124.023939 157.732265 
L 124.235716 157.916128 
L 124.659271 157.317857 
L 124.871048 157.164132 
L 125.082825 156.818609 
L 125.50638 156.551377 
L 125.929934 156.280522 
L 126.353489 156.155672 
L 126.565266 155.795955 
L 126.777043 156.050406 
L 127.412375 155.909111 
L 127.83593 155.572568 
L 129.106593 154.616453 
L 129.31837 154.782354 
L 129.530148 154.418985 
L 130.589034 154.393371 
L 131.012589 154.239682 
L 131.436143 154.305287 
L 132.706807 153.761022 
L 132.918584 153.357239 
L 133.765693 153.678287 
L 134.189247 153.495039 
L 134.612802 153.473095 
L 134.824579 153.6411 
L 135.248134 153.054736 
L 135.459911 153.04714 
L 135.883466 152.839924 
L 136.730575 152.719208 
L 136.942352 152.801257 
L 137.365906 152.633115 
L 137.789461 152.669547 
L 138.63657 152.52959 
L 138.848347 152.388919 
L 139.060125 152.389317 
L 139.271902 152.152613 
L 139.695456 152.152897 
L 139.907234 152.018596 
L 140.119011 151.729389 
L 140.330788 151.674174 
L 141.177897 151.834657 
L 141.389674 151.742776 
L 141.813229 151.78664 
L 142.236783 151.696526 
L 142.872115 151.709631 
L 143.719224 151.362323 
L 144.989888 151.162008 
L 145.413442 150.980372 
L 146.048774 151.386724 
L 146.260552 151.310653 
L 146.684106 151.490809 
L 147.107661 151.353525 
L 147.742992 150.740475 
L 147.95477 150.72037 
L 148.166547 150.57903 
L 148.590101 150.828348 
L 148.801879 151.065785 
L 149.013656 151.065131 
L 149.648988 150.692794 
L 149.860765 150.581265 
L 150.072542 150.225692 
L 150.496097 150.195886 
L 150.707874 150.167671 
L 150.919651 149.827962 
L 151.343206 149.632568 
L 151.554983 149.751193 
L 152.190315 149.600868 
L 152.402092 149.350487 
L 152.825647 149.292212 
L 153.460978 148.674947 
L 153.884533 148.688329 
L 154.308088 148.553599 
L 154.519865 148.579651 
L 154.731642 148.251175 
L 155.155197 148.258141 
L 155.366974 148.643271 
L 155.790528 148.232459 
L 156.002306 148.093443 
L 156.42586 148.164023 
L 156.849415 147.82468 
L 157.272969 147.620046 
L 157.484746 147.546628 
L 157.908301 147.602427 
L 158.120078 147.527258 
L 158.331856 147.740956 
L 158.75541 147.426383 
L 159.178965 147.23396 
L 159.390742 146.921192 
L 159.814296 146.921965 
L 160.026074 147.126191 
L 160.237851 147.151371 
L 160.449628 147.02285 
L 160.661405 147.119454 
L 160.873183 147.084823 
L 161.08496 146.918344 
L 161.508514 146.995869 
L 161.720292 146.69532 
L 161.932069 146.885197 
L 162.355624 146.697595 
L 162.779178 146.471137 
L 162.990955 146.563162 
L 163.41451 146.181527 
L 163.626287 146.256821 
L 163.838064 146.086877 
L 164.685173 146.047381 
L 165.108728 145.845023 
L 166.379392 145.892209 
L 166.802946 146.018137 
L 168.07361 145.545974 
L 168.920719 145.667687 
L 169.344273 145.281964 
L 169.556051 145.303455 
L 169.767828 145.113841 
L 171.8856 144.804721 
L 172.309155 144.567406 
L 173.156264 144.46357 
L 173.368041 144.634604 
L 174.003373 144.609885 
L 174.426928 144.351188 
L 175.062259 144.492229 
L 175.274037 144.189267 
L 175.697591 144.110043 
L 176.332923 143.577986 
L 177.180032 143.459575 
L 177.391809 143.68462 
L 178.027141 143.597284 
L 178.238918 143.356316 
L 178.450696 143.287765 
L 178.662473 143.371751 
L 179.086027 143.004462 
L 179.721359 142.981791 
L 180.356691 142.847833 
L 180.568468 142.615557 
L 181.2038 142.543538 
L 181.839132 142.187021 
L 182.474464 142.099632 
L 182.686241 142.24816 
L 184.804014 140.996945 
L 185.015791 140.980486 
L 185.227568 140.799067 
L 185.439345 140.832477 
L 185.651123 140.718659 
L 185.8629 140.866169 
L 186.498232 140.858231 
L 186.710009 141.152457 
L 187.345341 141.221249 
L 187.557118 140.911671 
L 187.768895 140.999398 
L 187.980672 141.290335 
L 188.19245 141.118436 
L 188.616004 140.362584 
L 189.039559 139.839843 
L 189.251336 139.810862 
L 189.463113 139.172605 
L 189.674891 139.067427 
L 189.886668 137.914418 
L 190.098445 137.8718 
L 190.310222 138.009763 
L 190.522 137.989612 
L 190.733777 138.147777 
L 191.157331 138.718202 
L 191.369109 138.195786 
L 191.580886 138.007717 
L 192.216218 136.937967 
L 192.427995 136.980199 
L 192.639772 137.265553 
L 192.85155 137.172691 
L 193.063327 137.318125 
L 193.698659 137.243828 
L 194.122213 136.504511 
L 194.757545 136.171095 
L 195.181099 135.717411 
L 195.392877 135.86875 
L 195.816431 135.803758 
L 196.451763 136.049602 
L 197.087095 135.257256 
L 197.510649 135.404764 
L 197.722427 135.314011 
L 197.934204 135.441598 
L 198.357758 135.247301 
L 198.569536 135.25414 
L 198.781313 135.500198 
L 198.99309 135.481362 
L 199.204867 135.613206 
L 199.840199 135.160221 
L 200.051977 135.397549 
L 201.32264 135.80433 
L 201.534417 135.976141 
L 201.957972 135.527492 
L 202.381526 135.431177 
L 202.805081 134.82904 
L 203.016858 135.04668 
L 203.440413 134.417068 
L 203.863967 133.930526 
L 204.075745 134.116643 
L 204.287522 134.082353 
L 204.711076 133.487758 
L 205.134631 133.349345 
L 205.98174 133.01835 
L 206.193517 133.105662 
L 206.405294 132.879294 
L 206.617072 132.981514 
L 206.828849 132.678999 
L 207.252403 132.635415 
L 207.464181 132.740784 
L 207.887735 132.492459 
L 208.099513 132.654049 
L 208.31129 132.669787 
L 208.523067 132.878272 
L 209.158399 132.933976 
L 209.370176 133.175568 
L 209.581953 132.880412 
L 210.005508 133.124643 
L 210.429062 132.423485 
L 210.852617 132.553631 
L 211.064394 132.440232 
L 211.487949 131.827859 
L 211.699726 131.700361 
L 211.911503 131.751567 
L 212.335058 131.670059 
L 212.546835 131.671604 
L 212.758612 131.903631 
L 212.97039 131.42584 
L 213.182167 131.368203 
L 213.393944 130.969837 
L 213.605721 130.864336 
L 213.817499 130.915318 
L 214.241053 130.635589 
L 214.45283 130.869281 
L 214.664608 130.83568 
L 214.876385 130.675891 
L 215.088162 130.344195 
L 215.723494 129.948623 
L 215.935271 129.620841 
L 216.570603 129.563347 
L 216.78238 129.549489 
L 217.205935 129.100901 
L 217.417712 129.175149 
L 217.629489 129.064288 
L 218.053044 128.445633 
L 218.900153 128.092988 
L 219.11193 128.196361 
L 219.323708 128.028842 
L 219.535485 128.020677 
L 219.747262 127.821328 
L 219.959039 127.91834 
L 220.170817 127.632441 
L 220.806148 127.586018 
L 221.017926 127.496511 
L 221.229703 127.146728 
L 221.865035 126.929047 
L 222.500366 127.297318 
L 222.712144 127.086876 
L 222.923921 127.077453 
L 223.77103 126.102387 
L 224.194585 125.976024 
L 224.406362 126.423791 
L 224.618139 126.281986 
L 225.041694 126.594054 
L 225.253471 126.283182 
L 225.465248 126.179092 
L 225.677025 125.933965 
L 225.888803 125.885789 
L 226.312357 125.944376 
L 227.159466 125.623196 
L 227.371244 125.391799 
L 227.794798 125.461598 
L 228.006575 125.31277 
L 228.218353 125.427784 
L 228.43013 125.227891 
L 228.641907 125.594394 
L 229.065462 125.615571 
L 229.912571 124.963971 
L 230.124348 125.062539 
L 230.547903 124.817791 
L 230.75968 124.72379 
L 231.183234 124.848477 
L 231.395012 124.564226 
L 231.606789 124.515943 
L 232.030343 124.20576 
L 232.242121 124.032733 
L 233.08923 123.979812 
L 233.301007 123.459184 
L 233.512784 123.597558 
L 233.724561 123.499462 
L 234.148116 123.545151 
L 234.571671 122.860634 
L 234.783448 122.808387 
L 234.995225 122.889763 
L 235.630557 122.261203 
L 235.842334 122.262527 
L 236.054111 122.458301 
L 236.265889 122.333776 
L 236.477666 122.453761 
L 236.689443 122.416553 
L 237.324775 121.915341 
L 237.748329 121.884011 
L 238.171884 121.530895 
L 238.383661 121.508085 
L 238.595439 121.205421 
L 238.807216 121.388086 
L 239.018993 121.292994 
L 239.23077 121.390568 
L 240.077879 120.842825 
L 240.501434 120.379575 
L 241.136766 120.599883 
L 241.348543 120.421485 
L 241.772097 120.32287 
L 242.195652 119.871269 
L 242.407429 119.912676 
L 243.254538 119.057113 
L 243.88987 119.314972 
L 244.525202 118.735278 
L 244.736979 118.904942 
L 245.160534 118.43503 
L 245.372311 118.53641 
L 245.584088 118.136966 
L 245.795866 118.042402 
L 246.21942 117.762174 
L 246.854752 117.264415 
L 247.066529 117.332764 
L 247.278306 117.201183 
L 247.701861 117.303315 
L 247.913638 117.164188 
L 248.125415 117.261761 
L 248.54897 117.129365 
L 248.972524 117.205871 
L 249.396079 116.993348 
L 249.607856 117.191301 
L 250.243188 116.798189 
L 250.454965 117.026546 
L 250.87852 116.88865 
L 251.090297 116.956416 
L 251.302074 116.834949 
L 251.513852 116.423449 
L 251.725629 116.47264 
L 252.149183 116.070161 
L 252.572738 116.422724 
L 253.419847 115.683377 
L 253.631624 115.789687 
L 253.843402 115.697728 
L 254.055179 115.801831 
L 254.266956 115.508584 
L 254.478733 115.614336 
L 254.690511 115.320477 
L 255.114065 115.223972 
L 255.53762 114.763586 
L 255.749397 114.638924 
L 255.961174 114.722699 
L 256.384729 114.469727 
L 256.596506 114.158059 
L 257.655392 114.314162 
L 257.86717 114.063689 
L 258.078947 114.14245 
L 258.290724 114.076432 
L 258.714279 113.328797 
L 258.926056 113.142072 
L 259.34961 113.271562 
L 259.984942 113.077222 
L 260.408497 112.85409 
L 260.832051 112.635336 
L 261.255606 112.676635 
L 261.67916 112.451342 
L 262.102715 112.518004 
L 262.314492 112.436206 
L 262.526269 112.070945 
L 262.738047 112.153675 
L 263.585156 111.623493 
L 264.00871 111.632706 
L 264.220487 111.554998 
L 265.067597 111.780427 
L 265.491151 111.589373 
L 266.126483 111.2968 
L 266.33826 110.9859 
L 267.185369 110.888986 
L 267.397146 111.043691 
L 268.456033 110.341543 
L 269.091365 110.481958 
L 269.303142 110.424747 
L 269.514919 110.559231 
L 269.726696 110.424115 
L 270.150251 110.501312 
L 270.573805 110.557368 
L 271.844469 110.037401 
L 272.479801 109.774938 
L 272.903355 109.578821 
L 273.115133 109.50106 
L 273.32691 109.272895 
L 273.538687 109.374632 
L 274.174019 109.043967 
L 274.385796 108.701094 
L 274.597573 108.60253 
L 275.021128 108.65316 
L 275.444682 108.3625 
L 275.868237 108.397054 
L 276.291791 108.151826 
L 276.503569 108.230151 
L 276.715346 108.066322 
L 277.562455 108.035401 
L 277.774232 107.862825 
L 277.98601 107.833915 
L 278.409564 107.478327 
L 278.621341 107.40451 
L 278.833119 107.606907 
L 279.044896 107.073418 
L 279.256673 107.147626 
L 279.46845 107.01915 
L 279.680228 107.05536 
L 279.892005 106.763499 
L 280.527337 106.597794 
L 280.739114 106.182511 
L 282.009778 105.311773 
L 282.433332 104.695369 
L 282.645109 104.584128 
L 283.068664 104.259145 
L 283.280441 104.408205 
L 283.492218 104.286898 
L 283.703996 104.330898 
L 284.762882 103.64185 
L 284.974659 103.776724 
L 285.186437 103.48539 
L 286.033546 103.255723 
L 286.245323 103.332519 
L 286.4571 102.976168 
L 287.092432 102.968081 
L 287.939541 102.561517 
L 288.151318 102.671419 
L 288.363096 102.460279 
L 288.574873 102.620317 
L 288.998427 102.197891 
L 289.210205 102.223197 
L 289.421982 102.070122 
L 289.633759 102.178354 
L 289.845536 102.002222 
L 290.057314 102.009387 
L 290.269091 102.156227 
L 290.480868 102.097674 
L 290.692645 101.819398 
L 290.904423 101.769353 
L 291.1162 101.453099 
L 291.539754 101.548571 
L 291.751532 101.596712 
L 292.386864 101.109532 
L 292.598641 100.736048 
L 292.810418 100.755315 
L 293.233973 101.090291 
L 293.44575 101.20497 
L 293.657527 101.629033 
L 293.869304 101.562349 
L 294.504636 101.073957 
L 294.716413 100.98979 
L 295.139968 100.42462 
L 295.563523 100.451652 
L 296.622409 99.70298 
L 296.834186 99.223363 
L 297.045963 99.103501 
L 297.257741 99.122958 
L 297.469518 98.856241 
L 297.893072 98.631036 
L 298.10485 97.993839 
L 298.528404 98.068733 
L 298.740181 98.573889 
L 299.163736 97.924387 
L 299.587291 98.044283 
L 300.010845 98.369062 
L 300.4344 98.006765 
L 300.646177 97.978116 
L 300.857954 97.772063 
L 301.069731 97.775094 
L 301.493286 97.622121 
L 301.91684 97.953644 
L 302.340395 97.296181 
L 302.763949 96.713142 
L 303.399281 96.180709 
L 303.611059 96.232896 
L 303.822836 96.069245 
L 304.034613 96.162726 
L 304.24639 95.806341 
L 305.517054 95.107328 
L 306.152386 94.246415 
L 306.364163 94.017703 
L 306.57594 94.253428 
L 306.999495 94.416268 
L 307.211272 94.77417 
L 307.423049 94.507473 
L 307.846604 94.448098 
L 308.058381 94.231139 
L 308.270158 94.190359 
L 308.481936 93.670758 
L 308.90549 93.974785 
L 309.117267 94.433955 
L 309.329045 94.183037 
L 309.540822 94.525559 
L 309.752599 94.35868 
L 309.964376 94.602926 
L 310.176154 94.600514 
L 310.387931 94.245444 
L 310.599708 94.305712 
L 311.23504 93.920622 
L 311.446817 93.560451 
L 311.658595 93.879482 
L 311.870372 93.730846 
L 312.082149 93.415734 
L 312.505704 93.339509 
L 313.141035 92.287616 
L 313.56459 92.440994 
L 313.776367 92.623845 
L 313.988144 92.357787 
L 314.623476 92.392118 
L 314.835254 92.087924 
L 315.047031 92.189845 
L 315.258808 92.133443 
L 315.682363 91.549712 
L 315.89414 91.587371 
L 316.317694 91.333568 
L 316.741249 90.368239 
L 317.164803 90.321454 
L 317.376581 89.866367 
L 318.011912 89.417254 
L 318.647244 89.712083 
L 318.859022 89.398776 
L 319.070799 89.393807 
L 319.494353 89.119824 
L 319.706131 88.642291 
L 319.917908 88.782088 
L 320.341462 88.476264 
L 320.55324 88.509988 
L 320.765017 88.053942 
L 320.976794 87.940018 
L 321.188571 88.089979 
L 321.400349 87.682348 
L 321.823903 87.497551 
L 322.03568 87.664457 
L 322.247458 87.54197 
L 322.671012 86.881278 
L 322.88279 86.859627 
L 323.094567 86.982868 
L 323.729899 85.986424 
L 324.577008 85.968756 
L 324.788785 86.23835 
L 325.212339 86.262968 
L 325.635894 85.638553 
L 325.847671 85.729195 
L 326.059448 85.498745 
L 326.271226 85.801033 
L 326.906558 86.008198 
L 327.118335 85.353047 
L 327.541889 85.284206 
L 327.965444 85.338022 
L 328.177221 85.098373 
L 328.388998 84.614222 
L 328.600776 84.775654 
L 329.02433 84.020028 
L 329.236107 83.89146 
L 329.659662 84.56563 
L 330.083217 84.468421 
L 330.294994 84.763382 
L 330.930326 83.422505 
L 331.35388 83.24191 
L 331.565657 83.172671 
L 331.777435 83.295733 
L 331.989212 83.188472 
L 332.200989 83.52616 
L 332.412766 83.371943 
L 332.624544 82.828901 
L 332.836321 82.745676 
L 333.68343 83.473913 
L 333.895207 83.010429 
L 334.106985 82.938282 
L 334.318762 82.554294 
L 334.530539 82.573431 
L 334.954094 82.045841 
L 335.165871 82.666553 
L 335.589425 82.899822 
L 335.801203 82.565697 
L 336.224757 83.272922 
L 337.283643 82.223143 
L 337.495421 81.678087 
L 337.918975 81.953362 
L 338.130753 81.788004 
L 338.554307 81.228622 
L 338.766084 80.998263 
L 339.189639 81.2284 
L 339.401416 81.073843 
L 339.824971 80.425025 
L 340.248525 80.408487 
L 340.67208 79.956129 
L 340.883857 80.092658 
L 341.095634 80.078058 
L 341.519189 79.472644 
L 341.942743 79.464146 
L 342.366298 79.129771 
L 342.578075 79.285328 
L 342.789852 79.101863 
L 343.00163 79.090269 
L 343.425184 78.963268 
L 343.636961 79.043238 
L 343.848739 78.837255 
L 344.060516 78.303876 
L 344.272293 78.405019 
L 344.48407 78.015234 
L 344.695848 78.376728 
L 344.907625 78.482818 
L 345.33118 78.325409 
L 345.542957 78.6256 
L 345.754734 78.26425 
L 345.966511 78.140301 
L 346.390066 77.639743 
L 347.025398 77.403382 
L 347.660729 77.052484 
L 348.084284 76.654745 
L 348.296061 76.589832 
L 348.507838 76.991136 
L 348.931393 75.91146 
L 349.354948 75.706682 
L 349.778502 75.63566 
L 349.990279 75.31388 
L 350.413834 75.443786 
L 350.837388 75.016097 
L 351.260943 74.78991 
L 352.108052 73.863433 
L 352.319829 73.931687 
L 352.531606 73.685459 
L 352.743384 73.816022 
L 352.955161 73.395841 
L 353.378716 73.400383 
L 353.590493 72.789964 
L 354.014047 72.534765 
L 354.225825 72.701678 
L 354.437602 72.665498 
L 354.649379 72.469742 
L 354.861156 71.862353 
L 355.072934 71.763104 
L 355.284711 71.832566 
L 355.708265 71.773296 
L 355.920043 71.901347 
L 356.343597 71.427151 
L 357.190706 71.355657 
L 357.402484 70.942643 
L 357.826038 71.209316 
L 358.037815 70.87293 
L 358.46137 70.711603 
L 358.673147 70.432984 
L 358.884924 70.46225 
L 359.308479 70.766241 
L 359.732033 70.255223 
L 359.943811 70.419928 
L 360.155588 70.34286 
L 360.579143 70.424293 
L 360.79092 70.605835 
L 361.002697 70.293679 
L 361.214474 70.39544 
L 361.849806 69.741554 
L 362.273361 69.77722 
L 362.696915 69.346724 
L 363.12047 68.955989 
L 363.332247 68.95279 
L 363.755801 68.338421 
L 364.179356 68.17222 
L 364.602911 67.562638 
L 364.814688 67.621143 
L 365.45002 67.048825 
L 365.873574 66.640468 
L 366.508906 66.254868 
L 366.720683 66.376848 
L 366.93246 66.027329 
L 367.356015 65.675273 
L 367.567792 65.526687 
L 367.779569 65.627898 
L 368.203124 65.231543 
L 368.626679 65.126845 
L 368.838456 65.294337 
L 369.473788 64.863133 
L 369.685565 65.039763 
L 370.320897 64.518961 
L 370.532674 64.623557 
L 370.956228 64.279296 
L 371.168006 64.343776 
L 372.015115 64.078537 
L 372.438669 64.313289 
L 372.650447 64.194227 
L 373.074001 64.59842 
L 373.709333 64.201099 
L 374.344665 63.540366 
L 374.768219 63.259091 
L 374.979996 63.247383 
L 375.191774 62.895023 
L 375.403551 62.91809 
L 376.25066 62.414044 
L 376.462437 62.481546 
L 376.674215 62.40836 
L 376.885992 62.202155 
L 377.309546 62.326222 
L 377.733101 62.059467 
L 377.944878 62.088602 
L 378.791987 61.580563 
L 379.003764 61.236704 
L 379.215542 61.147114 
L 379.639096 60.586959 
L 380.062651 60.513099 
L 380.274428 60.604343 
L 380.697983 59.768127 
L 380.90976 59.704589 
L 381.333314 59.139307 
L 381.756869 58.760963 
L 382.180423 58.584088 
L 382.392201 58.389417 
L 382.603978 57.907434 
L 382.815755 57.835317 
L 383.23931 57.94814 
L 383.451087 57.871787 
L 383.662864 57.933447 
L 384.298196 57.634544 
L 384.509973 57.313769 
L 384.933528 57.399739 
L 385.357082 56.903937 
L 385.992414 56.823241 
L 386.415969 56.711046 
L 386.627746 56.596492 
L 386.839523 56.253433 
L 387.0513 56.191322 
L 387.474855 56.38317 
L 387.686632 56.220412 
L 387.89841 56.402009 
L 388.110187 56.365341 
L 388.321964 56.612505 
L 388.745519 56.157094 
L 389.169073 56.027435 
L 389.38085 56.153426 
L 389.804405 55.911308 
L 390.016182 55.918626 
L 390.227959 56.21963 
L 391.075068 55.550227 
L 391.498623 55.592162 
L 391.7104 56.150915 
L 392.133955 55.89903 
L 392.557509 55.899279 
L 393.192841 55.248901 
L 393.616396 55.205585 
L 393.828173 55.132224 
L 394.251727 54.420404 
L 394.463505 54.394567 
L 394.887059 53.979223 
L 395.098837 53.825322 
L 395.310614 53.907165 
L 395.734168 53.667955 
L 395.945946 53.736308 
L 396.3695 54.269592 
L 396.581277 53.858093 
L 396.793055 53.84784 
L 397.004832 54.007584 
L 397.216609 53.723092 
L 397.428386 53.886481 
L 398.063718 53.648326 
L 398.275495 53.791604 
L 398.487273 53.568 
L 398.487273 53.568 
" clip-path="url(#pe5f360f64d)" style="fill: none; stroke: #ff7f0e; stroke-opacity: 0.7; stroke-width: 1.5; stroke-linecap: square"/>
   </g>
   <g id="line2d_21">
    <path d="M 73.832727 176.894067 
L 74.256282 177.27119 
L 74.468059 177.611522 
L 74.679836 177.658657 
L 74.891614 177.31091 
L 75.315168 176.990318 
L 75.526945 176.796066 
L 75.738723 176.946776 
L 75.9505 176.844119 
L 76.162277 176.90847 
L 76.585832 176.595342 
L 77.009386 177.003443 
L 77.221163 177.028171 
L 77.432941 177.222035 
L 77.644718 177.186395 
L 77.856495 176.820781 
L 78.28005 176.862422 
L 78.491827 177.051105 
L 78.703604 176.993294 
L 78.915382 176.776605 
L 79.127159 176.746037 
L 79.338936 176.961974 
L 79.550713 176.63679 
L 79.762491 176.952999 
L 79.974268 176.833682 
L 80.186045 176.916356 
L 80.397822 177.270974 
L 80.6096 177.081555 
L 80.821377 176.722988 
L 81.456709 176.715767 
L 82.303818 176.725198 
L 82.727372 176.965171 
L 82.93915 176.96206 
L 83.362704 176.756599 
L 83.574481 176.894992 
L 84.209813 176.628993 
L 84.633368 176.26181 
L 84.845145 176.424217 
L 85.2687 176.13008 
L 85.480477 176.203567 
L 85.692254 176.073635 
L 86.115809 175.692891 
L 86.327586 175.868216 
L 87.174695 175.47575 
L 87.598249 175.810954 
L 87.810027 175.739753 
L 88.021804 175.375697 
L 88.233581 175.433874 
L 88.657136 175.252386 
L 89.08069 175.288979 
L 89.292468 175.040122 
L 89.504245 175.096163 
L 89.716022 175.012036 
L 90.139577 174.551078 
L 90.351354 174.981126 
L 90.563131 175.073455 
L 90.774908 174.960819 
L 91.622017 175.376244 
L 92.257349 175.139804 
L 92.469126 175.319474 
L 92.680904 174.511853 
L 93.104458 174.792246 
L 93.528013 174.676981 
L 94.163345 175.263567 
L 94.798676 174.753036 
L 95.010454 175.115023 
L 95.222231 175.019161 
L 96.281117 175.419118 
L 96.916449 175.039121 
L 97.551781 175.084216 
L 97.975335 175.11318 
L 98.187113 175.386223 
L 98.610667 175.151964 
L 98.822444 175.276342 
L 99.034222 174.931497 
L 99.669553 175.055788 
L 99.881331 175.038125 
L 100.093108 174.780218 
L 100.516663 174.738051 
L 100.72844 174.961984 
L 100.940217 175.011209 
L 101.575549 174.476931 
L 101.787326 174.343236 
L 102.210881 174.5155 
L 102.846212 175.392648 
L 103.05799 175.385661 
L 103.269767 175.226121 
L 103.481544 175.570425 
L 104.116876 175.653756 
L 104.540431 175.306309 
L 104.752208 175.420872 
L 104.963985 175.305056 
L 105.175762 175.559995 
L 105.38754 175.530101 
L 105.599317 175.380395 
L 105.811094 175.510624 
L 106.234649 175.613775 
L 106.446426 175.795794 
L 106.658203 175.56456 
L 106.86998 175.662738 
L 107.293535 175.564158 
L 107.505312 175.895816 
L 107.928867 175.7232 
L 108.352421 175.680003 
L 108.564199 175.344758 
L 108.987753 175.201772 
L 109.19953 175.203777 
L 109.411308 175.021326 
L 109.623085 175.220348 
L 110.470194 175.429425 
L 110.681971 175.641978 
L 110.893748 175.469411 
L 111.105526 175.591006 
L 111.317303 175.552882 
L 111.740857 175.208955 
L 111.952635 175.416846 
L 112.164412 175.269076 
L 112.376189 175.290861 
L 112.587967 175.08015 
L 112.799744 175.026283 
L 113.011521 175.090593 
L 113.646853 174.797131 
L 113.85863 175.104859 
L 114.282185 175.097561 
L 114.705739 175.148514 
L 115.341071 174.602555 
L 115.552848 174.902137 
L 115.976403 175.069404 
L 116.399957 175.631948 
L 116.611735 175.436496 
L 117.035289 175.574027 
L 117.247066 175.35057 
L 117.670621 175.275935 
L 118.094175 175.613601 
L 118.305953 175.499775 
L 118.729507 175.548593 
L 119.153062 175.675973 
L 119.364839 175.753374 
L 119.788394 175.443208 
L 120.000171 175.620605 
L 120.635503 175.526848 
L 121.059057 175.623447 
L 121.270834 175.827784 
L 121.482612 175.524906 
L 121.906166 175.659613 
L 122.117943 175.472298 
L 122.329721 175.706633 
L 122.541498 175.729795 
L 122.753275 175.90149 
L 122.965052 175.791162 
L 123.17683 175.367229 
L 123.388607 175.657178 
L 124.023939 175.758498 
L 124.235716 176.082883 
L 124.659271 175.821776 
L 124.871048 175.847212 
L 125.082825 175.632467 
L 125.50638 175.58691 
L 125.929934 175.474827 
L 126.353489 175.536708 
L 126.565266 175.29039 
L 126.777043 175.618388 
L 127.412375 175.762474 
L 127.624152 175.58071 
L 128.047707 175.488891 
L 128.894816 175.141665 
L 129.106593 175.027689 
L 129.31837 175.243998 
L 129.530148 174.986141 
L 130.377257 175.368418 
L 131.224366 175.438621 
L 131.436143 175.514705 
L 132.706807 175.255209 
L 132.918584 174.882735 
L 133.765693 175.417153 
L 134.189247 175.367286 
L 134.612802 175.48234 
L 134.824579 175.695037 
L 135.248134 175.177962 
L 135.459911 175.223479 
L 135.883466 175.020827 
L 136.730575 175.072605 
L 136.942352 175.214798 
L 137.365906 175.172416 
L 137.789461 175.351811 
L 138.63657 175.445347 
L 138.848347 175.365567 
L 139.060125 175.419146 
L 139.271902 175.254396 
L 139.695456 175.378358 
L 139.907234 175.293149 
L 140.119011 175.067842 
L 140.542565 175.179239 
L 140.96612 175.435112 
L 141.601452 175.348076 
L 142.872115 175.40485 
L 143.507447 175.171737 
L 144.142779 175.106976 
L 144.566333 175.289622 
L 145.413442 175.022364 
L 146.048774 175.46915 
L 146.260552 175.402096 
L 146.684106 175.696334 
L 148.166547 175.290551 
L 148.590101 175.65395 
L 148.801879 175.952162 
L 149.225433 175.858798 
L 149.860765 175.667492 
L 150.072542 175.397904 
L 150.496097 175.461925 
L 150.707874 175.481419 
L 150.919651 175.261424 
L 151.343206 175.254339 
L 151.554983 175.438794 
L 152.825647 175.53209 
L 153.460978 175.029863 
L 154.519865 175.141175 
L 154.731642 174.867148 
L 155.155197 175.014926 
L 155.366974 175.475045 
L 155.790528 175.273641 
L 156.002306 175.248275 
L 156.42586 175.429291 
L 156.849415 175.183809 
L 157.272969 175.056777 
L 157.484746 175.030393 
L 157.908301 175.134065 
L 158.120078 175.121685 
L 158.331856 175.358283 
L 158.75541 175.150207 
L 159.178965 175.082071 
L 159.390742 174.833617 
L 159.814296 174.85202 
L 160.026074 175.089614 
L 160.873183 175.225183 
L 161.08496 175.117378 
L 161.508514 175.327224 
L 161.720292 175.086624 
L 161.932069 175.348431 
L 162.143846 175.221171 
L 162.567401 175.206858 
L 162.779178 175.140407 
L 162.990955 175.271852 
L 163.41451 175.018971 
L 163.626287 175.124269 
L 163.838064 174.997296 
L 164.473396 175.198162 
L 164.896951 175.154266 
L 165.108728 175.111867 
L 165.74406 175.3211 
L 166.167614 175.365232 
L 166.802946 175.757193 
L 168.285387 175.733946 
L 168.497164 175.874772 
L 168.920719 175.913706 
L 169.767828 175.422392 
L 171.038491 175.635472 
L 171.462046 175.706523 
L 171.8856 175.610288 
L 172.309155 175.447262 
L 173.156264 175.499781 
L 173.368041 175.69436 
L 174.003373 175.786569 
L 174.21515 175.607694 
L 174.638705 175.706352 
L 175.062259 175.945893 
L 175.274037 175.687118 
L 175.697591 175.700418 
L 175.909368 175.547878 
L 176.121146 175.553127 
L 176.332923 175.414664 
L 176.968255 175.556923 
L 177.180032 175.584047 
L 177.391809 175.852043 
L 178.027141 175.912351 
L 178.238918 175.69569 
L 178.450696 175.693665 
L 178.662473 175.84157 
L 179.086027 175.595307 
L 180.144914 175.816616 
L 180.992023 175.504521 
L 181.2038 175.553515 
L 181.627355 175.309408 
L 182.474464 175.322205 
L 182.686241 175.503797 
L 184.380459 174.805633 
L 184.804014 174.738731 
L 185.015791 174.767501 
L 185.227568 174.646894 
L 185.439345 174.737222 
L 185.651123 174.692245 
L 185.8629 174.883892 
L 186.498232 175.061055 
L 186.710009 175.411884 
L 187.345341 175.796565 
L 187.557118 175.58091 
L 187.768895 175.790119 
L 187.980672 176.220593 
L 188.19245 176.176324 
L 188.827782 175.338298 
L 189.039559 175.239319 
L 189.251336 175.311058 
L 189.463113 174.811258 
L 189.674891 174.726044 
L 189.886668 173.753978 
L 190.733777 174.704391 
L 191.157331 175.445312 
L 191.369109 175.014915 
L 191.580886 174.938003 
L 192.216218 174.164056 
L 192.427995 174.23175 
L 192.639772 174.535826 
L 192.85155 174.58906 
L 193.063327 174.86811 
L 193.698659 175.119721 
L 194.122213 174.609665 
L 194.757545 174.614822 
L 195.181099 174.37928 
L 195.392877 174.61018 
L 195.816431 174.664152 
L 196.451763 175.022736 
L 197.087095 174.433664 
L 197.510649 174.677728 
L 197.722427 174.597082 
L 197.934204 174.741685 
L 198.357758 174.704389 
L 198.569536 174.79064 
L 198.781313 175.094301 
L 198.99309 175.147539 
L 199.204867 175.33953 
L 199.840199 175.106581 
L 200.263754 175.510471 
L 200.687308 175.869165 
L 200.899086 175.931333 
L 201.534417 176.58277 
L 201.957972 176.385181 
L 202.381526 176.509567 
L 202.805081 176.122445 
L 203.016858 176.437997 
L 203.228635 176.122385 
L 203.863967 175.857429 
L 204.075745 176.189538 
L 204.287522 176.305742 
L 204.711076 175.899498 
L 205.98174 175.920133 
L 206.193517 176.118604 
L 206.405294 175.953062 
L 206.617072 176.125764 
L 206.828849 175.925117 
L 207.252403 176.024047 
L 207.464181 176.189966 
L 207.887735 176.106805 
L 208.734844 176.83776 
L 209.158399 177.066748 
L 209.370176 177.432824 
L 209.581953 177.260036 
L 210.005508 177.734982 
L 210.429062 177.319594 
L 210.852617 177.64468 
L 211.064394 177.572936 
L 211.487949 177.167653 
L 211.699726 177.185616 
L 212.123281 177.462956 
L 212.546835 177.646069 
L 212.758612 177.902393 
L 212.97039 177.444926 
L 213.182167 177.471894 
L 213.393944 177.180559 
L 213.605721 177.134406 
L 213.817499 177.322378 
L 214.241053 177.269627 
L 214.45283 177.582512 
L 214.876385 177.626042 
L 215.088162 177.407187 
L 215.723494 177.351717 
L 215.935271 177.162848 
L 216.358826 177.347719 
L 216.78238 177.450068 
L 217.205935 177.14962 
L 217.417712 177.297216 
L 217.629489 177.257878 
L 218.053044 176.771557 
L 218.264821 176.652071 
L 218.476598 176.68871 
L 218.688376 176.584523 
L 219.323708 176.834061 
L 219.535485 176.898228 
L 219.747262 176.806455 
L 219.959039 176.98357 
L 220.170817 176.811554 
L 221.017926 176.954646 
L 221.229703 176.664529 
L 221.865035 176.663811 
L 222.500366 177.154687 
L 222.712144 177.021949 
L 222.923921 177.110707 
L 223.982807 176.432423 
L 224.194585 176.463938 
L 224.406362 176.916613 
L 224.618139 176.802783 
L 225.041694 177.20609 
L 225.253471 176.959447 
L 225.888803 176.813298 
L 226.312357 177.000909 
L 226.947689 176.924202 
L 227.583021 176.895894 
L 228.43013 176.926577 
L 228.641907 177.344533 
L 229.065462 177.552492 
L 229.912571 177.381534 
L 230.124348 177.596201 
L 230.547903 177.530505 
L 230.75968 177.564524 
L 231.183234 177.954398 
L 231.395012 177.781441 
L 231.606789 177.863663 
L 231.818566 177.709874 
L 233.08923 178.033412 
L 233.301007 177.581943 
L 233.512784 177.784747 
L 233.724561 177.773622 
L 234.148116 177.957019 
L 234.571671 177.410624 
L 234.783448 177.419418 
L 234.995225 177.614191 
L 235.207002 177.504109 
L 235.41878 177.543324 
L 235.630557 177.319178 
L 235.842334 177.41992 
L 236.054111 177.702605 
L 236.265889 177.621721 
L 236.689443 177.821218 
L 236.90122 177.73052 
L 237.112998 177.76248 
L 237.324775 177.514919 
L 237.748329 177.61496 
L 238.171884 177.407052 
L 238.383661 177.47278 
L 238.595439 177.259635 
L 238.807216 177.532423 
L 239.018993 177.552635 
L 239.23077 177.722704 
L 240.077879 177.643354 
L 240.501434 177.358518 
L 241.136766 177.855579 
L 241.348543 177.774998 
L 241.772097 177.816128 
L 242.195652 177.467331 
L 242.407429 177.591601 
L 243.042761 177.182583 
L 243.254538 176.985638 
L 243.88987 177.479239 
L 244.525202 177.278674 
L 244.736979 177.51559 
L 245.160534 177.153227 
L 245.372311 177.321272 
L 245.584088 177.017787 
L 246.431197 176.875802 
L 246.642975 176.732513 
L 246.854752 176.781536 
L 247.066529 176.968862 
L 247.278306 176.921696 
L 247.701861 177.181621 
L 247.913638 177.158803 
L 248.125415 177.285996 
L 248.54897 177.265413 
L 248.972524 177.455759 
L 249.396079 177.361893 
L 249.607856 177.628082 
L 250.243188 177.485474 
L 250.454965 177.732423 
L 250.87852 177.70966 
L 251.090297 177.858354 
L 251.302074 177.837629 
L 251.513852 177.503788 
L 251.725629 177.628046 
L 252.149183 177.452484 
L 252.572738 177.985855 
L 253.419847 177.459498 
L 253.631624 177.708987 
L 253.843402 177.681366 
L 254.055179 177.822064 
L 254.266956 177.58725 
L 254.478733 177.737219 
L 254.690511 177.540378 
L 255.114065 177.631919 
L 255.325842 177.379472 
L 255.749397 177.302623 
L 255.961174 177.445849 
L 256.384729 177.336967 
L 256.596506 177.065978 
L 257.02006 177.323121 
L 257.231838 177.28129 
L 257.655392 177.348451 
L 257.86717 177.122111 
L 258.290724 177.169474 
L 258.714279 176.529272 
L 258.926056 176.435815 
L 259.34961 176.762747 
L 260.408497 176.77331 
L 260.832051 176.710857 
L 261.255606 176.870368 
L 261.67916 176.754813 
L 262.102715 176.993228 
L 262.314492 176.953063 
L 262.526269 176.668772 
L 262.738047 176.837155 
L 263.585156 176.637544 
L 265.067597 177.215181 
L 265.491151 177.179519 
L 266.126483 177.116942 
L 266.33826 176.879192 
L 267.185369 177.005637 
L 267.397146 177.208806 
L 267.608924 177.107935 
L 267.820701 176.859017 
L 268.456033 176.776766 
L 268.879587 176.932869 
L 269.091365 176.996215 
L 269.303142 176.935073 
L 269.514919 177.074266 
L 269.938474 177.104119 
L 270.573805 177.380694 
L 271.632692 177.137918 
L 272.268023 177.178478 
L 272.691578 176.86648 
L 273.115133 176.847549 
L 273.32691 176.696995 
L 273.538687 176.8682 
L 274.174019 176.739275 
L 274.385796 176.471183 
L 274.597573 176.426668 
L 275.021128 176.619179 
L 275.444682 176.397346 
L 275.868237 176.456614 
L 276.291791 176.326805 
L 276.503569 176.495851 
L 276.927123 176.503225 
L 277.562455 176.684692 
L 277.774232 176.567304 
L 277.98601 176.598964 
L 278.409564 176.389595 
L 278.621341 176.379583 
L 278.833119 176.639432 
L 279.044896 176.19505 
L 279.256673 176.344887 
L 279.46845 176.332476 
L 279.680228 176.488576 
L 279.892005 176.328687 
L 280.527337 176.548508 
L 280.739114 176.23772 
L 281.798 175.851572 
L 282.009778 175.995083 
L 282.221555 175.706857 
L 282.645109 175.636093 
L 282.856887 175.558824 
L 283.068664 175.624237 
L 283.280441 175.905878 
L 283.492218 175.899632 
L 283.703996 176.040886 
L 284.762882 175.850956 
L 284.974659 176.084509 
L 285.186437 175.930523 
L 285.609991 175.908334 
L 285.821768 175.875437 
L 286.245323 176.096898 
L 286.4571 175.804096 
L 287.092432 176.081941 
L 287.939541 176.002559 
L 288.151318 176.174041 
L 288.363096 176.048808 
L 288.574873 176.244249 
L 288.998427 176.04135 
L 289.210205 176.178703 
L 289.421982 176.133284 
L 289.633759 176.341699 
L 289.845536 176.235615 
L 290.057314 176.312194 
L 290.269091 176.536941 
L 290.480868 176.545588 
L 290.692645 176.361221 
L 290.904423 176.34809 
L 291.1162 176.078008 
L 291.751532 176.307751 
L 292.175086 176.238806 
L 292.598641 175.717029 
L 292.810418 175.767925 
L 293.657527 176.837919 
L 293.869304 176.869669 
L 295.139968 176.130325 
L 295.563523 176.343297 
L 295.7753 176.297403 
L 295.987077 176.125616 
L 296.622409 176.055075 
L 296.834186 175.659726 
L 297.045963 175.607552 
L 297.257741 175.727828 
L 297.469518 175.490432 
L 297.893072 175.35523 
L 298.10485 174.784505 
L 298.528404 175.050047 
L 298.740181 175.656105 
L 299.163736 175.167046 
L 299.799068 175.750135 
L 300.010845 175.978199 
L 300.4344 175.714353 
L 300.646177 175.826337 
L 301.281509 175.698577 
L 301.493286 175.715549 
L 301.91684 176.144908 
L 302.128618 175.825687 
L 302.552172 175.480537 
L 303.187504 175.066602 
L 303.611059 175.156878 
L 303.822836 175.033301 
L 304.034613 175.241922 
L 304.24639 175.008578 
L 304.458168 175.020059 
L 304.669945 174.918434 
L 304.881722 174.967085 
L 305.093499 175.147505 
L 305.517054 175.090076 
L 306.152386 174.515755 
L 306.364163 174.379147 
L 306.57594 174.611032 
L 306.999495 174.815813 
L 307.211272 175.190072 
L 307.423049 174.92157 
L 307.634827 174.905184 
L 307.846604 175.000796 
L 308.270158 174.834662 
L 308.481936 174.386785 
L 308.90549 174.740114 
L 309.117267 175.135055 
L 309.329045 174.90617 
L 309.540822 175.269024 
L 309.752599 175.193735 
L 310.176154 175.703996 
L 310.387931 175.501903 
L 310.599708 175.638241 
L 310.811486 175.599818 
L 311.023263 175.742531 
L 311.446817 175.35149 
L 311.658595 175.725057 
L 312.505704 175.692761 
L 313.141035 174.838144 
L 313.776367 175.389309 
L 313.988144 175.190096 
L 314.623476 175.472013 
L 314.835254 175.322875 
L 315.047031 175.490176 
L 315.258808 175.511979 
L 315.682363 175.170467 
L 315.89414 175.304828 
L 316.105917 175.233038 
L 316.317694 175.292512 
L 316.529472 174.749893 
L 316.741249 174.604702 
L 317.164803 174.742634 
L 317.376581 174.413472 
L 318.011912 174.552913 
L 318.647244 175.212005 
L 318.859022 175.048724 
L 319.070799 175.144912 
L 319.706131 174.746036 
L 319.917908 175.032882 
L 320.129685 174.901337 
L 320.341462 174.925496 
L 320.55324 175.115006 
L 320.765017 174.756676 
L 320.976794 174.79591 
L 321.188571 175.108072 
L 321.400349 174.834199 
L 322.247458 175.092968 
L 322.671012 174.578774 
L 323.094567 174.703025 
L 323.729899 174.033139 
L 324.36523 174.375637 
L 324.577008 174.32363 
L 324.788785 174.656966 
L 325.212339 174.80874 
L 325.635894 174.439985 
L 325.847671 174.64481 
L 326.059448 174.497113 
L 326.271226 174.875092 
L 326.483003 174.970264 
L 326.906558 175.383741 
L 327.118335 174.852885 
L 327.965444 175.241509 
L 328.177221 175.102215 
L 328.388998 174.680858 
L 328.600776 174.880799 
L 328.812553 174.502944 
L 329.236107 174.387142 
L 329.659662 175.318646 
L 329.871439 175.252779 
L 330.083217 175.354915 
L 330.294994 175.741217 
L 330.930326 174.740419 
L 331.35388 174.654106 
L 331.565657 174.673227 
L 331.777435 174.894752 
L 331.989212 174.863275 
L 332.200989 175.215537 
L 332.412766 175.243837 
L 332.624544 174.823955 
L 332.836321 174.878976 
L 333.048098 175.112111 
L 333.259875 175.178357 
L 333.471653 175.386879 
L 333.68343 175.760633 
L 333.895207 175.363243 
L 334.106985 175.391697 
L 334.318762 175.182284 
L 334.530539 175.236831 
L 334.954094 174.940183 
L 335.377648 175.907556 
L 335.589425 176.143855 
L 335.801203 175.902228 
L 336.224757 176.744694 
L 336.436534 176.671993 
L 336.860089 176.822272 
L 337.495421 176.281648 
L 337.918975 176.819867 
L 338.130753 176.78274 
L 338.554307 176.41824 
L 338.766084 176.275981 
L 339.189639 176.741949 
L 339.401416 176.657091 
L 339.824971 176.323351 
L 340.248525 176.565612 
L 340.460302 176.378376 
L 340.67208 176.381984 
L 341.095634 176.779379 
L 341.730966 176.535181 
L 342.154521 176.523717 
L 342.366298 176.508487 
L 342.578075 176.739737 
L 342.789852 176.600354 
L 343.00163 176.689782 
L 343.213407 176.622277 
L 343.636961 176.791282 
L 343.848739 176.628333 
L 344.060516 176.185575 
L 344.272293 176.374027 
L 344.48407 176.082462 
L 344.907625 176.745746 
L 345.33118 176.795633 
L 345.542957 177.178398 
L 345.754734 177.008462 
L 345.966511 177.044199 
L 346.178289 176.834945 
L 346.601843 176.887021 
L 347.448952 177.045186 
L 348.296061 176.688058 
L 348.507838 177.146771 
L 348.931393 176.357634 
L 349.14317 176.182936 
L 349.566725 176.128267 
L 349.778502 176.236921 
L 349.990279 176.040775 
L 350.202057 176.260837 
L 350.413834 176.306989 
L 350.837388 176.134914 
L 351.260943 176.180707 
L 352.108052 175.780991 
L 352.319829 175.962152 
L 352.531606 175.862228 
L 352.743384 176.150633 
L 352.955161 175.873384 
L 353.378716 176.146773 
L 353.590493 175.668978 
L 353.80227 175.634985 
L 354.014047 175.723935 
L 354.225825 176.02008 
L 354.437602 176.121504 
L 354.649379 176.094387 
L 354.861156 175.612913 
L 355.072934 175.676315 
L 355.496488 175.978635 
L 356.13182 176.170118 
L 356.343597 176.030223 
L 357.190706 176.405773 
L 357.402484 176.072621 
L 357.614261 176.436641 
L 357.826038 176.568383 
L 358.037815 176.34257 
L 358.46137 176.285022 
L 358.673147 176.102469 
L 359.308479 176.738263 
L 359.732033 176.279189 
L 359.943811 176.417111 
L 360.155588 176.376106 
L 360.579143 176.558828 
L 360.79092 176.801919 
L 361.002697 176.496282 
L 361.214474 176.693141 
L 361.849806 176.337435 
L 362.273361 176.635012 
L 362.696915 176.389804 
L 363.12047 176.112663 
L 363.332247 176.135942 
L 363.755801 175.664138 
L 364.179356 175.716135 
L 364.602911 175.385709 
L 364.814688 175.564639 
L 365.026465 175.526103 
L 365.661797 175.193858 
L 366.508906 175.127066 
L 366.720683 175.342115 
L 366.93246 175.093413 
L 367.356015 175.014355 
L 367.567792 174.981872 
L 367.779569 175.197306 
L 367.991347 175.034756 
L 368.414901 175.073843 
L 368.626679 175.182603 
L 368.838456 175.449995 
L 369.473788 175.155935 
L 369.685565 175.356363 
L 370.320897 174.971629 
L 370.532674 175.116999 
L 370.956228 174.854414 
L 371.379783 175.000188 
L 371.803337 174.894605 
L 372.015115 174.993636 
L 372.226892 175.261558 
L 372.650447 175.268493 
L 373.074001 175.825145 
L 373.92111 175.674541 
L 374.132887 175.497186 
L 374.344665 175.49475 
L 374.556442 175.349753 
L 374.979996 175.442645 
L 375.191774 175.163202 
L 375.403551 175.326866 
L 375.827105 175.366159 
L 376.038883 175.163148 
L 376.25066 175.188827 
L 376.462437 175.332249 
L 376.674215 175.326609 
L 376.885992 175.156953 
L 377.309546 175.293744 
L 377.733101 175.136566 
L 378.156655 175.119352 
L 378.791987 175.110633 
L 379.003764 174.910167 
L 379.215542 174.936841 
L 379.427319 174.692666 
L 379.639096 174.622724 
L 380.274428 174.930791 
L 380.697983 174.345973 
L 380.90976 174.392896 
L 381.121537 174.089962 
L 381.756869 173.945392 
L 382.180423 174.018895 
L 382.392201 173.907415 
L 382.603978 173.548055 
L 383.23931 173.823834 
L 383.451087 173.792246 
L 383.874642 173.875062 
L 384.509973 173.461899 
L 384.933528 173.704512 
L 385.145305 173.472005 
L 385.357082 173.447713 
L 386.415969 173.869659 
L 386.627746 173.88545 
L 386.839523 173.592816 
L 387.0513 173.579564 
L 387.474855 173.835429 
L 387.686632 173.7486 
L 387.89841 173.975012 
L 388.110187 173.990604 
L 388.321964 174.30203 
L 388.533741 174.040431 
L 388.957296 174.016796 
L 389.169073 174.006789 
L 389.38085 174.211921 
L 389.592628 174.096347 
L 390.016182 174.227409 
L 390.227959 174.546936 
L 391.075068 174.142261 
L 391.498623 174.275654 
L 391.7104 174.814153 
L 392.133955 174.636437 
L 392.557509 174.768822 
L 392.981064 174.322467 
L 393.616396 174.443619 
L 393.828173 174.537914 
L 395.098837 173.833561 
L 395.310614 173.961966 
L 395.734168 173.889952 
L 395.945946 173.992218 
L 396.3695 174.606923 
L 396.581277 174.241907 
L 396.793055 174.289513 
L 397.004832 174.51489 
L 397.216609 174.298253 
L 397.428386 174.482058 
L 397.640164 174.507514 
L 397.851941 174.366624 
L 398.063718 174.407144 
L 398.275495 174.639802 
L 398.487273 174.480712 
L 398.487273 174.480712 
" clip-path="url(#pe5f360f64d)" style="fill: none; stroke: #2ca02c; stroke-opacity: 0.7; stroke-width: 1.5; stroke-linecap: square"/>
   </g>
   <g id="patch_3">
    <path d="M 57.6 307.584 
L 57.6 41.472 
" style="fill: none; stroke: #000000; stroke-width: 0.8; stroke-linejoin: miter; stroke-linecap: square"/>
   </g>
   <g id="patch_4">
    <path d="M 414.72 307.584 
L 414.72 41.472 
" style="fill: none; stroke: #000000; stroke-width: 0.8; stroke-linejoin: miter; stroke-linecap: square"/>
   </g>
   <g id="patch_5">
    <path d="M 57.6 307.584 
L 414.72 307.584 
" style="fill: none; stroke: #000000; stroke-width: 0.8; stroke-linejoin: miter; stroke-linecap: square"/>
   </g>
   <g id="patch_6">
    <path d="M 57.6 41.472 
L 414.72 41.472 
" style="fill: none; stroke: #000000; stroke-width: 0.8; stroke-linejoin: miter; stroke-linecap: square"/>
   </g>
   <g id="text_19">
    <!-- 1final_naive_jc_eurusd -->
    <g transform="translate(168.36375 35.472) scale(0.12 -0.12)">
     <defs>
      <path id="DejaVuSans-66" d="M 2375 4863 
L 2375 4384 
L 1825 4384 
Q 1516 4384 1395 4259 
Q 1275 4134 1275 3809 
L 1275 3500 
L 2222 3500 
L 2222 3053 
L 1275 3053 
L 1275 0 
L 697 0 
L 697 3053 
L 147 3053 
L 147 3500 
L 697 3500 
L 697 3744 
Q 697 4328 969 4595 
Q 1241 4863 1831 4863 
L 2375 4863 
z
" transform="scale(0.015625)"/>
      <path id="DejaVuSans-69" d="M 603 3500 
L 1178 3500 
L 1178 0 
L 603 0 
L 603 3500 
z
M 603 4863 
L 1178 4863 
L 1178 4134 
L 603 4134 
L 603 4863 
z
" transform="scale(0.015625)"/>
      <path id="DejaVuSans-6e" d="M 3513 2113 
L 3513 0 
L 2938 0 
L 2938 2094 
Q 2938 2591 2744 2837 
Q 2550 3084 2163 3084 
Q 1697 3084 1428 2787 
Q 1159 2491 1159 1978 
L 1159 0 
L 581 0 
L 581 3500 
L 1159 3500 
L 1159 2956 
Q 1366 3272 1645 3428 
Q 1925 3584 2291 3584 
Q 2894 3584 3203 3211 
Q 3513 2838 3513 2113 
z
" transform="scale(0.015625)"/>
      <path id="DejaVuSans-61" d="M 2194 1759 
Q 1497 1759 1228 1600 
Q 959 1441 959 1056 
Q 959 750 1161 570 
Q 1363 391 1709 391 
Q 2188 391 2477 730 
Q 2766 1069 2766 1631 
L 2766 1759 
L 2194 1759 
z
M 3341 1997 
L 3341 0 
L 2766 0 
L 2766 531 
Q 2569 213 2275 61 
Q 1981 -91 1556 -91 
Q 1019 -91 701 211 
Q 384 513 384 1019 
Q 384 1609 779 1909 
Q 1175 2209 1959 2209 
L 2766 2209 
L 2766 2266 
Q 2766 2663 2505 2880 
Q 2244 3097 1772 3097 
Q 1472 3097 1187 3025 
Q 903 2953 641 2809 
L 641 3341 
Q 956 3463 1253 3523 
Q 1550 3584 1831 3584 
Q 2591 3584 2966 3190 
Q 3341 2797 3341 1997 
z
" transform="scale(0.015625)"/>
      <path id="DejaVuSans-6c" d="M 603 4863 
L 1178 4863 
L 1178 0 
L 603 0 
L 603 4863 
z
" transform="scale(0.015625)"/>
      <path id="DejaVuSans-5f" d="M 3263 -1063 
L 3263 -1509 
L -63 -1509 
L -63 -1063 
L 3263 -1063 
z
" transform="scale(0.015625)"/>
      <path id="DejaVuSans-76" d="M 191 3500 
L 800 3500 
L 1894 563 
L 2988 3500 
L 3597 3500 
L 2284 0 
L 1503 0 
L 191 3500 
z
" transform="scale(0.015625)"/>
      <path id="DejaVuSans-65" d="M 3597 1894 
L 3597 1613 
L 953 1613 
Q 991 1019 1311 708 
Q 1631 397 2203 397 
Q 2534 397 2845 478 
Q 3156 559 3463 722 
L 3463 178 
Q 3153 47 2828 -22 
Q 2503 -91 2169 -91 
Q 1331 -91 842 396 
Q 353 884 353 1716 
Q 353 2575 817 3079 
Q 1281 3584 2069 3584 
Q 2775 3584 3186 3129 
Q 3597 2675 3597 1894 
z
M 3022 2063 
Q 3016 2534 2758 2815 
Q 2500 3097 2075 3097 
Q 1594 3097 1305 2825 
Q 1016 2553 972 2059 
L 3022 2063 
z
" transform="scale(0.015625)"/>
      <path id="DejaVuSans-6a" d="M 603 3500 
L 1178 3500 
L 1178 -63 
Q 1178 -731 923 -1031 
Q 669 -1331 103 -1331 
L -116 -1331 
L -116 -844 
L 38 -844 
Q 366 -844 484 -692 
Q 603 -541 603 -63 
L 603 3500 
z
M 603 4863 
L 1178 4863 
L 1178 4134 
L 603 4134 
L 603 4863 
z
" transform="scale(0.015625)"/>
      <path id="DejaVuSans-63" d="M 3122 3366 
L 3122 2828 
Q 2878 2963 2633 3030 
Q 2388 3097 2138 3097 
Q 1578 3097 1268 2742 
Q 959 2388 959 1747 
Q 959 1106 1268 751 
Q 1578 397 2138 397 
Q 2388 397 2633 464 
Q 2878 531 3122 666 
L 3122 134 
Q 2881 22 2623 -34 
Q 2366 -91 2075 -91 
Q 1284 -91 818 406 
Q 353 903 353 1747 
Q 353 2603 823 3093 
Q 1294 3584 2113 3584 
Q 2378 3584 2631 3529 
Q 2884 3475 3122 3366 
z
" transform="scale(0.015625)"/>
      <path id="DejaVuSans-75" d="M 544 1381 
L 544 3500 
L 1119 3500 
L 1119 1403 
Q 1119 906 1312 657 
Q 1506 409 1894 409 
Q 2359 409 2629 706 
Q 2900 1003 2900 1516 
L 2900 3500 
L 3475 3500 
L 3475 0 
L 2900 0 
L 2900 538 
Q 2691 219 2414 64 
Q 2138 -91 1772 -91 
Q 1169 -91 856 284 
Q 544 659 544 1381 
z
M 1991 3584 
L 1991 3584 
z
" transform="scale(0.015625)"/>
      <path id="DejaVuSans-72" d="M 2631 2963 
Q 2534 3019 2420 3045 
Q 2306 3072 2169 3072 
Q 1681 3072 1420 2755 
Q 1159 2438 1159 1844 
L 1159 0 
L 581 0 
L 581 3500 
L 1159 3500 
L 1159 2956 
Q 1341 3275 1631 3429 
Q 1922 3584 2338 3584 
Q 2397 3584 2469 3576 
Q 2541 3569 2628 3553 
L 2631 2963 
z
" transform="scale(0.015625)"/>
      <path id="DejaVuSans-73" d="M 2834 3397 
L 2834 2853 
Q 2591 2978 2328 3040 
Q 2066 3103 1784 3103 
Q 1356 3103 1142 2972 
Q 928 2841 928 2578 
Q 928 2378 1081 2264 
Q 1234 2150 1697 2047 
L 1894 2003 
Q 2506 1872 2764 1633 
Q 3022 1394 3022 966 
Q 3022 478 2636 193 
Q 2250 -91 1575 -91 
Q 1294 -91 989 -36 
Q 684 19 347 128 
L 347 722 
Q 666 556 975 473 
Q 1284 391 1588 391 
Q 1994 391 2212 530 
Q 2431 669 2431 922 
Q 2431 1156 2273 1281 
Q 2116 1406 1581 1522 
L 1381 1569 
Q 847 1681 609 1914 
Q 372 2147 372 2553 
Q 372 3047 722 3315 
Q 1072 3584 1716 3584 
Q 2034 3584 2315 3537 
Q 2597 3491 2834 3397 
z
" transform="scale(0.015625)"/>
      <path id="DejaVuSans-64" d="M 2906 2969 
L 2906 4863 
L 3481 4863 
L 3481 0 
L 2906 0 
L 2906 525 
Q 2725 213 2448 61 
Q 2172 -91 1784 -91 
Q 1150 -91 751 415 
Q 353 922 353 1747 
Q 353 2572 751 3078 
Q 1150 3584 1784 3584 
Q 2172 3584 2448 3432 
Q 2725 3281 2906 2969 
z
M 947 1747 
Q 947 1113 1208 752 
Q 1469 391 1925 391 
Q 2381 391 2643 752 
Q 2906 1113 2906 1747 
Q 2906 2381 2643 2742 
Q 2381 3103 1925 3103 
Q 1469 3103 1208 2742 
Q 947 2381 947 1747 
z
" transform="scale(0.015625)"/>
     </defs>
     <use xlink:href="#DejaVuSans-31"/>
     <use xlink:href="#DejaVuSans-66" x="63.623047"/>
     <use xlink:href="#DejaVuSans-69" x="98.828125"/>
     <use xlink:href="#DejaVuSans-6e" x="126.611328"/>
     <use xlink:href="#DejaVuSans-61" x="189.990234"/>
     <use xlink:href="#DejaVuSans-6c" x="251.269531"/>
     <use xlink:href="#DejaVuSans-5f" x="279.052734"/>
     <use xlink:href="#DejaVuSans-6e" x="329.052734"/>
     <use xlink:href="#DejaVuSans-61" x="392.431641"/>
     <use xlink:href="#DejaVuSans-69" x="453.710938"/>
     <use xlink:href="#DejaVuSans-76" x="481.494141"/>
     <use xlink:href="#DejaVuSans-65" x="540.673828"/>
     <use xlink:href="#DejaVuSans-5f" x="602.197266"/>
     <use xlink:href="#DejaVuSans-6a" x="652.197266"/>
     <use xlink:href="#DejaVuSans-63" x="679.980469"/>
     <use xlink:href="#DejaVuSans-5f" x="734.960938"/>
     <use xlink:href="#DejaVuSans-65" x="784.960938"/>
     <use xlink:href="#DejaVuSans-75" x="846.484375"/>
     <use xlink:href="#DejaVuSans-72" x="909.863281"/>
     <use xlink:href="#DejaVuSans-75" x="950.976562"/>
     <use xlink:href="#DejaVuSans-73" x="1014.355469"/>
     <use xlink:href="#DejaVuSans-64" x="1066.455078"/>
    </g>
   </g>
   <g id="legend_1">
    <g id="patch_7">
     <path d="M 64.6 93.506375 
L 258.804688 93.506375 
Q 260.804688 93.506375 260.804688 91.506375 
L 260.804688 48.472 
Q 260.804688 46.472 258.804688 46.472 
L 64.6 46.472 
Q 62.6 46.472 62.6 48.472 
L 62.6 91.506375 
Q 62.6 93.506375 64.6 93.506375 
z
" style="fill: #ffffff; opacity: 0.8; stroke: #cccccc; stroke-linejoin: miter"/>
    </g>
    <g id="line2d_22">
     <path d="M 66.6 54.570438 
L 76.6 54.570438 
L 86.6 54.570438 
" style="fill: none; stroke: #1f77b4; stroke-opacity: 0.7; stroke-width: 1.5; stroke-linecap: square"/>
    </g>
    <g id="text_20">
     <!-- Positive cumulative predictions -->
     <g transform="translate(94.6 58.070438) scale(0.1 -0.1)">
      <defs>
       <path id="DejaVuSans-50" d="M 1259 4147 
L 1259 2394 
L 2053 2394 
Q 2494 2394 2734 2622 
Q 2975 2850 2975 3272 
Q 2975 3691 2734 3919 
Q 2494 4147 2053 4147 
L 1259 4147 
z
M 628 4666 
L 2053 4666 
Q 2838 4666 3239 4311 
Q 3641 3956 3641 3272 
Q 3641 2581 3239 2228 
Q 2838 1875 2053 1875 
L 1259 1875 
L 1259 0 
L 628 0 
L 628 4666 
z
" transform="scale(0.015625)"/>
       <path id="DejaVuSans-6f" d="M 1959 3097 
Q 1497 3097 1228 2736 
Q 959 2375 959 1747 
Q 959 1119 1226 758 
Q 1494 397 1959 397 
Q 2419 397 2687 759 
Q 2956 1122 2956 1747 
Q 2956 2369 2687 2733 
Q 2419 3097 1959 3097 
z
M 1959 3584 
Q 2709 3584 3137 3096 
Q 3566 2609 3566 1747 
Q 3566 888 3137 398 
Q 2709 -91 1959 -91 
Q 1206 -91 779 398 
Q 353 888 353 1747 
Q 353 2609 779 3096 
Q 1206 3584 1959 3584 
z
" transform="scale(0.015625)"/>
       <path id="DejaVuSans-74" d="M 1172 4494 
L 1172 3500 
L 2356 3500 
L 2356 3053 
L 1172 3053 
L 1172 1153 
Q 1172 725 1289 603 
Q 1406 481 1766 481 
L 2356 481 
L 2356 0 
L 1766 0 
Q 1100 0 847 248 
Q 594 497 594 1153 
L 594 3053 
L 172 3053 
L 172 3500 
L 594 3500 
L 594 4494 
L 1172 4494 
z
" transform="scale(0.015625)"/>
       <path id="DejaVuSans-20" transform="scale(0.015625)"/>
       <path id="DejaVuSans-6d" d="M 3328 2828 
Q 3544 3216 3844 3400 
Q 4144 3584 4550 3584 
Q 5097 3584 5394 3201 
Q 5691 2819 5691 2113 
L 5691 0 
L 5113 0 
L 5113 2094 
Q 5113 2597 4934 2840 
Q 4756 3084 4391 3084 
Q 3944 3084 3684 2787 
Q 3425 2491 3425 1978 
L 3425 0 
L 2847 0 
L 2847 2094 
Q 2847 2600 2669 2842 
Q 2491 3084 2119 3084 
Q 1678 3084 1418 2786 
Q 1159 2488 1159 1978 
L 1159 0 
L 581 0 
L 581 3500 
L 1159 3500 
L 1159 2956 
Q 1356 3278 1631 3431 
Q 1906 3584 2284 3584 
Q 2666 3584 2933 3390 
Q 3200 3197 3328 2828 
z
" transform="scale(0.015625)"/>
       <path id="DejaVuSans-70" d="M 1159 525 
L 1159 -1331 
L 581 -1331 
L 581 3500 
L 1159 3500 
L 1159 2969 
Q 1341 3281 1617 3432 
Q 1894 3584 2278 3584 
Q 2916 3584 3314 3078 
Q 3713 2572 3713 1747 
Q 3713 922 3314 415 
Q 2916 -91 2278 -91 
Q 1894 -91 1617 61 
Q 1341 213 1159 525 
z
M 3116 1747 
Q 3116 2381 2855 2742 
Q 2594 3103 2138 3103 
Q 1681 3103 1420 2742 
Q 1159 2381 1159 1747 
Q 1159 1113 1420 752 
Q 1681 391 2138 391 
Q 2594 391 2855 752 
Q 3116 1113 3116 1747 
z
" transform="scale(0.015625)"/>
      </defs>
      <use xlink:href="#DejaVuSans-50"/>
      <use xlink:href="#DejaVuSans-6f" x="56.677734"/>
      <use xlink:href="#DejaVuSans-73" x="117.859375"/>
      <use xlink:href="#DejaVuSans-69" x="169.958984"/>
      <use xlink:href="#DejaVuSans-74" x="197.742188"/>
      <use xlink:href="#DejaVuSans-69" x="236.951172"/>
      <use xlink:href="#DejaVuSans-76" x="264.734375"/>
      <use xlink:href="#DejaVuSans-65" x="323.914062"/>
      <use xlink:href="#DejaVuSans-20" x="385.4375"/>
      <use xlink:href="#DejaVuSans-63" x="417.224609"/>
      <use xlink:href="#DejaVuSans-75" x="472.205078"/>
      <use xlink:href="#DejaVuSans-6d" x="535.583984"/>
      <use xlink:href="#DejaVuSans-75" x="632.996094"/>
      <use xlink:href="#DejaVuSans-6c" x="696.375"/>
      <use xlink:href="#DejaVuSans-61" x="724.158203"/>
      <use xlink:href="#DejaVuSans-74" x="785.4375"/>
      <use xlink:href="#DejaVuSans-69" x="824.646484"/>
      <use xlink:href="#DejaVuSans-76" x="852.429688"/>
      <use xlink:href="#DejaVuSans-65" x="911.609375"/>
      <use xlink:href="#DejaVuSans-20" x="973.132812"/>
      <use xlink:href="#DejaVuSans-70" x="1004.919922"/>
      <use xlink:href="#DejaVuSans-72" x="1068.396484"/>
      <use xlink:href="#DejaVuSans-65" x="1107.259766"/>
      <use xlink:href="#DejaVuSans-64" x="1168.783203"/>
      <use xlink:href="#DejaVuSans-69" x="1232.259766"/>
      <use xlink:href="#DejaVuSans-63" x="1260.042969"/>
      <use xlink:href="#DejaVuSans-74" x="1315.023438"/>
      <use xlink:href="#DejaVuSans-69" x="1354.232422"/>
      <use xlink:href="#DejaVuSans-6f" x="1382.015625"/>
      <use xlink:href="#DejaVuSans-6e" x="1443.197266"/>
      <use xlink:href="#DejaVuSans-73" x="1506.576172"/>
     </g>
    </g>
    <g id="line2d_23">
     <path d="M 66.6 69.248563 
L 76.6 69.248563 
L 86.6 69.248563 
" style="fill: none; stroke: #ff7f0e; stroke-opacity: 0.7; stroke-width: 1.5; stroke-linecap: square"/>
    </g>
    <g id="text_21">
     <!-- Negative cumulative predictions -->
     <g transform="translate(94.6 72.748563) scale(0.1 -0.1)">
      <defs>
       <path id="DejaVuSans-4e" d="M 628 4666 
L 1478 4666 
L 3547 763 
L 3547 4666 
L 4159 4666 
L 4159 0 
L 3309 0 
L 1241 3903 
L 1241 0 
L 628 0 
L 628 4666 
z
" transform="scale(0.015625)"/>
       <path id="DejaVuSans-67" d="M 2906 1791 
Q 2906 2416 2648 2759 
Q 2391 3103 1925 3103 
Q 1463 3103 1205 2759 
Q 947 2416 947 1791 
Q 947 1169 1205 825 
Q 1463 481 1925 481 
Q 2391 481 2648 825 
Q 2906 1169 2906 1791 
z
M 3481 434 
Q 3481 -459 3084 -895 
Q 2688 -1331 1869 -1331 
Q 1566 -1331 1297 -1286 
Q 1028 -1241 775 -1147 
L 775 -588 
Q 1028 -725 1275 -790 
Q 1522 -856 1778 -856 
Q 2344 -856 2625 -561 
Q 2906 -266 2906 331 
L 2906 616 
Q 2728 306 2450 153 
Q 2172 0 1784 0 
Q 1141 0 747 490 
Q 353 981 353 1791 
Q 353 2603 747 3093 
Q 1141 3584 1784 3584 
Q 2172 3584 2450 3431 
Q 2728 3278 2906 2969 
L 2906 3500 
L 3481 3500 
L 3481 434 
z
" transform="scale(0.015625)"/>
      </defs>
      <use xlink:href="#DejaVuSans-4e"/>
      <use xlink:href="#DejaVuSans-65" x="74.804688"/>
      <use xlink:href="#DejaVuSans-67" x="136.328125"/>
      <use xlink:href="#DejaVuSans-61" x="199.804688"/>
      <use xlink:href="#DejaVuSans-74" x="261.083984"/>
      <use xlink:href="#DejaVuSans-69" x="300.292969"/>
      <use xlink:href="#DejaVuSans-76" x="328.076172"/>
      <use xlink:href="#DejaVuSans-65" x="387.255859"/>
      <use xlink:href="#DejaVuSans-20" x="448.779297"/>
      <use xlink:href="#DejaVuSans-63" x="480.566406"/>
      <use xlink:href="#DejaVuSans-75" x="535.546875"/>
      <use xlink:href="#DejaVuSans-6d" x="598.925781"/>
      <use xlink:href="#DejaVuSans-75" x="696.337891"/>
      <use xlink:href="#DejaVuSans-6c" x="759.716797"/>
      <use xlink:href="#DejaVuSans-61" x="787.5"/>
      <use xlink:href="#DejaVuSans-74" x="848.779297"/>
      <use xlink:href="#DejaVuSans-69" x="887.988281"/>
      <use xlink:href="#DejaVuSans-76" x="915.771484"/>
      <use xlink:href="#DejaVuSans-65" x="974.951172"/>
      <use xlink:href="#DejaVuSans-20" x="1036.474609"/>
      <use xlink:href="#DejaVuSans-70" x="1068.261719"/>
      <use xlink:href="#DejaVuSans-72" x="1131.738281"/>
      <use xlink:href="#DejaVuSans-65" x="1170.601562"/>
      <use xlink:href="#DejaVuSans-64" x="1232.125"/>
      <use xlink:href="#DejaVuSans-69" x="1295.601562"/>
      <use xlink:href="#DejaVuSans-63" x="1323.384766"/>
      <use xlink:href="#DejaVuSans-74" x="1378.365234"/>
      <use xlink:href="#DejaVuSans-69" x="1417.574219"/>
      <use xlink:href="#DejaVuSans-6f" x="1445.357422"/>
      <use xlink:href="#DejaVuSans-6e" x="1506.539062"/>
      <use xlink:href="#DejaVuSans-73" x="1569.917969"/>
     </g>
    </g>
    <g id="line2d_24">
     <path d="M 66.6 83.926688 
L 76.6 83.926688 
L 86.6 83.926688 
" style="fill: none; stroke: #2ca02c; stroke-opacity: 0.7; stroke-width: 1.5; stroke-linecap: square"/>
    </g>
    <g id="text_22">
     <!-- Average cumulative predictions -->
     <g transform="translate(94.6 87.426688) scale(0.1 -0.1)">
      <defs>
       <path id="DejaVuSans-41" d="M 2188 4044 
L 1331 1722 
L 3047 1722 
L 2188 4044 
z
M 1831 4666 
L 2547 4666 
L 4325 0 
L 3669 0 
L 3244 1197 
L 1141 1197 
L 716 0 
L 50 0 
L 1831 4666 
z
" transform="scale(0.015625)"/>
      </defs>
      <use xlink:href="#DejaVuSans-41"/>
      <use xlink:href="#DejaVuSans-76" x="62.533203"/>
      <use xlink:href="#DejaVuSans-65" x="121.712891"/>
      <use xlink:href="#DejaVuSans-72" x="183.236328"/>
      <use xlink:href="#DejaVuSans-61" x="224.349609"/>
      <use xlink:href="#DejaVuSans-67" x="285.628906"/>
      <use xlink:href="#DejaVuSans-65" x="349.105469"/>
      <use xlink:href="#DejaVuSans-20" x="410.628906"/>
      <use xlink:href="#DejaVuSans-63" x="442.416016"/>
      <use xlink:href="#DejaVuSans-75" x="497.396484"/>
      <use xlink:href="#DejaVuSans-6d" x="560.775391"/>
      <use xlink:href="#DejaVuSans-75" x="658.1875"/>
      <use xlink:href="#DejaVuSans-6c" x="721.566406"/>
      <use xlink:href="#DejaVuSans-61" x="749.349609"/>
      <use xlink:href="#DejaVuSans-74" x="810.628906"/>
      <use xlink:href="#DejaVuSans-69" x="849.837891"/>
      <use xlink:href="#DejaVuSans-76" x="877.621094"/>
      <use xlink:href="#DejaVuSans-65" x="936.800781"/>
      <use xlink:href="#DejaVuSans-20" x="998.324219"/>
      <use xlink:href="#DejaVuSans-70" x="1030.111328"/>
      <use xlink:href="#DejaVuSans-72" x="1093.587891"/>
      <use xlink:href="#DejaVuSans-65" x="1132.451172"/>
      <use xlink:href="#DejaVuSans-64" x="1193.974609"/>
      <use xlink:href="#DejaVuSans-69" x="1257.451172"/>
      <use xlink:href="#DejaVuSans-63" x="1285.234375"/>
      <use xlink:href="#DejaVuSans-74" x="1340.214844"/>
      <use xlink:href="#DejaVuSans-69" x="1379.423828"/>
      <use xlink:href="#DejaVuSans-6f" x="1407.207031"/>
      <use xlink:href="#DejaVuSans-6e" x="1468.388672"/>
      <use xlink:href="#DejaVuSans-73" x="1531.767578"/>
     </g>
    </g>
   </g>
  </g>
 </g>
 <defs>
  <clipPath id="pe5f360f64d">
   <rect x="57.6" y="41.472" width="357.12" height="266.112"/>
  </clipPath>
 </defs>
</svg>
