<?xml version="1.0" encoding="utf-8" standalone="no"?>
<!DOCTYPE svg PUBLIC "-//W3C//DTD SVG 1.1//EN"
  "http://www.w3.org/Graphics/SVG/1.1/DTD/svg11.dtd">
<svg xmlns:xlink="http://www.w3.org/1999/xlink" width="460.8pt" height="345.6pt" viewBox="0 0 460.8 345.6" xmlns="http://www.w3.org/2000/svg" version="1.1">
 <metadata>
  <rdf:RDF xmlns:dc="http://purl.org/dc/elements/1.1/" xmlns:cc="http://creativecommons.org/ns#" xmlns:rdf="http://www.w3.org/1999/02/22-rdf-syntax-ns#">
   <cc:Work>
    <dc:type rdf:resource="http://purl.org/dc/dcmitype/StillImage"/>
    <dc:date>2024-09-08T12:09:59.368978</dc:date>
    <dc:format>image/svg+xml</dc:format>
    <dc:creator>
     <cc:Agent>
      <dc:title>Matplotlib v3.8.3, https://matplotlib.org/</dc:title>
     </cc:Agent>
    </dc:creator>
   </cc:Work>
  </rdf:RDF>
 </metadata>
 <defs>
  <style type="text/css">*{stroke-linejoin: round; stroke-linecap: butt}</style>
 </defs>
 <g id="figure_1">
  <g id="patch_1">
   <path d="M 0 345.6 
L 460.8 345.6 
L 460.8 0 
L 0 0 
z
" style="fill: #ffffff"/>
  </g>
  <g id="axes_1">
   <g id="patch_2">
    <path d="M 57.6 307.584 
L 414.72 307.584 
L 414.72 41.472 
L 57.6 41.472 
z
" style="fill: #ffffff"/>
   </g>
   <g id="matplotlib.axis_1">
    <g id="xtick_1">
     <g id="line2d_1">
      <defs>
       <path id="mb5f6112608" d="M 0 0 
L 0 3.5 
" style="stroke: #000000; stroke-width: 0.8"/>
      </defs>
      <g>
       <use xlink:href="#mb5f6112608" x="73.832727" y="307.584" style="stroke: #000000; stroke-width: 0.8"/>
      </g>
     </g>
     <g id="text_1">
      <!-- 0 -->
      <g transform="translate(70.651477 322.182437) scale(0.1 -0.1)">
       <defs>
        <path id="DejaVuSans-30" d="M 2034 4250 
Q 1547 4250 1301 3770 
Q 1056 3291 1056 2328 
Q 1056 1369 1301 889 
Q 1547 409 2034 409 
Q 2525 409 2770 889 
Q 3016 1369 3016 2328 
Q 3016 3291 2770 3770 
Q 2525 4250 2034 4250 
z
M 2034 4750 
Q 2819 4750 3233 4129 
Q 3647 3509 3647 2328 
Q 3647 1150 3233 529 
Q 2819 -91 2034 -91 
Q 1250 -91 836 529 
Q 422 1150 422 2328 
Q 422 3509 836 4129 
Q 1250 4750 2034 4750 
z
" transform="scale(0.015625)"/>
       </defs>
       <use xlink:href="#DejaVuSans-30"/>
      </g>
     </g>
    </g>
    <g id="xtick_2">
     <g id="line2d_2">
      <g>
       <use xlink:href="#mb5f6112608" x="116.27123" y="307.584" style="stroke: #000000; stroke-width: 0.8"/>
      </g>
     </g>
     <g id="text_2">
      <!-- 20 -->
      <g transform="translate(109.90873 322.182437) scale(0.1 -0.1)">
       <defs>
        <path id="DejaVuSans-32" d="M 1228 531 
L 3431 531 
L 3431 0 
L 469 0 
L 469 531 
Q 828 903 1448 1529 
Q 2069 2156 2228 2338 
Q 2531 2678 2651 2914 
Q 2772 3150 2772 3378 
Q 2772 3750 2511 3984 
Q 2250 4219 1831 4219 
Q 1534 4219 1204 4116 
Q 875 4013 500 3803 
L 500 4441 
Q 881 4594 1212 4672 
Q 1544 4750 1819 4750 
Q 2544 4750 2975 4387 
Q 3406 4025 3406 3419 
Q 3406 3131 3298 2873 
Q 3191 2616 2906 2266 
Q 2828 2175 2409 1742 
Q 1991 1309 1228 531 
z
" transform="scale(0.015625)"/>
       </defs>
       <use xlink:href="#DejaVuSans-32"/>
       <use xlink:href="#DejaVuSans-30" x="63.623047"/>
      </g>
     </g>
    </g>
    <g id="xtick_3">
     <g id="line2d_3">
      <g>
       <use xlink:href="#mb5f6112608" x="158.709733" y="307.584" style="stroke: #000000; stroke-width: 0.8"/>
      </g>
     </g>
     <g id="text_3">
      <!-- 40 -->
      <g transform="translate(152.347233 322.182437) scale(0.1 -0.1)">
       <defs>
        <path id="DejaVuSans-34" d="M 2419 4116 
L 825 1625 
L 2419 1625 
L 2419 4116 
z
M 2253 4666 
L 3047 4666 
L 3047 1625 
L 3713 1625 
L 3713 1100 
L 3047 1100 
L 3047 0 
L 2419 0 
L 2419 1100 
L 313 1100 
L 313 1709 
L 2253 4666 
z
" transform="scale(0.015625)"/>
       </defs>
       <use xlink:href="#DejaVuSans-34"/>
       <use xlink:href="#DejaVuSans-30" x="63.623047"/>
      </g>
     </g>
    </g>
    <g id="xtick_4">
     <g id="line2d_4">
      <g>
       <use xlink:href="#mb5f6112608" x="201.148235" y="307.584" style="stroke: #000000; stroke-width: 0.8"/>
      </g>
     </g>
     <g id="text_4">
      <!-- 60 -->
      <g transform="translate(194.785735 322.182437) scale(0.1 -0.1)">
       <defs>
        <path id="DejaVuSans-36" d="M 2113 2584 
Q 1688 2584 1439 2293 
Q 1191 2003 1191 1497 
Q 1191 994 1439 701 
Q 1688 409 2113 409 
Q 2538 409 2786 701 
Q 3034 994 3034 1497 
Q 3034 2003 2786 2293 
Q 2538 2584 2113 2584 
z
M 3366 4563 
L 3366 3988 
Q 3128 4100 2886 4159 
Q 2644 4219 2406 4219 
Q 1781 4219 1451 3797 
Q 1122 3375 1075 2522 
Q 1259 2794 1537 2939 
Q 1816 3084 2150 3084 
Q 2853 3084 3261 2657 
Q 3669 2231 3669 1497 
Q 3669 778 3244 343 
Q 2819 -91 2113 -91 
Q 1303 -91 875 529 
Q 447 1150 447 2328 
Q 447 3434 972 4092 
Q 1497 4750 2381 4750 
Q 2619 4750 2861 4703 
Q 3103 4656 3366 4563 
z
" transform="scale(0.015625)"/>
       </defs>
       <use xlink:href="#DejaVuSans-36"/>
       <use xlink:href="#DejaVuSans-30" x="63.623047"/>
      </g>
     </g>
    </g>
    <g id="xtick_5">
     <g id="line2d_5">
      <g>
       <use xlink:href="#mb5f6112608" x="243.586738" y="307.584" style="stroke: #000000; stroke-width: 0.8"/>
      </g>
     </g>
     <g id="text_5">
      <!-- 80 -->
      <g transform="translate(237.224238 322.182437) scale(0.1 -0.1)">
       <defs>
        <path id="DejaVuSans-38" d="M 2034 2216 
Q 1584 2216 1326 1975 
Q 1069 1734 1069 1313 
Q 1069 891 1326 650 
Q 1584 409 2034 409 
Q 2484 409 2743 651 
Q 3003 894 3003 1313 
Q 3003 1734 2745 1975 
Q 2488 2216 2034 2216 
z
M 1403 2484 
Q 997 2584 770 2862 
Q 544 3141 544 3541 
Q 544 4100 942 4425 
Q 1341 4750 2034 4750 
Q 2731 4750 3128 4425 
Q 3525 4100 3525 3541 
Q 3525 3141 3298 2862 
Q 3072 2584 2669 2484 
Q 3125 2378 3379 2068 
Q 3634 1759 3634 1313 
Q 3634 634 3220 271 
Q 2806 -91 2034 -91 
Q 1263 -91 848 271 
Q 434 634 434 1313 
Q 434 1759 690 2068 
Q 947 2378 1403 2484 
z
M 1172 3481 
Q 1172 3119 1398 2916 
Q 1625 2713 2034 2713 
Q 2441 2713 2670 2916 
Q 2900 3119 2900 3481 
Q 2900 3844 2670 4047 
Q 2441 4250 2034 4250 
Q 1625 4250 1398 4047 
Q 1172 3844 1172 3481 
z
" transform="scale(0.015625)"/>
       </defs>
       <use xlink:href="#DejaVuSans-38"/>
       <use xlink:href="#DejaVuSans-30" x="63.623047"/>
      </g>
     </g>
    </g>
    <g id="xtick_6">
     <g id="line2d_6">
      <g>
       <use xlink:href="#mb5f6112608" x="286.025241" y="307.584" style="stroke: #000000; stroke-width: 0.8"/>
      </g>
     </g>
     <g id="text_6">
      <!-- 100 -->
      <g transform="translate(276.481491 322.182437) scale(0.1 -0.1)">
       <defs>
        <path id="DejaVuSans-31" d="M 794 531 
L 1825 531 
L 1825 4091 
L 703 3866 
L 703 4441 
L 1819 4666 
L 2450 4666 
L 2450 531 
L 3481 531 
L 3481 0 
L 794 0 
L 794 531 
z
" transform="scale(0.015625)"/>
       </defs>
       <use xlink:href="#DejaVuSans-31"/>
       <use xlink:href="#DejaVuSans-30" x="63.623047"/>
       <use xlink:href="#DejaVuSans-30" x="127.246094"/>
      </g>
     </g>
    </g>
    <g id="xtick_7">
     <g id="line2d_7">
      <g>
       <use xlink:href="#mb5f6112608" x="328.463743" y="307.584" style="stroke: #000000; stroke-width: 0.8"/>
      </g>
     </g>
     <g id="text_7">
      <!-- 120 -->
      <g transform="translate(318.919993 322.182437) scale(0.1 -0.1)">
       <use xlink:href="#DejaVuSans-31"/>
       <use xlink:href="#DejaVuSans-32" x="63.623047"/>
       <use xlink:href="#DejaVuSans-30" x="127.246094"/>
      </g>
     </g>
    </g>
    <g id="xtick_8">
     <g id="line2d_8">
      <g>
       <use xlink:href="#mb5f6112608" x="370.902246" y="307.584" style="stroke: #000000; stroke-width: 0.8"/>
      </g>
     </g>
     <g id="text_8">
      <!-- 140 -->
      <g transform="translate(361.358496 322.182437) scale(0.1 -0.1)">
       <use xlink:href="#DejaVuSans-31"/>
       <use xlink:href="#DejaVuSans-34" x="63.623047"/>
       <use xlink:href="#DejaVuSans-30" x="127.246094"/>
      </g>
     </g>
    </g>
    <g id="xtick_9">
     <g id="line2d_9">
      <g>
       <use xlink:href="#mb5f6112608" x="413.340749" y="307.584" style="stroke: #000000; stroke-width: 0.8"/>
      </g>
     </g>
     <g id="text_9">
      <!-- 160 -->
      <g transform="translate(403.796999 322.182437) scale(0.1 -0.1)">
       <use xlink:href="#DejaVuSans-31"/>
       <use xlink:href="#DejaVuSans-36" x="63.623047"/>
       <use xlink:href="#DejaVuSans-30" x="127.246094"/>
      </g>
     </g>
    </g>
   </g>
   <g id="matplotlib.axis_2">
    <g id="ytick_1">
     <g id="line2d_10">
      <defs>
       <path id="mbc577ca764" d="M 0 0 
L -3.5 0 
" style="stroke: #000000; stroke-width: 0.8"/>
      </defs>
      <g>
       <use xlink:href="#mbc577ca764" x="57.6" y="282.252804" style="stroke: #000000; stroke-width: 0.8"/>
      </g>
     </g>
     <g id="text_10">
      <!-- −0.02 -->
      <g transform="translate(19.954687 286.052023) scale(0.1 -0.1)">
       <defs>
        <path id="DejaVuSans-2212" d="M 678 2272 
L 4684 2272 
L 4684 1741 
L 678 1741 
L 678 2272 
z
" transform="scale(0.015625)"/>
        <path id="DejaVuSans-2e" d="M 684 794 
L 1344 794 
L 1344 0 
L 684 0 
L 684 794 
z
" transform="scale(0.015625)"/>
       </defs>
       <use xlink:href="#DejaVuSans-2212"/>
       <use xlink:href="#DejaVuSans-30" x="83.789062"/>
       <use xlink:href="#DejaVuSans-2e" x="147.412109"/>
       <use xlink:href="#DejaVuSans-30" x="179.199219"/>
       <use xlink:href="#DejaVuSans-32" x="242.822266"/>
      </g>
     </g>
    </g>
    <g id="ytick_2">
     <g id="line2d_11">
      <g>
       <use xlink:href="#mbc577ca764" x="57.6" y="236.809644" style="stroke: #000000; stroke-width: 0.8"/>
      </g>
     </g>
     <g id="text_11">
      <!-- −0.01 -->
      <g transform="translate(19.954687 240.608863) scale(0.1 -0.1)">
       <use xlink:href="#DejaVuSans-2212"/>
       <use xlink:href="#DejaVuSans-30" x="83.789062"/>
       <use xlink:href="#DejaVuSans-2e" x="147.412109"/>
       <use xlink:href="#DejaVuSans-30" x="179.199219"/>
       <use xlink:href="#DejaVuSans-31" x="242.822266"/>
      </g>
     </g>
    </g>
    <g id="ytick_3">
     <g id="line2d_12">
      <g>
       <use xlink:href="#mbc577ca764" x="57.6" y="191.366483" style="stroke: #000000; stroke-width: 0.8"/>
      </g>
     </g>
     <g id="text_12">
      <!-- 0.00 -->
      <g transform="translate(28.334375 195.165702) scale(0.1 -0.1)">
       <use xlink:href="#DejaVuSans-30"/>
       <use xlink:href="#DejaVuSans-2e" x="63.623047"/>
       <use xlink:href="#DejaVuSans-30" x="95.410156"/>
       <use xlink:href="#DejaVuSans-30" x="159.033203"/>
      </g>
     </g>
    </g>
    <g id="ytick_4">
     <g id="line2d_13">
      <g>
       <use xlink:href="#mbc577ca764" x="57.6" y="145.923323" style="stroke: #000000; stroke-width: 0.8"/>
      </g>
     </g>
     <g id="text_13">
      <!-- 0.01 -->
      <g transform="translate(28.334375 149.722541) scale(0.1 -0.1)">
       <use xlink:href="#DejaVuSans-30"/>
       <use xlink:href="#DejaVuSans-2e" x="63.623047"/>
       <use xlink:href="#DejaVuSans-30" x="95.410156"/>
       <use xlink:href="#DejaVuSans-31" x="159.033203"/>
      </g>
     </g>
    </g>
    <g id="ytick_5">
     <g id="line2d_14">
      <g>
       <use xlink:href="#mbc577ca764" x="57.6" y="100.480162" style="stroke: #000000; stroke-width: 0.8"/>
      </g>
     </g>
     <g id="text_14">
      <!-- 0.02 -->
      <g transform="translate(28.334375 104.279381) scale(0.1 -0.1)">
       <use xlink:href="#DejaVuSans-30"/>
       <use xlink:href="#DejaVuSans-2e" x="63.623047"/>
       <use xlink:href="#DejaVuSans-30" x="95.410156"/>
       <use xlink:href="#DejaVuSans-32" x="159.033203"/>
      </g>
     </g>
    </g>
    <g id="ytick_6">
     <g id="line2d_15">
      <g>
       <use xlink:href="#mbc577ca764" x="57.6" y="55.037001" style="stroke: #000000; stroke-width: 0.8"/>
      </g>
     </g>
     <g id="text_15">
      <!-- 0.03 -->
      <g transform="translate(28.334375 58.83622) scale(0.1 -0.1)">
       <defs>
        <path id="DejaVuSans-33" d="M 2597 2516 
Q 3050 2419 3304 2112 
Q 3559 1806 3559 1356 
Q 3559 666 3084 287 
Q 2609 -91 1734 -91 
Q 1441 -91 1130 -33 
Q 819 25 488 141 
L 488 750 
Q 750 597 1062 519 
Q 1375 441 1716 441 
Q 2309 441 2620 675 
Q 2931 909 2931 1356 
Q 2931 1769 2642 2001 
Q 2353 2234 1838 2234 
L 1294 2234 
L 1294 2753 
L 1863 2753 
Q 2328 2753 2575 2939 
Q 2822 3125 2822 3475 
Q 2822 3834 2567 4026 
Q 2313 4219 1838 4219 
Q 1578 4219 1281 4162 
Q 984 4106 628 3988 
L 628 4550 
Q 988 4650 1302 4700 
Q 1616 4750 1894 4750 
Q 2613 4750 3031 4423 
Q 3450 4097 3450 3541 
Q 3450 3153 3228 2886 
Q 3006 2619 2597 2516 
z
" transform="scale(0.015625)"/>
       </defs>
       <use xlink:href="#DejaVuSans-30"/>
       <use xlink:href="#DejaVuSans-2e" x="63.623047"/>
       <use xlink:href="#DejaVuSans-30" x="95.410156"/>
       <use xlink:href="#DejaVuSans-33" x="159.033203"/>
      </g>
     </g>
    </g>
   </g>
   <g id="line2d_16">
    <path d="M 73.832727 195.551983 
L 75.954652 185.655711 
L 78.076578 191.074607 
L 80.198503 190.242747 
L 82.320428 193.912288 
L 84.442353 185.514609 
L 86.564278 186.917085 
L 88.686203 190.503916 
L 90.808128 190.015786 
L 92.930053 191.698913 
L 95.051979 198.785929 
L 97.173904 192.573842 
L 99.295829 186.874345 
L 101.417754 197.083234 
L 103.539679 197.328634 
L 105.661604 198.187693 
L 107.783529 181.934451 
L 109.905455 190.843894 
L 112.02738 194.227375 
L 114.149305 191.886851 
L 116.27123 195.139042 
L 118.393155 191.210977 
L 120.51508 192.32215 
L 122.637005 196.069586 
L 124.75893 185.156054 
L 126.880856 191.502672 
L 129.002781 191.981891 
L 131.124706 186.759909 
L 133.246631 201.877135 
L 135.368556 187.873877 
L 137.490481 192.80154 
L 139.612406 190.923555 
L 141.734332 192.53535 
L 145.978182 194.655736 
L 148.100107 198.150671 
L 150.222032 187.61597 
L 152.343957 186.584802 
L 154.465882 195.709168 
L 156.587807 193.441726 
L 158.709733 187.385271 
L 160.831658 190.602929 
L 162.953583 191.981932 
L 165.075508 199.544197 
L 167.197433 193.662585 
L 169.319358 188.369022 
L 171.441283 190.39112 
L 173.563209 195.396064 
L 175.685134 191.69187 
L 177.807059 190.536826 
L 179.928984 188.343493 
L 182.050909 190.373927 
L 184.172834 188.505279 
L 186.294759 216.254595 
L 188.416684 169.040643 
L 190.53861 195.549085 
L 192.660535 192.77246 
L 194.78246 198.098837 
L 196.904385 188.247487 
L 199.02631 206.753147 
L 201.148235 198.406448 
L 203.27016 195.681671 
L 205.392086 195.027965 
L 207.514011 204.537787 
L 209.635936 194.206861 
L 211.757861 191.044376 
L 213.879786 191.882142 
L 216.001711 193.548577 
L 218.123636 188.474597 
L 220.245561 189.462346 
L 222.367487 187.059334 
L 224.489412 202.628373 
L 226.611337 196.117636 
L 228.733262 198.675035 
L 230.855187 192.897145 
L 232.977112 184.377361 
L 235.099037 193.069936 
L 237.220963 186.587852 
L 239.342888 193.805543 
L 241.464813 181.791493 
L 243.586738 191.616704 
L 245.708663 190.637583 
L 247.830588 200.224533 
L 249.952513 193.419557 
L 252.074439 193.650938 
L 254.196364 190.757677 
L 256.318289 184.505241 
L 258.440214 188.648864 
L 260.562139 189.055379 
L 262.684064 184.127638 
L 264.805989 190.07205 
L 266.927914 190.300792 
L 269.04984 199.570154 
L 271.171765 184.991792 
L 273.29369 189.584829 
L 275.415615 191.796431 
L 277.53754 189.578363 
L 279.659465 182.427225 
L 281.78139 187.960844 
L 283.903316 193.094867 
L 286.025241 189.647331 
L 288.147166 192.799397 
L 290.269091 190.199321 
L 292.391016 199.261366 
L 294.512941 187.263692 
L 296.634866 172.858774 
L 298.756791 206.900292 
L 300.878717 192.42659 
L 303.000642 187.1374 
L 305.122567 182.90692 
L 307.244492 189.450128 
L 309.366417 206.219704 
L 311.488342 182.874294 
L 313.610267 198.796184 
L 315.732193 175.814469 
L 317.854118 197.873991 
L 319.976043 191.640282 
L 322.097968 188.188791 
L 324.219893 190.53742 
L 326.341818 199.649309 
L 328.463743 180.98542 
L 330.585668 198.428632 
L 332.707594 202.320728 
L 334.829519 209.688042 
L 336.951444 195.924863 
L 339.073369 200.977557 
L 341.195294 197.054552 
L 343.317219 191.803617 
L 345.439144 201.0488 
L 347.56107 190.309678 
L 349.682995 195.328279 
L 351.80492 190.439447 
L 353.926845 190.797458 
L 356.04877 195.079658 
L 358.170695 198.969941 
L 360.29262 191.611207 
L 362.414545 185.253206 
L 364.536471 186.32009 
L 366.658396 191.959115 
L 368.780321 198.731407 
L 370.902246 195.829836 
L 373.024171 198.424797 
L 375.146096 184.668641 
L 377.268021 188.325851 
L 379.389947 187.888691 
L 381.511872 188.295903 
L 383.633797 186.383158 
L 385.755722 189.625262 
L 387.877647 194.569236 
L 389.999572 198.146675 
L 392.121497 204.252891 
L 394.243422 185.681459 
L 396.365348 200.268706 
L 398.487273 193.127249 
L 398.487273 193.127249 
" clip-path="url(#p628a0b030e)" style="fill: none; stroke: #008000; stroke-opacity: 0.8; stroke-width: 0.5; stroke-linecap: square"/>
   </g>
   <g id="line2d_17">
    <path d="M 73.832727 143.021426 
L 75.954652 135.036393 
L 78.076578 158.091253 
L 80.198503 144.518107 
L 82.320428 170.010522 
L 84.442353 152.724808 
L 86.564278 128.528225 
L 88.686203 156.576771 
L 90.808128 85.5253 
L 92.930053 156.454927 
L 95.051979 163.439673 
L 97.173904 151.972782 
L 99.295829 154.5848 
L 101.417754 137.355362 
L 103.539679 165.124058 
L 105.661604 163.773258 
L 107.783529 140.85226 
L 109.905455 159.85128 
L 112.02738 160.025441 
L 114.149305 158.698197 
L 116.27123 154.479366 
L 118.393155 170.628207 
L 120.51508 154.191317 
L 122.637005 127.983734 
L 124.75893 159.349746 
L 126.880856 160.935641 
L 129.002781 160.654657 
L 131.124706 139.367204 
L 133.246631 168.206886 
L 135.368556 156.990469 
L 137.490481 164.995668 
L 139.612406 159.20193 
L 141.734332 174.803793 
L 143.856257 177.313483 
L 145.978182 169.448844 
L 148.100107 175.939248 
L 150.222032 156.919294 
L 152.343957 169.566953 
L 154.465882 155.827448 
L 156.587807 172.721208 
L 158.709733 159.860819 
L 160.831658 156.794798 
L 162.953583 163.218393 
L 165.075508 185.908403 
L 167.197433 178.979973 
L 169.319358 167.899234 
L 171.441283 171.974614 
L 173.563209 164.166553 
L 175.685134 165.862085 
L 177.807059 165.67519 
L 179.928984 171.635636 
L 182.050909 178.038972 
L 184.172834 172.495745 
L 186.294759 173.485286 
L 188.416684 77.655221 
L 190.53861 142.903439 
L 192.660535 135.550963 
L 194.78246 170.391084 
L 196.904385 162.75735 
L 199.02631 172.381693 
L 201.148235 156.047267 
L 203.27016 147.346477 
L 205.392086 167.427112 
L 207.514011 179.173152 
L 209.635936 134.893851 
L 211.757861 143.282458 
L 213.879786 156.228522 
L 216.001711 167.823561 
L 218.123636 155.988188 
L 220.245561 157.645534 
L 222.367487 158.423121 
L 224.489412 160.862022 
L 226.611337 180.384574 
L 228.733262 175.772058 
L 230.855187 159.086734 
L 232.977112 136.602338 
L 235.099037 152.689651 
L 239.342888 171.549848 
L 241.464813 153.064559 
L 243.586738 157.47701 
L 245.708663 145.822876 
L 247.830588 184.155834 
L 249.952513 145.429027 
L 252.074439 159.755222 
L 254.196364 164.00158 
L 256.318289 156.336556 
L 258.440214 127.768817 
L 260.562139 170.43568 
L 262.684064 150.162247 
L 264.805989 152.267146 
L 266.927914 160.824535 
L 269.04984 182.605478 
L 271.171765 168.430354 
L 273.29369 152.750213 
L 275.415615 172.363995 
L 277.53754 133.445097 
L 279.659465 142.626578 
L 281.78139 148.744522 
L 283.903316 167.748899 
L 286.025241 147.657833 
L 288.147166 159.912222 
L 290.269091 154.985872 
L 292.391016 149.321703 
L 294.512941 164.610588 
L 296.634866 113.44678 
L 298.756791 154.393093 
L 300.878717 150.708597 
L 303.000642 157.358481 
L 305.122567 147.495975 
L 307.244492 131.462215 
L 309.366417 157.679643 
L 311.488342 135.002113 
L 313.610267 161.558624 
L 315.732193 115.800604 
L 317.854118 151.344766 
L 319.976043 143.802205 
L 322.097968 149.14542 
L 324.219893 148.592273 
L 326.341818 127.418223 
L 328.463743 119.45226 
L 330.585668 136.633192 
L 332.707594 135.838536 
L 334.829519 162.551333 
L 336.951444 166.655712 
L 339.073369 171.459466 
L 341.195294 166.780984 
L 343.317219 132.527158 
L 345.439144 172.12984 
L 347.56107 137.458182 
L 349.682995 164.978749 
L 351.80492 160.391973 
L 353.926845 126.021872 
L 358.170695 160.621549 
L 360.29262 153.139139 
L 362.414545 163.928669 
L 364.536471 172.32784 
L 366.658396 162.154604 
L 368.780321 168.29645 
L 370.902246 169.685424 
L 373.024171 160.526628 
L 375.146096 133.415485 
L 377.268021 171.486463 
L 379.389947 151.451514 
L 381.511872 147.950366 
L 383.633797 163.203878 
L 385.755722 151.010551 
L 387.877647 158.268368 
L 389.999572 172.800088 
L 392.121497 179.341366 
L 394.243422 154.65738 
L 396.365348 146.761463 
L 398.487273 173.685889 
L 398.487273 173.685889 
" clip-path="url(#p628a0b030e)" style="fill: none; stroke: #32cd32; stroke-opacity: 0.8; stroke-width: 0.5; stroke-linecap: square"/>
   </g>
   <g id="line2d_18">
    <path d="M 73.832727 241.631817 
L 75.954652 225.564152 
L 78.076578 235.825414 
L 80.198503 237.432491 
L 82.320428 213.929858 
L 84.442353 235.385406 
L 86.564278 232.710912 
L 88.686203 254.995659 
L 90.808128 221.810837 
L 92.930053 245.995626 
L 95.051979 263.729796 
L 97.173904 230.363618 
L 99.295829 218.140955 
L 101.417754 232.154871 
L 103.539679 242.771853 
L 105.661604 239.291106 
L 107.783529 212.680535 
L 109.905455 208.3695 
L 112.02738 244.194933 
L 114.149305 229.675093 
L 116.27123 233.039893 
L 118.393155 229.442145 
L 120.51508 223.239915 
L 122.637005 238.14148 
L 124.75893 204.199826 
L 126.880856 238.461747 
L 129.002781 216.319589 
L 131.124706 208.253667 
L 133.246631 224.954831 
L 135.368556 211.823248 
L 137.490481 213.21411 
L 139.612406 218.458857 
L 141.734332 203.385622 
L 143.856257 219.850638 
L 148.100107 230.486698 
L 150.222032 214.921495 
L 152.343957 206.35287 
L 154.465882 244.817917 
L 156.587807 221.268061 
L 158.709733 222.747511 
L 160.831658 223.994897 
L 162.953583 213.384342 
L 165.075508 216.085271 
L 167.197433 210.775187 
L 169.319358 209.334679 
L 171.441283 200.499508 
L 173.563209 215.352969 
L 175.685134 225.685284 
L 177.807059 212.048448 
L 179.928984 205.796404 
L 182.050909 219.520944 
L 184.172834 216.103973 
L 186.294759 255.25343 
L 188.416684 219.051594 
L 190.53861 264.242918 
L 192.660535 233.831628 
L 194.78246 227.393342 
L 199.02631 238.503032 
L 201.148235 237.617131 
L 203.27016 251.127023 
L 205.392086 220.688378 
L 207.514011 224.865462 
L 209.635936 243.085663 
L 211.757861 227.883603 
L 213.879786 235.606982 
L 216.001711 211.333281 
L 218.123636 220.030487 
L 220.245561 222.930061 
L 222.367487 215.549497 
L 224.489412 261.670069 
L 226.611337 217.141934 
L 228.733262 252.148206 
L 230.855187 216.193292 
L 232.977112 223.495746 
L 235.099037 238.429357 
L 237.220963 228.07649 
L 239.342888 220.664994 
L 241.464813 209.660268 
L 243.586738 231.996377 
L 245.708663 230.010414 
L 247.830588 215.675491 
L 249.952513 226.870578 
L 252.074439 225.126224 
L 254.196364 221.252151 
L 256.318289 208.981389 
L 258.440214 222.436615 
L 260.562139 230.324614 
L 262.684064 217.353492 
L 264.805989 212.31337 
L 266.927914 218.131389 
L 269.04984 214.024389 
L 271.171765 197.438424 
L 273.29369 218.590316 
L 275.415615 221.764841 
L 277.53754 231.938412 
L 279.659465 211.057142 
L 281.78139 231.227647 
L 283.903316 223.015072 
L 286.025241 215.743553 
L 288.147166 217.769379 
L 290.269091 225.418947 
L 292.391016 254.120447 
L 294.512941 227.354338 
L 296.634866 207.363365 
L 298.756791 295.488 
L 300.878717 236.796398 
L 303.000642 237.356472 
L 305.122567 237.478631 
L 307.244492 234.616516 
L 309.366417 243.609538 
L 311.488342 239.251653 
L 313.610267 237.474411 
L 315.732193 209.520817 
L 317.854118 231.151409 
L 319.976043 231.441651 
L 322.097968 234.136695 
L 324.219893 226.258147 
L 326.341818 236.397299 
L 328.463743 263.551163 
L 330.585668 261.530149 
L 332.707594 250.254649 
L 334.829519 276.554617 
L 336.951444 243.6505 
L 339.073369 246.974793 
L 341.195294 221.082791 
L 343.317219 252.644972 
L 345.439144 234.461867 
L 347.56107 265.469003 
L 349.682995 230.513134 
L 351.80492 234.370929 
L 353.926845 228.617369 
L 356.04877 231.101833 
L 358.170695 241.092374 
L 360.29262 241.907772 
L 362.414545 217.8943 
L 364.536471 213.092353 
L 366.658396 226.2248 
L 368.780321 238.318521 
L 370.902246 228.086045 
L 373.024171 250.817127 
L 375.146096 214.806573 
L 377.268021 204.452927 
L 379.389947 223.952679 
L 381.511872 206.855339 
L 383.633797 217.62691 
L 385.755722 209.642165 
L 387.877647 228.681114 
L 389.999572 243.694578 
L 392.121497 268.489062 
L 394.243422 213.492569 
L 396.365348 240.973451 
L 398.487273 220.570498 
L 398.487273 220.570498 
" clip-path="url(#p628a0b030e)" style="fill: none; stroke: #32cd32; stroke-opacity: 0.8; stroke-width: 0.5; stroke-linecap: square"/>
   </g>
   <g id="line2d_19">
    <path d="M 73.832727 193.940926 
L 75.954652 188.338387 
L 78.076578 192.657512 
L 80.198503 188.707845 
L 82.320428 192.964038 
L 84.442353 178.164562 
L 86.564278 186.431592 
L 88.686203 192.84259 
L 90.808128 184.480328 
L 92.930053 191.478892 
L 95.051979 195.883505 
L 97.173904 195.463298 
L 99.295829 187.084105 
L 101.417754 190.728465 
L 103.539679 193.784121 
L 105.661604 198.842178 
L 107.783529 181.799934 
L 109.905455 188.797084 
L 112.02738 192.334278 
L 114.149305 188.314229 
L 116.27123 192.872078 
L 118.393155 191.117956 
L 120.51508 194.026384 
L 122.637005 194.450421 
L 124.75893 183.419027 
L 126.880856 191.492539 
L 129.002781 191.740839 
L 131.124706 184.462459 
L 133.246631 196.777745 
L 135.368556 186.073729 
L 137.490481 192.678064 
L 139.612406 188.336918 
L 141.734332 191.112502 
L 143.856257 191.43198 
L 145.978182 189.574485 
L 148.100107 198.753322 
L 150.222032 188.274037 
L 152.343957 185.889021 
L 154.465882 198.76118 
L 156.587807 192.670956 
L 158.709733 187.079274 
L 160.831658 196.007333 
L 162.953583 188.52731 
L 165.075508 197.236202 
L 167.197433 189.159045 
L 169.319358 186.85517 
L 171.441283 188.77828 
L 173.563209 196.188516 
L 175.685134 194.873814 
L 177.807059 185.796771 
L 179.928984 187.781852 
L 182.050909 189.565907 
L 184.172834 187.938786 
L 186.294759 212.776458 
L 188.416684 161.114304 
L 190.53861 194.169389 
L 192.660535 194.610535 
L 194.78246 196.170303 
L 196.904385 185.056699 
L 199.02631 203.627144 
L 201.148235 194.617705 
L 203.27016 189.228704 
L 205.392086 194.752671 
L 207.514011 202.630602 
L 209.635936 194.476014 
L 211.757861 189.655047 
L 213.879786 189.976925 
L 216.001711 189.363278 
L 218.123636 183.721154 
L 220.245561 191.508669 
L 222.367487 184.564434 
L 224.489412 199.360013 
L 226.611337 194.959243 
L 228.733262 196.30499 
L 230.855187 193.947918 
L 232.977112 186.789842 
L 235.099037 190.63941 
L 237.220963 185.171069 
L 239.342888 194.662112 
L 241.464813 179.105988 
L 243.586738 186.65639 
L 245.708663 185.500563 
L 247.830588 196.867284 
L 249.952513 193.873994 
L 252.074439 194.650188 
L 254.196364 191.874908 
L 256.318289 186.520355 
L 258.440214 182.979915 
L 260.562139 187.350091 
L 262.684064 188.613931 
L 264.805989 187.413249 
L 266.927914 189.734571 
L 269.04984 197.797817 
L 271.171765 182.573098 
L 273.29369 187.514512 
L 275.415615 191.158198 
L 277.53754 189.626174 
L 279.659465 188.402538 
L 281.78139 186.533949 
L 283.903316 192.600956 
L 286.025241 192.214855 
L 288.147166 193.658284 
L 290.269091 190.709741 
L 292.391016 193.794483 
L 294.512941 181.059046 
L 296.634866 171.90037 
L 298.756791 201.675749 
L 300.878717 188.711121 
L 303.000642 184.744952 
L 305.122567 179.863958 
L 307.244492 187.870592 
L 309.366417 204.177185 
L 311.488342 179.658694 
L 313.610267 195.092074 
L 315.732193 173.593236 
L 317.854118 193.891543 
L 319.976043 193.464056 
L 322.097968 184.377005 
L 324.219893 187.88658 
L 326.341818 194.198999 
L 328.463743 184.927775 
L 330.585668 186.749151 
L 332.707594 198.974634 
L 334.829519 202.413395 
L 336.951444 185.992243 
L 339.073369 198.048693 
L 341.195294 196.063125 
L 343.317219 191.188473 
L 345.439144 197.521739 
L 349.682995 186.586065 
L 351.80492 189.401779 
L 353.926845 191.216928 
L 356.04877 195.387474 
L 358.170695 195.201214 
L 360.29262 190.794178 
L 362.414545 183.309157 
L 364.536471 186.331328 
L 366.658396 192.84917 
L 368.780321 196.356412 
L 370.902246 193.888872 
L 373.024171 189.383383 
L 375.146096 187.194985 
L 377.268021 185.603121 
L 379.389947 187.098381 
L 381.511872 185.637383 
L 383.633797 186.02496 
L 385.755722 186.885141 
L 389.999572 199.268295 
L 392.121497 203.801247 
L 394.243422 184.669205 
L 396.365348 202.598326 
L 398.487273 193.308017 
L 398.487273 193.308017 
" clip-path="url(#p628a0b030e)" style="fill: none; stroke: #ff0000; stroke-opacity: 0.8; stroke-width: 0.5; stroke-linecap: square"/>
   </g>
   <g id="line2d_20">
    <path d="M 73.832727 133.180376 
L 75.954652 143.874527 
L 78.076578 152.491905 
L 80.198503 134.45686 
L 82.320428 161.116035 
L 84.442353 152.006925 
L 86.564278 138.145012 
L 88.686203 157.503815 
L 90.808128 87.234719 
L 92.930053 145.263184 
L 95.051979 162.096647 
L 97.173904 150.843157 
L 99.295829 153.256816 
L 101.417754 133.240345 
L 103.539679 164.798237 
L 105.661604 165.236708 
L 107.783529 142.686912 
L 109.905455 152.787018 
L 112.02738 160.04673 
L 114.149305 156.334556 
L 116.27123 135.177715 
L 118.393155 157.399262 
L 120.51508 154.224488 
L 122.637005 124.1044 
L 124.75893 158.490371 
L 126.880856 171.590514 
L 129.002781 159.921263 
L 131.124706 139.073272 
L 133.246631 166.892494 
L 135.368556 155.743663 
L 137.490481 164.715494 
L 139.612406 164.6808 
L 141.734332 176.2353 
L 143.856257 172.787493 
L 145.978182 161.822986 
L 148.100107 153.795709 
L 150.222032 158.38818 
L 152.343957 167.097759 
L 154.465882 153.754574 
L 156.587807 173.321168 
L 158.709733 160.987486 
L 160.831658 157.090931 
L 162.953583 163.634261 
L 165.075508 176.967441 
L 167.197433 169.521074 
L 169.319358 167.091459 
L 171.441283 172.253148 
L 173.563209 164.166553 
L 175.685134 171.618833 
L 177.807059 163.087732 
L 179.928984 170.896153 
L 182.050909 171.249935 
L 184.172834 171.723272 
L 186.294759 172.365868 
L 188.416684 53.568 
L 190.53861 100.734318 
L 192.660535 155.562076 
L 194.78246 173.892612 
L 196.904385 159.788809 
L 199.02631 165.159739 
L 203.27016 148.587026 
L 205.392086 163.680202 
L 207.514011 177.022155 
L 209.635936 134.890872 
L 211.757861 143.092542 
L 213.879786 155.76542 
L 216.001711 171.918489 
L 218.123636 157.344548 
L 220.245561 158.078043 
L 222.367487 154.337163 
L 224.489412 127.218154 
L 226.611337 174.955114 
L 228.733262 164.133712 
L 230.855187 167.55174 
L 232.977112 135.974131 
L 235.099037 152.836542 
L 237.220963 156.363973 
L 239.342888 172.746407 
L 241.464813 152.347502 
L 243.586738 156.766832 
L 245.708663 147.380299 
L 247.830588 170.325355 
L 249.952513 139.347189 
L 252.074439 161.51329 
L 254.196364 164.922084 
L 256.318289 156.565216 
L 258.440214 130.944855 
L 260.562139 169.760681 
L 262.684064 146.631942 
L 264.805989 152.520896 
L 266.927914 166.153533 
L 269.04984 176.402693 
L 271.171765 167.715561 
L 273.29369 152.83741 
L 275.415615 175.393731 
L 277.53754 135.53629 
L 279.659465 135.489748 
L 281.78139 149.908562 
L 283.903316 169.282993 
L 286.025241 150.238551 
L 288.147166 160.488608 
L 290.269091 155.987507 
L 292.391016 147.487084 
L 294.512941 157.873339 
L 296.634866 107.704808 
L 298.756791 164.362785 
L 300.878717 118.749914 
L 303.000642 158.587425 
L 305.122567 144.850751 
L 307.244492 132.412836 
L 309.366417 143.929819 
L 311.488342 133.04231 
L 313.610267 159.766707 
L 315.732193 113.114392 
L 317.854118 138.107771 
L 319.976043 144.184901 
L 322.097968 148.968618 
L 324.219893 146.268986 
L 326.341818 97.900556 
L 328.463743 125.400969 
L 330.585668 118.025628 
L 332.707594 135.637985 
L 334.829519 128.960341 
L 336.951444 150.884752 
L 339.073369 167.840825 
L 341.195294 152.522114 
L 343.317219 132.231205 
L 345.439144 159.057481 
L 347.56107 142.542532 
L 349.682995 162.123789 
L 351.80492 156.311122 
L 353.926845 115.790743 
L 356.04877 146.316424 
L 358.170695 135.592676 
L 360.29262 153.082438 
L 362.414545 158.591204 
L 364.536471 161.534695 
L 366.658396 163.323999 
L 368.780321 160.762559 
L 370.902246 168.423088 
L 375.146096 146.0729 
L 377.268021 171.036097 
L 379.389947 151.37004 
L 381.511872 144.82204 
L 383.633797 162.46608 
L 385.755722 142.979634 
L 389.999572 172.122075 
L 392.121497 164.927068 
L 394.243422 154.481741 
L 396.365348 146.836762 
L 398.487273 173.114261 
L 398.487273 173.114261 
" clip-path="url(#p628a0b030e)" style="fill: none; stroke: #f08080; stroke-opacity: 0.8; stroke-width: 0.5; stroke-linecap: square"/>
   </g>
   <g id="line2d_21">
    <path d="M 73.832727 236.034392 
L 75.954652 225.589038 
L 78.076578 236.735363 
L 80.198503 236.700714 
L 82.320428 216.646453 
L 84.442353 208.780183 
L 86.564278 230.975293 
L 88.686203 255.964769 
L 90.808128 216.406515 
L 92.930053 220.335336 
L 95.051979 247.541188 
L 97.173904 234.31566 
L 99.295829 216.589041 
L 101.417754 225.596656 
L 103.539679 231.457902 
L 105.661604 236.172261 
L 107.783529 211.398921 
L 109.905455 219.889123 
L 112.02738 233.171696 
L 114.149305 227.504533 
L 116.27123 228.725172 
L 118.393155 215.74816 
L 120.51508 225.05458 
L 122.637005 235.87575 
L 124.75893 204.771461 
L 126.880856 239.753332 
L 129.002781 217.773731 
L 131.124706 204.683133 
L 133.246631 226.35767 
L 135.368556 212.501001 
L 137.490481 214.346445 
L 139.612406 207.858753 
L 141.734332 203.629679 
L 143.856257 212.680098 
L 145.978182 225.150925 
L 148.100107 233.382734 
L 150.222032 215.048968 
L 152.343957 206.282764 
L 154.465882 257.641269 
L 156.587807 219.218102 
L 158.709733 219.535344 
L 160.831658 228.491418 
L 162.953583 208.43412 
L 165.075508 216.026023 
L 167.197433 210.820704 
L 169.319358 207.948857 
L 171.441283 200.717933 
L 173.563209 220.181062 
L 175.685134 229.281786 
L 177.807059 203.424269 
L 179.928984 204.062885 
L 182.050909 219.379573 
L 184.172834 215.491951 
L 186.294759 265.063992 
L 188.416684 212.73048 
L 190.53861 264.72382 
L 192.660535 233.663426 
L 194.78246 223.567804 
L 196.904385 209.579818 
L 199.02631 235.208305 
L 201.148235 237.784798 
L 203.27016 237.525569 
L 205.392086 221.348782 
L 207.514011 226.020247 
L 209.635936 243.914443 
L 211.757861 217.215267 
L 213.879786 234.717842 
L 216.001711 211.572105 
L 218.123636 217.990395 
L 220.245561 235.224514 
L 222.367487 218.592401 
L 224.489412 243.348218 
L 226.611337 216.290424 
L 228.733262 251.632701 
L 230.855187 219.408654 
L 232.977112 223.152232 
L 235.099037 224.94908 
L 237.220963 228.639132 
L 241.464813 209.919076 
L 243.586738 228.093227 
L 245.708663 214.408209 
L 247.830588 219.791319 
L 249.952513 225.680869 
L 252.074439 236.423519 
L 254.196364 218.916434 
L 256.318289 209.661708 
L 258.440214 209.085487 
L 260.562139 215.742454 
L 262.684064 217.747277 
L 264.805989 207.057255 
L 266.927914 220.474434 
L 269.04984 212.160261 
L 271.171765 197.940747 
L 273.29369 214.360256 
L 275.415615 220.259361 
L 277.53754 229.661954 
L 279.659465 217.025273 
L 281.78139 237.354576 
L 283.903316 222.859718 
L 286.025241 210.853546 
L 288.147166 224.855362 
L 290.269091 225.993934 
L 292.391016 237.110799 
L 294.512941 213.934802 
L 296.634866 207.323599 
L 298.756791 273.263721 
L 300.878717 237.303493 
L 303.000642 223.580103 
L 305.122567 218.490499 
L 307.244492 242.900468 
L 309.366417 246.533559 
L 313.610267 225.466427 
L 315.732193 205.997904 
L 317.854118 233.627238 
L 319.976043 243.657813 
L 322.097968 228.686439 
L 326.341818 236.486189 
L 328.463743 249.687012 
L 330.585668 261.688839 
L 332.707594 250.533667 
L 334.829519 275.108956 
L 336.951444 239.908607 
L 339.073369 239.260611 
L 341.195294 230.660586 
L 343.317219 252.301518 
L 345.439144 234.442373 
L 347.56107 260.409339 
L 349.682995 216.440399 
L 351.80492 248.411176 
L 353.926845 237.542761 
L 356.04877 235.622982 
L 358.170695 241.036128 
L 360.29262 222.102653 
L 362.414545 215.541502 
L 364.536471 212.783226 
L 368.780321 238.372356 
L 370.902246 224.654141 
L 373.024171 240.585963 
L 375.146096 214.51236 
L 377.268021 199.875348 
L 379.389947 220.369528 
L 381.511872 206.666311 
L 383.633797 217.583728 
L 385.755722 209.776478 
L 387.877647 227.945244 
L 389.999572 242.757843 
L 392.121497 271.798218 
L 394.243422 204.788796 
L 396.365348 240.405349 
L 398.487273 221.085553 
L 398.487273 221.085553 
" clip-path="url(#p628a0b030e)" style="fill: none; stroke: #f08080; stroke-opacity: 0.8; stroke-width: 0.5; stroke-linecap: square"/>
   </g>
   <g id="patch_3">
    <path d="M 57.6 307.584 
L 57.6 41.472 
" style="fill: none; stroke: #000000; stroke-width: 0.8; stroke-linejoin: miter; stroke-linecap: square"/>
   </g>
   <g id="patch_4">
    <path d="M 414.72 307.584 
L 414.72 41.472 
" style="fill: none; stroke: #000000; stroke-width: 0.8; stroke-linejoin: miter; stroke-linecap: square"/>
   </g>
   <g id="patch_5">
    <path d="M 57.6 307.584 
L 414.72 307.584 
" style="fill: none; stroke: #000000; stroke-width: 0.8; stroke-linejoin: miter; stroke-linecap: square"/>
   </g>
   <g id="patch_6">
    <path d="M 57.6 41.472 
L 414.72 41.472 
" style="fill: none; stroke: #000000; stroke-width: 0.8; stroke-linejoin: miter; stroke-linecap: square"/>
   </g>
   <g id="text_16">
    <!-- 1final_zhang_pr_eurusd -->
    <g transform="translate(165.203438 35.472) scale(0.12 -0.12)">
     <defs>
      <path id="DejaVuSans-66" d="M 2375 4863 
L 2375 4384 
L 1825 4384 
Q 1516 4384 1395 4259 
Q 1275 4134 1275 3809 
L 1275 3500 
L 2222 3500 
L 2222 3053 
L 1275 3053 
L 1275 0 
L 697 0 
L 697 3053 
L 147 3053 
L 147 3500 
L 697 3500 
L 697 3744 
Q 697 4328 969 4595 
Q 1241 4863 1831 4863 
L 2375 4863 
z
" transform="scale(0.015625)"/>
      <path id="DejaVuSans-69" d="M 603 3500 
L 1178 3500 
L 1178 0 
L 603 0 
L 603 3500 
z
M 603 4863 
L 1178 4863 
L 1178 4134 
L 603 4134 
L 603 4863 
z
" transform="scale(0.015625)"/>
      <path id="DejaVuSans-6e" d="M 3513 2113 
L 3513 0 
L 2938 0 
L 2938 2094 
Q 2938 2591 2744 2837 
Q 2550 3084 2163 3084 
Q 1697 3084 1428 2787 
Q 1159 2491 1159 1978 
L 1159 0 
L 581 0 
L 581 3500 
L 1159 3500 
L 1159 2956 
Q 1366 3272 1645 3428 
Q 1925 3584 2291 3584 
Q 2894 3584 3203 3211 
Q 3513 2838 3513 2113 
z
" transform="scale(0.015625)"/>
      <path id="DejaVuSans-61" d="M 2194 1759 
Q 1497 1759 1228 1600 
Q 959 1441 959 1056 
Q 959 750 1161 570 
Q 1363 391 1709 391 
Q 2188 391 2477 730 
Q 2766 1069 2766 1631 
L 2766 1759 
L 2194 1759 
z
M 3341 1997 
L 3341 0 
L 2766 0 
L 2766 531 
Q 2569 213 2275 61 
Q 1981 -91 1556 -91 
Q 1019 -91 701 211 
Q 384 513 384 1019 
Q 384 1609 779 1909 
Q 1175 2209 1959 2209 
L 2766 2209 
L 2766 2266 
Q 2766 2663 2505 2880 
Q 2244 3097 1772 3097 
Q 1472 3097 1187 3025 
Q 903 2953 641 2809 
L 641 3341 
Q 956 3463 1253 3523 
Q 1550 3584 1831 3584 
Q 2591 3584 2966 3190 
Q 3341 2797 3341 1997 
z
" transform="scale(0.015625)"/>
      <path id="DejaVuSans-6c" d="M 603 4863 
L 1178 4863 
L 1178 0 
L 603 0 
L 603 4863 
z
" transform="scale(0.015625)"/>
      <path id="DejaVuSans-5f" d="M 3263 -1063 
L 3263 -1509 
L -63 -1509 
L -63 -1063 
L 3263 -1063 
z
" transform="scale(0.015625)"/>
      <path id="DejaVuSans-7a" d="M 353 3500 
L 3084 3500 
L 3084 2975 
L 922 459 
L 3084 459 
L 3084 0 
L 275 0 
L 275 525 
L 2438 3041 
L 353 3041 
L 353 3500 
z
" transform="scale(0.015625)"/>
      <path id="DejaVuSans-68" d="M 3513 2113 
L 3513 0 
L 2938 0 
L 2938 2094 
Q 2938 2591 2744 2837 
Q 2550 3084 2163 3084 
Q 1697 3084 1428 2787 
Q 1159 2491 1159 1978 
L 1159 0 
L 581 0 
L 581 4863 
L 1159 4863 
L 1159 2956 
Q 1366 3272 1645 3428 
Q 1925 3584 2291 3584 
Q 2894 3584 3203 3211 
Q 3513 2838 3513 2113 
z
" transform="scale(0.015625)"/>
      <path id="DejaVuSans-67" d="M 2906 1791 
Q 2906 2416 2648 2759 
Q 2391 3103 1925 3103 
Q 1463 3103 1205 2759 
Q 947 2416 947 1791 
Q 947 1169 1205 825 
Q 1463 481 1925 481 
Q 2391 481 2648 825 
Q 2906 1169 2906 1791 
z
M 3481 434 
Q 3481 -459 3084 -895 
Q 2688 -1331 1869 -1331 
Q 1566 -1331 1297 -1286 
Q 1028 -1241 775 -1147 
L 775 -588 
Q 1028 -725 1275 -790 
Q 1522 -856 1778 -856 
Q 2344 -856 2625 -561 
Q 2906 -266 2906 331 
L 2906 616 
Q 2728 306 2450 153 
Q 2172 0 1784 0 
Q 1141 0 747 490 
Q 353 981 353 1791 
Q 353 2603 747 3093 
Q 1141 3584 1784 3584 
Q 2172 3584 2450 3431 
Q 2728 3278 2906 2969 
L 2906 3500 
L 3481 3500 
L 3481 434 
z
" transform="scale(0.015625)"/>
      <path id="DejaVuSans-70" d="M 1159 525 
L 1159 -1331 
L 581 -1331 
L 581 3500 
L 1159 3500 
L 1159 2969 
Q 1341 3281 1617 3432 
Q 1894 3584 2278 3584 
Q 2916 3584 3314 3078 
Q 3713 2572 3713 1747 
Q 3713 922 3314 415 
Q 2916 -91 2278 -91 
Q 1894 -91 1617 61 
Q 1341 213 1159 525 
z
M 3116 1747 
Q 3116 2381 2855 2742 
Q 2594 3103 2138 3103 
Q 1681 3103 1420 2742 
Q 1159 2381 1159 1747 
Q 1159 1113 1420 752 
Q 1681 391 2138 391 
Q 2594 391 2855 752 
Q 3116 1113 3116 1747 
z
" transform="scale(0.015625)"/>
      <path id="DejaVuSans-72" d="M 2631 2963 
Q 2534 3019 2420 3045 
Q 2306 3072 2169 3072 
Q 1681 3072 1420 2755 
Q 1159 2438 1159 1844 
L 1159 0 
L 581 0 
L 581 3500 
L 1159 3500 
L 1159 2956 
Q 1341 3275 1631 3429 
Q 1922 3584 2338 3584 
Q 2397 3584 2469 3576 
Q 2541 3569 2628 3553 
L 2631 2963 
z
" transform="scale(0.015625)"/>
      <path id="DejaVuSans-65" d="M 3597 1894 
L 3597 1613 
L 953 1613 
Q 991 1019 1311 708 
Q 1631 397 2203 397 
Q 2534 397 2845 478 
Q 3156 559 3463 722 
L 3463 178 
Q 3153 47 2828 -22 
Q 2503 -91 2169 -91 
Q 1331 -91 842 396 
Q 353 884 353 1716 
Q 353 2575 817 3079 
Q 1281 3584 2069 3584 
Q 2775 3584 3186 3129 
Q 3597 2675 3597 1894 
z
M 3022 2063 
Q 3016 2534 2758 2815 
Q 2500 3097 2075 3097 
Q 1594 3097 1305 2825 
Q 1016 2553 972 2059 
L 3022 2063 
z
" transform="scale(0.015625)"/>
      <path id="DejaVuSans-75" d="M 544 1381 
L 544 3500 
L 1119 3500 
L 1119 1403 
Q 1119 906 1312 657 
Q 1506 409 1894 409 
Q 2359 409 2629 706 
Q 2900 1003 2900 1516 
L 2900 3500 
L 3475 3500 
L 3475 0 
L 2900 0 
L 2900 538 
Q 2691 219 2414 64 
Q 2138 -91 1772 -91 
Q 1169 -91 856 284 
Q 544 659 544 1381 
z
M 1991 3584 
L 1991 3584 
z
" transform="scale(0.015625)"/>
      <path id="DejaVuSans-73" d="M 2834 3397 
L 2834 2853 
Q 2591 2978 2328 3040 
Q 2066 3103 1784 3103 
Q 1356 3103 1142 2972 
Q 928 2841 928 2578 
Q 928 2378 1081 2264 
Q 1234 2150 1697 2047 
L 1894 2003 
Q 2506 1872 2764 1633 
Q 3022 1394 3022 966 
Q 3022 478 2636 193 
Q 2250 -91 1575 -91 
Q 1294 -91 989 -36 
Q 684 19 347 128 
L 347 722 
Q 666 556 975 473 
Q 1284 391 1588 391 
Q 1994 391 2212 530 
Q 2431 669 2431 922 
Q 2431 1156 2273 1281 
Q 2116 1406 1581 1522 
L 1381 1569 
Q 847 1681 609 1914 
Q 372 2147 372 2553 
Q 372 3047 722 3315 
Q 1072 3584 1716 3584 
Q 2034 3584 2315 3537 
Q 2597 3491 2834 3397 
z
" transform="scale(0.015625)"/>
      <path id="DejaVuSans-64" d="M 2906 2969 
L 2906 4863 
L 3481 4863 
L 3481 0 
L 2906 0 
L 2906 525 
Q 2725 213 2448 61 
Q 2172 -91 1784 -91 
Q 1150 -91 751 415 
Q 353 922 353 1747 
Q 353 2572 751 3078 
Q 1150 3584 1784 3584 
Q 2172 3584 2448 3432 
Q 2725 3281 2906 2969 
z
M 947 1747 
Q 947 1113 1208 752 
Q 1469 391 1925 391 
Q 2381 391 2643 752 
Q 2906 1113 2906 1747 
Q 2906 2381 2643 2742 
Q 2381 3103 1925 3103 
Q 1469 3103 1208 2742 
Q 947 2381 947 1747 
z
" transform="scale(0.015625)"/>
     </defs>
     <use xlink:href="#DejaVuSans-31"/>
     <use xlink:href="#DejaVuSans-66" x="63.623047"/>
     <use xlink:href="#DejaVuSans-69" x="98.828125"/>
     <use xlink:href="#DejaVuSans-6e" x="126.611328"/>
     <use xlink:href="#DejaVuSans-61" x="189.990234"/>
     <use xlink:href="#DejaVuSans-6c" x="251.269531"/>
     <use xlink:href="#DejaVuSans-5f" x="279.052734"/>
     <use xlink:href="#DejaVuSans-7a" x="329.052734"/>
     <use xlink:href="#DejaVuSans-68" x="381.542969"/>
     <use xlink:href="#DejaVuSans-61" x="444.921875"/>
     <use xlink:href="#DejaVuSans-6e" x="506.201172"/>
     <use xlink:href="#DejaVuSans-67" x="569.580078"/>
     <use xlink:href="#DejaVuSans-5f" x="633.056641"/>
     <use xlink:href="#DejaVuSans-70" x="683.056641"/>
     <use xlink:href="#DejaVuSans-72" x="746.533203"/>
     <use xlink:href="#DejaVuSans-5f" x="787.646484"/>
     <use xlink:href="#DejaVuSans-65" x="837.646484"/>
     <use xlink:href="#DejaVuSans-75" x="899.169922"/>
     <use xlink:href="#DejaVuSans-72" x="962.548828"/>
     <use xlink:href="#DejaVuSans-75" x="1003.662109"/>
     <use xlink:href="#DejaVuSans-73" x="1067.041016"/>
     <use xlink:href="#DejaVuSans-64" x="1119.140625"/>
    </g>
   </g>
   <g id="legend_1">
    <g id="patch_7">
     <path d="M 64.6 137.54075 
L 225.001563 137.54075 
Q 227.001563 137.54075 227.001563 135.54075 
L 227.001563 48.472 
Q 227.001563 46.472 225.001563 46.472 
L 64.6 46.472 
Q 62.6 46.472 62.6 48.472 
L 62.6 135.54075 
Q 62.6 137.54075 64.6 137.54075 
z
" style="fill: #ffffff; opacity: 0.8; stroke: #cccccc; stroke-linejoin: miter"/>
    </g>
    <g id="line2d_22">
     <path d="M 66.6 54.570438 
L 76.6 54.570438 
L 86.6 54.570438 
" style="fill: none; stroke: #008000; stroke-opacity: 0.8; stroke-width: 0.5; stroke-linecap: square"/>
    </g>
    <g id="text_17">
     <!-- Positive predictions -->
     <g transform="translate(94.6 58.070438) scale(0.1 -0.1)">
      <defs>
       <path id="DejaVuSans-50" d="M 1259 4147 
L 1259 2394 
L 2053 2394 
Q 2494 2394 2734 2622 
Q 2975 2850 2975 3272 
Q 2975 3691 2734 3919 
Q 2494 4147 2053 4147 
L 1259 4147 
z
M 628 4666 
L 2053 4666 
Q 2838 4666 3239 4311 
Q 3641 3956 3641 3272 
Q 3641 2581 3239 2228 
Q 2838 1875 2053 1875 
L 1259 1875 
L 1259 0 
L 628 0 
L 628 4666 
z
" transform="scale(0.015625)"/>
       <path id="DejaVuSans-6f" d="M 1959 3097 
Q 1497 3097 1228 2736 
Q 959 2375 959 1747 
Q 959 1119 1226 758 
Q 1494 397 1959 397 
Q 2419 397 2687 759 
Q 2956 1122 2956 1747 
Q 2956 2369 2687 2733 
Q 2419 3097 1959 3097 
z
M 1959 3584 
Q 2709 3584 3137 3096 
Q 3566 2609 3566 1747 
Q 3566 888 3137 398 
Q 2709 -91 1959 -91 
Q 1206 -91 779 398 
Q 353 888 353 1747 
Q 353 2609 779 3096 
Q 1206 3584 1959 3584 
z
" transform="scale(0.015625)"/>
       <path id="DejaVuSans-74" d="M 1172 4494 
L 1172 3500 
L 2356 3500 
L 2356 3053 
L 1172 3053 
L 1172 1153 
Q 1172 725 1289 603 
Q 1406 481 1766 481 
L 2356 481 
L 2356 0 
L 1766 0 
Q 1100 0 847 248 
Q 594 497 594 1153 
L 594 3053 
L 172 3053 
L 172 3500 
L 594 3500 
L 594 4494 
L 1172 4494 
z
" transform="scale(0.015625)"/>
       <path id="DejaVuSans-76" d="M 191 3500 
L 800 3500 
L 1894 563 
L 2988 3500 
L 3597 3500 
L 2284 0 
L 1503 0 
L 191 3500 
z
" transform="scale(0.015625)"/>
       <path id="DejaVuSans-20" transform="scale(0.015625)"/>
       <path id="DejaVuSans-63" d="M 3122 3366 
L 3122 2828 
Q 2878 2963 2633 3030 
Q 2388 3097 2138 3097 
Q 1578 3097 1268 2742 
Q 959 2388 959 1747 
Q 959 1106 1268 751 
Q 1578 397 2138 397 
Q 2388 397 2633 464 
Q 2878 531 3122 666 
L 3122 134 
Q 2881 22 2623 -34 
Q 2366 -91 2075 -91 
Q 1284 -91 818 406 
Q 353 903 353 1747 
Q 353 2603 823 3093 
Q 1294 3584 2113 3584 
Q 2378 3584 2631 3529 
Q 2884 3475 3122 3366 
z
" transform="scale(0.015625)"/>
      </defs>
      <use xlink:href="#DejaVuSans-50"/>
      <use xlink:href="#DejaVuSans-6f" x="56.677734"/>
      <use xlink:href="#DejaVuSans-73" x="117.859375"/>
      <use xlink:href="#DejaVuSans-69" x="169.958984"/>
      <use xlink:href="#DejaVuSans-74" x="197.742188"/>
      <use xlink:href="#DejaVuSans-69" x="236.951172"/>
      <use xlink:href="#DejaVuSans-76" x="264.734375"/>
      <use xlink:href="#DejaVuSans-65" x="323.914062"/>
      <use xlink:href="#DejaVuSans-20" x="385.4375"/>
      <use xlink:href="#DejaVuSans-70" x="417.224609"/>
      <use xlink:href="#DejaVuSans-72" x="480.701172"/>
      <use xlink:href="#DejaVuSans-65" x="519.564453"/>
      <use xlink:href="#DejaVuSans-64" x="581.087891"/>
      <use xlink:href="#DejaVuSans-69" x="644.564453"/>
      <use xlink:href="#DejaVuSans-63" x="672.347656"/>
      <use xlink:href="#DejaVuSans-74" x="727.328125"/>
      <use xlink:href="#DejaVuSans-69" x="766.537109"/>
      <use xlink:href="#DejaVuSans-6f" x="794.320312"/>
      <use xlink:href="#DejaVuSans-6e" x="855.501953"/>
      <use xlink:href="#DejaVuSans-73" x="918.880859"/>
     </g>
    </g>
    <g id="line2d_23">
     <path d="M 66.6 69.248563 
L 76.6 69.248563 
L 86.6 69.248563 
" style="fill: none; stroke: #32cd32; stroke-opacity: 0.8; stroke-width: 0.5; stroke-linecap: square"/>
    </g>
    <g id="text_18">
     <!-- Positive predictions max -->
     <g transform="translate(94.6 72.748563) scale(0.1 -0.1)">
      <defs>
       <path id="DejaVuSans-6d" d="M 3328 2828 
Q 3544 3216 3844 3400 
Q 4144 3584 4550 3584 
Q 5097 3584 5394 3201 
Q 5691 2819 5691 2113 
L 5691 0 
L 5113 0 
L 5113 2094 
Q 5113 2597 4934 2840 
Q 4756 3084 4391 3084 
Q 3944 3084 3684 2787 
Q 3425 2491 3425 1978 
L 3425 0 
L 2847 0 
L 2847 2094 
Q 2847 2600 2669 2842 
Q 2491 3084 2119 3084 
Q 1678 3084 1418 2786 
Q 1159 2488 1159 1978 
L 1159 0 
L 581 0 
L 581 3500 
L 1159 3500 
L 1159 2956 
Q 1356 3278 1631 3431 
Q 1906 3584 2284 3584 
Q 2666 3584 2933 3390 
Q 3200 3197 3328 2828 
z
" transform="scale(0.015625)"/>
       <path id="DejaVuSans-78" d="M 3513 3500 
L 2247 1797 
L 3578 0 
L 2900 0 
L 1881 1375 
L 863 0 
L 184 0 
L 1544 1831 
L 300 3500 
L 978 3500 
L 1906 2253 
L 2834 3500 
L 3513 3500 
z
" transform="scale(0.015625)"/>
      </defs>
      <use xlink:href="#DejaVuSans-50"/>
      <use xlink:href="#DejaVuSans-6f" x="56.677734"/>
      <use xlink:href="#DejaVuSans-73" x="117.859375"/>
      <use xlink:href="#DejaVuSans-69" x="169.958984"/>
      <use xlink:href="#DejaVuSans-74" x="197.742188"/>
      <use xlink:href="#DejaVuSans-69" x="236.951172"/>
      <use xlink:href="#DejaVuSans-76" x="264.734375"/>
      <use xlink:href="#DejaVuSans-65" x="323.914062"/>
      <use xlink:href="#DejaVuSans-20" x="385.4375"/>
      <use xlink:href="#DejaVuSans-70" x="417.224609"/>
      <use xlink:href="#DejaVuSans-72" x="480.701172"/>
      <use xlink:href="#DejaVuSans-65" x="519.564453"/>
      <use xlink:href="#DejaVuSans-64" x="581.087891"/>
      <use xlink:href="#DejaVuSans-69" x="644.564453"/>
      <use xlink:href="#DejaVuSans-63" x="672.347656"/>
      <use xlink:href="#DejaVuSans-74" x="727.328125"/>
      <use xlink:href="#DejaVuSans-69" x="766.537109"/>
      <use xlink:href="#DejaVuSans-6f" x="794.320312"/>
      <use xlink:href="#DejaVuSans-6e" x="855.501953"/>
      <use xlink:href="#DejaVuSans-73" x="918.880859"/>
      <use xlink:href="#DejaVuSans-20" x="970.980469"/>
      <use xlink:href="#DejaVuSans-6d" x="1002.767578"/>
      <use xlink:href="#DejaVuSans-61" x="1100.179688"/>
      <use xlink:href="#DejaVuSans-78" x="1161.458984"/>
     </g>
    </g>
    <g id="line2d_24">
     <path d="M 66.6 83.926688 
L 76.6 83.926688 
L 86.6 83.926688 
" style="fill: none; stroke: #32cd32; stroke-opacity: 0.8; stroke-width: 0.5; stroke-linecap: square"/>
    </g>
    <g id="text_19">
     <!-- Positive predictions min -->
     <g transform="translate(94.6 87.426688) scale(0.1 -0.1)">
      <use xlink:href="#DejaVuSans-50"/>
      <use xlink:href="#DejaVuSans-6f" x="56.677734"/>
      <use xlink:href="#DejaVuSans-73" x="117.859375"/>
      <use xlink:href="#DejaVuSans-69" x="169.958984"/>
      <use xlink:href="#DejaVuSans-74" x="197.742188"/>
      <use xlink:href="#DejaVuSans-69" x="236.951172"/>
      <use xlink:href="#DejaVuSans-76" x="264.734375"/>
      <use xlink:href="#DejaVuSans-65" x="323.914062"/>
      <use xlink:href="#DejaVuSans-20" x="385.4375"/>
      <use xlink:href="#DejaVuSans-70" x="417.224609"/>
      <use xlink:href="#DejaVuSans-72" x="480.701172"/>
      <use xlink:href="#DejaVuSans-65" x="519.564453"/>
      <use xlink:href="#DejaVuSans-64" x="581.087891"/>
      <use xlink:href="#DejaVuSans-69" x="644.564453"/>
      <use xlink:href="#DejaVuSans-63" x="672.347656"/>
      <use xlink:href="#DejaVuSans-74" x="727.328125"/>
      <use xlink:href="#DejaVuSans-69" x="766.537109"/>
      <use xlink:href="#DejaVuSans-6f" x="794.320312"/>
      <use xlink:href="#DejaVuSans-6e" x="855.501953"/>
      <use xlink:href="#DejaVuSans-73" x="918.880859"/>
      <use xlink:href="#DejaVuSans-20" x="970.980469"/>
      <use xlink:href="#DejaVuSans-6d" x="1002.767578"/>
      <use xlink:href="#DejaVuSans-69" x="1100.179688"/>
      <use xlink:href="#DejaVuSans-6e" x="1127.962891"/>
     </g>
    </g>
    <g id="line2d_25">
     <path d="M 66.6 98.604813 
L 76.6 98.604813 
L 86.6 98.604813 
" style="fill: none; stroke: #ff0000; stroke-opacity: 0.8; stroke-width: 0.5; stroke-linecap: square"/>
    </g>
    <g id="text_20">
     <!-- Negative predictions -->
     <g transform="translate(94.6 102.104813) scale(0.1 -0.1)">
      <defs>
       <path id="DejaVuSans-4e" d="M 628 4666 
L 1478 4666 
L 3547 763 
L 3547 4666 
L 4159 4666 
L 4159 0 
L 3309 0 
L 1241 3903 
L 1241 0 
L 628 0 
L 628 4666 
z
" transform="scale(0.015625)"/>
      </defs>
      <use xlink:href="#DejaVuSans-4e"/>
      <use xlink:href="#DejaVuSans-65" x="74.804688"/>
      <use xlink:href="#DejaVuSans-67" x="136.328125"/>
      <use xlink:href="#DejaVuSans-61" x="199.804688"/>
      <use xlink:href="#DejaVuSans-74" x="261.083984"/>
      <use xlink:href="#DejaVuSans-69" x="300.292969"/>
      <use xlink:href="#DejaVuSans-76" x="328.076172"/>
      <use xlink:href="#DejaVuSans-65" x="387.255859"/>
      <use xlink:href="#DejaVuSans-20" x="448.779297"/>
      <use xlink:href="#DejaVuSans-70" x="480.566406"/>
      <use xlink:href="#DejaVuSans-72" x="544.042969"/>
      <use xlink:href="#DejaVuSans-65" x="582.90625"/>
      <use xlink:href="#DejaVuSans-64" x="644.429688"/>
      <use xlink:href="#DejaVuSans-69" x="707.90625"/>
      <use xlink:href="#DejaVuSans-63" x="735.689453"/>
      <use xlink:href="#DejaVuSans-74" x="790.669922"/>
      <use xlink:href="#DejaVuSans-69" x="829.878906"/>
      <use xlink:href="#DejaVuSans-6f" x="857.662109"/>
      <use xlink:href="#DejaVuSans-6e" x="918.84375"/>
      <use xlink:href="#DejaVuSans-73" x="982.222656"/>
     </g>
    </g>
    <g id="line2d_26">
     <path d="M 66.6 113.282938 
L 76.6 113.282938 
L 86.6 113.282938 
" style="fill: none; stroke: #f08080; stroke-opacity: 0.8; stroke-width: 0.5; stroke-linecap: square"/>
    </g>
    <g id="text_21">
     <!-- Negative predictions max -->
     <g transform="translate(94.6 116.782938) scale(0.1 -0.1)">
      <use xlink:href="#DejaVuSans-4e"/>
      <use xlink:href="#DejaVuSans-65" x="74.804688"/>
      <use xlink:href="#DejaVuSans-67" x="136.328125"/>
      <use xlink:href="#DejaVuSans-61" x="199.804688"/>
      <use xlink:href="#DejaVuSans-74" x="261.083984"/>
      <use xlink:href="#DejaVuSans-69" x="300.292969"/>
      <use xlink:href="#DejaVuSans-76" x="328.076172"/>
      <use xlink:href="#DejaVuSans-65" x="387.255859"/>
      <use xlink:href="#DejaVuSans-20" x="448.779297"/>
      <use xlink:href="#DejaVuSans-70" x="480.566406"/>
      <use xlink:href="#DejaVuSans-72" x="544.042969"/>
      <use xlink:href="#DejaVuSans-65" x="582.90625"/>
      <use xlink:href="#DejaVuSans-64" x="644.429688"/>
      <use xlink:href="#DejaVuSans-69" x="707.90625"/>
      <use xlink:href="#DejaVuSans-63" x="735.689453"/>
      <use xlink:href="#DejaVuSans-74" x="790.669922"/>
      <use xlink:href="#DejaVuSans-69" x="829.878906"/>
      <use xlink:href="#DejaVuSans-6f" x="857.662109"/>
      <use xlink:href="#DejaVuSans-6e" x="918.84375"/>
      <use xlink:href="#DejaVuSans-73" x="982.222656"/>
      <use xlink:href="#DejaVuSans-20" x="1034.322266"/>
      <use xlink:href="#DejaVuSans-6d" x="1066.109375"/>
      <use xlink:href="#DejaVuSans-61" x="1163.521484"/>
      <use xlink:href="#DejaVuSans-78" x="1224.800781"/>
     </g>
    </g>
    <g id="line2d_27">
     <path d="M 66.6 127.961063 
L 76.6 127.961063 
L 86.6 127.961063 
" style="fill: none; stroke: #f08080; stroke-opacity: 0.8; stroke-width: 0.5; stroke-linecap: square"/>
    </g>
    <g id="text_22">
     <!-- Negative predictions min -->
     <g transform="translate(94.6 131.461063) scale(0.1 -0.1)">
      <use xlink:href="#DejaVuSans-4e"/>
      <use xlink:href="#DejaVuSans-65" x="74.804688"/>
      <use xlink:href="#DejaVuSans-67" x="136.328125"/>
      <use xlink:href="#DejaVuSans-61" x="199.804688"/>
      <use xlink:href="#DejaVuSans-74" x="261.083984"/>
      <use xlink:href="#DejaVuSans-69" x="300.292969"/>
      <use xlink:href="#DejaVuSans-76" x="328.076172"/>
      <use xlink:href="#DejaVuSans-65" x="387.255859"/>
      <use xlink:href="#DejaVuSans-20" x="448.779297"/>
      <use xlink:href="#DejaVuSans-70" x="480.566406"/>
      <use xlink:href="#DejaVuSans-72" x="544.042969"/>
      <use xlink:href="#DejaVuSans-65" x="582.90625"/>
      <use xlink:href="#DejaVuSans-64" x="644.429688"/>
      <use xlink:href="#DejaVuSans-69" x="707.90625"/>
      <use xlink:href="#DejaVuSans-63" x="735.689453"/>
      <use xlink:href="#DejaVuSans-74" x="790.669922"/>
      <use xlink:href="#DejaVuSans-69" x="829.878906"/>
      <use xlink:href="#DejaVuSans-6f" x="857.662109"/>
      <use xlink:href="#DejaVuSans-6e" x="918.84375"/>
      <use xlink:href="#DejaVuSans-73" x="982.222656"/>
      <use xlink:href="#DejaVuSans-20" x="1034.322266"/>
      <use xlink:href="#DejaVuSans-6d" x="1066.109375"/>
      <use xlink:href="#DejaVuSans-69" x="1163.521484"/>
      <use xlink:href="#DejaVuSans-6e" x="1191.304688"/>
     </g>
    </g>
   </g>
  </g>
 </g>
 <defs>
  <clipPath id="p628a0b030e">
   <rect x="57.6" y="41.472" width="357.12" height="266.112"/>
  </clipPath>
 </defs>
</svg>
