<?xml version="1.0" encoding="utf-8" standalone="no"?>
<!DOCTYPE svg PUBLIC "-//W3C//DTD SVG 1.1//EN"
  "http://www.w3.org/Graphics/SVG/1.1/DTD/svg11.dtd">
<svg xmlns:xlink="http://www.w3.org/1999/xlink" width="460.8pt" height="345.6pt" viewBox="0 0 460.8 345.6" xmlns="http://www.w3.org/2000/svg" version="1.1">
 <metadata>
  <rdf:RDF xmlns:dc="http://purl.org/dc/elements/1.1/" xmlns:cc="http://creativecommons.org/ns#" xmlns:rdf="http://www.w3.org/1999/02/22-rdf-syntax-ns#">
   <cc:Work>
    <dc:type rdf:resource="http://purl.org/dc/dcmitype/StillImage"/>
    <dc:date>2024-09-06T07:10:48.357838</dc:date>
    <dc:format>image/svg+xml</dc:format>
    <dc:creator>
     <cc:Agent>
      <dc:title>Matplotlib v3.9.0, https://matplotlib.org/</dc:title>
     </cc:Agent>
    </dc:creator>
   </cc:Work>
  </rdf:RDF>
 </metadata>
 <defs>
  <style type="text/css">*{stroke-linejoin: round; stroke-linecap: butt}</style>
 </defs>
 <g id="figure_1">
  <g id="patch_1">
   <path d="M 0 345.6 
L 460.8 345.6 
L 460.8 0 
L 0 0 
z
" style="fill: #ffffff"/>
  </g>
  <g id="axes_1">
   <g id="patch_2">
    <path d="M 57.6 307.584 
L 414.72 307.584 
L 414.72 41.472 
L 57.6 41.472 
z
" style="fill: #ffffff"/>
   </g>
   <g id="matplotlib.axis_1">
    <g id="xtick_1">
     <g id="line2d_1">
      <defs>
       <path id="mb386be1890" d="M 0 0 
L 0 3.5 
" style="stroke: #000000; stroke-width: 0.8"/>
      </defs>
      <g>
       <use xlink:href="#mb386be1890" x="73.832727" y="307.584" style="stroke: #000000; stroke-width: 0.8"/>
      </g>
     </g>
     <g id="text_1">
      <!-- 0 -->
      <g transform="translate(70.651477 322.182437) scale(0.1 -0.1)">
       <defs>
        <path id="DejaVuSans-30" d="M 2034 4250 
Q 1547 4250 1301 3770 
Q 1056 3291 1056 2328 
Q 1056 1369 1301 889 
Q 1547 409 2034 409 
Q 2525 409 2770 889 
Q 3016 1369 3016 2328 
Q 3016 3291 2770 3770 
Q 2525 4250 2034 4250 
z
M 2034 4750 
Q 2819 4750 3233 4129 
Q 3647 3509 3647 2328 
Q 3647 1150 3233 529 
Q 2819 -91 2034 -91 
Q 1250 -91 836 529 
Q 422 1150 422 2328 
Q 422 3509 836 4129 
Q 1250 4750 2034 4750 
z
" transform="scale(0.015625)"/>
       </defs>
       <use xlink:href="#DejaVuSans-30"/>
      </g>
     </g>
    </g>
    <g id="xtick_2">
     <g id="line2d_2">
      <g>
       <use xlink:href="#mb386be1890" x="149.333784" y="307.584" style="stroke: #000000; stroke-width: 0.8"/>
      </g>
     </g>
     <g id="text_2">
      <!-- 50 -->
      <g transform="translate(142.971284 322.182437) scale(0.1 -0.1)">
       <defs>
        <path id="DejaVuSans-35" d="M 691 4666 
L 3169 4666 
L 3169 4134 
L 1269 4134 
L 1269 2991 
Q 1406 3038 1543 3061 
Q 1681 3084 1819 3084 
Q 2600 3084 3056 2656 
Q 3513 2228 3513 1497 
Q 3513 744 3044 326 
Q 2575 -91 1722 -91 
Q 1428 -91 1123 -41 
Q 819 9 494 109 
L 494 744 
Q 775 591 1075 516 
Q 1375 441 1709 441 
Q 2250 441 2565 725 
Q 2881 1009 2881 1497 
Q 2881 1984 2565 2268 
Q 2250 2553 1709 2553 
Q 1456 2553 1204 2497 
Q 953 2441 691 2322 
L 691 4666 
z
" transform="scale(0.015625)"/>
       </defs>
       <use xlink:href="#DejaVuSans-35"/>
       <use xlink:href="#DejaVuSans-30" x="63.623047"/>
      </g>
     </g>
    </g>
    <g id="xtick_3">
     <g id="line2d_3">
      <g>
       <use xlink:href="#mb386be1890" x="224.834841" y="307.584" style="stroke: #000000; stroke-width: 0.8"/>
      </g>
     </g>
     <g id="text_3">
      <!-- 100 -->
      <g transform="translate(215.291091 322.182437) scale(0.1 -0.1)">
       <defs>
        <path id="DejaVuSans-31" d="M 794 531 
L 1825 531 
L 1825 4091 
L 703 3866 
L 703 4441 
L 1819 4666 
L 2450 4666 
L 2450 531 
L 3481 531 
L 3481 0 
L 794 0 
L 794 531 
z
" transform="scale(0.015625)"/>
       </defs>
       <use xlink:href="#DejaVuSans-31"/>
       <use xlink:href="#DejaVuSans-30" x="63.623047"/>
       <use xlink:href="#DejaVuSans-30" x="127.246094"/>
      </g>
     </g>
    </g>
    <g id="xtick_4">
     <g id="line2d_4">
      <g>
       <use xlink:href="#mb386be1890" x="300.335899" y="307.584" style="stroke: #000000; stroke-width: 0.8"/>
      </g>
     </g>
     <g id="text_4">
      <!-- 150 -->
      <g transform="translate(290.792149 322.182437) scale(0.1 -0.1)">
       <use xlink:href="#DejaVuSans-31"/>
       <use xlink:href="#DejaVuSans-35" x="63.623047"/>
       <use xlink:href="#DejaVuSans-30" x="127.246094"/>
      </g>
     </g>
    </g>
    <g id="xtick_5">
     <g id="line2d_5">
      <g>
       <use xlink:href="#mb386be1890" x="375.836956" y="307.584" style="stroke: #000000; stroke-width: 0.8"/>
      </g>
     </g>
     <g id="text_5">
      <!-- 200 -->
      <g transform="translate(366.293206 322.182437) scale(0.1 -0.1)">
       <defs>
        <path id="DejaVuSans-32" d="M 1228 531 
L 3431 531 
L 3431 0 
L 469 0 
L 469 531 
Q 828 903 1448 1529 
Q 2069 2156 2228 2338 
Q 2531 2678 2651 2914 
Q 2772 3150 2772 3378 
Q 2772 3750 2511 3984 
Q 2250 4219 1831 4219 
Q 1534 4219 1204 4116 
Q 875 4013 500 3803 
L 500 4441 
Q 881 4594 1212 4672 
Q 1544 4750 1819 4750 
Q 2544 4750 2975 4387 
Q 3406 4025 3406 3419 
Q 3406 3131 3298 2873 
Q 3191 2616 2906 2266 
Q 2828 2175 2409 1742 
Q 1991 1309 1228 531 
z
" transform="scale(0.015625)"/>
       </defs>
       <use xlink:href="#DejaVuSans-32"/>
       <use xlink:href="#DejaVuSans-30" x="63.623047"/>
       <use xlink:href="#DejaVuSans-30" x="127.246094"/>
      </g>
     </g>
    </g>
   </g>
   <g id="matplotlib.axis_2">
    <g id="ytick_1">
     <g id="line2d_6">
      <defs>
       <path id="m95215af0f0" d="M 0 0 
L -3.5 0 
" style="stroke: #000000; stroke-width: 0.8"/>
      </defs>
      <g>
       <use xlink:href="#m95215af0f0" x="57.6" y="295.131409" style="stroke: #000000; stroke-width: 0.8"/>
      </g>
     </g>
     <g id="text_6">
      <!-- −800 -->
      <g transform="translate(23.132812 298.930628) scale(0.1 -0.1)">
       <defs>
        <path id="DejaVuSans-2212" d="M 678 2272 
L 4684 2272 
L 4684 1741 
L 678 1741 
L 678 2272 
z
" transform="scale(0.015625)"/>
        <path id="DejaVuSans-38" d="M 2034 2216 
Q 1584 2216 1326 1975 
Q 1069 1734 1069 1313 
Q 1069 891 1326 650 
Q 1584 409 2034 409 
Q 2484 409 2743 651 
Q 3003 894 3003 1313 
Q 3003 1734 2745 1975 
Q 2488 2216 2034 2216 
z
M 1403 2484 
Q 997 2584 770 2862 
Q 544 3141 544 3541 
Q 544 4100 942 4425 
Q 1341 4750 2034 4750 
Q 2731 4750 3128 4425 
Q 3525 4100 3525 3541 
Q 3525 3141 3298 2862 
Q 3072 2584 2669 2484 
Q 3125 2378 3379 2068 
Q 3634 1759 3634 1313 
Q 3634 634 3220 271 
Q 2806 -91 2034 -91 
Q 1263 -91 848 271 
Q 434 634 434 1313 
Q 434 1759 690 2068 
Q 947 2378 1403 2484 
z
M 1172 3481 
Q 1172 3119 1398 2916 
Q 1625 2713 2034 2713 
Q 2441 2713 2670 2916 
Q 2900 3119 2900 3481 
Q 2900 3844 2670 4047 
Q 2441 4250 2034 4250 
Q 1625 4250 1398 4047 
Q 1172 3844 1172 3481 
z
" transform="scale(0.015625)"/>
       </defs>
       <use xlink:href="#DejaVuSans-2212"/>
       <use xlink:href="#DejaVuSans-38" x="83.789062"/>
       <use xlink:href="#DejaVuSans-30" x="147.412109"/>
       <use xlink:href="#DejaVuSans-30" x="211.035156"/>
      </g>
     </g>
    </g>
    <g id="ytick_2">
     <g id="line2d_7">
      <g>
       <use xlink:href="#m95215af0f0" x="57.6" y="243.867309" style="stroke: #000000; stroke-width: 0.8"/>
      </g>
     </g>
     <g id="text_7">
      <!-- −600 -->
      <g transform="translate(23.132812 247.666528) scale(0.1 -0.1)">
       <defs>
        <path id="DejaVuSans-36" d="M 2113 2584 
Q 1688 2584 1439 2293 
Q 1191 2003 1191 1497 
Q 1191 994 1439 701 
Q 1688 409 2113 409 
Q 2538 409 2786 701 
Q 3034 994 3034 1497 
Q 3034 2003 2786 2293 
Q 2538 2584 2113 2584 
z
M 3366 4563 
L 3366 3988 
Q 3128 4100 2886 4159 
Q 2644 4219 2406 4219 
Q 1781 4219 1451 3797 
Q 1122 3375 1075 2522 
Q 1259 2794 1537 2939 
Q 1816 3084 2150 3084 
Q 2853 3084 3261 2657 
Q 3669 2231 3669 1497 
Q 3669 778 3244 343 
Q 2819 -91 2113 -91 
Q 1303 -91 875 529 
Q 447 1150 447 2328 
Q 447 3434 972 4092 
Q 1497 4750 2381 4750 
Q 2619 4750 2861 4703 
Q 3103 4656 3366 4563 
z
" transform="scale(0.015625)"/>
       </defs>
       <use xlink:href="#DejaVuSans-2212"/>
       <use xlink:href="#DejaVuSans-36" x="83.789062"/>
       <use xlink:href="#DejaVuSans-30" x="147.412109"/>
       <use xlink:href="#DejaVuSans-30" x="211.035156"/>
      </g>
     </g>
    </g>
    <g id="ytick_3">
     <g id="line2d_8">
      <g>
       <use xlink:href="#m95215af0f0" x="57.6" y="192.603209" style="stroke: #000000; stroke-width: 0.8"/>
      </g>
     </g>
     <g id="text_8">
      <!-- −400 -->
      <g transform="translate(23.132812 196.402428) scale(0.1 -0.1)">
       <defs>
        <path id="DejaVuSans-34" d="M 2419 4116 
L 825 1625 
L 2419 1625 
L 2419 4116 
z
M 2253 4666 
L 3047 4666 
L 3047 1625 
L 3713 1625 
L 3713 1100 
L 3047 1100 
L 3047 0 
L 2419 0 
L 2419 1100 
L 313 1100 
L 313 1709 
L 2253 4666 
z
" transform="scale(0.015625)"/>
       </defs>
       <use xlink:href="#DejaVuSans-2212"/>
       <use xlink:href="#DejaVuSans-34" x="83.789062"/>
       <use xlink:href="#DejaVuSans-30" x="147.412109"/>
       <use xlink:href="#DejaVuSans-30" x="211.035156"/>
      </g>
     </g>
    </g>
    <g id="ytick_4">
     <g id="line2d_9">
      <g>
       <use xlink:href="#m95215af0f0" x="57.6" y="141.339109" style="stroke: #000000; stroke-width: 0.8"/>
      </g>
     </g>
     <g id="text_9">
      <!-- −200 -->
      <g transform="translate(23.132812 145.138328) scale(0.1 -0.1)">
       <use xlink:href="#DejaVuSans-2212"/>
       <use xlink:href="#DejaVuSans-32" x="83.789062"/>
       <use xlink:href="#DejaVuSans-30" x="147.412109"/>
       <use xlink:href="#DejaVuSans-30" x="211.035156"/>
      </g>
     </g>
    </g>
    <g id="ytick_5">
     <g id="line2d_10">
      <g>
       <use xlink:href="#m95215af0f0" x="57.6" y="90.075009" style="stroke: #000000; stroke-width: 0.8"/>
      </g>
     </g>
     <g id="text_10">
      <!-- 0 -->
      <g transform="translate(44.2375 93.874228) scale(0.1 -0.1)">
       <use xlink:href="#DejaVuSans-30"/>
      </g>
     </g>
    </g>
   </g>
   <g id="line2d_11">
    <path d="M 73.832727 92.356261 
L 75.342748 99.661396 
L 78.362791 98.777276 
L 79.872812 97.247897 
L 81.382833 94.48625 
L 82.892854 94.63043 
L 84.402875 92.750747 
L 85.912896 98.436401 
L 87.422918 111.184974 
L 88.932939 132.285939 
L 90.44296 127.86441 
L 91.952981 121.896948 
L 93.463002 109.190775 
L 94.973023 110.119937 
L 96.483044 108.244137 
L 97.993066 111.576303 
L 99.503087 118.855806 
L 101.013108 123.384134 
L 102.523129 124.922057 
L 104.03315 118.514045 
L 105.543171 120.852188 
L 107.053192 114.956816 
L 108.563214 111.299054 
L 110.073235 110.786413 
L 111.583256 109.519888 
L 113.093277 110.80149 
L 114.603298 108.750926 
L 116.113319 105.168542 
L 117.62334 104.655901 
L 120.643383 98.269526 
L 122.153404 92.1847 
L 123.663425 91.757499 
L 125.173446 92.782781 
L 126.683467 92.782781 
L 128.193488 103.056273 
L 129.70351 105.557607 
L 131.213531 98.479564 
L 132.723552 100.477995 
L 134.233573 97.402149 
L 135.743594 95.095264 
L 137.253615 92.019418 
L 140.273658 89.983501 
L 141.783679 91.521424 
L 143.2937 94.974212 
L 144.803721 99.126604 
L 146.313742 101.195742 
L 147.823763 107.326074 
L 149.333784 112.1023 
L 150.843805 118.093791 
L 152.353827 120.1584 
L 153.863848 117.570784 
L 155.373869 118.630242 
L 156.88389 114.903736 
L 158.393911 108.148937 
L 159.903932 114.080926 
L 161.413953 120.479892 
L 162.923975 122.984842 
L 164.433996 120.035448 
L 165.944017 113.394416 
L 167.454038 108.160082 
L 168.964059 108.160082 
L 170.47408 106.365839 
L 171.984101 108.038667 
L 173.494123 103.271106 
L 175.004144 106.285658 
L 176.514165 102.991939 
L 178.024186 101.761601 
L 179.534207 97.99274 
L 181.044228 98.218905 
L 182.554249 101.574642 
L 184.064271 101.159646 
L 185.574292 106.517572 
L 187.084313 109.20621 
L 188.594334 108.21379 
L 190.104355 103.523125 
L 191.614376 102.417046 
L 193.124397 98.059597 
L 194.634419 93.239348 
L 196.14444 100.416322 
L 197.654461 97.233676 
L 199.164482 103.225168 
L 200.674503 110.013389 
L 202.184524 110.751592 
L 203.694545 116.84695 
L 205.204567 115.087344 
L 206.714588 109.929548 
L 208.224609 106.563948 
L 209.73463 107.33291 
L 211.244651 114.638044 
L 212.754672 123.737422 
L 214.264693 120.077735 
L 215.774715 124.971126 
L 217.284736 122.848326 
L 218.794757 116.157012 
L 220.304778 114.87541 
L 221.814799 110.517961 
L 223.32482 116.238697 
L 224.834841 114.725725 
L 226.344863 116.018472 
L 227.854884 112.353089 
L 229.364905 106.991718 
L 230.874926 105.638682 
L 232.384947 107.689246 
L 233.894968 105.082632 
L 235.404989 109.667462 
L 236.915011 129.814253 
L 238.425032 122.727533 
L 239.935053 120.228408 
L 241.445074 121.25369 
L 242.955095 123.560575 
L 244.465116 116.639921 
L 245.975137 132.207468 
L 247.485159 125.543135 
L 248.99518 132.563654 
L 250.505201 123.635156 
L 252.015222 128.857687 
L 253.525243 125.781841 
L 255.035264 137.828904 
L 256.545285 130.203369 
L 258.055307 125.855075 
L 259.565328 124.060831 
L 261.075349 120.472344 
L 262.58537 112.688296 
L 264.095391 114.012008 
L 265.605412 126.346461 
L 267.115433 107.891385 
L 268.625455 106.822162 
L 270.135476 106.565842 
L 271.645497 117.972104 
L 273.155518 115.000388 
L 274.665539 121.230948 
L 276.17556 120.194015 
L 277.685581 124.507702 
L 279.195603 126.949946 
L 280.705624 120.422318 
L 282.215645 128.059504 
L 283.725666 133.839175 
L 285.235687 154.828042 
L 286.745708 166.865247 
L 288.255729 175.478399 
L 289.765751 174.965758 
L 291.275772 175.763627 
L 292.785793 187.848385 
L 294.295814 205.91898 
L 295.805835 206.18284 
L 298.825877 193.583263 
L 300.335899 185.889643 
L 301.84592 181.390232 
L 303.355941 183.953437 
L 304.865962 191.340128 
L 306.375983 190.571167 
L 307.886004 183.522353 
L 309.396025 180.36926 
L 310.906047 188.827836 
L 312.416068 196.59284 
L 313.926089 195.547841 
L 315.43611 206.896305 
L 316.946131 199.719331 
L 318.456152 196.743165 
L 319.966173 199.410991 
L 321.476195 192.105857 
L 322.986216 188.77369 
L 324.496237 181.635816 
L 326.006258 177.949073 
L 327.516279 181.024919 
L 329.0263 176.96529 
L 330.536321 181.232552 
L 332.046342 207.870167 
L 333.556364 209.049241 
L 335.066385 196.716282 
L 336.576406 189.352893 
L 338.086427 191.403457 
L 339.596448 186.277047 
L 341.106469 182.619394 
L 342.61649 198.39928 
L 344.126512 192.333028 
L 345.636533 193.335741 
L 347.146554 197.60775 
L 348.656575 203.204081 
L 350.166596 197.548277 
L 351.676617 204.10405 
L 353.186638 199.248334 
L 354.69666 193.609283 
L 356.206681 194.378245 
L 357.716702 197.582251 
L 359.226723 196.642409 
L 360.736744 198.716275 
L 362.246765 205.893249 
L 363.756786 227.08241 
L 365.266808 238.759233 
L 366.776829 283.160934 
L 368.28685 295.488 
L 369.796871 273.188116 
L 371.306892 254.693607 
L 372.816913 249.519136 
L 374.326934 245.930649 
L 375.836956 248.493854 
L 377.346977 236.882536 
L 378.856998 241.744488 
L 380.367019 243.965932 
L 381.87704 236.337933 
L 383.387061 230.665619 
L 384.897082 236.817311 
L 386.407104 232.818711 
L 387.917125 227.515187 
L 389.427146 233.68037 
L 392.447188 230.83515 
L 393.957209 225.888309 
L 395.46723 222.707678 
L 396.977252 242.700677 
L 398.487273 248.591023 
L 398.487273 248.591023 
" clip-path="url(#p93e73954fd)" style="fill: none; stroke: #1f77b4; stroke-opacity: 0.7; stroke-width: 1.5; stroke-linecap: square"/>
   </g>
   <g id="line2d_12">
    <path d="M 73.832727 91.484772 
L 75.342748 99.407405 
L 76.85277 98.980205 
L 78.362791 98.980205 
L 79.872812 96.733631 
L 81.382833 92.760663 
L 82.892854 92.926031 
L 84.402875 91.046347 
L 85.912896 97.556888 
L 87.422918 110.272216 
L 88.932939 129.709854 
L 90.44296 121.507598 
L 91.952981 107.53813 
L 93.463002 94.636665 
L 94.973023 97.189617 
L 96.483044 96.071775 
L 97.993066 95.113946 
L 99.503087 98.860169 
L 101.013108 101.901377 
L 102.523129 104.208261 
L 104.03315 101.815937 
L 105.543171 102.200417 
L 107.053192 98.091279 
L 108.563214 95.140746 
L 110.073235 94.628105 
L 111.583256 98.216592 
L 113.093277 100.331236 
L 114.603298 96.486428 
L 116.113319 93.21661 
L 117.62334 89.097805 
L 119.133362 86.711694 
L 120.643383 84.68249 
L 122.153404 79.148297 
L 123.663425 74.809835 
L 125.173446 75.514717 
L 126.683467 73.704453 
L 128.193488 87.033119 
L 129.70351 89.481896 
L 131.213531 79.998037 
L 132.723552 84.227325 
L 134.233573 84.768446 
L 135.743594 82.770193 
L 137.253615 81.23227 
L 138.763636 82.001231 
L 140.273658 80.053195 
L 141.783679 80.117275 
L 143.2937 82.747518 
L 144.803721 85.914144 
L 146.313742 88.407444 
L 147.823763 92.252251 
L 149.333784 96.745399 
L 150.843805 98.027001 
L 152.353827 99.76321 
L 153.863848 93.483358 
L 155.373869 93.654238 
L 156.88389 90.973553 
L 158.393911 85.049701 
L 161.413953 98.18689 
L 162.923975 94.342082 
L 164.433996 87.293268 
L 165.944017 79.518213 
L 168.964059 70.901572 
L 170.47408 64.855664 
L 171.984101 66.441647 
L 173.494123 61.674085 
L 175.004144 63.98097 
L 176.514165 62.186726 
L 178.024186 60.892466 
L 179.534207 57.755103 
L 181.044228 60.135222 
L 182.554249 65.218912 
L 184.064271 64.15803 
L 185.574292 71.270924 
L 187.084313 73.800402 
L 188.594334 70.211915 
L 190.104355 65.085505 
L 191.614376 64.117823 
L 193.124397 60.178582 
L 194.634419 55.503784 
L 196.14444 58.381189 
L 197.654461 55.465543 
L 200.674503 66.316021 
L 202.184524 66.999543 
L 203.694545 69.819068 
L 205.204567 67.567109 
L 206.714588 59.685254 
L 208.224609 56.609408 
L 209.73463 54.610108 
L 211.244651 59.015919 
L 212.754672 66.726894 
L 214.264693 63.184179 
L 215.774715 66.131864 
L 217.284736 63.778376 
L 218.794757 55.44796 
L 220.304778 60.83069 
L 221.814799 55.25079 
L 223.32482 61.347556 
L 224.834841 60.118726 
L 226.344863 62.681931 
L 227.854884 59.093444 
L 229.364905 57.2992 
L 230.874926 56.701119 
L 232.384947 55.728416 
L 233.894968 53.568 
L 235.404989 58.63254 
L 236.915011 77.619974 
L 238.425032 70.49996 
L 239.935053 68.155695 
L 241.445074 66.516688 
L 242.955095 66.72858 
L 244.465116 58.822078 
L 245.975137 74.243035 
L 247.485159 71.083492 
L 248.99518 81.336312 
L 250.505201 72.033386 
L 252.015222 77.304267 
L 253.525243 79.374548 
L 255.035264 92.959535 
L 256.545285 85.404183 
L 258.055307 87.967388 
L 259.565328 81.997968 
L 261.075349 84.304853 
L 262.58537 77.153511 
L 264.095391 78.851634 
L 265.605412 90.710729 
L 267.115433 84.122447 
L 268.625455 83.215761 
L 270.135476 85.650806 
L 271.645497 95.956398 
L 273.155518 93.231932 
L 274.665539 102.203149 
L 276.17556 100.597774 
L 277.685581 105.138999 
L 279.195603 107.642595 
L 280.705624 98.671377 
L 282.215645 105.27875 
L 283.725666 111.073037 
L 285.235687 129.912594 
L 286.745708 140.411876 
L 288.255729 137.07971 
L 289.765751 134.900985 
L 291.275772 126.271529 
L 292.785793 131.333858 
L 294.295814 155.211099 
L 295.805835 155.085269 
L 297.315856 150.22114 
L 298.825877 144.478895 
L 300.335899 137.850328 
L 301.84592 132.270886 
L 303.355941 131.004619 
L 304.865962 138.17106 
L 306.375983 144.397512 
L 307.886004 137.733179 
L 309.396025 131.837807 
L 312.416068 153.298793 
L 313.926089 154.874534 
L 315.43611 161.282547 
L 316.946131 160.257265 
L 318.456152 152.82397 
L 319.966173 156.103105 
L 321.476195 151.778827 
L 322.986216 151.778827 
L 324.496237 146.596769 
L 326.006258 143.82195 
L 327.516279 144.175172 
L 329.0263 139.66583 
L 330.536321 145.093138 
L 332.046342 170.797188 
L 333.556364 173.419252 
L 335.066385 162.773869 
L 336.576406 160.082504 
L 338.086427 155.178756 
L 339.596448 144.563552 
L 341.106469 140.105804 
L 342.61649 155.731911 
L 344.126512 149.852395 
L 345.636533 155.747766 
L 347.146554 165.872426 
L 348.656575 170.983533 
L 350.166596 158.680149 
L 351.676617 164.991176 
L 353.186638 160.069571 
L 354.69666 155.999462 
L 356.206681 156.768424 
L 357.716702 156.358038 
L 359.226723 151.546351 
L 360.736744 154.920244 
L 362.246765 161.18246 
L 363.756786 184.398482 
L 365.266808 197.469185 
L 366.776829 242.581593 
L 368.28685 252.786353 
L 369.796871 230.486469 
L 371.306892 210.310886 
L 372.816913 197.687101 
L 374.326934 182.649632 
L 375.836956 171.75601 
L 377.346977 164.152735 
L 378.856998 177.481401 
L 380.367019 173.425176 
L 381.87704 164.141372 
L 383.387061 158.838424 
L 384.897082 160.006106 
L 386.407104 156.634067 
L 387.917125 151.213406 
L 389.427146 157.849259 
L 390.937167 157.446756 
L 392.447188 155.652512 
L 393.957209 151.423224 
L 395.46723 146.724015 
L 396.977252 162.956922 
L 398.487273 168.929383 
L 398.487273 168.929383 
" clip-path="url(#p93e73954fd)" style="fill: none; stroke: #ff7f0e; stroke-opacity: 0.7; stroke-width: 1.5; stroke-linecap: square"/>
   </g>
   <g id="line2d_13">
    <path d="M 73.832727 91.920517 
L 75.342748 99.534401 
L 76.85277 99.1072 
L 78.362791 98.87874 
L 79.872812 96.990764 
L 81.382833 93.623456 
L 82.892854 93.778231 
L 84.402875 91.898547 
L 85.912896 97.996645 
L 87.422918 110.728595 
L 88.932939 130.997896 
L 90.44296 124.686004 
L 91.952981 114.717539 
L 93.463002 101.91372 
L 94.973023 103.654777 
L 96.483044 102.157956 
L 97.993066 103.345125 
L 99.503087 108.857987 
L 101.013108 112.642756 
L 102.523129 114.565159 
L 104.03315 110.164991 
L 105.543171 111.526303 
L 107.053192 106.524048 
L 108.563214 103.2199 
L 110.073235 102.707259 
L 111.583256 103.86824 
L 113.093277 105.566363 
L 114.603298 102.618677 
L 116.113319 99.192576 
L 117.62334 96.876853 
L 119.133362 94.046842 
L 120.643383 91.476008 
L 122.153404 85.666499 
L 123.663425 83.283667 
L 125.173446 84.148749 
L 126.683467 83.243617 
L 128.193488 95.044696 
L 129.70351 97.519751 
L 131.213531 89.2388 
L 132.723552 92.35266 
L 134.233573 91.085298 
L 137.253615 86.625844 
L 138.763636 86.505007 
L 140.273658 85.018348 
L 141.783679 85.81935 
L 143.2937 88.860865 
L 144.803721 92.520374 
L 146.313742 94.801593 
L 149.333784 104.423849 
L 150.843805 108.060396 
L 152.353827 109.960805 
L 153.863848 105.527071 
L 155.373869 106.14224 
L 156.88389 102.938645 
L 158.393911 96.599319 
L 161.413953 109.333391 
L 162.923975 108.663462 
L 164.433996 103.664358 
L 165.944017 96.456315 
L 167.454038 91.692463 
L 168.964059 89.530827 
L 170.47408 85.610751 
L 171.984101 87.240157 
L 173.494123 82.472596 
L 175.004144 85.133314 
L 176.514165 82.589333 
L 178.024186 81.327033 
L 179.534207 77.873922 
L 181.044228 79.177064 
L 182.554249 83.396777 
L 184.064271 82.658838 
L 185.574292 88.894248 
L 187.084313 91.503306 
L 188.594334 89.212853 
L 190.104355 84.304315 
L 191.614376 83.267435 
L 193.124397 79.11909 
L 194.634419 74.371566 
L 196.14444 79.398755 
L 197.654461 76.349609 
L 199.164482 82.015149 
L 200.674503 88.164705 
L 202.184524 88.875567 
L 203.694545 93.333009 
L 205.204567 91.327227 
L 206.714588 84.807401 
L 208.224609 81.586678 
L 209.73463 80.971509 
L 211.244651 86.826982 
L 212.754672 95.232158 
L 214.264693 91.630957 
L 215.774715 95.551495 
L 217.284736 93.313351 
L 218.794757 85.802486 
L 220.304778 87.85305 
L 221.814799 82.884376 
L 223.32482 88.793127 
L 224.834841 87.422225 
L 226.344863 89.350201 
L 229.364905 82.145459 
L 230.874926 81.169901 
L 232.384947 81.708831 
L 233.894968 79.325316 
L 235.404989 84.150001 
L 236.915011 103.717113 
L 238.425032 96.613746 
L 239.935053 94.192052 
L 241.445074 93.885189 
L 242.955095 95.144577 
L 244.465116 87.730999 
L 245.975137 103.225251 
L 247.485159 98.313314 
L 248.99518 106.949983 
L 250.505201 97.834271 
L 252.015222 103.080977 
L 253.525243 102.578194 
L 255.035264 115.394219 
L 256.545285 107.803776 
L 258.055307 106.911231 
L 259.565328 103.0294 
L 261.075349 102.388599 
L 262.58537 94.920903 
L 264.095391 96.431821 
L 265.605412 108.528595 
L 267.115433 96.006916 
L 268.625455 95.018962 
L 270.135476 96.108324 
L 271.645497 106.964251 
L 273.155518 104.11616 
L 274.665539 111.717049 
L 276.17556 110.395894 
L 277.685581 114.82335 
L 279.195603 117.296271 
L 280.705624 109.546847 
L 282.215645 116.669127 
L 283.725666 122.456106 
L 285.235687 142.370318 
L 286.745708 153.638562 
L 288.255729 156.279054 
L 289.765751 154.933371 
L 291.275772 151.017578 
L 292.785793 159.591122 
L 294.295814 180.56504 
L 295.805835 180.634054 
L 298.825877 169.031079 
L 300.335899 161.869985 
L 301.84592 156.830559 
L 303.355941 157.479028 
L 304.865962 164.755594 
L 306.375983 167.484339 
L 307.886004 160.627766 
L 309.396025 156.103533 
L 312.416068 174.945816 
L 313.926089 175.211187 
L 315.43611 184.089426 
L 316.946131 179.988298 
L 318.456152 174.783568 
L 319.966173 177.757048 
L 321.476195 171.942342 
L 322.986216 170.276259 
L 324.496237 164.116292 
L 326.006258 160.885511 
L 327.516279 162.600045 
L 329.0263 158.31556 
L 330.536321 163.162845 
L 332.046342 189.333678 
L 333.556364 191.234247 
L 335.066385 179.745075 
L 336.576406 174.717698 
L 338.086427 173.291107 
L 339.596448 165.420299 
L 341.106469 161.362599 
L 342.61649 177.065596 
L 344.126512 171.092712 
L 345.636533 174.541754 
L 347.146554 181.740088 
L 348.656575 187.093807 
L 350.166596 178.114213 
L 351.676617 184.547613 
L 354.69666 174.804373 
L 356.206681 175.573334 
L 357.716702 176.970145 
L 359.226723 174.09438 
L 360.736744 176.818259 
L 362.246765 183.537854 
L 363.756786 205.740446 
L 365.266808 218.114209 
L 366.776829 262.871263 
L 368.28685 274.137176 
L 369.796871 251.837293 
L 371.306892 232.502246 
L 374.326934 214.290141 
L 375.836956 210.124932 
L 377.346977 200.517635 
L 378.856998 209.612944 
L 380.367019 208.695554 
L 381.87704 200.239653 
L 383.387061 194.752021 
L 384.897082 198.411708 
L 386.407104 194.726389 
L 387.917125 189.364296 
L 389.427146 195.764814 
L 390.937167 194.871185 
L 392.447188 193.243831 
L 393.957209 188.655767 
L 395.46723 184.715846 
L 396.977252 202.8288 
L 398.487273 208.760203 
L 398.487273 208.760203 
" clip-path="url(#p93e73954fd)" style="fill: none; stroke: #2ca02c; stroke-opacity: 0.7; stroke-width: 1.5; stroke-linecap: square"/>
   </g>
   <g id="patch_3">
    <path d="M 57.6 307.584 
L 57.6 41.472 
" style="fill: none; stroke: #000000; stroke-width: 0.8; stroke-linejoin: miter; stroke-linecap: square"/>
   </g>
   <g id="patch_4">
    <path d="M 414.72 307.584 
L 414.72 41.472 
" style="fill: none; stroke: #000000; stroke-width: 0.8; stroke-linejoin: miter; stroke-linecap: square"/>
   </g>
   <g id="patch_5">
    <path d="M 57.6 307.584 
L 414.72 307.584 
" style="fill: none; stroke: #000000; stroke-width: 0.8; stroke-linejoin: miter; stroke-linecap: square"/>
   </g>
   <g id="patch_6">
    <path d="M 57.6 41.472 
L 414.72 41.472 
" style="fill: none; stroke: #000000; stroke-width: 0.8; stroke-linejoin: miter; stroke-linecap: square"/>
   </g>
   <g id="text_11">
    <!-- 1final_zhang_pr_cci -->
    <g transform="translate(177.636562 35.472) scale(0.12 -0.12)">
     <defs>
      <path id="DejaVuSans-66" d="M 2375 4863 
L 2375 4384 
L 1825 4384 
Q 1516 4384 1395 4259 
Q 1275 4134 1275 3809 
L 1275 3500 
L 2222 3500 
L 2222 3053 
L 1275 3053 
L 1275 0 
L 697 0 
L 697 3053 
L 147 3053 
L 147 3500 
L 697 3500 
L 697 3744 
Q 697 4328 969 4595 
Q 1241 4863 1831 4863 
L 2375 4863 
z
" transform="scale(0.015625)"/>
      <path id="DejaVuSans-69" d="M 603 3500 
L 1178 3500 
L 1178 0 
L 603 0 
L 603 3500 
z
M 603 4863 
L 1178 4863 
L 1178 4134 
L 603 4134 
L 603 4863 
z
" transform="scale(0.015625)"/>
      <path id="DejaVuSans-6e" d="M 3513 2113 
L 3513 0 
L 2938 0 
L 2938 2094 
Q 2938 2591 2744 2837 
Q 2550 3084 2163 3084 
Q 1697 3084 1428 2787 
Q 1159 2491 1159 1978 
L 1159 0 
L 581 0 
L 581 3500 
L 1159 3500 
L 1159 2956 
Q 1366 3272 1645 3428 
Q 1925 3584 2291 3584 
Q 2894 3584 3203 3211 
Q 3513 2838 3513 2113 
z
" transform="scale(0.015625)"/>
      <path id="DejaVuSans-61" d="M 2194 1759 
Q 1497 1759 1228 1600 
Q 959 1441 959 1056 
Q 959 750 1161 570 
Q 1363 391 1709 391 
Q 2188 391 2477 730 
Q 2766 1069 2766 1631 
L 2766 1759 
L 2194 1759 
z
M 3341 1997 
L 3341 0 
L 2766 0 
L 2766 531 
Q 2569 213 2275 61 
Q 1981 -91 1556 -91 
Q 1019 -91 701 211 
Q 384 513 384 1019 
Q 384 1609 779 1909 
Q 1175 2209 1959 2209 
L 2766 2209 
L 2766 2266 
Q 2766 2663 2505 2880 
Q 2244 3097 1772 3097 
Q 1472 3097 1187 3025 
Q 903 2953 641 2809 
L 641 3341 
Q 956 3463 1253 3523 
Q 1550 3584 1831 3584 
Q 2591 3584 2966 3190 
Q 3341 2797 3341 1997 
z
" transform="scale(0.015625)"/>
      <path id="DejaVuSans-6c" d="M 603 4863 
L 1178 4863 
L 1178 0 
L 603 0 
L 603 4863 
z
" transform="scale(0.015625)"/>
      <path id="DejaVuSans-5f" d="M 3263 -1063 
L 3263 -1509 
L -63 -1509 
L -63 -1063 
L 3263 -1063 
z
" transform="scale(0.015625)"/>
      <path id="DejaVuSans-7a" d="M 353 3500 
L 3084 3500 
L 3084 2975 
L 922 459 
L 3084 459 
L 3084 0 
L 275 0 
L 275 525 
L 2438 3041 
L 353 3041 
L 353 3500 
z
" transform="scale(0.015625)"/>
      <path id="DejaVuSans-68" d="M 3513 2113 
L 3513 0 
L 2938 0 
L 2938 2094 
Q 2938 2591 2744 2837 
Q 2550 3084 2163 3084 
Q 1697 3084 1428 2787 
Q 1159 2491 1159 1978 
L 1159 0 
L 581 0 
L 581 4863 
L 1159 4863 
L 1159 2956 
Q 1366 3272 1645 3428 
Q 1925 3584 2291 3584 
Q 2894 3584 3203 3211 
Q 3513 2838 3513 2113 
z
" transform="scale(0.015625)"/>
      <path id="DejaVuSans-67" d="M 2906 1791 
Q 2906 2416 2648 2759 
Q 2391 3103 1925 3103 
Q 1463 3103 1205 2759 
Q 947 2416 947 1791 
Q 947 1169 1205 825 
Q 1463 481 1925 481 
Q 2391 481 2648 825 
Q 2906 1169 2906 1791 
z
M 3481 434 
Q 3481 -459 3084 -895 
Q 2688 -1331 1869 -1331 
Q 1566 -1331 1297 -1286 
Q 1028 -1241 775 -1147 
L 775 -588 
Q 1028 -725 1275 -790 
Q 1522 -856 1778 -856 
Q 2344 -856 2625 -561 
Q 2906 -266 2906 331 
L 2906 616 
Q 2728 306 2450 153 
Q 2172 0 1784 0 
Q 1141 0 747 490 
Q 353 981 353 1791 
Q 353 2603 747 3093 
Q 1141 3584 1784 3584 
Q 2172 3584 2450 3431 
Q 2728 3278 2906 2969 
L 2906 3500 
L 3481 3500 
L 3481 434 
z
" transform="scale(0.015625)"/>
      <path id="DejaVuSans-70" d="M 1159 525 
L 1159 -1331 
L 581 -1331 
L 581 3500 
L 1159 3500 
L 1159 2969 
Q 1341 3281 1617 3432 
Q 1894 3584 2278 3584 
Q 2916 3584 3314 3078 
Q 3713 2572 3713 1747 
Q 3713 922 3314 415 
Q 2916 -91 2278 -91 
Q 1894 -91 1617 61 
Q 1341 213 1159 525 
z
M 3116 1747 
Q 3116 2381 2855 2742 
Q 2594 3103 2138 3103 
Q 1681 3103 1420 2742 
Q 1159 2381 1159 1747 
Q 1159 1113 1420 752 
Q 1681 391 2138 391 
Q 2594 391 2855 752 
Q 3116 1113 3116 1747 
z
" transform="scale(0.015625)"/>
      <path id="DejaVuSans-72" d="M 2631 2963 
Q 2534 3019 2420 3045 
Q 2306 3072 2169 3072 
Q 1681 3072 1420 2755 
Q 1159 2438 1159 1844 
L 1159 0 
L 581 0 
L 581 3500 
L 1159 3500 
L 1159 2956 
Q 1341 3275 1631 3429 
Q 1922 3584 2338 3584 
Q 2397 3584 2469 3576 
Q 2541 3569 2628 3553 
L 2631 2963 
z
" transform="scale(0.015625)"/>
      <path id="DejaVuSans-63" d="M 3122 3366 
L 3122 2828 
Q 2878 2963 2633 3030 
Q 2388 3097 2138 3097 
Q 1578 3097 1268 2742 
Q 959 2388 959 1747 
Q 959 1106 1268 751 
Q 1578 397 2138 397 
Q 2388 397 2633 464 
Q 2878 531 3122 666 
L 3122 134 
Q 2881 22 2623 -34 
Q 2366 -91 2075 -91 
Q 1284 -91 818 406 
Q 353 903 353 1747 
Q 353 2603 823 3093 
Q 1294 3584 2113 3584 
Q 2378 3584 2631 3529 
Q 2884 3475 3122 3366 
z
" transform="scale(0.015625)"/>
     </defs>
     <use xlink:href="#DejaVuSans-31"/>
     <use xlink:href="#DejaVuSans-66" x="63.623047"/>
     <use xlink:href="#DejaVuSans-69" x="98.828125"/>
     <use xlink:href="#DejaVuSans-6e" x="126.611328"/>
     <use xlink:href="#DejaVuSans-61" x="189.990234"/>
     <use xlink:href="#DejaVuSans-6c" x="251.269531"/>
     <use xlink:href="#DejaVuSans-5f" x="279.052734"/>
     <use xlink:href="#DejaVuSans-7a" x="329.052734"/>
     <use xlink:href="#DejaVuSans-68" x="381.542969"/>
     <use xlink:href="#DejaVuSans-61" x="444.921875"/>
     <use xlink:href="#DejaVuSans-6e" x="506.201172"/>
     <use xlink:href="#DejaVuSans-67" x="569.580078"/>
     <use xlink:href="#DejaVuSans-5f" x="633.056641"/>
     <use xlink:href="#DejaVuSans-70" x="683.056641"/>
     <use xlink:href="#DejaVuSans-72" x="746.533203"/>
     <use xlink:href="#DejaVuSans-5f" x="787.646484"/>
     <use xlink:href="#DejaVuSans-63" x="837.646484"/>
     <use xlink:href="#DejaVuSans-63" x="892.626953"/>
     <use xlink:href="#DejaVuSans-69" x="947.607422"/>
    </g>
   </g>
   <g id="legend_1">
    <g id="patch_7">
     <path d="M 64.6 302.584 
L 258.804688 302.584 
Q 260.804688 302.584 260.804688 300.584 
L 260.804688 257.549625 
Q 260.804688 255.549625 258.804688 255.549625 
L 64.6 255.549625 
Q 62.6 255.549625 62.6 257.549625 
L 62.6 300.584 
Q 62.6 302.584 64.6 302.584 
z
" style="fill: #ffffff; opacity: 0.8; stroke: #cccccc; stroke-linejoin: miter"/>
    </g>
    <g id="line2d_14">
     <path d="M 66.6 263.648062 
L 76.6 263.648062 
L 86.6 263.648062 
" style="fill: none; stroke: #1f77b4; stroke-opacity: 0.7; stroke-width: 1.5; stroke-linecap: square"/>
    </g>
    <g id="text_12">
     <!-- Positive cumulative predictions -->
     <g transform="translate(94.6 267.148062) scale(0.1 -0.1)">
      <defs>
       <path id="DejaVuSans-50" d="M 1259 4147 
L 1259 2394 
L 2053 2394 
Q 2494 2394 2734 2622 
Q 2975 2850 2975 3272 
Q 2975 3691 2734 3919 
Q 2494 4147 2053 4147 
L 1259 4147 
z
M 628 4666 
L 2053 4666 
Q 2838 4666 3239 4311 
Q 3641 3956 3641 3272 
Q 3641 2581 3239 2228 
Q 2838 1875 2053 1875 
L 1259 1875 
L 1259 0 
L 628 0 
L 628 4666 
z
" transform="scale(0.015625)"/>
       <path id="DejaVuSans-6f" d="M 1959 3097 
Q 1497 3097 1228 2736 
Q 959 2375 959 1747 
Q 959 1119 1226 758 
Q 1494 397 1959 397 
Q 2419 397 2687 759 
Q 2956 1122 2956 1747 
Q 2956 2369 2687 2733 
Q 2419 3097 1959 3097 
z
M 1959 3584 
Q 2709 3584 3137 3096 
Q 3566 2609 3566 1747 
Q 3566 888 3137 398 
Q 2709 -91 1959 -91 
Q 1206 -91 779 398 
Q 353 888 353 1747 
Q 353 2609 779 3096 
Q 1206 3584 1959 3584 
z
" transform="scale(0.015625)"/>
       <path id="DejaVuSans-73" d="M 2834 3397 
L 2834 2853 
Q 2591 2978 2328 3040 
Q 2066 3103 1784 3103 
Q 1356 3103 1142 2972 
Q 928 2841 928 2578 
Q 928 2378 1081 2264 
Q 1234 2150 1697 2047 
L 1894 2003 
Q 2506 1872 2764 1633 
Q 3022 1394 3022 966 
Q 3022 478 2636 193 
Q 2250 -91 1575 -91 
Q 1294 -91 989 -36 
Q 684 19 347 128 
L 347 722 
Q 666 556 975 473 
Q 1284 391 1588 391 
Q 1994 391 2212 530 
Q 2431 669 2431 922 
Q 2431 1156 2273 1281 
Q 2116 1406 1581 1522 
L 1381 1569 
Q 847 1681 609 1914 
Q 372 2147 372 2553 
Q 372 3047 722 3315 
Q 1072 3584 1716 3584 
Q 2034 3584 2315 3537 
Q 2597 3491 2834 3397 
z
" transform="scale(0.015625)"/>
       <path id="DejaVuSans-74" d="M 1172 4494 
L 1172 3500 
L 2356 3500 
L 2356 3053 
L 1172 3053 
L 1172 1153 
Q 1172 725 1289 603 
Q 1406 481 1766 481 
L 2356 481 
L 2356 0 
L 1766 0 
Q 1100 0 847 248 
Q 594 497 594 1153 
L 594 3053 
L 172 3053 
L 172 3500 
L 594 3500 
L 594 4494 
L 1172 4494 
z
" transform="scale(0.015625)"/>
       <path id="DejaVuSans-76" d="M 191 3500 
L 800 3500 
L 1894 563 
L 2988 3500 
L 3597 3500 
L 2284 0 
L 1503 0 
L 191 3500 
z
" transform="scale(0.015625)"/>
       <path id="DejaVuSans-65" d="M 3597 1894 
L 3597 1613 
L 953 1613 
Q 991 1019 1311 708 
Q 1631 397 2203 397 
Q 2534 397 2845 478 
Q 3156 559 3463 722 
L 3463 178 
Q 3153 47 2828 -22 
Q 2503 -91 2169 -91 
Q 1331 -91 842 396 
Q 353 884 353 1716 
Q 353 2575 817 3079 
Q 1281 3584 2069 3584 
Q 2775 3584 3186 3129 
Q 3597 2675 3597 1894 
z
M 3022 2063 
Q 3016 2534 2758 2815 
Q 2500 3097 2075 3097 
Q 1594 3097 1305 2825 
Q 1016 2553 972 2059 
L 3022 2063 
z
" transform="scale(0.015625)"/>
       <path id="DejaVuSans-20" transform="scale(0.015625)"/>
       <path id="DejaVuSans-75" d="M 544 1381 
L 544 3500 
L 1119 3500 
L 1119 1403 
Q 1119 906 1312 657 
Q 1506 409 1894 409 
Q 2359 409 2629 706 
Q 2900 1003 2900 1516 
L 2900 3500 
L 3475 3500 
L 3475 0 
L 2900 0 
L 2900 538 
Q 2691 219 2414 64 
Q 2138 -91 1772 -91 
Q 1169 -91 856 284 
Q 544 659 544 1381 
z
M 1991 3584 
L 1991 3584 
z
" transform="scale(0.015625)"/>
       <path id="DejaVuSans-6d" d="M 3328 2828 
Q 3544 3216 3844 3400 
Q 4144 3584 4550 3584 
Q 5097 3584 5394 3201 
Q 5691 2819 5691 2113 
L 5691 0 
L 5113 0 
L 5113 2094 
Q 5113 2597 4934 2840 
Q 4756 3084 4391 3084 
Q 3944 3084 3684 2787 
Q 3425 2491 3425 1978 
L 3425 0 
L 2847 0 
L 2847 2094 
Q 2847 2600 2669 2842 
Q 2491 3084 2119 3084 
Q 1678 3084 1418 2786 
Q 1159 2488 1159 1978 
L 1159 0 
L 581 0 
L 581 3500 
L 1159 3500 
L 1159 2956 
Q 1356 3278 1631 3431 
Q 1906 3584 2284 3584 
Q 2666 3584 2933 3390 
Q 3200 3197 3328 2828 
z
" transform="scale(0.015625)"/>
       <path id="DejaVuSans-64" d="M 2906 2969 
L 2906 4863 
L 3481 4863 
L 3481 0 
L 2906 0 
L 2906 525 
Q 2725 213 2448 61 
Q 2172 -91 1784 -91 
Q 1150 -91 751 415 
Q 353 922 353 1747 
Q 353 2572 751 3078 
Q 1150 3584 1784 3584 
Q 2172 3584 2448 3432 
Q 2725 3281 2906 2969 
z
M 947 1747 
Q 947 1113 1208 752 
Q 1469 391 1925 391 
Q 2381 391 2643 752 
Q 2906 1113 2906 1747 
Q 2906 2381 2643 2742 
Q 2381 3103 1925 3103 
Q 1469 3103 1208 2742 
Q 947 2381 947 1747 
z
" transform="scale(0.015625)"/>
      </defs>
      <use xlink:href="#DejaVuSans-50"/>
      <use xlink:href="#DejaVuSans-6f" x="56.677734"/>
      <use xlink:href="#DejaVuSans-73" x="117.859375"/>
      <use xlink:href="#DejaVuSans-69" x="169.958984"/>
      <use xlink:href="#DejaVuSans-74" x="197.742188"/>
      <use xlink:href="#DejaVuSans-69" x="236.951172"/>
      <use xlink:href="#DejaVuSans-76" x="264.734375"/>
      <use xlink:href="#DejaVuSans-65" x="323.914062"/>
      <use xlink:href="#DejaVuSans-20" x="385.4375"/>
      <use xlink:href="#DejaVuSans-63" x="417.224609"/>
      <use xlink:href="#DejaVuSans-75" x="472.205078"/>
      <use xlink:href="#DejaVuSans-6d" x="535.583984"/>
      <use xlink:href="#DejaVuSans-75" x="632.996094"/>
      <use xlink:href="#DejaVuSans-6c" x="696.375"/>
      <use xlink:href="#DejaVuSans-61" x="724.158203"/>
      <use xlink:href="#DejaVuSans-74" x="785.4375"/>
      <use xlink:href="#DejaVuSans-69" x="824.646484"/>
      <use xlink:href="#DejaVuSans-76" x="852.429688"/>
      <use xlink:href="#DejaVuSans-65" x="911.609375"/>
      <use xlink:href="#DejaVuSans-20" x="973.132812"/>
      <use xlink:href="#DejaVuSans-70" x="1004.919922"/>
      <use xlink:href="#DejaVuSans-72" x="1068.396484"/>
      <use xlink:href="#DejaVuSans-65" x="1107.259766"/>
      <use xlink:href="#DejaVuSans-64" x="1168.783203"/>
      <use xlink:href="#DejaVuSans-69" x="1232.259766"/>
      <use xlink:href="#DejaVuSans-63" x="1260.042969"/>
      <use xlink:href="#DejaVuSans-74" x="1315.023438"/>
      <use xlink:href="#DejaVuSans-69" x="1354.232422"/>
      <use xlink:href="#DejaVuSans-6f" x="1382.015625"/>
      <use xlink:href="#DejaVuSans-6e" x="1443.197266"/>
      <use xlink:href="#DejaVuSans-73" x="1506.576172"/>
     </g>
    </g>
    <g id="line2d_15">
     <path d="M 66.6 278.326188 
L 76.6 278.326188 
L 86.6 278.326188 
" style="fill: none; stroke: #ff7f0e; stroke-opacity: 0.7; stroke-width: 1.5; stroke-linecap: square"/>
    </g>
    <g id="text_13">
     <!-- Negative cumulative predictions -->
     <g transform="translate(94.6 281.826188) scale(0.1 -0.1)">
      <defs>
       <path id="DejaVuSans-4e" d="M 628 4666 
L 1478 4666 
L 3547 763 
L 3547 4666 
L 4159 4666 
L 4159 0 
L 3309 0 
L 1241 3903 
L 1241 0 
L 628 0 
L 628 4666 
z
" transform="scale(0.015625)"/>
      </defs>
      <use xlink:href="#DejaVuSans-4e"/>
      <use xlink:href="#DejaVuSans-65" x="74.804688"/>
      <use xlink:href="#DejaVuSans-67" x="136.328125"/>
      <use xlink:href="#DejaVuSans-61" x="199.804688"/>
      <use xlink:href="#DejaVuSans-74" x="261.083984"/>
      <use xlink:href="#DejaVuSans-69" x="300.292969"/>
      <use xlink:href="#DejaVuSans-76" x="328.076172"/>
      <use xlink:href="#DejaVuSans-65" x="387.255859"/>
      <use xlink:href="#DejaVuSans-20" x="448.779297"/>
      <use xlink:href="#DejaVuSans-63" x="480.566406"/>
      <use xlink:href="#DejaVuSans-75" x="535.546875"/>
      <use xlink:href="#DejaVuSans-6d" x="598.925781"/>
      <use xlink:href="#DejaVuSans-75" x="696.337891"/>
      <use xlink:href="#DejaVuSans-6c" x="759.716797"/>
      <use xlink:href="#DejaVuSans-61" x="787.5"/>
      <use xlink:href="#DejaVuSans-74" x="848.779297"/>
      <use xlink:href="#DejaVuSans-69" x="887.988281"/>
      <use xlink:href="#DejaVuSans-76" x="915.771484"/>
      <use xlink:href="#DejaVuSans-65" x="974.951172"/>
      <use xlink:href="#DejaVuSans-20" x="1036.474609"/>
      <use xlink:href="#DejaVuSans-70" x="1068.261719"/>
      <use xlink:href="#DejaVuSans-72" x="1131.738281"/>
      <use xlink:href="#DejaVuSans-65" x="1170.601562"/>
      <use xlink:href="#DejaVuSans-64" x="1232.125"/>
      <use xlink:href="#DejaVuSans-69" x="1295.601562"/>
      <use xlink:href="#DejaVuSans-63" x="1323.384766"/>
      <use xlink:href="#DejaVuSans-74" x="1378.365234"/>
      <use xlink:href="#DejaVuSans-69" x="1417.574219"/>
      <use xlink:href="#DejaVuSans-6f" x="1445.357422"/>
      <use xlink:href="#DejaVuSans-6e" x="1506.539062"/>
      <use xlink:href="#DejaVuSans-73" x="1569.917969"/>
     </g>
    </g>
    <g id="line2d_16">
     <path d="M 66.6 293.004312 
L 76.6 293.004312 
L 86.6 293.004312 
" style="fill: none; stroke: #2ca02c; stroke-opacity: 0.7; stroke-width: 1.5; stroke-linecap: square"/>
    </g>
    <g id="text_14">
     <!-- Average cumulative predictions -->
     <g transform="translate(94.6 296.504312) scale(0.1 -0.1)">
      <defs>
       <path id="DejaVuSans-41" d="M 2188 4044 
L 1331 1722 
L 3047 1722 
L 2188 4044 
z
M 1831 4666 
L 2547 4666 
L 4325 0 
L 3669 0 
L 3244 1197 
L 1141 1197 
L 716 0 
L 50 0 
L 1831 4666 
z
" transform="scale(0.015625)"/>
      </defs>
      <use xlink:href="#DejaVuSans-41"/>
      <use xlink:href="#DejaVuSans-76" x="62.533203"/>
      <use xlink:href="#DejaVuSans-65" x="121.712891"/>
      <use xlink:href="#DejaVuSans-72" x="183.236328"/>
      <use xlink:href="#DejaVuSans-61" x="224.349609"/>
      <use xlink:href="#DejaVuSans-67" x="285.628906"/>
      <use xlink:href="#DejaVuSans-65" x="349.105469"/>
      <use xlink:href="#DejaVuSans-20" x="410.628906"/>
      <use xlink:href="#DejaVuSans-63" x="442.416016"/>
      <use xlink:href="#DejaVuSans-75" x="497.396484"/>
      <use xlink:href="#DejaVuSans-6d" x="560.775391"/>
      <use xlink:href="#DejaVuSans-75" x="658.1875"/>
      <use xlink:href="#DejaVuSans-6c" x="721.566406"/>
      <use xlink:href="#DejaVuSans-61" x="749.349609"/>
      <use xlink:href="#DejaVuSans-74" x="810.628906"/>
      <use xlink:href="#DejaVuSans-69" x="849.837891"/>
      <use xlink:href="#DejaVuSans-76" x="877.621094"/>
      <use xlink:href="#DejaVuSans-65" x="936.800781"/>
      <use xlink:href="#DejaVuSans-20" x="998.324219"/>
      <use xlink:href="#DejaVuSans-70" x="1030.111328"/>
      <use xlink:href="#DejaVuSans-72" x="1093.587891"/>
      <use xlink:href="#DejaVuSans-65" x="1132.451172"/>
      <use xlink:href="#DejaVuSans-64" x="1193.974609"/>
      <use xlink:href="#DejaVuSans-69" x="1257.451172"/>
      <use xlink:href="#DejaVuSans-63" x="1285.234375"/>
      <use xlink:href="#DejaVuSans-74" x="1340.214844"/>
      <use xlink:href="#DejaVuSans-69" x="1379.423828"/>
      <use xlink:href="#DejaVuSans-6f" x="1407.207031"/>
      <use xlink:href="#DejaVuSans-6e" x="1468.388672"/>
      <use xlink:href="#DejaVuSans-73" x="1531.767578"/>
     </g>
    </g>
   </g>
  </g>
 </g>
 <defs>
  <clipPath id="p93e73954fd">
   <rect x="57.6" y="41.472" width="357.12" height="266.112"/>
  </clipPath>
 </defs>
</svg>
