<?xml version="1.0" encoding="utf-8" standalone="no"?>
<!DOCTYPE svg PUBLIC "-//W3C//DTD SVG 1.1//EN"
  "http://www.w3.org/Graphics/SVG/1.1/DTD/svg11.dtd">
<svg xmlns:xlink="http://www.w3.org/1999/xlink" width="460.8pt" height="345.6pt" viewBox="0 0 460.8 345.6" xmlns="http://www.w3.org/2000/svg" version="1.1">
 <metadata>
  <rdf:RDF xmlns:dc="http://purl.org/dc/elements/1.1/" xmlns:cc="http://creativecommons.org/ns#" xmlns:rdf="http://www.w3.org/1999/02/22-rdf-syntax-ns#">
   <cc:Work>
    <dc:type rdf:resource="http://purl.org/dc/dcmitype/StillImage"/>
    <dc:date>2024-09-08T13:29:10.183156</dc:date>
    <dc:format>image/svg+xml</dc:format>
    <dc:creator>
     <cc:Agent>
      <dc:title>Matplotlib v3.8.3, https://matplotlib.org/</dc:title>
     </cc:Agent>
    </dc:creator>
   </cc:Work>
  </rdf:RDF>
 </metadata>
 <defs>
  <style type="text/css">*{stroke-linejoin: round; stroke-linecap: butt}</style>
 </defs>
 <g id="figure_1">
  <g id="patch_1">
   <path d="M 0 345.6 
L 460.8 345.6 
L 460.8 0 
L 0 0 
z
" style="fill: #ffffff"/>
  </g>
  <g id="axes_1">
   <g id="patch_2">
    <path d="M 57.6 307.584 
L 414.72 307.584 
L 414.72 41.472 
L 57.6 41.472 
z
" style="fill: #ffffff"/>
   </g>
   <g id="matplotlib.axis_1">
    <g id="xtick_1">
     <g id="line2d_1">
      <defs>
       <path id="m1127620b39" d="M 0 0 
L 0 3.5 
" style="stroke: #000000; stroke-width: 0.8"/>
      </defs>
      <g>
       <use xlink:href="#m1127620b39" x="73.832727" y="307.584" style="stroke: #000000; stroke-width: 0.8"/>
      </g>
     </g>
     <g id="text_1">
      <!-- 0 -->
      <g transform="translate(70.651477 322.182437) scale(0.1 -0.1)">
       <defs>
        <path id="DejaVuSans-30" d="M 2034 4250 
Q 1547 4250 1301 3770 
Q 1056 3291 1056 2328 
Q 1056 1369 1301 889 
Q 1547 409 2034 409 
Q 2525 409 2770 889 
Q 3016 1369 3016 2328 
Q 3016 3291 2770 3770 
Q 2525 4250 2034 4250 
z
M 2034 4750 
Q 2819 4750 3233 4129 
Q 3647 3509 3647 2328 
Q 3647 1150 3233 529 
Q 2819 -91 2034 -91 
Q 1250 -91 836 529 
Q 422 1150 422 2328 
Q 422 3509 836 4129 
Q 1250 4750 2034 4750 
z
" transform="scale(0.015625)"/>
       </defs>
       <use xlink:href="#DejaVuSans-30"/>
      </g>
     </g>
    </g>
    <g id="xtick_2">
     <g id="line2d_2">
      <g>
       <use xlink:href="#m1127620b39" x="118.003414" y="307.584" style="stroke: #000000; stroke-width: 0.8"/>
      </g>
     </g>
     <g id="text_2">
      <!-- 20 -->
      <g transform="translate(111.640914 322.182437) scale(0.1 -0.1)">
       <defs>
        <path id="DejaVuSans-32" d="M 1228 531 
L 3431 531 
L 3431 0 
L 469 0 
L 469 531 
Q 828 903 1448 1529 
Q 2069 2156 2228 2338 
Q 2531 2678 2651 2914 
Q 2772 3150 2772 3378 
Q 2772 3750 2511 3984 
Q 2250 4219 1831 4219 
Q 1534 4219 1204 4116 
Q 875 4013 500 3803 
L 500 4441 
Q 881 4594 1212 4672 
Q 1544 4750 1819 4750 
Q 2544 4750 2975 4387 
Q 3406 4025 3406 3419 
Q 3406 3131 3298 2873 
Q 3191 2616 2906 2266 
Q 2828 2175 2409 1742 
Q 1991 1309 1228 531 
z
" transform="scale(0.015625)"/>
       </defs>
       <use xlink:href="#DejaVuSans-32"/>
       <use xlink:href="#DejaVuSans-30" x="63.623047"/>
      </g>
     </g>
    </g>
    <g id="xtick_3">
     <g id="line2d_3">
      <g>
       <use xlink:href="#m1127620b39" x="162.1741" y="307.584" style="stroke: #000000; stroke-width: 0.8"/>
      </g>
     </g>
     <g id="text_3">
      <!-- 40 -->
      <g transform="translate(155.8116 322.182437) scale(0.1 -0.1)">
       <defs>
        <path id="DejaVuSans-34" d="M 2419 4116 
L 825 1625 
L 2419 1625 
L 2419 4116 
z
M 2253 4666 
L 3047 4666 
L 3047 1625 
L 3713 1625 
L 3713 1100 
L 3047 1100 
L 3047 0 
L 2419 0 
L 2419 1100 
L 313 1100 
L 313 1709 
L 2253 4666 
z
" transform="scale(0.015625)"/>
       </defs>
       <use xlink:href="#DejaVuSans-34"/>
       <use xlink:href="#DejaVuSans-30" x="63.623047"/>
      </g>
     </g>
    </g>
    <g id="xtick_4">
     <g id="line2d_4">
      <g>
       <use xlink:href="#m1127620b39" x="206.344787" y="307.584" style="stroke: #000000; stroke-width: 0.8"/>
      </g>
     </g>
     <g id="text_4">
      <!-- 60 -->
      <g transform="translate(199.982287 322.182437) scale(0.1 -0.1)">
       <defs>
        <path id="DejaVuSans-36" d="M 2113 2584 
Q 1688 2584 1439 2293 
Q 1191 2003 1191 1497 
Q 1191 994 1439 701 
Q 1688 409 2113 409 
Q 2538 409 2786 701 
Q 3034 994 3034 1497 
Q 3034 2003 2786 2293 
Q 2538 2584 2113 2584 
z
M 3366 4563 
L 3366 3988 
Q 3128 4100 2886 4159 
Q 2644 4219 2406 4219 
Q 1781 4219 1451 3797 
Q 1122 3375 1075 2522 
Q 1259 2794 1537 2939 
Q 1816 3084 2150 3084 
Q 2853 3084 3261 2657 
Q 3669 2231 3669 1497 
Q 3669 778 3244 343 
Q 2819 -91 2113 -91 
Q 1303 -91 875 529 
Q 447 1150 447 2328 
Q 447 3434 972 4092 
Q 1497 4750 2381 4750 
Q 2619 4750 2861 4703 
Q 3103 4656 3366 4563 
z
" transform="scale(0.015625)"/>
       </defs>
       <use xlink:href="#DejaVuSans-36"/>
       <use xlink:href="#DejaVuSans-30" x="63.623047"/>
      </g>
     </g>
    </g>
    <g id="xtick_5">
     <g id="line2d_5">
      <g>
       <use xlink:href="#m1127620b39" x="250.515473" y="307.584" style="stroke: #000000; stroke-width: 0.8"/>
      </g>
     </g>
     <g id="text_5">
      <!-- 80 -->
      <g transform="translate(244.152973 322.182437) scale(0.1 -0.1)">
       <defs>
        <path id="DejaVuSans-38" d="M 2034 2216 
Q 1584 2216 1326 1975 
Q 1069 1734 1069 1313 
Q 1069 891 1326 650 
Q 1584 409 2034 409 
Q 2484 409 2743 651 
Q 3003 894 3003 1313 
Q 3003 1734 2745 1975 
Q 2488 2216 2034 2216 
z
M 1403 2484 
Q 997 2584 770 2862 
Q 544 3141 544 3541 
Q 544 4100 942 4425 
Q 1341 4750 2034 4750 
Q 2731 4750 3128 4425 
Q 3525 4100 3525 3541 
Q 3525 3141 3298 2862 
Q 3072 2584 2669 2484 
Q 3125 2378 3379 2068 
Q 3634 1759 3634 1313 
Q 3634 634 3220 271 
Q 2806 -91 2034 -91 
Q 1263 -91 848 271 
Q 434 634 434 1313 
Q 434 1759 690 2068 
Q 947 2378 1403 2484 
z
M 1172 3481 
Q 1172 3119 1398 2916 
Q 1625 2713 2034 2713 
Q 2441 2713 2670 2916 
Q 2900 3119 2900 3481 
Q 2900 3844 2670 4047 
Q 2441 4250 2034 4250 
Q 1625 4250 1398 4047 
Q 1172 3844 1172 3481 
z
" transform="scale(0.015625)"/>
       </defs>
       <use xlink:href="#DejaVuSans-38"/>
       <use xlink:href="#DejaVuSans-30" x="63.623047"/>
      </g>
     </g>
    </g>
    <g id="xtick_6">
     <g id="line2d_6">
      <g>
       <use xlink:href="#m1127620b39" x="294.68616" y="307.584" style="stroke: #000000; stroke-width: 0.8"/>
      </g>
     </g>
     <g id="text_6">
      <!-- 100 -->
      <g transform="translate(285.14241 322.182437) scale(0.1 -0.1)">
       <defs>
        <path id="DejaVuSans-31" d="M 794 531 
L 1825 531 
L 1825 4091 
L 703 3866 
L 703 4441 
L 1819 4666 
L 2450 4666 
L 2450 531 
L 3481 531 
L 3481 0 
L 794 0 
L 794 531 
z
" transform="scale(0.015625)"/>
       </defs>
       <use xlink:href="#DejaVuSans-31"/>
       <use xlink:href="#DejaVuSans-30" x="63.623047"/>
       <use xlink:href="#DejaVuSans-30" x="127.246094"/>
      </g>
     </g>
    </g>
    <g id="xtick_7">
     <g id="line2d_7">
      <g>
       <use xlink:href="#m1127620b39" x="338.856846" y="307.584" style="stroke: #000000; stroke-width: 0.8"/>
      </g>
     </g>
     <g id="text_7">
      <!-- 120 -->
      <g transform="translate(329.313096 322.182437) scale(0.1 -0.1)">
       <use xlink:href="#DejaVuSans-31"/>
       <use xlink:href="#DejaVuSans-32" x="63.623047"/>
       <use xlink:href="#DejaVuSans-30" x="127.246094"/>
      </g>
     </g>
    </g>
    <g id="xtick_8">
     <g id="line2d_8">
      <g>
       <use xlink:href="#m1127620b39" x="383.027532" y="307.584" style="stroke: #000000; stroke-width: 0.8"/>
      </g>
     </g>
     <g id="text_8">
      <!-- 140 -->
      <g transform="translate(373.483782 322.182437) scale(0.1 -0.1)">
       <use xlink:href="#DejaVuSans-31"/>
       <use xlink:href="#DejaVuSans-34" x="63.623047"/>
       <use xlink:href="#DejaVuSans-30" x="127.246094"/>
      </g>
     </g>
    </g>
   </g>
   <g id="matplotlib.axis_2">
    <g id="ytick_1">
     <g id="line2d_9">
      <defs>
       <path id="mafb3449309" d="M 0 0 
L -3.5 0 
" style="stroke: #000000; stroke-width: 0.8"/>
      </defs>
      <g>
       <use xlink:href="#mafb3449309" x="57.6" y="285.528301" style="stroke: #000000; stroke-width: 0.8"/>
      </g>
     </g>
     <g id="text_9">
      <!-- −400 -->
      <g transform="translate(23.132812 289.32752) scale(0.1 -0.1)">
       <defs>
        <path id="DejaVuSans-2212" d="M 678 2272 
L 4684 2272 
L 4684 1741 
L 678 1741 
L 678 2272 
z
" transform="scale(0.015625)"/>
       </defs>
       <use xlink:href="#DejaVuSans-2212"/>
       <use xlink:href="#DejaVuSans-34" x="83.789062"/>
       <use xlink:href="#DejaVuSans-30" x="147.412109"/>
       <use xlink:href="#DejaVuSans-30" x="211.035156"/>
      </g>
     </g>
    </g>
    <g id="ytick_2">
     <g id="line2d_10">
      <g>
       <use xlink:href="#mafb3449309" x="57.6" y="253.580766" style="stroke: #000000; stroke-width: 0.8"/>
      </g>
     </g>
     <g id="text_10">
      <!-- −300 -->
      <g transform="translate(23.132812 257.379985) scale(0.1 -0.1)">
       <defs>
        <path id="DejaVuSans-33" d="M 2597 2516 
Q 3050 2419 3304 2112 
Q 3559 1806 3559 1356 
Q 3559 666 3084 287 
Q 2609 -91 1734 -91 
Q 1441 -91 1130 -33 
Q 819 25 488 141 
L 488 750 
Q 750 597 1062 519 
Q 1375 441 1716 441 
Q 2309 441 2620 675 
Q 2931 909 2931 1356 
Q 2931 1769 2642 2001 
Q 2353 2234 1838 2234 
L 1294 2234 
L 1294 2753 
L 1863 2753 
Q 2328 2753 2575 2939 
Q 2822 3125 2822 3475 
Q 2822 3834 2567 4026 
Q 2313 4219 1838 4219 
Q 1578 4219 1281 4162 
Q 984 4106 628 3988 
L 628 4550 
Q 988 4650 1302 4700 
Q 1616 4750 1894 4750 
Q 2613 4750 3031 4423 
Q 3450 4097 3450 3541 
Q 3450 3153 3228 2886 
Q 3006 2619 2597 2516 
z
" transform="scale(0.015625)"/>
       </defs>
       <use xlink:href="#DejaVuSans-2212"/>
       <use xlink:href="#DejaVuSans-33" x="83.789062"/>
       <use xlink:href="#DejaVuSans-30" x="147.412109"/>
       <use xlink:href="#DejaVuSans-30" x="211.035156"/>
      </g>
     </g>
    </g>
    <g id="ytick_3">
     <g id="line2d_11">
      <g>
       <use xlink:href="#mafb3449309" x="57.6" y="221.633231" style="stroke: #000000; stroke-width: 0.8"/>
      </g>
     </g>
     <g id="text_11">
      <!-- −200 -->
      <g transform="translate(23.132812 225.43245) scale(0.1 -0.1)">
       <use xlink:href="#DejaVuSans-2212"/>
       <use xlink:href="#DejaVuSans-32" x="83.789062"/>
       <use xlink:href="#DejaVuSans-30" x="147.412109"/>
       <use xlink:href="#DejaVuSans-30" x="211.035156"/>
      </g>
     </g>
    </g>
    <g id="ytick_4">
     <g id="line2d_12">
      <g>
       <use xlink:href="#mafb3449309" x="57.6" y="189.685696" style="stroke: #000000; stroke-width: 0.8"/>
      </g>
     </g>
     <g id="text_12">
      <!-- −100 -->
      <g transform="translate(23.132812 193.484914) scale(0.1 -0.1)">
       <use xlink:href="#DejaVuSans-2212"/>
       <use xlink:href="#DejaVuSans-31" x="83.789062"/>
       <use xlink:href="#DejaVuSans-30" x="147.412109"/>
       <use xlink:href="#DejaVuSans-30" x="211.035156"/>
      </g>
     </g>
    </g>
    <g id="ytick_5">
     <g id="line2d_13">
      <g>
       <use xlink:href="#mafb3449309" x="57.6" y="157.738161" style="stroke: #000000; stroke-width: 0.8"/>
      </g>
     </g>
     <g id="text_13">
      <!-- 0 -->
      <g transform="translate(44.2375 161.537379) scale(0.1 -0.1)">
       <use xlink:href="#DejaVuSans-30"/>
      </g>
     </g>
    </g>
    <g id="ytick_6">
     <g id="line2d_14">
      <g>
       <use xlink:href="#mafb3449309" x="57.6" y="125.790625" style="stroke: #000000; stroke-width: 0.8"/>
      </g>
     </g>
     <g id="text_14">
      <!-- 100 -->
      <g transform="translate(31.5125 129.589844) scale(0.1 -0.1)">
       <use xlink:href="#DejaVuSans-31"/>
       <use xlink:href="#DejaVuSans-30" x="63.623047"/>
       <use xlink:href="#DejaVuSans-30" x="127.246094"/>
      </g>
     </g>
    </g>
    <g id="ytick_7">
     <g id="line2d_15">
      <g>
       <use xlink:href="#mafb3449309" x="57.6" y="93.84309" style="stroke: #000000; stroke-width: 0.8"/>
      </g>
     </g>
     <g id="text_15">
      <!-- 200 -->
      <g transform="translate(31.5125 97.642309) scale(0.1 -0.1)">
       <use xlink:href="#DejaVuSans-32"/>
       <use xlink:href="#DejaVuSans-30" x="63.623047"/>
       <use xlink:href="#DejaVuSans-30" x="127.246094"/>
      </g>
     </g>
    </g>
    <g id="ytick_8">
     <g id="line2d_16">
      <g>
       <use xlink:href="#mafb3449309" x="57.6" y="61.895555" style="stroke: #000000; stroke-width: 0.8"/>
      </g>
     </g>
     <g id="text_16">
      <!-- 300 -->
      <g transform="translate(31.5125 65.694774) scale(0.1 -0.1)">
       <use xlink:href="#DejaVuSans-33"/>
       <use xlink:href="#DejaVuSans-30" x="63.623047"/>
       <use xlink:href="#DejaVuSans-30" x="127.246094"/>
      </g>
     </g>
    </g>
   </g>
   <g id="line2d_17">
    <path d="M 73.832727 161.867191 
L 76.041262 161.199101 
L 78.249796 159.512046 
L 80.45833 163.198732 
L 82.666865 158.435036 
L 84.875399 161.095834 
L 87.083933 157.080894 
L 89.292468 159.556092 
L 91.501002 157.599267 
L 93.709536 160.287885 
L 95.918071 157.268317 
L 98.126605 160.469493 
L 100.335139 159.299409 
L 102.543673 157.94119 
L 104.752208 158.342264 
L 106.960742 159.138776 
L 109.169276 160.276553 
L 111.377811 159.220862 
L 113.586345 157.659311 
L 115.794879 164.397164 
L 118.003414 159.281045 
L 120.211948 159.841873 
L 122.420482 158.277914 
L 124.629017 159.299054 
L 126.837551 162.60713 
L 129.046085 158.251228 
L 131.25462 159.954318 
L 133.463154 158.460182 
L 135.671688 160.029093 
L 137.880223 158.792169 
L 140.088757 158.244541 
L 142.297291 159.631842 
L 144.505826 162.442523 
L 146.71436 158.391548 
L 151.131429 159.235323 
L 153.339963 155.825844 
L 155.548497 166.9854 
L 157.757032 158.483957 
L 159.965566 159.644245 
L 162.1741 157.119891 
L 164.382635 163.250452 
L 166.591169 157.870086 
L 168.799703 158.483143 
L 171.008237 159.443836 
L 173.216772 158.819625 
L 175.425306 159.909314 
L 177.63384 158.794722 
L 179.842375 156.534021 
L 182.050909 163.966245 
L 184.259443 153.43265 
L 186.467978 169.92966 
L 188.676512 171.131484 
L 190.885046 166.648195 
L 193.093581 162.834583 
L 195.302115 163.517279 
L 197.510649 164.390679 
L 199.719184 160.609427 
L 201.927718 161.201857 
L 204.136252 162.719041 
L 206.344787 160.408296 
L 208.553321 160.622361 
L 210.761855 158.548777 
L 212.97039 161.147458 
L 215.178924 160.192541 
L 217.387458 162.991241 
L 219.595993 161.635701 
L 221.804527 154.777365 
L 224.013061 166.284653 
L 226.221596 158.896623 
L 228.43013 160.907727 
L 230.638664 158.1193 
L 232.847199 161.471179 
L 235.055733 159.064446 
L 237.264267 163.870568 
L 239.472801 156.909161 
L 241.681336 162.287107 
L 243.88987 161.476439 
L 246.098404 162.047178 
L 248.306939 157.827358 
L 250.515473 159.838921 
L 252.724007 160.85482 
L 254.932542 162.264126 
L 257.141076 157.602257 
L 259.34961 159.956801 
L 261.558145 158.975422 
L 263.766679 160.555229 
L 265.975213 159.633251 
L 268.183748 159.096076 
L 270.392282 157.986469 
L 272.600816 163.540023 
L 274.809351 161.767985 
L 277.017885 160.964937 
L 279.226419 160.358676 
L 281.434954 158.604904 
L 283.643488 161.689091 
L 285.852022 156.707909 
L 288.060557 163.705353 
L 290.269091 157.934819 
L 292.477625 168.507278 
L 294.68616 160.293602 
L 296.894694 157.567364 
L 299.103228 166.147734 
L 301.311763 154.13273 
L 303.520297 162.113682 
L 305.728831 160.422756 
L 307.937365 170.045007 
L 310.1459 172.741706 
L 312.354434 150.031594 
L 314.562968 167.651866 
L 316.771503 161.023424 
L 318.980037 166.059551 
L 321.188571 161.153123 
L 323.397106 158.441093 
L 325.60564 166.134078 
L 327.814174 161.309123 
L 330.022709 164.895196 
L 332.231243 165.038672 
L 334.439777 160.561284 
L 336.648312 168.249641 
L 338.856846 163.239426 
L 341.06538 159.488774 
L 343.273915 165.90217 
L 345.482449 160.547328 
L 347.690983 165.864237 
L 349.899518 160.197577 
L 352.108052 160.328921 
L 354.316586 165.668346 
L 356.525121 161.045271 
L 358.733655 159.397467 
L 360.942189 160.918442 
L 363.150724 158.922601 
L 365.359258 163.076024 
L 367.567792 161.506708 
L 369.776327 159.637552 
L 371.984861 162.312381 
L 374.193395 159.055613 
L 376.401929 158.849717 
L 378.610464 163.271097 
L 380.818998 159.817343 
L 383.027532 157.392013 
L 385.236067 164.007764 
L 387.444601 160.404335 
L 389.653135 168.600573 
L 391.86167 161.290236 
L 394.070204 159.562804 
L 398.487273 157.763713 
L 398.487273 157.763713 
" clip-path="url(#p36cf710b2f)" style="fill: none; stroke: #008000; stroke-opacity: 0.8; stroke-width: 0.5; stroke-linecap: square"/>
   </g>
   <g id="line2d_18">
    <path d="M 73.832727 143.426913 
L 76.041262 151.426884 
L 78.249796 136.095304 
L 80.45833 140.775002 
L 82.666865 147.863205 
L 84.875399 152.522084 
L 89.292468 149.594737 
L 91.501002 153.155257 
L 93.709536 147.646023 
L 95.918071 148.316758 
L 98.126605 151.880123 
L 100.335139 152.030697 
L 102.543673 150.850214 
L 104.752208 152.239212 
L 106.960742 154.33765 
L 109.169276 128.331999 
L 111.377811 135.041098 
L 113.586345 136.812603 
L 115.794879 146.047905 
L 118.003414 119.238105 
L 120.211948 140.210642 
L 122.420482 135.628298 
L 124.629017 141.714852 
L 126.837551 150.301131 
L 129.046085 153.147301 
L 131.25462 153.656914 
L 133.463154 139.264068 
L 135.671688 149.508433 
L 137.880223 154.285185 
L 140.088757 143.336245 
L 142.297291 139.604015 
L 144.505826 149.942941 
L 146.71436 150.730489 
L 148.922894 150.212823 
L 151.131429 151.356143 
L 153.339963 138.484415 
L 155.548497 131.606153 
L 157.757032 133.583739 
L 159.965566 146.393588 
L 162.1741 146.221097 
L 164.382635 143.57825 
L 166.591169 151.54037 
L 168.799703 152.942832 
L 171.008237 153.821032 
L 173.216772 148.892627 
L 175.425306 153.565872 
L 177.63384 148.957366 
L 179.842375 143.904063 
L 182.050909 141.839832 
L 184.259443 129.732901 
L 186.467978 110.796031 
L 188.676512 58.793384 
L 190.885046 100.242152 
L 193.093581 128.723426 
L 195.302115 134.657481 
L 197.510649 138.919524 
L 199.719184 147.530861 
L 201.927718 104.412998 
L 204.136252 134.809713 
L 206.344787 144.814218 
L 208.553321 144.394464 
L 210.761855 147.375959 
L 212.97039 152.215258 
L 215.178924 109.798736 
L 217.387458 133.234339 
L 219.595993 138.080794 
L 221.804527 132.381364 
L 224.013061 131.446961 
L 226.221596 142.809123 
L 228.43013 150.196431 
L 230.638664 147.836063 
L 232.847199 137.827343 
L 235.055733 143.055164 
L 237.264267 126.525382 
L 239.472801 147.157099 
L 241.681336 125.046301 
L 243.88987 138.170217 
L 246.098404 137.927569 
L 248.306939 145.834272 
L 250.515473 143.834587 
L 252.724007 142.14455 
L 254.932542 155.92096 
L 257.141076 150.253583 
L 259.34961 143.986447 
L 261.558145 144.893629 
L 263.766679 143.329791 
L 265.975213 150.441289 
L 268.183748 141.901745 
L 270.392282 151.14113 
L 272.600816 137.330702 
L 274.809351 130.798308 
L 277.017885 150.155129 
L 279.226419 147.691742 
L 281.434954 144.818639 
L 283.643488 123.232743 
L 285.852022 131.98202 
L 288.060557 151.955625 
L 290.269091 127.914611 
L 292.477625 145.725856 
L 294.68616 110.182663 
L 296.894694 115.752735 
L 299.103228 126.127572 
L 301.311763 130.509283 
L 303.520297 132.398992 
L 305.728831 108.955408 
L 310.1459 106.544453 
L 312.354434 117.32757 
L 314.562968 100.957812 
L 316.771503 138.320361 
L 318.980037 135.870049 
L 321.188571 135.52815 
L 323.397106 136.99899 
L 325.60564 114.89005 
L 327.814174 103.537355 
L 330.022709 109.714604 
L 332.231243 130.73199 
L 334.439777 128.895916 
L 336.648312 134.115501 
L 338.856846 136.694966 
L 341.06538 128.978164 
L 343.273915 147.299615 
L 345.482449 138.913827 
L 347.690983 137.636718 
L 349.899518 124.567166 
L 352.108052 140.340533 
L 354.316586 140.555246 
L 356.525121 132.149194 
L 358.733655 145.243679 
L 360.942189 135.68313 
L 363.150724 141.849219 
L 365.359258 143.572673 
L 367.567792 149.189922 
L 369.776327 143.468781 
L 371.984861 146.780213 
L 374.193395 144.160458 
L 376.401929 137.68044 
L 378.610464 141.941563 
L 380.818998 141.116885 
L 383.027532 138.358684 
L 385.236067 144.216876 
L 387.444601 140.147018 
L 389.653135 141.507679 
L 391.86167 146.962094 
L 394.070204 150.674604 
L 396.278738 141.227618 
L 398.487273 130.169528 
L 398.487273 130.169528 
" clip-path="url(#p36cf710b2f)" style="fill: none; stroke: #32cd32; stroke-opacity: 0.8; stroke-width: 0.5; stroke-linecap: square"/>
   </g>
   <g id="line2d_19">
    <path d="M 73.832727 175.491389 
L 76.041262 174.567759 
L 78.249796 199.948841 
L 80.45833 179.638289 
L 82.666865 171.470843 
L 84.875399 172.505901 
L 87.083933 165.511001 
L 89.292468 174.702255 
L 91.501002 161.975967 
L 93.709536 168.950737 
L 95.918071 165.768853 
L 98.126605 167.676995 
L 100.335139 168.554031 
L 102.543673 164.351285 
L 104.752208 163.365189 
L 106.960742 165.161188 
L 109.169276 194.39628 
L 111.377811 183.325562 
L 113.586345 174.802403 
L 115.794879 180.304877 
L 118.003414 175.970589 
L 120.211948 213.569598 
L 122.420482 190.060779 
L 124.629017 169.042718 
L 126.837551 174.807746 
L 129.046085 167.912084 
L 131.25462 175.123984 
L 133.463154 173.187906 
L 135.671688 166.516297 
L 137.880223 165.916074 
L 140.088757 171.24395 
L 142.297291 172.06176 
L 144.505826 183.623698 
L 146.71436 167.023732 
L 148.922894 166.340011 
L 151.131429 165.926393 
L 153.339963 165.878386 
L 155.548497 183.4367 
L 157.757032 172.23999 
L 159.965566 169.274297 
L 162.1741 167.85488 
L 164.382635 179.329812 
L 166.591169 164.508554 
L 168.799703 167.059747 
L 171.008237 166.251055 
L 173.216772 171.619388 
L 175.425306 166.800674 
L 177.63384 167.862355 
L 179.842375 166.344808 
L 182.050909 181.240424 
L 184.259443 164.109085 
L 186.467978 241.927351 
L 188.676512 295.488 
L 190.885046 224.67784 
L 193.093581 199.829038 
L 195.302115 185.536015 
L 197.510649 185.722595 
L 199.719184 171.922913 
L 201.927718 194.788748 
L 204.136252 184.873312 
L 206.344787 172.279229 
L 208.553321 175.116029 
L 210.761855 172.78344 
L 212.97039 167.8528 
L 215.178924 205.69776 
L 217.387458 185.328008 
L 219.595993 180.500077 
L 221.804527 169.769668 
L 224.013061 190.921011 
L 226.221596 173.397722 
L 228.43013 176.893851 
L 230.638664 177.168693 
L 232.847199 169.202459 
L 235.055733 174.176751 
L 237.264267 191.20219 
L 239.472801 165.995005 
L 241.681336 204.95987 
L 243.88987 180.160167 
L 246.098404 181.819161 
L 248.306939 171.862332 
L 250.515473 178.103154 
L 252.724007 191.596152 
L 254.932542 179.22124 
L 257.141076 170.277048 
L 259.34961 184.910517 
L 261.558145 172.772642 
L 263.766679 194.58632 
L 265.975213 174.345965 
L 268.183748 175.951531 
L 270.392282 169.750262 
L 272.600816 183.567852 
L 274.809351 187.989263 
L 277.017885 184.459071 
L 279.226419 171.907568 
L 281.434954 174.213526 
L 283.643488 200.923257 
L 285.852022 194.390079 
L 288.060557 199.760323 
L 290.269091 181.249082 
L 292.477625 204.823356 
L 294.68616 196.268479 
L 296.894694 197.85712 
L 299.103228 217.245125 
L 301.311763 180.154537 
L 303.520297 187.945975 
L 305.728831 208.732854 
L 307.937365 207.413848 
L 310.1459 200.83109 
L 312.354434 190.993938 
L 314.562968 204.868731 
L 316.771503 179.050908 
L 318.980037 198.799271 
L 321.188571 188.916802 
L 323.397106 182.368919 
L 325.60564 193.91607 
L 327.814174 185.158677 
L 330.022709 208.700797 
L 332.231243 200.788225 
L 334.439777 195.968191 
L 336.648312 230.214753 
L 341.06538 184.460417 
L 343.273915 189.763907 
L 345.482449 190.031784 
L 347.690983 196.01768 
L 349.899518 185.615505 
L 352.108052 178.596719 
L 354.316586 192.543945 
L 356.525121 175.756578 
L 358.733655 176.809848 
L 360.942189 196.038505 
L 363.150724 191.030713 
L 365.359258 181.613951 
L 367.567792 176.522625 
L 369.776327 182.058378 
L 371.984861 172.090606 
L 374.193395 168.957548 
L 376.401929 176.857076 
L 378.610464 176.926688 
L 380.818998 178.574256 
L 383.027532 172.967604 
L 385.236067 176.411479 
L 387.444601 180.240504 
L 389.653135 187.413074 
L 391.86167 185.388057 
L 394.070204 166.616315 
L 396.278738 175.750054 
L 398.487273 173.26425 
L 398.487273 173.26425 
" clip-path="url(#p36cf710b2f)" style="fill: none; stroke: #32cd32; stroke-opacity: 0.8; stroke-width: 0.5; stroke-linecap: square"/>
   </g>
   <g id="line2d_20">
    <path d="M 73.832727 152.44719 
L 76.041262 155.127575 
L 78.249796 155.672523 
L 80.45833 156.851073 
L 82.666865 156.387429 
L 84.875399 156.534794 
L 87.083933 154.580708 
L 89.292468 156.753017 
L 91.501002 155.20321 
L 93.709536 157.655897 
L 95.918071 155.407055 
L 98.126605 157.232286 
L 100.335139 156.248828 
L 102.543673 155.746876 
L 104.752208 157.646179 
L 106.960742 156.358983 
L 109.169276 157.094779 
L 111.377811 151.63982 
L 113.586345 155.052455 
L 115.794879 156.700127 
L 118.003414 152.001686 
L 120.211948 155.810369 
L 122.420482 151.486262 
L 124.629017 155.288576 
L 126.837551 156.517944 
L 129.046085 155.46456 
L 131.25462 156.532409 
L 133.463154 154.633852 
L 135.671688 156.693887 
L 137.880223 156.926639 
L 140.088757 155.238124 
L 142.297291 155.13217 
L 144.505826 157.485855 
L 146.71436 154.079981 
L 148.922894 154.97021 
L 151.131429 157.001853 
L 153.339963 152.733863 
L 155.548497 158.444202 
L 157.757032 152.61338 
L 159.965566 156.661675 
L 162.1741 153.821727 
L 164.382635 156.578966 
L 166.591169 155.244925 
L 168.799703 156.786527 
L 171.008237 156.761569 
L 173.216772 155.660592 
L 175.425306 157.153468 
L 177.63384 155.964094 
L 179.842375 154.249854 
L 182.050909 156.252671 
L 184.259443 147.709005 
L 186.467978 154.472578 
L 188.676512 149.316406 
L 190.885046 153.126115 
L 193.093581 148.850424 
L 195.302115 152.12785 
L 197.510649 155.125634 
L 199.719184 154.419054 
L 201.927718 150.580484 
L 204.136252 152.467703 
L 206.344787 154.764864 
L 208.553321 156.337076 
L 210.761855 155.947767 
L 212.97039 157.79994 
L 215.178924 154.279526 
L 217.387458 155.328241 
L 219.595993 155.370146 
L 221.804527 151.291188 
L 224.013061 157.39975 
L 226.221596 151.28053 
L 228.43013 155.823749 
L 230.638664 153.866998 
L 232.847199 157.731165 
L 235.055733 152.235797 
L 237.264267 154.109701 
L 239.472801 152.994395 
L 241.681336 153.910724 
L 246.098404 155.53325 
L 248.306939 153.367908 
L 250.515473 154.574212 
L 252.724007 152.232605 
L 254.932542 156.649829 
L 257.141076 155.49747 
L 259.34961 155.452057 
L 261.558145 154.820777 
L 263.766679 153.555676 
L 265.975213 155.215861 
L 268.183748 155.468307 
L 270.392282 154.114937 
L 272.600816 157.97855 
L 274.809351 151.972808 
L 277.017885 156.14195 
L 279.226419 155.810334 
L 281.434954 153.47509 
L 283.643488 154.474612 
L 285.852022 149.347395 
L 288.060557 155.583901 
L 290.269091 149.203159 
L 292.477625 160.958156 
L 294.68616 150.80764 
L 296.894694 148.15275 
L 299.103228 153.405972 
L 301.311763 147.987833 
L 303.520297 154.853439 
L 305.728831 145.894934 
L 307.937365 154.359584 
L 310.1459 155.780326 
L 312.354434 141.023988 
L 314.562968 154.739909 
L 316.771503 153.383328 
L 318.980037 157.934389 
L 321.188571 152.703045 
L 323.397106 149.104014 
L 325.60564 156.513232 
L 327.814174 146.685233 
L 330.022709 157.427088 
L 332.231243 152.045234 
L 334.439777 150.513433 
L 336.648312 153.164682 
L 338.856846 153.596304 
L 341.06538 146.104566 
L 343.273915 156.560368 
L 345.482449 154.122984 
L 347.690983 158.94462 
L 349.899518 151.850589 
L 352.108052 153.851819 
L 354.316586 155.694151 
L 356.525121 155.293815 
L 358.733655 153.403898 
L 360.942189 156.533775 
L 363.150724 151.44006 
L 365.359258 157.458438 
L 367.567792 153.735056 
L 369.776327 154.843413 
L 371.984861 155.485104 
L 374.193395 154.946272 
L 376.401929 153.332014 
L 378.610464 158.794504 
L 380.818998 151.693237 
L 383.027532 152.85161 
L 385.236067 159.194355 
L 387.444601 152.923004 
L 389.653135 157.686335 
L 391.86167 151.691883 
L 394.070204 154.811365 
L 396.278738 155.895854 
L 398.487273 154.024829 
L 398.487273 154.024829 
" clip-path="url(#p36cf710b2f)" style="fill: none; stroke: #ff0000; stroke-opacity: 0.8; stroke-width: 0.5; stroke-linecap: square"/>
   </g>
   <g id="line2d_21">
    <path d="M 73.832727 134.37169 
L 76.041262 145.043812 
L 78.249796 136.095304 
L 80.45833 130.46875 
L 82.666865 146.275344 
L 84.875399 145.880875 
L 87.083933 147.121221 
L 89.292468 149.738485 
L 91.501002 150.712193 
L 93.709536 144.516505 
L 95.918071 145.971858 
L 98.126605 148.736888 
L 100.335139 149.111247 
L 102.543673 149.056363 
L 106.960742 150.978129 
L 109.169276 128.331999 
L 111.377811 130.221805 
L 113.586345 137.512157 
L 115.794879 137.64795 
L 118.003414 120.244499 
L 120.211948 134.750287 
L 122.420482 127.731079 
L 124.629017 136.935526 
L 126.837551 144.69449 
L 129.046085 148.500518 
L 131.25462 148.082392 
L 133.463154 136.463263 
L 135.671688 149.487725 
L 137.880223 153.386179 
L 140.088757 139.881118 
L 142.297291 133.722792 
L 144.505826 144.67441 
L 146.71436 148.324495 
L 148.922894 146.790722 
L 151.131429 149.325375 
L 153.339963 136.716667 
L 155.548497 126.008939 
L 157.757032 129.924696 
L 159.965566 147.465421 
L 162.1741 144.423966 
L 164.382635 138.630321 
L 166.591169 149.19722 
L 168.799703 150.069192 
L 171.008237 151.486032 
L 173.216772 146.626057 
L 175.425306 152.053083 
L 177.63384 144.550209 
L 179.842375 139.624678 
L 182.050909 137.978657 
L 184.259443 125.46686 
L 186.467978 84.437708 
L 188.676512 53.568 
L 190.885046 87.616467 
L 193.093581 118.676449 
L 195.302115 123.797102 
L 197.510649 130.720186 
L 199.719184 138.866704 
L 201.927718 104.412998 
L 204.136252 126.514242 
L 206.344787 135.843273 
L 208.553321 139.330867 
L 210.761855 144.872882 
L 212.97039 149.384535 
L 215.178924 104.690862 
L 217.387458 129.899182 
L 219.595993 135.12748 
L 221.804527 132.392635 
L 224.013061 122.80038 
L 226.221596 136.680476 
L 228.43013 143.459227 
L 230.638664 143.326521 
L 232.847199 136.33516 
L 235.055733 137.502642 
L 237.264267 121.825366 
L 239.472801 147.248668 
L 241.681336 123.071001 
L 243.88987 135.719866 
L 246.098404 139.694199 
L 248.306939 140.928812 
L 250.515473 140.677522 
L 252.724007 130.522815 
L 254.932542 146.223268 
L 257.141076 148.265826 
L 259.34961 138.340048 
L 261.558145 140.715438 
L 263.766679 135.462216 
L 265.975213 145.720374 
L 268.183748 142.011175 
L 270.392282 145.826091 
L 274.809351 123.776901 
L 277.017885 143.666894 
L 279.226419 142.865553 
L 281.434954 141.936891 
L 283.643488 120.647119 
L 288.060557 138.367627 
L 290.269091 123.669343 
L 292.477625 137.44196 
L 294.68616 110.182663 
L 296.894694 115.752735 
L 299.103228 114.507696 
L 301.311763 124.128854 
L 303.520297 130.63961 
L 305.728831 90.098926 
L 307.937365 90.846501 
L 310.1459 88.062661 
L 312.354434 109.422339 
L 314.562968 115.966719 
L 316.771503 134.704034 
L 318.980037 135.870049 
L 321.188571 133.191304 
L 323.397106 127.699574 
L 325.60564 108.192364 
L 327.814174 84.311438 
L 330.022709 122.498493 
L 332.231243 117.199889 
L 334.439777 131.640199 
L 336.648312 107.305825 
L 338.856846 129.760564 
L 341.06538 119.438349 
L 343.273915 137.82382 
L 345.482449 132.167399 
L 347.690983 132.192885 
L 349.899518 126.660759 
L 352.108052 128.879039 
L 354.316586 127.201199 
L 356.525121 122.910472 
L 358.733655 138.330189 
L 360.942189 133.899037 
L 363.150724 130.396369 
L 365.359258 141.718141 
L 367.567792 138.61753 
L 369.776327 142.404943 
L 371.984861 141.118007 
L 374.193395 141.024748 
L 376.401929 133.315403 
L 378.610464 138.994836 
L 380.818998 131.605191 
L 383.027532 134.212463 
L 385.236067 136.180553 
L 387.444601 131.761523 
L 389.653135 137.451623 
L 391.86167 140.933804 
L 394.070204 145.672974 
L 396.278738 143.446136 
L 398.487273 127.402697 
L 398.487273 127.402697 
" clip-path="url(#p36cf710b2f)" style="fill: none; stroke: #f08080; stroke-opacity: 0.8; stroke-width: 0.5; stroke-linecap: square"/>
   </g>
   <g id="line2d_22">
    <path d="M 73.832727 167.219508 
L 76.041262 169.13388 
L 78.249796 197.902592 
L 80.45833 177.751739 
L 82.666865 165.45557 
L 84.875399 168.721708 
L 87.083933 163.978589 
L 89.292468 169.878718 
L 91.501002 161.423281 
L 93.709536 165.85292 
L 95.918071 163.979655 
L 98.126605 167.29364 
L 100.335139 167.124387 
L 102.543673 162.212208 
L 104.752208 162.705992 
L 106.960742 161.963253 
L 109.169276 188.430023 
L 111.377811 176.107985 
L 113.586345 173.951535 
L 115.794879 172.291799 
L 118.003414 169.919718 
L 120.211948 215.920971 
L 122.420482 179.43642 
L 124.629017 163.397616 
L 126.837551 169.019174 
L 129.046085 163.454684 
L 131.25462 172.46273 
L 133.463154 164.288975 
L 135.671688 163.576619 
L 137.880223 165.012621 
L 140.088757 168.705696 
L 142.297291 174.339608 
L 144.505826 178.960964 
L 146.71436 162.069633 
L 148.922894 160.479284 
L 151.131429 167.421555 
L 153.339963 162.842382 
L 155.548497 186.951007 
L 157.757032 173.414734 
L 159.965566 165.852829 
L 162.1741 163.026533 
L 164.382635 170.041394 
L 166.591169 160.574313 
L 168.799703 165.372295 
L 171.008237 163.464148 
L 173.216772 170.590726 
L 175.425306 163.766191 
L 177.63384 164.073041 
L 179.842375 163.755479 
L 182.050909 171.865973 
L 184.259443 160.537782 
L 186.467978 212.138394 
L 188.676512 259.657246 
L 190.885046 212.20551 
L 193.093581 177.663824 
L 195.302115 177.799668 
L 197.510649 179.577491 
L 199.719184 165.050508 
L 201.927718 178.764373 
L 204.136252 171.653909 
L 206.344787 170.745628 
L 208.553321 171.734394 
L 210.761855 175.45473 
L 212.97039 165.143275 
L 215.178924 209.569761 
L 217.387458 181.034278 
L 219.595993 174.413159 
L 221.804527 163.46641 
L 224.013061 190.979586 
L 226.221596 174.478638 
L 228.43013 170.067654 
L 230.638664 171.968908 
L 232.847199 167.93107 
L 235.055733 171.462821 
L 237.264267 182.62054 
L 239.472801 162.80991 
L 241.681336 192.51636 
L 243.88987 171.803578 
L 246.098404 175.50632 
L 248.306939 170.161665 
L 250.515473 172.168837 
L 252.724007 175.257976 
L 254.932542 179.22124 
L 257.141076 167.106151 
L 259.34961 178.799734 
L 261.558145 169.51255 
L 263.766679 181.211309 
L 265.975213 165.12531 
L 268.183748 174.778926 
L 270.392282 168.053252 
L 272.600816 180.651001 
L 274.809351 175.681261 
L 277.017885 178.635494 
L 279.226419 166.029092 
L 281.434954 165.631845 
L 283.643488 186.891378 
L 285.852022 185.494298 
L 288.060557 188.959661 
L 290.269091 175.520053 
L 292.477625 196.174415 
L 294.68616 179.612551 
L 296.894694 187.043291 
L 299.103228 193.924672 
L 301.311763 178.948095 
L 303.520297 185.688978 
L 305.728831 189.641078 
L 307.937365 190.616979 
L 310.1459 180.682824 
L 312.354434 177.266585 
L 314.562968 189.858225 
L 316.771503 172.965966 
L 318.980037 185.700794 
L 321.188571 183.779863 
L 323.397106 167.475763 
L 325.60564 185.623097 
L 327.814174 169.819674 
L 330.022709 192.957549 
L 332.231243 187.754034 
L 334.439777 178.916974 
L 336.648312 221.834502 
L 338.856846 191.729923 
L 341.06538 175.612869 
L 343.273915 183.013996 
L 345.482449 188.08828 
L 347.690983 196.01768 
L 349.899518 170.118922 
L 352.108052 170.595406 
L 354.316586 179.897005 
L 356.525121 173.399914 
L 358.733655 171.220746 
L 360.942189 188.088319 
L 363.150724 181.429931 
L 365.359258 175.616067 
L 367.567792 170.579198 
L 369.776327 172.623902 
L 371.984861 172.090606 
L 374.193395 163.115112 
L 376.401929 178.271004 
L 378.610464 170.370228 
L 380.818998 169.181711 
L 383.027532 168.126218 
L 385.236067 177.628777 
L 387.444601 180.240504 
L 389.653135 179.88086 
L 391.86167 174.367024 
L 394.070204 166.616315 
L 396.278738 171.801316 
L 398.487273 170.290854 
L 398.487273 170.290854 
" clip-path="url(#p36cf710b2f)" style="fill: none; stroke: #f08080; stroke-opacity: 0.8; stroke-width: 0.5; stroke-linecap: square"/>
   </g>
   <g id="patch_3">
    <path d="M 57.6 307.584 
L 57.6 41.472 
" style="fill: none; stroke: #000000; stroke-width: 0.8; stroke-linejoin: miter; stroke-linecap: square"/>
   </g>
   <g id="patch_4">
    <path d="M 414.72 307.584 
L 414.72 41.472 
" style="fill: none; stroke: #000000; stroke-width: 0.8; stroke-linejoin: miter; stroke-linecap: square"/>
   </g>
   <g id="patch_5">
    <path d="M 57.6 307.584 
L 414.72 307.584 
" style="fill: none; stroke: #000000; stroke-width: 0.8; stroke-linejoin: miter; stroke-linecap: square"/>
   </g>
   <g id="patch_6">
    <path d="M 57.6 41.472 
L 414.72 41.472 
" style="fill: none; stroke: #000000; stroke-width: 0.8; stroke-linejoin: miter; stroke-linecap: square"/>
   </g>
   <g id="text_17">
    <!-- 1final_zhang_aa_snp500 -->
    <g transform="translate(162.63375 35.472) scale(0.12 -0.12)">
     <defs>
      <path id="DejaVuSans-66" d="M 2375 4863 
L 2375 4384 
L 1825 4384 
Q 1516 4384 1395 4259 
Q 1275 4134 1275 3809 
L 1275 3500 
L 2222 3500 
L 2222 3053 
L 1275 3053 
L 1275 0 
L 697 0 
L 697 3053 
L 147 3053 
L 147 3500 
L 697 3500 
L 697 3744 
Q 697 4328 969 4595 
Q 1241 4863 1831 4863 
L 2375 4863 
z
" transform="scale(0.015625)"/>
      <path id="DejaVuSans-69" d="M 603 3500 
L 1178 3500 
L 1178 0 
L 603 0 
L 603 3500 
z
M 603 4863 
L 1178 4863 
L 1178 4134 
L 603 4134 
L 603 4863 
z
" transform="scale(0.015625)"/>
      <path id="DejaVuSans-6e" d="M 3513 2113 
L 3513 0 
L 2938 0 
L 2938 2094 
Q 2938 2591 2744 2837 
Q 2550 3084 2163 3084 
Q 1697 3084 1428 2787 
Q 1159 2491 1159 1978 
L 1159 0 
L 581 0 
L 581 3500 
L 1159 3500 
L 1159 2956 
Q 1366 3272 1645 3428 
Q 1925 3584 2291 3584 
Q 2894 3584 3203 3211 
Q 3513 2838 3513 2113 
z
" transform="scale(0.015625)"/>
      <path id="DejaVuSans-61" d="M 2194 1759 
Q 1497 1759 1228 1600 
Q 959 1441 959 1056 
Q 959 750 1161 570 
Q 1363 391 1709 391 
Q 2188 391 2477 730 
Q 2766 1069 2766 1631 
L 2766 1759 
L 2194 1759 
z
M 3341 1997 
L 3341 0 
L 2766 0 
L 2766 531 
Q 2569 213 2275 61 
Q 1981 -91 1556 -91 
Q 1019 -91 701 211 
Q 384 513 384 1019 
Q 384 1609 779 1909 
Q 1175 2209 1959 2209 
L 2766 2209 
L 2766 2266 
Q 2766 2663 2505 2880 
Q 2244 3097 1772 3097 
Q 1472 3097 1187 3025 
Q 903 2953 641 2809 
L 641 3341 
Q 956 3463 1253 3523 
Q 1550 3584 1831 3584 
Q 2591 3584 2966 3190 
Q 3341 2797 3341 1997 
z
" transform="scale(0.015625)"/>
      <path id="DejaVuSans-6c" d="M 603 4863 
L 1178 4863 
L 1178 0 
L 603 0 
L 603 4863 
z
" transform="scale(0.015625)"/>
      <path id="DejaVuSans-5f" d="M 3263 -1063 
L 3263 -1509 
L -63 -1509 
L -63 -1063 
L 3263 -1063 
z
" transform="scale(0.015625)"/>
      <path id="DejaVuSans-7a" d="M 353 3500 
L 3084 3500 
L 3084 2975 
L 922 459 
L 3084 459 
L 3084 0 
L 275 0 
L 275 525 
L 2438 3041 
L 353 3041 
L 353 3500 
z
" transform="scale(0.015625)"/>
      <path id="DejaVuSans-68" d="M 3513 2113 
L 3513 0 
L 2938 0 
L 2938 2094 
Q 2938 2591 2744 2837 
Q 2550 3084 2163 3084 
Q 1697 3084 1428 2787 
Q 1159 2491 1159 1978 
L 1159 0 
L 581 0 
L 581 4863 
L 1159 4863 
L 1159 2956 
Q 1366 3272 1645 3428 
Q 1925 3584 2291 3584 
Q 2894 3584 3203 3211 
Q 3513 2838 3513 2113 
z
" transform="scale(0.015625)"/>
      <path id="DejaVuSans-67" d="M 2906 1791 
Q 2906 2416 2648 2759 
Q 2391 3103 1925 3103 
Q 1463 3103 1205 2759 
Q 947 2416 947 1791 
Q 947 1169 1205 825 
Q 1463 481 1925 481 
Q 2391 481 2648 825 
Q 2906 1169 2906 1791 
z
M 3481 434 
Q 3481 -459 3084 -895 
Q 2688 -1331 1869 -1331 
Q 1566 -1331 1297 -1286 
Q 1028 -1241 775 -1147 
L 775 -588 
Q 1028 -725 1275 -790 
Q 1522 -856 1778 -856 
Q 2344 -856 2625 -561 
Q 2906 -266 2906 331 
L 2906 616 
Q 2728 306 2450 153 
Q 2172 0 1784 0 
Q 1141 0 747 490 
Q 353 981 353 1791 
Q 353 2603 747 3093 
Q 1141 3584 1784 3584 
Q 2172 3584 2450 3431 
Q 2728 3278 2906 2969 
L 2906 3500 
L 3481 3500 
L 3481 434 
z
" transform="scale(0.015625)"/>
      <path id="DejaVuSans-73" d="M 2834 3397 
L 2834 2853 
Q 2591 2978 2328 3040 
Q 2066 3103 1784 3103 
Q 1356 3103 1142 2972 
Q 928 2841 928 2578 
Q 928 2378 1081 2264 
Q 1234 2150 1697 2047 
L 1894 2003 
Q 2506 1872 2764 1633 
Q 3022 1394 3022 966 
Q 3022 478 2636 193 
Q 2250 -91 1575 -91 
Q 1294 -91 989 -36 
Q 684 19 347 128 
L 347 722 
Q 666 556 975 473 
Q 1284 391 1588 391 
Q 1994 391 2212 530 
Q 2431 669 2431 922 
Q 2431 1156 2273 1281 
Q 2116 1406 1581 1522 
L 1381 1569 
Q 847 1681 609 1914 
Q 372 2147 372 2553 
Q 372 3047 722 3315 
Q 1072 3584 1716 3584 
Q 2034 3584 2315 3537 
Q 2597 3491 2834 3397 
z
" transform="scale(0.015625)"/>
      <path id="DejaVuSans-70" d="M 1159 525 
L 1159 -1331 
L 581 -1331 
L 581 3500 
L 1159 3500 
L 1159 2969 
Q 1341 3281 1617 3432 
Q 1894 3584 2278 3584 
Q 2916 3584 3314 3078 
Q 3713 2572 3713 1747 
Q 3713 922 3314 415 
Q 2916 -91 2278 -91 
Q 1894 -91 1617 61 
Q 1341 213 1159 525 
z
M 3116 1747 
Q 3116 2381 2855 2742 
Q 2594 3103 2138 3103 
Q 1681 3103 1420 2742 
Q 1159 2381 1159 1747 
Q 1159 1113 1420 752 
Q 1681 391 2138 391 
Q 2594 391 2855 752 
Q 3116 1113 3116 1747 
z
" transform="scale(0.015625)"/>
      <path id="DejaVuSans-35" d="M 691 4666 
L 3169 4666 
L 3169 4134 
L 1269 4134 
L 1269 2991 
Q 1406 3038 1543 3061 
Q 1681 3084 1819 3084 
Q 2600 3084 3056 2656 
Q 3513 2228 3513 1497 
Q 3513 744 3044 326 
Q 2575 -91 1722 -91 
Q 1428 -91 1123 -41 
Q 819 9 494 109 
L 494 744 
Q 775 591 1075 516 
Q 1375 441 1709 441 
Q 2250 441 2565 725 
Q 2881 1009 2881 1497 
Q 2881 1984 2565 2268 
Q 2250 2553 1709 2553 
Q 1456 2553 1204 2497 
Q 953 2441 691 2322 
L 691 4666 
z
" transform="scale(0.015625)"/>
     </defs>
     <use xlink:href="#DejaVuSans-31"/>
     <use xlink:href="#DejaVuSans-66" x="63.623047"/>
     <use xlink:href="#DejaVuSans-69" x="98.828125"/>
     <use xlink:href="#DejaVuSans-6e" x="126.611328"/>
     <use xlink:href="#DejaVuSans-61" x="189.990234"/>
     <use xlink:href="#DejaVuSans-6c" x="251.269531"/>
     <use xlink:href="#DejaVuSans-5f" x="279.052734"/>
     <use xlink:href="#DejaVuSans-7a" x="329.052734"/>
     <use xlink:href="#DejaVuSans-68" x="381.542969"/>
     <use xlink:href="#DejaVuSans-61" x="444.921875"/>
     <use xlink:href="#DejaVuSans-6e" x="506.201172"/>
     <use xlink:href="#DejaVuSans-67" x="569.580078"/>
     <use xlink:href="#DejaVuSans-5f" x="633.056641"/>
     <use xlink:href="#DejaVuSans-61" x="683.056641"/>
     <use xlink:href="#DejaVuSans-61" x="744.335938"/>
     <use xlink:href="#DejaVuSans-5f" x="805.615234"/>
     <use xlink:href="#DejaVuSans-73" x="855.615234"/>
     <use xlink:href="#DejaVuSans-6e" x="907.714844"/>
     <use xlink:href="#DejaVuSans-70" x="971.09375"/>
     <use xlink:href="#DejaVuSans-35" x="1034.570312"/>
     <use xlink:href="#DejaVuSans-30" x="1098.193359"/>
     <use xlink:href="#DejaVuSans-30" x="1161.816406"/>
    </g>
   </g>
   <g id="legend_1">
    <g id="patch_7">
     <path d="M 247.318437 302.584 
L 407.72 302.584 
Q 409.72 302.584 409.72 300.584 
L 409.72 213.51525 
Q 409.72 211.51525 407.72 211.51525 
L 247.318437 211.51525 
Q 245.318437 211.51525 245.318437 213.51525 
L 245.318437 300.584 
Q 245.318437 302.584 247.318437 302.584 
z
" style="fill: #ffffff; opacity: 0.8; stroke: #cccccc; stroke-linejoin: miter"/>
    </g>
    <g id="line2d_23">
     <path d="M 249.318437 219.613687 
L 259.318437 219.613687 
L 269.318437 219.613687 
" style="fill: none; stroke: #008000; stroke-opacity: 0.8; stroke-width: 0.5; stroke-linecap: square"/>
    </g>
    <g id="text_18">
     <!-- Positive predictions -->
     <g transform="translate(277.318437 223.113687) scale(0.1 -0.1)">
      <defs>
       <path id="DejaVuSans-50" d="M 1259 4147 
L 1259 2394 
L 2053 2394 
Q 2494 2394 2734 2622 
Q 2975 2850 2975 3272 
Q 2975 3691 2734 3919 
Q 2494 4147 2053 4147 
L 1259 4147 
z
M 628 4666 
L 2053 4666 
Q 2838 4666 3239 4311 
Q 3641 3956 3641 3272 
Q 3641 2581 3239 2228 
Q 2838 1875 2053 1875 
L 1259 1875 
L 1259 0 
L 628 0 
L 628 4666 
z
" transform="scale(0.015625)"/>
       <path id="DejaVuSans-6f" d="M 1959 3097 
Q 1497 3097 1228 2736 
Q 959 2375 959 1747 
Q 959 1119 1226 758 
Q 1494 397 1959 397 
Q 2419 397 2687 759 
Q 2956 1122 2956 1747 
Q 2956 2369 2687 2733 
Q 2419 3097 1959 3097 
z
M 1959 3584 
Q 2709 3584 3137 3096 
Q 3566 2609 3566 1747 
Q 3566 888 3137 398 
Q 2709 -91 1959 -91 
Q 1206 -91 779 398 
Q 353 888 353 1747 
Q 353 2609 779 3096 
Q 1206 3584 1959 3584 
z
" transform="scale(0.015625)"/>
       <path id="DejaVuSans-74" d="M 1172 4494 
L 1172 3500 
L 2356 3500 
L 2356 3053 
L 1172 3053 
L 1172 1153 
Q 1172 725 1289 603 
Q 1406 481 1766 481 
L 2356 481 
L 2356 0 
L 1766 0 
Q 1100 0 847 248 
Q 594 497 594 1153 
L 594 3053 
L 172 3053 
L 172 3500 
L 594 3500 
L 594 4494 
L 1172 4494 
z
" transform="scale(0.015625)"/>
       <path id="DejaVuSans-76" d="M 191 3500 
L 800 3500 
L 1894 563 
L 2988 3500 
L 3597 3500 
L 2284 0 
L 1503 0 
L 191 3500 
z
" transform="scale(0.015625)"/>
       <path id="DejaVuSans-65" d="M 3597 1894 
L 3597 1613 
L 953 1613 
Q 991 1019 1311 708 
Q 1631 397 2203 397 
Q 2534 397 2845 478 
Q 3156 559 3463 722 
L 3463 178 
Q 3153 47 2828 -22 
Q 2503 -91 2169 -91 
Q 1331 -91 842 396 
Q 353 884 353 1716 
Q 353 2575 817 3079 
Q 1281 3584 2069 3584 
Q 2775 3584 3186 3129 
Q 3597 2675 3597 1894 
z
M 3022 2063 
Q 3016 2534 2758 2815 
Q 2500 3097 2075 3097 
Q 1594 3097 1305 2825 
Q 1016 2553 972 2059 
L 3022 2063 
z
" transform="scale(0.015625)"/>
       <path id="DejaVuSans-20" transform="scale(0.015625)"/>
       <path id="DejaVuSans-72" d="M 2631 2963 
Q 2534 3019 2420 3045 
Q 2306 3072 2169 3072 
Q 1681 3072 1420 2755 
Q 1159 2438 1159 1844 
L 1159 0 
L 581 0 
L 581 3500 
L 1159 3500 
L 1159 2956 
Q 1341 3275 1631 3429 
Q 1922 3584 2338 3584 
Q 2397 3584 2469 3576 
Q 2541 3569 2628 3553 
L 2631 2963 
z
" transform="scale(0.015625)"/>
       <path id="DejaVuSans-64" d="M 2906 2969 
L 2906 4863 
L 3481 4863 
L 3481 0 
L 2906 0 
L 2906 525 
Q 2725 213 2448 61 
Q 2172 -91 1784 -91 
Q 1150 -91 751 415 
Q 353 922 353 1747 
Q 353 2572 751 3078 
Q 1150 3584 1784 3584 
Q 2172 3584 2448 3432 
Q 2725 3281 2906 2969 
z
M 947 1747 
Q 947 1113 1208 752 
Q 1469 391 1925 391 
Q 2381 391 2643 752 
Q 2906 1113 2906 1747 
Q 2906 2381 2643 2742 
Q 2381 3103 1925 3103 
Q 1469 3103 1208 2742 
Q 947 2381 947 1747 
z
" transform="scale(0.015625)"/>
       <path id="DejaVuSans-63" d="M 3122 3366 
L 3122 2828 
Q 2878 2963 2633 3030 
Q 2388 3097 2138 3097 
Q 1578 3097 1268 2742 
Q 959 2388 959 1747 
Q 959 1106 1268 751 
Q 1578 397 2138 397 
Q 2388 397 2633 464 
Q 2878 531 3122 666 
L 3122 134 
Q 2881 22 2623 -34 
Q 2366 -91 2075 -91 
Q 1284 -91 818 406 
Q 353 903 353 1747 
Q 353 2603 823 3093 
Q 1294 3584 2113 3584 
Q 2378 3584 2631 3529 
Q 2884 3475 3122 3366 
z
" transform="scale(0.015625)"/>
      </defs>
      <use xlink:href="#DejaVuSans-50"/>
      <use xlink:href="#DejaVuSans-6f" x="56.677734"/>
      <use xlink:href="#DejaVuSans-73" x="117.859375"/>
      <use xlink:href="#DejaVuSans-69" x="169.958984"/>
      <use xlink:href="#DejaVuSans-74" x="197.742188"/>
      <use xlink:href="#DejaVuSans-69" x="236.951172"/>
      <use xlink:href="#DejaVuSans-76" x="264.734375"/>
      <use xlink:href="#DejaVuSans-65" x="323.914062"/>
      <use xlink:href="#DejaVuSans-20" x="385.4375"/>
      <use xlink:href="#DejaVuSans-70" x="417.224609"/>
      <use xlink:href="#DejaVuSans-72" x="480.701172"/>
      <use xlink:href="#DejaVuSans-65" x="519.564453"/>
      <use xlink:href="#DejaVuSans-64" x="581.087891"/>
      <use xlink:href="#DejaVuSans-69" x="644.564453"/>
      <use xlink:href="#DejaVuSans-63" x="672.347656"/>
      <use xlink:href="#DejaVuSans-74" x="727.328125"/>
      <use xlink:href="#DejaVuSans-69" x="766.537109"/>
      <use xlink:href="#DejaVuSans-6f" x="794.320312"/>
      <use xlink:href="#DejaVuSans-6e" x="855.501953"/>
      <use xlink:href="#DejaVuSans-73" x="918.880859"/>
     </g>
    </g>
    <g id="line2d_24">
     <path d="M 249.318437 234.291812 
L 259.318437 234.291812 
L 269.318437 234.291812 
" style="fill: none; stroke: #32cd32; stroke-opacity: 0.8; stroke-width: 0.5; stroke-linecap: square"/>
    </g>
    <g id="text_19">
     <!-- Positive predictions max -->
     <g transform="translate(277.318437 237.791812) scale(0.1 -0.1)">
      <defs>
       <path id="DejaVuSans-6d" d="M 3328 2828 
Q 3544 3216 3844 3400 
Q 4144 3584 4550 3584 
Q 5097 3584 5394 3201 
Q 5691 2819 5691 2113 
L 5691 0 
L 5113 0 
L 5113 2094 
Q 5113 2597 4934 2840 
Q 4756 3084 4391 3084 
Q 3944 3084 3684 2787 
Q 3425 2491 3425 1978 
L 3425 0 
L 2847 0 
L 2847 2094 
Q 2847 2600 2669 2842 
Q 2491 3084 2119 3084 
Q 1678 3084 1418 2786 
Q 1159 2488 1159 1978 
L 1159 0 
L 581 0 
L 581 3500 
L 1159 3500 
L 1159 2956 
Q 1356 3278 1631 3431 
Q 1906 3584 2284 3584 
Q 2666 3584 2933 3390 
Q 3200 3197 3328 2828 
z
" transform="scale(0.015625)"/>
       <path id="DejaVuSans-78" d="M 3513 3500 
L 2247 1797 
L 3578 0 
L 2900 0 
L 1881 1375 
L 863 0 
L 184 0 
L 1544 1831 
L 300 3500 
L 978 3500 
L 1906 2253 
L 2834 3500 
L 3513 3500 
z
" transform="scale(0.015625)"/>
      </defs>
      <use xlink:href="#DejaVuSans-50"/>
      <use xlink:href="#DejaVuSans-6f" x="56.677734"/>
      <use xlink:href="#DejaVuSans-73" x="117.859375"/>
      <use xlink:href="#DejaVuSans-69" x="169.958984"/>
      <use xlink:href="#DejaVuSans-74" x="197.742188"/>
      <use xlink:href="#DejaVuSans-69" x="236.951172"/>
      <use xlink:href="#DejaVuSans-76" x="264.734375"/>
      <use xlink:href="#DejaVuSans-65" x="323.914062"/>
      <use xlink:href="#DejaVuSans-20" x="385.4375"/>
      <use xlink:href="#DejaVuSans-70" x="417.224609"/>
      <use xlink:href="#DejaVuSans-72" x="480.701172"/>
      <use xlink:href="#DejaVuSans-65" x="519.564453"/>
      <use xlink:href="#DejaVuSans-64" x="581.087891"/>
      <use xlink:href="#DejaVuSans-69" x="644.564453"/>
      <use xlink:href="#DejaVuSans-63" x="672.347656"/>
      <use xlink:href="#DejaVuSans-74" x="727.328125"/>
      <use xlink:href="#DejaVuSans-69" x="766.537109"/>
      <use xlink:href="#DejaVuSans-6f" x="794.320312"/>
      <use xlink:href="#DejaVuSans-6e" x="855.501953"/>
      <use xlink:href="#DejaVuSans-73" x="918.880859"/>
      <use xlink:href="#DejaVuSans-20" x="970.980469"/>
      <use xlink:href="#DejaVuSans-6d" x="1002.767578"/>
      <use xlink:href="#DejaVuSans-61" x="1100.179688"/>
      <use xlink:href="#DejaVuSans-78" x="1161.458984"/>
     </g>
    </g>
    <g id="line2d_25">
     <path d="M 249.318437 248.969937 
L 259.318437 248.969937 
L 269.318437 248.969937 
" style="fill: none; stroke: #32cd32; stroke-opacity: 0.8; stroke-width: 0.5; stroke-linecap: square"/>
    </g>
    <g id="text_20">
     <!-- Positive predictions min -->
     <g transform="translate(277.318437 252.469937) scale(0.1 -0.1)">
      <use xlink:href="#DejaVuSans-50"/>
      <use xlink:href="#DejaVuSans-6f" x="56.677734"/>
      <use xlink:href="#DejaVuSans-73" x="117.859375"/>
      <use xlink:href="#DejaVuSans-69" x="169.958984"/>
      <use xlink:href="#DejaVuSans-74" x="197.742188"/>
      <use xlink:href="#DejaVuSans-69" x="236.951172"/>
      <use xlink:href="#DejaVuSans-76" x="264.734375"/>
      <use xlink:href="#DejaVuSans-65" x="323.914062"/>
      <use xlink:href="#DejaVuSans-20" x="385.4375"/>
      <use xlink:href="#DejaVuSans-70" x="417.224609"/>
      <use xlink:href="#DejaVuSans-72" x="480.701172"/>
      <use xlink:href="#DejaVuSans-65" x="519.564453"/>
      <use xlink:href="#DejaVuSans-64" x="581.087891"/>
      <use xlink:href="#DejaVuSans-69" x="644.564453"/>
      <use xlink:href="#DejaVuSans-63" x="672.347656"/>
      <use xlink:href="#DejaVuSans-74" x="727.328125"/>
      <use xlink:href="#DejaVuSans-69" x="766.537109"/>
      <use xlink:href="#DejaVuSans-6f" x="794.320312"/>
      <use xlink:href="#DejaVuSans-6e" x="855.501953"/>
      <use xlink:href="#DejaVuSans-73" x="918.880859"/>
      <use xlink:href="#DejaVuSans-20" x="970.980469"/>
      <use xlink:href="#DejaVuSans-6d" x="1002.767578"/>
      <use xlink:href="#DejaVuSans-69" x="1100.179688"/>
      <use xlink:href="#DejaVuSans-6e" x="1127.962891"/>
     </g>
    </g>
    <g id="line2d_26">
     <path d="M 249.318437 263.648062 
L 259.318437 263.648062 
L 269.318437 263.648062 
" style="fill: none; stroke: #ff0000; stroke-opacity: 0.8; stroke-width: 0.5; stroke-linecap: square"/>
    </g>
    <g id="text_21">
     <!-- Negative predictions -->
     <g transform="translate(277.318437 267.148062) scale(0.1 -0.1)">
      <defs>
       <path id="DejaVuSans-4e" d="M 628 4666 
L 1478 4666 
L 3547 763 
L 3547 4666 
L 4159 4666 
L 4159 0 
L 3309 0 
L 1241 3903 
L 1241 0 
L 628 0 
L 628 4666 
z
" transform="scale(0.015625)"/>
      </defs>
      <use xlink:href="#DejaVuSans-4e"/>
      <use xlink:href="#DejaVuSans-65" x="74.804688"/>
      <use xlink:href="#DejaVuSans-67" x="136.328125"/>
      <use xlink:href="#DejaVuSans-61" x="199.804688"/>
      <use xlink:href="#DejaVuSans-74" x="261.083984"/>
      <use xlink:href="#DejaVuSans-69" x="300.292969"/>
      <use xlink:href="#DejaVuSans-76" x="328.076172"/>
      <use xlink:href="#DejaVuSans-65" x="387.255859"/>
      <use xlink:href="#DejaVuSans-20" x="448.779297"/>
      <use xlink:href="#DejaVuSans-70" x="480.566406"/>
      <use xlink:href="#DejaVuSans-72" x="544.042969"/>
      <use xlink:href="#DejaVuSans-65" x="582.90625"/>
      <use xlink:href="#DejaVuSans-64" x="644.429688"/>
      <use xlink:href="#DejaVuSans-69" x="707.90625"/>
      <use xlink:href="#DejaVuSans-63" x="735.689453"/>
      <use xlink:href="#DejaVuSans-74" x="790.669922"/>
      <use xlink:href="#DejaVuSans-69" x="829.878906"/>
      <use xlink:href="#DejaVuSans-6f" x="857.662109"/>
      <use xlink:href="#DejaVuSans-6e" x="918.84375"/>
      <use xlink:href="#DejaVuSans-73" x="982.222656"/>
     </g>
    </g>
    <g id="line2d_27">
     <path d="M 249.318437 278.326188 
L 259.318437 278.326188 
L 269.318437 278.326188 
" style="fill: none; stroke: #f08080; stroke-opacity: 0.8; stroke-width: 0.5; stroke-linecap: square"/>
    </g>
    <g id="text_22">
     <!-- Negative predictions max -->
     <g transform="translate(277.318437 281.826188) scale(0.1 -0.1)">
      <use xlink:href="#DejaVuSans-4e"/>
      <use xlink:href="#DejaVuSans-65" x="74.804688"/>
      <use xlink:href="#DejaVuSans-67" x="136.328125"/>
      <use xlink:href="#DejaVuSans-61" x="199.804688"/>
      <use xlink:href="#DejaVuSans-74" x="261.083984"/>
      <use xlink:href="#DejaVuSans-69" x="300.292969"/>
      <use xlink:href="#DejaVuSans-76" x="328.076172"/>
      <use xlink:href="#DejaVuSans-65" x="387.255859"/>
      <use xlink:href="#DejaVuSans-20" x="448.779297"/>
      <use xlink:href="#DejaVuSans-70" x="480.566406"/>
      <use xlink:href="#DejaVuSans-72" x="544.042969"/>
      <use xlink:href="#DejaVuSans-65" x="582.90625"/>
      <use xlink:href="#DejaVuSans-64" x="644.429688"/>
      <use xlink:href="#DejaVuSans-69" x="707.90625"/>
      <use xlink:href="#DejaVuSans-63" x="735.689453"/>
      <use xlink:href="#DejaVuSans-74" x="790.669922"/>
      <use xlink:href="#DejaVuSans-69" x="829.878906"/>
      <use xlink:href="#DejaVuSans-6f" x="857.662109"/>
      <use xlink:href="#DejaVuSans-6e" x="918.84375"/>
      <use xlink:href="#DejaVuSans-73" x="982.222656"/>
      <use xlink:href="#DejaVuSans-20" x="1034.322266"/>
      <use xlink:href="#DejaVuSans-6d" x="1066.109375"/>
      <use xlink:href="#DejaVuSans-61" x="1163.521484"/>
      <use xlink:href="#DejaVuSans-78" x="1224.800781"/>
     </g>
    </g>
    <g id="line2d_28">
     <path d="M 249.318437 293.004312 
L 259.318437 293.004312 
L 269.318437 293.004312 
" style="fill: none; stroke: #f08080; stroke-opacity: 0.8; stroke-width: 0.5; stroke-linecap: square"/>
    </g>
    <g id="text_23">
     <!-- Negative predictions min -->
     <g transform="translate(277.318437 296.504312) scale(0.1 -0.1)">
      <use xlink:href="#DejaVuSans-4e"/>
      <use xlink:href="#DejaVuSans-65" x="74.804688"/>
      <use xlink:href="#DejaVuSans-67" x="136.328125"/>
      <use xlink:href="#DejaVuSans-61" x="199.804688"/>
      <use xlink:href="#DejaVuSans-74" x="261.083984"/>
      <use xlink:href="#DejaVuSans-69" x="300.292969"/>
      <use xlink:href="#DejaVuSans-76" x="328.076172"/>
      <use xlink:href="#DejaVuSans-65" x="387.255859"/>
      <use xlink:href="#DejaVuSans-20" x="448.779297"/>
      <use xlink:href="#DejaVuSans-70" x="480.566406"/>
      <use xlink:href="#DejaVuSans-72" x="544.042969"/>
      <use xlink:href="#DejaVuSans-65" x="582.90625"/>
      <use xlink:href="#DejaVuSans-64" x="644.429688"/>
      <use xlink:href="#DejaVuSans-69" x="707.90625"/>
      <use xlink:href="#DejaVuSans-63" x="735.689453"/>
      <use xlink:href="#DejaVuSans-74" x="790.669922"/>
      <use xlink:href="#DejaVuSans-69" x="829.878906"/>
      <use xlink:href="#DejaVuSans-6f" x="857.662109"/>
      <use xlink:href="#DejaVuSans-6e" x="918.84375"/>
      <use xlink:href="#DejaVuSans-73" x="982.222656"/>
      <use xlink:href="#DejaVuSans-20" x="1034.322266"/>
      <use xlink:href="#DejaVuSans-6d" x="1066.109375"/>
      <use xlink:href="#DejaVuSans-69" x="1163.521484"/>
      <use xlink:href="#DejaVuSans-6e" x="1191.304688"/>
     </g>
    </g>
   </g>
  </g>
 </g>
 <defs>
  <clipPath id="p36cf710b2f">
   <rect x="57.6" y="41.472" width="357.12" height="266.112"/>
  </clipPath>
 </defs>
</svg>
