<?xml version="1.0" encoding="utf-8" standalone="no"?>
<!DOCTYPE svg PUBLIC "-//W3C//DTD SVG 1.1//EN"
  "http://www.w3.org/Graphics/SVG/1.1/DTD/svg11.dtd">
<svg xmlns:xlink="http://www.w3.org/1999/xlink" width="460.8pt" height="345.6pt" viewBox="0 0 460.8 345.6" xmlns="http://www.w3.org/2000/svg" version="1.1">
 <metadata>
  <rdf:RDF xmlns:dc="http://purl.org/dc/elements/1.1/" xmlns:cc="http://creativecommons.org/ns#" xmlns:rdf="http://www.w3.org/1999/02/22-rdf-syntax-ns#">
   <cc:Work>
    <dc:type rdf:resource="http://purl.org/dc/dcmitype/StillImage"/>
    <dc:date>2024-07-19T09:37:57.137351</dc:date>
    <dc:format>image/svg+xml</dc:format>
    <dc:creator>
     <cc:Agent>
      <dc:title>Matplotlib v3.9.0, https://matplotlib.org/</dc:title>
     </cc:Agent>
    </dc:creator>
   </cc:Work>
  </rdf:RDF>
 </metadata>
 <defs>
  <style type="text/css">*{stroke-linejoin: round; stroke-linecap: butt}</style>
 </defs>
 <g id="figure_1">
  <g id="patch_1">
   <path d="M 0 345.6 
L 460.8 345.6 
L 460.8 0 
L 0 0 
z
" style="fill: #ffffff"/>
  </g>
  <g id="axes_1">
   <g id="patch_2">
    <path d="M 57.6 307.584 
L 414.72 307.584 
L 414.72 41.472 
L 57.6 41.472 
z
" style="fill: #ffffff"/>
   </g>
   <g id="matplotlib.axis_1">
    <g id="xtick_1">
     <g id="line2d_1">
      <defs>
       <path id="m3d4ecd0320" d="M 0 0 
L 0 3.5 
" style="stroke: #000000; stroke-width: 0.8"/>
      </defs>
      <g>
       <use xlink:href="#m3d4ecd0320" x="73.832727" y="307.584" style="stroke: #000000; stroke-width: 0.8"/>
      </g>
     </g>
     <g id="text_1">
      <!-- 0 -->
      <g transform="translate(70.651477 322.182437) scale(0.1 -0.1)">
       <defs>
        <path id="DejaVuSans-30" d="M 2034 4250 
Q 1547 4250 1301 3770 
Q 1056 3291 1056 2328 
Q 1056 1369 1301 889 
Q 1547 409 2034 409 
Q 2525 409 2770 889 
Q 3016 1369 3016 2328 
Q 3016 3291 2770 3770 
Q 2525 4250 2034 4250 
z
M 2034 4750 
Q 2819 4750 3233 4129 
Q 3647 3509 3647 2328 
Q 3647 1150 3233 529 
Q 2819 -91 2034 -91 
Q 1250 -91 836 529 
Q 422 1150 422 2328 
Q 422 3509 836 4129 
Q 1250 4750 2034 4750 
z
" transform="scale(0.015625)"/>
       </defs>
       <use xlink:href="#DejaVuSans-30"/>
      </g>
     </g>
    </g>
    <g id="xtick_2">
     <g id="line2d_2">
      <g>
       <use xlink:href="#m3d4ecd0320" x="149.333784" y="307.584" style="stroke: #000000; stroke-width: 0.8"/>
      </g>
     </g>
     <g id="text_2">
      <!-- 50 -->
      <g transform="translate(142.971284 322.182437) scale(0.1 -0.1)">
       <defs>
        <path id="DejaVuSans-35" d="M 691 4666 
L 3169 4666 
L 3169 4134 
L 1269 4134 
L 1269 2991 
Q 1406 3038 1543 3061 
Q 1681 3084 1819 3084 
Q 2600 3084 3056 2656 
Q 3513 2228 3513 1497 
Q 3513 744 3044 326 
Q 2575 -91 1722 -91 
Q 1428 -91 1123 -41 
Q 819 9 494 109 
L 494 744 
Q 775 591 1075 516 
Q 1375 441 1709 441 
Q 2250 441 2565 725 
Q 2881 1009 2881 1497 
Q 2881 1984 2565 2268 
Q 2250 2553 1709 2553 
Q 1456 2553 1204 2497 
Q 953 2441 691 2322 
L 691 4666 
z
" transform="scale(0.015625)"/>
       </defs>
       <use xlink:href="#DejaVuSans-35"/>
       <use xlink:href="#DejaVuSans-30" x="63.623047"/>
      </g>
     </g>
    </g>
    <g id="xtick_3">
     <g id="line2d_3">
      <g>
       <use xlink:href="#m3d4ecd0320" x="224.834841" y="307.584" style="stroke: #000000; stroke-width: 0.8"/>
      </g>
     </g>
     <g id="text_3">
      <!-- 100 -->
      <g transform="translate(215.291091 322.182437) scale(0.1 -0.1)">
       <defs>
        <path id="DejaVuSans-31" d="M 794 531 
L 1825 531 
L 1825 4091 
L 703 3866 
L 703 4441 
L 1819 4666 
L 2450 4666 
L 2450 531 
L 3481 531 
L 3481 0 
L 794 0 
L 794 531 
z
" transform="scale(0.015625)"/>
       </defs>
       <use xlink:href="#DejaVuSans-31"/>
       <use xlink:href="#DejaVuSans-30" x="63.623047"/>
       <use xlink:href="#DejaVuSans-30" x="127.246094"/>
      </g>
     </g>
    </g>
    <g id="xtick_4">
     <g id="line2d_4">
      <g>
       <use xlink:href="#m3d4ecd0320" x="300.335899" y="307.584" style="stroke: #000000; stroke-width: 0.8"/>
      </g>
     </g>
     <g id="text_4">
      <!-- 150 -->
      <g transform="translate(290.792149 322.182437) scale(0.1 -0.1)">
       <use xlink:href="#DejaVuSans-31"/>
       <use xlink:href="#DejaVuSans-35" x="63.623047"/>
       <use xlink:href="#DejaVuSans-30" x="127.246094"/>
      </g>
     </g>
    </g>
    <g id="xtick_5">
     <g id="line2d_5">
      <g>
       <use xlink:href="#m3d4ecd0320" x="375.836956" y="307.584" style="stroke: #000000; stroke-width: 0.8"/>
      </g>
     </g>
     <g id="text_5">
      <!-- 200 -->
      <g transform="translate(366.293206 322.182437) scale(0.1 -0.1)">
       <defs>
        <path id="DejaVuSans-32" d="M 1228 531 
L 3431 531 
L 3431 0 
L 469 0 
L 469 531 
Q 828 903 1448 1529 
Q 2069 2156 2228 2338 
Q 2531 2678 2651 2914 
Q 2772 3150 2772 3378 
Q 2772 3750 2511 3984 
Q 2250 4219 1831 4219 
Q 1534 4219 1204 4116 
Q 875 4013 500 3803 
L 500 4441 
Q 881 4594 1212 4672 
Q 1544 4750 1819 4750 
Q 2544 4750 2975 4387 
Q 3406 4025 3406 3419 
Q 3406 3131 3298 2873 
Q 3191 2616 2906 2266 
Q 2828 2175 2409 1742 
Q 1991 1309 1228 531 
z
" transform="scale(0.015625)"/>
       </defs>
       <use xlink:href="#DejaVuSans-32"/>
       <use xlink:href="#DejaVuSans-30" x="63.623047"/>
       <use xlink:href="#DejaVuSans-30" x="127.246094"/>
      </g>
     </g>
    </g>
   </g>
   <g id="matplotlib.axis_2">
    <g id="ytick_1">
     <g id="line2d_6">
      <defs>
       <path id="mad3cc7a106" d="M 0 0 
L -3.5 0 
" style="stroke: #000000; stroke-width: 0.8"/>
      </defs>
      <g>
       <use xlink:href="#mad3cc7a106" x="57.6" y="294.512823" style="stroke: #000000; stroke-width: 0.8"/>
      </g>
     </g>
     <g id="text_6">
      <!-- 5000 -->
      <g transform="translate(25.15 298.312041) scale(0.1 -0.1)">
       <use xlink:href="#DejaVuSans-35"/>
       <use xlink:href="#DejaVuSans-30" x="63.623047"/>
       <use xlink:href="#DejaVuSans-30" x="127.246094"/>
       <use xlink:href="#DejaVuSans-30" x="190.869141"/>
      </g>
     </g>
    </g>
    <g id="ytick_2">
     <g id="line2d_7">
      <g>
       <use xlink:href="#mad3cc7a106" x="57.6" y="262.851216" style="stroke: #000000; stroke-width: 0.8"/>
      </g>
     </g>
     <g id="text_7">
      <!-- 5500 -->
      <g transform="translate(25.15 266.650435) scale(0.1 -0.1)">
       <use xlink:href="#DejaVuSans-35"/>
       <use xlink:href="#DejaVuSans-35" x="63.623047"/>
       <use xlink:href="#DejaVuSans-30" x="127.246094"/>
       <use xlink:href="#DejaVuSans-30" x="190.869141"/>
      </g>
     </g>
    </g>
    <g id="ytick_3">
     <g id="line2d_8">
      <g>
       <use xlink:href="#mad3cc7a106" x="57.6" y="231.18961" style="stroke: #000000; stroke-width: 0.8"/>
      </g>
     </g>
     <g id="text_8">
      <!-- 6000 -->
      <g transform="translate(25.15 234.988829) scale(0.1 -0.1)">
       <defs>
        <path id="DejaVuSans-36" d="M 2113 2584 
Q 1688 2584 1439 2293 
Q 1191 2003 1191 1497 
Q 1191 994 1439 701 
Q 1688 409 2113 409 
Q 2538 409 2786 701 
Q 3034 994 3034 1497 
Q 3034 2003 2786 2293 
Q 2538 2584 2113 2584 
z
M 3366 4563 
L 3366 3988 
Q 3128 4100 2886 4159 
Q 2644 4219 2406 4219 
Q 1781 4219 1451 3797 
Q 1122 3375 1075 2522 
Q 1259 2794 1537 2939 
Q 1816 3084 2150 3084 
Q 2853 3084 3261 2657 
Q 3669 2231 3669 1497 
Q 3669 778 3244 343 
Q 2819 -91 2113 -91 
Q 1303 -91 875 529 
Q 447 1150 447 2328 
Q 447 3434 972 4092 
Q 1497 4750 2381 4750 
Q 2619 4750 2861 4703 
Q 3103 4656 3366 4563 
z
" transform="scale(0.015625)"/>
       </defs>
       <use xlink:href="#DejaVuSans-36"/>
       <use xlink:href="#DejaVuSans-30" x="63.623047"/>
       <use xlink:href="#DejaVuSans-30" x="127.246094"/>
       <use xlink:href="#DejaVuSans-30" x="190.869141"/>
      </g>
     </g>
    </g>
    <g id="ytick_4">
     <g id="line2d_9">
      <g>
       <use xlink:href="#mad3cc7a106" x="57.6" y="199.528004" style="stroke: #000000; stroke-width: 0.8"/>
      </g>
     </g>
     <g id="text_9">
      <!-- 6500 -->
      <g transform="translate(25.15 203.327223) scale(0.1 -0.1)">
       <use xlink:href="#DejaVuSans-36"/>
       <use xlink:href="#DejaVuSans-35" x="63.623047"/>
       <use xlink:href="#DejaVuSans-30" x="127.246094"/>
       <use xlink:href="#DejaVuSans-30" x="190.869141"/>
      </g>
     </g>
    </g>
    <g id="ytick_5">
     <g id="line2d_10">
      <g>
       <use xlink:href="#mad3cc7a106" x="57.6" y="167.866398" style="stroke: #000000; stroke-width: 0.8"/>
      </g>
     </g>
     <g id="text_10">
      <!-- 7000 -->
      <g transform="translate(25.15 171.665617) scale(0.1 -0.1)">
       <defs>
        <path id="DejaVuSans-37" d="M 525 4666 
L 3525 4666 
L 3525 4397 
L 1831 0 
L 1172 0 
L 2766 4134 
L 525 4134 
L 525 4666 
z
" transform="scale(0.015625)"/>
       </defs>
       <use xlink:href="#DejaVuSans-37"/>
       <use xlink:href="#DejaVuSans-30" x="63.623047"/>
       <use xlink:href="#DejaVuSans-30" x="127.246094"/>
       <use xlink:href="#DejaVuSans-30" x="190.869141"/>
      </g>
     </g>
    </g>
    <g id="ytick_6">
     <g id="line2d_11">
      <g>
       <use xlink:href="#mad3cc7a106" x="57.6" y="136.204792" style="stroke: #000000; stroke-width: 0.8"/>
      </g>
     </g>
     <g id="text_11">
      <!-- 7500 -->
      <g transform="translate(25.15 140.004011) scale(0.1 -0.1)">
       <use xlink:href="#DejaVuSans-37"/>
       <use xlink:href="#DejaVuSans-35" x="63.623047"/>
       <use xlink:href="#DejaVuSans-30" x="127.246094"/>
       <use xlink:href="#DejaVuSans-30" x="190.869141"/>
      </g>
     </g>
    </g>
    <g id="ytick_7">
     <g id="line2d_12">
      <g>
       <use xlink:href="#mad3cc7a106" x="57.6" y="104.543186" style="stroke: #000000; stroke-width: 0.8"/>
      </g>
     </g>
     <g id="text_12">
      <!-- 8000 -->
      <g transform="translate(25.15 108.342405) scale(0.1 -0.1)">
       <defs>
        <path id="DejaVuSans-38" d="M 2034 2216 
Q 1584 2216 1326 1975 
Q 1069 1734 1069 1313 
Q 1069 891 1326 650 
Q 1584 409 2034 409 
Q 2484 409 2743 651 
Q 3003 894 3003 1313 
Q 3003 1734 2745 1975 
Q 2488 2216 2034 2216 
z
M 1403 2484 
Q 997 2584 770 2862 
Q 544 3141 544 3541 
Q 544 4100 942 4425 
Q 1341 4750 2034 4750 
Q 2731 4750 3128 4425 
Q 3525 4100 3525 3541 
Q 3525 3141 3298 2862 
Q 3072 2584 2669 2484 
Q 3125 2378 3379 2068 
Q 3634 1759 3634 1313 
Q 3634 634 3220 271 
Q 2806 -91 2034 -91 
Q 1263 -91 848 271 
Q 434 634 434 1313 
Q 434 1759 690 2068 
Q 947 2378 1403 2484 
z
M 1172 3481 
Q 1172 3119 1398 2916 
Q 1625 2713 2034 2713 
Q 2441 2713 2670 2916 
Q 2900 3119 2900 3481 
Q 2900 3844 2670 4047 
Q 2441 4250 2034 4250 
Q 1625 4250 1398 4047 
Q 1172 3844 1172 3481 
z
" transform="scale(0.015625)"/>
       </defs>
       <use xlink:href="#DejaVuSans-38"/>
       <use xlink:href="#DejaVuSans-30" x="63.623047"/>
       <use xlink:href="#DejaVuSans-30" x="127.246094"/>
       <use xlink:href="#DejaVuSans-30" x="190.869141"/>
      </g>
     </g>
    </g>
    <g id="ytick_8">
     <g id="line2d_13">
      <g>
       <use xlink:href="#mad3cc7a106" x="57.6" y="72.88158" style="stroke: #000000; stroke-width: 0.8"/>
      </g>
     </g>
     <g id="text_13">
      <!-- 8500 -->
      <g transform="translate(25.15 76.680798) scale(0.1 -0.1)">
       <use xlink:href="#DejaVuSans-38"/>
       <use xlink:href="#DejaVuSans-35" x="63.623047"/>
       <use xlink:href="#DejaVuSans-30" x="127.246094"/>
       <use xlink:href="#DejaVuSans-30" x="190.869141"/>
      </g>
     </g>
    </g>
   </g>
   <g id="line2d_14">
    <path d="M 73.832727 295.230486 
L 75.342748 294.745008 
L 76.85277 292.275402 
L 78.362791 290.83103 
L 79.872812 290.903399 
L 81.382833 289.866482 
L 82.892854 290.447472 
L 84.402875 289.484959 
L 85.912896 289.679151 
L 87.422918 286.778344 
L 88.932939 283.07665 
L 90.44296 276.244076 
L 91.952981 276.835092 
L 93.463002 277.135124 
L 94.973023 278.980543 
L 96.483044 277.151709 
L 97.993066 276.275737 
L 99.503087 276.565215 
L 101.013108 274.333826 
L 102.523129 272.476345 
L 104.03315 269.753447 
L 105.543171 269.318099 
L 107.053192 268.423659 
L 108.563214 267.748211 
L 110.073235 267.632119 
L 111.583256 267.663781 
L 113.093277 266.618948 
L 114.603298 266.428978 
L 116.113319 265.827407 
L 117.62334 266.326078 
L 119.133362 265.712274 
L 120.643383 266.101808 
L 122.153404 265.458022 
L 125.173446 266.827914 
L 126.683467 265.708676 
L 128.193488 266.875119 
L 129.70351 262.851216 
L 131.213531 262.133553 
L 132.723552 262.373414 
L 135.743594 261.231198 
L 137.253615 260.324045 
L 138.763636 260.634904 
L 141.783679 260.087611 
L 143.2937 259.256406 
L 144.803721 257.215451 
L 146.313742 255.63237 
L 147.823763 254.94848 
L 149.333784 252.160147 
L 152.353827 247.77055 
L 153.863848 246.841957 
L 155.373869 246.179119 
L 156.88389 244.849332 
L 159.903932 245.2938 
L 161.413953 243.15242 
L 162.923975 240.201295 
L 164.433996 238.487611 
L 165.944017 239.164377 
L 167.454038 239.143006 
L 168.964059 239.701305 
L 170.47408 239.976924 
L 171.984101 240.822188 
L 173.494123 238.889713 
L 175.004144 239.380654 
L 176.514165 238.244872 
L 178.024186 238.468055 
L 179.534207 237.775224 
L 181.044228 238.028517 
L 182.554249 237.351446 
L 184.064271 235.421712 
L 185.574292 235.178973 
L 187.084313 232.543753 
L 190.104355 230.749681 
L 191.614376 230.645776 
L 193.124397 230.393547 
L 194.634419 230.990142 
L 196.14444 231.295149 
L 197.654461 229.902038 
L 199.164482 230.155331 
L 200.674503 227.17914 
L 202.184524 225.475908 
L 203.694545 224.970366 
L 205.204567 221.552969 
L 206.714588 221.680575 
L 208.224609 222.640977 
L 209.73463 222.223788 
L 211.244651 221.522267 
L 212.754672 220.333637 
L 214.264693 217.014953 
L 215.774715 217.496599 
L 217.284736 215.6709 
L 218.794757 215.112821 
L 220.304778 216.276994 
L 221.814799 215.597201 
L 223.32482 216.067089 
L 224.834841 213.783033 
L 226.344863 213.585757 
L 227.854884 212.509263 
L 229.364905 212.41076 
L 230.874926 213.297637 
L 232.384947 212.699232 
L 233.894968 211.8602 
L 235.404989 212.14832 
L 236.915011 210.229627 
L 238.425032 204.653666 
L 239.935053 205.663805 
L 241.445074 205.87299 
L 242.955095 204.641354 
L 244.465116 204.768 
L 245.975137 205.83183 
L 247.485159 201.191072 
L 248.99518 201.086961 
L 250.505201 198.149793 
L 252.015222 199.931162 
L 253.525243 197.844182 
L 255.035264 196.529788 
L 256.545285 192.234822 
L 258.055307 192.825957 
L 259.565328 192.592605 
L 261.075349 193.942369 
L 262.58537 193.356869 
L 264.095391 194.709504 
L 265.605412 193.522512 
L 267.115433 189.363121 
L 268.625455 190.819971 
L 270.135476 189.56899 
L 271.645497 189.165023 
L 273.155518 185.771968 
L 274.665539 186.458093 
L 276.17556 184.426685 
L 277.685581 183.554213 
L 279.195603 180.970785 
L 280.705624 180.087778 
L 282.215645 180.920874 
L 283.725666 177.690994 
L 285.235687 176.12857 
L 286.745708 169.386155 
L 288.255729 165.335448 
L 291.275772 159.489924 
L 292.785793 158.527491 
L 294.295814 154.642401 
L 295.805835 147.051445 
L 297.315856 147.130685 
L 298.825877 146.194029 
L 300.335899 147.549779 
L 301.84592 147.209599 
L 303.355941 147.413001 
L 304.865962 146.383998 
L 307.886004 140.967602 
L 309.396025 139.647272 
L 310.906047 140.388995 
L 313.926089 132.400528 
L 315.43611 130.477841 
L 316.946131 126.579664 
L 318.456152 125.026486 
L 319.966173 124.707106 
L 321.476195 122.366911 
L 322.986216 122.664542 
L 324.496237 122.032372 
L 326.006258 122.767606 
L 329.0263 120.828169 
L 330.536321 120.313998 
L 332.046342 117.875158 
L 333.556364 110.059341 
L 335.066385 108.099417 
L 336.576406 109.745958 
L 338.086427 110.818735 
L 339.596448 111.411116 
L 341.106469 112.399486 
L 342.61649 111.829577 
L 344.126512 106.892695 
L 345.636533 107.177431 
L 347.146554 105.406914 
L 348.656575 103.203267 
L 350.166596 100.68047 
L 351.676617 99.977582 
L 353.186638 97.201779 
L 354.69666 97.160626 
L 356.206681 96.902185 
L 357.716702 97.949973 
L 359.226723 96.847908 
L 360.736744 95.988616 
L 362.246765 93.672701 
L 363.756786 92.187561 
L 365.266808 84.461557 
L 366.776829 79.876816 
L 368.28685 67.245814 
L 369.796871 62.613907 
L 371.306892 64.33808 
L 372.816913 67.281999 
L 375.836956 69.503682 
L 377.346977 69.440359 
L 378.856998 70.179789 
L 380.367019 66.861789 
L 381.87704 67.073575 
L 383.387061 66.476437 
L 384.897082 66.864012 
L 386.407104 66.135679 
L 387.917125 66.675905 
L 390.937167 63.042736 
L 392.447188 62.464911 
L 393.957209 61.068001 
L 395.46723 59.862629 
L 396.977252 59.724825 
L 398.487273 54.32426 
L 398.487273 54.32426 
" clip-path="url(#p491041fef1)" style="fill: none; stroke: #1f77b4; stroke-opacity: 0.7; stroke-width: 0.5; stroke-linecap: square"/>
   </g>
   <g id="line2d_15">
    <path d="M 73.832727 295.488 
L 75.342748 294.20676 
L 76.85277 291.829501 
L 78.362791 290.71343 
L 79.872812 290.52346 
L 84.402875 289.320319 
L 85.912896 289.383642 
L 87.422918 287.131145 
L 88.932939 283.00609 
L 90.44296 276.853562 
L 91.952981 277.233501 
L 93.463002 277.896812 
L 94.973023 279.279067 
L 96.483044 277.324088 
L 97.993066 277.331124 
L 99.503087 276.06466 
L 101.013108 274.099002 
L 104.03315 269.512818 
L 105.543171 268.895065 
L 107.053192 267.302838 
L 108.563214 268.100007 
L 110.073235 267.826612 
L 111.583256 268.702281 
L 113.093277 266.895987 
L 114.603298 266.072785 
L 119.133362 266.056954 
L 120.643383 266.514917 
L 123.663425 266.474711 
L 125.173446 267.473811 
L 126.683467 266.85641 
L 128.193488 266.605378 
L 129.70351 262.778847 
L 131.213531 261.561006 
L 132.723552 262.262311 
L 134.233573 261.190741 
L 135.743594 260.684155 
L 137.253615 260.409755 
L 138.763636 260.473078 
L 140.273658 260.935689 
L 141.783679 259.685056 
L 143.2937 258.587453 
L 146.313742 255.592793 
L 147.823763 254.698353 
L 149.333784 251.975455 
L 150.843805 250.478835 
L 152.353827 247.802641 
L 153.863848 246.869412 
L 155.373869 246.767121 
L 156.88389 245.254399 
L 158.393911 245.070963 
L 159.903932 245.405671 
L 161.413953 242.612144 
L 162.923975 240.650098 
L 164.433996 239.562346 
L 165.944017 238.883381 
L 167.454038 240.256343 
L 168.964059 239.87846 
L 170.47408 240.194171 
L 171.984101 240.356863 
L 173.494123 239.049138 
L 175.004144 240.662763 
L 176.514165 238.119984 
L 178.024186 238.056661 
L 179.534207 237.868098 
L 181.044228 237.994745 
L 182.554249 236.818711 
L 184.064271 234.896129 
L 185.574292 234.945468 
L 187.084313 232.481404 
L 188.594334 231.349781 
L 190.104355 230.577486 
L 191.614376 230.512843 
L 194.634419 230.761425 
L 196.14444 231.468977 
L 197.654461 229.808013 
L 199.164482 230.661917 
L 202.184524 225.02747 
L 203.694545 224.077622 
L 205.204567 221.676229 
L 206.714588 222.03774 
L 208.224609 221.797986 
L 209.73463 221.969751 
L 211.244651 222.633061 
L 212.754672 220.163456 
L 214.264693 217.047426 
L 215.774715 217.110749 
L 217.284736 215.015529 
L 218.794757 215.647719 
L 220.304778 215.825816 
L 221.814799 215.433305 
L 223.32482 216.003214 
L 224.834841 214.000876 
L 226.344863 213.513388 
L 227.854884 212.454574 
L 229.364905 212.896238 
L 230.874926 212.982076 
L 232.384947 213.463634 
L 233.894968 212.467047 
L 235.404989 212.672094 
L 236.915011 210.224561 
L 238.425032 204.159234 
L 239.935053 205.87299 
L 241.445074 205.80918 
L 242.955095 205.387837 
L 244.465116 203.923691 
L 245.975137 205.150004 
L 247.485159 200.928421 
L 248.99518 201.333888 
L 250.505201 198.500761 
L 252.015222 200.215513 
L 253.525243 197.949447 
L 255.035264 196.832245 
L 256.545285 191.306118 
L 258.055307 193.012264 
L 259.565328 193.274291 
L 261.075349 194.181323 
L 264.095391 194.442359 
L 265.605412 193.448976 
L 267.115433 189.15761 
L 268.625455 190.891535 
L 271.645497 189.980498 
L 273.155518 186.200579 
L 274.665539 186.413971 
L 276.17556 183.805463 
L 277.685581 183.582428 
L 279.195603 181.413608 
L 280.705624 180.157038 
L 282.215645 181.339045 
L 283.725666 177.978923 
L 285.235687 175.928235 
L 286.745708 169.160302 
L 288.255729 166.003161 
L 289.765751 163.447845 
L 291.275772 159.749154 
L 292.785793 159.867885 
L 294.295814 154.842303 
L 295.805835 147.486537 
L 297.315856 147.107559 
L 298.825877 147.234206 
L 300.335899 147.51171 
L 301.84592 147.641781 
L 303.355941 147.893512 
L 304.865962 147.569446 
L 306.375983 144.100292 
L 307.886004 141.169728 
L 309.396025 141.063793 
L 310.906047 140.06399 
L 313.926089 132.274915 
L 315.43611 130.818481 
L 316.946131 126.503303 
L 318.456152 125.426809 
L 319.966173 124.67438 
L 321.476195 123.128549 
L 322.986216 123.870837 
L 324.496237 123.110579 
L 326.006258 123.399431 
L 327.516279 123.396839 
L 329.0263 121.450484 
L 330.536321 121.609883 
L 332.046342 118.285989 
L 333.556364 110.301873 
L 335.066385 109.459067 
L 336.576406 111.092917 
L 338.086427 110.740226 
L 339.596448 110.690814 
L 341.106469 113.559205 
L 342.61649 112.597898 
L 344.126512 106.670196 
L 345.636533 107.026863 
L 347.146554 105.802804 
L 348.656575 102.561169 
L 350.166596 100.602534 
L 351.676617 100.317645 
L 353.186638 97.177615 
L 354.69666 98.084218 
L 356.206681 97.512643 
L 357.716702 97.478125 
L 359.226723 97.023554 
L 360.736744 97.188195 
L 362.246765 94.115964 
L 363.756786 91.474249 
L 365.266808 84.460892 
L 366.776829 80.732075 
L 368.28685 67.649315 
L 369.796871 64.119809 
L 371.306892 65.449597 
L 372.816913 68.297953 
L 374.326934 68.779337 
L 375.836956 70.408356 
L 377.346977 69.865233 
L 378.856998 70.83221 
L 380.367019 66.421173 
L 381.87704 67.171937 
L 383.387061 68.274816 
L 384.897082 68.253708 
L 386.407104 66.562828 
L 387.917125 66.262545 
L 389.427146 66.515838 
L 390.937167 62.303789 
L 392.447188 61.008477 
L 393.957209 61.181177 
L 395.46723 60.936289 
L 396.977252 61.501871 
L 398.487273 54.714701 
L 398.487273 54.714701 
" clip-path="url(#p491041fef1)" style="fill: none; stroke: #ff7f0e; stroke-opacity: 0.7; stroke-width: 0.5; stroke-linecap: square"/>
   </g>
   <g id="line2d_16">
    <path d="M 73.832727 295.359243 
L 75.342748 294.475884 
L 76.85277 292.052452 
L 78.362791 290.77223 
L 79.872812 290.71343 
L 81.382833 290.005001 
L 82.892854 290.131912 
L 84.402875 289.402639 
L 85.912896 289.531397 
L 87.422918 286.954745 
L 88.932939 283.04137 
L 90.44296 276.548819 
L 93.463002 277.515968 
L 94.973023 279.129805 
L 96.483044 277.237898 
L 99.503087 276.314937 
L 102.523129 272.110477 
L 104.03315 269.633132 
L 105.543171 269.106582 
L 107.053192 267.863249 
L 108.563214 267.924109 
L 110.073235 267.729365 
L 111.583256 268.183031 
L 113.093277 266.757467 
L 114.603298 266.250881 
L 116.113319 265.950096 
L 117.62334 266.191516 
L 119.133362 265.884614 
L 120.643383 266.308362 
L 122.153404 265.954808 
L 123.663425 266.299869 
L 125.173446 267.150863 
L 126.683467 266.282543 
L 128.193488 266.740249 
L 129.70351 262.815032 
L 131.213531 261.84728 
L 132.723552 262.317862 
L 134.233573 261.50288 
L 137.253615 260.3669 
L 140.273658 260.675699 
L 141.783679 259.886333 
L 143.2937 258.92193 
L 144.803721 257.143492 
L 146.313742 255.612582 
L 147.823763 254.823416 
L 149.333784 252.067801 
L 150.843805 250.266743 
L 152.353827 247.786596 
L 153.863848 246.855684 
L 155.373869 246.47312 
L 156.88389 245.051866 
L 158.393911 245.081227 
L 159.903932 245.349736 
L 162.923975 240.425697 
L 164.433996 239.024978 
L 165.944017 239.023879 
L 167.454038 239.699674 
L 168.964059 239.789883 
L 170.47408 240.085547 
L 171.984101 240.589526 
L 173.494123 238.969426 
L 175.004144 240.021708 
L 176.514165 238.182428 
L 178.024186 238.262358 
L 179.534207 237.821661 
L 181.044228 238.011631 
L 182.554249 237.085078 
L 184.064271 235.15892 
L 185.574292 235.062221 
L 187.084313 232.512578 
L 188.594334 231.516656 
L 190.104355 230.663583 
L 193.124397 230.500292 
L 194.634419 230.875783 
L 196.14444 231.382063 
L 197.654461 229.855026 
L 199.164482 230.408624 
L 200.674503 227.533842 
L 202.184524 225.251689 
L 203.694545 224.523994 
L 205.204567 221.614599 
L 206.714588 221.859157 
L 208.224609 222.219482 
L 211.244651 222.077664 
L 212.754672 220.248547 
L 214.264693 217.03119 
L 215.774715 217.303674 
L 217.284736 215.343214 
L 218.794757 215.38027 
L 220.304778 216.051405 
L 221.814799 215.515253 
L 223.32482 216.035152 
L 224.834841 213.891955 
L 226.344863 213.549573 
L 227.854884 212.481919 
L 229.364905 212.653499 
L 230.874926 213.139856 
L 232.384947 213.081433 
L 233.894968 212.163623 
L 235.404989 212.410207 
L 236.915011 210.227094 
L 238.425032 204.40645 
L 239.935053 205.768398 
L 241.445074 205.841085 
L 242.955095 205.014595 
L 244.465116 204.345845 
L 245.975137 205.490917 
L 247.485159 201.059747 
L 248.99518 201.210425 
L 250.505201 198.325277 
L 252.015222 200.073338 
L 253.525243 197.896815 
L 255.035264 196.681016 
L 256.545285 191.77047 
L 258.055307 192.919111 
L 259.565328 192.933448 
L 261.075349 194.061846 
L 262.58537 193.82112 
L 264.095391 194.575931 
L 265.605412 193.485744 
L 267.115433 189.260366 
L 268.625455 190.855753 
L 270.135476 189.99912 
L 271.645497 189.57276 
L 273.155518 185.986273 
L 274.665539 186.436032 
L 276.17556 184.116074 
L 277.685581 183.568321 
L 279.195603 181.192196 
L 280.705624 180.122408 
L 282.215645 181.129959 
L 283.725666 177.834959 
L 285.235687 176.028402 
L 286.745708 169.273229 
L 288.255729 165.669304 
L 289.765751 162.939171 
L 291.275772 159.619539 
L 292.785793 159.197688 
L 294.295814 154.742352 
L 295.805835 147.268991 
L 297.315856 147.119122 
L 298.825877 146.714117 
L 300.335899 147.530744 
L 301.84592 147.42569 
L 303.355941 147.653256 
L 304.865962 146.976722 
L 307.886004 141.068665 
L 309.396025 140.355533 
L 310.906047 140.226492 
L 313.926089 132.337722 
L 315.43611 130.648161 
L 316.946131 126.541484 
L 318.456152 125.226647 
L 319.966173 124.690743 
L 321.476195 122.74773 
L 322.986216 123.26769 
L 324.496237 122.571476 
L 326.006258 123.083519 
L 327.516279 122.623763 
L 329.0263 121.139326 
L 330.536321 120.961941 
L 332.046342 118.080573 
L 333.556364 110.180607 
L 335.066385 108.779242 
L 336.576406 110.419437 
L 339.596448 111.050965 
L 341.106469 112.979345 
L 342.61649 112.213738 
L 344.126512 106.781446 
L 345.636533 107.102147 
L 347.146554 105.604859 
L 348.656575 102.882218 
L 350.166596 100.641502 
L 351.676617 100.147614 
L 353.186638 97.189697 
L 354.69666 97.622422 
L 356.206681 97.207414 
L 357.716702 97.714049 
L 359.226723 96.935731 
L 360.736744 96.588405 
L 362.246765 93.894332 
L 363.756786 91.830905 
L 365.266808 84.461224 
L 366.776829 80.304445 
L 368.28685 67.447565 
L 369.796871 63.366858 
L 371.306892 64.893839 
L 372.816913 67.789976 
L 374.326934 68.612103 
L 375.836956 69.956019 
L 377.346977 69.652796 
L 378.856998 70.506 
L 380.367019 66.641481 
L 381.87704 67.122756 
L 384.897082 67.55886 
L 386.407104 66.349253 
L 387.917125 66.469225 
L 389.427146 65.701624 
L 390.937167 62.673262 
L 392.447188 61.736694 
L 395.46723 60.399459 
L 396.977252 60.613348 
L 398.487273 54.51948 
L 398.487273 54.51948 
" clip-path="url(#p491041fef1)" style="fill: none; stroke: #2ca02c; stroke-opacity: 0.7; stroke-width: 0.5; stroke-linecap: square"/>
   </g>
   <g id="line2d_17">
    <path d="M 73.832727 295.019408 
L 75.342748 292.48648 
L 78.362791 291.220015 
L 79.872812 290.840076 
L 81.382833 290.776753 
L 82.892854 290.016874 
L 84.402875 290.080198 
L 85.912896 287.800562 
L 87.422918 283.937846 
L 88.932939 277.922141 
L 90.44296 278.048787 
L 91.952981 278.555373 
L 93.463002 279.948484 
L 94.973023 278.365403 
L 96.483044 277.795495 
L 97.993066 276.90897 
L 99.503087 274.882627 
L 101.013108 273.236223 
L 102.523129 271.019911 
L 104.03315 270.386679 
L 105.543171 268.866922 
L 107.053192 268.866922 
L 108.563214 268.676952 
L 110.073235 268.613629 
L 113.093277 266.840579 
L 114.603298 266.840579 
L 116.113319 266.713932 
L 117.62334 266.713932 
L 119.133362 266.46064 
L 120.643383 266.397316 
L 122.153404 266.967225 
L 123.663425 267.157195 
L 125.173446 267.093872 
L 126.683467 267.157195 
L 128.193488 263.864388 
L 129.70351 262.471277 
L 131.213531 263.421125 
L 132.723552 262.154661 
L 134.233573 261.648075 
L 135.743594 261.331459 
L 137.253615 261.394783 
L 138.763636 260.824874 
L 140.273658 260.508258 
L 141.783679 259.685056 
L 143.2937 258.291945 
L 144.803721 256.708865 
L 146.313742 255.442401 
L 147.823763 253.226088 
L 149.333784 251.263069 
L 150.843805 248.983433 
L 152.353827 247.653645 
L 153.863848 247.400353 
L 155.373869 246.070565 
L 156.88389 245.817272 
L 158.393911 246.450504 
L 161.413953 241.511294 
L 162.923975 240.05486 
L 164.433996 239.86489 
L 165.944017 240.434799 
L 168.964059 240.814739 
L 170.47408 241.447971 
L 171.984101 240.181506 
L 173.494123 240.561446 
L 175.004144 239.168335 
L 176.514165 239.105012 
L 178.024186 238.598426 
L 179.534207 238.725073 
L 181.044228 237.838548 
L 182.554249 236.192144 
L 184.064271 235.685558 
L 185.574292 233.532569 
L 187.084313 232.076135 
L 188.594334 231.506226 
L 190.104355 231.759519 
L 191.614376 231.18961 
L 193.124397 231.696196 
L 194.634419 232.076135 
L 196.14444 230.683025 
L 197.654461 230.809671 
L 199.164482 228.720005 
L 200.674503 226.377046 
L 202.184524 225.427198 
L 203.694545 223.084239 
L 205.204567 222.7043 
L 206.714588 223.147562 
L 208.224609 223.147562 
L 209.73463 222.957593 
L 211.244651 221.057896 
L 212.754672 218.398321 
L 214.264693 218.461645 
L 215.774715 216.435302 
L 217.284736 216.118686 
L 218.794757 216.941888 
L 220.304778 216.435302 
L 221.814799 217.005211 
L 223.32482 214.788898 
L 224.834841 214.345636 
L 226.344863 213.269141 
L 227.854884 213.395788 
L 229.364905 213.965697 
L 232.384947 213.079172 
L 233.894968 212.952525 
L 235.404989 211.052829 
L 236.915011 205.607033 
L 238.425032 206.556881 
L 239.935053 206.430234 
L 241.445074 206.050295 
L 242.955095 205.227093 
L 244.465116 206.493558 
L 245.975137 201.934286 
L 247.485159 201.934286 
L 248.99518 199.401358 
L 250.505201 200.794468 
L 252.015222 198.768126 
L 253.525243 197.501661 
L 255.035264 192.879067 
L 256.545285 193.702269 
L 258.055307 193.892238 
L 259.565328 194.52547 
L 261.075349 194.588794 
L 262.58537 195.538642 
L 264.095391 194.398824 
L 265.605412 190.662754 
L 267.115433 191.485956 
L 270.135476 190.536108 
L 271.645497 187.243301 
L 273.155518 187.116655 
L 274.665539 184.773696 
L 276.17556 184.26711 
L 277.685581 182.367414 
L 279.195603 180.91098 
L 280.705624 181.670858 
L 282.215645 178.94796 
L 283.725666 176.668325 
L 285.235687 170.589296 
L 286.745708 166.789903 
L 289.765751 160.964168 
L 291.275772 159.887673 
L 292.785793 155.961634 
L 294.295814 148.996081 
L 295.805835 147.982909 
L 297.315856 148.109556 
L 298.825877 148.362849 
L 300.335899 149.059404 
L 301.84592 148.996081 
L 303.355941 148.299525 
L 306.375983 142.66376 
L 307.886004 141.587265 
L 309.396025 141.144003 
L 312.416068 133.671863 
L 313.926089 132.21543 
L 315.43611 127.972774 
L 316.946131 126.89628 
L 318.456152 126.073078 
L 319.966173 124.236705 
L 322.986216 123.856766 
L 324.496237 124.110058 
L 326.006258 123.54015 
L 327.516279 122.210362 
L 329.0263 122.083716 
L 330.536321 119.550787 
L 332.046342 111.952002 
L 333.556364 110.178952 
L 335.066385 111.635386 
L 336.576406 112.141971 
L 338.086427 112.141971 
L 339.596448 113.661728 
L 341.106469 113.091819 
L 342.61649 108.215932 
L 344.126512 108.405902 
L 345.636533 107.139438 
L 347.146554 104.099923 
L 348.656575 101.377025 
L 350.166596 101.693641 
L 351.676617 98.71745 
L 353.186638 98.90742 
L 354.69666 98.844097 
L 356.206681 98.590804 
L 357.716702 97.640956 
L 359.226723 97.450986 
L 360.736744 95.614613 
L 362.246765 92.828392 
L 363.756786 85.989485 
L 365.266808 81.620183 
L 366.776829 69.272157 
L 368.28685 65.092825 
L 369.796871 66.422612 
L 371.306892 69.652096 
L 372.816913 69.778742 
L 374.326934 70.791914 
L 375.836956 70.728591 
L 377.346977 71.10853 
L 378.856998 68.195662 
L 380.367019 67.942369 
L 381.87704 68.702248 
L 383.387061 68.828894 
L 384.897082 67.435783 
L 386.407104 66.802551 
L 387.917125 67.055844 
L 389.427146 63.953007 
L 390.937167 62.749866 
L 392.447188 61.989987 
L 393.957209 62.05331 
L 395.46723 61.673371 
L 396.977252 56.354221 
L 398.487273 53.568 
L 398.487273 53.568 
" clip-path="url(#p491041fef1)" style="fill: none; stroke: #d62728; stroke-opacity: 0.7; stroke-width: 0.5; stroke-linecap: square"/>
   </g>
   <g id="patch_3">
    <path d="M 57.6 307.584 
L 57.6 41.472 
" style="fill: none; stroke: #000000; stroke-width: 0.8; stroke-linejoin: miter; stroke-linecap: square"/>
   </g>
   <g id="patch_4">
    <path d="M 414.72 307.584 
L 414.72 41.472 
" style="fill: none; stroke: #000000; stroke-width: 0.8; stroke-linejoin: miter; stroke-linecap: square"/>
   </g>
   <g id="patch_5">
    <path d="M 57.6 307.584 
L 414.72 307.584 
" style="fill: none; stroke: #000000; stroke-width: 0.8; stroke-linejoin: miter; stroke-linecap: square"/>
   </g>
   <g id="patch_6">
    <path d="M 57.6 41.472 
L 414.72 41.472 
" style="fill: none; stroke: #000000; stroke-width: 0.8; stroke-linejoin: miter; stroke-linecap: square"/>
   </g>
   <g id="text_14">
    <!-- colouring_cci -->
    <g transform="translate(197.039062 35.472) scale(0.12 -0.12)">
     <defs>
      <path id="DejaVuSans-63" d="M 3122 3366 
L 3122 2828 
Q 2878 2963 2633 3030 
Q 2388 3097 2138 3097 
Q 1578 3097 1268 2742 
Q 959 2388 959 1747 
Q 959 1106 1268 751 
Q 1578 397 2138 397 
Q 2388 397 2633 464 
Q 2878 531 3122 666 
L 3122 134 
Q 2881 22 2623 -34 
Q 2366 -91 2075 -91 
Q 1284 -91 818 406 
Q 353 903 353 1747 
Q 353 2603 823 3093 
Q 1294 3584 2113 3584 
Q 2378 3584 2631 3529 
Q 2884 3475 3122 3366 
z
" transform="scale(0.015625)"/>
      <path id="DejaVuSans-6f" d="M 1959 3097 
Q 1497 3097 1228 2736 
Q 959 2375 959 1747 
Q 959 1119 1226 758 
Q 1494 397 1959 397 
Q 2419 397 2687 759 
Q 2956 1122 2956 1747 
Q 2956 2369 2687 2733 
Q 2419 3097 1959 3097 
z
M 1959 3584 
Q 2709 3584 3137 3096 
Q 3566 2609 3566 1747 
Q 3566 888 3137 398 
Q 2709 -91 1959 -91 
Q 1206 -91 779 398 
Q 353 888 353 1747 
Q 353 2609 779 3096 
Q 1206 3584 1959 3584 
z
" transform="scale(0.015625)"/>
      <path id="DejaVuSans-6c" d="M 603 4863 
L 1178 4863 
L 1178 0 
L 603 0 
L 603 4863 
z
" transform="scale(0.015625)"/>
      <path id="DejaVuSans-75" d="M 544 1381 
L 544 3500 
L 1119 3500 
L 1119 1403 
Q 1119 906 1312 657 
Q 1506 409 1894 409 
Q 2359 409 2629 706 
Q 2900 1003 2900 1516 
L 2900 3500 
L 3475 3500 
L 3475 0 
L 2900 0 
L 2900 538 
Q 2691 219 2414 64 
Q 2138 -91 1772 -91 
Q 1169 -91 856 284 
Q 544 659 544 1381 
z
M 1991 3584 
L 1991 3584 
z
" transform="scale(0.015625)"/>
      <path id="DejaVuSans-72" d="M 2631 2963 
Q 2534 3019 2420 3045 
Q 2306 3072 2169 3072 
Q 1681 3072 1420 2755 
Q 1159 2438 1159 1844 
L 1159 0 
L 581 0 
L 581 3500 
L 1159 3500 
L 1159 2956 
Q 1341 3275 1631 3429 
Q 1922 3584 2338 3584 
Q 2397 3584 2469 3576 
Q 2541 3569 2628 3553 
L 2631 2963 
z
" transform="scale(0.015625)"/>
      <path id="DejaVuSans-69" d="M 603 3500 
L 1178 3500 
L 1178 0 
L 603 0 
L 603 3500 
z
M 603 4863 
L 1178 4863 
L 1178 4134 
L 603 4134 
L 603 4863 
z
" transform="scale(0.015625)"/>
      <path id="DejaVuSans-6e" d="M 3513 2113 
L 3513 0 
L 2938 0 
L 2938 2094 
Q 2938 2591 2744 2837 
Q 2550 3084 2163 3084 
Q 1697 3084 1428 2787 
Q 1159 2491 1159 1978 
L 1159 0 
L 581 0 
L 581 3500 
L 1159 3500 
L 1159 2956 
Q 1366 3272 1645 3428 
Q 1925 3584 2291 3584 
Q 2894 3584 3203 3211 
Q 3513 2838 3513 2113 
z
" transform="scale(0.015625)"/>
      <path id="DejaVuSans-67" d="M 2906 1791 
Q 2906 2416 2648 2759 
Q 2391 3103 1925 3103 
Q 1463 3103 1205 2759 
Q 947 2416 947 1791 
Q 947 1169 1205 825 
Q 1463 481 1925 481 
Q 2391 481 2648 825 
Q 2906 1169 2906 1791 
z
M 3481 434 
Q 3481 -459 3084 -895 
Q 2688 -1331 1869 -1331 
Q 1566 -1331 1297 -1286 
Q 1028 -1241 775 -1147 
L 775 -588 
Q 1028 -725 1275 -790 
Q 1522 -856 1778 -856 
Q 2344 -856 2625 -561 
Q 2906 -266 2906 331 
L 2906 616 
Q 2728 306 2450 153 
Q 2172 0 1784 0 
Q 1141 0 747 490 
Q 353 981 353 1791 
Q 353 2603 747 3093 
Q 1141 3584 1784 3584 
Q 2172 3584 2450 3431 
Q 2728 3278 2906 2969 
L 2906 3500 
L 3481 3500 
L 3481 434 
z
" transform="scale(0.015625)"/>
      <path id="DejaVuSans-5f" d="M 3263 -1063 
L 3263 -1509 
L -63 -1509 
L -63 -1063 
L 3263 -1063 
z
" transform="scale(0.015625)"/>
     </defs>
     <use xlink:href="#DejaVuSans-63"/>
     <use xlink:href="#DejaVuSans-6f" x="54.980469"/>
     <use xlink:href="#DejaVuSans-6c" x="116.162109"/>
     <use xlink:href="#DejaVuSans-6f" x="143.945312"/>
     <use xlink:href="#DejaVuSans-75" x="205.126953"/>
     <use xlink:href="#DejaVuSans-72" x="268.505859"/>
     <use xlink:href="#DejaVuSans-69" x="309.619141"/>
     <use xlink:href="#DejaVuSans-6e" x="337.402344"/>
     <use xlink:href="#DejaVuSans-67" x="400.78125"/>
     <use xlink:href="#DejaVuSans-5f" x="464.257812"/>
     <use xlink:href="#DejaVuSans-63" x="514.257812"/>
     <use xlink:href="#DejaVuSans-63" x="569.238281"/>
     <use xlink:href="#DejaVuSans-69" x="624.21875"/>
    </g>
   </g>
   <g id="legend_1">
    <g id="patch_7">
     <path d="M 64.6 108.1845 
L 200.035938 108.1845 
Q 202.035938 108.1845 202.035938 106.1845 
L 202.035938 48.472 
Q 202.035938 46.472 200.035938 46.472 
L 64.6 46.472 
Q 62.6 46.472 62.6 48.472 
L 62.6 106.1845 
Q 62.6 108.1845 64.6 108.1845 
z
" style="fill: #ffffff; opacity: 0.8; stroke: #cccccc; stroke-linejoin: miter"/>
    </g>
    <g id="line2d_18">
     <path d="M 66.6 54.570438 
L 76.6 54.570438 
L 86.6 54.570438 
" style="fill: none; stroke: #1f77b4; stroke-opacity: 0.7; stroke-width: 0.5; stroke-linecap: square"/>
    </g>
    <g id="text_15">
     <!-- Positive predictions -->
     <g transform="translate(94.6 58.070438) scale(0.1 -0.1)">
      <defs>
       <path id="DejaVuSans-50" d="M 1259 4147 
L 1259 2394 
L 2053 2394 
Q 2494 2394 2734 2622 
Q 2975 2850 2975 3272 
Q 2975 3691 2734 3919 
Q 2494 4147 2053 4147 
L 1259 4147 
z
M 628 4666 
L 2053 4666 
Q 2838 4666 3239 4311 
Q 3641 3956 3641 3272 
Q 3641 2581 3239 2228 
Q 2838 1875 2053 1875 
L 1259 1875 
L 1259 0 
L 628 0 
L 628 4666 
z
" transform="scale(0.015625)"/>
       <path id="DejaVuSans-73" d="M 2834 3397 
L 2834 2853 
Q 2591 2978 2328 3040 
Q 2066 3103 1784 3103 
Q 1356 3103 1142 2972 
Q 928 2841 928 2578 
Q 928 2378 1081 2264 
Q 1234 2150 1697 2047 
L 1894 2003 
Q 2506 1872 2764 1633 
Q 3022 1394 3022 966 
Q 3022 478 2636 193 
Q 2250 -91 1575 -91 
Q 1294 -91 989 -36 
Q 684 19 347 128 
L 347 722 
Q 666 556 975 473 
Q 1284 391 1588 391 
Q 1994 391 2212 530 
Q 2431 669 2431 922 
Q 2431 1156 2273 1281 
Q 2116 1406 1581 1522 
L 1381 1569 
Q 847 1681 609 1914 
Q 372 2147 372 2553 
Q 372 3047 722 3315 
Q 1072 3584 1716 3584 
Q 2034 3584 2315 3537 
Q 2597 3491 2834 3397 
z
" transform="scale(0.015625)"/>
       <path id="DejaVuSans-74" d="M 1172 4494 
L 1172 3500 
L 2356 3500 
L 2356 3053 
L 1172 3053 
L 1172 1153 
Q 1172 725 1289 603 
Q 1406 481 1766 481 
L 2356 481 
L 2356 0 
L 1766 0 
Q 1100 0 847 248 
Q 594 497 594 1153 
L 594 3053 
L 172 3053 
L 172 3500 
L 594 3500 
L 594 4494 
L 1172 4494 
z
" transform="scale(0.015625)"/>
       <path id="DejaVuSans-76" d="M 191 3500 
L 800 3500 
L 1894 563 
L 2988 3500 
L 3597 3500 
L 2284 0 
L 1503 0 
L 191 3500 
z
" transform="scale(0.015625)"/>
       <path id="DejaVuSans-65" d="M 3597 1894 
L 3597 1613 
L 953 1613 
Q 991 1019 1311 708 
Q 1631 397 2203 397 
Q 2534 397 2845 478 
Q 3156 559 3463 722 
L 3463 178 
Q 3153 47 2828 -22 
Q 2503 -91 2169 -91 
Q 1331 -91 842 396 
Q 353 884 353 1716 
Q 353 2575 817 3079 
Q 1281 3584 2069 3584 
Q 2775 3584 3186 3129 
Q 3597 2675 3597 1894 
z
M 3022 2063 
Q 3016 2534 2758 2815 
Q 2500 3097 2075 3097 
Q 1594 3097 1305 2825 
Q 1016 2553 972 2059 
L 3022 2063 
z
" transform="scale(0.015625)"/>
       <path id="DejaVuSans-20" transform="scale(0.015625)"/>
       <path id="DejaVuSans-70" d="M 1159 525 
L 1159 -1331 
L 581 -1331 
L 581 3500 
L 1159 3500 
L 1159 2969 
Q 1341 3281 1617 3432 
Q 1894 3584 2278 3584 
Q 2916 3584 3314 3078 
Q 3713 2572 3713 1747 
Q 3713 922 3314 415 
Q 2916 -91 2278 -91 
Q 1894 -91 1617 61 
Q 1341 213 1159 525 
z
M 3116 1747 
Q 3116 2381 2855 2742 
Q 2594 3103 2138 3103 
Q 1681 3103 1420 2742 
Q 1159 2381 1159 1747 
Q 1159 1113 1420 752 
Q 1681 391 2138 391 
Q 2594 391 2855 752 
Q 3116 1113 3116 1747 
z
" transform="scale(0.015625)"/>
       <path id="DejaVuSans-64" d="M 2906 2969 
L 2906 4863 
L 3481 4863 
L 3481 0 
L 2906 0 
L 2906 525 
Q 2725 213 2448 61 
Q 2172 -91 1784 -91 
Q 1150 -91 751 415 
Q 353 922 353 1747 
Q 353 2572 751 3078 
Q 1150 3584 1784 3584 
Q 2172 3584 2448 3432 
Q 2725 3281 2906 2969 
z
M 947 1747 
Q 947 1113 1208 752 
Q 1469 391 1925 391 
Q 2381 391 2643 752 
Q 2906 1113 2906 1747 
Q 2906 2381 2643 2742 
Q 2381 3103 1925 3103 
Q 1469 3103 1208 2742 
Q 947 2381 947 1747 
z
" transform="scale(0.015625)"/>
      </defs>
      <use xlink:href="#DejaVuSans-50"/>
      <use xlink:href="#DejaVuSans-6f" x="56.677734"/>
      <use xlink:href="#DejaVuSans-73" x="117.859375"/>
      <use xlink:href="#DejaVuSans-69" x="169.958984"/>
      <use xlink:href="#DejaVuSans-74" x="197.742188"/>
      <use xlink:href="#DejaVuSans-69" x="236.951172"/>
      <use xlink:href="#DejaVuSans-76" x="264.734375"/>
      <use xlink:href="#DejaVuSans-65" x="323.914062"/>
      <use xlink:href="#DejaVuSans-20" x="385.4375"/>
      <use xlink:href="#DejaVuSans-70" x="417.224609"/>
      <use xlink:href="#DejaVuSans-72" x="480.701172"/>
      <use xlink:href="#DejaVuSans-65" x="519.564453"/>
      <use xlink:href="#DejaVuSans-64" x="581.087891"/>
      <use xlink:href="#DejaVuSans-69" x="644.564453"/>
      <use xlink:href="#DejaVuSans-63" x="672.347656"/>
      <use xlink:href="#DejaVuSans-74" x="727.328125"/>
      <use xlink:href="#DejaVuSans-69" x="766.537109"/>
      <use xlink:href="#DejaVuSans-6f" x="794.320312"/>
      <use xlink:href="#DejaVuSans-6e" x="855.501953"/>
      <use xlink:href="#DejaVuSans-73" x="918.880859"/>
     </g>
    </g>
    <g id="line2d_19">
     <path d="M 66.6 69.248563 
L 76.6 69.248563 
L 86.6 69.248563 
" style="fill: none; stroke: #ff7f0e; stroke-opacity: 0.7; stroke-width: 0.5; stroke-linecap: square"/>
    </g>
    <g id="text_16">
     <!-- Negative predictions -->
     <g transform="translate(94.6 72.748563) scale(0.1 -0.1)">
      <defs>
       <path id="DejaVuSans-4e" d="M 628 4666 
L 1478 4666 
L 3547 763 
L 3547 4666 
L 4159 4666 
L 4159 0 
L 3309 0 
L 1241 3903 
L 1241 0 
L 628 0 
L 628 4666 
z
" transform="scale(0.015625)"/>
       <path id="DejaVuSans-61" d="M 2194 1759 
Q 1497 1759 1228 1600 
Q 959 1441 959 1056 
Q 959 750 1161 570 
Q 1363 391 1709 391 
Q 2188 391 2477 730 
Q 2766 1069 2766 1631 
L 2766 1759 
L 2194 1759 
z
M 3341 1997 
L 3341 0 
L 2766 0 
L 2766 531 
Q 2569 213 2275 61 
Q 1981 -91 1556 -91 
Q 1019 -91 701 211 
Q 384 513 384 1019 
Q 384 1609 779 1909 
Q 1175 2209 1959 2209 
L 2766 2209 
L 2766 2266 
Q 2766 2663 2505 2880 
Q 2244 3097 1772 3097 
Q 1472 3097 1187 3025 
Q 903 2953 641 2809 
L 641 3341 
Q 956 3463 1253 3523 
Q 1550 3584 1831 3584 
Q 2591 3584 2966 3190 
Q 3341 2797 3341 1997 
z
" transform="scale(0.015625)"/>
      </defs>
      <use xlink:href="#DejaVuSans-4e"/>
      <use xlink:href="#DejaVuSans-65" x="74.804688"/>
      <use xlink:href="#DejaVuSans-67" x="136.328125"/>
      <use xlink:href="#DejaVuSans-61" x="199.804688"/>
      <use xlink:href="#DejaVuSans-74" x="261.083984"/>
      <use xlink:href="#DejaVuSans-69" x="300.292969"/>
      <use xlink:href="#DejaVuSans-76" x="328.076172"/>
      <use xlink:href="#DejaVuSans-65" x="387.255859"/>
      <use xlink:href="#DejaVuSans-20" x="448.779297"/>
      <use xlink:href="#DejaVuSans-70" x="480.566406"/>
      <use xlink:href="#DejaVuSans-72" x="544.042969"/>
      <use xlink:href="#DejaVuSans-65" x="582.90625"/>
      <use xlink:href="#DejaVuSans-64" x="644.429688"/>
      <use xlink:href="#DejaVuSans-69" x="707.90625"/>
      <use xlink:href="#DejaVuSans-63" x="735.689453"/>
      <use xlink:href="#DejaVuSans-74" x="790.669922"/>
      <use xlink:href="#DejaVuSans-69" x="829.878906"/>
      <use xlink:href="#DejaVuSans-6f" x="857.662109"/>
      <use xlink:href="#DejaVuSans-6e" x="918.84375"/>
      <use xlink:href="#DejaVuSans-73" x="982.222656"/>
     </g>
    </g>
    <g id="line2d_20">
     <path d="M 66.6 83.926688 
L 76.6 83.926688 
L 86.6 83.926688 
" style="fill: none; stroke: #2ca02c; stroke-opacity: 0.7; stroke-width: 0.5; stroke-linecap: square"/>
    </g>
    <g id="text_17">
     <!-- Average predictions -->
     <g transform="translate(94.6 87.426688) scale(0.1 -0.1)">
      <defs>
       <path id="DejaVuSans-41" d="M 2188 4044 
L 1331 1722 
L 3047 1722 
L 2188 4044 
z
M 1831 4666 
L 2547 4666 
L 4325 0 
L 3669 0 
L 3244 1197 
L 1141 1197 
L 716 0 
L 50 0 
L 1831 4666 
z
" transform="scale(0.015625)"/>
      </defs>
      <use xlink:href="#DejaVuSans-41"/>
      <use xlink:href="#DejaVuSans-76" x="62.533203"/>
      <use xlink:href="#DejaVuSans-65" x="121.712891"/>
      <use xlink:href="#DejaVuSans-72" x="183.236328"/>
      <use xlink:href="#DejaVuSans-61" x="224.349609"/>
      <use xlink:href="#DejaVuSans-67" x="285.628906"/>
      <use xlink:href="#DejaVuSans-65" x="349.105469"/>
      <use xlink:href="#DejaVuSans-20" x="410.628906"/>
      <use xlink:href="#DejaVuSans-70" x="442.416016"/>
      <use xlink:href="#DejaVuSans-72" x="505.892578"/>
      <use xlink:href="#DejaVuSans-65" x="544.755859"/>
      <use xlink:href="#DejaVuSans-64" x="606.279297"/>
      <use xlink:href="#DejaVuSans-69" x="669.755859"/>
      <use xlink:href="#DejaVuSans-63" x="697.539062"/>
      <use xlink:href="#DejaVuSans-74" x="752.519531"/>
      <use xlink:href="#DejaVuSans-69" x="791.728516"/>
      <use xlink:href="#DejaVuSans-6f" x="819.511719"/>
      <use xlink:href="#DejaVuSans-6e" x="880.693359"/>
      <use xlink:href="#DejaVuSans-73" x="944.072266"/>
     </g>
    </g>
    <g id="line2d_21">
     <path d="M 66.6 98.604813 
L 76.6 98.604813 
L 86.6 98.604813 
" style="fill: none; stroke: #d62728; stroke-opacity: 0.7; stroke-width: 0.5; stroke-linecap: square"/>
    </g>
    <g id="text_18">
     <!-- Actual values -->
     <g transform="translate(94.6 102.104813) scale(0.1 -0.1)">
      <use xlink:href="#DejaVuSans-41"/>
      <use xlink:href="#DejaVuSans-63" x="66.658203"/>
      <use xlink:href="#DejaVuSans-74" x="121.638672"/>
      <use xlink:href="#DejaVuSans-75" x="160.847656"/>
      <use xlink:href="#DejaVuSans-61" x="224.226562"/>
      <use xlink:href="#DejaVuSans-6c" x="285.505859"/>
      <use xlink:href="#DejaVuSans-20" x="313.289062"/>
      <use xlink:href="#DejaVuSans-76" x="345.076172"/>
      <use xlink:href="#DejaVuSans-61" x="404.255859"/>
      <use xlink:href="#DejaVuSans-6c" x="465.535156"/>
      <use xlink:href="#DejaVuSans-75" x="493.318359"/>
      <use xlink:href="#DejaVuSans-65" x="556.697266"/>
      <use xlink:href="#DejaVuSans-73" x="618.220703"/>
     </g>
    </g>
   </g>
  </g>
 </g>
 <defs>
  <clipPath id="p491041fef1">
   <rect x="57.6" y="41.472" width="357.12" height="266.112"/>
  </clipPath>
 </defs>
</svg>
