<?xml version="1.0" encoding="utf-8" standalone="no"?>
<!DOCTYPE svg PUBLIC "-//W3C//DTD SVG 1.1//EN"
  "http://www.w3.org/Graphics/SVG/1.1/DTD/svg11.dtd">
<svg xmlns:xlink="http://www.w3.org/1999/xlink" width="460.8pt" height="345.6pt" viewBox="0 0 460.8 345.6" xmlns="http://www.w3.org/2000/svg" version="1.1">
 <metadata>
  <rdf:RDF xmlns:dc="http://purl.org/dc/elements/1.1/" xmlns:cc="http://creativecommons.org/ns#" xmlns:rdf="http://www.w3.org/1999/02/22-rdf-syntax-ns#">
   <cc:Work>
    <dc:type rdf:resource="http://purl.org/dc/dcmitype/StillImage"/>
    <dc:date>2024-07-19T09:37:56.935613</dc:date>
    <dc:format>image/svg+xml</dc:format>
    <dc:creator>
     <cc:Agent>
      <dc:title>Matplotlib v3.9.0, https://matplotlib.org/</dc:title>
     </cc:Agent>
    </dc:creator>
   </cc:Work>
  </rdf:RDF>
 </metadata>
 <defs>
  <style type="text/css">*{stroke-linejoin: round; stroke-linecap: butt}</style>
 </defs>
 <g id="figure_1">
  <g id="patch_1">
   <path d="M 0 345.6 
L 460.8 345.6 
L 460.8 0 
L 0 0 
z
" style="fill: #ffffff"/>
  </g>
  <g id="axes_1">
   <g id="patch_2">
    <path d="M 57.6 307.584 
L 414.72 307.584 
L 414.72 41.472 
L 57.6 41.472 
z
" style="fill: #ffffff"/>
   </g>
   <g id="matplotlib.axis_1">
    <g id="xtick_1">
     <g id="line2d_1">
      <defs>
       <path id="mda00a0b043" d="M 0 0 
L 0 3.5 
" style="stroke: #000000; stroke-width: 0.8"/>
      </defs>
      <g>
       <use xlink:href="#mda00a0b043" x="73.832727" y="307.584" style="stroke: #000000; stroke-width: 0.8"/>
      </g>
     </g>
     <g id="text_1">
      <!-- 0 -->
      <g transform="translate(70.651477 322.182437) scale(0.1 -0.1)">
       <defs>
        <path id="DejaVuSans-30" d="M 2034 4250 
Q 1547 4250 1301 3770 
Q 1056 3291 1056 2328 
Q 1056 1369 1301 889 
Q 1547 409 2034 409 
Q 2525 409 2770 889 
Q 3016 1369 3016 2328 
Q 3016 3291 2770 3770 
Q 2525 4250 2034 4250 
z
M 2034 4750 
Q 2819 4750 3233 4129 
Q 3647 3509 3647 2328 
Q 3647 1150 3233 529 
Q 2819 -91 2034 -91 
Q 1250 -91 836 529 
Q 422 1150 422 2328 
Q 422 3509 836 4129 
Q 1250 4750 2034 4750 
z
" transform="scale(0.015625)"/>
       </defs>
       <use xlink:href="#DejaVuSans-30"/>
      </g>
     </g>
    </g>
    <g id="xtick_2">
     <g id="line2d_2">
      <g>
       <use xlink:href="#mda00a0b043" x="149.333784" y="307.584" style="stroke: #000000; stroke-width: 0.8"/>
      </g>
     </g>
     <g id="text_2">
      <!-- 50 -->
      <g transform="translate(142.971284 322.182437) scale(0.1 -0.1)">
       <defs>
        <path id="DejaVuSans-35" d="M 691 4666 
L 3169 4666 
L 3169 4134 
L 1269 4134 
L 1269 2991 
Q 1406 3038 1543 3061 
Q 1681 3084 1819 3084 
Q 2600 3084 3056 2656 
Q 3513 2228 3513 1497 
Q 3513 744 3044 326 
Q 2575 -91 1722 -91 
Q 1428 -91 1123 -41 
Q 819 9 494 109 
L 494 744 
Q 775 591 1075 516 
Q 1375 441 1709 441 
Q 2250 441 2565 725 
Q 2881 1009 2881 1497 
Q 2881 1984 2565 2268 
Q 2250 2553 1709 2553 
Q 1456 2553 1204 2497 
Q 953 2441 691 2322 
L 691 4666 
z
" transform="scale(0.015625)"/>
       </defs>
       <use xlink:href="#DejaVuSans-35"/>
       <use xlink:href="#DejaVuSans-30" x="63.623047"/>
      </g>
     </g>
    </g>
    <g id="xtick_3">
     <g id="line2d_3">
      <g>
       <use xlink:href="#mda00a0b043" x="224.834841" y="307.584" style="stroke: #000000; stroke-width: 0.8"/>
      </g>
     </g>
     <g id="text_3">
      <!-- 100 -->
      <g transform="translate(215.291091 322.182437) scale(0.1 -0.1)">
       <defs>
        <path id="DejaVuSans-31" d="M 794 531 
L 1825 531 
L 1825 4091 
L 703 3866 
L 703 4441 
L 1819 4666 
L 2450 4666 
L 2450 531 
L 3481 531 
L 3481 0 
L 794 0 
L 794 531 
z
" transform="scale(0.015625)"/>
       </defs>
       <use xlink:href="#DejaVuSans-31"/>
       <use xlink:href="#DejaVuSans-30" x="63.623047"/>
       <use xlink:href="#DejaVuSans-30" x="127.246094"/>
      </g>
     </g>
    </g>
    <g id="xtick_4">
     <g id="line2d_4">
      <g>
       <use xlink:href="#mda00a0b043" x="300.335899" y="307.584" style="stroke: #000000; stroke-width: 0.8"/>
      </g>
     </g>
     <g id="text_4">
      <!-- 150 -->
      <g transform="translate(290.792149 322.182437) scale(0.1 -0.1)">
       <use xlink:href="#DejaVuSans-31"/>
       <use xlink:href="#DejaVuSans-35" x="63.623047"/>
       <use xlink:href="#DejaVuSans-30" x="127.246094"/>
      </g>
     </g>
    </g>
    <g id="xtick_5">
     <g id="line2d_5">
      <g>
       <use xlink:href="#mda00a0b043" x="375.836956" y="307.584" style="stroke: #000000; stroke-width: 0.8"/>
      </g>
     </g>
     <g id="text_5">
      <!-- 200 -->
      <g transform="translate(366.293206 322.182437) scale(0.1 -0.1)">
       <defs>
        <path id="DejaVuSans-32" d="M 1228 531 
L 3431 531 
L 3431 0 
L 469 0 
L 469 531 
Q 828 903 1448 1529 
Q 2069 2156 2228 2338 
Q 2531 2678 2651 2914 
Q 2772 3150 2772 3378 
Q 2772 3750 2511 3984 
Q 2250 4219 1831 4219 
Q 1534 4219 1204 4116 
Q 875 4013 500 3803 
L 500 4441 
Q 881 4594 1212 4672 
Q 1544 4750 1819 4750 
Q 2544 4750 2975 4387 
Q 3406 4025 3406 3419 
Q 3406 3131 3298 2873 
Q 3191 2616 2906 2266 
Q 2828 2175 2409 1742 
Q 1991 1309 1228 531 
z
" transform="scale(0.015625)"/>
       </defs>
       <use xlink:href="#DejaVuSans-32"/>
       <use xlink:href="#DejaVuSans-30" x="63.623047"/>
       <use xlink:href="#DejaVuSans-30" x="127.246094"/>
      </g>
     </g>
    </g>
   </g>
   <g id="matplotlib.axis_2">
    <g id="ytick_1">
     <g id="line2d_6">
      <defs>
       <path id="m83b5cf4724" d="M 0 0 
L -3.5 0 
" style="stroke: #000000; stroke-width: 0.8"/>
      </defs>
      <g>
       <use xlink:href="#m83b5cf4724" x="57.6" y="271.451607" style="stroke: #000000; stroke-width: 0.8"/>
      </g>
     </g>
     <g id="text_6">
      <!-- −800 -->
      <g transform="translate(23.132812 275.250826) scale(0.1 -0.1)">
       <defs>
        <path id="DejaVuSans-2212" d="M 678 2272 
L 4684 2272 
L 4684 1741 
L 678 1741 
L 678 2272 
z
" transform="scale(0.015625)"/>
        <path id="DejaVuSans-38" d="M 2034 2216 
Q 1584 2216 1326 1975 
Q 1069 1734 1069 1313 
Q 1069 891 1326 650 
Q 1584 409 2034 409 
Q 2484 409 2743 651 
Q 3003 894 3003 1313 
Q 3003 1734 2745 1975 
Q 2488 2216 2034 2216 
z
M 1403 2484 
Q 997 2584 770 2862 
Q 544 3141 544 3541 
Q 544 4100 942 4425 
Q 1341 4750 2034 4750 
Q 2731 4750 3128 4425 
Q 3525 4100 3525 3541 
Q 3525 3141 3298 2862 
Q 3072 2584 2669 2484 
Q 3125 2378 3379 2068 
Q 3634 1759 3634 1313 
Q 3634 634 3220 271 
Q 2806 -91 2034 -91 
Q 1263 -91 848 271 
Q 434 634 434 1313 
Q 434 1759 690 2068 
Q 947 2378 1403 2484 
z
M 1172 3481 
Q 1172 3119 1398 2916 
Q 1625 2713 2034 2713 
Q 2441 2713 2670 2916 
Q 2900 3119 2900 3481 
Q 2900 3844 2670 4047 
Q 2441 4250 2034 4250 
Q 1625 4250 1398 4047 
Q 1172 3844 1172 3481 
z
" transform="scale(0.015625)"/>
       </defs>
       <use xlink:href="#DejaVuSans-2212"/>
       <use xlink:href="#DejaVuSans-38" x="83.789062"/>
       <use xlink:href="#DejaVuSans-30" x="147.412109"/>
       <use xlink:href="#DejaVuSans-30" x="211.035156"/>
      </g>
     </g>
    </g>
    <g id="ytick_2">
     <g id="line2d_7">
      <g>
       <use xlink:href="#m83b5cf4724" x="57.6" y="225.045683" style="stroke: #000000; stroke-width: 0.8"/>
      </g>
     </g>
     <g id="text_7">
      <!-- −600 -->
      <g transform="translate(23.132812 228.844901) scale(0.1 -0.1)">
       <defs>
        <path id="DejaVuSans-36" d="M 2113 2584 
Q 1688 2584 1439 2293 
Q 1191 2003 1191 1497 
Q 1191 994 1439 701 
Q 1688 409 2113 409 
Q 2538 409 2786 701 
Q 3034 994 3034 1497 
Q 3034 2003 2786 2293 
Q 2538 2584 2113 2584 
z
M 3366 4563 
L 3366 3988 
Q 3128 4100 2886 4159 
Q 2644 4219 2406 4219 
Q 1781 4219 1451 3797 
Q 1122 3375 1075 2522 
Q 1259 2794 1537 2939 
Q 1816 3084 2150 3084 
Q 2853 3084 3261 2657 
Q 3669 2231 3669 1497 
Q 3669 778 3244 343 
Q 2819 -91 2113 -91 
Q 1303 -91 875 529 
Q 447 1150 447 2328 
Q 447 3434 972 4092 
Q 1497 4750 2381 4750 
Q 2619 4750 2861 4703 
Q 3103 4656 3366 4563 
z
" transform="scale(0.015625)"/>
       </defs>
       <use xlink:href="#DejaVuSans-2212"/>
       <use xlink:href="#DejaVuSans-36" x="83.789062"/>
       <use xlink:href="#DejaVuSans-30" x="147.412109"/>
       <use xlink:href="#DejaVuSans-30" x="211.035156"/>
      </g>
     </g>
    </g>
    <g id="ytick_3">
     <g id="line2d_8">
      <g>
       <use xlink:href="#m83b5cf4724" x="57.6" y="178.639758" style="stroke: #000000; stroke-width: 0.8"/>
      </g>
     </g>
     <g id="text_8">
      <!-- −400 -->
      <g transform="translate(23.132812 182.438977) scale(0.1 -0.1)">
       <defs>
        <path id="DejaVuSans-34" d="M 2419 4116 
L 825 1625 
L 2419 1625 
L 2419 4116 
z
M 2253 4666 
L 3047 4666 
L 3047 1625 
L 3713 1625 
L 3713 1100 
L 3047 1100 
L 3047 0 
L 2419 0 
L 2419 1100 
L 313 1100 
L 313 1709 
L 2253 4666 
z
" transform="scale(0.015625)"/>
       </defs>
       <use xlink:href="#DejaVuSans-2212"/>
       <use xlink:href="#DejaVuSans-34" x="83.789062"/>
       <use xlink:href="#DejaVuSans-30" x="147.412109"/>
       <use xlink:href="#DejaVuSans-30" x="211.035156"/>
      </g>
     </g>
    </g>
    <g id="ytick_4">
     <g id="line2d_9">
      <g>
       <use xlink:href="#m83b5cf4724" x="57.6" y="132.233834" style="stroke: #000000; stroke-width: 0.8"/>
      </g>
     </g>
     <g id="text_9">
      <!-- −200 -->
      <g transform="translate(23.132812 136.033053) scale(0.1 -0.1)">
       <use xlink:href="#DejaVuSans-2212"/>
       <use xlink:href="#DejaVuSans-32" x="83.789062"/>
       <use xlink:href="#DejaVuSans-30" x="147.412109"/>
       <use xlink:href="#DejaVuSans-30" x="211.035156"/>
      </g>
     </g>
    </g>
    <g id="ytick_5">
     <g id="line2d_10">
      <g>
       <use xlink:href="#m83b5cf4724" x="57.6" y="85.82791" style="stroke: #000000; stroke-width: 0.8"/>
      </g>
     </g>
     <g id="text_10">
      <!-- 0 -->
      <g transform="translate(44.2375 89.627129) scale(0.1 -0.1)">
       <use xlink:href="#DejaVuSans-30"/>
      </g>
     </g>
    </g>
   </g>
   <g id="line2d_11">
    <path d="M 73.832727 86.601342 
L 75.342748 94.877065 
L 76.85277 96.423929 
L 78.362791 94.998604 
L 79.872812 95.230634 
L 81.382833 91.895208 
L 82.892854 93.47301 
L 84.402875 91.291931 
L 85.912896 98.175477 
L 87.422918 108.583662 
L 88.932939 127.470874 
L 91.952981 114.554558 
L 93.463002 104.245813 
L 94.973023 106.499815 
L 97.993066 101.820551 
L 99.503087 107.98591 
L 101.013108 112.007757 
L 102.523129 117.344438 
L 104.03315 115.024142 
L 105.543171 116.677353 
L 107.053192 115.053145 
L 110.073235 108.053585 
L 111.583256 108.053585 
L 113.093277 107.241482 
L 114.603298 105.733289 
L 116.113319 102.484874 
L 117.62334 101.063693 
L 119.133362 98.321525 
L 120.643383 97.23872 
L 122.153404 91.70868 
L 123.663425 87.926598 
L 125.173446 86.952073 
L 126.683467 81.644396 
L 128.193488 92.676349 
L 129.70351 94.068527 
L 131.213531 89.350592 
L 132.723552 90.152148 
L 134.233573 90.763863 
L 135.743594 90.396483 
L 137.253615 86.473073 
L 138.763636 85.776984 
L 140.273658 85.437864 
L 141.783679 86.912909 
L 143.2937 90.446899 
L 144.803721 92.303136 
L 146.313742 92.999224 
L 147.823763 99.31043 
L 149.333784 102.597516 
L 150.843805 106.522684 
L 152.353827 106.951047 
L 153.863848 104.904967 
L 155.373869 105.302732 
L 156.88389 101.755994 
L 158.393911 96.776281 
L 159.903932 101.819058 
L 161.413953 107.832493 
L 162.923975 108.369061 
L 164.433996 103.322417 
L 165.944017 98.667323 
L 167.454038 93.237829 
L 168.964059 89.157975 
L 170.47408 83.767749 
L 171.984101 86.115343 
L 173.494123 79.98976 
L 175.004144 80.767742 
L 176.514165 77.616006 
L 178.024186 77.138298 
L 179.534207 73.657854 
L 181.044228 74.353943 
L 182.554249 78.60187 
L 184.064271 77.63508 
L 185.574292 83.66785 
L 187.084313 85.381299 
L 188.594334 86.030982 
L 190.104355 82.330721 
L 191.614376 80.337996 
L 193.124397 75.564815 
L 194.634419 71.585507 
L 196.14444 73.82846 
L 197.654461 70.502702 
L 199.164482 75.76204 
L 200.674503 78.701082 
L 202.184524 78.879566 
L 203.694545 85.790734 
L 205.204567 81.572014 
L 206.714588 76.196661 
L 208.224609 74.340424 
L 209.73463 71.65161 
L 211.244651 73.353161 
L 212.754672 80.444566 
L 214.264693 75.143582 
L 215.774715 79.032398 
L 217.284736 77.391617 
L 218.794757 70.689531 
L 220.304778 70.109457 
L 221.814799 64.95021 
L 223.32482 69.633771 
L 224.834841 67.572277 
L 226.344863 68.732425 
L 227.854884 65.48401 
L 229.364905 59.786394 
L 230.874926 58.962689 
L 232.384947 57.570511 
L 233.894968 53.568 
L 235.404989 57.582112 
L 236.915011 74.520275 
L 238.425032 67.546496 
L 239.935053 64.738137 
L 241.445074 64.088454 
L 242.955095 61.94218 
L 244.465116 55.619373 
L 245.975137 69.900796 
L 247.485159 67.177501 
L 248.99518 73.353909 
L 250.505201 63.66326 
L 252.015222 67.924871 
L 253.525243 69.17994 
L 255.035264 82.556952 
L 256.545285 77.179918 
L 258.055307 73.272838 
L 259.565328 66.19041 
L 261.075349 63.821775 
L 262.58537 55.827299 
L 264.095391 56.965695 
L 265.605412 67.444452 
L 267.115433 59.665935 
L 268.625455 59.08186 
L 270.135476 55.538135 
L 271.645497 62.57973 
L 273.155518 57.652513 
L 274.665539 63.824501 
L 276.17556 64.409215 
L 277.685581 68.757899 
L 279.195603 68.977038 
L 280.705624 63.176298 
L 282.215645 70.405471 
L 283.725666 74.152749 
L 285.235687 94.449817 
L 286.745708 103.963031 
L 289.765751 114.911929 
L 291.275772 113.454493 
L 292.785793 122.856333 
L 294.295814 143.545641 
L 297.315856 136.545769 
L 298.825877 128.598754 
L 300.335899 123.067168 
L 301.84592 116.52112 
L 303.355941 113.272706 
L 306.375983 120.854488 
L 307.886004 118.583913 
L 309.396025 113.099576 
L 310.906047 123.558758 
L 312.416068 133.054124 
L 313.926089 133.732364 
L 315.43611 142.911456 
L 316.946131 141.751308 
L 318.456152 137.916374 
L 319.966173 139.640022 
L 321.476195 133.484792 
L 322.986216 129.116234 
L 324.496237 121.503154 
L 326.006258 118.672393 
L 327.516279 117.354465 
L 329.0263 112.753878 
L 330.536321 115.550445 
L 332.046342 137.254139 
L 333.556364 136.815861 
L 335.066385 123.859327 
L 336.576406 115.079827 
L 338.086427 110.231208 
L 339.596448 101.984489 
L 341.106469 99.447632 
L 342.61649 112.688789 
L 344.126512 107.144081 
L 345.636533 107.283299 
L 347.146554 112.07239 
L 348.656575 118.764124 
L 350.166596 115.051651 
L 351.676617 119.66904 
L 356.206681 101.063161 
L 357.716702 102.195465 
L 359.226723 99.98566 
L 360.736744 101.356085 
L 362.246765 104.449813 
L 363.756786 127.160872 
L 365.266808 137.572266 
L 366.776829 176.429976 
L 368.28685 184.318984 
L 369.796871 170.363084 
L 371.306892 150.891409 
L 374.326934 133.142747 
L 375.836956 128.654424 
L 377.346977 122.541894 
L 378.856998 129.812155 
L 380.367019 125.852682 
L 381.87704 119.88488 
L 383.387061 111.26498 
L 384.897082 109.169889 
L 386.407104 106.726327 
L 387.917125 105.334149 
L 389.427146 108.758001 
L 390.937167 109.831138 
L 392.447188 111.57136 
L 393.957209 107.960979 
L 395.46723 101.326037 
L 396.977252 113.676642 
L 398.487273 116.447739 
L 398.487273 116.447739 
" clip-path="url(#p4c71484516)" style="fill: none; stroke: #1f77b4; stroke-opacity: 0.7; stroke-width: 1.5; stroke-linecap: square"/>
   </g>
   <g id="line2d_12">
    <path d="M 73.832727 87.544929 
L 75.342748 93.8484 
L 76.85277 93.761389 
L 78.362791 91.905152 
L 79.872812 90.745004 
L 81.382833 88.424708 
L 82.892854 87.689948 
L 84.402875 84.905592 
L 85.912896 90.706333 
L 87.422918 102.407255 
L 88.932939 121.035919 
L 90.44296 116.65636 
L 91.952981 111.812741 
L 93.463002 104.294982 
L 94.973023 107.642838 
L 96.483044 105.915506 
L 97.993066 107.46237 
L 99.503087 111.79359 
L 101.013108 114.954993 
L 102.523129 117.610443 
L 104.03315 114.408435 
L 105.543171 114.511559 
L 107.053192 108.780427 
L 108.563214 106.66638 
L 110.073235 103.782583 
L 111.583256 107.587869 
L 113.093277 107.790895 
L 114.603298 104.977535 
L 117.62334 100.220928 
L 119.133362 98.741739 
L 120.643383 99.172652 
L 122.153404 97.283267 
L 123.663425 94.782504 
L 125.173446 96.174681 
L 126.683467 95.072541 
L 128.193488 105.116109 
L 129.70351 106.24311 
L 131.213531 99.42724 
L 132.723552 99.82169 
L 134.233573 98.14592 
L 135.743594 95.774062 
L 137.253615 92.164712 
L 138.763636 90.875659 
L 140.273658 92.441859 
L 141.783679 92.441859 
L 143.2937 93.524664 
L 144.803721 94.853561 
L 146.313742 95.404631 
L 147.823763 100.79932 
L 149.333784 103.409653 
L 150.843805 108.889122 
L 152.353827 109.435074 
L 153.863848 107.489595 
L 155.373869 110.041921 
L 156.88389 107.979435 
L 158.393911 102.924504 
L 159.903932 108.3772 
L 161.413953 112.410946 
L 162.923975 114.592024 
L 164.433996 113.483438 
L 165.944017 107.798713 
L 167.454038 106.448722 
L 168.964059 103.017998 
L 170.47408 98.423812 
L 171.984101 99.066355 
L 173.494123 93.524942 
L 175.004144 99.000841 
L 176.514165 95.391491 
L 178.024186 93.406349 
L 179.534207 90.266215 
L 181.044228 90.838555 
L 182.554249 93.134427 
L 184.064271 90.241791 
L 185.574292 95.418952 
L 187.084313 96.903941 
L 188.594334 96.330692 
L 190.104355 91.999472 
L 191.614376 89.519655 
L 193.124397 85.528746 
L 194.634419 80.711369 
L 196.14444 83.591266 
L 197.654461 79.920979 
L 199.164482 87.036554 
L 200.674503 92.575001 
L 202.184524 91.110314 
L 203.694545 94.750278 
L 205.204567 90.983209 
L 206.714588 86.916585 
L 208.224609 81.971453 
L 209.73463 78.351791 
L 211.244651 84.123528 
L 212.754672 90.591354 
L 214.264693 85.409359 
L 215.774715 87.884342 
L 217.284736 83.842141 
L 218.794757 79.100036 
L 220.304778 76.866751 
L 221.814799 71.106957 
L 223.32482 75.556466 
L 224.834841 74.293194 
L 226.344863 75.188165 
L 227.854884 71.739361 
L 229.364905 67.820639 
L 230.874926 65.840652 
L 232.384947 67.249404 
L 233.894968 65.47051 
L 235.404989 71.403839 
L 236.915011 88.323439 
L 238.425032 79.537954 
L 239.935053 77.496093 
L 241.445074 76.612596 
L 242.955095 77.201594 
L 244.465116 67.785058 
L 245.975137 79.568128 
L 247.485159 75.882427 
L 248.99518 82.963627 
L 250.505201 74.558998 
L 252.015222 79.862533 
L 253.525243 81.503313 
L 255.035264 95.988591 
L 256.545285 87.20859 
L 258.055307 83.984179 
L 259.565328 79.399593 
L 261.075349 77.906533 
L 262.58537 73.31428 
L 264.095391 73.473801 
L 265.605412 83.683104 
L 267.115433 75.151553 
L 270.135476 74.438156 
L 271.645497 84.467823 
L 273.155518 81.111128 
L 274.665539 87.121444 
L 276.17556 85.429873 
L 277.685581 89.881941 
L 279.195603 91.723677 
L 280.705624 86.176718 
L 282.215645 94.938157 
L 283.725666 99.740467 
L 285.235687 119.303464 
L 286.745708 127.989107 
L 288.255729 136.011706 
L 289.765751 145.112424 
L 291.275772 144.604859 
L 292.785793 158.918186 
L 294.295814 180.33998 
L 295.805835 178.521167 
L 297.315856 174.84964 
L 298.825877 170.714053 
L 300.335899 165.042976 
L 301.84592 160.080536 
L 303.355941 158.592817 
L 304.865962 166.591014 
L 306.375983 171.854772 
L 307.886004 170.324826 
L 309.396025 170.030922 
L 312.416068 188.593292 
L 313.926089 188.811259 
L 315.43611 199.23853 
L 316.946131 197.798581 
L 318.456152 195.430514 
L 319.966173 197.034248 
L 321.476195 193.669819 
L 322.986216 193.721381 
L 324.496237 190.059076 
L 326.006258 189.543454 
L 327.516279 193.890957 
L 329.0263 191.57066 
L 330.536321 199.115624 
L 332.046342 222.324692 
L 333.556364 222.775102 
L 335.066385 214.80061 
L 336.576406 210.956653 
L 338.086427 205.820361 
L 339.596448 194.934305 
L 341.106469 196.646904 
L 342.61649 212.703354 
L 344.126512 206.343363 
L 345.636533 205.930865 
L 347.146554 212.170581 
L 348.656575 216.509535 
L 350.166596 212.511486 
L 351.676617 218.374937 
L 353.186638 212.036567 
L 354.69666 209.252212 
L 356.206681 205.301602 
L 357.716702 204.704954 
L 359.226723 203.138754 
L 360.736744 208.904691 
L 362.246765 213.622626 
L 363.756786 233.719961 
L 365.266808 244.128918 
L 366.776829 286.120479 
L 368.28685 295.488 
L 369.796871 287.050045 
L 371.306892 271.651201 
L 372.816913 266.225277 
L 374.326934 258.850771 
L 375.836956 257.677364 
L 377.346977 253.12166 
L 378.856998 262.78253 
L 381.87704 251.601163 
L 383.387061 249.570904 
L 384.897082 252.567953 
L 386.407104 251.689555 
L 387.917125 248.78274 
L 389.427146 258.173494 
L 390.937167 256.538974 
L 392.447188 252.942515 
L 393.957209 249.746835 
L 395.46723 247.04601 
L 396.977252 265.908084 
L 398.487273 270.109838 
L 398.487273 270.109838 
" clip-path="url(#p4c71484516)" style="fill: none; stroke: #ff7f0e; stroke-opacity: 0.7; stroke-width: 1.5; stroke-linecap: square"/>
   </g>
   <g id="line2d_13">
    <path d="M 73.832727 87.073135 
L 75.342748 94.362733 
L 76.85277 95.092659 
L 78.362791 93.451878 
L 79.872812 92.987819 
L 81.382833 90.159958 
L 82.892854 90.581479 
L 84.402875 88.098762 
L 85.912896 94.440905 
L 87.422918 105.495459 
L 88.932939 124.253396 
L 91.952981 113.18365 
L 93.463002 104.270398 
L 94.973023 107.071327 
L 96.483044 105.028177 
L 97.993066 104.641461 
L 99.503087 109.88975 
L 101.013108 113.481375 
L 102.523129 117.477441 
L 104.03315 114.716288 
L 105.543171 115.594456 
L 107.053192 111.916786 
L 108.563214 109.158212 
L 110.073235 105.918084 
L 111.583256 107.820727 
L 113.093277 107.516188 
L 114.603298 105.355412 
L 116.113319 102.556555 
L 117.62334 100.642311 
L 119.133362 98.531632 
L 120.643383 98.205686 
L 122.153404 94.495974 
L 123.663425 91.354551 
L 125.173446 91.563377 
L 126.683467 88.358468 
L 128.193488 98.896229 
L 129.70351 100.155818 
L 131.213531 94.388916 
L 132.723552 94.986919 
L 134.233573 94.454892 
L 135.743594 93.085272 
L 137.253615 89.318893 
L 138.763636 88.326321 
L 140.273658 88.939861 
L 141.783679 89.677384 
L 143.2937 91.985781 
L 144.803721 93.578348 
L 146.313742 94.201928 
L 147.823763 100.054875 
L 149.333784 103.003585 
L 150.843805 107.705903 
L 152.353827 108.19306 
L 153.863848 106.197281 
L 155.373869 107.672326 
L 156.88389 104.867714 
L 158.393911 99.850393 
L 161.413953 110.121719 
L 162.923975 111.480543 
L 164.433996 108.402928 
L 165.944017 103.233018 
L 167.454038 99.843276 
L 168.964059 96.087987 
L 170.47408 91.09578 
L 171.984101 92.590849 
L 173.494123 86.757351 
L 175.004144 89.884292 
L 176.514165 86.503749 
L 178.024186 85.272324 
L 179.534207 81.962035 
L 181.044228 82.596249 
L 182.554249 85.868148 
L 184.064271 83.938435 
L 185.574292 89.543401 
L 187.084313 91.14262 
L 188.594334 91.180837 
L 190.104355 87.165096 
L 191.614376 84.928826 
L 194.634419 76.148438 
L 196.14444 78.709863 
L 197.654461 75.211841 
L 199.164482 81.399297 
L 200.674503 85.638041 
L 202.184524 84.99494 
L 203.694545 90.270506 
L 205.204567 86.277611 
L 206.714588 81.556623 
L 209.73463 75.001701 
L 211.244651 78.738344 
L 212.754672 85.51796 
L 214.264693 80.27647 
L 215.774715 83.45837 
L 217.284736 80.616879 
L 218.794757 74.894783 
L 220.304778 73.488104 
L 221.814799 68.028583 
L 223.32482 72.595118 
L 224.834841 70.932735 
L 226.344863 71.960295 
L 227.854884 68.611686 
L 229.364905 63.803516 
L 230.874926 62.401671 
L 232.384947 62.409957 
L 233.894968 59.519255 
L 235.404989 64.492976 
L 236.915011 81.421857 
L 238.425032 73.542225 
L 239.935053 71.117115 
L 242.955095 69.571887 
L 244.465116 61.702216 
L 245.975137 74.734462 
L 247.485159 71.529964 
L 248.99518 78.158768 
L 250.505201 69.111129 
L 252.015222 73.893702 
L 253.525243 75.341627 
L 255.035264 89.272772 
L 256.545285 82.194254 
L 258.055307 78.628508 
L 259.565328 72.795002 
L 261.075349 70.864154 
L 262.58537 64.57079 
L 264.095391 65.219748 
L 265.605412 75.563778 
L 267.115433 67.408744 
L 268.625455 66.955783 
L 270.135476 64.988146 
L 271.645497 73.523777 
L 273.155518 69.38182 
L 274.665539 75.472972 
L 276.17556 74.919544 
L 277.685581 79.31992 
L 279.195603 80.350358 
L 280.705624 74.676508 
L 282.215645 82.671814 
L 283.725666 86.946608 
L 285.235687 106.87664 
L 286.745708 115.976069 
L 289.765751 130.012176 
L 291.275772 129.029676 
L 292.785793 140.88726 
L 294.295814 161.94281 
L 295.805835 159.326864 
L 297.315856 155.697704 
L 300.335899 144.055072 
L 301.84592 138.300828 
L 303.355941 135.932761 
L 304.865962 141.759093 
L 306.375983 146.35463 
L 307.886004 144.45437 
L 309.396025 141.565249 
L 312.416068 160.823708 
L 313.926089 161.271812 
L 315.43611 171.074993 
L 316.946131 169.774944 
L 318.456152 166.673444 
L 319.966173 168.337135 
L 321.476195 163.577305 
L 322.986216 161.418808 
L 324.496237 155.781115 
L 326.006258 154.107924 
L 327.516279 155.622711 
L 329.0263 152.162269 
L 330.536321 157.333034 
L 332.046342 179.789415 
L 333.556364 179.795481 
L 335.066385 169.329969 
L 336.576406 163.01824 
L 338.086427 158.025785 
L 339.596448 148.459397 
L 341.106469 148.047268 
L 342.61649 162.696071 
L 344.126512 156.743722 
L 345.636533 156.607082 
L 348.656575 167.63683 
L 350.166596 163.781568 
L 351.676617 169.021989 
L 353.186638 162.727888 
L 354.69666 158.251415 
L 356.206681 153.182381 
L 357.716702 153.45021 
L 359.226723 151.562207 
L 360.736744 155.130388 
L 362.246765 159.03622 
L 363.756786 180.440417 
L 365.266808 190.850592 
L 366.776829 231.275227 
L 368.28685 239.903492 
L 369.796871 228.706565 
L 371.306892 211.271305 
L 372.816913 203.984045 
L 374.326934 195.996759 
L 375.836956 193.165894 
L 377.346977 187.831777 
L 378.856998 196.297343 
L 380.367019 191.530614 
L 381.87704 185.743022 
L 383.387061 180.417942 
L 384.897082 180.868921 
L 386.407104 179.207941 
L 387.917125 177.058444 
L 389.427146 183.465748 
L 390.937167 183.185056 
L 392.447188 182.256938 
L 393.957209 178.853907 
L 395.46723 174.186023 
L 396.977252 189.792363 
L 398.487273 193.278788 
L 398.487273 193.278788 
" clip-path="url(#p4c71484516)" style="fill: none; stroke: #2ca02c; stroke-opacity: 0.7; stroke-width: 1.5; stroke-linecap: square"/>
   </g>
   <g id="patch_3">
    <path d="M 57.6 307.584 
L 57.6 41.472 
" style="fill: none; stroke: #000000; stroke-width: 0.8; stroke-linejoin: miter; stroke-linecap: square"/>
   </g>
   <g id="patch_4">
    <path d="M 414.72 307.584 
L 414.72 41.472 
" style="fill: none; stroke: #000000; stroke-width: 0.8; stroke-linejoin: miter; stroke-linecap: square"/>
   </g>
   <g id="patch_5">
    <path d="M 57.6 307.584 
L 414.72 307.584 
" style="fill: none; stroke: #000000; stroke-width: 0.8; stroke-linejoin: miter; stroke-linecap: square"/>
   </g>
   <g id="patch_6">
    <path d="M 57.6 41.472 
L 414.72 41.472 
" style="fill: none; stroke: #000000; stroke-width: 0.8; stroke-linejoin: miter; stroke-linecap: square"/>
   </g>
   <g id="text_11">
    <!-- colouring_cci -->
    <g transform="translate(197.039062 35.472) scale(0.12 -0.12)">
     <defs>
      <path id="DejaVuSans-63" d="M 3122 3366 
L 3122 2828 
Q 2878 2963 2633 3030 
Q 2388 3097 2138 3097 
Q 1578 3097 1268 2742 
Q 959 2388 959 1747 
Q 959 1106 1268 751 
Q 1578 397 2138 397 
Q 2388 397 2633 464 
Q 2878 531 3122 666 
L 3122 134 
Q 2881 22 2623 -34 
Q 2366 -91 2075 -91 
Q 1284 -91 818 406 
Q 353 903 353 1747 
Q 353 2603 823 3093 
Q 1294 3584 2113 3584 
Q 2378 3584 2631 3529 
Q 2884 3475 3122 3366 
z
" transform="scale(0.015625)"/>
      <path id="DejaVuSans-6f" d="M 1959 3097 
Q 1497 3097 1228 2736 
Q 959 2375 959 1747 
Q 959 1119 1226 758 
Q 1494 397 1959 397 
Q 2419 397 2687 759 
Q 2956 1122 2956 1747 
Q 2956 2369 2687 2733 
Q 2419 3097 1959 3097 
z
M 1959 3584 
Q 2709 3584 3137 3096 
Q 3566 2609 3566 1747 
Q 3566 888 3137 398 
Q 2709 -91 1959 -91 
Q 1206 -91 779 398 
Q 353 888 353 1747 
Q 353 2609 779 3096 
Q 1206 3584 1959 3584 
z
" transform="scale(0.015625)"/>
      <path id="DejaVuSans-6c" d="M 603 4863 
L 1178 4863 
L 1178 0 
L 603 0 
L 603 4863 
z
" transform="scale(0.015625)"/>
      <path id="DejaVuSans-75" d="M 544 1381 
L 544 3500 
L 1119 3500 
L 1119 1403 
Q 1119 906 1312 657 
Q 1506 409 1894 409 
Q 2359 409 2629 706 
Q 2900 1003 2900 1516 
L 2900 3500 
L 3475 3500 
L 3475 0 
L 2900 0 
L 2900 538 
Q 2691 219 2414 64 
Q 2138 -91 1772 -91 
Q 1169 -91 856 284 
Q 544 659 544 1381 
z
M 1991 3584 
L 1991 3584 
z
" transform="scale(0.015625)"/>
      <path id="DejaVuSans-72" d="M 2631 2963 
Q 2534 3019 2420 3045 
Q 2306 3072 2169 3072 
Q 1681 3072 1420 2755 
Q 1159 2438 1159 1844 
L 1159 0 
L 581 0 
L 581 3500 
L 1159 3500 
L 1159 2956 
Q 1341 3275 1631 3429 
Q 1922 3584 2338 3584 
Q 2397 3584 2469 3576 
Q 2541 3569 2628 3553 
L 2631 2963 
z
" transform="scale(0.015625)"/>
      <path id="DejaVuSans-69" d="M 603 3500 
L 1178 3500 
L 1178 0 
L 603 0 
L 603 3500 
z
M 603 4863 
L 1178 4863 
L 1178 4134 
L 603 4134 
L 603 4863 
z
" transform="scale(0.015625)"/>
      <path id="DejaVuSans-6e" d="M 3513 2113 
L 3513 0 
L 2938 0 
L 2938 2094 
Q 2938 2591 2744 2837 
Q 2550 3084 2163 3084 
Q 1697 3084 1428 2787 
Q 1159 2491 1159 1978 
L 1159 0 
L 581 0 
L 581 3500 
L 1159 3500 
L 1159 2956 
Q 1366 3272 1645 3428 
Q 1925 3584 2291 3584 
Q 2894 3584 3203 3211 
Q 3513 2838 3513 2113 
z
" transform="scale(0.015625)"/>
      <path id="DejaVuSans-67" d="M 2906 1791 
Q 2906 2416 2648 2759 
Q 2391 3103 1925 3103 
Q 1463 3103 1205 2759 
Q 947 2416 947 1791 
Q 947 1169 1205 825 
Q 1463 481 1925 481 
Q 2391 481 2648 825 
Q 2906 1169 2906 1791 
z
M 3481 434 
Q 3481 -459 3084 -895 
Q 2688 -1331 1869 -1331 
Q 1566 -1331 1297 -1286 
Q 1028 -1241 775 -1147 
L 775 -588 
Q 1028 -725 1275 -790 
Q 1522 -856 1778 -856 
Q 2344 -856 2625 -561 
Q 2906 -266 2906 331 
L 2906 616 
Q 2728 306 2450 153 
Q 2172 0 1784 0 
Q 1141 0 747 490 
Q 353 981 353 1791 
Q 353 2603 747 3093 
Q 1141 3584 1784 3584 
Q 2172 3584 2450 3431 
Q 2728 3278 2906 2969 
L 2906 3500 
L 3481 3500 
L 3481 434 
z
" transform="scale(0.015625)"/>
      <path id="DejaVuSans-5f" d="M 3263 -1063 
L 3263 -1509 
L -63 -1509 
L -63 -1063 
L 3263 -1063 
z
" transform="scale(0.015625)"/>
     </defs>
     <use xlink:href="#DejaVuSans-63"/>
     <use xlink:href="#DejaVuSans-6f" x="54.980469"/>
     <use xlink:href="#DejaVuSans-6c" x="116.162109"/>
     <use xlink:href="#DejaVuSans-6f" x="143.945312"/>
     <use xlink:href="#DejaVuSans-75" x="205.126953"/>
     <use xlink:href="#DejaVuSans-72" x="268.505859"/>
     <use xlink:href="#DejaVuSans-69" x="309.619141"/>
     <use xlink:href="#DejaVuSans-6e" x="337.402344"/>
     <use xlink:href="#DejaVuSans-67" x="400.78125"/>
     <use xlink:href="#DejaVuSans-5f" x="464.257812"/>
     <use xlink:href="#DejaVuSans-63" x="514.257812"/>
     <use xlink:href="#DejaVuSans-63" x="569.238281"/>
     <use xlink:href="#DejaVuSans-69" x="624.21875"/>
    </g>
   </g>
   <g id="legend_1">
    <g id="patch_7">
     <path d="M 64.6 302.584 
L 258.804688 302.584 
Q 260.804688 302.584 260.804688 300.584 
L 260.804688 257.549625 
Q 260.804688 255.549625 258.804688 255.549625 
L 64.6 255.549625 
Q 62.6 255.549625 62.6 257.549625 
L 62.6 300.584 
Q 62.6 302.584 64.6 302.584 
z
" style="fill: #ffffff; opacity: 0.8; stroke: #cccccc; stroke-linejoin: miter"/>
    </g>
    <g id="line2d_14">
     <path d="M 66.6 263.648062 
L 76.6 263.648062 
L 86.6 263.648062 
" style="fill: none; stroke: #1f77b4; stroke-opacity: 0.7; stroke-width: 1.5; stroke-linecap: square"/>
    </g>
    <g id="text_12">
     <!-- Positive cumulative predictions -->
     <g transform="translate(94.6 267.148062) scale(0.1 -0.1)">
      <defs>
       <path id="DejaVuSans-50" d="M 1259 4147 
L 1259 2394 
L 2053 2394 
Q 2494 2394 2734 2622 
Q 2975 2850 2975 3272 
Q 2975 3691 2734 3919 
Q 2494 4147 2053 4147 
L 1259 4147 
z
M 628 4666 
L 2053 4666 
Q 2838 4666 3239 4311 
Q 3641 3956 3641 3272 
Q 3641 2581 3239 2228 
Q 2838 1875 2053 1875 
L 1259 1875 
L 1259 0 
L 628 0 
L 628 4666 
z
" transform="scale(0.015625)"/>
       <path id="DejaVuSans-73" d="M 2834 3397 
L 2834 2853 
Q 2591 2978 2328 3040 
Q 2066 3103 1784 3103 
Q 1356 3103 1142 2972 
Q 928 2841 928 2578 
Q 928 2378 1081 2264 
Q 1234 2150 1697 2047 
L 1894 2003 
Q 2506 1872 2764 1633 
Q 3022 1394 3022 966 
Q 3022 478 2636 193 
Q 2250 -91 1575 -91 
Q 1294 -91 989 -36 
Q 684 19 347 128 
L 347 722 
Q 666 556 975 473 
Q 1284 391 1588 391 
Q 1994 391 2212 530 
Q 2431 669 2431 922 
Q 2431 1156 2273 1281 
Q 2116 1406 1581 1522 
L 1381 1569 
Q 847 1681 609 1914 
Q 372 2147 372 2553 
Q 372 3047 722 3315 
Q 1072 3584 1716 3584 
Q 2034 3584 2315 3537 
Q 2597 3491 2834 3397 
z
" transform="scale(0.015625)"/>
       <path id="DejaVuSans-74" d="M 1172 4494 
L 1172 3500 
L 2356 3500 
L 2356 3053 
L 1172 3053 
L 1172 1153 
Q 1172 725 1289 603 
Q 1406 481 1766 481 
L 2356 481 
L 2356 0 
L 1766 0 
Q 1100 0 847 248 
Q 594 497 594 1153 
L 594 3053 
L 172 3053 
L 172 3500 
L 594 3500 
L 594 4494 
L 1172 4494 
z
" transform="scale(0.015625)"/>
       <path id="DejaVuSans-76" d="M 191 3500 
L 800 3500 
L 1894 563 
L 2988 3500 
L 3597 3500 
L 2284 0 
L 1503 0 
L 191 3500 
z
" transform="scale(0.015625)"/>
       <path id="DejaVuSans-65" d="M 3597 1894 
L 3597 1613 
L 953 1613 
Q 991 1019 1311 708 
Q 1631 397 2203 397 
Q 2534 397 2845 478 
Q 3156 559 3463 722 
L 3463 178 
Q 3153 47 2828 -22 
Q 2503 -91 2169 -91 
Q 1331 -91 842 396 
Q 353 884 353 1716 
Q 353 2575 817 3079 
Q 1281 3584 2069 3584 
Q 2775 3584 3186 3129 
Q 3597 2675 3597 1894 
z
M 3022 2063 
Q 3016 2534 2758 2815 
Q 2500 3097 2075 3097 
Q 1594 3097 1305 2825 
Q 1016 2553 972 2059 
L 3022 2063 
z
" transform="scale(0.015625)"/>
       <path id="DejaVuSans-20" transform="scale(0.015625)"/>
       <path id="DejaVuSans-6d" d="M 3328 2828 
Q 3544 3216 3844 3400 
Q 4144 3584 4550 3584 
Q 5097 3584 5394 3201 
Q 5691 2819 5691 2113 
L 5691 0 
L 5113 0 
L 5113 2094 
Q 5113 2597 4934 2840 
Q 4756 3084 4391 3084 
Q 3944 3084 3684 2787 
Q 3425 2491 3425 1978 
L 3425 0 
L 2847 0 
L 2847 2094 
Q 2847 2600 2669 2842 
Q 2491 3084 2119 3084 
Q 1678 3084 1418 2786 
Q 1159 2488 1159 1978 
L 1159 0 
L 581 0 
L 581 3500 
L 1159 3500 
L 1159 2956 
Q 1356 3278 1631 3431 
Q 1906 3584 2284 3584 
Q 2666 3584 2933 3390 
Q 3200 3197 3328 2828 
z
" transform="scale(0.015625)"/>
       <path id="DejaVuSans-61" d="M 2194 1759 
Q 1497 1759 1228 1600 
Q 959 1441 959 1056 
Q 959 750 1161 570 
Q 1363 391 1709 391 
Q 2188 391 2477 730 
Q 2766 1069 2766 1631 
L 2766 1759 
L 2194 1759 
z
M 3341 1997 
L 3341 0 
L 2766 0 
L 2766 531 
Q 2569 213 2275 61 
Q 1981 -91 1556 -91 
Q 1019 -91 701 211 
Q 384 513 384 1019 
Q 384 1609 779 1909 
Q 1175 2209 1959 2209 
L 2766 2209 
L 2766 2266 
Q 2766 2663 2505 2880 
Q 2244 3097 1772 3097 
Q 1472 3097 1187 3025 
Q 903 2953 641 2809 
L 641 3341 
Q 956 3463 1253 3523 
Q 1550 3584 1831 3584 
Q 2591 3584 2966 3190 
Q 3341 2797 3341 1997 
z
" transform="scale(0.015625)"/>
       <path id="DejaVuSans-70" d="M 1159 525 
L 1159 -1331 
L 581 -1331 
L 581 3500 
L 1159 3500 
L 1159 2969 
Q 1341 3281 1617 3432 
Q 1894 3584 2278 3584 
Q 2916 3584 3314 3078 
Q 3713 2572 3713 1747 
Q 3713 922 3314 415 
Q 2916 -91 2278 -91 
Q 1894 -91 1617 61 
Q 1341 213 1159 525 
z
M 3116 1747 
Q 3116 2381 2855 2742 
Q 2594 3103 2138 3103 
Q 1681 3103 1420 2742 
Q 1159 2381 1159 1747 
Q 1159 1113 1420 752 
Q 1681 391 2138 391 
Q 2594 391 2855 752 
Q 3116 1113 3116 1747 
z
" transform="scale(0.015625)"/>
       <path id="DejaVuSans-64" d="M 2906 2969 
L 2906 4863 
L 3481 4863 
L 3481 0 
L 2906 0 
L 2906 525 
Q 2725 213 2448 61 
Q 2172 -91 1784 -91 
Q 1150 -91 751 415 
Q 353 922 353 1747 
Q 353 2572 751 3078 
Q 1150 3584 1784 3584 
Q 2172 3584 2448 3432 
Q 2725 3281 2906 2969 
z
M 947 1747 
Q 947 1113 1208 752 
Q 1469 391 1925 391 
Q 2381 391 2643 752 
Q 2906 1113 2906 1747 
Q 2906 2381 2643 2742 
Q 2381 3103 1925 3103 
Q 1469 3103 1208 2742 
Q 947 2381 947 1747 
z
" transform="scale(0.015625)"/>
      </defs>
      <use xlink:href="#DejaVuSans-50"/>
      <use xlink:href="#DejaVuSans-6f" x="56.677734"/>
      <use xlink:href="#DejaVuSans-73" x="117.859375"/>
      <use xlink:href="#DejaVuSans-69" x="169.958984"/>
      <use xlink:href="#DejaVuSans-74" x="197.742188"/>
      <use xlink:href="#DejaVuSans-69" x="236.951172"/>
      <use xlink:href="#DejaVuSans-76" x="264.734375"/>
      <use xlink:href="#DejaVuSans-65" x="323.914062"/>
      <use xlink:href="#DejaVuSans-20" x="385.4375"/>
      <use xlink:href="#DejaVuSans-63" x="417.224609"/>
      <use xlink:href="#DejaVuSans-75" x="472.205078"/>
      <use xlink:href="#DejaVuSans-6d" x="535.583984"/>
      <use xlink:href="#DejaVuSans-75" x="632.996094"/>
      <use xlink:href="#DejaVuSans-6c" x="696.375"/>
      <use xlink:href="#DejaVuSans-61" x="724.158203"/>
      <use xlink:href="#DejaVuSans-74" x="785.4375"/>
      <use xlink:href="#DejaVuSans-69" x="824.646484"/>
      <use xlink:href="#DejaVuSans-76" x="852.429688"/>
      <use xlink:href="#DejaVuSans-65" x="911.609375"/>
      <use xlink:href="#DejaVuSans-20" x="973.132812"/>
      <use xlink:href="#DejaVuSans-70" x="1004.919922"/>
      <use xlink:href="#DejaVuSans-72" x="1068.396484"/>
      <use xlink:href="#DejaVuSans-65" x="1107.259766"/>
      <use xlink:href="#DejaVuSans-64" x="1168.783203"/>
      <use xlink:href="#DejaVuSans-69" x="1232.259766"/>
      <use xlink:href="#DejaVuSans-63" x="1260.042969"/>
      <use xlink:href="#DejaVuSans-74" x="1315.023438"/>
      <use xlink:href="#DejaVuSans-69" x="1354.232422"/>
      <use xlink:href="#DejaVuSans-6f" x="1382.015625"/>
      <use xlink:href="#DejaVuSans-6e" x="1443.197266"/>
      <use xlink:href="#DejaVuSans-73" x="1506.576172"/>
     </g>
    </g>
    <g id="line2d_15">
     <path d="M 66.6 278.326188 
L 76.6 278.326188 
L 86.6 278.326188 
" style="fill: none; stroke: #ff7f0e; stroke-opacity: 0.7; stroke-width: 1.5; stroke-linecap: square"/>
    </g>
    <g id="text_13">
     <!-- Negative cumulative predictions -->
     <g transform="translate(94.6 281.826188) scale(0.1 -0.1)">
      <defs>
       <path id="DejaVuSans-4e" d="M 628 4666 
L 1478 4666 
L 3547 763 
L 3547 4666 
L 4159 4666 
L 4159 0 
L 3309 0 
L 1241 3903 
L 1241 0 
L 628 0 
L 628 4666 
z
" transform="scale(0.015625)"/>
      </defs>
      <use xlink:href="#DejaVuSans-4e"/>
      <use xlink:href="#DejaVuSans-65" x="74.804688"/>
      <use xlink:href="#DejaVuSans-67" x="136.328125"/>
      <use xlink:href="#DejaVuSans-61" x="199.804688"/>
      <use xlink:href="#DejaVuSans-74" x="261.083984"/>
      <use xlink:href="#DejaVuSans-69" x="300.292969"/>
      <use xlink:href="#DejaVuSans-76" x="328.076172"/>
      <use xlink:href="#DejaVuSans-65" x="387.255859"/>
      <use xlink:href="#DejaVuSans-20" x="448.779297"/>
      <use xlink:href="#DejaVuSans-63" x="480.566406"/>
      <use xlink:href="#DejaVuSans-75" x="535.546875"/>
      <use xlink:href="#DejaVuSans-6d" x="598.925781"/>
      <use xlink:href="#DejaVuSans-75" x="696.337891"/>
      <use xlink:href="#DejaVuSans-6c" x="759.716797"/>
      <use xlink:href="#DejaVuSans-61" x="787.5"/>
      <use xlink:href="#DejaVuSans-74" x="848.779297"/>
      <use xlink:href="#DejaVuSans-69" x="887.988281"/>
      <use xlink:href="#DejaVuSans-76" x="915.771484"/>
      <use xlink:href="#DejaVuSans-65" x="974.951172"/>
      <use xlink:href="#DejaVuSans-20" x="1036.474609"/>
      <use xlink:href="#DejaVuSans-70" x="1068.261719"/>
      <use xlink:href="#DejaVuSans-72" x="1131.738281"/>
      <use xlink:href="#DejaVuSans-65" x="1170.601562"/>
      <use xlink:href="#DejaVuSans-64" x="1232.125"/>
      <use xlink:href="#DejaVuSans-69" x="1295.601562"/>
      <use xlink:href="#DejaVuSans-63" x="1323.384766"/>
      <use xlink:href="#DejaVuSans-74" x="1378.365234"/>
      <use xlink:href="#DejaVuSans-69" x="1417.574219"/>
      <use xlink:href="#DejaVuSans-6f" x="1445.357422"/>
      <use xlink:href="#DejaVuSans-6e" x="1506.539062"/>
      <use xlink:href="#DejaVuSans-73" x="1569.917969"/>
     </g>
    </g>
    <g id="line2d_16">
     <path d="M 66.6 293.004312 
L 76.6 293.004312 
L 86.6 293.004312 
" style="fill: none; stroke: #2ca02c; stroke-opacity: 0.7; stroke-width: 1.5; stroke-linecap: square"/>
    </g>
    <g id="text_14">
     <!-- Average cumulative predictions -->
     <g transform="translate(94.6 296.504312) scale(0.1 -0.1)">
      <defs>
       <path id="DejaVuSans-41" d="M 2188 4044 
L 1331 1722 
L 3047 1722 
L 2188 4044 
z
M 1831 4666 
L 2547 4666 
L 4325 0 
L 3669 0 
L 3244 1197 
L 1141 1197 
L 716 0 
L 50 0 
L 1831 4666 
z
" transform="scale(0.015625)"/>
      </defs>
      <use xlink:href="#DejaVuSans-41"/>
      <use xlink:href="#DejaVuSans-76" x="62.533203"/>
      <use xlink:href="#DejaVuSans-65" x="121.712891"/>
      <use xlink:href="#DejaVuSans-72" x="183.236328"/>
      <use xlink:href="#DejaVuSans-61" x="224.349609"/>
      <use xlink:href="#DejaVuSans-67" x="285.628906"/>
      <use xlink:href="#DejaVuSans-65" x="349.105469"/>
      <use xlink:href="#DejaVuSans-20" x="410.628906"/>
      <use xlink:href="#DejaVuSans-63" x="442.416016"/>
      <use xlink:href="#DejaVuSans-75" x="497.396484"/>
      <use xlink:href="#DejaVuSans-6d" x="560.775391"/>
      <use xlink:href="#DejaVuSans-75" x="658.1875"/>
      <use xlink:href="#DejaVuSans-6c" x="721.566406"/>
      <use xlink:href="#DejaVuSans-61" x="749.349609"/>
      <use xlink:href="#DejaVuSans-74" x="810.628906"/>
      <use xlink:href="#DejaVuSans-69" x="849.837891"/>
      <use xlink:href="#DejaVuSans-76" x="877.621094"/>
      <use xlink:href="#DejaVuSans-65" x="936.800781"/>
      <use xlink:href="#DejaVuSans-20" x="998.324219"/>
      <use xlink:href="#DejaVuSans-70" x="1030.111328"/>
      <use xlink:href="#DejaVuSans-72" x="1093.587891"/>
      <use xlink:href="#DejaVuSans-65" x="1132.451172"/>
      <use xlink:href="#DejaVuSans-64" x="1193.974609"/>
      <use xlink:href="#DejaVuSans-69" x="1257.451172"/>
      <use xlink:href="#DejaVuSans-63" x="1285.234375"/>
      <use xlink:href="#DejaVuSans-74" x="1340.214844"/>
      <use xlink:href="#DejaVuSans-69" x="1379.423828"/>
      <use xlink:href="#DejaVuSans-6f" x="1407.207031"/>
      <use xlink:href="#DejaVuSans-6e" x="1468.388672"/>
      <use xlink:href="#DejaVuSans-73" x="1531.767578"/>
     </g>
    </g>
   </g>
  </g>
 </g>
 <defs>
  <clipPath id="p4c71484516">
   <rect x="57.6" y="41.472" width="357.12" height="266.112"/>
  </clipPath>
 </defs>
</svg>
