<?xml version="1.0" encoding="utf-8" standalone="no"?>
<!DOCTYPE svg PUBLIC "-//W3C//DTD SVG 1.1//EN"
  "http://www.w3.org/Graphics/SVG/1.1/DTD/svg11.dtd">
<svg xmlns:xlink="http://www.w3.org/1999/xlink" width="460.8pt" height="345.6pt" viewBox="0 0 460.8 345.6" xmlns="http://www.w3.org/2000/svg" version="1.1">
 <metadata>
  <rdf:RDF xmlns:dc="http://purl.org/dc/elements/1.1/" xmlns:cc="http://creativecommons.org/ns#" xmlns:rdf="http://www.w3.org/1999/02/22-rdf-syntax-ns#">
   <cc:Work>
    <dc:type rdf:resource="http://purl.org/dc/dcmitype/StillImage"/>
    <dc:date>2024-07-19T13:30:00.582230</dc:date>
    <dc:format>image/svg+xml</dc:format>
    <dc:creator>
     <cc:Agent>
      <dc:title>Matplotlib v3.9.0, https://matplotlib.org/</dc:title>
     </cc:Agent>
    </dc:creator>
   </cc:Work>
  </rdf:RDF>
 </metadata>
 <defs>
  <style type="text/css">*{stroke-linejoin: round; stroke-linecap: butt}</style>
 </defs>
 <g id="figure_1">
  <g id="patch_1">
   <path d="M 0 345.6 
L 460.8 345.6 
L 460.8 0 
L 0 0 
z
" style="fill: #ffffff"/>
  </g>
  <g id="axes_1">
   <g id="patch_2">
    <path d="M 57.6 307.584 
L 414.72 307.584 
L 414.72 41.472 
L 57.6 41.472 
z
" style="fill: #ffffff"/>
   </g>
   <g id="matplotlib.axis_1">
    <g id="xtick_1">
     <g id="line2d_1">
      <defs>
       <path id="m55c0d06680" d="M 0 0 
L 0 3.5 
" style="stroke: #000000; stroke-width: 0.8"/>
      </defs>
      <g>
       <use xlink:href="#m55c0d06680" x="73.832727" y="307.584" style="stroke: #000000; stroke-width: 0.8"/>
      </g>
     </g>
     <g id="text_1">
      <!-- 0 -->
      <g transform="translate(70.651477 322.182437) scale(0.1 -0.1)">
       <defs>
        <path id="DejaVuSans-30" d="M 2034 4250 
Q 1547 4250 1301 3770 
Q 1056 3291 1056 2328 
Q 1056 1369 1301 889 
Q 1547 409 2034 409 
Q 2525 409 2770 889 
Q 3016 1369 3016 2328 
Q 3016 3291 2770 3770 
Q 2525 4250 2034 4250 
z
M 2034 4750 
Q 2819 4750 3233 4129 
Q 3647 3509 3647 2328 
Q 3647 1150 3233 529 
Q 2819 -91 2034 -91 
Q 1250 -91 836 529 
Q 422 1150 422 2328 
Q 422 3509 836 4129 
Q 1250 4750 2034 4750 
z
" transform="scale(0.015625)"/>
       </defs>
       <use xlink:href="#DejaVuSans-30"/>
      </g>
     </g>
    </g>
    <g id="xtick_2">
     <g id="line2d_2">
      <g>
       <use xlink:href="#m55c0d06680" x="118.003414" y="307.584" style="stroke: #000000; stroke-width: 0.8"/>
      </g>
     </g>
     <g id="text_2">
      <!-- 20 -->
      <g transform="translate(111.640914 322.182437) scale(0.1 -0.1)">
       <defs>
        <path id="DejaVuSans-32" d="M 1228 531 
L 3431 531 
L 3431 0 
L 469 0 
L 469 531 
Q 828 903 1448 1529 
Q 2069 2156 2228 2338 
Q 2531 2678 2651 2914 
Q 2772 3150 2772 3378 
Q 2772 3750 2511 3984 
Q 2250 4219 1831 4219 
Q 1534 4219 1204 4116 
Q 875 4013 500 3803 
L 500 4441 
Q 881 4594 1212 4672 
Q 1544 4750 1819 4750 
Q 2544 4750 2975 4387 
Q 3406 4025 3406 3419 
Q 3406 3131 3298 2873 
Q 3191 2616 2906 2266 
Q 2828 2175 2409 1742 
Q 1991 1309 1228 531 
z
" transform="scale(0.015625)"/>
       </defs>
       <use xlink:href="#DejaVuSans-32"/>
       <use xlink:href="#DejaVuSans-30" x="63.623047"/>
      </g>
     </g>
    </g>
    <g id="xtick_3">
     <g id="line2d_3">
      <g>
       <use xlink:href="#m55c0d06680" x="162.1741" y="307.584" style="stroke: #000000; stroke-width: 0.8"/>
      </g>
     </g>
     <g id="text_3">
      <!-- 40 -->
      <g transform="translate(155.8116 322.182437) scale(0.1 -0.1)">
       <defs>
        <path id="DejaVuSans-34" d="M 2419 4116 
L 825 1625 
L 2419 1625 
L 2419 4116 
z
M 2253 4666 
L 3047 4666 
L 3047 1625 
L 3713 1625 
L 3713 1100 
L 3047 1100 
L 3047 0 
L 2419 0 
L 2419 1100 
L 313 1100 
L 313 1709 
L 2253 4666 
z
" transform="scale(0.015625)"/>
       </defs>
       <use xlink:href="#DejaVuSans-34"/>
       <use xlink:href="#DejaVuSans-30" x="63.623047"/>
      </g>
     </g>
    </g>
    <g id="xtick_4">
     <g id="line2d_4">
      <g>
       <use xlink:href="#m55c0d06680" x="206.344787" y="307.584" style="stroke: #000000; stroke-width: 0.8"/>
      </g>
     </g>
     <g id="text_4">
      <!-- 60 -->
      <g transform="translate(199.982287 322.182437) scale(0.1 -0.1)">
       <defs>
        <path id="DejaVuSans-36" d="M 2113 2584 
Q 1688 2584 1439 2293 
Q 1191 2003 1191 1497 
Q 1191 994 1439 701 
Q 1688 409 2113 409 
Q 2538 409 2786 701 
Q 3034 994 3034 1497 
Q 3034 2003 2786 2293 
Q 2538 2584 2113 2584 
z
M 3366 4563 
L 3366 3988 
Q 3128 4100 2886 4159 
Q 2644 4219 2406 4219 
Q 1781 4219 1451 3797 
Q 1122 3375 1075 2522 
Q 1259 2794 1537 2939 
Q 1816 3084 2150 3084 
Q 2853 3084 3261 2657 
Q 3669 2231 3669 1497 
Q 3669 778 3244 343 
Q 2819 -91 2113 -91 
Q 1303 -91 875 529 
Q 447 1150 447 2328 
Q 447 3434 972 4092 
Q 1497 4750 2381 4750 
Q 2619 4750 2861 4703 
Q 3103 4656 3366 4563 
z
" transform="scale(0.015625)"/>
       </defs>
       <use xlink:href="#DejaVuSans-36"/>
       <use xlink:href="#DejaVuSans-30" x="63.623047"/>
      </g>
     </g>
    </g>
    <g id="xtick_5">
     <g id="line2d_5">
      <g>
       <use xlink:href="#m55c0d06680" x="250.515473" y="307.584" style="stroke: #000000; stroke-width: 0.8"/>
      </g>
     </g>
     <g id="text_5">
      <!-- 80 -->
      <g transform="translate(244.152973 322.182437) scale(0.1 -0.1)">
       <defs>
        <path id="DejaVuSans-38" d="M 2034 2216 
Q 1584 2216 1326 1975 
Q 1069 1734 1069 1313 
Q 1069 891 1326 650 
Q 1584 409 2034 409 
Q 2484 409 2743 651 
Q 3003 894 3003 1313 
Q 3003 1734 2745 1975 
Q 2488 2216 2034 2216 
z
M 1403 2484 
Q 997 2584 770 2862 
Q 544 3141 544 3541 
Q 544 4100 942 4425 
Q 1341 4750 2034 4750 
Q 2731 4750 3128 4425 
Q 3525 4100 3525 3541 
Q 3525 3141 3298 2862 
Q 3072 2584 2669 2484 
Q 3125 2378 3379 2068 
Q 3634 1759 3634 1313 
Q 3634 634 3220 271 
Q 2806 -91 2034 -91 
Q 1263 -91 848 271 
Q 434 634 434 1313 
Q 434 1759 690 2068 
Q 947 2378 1403 2484 
z
M 1172 3481 
Q 1172 3119 1398 2916 
Q 1625 2713 2034 2713 
Q 2441 2713 2670 2916 
Q 2900 3119 2900 3481 
Q 2900 3844 2670 4047 
Q 2441 4250 2034 4250 
Q 1625 4250 1398 4047 
Q 1172 3844 1172 3481 
z
" transform="scale(0.015625)"/>
       </defs>
       <use xlink:href="#DejaVuSans-38"/>
       <use xlink:href="#DejaVuSans-30" x="63.623047"/>
      </g>
     </g>
    </g>
    <g id="xtick_6">
     <g id="line2d_6">
      <g>
       <use xlink:href="#m55c0d06680" x="294.68616" y="307.584" style="stroke: #000000; stroke-width: 0.8"/>
      </g>
     </g>
     <g id="text_6">
      <!-- 100 -->
      <g transform="translate(285.14241 322.182437) scale(0.1 -0.1)">
       <defs>
        <path id="DejaVuSans-31" d="M 794 531 
L 1825 531 
L 1825 4091 
L 703 3866 
L 703 4441 
L 1819 4666 
L 2450 4666 
L 2450 531 
L 3481 531 
L 3481 0 
L 794 0 
L 794 531 
z
" transform="scale(0.015625)"/>
       </defs>
       <use xlink:href="#DejaVuSans-31"/>
       <use xlink:href="#DejaVuSans-30" x="63.623047"/>
       <use xlink:href="#DejaVuSans-30" x="127.246094"/>
      </g>
     </g>
    </g>
    <g id="xtick_7">
     <g id="line2d_7">
      <g>
       <use xlink:href="#m55c0d06680" x="338.856846" y="307.584" style="stroke: #000000; stroke-width: 0.8"/>
      </g>
     </g>
     <g id="text_7">
      <!-- 120 -->
      <g transform="translate(329.313096 322.182437) scale(0.1 -0.1)">
       <use xlink:href="#DejaVuSans-31"/>
       <use xlink:href="#DejaVuSans-32" x="63.623047"/>
       <use xlink:href="#DejaVuSans-30" x="127.246094"/>
      </g>
     </g>
    </g>
    <g id="xtick_8">
     <g id="line2d_8">
      <g>
       <use xlink:href="#m55c0d06680" x="383.027532" y="307.584" style="stroke: #000000; stroke-width: 0.8"/>
      </g>
     </g>
     <g id="text_8">
      <!-- 140 -->
      <g transform="translate(373.483782 322.182437) scale(0.1 -0.1)">
       <use xlink:href="#DejaVuSans-31"/>
       <use xlink:href="#DejaVuSans-34" x="63.623047"/>
       <use xlink:href="#DejaVuSans-30" x="127.246094"/>
      </g>
     </g>
    </g>
   </g>
   <g id="matplotlib.axis_2">
    <g id="ytick_1">
     <g id="line2d_9">
      <defs>
       <path id="m4f8be75c1d" d="M 0 0 
L -3.5 0 
" style="stroke: #000000; stroke-width: 0.8"/>
      </defs>
      <g>
       <use xlink:href="#m4f8be75c1d" x="57.6" y="278.131317" style="stroke: #000000; stroke-width: 0.8"/>
      </g>
     </g>
     <g id="text_9">
      <!-- −200 -->
      <g transform="translate(23.132812 281.930536) scale(0.1 -0.1)">
       <defs>
        <path id="DejaVuSans-2212" d="M 678 2272 
L 4684 2272 
L 4684 1741 
L 678 1741 
L 678 2272 
z
" transform="scale(0.015625)"/>
       </defs>
       <use xlink:href="#DejaVuSans-2212"/>
       <use xlink:href="#DejaVuSans-32" x="83.789062"/>
       <use xlink:href="#DejaVuSans-30" x="147.412109"/>
       <use xlink:href="#DejaVuSans-30" x="211.035156"/>
      </g>
     </g>
    </g>
    <g id="ytick_2">
     <g id="line2d_10">
      <g>
       <use xlink:href="#m4f8be75c1d" x="57.6" y="235.325779" style="stroke: #000000; stroke-width: 0.8"/>
      </g>
     </g>
     <g id="text_10">
      <!-- −100 -->
      <g transform="translate(23.132812 239.124997) scale(0.1 -0.1)">
       <use xlink:href="#DejaVuSans-2212"/>
       <use xlink:href="#DejaVuSans-31" x="83.789062"/>
       <use xlink:href="#DejaVuSans-30" x="147.412109"/>
       <use xlink:href="#DejaVuSans-30" x="211.035156"/>
      </g>
     </g>
    </g>
    <g id="ytick_3">
     <g id="line2d_11">
      <g>
       <use xlink:href="#m4f8be75c1d" x="57.6" y="192.52024" style="stroke: #000000; stroke-width: 0.8"/>
      </g>
     </g>
     <g id="text_11">
      <!-- 0 -->
      <g transform="translate(44.2375 196.319459) scale(0.1 -0.1)">
       <use xlink:href="#DejaVuSans-30"/>
      </g>
     </g>
    </g>
    <g id="ytick_4">
     <g id="line2d_12">
      <g>
       <use xlink:href="#m4f8be75c1d" x="57.6" y="149.714701" style="stroke: #000000; stroke-width: 0.8"/>
      </g>
     </g>
     <g id="text_12">
      <!-- 100 -->
      <g transform="translate(31.5125 153.51392) scale(0.1 -0.1)">
       <use xlink:href="#DejaVuSans-31"/>
       <use xlink:href="#DejaVuSans-30" x="63.623047"/>
       <use xlink:href="#DejaVuSans-30" x="127.246094"/>
      </g>
     </g>
    </g>
    <g id="ytick_5">
     <g id="line2d_13">
      <g>
       <use xlink:href="#m4f8be75c1d" x="57.6" y="106.909162" style="stroke: #000000; stroke-width: 0.8"/>
      </g>
     </g>
     <g id="text_13">
      <!-- 200 -->
      <g transform="translate(31.5125 110.708381) scale(0.1 -0.1)">
       <use xlink:href="#DejaVuSans-32"/>
       <use xlink:href="#DejaVuSans-30" x="63.623047"/>
       <use xlink:href="#DejaVuSans-30" x="127.246094"/>
      </g>
     </g>
    </g>
    <g id="ytick_6">
     <g id="line2d_14">
      <g>
       <use xlink:href="#m4f8be75c1d" x="57.6" y="64.103624" style="stroke: #000000; stroke-width: 0.8"/>
      </g>
     </g>
     <g id="text_14">
      <!-- 300 -->
      <g transform="translate(31.5125 67.902842) scale(0.1 -0.1)">
       <defs>
        <path id="DejaVuSans-33" d="M 2597 2516 
Q 3050 2419 3304 2112 
Q 3559 1806 3559 1356 
Q 3559 666 3084 287 
Q 2609 -91 1734 -91 
Q 1441 -91 1130 -33 
Q 819 25 488 141 
L 488 750 
Q 750 597 1062 519 
Q 1375 441 1716 441 
Q 2309 441 2620 675 
Q 2931 909 2931 1356 
Q 2931 1769 2642 2001 
Q 2353 2234 1838 2234 
L 1294 2234 
L 1294 2753 
L 1863 2753 
Q 2328 2753 2575 2939 
Q 2822 3125 2822 3475 
Q 2822 3834 2567 4026 
Q 2313 4219 1838 4219 
Q 1578 4219 1281 4162 
Q 984 4106 628 3988 
L 628 4550 
Q 988 4650 1302 4700 
Q 1616 4750 1894 4750 
Q 2613 4750 3031 4423 
Q 3450 4097 3450 3541 
Q 3450 3153 3228 2886 
Q 3006 2619 2597 2516 
z
" transform="scale(0.015625)"/>
       </defs>
       <use xlink:href="#DejaVuSans-33"/>
       <use xlink:href="#DejaVuSans-30" x="63.623047"/>
       <use xlink:href="#DejaVuSans-30" x="127.246094"/>
      </g>
     </g>
    </g>
   </g>
   <g id="line2d_15">
    <path d="M 73.832727 191.341135 
L 76.041262 193.189031 
L 78.249796 186.168016 
L 80.45833 195.001144 
L 82.666865 193.019212 
L 84.875399 195.496703 
L 87.083933 192.5374 
L 89.292468 194.37876 
L 91.501002 191.054802 
L 93.709536 194.927557 
L 95.918071 192.659575 
L 98.126605 195.841634 
L 100.335139 192.644392 
L 102.543673 194.412641 
L 104.752208 192.6273 
L 106.960742 193.875757 
L 109.169276 186.528357 
L 111.377811 186.957743 
L 113.586345 193.484956 
L 115.794879 192.859258 
L 118.003414 188.134388 
L 120.211948 185.570111 
L 122.420482 196.7121 
L 124.629017 195.20449 
L 126.837551 197.689109 
L 129.046085 194.40753 
L 131.25462 193.005085 
L 133.463154 191.842429 
L 135.671688 195.592535 
L 137.880223 194.974813 
L 140.088757 190.090635 
L 142.297291 190.588017 
L 144.505826 194.891086 
L 146.71436 195.312935 
L 148.922894 192.81777 
L 151.131429 193.157643 
L 153.339963 186.628514 
L 155.548497 195.679376 
L 157.757032 191.035794 
L 159.965566 196.615124 
L 162.1741 188.82409 
L 164.382635 194.03466 
L 166.591169 193.631521 
L 168.799703 194.825686 
L 171.008237 193.740347 
L 173.216772 192.310245 
L 175.425306 196.28597 
L 177.63384 192.743002 
L 179.842375 190.799192 
L 182.050909 197.053529 
L 184.259443 182.360151 
L 186.467978 181.428202 
L 188.676512 173.429553 
L 190.885046 200.019661 
L 193.093581 197.436926 
L 195.302115 193.771799 
L 197.510649 197.02109 
L 199.719184 198.347523 
L 201.927718 191.607557 
L 204.136252 193.079012 
L 206.344787 195.340386 
L 208.553321 193.305838 
L 210.761855 196.205512 
L 212.97039 197.817764 
L 215.178924 186.7689 
L 217.387458 190.346781 
L 219.595993 199.890132 
L 221.804527 186.150854 
L 224.013061 198.965222 
L 226.221596 192.816398 
L 228.43013 196.687345 
L 230.638664 190.70648 
L 232.847199 196.197501 
L 235.055733 192.442555 
L 237.264267 193.811794 
L 239.472801 193.091546 
L 241.681336 189.521075 
L 243.88987 196.907893 
L 246.098404 197.377356 
L 248.306939 195.008542 
L 250.515473 191.625985 
L 252.724007 189.770934 
L 254.932542 193.861839 
L 257.141076 192.547907 
L 259.34961 194.665535 
L 261.558145 196.028501 
L 263.766679 194.473311 
L 265.975213 192.312465 
L 268.183748 193.34282 
L 270.392282 191.296179 
L 272.600816 190.433106 
L 274.809351 188.19247 
L 277.017885 198.282307 
L 279.226419 198.605669 
L 281.434954 191.199938 
L 283.643488 185.905374 
L 285.852022 189.787365 
L 288.060557 201.382588 
L 290.269091 179.544814 
L 292.477625 192.317903 
L 294.68616 186.31433 
L 296.894694 187.074674 
L 299.103228 192.812955 
L 301.311763 197.061813 
L 303.520297 183.834291 
L 305.728831 180.605007 
L 307.937365 185.638066 
L 310.1459 197.158288 
L 312.354434 175.186764 
L 314.562968 196.113285 
L 316.771503 190.320895 
L 318.980037 201.831547 
L 321.188571 198.565708 
L 323.397106 187.652708 
L 325.60564 184.039017 
L 327.814174 181.60911 
L 330.022709 189.934841 
L 332.231243 188.344952 
L 334.439777 194.611323 
L 336.648312 202.103919 
L 338.856846 197.45523 
L 341.06538 183.425896 
L 345.482449 197.479224 
L 347.690983 200.044613 
L 349.899518 192.05015 
L 352.108052 184.595325 
L 354.316586 191.338708 
L 356.525121 195.12137 
L 358.733655 195.53139 
L 360.942189 193.918266 
L 363.150724 189.492764 
L 365.359258 195.03853 
L 367.567792 197.299272 
L 369.776327 193.208895 
L 371.984861 195.489696 
L 374.193395 194.739619 
L 376.401929 186.879504 
L 378.610464 188.299612 
L 380.818998 192.993021 
L 383.027532 185.55429 
L 385.236067 188.694804 
L 387.444601 193.752818 
L 389.653135 193.53769 
L 391.86167 200.412873 
L 394.070204 196.009658 
L 396.278738 197.937013 
L 398.487273 194.658603 
L 398.487273 194.658603 
" clip-path="url(#pe68919dc3e)" style="fill: none; stroke: #008000; stroke-opacity: 0.8; stroke-width: 0.5; stroke-linecap: square"/>
   </g>
   <g id="line2d_16">
    <path d="M 73.832727 174.430615 
L 76.041262 179.336622 
L 78.249796 164.829362 
L 80.45833 158.536007 
L 82.666865 179.975812 
L 84.875399 180.079761 
L 87.083933 184.204647 
L 89.292468 175.847495 
L 91.501002 186.268678 
L 93.709536 180.128563 
L 95.918071 183.847513 
L 98.126605 181.60801 
L 100.335139 179.772722 
L 102.543673 187.027158 
L 104.752208 187.100432 
L 106.960742 187.629592 
L 109.169276 148.274997 
L 111.377811 158.394436 
L 113.586345 169.252619 
L 115.794879 169.041002 
L 118.003414 149.848285 
L 120.211948 164.559811 
L 122.420482 166.814619 
L 126.837551 182.543513 
L 129.046085 184.398248 
L 131.25462 183.233284 
L 133.463154 165.114648 
L 135.671688 187.23907 
L 137.880223 189.397795 
L 140.088757 171.443076 
L 142.297291 162.530605 
L 144.505826 176.541146 
L 146.71436 188.251313 
L 148.922894 181.266522 
L 151.131429 184.119265 
L 153.339963 152.034903 
L 155.548497 155.744681 
L 157.757032 157.681199 
L 159.965566 189.437169 
L 162.1741 173.740205 
L 164.382635 171.631534 
L 166.591169 184.867432 
L 168.799703 187.3245 
L 171.008237 188.51655 
L 173.216772 181.055008 
L 175.425306 189.314971 
L 177.63384 183.013712 
L 179.842375 167.599381 
L 182.050909 167.251933 
L 184.259443 142.582948 
L 186.467978 94.709492 
L 188.676512 53.568 
L 190.885046 144.979682 
L 193.093581 156.949956 
L 195.302115 159.049753 
L 197.510649 170.775632 
L 199.719184 185.20443 
L 201.927718 107.896022 
L 204.136252 155.097678 
L 206.344787 176.532194 
L 208.553321 176.305126 
L 210.761855 181.776956 
L 212.97039 183.823205 
L 215.178924 138.716326 
L 217.387458 156.531083 
L 219.595993 172.861563 
L 221.804527 165.897445 
L 224.013061 141.631685 
L 226.221596 171.745639 
L 228.43013 185.403976 
L 230.638664 179.451728 
L 232.847199 169.546912 
L 235.055733 177.263866 
L 237.264267 150.25535 
L 239.472801 179.668475 
L 241.681336 151.530001 
L 243.88987 169.376332 
L 246.098404 179.850413 
L 248.306939 180.716456 
L 250.515473 172.985135 
L 252.724007 153.616248 
L 254.932542 183.766905 
L 257.141076 183.32246 
L 259.34961 163.9125 
L 261.558145 174.652115 
L 263.766679 163.171008 
L 265.975213 176.050346 
L 268.183748 172.193444 
L 270.392282 177.426295 
L 272.600816 160.353671 
L 274.809351 153.870666 
L 277.017885 179.68606 
L 279.226419 176.328678 
L 281.434954 176.001753 
L 283.643488 144.767126 
L 285.852022 167.929673 
L 288.060557 186.859513 
L 290.269091 153.126284 
L 292.477625 150.408801 
L 294.68616 145.973768 
L 296.894694 148.257701 
L 299.103228 138.366666 
L 301.311763 162.426182 
L 303.520297 156.977345 
L 305.728831 125.416788 
L 307.937365 123.392828 
L 310.1459 123.379017 
L 312.354434 128.285265 
L 314.562968 140.599748 
L 316.771503 168.370381 
L 318.980037 173.902873 
L 321.188571 180.805888 
L 323.397106 154.452928 
L 325.60564 134.667531 
L 327.814174 118.678381 
L 330.022709 159.74705 
L 332.231243 148.813017 
L 334.439777 152.183616 
L 336.648312 161.703393 
L 338.856846 168.485128 
L 341.06538 150.965811 
L 343.273915 169.30109 
L 345.482449 166.635758 
L 347.690983 170.366945 
L 349.899518 170.063436 
L 352.108052 157.371608 
L 354.316586 160.911676 
L 356.525121 160.835775 
L 358.733655 182.419678 
L 360.942189 164.5001 
L 363.150724 171.772043 
L 365.359258 172.376653 
L 367.567792 181.375759 
L 369.776327 178.813854 
L 371.984861 178.113525 
L 374.193395 173.251797 
L 376.401929 166.318878 
L 378.610464 165.938632 
L 380.818998 164.669158 
L 383.027532 162.59346 
L 385.236067 163.056823 
L 387.444601 170.154472 
L 389.653135 164.501271 
L 391.86167 175.889994 
L 394.070204 188.908903 
L 396.278738 182.146702 
L 398.487273 162.939058 
L 398.487273 162.939058 
" clip-path="url(#pe68919dc3e)" style="fill: none; stroke: #32cd32; stroke-opacity: 0.8; stroke-width: 0.5; stroke-linecap: square"/>
   </g>
   <g id="line2d_17">
    <path d="M 73.832727 212.116628 
L 76.041262 207.524112 
L 78.249796 224.45 
L 80.45833 216.933244 
L 82.666865 206.611842 
L 84.875399 209.118875 
L 87.083933 204.175783 
L 89.292468 209.39619 
L 91.501002 197.68567 
L 93.709536 204.979918 
L 95.918071 203.431796 
L 98.126605 207.140536 
L 100.335139 204.154189 
L 102.543673 204.567884 
L 104.752208 198.741921 
L 106.960742 207.12551 
L 109.169276 218.198835 
L 111.377811 213.654738 
L 113.586345 213.354606 
L 115.794879 219.930604 
L 118.003414 207.214533 
L 120.211948 243.806415 
L 122.420482 228.973538 
L 124.629017 209.073387 
L 126.837551 208.683298 
L 129.046085 206.431613 
L 131.25462 209.338128 
L 133.463154 206.479087 
L 135.671688 207.450281 
L 137.880223 203.759473 
L 140.088757 204.161438 
L 142.297291 202.503094 
L 144.505826 217.91328 
L 146.71436 203.817511 
L 148.922894 203.909907 
L 151.131429 198.348262 
L 153.339963 202.105395 
L 155.548497 214.975429 
L 157.757032 207.708109 
L 159.965566 207.833996 
L 162.1741 198.787828 
L 164.382635 209.517289 
L 166.591169 202.533492 
L 168.799703 206.127019 
L 171.008237 201.646 
L 173.216772 202.364917 
L 175.425306 203.500872 
L 177.63384 204.075126 
L 179.842375 203.492833 
L 182.050909 213.399553 
L 184.259443 201.013034 
L 186.467978 251.9382 
L 188.676512 290.123047 
L 190.885046 265.071436 
L 193.093581 230.509292 
L 195.302115 226.866599 
L 197.510649 230.065418 
L 199.719184 210.759621 
L 201.927718 228.974361 
L 204.136252 208.586694 
L 206.344787 217.404376 
L 208.553321 209.715775 
L 210.761855 210.313142 
L 212.97039 209.160756 
L 215.178924 221.282136 
L 217.387458 215.068258 
L 219.595993 217.804332 
L 221.804527 199.300515 
L 224.013061 224.523467 
L 226.221596 210.437827 
L 228.43013 217.101522 
L 230.638664 210.967273 
L 232.847199 214.379359 
L 235.055733 211.606846 
L 237.264267 218.320335 
L 239.472801 203.644795 
L 241.681336 231.530716 
L 243.88987 212.569872 
L 246.098404 218.346357 
L 248.306939 212.530303 
L 250.515473 208.871236 
L 252.724007 218.000126 
L 254.932542 205.783543 
L 257.141076 208.936439 
L 259.34961 218.138716 
L 261.558145 213.534939 
L 263.766679 220.35789 
L 265.975213 204.067159 
L 268.183748 207.953086 
L 270.392282 209.497596 
L 272.600816 213.378477 
L 274.809351 213.963167 
L 277.017885 222.318309 
L 281.434954 200.812222 
L 283.643488 218.529748 
L 285.852022 227.057087 
L 288.060557 227.937569 
L 290.269091 207.852574 
L 292.477625 239.725722 
L 294.68616 223.098524 
L 296.894694 234.639182 
L 299.103228 233.821314 
L 301.311763 220.694759 
L 303.520297 209.006304 
L 305.728831 232.061488 
L 307.937365 241.448317 
L 310.1459 232.393862 
L 312.354434 225.770433 
L 314.562968 244.607448 
L 316.771503 219.272682 
L 318.980037 238.596958 
L 321.188571 230.362415 
L 323.397106 219.234343 
L 325.60564 220.577549 
L 327.814174 219.322373 
L 330.022709 237.294931 
L 332.231243 234.897091 
L 334.439777 230.749114 
L 336.648312 282.869439 
L 338.856846 245.89082 
L 341.06538 217.723052 
L 343.273915 221.773407 
L 345.482449 230.583497 
L 347.690983 219.513076 
L 349.899518 215.773318 
L 352.108052 205.330922 
L 354.316586 224.16253 
L 356.525121 217.511428 
L 358.733655 217.574476 
L 360.942189 223.256422 
L 363.150724 221.524939 
L 365.359258 214.24065 
L 367.567792 219.087243 
L 369.776327 215.839461 
L 371.984861 216.636175 
L 374.193395 208.671588 
L 376.401929 212.168544 
L 378.610464 209.12455 
L 380.818998 220.17258 
L 383.027532 204.347306 
L 385.236067 208.260811 
L 387.444601 214.055701 
L 389.653135 227.062893 
L 391.86167 229.568501 
L 394.070204 204.69892 
L 396.278738 219.80574 
L 398.487273 214.054859 
L 398.487273 214.054859 
" clip-path="url(#pe68919dc3e)" style="fill: none; stroke: #32cd32; stroke-opacity: 0.8; stroke-width: 0.5; stroke-linecap: square"/>
   </g>
   <g id="line2d_18">
    <path d="M 73.832727 194.226389 
L 76.041262 192.291353 
L 78.249796 185.706938 
L 80.45833 194.453033 
L 82.666865 192.108377 
L 84.875399 194.730939 
L 87.083933 193.741963 
L 89.292468 195.189825 
L 91.501002 193.609413 
L 93.709536 193.64252 
L 95.918071 193.369095 
L 98.126605 194.096166 
L 100.335139 193.251752 
L 102.543673 194.010746 
L 104.752208 192.910383 
L 106.960742 192.634986 
L 109.169276 187.048232 
L 111.377811 186.771719 
L 113.586345 194.263578 
L 115.794879 194.720109 
L 118.003414 189.153147 
L 120.211948 188.570523 
L 122.420482 199.38714 
L 124.629017 196.538585 
L 126.837551 197.453013 
L 129.046085 196.695037 
L 131.25462 192.530969 
L 133.463154 193.846919 
L 135.671688 197.698573 
L 137.880223 194.437207 
L 140.088757 190.498866 
L 142.297291 192.006047 
L 144.505826 195.021608 
L 146.71436 197.158488 
L 148.922894 195.089955 
L 151.131429 194.321961 
L 153.339963 188.620365 
L 155.548497 197.133205 
L 157.757032 193.708503 
L 159.965566 197.987437 
L 162.1741 189.075715 
L 164.382635 194.834258 
L 166.591169 194.816841 
L 168.799703 196.279556 
L 171.008237 195.264465 
L 173.216772 194.960179 
L 175.425306 198.518364 
L 177.63384 193.902939 
L 179.842375 192.208689 
L 182.050909 198.690618 
L 184.259443 182.571906 
L 186.467978 184.938694 
L 188.676512 176.352713 
L 190.885046 204.022244 
L 193.093581 201.122004 
L 195.302115 196.989249 
L 199.719184 199.801629 
L 201.927718 194.388804 
L 204.136252 193.942377 
L 206.344787 198.103496 
L 208.553321 196.368489 
L 212.97039 199.636446 
L 215.178924 188.236059 
L 217.387458 192.849399 
L 219.595993 202.393198 
L 221.804527 188.027705 
L 224.013061 200.023546 
L 226.221596 194.765993 
L 228.43013 199.601571 
L 230.638664 189.342159 
L 232.847199 197.982401 
L 235.055733 194.042878 
L 237.264267 194.811592 
L 239.472801 191.999575 
L 241.681336 191.592914 
L 243.88987 197.161423 
L 246.098404 198.961791 
L 248.306939 194.954812 
L 250.515473 195.349675 
L 252.724007 191.465235 
L 254.932542 196.053815 
L 257.141076 194.081618 
L 259.34961 194.746587 
L 261.558145 196.43079 
L 263.766679 195.487525 
L 265.975213 195.070497 
L 268.183748 193.829827 
L 270.392282 193.298992 
L 272.600816 191.863796 
L 274.809351 189.104696 
L 277.017885 199.932612 
L 279.226419 199.519838 
L 281.434954 193.287195 
L 283.643488 188.529448 
L 285.852022 192.109898 
L 288.060557 201.479545 
L 290.269091 181.409731 
L 292.477625 195.563928 
L 294.68616 188.490071 
L 296.894694 189.152084 
L 299.103228 195.753795 
L 301.311763 199.307111 
L 303.520297 186.001391 
L 305.728831 182.986027 
L 307.937365 188.576391 
L 310.1459 200.47584 
L 312.354434 177.401804 
L 314.562968 198.412132 
L 316.771503 193.254052 
L 318.980037 203.833719 
L 321.188571 203.243622 
L 323.397106 191.756642 
L 325.60564 186.756402 
L 327.814174 183.071327 
L 330.022709 195.039717 
L 332.231243 191.499924 
L 334.439777 196.078243 
L 336.648312 204.552592 
L 338.856846 200.853994 
L 341.06538 184.283275 
L 343.273915 192.971602 
L 345.482449 199.817497 
L 347.690983 202.792666 
L 349.899518 194.496398 
L 352.108052 185.678522 
L 354.316586 192.364871 
L 356.525121 198.589992 
L 358.733655 197.913395 
L 360.942189 193.707814 
L 363.150724 191.768184 
L 365.359258 197.939136 
L 367.567792 200.03232 
L 369.776327 197.130303 
L 371.984861 197.951845 
L 374.193395 197.606983 
L 376.401929 189.997554 
L 378.610464 192.752771 
L 380.818998 194.980274 
L 383.027532 187.782247 
L 385.236067 190.321081 
L 387.444601 193.127975 
L 389.653135 194.929483 
L 391.86167 202.450537 
L 394.070204 196.409735 
L 396.278738 198.700451 
L 398.487273 196.172803 
L 398.487273 196.172803 
" clip-path="url(#pe68919dc3e)" style="fill: none; stroke: #ff0000; stroke-opacity: 0.8; stroke-width: 0.5; stroke-linecap: square"/>
   </g>
   <g id="line2d_19">
    <path d="M 73.832727 167.056588 
L 76.041262 169.658806 
L 78.249796 157.691204 
L 80.45833 156.600164 
L 82.666865 177.81941 
L 87.083933 184.392669 
L 89.292468 180.389397 
L 91.501002 184.815934 
L 93.709536 173.467789 
L 95.918071 181.109261 
L 98.126605 181.499163 
L 100.335139 180.900228 
L 102.543673 184.880053 
L 104.752208 183.412272 
L 106.960742 186.679156 
L 109.169276 152.425037 
L 111.377811 154.786572 
L 113.586345 171.589771 
L 115.794879 174.708546 
L 118.003414 154.468633 
L 120.211948 167.595483 
L 122.420482 166.453116 
L 124.629017 176.791315 
L 126.837551 182.373873 
L 129.046085 190.028015 
L 133.463154 169.684053 
L 135.671688 184.532695 
L 137.880223 192.081482 
L 140.088757 172.097588 
L 142.297291 165.035936 
L 144.505826 179.22743 
L 146.71436 191.756096 
L 148.922894 183.116164 
L 151.131429 186.01047 
L 153.339963 159.012041 
L 155.548497 156.340003 
L 157.757032 163.74825 
L 159.965566 188.225845 
L 162.1741 177.749827 
L 164.382635 166.000126 
L 166.591169 184.668315 
L 168.799703 189.023208 
L 171.008237 190.65902 
L 173.216772 184.152872 
L 175.425306 192.675019 
L 177.63384 182.68679 
L 179.842375 173.366031 
L 182.050909 170.428553 
L 184.259443 147.534998 
L 186.467978 96.302819 
L 188.676512 55.040551 
L 190.885046 149.228546 
L 193.093581 152.246858 
L 195.302115 157.912412 
L 197.510649 167.923794 
L 199.719184 186.752235 
L 201.927718 115.183064 
L 204.136252 157.279262 
L 206.344787 178.68424 
L 208.553321 179.250408 
L 210.761855 178.715674 
L 212.97039 187.288456 
L 215.178924 138.490694 
L 217.387458 162.497353 
L 219.595993 175.831138 
L 221.804527 165.109019 
L 224.013061 139.126939 
L 226.221596 176.018212 
L 228.43013 186.907681 
L 230.638664 173.937027 
L 232.847199 171.077861 
L 235.055733 175.311247 
L 237.264267 148.015414 
L 239.472801 177.335897 
L 241.681336 154.043894 
L 243.88987 161.483023 
L 246.098404 182.428307 
L 248.306939 179.618497 
L 250.515473 178.835228 
L 252.724007 152.071389 
L 254.932542 186.488796 
L 257.141076 182.723137 
L 259.34961 163.804664 
L 261.558145 176.486433 
L 263.766679 163.366203 
L 265.975213 184.677272 
L 268.183748 172.388342 
L 270.392282 180.593331 
L 272.600816 158.709481 
L 274.809351 153.16445 
L 277.017885 180.226423 
L 279.226419 182.457419 
L 281.434954 175.863677 
L 283.643488 148.549426 
L 285.852022 171.330008 
L 288.060557 182.438211 
L 290.269091 152.05569 
L 292.477625 155.929444 
L 294.68616 148.473667 
L 296.894694 152.773516 
L 299.103228 138.564619 
L 301.311763 166.377492 
L 303.520297 161.103904 
L 305.728831 126.938393 
L 307.937365 128.201583 
L 310.1459 124.70802 
L 312.354434 130.875512 
L 314.562968 140.292988 
L 316.771503 175.307359 
L 318.980037 176.055344 
L 321.188571 184.138179 
L 323.397106 156.87819 
L 325.60564 135.019866 
L 327.814174 119.334619 
L 330.022709 159.756105 
L 332.231243 151.954235 
L 334.439777 154.681027 
L 338.856846 170.235401 
L 341.06538 154.36774 
L 343.273915 170.929121 
L 345.482449 169.444369 
L 347.690983 173.17429 
L 349.899518 172.937444 
L 352.108052 151.463755 
L 354.316586 162.336971 
L 356.525121 166.381592 
L 358.733655 183.082604 
L 360.942189 161.371576 
L 363.150724 174.456325 
L 365.359258 176.610165 
L 367.567792 185.11502 
L 369.776327 180.638792 
L 371.984861 180.836639 
L 374.193395 181.648348 
L 376.401929 168.816179 
L 378.610464 170.761403 
L 380.818998 168.52656 
L 383.027532 165.247208 
L 385.236067 165.461863 
L 387.444601 168.834783 
L 389.653135 166.409854 
L 391.86167 172.172443 
L 394.070204 185.600987 
L 396.278738 179.765925 
L 398.487273 162.910114 
L 398.487273 162.910114 
" clip-path="url(#pe68919dc3e)" style="fill: none; stroke: #f08080; stroke-opacity: 0.8; stroke-width: 0.5; stroke-linecap: square"/>
   </g>
   <g id="line2d_20">
    <path d="M 73.832727 229.417736 
L 76.041262 215.873758 
L 78.249796 229.149445 
L 80.45833 213.933576 
L 82.666865 204.125808 
L 84.875399 206.542461 
L 87.083933 207.729857 
L 89.292468 213.616266 
L 91.501002 200.646197 
L 93.709536 207.126898 
L 95.918071 209.939164 
L 98.126605 201.58066 
L 100.335139 202.975238 
L 104.752208 202.146687 
L 106.960742 201.183105 
L 109.169276 214.473221 
L 111.377811 217.501382 
L 113.586345 220.237456 
L 115.794879 222.589088 
L 118.003414 202.900174 
L 120.211948 247.796967 
L 122.420482 233.242324 
L 124.629017 211.074764 
L 126.837551 209.883569 
L 129.046085 208.904321 
L 131.25462 206.44897 
L 133.463154 208.959866 
L 135.671688 206.854315 
L 137.880223 200.1501 
L 140.088757 204.359886 
L 142.297291 206.187957 
L 144.505826 216.157012 
L 146.71436 205.896519 
L 148.922894 204.831683 
L 151.131429 200.720426 
L 153.339963 205.052128 
L 155.548497 216.548377 
L 157.757032 208.68596 
L 159.965566 209.177884 
L 162.1741 200.885857 
L 164.382635 212.697195 
L 166.591169 201.766084 
L 168.799703 208.547294 
L 171.008237 204.39372 
L 173.216772 207.913544 
L 175.425306 206.174338 
L 177.63384 206.013279 
L 179.842375 203.931347 
L 182.050909 214.907198 
L 184.259443 200.993848 
L 186.467978 254.357896 
L 188.676512 295.488 
L 190.885046 269.21667 
L 193.093581 235.159394 
L 195.302115 225.622533 
L 197.510649 232.436345 
L 199.719184 215.681752 
L 201.927718 227.776046 
L 204.136252 216.787199 
L 206.344787 215.865898 
L 208.553321 207.574947 
L 210.761855 216.656868 
L 212.97039 211.095943 
L 215.178924 222.271833 
L 217.387458 218.594596 
L 219.595993 219.566849 
L 221.804527 201.194647 
L 224.013061 224.848047 
L 226.221596 213.436576 
L 228.43013 220.419279 
L 230.638664 208.118951 
L 232.847199 217.142932 
L 235.055733 217.429958 
L 237.264267 217.248341 
L 239.472801 205.275244 
L 241.681336 230.340602 
L 243.88987 215.908996 
L 246.098404 223.19724 
L 248.306939 206.453055 
L 250.515473 209.950503 
L 252.724007 221.548247 
L 254.932542 213.778433 
L 257.141076 208.505274 
L 259.34961 214.995102 
L 261.558145 216.021966 
L 263.766679 215.126577 
L 265.975213 206.266151 
L 268.183748 211.272394 
L 270.392282 212.331356 
L 272.600816 217.840221 
L 274.809351 209.968346 
L 277.017885 226.117479 
L 279.226419 211.617149 
L 281.434954 208.952428 
L 283.643488 221.04206 
L 285.852022 234.156428 
L 288.060557 226.580788 
L 290.269091 212.587386 
L 292.477625 237.180213 
L 294.68616 222.163435 
L 296.894694 234.878736 
L 299.103228 236.849522 
L 301.311763 221.218182 
L 303.520297 209.353637 
L 305.728831 238.219332 
L 307.937365 247.248456 
L 310.1459 236.10642 
L 312.354434 225.619682 
L 314.562968 246.156188 
L 316.771503 220.776432 
L 318.980037 240.860656 
L 321.188571 233.286976 
L 325.60564 219.490127 
L 327.814174 221.545849 
L 330.022709 241.677325 
L 332.231243 236.936724 
L 334.439777 227.471127 
L 336.648312 282.290077 
L 338.856846 249.255321 
L 341.06538 218.979504 
L 343.273915 218.271261 
L 345.482449 232.299337 
L 347.690983 222.891883 
L 349.899518 221.686068 
L 352.108052 209.017634 
L 354.316586 223.880363 
L 356.525121 220.86609 
L 358.733655 221.297768 
L 360.942189 220.880718 
L 363.150724 229.097269 
L 365.359258 216.122797 
L 367.567792 221.447042 
L 369.776327 218.945589 
L 371.984861 218.992907 
L 374.193395 209.678838 
L 378.610464 214.810383 
L 380.818998 222.599411 
L 383.027532 211.1037 
L 385.236067 210.840435 
L 387.444601 216.73916 
L 389.653135 228.170164 
L 391.86167 232.491238 
L 394.070204 210.465748 
L 396.278738 223.371486 
L 398.487273 213.717713 
L 398.487273 213.717713 
" clip-path="url(#pe68919dc3e)" style="fill: none; stroke: #f08080; stroke-opacity: 0.8; stroke-width: 0.5; stroke-linecap: square"/>
   </g>
   <g id="patch_3">
    <path d="M 57.6 307.584 
L 57.6 41.472 
" style="fill: none; stroke: #000000; stroke-width: 0.8; stroke-linejoin: miter; stroke-linecap: square"/>
   </g>
   <g id="patch_4">
    <path d="M 414.72 307.584 
L 414.72 41.472 
" style="fill: none; stroke: #000000; stroke-width: 0.8; stroke-linejoin: miter; stroke-linecap: square"/>
   </g>
   <g id="patch_5">
    <path d="M 57.6 307.584 
L 414.72 307.584 
" style="fill: none; stroke: #000000; stroke-width: 0.8; stroke-linejoin: miter; stroke-linecap: square"/>
   </g>
   <g id="patch_6">
    <path d="M 57.6 41.472 
L 414.72 41.472 
" style="fill: none; stroke: #000000; stroke-width: 0.8; stroke-linejoin: miter; stroke-linecap: square"/>
   </g>
   <g id="text_15">
    <!-- colouring_snp500 -->
    <g transform="translate(183.114375 35.472) scale(0.12 -0.12)">
     <defs>
      <path id="DejaVuSans-63" d="M 3122 3366 
L 3122 2828 
Q 2878 2963 2633 3030 
Q 2388 3097 2138 3097 
Q 1578 3097 1268 2742 
Q 959 2388 959 1747 
Q 959 1106 1268 751 
Q 1578 397 2138 397 
Q 2388 397 2633 464 
Q 2878 531 3122 666 
L 3122 134 
Q 2881 22 2623 -34 
Q 2366 -91 2075 -91 
Q 1284 -91 818 406 
Q 353 903 353 1747 
Q 353 2603 823 3093 
Q 1294 3584 2113 3584 
Q 2378 3584 2631 3529 
Q 2884 3475 3122 3366 
z
" transform="scale(0.015625)"/>
      <path id="DejaVuSans-6f" d="M 1959 3097 
Q 1497 3097 1228 2736 
Q 959 2375 959 1747 
Q 959 1119 1226 758 
Q 1494 397 1959 397 
Q 2419 397 2687 759 
Q 2956 1122 2956 1747 
Q 2956 2369 2687 2733 
Q 2419 3097 1959 3097 
z
M 1959 3584 
Q 2709 3584 3137 3096 
Q 3566 2609 3566 1747 
Q 3566 888 3137 398 
Q 2709 -91 1959 -91 
Q 1206 -91 779 398 
Q 353 888 353 1747 
Q 353 2609 779 3096 
Q 1206 3584 1959 3584 
z
" transform="scale(0.015625)"/>
      <path id="DejaVuSans-6c" d="M 603 4863 
L 1178 4863 
L 1178 0 
L 603 0 
L 603 4863 
z
" transform="scale(0.015625)"/>
      <path id="DejaVuSans-75" d="M 544 1381 
L 544 3500 
L 1119 3500 
L 1119 1403 
Q 1119 906 1312 657 
Q 1506 409 1894 409 
Q 2359 409 2629 706 
Q 2900 1003 2900 1516 
L 2900 3500 
L 3475 3500 
L 3475 0 
L 2900 0 
L 2900 538 
Q 2691 219 2414 64 
Q 2138 -91 1772 -91 
Q 1169 -91 856 284 
Q 544 659 544 1381 
z
M 1991 3584 
L 1991 3584 
z
" transform="scale(0.015625)"/>
      <path id="DejaVuSans-72" d="M 2631 2963 
Q 2534 3019 2420 3045 
Q 2306 3072 2169 3072 
Q 1681 3072 1420 2755 
Q 1159 2438 1159 1844 
L 1159 0 
L 581 0 
L 581 3500 
L 1159 3500 
L 1159 2956 
Q 1341 3275 1631 3429 
Q 1922 3584 2338 3584 
Q 2397 3584 2469 3576 
Q 2541 3569 2628 3553 
L 2631 2963 
z
" transform="scale(0.015625)"/>
      <path id="DejaVuSans-69" d="M 603 3500 
L 1178 3500 
L 1178 0 
L 603 0 
L 603 3500 
z
M 603 4863 
L 1178 4863 
L 1178 4134 
L 603 4134 
L 603 4863 
z
" transform="scale(0.015625)"/>
      <path id="DejaVuSans-6e" d="M 3513 2113 
L 3513 0 
L 2938 0 
L 2938 2094 
Q 2938 2591 2744 2837 
Q 2550 3084 2163 3084 
Q 1697 3084 1428 2787 
Q 1159 2491 1159 1978 
L 1159 0 
L 581 0 
L 581 3500 
L 1159 3500 
L 1159 2956 
Q 1366 3272 1645 3428 
Q 1925 3584 2291 3584 
Q 2894 3584 3203 3211 
Q 3513 2838 3513 2113 
z
" transform="scale(0.015625)"/>
      <path id="DejaVuSans-67" d="M 2906 1791 
Q 2906 2416 2648 2759 
Q 2391 3103 1925 3103 
Q 1463 3103 1205 2759 
Q 947 2416 947 1791 
Q 947 1169 1205 825 
Q 1463 481 1925 481 
Q 2391 481 2648 825 
Q 2906 1169 2906 1791 
z
M 3481 434 
Q 3481 -459 3084 -895 
Q 2688 -1331 1869 -1331 
Q 1566 -1331 1297 -1286 
Q 1028 -1241 775 -1147 
L 775 -588 
Q 1028 -725 1275 -790 
Q 1522 -856 1778 -856 
Q 2344 -856 2625 -561 
Q 2906 -266 2906 331 
L 2906 616 
Q 2728 306 2450 153 
Q 2172 0 1784 0 
Q 1141 0 747 490 
Q 353 981 353 1791 
Q 353 2603 747 3093 
Q 1141 3584 1784 3584 
Q 2172 3584 2450 3431 
Q 2728 3278 2906 2969 
L 2906 3500 
L 3481 3500 
L 3481 434 
z
" transform="scale(0.015625)"/>
      <path id="DejaVuSans-5f" d="M 3263 -1063 
L 3263 -1509 
L -63 -1509 
L -63 -1063 
L 3263 -1063 
z
" transform="scale(0.015625)"/>
      <path id="DejaVuSans-73" d="M 2834 3397 
L 2834 2853 
Q 2591 2978 2328 3040 
Q 2066 3103 1784 3103 
Q 1356 3103 1142 2972 
Q 928 2841 928 2578 
Q 928 2378 1081 2264 
Q 1234 2150 1697 2047 
L 1894 2003 
Q 2506 1872 2764 1633 
Q 3022 1394 3022 966 
Q 3022 478 2636 193 
Q 2250 -91 1575 -91 
Q 1294 -91 989 -36 
Q 684 19 347 128 
L 347 722 
Q 666 556 975 473 
Q 1284 391 1588 391 
Q 1994 391 2212 530 
Q 2431 669 2431 922 
Q 2431 1156 2273 1281 
Q 2116 1406 1581 1522 
L 1381 1569 
Q 847 1681 609 1914 
Q 372 2147 372 2553 
Q 372 3047 722 3315 
Q 1072 3584 1716 3584 
Q 2034 3584 2315 3537 
Q 2597 3491 2834 3397 
z
" transform="scale(0.015625)"/>
      <path id="DejaVuSans-70" d="M 1159 525 
L 1159 -1331 
L 581 -1331 
L 581 3500 
L 1159 3500 
L 1159 2969 
Q 1341 3281 1617 3432 
Q 1894 3584 2278 3584 
Q 2916 3584 3314 3078 
Q 3713 2572 3713 1747 
Q 3713 922 3314 415 
Q 2916 -91 2278 -91 
Q 1894 -91 1617 61 
Q 1341 213 1159 525 
z
M 3116 1747 
Q 3116 2381 2855 2742 
Q 2594 3103 2138 3103 
Q 1681 3103 1420 2742 
Q 1159 2381 1159 1747 
Q 1159 1113 1420 752 
Q 1681 391 2138 391 
Q 2594 391 2855 752 
Q 3116 1113 3116 1747 
z
" transform="scale(0.015625)"/>
      <path id="DejaVuSans-35" d="M 691 4666 
L 3169 4666 
L 3169 4134 
L 1269 4134 
L 1269 2991 
Q 1406 3038 1543 3061 
Q 1681 3084 1819 3084 
Q 2600 3084 3056 2656 
Q 3513 2228 3513 1497 
Q 3513 744 3044 326 
Q 2575 -91 1722 -91 
Q 1428 -91 1123 -41 
Q 819 9 494 109 
L 494 744 
Q 775 591 1075 516 
Q 1375 441 1709 441 
Q 2250 441 2565 725 
Q 2881 1009 2881 1497 
Q 2881 1984 2565 2268 
Q 2250 2553 1709 2553 
Q 1456 2553 1204 2497 
Q 953 2441 691 2322 
L 691 4666 
z
" transform="scale(0.015625)"/>
     </defs>
     <use xlink:href="#DejaVuSans-63"/>
     <use xlink:href="#DejaVuSans-6f" x="54.980469"/>
     <use xlink:href="#DejaVuSans-6c" x="116.162109"/>
     <use xlink:href="#DejaVuSans-6f" x="143.945312"/>
     <use xlink:href="#DejaVuSans-75" x="205.126953"/>
     <use xlink:href="#DejaVuSans-72" x="268.505859"/>
     <use xlink:href="#DejaVuSans-69" x="309.619141"/>
     <use xlink:href="#DejaVuSans-6e" x="337.402344"/>
     <use xlink:href="#DejaVuSans-67" x="400.78125"/>
     <use xlink:href="#DejaVuSans-5f" x="464.257812"/>
     <use xlink:href="#DejaVuSans-73" x="514.257812"/>
     <use xlink:href="#DejaVuSans-6e" x="566.357422"/>
     <use xlink:href="#DejaVuSans-70" x="629.736328"/>
     <use xlink:href="#DejaVuSans-35" x="693.212891"/>
     <use xlink:href="#DejaVuSans-30" x="756.835938"/>
     <use xlink:href="#DejaVuSans-30" x="820.458984"/>
    </g>
   </g>
   <g id="legend_1">
    <g id="patch_7">
     <path d="M 64.6 137.54075 
L 225.001563 137.54075 
Q 227.001563 137.54075 227.001563 135.54075 
L 227.001563 48.472 
Q 227.001563 46.472 225.001563 46.472 
L 64.6 46.472 
Q 62.6 46.472 62.6 48.472 
L 62.6 135.54075 
Q 62.6 137.54075 64.6 137.54075 
z
" style="fill: #ffffff; opacity: 0.8; stroke: #cccccc; stroke-linejoin: miter"/>
    </g>
    <g id="line2d_21">
     <path d="M 66.6 54.570438 
L 76.6 54.570438 
L 86.6 54.570438 
" style="fill: none; stroke: #008000; stroke-opacity: 0.8; stroke-width: 0.5; stroke-linecap: square"/>
    </g>
    <g id="text_16">
     <!-- Positive predictions -->
     <g transform="translate(94.6 58.070438) scale(0.1 -0.1)">
      <defs>
       <path id="DejaVuSans-50" d="M 1259 4147 
L 1259 2394 
L 2053 2394 
Q 2494 2394 2734 2622 
Q 2975 2850 2975 3272 
Q 2975 3691 2734 3919 
Q 2494 4147 2053 4147 
L 1259 4147 
z
M 628 4666 
L 2053 4666 
Q 2838 4666 3239 4311 
Q 3641 3956 3641 3272 
Q 3641 2581 3239 2228 
Q 2838 1875 2053 1875 
L 1259 1875 
L 1259 0 
L 628 0 
L 628 4666 
z
" transform="scale(0.015625)"/>
       <path id="DejaVuSans-74" d="M 1172 4494 
L 1172 3500 
L 2356 3500 
L 2356 3053 
L 1172 3053 
L 1172 1153 
Q 1172 725 1289 603 
Q 1406 481 1766 481 
L 2356 481 
L 2356 0 
L 1766 0 
Q 1100 0 847 248 
Q 594 497 594 1153 
L 594 3053 
L 172 3053 
L 172 3500 
L 594 3500 
L 594 4494 
L 1172 4494 
z
" transform="scale(0.015625)"/>
       <path id="DejaVuSans-76" d="M 191 3500 
L 800 3500 
L 1894 563 
L 2988 3500 
L 3597 3500 
L 2284 0 
L 1503 0 
L 191 3500 
z
" transform="scale(0.015625)"/>
       <path id="DejaVuSans-65" d="M 3597 1894 
L 3597 1613 
L 953 1613 
Q 991 1019 1311 708 
Q 1631 397 2203 397 
Q 2534 397 2845 478 
Q 3156 559 3463 722 
L 3463 178 
Q 3153 47 2828 -22 
Q 2503 -91 2169 -91 
Q 1331 -91 842 396 
Q 353 884 353 1716 
Q 353 2575 817 3079 
Q 1281 3584 2069 3584 
Q 2775 3584 3186 3129 
Q 3597 2675 3597 1894 
z
M 3022 2063 
Q 3016 2534 2758 2815 
Q 2500 3097 2075 3097 
Q 1594 3097 1305 2825 
Q 1016 2553 972 2059 
L 3022 2063 
z
" transform="scale(0.015625)"/>
       <path id="DejaVuSans-20" transform="scale(0.015625)"/>
       <path id="DejaVuSans-64" d="M 2906 2969 
L 2906 4863 
L 3481 4863 
L 3481 0 
L 2906 0 
L 2906 525 
Q 2725 213 2448 61 
Q 2172 -91 1784 -91 
Q 1150 -91 751 415 
Q 353 922 353 1747 
Q 353 2572 751 3078 
Q 1150 3584 1784 3584 
Q 2172 3584 2448 3432 
Q 2725 3281 2906 2969 
z
M 947 1747 
Q 947 1113 1208 752 
Q 1469 391 1925 391 
Q 2381 391 2643 752 
Q 2906 1113 2906 1747 
Q 2906 2381 2643 2742 
Q 2381 3103 1925 3103 
Q 1469 3103 1208 2742 
Q 947 2381 947 1747 
z
" transform="scale(0.015625)"/>
      </defs>
      <use xlink:href="#DejaVuSans-50"/>
      <use xlink:href="#DejaVuSans-6f" x="56.677734"/>
      <use xlink:href="#DejaVuSans-73" x="117.859375"/>
      <use xlink:href="#DejaVuSans-69" x="169.958984"/>
      <use xlink:href="#DejaVuSans-74" x="197.742188"/>
      <use xlink:href="#DejaVuSans-69" x="236.951172"/>
      <use xlink:href="#DejaVuSans-76" x="264.734375"/>
      <use xlink:href="#DejaVuSans-65" x="323.914062"/>
      <use xlink:href="#DejaVuSans-20" x="385.4375"/>
      <use xlink:href="#DejaVuSans-70" x="417.224609"/>
      <use xlink:href="#DejaVuSans-72" x="480.701172"/>
      <use xlink:href="#DejaVuSans-65" x="519.564453"/>
      <use xlink:href="#DejaVuSans-64" x="581.087891"/>
      <use xlink:href="#DejaVuSans-69" x="644.564453"/>
      <use xlink:href="#DejaVuSans-63" x="672.347656"/>
      <use xlink:href="#DejaVuSans-74" x="727.328125"/>
      <use xlink:href="#DejaVuSans-69" x="766.537109"/>
      <use xlink:href="#DejaVuSans-6f" x="794.320312"/>
      <use xlink:href="#DejaVuSans-6e" x="855.501953"/>
      <use xlink:href="#DejaVuSans-73" x="918.880859"/>
     </g>
    </g>
    <g id="line2d_22">
     <path d="M 66.6 69.248563 
L 76.6 69.248563 
L 86.6 69.248563 
" style="fill: none; stroke: #32cd32; stroke-opacity: 0.8; stroke-width: 0.5; stroke-linecap: square"/>
    </g>
    <g id="text_17">
     <!-- Positive predictions max -->
     <g transform="translate(94.6 72.748563) scale(0.1 -0.1)">
      <defs>
       <path id="DejaVuSans-6d" d="M 3328 2828 
Q 3544 3216 3844 3400 
Q 4144 3584 4550 3584 
Q 5097 3584 5394 3201 
Q 5691 2819 5691 2113 
L 5691 0 
L 5113 0 
L 5113 2094 
Q 5113 2597 4934 2840 
Q 4756 3084 4391 3084 
Q 3944 3084 3684 2787 
Q 3425 2491 3425 1978 
L 3425 0 
L 2847 0 
L 2847 2094 
Q 2847 2600 2669 2842 
Q 2491 3084 2119 3084 
Q 1678 3084 1418 2786 
Q 1159 2488 1159 1978 
L 1159 0 
L 581 0 
L 581 3500 
L 1159 3500 
L 1159 2956 
Q 1356 3278 1631 3431 
Q 1906 3584 2284 3584 
Q 2666 3584 2933 3390 
Q 3200 3197 3328 2828 
z
" transform="scale(0.015625)"/>
       <path id="DejaVuSans-61" d="M 2194 1759 
Q 1497 1759 1228 1600 
Q 959 1441 959 1056 
Q 959 750 1161 570 
Q 1363 391 1709 391 
Q 2188 391 2477 730 
Q 2766 1069 2766 1631 
L 2766 1759 
L 2194 1759 
z
M 3341 1997 
L 3341 0 
L 2766 0 
L 2766 531 
Q 2569 213 2275 61 
Q 1981 -91 1556 -91 
Q 1019 -91 701 211 
Q 384 513 384 1019 
Q 384 1609 779 1909 
Q 1175 2209 1959 2209 
L 2766 2209 
L 2766 2266 
Q 2766 2663 2505 2880 
Q 2244 3097 1772 3097 
Q 1472 3097 1187 3025 
Q 903 2953 641 2809 
L 641 3341 
Q 956 3463 1253 3523 
Q 1550 3584 1831 3584 
Q 2591 3584 2966 3190 
Q 3341 2797 3341 1997 
z
" transform="scale(0.015625)"/>
       <path id="DejaVuSans-78" d="M 3513 3500 
L 2247 1797 
L 3578 0 
L 2900 0 
L 1881 1375 
L 863 0 
L 184 0 
L 1544 1831 
L 300 3500 
L 978 3500 
L 1906 2253 
L 2834 3500 
L 3513 3500 
z
" transform="scale(0.015625)"/>
      </defs>
      <use xlink:href="#DejaVuSans-50"/>
      <use xlink:href="#DejaVuSans-6f" x="56.677734"/>
      <use xlink:href="#DejaVuSans-73" x="117.859375"/>
      <use xlink:href="#DejaVuSans-69" x="169.958984"/>
      <use xlink:href="#DejaVuSans-74" x="197.742188"/>
      <use xlink:href="#DejaVuSans-69" x="236.951172"/>
      <use xlink:href="#DejaVuSans-76" x="264.734375"/>
      <use xlink:href="#DejaVuSans-65" x="323.914062"/>
      <use xlink:href="#DejaVuSans-20" x="385.4375"/>
      <use xlink:href="#DejaVuSans-70" x="417.224609"/>
      <use xlink:href="#DejaVuSans-72" x="480.701172"/>
      <use xlink:href="#DejaVuSans-65" x="519.564453"/>
      <use xlink:href="#DejaVuSans-64" x="581.087891"/>
      <use xlink:href="#DejaVuSans-69" x="644.564453"/>
      <use xlink:href="#DejaVuSans-63" x="672.347656"/>
      <use xlink:href="#DejaVuSans-74" x="727.328125"/>
      <use xlink:href="#DejaVuSans-69" x="766.537109"/>
      <use xlink:href="#DejaVuSans-6f" x="794.320312"/>
      <use xlink:href="#DejaVuSans-6e" x="855.501953"/>
      <use xlink:href="#DejaVuSans-73" x="918.880859"/>
      <use xlink:href="#DejaVuSans-20" x="970.980469"/>
      <use xlink:href="#DejaVuSans-6d" x="1002.767578"/>
      <use xlink:href="#DejaVuSans-61" x="1100.179688"/>
      <use xlink:href="#DejaVuSans-78" x="1161.458984"/>
     </g>
    </g>
    <g id="line2d_23">
     <path d="M 66.6 83.926688 
L 76.6 83.926688 
L 86.6 83.926688 
" style="fill: none; stroke: #32cd32; stroke-opacity: 0.8; stroke-width: 0.5; stroke-linecap: square"/>
    </g>
    <g id="text_18">
     <!-- Positive predictions min -->
     <g transform="translate(94.6 87.426688) scale(0.1 -0.1)">
      <use xlink:href="#DejaVuSans-50"/>
      <use xlink:href="#DejaVuSans-6f" x="56.677734"/>
      <use xlink:href="#DejaVuSans-73" x="117.859375"/>
      <use xlink:href="#DejaVuSans-69" x="169.958984"/>
      <use xlink:href="#DejaVuSans-74" x="197.742188"/>
      <use xlink:href="#DejaVuSans-69" x="236.951172"/>
      <use xlink:href="#DejaVuSans-76" x="264.734375"/>
      <use xlink:href="#DejaVuSans-65" x="323.914062"/>
      <use xlink:href="#DejaVuSans-20" x="385.4375"/>
      <use xlink:href="#DejaVuSans-70" x="417.224609"/>
      <use xlink:href="#DejaVuSans-72" x="480.701172"/>
      <use xlink:href="#DejaVuSans-65" x="519.564453"/>
      <use xlink:href="#DejaVuSans-64" x="581.087891"/>
      <use xlink:href="#DejaVuSans-69" x="644.564453"/>
      <use xlink:href="#DejaVuSans-63" x="672.347656"/>
      <use xlink:href="#DejaVuSans-74" x="727.328125"/>
      <use xlink:href="#DejaVuSans-69" x="766.537109"/>
      <use xlink:href="#DejaVuSans-6f" x="794.320312"/>
      <use xlink:href="#DejaVuSans-6e" x="855.501953"/>
      <use xlink:href="#DejaVuSans-73" x="918.880859"/>
      <use xlink:href="#DejaVuSans-20" x="970.980469"/>
      <use xlink:href="#DejaVuSans-6d" x="1002.767578"/>
      <use xlink:href="#DejaVuSans-69" x="1100.179688"/>
      <use xlink:href="#DejaVuSans-6e" x="1127.962891"/>
     </g>
    </g>
    <g id="line2d_24">
     <path d="M 66.6 98.604813 
L 76.6 98.604813 
L 86.6 98.604813 
" style="fill: none; stroke: #ff0000; stroke-opacity: 0.8; stroke-width: 0.5; stroke-linecap: square"/>
    </g>
    <g id="text_19">
     <!-- Negative predictions -->
     <g transform="translate(94.6 102.104813) scale(0.1 -0.1)">
      <defs>
       <path id="DejaVuSans-4e" d="M 628 4666 
L 1478 4666 
L 3547 763 
L 3547 4666 
L 4159 4666 
L 4159 0 
L 3309 0 
L 1241 3903 
L 1241 0 
L 628 0 
L 628 4666 
z
" transform="scale(0.015625)"/>
      </defs>
      <use xlink:href="#DejaVuSans-4e"/>
      <use xlink:href="#DejaVuSans-65" x="74.804688"/>
      <use xlink:href="#DejaVuSans-67" x="136.328125"/>
      <use xlink:href="#DejaVuSans-61" x="199.804688"/>
      <use xlink:href="#DejaVuSans-74" x="261.083984"/>
      <use xlink:href="#DejaVuSans-69" x="300.292969"/>
      <use xlink:href="#DejaVuSans-76" x="328.076172"/>
      <use xlink:href="#DejaVuSans-65" x="387.255859"/>
      <use xlink:href="#DejaVuSans-20" x="448.779297"/>
      <use xlink:href="#DejaVuSans-70" x="480.566406"/>
      <use xlink:href="#DejaVuSans-72" x="544.042969"/>
      <use xlink:href="#DejaVuSans-65" x="582.90625"/>
      <use xlink:href="#DejaVuSans-64" x="644.429688"/>
      <use xlink:href="#DejaVuSans-69" x="707.90625"/>
      <use xlink:href="#DejaVuSans-63" x="735.689453"/>
      <use xlink:href="#DejaVuSans-74" x="790.669922"/>
      <use xlink:href="#DejaVuSans-69" x="829.878906"/>
      <use xlink:href="#DejaVuSans-6f" x="857.662109"/>
      <use xlink:href="#DejaVuSans-6e" x="918.84375"/>
      <use xlink:href="#DejaVuSans-73" x="982.222656"/>
     </g>
    </g>
    <g id="line2d_25">
     <path d="M 66.6 113.282938 
L 76.6 113.282938 
L 86.6 113.282938 
" style="fill: none; stroke: #f08080; stroke-opacity: 0.8; stroke-width: 0.5; stroke-linecap: square"/>
    </g>
    <g id="text_20">
     <!-- Negative predictions max -->
     <g transform="translate(94.6 116.782938) scale(0.1 -0.1)">
      <use xlink:href="#DejaVuSans-4e"/>
      <use xlink:href="#DejaVuSans-65" x="74.804688"/>
      <use xlink:href="#DejaVuSans-67" x="136.328125"/>
      <use xlink:href="#DejaVuSans-61" x="199.804688"/>
      <use xlink:href="#DejaVuSans-74" x="261.083984"/>
      <use xlink:href="#DejaVuSans-69" x="300.292969"/>
      <use xlink:href="#DejaVuSans-76" x="328.076172"/>
      <use xlink:href="#DejaVuSans-65" x="387.255859"/>
      <use xlink:href="#DejaVuSans-20" x="448.779297"/>
      <use xlink:href="#DejaVuSans-70" x="480.566406"/>
      <use xlink:href="#DejaVuSans-72" x="544.042969"/>
      <use xlink:href="#DejaVuSans-65" x="582.90625"/>
      <use xlink:href="#DejaVuSans-64" x="644.429688"/>
      <use xlink:href="#DejaVuSans-69" x="707.90625"/>
      <use xlink:href="#DejaVuSans-63" x="735.689453"/>
      <use xlink:href="#DejaVuSans-74" x="790.669922"/>
      <use xlink:href="#DejaVuSans-69" x="829.878906"/>
      <use xlink:href="#DejaVuSans-6f" x="857.662109"/>
      <use xlink:href="#DejaVuSans-6e" x="918.84375"/>
      <use xlink:href="#DejaVuSans-73" x="982.222656"/>
      <use xlink:href="#DejaVuSans-20" x="1034.322266"/>
      <use xlink:href="#DejaVuSans-6d" x="1066.109375"/>
      <use xlink:href="#DejaVuSans-61" x="1163.521484"/>
      <use xlink:href="#DejaVuSans-78" x="1224.800781"/>
     </g>
    </g>
    <g id="line2d_26">
     <path d="M 66.6 127.961063 
L 76.6 127.961063 
L 86.6 127.961063 
" style="fill: none; stroke: #f08080; stroke-opacity: 0.8; stroke-width: 0.5; stroke-linecap: square"/>
    </g>
    <g id="text_21">
     <!-- Negative predictions min -->
     <g transform="translate(94.6 131.461063) scale(0.1 -0.1)">
      <use xlink:href="#DejaVuSans-4e"/>
      <use xlink:href="#DejaVuSans-65" x="74.804688"/>
      <use xlink:href="#DejaVuSans-67" x="136.328125"/>
      <use xlink:href="#DejaVuSans-61" x="199.804688"/>
      <use xlink:href="#DejaVuSans-74" x="261.083984"/>
      <use xlink:href="#DejaVuSans-69" x="300.292969"/>
      <use xlink:href="#DejaVuSans-76" x="328.076172"/>
      <use xlink:href="#DejaVuSans-65" x="387.255859"/>
      <use xlink:href="#DejaVuSans-20" x="448.779297"/>
      <use xlink:href="#DejaVuSans-70" x="480.566406"/>
      <use xlink:href="#DejaVuSans-72" x="544.042969"/>
      <use xlink:href="#DejaVuSans-65" x="582.90625"/>
      <use xlink:href="#DejaVuSans-64" x="644.429688"/>
      <use xlink:href="#DejaVuSans-69" x="707.90625"/>
      <use xlink:href="#DejaVuSans-63" x="735.689453"/>
      <use xlink:href="#DejaVuSans-74" x="790.669922"/>
      <use xlink:href="#DejaVuSans-69" x="829.878906"/>
      <use xlink:href="#DejaVuSans-6f" x="857.662109"/>
      <use xlink:href="#DejaVuSans-6e" x="918.84375"/>
      <use xlink:href="#DejaVuSans-73" x="982.222656"/>
      <use xlink:href="#DejaVuSans-20" x="1034.322266"/>
      <use xlink:href="#DejaVuSans-6d" x="1066.109375"/>
      <use xlink:href="#DejaVuSans-69" x="1163.521484"/>
      <use xlink:href="#DejaVuSans-6e" x="1191.304688"/>
     </g>
    </g>
   </g>
  </g>
 </g>
 <defs>
  <clipPath id="pe68919dc3e">
   <rect x="57.6" y="41.472" width="357.12" height="266.112"/>
  </clipPath>
 </defs>
</svg>
