<?xml version="1.0" encoding="utf-8" standalone="no"?>
<!DOCTYPE svg PUBLIC "-//W3C//DTD SVG 1.1//EN"
  "http://www.w3.org/Graphics/SVG/1.1/DTD/svg11.dtd">
<svg xmlns:xlink="http://www.w3.org/1999/xlink" width="460.8pt" height="345.6pt" viewBox="0 0 460.8 345.6" xmlns="http://www.w3.org/2000/svg" version="1.1">
 <metadata>
  <rdf:RDF xmlns:dc="http://purl.org/dc/elements/1.1/" xmlns:cc="http://creativecommons.org/ns#" xmlns:rdf="http://www.w3.org/1999/02/22-rdf-syntax-ns#">
   <cc:Work>
    <dc:type rdf:resource="http://purl.org/dc/dcmitype/StillImage"/>
    <dc:date>2024-07-15T13:22:54.360079</dc:date>
    <dc:format>image/svg+xml</dc:format>
    <dc:creator>
     <cc:Agent>
      <dc:title>Matplotlib v3.9.0, https://matplotlib.org/</dc:title>
     </cc:Agent>
    </dc:creator>
   </cc:Work>
  </rdf:RDF>
 </metadata>
 <defs>
  <style type="text/css">*{stroke-linejoin: round; stroke-linecap: butt}</style>
 </defs>
 <g id="figure_1">
  <g id="patch_1">
   <path d="M 0 345.6 
L 460.8 345.6 
L 460.8 0 
L 0 0 
z
" style="fill: #ffffff"/>
  </g>
  <g id="axes_1">
   <g id="patch_2">
    <path d="M 57.6 307.584 
L 414.72 307.584 
L 414.72 41.472 
L 57.6 41.472 
z
" style="fill: #ffffff"/>
   </g>
   <g id="matplotlib.axis_1">
    <g id="xtick_1">
     <g id="line2d_1">
      <defs>
       <path id="mb06c90fde5" d="M 0 0 
L 0 3.5 
" style="stroke: #000000; stroke-width: 0.8"/>
      </defs>
      <g>
       <use xlink:href="#mb06c90fde5" x="73.832727" y="307.584" style="stroke: #000000; stroke-width: 0.8"/>
      </g>
     </g>
     <g id="text_1">
      <!-- 0 -->
      <g transform="translate(70.651477 322.182437) scale(0.1 -0.1)">
       <defs>
        <path id="DejaVuSans-30" d="M 2034 4250 
Q 1547 4250 1301 3770 
Q 1056 3291 1056 2328 
Q 1056 1369 1301 889 
Q 1547 409 2034 409 
Q 2525 409 2770 889 
Q 3016 1369 3016 2328 
Q 3016 3291 2770 3770 
Q 2525 4250 2034 4250 
z
M 2034 4750 
Q 2819 4750 3233 4129 
Q 3647 3509 3647 2328 
Q 3647 1150 3233 529 
Q 2819 -91 2034 -91 
Q 1250 -91 836 529 
Q 422 1150 422 2328 
Q 422 3509 836 4129 
Q 1250 4750 2034 4750 
z
" transform="scale(0.015625)"/>
       </defs>
       <use xlink:href="#DejaVuSans-30"/>
      </g>
     </g>
    </g>
    <g id="xtick_2">
     <g id="line2d_2">
      <g>
       <use xlink:href="#mb06c90fde5" x="149.333784" y="307.584" style="stroke: #000000; stroke-width: 0.8"/>
      </g>
     </g>
     <g id="text_2">
      <!-- 50 -->
      <g transform="translate(142.971284 322.182437) scale(0.1 -0.1)">
       <defs>
        <path id="DejaVuSans-35" d="M 691 4666 
L 3169 4666 
L 3169 4134 
L 1269 4134 
L 1269 2991 
Q 1406 3038 1543 3061 
Q 1681 3084 1819 3084 
Q 2600 3084 3056 2656 
Q 3513 2228 3513 1497 
Q 3513 744 3044 326 
Q 2575 -91 1722 -91 
Q 1428 -91 1123 -41 
Q 819 9 494 109 
L 494 744 
Q 775 591 1075 516 
Q 1375 441 1709 441 
Q 2250 441 2565 725 
Q 2881 1009 2881 1497 
Q 2881 1984 2565 2268 
Q 2250 2553 1709 2553 
Q 1456 2553 1204 2497 
Q 953 2441 691 2322 
L 691 4666 
z
" transform="scale(0.015625)"/>
       </defs>
       <use xlink:href="#DejaVuSans-35"/>
       <use xlink:href="#DejaVuSans-30" x="63.623047"/>
      </g>
     </g>
    </g>
    <g id="xtick_3">
     <g id="line2d_3">
      <g>
       <use xlink:href="#mb06c90fde5" x="224.834841" y="307.584" style="stroke: #000000; stroke-width: 0.8"/>
      </g>
     </g>
     <g id="text_3">
      <!-- 100 -->
      <g transform="translate(215.291091 322.182437) scale(0.1 -0.1)">
       <defs>
        <path id="DejaVuSans-31" d="M 794 531 
L 1825 531 
L 1825 4091 
L 703 3866 
L 703 4441 
L 1819 4666 
L 2450 4666 
L 2450 531 
L 3481 531 
L 3481 0 
L 794 0 
L 794 531 
z
" transform="scale(0.015625)"/>
       </defs>
       <use xlink:href="#DejaVuSans-31"/>
       <use xlink:href="#DejaVuSans-30" x="63.623047"/>
       <use xlink:href="#DejaVuSans-30" x="127.246094"/>
      </g>
     </g>
    </g>
    <g id="xtick_4">
     <g id="line2d_4">
      <g>
       <use xlink:href="#mb06c90fde5" x="300.335899" y="307.584" style="stroke: #000000; stroke-width: 0.8"/>
      </g>
     </g>
     <g id="text_4">
      <!-- 150 -->
      <g transform="translate(290.792149 322.182437) scale(0.1 -0.1)">
       <use xlink:href="#DejaVuSans-31"/>
       <use xlink:href="#DejaVuSans-35" x="63.623047"/>
       <use xlink:href="#DejaVuSans-30" x="127.246094"/>
      </g>
     </g>
    </g>
    <g id="xtick_5">
     <g id="line2d_5">
      <g>
       <use xlink:href="#mb06c90fde5" x="375.836956" y="307.584" style="stroke: #000000; stroke-width: 0.8"/>
      </g>
     </g>
     <g id="text_5">
      <!-- 200 -->
      <g transform="translate(366.293206 322.182437) scale(0.1 -0.1)">
       <defs>
        <path id="DejaVuSans-32" d="M 1228 531 
L 3431 531 
L 3431 0 
L 469 0 
L 469 531 
Q 828 903 1448 1529 
Q 2069 2156 2228 2338 
Q 2531 2678 2651 2914 
Q 2772 3150 2772 3378 
Q 2772 3750 2511 3984 
Q 2250 4219 1831 4219 
Q 1534 4219 1204 4116 
Q 875 4013 500 3803 
L 500 4441 
Q 881 4594 1212 4672 
Q 1544 4750 1819 4750 
Q 2544 4750 2975 4387 
Q 3406 4025 3406 3419 
Q 3406 3131 3298 2873 
Q 3191 2616 2906 2266 
Q 2828 2175 2409 1742 
Q 1991 1309 1228 531 
z
" transform="scale(0.015625)"/>
       </defs>
       <use xlink:href="#DejaVuSans-32"/>
       <use xlink:href="#DejaVuSans-30" x="63.623047"/>
       <use xlink:href="#DejaVuSans-30" x="127.246094"/>
      </g>
     </g>
    </g>
   </g>
   <g id="matplotlib.axis_2">
    <g id="ytick_1">
     <g id="line2d_6">
      <defs>
       <path id="mbbac08d360" d="M 0 0 
L -3.5 0 
" style="stroke: #000000; stroke-width: 0.8"/>
      </defs>
      <g>
       <use xlink:href="#mbbac08d360" x="57.6" y="294.806446" style="stroke: #000000; stroke-width: 0.8"/>
      </g>
     </g>
     <g id="text_6">
      <!-- 5000 -->
      <g transform="translate(25.15 298.605665) scale(0.1 -0.1)">
       <use xlink:href="#DejaVuSans-35"/>
       <use xlink:href="#DejaVuSans-30" x="63.623047"/>
       <use xlink:href="#DejaVuSans-30" x="127.246094"/>
       <use xlink:href="#DejaVuSans-30" x="190.869141"/>
      </g>
     </g>
    </g>
    <g id="ytick_2">
     <g id="line2d_7">
      <g>
       <use xlink:href="#mbbac08d360" x="57.6" y="263.106256" style="stroke: #000000; stroke-width: 0.8"/>
      </g>
     </g>
     <g id="text_7">
      <!-- 5500 -->
      <g transform="translate(25.15 266.905475) scale(0.1 -0.1)">
       <use xlink:href="#DejaVuSans-35"/>
       <use xlink:href="#DejaVuSans-35" x="63.623047"/>
       <use xlink:href="#DejaVuSans-30" x="127.246094"/>
       <use xlink:href="#DejaVuSans-30" x="190.869141"/>
      </g>
     </g>
    </g>
    <g id="ytick_3">
     <g id="line2d_8">
      <g>
       <use xlink:href="#mbbac08d360" x="57.6" y="231.406066" style="stroke: #000000; stroke-width: 0.8"/>
      </g>
     </g>
     <g id="text_8">
      <!-- 6000 -->
      <g transform="translate(25.15 235.205285) scale(0.1 -0.1)">
       <defs>
        <path id="DejaVuSans-36" d="M 2113 2584 
Q 1688 2584 1439 2293 
Q 1191 2003 1191 1497 
Q 1191 994 1439 701 
Q 1688 409 2113 409 
Q 2538 409 2786 701 
Q 3034 994 3034 1497 
Q 3034 2003 2786 2293 
Q 2538 2584 2113 2584 
z
M 3366 4563 
L 3366 3988 
Q 3128 4100 2886 4159 
Q 2644 4219 2406 4219 
Q 1781 4219 1451 3797 
Q 1122 3375 1075 2522 
Q 1259 2794 1537 2939 
Q 1816 3084 2150 3084 
Q 2853 3084 3261 2657 
Q 3669 2231 3669 1497 
Q 3669 778 3244 343 
Q 2819 -91 2113 -91 
Q 1303 -91 875 529 
Q 447 1150 447 2328 
Q 447 3434 972 4092 
Q 1497 4750 2381 4750 
Q 2619 4750 2861 4703 
Q 3103 4656 3366 4563 
z
" transform="scale(0.015625)"/>
       </defs>
       <use xlink:href="#DejaVuSans-36"/>
       <use xlink:href="#DejaVuSans-30" x="63.623047"/>
       <use xlink:href="#DejaVuSans-30" x="127.246094"/>
       <use xlink:href="#DejaVuSans-30" x="190.869141"/>
      </g>
     </g>
    </g>
    <g id="ytick_4">
     <g id="line2d_9">
      <g>
       <use xlink:href="#mbbac08d360" x="57.6" y="199.705876" style="stroke: #000000; stroke-width: 0.8"/>
      </g>
     </g>
     <g id="text_9">
      <!-- 6500 -->
      <g transform="translate(25.15 203.505095) scale(0.1 -0.1)">
       <use xlink:href="#DejaVuSans-36"/>
       <use xlink:href="#DejaVuSans-35" x="63.623047"/>
       <use xlink:href="#DejaVuSans-30" x="127.246094"/>
       <use xlink:href="#DejaVuSans-30" x="190.869141"/>
      </g>
     </g>
    </g>
    <g id="ytick_5">
     <g id="line2d_10">
      <g>
       <use xlink:href="#mbbac08d360" x="57.6" y="168.005686" style="stroke: #000000; stroke-width: 0.8"/>
      </g>
     </g>
     <g id="text_10">
      <!-- 7000 -->
      <g transform="translate(25.15 171.804905) scale(0.1 -0.1)">
       <defs>
        <path id="DejaVuSans-37" d="M 525 4666 
L 3525 4666 
L 3525 4397 
L 1831 0 
L 1172 0 
L 2766 4134 
L 525 4134 
L 525 4666 
z
" transform="scale(0.015625)"/>
       </defs>
       <use xlink:href="#DejaVuSans-37"/>
       <use xlink:href="#DejaVuSans-30" x="63.623047"/>
       <use xlink:href="#DejaVuSans-30" x="127.246094"/>
       <use xlink:href="#DejaVuSans-30" x="190.869141"/>
      </g>
     </g>
    </g>
    <g id="ytick_6">
     <g id="line2d_11">
      <g>
       <use xlink:href="#mbbac08d360" x="57.6" y="136.305496" style="stroke: #000000; stroke-width: 0.8"/>
      </g>
     </g>
     <g id="text_11">
      <!-- 7500 -->
      <g transform="translate(25.15 140.104715) scale(0.1 -0.1)">
       <use xlink:href="#DejaVuSans-37"/>
       <use xlink:href="#DejaVuSans-35" x="63.623047"/>
       <use xlink:href="#DejaVuSans-30" x="127.246094"/>
       <use xlink:href="#DejaVuSans-30" x="190.869141"/>
      </g>
     </g>
    </g>
    <g id="ytick_7">
     <g id="line2d_12">
      <g>
       <use xlink:href="#mbbac08d360" x="57.6" y="104.605306" style="stroke: #000000; stroke-width: 0.8"/>
      </g>
     </g>
     <g id="text_12">
      <!-- 8000 -->
      <g transform="translate(25.15 108.404525) scale(0.1 -0.1)">
       <defs>
        <path id="DejaVuSans-38" d="M 2034 2216 
Q 1584 2216 1326 1975 
Q 1069 1734 1069 1313 
Q 1069 891 1326 650 
Q 1584 409 2034 409 
Q 2484 409 2743 651 
Q 3003 894 3003 1313 
Q 3003 1734 2745 1975 
Q 2488 2216 2034 2216 
z
M 1403 2484 
Q 997 2584 770 2862 
Q 544 3141 544 3541 
Q 544 4100 942 4425 
Q 1341 4750 2034 4750 
Q 2731 4750 3128 4425 
Q 3525 4100 3525 3541 
Q 3525 3141 3298 2862 
Q 3072 2584 2669 2484 
Q 3125 2378 3379 2068 
Q 3634 1759 3634 1313 
Q 3634 634 3220 271 
Q 2806 -91 2034 -91 
Q 1263 -91 848 271 
Q 434 634 434 1313 
Q 434 1759 690 2068 
Q 947 2378 1403 2484 
z
M 1172 3481 
Q 1172 3119 1398 2916 
Q 1625 2713 2034 2713 
Q 2441 2713 2670 2916 
Q 2900 3119 2900 3481 
Q 2900 3844 2670 4047 
Q 2441 4250 2034 4250 
Q 1625 4250 1398 4047 
Q 1172 3844 1172 3481 
z
" transform="scale(0.015625)"/>
       </defs>
       <use xlink:href="#DejaVuSans-38"/>
       <use xlink:href="#DejaVuSans-30" x="63.623047"/>
       <use xlink:href="#DejaVuSans-30" x="127.246094"/>
       <use xlink:href="#DejaVuSans-30" x="190.869141"/>
      </g>
     </g>
    </g>
    <g id="ytick_8">
     <g id="line2d_13">
      <g>
       <use xlink:href="#mbbac08d360" x="57.6" y="72.905116" style="stroke: #000000; stroke-width: 0.8"/>
      </g>
     </g>
     <g id="text_13">
      <!-- 8500 -->
      <g transform="translate(25.15 76.704335) scale(0.1 -0.1)">
       <use xlink:href="#DejaVuSans-38"/>
       <use xlink:href="#DejaVuSans-35" x="63.623047"/>
       <use xlink:href="#DejaVuSans-30" x="127.246094"/>
       <use xlink:href="#DejaVuSans-30" x="190.869141"/>
      </g>
     </g>
    </g>
   </g>
   <g id="line2d_14">
    <path d="M 73.832727 295.285777 
L 75.342748 294.938392 
L 76.85277 292.517141 
L 78.362791 290.91115 
L 79.872812 290.308015 
L 81.382833 290.029367 
L 82.892854 290.070018 
L 84.402875 289.522 
L 85.912896 289.242066 
L 87.422918 287.047776 
L 88.932939 283.36664 
L 90.44296 277.668719 
L 91.952981 277.089867 
L 93.463002 277.64217 
L 94.973023 279.301341 
L 96.483044 276.660351 
L 97.993066 277.215018 
L 99.503087 276.570696 
L 104.03315 270.531335 
L 105.543171 269.256857 
L 107.053192 267.229545 
L 108.563214 267.725503 
L 111.583256 267.596783 
L 114.603298 265.843794 
L 117.62334 265.762588 
L 120.643383 265.732725 
L 122.153404 265.524056 
L 123.663425 266.20939 
L 126.683467 266.589144 
L 128.193488 266.312907 
L 129.70351 263.447386 
L 131.213531 261.818258 
L 132.723552 262.344507 
L 134.233573 261.166979 
L 135.743594 260.661522 
L 137.253615 260.347021 
L 138.763636 260.390346 
L 140.273658 259.921437 
L 143.2937 259.310811 
L 144.803721 257.565063 
L 146.313742 256.673414 
L 147.823763 255.401751 
L 149.333784 253.099563 
L 150.843805 249.538575 
L 152.353827 247.090455 
L 153.863848 246.963706 
L 155.373869 246.378862 
L 158.393911 244.82065 
L 159.903932 245.581534 
L 161.413953 243.416266 
L 162.923975 240.090128 
L 164.433996 238.629504 
L 165.944017 238.816416 
L 167.454038 239.496784 
L 170.47408 239.866054 
L 171.984101 240.495629 
L 173.494123 239.827774 
L 175.004144 239.544276 
L 176.514165 238.65653 
L 178.024186 238.10419 
L 179.534207 237.267022 
L 181.044228 237.77479 
L 182.554249 237.40327 
L 184.064271 235.802769 
L 185.574292 235.278006 
L 187.084313 233.483813 
L 190.104355 230.534605 
L 191.614376 230.749746 
L 193.124397 230.232197 
L 196.14444 231.200882 
L 197.654461 229.355835 
L 199.164482 229.848053 
L 200.674503 228.285947 
L 202.184524 226.282975 
L 203.694545 224.876635 
L 205.204567 221.905619 
L 206.714588 221.683492 
L 208.224609 222.217955 
L 211.244651 222.135319 
L 212.754672 220.613942 
L 214.264693 218.051716 
L 215.774715 217.435666 
L 217.284736 216.106732 
L 218.794757 215.079352 
L 220.304778 216.000918 
L 221.814799 215.448454 
L 223.32482 216.015872 
L 224.834841 214.286041 
L 226.344863 213.398536 
L 227.854884 212.764473 
L 229.364905 212.33919 
L 230.874926 212.99479 
L 232.384947 212.656415 
L 233.894968 212.05662 
L 235.404989 211.931321 
L 236.915011 210.418029 
L 238.425032 205.105475 
L 239.935053 205.491949 
L 241.445074 205.425966 
L 242.955095 205.185611 
L 244.465116 204.60104 
L 245.975137 205.428549 
L 247.485159 201.296772 
L 248.99518 200.768653 
L 250.505201 198.817315 
L 252.015222 199.606901 
L 253.525243 197.575769 
L 255.035264 196.307345 
L 256.545285 192.993361 
L 258.055307 192.506058 
L 259.565328 192.758414 
L 261.075349 193.39372 
L 262.58537 193.322605 
L 264.095391 194.463194 
L 265.605412 193.808971 
L 267.115433 189.87065 
L 268.625455 190.287045 
L 271.645497 189.381853 
L 273.155518 186.503706 
L 274.665539 185.912419 
L 276.17556 183.973393 
L 277.685581 183.045679 
L 279.195603 181.60531 
L 280.705624 180.478177 
L 282.215645 180.446334 
L 283.725666 178.178015 
L 285.235687 175.048098 
L 286.745708 170.586081 
L 288.255729 163.123857 
L 289.765751 160.968244 
L 291.275772 158.242027 
L 292.785793 159.441016 
L 294.295814 154.295354 
L 295.805835 144.973858 
L 297.315856 147.402022 
L 298.825877 146.820155 
L 300.335899 147.114948 
L 301.84592 147.874769 
L 303.355941 147.779572 
L 304.865962 147.530072 
L 306.375983 144.406513 
L 307.886004 141.741631 
L 309.396025 140.217598 
L 310.906047 139.846113 
L 312.416068 137.038145 
L 313.926089 133.344955 
L 315.43611 131.944688 
L 316.946131 125.094962 
L 318.456152 126.168077 
L 319.966173 124.756823 
L 321.476195 123.812942 
L 322.986216 122.68272 
L 324.496237 122.523928 
L 326.006258 122.826382 
L 327.516279 122.22398 
L 329.0263 121.387458 
L 330.536321 120.717308 
L 332.046342 118.463307 
L 333.556364 109.147139 
L 335.066385 107.370889 
L 336.576406 110.213545 
L 338.086427 110.757528 
L 339.596448 110.772836 
L 341.106469 112.242357 
L 342.61649 111.725075 
L 344.126512 107.277804 
L 345.636533 106.980125 
L 347.146554 105.659685 
L 350.166596 100.037621 
L 351.676617 100.259685 
L 353.186638 97.241982 
L 354.69666 97.404546 
L 356.206681 97.377332 
L 357.716702 97.212568 
L 359.226723 96.352639 
L 360.736744 95.946338 
L 362.246765 94.628081 
L 363.756786 91.540049 
L 365.266808 85.697904 
L 366.776829 78.856091 
L 368.28685 67.952622 
L 369.796871 63.742467 
L 371.306892 64.960212 
L 372.816913 68.286993 
L 374.326934 68.266174 
L 375.836956 69.282653 
L 377.346977 69.262759 
L 378.856998 69.488276 
L 380.367019 66.862162 
L 381.87704 66.429662 
L 383.387061 67.242626 
L 384.897082 67.326631 
L 386.407104 66.361725 
L 387.917125 65.727955 
L 389.427146 65.594216 
L 390.937167 63.13976 
L 392.447188 61.471882 
L 393.957209 60.562045 
L 395.46723 60.451114 
L 396.977252 60.09176 
L 398.487273 55.522616 
L 398.487273 55.522616 
" clip-path="url(#p96e75384cc)" style="fill: none; stroke: #1f77b4; stroke-opacity: 0.7; stroke-width: 0.5; stroke-linecap: square"/>
   </g>
   <g id="line2d_15">
    <path d="M 73.832727 295.488 
L 75.342748 295.00609 
L 76.85277 292.437509 
L 78.362791 291.747956 
L 81.382833 290.146982 
L 82.892854 290.070719 
L 84.402875 289.456225 
L 85.912896 289.475436 
L 87.422918 287.745881 
L 88.932939 283.558443 
L 90.44296 277.125397 
L 91.952981 276.833818 
L 93.463002 276.045217 
L 94.973023 279.496727 
L 96.483044 278.243254 
L 97.993066 278.119466 
L 99.503087 277.160007 
L 101.013108 274.812204 
L 102.523129 272.949308 
L 104.03315 270.736122 
L 105.543171 269.774617 
L 107.053192 268.63819 
L 108.563214 268.681741 
L 110.073235 267.955498 
L 111.583256 267.929636 
L 113.093277 267.452241 
L 114.603298 266.361684 
L 116.113319 266.192236 
L 117.62334 265.739485 
L 119.133362 266.307975 
L 120.643383 266.593277 
L 122.153404 266.587993 
L 123.663425 265.901816 
L 125.173446 267.030843 
L 126.683467 266.94092 
L 128.193488 265.983067 
L 129.70351 263.780538 
L 131.213531 262.238189 
L 132.723552 263.168712 
L 134.233573 262.068727 
L 135.743594 261.393462 
L 138.763636 261.09475 
L 140.273658 260.626893 
L 141.783679 259.806333 
L 143.2937 259.591595 
L 144.803721 258.201304 
L 146.313742 256.470928 
L 147.823763 255.221773 
L 152.353827 248.621575 
L 153.863848 247.10026 
L 155.373869 247.040834 
L 156.88389 245.592782 
L 158.393911 245.547293 
L 159.903932 245.951834 
L 161.413953 243.809418 
L 162.923975 241.144028 
L 164.433996 239.507428 
L 165.944017 239.220931 
L 167.454038 239.986459 
L 168.964059 239.980551 
L 170.47408 240.218759 
L 171.984101 240.86178 
L 173.494123 240.068795 
L 175.004144 239.843307 
L 176.514165 239.051332 
L 178.024186 238.970243 
L 179.534207 237.873772 
L 181.044228 237.859282 
L 182.554249 237.7093 
L 184.064271 235.956709 
L 185.574292 235.520716 
L 187.084313 233.363608 
L 188.594334 231.822478 
L 190.104355 231.052717 
L 191.614376 231.518659 
L 193.124397 230.844253 
L 196.14444 230.886137 
L 199.164482 230.077373 
L 200.674503 228.555316 
L 202.184524 226.092595 
L 203.694545 224.987542 
L 205.204567 222.863643 
L 206.714588 222.170965 
L 208.224609 222.649898 
L 209.73463 222.951989 
L 211.244651 222.731537 
L 212.754672 220.88387 
L 214.264693 218.086544 
L 215.774715 217.996917 
L 217.284736 216.254996 
L 218.794757 215.537502 
L 220.304778 216.655982 
L 221.814799 216.090025 
L 223.32482 216.528105 
L 224.834841 214.606587 
L 226.344863 214.142327 
L 227.854884 213.06426 
L 229.364905 213.094511 
L 230.874926 213.278077 
L 233.894968 212.071996 
L 235.404989 212.28428 
L 236.915011 210.865964 
L 238.425032 205.16786 
L 239.935053 206.404839 
L 242.955095 205.716137 
L 244.465116 204.891919 
L 245.975137 206.070558 
L 247.485159 201.776235 
L 248.99518 201.771841 
L 250.505201 199.235372 
L 252.015222 200.445453 
L 253.525243 198.650191 
L 255.035264 197.329452 
L 256.545285 192.70152 
L 258.055307 193.546251 
L 259.565328 193.534514 
L 262.58537 194.322761 
L 264.095391 194.620725 
L 265.605412 194.294775 
L 267.115433 190.423076 
L 268.625455 191.398336 
L 270.135476 190.89131 
L 271.645497 190.198178 
L 273.155518 187.149696 
L 274.665539 187.009976 
L 276.17556 184.664008 
L 277.685581 183.886901 
L 280.705624 180.725082 
L 282.215645 181.279594 
L 285.235687 176.453014 
L 286.745708 170.368396 
L 288.255729 166.45342 
L 289.765751 163.157205 
L 291.275772 160.189213 
L 292.785793 159.242358 
L 294.295814 155.722908 
L 295.805835 148.553766 
L 297.315856 147.682943 
L 298.825877 147.444933 
L 300.335899 147.568497 
L 301.84592 148.200499 
L 303.355941 147.881711 
L 304.865962 147.321876 
L 306.375983 145.205812 
L 307.886004 142.372102 
L 309.396025 140.928763 
L 310.906047 139.879244 
L 312.416068 137.344165 
L 313.926089 133.345807 
L 315.43611 131.579178 
L 316.946131 127.704684 
L 318.456152 126.250434 
L 319.966173 125.52762 
L 321.476195 123.485984 
L 322.986216 123.487253 
L 324.496237 122.669628 
L 326.006258 122.966343 
L 327.516279 122.620164 
L 329.0263 121.271689 
L 330.536321 120.773298 
L 332.046342 119.338457 
L 333.556364 111.488668 
L 335.066385 109.850182 
L 336.576406 111.083882 
L 338.086427 111.408758 
L 339.596448 111.39286 
L 341.106469 112.07441 
L 342.61649 111.775717 
L 344.126512 107.989789 
L 345.636533 108.131273 
L 347.146554 106.862893 
L 350.166596 100.999243 
L 351.676617 101.080683 
L 353.186638 98.44984 
L 354.69666 98.289197 
L 356.206681 97.482731 
L 357.716702 97.536831 
L 359.226723 96.532602 
L 360.736744 96.24306 
L 362.246765 95.319926 
L 363.756786 92.440131 
L 365.266808 85.416596 
L 366.776829 81.085556 
L 368.28685 68.734931 
L 369.796871 64.426991 
L 371.306892 65.463895 
L 372.816913 68.541112 
L 374.326934 68.820492 
L 375.836956 69.689462 
L 378.856998 70.30277 
L 380.367019 67.867561 
L 381.87704 67.243126 
L 383.387061 67.735111 
L 384.897082 67.93611 
L 386.407104 66.778309 
L 387.917125 65.906975 
L 389.427146 66.005189 
L 390.937167 63.619736 
L 392.447188 62.336721 
L 393.957209 61.347062 
L 396.977252 60.736278 
L 398.487273 56.01169 
L 398.487273 56.01169 
" clip-path="url(#p96e75384cc)" style="fill: none; stroke: #ff7f0e; stroke-opacity: 0.7; stroke-width: 0.5; stroke-linecap: square"/>
   </g>
   <g id="line2d_16">
    <path d="M 73.832727 295.386888 
L 75.342748 294.972241 
L 76.85277 292.477325 
L 78.362791 291.329553 
L 79.872812 290.599651 
L 81.382833 290.088175 
L 82.892854 290.070369 
L 84.402875 289.489113 
L 85.912896 289.358751 
L 87.422918 287.396829 
L 88.932939 283.462542 
L 90.44296 277.397058 
L 91.952981 276.961843 
L 93.463002 276.843693 
L 94.973023 279.399034 
L 96.483044 277.451803 
L 97.993066 277.667242 
L 99.503087 276.865352 
L 101.013108 274.706138 
L 102.523129 272.87764 
L 104.03315 270.633728 
L 105.543171 269.515737 
L 107.053192 267.933867 
L 108.563214 268.203622 
L 110.073235 267.807262 
L 111.583256 267.763209 
L 113.093277 267.074652 
L 114.603298 266.102739 
L 117.62334 265.751037 
L 119.133362 266.032399 
L 120.643383 266.163001 
L 123.663425 266.055603 
L 125.173446 266.713843 
L 126.683467 266.765032 
L 128.193488 266.147987 
L 129.70351 263.613962 
L 131.213531 262.028224 
L 132.723552 262.756609 
L 134.233573 261.617853 
L 135.743594 261.027492 
L 137.253615 260.807248 
L 138.763636 260.742548 
L 143.2937 259.451203 
L 144.803721 257.883183 
L 147.823763 255.311762 
L 149.333784 253.052085 
L 150.843805 250.218777 
L 152.353827 247.856015 
L 153.863848 247.031983 
L 155.373869 246.709848 
L 156.88389 245.605066 
L 158.393911 245.183971 
L 159.903932 245.766684 
L 161.413953 243.612842 
L 162.923975 240.617078 
L 164.433996 239.068466 
L 165.944017 239.018674 
L 167.454038 239.741621 
L 168.964059 239.827148 
L 170.47408 240.042407 
L 171.984101 240.678704 
L 173.494123 239.948285 
L 175.004144 239.693791 
L 176.514165 238.853931 
L 178.024186 238.537217 
L 179.534207 237.570397 
L 181.044228 237.817036 
L 182.554249 237.556285 
L 184.064271 235.879739 
L 185.574292 235.399361 
L 187.084313 233.42371 
L 188.594334 231.918799 
L 190.104355 230.793661 
L 191.614376 231.134203 
L 193.124397 230.538225 
L 196.14444 231.043509 
L 197.654461 229.933213 
L 199.164482 229.962713 
L 200.674503 228.420631 
L 202.184524 226.187785 
L 203.694545 224.932089 
L 205.204567 222.384631 
L 206.714588 221.927229 
L 208.224609 222.433927 
L 209.73463 222.579686 
L 211.244651 222.433428 
L 212.754672 220.748906 
L 214.264693 218.06913 
L 215.774715 217.716292 
L 217.284736 216.180864 
L 218.794757 215.308427 
L 220.304778 216.32845 
L 221.814799 215.76924 
L 223.32482 216.271989 
L 224.834841 214.446314 
L 226.344863 213.770432 
L 227.854884 212.914366 
L 229.364905 212.71685 
L 230.874926 213.136434 
L 232.384947 212.679074 
L 233.894968 212.064308 
L 235.404989 212.107801 
L 236.915011 210.641996 
L 238.425032 205.136667 
L 239.935053 205.948394 
L 241.445074 205.761008 
L 242.955095 205.450874 
L 244.465116 204.74648 
L 245.975137 205.749553 
L 247.485159 201.536504 
L 248.99518 201.270247 
L 250.505201 199.026344 
L 252.015222 200.026177 
L 253.525243 198.11298 
L 255.035264 196.818398 
L 256.545285 192.84744 
L 259.565328 193.146464 
L 261.075349 193.665435 
L 262.58537 193.822683 
L 264.095391 194.541959 
L 265.605412 194.051873 
L 267.115433 190.146863 
L 268.625455 190.842691 
L 271.645497 189.790016 
L 273.155518 186.826701 
L 274.665539 186.461197 
L 276.17556 184.3187 
L 277.685581 183.46629 
L 279.195603 181.918472 
L 280.705624 180.60163 
L 282.215645 180.862964 
L 283.725666 178.493014 
L 285.235687 175.750556 
L 286.745708 170.477238 
L 288.255729 164.788638 
L 291.275772 159.21562 
L 292.785793 159.341687 
L 294.295814 155.009131 
L 295.805835 146.763812 
L 297.315856 147.542482 
L 298.825877 147.132544 
L 300.335899 147.341723 
L 301.84592 148.037634 
L 303.355941 147.830641 
L 304.865962 147.425974 
L 307.886004 142.056866 
L 309.396025 140.57318 
L 310.906047 139.862678 
L 312.416068 137.191155 
L 313.926089 133.345381 
L 315.43611 131.761933 
L 316.946131 126.399823 
L 318.456152 126.209256 
L 319.966173 125.142221 
L 321.476195 123.649463 
L 324.496237 122.596778 
L 326.006258 122.896363 
L 327.516279 122.422072 
L 329.0263 121.329574 
L 330.536321 120.745303 
L 332.046342 118.900882 
L 333.556364 110.317904 
L 335.066385 108.610535 
L 336.576406 110.648714 
L 338.086427 111.083143 
L 339.596448 111.082848 
L 341.106469 112.158384 
L 342.61649 111.750396 
L 344.126512 107.633797 
L 345.636533 107.555699 
L 347.146554 106.261289 
L 350.166596 100.518432 
L 351.676617 100.670184 
L 353.186638 97.845911 
L 354.69666 97.846871 
L 356.206681 97.430032 
L 357.716702 97.374699 
L 359.226723 96.44262 
L 360.736744 96.094699 
L 362.246765 94.974003 
L 363.756786 91.99009 
L 365.266808 85.55725 
L 366.776829 79.970824 
L 368.28685 68.343776 
L 369.796871 64.084729 
L 371.306892 65.212054 
L 372.816913 68.414052 
L 374.326934 68.543333 
L 375.836956 69.486058 
L 378.856998 69.895523 
L 380.367019 67.364862 
L 381.87704 66.836394 
L 383.387061 67.488869 
L 384.897082 67.631371 
L 386.407104 66.570017 
L 387.917125 65.817465 
L 389.427146 65.799703 
L 390.937167 63.379748 
L 392.447188 61.904302 
L 393.957209 60.954553 
L 395.46723 60.75549 
L 396.977252 60.414019 
L 398.487273 55.767153 
L 398.487273 55.767153 
" clip-path="url(#p96e75384cc)" style="fill: none; stroke: #2ca02c; stroke-opacity: 0.7; stroke-width: 0.5; stroke-linecap: square"/>
   </g>
   <g id="line2d_17">
    <path d="M 73.832727 295.313649 
L 75.342748 292.777634 
L 78.362791 291.509626 
L 79.872812 291.129224 
L 81.382833 291.065823 
L 82.892854 290.305019 
L 84.402875 290.368419 
L 85.912896 288.086006 
L 87.422918 284.218582 
L 88.932939 278.195546 
L 90.44296 278.322347 
L 91.952981 278.82955 
L 93.463002 280.224359 
L 94.973023 278.639349 
L 96.483044 278.068746 
L 97.993066 277.18114 
L 99.503087 275.152328 
L 101.013108 273.503918 
L 102.523129 271.284905 
L 104.03315 270.650901 
L 105.543171 269.129292 
L 107.053192 269.129292 
L 108.563214 268.939091 
L 110.073235 268.87569 
L 113.093277 267.10048 
L 114.603298 267.10048 
L 116.113319 266.973679 
L 117.62334 266.973679 
L 119.133362 266.720078 
L 120.643383 266.656677 
L 122.153404 267.227281 
L 123.663425 267.417482 
L 125.173446 267.354081 
L 126.683467 267.417482 
L 128.193488 264.120662 
L 129.70351 262.725854 
L 131.213531 263.676859 
L 132.723552 262.408852 
L 134.233573 261.901649 
L 135.743594 261.584647 
L 137.253615 261.648047 
L 138.763636 261.077444 
L 140.273658 260.760442 
L 141.783679 259.936237 
L 143.2937 258.541429 
L 144.803721 256.956419 
L 146.313742 255.688411 
L 147.823763 253.469398 
L 149.333784 251.503986 
L 150.843805 249.221573 
L 152.353827 247.890165 
L 153.863848 247.636563 
L 155.373869 246.305155 
L 156.88389 246.051554 
L 158.393911 246.685557 
L 161.413953 241.740328 
L 162.923975 240.282119 
L 164.433996 240.091918 
L 165.944017 240.662521 
L 168.964059 241.042924 
L 170.47408 241.676927 
L 171.984101 240.40892 
L 173.494123 240.789322 
L 175.004144 239.394514 
L 176.514165 239.331113 
L 178.024186 238.82391 
L 179.534207 238.950711 
L 181.044228 238.063106 
L 182.554249 236.414696 
L 184.064271 235.907493 
L 185.574292 233.75188 
L 187.084313 232.293671 
L 188.594334 231.723068 
L 190.104355 231.976669 
L 191.614376 231.406066 
L 193.124397 231.913269 
L 194.634419 232.293671 
L 196.14444 230.898863 
L 197.654461 231.025664 
L 199.164482 228.933451 
L 200.674503 226.587637 
L 202.184524 225.636631 
L 203.694545 223.290817 
L 205.204567 222.910415 
L 206.714588 223.354218 
L 208.224609 223.354218 
L 209.73463 223.164017 
L 211.244651 221.262005 
L 212.754672 218.599189 
L 214.264693 218.66259 
L 215.774715 216.633777 
L 217.284736 216.316775 
L 218.794757 217.14098 
L 220.304778 216.633777 
L 221.814799 217.204381 
L 223.32482 214.985367 
L 224.834841 214.541565 
L 226.344863 213.463758 
L 227.854884 213.590559 
L 229.364905 214.161163 
L 232.384947 213.273557 
L 233.894968 213.146756 
L 235.404989 211.244745 
L 236.915011 205.792312 
L 238.425032 206.743318 
L 239.935053 206.616517 
L 241.445074 206.236115 
L 242.955095 205.41191 
L 244.465116 206.679918 
L 245.975137 202.11509 
L 247.485159 202.11509 
L 248.99518 199.579075 
L 250.505201 200.973884 
L 252.015222 198.945071 
L 253.525243 197.677064 
L 255.035264 193.048836 
L 256.545285 193.873041 
L 258.055307 194.063242 
L 259.565328 194.697246 
L 261.075349 194.760646 
L 262.58537 195.711652 
L 264.095391 194.570445 
L 265.605412 190.829823 
L 267.115433 191.654028 
L 270.135476 190.703022 
L 271.645497 187.406202 
L 273.155518 187.279401 
L 274.665539 184.933587 
L 276.17556 184.426384 
L 277.685581 182.524373 
L 279.195603 181.066164 
L 280.705624 181.826969 
L 282.215645 179.100752 
L 283.725666 176.818339 
L 285.235687 170.731902 
L 286.745708 166.927879 
L 289.765751 161.095044 
L 291.275772 160.017238 
L 292.785793 156.086414 
L 294.295814 149.112373 
L 295.805835 148.097967 
L 297.315856 148.224767 
L 298.825877 148.478369 
L 300.335899 149.175773 
L 301.84592 149.112373 
L 303.355941 148.414968 
L 306.375983 142.772335 
L 307.886004 141.694528 
L 309.396025 141.250726 
L 312.416068 133.769481 
L 313.926089 132.311272 
L 315.43611 128.063447 
L 316.946131 126.98564 
L 318.456152 126.161435 
L 319.966173 124.322824 
L 322.986216 123.942422 
L 324.496237 124.196023 
L 326.006258 123.62542 
L 327.516279 122.294012 
L 329.0263 122.167211 
L 330.536321 119.631196 
L 332.046342 112.02315 
L 333.556364 110.24794 
L 335.066385 111.706148 
L 336.576406 112.213352 
L 338.086427 112.213352 
L 339.596448 113.734961 
L 341.106469 113.164357 
L 342.61649 108.282528 
L 344.126512 108.472729 
L 345.636533 107.204721 
L 347.146554 104.161503 
L 348.656575 101.435287 
L 350.166596 101.752289 
L 351.676617 98.772471 
L 353.186638 98.962672 
L 354.69666 98.899272 
L 356.206681 98.64567 
L 357.716702 97.694664 
L 359.226723 97.504463 
L 360.736744 95.665852 
L 362.246765 92.876236 
L 363.756786 86.028995 
L 365.266808 81.654368 
L 366.776829 69.291294 
L 368.28685 65.106869 
L 369.796871 66.438277 
L 371.306892 69.671697 
L 372.816913 69.798497 
L 374.326934 70.812903 
L 375.836956 70.749503 
L 377.346977 71.129905 
L 378.856998 68.213488 
L 380.367019 67.959886 
L 381.87704 68.720691 
L 383.387061 68.847492 
L 384.897082 67.452683 
L 386.407104 66.818679 
L 387.917125 67.072281 
L 389.427146 63.965662 
L 390.937167 62.761055 
L 392.447188 62.000251 
L 393.957209 62.063651 
L 395.46723 61.683249 
L 396.977252 56.357617 
L 398.487273 53.568 
L 398.487273 53.568 
" clip-path="url(#p96e75384cc)" style="fill: none; stroke: #d62728; stroke-opacity: 0.7; stroke-width: 0.5; stroke-linecap: square"/>
   </g>
   <g id="patch_3">
    <path d="M 57.6 307.584 
L 57.6 41.472 
" style="fill: none; stroke: #000000; stroke-width: 0.8; stroke-linejoin: miter; stroke-linecap: square"/>
   </g>
   <g id="patch_4">
    <path d="M 414.72 307.584 
L 414.72 41.472 
" style="fill: none; stroke: #000000; stroke-width: 0.8; stroke-linejoin: miter; stroke-linecap: square"/>
   </g>
   <g id="patch_5">
    <path d="M 57.6 307.584 
L 414.72 307.584 
" style="fill: none; stroke: #000000; stroke-width: 0.8; stroke-linejoin: miter; stroke-linecap: square"/>
   </g>
   <g id="patch_6">
    <path d="M 57.6 41.472 
L 414.72 41.472 
" style="fill: none; stroke: #000000; stroke-width: 0.8; stroke-linejoin: miter; stroke-linecap: square"/>
   </g>
   <g id="text_14">
    <!-- isomorphism_trend_cci -->
    <g transform="translate(167.213437 35.472) scale(0.12 -0.12)">
     <defs>
      <path id="DejaVuSans-69" d="M 603 3500 
L 1178 3500 
L 1178 0 
L 603 0 
L 603 3500 
z
M 603 4863 
L 1178 4863 
L 1178 4134 
L 603 4134 
L 603 4863 
z
" transform="scale(0.015625)"/>
      <path id="DejaVuSans-73" d="M 2834 3397 
L 2834 2853 
Q 2591 2978 2328 3040 
Q 2066 3103 1784 3103 
Q 1356 3103 1142 2972 
Q 928 2841 928 2578 
Q 928 2378 1081 2264 
Q 1234 2150 1697 2047 
L 1894 2003 
Q 2506 1872 2764 1633 
Q 3022 1394 3022 966 
Q 3022 478 2636 193 
Q 2250 -91 1575 -91 
Q 1294 -91 989 -36 
Q 684 19 347 128 
L 347 722 
Q 666 556 975 473 
Q 1284 391 1588 391 
Q 1994 391 2212 530 
Q 2431 669 2431 922 
Q 2431 1156 2273 1281 
Q 2116 1406 1581 1522 
L 1381 1569 
Q 847 1681 609 1914 
Q 372 2147 372 2553 
Q 372 3047 722 3315 
Q 1072 3584 1716 3584 
Q 2034 3584 2315 3537 
Q 2597 3491 2834 3397 
z
" transform="scale(0.015625)"/>
      <path id="DejaVuSans-6f" d="M 1959 3097 
Q 1497 3097 1228 2736 
Q 959 2375 959 1747 
Q 959 1119 1226 758 
Q 1494 397 1959 397 
Q 2419 397 2687 759 
Q 2956 1122 2956 1747 
Q 2956 2369 2687 2733 
Q 2419 3097 1959 3097 
z
M 1959 3584 
Q 2709 3584 3137 3096 
Q 3566 2609 3566 1747 
Q 3566 888 3137 398 
Q 2709 -91 1959 -91 
Q 1206 -91 779 398 
Q 353 888 353 1747 
Q 353 2609 779 3096 
Q 1206 3584 1959 3584 
z
" transform="scale(0.015625)"/>
      <path id="DejaVuSans-6d" d="M 3328 2828 
Q 3544 3216 3844 3400 
Q 4144 3584 4550 3584 
Q 5097 3584 5394 3201 
Q 5691 2819 5691 2113 
L 5691 0 
L 5113 0 
L 5113 2094 
Q 5113 2597 4934 2840 
Q 4756 3084 4391 3084 
Q 3944 3084 3684 2787 
Q 3425 2491 3425 1978 
L 3425 0 
L 2847 0 
L 2847 2094 
Q 2847 2600 2669 2842 
Q 2491 3084 2119 3084 
Q 1678 3084 1418 2786 
Q 1159 2488 1159 1978 
L 1159 0 
L 581 0 
L 581 3500 
L 1159 3500 
L 1159 2956 
Q 1356 3278 1631 3431 
Q 1906 3584 2284 3584 
Q 2666 3584 2933 3390 
Q 3200 3197 3328 2828 
z
" transform="scale(0.015625)"/>
      <path id="DejaVuSans-72" d="M 2631 2963 
Q 2534 3019 2420 3045 
Q 2306 3072 2169 3072 
Q 1681 3072 1420 2755 
Q 1159 2438 1159 1844 
L 1159 0 
L 581 0 
L 581 3500 
L 1159 3500 
L 1159 2956 
Q 1341 3275 1631 3429 
Q 1922 3584 2338 3584 
Q 2397 3584 2469 3576 
Q 2541 3569 2628 3553 
L 2631 2963 
z
" transform="scale(0.015625)"/>
      <path id="DejaVuSans-70" d="M 1159 525 
L 1159 -1331 
L 581 -1331 
L 581 3500 
L 1159 3500 
L 1159 2969 
Q 1341 3281 1617 3432 
Q 1894 3584 2278 3584 
Q 2916 3584 3314 3078 
Q 3713 2572 3713 1747 
Q 3713 922 3314 415 
Q 2916 -91 2278 -91 
Q 1894 -91 1617 61 
Q 1341 213 1159 525 
z
M 3116 1747 
Q 3116 2381 2855 2742 
Q 2594 3103 2138 3103 
Q 1681 3103 1420 2742 
Q 1159 2381 1159 1747 
Q 1159 1113 1420 752 
Q 1681 391 2138 391 
Q 2594 391 2855 752 
Q 3116 1113 3116 1747 
z
" transform="scale(0.015625)"/>
      <path id="DejaVuSans-68" d="M 3513 2113 
L 3513 0 
L 2938 0 
L 2938 2094 
Q 2938 2591 2744 2837 
Q 2550 3084 2163 3084 
Q 1697 3084 1428 2787 
Q 1159 2491 1159 1978 
L 1159 0 
L 581 0 
L 581 4863 
L 1159 4863 
L 1159 2956 
Q 1366 3272 1645 3428 
Q 1925 3584 2291 3584 
Q 2894 3584 3203 3211 
Q 3513 2838 3513 2113 
z
" transform="scale(0.015625)"/>
      <path id="DejaVuSans-5f" d="M 3263 -1063 
L 3263 -1509 
L -63 -1509 
L -63 -1063 
L 3263 -1063 
z
" transform="scale(0.015625)"/>
      <path id="DejaVuSans-74" d="M 1172 4494 
L 1172 3500 
L 2356 3500 
L 2356 3053 
L 1172 3053 
L 1172 1153 
Q 1172 725 1289 603 
Q 1406 481 1766 481 
L 2356 481 
L 2356 0 
L 1766 0 
Q 1100 0 847 248 
Q 594 497 594 1153 
L 594 3053 
L 172 3053 
L 172 3500 
L 594 3500 
L 594 4494 
L 1172 4494 
z
" transform="scale(0.015625)"/>
      <path id="DejaVuSans-65" d="M 3597 1894 
L 3597 1613 
L 953 1613 
Q 991 1019 1311 708 
Q 1631 397 2203 397 
Q 2534 397 2845 478 
Q 3156 559 3463 722 
L 3463 178 
Q 3153 47 2828 -22 
Q 2503 -91 2169 -91 
Q 1331 -91 842 396 
Q 353 884 353 1716 
Q 353 2575 817 3079 
Q 1281 3584 2069 3584 
Q 2775 3584 3186 3129 
Q 3597 2675 3597 1894 
z
M 3022 2063 
Q 3016 2534 2758 2815 
Q 2500 3097 2075 3097 
Q 1594 3097 1305 2825 
Q 1016 2553 972 2059 
L 3022 2063 
z
" transform="scale(0.015625)"/>
      <path id="DejaVuSans-6e" d="M 3513 2113 
L 3513 0 
L 2938 0 
L 2938 2094 
Q 2938 2591 2744 2837 
Q 2550 3084 2163 3084 
Q 1697 3084 1428 2787 
Q 1159 2491 1159 1978 
L 1159 0 
L 581 0 
L 581 3500 
L 1159 3500 
L 1159 2956 
Q 1366 3272 1645 3428 
Q 1925 3584 2291 3584 
Q 2894 3584 3203 3211 
Q 3513 2838 3513 2113 
z
" transform="scale(0.015625)"/>
      <path id="DejaVuSans-64" d="M 2906 2969 
L 2906 4863 
L 3481 4863 
L 3481 0 
L 2906 0 
L 2906 525 
Q 2725 213 2448 61 
Q 2172 -91 1784 -91 
Q 1150 -91 751 415 
Q 353 922 353 1747 
Q 353 2572 751 3078 
Q 1150 3584 1784 3584 
Q 2172 3584 2448 3432 
Q 2725 3281 2906 2969 
z
M 947 1747 
Q 947 1113 1208 752 
Q 1469 391 1925 391 
Q 2381 391 2643 752 
Q 2906 1113 2906 1747 
Q 2906 2381 2643 2742 
Q 2381 3103 1925 3103 
Q 1469 3103 1208 2742 
Q 947 2381 947 1747 
z
" transform="scale(0.015625)"/>
      <path id="DejaVuSans-63" d="M 3122 3366 
L 3122 2828 
Q 2878 2963 2633 3030 
Q 2388 3097 2138 3097 
Q 1578 3097 1268 2742 
Q 959 2388 959 1747 
Q 959 1106 1268 751 
Q 1578 397 2138 397 
Q 2388 397 2633 464 
Q 2878 531 3122 666 
L 3122 134 
Q 2881 22 2623 -34 
Q 2366 -91 2075 -91 
Q 1284 -91 818 406 
Q 353 903 353 1747 
Q 353 2603 823 3093 
Q 1294 3584 2113 3584 
Q 2378 3584 2631 3529 
Q 2884 3475 3122 3366 
z
" transform="scale(0.015625)"/>
     </defs>
     <use xlink:href="#DejaVuSans-69"/>
     <use xlink:href="#DejaVuSans-73" x="27.783203"/>
     <use xlink:href="#DejaVuSans-6f" x="79.882812"/>
     <use xlink:href="#DejaVuSans-6d" x="141.064453"/>
     <use xlink:href="#DejaVuSans-6f" x="238.476562"/>
     <use xlink:href="#DejaVuSans-72" x="299.658203"/>
     <use xlink:href="#DejaVuSans-70" x="340.771484"/>
     <use xlink:href="#DejaVuSans-68" x="404.248047"/>
     <use xlink:href="#DejaVuSans-69" x="467.626953"/>
     <use xlink:href="#DejaVuSans-73" x="495.410156"/>
     <use xlink:href="#DejaVuSans-6d" x="547.509766"/>
     <use xlink:href="#DejaVuSans-5f" x="644.921875"/>
     <use xlink:href="#DejaVuSans-74" x="694.921875"/>
     <use xlink:href="#DejaVuSans-72" x="734.130859"/>
     <use xlink:href="#DejaVuSans-65" x="772.994141"/>
     <use xlink:href="#DejaVuSans-6e" x="834.517578"/>
     <use xlink:href="#DejaVuSans-64" x="897.896484"/>
     <use xlink:href="#DejaVuSans-5f" x="961.373047"/>
     <use xlink:href="#DejaVuSans-63" x="1011.373047"/>
     <use xlink:href="#DejaVuSans-63" x="1066.353516"/>
     <use xlink:href="#DejaVuSans-69" x="1121.333984"/>
    </g>
   </g>
   <g id="legend_1">
    <g id="patch_7">
     <path d="M 64.6 108.1845 
L 200.035938 108.1845 
Q 202.035938 108.1845 202.035938 106.1845 
L 202.035938 48.472 
Q 202.035938 46.472 200.035938 46.472 
L 64.6 46.472 
Q 62.6 46.472 62.6 48.472 
L 62.6 106.1845 
Q 62.6 108.1845 64.6 108.1845 
z
" style="fill: #ffffff; opacity: 0.8; stroke: #cccccc; stroke-linejoin: miter"/>
    </g>
    <g id="line2d_18">
     <path d="M 66.6 54.570438 
L 76.6 54.570438 
L 86.6 54.570438 
" style="fill: none; stroke: #1f77b4; stroke-opacity: 0.7; stroke-width: 0.5; stroke-linecap: square"/>
    </g>
    <g id="text_15">
     <!-- Positive predictions -->
     <g transform="translate(94.6 58.070438) scale(0.1 -0.1)">
      <defs>
       <path id="DejaVuSans-50" d="M 1259 4147 
L 1259 2394 
L 2053 2394 
Q 2494 2394 2734 2622 
Q 2975 2850 2975 3272 
Q 2975 3691 2734 3919 
Q 2494 4147 2053 4147 
L 1259 4147 
z
M 628 4666 
L 2053 4666 
Q 2838 4666 3239 4311 
Q 3641 3956 3641 3272 
Q 3641 2581 3239 2228 
Q 2838 1875 2053 1875 
L 1259 1875 
L 1259 0 
L 628 0 
L 628 4666 
z
" transform="scale(0.015625)"/>
       <path id="DejaVuSans-76" d="M 191 3500 
L 800 3500 
L 1894 563 
L 2988 3500 
L 3597 3500 
L 2284 0 
L 1503 0 
L 191 3500 
z
" transform="scale(0.015625)"/>
       <path id="DejaVuSans-20" transform="scale(0.015625)"/>
      </defs>
      <use xlink:href="#DejaVuSans-50"/>
      <use xlink:href="#DejaVuSans-6f" x="56.677734"/>
      <use xlink:href="#DejaVuSans-73" x="117.859375"/>
      <use xlink:href="#DejaVuSans-69" x="169.958984"/>
      <use xlink:href="#DejaVuSans-74" x="197.742188"/>
      <use xlink:href="#DejaVuSans-69" x="236.951172"/>
      <use xlink:href="#DejaVuSans-76" x="264.734375"/>
      <use xlink:href="#DejaVuSans-65" x="323.914062"/>
      <use xlink:href="#DejaVuSans-20" x="385.4375"/>
      <use xlink:href="#DejaVuSans-70" x="417.224609"/>
      <use xlink:href="#DejaVuSans-72" x="480.701172"/>
      <use xlink:href="#DejaVuSans-65" x="519.564453"/>
      <use xlink:href="#DejaVuSans-64" x="581.087891"/>
      <use xlink:href="#DejaVuSans-69" x="644.564453"/>
      <use xlink:href="#DejaVuSans-63" x="672.347656"/>
      <use xlink:href="#DejaVuSans-74" x="727.328125"/>
      <use xlink:href="#DejaVuSans-69" x="766.537109"/>
      <use xlink:href="#DejaVuSans-6f" x="794.320312"/>
      <use xlink:href="#DejaVuSans-6e" x="855.501953"/>
      <use xlink:href="#DejaVuSans-73" x="918.880859"/>
     </g>
    </g>
    <g id="line2d_19">
     <path d="M 66.6 69.248563 
L 76.6 69.248563 
L 86.6 69.248563 
" style="fill: none; stroke: #ff7f0e; stroke-opacity: 0.7; stroke-width: 0.5; stroke-linecap: square"/>
    </g>
    <g id="text_16">
     <!-- Negative predictions -->
     <g transform="translate(94.6 72.748563) scale(0.1 -0.1)">
      <defs>
       <path id="DejaVuSans-4e" d="M 628 4666 
L 1478 4666 
L 3547 763 
L 3547 4666 
L 4159 4666 
L 4159 0 
L 3309 0 
L 1241 3903 
L 1241 0 
L 628 0 
L 628 4666 
z
" transform="scale(0.015625)"/>
       <path id="DejaVuSans-67" d="M 2906 1791 
Q 2906 2416 2648 2759 
Q 2391 3103 1925 3103 
Q 1463 3103 1205 2759 
Q 947 2416 947 1791 
Q 947 1169 1205 825 
Q 1463 481 1925 481 
Q 2391 481 2648 825 
Q 2906 1169 2906 1791 
z
M 3481 434 
Q 3481 -459 3084 -895 
Q 2688 -1331 1869 -1331 
Q 1566 -1331 1297 -1286 
Q 1028 -1241 775 -1147 
L 775 -588 
Q 1028 -725 1275 -790 
Q 1522 -856 1778 -856 
Q 2344 -856 2625 -561 
Q 2906 -266 2906 331 
L 2906 616 
Q 2728 306 2450 153 
Q 2172 0 1784 0 
Q 1141 0 747 490 
Q 353 981 353 1791 
Q 353 2603 747 3093 
Q 1141 3584 1784 3584 
Q 2172 3584 2450 3431 
Q 2728 3278 2906 2969 
L 2906 3500 
L 3481 3500 
L 3481 434 
z
" transform="scale(0.015625)"/>
       <path id="DejaVuSans-61" d="M 2194 1759 
Q 1497 1759 1228 1600 
Q 959 1441 959 1056 
Q 959 750 1161 570 
Q 1363 391 1709 391 
Q 2188 391 2477 730 
Q 2766 1069 2766 1631 
L 2766 1759 
L 2194 1759 
z
M 3341 1997 
L 3341 0 
L 2766 0 
L 2766 531 
Q 2569 213 2275 61 
Q 1981 -91 1556 -91 
Q 1019 -91 701 211 
Q 384 513 384 1019 
Q 384 1609 779 1909 
Q 1175 2209 1959 2209 
L 2766 2209 
L 2766 2266 
Q 2766 2663 2505 2880 
Q 2244 3097 1772 3097 
Q 1472 3097 1187 3025 
Q 903 2953 641 2809 
L 641 3341 
Q 956 3463 1253 3523 
Q 1550 3584 1831 3584 
Q 2591 3584 2966 3190 
Q 3341 2797 3341 1997 
z
" transform="scale(0.015625)"/>
      </defs>
      <use xlink:href="#DejaVuSans-4e"/>
      <use xlink:href="#DejaVuSans-65" x="74.804688"/>
      <use xlink:href="#DejaVuSans-67" x="136.328125"/>
      <use xlink:href="#DejaVuSans-61" x="199.804688"/>
      <use xlink:href="#DejaVuSans-74" x="261.083984"/>
      <use xlink:href="#DejaVuSans-69" x="300.292969"/>
      <use xlink:href="#DejaVuSans-76" x="328.076172"/>
      <use xlink:href="#DejaVuSans-65" x="387.255859"/>
      <use xlink:href="#DejaVuSans-20" x="448.779297"/>
      <use xlink:href="#DejaVuSans-70" x="480.566406"/>
      <use xlink:href="#DejaVuSans-72" x="544.042969"/>
      <use xlink:href="#DejaVuSans-65" x="582.90625"/>
      <use xlink:href="#DejaVuSans-64" x="644.429688"/>
      <use xlink:href="#DejaVuSans-69" x="707.90625"/>
      <use xlink:href="#DejaVuSans-63" x="735.689453"/>
      <use xlink:href="#DejaVuSans-74" x="790.669922"/>
      <use xlink:href="#DejaVuSans-69" x="829.878906"/>
      <use xlink:href="#DejaVuSans-6f" x="857.662109"/>
      <use xlink:href="#DejaVuSans-6e" x="918.84375"/>
      <use xlink:href="#DejaVuSans-73" x="982.222656"/>
     </g>
    </g>
    <g id="line2d_20">
     <path d="M 66.6 83.926688 
L 76.6 83.926688 
L 86.6 83.926688 
" style="fill: none; stroke: #2ca02c; stroke-opacity: 0.7; stroke-width: 0.5; stroke-linecap: square"/>
    </g>
    <g id="text_17">
     <!-- Average predictions -->
     <g transform="translate(94.6 87.426688) scale(0.1 -0.1)">
      <defs>
       <path id="DejaVuSans-41" d="M 2188 4044 
L 1331 1722 
L 3047 1722 
L 2188 4044 
z
M 1831 4666 
L 2547 4666 
L 4325 0 
L 3669 0 
L 3244 1197 
L 1141 1197 
L 716 0 
L 50 0 
L 1831 4666 
z
" transform="scale(0.015625)"/>
      </defs>
      <use xlink:href="#DejaVuSans-41"/>
      <use xlink:href="#DejaVuSans-76" x="62.533203"/>
      <use xlink:href="#DejaVuSans-65" x="121.712891"/>
      <use xlink:href="#DejaVuSans-72" x="183.236328"/>
      <use xlink:href="#DejaVuSans-61" x="224.349609"/>
      <use xlink:href="#DejaVuSans-67" x="285.628906"/>
      <use xlink:href="#DejaVuSans-65" x="349.105469"/>
      <use xlink:href="#DejaVuSans-20" x="410.628906"/>
      <use xlink:href="#DejaVuSans-70" x="442.416016"/>
      <use xlink:href="#DejaVuSans-72" x="505.892578"/>
      <use xlink:href="#DejaVuSans-65" x="544.755859"/>
      <use xlink:href="#DejaVuSans-64" x="606.279297"/>
      <use xlink:href="#DejaVuSans-69" x="669.755859"/>
      <use xlink:href="#DejaVuSans-63" x="697.539062"/>
      <use xlink:href="#DejaVuSans-74" x="752.519531"/>
      <use xlink:href="#DejaVuSans-69" x="791.728516"/>
      <use xlink:href="#DejaVuSans-6f" x="819.511719"/>
      <use xlink:href="#DejaVuSans-6e" x="880.693359"/>
      <use xlink:href="#DejaVuSans-73" x="944.072266"/>
     </g>
    </g>
    <g id="line2d_21">
     <path d="M 66.6 98.604813 
L 76.6 98.604813 
L 86.6 98.604813 
" style="fill: none; stroke: #d62728; stroke-opacity: 0.7; stroke-width: 0.5; stroke-linecap: square"/>
    </g>
    <g id="text_18">
     <!-- Actual values -->
     <g transform="translate(94.6 102.104813) scale(0.1 -0.1)">
      <defs>
       <path id="DejaVuSans-75" d="M 544 1381 
L 544 3500 
L 1119 3500 
L 1119 1403 
Q 1119 906 1312 657 
Q 1506 409 1894 409 
Q 2359 409 2629 706 
Q 2900 1003 2900 1516 
L 2900 3500 
L 3475 3500 
L 3475 0 
L 2900 0 
L 2900 538 
Q 2691 219 2414 64 
Q 2138 -91 1772 -91 
Q 1169 -91 856 284 
Q 544 659 544 1381 
z
M 1991 3584 
L 1991 3584 
z
" transform="scale(0.015625)"/>
       <path id="DejaVuSans-6c" d="M 603 4863 
L 1178 4863 
L 1178 0 
L 603 0 
L 603 4863 
z
" transform="scale(0.015625)"/>
      </defs>
      <use xlink:href="#DejaVuSans-41"/>
      <use xlink:href="#DejaVuSans-63" x="66.658203"/>
      <use xlink:href="#DejaVuSans-74" x="121.638672"/>
      <use xlink:href="#DejaVuSans-75" x="160.847656"/>
      <use xlink:href="#DejaVuSans-61" x="224.226562"/>
      <use xlink:href="#DejaVuSans-6c" x="285.505859"/>
      <use xlink:href="#DejaVuSans-20" x="313.289062"/>
      <use xlink:href="#DejaVuSans-76" x="345.076172"/>
      <use xlink:href="#DejaVuSans-61" x="404.255859"/>
      <use xlink:href="#DejaVuSans-6c" x="465.535156"/>
      <use xlink:href="#DejaVuSans-75" x="493.318359"/>
      <use xlink:href="#DejaVuSans-65" x="556.697266"/>
      <use xlink:href="#DejaVuSans-73" x="618.220703"/>
     </g>
    </g>
   </g>
  </g>
 </g>
 <defs>
  <clipPath id="p96e75384cc">
   <rect x="57.6" y="41.472" width="357.12" height="266.112"/>
  </clipPath>
 </defs>
</svg>
