<?xml version="1.0" encoding="utf-8" standalone="no"?>
<!DOCTYPE svg PUBLIC "-//W3C//DTD SVG 1.1//EN"
  "http://www.w3.org/Graphics/SVG/1.1/DTD/svg11.dtd">
<svg xmlns:xlink="http://www.w3.org/1999/xlink" width="460.8pt" height="345.6pt" viewBox="0 0 460.8 345.6" xmlns="http://www.w3.org/2000/svg" version="1.1">
 <metadata>
  <rdf:RDF xmlns:dc="http://purl.org/dc/elements/1.1/" xmlns:cc="http://creativecommons.org/ns#" xmlns:rdf="http://www.w3.org/1999/02/22-rdf-syntax-ns#">
   <cc:Work>
    <dc:type rdf:resource="http://purl.org/dc/dcmitype/StillImage"/>
    <dc:date>2024-07-15T13:22:20.475816</dc:date>
    <dc:format>image/svg+xml</dc:format>
    <dc:creator>
     <cc:Agent>
      <dc:title>Matplotlib v3.9.0, https://matplotlib.org/</dc:title>
     </cc:Agent>
    </dc:creator>
   </cc:Work>
  </rdf:RDF>
 </metadata>
 <defs>
  <style type="text/css">*{stroke-linejoin: round; stroke-linecap: butt}</style>
 </defs>
 <g id="figure_1">
  <g id="patch_1">
   <path d="M 0 345.6 
L 460.8 345.6 
L 460.8 0 
L 0 0 
z
" style="fill: #ffffff"/>
  </g>
  <g id="axes_1">
   <g id="patch_2">
    <path d="M 57.6 307.584 
L 414.72 307.584 
L 414.72 41.472 
L 57.6 41.472 
z
" style="fill: #ffffff"/>
   </g>
   <g id="matplotlib.axis_1">
    <g id="xtick_1">
     <g id="line2d_1">
      <defs>
       <path id="md9477e9967" d="M 0 0 
L 0 3.5 
" style="stroke: #000000; stroke-width: 0.8"/>
      </defs>
      <g>
       <use xlink:href="#md9477e9967" x="73.832727" y="307.584" style="stroke: #000000; stroke-width: 0.8"/>
      </g>
     </g>
     <g id="text_1">
      <!-- 0 -->
      <g transform="translate(70.651477 322.182437) scale(0.1 -0.1)">
       <defs>
        <path id="DejaVuSans-30" d="M 2034 4250 
Q 1547 4250 1301 3770 
Q 1056 3291 1056 2328 
Q 1056 1369 1301 889 
Q 1547 409 2034 409 
Q 2525 409 2770 889 
Q 3016 1369 3016 2328 
Q 3016 3291 2770 3770 
Q 2525 4250 2034 4250 
z
M 2034 4750 
Q 2819 4750 3233 4129 
Q 3647 3509 3647 2328 
Q 3647 1150 3233 529 
Q 2819 -91 2034 -91 
Q 1250 -91 836 529 
Q 422 1150 422 2328 
Q 422 3509 836 4129 
Q 1250 4750 2034 4750 
z
" transform="scale(0.015625)"/>
       </defs>
       <use xlink:href="#DejaVuSans-30"/>
      </g>
     </g>
    </g>
    <g id="xtick_2">
     <g id="line2d_2">
      <g>
       <use xlink:href="#md9477e9967" x="149.333784" y="307.584" style="stroke: #000000; stroke-width: 0.8"/>
      </g>
     </g>
     <g id="text_2">
      <!-- 50 -->
      <g transform="translate(142.971284 322.182437) scale(0.1 -0.1)">
       <defs>
        <path id="DejaVuSans-35" d="M 691 4666 
L 3169 4666 
L 3169 4134 
L 1269 4134 
L 1269 2991 
Q 1406 3038 1543 3061 
Q 1681 3084 1819 3084 
Q 2600 3084 3056 2656 
Q 3513 2228 3513 1497 
Q 3513 744 3044 326 
Q 2575 -91 1722 -91 
Q 1428 -91 1123 -41 
Q 819 9 494 109 
L 494 744 
Q 775 591 1075 516 
Q 1375 441 1709 441 
Q 2250 441 2565 725 
Q 2881 1009 2881 1497 
Q 2881 1984 2565 2268 
Q 2250 2553 1709 2553 
Q 1456 2553 1204 2497 
Q 953 2441 691 2322 
L 691 4666 
z
" transform="scale(0.015625)"/>
       </defs>
       <use xlink:href="#DejaVuSans-35"/>
       <use xlink:href="#DejaVuSans-30" x="63.623047"/>
      </g>
     </g>
    </g>
    <g id="xtick_3">
     <g id="line2d_3">
      <g>
       <use xlink:href="#md9477e9967" x="224.834841" y="307.584" style="stroke: #000000; stroke-width: 0.8"/>
      </g>
     </g>
     <g id="text_3">
      <!-- 100 -->
      <g transform="translate(215.291091 322.182437) scale(0.1 -0.1)">
       <defs>
        <path id="DejaVuSans-31" d="M 794 531 
L 1825 531 
L 1825 4091 
L 703 3866 
L 703 4441 
L 1819 4666 
L 2450 4666 
L 2450 531 
L 3481 531 
L 3481 0 
L 794 0 
L 794 531 
z
" transform="scale(0.015625)"/>
       </defs>
       <use xlink:href="#DejaVuSans-31"/>
       <use xlink:href="#DejaVuSans-30" x="63.623047"/>
       <use xlink:href="#DejaVuSans-30" x="127.246094"/>
      </g>
     </g>
    </g>
    <g id="xtick_4">
     <g id="line2d_4">
      <g>
       <use xlink:href="#md9477e9967" x="300.335899" y="307.584" style="stroke: #000000; stroke-width: 0.8"/>
      </g>
     </g>
     <g id="text_4">
      <!-- 150 -->
      <g transform="translate(290.792149 322.182437) scale(0.1 -0.1)">
       <use xlink:href="#DejaVuSans-31"/>
       <use xlink:href="#DejaVuSans-35" x="63.623047"/>
       <use xlink:href="#DejaVuSans-30" x="127.246094"/>
      </g>
     </g>
    </g>
    <g id="xtick_5">
     <g id="line2d_5">
      <g>
       <use xlink:href="#md9477e9967" x="375.836956" y="307.584" style="stroke: #000000; stroke-width: 0.8"/>
      </g>
     </g>
     <g id="text_5">
      <!-- 200 -->
      <g transform="translate(366.293206 322.182437) scale(0.1 -0.1)">
       <defs>
        <path id="DejaVuSans-32" d="M 1228 531 
L 3431 531 
L 3431 0 
L 469 0 
L 469 531 
Q 828 903 1448 1529 
Q 2069 2156 2228 2338 
Q 2531 2678 2651 2914 
Q 2772 3150 2772 3378 
Q 2772 3750 2511 3984 
Q 2250 4219 1831 4219 
Q 1534 4219 1204 4116 
Q 875 4013 500 3803 
L 500 4441 
Q 881 4594 1212 4672 
Q 1544 4750 1819 4750 
Q 2544 4750 2975 4387 
Q 3406 4025 3406 3419 
Q 3406 3131 3298 2873 
Q 3191 2616 2906 2266 
Q 2828 2175 2409 1742 
Q 1991 1309 1228 531 
z
" transform="scale(0.015625)"/>
       </defs>
       <use xlink:href="#DejaVuSans-32"/>
       <use xlink:href="#DejaVuSans-30" x="63.623047"/>
       <use xlink:href="#DejaVuSans-30" x="127.246094"/>
      </g>
     </g>
    </g>
   </g>
   <g id="matplotlib.axis_2">
    <g id="ytick_1">
     <g id="line2d_6">
      <defs>
       <path id="m199c77273c" d="M 0 0 
L -3.5 0 
" style="stroke: #000000; stroke-width: 0.8"/>
      </defs>
      <g>
       <use xlink:href="#m199c77273c" x="57.6" y="276.753117" style="stroke: #000000; stroke-width: 0.8"/>
      </g>
     </g>
     <g id="text_6">
      <!-- −2000 -->
      <g transform="translate(16.770313 280.552336) scale(0.1 -0.1)">
       <defs>
        <path id="DejaVuSans-2212" d="M 678 2272 
L 4684 2272 
L 4684 1741 
L 678 1741 
L 678 2272 
z
" transform="scale(0.015625)"/>
       </defs>
       <use xlink:href="#DejaVuSans-2212"/>
       <use xlink:href="#DejaVuSans-32" x="83.789062"/>
       <use xlink:href="#DejaVuSans-30" x="147.412109"/>
       <use xlink:href="#DejaVuSans-30" x="211.035156"/>
       <use xlink:href="#DejaVuSans-30" x="274.658203"/>
      </g>
     </g>
    </g>
    <g id="ytick_2">
     <g id="line2d_7">
      <g>
       <use xlink:href="#m199c77273c" x="57.6" y="240.06319" style="stroke: #000000; stroke-width: 0.8"/>
      </g>
     </g>
     <g id="text_7">
      <!-- −1500 -->
      <g transform="translate(16.770313 243.862409) scale(0.1 -0.1)">
       <use xlink:href="#DejaVuSans-2212"/>
       <use xlink:href="#DejaVuSans-31" x="83.789062"/>
       <use xlink:href="#DejaVuSans-35" x="147.412109"/>
       <use xlink:href="#DejaVuSans-30" x="211.035156"/>
       <use xlink:href="#DejaVuSans-30" x="274.658203"/>
      </g>
     </g>
    </g>
    <g id="ytick_3">
     <g id="line2d_8">
      <g>
       <use xlink:href="#m199c77273c" x="57.6" y="203.373264" style="stroke: #000000; stroke-width: 0.8"/>
      </g>
     </g>
     <g id="text_8">
      <!-- −1000 -->
      <g transform="translate(16.770313 207.172482) scale(0.1 -0.1)">
       <use xlink:href="#DejaVuSans-2212"/>
       <use xlink:href="#DejaVuSans-31" x="83.789062"/>
       <use xlink:href="#DejaVuSans-30" x="147.412109"/>
       <use xlink:href="#DejaVuSans-30" x="211.035156"/>
       <use xlink:href="#DejaVuSans-30" x="274.658203"/>
      </g>
     </g>
    </g>
    <g id="ytick_4">
     <g id="line2d_9">
      <g>
       <use xlink:href="#m199c77273c" x="57.6" y="166.683337" style="stroke: #000000; stroke-width: 0.8"/>
      </g>
     </g>
     <g id="text_9">
      <!-- −500 -->
      <g transform="translate(23.132812 170.482556) scale(0.1 -0.1)">
       <use xlink:href="#DejaVuSans-2212"/>
       <use xlink:href="#DejaVuSans-35" x="83.789062"/>
       <use xlink:href="#DejaVuSans-30" x="147.412109"/>
       <use xlink:href="#DejaVuSans-30" x="211.035156"/>
      </g>
     </g>
    </g>
    <g id="ytick_5">
     <g id="line2d_10">
      <g>
       <use xlink:href="#m199c77273c" x="57.6" y="129.99341" style="stroke: #000000; stroke-width: 0.8"/>
      </g>
     </g>
     <g id="text_10">
      <!-- 0 -->
      <g transform="translate(44.2375 133.792629) scale(0.1 -0.1)">
       <use xlink:href="#DejaVuSans-30"/>
      </g>
     </g>
    </g>
    <g id="ytick_6">
     <g id="line2d_11">
      <g>
       <use xlink:href="#m199c77273c" x="57.6" y="93.303484" style="stroke: #000000; stroke-width: 0.8"/>
      </g>
     </g>
     <g id="text_11">
      <!-- 500 -->
      <g transform="translate(31.5125 97.102703) scale(0.1 -0.1)">
       <use xlink:href="#DejaVuSans-35"/>
       <use xlink:href="#DejaVuSans-30" x="63.623047"/>
       <use xlink:href="#DejaVuSans-30" x="127.246094"/>
      </g>
     </g>
    </g>
    <g id="ytick_7">
     <g id="line2d_12">
      <g>
       <use xlink:href="#m199c77273c" x="57.6" y="56.613557" style="stroke: #000000; stroke-width: 0.8"/>
      </g>
     </g>
     <g id="text_12">
      <!-- 1000 -->
      <g transform="translate(25.15 60.412776) scale(0.1 -0.1)">
       <use xlink:href="#DejaVuSans-31"/>
       <use xlink:href="#DejaVuSans-30" x="63.623047"/>
       <use xlink:href="#DejaVuSans-30" x="127.246094"/>
       <use xlink:href="#DejaVuSans-30" x="190.869141"/>
      </g>
     </g>
    </g>
   </g>
   <g id="line2d_13">
    <path d="M 73.832727 129.088392 
L 75.342748 131.950207 
L 76.85277 132.904145 
L 81.382833 128.330134 
L 82.892854 127.853165 
L 84.402875 126.801387 
L 85.912896 127.740649 
L 87.422918 130.785913 
L 88.932939 137.0232 
L 90.44296 136.949821 
L 91.952981 134.063546 
L 93.463002 130.871523 
L 94.973023 131.766757 
L 96.483044 129.785501 
L 97.993066 130.666059 
L 99.503087 132.635085 
L 101.013108 134.313649 
L 102.523129 136.280229 
L 104.03315 136.289402 
L 105.543171 135.867468 
L 107.053192 133.225793 
L 110.073235 129.635072 
L 111.583256 128.950194 
L 113.093277 128.546604 
L 114.603298 127.115697 
L 117.62334 123.652867 
L 120.643383 121.00333 
L 122.153404 118.838624 
L 123.663425 117.354721 
L 125.173446 116.115417 
L 126.683467 115.173708 
L 128.193488 117.485174 
L 129.70351 118.512492 
L 131.213531 116.355124 
L 132.723552 115.890385 
L 134.233573 114.611479 
L 135.743594 113.112433 
L 137.253615 111.173109 
L 138.763636 109.967583 
L 140.273658 108.619228 
L 141.783679 107.857912 
L 143.2937 108.940265 
L 144.803721 109.160404 
L 146.313742 110.848141 
L 147.823763 113.636575 
L 149.333784 115.984731 
L 150.843805 116.35163 
L 152.353827 115.434382 
L 153.863848 114.260304 
L 156.88389 113.609203 
L 158.393911 111.050081 
L 159.903932 112.444298 
L 161.413953 114.498934 
L 162.923975 113.985275 
L 164.433996 112.004019 
L 165.944017 109.394958 
L 168.964059 105.535177 
L 170.47408 103.069614 
L 171.984101 102.805447 
L 173.494123 101.989096 
L 175.004144 101.702915 
L 176.514165 101.042496 
L 178.024186 99.755013 
L 179.534207 96.966579 
L 181.044228 96.226665 
L 182.554249 97.555656 
L 184.064271 97.555656 
L 187.084313 101.532145 
L 188.594334 102.500759 
L 190.104355 100.372743 
L 191.614376 99.15864 
L 194.634419 94.584629 
L 196.14444 94.595919 
L 197.654461 91.807484 
L 199.164482 92.455673 
L 200.674503 94.583689 
L 202.184524 95.904526 
L 203.694545 97.794057 
L 205.204567 96.032941 
L 206.714588 93.64476 
L 208.224609 91.969253 
L 209.73463 90.471081 
L 211.244651 91.195707 
L 212.754672 93.690622 
L 214.264693 93.235667 
L 215.774715 93.709301 
L 217.284736 93.753329 
L 218.794757 90.8854 
L 220.304778 89.779057 
L 221.814799 87.306721 
L 223.32482 88.063097 
L 224.834841 87.863924 
L 226.344863 87.37123 
L 227.854884 86.511638 
L 229.364905 83.886897 
L 230.874926 82.623715 
L 232.384947 81.575431 
L 233.894968 79.789855 
L 235.404989 80.058914 
L 236.915011 85.366724 
L 239.935053 81.788045 
L 241.445074 80.393828 
L 242.955095 79.825134 
L 244.465116 77.418275 
L 245.975137 80.737302 
L 247.485159 79.749496 
L 248.99518 80.483295 
L 250.505201 78.053606 
L 252.015222 78.151446 
L 253.525243 77.362613 
L 255.035264 80.462911 
L 256.545285 80.609671 
L 258.055307 78.139216 
L 259.565328 75.309505 
L 261.075349 73.140213 
L 262.58537 69.627153 
L 264.095391 68.979684 
L 265.605412 72.451468 
L 267.115433 70.192417 
L 270.135476 66.896438 
L 271.645497 68.56583 
L 273.155518 67.543404 
L 274.665539 68.008143 
L 276.17556 67.290069 
L 277.685581 67.212103 
L 279.195603 67.69641 
L 280.705624 66.400032 
L 282.215645 67.280591 
L 283.725666 68.709052 
L 285.235687 72.622644 
L 286.745708 77.979373 
L 288.255729 77.025435 
L 289.765751 76.878675 
L 291.275772 74.82404 
L 292.785793 79.153451 
L 294.295814 85.977777 
L 295.805835 82.492234 
L 297.315856 81.861168 
L 298.825877 79.235217 
L 300.335899 76.270671 
L 301.84592 74.371967 
L 303.355941 73.152027 
L 304.865962 75.469608 
L 306.375983 77.151229 
L 307.886004 77.100428 
L 309.396025 75.170538 
L 310.906047 77.020758 
L 312.416068 81.38686 
L 313.926089 83.221356 
L 315.43611 89.091744 
L 316.946131 85.679581 
L 318.456152 85.93641 
L 319.966173 85.731995 
L 321.476195 85.952135 
L 322.986216 83.853471 
L 324.496237 81.372315 
L 326.006258 79.991047 
L 327.516279 79.434223 
L 329.0263 78.52309 
L 330.536321 79.139481 
L 332.046342 86.337377 
L 333.556364 83.732392 
L 335.066385 77.385035 
L 336.576406 74.397427 
L 338.086427 72.196031 
L 339.596448 68.223036 
L 341.106469 66.482886 
L 342.61649 69.921256 
L 344.126512 68.56897 
L 345.636533 67.635998 
L 347.146554 68.680249 
L 348.656575 69.955224 
L 350.166596 67.465201 
L 351.676617 68.513485 
L 354.69666 63.548115 
L 356.206681 61.520996 
L 357.716702 60.44965 
L 359.226723 58.786374 
L 360.736744 58.443934 
L 362.246765 60.483894 
L 365.266808 72.497807 
L 366.776829 82.147258 
L 368.28685 85.81625 
L 369.796871 83.101196 
L 371.306892 76.857793 
L 372.816913 74.690265 
L 374.326934 71.218834 
L 375.836956 68.99486 
L 377.346977 66.467332 
L 378.856998 67.34789 
L 380.367019 65.72436 
L 381.87704 62.491061 
L 383.387061 59.843271 
L 386.407104 58.59158 
L 387.917125 56.995568 
L 389.427146 58.090151 
L 390.937167 58.809274 
L 392.447188 57.918931 
L 395.46723 53.568 
L 396.977252 57.29989 
L 398.487273 59.929334 
L 398.487273 59.929334 
" clip-path="url(#pfd8a47d4ac)" style="fill: none; stroke: #1f77b4; stroke-opacity: 0.7; stroke-width: 1.5; stroke-linecap: square"/>
   </g>
   <g id="line2d_14">
    <path d="M 73.832727 129.99341 
L 75.342748 132.987308 
L 76.85277 133.779811 
L 78.362791 134.44023 
L 79.872812 134.264118 
L 81.382833 133.071695 
L 82.892854 132.460196 
L 84.402875 131.530718 
L 85.912896 132.935418 
L 87.422918 137.470293 
L 88.932939 143.744271 
L 90.44296 142.00412 
L 91.952981 138.936842 
L 93.463002 133.702413 
L 94.973023 134.979222 
L 96.483044 135.698345 
L 97.993066 136.872422 
L 99.503087 139.367337 
L 101.013108 141.333917 
L 102.523129 143.633153 
L 105.543171 144.648241 
L 107.053192 144.574861 
L 108.563214 144.927084 
L 110.073235 143.826386 
L 111.583256 143.8484 
L 113.093277 144.508819 
L 114.603298 143.963711 
L 116.113319 143.009773 
L 117.62334 141.175277 
L 119.133362 140.368099 
L 120.643383 140.294719 
L 122.153404 139.59761 
L 123.663425 137.029315 
L 126.683467 135.671788 
L 128.193488 137.139385 
L 129.70351 138.812446 
L 131.213531 137.491608 
L 132.723552 138.714606 
L 134.233573 139.360349 
L 135.743594 139.482648 
L 137.253615 139.299199 
L 140.273658 139.812858 
L 141.783679 139.445959 
L 143.2937 141.119019 
L 144.803721 143.012219 
L 146.313742 144.222987 
L 147.823763 146.595602 
L 150.843805 150.823679 
L 152.353827 151.871963 
L 153.863848 151.138165 
L 155.373869 152.253538 
L 156.88389 151.829566 
L 158.393911 150.949008 
L 159.903932 153.150403 
L 161.413953 155.997542 
L 162.923975 157.269459 
L 164.433996 156.666114 
L 165.944017 154.892767 
L 167.454038 154.085589 
L 168.964059 152.806683 
L 170.47408 151.149521 
L 171.984101 151.5898 
L 173.494123 151.208225 
L 175.004144 151.580366 
L 176.514165 151.776045 
L 178.024186 152.509844 
L 179.534207 151.115626 
L 181.044228 150.528588 
L 182.554249 152.530809 
L 184.064271 152.961916 
L 185.574292 155.466003 
L 187.084313 157.162913 
L 188.594334 157.643958 
L 190.104355 156.71448 
L 191.614376 157.261494 
L 193.124397 156.204824 
L 194.634419 154.186878 
L 196.14444 153.453079 
L 197.654461 153.315492 
L 199.164482 154.36727 
L 200.674503 157.106784 
L 202.184524 157.957991 
L 203.694545 160.075524 
L 205.204567 160.427747 
L 206.714588 159.03353 
L 208.224609 158.363939 
L 209.73463 158.572789 
L 211.244651 160.68508 
L 212.754672 163.791494 
L 214.264693 163.431933 
L 215.774715 165.156359 
L 217.284736 165.552611 
L 218.794757 163.644734 
L 220.304778 164.020806 
L 221.814799 162.938453 
L 223.32482 164.886355 
L 224.834841 165.429366 
L 226.344863 166.656811 
L 227.854884 166.490038 
L 229.364905 165.593173 
L 230.874926 164.983556 
L 232.384947 164.066308 
L 233.894968 162.323536 
L 235.404989 163.350854 
L 236.915011 169.690874 
L 238.425032 168.043163 
L 239.935053 168.316669 
L 241.445074 168.463429 
L 242.955095 169.123848 
L 244.465116 167.362731 
L 245.975137 172.173188 
L 247.485159 172.299935 
L 248.99518 175.351314 
L 250.505201 173.853142 
L 252.015222 175.891471 
L 253.525243 177.590497 
L 255.035264 183.057296 
L 256.545285 182.213428 
L 258.055307 182.159616 
L 259.565328 181.097539 
L 261.075349 180.216981 
L 262.58537 178.992696 
L 264.095391 178.709659 
L 265.605412 183.322107 
L 267.115433 182.343709 
L 270.135476 184.099934 
L 271.645497 187.607491 
L 273.155518 188.082014 
L 274.665539 191.095174 
L 276.17556 191.980319 
L 279.195603 195.78528 
L 280.705624 195.043328 
L 283.725666 200.719475 
L 285.235687 207.849551 
L 286.745708 212.337952 
L 288.255729 215.636184 
L 289.765751 218.083926 
L 291.275772 218.23633 
L 292.785793 221.981638 
L 294.295814 230.139031 
L 295.805835 230.969382 
L 297.315856 230.841933 
L 298.825877 229.744171 
L 300.335899 227.836294 
L 301.84592 226.643872 
L 303.355941 225.616554 
L 304.865962 227.481265 
L 306.375983 230.882637 
L 307.886004 232.187168 
L 309.396025 231.957245 
L 310.906047 234.019605 
L 312.416068 238.741814 
L 313.926089 240.413244 
L 315.43611 244.669276 
L 316.946131 246.055339 
L 318.456152 246.348859 
L 319.966173 248.061055 
L 321.476195 247.508261 
L 322.986216 247.320408 
L 324.496237 245.150461 
L 326.006258 244.049763 
L 327.516279 244.416663 
L 329.0263 243.29762 
L 330.536321 244.163502 
L 332.046342 253.215123 
L 333.556364 255.012929 
L 335.066385 253.443416 
L 336.576406 252.53665 
L 338.086427 251.905584 
L 339.596448 249.376801 
L 341.106469 247.468925 
L 342.61649 251.093889 
L 344.126512 251.119788 
L 345.636533 252.831985 
L 347.146554 256.598817 
L 348.656575 259.998751 
L 350.166596 259.697507 
L 351.676617 262.742771 
L 353.186638 262.767231 
L 354.69666 262.437021 
L 356.206681 260.594801 
L 357.716702 260.240132 
L 359.226723 259.000827 
L 360.736744 259.514486 
L 362.246765 262.986512 
L 363.756786 270.981247 
L 365.266808 275.733466 
L 366.776829 289.867824 
L 368.28685 294.53618 
L 369.796871 292.608291 
L 371.306892 287.883757 
L 372.816913 286.349769 
L 374.326934 284.295133 
L 375.836956 282.964512 
L 377.346977 282.142658 
L 378.856998 284.833252 
L 380.367019 285.370084 
L 383.387061 282.870277 
L 384.897082 283.54642 
L 386.407104 284.026211 
L 387.917125 282.794478 
L 389.427146 285.123323 
L 390.937167 286.760852 
L 392.447188 287.802846 
L 393.957209 287.457529 
L 395.46723 286.830465 
L 396.977252 292.015974 
L 398.487273 295.488 
L 398.487273 295.488 
" clip-path="url(#pfd8a47d4ac)" style="fill: none; stroke: #ff7f0e; stroke-opacity: 0.7; stroke-width: 1.5; stroke-linecap: square"/>
   </g>
   <g id="line2d_15">
    <path d="M 73.832727 129.540901 
L 75.342748 132.468757 
L 76.85277 133.341978 
L 78.362791 132.889469 
L 79.872812 132.067614 
L 81.382833 130.700915 
L 82.892854 130.156681 
L 84.402875 129.166053 
L 85.912896 130.338034 
L 87.422918 134.128103 
L 88.932939 140.383736 
L 90.44296 139.47697 
L 91.952981 136.500194 
L 93.463002 132.286968 
L 94.973023 133.372989 
L 96.483044 132.741923 
L 97.993066 133.769241 
L 99.503087 136.001211 
L 101.013108 137.823783 
L 102.523129 139.956691 
L 104.03315 140.193647 
L 105.543171 140.257854 
L 107.053192 138.900327 
L 108.563214 138.137176 
L 110.073235 136.730729 
L 111.583256 136.399297 
L 113.093277 136.527712 
L 114.603298 135.539704 
L 116.113319 134.169947 
L 117.62334 132.414072 
L 119.133362 131.318616 
L 120.643383 130.649024 
L 122.153404 129.218117 
L 123.663425 127.192018 
L 126.683467 125.422748 
L 128.193488 127.312279 
L 129.70351 128.662469 
L 131.213531 126.923366 
L 132.723552 127.302495 
L 134.233573 126.985914 
L 135.743594 126.297541 
L 137.253615 125.236154 
L 138.763636 124.789323 
L 141.783679 123.651935 
L 143.2937 125.029642 
L 144.803721 126.086312 
L 146.313742 127.535564 
L 147.823763 130.116089 
L 149.333784 132.329714 
L 150.843805 133.587655 
L 152.353827 133.653172 
L 153.863848 132.699234 
L 155.373869 133.094437 
L 156.88389 132.719385 
L 158.393911 130.999544 
L 159.903932 132.797351 
L 161.413953 135.248238 
L 162.923975 135.627367 
L 164.433996 134.335066 
L 165.944017 132.143862 
L 167.454038 130.786335 
L 168.964059 129.17093 
L 170.47408 127.109568 
L 171.984101 127.197623 
L 173.494123 126.59866 
L 175.004144 126.64164 
L 178.024186 126.132428 
L 179.534207 124.041103 
L 181.044228 123.377626 
L 182.554249 125.043233 
L 184.064271 125.258786 
L 185.574292 127.496216 
L 187.084313 129.347529 
L 188.594334 130.072359 
L 190.104355 128.543612 
L 191.614376 128.210067 
L 193.124397 126.501539 
L 194.634419 124.385754 
L 196.14444 124.024499 
L 197.654461 122.561488 
L 199.164482 123.411471 
L 200.674503 125.845236 
L 202.184524 126.931258 
L 203.694545 128.93479 
L 205.204567 128.230344 
L 206.714588 126.339145 
L 208.224609 125.166596 
L 209.73463 124.521935 
L 211.244651 125.940394 
L 212.754672 128.741058 
L 214.264693 128.3338 
L 215.774715 129.43283 
L 217.284736 129.65297 
L 218.794757 127.265067 
L 220.304778 126.899932 
L 221.814799 125.122587 
L 223.32482 126.474726 
L 224.834841 126.646645 
L 226.344863 127.01402 
L 227.854884 126.500838 
L 229.364905 124.740035 
L 232.384947 122.82087 
L 233.894968 121.056696 
L 235.404989 121.704884 
L 236.915011 127.528799 
L 238.425032 125.824385 
L 239.935053 125.052357 
L 241.445074 124.428628 
L 242.955095 124.474491 
L 244.465116 122.390503 
L 245.975137 126.455245 
L 247.485159 126.024716 
L 248.99518 127.917304 
L 250.505201 125.953374 
L 252.015222 127.021459 
L 253.525243 127.476555 
L 255.035264 131.760104 
L 256.545285 131.411549 
L 258.055307 130.149416 
L 259.565328 128.203522 
L 261.075349 126.678597 
L 262.58537 124.309925 
L 264.095391 123.844672 
L 265.605412 127.886788 
L 267.115433 126.268063 
L 270.135476 125.498186 
L 271.645497 128.08666 
L 273.155518 127.812709 
L 274.665539 129.551659 
L 276.17556 129.635194 
L 277.685581 130.531804 
L 279.195603 131.740845 
L 280.705624 130.72168 
L 282.215645 132.556177 
L 283.725666 134.714264 
L 285.235687 140.236098 
L 286.745708 145.158663 
L 289.765751 147.481301 
L 291.275772 146.530185 
L 292.785793 150.567544 
L 294.295814 158.058404 
L 295.805835 156.730808 
L 297.315856 156.35155 
L 298.825877 154.489694 
L 300.335899 152.053483 
L 301.84592 150.50792 
L 303.355941 149.384291 
L 304.865962 151.475437 
L 306.375983 154.016933 
L 307.886004 154.643798 
L 309.396025 153.563891 
L 310.906047 155.520181 
L 312.416068 160.064337 
L 313.926089 161.8173 
L 315.43611 166.88051 
L 316.946131 165.86746 
L 318.456152 166.142635 
L 319.966173 166.896525 
L 321.476195 166.730198 
L 322.986216 165.58694 
L 324.496237 163.261388 
L 326.006258 162.020405 
L 327.516279 161.925443 
L 329.0263 160.910355 
L 330.536321 161.651491 
L 332.046342 169.77625 
L 333.556364 169.372661 
L 335.066385 165.414225 
L 336.576406 163.467039 
L 338.086427 162.050807 
L 339.596448 158.799919 
L 341.106469 156.975905 
L 342.61649 160.507573 
L 344.126512 159.844379 
L 345.636533 160.233991 
L 348.656575 164.976987 
L 350.166596 163.581354 
L 351.676617 165.628128 
L 354.69666 162.992568 
L 356.206681 161.057899 
L 357.716702 160.344891 
L 359.226723 158.893601 
L 360.736744 158.97921 
L 362.246765 161.735203 
L 363.756786 168.730953 
L 365.266808 174.115637 
L 366.776829 186.007541 
L 368.28685 190.176215 
L 369.796871 187.854743 
L 371.306892 182.370775 
L 372.816913 180.520017 
L 374.326934 177.756984 
L 377.346977 174.304995 
L 378.856998 176.090571 
L 380.367019 175.547222 
L 381.87704 173.299505 
L 383.387061 171.356774 
L 386.407104 171.308896 
L 387.917125 169.895023 
L 389.427146 171.606737 
L 390.937167 172.785063 
L 392.447188 172.860889 
L 395.46723 170.199232 
L 396.977252 174.657932 
L 398.487273 177.708667 
L 398.487273 177.708667 
" clip-path="url(#pfd8a47d4ac)" style="fill: none; stroke: #2ca02c; stroke-opacity: 0.7; stroke-width: 1.5; stroke-linecap: square"/>
   </g>
   <g id="patch_3">
    <path d="M 57.6 307.584 
L 57.6 41.472 
" style="fill: none; stroke: #000000; stroke-width: 0.8; stroke-linejoin: miter; stroke-linecap: square"/>
   </g>
   <g id="patch_4">
    <path d="M 414.72 307.584 
L 414.72 41.472 
" style="fill: none; stroke: #000000; stroke-width: 0.8; stroke-linejoin: miter; stroke-linecap: square"/>
   </g>
   <g id="patch_5">
    <path d="M 57.6 307.584 
L 414.72 307.584 
" style="fill: none; stroke: #000000; stroke-width: 0.8; stroke-linejoin: miter; stroke-linecap: square"/>
   </g>
   <g id="patch_6">
    <path d="M 57.6 41.472 
L 414.72 41.472 
" style="fill: none; stroke: #000000; stroke-width: 0.8; stroke-linejoin: miter; stroke-linecap: square"/>
   </g>
   <g id="text_13">
    <!-- isomorphism_cci -->
    <g transform="translate(186.200625 35.472) scale(0.12 -0.12)">
     <defs>
      <path id="DejaVuSans-69" d="M 603 3500 
L 1178 3500 
L 1178 0 
L 603 0 
L 603 3500 
z
M 603 4863 
L 1178 4863 
L 1178 4134 
L 603 4134 
L 603 4863 
z
" transform="scale(0.015625)"/>
      <path id="DejaVuSans-73" d="M 2834 3397 
L 2834 2853 
Q 2591 2978 2328 3040 
Q 2066 3103 1784 3103 
Q 1356 3103 1142 2972 
Q 928 2841 928 2578 
Q 928 2378 1081 2264 
Q 1234 2150 1697 2047 
L 1894 2003 
Q 2506 1872 2764 1633 
Q 3022 1394 3022 966 
Q 3022 478 2636 193 
Q 2250 -91 1575 -91 
Q 1294 -91 989 -36 
Q 684 19 347 128 
L 347 722 
Q 666 556 975 473 
Q 1284 391 1588 391 
Q 1994 391 2212 530 
Q 2431 669 2431 922 
Q 2431 1156 2273 1281 
Q 2116 1406 1581 1522 
L 1381 1569 
Q 847 1681 609 1914 
Q 372 2147 372 2553 
Q 372 3047 722 3315 
Q 1072 3584 1716 3584 
Q 2034 3584 2315 3537 
Q 2597 3491 2834 3397 
z
" transform="scale(0.015625)"/>
      <path id="DejaVuSans-6f" d="M 1959 3097 
Q 1497 3097 1228 2736 
Q 959 2375 959 1747 
Q 959 1119 1226 758 
Q 1494 397 1959 397 
Q 2419 397 2687 759 
Q 2956 1122 2956 1747 
Q 2956 2369 2687 2733 
Q 2419 3097 1959 3097 
z
M 1959 3584 
Q 2709 3584 3137 3096 
Q 3566 2609 3566 1747 
Q 3566 888 3137 398 
Q 2709 -91 1959 -91 
Q 1206 -91 779 398 
Q 353 888 353 1747 
Q 353 2609 779 3096 
Q 1206 3584 1959 3584 
z
" transform="scale(0.015625)"/>
      <path id="DejaVuSans-6d" d="M 3328 2828 
Q 3544 3216 3844 3400 
Q 4144 3584 4550 3584 
Q 5097 3584 5394 3201 
Q 5691 2819 5691 2113 
L 5691 0 
L 5113 0 
L 5113 2094 
Q 5113 2597 4934 2840 
Q 4756 3084 4391 3084 
Q 3944 3084 3684 2787 
Q 3425 2491 3425 1978 
L 3425 0 
L 2847 0 
L 2847 2094 
Q 2847 2600 2669 2842 
Q 2491 3084 2119 3084 
Q 1678 3084 1418 2786 
Q 1159 2488 1159 1978 
L 1159 0 
L 581 0 
L 581 3500 
L 1159 3500 
L 1159 2956 
Q 1356 3278 1631 3431 
Q 1906 3584 2284 3584 
Q 2666 3584 2933 3390 
Q 3200 3197 3328 2828 
z
" transform="scale(0.015625)"/>
      <path id="DejaVuSans-72" d="M 2631 2963 
Q 2534 3019 2420 3045 
Q 2306 3072 2169 3072 
Q 1681 3072 1420 2755 
Q 1159 2438 1159 1844 
L 1159 0 
L 581 0 
L 581 3500 
L 1159 3500 
L 1159 2956 
Q 1341 3275 1631 3429 
Q 1922 3584 2338 3584 
Q 2397 3584 2469 3576 
Q 2541 3569 2628 3553 
L 2631 2963 
z
" transform="scale(0.015625)"/>
      <path id="DejaVuSans-70" d="M 1159 525 
L 1159 -1331 
L 581 -1331 
L 581 3500 
L 1159 3500 
L 1159 2969 
Q 1341 3281 1617 3432 
Q 1894 3584 2278 3584 
Q 2916 3584 3314 3078 
Q 3713 2572 3713 1747 
Q 3713 922 3314 415 
Q 2916 -91 2278 -91 
Q 1894 -91 1617 61 
Q 1341 213 1159 525 
z
M 3116 1747 
Q 3116 2381 2855 2742 
Q 2594 3103 2138 3103 
Q 1681 3103 1420 2742 
Q 1159 2381 1159 1747 
Q 1159 1113 1420 752 
Q 1681 391 2138 391 
Q 2594 391 2855 752 
Q 3116 1113 3116 1747 
z
" transform="scale(0.015625)"/>
      <path id="DejaVuSans-68" d="M 3513 2113 
L 3513 0 
L 2938 0 
L 2938 2094 
Q 2938 2591 2744 2837 
Q 2550 3084 2163 3084 
Q 1697 3084 1428 2787 
Q 1159 2491 1159 1978 
L 1159 0 
L 581 0 
L 581 4863 
L 1159 4863 
L 1159 2956 
Q 1366 3272 1645 3428 
Q 1925 3584 2291 3584 
Q 2894 3584 3203 3211 
Q 3513 2838 3513 2113 
z
" transform="scale(0.015625)"/>
      <path id="DejaVuSans-5f" d="M 3263 -1063 
L 3263 -1509 
L -63 -1509 
L -63 -1063 
L 3263 -1063 
z
" transform="scale(0.015625)"/>
      <path id="DejaVuSans-63" d="M 3122 3366 
L 3122 2828 
Q 2878 2963 2633 3030 
Q 2388 3097 2138 3097 
Q 1578 3097 1268 2742 
Q 959 2388 959 1747 
Q 959 1106 1268 751 
Q 1578 397 2138 397 
Q 2388 397 2633 464 
Q 2878 531 3122 666 
L 3122 134 
Q 2881 22 2623 -34 
Q 2366 -91 2075 -91 
Q 1284 -91 818 406 
Q 353 903 353 1747 
Q 353 2603 823 3093 
Q 1294 3584 2113 3584 
Q 2378 3584 2631 3529 
Q 2884 3475 3122 3366 
z
" transform="scale(0.015625)"/>
     </defs>
     <use xlink:href="#DejaVuSans-69"/>
     <use xlink:href="#DejaVuSans-73" x="27.783203"/>
     <use xlink:href="#DejaVuSans-6f" x="79.882812"/>
     <use xlink:href="#DejaVuSans-6d" x="141.064453"/>
     <use xlink:href="#DejaVuSans-6f" x="238.476562"/>
     <use xlink:href="#DejaVuSans-72" x="299.658203"/>
     <use xlink:href="#DejaVuSans-70" x="340.771484"/>
     <use xlink:href="#DejaVuSans-68" x="404.248047"/>
     <use xlink:href="#DejaVuSans-69" x="467.626953"/>
     <use xlink:href="#DejaVuSans-73" x="495.410156"/>
     <use xlink:href="#DejaVuSans-6d" x="547.509766"/>
     <use xlink:href="#DejaVuSans-5f" x="644.921875"/>
     <use xlink:href="#DejaVuSans-63" x="694.921875"/>
     <use xlink:href="#DejaVuSans-63" x="749.902344"/>
     <use xlink:href="#DejaVuSans-69" x="804.882812"/>
    </g>
   </g>
   <g id="legend_1">
    <g id="patch_7">
     <path d="M 64.6 302.584 
L 258.804688 302.584 
Q 260.804688 302.584 260.804688 300.584 
L 260.804688 257.549625 
Q 260.804688 255.549625 258.804688 255.549625 
L 64.6 255.549625 
Q 62.6 255.549625 62.6 257.549625 
L 62.6 300.584 
Q 62.6 302.584 64.6 302.584 
z
" style="fill: #ffffff; opacity: 0.8; stroke: #cccccc; stroke-linejoin: miter"/>
    </g>
    <g id="line2d_16">
     <path d="M 66.6 263.648062 
L 76.6 263.648062 
L 86.6 263.648062 
" style="fill: none; stroke: #1f77b4; stroke-opacity: 0.7; stroke-width: 1.5; stroke-linecap: square"/>
    </g>
    <g id="text_14">
     <!-- Positive cumulative predictions -->
     <g transform="translate(94.6 267.148062) scale(0.1 -0.1)">
      <defs>
       <path id="DejaVuSans-50" d="M 1259 4147 
L 1259 2394 
L 2053 2394 
Q 2494 2394 2734 2622 
Q 2975 2850 2975 3272 
Q 2975 3691 2734 3919 
Q 2494 4147 2053 4147 
L 1259 4147 
z
M 628 4666 
L 2053 4666 
Q 2838 4666 3239 4311 
Q 3641 3956 3641 3272 
Q 3641 2581 3239 2228 
Q 2838 1875 2053 1875 
L 1259 1875 
L 1259 0 
L 628 0 
L 628 4666 
z
" transform="scale(0.015625)"/>
       <path id="DejaVuSans-74" d="M 1172 4494 
L 1172 3500 
L 2356 3500 
L 2356 3053 
L 1172 3053 
L 1172 1153 
Q 1172 725 1289 603 
Q 1406 481 1766 481 
L 2356 481 
L 2356 0 
L 1766 0 
Q 1100 0 847 248 
Q 594 497 594 1153 
L 594 3053 
L 172 3053 
L 172 3500 
L 594 3500 
L 594 4494 
L 1172 4494 
z
" transform="scale(0.015625)"/>
       <path id="DejaVuSans-76" d="M 191 3500 
L 800 3500 
L 1894 563 
L 2988 3500 
L 3597 3500 
L 2284 0 
L 1503 0 
L 191 3500 
z
" transform="scale(0.015625)"/>
       <path id="DejaVuSans-65" d="M 3597 1894 
L 3597 1613 
L 953 1613 
Q 991 1019 1311 708 
Q 1631 397 2203 397 
Q 2534 397 2845 478 
Q 3156 559 3463 722 
L 3463 178 
Q 3153 47 2828 -22 
Q 2503 -91 2169 -91 
Q 1331 -91 842 396 
Q 353 884 353 1716 
Q 353 2575 817 3079 
Q 1281 3584 2069 3584 
Q 2775 3584 3186 3129 
Q 3597 2675 3597 1894 
z
M 3022 2063 
Q 3016 2534 2758 2815 
Q 2500 3097 2075 3097 
Q 1594 3097 1305 2825 
Q 1016 2553 972 2059 
L 3022 2063 
z
" transform="scale(0.015625)"/>
       <path id="DejaVuSans-20" transform="scale(0.015625)"/>
       <path id="DejaVuSans-75" d="M 544 1381 
L 544 3500 
L 1119 3500 
L 1119 1403 
Q 1119 906 1312 657 
Q 1506 409 1894 409 
Q 2359 409 2629 706 
Q 2900 1003 2900 1516 
L 2900 3500 
L 3475 3500 
L 3475 0 
L 2900 0 
L 2900 538 
Q 2691 219 2414 64 
Q 2138 -91 1772 -91 
Q 1169 -91 856 284 
Q 544 659 544 1381 
z
M 1991 3584 
L 1991 3584 
z
" transform="scale(0.015625)"/>
       <path id="DejaVuSans-6c" d="M 603 4863 
L 1178 4863 
L 1178 0 
L 603 0 
L 603 4863 
z
" transform="scale(0.015625)"/>
       <path id="DejaVuSans-61" d="M 2194 1759 
Q 1497 1759 1228 1600 
Q 959 1441 959 1056 
Q 959 750 1161 570 
Q 1363 391 1709 391 
Q 2188 391 2477 730 
Q 2766 1069 2766 1631 
L 2766 1759 
L 2194 1759 
z
M 3341 1997 
L 3341 0 
L 2766 0 
L 2766 531 
Q 2569 213 2275 61 
Q 1981 -91 1556 -91 
Q 1019 -91 701 211 
Q 384 513 384 1019 
Q 384 1609 779 1909 
Q 1175 2209 1959 2209 
L 2766 2209 
L 2766 2266 
Q 2766 2663 2505 2880 
Q 2244 3097 1772 3097 
Q 1472 3097 1187 3025 
Q 903 2953 641 2809 
L 641 3341 
Q 956 3463 1253 3523 
Q 1550 3584 1831 3584 
Q 2591 3584 2966 3190 
Q 3341 2797 3341 1997 
z
" transform="scale(0.015625)"/>
       <path id="DejaVuSans-64" d="M 2906 2969 
L 2906 4863 
L 3481 4863 
L 3481 0 
L 2906 0 
L 2906 525 
Q 2725 213 2448 61 
Q 2172 -91 1784 -91 
Q 1150 -91 751 415 
Q 353 922 353 1747 
Q 353 2572 751 3078 
Q 1150 3584 1784 3584 
Q 2172 3584 2448 3432 
Q 2725 3281 2906 2969 
z
M 947 1747 
Q 947 1113 1208 752 
Q 1469 391 1925 391 
Q 2381 391 2643 752 
Q 2906 1113 2906 1747 
Q 2906 2381 2643 2742 
Q 2381 3103 1925 3103 
Q 1469 3103 1208 2742 
Q 947 2381 947 1747 
z
" transform="scale(0.015625)"/>
       <path id="DejaVuSans-6e" d="M 3513 2113 
L 3513 0 
L 2938 0 
L 2938 2094 
Q 2938 2591 2744 2837 
Q 2550 3084 2163 3084 
Q 1697 3084 1428 2787 
Q 1159 2491 1159 1978 
L 1159 0 
L 581 0 
L 581 3500 
L 1159 3500 
L 1159 2956 
Q 1366 3272 1645 3428 
Q 1925 3584 2291 3584 
Q 2894 3584 3203 3211 
Q 3513 2838 3513 2113 
z
" transform="scale(0.015625)"/>
      </defs>
      <use xlink:href="#DejaVuSans-50"/>
      <use xlink:href="#DejaVuSans-6f" x="56.677734"/>
      <use xlink:href="#DejaVuSans-73" x="117.859375"/>
      <use xlink:href="#DejaVuSans-69" x="169.958984"/>
      <use xlink:href="#DejaVuSans-74" x="197.742188"/>
      <use xlink:href="#DejaVuSans-69" x="236.951172"/>
      <use xlink:href="#DejaVuSans-76" x="264.734375"/>
      <use xlink:href="#DejaVuSans-65" x="323.914062"/>
      <use xlink:href="#DejaVuSans-20" x="385.4375"/>
      <use xlink:href="#DejaVuSans-63" x="417.224609"/>
      <use xlink:href="#DejaVuSans-75" x="472.205078"/>
      <use xlink:href="#DejaVuSans-6d" x="535.583984"/>
      <use xlink:href="#DejaVuSans-75" x="632.996094"/>
      <use xlink:href="#DejaVuSans-6c" x="696.375"/>
      <use xlink:href="#DejaVuSans-61" x="724.158203"/>
      <use xlink:href="#DejaVuSans-74" x="785.4375"/>
      <use xlink:href="#DejaVuSans-69" x="824.646484"/>
      <use xlink:href="#DejaVuSans-76" x="852.429688"/>
      <use xlink:href="#DejaVuSans-65" x="911.609375"/>
      <use xlink:href="#DejaVuSans-20" x="973.132812"/>
      <use xlink:href="#DejaVuSans-70" x="1004.919922"/>
      <use xlink:href="#DejaVuSans-72" x="1068.396484"/>
      <use xlink:href="#DejaVuSans-65" x="1107.259766"/>
      <use xlink:href="#DejaVuSans-64" x="1168.783203"/>
      <use xlink:href="#DejaVuSans-69" x="1232.259766"/>
      <use xlink:href="#DejaVuSans-63" x="1260.042969"/>
      <use xlink:href="#DejaVuSans-74" x="1315.023438"/>
      <use xlink:href="#DejaVuSans-69" x="1354.232422"/>
      <use xlink:href="#DejaVuSans-6f" x="1382.015625"/>
      <use xlink:href="#DejaVuSans-6e" x="1443.197266"/>
      <use xlink:href="#DejaVuSans-73" x="1506.576172"/>
     </g>
    </g>
    <g id="line2d_17">
     <path d="M 66.6 278.326188 
L 76.6 278.326188 
L 86.6 278.326188 
" style="fill: none; stroke: #ff7f0e; stroke-opacity: 0.7; stroke-width: 1.5; stroke-linecap: square"/>
    </g>
    <g id="text_15">
     <!-- Negative cumulative predictions -->
     <g transform="translate(94.6 281.826188) scale(0.1 -0.1)">
      <defs>
       <path id="DejaVuSans-4e" d="M 628 4666 
L 1478 4666 
L 3547 763 
L 3547 4666 
L 4159 4666 
L 4159 0 
L 3309 0 
L 1241 3903 
L 1241 0 
L 628 0 
L 628 4666 
z
" transform="scale(0.015625)"/>
       <path id="DejaVuSans-67" d="M 2906 1791 
Q 2906 2416 2648 2759 
Q 2391 3103 1925 3103 
Q 1463 3103 1205 2759 
Q 947 2416 947 1791 
Q 947 1169 1205 825 
Q 1463 481 1925 481 
Q 2391 481 2648 825 
Q 2906 1169 2906 1791 
z
M 3481 434 
Q 3481 -459 3084 -895 
Q 2688 -1331 1869 -1331 
Q 1566 -1331 1297 -1286 
Q 1028 -1241 775 -1147 
L 775 -588 
Q 1028 -725 1275 -790 
Q 1522 -856 1778 -856 
Q 2344 -856 2625 -561 
Q 2906 -266 2906 331 
L 2906 616 
Q 2728 306 2450 153 
Q 2172 0 1784 0 
Q 1141 0 747 490 
Q 353 981 353 1791 
Q 353 2603 747 3093 
Q 1141 3584 1784 3584 
Q 2172 3584 2450 3431 
Q 2728 3278 2906 2969 
L 2906 3500 
L 3481 3500 
L 3481 434 
z
" transform="scale(0.015625)"/>
      </defs>
      <use xlink:href="#DejaVuSans-4e"/>
      <use xlink:href="#DejaVuSans-65" x="74.804688"/>
      <use xlink:href="#DejaVuSans-67" x="136.328125"/>
      <use xlink:href="#DejaVuSans-61" x="199.804688"/>
      <use xlink:href="#DejaVuSans-74" x="261.083984"/>
      <use xlink:href="#DejaVuSans-69" x="300.292969"/>
      <use xlink:href="#DejaVuSans-76" x="328.076172"/>
      <use xlink:href="#DejaVuSans-65" x="387.255859"/>
      <use xlink:href="#DejaVuSans-20" x="448.779297"/>
      <use xlink:href="#DejaVuSans-63" x="480.566406"/>
      <use xlink:href="#DejaVuSans-75" x="535.546875"/>
      <use xlink:href="#DejaVuSans-6d" x="598.925781"/>
      <use xlink:href="#DejaVuSans-75" x="696.337891"/>
      <use xlink:href="#DejaVuSans-6c" x="759.716797"/>
      <use xlink:href="#DejaVuSans-61" x="787.5"/>
      <use xlink:href="#DejaVuSans-74" x="848.779297"/>
      <use xlink:href="#DejaVuSans-69" x="887.988281"/>
      <use xlink:href="#DejaVuSans-76" x="915.771484"/>
      <use xlink:href="#DejaVuSans-65" x="974.951172"/>
      <use xlink:href="#DejaVuSans-20" x="1036.474609"/>
      <use xlink:href="#DejaVuSans-70" x="1068.261719"/>
      <use xlink:href="#DejaVuSans-72" x="1131.738281"/>
      <use xlink:href="#DejaVuSans-65" x="1170.601562"/>
      <use xlink:href="#DejaVuSans-64" x="1232.125"/>
      <use xlink:href="#DejaVuSans-69" x="1295.601562"/>
      <use xlink:href="#DejaVuSans-63" x="1323.384766"/>
      <use xlink:href="#DejaVuSans-74" x="1378.365234"/>
      <use xlink:href="#DejaVuSans-69" x="1417.574219"/>
      <use xlink:href="#DejaVuSans-6f" x="1445.357422"/>
      <use xlink:href="#DejaVuSans-6e" x="1506.539062"/>
      <use xlink:href="#DejaVuSans-73" x="1569.917969"/>
     </g>
    </g>
    <g id="line2d_18">
     <path d="M 66.6 293.004312 
L 76.6 293.004312 
L 86.6 293.004312 
" style="fill: none; stroke: #2ca02c; stroke-opacity: 0.7; stroke-width: 1.5; stroke-linecap: square"/>
    </g>
    <g id="text_16">
     <!-- Average cumulative predictions -->
     <g transform="translate(94.6 296.504312) scale(0.1 -0.1)">
      <defs>
       <path id="DejaVuSans-41" d="M 2188 4044 
L 1331 1722 
L 3047 1722 
L 2188 4044 
z
M 1831 4666 
L 2547 4666 
L 4325 0 
L 3669 0 
L 3244 1197 
L 1141 1197 
L 716 0 
L 50 0 
L 1831 4666 
z
" transform="scale(0.015625)"/>
      </defs>
      <use xlink:href="#DejaVuSans-41"/>
      <use xlink:href="#DejaVuSans-76" x="62.533203"/>
      <use xlink:href="#DejaVuSans-65" x="121.712891"/>
      <use xlink:href="#DejaVuSans-72" x="183.236328"/>
      <use xlink:href="#DejaVuSans-61" x="224.349609"/>
      <use xlink:href="#DejaVuSans-67" x="285.628906"/>
      <use xlink:href="#DejaVuSans-65" x="349.105469"/>
      <use xlink:href="#DejaVuSans-20" x="410.628906"/>
      <use xlink:href="#DejaVuSans-63" x="442.416016"/>
      <use xlink:href="#DejaVuSans-75" x="497.396484"/>
      <use xlink:href="#DejaVuSans-6d" x="560.775391"/>
      <use xlink:href="#DejaVuSans-75" x="658.1875"/>
      <use xlink:href="#DejaVuSans-6c" x="721.566406"/>
      <use xlink:href="#DejaVuSans-61" x="749.349609"/>
      <use xlink:href="#DejaVuSans-74" x="810.628906"/>
      <use xlink:href="#DejaVuSans-69" x="849.837891"/>
      <use xlink:href="#DejaVuSans-76" x="877.621094"/>
      <use xlink:href="#DejaVuSans-65" x="936.800781"/>
      <use xlink:href="#DejaVuSans-20" x="998.324219"/>
      <use xlink:href="#DejaVuSans-70" x="1030.111328"/>
      <use xlink:href="#DejaVuSans-72" x="1093.587891"/>
      <use xlink:href="#DejaVuSans-65" x="1132.451172"/>
      <use xlink:href="#DejaVuSans-64" x="1193.974609"/>
      <use xlink:href="#DejaVuSans-69" x="1257.451172"/>
      <use xlink:href="#DejaVuSans-63" x="1285.234375"/>
      <use xlink:href="#DejaVuSans-74" x="1340.214844"/>
      <use xlink:href="#DejaVuSans-69" x="1379.423828"/>
      <use xlink:href="#DejaVuSans-6f" x="1407.207031"/>
      <use xlink:href="#DejaVuSans-6e" x="1468.388672"/>
      <use xlink:href="#DejaVuSans-73" x="1531.767578"/>
     </g>
    </g>
   </g>
  </g>
 </g>
 <defs>
  <clipPath id="pfd8a47d4ac">
   <rect x="57.6" y="41.472" width="357.12" height="266.112"/>
  </clipPath>
 </defs>
</svg>
