<?xml version="1.0" encoding="utf-8" standalone="no"?>
<!DOCTYPE svg PUBLIC "-//W3C//DTD SVG 1.1//EN"
  "http://www.w3.org/Graphics/SVG/1.1/DTD/svg11.dtd">
<svg xmlns:xlink="http://www.w3.org/1999/xlink" width="460.8pt" height="345.6pt" viewBox="0 0 460.8 345.6" xmlns="http://www.w3.org/2000/svg" version="1.1">
 <metadata>
  <rdf:RDF xmlns:dc="http://purl.org/dc/elements/1.1/" xmlns:cc="http://creativecommons.org/ns#" xmlns:rdf="http://www.w3.org/1999/02/22-rdf-syntax-ns#">
   <cc:Work>
    <dc:type rdf:resource="http://purl.org/dc/dcmitype/StillImage"/>
    <dc:date>2024-07-15T13:28:13.577489</dc:date>
    <dc:format>image/svg+xml</dc:format>
    <dc:creator>
     <cc:Agent>
      <dc:title>Matplotlib v3.9.0, https://matplotlib.org/</dc:title>
     </cc:Agent>
    </dc:creator>
   </cc:Work>
  </rdf:RDF>
 </metadata>
 <defs>
  <style type="text/css">*{stroke-linejoin: round; stroke-linecap: butt}</style>
 </defs>
 <g id="figure_1">
  <g id="patch_1">
   <path d="M 0 345.6 
L 460.8 345.6 
L 460.8 0 
L 0 0 
z
" style="fill: #ffffff"/>
  </g>
  <g id="axes_1">
   <g id="patch_2">
    <path d="M 57.6 307.584 
L 414.72 307.584 
L 414.72 41.472 
L 57.6 41.472 
z
" style="fill: #ffffff"/>
   </g>
   <g id="matplotlib.axis_1">
    <g id="xtick_1">
     <g id="line2d_1">
      <defs>
       <path id="m1841d91d9b" d="M 0 0 
L 0 3.5 
" style="stroke: #000000; stroke-width: 0.8"/>
      </defs>
      <g>
       <use xlink:href="#m1841d91d9b" x="73.832727" y="307.584" style="stroke: #000000; stroke-width: 0.8"/>
      </g>
     </g>
     <g id="text_1">
      <!-- 0 -->
      <g transform="translate(70.651477 322.182437) scale(0.1 -0.1)">
       <defs>
        <path id="DejaVuSans-30" d="M 2034 4250 
Q 1547 4250 1301 3770 
Q 1056 3291 1056 2328 
Q 1056 1369 1301 889 
Q 1547 409 2034 409 
Q 2525 409 2770 889 
Q 3016 1369 3016 2328 
Q 3016 3291 2770 3770 
Q 2525 4250 2034 4250 
z
M 2034 4750 
Q 2819 4750 3233 4129 
Q 3647 3509 3647 2328 
Q 3647 1150 3233 529 
Q 2819 -91 2034 -91 
Q 1250 -91 836 529 
Q 422 1150 422 2328 
Q 422 3509 836 4129 
Q 1250 4750 2034 4750 
z
" transform="scale(0.015625)"/>
       </defs>
       <use xlink:href="#DejaVuSans-30"/>
      </g>
     </g>
    </g>
    <g id="xtick_2">
     <g id="line2d_2">
      <g>
       <use xlink:href="#m1841d91d9b" x="149.333784" y="307.584" style="stroke: #000000; stroke-width: 0.8"/>
      </g>
     </g>
     <g id="text_2">
      <!-- 50 -->
      <g transform="translate(142.971284 322.182437) scale(0.1 -0.1)">
       <defs>
        <path id="DejaVuSans-35" d="M 691 4666 
L 3169 4666 
L 3169 4134 
L 1269 4134 
L 1269 2991 
Q 1406 3038 1543 3061 
Q 1681 3084 1819 3084 
Q 2600 3084 3056 2656 
Q 3513 2228 3513 1497 
Q 3513 744 3044 326 
Q 2575 -91 1722 -91 
Q 1428 -91 1123 -41 
Q 819 9 494 109 
L 494 744 
Q 775 591 1075 516 
Q 1375 441 1709 441 
Q 2250 441 2565 725 
Q 2881 1009 2881 1497 
Q 2881 1984 2565 2268 
Q 2250 2553 1709 2553 
Q 1456 2553 1204 2497 
Q 953 2441 691 2322 
L 691 4666 
z
" transform="scale(0.015625)"/>
       </defs>
       <use xlink:href="#DejaVuSans-35"/>
       <use xlink:href="#DejaVuSans-30" x="63.623047"/>
      </g>
     </g>
    </g>
    <g id="xtick_3">
     <g id="line2d_3">
      <g>
       <use xlink:href="#m1841d91d9b" x="224.834841" y="307.584" style="stroke: #000000; stroke-width: 0.8"/>
      </g>
     </g>
     <g id="text_3">
      <!-- 100 -->
      <g transform="translate(215.291091 322.182437) scale(0.1 -0.1)">
       <defs>
        <path id="DejaVuSans-31" d="M 794 531 
L 1825 531 
L 1825 4091 
L 703 3866 
L 703 4441 
L 1819 4666 
L 2450 4666 
L 2450 531 
L 3481 531 
L 3481 0 
L 794 0 
L 794 531 
z
" transform="scale(0.015625)"/>
       </defs>
       <use xlink:href="#DejaVuSans-31"/>
       <use xlink:href="#DejaVuSans-30" x="63.623047"/>
       <use xlink:href="#DejaVuSans-30" x="127.246094"/>
      </g>
     </g>
    </g>
    <g id="xtick_4">
     <g id="line2d_4">
      <g>
       <use xlink:href="#m1841d91d9b" x="300.335899" y="307.584" style="stroke: #000000; stroke-width: 0.8"/>
      </g>
     </g>
     <g id="text_4">
      <!-- 150 -->
      <g transform="translate(290.792149 322.182437) scale(0.1 -0.1)">
       <use xlink:href="#DejaVuSans-31"/>
       <use xlink:href="#DejaVuSans-35" x="63.623047"/>
       <use xlink:href="#DejaVuSans-30" x="127.246094"/>
      </g>
     </g>
    </g>
    <g id="xtick_5">
     <g id="line2d_5">
      <g>
       <use xlink:href="#m1841d91d9b" x="375.836956" y="307.584" style="stroke: #000000; stroke-width: 0.8"/>
      </g>
     </g>
     <g id="text_5">
      <!-- 200 -->
      <g transform="translate(366.293206 322.182437) scale(0.1 -0.1)">
       <defs>
        <path id="DejaVuSans-32" d="M 1228 531 
L 3431 531 
L 3431 0 
L 469 0 
L 469 531 
Q 828 903 1448 1529 
Q 2069 2156 2228 2338 
Q 2531 2678 2651 2914 
Q 2772 3150 2772 3378 
Q 2772 3750 2511 3984 
Q 2250 4219 1831 4219 
Q 1534 4219 1204 4116 
Q 875 4013 500 3803 
L 500 4441 
Q 881 4594 1212 4672 
Q 1544 4750 1819 4750 
Q 2544 4750 2975 4387 
Q 3406 4025 3406 3419 
Q 3406 3131 3298 2873 
Q 3191 2616 2906 2266 
Q 2828 2175 2409 1742 
Q 1991 1309 1228 531 
z
" transform="scale(0.015625)"/>
       </defs>
       <use xlink:href="#DejaVuSans-32"/>
       <use xlink:href="#DejaVuSans-30" x="63.623047"/>
       <use xlink:href="#DejaVuSans-30" x="127.246094"/>
      </g>
     </g>
    </g>
   </g>
   <g id="matplotlib.axis_2">
    <g id="ytick_1">
     <g id="line2d_6">
      <defs>
       <path id="m1adcb3d179" d="M 0 0 
L -3.5 0 
" style="stroke: #000000; stroke-width: 0.8"/>
      </defs>
      <g>
       <use xlink:href="#m1adcb3d179" x="57.6" y="306.246135" style="stroke: #000000; stroke-width: 0.8"/>
      </g>
     </g>
     <g id="text_6">
      <!-- −8000 -->
      <g transform="translate(16.770313 310.045354) scale(0.1 -0.1)">
       <defs>
        <path id="DejaVuSans-2212" d="M 678 2272 
L 4684 2272 
L 4684 1741 
L 678 1741 
L 678 2272 
z
" transform="scale(0.015625)"/>
        <path id="DejaVuSans-38" d="M 2034 2216 
Q 1584 2216 1326 1975 
Q 1069 1734 1069 1313 
Q 1069 891 1326 650 
Q 1584 409 2034 409 
Q 2484 409 2743 651 
Q 3003 894 3003 1313 
Q 3003 1734 2745 1975 
Q 2488 2216 2034 2216 
z
M 1403 2484 
Q 997 2584 770 2862 
Q 544 3141 544 3541 
Q 544 4100 942 4425 
Q 1341 4750 2034 4750 
Q 2731 4750 3128 4425 
Q 3525 4100 3525 3541 
Q 3525 3141 3298 2862 
Q 3072 2584 2669 2484 
Q 3125 2378 3379 2068 
Q 3634 1759 3634 1313 
Q 3634 634 3220 271 
Q 2806 -91 2034 -91 
Q 1263 -91 848 271 
Q 434 634 434 1313 
Q 434 1759 690 2068 
Q 947 2378 1403 2484 
z
M 1172 3481 
Q 1172 3119 1398 2916 
Q 1625 2713 2034 2713 
Q 2441 2713 2670 2916 
Q 2900 3119 2900 3481 
Q 2900 3844 2670 4047 
Q 2441 4250 2034 4250 
Q 1625 4250 1398 4047 
Q 1172 3844 1172 3481 
z
" transform="scale(0.015625)"/>
       </defs>
       <use xlink:href="#DejaVuSans-2212"/>
       <use xlink:href="#DejaVuSans-38" x="83.789062"/>
       <use xlink:href="#DejaVuSans-30" x="147.412109"/>
       <use xlink:href="#DejaVuSans-30" x="211.035156"/>
       <use xlink:href="#DejaVuSans-30" x="274.658203"/>
      </g>
     </g>
    </g>
    <g id="ytick_2">
     <g id="line2d_7">
      <g>
       <use xlink:href="#m1adcb3d179" x="57.6" y="274.623631" style="stroke: #000000; stroke-width: 0.8"/>
      </g>
     </g>
     <g id="text_7">
      <!-- −6000 -->
      <g transform="translate(16.770313 278.42285) scale(0.1 -0.1)">
       <defs>
        <path id="DejaVuSans-36" d="M 2113 2584 
Q 1688 2584 1439 2293 
Q 1191 2003 1191 1497 
Q 1191 994 1439 701 
Q 1688 409 2113 409 
Q 2538 409 2786 701 
Q 3034 994 3034 1497 
Q 3034 2003 2786 2293 
Q 2538 2584 2113 2584 
z
M 3366 4563 
L 3366 3988 
Q 3128 4100 2886 4159 
Q 2644 4219 2406 4219 
Q 1781 4219 1451 3797 
Q 1122 3375 1075 2522 
Q 1259 2794 1537 2939 
Q 1816 3084 2150 3084 
Q 2853 3084 3261 2657 
Q 3669 2231 3669 1497 
Q 3669 778 3244 343 
Q 2819 -91 2113 -91 
Q 1303 -91 875 529 
Q 447 1150 447 2328 
Q 447 3434 972 4092 
Q 1497 4750 2381 4750 
Q 2619 4750 2861 4703 
Q 3103 4656 3366 4563 
z
" transform="scale(0.015625)"/>
       </defs>
       <use xlink:href="#DejaVuSans-2212"/>
       <use xlink:href="#DejaVuSans-36" x="83.789062"/>
       <use xlink:href="#DejaVuSans-30" x="147.412109"/>
       <use xlink:href="#DejaVuSans-30" x="211.035156"/>
       <use xlink:href="#DejaVuSans-30" x="274.658203"/>
      </g>
     </g>
    </g>
    <g id="ytick_3">
     <g id="line2d_8">
      <g>
       <use xlink:href="#m1adcb3d179" x="57.6" y="243.001128" style="stroke: #000000; stroke-width: 0.8"/>
      </g>
     </g>
     <g id="text_8">
      <!-- −4000 -->
      <g transform="translate(16.770313 246.800346) scale(0.1 -0.1)">
       <defs>
        <path id="DejaVuSans-34" d="M 2419 4116 
L 825 1625 
L 2419 1625 
L 2419 4116 
z
M 2253 4666 
L 3047 4666 
L 3047 1625 
L 3713 1625 
L 3713 1100 
L 3047 1100 
L 3047 0 
L 2419 0 
L 2419 1100 
L 313 1100 
L 313 1709 
L 2253 4666 
z
" transform="scale(0.015625)"/>
       </defs>
       <use xlink:href="#DejaVuSans-2212"/>
       <use xlink:href="#DejaVuSans-34" x="83.789062"/>
       <use xlink:href="#DejaVuSans-30" x="147.412109"/>
       <use xlink:href="#DejaVuSans-30" x="211.035156"/>
       <use xlink:href="#DejaVuSans-30" x="274.658203"/>
      </g>
     </g>
    </g>
    <g id="ytick_4">
     <g id="line2d_9">
      <g>
       <use xlink:href="#m1adcb3d179" x="57.6" y="211.378624" style="stroke: #000000; stroke-width: 0.8"/>
      </g>
     </g>
     <g id="text_9">
      <!-- −2000 -->
      <g transform="translate(16.770313 215.177843) scale(0.1 -0.1)">
       <use xlink:href="#DejaVuSans-2212"/>
       <use xlink:href="#DejaVuSans-32" x="83.789062"/>
       <use xlink:href="#DejaVuSans-30" x="147.412109"/>
       <use xlink:href="#DejaVuSans-30" x="211.035156"/>
       <use xlink:href="#DejaVuSans-30" x="274.658203"/>
      </g>
     </g>
    </g>
    <g id="ytick_5">
     <g id="line2d_10">
      <g>
       <use xlink:href="#m1adcb3d179" x="57.6" y="179.75612" style="stroke: #000000; stroke-width: 0.8"/>
      </g>
     </g>
     <g id="text_10">
      <!-- 0 -->
      <g transform="translate(44.2375 183.555339) scale(0.1 -0.1)">
       <use xlink:href="#DejaVuSans-30"/>
      </g>
     </g>
    </g>
    <g id="ytick_6">
     <g id="line2d_11">
      <g>
       <use xlink:href="#m1adcb3d179" x="57.6" y="148.133616" style="stroke: #000000; stroke-width: 0.8"/>
      </g>
     </g>
     <g id="text_11">
      <!-- 2000 -->
      <g transform="translate(25.15 151.932835) scale(0.1 -0.1)">
       <use xlink:href="#DejaVuSans-32"/>
       <use xlink:href="#DejaVuSans-30" x="63.623047"/>
       <use xlink:href="#DejaVuSans-30" x="127.246094"/>
       <use xlink:href="#DejaVuSans-30" x="190.869141"/>
      </g>
     </g>
    </g>
    <g id="ytick_7">
     <g id="line2d_12">
      <g>
       <use xlink:href="#m1adcb3d179" x="57.6" y="116.511112" style="stroke: #000000; stroke-width: 0.8"/>
      </g>
     </g>
     <g id="text_12">
      <!-- 4000 -->
      <g transform="translate(25.15 120.310331) scale(0.1 -0.1)">
       <use xlink:href="#DejaVuSans-34"/>
       <use xlink:href="#DejaVuSans-30" x="63.623047"/>
       <use xlink:href="#DejaVuSans-30" x="127.246094"/>
       <use xlink:href="#DejaVuSans-30" x="190.869141"/>
      </g>
     </g>
    </g>
    <g id="ytick_8">
     <g id="line2d_13">
      <g>
       <use xlink:href="#m1adcb3d179" x="57.6" y="84.888609" style="stroke: #000000; stroke-width: 0.8"/>
      </g>
     </g>
     <g id="text_13">
      <!-- 6000 -->
      <g transform="translate(25.15 88.687827) scale(0.1 -0.1)">
       <use xlink:href="#DejaVuSans-36"/>
       <use xlink:href="#DejaVuSans-30" x="63.623047"/>
       <use xlink:href="#DejaVuSans-30" x="127.246094"/>
       <use xlink:href="#DejaVuSans-30" x="190.869141"/>
      </g>
     </g>
    </g>
    <g id="ytick_9">
     <g id="line2d_14">
      <g>
       <use xlink:href="#m1adcb3d179" x="57.6" y="53.266105" style="stroke: #000000; stroke-width: 0.8"/>
      </g>
     </g>
     <g id="text_14">
      <!-- 8000 -->
      <g transform="translate(25.15 57.065324) scale(0.1 -0.1)">
       <use xlink:href="#DejaVuSans-38"/>
       <use xlink:href="#DejaVuSans-30" x="63.623047"/>
       <use xlink:href="#DejaVuSans-30" x="127.246094"/>
       <use xlink:href="#DejaVuSans-30" x="190.869141"/>
      </g>
     </g>
    </g>
   </g>
   <g id="line2d_15">
    <path d="M 73.832727 179.452529 
L 75.342748 185.435192 
L 76.85277 176.098016 
L 78.362791 175.760157 
L 79.872812 178.078041 
L 81.382833 175.120398 
L 82.892854 178.330312 
L 84.402875 183.576141 
L 85.912896 179.983682 
L 87.422918 178.232314 
L 88.932939 176.799849 
L 90.44296 176.529165 
L 91.952981 179.572159 
L 93.463002 176.46341 
L 94.973023 176.866567 
L 96.483044 181.580194 
L 97.993066 181.523356 
L 99.503087 181.132344 
L 101.013108 174.671592 
L 102.523129 179.501498 
L 104.03315 180.024119 
L 105.543171 178.947242 
L 107.053192 178.701501 
L 108.563214 179.139276 
L 110.073235 178.461042 
L 113.093277 179.802893 
L 114.603298 179.481452 
L 117.62334 175.539859 
L 119.133362 178.366326 
L 120.643383 178.410148 
L 122.153404 180.644231 
L 123.663425 178.80883 
L 125.173446 178.353129 
L 128.193488 178.808571 
L 129.70351 180.069064 
L 131.213531 180.750478 
L 132.723552 178.948724 
L 134.233573 180.589276 
L 135.743594 179.89963 
L 137.253615 184.158498 
L 138.763636 180.016413 
L 140.273658 179.775688 
L 141.783679 180.352493 
L 143.2937 185.58751 
L 144.803721 178.088983 
L 147.823763 180.23217 
L 149.333784 184.173631 
L 152.353827 176.871059 
L 153.863848 177.563348 
L 155.373869 180.852875 
L 156.88389 178.807806 
L 158.393911 177.369773 
L 161.413953 178.733612 
L 162.923975 177.929134 
L 164.433996 175.88199 
L 165.944017 178.649314 
L 167.454038 178.046475 
L 168.964059 180.175354 
L 170.47408 177.468781 
L 171.984101 176.126845 
L 173.494123 178.335829 
L 175.004144 178.486966 
L 176.514165 178.435158 
L 178.024186 178.881498 
L 179.534207 180.875333 
L 181.044228 179.919949 
L 182.554249 179.511987 
L 184.064271 179.975287 
L 185.574292 177.883416 
L 187.084313 176.331702 
L 188.594334 177.801349 
L 190.104355 175.592952 
L 191.614376 178.861649 
L 193.124397 180.736072 
L 194.634419 178.337438 
L 196.14444 182.00174 
L 197.654461 180.62408 
L 199.164482 178.353039 
L 200.674503 177.848161 
L 202.184524 178.802533 
L 203.694545 177.426865 
L 205.204567 177.55527 
L 206.714588 178.692681 
L 208.224609 177.571022 
L 209.73463 182.043013 
L 211.244651 179.849215 
L 212.754672 179.980278 
L 214.264693 176.749584 
L 215.774715 176.77242 
L 217.284736 180.032214 
L 218.794757 177.938937 
L 220.304778 178.329776 
L 223.32482 181.765283 
L 224.834841 182.938476 
L 226.344863 178.790732 
L 227.854884 187.064922 
L 229.364905 178.71196 
L 230.874926 178.496059 
L 232.384947 186.180364 
L 233.894968 194.517934 
L 235.404989 179.238849 
L 236.915011 166.565101 
L 238.425032 186.624187 
L 239.935053 191.53759 
L 241.445074 175.225954 
L 242.955095 177.180323 
L 244.465116 186.419257 
L 245.975137 168.717015 
L 247.485159 189.011454 
L 248.99518 182.02835 
L 250.505201 153.668239 
L 252.015222 182.049112 
L 255.035264 156.894527 
L 256.545285 179.05315 
L 258.055307 175.623438 
L 259.565328 166.868684 
L 261.075349 177.378894 
L 262.58537 172.808258 
L 264.095391 176.93839 
L 265.605412 187.143536 
L 267.115433 183.932213 
L 268.625455 182.42891 
L 270.135476 173.35488 
L 271.645497 171.062691 
L 273.155518 167.364615 
L 274.665539 186.338242 
L 276.17556 190.494708 
L 277.685581 184.256327 
L 279.195603 171.793951 
L 280.705624 179.883249 
L 282.215645 165.026839 
L 283.725666 170.776483 
L 285.235687 158.050129 
L 286.745708 173.910087 
L 288.255729 177.78685 
L 289.765751 164.194451 
L 291.275772 176.31826 
L 292.785793 168.872958 
L 294.295814 188.308925 
L 295.805835 169.233243 
L 297.315856 179.27014 
L 298.825877 169.439335 
L 300.335899 177.912997 
L 301.84592 188.145627 
L 303.355941 166.207783 
L 304.865962 173.424826 
L 306.375983 170.208995 
L 307.886004 159.649379 
L 309.396025 175.520118 
L 310.906047 175.641774 
L 312.416068 177.096416 
L 313.926089 154.875386 
L 315.43611 180.272991 
L 316.946131 182.255196 
L 318.456152 178.01806 
L 319.966173 178.887464 
L 321.476195 174.725739 
L 322.986216 178.663614 
L 324.496237 167.801406 
L 326.006258 173.825531 
L 327.516279 177.798832 
L 329.0263 173.04078 
L 330.536321 177.044267 
L 332.046342 172.751794 
L 333.556364 180.054155 
L 335.066385 177.125906 
L 336.576406 167.077902 
L 338.086427 176.913151 
L 339.596448 177.926698 
L 341.106469 179.783852 
L 342.61649 174.931173 
L 344.126512 179.557018 
L 345.636533 187.748561 
L 347.146554 183.675444 
L 348.656575 178.572726 
L 350.166596 170.579086 
L 351.676617 180.088337 
L 353.186638 171.75748 
L 354.69666 179.233147 
L 356.206681 181.797671 
L 357.716702 175.667189 
L 359.226723 181.118078 
L 360.736744 169.658483 
L 362.246765 177.329171 
L 363.756786 171.33392 
L 365.266808 175.855418 
L 366.776829 175.146148 
L 368.28685 171.666618 
L 369.796871 185.045475 
L 371.306892 175.925631 
L 372.816913 176.014967 
L 374.326934 172.108751 
L 375.836956 173.862436 
L 377.346977 175.182055 
L 378.856998 169.039434 
L 380.367019 176.787116 
L 381.87704 174.374838 
L 383.387061 180.893243 
L 384.897082 177.067542 
L 386.407104 174.31024 
L 387.917125 182.050427 
L 389.427146 186.26652 
L 390.937167 183.002252 
L 392.447188 175.079654 
L 393.957209 176.231569 
L 395.46723 190.378796 
L 396.977252 173.033724 
L 398.487273 172.65108 
L 398.487273 172.65108 
" clip-path="url(#pc2bee4f4a3)" style="fill: none; stroke: #008000; stroke-opacity: 0.8; stroke-width: 0.5; stroke-linecap: square"/>
   </g>
   <g id="line2d_16">
    <path d="M 73.832727 158.433084 
L 75.342748 161.312863 
L 76.85277 159.218495 
L 78.362791 163.186468 
L 79.872812 163.339842 
L 81.382833 165.269379 
L 82.892854 168.595827 
L 84.402875 174.323228 
L 85.912896 170.353708 
L 87.422918 171.907212 
L 88.932939 166.837173 
L 90.44296 169.306027 
L 91.952981 176.483291 
L 93.463002 165.124666 
L 94.973023 167.449068 
L 96.483044 176.796698 
L 97.993066 171.414184 
L 99.503087 173.671127 
L 101.013108 170.324878 
L 102.523129 173.960526 
L 104.03315 176.419425 
L 105.543171 173.41259 
L 107.053192 173.839899 
L 108.563214 175.22646 
L 110.073235 177.342034 
L 111.583256 172.496911 
L 113.093277 176.63265 
L 114.603298 177.500386 
L 116.113319 170.270182 
L 117.62334 167.981173 
L 119.133362 174.204251 
L 120.643383 176.409378 
L 122.153404 175.52056 
L 125.173446 174.062557 
L 126.683467 177.657718 
L 128.193488 176.959564 
L 129.70351 177.907904 
L 131.213531 177.043956 
L 132.723552 176.760455 
L 134.233573 178.194912 
L 135.743594 178.048064 
L 137.253615 178.380475 
L 138.763636 177.11553 
L 140.273658 174.054231 
L 141.783679 178.125454 
L 143.2937 177.302648 
L 144.803721 169.391664 
L 146.313742 170.004921 
L 147.823763 173.712714 
L 149.333784 173.730751 
L 150.843805 159.130076 
L 152.353827 159.528032 
L 153.863848 156.531713 
L 155.373869 172.657072 
L 156.88389 169.327261 
L 158.393911 164.042294 
L 159.903932 170.574868 
L 161.413953 174.011092 
L 162.923975 174.895722 
L 164.433996 159.961978 
L 165.944017 174.240424 
L 167.454038 175.001539 
L 168.964059 168.587089 
L 170.47408 170.252248 
L 171.984101 171.60626 
L 173.494123 172.212416 
L 175.004144 175.690357 
L 176.514165 173.051629 
L 178.024186 176.007814 
L 179.534207 174.393602 
L 181.044228 176.194444 
L 182.554249 173.181876 
L 184.064271 175.78123 
L 185.574292 170.566027 
L 187.084313 169.298221 
L 188.594334 164.786668 
L 190.104355 132.250573 
L 191.614376 172.399051 
L 193.124397 178.875882 
L 194.634419 171.776547 
L 196.14444 172.507304 
L 197.654461 173.445998 
L 199.164482 164.199696 
L 200.674503 170.403119 
L 202.184524 170.36349 
L 203.694545 170.203618 
L 205.204567 172.37544 
L 206.714588 176.80248 
L 208.224609 176.45814 
L 209.73463 176.914834 
L 211.244651 166.974004 
L 212.754672 176.159173 
L 214.264693 172.442177 
L 215.774715 158.969579 
L 217.284736 174.865726 
L 218.794757 169.924171 
L 220.304778 174.854575 
L 221.814799 175.602374 
L 223.32482 178.032915 
L 224.834841 173.272131 
L 226.344863 165.866709 
L 227.854884 175.447563 
L 229.364905 152.358649 
L 230.874926 163.567654 
L 232.384947 166.65099 
L 233.894968 156.594767 
L 235.404989 133.250784 
L 236.915011 102.914805 
L 238.425032 145.63236 
L 239.935053 146.881901 
L 241.445074 89.782478 
L 242.955095 135.95029 
L 244.465116 120.54253 
L 245.975137 126.883744 
L 247.485159 153.096508 
L 248.99518 140.270243 
L 250.505201 103.208255 
L 252.015222 114.872121 
L 253.525243 53.568 
L 255.035264 82.796495 
L 256.545285 133.019681 
L 258.055307 139.728199 
L 259.565328 113.139222 
L 261.075349 128.902693 
L 262.58537 155.51932 
L 264.095391 156.283946 
L 265.605412 146.030357 
L 267.115433 153.646662 
L 268.625455 151.1676 
L 270.135476 139.880771 
L 271.645497 87.864581 
L 273.155518 101.771712 
L 274.665539 144.425753 
L 276.17556 155.791468 
L 277.685581 122.044005 
L 279.195603 135.486273 
L 280.705624 139.934797 
L 282.215645 117.482387 
L 283.725666 121.550059 
L 285.235687 102.062722 
L 286.745708 126.857558 
L 288.255729 130.426669 
L 289.765751 134.648008 
L 291.275772 160.653482 
L 292.785793 104.839562 
L 294.295814 153.255472 
L 295.805835 117.31859 
L 297.315856 147.366247 
L 298.825877 118.909298 
L 300.335899 157.409366 
L 301.84592 168.381791 
L 303.355941 133.983273 
L 304.865962 131.336039 
L 306.375983 141.533285 
L 307.886004 111.817646 
L 309.396025 138.341944 
L 310.906047 161.746587 
L 312.416068 147.287074 
L 313.926089 103.887285 
L 315.43611 167.384125 
L 316.946131 170.658609 
L 318.456152 157.26853 
L 319.966173 158.545594 
L 321.476195 168.047793 
L 322.986216 162.679635 
L 324.496237 134.493361 
L 326.006258 161.194728 
L 327.516279 152.286042 
L 329.0263 163.824474 
L 330.536321 168.119683 
L 332.046342 164.988492 
L 333.556364 168.284003 
L 335.066385 169.22833 
L 336.576406 129.462344 
L 338.086427 163.513337 
L 339.596448 173.324157 
L 341.106469 173.331923 
L 342.61649 160.278431 
L 344.126512 169.110742 
L 345.636533 180.785898 
L 347.146554 175.430442 
L 348.656575 166.679209 
L 350.166596 153.98604 
L 351.676617 165.302574 
L 353.186638 154.114469 
L 354.69666 150.283854 
L 356.206681 166.898513 
L 357.716702 161.047159 
L 359.226723 169.944678 
L 360.736744 155.552134 
L 362.246765 158.197673 
L 363.756786 159.955737 
L 365.266808 167.934795 
L 366.776829 164.329811 
L 368.28685 155.418847 
L 369.796871 164.408301 
L 371.306892 168.642165 
L 372.816913 162.460775 
L 374.326934 167.461606 
L 375.836956 165.512399 
L 377.346977 169.895285 
L 378.856998 139.891336 
L 380.367019 150.431617 
L 381.87704 164.361931 
L 383.387061 163.120391 
L 384.897082 166.996586 
L 386.407104 163.945106 
L 387.917125 170.286429 
L 389.427146 168.164979 
L 390.937167 168.812128 
L 392.447188 155.034147 
L 393.957209 145.729315 
L 395.46723 164.77361 
L 396.977252 131.903836 
L 398.487273 157.742685 
L 398.487273 157.742685 
" clip-path="url(#pc2bee4f4a3)" style="fill: none; stroke: #32cd32; stroke-opacity: 0.8; stroke-width: 0.5; stroke-linecap: square"/>
   </g>
   <g id="line2d_17">
    <path d="M 73.832727 195.283511 
L 75.342748 200.302048 
L 76.85277 188.23254 
L 78.362791 188.11729 
L 79.872812 189.263365 
L 81.382833 181.459248 
L 82.892854 185.994417 
L 84.402875 195.487692 
L 85.912896 194.083432 
L 87.422918 188.142154 
L 88.932939 183.266478 
L 90.44296 182.068399 
L 91.952981 183.438983 
L 93.463002 182.401841 
L 94.973023 182.381017 
L 96.483044 185.149882 
L 97.993066 193.256423 
L 99.503087 197.974729 
L 101.013108 177.868065 
L 102.523129 183.860417 
L 104.03315 183.693285 
L 107.053192 182.630458 
L 108.563214 183.474368 
L 110.073235 180.549845 
L 111.583256 182.596344 
L 114.603298 182.030045 
L 116.113319 182.491997 
L 117.62334 180.336629 
L 119.133362 185.577329 
L 120.643383 180.842489 
L 122.153404 186.338262 
L 123.663425 182.225079 
L 125.173446 182.318473 
L 126.683467 180.135125 
L 128.193488 180.791273 
L 131.213531 185.407937 
L 132.723552 180.359043 
L 134.233573 182.748623 
L 135.743594 181.945992 
L 137.253615 199.803317 
L 138.763636 185.216392 
L 140.273658 182.454904 
L 141.783679 184.044402 
L 143.2937 198.725895 
L 144.803721 193.273669 
L 146.313742 188.325316 
L 147.823763 187.419747 
L 149.333784 201.029624 
L 150.843805 209.535866 
L 152.353827 192.433382 
L 153.863848 192.797883 
L 155.373869 188.439314 
L 156.88389 193.05318 
L 158.393911 187.437386 
L 159.903932 188.166339 
L 161.413953 184.855338 
L 162.923975 179.420952 
L 164.433996 181.425713 
L 165.944017 184.472097 
L 167.454038 182.230072 
L 168.964059 196.002426 
L 170.47408 181.432398 
L 171.984101 178.743218 
L 173.494123 184.558333 
L 175.004144 181.643752 
L 176.514165 187.80949 
L 178.024186 184.802433 
L 179.534207 187.17846 
L 181.044228 188.391847 
L 182.554249 187.02748 
L 184.064271 184.399518 
L 185.574292 184.660831 
L 187.084313 181.595842 
L 188.594334 184.551278 
L 190.104355 193.812209 
L 191.614376 186.695478 
L 193.124397 184.971324 
L 194.634419 184.930425 
L 196.14444 195.681703 
L 197.654461 192.078053 
L 199.164482 186.266664 
L 200.674503 185.08483 
L 202.184524 188.570742 
L 203.694545 179.873258 
L 205.204567 184.354078 
L 206.714588 182.140971 
L 208.224609 178.756569 
L 209.73463 197.617958 
L 211.244651 186.957884 
L 212.754672 185.960625 
L 214.264693 180.12316 
L 215.774715 182.027347 
L 217.284736 183.095838 
L 218.794757 185.595786 
L 220.304778 181.570423 
L 221.814799 183.609768 
L 223.32482 194.614193 
L 224.834841 203.032223 
L 226.344863 189.483992 
L 227.854884 198.464933 
L 229.364905 201.399834 
L 230.874926 189.978655 
L 232.384947 221.746075 
L 233.894968 237.547681 
L 235.404989 231.19716 
L 236.915011 211.60637 
L 238.425032 224.883254 
L 239.935053 291.824654 
L 241.445074 241.954512 
L 242.955095 249.072616 
L 244.465116 236.495142 
L 245.975137 209.565142 
L 247.485159 228.707256 
L 248.99518 231.058123 
L 250.505201 185.800942 
L 252.015222 255.472062 
L 253.525243 238.03337 
L 255.035264 235.271258 
L 256.545285 208.255141 
L 258.055307 233.892605 
L 259.565328 199.347502 
L 261.075349 211.3155 
L 262.58537 190.182976 
L 264.095391 208.855627 
L 265.605412 214.878542 
L 267.115433 212.731482 
L 268.625455 225.279187 
L 270.135476 205.262789 
L 273.155518 205.369046 
L 274.665539 246.93619 
L 276.17556 240.730511 
L 277.685581 238.977381 
L 279.195603 205.248238 
L 280.705624 246.317807 
L 282.215645 201.765384 
L 283.725666 209.686085 
L 285.235687 194.282068 
L 286.745708 207.497013 
L 288.255729 212.407366 
L 289.765751 193.168363 
L 291.275772 201.478274 
L 292.785793 191.508163 
L 294.295814 240.240962 
L 295.805835 209.34731 
L 297.315856 258.155683 
L 300.335899 199.851047 
L 301.84592 217.099234 
L 303.355941 183.00632 
L 304.865962 192.304495 
L 306.375983 192.301759 
L 307.886004 202.05226 
L 309.396025 197.50305 
L 310.906047 191.077863 
L 312.416068 218.173587 
L 313.926089 177.364868 
L 315.43611 195.829569 
L 316.946131 200.010059 
L 318.456152 198.318307 
L 319.966173 198.118067 
L 321.476195 181.865424 
L 322.986216 192.150963 
L 324.496237 177.331618 
L 326.006258 182.185163 
L 327.516279 211.702557 
L 329.0263 185.157646 
L 330.536321 191.98573 
L 332.046342 182.903363 
L 333.556364 192.823019 
L 335.066385 186.328472 
L 336.576406 198.733925 
L 338.086427 185.985433 
L 339.596448 193.597789 
L 341.106469 189.403107 
L 342.61649 183.539065 
L 344.126512 185.766911 
L 345.636533 198.800788 
L 347.146554 206.010565 
L 348.656575 191.771316 
L 350.166596 179.749398 
L 351.676617 212.337011 
L 353.186638 179.569091 
L 354.69666 211.375875 
L 356.206681 220.23379 
L 357.716702 188.879553 
L 359.226723 202.145417 
L 360.736744 186.974162 
L 362.246765 193.430428 
L 363.756786 182.741588 
L 365.266808 182.79649 
L 366.776829 196.172794 
L 368.28685 195.391782 
L 369.796871 209.858992 
L 371.306892 188.880551 
L 372.816913 189.131387 
L 374.326934 176.981034 
L 375.836956 184.066988 
L 377.346977 188.501455 
L 378.856998 176.481587 
L 380.367019 204.928973 
L 381.87704 186.184206 
L 383.387061 189.129042 
L 384.897082 197.016421 
L 386.407104 181.720294 
L 387.917125 200.309924 
L 389.427146 228.851776 
L 390.937167 197.944281 
L 392.447188 209.265192 
L 393.957209 197.616074 
L 395.46723 218.757844 
L 396.977252 194.813885 
L 398.487273 186.567568 
L 398.487273 186.567568 
" clip-path="url(#pc2bee4f4a3)" style="fill: none; stroke: #32cd32; stroke-opacity: 0.8; stroke-width: 0.5; stroke-linecap: square"/>
   </g>
   <g id="line2d_18">
    <path d="M 73.832727 183.340894 
L 75.342748 190.733419 
L 76.85277 182.489262 
L 78.362791 179.740832 
L 79.872812 183.065282 
L 81.382833 178.331112 
L 82.892854 184.38874 
L 84.402875 187.220662 
L 85.912896 183.73965 
L 87.422918 181.718541 
L 88.932939 181.141151 
L 90.44296 179.753524 
L 91.952981 183.795852 
L 93.463002 180.695272 
L 94.973023 181.694954 
L 96.483044 183.189578 
L 97.993066 183.504328 
L 99.503087 183.281807 
L 101.013108 176.849386 
L 102.523129 182.506509 
L 104.03315 183.820971 
L 105.543171 180.780932 
L 107.053192 182.071041 
L 108.563214 182.663283 
L 110.073235 181.885445 
L 111.583256 182.001517 
L 113.093277 181.806804 
L 114.603298 182.198828 
L 116.113319 178.639974 
L 117.62334 178.408637 
L 119.133362 182.014449 
L 120.643383 180.698099 
L 122.153404 183.151259 
L 123.663425 182.157291 
L 125.173446 181.488874 
L 126.683467 181.795084 
L 128.193488 181.015522 
L 131.213531 182.662941 
L 132.723552 180.625046 
L 134.233573 182.099081 
L 135.743594 180.769071 
L 137.253615 183.840077 
L 138.763636 181.675561 
L 140.273658 181.757337 
L 141.783679 182.45888 
L 143.2937 185.591842 
L 144.803721 181.130823 
L 146.313742 181.102051 
L 147.823763 182.435064 
L 149.333784 185.555705 
L 150.843805 181.284738 
L 152.353827 179.813969 
L 153.863848 180.078963 
L 155.373869 182.77618 
L 156.88389 181.281972 
L 158.393911 179.999222 
L 159.903932 180.345941 
L 161.413953 181.339556 
L 164.433996 178.373365 
L 165.944017 181.075951 
L 167.454038 180.428503 
L 168.964059 182.855096 
L 170.47408 180.163163 
L 171.984101 178.328211 
L 173.494123 181.231527 
L 175.004144 180.450817 
L 176.514165 180.722897 
L 178.024186 181.513819 
L 179.534207 182.992119 
L 181.044228 182.337897 
L 182.554249 182.414181 
L 184.064271 181.65417 
L 185.574292 180.251116 
L 187.084313 178.006535 
L 188.594334 179.405457 
L 190.104355 178.583173 
L 191.614376 181.462817 
L 193.124397 183.382577 
L 194.634419 180.475201 
L 196.14444 183.612743 
L 197.654461 183.123328 
L 199.164482 181.416334 
L 200.674503 180.381403 
L 202.184524 181.920673 
L 203.694545 180.321939 
L 205.204567 179.336376 
L 206.714588 181.617953 
L 208.224609 179.813574 
L 209.73463 183.969251 
L 211.244651 182.777118 
L 212.754672 182.156516 
L 214.264693 179.337285 
L 215.774715 178.943384 
L 217.284736 182.594186 
L 218.794757 180.620863 
L 220.304778 181.017247 
L 221.814799 182.370349 
L 223.32482 184.19438 
L 224.834841 184.80188 
L 226.344863 181.969123 
L 227.854884 185.443174 
L 229.364905 181.429598 
L 230.874926 181.443716 
L 232.384947 189.460896 
L 233.894968 193.181559 
L 235.404989 191.95091 
L 236.915011 169.224466 
L 238.425032 189.372558 
L 239.935053 196.936767 
L 241.445074 184.169787 
L 242.955095 180.45741 
L 244.465116 192.91857 
L 245.975137 173.07273 
L 247.485159 192.101484 
L 248.99518 188.28334 
L 250.505201 157.910917 
L 252.015222 185.712934 
L 253.525243 175.893942 
L 255.035264 162.371819 
L 256.545285 182.283771 
L 258.055307 181.544393 
L 259.565328 173.509183 
L 261.075349 184.167633 
L 262.58537 179.398863 
L 264.095391 181.446901 
L 265.605412 190.990595 
L 267.115433 189.861517 
L 268.625455 189.696044 
L 270.135476 180.578187 
L 271.645497 175.756602 
L 273.155518 174.701079 
L 274.665539 193.868539 
L 276.17556 197.126655 
L 277.685581 190.56681 
L 279.195603 179.353738 
L 280.705624 187.722461 
L 282.215645 171.982402 
L 283.725666 177.876056 
L 285.235687 166.111432 
L 286.745708 180.44269 
L 288.255729 182.619175 
L 289.765751 170.429409 
L 291.275772 183.231267 
L 292.785793 177.430079 
L 294.295814 192.993599 
L 295.805835 175.08645 
L 297.315856 186.694291 
L 298.825877 177.187546 
L 300.335899 186.354303 
L 301.84592 192.688423 
L 303.355941 173.70531 
L 304.865962 180.835809 
L 306.375983 176.773746 
L 307.886004 165.650461 
L 309.396025 185.115038 
L 310.906047 182.272251 
L 312.416068 185.03904 
L 313.926089 168.870019 
L 315.43611 184.839036 
L 316.946131 185.195328 
L 318.456152 183.1865 
L 319.966173 185.037094 
L 321.476195 182.151587 
L 322.986216 183.516339 
L 324.496237 176.772226 
L 326.006258 177.183187 
L 327.516279 181.901672 
L 329.0263 183.306081 
L 330.536321 185.028416 
L 332.046342 181.751025 
L 333.556364 186.435706 
L 335.066385 184.037748 
L 336.576406 175.408244 
L 338.086427 178.813856 
L 339.596448 184.00696 
L 341.106469 184.701638 
L 342.61649 182.49746 
L 344.126512 183.19216 
L 345.636533 191.424183 
L 347.146554 185.843913 
L 348.656575 182.866568 
L 350.166596 176.924714 
L 351.676617 186.613518 
L 353.186638 178.779831 
L 354.69666 182.66161 
L 356.206681 187.661676 
L 357.716702 182.147086 
L 359.226723 186.130576 
L 360.736744 175.773238 
L 362.246765 185.694815 
L 363.756786 176.335423 
L 365.266808 182.019051 
L 366.776829 184.33505 
L 368.28685 181.350837 
L 369.796871 190.809623 
L 371.306892 182.360038 
L 372.816913 181.764136 
L 374.326934 177.451576 
L 375.836956 179.865302 
L 377.346977 181.863486 
L 378.856998 174.479478 
L 380.367019 181.696228 
L 381.87704 180.3669 
L 383.387061 184.904901 
L 384.897082 184.780468 
L 386.407104 181.322264 
L 387.917125 188.413891 
L 389.427146 191.059085 
L 390.937167 185.74337 
L 392.447188 182.491821 
L 393.957209 183.576314 
L 395.46723 192.654602 
L 396.977252 182.049519 
L 398.487273 179.456267 
L 398.487273 179.456267 
" clip-path="url(#pc2bee4f4a3)" style="fill: none; stroke: #ff0000; stroke-opacity: 0.8; stroke-width: 0.5; stroke-linecap: square"/>
   </g>
   <g id="line2d_19">
    <path d="M 73.832727 158.499525 
L 75.342748 179.014901 
L 76.85277 167.562313 
L 78.362791 165.663182 
L 79.872812 171.412854 
L 81.382833 170.478862 
L 82.892854 175.401626 
L 84.402875 178.351099 
L 85.912896 170.898158 
L 87.422918 175.708233 
L 88.932939 169.17145 
L 90.44296 171.625791 
L 91.952981 179.842963 
L 93.463002 167.834673 
L 94.973023 170.705817 
L 96.483044 180.459781 
L 97.993066 172.982558 
L 99.503087 178.538262 
L 101.013108 172.8459 
L 102.523129 177.757797 
L 104.03315 180.362013 
L 105.543171 172.647893 
L 107.053192 175.624699 
L 110.073235 179.664396 
L 111.583256 174.758553 
L 113.093277 180.505971 
L 114.603298 179.429665 
L 116.113319 170.103273 
L 117.62334 170.562824 
L 119.133362 176.93371 
L 120.643383 175.776076 
L 122.153404 179.004104 
L 123.663425 179.963609 
L 125.173446 176.435229 
L 126.683467 179.165878 
L 128.193488 177.774289 
L 129.70351 179.783529 
L 131.213531 177.563416 
L 132.723552 178.217992 
L 134.233573 180.458248 
L 135.743594 177.962758 
L 137.253615 181.360579 
L 138.763636 178.476277 
L 140.273658 176.455675 
L 141.783679 179.849566 
L 143.2937 178.300282 
L 144.803721 171.672396 
L 146.313742 172.229527 
L 147.823763 175.684758 
L 149.333784 178.441431 
L 150.843805 152.943582 
L 152.353827 162.143721 
L 153.863848 160.215854 
L 155.373869 173.355543 
L 156.88389 171.189569 
L 158.393911 165.54168 
L 159.903932 172.51245 
L 161.413953 176.273935 
L 162.923975 175.954889 
L 164.433996 162.235115 
L 165.944017 176.717274 
L 167.454038 177.332446 
L 168.964059 172.463604 
L 170.47408 172.460825 
L 171.984101 173.764163 
L 173.494123 172.25402 
L 175.004144 177.912845 
L 176.514165 173.533296 
L 178.024186 178.59169 
L 181.044228 177.518638 
L 182.554249 175.525448 
L 184.064271 177.874686 
L 185.574292 174.34704 
L 187.084313 171.337087 
L 188.594334 167.871502 
L 190.104355 133.36801 
L 191.614376 175.040639 
L 193.124397 180.902197 
L 194.634419 174.349899 
L 197.654461 178.402536 
L 199.164482 166.970105 
L 200.674503 172.875099 
L 202.184524 172.24407 
L 203.694545 173.626574 
L 205.204567 176.025081 
L 206.714588 179.422087 
L 208.224609 178.292543 
L 209.73463 179.9644 
L 211.244651 171.023352 
L 212.754672 174.829376 
L 214.264693 175.658369 
L 215.774715 160.936243 
L 217.284736 178.441104 
L 218.794757 172.58176 
L 220.304778 178.482748 
L 221.814799 177.72712 
L 223.32482 179.902269 
L 224.834841 176.108197 
L 226.344863 170.561165 
L 227.854884 176.258404 
L 229.364905 155.459187 
L 230.874926 166.641199 
L 232.384947 169.416665 
L 233.894968 169.276569 
L 236.915011 103.282272 
L 238.425032 148.461007 
L 239.935053 157.476964 
L 241.445074 93.730221 
L 242.955095 140.985844 
L 244.465116 126.479468 
L 245.975137 130.772561 
L 247.485159 152.154868 
L 248.99518 145.276703 
L 250.505201 108.56059 
L 252.015222 120.333168 
L 253.525243 63.389695 
L 255.035264 84.506942 
L 256.545285 138.417878 
L 258.055307 146.941522 
L 259.565328 120.351227 
L 261.075349 136.009403 
L 262.58537 159.477425 
L 264.095391 159.590594 
L 265.605412 153.105367 
L 267.115433 161.406691 
L 268.625455 158.950471 
L 270.135476 152.034727 
L 271.645497 91.877136 
L 273.155518 111.409756 
L 274.665539 151.496774 
L 276.17556 159.222245 
L 277.685581 124.209988 
L 279.195603 141.867771 
L 280.705624 153.037267 
L 282.215645 124.304364 
L 283.725666 125.763255 
L 285.235687 108.465818 
L 286.745708 131.303168 
L 288.255729 133.054113 
L 289.765751 139.616799 
L 291.275772 162.933396 
L 292.785793 108.232515 
L 294.295814 156.229333 
L 295.805835 130.416278 
L 297.315856 156.538376 
L 298.825877 129.007987 
L 300.335899 166.468832 
L 301.84592 178.179083 
L 303.355941 139.906384 
L 304.865962 137.587421 
L 306.375983 147.73829 
L 307.886004 89.173528 
L 309.396025 152.032331 
L 310.906047 165.872508 
L 312.416068 153.640106 
L 313.926089 123.980499 
L 315.43611 173.927984 
L 316.946131 171.695667 
L 318.456152 165.713963 
L 319.966173 163.962723 
L 321.476195 176.428276 
L 322.986216 169.658401 
L 324.496237 141.488061 
L 326.006258 151.33408 
L 327.516279 152.588868 
L 329.0263 172.694456 
L 330.536321 177.256551 
L 332.046342 175.008772 
L 333.556364 180.111899 
L 335.066385 176.314532 
L 336.576406 131.797222 
L 339.596448 180.137822 
L 341.106469 178.067128 
L 342.61649 169.954027 
L 345.636533 184.757025 
L 347.146554 173.57995 
L 348.656575 170.248658 
L 350.166596 160.24012 
L 351.676617 174.067545 
L 353.186638 167.403454 
L 354.69666 152.766524 
L 356.206681 167.496799 
L 357.716702 171.524669 
L 359.226723 176.645109 
L 360.736744 160.126292 
L 362.246765 164.98103 
L 363.756786 165.415405 
L 365.266808 170.874378 
L 366.776829 173.711699 
L 368.28685 163.495129 
L 371.306892 174.014419 
L 372.816913 168.111377 
L 374.326934 166.932574 
L 375.836956 170.658658 
L 377.346977 177.137974 
L 378.856998 143.815546 
L 380.367019 163.343266 
L 381.87704 167.522287 
L 383.387061 172.571425 
L 384.897082 174.943399 
L 386.407104 170.31068 
L 387.917125 176.814853 
L 389.427146 177.449886 
L 390.937167 176.475478 
L 392.447188 157.556736 
L 393.957209 158.533687 
L 395.46723 176.042367 
L 396.977252 139.766807 
L 398.487273 167.583251 
L 398.487273 167.583251 
" clip-path="url(#pc2bee4f4a3)" style="fill: none; stroke: #f08080; stroke-opacity: 0.8; stroke-width: 0.5; stroke-linecap: square"/>
   </g>
   <g id="line2d_20">
    <path d="M 73.832727 200.055428 
L 75.342748 202.41576 
L 76.85277 194.702773 
L 78.362791 191.850492 
L 79.872812 192.654588 
L 81.382833 184.707821 
L 82.892854 191.574738 
L 84.402875 199.62711 
L 85.912896 195.817669 
L 87.422918 193.0694 
L 88.932939 188.853488 
L 90.44296 185.849806 
L 91.952981 186.077948 
L 93.463002 187.206188 
L 94.973023 185.556567 
L 96.483044 187.232154 
L 97.993066 192.571697 
L 99.503087 195.000168 
L 101.013108 181.07752 
L 102.523129 187.475365 
L 104.03315 186.788706 
L 105.543171 184.908839 
L 107.053192 186.080653 
L 108.563214 186.727302 
L 110.073235 184.192471 
L 111.583256 186.963207 
L 113.093277 183.832091 
L 116.113319 184.391758 
L 117.62334 188.767267 
L 119.133362 190.387632 
L 120.643383 185.666703 
L 122.153404 188.312488 
L 123.663425 184.670213 
L 125.173446 184.203798 
L 126.683467 183.49234 
L 128.193488 183.481824 
L 129.70351 184.215035 
L 131.213531 186.638719 
L 132.723552 182.851638 
L 134.233573 184.039311 
L 135.743594 182.919805 
L 137.253615 194.005613 
L 138.763636 184.025509 
L 141.783679 186.606186 
L 143.2937 195.467835 
L 144.803721 194.452107 
L 146.313742 191.333318 
L 147.823763 189.60728 
L 149.333784 191.940222 
L 150.843805 201.552167 
L 152.353827 195.661878 
L 153.863848 198.162731 
L 155.373869 190.351037 
L 156.88389 194.462239 
L 158.393911 191.7899 
L 159.903932 191.993892 
L 161.413953 186.919219 
L 162.923975 182.590103 
L 164.433996 183.529514 
L 165.944017 188.492736 
L 167.454038 183.533356 
L 168.964059 197.06712 
L 170.47408 185.215174 
L 171.984101 183.095266 
L 173.494123 187.554865 
L 175.004144 184.157152 
L 176.514165 186.944129 
L 178.024186 186.429957 
L 181.044228 190.983697 
L 182.554249 189.453299 
L 184.064271 186.184295 
L 185.574292 186.09553 
L 187.084313 183.812555 
L 188.594334 187.491003 
L 190.104355 197.515177 
L 191.614376 189.810576 
L 193.124397 187.874929 
L 194.634419 185.145607 
L 196.14444 195.9742 
L 197.654461 193.159267 
L 199.164482 189.724319 
L 200.674503 187.785036 
L 202.184524 191.695308 
L 203.694545 183.735043 
L 205.204567 184.962249 
L 206.714588 185.064536 
L 208.224609 181.744038 
L 209.73463 199.376155 
L 211.244651 189.079857 
L 214.264693 181.97933 
L 215.774715 185.676679 
L 217.284736 185.77511 
L 218.794757 186.202084 
L 220.304778 184.173267 
L 221.814799 186.106085 
L 223.32482 196.508311 
L 224.834841 205.029483 
L 226.344863 191.241793 
L 227.854884 196.886375 
L 229.364905 205.022723 
L 230.874926 190.868486 
L 232.384947 210.974793 
L 233.894968 223.85696 
L 235.404989 232.45872 
L 236.915011 212.435015 
L 238.425032 223.695551 
L 239.935053 295.488 
L 241.445074 247.580647 
L 242.955095 248.713622 
L 244.465116 241.772803 
L 245.975137 215.275591 
L 247.485159 232.642936 
L 248.99518 237.391536 
L 250.505201 189.346277 
L 252.015222 257.037112 
L 253.525243 244.013303 
L 255.035264 242.695096 
L 256.545285 209.849172 
L 258.055307 238.994299 
L 259.565328 203.188331 
L 261.075349 222.889151 
L 262.58537 195.296715 
L 264.095391 212.237871 
L 267.115433 220.864066 
L 268.625455 233.136118 
L 270.135476 211.169343 
L 271.645497 209.771932 
L 273.155518 211.706469 
L 274.665539 252.338807 
L 276.17556 244.930278 
L 277.685581 246.961991 
L 279.195603 210.802398 
L 280.705624 251.34176 
L 282.215645 209.248687 
L 283.725666 223.008684 
L 285.235687 203.725256 
L 286.745708 214.611015 
L 288.255729 218.565801 
L 289.765751 199.001849 
L 291.275772 203.695224 
L 292.785793 222.029417 
L 294.295814 253.310679 
L 295.805835 215.991476 
L 297.315856 267.606411 
L 298.825877 235.930858 
L 300.335899 213.252081 
L 301.84592 218.086254 
L 303.355941 188.716988 
L 304.865962 201.152065 
L 306.375983 193.272471 
L 307.886004 212.368916 
L 309.396025 204.005695 
L 310.906047 199.336662 
L 312.416068 221.25203 
L 313.926089 237.350828 
L 315.43611 198.858516 
L 316.946131 202.597575 
L 318.456152 208.164968 
L 319.966173 207.915228 
L 321.476195 191.601774 
L 322.986216 195.403285 
L 324.496237 191.203341 
L 326.006258 189.415257 
L 327.516279 217.811767 
L 329.0263 201.333243 
L 330.536321 196.661595 
L 332.046342 188.948792 
L 333.556364 195.94314 
L 335.066385 200.099167 
L 336.576406 198.964357 
L 338.086427 191.979166 
L 339.596448 196.764385 
L 341.106469 194.315774 
L 342.61649 185.938341 
L 344.126512 186.531405 
L 345.636533 201.733204 
L 347.146554 210.188494 
L 348.656575 194.27815 
L 350.166596 186.491308 
L 351.676617 218.016346 
L 353.186638 186.364304 
L 354.69666 217.104967 
L 356.206681 221.058577 
L 357.716702 197.1317 
L 359.226723 205.896747 
L 360.736744 193.569755 
L 362.246765 201.632591 
L 363.756786 194.38193 
L 365.266808 190.927153 
L 366.776829 204.228968 
L 368.28685 201.899127 
L 369.796871 211.795665 
L 371.306892 188.605788 
L 372.816913 194.980346 
L 374.326934 182.864249 
L 375.836956 185.592956 
L 377.346977 194.239543 
L 378.856998 186.467757 
L 380.367019 210.581542 
L 381.87704 186.568225 
L 383.387061 192.164904 
L 384.897082 200.980783 
L 386.407104 189.538459 
L 387.917125 206.373084 
L 389.427146 232.274856 
L 390.937167 196.39033 
L 392.447188 213.053771 
L 393.957209 202.068319 
L 395.46723 218.078167 
L 396.977252 206.706962 
L 398.487273 192.329015 
L 398.487273 192.329015 
" clip-path="url(#pc2bee4f4a3)" style="fill: none; stroke: #f08080; stroke-opacity: 0.8; stroke-width: 0.5; stroke-linecap: square"/>
   </g>
   <g id="patch_3">
    <path d="M 57.6 307.584 
L 57.6 41.472 
" style="fill: none; stroke: #000000; stroke-width: 0.8; stroke-linejoin: miter; stroke-linecap: square"/>
   </g>
   <g id="patch_4">
    <path d="M 414.72 307.584 
L 414.72 41.472 
" style="fill: none; stroke: #000000; stroke-width: 0.8; stroke-linejoin: miter; stroke-linecap: square"/>
   </g>
   <g id="patch_5">
    <path d="M 57.6 307.584 
L 414.72 307.584 
" style="fill: none; stroke: #000000; stroke-width: 0.8; stroke-linejoin: miter; stroke-linecap: square"/>
   </g>
   <g id="patch_6">
    <path d="M 57.6 41.472 
L 414.72 41.472 
" style="fill: none; stroke: #000000; stroke-width: 0.8; stroke-linejoin: miter; stroke-linecap: square"/>
   </g>
   <g id="text_15">
    <!-- isomorphism_trend_btcusd -->
    <g transform="translate(155.280937 35.472) scale(0.12 -0.12)">
     <defs>
      <path id="DejaVuSans-69" d="M 603 3500 
L 1178 3500 
L 1178 0 
L 603 0 
L 603 3500 
z
M 603 4863 
L 1178 4863 
L 1178 4134 
L 603 4134 
L 603 4863 
z
" transform="scale(0.015625)"/>
      <path id="DejaVuSans-73" d="M 2834 3397 
L 2834 2853 
Q 2591 2978 2328 3040 
Q 2066 3103 1784 3103 
Q 1356 3103 1142 2972 
Q 928 2841 928 2578 
Q 928 2378 1081 2264 
Q 1234 2150 1697 2047 
L 1894 2003 
Q 2506 1872 2764 1633 
Q 3022 1394 3022 966 
Q 3022 478 2636 193 
Q 2250 -91 1575 -91 
Q 1294 -91 989 -36 
Q 684 19 347 128 
L 347 722 
Q 666 556 975 473 
Q 1284 391 1588 391 
Q 1994 391 2212 530 
Q 2431 669 2431 922 
Q 2431 1156 2273 1281 
Q 2116 1406 1581 1522 
L 1381 1569 
Q 847 1681 609 1914 
Q 372 2147 372 2553 
Q 372 3047 722 3315 
Q 1072 3584 1716 3584 
Q 2034 3584 2315 3537 
Q 2597 3491 2834 3397 
z
" transform="scale(0.015625)"/>
      <path id="DejaVuSans-6f" d="M 1959 3097 
Q 1497 3097 1228 2736 
Q 959 2375 959 1747 
Q 959 1119 1226 758 
Q 1494 397 1959 397 
Q 2419 397 2687 759 
Q 2956 1122 2956 1747 
Q 2956 2369 2687 2733 
Q 2419 3097 1959 3097 
z
M 1959 3584 
Q 2709 3584 3137 3096 
Q 3566 2609 3566 1747 
Q 3566 888 3137 398 
Q 2709 -91 1959 -91 
Q 1206 -91 779 398 
Q 353 888 353 1747 
Q 353 2609 779 3096 
Q 1206 3584 1959 3584 
z
" transform="scale(0.015625)"/>
      <path id="DejaVuSans-6d" d="M 3328 2828 
Q 3544 3216 3844 3400 
Q 4144 3584 4550 3584 
Q 5097 3584 5394 3201 
Q 5691 2819 5691 2113 
L 5691 0 
L 5113 0 
L 5113 2094 
Q 5113 2597 4934 2840 
Q 4756 3084 4391 3084 
Q 3944 3084 3684 2787 
Q 3425 2491 3425 1978 
L 3425 0 
L 2847 0 
L 2847 2094 
Q 2847 2600 2669 2842 
Q 2491 3084 2119 3084 
Q 1678 3084 1418 2786 
Q 1159 2488 1159 1978 
L 1159 0 
L 581 0 
L 581 3500 
L 1159 3500 
L 1159 2956 
Q 1356 3278 1631 3431 
Q 1906 3584 2284 3584 
Q 2666 3584 2933 3390 
Q 3200 3197 3328 2828 
z
" transform="scale(0.015625)"/>
      <path id="DejaVuSans-72" d="M 2631 2963 
Q 2534 3019 2420 3045 
Q 2306 3072 2169 3072 
Q 1681 3072 1420 2755 
Q 1159 2438 1159 1844 
L 1159 0 
L 581 0 
L 581 3500 
L 1159 3500 
L 1159 2956 
Q 1341 3275 1631 3429 
Q 1922 3584 2338 3584 
Q 2397 3584 2469 3576 
Q 2541 3569 2628 3553 
L 2631 2963 
z
" transform="scale(0.015625)"/>
      <path id="DejaVuSans-70" d="M 1159 525 
L 1159 -1331 
L 581 -1331 
L 581 3500 
L 1159 3500 
L 1159 2969 
Q 1341 3281 1617 3432 
Q 1894 3584 2278 3584 
Q 2916 3584 3314 3078 
Q 3713 2572 3713 1747 
Q 3713 922 3314 415 
Q 2916 -91 2278 -91 
Q 1894 -91 1617 61 
Q 1341 213 1159 525 
z
M 3116 1747 
Q 3116 2381 2855 2742 
Q 2594 3103 2138 3103 
Q 1681 3103 1420 2742 
Q 1159 2381 1159 1747 
Q 1159 1113 1420 752 
Q 1681 391 2138 391 
Q 2594 391 2855 752 
Q 3116 1113 3116 1747 
z
" transform="scale(0.015625)"/>
      <path id="DejaVuSans-68" d="M 3513 2113 
L 3513 0 
L 2938 0 
L 2938 2094 
Q 2938 2591 2744 2837 
Q 2550 3084 2163 3084 
Q 1697 3084 1428 2787 
Q 1159 2491 1159 1978 
L 1159 0 
L 581 0 
L 581 4863 
L 1159 4863 
L 1159 2956 
Q 1366 3272 1645 3428 
Q 1925 3584 2291 3584 
Q 2894 3584 3203 3211 
Q 3513 2838 3513 2113 
z
" transform="scale(0.015625)"/>
      <path id="DejaVuSans-5f" d="M 3263 -1063 
L 3263 -1509 
L -63 -1509 
L -63 -1063 
L 3263 -1063 
z
" transform="scale(0.015625)"/>
      <path id="DejaVuSans-74" d="M 1172 4494 
L 1172 3500 
L 2356 3500 
L 2356 3053 
L 1172 3053 
L 1172 1153 
Q 1172 725 1289 603 
Q 1406 481 1766 481 
L 2356 481 
L 2356 0 
L 1766 0 
Q 1100 0 847 248 
Q 594 497 594 1153 
L 594 3053 
L 172 3053 
L 172 3500 
L 594 3500 
L 594 4494 
L 1172 4494 
z
" transform="scale(0.015625)"/>
      <path id="DejaVuSans-65" d="M 3597 1894 
L 3597 1613 
L 953 1613 
Q 991 1019 1311 708 
Q 1631 397 2203 397 
Q 2534 397 2845 478 
Q 3156 559 3463 722 
L 3463 178 
Q 3153 47 2828 -22 
Q 2503 -91 2169 -91 
Q 1331 -91 842 396 
Q 353 884 353 1716 
Q 353 2575 817 3079 
Q 1281 3584 2069 3584 
Q 2775 3584 3186 3129 
Q 3597 2675 3597 1894 
z
M 3022 2063 
Q 3016 2534 2758 2815 
Q 2500 3097 2075 3097 
Q 1594 3097 1305 2825 
Q 1016 2553 972 2059 
L 3022 2063 
z
" transform="scale(0.015625)"/>
      <path id="DejaVuSans-6e" d="M 3513 2113 
L 3513 0 
L 2938 0 
L 2938 2094 
Q 2938 2591 2744 2837 
Q 2550 3084 2163 3084 
Q 1697 3084 1428 2787 
Q 1159 2491 1159 1978 
L 1159 0 
L 581 0 
L 581 3500 
L 1159 3500 
L 1159 2956 
Q 1366 3272 1645 3428 
Q 1925 3584 2291 3584 
Q 2894 3584 3203 3211 
Q 3513 2838 3513 2113 
z
" transform="scale(0.015625)"/>
      <path id="DejaVuSans-64" d="M 2906 2969 
L 2906 4863 
L 3481 4863 
L 3481 0 
L 2906 0 
L 2906 525 
Q 2725 213 2448 61 
Q 2172 -91 1784 -91 
Q 1150 -91 751 415 
Q 353 922 353 1747 
Q 353 2572 751 3078 
Q 1150 3584 1784 3584 
Q 2172 3584 2448 3432 
Q 2725 3281 2906 2969 
z
M 947 1747 
Q 947 1113 1208 752 
Q 1469 391 1925 391 
Q 2381 391 2643 752 
Q 2906 1113 2906 1747 
Q 2906 2381 2643 2742 
Q 2381 3103 1925 3103 
Q 1469 3103 1208 2742 
Q 947 2381 947 1747 
z
" transform="scale(0.015625)"/>
      <path id="DejaVuSans-62" d="M 3116 1747 
Q 3116 2381 2855 2742 
Q 2594 3103 2138 3103 
Q 1681 3103 1420 2742 
Q 1159 2381 1159 1747 
Q 1159 1113 1420 752 
Q 1681 391 2138 391 
Q 2594 391 2855 752 
Q 3116 1113 3116 1747 
z
M 1159 2969 
Q 1341 3281 1617 3432 
Q 1894 3584 2278 3584 
Q 2916 3584 3314 3078 
Q 3713 2572 3713 1747 
Q 3713 922 3314 415 
Q 2916 -91 2278 -91 
Q 1894 -91 1617 61 
Q 1341 213 1159 525 
L 1159 0 
L 581 0 
L 581 4863 
L 1159 4863 
L 1159 2969 
z
" transform="scale(0.015625)"/>
      <path id="DejaVuSans-63" d="M 3122 3366 
L 3122 2828 
Q 2878 2963 2633 3030 
Q 2388 3097 2138 3097 
Q 1578 3097 1268 2742 
Q 959 2388 959 1747 
Q 959 1106 1268 751 
Q 1578 397 2138 397 
Q 2388 397 2633 464 
Q 2878 531 3122 666 
L 3122 134 
Q 2881 22 2623 -34 
Q 2366 -91 2075 -91 
Q 1284 -91 818 406 
Q 353 903 353 1747 
Q 353 2603 823 3093 
Q 1294 3584 2113 3584 
Q 2378 3584 2631 3529 
Q 2884 3475 3122 3366 
z
" transform="scale(0.015625)"/>
      <path id="DejaVuSans-75" d="M 544 1381 
L 544 3500 
L 1119 3500 
L 1119 1403 
Q 1119 906 1312 657 
Q 1506 409 1894 409 
Q 2359 409 2629 706 
Q 2900 1003 2900 1516 
L 2900 3500 
L 3475 3500 
L 3475 0 
L 2900 0 
L 2900 538 
Q 2691 219 2414 64 
Q 2138 -91 1772 -91 
Q 1169 -91 856 284 
Q 544 659 544 1381 
z
M 1991 3584 
L 1991 3584 
z
" transform="scale(0.015625)"/>
     </defs>
     <use xlink:href="#DejaVuSans-69"/>
     <use xlink:href="#DejaVuSans-73" x="27.783203"/>
     <use xlink:href="#DejaVuSans-6f" x="79.882812"/>
     <use xlink:href="#DejaVuSans-6d" x="141.064453"/>
     <use xlink:href="#DejaVuSans-6f" x="238.476562"/>
     <use xlink:href="#DejaVuSans-72" x="299.658203"/>
     <use xlink:href="#DejaVuSans-70" x="340.771484"/>
     <use xlink:href="#DejaVuSans-68" x="404.248047"/>
     <use xlink:href="#DejaVuSans-69" x="467.626953"/>
     <use xlink:href="#DejaVuSans-73" x="495.410156"/>
     <use xlink:href="#DejaVuSans-6d" x="547.509766"/>
     <use xlink:href="#DejaVuSans-5f" x="644.921875"/>
     <use xlink:href="#DejaVuSans-74" x="694.921875"/>
     <use xlink:href="#DejaVuSans-72" x="734.130859"/>
     <use xlink:href="#DejaVuSans-65" x="772.994141"/>
     <use xlink:href="#DejaVuSans-6e" x="834.517578"/>
     <use xlink:href="#DejaVuSans-64" x="897.896484"/>
     <use xlink:href="#DejaVuSans-5f" x="961.373047"/>
     <use xlink:href="#DejaVuSans-62" x="1011.373047"/>
     <use xlink:href="#DejaVuSans-74" x="1074.849609"/>
     <use xlink:href="#DejaVuSans-63" x="1114.058594"/>
     <use xlink:href="#DejaVuSans-75" x="1169.039062"/>
     <use xlink:href="#DejaVuSans-73" x="1232.417969"/>
     <use xlink:href="#DejaVuSans-64" x="1284.517578"/>
    </g>
   </g>
   <g id="legend_1">
    <g id="patch_7">
     <path d="M 64.6 302.584 
L 225.001563 302.584 
Q 227.001563 302.584 227.001563 300.584 
L 227.001563 213.51525 
Q 227.001563 211.51525 225.001563 211.51525 
L 64.6 211.51525 
Q 62.6 211.51525 62.6 213.51525 
L 62.6 300.584 
Q 62.6 302.584 64.6 302.584 
z
" style="fill: #ffffff; opacity: 0.8; stroke: #cccccc; stroke-linejoin: miter"/>
    </g>
    <g id="line2d_21">
     <path d="M 66.6 219.613687 
L 76.6 219.613687 
L 86.6 219.613687 
" style="fill: none; stroke: #008000; stroke-opacity: 0.8; stroke-width: 0.5; stroke-linecap: square"/>
    </g>
    <g id="text_16">
     <!-- Positive predictions -->
     <g transform="translate(94.6 223.113687) scale(0.1 -0.1)">
      <defs>
       <path id="DejaVuSans-50" d="M 1259 4147 
L 1259 2394 
L 2053 2394 
Q 2494 2394 2734 2622 
Q 2975 2850 2975 3272 
Q 2975 3691 2734 3919 
Q 2494 4147 2053 4147 
L 1259 4147 
z
M 628 4666 
L 2053 4666 
Q 2838 4666 3239 4311 
Q 3641 3956 3641 3272 
Q 3641 2581 3239 2228 
Q 2838 1875 2053 1875 
L 1259 1875 
L 1259 0 
L 628 0 
L 628 4666 
z
" transform="scale(0.015625)"/>
       <path id="DejaVuSans-76" d="M 191 3500 
L 800 3500 
L 1894 563 
L 2988 3500 
L 3597 3500 
L 2284 0 
L 1503 0 
L 191 3500 
z
" transform="scale(0.015625)"/>
       <path id="DejaVuSans-20" transform="scale(0.015625)"/>
      </defs>
      <use xlink:href="#DejaVuSans-50"/>
      <use xlink:href="#DejaVuSans-6f" x="56.677734"/>
      <use xlink:href="#DejaVuSans-73" x="117.859375"/>
      <use xlink:href="#DejaVuSans-69" x="169.958984"/>
      <use xlink:href="#DejaVuSans-74" x="197.742188"/>
      <use xlink:href="#DejaVuSans-69" x="236.951172"/>
      <use xlink:href="#DejaVuSans-76" x="264.734375"/>
      <use xlink:href="#DejaVuSans-65" x="323.914062"/>
      <use xlink:href="#DejaVuSans-20" x="385.4375"/>
      <use xlink:href="#DejaVuSans-70" x="417.224609"/>
      <use xlink:href="#DejaVuSans-72" x="480.701172"/>
      <use xlink:href="#DejaVuSans-65" x="519.564453"/>
      <use xlink:href="#DejaVuSans-64" x="581.087891"/>
      <use xlink:href="#DejaVuSans-69" x="644.564453"/>
      <use xlink:href="#DejaVuSans-63" x="672.347656"/>
      <use xlink:href="#DejaVuSans-74" x="727.328125"/>
      <use xlink:href="#DejaVuSans-69" x="766.537109"/>
      <use xlink:href="#DejaVuSans-6f" x="794.320312"/>
      <use xlink:href="#DejaVuSans-6e" x="855.501953"/>
      <use xlink:href="#DejaVuSans-73" x="918.880859"/>
     </g>
    </g>
    <g id="line2d_22">
     <path d="M 66.6 234.291812 
L 76.6 234.291812 
L 86.6 234.291812 
" style="fill: none; stroke: #32cd32; stroke-opacity: 0.8; stroke-width: 0.5; stroke-linecap: square"/>
    </g>
    <g id="text_17">
     <!-- Positive predictions max -->
     <g transform="translate(94.6 237.791812) scale(0.1 -0.1)">
      <defs>
       <path id="DejaVuSans-61" d="M 2194 1759 
Q 1497 1759 1228 1600 
Q 959 1441 959 1056 
Q 959 750 1161 570 
Q 1363 391 1709 391 
Q 2188 391 2477 730 
Q 2766 1069 2766 1631 
L 2766 1759 
L 2194 1759 
z
M 3341 1997 
L 3341 0 
L 2766 0 
L 2766 531 
Q 2569 213 2275 61 
Q 1981 -91 1556 -91 
Q 1019 -91 701 211 
Q 384 513 384 1019 
Q 384 1609 779 1909 
Q 1175 2209 1959 2209 
L 2766 2209 
L 2766 2266 
Q 2766 2663 2505 2880 
Q 2244 3097 1772 3097 
Q 1472 3097 1187 3025 
Q 903 2953 641 2809 
L 641 3341 
Q 956 3463 1253 3523 
Q 1550 3584 1831 3584 
Q 2591 3584 2966 3190 
Q 3341 2797 3341 1997 
z
" transform="scale(0.015625)"/>
       <path id="DejaVuSans-78" d="M 3513 3500 
L 2247 1797 
L 3578 0 
L 2900 0 
L 1881 1375 
L 863 0 
L 184 0 
L 1544 1831 
L 300 3500 
L 978 3500 
L 1906 2253 
L 2834 3500 
L 3513 3500 
z
" transform="scale(0.015625)"/>
      </defs>
      <use xlink:href="#DejaVuSans-50"/>
      <use xlink:href="#DejaVuSans-6f" x="56.677734"/>
      <use xlink:href="#DejaVuSans-73" x="117.859375"/>
      <use xlink:href="#DejaVuSans-69" x="169.958984"/>
      <use xlink:href="#DejaVuSans-74" x="197.742188"/>
      <use xlink:href="#DejaVuSans-69" x="236.951172"/>
      <use xlink:href="#DejaVuSans-76" x="264.734375"/>
      <use xlink:href="#DejaVuSans-65" x="323.914062"/>
      <use xlink:href="#DejaVuSans-20" x="385.4375"/>
      <use xlink:href="#DejaVuSans-70" x="417.224609"/>
      <use xlink:href="#DejaVuSans-72" x="480.701172"/>
      <use xlink:href="#DejaVuSans-65" x="519.564453"/>
      <use xlink:href="#DejaVuSans-64" x="581.087891"/>
      <use xlink:href="#DejaVuSans-69" x="644.564453"/>
      <use xlink:href="#DejaVuSans-63" x="672.347656"/>
      <use xlink:href="#DejaVuSans-74" x="727.328125"/>
      <use xlink:href="#DejaVuSans-69" x="766.537109"/>
      <use xlink:href="#DejaVuSans-6f" x="794.320312"/>
      <use xlink:href="#DejaVuSans-6e" x="855.501953"/>
      <use xlink:href="#DejaVuSans-73" x="918.880859"/>
      <use xlink:href="#DejaVuSans-20" x="970.980469"/>
      <use xlink:href="#DejaVuSans-6d" x="1002.767578"/>
      <use xlink:href="#DejaVuSans-61" x="1100.179688"/>
      <use xlink:href="#DejaVuSans-78" x="1161.458984"/>
     </g>
    </g>
    <g id="line2d_23">
     <path d="M 66.6 248.969937 
L 76.6 248.969937 
L 86.6 248.969937 
" style="fill: none; stroke: #32cd32; stroke-opacity: 0.8; stroke-width: 0.5; stroke-linecap: square"/>
    </g>
    <g id="text_18">
     <!-- Positive predictions min -->
     <g transform="translate(94.6 252.469937) scale(0.1 -0.1)">
      <use xlink:href="#DejaVuSans-50"/>
      <use xlink:href="#DejaVuSans-6f" x="56.677734"/>
      <use xlink:href="#DejaVuSans-73" x="117.859375"/>
      <use xlink:href="#DejaVuSans-69" x="169.958984"/>
      <use xlink:href="#DejaVuSans-74" x="197.742188"/>
      <use xlink:href="#DejaVuSans-69" x="236.951172"/>
      <use xlink:href="#DejaVuSans-76" x="264.734375"/>
      <use xlink:href="#DejaVuSans-65" x="323.914062"/>
      <use xlink:href="#DejaVuSans-20" x="385.4375"/>
      <use xlink:href="#DejaVuSans-70" x="417.224609"/>
      <use xlink:href="#DejaVuSans-72" x="480.701172"/>
      <use xlink:href="#DejaVuSans-65" x="519.564453"/>
      <use xlink:href="#DejaVuSans-64" x="581.087891"/>
      <use xlink:href="#DejaVuSans-69" x="644.564453"/>
      <use xlink:href="#DejaVuSans-63" x="672.347656"/>
      <use xlink:href="#DejaVuSans-74" x="727.328125"/>
      <use xlink:href="#DejaVuSans-69" x="766.537109"/>
      <use xlink:href="#DejaVuSans-6f" x="794.320312"/>
      <use xlink:href="#DejaVuSans-6e" x="855.501953"/>
      <use xlink:href="#DejaVuSans-73" x="918.880859"/>
      <use xlink:href="#DejaVuSans-20" x="970.980469"/>
      <use xlink:href="#DejaVuSans-6d" x="1002.767578"/>
      <use xlink:href="#DejaVuSans-69" x="1100.179688"/>
      <use xlink:href="#DejaVuSans-6e" x="1127.962891"/>
     </g>
    </g>
    <g id="line2d_24">
     <path d="M 66.6 263.648062 
L 76.6 263.648062 
L 86.6 263.648062 
" style="fill: none; stroke: #ff0000; stroke-opacity: 0.8; stroke-width: 0.5; stroke-linecap: square"/>
    </g>
    <g id="text_19">
     <!-- Negative predictions -->
     <g transform="translate(94.6 267.148062) scale(0.1 -0.1)">
      <defs>
       <path id="DejaVuSans-4e" d="M 628 4666 
L 1478 4666 
L 3547 763 
L 3547 4666 
L 4159 4666 
L 4159 0 
L 3309 0 
L 1241 3903 
L 1241 0 
L 628 0 
L 628 4666 
z
" transform="scale(0.015625)"/>
       <path id="DejaVuSans-67" d="M 2906 1791 
Q 2906 2416 2648 2759 
Q 2391 3103 1925 3103 
Q 1463 3103 1205 2759 
Q 947 2416 947 1791 
Q 947 1169 1205 825 
Q 1463 481 1925 481 
Q 2391 481 2648 825 
Q 2906 1169 2906 1791 
z
M 3481 434 
Q 3481 -459 3084 -895 
Q 2688 -1331 1869 -1331 
Q 1566 -1331 1297 -1286 
Q 1028 -1241 775 -1147 
L 775 -588 
Q 1028 -725 1275 -790 
Q 1522 -856 1778 -856 
Q 2344 -856 2625 -561 
Q 2906 -266 2906 331 
L 2906 616 
Q 2728 306 2450 153 
Q 2172 0 1784 0 
Q 1141 0 747 490 
Q 353 981 353 1791 
Q 353 2603 747 3093 
Q 1141 3584 1784 3584 
Q 2172 3584 2450 3431 
Q 2728 3278 2906 2969 
L 2906 3500 
L 3481 3500 
L 3481 434 
z
" transform="scale(0.015625)"/>
      </defs>
      <use xlink:href="#DejaVuSans-4e"/>
      <use xlink:href="#DejaVuSans-65" x="74.804688"/>
      <use xlink:href="#DejaVuSans-67" x="136.328125"/>
      <use xlink:href="#DejaVuSans-61" x="199.804688"/>
      <use xlink:href="#DejaVuSans-74" x="261.083984"/>
      <use xlink:href="#DejaVuSans-69" x="300.292969"/>
      <use xlink:href="#DejaVuSans-76" x="328.076172"/>
      <use xlink:href="#DejaVuSans-65" x="387.255859"/>
      <use xlink:href="#DejaVuSans-20" x="448.779297"/>
      <use xlink:href="#DejaVuSans-70" x="480.566406"/>
      <use xlink:href="#DejaVuSans-72" x="544.042969"/>
      <use xlink:href="#DejaVuSans-65" x="582.90625"/>
      <use xlink:href="#DejaVuSans-64" x="644.429688"/>
      <use xlink:href="#DejaVuSans-69" x="707.90625"/>
      <use xlink:href="#DejaVuSans-63" x="735.689453"/>
      <use xlink:href="#DejaVuSans-74" x="790.669922"/>
      <use xlink:href="#DejaVuSans-69" x="829.878906"/>
      <use xlink:href="#DejaVuSans-6f" x="857.662109"/>
      <use xlink:href="#DejaVuSans-6e" x="918.84375"/>
      <use xlink:href="#DejaVuSans-73" x="982.222656"/>
     </g>
    </g>
    <g id="line2d_25">
     <path d="M 66.6 278.326188 
L 76.6 278.326188 
L 86.6 278.326188 
" style="fill: none; stroke: #f08080; stroke-opacity: 0.8; stroke-width: 0.5; stroke-linecap: square"/>
    </g>
    <g id="text_20">
     <!-- Negative predictions max -->
     <g transform="translate(94.6 281.826188) scale(0.1 -0.1)">
      <use xlink:href="#DejaVuSans-4e"/>
      <use xlink:href="#DejaVuSans-65" x="74.804688"/>
      <use xlink:href="#DejaVuSans-67" x="136.328125"/>
      <use xlink:href="#DejaVuSans-61" x="199.804688"/>
      <use xlink:href="#DejaVuSans-74" x="261.083984"/>
      <use xlink:href="#DejaVuSans-69" x="300.292969"/>
      <use xlink:href="#DejaVuSans-76" x="328.076172"/>
      <use xlink:href="#DejaVuSans-65" x="387.255859"/>
      <use xlink:href="#DejaVuSans-20" x="448.779297"/>
      <use xlink:href="#DejaVuSans-70" x="480.566406"/>
      <use xlink:href="#DejaVuSans-72" x="544.042969"/>
      <use xlink:href="#DejaVuSans-65" x="582.90625"/>
      <use xlink:href="#DejaVuSans-64" x="644.429688"/>
      <use xlink:href="#DejaVuSans-69" x="707.90625"/>
      <use xlink:href="#DejaVuSans-63" x="735.689453"/>
      <use xlink:href="#DejaVuSans-74" x="790.669922"/>
      <use xlink:href="#DejaVuSans-69" x="829.878906"/>
      <use xlink:href="#DejaVuSans-6f" x="857.662109"/>
      <use xlink:href="#DejaVuSans-6e" x="918.84375"/>
      <use xlink:href="#DejaVuSans-73" x="982.222656"/>
      <use xlink:href="#DejaVuSans-20" x="1034.322266"/>
      <use xlink:href="#DejaVuSans-6d" x="1066.109375"/>
      <use xlink:href="#DejaVuSans-61" x="1163.521484"/>
      <use xlink:href="#DejaVuSans-78" x="1224.800781"/>
     </g>
    </g>
    <g id="line2d_26">
     <path d="M 66.6 293.004312 
L 76.6 293.004312 
L 86.6 293.004312 
" style="fill: none; stroke: #f08080; stroke-opacity: 0.8; stroke-width: 0.5; stroke-linecap: square"/>
    </g>
    <g id="text_21">
     <!-- Negative predictions min -->
     <g transform="translate(94.6 296.504312) scale(0.1 -0.1)">
      <use xlink:href="#DejaVuSans-4e"/>
      <use xlink:href="#DejaVuSans-65" x="74.804688"/>
      <use xlink:href="#DejaVuSans-67" x="136.328125"/>
      <use xlink:href="#DejaVuSans-61" x="199.804688"/>
      <use xlink:href="#DejaVuSans-74" x="261.083984"/>
      <use xlink:href="#DejaVuSans-69" x="300.292969"/>
      <use xlink:href="#DejaVuSans-76" x="328.076172"/>
      <use xlink:href="#DejaVuSans-65" x="387.255859"/>
      <use xlink:href="#DejaVuSans-20" x="448.779297"/>
      <use xlink:href="#DejaVuSans-70" x="480.566406"/>
      <use xlink:href="#DejaVuSans-72" x="544.042969"/>
      <use xlink:href="#DejaVuSans-65" x="582.90625"/>
      <use xlink:href="#DejaVuSans-64" x="644.429688"/>
      <use xlink:href="#DejaVuSans-69" x="707.90625"/>
      <use xlink:href="#DejaVuSans-63" x="735.689453"/>
      <use xlink:href="#DejaVuSans-74" x="790.669922"/>
      <use xlink:href="#DejaVuSans-69" x="829.878906"/>
      <use xlink:href="#DejaVuSans-6f" x="857.662109"/>
      <use xlink:href="#DejaVuSans-6e" x="918.84375"/>
      <use xlink:href="#DejaVuSans-73" x="982.222656"/>
      <use xlink:href="#DejaVuSans-20" x="1034.322266"/>
      <use xlink:href="#DejaVuSans-6d" x="1066.109375"/>
      <use xlink:href="#DejaVuSans-69" x="1163.521484"/>
      <use xlink:href="#DejaVuSans-6e" x="1191.304688"/>
     </g>
    </g>
   </g>
  </g>
 </g>
 <defs>
  <clipPath id="pc2bee4f4a3">
   <rect x="57.6" y="41.472" width="357.12" height="266.112"/>
  </clipPath>
 </defs>
</svg>
