<?xml version="1.0" encoding="utf-8" standalone="no"?>
<!DOCTYPE svg PUBLIC "-//W3C//DTD SVG 1.1//EN"
  "http://www.w3.org/Graphics/SVG/1.1/DTD/svg11.dtd">
<svg xmlns:xlink="http://www.w3.org/1999/xlink" width="460.8pt" height="345.6pt" viewBox="0 0 460.8 345.6" xmlns="http://www.w3.org/2000/svg" version="1.1">
 <metadata>
  <rdf:RDF xmlns:dc="http://purl.org/dc/elements/1.1/" xmlns:cc="http://creativecommons.org/ns#" xmlns:rdf="http://www.w3.org/1999/02/22-rdf-syntax-ns#">
   <cc:Work>
    <dc:type rdf:resource="http://purl.org/dc/dcmitype/StillImage"/>
    <dc:date>2024-05-30T09:46:36.202617</dc:date>
    <dc:format>image/svg+xml</dc:format>
    <dc:creator>
     <cc:Agent>
      <dc:title>Matplotlib v3.9.0, https://matplotlib.org/</dc:title>
     </cc:Agent>
    </dc:creator>
   </cc:Work>
  </rdf:RDF>
 </metadata>
 <defs>
  <style type="text/css">*{stroke-linejoin: round; stroke-linecap: butt}</style>
 </defs>
 <g id="figure_1">
  <g id="patch_1">
   <path d="M 0 345.6 
L 460.8 345.6 
L 460.8 0 
L 0 0 
z
" style="fill: #ffffff"/>
  </g>
  <g id="axes_1">
   <g id="patch_2">
    <path d="M 57.6 307.584 
L 414.72 307.584 
L 414.72 41.472 
L 57.6 41.472 
z
" style="fill: #ffffff"/>
   </g>
   <g id="matplotlib.axis_1">
    <g id="xtick_1">
     <g id="line2d_1">
      <defs>
       <path id="m893d5a63c6" d="M 0 0 
L 0 3.5 
" style="stroke: #000000; stroke-width: 0.8"/>
      </defs>
      <g>
       <use xlink:href="#m893d5a63c6" x="73.832727" y="307.584" style="stroke: #000000; stroke-width: 0.8"/>
      </g>
     </g>
     <g id="text_1">
      <!-- 0 -->
      <g transform="translate(70.651477 322.182437) scale(0.1 -0.1)">
       <defs>
        <path id="DejaVuSans-30" d="M 2034 4250 
Q 1547 4250 1301 3770 
Q 1056 3291 1056 2328 
Q 1056 1369 1301 889 
Q 1547 409 2034 409 
Q 2525 409 2770 889 
Q 3016 1369 3016 2328 
Q 3016 3291 2770 3770 
Q 2525 4250 2034 4250 
z
M 2034 4750 
Q 2819 4750 3233 4129 
Q 3647 3509 3647 2328 
Q 3647 1150 3233 529 
Q 2819 -91 2034 -91 
Q 1250 -91 836 529 
Q 422 1150 422 2328 
Q 422 3509 836 4129 
Q 1250 4750 2034 4750 
z
" transform="scale(0.015625)"/>
       </defs>
       <use xlink:href="#DejaVuSans-30"/>
      </g>
     </g>
    </g>
    <g id="xtick_2">
     <g id="line2d_2">
      <g>
       <use xlink:href="#m893d5a63c6" x="118.003414" y="307.584" style="stroke: #000000; stroke-width: 0.8"/>
      </g>
     </g>
     <g id="text_2">
      <!-- 20 -->
      <g transform="translate(111.640914 322.182437) scale(0.1 -0.1)">
       <defs>
        <path id="DejaVuSans-32" d="M 1228 531 
L 3431 531 
L 3431 0 
L 469 0 
L 469 531 
Q 828 903 1448 1529 
Q 2069 2156 2228 2338 
Q 2531 2678 2651 2914 
Q 2772 3150 2772 3378 
Q 2772 3750 2511 3984 
Q 2250 4219 1831 4219 
Q 1534 4219 1204 4116 
Q 875 4013 500 3803 
L 500 4441 
Q 881 4594 1212 4672 
Q 1544 4750 1819 4750 
Q 2544 4750 2975 4387 
Q 3406 4025 3406 3419 
Q 3406 3131 3298 2873 
Q 3191 2616 2906 2266 
Q 2828 2175 2409 1742 
Q 1991 1309 1228 531 
z
" transform="scale(0.015625)"/>
       </defs>
       <use xlink:href="#DejaVuSans-32"/>
       <use xlink:href="#DejaVuSans-30" x="63.623047"/>
      </g>
     </g>
    </g>
    <g id="xtick_3">
     <g id="line2d_3">
      <g>
       <use xlink:href="#m893d5a63c6" x="162.1741" y="307.584" style="stroke: #000000; stroke-width: 0.8"/>
      </g>
     </g>
     <g id="text_3">
      <!-- 40 -->
      <g transform="translate(155.8116 322.182437) scale(0.1 -0.1)">
       <defs>
        <path id="DejaVuSans-34" d="M 2419 4116 
L 825 1625 
L 2419 1625 
L 2419 4116 
z
M 2253 4666 
L 3047 4666 
L 3047 1625 
L 3713 1625 
L 3713 1100 
L 3047 1100 
L 3047 0 
L 2419 0 
L 2419 1100 
L 313 1100 
L 313 1709 
L 2253 4666 
z
" transform="scale(0.015625)"/>
       </defs>
       <use xlink:href="#DejaVuSans-34"/>
       <use xlink:href="#DejaVuSans-30" x="63.623047"/>
      </g>
     </g>
    </g>
    <g id="xtick_4">
     <g id="line2d_4">
      <g>
       <use xlink:href="#m893d5a63c6" x="206.344787" y="307.584" style="stroke: #000000; stroke-width: 0.8"/>
      </g>
     </g>
     <g id="text_4">
      <!-- 60 -->
      <g transform="translate(199.982287 322.182437) scale(0.1 -0.1)">
       <defs>
        <path id="DejaVuSans-36" d="M 2113 2584 
Q 1688 2584 1439 2293 
Q 1191 2003 1191 1497 
Q 1191 994 1439 701 
Q 1688 409 2113 409 
Q 2538 409 2786 701 
Q 3034 994 3034 1497 
Q 3034 2003 2786 2293 
Q 2538 2584 2113 2584 
z
M 3366 4563 
L 3366 3988 
Q 3128 4100 2886 4159 
Q 2644 4219 2406 4219 
Q 1781 4219 1451 3797 
Q 1122 3375 1075 2522 
Q 1259 2794 1537 2939 
Q 1816 3084 2150 3084 
Q 2853 3084 3261 2657 
Q 3669 2231 3669 1497 
Q 3669 778 3244 343 
Q 2819 -91 2113 -91 
Q 1303 -91 875 529 
Q 447 1150 447 2328 
Q 447 3434 972 4092 
Q 1497 4750 2381 4750 
Q 2619 4750 2861 4703 
Q 3103 4656 3366 4563 
z
" transform="scale(0.015625)"/>
       </defs>
       <use xlink:href="#DejaVuSans-36"/>
       <use xlink:href="#DejaVuSans-30" x="63.623047"/>
      </g>
     </g>
    </g>
    <g id="xtick_5">
     <g id="line2d_5">
      <g>
       <use xlink:href="#m893d5a63c6" x="250.515473" y="307.584" style="stroke: #000000; stroke-width: 0.8"/>
      </g>
     </g>
     <g id="text_5">
      <!-- 80 -->
      <g transform="translate(244.152973 322.182437) scale(0.1 -0.1)">
       <defs>
        <path id="DejaVuSans-38" d="M 2034 2216 
Q 1584 2216 1326 1975 
Q 1069 1734 1069 1313 
Q 1069 891 1326 650 
Q 1584 409 2034 409 
Q 2484 409 2743 651 
Q 3003 894 3003 1313 
Q 3003 1734 2745 1975 
Q 2488 2216 2034 2216 
z
M 1403 2484 
Q 997 2584 770 2862 
Q 544 3141 544 3541 
Q 544 4100 942 4425 
Q 1341 4750 2034 4750 
Q 2731 4750 3128 4425 
Q 3525 4100 3525 3541 
Q 3525 3141 3298 2862 
Q 3072 2584 2669 2484 
Q 3125 2378 3379 2068 
Q 3634 1759 3634 1313 
Q 3634 634 3220 271 
Q 2806 -91 2034 -91 
Q 1263 -91 848 271 
Q 434 634 434 1313 
Q 434 1759 690 2068 
Q 947 2378 1403 2484 
z
M 1172 3481 
Q 1172 3119 1398 2916 
Q 1625 2713 2034 2713 
Q 2441 2713 2670 2916 
Q 2900 3119 2900 3481 
Q 2900 3844 2670 4047 
Q 2441 4250 2034 4250 
Q 1625 4250 1398 4047 
Q 1172 3844 1172 3481 
z
" transform="scale(0.015625)"/>
       </defs>
       <use xlink:href="#DejaVuSans-38"/>
       <use xlink:href="#DejaVuSans-30" x="63.623047"/>
      </g>
     </g>
    </g>
    <g id="xtick_6">
     <g id="line2d_6">
      <g>
       <use xlink:href="#m893d5a63c6" x="294.68616" y="307.584" style="stroke: #000000; stroke-width: 0.8"/>
      </g>
     </g>
     <g id="text_6">
      <!-- 100 -->
      <g transform="translate(285.14241 322.182437) scale(0.1 -0.1)">
       <defs>
        <path id="DejaVuSans-31" d="M 794 531 
L 1825 531 
L 1825 4091 
L 703 3866 
L 703 4441 
L 1819 4666 
L 2450 4666 
L 2450 531 
L 3481 531 
L 3481 0 
L 794 0 
L 794 531 
z
" transform="scale(0.015625)"/>
       </defs>
       <use xlink:href="#DejaVuSans-31"/>
       <use xlink:href="#DejaVuSans-30" x="63.623047"/>
       <use xlink:href="#DejaVuSans-30" x="127.246094"/>
      </g>
     </g>
    </g>
    <g id="xtick_7">
     <g id="line2d_7">
      <g>
       <use xlink:href="#m893d5a63c6" x="338.856846" y="307.584" style="stroke: #000000; stroke-width: 0.8"/>
      </g>
     </g>
     <g id="text_7">
      <!-- 120 -->
      <g transform="translate(329.313096 322.182437) scale(0.1 -0.1)">
       <use xlink:href="#DejaVuSans-31"/>
       <use xlink:href="#DejaVuSans-32" x="63.623047"/>
       <use xlink:href="#DejaVuSans-30" x="127.246094"/>
      </g>
     </g>
    </g>
    <g id="xtick_8">
     <g id="line2d_8">
      <g>
       <use xlink:href="#m893d5a63c6" x="383.027532" y="307.584" style="stroke: #000000; stroke-width: 0.8"/>
      </g>
     </g>
     <g id="text_8">
      <!-- 140 -->
      <g transform="translate(373.483782 322.182437) scale(0.1 -0.1)">
       <use xlink:href="#DejaVuSans-31"/>
       <use xlink:href="#DejaVuSans-34" x="63.623047"/>
       <use xlink:href="#DejaVuSans-30" x="127.246094"/>
      </g>
     </g>
    </g>
   </g>
   <g id="matplotlib.axis_2">
    <g id="ytick_1">
     <g id="line2d_9">
      <defs>
       <path id="me36f6d3677" d="M 0 0 
L -3.5 0 
" style="stroke: #000000; stroke-width: 0.8"/>
      </defs>
      <g>
       <use xlink:href="#me36f6d3677" x="57.6" y="304.502933" style="stroke: #000000; stroke-width: 0.8"/>
      </g>
     </g>
     <g id="text_9">
      <!-- −300 -->
      <g transform="translate(23.132812 308.302152) scale(0.1 -0.1)">
       <defs>
        <path id="DejaVuSans-2212" d="M 678 2272 
L 4684 2272 
L 4684 1741 
L 678 1741 
L 678 2272 
z
" transform="scale(0.015625)"/>
        <path id="DejaVuSans-33" d="M 2597 2516 
Q 3050 2419 3304 2112 
Q 3559 1806 3559 1356 
Q 3559 666 3084 287 
Q 2609 -91 1734 -91 
Q 1441 -91 1130 -33 
Q 819 25 488 141 
L 488 750 
Q 750 597 1062 519 
Q 1375 441 1716 441 
Q 2309 441 2620 675 
Q 2931 909 2931 1356 
Q 2931 1769 2642 2001 
Q 2353 2234 1838 2234 
L 1294 2234 
L 1294 2753 
L 1863 2753 
Q 2328 2753 2575 2939 
Q 2822 3125 2822 3475 
Q 2822 3834 2567 4026 
Q 2313 4219 1838 4219 
Q 1578 4219 1281 4162 
Q 984 4106 628 3988 
L 628 4550 
Q 988 4650 1302 4700 
Q 1616 4750 1894 4750 
Q 2613 4750 3031 4423 
Q 3450 4097 3450 3541 
Q 3450 3153 3228 2886 
Q 3006 2619 2597 2516 
z
" transform="scale(0.015625)"/>
       </defs>
       <use xlink:href="#DejaVuSans-2212"/>
       <use xlink:href="#DejaVuSans-33" x="83.789062"/>
       <use xlink:href="#DejaVuSans-30" x="147.412109"/>
       <use xlink:href="#DejaVuSans-30" x="211.035156"/>
      </g>
     </g>
    </g>
    <g id="ytick_2">
     <g id="line2d_10">
      <g>
       <use xlink:href="#me36f6d3677" x="57.6" y="264.525056" style="stroke: #000000; stroke-width: 0.8"/>
      </g>
     </g>
     <g id="text_10">
      <!-- −200 -->
      <g transform="translate(23.132812 268.324275) scale(0.1 -0.1)">
       <use xlink:href="#DejaVuSans-2212"/>
       <use xlink:href="#DejaVuSans-32" x="83.789062"/>
       <use xlink:href="#DejaVuSans-30" x="147.412109"/>
       <use xlink:href="#DejaVuSans-30" x="211.035156"/>
      </g>
     </g>
    </g>
    <g id="ytick_3">
     <g id="line2d_11">
      <g>
       <use xlink:href="#me36f6d3677" x="57.6" y="224.547179" style="stroke: #000000; stroke-width: 0.8"/>
      </g>
     </g>
     <g id="text_11">
      <!-- −100 -->
      <g transform="translate(23.132812 228.346398) scale(0.1 -0.1)">
       <use xlink:href="#DejaVuSans-2212"/>
       <use xlink:href="#DejaVuSans-31" x="83.789062"/>
       <use xlink:href="#DejaVuSans-30" x="147.412109"/>
       <use xlink:href="#DejaVuSans-30" x="211.035156"/>
      </g>
     </g>
    </g>
    <g id="ytick_4">
     <g id="line2d_12">
      <g>
       <use xlink:href="#me36f6d3677" x="57.6" y="184.569302" style="stroke: #000000; stroke-width: 0.8"/>
      </g>
     </g>
     <g id="text_12">
      <!-- 0 -->
      <g transform="translate(44.2375 188.368521) scale(0.1 -0.1)">
       <use xlink:href="#DejaVuSans-30"/>
      </g>
     </g>
    </g>
    <g id="ytick_5">
     <g id="line2d_13">
      <g>
       <use xlink:href="#me36f6d3677" x="57.6" y="144.591425" style="stroke: #000000; stroke-width: 0.8"/>
      </g>
     </g>
     <g id="text_13">
      <!-- 100 -->
      <g transform="translate(31.5125 148.390644) scale(0.1 -0.1)">
       <use xlink:href="#DejaVuSans-31"/>
       <use xlink:href="#DejaVuSans-30" x="63.623047"/>
       <use xlink:href="#DejaVuSans-30" x="127.246094"/>
      </g>
     </g>
    </g>
    <g id="ytick_6">
     <g id="line2d_14">
      <g>
       <use xlink:href="#me36f6d3677" x="57.6" y="104.613548" style="stroke: #000000; stroke-width: 0.8"/>
      </g>
     </g>
     <g id="text_14">
      <!-- 200 -->
      <g transform="translate(31.5125 108.412767) scale(0.1 -0.1)">
       <use xlink:href="#DejaVuSans-32"/>
       <use xlink:href="#DejaVuSans-30" x="63.623047"/>
       <use xlink:href="#DejaVuSans-30" x="127.246094"/>
      </g>
     </g>
    </g>
    <g id="ytick_7">
     <g id="line2d_15">
      <g>
       <use xlink:href="#me36f6d3677" x="57.6" y="64.635671" style="stroke: #000000; stroke-width: 0.8"/>
      </g>
     </g>
     <g id="text_15">
      <!-- 300 -->
      <g transform="translate(31.5125 68.43489) scale(0.1 -0.1)">
       <use xlink:href="#DejaVuSans-33"/>
       <use xlink:href="#DejaVuSans-30" x="63.623047"/>
       <use xlink:href="#DejaVuSans-30" x="127.246094"/>
      </g>
     </g>
    </g>
   </g>
   <g id="line2d_16">
    <path d="M 73.832727 185.20466 
L 76.041262 185.108453 
L 78.249796 175.629084 
L 80.45833 184.272345 
L 82.666865 184.107517 
L 84.875399 184.759971 
L 87.083933 185.796577 
L 89.292468 186.174494 
L 91.501002 180.647987 
L 93.709536 183.7022 
L 95.918071 184.171216 
L 98.126605 184.825397 
L 100.335139 182.811017 
L 102.543673 184.328435 
L 104.752208 182.42975 
L 106.960742 182.858996 
L 109.169276 176.731695 
L 111.377811 176.217171 
L 113.586345 185.297391 
L 115.794879 183.166355 
L 118.003414 178.858204 
L 120.211948 175.427477 
L 122.420482 189.684428 
L 124.629017 186.204306 
L 126.837551 186.88658 
L 129.046085 185.575682 
L 131.25462 182.103577 
L 133.463154 182.434978 
L 135.671688 186.751067 
L 140.088757 178.940683 
L 142.297291 179.191502 
L 144.505826 184.092177 
L 146.71436 186.960092 
L 148.922894 183.68484 
L 151.131429 182.698158 
L 153.339963 175.75246 
L 155.548497 184.32074 
L 157.757032 182.213925 
L 159.965566 187.509855 
L 162.1741 178.039299 
L 164.382635 183.781789 
L 166.591169 185.061817 
L 168.799703 185.918837 
L 171.008237 184.522928 
L 173.216772 182.093585 
L 175.425306 187.692125 
L 177.63384 182.724847 
L 179.842375 180.219382 
L 182.050909 186.351413 
L 184.259443 173.142366 
L 186.467978 171.190645 
L 188.676512 162.544634 
L 190.885046 191.534471 
L 193.093581 188.937701 
L 195.302115 183.325325 
L 197.510649 186.33172 
L 199.719184 190.74652 
L 201.927718 180.322062 
L 204.136252 181.794914 
L 206.344787 185.223206 
L 208.553321 182.819849 
L 210.761855 187.782788 
L 212.97039 188.569003 
L 215.178924 177.032901 
L 217.387458 178.47637 
L 219.595993 190.479336 
L 221.804527 174.758388 
L 224.013061 186.307215 
L 226.221596 182.356415 
L 228.43013 186.794046 
L 230.638664 179.5862 
L 232.847199 185.032584 
L 235.055733 182.680176 
L 239.472801 178.866921 
L 241.681336 176.201823 
L 243.88987 186.736155 
L 246.098404 185.684833 
L 248.306939 185.271547 
L 250.515473 179.630294 
L 252.724007 177.878617 
L 254.932542 183.122827 
L 257.141076 181.512937 
L 259.34961 183.745944 
L 261.558145 185.100477 
L 263.766679 184.068313 
L 265.975213 180.775716 
L 268.183748 183.201676 
L 270.392282 178.293767 
L 272.600816 179.413662 
L 274.809351 176.905806 
L 277.017885 188.768797 
L 279.226419 190.473187 
L 281.434954 180.610116 
L 283.643488 173.586946 
L 285.852022 178.428658 
L 288.060557 189.78554 
L 290.269091 167.639668 
L 292.477625 184.229429 
L 294.68616 175.179853 
L 296.894694 174.814655 
L 299.103228 181.441019 
L 301.311763 189.42666 
L 303.520297 173.007728 
L 305.728831 168.93893 
L 307.937365 173.914606 
L 310.1459 186.574988 
L 312.354434 163.405919 
L 314.562968 184.866354 
L 316.771503 179.690249 
L 318.980037 190.562955 
L 321.188571 190.471789 
L 323.397106 179.768163 
L 325.60564 174.177209 
L 327.814174 170.032057 
L 330.022709 180.037534 
L 332.231243 176.677937 
L 334.439777 182.522622 
L 336.648312 190.501319 
L 338.856846 185.621169 
L 341.06538 169.397032 
L 343.273915 178.861704 
L 345.482449 187.481402 
L 347.690983 190.768837 
L 352.108052 171.488911 
L 354.316586 178.66049 
L 356.525121 182.92218 
L 358.733655 185.050564 
L 360.942189 181.97634 
L 363.150724 176.615887 
L 365.359258 184.132921 
L 367.567792 189.23842 
L 369.776327 182.55423 
L 371.984861 184.462447 
L 374.193395 185.652794 
L 376.401929 174.735036 
L 378.610464 177.731326 
L 380.818998 181.294729 
L 383.027532 173.250901 
L 385.236067 176.695653 
L 387.444601 183.595284 
L 389.653135 181.656662 
L 391.86167 192.463321 
L 394.070204 186.300717 
L 396.278738 187.218853 
L 398.487273 185.425302 
L 398.487273 185.425302 
" clip-path="url(#p05cc7b5b31)" style="fill: none; stroke: #008000; stroke-opacity: 0.8; stroke-width: 0.5; stroke-linecap: square"/>
   </g>
   <g id="line2d_17">
    <path d="M 73.832727 167.247704 
L 76.041262 166.957131 
L 78.249796 153.058187 
L 80.45833 159.639631 
L 82.666865 167.902232 
L 84.875399 173.254856 
L 87.083933 177.431458 
L 89.292468 168.312948 
L 91.501002 174.74994 
L 93.709536 165.653979 
L 95.918071 176.661383 
L 98.126605 173.347271 
L 100.335139 172.515513 
L 102.543673 178.79859 
L 104.752208 174.361871 
L 106.960742 176.60367 
L 109.169276 143.13294 
L 111.377811 147.244359 
L 113.586345 159.112682 
L 115.794879 161.157044 
L 118.003414 146.115154 
L 120.211948 155.797733 
L 122.420482 159.061195 
L 124.629017 174.963845 
L 126.837551 169.489206 
L 129.046085 179.077676 
L 131.25462 170.858264 
L 133.463154 165.067751 
L 135.671688 177.314432 
L 137.880223 177.222788 
L 140.088757 160.411944 
L 142.297291 155.76878 
L 144.505826 168.795195 
L 146.71436 179.040827 
L 148.922894 168.714128 
L 151.131429 171.916806 
L 153.339963 146.69418 
L 155.548497 148.522077 
L 157.757032 153.44451 
L 159.965566 175.825035 
L 162.1741 168.553901 
L 164.382635 158.77064 
L 166.591169 179.510262 
L 168.799703 180.584751 
L 171.008237 175.035868 
L 173.216772 168.883316 
L 175.425306 184.91275 
L 179.842375 159.035266 
L 182.050909 159.288297 
L 184.259443 135.240205 
L 186.467978 89.412807 
L 188.676512 53.568 
L 190.885046 132.331911 
L 193.093581 142.752027 
L 195.302115 144.511659 
L 197.510649 157.144609 
L 199.719184 177.541258 
L 201.927718 101.985843 
L 204.136252 147.201766 
L 206.344787 169.946596 
L 208.553321 167.523248 
L 210.761855 173.508582 
L 212.97039 180.814607 
L 215.178924 139.200837 
L 217.387458 151.802797 
L 219.595993 165.676921 
L 221.804527 157.401388 
L 224.013061 129.220605 
L 226.221596 160.249353 
L 228.43013 175.228281 
L 230.638664 171.159274 
L 232.847199 166.112778 
L 235.055733 166.042086 
L 237.264267 137.476828 
L 239.472801 164.93222 
L 241.681336 145.258917 
L 243.88987 166.100338 
L 246.098404 167.521595 
L 248.306939 165.431472 
L 250.515473 164.226832 
L 252.724007 141.305158 
L 254.932542 171.919336 
L 257.141076 167.699052 
L 259.34961 154.761224 
L 261.558145 171.105431 
L 263.766679 149.487261 
L 265.975213 169.92363 
L 268.183748 157.60753 
L 270.392282 162.911773 
L 272.600816 146.733709 
L 274.809351 140.577625 
L 277.017885 164.70473 
L 279.226419 174.442207 
L 281.434954 161.30515 
L 283.643488 139.124341 
L 285.852022 155.785188 
L 288.060557 170.918051 
L 290.269091 139.488636 
L 292.477625 142.936172 
L 294.68616 140.931707 
L 296.894694 141.680006 
L 299.103228 125.667403 
L 301.311763 147.790394 
L 303.520297 149.176146 
L 305.728831 120.333908 
L 307.937365 123.641647 
L 310.1459 119.120642 
L 312.354434 116.563267 
L 314.562968 132.831642 
L 316.771503 162.312556 
L 318.980037 158.212188 
L 321.188571 165.390775 
L 323.397106 140.125727 
L 325.60564 125.546979 
L 327.814174 116.268819 
L 330.022709 150.576742 
L 332.231243 134.425714 
L 334.439777 137.757626 
L 336.648312 150.381493 
L 338.856846 159.344694 
L 341.06538 136.209873 
L 343.273915 162.156279 
L 345.482449 151.080321 
L 347.690983 164.062322 
L 349.899518 160.77307 
L 352.108052 143.286601 
L 354.316586 146.486813 
L 356.525121 159.179401 
L 358.733655 169.066859 
L 360.942189 149.790862 
L 363.150724 162.548921 
L 365.359258 157.160932 
L 367.567792 176.758905 
L 369.776327 166.815165 
L 371.984861 161.88445 
L 374.193395 172.030242 
L 376.401929 150.642279 
L 378.610464 162.48461 
L 380.818998 163.01814 
L 383.027532 147.195723 
L 385.236067 156.212928 
L 387.444601 160.736255 
L 389.653135 154.651438 
L 391.86167 172.479909 
L 394.070204 174.338483 
L 396.278738 168.938257 
L 398.487273 158.937149 
L 398.487273 158.937149 
" clip-path="url(#p05cc7b5b31)" style="fill: none; stroke: #32cd32; stroke-opacity: 0.8; stroke-width: 0.5; stroke-linecap: square"/>
   </g>
   <g id="line2d_18">
    <path d="M 73.832727 207.91658 
L 76.041262 202.75838 
L 78.249796 210.623286 
L 80.45833 198.141079 
L 82.666865 199.170776 
L 84.875399 195.807866 
L 87.083933 199.08551 
L 89.292468 195.24583 
L 91.501002 186.975077 
L 93.709536 199.67775 
L 95.918071 190.510908 
L 98.126605 198.223066 
L 100.335139 192.728698 
L 102.543673 189.808002 
L 104.752208 189.337234 
L 106.960742 191.805145 
L 109.169276 204.540783 
L 111.377811 200.818148 
L 113.586345 209.348414 
L 115.794879 208.167242 
L 118.003414 200.18171 
L 120.211948 229.151317 
L 124.629017 198.958217 
L 126.837551 196.313155 
L 129.046085 191.649013 
L 131.25462 197.398938 
L 133.463154 192.007982 
L 135.671688 196.177001 
L 140.088757 191.146196 
L 142.297291 193.471452 
L 144.505826 203.538669 
L 146.71436 197.265443 
L 148.922894 194.097353 
L 151.131429 192.137294 
L 153.339963 189.564859 
L 155.548497 204.14314 
L 157.757032 196.020931 
L 159.965566 203.431612 
L 162.1741 187.067723 
L 164.382635 198.049043 
L 166.591169 192.187394 
L 168.799703 191.561195 
L 171.008237 195.496662 
L 173.216772 194.199911 
L 175.425306 191.971244 
L 177.63384 190.588931 
L 179.842375 192.000243 
L 182.050909 199.448325 
L 184.259443 194.507938 
L 186.467978 234.495119 
L 188.676512 272.114997 
L 190.885046 252.595069 
L 193.093581 224.981345 
L 195.302115 207.728508 
L 197.510649 215.902527 
L 199.719184 212.6845 
L 201.927718 209.761353 
L 204.136252 198.517431 
L 206.344787 204.784159 
L 208.553321 195.745683 
L 210.761855 195.760908 
L 212.97039 200.416899 
L 215.178924 208.869073 
L 217.387458 204.953138 
L 219.595993 208.092573 
L 221.804527 187.975967 
L 224.013061 214.458109 
L 226.221596 204.17521 
L 228.43013 205.18283 
L 230.638664 195.8217 
L 232.847199 199.211587 
L 235.055733 202.997597 
L 237.264267 200.824261 
L 239.472801 196.741643 
L 241.681336 213.209049 
L 243.88987 200.568553 
L 246.098404 210.709995 
L 248.306939 202.181381 
L 250.515473 194.809128 
L 252.724007 206.679189 
L 254.932542 198.390258 
L 257.141076 191.690492 
L 259.34961 200.241622 
L 261.558145 202.195134 
L 263.766679 202.941535 
L 265.975213 191.167294 
L 268.183748 197.171366 
L 270.392282 192.460314 
L 272.600816 203.503654 
L 274.809351 196.73322 
L 277.017885 209.401664 
L 279.226419 206.780027 
L 281.434954 191.108004 
L 283.643488 202.456838 
L 285.852022 220.2556 
L 288.060557 213.236179 
L 290.269091 196.63897 
L 292.477625 227.063896 
L 294.68616 207.427907 
L 296.894694 220.935403 
L 299.103228 225.350526 
L 301.311763 209.553722 
L 303.520297 196.320557 
L 305.728831 218.057211 
L 307.937365 226.489622 
L 310.1459 228.212997 
L 312.354434 206.945837 
L 314.562968 232.272598 
L 316.771503 211.286249 
L 318.980037 218.869149 
L 321.188571 217.158932 
L 323.397106 215.59738 
L 325.60564 208.198945 
L 327.814174 208.812352 
L 330.022709 229.927221 
L 332.231243 218.668295 
L 334.439777 213.795296 
L 336.648312 259.280907 
L 338.856846 225.005378 
L 341.06538 198.493441 
L 343.273915 204.174087 
L 345.482449 210.81121 
L 347.690983 210.705731 
L 349.899518 215.76948 
L 352.108052 187.990622 
L 354.316586 209.955014 
L 356.525121 201.872831 
L 358.733655 208.262326 
L 360.942189 207.747852 
L 363.150724 205.981234 
L 365.359258 207.486237 
L 367.567792 217.215306 
L 369.776327 207.400221 
L 371.984861 205.980915 
L 374.193395 205.657112 
L 376.401929 193.980838 
L 378.610464 195.338532 
L 380.818998 209.996299 
L 383.027532 193.643313 
L 385.236067 189.772162 
L 387.444601 201.99171 
L 389.653135 218.696385 
L 391.86167 209.679471 
L 394.070204 201.672699 
L 396.278738 211.820952 
L 398.487273 197.802987 
L 398.487273 197.802987 
" clip-path="url(#p05cc7b5b31)" style="fill: none; stroke: #32cd32; stroke-opacity: 0.8; stroke-width: 0.5; stroke-linecap: square"/>
   </g>
   <g id="line2d_19">
    <path d="M 73.832727 185.07138 
L 76.041262 184.688202 
L 78.249796 180.151611 
L 80.45833 194.402307 
L 82.666865 188.83851 
L 84.875399 190.791851 
L 87.083933 187.736625 
L 89.292468 189.358598 
L 91.501002 184.283293 
L 93.709536 188.403089 
L 95.918071 187.762875 
L 98.126605 189.480214 
L 100.335139 185.874623 
L 102.543673 187.953717 
L 104.752208 186.318815 
L 106.960742 187.969634 
L 109.169276 181.468355 
L 111.377811 182.866876 
L 113.586345 189.282509 
L 115.794879 187.273765 
L 118.003414 184.034825 
L 120.211948 181.594245 
L 122.420482 192.160752 
L 124.629017 189.836456 
L 126.837551 191.075535 
L 129.046085 190.611759 
L 131.25462 186.293001 
L 133.463154 187.330464 
L 135.671688 191.142975 
L 137.880223 189.073383 
L 140.088757 183.372741 
L 142.297291 187.289987 
L 144.505826 187.005964 
L 146.71436 191.070527 
L 148.922894 188.702103 
L 151.131429 186.979683 
L 153.339963 181.517681 
L 155.548497 191.139011 
L 157.757032 188.785138 
L 159.965566 191.910624 
L 162.1741 183.69268 
L 164.382635 189.34772 
L 168.799703 189.906768 
L 171.008237 188.754109 
L 173.216772 187.859584 
L 175.425306 192.233357 
L 177.63384 188.317454 
L 179.842375 186.14044 
L 182.050909 191.37711 
L 184.259443 176.694795 
L 186.467978 177.610191 
L 188.676512 169.725126 
L 190.885046 199.776655 
L 193.093581 195.495794 
L 195.302115 193.336758 
L 197.510649 195.120865 
L 199.719184 196.243068 
L 201.927718 190.103165 
L 204.136252 190.042852 
L 206.344787 193.125411 
L 208.553321 191.494343 
L 210.761855 194.075324 
L 212.97039 196.099559 
L 215.178924 181.152431 
L 217.387458 186.541531 
L 219.595993 198.091219 
L 221.804527 182.937981 
L 224.013061 195.831163 
L 226.221596 187.897213 
L 228.43013 195.485171 
L 230.638664 185.697212 
L 232.847199 193.549176 
L 235.055733 190.085962 
L 237.264267 190.394911 
L 239.472801 185.69299 
L 241.681336 184.816065 
L 243.88987 193.86936 
L 246.098404 195.487534 
L 248.306939 190.730363 
L 250.515473 189.715026 
L 252.724007 184.94721 
L 254.932542 191.970024 
L 257.141076 189.647494 
L 259.34961 190.012908 
L 261.558145 191.963969 
L 263.766679 189.687271 
L 265.975213 190.368627 
L 268.183748 189.83609 
L 270.392282 186.843551 
L 272.600816 189.044236 
L 274.809351 184.712864 
L 277.017885 195.086181 
L 279.226419 195.621199 
L 281.434954 187.366901 
L 283.643488 181.360616 
L 285.852022 188.912349 
L 288.060557 196.952998 
L 290.269091 175.910568 
L 292.477625 187.29189 
L 294.68616 183.986119 
L 296.894694 181.591527 
L 299.103228 189.468433 
L 301.311763 193.329048 
L 303.520297 180.673879 
L 305.728831 178.228676 
L 307.937365 178.781434 
L 310.1459 194.591047 
L 312.354434 173.300044 
L 314.562968 188.754037 
L 316.771503 188.774898 
L 318.980037 198.535407 
L 321.188571 196.859035 
L 323.397106 185.739371 
L 325.60564 181.787888 
L 327.814174 178.747785 
L 330.022709 185.394371 
L 332.231243 186.85597 
L 334.439777 192.653694 
L 336.648312 199.93989 
L 338.856846 196.042625 
L 341.06538 179.903134 
L 343.273915 187.847461 
L 345.482449 195.163091 
L 347.690983 197.356286 
L 349.899518 192.117798 
L 352.108052 179.860495 
L 354.316586 188.602753 
L 356.525121 195.413842 
L 358.733655 192.658463 
L 360.942189 188.79886 
L 363.150724 188.223084 
L 365.359258 193.008431 
L 367.567792 195.945917 
L 369.776327 189.827139 
L 371.984861 194.932895 
L 374.193395 193.891234 
L 376.401929 183.869983 
L 378.610464 182.872452 
L 380.818998 189.828579 
L 383.027532 183.573143 
L 385.236067 182.850212 
L 387.444601 190.745219 
L 389.653135 186.782481 
L 391.86167 197.942266 
L 394.070204 189.765612 
L 396.278738 194.738911 
L 398.487273 192.059063 
L 398.487273 192.059063 
" clip-path="url(#p05cc7b5b31)" style="fill: none; stroke: #ff0000; stroke-opacity: 0.8; stroke-width: 0.5; stroke-linecap: square"/>
   </g>
   <g id="line2d_20">
    <path d="M 73.832727 157.536215 
L 76.041262 170.844583 
L 78.249796 156.375949 
L 80.45833 165.618305 
L 82.666865 170.932353 
L 84.875399 180.634199 
L 87.083933 177.406249 
L 89.292468 171.527757 
L 91.501002 178.898327 
L 93.709536 174.657286 
L 98.126605 178.865237 
L 100.335139 176.195223 
L 102.543673 182.979605 
L 104.752208 179.039403 
L 106.960742 181.123193 
L 109.169276 142.386772 
L 111.377811 151.770149 
L 113.586345 163.603983 
L 115.794879 165.321118 
L 118.003414 152.654468 
L 120.211948 151.899869 
L 124.629017 174.317858 
L 126.837551 175.632239 
L 129.046085 184.383091 
L 131.25462 171.342306 
L 133.463154 168.995272 
L 135.671688 179.402221 
L 137.880223 183.926044 
L 140.088757 170.308875 
L 142.297291 162.293649 
L 144.505826 169.462468 
L 146.71436 183.213143 
L 148.922894 174.618078 
L 151.131429 175.209576 
L 153.339963 146.955833 
L 155.548497 156.677884 
L 157.757032 156.935311 
L 159.965566 181.907979 
L 162.1741 174.631257 
L 164.382635 159.497661 
L 166.591169 180.915986 
L 168.799703 184.892783 
L 171.008237 178.787226 
L 173.216772 175.237909 
L 175.425306 186.898878 
L 177.63384 178.706783 
L 179.842375 161.877368 
L 182.050909 166.052109 
L 184.259443 137.798687 
L 186.467978 97.192868 
L 188.676512 61.0262 
L 190.885046 139.411682 
L 193.093581 151.152897 
L 195.302115 156.254086 
L 197.510649 164.767586 
L 199.719184 184.098702 
L 201.927718 112.23924 
L 204.136252 160.488838 
L 206.344787 179.696755 
L 208.553321 174.497828 
L 210.761855 175.271807 
L 212.97039 181.238573 
L 215.178924 141.551728 
L 217.387458 161.707991 
L 219.595993 174.126577 
L 221.804527 163.046118 
L 224.013061 133.69629 
L 226.221596 169.142856 
L 228.43013 186.315338 
L 230.638664 173.065098 
L 232.847199 170.71733 
L 235.055733 173.754703 
L 237.264267 147.079776 
L 239.472801 170.531971 
L 241.681336 154.71816 
L 243.88987 162.349016 
L 246.098404 176.398993 
L 248.306939 173.648087 
L 250.515473 177.632609 
L 252.724007 143.887929 
L 254.932542 181.731592 
L 257.141076 175.787546 
L 259.34961 160.955478 
L 261.558145 173.132374 
L 263.766679 155.451434 
L 265.975213 179.659736 
L 268.183748 163.202035 
L 270.392282 168.116129 
L 272.600816 152.874636 
L 274.809351 150.416893 
L 277.017885 174.532715 
L 279.226419 177.394458 
L 281.434954 168.007957 
L 283.643488 145.407887 
L 285.852022 163.430516 
L 288.060557 179.324154 
L 290.269091 149.825693 
L 292.477625 148.116974 
L 294.68616 143.372483 
L 296.894694 154.637401 
L 299.103228 136.030288 
L 301.311763 153.862081 
L 303.520297 153.808705 
L 305.728831 130.34601 
L 307.937365 122.29091 
L 310.1459 127.426266 
L 314.562968 144.581442 
L 316.771503 169.260482 
L 318.980037 170.431611 
L 321.188571 176.310183 
L 323.397106 147.28345 
L 325.60564 137.345228 
L 327.814174 122.689901 
L 330.022709 149.112898 
L 332.231243 145.171568 
L 334.439777 150.496009 
L 336.648312 157.03026 
L 338.856846 164.093031 
L 341.06538 149.187893 
L 343.273915 168.723084 
L 345.482449 159.487634 
L 347.690983 167.902982 
L 349.899518 171.651887 
L 352.108052 150.890551 
L 354.316586 159.618507 
L 356.525121 167.523095 
L 358.733655 177.492844 
L 360.942189 158.145749 
L 363.150724 169.509155 
L 365.359258 170.04357 
L 367.567792 178.461506 
L 369.776327 173.844573 
L 371.984861 172.126288 
L 374.193395 176.331076 
L 376.401929 163.318661 
L 378.610464 163.035225 
L 380.818998 169.937985 
L 383.027532 150.938364 
L 385.236067 168.249867 
L 387.444601 169.140914 
L 389.653135 159.700682 
L 391.86167 170.14904 
L 394.070204 179.48784 
L 396.278738 175.62604 
L 398.487273 165.759591 
L 398.487273 165.759591 
" clip-path="url(#p05cc7b5b31)" style="fill: none; stroke: #f08080; stroke-opacity: 0.8; stroke-width: 0.5; stroke-linecap: square"/>
   </g>
   <g id="line2d_21">
    <path d="M 73.832727 204.008576 
L 76.041262 203.598811 
L 78.249796 211.07226 
L 80.45833 213.707938 
L 82.666865 203.30983 
L 84.875399 200.487845 
L 87.083933 192.832509 
L 89.292468 201.521414 
L 91.501002 189.002134 
L 93.709536 199.201895 
L 95.918071 195.078985 
L 98.126605 200.185433 
L 100.335139 194.42796 
L 102.543673 198.016438 
L 104.752208 194.60734 
L 106.960742 197.571389 
L 109.169276 222.975881 
L 111.377811 218.392133 
L 113.586345 212.776496 
L 115.794879 213.615664 
L 118.003414 200.832053 
L 120.211948 257.376961 
L 122.420482 220.015727 
L 124.629017 204.082961 
L 126.837551 199.866177 
L 129.046085 199.476369 
L 131.25462 197.934424 
L 133.463154 197.321181 
L 135.671688 203.259528 
L 137.880223 195.219397 
L 140.088757 195.87362 
L 142.297291 205 
L 144.505826 204.039343 
L 148.922894 199.645268 
L 151.131429 196.22827 
L 153.339963 199.118363 
L 155.548497 212.262063 
L 157.757032 205.850019 
L 159.965566 206.481603 
L 162.1741 191.601617 
L 164.382635 207.744966 
L 166.591169 197.305647 
L 168.799703 194.734772 
L 171.008237 199.528018 
L 173.216772 201.331074 
L 175.425306 200.594862 
L 177.63384 200.461293 
L 179.842375 198.045765 
L 182.050909 208.89491 
L 184.259443 194.542301 
L 186.467978 250.343165 
L 188.676512 295.488 
L 190.885046 259.094777 
L 193.093581 230.438599 
L 195.302115 217.534474 
L 197.510649 229.469577 
L 199.719184 210.958713 
L 201.927718 220.273013 
L 204.136252 212.258717 
L 206.344787 207.023876 
L 208.553321 204.017534 
L 210.761855 202.31148 
L 212.97039 206.560346 
L 215.178924 213.867469 
L 217.387458 214.153394 
L 219.595993 215.718615 
L 221.804527 197.792228 
L 224.013061 222.477371 
L 226.221596 209.853268 
L 228.43013 216.273641 
L 230.638664 201.330137 
L 232.847199 215.040773 
L 235.055733 214.205083 
L 237.264267 214.101217 
L 239.472801 199.836716 
L 241.681336 218.577046 
L 243.88987 214.819663 
L 246.098404 219.139176 
L 248.306939 201.247886 
L 250.515473 199.99454 
L 252.724007 217.380681 
L 254.932542 209.179089 
L 257.141076 197.578386 
L 259.34961 202.08387 
L 261.558145 205.563185 
L 263.766679 208.794971 
L 265.975213 198.799324 
L 268.183748 207.668899 
L 270.392282 200.938062 
L 272.600816 213.798116 
L 274.809351 206.825249 
L 277.017885 222.298172 
L 279.226419 204.479864 
L 281.434954 199.624944 
L 283.643488 213.906068 
L 285.852022 230.640916 
L 288.060557 214.184434 
L 290.269091 202.869222 
L 292.477625 226.109463 
L 294.68616 218.88963 
L 296.894694 231.006753 
L 299.103228 230.790857 
L 301.311763 211.113835 
L 303.520297 202.512247 
L 305.728831 234.307594 
L 307.937365 242.890328 
L 310.1459 233.627481 
L 312.354434 216.343971 
L 314.562968 240.314705 
L 316.771503 216.81755 
L 318.980037 236.216224 
L 321.188571 218.566052 
L 323.397106 222.932536 
L 325.60564 217.22792 
L 327.814174 218.399056 
L 330.022709 239.143871 
L 332.231243 232.19674 
L 334.439777 224.630899 
L 336.648312 269.787148 
L 338.856846 236.252846 
L 341.06538 209.848411 
L 345.482449 223.826741 
L 347.690983 213.931484 
L 349.899518 218.156908 
L 352.108052 194.385412 
L 354.316586 221.399805 
L 356.525121 214.57214 
L 358.733655 217.342993 
L 360.942189 211.858148 
L 363.150724 212.35321 
L 365.359258 215.714051 
L 367.567792 218.584337 
L 369.776327 209.971951 
L 371.984861 215.427871 
L 374.193395 208.711192 
L 376.401929 200.07933 
L 378.610464 213.178688 
L 380.818998 219.403812 
L 383.027532 208.842693 
L 385.236067 193.987587 
L 387.444601 213.954036 
L 389.653135 225.757938 
L 391.86167 227.50316 
L 394.070204 200.914348 
L 396.278738 219.093459 
L 398.487273 204.868848 
L 398.487273 204.868848 
" clip-path="url(#p05cc7b5b31)" style="fill: none; stroke: #f08080; stroke-opacity: 0.8; stroke-width: 0.5; stroke-linecap: square"/>
   </g>
   <g id="patch_3">
    <path d="M 57.6 307.584 
L 57.6 41.472 
" style="fill: none; stroke: #000000; stroke-width: 0.8; stroke-linejoin: miter; stroke-linecap: square"/>
   </g>
   <g id="patch_4">
    <path d="M 414.72 307.584 
L 414.72 41.472 
" style="fill: none; stroke: #000000; stroke-width: 0.8; stroke-linejoin: miter; stroke-linecap: square"/>
   </g>
   <g id="patch_5">
    <path d="M 57.6 307.584 
L 414.72 307.584 
" style="fill: none; stroke: #000000; stroke-width: 0.8; stroke-linejoin: miter; stroke-linecap: square"/>
   </g>
   <g id="patch_6">
    <path d="M 57.6 41.472 
L 414.72 41.472 
" style="fill: none; stroke: #000000; stroke-width: 0.8; stroke-linejoin: miter; stroke-linecap: square"/>
   </g>
   <g id="text_16">
    <!-- isomorphism_trend_linear_snp500 -->
    <g transform="translate(133.317187 35.472) scale(0.12 -0.12)">
     <defs>
      <path id="DejaVuSans-69" d="M 603 3500 
L 1178 3500 
L 1178 0 
L 603 0 
L 603 3500 
z
M 603 4863 
L 1178 4863 
L 1178 4134 
L 603 4134 
L 603 4863 
z
" transform="scale(0.015625)"/>
      <path id="DejaVuSans-73" d="M 2834 3397 
L 2834 2853 
Q 2591 2978 2328 3040 
Q 2066 3103 1784 3103 
Q 1356 3103 1142 2972 
Q 928 2841 928 2578 
Q 928 2378 1081 2264 
Q 1234 2150 1697 2047 
L 1894 2003 
Q 2506 1872 2764 1633 
Q 3022 1394 3022 966 
Q 3022 478 2636 193 
Q 2250 -91 1575 -91 
Q 1294 -91 989 -36 
Q 684 19 347 128 
L 347 722 
Q 666 556 975 473 
Q 1284 391 1588 391 
Q 1994 391 2212 530 
Q 2431 669 2431 922 
Q 2431 1156 2273 1281 
Q 2116 1406 1581 1522 
L 1381 1569 
Q 847 1681 609 1914 
Q 372 2147 372 2553 
Q 372 3047 722 3315 
Q 1072 3584 1716 3584 
Q 2034 3584 2315 3537 
Q 2597 3491 2834 3397 
z
" transform="scale(0.015625)"/>
      <path id="DejaVuSans-6f" d="M 1959 3097 
Q 1497 3097 1228 2736 
Q 959 2375 959 1747 
Q 959 1119 1226 758 
Q 1494 397 1959 397 
Q 2419 397 2687 759 
Q 2956 1122 2956 1747 
Q 2956 2369 2687 2733 
Q 2419 3097 1959 3097 
z
M 1959 3584 
Q 2709 3584 3137 3096 
Q 3566 2609 3566 1747 
Q 3566 888 3137 398 
Q 2709 -91 1959 -91 
Q 1206 -91 779 398 
Q 353 888 353 1747 
Q 353 2609 779 3096 
Q 1206 3584 1959 3584 
z
" transform="scale(0.015625)"/>
      <path id="DejaVuSans-6d" d="M 3328 2828 
Q 3544 3216 3844 3400 
Q 4144 3584 4550 3584 
Q 5097 3584 5394 3201 
Q 5691 2819 5691 2113 
L 5691 0 
L 5113 0 
L 5113 2094 
Q 5113 2597 4934 2840 
Q 4756 3084 4391 3084 
Q 3944 3084 3684 2787 
Q 3425 2491 3425 1978 
L 3425 0 
L 2847 0 
L 2847 2094 
Q 2847 2600 2669 2842 
Q 2491 3084 2119 3084 
Q 1678 3084 1418 2786 
Q 1159 2488 1159 1978 
L 1159 0 
L 581 0 
L 581 3500 
L 1159 3500 
L 1159 2956 
Q 1356 3278 1631 3431 
Q 1906 3584 2284 3584 
Q 2666 3584 2933 3390 
Q 3200 3197 3328 2828 
z
" transform="scale(0.015625)"/>
      <path id="DejaVuSans-72" d="M 2631 2963 
Q 2534 3019 2420 3045 
Q 2306 3072 2169 3072 
Q 1681 3072 1420 2755 
Q 1159 2438 1159 1844 
L 1159 0 
L 581 0 
L 581 3500 
L 1159 3500 
L 1159 2956 
Q 1341 3275 1631 3429 
Q 1922 3584 2338 3584 
Q 2397 3584 2469 3576 
Q 2541 3569 2628 3553 
L 2631 2963 
z
" transform="scale(0.015625)"/>
      <path id="DejaVuSans-70" d="M 1159 525 
L 1159 -1331 
L 581 -1331 
L 581 3500 
L 1159 3500 
L 1159 2969 
Q 1341 3281 1617 3432 
Q 1894 3584 2278 3584 
Q 2916 3584 3314 3078 
Q 3713 2572 3713 1747 
Q 3713 922 3314 415 
Q 2916 -91 2278 -91 
Q 1894 -91 1617 61 
Q 1341 213 1159 525 
z
M 3116 1747 
Q 3116 2381 2855 2742 
Q 2594 3103 2138 3103 
Q 1681 3103 1420 2742 
Q 1159 2381 1159 1747 
Q 1159 1113 1420 752 
Q 1681 391 2138 391 
Q 2594 391 2855 752 
Q 3116 1113 3116 1747 
z
" transform="scale(0.015625)"/>
      <path id="DejaVuSans-68" d="M 3513 2113 
L 3513 0 
L 2938 0 
L 2938 2094 
Q 2938 2591 2744 2837 
Q 2550 3084 2163 3084 
Q 1697 3084 1428 2787 
Q 1159 2491 1159 1978 
L 1159 0 
L 581 0 
L 581 4863 
L 1159 4863 
L 1159 2956 
Q 1366 3272 1645 3428 
Q 1925 3584 2291 3584 
Q 2894 3584 3203 3211 
Q 3513 2838 3513 2113 
z
" transform="scale(0.015625)"/>
      <path id="DejaVuSans-5f" d="M 3263 -1063 
L 3263 -1509 
L -63 -1509 
L -63 -1063 
L 3263 -1063 
z
" transform="scale(0.015625)"/>
      <path id="DejaVuSans-74" d="M 1172 4494 
L 1172 3500 
L 2356 3500 
L 2356 3053 
L 1172 3053 
L 1172 1153 
Q 1172 725 1289 603 
Q 1406 481 1766 481 
L 2356 481 
L 2356 0 
L 1766 0 
Q 1100 0 847 248 
Q 594 497 594 1153 
L 594 3053 
L 172 3053 
L 172 3500 
L 594 3500 
L 594 4494 
L 1172 4494 
z
" transform="scale(0.015625)"/>
      <path id="DejaVuSans-65" d="M 3597 1894 
L 3597 1613 
L 953 1613 
Q 991 1019 1311 708 
Q 1631 397 2203 397 
Q 2534 397 2845 478 
Q 3156 559 3463 722 
L 3463 178 
Q 3153 47 2828 -22 
Q 2503 -91 2169 -91 
Q 1331 -91 842 396 
Q 353 884 353 1716 
Q 353 2575 817 3079 
Q 1281 3584 2069 3584 
Q 2775 3584 3186 3129 
Q 3597 2675 3597 1894 
z
M 3022 2063 
Q 3016 2534 2758 2815 
Q 2500 3097 2075 3097 
Q 1594 3097 1305 2825 
Q 1016 2553 972 2059 
L 3022 2063 
z
" transform="scale(0.015625)"/>
      <path id="DejaVuSans-6e" d="M 3513 2113 
L 3513 0 
L 2938 0 
L 2938 2094 
Q 2938 2591 2744 2837 
Q 2550 3084 2163 3084 
Q 1697 3084 1428 2787 
Q 1159 2491 1159 1978 
L 1159 0 
L 581 0 
L 581 3500 
L 1159 3500 
L 1159 2956 
Q 1366 3272 1645 3428 
Q 1925 3584 2291 3584 
Q 2894 3584 3203 3211 
Q 3513 2838 3513 2113 
z
" transform="scale(0.015625)"/>
      <path id="DejaVuSans-64" d="M 2906 2969 
L 2906 4863 
L 3481 4863 
L 3481 0 
L 2906 0 
L 2906 525 
Q 2725 213 2448 61 
Q 2172 -91 1784 -91 
Q 1150 -91 751 415 
Q 353 922 353 1747 
Q 353 2572 751 3078 
Q 1150 3584 1784 3584 
Q 2172 3584 2448 3432 
Q 2725 3281 2906 2969 
z
M 947 1747 
Q 947 1113 1208 752 
Q 1469 391 1925 391 
Q 2381 391 2643 752 
Q 2906 1113 2906 1747 
Q 2906 2381 2643 2742 
Q 2381 3103 1925 3103 
Q 1469 3103 1208 2742 
Q 947 2381 947 1747 
z
" transform="scale(0.015625)"/>
      <path id="DejaVuSans-6c" d="M 603 4863 
L 1178 4863 
L 1178 0 
L 603 0 
L 603 4863 
z
" transform="scale(0.015625)"/>
      <path id="DejaVuSans-61" d="M 2194 1759 
Q 1497 1759 1228 1600 
Q 959 1441 959 1056 
Q 959 750 1161 570 
Q 1363 391 1709 391 
Q 2188 391 2477 730 
Q 2766 1069 2766 1631 
L 2766 1759 
L 2194 1759 
z
M 3341 1997 
L 3341 0 
L 2766 0 
L 2766 531 
Q 2569 213 2275 61 
Q 1981 -91 1556 -91 
Q 1019 -91 701 211 
Q 384 513 384 1019 
Q 384 1609 779 1909 
Q 1175 2209 1959 2209 
L 2766 2209 
L 2766 2266 
Q 2766 2663 2505 2880 
Q 2244 3097 1772 3097 
Q 1472 3097 1187 3025 
Q 903 2953 641 2809 
L 641 3341 
Q 956 3463 1253 3523 
Q 1550 3584 1831 3584 
Q 2591 3584 2966 3190 
Q 3341 2797 3341 1997 
z
" transform="scale(0.015625)"/>
      <path id="DejaVuSans-35" d="M 691 4666 
L 3169 4666 
L 3169 4134 
L 1269 4134 
L 1269 2991 
Q 1406 3038 1543 3061 
Q 1681 3084 1819 3084 
Q 2600 3084 3056 2656 
Q 3513 2228 3513 1497 
Q 3513 744 3044 326 
Q 2575 -91 1722 -91 
Q 1428 -91 1123 -41 
Q 819 9 494 109 
L 494 744 
Q 775 591 1075 516 
Q 1375 441 1709 441 
Q 2250 441 2565 725 
Q 2881 1009 2881 1497 
Q 2881 1984 2565 2268 
Q 2250 2553 1709 2553 
Q 1456 2553 1204 2497 
Q 953 2441 691 2322 
L 691 4666 
z
" transform="scale(0.015625)"/>
     </defs>
     <use xlink:href="#DejaVuSans-69"/>
     <use xlink:href="#DejaVuSans-73" x="27.783203"/>
     <use xlink:href="#DejaVuSans-6f" x="79.882812"/>
     <use xlink:href="#DejaVuSans-6d" x="141.064453"/>
     <use xlink:href="#DejaVuSans-6f" x="238.476562"/>
     <use xlink:href="#DejaVuSans-72" x="299.658203"/>
     <use xlink:href="#DejaVuSans-70" x="340.771484"/>
     <use xlink:href="#DejaVuSans-68" x="404.248047"/>
     <use xlink:href="#DejaVuSans-69" x="467.626953"/>
     <use xlink:href="#DejaVuSans-73" x="495.410156"/>
     <use xlink:href="#DejaVuSans-6d" x="547.509766"/>
     <use xlink:href="#DejaVuSans-5f" x="644.921875"/>
     <use xlink:href="#DejaVuSans-74" x="694.921875"/>
     <use xlink:href="#DejaVuSans-72" x="734.130859"/>
     <use xlink:href="#DejaVuSans-65" x="772.994141"/>
     <use xlink:href="#DejaVuSans-6e" x="834.517578"/>
     <use xlink:href="#DejaVuSans-64" x="897.896484"/>
     <use xlink:href="#DejaVuSans-5f" x="961.373047"/>
     <use xlink:href="#DejaVuSans-6c" x="1011.373047"/>
     <use xlink:href="#DejaVuSans-69" x="1039.15625"/>
     <use xlink:href="#DejaVuSans-6e" x="1066.939453"/>
     <use xlink:href="#DejaVuSans-65" x="1130.318359"/>
     <use xlink:href="#DejaVuSans-61" x="1191.841797"/>
     <use xlink:href="#DejaVuSans-72" x="1253.121094"/>
     <use xlink:href="#DejaVuSans-5f" x="1294.234375"/>
     <use xlink:href="#DejaVuSans-73" x="1344.234375"/>
     <use xlink:href="#DejaVuSans-6e" x="1396.333984"/>
     <use xlink:href="#DejaVuSans-70" x="1459.712891"/>
     <use xlink:href="#DejaVuSans-35" x="1523.189453"/>
     <use xlink:href="#DejaVuSans-30" x="1586.8125"/>
     <use xlink:href="#DejaVuSans-30" x="1650.435547"/>
    </g>
   </g>
   <g id="legend_1">
    <g id="patch_7">
     <path d="M 64.6 137.54075 
L 225.001563 137.54075 
Q 227.001563 137.54075 227.001563 135.54075 
L 227.001563 48.472 
Q 227.001563 46.472 225.001563 46.472 
L 64.6 46.472 
Q 62.6 46.472 62.6 48.472 
L 62.6 135.54075 
Q 62.6 137.54075 64.6 137.54075 
z
" style="fill: #ffffff; opacity: 0.8; stroke: #cccccc; stroke-linejoin: miter"/>
    </g>
    <g id="line2d_22">
     <path d="M 66.6 54.570438 
L 76.6 54.570438 
L 86.6 54.570438 
" style="fill: none; stroke: #008000; stroke-opacity: 0.8; stroke-width: 0.5; stroke-linecap: square"/>
    </g>
    <g id="text_17">
     <!-- Positive predictions -->
     <g transform="translate(94.6 58.070438) scale(0.1 -0.1)">
      <defs>
       <path id="DejaVuSans-50" d="M 1259 4147 
L 1259 2394 
L 2053 2394 
Q 2494 2394 2734 2622 
Q 2975 2850 2975 3272 
Q 2975 3691 2734 3919 
Q 2494 4147 2053 4147 
L 1259 4147 
z
M 628 4666 
L 2053 4666 
Q 2838 4666 3239 4311 
Q 3641 3956 3641 3272 
Q 3641 2581 3239 2228 
Q 2838 1875 2053 1875 
L 1259 1875 
L 1259 0 
L 628 0 
L 628 4666 
z
" transform="scale(0.015625)"/>
       <path id="DejaVuSans-76" d="M 191 3500 
L 800 3500 
L 1894 563 
L 2988 3500 
L 3597 3500 
L 2284 0 
L 1503 0 
L 191 3500 
z
" transform="scale(0.015625)"/>
       <path id="DejaVuSans-20" transform="scale(0.015625)"/>
       <path id="DejaVuSans-63" d="M 3122 3366 
L 3122 2828 
Q 2878 2963 2633 3030 
Q 2388 3097 2138 3097 
Q 1578 3097 1268 2742 
Q 959 2388 959 1747 
Q 959 1106 1268 751 
Q 1578 397 2138 397 
Q 2388 397 2633 464 
Q 2878 531 3122 666 
L 3122 134 
Q 2881 22 2623 -34 
Q 2366 -91 2075 -91 
Q 1284 -91 818 406 
Q 353 903 353 1747 
Q 353 2603 823 3093 
Q 1294 3584 2113 3584 
Q 2378 3584 2631 3529 
Q 2884 3475 3122 3366 
z
" transform="scale(0.015625)"/>
      </defs>
      <use xlink:href="#DejaVuSans-50"/>
      <use xlink:href="#DejaVuSans-6f" x="56.677734"/>
      <use xlink:href="#DejaVuSans-73" x="117.859375"/>
      <use xlink:href="#DejaVuSans-69" x="169.958984"/>
      <use xlink:href="#DejaVuSans-74" x="197.742188"/>
      <use xlink:href="#DejaVuSans-69" x="236.951172"/>
      <use xlink:href="#DejaVuSans-76" x="264.734375"/>
      <use xlink:href="#DejaVuSans-65" x="323.914062"/>
      <use xlink:href="#DejaVuSans-20" x="385.4375"/>
      <use xlink:href="#DejaVuSans-70" x="417.224609"/>
      <use xlink:href="#DejaVuSans-72" x="480.701172"/>
      <use xlink:href="#DejaVuSans-65" x="519.564453"/>
      <use xlink:href="#DejaVuSans-64" x="581.087891"/>
      <use xlink:href="#DejaVuSans-69" x="644.564453"/>
      <use xlink:href="#DejaVuSans-63" x="672.347656"/>
      <use xlink:href="#DejaVuSans-74" x="727.328125"/>
      <use xlink:href="#DejaVuSans-69" x="766.537109"/>
      <use xlink:href="#DejaVuSans-6f" x="794.320312"/>
      <use xlink:href="#DejaVuSans-6e" x="855.501953"/>
      <use xlink:href="#DejaVuSans-73" x="918.880859"/>
     </g>
    </g>
    <g id="line2d_23">
     <path d="M 66.6 69.248563 
L 76.6 69.248563 
L 86.6 69.248563 
" style="fill: none; stroke: #32cd32; stroke-opacity: 0.8; stroke-width: 0.5; stroke-linecap: square"/>
    </g>
    <g id="text_18">
     <!-- Positive predictions max -->
     <g transform="translate(94.6 72.748563) scale(0.1 -0.1)">
      <defs>
       <path id="DejaVuSans-78" d="M 3513 3500 
L 2247 1797 
L 3578 0 
L 2900 0 
L 1881 1375 
L 863 0 
L 184 0 
L 1544 1831 
L 300 3500 
L 978 3500 
L 1906 2253 
L 2834 3500 
L 3513 3500 
z
" transform="scale(0.015625)"/>
      </defs>
      <use xlink:href="#DejaVuSans-50"/>
      <use xlink:href="#DejaVuSans-6f" x="56.677734"/>
      <use xlink:href="#DejaVuSans-73" x="117.859375"/>
      <use xlink:href="#DejaVuSans-69" x="169.958984"/>
      <use xlink:href="#DejaVuSans-74" x="197.742188"/>
      <use xlink:href="#DejaVuSans-69" x="236.951172"/>
      <use xlink:href="#DejaVuSans-76" x="264.734375"/>
      <use xlink:href="#DejaVuSans-65" x="323.914062"/>
      <use xlink:href="#DejaVuSans-20" x="385.4375"/>
      <use xlink:href="#DejaVuSans-70" x="417.224609"/>
      <use xlink:href="#DejaVuSans-72" x="480.701172"/>
      <use xlink:href="#DejaVuSans-65" x="519.564453"/>
      <use xlink:href="#DejaVuSans-64" x="581.087891"/>
      <use xlink:href="#DejaVuSans-69" x="644.564453"/>
      <use xlink:href="#DejaVuSans-63" x="672.347656"/>
      <use xlink:href="#DejaVuSans-74" x="727.328125"/>
      <use xlink:href="#DejaVuSans-69" x="766.537109"/>
      <use xlink:href="#DejaVuSans-6f" x="794.320312"/>
      <use xlink:href="#DejaVuSans-6e" x="855.501953"/>
      <use xlink:href="#DejaVuSans-73" x="918.880859"/>
      <use xlink:href="#DejaVuSans-20" x="970.980469"/>
      <use xlink:href="#DejaVuSans-6d" x="1002.767578"/>
      <use xlink:href="#DejaVuSans-61" x="1100.179688"/>
      <use xlink:href="#DejaVuSans-78" x="1161.458984"/>
     </g>
    </g>
    <g id="line2d_24">
     <path d="M 66.6 83.926688 
L 76.6 83.926688 
L 86.6 83.926688 
" style="fill: none; stroke: #32cd32; stroke-opacity: 0.8; stroke-width: 0.5; stroke-linecap: square"/>
    </g>
    <g id="text_19">
     <!-- Positive predictions min -->
     <g transform="translate(94.6 87.426688) scale(0.1 -0.1)">
      <use xlink:href="#DejaVuSans-50"/>
      <use xlink:href="#DejaVuSans-6f" x="56.677734"/>
      <use xlink:href="#DejaVuSans-73" x="117.859375"/>
      <use xlink:href="#DejaVuSans-69" x="169.958984"/>
      <use xlink:href="#DejaVuSans-74" x="197.742188"/>
      <use xlink:href="#DejaVuSans-69" x="236.951172"/>
      <use xlink:href="#DejaVuSans-76" x="264.734375"/>
      <use xlink:href="#DejaVuSans-65" x="323.914062"/>
      <use xlink:href="#DejaVuSans-20" x="385.4375"/>
      <use xlink:href="#DejaVuSans-70" x="417.224609"/>
      <use xlink:href="#DejaVuSans-72" x="480.701172"/>
      <use xlink:href="#DejaVuSans-65" x="519.564453"/>
      <use xlink:href="#DejaVuSans-64" x="581.087891"/>
      <use xlink:href="#DejaVuSans-69" x="644.564453"/>
      <use xlink:href="#DejaVuSans-63" x="672.347656"/>
      <use xlink:href="#DejaVuSans-74" x="727.328125"/>
      <use xlink:href="#DejaVuSans-69" x="766.537109"/>
      <use xlink:href="#DejaVuSans-6f" x="794.320312"/>
      <use xlink:href="#DejaVuSans-6e" x="855.501953"/>
      <use xlink:href="#DejaVuSans-73" x="918.880859"/>
      <use xlink:href="#DejaVuSans-20" x="970.980469"/>
      <use xlink:href="#DejaVuSans-6d" x="1002.767578"/>
      <use xlink:href="#DejaVuSans-69" x="1100.179688"/>
      <use xlink:href="#DejaVuSans-6e" x="1127.962891"/>
     </g>
    </g>
    <g id="line2d_25">
     <path d="M 66.6 98.604813 
L 76.6 98.604813 
L 86.6 98.604813 
" style="fill: none; stroke: #ff0000; stroke-opacity: 0.8; stroke-width: 0.5; stroke-linecap: square"/>
    </g>
    <g id="text_20">
     <!-- Negative predictions -->
     <g transform="translate(94.6 102.104813) scale(0.1 -0.1)">
      <defs>
       <path id="DejaVuSans-4e" d="M 628 4666 
L 1478 4666 
L 3547 763 
L 3547 4666 
L 4159 4666 
L 4159 0 
L 3309 0 
L 1241 3903 
L 1241 0 
L 628 0 
L 628 4666 
z
" transform="scale(0.015625)"/>
       <path id="DejaVuSans-67" d="M 2906 1791 
Q 2906 2416 2648 2759 
Q 2391 3103 1925 3103 
Q 1463 3103 1205 2759 
Q 947 2416 947 1791 
Q 947 1169 1205 825 
Q 1463 481 1925 481 
Q 2391 481 2648 825 
Q 2906 1169 2906 1791 
z
M 3481 434 
Q 3481 -459 3084 -895 
Q 2688 -1331 1869 -1331 
Q 1566 -1331 1297 -1286 
Q 1028 -1241 775 -1147 
L 775 -588 
Q 1028 -725 1275 -790 
Q 1522 -856 1778 -856 
Q 2344 -856 2625 -561 
Q 2906 -266 2906 331 
L 2906 616 
Q 2728 306 2450 153 
Q 2172 0 1784 0 
Q 1141 0 747 490 
Q 353 981 353 1791 
Q 353 2603 747 3093 
Q 1141 3584 1784 3584 
Q 2172 3584 2450 3431 
Q 2728 3278 2906 2969 
L 2906 3500 
L 3481 3500 
L 3481 434 
z
" transform="scale(0.015625)"/>
      </defs>
      <use xlink:href="#DejaVuSans-4e"/>
      <use xlink:href="#DejaVuSans-65" x="74.804688"/>
      <use xlink:href="#DejaVuSans-67" x="136.328125"/>
      <use xlink:href="#DejaVuSans-61" x="199.804688"/>
      <use xlink:href="#DejaVuSans-74" x="261.083984"/>
      <use xlink:href="#DejaVuSans-69" x="300.292969"/>
      <use xlink:href="#DejaVuSans-76" x="328.076172"/>
      <use xlink:href="#DejaVuSans-65" x="387.255859"/>
      <use xlink:href="#DejaVuSans-20" x="448.779297"/>
      <use xlink:href="#DejaVuSans-70" x="480.566406"/>
      <use xlink:href="#DejaVuSans-72" x="544.042969"/>
      <use xlink:href="#DejaVuSans-65" x="582.90625"/>
      <use xlink:href="#DejaVuSans-64" x="644.429688"/>
      <use xlink:href="#DejaVuSans-69" x="707.90625"/>
      <use xlink:href="#DejaVuSans-63" x="735.689453"/>
      <use xlink:href="#DejaVuSans-74" x="790.669922"/>
      <use xlink:href="#DejaVuSans-69" x="829.878906"/>
      <use xlink:href="#DejaVuSans-6f" x="857.662109"/>
      <use xlink:href="#DejaVuSans-6e" x="918.84375"/>
      <use xlink:href="#DejaVuSans-73" x="982.222656"/>
     </g>
    </g>
    <g id="line2d_26">
     <path d="M 66.6 113.282938 
L 76.6 113.282938 
L 86.6 113.282938 
" style="fill: none; stroke: #f08080; stroke-opacity: 0.8; stroke-width: 0.5; stroke-linecap: square"/>
    </g>
    <g id="text_21">
     <!-- Negative predictions max -->
     <g transform="translate(94.6 116.782938) scale(0.1 -0.1)">
      <use xlink:href="#DejaVuSans-4e"/>
      <use xlink:href="#DejaVuSans-65" x="74.804688"/>
      <use xlink:href="#DejaVuSans-67" x="136.328125"/>
      <use xlink:href="#DejaVuSans-61" x="199.804688"/>
      <use xlink:href="#DejaVuSans-74" x="261.083984"/>
      <use xlink:href="#DejaVuSans-69" x="300.292969"/>
      <use xlink:href="#DejaVuSans-76" x="328.076172"/>
      <use xlink:href="#DejaVuSans-65" x="387.255859"/>
      <use xlink:href="#DejaVuSans-20" x="448.779297"/>
      <use xlink:href="#DejaVuSans-70" x="480.566406"/>
      <use xlink:href="#DejaVuSans-72" x="544.042969"/>
      <use xlink:href="#DejaVuSans-65" x="582.90625"/>
      <use xlink:href="#DejaVuSans-64" x="644.429688"/>
      <use xlink:href="#DejaVuSans-69" x="707.90625"/>
      <use xlink:href="#DejaVuSans-63" x="735.689453"/>
      <use xlink:href="#DejaVuSans-74" x="790.669922"/>
      <use xlink:href="#DejaVuSans-69" x="829.878906"/>
      <use xlink:href="#DejaVuSans-6f" x="857.662109"/>
      <use xlink:href="#DejaVuSans-6e" x="918.84375"/>
      <use xlink:href="#DejaVuSans-73" x="982.222656"/>
      <use xlink:href="#DejaVuSans-20" x="1034.322266"/>
      <use xlink:href="#DejaVuSans-6d" x="1066.109375"/>
      <use xlink:href="#DejaVuSans-61" x="1163.521484"/>
      <use xlink:href="#DejaVuSans-78" x="1224.800781"/>
     </g>
    </g>
    <g id="line2d_27">
     <path d="M 66.6 127.961063 
L 76.6 127.961063 
L 86.6 127.961063 
" style="fill: none; stroke: #f08080; stroke-opacity: 0.8; stroke-width: 0.5; stroke-linecap: square"/>
    </g>
    <g id="text_22">
     <!-- Negative predictions min -->
     <g transform="translate(94.6 131.461063) scale(0.1 -0.1)">
      <use xlink:href="#DejaVuSans-4e"/>
      <use xlink:href="#DejaVuSans-65" x="74.804688"/>
      <use xlink:href="#DejaVuSans-67" x="136.328125"/>
      <use xlink:href="#DejaVuSans-61" x="199.804688"/>
      <use xlink:href="#DejaVuSans-74" x="261.083984"/>
      <use xlink:href="#DejaVuSans-69" x="300.292969"/>
      <use xlink:href="#DejaVuSans-76" x="328.076172"/>
      <use xlink:href="#DejaVuSans-65" x="387.255859"/>
      <use xlink:href="#DejaVuSans-20" x="448.779297"/>
      <use xlink:href="#DejaVuSans-70" x="480.566406"/>
      <use xlink:href="#DejaVuSans-72" x="544.042969"/>
      <use xlink:href="#DejaVuSans-65" x="582.90625"/>
      <use xlink:href="#DejaVuSans-64" x="644.429688"/>
      <use xlink:href="#DejaVuSans-69" x="707.90625"/>
      <use xlink:href="#DejaVuSans-63" x="735.689453"/>
      <use xlink:href="#DejaVuSans-74" x="790.669922"/>
      <use xlink:href="#DejaVuSans-69" x="829.878906"/>
      <use xlink:href="#DejaVuSans-6f" x="857.662109"/>
      <use xlink:href="#DejaVuSans-6e" x="918.84375"/>
      <use xlink:href="#DejaVuSans-73" x="982.222656"/>
      <use xlink:href="#DejaVuSans-20" x="1034.322266"/>
      <use xlink:href="#DejaVuSans-6d" x="1066.109375"/>
      <use xlink:href="#DejaVuSans-69" x="1163.521484"/>
      <use xlink:href="#DejaVuSans-6e" x="1191.304688"/>
     </g>
    </g>
   </g>
  </g>
 </g>
 <defs>
  <clipPath id="p05cc7b5b31">
   <rect x="57.6" y="41.472" width="357.12" height="266.112"/>
  </clipPath>
 </defs>
</svg>
