<?xml version="1.0" encoding="utf-8" standalone="no"?>
<!DOCTYPE svg PUBLIC "-//W3C//DTD SVG 1.1//EN"
  "http://www.w3.org/Graphics/SVG/1.1/DTD/svg11.dtd">
<svg xmlns:xlink="http://www.w3.org/1999/xlink" width="460.8pt" height="345.6pt" viewBox="0 0 460.8 345.6" xmlns="http://www.w3.org/2000/svg" version="1.1">
 <metadata>
  <rdf:RDF xmlns:dc="http://purl.org/dc/elements/1.1/" xmlns:cc="http://creativecommons.org/ns#" xmlns:rdf="http://www.w3.org/1999/02/22-rdf-syntax-ns#">
   <cc:Work>
    <dc:type rdf:resource="http://purl.org/dc/dcmitype/StillImage"/>
    <dc:date>2024-07-15T13:20:55.472471</dc:date>
    <dc:format>image/svg+xml</dc:format>
    <dc:creator>
     <cc:Agent>
      <dc:title>Matplotlib v3.9.0, https://matplotlib.org/</dc:title>
     </cc:Agent>
    </dc:creator>
   </cc:Work>
  </rdf:RDF>
 </metadata>
 <defs>
  <style type="text/css">*{stroke-linejoin: round; stroke-linecap: butt}</style>
 </defs>
 <g id="figure_1">
  <g id="patch_1">
   <path d="M 0 345.6 
L 460.8 345.6 
L 460.8 0 
L 0 0 
z
" style="fill: #ffffff"/>
  </g>
  <g id="axes_1">
   <g id="patch_2">
    <path d="M 57.6 307.584 
L 414.72 307.584 
L 414.72 41.472 
L 57.6 41.472 
z
" style="fill: #ffffff"/>
   </g>
   <g id="matplotlib.axis_1">
    <g id="xtick_1">
     <g id="line2d_1">
      <defs>
       <path id="m81e98879cd" d="M 0 0 
L 0 3.5 
" style="stroke: #000000; stroke-width: 0.8"/>
      </defs>
      <g>
       <use xlink:href="#m81e98879cd" x="73.832727" y="307.584" style="stroke: #000000; stroke-width: 0.8"/>
      </g>
     </g>
     <g id="text_1">
      <!-- 0 -->
      <g transform="translate(70.651477 322.182437) scale(0.1 -0.1)">
       <defs>
        <path id="DejaVuSans-30" d="M 2034 4250 
Q 1547 4250 1301 3770 
Q 1056 3291 1056 2328 
Q 1056 1369 1301 889 
Q 1547 409 2034 409 
Q 2525 409 2770 889 
Q 3016 1369 3016 2328 
Q 3016 3291 2770 3770 
Q 2525 4250 2034 4250 
z
M 2034 4750 
Q 2819 4750 3233 4129 
Q 3647 3509 3647 2328 
Q 3647 1150 3233 529 
Q 2819 -91 2034 -91 
Q 1250 -91 836 529 
Q 422 1150 422 2328 
Q 422 3509 836 4129 
Q 1250 4750 2034 4750 
z
" transform="scale(0.015625)"/>
       </defs>
       <use xlink:href="#DejaVuSans-30"/>
      </g>
     </g>
    </g>
    <g id="xtick_2">
     <g id="line2d_2">
      <g>
       <use xlink:href="#m81e98879cd" x="118.003414" y="307.584" style="stroke: #000000; stroke-width: 0.8"/>
      </g>
     </g>
     <g id="text_2">
      <!-- 20 -->
      <g transform="translate(111.640914 322.182437) scale(0.1 -0.1)">
       <defs>
        <path id="DejaVuSans-32" d="M 1228 531 
L 3431 531 
L 3431 0 
L 469 0 
L 469 531 
Q 828 903 1448 1529 
Q 2069 2156 2228 2338 
Q 2531 2678 2651 2914 
Q 2772 3150 2772 3378 
Q 2772 3750 2511 3984 
Q 2250 4219 1831 4219 
Q 1534 4219 1204 4116 
Q 875 4013 500 3803 
L 500 4441 
Q 881 4594 1212 4672 
Q 1544 4750 1819 4750 
Q 2544 4750 2975 4387 
Q 3406 4025 3406 3419 
Q 3406 3131 3298 2873 
Q 3191 2616 2906 2266 
Q 2828 2175 2409 1742 
Q 1991 1309 1228 531 
z
" transform="scale(0.015625)"/>
       </defs>
       <use xlink:href="#DejaVuSans-32"/>
       <use xlink:href="#DejaVuSans-30" x="63.623047"/>
      </g>
     </g>
    </g>
    <g id="xtick_3">
     <g id="line2d_3">
      <g>
       <use xlink:href="#m81e98879cd" x="162.1741" y="307.584" style="stroke: #000000; stroke-width: 0.8"/>
      </g>
     </g>
     <g id="text_3">
      <!-- 40 -->
      <g transform="translate(155.8116 322.182437) scale(0.1 -0.1)">
       <defs>
        <path id="DejaVuSans-34" d="M 2419 4116 
L 825 1625 
L 2419 1625 
L 2419 4116 
z
M 2253 4666 
L 3047 4666 
L 3047 1625 
L 3713 1625 
L 3713 1100 
L 3047 1100 
L 3047 0 
L 2419 0 
L 2419 1100 
L 313 1100 
L 313 1709 
L 2253 4666 
z
" transform="scale(0.015625)"/>
       </defs>
       <use xlink:href="#DejaVuSans-34"/>
       <use xlink:href="#DejaVuSans-30" x="63.623047"/>
      </g>
     </g>
    </g>
    <g id="xtick_4">
     <g id="line2d_4">
      <g>
       <use xlink:href="#m81e98879cd" x="206.344787" y="307.584" style="stroke: #000000; stroke-width: 0.8"/>
      </g>
     </g>
     <g id="text_4">
      <!-- 60 -->
      <g transform="translate(199.982287 322.182437) scale(0.1 -0.1)">
       <defs>
        <path id="DejaVuSans-36" d="M 2113 2584 
Q 1688 2584 1439 2293 
Q 1191 2003 1191 1497 
Q 1191 994 1439 701 
Q 1688 409 2113 409 
Q 2538 409 2786 701 
Q 3034 994 3034 1497 
Q 3034 2003 2786 2293 
Q 2538 2584 2113 2584 
z
M 3366 4563 
L 3366 3988 
Q 3128 4100 2886 4159 
Q 2644 4219 2406 4219 
Q 1781 4219 1451 3797 
Q 1122 3375 1075 2522 
Q 1259 2794 1537 2939 
Q 1816 3084 2150 3084 
Q 2853 3084 3261 2657 
Q 3669 2231 3669 1497 
Q 3669 778 3244 343 
Q 2819 -91 2113 -91 
Q 1303 -91 875 529 
Q 447 1150 447 2328 
Q 447 3434 972 4092 
Q 1497 4750 2381 4750 
Q 2619 4750 2861 4703 
Q 3103 4656 3366 4563 
z
" transform="scale(0.015625)"/>
       </defs>
       <use xlink:href="#DejaVuSans-36"/>
       <use xlink:href="#DejaVuSans-30" x="63.623047"/>
      </g>
     </g>
    </g>
    <g id="xtick_5">
     <g id="line2d_5">
      <g>
       <use xlink:href="#m81e98879cd" x="250.515473" y="307.584" style="stroke: #000000; stroke-width: 0.8"/>
      </g>
     </g>
     <g id="text_5">
      <!-- 80 -->
      <g transform="translate(244.152973 322.182437) scale(0.1 -0.1)">
       <defs>
        <path id="DejaVuSans-38" d="M 2034 2216 
Q 1584 2216 1326 1975 
Q 1069 1734 1069 1313 
Q 1069 891 1326 650 
Q 1584 409 2034 409 
Q 2484 409 2743 651 
Q 3003 894 3003 1313 
Q 3003 1734 2745 1975 
Q 2488 2216 2034 2216 
z
M 1403 2484 
Q 997 2584 770 2862 
Q 544 3141 544 3541 
Q 544 4100 942 4425 
Q 1341 4750 2034 4750 
Q 2731 4750 3128 4425 
Q 3525 4100 3525 3541 
Q 3525 3141 3298 2862 
Q 3072 2584 2669 2484 
Q 3125 2378 3379 2068 
Q 3634 1759 3634 1313 
Q 3634 634 3220 271 
Q 2806 -91 2034 -91 
Q 1263 -91 848 271 
Q 434 634 434 1313 
Q 434 1759 690 2068 
Q 947 2378 1403 2484 
z
M 1172 3481 
Q 1172 3119 1398 2916 
Q 1625 2713 2034 2713 
Q 2441 2713 2670 2916 
Q 2900 3119 2900 3481 
Q 2900 3844 2670 4047 
Q 2441 4250 2034 4250 
Q 1625 4250 1398 4047 
Q 1172 3844 1172 3481 
z
" transform="scale(0.015625)"/>
       </defs>
       <use xlink:href="#DejaVuSans-38"/>
       <use xlink:href="#DejaVuSans-30" x="63.623047"/>
      </g>
     </g>
    </g>
    <g id="xtick_6">
     <g id="line2d_6">
      <g>
       <use xlink:href="#m81e98879cd" x="294.68616" y="307.584" style="stroke: #000000; stroke-width: 0.8"/>
      </g>
     </g>
     <g id="text_6">
      <!-- 100 -->
      <g transform="translate(285.14241 322.182437) scale(0.1 -0.1)">
       <defs>
        <path id="DejaVuSans-31" d="M 794 531 
L 1825 531 
L 1825 4091 
L 703 3866 
L 703 4441 
L 1819 4666 
L 2450 4666 
L 2450 531 
L 3481 531 
L 3481 0 
L 794 0 
L 794 531 
z
" transform="scale(0.015625)"/>
       </defs>
       <use xlink:href="#DejaVuSans-31"/>
       <use xlink:href="#DejaVuSans-30" x="63.623047"/>
       <use xlink:href="#DejaVuSans-30" x="127.246094"/>
      </g>
     </g>
    </g>
    <g id="xtick_7">
     <g id="line2d_7">
      <g>
       <use xlink:href="#m81e98879cd" x="338.856846" y="307.584" style="stroke: #000000; stroke-width: 0.8"/>
      </g>
     </g>
     <g id="text_7">
      <!-- 120 -->
      <g transform="translate(329.313096 322.182437) scale(0.1 -0.1)">
       <use xlink:href="#DejaVuSans-31"/>
       <use xlink:href="#DejaVuSans-32" x="63.623047"/>
       <use xlink:href="#DejaVuSans-30" x="127.246094"/>
      </g>
     </g>
    </g>
    <g id="xtick_8">
     <g id="line2d_8">
      <g>
       <use xlink:href="#m81e98879cd" x="383.027532" y="307.584" style="stroke: #000000; stroke-width: 0.8"/>
      </g>
     </g>
     <g id="text_8">
      <!-- 140 -->
      <g transform="translate(373.483782 322.182437) scale(0.1 -0.1)">
       <use xlink:href="#DejaVuSans-31"/>
       <use xlink:href="#DejaVuSans-34" x="63.623047"/>
       <use xlink:href="#DejaVuSans-30" x="127.246094"/>
      </g>
     </g>
    </g>
   </g>
   <g id="matplotlib.axis_2">
    <g id="ytick_1">
     <g id="line2d_9">
      <defs>
       <path id="m65c39706e9" d="M 0 0 
L -3.5 0 
" style="stroke: #000000; stroke-width: 0.8"/>
      </defs>
      <g>
       <use xlink:href="#m65c39706e9" x="57.6" y="304.474098" style="stroke: #000000; stroke-width: 0.8"/>
      </g>
     </g>
     <g id="text_9">
      <!-- −300 -->
      <g transform="translate(23.132812 308.273317) scale(0.1 -0.1)">
       <defs>
        <path id="DejaVuSans-2212" d="M 678 2272 
L 4684 2272 
L 4684 1741 
L 678 1741 
L 678 2272 
z
" transform="scale(0.015625)"/>
        <path id="DejaVuSans-33" d="M 2597 2516 
Q 3050 2419 3304 2112 
Q 3559 1806 3559 1356 
Q 3559 666 3084 287 
Q 2609 -91 1734 -91 
Q 1441 -91 1130 -33 
Q 819 25 488 141 
L 488 750 
Q 750 597 1062 519 
Q 1375 441 1716 441 
Q 2309 441 2620 675 
Q 2931 909 2931 1356 
Q 2931 1769 2642 2001 
Q 2353 2234 1838 2234 
L 1294 2234 
L 1294 2753 
L 1863 2753 
Q 2328 2753 2575 2939 
Q 2822 3125 2822 3475 
Q 2822 3834 2567 4026 
Q 2313 4219 1838 4219 
Q 1578 4219 1281 4162 
Q 984 4106 628 3988 
L 628 4550 
Q 988 4650 1302 4700 
Q 1616 4750 1894 4750 
Q 2613 4750 3031 4423 
Q 3450 4097 3450 3541 
Q 3450 3153 3228 2886 
Q 3006 2619 2597 2516 
z
" transform="scale(0.015625)"/>
       </defs>
       <use xlink:href="#DejaVuSans-2212"/>
       <use xlink:href="#DejaVuSans-33" x="83.789062"/>
       <use xlink:href="#DejaVuSans-30" x="147.412109"/>
       <use xlink:href="#DejaVuSans-30" x="211.035156"/>
      </g>
     </g>
    </g>
    <g id="ytick_2">
     <g id="line2d_10">
      <g>
       <use xlink:href="#m65c39706e9" x="57.6" y="264.624093" style="stroke: #000000; stroke-width: 0.8"/>
      </g>
     </g>
     <g id="text_10">
      <!-- −200 -->
      <g transform="translate(23.132812 268.423312) scale(0.1 -0.1)">
       <use xlink:href="#DejaVuSans-2212"/>
       <use xlink:href="#DejaVuSans-32" x="83.789062"/>
       <use xlink:href="#DejaVuSans-30" x="147.412109"/>
       <use xlink:href="#DejaVuSans-30" x="211.035156"/>
      </g>
     </g>
    </g>
    <g id="ytick_3">
     <g id="line2d_11">
      <g>
       <use xlink:href="#m65c39706e9" x="57.6" y="224.774087" style="stroke: #000000; stroke-width: 0.8"/>
      </g>
     </g>
     <g id="text_11">
      <!-- −100 -->
      <g transform="translate(23.132812 228.573306) scale(0.1 -0.1)">
       <use xlink:href="#DejaVuSans-2212"/>
       <use xlink:href="#DejaVuSans-31" x="83.789062"/>
       <use xlink:href="#DejaVuSans-30" x="147.412109"/>
       <use xlink:href="#DejaVuSans-30" x="211.035156"/>
      </g>
     </g>
    </g>
    <g id="ytick_4">
     <g id="line2d_12">
      <g>
       <use xlink:href="#m65c39706e9" x="57.6" y="184.924082" style="stroke: #000000; stroke-width: 0.8"/>
      </g>
     </g>
     <g id="text_12">
      <!-- 0 -->
      <g transform="translate(44.2375 188.7233) scale(0.1 -0.1)">
       <use xlink:href="#DejaVuSans-30"/>
      </g>
     </g>
    </g>
    <g id="ytick_5">
     <g id="line2d_13">
      <g>
       <use xlink:href="#m65c39706e9" x="57.6" y="145.074076" style="stroke: #000000; stroke-width: 0.8"/>
      </g>
     </g>
     <g id="text_13">
      <!-- 100 -->
      <g transform="translate(31.5125 148.873295) scale(0.1 -0.1)">
       <use xlink:href="#DejaVuSans-31"/>
       <use xlink:href="#DejaVuSans-30" x="63.623047"/>
       <use xlink:href="#DejaVuSans-30" x="127.246094"/>
      </g>
     </g>
    </g>
    <g id="ytick_6">
     <g id="line2d_14">
      <g>
       <use xlink:href="#m65c39706e9" x="57.6" y="105.224071" style="stroke: #000000; stroke-width: 0.8"/>
      </g>
     </g>
     <g id="text_14">
      <!-- 200 -->
      <g transform="translate(31.5125 109.023289) scale(0.1 -0.1)">
       <use xlink:href="#DejaVuSans-32"/>
       <use xlink:href="#DejaVuSans-30" x="63.623047"/>
       <use xlink:href="#DejaVuSans-30" x="127.246094"/>
      </g>
     </g>
    </g>
    <g id="ytick_7">
     <g id="line2d_15">
      <g>
       <use xlink:href="#m65c39706e9" x="57.6" y="65.374065" style="stroke: #000000; stroke-width: 0.8"/>
      </g>
     </g>
     <g id="text_15">
      <!-- 300 -->
      <g transform="translate(31.5125 69.173284) scale(0.1 -0.1)">
       <use xlink:href="#DejaVuSans-33"/>
       <use xlink:href="#DejaVuSans-30" x="63.623047"/>
       <use xlink:href="#DejaVuSans-30" x="127.246094"/>
      </g>
     </g>
    </g>
   </g>
   <g id="line2d_16">
    <path d="M 73.832727 185.086554 
L 76.041262 183.85843 
L 78.249796 172.205945 
L 80.45833 181.151577 
L 82.666865 183.253671 
L 84.875399 182.546986 
L 87.083933 186.759459 
L 89.292468 186.012371 
L 91.501002 178.455233 
L 93.709536 182.002039 
L 95.918071 183.686044 
L 98.126605 183.972768 
L 100.335139 181.43866 
L 102.543673 183.354095 
L 104.752208 180.650234 
L 106.960742 181.205745 
L 109.169276 174.15129 
L 111.377811 173.636128 
L 113.586345 185.099629 
L 115.794879 181.406198 
L 120.211948 173.269682 
L 122.420482 191.139529 
L 124.629017 185.775396 
L 126.837551 185.597566 
L 129.046085 185.052139 
L 131.25462 179.237092 
L 133.463154 180.868006 
L 135.671688 186.028172 
L 137.880223 179.988893 
L 140.088757 176.00882 
L 142.297291 176.216747 
L 144.505826 182.030997 
L 146.71436 186.744484 
L 148.922894 182.323551 
L 151.131429 180.997603 
L 153.339963 173.199913 
L 155.548497 181.471242 
L 157.757032 181.114448 
L 159.965566 187.03529 
L 162.1741 174.717853 
L 164.382635 181.358386 
L 166.591169 184.543199 
L 168.799703 185.713048 
L 171.008237 183.191233 
L 173.216772 180.219031 
L 175.425306 187.59572 
L 177.63384 180.562659 
L 179.842375 177.992552 
L 182.050909 184.572367 
L 184.259443 171.586388 
L 186.467978 168.420511 
L 188.676512 158.642723 
L 190.885046 190.540487 
L 193.093581 188.251613 
L 195.302115 180.717809 
L 197.510649 183.740515 
L 199.719184 191.829744 
L 201.927718 176.598887 
L 204.136252 179.030238 
L 206.344787 182.683959 
L 208.553321 179.83426 
L 210.761855 187.636201 
L 212.97039 187.835469 
L 215.178924 175.194182 
L 217.387458 174.325148 
L 219.595993 189.771839 
L 221.804527 170.985263 
L 224.013061 182.762806 
L 226.221596 179.812753 
L 228.43013 184.808238 
L 230.638664 175.985288 
L 232.847199 181.651058 
L 235.055733 180.14034 
L 237.264267 175.948552 
L 239.472801 174.547069 
L 241.681336 170.903623 
L 243.88987 185.004198 
L 246.098404 182.411555 
L 248.306939 184.527789 
L 250.515473 174.480255 
L 252.724007 173.690676 
L 254.932542 179.443948 
L 257.141076 178.811378 
L 259.34961 180.976451 
L 261.558145 184.294458 
L 263.766679 182.383152 
L 265.975213 176.376692 
L 268.183748 182.712217 
L 270.392282 173.740439 
L 272.600816 175.486038 
L 274.809351 172.917658 
L 277.017885 187.906831 
L 279.226419 191.574309 
L 281.434954 177.805016 
L 283.643488 168.02181 
L 285.852022 174.405392 
L 288.060557 187.191241 
L 290.269091 162.363829 
L 292.477625 182.782027 
L 294.68616 171.553168 
L 296.894694 170.716096 
L 299.103228 177.548503 
L 301.311763 190.706516 
L 303.520297 168.163883 
L 305.728831 164.931925 
L 307.937365 168.767193 
L 310.1459 184.334901 
L 312.354434 159.777447 
L 314.562968 183.388987 
L 316.771503 176.726015 
L 318.980037 188.785012 
L 321.188571 189.989853 
L 323.397106 178.812843 
L 325.60564 170.284311 
L 327.814174 166.537326 
L 330.022709 177.099373 
L 332.231243 173.000549 
L 334.439777 179.365899 
L 336.648312 188.366689 
L 338.856846 182.687329 
L 341.06538 164.059482 
L 343.273915 175.306528 
L 345.482449 187.169348 
L 347.690983 190.312843 
L 349.899518 177.384294 
L 352.108052 166.087268 
L 354.316586 174.577182 
L 356.525121 178.617974 
L 358.733655 183.020663 
L 360.942189 179.073441 
L 363.150724 171.457217 
L 365.359258 181.397008 
L 367.567792 189.507597 
L 369.776327 179.894062 
L 371.984861 181.556216 
L 374.193395 183.930114 
L 376.401929 169.841622 
L 378.610464 173.12159 
L 380.818998 178.358141 
L 383.027532 167.753876 
L 385.236067 172.646061 
L 387.444601 182.744668 
L 389.653135 178.078851 
L 391.86167 193.624847 
L 394.070204 185.484397 
L 396.278738 185.792601 
L 398.487273 185.102986 
L 398.487273 185.102986 
" clip-path="url(#p288dd2ac47)" style="fill: none; stroke: #008000; stroke-opacity: 0.8; stroke-width: 0.5; stroke-linecap: square"/>
   </g>
   <g id="line2d_17">
    <path d="M 73.832727 162.77678 
L 76.041262 163.665163 
L 78.249796 148.919021 
L 80.45833 157.74632 
L 82.666865 164.865448 
L 84.875399 169.473802 
L 87.083933 173.297463 
L 89.292468 164.946041 
L 91.501002 172.18321 
L 93.709536 162.375685 
L 95.918071 176.463567 
L 98.126605 170.103522 
L 100.335139 169.642803 
L 102.543673 175.526862 
L 104.752208 171.247204 
L 106.960742 173.407152 
L 109.169276 140.322081 
L 111.377811 144.518221 
L 113.586345 156.27766 
L 115.794879 157.990951 
L 118.003414 144.047861 
L 120.211948 153.591733 
L 122.420482 158.898976 
L 124.629017 173.554555 
L 126.837551 164.903134 
L 129.046085 174.50496 
L 131.25462 166.537518 
L 133.463154 167.840402 
L 135.671688 177.54648 
L 137.880223 173.005561 
L 140.088757 156.09593 
L 142.297291 155.368686 
L 144.505826 166.181819 
L 146.71436 176.425106 
L 148.922894 164.561896 
L 151.131429 167.585293 
L 153.339963 144.433058 
L 155.548497 147.376827 
L 157.757032 153.366663 
L 159.965566 171.410874 
L 162.1741 165.502097 
L 164.382635 154.677118 
L 166.591169 177.950178 
L 168.799703 176.34887 
L 171.008237 170.817736 
L 173.216772 164.684863 
L 175.425306 181.166774 
L 179.842375 154.984375 
L 182.050909 158.047714 
L 184.259443 131.550336 
L 186.467978 85.562576 
L 188.676512 53.568 
L 190.885046 126.501011 
L 193.093581 136.281953 
L 195.302115 137.828417 
L 197.510649 150.42096 
L 199.719184 173.088892 
L 201.927718 95.438504 
L 204.136252 140.41186 
L 206.344787 163.122185 
L 208.553321 162.260573 
L 210.761855 170.006193 
L 212.97039 174.068338 
L 215.178924 132.659636 
L 217.387458 151.21333 
L 219.595993 166.71095 
L 221.804527 156.71355 
L 224.013061 122.576767 
L 226.221596 153.397955 
L 228.43013 173.297967 
L 230.638664 164.340534 
L 232.847199 171.02036 
L 235.055733 159.239714 
L 237.264267 130.82494 
L 239.472801 158.281439 
L 241.681336 145.293865 
L 243.88987 168.914749 
L 246.098404 161.335172 
L 248.306939 158.53672 
L 250.515473 158.776297 
L 252.724007 134.735616 
L 254.932542 165.092562 
L 257.141076 160.999703 
L 259.34961 148.18986 
L 261.558145 164.431892 
L 263.766679 143.011899 
L 265.975213 165.878119 
L 268.183748 150.886244 
L 270.392282 156.262148 
L 272.600816 140.193588 
L 274.809351 133.974343 
L 277.017885 158.052695 
L 279.226419 174.744382 
L 283.643488 134.809517 
L 288.060557 164.208086 
L 290.269091 132.874073 
L 292.477625 136.508165 
L 294.68616 135.982231 
L 296.894694 137.967845 
L 299.103228 119.203855 
L 301.311763 141.097087 
L 303.520297 145.334594 
L 305.728831 119.662747 
L 307.937365 117.40257 
L 310.1459 121.020546 
L 312.354434 110.376767 
L 314.562968 131.619875 
L 316.771503 155.529864 
L 318.980037 151.371891 
L 321.188571 158.378942 
L 323.397106 133.118923 
L 325.60564 124.327948 
L 327.814174 120.201902 
L 330.022709 143.666997 
L 332.231243 127.472004 
L 334.439777 130.696451 
L 336.648312 149.074494 
L 338.856846 160.049899 
L 341.06538 128.846888 
L 343.273915 154.939906 
L 345.482449 143.53252 
L 347.690983 156.615803 
L 349.899518 153.745988 
L 352.108052 135.806265 
L 354.316586 138.970937 
L 356.525121 161.098517 
L 358.733655 161.391115 
L 360.942189 142.244464 
L 363.150724 156.631567 
L 365.359258 149.612549 
L 367.567792 172.259926 
L 369.776327 159.286522 
L 371.984861 154.321682 
L 374.193395 168.946517 
L 376.401929 143.11125 
L 378.610464 154.99056 
L 380.818998 155.947511 
L 383.027532 139.768773 
L 385.236067 154.412603 
L 387.444601 153.97316 
L 389.653135 147.3041 
L 391.86167 175.423353 
L 394.070204 166.813693 
L 396.278738 161.439797 
L 398.487273 161.972483 
L 398.487273 161.972483 
" clip-path="url(#p288dd2ac47)" style="fill: none; stroke: #32cd32; stroke-opacity: 0.8; stroke-width: 0.5; stroke-linecap: square"/>
   </g>
   <g id="line2d_18">
    <path d="M 73.832727 221.032166 
L 76.041262 205.859247 
L 78.249796 207.985777 
L 80.45833 193.662372 
L 82.666865 213.014347 
L 84.875399 196.412869 
L 87.083933 213.078072 
L 89.292468 199.588903 
L 91.501002 187.534301 
L 93.709536 205.309714 
L 95.918071 193.676489 
L 98.126605 202.702574 
L 100.335139 198.373491 
L 102.543673 189.083355 
L 104.752208 189.696149 
L 106.960742 190.899202 
L 109.169276 201.506728 
L 111.377811 197.941064 
L 113.586345 211.200244 
L 115.794879 207.434688 
L 118.003414 204.279616 
L 120.211948 227.177233 
L 122.420482 210.171686 
L 124.629017 201.195641 
L 126.837551 197.403777 
L 129.046085 190.362669 
L 131.25462 194.455734 
L 133.463154 191.086174 
L 135.671688 195.011752 
L 137.880223 192.837726 
L 140.088757 186.930584 
L 142.297291 192.652449 
L 144.505826 201.416691 
L 146.71436 199.333833 
L 148.922894 198.879464 
L 151.131429 194.667437 
L 153.339963 186.947931 
L 155.548497 202.520451 
L 157.757032 193.356002 
L 159.965566 207.538654 
L 162.1741 182.816905 
L 164.382635 195.525999 
L 166.591169 194.054795 
L 168.799703 197.203157 
L 171.008237 197.542744 
L 173.216772 193.665155 
L 175.425306 196.05421 
L 177.63384 187.247368 
L 179.842375 195.586001 
L 182.050909 200.177419 
L 184.259443 196.671856 
L 186.467978 230.631127 
L 188.676512 267.978036 
L 190.885046 259.153955 
L 193.093581 229.611775 
L 195.302115 209.466934 
L 197.510649 211.660261 
L 199.719184 224.363146 
L 201.927718 202.832893 
L 204.136252 194.219959 
L 206.344787 205.640926 
L 208.553321 200.011554 
L 210.761855 197.072356 
L 212.97039 203.033631 
L 215.178924 212.282878 
L 217.387458 204.695707 
L 219.595993 209.410467 
L 221.804527 187.257346 
L 224.013061 215.24825 
L 226.221596 207.741842 
L 228.43013 203.329396 
L 230.638664 188.940785 
L 232.847199 195.149542 
L 235.055733 209.568593 
L 237.264267 196.648267 
L 239.472801 198.664356 
L 241.681336 206.33658 
L 243.88987 201.207129 
L 246.098404 214.729814 
L 248.306939 208.648991 
L 250.515473 187.82797 
L 252.724007 205.226076 
L 254.932542 196.725941 
L 257.141076 188.91964 
L 259.34961 194.582359 
L 261.558145 208.210359 
L 263.766679 214.612287 
L 265.975213 187.815483 
L 268.183748 200.182664 
L 270.392282 191.195447 
L 272.600816 202.198826 
L 274.809351 195.525572 
L 277.017885 205.459882 
L 279.226419 218.932111 
L 281.434954 197.119714 
L 283.643488 195.821893 
L 285.852022 218.978075 
L 288.060557 216.757169 
L 290.269091 192.736097 
L 292.477625 228.489145 
L 294.68616 203.629638 
L 296.894694 220.015284 
L 299.103228 228.893903 
L 301.311763 213.379169 
L 303.520297 190.467888 
L 305.728831 211.20214 
L 307.937365 219.583545 
L 310.1459 232.62832 
L 312.354434 200.190484 
L 314.562968 234.494488 
L 316.771503 215.930699 
L 318.980037 211.905558 
L 321.188571 227.518348 
L 323.397106 218.318497 
L 325.60564 204.171646 
L 327.814174 209.587819 
L 330.022709 231.169506 
L 332.231243 216.512905 
L 334.439777 208.062672 
L 336.648312 251.757796 
L 338.856846 217.381848 
L 341.06538 192.304201 
L 343.273915 201.992356 
L 345.482449 212.372065 
L 347.690983 220.725272 
L 349.899518 223.572545 
L 352.108052 180.403891 
L 354.316586 210.489025 
L 356.525121 199.573243 
L 358.733655 209.462024 
L 360.942189 205.478829 
L 363.150724 198.298756 
L 365.359258 215.587579 
L 367.567792 226.073243 
L 369.776327 209.738099 
L 371.984861 206.690133 
L 374.193395 212.357333 
L 376.401929 193.080357 
L 378.610464 191.713164 
L 380.818998 210.548881 
L 383.027532 191.628907 
L 385.236067 182.209029 
L 387.444601 202.926129 
L 389.653135 221.61047 
L 391.86167 204.080289 
L 394.070204 206.262536 
L 396.278738 214.534488 
L 398.487273 203.4092 
L 398.487273 203.4092 
" clip-path="url(#p288dd2ac47)" style="fill: none; stroke: #32cd32; stroke-opacity: 0.8; stroke-width: 0.5; stroke-linecap: square"/>
   </g>
   <g id="line2d_19">
    <path d="M 73.832727 185.648889 
L 76.041262 183.817267 
L 78.249796 179.866176 
L 80.45833 199.742847 
L 82.666865 193.066608 
L 84.875399 194.862815 
L 87.083933 190.912654 
L 89.292468 192.636938 
L 91.501002 185.480586 
L 93.709536 191.880068 
L 95.918071 190.662493 
L 98.126605 193.520993 
L 100.335139 187.730086 
L 102.543673 190.599118 
L 104.752208 188.741761 
L 106.960742 191.673458 
L 109.169276 181.565571 
L 111.377811 186.3543 
L 113.586345 193.040055 
L 115.794879 189.635543 
L 118.003414 187.714684 
L 120.211948 182.29724 
L 122.420482 196.105179 
L 124.629017 193.130272 
L 126.837551 193.699731 
L 129.046085 195.128526 
L 131.25462 187.640831 
L 133.463154 190.713457 
L 135.671688 194.826101 
L 137.880223 192.524794 
L 140.088757 184.937759 
L 142.297291 192.450423 
L 144.505826 187.906797 
L 146.71436 194.985302 
L 151.131429 189.556116 
L 153.339963 184.731387 
L 155.548497 195.093545 
L 157.757032 194.256312 
L 159.965566 195.837644 
L 162.1741 186.004702 
L 164.382635 192.468002 
L 166.591169 193.624749 
L 168.799703 193.662721 
L 171.008237 191.621372 
L 173.216772 191.764799 
L 175.425306 196.638838 
L 177.63384 191.747239 
L 179.842375 189.317563 
L 182.050909 194.613368 
L 184.259443 178.54268 
L 186.467978 179.937342 
L 188.676512 161.755041 
L 190.885046 206.908943 
L 193.093581 201.265562 
L 195.302115 200.561266 
L 197.510649 201.169044 
L 199.719184 202.7267 
L 201.927718 196.016241 
L 204.136252 195.462001 
L 206.344787 198.40638 
L 208.553321 197.116512 
L 210.761855 200.067631 
L 212.97039 202.790462 
L 215.178924 183.442033 
L 217.387458 190.466444 
L 219.595993 204.923855 
L 221.804527 187.326439 
L 224.013061 201.743754 
L 226.221596 190.858183 
L 228.43013 202.080381 
L 230.638664 188.196034 
L 232.847199 198.586359 
L 235.055733 194.864352 
L 237.264267 195.226184 
L 239.472801 188.043717 
L 241.681336 188.113838 
L 243.88987 199.20838 
L 246.098404 201.877747 
L 248.306939 195.324908 
L 250.515473 194.570737 
L 252.724007 187.761404 
L 254.932542 197.088229 
L 257.141076 195.053041 
L 259.34961 193.509804 
L 261.558145 197.830725 
L 263.766679 193.425863 
L 265.975213 195.508936 
L 268.183748 195.741511 
L 270.392282 190.624904 
L 272.600816 194.763263 
L 274.809351 188.531323 
L 277.017885 200.525185 
L 279.226419 201.613616 
L 281.434954 191.256091 
L 283.643488 183.580925 
L 285.852022 195.314476 
L 288.060557 201.432412 
L 290.269091 178.848993 
L 292.477625 188.980557 
L 294.68616 189.114878 
L 296.894694 183.95827 
L 299.103228 193.588296 
L 301.311763 198.441474 
L 303.520297 183.438951 
L 305.728831 183.474446 
L 307.937365 176.887064 
L 310.1459 200.282368 
L 312.354434 179.209944 
L 314.562968 190.702869 
L 316.771503 194.814501 
L 318.980037 204.642114 
L 321.188571 202.706354 
L 323.397106 190.739421 
L 325.60564 185.443998 
L 327.814174 183.904944 
L 330.022709 186.774341 
L 334.439777 199.546128 
L 336.648312 207.186605 
L 338.856846 203.458146 
L 341.06538 185.001393 
L 343.273915 193.207015 
L 345.482449 202.486848 
L 347.690983 203.438879 
L 349.899518 199.448789 
L 352.108052 182.758837 
L 354.316586 194.402317 
L 356.525121 203.520702 
L 360.942189 192.660095 
L 363.150724 194.5942 
L 365.359258 199.066636 
L 367.567792 202.84862 
L 369.776327 194.401615 
L 371.984861 202.421667 
L 374.193395 200.304391 
L 376.401929 188.047744 
L 378.610464 183.379387 
L 380.818998 195.370938 
L 383.027532 188.3337 
L 385.236067 184.905879 
L 387.444601 197.001578 
L 389.653135 188.286387 
L 391.86167 204.555731 
L 394.070204 192.395262 
L 396.278738 200.799512 
L 398.487273 198.344672 
L 398.487273 198.344672 
" clip-path="url(#p288dd2ac47)" style="fill: none; stroke: #ff0000; stroke-opacity: 0.8; stroke-width: 0.5; stroke-linecap: square"/>
   </g>
   <g id="line2d_20">
    <path d="M 73.832727 157.977461 
L 76.041262 171.047485 
L 78.249796 156.526964 
L 80.45833 169.718853 
L 82.666865 171.465615 
L 84.875399 186.121255 
L 87.083933 177.506372 
L 89.292468 171.002792 
L 91.501002 176.406094 
L 93.709536 173.88565 
L 95.918071 177.224052 
L 98.126605 180.142101 
L 100.335139 176.741683 
L 102.543673 184.113699 
L 104.752208 178.323269 
L 106.960742 182.184764 
L 109.169276 139.487049 
L 111.377811 153.439255 
L 113.586345 165.253091 
L 115.794879 166.129513 
L 118.003414 157.445741 
L 120.211948 143.368582 
L 122.420482 166.473966 
L 124.629017 179.601349 
L 126.837551 177.182585 
L 129.046085 185.086843 
L 131.25462 167.622388 
L 133.463154 175.554387 
L 135.671688 181.578958 
L 137.880223 183.46694 
L 140.088757 170.099802 
L 142.297291 168.457346 
L 144.505826 162.789452 
L 146.71436 184.695392 
L 148.922894 176.375487 
L 151.131429 174.251884 
L 153.339963 144.965128 
L 155.548497 163.718005 
L 157.757032 160.298624 
L 159.965566 183.619241 
L 162.1741 175.333084 
L 164.382635 156.149861 
L 166.591169 182.568108 
L 168.799703 187.688379 
L 171.008237 175.622202 
L 173.216772 177.441422 
L 175.425306 190.190981 
L 177.63384 181.055494 
L 179.842375 160.578953 
L 182.050909 171.650883 
L 186.467978 101.080165 
L 188.676512 68.454126 
L 190.885046 140.459595 
L 193.093581 153.000774 
L 195.302115 161.23449 
L 197.510649 165.670131 
L 199.719184 193.27323 
L 201.927718 115.868855 
L 204.136252 169.327657 
L 206.344787 189.035666 
L 208.553321 173.078164 
L 210.761855 177.324754 
L 212.97039 184.506404 
L 215.178924 143.536637 
L 217.387458 159.06191 
L 219.595993 180.280377 
L 221.804527 165.041475 
L 224.013061 131.556989 
L 226.221596 171.189964 
L 228.43013 192.117611 
L 230.638664 174.10379 
L 232.847199 179.762518 
L 235.055733 174.668702 
L 237.264267 150.082171 
L 239.472801 169.474008 
L 241.681336 163.017982 
L 243.88987 164.555416 
L 246.098404 177.638597 
L 248.306939 174.956642 
L 250.515473 186.043728 
L 252.724007 140.004064 
L 254.932542 184.753268 
L 257.141076 177.107822 
L 259.34961 160.555276 
L 261.558145 177.674857 
L 263.766679 154.759885 
L 265.975213 179.027926 
L 268.183748 162.027485 
L 270.392282 166.650266 
L 272.600816 152.493519 
L 274.809351 153.696958 
L 277.017885 177.730242 
L 279.226419 180.635893 
L 281.434954 168.006504 
L 283.643488 150.192211 
L 285.852022 164.525166 
L 288.060557 180.284437 
L 290.269091 153.550817 
L 292.477625 147.034685 
L 294.68616 148.207134 
L 296.894694 150.26561 
L 299.103228 139.918745 
L 301.311763 153.144351 
L 303.520297 154.578759 
L 305.728831 136.707708 
L 307.937365 114.459329 
L 310.1459 137.599426 
L 312.354434 135.368521 
L 314.562968 125.220873 
L 316.771503 169.269309 
L 318.980037 175.705396 
L 321.188571 180.172227 
L 323.397106 147.307517 
L 325.60564 147.873594 
L 327.814174 133.073072 
L 330.022709 140.539808 
L 332.231243 148.898122 
L 334.439777 156.073156 
L 336.648312 162.352351 
L 338.856846 169.503543 
L 341.06538 154.686056 
L 343.273915 167.770483 
L 345.482449 160.291182 
L 347.690983 171.233604 
L 349.899518 174.245954 
L 352.108052 150.945669 
L 354.316586 158.343055 
L 356.525121 177.792055 
L 358.733655 178.148447 
L 360.942189 158.875302 
L 363.150724 174.692516 
L 365.359258 175.257032 
L 367.567792 183.526456 
L 369.776327 173.171646 
L 371.984861 174.70793 
L 374.193395 181.339637 
L 376.401929 168.349639 
L 378.610464 156.031334 
L 380.818998 172.94012 
L 383.027532 147.280951 
L 385.236067 161.394689 
L 387.444601 169.269244 
L 389.653135 155.516104 
L 391.86167 170.831121 
L 394.070204 178.89213 
L 396.278738 174.761847 
L 398.487273 175.899835 
L 398.487273 175.899835 
" clip-path="url(#p288dd2ac47)" style="fill: none; stroke: #f08080; stroke-opacity: 0.8; stroke-width: 0.5; stroke-linecap: square"/>
   </g>
   <g id="line2d_21">
    <path d="M 73.832727 206.194995 
L 76.041262 203.892723 
L 78.249796 207.523004 
L 80.45833 223.247947 
L 82.666865 213.361056 
L 84.875399 206.667883 
L 87.083933 196.529435 
L 89.292468 207.589502 
L 91.501002 193.31136 
L 93.709536 205.450823 
L 95.918071 198.620575 
L 98.126605 206.431215 
L 100.335139 198.685069 
L 102.543673 203.710197 
L 104.752208 199.732357 
L 106.960742 202.650394 
L 109.169276 223.207815 
L 111.377811 227.475832 
L 113.586345 218.237752 
L 115.794879 218.398138 
L 118.003414 205.469084 
L 120.211948 257.498861 
L 122.420482 222.062716 
L 124.629017 210.089367 
L 129.046085 202.778168 
L 131.25462 203.960632 
L 133.463154 200.398065 
L 135.671688 209.291958 
L 137.880223 196.665614 
L 140.088757 196.882933 
L 142.297291 216.744156 
L 144.505826 207.274107 
L 146.71436 208.407487 
L 148.922894 206.200971 
L 151.131429 202.919818 
L 153.339963 206.022736 
L 155.548497 218.811481 
L 157.757032 212.997076 
L 159.965566 213.62664 
L 162.1741 198.806446 
L 164.382635 214.885962 
L 166.591169 203.883589 
L 168.799703 200.980971 
L 171.008237 205.758885 
L 173.216772 207.341488 
L 175.425306 206.49111 
L 177.63384 206.190513 
L 179.842375 201.196027 
L 182.050909 214.472456 
L 184.259443 197.332867 
L 186.467978 248.76776 
L 188.676512 295.488 
L 190.885046 265.001767 
L 193.093581 240.324428 
L 195.302115 220.493392 
L 197.510649 238.564479 
L 199.719184 219.947299 
L 201.927718 224.944914 
L 204.136252 221.493476 
L 206.344787 213.845144 
L 208.553321 213.076066 
L 210.761855 211.149702 
L 212.97039 215.091909 
L 215.178924 222.033337 
L 217.387458 223.254813 
L 219.595993 224.618335 
L 221.804527 206.871952 
L 224.013061 239.422953 
L 226.221596 219.011709 
L 228.43013 225.411546 
L 230.638664 210.233701 
L 232.847199 223.907658 
L 235.055733 223.279292 
L 237.264267 223.29249 
L 239.472801 204.42124 
L 241.681336 217.020527 
L 243.88987 224.141964 
L 246.098404 228.402971 
L 248.306939 208.22796 
L 250.515473 205.167256 
L 252.724007 226.46956 
L 254.932542 218.192686 
L 257.141076 204.868497 
L 259.34961 210.204467 
L 261.558145 214.488343 
L 263.766679 215.77549 
L 265.975213 204.407136 
L 268.183748 216.537455 
L 270.392282 209.189137 
L 272.600816 222.613689 
L 274.809351 215.601952 
L 277.017885 231.178198 
L 279.226419 213.42899 
L 281.434954 208.485525 
L 283.643488 222.963913 
L 285.852022 239.637287 
L 288.060557 220.613452 
L 290.269091 207.044602 
L 292.477625 235.168413 
L 294.68616 227.971673 
L 296.894694 240.050039 
L 299.103228 239.834833 
L 301.311763 216.302123 
L 303.520297 205.983422 
L 305.728831 243.619687 
L 307.937365 252.289885 
L 310.1459 243.475416 
L 312.354434 218.929409 
L 314.562968 250.551324 
L 316.771503 226.997408 
L 318.980037 246.422677 
L 321.188571 226.857047 
L 323.397106 233.079651 
L 325.60564 227.498011 
L 327.814174 228.680801 
L 330.022709 249.578589 
L 332.231243 242.719416 
L 334.439777 229.114755 
L 336.648312 272.668692 
L 338.856846 239.763822 
L 341.06538 216.411024 
L 343.273915 227.461423 
L 345.482449 229.126022 
L 347.690983 223.435526 
L 349.899518 228.373336 
L 352.108052 199.740846 
L 354.316586 231.708066 
L 356.525121 224.892062 
L 358.733655 227.537951 
L 360.942189 218.116446 
L 363.150724 211.05489 
L 365.359258 226.013585 
L 367.567792 228.874691 
L 369.776327 216.05233 
L 371.984861 225.530342 
L 374.193395 218.539935 
L 376.401929 206.554245 
L 378.610464 223.228007 
L 380.818998 229.317029 
L 383.027532 218.887502 
L 385.236067 204.136373 
L 387.444601 224.027447 
L 389.653135 235.757789 
L 391.86167 237.552757 
L 394.070204 204.77169 
L 396.278738 229.063595 
L 398.487273 214.885127 
L 398.487273 214.885127 
" clip-path="url(#p288dd2ac47)" style="fill: none; stroke: #f08080; stroke-opacity: 0.8; stroke-width: 0.5; stroke-linecap: square"/>
   </g>
   <g id="patch_3">
    <path d="M 57.6 307.584 
L 57.6 41.472 
" style="fill: none; stroke: #000000; stroke-width: 0.8; stroke-linejoin: miter; stroke-linecap: square"/>
   </g>
   <g id="patch_4">
    <path d="M 414.72 307.584 
L 414.72 41.472 
" style="fill: none; stroke: #000000; stroke-width: 0.8; stroke-linejoin: miter; stroke-linecap: square"/>
   </g>
   <g id="patch_5">
    <path d="M 57.6 307.584 
L 414.72 307.584 
" style="fill: none; stroke: #000000; stroke-width: 0.8; stroke-linejoin: miter; stroke-linecap: square"/>
   </g>
   <g id="patch_6">
    <path d="M 57.6 41.472 
L 414.72 41.472 
" style="fill: none; stroke: #000000; stroke-width: 0.8; stroke-linejoin: miter; stroke-linecap: square"/>
   </g>
   <g id="text_16">
    <!-- isomorphism_snp500 -->
    <g transform="translate(172.275937 35.472) scale(0.12 -0.12)">
     <defs>
      <path id="DejaVuSans-69" d="M 603 3500 
L 1178 3500 
L 1178 0 
L 603 0 
L 603 3500 
z
M 603 4863 
L 1178 4863 
L 1178 4134 
L 603 4134 
L 603 4863 
z
" transform="scale(0.015625)"/>
      <path id="DejaVuSans-73" d="M 2834 3397 
L 2834 2853 
Q 2591 2978 2328 3040 
Q 2066 3103 1784 3103 
Q 1356 3103 1142 2972 
Q 928 2841 928 2578 
Q 928 2378 1081 2264 
Q 1234 2150 1697 2047 
L 1894 2003 
Q 2506 1872 2764 1633 
Q 3022 1394 3022 966 
Q 3022 478 2636 193 
Q 2250 -91 1575 -91 
Q 1294 -91 989 -36 
Q 684 19 347 128 
L 347 722 
Q 666 556 975 473 
Q 1284 391 1588 391 
Q 1994 391 2212 530 
Q 2431 669 2431 922 
Q 2431 1156 2273 1281 
Q 2116 1406 1581 1522 
L 1381 1569 
Q 847 1681 609 1914 
Q 372 2147 372 2553 
Q 372 3047 722 3315 
Q 1072 3584 1716 3584 
Q 2034 3584 2315 3537 
Q 2597 3491 2834 3397 
z
" transform="scale(0.015625)"/>
      <path id="DejaVuSans-6f" d="M 1959 3097 
Q 1497 3097 1228 2736 
Q 959 2375 959 1747 
Q 959 1119 1226 758 
Q 1494 397 1959 397 
Q 2419 397 2687 759 
Q 2956 1122 2956 1747 
Q 2956 2369 2687 2733 
Q 2419 3097 1959 3097 
z
M 1959 3584 
Q 2709 3584 3137 3096 
Q 3566 2609 3566 1747 
Q 3566 888 3137 398 
Q 2709 -91 1959 -91 
Q 1206 -91 779 398 
Q 353 888 353 1747 
Q 353 2609 779 3096 
Q 1206 3584 1959 3584 
z
" transform="scale(0.015625)"/>
      <path id="DejaVuSans-6d" d="M 3328 2828 
Q 3544 3216 3844 3400 
Q 4144 3584 4550 3584 
Q 5097 3584 5394 3201 
Q 5691 2819 5691 2113 
L 5691 0 
L 5113 0 
L 5113 2094 
Q 5113 2597 4934 2840 
Q 4756 3084 4391 3084 
Q 3944 3084 3684 2787 
Q 3425 2491 3425 1978 
L 3425 0 
L 2847 0 
L 2847 2094 
Q 2847 2600 2669 2842 
Q 2491 3084 2119 3084 
Q 1678 3084 1418 2786 
Q 1159 2488 1159 1978 
L 1159 0 
L 581 0 
L 581 3500 
L 1159 3500 
L 1159 2956 
Q 1356 3278 1631 3431 
Q 1906 3584 2284 3584 
Q 2666 3584 2933 3390 
Q 3200 3197 3328 2828 
z
" transform="scale(0.015625)"/>
      <path id="DejaVuSans-72" d="M 2631 2963 
Q 2534 3019 2420 3045 
Q 2306 3072 2169 3072 
Q 1681 3072 1420 2755 
Q 1159 2438 1159 1844 
L 1159 0 
L 581 0 
L 581 3500 
L 1159 3500 
L 1159 2956 
Q 1341 3275 1631 3429 
Q 1922 3584 2338 3584 
Q 2397 3584 2469 3576 
Q 2541 3569 2628 3553 
L 2631 2963 
z
" transform="scale(0.015625)"/>
      <path id="DejaVuSans-70" d="M 1159 525 
L 1159 -1331 
L 581 -1331 
L 581 3500 
L 1159 3500 
L 1159 2969 
Q 1341 3281 1617 3432 
Q 1894 3584 2278 3584 
Q 2916 3584 3314 3078 
Q 3713 2572 3713 1747 
Q 3713 922 3314 415 
Q 2916 -91 2278 -91 
Q 1894 -91 1617 61 
Q 1341 213 1159 525 
z
M 3116 1747 
Q 3116 2381 2855 2742 
Q 2594 3103 2138 3103 
Q 1681 3103 1420 2742 
Q 1159 2381 1159 1747 
Q 1159 1113 1420 752 
Q 1681 391 2138 391 
Q 2594 391 2855 752 
Q 3116 1113 3116 1747 
z
" transform="scale(0.015625)"/>
      <path id="DejaVuSans-68" d="M 3513 2113 
L 3513 0 
L 2938 0 
L 2938 2094 
Q 2938 2591 2744 2837 
Q 2550 3084 2163 3084 
Q 1697 3084 1428 2787 
Q 1159 2491 1159 1978 
L 1159 0 
L 581 0 
L 581 4863 
L 1159 4863 
L 1159 2956 
Q 1366 3272 1645 3428 
Q 1925 3584 2291 3584 
Q 2894 3584 3203 3211 
Q 3513 2838 3513 2113 
z
" transform="scale(0.015625)"/>
      <path id="DejaVuSans-5f" d="M 3263 -1063 
L 3263 -1509 
L -63 -1509 
L -63 -1063 
L 3263 -1063 
z
" transform="scale(0.015625)"/>
      <path id="DejaVuSans-6e" d="M 3513 2113 
L 3513 0 
L 2938 0 
L 2938 2094 
Q 2938 2591 2744 2837 
Q 2550 3084 2163 3084 
Q 1697 3084 1428 2787 
Q 1159 2491 1159 1978 
L 1159 0 
L 581 0 
L 581 3500 
L 1159 3500 
L 1159 2956 
Q 1366 3272 1645 3428 
Q 1925 3584 2291 3584 
Q 2894 3584 3203 3211 
Q 3513 2838 3513 2113 
z
" transform="scale(0.015625)"/>
      <path id="DejaVuSans-35" d="M 691 4666 
L 3169 4666 
L 3169 4134 
L 1269 4134 
L 1269 2991 
Q 1406 3038 1543 3061 
Q 1681 3084 1819 3084 
Q 2600 3084 3056 2656 
Q 3513 2228 3513 1497 
Q 3513 744 3044 326 
Q 2575 -91 1722 -91 
Q 1428 -91 1123 -41 
Q 819 9 494 109 
L 494 744 
Q 775 591 1075 516 
Q 1375 441 1709 441 
Q 2250 441 2565 725 
Q 2881 1009 2881 1497 
Q 2881 1984 2565 2268 
Q 2250 2553 1709 2553 
Q 1456 2553 1204 2497 
Q 953 2441 691 2322 
L 691 4666 
z
" transform="scale(0.015625)"/>
     </defs>
     <use xlink:href="#DejaVuSans-69"/>
     <use xlink:href="#DejaVuSans-73" x="27.783203"/>
     <use xlink:href="#DejaVuSans-6f" x="79.882812"/>
     <use xlink:href="#DejaVuSans-6d" x="141.064453"/>
     <use xlink:href="#DejaVuSans-6f" x="238.476562"/>
     <use xlink:href="#DejaVuSans-72" x="299.658203"/>
     <use xlink:href="#DejaVuSans-70" x="340.771484"/>
     <use xlink:href="#DejaVuSans-68" x="404.248047"/>
     <use xlink:href="#DejaVuSans-69" x="467.626953"/>
     <use xlink:href="#DejaVuSans-73" x="495.410156"/>
     <use xlink:href="#DejaVuSans-6d" x="547.509766"/>
     <use xlink:href="#DejaVuSans-5f" x="644.921875"/>
     <use xlink:href="#DejaVuSans-73" x="694.921875"/>
     <use xlink:href="#DejaVuSans-6e" x="747.021484"/>
     <use xlink:href="#DejaVuSans-70" x="810.400391"/>
     <use xlink:href="#DejaVuSans-35" x="873.876953"/>
     <use xlink:href="#DejaVuSans-30" x="937.5"/>
     <use xlink:href="#DejaVuSans-30" x="1001.123047"/>
    </g>
   </g>
   <g id="legend_1">
    <g id="patch_7">
     <path d="M 64.6 137.54075 
L 225.001563 137.54075 
Q 227.001563 137.54075 227.001563 135.54075 
L 227.001563 48.472 
Q 227.001563 46.472 225.001563 46.472 
L 64.6 46.472 
Q 62.6 46.472 62.6 48.472 
L 62.6 135.54075 
Q 62.6 137.54075 64.6 137.54075 
z
" style="fill: #ffffff; opacity: 0.8; stroke: #cccccc; stroke-linejoin: miter"/>
    </g>
    <g id="line2d_22">
     <path d="M 66.6 54.570438 
L 76.6 54.570438 
L 86.6 54.570438 
" style="fill: none; stroke: #008000; stroke-opacity: 0.8; stroke-width: 0.5; stroke-linecap: square"/>
    </g>
    <g id="text_17">
     <!-- Positive predictions -->
     <g transform="translate(94.6 58.070438) scale(0.1 -0.1)">
      <defs>
       <path id="DejaVuSans-50" d="M 1259 4147 
L 1259 2394 
L 2053 2394 
Q 2494 2394 2734 2622 
Q 2975 2850 2975 3272 
Q 2975 3691 2734 3919 
Q 2494 4147 2053 4147 
L 1259 4147 
z
M 628 4666 
L 2053 4666 
Q 2838 4666 3239 4311 
Q 3641 3956 3641 3272 
Q 3641 2581 3239 2228 
Q 2838 1875 2053 1875 
L 1259 1875 
L 1259 0 
L 628 0 
L 628 4666 
z
" transform="scale(0.015625)"/>
       <path id="DejaVuSans-74" d="M 1172 4494 
L 1172 3500 
L 2356 3500 
L 2356 3053 
L 1172 3053 
L 1172 1153 
Q 1172 725 1289 603 
Q 1406 481 1766 481 
L 2356 481 
L 2356 0 
L 1766 0 
Q 1100 0 847 248 
Q 594 497 594 1153 
L 594 3053 
L 172 3053 
L 172 3500 
L 594 3500 
L 594 4494 
L 1172 4494 
z
" transform="scale(0.015625)"/>
       <path id="DejaVuSans-76" d="M 191 3500 
L 800 3500 
L 1894 563 
L 2988 3500 
L 3597 3500 
L 2284 0 
L 1503 0 
L 191 3500 
z
" transform="scale(0.015625)"/>
       <path id="DejaVuSans-65" d="M 3597 1894 
L 3597 1613 
L 953 1613 
Q 991 1019 1311 708 
Q 1631 397 2203 397 
Q 2534 397 2845 478 
Q 3156 559 3463 722 
L 3463 178 
Q 3153 47 2828 -22 
Q 2503 -91 2169 -91 
Q 1331 -91 842 396 
Q 353 884 353 1716 
Q 353 2575 817 3079 
Q 1281 3584 2069 3584 
Q 2775 3584 3186 3129 
Q 3597 2675 3597 1894 
z
M 3022 2063 
Q 3016 2534 2758 2815 
Q 2500 3097 2075 3097 
Q 1594 3097 1305 2825 
Q 1016 2553 972 2059 
L 3022 2063 
z
" transform="scale(0.015625)"/>
       <path id="DejaVuSans-20" transform="scale(0.015625)"/>
       <path id="DejaVuSans-64" d="M 2906 2969 
L 2906 4863 
L 3481 4863 
L 3481 0 
L 2906 0 
L 2906 525 
Q 2725 213 2448 61 
Q 2172 -91 1784 -91 
Q 1150 -91 751 415 
Q 353 922 353 1747 
Q 353 2572 751 3078 
Q 1150 3584 1784 3584 
Q 2172 3584 2448 3432 
Q 2725 3281 2906 2969 
z
M 947 1747 
Q 947 1113 1208 752 
Q 1469 391 1925 391 
Q 2381 391 2643 752 
Q 2906 1113 2906 1747 
Q 2906 2381 2643 2742 
Q 2381 3103 1925 3103 
Q 1469 3103 1208 2742 
Q 947 2381 947 1747 
z
" transform="scale(0.015625)"/>
       <path id="DejaVuSans-63" d="M 3122 3366 
L 3122 2828 
Q 2878 2963 2633 3030 
Q 2388 3097 2138 3097 
Q 1578 3097 1268 2742 
Q 959 2388 959 1747 
Q 959 1106 1268 751 
Q 1578 397 2138 397 
Q 2388 397 2633 464 
Q 2878 531 3122 666 
L 3122 134 
Q 2881 22 2623 -34 
Q 2366 -91 2075 -91 
Q 1284 -91 818 406 
Q 353 903 353 1747 
Q 353 2603 823 3093 
Q 1294 3584 2113 3584 
Q 2378 3584 2631 3529 
Q 2884 3475 3122 3366 
z
" transform="scale(0.015625)"/>
      </defs>
      <use xlink:href="#DejaVuSans-50"/>
      <use xlink:href="#DejaVuSans-6f" x="56.677734"/>
      <use xlink:href="#DejaVuSans-73" x="117.859375"/>
      <use xlink:href="#DejaVuSans-69" x="169.958984"/>
      <use xlink:href="#DejaVuSans-74" x="197.742188"/>
      <use xlink:href="#DejaVuSans-69" x="236.951172"/>
      <use xlink:href="#DejaVuSans-76" x="264.734375"/>
      <use xlink:href="#DejaVuSans-65" x="323.914062"/>
      <use xlink:href="#DejaVuSans-20" x="385.4375"/>
      <use xlink:href="#DejaVuSans-70" x="417.224609"/>
      <use xlink:href="#DejaVuSans-72" x="480.701172"/>
      <use xlink:href="#DejaVuSans-65" x="519.564453"/>
      <use xlink:href="#DejaVuSans-64" x="581.087891"/>
      <use xlink:href="#DejaVuSans-69" x="644.564453"/>
      <use xlink:href="#DejaVuSans-63" x="672.347656"/>
      <use xlink:href="#DejaVuSans-74" x="727.328125"/>
      <use xlink:href="#DejaVuSans-69" x="766.537109"/>
      <use xlink:href="#DejaVuSans-6f" x="794.320312"/>
      <use xlink:href="#DejaVuSans-6e" x="855.501953"/>
      <use xlink:href="#DejaVuSans-73" x="918.880859"/>
     </g>
    </g>
    <g id="line2d_23">
     <path d="M 66.6 69.248563 
L 76.6 69.248563 
L 86.6 69.248563 
" style="fill: none; stroke: #32cd32; stroke-opacity: 0.8; stroke-width: 0.5; stroke-linecap: square"/>
    </g>
    <g id="text_18">
     <!-- Positive predictions max -->
     <g transform="translate(94.6 72.748563) scale(0.1 -0.1)">
      <defs>
       <path id="DejaVuSans-61" d="M 2194 1759 
Q 1497 1759 1228 1600 
Q 959 1441 959 1056 
Q 959 750 1161 570 
Q 1363 391 1709 391 
Q 2188 391 2477 730 
Q 2766 1069 2766 1631 
L 2766 1759 
L 2194 1759 
z
M 3341 1997 
L 3341 0 
L 2766 0 
L 2766 531 
Q 2569 213 2275 61 
Q 1981 -91 1556 -91 
Q 1019 -91 701 211 
Q 384 513 384 1019 
Q 384 1609 779 1909 
Q 1175 2209 1959 2209 
L 2766 2209 
L 2766 2266 
Q 2766 2663 2505 2880 
Q 2244 3097 1772 3097 
Q 1472 3097 1187 3025 
Q 903 2953 641 2809 
L 641 3341 
Q 956 3463 1253 3523 
Q 1550 3584 1831 3584 
Q 2591 3584 2966 3190 
Q 3341 2797 3341 1997 
z
" transform="scale(0.015625)"/>
       <path id="DejaVuSans-78" d="M 3513 3500 
L 2247 1797 
L 3578 0 
L 2900 0 
L 1881 1375 
L 863 0 
L 184 0 
L 1544 1831 
L 300 3500 
L 978 3500 
L 1906 2253 
L 2834 3500 
L 3513 3500 
z
" transform="scale(0.015625)"/>
      </defs>
      <use xlink:href="#DejaVuSans-50"/>
      <use xlink:href="#DejaVuSans-6f" x="56.677734"/>
      <use xlink:href="#DejaVuSans-73" x="117.859375"/>
      <use xlink:href="#DejaVuSans-69" x="169.958984"/>
      <use xlink:href="#DejaVuSans-74" x="197.742188"/>
      <use xlink:href="#DejaVuSans-69" x="236.951172"/>
      <use xlink:href="#DejaVuSans-76" x="264.734375"/>
      <use xlink:href="#DejaVuSans-65" x="323.914062"/>
      <use xlink:href="#DejaVuSans-20" x="385.4375"/>
      <use xlink:href="#DejaVuSans-70" x="417.224609"/>
      <use xlink:href="#DejaVuSans-72" x="480.701172"/>
      <use xlink:href="#DejaVuSans-65" x="519.564453"/>
      <use xlink:href="#DejaVuSans-64" x="581.087891"/>
      <use xlink:href="#DejaVuSans-69" x="644.564453"/>
      <use xlink:href="#DejaVuSans-63" x="672.347656"/>
      <use xlink:href="#DejaVuSans-74" x="727.328125"/>
      <use xlink:href="#DejaVuSans-69" x="766.537109"/>
      <use xlink:href="#DejaVuSans-6f" x="794.320312"/>
      <use xlink:href="#DejaVuSans-6e" x="855.501953"/>
      <use xlink:href="#DejaVuSans-73" x="918.880859"/>
      <use xlink:href="#DejaVuSans-20" x="970.980469"/>
      <use xlink:href="#DejaVuSans-6d" x="1002.767578"/>
      <use xlink:href="#DejaVuSans-61" x="1100.179688"/>
      <use xlink:href="#DejaVuSans-78" x="1161.458984"/>
     </g>
    </g>
    <g id="line2d_24">
     <path d="M 66.6 83.926688 
L 76.6 83.926688 
L 86.6 83.926688 
" style="fill: none; stroke: #32cd32; stroke-opacity: 0.8; stroke-width: 0.5; stroke-linecap: square"/>
    </g>
    <g id="text_19">
     <!-- Positive predictions min -->
     <g transform="translate(94.6 87.426688) scale(0.1 -0.1)">
      <use xlink:href="#DejaVuSans-50"/>
      <use xlink:href="#DejaVuSans-6f" x="56.677734"/>
      <use xlink:href="#DejaVuSans-73" x="117.859375"/>
      <use xlink:href="#DejaVuSans-69" x="169.958984"/>
      <use xlink:href="#DejaVuSans-74" x="197.742188"/>
      <use xlink:href="#DejaVuSans-69" x="236.951172"/>
      <use xlink:href="#DejaVuSans-76" x="264.734375"/>
      <use xlink:href="#DejaVuSans-65" x="323.914062"/>
      <use xlink:href="#DejaVuSans-20" x="385.4375"/>
      <use xlink:href="#DejaVuSans-70" x="417.224609"/>
      <use xlink:href="#DejaVuSans-72" x="480.701172"/>
      <use xlink:href="#DejaVuSans-65" x="519.564453"/>
      <use xlink:href="#DejaVuSans-64" x="581.087891"/>
      <use xlink:href="#DejaVuSans-69" x="644.564453"/>
      <use xlink:href="#DejaVuSans-63" x="672.347656"/>
      <use xlink:href="#DejaVuSans-74" x="727.328125"/>
      <use xlink:href="#DejaVuSans-69" x="766.537109"/>
      <use xlink:href="#DejaVuSans-6f" x="794.320312"/>
      <use xlink:href="#DejaVuSans-6e" x="855.501953"/>
      <use xlink:href="#DejaVuSans-73" x="918.880859"/>
      <use xlink:href="#DejaVuSans-20" x="970.980469"/>
      <use xlink:href="#DejaVuSans-6d" x="1002.767578"/>
      <use xlink:href="#DejaVuSans-69" x="1100.179688"/>
      <use xlink:href="#DejaVuSans-6e" x="1127.962891"/>
     </g>
    </g>
    <g id="line2d_25">
     <path d="M 66.6 98.604813 
L 76.6 98.604813 
L 86.6 98.604813 
" style="fill: none; stroke: #ff0000; stroke-opacity: 0.8; stroke-width: 0.5; stroke-linecap: square"/>
    </g>
    <g id="text_20">
     <!-- Negative predictions -->
     <g transform="translate(94.6 102.104813) scale(0.1 -0.1)">
      <defs>
       <path id="DejaVuSans-4e" d="M 628 4666 
L 1478 4666 
L 3547 763 
L 3547 4666 
L 4159 4666 
L 4159 0 
L 3309 0 
L 1241 3903 
L 1241 0 
L 628 0 
L 628 4666 
z
" transform="scale(0.015625)"/>
       <path id="DejaVuSans-67" d="M 2906 1791 
Q 2906 2416 2648 2759 
Q 2391 3103 1925 3103 
Q 1463 3103 1205 2759 
Q 947 2416 947 1791 
Q 947 1169 1205 825 
Q 1463 481 1925 481 
Q 2391 481 2648 825 
Q 2906 1169 2906 1791 
z
M 3481 434 
Q 3481 -459 3084 -895 
Q 2688 -1331 1869 -1331 
Q 1566 -1331 1297 -1286 
Q 1028 -1241 775 -1147 
L 775 -588 
Q 1028 -725 1275 -790 
Q 1522 -856 1778 -856 
Q 2344 -856 2625 -561 
Q 2906 -266 2906 331 
L 2906 616 
Q 2728 306 2450 153 
Q 2172 0 1784 0 
Q 1141 0 747 490 
Q 353 981 353 1791 
Q 353 2603 747 3093 
Q 1141 3584 1784 3584 
Q 2172 3584 2450 3431 
Q 2728 3278 2906 2969 
L 2906 3500 
L 3481 3500 
L 3481 434 
z
" transform="scale(0.015625)"/>
      </defs>
      <use xlink:href="#DejaVuSans-4e"/>
      <use xlink:href="#DejaVuSans-65" x="74.804688"/>
      <use xlink:href="#DejaVuSans-67" x="136.328125"/>
      <use xlink:href="#DejaVuSans-61" x="199.804688"/>
      <use xlink:href="#DejaVuSans-74" x="261.083984"/>
      <use xlink:href="#DejaVuSans-69" x="300.292969"/>
      <use xlink:href="#DejaVuSans-76" x="328.076172"/>
      <use xlink:href="#DejaVuSans-65" x="387.255859"/>
      <use xlink:href="#DejaVuSans-20" x="448.779297"/>
      <use xlink:href="#DejaVuSans-70" x="480.566406"/>
      <use xlink:href="#DejaVuSans-72" x="544.042969"/>
      <use xlink:href="#DejaVuSans-65" x="582.90625"/>
      <use xlink:href="#DejaVuSans-64" x="644.429688"/>
      <use xlink:href="#DejaVuSans-69" x="707.90625"/>
      <use xlink:href="#DejaVuSans-63" x="735.689453"/>
      <use xlink:href="#DejaVuSans-74" x="790.669922"/>
      <use xlink:href="#DejaVuSans-69" x="829.878906"/>
      <use xlink:href="#DejaVuSans-6f" x="857.662109"/>
      <use xlink:href="#DejaVuSans-6e" x="918.84375"/>
      <use xlink:href="#DejaVuSans-73" x="982.222656"/>
     </g>
    </g>
    <g id="line2d_26">
     <path d="M 66.6 113.282938 
L 76.6 113.282938 
L 86.6 113.282938 
" style="fill: none; stroke: #f08080; stroke-opacity: 0.8; stroke-width: 0.5; stroke-linecap: square"/>
    </g>
    <g id="text_21">
     <!-- Negative predictions max -->
     <g transform="translate(94.6 116.782938) scale(0.1 -0.1)">
      <use xlink:href="#DejaVuSans-4e"/>
      <use xlink:href="#DejaVuSans-65" x="74.804688"/>
      <use xlink:href="#DejaVuSans-67" x="136.328125"/>
      <use xlink:href="#DejaVuSans-61" x="199.804688"/>
      <use xlink:href="#DejaVuSans-74" x="261.083984"/>
      <use xlink:href="#DejaVuSans-69" x="300.292969"/>
      <use xlink:href="#DejaVuSans-76" x="328.076172"/>
      <use xlink:href="#DejaVuSans-65" x="387.255859"/>
      <use xlink:href="#DejaVuSans-20" x="448.779297"/>
      <use xlink:href="#DejaVuSans-70" x="480.566406"/>
      <use xlink:href="#DejaVuSans-72" x="544.042969"/>
      <use xlink:href="#DejaVuSans-65" x="582.90625"/>
      <use xlink:href="#DejaVuSans-64" x="644.429688"/>
      <use xlink:href="#DejaVuSans-69" x="707.90625"/>
      <use xlink:href="#DejaVuSans-63" x="735.689453"/>
      <use xlink:href="#DejaVuSans-74" x="790.669922"/>
      <use xlink:href="#DejaVuSans-69" x="829.878906"/>
      <use xlink:href="#DejaVuSans-6f" x="857.662109"/>
      <use xlink:href="#DejaVuSans-6e" x="918.84375"/>
      <use xlink:href="#DejaVuSans-73" x="982.222656"/>
      <use xlink:href="#DejaVuSans-20" x="1034.322266"/>
      <use xlink:href="#DejaVuSans-6d" x="1066.109375"/>
      <use xlink:href="#DejaVuSans-61" x="1163.521484"/>
      <use xlink:href="#DejaVuSans-78" x="1224.800781"/>
     </g>
    </g>
    <g id="line2d_27">
     <path d="M 66.6 127.961063 
L 76.6 127.961063 
L 86.6 127.961063 
" style="fill: none; stroke: #f08080; stroke-opacity: 0.8; stroke-width: 0.5; stroke-linecap: square"/>
    </g>
    <g id="text_22">
     <!-- Negative predictions min -->
     <g transform="translate(94.6 131.461063) scale(0.1 -0.1)">
      <use xlink:href="#DejaVuSans-4e"/>
      <use xlink:href="#DejaVuSans-65" x="74.804688"/>
      <use xlink:href="#DejaVuSans-67" x="136.328125"/>
      <use xlink:href="#DejaVuSans-61" x="199.804688"/>
      <use xlink:href="#DejaVuSans-74" x="261.083984"/>
      <use xlink:href="#DejaVuSans-69" x="300.292969"/>
      <use xlink:href="#DejaVuSans-76" x="328.076172"/>
      <use xlink:href="#DejaVuSans-65" x="387.255859"/>
      <use xlink:href="#DejaVuSans-20" x="448.779297"/>
      <use xlink:href="#DejaVuSans-70" x="480.566406"/>
      <use xlink:href="#DejaVuSans-72" x="544.042969"/>
      <use xlink:href="#DejaVuSans-65" x="582.90625"/>
      <use xlink:href="#DejaVuSans-64" x="644.429688"/>
      <use xlink:href="#DejaVuSans-69" x="707.90625"/>
      <use xlink:href="#DejaVuSans-63" x="735.689453"/>
      <use xlink:href="#DejaVuSans-74" x="790.669922"/>
      <use xlink:href="#DejaVuSans-69" x="829.878906"/>
      <use xlink:href="#DejaVuSans-6f" x="857.662109"/>
      <use xlink:href="#DejaVuSans-6e" x="918.84375"/>
      <use xlink:href="#DejaVuSans-73" x="982.222656"/>
      <use xlink:href="#DejaVuSans-20" x="1034.322266"/>
      <use xlink:href="#DejaVuSans-6d" x="1066.109375"/>
      <use xlink:href="#DejaVuSans-69" x="1163.521484"/>
      <use xlink:href="#DejaVuSans-6e" x="1191.304688"/>
     </g>
    </g>
   </g>
  </g>
 </g>
 <defs>
  <clipPath id="p288dd2ac47">
   <rect x="57.6" y="41.472" width="357.12" height="266.112"/>
  </clipPath>
 </defs>
</svg>
