<?xml version="1.0" encoding="utf-8" standalone="no"?>
<!DOCTYPE svg PUBLIC "-//W3C//DTD SVG 1.1//EN"
  "http://www.w3.org/Graphics/SVG/1.1/DTD/svg11.dtd">
<svg xmlns:xlink="http://www.w3.org/1999/xlink" width="460.8pt" height="345.6pt" viewBox="0 0 460.8 345.6" xmlns="http://www.w3.org/2000/svg" version="1.1">
 <metadata>
  <rdf:RDF xmlns:dc="http://purl.org/dc/elements/1.1/" xmlns:cc="http://creativecommons.org/ns#" xmlns:rdf="http://www.w3.org/1999/02/22-rdf-syntax-ns#">
   <cc:Work>
    <dc:type rdf:resource="http://purl.org/dc/dcmitype/StillImage"/>
    <dc:date>2024-05-30T09:29:07.486050</dc:date>
    <dc:format>image/svg+xml</dc:format>
    <dc:creator>
     <cc:Agent>
      <dc:title>Matplotlib v3.9.0, https://matplotlib.org/</dc:title>
     </cc:Agent>
    </dc:creator>
   </cc:Work>
  </rdf:RDF>
 </metadata>
 <defs>
  <style type="text/css">*{stroke-linejoin: round; stroke-linecap: butt}</style>
 </defs>
 <g id="figure_1">
  <g id="patch_1">
   <path d="M 0 345.6 
L 460.8 345.6 
L 460.8 0 
L 0 0 
z
" style="fill: #ffffff"/>
  </g>
  <g id="axes_1">
   <g id="patch_2">
    <path d="M 57.6 307.584 
L 414.72 307.584 
L 414.72 41.472 
L 57.6 41.472 
z
" style="fill: #ffffff"/>
   </g>
   <g id="matplotlib.axis_1">
    <g id="xtick_1">
     <g id="line2d_1">
      <defs>
       <path id="m4311996e0b" d="M 0 0 
L 0 3.5 
" style="stroke: #000000; stroke-width: 0.8"/>
      </defs>
      <g>
       <use xlink:href="#m4311996e0b" x="73.832727" y="307.584" style="stroke: #000000; stroke-width: 0.8"/>
      </g>
     </g>
     <g id="text_1">
      <!-- 0 -->
      <g transform="translate(70.651477 322.182437) scale(0.1 -0.1)">
       <defs>
        <path id="DejaVuSans-30" d="M 2034 4250 
Q 1547 4250 1301 3770 
Q 1056 3291 1056 2328 
Q 1056 1369 1301 889 
Q 1547 409 2034 409 
Q 2525 409 2770 889 
Q 3016 1369 3016 2328 
Q 3016 3291 2770 3770 
Q 2525 4250 2034 4250 
z
M 2034 4750 
Q 2819 4750 3233 4129 
Q 3647 3509 3647 2328 
Q 3647 1150 3233 529 
Q 2819 -91 2034 -91 
Q 1250 -91 836 529 
Q 422 1150 422 2328 
Q 422 3509 836 4129 
Q 1250 4750 2034 4750 
z
" transform="scale(0.015625)"/>
       </defs>
       <use xlink:href="#DejaVuSans-30"/>
      </g>
     </g>
    </g>
    <g id="xtick_2">
     <g id="line2d_2">
      <g>
       <use xlink:href="#m4311996e0b" x="117.76433" y="307.584" style="stroke: #000000; stroke-width: 0.8"/>
      </g>
     </g>
     <g id="text_2">
      <!-- 200 -->
      <g transform="translate(108.22058 322.182437) scale(0.1 -0.1)">
       <defs>
        <path id="DejaVuSans-32" d="M 1228 531 
L 3431 531 
L 3431 0 
L 469 0 
L 469 531 
Q 828 903 1448 1529 
Q 2069 2156 2228 2338 
Q 2531 2678 2651 2914 
Q 2772 3150 2772 3378 
Q 2772 3750 2511 3984 
Q 2250 4219 1831 4219 
Q 1534 4219 1204 4116 
Q 875 4013 500 3803 
L 500 4441 
Q 881 4594 1212 4672 
Q 1544 4750 1819 4750 
Q 2544 4750 2975 4387 
Q 3406 4025 3406 3419 
Q 3406 3131 3298 2873 
Q 3191 2616 2906 2266 
Q 2828 2175 2409 1742 
Q 1991 1309 1228 531 
z
" transform="scale(0.015625)"/>
       </defs>
       <use xlink:href="#DejaVuSans-32"/>
       <use xlink:href="#DejaVuSans-30" x="63.623047"/>
       <use xlink:href="#DejaVuSans-30" x="127.246094"/>
      </g>
     </g>
    </g>
    <g id="xtick_3">
     <g id="line2d_3">
      <g>
       <use xlink:href="#m4311996e0b" x="161.695933" y="307.584" style="stroke: #000000; stroke-width: 0.8"/>
      </g>
     </g>
     <g id="text_3">
      <!-- 400 -->
      <g transform="translate(152.152183 322.182437) scale(0.1 -0.1)">
       <defs>
        <path id="DejaVuSans-34" d="M 2419 4116 
L 825 1625 
L 2419 1625 
L 2419 4116 
z
M 2253 4666 
L 3047 4666 
L 3047 1625 
L 3713 1625 
L 3713 1100 
L 3047 1100 
L 3047 0 
L 2419 0 
L 2419 1100 
L 313 1100 
L 313 1709 
L 2253 4666 
z
" transform="scale(0.015625)"/>
       </defs>
       <use xlink:href="#DejaVuSans-34"/>
       <use xlink:href="#DejaVuSans-30" x="63.623047"/>
       <use xlink:href="#DejaVuSans-30" x="127.246094"/>
      </g>
     </g>
    </g>
    <g id="xtick_4">
     <g id="line2d_4">
      <g>
       <use xlink:href="#m4311996e0b" x="205.627536" y="307.584" style="stroke: #000000; stroke-width: 0.8"/>
      </g>
     </g>
     <g id="text_4">
      <!-- 600 -->
      <g transform="translate(196.083786 322.182437) scale(0.1 -0.1)">
       <defs>
        <path id="DejaVuSans-36" d="M 2113 2584 
Q 1688 2584 1439 2293 
Q 1191 2003 1191 1497 
Q 1191 994 1439 701 
Q 1688 409 2113 409 
Q 2538 409 2786 701 
Q 3034 994 3034 1497 
Q 3034 2003 2786 2293 
Q 2538 2584 2113 2584 
z
M 3366 4563 
L 3366 3988 
Q 3128 4100 2886 4159 
Q 2644 4219 2406 4219 
Q 1781 4219 1451 3797 
Q 1122 3375 1075 2522 
Q 1259 2794 1537 2939 
Q 1816 3084 2150 3084 
Q 2853 3084 3261 2657 
Q 3669 2231 3669 1497 
Q 3669 778 3244 343 
Q 2819 -91 2113 -91 
Q 1303 -91 875 529 
Q 447 1150 447 2328 
Q 447 3434 972 4092 
Q 1497 4750 2381 4750 
Q 2619 4750 2861 4703 
Q 3103 4656 3366 4563 
z
" transform="scale(0.015625)"/>
       </defs>
       <use xlink:href="#DejaVuSans-36"/>
       <use xlink:href="#DejaVuSans-30" x="63.623047"/>
       <use xlink:href="#DejaVuSans-30" x="127.246094"/>
      </g>
     </g>
    </g>
    <g id="xtick_5">
     <g id="line2d_5">
      <g>
       <use xlink:href="#m4311996e0b" x="249.559139" y="307.584" style="stroke: #000000; stroke-width: 0.8"/>
      </g>
     </g>
     <g id="text_5">
      <!-- 800 -->
      <g transform="translate(240.015389 322.182437) scale(0.1 -0.1)">
       <defs>
        <path id="DejaVuSans-38" d="M 2034 2216 
Q 1584 2216 1326 1975 
Q 1069 1734 1069 1313 
Q 1069 891 1326 650 
Q 1584 409 2034 409 
Q 2484 409 2743 651 
Q 3003 894 3003 1313 
Q 3003 1734 2745 1975 
Q 2488 2216 2034 2216 
z
M 1403 2484 
Q 997 2584 770 2862 
Q 544 3141 544 3541 
Q 544 4100 942 4425 
Q 1341 4750 2034 4750 
Q 2731 4750 3128 4425 
Q 3525 4100 3525 3541 
Q 3525 3141 3298 2862 
Q 3072 2584 2669 2484 
Q 3125 2378 3379 2068 
Q 3634 1759 3634 1313 
Q 3634 634 3220 271 
Q 2806 -91 2034 -91 
Q 1263 -91 848 271 
Q 434 634 434 1313 
Q 434 1759 690 2068 
Q 947 2378 1403 2484 
z
M 1172 3481 
Q 1172 3119 1398 2916 
Q 1625 2713 2034 2713 
Q 2441 2713 2670 2916 
Q 2900 3119 2900 3481 
Q 2900 3844 2670 4047 
Q 2441 4250 2034 4250 
Q 1625 4250 1398 4047 
Q 1172 3844 1172 3481 
z
" transform="scale(0.015625)"/>
       </defs>
       <use xlink:href="#DejaVuSans-38"/>
       <use xlink:href="#DejaVuSans-30" x="63.623047"/>
       <use xlink:href="#DejaVuSans-30" x="127.246094"/>
      </g>
     </g>
    </g>
    <g id="xtick_6">
     <g id="line2d_6">
      <g>
       <use xlink:href="#m4311996e0b" x="293.490742" y="307.584" style="stroke: #000000; stroke-width: 0.8"/>
      </g>
     </g>
     <g id="text_6">
      <!-- 1000 -->
      <g transform="translate(280.765742 322.182437) scale(0.1 -0.1)">
       <defs>
        <path id="DejaVuSans-31" d="M 794 531 
L 1825 531 
L 1825 4091 
L 703 3866 
L 703 4441 
L 1819 4666 
L 2450 4666 
L 2450 531 
L 3481 531 
L 3481 0 
L 794 0 
L 794 531 
z
" transform="scale(0.015625)"/>
       </defs>
       <use xlink:href="#DejaVuSans-31"/>
       <use xlink:href="#DejaVuSans-30" x="63.623047"/>
       <use xlink:href="#DejaVuSans-30" x="127.246094"/>
       <use xlink:href="#DejaVuSans-30" x="190.869141"/>
      </g>
     </g>
    </g>
    <g id="xtick_7">
     <g id="line2d_7">
      <g>
       <use xlink:href="#m4311996e0b" x="337.422345" y="307.584" style="stroke: #000000; stroke-width: 0.8"/>
      </g>
     </g>
     <g id="text_7">
      <!-- 1200 -->
      <g transform="translate(324.697345 322.182437) scale(0.1 -0.1)">
       <use xlink:href="#DejaVuSans-31"/>
       <use xlink:href="#DejaVuSans-32" x="63.623047"/>
       <use xlink:href="#DejaVuSans-30" x="127.246094"/>
       <use xlink:href="#DejaVuSans-30" x="190.869141"/>
      </g>
     </g>
    </g>
    <g id="xtick_8">
     <g id="line2d_8">
      <g>
       <use xlink:href="#m4311996e0b" x="381.353948" y="307.584" style="stroke: #000000; stroke-width: 0.8"/>
      </g>
     </g>
     <g id="text_8">
      <!-- 1400 -->
      <g transform="translate(368.628948 322.182437) scale(0.1 -0.1)">
       <use xlink:href="#DejaVuSans-31"/>
       <use xlink:href="#DejaVuSans-34" x="63.623047"/>
       <use xlink:href="#DejaVuSans-30" x="127.246094"/>
       <use xlink:href="#DejaVuSans-30" x="190.869141"/>
      </g>
     </g>
    </g>
   </g>
   <g id="matplotlib.axis_2">
    <g id="ytick_1">
     <g id="line2d_9">
      <defs>
       <path id="m02a34f2416" d="M 0 0 
L -3.5 0 
" style="stroke: #000000; stroke-width: 0.8"/>
      </defs>
      <g>
       <use xlink:href="#m02a34f2416" x="57.6" y="298.548079" style="stroke: #000000; stroke-width: 0.8"/>
      </g>
     </g>
     <g id="text_9">
      <!-- −30000 -->
      <g transform="translate(10.407812 302.347298) scale(0.1 -0.1)">
       <defs>
        <path id="DejaVuSans-2212" d="M 678 2272 
L 4684 2272 
L 4684 1741 
L 678 1741 
L 678 2272 
z
" transform="scale(0.015625)"/>
        <path id="DejaVuSans-33" d="M 2597 2516 
Q 3050 2419 3304 2112 
Q 3559 1806 3559 1356 
Q 3559 666 3084 287 
Q 2609 -91 1734 -91 
Q 1441 -91 1130 -33 
Q 819 25 488 141 
L 488 750 
Q 750 597 1062 519 
Q 1375 441 1716 441 
Q 2309 441 2620 675 
Q 2931 909 2931 1356 
Q 2931 1769 2642 2001 
Q 2353 2234 1838 2234 
L 1294 2234 
L 1294 2753 
L 1863 2753 
Q 2328 2753 2575 2939 
Q 2822 3125 2822 3475 
Q 2822 3834 2567 4026 
Q 2313 4219 1838 4219 
Q 1578 4219 1281 4162 
Q 984 4106 628 3988 
L 628 4550 
Q 988 4650 1302 4700 
Q 1616 4750 1894 4750 
Q 2613 4750 3031 4423 
Q 3450 4097 3450 3541 
Q 3450 3153 3228 2886 
Q 3006 2619 2597 2516 
z
" transform="scale(0.015625)"/>
       </defs>
       <use xlink:href="#DejaVuSans-2212"/>
       <use xlink:href="#DejaVuSans-33" x="83.789062"/>
       <use xlink:href="#DejaVuSans-30" x="147.412109"/>
       <use xlink:href="#DejaVuSans-30" x="211.035156"/>
       <use xlink:href="#DejaVuSans-30" x="274.658203"/>
       <use xlink:href="#DejaVuSans-30" x="338.28125"/>
      </g>
     </g>
    </g>
    <g id="ytick_2">
     <g id="line2d_10">
      <g>
       <use xlink:href="#m02a34f2416" x="57.6" y="249.459853" style="stroke: #000000; stroke-width: 0.8"/>
      </g>
     </g>
     <g id="text_10">
      <!-- −20000 -->
      <g transform="translate(10.407812 253.259072) scale(0.1 -0.1)">
       <use xlink:href="#DejaVuSans-2212"/>
       <use xlink:href="#DejaVuSans-32" x="83.789062"/>
       <use xlink:href="#DejaVuSans-30" x="147.412109"/>
       <use xlink:href="#DejaVuSans-30" x="211.035156"/>
       <use xlink:href="#DejaVuSans-30" x="274.658203"/>
       <use xlink:href="#DejaVuSans-30" x="338.28125"/>
      </g>
     </g>
    </g>
    <g id="ytick_3">
     <g id="line2d_11">
      <g>
       <use xlink:href="#m02a34f2416" x="57.6" y="200.371626" style="stroke: #000000; stroke-width: 0.8"/>
      </g>
     </g>
     <g id="text_11">
      <!-- −10000 -->
      <g transform="translate(10.407812 204.170845) scale(0.1 -0.1)">
       <use xlink:href="#DejaVuSans-2212"/>
       <use xlink:href="#DejaVuSans-31" x="83.789062"/>
       <use xlink:href="#DejaVuSans-30" x="147.412109"/>
       <use xlink:href="#DejaVuSans-30" x="211.035156"/>
       <use xlink:href="#DejaVuSans-30" x="274.658203"/>
       <use xlink:href="#DejaVuSans-30" x="338.28125"/>
      </g>
     </g>
    </g>
    <g id="ytick_4">
     <g id="line2d_12">
      <g>
       <use xlink:href="#m02a34f2416" x="57.6" y="151.2834" style="stroke: #000000; stroke-width: 0.8"/>
      </g>
     </g>
     <g id="text_12">
      <!-- 0 -->
      <g transform="translate(44.2375 155.082619) scale(0.1 -0.1)">
       <use xlink:href="#DejaVuSans-30"/>
      </g>
     </g>
    </g>
    <g id="ytick_5">
     <g id="line2d_13">
      <g>
       <use xlink:href="#m02a34f2416" x="57.6" y="102.195173" style="stroke: #000000; stroke-width: 0.8"/>
      </g>
     </g>
     <g id="text_13">
      <!-- 10000 -->
      <g transform="translate(18.7875 105.994392) scale(0.1 -0.1)">
       <use xlink:href="#DejaVuSans-31"/>
       <use xlink:href="#DejaVuSans-30" x="63.623047"/>
       <use xlink:href="#DejaVuSans-30" x="127.246094"/>
       <use xlink:href="#DejaVuSans-30" x="190.869141"/>
       <use xlink:href="#DejaVuSans-30" x="254.492188"/>
      </g>
     </g>
    </g>
    <g id="ytick_6">
     <g id="line2d_14">
      <g>
       <use xlink:href="#m02a34f2416" x="57.6" y="53.106947" style="stroke: #000000; stroke-width: 0.8"/>
      </g>
     </g>
     <g id="text_14">
      <!-- 20000 -->
      <g transform="translate(18.7875 56.906166) scale(0.1 -0.1)">
       <use xlink:href="#DejaVuSans-32"/>
       <use xlink:href="#DejaVuSans-30" x="63.623047"/>
       <use xlink:href="#DejaVuSans-30" x="127.246094"/>
       <use xlink:href="#DejaVuSans-30" x="190.869141"/>
       <use xlink:href="#DejaVuSans-30" x="254.492188"/>
      </g>
     </g>
    </g>
   </g>
   <g id="line2d_15">
    <path d="M 73.832727 151.423866 
L 74.052385 151.408551 
L 74.272043 151.572543 
L 74.931017 151.180494 
L 75.150675 151.344927 
L 75.370333 151.789715 
L 76.248965 151.023834 
L 76.688281 151.180041 
L 77.127597 151.092851 
L 77.566914 151.553432 
L 78.225888 151.066969 
L 78.445546 151.042818 
L 78.884862 150.70718 
L 79.10452 150.574046 
L 79.543836 149.74989 
L 79.763494 150.033969 
L 80.20281 149.605492 
L 80.422468 149.691275 
L 80.642126 149.386871 
L 81.3011 149.54596 
L 81.520758 149.211178 
L 81.740416 149.138876 
L 81.960074 149.246517 
L 82.619048 149.054783 
L 82.838706 149.046444 
L 83.058364 149.183874 
L 83.278022 149.529897 
L 83.49768 149.53904 
L 84.156654 148.974377 
L 84.376312 148.895393 
L 84.815628 148.920231 
L 85.69426 148.370447 
L 86.133576 148.41515 
L 86.79255 148.642204 
L 87.012208 148.759967 
L 87.231866 149.106774 
L 87.671182 149.062957 
L 88.330156 148.790527 
L 88.549814 148.901122 
L 89.208788 148.734848 
L 89.428446 148.488754 
L 89.648104 148.582354 
L 89.867762 148.457977 
L 90.307078 148.632955 
L 91.18571 149.002348 
L 92.503659 148.642812 
L 93.162633 148.276465 
L 93.382291 148.2055 
L 93.601949 147.927743 
L 93.821607 147.864992 
L 94.041265 147.661125 
L 94.700239 147.563712 
L 94.919897 147.465395 
L 95.359213 147.59444 
L 95.578871 147.845555 
L 95.798529 147.904593 
L 96.237845 147.84446 
L 96.457503 147.952274 
L 97.995109 147.676944 
L 98.214767 147.895944 
L 98.434425 147.929716 
L 98.873741 147.584669 
L 99.972031 147.575865 
L 100.191689 147.741539 
L 100.631005 147.614559 
L 101.070321 147.295073 
L 101.289979 147.303646 
L 101.509637 147.115408 
L 102.607927 147.177659 
L 103.047243 147.061871 
L 103.486559 147.090858 
L 103.925875 147.154855 
L 104.804507 146.685317 
L 105.243823 146.515438 
L 106.122455 146.607085 
L 106.342113 146.43861 
L 107.440403 146.291551 
L 108.319036 145.9825 
L 108.758352 145.968631 
L 109.197668 145.737465 
L 109.636984 145.487488 
L 109.856642 145.389772 
L 110.295958 144.47304 
L 110.515616 144.591444 
L 110.735274 144.437342 
L 110.954932 144.641611 
L 111.17459 144.633521 
L 111.394248 144.349069 
L 112.053222 143.960205 
L 112.27288 143.462475 
L 112.492538 143.622822 
L 112.931854 143.130223 
L 113.810486 143.58383 
L 114.030144 143.570258 
L 114.249802 143.674151 
L 114.46946 143.997827 
L 114.689118 143.935547 
L 115.56775 143.091423 
L 116.007066 143.183598 
L 116.885698 142.408244 
L 117.325014 142.562125 
L 117.544672 142.839416 
L 117.983988 142.917979 
L 118.203646 143.156405 
L 118.423304 142.652882 
L 118.642962 142.540684 
L 118.86262 142.144201 
L 119.741252 141.912004 
L 120.180568 141.213561 
L 120.400226 141.139381 
L 121.278858 139.872578 
L 121.498516 140.393062 
L 122.377148 140.664718 
L 122.596806 140.344135 
L 122.816465 140.655141 
L 123.475439 141.119515 
L 123.914755 141.340008 
L 124.354071 141.262175 
L 124.573729 141.342959 
L 125.232703 141.820971 
L 126.330993 141.346887 
L 127.648941 141.798464 
L 128.088257 141.447891 
L 128.307915 141.339902 
L 128.966889 141.497422 
L 129.845521 141.510911 
L 130.284837 141.543231 
L 130.504495 141.573968 
L 131.163469 141.267396 
L 131.602785 141.102984 
L 132.261759 140.533163 
L 132.701075 140.672934 
L 133.140391 140.757668 
L 133.360049 140.70634 
L 133.799365 140.7758 
L 134.458339 140.540522 
L 135.117313 140.245448 
L 135.556629 140.185694 
L 135.995945 140.328782 
L 136.874577 140.54263 
L 138.8515 139.755982 
L 139.290816 139.896253 
L 139.730132 139.726805 
L 140.169448 139.721402 
L 140.608764 139.435025 
L 140.828422 139.459741 
L 141.04808 139.316965 
L 141.267738 138.961852 
L 141.926712 138.614211 
L 142.14637 138.250141 
L 143.025002 138.17597 
L 143.24466 137.96399 
L 143.683976 137.887048 
L 143.903634 137.602729 
L 144.123292 137.511691 
L 144.562608 137.071057 
L 144.782266 136.990424 
L 145.221582 136.63283 
L 146.100214 137.246351 
L 146.53953 137.287477 
L 146.978846 137.123436 
L 147.198504 137.149363 
L 147.418162 137.046858 
L 148.296794 137.470593 
L 149.175426 136.897168 
L 149.614742 137.003714 
L 150.054058 137.1666 
L 150.273716 137.338506 
L 150.713032 137.055999 
L 151.152348 137.049003 
L 151.591664 137.279017 
L 152.250638 136.907033 
L 152.689954 136.66658 
L 153.129271 136.711815 
L 153.568587 136.611576 
L 153.788245 136.595121 
L 154.227561 136.16892 
L 154.666877 135.721146 
L 154.886535 135.222367 
L 155.106193 135.292586 
L 155.325851 135.233245 
L 155.545509 135.450002 
L 155.765167 135.338125 
L 155.984825 135.048385 
L 156.204483 135.156139 
L 156.424141 134.693623 
L 156.643799 134.612315 
L 157.083115 134.797038 
L 157.522431 134.734899 
L 157.742089 134.784217 
L 157.961747 134.395485 
L 158.181405 134.429607 
L 158.620721 134.236197 
L 159.060037 134.370828 
L 159.499353 134.362266 
L 159.719011 134.640838 
L 160.597643 134.760362 
L 161.036959 134.832673 
L 161.476275 134.587822 
L 162.135249 134.27588 
L 163.672855 133.330593 
L 163.892513 132.958003 
L 164.112171 132.964576 
L 164.331829 133.095173 
L 164.551487 132.996616 
L 164.771145 132.657946 
L 165.430119 132.826515 
L 166.089093 132.910914 
L 166.528409 132.831694 
L 167.187383 132.674677 
L 167.407041 132.58877 
L 168.066016 132.844444 
L 168.505332 132.786345 
L 169.383964 132.81834 
L 169.603622 132.745371 
L 170.042938 133.034155 
L 170.701912 132.736233 
L 171.141228 132.986095 
L 171.360886 133.011092 
L 172.01986 132.619883 
L 172.898492 132.837126 
L 173.337808 132.374909 
L 173.777124 132.342998 
L 173.996782 132.44334 
L 174.655756 132.148594 
L 176.41302 132.496518 
L 177.071994 132.506312 
L 177.51131 132.233842 
L 177.950626 132.167698 
L 179.048916 131.940442 
L 180.366864 131.885606 
L 181.025838 131.455404 
L 181.245496 131.086599 
L 181.465154 131.138931 
L 181.90447 131.022412 
L 182.124128 130.691342 
L 182.343786 130.69106 
L 183.00276 131.119897 
L 183.442077 131.043274 
L 184.101051 131.178549 
L 184.979683 130.922183 
L 185.199341 130.63486 
L 185.638657 129.400304 
L 185.858315 129.243549 
L 186.077973 128.495318 
L 186.297631 128.266485 
L 186.517289 128.829516 
L 186.736947 128.420385 
L 186.956605 128.934209 
L 187.395921 128.040831 
L 187.615579 126.816872 
L 187.835237 127.367353 
L 188.054895 126.652696 
L 188.274553 125.242204 
L 188.494211 126.265283 
L 188.713869 124.647206 
L 188.933527 125.202763 
L 189.153185 124.403747 
L 189.372843 124.303648 
L 189.812159 123.245927 
L 190.031817 124.12995 
L 190.251475 124.318329 
L 190.471133 125.232711 
L 190.690791 124.795817 
L 190.910449 125.058432 
L 191.130107 124.977138 
L 191.349765 124.257468 
L 191.569423 124.385775 
L 191.789081 124.107208 
L 192.008739 124.804974 
L 192.228397 124.821793 
L 192.667713 125.7351 
L 192.887371 125.814256 
L 193.107029 126.058324 
L 193.326687 125.781855 
L 193.546345 125.687246 
L 193.766003 125.882786 
L 193.985661 125.687983 
L 194.205319 125.088797 
L 194.424977 125.231686 
L 194.644635 125.12056 
L 194.864293 125.19986 
L 195.083951 125.502185 
L 195.303609 125.473394 
L 195.523267 125.670973 
L 195.742925 125.584237 
L 195.962583 125.004101 
L 196.621557 124.713547 
L 196.841215 124.695422 
L 197.280531 125.022299 
L 197.500189 124.81748 
L 197.719847 124.392462 
L 198.159163 124.325878 
L 198.378822 124.655221 
L 198.59848 124.507827 
L 198.818138 124.567753 
L 199.477112 124.364358 
L 199.916428 124.832611 
L 200.136086 124.724326 
L 200.575402 124.908708 
L 200.79506 125.394528 
L 201.014718 125.418409 
L 201.454034 125.838558 
L 201.673692 125.756696 
L 201.89335 125.490042 
L 202.113008 124.387736 
L 203.211298 124.392891 
L 203.650614 124.190902 
L 203.870272 124.270445 
L 204.08993 123.896029 
L 204.309588 123.87831 
L 204.529246 123.329997 
L 204.968562 123.479852 
L 205.407878 123.666873 
L 205.627536 123.922068 
L 206.28651 123.426359 
L 206.506168 123.407559 
L 206.725826 123.272903 
L 206.945484 123.300057 
L 207.165142 123.514269 
L 207.3848 123.526815 
L 207.604458 123.390929 
L 208.263432 123.6921 
L 209.142064 122.918275 
L 209.361722 122.933777 
L 209.801038 122.763952 
L 210.899328 123.293914 
L 211.118986 123.344752 
L 211.338644 123.208676 
L 211.77796 123.2818 
L 212.217276 122.964314 
L 212.656592 123.002393 
L 213.095908 122.751704 
L 214.413857 123.620367 
L 214.633515 123.568748 
L 214.853173 123.905761 
L 215.512147 122.52266 
L 215.731805 122.675259 
L 216.171121 122.16273 
L 216.610437 122.35272 
L 216.830095 122.246425 
L 217.489069 121.189996 
L 217.708727 121.185719 
L 217.928385 120.770462 
L 218.148043 120.635302 
L 218.367701 120.708961 
L 218.587359 120.952513 
L 219.026675 120.815307 
L 219.246333 120.980312 
L 219.465991 120.828542 
L 219.685649 120.941913 
L 219.905307 120.717559 
L 220.344623 121.03375 
L 221.003597 121.523557 
L 221.442913 121.017425 
L 221.662571 120.907231 
L 221.882229 120.572505 
L 222.760861 120.180158 
L 223.200177 119.59872 
L 223.419835 118.83071 
L 223.639493 118.841878 
L 223.859151 118.463989 
L 224.078809 118.480917 
L 224.518125 119.089479 
L 224.737783 119.443346 
L 225.616415 119.567145 
L 225.836073 119.421682 
L 226.055731 119.475161 
L 226.275389 119.756236 
L 226.495047 119.750199 
L 226.714705 119.361852 
L 227.373679 118.936796 
L 227.593337 119.163517 
L 228.032653 118.96412 
L 228.252311 118.820906 
L 229.130944 118.931632 
L 229.350602 119.055382 
L 230.66855 118.332855 
L 231.327524 118.292216 
L 231.76684 117.821423 
L 232.206156 117.727077 
L 232.425814 117.853037 
L 232.645472 117.84992 
L 233.304446 117.458039 
L 233.743762 117.326901 
L 233.96342 117.418244 
L 234.183078 117.721822 
L 234.402736 117.710495 
L 235.501026 116.868545 
L 235.720684 117.066277 
L 235.940342 117.068338 
L 236.599316 116.508016 
L 236.818974 115.841609 
L 237.038632 115.847395 
L 237.25829 115.307211 
L 237.917264 115.522211 
L 238.795896 115.835607 
L 239.235212 115.494418 
L 239.674528 115.448995 
L 240.333502 114.773268 
L 240.772818 114.289088 
L 240.992476 114.327117 
L 241.431792 113.565389 
L 241.65145 113.829153 
L 242.090766 113.126729 
L 242.310424 112.695542 
L 242.530082 112.88117 
L 242.74974 112.718002 
L 243.189056 112.918659 
L 243.408714 113.119237 
L 244.067689 113.262317 
L 244.946321 112.727871 
L 245.605295 112.09013 
L 245.824953 112.348475 
L 246.044611 112.290939 
L 246.483927 111.931103 
L 246.703585 112.0467 
L 246.923243 112.413855 
L 247.142901 112.418372 
L 247.582217 112.162784 
L 248.021533 112.740203 
L 248.460849 112.588876 
L 249.119823 112.694601 
L 249.339481 112.369555 
L 249.559139 112.375769 
L 249.778797 112.071501 
L 249.998455 112.107272 
L 250.437771 111.908282 
L 250.657429 111.704481 
L 251.096745 111.534693 
L 251.316403 111.405154 
L 251.755719 110.912792 
L 252.414693 110.821919 
L 252.634351 110.458933 
L 252.854009 109.840699 
L 253.073667 109.902435 
L 253.293325 110.15252 
L 253.512983 110.058015 
L 253.952299 109.45501 
L 254.830931 109.524063 
L 255.270247 109.282104 
L 255.709563 109.177599 
L 256.148879 108.904442 
L 256.588195 108.921162 
L 257.247169 108.43723 
L 257.906143 108.565972 
L 258.565117 107.630219 
L 259.004434 107.798059 
L 259.44375 107.676216 
L 260.102724 107.939757 
L 260.322382 107.784986 
L 260.981356 108.263305 
L 261.420672 108.033672 
L 262.079646 108.118734 
L 262.518962 107.707428 
L 262.958278 106.847413 
L 263.397594 107.111093 
L 263.617252 107.108685 
L 263.83691 107.275507 
L 264.056568 107.641214 
L 264.276226 107.676057 
L 265.154858 106.93495 
L 265.374516 106.928592 
L 265.813832 106.717889 
L 266.253148 106.624237 
L 266.692464 106.305924 
L 267.13178 106.487431 
L 267.351438 106.540225 
L 267.571096 106.404447 
L 267.790754 105.985161 
L 268.010412 105.831557 
L 268.669386 106.016823 
L 268.889044 105.881119 
L 269.108702 106.069078 
L 269.548018 106.154996 
L 269.767676 106.208109 
L 271.085624 105.044514 
L 271.305282 104.691449 
L 272.183914 104.250855 
L 272.842888 103.124146 
L 273.282204 103.430564 
L 273.501862 103.528848 
L 273.72152 103.475455 
L 273.941178 102.847843 
L 274.160837 102.703513 
L 274.380495 102.266525 
L 274.600153 102.327389 
L 274.819811 101.934957 
L 275.698443 102.049867 
L 276.137759 101.486989 
L 276.357417 101.370573 
L 276.796733 101.777052 
L 277.016391 101.842107 
L 277.455707 102.241804 
L 277.895023 102.417289 
L 278.114681 102.338891 
L 278.334339 102.402262 
L 278.553997 102.276866 
L 279.212971 102.439494 
L 279.432629 102.588224 
L 279.652287 103.007143 
L 280.091603 103.236481 
L 280.311261 103.386709 
L 280.530919 103.370607 
L 280.970235 102.829293 
L 281.629209 102.730569 
L 282.288183 102.359536 
L 282.727499 101.960011 
L 282.947157 101.900496 
L 283.166815 101.319004 
L 283.386473 101.433682 
L 283.825789 100.367457 
L 284.045447 100.501699 
L 284.265105 100.20015 
L 284.484763 100.277473 
L 284.704421 100.696958 
L 284.924079 100.770055 
L 285.143737 100.547301 
L 285.363395 100.582064 
L 285.802711 99.968985 
L 286.022369 100.15955 
L 286.461685 99.420843 
L 286.681343 98.981754 
L 287.120659 99.378574 
L 287.340317 99.47123 
L 287.559975 99.863358 
L 287.779633 100.022748 
L 288.218949 99.614384 
L 288.438607 99.367938 
L 288.877923 99.261029 
L 289.097581 98.619864 
L 289.756556 97.925374 
L 290.195872 98.04228 
L 291.294162 96.056233 
L 291.51382 95.459834 
L 291.733478 95.339492 
L 292.172794 94.815198 
L 292.392452 94.71005 
L 292.831768 95.749845 
L 293.271084 96.218137 
L 293.490742 95.706216 
L 293.7104 95.636092 
L 293.930058 95.371419 
L 294.149716 95.373441 
L 294.369374 95.579888 
L 294.589032 95.245247 
L 294.80869 94.642369 
L 295.028348 94.380538 
L 295.248006 94.610958 
L 295.467664 94.571075 
L 295.90698 93.655102 
L 296.346296 92.688097 
L 296.565954 92.817634 
L 296.785612 93.249896 
L 297.00527 93.196784 
L 297.224928 92.749473 
L 297.444586 92.960086 
L 297.664244 92.8209 
L 297.883902 92.465761 
L 298.10356 91.656203 
L 298.323218 91.331247 
L 298.542876 91.677739 
L 298.762534 91.561575 
L 299.20185 90.835827 
L 299.421508 91.091939 
L 299.860824 91.912358 
L 300.080482 92.209995 
L 300.30014 92.24555 
L 300.519798 92.425546 
L 300.739456 92.24071 
L 301.39843 92.740453 
L 301.618088 93.09097 
L 301.837746 93.164524 
L 302.057404 92.624652 
L 302.277062 92.518606 
L 302.49672 92.586896 
L 303.155694 91.748405 
L 303.375352 91.576871 
L 303.814668 90.828935 
L 304.034326 90.886012 
L 304.473643 90.369432 
L 304.912959 90.590635 
L 305.132617 90.269107 
L 305.352275 89.484577 
L 305.571933 89.424147 
L 305.791591 88.720313 
L 306.011249 88.577612 
L 306.230907 88.901311 
L 306.450565 88.097406 
L 306.889881 87.940346 
L 307.109539 88.367289 
L 307.329197 87.633121 
L 307.548855 87.331913 
L 307.768513 86.500166 
L 307.988171 86.36503 
L 308.427487 85.711604 
L 308.647145 86.10716 
L 308.866803 86.044474 
L 309.086461 86.378868 
L 309.306119 85.591689 
L 309.745435 85.113106 
L 309.965093 85.349039 
L 310.184751 85.126046 
L 310.404409 85.123198 
L 310.624067 85.446951 
L 310.843725 86.034583 
L 311.063383 85.98113 
L 311.283041 85.643648 
L 311.502699 85.831703 
L 311.942015 85.400475 
L 312.161673 85.406945 
L 312.381331 85.279273 
L 313.259963 82.698743 
L 313.479621 82.898463 
L 313.699279 82.241849 
L 313.918937 82.094279 
L 314.138595 82.41715 
L 314.358253 82.416707 
L 314.577911 82.608436 
L 314.797569 83.219057 
L 315.017227 83.253029 
L 315.236885 82.747862 
L 315.895859 82.208047 
L 316.335175 82.250304 
L 316.554833 82.632251 
L 316.774491 82.658589 
L 317.653123 81.565726 
L 317.872781 81.8576 
L 318.092439 81.724992 
L 318.751413 82.545889 
L 319.190729 82.311987 
L 319.410388 81.898682 
L 319.849704 82.537697 
L 320.069362 83.062384 
L 320.28902 83.176562 
L 320.508678 82.849573 
L 320.947994 83.062502 
L 321.167652 83.09464 
L 321.606968 82.598319 
L 321.826626 82.837617 
L 322.046284 82.907324 
L 322.265942 83.318684 
L 322.705258 83.675541 
L 323.144574 83.477485 
L 323.803548 82.139587 
L 324.023206 82.084819 
L 324.242864 82.304356 
L 324.462522 81.557918 
L 325.341154 80.419191 
L 325.78047 79.888256 
L 326.659102 80.821127 
L 326.87876 80.023863 
L 327.098418 79.895298 
L 327.537734 79.152586 
L 327.757392 79.166753 
L 327.97705 78.879322 
L 328.636024 77.508315 
L 329.07534 76.905005 
L 329.294998 77.258085 
L 329.734314 76.468693 
L 329.953972 76.734813 
L 330.17363 77.304475 
L 330.393288 77.314008 
L 330.612946 77.052663 
L 330.832604 76.344954 
L 331.491578 75.544931 
L 331.711236 75.93405 
L 331.930894 75.537444 
L 332.37021 75.969853 
L 332.589868 75.923149 
L 332.809526 75.583892 
L 333.4685 76.352201 
L 333.688158 76.298168 
L 333.907816 75.987013 
L 334.127474 76.252807 
L 334.347132 76.232042 
L 334.566791 75.957311 
L 335.006107 74.899222 
L 335.665081 75.067194 
L 335.884739 74.62559 
L 336.324055 75.844976 
L 336.983029 75.585999 
L 337.422345 75.214736 
L 337.642003 75.020711 
L 337.861661 75.081347 
L 338.081319 75.258123 
L 338.300977 75.232479 
L 338.740293 74.691978 
L 339.179609 75.274788 
L 339.399267 75.047762 
L 339.838583 74.008582 
L 340.058241 73.774596 
L 340.277899 73.801547 
L 340.497557 73.588944 
L 340.936873 73.75417 
L 341.156531 73.578406 
L 341.595847 72.477608 
L 341.815505 72.108256 
L 342.035163 72.009866 
L 342.254821 72.220117 
L 342.474479 71.95217 
L 342.913795 71.710388 
L 343.133453 71.410978 
L 343.353111 71.533915 
L 343.572769 71.490709 
L 344.231743 71.042518 
L 344.671059 71.34313 
L 344.890717 71.354039 
L 345.330033 71.859832 
L 345.769349 72.079343 
L 346.208665 71.220763 
L 346.867639 71.62656 
L 347.087297 71.417991 
L 347.306955 71.682768 
L 347.526613 71.757871 
L 347.746271 71.708464 
L 347.965929 71.792265 
L 348.405245 72.709354 
L 348.624903 72.587433 
L 348.844561 72.257174 
L 349.064219 72.313682 
L 349.723194 71.420866 
L 349.942852 71.530113 
L 350.382168 71.304503 
L 351.480458 69.754598 
L 351.919774 69.332546 
L 352.578748 68.984138 
L 352.798406 69.299053 
L 353.018064 69.409555 
L 354.116354 67.578358 
L 354.336012 67.772814 
L 354.55567 67.578394 
L 354.775328 67.709581 
L 354.994986 67.438597 
L 355.214644 67.40482 
L 355.434302 67.585272 
L 355.873618 67.144219 
L 356.312934 66.960374 
L 356.532592 66.724402 
L 356.971908 66.932779 
L 357.411224 67.481304 
L 357.630882 67.539266 
L 358.070198 67.149777 
L 358.509514 66.925597 
L 358.729172 66.635712 
L 359.168488 66.698311 
L 359.388146 66.558562 
L 359.827462 66.906931 
L 360.04712 66.876521 
L 360.486436 66.501522 
L 360.925752 65.69436 
L 361.365068 65.977614 
L 361.584726 66.01507 
L 362.2437 65.021963 
L 362.463358 65.186716 
L 362.683016 65.12795 
L 363.122332 64.713721 
L 364.220622 64.013604 
L 364.659938 64.756788 
L 364.879597 64.554595 
L 365.318913 63.766669 
L 365.538571 63.741932 
L 365.977887 63.980261 
L 366.417203 63.941618 
L 366.636861 64.448504 
L 367.076177 64.14856 
L 367.735151 64.207372 
L 368.613783 65.163159 
L 368.833441 65.065314 
L 369.492415 64.320958 
L 369.931731 63.787859 
L 370.590705 63.849934 
L 370.810363 64.118054 
L 371.249679 64.079797 
L 371.688995 63.439266 
L 371.908653 63.288943 
L 372.347969 63.414395 
L 372.567627 63.752325 
L 373.226601 63.775 
L 373.446259 63.817071 
L 374.324891 63.297457 
L 374.544549 63.291956 
L 374.764207 62.943902 
L 375.423181 63.04862 
L 375.862497 62.276382 
L 376.082155 61.956845 
L 376.301813 61.9528 
L 376.521471 61.79366 
L 376.960787 61.237804 
L 377.180445 61.09205 
L 377.400103 61.154667 
L 377.839419 60.551688 
L 378.278735 59.978354 
L 378.498393 60.061984 
L 378.718051 59.946456 
L 378.937709 59.980201 
L 379.157367 59.750322 
L 379.596683 59.622248 
L 380.036 60.06262 
L 380.255658 60.11558 
L 380.694974 59.799425 
L 381.13429 59.171392 
L 381.353948 59.001314 
L 381.573606 59.083906 
L 382.012922 58.724809 
L 382.23258 58.707785 
L 383.111212 57.612558 
L 383.33087 57.056323 
L 383.550528 56.809349 
L 383.770186 56.774735 
L 384.209502 56.201881 
L 384.868476 55.95383 
L 385.088134 55.664254 
L 385.52745 55.543886 
L 386.406082 56.261673 
L 386.62574 56.215893 
L 386.845398 55.907135 
L 387.284714 55.947442 
L 387.72403 55.275421 
L 388.163346 54.577935 
L 388.383004 54.665596 
L 389.041978 53.568 
L 389.700952 53.980296 
L 390.140268 54.668179 
L 390.799242 54.964464 
L 391.0189 54.847431 
L 391.238558 54.979094 
L 391.458216 54.957887 
L 392.11719 55.50399 
L 392.336848 55.570104 
L 392.556506 55.832957 
L 392.776164 55.858309 
L 392.995822 55.744968 
L 393.435138 55.856574 
L 394.094112 55.334892 
L 394.31377 55.573011 
L 394.533428 55.531838 
L 395.192403 55.002941 
L 395.412061 55.031454 
L 395.851377 55.387898 
L 396.071035 55.752646 
L 396.730009 55.580775 
L 396.949667 55.776528 
L 397.169325 55.493804 
L 397.388983 55.527266 
L 397.828299 55.256037 
L 398.267615 55.574226 
L 398.487273 55.702035 
L 398.487273 55.702035 
" clip-path="url(#p8923f4fd57)" style="fill: none; stroke: #1f77b4; stroke-opacity: 0.7; stroke-width: 1.5; stroke-linecap: square"/>
   </g>
   <g id="line2d_16">
    <path d="M 73.832727 151.54542 
L 74.052385 151.705301 
L 74.491701 151.527209 
L 74.931017 151.478808 
L 75.370333 151.821264 
L 75.589991 151.489329 
L 76.248965 151.135209 
L 76.468623 151.280952 
L 76.907939 151.128729 
L 77.127597 151.193378 
L 77.347256 151.427039 
L 77.786572 151.340104 
L 78.884862 150.867494 
L 79.10452 150.842901 
L 79.324178 150.493098 
L 79.543836 150.372324 
L 79.763494 150.650704 
L 79.983152 150.425242 
L 80.20281 150.613298 
L 80.422468 151.01484 
L 80.642126 150.950729 
L 80.861784 151.145143 
L 81.3011 151.762396 
L 81.520758 151.575094 
L 81.740416 151.635822 
L 81.960074 152.107905 
L 82.179732 152.135999 
L 83.058364 153.243312 
L 83.49768 153.423542 
L 84.156654 153.102947 
L 84.376312 153.150326 
L 84.815628 153.554237 
L 85.69426 153.68286 
L 87.231866 154.870631 
L 87.451524 154.779258 
L 88.549814 155.161077 
L 88.98913 155.403692 
L 89.208788 155.392553 
L 89.428446 155.221067 
L 89.867762 155.316347 
L 90.307078 155.790803 
L 91.625026 156.489474 
L 92.064342 156.507854 
L 92.284 156.611171 
L 93.382291 156.422332 
L 94.260923 156.299159 
L 95.798529 157.437482 
L 96.018187 157.342631 
L 97.116477 157.982162 
L 97.555793 157.94118 
L 97.995109 158.12176 
L 98.214767 158.38669 
L 98.654083 158.419177 
L 99.093399 158.382396 
L 99.532715 158.700051 
L 100.191689 159.13855 
L 100.631005 159.131979 
L 101.289979 158.926061 
L 101.509637 158.945162 
L 102.388269 159.475787 
L 103.047243 159.55904 
L 103.486559 159.896416 
L 103.925875 160.083716 
L 104.584849 160.062472 
L 105.243823 159.875718 
L 106.122455 160.448695 
L 106.561771 160.560035 
L 107.440403 161.063226 
L 108.319036 161.129186 
L 108.97801 161.50172 
L 109.636984 161.227689 
L 109.856642 161.094012 
L 110.295958 160.063749 
L 110.515616 160.535337 
L 110.735274 160.572864 
L 110.954932 160.977731 
L 111.17459 161.088854 
L 111.613906 161.008135 
L 112.053222 160.973969 
L 112.27288 160.586131 
L 112.492538 161.110294 
L 112.712196 160.994777 
L 113.151512 161.153908 
L 113.590828 161.665307 
L 114.030144 161.71761 
L 114.249802 161.925242 
L 114.46946 162.335608 
L 114.908776 162.41485 
L 115.128434 162.172538 
L 115.787408 162.199056 
L 116.007066 162.352348 
L 116.66604 161.998952 
L 117.105356 162.158113 
L 117.325014 162.321682 
L 117.544672 162.734024 
L 117.76433 162.814479 
L 118.203646 163.282199 
L 118.423304 162.943714 
L 118.642962 162.954561 
L 118.86262 162.662262 
L 119.082278 162.60525 
L 119.741252 163.077777 
L 119.96091 162.955394 
L 120.400226 162.433021 
L 120.619884 162.382863 
L 120.839542 162.470092 
L 121.278858 161.485851 
L 121.498516 162.379845 
L 121.937832 162.754196 
L 122.377148 163.10882 
L 122.596806 162.881547 
L 123.036123 163.577564 
L 123.475439 164.021698 
L 123.914755 164.165824 
L 124.134413 164.131511 
L 124.793387 164.664573 
L 125.013045 164.974565 
L 125.452361 164.953524 
L 126.550651 165.286968 
L 126.989967 165.697521 
L 127.648941 166.095139 
L 128.088257 165.989734 
L 128.307915 166.025536 
L 129.625863 167.073552 
L 130.724153 167.480385 
L 131.163469 167.489237 
L 131.602785 167.577528 
L 132.261759 167.290446 
L 132.701075 167.580544 
L 133.140391 167.94233 
L 133.799365 168.340734 
L 134.019023 168.332914 
L 134.238681 168.495426 
L 134.677997 168.321846 
L 135.556629 168.852913 
L 135.995945 169.277529 
L 136.654919 169.575137 
L 136.874577 169.734106 
L 137.313893 169.747946 
L 138.192526 170.276334 
L 138.8515 170.316483 
L 140.169448 171.083624 
L 140.608764 170.89247 
L 141.04808 171.100135 
L 142.14637 170.435424 
L 142.585686 171.070704 
L 142.805344 171.345098 
L 143.025002 171.412584 
L 143.24466 171.358028 
L 143.683976 171.624113 
L 144.34295 171.639521 
L 144.562608 171.366861 
L 145.221582 171.067503 
L 146.100214 171.980437 
L 146.319872 172.209166 
L 147.63782 172.589832 
L 148.516452 173.272136 
L 148.955768 173.100354 
L 149.175426 173.172467 
L 150.054058 174.038709 
L 150.273716 174.16536 
L 150.713032 174.168684 
L 151.152348 174.458641 
L 151.591664 174.836558 
L 151.811322 174.830669 
L 152.250638 174.647049 
L 152.909612 174.963675 
L 153.348929 175.251754 
L 154.007903 175.635359 
L 154.666877 175.172265 
L 154.886535 174.68004 
L 155.325851 174.922661 
L 155.545509 175.340094 
L 155.765167 175.396482 
L 155.984825 175.29547 
L 156.204483 175.532563 
L 156.424141 175.271341 
L 156.643799 175.232774 
L 157.083115 175.93274 
L 157.302773 175.975669 
L 157.742089 176.326201 
L 157.961747 176.022858 
L 158.401063 176.258048 
L 159.060037 177.022765 
L 159.279695 177.082307 
L 159.499353 177.268199 
L 159.938669 177.786285 
L 160.597643 178.037723 
L 161.036959 178.392653 
L 161.476275 178.426667 
L 161.695933 178.597673 
L 162.135249 178.536853 
L 162.794223 178.408767 
L 163.013881 178.539128 
L 163.672855 178.559781 
L 163.892513 178.205333 
L 164.112171 178.204399 
L 164.331829 178.573477 
L 164.551487 178.659154 
L 164.771145 178.502677 
L 164.990803 178.592275 
L 165.869435 179.489059 
L 166.308751 179.687006 
L 166.528409 179.657984 
L 168.72499 180.869007 
L 169.164306 181.184091 
L 169.603622 181.381034 
L 170.042938 181.603225 
L 170.92157 181.829749 
L 171.360886 182.107267 
L 171.580544 182.120054 
L 171.800202 182.005471 
L 172.01986 182.038666 
L 172.678834 182.662585 
L 172.898492 182.736455 
L 173.337808 182.614406 
L 173.557466 182.59967 
L 175.754046 184.138814 
L 177.291652 184.829944 
L 177.51131 184.831603 
L 177.730968 185.093568 
L 178.170284 185.154992 
L 179.048916 185.588468 
L 179.488232 185.864873 
L 179.927548 186.160806 
L 180.366864 186.416925 
L 180.80618 186.539453 
L 181.025838 186.429557 
L 181.245496 186.129668 
L 181.90447 186.530639 
L 182.124128 186.367136 
L 182.343786 186.37125 
L 182.783102 187.032022 
L 183.00276 187.202755 
L 183.222419 187.178729 
L 184.320709 187.774697 
L 184.760025 187.835608 
L 184.979683 187.894457 
L 185.199341 187.724589 
L 185.638657 186.537141 
L 185.858315 186.368475 
L 186.077973 185.974198 
L 186.297631 185.87018 
L 186.517289 186.249091 
L 186.736947 185.957654 
L 186.956605 186.723896 
L 187.395921 186.16923 
L 187.615579 185.13642 
L 187.835237 185.922862 
L 188.054895 185.383204 
L 188.274553 184.081016 
L 188.494211 184.545931 
L 188.713869 183.111226 
L 188.933527 183.147502 
L 189.153185 182.7136 
L 189.372843 182.993078 
L 189.592501 182.704312 
L 189.812159 181.706889 
L 190.031817 183.068842 
L 190.251475 183.447591 
L 190.471133 184.434007 
L 190.690791 184.22704 
L 190.910449 184.756566 
L 191.130107 184.784525 
L 191.349765 184.2368 
L 191.569423 184.521486 
L 191.789081 184.580178 
L 192.008739 185.553333 
L 192.228397 185.776992 
L 192.667713 186.892838 
L 192.887371 186.86842 
L 193.107029 187.359527 
L 193.326687 187.289587 
L 193.546345 187.445714 
L 193.766003 187.919742 
L 193.985661 187.907328 
L 194.205319 187.514089 
L 194.864293 188.44687 
L 195.083951 188.885022 
L 195.303609 189.032034 
L 195.523267 189.46949 
L 195.742925 189.565394 
L 195.962583 189.27358 
L 196.182241 189.341489 
L 196.621557 189.716203 
L 196.841215 189.885811 
L 197.280531 190.564749 
L 197.719847 190.141783 
L 197.939505 190.255198 
L 198.159163 190.535483 
L 198.378822 191.196239 
L 198.59848 191.262144 
L 198.818138 191.717298 
L 199.257454 191.928118 
L 199.477112 192.187423 
L 199.69677 192.618847 
L 200.575402 193.34694 
L 200.79506 193.762581 
L 201.014718 193.910269 
L 201.454034 194.782965 
L 201.89335 194.874977 
L 202.113008 194.024337 
L 202.332666 194.214308 
L 202.99164 195.199535 
L 203.650614 195.400998 
L 203.870272 195.678836 
L 204.08993 195.486715 
L 204.309588 195.64308 
L 204.529246 195.492172 
L 204.748904 195.659011 
L 205.18822 196.394697 
L 206.28651 197.18372 
L 206.945484 197.571156 
L 207.3848 198.079253 
L 207.604458 198.235499 
L 208.043774 198.822788 
L 208.263432 199.025963 
L 208.48309 199.036202 
L 208.702748 198.890282 
L 209.142064 199.061656 
L 209.801038 199.737393 
L 210.67967 200.845099 
L 211.118986 201.139919 
L 211.338644 201.046309 
L 212.656592 202.089024 
L 212.87625 202.091934 
L 213.535225 202.981978 
L 213.974541 203.580342 
L 214.853173 204.614712 
L 215.512147 203.424632 
L 215.731805 203.589494 
L 216.171121 203.461614 
L 216.390779 203.621075 
L 216.830095 204.053102 
L 217.049753 204.022407 
L 217.708727 203.553636 
L 217.928385 203.381733 
L 218.148043 203.362307 
L 218.587359 204.303797 
L 219.026675 204.65748 
L 219.246333 204.959744 
L 219.465991 204.902541 
L 219.685649 205.238088 
L 219.905307 205.219167 
L 221.003597 206.866769 
L 221.442913 206.762689 
L 221.662571 206.796156 
L 221.882229 206.551237 
L 222.101887 206.595904 
L 222.760861 207.172544 
L 223.200177 206.929692 
L 223.419835 206.272303 
L 223.639493 206.943633 
L 224.078809 207.084421 
L 224.957441 208.874656 
L 225.177099 209.135236 
L 225.616415 209.345807 
L 225.836073 209.229851 
L 226.055731 209.414788 
L 226.275389 209.834688 
L 226.495047 209.956646 
L 226.714705 209.787466 
L 227.373679 209.866214 
L 227.593337 210.364948 
L 229.57026 211.979569 
L 230.448892 211.574036 
L 230.888208 211.998061 
L 231.327524 212.452835 
L 232.206156 212.452653 
L 232.645472 212.986786 
L 233.084788 213.27668 
L 233.304446 213.213098 
L 233.524104 213.268306 
L 234.402736 214.453779 
L 235.06171 214.582567 
L 235.281368 214.456238 
L 235.501026 214.562957 
L 235.940342 215.245721 
L 236.599316 215.487755 
L 236.818974 215.058564 
L 237.038632 215.204674 
L 237.25829 215.058238 
L 237.477948 215.268189 
L 237.917264 215.966783 
L 238.576238 216.799246 
L 238.795896 216.98802 
L 239.235212 217.02998 
L 239.894186 217.335429 
L 240.772818 216.902737 
L 240.992476 217.223375 
L 241.431792 216.827847 
L 241.65145 217.223219 
L 242.090766 217.258279 
L 242.310424 216.988434 
L 242.969398 217.819377 
L 243.848031 218.978548 
L 244.287347 219.226445 
L 244.507005 218.975538 
L 244.726663 218.92142 
L 245.165979 219.165827 
L 245.385637 219.076082 
L 245.605295 219.154426 
L 245.824953 219.690009 
L 246.703585 220.494227 
L 246.923243 220.995546 
L 248.241191 222.067164 
L 248.460849 222.016232 
L 249.119823 222.588233 
L 249.339481 222.465451 
L 251.316403 223.579425 
L 251.536061 223.65375 
L 251.755719 223.607644 
L 251.975377 223.724127 
L 252.195035 224.086813 
L 252.414693 224.075022 
L 252.634351 223.86406 
L 252.854009 223.310724 
L 253.073667 223.416518 
L 253.293325 223.928286 
L 253.512983 224.079186 
L 253.952299 224.001155 
L 254.830931 225.087441 
L 255.489905 225.436925 
L 256.148879 225.489372 
L 257.247169 226.305662 
L 257.686485 226.790657 
L 257.906143 226.845662 
L 258.345459 226.703356 
L 258.565117 226.403175 
L 258.784775 226.558237 
L 259.224092 227.047552 
L 259.883066 227.685874 
L 260.54204 227.979155 
L 260.981356 228.499838 
L 261.201014 228.633469 
L 261.420672 228.544171 
L 262.518962 229.396862 
L 262.73862 229.203651 
L 262.958278 228.832081 
L 264.056568 230.309669 
L 264.495884 230.326665 
L 264.9352 230.531994 
L 265.154858 230.459364 
L 265.813832 230.933989 
L 266.253148 231.353561 
L 266.692464 231.562452 
L 267.571096 232.289113 
L 267.790754 232.007067 
L 268.010412 231.96783 
L 268.669386 232.967643 
L 268.889044 233.110396 
L 269.108702 233.080519 
L 270.206992 234.023723 
L 270.42665 234.219836 
L 270.865966 234.14293 
L 271.52494 233.776691 
L 272.403572 234.066841 
L 272.62323 233.667353 
L 272.842888 234.129469 
L 273.062546 234.302892 
L 273.501862 234.994775 
L 273.72152 235.026626 
L 273.941178 234.641963 
L 274.600153 234.576934 
L 274.819811 234.502387 
L 275.039469 234.610628 
L 275.698443 235.439124 
L 276.137759 235.330823 
L 276.357417 235.457616 
L 276.796733 236.386152 
L 277.675365 237.35289 
L 278.114681 237.434257 
L 278.334339 237.679309 
L 278.553997 237.626486 
L 279.432629 238.479911 
L 280.091603 239.416765 
L 280.311261 239.524521 
L 280.530919 239.447319 
L 280.750577 239.238924 
L 280.970235 239.194227 
L 281.409551 239.518111 
L 281.848867 239.949698 
L 282.507841 240.092417 
L 282.947157 240.127844 
L 283.166815 239.700008 
L 283.386473 239.934958 
L 283.825789 239.335364 
L 284.045447 239.545059 
L 284.265105 239.56272 
L 284.924079 240.974264 
L 285.143737 241.011971 
L 285.363395 241.287367 
L 285.802711 241.178454 
L 286.022369 241.585892 
L 286.461685 241.562498 
L 286.681343 241.311219 
L 287.779633 243.029256 
L 287.999291 243.128658 
L 288.438607 243.031371 
L 288.877923 243.344756 
L 289.097581 242.958292 
L 289.756556 242.820901 
L 290.195872 243.342762 
L 290.41553 243.215912 
L 290.635188 243.242742 
L 291.294162 242.197326 
L 291.51382 241.730595 
L 291.733478 241.944128 
L 291.953136 241.88792 
L 292.392452 241.531574 
L 292.61211 241.825688 
L 293.051426 242.796539 
L 293.271084 243.096098 
L 293.490742 242.643809 
L 294.149716 243.177366 
L 294.369374 243.707637 
L 294.589032 243.500698 
L 294.80869 243.119168 
L 295.028348 243.006384 
L 295.467664 243.612331 
L 296.565954 242.335514 
L 296.785612 243.014569 
L 297.00527 243.160997 
L 297.224928 242.931506 
L 297.444586 243.398452 
L 297.883902 243.530205 
L 298.323218 242.719498 
L 298.542876 243.200144 
L 298.762534 243.318074 
L 299.20185 243.213262 
L 299.421508 243.421054 
L 299.860824 244.560639 
L 300.080482 244.917529 
L 300.30014 244.979786 
L 300.519798 245.266928 
L 300.739456 245.203184 
L 301.39843 246.170002 
L 301.618088 246.556525 
L 301.837746 246.617215 
L 302.057404 246.225745 
L 302.277062 246.267542 
L 302.49672 246.526956 
L 302.716378 246.452656 
L 302.936036 246.202771 
L 303.375352 246.41453 
L 303.59501 246.040728 
L 303.814668 245.889902 
L 304.034326 246.098833 
L 304.473643 246.042733 
L 304.912959 246.666019 
L 305.132617 246.550302 
L 305.352275 245.956361 
L 305.571933 246.043355 
L 305.791591 245.659563 
L 306.011249 245.699373 
L 306.230907 246.4224 
L 306.670223 245.540788 
L 306.889881 245.86126 
L 307.109539 246.691089 
L 307.329197 246.156315 
L 307.548855 246.116401 
L 307.768513 245.248398 
L 308.427487 244.930814 
L 308.647145 244.874213 
L 308.866803 245.025969 
L 309.086461 245.650633 
L 309.525777 244.590686 
L 310.184751 245.001795 
L 310.624067 246.044835 
L 310.843725 246.766085 
L 311.063383 246.857829 
L 311.283041 246.793274 
L 311.502699 247.21216 
L 311.722357 247.112911 
L 311.942015 247.210136 
L 312.161673 247.508752 
L 312.381331 247.525417 
L 313.259963 245.326764 
L 313.479621 245.619379 
L 313.699279 245.251634 
L 313.918937 244.625269 
L 314.138595 245.308315 
L 314.358253 245.517724 
L 314.577911 245.932597 
L 314.797569 246.741009 
L 315.017227 246.92286 
L 315.236885 246.774049 
L 315.676201 246.714865 
L 316.335175 247.535885 
L 316.554833 248.054154 
L 316.774491 248.274064 
L 316.994149 248.286701 
L 317.433465 247.992375 
L 317.653123 247.925239 
L 317.872781 248.264722 
L 318.092439 248.345059 
L 318.312097 249.102614 
L 318.751413 249.880204 
L 319.410388 249.91858 
L 320.069362 251.415486 
L 320.28902 251.590764 
L 320.508678 251.532229 
L 320.947994 252.114394 
L 321.38731 252.243286 
L 321.606968 252.199629 
L 322.4856 253.747214 
L 322.705258 254.018594 
L 322.924916 253.94521 
L 323.144574 254.039449 
L 323.364232 253.879403 
L 323.58389 253.416033 
L 324.023206 253.328104 
L 324.242864 253.85254 
L 324.462522 253.396143 
L 325.341154 252.797568 
L 325.560812 252.831753 
L 325.78047 252.711308 
L 326.219786 253.392148 
L 326.659102 254.381163 
L 326.87876 253.742449 
L 327.318076 253.879666 
L 327.537734 253.697317 
L 327.97705 253.818798 
L 329.07534 252.151528 
L 329.294998 252.469406 
L 329.734314 252.087135 
L 329.953972 252.580766 
L 330.17363 253.377196 
L 330.393288 253.57508 
L 330.612946 253.494528 
L 330.832604 253.050751 
L 331.491578 252.739417 
L 331.711236 253.444046 
L 331.930894 253.261952 
L 332.37021 254.426396 
L 332.589868 254.545829 
L 332.809526 254.515743 
L 333.4685 256.026466 
L 333.688158 256.127649 
L 333.907816 256.084122 
L 334.127474 256.61601 
L 334.566791 256.886563 
L 335.006107 256.316923 
L 335.225765 256.568298 
L 335.665081 257.338617 
L 335.884739 257.060573 
L 336.104397 258.141433 
L 336.324055 258.567087 
L 336.543713 258.633503 
L 336.763371 258.918515 
L 337.422345 259.22601 
L 337.642003 259.396602 
L 338.300977 260.378334 
L 338.520635 260.18838 
L 338.740293 260.218212 
L 338.959951 260.893741 
L 339.399267 261.342348 
L 339.838583 260.879891 
L 340.058241 260.820964 
L 340.717215 261.481876 
L 340.936873 261.86974 
L 341.156531 261.991206 
L 341.595847 261.351871 
L 341.815505 261.140569 
L 342.035163 261.119043 
L 342.254821 261.643029 
L 342.474479 261.612956 
L 342.913795 261.866716 
L 343.133453 261.720467 
L 343.572769 262.204293 
L 344.231743 262.656358 
L 344.451401 263.200849 
L 344.890717 263.807315 
L 345.330033 264.606481 
L 345.549691 264.799301 
L 345.769349 264.839043 
L 346.208665 264.366966 
L 346.867639 265.431689 
L 347.087297 265.54054 
L 347.526613 266.166329 
L 347.746271 266.023537 
L 348.185587 266.816307 
L 348.405245 267.351526 
L 348.844561 267.332786 
L 349.064219 267.673694 
L 349.283877 267.689583 
L 349.503535 267.558047 
L 349.723194 267.600764 
L 350.16251 268.309386 
L 350.382168 268.605497 
L 350.821484 268.459485 
L 351.041142 268.04093 
L 351.2608 267.961099 
L 352.578748 268.338776 
L 352.798406 268.896228 
L 353.018064 269.146109 
L 353.237722 269.080801 
L 353.45738 269.188758 
L 353.677038 269.068892 
L 354.116354 268.612471 
L 354.55567 268.930032 
L 354.775328 269.506329 
L 354.994986 269.532885 
L 355.214644 269.825884 
L 355.434302 270.31822 
L 355.65396 270.230366 
L 355.873618 270.33608 
L 356.312934 270.956735 
L 356.75225 271.442771 
L 357.411224 272.634508 
L 357.85054 272.630498 
L 358.070198 272.754087 
L 358.289856 273.015498 
L 358.509514 273.064819 
L 358.729172 272.981355 
L 359.827462 274.103194 
L 360.266778 274.05163 
L 360.486436 274.11951 
L 360.706094 273.798634 
L 360.925752 273.684281 
L 361.584726 274.610286 
L 362.024042 274.423608 
L 362.2437 274.362121 
L 362.683016 274.934521 
L 364.000964 275.856494 
L 364.879597 276.901122 
L 365.318913 276.683773 
L 365.538571 276.808016 
L 365.977887 277.549833 
L 366.197545 277.532617 
L 366.417203 277.817028 
L 366.636861 278.358422 
L 367.076177 278.708115 
L 367.295835 278.739527 
L 367.954809 279.522156 
L 368.613783 280.524437 
L 368.833441 280.680458 
L 369.053099 280.685691 
L 369.272757 280.542058 
L 369.712073 280.637385 
L 369.931731 280.492615 
L 370.371047 280.919619 
L 371.249679 282.202243 
L 371.688995 282.016838 
L 371.908653 282.070341 
L 372.787285 283.460736 
L 373.226601 283.895031 
L 373.446259 284.181162 
L 373.885575 284.126187 
L 374.105233 284.216108 
L 374.544549 284.739603 
L 374.764207 284.64617 
L 375.423181 285.250918 
L 376.082155 284.756272 
L 376.741129 285.124383 
L 377.400103 285.055656 
L 377.619761 285.034492 
L 378.278735 284.191805 
L 378.718051 284.462266 
L 378.937709 284.934104 
L 379.157367 284.875004 
L 379.377025 284.969213 
L 380.255658 286.394628 
L 380.694974 286.471221 
L 381.13429 286.220973 
L 381.353948 286.238327 
L 381.573606 286.619946 
L 382.012922 286.808742 
L 382.23258 287.227112 
L 382.671896 287.178963 
L 382.891554 287.365763 
L 383.111212 287.104676 
L 383.550528 286.351138 
L 384.42916 286.04113 
L 384.868476 286.457209 
L 385.307792 286.429422 
L 385.52745 286.638736 
L 386.186424 287.830745 
L 386.406082 288.028823 
L 386.845398 287.913235 
L 387.284714 288.374325 
L 387.504372 288.319313 
L 388.163346 287.745391 
L 388.602662 287.709973 
L 389.041978 287.042047 
L 389.261636 287.094705 
L 389.700952 287.914467 
L 390.140268 288.96808 
L 390.579584 289.374151 
L 390.799242 289.439208 
L 391.0189 289.265607 
L 391.458216 289.781041 
L 391.677874 290.429334 
L 392.556506 291.339169 
L 393.21548 291.764237 
L 393.874454 291.619037 
L 394.094112 291.66596 
L 394.533428 291.99079 
L 395.192403 291.913112 
L 396.949667 294.414776 
L 397.169325 294.303613 
L 397.608641 294.764652 
L 398.047957 295.359292 
L 398.487273 295.488 
L 398.487273 295.488 
" clip-path="url(#p8923f4fd57)" style="fill: none; stroke: #ff7f0e; stroke-opacity: 0.7; stroke-width: 1.5; stroke-linecap: square"/>
   </g>
   <g id="line2d_17">
    <path d="M 73.832727 151.484643 
L 74.272043 151.561485 
L 74.931017 151.329651 
L 75.370333 151.805489 
L 76.029307 151.121645 
L 76.248965 151.079522 
L 76.468623 151.210983 
L 77.127597 151.143115 
L 77.566914 151.481522 
L 78.225888 151.103992 
L 78.445546 151.089199 
L 78.884862 150.787337 
L 79.10452 150.708473 
L 79.543836 150.061107 
L 79.763494 150.342336 
L 79.983152 150.088341 
L 80.20281 150.109395 
L 80.422468 150.353057 
L 80.642126 150.1688 
L 81.3011 150.654178 
L 81.520758 150.393136 
L 81.740416 150.387349 
L 81.960074 150.677211 
L 82.179732 150.642365 
L 83.49768 151.481291 
L 84.156654 151.038662 
L 84.376312 151.02286 
L 84.815628 151.237234 
L 85.69426 151.026654 
L 87.451524 151.951122 
L 88.769472 152.070705 
L 88.98913 152.135991 
L 89.208788 152.063701 
L 89.428446 151.854911 
L 90.307078 152.211879 
L 91.405368 152.703266 
L 91.844684 152.704393 
L 92.503659 152.617191 
L 92.942975 152.46483 
L 93.382291 152.313916 
L 93.821607 152.050436 
L 94.260923 151.976656 
L 95.139555 152.143845 
L 95.798529 152.671038 
L 96.018187 152.579784 
L 97.116477 152.945701 
L 97.775451 152.839555 
L 97.995109 152.899352 
L 98.214767 153.141317 
L 98.434425 153.191763 
L 99.093399 152.975434 
L 99.532715 153.107976 
L 100.411347 153.433333 
L 100.850663 153.230651 
L 101.289979 153.114853 
L 101.509637 153.030285 
L 102.607927 153.328145 
L 103.047243 153.310456 
L 103.925875 153.619286 
L 104.584849 153.443829 
L 105.243823 153.195578 
L 106.122455 153.52789 
L 106.561771 153.49335 
L 106.781429 153.52556 
L 107.220745 153.724275 
L 108.319036 153.555843 
L 108.758352 153.680035 
L 108.97801 153.695707 
L 109.856642 153.241892 
L 110.295958 152.268394 
L 110.515616 152.56339 
L 110.735274 152.505103 
L 110.954932 152.809671 
L 111.17459 152.861188 
L 111.394248 152.67276 
L 112.053222 152.467087 
L 112.27288 152.024303 
L 112.492538 152.366558 
L 112.931854 152.081442 
L 113.37117 152.390231 
L 113.590828 152.623185 
L 114.030144 152.643934 
L 114.249802 152.799696 
L 114.46946 153.166717 
L 114.689118 153.179997 
L 114.908776 153.065815 
L 115.128434 152.768222 
L 115.787408 152.675378 
L 116.007066 152.767973 
L 116.885698 152.222712 
L 117.325014 152.441903 
L 117.544672 152.78672 
L 117.983988 152.97355 
L 118.203646 153.219302 
L 118.423304 152.798298 
L 118.642962 152.747623 
L 118.86262 152.403232 
L 119.301936 152.358816 
L 119.741252 152.49489 
L 120.619884 151.62239 
L 120.839542 151.526573 
L 121.278858 150.679214 
L 121.498516 151.386454 
L 121.937832 151.615291 
L 122.377148 151.886769 
L 122.596806 151.612841 
L 123.036123 152.17491 
L 123.695097 152.706118 
L 124.573729 152.903162 
L 125.232703 153.364984 
L 126.330993 153.244629 
L 127.209625 153.803045 
L 127.429283 153.95355 
L 127.648941 153.946801 
L 128.088257 153.718812 
L 128.307915 153.682719 
L 129.186547 154.130424 
L 129.845521 154.338349 
L 130.943811 154.367173 
L 131.602785 154.340256 
L 132.261759 153.911805 
L 133.799365 154.558267 
L 134.019023 154.525959 
L 134.238681 154.623195 
L 134.677997 154.365698 
L 135.117313 154.386819 
L 135.336971 154.391586 
L 136.435261 154.950474 
L 137.094235 155.072325 
L 137.753209 155.125631 
L 138.192526 155.184234 
L 138.8515 155.036232 
L 139.290816 155.226964 
L 139.94979 155.341182 
L 140.169448 155.402513 
L 140.608764 155.163748 
L 140.828422 155.246338 
L 141.04808 155.20855 
L 141.487396 154.820098 
L 142.14637 154.342782 
L 142.805344 154.823828 
L 144.123292 154.596488 
L 145.221582 153.850166 
L 146.319872 154.745632 
L 147.198504 154.76403 
L 147.418162 154.733426 
L 148.516452 155.300187 
L 148.955768 155.0265 
L 149.175426 155.034817 
L 150.273716 155.751933 
L 150.713032 155.612342 
L 151.152348 155.753822 
L 151.591664 156.057788 
L 151.811322 156.005231 
L 152.250638 155.777041 
L 152.689954 155.685178 
L 153.129271 155.946203 
L 153.568587 155.998108 
L 154.007903 156.038422 
L 154.666877 155.446705 
L 154.886535 154.951204 
L 155.325851 155.077953 
L 155.545509 155.395048 
L 155.765167 155.367304 
L 155.984825 155.171928 
L 156.204483 155.344351 
L 156.424141 154.982482 
L 156.643799 154.922544 
L 157.083115 155.364889 
L 157.522431 155.448464 
L 157.742089 155.555209 
L 157.961747 155.209172 
L 158.840379 155.60103 
L 159.499353 155.815232 
L 159.719011 156.131301 
L 160.158327 156.280035 
L 160.377985 156.281015 
L 161.036959 156.612663 
L 161.476275 156.507244 
L 161.915591 156.51706 
L 162.794223 156.14986 
L 163.453197 156.057695 
L 163.672855 155.945187 
L 163.892513 155.581668 
L 164.112171 155.584488 
L 164.331829 155.834325 
L 164.551487 155.827885 
L 164.771145 155.580312 
L 165.210461 155.774115 
L 165.649777 156.079515 
L 166.089093 156.265224 
L 167.407041 156.347143 
L 169.164306 157.054031 
L 169.603622 157.063203 
L 170.042938 157.31869 
L 170.701912 157.223593 
L 171.360886 157.55918 
L 172.01986 157.329274 
L 172.898492 157.786791 
L 173.337808 157.494657 
L 173.777124 157.55381 
L 173.996782 157.742052 
L 174.655756 157.726758 
L 175.31473 158.086489 
L 175.754046 158.271871 
L 175.973704 158.306685 
L 176.41302 158.547222 
L 177.071994 158.691955 
L 177.51131 158.532722 
L 177.730968 158.673046 
L 178.6096 158.59783 
L 179.048916 158.764455 
L 179.488232 158.893649 
L 179.927548 159.010652 
L 180.147206 159.168183 
L 180.80618 159.110836 
L 181.025838 158.942481 
L 181.245496 158.608134 
L 181.90447 158.776525 
L 182.124128 158.529239 
L 182.343786 158.531155 
L 183.00276 159.161326 
L 183.222419 159.108736 
L 184.320709 159.434276 
L 184.760025 159.365666 
L 184.979683 159.40832 
L 185.199341 159.179725 
L 185.638657 157.968723 
L 185.858315 157.806012 
L 186.077973 157.234758 
L 186.297631 157.068333 
L 186.517289 157.539304 
L 186.736947 157.18902 
L 186.956605 157.829053 
L 187.395921 157.105031 
L 187.615579 155.976646 
L 187.835237 156.645108 
L 188.054895 156.01795 
L 188.274553 154.66161 
L 188.494211 155.405607 
L 188.713869 153.879216 
L 188.933527 154.175133 
L 189.153185 153.558674 
L 189.372843 153.648363 
L 189.592501 153.217819 
L 189.812159 152.476408 
L 190.031817 153.599396 
L 190.251475 153.88296 
L 190.471133 154.833359 
L 190.690791 154.511428 
L 190.910449 154.907499 
L 191.130107 154.880831 
L 191.349765 154.247134 
L 191.569423 154.45363 
L 191.789081 154.343693 
L 192.008739 155.179153 
L 192.228397 155.299392 
L 192.667713 156.313969 
L 192.887371 156.341338 
L 193.107029 156.708926 
L 193.326687 156.535721 
L 193.546345 156.56648 
L 193.766003 156.901264 
L 193.985661 156.797655 
L 194.205319 156.301443 
L 195.523267 157.570231 
L 195.742925 157.574816 
L 195.962583 157.13884 
L 196.182241 157.117032 
L 197.060873 157.62307 
L 197.280531 157.793524 
L 197.939505 157.317184 
L 198.159163 157.430681 
L 198.378822 157.92573 
L 198.59848 157.884985 
L 198.818138 158.142525 
L 199.477112 158.27589 
L 199.916428 158.811595 
L 200.355744 158.969271 
L 200.575402 159.127824 
L 200.79506 159.578555 
L 201.014718 159.664339 
L 201.454034 160.310762 
L 201.673692 160.306107 
L 201.89335 160.182509 
L 202.113008 159.206037 
L 202.552324 159.449926 
L 202.771982 159.749426 
L 203.211298 159.83476 
L 203.650614 159.79595 
L 203.870272 159.97464 
L 204.08993 159.691372 
L 204.309588 159.760695 
L 204.529246 159.411085 
L 204.748904 159.512177 
L 205.18822 159.985908 
L 205.407878 160.120794 
L 205.627536 160.403429 
L 206.28651 160.30504 
L 206.945484 160.435607 
L 207.165142 160.720841 
L 208.043774 161.164519 
L 208.263432 161.359032 
L 209.142064 160.989966 
L 210.020696 161.474478 
L 211.118986 162.242335 
L 211.338644 162.127493 
L 211.997618 162.350425 
L 213.095908 162.552475 
L 213.974541 163.436364 
L 214.413857 163.790192 
L 214.633515 163.86317 
L 214.853173 164.260236 
L 215.512147 162.973646 
L 215.731805 163.132377 
L 216.171121 162.812172 
L 216.830095 163.149763 
L 217.269411 162.687189 
L 217.489069 162.344523 
L 217.708727 162.369677 
L 217.928385 162.076097 
L 218.148043 161.998804 
L 218.807017 162.643513 
L 219.026675 162.736394 
L 219.246333 162.970028 
L 219.465991 162.865541 
L 219.685649 163.09 
L 219.905307 162.968363 
L 220.564281 163.763249 
L 220.783939 164.158545 
L 221.003597 164.195163 
L 221.442913 163.890057 
L 221.662571 163.851693 
L 221.882229 163.561871 
L 222.541203 163.526801 
L 222.760861 163.676351 
L 223.200177 163.264206 
L 223.419835 162.551506 
L 223.639493 162.892756 
L 223.859151 162.712888 
L 224.078809 162.782669 
L 224.957441 164.177864 
L 225.396757 164.415328 
L 225.616415 164.456476 
L 225.836073 164.325766 
L 226.055731 164.444975 
L 226.275389 164.795462 
L 226.495047 164.853423 
L 226.714705 164.574659 
L 226.934363 164.54767 
L 227.154021 164.40306 
L 227.373679 164.401505 
L 227.593337 164.764233 
L 228.691628 165.103026 
L 229.350602 165.47317 
L 229.789918 165.363693 
L 230.448892 164.928706 
L 231.327524 165.372526 
L 231.986498 165.050105 
L 232.206156 165.089865 
L 232.645472 165.418353 
L 233.743762 165.456131 
L 234.183078 166.048484 
L 234.622394 166.015265 
L 235.06171 165.897971 
L 235.281368 165.676614 
L 235.501026 165.715751 
L 235.720684 166.050852 
L 235.940342 166.15703 
L 236.379658 166.063528 
L 236.599316 165.997885 
L 236.818974 165.450086 
L 237.038632 165.526034 
L 237.25829 165.182725 
L 237.477948 165.343456 
L 237.697606 165.651982 
L 238.136922 165.94069 
L 238.795896 166.411814 
L 239.235212 166.262199 
L 239.894186 166.296989 
L 240.772818 165.595913 
L 240.992476 165.775246 
L 241.431792 165.196618 
L 241.65145 165.526186 
L 241.871108 165.42363 
L 242.310424 164.841988 
L 242.530082 165.049468 
L 242.74974 165.027142 
L 243.628372 165.979453 
L 244.067689 166.211954 
L 244.287347 166.178885 
L 244.726663 165.848958 
L 244.946321 165.911864 
L 245.605295 165.622278 
L 245.824953 166.019242 
L 246.264269 166.038025 
L 246.483927 166.044447 
L 246.703585 166.270464 
L 246.923243 166.7047 
L 247.362559 166.787225 
L 247.582217 166.832666 
L 248.021533 167.356522 
L 248.680507 167.415381 
L 248.900165 167.633429 
L 249.119823 167.641417 
L 249.339481 167.417503 
L 249.559139 167.487417 
L 249.778797 167.347528 
L 250.437771 167.575219 
L 250.657429 167.514397 
L 251.096745 167.550163 
L 251.536061 167.368404 
L 251.755719 167.260218 
L 251.975377 167.310503 
L 252.195035 167.539223 
L 252.414693 167.44847 
L 252.634351 167.161496 
L 252.854009 166.575711 
L 253.073667 166.659477 
L 253.293325 167.040403 
L 253.512983 167.0686 
L 253.952299 166.728082 
L 254.830931 167.305752 
L 257.247169 167.371446 
L 257.906143 167.705817 
L 258.565117 167.016697 
L 260.102724 167.845082 
L 260.322382 167.795988 
L 260.54204 167.970108 
L 260.761698 168.295621 
L 261.201014 168.39282 
L 261.420672 168.288922 
L 262.079646 168.628972 
L 262.518962 168.552145 
L 262.958278 167.839747 
L 264.276226 168.98861 
L 265.154858 168.697157 
L 266.253148 168.988899 
L 266.692464 168.934188 
L 267.13178 169.237101 
L 267.351438 169.39227 
L 267.571096 169.34678 
L 267.790754 168.996114 
L 268.010412 168.899694 
L 268.669386 169.492233 
L 269.108702 169.574799 
L 269.987334 169.9478 
L 270.42665 170.010486 
L 271.085624 169.526188 
L 271.305282 169.237105 
L 271.964256 169.113789 
L 272.183914 169.158892 
L 272.403572 168.968026 
L 272.62323 168.492781 
L 273.062546 168.760331 
L 273.501862 169.261811 
L 273.72152 169.25104 
L 273.941178 168.744903 
L 274.160837 168.674477 
L 274.380495 168.429767 
L 274.600153 168.452161 
L 274.819811 168.218672 
L 275.259127 168.424856 
L 275.478785 168.679101 
L 275.698443 168.744495 
L 276.137759 168.408906 
L 276.357417 168.414095 
L 276.796733 169.081602 
L 277.895023 169.889098 
L 278.114681 169.886574 
L 278.334339 170.040785 
L 278.553997 169.951676 
L 279.212971 170.371466 
L 279.432629 170.534067 
L 279.871945 171.158448 
L 280.311261 171.455615 
L 280.530919 171.408963 
L 280.750577 171.118194 
L 280.970235 171.01176 
L 282.288183 171.278147 
L 282.727499 171.016629 
L 282.947157 171.01417 
L 283.166815 170.509506 
L 283.386473 170.68432 
L 283.825789 169.85141 
L 284.045447 170.023379 
L 284.265105 169.881435 
L 284.484763 170.154388 
L 284.704421 170.701117 
L 284.924079 170.872159 
L 285.143737 170.779636 
L 285.363395 170.934716 
L 285.802711 170.57372 
L 286.022369 170.872721 
L 286.461685 170.491671 
L 286.681343 170.146487 
L 287.779633 171.526002 
L 287.999291 171.499114 
L 288.438607 171.199655 
L 288.877923 171.302892 
L 289.097581 170.789078 
L 289.756556 170.373138 
L 290.195872 170.692521 
L 290.41553 170.434764 
L 290.635188 170.365135 
L 291.51382 168.595215 
L 291.733478 168.64181 
L 292.392452 168.120812 
L 293.271084 169.657118 
L 293.490742 169.175013 
L 294.149716 169.275403 
L 294.369374 169.643763 
L 294.589032 169.372972 
L 294.80869 168.880768 
L 295.028348 168.693461 
L 295.248006 168.997947 
L 295.467664 169.091703 
L 296.346296 167.615234 
L 296.565954 167.576574 
L 296.785612 168.132232 
L 297.00527 168.178891 
L 297.224928 167.840489 
L 297.444586 168.179269 
L 297.664244 168.15713 
L 297.883902 167.997983 
L 298.10356 167.316011 
L 298.323218 167.025373 
L 298.542876 167.438941 
L 298.762534 167.439824 
L 299.20185 167.024544 
L 299.421508 167.256497 
L 299.860824 168.236498 
L 300.080482 168.563762 
L 300.30014 168.612668 
L 300.519798 168.846237 
L 300.739456 168.721947 
L 301.39843 169.455228 
L 301.618088 169.823747 
L 301.837746 169.89087 
L 302.057404 169.425199 
L 302.277062 169.393074 
L 302.49672 169.556926 
L 303.155694 169.006226 
L 303.375352 168.9957 
L 303.814668 168.359419 
L 304.034326 168.492423 
L 304.473643 168.206083 
L 304.912959 168.628327 
L 305.132617 168.409704 
L 305.352275 167.720469 
L 305.571933 167.733751 
L 305.791591 167.189938 
L 306.011249 167.138492 
L 306.230907 167.661856 
L 306.450565 166.980819 
L 306.670223 166.783801 
L 306.889881 166.900803 
L 307.109539 167.529189 
L 307.329197 166.894718 
L 307.548855 166.724157 
L 307.768513 165.874282 
L 308.427487 165.321209 
L 308.866803 165.535222 
L 309.086461 166.014751 
L 309.525777 164.942156 
L 309.745435 164.913527 
L 309.965093 165.13618 
L 310.184751 165.063921 
L 310.404409 165.271886 
L 310.843725 166.400334 
L 311.063383 166.41948 
L 311.283041 166.218461 
L 311.502699 166.521932 
L 311.722357 166.318648 
L 311.942015 166.305305 
L 312.161673 166.457849 
L 312.381331 166.402345 
L 313.259963 164.012754 
L 313.479621 164.258921 
L 313.918937 163.359774 
L 314.138595 163.862733 
L 314.358253 163.967216 
L 314.577911 164.270516 
L 314.797569 164.980033 
L 315.017227 165.087944 
L 315.236885 164.760955 
L 315.456543 164.673713 
L 315.676201 164.456198 
L 316.335175 164.893094 
L 316.554833 165.343203 
L 316.774491 165.466327 
L 316.994149 165.327325 
L 317.433465 164.865189 
L 317.653123 164.745483 
L 317.872781 165.061161 
L 318.092439 165.035025 
L 318.531755 165.867505 
L 318.751413 166.213047 
L 319.190729 166.172062 
L 319.410388 165.908631 
L 320.28902 167.383663 
L 320.508678 167.190901 
L 320.947994 167.588448 
L 321.167652 167.643558 
L 321.606968 167.398974 
L 322.705258 168.847067 
L 323.144574 168.758467 
L 323.364232 168.445838 
L 323.58389 167.895078 
L 323.803548 167.729526 
L 324.023206 167.706461 
L 324.242864 168.078448 
L 324.462522 167.47703 
L 325.341154 166.60838 
L 325.78047 166.299782 
L 326.439444 167.258212 
L 326.659102 167.601145 
L 326.87876 166.883156 
L 327.098418 166.875664 
L 327.537734 166.424952 
L 327.757392 166.479372 
L 327.97705 166.34906 
L 328.855682 164.781445 
L 329.07534 164.528267 
L 329.294998 164.863746 
L 329.734314 164.277914 
L 329.953972 164.657789 
L 330.17363 165.340836 
L 330.393288 165.444544 
L 330.612946 165.273595 
L 330.832604 164.697852 
L 331.491578 164.142174 
L 331.711236 164.689048 
L 331.930894 164.399698 
L 332.37021 165.198124 
L 332.589868 165.234489 
L 332.809526 165.049817 
L 333.4685 166.189334 
L 333.688158 166.212908 
L 333.907816 166.035567 
L 334.127474 166.434409 
L 334.566791 166.421937 
L 335.006107 165.608072 
L 335.665081 166.202906 
L 335.884739 165.843082 
L 336.104397 166.795149 
L 336.324055 167.206032 
L 336.543713 167.194625 
L 336.763371 167.320298 
L 337.642003 167.208656 
L 338.300977 167.805406 
L 338.740293 167.455095 
L 338.959951 167.992771 
L 339.179609 168.19867 
L 339.399267 168.195055 
L 339.838583 167.444237 
L 340.058241 167.29778 
L 340.277899 167.413866 
L 340.497557 167.359162 
L 340.936873 167.811955 
L 341.156531 167.784806 
L 341.595847 166.91474 
L 341.815505 166.624412 
L 342.035163 166.564455 
L 342.254821 166.931573 
L 342.474479 166.782563 
L 342.913795 166.788552 
L 343.133453 166.565722 
L 343.572769 166.847501 
L 343.792427 166.832539 
L 344.012085 166.931712 
L 344.231743 166.849438 
L 344.451401 167.234274 
L 344.890717 167.580677 
L 345.330033 168.233157 
L 345.769349 168.459193 
L 346.208665 167.793864 
L 346.867639 168.529124 
L 347.087297 168.479266 
L 347.526613 168.9621 
L 347.746271 168.866 
L 347.965929 169.078355 
L 348.405245 170.03044 
L 348.624903 169.982248 
L 348.844561 169.79498 
L 349.064219 169.993688 
L 349.723194 169.510815 
L 349.942852 169.801488 
L 350.382168 169.955 
L 350.821484 169.575732 
L 351.041142 169.063932 
L 351.2608 168.906703 
L 351.480458 168.897116 
L 351.919774 168.712786 
L 352.139432 168.739047 
L 352.35909 168.638912 
L 352.578748 168.661457 
L 352.798406 169.097641 
L 353.018064 169.277832 
L 353.237722 169.057759 
L 353.45738 169.022792 
L 354.116354 168.095414 
L 354.336012 168.297644 
L 354.55567 168.254213 
L 354.775328 168.607955 
L 354.994986 168.485741 
L 355.214644 168.615352 
L 355.434302 168.951746 
L 355.65396 168.761074 
L 355.873618 168.74015 
L 356.312934 168.958554 
L 356.532592 168.944531 
L 356.971908 169.364943 
L 357.411224 170.057906 
L 357.630882 170.085718 
L 358.070198 169.951932 
L 358.509514 169.995208 
L 358.729172 169.808534 
L 359.827462 170.505062 
L 360.486436 170.310516 
L 360.925752 169.68932 
L 361.584726 170.312678 
L 362.2437 169.692042 
L 362.683016 170.031236 
L 362.902674 169.954684 
L 363.34199 170.023712 
L 363.781306 169.95987 
L 364.000964 169.917675 
L 364.220622 170.081706 
L 364.659938 170.772944 
L 364.879597 170.727858 
L 365.318913 170.225221 
L 365.538571 170.274974 
L 365.977887 170.765047 
L 366.197545 170.738712 
L 366.417203 170.879323 
L 366.636861 171.403463 
L 367.515493 171.519442 
L 367.954809 171.985512 
L 368.833441 172.872886 
L 369.931731 172.140237 
L 370.590705 172.550542 
L 370.810363 172.934701 
L 371.249679 173.14102 
L 371.688995 172.728052 
L 371.908653 172.679642 
L 372.347969 173.129707 
L 372.567627 173.505716 
L 373.226601 173.835015 
L 373.446259 173.999116 
L 374.105233 173.788211 
L 374.544549 174.015779 
L 374.764207 173.795036 
L 375.423181 174.149769 
L 375.862497 173.61015 
L 376.082155 173.356558 
L 376.521471 173.420701 
L 377.180445 173.039458 
L 377.400103 173.105162 
L 377.619761 172.977454 
L 378.278735 172.085079 
L 378.937709 172.457152 
L 379.157367 172.312663 
L 379.377025 172.329859 
L 379.596683 172.480724 
L 380.036 173.132201 
L 380.255658 173.255104 
L 380.694974 173.135323 
L 381.13429 172.696183 
L 381.353948 172.619821 
L 381.573606 172.851926 
L 382.012922 172.766776 
L 382.23258 172.967448 
L 382.671896 172.72356 
L 382.891554 172.69254 
L 383.770186 171.511017 
L 384.209502 171.084444 
L 384.648818 171.116168 
L 384.868476 171.20552 
L 385.088134 171.033564 
L 385.52745 171.091311 
L 386.186424 171.956811 
L 386.406082 172.145248 
L 386.62574 172.093586 
L 386.845398 171.910185 
L 387.284714 172.160883 
L 387.72403 171.700947 
L 388.163346 171.161663 
L 388.383004 171.219922 
L 388.602662 171.009476 
L 389.041978 170.305024 
L 389.261636 170.394244 
L 389.700952 170.947382 
L 390.140268 171.818129 
L 390.579584 172.139958 
L 390.799242 172.201836 
L 391.0189 172.056519 
L 392.776164 173.69379 
L 393.654796 173.674547 
L 394.094112 173.500426 
L 394.31377 173.726127 
L 394.533428 173.761314 
L 395.192403 173.458027 
L 395.851377 174.078523 
L 396.071035 174.532758 
L 396.949667 175.095652 
L 397.169325 174.898709 
L 398.487273 175.595018 
L 398.487273 175.595018 
" clip-path="url(#p8923f4fd57)" style="fill: none; stroke: #2ca02c; stroke-opacity: 0.7; stroke-width: 1.5; stroke-linecap: square"/>
   </g>
   <g id="patch_3">
    <path d="M 57.6 307.584 
L 57.6 41.472 
" style="fill: none; stroke: #000000; stroke-width: 0.8; stroke-linejoin: miter; stroke-linecap: square"/>
   </g>
   <g id="patch_4">
    <path d="M 414.72 307.584 
L 414.72 41.472 
" style="fill: none; stroke: #000000; stroke-width: 0.8; stroke-linejoin: miter; stroke-linecap: square"/>
   </g>
   <g id="patch_5">
    <path d="M 57.6 307.584 
L 414.72 307.584 
" style="fill: none; stroke: #000000; stroke-width: 0.8; stroke-linejoin: miter; stroke-linecap: square"/>
   </g>
   <g id="patch_6">
    <path d="M 57.6 41.472 
L 414.72 41.472 
" style="fill: none; stroke: #000000; stroke-width: 0.8; stroke-linejoin: miter; stroke-linecap: square"/>
   </g>
   <g id="text_15">
    <!-- isomorphism_snp500 -->
    <g transform="translate(172.275937 35.472) scale(0.12 -0.12)">
     <defs>
      <path id="DejaVuSans-69" d="M 603 3500 
L 1178 3500 
L 1178 0 
L 603 0 
L 603 3500 
z
M 603 4863 
L 1178 4863 
L 1178 4134 
L 603 4134 
L 603 4863 
z
" transform="scale(0.015625)"/>
      <path id="DejaVuSans-73" d="M 2834 3397 
L 2834 2853 
Q 2591 2978 2328 3040 
Q 2066 3103 1784 3103 
Q 1356 3103 1142 2972 
Q 928 2841 928 2578 
Q 928 2378 1081 2264 
Q 1234 2150 1697 2047 
L 1894 2003 
Q 2506 1872 2764 1633 
Q 3022 1394 3022 966 
Q 3022 478 2636 193 
Q 2250 -91 1575 -91 
Q 1294 -91 989 -36 
Q 684 19 347 128 
L 347 722 
Q 666 556 975 473 
Q 1284 391 1588 391 
Q 1994 391 2212 530 
Q 2431 669 2431 922 
Q 2431 1156 2273 1281 
Q 2116 1406 1581 1522 
L 1381 1569 
Q 847 1681 609 1914 
Q 372 2147 372 2553 
Q 372 3047 722 3315 
Q 1072 3584 1716 3584 
Q 2034 3584 2315 3537 
Q 2597 3491 2834 3397 
z
" transform="scale(0.015625)"/>
      <path id="DejaVuSans-6f" d="M 1959 3097 
Q 1497 3097 1228 2736 
Q 959 2375 959 1747 
Q 959 1119 1226 758 
Q 1494 397 1959 397 
Q 2419 397 2687 759 
Q 2956 1122 2956 1747 
Q 2956 2369 2687 2733 
Q 2419 3097 1959 3097 
z
M 1959 3584 
Q 2709 3584 3137 3096 
Q 3566 2609 3566 1747 
Q 3566 888 3137 398 
Q 2709 -91 1959 -91 
Q 1206 -91 779 398 
Q 353 888 353 1747 
Q 353 2609 779 3096 
Q 1206 3584 1959 3584 
z
" transform="scale(0.015625)"/>
      <path id="DejaVuSans-6d" d="M 3328 2828 
Q 3544 3216 3844 3400 
Q 4144 3584 4550 3584 
Q 5097 3584 5394 3201 
Q 5691 2819 5691 2113 
L 5691 0 
L 5113 0 
L 5113 2094 
Q 5113 2597 4934 2840 
Q 4756 3084 4391 3084 
Q 3944 3084 3684 2787 
Q 3425 2491 3425 1978 
L 3425 0 
L 2847 0 
L 2847 2094 
Q 2847 2600 2669 2842 
Q 2491 3084 2119 3084 
Q 1678 3084 1418 2786 
Q 1159 2488 1159 1978 
L 1159 0 
L 581 0 
L 581 3500 
L 1159 3500 
L 1159 2956 
Q 1356 3278 1631 3431 
Q 1906 3584 2284 3584 
Q 2666 3584 2933 3390 
Q 3200 3197 3328 2828 
z
" transform="scale(0.015625)"/>
      <path id="DejaVuSans-72" d="M 2631 2963 
Q 2534 3019 2420 3045 
Q 2306 3072 2169 3072 
Q 1681 3072 1420 2755 
Q 1159 2438 1159 1844 
L 1159 0 
L 581 0 
L 581 3500 
L 1159 3500 
L 1159 2956 
Q 1341 3275 1631 3429 
Q 1922 3584 2338 3584 
Q 2397 3584 2469 3576 
Q 2541 3569 2628 3553 
L 2631 2963 
z
" transform="scale(0.015625)"/>
      <path id="DejaVuSans-70" d="M 1159 525 
L 1159 -1331 
L 581 -1331 
L 581 3500 
L 1159 3500 
L 1159 2969 
Q 1341 3281 1617 3432 
Q 1894 3584 2278 3584 
Q 2916 3584 3314 3078 
Q 3713 2572 3713 1747 
Q 3713 922 3314 415 
Q 2916 -91 2278 -91 
Q 1894 -91 1617 61 
Q 1341 213 1159 525 
z
M 3116 1747 
Q 3116 2381 2855 2742 
Q 2594 3103 2138 3103 
Q 1681 3103 1420 2742 
Q 1159 2381 1159 1747 
Q 1159 1113 1420 752 
Q 1681 391 2138 391 
Q 2594 391 2855 752 
Q 3116 1113 3116 1747 
z
" transform="scale(0.015625)"/>
      <path id="DejaVuSans-68" d="M 3513 2113 
L 3513 0 
L 2938 0 
L 2938 2094 
Q 2938 2591 2744 2837 
Q 2550 3084 2163 3084 
Q 1697 3084 1428 2787 
Q 1159 2491 1159 1978 
L 1159 0 
L 581 0 
L 581 4863 
L 1159 4863 
L 1159 2956 
Q 1366 3272 1645 3428 
Q 1925 3584 2291 3584 
Q 2894 3584 3203 3211 
Q 3513 2838 3513 2113 
z
" transform="scale(0.015625)"/>
      <path id="DejaVuSans-5f" d="M 3263 -1063 
L 3263 -1509 
L -63 -1509 
L -63 -1063 
L 3263 -1063 
z
" transform="scale(0.015625)"/>
      <path id="DejaVuSans-6e" d="M 3513 2113 
L 3513 0 
L 2938 0 
L 2938 2094 
Q 2938 2591 2744 2837 
Q 2550 3084 2163 3084 
Q 1697 3084 1428 2787 
Q 1159 2491 1159 1978 
L 1159 0 
L 581 0 
L 581 3500 
L 1159 3500 
L 1159 2956 
Q 1366 3272 1645 3428 
Q 1925 3584 2291 3584 
Q 2894 3584 3203 3211 
Q 3513 2838 3513 2113 
z
" transform="scale(0.015625)"/>
      <path id="DejaVuSans-35" d="M 691 4666 
L 3169 4666 
L 3169 4134 
L 1269 4134 
L 1269 2991 
Q 1406 3038 1543 3061 
Q 1681 3084 1819 3084 
Q 2600 3084 3056 2656 
Q 3513 2228 3513 1497 
Q 3513 744 3044 326 
Q 2575 -91 1722 -91 
Q 1428 -91 1123 -41 
Q 819 9 494 109 
L 494 744 
Q 775 591 1075 516 
Q 1375 441 1709 441 
Q 2250 441 2565 725 
Q 2881 1009 2881 1497 
Q 2881 1984 2565 2268 
Q 2250 2553 1709 2553 
Q 1456 2553 1204 2497 
Q 953 2441 691 2322 
L 691 4666 
z
" transform="scale(0.015625)"/>
     </defs>
     <use xlink:href="#DejaVuSans-69"/>
     <use xlink:href="#DejaVuSans-73" x="27.783203"/>
     <use xlink:href="#DejaVuSans-6f" x="79.882812"/>
     <use xlink:href="#DejaVuSans-6d" x="141.064453"/>
     <use xlink:href="#DejaVuSans-6f" x="238.476562"/>
     <use xlink:href="#DejaVuSans-72" x="299.658203"/>
     <use xlink:href="#DejaVuSans-70" x="340.771484"/>
     <use xlink:href="#DejaVuSans-68" x="404.248047"/>
     <use xlink:href="#DejaVuSans-69" x="467.626953"/>
     <use xlink:href="#DejaVuSans-73" x="495.410156"/>
     <use xlink:href="#DejaVuSans-6d" x="547.509766"/>
     <use xlink:href="#DejaVuSans-5f" x="644.921875"/>
     <use xlink:href="#DejaVuSans-73" x="694.921875"/>
     <use xlink:href="#DejaVuSans-6e" x="747.021484"/>
     <use xlink:href="#DejaVuSans-70" x="810.400391"/>
     <use xlink:href="#DejaVuSans-35" x="873.876953"/>
     <use xlink:href="#DejaVuSans-30" x="937.5"/>
     <use xlink:href="#DejaVuSans-30" x="1001.123047"/>
    </g>
   </g>
   <g id="legend_1">
    <g id="patch_7">
     <path d="M 64.6 93.506375 
L 258.804688 93.506375 
Q 260.804688 93.506375 260.804688 91.506375 
L 260.804688 48.472 
Q 260.804688 46.472 258.804688 46.472 
L 64.6 46.472 
Q 62.6 46.472 62.6 48.472 
L 62.6 91.506375 
Q 62.6 93.506375 64.6 93.506375 
z
" style="fill: #ffffff; opacity: 0.8; stroke: #cccccc; stroke-linejoin: miter"/>
    </g>
    <g id="line2d_18">
     <path d="M 66.6 54.570438 
L 76.6 54.570438 
L 86.6 54.570438 
" style="fill: none; stroke: #1f77b4; stroke-opacity: 0.7; stroke-width: 1.5; stroke-linecap: square"/>
    </g>
    <g id="text_16">
     <!-- Positive cumulative predictions -->
     <g transform="translate(94.6 58.070438) scale(0.1 -0.1)">
      <defs>
       <path id="DejaVuSans-50" d="M 1259 4147 
L 1259 2394 
L 2053 2394 
Q 2494 2394 2734 2622 
Q 2975 2850 2975 3272 
Q 2975 3691 2734 3919 
Q 2494 4147 2053 4147 
L 1259 4147 
z
M 628 4666 
L 2053 4666 
Q 2838 4666 3239 4311 
Q 3641 3956 3641 3272 
Q 3641 2581 3239 2228 
Q 2838 1875 2053 1875 
L 1259 1875 
L 1259 0 
L 628 0 
L 628 4666 
z
" transform="scale(0.015625)"/>
       <path id="DejaVuSans-74" d="M 1172 4494 
L 1172 3500 
L 2356 3500 
L 2356 3053 
L 1172 3053 
L 1172 1153 
Q 1172 725 1289 603 
Q 1406 481 1766 481 
L 2356 481 
L 2356 0 
L 1766 0 
Q 1100 0 847 248 
Q 594 497 594 1153 
L 594 3053 
L 172 3053 
L 172 3500 
L 594 3500 
L 594 4494 
L 1172 4494 
z
" transform="scale(0.015625)"/>
       <path id="DejaVuSans-76" d="M 191 3500 
L 800 3500 
L 1894 563 
L 2988 3500 
L 3597 3500 
L 2284 0 
L 1503 0 
L 191 3500 
z
" transform="scale(0.015625)"/>
       <path id="DejaVuSans-65" d="M 3597 1894 
L 3597 1613 
L 953 1613 
Q 991 1019 1311 708 
Q 1631 397 2203 397 
Q 2534 397 2845 478 
Q 3156 559 3463 722 
L 3463 178 
Q 3153 47 2828 -22 
Q 2503 -91 2169 -91 
Q 1331 -91 842 396 
Q 353 884 353 1716 
Q 353 2575 817 3079 
Q 1281 3584 2069 3584 
Q 2775 3584 3186 3129 
Q 3597 2675 3597 1894 
z
M 3022 2063 
Q 3016 2534 2758 2815 
Q 2500 3097 2075 3097 
Q 1594 3097 1305 2825 
Q 1016 2553 972 2059 
L 3022 2063 
z
" transform="scale(0.015625)"/>
       <path id="DejaVuSans-20" transform="scale(0.015625)"/>
       <path id="DejaVuSans-63" d="M 3122 3366 
L 3122 2828 
Q 2878 2963 2633 3030 
Q 2388 3097 2138 3097 
Q 1578 3097 1268 2742 
Q 959 2388 959 1747 
Q 959 1106 1268 751 
Q 1578 397 2138 397 
Q 2388 397 2633 464 
Q 2878 531 3122 666 
L 3122 134 
Q 2881 22 2623 -34 
Q 2366 -91 2075 -91 
Q 1284 -91 818 406 
Q 353 903 353 1747 
Q 353 2603 823 3093 
Q 1294 3584 2113 3584 
Q 2378 3584 2631 3529 
Q 2884 3475 3122 3366 
z
" transform="scale(0.015625)"/>
       <path id="DejaVuSans-75" d="M 544 1381 
L 544 3500 
L 1119 3500 
L 1119 1403 
Q 1119 906 1312 657 
Q 1506 409 1894 409 
Q 2359 409 2629 706 
Q 2900 1003 2900 1516 
L 2900 3500 
L 3475 3500 
L 3475 0 
L 2900 0 
L 2900 538 
Q 2691 219 2414 64 
Q 2138 -91 1772 -91 
Q 1169 -91 856 284 
Q 544 659 544 1381 
z
M 1991 3584 
L 1991 3584 
z
" transform="scale(0.015625)"/>
       <path id="DejaVuSans-6c" d="M 603 4863 
L 1178 4863 
L 1178 0 
L 603 0 
L 603 4863 
z
" transform="scale(0.015625)"/>
       <path id="DejaVuSans-61" d="M 2194 1759 
Q 1497 1759 1228 1600 
Q 959 1441 959 1056 
Q 959 750 1161 570 
Q 1363 391 1709 391 
Q 2188 391 2477 730 
Q 2766 1069 2766 1631 
L 2766 1759 
L 2194 1759 
z
M 3341 1997 
L 3341 0 
L 2766 0 
L 2766 531 
Q 2569 213 2275 61 
Q 1981 -91 1556 -91 
Q 1019 -91 701 211 
Q 384 513 384 1019 
Q 384 1609 779 1909 
Q 1175 2209 1959 2209 
L 2766 2209 
L 2766 2266 
Q 2766 2663 2505 2880 
Q 2244 3097 1772 3097 
Q 1472 3097 1187 3025 
Q 903 2953 641 2809 
L 641 3341 
Q 956 3463 1253 3523 
Q 1550 3584 1831 3584 
Q 2591 3584 2966 3190 
Q 3341 2797 3341 1997 
z
" transform="scale(0.015625)"/>
       <path id="DejaVuSans-64" d="M 2906 2969 
L 2906 4863 
L 3481 4863 
L 3481 0 
L 2906 0 
L 2906 525 
Q 2725 213 2448 61 
Q 2172 -91 1784 -91 
Q 1150 -91 751 415 
Q 353 922 353 1747 
Q 353 2572 751 3078 
Q 1150 3584 1784 3584 
Q 2172 3584 2448 3432 
Q 2725 3281 2906 2969 
z
M 947 1747 
Q 947 1113 1208 752 
Q 1469 391 1925 391 
Q 2381 391 2643 752 
Q 2906 1113 2906 1747 
Q 2906 2381 2643 2742 
Q 2381 3103 1925 3103 
Q 1469 3103 1208 2742 
Q 947 2381 947 1747 
z
" transform="scale(0.015625)"/>
      </defs>
      <use xlink:href="#DejaVuSans-50"/>
      <use xlink:href="#DejaVuSans-6f" x="56.677734"/>
      <use xlink:href="#DejaVuSans-73" x="117.859375"/>
      <use xlink:href="#DejaVuSans-69" x="169.958984"/>
      <use xlink:href="#DejaVuSans-74" x="197.742188"/>
      <use xlink:href="#DejaVuSans-69" x="236.951172"/>
      <use xlink:href="#DejaVuSans-76" x="264.734375"/>
      <use xlink:href="#DejaVuSans-65" x="323.914062"/>
      <use xlink:href="#DejaVuSans-20" x="385.4375"/>
      <use xlink:href="#DejaVuSans-63" x="417.224609"/>
      <use xlink:href="#DejaVuSans-75" x="472.205078"/>
      <use xlink:href="#DejaVuSans-6d" x="535.583984"/>
      <use xlink:href="#DejaVuSans-75" x="632.996094"/>
      <use xlink:href="#DejaVuSans-6c" x="696.375"/>
      <use xlink:href="#DejaVuSans-61" x="724.158203"/>
      <use xlink:href="#DejaVuSans-74" x="785.4375"/>
      <use xlink:href="#DejaVuSans-69" x="824.646484"/>
      <use xlink:href="#DejaVuSans-76" x="852.429688"/>
      <use xlink:href="#DejaVuSans-65" x="911.609375"/>
      <use xlink:href="#DejaVuSans-20" x="973.132812"/>
      <use xlink:href="#DejaVuSans-70" x="1004.919922"/>
      <use xlink:href="#DejaVuSans-72" x="1068.396484"/>
      <use xlink:href="#DejaVuSans-65" x="1107.259766"/>
      <use xlink:href="#DejaVuSans-64" x="1168.783203"/>
      <use xlink:href="#DejaVuSans-69" x="1232.259766"/>
      <use xlink:href="#DejaVuSans-63" x="1260.042969"/>
      <use xlink:href="#DejaVuSans-74" x="1315.023438"/>
      <use xlink:href="#DejaVuSans-69" x="1354.232422"/>
      <use xlink:href="#DejaVuSans-6f" x="1382.015625"/>
      <use xlink:href="#DejaVuSans-6e" x="1443.197266"/>
      <use xlink:href="#DejaVuSans-73" x="1506.576172"/>
     </g>
    </g>
    <g id="line2d_19">
     <path d="M 66.6 69.248563 
L 76.6 69.248563 
L 86.6 69.248563 
" style="fill: none; stroke: #ff7f0e; stroke-opacity: 0.7; stroke-width: 1.5; stroke-linecap: square"/>
    </g>
    <g id="text_17">
     <!-- Negative cumulative predictions -->
     <g transform="translate(94.6 72.748563) scale(0.1 -0.1)">
      <defs>
       <path id="DejaVuSans-4e" d="M 628 4666 
L 1478 4666 
L 3547 763 
L 3547 4666 
L 4159 4666 
L 4159 0 
L 3309 0 
L 1241 3903 
L 1241 0 
L 628 0 
L 628 4666 
z
" transform="scale(0.015625)"/>
       <path id="DejaVuSans-67" d="M 2906 1791 
Q 2906 2416 2648 2759 
Q 2391 3103 1925 3103 
Q 1463 3103 1205 2759 
Q 947 2416 947 1791 
Q 947 1169 1205 825 
Q 1463 481 1925 481 
Q 2391 481 2648 825 
Q 2906 1169 2906 1791 
z
M 3481 434 
Q 3481 -459 3084 -895 
Q 2688 -1331 1869 -1331 
Q 1566 -1331 1297 -1286 
Q 1028 -1241 775 -1147 
L 775 -588 
Q 1028 -725 1275 -790 
Q 1522 -856 1778 -856 
Q 2344 -856 2625 -561 
Q 2906 -266 2906 331 
L 2906 616 
Q 2728 306 2450 153 
Q 2172 0 1784 0 
Q 1141 0 747 490 
Q 353 981 353 1791 
Q 353 2603 747 3093 
Q 1141 3584 1784 3584 
Q 2172 3584 2450 3431 
Q 2728 3278 2906 2969 
L 2906 3500 
L 3481 3500 
L 3481 434 
z
" transform="scale(0.015625)"/>
      </defs>
      <use xlink:href="#DejaVuSans-4e"/>
      <use xlink:href="#DejaVuSans-65" x="74.804688"/>
      <use xlink:href="#DejaVuSans-67" x="136.328125"/>
      <use xlink:href="#DejaVuSans-61" x="199.804688"/>
      <use xlink:href="#DejaVuSans-74" x="261.083984"/>
      <use xlink:href="#DejaVuSans-69" x="300.292969"/>
      <use xlink:href="#DejaVuSans-76" x="328.076172"/>
      <use xlink:href="#DejaVuSans-65" x="387.255859"/>
      <use xlink:href="#DejaVuSans-20" x="448.779297"/>
      <use xlink:href="#DejaVuSans-63" x="480.566406"/>
      <use xlink:href="#DejaVuSans-75" x="535.546875"/>
      <use xlink:href="#DejaVuSans-6d" x="598.925781"/>
      <use xlink:href="#DejaVuSans-75" x="696.337891"/>
      <use xlink:href="#DejaVuSans-6c" x="759.716797"/>
      <use xlink:href="#DejaVuSans-61" x="787.5"/>
      <use xlink:href="#DejaVuSans-74" x="848.779297"/>
      <use xlink:href="#DejaVuSans-69" x="887.988281"/>
      <use xlink:href="#DejaVuSans-76" x="915.771484"/>
      <use xlink:href="#DejaVuSans-65" x="974.951172"/>
      <use xlink:href="#DejaVuSans-20" x="1036.474609"/>
      <use xlink:href="#DejaVuSans-70" x="1068.261719"/>
      <use xlink:href="#DejaVuSans-72" x="1131.738281"/>
      <use xlink:href="#DejaVuSans-65" x="1170.601562"/>
      <use xlink:href="#DejaVuSans-64" x="1232.125"/>
      <use xlink:href="#DejaVuSans-69" x="1295.601562"/>
      <use xlink:href="#DejaVuSans-63" x="1323.384766"/>
      <use xlink:href="#DejaVuSans-74" x="1378.365234"/>
      <use xlink:href="#DejaVuSans-69" x="1417.574219"/>
      <use xlink:href="#DejaVuSans-6f" x="1445.357422"/>
      <use xlink:href="#DejaVuSans-6e" x="1506.539062"/>
      <use xlink:href="#DejaVuSans-73" x="1569.917969"/>
     </g>
    </g>
    <g id="line2d_20">
     <path d="M 66.6 83.926688 
L 76.6 83.926688 
L 86.6 83.926688 
" style="fill: none; stroke: #2ca02c; stroke-opacity: 0.7; stroke-width: 1.5; stroke-linecap: square"/>
    </g>
    <g id="text_18">
     <!-- Average cumulative predictions -->
     <g transform="translate(94.6 87.426688) scale(0.1 -0.1)">
      <defs>
       <path id="DejaVuSans-41" d="M 2188 4044 
L 1331 1722 
L 3047 1722 
L 2188 4044 
z
M 1831 4666 
L 2547 4666 
L 4325 0 
L 3669 0 
L 3244 1197 
L 1141 1197 
L 716 0 
L 50 0 
L 1831 4666 
z
" transform="scale(0.015625)"/>
      </defs>
      <use xlink:href="#DejaVuSans-41"/>
      <use xlink:href="#DejaVuSans-76" x="62.533203"/>
      <use xlink:href="#DejaVuSans-65" x="121.712891"/>
      <use xlink:href="#DejaVuSans-72" x="183.236328"/>
      <use xlink:href="#DejaVuSans-61" x="224.349609"/>
      <use xlink:href="#DejaVuSans-67" x="285.628906"/>
      <use xlink:href="#DejaVuSans-65" x="349.105469"/>
      <use xlink:href="#DejaVuSans-20" x="410.628906"/>
      <use xlink:href="#DejaVuSans-63" x="442.416016"/>
      <use xlink:href="#DejaVuSans-75" x="497.396484"/>
      <use xlink:href="#DejaVuSans-6d" x="560.775391"/>
      <use xlink:href="#DejaVuSans-75" x="658.1875"/>
      <use xlink:href="#DejaVuSans-6c" x="721.566406"/>
      <use xlink:href="#DejaVuSans-61" x="749.349609"/>
      <use xlink:href="#DejaVuSans-74" x="810.628906"/>
      <use xlink:href="#DejaVuSans-69" x="849.837891"/>
      <use xlink:href="#DejaVuSans-76" x="877.621094"/>
      <use xlink:href="#DejaVuSans-65" x="936.800781"/>
      <use xlink:href="#DejaVuSans-20" x="998.324219"/>
      <use xlink:href="#DejaVuSans-70" x="1030.111328"/>
      <use xlink:href="#DejaVuSans-72" x="1093.587891"/>
      <use xlink:href="#DejaVuSans-65" x="1132.451172"/>
      <use xlink:href="#DejaVuSans-64" x="1193.974609"/>
      <use xlink:href="#DejaVuSans-69" x="1257.451172"/>
      <use xlink:href="#DejaVuSans-63" x="1285.234375"/>
      <use xlink:href="#DejaVuSans-74" x="1340.214844"/>
      <use xlink:href="#DejaVuSans-69" x="1379.423828"/>
      <use xlink:href="#DejaVuSans-6f" x="1407.207031"/>
      <use xlink:href="#DejaVuSans-6e" x="1468.388672"/>
      <use xlink:href="#DejaVuSans-73" x="1531.767578"/>
     </g>
    </g>
   </g>
  </g>
 </g>
 <defs>
  <clipPath id="p8923f4fd57">
   <rect x="57.6" y="41.472" width="357.12" height="266.112"/>
  </clipPath>
 </defs>
</svg>
