<?xml version="1.0" encoding="utf-8" standalone="no"?>
<!DOCTYPE svg PUBLIC "-//W3C//DTD SVG 1.1//EN"
  "http://www.w3.org/Graphics/SVG/1.1/DTD/svg11.dtd">
<svg xmlns:xlink="http://www.w3.org/1999/xlink" width="460.8pt" height="345.6pt" viewBox="0 0 460.8 345.6" xmlns="http://www.w3.org/2000/svg" version="1.1">
 <metadata>
  <rdf:RDF xmlns:dc="http://purl.org/dc/elements/1.1/" xmlns:cc="http://creativecommons.org/ns#" xmlns:rdf="http://www.w3.org/1999/02/22-rdf-syntax-ns#">
   <cc:Work>
    <dc:type rdf:resource="http://purl.org/dc/dcmitype/StillImage"/>
    <dc:date>2024-05-30T09:28:36.987807</dc:date>
    <dc:format>image/svg+xml</dc:format>
    <dc:creator>
     <cc:Agent>
      <dc:title>Matplotlib v3.9.0, https://matplotlib.org/</dc:title>
     </cc:Agent>
    </dc:creator>
   </cc:Work>
  </rdf:RDF>
 </metadata>
 <defs>
  <style type="text/css">*{stroke-linejoin: round; stroke-linecap: butt}</style>
 </defs>
 <g id="figure_1">
  <g id="patch_1">
   <path d="M 0 345.6 
L 460.8 345.6 
L 460.8 0 
L 0 0 
z
" style="fill: #ffffff"/>
  </g>
  <g id="axes_1">
   <g id="patch_2">
    <path d="M 57.6 307.584 
L 414.72 307.584 
L 414.72 41.472 
L 57.6 41.472 
z
" style="fill: #ffffff"/>
   </g>
   <g id="matplotlib.axis_1">
    <g id="xtick_1">
     <g id="line2d_1">
      <defs>
       <path id="md00bef2076" d="M 0 0 
L 0 3.5 
" style="stroke: #000000; stroke-width: 0.8"/>
      </defs>
      <g>
       <use xlink:href="#md00bef2076" x="73.832727" y="307.584" style="stroke: #000000; stroke-width: 0.8"/>
      </g>
     </g>
     <g id="text_1">
      <!-- 0 -->
      <g transform="translate(70.651477 322.182437) scale(0.1 -0.1)">
       <defs>
        <path id="DejaVuSans-30" d="M 2034 4250 
Q 1547 4250 1301 3770 
Q 1056 3291 1056 2328 
Q 1056 1369 1301 889 
Q 1547 409 2034 409 
Q 2525 409 2770 889 
Q 3016 1369 3016 2328 
Q 3016 3291 2770 3770 
Q 2525 4250 2034 4250 
z
M 2034 4750 
Q 2819 4750 3233 4129 
Q 3647 3509 3647 2328 
Q 3647 1150 3233 529 
Q 2819 -91 2034 -91 
Q 1250 -91 836 529 
Q 422 1150 422 2328 
Q 422 3509 836 4129 
Q 1250 4750 2034 4750 
z
" transform="scale(0.015625)"/>
       </defs>
       <use xlink:href="#DejaVuSans-30"/>
      </g>
     </g>
    </g>
    <g id="xtick_2">
     <g id="line2d_2">
      <g>
       <use xlink:href="#md00bef2076" x="116.18818" y="307.584" style="stroke: #000000; stroke-width: 0.8"/>
      </g>
     </g>
     <g id="text_2">
      <!-- 200 -->
      <g transform="translate(106.64443 322.182437) scale(0.1 -0.1)">
       <defs>
        <path id="DejaVuSans-32" d="M 1228 531 
L 3431 531 
L 3431 0 
L 469 0 
L 469 531 
Q 828 903 1448 1529 
Q 2069 2156 2228 2338 
Q 2531 2678 2651 2914 
Q 2772 3150 2772 3378 
Q 2772 3750 2511 3984 
Q 2250 4219 1831 4219 
Q 1534 4219 1204 4116 
Q 875 4013 500 3803 
L 500 4441 
Q 881 4594 1212 4672 
Q 1544 4750 1819 4750 
Q 2544 4750 2975 4387 
Q 3406 4025 3406 3419 
Q 3406 3131 3298 2873 
Q 3191 2616 2906 2266 
Q 2828 2175 2409 1742 
Q 1991 1309 1228 531 
z
" transform="scale(0.015625)"/>
       </defs>
       <use xlink:href="#DejaVuSans-32"/>
       <use xlink:href="#DejaVuSans-30" x="63.623047"/>
       <use xlink:href="#DejaVuSans-30" x="127.246094"/>
      </g>
     </g>
    </g>
    <g id="xtick_3">
     <g id="line2d_3">
      <g>
       <use xlink:href="#md00bef2076" x="158.543633" y="307.584" style="stroke: #000000; stroke-width: 0.8"/>
      </g>
     </g>
     <g id="text_3">
      <!-- 400 -->
      <g transform="translate(148.999883 322.182437) scale(0.1 -0.1)">
       <defs>
        <path id="DejaVuSans-34" d="M 2419 4116 
L 825 1625 
L 2419 1625 
L 2419 4116 
z
M 2253 4666 
L 3047 4666 
L 3047 1625 
L 3713 1625 
L 3713 1100 
L 3047 1100 
L 3047 0 
L 2419 0 
L 2419 1100 
L 313 1100 
L 313 1709 
L 2253 4666 
z
" transform="scale(0.015625)"/>
       </defs>
       <use xlink:href="#DejaVuSans-34"/>
       <use xlink:href="#DejaVuSans-30" x="63.623047"/>
       <use xlink:href="#DejaVuSans-30" x="127.246094"/>
      </g>
     </g>
    </g>
    <g id="xtick_4">
     <g id="line2d_4">
      <g>
       <use xlink:href="#md00bef2076" x="200.899086" y="307.584" style="stroke: #000000; stroke-width: 0.8"/>
      </g>
     </g>
     <g id="text_4">
      <!-- 600 -->
      <g transform="translate(191.355336 322.182437) scale(0.1 -0.1)">
       <defs>
        <path id="DejaVuSans-36" d="M 2113 2584 
Q 1688 2584 1439 2293 
Q 1191 2003 1191 1497 
Q 1191 994 1439 701 
Q 1688 409 2113 409 
Q 2538 409 2786 701 
Q 3034 994 3034 1497 
Q 3034 2003 2786 2293 
Q 2538 2584 2113 2584 
z
M 3366 4563 
L 3366 3988 
Q 3128 4100 2886 4159 
Q 2644 4219 2406 4219 
Q 1781 4219 1451 3797 
Q 1122 3375 1075 2522 
Q 1259 2794 1537 2939 
Q 1816 3084 2150 3084 
Q 2853 3084 3261 2657 
Q 3669 2231 3669 1497 
Q 3669 778 3244 343 
Q 2819 -91 2113 -91 
Q 1303 -91 875 529 
Q 447 1150 447 2328 
Q 447 3434 972 4092 
Q 1497 4750 2381 4750 
Q 2619 4750 2861 4703 
Q 3103 4656 3366 4563 
z
" transform="scale(0.015625)"/>
       </defs>
       <use xlink:href="#DejaVuSans-36"/>
       <use xlink:href="#DejaVuSans-30" x="63.623047"/>
       <use xlink:href="#DejaVuSans-30" x="127.246094"/>
      </g>
     </g>
    </g>
    <g id="xtick_5">
     <g id="line2d_5">
      <g>
       <use xlink:href="#md00bef2076" x="243.254538" y="307.584" style="stroke: #000000; stroke-width: 0.8"/>
      </g>
     </g>
     <g id="text_5">
      <!-- 800 -->
      <g transform="translate(233.710788 322.182437) scale(0.1 -0.1)">
       <defs>
        <path id="DejaVuSans-38" d="M 2034 2216 
Q 1584 2216 1326 1975 
Q 1069 1734 1069 1313 
Q 1069 891 1326 650 
Q 1584 409 2034 409 
Q 2484 409 2743 651 
Q 3003 894 3003 1313 
Q 3003 1734 2745 1975 
Q 2488 2216 2034 2216 
z
M 1403 2484 
Q 997 2584 770 2862 
Q 544 3141 544 3541 
Q 544 4100 942 4425 
Q 1341 4750 2034 4750 
Q 2731 4750 3128 4425 
Q 3525 4100 3525 3541 
Q 3525 3141 3298 2862 
Q 3072 2584 2669 2484 
Q 3125 2378 3379 2068 
Q 3634 1759 3634 1313 
Q 3634 634 3220 271 
Q 2806 -91 2034 -91 
Q 1263 -91 848 271 
Q 434 634 434 1313 
Q 434 1759 690 2068 
Q 947 2378 1403 2484 
z
M 1172 3481 
Q 1172 3119 1398 2916 
Q 1625 2713 2034 2713 
Q 2441 2713 2670 2916 
Q 2900 3119 2900 3481 
Q 2900 3844 2670 4047 
Q 2441 4250 2034 4250 
Q 1625 4250 1398 4047 
Q 1172 3844 1172 3481 
z
" transform="scale(0.015625)"/>
       </defs>
       <use xlink:href="#DejaVuSans-38"/>
       <use xlink:href="#DejaVuSans-30" x="63.623047"/>
       <use xlink:href="#DejaVuSans-30" x="127.246094"/>
      </g>
     </g>
    </g>
    <g id="xtick_6">
     <g id="line2d_6">
      <g>
       <use xlink:href="#md00bef2076" x="285.609991" y="307.584" style="stroke: #000000; stroke-width: 0.8"/>
      </g>
     </g>
     <g id="text_6">
      <!-- 1000 -->
      <g transform="translate(272.884991 322.182437) scale(0.1 -0.1)">
       <defs>
        <path id="DejaVuSans-31" d="M 794 531 
L 1825 531 
L 1825 4091 
L 703 3866 
L 703 4441 
L 1819 4666 
L 2450 4666 
L 2450 531 
L 3481 531 
L 3481 0 
L 794 0 
L 794 531 
z
" transform="scale(0.015625)"/>
       </defs>
       <use xlink:href="#DejaVuSans-31"/>
       <use xlink:href="#DejaVuSans-30" x="63.623047"/>
       <use xlink:href="#DejaVuSans-30" x="127.246094"/>
       <use xlink:href="#DejaVuSans-30" x="190.869141"/>
      </g>
     </g>
    </g>
    <g id="xtick_7">
     <g id="line2d_7">
      <g>
       <use xlink:href="#md00bef2076" x="327.965444" y="307.584" style="stroke: #000000; stroke-width: 0.8"/>
      </g>
     </g>
     <g id="text_7">
      <!-- 1200 -->
      <g transform="translate(315.240444 322.182437) scale(0.1 -0.1)">
       <use xlink:href="#DejaVuSans-31"/>
       <use xlink:href="#DejaVuSans-32" x="63.623047"/>
       <use xlink:href="#DejaVuSans-30" x="127.246094"/>
       <use xlink:href="#DejaVuSans-30" x="190.869141"/>
      </g>
     </g>
    </g>
    <g id="xtick_8">
     <g id="line2d_8">
      <g>
       <use xlink:href="#md00bef2076" x="370.320897" y="307.584" style="stroke: #000000; stroke-width: 0.8"/>
      </g>
     </g>
     <g id="text_8">
      <!-- 1400 -->
      <g transform="translate(357.595897 322.182437) scale(0.1 -0.1)">
       <use xlink:href="#DejaVuSans-31"/>
       <use xlink:href="#DejaVuSans-34" x="63.623047"/>
       <use xlink:href="#DejaVuSans-30" x="127.246094"/>
       <use xlink:href="#DejaVuSans-30" x="190.869141"/>
      </g>
     </g>
    </g>
    <g id="xtick_9">
     <g id="line2d_9">
      <g>
       <use xlink:href="#md00bef2076" x="412.676349" y="307.584" style="stroke: #000000; stroke-width: 0.8"/>
      </g>
     </g>
     <g id="text_9">
      <!-- 1600 -->
      <g transform="translate(399.951349 322.182437) scale(0.1 -0.1)">
       <use xlink:href="#DejaVuSans-31"/>
       <use xlink:href="#DejaVuSans-36" x="63.623047"/>
       <use xlink:href="#DejaVuSans-30" x="127.246094"/>
       <use xlink:href="#DejaVuSans-30" x="190.869141"/>
      </g>
     </g>
    </g>
   </g>
   <g id="matplotlib.axis_2">
    <g id="ytick_1">
     <g id="line2d_10">
      <defs>
       <path id="m6458a337a4" d="M 0 0 
L -3.5 0 
" style="stroke: #000000; stroke-width: 0.8"/>
      </defs>
      <g>
       <use xlink:href="#m6458a337a4" x="57.6" y="305.525133" style="stroke: #000000; stroke-width: 0.8"/>
      </g>
     </g>
     <g id="text_10">
      <!-- −4 -->
      <g transform="translate(35.857813 309.324352) scale(0.1 -0.1)">
       <defs>
        <path id="DejaVuSans-2212" d="M 678 2272 
L 4684 2272 
L 4684 1741 
L 678 1741 
L 678 2272 
z
" transform="scale(0.015625)"/>
       </defs>
       <use xlink:href="#DejaVuSans-2212"/>
       <use xlink:href="#DejaVuSans-34" x="83.789062"/>
      </g>
     </g>
    </g>
    <g id="ytick_2">
     <g id="line2d_11">
      <g>
       <use xlink:href="#m6458a337a4" x="57.6" y="270.386905" style="stroke: #000000; stroke-width: 0.8"/>
      </g>
     </g>
     <g id="text_11">
      <!-- −3 -->
      <g transform="translate(35.857813 274.186123) scale(0.1 -0.1)">
       <defs>
        <path id="DejaVuSans-33" d="M 2597 2516 
Q 3050 2419 3304 2112 
Q 3559 1806 3559 1356 
Q 3559 666 3084 287 
Q 2609 -91 1734 -91 
Q 1441 -91 1130 -33 
Q 819 25 488 141 
L 488 750 
Q 750 597 1062 519 
Q 1375 441 1716 441 
Q 2309 441 2620 675 
Q 2931 909 2931 1356 
Q 2931 1769 2642 2001 
Q 2353 2234 1838 2234 
L 1294 2234 
L 1294 2753 
L 1863 2753 
Q 2328 2753 2575 2939 
Q 2822 3125 2822 3475 
Q 2822 3834 2567 4026 
Q 2313 4219 1838 4219 
Q 1578 4219 1281 4162 
Q 984 4106 628 3988 
L 628 4550 
Q 988 4650 1302 4700 
Q 1616 4750 1894 4750 
Q 2613 4750 3031 4423 
Q 3450 4097 3450 3541 
Q 3450 3153 3228 2886 
Q 3006 2619 2597 2516 
z
" transform="scale(0.015625)"/>
       </defs>
       <use xlink:href="#DejaVuSans-2212"/>
       <use xlink:href="#DejaVuSans-33" x="83.789062"/>
      </g>
     </g>
    </g>
    <g id="ytick_3">
     <g id="line2d_12">
      <g>
       <use xlink:href="#m6458a337a4" x="57.6" y="235.248676" style="stroke: #000000; stroke-width: 0.8"/>
      </g>
     </g>
     <g id="text_12">
      <!-- −2 -->
      <g transform="translate(35.857813 239.047895) scale(0.1 -0.1)">
       <use xlink:href="#DejaVuSans-2212"/>
       <use xlink:href="#DejaVuSans-32" x="83.789062"/>
      </g>
     </g>
    </g>
    <g id="ytick_4">
     <g id="line2d_13">
      <g>
       <use xlink:href="#m6458a337a4" x="57.6" y="200.110447" style="stroke: #000000; stroke-width: 0.8"/>
      </g>
     </g>
     <g id="text_13">
      <!-- −1 -->
      <g transform="translate(35.857813 203.909666) scale(0.1 -0.1)">
       <use xlink:href="#DejaVuSans-2212"/>
       <use xlink:href="#DejaVuSans-31" x="83.789062"/>
      </g>
     </g>
    </g>
    <g id="ytick_5">
     <g id="line2d_14">
      <g>
       <use xlink:href="#m6458a337a4" x="57.6" y="164.972219" style="stroke: #000000; stroke-width: 0.8"/>
      </g>
     </g>
     <g id="text_14">
      <!-- 0 -->
      <g transform="translate(44.2375 168.771437) scale(0.1 -0.1)">
       <use xlink:href="#DejaVuSans-30"/>
      </g>
     </g>
    </g>
    <g id="ytick_6">
     <g id="line2d_15">
      <g>
       <use xlink:href="#m6458a337a4" x="57.6" y="129.83399" style="stroke: #000000; stroke-width: 0.8"/>
      </g>
     </g>
     <g id="text_15">
      <!-- 1 -->
      <g transform="translate(44.2375 133.633209) scale(0.1 -0.1)">
       <use xlink:href="#DejaVuSans-31"/>
      </g>
     </g>
    </g>
    <g id="ytick_7">
     <g id="line2d_16">
      <g>
       <use xlink:href="#m6458a337a4" x="57.6" y="94.695761" style="stroke: #000000; stroke-width: 0.8"/>
      </g>
     </g>
     <g id="text_16">
      <!-- 2 -->
      <g transform="translate(44.2375 98.49498) scale(0.1 -0.1)">
       <use xlink:href="#DejaVuSans-32"/>
      </g>
     </g>
    </g>
    <g id="ytick_8">
     <g id="line2d_17">
      <g>
       <use xlink:href="#m6458a337a4" x="57.6" y="59.557532" style="stroke: #000000; stroke-width: 0.8"/>
      </g>
     </g>
     <g id="text_17">
      <!-- 3 -->
      <g transform="translate(44.2375 63.356751) scale(0.1 -0.1)">
       <use xlink:href="#DejaVuSans-33"/>
      </g>
     </g>
    </g>
   </g>
   <g id="line2d_18">
    <path d="M 73.832727 164.838126 
L 74.679836 165.574111 
L 75.103391 164.997774 
L 75.526945 164.362428 
L 75.738723 164.450336 
L 75.9505 164.221731 
L 76.162277 164.209223 
L 76.585832 163.57201 
L 77.009386 163.865337 
L 77.221163 163.959245 
L 77.432941 164.356845 
L 77.644718 164.467769 
L 77.856495 163.951336 
L 78.28005 163.811852 
L 78.703604 163.757245 
L 79.127159 163.20314 
L 79.338936 163.297054 
L 79.550713 162.95044 
L 79.762491 163.15005 
L 80.186045 162.913192 
L 80.397822 163.279965 
L 80.6096 163.11266 
L 80.821377 162.604301 
L 82.303818 161.82436 
L 82.727372 162.082255 
L 82.93915 162.141209 
L 83.362704 161.816705 
L 83.786259 161.791468 
L 84.209813 161.374151 
L 84.633368 160.64415 
L 84.845145 160.652293 
L 85.2687 159.925477 
L 85.480477 159.86515 
L 85.692254 159.633702 
L 86.115809 158.93278 
L 86.327586 158.952063 
L 86.75114 158.608789 
L 87.174695 158.102054 
L 87.386472 158.226213 
L 87.810027 158.604198 
L 88.021804 158.164708 
L 89.716022 156.909479 
L 90.139577 156.172867 
L 90.351354 156.565346 
L 90.563131 156.715418 
L 90.986686 156.667864 
L 91.198463 156.871637 
L 91.622017 157.785355 
L 91.833795 158.13334 
L 92.045572 158.16643 
L 92.257349 158.063145 
L 92.469126 158.105046 
L 92.680904 157.421083 
L 93.104458 157.310178 
L 93.528013 156.834077 
L 93.73979 156.812927 
L 94.163345 157.104699 
L 94.375122 156.993389 
L 94.586899 156.517988 
L 94.798676 156.384237 
L 95.010454 156.689549 
L 95.645785 156.611564 
L 95.857563 156.787628 
L 96.281117 157.564521 
L 96.492895 157.535521 
L 96.916449 157.007572 
L 97.128226 156.900434 
L 97.340004 156.944015 
L 97.975335 156.500725 
L 98.39889 156.801908 
L 98.610667 156.600639 
L 98.822444 156.629055 
L 99.034222 156.088432 
L 99.881331 155.552235 
L 100.304885 154.921712 
L 100.516663 154.774803 
L 100.940217 154.804093 
L 101.151994 154.522449 
L 101.363772 153.897407 
L 101.575549 153.805871 
L 101.999103 153.399101 
L 102.210881 153.428893 
L 102.846212 154.315346 
L 103.269767 154.088646 
L 103.693321 154.636897 
L 104.328653 155.204637 
L 104.540431 154.793481 
L 105.38754 154.366446 
L 105.599317 153.982082 
L 106.234649 153.961912 
L 106.446426 154.139593 
L 107.081758 153.841006 
L 107.293535 153.863243 
L 107.505312 154.244067 
L 107.717089 154.230206 
L 108.140644 153.941033 
L 108.352421 153.940467 
L 108.775976 153.130338 
L 109.411308 152.37908 
L 110.046639 152.219581 
L 110.258417 152.095088 
L 110.893748 152.418347 
L 111.317303 152.347231 
L 111.740857 151.667821 
L 111.952635 151.692599 
L 112.799744 150.702944 
L 113.223298 150.456628 
L 113.646853 149.931578 
L 113.85863 150.09162 
L 114.282185 150.063592 
L 114.705739 150.265871 
L 115.129294 149.739086 
L 115.341071 149.275541 
L 115.552848 149.407103 
L 115.976403 149.335562 
L 116.399957 149.975991 
L 117.035289 149.647523 
L 117.458844 149.084927 
L 117.670621 148.812981 
L 118.094175 149.007068 
L 118.729507 148.465943 
L 119.153062 148.323695 
L 119.364839 148.479064 
L 119.576616 148.394415 
L 119.788394 148.123695 
L 120.000171 148.159695 
L 120.211948 148.026 
L 120.423725 147.670059 
L 121.059057 147.770202 
L 121.270834 148.070876 
L 121.482612 147.800888 
L 121.906166 147.646317 
L 122.117943 147.304448 
L 122.753275 147.55347 
L 122.965052 147.507985 
L 123.17683 146.848102 
L 123.388607 146.975628 
L 123.600384 146.884355 
L 123.812162 147.023357 
L 124.023939 146.963913 
L 124.447493 147.220964 
L 124.659271 146.878739 
L 124.871048 146.769665 
L 125.50638 146.074192 
L 125.929934 145.761262 
L 126.353489 145.823986 
L 126.565266 145.568121 
L 127.412375 146.221115 
L 127.624152 146.186954 
L 128.047707 145.808094 
L 129.106593 144.553501 
L 129.31837 144.593818 
L 129.741925 144.341683 
L 129.953702 144.188269 
L 131.224366 144.457557 
L 131.64792 144.710354 
L 132.706807 143.741457 
L 132.918584 143.243105 
L 133.553916 143.139969 
L 133.765693 143.304206 
L 134.612802 143.230449 
L 134.824579 143.685671 
L 135.036357 143.645915 
L 135.248134 143.206311 
L 135.459911 143.128214 
L 136.095243 142.478915 
L 136.730575 142.310445 
L 136.942352 142.521291 
L 137.577684 142.328207 
L 138.213015 142.29136 
L 138.848347 142.229011 
L 139.060125 142.112944 
L 139.483679 141.707921 
L 139.907234 141.386548 
L 140.330788 140.779691 
L 140.542565 140.677449 
L 141.177897 140.791117 
L 141.601452 140.434652 
L 142.660338 140.339199 
L 142.872115 140.393104 
L 143.719224 139.543748 
L 144.354556 139.22346 
L 144.778111 139.295448 
L 145.413442 138.644274 
L 145.62522 138.709257 
L 145.836997 138.954037 
L 146.048774 139.028275 
L 146.472329 138.98616 
L 147.107661 139.550713 
L 147.319438 139.652782 
L 147.531215 139.445321 
L 147.742992 139.073844 
L 148.378324 138.709239 
L 148.590101 138.898933 
L 149.013656 139.544294 
L 149.225433 139.612064 
L 149.860765 139.139037 
L 150.072542 138.716208 
L 150.707874 138.265394 
L 151.131429 137.785626 
L 151.343206 137.615702 
L 151.554983 137.711541 
L 152.190315 137.604361 
L 152.402092 137.283224 
L 153.249201 136.864194 
L 153.672756 136.355509 
L 154.308088 136.084413 
L 154.519865 136.122418 
L 154.943419 135.687007 
L 155.155197 135.645333 
L 155.366974 136.036296 
L 155.790528 135.796229 
L 156.214083 135.524187 
L 156.42586 135.502441 
L 156.849415 135.079263 
L 157.272969 134.681947 
L 157.484746 134.597683 
L 157.908301 134.61307 
L 158.120078 134.531823 
L 158.331856 134.727928 
L 158.967187 134.246078 
L 159.178965 134.075501 
L 159.602519 133.462632 
L 159.814296 133.342292 
L 160.026074 133.473054 
L 160.873183 133.386036 
L 161.296737 133.298775 
L 161.508514 133.414759 
L 161.720292 133.239433 
L 161.932069 133.334732 
L 162.779178 132.516752 
L 162.990955 132.456924 
L 163.41451 131.922801 
L 163.626287 131.852212 
L 163.838064 131.617636 
L 164.261619 131.64294 
L 164.896951 131.624499 
L 165.320505 131.391854 
L 166.167614 131.855122 
L 166.591169 132.344688 
L 167.014723 133.03064 
L 167.861832 132.220684 
L 168.285387 132.10582 
L 169.132496 132.576958 
L 169.556051 132.088218 
L 169.979605 131.691869 
L 170.40316 131.593315 
L 170.614937 131.453887 
L 171.038491 131.561443 
L 171.673823 131.647286 
L 171.8856 131.511916 
L 172.309155 131.045909 
L 173.156264 130.630614 
L 173.579819 130.930987 
L 174.21515 130.74492 
L 174.638705 130.574755 
L 174.850482 130.637964 
L 175.062259 130.959312 
L 175.274037 130.969281 
L 176.121146 130.449205 
L 176.332923 130.143709 
L 177.180032 129.825054 
L 177.603587 130.286213 
L 177.815364 130.28107 
L 178.238918 130.839533 
L 178.450696 130.660282 
L 178.662473 130.644933 
L 179.297805 129.96695 
L 180.356691 129.750426 
L 180.780246 129.315425 
L 182.050909 128.35287 
L 182.474464 128.241224 
L 182.686241 128.471563 
L 182.898018 128.464916 
L 183.53335 127.763918 
L 184.168682 127.143411 
L 185.015791 126.478069 
L 185.439345 126.226063 
L 185.651123 126.132999 
L 186.074677 126.304891 
L 186.710009 126.994271 
L 187.345341 127.782795 
L 187.557118 127.765923 
L 187.768895 127.917082 
L 187.980672 128.574443 
L 188.19245 128.802184 
L 188.404227 128.701875 
L 189.039559 127.712863 
L 189.251336 127.68634 
L 189.674891 126.815457 
L 189.886668 125.608053 
L 190.098445 125.599718 
L 190.733777 126.035692 
L 191.157331 127.047163 
L 192.427995 125.220413 
L 192.639772 125.514287 
L 192.85155 125.379082 
L 193.275104 125.465173 
L 193.486881 125.374921 
L 193.698659 125.500154 
L 194.33399 124.855423 
L 194.757545 124.63707 
L 195.181099 124.122604 
L 196.028209 124.304972 
L 196.239986 124.629396 
L 196.451763 124.719623 
L 196.66354 124.643865 
L 197.087095 123.988786 
L 197.510649 123.989076 
L 197.722427 123.827492 
L 198.145981 123.713325 
L 198.569536 123.418282 
L 199.204867 124.179761 
L 199.416645 124.114575 
L 199.840199 123.65457 
L 200.263754 124.045629 
L 200.687308 124.573542 
L 200.899086 124.648989 
L 201.746195 125.682127 
L 202.169749 125.439725 
L 202.381526 125.487624 
L 202.805081 125.06378 
L 203.016858 125.225311 
L 203.440413 124.64746 
L 203.863967 124.136401 
L 204.287522 124.444106 
L 204.922854 123.831776 
L 205.346408 123.714883 
L 205.98174 123.406593 
L 206.193517 123.534787 
L 206.405294 123.45922 
L 206.617072 123.538216 
L 207.252403 123.381836 
L 207.675958 123.855754 
L 208.523067 124.095823 
L 208.946622 124.626622 
L 209.158399 124.728929 
L 209.370176 125.324807 
L 209.793731 125.511431 
L 210.005508 126.031687 
L 210.217285 126.001854 
L 210.429062 125.78779 
L 211.064394 125.96079 
L 211.276171 125.817299 
L 211.699726 125.366804 
L 212.123281 125.479496 
L 212.546835 125.559497 
L 212.758612 125.874455 
L 212.97039 125.465799 
L 213.182167 125.424447 
L 213.393944 125.012173 
L 213.605721 124.85348 
L 214.029276 124.805577 
L 214.241053 124.620338 
L 214.45283 124.820367 
L 214.664608 124.861466 
L 214.876385 124.700046 
L 215.088162 124.282871 
L 216.147049 123.446463 
L 216.570603 123.520272 
L 216.78238 123.603807 
L 216.994158 123.551555 
L 217.205935 123.257469 
L 217.417712 123.270449 
L 217.629489 123.159025 
L 218.264821 122.106396 
L 218.476598 122.064777 
L 218.688376 121.869053 
L 218.900153 121.871557 
L 219.11193 122.074791 
L 219.535485 121.946273 
L 219.747262 121.787593 
L 219.959039 121.891977 
L 220.594371 121.552148 
L 221.017926 121.609235 
L 221.653257 120.89533 
L 221.865035 120.776075 
L 222.288589 121.050646 
L 222.500366 121.19222 
L 222.923921 121.086042 
L 224.194585 119.488673 
L 224.406362 119.847399 
L 224.618139 119.760741 
L 225.041694 120.147476 
L 225.888803 119.407727 
L 226.312357 119.505909 
L 226.524134 119.449835 
L 226.947689 119.152755 
L 227.159466 119.05046 
L 227.371244 118.815113 
L 227.583021 118.866255 
L 227.794798 119.078462 
L 228.218353 119.046443 
L 228.641907 119.583975 
L 228.853684 119.878098 
L 229.065462 119.923096 
L 229.700793 119.440864 
L 229.912571 119.225411 
L 230.336125 119.313541 
L 230.547903 119.205995 
L 230.75968 119.25614 
L 231.183234 119.766548 
L 231.606789 119.599229 
L 232.030343 119.118395 
L 232.453898 118.850341 
L 232.877452 118.947939 
L 233.08923 119.127957 
L 233.301007 118.739917 
L 233.512784 118.826916 
L 233.724561 118.668157 
L 233.936339 118.677269 
L 234.148116 118.881285 
L 234.359893 118.743076 
L 234.783448 118.037658 
L 234.995225 118.105962 
L 235.842334 117.151213 
L 236.054111 117.210987 
L 236.477666 117.162444 
L 236.689443 117.192803 
L 237.536552 116.628316 
L 237.748329 116.482931 
L 238.171884 115.867329 
L 238.383661 115.724345 
L 238.595439 115.35916 
L 238.807216 115.488632 
L 239.018993 115.434868 
L 239.23077 115.68573 
L 239.654325 115.749855 
L 240.077879 115.575056 
L 240.289657 115.45338 
L 240.501434 115.138188 
L 240.924988 115.159548 
L 241.348543 115.300816 
L 241.772097 115.188931 
L 242.195652 114.495819 
L 242.407429 114.463427 
L 242.619207 114.240729 
L 243.254538 113.080335 
L 243.678093 113.133043 
L 243.88987 113.320925 
L 244.101647 113.211962 
L 244.525202 112.730483 
L 244.736979 112.920104 
L 245.795866 111.780905 
L 246.21942 111.385077 
L 246.431197 111.256418 
L 246.854752 110.852999 
L 247.278306 110.917714 
L 247.490084 110.93856 
L 247.701861 111.165872 
L 247.913638 111.162001 
L 248.337193 111.285639 
L 248.54897 111.177918 
L 249.184302 111.437367 
L 249.396079 111.27177 
L 249.819634 111.453785 
L 250.243188 111.131997 
L 250.666743 111.299929 
L 250.87852 111.171181 
L 251.302074 111.353095 
L 251.513852 110.844979 
L 251.725629 110.810906 
L 252.149183 110.306638 
L 252.360961 110.416323 
L 252.572738 110.703557 
L 252.784515 110.715067 
L 252.996292 110.569111 
L 253.419847 110.020088 
L 253.631624 110.122669 
L 253.843402 110.075735 
L 254.055179 110.207851 
L 254.266956 110.103411 
L 254.478733 110.12951 
L 254.902288 109.905061 
L 255.325842 109.776754 
L 255.749397 109.452329 
L 255.961174 109.446028 
L 256.384729 109.13642 
L 256.596506 108.710095 
L 257.02006 108.611029 
L 257.655392 108.240016 
L 257.86717 107.864259 
L 258.290724 107.616919 
L 258.714279 106.555878 
L 258.926056 106.267017 
L 259.34961 106.334478 
L 260.196719 106.042248 
L 261.043829 105.173121 
L 261.255606 105.168288 
L 261.890938 104.779499 
L 262.314492 104.8988 
L 262.526269 104.480479 
L 262.738047 104.529052 
L 263.161601 104.149608 
L 264.432265 103.637571 
L 265.279374 104.073376 
L 266.126483 103.434213 
L 266.33826 102.979269 
L 266.973592 102.501511 
L 267.185369 102.41791 
L 267.608924 102.444019 
L 268.032478 101.87583 
L 268.456033 101.556145 
L 269.091365 101.771602 
L 269.726696 101.830628 
L 270.150251 102.09821 
L 270.362028 102.292268 
L 270.785583 102.315973 
L 271.420914 101.687732 
L 272.056246 101.295902 
L 272.268023 101.283455 
L 273.115133 100.56694 
L 273.32691 100.341417 
L 273.538687 100.372084 
L 273.750464 100.285611 
L 274.809351 99.120221 
L 275.232905 98.92232 
L 275.65646 98.494415 
L 276.291791 98.304484 
L 276.715346 98.413463 
L 277.138901 98.447882 
L 277.562455 98.714986 
L 277.98601 98.54895 
L 278.621341 97.948809 
L 278.833119 98.141777 
L 279.044896 97.707844 
L 279.256673 97.704516 
L 279.46845 97.479701 
L 279.680228 97.453288 
L 279.892005 97.137734 
L 280.527337 96.911372 
L 280.950891 96.146333 
L 281.162669 95.963471 
L 281.586223 95.287441 
L 281.798 95.13724 
L 282.009778 95.242342 
L 282.433332 94.620068 
L 283.068664 94.103243 
L 283.280441 94.34091 
L 283.915773 94.452004 
L 284.762882 93.926989 
L 284.974659 94.06922 
L 285.609991 93.612003 
L 285.821768 93.374223 
L 286.033546 93.3278 
L 286.245323 93.446446 
L 286.4571 93.180598 
L 287.727764 93.064312 
L 288.574873 93.040679 
L 289.421982 92.430659 
L 289.633759 92.478403 
L 290.057314 92.344532 
L 290.480868 92.766523 
L 290.904423 92.557109 
L 291.1162 92.121706 
L 291.327977 92.018989 
L 291.539754 91.76496 
L 291.963309 91.59313 
L 292.386864 91.010218 
L 292.598641 90.525395 
L 292.810418 90.403906 
L 293.44575 90.797411 
L 293.657527 91.301015 
L 293.869304 91.484679 
L 294.081082 91.510841 
L 294.504636 91.13493 
L 294.716413 91.013681 
L 295.139968 90.378205 
L 295.563523 90.375701 
L 295.7753 90.242883 
L 296.198854 89.791117 
L 296.622409 89.528636 
L 296.834186 88.974345 
L 297.045963 88.796529 
L 297.257741 88.770918 
L 297.681295 88.157511 
L 297.893072 87.849936 
L 298.10485 87.026486 
L 298.316627 86.846406 
L 298.528404 86.816389 
L 298.740181 87.337585 
L 298.951959 87.150553 
L 299.163736 86.712668 
L 299.587291 86.604382 
L 299.799068 86.733025 
L 300.010845 86.995484 
L 301.069731 86.189474 
L 301.493286 85.888565 
L 301.91684 86.439054 
L 302.552172 85.534361 
L 302.975727 84.970911 
L 303.187504 84.791197 
L 303.611059 84.757668 
L 303.822836 84.541079 
L 304.034613 84.641037 
L 304.881722 83.86253 
L 305.093499 83.996458 
L 305.305277 83.970927 
L 305.517054 83.823919 
L 306.152386 82.480608 
L 306.364163 82.154947 
L 306.57594 82.211328 
L 306.999495 82.096617 
L 307.211272 82.408464 
L 307.634827 81.959259 
L 307.846604 81.928043 
L 308.270158 81.556823 
L 308.481936 80.941032 
L 308.90549 80.852899 
L 309.117267 81.173328 
L 309.329045 80.990812 
L 309.540822 81.212869 
L 309.752599 81.264317 
L 310.176154 81.938244 
L 310.599708 81.841607 
L 310.811486 81.895461 
L 311.023263 82.10194 
L 311.23504 81.974736 
L 311.446817 81.539998 
L 311.658595 81.731382 
L 312.505704 81.150176 
L 312.929258 80.156915 
L 313.141035 79.744626 
L 313.56459 79.681391 
L 313.776367 79.942128 
L 313.988144 79.731106 
L 314.411699 79.659207 
L 314.623476 79.708998 
L 314.835254 79.516416 
L 315.258808 79.513809 
L 315.470585 79.274231 
L 315.682363 78.848452 
L 315.89414 78.806789 
L 316.317694 78.404683 
L 316.741249 77.326309 
L 317.164803 77.016185 
L 317.588358 76.341744 
L 318.011912 76.168018 
L 318.435467 76.56994 
L 318.647244 76.933124 
L 319.494353 76.663013 
L 319.706131 76.336985 
L 319.917908 76.464772 
L 320.341462 76.287477 
L 320.55324 76.508368 
L 320.976794 76.080655 
L 321.188571 76.245209 
L 321.400349 76.009198 
L 321.823903 75.833423 
L 322.247458 76.137102 
L 322.459235 76.003029 
L 322.671012 75.517554 
L 323.094567 75.339372 
L 323.729899 74.132539 
L 324.788785 73.944803 
L 325.212339 74.046546 
L 325.635894 73.44008 
L 325.847671 73.440388 
L 326.059448 73.15338 
L 326.906558 73.949223 
L 327.118335 73.506069 
L 327.541889 73.21962 
L 327.965444 73.207637 
L 328.177221 72.846032 
L 328.388998 72.198866 
L 328.600776 72.088301 
L 329.02433 71.01518 
L 329.236107 70.768392 
L 329.659662 71.486381 
L 330.083217 71.379549 
L 330.294994 71.900878 
L 330.506771 71.683071 
L 330.930326 70.760439 
L 331.35388 70.430348 
L 331.565657 70.42086 
L 331.777435 70.559506 
L 331.989212 70.55218 
L 332.412766 70.937913 
L 332.624544 70.532982 
L 332.836321 70.421628 
L 333.471653 70.876956 
L 333.68343 71.410807 
L 334.954094 69.618162 
L 335.377648 70.44066 
L 335.589425 70.684137 
L 335.801203 70.616634 
L 336.436534 71.958941 
L 336.648312 71.930546 
L 336.860089 72.16803 
L 337.071866 72.086433 
L 337.283643 71.812782 
L 337.495421 71.350689 
L 337.707198 71.417785 
L 338.130753 71.896793 
L 338.766084 71.112359 
L 339.189639 71.77533 
L 339.401416 72.064948 
L 339.613193 72.015857 
L 339.824971 71.752456 
L 340.248525 71.808513 
L 340.460302 71.867674 
L 340.67208 71.770949 
L 341.095634 72.130484 
L 341.307411 72.852249 
L 341.519189 72.491818 
L 342.154521 72.215962 
L 342.366298 72.027516 
L 342.789852 72.1823 
L 343.425184 71.763598 
L 343.636961 72.103534 
L 343.848739 71.854056 
L 344.060516 71.229509 
L 344.272293 71.279837 
L 344.48407 70.819005 
L 344.907625 71.334682 
L 345.119402 71.332315 
L 345.754734 72.302177 
L 345.966511 72.153498 
L 346.390066 71.706786 
L 346.81362 71.71021 
L 347.448952 72.291821 
L 347.660729 73.042325 
L 348.084284 72.554884 
L 348.296061 72.49233 
L 348.507838 72.961466 
L 348.719616 72.973513 
L 349.14317 72.030085 
L 350.202057 71.627042 
L 350.413834 71.60088 
L 351.049166 71.04193 
L 351.47272 70.838387 
L 351.896275 70.315437 
L 352.108052 70.064295 
L 352.319829 70.096248 
L 352.531606 70.006653 
L 352.743384 70.160159 
L 353.166938 69.892477 
L 353.378716 69.941592 
L 353.590493 69.51347 
L 354.014047 69.294572 
L 354.437602 69.670768 
L 354.649379 69.748528 
L 354.861156 69.22745 
L 355.072934 69.165717 
L 355.708265 69.411209 
L 355.920043 69.820223 
L 356.13182 69.826686 
L 356.343597 69.45696 
L 356.978929 69.352026 
L 357.190706 69.463503 
L 357.402484 69.222194 
L 357.826038 69.665689 
L 358.249593 69.486256 
L 358.884924 68.964622 
L 359.096702 69.185659 
L 359.308479 69.599415 
L 359.520256 69.411366 
L 359.732033 69.02444 
L 359.943811 69.031802 
L 360.367365 68.742752 
L 360.579143 68.749141 
L 360.79092 68.940094 
L 361.002697 68.838909 
L 361.214474 68.909145 
L 362.061583 68.098731 
L 362.273361 68.232757 
L 362.485138 68.23001 
L 362.908692 67.792646 
L 363.755801 66.711512 
L 364.179356 66.488791 
L 364.391133 66.288704 
L 364.602911 65.897636 
L 365.026465 65.808415 
L 366.085351 64.772366 
L 366.297129 64.799556 
L 366.508906 64.702108 
L 366.720683 64.762774 
L 367.567792 64.128505 
L 367.779569 64.347044 
L 367.991347 64.359537 
L 368.414901 64.220427 
L 368.626679 64.471268 
L 368.838456 64.908457 
L 369.050233 65.068274 
L 369.473788 64.647866 
L 369.685565 64.731419 
L 369.897342 64.68189 
L 370.320897 64.170836 
L 370.532674 64.23288 
L 371.168006 63.651207 
L 371.379783 63.569197 
L 372.015115 63.045541 
L 372.650447 63.603086 
L 373.074001 64.838181 
L 373.497556 64.348606 
L 373.709333 64.483309 
L 374.344665 63.612171 
L 374.768219 63.013678 
L 374.979996 63.008103 
L 375.191774 62.589522 
L 375.403551 62.581722 
L 376.038883 61.91747 
L 376.25066 61.773798 
L 376.674215 61.776665 
L 377.097769 61.505925 
L 377.521324 61.349561 
L 377.944878 60.869314 
L 378.368433 60.495199 
L 379.215542 60.218645 
L 379.639096 59.638652 
L 379.850874 59.569292 
L 380.062651 59.656026 
L 380.274428 59.964129 
L 380.486205 59.776036 
L 380.697983 59.366424 
L 380.90976 59.265434 
L 381.333314 58.749269 
L 381.545092 58.557122 
L 381.968646 58.59473 
L 382.180423 58.635666 
L 382.392201 58.50068 
L 382.603978 57.989825 
L 383.23931 57.740333 
L 383.662864 57.430922 
L 383.874642 57.374102 
L 384.509973 56.43573 
L 384.933528 56.414246 
L 385.357082 55.872683 
L 385.780637 55.866862 
L 386.627746 56.389524 
L 387.0513 55.910297 
L 387.474855 55.824675 
L 387.686632 55.602241 
L 388.110187 55.600436 
L 388.321964 55.871482 
L 389.169073 55.132473 
L 389.38085 55.251201 
L 389.804405 54.937097 
L 390.016182 54.882401 
L 390.227959 55.338973 
L 390.439737 55.423129 
L 391.075068 54.798937 
L 391.498623 54.585064 
L 391.7104 55.241256 
L 391.922178 55.271879 
L 392.133955 55.100556 
L 392.345732 55.12071 
L 392.769287 55.283421 
L 393.192841 54.906881 
L 393.616396 55.039822 
L 393.828173 55.330695 
L 394.03995 55.305599 
L 394.251727 54.850321 
L 394.463505 54.671846 
L 395.098837 53.746862 
L 395.310614 53.77071 
L 395.734168 53.568 
L 395.945946 53.667577 
L 396.3695 54.394758 
L 396.581277 54.135541 
L 397.428386 53.918759 
L 397.851941 54.143215 
L 398.063718 54.054397 
L 398.275495 54.454535 
L 398.487273 54.443225 
L 398.487273 54.443225 
" clip-path="url(#p302568dbad)" style="fill: none; stroke: #1f77b4; stroke-opacity: 0.7; stroke-width: 1.5; stroke-linecap: square"/>
   </g>
   <g id="line2d_19">
    <path d="M 73.832727 164.910818 
L 74.044505 164.922043 
L 74.679836 165.821199 
L 74.891614 165.459909 
L 75.103391 165.336834 
L 75.738723 164.652993 
L 75.9505 164.700423 
L 76.374054 164.458182 
L 76.585832 164.218505 
L 77.644718 165.636733 
L 77.856495 165.36697 
L 78.068273 165.40819 
L 78.703604 166.140613 
L 78.915382 166.025779 
L 79.127159 165.720658 
L 79.338936 165.760885 
L 79.550713 165.670666 
L 80.186045 166.302301 
L 80.397822 166.865226 
L 80.6096 166.891473 
L 80.821377 166.549292 
L 81.033154 166.509819 
L 81.456709 166.836196 
L 81.668486 166.800833 
L 82.092041 166.975627 
L 82.303818 166.885507 
L 82.727372 167.507146 
L 82.93915 167.66966 
L 83.362704 167.616897 
L 83.574481 167.962907 
L 84.209813 168.306574 
L 84.633368 167.787834 
L 84.845145 167.879877 
L 85.2687 167.657302 
L 85.480477 167.513928 
L 85.692254 167.548687 
L 85.904031 167.25948 
L 86.115809 166.589204 
L 86.327586 166.421598 
L 86.75114 166.581629 
L 87.174695 166.077326 
L 87.386472 166.178196 
L 87.598249 166.480734 
L 87.810027 166.55437 
L 88.021804 166.289396 
L 88.445358 166.403631 
L 88.868913 166.34221 
L 89.08069 166.50944 
L 89.504245 166.359956 
L 89.716022 166.422424 
L 89.927799 166.233202 
L 90.139577 165.884898 
L 90.351354 165.80655 
L 90.563131 166.078543 
L 90.774908 166.142935 
L 91.833795 167.291631 
L 92.257349 167.277528 
L 92.469126 167.458716 
L 92.680904 166.79212 
L 92.892681 166.660963 
L 93.104458 167.038208 
L 93.528013 167.210066 
L 93.73979 167.463857 
L 94.163345 168.253236 
L 94.375122 168.277679 
L 94.586899 168.035568 
L 94.798676 168.048503 
L 95.010454 168.614498 
L 95.222231 168.730766 
L 96.281117 170.178832 
L 96.492895 170.192863 
L 96.704672 170.07348 
L 97.128226 170.164075 
L 97.340004 170.504488 
L 97.975335 170.553442 
L 98.187113 171.089037 
L 98.39889 171.11065 
L 98.610667 171.306284 
L 98.822444 171.714831 
L 99.034222 171.608418 
L 99.245999 171.680866 
L 99.457776 172.079362 
L 99.881331 172.254726 
L 100.304885 171.923583 
L 100.516663 171.804612 
L 100.940217 172.303513 
L 101.151994 172.214474 
L 101.363772 171.669176 
L 101.999103 171.601442 
L 102.634435 172.7449 
L 103.05799 173.447958 
L 103.269767 173.354726 
L 103.693321 174.082009 
L 104.116876 174.478002 
L 104.328653 174.450607 
L 104.752208 174.023776 
L 104.963985 173.996828 
L 105.599317 174.227242 
L 105.811094 174.265044 
L 106.234649 174.830056 
L 106.446426 175.26657 
L 106.658203 175.236915 
L 107.293535 175.896561 
L 107.505312 176.349093 
L 107.928867 176.695129 
L 108.352421 177.099172 
L 108.564199 176.771285 
L 109.19953 176.549027 
L 109.411308 176.297763 
L 110.258417 176.99028 
L 110.893748 177.777045 
L 111.317303 178.178807 
L 111.952635 177.784442 
L 112.164412 177.86344 
L 112.376189 178.102627 
L 112.587967 178.063673 
L 113.011521 177.862942 
L 113.223298 178.006408 
L 113.646853 177.909496 
L 114.493962 179.005737 
L 114.705739 179.202723 
L 115.341071 178.645823 
L 116.18818 179.934286 
L 116.399957 180.290042 
L 116.611735 180.194386 
L 117.035289 180.603116 
L 117.247066 180.461127 
L 117.882398 180.691411 
L 118.094175 180.999267 
L 118.305953 181.029084 
L 118.941284 181.476156 
L 119.364839 182.103968 
L 120.000171 182.260126 
L 120.211948 182.445023 
L 120.423725 182.452931 
L 120.635503 182.586037 
L 121.270834 183.47356 
L 121.482612 183.397666 
L 122.329721 184.144934 
L 122.965052 184.898626 
L 123.17683 184.492528 
L 123.388607 184.568165 
L 124.447493 185.927686 
L 124.659271 185.846308 
L 125.082825 185.931995 
L 125.718157 185.915454 
L 125.929934 185.969213 
L 126.353489 186.349504 
L 126.565266 186.303594 
L 127.200598 187.145256 
L 127.412375 187.420102 
L 128.047707 187.638994 
L 128.471261 187.41388 
L 129.106593 187.208002 
L 129.31837 187.313747 
L 129.530148 187.283921 
L 129.953702 187.616217 
L 130.800811 188.596746 
L 131.224366 188.761088 
L 131.64792 189.209907 
L 132.071475 189.329227 
L 133.130361 188.826677 
L 133.97747 189.952842 
L 134.401025 190.167593 
L 134.612802 190.336511 
L 134.824579 190.811536 
L 135.036357 190.843942 
L 135.248134 190.568058 
L 135.459911 190.480181 
L 135.671688 190.554588 
L 136.30702 190.14793 
L 136.730575 190.152996 
L 137.154129 190.552084 
L 137.365906 190.740729 
L 138.001238 191.564848 
L 138.213015 191.604498 
L 138.848347 192.183441 
L 139.271902 192.300903 
L 139.483679 192.259776 
L 139.695456 192.521405 
L 139.907234 192.602208 
L 140.330788 192.317377 
L 140.542565 192.361061 
L 140.96612 193.003276 
L 141.177897 193.150473 
L 141.601452 193.220409 
L 142.025006 193.65209 
L 142.236783 193.756075 
L 142.872115 194.475278 
L 144.142779 194.539601 
L 144.354556 194.673355 
L 144.778111 195.097875 
L 145.201665 195.069382 
L 145.413442 194.926364 
L 145.62522 195.085645 
L 146.048774 195.753621 
L 146.260552 195.758807 
L 147.107661 196.661732 
L 147.531215 196.595044 
L 147.742992 196.380793 
L 147.95477 196.341346 
L 148.378324 196.624718 
L 149.013656 197.755321 
L 149.43721 197.779767 
L 149.860765 197.857121 
L 150.072542 197.623123 
L 151.554983 197.87102 
L 152.190315 198.471559 
L 152.402092 198.395586 
L 152.613869 198.46794 
L 152.825647 198.780277 
L 153.249201 198.853009 
L 153.672756 198.515485 
L 154.09631 198.717148 
L 154.308088 198.794458 
L 154.519865 199.041363 
L 154.943419 198.696105 
L 155.155197 199.000533 
L 155.366974 199.670826 
L 155.578751 199.716162 
L 156.42586 200.413783 
L 157.484746 200.143471 
L 158.120078 200.617876 
L 158.331856 200.901841 
L 158.75541 201.104026 
L 158.967187 201.282804 
L 159.178965 201.287175 
L 159.814296 200.62904 
L 160.237851 201.231311 
L 161.296737 201.955343 
L 161.508514 202.241788 
L 161.720292 202.160028 
L 161.932069 202.440782 
L 162.143846 202.486974 
L 162.567401 202.837228 
L 162.779178 202.784003 
L 162.990955 202.899152 
L 164.049842 202.718001 
L 164.473396 203.241177 
L 164.896951 203.378945 
L 165.108728 203.367366 
L 165.320505 203.500729 
L 165.74406 204.030546 
L 166.167614 204.196914 
L 166.379392 204.411581 
L 166.802946 205.074548 
L 167.014723 205.247509 
L 168.07361 205.133852 
L 168.920719 206.116554 
L 169.132496 206.166295 
L 169.767828 205.64465 
L 169.979605 205.64444 
L 170.40316 205.892957 
L 170.614937 205.795768 
L 170.826714 205.852718 
L 171.462046 206.62247 
L 171.8856 206.725745 
L 172.520932 206.465822 
L 172.732709 206.594967 
L 172.944487 206.517988 
L 173.156264 206.731867 
L 173.579819 207.322182 
L 174.003373 207.657085 
L 174.426928 207.723695 
L 175.062259 208.690284 
L 175.274037 208.641641 
L 176.332923 209.132261 
L 176.5447 209.137198 
L 177.180032 209.714594 
L 177.603587 210.417657 
L 178.027141 210.734011 
L 178.450696 210.612783 
L 178.662473 210.82399 
L 179.086027 210.789166 
L 179.297805 210.687368 
L 179.509582 210.740141 
L 180.144914 211.409132 
L 180.356691 211.537158 
L 180.780246 211.494948 
L 181.415577 211.604164 
L 181.839132 211.092825 
L 182.050909 211.061009 
L 182.262686 211.222278 
L 182.474464 211.222035 
L 182.686241 211.613307 
L 183.321573 211.740861 
L 183.53335 211.670827 
L 183.956904 211.240578 
L 184.168682 211.076586 
L 184.380459 211.108686 
L 184.804014 210.66918 
L 185.015791 210.675551 
L 185.227568 210.546017 
L 185.651123 210.719043 
L 186.074677 211.115543 
L 186.921786 212.444242 
L 187.345341 213.233269 
L 187.557118 213.175966 
L 187.768895 213.49738 
L 187.980672 214.241316 
L 188.19245 214.44333 
L 188.616004 214.157468 
L 188.827782 213.893886 
L 189.251336 213.855108 
L 189.674891 213.085211 
L 189.886668 211.95774 
L 190.098445 211.814651 
L 190.945554 213.765492 
L 191.157331 214.246385 
L 191.369109 214.031064 
L 191.580886 214.077329 
L 191.792663 213.892199 
L 192.216218 213.401066 
L 192.427995 213.398739 
L 192.639772 213.7516 
L 192.85155 213.82302 
L 193.275104 214.426781 
L 193.486881 214.56961 
L 193.698659 214.865458 
L 194.33399 214.679599 
L 194.757545 214.766996 
L 195.181099 214.487971 
L 195.604654 214.811882 
L 196.028209 215.354141 
L 196.451763 215.993985 
L 196.66354 215.974395 
L 197.087095 215.647287 
L 198.569536 216.53065 
L 198.781313 217.040877 
L 199.416645 217.697895 
L 199.840199 217.612304 
L 200.687308 218.97826 
L 200.899086 219.093279 
L 201.32264 219.731045 
L 201.534417 220.258052 
L 202.381526 220.612978 
L 202.805081 220.126009 
L 203.016858 220.317017 
L 203.65219 220.035073 
L 203.863967 219.898468 
L 204.287522 220.479456 
L 204.711076 220.42436 
L 206.405294 221.164351 
L 206.617072 221.563341 
L 207.040626 221.65923 
L 207.675958 222.542618 
L 207.887735 222.620826 
L 208.31129 223.056189 
L 208.734844 223.784064 
L 209.158399 224.322653 
L 209.370176 224.903376 
L 209.581953 224.887108 
L 209.793731 225.178093 
L 210.005508 225.662932 
L 210.429062 225.45784 
L 210.64084 225.612942 
L 211.064394 226.167653 
L 211.487949 225.731525 
L 211.699726 225.698602 
L 211.911503 225.784314 
L 212.758612 226.920985 
L 212.97039 226.723353 
L 213.182167 226.801306 
L 213.605721 226.637565 
L 213.817499 226.706685 
L 214.876385 227.705812 
L 215.29994 227.420238 
L 215.723494 227.22296 
L 215.935271 226.999823 
L 216.147049 227.016195 
L 216.994158 227.863405 
L 217.205935 227.741518 
L 217.629489 228.093929 
L 217.841267 228.000059 
L 218.264821 227.339733 
L 218.476598 227.699233 
L 218.900153 227.796355 
L 219.11193 228.198995 
L 219.747262 228.472966 
L 219.959039 228.799688 
L 220.170817 228.785672 
L 220.594371 229.141346 
L 221.017926 229.666321 
L 221.653257 229.49285 
L 221.865035 229.466385 
L 222.500366 230.472675 
L 222.712144 230.418039 
L 223.135698 230.643277 
L 223.559253 230.524216 
L 223.982807 229.949655 
L 224.194585 229.903119 
L 224.406362 230.17281 
L 224.618139 230.247839 
L 225.041694 231.166568 
L 225.677025 231.084116 
L 225.888803 231.184088 
L 226.312357 231.731622 
L 226.524134 231.92079 
L 226.947689 232.017047 
L 227.159466 232.194729 
L 227.371244 232.130605 
L 228.43013 233.092054 
L 228.853684 233.978449 
L 229.065462 234.259722 
L 229.912571 234.319945 
L 230.547903 234.935101 
L 230.971457 235.358798 
L 231.183234 235.755411 
L 231.395012 235.760826 
L 231.606789 235.91699 
L 232.453898 236.009888 
L 233.08923 236.860316 
L 233.301007 236.606689 
L 233.724561 236.935979 
L 234.148116 237.601663 
L 234.359893 237.528148 
L 234.783448 237.141868 
L 235.207002 237.266947 
L 235.41878 237.183637 
L 235.630557 236.832204 
L 235.842334 236.712511 
L 236.054111 237.106936 
L 236.265889 237.197945 
L 236.689443 237.740532 
L 237.324775 237.92952 
L 237.536552 237.934251 
L 237.748329 238.124782 
L 238.171884 237.993597 
L 238.383661 237.949053 
L 238.595439 237.640777 
L 238.807216 238.104129 
L 239.018993 238.298179 
L 239.442548 238.884809 
L 239.866102 239.069352 
L 240.289657 239.075193 
L 240.501434 238.926242 
L 240.713211 239.031965 
L 241.348543 239.767028 
L 241.772097 239.950414 
L 242.195652 239.592717 
L 242.619207 239.734341 
L 242.830984 239.409001 
L 243.466316 239.127719 
L 244.101647 239.834726 
L 244.525202 239.794867 
L 244.736979 240.147885 
L 245.160534 240.065273 
L 245.372311 240.179408 
L 246.21942 239.587176 
L 246.431197 239.706482 
L 246.854752 239.240214 
L 247.066529 239.598872 
L 247.278306 239.731906 
L 247.913638 240.629713 
L 248.337193 240.981899 
L 248.760747 241.32243 
L 249.184302 241.727816 
L 249.396079 241.742155 
L 249.819634 242.152745 
L 251.302074 243.465695 
L 251.513852 243.204983 
L 251.937406 243.259914 
L 252.149183 243.19002 
L 252.360961 243.354291 
L 252.572738 243.886384 
L 252.996292 244.040618 
L 253.20807 243.897071 
L 253.419847 243.911046 
L 254.055179 244.856434 
L 254.266956 244.846211 
L 254.478733 245.119389 
L 254.690511 245.140884 
L 255.325842 245.580834 
L 255.961174 245.69287 
L 256.384729 245.954577 
L 256.596506 245.693606 
L 256.808283 245.804892 
L 257.231838 246.16139 
L 257.655392 246.415206 
L 257.86717 246.204712 
L 258.078947 246.172612 
L 258.290724 246.361618 
L 258.926056 245.498068 
L 259.137833 245.527788 
L 259.561388 245.941146 
L 260.408497 246.254522 
L 260.832051 246.048295 
L 261.043829 246.024913 
L 261.255606 246.223562 
L 261.467383 246.255186 
L 261.67916 246.088243 
L 261.890938 246.129933 
L 262.314492 246.535279 
L 262.738047 245.986025 
L 264.00871 246.479475 
L 264.432265 246.384393 
L 265.279374 247.271413 
L 265.702928 247.321168 
L 266.33826 246.995029 
L 266.550037 246.683014 
L 266.761815 246.102056 
L 266.973592 245.975771 
L 267.185369 246.126669 
L 267.397146 246.500926 
L 267.608924 246.618166 
L 267.820701 246.539133 
L 268.032478 246.306673 
L 268.456033 246.12718 
L 268.879587 246.659948 
L 269.303142 247.008449 
L 270.150251 247.837301 
L 270.573805 248.329951 
L 270.785583 248.38032 
L 271.420914 248.148686 
L 272.479801 248.213087 
L 272.903355 247.868184 
L 273.115133 247.859091 
L 273.32691 247.674107 
L 274.174019 248.029626 
L 274.597573 247.210333 
L 274.809351 247.148469 
L 275.232905 247.448579 
L 275.444682 247.398025 
L 275.65646 247.201036 
L 276.080014 247.519478 
L 276.291791 247.346404 
L 276.927123 247.783939 
L 277.774232 248.560477 
L 278.197787 248.706879 
L 278.621341 248.696372 
L 278.833119 249.15752 
L 279.044896 248.87932 
L 279.892005 249.369916 
L 280.103782 249.338941 
L 280.527337 249.770488 
L 280.950891 249.222597 
L 281.162669 249.112763 
L 281.586223 248.444582 
L 281.798 248.167786 
L 282.009778 248.237155 
L 282.433332 247.915727 
L 282.856887 248.028093 
L 283.068664 248.000933 
L 283.280441 248.468681 
L 284.339328 249.182759 
L 284.762882 249.201547 
L 284.974659 249.470074 
L 285.186437 249.460546 
L 285.609991 249.781307 
L 285.821768 249.722231 
L 286.033546 249.839686 
L 286.245323 250.165541 
L 286.4571 250.017224 
L 286.880655 250.351863 
L 287.304209 250.837115 
L 288.363096 251.26041 
L 288.574873 251.455207 
L 288.998427 251.329273 
L 289.421982 251.512728 
L 289.633759 251.887276 
L 289.845536 251.978535 
L 290.480868 252.938682 
L 290.904423 253.005841 
L 291.1162 252.788877 
L 291.963309 253.134412 
L 292.175086 253.236912 
L 292.386864 253.018207 
L 292.810418 252.420727 
L 293.233973 253.189744 
L 293.44575 253.450925 
L 293.657527 254.013771 
L 294.081082 254.382858 
L 294.716413 254.391485 
L 295.139968 253.973657 
L 295.987077 254.393077 
L 296.410632 254.46502 
L 296.622409 254.55574 
L 296.834186 254.165918 
L 297.045963 254.074658 
L 297.257741 254.212925 
L 297.681295 254.054496 
L 297.893072 253.594052 
L 298.10485 252.797717 
L 298.528404 252.732215 
L 298.740181 253.52231 
L 299.375513 253.46279 
L 299.587291 253.651028 
L 300.010845 254.451021 
L 300.646177 254.460025 
L 301.493286 254.416533 
L 301.91684 255.348464 
L 302.128618 255.2033 
L 302.340395 255.210093 
L 302.552172 255.057846 
L 302.763949 254.726987 
L 303.399281 254.439204 
L 303.611059 254.587979 
L 303.822836 254.577785 
L 304.034613 254.740657 
L 304.458168 254.635613 
L 304.669945 254.640201 
L 305.093499 255.729412 
L 305.517054 255.936704 
L 306.152386 255.274811 
L 306.364163 255.128379 
L 306.787717 255.269119 
L 306.999495 255.511002 
L 307.211272 256.014564 
L 307.423049 255.892499 
L 307.634827 255.960168 
L 308.058381 256.236271 
L 308.270158 256.233016 
L 308.481936 255.798719 
L 308.693713 255.822143 
L 308.90549 256.131384 
L 309.117267 256.685686 
L 309.329045 256.588215 
L 309.540822 257.053827 
L 309.752599 257.197026 
L 310.176154 258.130954 
L 310.387931 258.12627 
L 311.023263 258.743002 
L 311.23504 258.77695 
L 311.446817 258.528285 
L 311.870372 258.871695 
L 312.505704 259.047754 
L 312.717481 258.875899 
L 313.141035 258.030026 
L 313.352813 258.090736 
L 313.56459 258.321008 
L 313.776367 258.8128 
L 313.988144 258.791267 
L 315.258808 259.909504 
L 315.470585 259.881319 
L 315.682363 259.618525 
L 316.317694 259.671611 
L 316.529472 259.122608 
L 316.741249 259.136339 
L 316.953026 258.96291 
L 317.164803 258.96154 
L 317.376581 258.496367 
L 317.800135 258.476684 
L 318.22369 258.762787 
L 318.647244 259.582091 
L 318.859022 259.582375 
L 319.282576 259.884584 
L 319.494353 260.007272 
L 319.706131 259.846073 
L 320.129685 260.24854 
L 320.55324 260.837009 
L 320.765017 260.638663 
L 320.976794 260.682663 
L 321.188571 261.066322 
L 321.400349 260.970765 
L 321.823903 261.383909 
L 322.247458 262.112859 
L 322.459235 262.072639 
L 322.671012 261.807738 
L 322.88279 261.806112 
L 323.094567 262.01516 
L 323.518121 261.647385 
L 323.729899 261.276635 
L 323.941676 262.04882 
L 325.212339 263.248849 
L 325.635894 263.034813 
L 325.847671 262.657444 
L 326.059448 262.643537 
L 326.906558 264.046257 
L 327.118335 263.699558 
L 327.330112 263.744812 
L 328.177221 264.404298 
L 328.388998 263.935054 
L 328.600776 264.237262 
L 329.02433 263.499967 
L 329.236107 263.453919 
L 329.871439 264.488369 
L 330.083217 264.731125 
L 330.294994 265.375762 
L 330.506771 265.299019 
L 330.930326 264.757772 
L 331.35388 264.721518 
L 331.565657 264.860072 
L 332.412766 266.129122 
L 332.624544 265.96457 
L 332.836321 266.075472 
L 333.68343 267.885764 
L 333.895207 267.621716 
L 334.106985 267.638098 
L 334.318762 267.428137 
L 334.530539 267.418114 
L 334.954094 266.96723 
L 335.589425 268.42523 
L 335.801203 268.314305 
L 336.224757 269.64565 
L 336.648312 270.030324 
L 336.860089 270.27175 
L 337.283643 270.12648 
L 337.495421 269.850804 
L 337.707198 269.998382 
L 337.918975 270.549748 
L 338.130753 270.698439 
L 338.766084 270.574876 
L 339.401416 271.728738 
L 339.824971 271.635482 
L 340.883857 272.738454 
L 341.095634 273.094542 
L 341.307411 273.147304 
L 341.730966 273.079637 
L 341.942743 273.304712 
L 342.154521 273.311887 
L 342.366298 273.202426 
L 342.789852 273.430213 
L 343.425184 273.531293 
L 343.636961 273.884172 
L 343.848739 273.949513 
L 344.060516 273.508169 
L 344.272293 273.608152 
L 344.48407 273.493242 
L 345.119402 274.584865 
L 345.33118 274.786065 
L 345.542957 275.226853 
L 345.966511 275.366174 
L 346.178289 275.27694 
L 346.390066 275.314344 
L 346.81362 275.773702 
L 347.448952 276.280709 
L 347.660729 276.36496 
L 348.296061 276.144027 
L 348.507838 276.787445 
L 349.566725 275.837491 
L 350.625611 276.032851 
L 350.837388 275.859582 
L 351.049166 275.85977 
L 351.260943 276.034301 
L 351.47272 275.968629 
L 352.108052 275.318713 
L 352.531606 275.46977 
L 352.743384 275.972204 
L 352.955161 275.909459 
L 353.166938 276.118866 
L 353.378716 276.518116 
L 353.590493 276.21249 
L 353.80227 276.125079 
L 354.014047 276.217508 
L 354.437602 277.073048 
L 354.649379 277.263108 
L 354.861156 276.866003 
L 355.072934 276.980753 
L 355.920043 278.606228 
L 356.13182 278.658838 
L 356.343597 278.493162 
L 356.555374 278.60126 
L 357.190706 279.340665 
L 357.402484 279.166451 
L 357.826038 279.839125 
L 358.037815 279.82161 
L 358.46137 280.152864 
L 358.673147 280.107242 
L 358.884924 280.266558 
L 359.308479 281.113992 
L 359.732033 280.898172 
L 360.579143 281.561799 
L 360.79092 281.979913 
L 361.002697 281.873619 
L 361.638029 282.278606 
L 361.849806 282.152713 
L 362.061583 282.219787 
L 362.273361 282.608295 
L 362.908692 282.753792 
L 363.12047 282.567016 
L 363.544024 282.478523 
L 363.967579 282.112012 
L 364.179356 282.268781 
L 364.391133 282.227984 
L 364.602911 281.968284 
L 364.814688 281.92808 
L 365.238242 282.11064 
L 365.661797 281.859216 
L 366.085351 281.523574 
L 366.508906 281.555583 
L 366.93246 281.58674 
L 367.144238 281.557209 
L 367.356015 281.69375 
L 367.567792 281.68116 
L 367.779569 282.129519 
L 367.991347 282.198459 
L 368.414901 282.700005 
L 369.050233 283.777391 
L 369.473788 283.859456 
L 369.685565 284.171233 
L 369.897342 284.236023 
L 370.109119 284.084663 
L 370.320897 284.08731 
L 370.532674 284.284957 
L 370.744451 284.322855 
L 370.956228 284.153621 
L 371.59156 284.540769 
L 371.803337 284.427505 
L 372.015115 284.468663 
L 372.438669 285.2371 
L 372.650447 285.446684 
L 373.074001 286.47594 
L 373.497556 286.811489 
L 373.709333 286.889998 
L 373.92111 286.837092 
L 374.556442 286.285541 
L 374.768219 286.195518 
L 374.979996 286.300994 
L 375.191774 286.13429 
L 376.038883 286.514898 
L 376.25066 286.455343 
L 376.674215 287.003584 
L 377.097769 287.021667 
L 377.521324 287.272935 
L 377.944878 287.029662 
L 378.368433 286.751996 
L 378.791987 286.717992 
L 379.003764 286.72129 
L 379.639096 286.40246 
L 379.850874 286.464604 
L 380.274428 287.208444 
L 381.545092 286.414176 
L 382.180423 287.146884 
L 382.392201 287.190815 
L 382.815755 286.487921 
L 383.23931 286.907308 
L 383.662864 286.980915 
L 383.874642 287.121458 
L 384.509973 286.482624 
L 384.721751 286.496514 
L 384.933528 286.692735 
L 385.357082 286.561673 
L 385.56886 286.594637 
L 385.992414 287.177443 
L 386.627746 287.72986 
L 386.839523 287.478804 
L 387.0513 287.432794 
L 387.89841 288.118389 
L 388.110187 288.317019 
L 388.321964 288.782757 
L 388.745519 288.661302 
L 389.169073 288.739951 
L 389.38085 288.980607 
L 389.592628 289.041282 
L 390.016182 289.554862 
L 390.227959 290.138641 
L 390.863291 290.481981 
L 391.075068 290.441433 
L 391.498623 290.80483 
L 391.7104 291.609938 
L 392.133955 291.89286 
L 392.557509 292.585326 
L 393.192841 292.667557 
L 393.828173 293.568734 
L 394.03995 293.637995 
L 394.251727 293.388993 
L 394.675282 293.16868 
L 395.098837 292.750838 
L 395.945946 292.894417 
L 396.3695 293.946375 
L 396.581277 293.778878 
L 398.487273 295.488 
L 398.487273 295.488 
" clip-path="url(#p302568dbad)" style="fill: none; stroke: #ff7f0e; stroke-opacity: 0.7; stroke-width: 1.5; stroke-linecap: square"/>
   </g>
   <g id="line2d_20">
    <path d="M 73.832727 164.874472 
L 74.256282 165.145834 
L 74.679836 165.697655 
L 75.103391 165.167304 
L 75.526945 164.525158 
L 75.738723 164.551665 
L 76.162277 164.402174 
L 76.585832 163.895257 
L 77.644718 165.052251 
L 77.856495 164.659153 
L 78.068273 164.615046 
L 78.703604 164.948929 
L 79.127159 164.461899 
L 79.338936 164.528969 
L 79.550713 164.310553 
L 79.762491 164.498676 
L 79.974268 164.486885 
L 80.186045 164.607746 
L 80.397822 165.072595 
L 80.6096 165.002066 
L 80.821377 164.576796 
L 81.033154 164.493096 
L 81.456709 164.559786 
L 81.668486 164.443922 
L 82.092041 164.447824 
L 82.303818 164.354934 
L 82.727372 164.7947 
L 82.93915 164.905435 
L 83.362704 164.716801 
L 83.574481 164.909121 
L 83.998036 164.958121 
L 84.209813 164.840363 
L 84.633368 164.215992 
L 84.845145 164.266085 
L 85.480477 163.689539 
L 85.692254 163.591195 
L 86.327586 162.68683 
L 86.75114 162.595209 
L 87.174695 162.08969 
L 87.386472 162.202205 
L 87.598249 162.48879 
L 87.810027 162.579284 
L 88.021804 162.227052 
L 88.445358 162.100699 
L 88.657136 161.949782 
L 89.292468 161.815309 
L 89.716022 161.665952 
L 90.139577 161.028882 
L 91.198463 161.768404 
L 91.622017 162.497626 
L 91.833795 162.712486 
L 92.469126 162.781881 
L 92.680904 162.106602 
L 92.892681 162.007121 
L 93.104458 162.174193 
L 93.528013 162.022072 
L 93.73979 162.138392 
L 94.163345 162.678968 
L 94.375122 162.635534 
L 94.586899 162.276778 
L 94.798676 162.21637 
L 95.010454 162.652023 
L 95.434008 162.776021 
L 95.857563 163.16022 
L 96.281117 163.871677 
L 96.492895 163.864192 
L 96.916449 163.551331 
L 97.128226 163.532254 
L 97.340004 163.724252 
L 97.975335 163.527083 
L 98.187113 163.894343 
L 98.822444 164.171943 
L 99.034222 163.848425 
L 99.245999 163.829911 
L 99.457776 164.030717 
L 99.881331 163.90348 
L 100.304885 163.422647 
L 100.516663 163.289707 
L 100.940217 163.553803 
L 101.151994 163.368461 
L 101.363772 162.783291 
L 101.999103 162.500271 
L 102.210881 162.678375 
L 102.846212 163.773845 
L 103.269767 163.721686 
L 104.116876 164.821935 
L 104.328653 164.827622 
L 104.752208 164.355937 
L 104.963985 164.24217 
L 105.38754 164.328384 
L 105.599317 164.104662 
L 106.022871 164.195183 
L 106.446426 164.703081 
L 106.658203 164.621635 
L 107.293535 164.879902 
L 107.505312 165.29658 
L 108.352421 165.51982 
L 108.564199 165.07504 
L 109.623085 164.406523 
L 109.834862 164.528745 
L 110.258417 164.542684 
L 110.893748 165.097696 
L 111.317303 165.263019 
L 111.740857 164.733797 
L 112.376189 164.699958 
L 113.011521 164.24675 
L 113.223298 164.231518 
L 113.646853 163.920537 
L 114.070407 164.257136 
L 114.705739 164.734297 
L 115.129294 164.339367 
L 115.341071 163.960682 
L 115.764626 164.253085 
L 115.976403 164.372701 
L 116.399957 165.133016 
L 116.823512 165.046892 
L 117.035289 165.125319 
L 117.247066 164.859369 
L 117.670621 164.639287 
L 118.094175 165.003167 
L 118.51773 164.918113 
L 118.941284 164.905284 
L 119.576616 165.274671 
L 119.788394 165.113075 
L 120.211948 165.235511 
L 120.423725 165.061495 
L 120.84728 165.300652 
L 121.059057 165.459894 
L 121.270834 165.772218 
L 121.482612 165.599277 
L 121.906166 165.736038 
L 122.117943 165.575376 
L 122.753275 166.175397 
L 122.965052 166.203305 
L 123.17683 165.670315 
L 123.600384 165.871799 
L 123.812162 166.16794 
L 124.023939 166.201527 
L 124.235716 166.516466 
L 124.447493 166.574325 
L 124.659271 166.362523 
L 124.871048 166.340989 
L 125.718157 165.9128 
L 125.929934 165.865238 
L 126.353489 166.086745 
L 126.565266 165.935858 
L 127.412375 166.820609 
L 127.83593 166.825736 
L 128.259484 166.56557 
L 128.683039 166.16914 
L 129.530148 165.841721 
L 129.953702 165.902243 
L 131.012589 166.507647 
L 131.436143 166.825058 
L 131.64792 166.960131 
L 132.283252 166.68883 
L 133.130361 166.013365 
L 133.553916 166.297755 
L 133.765693 166.562436 
L 134.612802 166.78348 
L 134.824579 167.248603 
L 135.036357 167.244929 
L 135.248134 166.887184 
L 135.883466 166.523549 
L 136.30702 166.302027 
L 136.730575 166.23172 
L 136.942352 166.465903 
L 137.365906 166.502136 
L 138.001238 166.966067 
L 138.213015 166.947929 
L 138.848347 167.206226 
L 139.060125 167.209029 
L 139.483679 166.983849 
L 139.695456 167.064104 
L 139.907234 166.994378 
L 140.330788 166.548534 
L 140.542565 166.519255 
L 141.177897 166.970795 
L 141.601452 166.82753 
L 142.025006 167.001036 
L 142.236783 166.988144 
L 142.872115 167.434191 
L 143.931002 166.894492 
L 144.354556 166.948407 
L 144.778111 167.196661 
L 145.413442 166.785319 
L 145.62522 166.897451 
L 146.048774 167.390948 
L 146.260552 167.365973 
L 146.472329 167.490759 
L 146.895883 167.94597 
L 147.319438 168.146302 
L 147.531215 168.020183 
L 147.742992 167.727318 
L 148.166547 167.581136 
L 148.378324 167.666979 
L 149.225433 168.67038 
L 149.860765 168.498079 
L 150.072542 168.169665 
L 150.707874 168.028157 
L 151.131429 167.714334 
L 151.343206 167.635067 
L 151.978538 167.983816 
L 152.190315 168.03796 
L 152.402092 167.839405 
L 152.613869 167.836515 
L 152.825647 167.976146 
L 153.249201 167.858602 
L 153.672756 167.435497 
L 154.09631 167.42446 
L 154.308088 167.439436 
L 154.519865 167.581891 
L 154.943419 167.191556 
L 155.155197 167.322933 
L 155.366974 167.853561 
L 156.214083 167.851818 
L 156.42586 167.958112 
L 157.484746 167.370577 
L 158.543633 167.778465 
L 159.178965 167.681338 
L 159.602519 167.102002 
L 159.814296 166.985666 
L 160.026074 167.256297 
L 160.873183 167.573597 
L 161.08496 167.504288 
L 161.508514 167.828273 
L 161.720292 167.69973 
L 161.932069 167.887757 
L 162.143846 167.788851 
L 162.355624 167.873003 
L 163.202733 167.522044 
L 163.626287 167.315844 
L 164.049842 167.156571 
L 164.685173 167.528487 
L 165.320505 167.446292 
L 165.955837 167.943356 
L 166.167614 168.026018 
L 166.591169 168.566999 
L 167.014723 169.139074 
L 168.07361 168.634254 
L 168.497164 168.970045 
L 169.132496 169.371626 
L 169.556051 168.973963 
L 169.767828 168.734642 
L 169.979605 168.668155 
L 170.40316 168.743136 
L 170.614937 168.624827 
L 170.826714 168.657683 
L 171.462046 169.148248 
L 171.8856 169.118831 
L 172.309155 168.759718 
L 172.944487 168.590228 
L 173.156264 168.681241 
L 173.579819 169.126585 
L 174.003373 169.243257 
L 174.426928 169.17206 
L 174.850482 169.488204 
L 175.062259 169.824798 
L 175.485814 169.810885 
L 175.697591 169.881475 
L 176.756477 169.602847 
L 177.180032 169.769824 
L 177.603587 170.351935 
L 178.238918 170.730739 
L 178.450696 170.636532 
L 178.662473 170.734462 
L 179.509582 170.322708 
L 180.144914 170.616047 
L 180.356691 170.643792 
L 180.780246 170.405187 
L 181.415577 170.216562 
L 181.839132 169.758413 
L 182.262686 169.753314 
L 182.474464 169.73163 
L 182.686241 170.042435 
L 183.109795 170.038934 
L 184.804014 168.615211 
L 185.651123 168.426021 
L 186.074677 168.710217 
L 186.921786 169.867815 
L 187.133563 170.330827 
L 187.345341 170.508032 
L 187.557118 170.470944 
L 187.768895 170.707231 
L 187.980672 171.40788 
L 188.19245 171.622757 
L 188.404227 171.514504 
L 189.039559 170.771848 
L 189.251336 170.770724 
L 189.674891 169.950334 
L 189.886668 168.782896 
L 190.098445 168.707185 
L 190.733777 169.533861 
L 191.157331 170.646774 
L 191.369109 170.373051 
L 191.580886 170.31637 
L 192.427995 169.309576 
L 192.639772 169.632944 
L 192.85155 169.601051 
L 193.275104 169.945977 
L 193.486881 169.972266 
L 193.698659 170.182806 
L 194.33399 169.767511 
L 194.757545 169.702033 
L 195.181099 169.305288 
L 195.816431 169.587118 
L 196.451763 170.356804 
L 196.66354 170.30913 
L 197.087095 169.818037 
L 197.510649 169.971832 
L 197.722427 169.927633 
L 198.145981 170.025844 
L 198.569536 169.974466 
L 198.99309 170.573194 
L 199.204867 170.903405 
L 199.416645 170.906235 
L 199.840199 170.633437 
L 201.746195 173.022297 
L 202.169749 172.961802 
L 202.381526 173.050301 
L 202.805081 172.594894 
L 203.016858 172.771164 
L 203.863967 172.017435 
L 204.287522 172.461781 
L 204.922854 172.172283 
L 205.769963 172.231052 
L 205.98174 172.135194 
L 206.193517 172.328126 
L 206.405294 172.311785 
L 206.617072 172.550779 
L 207.040626 172.531174 
L 207.252403 172.670052 
L 207.675958 173.199186 
L 208.099513 173.379985 
L 208.734844 174.103974 
L 209.158399 174.525791 
L 209.370176 175.114092 
L 209.581953 175.160376 
L 209.793731 175.344762 
L 210.005508 175.84731 
L 210.429062 175.622815 
L 210.64084 175.720542 
L 211.064394 176.064221 
L 211.699726 175.532703 
L 212.335058 175.916785 
L 212.546835 176.072782 
L 212.758612 176.39772 
L 212.97039 176.094576 
L 213.182167 176.112877 
L 213.605721 175.745522 
L 214.241053 175.816105 
L 214.664608 176.222759 
L 214.876385 176.202929 
L 215.29994 175.767187 
L 215.723494 175.512316 
L 215.935271 175.23498 
L 216.147049 175.231329 
L 216.994158 175.70748 
L 217.205935 175.499493 
L 217.629489 175.626477 
L 218.053044 175.017777 
L 218.264821 174.723064 
L 218.476598 174.882005 
L 218.900153 174.833956 
L 219.11193 175.136893 
L 219.535485 175.207401 
L 219.747262 175.130279 
L 219.959039 175.345832 
L 220.170817 175.26917 
L 221.017926 175.637778 
L 221.653257 175.19409 
L 221.865035 175.12123 
L 222.500366 175.832447 
L 222.712144 175.768957 
L 222.923921 175.843844 
L 223.559253 175.405863 
L 223.982807 174.788631 
L 224.194585 174.695896 
L 224.406362 175.010104 
L 224.618139 175.00429 
L 225.041694 175.657022 
L 225.677025 175.280419 
L 225.888803 175.295907 
L 226.312357 175.618765 
L 226.524134 175.685312 
L 226.947689 175.584901 
L 227.159466 175.622595 
L 227.371244 175.472859 
L 228.43013 176.175466 
L 228.853684 176.928274 
L 229.065462 177.091409 
L 229.912571 176.772678 
L 230.336125 177.009711 
L 230.75968 177.192508 
L 231.183234 177.76098 
L 232.030343 177.528601 
L 232.453898 177.430114 
L 232.877452 177.735982 
L 233.08923 177.994137 
L 233.301007 177.673303 
L 234.359893 178.135612 
L 234.783448 177.589763 
L 234.995225 177.678949 
L 235.41878 177.428725 
L 235.630557 177.054889 
L 235.842334 176.931862 
L 236.054111 177.158962 
L 236.265889 177.172147 
L 236.689443 177.466667 
L 237.324775 177.332888 
L 237.960107 177.117902 
L 238.595439 176.499968 
L 238.807216 176.796381 
L 239.018993 176.866523 
L 239.23077 177.195868 
L 239.654325 177.380779 
L 240.077879 177.350244 
L 240.289657 177.264286 
L 240.501434 177.032215 
L 240.924988 177.24485 
L 241.348543 177.533922 
L 241.772097 177.569673 
L 242.195652 177.044268 
L 242.619207 176.987535 
L 243.042761 176.408189 
L 243.254538 176.159491 
L 243.466316 176.108697 
L 244.101647 176.523344 
L 244.525202 176.262675 
L 244.736979 176.533994 
L 245.160534 176.25088 
L 245.372311 176.318907 
L 245.795866 175.806558 
L 246.854752 175.046606 
L 247.066529 175.26691 
L 247.278306 175.32481 
L 248.337193 176.133769 
L 248.54897 176.137453 
L 249.184302 176.582592 
L 249.396079 176.506963 
L 249.819634 176.803265 
L 250.454965 176.94632 
L 251.302074 177.409395 
L 251.513852 177.024981 
L 251.725629 177.030655 
L 252.149183 176.748329 
L 252.360961 176.885307 
L 252.572738 177.294971 
L 252.996292 177.304865 
L 253.20807 177.038926 
L 253.419847 176.965567 
L 254.055179 177.532142 
L 254.266956 177.474811 
L 254.478733 177.62445 
L 254.690511 177.547236 
L 255.325842 177.678794 
L 255.961174 177.569449 
L 256.384729 177.545498 
L 256.596506 177.201851 
L 257.655392 177.327611 
L 257.86717 177.034486 
L 258.290724 176.989269 
L 258.926056 175.882542 
L 260.408497 176.023437 
L 260.832051 175.669461 
L 261.043829 175.599017 
L 261.255606 175.695925 
L 261.467383 175.629433 
L 261.67916 175.413725 
L 261.890938 175.454716 
L 262.314492 175.71704 
L 262.738047 175.257539 
L 263.161601 175.207253 
L 263.585156 175.142662 
L 264.220487 174.983427 
L 264.432265 175.010982 
L 265.279374 175.672395 
L 265.702928 175.546574 
L 266.126483 175.331521 
L 266.761815 174.343927 
L 266.973592 174.238641 
L 267.185369 174.27229 
L 267.397146 174.48606 
L 267.608924 174.531093 
L 268.244255 173.949146 
L 268.456033 173.841662 
L 268.879587 174.186191 
L 269.303142 174.389774 
L 269.938474 174.736475 
L 270.573805 175.307535 
L 270.785583 175.348146 
L 271.420914 174.918209 
L 272.691578 174.430543 
L 273.32691 174.007762 
L 273.750464 174.090331 
L 274.174019 173.940278 
L 274.597573 173.182125 
L 274.809351 173.134345 
L 275.232905 173.18545 
L 275.65646 172.847726 
L 276.080014 172.962582 
L 276.291791 172.825444 
L 277.350678 173.404888 
L 277.562455 173.605234 
L 278.197787 173.501016 
L 278.621341 173.322591 
L 278.833119 173.649649 
L 279.044896 173.293582 
L 279.256673 173.359791 
L 279.46845 173.29739 
L 279.680228 173.432854 
L 280.103782 173.185049 
L 280.527337 173.34093 
L 280.950891 172.684465 
L 281.162669 172.538117 
L 281.586223 171.866012 
L 281.798 171.652513 
L 282.009778 171.739749 
L 282.433332 171.267897 
L 282.856887 171.130985 
L 283.068664 171.052088 
L 283.280441 171.404795 
L 284.12755 171.712559 
L 284.762882 171.564268 
L 284.974659 171.769647 
L 285.186437 171.703637 
L 285.398214 171.778848 
L 286.033546 171.583743 
L 286.245323 171.805994 
L 286.4571 171.598911 
L 287.092432 171.846119 
L 287.727764 172.033694 
L 288.363096 172.141762 
L 288.574873 172.247943 
L 288.998427 171.981335 
L 289.421982 171.971694 
L 289.633759 172.182839 
L 289.845536 172.174588 
L 290.057314 172.311429 
L 290.480868 172.852603 
L 290.904423 172.781475 
L 291.1162 172.455291 
L 292.175086 172.305681 
L 292.810418 171.412317 
L 293.233973 171.95383 
L 293.44575 172.124168 
L 293.657527 172.657393 
L 294.081082 172.94685 
L 294.928191 172.481032 
L 295.139968 172.175931 
L 295.7753 172.360504 
L 296.198854 172.085972 
L 296.622409 172.042188 
L 296.834186 171.570132 
L 297.045963 171.435594 
L 297.257741 171.491921 
L 297.893072 170.721994 
L 298.10485 169.912101 
L 298.528404 169.774302 
L 298.740181 170.429947 
L 298.951959 170.313886 
L 299.163736 170.037817 
L 299.587291 170.127705 
L 300.010845 170.723252 
L 301.493286 170.152549 
L 301.91684 170.893759 
L 303.187504 169.666916 
L 303.822836 169.559432 
L 304.034613 169.690847 
L 304.669945 169.303766 
L 305.093499 169.862935 
L 305.517054 169.880311 
L 306.152386 168.87771 
L 306.364163 168.641663 
L 306.999495 168.803809 
L 307.211272 169.211514 
L 307.634827 168.959714 
L 307.846604 169.052551 
L 308.270158 168.894919 
L 308.481936 168.369876 
L 308.693713 168.344174 
L 308.90549 168.492142 
L 309.117267 168.929507 
L 309.329045 168.789514 
L 309.540822 169.133348 
L 309.752599 169.230672 
L 310.176154 170.034599 
L 310.387931 169.979398 
L 311.23504 170.375843 
L 311.446817 170.034141 
L 311.658595 170.258464 
L 312.505704 170.098965 
L 312.717481 169.821369 
L 313.141035 168.887326 
L 313.352813 168.886701 
L 313.56459 169.001199 
L 313.776367 169.377464 
L 313.988144 169.261186 
L 315.258808 169.711657 
L 315.470585 169.577775 
L 315.682363 169.233488 
L 316.105917 169.113744 
L 316.317694 169.038147 
L 316.529472 168.426284 
L 317.800135 167.361408 
L 318.011912 167.397683 
L 318.435467 167.839215 
L 318.647244 168.257607 
L 318.859022 168.210371 
L 319.282576 168.306899 
L 319.494353 168.335142 
L 319.706131 168.091529 
L 319.917908 168.299463 
L 320.341462 168.382456 
L 320.55324 168.672688 
L 320.765017 168.433054 
L 320.976794 168.381659 
L 321.188571 168.655765 
L 321.400349 168.489981 
L 321.823903 168.608666 
L 322.247458 169.124981 
L 322.459235 169.037834 
L 322.671012 168.662646 
L 322.88279 168.602678 
L 323.094567 168.677266 
L 323.518121 168.133303 
L 323.729899 167.704587 
L 323.941676 168.063786 
L 325.000562 168.519701 
L 325.212339 168.647697 
L 326.059448 167.898459 
L 326.906558 168.99774 
L 327.118335 168.602813 
L 327.541889 168.578219 
L 327.965444 168.821681 
L 328.177221 168.625165 
L 328.388998 168.06696 
L 328.600776 168.162781 
L 329.02433 167.257573 
L 329.236107 167.111156 
L 329.871439 167.94169 
L 330.083217 168.055337 
L 330.294994 168.63832 
L 330.506771 168.491045 
L 330.930326 167.759106 
L 331.35388 167.575933 
L 331.565657 167.640466 
L 331.777435 167.876417 
L 331.989212 167.942186 
L 332.412766 168.533517 
L 332.624544 168.248776 
L 332.836321 168.24855 
L 333.471653 169.067406 
L 333.68343 169.648285 
L 333.895207 169.359284 
L 334.106985 169.267492 
L 334.318762 168.965309 
L 334.530539 168.86903 
L 334.954094 168.292696 
L 335.377648 169.234785 
L 335.589425 169.554683 
L 335.801203 169.465469 
L 336.436534 170.874174 
L 336.648312 170.980435 
L 336.860089 171.21989 
L 337.283643 170.969631 
L 337.495421 170.600747 
L 337.707198 170.708083 
L 337.918975 171.138301 
L 338.130753 171.297616 
L 338.766084 170.843618 
L 339.401416 171.896843 
L 340.036748 171.788019 
L 340.460302 172.045473 
L 340.67208 172.051377 
L 341.307411 172.999776 
L 341.519189 172.774915 
L 342.578075 172.748763 
L 342.789852 172.806257 
L 343.425184 172.647446 
L 343.636961 172.993853 
L 343.848739 172.901784 
L 344.060516 172.368839 
L 344.272293 172.443994 
L 344.48407 172.156123 
L 344.907625 172.860641 
L 345.119402 172.95859 
L 345.754734 173.792793 
L 345.966511 173.759836 
L 346.390066 173.510565 
L 346.81362 173.741956 
L 347.448952 174.286265 
L 347.660729 174.703642 
L 348.296061 174.318179 
L 348.507838 174.874455 
L 348.719616 174.781497 
L 349.14317 174.074718 
L 349.566725 173.827388 
L 349.778502 173.855494 
L 349.990279 173.714292 
L 350.625611 173.717236 
L 350.837388 173.50082 
L 351.47272 173.403508 
L 352.108052 172.691504 
L 352.531606 172.738211 
L 352.743384 173.066181 
L 352.955161 172.939408 
L 353.166938 173.005671 
L 353.378716 173.229854 
L 353.590493 172.86298 
L 353.80227 172.73218 
L 354.014047 172.75604 
L 354.437602 173.371908 
L 354.649379 173.505818 
L 354.861156 173.046727 
L 355.072934 173.073235 
L 355.708265 173.749387 
L 355.920043 174.213226 
L 356.13182 174.242762 
L 356.343597 173.975061 
L 356.555374 173.996598 
L 357.190706 174.402084 
L 357.402484 174.194323 
L 357.826038 174.752407 
L 358.884924 174.61559 
L 359.308479 175.356704 
L 359.520256 175.234063 
L 359.732033 174.961306 
L 359.943811 175.054231 
L 360.367365 175.022836 
L 360.579143 175.15547 
L 360.79092 175.460004 
L 361.002697 175.356264 
L 361.214474 175.47362 
L 361.638029 175.35752 
L 361.849806 175.136237 
L 362.061583 175.159259 
L 362.273361 175.420526 
L 362.696915 175.38223 
L 362.908692 175.273219 
L 363.12047 175.039152 
L 363.332247 174.977693 
L 363.967579 174.36539 
L 364.179356 174.378786 
L 364.391133 174.258344 
L 364.602911 173.93296 
L 365.238242 173.855457 
L 366.297129 173.151627 
L 367.567792 172.904833 
L 367.779569 173.238281 
L 368.414901 173.460216 
L 369.050233 174.422833 
L 369.473788 174.253661 
L 369.685565 174.451326 
L 369.897342 174.458957 
L 370.109119 174.20551 
L 370.320897 174.129073 
L 370.532674 174.258918 
L 370.744451 174.172191 
L 370.956228 173.91758 
L 371.59156 173.953696 
L 371.803337 173.76138 
L 372.015115 173.757102 
L 372.438669 174.345311 
L 372.650447 174.524885 
L 373.074001 175.65706 
L 373.497556 175.580048 
L 373.709333 175.686653 
L 373.92111 175.532786 
L 374.556442 174.7558 
L 374.768219 174.604598 
L 374.979996 174.654549 
L 375.191774 174.361906 
L 375.403551 174.412918 
L 375.615328 174.327639 
L 375.827105 174.371914 
L 376.25066 174.114571 
L 376.674215 174.390125 
L 377.097769 174.263796 
L 377.521324 174.311248 
L 377.944878 173.949488 
L 378.368433 173.623597 
L 379.427319 173.181731 
L 379.639096 173.020556 
L 379.850874 173.016948 
L 380.274428 173.586286 
L 381.333314 172.708911 
L 381.545092 172.485649 
L 382.392201 172.845748 
L 382.815755 172.20859 
L 383.23931 172.323821 
L 383.662864 172.205919 
L 383.874642 172.24778 
L 384.509973 171.459177 
L 384.933528 171.55349 
L 385.357082 171.217178 
L 385.56886 171.21135 
L 386.627746 172.059692 
L 387.0513 171.671546 
L 388.110187 171.958727 
L 388.321964 172.32712 
L 388.957296 171.964796 
L 389.169073 171.936212 
L 389.38085 172.115904 
L 389.804405 172.096424 
L 390.016182 172.218632 
L 390.227959 172.738807 
L 390.439737 172.853534 
L 391.286846 172.644057 
L 391.498623 172.694947 
L 391.7104 173.425597 
L 392.345732 173.692508 
L 392.557509 173.922141 
L 392.769287 173.940256 
L 392.981064 173.788346 
L 393.192841 173.787219 
L 393.616396 174.1295 
L 393.828173 174.449714 
L 394.03995 174.471797 
L 394.251727 174.119657 
L 394.675282 173.748266 
L 395.098837 173.24885 
L 395.522391 173.261187 
L 395.734168 173.181585 
L 395.945946 173.280997 
L 396.3695 174.170566 
L 396.581277 173.957209 
L 397.428386 174.259731 
L 397.851941 174.58166 
L 398.063718 174.605635 
L 398.275495 174.949413 
L 398.487273 174.965613 
L 398.487273 174.965613 
" clip-path="url(#p302568dbad)" style="fill: none; stroke: #2ca02c; stroke-opacity: 0.7; stroke-width: 1.5; stroke-linecap: square"/>
   </g>
   <g id="patch_3">
    <path d="M 57.6 307.584 
L 57.6 41.472 
" style="fill: none; stroke: #000000; stroke-width: 0.8; stroke-linejoin: miter; stroke-linecap: square"/>
   </g>
   <g id="patch_4">
    <path d="M 414.72 307.584 
L 414.72 41.472 
" style="fill: none; stroke: #000000; stroke-width: 0.8; stroke-linejoin: miter; stroke-linecap: square"/>
   </g>
   <g id="patch_5">
    <path d="M 57.6 307.584 
L 414.72 307.584 
" style="fill: none; stroke: #000000; stroke-width: 0.8; stroke-linejoin: miter; stroke-linecap: square"/>
   </g>
   <g id="patch_6">
    <path d="M 57.6 41.472 
L 414.72 41.472 
" style="fill: none; stroke: #000000; stroke-width: 0.8; stroke-linejoin: miter; stroke-linecap: square"/>
   </g>
   <g id="text_18">
    <!-- isomorphism_eurusd -->
    <g transform="translate(173.7675 35.472) scale(0.12 -0.12)">
     <defs>
      <path id="DejaVuSans-69" d="M 603 3500 
L 1178 3500 
L 1178 0 
L 603 0 
L 603 3500 
z
M 603 4863 
L 1178 4863 
L 1178 4134 
L 603 4134 
L 603 4863 
z
" transform="scale(0.015625)"/>
      <path id="DejaVuSans-73" d="M 2834 3397 
L 2834 2853 
Q 2591 2978 2328 3040 
Q 2066 3103 1784 3103 
Q 1356 3103 1142 2972 
Q 928 2841 928 2578 
Q 928 2378 1081 2264 
Q 1234 2150 1697 2047 
L 1894 2003 
Q 2506 1872 2764 1633 
Q 3022 1394 3022 966 
Q 3022 478 2636 193 
Q 2250 -91 1575 -91 
Q 1294 -91 989 -36 
Q 684 19 347 128 
L 347 722 
Q 666 556 975 473 
Q 1284 391 1588 391 
Q 1994 391 2212 530 
Q 2431 669 2431 922 
Q 2431 1156 2273 1281 
Q 2116 1406 1581 1522 
L 1381 1569 
Q 847 1681 609 1914 
Q 372 2147 372 2553 
Q 372 3047 722 3315 
Q 1072 3584 1716 3584 
Q 2034 3584 2315 3537 
Q 2597 3491 2834 3397 
z
" transform="scale(0.015625)"/>
      <path id="DejaVuSans-6f" d="M 1959 3097 
Q 1497 3097 1228 2736 
Q 959 2375 959 1747 
Q 959 1119 1226 758 
Q 1494 397 1959 397 
Q 2419 397 2687 759 
Q 2956 1122 2956 1747 
Q 2956 2369 2687 2733 
Q 2419 3097 1959 3097 
z
M 1959 3584 
Q 2709 3584 3137 3096 
Q 3566 2609 3566 1747 
Q 3566 888 3137 398 
Q 2709 -91 1959 -91 
Q 1206 -91 779 398 
Q 353 888 353 1747 
Q 353 2609 779 3096 
Q 1206 3584 1959 3584 
z
" transform="scale(0.015625)"/>
      <path id="DejaVuSans-6d" d="M 3328 2828 
Q 3544 3216 3844 3400 
Q 4144 3584 4550 3584 
Q 5097 3584 5394 3201 
Q 5691 2819 5691 2113 
L 5691 0 
L 5113 0 
L 5113 2094 
Q 5113 2597 4934 2840 
Q 4756 3084 4391 3084 
Q 3944 3084 3684 2787 
Q 3425 2491 3425 1978 
L 3425 0 
L 2847 0 
L 2847 2094 
Q 2847 2600 2669 2842 
Q 2491 3084 2119 3084 
Q 1678 3084 1418 2786 
Q 1159 2488 1159 1978 
L 1159 0 
L 581 0 
L 581 3500 
L 1159 3500 
L 1159 2956 
Q 1356 3278 1631 3431 
Q 1906 3584 2284 3584 
Q 2666 3584 2933 3390 
Q 3200 3197 3328 2828 
z
" transform="scale(0.015625)"/>
      <path id="DejaVuSans-72" d="M 2631 2963 
Q 2534 3019 2420 3045 
Q 2306 3072 2169 3072 
Q 1681 3072 1420 2755 
Q 1159 2438 1159 1844 
L 1159 0 
L 581 0 
L 581 3500 
L 1159 3500 
L 1159 2956 
Q 1341 3275 1631 3429 
Q 1922 3584 2338 3584 
Q 2397 3584 2469 3576 
Q 2541 3569 2628 3553 
L 2631 2963 
z
" transform="scale(0.015625)"/>
      <path id="DejaVuSans-70" d="M 1159 525 
L 1159 -1331 
L 581 -1331 
L 581 3500 
L 1159 3500 
L 1159 2969 
Q 1341 3281 1617 3432 
Q 1894 3584 2278 3584 
Q 2916 3584 3314 3078 
Q 3713 2572 3713 1747 
Q 3713 922 3314 415 
Q 2916 -91 2278 -91 
Q 1894 -91 1617 61 
Q 1341 213 1159 525 
z
M 3116 1747 
Q 3116 2381 2855 2742 
Q 2594 3103 2138 3103 
Q 1681 3103 1420 2742 
Q 1159 2381 1159 1747 
Q 1159 1113 1420 752 
Q 1681 391 2138 391 
Q 2594 391 2855 752 
Q 3116 1113 3116 1747 
z
" transform="scale(0.015625)"/>
      <path id="DejaVuSans-68" d="M 3513 2113 
L 3513 0 
L 2938 0 
L 2938 2094 
Q 2938 2591 2744 2837 
Q 2550 3084 2163 3084 
Q 1697 3084 1428 2787 
Q 1159 2491 1159 1978 
L 1159 0 
L 581 0 
L 581 4863 
L 1159 4863 
L 1159 2956 
Q 1366 3272 1645 3428 
Q 1925 3584 2291 3584 
Q 2894 3584 3203 3211 
Q 3513 2838 3513 2113 
z
" transform="scale(0.015625)"/>
      <path id="DejaVuSans-5f" d="M 3263 -1063 
L 3263 -1509 
L -63 -1509 
L -63 -1063 
L 3263 -1063 
z
" transform="scale(0.015625)"/>
      <path id="DejaVuSans-65" d="M 3597 1894 
L 3597 1613 
L 953 1613 
Q 991 1019 1311 708 
Q 1631 397 2203 397 
Q 2534 397 2845 478 
Q 3156 559 3463 722 
L 3463 178 
Q 3153 47 2828 -22 
Q 2503 -91 2169 -91 
Q 1331 -91 842 396 
Q 353 884 353 1716 
Q 353 2575 817 3079 
Q 1281 3584 2069 3584 
Q 2775 3584 3186 3129 
Q 3597 2675 3597 1894 
z
M 3022 2063 
Q 3016 2534 2758 2815 
Q 2500 3097 2075 3097 
Q 1594 3097 1305 2825 
Q 1016 2553 972 2059 
L 3022 2063 
z
" transform="scale(0.015625)"/>
      <path id="DejaVuSans-75" d="M 544 1381 
L 544 3500 
L 1119 3500 
L 1119 1403 
Q 1119 906 1312 657 
Q 1506 409 1894 409 
Q 2359 409 2629 706 
Q 2900 1003 2900 1516 
L 2900 3500 
L 3475 3500 
L 3475 0 
L 2900 0 
L 2900 538 
Q 2691 219 2414 64 
Q 2138 -91 1772 -91 
Q 1169 -91 856 284 
Q 544 659 544 1381 
z
M 1991 3584 
L 1991 3584 
z
" transform="scale(0.015625)"/>
      <path id="DejaVuSans-64" d="M 2906 2969 
L 2906 4863 
L 3481 4863 
L 3481 0 
L 2906 0 
L 2906 525 
Q 2725 213 2448 61 
Q 2172 -91 1784 -91 
Q 1150 -91 751 415 
Q 353 922 353 1747 
Q 353 2572 751 3078 
Q 1150 3584 1784 3584 
Q 2172 3584 2448 3432 
Q 2725 3281 2906 2969 
z
M 947 1747 
Q 947 1113 1208 752 
Q 1469 391 1925 391 
Q 2381 391 2643 752 
Q 2906 1113 2906 1747 
Q 2906 2381 2643 2742 
Q 2381 3103 1925 3103 
Q 1469 3103 1208 2742 
Q 947 2381 947 1747 
z
" transform="scale(0.015625)"/>
     </defs>
     <use xlink:href="#DejaVuSans-69"/>
     <use xlink:href="#DejaVuSans-73" x="27.783203"/>
     <use xlink:href="#DejaVuSans-6f" x="79.882812"/>
     <use xlink:href="#DejaVuSans-6d" x="141.064453"/>
     <use xlink:href="#DejaVuSans-6f" x="238.476562"/>
     <use xlink:href="#DejaVuSans-72" x="299.658203"/>
     <use xlink:href="#DejaVuSans-70" x="340.771484"/>
     <use xlink:href="#DejaVuSans-68" x="404.248047"/>
     <use xlink:href="#DejaVuSans-69" x="467.626953"/>
     <use xlink:href="#DejaVuSans-73" x="495.410156"/>
     <use xlink:href="#DejaVuSans-6d" x="547.509766"/>
     <use xlink:href="#DejaVuSans-5f" x="644.921875"/>
     <use xlink:href="#DejaVuSans-65" x="694.921875"/>
     <use xlink:href="#DejaVuSans-75" x="756.445312"/>
     <use xlink:href="#DejaVuSans-72" x="819.824219"/>
     <use xlink:href="#DejaVuSans-75" x="860.9375"/>
     <use xlink:href="#DejaVuSans-73" x="924.316406"/>
     <use xlink:href="#DejaVuSans-64" x="976.416016"/>
    </g>
   </g>
   <g id="legend_1">
    <g id="patch_7">
     <path d="M 64.6 93.506375 
L 258.804688 93.506375 
Q 260.804688 93.506375 260.804688 91.506375 
L 260.804688 48.472 
Q 260.804688 46.472 258.804688 46.472 
L 64.6 46.472 
Q 62.6 46.472 62.6 48.472 
L 62.6 91.506375 
Q 62.6 93.506375 64.6 93.506375 
z
" style="fill: #ffffff; opacity: 0.8; stroke: #cccccc; stroke-linejoin: miter"/>
    </g>
    <g id="line2d_21">
     <path d="M 66.6 54.570438 
L 76.6 54.570438 
L 86.6 54.570438 
" style="fill: none; stroke: #1f77b4; stroke-opacity: 0.7; stroke-width: 1.5; stroke-linecap: square"/>
    </g>
    <g id="text_19">
     <!-- Positive cumulative predictions -->
     <g transform="translate(94.6 58.070438) scale(0.1 -0.1)">
      <defs>
       <path id="DejaVuSans-50" d="M 1259 4147 
L 1259 2394 
L 2053 2394 
Q 2494 2394 2734 2622 
Q 2975 2850 2975 3272 
Q 2975 3691 2734 3919 
Q 2494 4147 2053 4147 
L 1259 4147 
z
M 628 4666 
L 2053 4666 
Q 2838 4666 3239 4311 
Q 3641 3956 3641 3272 
Q 3641 2581 3239 2228 
Q 2838 1875 2053 1875 
L 1259 1875 
L 1259 0 
L 628 0 
L 628 4666 
z
" transform="scale(0.015625)"/>
       <path id="DejaVuSans-74" d="M 1172 4494 
L 1172 3500 
L 2356 3500 
L 2356 3053 
L 1172 3053 
L 1172 1153 
Q 1172 725 1289 603 
Q 1406 481 1766 481 
L 2356 481 
L 2356 0 
L 1766 0 
Q 1100 0 847 248 
Q 594 497 594 1153 
L 594 3053 
L 172 3053 
L 172 3500 
L 594 3500 
L 594 4494 
L 1172 4494 
z
" transform="scale(0.015625)"/>
       <path id="DejaVuSans-76" d="M 191 3500 
L 800 3500 
L 1894 563 
L 2988 3500 
L 3597 3500 
L 2284 0 
L 1503 0 
L 191 3500 
z
" transform="scale(0.015625)"/>
       <path id="DejaVuSans-20" transform="scale(0.015625)"/>
       <path id="DejaVuSans-63" d="M 3122 3366 
L 3122 2828 
Q 2878 2963 2633 3030 
Q 2388 3097 2138 3097 
Q 1578 3097 1268 2742 
Q 959 2388 959 1747 
Q 959 1106 1268 751 
Q 1578 397 2138 397 
Q 2388 397 2633 464 
Q 2878 531 3122 666 
L 3122 134 
Q 2881 22 2623 -34 
Q 2366 -91 2075 -91 
Q 1284 -91 818 406 
Q 353 903 353 1747 
Q 353 2603 823 3093 
Q 1294 3584 2113 3584 
Q 2378 3584 2631 3529 
Q 2884 3475 3122 3366 
z
" transform="scale(0.015625)"/>
       <path id="DejaVuSans-6c" d="M 603 4863 
L 1178 4863 
L 1178 0 
L 603 0 
L 603 4863 
z
" transform="scale(0.015625)"/>
       <path id="DejaVuSans-61" d="M 2194 1759 
Q 1497 1759 1228 1600 
Q 959 1441 959 1056 
Q 959 750 1161 570 
Q 1363 391 1709 391 
Q 2188 391 2477 730 
Q 2766 1069 2766 1631 
L 2766 1759 
L 2194 1759 
z
M 3341 1997 
L 3341 0 
L 2766 0 
L 2766 531 
Q 2569 213 2275 61 
Q 1981 -91 1556 -91 
Q 1019 -91 701 211 
Q 384 513 384 1019 
Q 384 1609 779 1909 
Q 1175 2209 1959 2209 
L 2766 2209 
L 2766 2266 
Q 2766 2663 2505 2880 
Q 2244 3097 1772 3097 
Q 1472 3097 1187 3025 
Q 903 2953 641 2809 
L 641 3341 
Q 956 3463 1253 3523 
Q 1550 3584 1831 3584 
Q 2591 3584 2966 3190 
Q 3341 2797 3341 1997 
z
" transform="scale(0.015625)"/>
       <path id="DejaVuSans-6e" d="M 3513 2113 
L 3513 0 
L 2938 0 
L 2938 2094 
Q 2938 2591 2744 2837 
Q 2550 3084 2163 3084 
Q 1697 3084 1428 2787 
Q 1159 2491 1159 1978 
L 1159 0 
L 581 0 
L 581 3500 
L 1159 3500 
L 1159 2956 
Q 1366 3272 1645 3428 
Q 1925 3584 2291 3584 
Q 2894 3584 3203 3211 
Q 3513 2838 3513 2113 
z
" transform="scale(0.015625)"/>
      </defs>
      <use xlink:href="#DejaVuSans-50"/>
      <use xlink:href="#DejaVuSans-6f" x="56.677734"/>
      <use xlink:href="#DejaVuSans-73" x="117.859375"/>
      <use xlink:href="#DejaVuSans-69" x="169.958984"/>
      <use xlink:href="#DejaVuSans-74" x="197.742188"/>
      <use xlink:href="#DejaVuSans-69" x="236.951172"/>
      <use xlink:href="#DejaVuSans-76" x="264.734375"/>
      <use xlink:href="#DejaVuSans-65" x="323.914062"/>
      <use xlink:href="#DejaVuSans-20" x="385.4375"/>
      <use xlink:href="#DejaVuSans-63" x="417.224609"/>
      <use xlink:href="#DejaVuSans-75" x="472.205078"/>
      <use xlink:href="#DejaVuSans-6d" x="535.583984"/>
      <use xlink:href="#DejaVuSans-75" x="632.996094"/>
      <use xlink:href="#DejaVuSans-6c" x="696.375"/>
      <use xlink:href="#DejaVuSans-61" x="724.158203"/>
      <use xlink:href="#DejaVuSans-74" x="785.4375"/>
      <use xlink:href="#DejaVuSans-69" x="824.646484"/>
      <use xlink:href="#DejaVuSans-76" x="852.429688"/>
      <use xlink:href="#DejaVuSans-65" x="911.609375"/>
      <use xlink:href="#DejaVuSans-20" x="973.132812"/>
      <use xlink:href="#DejaVuSans-70" x="1004.919922"/>
      <use xlink:href="#DejaVuSans-72" x="1068.396484"/>
      <use xlink:href="#DejaVuSans-65" x="1107.259766"/>
      <use xlink:href="#DejaVuSans-64" x="1168.783203"/>
      <use xlink:href="#DejaVuSans-69" x="1232.259766"/>
      <use xlink:href="#DejaVuSans-63" x="1260.042969"/>
      <use xlink:href="#DejaVuSans-74" x="1315.023438"/>
      <use xlink:href="#DejaVuSans-69" x="1354.232422"/>
      <use xlink:href="#DejaVuSans-6f" x="1382.015625"/>
      <use xlink:href="#DejaVuSans-6e" x="1443.197266"/>
      <use xlink:href="#DejaVuSans-73" x="1506.576172"/>
     </g>
    </g>
    <g id="line2d_22">
     <path d="M 66.6 69.248563 
L 76.6 69.248563 
L 86.6 69.248563 
" style="fill: none; stroke: #ff7f0e; stroke-opacity: 0.7; stroke-width: 1.5; stroke-linecap: square"/>
    </g>
    <g id="text_20">
     <!-- Negative cumulative predictions -->
     <g transform="translate(94.6 72.748563) scale(0.1 -0.1)">
      <defs>
       <path id="DejaVuSans-4e" d="M 628 4666 
L 1478 4666 
L 3547 763 
L 3547 4666 
L 4159 4666 
L 4159 0 
L 3309 0 
L 1241 3903 
L 1241 0 
L 628 0 
L 628 4666 
z
" transform="scale(0.015625)"/>
       <path id="DejaVuSans-67" d="M 2906 1791 
Q 2906 2416 2648 2759 
Q 2391 3103 1925 3103 
Q 1463 3103 1205 2759 
Q 947 2416 947 1791 
Q 947 1169 1205 825 
Q 1463 481 1925 481 
Q 2391 481 2648 825 
Q 2906 1169 2906 1791 
z
M 3481 434 
Q 3481 -459 3084 -895 
Q 2688 -1331 1869 -1331 
Q 1566 -1331 1297 -1286 
Q 1028 -1241 775 -1147 
L 775 -588 
Q 1028 -725 1275 -790 
Q 1522 -856 1778 -856 
Q 2344 -856 2625 -561 
Q 2906 -266 2906 331 
L 2906 616 
Q 2728 306 2450 153 
Q 2172 0 1784 0 
Q 1141 0 747 490 
Q 353 981 353 1791 
Q 353 2603 747 3093 
Q 1141 3584 1784 3584 
Q 2172 3584 2450 3431 
Q 2728 3278 2906 2969 
L 2906 3500 
L 3481 3500 
L 3481 434 
z
" transform="scale(0.015625)"/>
      </defs>
      <use xlink:href="#DejaVuSans-4e"/>
      <use xlink:href="#DejaVuSans-65" x="74.804688"/>
      <use xlink:href="#DejaVuSans-67" x="136.328125"/>
      <use xlink:href="#DejaVuSans-61" x="199.804688"/>
      <use xlink:href="#DejaVuSans-74" x="261.083984"/>
      <use xlink:href="#DejaVuSans-69" x="300.292969"/>
      <use xlink:href="#DejaVuSans-76" x="328.076172"/>
      <use xlink:href="#DejaVuSans-65" x="387.255859"/>
      <use xlink:href="#DejaVuSans-20" x="448.779297"/>
      <use xlink:href="#DejaVuSans-63" x="480.566406"/>
      <use xlink:href="#DejaVuSans-75" x="535.546875"/>
      <use xlink:href="#DejaVuSans-6d" x="598.925781"/>
      <use xlink:href="#DejaVuSans-75" x="696.337891"/>
      <use xlink:href="#DejaVuSans-6c" x="759.716797"/>
      <use xlink:href="#DejaVuSans-61" x="787.5"/>
      <use xlink:href="#DejaVuSans-74" x="848.779297"/>
      <use xlink:href="#DejaVuSans-69" x="887.988281"/>
      <use xlink:href="#DejaVuSans-76" x="915.771484"/>
      <use xlink:href="#DejaVuSans-65" x="974.951172"/>
      <use xlink:href="#DejaVuSans-20" x="1036.474609"/>
      <use xlink:href="#DejaVuSans-70" x="1068.261719"/>
      <use xlink:href="#DejaVuSans-72" x="1131.738281"/>
      <use xlink:href="#DejaVuSans-65" x="1170.601562"/>
      <use xlink:href="#DejaVuSans-64" x="1232.125"/>
      <use xlink:href="#DejaVuSans-69" x="1295.601562"/>
      <use xlink:href="#DejaVuSans-63" x="1323.384766"/>
      <use xlink:href="#DejaVuSans-74" x="1378.365234"/>
      <use xlink:href="#DejaVuSans-69" x="1417.574219"/>
      <use xlink:href="#DejaVuSans-6f" x="1445.357422"/>
      <use xlink:href="#DejaVuSans-6e" x="1506.539062"/>
      <use xlink:href="#DejaVuSans-73" x="1569.917969"/>
     </g>
    </g>
    <g id="line2d_23">
     <path d="M 66.6 83.926688 
L 76.6 83.926688 
L 86.6 83.926688 
" style="fill: none; stroke: #2ca02c; stroke-opacity: 0.7; stroke-width: 1.5; stroke-linecap: square"/>
    </g>
    <g id="text_21">
     <!-- Average cumulative predictions -->
     <g transform="translate(94.6 87.426688) scale(0.1 -0.1)">
      <defs>
       <path id="DejaVuSans-41" d="M 2188 4044 
L 1331 1722 
L 3047 1722 
L 2188 4044 
z
M 1831 4666 
L 2547 4666 
L 4325 0 
L 3669 0 
L 3244 1197 
L 1141 1197 
L 716 0 
L 50 0 
L 1831 4666 
z
" transform="scale(0.015625)"/>
      </defs>
      <use xlink:href="#DejaVuSans-41"/>
      <use xlink:href="#DejaVuSans-76" x="62.533203"/>
      <use xlink:href="#DejaVuSans-65" x="121.712891"/>
      <use xlink:href="#DejaVuSans-72" x="183.236328"/>
      <use xlink:href="#DejaVuSans-61" x="224.349609"/>
      <use xlink:href="#DejaVuSans-67" x="285.628906"/>
      <use xlink:href="#DejaVuSans-65" x="349.105469"/>
      <use xlink:href="#DejaVuSans-20" x="410.628906"/>
      <use xlink:href="#DejaVuSans-63" x="442.416016"/>
      <use xlink:href="#DejaVuSans-75" x="497.396484"/>
      <use xlink:href="#DejaVuSans-6d" x="560.775391"/>
      <use xlink:href="#DejaVuSans-75" x="658.1875"/>
      <use xlink:href="#DejaVuSans-6c" x="721.566406"/>
      <use xlink:href="#DejaVuSans-61" x="749.349609"/>
      <use xlink:href="#DejaVuSans-74" x="810.628906"/>
      <use xlink:href="#DejaVuSans-69" x="849.837891"/>
      <use xlink:href="#DejaVuSans-76" x="877.621094"/>
      <use xlink:href="#DejaVuSans-65" x="936.800781"/>
      <use xlink:href="#DejaVuSans-20" x="998.324219"/>
      <use xlink:href="#DejaVuSans-70" x="1030.111328"/>
      <use xlink:href="#DejaVuSans-72" x="1093.587891"/>
      <use xlink:href="#DejaVuSans-65" x="1132.451172"/>
      <use xlink:href="#DejaVuSans-64" x="1193.974609"/>
      <use xlink:href="#DejaVuSans-69" x="1257.451172"/>
      <use xlink:href="#DejaVuSans-63" x="1285.234375"/>
      <use xlink:href="#DejaVuSans-74" x="1340.214844"/>
      <use xlink:href="#DejaVuSans-69" x="1379.423828"/>
      <use xlink:href="#DejaVuSans-6f" x="1407.207031"/>
      <use xlink:href="#DejaVuSans-6e" x="1468.388672"/>
      <use xlink:href="#DejaVuSans-73" x="1531.767578"/>
     </g>
    </g>
   </g>
  </g>
 </g>
 <defs>
  <clipPath id="p302568dbad">
   <rect x="57.6" y="41.472" width="357.12" height="266.112"/>
  </clipPath>
 </defs>
</svg>
