<?xml version="1.0" encoding="utf-8" standalone="no"?>
<!DOCTYPE svg PUBLIC "-//W3C//DTD SVG 1.1//EN"
  "http://www.w3.org/Graphics/SVG/1.1/DTD/svg11.dtd">
<svg xmlns:xlink="http://www.w3.org/1999/xlink" width="460.8pt" height="345.6pt" viewBox="0 0 460.8 345.6" xmlns="http://www.w3.org/2000/svg" version="1.1">
 <metadata>
  <rdf:RDF xmlns:dc="http://purl.org/dc/elements/1.1/" xmlns:cc="http://creativecommons.org/ns#" xmlns:rdf="http://www.w3.org/1999/02/22-rdf-syntax-ns#">
   <cc:Work>
    <dc:type rdf:resource="http://purl.org/dc/dcmitype/StillImage"/>
    <dc:date>2024-07-19T09:40:47.745340</dc:date>
    <dc:format>image/svg+xml</dc:format>
    <dc:creator>
     <cc:Agent>
      <dc:title>Matplotlib v3.9.0, https://matplotlib.org/</dc:title>
     </cc:Agent>
    </dc:creator>
   </cc:Work>
  </rdf:RDF>
 </metadata>
 <defs>
  <style type="text/css">*{stroke-linejoin: round; stroke-linecap: butt}</style>
 </defs>
 <g id="figure_1">
  <g id="patch_1">
   <path d="M 0 345.6 
L 460.8 345.6 
L 460.8 0 
L 0 0 
z
" style="fill: #ffffff"/>
  </g>
  <g id="axes_1">
   <g id="patch_2">
    <path d="M 57.6 307.584 
L 414.72 307.584 
L 414.72 41.472 
L 57.6 41.472 
z
" style="fill: #ffffff"/>
   </g>
   <g id="matplotlib.axis_1">
    <g id="xtick_1">
     <g id="line2d_1">
      <defs>
       <path id="mebd2f868b5" d="M 0 0 
L 0 3.5 
" style="stroke: #000000; stroke-width: 0.8"/>
      </defs>
      <g>
       <use xlink:href="#mebd2f868b5" x="73.832727" y="307.584" style="stroke: #000000; stroke-width: 0.8"/>
      </g>
     </g>
     <g id="text_1">
      <!-- 0 -->
      <g transform="translate(70.651477 322.182437) scale(0.1 -0.1)">
       <defs>
        <path id="DejaVuSans-30" d="M 2034 4250 
Q 1547 4250 1301 3770 
Q 1056 3291 1056 2328 
Q 1056 1369 1301 889 
Q 1547 409 2034 409 
Q 2525 409 2770 889 
Q 3016 1369 3016 2328 
Q 3016 3291 2770 3770 
Q 2525 4250 2034 4250 
z
M 2034 4750 
Q 2819 4750 3233 4129 
Q 3647 3509 3647 2328 
Q 3647 1150 3233 529 
Q 2819 -91 2034 -91 
Q 1250 -91 836 529 
Q 422 1150 422 2328 
Q 422 3509 836 4129 
Q 1250 4750 2034 4750 
z
" transform="scale(0.015625)"/>
       </defs>
       <use xlink:href="#DejaVuSans-30"/>
      </g>
     </g>
    </g>
    <g id="xtick_2">
     <g id="line2d_2">
      <g>
       <use xlink:href="#mebd2f868b5" x="117.76433" y="307.584" style="stroke: #000000; stroke-width: 0.8"/>
      </g>
     </g>
     <g id="text_2">
      <!-- 200 -->
      <g transform="translate(108.22058 322.182437) scale(0.1 -0.1)">
       <defs>
        <path id="DejaVuSans-32" d="M 1228 531 
L 3431 531 
L 3431 0 
L 469 0 
L 469 531 
Q 828 903 1448 1529 
Q 2069 2156 2228 2338 
Q 2531 2678 2651 2914 
Q 2772 3150 2772 3378 
Q 2772 3750 2511 3984 
Q 2250 4219 1831 4219 
Q 1534 4219 1204 4116 
Q 875 4013 500 3803 
L 500 4441 
Q 881 4594 1212 4672 
Q 1544 4750 1819 4750 
Q 2544 4750 2975 4387 
Q 3406 4025 3406 3419 
Q 3406 3131 3298 2873 
Q 3191 2616 2906 2266 
Q 2828 2175 2409 1742 
Q 1991 1309 1228 531 
z
" transform="scale(0.015625)"/>
       </defs>
       <use xlink:href="#DejaVuSans-32"/>
       <use xlink:href="#DejaVuSans-30" x="63.623047"/>
       <use xlink:href="#DejaVuSans-30" x="127.246094"/>
      </g>
     </g>
    </g>
    <g id="xtick_3">
     <g id="line2d_3">
      <g>
       <use xlink:href="#mebd2f868b5" x="161.695933" y="307.584" style="stroke: #000000; stroke-width: 0.8"/>
      </g>
     </g>
     <g id="text_3">
      <!-- 400 -->
      <g transform="translate(152.152183 322.182437) scale(0.1 -0.1)">
       <defs>
        <path id="DejaVuSans-34" d="M 2419 4116 
L 825 1625 
L 2419 1625 
L 2419 4116 
z
M 2253 4666 
L 3047 4666 
L 3047 1625 
L 3713 1625 
L 3713 1100 
L 3047 1100 
L 3047 0 
L 2419 0 
L 2419 1100 
L 313 1100 
L 313 1709 
L 2253 4666 
z
" transform="scale(0.015625)"/>
       </defs>
       <use xlink:href="#DejaVuSans-34"/>
       <use xlink:href="#DejaVuSans-30" x="63.623047"/>
       <use xlink:href="#DejaVuSans-30" x="127.246094"/>
      </g>
     </g>
    </g>
    <g id="xtick_4">
     <g id="line2d_4">
      <g>
       <use xlink:href="#mebd2f868b5" x="205.627536" y="307.584" style="stroke: #000000; stroke-width: 0.8"/>
      </g>
     </g>
     <g id="text_4">
      <!-- 600 -->
      <g transform="translate(196.083786 322.182437) scale(0.1 -0.1)">
       <defs>
        <path id="DejaVuSans-36" d="M 2113 2584 
Q 1688 2584 1439 2293 
Q 1191 2003 1191 1497 
Q 1191 994 1439 701 
Q 1688 409 2113 409 
Q 2538 409 2786 701 
Q 3034 994 3034 1497 
Q 3034 2003 2786 2293 
Q 2538 2584 2113 2584 
z
M 3366 4563 
L 3366 3988 
Q 3128 4100 2886 4159 
Q 2644 4219 2406 4219 
Q 1781 4219 1451 3797 
Q 1122 3375 1075 2522 
Q 1259 2794 1537 2939 
Q 1816 3084 2150 3084 
Q 2853 3084 3261 2657 
Q 3669 2231 3669 1497 
Q 3669 778 3244 343 
Q 2819 -91 2113 -91 
Q 1303 -91 875 529 
Q 447 1150 447 2328 
Q 447 3434 972 4092 
Q 1497 4750 2381 4750 
Q 2619 4750 2861 4703 
Q 3103 4656 3366 4563 
z
" transform="scale(0.015625)"/>
       </defs>
       <use xlink:href="#DejaVuSans-36"/>
       <use xlink:href="#DejaVuSans-30" x="63.623047"/>
       <use xlink:href="#DejaVuSans-30" x="127.246094"/>
      </g>
     </g>
    </g>
    <g id="xtick_5">
     <g id="line2d_5">
      <g>
       <use xlink:href="#mebd2f868b5" x="249.559139" y="307.584" style="stroke: #000000; stroke-width: 0.8"/>
      </g>
     </g>
     <g id="text_5">
      <!-- 800 -->
      <g transform="translate(240.015389 322.182437) scale(0.1 -0.1)">
       <defs>
        <path id="DejaVuSans-38" d="M 2034 2216 
Q 1584 2216 1326 1975 
Q 1069 1734 1069 1313 
Q 1069 891 1326 650 
Q 1584 409 2034 409 
Q 2484 409 2743 651 
Q 3003 894 3003 1313 
Q 3003 1734 2745 1975 
Q 2488 2216 2034 2216 
z
M 1403 2484 
Q 997 2584 770 2862 
Q 544 3141 544 3541 
Q 544 4100 942 4425 
Q 1341 4750 2034 4750 
Q 2731 4750 3128 4425 
Q 3525 4100 3525 3541 
Q 3525 3141 3298 2862 
Q 3072 2584 2669 2484 
Q 3125 2378 3379 2068 
Q 3634 1759 3634 1313 
Q 3634 634 3220 271 
Q 2806 -91 2034 -91 
Q 1263 -91 848 271 
Q 434 634 434 1313 
Q 434 1759 690 2068 
Q 947 2378 1403 2484 
z
M 1172 3481 
Q 1172 3119 1398 2916 
Q 1625 2713 2034 2713 
Q 2441 2713 2670 2916 
Q 2900 3119 2900 3481 
Q 2900 3844 2670 4047 
Q 2441 4250 2034 4250 
Q 1625 4250 1398 4047 
Q 1172 3844 1172 3481 
z
" transform="scale(0.015625)"/>
       </defs>
       <use xlink:href="#DejaVuSans-38"/>
       <use xlink:href="#DejaVuSans-30" x="63.623047"/>
       <use xlink:href="#DejaVuSans-30" x="127.246094"/>
      </g>
     </g>
    </g>
    <g id="xtick_6">
     <g id="line2d_6">
      <g>
       <use xlink:href="#mebd2f868b5" x="293.490742" y="307.584" style="stroke: #000000; stroke-width: 0.8"/>
      </g>
     </g>
     <g id="text_6">
      <!-- 1000 -->
      <g transform="translate(280.765742 322.182437) scale(0.1 -0.1)">
       <defs>
        <path id="DejaVuSans-31" d="M 794 531 
L 1825 531 
L 1825 4091 
L 703 3866 
L 703 4441 
L 1819 4666 
L 2450 4666 
L 2450 531 
L 3481 531 
L 3481 0 
L 794 0 
L 794 531 
z
" transform="scale(0.015625)"/>
       </defs>
       <use xlink:href="#DejaVuSans-31"/>
       <use xlink:href="#DejaVuSans-30" x="63.623047"/>
       <use xlink:href="#DejaVuSans-30" x="127.246094"/>
       <use xlink:href="#DejaVuSans-30" x="190.869141"/>
      </g>
     </g>
    </g>
    <g id="xtick_7">
     <g id="line2d_7">
      <g>
       <use xlink:href="#mebd2f868b5" x="337.422345" y="307.584" style="stroke: #000000; stroke-width: 0.8"/>
      </g>
     </g>
     <g id="text_7">
      <!-- 1200 -->
      <g transform="translate(324.697345 322.182437) scale(0.1 -0.1)">
       <use xlink:href="#DejaVuSans-31"/>
       <use xlink:href="#DejaVuSans-32" x="63.623047"/>
       <use xlink:href="#DejaVuSans-30" x="127.246094"/>
       <use xlink:href="#DejaVuSans-30" x="190.869141"/>
      </g>
     </g>
    </g>
    <g id="xtick_8">
     <g id="line2d_8">
      <g>
       <use xlink:href="#mebd2f868b5" x="381.353948" y="307.584" style="stroke: #000000; stroke-width: 0.8"/>
      </g>
     </g>
     <g id="text_8">
      <!-- 1400 -->
      <g transform="translate(368.628948 322.182437) scale(0.1 -0.1)">
       <use xlink:href="#DejaVuSans-31"/>
       <use xlink:href="#DejaVuSans-34" x="63.623047"/>
       <use xlink:href="#DejaVuSans-30" x="127.246094"/>
       <use xlink:href="#DejaVuSans-30" x="190.869141"/>
      </g>
     </g>
    </g>
   </g>
   <g id="matplotlib.axis_2">
    <g id="ytick_1">
     <g id="line2d_9">
      <defs>
       <path id="m07a0a64eb4" d="M 0 0 
L -3.5 0 
" style="stroke: #000000; stroke-width: 0.8"/>
      </defs>
      <g>
       <use xlink:href="#m07a0a64eb4" x="57.6" y="269.116074" style="stroke: #000000; stroke-width: 0.8"/>
      </g>
     </g>
     <g id="text_9">
      <!-- −40000 -->
      <g transform="translate(10.407812 272.915292) scale(0.1 -0.1)">
       <defs>
        <path id="DejaVuSans-2212" d="M 678 2272 
L 4684 2272 
L 4684 1741 
L 678 1741 
L 678 2272 
z
" transform="scale(0.015625)"/>
       </defs>
       <use xlink:href="#DejaVuSans-2212"/>
       <use xlink:href="#DejaVuSans-34" x="83.789062"/>
       <use xlink:href="#DejaVuSans-30" x="147.412109"/>
       <use xlink:href="#DejaVuSans-30" x="211.035156"/>
       <use xlink:href="#DejaVuSans-30" x="274.658203"/>
       <use xlink:href="#DejaVuSans-30" x="338.28125"/>
      </g>
     </g>
    </g>
    <g id="ytick_2">
     <g id="line2d_10">
      <g>
       <use xlink:href="#m07a0a64eb4" x="57.6" y="220.594313" style="stroke: #000000; stroke-width: 0.8"/>
      </g>
     </g>
     <g id="text_10">
      <!-- −20000 -->
      <g transform="translate(10.407812 224.393531) scale(0.1 -0.1)">
       <use xlink:href="#DejaVuSans-2212"/>
       <use xlink:href="#DejaVuSans-32" x="83.789062"/>
       <use xlink:href="#DejaVuSans-30" x="147.412109"/>
       <use xlink:href="#DejaVuSans-30" x="211.035156"/>
       <use xlink:href="#DejaVuSans-30" x="274.658203"/>
       <use xlink:href="#DejaVuSans-30" x="338.28125"/>
      </g>
     </g>
    </g>
    <g id="ytick_3">
     <g id="line2d_11">
      <g>
       <use xlink:href="#m07a0a64eb4" x="57.6" y="172.072552" style="stroke: #000000; stroke-width: 0.8"/>
      </g>
     </g>
     <g id="text_11">
      <!-- 0 -->
      <g transform="translate(44.2375 175.871771) scale(0.1 -0.1)">
       <use xlink:href="#DejaVuSans-30"/>
      </g>
     </g>
    </g>
    <g id="ytick_4">
     <g id="line2d_12">
      <g>
       <use xlink:href="#m07a0a64eb4" x="57.6" y="123.550791" style="stroke: #000000; stroke-width: 0.8"/>
      </g>
     </g>
     <g id="text_12">
      <!-- 20000 -->
      <g transform="translate(18.7875 127.35001) scale(0.1 -0.1)">
       <use xlink:href="#DejaVuSans-32"/>
       <use xlink:href="#DejaVuSans-30" x="63.623047"/>
       <use xlink:href="#DejaVuSans-30" x="127.246094"/>
       <use xlink:href="#DejaVuSans-30" x="190.869141"/>
       <use xlink:href="#DejaVuSans-30" x="254.492188"/>
      </g>
     </g>
    </g>
    <g id="ytick_5">
     <g id="line2d_13">
      <g>
       <use xlink:href="#m07a0a64eb4" x="57.6" y="75.02903" style="stroke: #000000; stroke-width: 0.8"/>
      </g>
     </g>
     <g id="text_13">
      <!-- 40000 -->
      <g transform="translate(18.7875 78.828249) scale(0.1 -0.1)">
       <use xlink:href="#DejaVuSans-34"/>
       <use xlink:href="#DejaVuSans-30" x="63.623047"/>
       <use xlink:href="#DejaVuSans-30" x="127.246094"/>
       <use xlink:href="#DejaVuSans-30" x="190.869141"/>
       <use xlink:href="#DejaVuSans-30" x="254.492188"/>
      </g>
     </g>
    </g>
   </g>
   <g id="line2d_14">
    <path d="M 73.832727 172.295116 
L 74.272043 172.575637 
L 75.150675 172.777542 
L 75.370333 172.916669 
L 76.029307 172.872425 
L 76.907939 173.26306 
L 77.786572 173.499282 
L 78.884862 173.60809 
L 79.10452 173.638477 
L 79.324178 173.526416 
L 79.543836 173.557495 
L 79.763494 173.878041 
L 79.983152 173.809779 
L 80.422468 174.054705 
L 80.642126 173.925887 
L 81.3011 174.437502 
L 81.520758 174.389908 
L 82.179732 174.786835 
L 83.49768 175.232428 
L 84.156654 175.23044 
L 84.815628 175.500386 
L 85.69426 175.563901 
L 86.572892 175.890246 
L 87.671182 176.117068 
L 88.549814 176.228356 
L 89.208788 176.305256 
L 89.428446 176.244506 
L 89.648104 176.403706 
L 89.867762 176.372749 
L 90.526736 176.604437 
L 90.966052 176.730684 
L 93.382291 176.957029 
L 93.601949 176.88039 
L 93.821607 176.986652 
L 94.041265 176.968407 
L 94.700239 177.146996 
L 95.139555 177.234579 
L 95.798529 177.481237 
L 96.237845 177.586081 
L 97.336135 177.77613 
L 97.995109 177.865447 
L 98.434425 177.988066 
L 98.873741 177.969653 
L 99.752373 178.154908 
L 103.486559 178.855267 
L 103.925875 178.955736 
L 104.804507 178.987433 
L 106.781429 179.189213 
L 107.220745 179.313968 
L 107.87972 179.301195 
L 108.97801 179.414595 
L 109.417326 179.385822 
L 109.856642 179.454804 
L 110.0763 179.260757 
L 110.295958 179.351372 
L 110.515616 179.629753 
L 110.735274 179.681663 
L 111.17459 180.094155 
L 112.27288 180.117676 
L 112.492538 180.442917 
L 112.712196 180.371783 
L 113.151512 180.621622 
L 114.689118 181.162498 
L 115.128434 181.0467 
L 116.007066 181.431057 
L 116.446382 181.357061 
L 117.105356 181.691983 
L 117.325014 181.756117 
L 117.544672 181.974886 
L 117.983988 182.05915 
L 118.203646 182.212564 
L 118.423304 182.064184 
L 118.642962 182.273313 
L 118.86262 182.235321 
L 119.741252 182.825468 
L 120.180568 182.81874 
L 120.400226 182.950306 
L 121.278858 182.856599 
L 121.498516 183.298437 
L 122.15749 183.673204 
L 122.377148 183.741949 
L 122.596806 183.676481 
L 122.816465 184.031151 
L 123.695097 184.466866 
L 124.134413 184.590984 
L 125.891677 185.290749 
L 126.330993 185.304359 
L 127.648941 186.000562 
L 127.868599 185.953326 
L 131.602785 186.97901 
L 132.261759 186.981824 
L 132.701075 187.14916 
L 136.435261 188.31036 
L 137.094235 188.530553 
L 138.192526 188.765891 
L 138.8515 188.787022 
L 139.510474 188.947299 
L 140.608764 189.218354 
L 140.828422 189.320917 
L 141.487396 189.309837 
L 142.366028 189.552902 
L 143.464318 189.940304 
L 144.123292 190.012958 
L 144.562608 190.002611 
L 144.782266 190.068989 
L 145.001924 190.009792 
L 145.221582 190.080609 
L 145.44124 190.277184 
L 147.418162 190.742272 
L 148.077136 191.064664 
L 151.372006 191.554195 
L 151.811322 191.619535 
L 152.470296 191.661725 
L 153.788245 192.007351 
L 154.666877 191.974284 
L 154.886535 191.828071 
L 155.325851 192.280792 
L 155.545509 192.51423 
L 155.984825 192.482487 
L 156.204483 192.675531 
L 156.424141 192.531502 
L 157.083115 193.066883 
L 157.522431 193.185913 
L 157.742089 193.242348 
L 157.961747 193.107871 
L 158.181405 193.367728 
L 158.401063 193.399425 
L 159.060037 193.767151 
L 159.279695 193.779171 
L 160.158327 194.180178 
L 160.597643 194.252525 
L 161.036959 194.386091 
L 161.695933 194.426741 
L 163.892513 194.461684 
L 164.331829 194.781564 
L 164.771145 194.661109 
L 165.430119 195.063406 
L 165.869435 195.139949 
L 168.505332 195.524865 
L 168.944648 195.670648 
L 170.701912 195.802517 
L 171.360886 195.956898 
L 172.01986 195.986012 
L 172.898492 196.184827 
L 173.337808 196.165369 
L 173.996782 196.402406 
L 174.655756 196.436413 
L 176.193362 196.817854 
L 181.025838 197.645125 
L 181.245496 197.592309 
L 181.684812 197.889663 
L 181.90447 197.983092 
L 182.124128 197.88722 
L 182.783102 198.421935 
L 183.881393 198.759533 
L 185.199341 198.79565 
L 185.418999 198.610345 
L 185.638657 198.644747 
L 185.858315 198.870252 
L 186.077973 198.715363 
L 186.297631 198.989729 
L 186.517289 199.51642 
L 186.736947 199.523426 
L 186.956605 200.041662 
L 187.176263 200.000394 
L 187.395921 200.132883 
L 187.615579 199.776406 
L 187.835237 200.653388 
L 188.054895 200.621857 
L 188.274553 200.330994 
L 188.494211 201.522494 
L 188.713869 201.033941 
L 188.933527 202.169229 
L 189.153185 202.071761 
L 189.592501 202.716857 
L 189.812159 202.806501 
L 190.251475 203.910997 
L 190.471133 204.526607 
L 190.690791 204.449809 
L 191.130107 205.066817 
L 191.349765 204.892065 
L 191.569423 205.305689 
L 191.789081 205.402308 
L 192.228397 206.174261 
L 192.667713 206.975689 
L 193.546345 207.669838 
L 193.985661 208.068413 
L 194.205319 207.983015 
L 194.644635 208.509088 
L 195.742925 209.515941 
L 195.962583 209.38338 
L 196.401899 209.757713 
L 196.621557 209.744718 
L 197.060873 210.094899 
L 197.280531 210.266036 
L 197.719847 210.280403 
L 198.378822 210.881826 
L 198.59848 210.944282 
L 199.037796 211.210122 
L 199.477112 211.39072 
L 199.916428 211.705503 
L 200.136086 211.756402 
L 200.79506 212.55029 
L 201.014718 212.632796 
L 201.454034 213.049323 
L 201.89335 213.090207 
L 202.113008 212.685257 
L 202.332666 213.236585 
L 203.211298 214.126894 
L 204.08993 214.357949 
L 204.309588 214.635469 
L 204.529246 214.511872 
L 204.968562 214.951503 
L 205.627536 215.620614 
L 206.28651 215.766037 
L 208.922406 217.132566 
L 209.142064 217.111298 
L 209.58138 217.295365 
L 210.020696 217.51419 
L 210.67967 218.066281 
L 211.338644 218.418858 
L 211.77796 218.711046 
L 212.217276 218.7577 
L 212.87625 219.089497 
L 213.095908 219.12294 
L 213.754883 219.670839 
L 214.853173 220.389717 
L 215.072831 220.176069 
L 215.292489 220.413049 
L 215.512147 220.368943 
L 215.731805 220.762551 
L 216.171121 220.968235 
L 216.610437 221.526714 
L 217.049753 221.732391 
L 217.489069 221.7083 
L 217.708727 221.88521 
L 217.928385 221.881522 
L 218.807017 222.603415 
L 220.124965 223.340326 
L 220.783939 223.988825 
L 221.882229 223.994318 
L 222.101887 224.171642 
L 222.541203 224.32434 
L 222.760861 224.390831 
L 222.980519 224.289457 
L 223.200177 224.420781 
L 223.419835 224.221126 
L 223.639493 224.606219 
L 223.859151 224.606546 
L 224.518125 225.354679 
L 224.737783 225.510613 
L 224.957441 225.505053 
L 225.396757 225.794624 
L 226.055731 226.072668 
L 226.275389 226.240757 
L 227.154021 226.326366 
L 228.911286 227.083369 
L 229.57026 227.26197 
L 230.009576 227.290884 
L 230.888208 227.515867 
L 231.327524 227.601646 
L 231.986498 227.654875 
L 233.743762 228.149382 
L 234.183078 228.446274 
L 234.622394 228.510624 
L 235.06171 228.537413 
L 235.281368 228.505898 
L 235.940342 228.896833 
L 236.818974 228.684975 
L 237.038632 229.013613 
L 237.25829 228.911669 
L 237.697606 229.569636 
L 239.015554 230.129303 
L 240.992476 230.424689 
L 241.212134 230.208436 
L 241.431792 230.397427 
L 241.65145 230.756028 
L 242.310424 230.650784 
L 242.530082 230.953365 
L 242.74974 231.003004 
L 243.408714 231.470365 
L 244.726663 231.714996 
L 244.946321 231.855709 
L 245.385637 231.830954 
L 246.044611 232.096719 
L 246.483927 232.139879 
L 247.142901 232.482777 
L 247.582217 232.546292 
L 248.021533 232.74228 
L 248.680507 232.944399 
L 249.119823 233.031056 
L 249.339481 233.016234 
L 249.559139 233.178296 
L 249.778797 233.146333 
L 250.218113 233.440873 
L 252.634351 233.788637 
L 252.854009 233.67022 
L 253.293325 234.292245 
L 254.391615 234.527775 
L 254.830931 234.709641 
L 256.148879 234.992235 
L 256.588195 235.153793 
L 257.466827 235.302444 
L 257.906143 235.396388 
L 258.565117 235.30826 
L 259.004434 235.70156 
L 259.663408 235.88271 
L 261.64033 236.502734 
L 262.079646 236.585425 
L 262.518962 236.613094 
L 262.958278 236.481115 
L 263.397594 236.94799 
L 263.83691 237.117137 
L 264.715542 237.297973 
L 265.154858 237.28087 
L 265.374516 237.406989 
L 265.594174 237.354044 
L 266.03349 237.538644 
L 268.010412 237.820427 
L 268.449728 238.055774 
L 269.108702 238.092733 
L 269.548018 238.342503 
L 270.865966 238.490268 
L 271.305282 238.431994 
L 271.52494 238.540803 
L 271.744598 238.508281 
L 272.183914 238.710707 
L 272.62323 238.555231 
L 273.501862 239.188887 
L 273.72152 239.193212 
L 273.941178 239.00371 
L 274.160837 239.239793 
L 274.380495 239.215302 
L 274.600153 239.461355 
L 274.819811 239.496824 
L 275.039469 239.743898 
L 275.259127 239.800886 
L 275.478785 239.993242 
L 276.357417 240.105352 
L 276.796733 240.434379 
L 279.432629 241.181167 
L 280.311261 241.551747 
L 280.970235 241.597532 
L 281.409551 241.724464 
L 282.068525 241.873795 
L 282.727499 241.888207 
L 282.947157 241.940513 
L 283.166815 241.690076 
L 283.386473 242.096421 
L 283.606131 241.938301 
L 283.825789 242.02154 
L 284.045447 242.349487 
L 284.265105 242.318886 
L 285.143737 243.070152 
L 285.363395 243.260186 
L 285.802711 243.294587 
L 286.022369 243.572921 
L 286.461685 243.458151 
L 286.681343 243.447015 
L 287.120659 243.994741 
L 287.999291 244.372217 
L 288.438607 244.339501 
L 288.877923 244.435655 
L 289.097581 244.217452 
L 289.536898 244.504106 
L 290.195872 244.901666 
L 290.41553 244.800952 
L 290.635188 244.973545 
L 290.854846 244.84256 
L 291.294162 244.979405 
L 291.51382 244.938392 
L 291.733478 245.173674 
L 292.172794 245.303518 
L 292.392452 245.388503 
L 292.831768 246.033351 
L 293.271084 246.381039 
L 293.490742 246.174146 
L 293.7104 246.50174 
L 293.930058 246.569101 
L 294.369374 247.049272 
L 294.589032 246.863003 
L 294.80869 246.857326 
L 295.028348 247.02344 
L 295.248006 247.396256 
L 295.467664 247.485989 
L 295.687322 247.389229 
L 296.126638 247.588944 
L 296.346296 247.565096 
L 296.785612 248.28118 
L 297.224928 248.288551 
L 297.444586 248.647516 
L 297.664244 248.74701 
L 297.883902 248.71894 
L 298.10356 248.492925 
L 298.323218 248.729203 
L 298.542876 249.181098 
L 299.20185 249.163581 
L 299.860824 249.944154 
L 300.519798 250.450691 
L 300.739456 250.430075 
L 301.618088 251.4111 
L 302.277062 251.52322 
L 302.49672 251.7352 
L 302.716378 251.64774 
L 302.936036 251.680613 
L 303.375352 251.887684 
L 303.59501 251.79563 
L 304.034326 252.172219 
L 304.253984 252.074925 
L 305.132617 252.48299 
L 305.352275 252.34691 
L 305.571933 252.701654 
L 305.791591 252.635945 
L 306.230907 253.337811 
L 306.450565 253.209941 
L 307.109539 254.32013 
L 307.329197 254.229734 
L 307.548855 254.544567 
L 307.768513 254.438583 
L 308.207829 254.969265 
L 309.086461 256.065442 
L 309.306119 255.783103 
L 309.965093 256.685043 
L 310.184751 256.676564 
L 310.624067 257.031112 
L 310.843725 257.562244 
L 311.063383 257.680272 
L 311.283041 257.668555 
L 311.502699 257.926958 
L 311.722357 257.869599 
L 312.161673 258.228939 
L 312.381331 258.253866 
L 313.040305 257.995925 
L 313.479621 258.721435 
L 313.699279 258.552207 
L 314.138595 259.228637 
L 314.358253 259.237127 
L 315.017227 260.011727 
L 315.236885 259.946068 
L 315.456543 260.130063 
L 315.676201 260.147506 
L 316.115517 260.487786 
L 316.994149 260.78897 
L 317.653123 260.919307 
L 317.872781 261.161988 
L 318.092439 261.101176 
L 318.312097 261.43634 
L 319.190729 261.815069 
L 319.410388 261.742929 
L 319.849704 262.352469 
L 320.069362 262.582426 
L 320.508678 262.572587 
L 320.947994 262.898673 
L 321.38731 262.974751 
L 321.606968 262.946487 
L 322.265942 263.638566 
L 322.705258 263.868751 
L 323.364232 263.870778 
L 323.58389 263.785308 
L 324.242864 264.438083 
L 324.462522 264.140595 
L 324.68218 264.418165 
L 325.121496 264.664656 
L 325.341154 264.868949 
L 325.560812 264.890092 
L 325.78047 265.074366 
L 326.219786 265.551836 
L 326.659102 265.983895 
L 326.87876 265.635524 
L 327.098418 266.099005 
L 327.537734 266.391858 
L 327.757392 266.658792 
L 329.07534 266.849301 
L 329.294998 267.112896 
L 329.514656 266.945902 
L 329.734314 267.003449 
L 330.17363 267.696234 
L 330.393288 267.634072 
L 330.612946 267.706218 
L 330.832604 267.545853 
L 331.27192 267.837239 
L 331.491578 267.934485 
L 331.711236 268.261406 
L 331.930894 268.086927 
L 332.37021 268.875057 
L 333.029184 269.237806 
L 333.4685 269.733883 
L 333.907816 269.747472 
L 334.127474 270.03779 
L 334.566791 270.137252 
L 334.786449 269.95789 
L 335.006107 270.095232 
L 335.445423 270.540496 
L 335.665081 270.706522 
L 335.884739 270.58637 
L 336.104397 271.283482 
L 336.324055 271.529118 
L 336.543713 271.558555 
L 337.202687 271.947845 
L 337.861661 272.199678 
L 338.300977 272.638918 
L 338.740293 272.851407 
L 338.959951 273.231637 
L 339.179609 273.35696 
L 339.399267 273.353733 
L 339.618925 273.188784 
L 340.058241 273.366276 
L 340.277899 273.549486 
L 340.497557 273.544434 
L 340.936873 273.923213 
L 341.156531 273.93106 
L 341.376189 273.74852 
L 342.254821 274.370533 
L 342.474479 274.291263 
L 342.913795 274.589413 
L 343.133453 274.596328 
L 343.353111 274.868268 
L 344.012085 275.139796 
L 344.231743 275.121334 
L 344.451401 275.441213 
L 344.890717 275.696555 
L 345.330033 275.990588 
L 345.769349 276.16494 
L 345.989007 276.033956 
L 346.208665 276.111833 
L 346.647981 276.531886 
L 347.306955 276.832655 
L 347.526613 276.916619 
L 347.746271 276.842679 
L 348.405245 277.521582 
L 348.624903 277.439687 
L 348.844561 277.483065 
L 349.064219 277.694765 
L 349.283877 277.59557 
L 349.723194 277.741111 
L 349.942852 277.914197 
L 351.2608 278.082146 
L 351.480458 278.240545 
L 351.700116 278.191967 
L 353.018064 279.003283 
L 353.237722 278.942195 
L 353.45738 279.106416 
L 353.677038 278.996065 
L 354.116354 279.181272 
L 354.336012 279.445587 
L 354.55567 279.423315 
L 354.775328 279.655516 
L 354.994986 279.677238 
L 355.434302 280.137378 
L 355.65396 280.055182 
L 356.093276 280.363284 
L 356.532592 280.461751 
L 357.191566 281.104799 
L 358.070198 281.351013 
L 358.94883 281.561452 
L 360.486436 282.00729 
L 360.706094 281.874328 
L 360.925752 281.995075 
L 361.14541 282.285926 
L 361.584726 282.452859 
L 362.024042 282.459785 
L 362.2437 282.481693 
L 362.463358 282.758122 
L 363.122332 282.950026 
L 364.000964 282.917888 
L 364.659938 283.351962 
L 364.879597 283.368264 
L 365.099255 283.260692 
L 365.318913 283.301232 
L 365.977887 283.73875 
L 366.197545 283.764009 
L 366.856519 284.185695 
L 367.515493 284.385199 
L 368.394125 284.878808 
L 368.613783 285.096571 
L 370.371047 285.381741 
L 370.810363 285.635203 
L 371.249679 285.813019 
L 371.469337 285.748825 
L 372.347969 286.074054 
L 372.787285 286.311823 
L 373.226601 286.528917 
L 373.885575 286.705711 
L 374.544549 286.924103 
L 374.764207 286.854644 
L 375.203523 287.147851 
L 375.423181 287.202554 
L 375.642839 287.078557 
L 376.521471 287.474615 
L 376.960787 287.523574 
L 378.278735 287.716664 
L 378.498393 287.886118 
L 378.718051 287.910634 
L 378.937709 288.105934 
L 379.157367 288.040904 
L 379.816341 288.630327 
L 380.475316 288.833851 
L 382.012922 289.060482 
L 382.23258 289.176134 
L 382.452238 289.028967 
L 382.891554 289.208972 
L 383.33087 289.11188 
L 383.770186 289.44332 
L 383.989844 289.366365 
L 384.42916 289.661245 
L 384.648818 289.6635 
L 384.868476 289.779268 
L 385.088134 289.728064 
L 385.747108 290.286235 
L 386.406082 290.707368 
L 386.845398 290.733912 
L 387.284714 290.984693 
L 387.504372 290.907485 
L 388.163346 291.059066 
L 388.383004 291.25393 
L 388.82232 291.205554 
L 389.041978 291.291353 
L 389.481294 291.631203 
L 390.359926 292.214199 
L 390.799242 292.425972 
L 391.0189 292.405202 
L 391.238558 292.655865 
L 391.458216 292.714694 
L 391.897532 293.006467 
L 393.654796 293.572637 
L 394.094112 293.619811 
L 394.31377 293.738582 
L 394.972744 293.758937 
L 396.949667 294.852046 
L 397.169325 294.752288 
L 397.388983 295.039585 
L 397.828299 295.20912 
L 398.487273 295.488 
L 398.487273 295.488 
" clip-path="url(#p4e46ba76c7)" style="fill: none; stroke: #1f77b4; stroke-opacity: 0.7; stroke-width: 1.5; stroke-linecap: square"/>
   </g>
   <g id="line2d_15">
    <path d="M 73.832727 172.092874 
L 74.272043 172.004977 
L 74.931017 171.789969 
L 75.370333 171.799601 
L 76.029307 171.351934 
L 77.786572 171.137229 
L 78.665204 170.870169 
L 79.10452 170.788 
L 79.543836 170.406736 
L 79.763494 170.574992 
L 79.983152 170.293033 
L 80.422468 170.255998 
L 80.642126 170.025859 
L 81.3011 169.987377 
L 81.520758 169.780294 
L 82.39939 169.748651 
L 82.838706 169.649897 
L 83.278022 169.603098 
L 84.376312 169.312196 
L 84.59597 169.367269 
L 85.69426 169.118154 
L 86.133576 169.109384 
L 86.572892 169.084266 
L 87.231866 168.99279 
L 87.671182 168.919695 
L 92.942975 168.079177 
L 93.601949 167.869619 
L 95.798529 167.69893 
L 96.018187 167.593468 
L 96.457503 167.569783 
L 97.995109 167.380996 
L 98.214767 167.410716 
L 99.313057 167.105723 
L 100.191689 167.105743 
L 106.781429 166.325138 
L 107.220745 166.299288 
L 108.319036 166.131797 
L 108.97801 166.112849 
L 110.735274 165.47994 
L 110.954932 165.596198 
L 111.613906 165.265094 
L 112.931854 164.614172 
L 113.37117 164.624529 
L 114.030144 164.473705 
L 114.689118 164.358479 
L 115.56775 163.899163 
L 116.007066 163.877607 
L 116.66604 163.500493 
L 117.325014 163.39425 
L 117.544672 163.483567 
L 117.76433 163.319539 
L 118.203646 163.277713 
L 118.423304 162.985344 
L 119.301936 162.644172 
L 119.741252 162.638398 
L 121.278858 161.671596 
L 121.498516 161.954522 
L 121.937832 161.548335 
L 122.377148 161.331334 
L 122.596806 161.066639 
L 122.816465 161.176086 
L 123.255781 160.951721 
L 124.134413 160.586663 
L 124.573729 160.550526 
L 124.793387 160.463162 
L 125.013045 160.499287 
L 125.232703 160.32325 
L 125.891677 160.188855 
L 126.330993 160.004691 
L 126.770309 160.004105 
L 127.868599 159.70672 
L 128.088257 159.691474 
L 128.527573 159.485409 
L 129.406205 159.331688 
L 130.284837 159.213173 
L 130.943811 158.746085 
L 131.383127 158.621045 
L 132.261759 158.066955 
L 132.701075 158.010314 
L 133.579707 157.867664 
L 136.435261 157.26905 
L 137.094235 157.142372 
L 139.510474 156.89896 
L 139.94979 156.723546 
L 140.828422 156.640253 
L 142.366028 156.018654 
L 143.025002 155.915971 
L 143.24466 155.817027 
L 143.683976 155.770015 
L 144.34295 155.365057 
L 145.001924 155.084011 
L 145.221582 154.993388 
L 145.44124 155.060148 
L 146.100214 154.908243 
L 147.418162 154.506419 
L 148.077136 154.492197 
L 149.175426 154.17139 
L 150.054058 154.172955 
L 150.93269 153.972107 
L 151.811322 153.820232 
L 152.250638 153.722724 
L 152.689954 153.613685 
L 153.129271 153.627441 
L 153.348929 153.547004 
L 153.788245 153.520066 
L 154.227561 153.392914 
L 155.325851 152.887391 
L 155.545509 152.971068 
L 155.984825 152.663354 
L 156.204483 152.693689 
L 156.424141 152.379898 
L 156.643799 152.316373 
L 157.083115 152.384231 
L 157.302773 152.23584 
L 157.742089 152.189461 
L 157.961747 151.978246 
L 159.060037 151.840364 
L 159.279695 151.744655 
L 159.719011 151.822557 
L 160.597643 151.592398 
L 162.354907 151.257584 
L 162.794223 151.145697 
L 163.672855 150.889866 
L 163.892513 150.711431 
L 164.331829 150.771256 
L 164.990803 150.418183 
L 166.308751 150.213381 
L 166.967725 150.061293 
L 168.505332 149.876118 
L 168.944648 149.856127 
L 169.82328 149.732243 
L 170.701912 149.592345 
L 171.141228 149.556444 
L 176.41302 148.812764 
L 180.80618 148.281479 
L 181.245496 148.017261 
L 181.465154 148.099656 
L 182.343786 147.812303 
L 182.783102 147.84554 
L 183.661735 147.612177 
L 184.320709 147.46424 
L 185.199341 147.151203 
L 185.638657 146.543452 
L 185.858315 146.492922 
L 186.077973 146.114021 
L 186.297631 146.047376 
L 186.517289 146.335779 
L 186.736947 145.795077 
L 186.956605 146.042963 
L 187.176263 145.477853 
L 187.395921 145.327788 
L 187.615579 144.609165 
L 187.835237 144.867902 
L 188.274553 143.434066 
L 188.494211 143.899057 
L 188.713869 142.551922 
L 188.933527 142.788711 
L 189.153185 142.123599 
L 189.372843 142.136469 
L 189.812159 141.609555 
L 190.031817 142.061211 
L 190.251475 141.62039 
L 190.471133 141.706346 
L 190.690791 141.11654 
L 190.910449 141.243242 
L 191.130107 140.934547 
L 191.349765 140.294149 
L 191.569423 140.227474 
L 191.789081 139.997845 
L 192.008739 140.099413 
L 192.228397 139.664415 
L 192.448055 139.677007 
L 192.887371 139.327346 
L 193.107029 139.449516 
L 193.546345 138.848776 
L 193.766003 138.802874 
L 194.205319 138.069686 
L 194.424977 138.090817 
L 194.644635 137.934917 
L 195.083951 137.961895 
L 195.303609 137.82402 
L 195.523267 137.88534 
L 195.962583 137.377219 
L 196.182241 137.432833 
L 196.621557 137.063219 
L 196.841215 136.863879 
L 197.060873 136.902309 
L 197.280531 136.785322 
L 197.939505 136.080267 
L 198.159163 136.028592 
L 198.378822 136.194439 
L 198.59848 135.900446 
L 198.818138 135.946663 
L 199.257454 135.640527 
L 199.916428 135.520153 
L 200.575402 135.404493 
L 200.79506 135.445639 
L 201.014718 135.3181 
L 201.234376 135.477772 
L 201.89335 135.048356 
L 202.113008 134.508859 
L 202.771982 134.569101 
L 203.430956 134.187835 
L 203.870272 134.168553 
L 204.08993 133.931439 
L 204.309588 133.942376 
L 204.529246 133.680019 
L 204.968562 133.74281 
L 206.945484 133.140994 
L 208.263432 132.925771 
L 208.702748 132.692365 
L 208.922406 132.731097 
L 209.58138 132.497465 
L 210.460012 132.493749 
L 211.118986 132.413283 
L 211.338644 132.300494 
L 211.558302 132.388436 
L 211.997618 132.208832 
L 212.87625 132.035022 
L 213.095908 131.7957 
L 213.535225 131.797375 
L 213.974541 131.755137 
L 214.853173 131.708989 
L 215.292489 131.019336 
L 215.512147 130.654317 
L 215.731805 130.743742 
L 215.951463 130.435896 
L 216.390779 130.351686 
L 217.049753 130.074979 
L 217.489069 129.708579 
L 217.708727 129.725359 
L 217.928385 129.450822 
L 218.148043 129.385224 
L 218.587359 129.490686 
L 218.807017 129.32263 
L 219.246333 129.291395 
L 219.465991 129.134233 
L 219.685649 129.24092 
L 219.905307 128.979363 
L 220.344623 128.912225 
L 221.003597 128.719836 
L 221.442913 128.500177 
L 221.662571 128.43409 
L 221.882229 128.225325 
L 222.760861 128.072864 
L 223.859151 127.232318 
L 224.737783 127.312776 
L 224.957441 127.138935 
L 225.177099 127.125106 
L 225.836073 126.746614 
L 226.275389 126.792928 
L 227.154021 126.240767 
L 227.373679 126.191506 
L 227.593337 126.283139 
L 228.032653 126.086845 
L 228.471969 125.968185 
L 230.888208 125.115511 
L 231.327524 124.987365 
L 231.986498 124.802123 
L 232.86513 124.674559 
L 233.084788 124.642082 
L 233.304446 124.449329 
L 234.183078 124.41536 
L 234.622394 124.223901 
L 235.06171 124.078876 
L 235.281368 123.957659 
L 235.720684 124.05129 
L 236.379658 123.771731 
L 236.599316 123.678966 
L 236.818974 123.383498 
L 237.038632 123.378869 
L 237.25829 123.112606 
L 237.697606 123.147178 
L 237.917264 123.020596 
L 238.576238 122.964497 
L 239.015554 122.774356 
L 239.674528 122.628008 
L 240.55316 122.254697 
L 240.992476 122.249117 
L 241.212134 121.909101 
L 241.431792 121.826379 
L 241.65145 122.019579 
L 242.310424 121.253026 
L 242.530082 121.305858 
L 242.74974 121.07766 
L 242.969398 121.144741 
L 245.165979 120.336636 
L 245.605295 120.185758 
L 245.824953 120.294058 
L 246.264269 120.022834 
L 247.142901 119.927682 
L 247.582217 119.766857 
L 248.241191 119.605706 
L 248.460849 119.483374 
L 248.680507 119.533521 
L 249.119823 119.331367 
L 249.339481 119.140726 
L 249.559139 119.137218 
L 249.778797 118.950603 
L 250.218113 118.872399 
L 250.657429 118.75593 
L 250.877087 118.79533 
L 251.536061 118.492136 
L 251.975377 118.428245 
L 252.195035 118.420844 
L 252.854009 117.769992 
L 253.293325 117.882035 
L 253.952299 117.396716 
L 254.171957 117.422319 
L 254.391615 117.30902 
L 254.611273 117.360211 
L 255.270247 117.092117 
L 258.565117 116.269287 
L 258.784775 116.409891 
L 259.663408 116.145327 
L 260.54204 115.981996 
L 260.761698 116.00616 
L 261.420672 115.745331 
L 261.64033 115.808817 
L 262.73862 115.312907 
L 262.958278 115.08099 
L 263.177936 115.205455 
L 264.715542 114.674314 
L 265.154858 114.417222 
L 265.374516 114.442227 
L 265.813832 114.247365 
L 268.889044 113.572798 
L 269.108702 113.441579 
L 269.548018 113.453819 
L 270.206992 113.311015 
L 272.403572 112.62685 
L 272.62323 112.31088 
L 272.842888 112.223517 
L 273.282204 112.28663 
L 273.72152 112.027997 
L 274.160837 111.622125 
L 274.380495 111.479592 
L 274.600153 111.529106 
L 274.819811 111.271746 
L 275.478785 111.241643 
L 276.357417 110.890473 
L 276.577075 111.039217 
L 277.455707 110.735916 
L 279.432629 110.205816 
L 280.311261 110.116711 
L 281.409551 109.815988 
L 281.848867 109.745644 
L 282.947157 109.374022 
L 283.166815 109.035268 
L 283.386473 109.113603 
L 283.825789 108.523384 
L 284.045447 108.593954 
L 284.265105 108.344722 
L 284.704421 108.544595 
L 285.143737 108.134222 
L 285.363395 108.181069 
L 285.802711 107.727885 
L 286.022369 107.815849 
L 286.461685 107.37367 
L 286.681343 107.256886 
L 286.901001 107.290966 
L 287.999291 106.843871 
L 288.438607 106.541968 
L 288.877923 106.432444 
L 289.097581 106.078397 
L 290.41553 105.434613 
L 290.635188 105.322244 
L 291.074504 104.817806 
L 291.733478 104.417763 
L 292.392452 104.010007 
L 292.61211 104.196491 
L 293.051426 103.98986 
L 293.271084 103.915856 
L 293.490742 103.456759 
L 294.369374 103.144832 
L 295.028348 102.266496 
L 295.248006 102.321893 
L 295.467664 102.163081 
L 296.346296 100.876821 
L 296.785612 101.029303 
L 297.224928 100.413283 
L 297.444586 100.534079 
L 298.323218 99.594905 
L 298.542876 99.732347 
L 298.982192 99.186091 
L 299.20185 99.083216 
L 299.641166 99.168298 
L 300.519798 98.752629 
L 300.739456 98.44875 
L 300.959114 98.465689 
L 301.39843 98.339605 
L 301.618088 98.289749 
L 301.837746 98.082974 
L 302.057404 97.7071 
L 302.49672 97.564784 
L 303.155694 96.999888 
L 303.375352 96.924703 
L 303.814668 96.408561 
L 304.034326 96.412182 
L 304.473643 95.986708 
L 304.693301 96.009117 
L 305.132617 95.589525 
L 305.352275 95.087397 
L 305.571933 95.0304 
L 305.791591 94.677986 
L 306.011249 94.589522 
L 306.230907 94.819467 
L 306.450565 94.190844 
L 306.889881 94.098696 
L 307.109539 94.348377 
L 307.329197 93.67395 
L 307.548855 93.480808 
L 307.768513 93.015847 
L 308.207829 92.753833 
L 308.427487 92.61731 
L 308.647145 92.77125 
L 308.866803 92.505133 
L 309.086461 92.606726 
L 309.306119 92.009884 
L 309.745435 91.747419 
L 309.965093 91.85757 
L 310.184751 91.603655 
L 310.843725 91.798568 
L 311.283041 91.198923 
L 311.502699 91.262146 
L 311.722357 90.913105 
L 312.381331 90.575669 
L 313.259963 89.304921 
L 313.479621 89.315243 
L 313.699279 88.884055 
L 313.918937 88.780849 
L 314.138595 88.979497 
L 314.358253 88.749382 
L 314.577911 88.733164 
L 314.797569 88.862026 
L 315.236885 88.235149 
L 315.456543 88.207669 
L 315.676201 87.981509 
L 316.554833 87.948366 
L 317.433465 87.476093 
L 317.653123 87.422549 
L 317.872781 87.569825 
L 318.092439 87.314868 
L 318.312097 87.522552 
L 318.971071 86.993981 
L 319.190729 86.91963 
L 319.410388 86.699964 
L 319.630046 86.843667 
L 321.167652 86.003193 
L 321.606968 85.859424 
L 321.826626 86.042721 
L 322.046284 85.822577 
L 322.265942 85.896524 
L 322.924916 85.516676 
L 323.144574 85.499712 
L 323.58389 84.943068 
L 324.242864 84.848469 
L 324.462522 84.363712 
L 325.121496 83.854751 
L 325.560812 83.666566 
L 325.78047 83.55304 
L 326.000128 83.628548 
L 326.219786 83.518476 
L 326.659102 83.504053 
L 326.87876 82.946452 
L 327.318076 82.709383 
L 327.537734 82.494334 
L 327.757392 82.454711 
L 328.416366 81.833371 
L 328.855682 81.41066 
L 329.07534 81.333183 
L 329.294998 81.441195 
L 329.734314 80.858087 
L 330.17363 81.055143 
L 331.27192 79.726786 
L 331.491578 79.599802 
L 331.711236 79.739503 
L 331.930894 79.303487 
L 332.150552 79.526347 
L 332.589868 79.171835 
L 332.809526 79.009911 
L 333.029184 79.170742 
L 333.688158 78.8086 
L 333.907816 78.595727 
L 334.127474 78.72007 
L 335.006107 77.706007 
L 335.665081 77.620237 
L 335.884739 77.339749 
L 336.104397 77.826495 
L 336.543713 77.028069 
L 336.763371 76.942962 
L 337.202687 76.370187 
L 338.081319 75.764708 
L 338.740293 75.431889 
L 338.959951 75.522714 
L 339.618925 74.79187 
L 340.058241 74.575111 
L 340.497557 74.312602 
L 340.717215 74.448343 
L 341.156531 74.220156 
L 341.815505 73.372849 
L 342.035163 73.247202 
L 342.254821 73.265155 
L 342.474479 72.991323 
L 342.913795 72.810124 
L 343.133453 72.53325 
L 343.353111 72.567895 
L 343.792427 72.278365 
L 344.012085 72.315218 
L 344.231743 72.136415 
L 344.451401 72.23233 
L 344.671059 72.014055 
L 345.549691 71.833591 
L 346.208665 71.33814 
L 346.428323 71.486865 
L 346.867639 71.26876 
L 347.306955 71.18151 
L 347.965929 71.046312 
L 348.405245 71.030809 
L 348.844561 70.586286 
L 349.064219 70.63183 
L 349.503535 70.178459 
L 350.382168 69.997897 
L 351.2608 69.245288 
L 351.480458 69.220154 
L 351.919774 69.023026 
L 352.139432 68.964096 
L 352.35909 68.784954 
L 353.018064 68.70599 
L 353.237722 68.474093 
L 353.45738 68.483716 
L 354.116354 67.949238 
L 354.336012 67.961325 
L 354.55567 67.740818 
L 354.775328 67.862765 
L 354.994986 67.591067 
L 355.65396 67.271211 
L 355.873618 67.164819 
L 356.312934 67.152179 
L 356.971908 67.041739 
L 357.191566 67.087107 
L 358.729172 66.443012 
L 358.94883 66.519879 
L 359.388146 66.345163 
L 361.584726 65.589345 
L 362.024042 65.273199 
L 362.2437 65.151185 
L 362.463358 65.197581 
L 362.902674 64.880831 
L 363.122332 64.878777 
L 363.561648 64.662523 
L 364.879597 64.376896 
L 365.318913 64.067152 
L 365.758229 64.173153 
L 366.197545 63.870146 
L 366.636861 63.96681 
L 367.295835 63.566496 
L 368.174467 63.51104 
L 368.394125 63.434631 
L 368.613783 63.504195 
L 369.272757 63.028803 
L 369.712073 62.870367 
L 369.931731 62.75356 
L 370.151389 62.823864 
L 370.590705 62.689021 
L 370.810363 62.735977 
L 371.908653 62.214394 
L 372.567627 62.280627 
L 373.006943 62.143686 
L 373.446259 62.105047 
L 373.885575 61.913645 
L 374.544549 61.850125 
L 374.764207 61.713495 
L 374.983865 61.768874 
L 377.839419 60.460626 
L 378.278735 60.288715 
L 378.937709 60.279005 
L 379.157367 60.0166 
L 379.596683 59.987117 
L 379.816341 60.074019 
L 381.13429 59.482009 
L 382.23258 59.370177 
L 382.452238 59.145909 
L 382.891554 59.049115 
L 383.550528 58.443386 
L 383.770186 58.388615 
L 384.209502 58.103686 
L 384.868476 57.959102 
L 385.088134 57.785138 
L 386.406082 57.632198 
L 386.845398 57.396517 
L 387.065056 57.460721 
L 387.504372 57.151176 
L 388.163346 56.660692 
L 388.383004 56.638951 
L 389.041978 56.082536 
L 389.92061 56.156959 
L 391.458216 55.529302 
L 391.677874 55.655581 
L 392.11719 55.371061 
L 393.21548 54.997644 
L 393.874454 54.681484 
L 394.533428 54.503217 
L 395.412061 54.273097 
L 395.851377 54.242645 
L 396.071035 54.326672 
L 396.510351 54.11023 
L 396.949667 54.06568 
L 397.169325 53.828335 
L 397.388983 53.888526 
L 398.047957 53.704217 
L 398.487273 53.568 
L 398.487273 53.568 
" clip-path="url(#p4e46ba76c7)" style="fill: none; stroke: #ff7f0e; stroke-opacity: 0.7; stroke-width: 1.5; stroke-linecap: square"/>
   </g>
   <g id="line2d_16">
    <path d="M 73.832727 172.193995 
L 74.272043 172.290307 
L 74.931017 172.219755 
L 75.370333 172.358135 
L 76.029307 172.112179 
L 77.566914 172.383633 
L 78.225888 172.282031 
L 78.445546 172.291656 
L 78.665204 172.186835 
L 79.10452 172.213238 
L 79.543836 171.982115 
L 79.763494 172.226517 
L 79.983152 172.051406 
L 80.422468 172.155352 
L 80.642126 171.975873 
L 81.3011 172.21244 
L 81.520758 172.085101 
L 82.39939 172.311995 
L 85.69426 172.341028 
L 86.133576 172.428294 
L 90.526736 172.53097 
L 90.966052 172.57409 
L 92.284 172.556319 
L 94.041265 172.377537 
L 94.700239 172.453831 
L 95.139555 172.483506 
L 95.798529 172.590084 
L 96.018187 172.536291 
L 96.457503 172.607019 
L 100.191689 172.686747 
L 101.289979 172.671718 
L 101.509637 172.602976 
L 102.388269 172.710684 
L 104.804507 172.732539 
L 106.781429 172.757175 
L 107.220745 172.806628 
L 108.099378 172.747635 
L 109.856642 172.675474 
L 110.0763 172.453813 
L 110.295958 172.435371 
L 110.515616 172.621685 
L 110.735274 172.580802 
L 110.954932 172.777982 
L 112.053222 172.662449 
L 112.27288 172.474027 
L 112.492538 172.668148 
L 112.712196 172.515704 
L 113.151512 172.637959 
L 114.689118 172.760488 
L 115.348092 172.586249 
L 115.56775 172.545187 
L 116.007066 172.654332 
L 116.446382 172.447116 
L 117.76433 172.654942 
L 118.203646 172.745138 
L 118.423304 172.524764 
L 118.642962 172.579367 
L 118.86262 172.451622 
L 119.741252 172.731933 
L 121.278858 172.264098 
L 121.498516 172.62648 
L 122.596806 172.37156 
L 122.816465 172.603619 
L 124.134413 172.588823 
L 125.013045 172.785509 
L 125.232703 172.682341 
L 125.891677 172.739802 
L 126.330993 172.654525 
L 126.989967 172.817049 
L 127.648941 172.904701 
L 128.088257 172.855625 
L 128.527573 172.820505 
L 130.504495 172.948053 
L 131.163469 172.799058 
L 131.602785 172.724423 
L 132.261759 172.52439 
L 132.701075 172.579737 
L 134.238681 172.696858 
L 134.458339 172.561888 
L 135.117313 172.626152 
L 135.336971 172.587315 
L 135.995945 172.748616 
L 141.926712 172.834807 
L 142.14637 172.678135 
L 142.805344 172.917924 
L 143.464318 172.894244 
L 144.123292 172.800397 
L 144.562608 172.620633 
L 148.73611 172.661805 
L 149.395084 172.699688 
L 150.273716 172.749979 
L 150.713032 172.708287 
L 151.811322 172.719884 
L 152.250638 172.696543 
L 152.689954 172.67036 
L 153.129271 172.756131 
L 153.348929 172.707556 
L 153.788245 172.763708 
L 154.666877 172.565247 
L 154.886535 172.363493 
L 155.106193 172.5508 
L 155.325851 172.584091 
L 155.545509 172.742649 
L 155.984825 172.572921 
L 156.204483 172.68461 
L 156.424141 172.4557 
L 157.083115 172.725557 
L 157.302773 172.653791 
L 157.742089 172.715905 
L 157.961747 172.543059 
L 158.181405 172.664255 
L 158.401063 172.630988 
L 159.060037 172.803758 
L 159.279695 172.761913 
L 159.719011 172.939691 
L 160.817301 172.949431 
L 161.915591 172.90581 
L 162.574565 172.771256 
L 163.013881 172.790594 
L 164.112171 172.685977 
L 164.331829 172.77641 
L 164.990803 172.627069 
L 165.869435 172.742103 
L 167.187383 172.674703 
L 168.505332 172.700491 
L 168.944648 172.763388 
L 170.262596 172.726505 
L 172.01986 172.685096 
L 172.678834 172.781691 
L 173.777124 172.699722 
L 173.996782 172.768309 
L 174.655756 172.698402 
L 175.31473 172.785191 
L 176.632678 172.862272 
L 177.071994 172.897634 
L 177.51131 172.866278 
L 177.730968 172.926044 
L 178.170284 172.897368 
L 178.6096 172.900707 
L 180.147206 173.029823 
L 181.465154 172.948425 
L 182.563444 173.059436 
L 183.00276 173.140799 
L 183.222419 173.078794 
L 183.881393 173.173178 
L 185.199341 172.973427 
L 185.638657 172.5941 
L 185.858315 172.681587 
L 186.077973 172.414692 
L 186.297631 172.518553 
L 186.517289 172.9261 
L 186.736947 172.659251 
L 186.956605 173.042312 
L 187.176263 172.739124 
L 187.395921 172.730336 
L 187.615579 172.192785 
L 187.835237 172.760645 
L 188.274553 171.88253 
L 188.494211 172.710775 
L 188.713869 171.792931 
L 188.933527 172.47897 
L 189.153185 172.09768 
L 189.372843 172.276828 
L 189.812159 172.208028 
L 190.031817 172.792826 
L 190.251475 172.765693 
L 190.471133 173.116477 
L 190.690791 172.783174 
L 190.910449 173.057328 
L 191.130107 173.000682 
L 191.349765 172.593107 
L 191.569423 172.766581 
L 191.789081 172.700076 
L 192.008739 173.009578 
L 192.228397 172.919338 
L 192.667713 173.26481 
L 192.887371 173.223936 
L 193.107029 173.421635 
L 193.546345 173.259307 
L 193.766003 173.355556 
L 193.985661 173.282302 
L 194.205319 173.02635 
L 194.424977 173.218084 
L 194.864293 173.335741 
L 195.742925 173.575454 
L 195.962583 173.3803 
L 196.182241 173.52183 
L 196.841215 173.368335 
L 197.280531 173.525679 
L 197.719847 173.230351 
L 198.159163 173.305754 
L 198.378822 173.538132 
L 198.59848 173.422364 
L 198.818138 173.542079 
L 199.257454 173.461764 
L 200.355744 173.724996 
L 200.79506 173.997965 
L 201.014718 173.975448 
L 201.454034 174.211241 
L 201.89335 174.069281 
L 202.113008 173.597058 
L 202.332666 173.888317 
L 203.211298 174.216467 
L 203.650614 174.238396 
L 203.870272 174.309442 
L 204.08993 174.144694 
L 204.309588 174.288922 
L 204.529246 174.095945 
L 204.968562 174.347157 
L 205.847194 174.537896 
L 206.066852 174.592318 
L 206.28651 174.524983 
L 207.3848 174.723982 
L 208.043774 174.865783 
L 208.263432 174.942117 
L 208.702748 174.846991 
L 208.922406 174.931832 
L 209.142064 174.866914 
L 209.361722 174.941686 
L 209.801038 174.954799 
L 211.997618 175.46763 
L 213.095908 175.45932 
L 213.754883 175.748517 
L 214.633515 175.8988 
L 214.853173 176.049353 
L 215.072831 175.724217 
L 215.292489 175.716193 
L 215.512147 175.51163 
L 215.731805 175.753147 
L 215.951463 175.627403 
L 216.171121 175.65211 
L 216.610437 175.908983 
L 217.269411 175.800998 
L 217.489069 175.70844 
L 217.708727 175.805284 
L 217.928385 175.666172 
L 218.367701 175.896458 
L 218.587359 176.031187 
L 218.807017 175.963023 
L 219.246333 176.078281 
L 219.465991 176.00116 
L 219.685649 176.166783 
L 219.905307 176.03114 
L 220.783939 176.45061 
L 221.442913 176.269832 
L 221.662571 176.264986 
L 221.882229 176.109821 
L 222.321545 176.177816 
L 222.760861 176.231847 
L 222.980519 176.084924 
L 223.200177 176.090161 
L 223.419835 175.815576 
L 223.639493 176.015378 
L 223.859151 175.919432 
L 224.737783 176.411695 
L 224.957441 176.321994 
L 225.177099 176.425167 
L 225.836073 176.308 
L 226.275389 176.516843 
L 227.154021 176.283566 
L 227.373679 176.312771 
L 227.593337 176.462468 
L 228.032653 176.382647 
L 228.471969 176.433049 
L 229.57026 176.436895 
L 230.009576 176.33461 
L 230.888208 176.315689 
L 231.327524 176.294505 
L 231.986498 176.228499 
L 233.743762 176.285835 
L 234.183078 176.430817 
L 234.622394 176.367263 
L 235.06171 176.308144 
L 235.281368 176.231778 
L 235.940342 176.411323 
L 236.379658 176.349652 
L 236.599316 176.294917 
L 236.818974 176.034236 
L 237.038632 176.196241 
L 237.25829 176.012138 
L 237.697606 176.358407 
L 238.136922 176.442841 
L 239.894186 176.389659 
L 240.55316 176.228324 
L 240.992476 176.336903 
L 241.212134 176.058769 
L 241.431792 176.111903 
L 241.65145 176.387804 
L 242.310424 175.951905 
L 242.530082 176.129612 
L 242.74974 176.040332 
L 243.189056 176.197069 
L 243.628372 176.242422 
L 244.067689 176.240776 
L 244.287347 176.23247 
L 244.507005 176.069531 
L 245.165979 176.073254 
L 245.605295 176.064284 
L 245.824953 176.209869 
L 246.264269 176.04875 
L 246.703585 176.162273 
L 246.923243 176.269965 
L 247.582217 176.156574 
L 248.021533 176.204159 
L 250.657429 176.115619 
L 250.877087 176.17393 
L 251.316403 176.104833 
L 251.755719 176.034323 
L 252.195035 176.126689 
L 252.854009 175.720106 
L 253.293325 176.08714 
L 253.952299 175.882943 
L 254.171957 175.977316 
L 254.391615 175.918398 
L 254.611273 176.017406 
L 255.270247 175.959365 
L 256.807853 175.965916 
L 257.247169 175.930329 
L 257.906143 175.975098 
L 258.565117 175.788774 
L 258.784775 175.997059 
L 261.201014 176.129711 
L 261.420672 176.019662 
L 261.64033 176.155775 
L 262.518962 176.049384 
L 262.958278 175.781052 
L 263.177936 176.004911 
L 264.056568 176.077342 
L 264.495884 175.971675 
L 264.715542 175.986143 
L 265.154858 175.849046 
L 265.374516 175.924608 
L 265.594174 175.829623 
L 266.472806 175.860535 
L 267.13178 175.85431 
L 267.571096 175.813422 
L 267.790754 175.705148 
L 268.669386 175.845513 
L 272.183914 175.736842 
L 272.842888 175.476374 
L 273.282204 175.723435 
L 273.72152 175.610604 
L 273.941178 175.372771 
L 274.160837 175.430959 
L 274.380495 175.347447 
L 274.600153 175.49523 
L 274.819811 175.384285 
L 275.039469 175.520386 
L 276.357417 175.497912 
L 276.577075 175.673743 
L 278.114681 175.678684 
L 279.212971 175.661061 
L 280.530919 175.792559 
L 280.750577 175.705766 
L 281.629209 175.816058 
L 282.947157 175.657267 
L 283.166815 175.362672 
L 283.386473 175.605012 
L 283.606131 175.345305 
L 283.825789 175.272462 
L 284.045447 175.47172 
L 284.265105 175.331804 
L 284.924079 175.677484 
L 285.143737 175.602187 
L 285.363395 175.720628 
L 285.802711 175.511236 
L 286.022369 175.694385 
L 286.461685 175.415911 
L 286.681343 175.35195 
L 287.120659 175.601756 
L 287.340317 175.611642 
L 287.559975 175.733233 
L 289.536898 175.169956 
L 290.635188 175.147895 
L 290.854846 174.926823 
L 291.294162 174.808882 
L 291.51382 174.667702 
L 291.733478 174.795719 
L 292.172794 174.727582 
L 292.392452 174.699255 
L 292.831768 175.08867 
L 293.271084 175.148447 
L 293.490742 174.815453 
L 293.7104 174.92754 
L 293.930058 174.863116 
L 294.369374 175.097052 
L 294.80869 174.625338 
L 295.028348 174.644968 
L 295.248006 174.859075 
L 295.467664 174.824535 
L 295.90698 174.489726 
L 296.346296 174.220959 
L 296.785612 174.655241 
L 297.224928 174.350917 
L 297.444586 174.590798 
L 297.883902 174.424458 
L 298.10356 174.147305 
L 298.323218 174.162054 
L 298.542876 174.456723 
L 299.20185 174.123399 
L 299.641166 174.482259 
L 300.519798 174.60166 
L 300.739456 174.439412 
L 301.178772 174.661204 
L 301.618088 174.850424 
L 301.837746 174.748996 
L 302.057404 174.509031 
L 302.49672 174.649992 
L 302.936036 174.363955 
L 303.375352 174.406193 
L 303.59501 174.190868 
L 303.814668 174.175692 
L 304.034326 174.292201 
L 304.253984 174.118441 
L 304.473643 174.095229 
L 304.693301 174.225276 
L 304.912959 174.190404 
L 305.132617 174.036258 
L 305.352275 173.717154 
L 305.571933 173.866027 
L 305.791591 173.656965 
L 306.011249 173.77004 
L 306.230907 174.078639 
L 306.450565 173.700392 
L 307.109539 174.334254 
L 307.329197 173.951842 
L 307.548855 174.012687 
L 307.768513 173.727215 
L 307.988171 173.860155 
L 308.427487 173.920032 
L 308.647145 174.201481 
L 308.866803 174.088723 
L 309.086461 174.336084 
L 309.306119 173.896493 
L 309.965093 174.271306 
L 310.184751 174.140109 
L 310.624067 174.389014 
L 310.843725 174.680406 
L 311.283041 174.433739 
L 311.502699 174.594552 
L 311.722357 174.391352 
L 312.381331 174.414768 
L 313.040305 173.735752 
L 313.259963 173.816707 
L 313.479621 174.018339 
L 313.699279 173.718131 
L 313.918937 173.825789 
L 314.138595 174.104067 
L 314.358253 173.993255 
L 314.577911 174.132649 
L 314.797569 174.412332 
L 315.236885 174.090609 
L 315.456543 174.168866 
L 315.676201 174.064508 
L 316.115517 174.192111 
L 316.774491 174.290389 
L 317.213807 174.171783 
L 317.653123 174.170928 
L 317.872781 174.365907 
L 318.092439 174.208022 
L 318.312097 174.479446 
L 319.410388 174.221446 
L 319.630046 174.473253 
L 320.069362 174.626229 
L 320.508678 174.391975 
L 320.728336 174.525349 
L 321.606968 174.402955 
L 321.826626 174.62241 
L 322.046284 174.590018 
L 322.265942 174.767545 
L 323.144574 174.739262 
L 323.58389 174.364188 
L 324.242864 174.643276 
L 324.462522 174.252154 
L 324.901838 174.25355 
L 325.78047 174.313703 
L 326.000128 174.519326 
L 326.219786 174.535156 
L 326.659102 174.743974 
L 326.87876 174.290988 
L 327.098418 174.474526 
L 327.537734 174.443096 
L 327.757392 174.556751 
L 328.416366 174.275219 
L 328.855682 174.07694 
L 329.07534 174.091242 
L 329.294998 174.277045 
L 329.514656 174.011203 
L 329.734314 173.930768 
L 330.17363 174.375689 
L 330.832604 173.788664 
L 331.27192 173.782013 
L 331.491578 173.767143 
L 331.711236 174.000454 
L 331.930894 173.695207 
L 332.150552 174.027071 
L 332.37021 174.136593 
L 332.809526 173.982721 
L 333.248842 174.275203 
L 333.4685 174.396039 
L 333.907816 174.171599 
L 334.127474 174.37893 
L 335.006107 173.900619 
L 335.445423 174.10723 
L 335.665081 174.16338 
L 335.884739 173.963059 
L 336.104397 174.554989 
L 337.642003 173.955109 
L 338.300977 174.153534 
L 338.520635 174.085775 
L 338.740293 174.141648 
L 338.959951 174.377175 
L 340.058241 173.970693 
L 341.156531 174.075608 
L 341.595847 173.749552 
L 342.035163 173.687266 
L 342.254821 173.817844 
L 342.474479 173.641293 
L 342.913795 173.699769 
L 343.133453 173.564789 
L 343.353111 173.718082 
L 343.792427 173.655476 
L 344.012085 173.727507 
L 344.231743 173.628874 
L 344.451401 173.836772 
L 344.671059 173.771051 
L 345.549691 173.975546 
L 345.769349 173.927445 
L 345.989007 173.742596 
L 346.208665 173.724987 
L 346.428323 173.944696 
L 346.867639 173.931792 
L 347.087297 173.901682 
L 347.526613 174.007724 
L 347.746271 173.873759 
L 348.185587 174.167126 
L 348.405245 174.276195 
L 348.844561 174.034675 
L 349.064219 174.163297 
L 349.503535 173.898878 
L 350.382168 174.005342 
L 350.601826 173.845721 
L 350.821484 173.830397 
L 351.041142 173.634124 
L 352.139432 173.702728 
L 352.35909 173.649024 
L 353.018064 173.854636 
L 353.237722 173.708144 
L 353.45738 173.795066 
L 353.896696 173.533503 
L 355.434302 173.846464 
L 355.65396 173.663197 
L 356.971908 173.956407 
L 357.191566 174.095953 
L 358.509514 173.979405 
L 358.729172 173.91579 
L 358.94883 174.040666 
L 359.607804 174.032494 
L 360.486436 174.014224 
L 360.706094 173.834171 
L 360.925752 173.860274 
L 361.14541 174.063289 
L 361.584726 174.021102 
L 362.024042 173.866492 
L 362.2437 173.816439 
L 362.463358 173.977851 
L 364.000964 173.723044 
L 364.44028 173.92449 
L 364.879597 173.87258 
L 365.318913 173.684192 
L 365.758229 173.91028 
L 366.417203 173.922083 
L 366.636861 174.058473 
L 367.295835 173.924002 
L 368.833441 174.228574 
L 369.272757 174.066972 
L 369.712073 174.017141 
L 369.931731 173.97578 
L 370.151389 174.103276 
L 370.590705 174.074773 
L 371.030021 174.179065 
L 371.249679 174.168872 
L 371.688995 174.02968 
L 372.347969 174.1713 
L 372.787285 174.244671 
L 375.423181 174.393408 
L 375.642839 174.238677 
L 376.741129 174.229272 
L 377.619761 174.080407 
L 378.278735 174.002689 
L 378.498393 174.085886 
L 378.718051 174.046855 
L 378.937709 174.192469 
L 379.157367 174.028752 
L 380.036 174.345771 
L 382.012922 174.190838 
L 382.23258 174.273156 
L 382.452238 174.087438 
L 382.891554 174.129044 
L 383.550528 173.853157 
L 383.770186 173.915968 
L 383.989844 173.778881 
L 384.868476 173.869185 
L 385.088134 173.756601 
L 385.966766 174.07968 
L 386.62574 174.10719 
L 386.845398 174.065214 
L 387.065056 174.182758 
L 387.284714 174.166567 
L 387.943688 173.867977 
L 388.602662 173.797406 
L 389.041978 173.686945 
L 389.481294 173.843491 
L 390.140268 174.087471 
L 391.0189 173.997288 
L 391.238558 174.179414 
L 391.458216 174.121998 
L 391.677874 174.291692 
L 392.11719 174.227377 
L 393.21548 174.255712 
L 394.094112 174.13342 
L 394.31377 174.18359 
L 394.972744 174.025322 
L 396.290693 174.388383 
L 397.169325 174.290312 
L 397.388983 174.464056 
L 397.828299 174.489942 
L 398.487273 174.528 
L 398.487273 174.528 
" clip-path="url(#p4e46ba76c7)" style="fill: none; stroke: #2ca02c; stroke-opacity: 0.7; stroke-width: 1.5; stroke-linecap: square"/>
   </g>
   <g id="patch_3">
    <path d="M 57.6 307.584 
L 57.6 41.472 
" style="fill: none; stroke: #000000; stroke-width: 0.8; stroke-linejoin: miter; stroke-linecap: square"/>
   </g>
   <g id="patch_4">
    <path d="M 414.72 307.584 
L 414.72 41.472 
" style="fill: none; stroke: #000000; stroke-width: 0.8; stroke-linejoin: miter; stroke-linecap: square"/>
   </g>
   <g id="patch_5">
    <path d="M 57.6 307.584 
L 414.72 307.584 
" style="fill: none; stroke: #000000; stroke-width: 0.8; stroke-linejoin: miter; stroke-linecap: square"/>
   </g>
   <g id="patch_6">
    <path d="M 57.6 41.472 
L 414.72 41.472 
" style="fill: none; stroke: #000000; stroke-width: 0.8; stroke-linejoin: miter; stroke-linecap: square"/>
   </g>
   <g id="text_14">
    <!-- max_clique_snp500 -->
    <g transform="translate(176.961563 35.472) scale(0.12 -0.12)">
     <defs>
      <path id="DejaVuSans-6d" d="M 3328 2828 
Q 3544 3216 3844 3400 
Q 4144 3584 4550 3584 
Q 5097 3584 5394 3201 
Q 5691 2819 5691 2113 
L 5691 0 
L 5113 0 
L 5113 2094 
Q 5113 2597 4934 2840 
Q 4756 3084 4391 3084 
Q 3944 3084 3684 2787 
Q 3425 2491 3425 1978 
L 3425 0 
L 2847 0 
L 2847 2094 
Q 2847 2600 2669 2842 
Q 2491 3084 2119 3084 
Q 1678 3084 1418 2786 
Q 1159 2488 1159 1978 
L 1159 0 
L 581 0 
L 581 3500 
L 1159 3500 
L 1159 2956 
Q 1356 3278 1631 3431 
Q 1906 3584 2284 3584 
Q 2666 3584 2933 3390 
Q 3200 3197 3328 2828 
z
" transform="scale(0.015625)"/>
      <path id="DejaVuSans-61" d="M 2194 1759 
Q 1497 1759 1228 1600 
Q 959 1441 959 1056 
Q 959 750 1161 570 
Q 1363 391 1709 391 
Q 2188 391 2477 730 
Q 2766 1069 2766 1631 
L 2766 1759 
L 2194 1759 
z
M 3341 1997 
L 3341 0 
L 2766 0 
L 2766 531 
Q 2569 213 2275 61 
Q 1981 -91 1556 -91 
Q 1019 -91 701 211 
Q 384 513 384 1019 
Q 384 1609 779 1909 
Q 1175 2209 1959 2209 
L 2766 2209 
L 2766 2266 
Q 2766 2663 2505 2880 
Q 2244 3097 1772 3097 
Q 1472 3097 1187 3025 
Q 903 2953 641 2809 
L 641 3341 
Q 956 3463 1253 3523 
Q 1550 3584 1831 3584 
Q 2591 3584 2966 3190 
Q 3341 2797 3341 1997 
z
" transform="scale(0.015625)"/>
      <path id="DejaVuSans-78" d="M 3513 3500 
L 2247 1797 
L 3578 0 
L 2900 0 
L 1881 1375 
L 863 0 
L 184 0 
L 1544 1831 
L 300 3500 
L 978 3500 
L 1906 2253 
L 2834 3500 
L 3513 3500 
z
" transform="scale(0.015625)"/>
      <path id="DejaVuSans-5f" d="M 3263 -1063 
L 3263 -1509 
L -63 -1509 
L -63 -1063 
L 3263 -1063 
z
" transform="scale(0.015625)"/>
      <path id="DejaVuSans-63" d="M 3122 3366 
L 3122 2828 
Q 2878 2963 2633 3030 
Q 2388 3097 2138 3097 
Q 1578 3097 1268 2742 
Q 959 2388 959 1747 
Q 959 1106 1268 751 
Q 1578 397 2138 397 
Q 2388 397 2633 464 
Q 2878 531 3122 666 
L 3122 134 
Q 2881 22 2623 -34 
Q 2366 -91 2075 -91 
Q 1284 -91 818 406 
Q 353 903 353 1747 
Q 353 2603 823 3093 
Q 1294 3584 2113 3584 
Q 2378 3584 2631 3529 
Q 2884 3475 3122 3366 
z
" transform="scale(0.015625)"/>
      <path id="DejaVuSans-6c" d="M 603 4863 
L 1178 4863 
L 1178 0 
L 603 0 
L 603 4863 
z
" transform="scale(0.015625)"/>
      <path id="DejaVuSans-69" d="M 603 3500 
L 1178 3500 
L 1178 0 
L 603 0 
L 603 3500 
z
M 603 4863 
L 1178 4863 
L 1178 4134 
L 603 4134 
L 603 4863 
z
" transform="scale(0.015625)"/>
      <path id="DejaVuSans-71" d="M 947 1747 
Q 947 1113 1208 752 
Q 1469 391 1925 391 
Q 2381 391 2643 752 
Q 2906 1113 2906 1747 
Q 2906 2381 2643 2742 
Q 2381 3103 1925 3103 
Q 1469 3103 1208 2742 
Q 947 2381 947 1747 
z
M 2906 525 
Q 2725 213 2448 61 
Q 2172 -91 1784 -91 
Q 1150 -91 751 415 
Q 353 922 353 1747 
Q 353 2572 751 3078 
Q 1150 3584 1784 3584 
Q 2172 3584 2448 3432 
Q 2725 3281 2906 2969 
L 2906 3500 
L 3481 3500 
L 3481 -1331 
L 2906 -1331 
L 2906 525 
z
" transform="scale(0.015625)"/>
      <path id="DejaVuSans-75" d="M 544 1381 
L 544 3500 
L 1119 3500 
L 1119 1403 
Q 1119 906 1312 657 
Q 1506 409 1894 409 
Q 2359 409 2629 706 
Q 2900 1003 2900 1516 
L 2900 3500 
L 3475 3500 
L 3475 0 
L 2900 0 
L 2900 538 
Q 2691 219 2414 64 
Q 2138 -91 1772 -91 
Q 1169 -91 856 284 
Q 544 659 544 1381 
z
M 1991 3584 
L 1991 3584 
z
" transform="scale(0.015625)"/>
      <path id="DejaVuSans-65" d="M 3597 1894 
L 3597 1613 
L 953 1613 
Q 991 1019 1311 708 
Q 1631 397 2203 397 
Q 2534 397 2845 478 
Q 3156 559 3463 722 
L 3463 178 
Q 3153 47 2828 -22 
Q 2503 -91 2169 -91 
Q 1331 -91 842 396 
Q 353 884 353 1716 
Q 353 2575 817 3079 
Q 1281 3584 2069 3584 
Q 2775 3584 3186 3129 
Q 3597 2675 3597 1894 
z
M 3022 2063 
Q 3016 2534 2758 2815 
Q 2500 3097 2075 3097 
Q 1594 3097 1305 2825 
Q 1016 2553 972 2059 
L 3022 2063 
z
" transform="scale(0.015625)"/>
      <path id="DejaVuSans-73" d="M 2834 3397 
L 2834 2853 
Q 2591 2978 2328 3040 
Q 2066 3103 1784 3103 
Q 1356 3103 1142 2972 
Q 928 2841 928 2578 
Q 928 2378 1081 2264 
Q 1234 2150 1697 2047 
L 1894 2003 
Q 2506 1872 2764 1633 
Q 3022 1394 3022 966 
Q 3022 478 2636 193 
Q 2250 -91 1575 -91 
Q 1294 -91 989 -36 
Q 684 19 347 128 
L 347 722 
Q 666 556 975 473 
Q 1284 391 1588 391 
Q 1994 391 2212 530 
Q 2431 669 2431 922 
Q 2431 1156 2273 1281 
Q 2116 1406 1581 1522 
L 1381 1569 
Q 847 1681 609 1914 
Q 372 2147 372 2553 
Q 372 3047 722 3315 
Q 1072 3584 1716 3584 
Q 2034 3584 2315 3537 
Q 2597 3491 2834 3397 
z
" transform="scale(0.015625)"/>
      <path id="DejaVuSans-6e" d="M 3513 2113 
L 3513 0 
L 2938 0 
L 2938 2094 
Q 2938 2591 2744 2837 
Q 2550 3084 2163 3084 
Q 1697 3084 1428 2787 
Q 1159 2491 1159 1978 
L 1159 0 
L 581 0 
L 581 3500 
L 1159 3500 
L 1159 2956 
Q 1366 3272 1645 3428 
Q 1925 3584 2291 3584 
Q 2894 3584 3203 3211 
Q 3513 2838 3513 2113 
z
" transform="scale(0.015625)"/>
      <path id="DejaVuSans-70" d="M 1159 525 
L 1159 -1331 
L 581 -1331 
L 581 3500 
L 1159 3500 
L 1159 2969 
Q 1341 3281 1617 3432 
Q 1894 3584 2278 3584 
Q 2916 3584 3314 3078 
Q 3713 2572 3713 1747 
Q 3713 922 3314 415 
Q 2916 -91 2278 -91 
Q 1894 -91 1617 61 
Q 1341 213 1159 525 
z
M 3116 1747 
Q 3116 2381 2855 2742 
Q 2594 3103 2138 3103 
Q 1681 3103 1420 2742 
Q 1159 2381 1159 1747 
Q 1159 1113 1420 752 
Q 1681 391 2138 391 
Q 2594 391 2855 752 
Q 3116 1113 3116 1747 
z
" transform="scale(0.015625)"/>
      <path id="DejaVuSans-35" d="M 691 4666 
L 3169 4666 
L 3169 4134 
L 1269 4134 
L 1269 2991 
Q 1406 3038 1543 3061 
Q 1681 3084 1819 3084 
Q 2600 3084 3056 2656 
Q 3513 2228 3513 1497 
Q 3513 744 3044 326 
Q 2575 -91 1722 -91 
Q 1428 -91 1123 -41 
Q 819 9 494 109 
L 494 744 
Q 775 591 1075 516 
Q 1375 441 1709 441 
Q 2250 441 2565 725 
Q 2881 1009 2881 1497 
Q 2881 1984 2565 2268 
Q 2250 2553 1709 2553 
Q 1456 2553 1204 2497 
Q 953 2441 691 2322 
L 691 4666 
z
" transform="scale(0.015625)"/>
     </defs>
     <use xlink:href="#DejaVuSans-6d"/>
     <use xlink:href="#DejaVuSans-61" x="97.412109"/>
     <use xlink:href="#DejaVuSans-78" x="158.691406"/>
     <use xlink:href="#DejaVuSans-5f" x="217.871094"/>
     <use xlink:href="#DejaVuSans-63" x="267.871094"/>
     <use xlink:href="#DejaVuSans-6c" x="322.851562"/>
     <use xlink:href="#DejaVuSans-69" x="350.634766"/>
     <use xlink:href="#DejaVuSans-71" x="378.417969"/>
     <use xlink:href="#DejaVuSans-75" x="441.894531"/>
     <use xlink:href="#DejaVuSans-65" x="505.273438"/>
     <use xlink:href="#DejaVuSans-5f" x="566.796875"/>
     <use xlink:href="#DejaVuSans-73" x="616.796875"/>
     <use xlink:href="#DejaVuSans-6e" x="668.896484"/>
     <use xlink:href="#DejaVuSans-70" x="732.275391"/>
     <use xlink:href="#DejaVuSans-35" x="795.751953"/>
     <use xlink:href="#DejaVuSans-30" x="859.375"/>
     <use xlink:href="#DejaVuSans-30" x="922.998047"/>
    </g>
   </g>
   <g id="legend_1">
    <g id="patch_7">
     <path d="M 64.6 93.506375 
L 258.804688 93.506375 
Q 260.804688 93.506375 260.804688 91.506375 
L 260.804688 48.472 
Q 260.804688 46.472 258.804688 46.472 
L 64.6 46.472 
Q 62.6 46.472 62.6 48.472 
L 62.6 91.506375 
Q 62.6 93.506375 64.6 93.506375 
z
" style="fill: #ffffff; opacity: 0.8; stroke: #cccccc; stroke-linejoin: miter"/>
    </g>
    <g id="line2d_17">
     <path d="M 66.6 54.570438 
L 76.6 54.570438 
L 86.6 54.570438 
" style="fill: none; stroke: #1f77b4; stroke-opacity: 0.7; stroke-width: 1.5; stroke-linecap: square"/>
    </g>
    <g id="text_15">
     <!-- Positive cumulative predictions -->
     <g transform="translate(94.6 58.070438) scale(0.1 -0.1)">
      <defs>
       <path id="DejaVuSans-50" d="M 1259 4147 
L 1259 2394 
L 2053 2394 
Q 2494 2394 2734 2622 
Q 2975 2850 2975 3272 
Q 2975 3691 2734 3919 
Q 2494 4147 2053 4147 
L 1259 4147 
z
M 628 4666 
L 2053 4666 
Q 2838 4666 3239 4311 
Q 3641 3956 3641 3272 
Q 3641 2581 3239 2228 
Q 2838 1875 2053 1875 
L 1259 1875 
L 1259 0 
L 628 0 
L 628 4666 
z
" transform="scale(0.015625)"/>
       <path id="DejaVuSans-6f" d="M 1959 3097 
Q 1497 3097 1228 2736 
Q 959 2375 959 1747 
Q 959 1119 1226 758 
Q 1494 397 1959 397 
Q 2419 397 2687 759 
Q 2956 1122 2956 1747 
Q 2956 2369 2687 2733 
Q 2419 3097 1959 3097 
z
M 1959 3584 
Q 2709 3584 3137 3096 
Q 3566 2609 3566 1747 
Q 3566 888 3137 398 
Q 2709 -91 1959 -91 
Q 1206 -91 779 398 
Q 353 888 353 1747 
Q 353 2609 779 3096 
Q 1206 3584 1959 3584 
z
" transform="scale(0.015625)"/>
       <path id="DejaVuSans-74" d="M 1172 4494 
L 1172 3500 
L 2356 3500 
L 2356 3053 
L 1172 3053 
L 1172 1153 
Q 1172 725 1289 603 
Q 1406 481 1766 481 
L 2356 481 
L 2356 0 
L 1766 0 
Q 1100 0 847 248 
Q 594 497 594 1153 
L 594 3053 
L 172 3053 
L 172 3500 
L 594 3500 
L 594 4494 
L 1172 4494 
z
" transform="scale(0.015625)"/>
       <path id="DejaVuSans-76" d="M 191 3500 
L 800 3500 
L 1894 563 
L 2988 3500 
L 3597 3500 
L 2284 0 
L 1503 0 
L 191 3500 
z
" transform="scale(0.015625)"/>
       <path id="DejaVuSans-20" transform="scale(0.015625)"/>
       <path id="DejaVuSans-72" d="M 2631 2963 
Q 2534 3019 2420 3045 
Q 2306 3072 2169 3072 
Q 1681 3072 1420 2755 
Q 1159 2438 1159 1844 
L 1159 0 
L 581 0 
L 581 3500 
L 1159 3500 
L 1159 2956 
Q 1341 3275 1631 3429 
Q 1922 3584 2338 3584 
Q 2397 3584 2469 3576 
Q 2541 3569 2628 3553 
L 2631 2963 
z
" transform="scale(0.015625)"/>
       <path id="DejaVuSans-64" d="M 2906 2969 
L 2906 4863 
L 3481 4863 
L 3481 0 
L 2906 0 
L 2906 525 
Q 2725 213 2448 61 
Q 2172 -91 1784 -91 
Q 1150 -91 751 415 
Q 353 922 353 1747 
Q 353 2572 751 3078 
Q 1150 3584 1784 3584 
Q 2172 3584 2448 3432 
Q 2725 3281 2906 2969 
z
M 947 1747 
Q 947 1113 1208 752 
Q 1469 391 1925 391 
Q 2381 391 2643 752 
Q 2906 1113 2906 1747 
Q 2906 2381 2643 2742 
Q 2381 3103 1925 3103 
Q 1469 3103 1208 2742 
Q 947 2381 947 1747 
z
" transform="scale(0.015625)"/>
      </defs>
      <use xlink:href="#DejaVuSans-50"/>
      <use xlink:href="#DejaVuSans-6f" x="56.677734"/>
      <use xlink:href="#DejaVuSans-73" x="117.859375"/>
      <use xlink:href="#DejaVuSans-69" x="169.958984"/>
      <use xlink:href="#DejaVuSans-74" x="197.742188"/>
      <use xlink:href="#DejaVuSans-69" x="236.951172"/>
      <use xlink:href="#DejaVuSans-76" x="264.734375"/>
      <use xlink:href="#DejaVuSans-65" x="323.914062"/>
      <use xlink:href="#DejaVuSans-20" x="385.4375"/>
      <use xlink:href="#DejaVuSans-63" x="417.224609"/>
      <use xlink:href="#DejaVuSans-75" x="472.205078"/>
      <use xlink:href="#DejaVuSans-6d" x="535.583984"/>
      <use xlink:href="#DejaVuSans-75" x="632.996094"/>
      <use xlink:href="#DejaVuSans-6c" x="696.375"/>
      <use xlink:href="#DejaVuSans-61" x="724.158203"/>
      <use xlink:href="#DejaVuSans-74" x="785.4375"/>
      <use xlink:href="#DejaVuSans-69" x="824.646484"/>
      <use xlink:href="#DejaVuSans-76" x="852.429688"/>
      <use xlink:href="#DejaVuSans-65" x="911.609375"/>
      <use xlink:href="#DejaVuSans-20" x="973.132812"/>
      <use xlink:href="#DejaVuSans-70" x="1004.919922"/>
      <use xlink:href="#DejaVuSans-72" x="1068.396484"/>
      <use xlink:href="#DejaVuSans-65" x="1107.259766"/>
      <use xlink:href="#DejaVuSans-64" x="1168.783203"/>
      <use xlink:href="#DejaVuSans-69" x="1232.259766"/>
      <use xlink:href="#DejaVuSans-63" x="1260.042969"/>
      <use xlink:href="#DejaVuSans-74" x="1315.023438"/>
      <use xlink:href="#DejaVuSans-69" x="1354.232422"/>
      <use xlink:href="#DejaVuSans-6f" x="1382.015625"/>
      <use xlink:href="#DejaVuSans-6e" x="1443.197266"/>
      <use xlink:href="#DejaVuSans-73" x="1506.576172"/>
     </g>
    </g>
    <g id="line2d_18">
     <path d="M 66.6 69.248563 
L 76.6 69.248563 
L 86.6 69.248563 
" style="fill: none; stroke: #ff7f0e; stroke-opacity: 0.7; stroke-width: 1.5; stroke-linecap: square"/>
    </g>
    <g id="text_16">
     <!-- Negative cumulative predictions -->
     <g transform="translate(94.6 72.748563) scale(0.1 -0.1)">
      <defs>
       <path id="DejaVuSans-4e" d="M 628 4666 
L 1478 4666 
L 3547 763 
L 3547 4666 
L 4159 4666 
L 4159 0 
L 3309 0 
L 1241 3903 
L 1241 0 
L 628 0 
L 628 4666 
z
" transform="scale(0.015625)"/>
       <path id="DejaVuSans-67" d="M 2906 1791 
Q 2906 2416 2648 2759 
Q 2391 3103 1925 3103 
Q 1463 3103 1205 2759 
Q 947 2416 947 1791 
Q 947 1169 1205 825 
Q 1463 481 1925 481 
Q 2391 481 2648 825 
Q 2906 1169 2906 1791 
z
M 3481 434 
Q 3481 -459 3084 -895 
Q 2688 -1331 1869 -1331 
Q 1566 -1331 1297 -1286 
Q 1028 -1241 775 -1147 
L 775 -588 
Q 1028 -725 1275 -790 
Q 1522 -856 1778 -856 
Q 2344 -856 2625 -561 
Q 2906 -266 2906 331 
L 2906 616 
Q 2728 306 2450 153 
Q 2172 0 1784 0 
Q 1141 0 747 490 
Q 353 981 353 1791 
Q 353 2603 747 3093 
Q 1141 3584 1784 3584 
Q 2172 3584 2450 3431 
Q 2728 3278 2906 2969 
L 2906 3500 
L 3481 3500 
L 3481 434 
z
" transform="scale(0.015625)"/>
      </defs>
      <use xlink:href="#DejaVuSans-4e"/>
      <use xlink:href="#DejaVuSans-65" x="74.804688"/>
      <use xlink:href="#DejaVuSans-67" x="136.328125"/>
      <use xlink:href="#DejaVuSans-61" x="199.804688"/>
      <use xlink:href="#DejaVuSans-74" x="261.083984"/>
      <use xlink:href="#DejaVuSans-69" x="300.292969"/>
      <use xlink:href="#DejaVuSans-76" x="328.076172"/>
      <use xlink:href="#DejaVuSans-65" x="387.255859"/>
      <use xlink:href="#DejaVuSans-20" x="448.779297"/>
      <use xlink:href="#DejaVuSans-63" x="480.566406"/>
      <use xlink:href="#DejaVuSans-75" x="535.546875"/>
      <use xlink:href="#DejaVuSans-6d" x="598.925781"/>
      <use xlink:href="#DejaVuSans-75" x="696.337891"/>
      <use xlink:href="#DejaVuSans-6c" x="759.716797"/>
      <use xlink:href="#DejaVuSans-61" x="787.5"/>
      <use xlink:href="#DejaVuSans-74" x="848.779297"/>
      <use xlink:href="#DejaVuSans-69" x="887.988281"/>
      <use xlink:href="#DejaVuSans-76" x="915.771484"/>
      <use xlink:href="#DejaVuSans-65" x="974.951172"/>
      <use xlink:href="#DejaVuSans-20" x="1036.474609"/>
      <use xlink:href="#DejaVuSans-70" x="1068.261719"/>
      <use xlink:href="#DejaVuSans-72" x="1131.738281"/>
      <use xlink:href="#DejaVuSans-65" x="1170.601562"/>
      <use xlink:href="#DejaVuSans-64" x="1232.125"/>
      <use xlink:href="#DejaVuSans-69" x="1295.601562"/>
      <use xlink:href="#DejaVuSans-63" x="1323.384766"/>
      <use xlink:href="#DejaVuSans-74" x="1378.365234"/>
      <use xlink:href="#DejaVuSans-69" x="1417.574219"/>
      <use xlink:href="#DejaVuSans-6f" x="1445.357422"/>
      <use xlink:href="#DejaVuSans-6e" x="1506.539062"/>
      <use xlink:href="#DejaVuSans-73" x="1569.917969"/>
     </g>
    </g>
    <g id="line2d_19">
     <path d="M 66.6 83.926688 
L 76.6 83.926688 
L 86.6 83.926688 
" style="fill: none; stroke: #2ca02c; stroke-opacity: 0.7; stroke-width: 1.5; stroke-linecap: square"/>
    </g>
    <g id="text_17">
     <!-- Average cumulative predictions -->
     <g transform="translate(94.6 87.426688) scale(0.1 -0.1)">
      <defs>
       <path id="DejaVuSans-41" d="M 2188 4044 
L 1331 1722 
L 3047 1722 
L 2188 4044 
z
M 1831 4666 
L 2547 4666 
L 4325 0 
L 3669 0 
L 3244 1197 
L 1141 1197 
L 716 0 
L 50 0 
L 1831 4666 
z
" transform="scale(0.015625)"/>
      </defs>
      <use xlink:href="#DejaVuSans-41"/>
      <use xlink:href="#DejaVuSans-76" x="62.533203"/>
      <use xlink:href="#DejaVuSans-65" x="121.712891"/>
      <use xlink:href="#DejaVuSans-72" x="183.236328"/>
      <use xlink:href="#DejaVuSans-61" x="224.349609"/>
      <use xlink:href="#DejaVuSans-67" x="285.628906"/>
      <use xlink:href="#DejaVuSans-65" x="349.105469"/>
      <use xlink:href="#DejaVuSans-20" x="410.628906"/>
      <use xlink:href="#DejaVuSans-63" x="442.416016"/>
      <use xlink:href="#DejaVuSans-75" x="497.396484"/>
      <use xlink:href="#DejaVuSans-6d" x="560.775391"/>
      <use xlink:href="#DejaVuSans-75" x="658.1875"/>
      <use xlink:href="#DejaVuSans-6c" x="721.566406"/>
      <use xlink:href="#DejaVuSans-61" x="749.349609"/>
      <use xlink:href="#DejaVuSans-74" x="810.628906"/>
      <use xlink:href="#DejaVuSans-69" x="849.837891"/>
      <use xlink:href="#DejaVuSans-76" x="877.621094"/>
      <use xlink:href="#DejaVuSans-65" x="936.800781"/>
      <use xlink:href="#DejaVuSans-20" x="998.324219"/>
      <use xlink:href="#DejaVuSans-70" x="1030.111328"/>
      <use xlink:href="#DejaVuSans-72" x="1093.587891"/>
      <use xlink:href="#DejaVuSans-65" x="1132.451172"/>
      <use xlink:href="#DejaVuSans-64" x="1193.974609"/>
      <use xlink:href="#DejaVuSans-69" x="1257.451172"/>
      <use xlink:href="#DejaVuSans-63" x="1285.234375"/>
      <use xlink:href="#DejaVuSans-74" x="1340.214844"/>
      <use xlink:href="#DejaVuSans-69" x="1379.423828"/>
      <use xlink:href="#DejaVuSans-6f" x="1407.207031"/>
      <use xlink:href="#DejaVuSans-6e" x="1468.388672"/>
      <use xlink:href="#DejaVuSans-73" x="1531.767578"/>
     </g>
    </g>
   </g>
  </g>
 </g>
 <defs>
  <clipPath id="p4e46ba76c7">
   <rect x="57.6" y="41.472" width="357.12" height="266.112"/>
  </clipPath>
 </defs>
</svg>
