<?xml version="1.0" encoding="utf-8" standalone="no"?>
<!DOCTYPE svg PUBLIC "-//W3C//DTD SVG 1.1//EN"
  "http://www.w3.org/Graphics/SVG/1.1/DTD/svg11.dtd">
<svg xmlns:xlink="http://www.w3.org/1999/xlink" width="460.8pt" height="345.6pt" viewBox="0 0 460.8 345.6" xmlns="http://www.w3.org/2000/svg" version="1.1">
 <metadata>
  <rdf:RDF xmlns:dc="http://purl.org/dc/elements/1.1/" xmlns:cc="http://creativecommons.org/ns#" xmlns:rdf="http://www.w3.org/1999/02/22-rdf-syntax-ns#">
   <cc:Work>
    <dc:type rdf:resource="http://purl.org/dc/dcmitype/StillImage"/>
    <dc:date>2024-07-19T09:40:29.413269</dc:date>
    <dc:format>image/svg+xml</dc:format>
    <dc:creator>
     <cc:Agent>
      <dc:title>Matplotlib v3.9.0, https://matplotlib.org/</dc:title>
     </cc:Agent>
    </dc:creator>
   </cc:Work>
  </rdf:RDF>
 </metadata>
 <defs>
  <style type="text/css">*{stroke-linejoin: round; stroke-linecap: butt}</style>
 </defs>
 <g id="figure_1">
  <g id="patch_1">
   <path d="M 0 345.6 
L 460.8 345.6 
L 460.8 0 
L 0 0 
z
" style="fill: #ffffff"/>
  </g>
  <g id="axes_1">
   <g id="patch_2">
    <path d="M 57.6 307.584 
L 414.72 307.584 
L 414.72 41.472 
L 57.6 41.472 
z
" style="fill: #ffffff"/>
   </g>
   <g id="matplotlib.axis_1">
    <g id="xtick_1">
     <g id="line2d_1">
      <defs>
       <path id="mc88c9766d2" d="M 0 0 
L 0 3.5 
" style="stroke: #000000; stroke-width: 0.8"/>
      </defs>
      <g>
       <use xlink:href="#mc88c9766d2" x="73.832727" y="307.584" style="stroke: #000000; stroke-width: 0.8"/>
      </g>
     </g>
     <g id="text_1">
      <!-- 0 -->
      <g transform="translate(70.651477 322.182437) scale(0.1 -0.1)">
       <defs>
        <path id="DejaVuSans-30" d="M 2034 4250 
Q 1547 4250 1301 3770 
Q 1056 3291 1056 2328 
Q 1056 1369 1301 889 
Q 1547 409 2034 409 
Q 2525 409 2770 889 
Q 3016 1369 3016 2328 
Q 3016 3291 2770 3770 
Q 2525 4250 2034 4250 
z
M 2034 4750 
Q 2819 4750 3233 4129 
Q 3647 3509 3647 2328 
Q 3647 1150 3233 529 
Q 2819 -91 2034 -91 
Q 1250 -91 836 529 
Q 422 1150 422 2328 
Q 422 3509 836 4129 
Q 1250 4750 2034 4750 
z
" transform="scale(0.015625)"/>
       </defs>
       <use xlink:href="#DejaVuSans-30"/>
      </g>
     </g>
    </g>
    <g id="xtick_2">
     <g id="line2d_2">
      <g>
       <use xlink:href="#mc88c9766d2" x="116.27123" y="307.584" style="stroke: #000000; stroke-width: 0.8"/>
      </g>
     </g>
     <g id="text_2">
      <!-- 20 -->
      <g transform="translate(109.90873 322.182437) scale(0.1 -0.1)">
       <defs>
        <path id="DejaVuSans-32" d="M 1228 531 
L 3431 531 
L 3431 0 
L 469 0 
L 469 531 
Q 828 903 1448 1529 
Q 2069 2156 2228 2338 
Q 2531 2678 2651 2914 
Q 2772 3150 2772 3378 
Q 2772 3750 2511 3984 
Q 2250 4219 1831 4219 
Q 1534 4219 1204 4116 
Q 875 4013 500 3803 
L 500 4441 
Q 881 4594 1212 4672 
Q 1544 4750 1819 4750 
Q 2544 4750 2975 4387 
Q 3406 4025 3406 3419 
Q 3406 3131 3298 2873 
Q 3191 2616 2906 2266 
Q 2828 2175 2409 1742 
Q 1991 1309 1228 531 
z
" transform="scale(0.015625)"/>
       </defs>
       <use xlink:href="#DejaVuSans-32"/>
       <use xlink:href="#DejaVuSans-30" x="63.623047"/>
      </g>
     </g>
    </g>
    <g id="xtick_3">
     <g id="line2d_3">
      <g>
       <use xlink:href="#mc88c9766d2" x="158.709733" y="307.584" style="stroke: #000000; stroke-width: 0.8"/>
      </g>
     </g>
     <g id="text_3">
      <!-- 40 -->
      <g transform="translate(152.347233 322.182437) scale(0.1 -0.1)">
       <defs>
        <path id="DejaVuSans-34" d="M 2419 4116 
L 825 1625 
L 2419 1625 
L 2419 4116 
z
M 2253 4666 
L 3047 4666 
L 3047 1625 
L 3713 1625 
L 3713 1100 
L 3047 1100 
L 3047 0 
L 2419 0 
L 2419 1100 
L 313 1100 
L 313 1709 
L 2253 4666 
z
" transform="scale(0.015625)"/>
       </defs>
       <use xlink:href="#DejaVuSans-34"/>
       <use xlink:href="#DejaVuSans-30" x="63.623047"/>
      </g>
     </g>
    </g>
    <g id="xtick_4">
     <g id="line2d_4">
      <g>
       <use xlink:href="#mc88c9766d2" x="201.148235" y="307.584" style="stroke: #000000; stroke-width: 0.8"/>
      </g>
     </g>
     <g id="text_4">
      <!-- 60 -->
      <g transform="translate(194.785735 322.182437) scale(0.1 -0.1)">
       <defs>
        <path id="DejaVuSans-36" d="M 2113 2584 
Q 1688 2584 1439 2293 
Q 1191 2003 1191 1497 
Q 1191 994 1439 701 
Q 1688 409 2113 409 
Q 2538 409 2786 701 
Q 3034 994 3034 1497 
Q 3034 2003 2786 2293 
Q 2538 2584 2113 2584 
z
M 3366 4563 
L 3366 3988 
Q 3128 4100 2886 4159 
Q 2644 4219 2406 4219 
Q 1781 4219 1451 3797 
Q 1122 3375 1075 2522 
Q 1259 2794 1537 2939 
Q 1816 3084 2150 3084 
Q 2853 3084 3261 2657 
Q 3669 2231 3669 1497 
Q 3669 778 3244 343 
Q 2819 -91 2113 -91 
Q 1303 -91 875 529 
Q 447 1150 447 2328 
Q 447 3434 972 4092 
Q 1497 4750 2381 4750 
Q 2619 4750 2861 4703 
Q 3103 4656 3366 4563 
z
" transform="scale(0.015625)"/>
       </defs>
       <use xlink:href="#DejaVuSans-36"/>
       <use xlink:href="#DejaVuSans-30" x="63.623047"/>
      </g>
     </g>
    </g>
    <g id="xtick_5">
     <g id="line2d_5">
      <g>
       <use xlink:href="#mc88c9766d2" x="243.586738" y="307.584" style="stroke: #000000; stroke-width: 0.8"/>
      </g>
     </g>
     <g id="text_5">
      <!-- 80 -->
      <g transform="translate(237.224238 322.182437) scale(0.1 -0.1)">
       <defs>
        <path id="DejaVuSans-38" d="M 2034 2216 
Q 1584 2216 1326 1975 
Q 1069 1734 1069 1313 
Q 1069 891 1326 650 
Q 1584 409 2034 409 
Q 2484 409 2743 651 
Q 3003 894 3003 1313 
Q 3003 1734 2745 1975 
Q 2488 2216 2034 2216 
z
M 1403 2484 
Q 997 2584 770 2862 
Q 544 3141 544 3541 
Q 544 4100 942 4425 
Q 1341 4750 2034 4750 
Q 2731 4750 3128 4425 
Q 3525 4100 3525 3541 
Q 3525 3141 3298 2862 
Q 3072 2584 2669 2484 
Q 3125 2378 3379 2068 
Q 3634 1759 3634 1313 
Q 3634 634 3220 271 
Q 2806 -91 2034 -91 
Q 1263 -91 848 271 
Q 434 634 434 1313 
Q 434 1759 690 2068 
Q 947 2378 1403 2484 
z
M 1172 3481 
Q 1172 3119 1398 2916 
Q 1625 2713 2034 2713 
Q 2441 2713 2670 2916 
Q 2900 3119 2900 3481 
Q 2900 3844 2670 4047 
Q 2441 4250 2034 4250 
Q 1625 4250 1398 4047 
Q 1172 3844 1172 3481 
z
" transform="scale(0.015625)"/>
       </defs>
       <use xlink:href="#DejaVuSans-38"/>
       <use xlink:href="#DejaVuSans-30" x="63.623047"/>
      </g>
     </g>
    </g>
    <g id="xtick_6">
     <g id="line2d_6">
      <g>
       <use xlink:href="#mc88c9766d2" x="286.025241" y="307.584" style="stroke: #000000; stroke-width: 0.8"/>
      </g>
     </g>
     <g id="text_6">
      <!-- 100 -->
      <g transform="translate(276.481491 322.182437) scale(0.1 -0.1)">
       <defs>
        <path id="DejaVuSans-31" d="M 794 531 
L 1825 531 
L 1825 4091 
L 703 3866 
L 703 4441 
L 1819 4666 
L 2450 4666 
L 2450 531 
L 3481 531 
L 3481 0 
L 794 0 
L 794 531 
z
" transform="scale(0.015625)"/>
       </defs>
       <use xlink:href="#DejaVuSans-31"/>
       <use xlink:href="#DejaVuSans-30" x="63.623047"/>
       <use xlink:href="#DejaVuSans-30" x="127.246094"/>
      </g>
     </g>
    </g>
    <g id="xtick_7">
     <g id="line2d_7">
      <g>
       <use xlink:href="#mc88c9766d2" x="328.463743" y="307.584" style="stroke: #000000; stroke-width: 0.8"/>
      </g>
     </g>
     <g id="text_7">
      <!-- 120 -->
      <g transform="translate(318.919993 322.182437) scale(0.1 -0.1)">
       <use xlink:href="#DejaVuSans-31"/>
       <use xlink:href="#DejaVuSans-32" x="63.623047"/>
       <use xlink:href="#DejaVuSans-30" x="127.246094"/>
      </g>
     </g>
    </g>
    <g id="xtick_8">
     <g id="line2d_8">
      <g>
       <use xlink:href="#mc88c9766d2" x="370.902246" y="307.584" style="stroke: #000000; stroke-width: 0.8"/>
      </g>
     </g>
     <g id="text_8">
      <!-- 140 -->
      <g transform="translate(361.358496 322.182437) scale(0.1 -0.1)">
       <use xlink:href="#DejaVuSans-31"/>
       <use xlink:href="#DejaVuSans-34" x="63.623047"/>
       <use xlink:href="#DejaVuSans-30" x="127.246094"/>
      </g>
     </g>
    </g>
    <g id="xtick_9">
     <g id="line2d_9">
      <g>
       <use xlink:href="#mc88c9766d2" x="413.340749" y="307.584" style="stroke: #000000; stroke-width: 0.8"/>
      </g>
     </g>
     <g id="text_9">
      <!-- 160 -->
      <g transform="translate(403.796999 322.182437) scale(0.1 -0.1)">
       <use xlink:href="#DejaVuSans-31"/>
       <use xlink:href="#DejaVuSans-36" x="63.623047"/>
       <use xlink:href="#DejaVuSans-30" x="127.246094"/>
      </g>
     </g>
    </g>
   </g>
   <g id="matplotlib.axis_2">
    <g id="ytick_1">
     <g id="line2d_10">
      <defs>
       <path id="m2915bef214" d="M 0 0 
L -3.5 0 
" style="stroke: #000000; stroke-width: 0.8"/>
      </defs>
      <g>
       <use xlink:href="#m2915bef214" x="57.6" y="281.299726" style="stroke: #000000; stroke-width: 0.8"/>
      </g>
     </g>
     <g id="text_10">
      <!-- −0.03 -->
      <g transform="translate(19.954687 285.098944) scale(0.1 -0.1)">
       <defs>
        <path id="DejaVuSans-2212" d="M 678 2272 
L 4684 2272 
L 4684 1741 
L 678 1741 
L 678 2272 
z
" transform="scale(0.015625)"/>
        <path id="DejaVuSans-2e" d="M 684 794 
L 1344 794 
L 1344 0 
L 684 0 
L 684 794 
z
" transform="scale(0.015625)"/>
        <path id="DejaVuSans-33" d="M 2597 2516 
Q 3050 2419 3304 2112 
Q 3559 1806 3559 1356 
Q 3559 666 3084 287 
Q 2609 -91 1734 -91 
Q 1441 -91 1130 -33 
Q 819 25 488 141 
L 488 750 
Q 750 597 1062 519 
Q 1375 441 1716 441 
Q 2309 441 2620 675 
Q 2931 909 2931 1356 
Q 2931 1769 2642 2001 
Q 2353 2234 1838 2234 
L 1294 2234 
L 1294 2753 
L 1863 2753 
Q 2328 2753 2575 2939 
Q 2822 3125 2822 3475 
Q 2822 3834 2567 4026 
Q 2313 4219 1838 4219 
Q 1578 4219 1281 4162 
Q 984 4106 628 3988 
L 628 4550 
Q 988 4650 1302 4700 
Q 1616 4750 1894 4750 
Q 2613 4750 3031 4423 
Q 3450 4097 3450 3541 
Q 3450 3153 3228 2886 
Q 3006 2619 2597 2516 
z
" transform="scale(0.015625)"/>
       </defs>
       <use xlink:href="#DejaVuSans-2212"/>
       <use xlink:href="#DejaVuSans-30" x="83.789062"/>
       <use xlink:href="#DejaVuSans-2e" x="147.412109"/>
       <use xlink:href="#DejaVuSans-30" x="179.199219"/>
       <use xlink:href="#DejaVuSans-33" x="242.822266"/>
      </g>
     </g>
    </g>
    <g id="ytick_2">
     <g id="line2d_11">
      <g>
       <use xlink:href="#m2915bef214" x="57.6" y="246.898691" style="stroke: #000000; stroke-width: 0.8"/>
      </g>
     </g>
     <g id="text_11">
      <!-- −0.02 -->
      <g transform="translate(19.954687 250.69791) scale(0.1 -0.1)">
       <use xlink:href="#DejaVuSans-2212"/>
       <use xlink:href="#DejaVuSans-30" x="83.789062"/>
       <use xlink:href="#DejaVuSans-2e" x="147.412109"/>
       <use xlink:href="#DejaVuSans-30" x="179.199219"/>
       <use xlink:href="#DejaVuSans-32" x="242.822266"/>
      </g>
     </g>
    </g>
    <g id="ytick_3">
     <g id="line2d_12">
      <g>
       <use xlink:href="#m2915bef214" x="57.6" y="212.497657" style="stroke: #000000; stroke-width: 0.8"/>
      </g>
     </g>
     <g id="text_12">
      <!-- −0.01 -->
      <g transform="translate(19.954687 216.296876) scale(0.1 -0.1)">
       <use xlink:href="#DejaVuSans-2212"/>
       <use xlink:href="#DejaVuSans-30" x="83.789062"/>
       <use xlink:href="#DejaVuSans-2e" x="147.412109"/>
       <use xlink:href="#DejaVuSans-30" x="179.199219"/>
       <use xlink:href="#DejaVuSans-31" x="242.822266"/>
      </g>
     </g>
    </g>
    <g id="ytick_4">
     <g id="line2d_13">
      <g>
       <use xlink:href="#m2915bef214" x="57.6" y="178.096623" style="stroke: #000000; stroke-width: 0.8"/>
      </g>
     </g>
     <g id="text_13">
      <!-- 0.00 -->
      <g transform="translate(28.334375 181.895842) scale(0.1 -0.1)">
       <use xlink:href="#DejaVuSans-30"/>
       <use xlink:href="#DejaVuSans-2e" x="63.623047"/>
       <use xlink:href="#DejaVuSans-30" x="95.410156"/>
       <use xlink:href="#DejaVuSans-30" x="159.033203"/>
      </g>
     </g>
    </g>
    <g id="ytick_5">
     <g id="line2d_14">
      <g>
       <use xlink:href="#m2915bef214" x="57.6" y="143.695589" style="stroke: #000000; stroke-width: 0.8"/>
      </g>
     </g>
     <g id="text_14">
      <!-- 0.01 -->
      <g transform="translate(28.334375 147.494808) scale(0.1 -0.1)">
       <use xlink:href="#DejaVuSans-30"/>
       <use xlink:href="#DejaVuSans-2e" x="63.623047"/>
       <use xlink:href="#DejaVuSans-30" x="95.410156"/>
       <use xlink:href="#DejaVuSans-31" x="159.033203"/>
      </g>
     </g>
    </g>
    <g id="ytick_6">
     <g id="line2d_15">
      <g>
       <use xlink:href="#m2915bef214" x="57.6" y="109.294555" style="stroke: #000000; stroke-width: 0.8"/>
      </g>
     </g>
     <g id="text_15">
      <!-- 0.02 -->
      <g transform="translate(28.334375 113.093773) scale(0.1 -0.1)">
       <use xlink:href="#DejaVuSans-30"/>
       <use xlink:href="#DejaVuSans-2e" x="63.623047"/>
       <use xlink:href="#DejaVuSans-30" x="95.410156"/>
       <use xlink:href="#DejaVuSans-32" x="159.033203"/>
      </g>
     </g>
    </g>
    <g id="ytick_7">
     <g id="line2d_16">
      <g>
       <use xlink:href="#m2915bef214" x="57.6" y="74.893521" style="stroke: #000000; stroke-width: 0.8"/>
      </g>
     </g>
     <g id="text_16">
      <!-- 0.03 -->
      <g transform="translate(28.334375 78.692739) scale(0.1 -0.1)">
       <use xlink:href="#DejaVuSans-30"/>
       <use xlink:href="#DejaVuSans-2e" x="63.623047"/>
       <use xlink:href="#DejaVuSans-30" x="95.410156"/>
       <use xlink:href="#DejaVuSans-33" x="159.033203"/>
      </g>
     </g>
    </g>
   </g>
   <g id="line2d_17">
    <path d="M 73.832727 201.825213 
L 75.954652 195.749847 
L 78.076578 195.103372 
L 80.198503 192.463039 
L 82.320428 191.135674 
L 84.442353 185.80238 
L 86.564278 189.801124 
L 88.686203 195.315031 
L 90.808128 187.929479 
L 92.930053 210.246102 
L 95.051979 203.885463 
L 97.173904 191.357677 
L 99.295829 187.761138 
L 101.417754 199.813684 
L 103.539679 196.602676 
L 105.661604 198.374138 
L 107.783529 188.30182 
L 109.905455 193.246423 
L 112.02738 189.680267 
L 114.149305 191.963733 
L 116.27123 195.134191 
L 118.393155 185.370752 
L 120.51508 195.405905 
L 122.637005 197.711136 
L 124.75893 183.95156 
L 126.880856 190.163725 
L 129.002781 189.921845 
L 131.124706 180.071027 
L 133.246631 199.705233 
L 135.368556 186.643218 
L 137.490481 188.144413 
L 139.612406 186.612183 
L 141.734332 186.248846 
L 143.856257 186.283769 
L 145.978182 189.557558 
L 148.100107 194.373515 
L 150.222032 187.817502 
L 152.343957 183.059984 
L 154.465882 192.233486 
L 156.587807 185.274498 
L 158.709733 184.573526 
L 160.831658 189.339412 
L 162.953583 189.029017 
L 165.075508 191.708847 
L 167.197433 184.391038 
L 169.319358 186.998594 
L 171.441283 184.869175 
L 173.563209 189.166434 
L 175.685134 188.943458 
L 177.807059 188.5343 
L 179.928984 183.384505 
L 182.050909 184.062741 
L 184.172834 186.111607 
L 186.294759 204.511722 
L 188.416684 187.258122 
L 190.53861 213.709157 
L 192.660535 198.949286 
L 194.78246 192.811061 
L 196.904385 187.82966 
L 199.02631 204.696437 
L 201.148235 197.39462 
L 203.27016 193.10733 
L 205.392086 189.816938 
L 207.514011 202.569965 
L 209.635936 199.8351 
L 211.757861 197.375852 
L 213.879786 194.621456 
L 216.001711 189.595655 
L 218.123636 190.602983 
L 220.245561 191.110328 
L 222.367487 185.569301 
L 224.489412 196.66699 
L 226.611337 191.691447 
L 228.733262 195.543944 
L 230.855187 193.46706 
L 232.977112 194.390269 
L 235.099037 193.412801 
L 237.220963 188.413308 
L 239.342888 192.656937 
L 241.464813 186.234782 
L 243.586738 191.336626 
L 245.708663 192.805714 
L 247.830588 196.444666 
L 249.952513 189.0664 
L 252.074439 198.373866 
L 254.196364 191.994077 
L 256.318289 183.526395 
L 258.440214 195.621042 
L 260.562139 188.531255 
L 262.684064 190.405816 
L 264.805989 189.948482 
L 266.927914 192.482985 
L 269.04984 191.989835 
L 271.171765 181.019956 
L 273.29369 186.583763 
L 275.415615 188.251038 
L 277.53754 184.306425 
L 279.659465 195.274972 
L 281.78139 190.249646 
L 283.903316 194.365919 
L 286.025241 192.291906 
L 288.147166 193.906245 
L 290.269091 192.565446 
L 292.391016 195.318725 
L 294.512941 183.75754 
L 296.634866 180.759646 
L 298.756791 204.934676 
L 300.878717 192.92969 
L 303.000642 189.427475 
L 305.122567 187.967828 
L 307.244492 193.938917 
L 309.366417 204.949896 
L 311.488342 182.899649 
L 313.610267 205.202724 
L 315.732193 193.438678 
L 317.854118 197.376056 
L 319.976043 200.461008 
L 322.097968 196.16586 
L 324.219893 196.093175 
L 326.341818 204.238266 
L 328.463743 195.601637 
L 330.585668 198.989254 
L 332.707594 209.898355 
L 334.829519 213.782048 
L 336.951444 195.226632 
L 339.073369 196.627803 
L 343.317219 191.175108 
L 345.439144 193.18612 
L 347.56107 184.532767 
L 349.682995 196.850485 
L 351.80492 195.892732 
L 353.926845 202.285669 
L 356.04877 199.142677 
L 358.170695 198.675384 
L 360.29262 193.081814 
L 362.414545 184.738196 
L 364.536471 189.4352 
L 366.658396 191.953606 
L 368.780321 193.893821 
L 370.902246 191.0775 
L 373.024171 192.181079 
L 375.146096 190.236605 
L 377.268021 185.670402 
L 379.389947 186.429887 
L 381.511872 193.728755 
L 383.633797 191.107937 
L 385.755722 190.746942 
L 387.877647 196.269131 
L 389.999572 192.627551 
L 392.121497 196.949009 
L 394.243422 186.027584 
L 396.365348 198.117151 
L 398.487273 184.102505 
L 398.487273 184.102505 
" clip-path="url(#pb85c4ba1d3)" style="fill: none; stroke: #008000; stroke-opacity: 0.8; stroke-width: 0.5; stroke-linecap: square"/>
   </g>
   <g id="line2d_18">
    <path d="M 73.832727 165.381302 
L 75.954652 157.058684 
L 78.076578 153.321034 
L 80.198503 161.588768 
L 82.320428 172.438443 
L 84.442353 161.555551 
L 86.564278 158.825703 
L 88.686203 166.709727 
L 90.808128 109.644839 
L 92.930053 166.354041 
L 95.051979 171.100039 
L 97.173904 160.268784 
L 99.295829 158.779636 
L 101.417754 163.519483 
L 103.539679 171.723789 
L 105.661604 163.01794 
L 107.783529 144.897602 
L 109.905455 167.860583 
L 112.02738 158.922348 
L 114.149305 165.339882 
L 116.27123 162.828751 
L 118.393155 163.1244 
L 120.51508 160.105669 
L 122.637005 139.480283 
L 124.75893 158.097325 
L 126.880856 172.03997 
L 129.002781 165.370229 
L 131.124706 145.401879 
L 133.246631 176.561306 
L 135.368556 169.068852 
L 137.490481 174.474278 
L 139.612406 165.632688 
L 141.734332 170.860955 
L 143.856257 174.585003 
L 145.978182 164.72987 
L 148.100107 178.621131 
L 150.222032 158.037164 
L 152.343957 163.261808 
L 154.465882 154.367289 
L 156.587807 167.929923 
L 160.831658 156.422426 
L 162.953583 159.725446 
L 165.075508 178.936492 
L 167.197433 171.647717 
L 169.319358 170.657344 
L 171.441283 167.671667 
L 173.563209 164.235621 
L 175.685134 166.610758 
L 177.807059 165.834044 
L 179.928984 167.583497 
L 182.050909 169.938179 
L 184.172834 169.538715 
L 186.294759 179.713925 
L 188.416684 108.134469 
L 190.53861 159.300371 
L 192.660535 166.472045 
L 194.78246 177.501989 
L 196.904385 174.52595 
L 199.02631 172.92659 
L 201.148235 169.77093 
L 203.27016 156.491184 
L 205.392086 169.796355 
L 207.514011 184.911537 
L 209.635936 158.992474 
L 211.757861 159.139511 
L 213.879786 157.437404 
L 216.001711 172.49736 
L 218.123636 156.284225 
L 220.245561 162.799976 
L 222.367487 165.609723 
L 224.489412 159.205148 
L 226.611337 181.225627 
L 228.733262 171.005991 
L 230.855187 165.247817 
L 232.977112 154.998913 
L 235.099037 159.407077 
L 237.220963 161.411745 
L 239.342888 176.457484 
L 241.464813 157.487435 
L 243.586738 156.174217 
L 245.708663 151.869718 
L 247.830588 182.244296 
L 249.952513 146.963647 
L 252.074439 159.965213 
L 254.196364 175.592307 
L 256.318289 155.614134 
L 258.440214 142.748103 
L 260.562139 170.098867 
L 262.684064 170.310201 
L 264.805989 154.235198 
L 266.927914 159.010108 
L 269.04984 179.370042 
L 271.171765 164.287586 
L 273.29369 155.261864 
L 275.415615 171.777101 
L 277.53754 145.146836 
L 279.659465 161.407234 
L 281.78139 152.512606 
L 283.903316 177.119783 
L 286.025241 166.284325 
L 288.147166 171.169088 
L 290.269091 158.261895 
L 292.391016 163.846736 
L 294.512941 165.308169 
L 296.634866 134.068705 
L 298.756791 156.894954 
L 300.878717 177.398728 
L 305.122567 153.085095 
L 307.244492 141.547558 
L 309.366417 172.598413 
L 311.488342 148.887253 
L 313.610267 173.044184 
L 315.732193 138.132993 
L 317.854118 160.269501 
L 322.097968 163.688167 
L 324.219893 163.10287 
L 326.341818 142.098176 
L 328.463743 148.164192 
L 330.585668 161.368139 
L 332.707594 146.305927 
L 334.829519 177.656799 
L 336.951444 159.812043 
L 339.073369 180.523725 
L 341.195294 171.305495 
L 343.317219 144.094641 
L 345.439144 166.375887 
L 347.56107 147.036695 
L 349.682995 172.162178 
L 351.80492 172.731796 
L 353.926845 146.696513 
L 356.04877 168.415985 
L 358.170695 161.811038 
L 360.29262 157.287193 
L 362.414545 164.823986 
L 364.536471 173.510766 
L 366.658396 173.078488 
L 368.780321 171.731991 
L 370.902246 168.357341 
L 373.024171 162.79485 
L 375.146096 149.21355 
L 377.268021 176.904758 
L 379.389947 158.571391 
L 381.511872 163.19756 
L 383.633797 169.608943 
L 385.755722 157.714678 
L 387.877647 169.411513 
L 389.999572 169.50601 
L 392.121497 178.226212 
L 394.243422 161.10691 
L 396.365348 139.963489 
L 398.487273 176.162679 
L 398.487273 176.162679 
" clip-path="url(#pb85c4ba1d3)" style="fill: none; stroke: #32cd32; stroke-opacity: 0.8; stroke-width: 0.5; stroke-linecap: square"/>
   </g>
   <g id="line2d_19">
    <path d="M 73.832727 234.805825 
L 75.954652 226.858441 
L 78.076578 240.262102 
L 80.198503 238.390441 
L 82.320428 213.166177 
L 84.442353 213.65757 
L 86.564278 217.16755 
L 88.686203 252.235157 
L 90.808128 214.088031 
L 92.930053 271.174039 
L 95.051979 232.876545 
L 97.173904 214.173398 
L 99.295829 216.65432 
L 101.417754 225.228529 
L 103.539679 228.670024 
L 105.661604 231.151185 
L 107.783529 218.416076 
L 109.905455 211.212278 
L 112.02738 218.115479 
L 114.149305 236.358844 
L 116.27123 221.595768 
L 118.393155 208.808434 
L 120.51508 220.738019 
L 122.637005 252.601369 
L 124.75893 199.68183 
L 126.880856 238.050885 
L 129.002781 212.782639 
L 131.124706 195.826895 
L 133.246631 229.616927 
L 135.368556 212.184724 
L 137.490481 208.343663 
L 139.612406 202.099735 
L 141.734332 196.741776 
L 143.856257 202.572366 
L 145.978182 204.509847 
L 148.100107 213.513936 
L 150.222032 206.680875 
L 152.343957 201.10116 
L 154.465882 230.528015 
L 156.587807 206.559816 
L 158.709733 208.908497 
L 160.831658 228.391571 
L 162.953583 205.045427 
L 165.075508 201.363853 
L 167.197433 193.255479 
L 169.319358 200.93089 
L 171.441283 191.159566 
L 173.563209 208.774055 
L 175.685134 209.365442 
L 177.807059 201.573938 
L 179.928984 194.376877 
L 182.050909 204.442182 
L 184.172834 203.261936 
L 186.294759 248.042555 
L 188.416684 295.488 
L 190.53861 268.71615 
L 192.660535 226.698847 
L 194.78246 209.002066 
L 196.904385 212.201743 
L 199.02631 226.89159 
L 201.148235 228.499272 
L 203.27016 231.372327 
L 205.392086 213.032385 
L 207.514011 217.148242 
L 209.635936 229.145005 
L 211.757861 224.374307 
L 213.879786 219.964585 
L 216.001711 208.236766 
L 218.123636 219.184794 
L 222.367487 202.999887 
L 224.489412 231.317306 
L 226.611337 206.144475 
L 228.733262 236.412566 
L 230.855187 219.192586 
L 232.977112 243.478046 
L 235.099037 221.31953 
L 237.220963 232.346911 
L 239.342888 214.323253 
L 241.464813 210.478877 
L 243.586738 219.417522 
L 245.708663 219.802188 
L 247.830588 213.554432 
L 249.952513 211.842297 
L 252.074439 223.972417 
L 254.196364 213.762349 
L 256.318289 216.715013 
L 258.440214 220.53803 
L 260.562139 208.991335 
L 262.684064 228.942325 
L 264.805989 216.026981 
L 266.927914 213.992411 
L 269.04984 206.111667 
L 271.171765 190.070703 
L 273.29369 208.614666 
L 275.415615 207.433395 
L 277.53754 211.400628 
L 279.659465 236.51673 
L 281.78139 212.910177 
L 283.903316 212.26256 
L 286.025241 220.956188 
L 288.147166 212.839436 
L 290.269091 224.615933 
L 292.391016 231.772167 
L 294.512941 215.656975 
L 296.634866 214.34468 
L 298.756791 257.838384 
L 300.878717 224.024225 
L 303.000642 220.149536 
L 305.122567 218.3737 
L 307.244492 231.057991 
L 309.366417 240.487653 
L 311.488342 238.932583 
L 313.610267 233.597693 
L 315.732193 215.263697 
L 317.854118 218.46105 
L 319.976043 238.34123 
L 322.097968 221.387605 
L 324.219893 225.153072 
L 326.341818 230.396102 
L 328.463743 244.75439 
L 330.585668 268.150838 
L 332.707594 244.117052 
L 334.829519 262.021189 
L 336.951444 231.390849 
L 339.073369 231.65242 
L 341.195294 210.39057 
L 343.317219 253.177959 
L 345.439144 232.553393 
L 347.56107 235.607452 
L 349.682995 218.443142 
L 351.80492 221.280161 
L 353.926845 238.326877 
L 356.04877 233.588944 
L 358.170695 250.422549 
L 360.29262 229.695665 
L 362.414545 206.766175 
L 364.536471 216.040412 
L 366.658396 213.695914 
L 368.780321 228.516825 
L 370.902246 215.024203 
L 373.024171 229.118372 
L 375.146096 228.019617 
L 377.268021 199.776562 
L 379.389947 202.43642 
L 381.511872 222.180723 
L 383.633797 219.832945 
L 385.755722 206.044412 
L 387.877647 226.842653 
L 389.999572 236.812714 
L 392.121497 251.939173 
L 394.243422 211.140629 
L 396.365348 221.752177 
L 398.487273 217.593021 
L 398.487273 217.593021 
" clip-path="url(#pb85c4ba1d3)" style="fill: none; stroke: #32cd32; stroke-opacity: 0.8; stroke-width: 0.5; stroke-linecap: square"/>
   </g>
   <g id="line2d_20">
    <path d="M 73.832727 161.843858 
L 75.954652 155.993738 
L 78.076578 162.101874 
L 80.198503 157.743083 
L 82.320428 170.363552 
L 84.442353 149.382215 
L 86.564278 154.424975 
L 88.686203 156.577996 
L 90.808128 154.542521 
L 92.930053 169.29632 
L 95.051979 165.252328 
L 97.173904 165.343152 
L 99.295829 163.2032 
L 101.417754 165.519546 
L 103.539679 162.478617 
L 105.661604 172.867201 
L 107.783529 153.537154 
L 109.905455 165.250175 
L 112.02738 163.798208 
L 114.149305 158.544273 
L 116.27123 164.914541 
L 118.393155 166.181303 
L 120.51508 168.455483 
L 122.637005 161.186948 
L 124.75893 160.949911 
L 126.880856 163.251736 
L 129.002781 167.03833 
L 131.124706 166.766323 
L 133.246631 172.620012 
L 135.368556 165.088003 
L 137.490481 171.362306 
L 139.612406 169.485238 
L 141.734332 173.768868 
L 143.856257 174.513781 
L 145.978182 166.022708 
L 148.100107 169.621355 
L 150.222032 165.446114 
L 152.343957 164.623135 
L 154.465882 166.07352 
L 156.587807 170.15062 
L 158.709733 163.233399 
L 160.831658 168.469399 
L 162.953583 166.435816 
L 165.075508 175.099521 
L 167.197433 170.262596 
L 169.319358 167.98093 
L 171.441283 171.441735 
L 173.563209 170.717457 
L 175.685134 174.538994 
L 177.807059 165.080127 
L 179.928984 170.827464 
L 182.050909 168.936854 
L 184.172834 170.120803 
L 186.294759 173.092636 
L 188.416684 130.905028 
L 190.53861 157.406152 
L 192.660535 164.246573 
L 194.78246 167.807051 
L 196.904385 166.091653 
L 199.02631 170.038303 
L 201.148235 162.149373 
L 203.27016 159.113302 
L 205.392086 165.453377 
L 207.514011 174.935632 
L 209.635936 159.506043 
L 211.757861 163.24017 
L 213.879786 162.607499 
L 216.001711 166.454689 
L 218.123636 160.497047 
L 220.245561 163.269778 
L 222.367487 161.912826 
L 224.489412 165.45133 
L 226.611337 171.123735 
L 228.733262 161.046155 
L 230.855187 165.59533 
L 232.977112 165.311896 
L 235.099037 163.662285 
L 237.220963 162.734081 
L 239.342888 163.423471 
L 241.464813 157.754854 
L 243.586738 161.472869 
L 245.708663 159.116797 
L 247.830588 171.109498 
L 249.952513 164.78544 
L 252.074439 163.19028 
L 254.196364 163.238666 
L 256.318289 165.080852 
L 258.440214 163.219275 
L 260.562139 164.768738 
L 262.684064 162.234138 
L 264.805989 168.165516 
L 266.927914 163.230303 
L 269.04984 174.131195 
L 271.171765 165.430941 
L 273.29369 164.336823 
L 275.415615 167.889861 
L 277.53754 164.454143 
L 279.659465 163.45181 
L 281.78139 161.874957 
L 283.903316 164.417927 
L 286.025241 166.045454 
L 288.147166 169.035205 
L 290.269091 166.001631 
L 292.391016 166.391826 
L 294.512941 157.914046 
L 296.634866 148.930022 
L 298.756791 165.308222 
L 300.878717 161.325869 
L 303.000642 156.548383 
L 305.122567 159.009412 
L 307.244492 160.076445 
L 309.366417 166.16967 
L 311.488342 152.790805 
L 313.610267 168.783639 
L 315.732193 152.539254 
L 317.854118 161.48301 
L 319.976043 157.112836 
L 322.097968 160.867123 
L 324.219893 163.675826 
L 326.341818 165.138913 
L 328.463743 153.08651 
L 330.585668 145.774389 
L 332.707594 166.63238 
L 334.829519 162.250826 
L 336.951444 147.898582 
L 339.073369 156.766739 
L 341.195294 153.2981 
L 343.317219 148.570336 
L 345.439144 156.966194 
L 347.56107 157.14162 
L 351.80492 152.157364 
L 353.926845 159.793716 
L 356.04877 164.784112 
L 358.170695 164.162155 
L 360.29262 164.725045 
L 362.414545 158.850839 
L 364.536471 157.691352 
L 366.658396 156.840086 
L 368.780321 164.640737 
L 370.902246 169.080381 
L 373.024171 160.222152 
L 375.146096 161.685936 
L 377.268021 162.744328 
L 379.389947 154.686363 
L 381.511872 158.192172 
L 383.633797 158.676628 
L 385.755722 162.66906 
L 387.877647 167.630659 
L 389.999572 167.909589 
L 392.121497 159.896693 
L 394.243422 160.68291 
L 398.487273 173.702354 
L 398.487273 173.702354 
" clip-path="url(#pb85c4ba1d3)" style="fill: none; stroke: #ff0000; stroke-opacity: 0.8; stroke-width: 0.5; stroke-linecap: square"/>
   </g>
   <g id="line2d_21">
    <path d="M 73.832727 120.772078 
L 75.954652 113.468745 
L 78.076578 129.590087 
L 80.198503 118.344674 
L 82.320428 152.176467 
L 84.442353 121.758282 
L 86.564278 130.299196 
L 88.686203 128.904732 
L 90.808128 74.651665 
L 92.930053 143.195856 
L 95.051979 125.796734 
L 97.173904 127.681108 
L 99.295829 139.152414 
L 101.417754 124.416539 
L 103.539679 141.907107 
L 105.661604 134.971729 
L 107.783529 128.746118 
L 109.905455 142.430282 
L 112.02738 146.778695 
L 114.149305 140.890864 
L 116.27123 127.303413 
L 118.393155 144.552099 
L 122.637005 107.562391 
L 124.75893 144.064295 
L 126.880856 146.988663 
L 129.002781 134.982801 
L 131.124706 135.926423 
L 133.246631 134.763402 
L 135.368556 142.612876 
L 137.490481 152.882509 
L 139.612406 147.299786 
L 141.734332 161.060877 
L 143.856257 163.344578 
L 145.978182 149.679073 
L 148.100107 149.655083 
L 150.222032 145.087393 
L 152.343957 143.473454 
L 154.465882 118.734945 
L 156.587807 156.991907 
L 158.709733 144.251297 
L 160.831658 139.419179 
L 162.953583 148.138562 
L 165.075508 165.643146 
L 167.197433 157.359213 
L 169.319358 151.853177 
L 171.441283 160.079629 
L 173.563209 139.637348 
L 175.685134 158.789478 
L 177.807059 150.81144 
L 179.928984 155.367668 
L 182.050909 147.983547 
L 184.172834 155.715591 
L 186.294759 128.685629 
L 188.416684 53.568 
L 190.53861 97.813882 
L 192.660535 129.012267 
L 194.78246 148.315229 
L 196.904385 144.892886 
L 199.02631 144.046387 
L 201.148235 133.47971 
L 203.27016 123.82255 
L 205.392086 138.492371 
L 207.514011 157.137627 
L 209.635936 116.40398 
L 211.757861 117.642049 
L 213.879786 140.123855 
L 216.001711 146.622707 
L 218.123636 140.960443 
L 220.245561 134.468135 
L 222.367487 137.976416 
L 224.489412 126.856822 
L 226.611337 151.424768 
L 228.733262 145.073942 
L 230.855187 140.352139 
L 232.977112 120.793608 
L 235.099037 136.189234 
L 237.220963 130.762213 
L 239.342888 146.254734 
L 241.464813 122.066329 
L 243.586738 127.974734 
L 245.708663 128.992583 
L 247.830588 158.421626 
L 249.952513 137.598165 
L 252.074439 132.456222 
L 254.196364 137.411368 
L 256.318289 133.027891 
L 258.440214 129.952404 
L 260.562139 151.558372 
L 262.684064 138.957005 
L 264.805989 142.34324 
L 266.927914 146.428887 
L 269.04984 160.159187 
L 271.171765 154.863665 
L 273.29369 131.834757 
L 275.415615 152.769324 
L 277.53754 105.712874 
L 279.659465 134.168358 
L 281.78139 129.965732 
L 283.903316 136.346358 
L 286.025241 132.00307 
L 288.147166 136.937301 
L 290.269091 137.516761 
L 292.391016 132.651768 
L 294.512941 141.650081 
L 296.634866 104.310769 
L 298.756791 97.088634 
L 300.878717 118.419994 
L 305.122567 137.533206 
L 307.244492 117.316025 
L 309.366417 114.793958 
L 311.488342 121.086414 
L 313.610267 127.841044 
L 315.732193 113.097679 
L 317.854118 120.484706 
L 319.976043 120.62383 
L 322.097968 138.671786 
L 324.219893 131.200383 
L 326.341818 107.128513 
L 328.463743 117.981742 
L 330.585668 91.924273 
L 332.707594 91.288903 
L 334.829519 119.024812 
L 336.951444 121.754659 
L 339.073369 126.762501 
L 341.195294 136.413326 
L 343.317219 92.383696 
L 345.439144 133.42404 
L 347.56107 88.780574 
L 349.682995 130.094589 
L 351.80492 122.764512 
L 353.926845 109.395503 
L 356.04877 122.253947 
L 358.170695 131.116861 
L 360.29262 127.06843 
L 362.414545 136.823569 
L 366.658396 134.142932 
L 368.780321 141.37901 
L 370.902246 147.779731 
L 375.146096 134.227001 
L 377.268021 147.402979 
L 379.389947 125.883263 
L 381.511872 140.866258 
L 383.633797 117.881081 
L 385.755722 138.722638 
L 387.877647 124.985571 
L 389.999572 135.562672 
L 392.121497 109.217933 
L 394.243422 138.588606 
L 396.365348 107.295831 
L 398.487273 141.603331 
L 398.487273 141.603331 
" clip-path="url(#pb85c4ba1d3)" style="fill: none; stroke: #f08080; stroke-opacity: 0.8; stroke-width: 0.5; stroke-linecap: square"/>
   </g>
   <g id="line2d_22">
    <path d="M 73.832727 199.779432 
L 75.954652 188.996192 
L 78.076578 196.372878 
L 80.198503 192.043247 
L 82.320428 188.799622 
L 84.442353 172.489688 
L 86.564278 195.573292 
L 88.686203 207.962455 
L 90.808128 186.581501 
L 92.930053 188.032339 
L 95.051979 199.90369 
L 97.173904 204.676344 
L 99.295829 188.226313 
L 101.417754 191.596041 
L 103.539679 200.31245 
L 105.661604 207.721553 
L 107.783529 180.448912 
L 109.905455 188.647067 
L 112.02738 191.597476 
L 114.149305 181.546964 
L 116.27123 193.111947 
L 118.393155 189.555012 
L 120.51508 192.223892 
L 122.637005 204.266252 
L 124.75893 182.017105 
L 126.880856 198.120917 
L 129.002781 189.633681 
L 131.124706 180.372635 
L 133.246631 194.155632 
L 135.368556 186.154526 
L 137.490481 189.794711 
L 139.612406 185.495918 
L 141.734332 183.766969 
L 143.856257 189.019021 
L 145.978182 188.192685 
L 148.100107 189.10268 
L 150.222032 182.806533 
L 152.343957 183.17213 
L 154.465882 214.767075 
L 156.587807 192.567823 
L 158.709733 196.814875 
L 160.831658 194.336141 
L 162.953583 180.37451 
L 165.075508 185.424357 
L 167.197433 186.354651 
L 169.319358 187.494298 
L 171.441283 178.224572 
L 173.563209 196.254689 
L 175.685134 204.076379 
L 177.807059 179.97758 
L 179.928984 183.597396 
L 182.050909 194.744729 
L 184.172834 189.89221 
L 186.294759 210.085052 
L 188.416684 183.761775 
L 190.53861 202.781308 
L 192.660535 193.00399 
L 194.78246 187.575086 
L 196.904385 189.718502 
L 199.02631 205.41082 
L 201.148235 194.233754 
L 203.27016 204.692455 
L 205.392086 195.267187 
L 207.514011 192.561193 
L 209.635936 198.814895 
L 211.757861 189.212448 
L 213.879786 195.894792 
L 216.001711 180.259951 
L 218.123636 184.885291 
L 220.245561 194.176649 
L 222.367487 193.573916 
L 224.489412 203.38886 
L 226.611337 188.774879 
L 228.733262 205.478075 
L 230.855187 184.236115 
L 232.977112 191.860304 
L 235.099037 196.120179 
L 237.220963 194.15107 
L 239.342888 186.605833 
L 241.464813 183.071207 
L 243.586738 196.529656 
L 245.708663 193.884356 
L 247.830588 188.795111 
L 249.952513 191.867624 
L 252.074439 192.528181 
L 254.196364 193.419721 
L 256.318289 180.113389 
L 258.440214 181.537115 
L 260.562139 183.211841 
L 262.684064 178.412746 
L 264.805989 184.446287 
L 266.927914 195.968035 
L 269.04984 187.051808 
L 271.171765 176.136218 
L 273.29369 191.242951 
L 275.415615 187.679988 
L 277.53754 195.217361 
L 279.659465 186.910463 
L 281.78139 204.549626 
L 283.903316 192.361786 
L 286.025241 184.730686 
L 288.147166 195.452139 
L 290.269091 191.550521 
L 292.391016 207.895569 
L 294.512941 187.189892 
L 296.634866 171.25571 
L 298.756791 227.178928 
L 300.878717 207.585539 
L 303.000642 189.548802 
L 305.122567 192.79023 
L 307.244492 203.715498 
L 309.366417 202.374086 
L 311.488342 195.817285 
L 313.610267 202.219276 
L 315.732193 181.857333 
L 317.854118 187.177297 
L 319.976043 187.03967 
L 322.097968 203.554127 
L 324.219893 200.366411 
L 326.341818 197.430014 
L 328.463743 204.916805 
L 330.585668 199.198605 
L 332.707594 209.513998 
L 334.829519 236.975657 
L 336.951444 191.77197 
L 339.073369 179.350808 
L 341.195294 172.957688 
L 343.317219 194.588254 
L 345.439144 183.22182 
L 347.56107 204.986237 
L 349.682995 179.101298 
L 351.80492 205.740739 
L 353.926845 200.03533 
L 356.04877 192.223892 
L 358.170695 199.316028 
L 360.29262 193.881075 
L 362.414545 183.719398 
L 364.536471 179.847717 
L 366.658396 200.761603 
L 368.780321 195.023182 
L 370.902246 193.589089 
L 373.024171 208.829759 
L 375.146096 193.115843 
L 377.268021 173.877676 
L 379.389947 184.867247 
L 383.633797 179.662355 
L 385.755722 179.744374 
L 387.877647 196.729166 
L 389.999572 205.966085 
L 392.121497 232.91981 
L 394.243422 185.481155 
L 396.365348 197.144589 
L 398.487273 187.450008 
L 398.487273 187.450008 
" clip-path="url(#pb85c4ba1d3)" style="fill: none; stroke: #f08080; stroke-opacity: 0.8; stroke-width: 0.5; stroke-linecap: square"/>
   </g>
   <g id="patch_3">
    <path d="M 57.6 307.584 
L 57.6 41.472 
" style="fill: none; stroke: #000000; stroke-width: 0.8; stroke-linejoin: miter; stroke-linecap: square"/>
   </g>
   <g id="patch_4">
    <path d="M 414.72 307.584 
L 414.72 41.472 
" style="fill: none; stroke: #000000; stroke-width: 0.8; stroke-linejoin: miter; stroke-linecap: square"/>
   </g>
   <g id="patch_5">
    <path d="M 57.6 307.584 
L 414.72 307.584 
" style="fill: none; stroke: #000000; stroke-width: 0.8; stroke-linejoin: miter; stroke-linecap: square"/>
   </g>
   <g id="patch_6">
    <path d="M 57.6 41.472 
L 414.72 41.472 
" style="fill: none; stroke: #000000; stroke-width: 0.8; stroke-linejoin: miter; stroke-linecap: square"/>
   </g>
   <g id="text_17">
    <!-- max_clique_eurusd -->
    <g transform="translate(178.453125 35.472) scale(0.12 -0.12)">
     <defs>
      <path id="DejaVuSans-6d" d="M 3328 2828 
Q 3544 3216 3844 3400 
Q 4144 3584 4550 3584 
Q 5097 3584 5394 3201 
Q 5691 2819 5691 2113 
L 5691 0 
L 5113 0 
L 5113 2094 
Q 5113 2597 4934 2840 
Q 4756 3084 4391 3084 
Q 3944 3084 3684 2787 
Q 3425 2491 3425 1978 
L 3425 0 
L 2847 0 
L 2847 2094 
Q 2847 2600 2669 2842 
Q 2491 3084 2119 3084 
Q 1678 3084 1418 2786 
Q 1159 2488 1159 1978 
L 1159 0 
L 581 0 
L 581 3500 
L 1159 3500 
L 1159 2956 
Q 1356 3278 1631 3431 
Q 1906 3584 2284 3584 
Q 2666 3584 2933 3390 
Q 3200 3197 3328 2828 
z
" transform="scale(0.015625)"/>
      <path id="DejaVuSans-61" d="M 2194 1759 
Q 1497 1759 1228 1600 
Q 959 1441 959 1056 
Q 959 750 1161 570 
Q 1363 391 1709 391 
Q 2188 391 2477 730 
Q 2766 1069 2766 1631 
L 2766 1759 
L 2194 1759 
z
M 3341 1997 
L 3341 0 
L 2766 0 
L 2766 531 
Q 2569 213 2275 61 
Q 1981 -91 1556 -91 
Q 1019 -91 701 211 
Q 384 513 384 1019 
Q 384 1609 779 1909 
Q 1175 2209 1959 2209 
L 2766 2209 
L 2766 2266 
Q 2766 2663 2505 2880 
Q 2244 3097 1772 3097 
Q 1472 3097 1187 3025 
Q 903 2953 641 2809 
L 641 3341 
Q 956 3463 1253 3523 
Q 1550 3584 1831 3584 
Q 2591 3584 2966 3190 
Q 3341 2797 3341 1997 
z
" transform="scale(0.015625)"/>
      <path id="DejaVuSans-78" d="M 3513 3500 
L 2247 1797 
L 3578 0 
L 2900 0 
L 1881 1375 
L 863 0 
L 184 0 
L 1544 1831 
L 300 3500 
L 978 3500 
L 1906 2253 
L 2834 3500 
L 3513 3500 
z
" transform="scale(0.015625)"/>
      <path id="DejaVuSans-5f" d="M 3263 -1063 
L 3263 -1509 
L -63 -1509 
L -63 -1063 
L 3263 -1063 
z
" transform="scale(0.015625)"/>
      <path id="DejaVuSans-63" d="M 3122 3366 
L 3122 2828 
Q 2878 2963 2633 3030 
Q 2388 3097 2138 3097 
Q 1578 3097 1268 2742 
Q 959 2388 959 1747 
Q 959 1106 1268 751 
Q 1578 397 2138 397 
Q 2388 397 2633 464 
Q 2878 531 3122 666 
L 3122 134 
Q 2881 22 2623 -34 
Q 2366 -91 2075 -91 
Q 1284 -91 818 406 
Q 353 903 353 1747 
Q 353 2603 823 3093 
Q 1294 3584 2113 3584 
Q 2378 3584 2631 3529 
Q 2884 3475 3122 3366 
z
" transform="scale(0.015625)"/>
      <path id="DejaVuSans-6c" d="M 603 4863 
L 1178 4863 
L 1178 0 
L 603 0 
L 603 4863 
z
" transform="scale(0.015625)"/>
      <path id="DejaVuSans-69" d="M 603 3500 
L 1178 3500 
L 1178 0 
L 603 0 
L 603 3500 
z
M 603 4863 
L 1178 4863 
L 1178 4134 
L 603 4134 
L 603 4863 
z
" transform="scale(0.015625)"/>
      <path id="DejaVuSans-71" d="M 947 1747 
Q 947 1113 1208 752 
Q 1469 391 1925 391 
Q 2381 391 2643 752 
Q 2906 1113 2906 1747 
Q 2906 2381 2643 2742 
Q 2381 3103 1925 3103 
Q 1469 3103 1208 2742 
Q 947 2381 947 1747 
z
M 2906 525 
Q 2725 213 2448 61 
Q 2172 -91 1784 -91 
Q 1150 -91 751 415 
Q 353 922 353 1747 
Q 353 2572 751 3078 
Q 1150 3584 1784 3584 
Q 2172 3584 2448 3432 
Q 2725 3281 2906 2969 
L 2906 3500 
L 3481 3500 
L 3481 -1331 
L 2906 -1331 
L 2906 525 
z
" transform="scale(0.015625)"/>
      <path id="DejaVuSans-75" d="M 544 1381 
L 544 3500 
L 1119 3500 
L 1119 1403 
Q 1119 906 1312 657 
Q 1506 409 1894 409 
Q 2359 409 2629 706 
Q 2900 1003 2900 1516 
L 2900 3500 
L 3475 3500 
L 3475 0 
L 2900 0 
L 2900 538 
Q 2691 219 2414 64 
Q 2138 -91 1772 -91 
Q 1169 -91 856 284 
Q 544 659 544 1381 
z
M 1991 3584 
L 1991 3584 
z
" transform="scale(0.015625)"/>
      <path id="DejaVuSans-65" d="M 3597 1894 
L 3597 1613 
L 953 1613 
Q 991 1019 1311 708 
Q 1631 397 2203 397 
Q 2534 397 2845 478 
Q 3156 559 3463 722 
L 3463 178 
Q 3153 47 2828 -22 
Q 2503 -91 2169 -91 
Q 1331 -91 842 396 
Q 353 884 353 1716 
Q 353 2575 817 3079 
Q 1281 3584 2069 3584 
Q 2775 3584 3186 3129 
Q 3597 2675 3597 1894 
z
M 3022 2063 
Q 3016 2534 2758 2815 
Q 2500 3097 2075 3097 
Q 1594 3097 1305 2825 
Q 1016 2553 972 2059 
L 3022 2063 
z
" transform="scale(0.015625)"/>
      <path id="DejaVuSans-72" d="M 2631 2963 
Q 2534 3019 2420 3045 
Q 2306 3072 2169 3072 
Q 1681 3072 1420 2755 
Q 1159 2438 1159 1844 
L 1159 0 
L 581 0 
L 581 3500 
L 1159 3500 
L 1159 2956 
Q 1341 3275 1631 3429 
Q 1922 3584 2338 3584 
Q 2397 3584 2469 3576 
Q 2541 3569 2628 3553 
L 2631 2963 
z
" transform="scale(0.015625)"/>
      <path id="DejaVuSans-73" d="M 2834 3397 
L 2834 2853 
Q 2591 2978 2328 3040 
Q 2066 3103 1784 3103 
Q 1356 3103 1142 2972 
Q 928 2841 928 2578 
Q 928 2378 1081 2264 
Q 1234 2150 1697 2047 
L 1894 2003 
Q 2506 1872 2764 1633 
Q 3022 1394 3022 966 
Q 3022 478 2636 193 
Q 2250 -91 1575 -91 
Q 1294 -91 989 -36 
Q 684 19 347 128 
L 347 722 
Q 666 556 975 473 
Q 1284 391 1588 391 
Q 1994 391 2212 530 
Q 2431 669 2431 922 
Q 2431 1156 2273 1281 
Q 2116 1406 1581 1522 
L 1381 1569 
Q 847 1681 609 1914 
Q 372 2147 372 2553 
Q 372 3047 722 3315 
Q 1072 3584 1716 3584 
Q 2034 3584 2315 3537 
Q 2597 3491 2834 3397 
z
" transform="scale(0.015625)"/>
      <path id="DejaVuSans-64" d="M 2906 2969 
L 2906 4863 
L 3481 4863 
L 3481 0 
L 2906 0 
L 2906 525 
Q 2725 213 2448 61 
Q 2172 -91 1784 -91 
Q 1150 -91 751 415 
Q 353 922 353 1747 
Q 353 2572 751 3078 
Q 1150 3584 1784 3584 
Q 2172 3584 2448 3432 
Q 2725 3281 2906 2969 
z
M 947 1747 
Q 947 1113 1208 752 
Q 1469 391 1925 391 
Q 2381 391 2643 752 
Q 2906 1113 2906 1747 
Q 2906 2381 2643 2742 
Q 2381 3103 1925 3103 
Q 1469 3103 1208 2742 
Q 947 2381 947 1747 
z
" transform="scale(0.015625)"/>
     </defs>
     <use xlink:href="#DejaVuSans-6d"/>
     <use xlink:href="#DejaVuSans-61" x="97.412109"/>
     <use xlink:href="#DejaVuSans-78" x="158.691406"/>
     <use xlink:href="#DejaVuSans-5f" x="217.871094"/>
     <use xlink:href="#DejaVuSans-63" x="267.871094"/>
     <use xlink:href="#DejaVuSans-6c" x="322.851562"/>
     <use xlink:href="#DejaVuSans-69" x="350.634766"/>
     <use xlink:href="#DejaVuSans-71" x="378.417969"/>
     <use xlink:href="#DejaVuSans-75" x="441.894531"/>
     <use xlink:href="#DejaVuSans-65" x="505.273438"/>
     <use xlink:href="#DejaVuSans-5f" x="566.796875"/>
     <use xlink:href="#DejaVuSans-65" x="616.796875"/>
     <use xlink:href="#DejaVuSans-75" x="678.320312"/>
     <use xlink:href="#DejaVuSans-72" x="741.699219"/>
     <use xlink:href="#DejaVuSans-75" x="782.8125"/>
     <use xlink:href="#DejaVuSans-73" x="846.191406"/>
     <use xlink:href="#DejaVuSans-64" x="898.291016"/>
    </g>
   </g>
   <g id="legend_1">
    <g id="patch_7">
     <path d="M 64.6 137.54075 
L 225.001563 137.54075 
Q 227.001563 137.54075 227.001563 135.54075 
L 227.001563 48.472 
Q 227.001563 46.472 225.001563 46.472 
L 64.6 46.472 
Q 62.6 46.472 62.6 48.472 
L 62.6 135.54075 
Q 62.6 137.54075 64.6 137.54075 
z
" style="fill: #ffffff; opacity: 0.8; stroke: #cccccc; stroke-linejoin: miter"/>
    </g>
    <g id="line2d_23">
     <path d="M 66.6 54.570438 
L 76.6 54.570438 
L 86.6 54.570438 
" style="fill: none; stroke: #008000; stroke-opacity: 0.8; stroke-width: 0.5; stroke-linecap: square"/>
    </g>
    <g id="text_18">
     <!-- Positive predictions -->
     <g transform="translate(94.6 58.070438) scale(0.1 -0.1)">
      <defs>
       <path id="DejaVuSans-50" d="M 1259 4147 
L 1259 2394 
L 2053 2394 
Q 2494 2394 2734 2622 
Q 2975 2850 2975 3272 
Q 2975 3691 2734 3919 
Q 2494 4147 2053 4147 
L 1259 4147 
z
M 628 4666 
L 2053 4666 
Q 2838 4666 3239 4311 
Q 3641 3956 3641 3272 
Q 3641 2581 3239 2228 
Q 2838 1875 2053 1875 
L 1259 1875 
L 1259 0 
L 628 0 
L 628 4666 
z
" transform="scale(0.015625)"/>
       <path id="DejaVuSans-6f" d="M 1959 3097 
Q 1497 3097 1228 2736 
Q 959 2375 959 1747 
Q 959 1119 1226 758 
Q 1494 397 1959 397 
Q 2419 397 2687 759 
Q 2956 1122 2956 1747 
Q 2956 2369 2687 2733 
Q 2419 3097 1959 3097 
z
M 1959 3584 
Q 2709 3584 3137 3096 
Q 3566 2609 3566 1747 
Q 3566 888 3137 398 
Q 2709 -91 1959 -91 
Q 1206 -91 779 398 
Q 353 888 353 1747 
Q 353 2609 779 3096 
Q 1206 3584 1959 3584 
z
" transform="scale(0.015625)"/>
       <path id="DejaVuSans-74" d="M 1172 4494 
L 1172 3500 
L 2356 3500 
L 2356 3053 
L 1172 3053 
L 1172 1153 
Q 1172 725 1289 603 
Q 1406 481 1766 481 
L 2356 481 
L 2356 0 
L 1766 0 
Q 1100 0 847 248 
Q 594 497 594 1153 
L 594 3053 
L 172 3053 
L 172 3500 
L 594 3500 
L 594 4494 
L 1172 4494 
z
" transform="scale(0.015625)"/>
       <path id="DejaVuSans-76" d="M 191 3500 
L 800 3500 
L 1894 563 
L 2988 3500 
L 3597 3500 
L 2284 0 
L 1503 0 
L 191 3500 
z
" transform="scale(0.015625)"/>
       <path id="DejaVuSans-20" transform="scale(0.015625)"/>
       <path id="DejaVuSans-70" d="M 1159 525 
L 1159 -1331 
L 581 -1331 
L 581 3500 
L 1159 3500 
L 1159 2969 
Q 1341 3281 1617 3432 
Q 1894 3584 2278 3584 
Q 2916 3584 3314 3078 
Q 3713 2572 3713 1747 
Q 3713 922 3314 415 
Q 2916 -91 2278 -91 
Q 1894 -91 1617 61 
Q 1341 213 1159 525 
z
M 3116 1747 
Q 3116 2381 2855 2742 
Q 2594 3103 2138 3103 
Q 1681 3103 1420 2742 
Q 1159 2381 1159 1747 
Q 1159 1113 1420 752 
Q 1681 391 2138 391 
Q 2594 391 2855 752 
Q 3116 1113 3116 1747 
z
" transform="scale(0.015625)"/>
       <path id="DejaVuSans-6e" d="M 3513 2113 
L 3513 0 
L 2938 0 
L 2938 2094 
Q 2938 2591 2744 2837 
Q 2550 3084 2163 3084 
Q 1697 3084 1428 2787 
Q 1159 2491 1159 1978 
L 1159 0 
L 581 0 
L 581 3500 
L 1159 3500 
L 1159 2956 
Q 1366 3272 1645 3428 
Q 1925 3584 2291 3584 
Q 2894 3584 3203 3211 
Q 3513 2838 3513 2113 
z
" transform="scale(0.015625)"/>
      </defs>
      <use xlink:href="#DejaVuSans-50"/>
      <use xlink:href="#DejaVuSans-6f" x="56.677734"/>
      <use xlink:href="#DejaVuSans-73" x="117.859375"/>
      <use xlink:href="#DejaVuSans-69" x="169.958984"/>
      <use xlink:href="#DejaVuSans-74" x="197.742188"/>
      <use xlink:href="#DejaVuSans-69" x="236.951172"/>
      <use xlink:href="#DejaVuSans-76" x="264.734375"/>
      <use xlink:href="#DejaVuSans-65" x="323.914062"/>
      <use xlink:href="#DejaVuSans-20" x="385.4375"/>
      <use xlink:href="#DejaVuSans-70" x="417.224609"/>
      <use xlink:href="#DejaVuSans-72" x="480.701172"/>
      <use xlink:href="#DejaVuSans-65" x="519.564453"/>
      <use xlink:href="#DejaVuSans-64" x="581.087891"/>
      <use xlink:href="#DejaVuSans-69" x="644.564453"/>
      <use xlink:href="#DejaVuSans-63" x="672.347656"/>
      <use xlink:href="#DejaVuSans-74" x="727.328125"/>
      <use xlink:href="#DejaVuSans-69" x="766.537109"/>
      <use xlink:href="#DejaVuSans-6f" x="794.320312"/>
      <use xlink:href="#DejaVuSans-6e" x="855.501953"/>
      <use xlink:href="#DejaVuSans-73" x="918.880859"/>
     </g>
    </g>
    <g id="line2d_24">
     <path d="M 66.6 69.248563 
L 76.6 69.248563 
L 86.6 69.248563 
" style="fill: none; stroke: #32cd32; stroke-opacity: 0.8; stroke-width: 0.5; stroke-linecap: square"/>
    </g>
    <g id="text_19">
     <!-- Positive predictions max -->
     <g transform="translate(94.6 72.748563) scale(0.1 -0.1)">
      <use xlink:href="#DejaVuSans-50"/>
      <use xlink:href="#DejaVuSans-6f" x="56.677734"/>
      <use xlink:href="#DejaVuSans-73" x="117.859375"/>
      <use xlink:href="#DejaVuSans-69" x="169.958984"/>
      <use xlink:href="#DejaVuSans-74" x="197.742188"/>
      <use xlink:href="#DejaVuSans-69" x="236.951172"/>
      <use xlink:href="#DejaVuSans-76" x="264.734375"/>
      <use xlink:href="#DejaVuSans-65" x="323.914062"/>
      <use xlink:href="#DejaVuSans-20" x="385.4375"/>
      <use xlink:href="#DejaVuSans-70" x="417.224609"/>
      <use xlink:href="#DejaVuSans-72" x="480.701172"/>
      <use xlink:href="#DejaVuSans-65" x="519.564453"/>
      <use xlink:href="#DejaVuSans-64" x="581.087891"/>
      <use xlink:href="#DejaVuSans-69" x="644.564453"/>
      <use xlink:href="#DejaVuSans-63" x="672.347656"/>
      <use xlink:href="#DejaVuSans-74" x="727.328125"/>
      <use xlink:href="#DejaVuSans-69" x="766.537109"/>
      <use xlink:href="#DejaVuSans-6f" x="794.320312"/>
      <use xlink:href="#DejaVuSans-6e" x="855.501953"/>
      <use xlink:href="#DejaVuSans-73" x="918.880859"/>
      <use xlink:href="#DejaVuSans-20" x="970.980469"/>
      <use xlink:href="#DejaVuSans-6d" x="1002.767578"/>
      <use xlink:href="#DejaVuSans-61" x="1100.179688"/>
      <use xlink:href="#DejaVuSans-78" x="1161.458984"/>
     </g>
    </g>
    <g id="line2d_25">
     <path d="M 66.6 83.926688 
L 76.6 83.926688 
L 86.6 83.926688 
" style="fill: none; stroke: #32cd32; stroke-opacity: 0.8; stroke-width: 0.5; stroke-linecap: square"/>
    </g>
    <g id="text_20">
     <!-- Positive predictions min -->
     <g transform="translate(94.6 87.426688) scale(0.1 -0.1)">
      <use xlink:href="#DejaVuSans-50"/>
      <use xlink:href="#DejaVuSans-6f" x="56.677734"/>
      <use xlink:href="#DejaVuSans-73" x="117.859375"/>
      <use xlink:href="#DejaVuSans-69" x="169.958984"/>
      <use xlink:href="#DejaVuSans-74" x="197.742188"/>
      <use xlink:href="#DejaVuSans-69" x="236.951172"/>
      <use xlink:href="#DejaVuSans-76" x="264.734375"/>
      <use xlink:href="#DejaVuSans-65" x="323.914062"/>
      <use xlink:href="#DejaVuSans-20" x="385.4375"/>
      <use xlink:href="#DejaVuSans-70" x="417.224609"/>
      <use xlink:href="#DejaVuSans-72" x="480.701172"/>
      <use xlink:href="#DejaVuSans-65" x="519.564453"/>
      <use xlink:href="#DejaVuSans-64" x="581.087891"/>
      <use xlink:href="#DejaVuSans-69" x="644.564453"/>
      <use xlink:href="#DejaVuSans-63" x="672.347656"/>
      <use xlink:href="#DejaVuSans-74" x="727.328125"/>
      <use xlink:href="#DejaVuSans-69" x="766.537109"/>
      <use xlink:href="#DejaVuSans-6f" x="794.320312"/>
      <use xlink:href="#DejaVuSans-6e" x="855.501953"/>
      <use xlink:href="#DejaVuSans-73" x="918.880859"/>
      <use xlink:href="#DejaVuSans-20" x="970.980469"/>
      <use xlink:href="#DejaVuSans-6d" x="1002.767578"/>
      <use xlink:href="#DejaVuSans-69" x="1100.179688"/>
      <use xlink:href="#DejaVuSans-6e" x="1127.962891"/>
     </g>
    </g>
    <g id="line2d_26">
     <path d="M 66.6 98.604813 
L 76.6 98.604813 
L 86.6 98.604813 
" style="fill: none; stroke: #ff0000; stroke-opacity: 0.8; stroke-width: 0.5; stroke-linecap: square"/>
    </g>
    <g id="text_21">
     <!-- Negative predictions -->
     <g transform="translate(94.6 102.104813) scale(0.1 -0.1)">
      <defs>
       <path id="DejaVuSans-4e" d="M 628 4666 
L 1478 4666 
L 3547 763 
L 3547 4666 
L 4159 4666 
L 4159 0 
L 3309 0 
L 1241 3903 
L 1241 0 
L 628 0 
L 628 4666 
z
" transform="scale(0.015625)"/>
       <path id="DejaVuSans-67" d="M 2906 1791 
Q 2906 2416 2648 2759 
Q 2391 3103 1925 3103 
Q 1463 3103 1205 2759 
Q 947 2416 947 1791 
Q 947 1169 1205 825 
Q 1463 481 1925 481 
Q 2391 481 2648 825 
Q 2906 1169 2906 1791 
z
M 3481 434 
Q 3481 -459 3084 -895 
Q 2688 -1331 1869 -1331 
Q 1566 -1331 1297 -1286 
Q 1028 -1241 775 -1147 
L 775 -588 
Q 1028 -725 1275 -790 
Q 1522 -856 1778 -856 
Q 2344 -856 2625 -561 
Q 2906 -266 2906 331 
L 2906 616 
Q 2728 306 2450 153 
Q 2172 0 1784 0 
Q 1141 0 747 490 
Q 353 981 353 1791 
Q 353 2603 747 3093 
Q 1141 3584 1784 3584 
Q 2172 3584 2450 3431 
Q 2728 3278 2906 2969 
L 2906 3500 
L 3481 3500 
L 3481 434 
z
" transform="scale(0.015625)"/>
      </defs>
      <use xlink:href="#DejaVuSans-4e"/>
      <use xlink:href="#DejaVuSans-65" x="74.804688"/>
      <use xlink:href="#DejaVuSans-67" x="136.328125"/>
      <use xlink:href="#DejaVuSans-61" x="199.804688"/>
      <use xlink:href="#DejaVuSans-74" x="261.083984"/>
      <use xlink:href="#DejaVuSans-69" x="300.292969"/>
      <use xlink:href="#DejaVuSans-76" x="328.076172"/>
      <use xlink:href="#DejaVuSans-65" x="387.255859"/>
      <use xlink:href="#DejaVuSans-20" x="448.779297"/>
      <use xlink:href="#DejaVuSans-70" x="480.566406"/>
      <use xlink:href="#DejaVuSans-72" x="544.042969"/>
      <use xlink:href="#DejaVuSans-65" x="582.90625"/>
      <use xlink:href="#DejaVuSans-64" x="644.429688"/>
      <use xlink:href="#DejaVuSans-69" x="707.90625"/>
      <use xlink:href="#DejaVuSans-63" x="735.689453"/>
      <use xlink:href="#DejaVuSans-74" x="790.669922"/>
      <use xlink:href="#DejaVuSans-69" x="829.878906"/>
      <use xlink:href="#DejaVuSans-6f" x="857.662109"/>
      <use xlink:href="#DejaVuSans-6e" x="918.84375"/>
      <use xlink:href="#DejaVuSans-73" x="982.222656"/>
     </g>
    </g>
    <g id="line2d_27">
     <path d="M 66.6 113.282938 
L 76.6 113.282938 
L 86.6 113.282938 
" style="fill: none; stroke: #f08080; stroke-opacity: 0.8; stroke-width: 0.5; stroke-linecap: square"/>
    </g>
    <g id="text_22">
     <!-- Negative predictions max -->
     <g transform="translate(94.6 116.782938) scale(0.1 -0.1)">
      <use xlink:href="#DejaVuSans-4e"/>
      <use xlink:href="#DejaVuSans-65" x="74.804688"/>
      <use xlink:href="#DejaVuSans-67" x="136.328125"/>
      <use xlink:href="#DejaVuSans-61" x="199.804688"/>
      <use xlink:href="#DejaVuSans-74" x="261.083984"/>
      <use xlink:href="#DejaVuSans-69" x="300.292969"/>
      <use xlink:href="#DejaVuSans-76" x="328.076172"/>
      <use xlink:href="#DejaVuSans-65" x="387.255859"/>
      <use xlink:href="#DejaVuSans-20" x="448.779297"/>
      <use xlink:href="#DejaVuSans-70" x="480.566406"/>
      <use xlink:href="#DejaVuSans-72" x="544.042969"/>
      <use xlink:href="#DejaVuSans-65" x="582.90625"/>
      <use xlink:href="#DejaVuSans-64" x="644.429688"/>
      <use xlink:href="#DejaVuSans-69" x="707.90625"/>
      <use xlink:href="#DejaVuSans-63" x="735.689453"/>
      <use xlink:href="#DejaVuSans-74" x="790.669922"/>
      <use xlink:href="#DejaVuSans-69" x="829.878906"/>
      <use xlink:href="#DejaVuSans-6f" x="857.662109"/>
      <use xlink:href="#DejaVuSans-6e" x="918.84375"/>
      <use xlink:href="#DejaVuSans-73" x="982.222656"/>
      <use xlink:href="#DejaVuSans-20" x="1034.322266"/>
      <use xlink:href="#DejaVuSans-6d" x="1066.109375"/>
      <use xlink:href="#DejaVuSans-61" x="1163.521484"/>
      <use xlink:href="#DejaVuSans-78" x="1224.800781"/>
     </g>
    </g>
    <g id="line2d_28">
     <path d="M 66.6 127.961063 
L 76.6 127.961063 
L 86.6 127.961063 
" style="fill: none; stroke: #f08080; stroke-opacity: 0.8; stroke-width: 0.5; stroke-linecap: square"/>
    </g>
    <g id="text_23">
     <!-- Negative predictions min -->
     <g transform="translate(94.6 131.461063) scale(0.1 -0.1)">
      <use xlink:href="#DejaVuSans-4e"/>
      <use xlink:href="#DejaVuSans-65" x="74.804688"/>
      <use xlink:href="#DejaVuSans-67" x="136.328125"/>
      <use xlink:href="#DejaVuSans-61" x="199.804688"/>
      <use xlink:href="#DejaVuSans-74" x="261.083984"/>
      <use xlink:href="#DejaVuSans-69" x="300.292969"/>
      <use xlink:href="#DejaVuSans-76" x="328.076172"/>
      <use xlink:href="#DejaVuSans-65" x="387.255859"/>
      <use xlink:href="#DejaVuSans-20" x="448.779297"/>
      <use xlink:href="#DejaVuSans-70" x="480.566406"/>
      <use xlink:href="#DejaVuSans-72" x="544.042969"/>
      <use xlink:href="#DejaVuSans-65" x="582.90625"/>
      <use xlink:href="#DejaVuSans-64" x="644.429688"/>
      <use xlink:href="#DejaVuSans-69" x="707.90625"/>
      <use xlink:href="#DejaVuSans-63" x="735.689453"/>
      <use xlink:href="#DejaVuSans-74" x="790.669922"/>
      <use xlink:href="#DejaVuSans-69" x="829.878906"/>
      <use xlink:href="#DejaVuSans-6f" x="857.662109"/>
      <use xlink:href="#DejaVuSans-6e" x="918.84375"/>
      <use xlink:href="#DejaVuSans-73" x="982.222656"/>
      <use xlink:href="#DejaVuSans-20" x="1034.322266"/>
      <use xlink:href="#DejaVuSans-6d" x="1066.109375"/>
      <use xlink:href="#DejaVuSans-69" x="1163.521484"/>
      <use xlink:href="#DejaVuSans-6e" x="1191.304688"/>
     </g>
    </g>
   </g>
  </g>
 </g>
 <defs>
  <clipPath id="pb85c4ba1d3">
   <rect x="57.6" y="41.472" width="357.12" height="266.112"/>
  </clipPath>
 </defs>
</svg>
