<?xml version="1.0" encoding="utf-8" standalone="no"?>
<!DOCTYPE svg PUBLIC "-//W3C//DTD SVG 1.1//EN"
  "http://www.w3.org/Graphics/SVG/1.1/DTD/svg11.dtd">
<svg xmlns:xlink="http://www.w3.org/1999/xlink" width="460.8pt" height="345.6pt" viewBox="0 0 460.8 345.6" xmlns="http://www.w3.org/2000/svg" version="1.1">
 <metadata>
  <rdf:RDF xmlns:dc="http://purl.org/dc/elements/1.1/" xmlns:cc="http://creativecommons.org/ns#" xmlns:rdf="http://www.w3.org/1999/02/22-rdf-syntax-ns#">
   <cc:Work>
    <dc:type rdf:resource="http://purl.org/dc/dcmitype/StillImage"/>
    <dc:date>2024-05-30T09:56:41.505208</dc:date>
    <dc:format>image/svg+xml</dc:format>
    <dc:creator>
     <cc:Agent>
      <dc:title>Matplotlib v3.9.0, https://matplotlib.org/</dc:title>
     </cc:Agent>
    </dc:creator>
   </cc:Work>
  </rdf:RDF>
 </metadata>
 <defs>
  <style type="text/css">*{stroke-linejoin: round; stroke-linecap: butt}</style>
 </defs>
 <g id="figure_1">
  <g id="patch_1">
   <path d="M 0 345.6 
L 460.8 345.6 
L 460.8 0 
L 0 0 
z
" style="fill: #ffffff"/>
  </g>
  <g id="axes_1">
   <g id="patch_2">
    <path d="M 57.6 307.584 
L 414.72 307.584 
L 414.72 41.472 
L 57.6 41.472 
z
" style="fill: #ffffff"/>
   </g>
   <g id="matplotlib.axis_1">
    <g id="xtick_1">
     <g id="line2d_1">
      <defs>
       <path id="m1ac09a9a14" d="M 0 0 
L 0 3.5 
" style="stroke: #000000; stroke-width: 0.8"/>
      </defs>
      <g>
       <use xlink:href="#m1ac09a9a14" x="73.832727" y="307.584" style="stroke: #000000; stroke-width: 0.8"/>
      </g>
     </g>
     <g id="text_1">
      <!-- 0 -->
      <g transform="translate(70.651477 322.182437) scale(0.1 -0.1)">
       <defs>
        <path id="DejaVuSans-30" d="M 2034 4250 
Q 1547 4250 1301 3770 
Q 1056 3291 1056 2328 
Q 1056 1369 1301 889 
Q 1547 409 2034 409 
Q 2525 409 2770 889 
Q 3016 1369 3016 2328 
Q 3016 3291 2770 3770 
Q 2525 4250 2034 4250 
z
M 2034 4750 
Q 2819 4750 3233 4129 
Q 3647 3509 3647 2328 
Q 3647 1150 3233 529 
Q 2819 -91 2034 -91 
Q 1250 -91 836 529 
Q 422 1150 422 2328 
Q 422 3509 836 4129 
Q 1250 4750 2034 4750 
z
" transform="scale(0.015625)"/>
       </defs>
       <use xlink:href="#DejaVuSans-30"/>
      </g>
     </g>
    </g>
    <g id="xtick_2">
     <g id="line2d_2">
      <g>
       <use xlink:href="#m1ac09a9a14" x="116.18818" y="307.584" style="stroke: #000000; stroke-width: 0.8"/>
      </g>
     </g>
     <g id="text_2">
      <!-- 200 -->
      <g transform="translate(106.64443 322.182437) scale(0.1 -0.1)">
       <defs>
        <path id="DejaVuSans-32" d="M 1228 531 
L 3431 531 
L 3431 0 
L 469 0 
L 469 531 
Q 828 903 1448 1529 
Q 2069 2156 2228 2338 
Q 2531 2678 2651 2914 
Q 2772 3150 2772 3378 
Q 2772 3750 2511 3984 
Q 2250 4219 1831 4219 
Q 1534 4219 1204 4116 
Q 875 4013 500 3803 
L 500 4441 
Q 881 4594 1212 4672 
Q 1544 4750 1819 4750 
Q 2544 4750 2975 4387 
Q 3406 4025 3406 3419 
Q 3406 3131 3298 2873 
Q 3191 2616 2906 2266 
Q 2828 2175 2409 1742 
Q 1991 1309 1228 531 
z
" transform="scale(0.015625)"/>
       </defs>
       <use xlink:href="#DejaVuSans-32"/>
       <use xlink:href="#DejaVuSans-30" x="63.623047"/>
       <use xlink:href="#DejaVuSans-30" x="127.246094"/>
      </g>
     </g>
    </g>
    <g id="xtick_3">
     <g id="line2d_3">
      <g>
       <use xlink:href="#m1ac09a9a14" x="158.543633" y="307.584" style="stroke: #000000; stroke-width: 0.8"/>
      </g>
     </g>
     <g id="text_3">
      <!-- 400 -->
      <g transform="translate(148.999883 322.182437) scale(0.1 -0.1)">
       <defs>
        <path id="DejaVuSans-34" d="M 2419 4116 
L 825 1625 
L 2419 1625 
L 2419 4116 
z
M 2253 4666 
L 3047 4666 
L 3047 1625 
L 3713 1625 
L 3713 1100 
L 3047 1100 
L 3047 0 
L 2419 0 
L 2419 1100 
L 313 1100 
L 313 1709 
L 2253 4666 
z
" transform="scale(0.015625)"/>
       </defs>
       <use xlink:href="#DejaVuSans-34"/>
       <use xlink:href="#DejaVuSans-30" x="63.623047"/>
       <use xlink:href="#DejaVuSans-30" x="127.246094"/>
      </g>
     </g>
    </g>
    <g id="xtick_4">
     <g id="line2d_4">
      <g>
       <use xlink:href="#m1ac09a9a14" x="200.899086" y="307.584" style="stroke: #000000; stroke-width: 0.8"/>
      </g>
     </g>
     <g id="text_4">
      <!-- 600 -->
      <g transform="translate(191.355336 322.182437) scale(0.1 -0.1)">
       <defs>
        <path id="DejaVuSans-36" d="M 2113 2584 
Q 1688 2584 1439 2293 
Q 1191 2003 1191 1497 
Q 1191 994 1439 701 
Q 1688 409 2113 409 
Q 2538 409 2786 701 
Q 3034 994 3034 1497 
Q 3034 2003 2786 2293 
Q 2538 2584 2113 2584 
z
M 3366 4563 
L 3366 3988 
Q 3128 4100 2886 4159 
Q 2644 4219 2406 4219 
Q 1781 4219 1451 3797 
Q 1122 3375 1075 2522 
Q 1259 2794 1537 2939 
Q 1816 3084 2150 3084 
Q 2853 3084 3261 2657 
Q 3669 2231 3669 1497 
Q 3669 778 3244 343 
Q 2819 -91 2113 -91 
Q 1303 -91 875 529 
Q 447 1150 447 2328 
Q 447 3434 972 4092 
Q 1497 4750 2381 4750 
Q 2619 4750 2861 4703 
Q 3103 4656 3366 4563 
z
" transform="scale(0.015625)"/>
       </defs>
       <use xlink:href="#DejaVuSans-36"/>
       <use xlink:href="#DejaVuSans-30" x="63.623047"/>
       <use xlink:href="#DejaVuSans-30" x="127.246094"/>
      </g>
     </g>
    </g>
    <g id="xtick_5">
     <g id="line2d_5">
      <g>
       <use xlink:href="#m1ac09a9a14" x="243.254538" y="307.584" style="stroke: #000000; stroke-width: 0.8"/>
      </g>
     </g>
     <g id="text_5">
      <!-- 800 -->
      <g transform="translate(233.710788 322.182437) scale(0.1 -0.1)">
       <defs>
        <path id="DejaVuSans-38" d="M 2034 2216 
Q 1584 2216 1326 1975 
Q 1069 1734 1069 1313 
Q 1069 891 1326 650 
Q 1584 409 2034 409 
Q 2484 409 2743 651 
Q 3003 894 3003 1313 
Q 3003 1734 2745 1975 
Q 2488 2216 2034 2216 
z
M 1403 2484 
Q 997 2584 770 2862 
Q 544 3141 544 3541 
Q 544 4100 942 4425 
Q 1341 4750 2034 4750 
Q 2731 4750 3128 4425 
Q 3525 4100 3525 3541 
Q 3525 3141 3298 2862 
Q 3072 2584 2669 2484 
Q 3125 2378 3379 2068 
Q 3634 1759 3634 1313 
Q 3634 634 3220 271 
Q 2806 -91 2034 -91 
Q 1263 -91 848 271 
Q 434 634 434 1313 
Q 434 1759 690 2068 
Q 947 2378 1403 2484 
z
M 1172 3481 
Q 1172 3119 1398 2916 
Q 1625 2713 2034 2713 
Q 2441 2713 2670 2916 
Q 2900 3119 2900 3481 
Q 2900 3844 2670 4047 
Q 2441 4250 2034 4250 
Q 1625 4250 1398 4047 
Q 1172 3844 1172 3481 
z
" transform="scale(0.015625)"/>
       </defs>
       <use xlink:href="#DejaVuSans-38"/>
       <use xlink:href="#DejaVuSans-30" x="63.623047"/>
       <use xlink:href="#DejaVuSans-30" x="127.246094"/>
      </g>
     </g>
    </g>
    <g id="xtick_6">
     <g id="line2d_6">
      <g>
       <use xlink:href="#m1ac09a9a14" x="285.609991" y="307.584" style="stroke: #000000; stroke-width: 0.8"/>
      </g>
     </g>
     <g id="text_6">
      <!-- 1000 -->
      <g transform="translate(272.884991 322.182437) scale(0.1 -0.1)">
       <defs>
        <path id="DejaVuSans-31" d="M 794 531 
L 1825 531 
L 1825 4091 
L 703 3866 
L 703 4441 
L 1819 4666 
L 2450 4666 
L 2450 531 
L 3481 531 
L 3481 0 
L 794 0 
L 794 531 
z
" transform="scale(0.015625)"/>
       </defs>
       <use xlink:href="#DejaVuSans-31"/>
       <use xlink:href="#DejaVuSans-30" x="63.623047"/>
       <use xlink:href="#DejaVuSans-30" x="127.246094"/>
       <use xlink:href="#DejaVuSans-30" x="190.869141"/>
      </g>
     </g>
    </g>
    <g id="xtick_7">
     <g id="line2d_7">
      <g>
       <use xlink:href="#m1ac09a9a14" x="327.965444" y="307.584" style="stroke: #000000; stroke-width: 0.8"/>
      </g>
     </g>
     <g id="text_7">
      <!-- 1200 -->
      <g transform="translate(315.240444 322.182437) scale(0.1 -0.1)">
       <use xlink:href="#DejaVuSans-31"/>
       <use xlink:href="#DejaVuSans-32" x="63.623047"/>
       <use xlink:href="#DejaVuSans-30" x="127.246094"/>
       <use xlink:href="#DejaVuSans-30" x="190.869141"/>
      </g>
     </g>
    </g>
    <g id="xtick_8">
     <g id="line2d_8">
      <g>
       <use xlink:href="#m1ac09a9a14" x="370.320897" y="307.584" style="stroke: #000000; stroke-width: 0.8"/>
      </g>
     </g>
     <g id="text_8">
      <!-- 1400 -->
      <g transform="translate(357.595897 322.182437) scale(0.1 -0.1)">
       <use xlink:href="#DejaVuSans-31"/>
       <use xlink:href="#DejaVuSans-34" x="63.623047"/>
       <use xlink:href="#DejaVuSans-30" x="127.246094"/>
       <use xlink:href="#DejaVuSans-30" x="190.869141"/>
      </g>
     </g>
    </g>
    <g id="xtick_9">
     <g id="line2d_9">
      <g>
       <use xlink:href="#m1ac09a9a14" x="412.676349" y="307.584" style="stroke: #000000; stroke-width: 0.8"/>
      </g>
     </g>
     <g id="text_9">
      <!-- 1600 -->
      <g transform="translate(399.951349 322.182437) scale(0.1 -0.1)">
       <use xlink:href="#DejaVuSans-31"/>
       <use xlink:href="#DejaVuSans-36" x="63.623047"/>
       <use xlink:href="#DejaVuSans-30" x="127.246094"/>
       <use xlink:href="#DejaVuSans-30" x="190.869141"/>
      </g>
     </g>
    </g>
   </g>
   <g id="matplotlib.axis_2">
    <g id="ytick_1">
     <g id="line2d_10">
      <defs>
       <path id="madcf592f7e" d="M 0 0 
L -3.5 0 
" style="stroke: #000000; stroke-width: 0.8"/>
      </defs>
      <g>
       <use xlink:href="#madcf592f7e" x="57.6" y="286.933357" style="stroke: #000000; stroke-width: 0.8"/>
      </g>
     </g>
     <g id="text_10">
      <!-- −6 -->
      <g transform="translate(35.857813 290.732576) scale(0.1 -0.1)">
       <defs>
        <path id="DejaVuSans-2212" d="M 678 2272 
L 4684 2272 
L 4684 1741 
L 678 1741 
L 678 2272 
z
" transform="scale(0.015625)"/>
       </defs>
       <use xlink:href="#DejaVuSans-2212"/>
       <use xlink:href="#DejaVuSans-36" x="83.789062"/>
      </g>
     </g>
    </g>
    <g id="ytick_2">
     <g id="line2d_11">
      <g>
       <use xlink:href="#madcf592f7e" x="57.6" y="250.06523" style="stroke: #000000; stroke-width: 0.8"/>
      </g>
     </g>
     <g id="text_11">
      <!-- −4 -->
      <g transform="translate(35.857813 253.864449) scale(0.1 -0.1)">
       <use xlink:href="#DejaVuSans-2212"/>
       <use xlink:href="#DejaVuSans-34" x="83.789062"/>
      </g>
     </g>
    </g>
    <g id="ytick_3">
     <g id="line2d_12">
      <g>
       <use xlink:href="#madcf592f7e" x="57.6" y="213.197102" style="stroke: #000000; stroke-width: 0.8"/>
      </g>
     </g>
     <g id="text_12">
      <!-- −2 -->
      <g transform="translate(35.857813 216.996321) scale(0.1 -0.1)">
       <use xlink:href="#DejaVuSans-2212"/>
       <use xlink:href="#DejaVuSans-32" x="83.789062"/>
      </g>
     </g>
    </g>
    <g id="ytick_4">
     <g id="line2d_13">
      <g>
       <use xlink:href="#madcf592f7e" x="57.6" y="176.328975" style="stroke: #000000; stroke-width: 0.8"/>
      </g>
     </g>
     <g id="text_13">
      <!-- 0 -->
      <g transform="translate(44.2375 180.128194) scale(0.1 -0.1)">
       <use xlink:href="#DejaVuSans-30"/>
      </g>
     </g>
    </g>
    <g id="ytick_5">
     <g id="line2d_14">
      <g>
       <use xlink:href="#madcf592f7e" x="57.6" y="139.460848" style="stroke: #000000; stroke-width: 0.8"/>
      </g>
     </g>
     <g id="text_14">
      <!-- 2 -->
      <g transform="translate(44.2375 143.260067) scale(0.1 -0.1)">
       <use xlink:href="#DejaVuSans-32"/>
      </g>
     </g>
    </g>
    <g id="ytick_6">
     <g id="line2d_15">
      <g>
       <use xlink:href="#madcf592f7e" x="57.6" y="102.592721" style="stroke: #000000; stroke-width: 0.8"/>
      </g>
     </g>
     <g id="text_15">
      <!-- 4 -->
      <g transform="translate(44.2375 106.391939) scale(0.1 -0.1)">
       <use xlink:href="#DejaVuSans-34"/>
      </g>
     </g>
    </g>
    <g id="ytick_7">
     <g id="line2d_16">
      <g>
       <use xlink:href="#madcf592f7e" x="57.6" y="65.724593" style="stroke: #000000; stroke-width: 0.8"/>
      </g>
     </g>
     <g id="text_16">
      <!-- 6 -->
      <g transform="translate(44.2375 69.523812) scale(0.1 -0.1)">
       <use xlink:href="#DejaVuSans-36"/>
      </g>
     </g>
    </g>
   </g>
   <g id="line2d_17">
    <path d="M 73.832727 176.425391 
L 74.679836 177.335535 
L 74.891614 177.267399 
L 75.103391 177.412079 
L 75.526945 177.410229 
L 75.738723 177.60049 
L 75.9505 177.571851 
L 76.162277 177.697164 
L 76.374054 177.659565 
L 76.585832 177.744707 
L 77.221163 178.364954 
L 77.432941 178.608011 
L 77.644718 178.659186 
L 77.856495 178.546452 
L 78.491827 179.047298 
L 79.127159 179.00519 
L 79.338936 179.195936 
L 79.550713 179.063174 
L 79.762491 179.396293 
L 80.186045 179.553746 
L 80.397822 179.876835 
L 80.821377 179.749144 
L 81.244932 180.033134 
L 81.668486 180.128579 
L 83.150927 180.71331 
L 83.998036 180.931544 
L 84.633368 180.869516 
L 84.845145 181.055168 
L 85.2687 181.004763 
L 85.480477 181.150581 
L 86.115809 181.148678 
L 86.327586 181.339235 
L 86.962918 181.344821 
L 87.174695 181.428122 
L 87.598249 181.789363 
L 87.810027 181.808414 
L 88.021804 181.70515 
L 88.445358 181.966429 
L 88.868913 182.211008 
L 89.08069 182.302531 
L 89.292468 182.241513 
L 89.504245 182.409082 
L 90.139577 182.308335 
L 90.563131 182.889091 
L 90.986686 183.046985 
L 91.622017 183.470846 
L 92.257349 183.625413 
L 92.469126 183.782797 
L 92.680904 183.415993 
L 93.104458 184.174133 
L 93.316236 184.205143 
L 94.163345 185.057096 
L 94.586899 184.980296 
L 95.857563 186.063788 
L 96.281117 186.384182 
L 96.492895 186.485599 
L 96.916449 186.520663 
L 97.340004 186.686812 
L 97.551781 186.59128 
L 98.610667 187.10189 
L 98.822444 187.249695 
L 99.034222 187.231267 
L 99.457776 187.595469 
L 100.304885 187.570253 
L 100.940217 187.85036 
L 101.363772 187.671035 
L 101.575549 187.923595 
L 101.787326 187.930809 
L 103.05799 188.905232 
L 103.269767 188.912873 
L 103.693321 189.334022 
L 105.38754 189.904534 
L 105.599317 189.823734 
L 106.022871 190.065266 
L 107.293535 190.706824 
L 107.717089 191.095064 
L 108.352421 191.26412 
L 108.564199 191.086221 
L 108.987753 191.312804 
L 110.046639 191.676413 
L 110.681971 192.147284 
L 110.893748 192.125266 
L 111.317303 192.342779 
L 111.52908 192.287928 
L 111.740857 192.349788 
L 111.952635 192.547217 
L 112.164412 192.511017 
L 112.376189 192.597357 
L 112.587967 192.49461 
L 113.223298 192.721834 
L 113.646853 192.756063 
L 113.85863 192.970507 
L 114.070407 192.943305 
L 114.705739 193.21469 
L 115.341071 193.160674 
L 115.764626 193.597337 
L 117.035289 194.240962 
L 117.247066 194.182137 
L 118.094175 194.626558 
L 118.305953 194.570352 
L 118.729507 194.699615 
L 119.364839 194.912988 
L 119.788394 194.852993 
L 120.000171 195.017564 
L 120.635503 195.115355 
L 121.906166 195.748537 
L 122.117943 195.715382 
L 122.329721 195.94388 
L 122.541498 195.945958 
L 122.965052 196.195521 
L 123.17683 195.988592 
L 123.388607 196.387832 
L 123.600384 196.488636 
L 123.812162 196.730882 
L 124.023939 196.772411 
L 124.235716 196.998328 
L 124.659271 196.985404 
L 124.871048 197.10107 
L 125.294602 197.153914 
L 126.353489 197.415848 
L 126.565266 197.30868 
L 126.777043 197.62995 
L 127.412375 197.922894 
L 127.83593 197.975595 
L 129.106593 197.963433 
L 129.31837 198.1493 
L 129.530148 198.081105 
L 129.953702 198.306843 
L 130.800811 198.588969 
L 132.706807 198.869966 
L 132.918584 198.694769 
L 133.342138 199.095469 
L 133.765693 199.483402 
L 134.401025 199.610011 
L 135.036357 199.852683 
L 135.248134 199.804307 
L 135.459911 199.986971 
L 136.095243 200.017947 
L 136.730575 200.152868 
L 136.942352 200.303469 
L 137.365906 200.337917 
L 137.789461 200.56865 
L 139.907234 201.012396 
L 140.119011 200.945607 
L 141.177897 201.32766 
L 141.601452 201.378262 
L 142.872115 201.723544 
L 144.142779 201.833414 
L 144.778111 202.032077 
L 145.413442 202.049793 
L 146.048774 202.408263 
L 146.260552 202.421428 
L 147.107661 202.829849 
L 148.166547 202.928685 
L 149.013656 203.556327 
L 150.28432 203.712983 
L 152.190315 204.225792 
L 152.402092 204.153505 
L 152.825647 204.365132 
L 153.037424 204.285639 
L 153.884533 204.443173 
L 154.308088 204.543165 
L 154.519865 204.617291 
L 154.731642 204.490135 
L 155.578751 205.055011 
L 156.42586 205.264566 
L 156.849415 205.223911 
L 157.908301 205.40478 
L 158.120078 205.443813 
L 158.331856 205.596335 
L 158.75541 205.604723 
L 159.178965 205.636945 
L 159.390742 205.551695 
L 160.873183 206.07707 
L 161.08496 206.043644 
L 161.508514 206.281796 
L 161.720292 206.165653 
L 161.932069 206.435162 
L 163.838064 206.700212 
L 164.473396 207.053406 
L 164.896951 207.162825 
L 165.320505 207.242802 
L 165.955837 207.484279 
L 167.438278 207.887977 
L 167.861832 207.869526 
L 168.920719 208.198392 
L 169.344273 208.137805 
L 169.556051 208.230986 
L 169.767828 208.191122 
L 170.614937 208.463051 
L 171.8856 208.904242 
L 172.097378 208.84838 
L 172.944487 209.014948 
L 173.368041 209.151209 
L 174.003373 209.322924 
L 174.21515 209.268637 
L 175.062259 209.705784 
L 175.274037 209.631509 
L 175.697591 209.839921 
L 175.909368 209.795874 
L 176.121146 209.879696 
L 176.332923 209.818148 
L 176.756477 209.951747 
L 177.391809 210.212745 
L 178.027141 210.519493 
L 178.450696 210.575989 
L 178.662473 210.696672 
L 179.086027 210.634148 
L 180.144914 210.945638 
L 182.262686 211.186409 
L 183.109795 211.374365 
L 183.53335 211.377908 
L 184.592236 211.465415 
L 185.015791 211.569978 
L 185.227568 211.52412 
L 186.286454 211.964467 
L 186.498232 211.993001 
L 186.921786 212.354234 
L 187.345341 212.603658 
L 187.557118 212.612324 
L 188.19245 213.280466 
L 188.404227 213.196388 
L 189.251336 213.461784 
L 189.463113 213.2841 
L 189.674891 213.456846 
L 189.886668 213.081948 
L 190.310222 214.086692 
L 190.522 214.2778 
L 191.157331 215.497852 
L 191.369109 215.397131 
L 191.580886 215.59018 
L 192.00444 215.498068 
L 192.427995 215.748698 
L 192.639772 216.009137 
L 192.85155 215.978049 
L 193.063327 216.224692 
L 193.486881 216.371806 
L 193.698659 216.604338 
L 193.910436 216.542047 
L 195.816431 217.179533 
L 196.451763 217.525216 
L 197.087095 217.566158 
L 197.510649 217.803893 
L 197.934204 217.945774 
L 198.569536 218.046768 
L 198.99309 218.394936 
L 199.204867 218.608643 
L 199.840199 218.681193 
L 201.746195 220.322995 
L 202.169749 220.410008 
L 203.65219 220.772425 
L 203.863967 220.806575 
L 204.287522 221.230151 
L 204.499299 221.160186 
L 207.252403 222.03083 
L 207.675958 222.344982 
L 208.099513 222.521446 
L 208.946622 223.075307 
L 210.005508 223.929546 
L 210.217285 223.827175 
L 210.852617 224.295135 
L 211.064394 224.487538 
L 211.276171 224.414938 
L 211.699726 224.630471 
L 212.123281 224.902077 
L 212.758612 225.372693 
L 212.97039 225.27111 
L 213.182167 225.519092 
L 213.393944 225.44803 
L 214.029276 225.766575 
L 214.241053 225.829869 
L 214.664608 226.182565 
L 214.876385 226.25128 
L 215.088162 226.140576 
L 215.511717 226.333526 
L 216.147049 226.512849 
L 216.78238 226.793626 
L 217.205935 226.735281 
L 217.629489 226.949711 
L 217.841267 226.832827 
L 218.688376 227.051949 
L 219.323708 227.506721 
L 220.594371 227.956803 
L 221.017926 228.177631 
L 221.229703 228.095663 
L 221.44148 228.23529 
L 221.865035 228.317224 
L 222.500366 228.65417 
L 222.712144 228.633943 
L 222.923921 228.767389 
L 223.347476 228.725749 
L 223.982807 228.717653 
L 224.194585 228.817112 
L 224.406362 229.102299 
L 224.618139 229.041617 
L 225.041694 229.451215 
L 225.253471 229.349984 
L 226.312357 229.771568 
L 227.583021 230.158515 
L 228.218353 230.44125 
L 228.43013 230.43131 
L 228.853684 230.921167 
L 229.277239 231.11402 
L 230.124348 231.311702 
L 230.75968 231.50643 
L 231.183234 231.935663 
L 231.395012 231.923422 
L 231.606789 232.047606 
L 231.818566 231.978754 
L 232.665675 232.265708 
L 233.08923 232.423829 
L 233.301007 232.300058 
L 233.512784 232.65041 
L 233.724561 232.697418 
L 234.148116 233.12205 
L 234.571671 233.072923 
L 235.41878 233.459519 
L 235.630557 233.359369 
L 236.054111 233.711246 
L 236.265889 233.676023 
L 236.689443 233.893652 
L 237.324775 233.984657 
L 237.748329 234.165648 
L 238.171884 234.160873 
L 238.383661 234.245183 
L 238.595439 234.155776 
L 239.018993 234.553967 
L 239.23077 234.74809 
L 240.501434 234.999741 
L 241.136766 235.400229 
L 241.772097 235.580944 
L 241.983875 235.470508 
L 242.619207 235.676246 
L 242.830984 235.587544 
L 243.466316 235.863191 
L 243.88987 236.226721 
L 244.525202 236.234018 
L 244.736979 236.435496 
L 244.948756 236.318024 
L 245.160534 236.372271 
L 245.372311 236.556155 
L 245.584088 236.415616 
L 246.431197 236.785001 
L 246.854752 236.878792 
L 247.066529 237.102274 
L 247.278306 237.160469 
L 247.701861 237.520679 
L 247.913638 237.559548 
L 248.337193 237.751884 
L 248.760747 237.969716 
L 249.184302 238.121438 
L 249.396079 238.143664 
L 249.819634 238.337369 
L 250.243188 238.40473 
L 250.666743 238.655747 
L 250.87852 238.686741 
L 251.302074 238.898316 
L 251.513852 238.731488 
L 251.725629 238.97637 
L 252.149183 239.024003 
L 252.572738 239.511051 
L 253.419847 239.621402 
L 253.631624 239.81806 
L 253.843402 239.826432 
L 254.055179 240.00525 
L 254.266956 240.00111 
L 254.478733 240.192227 
L 254.902288 240.351739 
L 256.172951 240.679119 
L 256.384729 240.69237 
L 256.596506 240.571896 
L 257.02006 240.863538 
L 258.290724 241.04618 
L 258.502501 240.856762 
L 258.926056 241.071378 
L 259.34961 241.442231 
L 260.408497 241.928836 
L 260.832051 241.959144 
L 261.255606 242.070954 
L 261.67916 242.043133 
L 262.314492 242.406243 
L 262.526269 242.364519 
L 262.738047 242.63698 
L 263.161601 242.670395 
L 263.585156 242.826785 
L 264.220487 243.01153 
L 264.855819 243.479261 
L 265.067597 243.641205 
L 266.550037 243.785222 
L 267.185369 244.033278 
L 267.397146 244.225628 
L 267.608924 244.252871 
L 267.820701 244.150595 
L 268.66781 244.567646 
L 269.726696 244.877632 
L 270.785583 245.186334 
L 271.209137 245.161265 
L 272.056246 245.301917 
L 272.268023 245.36504 
L 272.691578 245.318653 
L 273.115133 245.44391 
L 273.32691 245.43882 
L 273.538687 245.60061 
L 274.174019 245.626072 
L 274.385796 245.503711 
L 275.232905 245.863299 
L 275.444682 245.829436 
L 277.562455 246.568296 
L 277.774232 246.535569 
L 277.98601 246.617459 
L 278.409564 246.606387 
L 278.621341 246.648434 
L 278.833119 246.826897 
L 279.044896 246.650333 
L 279.256673 246.963381 
L 279.46845 247.003688 
L 279.680228 247.206189 
L 279.892005 247.162901 
L 280.31556 247.38414 
L 280.527337 247.406463 
L 280.739114 247.317032 
L 281.162669 247.570848 
L 281.586223 247.581915 
L 282.009778 247.854041 
L 282.221555 247.716947 
L 284.551105 248.800533 
L 284.762882 248.815162 
L 284.974659 248.9686 
L 285.186437 248.963365 
L 285.398214 249.09388 
L 285.821768 249.08048 
L 286.245323 249.274389 
L 286.4571 249.211092 
L 286.880655 249.511487 
L 287.515986 249.854545 
L 288.574873 250.31163 
L 288.78665 250.274509 
L 290.904423 251.248518 
L 291.1162 251.142232 
L 291.327977 251.316765 
L 291.539754 251.324031 
L 291.963309 251.49599 
L 292.386864 251.442284 
L 292.598641 251.376849 
L 293.869304 252.399899 
L 295.139968 252.360809 
L 295.563523 252.696776 
L 296.622409 252.848155 
L 296.834186 252.679362 
L 297.257741 253.05275 
L 297.469518 252.954619 
L 297.893072 253.081871 
L 298.10485 252.845944 
L 298.740181 253.857206 
L 299.163736 253.703055 
L 300.010845 254.39339 
L 300.222622 254.284082 
L 301.493286 254.583683 
L 301.91684 254.963945 
L 302.128618 254.960205 
L 302.340395 255.078924 
L 302.763949 255.056518 
L 303.611059 255.425093 
L 303.822836 255.401484 
L 304.034613 255.626828 
L 304.24639 255.55734 
L 305.093499 255.984578 
L 306.364163 255.999225 
L 306.57594 256.215053 
L 306.999495 256.435026 
L 307.211272 256.70531 
L 307.423049 256.60485 
L 308.058381 256.95327 
L 308.270158 256.976028 
L 308.481936 256.780177 
L 309.117267 257.483639 
L 309.329045 257.454176 
L 309.540822 257.788503 
L 309.752599 257.854481 
L 310.176154 258.265727 
L 310.387931 258.243862 
L 311.023263 258.653241 
L 311.446817 258.559828 
L 311.658595 258.885822 
L 312.082149 258.806344 
L 312.505704 258.973543 
L 312.929258 258.760302 
L 313.141035 258.860544 
L 313.776367 259.531467 
L 313.988144 259.504394 
L 315.258808 260.406946 
L 315.682363 260.383489 
L 315.89414 260.582652 
L 316.317694 260.705032 
L 316.529472 260.490884 
L 317.164803 261.03492 
L 317.376581 260.939392 
L 317.800135 261.253274 
L 318.011912 261.322271 
L 318.647244 261.885942 
L 318.859022 261.798116 
L 319.494353 262.152025 
L 319.706131 262.106123 
L 320.129685 262.563193 
L 320.341462 262.623807 
L 320.55324 262.864848 
L 320.765017 262.778761 
L 321.612126 263.45756 
L 321.823903 263.523177 
L 322.247458 263.940542 
L 322.88279 264.086064 
L 323.094567 264.246251 
L 323.306344 264.169042 
L 323.941676 264.418892 
L 324.36523 264.6848 
L 324.577008 264.711833 
L 325.000562 265.066978 
L 325.212339 265.198613 
L 325.424117 265.118268 
L 326.059448 265.350719 
L 326.69478 266.03971 
L 326.906558 266.225574 
L 327.118335 266.032674 
L 327.541889 266.450338 
L 327.965444 266.662621 
L 328.177221 266.683527 
L 328.388998 266.533717 
L 328.600776 266.811898 
L 328.812553 266.651502 
L 329.236107 266.959011 
L 329.659662 267.601429 
L 329.871439 267.53789 
L 330.083217 267.678445 
L 330.294994 268.161008 
L 330.718548 268.01745 
L 332.412766 269.059491 
L 332.624544 268.989202 
L 333.259875 269.648153 
L 333.68343 270.326681 
L 333.895207 270.156328 
L 334.106985 270.361559 
L 334.318762 270.36114 
L 334.742316 270.532965 
L 334.954094 270.530608 
L 335.377648 271.27226 
L 335.589425 271.440313 
L 335.801203 271.460934 
L 336.224757 272.27379 
L 336.648312 272.42062 
L 336.860089 272.619097 
L 337.283643 272.663911 
L 337.495421 272.565932 
L 338.130753 273.25152 
L 338.554307 273.225979 
L 338.766084 273.244853 
L 339.401416 273.854174 
L 339.824971 273.916319 
L 340.248525 274.171717 
L 340.67208 274.289733 
L 341.095634 274.634792 
L 341.519189 274.593726 
L 341.942743 274.857592 
L 342.366298 274.893634 
L 342.578075 275.034297 
L 343.213407 275.071826 
L 343.848739 275.253416 
L 344.060516 275.071214 
L 344.272293 275.422143 
L 344.48407 275.332788 
L 344.907625 276.026928 
L 345.33118 276.14896 
L 345.542957 276.343192 
L 345.754734 276.280386 
L 346.81362 276.5437 
L 347.872507 276.687805 
L 348.296061 276.758895 
L 348.507838 277.067072 
L 348.719616 276.900635 
L 348.931393 276.888586 
L 350.202057 277.578258 
L 350.625611 277.761481 
L 351.049166 277.893526 
L 351.47272 278.120559 
L 351.896275 278.16269 
L 352.108052 278.153691 
L 352.743384 278.661679 
L 352.955161 278.670768 
L 353.378716 279.001065 
L 353.590493 278.85746 
L 354.225825 279.547671 
L 354.649379 279.764903 
L 354.861156 279.596643 
L 355.284711 280.143333 
L 355.496488 280.247597 
L 355.920043 280.836322 
L 356.555374 280.967264 
L 357.190706 281.322977 
L 357.402484 281.271103 
L 357.826038 281.827434 
L 358.037815 281.779263 
L 358.46137 281.939614 
L 358.673147 281.916409 
L 359.308479 282.461099 
L 359.732033 282.386362 
L 359.943811 282.597648 
L 360.155588 282.603565 
L 360.79092 283.039539 
L 361.002697 282.92803 
L 361.214474 283.204528 
L 361.849806 283.138975 
L 362.273361 283.43307 
L 362.696915 283.477173 
L 363.755801 283.532719 
L 364.179356 283.745523 
L 364.814688 283.959565 
L 365.45002 284.093327 
L 366.085351 284.143519 
L 367.144238 284.57051 
L 367.567792 284.677603 
L 367.779569 284.857247 
L 368.203124 284.963579 
L 368.626679 285.257639 
L 368.838456 285.52782 
L 370.320897 285.832655 
L 370.532674 285.998055 
L 370.956228 285.934024 
L 371.168006 286.094924 
L 372.015115 286.227059 
L 372.438669 286.532557 
L 372.650447 286.573002 
L 373.074001 287.047487 
L 373.92111 287.157758 
L 374.132887 287.075762 
L 374.344665 287.179665 
L 374.556442 287.138738 
L 374.979996 287.35034 
L 375.191774 287.195568 
L 375.403551 287.463084 
L 375.615328 287.463783 
L 375.827105 287.59915 
L 376.038883 287.552946 
L 376.674215 287.834287 
L 377.097769 287.956228 
L 377.521324 288.064342 
L 378.368433 288.172202 
L 379.215542 288.387843 
L 379.427319 288.294996 
L 380.274428 288.749975 
L 380.486205 288.645348 
L 380.697983 288.682587 
L 380.90976 288.861308 
L 381.121537 288.820224 
L 381.968646 289.243136 
L 382.392201 289.363856 
L 382.603978 289.284019 
L 383.027532 289.626044 
L 383.662864 289.847008 
L 384.298196 289.946177 
L 384.509973 289.900695 
L 384.933528 290.217468 
L 385.145305 290.126424 
L 385.992414 290.572015 
L 386.627746 290.871186 
L 386.839523 290.761967 
L 387.474855 291.127971 
L 387.686632 291.115902 
L 388.533741 291.633118 
L 390.016182 292.135292 
L 390.227959 292.449926 
L 390.863291 292.572938 
L 391.075068 292.527179 
L 391.498623 292.687976 
L 391.7104 293.083667 
L 392.345732 293.291029 
L 392.769287 293.490824 
L 393.192841 293.570745 
L 394.03995 293.878653 
L 394.251727 293.787612 
L 394.463505 293.930885 
L 395.098837 293.965831 
L 395.522391 294.082991 
L 395.945946 294.294089 
L 396.3695 294.699122 
L 396.581277 294.494783 
L 397.004832 294.898502 
L 397.216609 294.841077 
L 397.640164 295.155807 
L 398.063718 295.276355 
L 398.275495 295.488 
L 398.487273 295.477637 
L 398.487273 295.477637 
" clip-path="url(#p1f93ef13cf)" style="fill: none; stroke: #1f77b4; stroke-opacity: 0.7; stroke-width: 1.5; stroke-linecap: square"/>
   </g>
   <g id="line2d_18">
    <path d="M 73.832727 176.190631 
L 74.256282 176.182208 
L 74.468059 176.298397 
L 74.679836 176.156105 
L 74.891614 175.848927 
L 75.103391 175.788822 
L 75.526945 175.429925 
L 75.738723 175.458058 
L 76.585832 174.804746 
L 77.009386 174.788451 
L 77.221163 174.712938 
L 77.432941 174.771345 
L 77.644718 174.619971 
L 77.856495 174.273658 
L 78.28005 174.152928 
L 78.491827 174.193345 
L 79.550713 173.536961 
L 79.762491 173.634896 
L 79.974268 173.416566 
L 80.397822 173.47811 
L 81.033154 172.80248 
L 81.668486 172.580479 
L 82.092041 172.325906 
L 82.93915 172.281565 
L 83.362704 172.121151 
L 83.574481 172.172724 
L 85.056922 171.344493 
L 85.2687 171.087618 
L 85.692254 170.905152 
L 86.115809 170.402885 
L 86.539363 170.239171 
L 86.75114 170.196299 
L 87.174695 169.799363 
L 87.386472 169.893013 
L 87.810027 169.691853 
L 88.233581 169.287163 
L 88.868913 168.878628 
L 89.292468 168.659131 
L 89.716022 168.485016 
L 90.139577 167.979235 
L 90.351354 168.139274 
L 90.774908 167.764232 
L 91.41024 167.638963 
L 92.469126 167.243436 
L 92.680904 166.689118 
L 94.163345 166.57252 
L 94.586899 166.199359 
L 95.010454 166.334402 
L 95.222231 166.054149 
L 96.281117 165.821379 
L 96.916449 165.529275 
L 98.187113 165.392064 
L 98.39889 165.144036 
L 98.822444 165.116026 
L 99.034222 164.845871 
L 99.881331 164.629941 
L 100.304885 164.354924 
L 101.151994 164.047795 
L 101.363772 163.760146 
L 101.787326 163.617638 
L 102.210881 163.623268 
L 102.634435 163.672182 
L 102.846212 163.719058 
L 103.269767 163.373842 
L 103.481544 163.492888 
L 104.963985 162.684801 
L 105.38754 162.536939 
L 105.811094 162.34667 
L 106.234649 162.311569 
L 106.446426 162.365709 
L 106.658203 162.134621 
L 106.86998 162.208916 
L 107.293535 162.097969 
L 107.505312 162.256717 
L 107.717089 162.024024 
L 108.352421 161.751022 
L 108.564199 161.486573 
L 108.987753 161.340493 
L 109.623085 160.940678 
L 110.258417 160.789551 
L 110.681971 160.871123 
L 110.893748 160.693834 
L 111.317303 160.601804 
L 111.740857 160.252291 
L 111.952635 160.309024 
L 112.164412 160.141205 
L 112.376189 160.143635 
L 113.011521 159.78127 
L 113.435076 159.575987 
L 113.646853 159.413754 
L 113.85863 159.486099 
L 114.282185 159.269687 
L 114.705739 159.111304 
L 115.341071 158.610233 
L 115.552848 158.628722 
L 115.976403 158.438371 
L 116.18818 158.518832 
L 116.399957 158.430334 
L 116.611735 158.158155 
L 117.035289 158.09925 
L 117.247066 157.911277 
L 117.458844 157.884257 
L 117.670621 157.739458 
L 117.882398 157.815924 
L 119.153062 157.396331 
L 119.364839 157.397265 
L 119.788394 157.143037 
L 120.000171 157.204438 
L 120.635503 156.966696 
L 121.270834 156.96771 
L 121.482612 156.688667 
L 121.906166 156.640483 
L 122.117943 156.501177 
L 122.329721 156.576879 
L 122.541498 156.46471 
L 122.753275 156.490152 
L 122.965052 156.334439 
L 123.17683 155.956476 
L 123.388607 156.022993 
L 123.600384 155.924177 
L 123.812162 155.966803 
L 124.023939 155.795433 
L 124.235716 155.935665 
L 124.659271 155.528775 
L 124.871048 155.549783 
L 125.294602 155.252518 
L 126.565266 154.751941 
L 126.777043 154.859243 
L 127.200598 154.609477 
L 127.412375 154.630972 
L 128.047707 154.255732 
L 129.106593 153.733329 
L 129.31837 153.795151 
L 129.741925 153.49241 
L 130.589034 153.401771 
L 132.706807 152.982728 
L 132.918584 152.756756 
L 133.553916 152.7819 
L 133.765693 152.804875 
L 134.189247 152.638587 
L 135.036357 152.463288 
L 135.248134 152.273145 
L 135.671688 152.154539 
L 136.730575 151.841341 
L 136.942352 151.88452 
L 137.365906 151.734314 
L 137.789461 151.719801 
L 139.060125 151.540459 
L 139.271902 151.405347 
L 139.907234 151.324748 
L 140.330788 151.088546 
L 141.813229 150.962727 
L 142.236783 150.903034 
L 142.660338 150.916136 
L 144.354556 150.687303 
L 144.778111 150.600884 
L 145.413442 150.461475 
L 145.836997 150.574104 
L 146.472329 150.334998 
L 147.107661 150.20645 
L 147.742992 149.873013 
L 148.166547 149.785024 
L 149.013656 149.735292 
L 149.43721 149.546014 
L 151.131429 148.935252 
L 151.343206 148.825371 
L 151.554983 148.850609 
L 152.402092 148.529156 
L 152.825647 148.583073 
L 153.672756 148.117542 
L 154.308088 147.965755 
L 154.519865 147.973134 
L 154.943419 147.738054 
L 155.155197 147.778703 
L 155.366974 147.975205 
L 155.578751 147.657111 
L 157.272969 147.001322 
L 157.696524 146.930781 
L 158.120078 146.871379 
L 158.331856 146.948924 
L 158.75541 146.724215 
L 159.178965 146.569637 
L 159.602519 146.282358 
L 159.814296 146.24695 
L 160.026074 146.347253 
L 160.449628 146.152467 
L 160.873183 146.127751 
L 161.08496 146.032386 
L 161.296737 146.119407 
L 161.508514 146.083104 
L 161.720292 145.875848 
L 161.932069 145.920838 
L 162.143846 145.714393 
L 162.567401 145.636585 
L 163.41451 145.209773 
L 164.685173 145.011731 
L 165.320505 144.919552 
L 167.014723 144.769317 
L 167.861832 144.483 
L 168.920719 144.431337 
L 169.767828 143.997733 
L 171.462046 143.823603 
L 173.156264 143.532672 
L 173.368041 143.629973 
L 173.791596 143.465474 
L 174.003373 143.467446 
L 174.426928 143.31179 
L 175.062259 143.34334 
L 175.274037 143.137253 
L 177.180032 142.807401 
L 177.391809 142.946615 
L 178.238918 142.554947 
L 182.474464 141.782808 
L 182.686241 141.872018 
L 183.321573 141.526266 
L 185.227568 140.942156 
L 186.286454 140.870014 
L 186.498232 140.816742 
L 186.710009 140.988154 
L 187.133563 140.901102 
L 187.345341 140.797679 
L 187.557118 140.532906 
L 187.768895 140.530537 
L 187.980672 140.673226 
L 188.827782 139.628143 
L 189.251336 139.374374 
L 189.886668 138.11407 
L 191.157331 138.213893 
L 191.369109 137.783691 
L 191.580886 137.68994 
L 192.00444 137.13333 
L 192.427995 136.95859 
L 192.639772 137.038473 
L 192.85155 136.812056 
L 193.063327 136.874397 
L 193.486881 136.685144 
L 193.698659 136.763706 
L 194.122213 136.333985 
L 194.757545 136.107618 
L 195.181099 135.841232 
L 195.392877 135.87621 
L 195.816431 135.769894 
L 196.451763 135.742172 
L 196.875318 135.426496 
L 197.722427 135.254388 
L 197.934204 135.316665 
L 198.569536 135.098876 
L 198.781313 135.245241 
L 198.99309 135.095665 
L 199.204867 135.099342 
L 199.840199 134.697112 
L 200.051977 134.779879 
L 200.475531 134.709151 
L 201.32264 134.545301 
L 201.534417 134.631773 
L 201.957972 134.254142 
L 202.381526 134.166753 
L 202.805081 133.812518 
L 203.016858 133.900405 
L 203.440413 133.446877 
L 203.863967 133.174648 
L 204.075745 133.317164 
L 205.346408 132.659678 
L 206.405294 132.313691 
L 206.617072 132.405701 
L 207.040626 132.117784 
L 207.675958 132.08903 
L 207.887735 131.976719 
L 208.099513 132.041792 
L 208.31129 131.977077 
L 208.523067 132.054587 
L 208.946622 131.928704 
L 209.370176 132.05942 
L 209.581953 131.751224 
L 210.005508 131.794508 
L 210.429062 131.308555 
L 211.064394 131.225964 
L 211.487949 130.778655 
L 212.123281 130.68553 
L 212.758612 130.69585 
L 212.97039 130.3719 
L 213.182167 130.351168 
L 213.605721 130.077509 
L 214.029276 130.01563 
L 214.241053 129.928636 
L 214.45283 130.024009 
L 215.935271 129.058599 
L 216.78238 129.020761 
L 218.053044 128.321563 
L 218.476598 128.141256 
L 218.900153 128.054683 
L 219.11193 128.09106 
L 219.747262 127.759188 
L 219.959039 127.845354 
L 220.170817 127.611568 
L 220.594371 127.500887 
L 220.806148 127.56569 
L 221.44148 127.198119 
L 221.865035 126.96468 
L 222.288589 127.061667 
L 223.135698 126.698264 
L 224.194585 126.031895 
L 224.406362 126.167425 
L 224.618139 125.892853 
L 225.041694 125.949134 
L 225.253471 125.680268 
L 226.735912 125.258388 
L 227.159466 125.237998 
L 227.371244 125.095074 
L 227.583021 125.138179 
L 228.006575 124.988983 
L 228.218353 125.046203 
L 228.43013 124.882577 
L 228.641907 125.029302 
L 229.277239 124.574677 
L 230.336125 124.132541 
L 231.183234 124.109266 
L 231.606789 123.845386 
L 232.242121 123.515457 
L 232.665675 123.458915 
L 233.08923 123.509763 
L 233.301007 123.2027 
L 233.512784 123.276454 
L 233.724561 123.148286 
L 234.148116 123.157814 
L 234.783448 122.656027 
L 234.995225 122.676498 
L 235.842334 122.093378 
L 236.054111 122.189959 
L 236.265889 122.033617 
L 236.477666 122.091674 
L 238.383661 121.348496 
L 238.595439 121.094851 
L 238.807216 121.18088 
L 239.018993 121.038532 
L 239.23077 121.080866 
L 240.501434 120.366402 
L 241.136766 120.396939 
L 242.195652 119.887787 
L 242.407429 119.914444 
L 242.619207 119.78692 
L 243.254538 119.053077 
L 243.88987 119.063323 
L 244.525202 118.663632 
L 244.736979 118.762407 
L 244.948756 118.493825 
L 245.372311 118.395111 
L 245.795866 117.966012 
L 246.21942 117.747445 
L 246.431197 117.695127 
L 246.854752 117.428087 
L 247.066529 117.512686 
L 247.278306 117.396732 
L 247.701861 117.462405 
L 248.54897 117.168855 
L 249.184302 117.061607 
L 249.396079 117.022322 
L 249.607856 117.096115 
L 250.031411 116.884409 
L 250.243188 116.767179 
L 250.454965 116.818781 
L 250.87852 116.619501 
L 251.302074 116.526046 
L 251.513852 116.309032 
L 251.725629 116.275371 
L 252.149183 116.024719 
L 252.572738 116.136049 
L 253.20807 115.523657 
L 255.114065 115.072562 
L 255.53762 114.802695 
L 256.172951 114.618175 
L 256.384729 114.578066 
L 256.596506 114.336562 
L 257.443615 114.211625 
L 258.290724 113.946232 
L 258.714279 113.467686 
L 258.926056 113.349835 
L 259.34961 113.34113 
L 262.314492 112.417614 
L 262.526269 112.207881 
L 262.738047 112.209575 
L 263.161601 112.033494 
L 264.220487 111.655225 
L 265.702928 111.417594 
L 267.185369 110.815863 
L 267.397146 110.911628 
L 268.456033 110.326435 
L 268.66781 110.374422 
L 269.303142 110.195555 
L 269.514919 110.243175 
L 269.938474 110.148102 
L 270.573805 110.113945 
L 271.844469 109.73968 
L 274.174019 109.077729 
L 274.597573 108.701528 
L 275.021128 108.658118 
L 275.868237 108.42326 
L 277.562455 108.039315 
L 278.409564 107.750116 
L 278.621341 107.716065 
L 278.833119 107.807808 
L 279.044896 107.419934 
L 279.256673 107.467164 
L 279.46845 107.350946 
L 279.680228 107.396923 
L 280.103782 107.158492 
L 280.527337 107.141035 
L 280.950891 106.752331 
L 281.374446 106.407017 
L 281.798 106.177767 
L 282.009778 106.203463 
L 282.433332 105.815643 
L 283.068664 105.624179 
L 283.280441 105.76593 
L 283.492218 105.612381 
L 283.703996 105.60307 
L 284.339328 105.333351 
L 284.762882 105.161574 
L 284.974659 105.238015 
L 285.186437 105.014293 
L 285.609991 104.950085 
L 286.033546 104.789361 
L 286.245323 104.814957 
L 286.4571 104.567961 
L 287.727764 104.353448 
L 287.939541 104.275518 
L 288.151318 104.328835 
L 288.363096 104.180448 
L 288.574873 104.209485 
L 288.998427 103.888559 
L 289.633759 103.901612 
L 289.845536 103.752994 
L 290.480868 103.750596 
L 291.1162 103.336636 
L 291.539754 103.268081 
L 292.175086 103.124767 
L 292.810418 102.673543 
L 293.022195 102.806132 
L 293.44575 102.681219 
L 293.657527 102.840899 
L 294.292859 102.332892 
L 294.716413 102.135811 
L 295.139968 101.762543 
L 295.563523 101.752304 
L 296.622409 101.273307 
L 296.834186 100.952754 
L 297.681295 100.517599 
L 297.893072 100.377254 
L 298.10485 99.981867 
L 298.528404 99.964433 
L 298.740181 100.227444 
L 299.163736 99.535773 
L 300.010845 99.543509 
L 300.4344 99.128854 
L 301.069731 98.893434 
L 301.493286 98.704573 
L 301.705063 98.862592 
L 301.91684 98.812168 
L 302.128618 98.492386 
L 302.340395 98.397916 
L 302.975727 97.882444 
L 303.399281 97.696661 
L 304.034613 97.600474 
L 304.24639 97.331323 
L 304.881722 97.082413 
L 305.093499 97.16115 
L 305.940608 96.556477 
L 306.364163 96.210893 
L 306.57594 96.220434 
L 306.787717 96.112281 
L 307.211272 96.280984 
L 307.423049 95.955287 
L 308.693713 95.254809 
L 309.117267 95.416745 
L 309.329045 95.077533 
L 309.540822 95.137694 
L 309.752599 94.924936 
L 309.964376 95.042342 
L 310.176154 94.935879 
L 310.387931 94.690221 
L 310.811486 94.615693 
L 311.23504 94.380278 
L 311.446817 94.091483 
L 311.658595 94.18644 
L 312.082149 93.831584 
L 312.505704 93.781724 
L 313.141035 93.105325 
L 313.776367 93.230283 
L 313.988144 92.960985 
L 315.470585 92.541263 
L 315.682363 92.3175 
L 315.89414 92.337652 
L 316.317694 92.123308 
L 316.741249 91.56532 
L 317.164803 91.391106 
L 317.376581 91.082388 
L 317.800135 90.908176 
L 318.647244 90.943793 
L 318.859022 90.695483 
L 319.494353 90.433986 
L 319.706131 90.170238 
L 319.917908 90.21816 
L 320.129685 90.039911 
L 320.55324 90.021138 
L 320.765017 89.728445 
L 320.976794 89.640647 
L 321.188571 89.684392 
L 321.400349 89.37642 
L 322.03568 89.520029 
L 323.518121 88.453164 
L 323.729899 88.201867 
L 324.36523 88.14374 
L 324.577008 88.056326 
L 324.788785 88.175661 
L 326.059448 87.504051 
L 326.271226 87.607651 
L 326.483003 87.457529 
L 326.906558 87.459593 
L 327.118335 87.079305 
L 327.541889 87.017372 
L 327.965444 86.936666 
L 328.177221 86.790227 
L 328.388998 86.468096 
L 328.600776 86.401116 
L 329.02433 85.898712 
L 329.236107 85.776547 
L 329.659662 85.937599 
L 330.083217 85.50338 
L 330.294994 85.616456 
L 330.930326 84.517741 
L 331.565657 84.046341 
L 331.989212 83.913866 
L 332.200989 84.082219 
L 332.836321 83.629097 
L 333.048098 83.755867 
L 333.259875 83.654905 
L 333.68343 83.792064 
L 333.895207 83.326898 
L 334.106985 83.299546 
L 334.318762 83.054546 
L 334.530539 82.981947 
L 334.954094 82.622531 
L 335.165871 82.938038 
L 335.801203 82.323519 
L 336.01298 82.517463 
L 336.224757 82.450436 
L 336.648312 82.035472 
L 337.071866 81.651697 
L 337.707198 81.199772 
L 337.918975 81.273053 
L 338.766084 80.439379 
L 339.189639 80.450178 
L 340.036748 79.839861 
L 340.248525 79.843836 
L 340.883857 79.49846 
L 341.095634 79.433535 
L 341.730966 78.884857 
L 341.942743 78.853259 
L 342.578075 78.360424 
L 343.848739 77.470347 
L 344.060516 77.011047 
L 344.272293 76.954683 
L 344.48407 76.689863 
L 344.695848 76.778235 
L 345.754734 76.193665 
L 346.390066 75.712613 
L 348.296061 75.108923 
L 348.507838 75.253013 
L 348.931393 74.523054 
L 349.354948 74.213456 
L 349.990279 73.881358 
L 350.413834 73.799356 
L 351.260943 73.227126 
L 351.896275 72.514474 
L 352.531606 72.111026 
L 352.743384 72.259159 
L 352.955161 71.962658 
L 353.166938 71.874965 
L 353.378716 71.940697 
L 353.80227 71.360022 
L 354.014047 71.24115 
L 354.225825 71.35871 
L 354.649379 71.128114 
L 354.861156 70.774262 
L 355.496488 70.849158 
L 355.920043 70.92962 
L 356.343597 70.484013 
L 357.190706 70.480065 
L 357.402484 70.180828 
L 357.614261 70.294534 
L 357.826038 70.18192 
L 358.037815 69.932786 
L 358.46137 69.774326 
L 358.673147 69.619539 
L 359.308479 69.685883 
L 359.732033 69.278839 
L 359.943811 69.324384 
L 360.367365 69.13459 
L 360.79092 69.223965 
L 361.002697 68.950526 
L 361.214474 68.961099 
L 361.849806 68.620818 
L 362.696915 68.398583 
L 363.544024 67.907477 
L 363.755801 67.686312 
L 364.179356 67.592862 
L 364.602911 67.150269 
L 364.814688 67.159653 
L 366.720683 66.12624 
L 367.144238 65.728369 
L 368.626679 65.45442 
L 368.838456 65.545122 
L 369.473788 65.07866 
L 369.685565 65.118071 
L 370.109119 64.732787 
L 370.744451 64.552597 
L 370.956228 64.394329 
L 371.379783 64.366159 
L 372.015115 64.166627 
L 372.226892 64.249644 
L 372.650447 64.079314 
L 372.862224 64.244 
L 373.497556 63.850687 
L 375.191774 62.695343 
L 375.403551 62.696554 
L 375.615328 62.563495 
L 375.827105 62.565104 
L 376.25066 62.331966 
L 376.462437 62.412447 
L 377.733101 61.933482 
L 378.368433 61.754257 
L 379.850874 60.742288 
L 380.274428 60.807113 
L 380.697983 60.335326 
L 381.333314 59.938149 
L 381.756869 59.655442 
L 382.180423 59.623361 
L 383.874642 59.073223 
L 384.298196 58.569155 
L 384.509973 58.326803 
L 384.933528 58.228094 
L 385.357082 57.856185 
L 385.992414 57.763894 
L 386.839523 57.480847 
L 387.263078 57.42622 
L 388.321964 57.38507 
L 388.745519 56.967965 
L 390.016182 56.724603 
L 390.227959 56.873944 
L 390.651514 56.504648 
L 390.863291 56.483727 
L 391.075068 56.306788 
L 391.498623 56.274578 
L 391.7104 56.568352 
L 391.922178 56.19926 
L 392.345732 55.993233 
L 392.557509 55.96678 
L 392.981064 55.52934 
L 393.616396 55.289677 
L 393.828173 55.329248 
L 395.098837 54.499771 
L 395.522391 54.386304 
L 395.945946 54.240615 
L 396.3695 54.379574 
L 396.581277 54.000183 
L 397.004832 54.042955 
L 397.216609 53.872338 
L 397.640164 53.80347 
L 398.063718 53.713431 
L 398.275495 53.763552 
L 398.487273 53.568 
L 398.487273 53.568 
" clip-path="url(#p1f93ef13cf)" style="fill: none; stroke: #ff7f0e; stroke-opacity: 0.7; stroke-width: 1.5; stroke-linecap: square"/>
   </g>
   <g id="line2d_19">
    <path d="M 73.832727 176.308011 
L 74.679836 176.74582 
L 74.891614 176.558163 
L 75.103391 176.60045 
L 75.526945 176.420077 
L 75.738723 176.529274 
L 76.585832 176.274727 
L 77.009386 176.51214 
L 77.221163 176.538946 
L 77.432941 176.689678 
L 77.644718 176.639578 
L 77.856495 176.410055 
L 78.703604 176.546017 
L 79.127159 176.373095 
L 79.338936 176.496412 
L 79.550713 176.300068 
L 79.762491 176.515594 
L 79.974268 176.437169 
L 80.186045 176.478561 
L 80.397822 176.677473 
L 80.821377 176.312759 
L 81.456709 176.37079 
L 82.303818 176.320481 
L 82.727372 176.503365 
L 84.209813 176.418919 
L 84.633368 176.221261 
L 84.845145 176.293995 
L 85.2687 176.04619 
L 85.692254 176.025959 
L 86.115809 175.775782 
L 86.327586 175.856037 
L 87.174695 175.613743 
L 87.598249 175.808285 
L 87.810027 175.750134 
L 88.021804 175.571049 
L 88.445358 175.535403 
L 88.868913 175.544818 
L 89.08069 175.563202 
L 89.292468 175.450322 
L 89.716022 175.446359 
L 90.139577 175.143785 
L 90.351354 175.422443 
L 92.257349 175.411691 
L 92.469126 175.513116 
L 92.680904 175.052555 
L 93.104458 175.428332 
L 93.316236 175.372883 
L 94.163345 175.814808 
L 94.586899 175.589828 
L 95.434008 175.84138 
L 95.857563 175.969181 
L 96.281117 176.102781 
L 97.975335 176.003436 
L 98.187113 176.171311 
L 98.610667 176.097063 
L 98.822444 176.18286 
L 99.034222 176.038569 
L 99.457776 176.22397 
L 100.516663 175.980275 
L 100.940217 176.05342 
L 101.363772 175.71559 
L 101.575549 175.830149 
L 101.787326 175.774223 
L 102.210881 175.947725 
L 102.846212 176.287979 
L 103.269767 176.143358 
L 103.481544 176.338381 
L 104.328653 176.306049 
L 104.540431 176.192012 
L 105.175762 176.285722 
L 105.811094 176.171686 
L 106.234649 176.241725 
L 106.446426 176.335846 
L 106.658203 176.248335 
L 106.86998 176.380402 
L 107.293535 176.402396 
L 107.505312 176.623919 
L 108.140644 176.532712 
L 108.352421 176.507571 
L 108.564199 176.286397 
L 108.987753 176.326649 
L 109.623085 176.239326 
L 110.470194 176.392209 
L 110.681971 176.509203 
L 110.893748 176.40955 
L 111.317303 176.472291 
L 111.740857 176.30104 
L 111.952635 176.428121 
L 112.164412 176.326111 
L 112.376189 176.370496 
L 112.799744 176.215291 
L 113.223298 176.211511 
L 113.646853 176.084908 
L 113.85863 176.228303 
L 114.070407 176.12962 
L 114.705739 176.162997 
L 115.341071 175.885453 
L 115.552848 176.050799 
L 115.976403 176.075979 
L 116.18818 176.232756 
L 116.399957 176.24138 
L 116.611735 176.064384 
L 117.035289 176.170106 
L 117.247066 176.046707 
L 117.458844 176.090177 
L 117.670621 176.018074 
L 117.882398 176.166853 
L 118.094175 176.179279 
L 118.305953 176.0613 
L 118.729507 176.075218 
L 119.576616 176.049933 
L 119.788394 175.998015 
L 120.000171 176.111001 
L 120.635503 176.041026 
L 121.270834 176.26511 
L 121.482612 176.077386 
L 121.906166 176.19451 
L 122.117943 176.10828 
L 122.329721 176.26038 
L 122.541498 176.205334 
L 122.753275 176.314122 
L 122.965052 176.26498 
L 123.17683 175.972534 
L 123.388607 176.205412 
L 123.600384 176.206407 
L 123.812162 176.348843 
L 124.023939 176.283922 
L 124.235716 176.466997 
L 124.659271 176.257089 
L 124.871048 176.325426 
L 125.294602 176.203216 
L 126.353489 176.175077 
L 126.565266 176.030311 
L 126.777043 176.244596 
L 127.200598 176.199201 
L 127.412375 176.276933 
L 127.83593 176.173396 
L 129.106593 175.848381 
L 129.31837 175.972226 
L 129.530148 175.822614 
L 130.377257 175.979959 
L 131.224366 176.027561 
L 131.64792 176.044956 
L 132.706807 175.926347 
L 132.918584 175.725762 
L 133.342138 175.940745 
L 133.765693 176.144138 
L 134.189247 176.103957 
L 134.612802 176.155038 
L 134.824579 176.278201 
L 135.248134 176.038726 
L 135.459911 176.126882 
L 136.095243 176.008922 
L 137.365906 176.036115 
L 137.789461 176.144225 
L 139.060125 176.204474 
L 139.271902 176.127212 
L 139.695456 176.233982 
L 140.330788 176.067045 
L 141.177897 176.176466 
L 141.601452 176.167002 
L 142.872115 176.298663 
L 143.719224 176.237513 
L 144.989888 176.276629 
L 145.413442 176.255634 
L 146.048774 176.431699 
L 146.260552 176.362143 
L 146.684106 176.510575 
L 148.166547 176.356854 
L 149.013656 176.64581 
L 149.43721 176.589128 
L 149.860765 176.543081 
L 150.072542 176.400894 
L 150.496097 176.472439 
L 150.707874 176.483946 
L 150.919651 176.379067 
L 152.190315 176.441523 
L 152.402092 176.34133 
L 152.825647 176.474102 
L 153.460978 176.236923 
L 154.519865 176.295213 
L 154.731642 176.138406 
L 155.155197 176.283796 
L 155.366974 176.522526 
L 155.578751 176.356061 
L 158.120078 176.157596 
L 158.331856 176.27263 
L 158.75541 176.164469 
L 159.178965 176.103291 
L 159.602519 175.960245 
L 160.873183 176.102411 
L 161.08496 176.038015 
L 161.508514 176.18245 
L 161.720292 176.02075 
L 161.932069 176.178 
L 162.143846 176.089624 
L 162.355624 176.149191 
L 163.41451 175.910135 
L 163.626287 175.962547 
L 163.838064 175.887556 
L 164.473396 176.045498 
L 167.014723 176.322124 
L 167.861832 176.176263 
L 168.920719 176.314864 
L 169.767828 176.094428 
L 170.614937 176.165611 
L 171.8856 176.319162 
L 172.309155 176.267557 
L 174.003373 176.395185 
L 174.21515 176.304493 
L 175.697591 176.462186 
L 176.332923 176.337232 
L 178.027141 176.610325 
L 178.450696 176.54377 
L 178.662473 176.609151 
L 179.086027 176.469859 
L 181.415577 176.48046 
L 182.262686 176.491998 
L 183.109795 176.512515 
L 183.745127 176.371935 
L 184.592236 176.291978 
L 186.498232 176.404871 
L 186.710009 176.612455 
L 187.768895 176.6879 
L 187.980672 176.946649 
L 189.674891 176.119106 
L 189.886668 175.598009 
L 190.310222 176.146144 
L 190.522 176.21202 
L 191.157331 176.855872 
L 191.369109 176.590411 
L 191.580886 176.64006 
L 192.00444 176.315699 
L 192.427995 176.353644 
L 192.639772 176.523805 
L 192.85155 176.395053 
L 193.063327 176.549544 
L 193.486881 176.528475 
L 193.698659 176.684022 
L 194.122213 176.469038 
L 194.545768 176.512038 
L 195.816431 176.474714 
L 196.451763 176.633694 
L 197.087095 176.468344 
L 197.510649 176.575775 
L 197.722427 176.537853 
L 197.934204 176.631219 
L 198.569536 176.572822 
L 198.781313 176.77674 
L 198.99309 176.7453 
L 199.204867 176.853992 
L 199.840199 176.689152 
L 200.475531 177.008425 
L 201.32264 177.289915 
L 201.534417 177.468195 
L 201.957972 177.292627 
L 202.381526 177.320745 
L 202.805081 177.159378 
L 203.016858 177.334615 
L 203.228635 177.131311 
L 203.863967 176.990611 
L 204.075745 177.20461 
L 204.287522 177.209637 
L 204.711076 177.036943 
L 205.769963 177.028419 
L 206.405294 176.987254 
L 206.617072 177.126862 
L 206.828849 176.998512 
L 207.252403 177.086627 
L 207.464181 177.218514 
L 208.31129 177.303477 
L 208.734844 177.468525 
L 209.158399 177.599232 
L 209.370176 177.791516 
L 209.581953 177.610323 
L 210.005508 177.862027 
L 210.217285 177.645549 
L 210.429062 177.633266 
L 211.064394 177.856751 
L 211.487949 177.641783 
L 212.546835 177.887041 
L 212.758612 178.034271 
L 212.97039 177.821505 
L 213.182167 177.93513 
L 213.393944 177.802072 
L 214.876385 177.996323 
L 215.088162 177.839231 
L 215.723494 177.795924 
L 215.935271 177.70497 
L 216.570603 177.8667 
L 216.994158 177.843471 
L 217.205935 177.766429 
L 217.629489 177.825993 
L 218.053044 177.593695 
L 218.264821 177.534742 
L 219.323708 177.725901 
L 223.347476 177.643254 
L 224.194585 177.424503 
L 224.406362 177.634862 
L 224.618139 177.467235 
L 225.041694 177.700175 
L 225.253471 177.515126 
L 225.465248 177.530876 
L 225.677025 177.433975 
L 227.159466 177.614725 
L 227.371244 177.551647 
L 227.794798 177.67317 
L 228.43013 177.656943 
L 228.641907 177.886552 
L 229.489016 177.809366 
L 230.336125 177.754359 
L 230.971457 177.901507 
L 231.183234 178.022465 
L 231.395012 177.915216 
L 231.606789 177.946496 
L 232.030343 177.86199 
L 232.453898 177.831232 
L 233.08923 177.966796 
L 233.301007 177.751379 
L 233.512784 177.963432 
L 233.724561 177.922852 
L 234.148116 178.139932 
L 234.783448 177.919533 
L 234.995225 178.045576 
L 235.630557 177.739522 
L 236.477666 177.951963 
L 237.960107 177.839742 
L 238.595439 177.625313 
L 238.807216 177.81368 
L 239.018993 177.796249 
L 239.23077 177.914478 
L 240.501434 177.683071 
L 241.136766 177.898584 
L 242.619207 177.731583 
L 243.042761 177.483687 
L 243.254538 177.347423 
L 243.88987 177.645022 
L 244.525202 177.448825 
L 244.736979 177.598952 
L 244.948756 177.405924 
L 245.795866 177.251361 
L 246.21942 177.233836 
L 247.278306 177.278601 
L 247.701861 177.491542 
L 248.337193 177.492796 
L 248.760747 177.568706 
L 249.184302 177.591522 
L 249.396079 177.582993 
L 249.607856 177.697457 
L 250.243188 177.585954 
L 250.454965 177.70217 
L 250.87852 177.653121 
L 251.302074 177.712181 
L 251.513852 177.52026 
L 251.725629 177.62587 
L 252.149183 177.524361 
L 252.572738 177.82355 
L 253.20807 177.512819 
L 255.114065 177.748865 
L 255.53762 177.659843 
L 258.078947 177.475167 
L 258.290724 177.496206 
L 258.714279 177.207695 
L 258.926056 177.210607 
L 259.34961 177.391681 
L 260.620274 177.419227 
L 261.67916 177.287804 
L 262.102715 177.42858 
L 264.220487 177.333377 
L 265.067597 177.63522 
L 265.491151 177.587176 
L 266.126483 177.544565 
L 266.33826 177.38484 
L 267.185369 177.42457 
L 267.397146 177.568628 
L 268.456033 177.37198 
L 268.879587 177.456493 
L 269.726696 177.519202 
L 270.785583 177.609612 
L 271.209137 177.522995 
L 272.268023 177.51521 
L 272.691578 177.376949 
L 273.115133 177.396103 
L 273.32691 177.340275 
L 273.538687 177.456392 
L 274.597573 177.155719 
L 275.021128 177.250393 
L 275.868237 177.202828 
L 277.98601 177.262513 
L 278.621341 177.18225 
L 278.833119 177.317352 
L 279.044896 177.035133 
L 279.256673 177.215273 
L 279.46845 177.177317 
L 279.680228 177.301556 
L 279.892005 177.190767 
L 280.527337 177.273749 
L 280.739114 177.111337 
L 281.162669 177.103014 
L 281.586223 176.917426 
L 282.009778 177.028752 
L 282.221555 176.831248 
L 283.068664 176.829853 
L 283.280441 176.994003 
L 283.492218 176.955586 
L 283.915773 177.009438 
L 284.762882 176.988368 
L 284.974659 177.103307 
L 285.186437 176.988829 
L 285.398214 177.063413 
L 286.033546 176.985414 
L 286.245323 177.044673 
L 286.4571 176.889527 
L 287.092432 177.101544 
L 288.78665 177.131719 
L 289.421982 177.162077 
L 289.633759 177.301664 
L 289.845536 177.215104 
L 290.480868 177.456877 
L 291.1162 177.239434 
L 291.327977 177.332423 
L 291.963309 177.333214 
L 292.175086 177.321705 
L 292.598641 177.035685 
L 292.810418 177.119073 
L 293.022195 177.329179 
L 293.44575 177.36732 
L 293.657527 177.585553 
L 295.139968 177.061676 
L 295.563523 177.22454 
L 296.622409 177.060731 
L 296.834186 176.816058 
L 297.257741 176.944163 
L 297.469518 176.786315 
L 297.893072 176.729563 
L 298.10485 176.413906 
L 298.528404 176.697168 
L 298.740181 177.042325 
L 299.163736 176.619414 
L 300.010845 176.96845 
L 300.4344 176.734551 
L 300.857954 176.719774 
L 301.493286 176.644128 
L 301.705063 176.846191 
L 301.91684 176.888057 
L 302.128618 176.726296 
L 302.340395 176.73842 
L 302.763949 176.505971 
L 303.611059 176.535906 
L 303.822836 176.470295 
L 304.034613 176.613651 
L 304.24639 176.444331 
L 305.517054 176.487153 
L 306.152386 176.13448 
L 306.364163 176.105059 
L 306.57594 176.217743 
L 306.787717 176.190526 
L 307.211272 176.493147 
L 307.423049 176.280068 
L 308.270158 176.279591 
L 308.481936 176.030011 
L 309.117267 176.450192 
L 309.329045 176.265855 
L 309.540822 176.463099 
L 309.752599 176.389708 
L 309.964376 176.587795 
L 310.176154 176.600803 
L 310.387931 176.467041 
L 310.811486 176.559311 
L 311.023263 176.591895 
L 311.446817 176.325655 
L 311.658595 176.536131 
L 312.082149 176.318964 
L 312.505704 176.377633 
L 312.929258 176.009982 
L 313.141035 175.982934 
L 313.776367 176.380875 
L 313.988144 176.232689 
L 315.470585 176.48045 
L 315.682363 176.350494 
L 315.89414 176.460152 
L 316.317694 176.41417 
L 316.529472 176.132945 
L 318.011912 176.109106 
L 318.647244 176.414867 
L 318.859022 176.2468 
L 319.494353 176.293006 
L 319.706131 176.13818 
L 319.917908 176.323554 
L 320.341462 176.317604 
L 320.55324 176.442993 
L 320.765017 176.253603 
L 322.247458 176.659592 
L 322.88279 176.466179 
L 323.094567 176.54705 
L 323.729899 176.196827 
L 324.153453 176.368927 
L 325.212339 176.600957 
L 325.424117 176.439684 
L 326.059448 176.427385 
L 326.271226 176.61931 
L 326.69478 176.750794 
L 326.906558 176.842583 
L 327.118335 176.555989 
L 327.541889 176.733855 
L 327.965444 176.799643 
L 328.177221 176.736877 
L 328.388998 176.500907 
L 328.600776 176.606507 
L 328.812553 176.376567 
L 329.236107 176.367779 
L 329.659662 176.769514 
L 329.871439 176.591884 
L 330.083217 176.590912 
L 330.294994 176.888732 
L 330.930326 176.330198 
L 331.565657 176.261007 
L 332.412766 176.488326 
L 332.624544 176.306033 
L 333.471653 176.835497 
L 333.68343 177.059372 
L 333.895207 176.741613 
L 334.106985 176.830552 
L 334.318762 176.707843 
L 334.742316 176.658273 
L 334.954094 176.576569 
L 335.165871 176.959181 
L 335.589425 177.040186 
L 335.801203 176.892226 
L 336.224757 177.362113 
L 336.648312 177.228046 
L 336.860089 177.254728 
L 337.495421 176.871832 
L 337.918975 177.201093 
L 338.554307 176.968919 
L 338.766084 176.842116 
L 339.189639 177.109651 
L 340.67208 176.907865 
L 341.095634 177.034163 
L 341.730966 176.817707 
L 341.942743 176.855426 
L 342.366298 176.65445 
L 342.578075 176.69736 
L 343.425184 176.37503 
L 343.636961 176.449962 
L 343.848739 176.361882 
L 344.060516 176.041131 
L 344.272293 176.188413 
L 344.48407 176.011326 
L 344.907625 176.349818 
L 345.33118 176.277271 
L 345.542957 176.388119 
L 346.178289 176.060646 
L 347.237175 176.109447 
L 347.660729 176.047431 
L 348.296061 175.933909 
L 348.507838 176.160043 
L 348.931393 175.70582 
L 349.354948 175.680346 
L 349.990279 175.621708 
L 350.413834 175.767102 
L 352.531606 175.270652 
L 352.743384 175.460419 
L 352.955161 175.316713 
L 353.378716 175.470881 
L 353.590493 175.215008 
L 354.014047 175.271372 
L 354.225825 175.453191 
L 354.649379 175.446509 
L 354.861156 175.185453 
L 355.284711 175.518761 
L 355.496488 175.548377 
L 355.920043 175.882971 
L 356.343597 175.646594 
L 357.190706 175.901521 
L 357.402484 175.725965 
L 357.614261 175.9766 
L 357.826038 176.004677 
L 358.037815 175.856025 
L 358.46137 175.85697 
L 358.673147 175.767974 
L 359.308479 176.073491 
L 359.732033 175.8326 
L 359.943811 175.961016 
L 360.367365 175.92839 
L 360.79092 176.131752 
L 361.002697 175.939278 
L 361.214474 176.082813 
L 361.849806 175.879896 
L 362.273361 176.021151 
L 362.485138 175.908856 
L 362.908692 175.890171 
L 363.755801 175.609515 
L 364.179356 175.669192 
L 364.602911 175.453255 
L 365.026465 175.544228 
L 366.508906 175.224552 
L 366.720683 175.292373 
L 367.144238 175.149439 
L 367.567792 175.103651 
L 367.779569 175.254199 
L 368.203124 175.199744 
L 368.626679 175.35603 
L 368.838456 175.536471 
L 369.473788 175.342403 
L 369.685565 175.43874 
L 370.320897 175.263168 
L 370.532674 175.356554 
L 370.956228 175.164177 
L 371.379783 175.239539 
L 372.015115 175.196843 
L 372.438669 175.351591 
L 372.650447 175.326158 
L 372.862224 175.545203 
L 373.074001 175.598224 
L 374.768219 175.098887 
L 374.979996 175.140381 
L 375.191774 174.945456 
L 375.403551 175.079819 
L 375.615328 175.013639 
L 375.827105 175.082127 
L 376.25066 175.008045 
L 376.462437 175.121321 
L 377.097769 175.061832 
L 377.521324 175.057435 
L 378.156655 174.952489 
L 378.791987 174.894603 
L 379.427319 174.655183 
L 379.850874 174.635948 
L 380.274428 174.778544 
L 380.697983 174.508956 
L 380.90976 174.54594 
L 381.545092 174.350748 
L 382.392201 174.451833 
L 382.603978 174.312163 
L 383.23931 174.458909 
L 384.086419 174.316402 
L 384.721751 174.226318 
L 384.933528 174.222781 
L 385.145305 174.071765 
L 385.56886 174.102961 
L 386.415969 174.248037 
L 386.627746 174.281337 
L 386.839523 174.121407 
L 388.110187 174.351837 
L 388.321964 174.532364 
L 388.533741 174.366794 
L 389.169073 174.354851 
L 389.38085 174.450382 
L 389.592628 174.345776 
L 390.016182 174.429948 
L 390.227959 174.661935 
L 391.075068 174.416983 
L 391.498623 174.481277 
L 391.7104 174.82601 
L 392.133955 174.613569 
L 392.769287 174.597361 
L 393.192841 174.502087 
L 393.616396 174.491686 
L 393.828173 174.600006 
L 395.098837 174.232801 
L 395.522391 174.234648 
L 395.945946 174.267352 
L 396.3695 174.539348 
L 396.581277 174.247483 
L 397.004832 174.470729 
L 397.216609 174.356707 
L 397.640164 174.479639 
L 398.063718 174.494893 
L 398.275495 174.625776 
L 398.487273 174.522818 
L 398.487273 174.522818 
" clip-path="url(#p1f93ef13cf)" style="fill: none; stroke: #2ca02c; stroke-opacity: 0.7; stroke-width: 1.5; stroke-linecap: square"/>
   </g>
   <g id="patch_3">
    <path d="M 57.6 307.584 
L 57.6 41.472 
" style="fill: none; stroke: #000000; stroke-width: 0.8; stroke-linejoin: miter; stroke-linecap: square"/>
   </g>
   <g id="patch_4">
    <path d="M 414.72 307.584 
L 414.72 41.472 
" style="fill: none; stroke: #000000; stroke-width: 0.8; stroke-linejoin: miter; stroke-linecap: square"/>
   </g>
   <g id="patch_5">
    <path d="M 57.6 307.584 
L 414.72 307.584 
" style="fill: none; stroke: #000000; stroke-width: 0.8; stroke-linejoin: miter; stroke-linecap: square"/>
   </g>
   <g id="patch_6">
    <path d="M 57.6 41.472 
L 414.72 41.472 
" style="fill: none; stroke: #000000; stroke-width: 0.8; stroke-linejoin: miter; stroke-linecap: square"/>
   </g>
   <g id="text_17">
    <!-- max_cliqueeurusd -->
    <g transform="translate(181.453125 35.472) scale(0.12 -0.12)">
     <defs>
      <path id="DejaVuSans-6d" d="M 3328 2828 
Q 3544 3216 3844 3400 
Q 4144 3584 4550 3584 
Q 5097 3584 5394 3201 
Q 5691 2819 5691 2113 
L 5691 0 
L 5113 0 
L 5113 2094 
Q 5113 2597 4934 2840 
Q 4756 3084 4391 3084 
Q 3944 3084 3684 2787 
Q 3425 2491 3425 1978 
L 3425 0 
L 2847 0 
L 2847 2094 
Q 2847 2600 2669 2842 
Q 2491 3084 2119 3084 
Q 1678 3084 1418 2786 
Q 1159 2488 1159 1978 
L 1159 0 
L 581 0 
L 581 3500 
L 1159 3500 
L 1159 2956 
Q 1356 3278 1631 3431 
Q 1906 3584 2284 3584 
Q 2666 3584 2933 3390 
Q 3200 3197 3328 2828 
z
" transform="scale(0.015625)"/>
      <path id="DejaVuSans-61" d="M 2194 1759 
Q 1497 1759 1228 1600 
Q 959 1441 959 1056 
Q 959 750 1161 570 
Q 1363 391 1709 391 
Q 2188 391 2477 730 
Q 2766 1069 2766 1631 
L 2766 1759 
L 2194 1759 
z
M 3341 1997 
L 3341 0 
L 2766 0 
L 2766 531 
Q 2569 213 2275 61 
Q 1981 -91 1556 -91 
Q 1019 -91 701 211 
Q 384 513 384 1019 
Q 384 1609 779 1909 
Q 1175 2209 1959 2209 
L 2766 2209 
L 2766 2266 
Q 2766 2663 2505 2880 
Q 2244 3097 1772 3097 
Q 1472 3097 1187 3025 
Q 903 2953 641 2809 
L 641 3341 
Q 956 3463 1253 3523 
Q 1550 3584 1831 3584 
Q 2591 3584 2966 3190 
Q 3341 2797 3341 1997 
z
" transform="scale(0.015625)"/>
      <path id="DejaVuSans-78" d="M 3513 3500 
L 2247 1797 
L 3578 0 
L 2900 0 
L 1881 1375 
L 863 0 
L 184 0 
L 1544 1831 
L 300 3500 
L 978 3500 
L 1906 2253 
L 2834 3500 
L 3513 3500 
z
" transform="scale(0.015625)"/>
      <path id="DejaVuSans-5f" d="M 3263 -1063 
L 3263 -1509 
L -63 -1509 
L -63 -1063 
L 3263 -1063 
z
" transform="scale(0.015625)"/>
      <path id="DejaVuSans-63" d="M 3122 3366 
L 3122 2828 
Q 2878 2963 2633 3030 
Q 2388 3097 2138 3097 
Q 1578 3097 1268 2742 
Q 959 2388 959 1747 
Q 959 1106 1268 751 
Q 1578 397 2138 397 
Q 2388 397 2633 464 
Q 2878 531 3122 666 
L 3122 134 
Q 2881 22 2623 -34 
Q 2366 -91 2075 -91 
Q 1284 -91 818 406 
Q 353 903 353 1747 
Q 353 2603 823 3093 
Q 1294 3584 2113 3584 
Q 2378 3584 2631 3529 
Q 2884 3475 3122 3366 
z
" transform="scale(0.015625)"/>
      <path id="DejaVuSans-6c" d="M 603 4863 
L 1178 4863 
L 1178 0 
L 603 0 
L 603 4863 
z
" transform="scale(0.015625)"/>
      <path id="DejaVuSans-69" d="M 603 3500 
L 1178 3500 
L 1178 0 
L 603 0 
L 603 3500 
z
M 603 4863 
L 1178 4863 
L 1178 4134 
L 603 4134 
L 603 4863 
z
" transform="scale(0.015625)"/>
      <path id="DejaVuSans-71" d="M 947 1747 
Q 947 1113 1208 752 
Q 1469 391 1925 391 
Q 2381 391 2643 752 
Q 2906 1113 2906 1747 
Q 2906 2381 2643 2742 
Q 2381 3103 1925 3103 
Q 1469 3103 1208 2742 
Q 947 2381 947 1747 
z
M 2906 525 
Q 2725 213 2448 61 
Q 2172 -91 1784 -91 
Q 1150 -91 751 415 
Q 353 922 353 1747 
Q 353 2572 751 3078 
Q 1150 3584 1784 3584 
Q 2172 3584 2448 3432 
Q 2725 3281 2906 2969 
L 2906 3500 
L 3481 3500 
L 3481 -1331 
L 2906 -1331 
L 2906 525 
z
" transform="scale(0.015625)"/>
      <path id="DejaVuSans-75" d="M 544 1381 
L 544 3500 
L 1119 3500 
L 1119 1403 
Q 1119 906 1312 657 
Q 1506 409 1894 409 
Q 2359 409 2629 706 
Q 2900 1003 2900 1516 
L 2900 3500 
L 3475 3500 
L 3475 0 
L 2900 0 
L 2900 538 
Q 2691 219 2414 64 
Q 2138 -91 1772 -91 
Q 1169 -91 856 284 
Q 544 659 544 1381 
z
M 1991 3584 
L 1991 3584 
z
" transform="scale(0.015625)"/>
      <path id="DejaVuSans-65" d="M 3597 1894 
L 3597 1613 
L 953 1613 
Q 991 1019 1311 708 
Q 1631 397 2203 397 
Q 2534 397 2845 478 
Q 3156 559 3463 722 
L 3463 178 
Q 3153 47 2828 -22 
Q 2503 -91 2169 -91 
Q 1331 -91 842 396 
Q 353 884 353 1716 
Q 353 2575 817 3079 
Q 1281 3584 2069 3584 
Q 2775 3584 3186 3129 
Q 3597 2675 3597 1894 
z
M 3022 2063 
Q 3016 2534 2758 2815 
Q 2500 3097 2075 3097 
Q 1594 3097 1305 2825 
Q 1016 2553 972 2059 
L 3022 2063 
z
" transform="scale(0.015625)"/>
      <path id="DejaVuSans-72" d="M 2631 2963 
Q 2534 3019 2420 3045 
Q 2306 3072 2169 3072 
Q 1681 3072 1420 2755 
Q 1159 2438 1159 1844 
L 1159 0 
L 581 0 
L 581 3500 
L 1159 3500 
L 1159 2956 
Q 1341 3275 1631 3429 
Q 1922 3584 2338 3584 
Q 2397 3584 2469 3576 
Q 2541 3569 2628 3553 
L 2631 2963 
z
" transform="scale(0.015625)"/>
      <path id="DejaVuSans-73" d="M 2834 3397 
L 2834 2853 
Q 2591 2978 2328 3040 
Q 2066 3103 1784 3103 
Q 1356 3103 1142 2972 
Q 928 2841 928 2578 
Q 928 2378 1081 2264 
Q 1234 2150 1697 2047 
L 1894 2003 
Q 2506 1872 2764 1633 
Q 3022 1394 3022 966 
Q 3022 478 2636 193 
Q 2250 -91 1575 -91 
Q 1294 -91 989 -36 
Q 684 19 347 128 
L 347 722 
Q 666 556 975 473 
Q 1284 391 1588 391 
Q 1994 391 2212 530 
Q 2431 669 2431 922 
Q 2431 1156 2273 1281 
Q 2116 1406 1581 1522 
L 1381 1569 
Q 847 1681 609 1914 
Q 372 2147 372 2553 
Q 372 3047 722 3315 
Q 1072 3584 1716 3584 
Q 2034 3584 2315 3537 
Q 2597 3491 2834 3397 
z
" transform="scale(0.015625)"/>
      <path id="DejaVuSans-64" d="M 2906 2969 
L 2906 4863 
L 3481 4863 
L 3481 0 
L 2906 0 
L 2906 525 
Q 2725 213 2448 61 
Q 2172 -91 1784 -91 
Q 1150 -91 751 415 
Q 353 922 353 1747 
Q 353 2572 751 3078 
Q 1150 3584 1784 3584 
Q 2172 3584 2448 3432 
Q 2725 3281 2906 2969 
z
M 947 1747 
Q 947 1113 1208 752 
Q 1469 391 1925 391 
Q 2381 391 2643 752 
Q 2906 1113 2906 1747 
Q 2906 2381 2643 2742 
Q 2381 3103 1925 3103 
Q 1469 3103 1208 2742 
Q 947 2381 947 1747 
z
" transform="scale(0.015625)"/>
     </defs>
     <use xlink:href="#DejaVuSans-6d"/>
     <use xlink:href="#DejaVuSans-61" x="97.412109"/>
     <use xlink:href="#DejaVuSans-78" x="158.691406"/>
     <use xlink:href="#DejaVuSans-5f" x="217.871094"/>
     <use xlink:href="#DejaVuSans-63" x="267.871094"/>
     <use xlink:href="#DejaVuSans-6c" x="322.851562"/>
     <use xlink:href="#DejaVuSans-69" x="350.634766"/>
     <use xlink:href="#DejaVuSans-71" x="378.417969"/>
     <use xlink:href="#DejaVuSans-75" x="441.894531"/>
     <use xlink:href="#DejaVuSans-65" x="505.273438"/>
     <use xlink:href="#DejaVuSans-65" x="566.796875"/>
     <use xlink:href="#DejaVuSans-75" x="628.320312"/>
     <use xlink:href="#DejaVuSans-72" x="691.699219"/>
     <use xlink:href="#DejaVuSans-75" x="732.8125"/>
     <use xlink:href="#DejaVuSans-73" x="796.191406"/>
     <use xlink:href="#DejaVuSans-64" x="848.291016"/>
    </g>
   </g>
   <g id="legend_1">
    <g id="patch_7">
     <path d="M 64.6 93.506375 
L 258.804688 93.506375 
Q 260.804688 93.506375 260.804688 91.506375 
L 260.804688 48.472 
Q 260.804688 46.472 258.804688 46.472 
L 64.6 46.472 
Q 62.6 46.472 62.6 48.472 
L 62.6 91.506375 
Q 62.6 93.506375 64.6 93.506375 
z
" style="fill: #ffffff; opacity: 0.8; stroke: #cccccc; stroke-linejoin: miter"/>
    </g>
    <g id="line2d_20">
     <path d="M 66.6 54.570438 
L 76.6 54.570438 
L 86.6 54.570438 
" style="fill: none; stroke: #1f77b4; stroke-opacity: 0.7; stroke-width: 1.5; stroke-linecap: square"/>
    </g>
    <g id="text_18">
     <!-- Positive cumulative predictions -->
     <g transform="translate(94.6 58.070438) scale(0.1 -0.1)">
      <defs>
       <path id="DejaVuSans-50" d="M 1259 4147 
L 1259 2394 
L 2053 2394 
Q 2494 2394 2734 2622 
Q 2975 2850 2975 3272 
Q 2975 3691 2734 3919 
Q 2494 4147 2053 4147 
L 1259 4147 
z
M 628 4666 
L 2053 4666 
Q 2838 4666 3239 4311 
Q 3641 3956 3641 3272 
Q 3641 2581 3239 2228 
Q 2838 1875 2053 1875 
L 1259 1875 
L 1259 0 
L 628 0 
L 628 4666 
z
" transform="scale(0.015625)"/>
       <path id="DejaVuSans-6f" d="M 1959 3097 
Q 1497 3097 1228 2736 
Q 959 2375 959 1747 
Q 959 1119 1226 758 
Q 1494 397 1959 397 
Q 2419 397 2687 759 
Q 2956 1122 2956 1747 
Q 2956 2369 2687 2733 
Q 2419 3097 1959 3097 
z
M 1959 3584 
Q 2709 3584 3137 3096 
Q 3566 2609 3566 1747 
Q 3566 888 3137 398 
Q 2709 -91 1959 -91 
Q 1206 -91 779 398 
Q 353 888 353 1747 
Q 353 2609 779 3096 
Q 1206 3584 1959 3584 
z
" transform="scale(0.015625)"/>
       <path id="DejaVuSans-74" d="M 1172 4494 
L 1172 3500 
L 2356 3500 
L 2356 3053 
L 1172 3053 
L 1172 1153 
Q 1172 725 1289 603 
Q 1406 481 1766 481 
L 2356 481 
L 2356 0 
L 1766 0 
Q 1100 0 847 248 
Q 594 497 594 1153 
L 594 3053 
L 172 3053 
L 172 3500 
L 594 3500 
L 594 4494 
L 1172 4494 
z
" transform="scale(0.015625)"/>
       <path id="DejaVuSans-76" d="M 191 3500 
L 800 3500 
L 1894 563 
L 2988 3500 
L 3597 3500 
L 2284 0 
L 1503 0 
L 191 3500 
z
" transform="scale(0.015625)"/>
       <path id="DejaVuSans-20" transform="scale(0.015625)"/>
       <path id="DejaVuSans-70" d="M 1159 525 
L 1159 -1331 
L 581 -1331 
L 581 3500 
L 1159 3500 
L 1159 2969 
Q 1341 3281 1617 3432 
Q 1894 3584 2278 3584 
Q 2916 3584 3314 3078 
Q 3713 2572 3713 1747 
Q 3713 922 3314 415 
Q 2916 -91 2278 -91 
Q 1894 -91 1617 61 
Q 1341 213 1159 525 
z
M 3116 1747 
Q 3116 2381 2855 2742 
Q 2594 3103 2138 3103 
Q 1681 3103 1420 2742 
Q 1159 2381 1159 1747 
Q 1159 1113 1420 752 
Q 1681 391 2138 391 
Q 2594 391 2855 752 
Q 3116 1113 3116 1747 
z
" transform="scale(0.015625)"/>
       <path id="DejaVuSans-6e" d="M 3513 2113 
L 3513 0 
L 2938 0 
L 2938 2094 
Q 2938 2591 2744 2837 
Q 2550 3084 2163 3084 
Q 1697 3084 1428 2787 
Q 1159 2491 1159 1978 
L 1159 0 
L 581 0 
L 581 3500 
L 1159 3500 
L 1159 2956 
Q 1366 3272 1645 3428 
Q 1925 3584 2291 3584 
Q 2894 3584 3203 3211 
Q 3513 2838 3513 2113 
z
" transform="scale(0.015625)"/>
      </defs>
      <use xlink:href="#DejaVuSans-50"/>
      <use xlink:href="#DejaVuSans-6f" x="56.677734"/>
      <use xlink:href="#DejaVuSans-73" x="117.859375"/>
      <use xlink:href="#DejaVuSans-69" x="169.958984"/>
      <use xlink:href="#DejaVuSans-74" x="197.742188"/>
      <use xlink:href="#DejaVuSans-69" x="236.951172"/>
      <use xlink:href="#DejaVuSans-76" x="264.734375"/>
      <use xlink:href="#DejaVuSans-65" x="323.914062"/>
      <use xlink:href="#DejaVuSans-20" x="385.4375"/>
      <use xlink:href="#DejaVuSans-63" x="417.224609"/>
      <use xlink:href="#DejaVuSans-75" x="472.205078"/>
      <use xlink:href="#DejaVuSans-6d" x="535.583984"/>
      <use xlink:href="#DejaVuSans-75" x="632.996094"/>
      <use xlink:href="#DejaVuSans-6c" x="696.375"/>
      <use xlink:href="#DejaVuSans-61" x="724.158203"/>
      <use xlink:href="#DejaVuSans-74" x="785.4375"/>
      <use xlink:href="#DejaVuSans-69" x="824.646484"/>
      <use xlink:href="#DejaVuSans-76" x="852.429688"/>
      <use xlink:href="#DejaVuSans-65" x="911.609375"/>
      <use xlink:href="#DejaVuSans-20" x="973.132812"/>
      <use xlink:href="#DejaVuSans-70" x="1004.919922"/>
      <use xlink:href="#DejaVuSans-72" x="1068.396484"/>
      <use xlink:href="#DejaVuSans-65" x="1107.259766"/>
      <use xlink:href="#DejaVuSans-64" x="1168.783203"/>
      <use xlink:href="#DejaVuSans-69" x="1232.259766"/>
      <use xlink:href="#DejaVuSans-63" x="1260.042969"/>
      <use xlink:href="#DejaVuSans-74" x="1315.023438"/>
      <use xlink:href="#DejaVuSans-69" x="1354.232422"/>
      <use xlink:href="#DejaVuSans-6f" x="1382.015625"/>
      <use xlink:href="#DejaVuSans-6e" x="1443.197266"/>
      <use xlink:href="#DejaVuSans-73" x="1506.576172"/>
     </g>
    </g>
    <g id="line2d_21">
     <path d="M 66.6 69.248563 
L 76.6 69.248563 
L 86.6 69.248563 
" style="fill: none; stroke: #ff7f0e; stroke-opacity: 0.7; stroke-width: 1.5; stroke-linecap: square"/>
    </g>
    <g id="text_19">
     <!-- Negative cumulative predictions -->
     <g transform="translate(94.6 72.748563) scale(0.1 -0.1)">
      <defs>
       <path id="DejaVuSans-4e" d="M 628 4666 
L 1478 4666 
L 3547 763 
L 3547 4666 
L 4159 4666 
L 4159 0 
L 3309 0 
L 1241 3903 
L 1241 0 
L 628 0 
L 628 4666 
z
" transform="scale(0.015625)"/>
       <path id="DejaVuSans-67" d="M 2906 1791 
Q 2906 2416 2648 2759 
Q 2391 3103 1925 3103 
Q 1463 3103 1205 2759 
Q 947 2416 947 1791 
Q 947 1169 1205 825 
Q 1463 481 1925 481 
Q 2391 481 2648 825 
Q 2906 1169 2906 1791 
z
M 3481 434 
Q 3481 -459 3084 -895 
Q 2688 -1331 1869 -1331 
Q 1566 -1331 1297 -1286 
Q 1028 -1241 775 -1147 
L 775 -588 
Q 1028 -725 1275 -790 
Q 1522 -856 1778 -856 
Q 2344 -856 2625 -561 
Q 2906 -266 2906 331 
L 2906 616 
Q 2728 306 2450 153 
Q 2172 0 1784 0 
Q 1141 0 747 490 
Q 353 981 353 1791 
Q 353 2603 747 3093 
Q 1141 3584 1784 3584 
Q 2172 3584 2450 3431 
Q 2728 3278 2906 2969 
L 2906 3500 
L 3481 3500 
L 3481 434 
z
" transform="scale(0.015625)"/>
      </defs>
      <use xlink:href="#DejaVuSans-4e"/>
      <use xlink:href="#DejaVuSans-65" x="74.804688"/>
      <use xlink:href="#DejaVuSans-67" x="136.328125"/>
      <use xlink:href="#DejaVuSans-61" x="199.804688"/>
      <use xlink:href="#DejaVuSans-74" x="261.083984"/>
      <use xlink:href="#DejaVuSans-69" x="300.292969"/>
      <use xlink:href="#DejaVuSans-76" x="328.076172"/>
      <use xlink:href="#DejaVuSans-65" x="387.255859"/>
      <use xlink:href="#DejaVuSans-20" x="448.779297"/>
      <use xlink:href="#DejaVuSans-63" x="480.566406"/>
      <use xlink:href="#DejaVuSans-75" x="535.546875"/>
      <use xlink:href="#DejaVuSans-6d" x="598.925781"/>
      <use xlink:href="#DejaVuSans-75" x="696.337891"/>
      <use xlink:href="#DejaVuSans-6c" x="759.716797"/>
      <use xlink:href="#DejaVuSans-61" x="787.5"/>
      <use xlink:href="#DejaVuSans-74" x="848.779297"/>
      <use xlink:href="#DejaVuSans-69" x="887.988281"/>
      <use xlink:href="#DejaVuSans-76" x="915.771484"/>
      <use xlink:href="#DejaVuSans-65" x="974.951172"/>
      <use xlink:href="#DejaVuSans-20" x="1036.474609"/>
      <use xlink:href="#DejaVuSans-70" x="1068.261719"/>
      <use xlink:href="#DejaVuSans-72" x="1131.738281"/>
      <use xlink:href="#DejaVuSans-65" x="1170.601562"/>
      <use xlink:href="#DejaVuSans-64" x="1232.125"/>
      <use xlink:href="#DejaVuSans-69" x="1295.601562"/>
      <use xlink:href="#DejaVuSans-63" x="1323.384766"/>
      <use xlink:href="#DejaVuSans-74" x="1378.365234"/>
      <use xlink:href="#DejaVuSans-69" x="1417.574219"/>
      <use xlink:href="#DejaVuSans-6f" x="1445.357422"/>
      <use xlink:href="#DejaVuSans-6e" x="1506.539062"/>
      <use xlink:href="#DejaVuSans-73" x="1569.917969"/>
     </g>
    </g>
    <g id="line2d_22">
     <path d="M 66.6 83.926688 
L 76.6 83.926688 
L 86.6 83.926688 
" style="fill: none; stroke: #2ca02c; stroke-opacity: 0.7; stroke-width: 1.5; stroke-linecap: square"/>
    </g>
    <g id="text_20">
     <!-- Average cumulative predictions -->
     <g transform="translate(94.6 87.426688) scale(0.1 -0.1)">
      <defs>
       <path id="DejaVuSans-41" d="M 2188 4044 
L 1331 1722 
L 3047 1722 
L 2188 4044 
z
M 1831 4666 
L 2547 4666 
L 4325 0 
L 3669 0 
L 3244 1197 
L 1141 1197 
L 716 0 
L 50 0 
L 1831 4666 
z
" transform="scale(0.015625)"/>
      </defs>
      <use xlink:href="#DejaVuSans-41"/>
      <use xlink:href="#DejaVuSans-76" x="62.533203"/>
      <use xlink:href="#DejaVuSans-65" x="121.712891"/>
      <use xlink:href="#DejaVuSans-72" x="183.236328"/>
      <use xlink:href="#DejaVuSans-61" x="224.349609"/>
      <use xlink:href="#DejaVuSans-67" x="285.628906"/>
      <use xlink:href="#DejaVuSans-65" x="349.105469"/>
      <use xlink:href="#DejaVuSans-20" x="410.628906"/>
      <use xlink:href="#DejaVuSans-63" x="442.416016"/>
      <use xlink:href="#DejaVuSans-75" x="497.396484"/>
      <use xlink:href="#DejaVuSans-6d" x="560.775391"/>
      <use xlink:href="#DejaVuSans-75" x="658.1875"/>
      <use xlink:href="#DejaVuSans-6c" x="721.566406"/>
      <use xlink:href="#DejaVuSans-61" x="749.349609"/>
      <use xlink:href="#DejaVuSans-74" x="810.628906"/>
      <use xlink:href="#DejaVuSans-69" x="849.837891"/>
      <use xlink:href="#DejaVuSans-76" x="877.621094"/>
      <use xlink:href="#DejaVuSans-65" x="936.800781"/>
      <use xlink:href="#DejaVuSans-20" x="998.324219"/>
      <use xlink:href="#DejaVuSans-70" x="1030.111328"/>
      <use xlink:href="#DejaVuSans-72" x="1093.587891"/>
      <use xlink:href="#DejaVuSans-65" x="1132.451172"/>
      <use xlink:href="#DejaVuSans-64" x="1193.974609"/>
      <use xlink:href="#DejaVuSans-69" x="1257.451172"/>
      <use xlink:href="#DejaVuSans-63" x="1285.234375"/>
      <use xlink:href="#DejaVuSans-74" x="1340.214844"/>
      <use xlink:href="#DejaVuSans-69" x="1379.423828"/>
      <use xlink:href="#DejaVuSans-6f" x="1407.207031"/>
      <use xlink:href="#DejaVuSans-6e" x="1468.388672"/>
      <use xlink:href="#DejaVuSans-73" x="1531.767578"/>
     </g>
    </g>
   </g>
  </g>
 </g>
 <defs>
  <clipPath id="p1f93ef13cf">
   <rect x="57.6" y="41.472" width="357.12" height="266.112"/>
  </clipPath>
 </defs>
</svg>
