<?xml version="1.0" encoding="utf-8" standalone="no"?>
<!DOCTYPE svg PUBLIC "-//W3C//DTD SVG 1.1//EN"
  "http://www.w3.org/Graphics/SVG/1.1/DTD/svg11.dtd">
<svg xmlns:xlink="http://www.w3.org/1999/xlink" width="460.8pt" height="345.6pt" viewBox="0 0 460.8 345.6" xmlns="http://www.w3.org/2000/svg" version="1.1">
 <metadata>
  <rdf:RDF xmlns:dc="http://purl.org/dc/elements/1.1/" xmlns:cc="http://creativecommons.org/ns#" xmlns:rdf="http://www.w3.org/1999/02/22-rdf-syntax-ns#">
   <cc:Work>
    <dc:type rdf:resource="http://purl.org/dc/dcmitype/StillImage"/>
    <dc:date>2024-05-30T09:56:19.731291</dc:date>
    <dc:format>image/svg+xml</dc:format>
    <dc:creator>
     <cc:Agent>
      <dc:title>Matplotlib v3.9.0, https://matplotlib.org/</dc:title>
     </cc:Agent>
    </dc:creator>
   </cc:Work>
  </rdf:RDF>
 </metadata>
 <defs>
  <style type="text/css">*{stroke-linejoin: round; stroke-linecap: butt}</style>
 </defs>
 <g id="figure_1">
  <g id="patch_1">
   <path d="M 0 345.6 
L 460.8 345.6 
L 460.8 0 
L 0 0 
z
" style="fill: #ffffff"/>
  </g>
  <g id="axes_1">
   <g id="patch_2">
    <path d="M 57.6 307.584 
L 414.72 307.584 
L 414.72 41.472 
L 57.6 41.472 
z
" style="fill: #ffffff"/>
   </g>
   <g id="matplotlib.axis_1">
    <g id="xtick_1">
     <g id="line2d_1">
      <defs>
       <path id="m8bd0282994" d="M 0 0 
L 0 3.5 
" style="stroke: #000000; stroke-width: 0.8"/>
      </defs>
      <g>
       <use xlink:href="#m8bd0282994" x="73.832727" y="307.584" style="stroke: #000000; stroke-width: 0.8"/>
      </g>
     </g>
     <g id="text_1">
      <!-- 0 -->
      <g transform="translate(70.651477 322.182437) scale(0.1 -0.1)">
       <defs>
        <path id="DejaVuSans-30" d="M 2034 4250 
Q 1547 4250 1301 3770 
Q 1056 3291 1056 2328 
Q 1056 1369 1301 889 
Q 1547 409 2034 409 
Q 2525 409 2770 889 
Q 3016 1369 3016 2328 
Q 3016 3291 2770 3770 
Q 2525 4250 2034 4250 
z
M 2034 4750 
Q 2819 4750 3233 4129 
Q 3647 3509 3647 2328 
Q 3647 1150 3233 529 
Q 2819 -91 2034 -91 
Q 1250 -91 836 529 
Q 422 1150 422 2328 
Q 422 3509 836 4129 
Q 1250 4750 2034 4750 
z
" transform="scale(0.015625)"/>
       </defs>
       <use xlink:href="#DejaVuSans-30"/>
      </g>
     </g>
    </g>
    <g id="xtick_2">
     <g id="line2d_2">
      <g>
       <use xlink:href="#m8bd0282994" x="149.333784" y="307.584" style="stroke: #000000; stroke-width: 0.8"/>
      </g>
     </g>
     <g id="text_2">
      <!-- 50 -->
      <g transform="translate(142.971284 322.182437) scale(0.1 -0.1)">
       <defs>
        <path id="DejaVuSans-35" d="M 691 4666 
L 3169 4666 
L 3169 4134 
L 1269 4134 
L 1269 2991 
Q 1406 3038 1543 3061 
Q 1681 3084 1819 3084 
Q 2600 3084 3056 2656 
Q 3513 2228 3513 1497 
Q 3513 744 3044 326 
Q 2575 -91 1722 -91 
Q 1428 -91 1123 -41 
Q 819 9 494 109 
L 494 744 
Q 775 591 1075 516 
Q 1375 441 1709 441 
Q 2250 441 2565 725 
Q 2881 1009 2881 1497 
Q 2881 1984 2565 2268 
Q 2250 2553 1709 2553 
Q 1456 2553 1204 2497 
Q 953 2441 691 2322 
L 691 4666 
z
" transform="scale(0.015625)"/>
       </defs>
       <use xlink:href="#DejaVuSans-35"/>
       <use xlink:href="#DejaVuSans-30" x="63.623047"/>
      </g>
     </g>
    </g>
    <g id="xtick_3">
     <g id="line2d_3">
      <g>
       <use xlink:href="#m8bd0282994" x="224.834841" y="307.584" style="stroke: #000000; stroke-width: 0.8"/>
      </g>
     </g>
     <g id="text_3">
      <!-- 100 -->
      <g transform="translate(215.291091 322.182437) scale(0.1 -0.1)">
       <defs>
        <path id="DejaVuSans-31" d="M 794 531 
L 1825 531 
L 1825 4091 
L 703 3866 
L 703 4441 
L 1819 4666 
L 2450 4666 
L 2450 531 
L 3481 531 
L 3481 0 
L 794 0 
L 794 531 
z
" transform="scale(0.015625)"/>
       </defs>
       <use xlink:href="#DejaVuSans-31"/>
       <use xlink:href="#DejaVuSans-30" x="63.623047"/>
       <use xlink:href="#DejaVuSans-30" x="127.246094"/>
      </g>
     </g>
    </g>
    <g id="xtick_4">
     <g id="line2d_4">
      <g>
       <use xlink:href="#m8bd0282994" x="300.335899" y="307.584" style="stroke: #000000; stroke-width: 0.8"/>
      </g>
     </g>
     <g id="text_4">
      <!-- 150 -->
      <g transform="translate(290.792149 322.182437) scale(0.1 -0.1)">
       <use xlink:href="#DejaVuSans-31"/>
       <use xlink:href="#DejaVuSans-35" x="63.623047"/>
       <use xlink:href="#DejaVuSans-30" x="127.246094"/>
      </g>
     </g>
    </g>
    <g id="xtick_5">
     <g id="line2d_5">
      <g>
       <use xlink:href="#m8bd0282994" x="375.836956" y="307.584" style="stroke: #000000; stroke-width: 0.8"/>
      </g>
     </g>
     <g id="text_5">
      <!-- 200 -->
      <g transform="translate(366.293206 322.182437) scale(0.1 -0.1)">
       <defs>
        <path id="DejaVuSans-32" d="M 1228 531 
L 3431 531 
L 3431 0 
L 469 0 
L 469 531 
Q 828 903 1448 1529 
Q 2069 2156 2228 2338 
Q 2531 2678 2651 2914 
Q 2772 3150 2772 3378 
Q 2772 3750 2511 3984 
Q 2250 4219 1831 4219 
Q 1534 4219 1204 4116 
Q 875 4013 500 3803 
L 500 4441 
Q 881 4594 1212 4672 
Q 1544 4750 1819 4750 
Q 2544 4750 2975 4387 
Q 3406 4025 3406 3419 
Q 3406 3131 3298 2873 
Q 3191 2616 2906 2266 
Q 2828 2175 2409 1742 
Q 1991 1309 1228 531 
z
" transform="scale(0.015625)"/>
       </defs>
       <use xlink:href="#DejaVuSans-32"/>
       <use xlink:href="#DejaVuSans-30" x="63.623047"/>
       <use xlink:href="#DejaVuSans-30" x="127.246094"/>
      </g>
     </g>
    </g>
   </g>
   <g id="matplotlib.axis_2">
    <g id="ytick_1">
     <g id="line2d_6">
      <defs>
       <path id="mf08e93f4e0" d="M 0 0 
L -3.5 0 
" style="stroke: #000000; stroke-width: 0.8"/>
      </defs>
      <g>
       <use xlink:href="#mf08e93f4e0" x="57.6" y="299.536188" style="stroke: #000000; stroke-width: 0.8"/>
      </g>
     </g>
     <g id="text_6">
      <!-- −10000 -->
      <g transform="translate(10.407812 303.335407) scale(0.1 -0.1)">
       <defs>
        <path id="DejaVuSans-2212" d="M 678 2272 
L 4684 2272 
L 4684 1741 
L 678 1741 
L 678 2272 
z
" transform="scale(0.015625)"/>
       </defs>
       <use xlink:href="#DejaVuSans-2212"/>
       <use xlink:href="#DejaVuSans-31" x="83.789062"/>
       <use xlink:href="#DejaVuSans-30" x="147.412109"/>
       <use xlink:href="#DejaVuSans-30" x="211.035156"/>
       <use xlink:href="#DejaVuSans-30" x="274.658203"/>
       <use xlink:href="#DejaVuSans-30" x="338.28125"/>
      </g>
     </g>
    </g>
    <g id="ytick_2">
     <g id="line2d_7">
      <g>
       <use xlink:href="#mf08e93f4e0" x="57.6" y="267.17576" style="stroke: #000000; stroke-width: 0.8"/>
      </g>
     </g>
     <g id="text_7">
      <!-- −7500 -->
      <g transform="translate(16.770313 270.974979) scale(0.1 -0.1)">
       <defs>
        <path id="DejaVuSans-37" d="M 525 4666 
L 3525 4666 
L 3525 4397 
L 1831 0 
L 1172 0 
L 2766 4134 
L 525 4134 
L 525 4666 
z
" transform="scale(0.015625)"/>
       </defs>
       <use xlink:href="#DejaVuSans-2212"/>
       <use xlink:href="#DejaVuSans-37" x="83.789062"/>
       <use xlink:href="#DejaVuSans-35" x="147.412109"/>
       <use xlink:href="#DejaVuSans-30" x="211.035156"/>
       <use xlink:href="#DejaVuSans-30" x="274.658203"/>
      </g>
     </g>
    </g>
    <g id="ytick_3">
     <g id="line2d_8">
      <g>
       <use xlink:href="#mf08e93f4e0" x="57.6" y="234.815332" style="stroke: #000000; stroke-width: 0.8"/>
      </g>
     </g>
     <g id="text_8">
      <!-- −5000 -->
      <g transform="translate(16.770313 238.614551) scale(0.1 -0.1)">
       <use xlink:href="#DejaVuSans-2212"/>
       <use xlink:href="#DejaVuSans-35" x="83.789062"/>
       <use xlink:href="#DejaVuSans-30" x="147.412109"/>
       <use xlink:href="#DejaVuSans-30" x="211.035156"/>
       <use xlink:href="#DejaVuSans-30" x="274.658203"/>
      </g>
     </g>
    </g>
    <g id="ytick_4">
     <g id="line2d_9">
      <g>
       <use xlink:href="#mf08e93f4e0" x="57.6" y="202.454904" style="stroke: #000000; stroke-width: 0.8"/>
      </g>
     </g>
     <g id="text_9">
      <!-- −2500 -->
      <g transform="translate(16.770313 206.254123) scale(0.1 -0.1)">
       <use xlink:href="#DejaVuSans-2212"/>
       <use xlink:href="#DejaVuSans-32" x="83.789062"/>
       <use xlink:href="#DejaVuSans-35" x="147.412109"/>
       <use xlink:href="#DejaVuSans-30" x="211.035156"/>
       <use xlink:href="#DejaVuSans-30" x="274.658203"/>
      </g>
     </g>
    </g>
    <g id="ytick_5">
     <g id="line2d_10">
      <g>
       <use xlink:href="#mf08e93f4e0" x="57.6" y="170.094476" style="stroke: #000000; stroke-width: 0.8"/>
      </g>
     </g>
     <g id="text_10">
      <!-- 0 -->
      <g transform="translate(44.2375 173.893695) scale(0.1 -0.1)">
       <use xlink:href="#DejaVuSans-30"/>
      </g>
     </g>
    </g>
    <g id="ytick_6">
     <g id="line2d_11">
      <g>
       <use xlink:href="#mf08e93f4e0" x="57.6" y="137.734048" style="stroke: #000000; stroke-width: 0.8"/>
      </g>
     </g>
     <g id="text_11">
      <!-- 2500 -->
      <g transform="translate(25.15 141.533267) scale(0.1 -0.1)">
       <use xlink:href="#DejaVuSans-32"/>
       <use xlink:href="#DejaVuSans-35" x="63.623047"/>
       <use xlink:href="#DejaVuSans-30" x="127.246094"/>
       <use xlink:href="#DejaVuSans-30" x="190.869141"/>
      </g>
     </g>
    </g>
    <g id="ytick_7">
     <g id="line2d_12">
      <g>
       <use xlink:href="#mf08e93f4e0" x="57.6" y="105.37362" style="stroke: #000000; stroke-width: 0.8"/>
      </g>
     </g>
     <g id="text_12">
      <!-- 5000 -->
      <g transform="translate(25.15 109.172839) scale(0.1 -0.1)">
       <use xlink:href="#DejaVuSans-35"/>
       <use xlink:href="#DejaVuSans-30" x="63.623047"/>
       <use xlink:href="#DejaVuSans-30" x="127.246094"/>
       <use xlink:href="#DejaVuSans-30" x="190.869141"/>
      </g>
     </g>
    </g>
    <g id="ytick_8">
     <g id="line2d_13">
      <g>
       <use xlink:href="#mf08e93f4e0" x="57.6" y="73.013192" style="stroke: #000000; stroke-width: 0.8"/>
      </g>
     </g>
     <g id="text_13">
      <!-- 7500 -->
      <g transform="translate(25.15 76.81241) scale(0.1 -0.1)">
       <use xlink:href="#DejaVuSans-37"/>
       <use xlink:href="#DejaVuSans-35" x="63.623047"/>
       <use xlink:href="#DejaVuSans-30" x="127.246094"/>
       <use xlink:href="#DejaVuSans-30" x="190.869141"/>
      </g>
     </g>
    </g>
   </g>
   <g id="line2d_14">
    <path d="M 73.832727 179.146959 
L 75.342748 182.215574 
L 76.85277 177.800228 
L 78.362791 179.065109 
L 79.872812 176.362627 
L 81.382833 172.787422 
L 82.892854 174.194127 
L 84.402875 176.764634 
L 85.912896 176.904639 
L 87.422918 175.145316 
L 88.932939 173.16518 
L 90.44296 172.337523 
L 91.952981 172.797049 
L 93.463002 173.03818 
L 94.973023 173.072647 
L 96.483044 172.812905 
L 97.993066 172.888441 
L 99.503087 175.120417 
L 101.013108 171.564051 
L 102.523129 173.905198 
L 104.03315 173.250697 
L 105.543171 173.913734 
L 107.053192 173.201858 
L 108.563214 173.97914 
L 110.073235 177.545882 
L 111.583256 175.267465 
L 113.093277 178.084102 
L 114.603298 178.135964 
L 116.113319 173.283965 
L 117.62334 173.370263 
L 119.133362 174.274786 
L 120.643383 173.419446 
L 122.153404 174.726729 
L 123.663425 173.518475 
L 125.173446 173.073813 
L 126.683467 171.213169 
L 128.193488 173.230658 
L 129.70351 174.562111 
L 131.213531 172.905037 
L 132.723552 171.892738 
L 134.233573 178.013308 
L 135.743594 177.456913 
L 137.253615 180.642616 
L 138.763636 175.848423 
L 140.273658 178.726928 
L 141.783679 174.903003 
L 143.2937 178.974433 
L 144.803721 174.559402 
L 146.313742 173.136052 
L 147.823763 175.211952 
L 149.333784 180.55764 
L 150.843805 178.183943 
L 152.353827 174.430519 
L 153.863848 177.261213 
L 155.373869 175.282645 
L 156.88389 174.381183 
L 158.393911 175.290486 
L 159.903932 172.6125 
L 161.413953 172.364045 
L 162.923975 171.604906 
L 164.433996 174.332801 
L 165.944017 174.578346 
L 167.454038 172.220566 
L 168.964059 174.807728 
L 170.47408 171.425684 
L 171.984101 171.006194 
L 173.494123 172.922802 
L 175.004144 172.114247 
L 178.024186 172.028885 
L 179.534207 173.421456 
L 181.044228 172.616863 
L 182.554249 173.056264 
L 184.064271 172.659977 
L 188.594334 173.001138 
L 190.104355 183.068344 
L 191.614376 180.081697 
L 193.124397 178.663069 
L 194.634419 173.059299 
L 196.14444 177.682114 
L 197.654461 175.552988 
L 199.164482 173.980601 
L 200.674503 173.043338 
L 202.184524 173.79562 
L 203.694545 172.577507 
L 205.204567 171.70427 
L 206.714588 171.87245 
L 208.224609 170.805138 
L 209.73463 173.736829 
L 211.244651 175.524525 
L 212.754672 175.70383 
L 214.264693 171.658842 
L 217.284736 176.150106 
L 220.304778 171.264708 
L 221.814799 172.425671 
L 224.834841 175.443476 
L 226.344863 172.923871 
L 227.854884 178.374133 
L 229.364905 178.340433 
L 230.874926 175.772662 
L 232.384947 181.780469 
L 233.894968 182.61819 
L 235.404989 191.327166 
L 236.915011 184.477068 
L 238.425032 195.566913 
L 239.935053 192.36503 
L 241.445074 180.358828 
L 242.955095 210.784725 
L 244.465116 201.817234 
L 245.975137 183.032634 
L 247.485159 193.523033 
L 248.99518 187.514623 
L 250.505201 177.281639 
L 252.015222 194.862141 
L 253.525243 197.857095 
L 255.035264 207.369365 
L 256.545285 209.791517 
L 258.055307 199.593931 
L 259.565328 191.485868 
L 261.075349 190.891426 
L 262.58537 193.045795 
L 264.095391 186.119248 
L 265.605412 202.581744 
L 267.115433 198.268802 
L 268.625455 192.994229 
L 270.135476 186.628159 
L 271.645497 199.377099 
L 273.155518 190.378015 
L 274.665539 199.77217 
L 276.17556 197.246287 
L 277.685581 199.287263 
L 279.195603 195.03588 
L 280.705624 186.828276 
L 282.215645 188.932776 
L 283.725666 191.77179 
L 285.235687 185.541605 
L 286.745708 192.711435 
L 288.255729 188.516683 
L 289.765751 183.183033 
L 291.275772 183.094971 
L 292.785793 188.358053 
L 294.295814 193.123554 
L 295.805835 179.488347 
L 297.315856 192.606556 
L 298.825877 184.560764 
L 300.335899 190.468789 
L 301.84592 192.47846 
L 303.355941 178.748194 
L 304.865962 187.049516 
L 306.375983 179.319443 
L 307.886004 176.706202 
L 309.396025 192.110119 
L 310.906047 184.725092 
L 312.416068 184.06918 
L 313.926089 178.634112 
L 315.43611 190.396744 
L 316.946131 180.497404 
L 318.456152 180.180468 
L 319.966173 180.83639 
L 321.476195 178.626018 
L 322.986216 179.603938 
L 324.496237 179.409491 
L 326.006258 180.054878 
L 327.516279 183.039885 
L 329.0263 178.747119 
L 330.536321 181.262949 
L 332.046342 173.855506 
L 333.556364 183.468841 
L 335.066385 179.625806 
L 336.576406 183.2448 
L 338.086427 182.541917 
L 339.596448 176.483654 
L 341.106469 179.266312 
L 342.61649 177.134633 
L 344.126512 181.687583 
L 345.636533 185.585902 
L 347.146554 185.358271 
L 348.656575 183.391645 
L 350.166596 175.250476 
L 351.676617 182.856012 
L 353.186638 174.262783 
L 354.69666 181.427851 
L 356.206681 185.557747 
L 357.716702 180.037278 
L 359.226723 182.943148 
L 360.736744 177.569127 
L 362.246765 177.465292 
L 363.756786 176.016811 
L 365.266808 175.397706 
L 366.776829 176.57026 
L 368.28685 175.594877 
L 369.796871 185.259316 
L 371.306892 179.744522 
L 372.816913 175.931324 
L 374.326934 177.331173 
L 375.836956 175.076028 
L 377.346977 173.1029 
L 378.856998 174.539242 
L 380.367019 178.986401 
L 381.87704 174.769236 
L 383.387061 176.626002 
L 384.897082 176.481613 
L 386.407104 179.844858 
L 387.917125 181.019417 
L 389.427146 187.61773 
L 390.937167 183.283549 
L 392.447188 179.849329 
L 393.957209 184.251507 
L 395.46723 187.566283 
L 396.977252 182.178833 
L 398.487273 178.553024 
L 398.487273 178.553024 
" clip-path="url(#pa181fda77c)" style="fill: none; stroke: #008000; stroke-opacity: 0.8; stroke-width: 0.5; stroke-linecap: square"/>
   </g>
   <g id="line2d_15">
    <path d="M 73.832727 162.985918 
L 75.342748 171.472122 
L 76.85277 168.534758 
L 78.362791 169.823546 
L 79.872812 166.669099 
L 81.382833 163.106697 
L 82.892854 165.891406 
L 84.402875 169.423149 
L 85.912896 164.795783 
L 87.422918 167.876287 
L 88.932939 165.936667 
L 90.44296 166.431914 
L 91.952981 169.344013 
L 93.463002 161.641673 
L 94.973023 165.553482 
L 96.483044 170.399953 
L 97.993066 165.509525 
L 99.503087 168.513468 
L 101.013108 166.876029 
L 102.523129 169.445972 
L 104.03315 171.016652 
L 105.543171 169.838045 
L 107.053192 170.833678 
L 108.563214 169.657996 
L 110.073235 170.945814 
L 111.583256 166.571342 
L 113.093277 169.886845 
L 114.603298 170.863358 
L 116.113319 170.058102 
L 117.62334 162.265068 
L 119.133362 169.706227 
L 120.643383 170.528242 
L 123.663425 168.906028 
L 125.173446 170.077126 
L 126.683467 169.831378 
L 128.193488 170.148917 
L 129.70351 170.590153 
L 131.213531 168.12324 
L 132.723552 170.627226 
L 134.233573 170.525422 
L 135.743594 170.659 
L 137.253615 172.218685 
L 138.763636 169.775722 
L 140.273658 168.193554 
L 141.783679 170.757571 
L 143.2937 169.920475 
L 144.803721 167.236987 
L 146.313742 164.005629 
L 147.823763 170.687866 
L 149.333784 173.680713 
L 150.843805 150.615669 
L 152.353827 160.868998 
L 153.863848 161.842769 
L 155.373869 168.204619 
L 156.88389 164.846373 
L 158.393911 163.98015 
L 159.903932 166.913357 
L 161.413953 168.635703 
L 162.923975 169.095815 
L 164.433996 160.157372 
L 165.944017 171.439734 
L 167.454038 169.048223 
L 168.964059 164.942519 
L 170.47408 165.313387 
L 171.984101 167.863709 
L 173.494123 168.281565 
L 175.004144 170.620864 
L 176.514165 168.008783 
L 178.024186 169.997723 
L 179.534207 168.275243 
L 181.044228 169.285845 
L 182.554249 168.494973 
L 184.064271 169.992155 
L 185.574292 166.194594 
L 187.084313 167.341084 
L 188.594334 162.467174 
L 190.104355 135.261567 
L 191.614376 169.019753 
L 193.124397 173.370009 
L 194.634419 168.334252 
L 196.14444 166.997893 
L 197.654461 168.283366 
L 199.164482 162.47429 
L 200.674503 167.050485 
L 202.184524 164.651118 
L 203.694545 164.709076 
L 205.204567 169.232292 
L 206.714588 169.750158 
L 208.224609 169.812222 
L 209.73463 170.06282 
L 211.244651 162.44798 
L 212.754672 167.226736 
L 214.264693 166.283833 
L 215.774715 162.168851 
L 217.284736 173.364933 
L 218.794757 165.953163 
L 220.304778 167.62598 
L 221.814799 168.111144 
L 223.32482 171.457105 
L 224.834841 167.398276 
L 226.344863 160.798501 
L 227.854884 168.394587 
L 229.364905 154.481808 
L 230.874926 160.813556 
L 232.384947 166.448416 
L 233.894968 161.907018 
L 235.404989 152.554568 
L 236.915011 123.832581 
L 238.425032 159.8378 
L 239.935053 152.125382 
L 241.445074 129.273819 
L 242.955095 185.209893 
L 244.465116 149.862873 
L 245.975137 141.564815 
L 247.485159 154.569662 
L 248.99518 153.553089 
L 250.505201 129.287445 
L 252.015222 139.058803 
L 253.525243 82.201379 
L 255.035264 116.588025 
L 256.545285 184.391431 
L 258.055307 154.739975 
L 259.565328 128.200219 
L 261.075349 154.914281 
L 262.58537 169.872681 
L 264.095391 160.741092 
L 265.605412 156.607307 
L 267.115433 160.00495 
L 268.625455 161.430148 
L 270.135476 147.754252 
L 271.645497 130.16932 
L 273.155518 126.106643 
L 274.665539 164.779309 
L 276.17556 168.967086 
L 277.685581 156.804462 
L 279.195603 151.836318 
L 280.705624 152.210839 
L 282.215645 150.10817 
L 283.725666 146.605027 
L 285.235687 142.554993 
L 286.745708 156.925526 
L 288.255729 148.788451 
L 289.765751 149.322342 
L 291.275772 152.849644 
L 292.785793 129.201361 
L 294.295814 163.901613 
L 295.805835 133.714832 
L 297.315856 164.776023 
L 298.825877 140.313164 
L 300.335899 169.731483 
L 301.84592 178.440058 
L 303.355941 153.492666 
L 304.865962 152.546899 
L 306.375983 142.165697 
L 307.886004 140.068853 
L 309.396025 157.402923 
L 310.906047 172.486813 
L 312.416068 158.720539 
L 313.926089 135.441665 
L 315.43611 174.863083 
L 316.946131 174.150901 
L 318.456152 168.047552 
L 319.966173 156.34378 
L 321.476195 170.331289 
L 322.986216 166.293921 
L 324.496237 144.207309 
L 326.006258 170.667087 
L 327.516279 149.220345 
L 329.0263 165.413654 
L 330.536321 169.717199 
L 332.046342 167.462663 
L 333.556364 170.37227 
L 335.066385 170.651632 
L 336.576406 147.809695 
L 338.086427 168.996383 
L 341.106469 173.593776 
L 342.61649 166.643616 
L 344.126512 170.586734 
L 345.636533 180.581806 
L 347.146554 173.3344 
L 348.656575 170.331251 
L 350.166596 159.797818 
L 351.676617 171.114487 
L 353.186638 157.904909 
L 354.69666 159.04832 
L 356.206681 173.921024 
L 357.716702 160.499904 
L 359.226723 170.29592 
L 360.736744 159.931507 
L 362.246765 155.740536 
L 363.756786 167.233789 
L 365.266808 165.174056 
L 366.776829 166.327166 
L 368.28685 156.805161 
L 371.306892 168.780289 
L 372.816913 166.422326 
L 374.326934 170.919807 
L 375.836956 163.815466 
L 377.346977 167.317892 
L 378.856998 149.78947 
L 381.87704 166.376414 
L 383.387061 163.813115 
L 384.897082 169.097107 
L 386.407104 165.926057 
L 387.917125 170.305628 
L 389.427146 171.380146 
L 390.937167 171.201371 
L 392.447188 160.904615 
L 393.957209 159.150912 
L 395.46723 168.546636 
L 396.977252 139.773842 
L 398.487273 160.647077 
L 398.487273 160.647077 
" clip-path="url(#pa181fda77c)" style="fill: none; stroke: #32cd32; stroke-opacity: 0.8; stroke-width: 0.5; stroke-linecap: square"/>
   </g>
   <g id="line2d_16">
    <path d="M 73.832727 197.542199 
L 75.342748 194.406402 
L 76.85277 186.955997 
L 78.362791 188.290395 
L 79.872812 186.290575 
L 81.382833 178.055009 
L 82.892854 179.137399 
L 84.402875 184.058908 
L 85.912896 186.760476 
L 87.422918 184.97077 
L 88.932939 178.713347 
L 90.44296 177.457504 
L 91.952981 175.229817 
L 93.463002 181.315258 
L 94.973023 179.476933 
L 96.483044 177.051325 
L 97.993066 177.732616 
L 99.503087 186.666476 
L 101.013108 175.753278 
L 102.523129 179.281608 
L 104.03315 175.479985 
L 105.543171 181.696209 
L 107.053192 176.305605 
L 108.563214 179.45732 
L 110.073235 180.662121 
L 111.583256 180.641088 
L 113.093277 182.41896 
L 114.603298 182.312898 
L 116.113319 181.051942 
L 117.62334 179.62313 
L 119.133362 182.000264 
L 120.643383 177.308066 
L 122.153404 179.052456 
L 123.663425 176.210616 
L 125.173446 176.298702 
L 126.683467 173.450605 
L 128.193488 176.487405 
L 129.70351 180.989395 
L 131.213531 175.865658 
L 132.723552 175.328687 
L 134.233573 184.344368 
L 135.743594 182.676664 
L 137.253615 187.958314 
L 138.763636 182.077167 
L 140.273658 184.410014 
L 141.783679 184.89064 
L 143.2937 187.783996 
L 144.803721 187.66124 
L 146.313742 179.918804 
L 147.823763 178.357858 
L 149.333784 186.33201 
L 150.843805 209.677107 
L 152.353827 186.341674 
L 153.863848 193.074931 
L 155.373869 182.131288 
L 156.88389 188.667539 
L 158.393911 184.384424 
L 159.903932 179.384065 
L 161.413953 175.09329 
L 162.923975 173.799413 
L 164.433996 182.717432 
L 165.944017 180.02118 
L 167.454038 176.470874 
L 168.964059 188.987382 
L 170.47408 176.196123 
L 171.984101 174.697583 
L 173.494123 176.868139 
L 175.004144 174.773756 
L 176.514165 182.109941 
L 178.024186 177.175827 
L 179.534207 177.52596 
L 181.044228 179.567928 
L 182.554249 178.48689 
L 184.064271 177.149302 
L 185.574292 179.10549 
L 187.084313 176.91953 
L 188.594334 178.08577 
L 190.104355 215.833495 
L 191.614376 186.932051 
L 193.124397 185.151287 
L 194.634419 178.83195 
L 196.14444 193.133306 
L 197.654461 186.782535 
L 199.164482 179.526239 
L 200.674503 177.749209 
L 202.184524 182.334037 
L 203.694545 179.250872 
L 205.204567 175.22968 
L 206.714588 174.755389 
L 208.224609 172.0517 
L 209.73463 187.046832 
L 211.244651 185.502515 
L 212.754672 188.147059 
L 214.264693 176.963811 
L 215.774715 188.672648 
L 217.284736 179.084355 
L 218.794757 180.529463 
L 220.304778 173.430078 
L 221.814799 174.992328 
L 223.32482 186.593622 
L 224.834841 191.037492 
L 226.344863 187.930773 
L 227.854884 194.42256 
L 229.364905 195.300342 
L 230.874926 185.62642 
L 232.384947 198.351278 
L 233.894968 207.772705 
L 235.404989 242.713072 
L 236.915011 259.436612 
L 238.425032 237.026889 
L 239.935053 269.189792 
L 241.445074 230.641444 
L 242.955095 268.31347 
L 244.465116 235.209381 
L 245.975137 225.661477 
L 247.485159 234.175177 
L 248.99518 227.287488 
L 250.505201 221.55686 
L 252.015222 259.883321 
L 253.525243 275.197203 
L 255.035264 295.488 
L 256.545285 233.834771 
L 258.055307 239.051009 
L 259.565328 232.881089 
L 261.075349 218.006643 
L 262.58537 219.57242 
L 264.095391 219.825775 
L 265.605412 246.178233 
L 267.115433 241.205345 
L 268.625455 228.736476 
L 270.135476 223.618877 
L 271.645497 236.144284 
L 273.155518 213.733398 
L 274.665539 249.883687 
L 276.17556 254.813763 
L 277.685581 233.980029 
L 279.195603 227.287892 
L 280.705624 223.820611 
L 282.215645 229.680592 
L 283.725666 234.171056 
L 285.235687 229.193517 
L 286.745708 223.240108 
L 288.255729 210.813232 
L 289.765751 213.353745 
L 291.275772 200.657619 
L 292.785793 222.798464 
L 294.295814 236.635404 
L 295.805835 207.850196 
L 297.315856 259.135003 
L 298.825877 226.569415 
L 300.335899 212.057684 
L 301.84592 215.899797 
L 303.355941 204.349455 
L 304.865962 212.694401 
L 306.375983 214.939658 
L 307.886004 205.390551 
L 309.396025 228.191355 
L 310.906047 202.219886 
L 312.416068 210.583654 
L 313.926089 221.802092 
L 315.43611 208.790671 
L 316.946131 191.078276 
L 318.456152 197.501407 
L 319.966173 200.843355 
L 321.476195 187.938503 
L 322.986216 189.233912 
L 324.496237 204.056012 
L 326.006258 190.340247 
L 327.516279 209.693275 
L 329.0263 191.293906 
L 330.536321 204.772978 
L 332.046342 188.074547 
L 333.556364 195.723401 
L 335.066385 190.023357 
L 336.576406 226.614972 
L 338.086427 191.631179 
L 339.596448 185.245907 
L 341.106469 186.718895 
L 342.61649 186.997967 
L 344.126512 186.534019 
L 345.636533 190.447117 
L 347.146554 207.691367 
L 348.656575 195.950852 
L 350.166596 186.515165 
L 351.676617 199.602585 
L 353.186638 184.377813 
L 354.69666 194.974684 
L 356.206681 219.661636 
L 357.716702 188.778224 
L 359.226723 206.967111 
L 360.736744 193.689349 
L 362.246765 193.425965 
L 363.756786 187.991154 
L 365.266808 181.450711 
L 368.28685 206.825559 
L 369.796871 215.169645 
L 371.306892 195.592844 
L 372.816913 187.099325 
L 374.326934 184.3812 
L 375.836956 182.905628 
L 377.346977 179.016752 
L 380.367019 198.518642 
L 381.87704 181.607138 
L 383.387061 187.443053 
L 384.897082 195.616305 
L 386.407104 192.746718 
L 387.917125 198.365744 
L 389.427146 226.73243 
L 390.937167 199.308687 
L 392.447188 212.909345 
L 393.957209 212.572999 
L 396.977252 205.590731 
L 398.487273 196.179459 
L 398.487273 196.179459 
" clip-path="url(#pa181fda77c)" style="fill: none; stroke: #32cd32; stroke-opacity: 0.8; stroke-width: 0.5; stroke-linecap: square"/>
   </g>
   <g id="line2d_17">
    <path d="M 73.832727 165.33815 
L 75.342748 165.58863 
L 76.85277 163.079344 
L 78.362791 163.776193 
L 79.872812 164.054928 
L 81.382833 166.003506 
L 82.892854 165.873049 
L 84.402875 167.987268 
L 85.912896 165.574032 
L 87.422918 166.016055 
L 88.932939 166.772439 
L 90.44296 165.738882 
L 91.952981 168.762135 
L 93.463002 166.669953 
L 94.973023 167.820606 
L 97.993066 168.220962 
L 99.503087 166.583349 
L 101.013108 165.518503 
L 102.523129 168.601255 
L 104.03315 169.167069 
L 105.543171 167.612154 
L 107.053192 168.787061 
L 108.563214 169.495344 
L 110.073235 169.111402 
L 111.583256 169.134788 
L 113.093277 168.595086 
L 114.603298 169.197895 
L 116.113319 168.526941 
L 117.62334 166.796198 
L 119.133362 167.540192 
L 120.643383 168.702961 
L 122.153404 168.034879 
L 123.663425 168.383871 
L 125.173446 168.099747 
L 126.683467 169.327776 
L 131.213531 168.660536 
L 132.723552 169.002274 
L 134.233573 169.737538 
L 137.253615 169.191124 
L 138.763636 165.801884 
L 140.273658 168.461243 
L 141.783679 168.901436 
L 143.2937 168.986428 
L 144.803721 164.792927 
L 146.313742 166.452402 
L 147.823763 169.374174 
L 149.333784 168.240795 
L 150.843805 161.602783 
L 152.353827 163.507194 
L 153.863848 164.471315 
L 155.373869 168.854609 
L 156.88389 165.08451 
L 158.393911 167.101937 
L 159.903932 168.076101 
L 161.413953 166.796654 
L 162.923975 167.911833 
L 164.433996 166.742059 
L 165.944017 168.379786 
L 167.454038 167.873853 
L 168.964059 164.877985 
L 170.47408 163.725866 
L 171.984101 164.643393 
L 173.494123 167.43418 
L 175.004144 168.474207 
L 176.514165 167.555486 
L 178.024186 167.073305 
L 179.534207 168.447907 
L 181.044228 167.384853 
L 182.554249 167.01283 
L 184.064271 168.133514 
L 185.574292 166.241618 
L 187.084313 165.858716 
L 188.594334 166.321645 
L 190.104355 163.643636 
L 191.614376 166.525099 
L 193.124397 166.949825 
L 194.634419 166.655374 
L 196.14444 169.187228 
L 197.654461 164.801696 
L 199.164482 166.875836 
L 200.674503 166.568042 
L 202.184524 166.665622 
L 203.694545 167.478062 
L 205.204567 166.604822 
L 206.714588 167.81851 
L 208.224609 166.193006 
L 209.73463 168.286098 
L 211.244651 165.095374 
L 212.754672 167.32303 
L 214.264693 165.704233 
L 215.774715 165.365082 
L 217.284736 168.834613 
L 218.794757 166.877662 
L 221.814799 168.82715 
L 223.32482 167.669157 
L 224.834841 168.611998 
L 226.344863 163.657224 
L 227.854884 163.836345 
L 229.364905 162.065088 
L 230.874926 164.191687 
L 232.384947 162.106766 
L 233.894968 161.117957 
L 235.404989 156.357395 
L 236.915011 141.794594 
L 238.425032 156.522528 
L 239.935053 150.754788 
L 241.445074 138.180611 
L 242.955095 137.259918 
L 244.465116 148.913451 
L 245.975137 145.858896 
L 247.485159 157.638816 
L 248.99518 154.605638 
L 250.505201 124.634726 
L 252.015222 140.666614 
L 253.525243 141.324785 
L 255.035264 126.841715 
L 256.545285 148.638761 
L 258.055307 148.631046 
L 259.565328 139.546365 
L 261.075349 155.638249 
L 262.58537 159.15398 
L 264.095391 162.016339 
L 265.605412 154.380149 
L 267.115433 156.935397 
L 268.625455 152.197571 
L 270.135476 153.373561 
L 271.645497 149.484881 
L 273.155518 149.161663 
L 274.665539 159.905687 
L 276.17556 146.080412 
L 277.685581 145.427579 
L 279.195603 141.091557 
L 280.705624 148.139043 
L 282.215645 144.051228 
L 283.725666 144.199458 
L 285.235687 144.831774 
L 286.745708 149.291399 
L 288.255729 156.119071 
L 289.765751 151.194757 
L 291.275772 165.444343 
L 292.785793 154.015987 
L 294.295814 159.310578 
L 295.805835 144.288737 
L 297.315856 163.465837 
L 298.825877 134.73349 
L 300.335899 158.744329 
L 301.84592 163.184127 
L 303.355941 153.701134 
L 304.865962 159.696225 
L 306.375983 157.388946 
L 307.886004 149.284434 
L 309.396025 162.409473 
L 310.906047 160.470625 
L 312.416068 159.797516 
L 313.926089 148.647962 
L 315.43611 162.017073 
L 316.946131 165.866958 
L 318.456152 165.135862 
L 319.966173 159.420967 
L 321.476195 160.409237 
L 322.986216 165.344727 
L 324.496237 162.163837 
L 326.006258 164.191842 
L 327.516279 159.992118 
L 329.0263 163.712696 
L 330.536321 167.051573 
L 332.046342 165.985311 
L 333.556364 168.462798 
L 335.066385 164.88179 
L 336.576406 156.6251 
L 338.086427 166.026686 
L 341.106469 167.173372 
L 342.61649 166.454309 
L 345.636533 170.892972 
L 347.146554 161.818373 
L 348.656575 164.475767 
L 350.166596 163.130291 
L 353.186638 162.922158 
L 354.69666 165.341522 
L 356.206681 156.311812 
L 357.716702 158.454637 
L 359.226723 161.509971 
L 360.736744 157.545112 
L 362.246765 162.542669 
L 363.756786 156.617389 
L 365.266808 161.704616 
L 366.776829 164.470078 
L 368.28685 160.844595 
L 369.796871 164.477498 
L 371.306892 160.685189 
L 372.816913 164.771643 
L 374.326934 161.9339 
L 375.836956 164.379694 
L 377.346977 166.124713 
L 378.856998 163.200542 
L 381.87704 166.586566 
L 383.387061 166.537188 
L 384.897082 167.579411 
L 386.407104 163.592488 
L 387.917125 167.663266 
L 389.427146 158.145154 
L 390.937167 159.995441 
L 392.447188 158.2241 
L 393.957209 160.779252 
L 395.46723 162.072328 
L 396.977252 160.052639 
L 398.487273 158.524146 
L 398.487273 158.524146 
" clip-path="url(#pa181fda77c)" style="fill: none; stroke: #ff0000; stroke-opacity: 0.8; stroke-width: 0.5; stroke-linecap: square"/>
   </g>
   <g id="line2d_18">
    <path d="M 73.832727 150.720547 
L 75.342748 151.45875 
L 76.85277 151.124818 
L 78.362791 155.436074 
L 79.872812 153.574869 
L 81.382833 158.312436 
L 82.892854 157.479345 
L 84.402875 158.260653 
L 85.912896 149.14589 
L 87.422918 161.392668 
L 88.932939 158.693691 
L 90.44296 160.269106 
L 91.952981 166.27362 
L 93.463002 160.209433 
L 94.973023 160.986079 
L 96.483044 166.043589 
L 97.993066 162.810866 
L 99.503087 157.719343 
L 101.013108 162.167887 
L 102.523129 161.733186 
L 104.03315 166.311156 
L 105.543171 161.416313 
L 107.053192 165.489944 
L 108.563214 167.139963 
L 110.073235 167.319632 
L 111.583256 165.90726 
L 113.093277 167.7334 
L 114.603298 166.087345 
L 116.113319 161.827094 
L 117.62334 159.463949 
L 119.133362 162.809513 
L 120.643383 166.862342 
L 122.153404 161.986397 
L 123.663425 165.27154 
L 125.173446 164.439592 
L 126.683467 167.527858 
L 128.193488 167.825046 
L 129.70351 166.691644 
L 131.213531 164.02237 
L 132.723552 168.025192 
L 134.233573 169.137954 
L 135.743594 168.653641 
L 137.253615 161.958407 
L 138.763636 161.283275 
L 140.273658 165.133407 
L 141.783679 166.673928 
L 143.2937 156.395371 
L 144.803721 155.262244 
L 146.313742 160.375217 
L 147.823763 164.998402 
L 149.333784 162.788085 
L 150.843805 130.501631 
L 152.353827 151.345549 
L 153.863848 143.475053 
L 155.373869 163.033991 
L 156.88389 155.041012 
L 158.393911 157.232657 
L 159.903932 162.357497 
L 161.413953 163.565001 
L 162.923975 165.321669 
L 164.433996 154.228445 
L 165.944017 164.352933 
L 167.454038 166.297781 
L 168.964059 157.387937 
L 170.47408 159.30634 
L 171.984101 162.069839 
L 173.494123 163.510707 
L 175.004144 166.759171 
L 176.514165 160.900929 
L 178.024186 163.927994 
L 179.534207 163.154646 
L 181.044228 160.977583 
L 182.554249 161.079474 
L 184.064271 163.926515 
L 185.574292 157.66208 
L 187.084313 160.300518 
L 188.594334 159.047827 
L 190.104355 129.49069 
L 191.614376 161.417297 
L 193.124397 162.638393 
L 194.634419 161.826968 
L 196.14444 163.664099 
L 197.654461 155.383893 
L 199.164482 157.851308 
L 200.674503 161.112476 
L 202.184524 152.701719 
L 203.694545 162.034037 
L 205.204567 163.893415 
L 206.714588 164.596705 
L 208.224609 164.770337 
L 209.73463 155.030621 
L 211.244651 155.31088 
L 212.754672 161.422425 
L 214.264693 162.007377 
L 215.774715 152.634717 
L 217.284736 165.718765 
L 218.794757 161.341119 
L 220.304778 166.046958 
L 221.814799 165.608862 
L 223.32482 160.190213 
L 224.834841 157.643422 
L 226.344863 151.19457 
L 227.854884 155.613993 
L 229.364905 139.124872 
L 230.874926 156.704489 
L 233.894968 137.552248 
L 235.404989 122.685316 
L 236.915011 89.291014 
L 238.425032 127.002521 
L 239.935053 79.376769 
L 241.445074 75.132446 
L 242.955095 95.720807 
L 244.465116 88.251717 
L 245.975137 113.241552 
L 247.485159 123.226329 
L 248.99518 118.269048 
L 250.505201 91.087047 
L 252.015222 77.836867 
L 253.525243 61.378758 
L 255.035264 53.568 
L 256.545285 115.222112 
L 258.055307 111.651391 
L 259.565328 92.441609 
L 262.58537 141.136494 
L 264.095391 142.899632 
L 265.605412 125.642734 
L 267.115433 126.76184 
L 268.625455 117.522938 
L 270.135476 127.725069 
L 271.645497 77.325396 
L 273.155518 94.701707 
L 274.665539 116.297742 
L 276.17556 100.168748 
L 277.685581 95.457828 
L 279.195603 108.156364 
L 280.705624 107.511481 
L 282.215645 103.485288 
L 283.725666 109.267641 
L 285.235687 112.469028 
L 286.745708 108.112981 
L 288.255729 116.281764 
L 291.275772 136.817894 
L 292.785793 97.288211 
L 294.295814 113.06266 
L 295.805835 116.876867 
L 297.315856 128.192458 
L 298.825877 95.133213 
L 300.335899 142.32847 
L 301.84592 144.048831 
L 303.355941 124.16258 
L 304.865962 124.399971 
L 306.375983 126.992155 
L 307.886004 104.452662 
L 309.396025 133.688944 
L 310.906047 135.04611 
L 312.416068 129.107959 
L 313.926089 105.925605 
L 315.43611 150.070968 
L 316.946131 157.204508 
L 318.456152 156.118074 
L 319.966173 142.132563 
L 321.476195 152.732196 
L 322.986216 153.54194 
L 324.496237 136.258469 
L 326.006258 152.780054 
L 327.516279 126.084319 
L 329.0263 156.334013 
L 330.536321 158.582051 
L 332.046342 162.203626 
L 333.556364 162.58357 
L 335.066385 154.599785 
L 336.576406 126.138382 
L 338.086427 162.0792 
L 339.596448 158.12089 
L 341.106469 160.316558 
L 342.61649 160.125003 
L 344.126512 166.056274 
L 345.636533 167.377717 
L 347.146554 150.82465 
L 348.656575 148.375395 
L 350.166596 148.066973 
L 351.676617 134.220944 
L 353.186638 149.750189 
L 354.69666 148.591932 
L 356.206681 133.472938 
L 357.716702 152.034905 
L 359.226723 151.349058 
L 360.736744 137.379625 
L 362.246765 146.858062 
L 363.756786 146.068891 
L 365.266808 153.344582 
L 366.776829 149.939693 
L 368.28685 139.397753 
L 369.796871 146.603081 
L 372.816913 155.729602 
L 374.326934 141.275796 
L 375.836956 154.297935 
L 377.346977 159.882663 
L 378.856998 140.018611 
L 380.367019 143.541203 
L 381.87704 157.742627 
L 383.387061 156.974505 
L 384.897082 160.015416 
L 386.407104 151.082092 
L 387.917125 151.150252 
L 389.427146 140.620017 
L 390.937167 150.661516 
L 392.447188 117.427829 
L 393.957209 142.798177 
L 395.46723 137.67049 
L 396.977252 124.911304 
L 398.487273 147.604585 
L 398.487273 147.604585 
" clip-path="url(#pa181fda77c)" style="fill: none; stroke: #f08080; stroke-opacity: 0.8; stroke-width: 0.5; stroke-linecap: square"/>
   </g>
   <g id="line2d_19">
    <path d="M 73.832727 182.043056 
L 75.342748 178.759725 
L 76.85277 174.090466 
L 78.362791 174.114071 
L 79.872812 171.391105 
L 82.892854 171.812688 
L 84.402875 180.28633 
L 85.912896 175.956416 
L 87.422918 175.156039 
L 88.932939 172.549214 
L 90.44296 171.295091 
L 91.952981 169.782613 
L 93.463002 171.525475 
L 94.973023 170.538177 
L 96.483044 170.969076 
L 97.993066 173.959474 
L 99.503087 175.538018 
L 101.013108 169.211109 
L 102.523129 172.403585 
L 104.03315 171.700587 
L 105.543171 170.449665 
L 107.053192 171.554197 
L 108.563214 171.818901 
L 110.073235 170.576208 
L 111.583256 173.900665 
L 113.093277 169.347018 
L 114.603298 170.465458 
L 116.113319 170.439961 
L 117.62334 172.2055 
L 119.133362 175.208846 
L 120.643383 171.155149 
L 122.153404 173.679341 
L 123.663425 171.011621 
L 125.173446 171.788393 
L 126.683467 170.426665 
L 128.193488 170.422154 
L 129.70351 172.477378 
L 131.213531 172.655216 
L 132.723552 171.22344 
L 134.233573 170.758159 
L 135.743594 170.027225 
L 137.253615 178.753039 
L 138.763636 168.837393 
L 140.273658 171.235674 
L 141.783679 172.170973 
L 143.2937 178.140599 
L 144.803721 175.201668 
L 146.313742 176.521421 
L 147.823763 174.124054 
L 149.333784 174.803019 
L 150.843805 182.275573 
L 152.353827 177.76798 
L 153.863848 179.886982 
L 155.373869 175.141742 
L 156.88389 176.895311 
L 158.393911 175.999306 
L 159.903932 176.067996 
L 161.413953 172.28668 
L 162.923975 169.164794 
L 165.944017 173.390458 
L 167.454038 170.226732 
L 168.964059 182.658747 
L 170.47408 167.20601 
L 171.984101 169.686039 
L 173.494123 173.046594 
L 175.004144 171.563825 
L 176.514165 176.656969 
L 178.024186 171.547194 
L 181.044228 175.189709 
L 182.554249 171.852052 
L 184.064271 174.888911 
L 185.574292 173.61169 
L 187.084313 170.162665 
L 188.594334 172.504405 
L 190.104355 180.977613 
L 191.614376 175.937395 
L 193.124397 173.090044 
L 194.634419 173.681622 
L 196.14444 180.452569 
L 197.654461 175.493042 
L 199.164482 173.496568 
L 200.674503 170.504756 
L 202.184524 175.128212 
L 203.694545 170.397476 
L 205.204567 170.878899 
L 206.714588 171.219172 
L 208.224609 169.200823 
L 209.73463 181.196075 
L 211.244651 170.598848 
L 212.754672 172.433541 
L 214.264693 169.910959 
L 215.774715 171.55596 
L 217.284736 174.216758 
L 218.794757 171.744656 
L 220.304778 170.139819 
L 221.814799 172.452312 
L 223.32482 179.037173 
L 224.834841 185.038945 
L 226.344863 175.433487 
L 227.854884 173.156944 
L 229.364905 181.922996 
L 230.874926 172.216603 
L 232.384947 189.194266 
L 233.894968 187.697436 
L 235.404989 200.326801 
L 236.915011 188.733583 
L 238.425032 185.769797 
L 239.935053 242.262175 
L 241.445074 197.359578 
L 242.955095 202.480944 
L 244.465116 196.735266 
L 245.975137 185.21701 
L 247.485159 201.699356 
L 248.99518 201.670821 
L 250.505201 151.923388 
L 252.015222 209.707545 
L 253.525243 211.246234 
L 255.035264 191.146163 
L 256.545285 179.716293 
L 258.055307 204.239582 
L 259.565328 175.121997 
L 261.075349 194.88087 
L 262.58537 177.078362 
L 264.095391 193.584869 
L 265.605412 181.364989 
L 268.625455 200.548066 
L 270.135476 182.502084 
L 271.645497 181.173254 
L 273.155518 178.116596 
L 274.665539 197.270966 
L 276.17556 188.795264 
L 277.685581 196.331411 
L 279.195603 174.163137 
L 280.705624 201.682552 
L 282.215645 175.27442 
L 283.725666 185.473011 
L 285.235687 183.629326 
L 286.745708 174.211845 
L 288.255729 191.405613 
L 289.765751 175.699589 
L 291.275772 179.643962 
L 292.785793 177.803623 
L 294.295814 223.743616 
L 295.805835 165.18148 
L 297.315856 239.736001 
L 298.825877 203.366507 
L 300.335899 183.822857 
L 301.84592 189.32997 
L 303.355941 175.048731 
L 304.865962 185.395986 
L 306.375983 176.244591 
L 307.886004 183.243902 
L 309.396025 180.040388 
L 310.906047 175.838199 
L 312.416068 191.444294 
L 313.926089 164.542386 
L 315.43611 180.335136 
L 316.946131 181.47713 
L 318.456152 186.141949 
L 319.966173 182.821106 
L 321.476195 171.312707 
L 322.986216 180.308856 
L 324.496237 173.797011 
L 326.006258 172.203832 
L 327.516279 193.461752 
L 329.0263 173.559943 
L 330.536321 176.465675 
L 332.046342 171.64042 
L 333.556364 176.715571 
L 335.066385 177.04365 
L 336.576406 184.115944 
L 338.086427 170.333324 
L 339.596448 176.513799 
L 341.106469 176.212367 
L 342.61649 171.716836 
L 344.126512 171.897087 
L 345.636533 175.868714 
L 347.146554 184.934349 
L 348.656575 174.754053 
L 350.166596 171.429462 
L 351.676617 191.767342 
L 353.186638 171.582752 
L 354.69666 184.156675 
L 356.206681 182.484079 
L 357.716702 166.626004 
L 359.226723 182.193054 
L 360.736744 178.550402 
L 362.246765 177.892113 
L 365.266808 173.679986 
L 366.776829 183.313319 
L 368.28685 177.03465 
L 369.796871 182.542142 
L 371.306892 170.571989 
L 372.816913 177.934098 
L 374.326934 168.273029 
L 375.836956 171.252054 
L 377.346977 175.870054 
L 378.856998 170.699363 
L 380.367019 190.447871 
L 381.87704 173.859048 
L 383.387061 176.003782 
L 384.897082 178.551179 
L 386.407104 168.954125 
L 387.917125 183.839492 
L 389.427146 204.624881 
L 390.937167 167.577138 
L 392.447188 189.004347 
L 393.957209 176.925997 
L 395.46723 186.229284 
L 396.977252 182.116906 
L 398.487273 175.892241 
L 398.487273 175.892241 
" clip-path="url(#pa181fda77c)" style="fill: none; stroke: #f08080; stroke-opacity: 0.8; stroke-width: 0.5; stroke-linecap: square"/>
   </g>
   <g id="patch_3">
    <path d="M 57.6 307.584 
L 57.6 41.472 
" style="fill: none; stroke: #000000; stroke-width: 0.8; stroke-linejoin: miter; stroke-linecap: square"/>
   </g>
   <g id="patch_4">
    <path d="M 414.72 307.584 
L 414.72 41.472 
" style="fill: none; stroke: #000000; stroke-width: 0.8; stroke-linejoin: miter; stroke-linecap: square"/>
   </g>
   <g id="patch_5">
    <path d="M 57.6 307.584 
L 414.72 307.584 
" style="fill: none; stroke: #000000; stroke-width: 0.8; stroke-linejoin: miter; stroke-linecap: square"/>
   </g>
   <g id="patch_6">
    <path d="M 57.6 41.472 
L 414.72 41.472 
" style="fill: none; stroke: #000000; stroke-width: 0.8; stroke-linejoin: miter; stroke-linecap: square"/>
   </g>
   <g id="text_14">
    <!-- max_cliquebtcusd -->
    <g transform="translate(181.95375 35.472) scale(0.12 -0.12)">
     <defs>
      <path id="DejaVuSans-6d" d="M 3328 2828 
Q 3544 3216 3844 3400 
Q 4144 3584 4550 3584 
Q 5097 3584 5394 3201 
Q 5691 2819 5691 2113 
L 5691 0 
L 5113 0 
L 5113 2094 
Q 5113 2597 4934 2840 
Q 4756 3084 4391 3084 
Q 3944 3084 3684 2787 
Q 3425 2491 3425 1978 
L 3425 0 
L 2847 0 
L 2847 2094 
Q 2847 2600 2669 2842 
Q 2491 3084 2119 3084 
Q 1678 3084 1418 2786 
Q 1159 2488 1159 1978 
L 1159 0 
L 581 0 
L 581 3500 
L 1159 3500 
L 1159 2956 
Q 1356 3278 1631 3431 
Q 1906 3584 2284 3584 
Q 2666 3584 2933 3390 
Q 3200 3197 3328 2828 
z
" transform="scale(0.015625)"/>
      <path id="DejaVuSans-61" d="M 2194 1759 
Q 1497 1759 1228 1600 
Q 959 1441 959 1056 
Q 959 750 1161 570 
Q 1363 391 1709 391 
Q 2188 391 2477 730 
Q 2766 1069 2766 1631 
L 2766 1759 
L 2194 1759 
z
M 3341 1997 
L 3341 0 
L 2766 0 
L 2766 531 
Q 2569 213 2275 61 
Q 1981 -91 1556 -91 
Q 1019 -91 701 211 
Q 384 513 384 1019 
Q 384 1609 779 1909 
Q 1175 2209 1959 2209 
L 2766 2209 
L 2766 2266 
Q 2766 2663 2505 2880 
Q 2244 3097 1772 3097 
Q 1472 3097 1187 3025 
Q 903 2953 641 2809 
L 641 3341 
Q 956 3463 1253 3523 
Q 1550 3584 1831 3584 
Q 2591 3584 2966 3190 
Q 3341 2797 3341 1997 
z
" transform="scale(0.015625)"/>
      <path id="DejaVuSans-78" d="M 3513 3500 
L 2247 1797 
L 3578 0 
L 2900 0 
L 1881 1375 
L 863 0 
L 184 0 
L 1544 1831 
L 300 3500 
L 978 3500 
L 1906 2253 
L 2834 3500 
L 3513 3500 
z
" transform="scale(0.015625)"/>
      <path id="DejaVuSans-5f" d="M 3263 -1063 
L 3263 -1509 
L -63 -1509 
L -63 -1063 
L 3263 -1063 
z
" transform="scale(0.015625)"/>
      <path id="DejaVuSans-63" d="M 3122 3366 
L 3122 2828 
Q 2878 2963 2633 3030 
Q 2388 3097 2138 3097 
Q 1578 3097 1268 2742 
Q 959 2388 959 1747 
Q 959 1106 1268 751 
Q 1578 397 2138 397 
Q 2388 397 2633 464 
Q 2878 531 3122 666 
L 3122 134 
Q 2881 22 2623 -34 
Q 2366 -91 2075 -91 
Q 1284 -91 818 406 
Q 353 903 353 1747 
Q 353 2603 823 3093 
Q 1294 3584 2113 3584 
Q 2378 3584 2631 3529 
Q 2884 3475 3122 3366 
z
" transform="scale(0.015625)"/>
      <path id="DejaVuSans-6c" d="M 603 4863 
L 1178 4863 
L 1178 0 
L 603 0 
L 603 4863 
z
" transform="scale(0.015625)"/>
      <path id="DejaVuSans-69" d="M 603 3500 
L 1178 3500 
L 1178 0 
L 603 0 
L 603 3500 
z
M 603 4863 
L 1178 4863 
L 1178 4134 
L 603 4134 
L 603 4863 
z
" transform="scale(0.015625)"/>
      <path id="DejaVuSans-71" d="M 947 1747 
Q 947 1113 1208 752 
Q 1469 391 1925 391 
Q 2381 391 2643 752 
Q 2906 1113 2906 1747 
Q 2906 2381 2643 2742 
Q 2381 3103 1925 3103 
Q 1469 3103 1208 2742 
Q 947 2381 947 1747 
z
M 2906 525 
Q 2725 213 2448 61 
Q 2172 -91 1784 -91 
Q 1150 -91 751 415 
Q 353 922 353 1747 
Q 353 2572 751 3078 
Q 1150 3584 1784 3584 
Q 2172 3584 2448 3432 
Q 2725 3281 2906 2969 
L 2906 3500 
L 3481 3500 
L 3481 -1331 
L 2906 -1331 
L 2906 525 
z
" transform="scale(0.015625)"/>
      <path id="DejaVuSans-75" d="M 544 1381 
L 544 3500 
L 1119 3500 
L 1119 1403 
Q 1119 906 1312 657 
Q 1506 409 1894 409 
Q 2359 409 2629 706 
Q 2900 1003 2900 1516 
L 2900 3500 
L 3475 3500 
L 3475 0 
L 2900 0 
L 2900 538 
Q 2691 219 2414 64 
Q 2138 -91 1772 -91 
Q 1169 -91 856 284 
Q 544 659 544 1381 
z
M 1991 3584 
L 1991 3584 
z
" transform="scale(0.015625)"/>
      <path id="DejaVuSans-65" d="M 3597 1894 
L 3597 1613 
L 953 1613 
Q 991 1019 1311 708 
Q 1631 397 2203 397 
Q 2534 397 2845 478 
Q 3156 559 3463 722 
L 3463 178 
Q 3153 47 2828 -22 
Q 2503 -91 2169 -91 
Q 1331 -91 842 396 
Q 353 884 353 1716 
Q 353 2575 817 3079 
Q 1281 3584 2069 3584 
Q 2775 3584 3186 3129 
Q 3597 2675 3597 1894 
z
M 3022 2063 
Q 3016 2534 2758 2815 
Q 2500 3097 2075 3097 
Q 1594 3097 1305 2825 
Q 1016 2553 972 2059 
L 3022 2063 
z
" transform="scale(0.015625)"/>
      <path id="DejaVuSans-62" d="M 3116 1747 
Q 3116 2381 2855 2742 
Q 2594 3103 2138 3103 
Q 1681 3103 1420 2742 
Q 1159 2381 1159 1747 
Q 1159 1113 1420 752 
Q 1681 391 2138 391 
Q 2594 391 2855 752 
Q 3116 1113 3116 1747 
z
M 1159 2969 
Q 1341 3281 1617 3432 
Q 1894 3584 2278 3584 
Q 2916 3584 3314 3078 
Q 3713 2572 3713 1747 
Q 3713 922 3314 415 
Q 2916 -91 2278 -91 
Q 1894 -91 1617 61 
Q 1341 213 1159 525 
L 1159 0 
L 581 0 
L 581 4863 
L 1159 4863 
L 1159 2969 
z
" transform="scale(0.015625)"/>
      <path id="DejaVuSans-74" d="M 1172 4494 
L 1172 3500 
L 2356 3500 
L 2356 3053 
L 1172 3053 
L 1172 1153 
Q 1172 725 1289 603 
Q 1406 481 1766 481 
L 2356 481 
L 2356 0 
L 1766 0 
Q 1100 0 847 248 
Q 594 497 594 1153 
L 594 3053 
L 172 3053 
L 172 3500 
L 594 3500 
L 594 4494 
L 1172 4494 
z
" transform="scale(0.015625)"/>
      <path id="DejaVuSans-73" d="M 2834 3397 
L 2834 2853 
Q 2591 2978 2328 3040 
Q 2066 3103 1784 3103 
Q 1356 3103 1142 2972 
Q 928 2841 928 2578 
Q 928 2378 1081 2264 
Q 1234 2150 1697 2047 
L 1894 2003 
Q 2506 1872 2764 1633 
Q 3022 1394 3022 966 
Q 3022 478 2636 193 
Q 2250 -91 1575 -91 
Q 1294 -91 989 -36 
Q 684 19 347 128 
L 347 722 
Q 666 556 975 473 
Q 1284 391 1588 391 
Q 1994 391 2212 530 
Q 2431 669 2431 922 
Q 2431 1156 2273 1281 
Q 2116 1406 1581 1522 
L 1381 1569 
Q 847 1681 609 1914 
Q 372 2147 372 2553 
Q 372 3047 722 3315 
Q 1072 3584 1716 3584 
Q 2034 3584 2315 3537 
Q 2597 3491 2834 3397 
z
" transform="scale(0.015625)"/>
      <path id="DejaVuSans-64" d="M 2906 2969 
L 2906 4863 
L 3481 4863 
L 3481 0 
L 2906 0 
L 2906 525 
Q 2725 213 2448 61 
Q 2172 -91 1784 -91 
Q 1150 -91 751 415 
Q 353 922 353 1747 
Q 353 2572 751 3078 
Q 1150 3584 1784 3584 
Q 2172 3584 2448 3432 
Q 2725 3281 2906 2969 
z
M 947 1747 
Q 947 1113 1208 752 
Q 1469 391 1925 391 
Q 2381 391 2643 752 
Q 2906 1113 2906 1747 
Q 2906 2381 2643 2742 
Q 2381 3103 1925 3103 
Q 1469 3103 1208 2742 
Q 947 2381 947 1747 
z
" transform="scale(0.015625)"/>
     </defs>
     <use xlink:href="#DejaVuSans-6d"/>
     <use xlink:href="#DejaVuSans-61" x="97.412109"/>
     <use xlink:href="#DejaVuSans-78" x="158.691406"/>
     <use xlink:href="#DejaVuSans-5f" x="217.871094"/>
     <use xlink:href="#DejaVuSans-63" x="267.871094"/>
     <use xlink:href="#DejaVuSans-6c" x="322.851562"/>
     <use xlink:href="#DejaVuSans-69" x="350.634766"/>
     <use xlink:href="#DejaVuSans-71" x="378.417969"/>
     <use xlink:href="#DejaVuSans-75" x="441.894531"/>
     <use xlink:href="#DejaVuSans-65" x="505.273438"/>
     <use xlink:href="#DejaVuSans-62" x="566.796875"/>
     <use xlink:href="#DejaVuSans-74" x="630.273438"/>
     <use xlink:href="#DejaVuSans-63" x="669.482422"/>
     <use xlink:href="#DejaVuSans-75" x="724.462891"/>
     <use xlink:href="#DejaVuSans-73" x="787.841797"/>
     <use xlink:href="#DejaVuSans-64" x="839.941406"/>
    </g>
   </g>
   <g id="legend_1">
    <g id="patch_7">
     <path d="M 64.6 302.584 
L 225.001563 302.584 
Q 227.001563 302.584 227.001563 300.584 
L 227.001563 213.51525 
Q 227.001563 211.51525 225.001563 211.51525 
L 64.6 211.51525 
Q 62.6 211.51525 62.6 213.51525 
L 62.6 300.584 
Q 62.6 302.584 64.6 302.584 
z
" style="fill: #ffffff; opacity: 0.8; stroke: #cccccc; stroke-linejoin: miter"/>
    </g>
    <g id="line2d_20">
     <path d="M 66.6 219.613687 
L 76.6 219.613687 
L 86.6 219.613687 
" style="fill: none; stroke: #008000; stroke-opacity: 0.8; stroke-width: 0.5; stroke-linecap: square"/>
    </g>
    <g id="text_15">
     <!-- Positive predictions -->
     <g transform="translate(94.6 223.113687) scale(0.1 -0.1)">
      <defs>
       <path id="DejaVuSans-50" d="M 1259 4147 
L 1259 2394 
L 2053 2394 
Q 2494 2394 2734 2622 
Q 2975 2850 2975 3272 
Q 2975 3691 2734 3919 
Q 2494 4147 2053 4147 
L 1259 4147 
z
M 628 4666 
L 2053 4666 
Q 2838 4666 3239 4311 
Q 3641 3956 3641 3272 
Q 3641 2581 3239 2228 
Q 2838 1875 2053 1875 
L 1259 1875 
L 1259 0 
L 628 0 
L 628 4666 
z
" transform="scale(0.015625)"/>
       <path id="DejaVuSans-6f" d="M 1959 3097 
Q 1497 3097 1228 2736 
Q 959 2375 959 1747 
Q 959 1119 1226 758 
Q 1494 397 1959 397 
Q 2419 397 2687 759 
Q 2956 1122 2956 1747 
Q 2956 2369 2687 2733 
Q 2419 3097 1959 3097 
z
M 1959 3584 
Q 2709 3584 3137 3096 
Q 3566 2609 3566 1747 
Q 3566 888 3137 398 
Q 2709 -91 1959 -91 
Q 1206 -91 779 398 
Q 353 888 353 1747 
Q 353 2609 779 3096 
Q 1206 3584 1959 3584 
z
" transform="scale(0.015625)"/>
       <path id="DejaVuSans-76" d="M 191 3500 
L 800 3500 
L 1894 563 
L 2988 3500 
L 3597 3500 
L 2284 0 
L 1503 0 
L 191 3500 
z
" transform="scale(0.015625)"/>
       <path id="DejaVuSans-20" transform="scale(0.015625)"/>
       <path id="DejaVuSans-70" d="M 1159 525 
L 1159 -1331 
L 581 -1331 
L 581 3500 
L 1159 3500 
L 1159 2969 
Q 1341 3281 1617 3432 
Q 1894 3584 2278 3584 
Q 2916 3584 3314 3078 
Q 3713 2572 3713 1747 
Q 3713 922 3314 415 
Q 2916 -91 2278 -91 
Q 1894 -91 1617 61 
Q 1341 213 1159 525 
z
M 3116 1747 
Q 3116 2381 2855 2742 
Q 2594 3103 2138 3103 
Q 1681 3103 1420 2742 
Q 1159 2381 1159 1747 
Q 1159 1113 1420 752 
Q 1681 391 2138 391 
Q 2594 391 2855 752 
Q 3116 1113 3116 1747 
z
" transform="scale(0.015625)"/>
       <path id="DejaVuSans-72" d="M 2631 2963 
Q 2534 3019 2420 3045 
Q 2306 3072 2169 3072 
Q 1681 3072 1420 2755 
Q 1159 2438 1159 1844 
L 1159 0 
L 581 0 
L 581 3500 
L 1159 3500 
L 1159 2956 
Q 1341 3275 1631 3429 
Q 1922 3584 2338 3584 
Q 2397 3584 2469 3576 
Q 2541 3569 2628 3553 
L 2631 2963 
z
" transform="scale(0.015625)"/>
       <path id="DejaVuSans-6e" d="M 3513 2113 
L 3513 0 
L 2938 0 
L 2938 2094 
Q 2938 2591 2744 2837 
Q 2550 3084 2163 3084 
Q 1697 3084 1428 2787 
Q 1159 2491 1159 1978 
L 1159 0 
L 581 0 
L 581 3500 
L 1159 3500 
L 1159 2956 
Q 1366 3272 1645 3428 
Q 1925 3584 2291 3584 
Q 2894 3584 3203 3211 
Q 3513 2838 3513 2113 
z
" transform="scale(0.015625)"/>
      </defs>
      <use xlink:href="#DejaVuSans-50"/>
      <use xlink:href="#DejaVuSans-6f" x="56.677734"/>
      <use xlink:href="#DejaVuSans-73" x="117.859375"/>
      <use xlink:href="#DejaVuSans-69" x="169.958984"/>
      <use xlink:href="#DejaVuSans-74" x="197.742188"/>
      <use xlink:href="#DejaVuSans-69" x="236.951172"/>
      <use xlink:href="#DejaVuSans-76" x="264.734375"/>
      <use xlink:href="#DejaVuSans-65" x="323.914062"/>
      <use xlink:href="#DejaVuSans-20" x="385.4375"/>
      <use xlink:href="#DejaVuSans-70" x="417.224609"/>
      <use xlink:href="#DejaVuSans-72" x="480.701172"/>
      <use xlink:href="#DejaVuSans-65" x="519.564453"/>
      <use xlink:href="#DejaVuSans-64" x="581.087891"/>
      <use xlink:href="#DejaVuSans-69" x="644.564453"/>
      <use xlink:href="#DejaVuSans-63" x="672.347656"/>
      <use xlink:href="#DejaVuSans-74" x="727.328125"/>
      <use xlink:href="#DejaVuSans-69" x="766.537109"/>
      <use xlink:href="#DejaVuSans-6f" x="794.320312"/>
      <use xlink:href="#DejaVuSans-6e" x="855.501953"/>
      <use xlink:href="#DejaVuSans-73" x="918.880859"/>
     </g>
    </g>
    <g id="line2d_21">
     <path d="M 66.6 234.291812 
L 76.6 234.291812 
L 86.6 234.291812 
" style="fill: none; stroke: #32cd32; stroke-opacity: 0.8; stroke-width: 0.5; stroke-linecap: square"/>
    </g>
    <g id="text_16">
     <!-- Positive predictions max -->
     <g transform="translate(94.6 237.791812) scale(0.1 -0.1)">
      <use xlink:href="#DejaVuSans-50"/>
      <use xlink:href="#DejaVuSans-6f" x="56.677734"/>
      <use xlink:href="#DejaVuSans-73" x="117.859375"/>
      <use xlink:href="#DejaVuSans-69" x="169.958984"/>
      <use xlink:href="#DejaVuSans-74" x="197.742188"/>
      <use xlink:href="#DejaVuSans-69" x="236.951172"/>
      <use xlink:href="#DejaVuSans-76" x="264.734375"/>
      <use xlink:href="#DejaVuSans-65" x="323.914062"/>
      <use xlink:href="#DejaVuSans-20" x="385.4375"/>
      <use xlink:href="#DejaVuSans-70" x="417.224609"/>
      <use xlink:href="#DejaVuSans-72" x="480.701172"/>
      <use xlink:href="#DejaVuSans-65" x="519.564453"/>
      <use xlink:href="#DejaVuSans-64" x="581.087891"/>
      <use xlink:href="#DejaVuSans-69" x="644.564453"/>
      <use xlink:href="#DejaVuSans-63" x="672.347656"/>
      <use xlink:href="#DejaVuSans-74" x="727.328125"/>
      <use xlink:href="#DejaVuSans-69" x="766.537109"/>
      <use xlink:href="#DejaVuSans-6f" x="794.320312"/>
      <use xlink:href="#DejaVuSans-6e" x="855.501953"/>
      <use xlink:href="#DejaVuSans-73" x="918.880859"/>
      <use xlink:href="#DejaVuSans-20" x="970.980469"/>
      <use xlink:href="#DejaVuSans-6d" x="1002.767578"/>
      <use xlink:href="#DejaVuSans-61" x="1100.179688"/>
      <use xlink:href="#DejaVuSans-78" x="1161.458984"/>
     </g>
    </g>
    <g id="line2d_22">
     <path d="M 66.6 248.969937 
L 76.6 248.969937 
L 86.6 248.969937 
" style="fill: none; stroke: #32cd32; stroke-opacity: 0.8; stroke-width: 0.5; stroke-linecap: square"/>
    </g>
    <g id="text_17">
     <!-- Positive predictions min -->
     <g transform="translate(94.6 252.469937) scale(0.1 -0.1)">
      <use xlink:href="#DejaVuSans-50"/>
      <use xlink:href="#DejaVuSans-6f" x="56.677734"/>
      <use xlink:href="#DejaVuSans-73" x="117.859375"/>
      <use xlink:href="#DejaVuSans-69" x="169.958984"/>
      <use xlink:href="#DejaVuSans-74" x="197.742188"/>
      <use xlink:href="#DejaVuSans-69" x="236.951172"/>
      <use xlink:href="#DejaVuSans-76" x="264.734375"/>
      <use xlink:href="#DejaVuSans-65" x="323.914062"/>
      <use xlink:href="#DejaVuSans-20" x="385.4375"/>
      <use xlink:href="#DejaVuSans-70" x="417.224609"/>
      <use xlink:href="#DejaVuSans-72" x="480.701172"/>
      <use xlink:href="#DejaVuSans-65" x="519.564453"/>
      <use xlink:href="#DejaVuSans-64" x="581.087891"/>
      <use xlink:href="#DejaVuSans-69" x="644.564453"/>
      <use xlink:href="#DejaVuSans-63" x="672.347656"/>
      <use xlink:href="#DejaVuSans-74" x="727.328125"/>
      <use xlink:href="#DejaVuSans-69" x="766.537109"/>
      <use xlink:href="#DejaVuSans-6f" x="794.320312"/>
      <use xlink:href="#DejaVuSans-6e" x="855.501953"/>
      <use xlink:href="#DejaVuSans-73" x="918.880859"/>
      <use xlink:href="#DejaVuSans-20" x="970.980469"/>
      <use xlink:href="#DejaVuSans-6d" x="1002.767578"/>
      <use xlink:href="#DejaVuSans-69" x="1100.179688"/>
      <use xlink:href="#DejaVuSans-6e" x="1127.962891"/>
     </g>
    </g>
    <g id="line2d_23">
     <path d="M 66.6 263.648062 
L 76.6 263.648062 
L 86.6 263.648062 
" style="fill: none; stroke: #ff0000; stroke-opacity: 0.8; stroke-width: 0.5; stroke-linecap: square"/>
    </g>
    <g id="text_18">
     <!-- Negative predictions -->
     <g transform="translate(94.6 267.148062) scale(0.1 -0.1)">
      <defs>
       <path id="DejaVuSans-4e" d="M 628 4666 
L 1478 4666 
L 3547 763 
L 3547 4666 
L 4159 4666 
L 4159 0 
L 3309 0 
L 1241 3903 
L 1241 0 
L 628 0 
L 628 4666 
z
" transform="scale(0.015625)"/>
       <path id="DejaVuSans-67" d="M 2906 1791 
Q 2906 2416 2648 2759 
Q 2391 3103 1925 3103 
Q 1463 3103 1205 2759 
Q 947 2416 947 1791 
Q 947 1169 1205 825 
Q 1463 481 1925 481 
Q 2391 481 2648 825 
Q 2906 1169 2906 1791 
z
M 3481 434 
Q 3481 -459 3084 -895 
Q 2688 -1331 1869 -1331 
Q 1566 -1331 1297 -1286 
Q 1028 -1241 775 -1147 
L 775 -588 
Q 1028 -725 1275 -790 
Q 1522 -856 1778 -856 
Q 2344 -856 2625 -561 
Q 2906 -266 2906 331 
L 2906 616 
Q 2728 306 2450 153 
Q 2172 0 1784 0 
Q 1141 0 747 490 
Q 353 981 353 1791 
Q 353 2603 747 3093 
Q 1141 3584 1784 3584 
Q 2172 3584 2450 3431 
Q 2728 3278 2906 2969 
L 2906 3500 
L 3481 3500 
L 3481 434 
z
" transform="scale(0.015625)"/>
      </defs>
      <use xlink:href="#DejaVuSans-4e"/>
      <use xlink:href="#DejaVuSans-65" x="74.804688"/>
      <use xlink:href="#DejaVuSans-67" x="136.328125"/>
      <use xlink:href="#DejaVuSans-61" x="199.804688"/>
      <use xlink:href="#DejaVuSans-74" x="261.083984"/>
      <use xlink:href="#DejaVuSans-69" x="300.292969"/>
      <use xlink:href="#DejaVuSans-76" x="328.076172"/>
      <use xlink:href="#DejaVuSans-65" x="387.255859"/>
      <use xlink:href="#DejaVuSans-20" x="448.779297"/>
      <use xlink:href="#DejaVuSans-70" x="480.566406"/>
      <use xlink:href="#DejaVuSans-72" x="544.042969"/>
      <use xlink:href="#DejaVuSans-65" x="582.90625"/>
      <use xlink:href="#DejaVuSans-64" x="644.429688"/>
      <use xlink:href="#DejaVuSans-69" x="707.90625"/>
      <use xlink:href="#DejaVuSans-63" x="735.689453"/>
      <use xlink:href="#DejaVuSans-74" x="790.669922"/>
      <use xlink:href="#DejaVuSans-69" x="829.878906"/>
      <use xlink:href="#DejaVuSans-6f" x="857.662109"/>
      <use xlink:href="#DejaVuSans-6e" x="918.84375"/>
      <use xlink:href="#DejaVuSans-73" x="982.222656"/>
     </g>
    </g>
    <g id="line2d_24">
     <path d="M 66.6 278.326188 
L 76.6 278.326188 
L 86.6 278.326188 
" style="fill: none; stroke: #f08080; stroke-opacity: 0.8; stroke-width: 0.5; stroke-linecap: square"/>
    </g>
    <g id="text_19">
     <!-- Negative predictions max -->
     <g transform="translate(94.6 281.826188) scale(0.1 -0.1)">
      <use xlink:href="#DejaVuSans-4e"/>
      <use xlink:href="#DejaVuSans-65" x="74.804688"/>
      <use xlink:href="#DejaVuSans-67" x="136.328125"/>
      <use xlink:href="#DejaVuSans-61" x="199.804688"/>
      <use xlink:href="#DejaVuSans-74" x="261.083984"/>
      <use xlink:href="#DejaVuSans-69" x="300.292969"/>
      <use xlink:href="#DejaVuSans-76" x="328.076172"/>
      <use xlink:href="#DejaVuSans-65" x="387.255859"/>
      <use xlink:href="#DejaVuSans-20" x="448.779297"/>
      <use xlink:href="#DejaVuSans-70" x="480.566406"/>
      <use xlink:href="#DejaVuSans-72" x="544.042969"/>
      <use xlink:href="#DejaVuSans-65" x="582.90625"/>
      <use xlink:href="#DejaVuSans-64" x="644.429688"/>
      <use xlink:href="#DejaVuSans-69" x="707.90625"/>
      <use xlink:href="#DejaVuSans-63" x="735.689453"/>
      <use xlink:href="#DejaVuSans-74" x="790.669922"/>
      <use xlink:href="#DejaVuSans-69" x="829.878906"/>
      <use xlink:href="#DejaVuSans-6f" x="857.662109"/>
      <use xlink:href="#DejaVuSans-6e" x="918.84375"/>
      <use xlink:href="#DejaVuSans-73" x="982.222656"/>
      <use xlink:href="#DejaVuSans-20" x="1034.322266"/>
      <use xlink:href="#DejaVuSans-6d" x="1066.109375"/>
      <use xlink:href="#DejaVuSans-61" x="1163.521484"/>
      <use xlink:href="#DejaVuSans-78" x="1224.800781"/>
     </g>
    </g>
    <g id="line2d_25">
     <path d="M 66.6 293.004312 
L 76.6 293.004312 
L 86.6 293.004312 
" style="fill: none; stroke: #f08080; stroke-opacity: 0.8; stroke-width: 0.5; stroke-linecap: square"/>
    </g>
    <g id="text_20">
     <!-- Negative predictions min -->
     <g transform="translate(94.6 296.504312) scale(0.1 -0.1)">
      <use xlink:href="#DejaVuSans-4e"/>
      <use xlink:href="#DejaVuSans-65" x="74.804688"/>
      <use xlink:href="#DejaVuSans-67" x="136.328125"/>
      <use xlink:href="#DejaVuSans-61" x="199.804688"/>
      <use xlink:href="#DejaVuSans-74" x="261.083984"/>
      <use xlink:href="#DejaVuSans-69" x="300.292969"/>
      <use xlink:href="#DejaVuSans-76" x="328.076172"/>
      <use xlink:href="#DejaVuSans-65" x="387.255859"/>
      <use xlink:href="#DejaVuSans-20" x="448.779297"/>
      <use xlink:href="#DejaVuSans-70" x="480.566406"/>
      <use xlink:href="#DejaVuSans-72" x="544.042969"/>
      <use xlink:href="#DejaVuSans-65" x="582.90625"/>
      <use xlink:href="#DejaVuSans-64" x="644.429688"/>
      <use xlink:href="#DejaVuSans-69" x="707.90625"/>
      <use xlink:href="#DejaVuSans-63" x="735.689453"/>
      <use xlink:href="#DejaVuSans-74" x="790.669922"/>
      <use xlink:href="#DejaVuSans-69" x="829.878906"/>
      <use xlink:href="#DejaVuSans-6f" x="857.662109"/>
      <use xlink:href="#DejaVuSans-6e" x="918.84375"/>
      <use xlink:href="#DejaVuSans-73" x="982.222656"/>
      <use xlink:href="#DejaVuSans-20" x="1034.322266"/>
      <use xlink:href="#DejaVuSans-6d" x="1066.109375"/>
      <use xlink:href="#DejaVuSans-69" x="1163.521484"/>
      <use xlink:href="#DejaVuSans-6e" x="1191.304688"/>
     </g>
    </g>
   </g>
  </g>
 </g>
 <defs>
  <clipPath id="pa181fda77c">
   <rect x="57.6" y="41.472" width="357.12" height="266.112"/>
  </clipPath>
 </defs>
</svg>
