<?xml version="1.0" encoding="utf-8" standalone="no"?>
<!DOCTYPE svg PUBLIC "-//W3C//DTD SVG 1.1//EN"
  "http://www.w3.org/Graphics/SVG/1.1/DTD/svg11.dtd">
<svg xmlns:xlink="http://www.w3.org/1999/xlink" width="460.8pt" height="345.6pt" viewBox="0 0 460.8 345.6" xmlns="http://www.w3.org/2000/svg" version="1.1">
 <metadata>
  <rdf:RDF xmlns:dc="http://purl.org/dc/elements/1.1/" xmlns:cc="http://creativecommons.org/ns#" xmlns:rdf="http://www.w3.org/1999/02/22-rdf-syntax-ns#">
   <cc:Work>
    <dc:type rdf:resource="http://purl.org/dc/dcmitype/StillImage"/>
    <dc:date>2024-05-30T09:56:19.965183</dc:date>
    <dc:format>image/svg+xml</dc:format>
    <dc:creator>
     <cc:Agent>
      <dc:title>Matplotlib v3.9.0, https://matplotlib.org/</dc:title>
     </cc:Agent>
    </dc:creator>
   </cc:Work>
  </rdf:RDF>
 </metadata>
 <defs>
  <style type="text/css">*{stroke-linejoin: round; stroke-linecap: butt}</style>
 </defs>
 <g id="figure_1">
  <g id="patch_1">
   <path d="M 0 345.6 
L 460.8 345.6 
L 460.8 0 
L 0 0 
z
" style="fill: #ffffff"/>
  </g>
  <g id="axes_1">
   <g id="patch_2">
    <path d="M 57.6 307.584 
L 414.72 307.584 
L 414.72 41.472 
L 57.6 41.472 
z
" style="fill: #ffffff"/>
   </g>
   <g id="matplotlib.axis_1">
    <g id="xtick_1">
     <g id="line2d_1">
      <defs>
       <path id="md0f9363687" d="M 0 0 
L 0 3.5 
" style="stroke: #000000; stroke-width: 0.8"/>
      </defs>
      <g>
       <use xlink:href="#md0f9363687" x="73.832727" y="307.584" style="stroke: #000000; stroke-width: 0.8"/>
      </g>
     </g>
     <g id="text_1">
      <!-- 0 -->
      <g transform="translate(70.651477 322.182437) scale(0.1 -0.1)">
       <defs>
        <path id="DejaVuSans-30" d="M 2034 4250 
Q 1547 4250 1301 3770 
Q 1056 3291 1056 2328 
Q 1056 1369 1301 889 
Q 1547 409 2034 409 
Q 2525 409 2770 889 
Q 3016 1369 3016 2328 
Q 3016 3291 2770 3770 
Q 2525 4250 2034 4250 
z
M 2034 4750 
Q 2819 4750 3233 4129 
Q 3647 3509 3647 2328 
Q 3647 1150 3233 529 
Q 2819 -91 2034 -91 
Q 1250 -91 836 529 
Q 422 1150 422 2328 
Q 422 3509 836 4129 
Q 1250 4750 2034 4750 
z
" transform="scale(0.015625)"/>
       </defs>
       <use xlink:href="#DejaVuSans-30"/>
      </g>
     </g>
    </g>
    <g id="xtick_2">
     <g id="line2d_2">
      <g>
       <use xlink:href="#md0f9363687" x="149.019051" y="307.584" style="stroke: #000000; stroke-width: 0.8"/>
      </g>
     </g>
     <g id="text_2">
      <!-- 500 -->
      <g transform="translate(139.475301 322.182437) scale(0.1 -0.1)">
       <defs>
        <path id="DejaVuSans-35" d="M 691 4666 
L 3169 4666 
L 3169 4134 
L 1269 4134 
L 1269 2991 
Q 1406 3038 1543 3061 
Q 1681 3084 1819 3084 
Q 2600 3084 3056 2656 
Q 3513 2228 3513 1497 
Q 3513 744 3044 326 
Q 2575 -91 1722 -91 
Q 1428 -91 1123 -41 
Q 819 9 494 109 
L 494 744 
Q 775 591 1075 516 
Q 1375 441 1709 441 
Q 2250 441 2565 725 
Q 2881 1009 2881 1497 
Q 2881 1984 2565 2268 
Q 2250 2553 1709 2553 
Q 1456 2553 1204 2497 
Q 953 2441 691 2322 
L 691 4666 
z
" transform="scale(0.015625)"/>
       </defs>
       <use xlink:href="#DejaVuSans-35"/>
       <use xlink:href="#DejaVuSans-30" x="63.623047"/>
       <use xlink:href="#DejaVuSans-30" x="127.246094"/>
      </g>
     </g>
    </g>
    <g id="xtick_3">
     <g id="line2d_3">
      <g>
       <use xlink:href="#md0f9363687" x="224.205375" y="307.584" style="stroke: #000000; stroke-width: 0.8"/>
      </g>
     </g>
     <g id="text_3">
      <!-- 1000 -->
      <g transform="translate(211.480375 322.182437) scale(0.1 -0.1)">
       <defs>
        <path id="DejaVuSans-31" d="M 794 531 
L 1825 531 
L 1825 4091 
L 703 3866 
L 703 4441 
L 1819 4666 
L 2450 4666 
L 2450 531 
L 3481 531 
L 3481 0 
L 794 0 
L 794 531 
z
" transform="scale(0.015625)"/>
       </defs>
       <use xlink:href="#DejaVuSans-31"/>
       <use xlink:href="#DejaVuSans-30" x="63.623047"/>
       <use xlink:href="#DejaVuSans-30" x="127.246094"/>
       <use xlink:href="#DejaVuSans-30" x="190.869141"/>
      </g>
     </g>
    </g>
    <g id="xtick_4">
     <g id="line2d_4">
      <g>
       <use xlink:href="#md0f9363687" x="299.391698" y="307.584" style="stroke: #000000; stroke-width: 0.8"/>
      </g>
     </g>
     <g id="text_4">
      <!-- 1500 -->
      <g transform="translate(286.666698 322.182437) scale(0.1 -0.1)">
       <use xlink:href="#DejaVuSans-31"/>
       <use xlink:href="#DejaVuSans-35" x="63.623047"/>
       <use xlink:href="#DejaVuSans-30" x="127.246094"/>
       <use xlink:href="#DejaVuSans-30" x="190.869141"/>
      </g>
     </g>
    </g>
    <g id="xtick_5">
     <g id="line2d_5">
      <g>
       <use xlink:href="#md0f9363687" x="374.578022" y="307.584" style="stroke: #000000; stroke-width: 0.8"/>
      </g>
     </g>
     <g id="text_5">
      <!-- 2000 -->
      <g transform="translate(361.853022 322.182437) scale(0.1 -0.1)">
       <defs>
        <path id="DejaVuSans-32" d="M 1228 531 
L 3431 531 
L 3431 0 
L 469 0 
L 469 531 
Q 828 903 1448 1529 
Q 2069 2156 2228 2338 
Q 2531 2678 2651 2914 
Q 2772 3150 2772 3378 
Q 2772 3750 2511 3984 
Q 2250 4219 1831 4219 
Q 1534 4219 1204 4116 
Q 875 4013 500 3803 
L 500 4441 
Q 881 4594 1212 4672 
Q 1544 4750 1819 4750 
Q 2544 4750 2975 4387 
Q 3406 4025 3406 3419 
Q 3406 3131 3298 2873 
Q 3191 2616 2906 2266 
Q 2828 2175 2409 1742 
Q 1991 1309 1228 531 
z
" transform="scale(0.015625)"/>
       </defs>
       <use xlink:href="#DejaVuSans-32"/>
       <use xlink:href="#DejaVuSans-30" x="63.623047"/>
       <use xlink:href="#DejaVuSans-30" x="127.246094"/>
       <use xlink:href="#DejaVuSans-30" x="190.869141"/>
      </g>
     </g>
    </g>
   </g>
   <g id="matplotlib.axis_2">
    <g id="ytick_1">
     <g id="line2d_6">
      <defs>
       <path id="m827c60c006" d="M 0 0 
L -3.5 0 
" style="stroke: #000000; stroke-width: 0.8"/>
      </defs>
      <g>
       <use xlink:href="#m827c60c006" x="57.6" y="282.564431" style="stroke: #000000; stroke-width: 0.8"/>
      </g>
     </g>
     <g id="text_6">
      <!-- −1.5 -->
      <g transform="translate(26.317187 286.36365) scale(0.1 -0.1)">
       <defs>
        <path id="DejaVuSans-2212" d="M 678 2272 
L 4684 2272 
L 4684 1741 
L 678 1741 
L 678 2272 
z
" transform="scale(0.015625)"/>
        <path id="DejaVuSans-2e" d="M 684 794 
L 1344 794 
L 1344 0 
L 684 0 
L 684 794 
z
" transform="scale(0.015625)"/>
       </defs>
       <use xlink:href="#DejaVuSans-2212"/>
       <use xlink:href="#DejaVuSans-31" x="83.789062"/>
       <use xlink:href="#DejaVuSans-2e" x="147.412109"/>
       <use xlink:href="#DejaVuSans-35" x="179.199219"/>
      </g>
     </g>
    </g>
    <g id="ytick_2">
     <g id="line2d_7">
      <g>
       <use xlink:href="#m827c60c006" x="57.6" y="242.595231" style="stroke: #000000; stroke-width: 0.8"/>
      </g>
     </g>
     <g id="text_7">
      <!-- −1.0 -->
      <g transform="translate(26.317187 246.394449) scale(0.1 -0.1)">
       <use xlink:href="#DejaVuSans-2212"/>
       <use xlink:href="#DejaVuSans-31" x="83.789062"/>
       <use xlink:href="#DejaVuSans-2e" x="147.412109"/>
       <use xlink:href="#DejaVuSans-30" x="179.199219"/>
      </g>
     </g>
    </g>
    <g id="ytick_3">
     <g id="line2d_8">
      <g>
       <use xlink:href="#m827c60c006" x="57.6" y="202.62603" style="stroke: #000000; stroke-width: 0.8"/>
      </g>
     </g>
     <g id="text_8">
      <!-- −0.5 -->
      <g transform="translate(26.317187 206.425249) scale(0.1 -0.1)">
       <use xlink:href="#DejaVuSans-2212"/>
       <use xlink:href="#DejaVuSans-30" x="83.789062"/>
       <use xlink:href="#DejaVuSans-2e" x="147.412109"/>
       <use xlink:href="#DejaVuSans-35" x="179.199219"/>
      </g>
     </g>
    </g>
    <g id="ytick_4">
     <g id="line2d_9">
      <g>
       <use xlink:href="#m827c60c006" x="57.6" y="162.656829" style="stroke: #000000; stroke-width: 0.8"/>
      </g>
     </g>
     <g id="text_9">
      <!-- 0.0 -->
      <g transform="translate(34.696875 166.456048) scale(0.1 -0.1)">
       <use xlink:href="#DejaVuSans-30"/>
       <use xlink:href="#DejaVuSans-2e" x="63.623047"/>
       <use xlink:href="#DejaVuSans-30" x="95.410156"/>
      </g>
     </g>
    </g>
    <g id="ytick_5">
     <g id="line2d_10">
      <g>
       <use xlink:href="#m827c60c006" x="57.6" y="122.687628" style="stroke: #000000; stroke-width: 0.8"/>
      </g>
     </g>
     <g id="text_10">
      <!-- 0.5 -->
      <g transform="translate(34.696875 126.486847) scale(0.1 -0.1)">
       <use xlink:href="#DejaVuSans-30"/>
       <use xlink:href="#DejaVuSans-2e" x="63.623047"/>
       <use xlink:href="#DejaVuSans-35" x="95.410156"/>
      </g>
     </g>
    </g>
    <g id="ytick_6">
     <g id="line2d_11">
      <g>
       <use xlink:href="#m827c60c006" x="57.6" y="82.718427" style="stroke: #000000; stroke-width: 0.8"/>
      </g>
     </g>
     <g id="text_11">
      <!-- 1.0 -->
      <g transform="translate(34.696875 86.517646) scale(0.1 -0.1)">
       <use xlink:href="#DejaVuSans-31"/>
       <use xlink:href="#DejaVuSans-2e" x="63.623047"/>
       <use xlink:href="#DejaVuSans-30" x="95.410156"/>
      </g>
     </g>
    </g>
    <g id="ytick_7">
     <g id="line2d_12">
      <g>
       <use xlink:href="#m827c60c006" x="57.6" y="42.749227" style="stroke: #000000; stroke-width: 0.8"/>
      </g>
     </g>
     <g id="text_12">
      <!-- 1.5 -->
      <g transform="translate(34.696875 46.548445) scale(0.1 -0.1)">
       <use xlink:href="#DejaVuSans-31"/>
       <use xlink:href="#DejaVuSans-2e" x="63.623047"/>
       <use xlink:href="#DejaVuSans-35" x="95.410156"/>
      </g>
     </g>
    </g>
    <g id="text_13">
     <!-- 1e6 -->
     <g transform="translate(57.6 38.472) scale(0.1 -0.1)">
      <defs>
       <path id="DejaVuSans-65" d="M 3597 1894 
L 3597 1613 
L 953 1613 
Q 991 1019 1311 708 
Q 1631 397 2203 397 
Q 2534 397 2845 478 
Q 3156 559 3463 722 
L 3463 178 
Q 3153 47 2828 -22 
Q 2503 -91 2169 -91 
Q 1331 -91 842 396 
Q 353 884 353 1716 
Q 353 2575 817 3079 
Q 1281 3584 2069 3584 
Q 2775 3584 3186 3129 
Q 3597 2675 3597 1894 
z
M 3022 2063 
Q 3016 2534 2758 2815 
Q 2500 3097 2075 3097 
Q 1594 3097 1305 2825 
Q 1016 2553 972 2059 
L 3022 2063 
z
" transform="scale(0.015625)"/>
       <path id="DejaVuSans-36" d="M 2113 2584 
Q 1688 2584 1439 2293 
Q 1191 2003 1191 1497 
Q 1191 994 1439 701 
Q 1688 409 2113 409 
Q 2538 409 2786 701 
Q 3034 994 3034 1497 
Q 3034 2003 2786 2293 
Q 2538 2584 2113 2584 
z
M 3366 4563 
L 3366 3988 
Q 3128 4100 2886 4159 
Q 2644 4219 2406 4219 
Q 1781 4219 1451 3797 
Q 1122 3375 1075 2522 
Q 1259 2794 1537 2939 
Q 1816 3084 2150 3084 
Q 2853 3084 3261 2657 
Q 3669 2231 3669 1497 
Q 3669 778 3244 343 
Q 2819 -91 2113 -91 
Q 1303 -91 875 529 
Q 447 1150 447 2328 
Q 447 3434 972 4092 
Q 1497 4750 2381 4750 
Q 2619 4750 2861 4703 
Q 3103 4656 3366 4563 
z
" transform="scale(0.015625)"/>
      </defs>
      <use xlink:href="#DejaVuSans-31"/>
      <use xlink:href="#DejaVuSans-65" x="63.623047"/>
      <use xlink:href="#DejaVuSans-36" x="125.146484"/>
     </g>
    </g>
   </g>
   <g id="line2d_13">
    <path d="M 73.832727 162.761141 
L 74.133473 162.776957 
L 74.283845 162.86004 
L 74.584591 162.782259 
L 75.035708 163.14406 
L 75.637199 163.355778 
L 75.937944 163.473134 
L 76.389062 163.849468 
L 76.689808 163.964431 
L 76.990553 164.083141 
L 77.592043 164.182468 
L 78.043161 164.3699 
L 79.396515 164.881193 
L 79.546888 164.881931 
L 79.847633 165.002693 
L 81.050614 165.338193 
L 81.802478 165.475594 
L 82.554341 165.498545 
L 83.456577 165.685997 
L 84.358813 165.830009 
L 84.659558 165.915032 
L 87.967756 166.875225 
L 88.418874 166.934991 
L 90.223346 167.134937 
L 91.426327 167.213999 
L 92.17819 167.350439 
L 99.847195 168.304251 
L 100.147941 168.39683 
L 101.651667 168.501269 
L 102.854648 168.673635 
L 110.222908 169.749345 
L 111.425889 170.170859 
L 113.982224 170.773817 
L 114.734087 171.036303 
L 115.185205 171.128129 
L 116.237814 171.533431 
L 118.493404 171.736632 
L 119.696385 172.004524 
L 123.606074 172.59441 
L 125.1098 172.836037 
L 127.215017 173.007916 
L 129.320234 173.222266 
L 130.372843 173.437596 
L 131.275079 173.563626 
L 132.177314 173.683914 
L 132.778805 173.726326 
L 134.432904 173.93294 
L 135.184767 174.206474 
L 136.237376 174.580648 
L 136.538121 174.658 
L 139.244829 175.686686 
L 140.297437 175.918601 
L 141.350046 176.266373 
L 143.455263 176.715221 
L 144.658244 177.107699 
L 147.064206 177.610283 
L 147.364952 177.575297 
L 147.966442 177.704786 
L 148.567933 177.814268 
L 149.019051 177.991611 
L 149.620541 178.226155 
L 149.921287 178.344177 
L 150.67315 178.770929 
L 150.823523 178.650635 
L 150.973895 178.895083 
L 151.425013 178.900713 
L 152.026504 179.077752 
L 152.778367 179.277204 
L 152.92874 179.246784 
L 153.229485 179.361826 
L 153.379858 179.304853 
L 153.53023 179.446772 
L 153.680603 179.395812 
L 154.131721 179.647409 
L 154.733212 179.719186 
L 156.537683 180.089179 
L 156.838429 180.184119 
L 157.289547 180.321395 
L 157.590292 180.34322 
L 158.342155 180.450477 
L 162.552589 180.967354 
L 164.507434 181.061825 
L 165.108924 181.245351 
L 167.214141 181.605296 
L 168.116377 181.656437 
L 169.770476 181.989394 
L 172.627557 182.15423 
L 173.680165 182.234876 
L 174.281656 182.312912 
L 176.837991 182.449457 
L 177.138736 182.538306 
L 179.695071 182.771127 
L 180.446934 182.887336 
L 181.950661 183.043109 
L 189.018175 183.857176 
L 189.31892 183.859423 
L 189.619666 183.924521 
L 189.770038 183.709406 
L 190.070784 184.056665 
L 190.822647 184.654918 
L 191.424137 184.944312 
L 192.025628 185.254655 
L 192.627119 185.337596 
L 193.228609 185.58931 
L 194.130845 185.837872 
L 195.333826 186.015559 
L 196.386435 186.178902 
L 197.589416 186.652246 
L 198.040534 186.714896 
L 198.341279 186.844852 
L 198.94277 186.897048 
L 199.393888 186.97293 
L 200.145751 187.072391 
L 200.747242 187.107976 
L 201.649477 187.283583 
L 202.250968 187.385527 
L 203.303577 187.527175 
L 203.604322 187.550463 
L 207.514011 187.846899 
L 209.619228 187.932796 
L 210.220718 188.001713 
L 210.521464 188.115725 
L 211.724445 188.346035 
L 212.02519 188.451065 
L 215.183016 188.924789 
L 216.085252 188.937315 
L 216.385997 189.06075 
L 217.13786 189.259921 
L 218.491214 189.612229 
L 224.055002 190.180078 
L 224.806865 190.301987 
L 225.408356 190.381076 
L 225.709101 190.514946 
L 225.859474 190.457538 
L 226.160219 190.559367 
L 227.062455 190.685145 
L 228.115063 191.115135 
L 229.017299 191.336678 
L 230.22028 191.732603 
L 230.671398 191.813901 
L 230.972144 191.84616 
L 231.423262 192.010416 
L 231.573634 192.05637 
L 232.024752 192.417344 
L 232.325497 192.474574 
L 232.47587 192.452057 
L 232.776615 192.583624 
L 234.73146 193.777747 
L 235.182578 194.361253 
L 235.784068 194.236982 
L 236.084814 194.862723 
L 236.235186 194.748972 
L 236.686304 195.132939 
L 236.98705 195.214324 
L 237.137422 194.928628 
L 237.287795 195.480372 
L 237.438168 195.506981 
L 237.889285 196.067042 
L 238.039658 196.003701 
L 238.340403 196.605201 
L 238.941894 197.042384 
L 239.092267 197.324022 
L 239.393012 197.505988 
L 239.693757 197.807093 
L 239.84413 198.419069 
L 239.994503 198.458085 
L 240.144875 198.347114 
L 240.295248 198.711159 
L 240.595993 198.699369 
L 240.746366 198.86034 
L 240.896738 198.815816 
L 241.798974 199.749246 
L 242.09972 199.333257 
L 242.400465 199.97357 
L 242.851583 200.585996 
L 243.001955 201.19256 
L 243.152328 201.292766 
L 243.453073 201.658824 
L 243.904191 202.304959 
L 244.505682 203.601591 
L 244.656055 203.695965 
L 244.806427 204.046417 
L 245.107173 203.805216 
L 245.407918 204.413349 
L 245.55829 204.343949 
L 245.859036 204.482148 
L 246.009408 204.498538 
L 246.159781 204.322349 
L 246.310154 204.578478 
L 246.460526 204.532718 
L 246.610899 204.604229 
L 246.761272 204.999967 
L 247.062017 205.180924 
L 247.362762 205.61491 
L 247.663508 205.828926 
L 247.81388 205.912339 
L 247.964253 205.816464 
L 248.264998 206.100028 
L 248.565743 205.987885 
L 248.716116 206.341088 
L 248.866489 206.329517 
L 249.768725 207.174703 
L 249.919097 207.043084 
L 250.06947 207.111212 
L 250.219843 206.859203 
L 250.520588 207.4351 
L 250.821333 207.375928 
L 251.272451 207.640391 
L 251.573196 208.411639 
L 251.873942 208.526008 
L 252.174687 209.106177 
L 252.475432 209.29197 
L 252.625805 209.100305 
L 252.776178 209.736393 
L 253.076923 209.978893 
L 253.377668 210.302872 
L 253.528041 210.158898 
L 253.678413 210.416084 
L 253.828786 209.873288 
L 254.129531 210.814821 
L 254.279904 210.860746 
L 254.731022 211.462307 
L 254.881395 211.131871 
L 255.031767 211.906255 
L 255.332513 212.361247 
L 255.482885 212.581077 
L 255.934003 213.882981 
L 256.986612 215.262531 
L 257.136984 215.568322 
L 257.287357 215.507556 
L 257.888848 215.838351 
L 258.339965 216.842097 
L 258.490338 216.964249 
L 258.941456 217.935473 
L 259.242201 218.17285 
L 259.392574 218.085727 
L 259.693319 218.357207 
L 259.843692 218.098484 
L 260.144437 218.711152 
L 260.29481 218.838881 
L 260.445183 218.745133 
L 261.046673 219.755578 
L 261.497791 219.842067 
L 262.249654 220.546808 
L 262.400027 220.545438 
L 262.700772 220.980614 
L 263.001518 221.362481 
L 263.903753 221.61339 
L 264.204499 221.553108 
L 265.858598 224.421885 
L 266.00897 224.338593 
L 266.460088 224.657241 
L 266.760834 225.042106 
L 267.061579 225.658074 
L 267.362324 226.147989 
L 267.512697 226.211058 
L 267.66307 226.148749 
L 267.963815 226.713721 
L 268.26456 226.711889 
L 268.414933 226.690577 
L 268.715678 227.050872 
L 269.166796 227.562953 
L 269.317169 227.734166 
L 269.467541 227.706102 
L 269.617914 227.953488 
L 269.768287 227.815523 
L 270.069032 228.287803 
L 270.52015 228.383213 
L 271.422386 229.581418 
L 271.572758 229.334855 
L 271.873504 230.028223 
L 272.023876 230.074043 
L 272.324622 230.648142 
L 272.474994 230.683111 
L 273.076485 231.51551 
L 273.37723 231.735523 
L 273.527603 231.46387 
L 273.677975 231.645034 
L 273.978721 232.341558 
L 274.129093 232.317042 
L 274.429839 232.597896 
L 274.730584 232.546815 
L 274.880957 232.685189 
L 275.332075 233.470856 
L 275.482447 233.542314 
L 275.783193 234.12694 
L 275.933565 234.650135 
L 276.083938 234.654296 
L 277.136546 235.613874 
L 277.437292 236.184071 
L 277.88841 236.644992 
L 278.038782 237.039526 
L 278.189155 236.957452 
L 278.941018 237.717495 
L 279.091391 237.781016 
L 279.392136 238.327011 
L 279.843254 238.518151 
L 280.143999 238.891766 
L 280.294372 238.790927 
L 280.74549 239.174281 
L 281.046235 239.6416 
L 281.196608 239.531158 
L 281.647726 239.838692 
L 281.798098 239.983886 
L 282.098844 239.741537 
L 282.249216 240.029586 
L 282.399589 239.967787 
L 282.700334 240.694541 
L 282.850707 240.76023 
L 283.00108 240.642364 
L 283.301825 241.003932 
L 283.452198 241.186424 
L 283.60257 241.041362 
L 284.053688 241.954633 
L 284.504806 242.217838 
L 284.805551 241.92642 
L 285.106297 242.557467 
L 285.707787 242.987209 
L 286.008533 243.615182 
L 286.158905 243.533855 
L 286.459651 244.114444 
L 286.760396 244.02949 
L 287.361886 244.601549 
L 287.512259 244.586621 
L 287.813004 244.977499 
L 288.264122 245.274411 
L 288.414495 245.142833 
L 289.316731 245.983793 
L 289.467103 246.009898 
L 289.617476 245.881617 
L 289.767849 246.035138 
L 289.918221 246.016376 
L 290.670085 246.735247 
L 290.820457 246.62875 
L 291.271575 246.92564 
L 291.572321 247.026789 
L 291.722693 247.132799 
L 291.873066 247.098217 
L 292.023438 246.845676 
L 292.925674 248.007527 
L 293.677538 248.662462 
L 293.82791 248.624217 
L 293.978283 248.783447 
L 294.279028 249.293544 
L 294.880519 249.772285 
L 295.482009 249.905089 
L 295.933127 250.254513 
L 296.0835 250.029846 
L 296.384245 250.427414 
L 296.684991 250.421323 
L 296.835363 250.639889 
L 296.985736 250.609719 
L 297.587226 251.103392 
L 297.887972 251.868223 
L 298.038344 251.929048 
L 298.33909 251.698532 
L 298.489462 251.984485 
L 298.639835 252.028052 
L 298.94058 252.381808 
L 299.090953 252.730576 
L 299.241326 252.546658 
L 299.542071 252.834915 
L 299.692443 252.832673 
L 300.143561 253.377745 
L 300.444307 253.557442 
L 300.745052 253.8049 
L 301.045797 254.01355 
L 302.098406 255.135712 
L 302.248778 255.187252 
L 302.399151 255.097647 
L 302.699896 255.322896 
L 303.151014 255.436594 
L 303.301387 255.334067 
L 303.602132 255.584926 
L 303.902878 255.799179 
L 304.05325 255.690812 
L 304.353996 256.120149 
L 304.654741 256.302967 
L 305.556977 256.866531 
L 306.008095 256.96527 
L 306.158467 257.082403 
L 306.30884 256.909925 
L 306.609585 257.278106 
L 308.113312 257.932196 
L 308.263684 257.746769 
L 308.414057 258.105554 
L 308.56443 258.060119 
L 309.16592 258.784352 
L 309.316293 258.705974 
L 309.466666 258.866261 
L 309.617038 258.842605 
L 309.767411 259.106373 
L 310.068156 259.242295 
L 310.368901 259.455464 
L 310.820019 259.763332 
L 311.120765 259.868069 
L 311.571883 260.297253 
L 311.722255 260.227012 
L 311.872628 260.439779 
L 312.173373 260.503005 
L 312.774864 260.872932 
L 313.075609 260.899496 
L 313.376354 260.866133 
L 313.526727 260.65213 
L 313.827472 261.182812 
L 313.977845 261.119294 
L 315.030453 262.237499 
L 315.631944 262.624652 
L 316.53418 262.889435 
L 317.135671 263.260961 
L 318.338652 263.635745 
L 319.39126 264.193412 
L 319.992751 264.253895 
L 320.293496 264.582801 
L 320.894987 264.816936 
L 321.195732 264.943479 
L 321.496477 265.019618 
L 322.398713 265.397334 
L 323.000204 265.726119 
L 323.451322 265.730843 
L 323.601694 265.570974 
L 323.90244 265.891934 
L 324.353558 266.086667 
L 324.50393 266.218336 
L 324.654303 266.182469 
L 325.255794 266.438393 
L 326.609147 267.02545 
L 326.909893 267.345755 
L 327.210638 267.502249 
L 327.361011 267.373338 
L 327.661756 267.576616 
L 328.112874 267.770014 
L 328.413619 267.807671 
L 328.714364 267.941525 
L 330.067718 268.566147 
L 330.368464 268.67468 
L 330.669209 268.913194 
L 331.87219 268.997135 
L 332.172935 269.114506 
L 332.323308 269.143132 
L 332.624053 269.392763 
L 333.075171 269.426791 
L 333.977407 270.004714 
L 335.631506 270.614101 
L 335.932251 270.4286 
L 336.232997 270.922221 
L 336.98486 271.439813 
L 337.435978 271.760646 
L 338.187841 272.066316 
L 338.789332 272.255344 
L 340.744176 272.821529 
L 341.646412 273.147351 
L 342.999766 273.635814 
L 345.405728 274.835618 
L 346.157591 275.341479 
L 346.608709 275.527354 
L 346.909455 275.838531 
L 347.962063 276.505512 
L 348.262809 276.666654 
L 348.864299 276.97075 
L 349.46579 277.034615 
L 349.616162 277.136023 
L 349.766535 277.072434 
L 351.871752 278.07727 
L 352.172497 278.098944 
L 352.773988 278.256773 
L 354.127342 278.42868 
L 354.57846 278.830461 
L 354.879205 279.034597 
L 355.029578 279.118287 
L 355.330323 279.480214 
L 355.781441 279.723031 
L 355.931814 279.747126 
L 356.232559 279.922234 
L 358.337776 280.760512 
L 358.638521 280.809274 
L 358.939266 281.191214 
L 359.540757 281.46029 
L 360.442993 281.620398 
L 360.743738 281.800598 
L 361.796347 282.190417 
L 361.946719 282.101772 
L 362.247465 282.292514 
L 362.54821 282.381438 
L 362.848955 282.50636 
L 363.149701 282.546665 
L 364.352682 282.841268 
L 364.653427 282.872022 
L 367.059389 283.424497 
L 367.209762 283.342427 
L 367.360135 283.569264 
L 367.66088 283.629313 
L 369.314979 284.032465 
L 369.91647 284.683247 
L 370.217215 284.771818 
L 370.51796 284.813757 
L 371.269824 285.12173 
L 371.570569 285.343237 
L 372.472805 285.497654 
L 376.833612 286.569251 
L 377.585475 286.576352 
L 378.036593 286.569575 
L 378.186965 286.444179 
L 378.788456 286.789473 
L 380.14181 287.379696 
L 380.292182 287.3049 
L 380.7433 287.515003 
L 381.194418 287.615965 
L 381.645536 287.706587 
L 382.096654 287.799462 
L 382.698145 288.027214 
L 384.803362 288.332519 
L 385.104107 288.609021 
L 385.705598 288.736171 
L 386.156716 289.099227 
L 387.058952 289.231427 
L 387.510069 289.452887 
L 387.660442 289.49182 
L 388.713051 290.547422 
L 389.164169 290.640332 
L 390.066404 291.142298 
L 390.517522 291.216395 
L 391.269386 291.735833 
L 391.570131 291.669085 
L 391.720504 291.933493 
L 391.870876 291.87674 
L 392.321994 292.2339 
L 392.622739 292.198483 
L 392.923485 292.58486 
L 393.22423 292.771624 
L 394.427211 293.5051 
L 394.727957 293.984268 
L 395.780565 294.251309 
L 396.08131 294.493907 
L 396.532428 294.576096 
L 396.983546 294.965631 
L 397.434664 295.283786 
L 397.585037 295.246609 
L 397.735409 295.352164 
L 397.885782 295.304053 
L 398.036155 295.465144 
L 398.3369 295.429707 
L 398.487273 295.488 
L 398.487273 295.488 
" clip-path="url(#p76e6b3228e)" style="fill: none; stroke: #1f77b4; stroke-opacity: 0.7; stroke-width: 1.5; stroke-linecap: square"/>
   </g>
   <g id="line2d_14">
    <path d="M 73.832727 162.681333 
L 74.133473 162.544444 
L 74.283845 162.571636 
L 74.584591 162.352701 
L 74.734963 162.426491 
L 75.035708 162.376917 
L 76.389062 162.211281 
L 76.689808 162.084832 
L 76.990553 161.954184 
L 77.291298 161.821775 
L 77.742416 161.722948 
L 79.396515 161.320391 
L 79.847633 161.174585 
L 80.148378 161.058191 
L 80.749869 160.916653 
L 81.501732 160.85557 
L 83.005459 160.597302 
L 83.306204 160.530007 
L 84.358813 160.380645 
L 84.509185 160.443586 
L 84.960303 160.327635 
L 85.561794 160.216542 
L 85.862539 160.204842 
L 87.516638 159.9115 
L 87.967756 159.892712 
L 89.170737 159.647575 
L 98.644214 158.595611 
L 99.095332 158.59291 
L 101.651667 158.164581 
L 102.553903 158.025003 
L 105.110238 157.910508 
L 106.313219 157.855171 
L 106.91471 157.731511 
L 111.726634 157.57103 
L 112.328125 157.539516 
L 112.779243 157.522228 
L 116.087441 157.36476 
L 118.343031 157.142117 
L 118.944521 157.072664 
L 119.245267 157.071052 
L 120.147503 156.949058 
L 120.899366 156.885277 
L 126.463154 156.472907 
L 138.793711 155.944825 
L 140.297437 155.731431 
L 144.507871 155.439513 
L 144.808617 155.34378 
L 144.958989 155.375321 
L 145.410107 155.195187 
L 146.462716 155.120897 
L 146.913834 155.067369 
L 147.214579 155.014911 
L 147.665697 154.94476 
L 148.567933 154.896158 
L 150.67315 154.858432 
L 150.823523 154.613921 
L 150.973895 154.682152 
L 151.425013 154.364101 
L 152.778367 154.118987 
L 153.379858 153.864707 
L 153.53023 153.910137 
L 153.830976 153.733719 
L 153.981348 153.794194 
L 154.432466 153.629276 
L 155.184329 153.501058 
L 155.635447 153.448772 
L 157.289547 153.296544 
L 157.740664 153.192513 
L 158.342155 153.05646 
L 160.597745 152.779768 
L 161.349608 152.736354 
L 162.251844 152.60482 
L 163.003707 152.562573 
L 164.056316 152.452251 
L 164.357061 152.346488 
L 164.958552 152.289894 
L 166.462278 152.237468 
L 167.665259 152.100505 
L 169.469731 151.856411 
L 170.221594 151.612619 
L 171.424575 151.31805 
L 173.680165 150.87039 
L 174.281656 150.832997 
L 176.837991 150.62599 
L 177.138736 150.609742 
L 180.296562 150.251945 
L 180.747679 150.224318 
L 187.364076 149.425621 
L 187.965567 149.293727 
L 189.619666 149.03736 
L 189.770038 148.786607 
L 190.070784 148.740422 
L 190.822647 148.737906 
L 191.273765 148.569284 
L 191.57451 148.582916 
L 192.627119 148.402031 
L 193.980472 148.247718 
L 194.581963 148.142848 
L 196.837553 147.915335 
L 196.987925 147.979303 
L 197.439043 147.832835 
L 198.040534 147.725206 
L 198.341279 147.695265 
L 199.093142 147.561839 
L 199.995378 147.453669 
L 201.79985 147.20066 
L 201.950223 147.231747 
L 202.250968 147.097258 
L 203.303577 147.014644 
L 203.905067 146.923033 
L 210.070346 146.171322 
L 210.671836 146.128599 
L 211.574072 145.919863 
L 212.02519 145.845148 
L 213.077799 145.675416 
L 214.431152 145.516889 
L 217.438605 145.048225 
L 221.348294 144.722176 
L 224.205375 144.492703 
L 224.656492 144.361199 
L 225.709101 144.263534 
L 225.859474 144.147766 
L 226.160219 144.117341 
L 228.115063 143.742889 
L 229.167672 143.331583 
L 229.318045 143.404632 
L 229.61879 143.18782 
L 230.521026 142.958542 
L 231.573634 142.735833 
L 231.724007 142.853786 
L 232.175125 142.672436 
L 232.47587 142.388394 
L 232.626243 142.40632 
L 232.926988 142.20783 
L 233.227733 142.309962 
L 233.528479 142.112113 
L 234.129969 141.948184 
L 234.280342 142.056894 
L 234.581087 141.688185 
L 234.881832 141.845345 
L 235.182578 141.721601 
L 235.784068 140.774831 
L 235.934441 140.961535 
L 236.084814 140.839834 
L 236.385559 140.311534 
L 236.98705 139.757219 
L 237.137422 139.258207 
L 237.287795 139.373315 
L 237.438168 139.124053 
L 237.889285 138.95251 
L 238.039658 138.68639 
L 238.190031 138.783195 
L 238.791521 138.23531 
L 239.092267 138.253985 
L 239.242639 138.053062 
L 239.543385 138.052428 
L 239.693757 137.929919 
L 239.84413 138.3756 
L 240.144875 137.38755 
L 240.295248 137.466388 
L 240.595993 137.059638 
L 241.347856 136.380025 
L 241.498229 136.548404 
L 242.851583 133.844541 
L 243.001955 134.044548 
L 243.152328 133.585244 
L 243.302701 133.628302 
L 243.753819 132.865588 
L 243.904191 132.919899 
L 244.054564 132.819618 
L 244.204937 132.892404 
L 244.656055 132.561641 
L 244.806427 132.726165 
L 245.107173 131.752954 
L 245.257545 131.717042 
L 245.407918 131.810433 
L 245.708663 131.475792 
L 246.009408 131.175849 
L 246.159781 130.840258 
L 246.310154 130.816728 
L 246.610899 130.256254 
L 246.761272 130.451434 
L 247.062017 130.071375 
L 247.362762 130.051548 
L 248.866489 128.888132 
L 249.016861 128.92412 
L 249.317607 128.655556 
L 249.467979 128.85056 
L 249.919097 128.126642 
L 250.219843 127.369591 
L 251.122078 125.72308 
L 251.272451 125.452945 
L 251.422824 125.697581 
L 251.873942 124.863126 
L 252.024314 125.107526 
L 252.32506 124.511934 
L 252.475432 124.475473 
L 252.625805 123.905724 
L 252.776178 124.159862 
L 252.92655 123.750741 
L 253.227295 123.61889 
L 253.377668 123.457507 
L 253.528041 123.094713 
L 253.678413 123.079802 
L 253.979159 122.161095 
L 254.129531 122.129015 
L 254.731022 120.837808 
L 254.881395 120.118184 
L 255.031767 120.248192 
L 255.18214 119.667971 
L 255.332513 119.674431 
L 255.482885 119.434777 
L 255.633258 119.457885 
L 255.934003 119.045163 
L 256.385121 118.347868 
L 256.535494 118.247555 
L 256.685866 118.294932 
L 256.986612 118.073439 
L 257.136984 118.132859 
L 257.43773 117.61384 
L 257.588102 117.593398 
L 257.888848 117.206668 
L 258.03922 117.358481 
L 258.339965 116.918964 
L 258.490338 116.59649 
L 258.640711 116.807358 
L 259.693319 115.479785 
L 259.994065 114.889771 
L 260.29481 114.8986 
L 260.445183 114.570609 
L 260.595555 114.554656 
L 260.745928 114.707728 
L 260.8963 114.493599 
L 261.046673 114.518333 
L 261.497791 113.992358 
L 261.798536 114.015885 
L 261.948909 113.837051 
L 262.249654 113.81071 
L 262.400027 113.639244 
L 262.5504 113.662415 
L 263.452635 113.212551 
L 263.753381 113.095492 
L 263.903753 113.10766 
L 264.204499 112.875169 
L 264.354871 113.020237 
L 264.505244 112.852292 
L 265.257107 112.781844 
L 265.557853 112.502355 
L 265.708225 112.571958 
L 266.309716 111.710918 
L 266.610461 111.740999 
L 266.911206 111.771457 
L 267.061579 111.563553 
L 267.211952 111.690742 
L 267.66307 111.070422 
L 267.813442 111.258492 
L 268.114188 110.823173 
L 268.565305 110.243269 
L 268.866051 110.357522 
L 269.166796 109.965175 
L 270.820895 108.836656 
L 271.422386 108.698732 
L 271.723131 107.976896 
L 271.873504 107.935743 
L 272.174249 107.659781 
L 272.324622 107.703289 
L 272.474994 107.546449 
L 272.625367 107.595991 
L 273.37723 107.108736 
L 273.677975 106.367049 
L 273.828348 106.527637 
L 273.978721 106.402913 
L 274.279466 106.003655 
L 274.429839 105.932758 
L 274.880957 105.434362 
L 275.181702 105.737827 
L 275.482447 105.241942 
L 275.783193 105.120383 
L 275.933565 105.235872 
L 276.23431 104.567226 
L 276.535056 104.193929 
L 276.685428 104.254807 
L 276.986174 103.798053 
L 277.136546 103.682973 
L 277.286919 103.845002 
L 277.587664 103.357531 
L 277.738037 103.198096 
L 278.038782 103.192399 
L 278.339528 102.384069 
L 278.790646 101.986919 
L 279.091391 101.271054 
L 279.392136 101.253499 
L 279.843254 100.858526 
L 279.993627 100.804532 
L 280.595117 100.12103 
L 280.74549 100.079573 
L 280.895863 100.274649 
L 281.196608 99.584472 
L 281.346981 99.536401 
L 281.647726 99.234356 
L 281.798098 99.1409 
L 282.549962 97.944148 
L 282.700334 97.976138 
L 283.752943 96.615501 
L 283.903316 96.710473 
L 284.655179 95.879253 
L 284.955924 95.358626 
L 285.106297 95.442212 
L 285.407042 95.285755 
L 285.707787 94.816827 
L 285.85816 94.831872 
L 286.008533 94.721287 
L 286.309278 94.13152 
L 286.459651 94.156947 
L 286.760396 93.716881 
L 287.061141 93.538435 
L 287.211514 93.532106 
L 287.361886 93.663716 
L 287.512259 93.474706 
L 287.662632 93.57718 
L 287.963377 93.288798 
L 288.11375 93.271149 
L 288.264122 93.135272 
L 288.564868 92.689558 
L 289.015986 92.575343 
L 289.767849 91.842811 
L 290.068594 91.501731 
L 290.670085 91.563285 
L 290.820457 91.357781 
L 291.121203 91.369759 
L 291.722693 91.214685 
L 291.873066 91.027315 
L 292.173811 90.390471 
L 292.324184 90.43808 
L 292.925674 90.254711 
L 293.677538 90.164166 
L 293.978283 89.977292 
L 294.128656 90.308609 
L 294.429401 89.862713 
L 294.730146 89.555764 
L 295.632382 88.68291 
L 295.782755 88.652569 
L 296.684991 87.438341 
L 296.835363 87.482008 
L 296.985736 87.306127 
L 297.286481 87.367757 
L 297.587226 87.122657 
L 297.737599 87.552737 
L 298.33909 86.264254 
L 298.489462 86.262449 
L 298.790208 85.719786 
L 298.94058 85.626431 
L 299.090953 85.831906 
L 299.241326 85.368974 
L 300.444307 84.829726 
L 301.647288 84.499773 
L 301.797661 84.618564 
L 302.399151 84.040445 
L 302.549524 84.07104 
L 303.151014 83.700638 
L 303.301387 83.416979 
L 303.602132 83.271173 
L 303.902878 83.143432 
L 304.05325 82.86124 
L 304.805113 82.602921 
L 304.955486 82.526819 
L 305.256231 82.586724 
L 306.008095 82.209531 
L 306.158467 82.247512 
L 306.30884 81.981328 
L 306.609585 81.961329 
L 306.910331 81.717417 
L 307.211076 81.656623 
L 307.361448 81.561808 
L 307.511821 81.643014 
L 307.812566 81.11304 
L 308.113312 80.852268 
L 308.263684 80.516926 
L 308.414057 80.564322 
L 308.714802 80.283548 
L 309.16592 80.370877 
L 309.316293 80.159357 
L 309.466666 80.162249 
L 309.617038 79.980907 
L 309.767411 80.042329 
L 309.917783 79.825883 
L 310.218529 79.823483 
L 310.519274 79.62641 
L 311.271137 79.447996 
L 311.42151 79.579844 
L 311.872628 79.193724 
L 312.323746 78.974839 
L 312.474118 79.071472 
L 313.376354 78.34347 
L 313.526727 77.947187 
L 313.827472 77.868967 
L 314.128218 77.611035 
L 314.27859 77.487636 
L 314.428963 77.544151 
L 314.880081 77.247087 
L 315.030453 77.31033 
L 315.932689 76.962399 
L 316.53418 76.786643 
L 316.684553 76.856938 
L 316.985298 76.771906 
L 317.135671 76.807334 
L 317.887534 76.463203 
L 318.188279 76.44541 
L 319.240888 76.169705 
L 319.992751 75.745902 
L 320.143123 75.824497 
L 322.097968 75.095494 
L 322.248341 75.158574 
L 323.000204 74.964738 
L 323.451322 74.859171 
L 323.601694 74.650212 
L 324.052812 74.639206 
L 324.654303 74.467833 
L 325.255794 74.201098 
L 325.857284 74.158691 
L 326.158029 74.123532 
L 326.458775 74.003126 
L 326.609147 73.970099 
L 326.75952 74.114407 
L 327.060265 73.887496 
L 327.210638 73.870554 
L 327.511383 73.533552 
L 327.812129 73.392721 
L 328.112874 73.315174 
L 329.165482 72.994213 
L 329.917346 72.925613 
L 334.578898 72.253664 
L 335.631506 72.017923 
L 335.932251 71.561711 
L 336.082624 71.648302 
L 336.383369 71.402865 
L 336.684115 71.302293 
L 337.435978 71.220234 
L 338.338214 71.051208 
L 340.894549 70.72438 
L 341.195294 70.718951 
L 341.947157 70.533019 
L 342.548648 70.46273 
L 346.307964 70.182877 
L 346.608709 70.10333 
L 346.759082 70.194976 
L 347.2102 69.977396 
L 347.510945 69.871433 
L 349.315417 69.404055 
L 349.616162 69.346025 
L 349.916908 69.163163 
L 350.518398 69.117857 
L 350.668771 69.2517 
L 350.819144 69.030158 
L 351.119889 68.980144 
L 352.623615 68.419849 
L 352.924361 68.375459 
L 353.225106 68.248437 
L 354.428087 68.14037 
L 354.57846 68.180502 
L 355.029578 67.924162 
L 355.17995 68.000675 
L 355.330323 67.774514 
L 355.480696 67.783807 
L 357.134795 66.692065 
L 358.037031 66.329584 
L 358.638521 65.980376 
L 358.788894 66.055093 
L 360.29262 65.383974 
L 360.593366 65.187495 
L 361.194856 65.014064 
L 361.345229 65.062219 
L 362.097092 64.657757 
L 362.698583 64.516988 
L 363.300073 64.126532 
L 363.751191 63.83255 
L 364.051937 63.764416 
L 364.653427 63.525683 
L 365.555663 63.168947 
L 366.157154 63.126727 
L 367.360135 62.798327 
L 367.510507 62.608755 
L 367.811253 62.530494 
L 368.111998 62.424665 
L 368.412743 62.318476 
L 368.713489 62.138132 
L 369.014234 62.116668 
L 369.314979 62.086286 
L 369.615724 62.181013 
L 370.066842 61.854356 
L 370.969078 61.472924 
L 376.683239 60.061354 
L 376.983984 60.033957 
L 378.036593 59.828996 
L 378.337338 59.574393 
L 380.14181 59.397216 
L 380.442555 59.211397 
L 381.795909 59.071042 
L 382.096654 59.031255 
L 385.404852 58.464744 
L 386.006343 58.326805 
L 386.908579 58.169785 
L 387.359697 58.157301 
L 387.660442 58.080545 
L 387.961187 58.068074 
L 388.11156 58.026201 
L 388.261933 58.239448 
L 388.713051 57.801488 
L 389.916032 57.085556 
L 390.216777 56.925242 
L 390.667895 56.775707 
L 391.419758 56.493792 
L 391.570131 56.306768 
L 391.720504 56.423549 
L 391.870876 56.098299 
L 392.321994 56.03017 
L 394.126466 55.463906 
L 394.577584 55.518131 
L 394.727957 55.526033 
L 395.179074 55.103807 
L 395.47982 54.902687 
L 395.630192 54.623653 
L 396.08131 54.577795 
L 396.382056 54.40283 
L 396.833174 54.208295 
L 396.983546 54.282541 
L 397.585037 53.981955 
L 397.735409 54.01776 
L 398.3369 53.620515 
L 398.487273 53.568 
L 398.487273 53.568 
" clip-path="url(#p76e6b3228e)" style="fill: none; stroke: #ff7f0e; stroke-opacity: 0.7; stroke-width: 1.5; stroke-linecap: square"/>
   </g>
   <g id="line2d_15">
    <path d="M 73.832727 162.721237 
L 74.133473 162.660701 
L 74.283845 162.715838 
L 74.584591 162.56748 
L 74.885336 162.690955 
L 75.186081 162.789486 
L 75.787572 162.791077 
L 76.389062 163.030374 
L 76.689808 163.024631 
L 76.990553 163.018663 
L 77.441671 162.957203 
L 77.742416 163.004773 
L 78.945397 163.140623 
L 79.546888 163.059259 
L 79.847633 163.088639 
L 82.253596 163.118328 
L 82.554341 163.066384 
L 83.306204 163.085624 
L 88.719619 163.32961 
L 89.020365 163.303992 
L 89.471483 163.327291 
L 90.824836 163.253188 
L 93.230799 163.298928 
L 93.531544 163.268868 
L 94.43378 163.258012 
L 95.035271 163.298471 
L 95.486388 163.284664 
L 96.839742 163.326658 
L 99.847195 163.395514 
L 100.147941 163.4204 
L 100.749431 163.401106 
L 103.456139 163.370391 
L 104.208002 163.391397 
L 105.711728 163.429312 
L 106.764337 163.48685 
L 107.5162 163.521207 
L 108.869554 163.596162 
L 110.222908 163.68206 
L 111.877007 163.890575 
L 115.185205 164.252626 
L 116.388186 164.448238 
L 121.801602 164.554036 
L 122.403092 164.646931 
L 123.154956 164.627843 
L 135.485513 165.200322 
L 138.041848 165.689382 
L 140.748555 165.895942 
L 141.500419 165.970804 
L 143.30489 166.109874 
L 144.507871 166.282429 
L 144.808617 166.244458 
L 145.109362 166.299326 
L 146.913834 166.32671 
L 147.966442 166.317135 
L 148.567933 166.355213 
L 149.169424 166.473702 
L 150.071659 166.641188 
L 150.522777 166.731112 
L 150.67315 166.814681 
L 150.823523 166.632278 
L 150.973895 166.788617 
L 151.425013 166.632407 
L 152.176877 166.66402 
L 152.778367 166.698096 
L 153.079112 166.699017 
L 153.830976 166.63006 
L 153.981348 166.723182 
L 154.432466 166.685195 
L 155.334702 166.615309 
L 157.289547 166.808969 
L 157.590292 166.780277 
L 158.6429 166.778868 
L 158.943646 166.804778 
L 159.244391 166.770675 
L 159.845882 166.794229 
L 160.597745 166.752031 
L 161.800726 166.79345 
L 162.853334 166.784902 
L 164.056316 166.738627 
L 164.357061 166.694039 
L 164.958552 166.738837 
L 165.710415 166.797312 
L 168.417122 166.87293 
L 168.717868 166.847391 
L 169.018613 166.958086 
L 170.071222 166.84054 
L 171.12383 166.727529 
L 171.875693 166.659953 
L 173.078674 166.542881 
L 174.281656 166.572955 
L 176.837991 166.537724 
L 177.138736 166.574024 
L 179.695071 166.534794 
L 180.446934 166.579667 
L 181.499543 166.584212 
L 189.018175 166.52228 
L 189.31892 166.470217 
L 189.619666 166.480941 
L 189.770038 166.248006 
L 189.920411 166.404369 
L 190.371529 166.478915 
L 191.123392 166.710123 
L 192.777491 166.912702 
L 193.679727 167.01271 
L 195.484199 167.031659 
L 195.935317 167.020553 
L 197.739789 167.213795 
L 199.093142 167.258567 
L 199.845006 167.260286 
L 203.303577 167.270909 
L 203.754695 167.250909 
L 207.213265 167.17817 
L 209.318482 167.049994 
L 212.476308 167.130121 
L 212.927426 167.124266 
L 213.378544 167.17277 
L 213.679289 167.210818 
L 215.032643 167.148478 
L 215.934879 167.141922 
L 216.085252 167.063537 
L 216.53637 167.117747 
L 218.491214 167.301555 
L 221.498667 167.292603 
L 222.400903 167.300949 
L 223.152766 167.308291 
L 223.453511 167.370196 
L 224.806865 167.32805 
L 225.408356 167.334519 
L 225.558728 167.445332 
L 226.160219 167.338354 
L 227.212827 167.372963 
L 227.513573 167.40264 
L 227.964691 167.439103 
L 228.566181 167.396349 
L 228.716554 167.252512 
L 229.769162 167.406675 
L 229.919535 167.341959 
L 230.370653 167.412129 
L 230.671398 167.368586 
L 231.423262 167.382137 
L 231.573634 167.396101 
L 231.87438 167.598472 
L 232.926988 167.437146 
L 233.378106 167.552224 
L 234.129969 167.621422 
L 234.280342 167.79212 
L 234.581087 167.619828 
L 235.032205 168.032907 
L 235.182578 168.041427 
L 235.784068 167.505906 
L 235.934441 167.823491 
L 236.084814 167.851279 
L 236.235186 167.594791 
L 236.836677 167.54348 
L 236.98705 167.485772 
L 237.137422 167.093417 
L 237.287795 167.426843 
L 237.438168 167.315517 
L 237.889285 167.509776 
L 238.039658 167.345045 
L 238.190031 167.600123 
L 238.490776 167.569982 
L 238.641149 167.492175 
L 238.941894 167.648637 
L 239.092267 167.789004 
L 239.242639 167.709008 
L 239.693757 167.868506 
L 239.84413 168.397334 
L 240.144875 167.867332 
L 240.295248 168.088774 
L 240.595993 167.879503 
L 240.746366 167.892714 
L 241.047111 167.747848 
L 241.197484 167.942912 
L 241.347856 167.795023 
L 241.498229 168.06617 
L 241.648602 167.925251 
L 241.798974 167.958317 
L 242.09972 167.211007 
L 242.250092 167.372209 
L 242.550838 167.248761 
L 242.851583 167.215269 
L 243.001955 167.618554 
L 243.152328 167.439005 
L 243.302701 167.59689 
L 243.603446 167.453576 
L 243.753819 167.38746 
L 244.204937 167.974244 
L 244.656055 168.128803 
L 244.806427 168.386291 
L 245.107173 167.779085 
L 245.407918 168.111891 
L 245.55829 167.954167 
L 245.859036 167.928625 
L 246.009408 167.837194 
L 246.159781 167.581304 
L 246.310154 167.697603 
L 246.610899 167.430241 
L 246.761272 167.725701 
L 247.062017 167.62615 
L 247.362762 167.833229 
L 248.565743 167.481773 
L 248.716116 167.708696 
L 248.866489 167.608824 
L 249.167234 167.759827 
L 249.317607 167.720204 
L 249.467979 167.974445 
L 250.370215 167.117928 
L 250.520588 167.16338 
L 250.971706 166.77111 
L 251.272451 166.546668 
L 251.422824 166.946237 
L 251.873942 166.694567 
L 252.024314 167.035185 
L 252.475432 166.883721 
L 252.625805 166.503015 
L 252.776178 166.948128 
L 252.92655 166.785383 
L 253.377668 166.88019 
L 253.528041 166.626805 
L 253.678413 166.747943 
L 253.828786 166.140851 
L 254.129531 166.471918 
L 254.580649 166.182063 
L 254.731022 166.150058 
L 254.881395 165.625027 
L 255.031767 166.077223 
L 255.18214 165.866324 
L 255.332513 166.017839 
L 255.482885 166.007927 
L 255.633258 166.287333 
L 255.78363 166.304179 
L 255.934003 166.464072 
L 256.535494 166.388586 
L 257.136984 166.850591 
L 257.43773 166.599545 
L 257.588102 166.674811 
L 257.888848 166.52251 
L 258.03922 166.800954 
L 258.189593 166.753762 
L 258.339965 166.88053 
L 258.490338 166.78037 
L 258.791083 167.168721 
L 258.941456 167.188759 
L 259.392574 166.928423 
L 259.693319 166.918496 
L 259.843692 166.549357 
L 260.29481 166.86874 
L 260.445183 166.657871 
L 261.046673 167.136955 
L 261.497791 166.917213 
L 262.099282 167.207642 
L 262.5504 167.179812 
L 263.001518 167.408366 
L 264.204499 167.214139 
L 264.505244 167.473842 
L 265.257107 168.122457 
L 265.557853 168.139188 
L 265.708225 168.408922 
L 265.858598 168.38355 
L 266.159343 168.145942 
L 266.309716 168.066384 
L 266.911206 168.626359 
L 267.061579 168.610813 
L 267.211952 168.807304 
L 267.512697 168.745189 
L 267.66307 168.609585 
L 267.813442 168.884696 
L 268.26456 168.659612 
L 268.565305 168.523478 
L 268.866051 168.814779 
L 269.317169 168.792639 
L 269.467541 168.653316 
L 269.617914 168.800469 
L 269.768287 168.600657 
L 269.918659 168.804243 
L 270.219405 168.745543 
L 270.369777 168.602713 
L 270.670523 168.758283 
L 271.272013 169.014503 
L 271.422386 169.140075 
L 271.572758 168.73034 
L 271.873504 168.981983 
L 272.023876 168.892611 
L 272.324622 169.175716 
L 272.474994 169.11478 
L 272.77574 169.361595 
L 273.076485 169.375844 
L 273.37723 169.422129 
L 273.527603 169.053504 
L 273.677975 169.006041 
L 273.828348 169.33271 
L 273.978721 169.372236 
L 274.129093 169.193863 
L 274.429839 169.265327 
L 274.730584 169.042195 
L 274.880957 169.059776 
L 275.181702 169.607823 
L 275.482447 169.392128 
L 275.783193 169.623662 
L 275.933565 169.943004 
L 276.23431 169.679401 
L 277.136546 169.648423 
L 277.286919 169.903384 
L 277.738037 169.76526 
L 278.038782 170.115963 
L 278.339528 169.761281 
L 278.4899 169.820022 
L 278.640273 169.747659 
L 278.790646 169.908585 
L 279.091391 169.526035 
L 279.392136 169.790255 
L 279.843254 169.688338 
L 280.143999 169.749091 
L 280.444745 169.552597 
L 280.74549 169.626927 
L 280.895863 169.890361 
L 281.497353 169.508047 
L 281.798098 169.562393 
L 282.098844 169.11938 
L 282.249216 169.231135 
L 282.399589 168.99807 
L 282.700334 169.33534 
L 282.850707 169.266489 
L 283.00108 169.054925 
L 283.151452 169.160788 
L 283.60257 168.867908 
L 284.053688 169.2576 
L 284.655179 168.963509 
L 284.805551 168.7249 
L 285.407042 169.054066 
L 285.707787 168.902018 
L 286.008533 169.168234 
L 286.158905 168.936184 
L 286.309278 168.962028 
L 286.459651 169.135696 
L 286.760396 168.873186 
L 287.211514 168.958027 
L 287.361886 169.132633 
L 287.512259 169.030663 
L 287.662632 169.207632 
L 288.264122 169.204841 
L 288.414495 168.972889 
L 288.865613 169.04247 
L 289.015986 169.193354 
L 289.467103 169.099734 
L 289.617476 168.902186 
L 289.767849 168.938975 
L 289.918221 168.801662 
L 290.369339 168.95159 
L 290.670085 169.149266 
L 290.820457 168.993265 
L 291.121203 169.093904 
L 291.722693 169.173742 
L 291.873066 169.062766 
L 292.023438 168.711684 
L 292.173811 168.729829 
L 292.474556 168.955398 
L 293.677538 169.413314 
L 293.82791 169.306135 
L 293.978283 169.380369 
L 294.128656 169.751494 
L 294.279028 169.624973 
L 294.730146 169.619322 
L 295.030891 169.487737 
L 295.331637 169.376303 
L 295.632382 169.335914 
L 295.782755 169.416086 
L 295.933127 169.349556 
L 296.0835 169.072896 
L 296.384245 169.154562 
L 296.684991 168.929832 
L 296.835363 169.060949 
L 296.985736 168.957923 
L 297.436854 169.1914 
L 297.587226 169.113024 
L 297.737599 169.603005 
L 298.038344 169.418141 
L 298.33909 168.981393 
L 298.489462 169.123467 
L 298.790208 168.955269 
L 298.94058 169.004119 
L 299.090953 169.281241 
L 299.241326 168.957816 
L 299.842816 169.067423 
L 299.993189 169.009878 
L 300.143561 169.181844 
L 300.444307 169.193584 
L 300.745052 169.236465 
L 301.19617 169.407434 
L 301.496915 169.54711 
L 301.647288 169.567902 
L 301.797661 169.768736 
L 302.699896 169.650777 
L 303.151014 169.568616 
L 303.301387 169.375523 
L 303.45176 169.468878 
L 303.752505 169.475277 
L 303.902878 169.471306 
L 304.05325 169.276026 
L 304.353996 169.490322 
L 304.504368 169.417061 
L 305.256231 169.677739 
L 306.158467 169.664957 
L 306.30884 169.445626 
L 306.609585 169.619718 
L 306.910331 169.538689 
L 307.211076 169.599375 
L 307.361448 169.547466 
L 307.511821 169.697057 
L 307.662194 169.414359 
L 307.962939 169.457912 
L 308.113312 169.392232 
L 308.263684 169.131848 
L 308.414057 169.334938 
L 308.56443 169.199807 
L 309.015548 169.478985 
L 309.16592 169.577615 
L 309.316293 169.432665 
L 309.466666 169.514255 
L 309.617038 169.411756 
L 309.767411 169.574351 
L 309.917783 169.480327 
L 310.669647 169.63661 
L 311.271137 169.728951 
L 311.42151 169.919898 
L 312.023001 169.755511 
L 312.323746 169.796954 
L 312.474118 169.939526 
L 313.376354 169.604801 
L 313.526727 169.299658 
L 313.827472 169.525889 
L 313.977845 169.39192 
L 314.729708 169.682132 
L 314.880081 169.653742 
L 315.180826 169.79923 
L 315.481571 169.842435 
L 316.53418 169.838039 
L 316.834925 169.914523 
L 317.436416 170.002961 
L 317.887534 169.908899 
L 318.338652 170.026325 
L 319.240888 170.163524 
L 319.992751 169.999898 
L 320.293496 170.172575 
L 320.894987 170.141346 
L 323.451322 170.295007 
L 323.601694 170.110593 
L 323.90244 170.285686 
L 324.353558 170.341313 
L 324.50393 170.404908 
L 324.804676 170.326669 
L 325.255794 170.319746 
L 326.158029 170.503661 
L 326.458775 170.502276 
L 326.609147 170.497775 
L 326.75952 170.692202 
L 327.812129 170.539753 
L 328.112874 170.542594 
L 329.6166 170.679452 
L 331.120327 170.83858 
L 332.323308 170.850026 
L 332.624053 170.958183 
L 333.225544 170.994349 
L 333.827034 171.212618 
L 334.12778 171.214174 
L 334.578898 171.261804 
L 335.180388 171.325648 
L 335.631506 171.316012 
L 335.932251 170.995155 
L 336.082624 171.212976 
L 336.533742 171.210626 
L 337.435978 171.49044 
L 338.187841 171.57852 
L 341.796785 171.876977 
L 342.548648 171.901642 
L 346.157591 172.792659 
L 346.608709 172.815342 
L 346.759082 172.977257 
L 347.2102 173.021704 
L 347.811691 173.083825 
L 348.864299 173.252621 
L 350.06728 173.185072 
L 350.518398 173.235769 
L 350.668771 173.393806 
L 350.819144 173.313034 
L 351.270261 173.420725 
L 351.571007 173.461793 
L 352.172497 173.294157 
L 352.773988 173.342907 
L 354.127342 173.231403 
L 355.480696 173.693197 
L 357.285167 173.506782 
L 357.585913 173.537378 
L 358.037031 173.479385 
L 358.488149 173.402037 
L 358.638521 173.394825 
L 358.939266 173.593662 
L 360.29262 173.497921 
L 360.442993 173.420562 
L 360.743738 173.463402 
L 361.194856 173.509936 
L 361.495601 173.571987 
L 365.104545 173.141723 
L 365.40529 173.122087 
L 365.856408 173.166999 
L 366.006781 173.282721 
L 366.608272 173.133573 
L 367.059389 173.153763 
L 367.209762 173.048947 
L 367.360135 173.183796 
L 367.510507 173.076867 
L 367.811253 173.093391 
L 368.111998 173.062429 
L 368.412743 173.0326 
L 368.713489 172.96915 
L 369.014234 173.043906 
L 369.314979 173.059376 
L 369.615724 173.348503 
L 371.119451 173.211117 
L 371.720942 173.295568 
L 372.021687 173.28481 
L 374.277277 173.289764 
L 374.728394 173.274157 
L 376.532866 173.287222 
L 378.036593 173.199286 
L 378.186965 173.043719 
L 379.841064 173.320857 
L 379.991437 173.471473 
L 380.442555 173.307512 
L 381.495164 173.391355 
L 383.750753 173.440082 
L 384.352244 173.430145 
L 384.652989 173.452314 
L 385.104107 173.555682 
L 385.85597 173.613833 
L 386.307088 173.689022 
L 386.758206 173.668208 
L 387.058952 173.710418 
L 387.359697 173.804442 
L 387.660442 173.786182 
L 387.961187 173.917519 
L 388.11156 173.947044 
L 388.261933 174.228555 
L 389.464914 174.089632 
L 389.765659 174.127098 
L 390.517522 174.003824 
L 391.119013 174.177269 
L 391.419758 174.097928 
L 391.570131 173.987927 
L 391.720504 174.178521 
L 391.870876 173.98752 
L 392.171622 174.086609 
L 392.472367 174.119723 
L 392.622739 174.001645 
L 392.773112 174.153906 
L 393.675348 174.208241 
L 394.427211 174.461795 
L 394.727957 174.75515 
L 395.179074 174.605388 
L 395.47982 174.561017 
L 395.630192 174.327875 
L 396.08131 174.535851 
L 396.532428 174.442067 
L 396.983546 174.624086 
L 398.186527 174.573271 
L 398.487273 174.528 
L 398.487273 174.528 
" clip-path="url(#p76e6b3228e)" style="fill: none; stroke: #2ca02c; stroke-opacity: 0.7; stroke-width: 1.5; stroke-linecap: square"/>
   </g>
   <g id="patch_3">
    <path d="M 57.6 307.584 
L 57.6 41.472 
" style="fill: none; stroke: #000000; stroke-width: 0.8; stroke-linejoin: miter; stroke-linecap: square"/>
   </g>
   <g id="patch_4">
    <path d="M 414.72 307.584 
L 414.72 41.472 
" style="fill: none; stroke: #000000; stroke-width: 0.8; stroke-linejoin: miter; stroke-linecap: square"/>
   </g>
   <g id="patch_5">
    <path d="M 57.6 307.584 
L 414.72 307.584 
" style="fill: none; stroke: #000000; stroke-width: 0.8; stroke-linejoin: miter; stroke-linecap: square"/>
   </g>
   <g id="patch_6">
    <path d="M 57.6 41.472 
L 414.72 41.472 
" style="fill: none; stroke: #000000; stroke-width: 0.8; stroke-linejoin: miter; stroke-linecap: square"/>
   </g>
   <g id="text_14">
    <!-- max_cliquebtcusd -->
    <g transform="translate(181.95375 35.472) scale(0.12 -0.12)">
     <defs>
      <path id="DejaVuSans-6d" d="M 3328 2828 
Q 3544 3216 3844 3400 
Q 4144 3584 4550 3584 
Q 5097 3584 5394 3201 
Q 5691 2819 5691 2113 
L 5691 0 
L 5113 0 
L 5113 2094 
Q 5113 2597 4934 2840 
Q 4756 3084 4391 3084 
Q 3944 3084 3684 2787 
Q 3425 2491 3425 1978 
L 3425 0 
L 2847 0 
L 2847 2094 
Q 2847 2600 2669 2842 
Q 2491 3084 2119 3084 
Q 1678 3084 1418 2786 
Q 1159 2488 1159 1978 
L 1159 0 
L 581 0 
L 581 3500 
L 1159 3500 
L 1159 2956 
Q 1356 3278 1631 3431 
Q 1906 3584 2284 3584 
Q 2666 3584 2933 3390 
Q 3200 3197 3328 2828 
z
" transform="scale(0.015625)"/>
      <path id="DejaVuSans-61" d="M 2194 1759 
Q 1497 1759 1228 1600 
Q 959 1441 959 1056 
Q 959 750 1161 570 
Q 1363 391 1709 391 
Q 2188 391 2477 730 
Q 2766 1069 2766 1631 
L 2766 1759 
L 2194 1759 
z
M 3341 1997 
L 3341 0 
L 2766 0 
L 2766 531 
Q 2569 213 2275 61 
Q 1981 -91 1556 -91 
Q 1019 -91 701 211 
Q 384 513 384 1019 
Q 384 1609 779 1909 
Q 1175 2209 1959 2209 
L 2766 2209 
L 2766 2266 
Q 2766 2663 2505 2880 
Q 2244 3097 1772 3097 
Q 1472 3097 1187 3025 
Q 903 2953 641 2809 
L 641 3341 
Q 956 3463 1253 3523 
Q 1550 3584 1831 3584 
Q 2591 3584 2966 3190 
Q 3341 2797 3341 1997 
z
" transform="scale(0.015625)"/>
      <path id="DejaVuSans-78" d="M 3513 3500 
L 2247 1797 
L 3578 0 
L 2900 0 
L 1881 1375 
L 863 0 
L 184 0 
L 1544 1831 
L 300 3500 
L 978 3500 
L 1906 2253 
L 2834 3500 
L 3513 3500 
z
" transform="scale(0.015625)"/>
      <path id="DejaVuSans-5f" d="M 3263 -1063 
L 3263 -1509 
L -63 -1509 
L -63 -1063 
L 3263 -1063 
z
" transform="scale(0.015625)"/>
      <path id="DejaVuSans-63" d="M 3122 3366 
L 3122 2828 
Q 2878 2963 2633 3030 
Q 2388 3097 2138 3097 
Q 1578 3097 1268 2742 
Q 959 2388 959 1747 
Q 959 1106 1268 751 
Q 1578 397 2138 397 
Q 2388 397 2633 464 
Q 2878 531 3122 666 
L 3122 134 
Q 2881 22 2623 -34 
Q 2366 -91 2075 -91 
Q 1284 -91 818 406 
Q 353 903 353 1747 
Q 353 2603 823 3093 
Q 1294 3584 2113 3584 
Q 2378 3584 2631 3529 
Q 2884 3475 3122 3366 
z
" transform="scale(0.015625)"/>
      <path id="DejaVuSans-6c" d="M 603 4863 
L 1178 4863 
L 1178 0 
L 603 0 
L 603 4863 
z
" transform="scale(0.015625)"/>
      <path id="DejaVuSans-69" d="M 603 3500 
L 1178 3500 
L 1178 0 
L 603 0 
L 603 3500 
z
M 603 4863 
L 1178 4863 
L 1178 4134 
L 603 4134 
L 603 4863 
z
" transform="scale(0.015625)"/>
      <path id="DejaVuSans-71" d="M 947 1747 
Q 947 1113 1208 752 
Q 1469 391 1925 391 
Q 2381 391 2643 752 
Q 2906 1113 2906 1747 
Q 2906 2381 2643 2742 
Q 2381 3103 1925 3103 
Q 1469 3103 1208 2742 
Q 947 2381 947 1747 
z
M 2906 525 
Q 2725 213 2448 61 
Q 2172 -91 1784 -91 
Q 1150 -91 751 415 
Q 353 922 353 1747 
Q 353 2572 751 3078 
Q 1150 3584 1784 3584 
Q 2172 3584 2448 3432 
Q 2725 3281 2906 2969 
L 2906 3500 
L 3481 3500 
L 3481 -1331 
L 2906 -1331 
L 2906 525 
z
" transform="scale(0.015625)"/>
      <path id="DejaVuSans-75" d="M 544 1381 
L 544 3500 
L 1119 3500 
L 1119 1403 
Q 1119 906 1312 657 
Q 1506 409 1894 409 
Q 2359 409 2629 706 
Q 2900 1003 2900 1516 
L 2900 3500 
L 3475 3500 
L 3475 0 
L 2900 0 
L 2900 538 
Q 2691 219 2414 64 
Q 2138 -91 1772 -91 
Q 1169 -91 856 284 
Q 544 659 544 1381 
z
M 1991 3584 
L 1991 3584 
z
" transform="scale(0.015625)"/>
      <path id="DejaVuSans-62" d="M 3116 1747 
Q 3116 2381 2855 2742 
Q 2594 3103 2138 3103 
Q 1681 3103 1420 2742 
Q 1159 2381 1159 1747 
Q 1159 1113 1420 752 
Q 1681 391 2138 391 
Q 2594 391 2855 752 
Q 3116 1113 3116 1747 
z
M 1159 2969 
Q 1341 3281 1617 3432 
Q 1894 3584 2278 3584 
Q 2916 3584 3314 3078 
Q 3713 2572 3713 1747 
Q 3713 922 3314 415 
Q 2916 -91 2278 -91 
Q 1894 -91 1617 61 
Q 1341 213 1159 525 
L 1159 0 
L 581 0 
L 581 4863 
L 1159 4863 
L 1159 2969 
z
" transform="scale(0.015625)"/>
      <path id="DejaVuSans-74" d="M 1172 4494 
L 1172 3500 
L 2356 3500 
L 2356 3053 
L 1172 3053 
L 1172 1153 
Q 1172 725 1289 603 
Q 1406 481 1766 481 
L 2356 481 
L 2356 0 
L 1766 0 
Q 1100 0 847 248 
Q 594 497 594 1153 
L 594 3053 
L 172 3053 
L 172 3500 
L 594 3500 
L 594 4494 
L 1172 4494 
z
" transform="scale(0.015625)"/>
      <path id="DejaVuSans-73" d="M 2834 3397 
L 2834 2853 
Q 2591 2978 2328 3040 
Q 2066 3103 1784 3103 
Q 1356 3103 1142 2972 
Q 928 2841 928 2578 
Q 928 2378 1081 2264 
Q 1234 2150 1697 2047 
L 1894 2003 
Q 2506 1872 2764 1633 
Q 3022 1394 3022 966 
Q 3022 478 2636 193 
Q 2250 -91 1575 -91 
Q 1294 -91 989 -36 
Q 684 19 347 128 
L 347 722 
Q 666 556 975 473 
Q 1284 391 1588 391 
Q 1994 391 2212 530 
Q 2431 669 2431 922 
Q 2431 1156 2273 1281 
Q 2116 1406 1581 1522 
L 1381 1569 
Q 847 1681 609 1914 
Q 372 2147 372 2553 
Q 372 3047 722 3315 
Q 1072 3584 1716 3584 
Q 2034 3584 2315 3537 
Q 2597 3491 2834 3397 
z
" transform="scale(0.015625)"/>
      <path id="DejaVuSans-64" d="M 2906 2969 
L 2906 4863 
L 3481 4863 
L 3481 0 
L 2906 0 
L 2906 525 
Q 2725 213 2448 61 
Q 2172 -91 1784 -91 
Q 1150 -91 751 415 
Q 353 922 353 1747 
Q 353 2572 751 3078 
Q 1150 3584 1784 3584 
Q 2172 3584 2448 3432 
Q 2725 3281 2906 2969 
z
M 947 1747 
Q 947 1113 1208 752 
Q 1469 391 1925 391 
Q 2381 391 2643 752 
Q 2906 1113 2906 1747 
Q 2906 2381 2643 2742 
Q 2381 3103 1925 3103 
Q 1469 3103 1208 2742 
Q 947 2381 947 1747 
z
" transform="scale(0.015625)"/>
     </defs>
     <use xlink:href="#DejaVuSans-6d"/>
     <use xlink:href="#DejaVuSans-61" x="97.412109"/>
     <use xlink:href="#DejaVuSans-78" x="158.691406"/>
     <use xlink:href="#DejaVuSans-5f" x="217.871094"/>
     <use xlink:href="#DejaVuSans-63" x="267.871094"/>
     <use xlink:href="#DejaVuSans-6c" x="322.851562"/>
     <use xlink:href="#DejaVuSans-69" x="350.634766"/>
     <use xlink:href="#DejaVuSans-71" x="378.417969"/>
     <use xlink:href="#DejaVuSans-75" x="441.894531"/>
     <use xlink:href="#DejaVuSans-65" x="505.273438"/>
     <use xlink:href="#DejaVuSans-62" x="566.796875"/>
     <use xlink:href="#DejaVuSans-74" x="630.273438"/>
     <use xlink:href="#DejaVuSans-63" x="669.482422"/>
     <use xlink:href="#DejaVuSans-75" x="724.462891"/>
     <use xlink:href="#DejaVuSans-73" x="787.841797"/>
     <use xlink:href="#DejaVuSans-64" x="839.941406"/>
    </g>
   </g>
   <g id="legend_1">
    <g id="patch_7">
     <path d="M 64.6 93.506375 
L 258.804688 93.506375 
Q 260.804688 93.506375 260.804688 91.506375 
L 260.804688 48.472 
Q 260.804688 46.472 258.804688 46.472 
L 64.6 46.472 
Q 62.6 46.472 62.6 48.472 
L 62.6 91.506375 
Q 62.6 93.506375 64.6 93.506375 
z
" style="fill: #ffffff; opacity: 0.8; stroke: #cccccc; stroke-linejoin: miter"/>
    </g>
    <g id="line2d_16">
     <path d="M 66.6 54.570438 
L 76.6 54.570438 
L 86.6 54.570438 
" style="fill: none; stroke: #1f77b4; stroke-opacity: 0.7; stroke-width: 1.5; stroke-linecap: square"/>
    </g>
    <g id="text_15">
     <!-- Positive cumulative predictions -->
     <g transform="translate(94.6 58.070438) scale(0.1 -0.1)">
      <defs>
       <path id="DejaVuSans-50" d="M 1259 4147 
L 1259 2394 
L 2053 2394 
Q 2494 2394 2734 2622 
Q 2975 2850 2975 3272 
Q 2975 3691 2734 3919 
Q 2494 4147 2053 4147 
L 1259 4147 
z
M 628 4666 
L 2053 4666 
Q 2838 4666 3239 4311 
Q 3641 3956 3641 3272 
Q 3641 2581 3239 2228 
Q 2838 1875 2053 1875 
L 1259 1875 
L 1259 0 
L 628 0 
L 628 4666 
z
" transform="scale(0.015625)"/>
       <path id="DejaVuSans-6f" d="M 1959 3097 
Q 1497 3097 1228 2736 
Q 959 2375 959 1747 
Q 959 1119 1226 758 
Q 1494 397 1959 397 
Q 2419 397 2687 759 
Q 2956 1122 2956 1747 
Q 2956 2369 2687 2733 
Q 2419 3097 1959 3097 
z
M 1959 3584 
Q 2709 3584 3137 3096 
Q 3566 2609 3566 1747 
Q 3566 888 3137 398 
Q 2709 -91 1959 -91 
Q 1206 -91 779 398 
Q 353 888 353 1747 
Q 353 2609 779 3096 
Q 1206 3584 1959 3584 
z
" transform="scale(0.015625)"/>
       <path id="DejaVuSans-76" d="M 191 3500 
L 800 3500 
L 1894 563 
L 2988 3500 
L 3597 3500 
L 2284 0 
L 1503 0 
L 191 3500 
z
" transform="scale(0.015625)"/>
       <path id="DejaVuSans-20" transform="scale(0.015625)"/>
       <path id="DejaVuSans-70" d="M 1159 525 
L 1159 -1331 
L 581 -1331 
L 581 3500 
L 1159 3500 
L 1159 2969 
Q 1341 3281 1617 3432 
Q 1894 3584 2278 3584 
Q 2916 3584 3314 3078 
Q 3713 2572 3713 1747 
Q 3713 922 3314 415 
Q 2916 -91 2278 -91 
Q 1894 -91 1617 61 
Q 1341 213 1159 525 
z
M 3116 1747 
Q 3116 2381 2855 2742 
Q 2594 3103 2138 3103 
Q 1681 3103 1420 2742 
Q 1159 2381 1159 1747 
Q 1159 1113 1420 752 
Q 1681 391 2138 391 
Q 2594 391 2855 752 
Q 3116 1113 3116 1747 
z
" transform="scale(0.015625)"/>
       <path id="DejaVuSans-72" d="M 2631 2963 
Q 2534 3019 2420 3045 
Q 2306 3072 2169 3072 
Q 1681 3072 1420 2755 
Q 1159 2438 1159 1844 
L 1159 0 
L 581 0 
L 581 3500 
L 1159 3500 
L 1159 2956 
Q 1341 3275 1631 3429 
Q 1922 3584 2338 3584 
Q 2397 3584 2469 3576 
Q 2541 3569 2628 3553 
L 2631 2963 
z
" transform="scale(0.015625)"/>
       <path id="DejaVuSans-6e" d="M 3513 2113 
L 3513 0 
L 2938 0 
L 2938 2094 
Q 2938 2591 2744 2837 
Q 2550 3084 2163 3084 
Q 1697 3084 1428 2787 
Q 1159 2491 1159 1978 
L 1159 0 
L 581 0 
L 581 3500 
L 1159 3500 
L 1159 2956 
Q 1366 3272 1645 3428 
Q 1925 3584 2291 3584 
Q 2894 3584 3203 3211 
Q 3513 2838 3513 2113 
z
" transform="scale(0.015625)"/>
      </defs>
      <use xlink:href="#DejaVuSans-50"/>
      <use xlink:href="#DejaVuSans-6f" x="56.677734"/>
      <use xlink:href="#DejaVuSans-73" x="117.859375"/>
      <use xlink:href="#DejaVuSans-69" x="169.958984"/>
      <use xlink:href="#DejaVuSans-74" x="197.742188"/>
      <use xlink:href="#DejaVuSans-69" x="236.951172"/>
      <use xlink:href="#DejaVuSans-76" x="264.734375"/>
      <use xlink:href="#DejaVuSans-65" x="323.914062"/>
      <use xlink:href="#DejaVuSans-20" x="385.4375"/>
      <use xlink:href="#DejaVuSans-63" x="417.224609"/>
      <use xlink:href="#DejaVuSans-75" x="472.205078"/>
      <use xlink:href="#DejaVuSans-6d" x="535.583984"/>
      <use xlink:href="#DejaVuSans-75" x="632.996094"/>
      <use xlink:href="#DejaVuSans-6c" x="696.375"/>
      <use xlink:href="#DejaVuSans-61" x="724.158203"/>
      <use xlink:href="#DejaVuSans-74" x="785.4375"/>
      <use xlink:href="#DejaVuSans-69" x="824.646484"/>
      <use xlink:href="#DejaVuSans-76" x="852.429688"/>
      <use xlink:href="#DejaVuSans-65" x="911.609375"/>
      <use xlink:href="#DejaVuSans-20" x="973.132812"/>
      <use xlink:href="#DejaVuSans-70" x="1004.919922"/>
      <use xlink:href="#DejaVuSans-72" x="1068.396484"/>
      <use xlink:href="#DejaVuSans-65" x="1107.259766"/>
      <use xlink:href="#DejaVuSans-64" x="1168.783203"/>
      <use xlink:href="#DejaVuSans-69" x="1232.259766"/>
      <use xlink:href="#DejaVuSans-63" x="1260.042969"/>
      <use xlink:href="#DejaVuSans-74" x="1315.023438"/>
      <use xlink:href="#DejaVuSans-69" x="1354.232422"/>
      <use xlink:href="#DejaVuSans-6f" x="1382.015625"/>
      <use xlink:href="#DejaVuSans-6e" x="1443.197266"/>
      <use xlink:href="#DejaVuSans-73" x="1506.576172"/>
     </g>
    </g>
    <g id="line2d_17">
     <path d="M 66.6 69.248563 
L 76.6 69.248563 
L 86.6 69.248563 
" style="fill: none; stroke: #ff7f0e; stroke-opacity: 0.7; stroke-width: 1.5; stroke-linecap: square"/>
    </g>
    <g id="text_16">
     <!-- Negative cumulative predictions -->
     <g transform="translate(94.6 72.748563) scale(0.1 -0.1)">
      <defs>
       <path id="DejaVuSans-4e" d="M 628 4666 
L 1478 4666 
L 3547 763 
L 3547 4666 
L 4159 4666 
L 4159 0 
L 3309 0 
L 1241 3903 
L 1241 0 
L 628 0 
L 628 4666 
z
" transform="scale(0.015625)"/>
       <path id="DejaVuSans-67" d="M 2906 1791 
Q 2906 2416 2648 2759 
Q 2391 3103 1925 3103 
Q 1463 3103 1205 2759 
Q 947 2416 947 1791 
Q 947 1169 1205 825 
Q 1463 481 1925 481 
Q 2391 481 2648 825 
Q 2906 1169 2906 1791 
z
M 3481 434 
Q 3481 -459 3084 -895 
Q 2688 -1331 1869 -1331 
Q 1566 -1331 1297 -1286 
Q 1028 -1241 775 -1147 
L 775 -588 
Q 1028 -725 1275 -790 
Q 1522 -856 1778 -856 
Q 2344 -856 2625 -561 
Q 2906 -266 2906 331 
L 2906 616 
Q 2728 306 2450 153 
Q 2172 0 1784 0 
Q 1141 0 747 490 
Q 353 981 353 1791 
Q 353 2603 747 3093 
Q 1141 3584 1784 3584 
Q 2172 3584 2450 3431 
Q 2728 3278 2906 2969 
L 2906 3500 
L 3481 3500 
L 3481 434 
z
" transform="scale(0.015625)"/>
      </defs>
      <use xlink:href="#DejaVuSans-4e"/>
      <use xlink:href="#DejaVuSans-65" x="74.804688"/>
      <use xlink:href="#DejaVuSans-67" x="136.328125"/>
      <use xlink:href="#DejaVuSans-61" x="199.804688"/>
      <use xlink:href="#DejaVuSans-74" x="261.083984"/>
      <use xlink:href="#DejaVuSans-69" x="300.292969"/>
      <use xlink:href="#DejaVuSans-76" x="328.076172"/>
      <use xlink:href="#DejaVuSans-65" x="387.255859"/>
      <use xlink:href="#DejaVuSans-20" x="448.779297"/>
      <use xlink:href="#DejaVuSans-63" x="480.566406"/>
      <use xlink:href="#DejaVuSans-75" x="535.546875"/>
      <use xlink:href="#DejaVuSans-6d" x="598.925781"/>
      <use xlink:href="#DejaVuSans-75" x="696.337891"/>
      <use xlink:href="#DejaVuSans-6c" x="759.716797"/>
      <use xlink:href="#DejaVuSans-61" x="787.5"/>
      <use xlink:href="#DejaVuSans-74" x="848.779297"/>
      <use xlink:href="#DejaVuSans-69" x="887.988281"/>
      <use xlink:href="#DejaVuSans-76" x="915.771484"/>
      <use xlink:href="#DejaVuSans-65" x="974.951172"/>
      <use xlink:href="#DejaVuSans-20" x="1036.474609"/>
      <use xlink:href="#DejaVuSans-70" x="1068.261719"/>
      <use xlink:href="#DejaVuSans-72" x="1131.738281"/>
      <use xlink:href="#DejaVuSans-65" x="1170.601562"/>
      <use xlink:href="#DejaVuSans-64" x="1232.125"/>
      <use xlink:href="#DejaVuSans-69" x="1295.601562"/>
      <use xlink:href="#DejaVuSans-63" x="1323.384766"/>
      <use xlink:href="#DejaVuSans-74" x="1378.365234"/>
      <use xlink:href="#DejaVuSans-69" x="1417.574219"/>
      <use xlink:href="#DejaVuSans-6f" x="1445.357422"/>
      <use xlink:href="#DejaVuSans-6e" x="1506.539062"/>
      <use xlink:href="#DejaVuSans-73" x="1569.917969"/>
     </g>
    </g>
    <g id="line2d_18">
     <path d="M 66.6 83.926688 
L 76.6 83.926688 
L 86.6 83.926688 
" style="fill: none; stroke: #2ca02c; stroke-opacity: 0.7; stroke-width: 1.5; stroke-linecap: square"/>
    </g>
    <g id="text_17">
     <!-- Average cumulative predictions -->
     <g transform="translate(94.6 87.426688) scale(0.1 -0.1)">
      <defs>
       <path id="DejaVuSans-41" d="M 2188 4044 
L 1331 1722 
L 3047 1722 
L 2188 4044 
z
M 1831 4666 
L 2547 4666 
L 4325 0 
L 3669 0 
L 3244 1197 
L 1141 1197 
L 716 0 
L 50 0 
L 1831 4666 
z
" transform="scale(0.015625)"/>
      </defs>
      <use xlink:href="#DejaVuSans-41"/>
      <use xlink:href="#DejaVuSans-76" x="62.533203"/>
      <use xlink:href="#DejaVuSans-65" x="121.712891"/>
      <use xlink:href="#DejaVuSans-72" x="183.236328"/>
      <use xlink:href="#DejaVuSans-61" x="224.349609"/>
      <use xlink:href="#DejaVuSans-67" x="285.628906"/>
      <use xlink:href="#DejaVuSans-65" x="349.105469"/>
      <use xlink:href="#DejaVuSans-20" x="410.628906"/>
      <use xlink:href="#DejaVuSans-63" x="442.416016"/>
      <use xlink:href="#DejaVuSans-75" x="497.396484"/>
      <use xlink:href="#DejaVuSans-6d" x="560.775391"/>
      <use xlink:href="#DejaVuSans-75" x="658.1875"/>
      <use xlink:href="#DejaVuSans-6c" x="721.566406"/>
      <use xlink:href="#DejaVuSans-61" x="749.349609"/>
      <use xlink:href="#DejaVuSans-74" x="810.628906"/>
      <use xlink:href="#DejaVuSans-69" x="849.837891"/>
      <use xlink:href="#DejaVuSans-76" x="877.621094"/>
      <use xlink:href="#DejaVuSans-65" x="936.800781"/>
      <use xlink:href="#DejaVuSans-20" x="998.324219"/>
      <use xlink:href="#DejaVuSans-70" x="1030.111328"/>
      <use xlink:href="#DejaVuSans-72" x="1093.587891"/>
      <use xlink:href="#DejaVuSans-65" x="1132.451172"/>
      <use xlink:href="#DejaVuSans-64" x="1193.974609"/>
      <use xlink:href="#DejaVuSans-69" x="1257.451172"/>
      <use xlink:href="#DejaVuSans-63" x="1285.234375"/>
      <use xlink:href="#DejaVuSans-74" x="1340.214844"/>
      <use xlink:href="#DejaVuSans-69" x="1379.423828"/>
      <use xlink:href="#DejaVuSans-6f" x="1407.207031"/>
      <use xlink:href="#DejaVuSans-6e" x="1468.388672"/>
      <use xlink:href="#DejaVuSans-73" x="1531.767578"/>
     </g>
    </g>
   </g>
  </g>
 </g>
 <defs>
  <clipPath id="p76e6b3228e">
   <rect x="57.6" y="41.472" width="357.12" height="266.112"/>
  </clipPath>
 </defs>
</svg>
