<?xml version="1.0" encoding="utf-8" standalone="no"?>
<!DOCTYPE svg PUBLIC "-//W3C//DTD SVG 1.1//EN"
  "http://www.w3.org/Graphics/SVG/1.1/DTD/svg11.dtd">
<svg xmlns:xlink="http://www.w3.org/1999/xlink" width="460.8pt" height="345.6pt" viewBox="0 0 460.8 345.6" xmlns="http://www.w3.org/2000/svg" version="1.1">
 <metadata>
  <rdf:RDF xmlns:dc="http://purl.org/dc/elements/1.1/" xmlns:cc="http://creativecommons.org/ns#" xmlns:rdf="http://www.w3.org/1999/02/22-rdf-syntax-ns#">
   <cc:Work>
    <dc:type rdf:resource="http://purl.org/dc/dcmitype/StillImage"/>
    <dc:date>2024-07-12T21:13:06.912863</dc:date>
    <dc:format>image/svg+xml</dc:format>
    <dc:creator>
     <cc:Agent>
      <dc:title>Matplotlib v3.9.0, https://matplotlib.org/</dc:title>
     </cc:Agent>
    </dc:creator>
   </cc:Work>
  </rdf:RDF>
 </metadata>
 <defs>
  <style type="text/css">*{stroke-linejoin: round; stroke-linecap: butt}</style>
 </defs>
 <g id="figure_1">
  <g id="patch_1">
   <path d="M 0 345.6 
L 460.8 345.6 
L 460.8 0 
L 0 0 
z
" style="fill: #ffffff"/>
  </g>
  <g id="axes_1">
   <g id="patch_2">
    <path d="M 57.6 307.584 
L 414.72 307.584 
L 414.72 41.472 
L 57.6 41.472 
z
" style="fill: #ffffff"/>
   </g>
   <g id="matplotlib.axis_1">
    <g id="xtick_1">
     <g id="line2d_1">
      <defs>
       <path id="ma5c7bad456" d="M 0 0 
L 0 3.5 
" style="stroke: #000000; stroke-width: 0.8"/>
      </defs>
      <g>
       <use xlink:href="#ma5c7bad456" x="73.832727" y="307.584" style="stroke: #000000; stroke-width: 0.8"/>
      </g>
     </g>
     <g id="text_1">
      <!-- 0 -->
      <g transform="translate(70.651477 322.182437) scale(0.1 -0.1)">
       <defs>
        <path id="DejaVuSans-30" d="M 2034 4250 
Q 1547 4250 1301 3770 
Q 1056 3291 1056 2328 
Q 1056 1369 1301 889 
Q 1547 409 2034 409 
Q 2525 409 2770 889 
Q 3016 1369 3016 2328 
Q 3016 3291 2770 3770 
Q 2525 4250 2034 4250 
z
M 2034 4750 
Q 2819 4750 3233 4129 
Q 3647 3509 3647 2328 
Q 3647 1150 3233 529 
Q 2819 -91 2034 -91 
Q 1250 -91 836 529 
Q 422 1150 422 2328 
Q 422 3509 836 4129 
Q 1250 4750 2034 4750 
z
" transform="scale(0.015625)"/>
       </defs>
       <use xlink:href="#DejaVuSans-30"/>
      </g>
     </g>
    </g>
    <g id="xtick_2">
     <g id="line2d_2">
      <g>
       <use xlink:href="#ma5c7bad456" x="118.003414" y="307.584" style="stroke: #000000; stroke-width: 0.8"/>
      </g>
     </g>
     <g id="text_2">
      <!-- 20 -->
      <g transform="translate(111.640914 322.182437) scale(0.1 -0.1)">
       <defs>
        <path id="DejaVuSans-32" d="M 1228 531 
L 3431 531 
L 3431 0 
L 469 0 
L 469 531 
Q 828 903 1448 1529 
Q 2069 2156 2228 2338 
Q 2531 2678 2651 2914 
Q 2772 3150 2772 3378 
Q 2772 3750 2511 3984 
Q 2250 4219 1831 4219 
Q 1534 4219 1204 4116 
Q 875 4013 500 3803 
L 500 4441 
Q 881 4594 1212 4672 
Q 1544 4750 1819 4750 
Q 2544 4750 2975 4387 
Q 3406 4025 3406 3419 
Q 3406 3131 3298 2873 
Q 3191 2616 2906 2266 
Q 2828 2175 2409 1742 
Q 1991 1309 1228 531 
z
" transform="scale(0.015625)"/>
       </defs>
       <use xlink:href="#DejaVuSans-32"/>
       <use xlink:href="#DejaVuSans-30" x="63.623047"/>
      </g>
     </g>
    </g>
    <g id="xtick_3">
     <g id="line2d_3">
      <g>
       <use xlink:href="#ma5c7bad456" x="162.1741" y="307.584" style="stroke: #000000; stroke-width: 0.8"/>
      </g>
     </g>
     <g id="text_3">
      <!-- 40 -->
      <g transform="translate(155.8116 322.182437) scale(0.1 -0.1)">
       <defs>
        <path id="DejaVuSans-34" d="M 2419 4116 
L 825 1625 
L 2419 1625 
L 2419 4116 
z
M 2253 4666 
L 3047 4666 
L 3047 1625 
L 3713 1625 
L 3713 1100 
L 3047 1100 
L 3047 0 
L 2419 0 
L 2419 1100 
L 313 1100 
L 313 1709 
L 2253 4666 
z
" transform="scale(0.015625)"/>
       </defs>
       <use xlink:href="#DejaVuSans-34"/>
       <use xlink:href="#DejaVuSans-30" x="63.623047"/>
      </g>
     </g>
    </g>
    <g id="xtick_4">
     <g id="line2d_4">
      <g>
       <use xlink:href="#ma5c7bad456" x="206.344787" y="307.584" style="stroke: #000000; stroke-width: 0.8"/>
      </g>
     </g>
     <g id="text_4">
      <!-- 60 -->
      <g transform="translate(199.982287 322.182437) scale(0.1 -0.1)">
       <defs>
        <path id="DejaVuSans-36" d="M 2113 2584 
Q 1688 2584 1439 2293 
Q 1191 2003 1191 1497 
Q 1191 994 1439 701 
Q 1688 409 2113 409 
Q 2538 409 2786 701 
Q 3034 994 3034 1497 
Q 3034 2003 2786 2293 
Q 2538 2584 2113 2584 
z
M 3366 4563 
L 3366 3988 
Q 3128 4100 2886 4159 
Q 2644 4219 2406 4219 
Q 1781 4219 1451 3797 
Q 1122 3375 1075 2522 
Q 1259 2794 1537 2939 
Q 1816 3084 2150 3084 
Q 2853 3084 3261 2657 
Q 3669 2231 3669 1497 
Q 3669 778 3244 343 
Q 2819 -91 2113 -91 
Q 1303 -91 875 529 
Q 447 1150 447 2328 
Q 447 3434 972 4092 
Q 1497 4750 2381 4750 
Q 2619 4750 2861 4703 
Q 3103 4656 3366 4563 
z
" transform="scale(0.015625)"/>
       </defs>
       <use xlink:href="#DejaVuSans-36"/>
       <use xlink:href="#DejaVuSans-30" x="63.623047"/>
      </g>
     </g>
    </g>
    <g id="xtick_5">
     <g id="line2d_5">
      <g>
       <use xlink:href="#ma5c7bad456" x="250.515473" y="307.584" style="stroke: #000000; stroke-width: 0.8"/>
      </g>
     </g>
     <g id="text_5">
      <!-- 80 -->
      <g transform="translate(244.152973 322.182437) scale(0.1 -0.1)">
       <defs>
        <path id="DejaVuSans-38" d="M 2034 2216 
Q 1584 2216 1326 1975 
Q 1069 1734 1069 1313 
Q 1069 891 1326 650 
Q 1584 409 2034 409 
Q 2484 409 2743 651 
Q 3003 894 3003 1313 
Q 3003 1734 2745 1975 
Q 2488 2216 2034 2216 
z
M 1403 2484 
Q 997 2584 770 2862 
Q 544 3141 544 3541 
Q 544 4100 942 4425 
Q 1341 4750 2034 4750 
Q 2731 4750 3128 4425 
Q 3525 4100 3525 3541 
Q 3525 3141 3298 2862 
Q 3072 2584 2669 2484 
Q 3125 2378 3379 2068 
Q 3634 1759 3634 1313 
Q 3634 634 3220 271 
Q 2806 -91 2034 -91 
Q 1263 -91 848 271 
Q 434 634 434 1313 
Q 434 1759 690 2068 
Q 947 2378 1403 2484 
z
M 1172 3481 
Q 1172 3119 1398 2916 
Q 1625 2713 2034 2713 
Q 2441 2713 2670 2916 
Q 2900 3119 2900 3481 
Q 2900 3844 2670 4047 
Q 2441 4250 2034 4250 
Q 1625 4250 1398 4047 
Q 1172 3844 1172 3481 
z
" transform="scale(0.015625)"/>
       </defs>
       <use xlink:href="#DejaVuSans-38"/>
       <use xlink:href="#DejaVuSans-30" x="63.623047"/>
      </g>
     </g>
    </g>
    <g id="xtick_6">
     <g id="line2d_6">
      <g>
       <use xlink:href="#ma5c7bad456" x="294.68616" y="307.584" style="stroke: #000000; stroke-width: 0.8"/>
      </g>
     </g>
     <g id="text_6">
      <!-- 100 -->
      <g transform="translate(285.14241 322.182437) scale(0.1 -0.1)">
       <defs>
        <path id="DejaVuSans-31" d="M 794 531 
L 1825 531 
L 1825 4091 
L 703 3866 
L 703 4441 
L 1819 4666 
L 2450 4666 
L 2450 531 
L 3481 531 
L 3481 0 
L 794 0 
L 794 531 
z
" transform="scale(0.015625)"/>
       </defs>
       <use xlink:href="#DejaVuSans-31"/>
       <use xlink:href="#DejaVuSans-30" x="63.623047"/>
       <use xlink:href="#DejaVuSans-30" x="127.246094"/>
      </g>
     </g>
    </g>
    <g id="xtick_7">
     <g id="line2d_7">
      <g>
       <use xlink:href="#ma5c7bad456" x="338.856846" y="307.584" style="stroke: #000000; stroke-width: 0.8"/>
      </g>
     </g>
     <g id="text_7">
      <!-- 120 -->
      <g transform="translate(329.313096 322.182437) scale(0.1 -0.1)">
       <use xlink:href="#DejaVuSans-31"/>
       <use xlink:href="#DejaVuSans-32" x="63.623047"/>
       <use xlink:href="#DejaVuSans-30" x="127.246094"/>
      </g>
     </g>
    </g>
    <g id="xtick_8">
     <g id="line2d_8">
      <g>
       <use xlink:href="#ma5c7bad456" x="383.027532" y="307.584" style="stroke: #000000; stroke-width: 0.8"/>
      </g>
     </g>
     <g id="text_8">
      <!-- 140 -->
      <g transform="translate(373.483782 322.182437) scale(0.1 -0.1)">
       <use xlink:href="#DejaVuSans-31"/>
       <use xlink:href="#DejaVuSans-34" x="63.623047"/>
       <use xlink:href="#DejaVuSans-30" x="127.246094"/>
      </g>
     </g>
    </g>
   </g>
   <g id="matplotlib.axis_2">
    <g id="ytick_1">
     <g id="line2d_9">
      <defs>
       <path id="m6364daeabe" d="M 0 0 
L -3.5 0 
" style="stroke: #000000; stroke-width: 0.8"/>
      </defs>
      <g>
       <use xlink:href="#m6364daeabe" x="57.6" y="281.457208" style="stroke: #000000; stroke-width: 0.8"/>
      </g>
     </g>
     <g id="text_9">
      <!-- −300 -->
      <g transform="translate(23.132812 285.256427) scale(0.1 -0.1)">
       <defs>
        <path id="DejaVuSans-2212" d="M 678 2272 
L 4684 2272 
L 4684 1741 
L 678 1741 
L 678 2272 
z
" transform="scale(0.015625)"/>
        <path id="DejaVuSans-33" d="M 2597 2516 
Q 3050 2419 3304 2112 
Q 3559 1806 3559 1356 
Q 3559 666 3084 287 
Q 2609 -91 1734 -91 
Q 1441 -91 1130 -33 
Q 819 25 488 141 
L 488 750 
Q 750 597 1062 519 
Q 1375 441 1716 441 
Q 2309 441 2620 675 
Q 2931 909 2931 1356 
Q 2931 1769 2642 2001 
Q 2353 2234 1838 2234 
L 1294 2234 
L 1294 2753 
L 1863 2753 
Q 2328 2753 2575 2939 
Q 2822 3125 2822 3475 
Q 2822 3834 2567 4026 
Q 2313 4219 1838 4219 
Q 1578 4219 1281 4162 
Q 984 4106 628 3988 
L 628 4550 
Q 988 4650 1302 4700 
Q 1616 4750 1894 4750 
Q 2613 4750 3031 4423 
Q 3450 4097 3450 3541 
Q 3450 3153 3228 2886 
Q 3006 2619 2597 2516 
z
" transform="scale(0.015625)"/>
       </defs>
       <use xlink:href="#DejaVuSans-2212"/>
       <use xlink:href="#DejaVuSans-33" x="83.789062"/>
       <use xlink:href="#DejaVuSans-30" x="147.412109"/>
       <use xlink:href="#DejaVuSans-30" x="211.035156"/>
      </g>
     </g>
    </g>
    <g id="ytick_2">
     <g id="line2d_10">
      <g>
       <use xlink:href="#m6364daeabe" x="57.6" y="246.068492" style="stroke: #000000; stroke-width: 0.8"/>
      </g>
     </g>
     <g id="text_10">
      <!-- −200 -->
      <g transform="translate(23.132812 249.867711) scale(0.1 -0.1)">
       <use xlink:href="#DejaVuSans-2212"/>
       <use xlink:href="#DejaVuSans-32" x="83.789062"/>
       <use xlink:href="#DejaVuSans-30" x="147.412109"/>
       <use xlink:href="#DejaVuSans-30" x="211.035156"/>
      </g>
     </g>
    </g>
    <g id="ytick_3">
     <g id="line2d_11">
      <g>
       <use xlink:href="#m6364daeabe" x="57.6" y="210.679777" style="stroke: #000000; stroke-width: 0.8"/>
      </g>
     </g>
     <g id="text_11">
      <!-- −100 -->
      <g transform="translate(23.132812 214.478995) scale(0.1 -0.1)">
       <use xlink:href="#DejaVuSans-2212"/>
       <use xlink:href="#DejaVuSans-31" x="83.789062"/>
       <use xlink:href="#DejaVuSans-30" x="147.412109"/>
       <use xlink:href="#DejaVuSans-30" x="211.035156"/>
      </g>
     </g>
    </g>
    <g id="ytick_4">
     <g id="line2d_12">
      <g>
       <use xlink:href="#m6364daeabe" x="57.6" y="175.291061" style="stroke: #000000; stroke-width: 0.8"/>
      </g>
     </g>
     <g id="text_12">
      <!-- 0 -->
      <g transform="translate(44.2375 179.09028) scale(0.1 -0.1)">
       <use xlink:href="#DejaVuSans-30"/>
      </g>
     </g>
    </g>
    <g id="ytick_5">
     <g id="line2d_13">
      <g>
       <use xlink:href="#m6364daeabe" x="57.6" y="139.902345" style="stroke: #000000; stroke-width: 0.8"/>
      </g>
     </g>
     <g id="text_13">
      <!-- 100 -->
      <g transform="translate(31.5125 143.701564) scale(0.1 -0.1)">
       <use xlink:href="#DejaVuSans-31"/>
       <use xlink:href="#DejaVuSans-30" x="63.623047"/>
       <use xlink:href="#DejaVuSans-30" x="127.246094"/>
      </g>
     </g>
    </g>
    <g id="ytick_6">
     <g id="line2d_14">
      <g>
       <use xlink:href="#m6364daeabe" x="57.6" y="104.513629" style="stroke: #000000; stroke-width: 0.8"/>
      </g>
     </g>
     <g id="text_14">
      <!-- 200 -->
      <g transform="translate(31.5125 108.312848) scale(0.1 -0.1)">
       <use xlink:href="#DejaVuSans-32"/>
       <use xlink:href="#DejaVuSans-30" x="63.623047"/>
       <use xlink:href="#DejaVuSans-30" x="127.246094"/>
      </g>
     </g>
    </g>
    <g id="ytick_7">
     <g id="line2d_15">
      <g>
       <use xlink:href="#m6364daeabe" x="57.6" y="69.124914" style="stroke: #000000; stroke-width: 0.8"/>
      </g>
     </g>
     <g id="text_15">
      <!-- 300 -->
      <g transform="translate(31.5125 72.924132) scale(0.1 -0.1)">
       <use xlink:href="#DejaVuSans-33"/>
       <use xlink:href="#DejaVuSans-30" x="63.623047"/>
       <use xlink:href="#DejaVuSans-30" x="127.246094"/>
      </g>
     </g>
    </g>
   </g>
   <g id="line2d_16">
    <path d="M 73.832727 176.14799 
L 76.041262 178.016185 
L 78.249796 176.862649 
L 80.45833 184.737703 
L 82.666865 173.677483 
L 84.875399 177.366693 
L 87.083933 177.99772 
L 89.292468 178.986519 
L 91.501002 176.361669 
L 93.709536 180.367888 
L 95.918071 178.166743 
L 98.126605 177.974376 
L 100.335139 178.597799 
L 102.543673 177.10181 
L 104.752208 176.915121 
L 106.960742 176.233801 
L 109.169276 174.241233 
L 111.377811 182.331135 
L 113.586345 181.027872 
L 115.794879 181.34665 
L 118.003414 176.765162 
L 120.211948 179.386149 
L 122.420482 185.690425 
L 124.629017 182.539367 
L 126.837551 181.026126 
L 129.046085 178.929063 
L 131.25462 180.124059 
L 133.463154 179.935045 
L 135.671688 181.350696 
L 137.880223 177.76526 
L 140.088757 174.850726 
L 142.297291 176.331079 
L 144.505826 180.894271 
L 146.71436 178.171265 
L 148.922894 177.432661 
L 151.131429 177.055385 
L 153.339963 170.897056 
L 155.548497 181.781767 
L 157.757032 179.907168 
L 159.965566 175.993607 
L 162.1741 175.670919 
L 164.382635 180.739126 
L 166.591169 175.212173 
L 168.799703 178.975647 
L 171.008237 178.149157 
L 173.216772 177.90996 
L 175.425306 180.648592 
L 177.63384 177.72901 
L 179.842375 175.998717 
L 182.050909 182.987626 
L 184.259443 170.624354 
L 186.467978 178.427585 
L 188.676512 186.800545 
L 190.885046 180.947089 
L 193.093581 176.137737 
L 195.302115 181.656256 
L 197.510649 186.03981 
L 199.719184 189.685928 
L 201.927718 177.876625 
L 204.136252 188.345138 
L 206.344787 182.05662 
L 208.553321 178.414519 
L 210.761855 180.899055 
L 212.97039 186.324715 
L 215.178924 176.331285 
L 217.387458 186.443905 
L 219.595993 185.416934 
L 221.804527 180.124002 
L 224.013061 190.358142 
L 226.221596 171.954145 
L 228.43013 180.912293 
L 230.638664 178.921655 
L 232.847199 180.955997 
L 235.055733 182.166692 
L 237.264267 183.190595 
L 239.472801 179.930266 
L 241.681336 180.300677 
L 243.88987 180.526051 
L 246.098404 177.098957 
L 248.306939 180.769982 
L 252.724007 178.283128 
L 254.932542 178.723426 
L 257.141076 174.358482 
L 259.34961 178.496008 
L 261.558145 182.160678 
L 263.766679 183.943815 
L 265.975213 178.787586 
L 268.183748 180.821832 
L 270.392282 179.213252 
L 272.600816 180.57959 
L 274.809351 181.014756 
L 277.017885 183.118826 
L 279.226419 180.688763 
L 281.434954 179.981264 
L 283.643488 179.986039 
L 285.852022 173.878773 
L 288.060557 181.677735 
L 290.269091 170.102387 
L 292.477625 188.030674 
L 294.68616 178.906293 
L 296.894694 182.273256 
L 299.103228 189.131276 
L 301.311763 186.305736 
L 303.520297 180.851051 
L 305.728831 177.138273 
L 307.937365 180.571622 
L 310.1459 192.024152 
L 312.354434 169.576561 
L 314.562968 183.373962 
L 316.771503 184.79563 
L 318.980037 187.152684 
L 321.188571 189.078413 
L 323.397106 183.70809 
L 325.60564 186.864803 
L 327.814174 180.813234 
L 330.022709 187.048758 
L 332.231243 188.049253 
L 334.439777 188.671617 
L 336.648312 194.324988 
L 338.856846 189.985635 
L 341.06538 178.469622 
L 343.273915 183.737165 
L 345.482449 184.012114 
L 347.690983 187.931528 
L 349.899518 183.576699 
L 352.108052 177.074622 
L 354.316586 181.543216 
L 356.525121 185.619821 
L 358.733655 183.019952 
L 360.942189 187.037 
L 363.150724 185.337797 
L 365.359258 188.052835 
L 367.567792 186.630888 
L 369.776327 177.878461 
L 371.984861 183.560336 
L 374.193395 188.63683 
L 376.401929 184.241641 
L 378.610464 187.221063 
L 380.818998 179.899634 
L 383.027532 169.694261 
L 385.236067 179.249609 
L 387.444601 180.252622 
L 389.653135 180.843394 
L 391.86167 182.620164 
L 394.070204 183.05859 
L 396.278738 186.590254 
L 398.487273 188.785666 
L 398.487273 188.785666 
" clip-path="url(#p4bd2bfea64)" style="fill: none; stroke: #008000; stroke-opacity: 0.8; stroke-width: 0.5; stroke-linecap: square"/>
   </g>
   <g id="line2d_17">
    <path d="M 73.832727 160.462727 
L 76.041262 165.589792 
L 78.249796 153.57099 
L 80.45833 156.247163 
L 82.666865 153.408082 
L 84.875399 158.900798 
L 87.083933 168.414358 
L 89.292468 166.885377 
L 91.501002 169.856223 
L 93.709536 164.586046 
L 95.918071 169.790375 
L 98.126605 168.298305 
L 100.335139 169.711647 
L 102.543673 170.540962 
L 104.752208 170.600622 
L 106.960742 169.417499 
L 109.169276 139.692069 
L 111.377811 155.40442 
L 113.586345 156.634097 
L 115.794879 160.186674 
L 118.003414 143.138607 
L 120.211948 156.463662 
L 122.420482 160.59093 
L 124.629017 157.283308 
L 126.837551 169.672831 
L 129.046085 172.197721 
L 131.25462 170.295947 
L 133.463154 157.172077 
L 135.671688 173.47088 
L 137.880223 167.995369 
L 140.088757 164.288021 
L 142.297291 150.580951 
L 144.505826 163.586606 
L 146.71436 172.149241 
L 148.922894 168.298259 
L 151.131429 167.291384 
L 153.339963 146.021025 
L 155.548497 143.257188 
L 157.757032 154.976821 
L 159.965566 168.703397 
L 162.1741 164.831086 
L 164.382635 159.033859 
L 166.591169 168.261096 
L 168.799703 172.927097 
L 171.008237 170.761331 
L 173.216772 160.50396 
L 175.425306 173.985843 
L 177.63384 169.02018 
L 179.842375 158.075942 
L 182.050909 156.179416 
L 184.259443 134.17996 
L 186.467978 106.509558 
L 188.676512 71.446391 
L 190.885046 130.256743 
L 193.093581 129.572443 
L 195.302115 146.465198 
L 197.510649 141.070212 
L 199.719184 172.387717 
L 201.927718 108.640023 
L 204.136252 155.964243 
L 206.344787 160.470239 
L 208.553321 166.512842 
L 210.761855 162.619464 
L 212.97039 172.002283 
L 215.178924 140.23296 
L 217.387458 157.201852 
L 219.595993 161.432809 
L 221.804527 160.920126 
L 224.013061 139.328367 
L 226.221596 152.001769 
L 228.43013 165.983034 
L 230.638664 166.756442 
L 232.847199 154.081124 
L 235.055733 167.269849 
L 237.264267 139.396829 
L 239.472801 170.998858 
L 241.681336 142.753832 
L 243.88987 147.110074 
L 246.098404 160.829675 
L 248.306939 171.224498 
L 250.515473 164.134169 
L 252.724007 154.611068 
L 254.932542 164.895539 
L 257.141076 159.504289 
L 259.34961 155.143195 
L 261.558145 166.930181 
L 263.766679 160.529566 
L 265.975213 164.114919 
L 268.183748 163.174711 
L 270.392282 164.261912 
L 272.600816 156.887318 
L 274.809351 148.74 
L 277.017885 164.518065 
L 281.434954 167.592241 
L 283.643488 147.03278 
L 285.852022 154.41876 
L 288.060557 166.739709 
L 290.269091 126.583842 
L 292.477625 156.111888 
L 294.68616 136.1764 
L 296.894694 148.25187 
L 299.103228 149.625577 
L 301.311763 155.321233 
L 303.520297 162.987753 
L 305.728831 112.73805 
L 307.937365 119.766229 
L 310.1459 133.400489 
L 312.354434 143.365035 
L 314.562968 130.435829 
L 316.771503 163.022564 
L 318.980037 154.912243 
L 321.188571 169.830529 
L 323.397106 158.376447 
L 325.60564 125.107145 
L 327.814174 128.212276 
L 330.022709 150.724775 
L 332.231243 149.049729 
L 334.439777 150.852435 
L 336.648312 154.132119 
L 338.856846 164.6036 
L 341.06538 151.631308 
L 343.273915 160.159818 
L 345.482449 158.682009 
L 347.690983 165.50203 
L 349.899518 165.977994 
L 352.108052 152.668572 
L 354.316586 147.884246 
L 356.525121 153.408981 
L 358.733655 158.538737 
L 360.942189 163.294666 
L 363.150724 172.536374 
L 365.359258 170.20867 
L 367.567792 164.701264 
L 369.776327 161.894612 
L 371.984861 168.48214 
L 374.193395 165.738147 
L 376.401929 169.049768 
L 378.610464 169.439861 
L 380.818998 155.123726 
L 383.027532 155.357261 
L 385.236067 155.183946 
L 387.444601 158.476093 
L 389.653135 147.857721 
L 391.86167 161.41528 
L 394.070204 177.844514 
L 396.278738 165.336602 
L 398.487273 164.383479 
L 398.487273 164.383479 
" clip-path="url(#p4bd2bfea64)" style="fill: none; stroke: #32cd32; stroke-opacity: 0.8; stroke-width: 0.5; stroke-linecap: square"/>
   </g>
   <g id="line2d_18">
    <path d="M 73.832727 190.943526 
L 76.041262 195.134834 
L 78.249796 205.646803 
L 80.45833 200.570734 
L 82.666865 185.821329 
L 84.875399 195.674952 
L 87.083933 183.734786 
L 89.292468 193.480826 
L 91.501002 182.524504 
L 93.709536 188.262915 
L 95.918071 186.227068 
L 98.126605 186.326605 
L 100.335139 187.962009 
L 102.543673 183.030989 
L 104.752208 184.454695 
L 106.960742 184.671678 
L 109.169276 203.624411 
L 111.377811 208.428342 
L 113.586345 201.672292 
L 115.794879 198.392854 
L 118.003414 192.132619 
L 120.211948 230.343452 
L 124.629017 197.396797 
L 129.046085 187.182589 
L 131.25462 192.606159 
L 133.463154 187.916535 
L 135.671688 194.711072 
L 137.880223 189.420299 
L 140.088757 188.636531 
L 142.297291 189.391598 
L 144.505826 202.020203 
L 146.71436 183.608338 
L 148.922894 187.883565 
L 151.131429 182.912335 
L 153.339963 184.442621 
L 155.548497 199.711067 
L 159.965566 190.566959 
L 162.1741 185.744858 
L 164.382635 194.260181 
L 166.591169 183.014598 
L 168.799703 186.139085 
L 171.008237 184.271243 
L 173.216772 193.234908 
L 175.425306 190.643143 
L 177.63384 186.476447 
L 179.842375 188.559299 
L 182.050909 198.352921 
L 184.259443 184.615969 
L 186.467978 245.016551 
L 188.676512 295.488 
L 190.885046 234.125509 
L 193.093581 212.330674 
L 195.302115 223.080033 
L 197.510649 209.790099 
L 199.719184 216.817741 
L 201.927718 230.23098 
L 204.136252 214.67806 
L 206.344787 219.851561 
L 208.553321 199.6096 
L 210.761855 196.576835 
L 212.97039 200.508555 
L 215.178924 207.527163 
L 217.387458 218.785264 
L 219.595993 204.043874 
L 221.804527 196.109784 
L 224.013061 208.677288 
L 226.221596 187.161573 
L 228.43013 203.351997 
L 230.638664 202.599108 
L 232.847199 196.851696 
L 235.055733 199.955455 
L 237.264267 212.203841 
L 239.472801 193.813986 
L 241.681336 216.294812 
L 243.88987 200.74709 
L 246.098404 196.21496 
L 248.306939 190.330055 
L 250.515473 196.753145 
L 252.724007 199.807737 
L 254.932542 193.426235 
L 257.141076 192.451892 
L 259.34961 200.414601 
L 261.558145 197.498344 
L 263.766679 205.58726 
L 265.975213 192.807227 
L 268.183748 197.475681 
L 270.392282 199.01865 
L 272.600816 202.590299 
L 274.809351 201.971324 
L 277.017885 207.925228 
L 279.226419 187.982379 
L 281.434954 193.543822 
L 283.643488 212.321113 
L 285.852022 215.201756 
L 288.060557 216.578184 
L 290.269091 197.226679 
L 292.477625 219.89363 
L 294.68616 213.958071 
L 296.894694 220.434559 
L 299.103228 230.365527 
L 301.311763 205.967427 
L 303.520297 199.585293 
L 305.728831 226.743886 
L 307.937365 233.425839 
L 310.1459 229.045041 
L 312.354434 205.072112 
L 314.562968 220.779125 
L 316.771503 216.27687 
L 318.980037 231.994901 
L 321.188571 216.542168 
L 323.397106 210.431218 
L 325.60564 224.127582 
L 327.814174 210.080181 
L 330.022709 228.548821 
L 332.231243 234.24721 
L 334.439777 226.395911 
L 336.648312 253.712507 
L 341.06538 201.406585 
L 343.273915 209.478101 
L 345.482449 212.829969 
L 347.690983 211.560952 
L 349.899518 204.09085 
L 352.108052 198.977957 
L 354.316586 211.100388 
L 356.525121 199.963389 
L 358.733655 197.50288 
L 360.942189 213.501888 
L 363.150724 211.873541 
L 365.359258 208.568009 
L 367.567792 203.301999 
L 369.776327 192.141752 
L 371.984861 199.588012 
L 374.193395 199.011462 
L 376.401929 199.326506 
L 378.610464 206.275895 
L 380.818998 204.846358 
L 383.027532 186.650297 
L 385.236067 193.678263 
L 387.444601 195.754205 
L 389.653135 206.908513 
L 391.86167 209.290666 
L 394.070204 189.999073 
L 396.278738 201.65083 
L 398.487273 206.59854 
L 398.487273 206.59854 
" clip-path="url(#p4bd2bfea64)" style="fill: none; stroke: #32cd32; stroke-opacity: 0.8; stroke-width: 0.5; stroke-linecap: square"/>
   </g>
   <g id="line2d_19">
    <path d="M 73.832727 179.279687 
L 76.041262 177.266034 
L 78.249796 168.558074 
L 80.45833 173.757425 
L 82.666865 170.070247 
L 84.875399 175.336099 
L 87.083933 170.12005 
L 89.292468 172.474256 
L 91.501002 170.631306 
L 93.709536 174.825456 
L 95.918071 172.094929 
L 98.126605 175.339107 
L 100.335139 174.62836 
L 102.543673 173.543649 
L 104.752208 172.822414 
L 106.960742 173.139852 
L 109.169276 169.454802 
L 111.377811 168.032096 
L 113.586345 172.196832 
L 115.794879 174.231577 
L 118.003414 167.985022 
L 120.211948 171.607577 
L 122.420482 173.220213 
L 124.629017 173.552558 
L 126.837551 172.660173 
L 129.046085 171.140109 
L 131.25462 171.616375 
L 133.463154 167.150417 
L 135.671688 173.401704 
L 137.880223 172.985261 
L 140.088757 168.142817 
L 142.297291 167.946076 
L 144.505826 172.24068 
L 146.71436 175.58772 
L 148.922894 171.337519 
L 151.131429 171.145858 
L 153.339963 166.574492 
L 155.548497 172.37959 
L 157.757032 168.436736 
L 159.965566 172.462946 
L 162.1741 169.888258 
L 164.382635 170.49934 
L 166.591169 171.654099 
L 168.799703 176.626262 
L 171.008237 173.786882 
L 173.216772 172.444344 
L 175.425306 174.648427 
L 177.63384 172.448349 
L 179.842375 172.547672 
L 182.050909 176.04761 
L 184.259443 163.957022 
L 186.467978 160.682477 
L 188.676512 159.528766 
L 190.885046 175.612998 
L 193.093581 173.878477 
L 195.302115 164.31986 
L 197.510649 163.370222 
L 199.719184 169.503793 
L 201.927718 163.027517 
L 204.136252 170.500872 
L 206.344787 165.465242 
L 208.553321 165.885236 
L 210.761855 173.59669 
L 212.97039 174.777171 
L 215.178924 164.587294 
L 217.387458 165.923527 
L 219.595993 173.544627 
L 221.804527 160.850865 
L 224.013061 178.96846 
L 226.221596 168.248226 
L 228.43013 174.173572 
L 230.638664 173.18223 
L 232.847199 175.885098 
L 235.055733 169.600341 
L 237.264267 171.097157 
L 239.472801 169.263109 
L 241.681336 165.907504 
L 243.88987 173.414511 
L 246.098404 173.618879 
L 248.306939 168.626777 
L 250.515473 172.823161 
L 252.724007 169.174778 
L 254.932542 169.589123 
L 257.141076 171.578999 
L 259.34961 173.935794 
L 261.558145 171.701221 
L 263.766679 172.77563 
L 265.975213 172.410745 
L 268.183748 171.510938 
L 270.392282 169.19125 
L 272.600816 170.297166 
L 274.809351 168.874696 
L 277.017885 171.875218 
L 279.226419 174.554791 
L 281.434954 169.483771 
L 283.643488 165.944479 
L 285.852022 166.14568 
L 288.060557 179.195384 
L 290.269091 161.741477 
L 292.477625 170.394499 
L 294.68616 160.329284 
L 296.894694 161.103073 
L 299.103228 165.432657 
L 301.311763 166.598028 
L 303.520297 159.945357 
L 305.728831 158.260657 
L 307.937365 164.330312 
L 310.1459 169.675612 
L 312.354434 148.5364 
L 314.562968 169.545761 
L 316.771503 165.478774 
L 318.980037 176.351746 
L 321.188571 171.308447 
L 323.397106 161.448194 
L 325.60564 161.27191 
L 327.814174 155.953454 
L 330.022709 172.754591 
L 332.231243 166.035601 
L 334.439777 162.911337 
L 336.648312 168.289264 
L 338.856846 160.862902 
L 341.06538 156.279373 
L 343.273915 164.272039 
L 345.482449 166.651078 
L 347.690983 167.530933 
L 349.899518 166.533899 
L 352.108052 164.540483 
L 354.316586 167.751798 
L 356.525121 170.469837 
L 358.733655 170.337376 
L 360.942189 169.600177 
L 363.150724 168.579398 
L 365.359258 174.170697 
L 367.567792 173.634767 
L 369.776327 168.485684 
L 371.984861 175.363994 
L 374.193395 172.641556 
L 376.401929 167.062565 
L 378.610464 171.813808 
L 380.818998 170.82456 
L 383.027532 165.79589 
L 385.236067 167.941119 
L 387.444601 167.448471 
L 389.653135 168.589216 
L 391.86167 168.503304 
L 394.070204 169.043527 
L 396.278738 174.258455 
L 398.487273 173.444752 
L 398.487273 173.444752 
" clip-path="url(#p4bd2bfea64)" style="fill: none; stroke: #ff0000; stroke-opacity: 0.8; stroke-width: 0.5; stroke-linecap: square"/>
   </g>
   <g id="line2d_20">
    <path d="M 73.832727 160.743499 
L 76.041262 162.679338 
L 78.249796 147.362795 
L 80.45833 153.728668 
L 82.666865 158.303887 
L 84.875399 159.458786 
L 87.083933 164.479258 
L 89.292468 159.184653 
L 91.501002 164.526993 
L 93.709536 160.697612 
L 95.918071 163.209836 
L 98.126605 164.876791 
L 100.335139 167.234055 
L 102.543673 167.967083 
L 104.752208 164.376012 
L 106.960742 166.298243 
L 109.169276 141.289518 
L 111.377811 144.775875 
L 113.586345 151.347044 
L 115.794879 153.349171 
L 118.003414 134.670954 
L 120.211948 154.206419 
L 122.420482 147.099174 
L 124.629017 155.090578 
L 126.837551 152.691811 
L 129.046085 162.199361 
L 131.25462 159.87812 
L 133.463154 148.214796 
L 135.671688 164.629746 
L 137.880223 164.58776 
L 140.088757 149.772997 
L 142.297291 144.891051 
L 144.505826 153.855079 
L 146.71436 168.279945 
L 148.922894 158.305003 
L 151.131429 162.308214 
L 153.339963 141.35768 
L 155.548497 135.484069 
L 157.757032 140.391126 
L 159.965566 161.604669 
L 162.1741 159.053325 
L 164.382635 152.205828 
L 166.591169 162.741528 
L 168.799703 165.032783 
L 171.008237 165.226037 
L 173.216772 163.794838 
L 175.425306 169.362895 
L 177.63384 163.701965 
L 179.842375 156.153996 
L 182.050909 149.085743 
L 184.259443 131.11683 
L 188.676512 53.568 
L 190.885046 132.5125 
L 193.093581 135.18444 
L 195.302115 132.672411 
L 197.510649 143.182324 
L 199.719184 142.53521 
L 201.927718 88.507705 
L 204.136252 132.47284 
L 206.344787 141.660621 
L 208.553321 139.428611 
L 210.761855 161.957274 
L 212.97039 163.502512 
L 215.178924 122.6238 
L 217.387458 138.032761 
L 219.595993 147.582831 
L 221.804527 148.753565 
L 224.013061 133.345281 
L 226.221596 150.116554 
L 228.43013 158.267107 
L 230.638664 161.235235 
L 232.847199 155.678576 
L 235.055733 159.826654 
L 237.264267 132.566234 
L 239.472801 159.333528 
L 241.681336 131.868281 
L 243.88987 151.404963 
L 246.098404 152.76702 
L 248.306939 157.937609 
L 250.515473 152.137134 
L 252.724007 140.359377 
L 254.932542 159.525446 
L 257.141076 159.237269 
L 259.34961 150.977331 
L 261.558145 161.163861 
L 263.766679 144.603165 
L 265.975213 158.694565 
L 268.183748 156.007753 
L 270.392282 157.476933 
L 272.600816 147.03563 
L 274.809351 134.063524 
L 277.017885 157.366192 
L 279.226419 163.705058 
L 281.434954 156.162937 
L 283.643488 131.903147 
L 285.852022 148.417352 
L 288.060557 162.562679 
L 290.269091 128.967698 
L 292.477625 136.676072 
L 294.68616 126.699486 
L 296.894694 131.601711 
L 299.103228 114.255241 
L 301.311763 136.058344 
L 303.520297 134.985873 
L 305.728831 116.204692 
L 307.937365 104.276628 
L 310.1459 102.7642 
L 312.354434 109.008454 
L 314.562968 119.330395 
L 316.771503 146.812381 
L 318.980037 148.570276 
L 321.188571 156.013295 
L 323.397106 131.850993 
L 325.60564 114.225979 
L 327.814174 107.544577 
L 330.022709 144.447852 
L 332.231243 130.414586 
L 334.439777 125.739731 
L 336.648312 129.490982 
L 338.856846 142.438271 
L 341.06538 125.044787 
L 343.273915 128.335194 
L 345.482449 148.04251 
L 347.690983 146.393952 
L 349.899518 143.369808 
L 352.108052 141.307871 
L 354.316586 144.707344 
L 356.525121 142.230273 
L 358.733655 148.981275 
L 360.942189 145.296129 
L 363.150724 154.37985 
L 365.359258 152.24901 
L 367.567792 160.368306 
L 369.776327 151.183665 
L 371.984861 166.801355 
L 374.193395 161.782308 
L 376.401929 147.027953 
L 378.610464 150.52855 
L 380.818998 150.752638 
L 383.027532 144.001585 
L 385.236067 146.663681 
L 387.444601 142.801334 
L 389.653135 145.24738 
L 391.86167 150.435084 
L 394.070204 154.742789 
L 396.278738 155.850249 
L 398.487273 142.483702 
L 398.487273 142.483702 
" clip-path="url(#p4bd2bfea64)" style="fill: none; stroke: #f08080; stroke-opacity: 0.8; stroke-width: 0.5; stroke-linecap: square"/>
   </g>
   <g id="line2d_21">
    <path d="M 73.832727 197.922127 
L 76.041262 192.633324 
L 78.249796 198.305871 
L 80.45833 190.123402 
L 82.666865 178.852849 
L 84.875399 188.758965 
L 87.083933 176.096909 
L 89.292468 184.623611 
L 91.501002 175.122239 
L 93.709536 181.573487 
L 95.918071 180.069718 
L 98.126605 182.093323 
L 100.335139 180.992998 
L 102.543673 180.157022 
L 104.752208 180.561627 
L 106.960742 181.621517 
L 109.169276 192.935861 
L 111.377811 190.358675 
L 113.586345 198.087456 
L 115.794879 196.274848 
L 118.003414 180.019463 
L 120.211948 218.551457 
L 122.420482 205.526476 
L 124.629017 187.209973 
L 126.837551 189.953273 
L 129.046085 181.684631 
L 131.25462 184.112752 
L 133.463154 178.957307 
L 135.671688 182.537367 
L 137.880223 182.081392 
L 140.088757 182.23074 
L 142.297291 182.973972 
L 144.505826 189.775698 
L 146.71436 185.915581 
L 148.922894 181.711296 
L 151.131429 179.180951 
L 153.339963 180.737457 
L 155.548497 194.117905 
L 157.757032 181.864278 
L 159.965566 183.423395 
L 162.1741 182.436039 
L 164.382635 180.65392 
L 166.591169 179.686369 
L 168.799703 187.062474 
L 171.008237 182.506264 
L 173.216772 181.157812 
L 175.425306 181.677024 
L 177.63384 181.796243 
L 179.842375 184.415682 
L 182.050909 189.200658 
L 184.259443 181.294373 
L 186.467978 221.991276 
L 188.676512 253.640418 
L 190.885046 234.848999 
L 193.093581 201.103656 
L 195.302115 195.841903 
L 197.510649 181.261092 
L 199.719184 193.833892 
L 201.927718 201.398418 
L 204.136252 205.183881 
L 206.344787 191.054073 
L 208.553321 187.782143 
L 210.761855 185.515363 
L 212.97039 182.87978 
L 215.178924 197.76387 
L 217.387458 185.355087 
L 219.595993 191.133021 
L 221.804527 175.552403 
L 224.013061 201.524242 
L 226.221596 193.85598 
L 228.43013 196.367186 
L 230.638664 186.121835 
L 232.847199 192.249954 
L 235.055733 188.522259 
L 237.264267 204.038776 
L 239.472801 180.797047 
L 241.681336 198.844371 
L 243.88987 189.169871 
L 246.098404 192.05502 
L 248.306939 183.715968 
L 250.515473 190.15723 
L 252.724007 195.578532 
L 254.932542 197.54114 
L 257.141076 185.175636 
L 259.34961 193.701643 
L 261.558145 186.362217 
L 263.766679 199.368036 
L 265.975213 185.982669 
L 268.183748 186.916173 
L 270.392282 185.463567 
L 272.600816 186.415801 
L 274.809351 188.650272 
L 277.017885 190.444501 
L 279.226419 199.559676 
L 281.434954 179.612614 
L 283.643488 193.454542 
L 285.852022 198.822557 
L 288.060557 201.935829 
L 290.269091 193.744398 
L 292.477625 212.889204 
L 294.68616 190.222416 
L 296.894694 200.329194 
L 299.103228 211.597239 
L 301.311763 189.272779 
L 303.520297 186.421457 
L 305.728831 200.822553 
L 307.937365 212.799557 
L 310.1459 202.287052 
L 312.354434 197.356294 
L 314.562968 213.497017 
L 316.771503 178.246615 
L 318.980037 227.315958 
L 321.188571 198.278789 
L 323.397106 194.540097 
L 325.60564 192.704469 
L 327.814174 190.52592 
L 330.022709 212.534436 
L 332.231243 212.530556 
L 334.439777 193.422127 
L 336.648312 242.596888 
L 338.856846 208.967925 
L 341.06538 188.130731 
L 343.273915 201.343684 
L 345.482449 202.242212 
L 347.690983 186.149202 
L 349.899518 188.448043 
L 352.108052 189.055854 
L 354.316586 192.170323 
L 356.525121 190.572946 
L 358.733655 190.884502 
L 360.942189 203.807359 
L 363.150724 202.526678 
L 365.359258 197.071947 
L 367.567792 187.435505 
L 369.776327 186.383787 
L 371.984861 191.36324 
L 374.193395 181.737665 
L 376.401929 185.173019 
L 378.610464 200.044543 
L 380.818998 191.289076 
L 383.027532 185.080766 
L 385.236067 180.209634 
L 387.444601 183.263722 
L 389.653135 190.771136 
L 391.86167 193.947549 
L 394.070204 181.724722 
L 396.278738 199.349944 
L 398.487273 203.61027 
L 398.487273 203.61027 
" clip-path="url(#p4bd2bfea64)" style="fill: none; stroke: #f08080; stroke-opacity: 0.8; stroke-width: 0.5; stroke-linecap: square"/>
   </g>
   <g id="patch_3">
    <path d="M 57.6 307.584 
L 57.6 41.472 
" style="fill: none; stroke: #000000; stroke-width: 0.8; stroke-linejoin: miter; stroke-linecap: square"/>
   </g>
   <g id="patch_4">
    <path d="M 414.72 307.584 
L 414.72 41.472 
" style="fill: none; stroke: #000000; stroke-width: 0.8; stroke-linejoin: miter; stroke-linecap: square"/>
   </g>
   <g id="patch_5">
    <path d="M 57.6 307.584 
L 414.72 307.584 
" style="fill: none; stroke: #000000; stroke-width: 0.8; stroke-linejoin: miter; stroke-linecap: square"/>
   </g>
   <g id="patch_6">
    <path d="M 57.6 41.472 
L 414.72 41.472 
" style="fill: none; stroke: #000000; stroke-width: 0.8; stroke-linejoin: miter; stroke-linecap: square"/>
   </g>
   <g id="text_16">
    <!-- naive_20_snp500 -->
    <g transform="translate(183.945938 35.472) scale(0.12 -0.12)">
     <defs>
      <path id="DejaVuSans-6e" d="M 3513 2113 
L 3513 0 
L 2938 0 
L 2938 2094 
Q 2938 2591 2744 2837 
Q 2550 3084 2163 3084 
Q 1697 3084 1428 2787 
Q 1159 2491 1159 1978 
L 1159 0 
L 581 0 
L 581 3500 
L 1159 3500 
L 1159 2956 
Q 1366 3272 1645 3428 
Q 1925 3584 2291 3584 
Q 2894 3584 3203 3211 
Q 3513 2838 3513 2113 
z
" transform="scale(0.015625)"/>
      <path id="DejaVuSans-61" d="M 2194 1759 
Q 1497 1759 1228 1600 
Q 959 1441 959 1056 
Q 959 750 1161 570 
Q 1363 391 1709 391 
Q 2188 391 2477 730 
Q 2766 1069 2766 1631 
L 2766 1759 
L 2194 1759 
z
M 3341 1997 
L 3341 0 
L 2766 0 
L 2766 531 
Q 2569 213 2275 61 
Q 1981 -91 1556 -91 
Q 1019 -91 701 211 
Q 384 513 384 1019 
Q 384 1609 779 1909 
Q 1175 2209 1959 2209 
L 2766 2209 
L 2766 2266 
Q 2766 2663 2505 2880 
Q 2244 3097 1772 3097 
Q 1472 3097 1187 3025 
Q 903 2953 641 2809 
L 641 3341 
Q 956 3463 1253 3523 
Q 1550 3584 1831 3584 
Q 2591 3584 2966 3190 
Q 3341 2797 3341 1997 
z
" transform="scale(0.015625)"/>
      <path id="DejaVuSans-69" d="M 603 3500 
L 1178 3500 
L 1178 0 
L 603 0 
L 603 3500 
z
M 603 4863 
L 1178 4863 
L 1178 4134 
L 603 4134 
L 603 4863 
z
" transform="scale(0.015625)"/>
      <path id="DejaVuSans-76" d="M 191 3500 
L 800 3500 
L 1894 563 
L 2988 3500 
L 3597 3500 
L 2284 0 
L 1503 0 
L 191 3500 
z
" transform="scale(0.015625)"/>
      <path id="DejaVuSans-65" d="M 3597 1894 
L 3597 1613 
L 953 1613 
Q 991 1019 1311 708 
Q 1631 397 2203 397 
Q 2534 397 2845 478 
Q 3156 559 3463 722 
L 3463 178 
Q 3153 47 2828 -22 
Q 2503 -91 2169 -91 
Q 1331 -91 842 396 
Q 353 884 353 1716 
Q 353 2575 817 3079 
Q 1281 3584 2069 3584 
Q 2775 3584 3186 3129 
Q 3597 2675 3597 1894 
z
M 3022 2063 
Q 3016 2534 2758 2815 
Q 2500 3097 2075 3097 
Q 1594 3097 1305 2825 
Q 1016 2553 972 2059 
L 3022 2063 
z
" transform="scale(0.015625)"/>
      <path id="DejaVuSans-5f" d="M 3263 -1063 
L 3263 -1509 
L -63 -1509 
L -63 -1063 
L 3263 -1063 
z
" transform="scale(0.015625)"/>
      <path id="DejaVuSans-73" d="M 2834 3397 
L 2834 2853 
Q 2591 2978 2328 3040 
Q 2066 3103 1784 3103 
Q 1356 3103 1142 2972 
Q 928 2841 928 2578 
Q 928 2378 1081 2264 
Q 1234 2150 1697 2047 
L 1894 2003 
Q 2506 1872 2764 1633 
Q 3022 1394 3022 966 
Q 3022 478 2636 193 
Q 2250 -91 1575 -91 
Q 1294 -91 989 -36 
Q 684 19 347 128 
L 347 722 
Q 666 556 975 473 
Q 1284 391 1588 391 
Q 1994 391 2212 530 
Q 2431 669 2431 922 
Q 2431 1156 2273 1281 
Q 2116 1406 1581 1522 
L 1381 1569 
Q 847 1681 609 1914 
Q 372 2147 372 2553 
Q 372 3047 722 3315 
Q 1072 3584 1716 3584 
Q 2034 3584 2315 3537 
Q 2597 3491 2834 3397 
z
" transform="scale(0.015625)"/>
      <path id="DejaVuSans-70" d="M 1159 525 
L 1159 -1331 
L 581 -1331 
L 581 3500 
L 1159 3500 
L 1159 2969 
Q 1341 3281 1617 3432 
Q 1894 3584 2278 3584 
Q 2916 3584 3314 3078 
Q 3713 2572 3713 1747 
Q 3713 922 3314 415 
Q 2916 -91 2278 -91 
Q 1894 -91 1617 61 
Q 1341 213 1159 525 
z
M 3116 1747 
Q 3116 2381 2855 2742 
Q 2594 3103 2138 3103 
Q 1681 3103 1420 2742 
Q 1159 2381 1159 1747 
Q 1159 1113 1420 752 
Q 1681 391 2138 391 
Q 2594 391 2855 752 
Q 3116 1113 3116 1747 
z
" transform="scale(0.015625)"/>
      <path id="DejaVuSans-35" d="M 691 4666 
L 3169 4666 
L 3169 4134 
L 1269 4134 
L 1269 2991 
Q 1406 3038 1543 3061 
Q 1681 3084 1819 3084 
Q 2600 3084 3056 2656 
Q 3513 2228 3513 1497 
Q 3513 744 3044 326 
Q 2575 -91 1722 -91 
Q 1428 -91 1123 -41 
Q 819 9 494 109 
L 494 744 
Q 775 591 1075 516 
Q 1375 441 1709 441 
Q 2250 441 2565 725 
Q 2881 1009 2881 1497 
Q 2881 1984 2565 2268 
Q 2250 2553 1709 2553 
Q 1456 2553 1204 2497 
Q 953 2441 691 2322 
L 691 4666 
z
" transform="scale(0.015625)"/>
     </defs>
     <use xlink:href="#DejaVuSans-6e"/>
     <use xlink:href="#DejaVuSans-61" x="63.378906"/>
     <use xlink:href="#DejaVuSans-69" x="124.658203"/>
     <use xlink:href="#DejaVuSans-76" x="152.441406"/>
     <use xlink:href="#DejaVuSans-65" x="211.621094"/>
     <use xlink:href="#DejaVuSans-5f" x="273.144531"/>
     <use xlink:href="#DejaVuSans-32" x="323.144531"/>
     <use xlink:href="#DejaVuSans-30" x="386.767578"/>
     <use xlink:href="#DejaVuSans-5f" x="450.390625"/>
     <use xlink:href="#DejaVuSans-73" x="500.390625"/>
     <use xlink:href="#DejaVuSans-6e" x="552.490234"/>
     <use xlink:href="#DejaVuSans-70" x="615.869141"/>
     <use xlink:href="#DejaVuSans-35" x="679.345703"/>
     <use xlink:href="#DejaVuSans-30" x="742.96875"/>
     <use xlink:href="#DejaVuSans-30" x="806.591797"/>
    </g>
   </g>
   <g id="legend_1">
    <g id="patch_7">
     <path d="M 64.6 302.584 
L 225.001563 302.584 
Q 227.001563 302.584 227.001563 300.584 
L 227.001563 213.51525 
Q 227.001563 211.51525 225.001563 211.51525 
L 64.6 211.51525 
Q 62.6 211.51525 62.6 213.51525 
L 62.6 300.584 
Q 62.6 302.584 64.6 302.584 
z
" style="fill: #ffffff; opacity: 0.8; stroke: #cccccc; stroke-linejoin: miter"/>
    </g>
    <g id="line2d_22">
     <path d="M 66.6 219.613687 
L 76.6 219.613687 
L 86.6 219.613687 
" style="fill: none; stroke: #008000; stroke-opacity: 0.8; stroke-width: 0.5; stroke-linecap: square"/>
    </g>
    <g id="text_17">
     <!-- Positive predictions -->
     <g transform="translate(94.6 223.113687) scale(0.1 -0.1)">
      <defs>
       <path id="DejaVuSans-50" d="M 1259 4147 
L 1259 2394 
L 2053 2394 
Q 2494 2394 2734 2622 
Q 2975 2850 2975 3272 
Q 2975 3691 2734 3919 
Q 2494 4147 2053 4147 
L 1259 4147 
z
M 628 4666 
L 2053 4666 
Q 2838 4666 3239 4311 
Q 3641 3956 3641 3272 
Q 3641 2581 3239 2228 
Q 2838 1875 2053 1875 
L 1259 1875 
L 1259 0 
L 628 0 
L 628 4666 
z
" transform="scale(0.015625)"/>
       <path id="DejaVuSans-6f" d="M 1959 3097 
Q 1497 3097 1228 2736 
Q 959 2375 959 1747 
Q 959 1119 1226 758 
Q 1494 397 1959 397 
Q 2419 397 2687 759 
Q 2956 1122 2956 1747 
Q 2956 2369 2687 2733 
Q 2419 3097 1959 3097 
z
M 1959 3584 
Q 2709 3584 3137 3096 
Q 3566 2609 3566 1747 
Q 3566 888 3137 398 
Q 2709 -91 1959 -91 
Q 1206 -91 779 398 
Q 353 888 353 1747 
Q 353 2609 779 3096 
Q 1206 3584 1959 3584 
z
" transform="scale(0.015625)"/>
       <path id="DejaVuSans-74" d="M 1172 4494 
L 1172 3500 
L 2356 3500 
L 2356 3053 
L 1172 3053 
L 1172 1153 
Q 1172 725 1289 603 
Q 1406 481 1766 481 
L 2356 481 
L 2356 0 
L 1766 0 
Q 1100 0 847 248 
Q 594 497 594 1153 
L 594 3053 
L 172 3053 
L 172 3500 
L 594 3500 
L 594 4494 
L 1172 4494 
z
" transform="scale(0.015625)"/>
       <path id="DejaVuSans-20" transform="scale(0.015625)"/>
       <path id="DejaVuSans-72" d="M 2631 2963 
Q 2534 3019 2420 3045 
Q 2306 3072 2169 3072 
Q 1681 3072 1420 2755 
Q 1159 2438 1159 1844 
L 1159 0 
L 581 0 
L 581 3500 
L 1159 3500 
L 1159 2956 
Q 1341 3275 1631 3429 
Q 1922 3584 2338 3584 
Q 2397 3584 2469 3576 
Q 2541 3569 2628 3553 
L 2631 2963 
z
" transform="scale(0.015625)"/>
       <path id="DejaVuSans-64" d="M 2906 2969 
L 2906 4863 
L 3481 4863 
L 3481 0 
L 2906 0 
L 2906 525 
Q 2725 213 2448 61 
Q 2172 -91 1784 -91 
Q 1150 -91 751 415 
Q 353 922 353 1747 
Q 353 2572 751 3078 
Q 1150 3584 1784 3584 
Q 2172 3584 2448 3432 
Q 2725 3281 2906 2969 
z
M 947 1747 
Q 947 1113 1208 752 
Q 1469 391 1925 391 
Q 2381 391 2643 752 
Q 2906 1113 2906 1747 
Q 2906 2381 2643 2742 
Q 2381 3103 1925 3103 
Q 1469 3103 1208 2742 
Q 947 2381 947 1747 
z
" transform="scale(0.015625)"/>
       <path id="DejaVuSans-63" d="M 3122 3366 
L 3122 2828 
Q 2878 2963 2633 3030 
Q 2388 3097 2138 3097 
Q 1578 3097 1268 2742 
Q 959 2388 959 1747 
Q 959 1106 1268 751 
Q 1578 397 2138 397 
Q 2388 397 2633 464 
Q 2878 531 3122 666 
L 3122 134 
Q 2881 22 2623 -34 
Q 2366 -91 2075 -91 
Q 1284 -91 818 406 
Q 353 903 353 1747 
Q 353 2603 823 3093 
Q 1294 3584 2113 3584 
Q 2378 3584 2631 3529 
Q 2884 3475 3122 3366 
z
" transform="scale(0.015625)"/>
      </defs>
      <use xlink:href="#DejaVuSans-50"/>
      <use xlink:href="#DejaVuSans-6f" x="56.677734"/>
      <use xlink:href="#DejaVuSans-73" x="117.859375"/>
      <use xlink:href="#DejaVuSans-69" x="169.958984"/>
      <use xlink:href="#DejaVuSans-74" x="197.742188"/>
      <use xlink:href="#DejaVuSans-69" x="236.951172"/>
      <use xlink:href="#DejaVuSans-76" x="264.734375"/>
      <use xlink:href="#DejaVuSans-65" x="323.914062"/>
      <use xlink:href="#DejaVuSans-20" x="385.4375"/>
      <use xlink:href="#DejaVuSans-70" x="417.224609"/>
      <use xlink:href="#DejaVuSans-72" x="480.701172"/>
      <use xlink:href="#DejaVuSans-65" x="519.564453"/>
      <use xlink:href="#DejaVuSans-64" x="581.087891"/>
      <use xlink:href="#DejaVuSans-69" x="644.564453"/>
      <use xlink:href="#DejaVuSans-63" x="672.347656"/>
      <use xlink:href="#DejaVuSans-74" x="727.328125"/>
      <use xlink:href="#DejaVuSans-69" x="766.537109"/>
      <use xlink:href="#DejaVuSans-6f" x="794.320312"/>
      <use xlink:href="#DejaVuSans-6e" x="855.501953"/>
      <use xlink:href="#DejaVuSans-73" x="918.880859"/>
     </g>
    </g>
    <g id="line2d_23">
     <path d="M 66.6 234.291812 
L 76.6 234.291812 
L 86.6 234.291812 
" style="fill: none; stroke: #32cd32; stroke-opacity: 0.8; stroke-width: 0.5; stroke-linecap: square"/>
    </g>
    <g id="text_18">
     <!-- Positive predictions max -->
     <g transform="translate(94.6 237.791812) scale(0.1 -0.1)">
      <defs>
       <path id="DejaVuSans-6d" d="M 3328 2828 
Q 3544 3216 3844 3400 
Q 4144 3584 4550 3584 
Q 5097 3584 5394 3201 
Q 5691 2819 5691 2113 
L 5691 0 
L 5113 0 
L 5113 2094 
Q 5113 2597 4934 2840 
Q 4756 3084 4391 3084 
Q 3944 3084 3684 2787 
Q 3425 2491 3425 1978 
L 3425 0 
L 2847 0 
L 2847 2094 
Q 2847 2600 2669 2842 
Q 2491 3084 2119 3084 
Q 1678 3084 1418 2786 
Q 1159 2488 1159 1978 
L 1159 0 
L 581 0 
L 581 3500 
L 1159 3500 
L 1159 2956 
Q 1356 3278 1631 3431 
Q 1906 3584 2284 3584 
Q 2666 3584 2933 3390 
Q 3200 3197 3328 2828 
z
" transform="scale(0.015625)"/>
       <path id="DejaVuSans-78" d="M 3513 3500 
L 2247 1797 
L 3578 0 
L 2900 0 
L 1881 1375 
L 863 0 
L 184 0 
L 1544 1831 
L 300 3500 
L 978 3500 
L 1906 2253 
L 2834 3500 
L 3513 3500 
z
" transform="scale(0.015625)"/>
      </defs>
      <use xlink:href="#DejaVuSans-50"/>
      <use xlink:href="#DejaVuSans-6f" x="56.677734"/>
      <use xlink:href="#DejaVuSans-73" x="117.859375"/>
      <use xlink:href="#DejaVuSans-69" x="169.958984"/>
      <use xlink:href="#DejaVuSans-74" x="197.742188"/>
      <use xlink:href="#DejaVuSans-69" x="236.951172"/>
      <use xlink:href="#DejaVuSans-76" x="264.734375"/>
      <use xlink:href="#DejaVuSans-65" x="323.914062"/>
      <use xlink:href="#DejaVuSans-20" x="385.4375"/>
      <use xlink:href="#DejaVuSans-70" x="417.224609"/>
      <use xlink:href="#DejaVuSans-72" x="480.701172"/>
      <use xlink:href="#DejaVuSans-65" x="519.564453"/>
      <use xlink:href="#DejaVuSans-64" x="581.087891"/>
      <use xlink:href="#DejaVuSans-69" x="644.564453"/>
      <use xlink:href="#DejaVuSans-63" x="672.347656"/>
      <use xlink:href="#DejaVuSans-74" x="727.328125"/>
      <use xlink:href="#DejaVuSans-69" x="766.537109"/>
      <use xlink:href="#DejaVuSans-6f" x="794.320312"/>
      <use xlink:href="#DejaVuSans-6e" x="855.501953"/>
      <use xlink:href="#DejaVuSans-73" x="918.880859"/>
      <use xlink:href="#DejaVuSans-20" x="970.980469"/>
      <use xlink:href="#DejaVuSans-6d" x="1002.767578"/>
      <use xlink:href="#DejaVuSans-61" x="1100.179688"/>
      <use xlink:href="#DejaVuSans-78" x="1161.458984"/>
     </g>
    </g>
    <g id="line2d_24">
     <path d="M 66.6 248.969937 
L 76.6 248.969937 
L 86.6 248.969937 
" style="fill: none; stroke: #32cd32; stroke-opacity: 0.8; stroke-width: 0.5; stroke-linecap: square"/>
    </g>
    <g id="text_19">
     <!-- Positive predictions min -->
     <g transform="translate(94.6 252.469937) scale(0.1 -0.1)">
      <use xlink:href="#DejaVuSans-50"/>
      <use xlink:href="#DejaVuSans-6f" x="56.677734"/>
      <use xlink:href="#DejaVuSans-73" x="117.859375"/>
      <use xlink:href="#DejaVuSans-69" x="169.958984"/>
      <use xlink:href="#DejaVuSans-74" x="197.742188"/>
      <use xlink:href="#DejaVuSans-69" x="236.951172"/>
      <use xlink:href="#DejaVuSans-76" x="264.734375"/>
      <use xlink:href="#DejaVuSans-65" x="323.914062"/>
      <use xlink:href="#DejaVuSans-20" x="385.4375"/>
      <use xlink:href="#DejaVuSans-70" x="417.224609"/>
      <use xlink:href="#DejaVuSans-72" x="480.701172"/>
      <use xlink:href="#DejaVuSans-65" x="519.564453"/>
      <use xlink:href="#DejaVuSans-64" x="581.087891"/>
      <use xlink:href="#DejaVuSans-69" x="644.564453"/>
      <use xlink:href="#DejaVuSans-63" x="672.347656"/>
      <use xlink:href="#DejaVuSans-74" x="727.328125"/>
      <use xlink:href="#DejaVuSans-69" x="766.537109"/>
      <use xlink:href="#DejaVuSans-6f" x="794.320312"/>
      <use xlink:href="#DejaVuSans-6e" x="855.501953"/>
      <use xlink:href="#DejaVuSans-73" x="918.880859"/>
      <use xlink:href="#DejaVuSans-20" x="970.980469"/>
      <use xlink:href="#DejaVuSans-6d" x="1002.767578"/>
      <use xlink:href="#DejaVuSans-69" x="1100.179688"/>
      <use xlink:href="#DejaVuSans-6e" x="1127.962891"/>
     </g>
    </g>
    <g id="line2d_25">
     <path d="M 66.6 263.648062 
L 76.6 263.648062 
L 86.6 263.648062 
" style="fill: none; stroke: #ff0000; stroke-opacity: 0.8; stroke-width: 0.5; stroke-linecap: square"/>
    </g>
    <g id="text_20">
     <!-- Negative predictions -->
     <g transform="translate(94.6 267.148062) scale(0.1 -0.1)">
      <defs>
       <path id="DejaVuSans-4e" d="M 628 4666 
L 1478 4666 
L 3547 763 
L 3547 4666 
L 4159 4666 
L 4159 0 
L 3309 0 
L 1241 3903 
L 1241 0 
L 628 0 
L 628 4666 
z
" transform="scale(0.015625)"/>
       <path id="DejaVuSans-67" d="M 2906 1791 
Q 2906 2416 2648 2759 
Q 2391 3103 1925 3103 
Q 1463 3103 1205 2759 
Q 947 2416 947 1791 
Q 947 1169 1205 825 
Q 1463 481 1925 481 
Q 2391 481 2648 825 
Q 2906 1169 2906 1791 
z
M 3481 434 
Q 3481 -459 3084 -895 
Q 2688 -1331 1869 -1331 
Q 1566 -1331 1297 -1286 
Q 1028 -1241 775 -1147 
L 775 -588 
Q 1028 -725 1275 -790 
Q 1522 -856 1778 -856 
Q 2344 -856 2625 -561 
Q 2906 -266 2906 331 
L 2906 616 
Q 2728 306 2450 153 
Q 2172 0 1784 0 
Q 1141 0 747 490 
Q 353 981 353 1791 
Q 353 2603 747 3093 
Q 1141 3584 1784 3584 
Q 2172 3584 2450 3431 
Q 2728 3278 2906 2969 
L 2906 3500 
L 3481 3500 
L 3481 434 
z
" transform="scale(0.015625)"/>
      </defs>
      <use xlink:href="#DejaVuSans-4e"/>
      <use xlink:href="#DejaVuSans-65" x="74.804688"/>
      <use xlink:href="#DejaVuSans-67" x="136.328125"/>
      <use xlink:href="#DejaVuSans-61" x="199.804688"/>
      <use xlink:href="#DejaVuSans-74" x="261.083984"/>
      <use xlink:href="#DejaVuSans-69" x="300.292969"/>
      <use xlink:href="#DejaVuSans-76" x="328.076172"/>
      <use xlink:href="#DejaVuSans-65" x="387.255859"/>
      <use xlink:href="#DejaVuSans-20" x="448.779297"/>
      <use xlink:href="#DejaVuSans-70" x="480.566406"/>
      <use xlink:href="#DejaVuSans-72" x="544.042969"/>
      <use xlink:href="#DejaVuSans-65" x="582.90625"/>
      <use xlink:href="#DejaVuSans-64" x="644.429688"/>
      <use xlink:href="#DejaVuSans-69" x="707.90625"/>
      <use xlink:href="#DejaVuSans-63" x="735.689453"/>
      <use xlink:href="#DejaVuSans-74" x="790.669922"/>
      <use xlink:href="#DejaVuSans-69" x="829.878906"/>
      <use xlink:href="#DejaVuSans-6f" x="857.662109"/>
      <use xlink:href="#DejaVuSans-6e" x="918.84375"/>
      <use xlink:href="#DejaVuSans-73" x="982.222656"/>
     </g>
    </g>
    <g id="line2d_26">
     <path d="M 66.6 278.326188 
L 76.6 278.326188 
L 86.6 278.326188 
" style="fill: none; stroke: #f08080; stroke-opacity: 0.8; stroke-width: 0.5; stroke-linecap: square"/>
    </g>
    <g id="text_21">
     <!-- Negative predictions max -->
     <g transform="translate(94.6 281.826188) scale(0.1 -0.1)">
      <use xlink:href="#DejaVuSans-4e"/>
      <use xlink:href="#DejaVuSans-65" x="74.804688"/>
      <use xlink:href="#DejaVuSans-67" x="136.328125"/>
      <use xlink:href="#DejaVuSans-61" x="199.804688"/>
      <use xlink:href="#DejaVuSans-74" x="261.083984"/>
      <use xlink:href="#DejaVuSans-69" x="300.292969"/>
      <use xlink:href="#DejaVuSans-76" x="328.076172"/>
      <use xlink:href="#DejaVuSans-65" x="387.255859"/>
      <use xlink:href="#DejaVuSans-20" x="448.779297"/>
      <use xlink:href="#DejaVuSans-70" x="480.566406"/>
      <use xlink:href="#DejaVuSans-72" x="544.042969"/>
      <use xlink:href="#DejaVuSans-65" x="582.90625"/>
      <use xlink:href="#DejaVuSans-64" x="644.429688"/>
      <use xlink:href="#DejaVuSans-69" x="707.90625"/>
      <use xlink:href="#DejaVuSans-63" x="735.689453"/>
      <use xlink:href="#DejaVuSans-74" x="790.669922"/>
      <use xlink:href="#DejaVuSans-69" x="829.878906"/>
      <use xlink:href="#DejaVuSans-6f" x="857.662109"/>
      <use xlink:href="#DejaVuSans-6e" x="918.84375"/>
      <use xlink:href="#DejaVuSans-73" x="982.222656"/>
      <use xlink:href="#DejaVuSans-20" x="1034.322266"/>
      <use xlink:href="#DejaVuSans-6d" x="1066.109375"/>
      <use xlink:href="#DejaVuSans-61" x="1163.521484"/>
      <use xlink:href="#DejaVuSans-78" x="1224.800781"/>
     </g>
    </g>
    <g id="line2d_27">
     <path d="M 66.6 293.004312 
L 76.6 293.004312 
L 86.6 293.004312 
" style="fill: none; stroke: #f08080; stroke-opacity: 0.8; stroke-width: 0.5; stroke-linecap: square"/>
    </g>
    <g id="text_22">
     <!-- Negative predictions min -->
     <g transform="translate(94.6 296.504312) scale(0.1 -0.1)">
      <use xlink:href="#DejaVuSans-4e"/>
      <use xlink:href="#DejaVuSans-65" x="74.804688"/>
      <use xlink:href="#DejaVuSans-67" x="136.328125"/>
      <use xlink:href="#DejaVuSans-61" x="199.804688"/>
      <use xlink:href="#DejaVuSans-74" x="261.083984"/>
      <use xlink:href="#DejaVuSans-69" x="300.292969"/>
      <use xlink:href="#DejaVuSans-76" x="328.076172"/>
      <use xlink:href="#DejaVuSans-65" x="387.255859"/>
      <use xlink:href="#DejaVuSans-20" x="448.779297"/>
      <use xlink:href="#DejaVuSans-70" x="480.566406"/>
      <use xlink:href="#DejaVuSans-72" x="544.042969"/>
      <use xlink:href="#DejaVuSans-65" x="582.90625"/>
      <use xlink:href="#DejaVuSans-64" x="644.429688"/>
      <use xlink:href="#DejaVuSans-69" x="707.90625"/>
      <use xlink:href="#DejaVuSans-63" x="735.689453"/>
      <use xlink:href="#DejaVuSans-74" x="790.669922"/>
      <use xlink:href="#DejaVuSans-69" x="829.878906"/>
      <use xlink:href="#DejaVuSans-6f" x="857.662109"/>
      <use xlink:href="#DejaVuSans-6e" x="918.84375"/>
      <use xlink:href="#DejaVuSans-73" x="982.222656"/>
      <use xlink:href="#DejaVuSans-20" x="1034.322266"/>
      <use xlink:href="#DejaVuSans-6d" x="1066.109375"/>
      <use xlink:href="#DejaVuSans-69" x="1163.521484"/>
      <use xlink:href="#DejaVuSans-6e" x="1191.304688"/>
     </g>
    </g>
   </g>
  </g>
 </g>
 <defs>
  <clipPath id="p4bd2bfea64">
   <rect x="57.6" y="41.472" width="357.12" height="266.112"/>
  </clipPath>
 </defs>
</svg>
