<?xml version="1.0" encoding="utf-8" standalone="no"?>
<!DOCTYPE svg PUBLIC "-//W3C//DTD SVG 1.1//EN"
  "http://www.w3.org/Graphics/SVG/1.1/DTD/svg11.dtd">
<svg xmlns:xlink="http://www.w3.org/1999/xlink" width="460.8pt" height="345.6pt" viewBox="0 0 460.8 345.6" xmlns="http://www.w3.org/2000/svg" version="1.1">
 <metadata>
  <rdf:RDF xmlns:dc="http://purl.org/dc/elements/1.1/" xmlns:cc="http://creativecommons.org/ns#" xmlns:rdf="http://www.w3.org/1999/02/22-rdf-syntax-ns#">
   <cc:Work>
    <dc:type rdf:resource="http://purl.org/dc/dcmitype/StillImage"/>
    <dc:date>2024-08-21T08:35:27.152215</dc:date>
    <dc:format>image/svg+xml</dc:format>
    <dc:creator>
     <cc:Agent>
      <dc:title>Matplotlib v3.9.0, https://matplotlib.org/</dc:title>
     </cc:Agent>
    </dc:creator>
   </cc:Work>
  </rdf:RDF>
 </metadata>
 <defs>
  <style type="text/css">*{stroke-linejoin: round; stroke-linecap: butt}</style>
 </defs>
 <g id="figure_1">
  <g id="patch_1">
   <path d="M 0 345.6 
L 460.8 345.6 
L 460.8 0 
L 0 0 
z
" style="fill: #ffffff"/>
  </g>
  <g id="axes_1">
   <g id="patch_2">
    <path d="M 57.6 307.584 
L 414.72 307.584 
L 414.72 41.472 
L 57.6 41.472 
z
" style="fill: #ffffff"/>
   </g>
   <g id="matplotlib.axis_1">
    <g id="xtick_1">
     <g id="line2d_1">
      <defs>
       <path id="me1a3e4cca4" d="M 0 0 
L 0 3.5 
" style="stroke: #000000; stroke-width: 0.8"/>
      </defs>
      <g>
       <use xlink:href="#me1a3e4cca4" x="73.832727" y="307.584" style="stroke: #000000; stroke-width: 0.8"/>
      </g>
     </g>
     <g id="text_1">
      <!-- 0 -->
      <g transform="translate(70.651477 322.182437) scale(0.1 -0.1)">
       <defs>
        <path id="DejaVuSans-30" d="M 2034 4250 
Q 1547 4250 1301 3770 
Q 1056 3291 1056 2328 
Q 1056 1369 1301 889 
Q 1547 409 2034 409 
Q 2525 409 2770 889 
Q 3016 1369 3016 2328 
Q 3016 3291 2770 3770 
Q 2525 4250 2034 4250 
z
M 2034 4750 
Q 2819 4750 3233 4129 
Q 3647 3509 3647 2328 
Q 3647 1150 3233 529 
Q 2819 -91 2034 -91 
Q 1250 -91 836 529 
Q 422 1150 422 2328 
Q 422 3509 836 4129 
Q 1250 4750 2034 4750 
z
" transform="scale(0.015625)"/>
       </defs>
       <use xlink:href="#DejaVuSans-30"/>
      </g>
     </g>
    </g>
    <g id="xtick_2">
     <g id="line2d_2">
      <g>
       <use xlink:href="#me1a3e4cca4" x="149.333784" y="307.584" style="stroke: #000000; stroke-width: 0.8"/>
      </g>
     </g>
     <g id="text_2">
      <!-- 50 -->
      <g transform="translate(142.971284 322.182437) scale(0.1 -0.1)">
       <defs>
        <path id="DejaVuSans-35" d="M 691 4666 
L 3169 4666 
L 3169 4134 
L 1269 4134 
L 1269 2991 
Q 1406 3038 1543 3061 
Q 1681 3084 1819 3084 
Q 2600 3084 3056 2656 
Q 3513 2228 3513 1497 
Q 3513 744 3044 326 
Q 2575 -91 1722 -91 
Q 1428 -91 1123 -41 
Q 819 9 494 109 
L 494 744 
Q 775 591 1075 516 
Q 1375 441 1709 441 
Q 2250 441 2565 725 
Q 2881 1009 2881 1497 
Q 2881 1984 2565 2268 
Q 2250 2553 1709 2553 
Q 1456 2553 1204 2497 
Q 953 2441 691 2322 
L 691 4666 
z
" transform="scale(0.015625)"/>
       </defs>
       <use xlink:href="#DejaVuSans-35"/>
       <use xlink:href="#DejaVuSans-30" x="63.623047"/>
      </g>
     </g>
    </g>
    <g id="xtick_3">
     <g id="line2d_3">
      <g>
       <use xlink:href="#me1a3e4cca4" x="224.834841" y="307.584" style="stroke: #000000; stroke-width: 0.8"/>
      </g>
     </g>
     <g id="text_3">
      <!-- 100 -->
      <g transform="translate(215.291091 322.182437) scale(0.1 -0.1)">
       <defs>
        <path id="DejaVuSans-31" d="M 794 531 
L 1825 531 
L 1825 4091 
L 703 3866 
L 703 4441 
L 1819 4666 
L 2450 4666 
L 2450 531 
L 3481 531 
L 3481 0 
L 794 0 
L 794 531 
z
" transform="scale(0.015625)"/>
       </defs>
       <use xlink:href="#DejaVuSans-31"/>
       <use xlink:href="#DejaVuSans-30" x="63.623047"/>
       <use xlink:href="#DejaVuSans-30" x="127.246094"/>
      </g>
     </g>
    </g>
    <g id="xtick_4">
     <g id="line2d_4">
      <g>
       <use xlink:href="#me1a3e4cca4" x="300.335899" y="307.584" style="stroke: #000000; stroke-width: 0.8"/>
      </g>
     </g>
     <g id="text_4">
      <!-- 150 -->
      <g transform="translate(290.792149 322.182437) scale(0.1 -0.1)">
       <use xlink:href="#DejaVuSans-31"/>
       <use xlink:href="#DejaVuSans-35" x="63.623047"/>
       <use xlink:href="#DejaVuSans-30" x="127.246094"/>
      </g>
     </g>
    </g>
    <g id="xtick_5">
     <g id="line2d_5">
      <g>
       <use xlink:href="#me1a3e4cca4" x="375.836956" y="307.584" style="stroke: #000000; stroke-width: 0.8"/>
      </g>
     </g>
     <g id="text_5">
      <!-- 200 -->
      <g transform="translate(366.293206 322.182437) scale(0.1 -0.1)">
       <defs>
        <path id="DejaVuSans-32" d="M 1228 531 
L 3431 531 
L 3431 0 
L 469 0 
L 469 531 
Q 828 903 1448 1529 
Q 2069 2156 2228 2338 
Q 2531 2678 2651 2914 
Q 2772 3150 2772 3378 
Q 2772 3750 2511 3984 
Q 2250 4219 1831 4219 
Q 1534 4219 1204 4116 
Q 875 4013 500 3803 
L 500 4441 
Q 881 4594 1212 4672 
Q 1544 4750 1819 4750 
Q 2544 4750 2975 4387 
Q 3406 4025 3406 3419 
Q 3406 3131 3298 2873 
Q 3191 2616 2906 2266 
Q 2828 2175 2409 1742 
Q 1991 1309 1228 531 
z
" transform="scale(0.015625)"/>
       </defs>
       <use xlink:href="#DejaVuSans-32"/>
       <use xlink:href="#DejaVuSans-30" x="63.623047"/>
       <use xlink:href="#DejaVuSans-30" x="127.246094"/>
      </g>
     </g>
    </g>
   </g>
   <g id="matplotlib.axis_2">
    <g id="ytick_1">
     <g id="line2d_6">
      <defs>
       <path id="mbb4667a72f" d="M 0 0 
L -3.5 0 
" style="stroke: #000000; stroke-width: 0.8"/>
      </defs>
      <g>
       <use xlink:href="#mbb4667a72f" x="57.6" y="294.049217" style="stroke: #000000; stroke-width: 0.8"/>
      </g>
     </g>
     <g id="text_6">
      <!-- 5000 -->
      <g transform="translate(25.15 297.848435) scale(0.1 -0.1)">
       <use xlink:href="#DejaVuSans-35"/>
       <use xlink:href="#DejaVuSans-30" x="63.623047"/>
       <use xlink:href="#DejaVuSans-30" x="127.246094"/>
       <use xlink:href="#DejaVuSans-30" x="190.869141"/>
      </g>
     </g>
    </g>
    <g id="ytick_2">
     <g id="line2d_7">
      <g>
       <use xlink:href="#mbb4667a72f" x="57.6" y="262.46617" style="stroke: #000000; stroke-width: 0.8"/>
      </g>
     </g>
     <g id="text_7">
      <!-- 5500 -->
      <g transform="translate(25.15 266.265388) scale(0.1 -0.1)">
       <use xlink:href="#DejaVuSans-35"/>
       <use xlink:href="#DejaVuSans-35" x="63.623047"/>
       <use xlink:href="#DejaVuSans-30" x="127.246094"/>
       <use xlink:href="#DejaVuSans-30" x="190.869141"/>
      </g>
     </g>
    </g>
    <g id="ytick_3">
     <g id="line2d_8">
      <g>
       <use xlink:href="#mbb4667a72f" x="57.6" y="230.883122" style="stroke: #000000; stroke-width: 0.8"/>
      </g>
     </g>
     <g id="text_8">
      <!-- 6000 -->
      <g transform="translate(25.15 234.682341) scale(0.1 -0.1)">
       <defs>
        <path id="DejaVuSans-36" d="M 2113 2584 
Q 1688 2584 1439 2293 
Q 1191 2003 1191 1497 
Q 1191 994 1439 701 
Q 1688 409 2113 409 
Q 2538 409 2786 701 
Q 3034 994 3034 1497 
Q 3034 2003 2786 2293 
Q 2538 2584 2113 2584 
z
M 3366 4563 
L 3366 3988 
Q 3128 4100 2886 4159 
Q 2644 4219 2406 4219 
Q 1781 4219 1451 3797 
Q 1122 3375 1075 2522 
Q 1259 2794 1537 2939 
Q 1816 3084 2150 3084 
Q 2853 3084 3261 2657 
Q 3669 2231 3669 1497 
Q 3669 778 3244 343 
Q 2819 -91 2113 -91 
Q 1303 -91 875 529 
Q 447 1150 447 2328 
Q 447 3434 972 4092 
Q 1497 4750 2381 4750 
Q 2619 4750 2861 4703 
Q 3103 4656 3366 4563 
z
" transform="scale(0.015625)"/>
       </defs>
       <use xlink:href="#DejaVuSans-36"/>
       <use xlink:href="#DejaVuSans-30" x="63.623047"/>
       <use xlink:href="#DejaVuSans-30" x="127.246094"/>
       <use xlink:href="#DejaVuSans-30" x="190.869141"/>
      </g>
     </g>
    </g>
    <g id="ytick_4">
     <g id="line2d_9">
      <g>
       <use xlink:href="#mbb4667a72f" x="57.6" y="199.300075" style="stroke: #000000; stroke-width: 0.8"/>
      </g>
     </g>
     <g id="text_9">
      <!-- 6500 -->
      <g transform="translate(25.15 203.099294) scale(0.1 -0.1)">
       <use xlink:href="#DejaVuSans-36"/>
       <use xlink:href="#DejaVuSans-35" x="63.623047"/>
       <use xlink:href="#DejaVuSans-30" x="127.246094"/>
       <use xlink:href="#DejaVuSans-30" x="190.869141"/>
      </g>
     </g>
    </g>
    <g id="ytick_5">
     <g id="line2d_10">
      <g>
       <use xlink:href="#mbb4667a72f" x="57.6" y="167.717028" style="stroke: #000000; stroke-width: 0.8"/>
      </g>
     </g>
     <g id="text_10">
      <!-- 7000 -->
      <g transform="translate(25.15 171.516247) scale(0.1 -0.1)">
       <defs>
        <path id="DejaVuSans-37" d="M 525 4666 
L 3525 4666 
L 3525 4397 
L 1831 0 
L 1172 0 
L 2766 4134 
L 525 4134 
L 525 4666 
z
" transform="scale(0.015625)"/>
       </defs>
       <use xlink:href="#DejaVuSans-37"/>
       <use xlink:href="#DejaVuSans-30" x="63.623047"/>
       <use xlink:href="#DejaVuSans-30" x="127.246094"/>
       <use xlink:href="#DejaVuSans-30" x="190.869141"/>
      </g>
     </g>
    </g>
    <g id="ytick_6">
     <g id="line2d_11">
      <g>
       <use xlink:href="#mbb4667a72f" x="57.6" y="136.133981" style="stroke: #000000; stroke-width: 0.8"/>
      </g>
     </g>
     <g id="text_11">
      <!-- 7500 -->
      <g transform="translate(25.15 139.9332) scale(0.1 -0.1)">
       <use xlink:href="#DejaVuSans-37"/>
       <use xlink:href="#DejaVuSans-35" x="63.623047"/>
       <use xlink:href="#DejaVuSans-30" x="127.246094"/>
       <use xlink:href="#DejaVuSans-30" x="190.869141"/>
      </g>
     </g>
    </g>
    <g id="ytick_7">
     <g id="line2d_12">
      <g>
       <use xlink:href="#mbb4667a72f" x="57.6" y="104.550934" style="stroke: #000000; stroke-width: 0.8"/>
      </g>
     </g>
     <g id="text_12">
      <!-- 8000 -->
      <g transform="translate(25.15 108.350153) scale(0.1 -0.1)">
       <defs>
        <path id="DejaVuSans-38" d="M 2034 2216 
Q 1584 2216 1326 1975 
Q 1069 1734 1069 1313 
Q 1069 891 1326 650 
Q 1584 409 2034 409 
Q 2484 409 2743 651 
Q 3003 894 3003 1313 
Q 3003 1734 2745 1975 
Q 2488 2216 2034 2216 
z
M 1403 2484 
Q 997 2584 770 2862 
Q 544 3141 544 3541 
Q 544 4100 942 4425 
Q 1341 4750 2034 4750 
Q 2731 4750 3128 4425 
Q 3525 4100 3525 3541 
Q 3525 3141 3298 2862 
Q 3072 2584 2669 2484 
Q 3125 2378 3379 2068 
Q 3634 1759 3634 1313 
Q 3634 634 3220 271 
Q 2806 -91 2034 -91 
Q 1263 -91 848 271 
Q 434 634 434 1313 
Q 434 1759 690 2068 
Q 947 2378 1403 2484 
z
M 1172 3481 
Q 1172 3119 1398 2916 
Q 1625 2713 2034 2713 
Q 2441 2713 2670 2916 
Q 2900 3119 2900 3481 
Q 2900 3844 2670 4047 
Q 2441 4250 2034 4250 
Q 1625 4250 1398 4047 
Q 1172 3844 1172 3481 
z
" transform="scale(0.015625)"/>
       </defs>
       <use xlink:href="#DejaVuSans-38"/>
       <use xlink:href="#DejaVuSans-30" x="63.623047"/>
       <use xlink:href="#DejaVuSans-30" x="127.246094"/>
       <use xlink:href="#DejaVuSans-30" x="190.869141"/>
      </g>
     </g>
    </g>
    <g id="ytick_8">
     <g id="line2d_13">
      <g>
       <use xlink:href="#mbb4667a72f" x="57.6" y="72.967887" style="stroke: #000000; stroke-width: 0.8"/>
      </g>
     </g>
     <g id="text_13">
      <!-- 8500 -->
      <g transform="translate(25.15 76.767105) scale(0.1 -0.1)">
       <use xlink:href="#DejaVuSans-38"/>
       <use xlink:href="#DejaVuSans-35" x="63.623047"/>
       <use xlink:href="#DejaVuSans-30" x="127.246094"/>
       <use xlink:href="#DejaVuSans-30" x="190.869141"/>
      </g>
     </g>
    </g>
   </g>
   <g id="line2d_14">
    <path d="M 73.832727 295.488 
L 75.342748 294.371364 
L 76.85277 291.293596 
L 79.872812 290.139937 
L 81.382833 289.760941 
L 82.892854 289.779189 
L 84.402875 288.939782 
L 85.912896 289.330709 
L 87.422918 287.116738 
L 88.932939 282.625872 
L 90.44296 275.941603 
L 91.952981 276.236378 
L 93.463002 276.862297 
L 94.973023 278.251951 
L 96.483044 276.552209 
L 99.503087 275.174039 
L 101.013108 272.678022 
L 102.523129 272.43799 
L 104.03315 269.324955 
L 105.543171 269.092293 
L 107.053192 267.282584 
L 108.563214 267.039395 
L 111.583256 266.916508 
L 113.093277 265.839239 
L 114.603298 265.27949 
L 116.113319 265.32808 
L 117.62334 265.078949 
L 119.133362 265.177048 
L 120.643383 265.638511 
L 122.153404 264.639083 
L 123.663425 266.082428 
L 125.173446 265.613947 
L 126.683467 266.208761 
L 128.193488 266.389486 
L 129.70351 263.085197 
L 131.213531 261.626061 
L 132.723552 262.729362 
L 134.233573 261.476567 
L 135.743594 261.076516 
L 138.763636 260.909577 
L 141.783679 260.278326 
L 143.2937 259.251015 
L 144.803721 257.900163 
L 146.313742 256.157456 
L 147.823763 255.01257 
L 149.333784 252.012181 
L 150.843805 250.444872 
L 152.353827 247.67628 
L 153.863848 246.954382 
L 155.373869 246.776684 
L 156.88389 245.425901 
L 158.393911 245.023905 
L 159.903932 245.829192 
L 162.923975 240.433836 
L 164.433996 239.237891 
L 165.944017 239.230765 
L 167.454038 239.920085 
L 170.47408 240.299082 
L 171.984101 240.876901 
L 173.494123 239.603553 
L 175.004144 239.586508 
L 176.514165 238.353566 
L 178.024186 238.503661 
L 179.534207 238.074084 
L 181.044228 238.17249 
L 182.554249 237.014181 
L 184.064271 235.604788 
L 185.574292 234.853563 
L 187.084313 232.967604 
L 188.594334 231.474587 
L 190.104355 231.039534 
L 191.614376 231.198953 
L 193.124397 230.711672 
L 194.634419 231.210438 
L 196.14444 231.577949 
L 197.654461 230.061963 
L 199.164482 230.230406 
L 200.674503 228.264601 
L 202.184524 225.754036 
L 203.694545 224.961301 
L 205.204567 222.459062 
L 206.714588 222.103035 
L 208.224609 222.629419 
L 209.73463 222.825936 
L 211.244651 222.306571 
L 212.754672 220.618632 
L 214.264693 217.652697 
L 215.774715 217.820374 
L 217.284736 216.055935 
L 218.794757 215.742696 
L 220.304778 216.475989 
L 221.814799 215.917617 
L 223.32482 216.570738 
L 224.834841 214.359925 
L 226.344863 213.92829 
L 227.854884 212.822131 
L 229.364905 212.914798 
L 230.874926 213.512447 
L 232.384947 213.045989 
L 233.894968 212.316803 
L 235.404989 212.316803 
L 236.915011 210.589962 
L 238.425032 204.795526 
L 239.935053 205.821975 
L 241.445074 205.695642 
L 242.955095 205.395603 
L 244.465116 204.574444 
L 245.975137 205.974626 
L 247.485159 201.150842 
L 248.99518 200.826589 
L 250.505201 198.815802 
L 252.015222 200.430748 
L 253.525243 198.331529 
L 255.035264 196.899764 
L 256.545285 192.209681 
L 258.055307 193.198231 
L 259.565328 193.376499 
L 261.075349 194.013559 
L 262.58537 194.104664 
L 264.095391 194.952142 
L 265.605412 194.00816 
L 267.115433 189.016635 
L 268.625455 190.412606 
L 270.135476 189.797087 
L 271.645497 190.006764 
L 273.155518 187.035325 
L 274.665539 186.89245 
L 276.17556 184.203379 
L 277.685581 183.689026 
L 279.195603 182.137847 
L 280.705624 180.269033 
L 282.215645 181.353886 
L 283.725666 178.890408 
L 285.235687 175.802288 
L 286.745708 169.120719 
L 288.255729 165.537798 
L 291.275772 160.055883 
L 292.785793 158.774514 
L 294.295814 155.457063 
L 295.805835 147.371229 
L 297.315856 146.998549 
L 298.825877 147.309521 
L 300.335899 146.882745 
L 301.84592 148.343085 
L 303.355941 147.19379 
L 304.865962 148.085442 
L 306.375983 144.460421 
L 307.886004 141.456777 
L 309.396025 140.925246 
L 310.906047 140.740247 
L 312.416068 136.598883 
L 313.926089 132.917022 
L 315.43611 131.723692 
L 316.946131 127.573221 
L 318.456152 126.502656 
L 319.966173 125.765968 
L 321.476195 123.92756 
L 322.986216 123.913004 
L 324.496237 123.59264 
L 326.006258 123.73433 
L 327.516279 123.217217 
L 329.0263 121.709372 
L 330.536321 121.5603 
L 332.046342 119.328084 
L 333.556364 111.347211 
L 335.066385 109.594863 
L 336.576406 111.142883 
L 338.086427 111.670124 
L 339.596448 111.538683 
L 341.106469 112.271774 
L 342.61649 111.827668 
L 344.126512 105.871105 
L 345.636533 107.714098 
L 347.146554 106.682205 
L 348.656575 103.535417 
L 350.166596 99.661878 
L 351.676617 100.760968 
L 353.186638 98.473768 
L 354.69666 98.701052 
L 356.206681 97.873375 
L 357.716702 98.377729 
L 359.226723 96.619077 
L 360.736744 96.537864 
L 362.246765 94.66544 
L 363.756786 91.696634 
L 365.266808 85.537939 
L 366.776829 81.095258 
L 368.28685 67.150864 
L 369.796871 62.86833 
L 371.306892 64.56048 
L 372.816913 67.78195 
L 374.326934 67.908283 
L 375.836956 68.91894 
L 377.346977 69.166436 
L 378.856998 69.0937 
L 380.367019 66.054709 
L 381.87704 66.272281 
L 383.387061 67.690647 
L 384.897082 67.346104 
L 386.407104 66.145949 
L 387.917125 64.509372 
L 389.427146 64.762037 
L 390.937167 61.106698 
L 395.46723 61.071606 
L 396.977252 60.082003 
L 398.487273 56.402578 
L 398.487273 56.402578 
" clip-path="url(#p2aa9c19efd)" style="fill: none; stroke: #1f77b4; stroke-opacity: 0.7; stroke-width: 0.5; stroke-linecap: square"/>
   </g>
   <g id="line2d_15">
    <path d="M 73.832727 294.630345 
L 75.342748 293.249113 
L 76.85277 290.280306 
L 78.362791 290.132919 
L 81.382833 289.230546 
L 82.892854 289.585479 
L 84.402875 288.503234 
L 85.912896 288.983296 
L 87.422918 285.913424 
L 88.932939 281.668662 
L 90.44296 275.825799 
L 91.952981 275.583662 
L 93.463002 276.286911 
L 94.973023 279.470482 
L 96.483044 275.996347 
L 97.993066 275.446802 
L 99.503087 274.770925 
L 102.523129 271.393644 
L 104.03315 269.203886 
L 105.543171 268.972277 
L 107.053192 267.287848 
L 108.563214 267.393125 
L 110.073235 266.644156 
L 111.583256 266.635132 
L 113.093277 265.571836 
L 114.603298 264.992813 
L 116.113319 265.182312 
L 117.62334 265.030713 
L 119.133362 264.686007 
L 120.643383 264.637504 
L 122.153404 264.714883 
L 125.173446 265.40971 
L 126.683467 264.842794 
L 128.193488 265.042444 
L 129.70351 262.227041 
L 131.213531 260.129024 
L 132.723552 262.102965 
L 134.233573 260.255356 
L 135.743594 260.002692 
L 137.253615 259.87636 
L 138.763636 260.204823 
L 140.273658 259.860568 
L 141.783679 258.865702 
L 143.2937 258.441587 
L 144.803721 257.065469 
L 146.313742 255.067841 
L 147.823763 254.28616 
L 149.333784 251.601601 
L 150.843805 249.643452 
L 152.353827 247.137864 
L 153.863848 246.2009 
L 155.373869 245.716627 
L 156.88389 244.173269 
L 158.393911 244.425933 
L 159.903932 245.131589 
L 161.413953 241.9793 
L 162.923975 239.915874 
L 164.433996 238.131432 
L 165.944017 238.223023 
L 167.454038 239.385279 
L 168.964059 239.831652 
L 170.47408 239.11577 
L 171.984101 240.509635 
L 173.494123 238.219413 
L 175.004144 239.044182 
L 176.514165 238.175297 
L 178.024186 238.231445 
L 179.534207 237.136566 
L 181.044228 237.118518 
L 182.554249 236.173283 
L 184.064271 234.406387 
L 185.574292 234.546756 
L 187.084313 231.956946 
L 188.594334 230.504126 
L 190.104355 230.156712 
L 191.614376 230.769423 
L 193.124397 229.793507 
L 194.634419 231.230536 
L 196.14444 230.938393 
L 197.654461 229.107453 
L 199.164482 229.672439 
L 200.674503 227.464258 
L 202.184524 224.608624 
L 203.694545 224.092767 
L 205.204567 221.62929 
L 206.714588 221.21871 
L 208.224609 221.745094 
L 211.244651 221.660873 
L 212.754672 219.17634 
L 214.264693 216.465461 
L 215.774715 216.78806 
L 217.284736 215.154765 
L 218.794757 214.633645 
L 220.304778 215.660094 
L 221.814799 214.750502 
L 223.32482 215.891703 
L 224.834841 213.651412 
L 226.344863 212.975535 
L 227.854884 211.659574 
L 229.364905 212.038571 
L 230.874926 212.975535 
L 233.894968 211.617464 
L 235.404989 211.99646 
L 236.915011 209.266281 
L 238.425032 203.505132 
L 239.935053 203.59537 
L 241.445074 205.511408 
L 242.955095 203.879617 
L 244.465116 204.669193 
L 245.975137 205.881982 
L 247.485159 198.73158 
L 248.99518 199.426407 
L 250.505201 197.566517 
L 252.015222 199.510629 
L 253.525243 196.352324 
L 255.035264 196.268103 
L 256.545285 190.456822 
L 258.055307 191.277981 
L 259.565328 193.773042 
L 261.075349 192.642369 
L 262.58537 192.819234 
L 264.095391 194.246788 
L 265.605412 191.871743 
L 267.115433 188.103885 
L 268.625455 189.414582 
L 270.135476 189.361943 
L 271.645497 189.80937 
L 273.155518 185.403535 
L 274.665539 185.277202 
L 276.17556 182.949081 
L 277.685581 182.813725 
L 279.195603 180.455524 
L 280.705624 179.781752 
L 282.215645 180.590278 
L 283.725666 177.413024 
L 285.235687 175.139044 
L 286.745708 168.30921 
L 288.255729 163.716509 
L 289.765751 160.468719 
L 291.275772 157.698886 
L 292.785793 157.16829 
L 294.295814 152.493999 
L 295.805835 144.661404 
L 297.315856 144.498977 
L 298.825877 146.272139 
L 300.335899 145.987892 
L 301.84592 147.472295 
L 303.355941 147.491245 
L 304.865962 145.368864 
L 306.375983 142.967404 
L 307.886004 139.914923 
L 309.396025 139.829198 
L 310.906047 139.344924 
L 313.926089 131.122804 
L 315.43611 130.354283 
L 316.946131 125.806325 
L 318.456152 125.048331 
L 319.966173 124.08189 
L 321.476195 122.384828 
L 322.986216 121.684737 
L 324.496237 123.142821 
L 327.516279 122.056966 
L 329.0263 120.315386 
L 330.536321 120.026627 
L 332.046342 117.610524 
L 333.556364 108.692825 
L 335.066385 106.382751 
L 336.576406 109.651596 
L 338.086427 111.183374 
L 339.596448 109.79372 
L 341.106469 112.988119 
L 342.61649 111.420247 
L 344.126512 104.708849 
L 345.636533 106.024809 
L 347.146554 104.212134 
L 348.656575 101.476851 
L 350.166596 99.466063 
L 351.676617 100.002975 
L 353.186638 97.25525 
L 354.69666 97.002586 
L 356.206681 97.349999 
L 357.716702 96.617272 
L 359.226723 96.642539 
L 360.736744 95.723472 
L 362.246765 93.481076 
L 363.756786 91.475552 
L 365.266808 83.158683 
L 366.776829 78.273839 
L 368.28685 62.987644 
L 369.796871 58.818682 
L 371.306892 63.720371 
L 372.816913 66.619694 
L 374.326934 67.156606 
L 375.836956 68.783133 
L 377.346977 69.089489 
L 378.856998 70.251745 
L 380.367019 63.01291 
L 381.87704 65.182666 
L 383.387061 66.954475 
L 384.897082 64.566796 
L 386.407104 62.671813 
L 387.917125 62.242284 
L 389.427146 63.966718 
L 390.937167 59.987254 
L 392.447188 58.40359 
L 393.957209 60.839997 
L 395.46723 61.692739 
L 396.977252 58.973088 
L 398.487273 53.568 
L 398.487273 53.568 
" clip-path="url(#p2aa9c19efd)" style="fill: none; stroke: #ff7f0e; stroke-opacity: 0.7; stroke-width: 0.5; stroke-linecap: square"/>
   </g>
   <g id="line2d_16">
    <path d="M 73.832727 295.069349 
L 75.342748 293.81866 
L 76.85277 290.909862 
L 78.362791 290.613683 
L 79.872812 290.08028 
L 82.892854 289.919733 
L 84.402875 289.113238 
L 85.912896 289.07624 
L 87.422918 286.582834 
L 88.932939 282.274004 
L 90.44296 275.761418 
L 91.952981 276.572025 
L 94.973023 278.905146 
L 96.483044 277.320729 
L 97.993066 276.278489 
L 99.503087 275.604717 
L 101.013108 273.128606 
L 102.523129 271.604198 
L 104.03315 269.327587 
L 105.543171 269.177567 
L 107.053192 267.584729 
L 108.563214 267.494191 
L 110.073235 267.762647 
L 111.583256 267.529985 
L 113.093277 266.571966 
L 114.603298 265.313908 
L 119.133362 265.63237 
L 120.643383 265.603419 
L 122.153404 265.379706 
L 123.663425 265.897141 
L 125.173446 266.729881 
L 128.193488 265.943689 
L 129.70351 262.544649 
L 131.213531 260.731734 
L 132.723552 262.622581 
L 134.233573 260.9565 
L 135.743594 260.318522 
L 137.253615 260.560659 
L 138.763636 260.563291 
L 140.273658 260.032019 
L 141.783679 259.160477 
L 143.2937 258.54536 
L 144.803721 257.453489 
L 147.823763 254.180884 
L 150.843805 249.843478 
L 152.353827 247.718322 
L 153.863848 246.445669 
L 155.373869 246.602005 
L 156.88389 244.956528 
L 158.393911 244.792823 
L 159.903932 245.485018 
L 161.413953 242.635964 
L 162.923975 240.117216 
L 164.433996 238.420943 
L 165.944017 239.017863 
L 167.454038 239.921138 
L 168.964059 240.152747 
L 170.47408 240.100108 
L 171.984101 240.756334 
L 173.494123 239.486871 
L 175.004144 239.673737 
L 176.514165 238.246484 
L 178.024186 238.278293 
L 179.534207 237.841921 
L 181.044228 237.587414 
L 182.554249 236.876883 
L 184.064271 235.292116 
L 185.574292 234.921541 
L 187.084313 232.488594 
L 188.594334 230.567292 
L 190.104355 230.643618 
L 191.614376 231.072621 
L 193.124397 230.437801 
L 194.634419 230.947417 
L 196.14444 231.327917 
L 197.654461 229.688709 
L 199.164482 230.287256 
L 202.184524 225.209454 
L 203.694545 224.292793 
L 205.204567 221.90722 
L 206.714588 221.660873 
L 208.224609 222.61626 
L 209.73463 222.707324 
L 211.244651 222.39781 
L 214.264693 217.258196 
L 215.774715 217.642807 
L 217.284736 215.409535 
L 218.794757 215.146869 
L 220.304778 216.570738 
L 221.814799 215.712732 
L 223.32482 216.149631 
L 224.834841 213.707209 
L 226.344863 213.370323 
L 227.854884 212.196486 
L 229.364905 212.729187 
L 230.874926 213.458755 
L 232.384947 213.031181 
L 233.894968 212.243861 
L 235.404989 212.149864 
L 236.915011 209.814359 
L 238.425032 203.527692 
L 239.935053 205.342965 
L 241.445074 206.187811 
L 242.955095 205.600893 
L 244.465116 203.950679 
L 245.975137 205.743017 
L 247.485159 200.395556 
L 248.99518 200.689729 
L 250.505201 198.042017 
L 252.015222 199.938316 
L 253.525243 197.266127 
L 255.035264 196.225992 
L 256.545285 191.383258 
L 258.055307 192.600521 
L 259.565328 193.619338 
L 261.075349 194.283635 
L 264.095391 194.545774 
L 265.605412 193.815153 
L 267.115433 189.185604 
L 268.625455 190.590674 
L 270.135476 190.119936 
L 271.645497 189.940966 
L 273.155518 185.799902 
L 274.665539 186.08257 
L 276.17556 183.603301 
L 277.685581 183.21904 
L 279.195603 181.174565 
L 280.705624 179.73701 
L 282.215645 181.300746 
L 283.725666 177.794652 
L 285.235687 175.40092 
L 286.745708 168.904551 
L 288.255729 164.935682 
L 291.275772 159.208963 
L 292.785793 158.470398 
L 294.295814 154.434602 
L 295.805835 146.879797 
L 297.315856 146.358466 
L 298.825877 147.260689 
L 300.335899 147.735487 
L 301.84592 148.388203 
L 303.355941 147.795782 
L 304.865962 146.626571 
L 306.375983 143.177001 
L 307.886004 140.702995 
L 309.396025 140.542072 
L 310.906047 140.089758 
L 313.926089 132.64884 
L 315.43611 131.213434 
L 316.946131 126.547624 
L 318.456152 125.907482 
L 319.966173 125.129921 
L 321.476195 123.437596 
L 324.496237 123.021753 
L 326.006258 123.532345 
L 327.516279 122.469049 
L 329.0263 121.12098 
L 330.536321 120.798832 
L 332.046342 118.22148 
L 333.556364 109.883957 
L 335.066385 108.499198 
L 336.576406 110.566452 
L 338.086427 112.386161 
L 339.596448 111.762396 
L 341.106469 112.920441 
L 342.61649 113.157314 
L 344.126512 106.371346 
L 345.636533 107.46259 
L 347.146554 106.119559 
L 348.656575 103.206022 
L 350.166596 99.476591 
L 351.676617 101.11139 
L 353.186638 97.64688 
L 354.69666 98.35434 
L 357.716702 97.683877 
L 359.226723 96.36145 
L 360.736744 96.49094 
L 362.246765 94.318601 
L 363.756786 91.475552 
L 365.266808 84.18818 
L 366.776829 79.74245 
L 368.28685 66.192918 
L 369.796871 62.182755 
L 371.306892 65.48402 
L 372.816913 70.362285 
L 374.326934 70.109621 
L 375.836956 68.822085 
L 377.346977 70.455982 
L 378.856998 70.567575 
L 380.367019 66.893414 
L 383.387061 66.967108 
L 386.407104 67.398743 
L 387.917125 66.103311 
L 389.427146 65.174243 
L 390.937167 62.275333 
L 392.447188 61.6401 
L 393.957209 61.800648 
L 395.46723 61.840126 
L 396.977252 60.546274 
L 398.487273 54.90677 
L 398.487273 54.90677 
" clip-path="url(#p2aa9c19efd)" style="fill: none; stroke: #2ca02c; stroke-opacity: 0.7; stroke-width: 0.5; stroke-linecap: square"/>
   </g>
   <g id="line2d_17">
    <path d="M 73.832727 294.554545 
L 75.342748 292.027902 
L 78.362791 290.76458 
L 79.872812 290.385583 
L 81.382833 290.322417 
L 82.892854 289.564424 
L 84.402875 289.62759 
L 85.912896 287.353611 
L 87.422918 283.500479 
L 88.932939 277.4997 
L 90.44296 277.626032 
L 91.952981 278.131361 
L 93.463002 279.521015 
L 94.973023 277.941863 
L 96.483044 277.373368 
L 97.993066 276.489043 
L 99.503087 274.467728 
L 101.013108 272.825409 
L 102.523129 270.614596 
L 104.03315 269.982935 
L 105.543171 268.466949 
L 107.053192 268.466949 
L 108.563214 268.27745 
L 110.073235 268.214284 
L 113.093277 266.445634 
L 114.603298 266.445634 
L 116.113319 266.319301 
L 117.62334 266.319301 
L 119.133362 266.066637 
L 120.643383 266.003471 
L 122.153404 266.571966 
L 123.663425 266.761464 
L 125.173446 266.698298 
L 126.683467 266.761464 
L 128.193488 263.476827 
L 129.70351 262.087173 
L 131.213531 263.034664 
L 132.723552 261.771343 
L 134.233573 261.266014 
L 135.743594 260.950183 
L 137.253615 261.013349 
L 138.763636 260.444855 
L 140.273658 260.129024 
L 141.783679 259.307865 
L 143.2937 257.918211 
L 144.803721 256.339058 
L 146.313742 255.075737 
L 147.823763 252.864923 
L 149.333784 250.906774 
L 150.843805 248.632795 
L 152.353827 247.306307 
L 153.863848 247.053643 
L 155.373869 245.727155 
L 156.88389 245.47449 
L 158.393911 246.106151 
L 161.413953 241.179196 
L 162.923975 239.726376 
L 164.433996 239.536877 
L 165.944017 240.105372 
L 168.964059 240.484369 
L 170.47408 241.11603 
L 171.984101 239.852708 
L 173.494123 240.231704 
L 175.004144 238.84205 
L 176.514165 238.778884 
L 178.024186 238.273555 
L 179.534207 238.399888 
L 181.044228 237.515562 
L 182.554249 235.873244 
L 184.064271 235.367915 
L 185.574292 233.220268 
L 187.084313 231.767448 
L 188.594334 231.198953 
L 190.104355 231.451617 
L 191.614376 230.883122 
L 193.124397 231.388451 
L 194.634419 231.767448 
L 196.14444 230.377794 
L 197.654461 230.504126 
L 199.164482 228.419645 
L 200.674503 226.082499 
L 202.184524 225.135008 
L 203.694545 222.797862 
L 205.204567 222.418866 
L 206.714588 222.861028 
L 208.224609 222.861028 
L 209.73463 222.67153 
L 211.244651 220.776547 
L 212.754672 218.123571 
L 214.264693 218.186737 
L 215.774715 216.165422 
L 217.284736 215.849592 
L 218.794757 216.670751 
L 220.304778 216.165422 
L 221.814799 216.733917 
L 223.32482 214.523104 
L 224.834841 214.080941 
L 226.344863 213.007118 
L 227.854884 213.13345 
L 229.364905 213.701945 
L 232.384947 212.817619 
L 233.894968 212.691287 
L 235.404989 210.796304 
L 236.915011 205.36402 
L 238.425032 206.311512 
L 239.935053 206.18518 
L 241.445074 205.806183 
L 242.955095 204.985024 
L 244.465116 206.248346 
L 245.975137 201.700387 
L 247.485159 201.700387 
L 248.99518 199.173743 
L 250.505201 200.563397 
L 252.015222 198.542082 
L 253.525243 197.27876 
L 255.035264 192.667635 
L 256.545285 193.488795 
L 258.055307 193.678293 
L 259.565328 194.309954 
L 261.075349 194.37312 
L 262.58537 195.320611 
L 264.095391 194.183622 
L 265.605412 190.456822 
L 267.115433 191.277981 
L 270.135476 190.33049 
L 271.645497 187.045853 
L 273.155518 186.919521 
L 274.665539 184.582375 
L 276.17556 184.077047 
L 277.685581 182.182064 
L 279.195603 180.729244 
L 280.705624 181.487237 
L 282.215645 178.771095 
L 283.725666 176.497115 
L 285.235687 170.43317 
L 286.745708 166.643205 
L 289.765751 160.831924 
L 291.275772 159.7581 
L 292.785793 155.841802 
L 294.295814 148.893532 
L 295.805835 147.882875 
L 297.315856 148.009207 
L 298.825877 148.261871 
L 300.335899 148.956698 
L 301.84592 148.893532 
L 303.355941 148.198705 
L 306.375983 142.576923 
L 307.886004 141.503099 
L 309.396025 141.060936 
L 312.416068 133.607337 
L 313.926089 132.154517 
L 315.43611 127.922389 
L 316.946131 126.848565 
L 318.456152 126.027406 
L 319.966173 124.195589 
L 322.986216 123.816593 
L 324.496237 124.069257 
L 326.006258 123.500762 
L 327.516279 122.174274 
L 329.0263 122.047942 
L 330.536321 119.521298 
L 332.046342 111.941367 
L 333.556364 110.172716 
L 335.066385 111.625536 
L 336.576406 112.130865 
L 338.086427 112.130865 
L 339.596448 113.646851 
L 341.106469 113.078357 
L 342.61649 108.214567 
L 344.126512 108.404066 
L 345.636533 107.140744 
L 347.146554 104.108771 
L 348.656575 101.392629 
L 350.166596 101.70846 
L 351.676617 98.739653 
L 353.186638 98.929151 
L 354.69666 98.865985 
L 356.206681 98.613321 
L 357.716702 97.66583 
L 359.226723 97.476331 
L 360.736744 95.644515 
L 362.246765 92.865206 
L 363.756786 86.043268 
L 365.266808 81.684808 
L 366.776829 69.367419 
L 368.28685 65.198457 
L 369.796871 66.524945 
L 371.306892 69.746416 
L 372.816913 69.872748 
L 374.326934 70.883406 
L 375.836956 70.82024 
L 377.346977 71.199236 
L 378.856998 68.293596 
L 380.367019 68.040931 
L 381.87704 68.798924 
L 383.387061 68.925257 
L 384.897082 67.535603 
L 386.407104 66.903942 
L 387.917125 67.156606 
L 389.427146 64.061467 
L 390.937167 62.861312 
L 392.447188 62.103318 
L 393.957209 62.166485 
L 395.46723 61.787488 
L 396.977252 56.481536 
L 398.487273 53.702228 
L 398.487273 53.702228 
" clip-path="url(#p2aa9c19efd)" style="fill: none; stroke: #d62728; stroke-opacity: 0.7; stroke-width: 0.5; stroke-linecap: square"/>
   </g>
   <g id="patch_3">
    <path d="M 57.6 307.584 
L 57.6 41.472 
" style="fill: none; stroke: #000000; stroke-width: 0.8; stroke-linejoin: miter; stroke-linecap: square"/>
   </g>
   <g id="patch_4">
    <path d="M 414.72 307.584 
L 414.72 41.472 
" style="fill: none; stroke: #000000; stroke-width: 0.8; stroke-linejoin: miter; stroke-linecap: square"/>
   </g>
   <g id="patch_5">
    <path d="M 57.6 307.584 
L 414.72 307.584 
" style="fill: none; stroke: #000000; stroke-width: 0.8; stroke-linejoin: miter; stroke-linecap: square"/>
   </g>
   <g id="patch_6">
    <path d="M 57.6 41.472 
L 414.72 41.472 
" style="fill: none; stroke: #000000; stroke-width: 0.8; stroke-linejoin: miter; stroke-linecap: square"/>
   </g>
   <g id="text_14">
    <!-- naive_jaccard_cci -->
    <g transform="translate(183.71625 35.472) scale(0.12 -0.12)">
     <defs>
      <path id="DejaVuSans-6e" d="M 3513 2113 
L 3513 0 
L 2938 0 
L 2938 2094 
Q 2938 2591 2744 2837 
Q 2550 3084 2163 3084 
Q 1697 3084 1428 2787 
Q 1159 2491 1159 1978 
L 1159 0 
L 581 0 
L 581 3500 
L 1159 3500 
L 1159 2956 
Q 1366 3272 1645 3428 
Q 1925 3584 2291 3584 
Q 2894 3584 3203 3211 
Q 3513 2838 3513 2113 
z
" transform="scale(0.015625)"/>
      <path id="DejaVuSans-61" d="M 2194 1759 
Q 1497 1759 1228 1600 
Q 959 1441 959 1056 
Q 959 750 1161 570 
Q 1363 391 1709 391 
Q 2188 391 2477 730 
Q 2766 1069 2766 1631 
L 2766 1759 
L 2194 1759 
z
M 3341 1997 
L 3341 0 
L 2766 0 
L 2766 531 
Q 2569 213 2275 61 
Q 1981 -91 1556 -91 
Q 1019 -91 701 211 
Q 384 513 384 1019 
Q 384 1609 779 1909 
Q 1175 2209 1959 2209 
L 2766 2209 
L 2766 2266 
Q 2766 2663 2505 2880 
Q 2244 3097 1772 3097 
Q 1472 3097 1187 3025 
Q 903 2953 641 2809 
L 641 3341 
Q 956 3463 1253 3523 
Q 1550 3584 1831 3584 
Q 2591 3584 2966 3190 
Q 3341 2797 3341 1997 
z
" transform="scale(0.015625)"/>
      <path id="DejaVuSans-69" d="M 603 3500 
L 1178 3500 
L 1178 0 
L 603 0 
L 603 3500 
z
M 603 4863 
L 1178 4863 
L 1178 4134 
L 603 4134 
L 603 4863 
z
" transform="scale(0.015625)"/>
      <path id="DejaVuSans-76" d="M 191 3500 
L 800 3500 
L 1894 563 
L 2988 3500 
L 3597 3500 
L 2284 0 
L 1503 0 
L 191 3500 
z
" transform="scale(0.015625)"/>
      <path id="DejaVuSans-65" d="M 3597 1894 
L 3597 1613 
L 953 1613 
Q 991 1019 1311 708 
Q 1631 397 2203 397 
Q 2534 397 2845 478 
Q 3156 559 3463 722 
L 3463 178 
Q 3153 47 2828 -22 
Q 2503 -91 2169 -91 
Q 1331 -91 842 396 
Q 353 884 353 1716 
Q 353 2575 817 3079 
Q 1281 3584 2069 3584 
Q 2775 3584 3186 3129 
Q 3597 2675 3597 1894 
z
M 3022 2063 
Q 3016 2534 2758 2815 
Q 2500 3097 2075 3097 
Q 1594 3097 1305 2825 
Q 1016 2553 972 2059 
L 3022 2063 
z
" transform="scale(0.015625)"/>
      <path id="DejaVuSans-5f" d="M 3263 -1063 
L 3263 -1509 
L -63 -1509 
L -63 -1063 
L 3263 -1063 
z
" transform="scale(0.015625)"/>
      <path id="DejaVuSans-6a" d="M 603 3500 
L 1178 3500 
L 1178 -63 
Q 1178 -731 923 -1031 
Q 669 -1331 103 -1331 
L -116 -1331 
L -116 -844 
L 38 -844 
Q 366 -844 484 -692 
Q 603 -541 603 -63 
L 603 3500 
z
M 603 4863 
L 1178 4863 
L 1178 4134 
L 603 4134 
L 603 4863 
z
" transform="scale(0.015625)"/>
      <path id="DejaVuSans-63" d="M 3122 3366 
L 3122 2828 
Q 2878 2963 2633 3030 
Q 2388 3097 2138 3097 
Q 1578 3097 1268 2742 
Q 959 2388 959 1747 
Q 959 1106 1268 751 
Q 1578 397 2138 397 
Q 2388 397 2633 464 
Q 2878 531 3122 666 
L 3122 134 
Q 2881 22 2623 -34 
Q 2366 -91 2075 -91 
Q 1284 -91 818 406 
Q 353 903 353 1747 
Q 353 2603 823 3093 
Q 1294 3584 2113 3584 
Q 2378 3584 2631 3529 
Q 2884 3475 3122 3366 
z
" transform="scale(0.015625)"/>
      <path id="DejaVuSans-72" d="M 2631 2963 
Q 2534 3019 2420 3045 
Q 2306 3072 2169 3072 
Q 1681 3072 1420 2755 
Q 1159 2438 1159 1844 
L 1159 0 
L 581 0 
L 581 3500 
L 1159 3500 
L 1159 2956 
Q 1341 3275 1631 3429 
Q 1922 3584 2338 3584 
Q 2397 3584 2469 3576 
Q 2541 3569 2628 3553 
L 2631 2963 
z
" transform="scale(0.015625)"/>
      <path id="DejaVuSans-64" d="M 2906 2969 
L 2906 4863 
L 3481 4863 
L 3481 0 
L 2906 0 
L 2906 525 
Q 2725 213 2448 61 
Q 2172 -91 1784 -91 
Q 1150 -91 751 415 
Q 353 922 353 1747 
Q 353 2572 751 3078 
Q 1150 3584 1784 3584 
Q 2172 3584 2448 3432 
Q 2725 3281 2906 2969 
z
M 947 1747 
Q 947 1113 1208 752 
Q 1469 391 1925 391 
Q 2381 391 2643 752 
Q 2906 1113 2906 1747 
Q 2906 2381 2643 2742 
Q 2381 3103 1925 3103 
Q 1469 3103 1208 2742 
Q 947 2381 947 1747 
z
" transform="scale(0.015625)"/>
     </defs>
     <use xlink:href="#DejaVuSans-6e"/>
     <use xlink:href="#DejaVuSans-61" x="63.378906"/>
     <use xlink:href="#DejaVuSans-69" x="124.658203"/>
     <use xlink:href="#DejaVuSans-76" x="152.441406"/>
     <use xlink:href="#DejaVuSans-65" x="211.621094"/>
     <use xlink:href="#DejaVuSans-5f" x="273.144531"/>
     <use xlink:href="#DejaVuSans-6a" x="323.144531"/>
     <use xlink:href="#DejaVuSans-61" x="350.927734"/>
     <use xlink:href="#DejaVuSans-63" x="412.207031"/>
     <use xlink:href="#DejaVuSans-63" x="467.1875"/>
     <use xlink:href="#DejaVuSans-61" x="522.167969"/>
     <use xlink:href="#DejaVuSans-72" x="583.447266"/>
     <use xlink:href="#DejaVuSans-64" x="622.810547"/>
     <use xlink:href="#DejaVuSans-5f" x="686.287109"/>
     <use xlink:href="#DejaVuSans-63" x="736.287109"/>
     <use xlink:href="#DejaVuSans-63" x="791.267578"/>
     <use xlink:href="#DejaVuSans-69" x="846.248047"/>
    </g>
   </g>
   <g id="legend_1">
    <g id="patch_7">
     <path d="M 64.6 108.1845 
L 200.035938 108.1845 
Q 202.035938 108.1845 202.035938 106.1845 
L 202.035938 48.472 
Q 202.035938 46.472 200.035938 46.472 
L 64.6 46.472 
Q 62.6 46.472 62.6 48.472 
L 62.6 106.1845 
Q 62.6 108.1845 64.6 108.1845 
z
" style="fill: #ffffff; opacity: 0.8; stroke: #cccccc; stroke-linejoin: miter"/>
    </g>
    <g id="line2d_18">
     <path d="M 66.6 54.570438 
L 76.6 54.570438 
L 86.6 54.570438 
" style="fill: none; stroke: #1f77b4; stroke-opacity: 0.7; stroke-width: 0.5; stroke-linecap: square"/>
    </g>
    <g id="text_15">
     <!-- Positive predictions -->
     <g transform="translate(94.6 58.070438) scale(0.1 -0.1)">
      <defs>
       <path id="DejaVuSans-50" d="M 1259 4147 
L 1259 2394 
L 2053 2394 
Q 2494 2394 2734 2622 
Q 2975 2850 2975 3272 
Q 2975 3691 2734 3919 
Q 2494 4147 2053 4147 
L 1259 4147 
z
M 628 4666 
L 2053 4666 
Q 2838 4666 3239 4311 
Q 3641 3956 3641 3272 
Q 3641 2581 3239 2228 
Q 2838 1875 2053 1875 
L 1259 1875 
L 1259 0 
L 628 0 
L 628 4666 
z
" transform="scale(0.015625)"/>
       <path id="DejaVuSans-6f" d="M 1959 3097 
Q 1497 3097 1228 2736 
Q 959 2375 959 1747 
Q 959 1119 1226 758 
Q 1494 397 1959 397 
Q 2419 397 2687 759 
Q 2956 1122 2956 1747 
Q 2956 2369 2687 2733 
Q 2419 3097 1959 3097 
z
M 1959 3584 
Q 2709 3584 3137 3096 
Q 3566 2609 3566 1747 
Q 3566 888 3137 398 
Q 2709 -91 1959 -91 
Q 1206 -91 779 398 
Q 353 888 353 1747 
Q 353 2609 779 3096 
Q 1206 3584 1959 3584 
z
" transform="scale(0.015625)"/>
       <path id="DejaVuSans-73" d="M 2834 3397 
L 2834 2853 
Q 2591 2978 2328 3040 
Q 2066 3103 1784 3103 
Q 1356 3103 1142 2972 
Q 928 2841 928 2578 
Q 928 2378 1081 2264 
Q 1234 2150 1697 2047 
L 1894 2003 
Q 2506 1872 2764 1633 
Q 3022 1394 3022 966 
Q 3022 478 2636 193 
Q 2250 -91 1575 -91 
Q 1294 -91 989 -36 
Q 684 19 347 128 
L 347 722 
Q 666 556 975 473 
Q 1284 391 1588 391 
Q 1994 391 2212 530 
Q 2431 669 2431 922 
Q 2431 1156 2273 1281 
Q 2116 1406 1581 1522 
L 1381 1569 
Q 847 1681 609 1914 
Q 372 2147 372 2553 
Q 372 3047 722 3315 
Q 1072 3584 1716 3584 
Q 2034 3584 2315 3537 
Q 2597 3491 2834 3397 
z
" transform="scale(0.015625)"/>
       <path id="DejaVuSans-74" d="M 1172 4494 
L 1172 3500 
L 2356 3500 
L 2356 3053 
L 1172 3053 
L 1172 1153 
Q 1172 725 1289 603 
Q 1406 481 1766 481 
L 2356 481 
L 2356 0 
L 1766 0 
Q 1100 0 847 248 
Q 594 497 594 1153 
L 594 3053 
L 172 3053 
L 172 3500 
L 594 3500 
L 594 4494 
L 1172 4494 
z
" transform="scale(0.015625)"/>
       <path id="DejaVuSans-20" transform="scale(0.015625)"/>
       <path id="DejaVuSans-70" d="M 1159 525 
L 1159 -1331 
L 581 -1331 
L 581 3500 
L 1159 3500 
L 1159 2969 
Q 1341 3281 1617 3432 
Q 1894 3584 2278 3584 
Q 2916 3584 3314 3078 
Q 3713 2572 3713 1747 
Q 3713 922 3314 415 
Q 2916 -91 2278 -91 
Q 1894 -91 1617 61 
Q 1341 213 1159 525 
z
M 3116 1747 
Q 3116 2381 2855 2742 
Q 2594 3103 2138 3103 
Q 1681 3103 1420 2742 
Q 1159 2381 1159 1747 
Q 1159 1113 1420 752 
Q 1681 391 2138 391 
Q 2594 391 2855 752 
Q 3116 1113 3116 1747 
z
" transform="scale(0.015625)"/>
      </defs>
      <use xlink:href="#DejaVuSans-50"/>
      <use xlink:href="#DejaVuSans-6f" x="56.677734"/>
      <use xlink:href="#DejaVuSans-73" x="117.859375"/>
      <use xlink:href="#DejaVuSans-69" x="169.958984"/>
      <use xlink:href="#DejaVuSans-74" x="197.742188"/>
      <use xlink:href="#DejaVuSans-69" x="236.951172"/>
      <use xlink:href="#DejaVuSans-76" x="264.734375"/>
      <use xlink:href="#DejaVuSans-65" x="323.914062"/>
      <use xlink:href="#DejaVuSans-20" x="385.4375"/>
      <use xlink:href="#DejaVuSans-70" x="417.224609"/>
      <use xlink:href="#DejaVuSans-72" x="480.701172"/>
      <use xlink:href="#DejaVuSans-65" x="519.564453"/>
      <use xlink:href="#DejaVuSans-64" x="581.087891"/>
      <use xlink:href="#DejaVuSans-69" x="644.564453"/>
      <use xlink:href="#DejaVuSans-63" x="672.347656"/>
      <use xlink:href="#DejaVuSans-74" x="727.328125"/>
      <use xlink:href="#DejaVuSans-69" x="766.537109"/>
      <use xlink:href="#DejaVuSans-6f" x="794.320312"/>
      <use xlink:href="#DejaVuSans-6e" x="855.501953"/>
      <use xlink:href="#DejaVuSans-73" x="918.880859"/>
     </g>
    </g>
    <g id="line2d_19">
     <path d="M 66.6 69.248563 
L 76.6 69.248563 
L 86.6 69.248563 
" style="fill: none; stroke: #ff7f0e; stroke-opacity: 0.7; stroke-width: 0.5; stroke-linecap: square"/>
    </g>
    <g id="text_16">
     <!-- Negative predictions -->
     <g transform="translate(94.6 72.748563) scale(0.1 -0.1)">
      <defs>
       <path id="DejaVuSans-4e" d="M 628 4666 
L 1478 4666 
L 3547 763 
L 3547 4666 
L 4159 4666 
L 4159 0 
L 3309 0 
L 1241 3903 
L 1241 0 
L 628 0 
L 628 4666 
z
" transform="scale(0.015625)"/>
       <path id="DejaVuSans-67" d="M 2906 1791 
Q 2906 2416 2648 2759 
Q 2391 3103 1925 3103 
Q 1463 3103 1205 2759 
Q 947 2416 947 1791 
Q 947 1169 1205 825 
Q 1463 481 1925 481 
Q 2391 481 2648 825 
Q 2906 1169 2906 1791 
z
M 3481 434 
Q 3481 -459 3084 -895 
Q 2688 -1331 1869 -1331 
Q 1566 -1331 1297 -1286 
Q 1028 -1241 775 -1147 
L 775 -588 
Q 1028 -725 1275 -790 
Q 1522 -856 1778 -856 
Q 2344 -856 2625 -561 
Q 2906 -266 2906 331 
L 2906 616 
Q 2728 306 2450 153 
Q 2172 0 1784 0 
Q 1141 0 747 490 
Q 353 981 353 1791 
Q 353 2603 747 3093 
Q 1141 3584 1784 3584 
Q 2172 3584 2450 3431 
Q 2728 3278 2906 2969 
L 2906 3500 
L 3481 3500 
L 3481 434 
z
" transform="scale(0.015625)"/>
      </defs>
      <use xlink:href="#DejaVuSans-4e"/>
      <use xlink:href="#DejaVuSans-65" x="74.804688"/>
      <use xlink:href="#DejaVuSans-67" x="136.328125"/>
      <use xlink:href="#DejaVuSans-61" x="199.804688"/>
      <use xlink:href="#DejaVuSans-74" x="261.083984"/>
      <use xlink:href="#DejaVuSans-69" x="300.292969"/>
      <use xlink:href="#DejaVuSans-76" x="328.076172"/>
      <use xlink:href="#DejaVuSans-65" x="387.255859"/>
      <use xlink:href="#DejaVuSans-20" x="448.779297"/>
      <use xlink:href="#DejaVuSans-70" x="480.566406"/>
      <use xlink:href="#DejaVuSans-72" x="544.042969"/>
      <use xlink:href="#DejaVuSans-65" x="582.90625"/>
      <use xlink:href="#DejaVuSans-64" x="644.429688"/>
      <use xlink:href="#DejaVuSans-69" x="707.90625"/>
      <use xlink:href="#DejaVuSans-63" x="735.689453"/>
      <use xlink:href="#DejaVuSans-74" x="790.669922"/>
      <use xlink:href="#DejaVuSans-69" x="829.878906"/>
      <use xlink:href="#DejaVuSans-6f" x="857.662109"/>
      <use xlink:href="#DejaVuSans-6e" x="918.84375"/>
      <use xlink:href="#DejaVuSans-73" x="982.222656"/>
     </g>
    </g>
    <g id="line2d_20">
     <path d="M 66.6 83.926688 
L 76.6 83.926688 
L 86.6 83.926688 
" style="fill: none; stroke: #2ca02c; stroke-opacity: 0.7; stroke-width: 0.5; stroke-linecap: square"/>
    </g>
    <g id="text_17">
     <!-- Average predictions -->
     <g transform="translate(94.6 87.426688) scale(0.1 -0.1)">
      <defs>
       <path id="DejaVuSans-41" d="M 2188 4044 
L 1331 1722 
L 3047 1722 
L 2188 4044 
z
M 1831 4666 
L 2547 4666 
L 4325 0 
L 3669 0 
L 3244 1197 
L 1141 1197 
L 716 0 
L 50 0 
L 1831 4666 
z
" transform="scale(0.015625)"/>
      </defs>
      <use xlink:href="#DejaVuSans-41"/>
      <use xlink:href="#DejaVuSans-76" x="62.533203"/>
      <use xlink:href="#DejaVuSans-65" x="121.712891"/>
      <use xlink:href="#DejaVuSans-72" x="183.236328"/>
      <use xlink:href="#DejaVuSans-61" x="224.349609"/>
      <use xlink:href="#DejaVuSans-67" x="285.628906"/>
      <use xlink:href="#DejaVuSans-65" x="349.105469"/>
      <use xlink:href="#DejaVuSans-20" x="410.628906"/>
      <use xlink:href="#DejaVuSans-70" x="442.416016"/>
      <use xlink:href="#DejaVuSans-72" x="505.892578"/>
      <use xlink:href="#DejaVuSans-65" x="544.755859"/>
      <use xlink:href="#DejaVuSans-64" x="606.279297"/>
      <use xlink:href="#DejaVuSans-69" x="669.755859"/>
      <use xlink:href="#DejaVuSans-63" x="697.539062"/>
      <use xlink:href="#DejaVuSans-74" x="752.519531"/>
      <use xlink:href="#DejaVuSans-69" x="791.728516"/>
      <use xlink:href="#DejaVuSans-6f" x="819.511719"/>
      <use xlink:href="#DejaVuSans-6e" x="880.693359"/>
      <use xlink:href="#DejaVuSans-73" x="944.072266"/>
     </g>
    </g>
    <g id="line2d_21">
     <path d="M 66.6 98.604813 
L 76.6 98.604813 
L 86.6 98.604813 
" style="fill: none; stroke: #d62728; stroke-opacity: 0.7; stroke-width: 0.5; stroke-linecap: square"/>
    </g>
    <g id="text_18">
     <!-- Actual values -->
     <g transform="translate(94.6 102.104813) scale(0.1 -0.1)">
      <defs>
       <path id="DejaVuSans-75" d="M 544 1381 
L 544 3500 
L 1119 3500 
L 1119 1403 
Q 1119 906 1312 657 
Q 1506 409 1894 409 
Q 2359 409 2629 706 
Q 2900 1003 2900 1516 
L 2900 3500 
L 3475 3500 
L 3475 0 
L 2900 0 
L 2900 538 
Q 2691 219 2414 64 
Q 2138 -91 1772 -91 
Q 1169 -91 856 284 
Q 544 659 544 1381 
z
M 1991 3584 
L 1991 3584 
z
" transform="scale(0.015625)"/>
       <path id="DejaVuSans-6c" d="M 603 4863 
L 1178 4863 
L 1178 0 
L 603 0 
L 603 4863 
z
" transform="scale(0.015625)"/>
      </defs>
      <use xlink:href="#DejaVuSans-41"/>
      <use xlink:href="#DejaVuSans-63" x="66.658203"/>
      <use xlink:href="#DejaVuSans-74" x="121.638672"/>
      <use xlink:href="#DejaVuSans-75" x="160.847656"/>
      <use xlink:href="#DejaVuSans-61" x="224.226562"/>
      <use xlink:href="#DejaVuSans-6c" x="285.505859"/>
      <use xlink:href="#DejaVuSans-20" x="313.289062"/>
      <use xlink:href="#DejaVuSans-76" x="345.076172"/>
      <use xlink:href="#DejaVuSans-61" x="404.255859"/>
      <use xlink:href="#DejaVuSans-6c" x="465.535156"/>
      <use xlink:href="#DejaVuSans-75" x="493.318359"/>
      <use xlink:href="#DejaVuSans-65" x="556.697266"/>
      <use xlink:href="#DejaVuSans-73" x="618.220703"/>
     </g>
    </g>
   </g>
  </g>
 </g>
 <defs>
  <clipPath id="p2aa9c19efd">
   <rect x="57.6" y="41.472" width="357.12" height="266.112"/>
  </clipPath>
 </defs>
</svg>
