<?xml version="1.0" encoding="utf-8" standalone="no"?>
<!DOCTYPE svg PUBLIC "-//W3C//DTD SVG 1.1//EN"
  "http://www.w3.org/Graphics/SVG/1.1/DTD/svg11.dtd">
<svg xmlns:xlink="http://www.w3.org/1999/xlink" width="460.8pt" height="345.6pt" viewBox="0 0 460.8 345.6" xmlns="http://www.w3.org/2000/svg" version="1.1">
 <metadata>
  <rdf:RDF xmlns:dc="http://purl.org/dc/elements/1.1/" xmlns:cc="http://creativecommons.org/ns#" xmlns:rdf="http://www.w3.org/1999/02/22-rdf-syntax-ns#">
   <cc:Work>
    <dc:type rdf:resource="http://purl.org/dc/dcmitype/StillImage"/>
    <dc:date>2024-07-12T19:29:04.190197</dc:date>
    <dc:format>image/svg+xml</dc:format>
    <dc:creator>
     <cc:Agent>
      <dc:title>Matplotlib v3.9.0, https://matplotlib.org/</dc:title>
     </cc:Agent>
    </dc:creator>
   </cc:Work>
  </rdf:RDF>
 </metadata>
 <defs>
  <style type="text/css">*{stroke-linejoin: round; stroke-linecap: butt}</style>
 </defs>
 <g id="figure_1">
  <g id="patch_1">
   <path d="M 0 345.6 
L 460.8 345.6 
L 460.8 0 
L 0 0 
z
" style="fill: #ffffff"/>
  </g>
  <g id="axes_1">
   <g id="patch_2">
    <path d="M 57.6 307.584 
L 414.72 307.584 
L 414.72 41.472 
L 57.6 41.472 
z
" style="fill: #ffffff"/>
   </g>
   <g id="matplotlib.axis_1">
    <g id="xtick_1">
     <g id="line2d_1">
      <defs>
       <path id="m887ca5494d" d="M 0 0 
L 0 3.5 
" style="stroke: #000000; stroke-width: 0.8"/>
      </defs>
      <g>
       <use xlink:href="#m887ca5494d" x="73.832727" y="307.584" style="stroke: #000000; stroke-width: 0.8"/>
      </g>
     </g>
     <g id="text_1">
      <!-- 0 -->
      <g transform="translate(70.651477 322.182437) scale(0.1 -0.1)">
       <defs>
        <path id="DejaVuSans-30" d="M 2034 4250 
Q 1547 4250 1301 3770 
Q 1056 3291 1056 2328 
Q 1056 1369 1301 889 
Q 1547 409 2034 409 
Q 2525 409 2770 889 
Q 3016 1369 3016 2328 
Q 3016 3291 2770 3770 
Q 2525 4250 2034 4250 
z
M 2034 4750 
Q 2819 4750 3233 4129 
Q 3647 3509 3647 2328 
Q 3647 1150 3233 529 
Q 2819 -91 2034 -91 
Q 1250 -91 836 529 
Q 422 1150 422 2328 
Q 422 3509 836 4129 
Q 1250 4750 2034 4750 
z
" transform="scale(0.015625)"/>
       </defs>
       <use xlink:href="#DejaVuSans-30"/>
      </g>
     </g>
    </g>
    <g id="xtick_2">
     <g id="line2d_2">
      <g>
       <use xlink:href="#m887ca5494d" x="116.27123" y="307.584" style="stroke: #000000; stroke-width: 0.8"/>
      </g>
     </g>
     <g id="text_2">
      <!-- 20 -->
      <g transform="translate(109.90873 322.182437) scale(0.1 -0.1)">
       <defs>
        <path id="DejaVuSans-32" d="M 1228 531 
L 3431 531 
L 3431 0 
L 469 0 
L 469 531 
Q 828 903 1448 1529 
Q 2069 2156 2228 2338 
Q 2531 2678 2651 2914 
Q 2772 3150 2772 3378 
Q 2772 3750 2511 3984 
Q 2250 4219 1831 4219 
Q 1534 4219 1204 4116 
Q 875 4013 500 3803 
L 500 4441 
Q 881 4594 1212 4672 
Q 1544 4750 1819 4750 
Q 2544 4750 2975 4387 
Q 3406 4025 3406 3419 
Q 3406 3131 3298 2873 
Q 3191 2616 2906 2266 
Q 2828 2175 2409 1742 
Q 1991 1309 1228 531 
z
" transform="scale(0.015625)"/>
       </defs>
       <use xlink:href="#DejaVuSans-32"/>
       <use xlink:href="#DejaVuSans-30" x="63.623047"/>
      </g>
     </g>
    </g>
    <g id="xtick_3">
     <g id="line2d_3">
      <g>
       <use xlink:href="#m887ca5494d" x="158.709733" y="307.584" style="stroke: #000000; stroke-width: 0.8"/>
      </g>
     </g>
     <g id="text_3">
      <!-- 40 -->
      <g transform="translate(152.347233 322.182437) scale(0.1 -0.1)">
       <defs>
        <path id="DejaVuSans-34" d="M 2419 4116 
L 825 1625 
L 2419 1625 
L 2419 4116 
z
M 2253 4666 
L 3047 4666 
L 3047 1625 
L 3713 1625 
L 3713 1100 
L 3047 1100 
L 3047 0 
L 2419 0 
L 2419 1100 
L 313 1100 
L 313 1709 
L 2253 4666 
z
" transform="scale(0.015625)"/>
       </defs>
       <use xlink:href="#DejaVuSans-34"/>
       <use xlink:href="#DejaVuSans-30" x="63.623047"/>
      </g>
     </g>
    </g>
    <g id="xtick_4">
     <g id="line2d_4">
      <g>
       <use xlink:href="#m887ca5494d" x="201.148235" y="307.584" style="stroke: #000000; stroke-width: 0.8"/>
      </g>
     </g>
     <g id="text_4">
      <!-- 60 -->
      <g transform="translate(194.785735 322.182437) scale(0.1 -0.1)">
       <defs>
        <path id="DejaVuSans-36" d="M 2113 2584 
Q 1688 2584 1439 2293 
Q 1191 2003 1191 1497 
Q 1191 994 1439 701 
Q 1688 409 2113 409 
Q 2538 409 2786 701 
Q 3034 994 3034 1497 
Q 3034 2003 2786 2293 
Q 2538 2584 2113 2584 
z
M 3366 4563 
L 3366 3988 
Q 3128 4100 2886 4159 
Q 2644 4219 2406 4219 
Q 1781 4219 1451 3797 
Q 1122 3375 1075 2522 
Q 1259 2794 1537 2939 
Q 1816 3084 2150 3084 
Q 2853 3084 3261 2657 
Q 3669 2231 3669 1497 
Q 3669 778 3244 343 
Q 2819 -91 2113 -91 
Q 1303 -91 875 529 
Q 447 1150 447 2328 
Q 447 3434 972 4092 
Q 1497 4750 2381 4750 
Q 2619 4750 2861 4703 
Q 3103 4656 3366 4563 
z
" transform="scale(0.015625)"/>
       </defs>
       <use xlink:href="#DejaVuSans-36"/>
       <use xlink:href="#DejaVuSans-30" x="63.623047"/>
      </g>
     </g>
    </g>
    <g id="xtick_5">
     <g id="line2d_5">
      <g>
       <use xlink:href="#m887ca5494d" x="243.586738" y="307.584" style="stroke: #000000; stroke-width: 0.8"/>
      </g>
     </g>
     <g id="text_5">
      <!-- 80 -->
      <g transform="translate(237.224238 322.182437) scale(0.1 -0.1)">
       <defs>
        <path id="DejaVuSans-38" d="M 2034 2216 
Q 1584 2216 1326 1975 
Q 1069 1734 1069 1313 
Q 1069 891 1326 650 
Q 1584 409 2034 409 
Q 2484 409 2743 651 
Q 3003 894 3003 1313 
Q 3003 1734 2745 1975 
Q 2488 2216 2034 2216 
z
M 1403 2484 
Q 997 2584 770 2862 
Q 544 3141 544 3541 
Q 544 4100 942 4425 
Q 1341 4750 2034 4750 
Q 2731 4750 3128 4425 
Q 3525 4100 3525 3541 
Q 3525 3141 3298 2862 
Q 3072 2584 2669 2484 
Q 3125 2378 3379 2068 
Q 3634 1759 3634 1313 
Q 3634 634 3220 271 
Q 2806 -91 2034 -91 
Q 1263 -91 848 271 
Q 434 634 434 1313 
Q 434 1759 690 2068 
Q 947 2378 1403 2484 
z
M 1172 3481 
Q 1172 3119 1398 2916 
Q 1625 2713 2034 2713 
Q 2441 2713 2670 2916 
Q 2900 3119 2900 3481 
Q 2900 3844 2670 4047 
Q 2441 4250 2034 4250 
Q 1625 4250 1398 4047 
Q 1172 3844 1172 3481 
z
" transform="scale(0.015625)"/>
       </defs>
       <use xlink:href="#DejaVuSans-38"/>
       <use xlink:href="#DejaVuSans-30" x="63.623047"/>
      </g>
     </g>
    </g>
    <g id="xtick_6">
     <g id="line2d_6">
      <g>
       <use xlink:href="#m887ca5494d" x="286.025241" y="307.584" style="stroke: #000000; stroke-width: 0.8"/>
      </g>
     </g>
     <g id="text_6">
      <!-- 100 -->
      <g transform="translate(276.481491 322.182437) scale(0.1 -0.1)">
       <defs>
        <path id="DejaVuSans-31" d="M 794 531 
L 1825 531 
L 1825 4091 
L 703 3866 
L 703 4441 
L 1819 4666 
L 2450 4666 
L 2450 531 
L 3481 531 
L 3481 0 
L 794 0 
L 794 531 
z
" transform="scale(0.015625)"/>
       </defs>
       <use xlink:href="#DejaVuSans-31"/>
       <use xlink:href="#DejaVuSans-30" x="63.623047"/>
       <use xlink:href="#DejaVuSans-30" x="127.246094"/>
      </g>
     </g>
    </g>
    <g id="xtick_7">
     <g id="line2d_7">
      <g>
       <use xlink:href="#m887ca5494d" x="328.463743" y="307.584" style="stroke: #000000; stroke-width: 0.8"/>
      </g>
     </g>
     <g id="text_7">
      <!-- 120 -->
      <g transform="translate(318.919993 322.182437) scale(0.1 -0.1)">
       <use xlink:href="#DejaVuSans-31"/>
       <use xlink:href="#DejaVuSans-32" x="63.623047"/>
       <use xlink:href="#DejaVuSans-30" x="127.246094"/>
      </g>
     </g>
    </g>
    <g id="xtick_8">
     <g id="line2d_8">
      <g>
       <use xlink:href="#m887ca5494d" x="370.902246" y="307.584" style="stroke: #000000; stroke-width: 0.8"/>
      </g>
     </g>
     <g id="text_8">
      <!-- 140 -->
      <g transform="translate(361.358496 322.182437) scale(0.1 -0.1)">
       <use xlink:href="#DejaVuSans-31"/>
       <use xlink:href="#DejaVuSans-34" x="63.623047"/>
       <use xlink:href="#DejaVuSans-30" x="127.246094"/>
      </g>
     </g>
    </g>
    <g id="xtick_9">
     <g id="line2d_9">
      <g>
       <use xlink:href="#m887ca5494d" x="413.340749" y="307.584" style="stroke: #000000; stroke-width: 0.8"/>
      </g>
     </g>
     <g id="text_9">
      <!-- 160 -->
      <g transform="translate(403.796999 322.182437) scale(0.1 -0.1)">
       <use xlink:href="#DejaVuSans-31"/>
       <use xlink:href="#DejaVuSans-36" x="63.623047"/>
       <use xlink:href="#DejaVuSans-30" x="127.246094"/>
      </g>
     </g>
    </g>
   </g>
   <g id="matplotlib.axis_2">
    <g id="ytick_1">
     <g id="line2d_10">
      <defs>
       <path id="m28e6b98018" d="M 0 0 
L -3.5 0 
" style="stroke: #000000; stroke-width: 0.8"/>
      </defs>
      <g>
       <use xlink:href="#m28e6b98018" x="57.6" y="272.935542" style="stroke: #000000; stroke-width: 0.8"/>
      </g>
     </g>
     <g id="text_10">
      <!-- −0.02 -->
      <g transform="translate(19.954687 276.73476) scale(0.1 -0.1)">
       <defs>
        <path id="DejaVuSans-2212" d="M 678 2272 
L 4684 2272 
L 4684 1741 
L 678 1741 
L 678 2272 
z
" transform="scale(0.015625)"/>
        <path id="DejaVuSans-2e" d="M 684 794 
L 1344 794 
L 1344 0 
L 684 0 
L 684 794 
z
" transform="scale(0.015625)"/>
       </defs>
       <use xlink:href="#DejaVuSans-2212"/>
       <use xlink:href="#DejaVuSans-30" x="83.789062"/>
       <use xlink:href="#DejaVuSans-2e" x="147.412109"/>
       <use xlink:href="#DejaVuSans-30" x="179.199219"/>
       <use xlink:href="#DejaVuSans-32" x="242.822266"/>
      </g>
     </g>
    </g>
    <g id="ytick_2">
     <g id="line2d_11">
      <g>
       <use xlink:href="#m28e6b98018" x="57.6" y="230.21772" style="stroke: #000000; stroke-width: 0.8"/>
      </g>
     </g>
     <g id="text_11">
      <!-- −0.01 -->
      <g transform="translate(19.954687 234.016939) scale(0.1 -0.1)">
       <use xlink:href="#DejaVuSans-2212"/>
       <use xlink:href="#DejaVuSans-30" x="83.789062"/>
       <use xlink:href="#DejaVuSans-2e" x="147.412109"/>
       <use xlink:href="#DejaVuSans-30" x="179.199219"/>
       <use xlink:href="#DejaVuSans-31" x="242.822266"/>
      </g>
     </g>
    </g>
    <g id="ytick_3">
     <g id="line2d_12">
      <g>
       <use xlink:href="#m28e6b98018" x="57.6" y="187.499899" style="stroke: #000000; stroke-width: 0.8"/>
      </g>
     </g>
     <g id="text_12">
      <!-- 0.00 -->
      <g transform="translate(28.334375 191.299118) scale(0.1 -0.1)">
       <use xlink:href="#DejaVuSans-30"/>
       <use xlink:href="#DejaVuSans-2e" x="63.623047"/>
       <use xlink:href="#DejaVuSans-30" x="95.410156"/>
       <use xlink:href="#DejaVuSans-30" x="159.033203"/>
      </g>
     </g>
    </g>
    <g id="ytick_4">
     <g id="line2d_13">
      <g>
       <use xlink:href="#m28e6b98018" x="57.6" y="144.782077" style="stroke: #000000; stroke-width: 0.8"/>
      </g>
     </g>
     <g id="text_13">
      <!-- 0.01 -->
      <g transform="translate(28.334375 148.581296) scale(0.1 -0.1)">
       <use xlink:href="#DejaVuSans-30"/>
       <use xlink:href="#DejaVuSans-2e" x="63.623047"/>
       <use xlink:href="#DejaVuSans-30" x="95.410156"/>
       <use xlink:href="#DejaVuSans-31" x="159.033203"/>
      </g>
     </g>
    </g>
    <g id="ytick_5">
     <g id="line2d_14">
      <g>
       <use xlink:href="#m28e6b98018" x="57.6" y="102.064256" style="stroke: #000000; stroke-width: 0.8"/>
      </g>
     </g>
     <g id="text_14">
      <!-- 0.02 -->
      <g transform="translate(28.334375 105.863475) scale(0.1 -0.1)">
       <use xlink:href="#DejaVuSans-30"/>
       <use xlink:href="#DejaVuSans-2e" x="63.623047"/>
       <use xlink:href="#DejaVuSans-30" x="95.410156"/>
       <use xlink:href="#DejaVuSans-32" x="159.033203"/>
      </g>
     </g>
    </g>
    <g id="ytick_6">
     <g id="line2d_15">
      <g>
       <use xlink:href="#m28e6b98018" x="57.6" y="59.346435" style="stroke: #000000; stroke-width: 0.8"/>
      </g>
     </g>
     <g id="text_15">
      <!-- 0.03 -->
      <g transform="translate(28.334375 63.145653) scale(0.1 -0.1)">
       <defs>
        <path id="DejaVuSans-33" d="M 2597 2516 
Q 3050 2419 3304 2112 
Q 3559 1806 3559 1356 
Q 3559 666 3084 287 
Q 2609 -91 1734 -91 
Q 1441 -91 1130 -33 
Q 819 25 488 141 
L 488 750 
Q 750 597 1062 519 
Q 1375 441 1716 441 
Q 2309 441 2620 675 
Q 2931 909 2931 1356 
Q 2931 1769 2642 2001 
Q 2353 2234 1838 2234 
L 1294 2234 
L 1294 2753 
L 1863 2753 
Q 2328 2753 2575 2939 
Q 2822 3125 2822 3475 
Q 2822 3834 2567 4026 
Q 2313 4219 1838 4219 
Q 1578 4219 1281 4162 
Q 984 4106 628 3988 
L 628 4550 
Q 988 4650 1302 4700 
Q 1616 4750 1894 4750 
Q 2613 4750 3031 4423 
Q 3450 4097 3450 3541 
Q 3450 3153 3228 2886 
Q 3006 2619 2597 2516 
z
" transform="scale(0.015625)"/>
       </defs>
       <use xlink:href="#DejaVuSans-30"/>
       <use xlink:href="#DejaVuSans-2e" x="63.623047"/>
       <use xlink:href="#DejaVuSans-30" x="95.410156"/>
       <use xlink:href="#DejaVuSans-33" x="159.033203"/>
      </g>
     </g>
    </g>
   </g>
   <g id="line2d_16">
    <path d="M 73.832727 187.091689 
L 75.954652 190.697486 
L 78.076578 198.965315 
L 80.198503 190.51873 
L 82.320428 200.410272 
L 84.442353 185.384369 
L 86.564278 188.701882 
L 88.686203 187.318118 
L 90.808128 191.726014 
L 92.930053 203.01164 
L 95.051979 198.100985 
L 97.173904 196.822292 
L 99.295829 194.716911 
L 101.417754 204.246415 
L 103.539679 196.682002 
L 105.661604 198.252391 
L 107.783529 188.61177 
L 109.905455 197.090487 
L 112.02738 197.335429 
L 114.149305 189.519947 
L 116.27123 188.51796 
L 118.393155 192.389018 
L 120.51508 196.788049 
L 122.637005 198.563 
L 124.75893 187.503814 
L 126.880856 200.46276 
L 129.002781 192.830005 
L 131.124706 186.571965 
L 133.246631 200.481846 
L 135.368556 188.343966 
L 137.490481 197.619706 
L 139.612406 192.824748 
L 141.734332 193.604226 
L 143.856257 191.825394 
L 145.978182 195.678239 
L 148.100107 201.63325 
L 150.222032 194.66315 
L 152.343957 190.916216 
L 154.465882 193.788915 
L 156.587807 191.529146 
L 158.709733 190.895112 
L 160.831658 192.558055 
L 162.953583 195.895326 
L 165.075508 198.6418 
L 167.197433 193.485374 
L 169.319358 190.874857 
L 171.441283 195.429899 
L 173.563209 196.144915 
L 175.685134 203.990654 
L 177.807059 193.004058 
L 179.928984 190.610018 
L 182.050909 189.740278 
L 184.172834 192.705051 
L 186.294759 217.908707 
L 188.416684 170.720898 
L 190.53861 202.275597 
L 192.660535 202.34583 
L 194.78246 204.538536 
L 196.904385 190.146597 
L 199.02631 204.696306 
L 201.148235 198.705715 
L 203.27016 196.279213 
L 205.392086 201.41414 
L 207.514011 207.786119 
L 209.635936 206.74689 
L 211.757861 200.142702 
L 213.879786 200.346167 
L 216.001711 201.03023 
L 218.123636 191.649194 
L 220.245561 193.119205 
L 222.367487 189.226866 
L 224.489412 203.55556 
L 226.611337 197.060144 
L 228.733262 209.95759 
L 230.855187 200.805026 
L 232.977112 194.784498 
L 235.099037 201.597298 
L 237.220963 198.534251 
L 239.342888 192.32783 
L 241.464813 185.602154 
L 243.586738 198.374621 
L 245.708663 195.275382 
L 247.830588 196.647279 
L 249.952513 193.112056 
L 252.074439 204.29748 
L 254.196364 198.530426 
L 256.318289 195.529985 
L 258.440214 195.260825 
L 260.562139 200.839607 
L 262.684064 187.03642 
L 264.805989 184.872016 
L 266.927914 191.335411 
L 269.04984 198.673485 
L 271.171765 185.361762 
L 273.29369 190.799195 
L 275.415615 194.884665 
L 277.53754 189.097209 
L 279.659465 191.200148 
L 281.78139 198.827077 
L 283.903316 199.301744 
L 286.025241 198.522677 
L 288.147166 199.556869 
L 290.269091 192.586242 
L 292.391016 202.794502 
L 294.512941 186.51557 
L 296.634866 183.860168 
L 298.756791 211.562031 
L 300.878717 194.706761 
L 303.000642 180.366717 
L 305.122567 190.052879 
L 307.244492 194.451291 
L 309.366417 212.393263 
L 311.488342 176.622039 
L 313.610267 207.486904 
L 315.732193 186.92249 
L 317.854118 207.894609 
L 319.976043 193.950005 
L 322.097968 191.04432 
L 324.219893 192.921077 
L 326.341818 204.228558 
L 328.463743 202.891722 
L 330.585668 204.111564 
L 332.707594 211.191933 
L 334.829519 214.586379 
L 336.951444 198.782031 
L 339.073369 209.494821 
L 341.195294 210.600959 
L 343.317219 198.067234 
L 345.439144 215.210062 
L 347.56107 198.211776 
L 349.682995 200.513608 
L 351.80492 197.265668 
L 353.926845 200.12063 
L 356.04877 199.881409 
L 358.170695 198.03491 
L 360.29262 194.809753 
L 362.414545 194.24183 
L 364.536471 197.153132 
L 366.658396 196.795479 
L 368.780321 197.081776 
L 370.902246 197.989803 
L 373.024171 202.202301 
L 375.146096 194.529267 
L 377.268021 192.204735 
L 379.389947 189.680052 
L 381.511872 192.905387 
L 383.633797 194.711581 
L 385.755722 193.894647 
L 387.877647 197.073531 
L 389.999572 200.604707 
L 392.121497 204.786009 
L 394.243422 189.862211 
L 396.365348 203.479032 
L 398.487273 191.112373 
L 398.487273 191.112373 
" clip-path="url(#pa20e9ef23b)" style="fill: none; stroke: #008000; stroke-opacity: 0.8; stroke-width: 0.5; stroke-linecap: square"/>
   </g>
   <g id="line2d_17">
    <path d="M 73.832727 138.577585 
L 75.954652 147.269114 
L 78.076578 159.855762 
L 80.198503 153.423091 
L 82.320428 173.269487 
L 84.442353 157.689115 
L 86.564278 139.923598 
L 88.686203 152.783363 
L 90.808128 80.360694 
L 92.930053 161.348791 
L 95.051979 176.115489 
L 97.173904 160.3417 
L 99.295829 168.82592 
L 101.417754 144.881012 
L 103.539679 173.832702 
L 105.661604 155.891557 
L 107.783529 148.599161 
L 109.905455 162.48286 
L 112.02738 167.919197 
L 114.149305 152.294624 
L 116.27123 141.62369 
L 118.393155 168.20276 
L 120.51508 151.729032 
L 122.637005 136.924605 
L 124.75893 171.393461 
L 126.880856 182.745501 
L 129.002781 157.22734 
L 131.124706 141.543546 
L 133.246631 162.539521 
L 135.368556 168.270125 
L 137.490481 169.235382 
L 139.612406 166.552617 
L 141.734332 174.699825 
L 143.856257 176.684742 
L 145.978182 174.07063 
L 148.100107 178.707428 
L 150.222032 155.503384 
L 152.343957 162.707011 
L 154.465882 154.148668 
L 156.587807 169.819645 
L 158.709733 166.62351 
L 160.831658 158.337169 
L 165.075508 186.989339 
L 167.197433 175.639026 
L 169.319358 174.20489 
L 171.441283 176.493715 
L 173.563209 167.77502 
L 175.685134 177.192847 
L 177.807059 174.390124 
L 179.928984 172.302765 
L 182.050909 174.645421 
L 184.172834 175.969193 
L 186.294759 178.545021 
L 188.416684 73.76408 
L 190.53861 143.966025 
L 192.660535 172.077768 
L 194.78246 178.27014 
L 196.904385 165.540365 
L 199.02631 171.214273 
L 201.148235 166.928627 
L 203.27016 158.773699 
L 205.392086 173.097974 
L 207.514011 189.276022 
L 209.635936 163.378716 
L 211.757861 146.694182 
L 213.879786 155.117447 
L 216.001711 180.525679 
L 218.123636 162.956925 
L 220.245561 158.967108 
L 222.367487 167.022423 
L 224.489412 162.130265 
L 226.611337 177.779236 
L 228.733262 189.002442 
L 230.855187 175.688167 
L 232.977112 140.371389 
L 235.099037 163.584338 
L 237.220963 171.766964 
L 239.342888 156.759861 
L 241.464813 154.279881 
L 243.586738 165.446629 
L 245.708663 167.892653 
L 247.830588 172.922676 
L 249.952513 153.599796 
L 252.074439 160.496024 
L 254.196364 157.229461 
L 256.318289 160.458315 
L 258.440214 137.339123 
L 260.562139 183.750563 
L 262.684064 148.360622 
L 264.805989 151.013742 
L 266.927914 160.500115 
L 269.04984 181.752845 
L 271.171765 174.609707 
L 273.29369 163.305378 
L 275.415615 176.041917 
L 277.53754 131.96838 
L 279.659465 148.526328 
L 281.78139 157.546376 
L 283.903316 172.968948 
L 286.025241 171.061757 
L 288.147166 172.067426 
L 290.269091 149.801828 
L 292.391016 157.008877 
L 294.512941 167.854333 
L 296.634866 130.783166 
L 298.756791 159.239331 
L 300.878717 156.70159 
L 303.000642 145.508725 
L 305.122567 165.525633 
L 307.244492 135.556542 
L 309.366417 158.921423 
L 311.488342 123.717397 
L 313.610267 173.641604 
L 315.732193 121.952554 
L 317.854118 159.411517 
L 319.976043 140.878399 
L 322.097968 148.850304 
L 324.219893 133.474887 
L 326.341818 135.562908 
L 328.463743 138.115836 
L 330.585668 157.772986 
L 332.707594 149.97865 
L 334.829519 157.495834 
L 336.951444 161.053315 
L 339.073369 159.280452 
L 341.195294 173.27303 
L 343.317219 137.475598 
L 345.439144 184.311699 
L 347.56107 144.777705 
L 349.682995 165.924685 
L 351.80492 142.392273 
L 353.926845 138.349702 
L 356.04877 138.69471 
L 358.170695 168.282771 
L 360.29262 162.043787 
L 362.414545 170.912636 
L 364.536471 175.58632 
L 366.658396 164.238757 
L 368.780321 165.482057 
L 370.902246 174.209346 
L 373.024171 159.277354 
L 375.146096 161.505803 
L 377.268021 171.265146 
L 379.389947 157.860422 
L 381.511872 152.356751 
L 383.633797 172.49047 
L 385.755722 152.139307 
L 387.877647 160.554128 
L 389.999572 175.795209 
L 392.121497 175.688549 
L 394.243422 157.747906 
L 396.365348 158.776987 
L 398.487273 174.01783 
L 398.487273 174.01783 
" clip-path="url(#pa20e9ef23b)" style="fill: none; stroke: #32cd32; stroke-opacity: 0.8; stroke-width: 0.5; stroke-linecap: square"/>
   </g>
   <g id="line2d_18">
    <path d="M 73.832727 226.023713 
L 75.954652 235.916117 
L 78.076578 232.009809 
L 80.198503 229.412407 
L 82.320428 222.897556 
L 84.442353 225.307625 
L 86.564278 235.861925 
L 88.686203 261.711005 
L 90.808128 225.825154 
L 92.930053 227.256981 
L 95.051979 243.493247 
L 97.173904 238.055187 
L 99.295829 219.655868 
L 101.417754 244.536946 
L 103.539679 226.53098 
L 105.661604 244.124038 
L 107.783529 226.259217 
L 109.905455 219.886959 
L 112.02738 236.840804 
L 114.149305 230.045456 
L 116.27123 231.374155 
L 118.393155 210.38132 
L 120.51508 232.089122 
L 122.637005 236.031934 
L 124.75893 203.571773 
L 126.880856 239.635888 
L 131.124706 208.667712 
L 133.246631 228.653815 
L 135.368556 213.966071 
L 137.490481 221.559462 
L 139.612406 211.524786 
L 141.734332 203.308625 
L 143.856257 209.077421 
L 145.978182 221.87345 
L 148.100107 226.698858 
L 150.222032 222.25334 
L 152.343957 215.89134 
L 154.465882 258.544617 
L 156.587807 219.33715 
L 158.709733 222.430805 
L 160.831658 229.066297 
L 162.953583 214.967458 
L 165.075508 210.925779 
L 167.197433 214.682645 
L 169.319358 207.160996 
L 171.441283 205.837491 
L 173.563209 214.554377 
L 175.685134 236.342662 
L 177.807059 207.136213 
L 179.928984 206.707458 
L 182.050909 208.478984 
L 184.172834 218.233026 
L 186.294759 263.717747 
L 188.416684 224.866839 
L 190.53861 263.64099 
L 192.660535 236.300059 
L 194.78246 236.018643 
L 196.904385 211.773657 
L 199.02631 241.00381 
L 201.148235 244.290023 
L 203.27016 251.621281 
L 205.392086 233.571203 
L 207.514011 227.449426 
L 209.635936 246.031243 
L 211.757861 230.940286 
L 213.879786 250.667398 
L 216.001711 223.333062 
L 218.123636 226.535393 
L 220.245561 221.031715 
L 222.367487 221.745136 
L 224.489412 247.285383 
L 226.611337 213.566386 
L 228.733262 263.543896 
L 230.855187 227.429522 
L 232.977112 225.505718 
L 237.220963 242.759741 
L 239.342888 219.551365 
L 241.464813 215.15821 
L 243.586738 231.251514 
L 245.708663 217.168928 
L 247.830588 233.561324 
L 249.952513 223.590277 
L 252.074439 247.616693 
L 254.196364 232.046064 
L 256.318289 225.412528 
L 258.440214 224.902591 
L 260.562139 227.751873 
L 262.684064 225.811565 
L 264.805989 204.637222 
L 266.927914 216.15767 
L 269.04984 220.518768 
L 271.171765 192.00562 
L 273.29369 220.014398 
L 275.415615 225.041876 
L 277.53754 225.335378 
L 279.659465 218.662178 
L 281.78139 236.632119 
L 283.903316 216.452009 
L 286.025241 226.71882 
L 288.147166 227.317919 
L 290.269091 240.092508 
L 292.391016 254.591044 
L 294.512941 217.885305 
L 296.634866 215.461181 
L 298.756791 295.488 
L 300.878717 238.080709 
L 303.000642 231.674531 
L 305.122567 218.691948 
L 307.244492 247.431897 
L 309.366417 255.192757 
L 311.488342 246.639441 
L 313.610267 243.604406 
L 315.732193 209.77598 
L 317.854118 241.713812 
L 319.976043 231.878197 
L 322.097968 240.310315 
L 324.219893 223.569755 
L 326.341818 250.066526 
L 328.463743 270.610882 
L 330.585668 271.750286 
L 332.707594 245.329923 
L 334.829519 290.566615 
L 336.951444 240.48587 
L 339.073369 246.356136 
L 341.195294 244.239369 
L 343.317219 262.778033 
L 345.439144 246.776456 
L 347.56107 262.770386 
L 349.682995 233.327203 
L 351.80492 243.067697 
L 353.926845 245.487532 
L 356.04877 237.38399 
L 358.170695 232.990725 
L 360.29262 231.859909 
L 362.414545 226.044953 
L 364.536471 226.404965 
L 366.658396 230.026292 
L 368.780321 238.634589 
L 370.902246 227.425877 
L 373.024171 244.298398 
L 375.146096 218.519944 
L 377.268021 202.39496 
L 379.389947 218.535803 
L 381.511872 213.985609 
L 383.633797 224.666497 
L 385.755722 222.942563 
L 387.877647 228.513484 
L 389.999572 242.929401 
L 392.121497 271.926445 
L 394.243422 213.062979 
L 396.365348 244.808398 
L 398.487273 224.627332 
L 398.487273 224.627332 
" clip-path="url(#pa20e9ef23b)" style="fill: none; stroke: #32cd32; stroke-opacity: 0.8; stroke-width: 0.5; stroke-linecap: square"/>
   </g>
   <g id="line2d_19">
    <path d="M 73.832727 184.323561 
L 75.954652 180.940217 
L 78.076578 176.93976 
L 80.198503 176.002629 
L 82.320428 184.138082 
L 84.442353 167.385638 
L 86.564278 177.233969 
L 88.686203 184.05055 
L 90.808128 174.762289 
L 92.930053 182.555544 
L 95.051979 177.152767 
L 97.173904 172.488301 
L 99.295829 169.865007 
L 101.417754 188.00728 
L 103.539679 180.396518 
L 105.661604 189.456068 
L 107.783529 172.663112 
L 109.905455 182.310193 
L 112.02738 178.11357 
L 116.27123 189.384284 
L 118.393155 179.227542 
L 120.51508 183.526569 
L 122.637005 180.903612 
L 124.75893 178.535361 
L 126.880856 182.080464 
L 129.002781 187.707487 
L 131.124706 185.153335 
L 133.246631 205.493225 
L 135.368556 181.725871 
L 137.490481 179.268683 
L 139.612406 180.011525 
L 141.734332 185.592262 
L 143.856257 186.818729 
L 145.978182 186.148861 
L 148.100107 187.140725 
L 150.222032 177.924691 
L 152.343957 176.637605 
L 154.465882 194.201241 
L 156.587807 189.4873 
L 158.709733 182.137973 
L 160.831658 184.355045 
L 162.953583 186.256779 
L 165.075508 194.374477 
L 167.197433 184.695795 
L 169.319358 179.87614 
L 171.441283 185.30629 
L 173.563209 185.927316 
L 175.685134 183.553293 
L 177.807059 176.658197 
L 179.928984 180.208126 
L 182.050909 179.53253 
L 184.172834 182.67018 
L 186.294759 206.872124 
L 188.416684 151.94465 
L 190.53861 185.165581 
L 192.660535 193.296469 
L 194.78246 187.603043 
L 196.904385 173.205428 
L 199.02631 190.114115 
L 201.148235 181.353504 
L 203.27016 176.190426 
L 207.514011 194.400183 
L 209.635936 179.862904 
L 211.757861 180.622136 
L 213.879786 185.989014 
L 216.001711 177.932316 
L 218.123636 174.962644 
L 220.245561 174.418759 
L 222.367487 174.18062 
L 224.489412 182.388677 
L 226.611337 180.411877 
L 228.733262 175.166998 
L 230.855187 175.112552 
L 232.977112 177.55383 
L 235.099037 176.963389 
L 237.220963 174.061676 
L 239.342888 185.296081 
L 241.464813 166.64269 
L 243.586738 177.380362 
L 245.708663 174.81262 
L 247.830588 179.741127 
L 249.952513 174.199851 
L 252.074439 187.038825 
L 254.196364 174.920227 
L 256.318289 176.64792 
L 258.440214 169.120998 
L 260.562139 172.738192 
L 262.684064 172.740449 
L 264.805989 179.201443 
L 266.927914 178.724053 
L 269.04984 181.612817 
L 271.171765 169.339311 
L 273.29369 177.679115 
L 275.415615 180.014095 
L 277.53754 176.384852 
L 279.659465 171.35098 
L 281.78139 170.238469 
L 283.903316 175.219043 
L 286.025241 179.355157 
L 288.147166 188.516128 
L 290.269091 178.254666 
L 292.391016 192.517782 
L 294.512941 171.017659 
L 296.634866 163.563146 
L 298.756791 183.788202 
L 300.878717 178.33765 
L 303.000642 175.889909 
L 305.122567 165.44595 
L 307.244492 177.046279 
L 309.366417 192.440672 
L 311.488342 176.701781 
L 313.610267 190.903741 
L 315.732193 165.514452 
L 317.854118 182.737781 
L 319.976043 175.128815 
L 322.097968 175.536916 
L 324.219893 180.926395 
L 326.341818 188.590664 
L 328.463743 169.027344 
L 330.585668 173.551685 
L 332.707594 180.890301 
L 334.829519 190.512262 
L 336.951444 171.094066 
L 339.073369 173.91186 
L 341.195294 175.570065 
L 343.317219 171.933678 
L 345.439144 172.849225 
L 347.56107 169.674875 
L 349.682995 172.268696 
L 351.80492 170.958152 
L 353.926845 178.666301 
L 356.04877 179.768419 
L 358.170695 185.617206 
L 360.29262 187.240021 
L 362.414545 175.678183 
L 364.536471 175.35171 
L 366.658396 180.256172 
L 368.780321 177.29973 
L 370.902246 180.189528 
L 373.024171 182.479475 
L 375.146096 176.720201 
L 377.268021 173.911138 
L 379.389947 167.534371 
L 381.511872 168.169542 
L 383.633797 167.974858 
L 385.755722 169.659254 
L 387.877647 177.433341 
L 389.999572 182.053035 
L 392.121497 182.484221 
L 394.243422 169.225 
L 396.365348 188.111988 
L 398.487273 185.298675 
L 398.487273 185.298675 
" clip-path="url(#pa20e9ef23b)" style="fill: none; stroke: #ff0000; stroke-opacity: 0.8; stroke-width: 0.5; stroke-linecap: square"/>
   </g>
   <g id="line2d_20">
    <path d="M 73.832727 136.704833 
L 75.954652 124.699374 
L 78.076578 134.60328 
L 80.198503 131.903346 
L 82.320428 159.465651 
L 84.442353 145.962527 
L 86.564278 128.743727 
L 88.686203 147.90068 
L 90.808128 78.03242 
L 92.930053 138.104441 
L 95.051979 143.317759 
L 97.173904 136.113052 
L 99.295829 131.116831 
L 101.417754 123.825015 
L 103.539679 147.583539 
L 105.661604 147.037016 
L 107.783529 129.236582 
L 109.905455 142.661977 
L 112.02738 148.525076 
L 114.149305 148.853766 
L 116.27123 145.311045 
L 118.393155 154.942324 
L 120.51508 133.127231 
L 122.637005 113.82523 
L 126.880856 159.522042 
L 129.002781 150.255388 
L 131.124706 137.405251 
L 133.246631 165.810005 
L 135.368556 146.290221 
L 137.490481 150.182885 
L 139.612406 153.783157 
L 141.734332 167.3225 
L 143.856257 170.619655 
L 145.978182 157.659026 
L 148.100107 167.837147 
L 150.222032 152.015025 
L 152.343957 157.384524 
L 154.465882 145.734135 
L 156.587807 170.978606 
L 158.709733 157.877295 
L 160.831658 143.664199 
L 162.953583 156.398303 
L 165.075508 184.061973 
L 167.197433 171.318485 
L 169.319358 162.168385 
L 171.441283 174.773975 
L 173.563209 148.258291 
L 175.685134 158.495019 
L 177.807059 158.07094 
L 179.928984 165.232022 
L 182.050909 163.7504 
L 184.172834 164.728331 
L 186.294759 165.000042 
L 188.416684 53.568 
L 190.53861 111.314815 
L 192.660535 148.412384 
L 194.78246 165.950102 
L 196.904385 146.351648 
L 199.02631 162.888687 
L 201.148235 143.796695 
L 203.27016 139.898326 
L 205.392086 158.513161 
L 207.514011 165.071409 
L 209.635936 125.186814 
L 211.757861 134.355305 
L 213.879786 137.016122 
L 216.001711 160.588553 
L 218.123636 156.915687 
L 220.245561 140.63268 
L 222.367487 149.232333 
L 224.489412 140.347028 
L 226.611337 167.310406 
L 228.733262 149.826272 
L 230.855187 141.679512 
L 232.977112 115.691666 
L 235.099037 144.122594 
L 237.220963 145.972373 
L 239.342888 164.985755 
L 241.464813 135.823433 
L 243.586738 143.678151 
L 245.708663 138.469118 
L 247.830588 161.015292 
L 249.952513 143.322775 
L 252.074439 152.956478 
L 254.196364 149.61095 
L 256.318289 153.567867 
L 258.440214 122.330577 
L 260.562139 158.584912 
L 262.684064 130.830345 
L 264.805989 145.365109 
L 266.927914 152.261778 
L 269.04984 171.865332 
L 271.171765 147.862216 
L 273.29369 145.326605 
L 275.415615 165.419874 
L 277.53754 110.404316 
L 279.659465 132.10494 
L 281.78139 130.730912 
L 283.903316 145.487592 
L 286.025241 137.791376 
L 288.147166 148.223196 
L 290.269091 145.538334 
L 292.391016 163.755135 
L 294.512941 148.824043 
L 296.634866 110.681777 
L 298.756791 132.518851 
L 300.878717 132.828276 
L 303.000642 140.795105 
L 305.122567 131.18159 
L 307.244492 137.953092 
L 309.366417 153.112882 
L 311.488342 145.54088 
L 313.610267 143.846651 
L 315.732193 117.533403 
L 317.854118 129.774773 
L 322.097968 141.221845 
L 324.219893 144.080594 
L 326.341818 108.727883 
L 328.463743 110.75216 
L 330.585668 121.553528 
L 332.707594 103.863087 
L 334.829519 139.690557 
L 336.951444 131.615762 
L 339.073369 146.784392 
L 341.195294 144.001714 
L 343.317219 125.575158 
L 345.439144 132.42685 
L 347.56107 107.832908 
L 349.682995 149.971452 
L 351.80492 131.473657 
L 353.926845 116.533454 
L 356.04877 117.946175 
L 358.170695 143.925889 
L 360.29262 141.392643 
L 362.414545 156.479577 
L 364.536471 160.061366 
L 366.658396 149.321042 
L 368.780321 151.572735 
L 370.902246 149.701636 
L 373.024171 145.623949 
L 375.146096 142.456691 
L 377.268021 157.724439 
L 379.389947 122.882292 
L 383.633797 149.528453 
L 385.755722 125.580154 
L 387.877647 137.2032 
L 389.999572 142.051927 
L 392.121497 155.736296 
L 394.243422 141.035753 
L 396.365348 124.415729 
L 398.487273 159.670291 
L 398.487273 159.670291 
" clip-path="url(#pa20e9ef23b)" style="fill: none; stroke: #f08080; stroke-opacity: 0.8; stroke-width: 0.5; stroke-linecap: square"/>
   </g>
   <g id="line2d_21">
    <path d="M 73.832727 228.462124 
L 75.954652 217.065752 
L 78.076578 219.386546 
L 80.198503 209.677423 
L 82.320428 206.867894 
L 84.442353 199.557541 
L 86.564278 208.047067 
L 88.686203 242.184946 
L 90.808128 208.933356 
L 92.930053 205.330477 
L 95.051979 226.750418 
L 97.173904 216.089878 
L 99.295829 199.241065 
L 101.417754 218.781934 
L 103.539679 223.156815 
L 105.661604 225.64075 
L 107.783529 205.833814 
L 109.905455 219.563314 
L 112.02738 223.54117 
L 114.149305 220.805541 
L 116.27123 234.425498 
L 118.393155 207.398606 
L 120.51508 214.765292 
L 122.637005 229.282315 
L 124.75893 214.40106 
L 126.880856 229.459682 
L 129.002781 219.642228 
L 131.124706 205.38809 
L 133.246631 230.758488 
L 135.368556 216.581064 
L 137.490481 196.217003 
L 139.612406 201.830618 
L 141.734332 197.409973 
L 143.856257 211.518784 
L 145.978182 220.670012 
L 148.100107 215.107626 
L 150.222032 196.712489 
L 152.343957 194.381512 
L 154.465882 256.87479 
L 156.587807 211.263329 
L 158.709733 222.125663 
L 160.831658 214.983066 
L 162.953583 208.636126 
L 165.075508 205.18499 
L 167.197433 198.567721 
L 169.319358 196.542999 
L 171.441283 195.016394 
L 173.563209 214.966858 
L 175.685134 218.49795 
L 177.807059 192.996678 
L 179.928984 195.083698 
L 182.050909 208.325764 
L 184.172834 205.037898 
L 186.294759 249.857592 
L 188.416684 216.877051 
L 190.53861 262.267109 
L 192.660535 235.369558 
L 194.78246 224.977555 
L 196.904385 197.497795 
L 199.02631 217.413301 
L 201.148235 215.254795 
L 203.27016 221.176265 
L 205.392086 209.303607 
L 207.514011 214.612054 
L 209.635936 224.47897 
L 211.757861 208.435105 
L 213.879786 246.916168 
L 216.001711 195.192929 
L 220.245561 208.132924 
L 222.367487 202.130854 
L 224.489412 229.706916 
L 226.611337 205.503178 
L 228.733262 238.685563 
L 230.855187 203.316263 
L 232.977112 213.626767 
L 235.099037 207.178717 
L 237.220963 221.769267 
L 239.342888 227.588324 
L 241.464813 198.209813 
L 243.586738 215.816369 
L 245.708663 206.484165 
L 247.830588 203.642633 
L 249.952513 200.228901 
L 252.074439 222.149037 
L 254.196364 205.453629 
L 256.318289 194.627422 
L 258.440214 190.712351 
L 260.562139 202.079838 
L 262.684064 203.607971 
L 264.805989 202.936119 
L 266.927914 203.265645 
L 269.04984 193.981826 
L 271.171765 182.794769 
L 273.29369 219.261974 
L 275.415615 204.37271 
L 277.53754 218.633067 
L 279.659465 207.918909 
L 281.78139 217.83604 
L 283.903316 203.254493 
L 286.025241 206.97818 
L 288.147166 207.895654 
L 290.269091 206.871071 
L 292.391016 240.496829 
L 294.512941 202.253318 
L 296.634866 201.871306 
L 298.756791 249.072741 
L 300.878717 220.057367 
L 303.000642 208.093209 
L 305.122567 199.151476 
L 307.244492 231.46669 
L 309.366417 229.357636 
L 311.488342 225.750369 
L 313.610267 215.113838 
L 315.732193 202.227007 
L 317.854118 216.776683 
L 319.976043 214.370455 
L 322.097968 227.19409 
L 324.219893 223.323081 
L 326.341818 221.27091 
L 328.463743 257.875439 
L 330.585668 236.368081 
L 332.707594 227.004094 
L 334.829519 264.719336 
L 336.951444 213.917977 
L 339.073369 226.67859 
L 341.195294 211.664171 
L 343.317219 252.346026 
L 345.439144 213.878499 
L 347.56107 234.077817 
L 349.682995 207.531911 
L 351.80492 212.128594 
L 353.926845 222.187281 
L 356.04877 213.851631 
L 358.170695 229.337635 
L 360.29262 213.943817 
L 362.414545 210.607251 
L 364.536471 191.474741 
L 366.658396 209.416063 
L 368.780321 216.413816 
L 370.902246 219.80818 
L 373.024171 237.384838 
L 375.146096 213.342511 
L 377.268021 194.312905 
L 379.389947 193.44052 
L 381.511872 187.936238 
L 383.633797 206.637138 
L 385.755722 188.895206 
L 387.877647 200.080338 
L 389.999572 232.714549 
L 392.121497 258.73974 
L 394.243422 196.48868 
L 396.365348 225.685987 
L 398.487273 213.278158 
L 398.487273 213.278158 
" clip-path="url(#pa20e9ef23b)" style="fill: none; stroke: #f08080; stroke-opacity: 0.8; stroke-width: 0.5; stroke-linecap: square"/>
   </g>
   <g id="patch_3">
    <path d="M 57.6 307.584 
L 57.6 41.472 
" style="fill: none; stroke: #000000; stroke-width: 0.8; stroke-linejoin: miter; stroke-linecap: square"/>
   </g>
   <g id="patch_4">
    <path d="M 414.72 307.584 
L 414.72 41.472 
" style="fill: none; stroke: #000000; stroke-width: 0.8; stroke-linejoin: miter; stroke-linecap: square"/>
   </g>
   <g id="patch_5">
    <path d="M 57.6 307.584 
L 414.72 307.584 
" style="fill: none; stroke: #000000; stroke-width: 0.8; stroke-linejoin: miter; stroke-linecap: square"/>
   </g>
   <g id="patch_6">
    <path d="M 57.6 41.472 
L 414.72 41.472 
" style="fill: none; stroke: #000000; stroke-width: 0.8; stroke-linejoin: miter; stroke-linecap: square"/>
   </g>
   <g id="text_16">
    <!-- naive_20_eurusd -->
    <g transform="translate(185.4375 35.472) scale(0.12 -0.12)">
     <defs>
      <path id="DejaVuSans-6e" d="M 3513 2113 
L 3513 0 
L 2938 0 
L 2938 2094 
Q 2938 2591 2744 2837 
Q 2550 3084 2163 3084 
Q 1697 3084 1428 2787 
Q 1159 2491 1159 1978 
L 1159 0 
L 581 0 
L 581 3500 
L 1159 3500 
L 1159 2956 
Q 1366 3272 1645 3428 
Q 1925 3584 2291 3584 
Q 2894 3584 3203 3211 
Q 3513 2838 3513 2113 
z
" transform="scale(0.015625)"/>
      <path id="DejaVuSans-61" d="M 2194 1759 
Q 1497 1759 1228 1600 
Q 959 1441 959 1056 
Q 959 750 1161 570 
Q 1363 391 1709 391 
Q 2188 391 2477 730 
Q 2766 1069 2766 1631 
L 2766 1759 
L 2194 1759 
z
M 3341 1997 
L 3341 0 
L 2766 0 
L 2766 531 
Q 2569 213 2275 61 
Q 1981 -91 1556 -91 
Q 1019 -91 701 211 
Q 384 513 384 1019 
Q 384 1609 779 1909 
Q 1175 2209 1959 2209 
L 2766 2209 
L 2766 2266 
Q 2766 2663 2505 2880 
Q 2244 3097 1772 3097 
Q 1472 3097 1187 3025 
Q 903 2953 641 2809 
L 641 3341 
Q 956 3463 1253 3523 
Q 1550 3584 1831 3584 
Q 2591 3584 2966 3190 
Q 3341 2797 3341 1997 
z
" transform="scale(0.015625)"/>
      <path id="DejaVuSans-69" d="M 603 3500 
L 1178 3500 
L 1178 0 
L 603 0 
L 603 3500 
z
M 603 4863 
L 1178 4863 
L 1178 4134 
L 603 4134 
L 603 4863 
z
" transform="scale(0.015625)"/>
      <path id="DejaVuSans-76" d="M 191 3500 
L 800 3500 
L 1894 563 
L 2988 3500 
L 3597 3500 
L 2284 0 
L 1503 0 
L 191 3500 
z
" transform="scale(0.015625)"/>
      <path id="DejaVuSans-65" d="M 3597 1894 
L 3597 1613 
L 953 1613 
Q 991 1019 1311 708 
Q 1631 397 2203 397 
Q 2534 397 2845 478 
Q 3156 559 3463 722 
L 3463 178 
Q 3153 47 2828 -22 
Q 2503 -91 2169 -91 
Q 1331 -91 842 396 
Q 353 884 353 1716 
Q 353 2575 817 3079 
Q 1281 3584 2069 3584 
Q 2775 3584 3186 3129 
Q 3597 2675 3597 1894 
z
M 3022 2063 
Q 3016 2534 2758 2815 
Q 2500 3097 2075 3097 
Q 1594 3097 1305 2825 
Q 1016 2553 972 2059 
L 3022 2063 
z
" transform="scale(0.015625)"/>
      <path id="DejaVuSans-5f" d="M 3263 -1063 
L 3263 -1509 
L -63 -1509 
L -63 -1063 
L 3263 -1063 
z
" transform="scale(0.015625)"/>
      <path id="DejaVuSans-75" d="M 544 1381 
L 544 3500 
L 1119 3500 
L 1119 1403 
Q 1119 906 1312 657 
Q 1506 409 1894 409 
Q 2359 409 2629 706 
Q 2900 1003 2900 1516 
L 2900 3500 
L 3475 3500 
L 3475 0 
L 2900 0 
L 2900 538 
Q 2691 219 2414 64 
Q 2138 -91 1772 -91 
Q 1169 -91 856 284 
Q 544 659 544 1381 
z
M 1991 3584 
L 1991 3584 
z
" transform="scale(0.015625)"/>
      <path id="DejaVuSans-72" d="M 2631 2963 
Q 2534 3019 2420 3045 
Q 2306 3072 2169 3072 
Q 1681 3072 1420 2755 
Q 1159 2438 1159 1844 
L 1159 0 
L 581 0 
L 581 3500 
L 1159 3500 
L 1159 2956 
Q 1341 3275 1631 3429 
Q 1922 3584 2338 3584 
Q 2397 3584 2469 3576 
Q 2541 3569 2628 3553 
L 2631 2963 
z
" transform="scale(0.015625)"/>
      <path id="DejaVuSans-73" d="M 2834 3397 
L 2834 2853 
Q 2591 2978 2328 3040 
Q 2066 3103 1784 3103 
Q 1356 3103 1142 2972 
Q 928 2841 928 2578 
Q 928 2378 1081 2264 
Q 1234 2150 1697 2047 
L 1894 2003 
Q 2506 1872 2764 1633 
Q 3022 1394 3022 966 
Q 3022 478 2636 193 
Q 2250 -91 1575 -91 
Q 1294 -91 989 -36 
Q 684 19 347 128 
L 347 722 
Q 666 556 975 473 
Q 1284 391 1588 391 
Q 1994 391 2212 530 
Q 2431 669 2431 922 
Q 2431 1156 2273 1281 
Q 2116 1406 1581 1522 
L 1381 1569 
Q 847 1681 609 1914 
Q 372 2147 372 2553 
Q 372 3047 722 3315 
Q 1072 3584 1716 3584 
Q 2034 3584 2315 3537 
Q 2597 3491 2834 3397 
z
" transform="scale(0.015625)"/>
      <path id="DejaVuSans-64" d="M 2906 2969 
L 2906 4863 
L 3481 4863 
L 3481 0 
L 2906 0 
L 2906 525 
Q 2725 213 2448 61 
Q 2172 -91 1784 -91 
Q 1150 -91 751 415 
Q 353 922 353 1747 
Q 353 2572 751 3078 
Q 1150 3584 1784 3584 
Q 2172 3584 2448 3432 
Q 2725 3281 2906 2969 
z
M 947 1747 
Q 947 1113 1208 752 
Q 1469 391 1925 391 
Q 2381 391 2643 752 
Q 2906 1113 2906 1747 
Q 2906 2381 2643 2742 
Q 2381 3103 1925 3103 
Q 1469 3103 1208 2742 
Q 947 2381 947 1747 
z
" transform="scale(0.015625)"/>
     </defs>
     <use xlink:href="#DejaVuSans-6e"/>
     <use xlink:href="#DejaVuSans-61" x="63.378906"/>
     <use xlink:href="#DejaVuSans-69" x="124.658203"/>
     <use xlink:href="#DejaVuSans-76" x="152.441406"/>
     <use xlink:href="#DejaVuSans-65" x="211.621094"/>
     <use xlink:href="#DejaVuSans-5f" x="273.144531"/>
     <use xlink:href="#DejaVuSans-32" x="323.144531"/>
     <use xlink:href="#DejaVuSans-30" x="386.767578"/>
     <use xlink:href="#DejaVuSans-5f" x="450.390625"/>
     <use xlink:href="#DejaVuSans-65" x="500.390625"/>
     <use xlink:href="#DejaVuSans-75" x="561.914062"/>
     <use xlink:href="#DejaVuSans-72" x="625.292969"/>
     <use xlink:href="#DejaVuSans-75" x="666.40625"/>
     <use xlink:href="#DejaVuSans-73" x="729.785156"/>
     <use xlink:href="#DejaVuSans-64" x="781.884766"/>
    </g>
   </g>
   <g id="legend_1">
    <g id="patch_7">
     <path d="M 64.6 137.54075 
L 225.001563 137.54075 
Q 227.001563 137.54075 227.001563 135.54075 
L 227.001563 48.472 
Q 227.001563 46.472 225.001563 46.472 
L 64.6 46.472 
Q 62.6 46.472 62.6 48.472 
L 62.6 135.54075 
Q 62.6 137.54075 64.6 137.54075 
z
" style="fill: #ffffff; opacity: 0.8; stroke: #cccccc; stroke-linejoin: miter"/>
    </g>
    <g id="line2d_22">
     <path d="M 66.6 54.570438 
L 76.6 54.570438 
L 86.6 54.570438 
" style="fill: none; stroke: #008000; stroke-opacity: 0.8; stroke-width: 0.5; stroke-linecap: square"/>
    </g>
    <g id="text_17">
     <!-- Positive predictions -->
     <g transform="translate(94.6 58.070438) scale(0.1 -0.1)">
      <defs>
       <path id="DejaVuSans-50" d="M 1259 4147 
L 1259 2394 
L 2053 2394 
Q 2494 2394 2734 2622 
Q 2975 2850 2975 3272 
Q 2975 3691 2734 3919 
Q 2494 4147 2053 4147 
L 1259 4147 
z
M 628 4666 
L 2053 4666 
Q 2838 4666 3239 4311 
Q 3641 3956 3641 3272 
Q 3641 2581 3239 2228 
Q 2838 1875 2053 1875 
L 1259 1875 
L 1259 0 
L 628 0 
L 628 4666 
z
" transform="scale(0.015625)"/>
       <path id="DejaVuSans-6f" d="M 1959 3097 
Q 1497 3097 1228 2736 
Q 959 2375 959 1747 
Q 959 1119 1226 758 
Q 1494 397 1959 397 
Q 2419 397 2687 759 
Q 2956 1122 2956 1747 
Q 2956 2369 2687 2733 
Q 2419 3097 1959 3097 
z
M 1959 3584 
Q 2709 3584 3137 3096 
Q 3566 2609 3566 1747 
Q 3566 888 3137 398 
Q 2709 -91 1959 -91 
Q 1206 -91 779 398 
Q 353 888 353 1747 
Q 353 2609 779 3096 
Q 1206 3584 1959 3584 
z
" transform="scale(0.015625)"/>
       <path id="DejaVuSans-74" d="M 1172 4494 
L 1172 3500 
L 2356 3500 
L 2356 3053 
L 1172 3053 
L 1172 1153 
Q 1172 725 1289 603 
Q 1406 481 1766 481 
L 2356 481 
L 2356 0 
L 1766 0 
Q 1100 0 847 248 
Q 594 497 594 1153 
L 594 3053 
L 172 3053 
L 172 3500 
L 594 3500 
L 594 4494 
L 1172 4494 
z
" transform="scale(0.015625)"/>
       <path id="DejaVuSans-20" transform="scale(0.015625)"/>
       <path id="DejaVuSans-70" d="M 1159 525 
L 1159 -1331 
L 581 -1331 
L 581 3500 
L 1159 3500 
L 1159 2969 
Q 1341 3281 1617 3432 
Q 1894 3584 2278 3584 
Q 2916 3584 3314 3078 
Q 3713 2572 3713 1747 
Q 3713 922 3314 415 
Q 2916 -91 2278 -91 
Q 1894 -91 1617 61 
Q 1341 213 1159 525 
z
M 3116 1747 
Q 3116 2381 2855 2742 
Q 2594 3103 2138 3103 
Q 1681 3103 1420 2742 
Q 1159 2381 1159 1747 
Q 1159 1113 1420 752 
Q 1681 391 2138 391 
Q 2594 391 2855 752 
Q 3116 1113 3116 1747 
z
" transform="scale(0.015625)"/>
       <path id="DejaVuSans-63" d="M 3122 3366 
L 3122 2828 
Q 2878 2963 2633 3030 
Q 2388 3097 2138 3097 
Q 1578 3097 1268 2742 
Q 959 2388 959 1747 
Q 959 1106 1268 751 
Q 1578 397 2138 397 
Q 2388 397 2633 464 
Q 2878 531 3122 666 
L 3122 134 
Q 2881 22 2623 -34 
Q 2366 -91 2075 -91 
Q 1284 -91 818 406 
Q 353 903 353 1747 
Q 353 2603 823 3093 
Q 1294 3584 2113 3584 
Q 2378 3584 2631 3529 
Q 2884 3475 3122 3366 
z
" transform="scale(0.015625)"/>
      </defs>
      <use xlink:href="#DejaVuSans-50"/>
      <use xlink:href="#DejaVuSans-6f" x="56.677734"/>
      <use xlink:href="#DejaVuSans-73" x="117.859375"/>
      <use xlink:href="#DejaVuSans-69" x="169.958984"/>
      <use xlink:href="#DejaVuSans-74" x="197.742188"/>
      <use xlink:href="#DejaVuSans-69" x="236.951172"/>
      <use xlink:href="#DejaVuSans-76" x="264.734375"/>
      <use xlink:href="#DejaVuSans-65" x="323.914062"/>
      <use xlink:href="#DejaVuSans-20" x="385.4375"/>
      <use xlink:href="#DejaVuSans-70" x="417.224609"/>
      <use xlink:href="#DejaVuSans-72" x="480.701172"/>
      <use xlink:href="#DejaVuSans-65" x="519.564453"/>
      <use xlink:href="#DejaVuSans-64" x="581.087891"/>
      <use xlink:href="#DejaVuSans-69" x="644.564453"/>
      <use xlink:href="#DejaVuSans-63" x="672.347656"/>
      <use xlink:href="#DejaVuSans-74" x="727.328125"/>
      <use xlink:href="#DejaVuSans-69" x="766.537109"/>
      <use xlink:href="#DejaVuSans-6f" x="794.320312"/>
      <use xlink:href="#DejaVuSans-6e" x="855.501953"/>
      <use xlink:href="#DejaVuSans-73" x="918.880859"/>
     </g>
    </g>
    <g id="line2d_23">
     <path d="M 66.6 69.248563 
L 76.6 69.248563 
L 86.6 69.248563 
" style="fill: none; stroke: #32cd32; stroke-opacity: 0.8; stroke-width: 0.5; stroke-linecap: square"/>
    </g>
    <g id="text_18">
     <!-- Positive predictions max -->
     <g transform="translate(94.6 72.748563) scale(0.1 -0.1)">
      <defs>
       <path id="DejaVuSans-6d" d="M 3328 2828 
Q 3544 3216 3844 3400 
Q 4144 3584 4550 3584 
Q 5097 3584 5394 3201 
Q 5691 2819 5691 2113 
L 5691 0 
L 5113 0 
L 5113 2094 
Q 5113 2597 4934 2840 
Q 4756 3084 4391 3084 
Q 3944 3084 3684 2787 
Q 3425 2491 3425 1978 
L 3425 0 
L 2847 0 
L 2847 2094 
Q 2847 2600 2669 2842 
Q 2491 3084 2119 3084 
Q 1678 3084 1418 2786 
Q 1159 2488 1159 1978 
L 1159 0 
L 581 0 
L 581 3500 
L 1159 3500 
L 1159 2956 
Q 1356 3278 1631 3431 
Q 1906 3584 2284 3584 
Q 2666 3584 2933 3390 
Q 3200 3197 3328 2828 
z
" transform="scale(0.015625)"/>
       <path id="DejaVuSans-78" d="M 3513 3500 
L 2247 1797 
L 3578 0 
L 2900 0 
L 1881 1375 
L 863 0 
L 184 0 
L 1544 1831 
L 300 3500 
L 978 3500 
L 1906 2253 
L 2834 3500 
L 3513 3500 
z
" transform="scale(0.015625)"/>
      </defs>
      <use xlink:href="#DejaVuSans-50"/>
      <use xlink:href="#DejaVuSans-6f" x="56.677734"/>
      <use xlink:href="#DejaVuSans-73" x="117.859375"/>
      <use xlink:href="#DejaVuSans-69" x="169.958984"/>
      <use xlink:href="#DejaVuSans-74" x="197.742188"/>
      <use xlink:href="#DejaVuSans-69" x="236.951172"/>
      <use xlink:href="#DejaVuSans-76" x="264.734375"/>
      <use xlink:href="#DejaVuSans-65" x="323.914062"/>
      <use xlink:href="#DejaVuSans-20" x="385.4375"/>
      <use xlink:href="#DejaVuSans-70" x="417.224609"/>
      <use xlink:href="#DejaVuSans-72" x="480.701172"/>
      <use xlink:href="#DejaVuSans-65" x="519.564453"/>
      <use xlink:href="#DejaVuSans-64" x="581.087891"/>
      <use xlink:href="#DejaVuSans-69" x="644.564453"/>
      <use xlink:href="#DejaVuSans-63" x="672.347656"/>
      <use xlink:href="#DejaVuSans-74" x="727.328125"/>
      <use xlink:href="#DejaVuSans-69" x="766.537109"/>
      <use xlink:href="#DejaVuSans-6f" x="794.320312"/>
      <use xlink:href="#DejaVuSans-6e" x="855.501953"/>
      <use xlink:href="#DejaVuSans-73" x="918.880859"/>
      <use xlink:href="#DejaVuSans-20" x="970.980469"/>
      <use xlink:href="#DejaVuSans-6d" x="1002.767578"/>
      <use xlink:href="#DejaVuSans-61" x="1100.179688"/>
      <use xlink:href="#DejaVuSans-78" x="1161.458984"/>
     </g>
    </g>
    <g id="line2d_24">
     <path d="M 66.6 83.926688 
L 76.6 83.926688 
L 86.6 83.926688 
" style="fill: none; stroke: #32cd32; stroke-opacity: 0.8; stroke-width: 0.5; stroke-linecap: square"/>
    </g>
    <g id="text_19">
     <!-- Positive predictions min -->
     <g transform="translate(94.6 87.426688) scale(0.1 -0.1)">
      <use xlink:href="#DejaVuSans-50"/>
      <use xlink:href="#DejaVuSans-6f" x="56.677734"/>
      <use xlink:href="#DejaVuSans-73" x="117.859375"/>
      <use xlink:href="#DejaVuSans-69" x="169.958984"/>
      <use xlink:href="#DejaVuSans-74" x="197.742188"/>
      <use xlink:href="#DejaVuSans-69" x="236.951172"/>
      <use xlink:href="#DejaVuSans-76" x="264.734375"/>
      <use xlink:href="#DejaVuSans-65" x="323.914062"/>
      <use xlink:href="#DejaVuSans-20" x="385.4375"/>
      <use xlink:href="#DejaVuSans-70" x="417.224609"/>
      <use xlink:href="#DejaVuSans-72" x="480.701172"/>
      <use xlink:href="#DejaVuSans-65" x="519.564453"/>
      <use xlink:href="#DejaVuSans-64" x="581.087891"/>
      <use xlink:href="#DejaVuSans-69" x="644.564453"/>
      <use xlink:href="#DejaVuSans-63" x="672.347656"/>
      <use xlink:href="#DejaVuSans-74" x="727.328125"/>
      <use xlink:href="#DejaVuSans-69" x="766.537109"/>
      <use xlink:href="#DejaVuSans-6f" x="794.320312"/>
      <use xlink:href="#DejaVuSans-6e" x="855.501953"/>
      <use xlink:href="#DejaVuSans-73" x="918.880859"/>
      <use xlink:href="#DejaVuSans-20" x="970.980469"/>
      <use xlink:href="#DejaVuSans-6d" x="1002.767578"/>
      <use xlink:href="#DejaVuSans-69" x="1100.179688"/>
      <use xlink:href="#DejaVuSans-6e" x="1127.962891"/>
     </g>
    </g>
    <g id="line2d_25">
     <path d="M 66.6 98.604813 
L 76.6 98.604813 
L 86.6 98.604813 
" style="fill: none; stroke: #ff0000; stroke-opacity: 0.8; stroke-width: 0.5; stroke-linecap: square"/>
    </g>
    <g id="text_20">
     <!-- Negative predictions -->
     <g transform="translate(94.6 102.104813) scale(0.1 -0.1)">
      <defs>
       <path id="DejaVuSans-4e" d="M 628 4666 
L 1478 4666 
L 3547 763 
L 3547 4666 
L 4159 4666 
L 4159 0 
L 3309 0 
L 1241 3903 
L 1241 0 
L 628 0 
L 628 4666 
z
" transform="scale(0.015625)"/>
       <path id="DejaVuSans-67" d="M 2906 1791 
Q 2906 2416 2648 2759 
Q 2391 3103 1925 3103 
Q 1463 3103 1205 2759 
Q 947 2416 947 1791 
Q 947 1169 1205 825 
Q 1463 481 1925 481 
Q 2391 481 2648 825 
Q 2906 1169 2906 1791 
z
M 3481 434 
Q 3481 -459 3084 -895 
Q 2688 -1331 1869 -1331 
Q 1566 -1331 1297 -1286 
Q 1028 -1241 775 -1147 
L 775 -588 
Q 1028 -725 1275 -790 
Q 1522 -856 1778 -856 
Q 2344 -856 2625 -561 
Q 2906 -266 2906 331 
L 2906 616 
Q 2728 306 2450 153 
Q 2172 0 1784 0 
Q 1141 0 747 490 
Q 353 981 353 1791 
Q 353 2603 747 3093 
Q 1141 3584 1784 3584 
Q 2172 3584 2450 3431 
Q 2728 3278 2906 2969 
L 2906 3500 
L 3481 3500 
L 3481 434 
z
" transform="scale(0.015625)"/>
      </defs>
      <use xlink:href="#DejaVuSans-4e"/>
      <use xlink:href="#DejaVuSans-65" x="74.804688"/>
      <use xlink:href="#DejaVuSans-67" x="136.328125"/>
      <use xlink:href="#DejaVuSans-61" x="199.804688"/>
      <use xlink:href="#DejaVuSans-74" x="261.083984"/>
      <use xlink:href="#DejaVuSans-69" x="300.292969"/>
      <use xlink:href="#DejaVuSans-76" x="328.076172"/>
      <use xlink:href="#DejaVuSans-65" x="387.255859"/>
      <use xlink:href="#DejaVuSans-20" x="448.779297"/>
      <use xlink:href="#DejaVuSans-70" x="480.566406"/>
      <use xlink:href="#DejaVuSans-72" x="544.042969"/>
      <use xlink:href="#DejaVuSans-65" x="582.90625"/>
      <use xlink:href="#DejaVuSans-64" x="644.429688"/>
      <use xlink:href="#DejaVuSans-69" x="707.90625"/>
      <use xlink:href="#DejaVuSans-63" x="735.689453"/>
      <use xlink:href="#DejaVuSans-74" x="790.669922"/>
      <use xlink:href="#DejaVuSans-69" x="829.878906"/>
      <use xlink:href="#DejaVuSans-6f" x="857.662109"/>
      <use xlink:href="#DejaVuSans-6e" x="918.84375"/>
      <use xlink:href="#DejaVuSans-73" x="982.222656"/>
     </g>
    </g>
    <g id="line2d_26">
     <path d="M 66.6 113.282938 
L 76.6 113.282938 
L 86.6 113.282938 
" style="fill: none; stroke: #f08080; stroke-opacity: 0.8; stroke-width: 0.5; stroke-linecap: square"/>
    </g>
    <g id="text_21">
     <!-- Negative predictions max -->
     <g transform="translate(94.6 116.782938) scale(0.1 -0.1)">
      <use xlink:href="#DejaVuSans-4e"/>
      <use xlink:href="#DejaVuSans-65" x="74.804688"/>
      <use xlink:href="#DejaVuSans-67" x="136.328125"/>
      <use xlink:href="#DejaVuSans-61" x="199.804688"/>
      <use xlink:href="#DejaVuSans-74" x="261.083984"/>
      <use xlink:href="#DejaVuSans-69" x="300.292969"/>
      <use xlink:href="#DejaVuSans-76" x="328.076172"/>
      <use xlink:href="#DejaVuSans-65" x="387.255859"/>
      <use xlink:href="#DejaVuSans-20" x="448.779297"/>
      <use xlink:href="#DejaVuSans-70" x="480.566406"/>
      <use xlink:href="#DejaVuSans-72" x="544.042969"/>
      <use xlink:href="#DejaVuSans-65" x="582.90625"/>
      <use xlink:href="#DejaVuSans-64" x="644.429688"/>
      <use xlink:href="#DejaVuSans-69" x="707.90625"/>
      <use xlink:href="#DejaVuSans-63" x="735.689453"/>
      <use xlink:href="#DejaVuSans-74" x="790.669922"/>
      <use xlink:href="#DejaVuSans-69" x="829.878906"/>
      <use xlink:href="#DejaVuSans-6f" x="857.662109"/>
      <use xlink:href="#DejaVuSans-6e" x="918.84375"/>
      <use xlink:href="#DejaVuSans-73" x="982.222656"/>
      <use xlink:href="#DejaVuSans-20" x="1034.322266"/>
      <use xlink:href="#DejaVuSans-6d" x="1066.109375"/>
      <use xlink:href="#DejaVuSans-61" x="1163.521484"/>
      <use xlink:href="#DejaVuSans-78" x="1224.800781"/>
     </g>
    </g>
    <g id="line2d_27">
     <path d="M 66.6 127.961063 
L 76.6 127.961063 
L 86.6 127.961063 
" style="fill: none; stroke: #f08080; stroke-opacity: 0.8; stroke-width: 0.5; stroke-linecap: square"/>
    </g>
    <g id="text_22">
     <!-- Negative predictions min -->
     <g transform="translate(94.6 131.461063) scale(0.1 -0.1)">
      <use xlink:href="#DejaVuSans-4e"/>
      <use xlink:href="#DejaVuSans-65" x="74.804688"/>
      <use xlink:href="#DejaVuSans-67" x="136.328125"/>
      <use xlink:href="#DejaVuSans-61" x="199.804688"/>
      <use xlink:href="#DejaVuSans-74" x="261.083984"/>
      <use xlink:href="#DejaVuSans-69" x="300.292969"/>
      <use xlink:href="#DejaVuSans-76" x="328.076172"/>
      <use xlink:href="#DejaVuSans-65" x="387.255859"/>
      <use xlink:href="#DejaVuSans-20" x="448.779297"/>
      <use xlink:href="#DejaVuSans-70" x="480.566406"/>
      <use xlink:href="#DejaVuSans-72" x="544.042969"/>
      <use xlink:href="#DejaVuSans-65" x="582.90625"/>
      <use xlink:href="#DejaVuSans-64" x="644.429688"/>
      <use xlink:href="#DejaVuSans-69" x="707.90625"/>
      <use xlink:href="#DejaVuSans-63" x="735.689453"/>
      <use xlink:href="#DejaVuSans-74" x="790.669922"/>
      <use xlink:href="#DejaVuSans-69" x="829.878906"/>
      <use xlink:href="#DejaVuSans-6f" x="857.662109"/>
      <use xlink:href="#DejaVuSans-6e" x="918.84375"/>
      <use xlink:href="#DejaVuSans-73" x="982.222656"/>
      <use xlink:href="#DejaVuSans-20" x="1034.322266"/>
      <use xlink:href="#DejaVuSans-6d" x="1066.109375"/>
      <use xlink:href="#DejaVuSans-69" x="1163.521484"/>
      <use xlink:href="#DejaVuSans-6e" x="1191.304688"/>
     </g>
    </g>
   </g>
  </g>
 </g>
 <defs>
  <clipPath id="pa20e9ef23b">
   <rect x="57.6" y="41.472" width="357.12" height="266.112"/>
  </clipPath>
 </defs>
</svg>
