<?xml version="1.0" encoding="utf-8" standalone="no"?>
<!DOCTYPE svg PUBLIC "-//W3C//DTD SVG 1.1//EN"
  "http://www.w3.org/Graphics/SVG/1.1/DTD/svg11.dtd">
<svg xmlns:xlink="http://www.w3.org/1999/xlink" width="460.8pt" height="345.6pt" viewBox="0 0 460.8 345.6" xmlns="http://www.w3.org/2000/svg" version="1.1">
 <metadata>
  <rdf:RDF xmlns:dc="http://purl.org/dc/elements/1.1/" xmlns:cc="http://creativecommons.org/ns#" xmlns:rdf="http://www.w3.org/1999/02/22-rdf-syntax-ns#">
   <cc:Work>
    <dc:type rdf:resource="http://purl.org/dc/dcmitype/StillImage"/>
    <dc:date>2024-09-03T16:27:28.324036</dc:date>
    <dc:format>image/svg+xml</dc:format>
    <dc:creator>
     <cc:Agent>
      <dc:title>Matplotlib v3.9.0, https://matplotlib.org/</dc:title>
     </cc:Agent>
    </dc:creator>
   </cc:Work>
  </rdf:RDF>
 </metadata>
 <defs>
  <style type="text/css">*{stroke-linejoin: round; stroke-linecap: butt}</style>
 </defs>
 <g id="figure_1">
  <g id="patch_1">
   <path d="M 0 345.6 
L 460.8 345.6 
L 460.8 0 
L 0 0 
z
" style="fill: #ffffff"/>
  </g>
  <g id="axes_1">
   <g id="patch_2">
    <path d="M 57.6 307.584 
L 414.72 307.584 
L 414.72 41.472 
L 57.6 41.472 
z
" style="fill: #ffffff"/>
   </g>
   <g id="matplotlib.axis_1">
    <g id="xtick_1">
     <g id="line2d_1">
      <defs>
       <path id="m98808ad99c" d="M 0 0 
L 0 3.5 
" style="stroke: #000000; stroke-width: 0.8"/>
      </defs>
      <g>
       <use xlink:href="#m98808ad99c" x="73.832727" y="307.584" style="stroke: #000000; stroke-width: 0.8"/>
      </g>
     </g>
     <g id="text_1">
      <!-- 0 -->
      <g transform="translate(70.651477 322.182437) scale(0.1 -0.1)">
       <defs>
        <path id="DejaVuSans-30" d="M 2034 4250 
Q 1547 4250 1301 3770 
Q 1056 3291 1056 2328 
Q 1056 1369 1301 889 
Q 1547 409 2034 409 
Q 2525 409 2770 889 
Q 3016 1369 3016 2328 
Q 3016 3291 2770 3770 
Q 2525 4250 2034 4250 
z
M 2034 4750 
Q 2819 4750 3233 4129 
Q 3647 3509 3647 2328 
Q 3647 1150 3233 529 
Q 2819 -91 2034 -91 
Q 1250 -91 836 529 
Q 422 1150 422 2328 
Q 422 3509 836 4129 
Q 1250 4750 2034 4750 
z
" transform="scale(0.015625)"/>
       </defs>
       <use xlink:href="#DejaVuSans-30"/>
      </g>
     </g>
    </g>
    <g id="xtick_2">
     <g id="line2d_2">
      <g>
       <use xlink:href="#m98808ad99c" x="149.333784" y="307.584" style="stroke: #000000; stroke-width: 0.8"/>
      </g>
     </g>
     <g id="text_2">
      <!-- 50 -->
      <g transform="translate(142.971284 322.182437) scale(0.1 -0.1)">
       <defs>
        <path id="DejaVuSans-35" d="M 691 4666 
L 3169 4666 
L 3169 4134 
L 1269 4134 
L 1269 2991 
Q 1406 3038 1543 3061 
Q 1681 3084 1819 3084 
Q 2600 3084 3056 2656 
Q 3513 2228 3513 1497 
Q 3513 744 3044 326 
Q 2575 -91 1722 -91 
Q 1428 -91 1123 -41 
Q 819 9 494 109 
L 494 744 
Q 775 591 1075 516 
Q 1375 441 1709 441 
Q 2250 441 2565 725 
Q 2881 1009 2881 1497 
Q 2881 1984 2565 2268 
Q 2250 2553 1709 2553 
Q 1456 2553 1204 2497 
Q 953 2441 691 2322 
L 691 4666 
z
" transform="scale(0.015625)"/>
       </defs>
       <use xlink:href="#DejaVuSans-35"/>
       <use xlink:href="#DejaVuSans-30" x="63.623047"/>
      </g>
     </g>
    </g>
    <g id="xtick_3">
     <g id="line2d_3">
      <g>
       <use xlink:href="#m98808ad99c" x="224.834841" y="307.584" style="stroke: #000000; stroke-width: 0.8"/>
      </g>
     </g>
     <g id="text_3">
      <!-- 100 -->
      <g transform="translate(215.291091 322.182437) scale(0.1 -0.1)">
       <defs>
        <path id="DejaVuSans-31" d="M 794 531 
L 1825 531 
L 1825 4091 
L 703 3866 
L 703 4441 
L 1819 4666 
L 2450 4666 
L 2450 531 
L 3481 531 
L 3481 0 
L 794 0 
L 794 531 
z
" transform="scale(0.015625)"/>
       </defs>
       <use xlink:href="#DejaVuSans-31"/>
       <use xlink:href="#DejaVuSans-30" x="63.623047"/>
       <use xlink:href="#DejaVuSans-30" x="127.246094"/>
      </g>
     </g>
    </g>
    <g id="xtick_4">
     <g id="line2d_4">
      <g>
       <use xlink:href="#m98808ad99c" x="300.335899" y="307.584" style="stroke: #000000; stroke-width: 0.8"/>
      </g>
     </g>
     <g id="text_4">
      <!-- 150 -->
      <g transform="translate(290.792149 322.182437) scale(0.1 -0.1)">
       <use xlink:href="#DejaVuSans-31"/>
       <use xlink:href="#DejaVuSans-35" x="63.623047"/>
       <use xlink:href="#DejaVuSans-30" x="127.246094"/>
      </g>
     </g>
    </g>
    <g id="xtick_5">
     <g id="line2d_5">
      <g>
       <use xlink:href="#m98808ad99c" x="375.836956" y="307.584" style="stroke: #000000; stroke-width: 0.8"/>
      </g>
     </g>
     <g id="text_5">
      <!-- 200 -->
      <g transform="translate(366.293206 322.182437) scale(0.1 -0.1)">
       <defs>
        <path id="DejaVuSans-32" d="M 1228 531 
L 3431 531 
L 3431 0 
L 469 0 
L 469 531 
Q 828 903 1448 1529 
Q 2069 2156 2228 2338 
Q 2531 2678 2651 2914 
Q 2772 3150 2772 3378 
Q 2772 3750 2511 3984 
Q 2250 4219 1831 4219 
Q 1534 4219 1204 4116 
Q 875 4013 500 3803 
L 500 4441 
Q 881 4594 1212 4672 
Q 1544 4750 1819 4750 
Q 2544 4750 2975 4387 
Q 3406 4025 3406 3419 
Q 3406 3131 3298 2873 
Q 3191 2616 2906 2266 
Q 2828 2175 2409 1742 
Q 1991 1309 1228 531 
z
" transform="scale(0.015625)"/>
       </defs>
       <use xlink:href="#DejaVuSans-32"/>
       <use xlink:href="#DejaVuSans-30" x="63.623047"/>
       <use xlink:href="#DejaVuSans-30" x="127.246094"/>
      </g>
     </g>
    </g>
   </g>
   <g id="matplotlib.axis_2">
    <g id="ytick_1">
     <g id="line2d_6">
      <defs>
       <path id="md53d5d8870" d="M 0 0 
L -3.5 0 
" style="stroke: #000000; stroke-width: 0.8"/>
      </defs>
      <g>
       <use xlink:href="#md53d5d8870" x="57.6" y="276.983108" style="stroke: #000000; stroke-width: 0.8"/>
      </g>
     </g>
     <g id="text_6">
      <!-- −2500 -->
      <g transform="translate(16.770313 280.782326) scale(0.1 -0.1)">
       <defs>
        <path id="DejaVuSans-2212" d="M 678 2272 
L 4684 2272 
L 4684 1741 
L 678 1741 
L 678 2272 
z
" transform="scale(0.015625)"/>
       </defs>
       <use xlink:href="#DejaVuSans-2212"/>
       <use xlink:href="#DejaVuSans-32" x="83.789062"/>
       <use xlink:href="#DejaVuSans-35" x="147.412109"/>
       <use xlink:href="#DejaVuSans-30" x="211.035156"/>
       <use xlink:href="#DejaVuSans-30" x="274.658203"/>
      </g>
     </g>
    </g>
    <g id="ytick_2">
     <g id="line2d_7">
      <g>
       <use xlink:href="#md53d5d8870" x="57.6" y="245.761407" style="stroke: #000000; stroke-width: 0.8"/>
      </g>
     </g>
     <g id="text_7">
      <!-- −2000 -->
      <g transform="translate(16.770313 249.560626) scale(0.1 -0.1)">
       <use xlink:href="#DejaVuSans-2212"/>
       <use xlink:href="#DejaVuSans-32" x="83.789062"/>
       <use xlink:href="#DejaVuSans-30" x="147.412109"/>
       <use xlink:href="#DejaVuSans-30" x="211.035156"/>
       <use xlink:href="#DejaVuSans-30" x="274.658203"/>
      </g>
     </g>
    </g>
    <g id="ytick_3">
     <g id="line2d_8">
      <g>
       <use xlink:href="#md53d5d8870" x="57.6" y="214.539707" style="stroke: #000000; stroke-width: 0.8"/>
      </g>
     </g>
     <g id="text_8">
      <!-- −1500 -->
      <g transform="translate(16.770313 218.338926) scale(0.1 -0.1)">
       <use xlink:href="#DejaVuSans-2212"/>
       <use xlink:href="#DejaVuSans-31" x="83.789062"/>
       <use xlink:href="#DejaVuSans-35" x="147.412109"/>
       <use xlink:href="#DejaVuSans-30" x="211.035156"/>
       <use xlink:href="#DejaVuSans-30" x="274.658203"/>
      </g>
     </g>
    </g>
    <g id="ytick_4">
     <g id="line2d_9">
      <g>
       <use xlink:href="#md53d5d8870" x="57.6" y="183.318007" style="stroke: #000000; stroke-width: 0.8"/>
      </g>
     </g>
     <g id="text_9">
      <!-- −1000 -->
      <g transform="translate(16.770313 187.117226) scale(0.1 -0.1)">
       <use xlink:href="#DejaVuSans-2212"/>
       <use xlink:href="#DejaVuSans-31" x="83.789062"/>
       <use xlink:href="#DejaVuSans-30" x="147.412109"/>
       <use xlink:href="#DejaVuSans-30" x="211.035156"/>
       <use xlink:href="#DejaVuSans-30" x="274.658203"/>
      </g>
     </g>
    </g>
    <g id="ytick_5">
     <g id="line2d_10">
      <g>
       <use xlink:href="#md53d5d8870" x="57.6" y="152.096306" style="stroke: #000000; stroke-width: 0.8"/>
      </g>
     </g>
     <g id="text_10">
      <!-- −500 -->
      <g transform="translate(23.132812 155.895525) scale(0.1 -0.1)">
       <use xlink:href="#DejaVuSans-2212"/>
       <use xlink:href="#DejaVuSans-35" x="83.789062"/>
       <use xlink:href="#DejaVuSans-30" x="147.412109"/>
       <use xlink:href="#DejaVuSans-30" x="211.035156"/>
      </g>
     </g>
    </g>
    <g id="ytick_6">
     <g id="line2d_11">
      <g>
       <use xlink:href="#md53d5d8870" x="57.6" y="120.874606" style="stroke: #000000; stroke-width: 0.8"/>
      </g>
     </g>
     <g id="text_11">
      <!-- 0 -->
      <g transform="translate(44.2375 124.673825) scale(0.1 -0.1)">
       <use xlink:href="#DejaVuSans-30"/>
      </g>
     </g>
    </g>
    <g id="ytick_7">
     <g id="line2d_12">
      <g>
       <use xlink:href="#md53d5d8870" x="57.6" y="89.652906" style="stroke: #000000; stroke-width: 0.8"/>
      </g>
     </g>
     <g id="text_12">
      <!-- 500 -->
      <g transform="translate(31.5125 93.452125) scale(0.1 -0.1)">
       <use xlink:href="#DejaVuSans-35"/>
       <use xlink:href="#DejaVuSans-30" x="63.623047"/>
       <use xlink:href="#DejaVuSans-30" x="127.246094"/>
      </g>
     </g>
    </g>
    <g id="ytick_8">
     <g id="line2d_13">
      <g>
       <use xlink:href="#md53d5d8870" x="57.6" y="58.431206" style="stroke: #000000; stroke-width: 0.8"/>
      </g>
     </g>
     <g id="text_13">
      <!-- 1000 -->
      <g transform="translate(25.15 62.230424) scale(0.1 -0.1)">
       <use xlink:href="#DejaVuSans-31"/>
       <use xlink:href="#DejaVuSans-30" x="63.623047"/>
       <use xlink:href="#DejaVuSans-30" x="127.246094"/>
       <use xlink:href="#DejaVuSans-30" x="190.869141"/>
      </g>
     </g>
    </g>
   </g>
   <g id="line2d_14">
    <path d="M 73.832727 121.811257 
L 75.342748 123.715781 
L 76.85277 123.091347 
L 78.362791 123.403564 
L 79.872812 123.466007 
L 81.382833 123.341121 
L 82.892854 124.05922 
L 84.402875 123.622116 
L 85.912896 125.9013 
L 87.422918 128.586366 
L 88.932939 132.613966 
L 90.44296 131.252699 
L 91.952981 130.815596 
L 93.463002 129.691614 
L 94.973023 131.877133 
L 97.993066 133.032336 
L 99.503087 134.593421 
L 101.013108 135.217855 
L 102.523129 136.59161 
L 104.03315 136.123285 
L 105.543171 137.309709 
L 107.053192 136.560388 
L 108.563214 136.747719 
L 110.073235 136.716497 
L 111.583256 137.56989 
L 113.093277 137.913329 
L 114.603298 137.507447 
L 116.113319 137.632333 
L 117.62334 137.56989 
L 119.133362 137.819664 
L 120.643383 137.75722 
L 122.153404 137.164008 
L 123.663425 137.143193 
L 125.173446 137.486632 
L 126.683467 137.705184 
L 128.193488 141.233236 
L 129.70351 140.983463 
L 131.213531 139.359934 
L 132.723552 141.077128 
L 134.233573 140.952241 
L 135.743594 141.014684 
L 137.253615 140.796132 
L 138.763636 141.389345 
L 140.273658 141.420566 
L 141.783679 142.076222 
L 146.313742 144.97984 
L 150.843805 149.515907 
L 152.353827 150.546223 
L 153.863848 150.77102 
L 155.373869 151.957444 
L 156.88389 151.551562 
L 158.393911 150.802241 
L 159.903932 153.612194 
L 161.413953 154.736176 
L 162.923975 154.985949 
L 164.433996 154.45518 
L 165.944017 153.799525 
L 168.964059 153.986855 
L 170.47408 153.643416 
L 171.984101 155.204501 
L 173.494123 154.829841 
L 175.004144 156.390926 
L 176.514165 156.453369 
L 178.024186 156.921695 
L 179.534207 156.547034 
L 181.044228 157.483685 
L 182.554249 158.67011 
L 184.064271 158.357893 
L 185.574292 160.568389 
L 187.084313 160.94305 
L 188.594334 160.786941 
L 190.104355 160.256172 
L 191.614376 160.94305 
L 193.124397 160.162507 
L 194.634419 159.767032 
L 196.14444 161.390561 
L 197.654461 160.578796 
L 199.164482 162.701872 
L 200.674503 163.981962 
L 202.184524 163.76341 
L 203.694545 165.563861 
L 206.714588 164.356622 
L 208.224609 164.575174 
L 209.73463 164.981056 
L 211.244651 167.07291 
L 212.754672 168.758882 
L 214.264693 167.385127 
L 215.774715 169.414538 
L 217.284736 168.72766 
L 218.794757 167.759788 
L 220.304778 168.665217 
L 221.814799 168.509108 
L 223.32482 170.975623 
L 224.834841 170.319967 
L 226.344863 170.869469 
L 227.854884 170.213813 
L 229.364905 169.714266 
L 230.874926 170.432365 
L 232.384947 170.650917 
L 233.894968 170.557252 
L 235.404989 172.36811 
L 236.915011 176.801592 
L 238.425032 173.179875 
L 239.935053 173.773087 
L 241.445074 174.616073 
L 242.955095 175.896163 
L 244.465116 174.241412 
L 245.975137 179.361771 
L 247.485159 177.113809 
L 248.99518 179.611545 
L 250.505201 176.988922 
L 252.015222 179.673988 
L 253.525243 179.923762 
L 255.035264 183.857696 
L 256.545285 180.766748 
L 258.055307 180.9853 
L 259.565328 180.766748 
L 261.075349 181.016521 
L 262.58537 180.111092 
L 264.095391 181.703399 
L 265.605412 185.38756 
L 267.115433 183.410185 
L 270.135476 185.1586 
L 271.645497 188.187105 
L 273.155518 186.688464 
L 274.665539 188.936426 
L 276.17556 188.28077 
L 277.685581 189.904299 
L 279.195603 190.403846 
L 280.705624 188.936426 
L 282.215645 191.996153 
L 283.725666 192.901582 
L 285.235687 197.251806 
L 286.745708 201.040039 
L 288.255729 204.278175 
L 289.765751 206.57297 
L 291.275772 207.141899 
L 292.785793 210.851037 
L 294.295814 217.501259 
L 295.805835 217.863431 
L 297.315856 217.426327 
L 298.825877 217.238997 
L 300.335899 216.677006 
L 301.84592 217.051666 
L 303.355941 218.081982 
L 304.865962 220.954379 
L 306.375983 222.203247 
L 307.886004 221.922252 
L 309.396025 222.088767 
L 310.906047 225.429489 
L 312.416068 227.4589 
L 313.926089 228.24985 
L 315.43611 232.270015 
L 316.946131 233.26911 
L 318.456152 233.550105 
L 319.966173 234.955081 
L 322.986216 235.236077 
L 324.496237 234.892638 
L 326.006258 235.475443 
L 327.516279 236.505759 
L 329.0263 235.97499 
L 330.536321 237.973179 
L 332.046342 244.217519 
L 333.556364 242.21933 
L 335.066385 240.646351 
L 336.576406 240.864903 
L 338.086427 241.583002 
L 339.596448 240.80246 
L 341.106469 242.113771 
L 342.61649 246.640918 
L 344.126512 244.049517 
L 345.636533 245.39205 
L 347.146554 247.764899 
L 348.656575 248.951324 
L 350.166596 247.296573 
L 351.676617 250.387522 
L 353.186638 248.732772 
L 354.69666 248.88888 
L 356.206681 249.232319 
L 357.716702 250.044083 
L 359.226723 249.763088 
L 362.246765 253.322362 
L 363.756786 258.692494 
L 365.266808 259.629145 
L 366.776829 271.839668 
L 368.28685 276.171679 
L 369.796871 274.489176 
L 371.306892 271.960219 
L 372.816913 273.427639 
L 374.326934 274.020851 
L 375.836956 275.675601 
L 377.346977 275.269719 
L 378.856998 279.734422 
L 380.367019 281.576502 
L 381.87704 282.419488 
L 383.387061 282.669262 
L 384.897082 284.417677 
L 386.407104 285.042111 
L 387.917125 286.384644 
L 389.427146 289.569258 
L 390.937167 289.225819 
L 392.447188 289.381927 
L 395.46723 290.305198 
L 396.977252 295.363113 
L 398.487273 295.488 
L 398.487273 295.488 
" clip-path="url(#pc1aa53a9df)" style="fill: none; stroke: #1f77b4; stroke-opacity: 0.7; stroke-width: 1.5; stroke-linecap: square"/>
   </g>
   <g id="line2d_15">
    <path d="M 73.832727 120.718498 
L 75.342748 121.873701 
L 78.362791 120.624833 
L 79.872812 119.750625 
L 81.382833 119.625738 
L 82.892854 119.781847 
L 84.402875 119.126191 
L 85.912896 120.125285 
L 87.422918 122.810352 
L 88.932939 126.837951 
L 90.44296 123.466007 
L 91.952981 123.028904 
L 93.463002 119.750625 
L 94.973023 119.407186 
L 96.483044 119.188634 
L 97.993066 118.158318 
L 99.503087 118.251983 
L 101.013108 118.876417 
L 102.523129 120.062842 
L 104.03315 119.594516 
L 105.543171 120.780941 
L 107.053192 119.781847 
L 108.563214 119.969177 
L 110.073235 118.127097 
L 113.093277 116.066464 
L 114.603298 115.06737 
L 116.113319 114.380493 
L 117.62334 113.568728 
L 119.133362 111.913978 
L 120.643383 110.071898 
L 122.153404 107.605384 
L 123.663425 105.919412 
L 126.683467 103.702671 
L 128.193488 105.127516 
L 129.70351 104.877742 
L 131.213531 102.317563 
L 132.723552 101.942902 
L 134.233573 101.818016 
L 135.743594 101.880459 
L 137.253615 101.193582 
L 138.763636 100.132044 
L 140.273658 100.163266 
L 141.783679 100.381817 
L 144.803721 102.223898 
L 146.313742 102.692223 
L 147.823763 104.0972 
L 149.333784 104.940186 
L 150.843805 106.095389 
L 152.353827 106.282719 
L 153.863848 105.439733 
L 155.373869 105.658285 
L 158.393911 104.190865 
L 159.903932 105.56462 
L 161.413953 106.688601 
L 162.923975 106.875931 
L 164.433996 105.814393 
L 165.944017 104.003535 
L 167.454038 102.567336 
L 168.964059 102.473671 
L 170.47408 100.662813 
L 171.984101 100.725256 
L 173.494123 99.726162 
L 175.004144 100.319374 
L 176.514165 99.69494 
L 178.024186 99.413945 
L 179.534207 98.508515 
L 181.044228 97.934036 
L 182.554249 99.120461 
L 184.064271 98.808244 
L 185.574292 100.119555 
L 187.084313 100.494216 
L 188.594334 99.994668 
L 190.104355 98.683357 
L 191.614376 98.18381 
L 194.634419 95.186527 
L 196.14444 95.259377 
L 197.654461 94.447613 
L 199.164482 96.570689 
L 200.674503 97.850778 
L 202.184524 97.632226 
L 203.694545 99.474307 
L 205.204567 98.693764 
L 206.714588 98.06933 
L 208.224609 96.914127 
L 209.73463 95.946255 
L 211.244651 96.664354 
L 212.754672 98.350325 
L 214.264693 96.976571 
L 215.774715 99.005981 
L 217.284736 98.319104 
L 218.794757 97.351231 
L 220.304778 96.539467 
L 221.814799 94.666165 
L 223.32482 95.353042 
L 224.834841 94.697387 
L 226.344863 94.666165 
L 227.854884 93.448519 
L 229.364905 91.793768 
L 230.874926 91.200556 
L 232.384947 91.429515 
L 233.894968 90.461643 
L 235.404989 91.741732 
L 236.915011 96.175214 
L 238.425032 92.553496 
L 239.935053 89.993317 
L 241.445074 90.305534 
L 242.955095 90.180647 
L 244.465116 86.246713 
L 245.975137 88.057572 
L 247.485159 85.809609 
L 248.99518 86.059383 
L 250.505201 83.43676 
L 252.015222 86.121826 
L 253.525243 86.3716 
L 255.035264 89.930874 
L 256.545285 86.839925 
L 258.055307 84.373411 
L 259.565328 83.842642 
L 261.075349 82.781104 
L 262.58537 80.845359 
L 264.095391 80.017984 
L 265.605412 83.140154 
L 267.115433 80.486309 
L 270.135476 77.7388 
L 271.645497 80.767305 
L 273.155518 79.268663 
L 274.665539 79.95554 
L 276.17556 79.299885 
L 277.685581 80.923413 
L 279.195603 81.42296 
L 280.705624 79.736988 
L 282.215645 81.266852 
L 283.725666 82.172281 
L 285.235687 86.824314 
L 286.745708 87.573635 
L 288.255729 87.511192 
L 289.765751 87.323862 
L 291.275772 85.388116 
L 292.785793 86.262324 
L 294.295814 91.195352 
L 295.805835 88.76006 
L 297.315856 85.200786 
L 298.825877 85.013456 
L 300.335899 84.389022 
L 301.84592 84.576352 
L 303.355941 83.389927 
L 304.865962 83.036081 
L 306.375983 84.284949 
L 307.886004 83.910289 
L 309.396025 82.911195 
L 310.906047 86.251917 
L 312.416068 88.281327 
L 313.926089 87.813002 
L 315.43611 91.27861 
L 316.946131 90.248294 
L 318.456152 90.52929 
L 319.966173 90.435624 
L 322.986216 87.001237 
L 324.496237 84.84694 
L 327.516279 83.691737 
L 329.0263 82.692643 
L 330.536321 84.066398 
L 332.046342 90.310738 
L 333.556364 88.312549 
L 335.066385 83.129747 
L 336.576406 78.883595 
L 338.086427 79.133369 
L 339.596448 77.634727 
L 341.106469 74.949661 
L 342.61649 78.633822 
L 344.126512 76.042421 
L 345.636533 74.887218 
L 347.146554 75.48043 
L 348.656575 76.666855 
L 350.166596 74.855996 
L 351.676617 76.292194 
L 353.186638 74.637444 
L 354.69666 73.201246 
L 356.206681 71.952378 
L 357.716702 71.390387 
L 359.226723 70.953283 
L 360.736744 71.640161 
L 362.246765 73.482241 
L 363.756786 78.852374 
L 365.266808 79.997169 
L 366.776829 88.801689 
L 368.28685 86.834722 
L 369.796871 79.435179 
L 371.306892 76.906221 
L 372.816913 77.43699 
L 374.326934 74.283598 
L 375.836956 74.408485 
L 377.346977 70.661881 
L 378.856998 70.162334 
L 380.367019 68.975909 
L 381.87704 64.854645 
L 383.387061 61.357814 
L 384.897082 59.047408 
L 386.407104 58.298088 
L 387.917125 56.674559 
L 390.937167 55.940849 
L 392.447188 55.160307 
L 393.957209 53.568 
L 395.46723 53.973882 
L 396.977252 57.845373 
L 398.487273 57.97026 
L 398.487273 57.97026 
" clip-path="url(#pc1aa53a9df)" style="fill: none; stroke: #ff7f0e; stroke-opacity: 0.7; stroke-width: 1.5; stroke-linecap: square"/>
   </g>
   <g id="line2d_16">
    <path d="M 73.832727 121.264877 
L 75.342748 122.794741 
L 76.85277 122.170307 
L 78.362791 122.014198 
L 79.872812 121.608316 
L 81.382833 121.483429 
L 82.892854 121.920533 
L 84.402875 121.374153 
L 85.912896 123.013293 
L 87.422918 125.698359 
L 88.932939 129.725958 
L 90.44296 127.359353 
L 91.952981 126.92225 
L 93.463002 124.72112 
L 94.973023 125.64216 
L 96.483044 125.813879 
L 97.993066 125.595327 
L 99.503087 126.422702 
L 101.013108 127.047136 
L 102.523129 128.327226 
L 104.03315 127.858901 
L 105.543171 129.045325 
L 107.053192 128.171118 
L 108.563214 128.358448 
L 110.073235 127.421797 
L 111.583256 127.364557 
L 113.093277 126.989897 
L 114.603298 126.287408 
L 116.113319 126.006413 
L 117.62334 125.569309 
L 119.133362 124.866821 
L 120.643383 123.914559 
L 122.153404 122.384696 
L 123.663425 121.531303 
L 126.683467 120.703928 
L 128.193488 123.180376 
L 129.70351 122.930602 
L 131.213531 120.838749 
L 132.723552 121.510015 
L 134.233573 121.385128 
L 135.743594 121.447572 
L 137.253615 120.994857 
L 138.763636 120.760694 
L 140.273658 120.791916 
L 141.783679 121.22902 
L 144.803721 123.0711 
L 146.313742 123.836032 
L 147.823763 125.319063 
L 150.843805 127.805648 
L 152.353827 128.414471 
L 153.863848 128.105376 
L 155.373869 128.807865 
L 156.88389 128.245874 
L 158.393911 127.496553 
L 159.903932 129.588407 
L 161.413953 130.712388 
L 162.923975 130.93094 
L 164.433996 130.134787 
L 165.944017 128.90153 
L 167.454038 128.230263 
L 168.964059 128.230263 
L 170.47408 127.153114 
L 171.984101 127.964879 
L 173.494123 127.278001 
L 175.004144 128.35515 
L 176.514165 128.074155 
L 178.024186 128.16782 
L 179.534207 127.527775 
L 181.044228 127.708861 
L 182.554249 128.895285 
L 184.064271 128.583068 
L 185.574292 130.343972 
L 187.084313 130.718633 
L 188.594334 130.390805 
L 190.104355 129.469765 
L 191.614376 129.56343 
L 193.124397 128.392616 
L 194.634419 127.476779 
L 196.14444 128.324969 
L 197.654461 127.513205 
L 199.164482 129.63628 
L 200.674503 130.91637 
L 202.184524 130.697818 
L 203.694545 132.519084 
L 206.714588 131.212976 
L 208.224609 130.744651 
L 209.73463 130.463655 
L 211.244651 131.868632 
L 212.754672 133.554604 
L 214.264693 132.180849 
L 215.774715 134.210259 
L 217.284736 133.523382 
L 218.794757 132.555509 
L 220.304778 132.602342 
L 221.814799 131.587637 
L 223.32482 133.164332 
L 224.834841 132.508677 
L 226.344863 132.767817 
L 227.854884 131.831166 
L 229.364905 130.754017 
L 230.874926 130.816461 
L 232.384947 131.040216 
L 233.894968 130.509447 
L 235.404989 132.054921 
L 236.915011 136.488403 
L 238.425032 132.866686 
L 239.935053 131.883202 
L 242.955095 133.038405 
L 244.465116 130.244063 
L 245.975137 133.709671 
L 247.485159 131.461709 
L 248.99518 132.835464 
L 250.505201 130.212841 
L 252.015222 132.897907 
L 253.525243 133.147681 
L 255.035264 136.894285 
L 256.545285 133.803337 
L 258.055307 132.679355 
L 261.075349 131.898813 
L 262.58537 130.478225 
L 264.095391 130.860691 
L 265.605412 134.263857 
L 267.115433 131.948247 
L 270.135476 131.4487 
L 271.645497 134.477205 
L 273.155518 132.978563 
L 274.665539 134.445983 
L 276.17556 133.790328 
L 277.685581 135.413856 
L 279.195603 135.913403 
L 280.705624 134.336707 
L 282.215645 136.631502 
L 283.725666 137.536932 
L 285.235687 142.03806 
L 286.745708 144.306837 
L 288.255729 145.894683 
L 289.765751 146.948416 
L 291.275772 146.265007 
L 292.785793 148.55668 
L 294.295814 154.348306 
L 295.805835 153.311745 
L 297.315856 151.313556 
L 298.825877 151.126226 
L 300.335899 150.533014 
L 301.84592 150.814009 
L 303.355941 150.735955 
L 306.375983 153.244098 
L 309.396025 152.499981 
L 310.906047 155.840703 
L 312.416068 157.870113 
L 313.926089 158.031426 
L 315.43611 161.774313 
L 316.946131 161.758702 
L 318.456152 162.039697 
L 319.966173 162.695353 
L 322.986216 161.118657 
L 324.496237 159.869789 
L 326.006258 159.880196 
L 327.516279 160.098748 
L 329.0263 159.333817 
L 330.536321 161.019788 
L 332.046342 167.264128 
L 333.556364 165.26594 
L 335.066385 161.888049 
L 336.576406 159.874249 
L 338.086427 160.358186 
L 339.596448 159.218594 
L 341.106469 158.531716 
L 342.61649 162.63737 
L 344.126512 160.045969 
L 345.636533 160.139634 
L 347.146554 161.622664 
L 348.656575 162.809089 
L 350.166596 161.076285 
L 351.676617 163.339858 
L 353.186638 161.685108 
L 354.69666 161.045063 
L 356.206681 160.592348 
L 357.716702 160.717235 
L 359.226723 160.358186 
L 360.736744 161.560221 
L 362.246765 163.402301 
L 363.756786 168.772434 
L 365.266808 169.813157 
L 366.776829 180.320679 
L 368.28685 181.5032 
L 369.796871 176.962178 
L 371.306892 174.43322 
L 372.816913 175.432314 
L 374.326934 174.152225 
L 375.836956 175.042043 
L 377.346977 172.9658 
L 378.856998 174.948378 
L 380.367019 175.276206 
L 383.387061 172.013538 
L 384.897082 171.732543 
L 387.917125 171.529602 
L 389.427146 172.926773 
L 392.447188 172.271117 
L 393.957209 171.733658 
L 395.46723 172.13954 
L 396.977252 176.604243 
L 398.487273 176.72913 
L 398.487273 176.72913 
" clip-path="url(#pc1aa53a9df)" style="fill: none; stroke: #2ca02c; stroke-opacity: 0.7; stroke-width: 1.5; stroke-linecap: square"/>
   </g>
   <g id="patch_3">
    <path d="M 57.6 307.584 
L 57.6 41.472 
" style="fill: none; stroke: #000000; stroke-width: 0.8; stroke-linejoin: miter; stroke-linecap: square"/>
   </g>
   <g id="patch_4">
    <path d="M 414.72 307.584 
L 414.72 41.472 
" style="fill: none; stroke: #000000; stroke-width: 0.8; stroke-linejoin: miter; stroke-linecap: square"/>
   </g>
   <g id="patch_5">
    <path d="M 57.6 307.584 
L 414.72 307.584 
" style="fill: none; stroke: #000000; stroke-width: 0.8; stroke-linejoin: miter; stroke-linecap: square"/>
   </g>
   <g id="patch_6">
    <path d="M 57.6 41.472 
L 414.72 41.472 
" style="fill: none; stroke: #000000; stroke-width: 0.8; stroke-linejoin: miter; stroke-linecap: square"/>
   </g>
   <g id="text_14">
    <!-- naive_simrank_cci -->
    <g transform="translate(181.448438 35.472) scale(0.12 -0.12)">
     <defs>
      <path id="DejaVuSans-6e" d="M 3513 2113 
L 3513 0 
L 2938 0 
L 2938 2094 
Q 2938 2591 2744 2837 
Q 2550 3084 2163 3084 
Q 1697 3084 1428 2787 
Q 1159 2491 1159 1978 
L 1159 0 
L 581 0 
L 581 3500 
L 1159 3500 
L 1159 2956 
Q 1366 3272 1645 3428 
Q 1925 3584 2291 3584 
Q 2894 3584 3203 3211 
Q 3513 2838 3513 2113 
z
" transform="scale(0.015625)"/>
      <path id="DejaVuSans-61" d="M 2194 1759 
Q 1497 1759 1228 1600 
Q 959 1441 959 1056 
Q 959 750 1161 570 
Q 1363 391 1709 391 
Q 2188 391 2477 730 
Q 2766 1069 2766 1631 
L 2766 1759 
L 2194 1759 
z
M 3341 1997 
L 3341 0 
L 2766 0 
L 2766 531 
Q 2569 213 2275 61 
Q 1981 -91 1556 -91 
Q 1019 -91 701 211 
Q 384 513 384 1019 
Q 384 1609 779 1909 
Q 1175 2209 1959 2209 
L 2766 2209 
L 2766 2266 
Q 2766 2663 2505 2880 
Q 2244 3097 1772 3097 
Q 1472 3097 1187 3025 
Q 903 2953 641 2809 
L 641 3341 
Q 956 3463 1253 3523 
Q 1550 3584 1831 3584 
Q 2591 3584 2966 3190 
Q 3341 2797 3341 1997 
z
" transform="scale(0.015625)"/>
      <path id="DejaVuSans-69" d="M 603 3500 
L 1178 3500 
L 1178 0 
L 603 0 
L 603 3500 
z
M 603 4863 
L 1178 4863 
L 1178 4134 
L 603 4134 
L 603 4863 
z
" transform="scale(0.015625)"/>
      <path id="DejaVuSans-76" d="M 191 3500 
L 800 3500 
L 1894 563 
L 2988 3500 
L 3597 3500 
L 2284 0 
L 1503 0 
L 191 3500 
z
" transform="scale(0.015625)"/>
      <path id="DejaVuSans-65" d="M 3597 1894 
L 3597 1613 
L 953 1613 
Q 991 1019 1311 708 
Q 1631 397 2203 397 
Q 2534 397 2845 478 
Q 3156 559 3463 722 
L 3463 178 
Q 3153 47 2828 -22 
Q 2503 -91 2169 -91 
Q 1331 -91 842 396 
Q 353 884 353 1716 
Q 353 2575 817 3079 
Q 1281 3584 2069 3584 
Q 2775 3584 3186 3129 
Q 3597 2675 3597 1894 
z
M 3022 2063 
Q 3016 2534 2758 2815 
Q 2500 3097 2075 3097 
Q 1594 3097 1305 2825 
Q 1016 2553 972 2059 
L 3022 2063 
z
" transform="scale(0.015625)"/>
      <path id="DejaVuSans-5f" d="M 3263 -1063 
L 3263 -1509 
L -63 -1509 
L -63 -1063 
L 3263 -1063 
z
" transform="scale(0.015625)"/>
      <path id="DejaVuSans-73" d="M 2834 3397 
L 2834 2853 
Q 2591 2978 2328 3040 
Q 2066 3103 1784 3103 
Q 1356 3103 1142 2972 
Q 928 2841 928 2578 
Q 928 2378 1081 2264 
Q 1234 2150 1697 2047 
L 1894 2003 
Q 2506 1872 2764 1633 
Q 3022 1394 3022 966 
Q 3022 478 2636 193 
Q 2250 -91 1575 -91 
Q 1294 -91 989 -36 
Q 684 19 347 128 
L 347 722 
Q 666 556 975 473 
Q 1284 391 1588 391 
Q 1994 391 2212 530 
Q 2431 669 2431 922 
Q 2431 1156 2273 1281 
Q 2116 1406 1581 1522 
L 1381 1569 
Q 847 1681 609 1914 
Q 372 2147 372 2553 
Q 372 3047 722 3315 
Q 1072 3584 1716 3584 
Q 2034 3584 2315 3537 
Q 2597 3491 2834 3397 
z
" transform="scale(0.015625)"/>
      <path id="DejaVuSans-6d" d="M 3328 2828 
Q 3544 3216 3844 3400 
Q 4144 3584 4550 3584 
Q 5097 3584 5394 3201 
Q 5691 2819 5691 2113 
L 5691 0 
L 5113 0 
L 5113 2094 
Q 5113 2597 4934 2840 
Q 4756 3084 4391 3084 
Q 3944 3084 3684 2787 
Q 3425 2491 3425 1978 
L 3425 0 
L 2847 0 
L 2847 2094 
Q 2847 2600 2669 2842 
Q 2491 3084 2119 3084 
Q 1678 3084 1418 2786 
Q 1159 2488 1159 1978 
L 1159 0 
L 581 0 
L 581 3500 
L 1159 3500 
L 1159 2956 
Q 1356 3278 1631 3431 
Q 1906 3584 2284 3584 
Q 2666 3584 2933 3390 
Q 3200 3197 3328 2828 
z
" transform="scale(0.015625)"/>
      <path id="DejaVuSans-72" d="M 2631 2963 
Q 2534 3019 2420 3045 
Q 2306 3072 2169 3072 
Q 1681 3072 1420 2755 
Q 1159 2438 1159 1844 
L 1159 0 
L 581 0 
L 581 3500 
L 1159 3500 
L 1159 2956 
Q 1341 3275 1631 3429 
Q 1922 3584 2338 3584 
Q 2397 3584 2469 3576 
Q 2541 3569 2628 3553 
L 2631 2963 
z
" transform="scale(0.015625)"/>
      <path id="DejaVuSans-6b" d="M 581 4863 
L 1159 4863 
L 1159 1991 
L 2875 3500 
L 3609 3500 
L 1753 1863 
L 3688 0 
L 2938 0 
L 1159 1709 
L 1159 0 
L 581 0 
L 581 4863 
z
" transform="scale(0.015625)"/>
      <path id="DejaVuSans-63" d="M 3122 3366 
L 3122 2828 
Q 2878 2963 2633 3030 
Q 2388 3097 2138 3097 
Q 1578 3097 1268 2742 
Q 959 2388 959 1747 
Q 959 1106 1268 751 
Q 1578 397 2138 397 
Q 2388 397 2633 464 
Q 2878 531 3122 666 
L 3122 134 
Q 2881 22 2623 -34 
Q 2366 -91 2075 -91 
Q 1284 -91 818 406 
Q 353 903 353 1747 
Q 353 2603 823 3093 
Q 1294 3584 2113 3584 
Q 2378 3584 2631 3529 
Q 2884 3475 3122 3366 
z
" transform="scale(0.015625)"/>
     </defs>
     <use xlink:href="#DejaVuSans-6e"/>
     <use xlink:href="#DejaVuSans-61" x="63.378906"/>
     <use xlink:href="#DejaVuSans-69" x="124.658203"/>
     <use xlink:href="#DejaVuSans-76" x="152.441406"/>
     <use xlink:href="#DejaVuSans-65" x="211.621094"/>
     <use xlink:href="#DejaVuSans-5f" x="273.144531"/>
     <use xlink:href="#DejaVuSans-73" x="323.144531"/>
     <use xlink:href="#DejaVuSans-69" x="375.244141"/>
     <use xlink:href="#DejaVuSans-6d" x="403.027344"/>
     <use xlink:href="#DejaVuSans-72" x="500.439453"/>
     <use xlink:href="#DejaVuSans-61" x="541.552734"/>
     <use xlink:href="#DejaVuSans-6e" x="602.832031"/>
     <use xlink:href="#DejaVuSans-6b" x="666.210938"/>
     <use xlink:href="#DejaVuSans-5f" x="724.121094"/>
     <use xlink:href="#DejaVuSans-63" x="774.121094"/>
     <use xlink:href="#DejaVuSans-63" x="829.101562"/>
     <use xlink:href="#DejaVuSans-69" x="884.082031"/>
    </g>
   </g>
   <g id="legend_1">
    <g id="patch_7">
     <path d="M 64.6 302.584 
L 258.804688 302.584 
Q 260.804688 302.584 260.804688 300.584 
L 260.804688 257.549625 
Q 260.804688 255.549625 258.804688 255.549625 
L 64.6 255.549625 
Q 62.6 255.549625 62.6 257.549625 
L 62.6 300.584 
Q 62.6 302.584 64.6 302.584 
z
" style="fill: #ffffff; opacity: 0.8; stroke: #cccccc; stroke-linejoin: miter"/>
    </g>
    <g id="line2d_17">
     <path d="M 66.6 263.648062 
L 76.6 263.648062 
L 86.6 263.648062 
" style="fill: none; stroke: #1f77b4; stroke-opacity: 0.7; stroke-width: 1.5; stroke-linecap: square"/>
    </g>
    <g id="text_15">
     <!-- Positive cumulative predictions -->
     <g transform="translate(94.6 267.148062) scale(0.1 -0.1)">
      <defs>
       <path id="DejaVuSans-50" d="M 1259 4147 
L 1259 2394 
L 2053 2394 
Q 2494 2394 2734 2622 
Q 2975 2850 2975 3272 
Q 2975 3691 2734 3919 
Q 2494 4147 2053 4147 
L 1259 4147 
z
M 628 4666 
L 2053 4666 
Q 2838 4666 3239 4311 
Q 3641 3956 3641 3272 
Q 3641 2581 3239 2228 
Q 2838 1875 2053 1875 
L 1259 1875 
L 1259 0 
L 628 0 
L 628 4666 
z
" transform="scale(0.015625)"/>
       <path id="DejaVuSans-6f" d="M 1959 3097 
Q 1497 3097 1228 2736 
Q 959 2375 959 1747 
Q 959 1119 1226 758 
Q 1494 397 1959 397 
Q 2419 397 2687 759 
Q 2956 1122 2956 1747 
Q 2956 2369 2687 2733 
Q 2419 3097 1959 3097 
z
M 1959 3584 
Q 2709 3584 3137 3096 
Q 3566 2609 3566 1747 
Q 3566 888 3137 398 
Q 2709 -91 1959 -91 
Q 1206 -91 779 398 
Q 353 888 353 1747 
Q 353 2609 779 3096 
Q 1206 3584 1959 3584 
z
" transform="scale(0.015625)"/>
       <path id="DejaVuSans-74" d="M 1172 4494 
L 1172 3500 
L 2356 3500 
L 2356 3053 
L 1172 3053 
L 1172 1153 
Q 1172 725 1289 603 
Q 1406 481 1766 481 
L 2356 481 
L 2356 0 
L 1766 0 
Q 1100 0 847 248 
Q 594 497 594 1153 
L 594 3053 
L 172 3053 
L 172 3500 
L 594 3500 
L 594 4494 
L 1172 4494 
z
" transform="scale(0.015625)"/>
       <path id="DejaVuSans-20" transform="scale(0.015625)"/>
       <path id="DejaVuSans-75" d="M 544 1381 
L 544 3500 
L 1119 3500 
L 1119 1403 
Q 1119 906 1312 657 
Q 1506 409 1894 409 
Q 2359 409 2629 706 
Q 2900 1003 2900 1516 
L 2900 3500 
L 3475 3500 
L 3475 0 
L 2900 0 
L 2900 538 
Q 2691 219 2414 64 
Q 2138 -91 1772 -91 
Q 1169 -91 856 284 
Q 544 659 544 1381 
z
M 1991 3584 
L 1991 3584 
z
" transform="scale(0.015625)"/>
       <path id="DejaVuSans-6c" d="M 603 4863 
L 1178 4863 
L 1178 0 
L 603 0 
L 603 4863 
z
" transform="scale(0.015625)"/>
       <path id="DejaVuSans-70" d="M 1159 525 
L 1159 -1331 
L 581 -1331 
L 581 3500 
L 1159 3500 
L 1159 2969 
Q 1341 3281 1617 3432 
Q 1894 3584 2278 3584 
Q 2916 3584 3314 3078 
Q 3713 2572 3713 1747 
Q 3713 922 3314 415 
Q 2916 -91 2278 -91 
Q 1894 -91 1617 61 
Q 1341 213 1159 525 
z
M 3116 1747 
Q 3116 2381 2855 2742 
Q 2594 3103 2138 3103 
Q 1681 3103 1420 2742 
Q 1159 2381 1159 1747 
Q 1159 1113 1420 752 
Q 1681 391 2138 391 
Q 2594 391 2855 752 
Q 3116 1113 3116 1747 
z
" transform="scale(0.015625)"/>
       <path id="DejaVuSans-64" d="M 2906 2969 
L 2906 4863 
L 3481 4863 
L 3481 0 
L 2906 0 
L 2906 525 
Q 2725 213 2448 61 
Q 2172 -91 1784 -91 
Q 1150 -91 751 415 
Q 353 922 353 1747 
Q 353 2572 751 3078 
Q 1150 3584 1784 3584 
Q 2172 3584 2448 3432 
Q 2725 3281 2906 2969 
z
M 947 1747 
Q 947 1113 1208 752 
Q 1469 391 1925 391 
Q 2381 391 2643 752 
Q 2906 1113 2906 1747 
Q 2906 2381 2643 2742 
Q 2381 3103 1925 3103 
Q 1469 3103 1208 2742 
Q 947 2381 947 1747 
z
" transform="scale(0.015625)"/>
      </defs>
      <use xlink:href="#DejaVuSans-50"/>
      <use xlink:href="#DejaVuSans-6f" x="56.677734"/>
      <use xlink:href="#DejaVuSans-73" x="117.859375"/>
      <use xlink:href="#DejaVuSans-69" x="169.958984"/>
      <use xlink:href="#DejaVuSans-74" x="197.742188"/>
      <use xlink:href="#DejaVuSans-69" x="236.951172"/>
      <use xlink:href="#DejaVuSans-76" x="264.734375"/>
      <use xlink:href="#DejaVuSans-65" x="323.914062"/>
      <use xlink:href="#DejaVuSans-20" x="385.4375"/>
      <use xlink:href="#DejaVuSans-63" x="417.224609"/>
      <use xlink:href="#DejaVuSans-75" x="472.205078"/>
      <use xlink:href="#DejaVuSans-6d" x="535.583984"/>
      <use xlink:href="#DejaVuSans-75" x="632.996094"/>
      <use xlink:href="#DejaVuSans-6c" x="696.375"/>
      <use xlink:href="#DejaVuSans-61" x="724.158203"/>
      <use xlink:href="#DejaVuSans-74" x="785.4375"/>
      <use xlink:href="#DejaVuSans-69" x="824.646484"/>
      <use xlink:href="#DejaVuSans-76" x="852.429688"/>
      <use xlink:href="#DejaVuSans-65" x="911.609375"/>
      <use xlink:href="#DejaVuSans-20" x="973.132812"/>
      <use xlink:href="#DejaVuSans-70" x="1004.919922"/>
      <use xlink:href="#DejaVuSans-72" x="1068.396484"/>
      <use xlink:href="#DejaVuSans-65" x="1107.259766"/>
      <use xlink:href="#DejaVuSans-64" x="1168.783203"/>
      <use xlink:href="#DejaVuSans-69" x="1232.259766"/>
      <use xlink:href="#DejaVuSans-63" x="1260.042969"/>
      <use xlink:href="#DejaVuSans-74" x="1315.023438"/>
      <use xlink:href="#DejaVuSans-69" x="1354.232422"/>
      <use xlink:href="#DejaVuSans-6f" x="1382.015625"/>
      <use xlink:href="#DejaVuSans-6e" x="1443.197266"/>
      <use xlink:href="#DejaVuSans-73" x="1506.576172"/>
     </g>
    </g>
    <g id="line2d_18">
     <path d="M 66.6 278.326188 
L 76.6 278.326188 
L 86.6 278.326188 
" style="fill: none; stroke: #ff7f0e; stroke-opacity: 0.7; stroke-width: 1.5; stroke-linecap: square"/>
    </g>
    <g id="text_16">
     <!-- Negative cumulative predictions -->
     <g transform="translate(94.6 281.826188) scale(0.1 -0.1)">
      <defs>
       <path id="DejaVuSans-4e" d="M 628 4666 
L 1478 4666 
L 3547 763 
L 3547 4666 
L 4159 4666 
L 4159 0 
L 3309 0 
L 1241 3903 
L 1241 0 
L 628 0 
L 628 4666 
z
" transform="scale(0.015625)"/>
       <path id="DejaVuSans-67" d="M 2906 1791 
Q 2906 2416 2648 2759 
Q 2391 3103 1925 3103 
Q 1463 3103 1205 2759 
Q 947 2416 947 1791 
Q 947 1169 1205 825 
Q 1463 481 1925 481 
Q 2391 481 2648 825 
Q 2906 1169 2906 1791 
z
M 3481 434 
Q 3481 -459 3084 -895 
Q 2688 -1331 1869 -1331 
Q 1566 -1331 1297 -1286 
Q 1028 -1241 775 -1147 
L 775 -588 
Q 1028 -725 1275 -790 
Q 1522 -856 1778 -856 
Q 2344 -856 2625 -561 
Q 2906 -266 2906 331 
L 2906 616 
Q 2728 306 2450 153 
Q 2172 0 1784 0 
Q 1141 0 747 490 
Q 353 981 353 1791 
Q 353 2603 747 3093 
Q 1141 3584 1784 3584 
Q 2172 3584 2450 3431 
Q 2728 3278 2906 2969 
L 2906 3500 
L 3481 3500 
L 3481 434 
z
" transform="scale(0.015625)"/>
      </defs>
      <use xlink:href="#DejaVuSans-4e"/>
      <use xlink:href="#DejaVuSans-65" x="74.804688"/>
      <use xlink:href="#DejaVuSans-67" x="136.328125"/>
      <use xlink:href="#DejaVuSans-61" x="199.804688"/>
      <use xlink:href="#DejaVuSans-74" x="261.083984"/>
      <use xlink:href="#DejaVuSans-69" x="300.292969"/>
      <use xlink:href="#DejaVuSans-76" x="328.076172"/>
      <use xlink:href="#DejaVuSans-65" x="387.255859"/>
      <use xlink:href="#DejaVuSans-20" x="448.779297"/>
      <use xlink:href="#DejaVuSans-63" x="480.566406"/>
      <use xlink:href="#DejaVuSans-75" x="535.546875"/>
      <use xlink:href="#DejaVuSans-6d" x="598.925781"/>
      <use xlink:href="#DejaVuSans-75" x="696.337891"/>
      <use xlink:href="#DejaVuSans-6c" x="759.716797"/>
      <use xlink:href="#DejaVuSans-61" x="787.5"/>
      <use xlink:href="#DejaVuSans-74" x="848.779297"/>
      <use xlink:href="#DejaVuSans-69" x="887.988281"/>
      <use xlink:href="#DejaVuSans-76" x="915.771484"/>
      <use xlink:href="#DejaVuSans-65" x="974.951172"/>
      <use xlink:href="#DejaVuSans-20" x="1036.474609"/>
      <use xlink:href="#DejaVuSans-70" x="1068.261719"/>
      <use xlink:href="#DejaVuSans-72" x="1131.738281"/>
      <use xlink:href="#DejaVuSans-65" x="1170.601562"/>
      <use xlink:href="#DejaVuSans-64" x="1232.125"/>
      <use xlink:href="#DejaVuSans-69" x="1295.601562"/>
      <use xlink:href="#DejaVuSans-63" x="1323.384766"/>
      <use xlink:href="#DejaVuSans-74" x="1378.365234"/>
      <use xlink:href="#DejaVuSans-69" x="1417.574219"/>
      <use xlink:href="#DejaVuSans-6f" x="1445.357422"/>
      <use xlink:href="#DejaVuSans-6e" x="1506.539062"/>
      <use xlink:href="#DejaVuSans-73" x="1569.917969"/>
     </g>
    </g>
    <g id="line2d_19">
     <path d="M 66.6 293.004312 
L 76.6 293.004312 
L 86.6 293.004312 
" style="fill: none; stroke: #2ca02c; stroke-opacity: 0.7; stroke-width: 1.5; stroke-linecap: square"/>
    </g>
    <g id="text_17">
     <!-- Average cumulative predictions -->
     <g transform="translate(94.6 296.504312) scale(0.1 -0.1)">
      <defs>
       <path id="DejaVuSans-41" d="M 2188 4044 
L 1331 1722 
L 3047 1722 
L 2188 4044 
z
M 1831 4666 
L 2547 4666 
L 4325 0 
L 3669 0 
L 3244 1197 
L 1141 1197 
L 716 0 
L 50 0 
L 1831 4666 
z
" transform="scale(0.015625)"/>
      </defs>
      <use xlink:href="#DejaVuSans-41"/>
      <use xlink:href="#DejaVuSans-76" x="62.533203"/>
      <use xlink:href="#DejaVuSans-65" x="121.712891"/>
      <use xlink:href="#DejaVuSans-72" x="183.236328"/>
      <use xlink:href="#DejaVuSans-61" x="224.349609"/>
      <use xlink:href="#DejaVuSans-67" x="285.628906"/>
      <use xlink:href="#DejaVuSans-65" x="349.105469"/>
      <use xlink:href="#DejaVuSans-20" x="410.628906"/>
      <use xlink:href="#DejaVuSans-63" x="442.416016"/>
      <use xlink:href="#DejaVuSans-75" x="497.396484"/>
      <use xlink:href="#DejaVuSans-6d" x="560.775391"/>
      <use xlink:href="#DejaVuSans-75" x="658.1875"/>
      <use xlink:href="#DejaVuSans-6c" x="721.566406"/>
      <use xlink:href="#DejaVuSans-61" x="749.349609"/>
      <use xlink:href="#DejaVuSans-74" x="810.628906"/>
      <use xlink:href="#DejaVuSans-69" x="849.837891"/>
      <use xlink:href="#DejaVuSans-76" x="877.621094"/>
      <use xlink:href="#DejaVuSans-65" x="936.800781"/>
      <use xlink:href="#DejaVuSans-20" x="998.324219"/>
      <use xlink:href="#DejaVuSans-70" x="1030.111328"/>
      <use xlink:href="#DejaVuSans-72" x="1093.587891"/>
      <use xlink:href="#DejaVuSans-65" x="1132.451172"/>
      <use xlink:href="#DejaVuSans-64" x="1193.974609"/>
      <use xlink:href="#DejaVuSans-69" x="1257.451172"/>
      <use xlink:href="#DejaVuSans-63" x="1285.234375"/>
      <use xlink:href="#DejaVuSans-74" x="1340.214844"/>
      <use xlink:href="#DejaVuSans-69" x="1379.423828"/>
      <use xlink:href="#DejaVuSans-6f" x="1407.207031"/>
      <use xlink:href="#DejaVuSans-6e" x="1468.388672"/>
      <use xlink:href="#DejaVuSans-73" x="1531.767578"/>
     </g>
    </g>
   </g>
  </g>
 </g>
 <defs>
  <clipPath id="pc1aa53a9df">
   <rect x="57.6" y="41.472" width="357.12" height="266.112"/>
  </clipPath>
 </defs>
</svg>
