<?xml version="1.0" encoding="utf-8" standalone="no"?>
<!DOCTYPE svg PUBLIC "-//W3C//DTD SVG 1.1//EN"
  "http://www.w3.org/Graphics/SVG/1.1/DTD/svg11.dtd">
<svg xmlns:xlink="http://www.w3.org/1999/xlink" width="460.8pt" height="345.6pt" viewBox="0 0 460.8 345.6" xmlns="http://www.w3.org/2000/svg" version="1.1">
 <metadata>
  <rdf:RDF xmlns:dc="http://purl.org/dc/elements/1.1/" xmlns:cc="http://creativecommons.org/ns#" xmlns:rdf="http://www.w3.org/1999/02/22-rdf-syntax-ns#">
   <cc:Work>
    <dc:type rdf:resource="http://purl.org/dc/dcmitype/StillImage"/>
    <dc:date>2024-05-30T16:29:00.686989</dc:date>
    <dc:format>image/svg+xml</dc:format>
    <dc:creator>
     <cc:Agent>
      <dc:title>Matplotlib v3.9.0, https://matplotlib.org/</dc:title>
     </cc:Agent>
    </dc:creator>
   </cc:Work>
  </rdf:RDF>
 </metadata>
 <defs>
  <style type="text/css">*{stroke-linejoin: round; stroke-linecap: butt}</style>
 </defs>
 <g id="figure_1">
  <g id="patch_1">
   <path d="M 0 345.6 
L 460.8 345.6 
L 460.8 0 
L 0 0 
z
" style="fill: #ffffff"/>
  </g>
  <g id="axes_1">
   <g id="patch_2">
    <path d="M 57.6 307.584 
L 414.72 307.584 
L 414.72 41.472 
L 57.6 41.472 
z
" style="fill: #ffffff"/>
   </g>
   <g id="matplotlib.axis_1">
    <g id="xtick_1">
     <g id="line2d_1">
      <defs>
       <path id="m54e4d75d9f" d="M 0 0 
L 0 3.5 
" style="stroke: #000000; stroke-width: 0.8"/>
      </defs>
      <g>
       <use xlink:href="#m54e4d75d9f" x="73.832727" y="307.584" style="stroke: #000000; stroke-width: 0.8"/>
      </g>
     </g>
     <g id="text_1">
      <!-- 0 -->
      <g transform="translate(70.651477 322.182437) scale(0.1 -0.1)">
       <defs>
        <path id="DejaVuSans-30" d="M 2034 4250 
Q 1547 4250 1301 3770 
Q 1056 3291 1056 2328 
Q 1056 1369 1301 889 
Q 1547 409 2034 409 
Q 2525 409 2770 889 
Q 3016 1369 3016 2328 
Q 3016 3291 2770 3770 
Q 2525 4250 2034 4250 
z
M 2034 4750 
Q 2819 4750 3233 4129 
Q 3647 3509 3647 2328 
Q 3647 1150 3233 529 
Q 2819 -91 2034 -91 
Q 1250 -91 836 529 
Q 422 1150 422 2328 
Q 422 3509 836 4129 
Q 1250 4750 2034 4750 
z
" transform="scale(0.015625)"/>
       </defs>
       <use xlink:href="#DejaVuSans-30"/>
      </g>
     </g>
    </g>
    <g id="xtick_2">
     <g id="line2d_2">
      <g>
       <use xlink:href="#m54e4d75d9f" x="117.76433" y="307.584" style="stroke: #000000; stroke-width: 0.8"/>
      </g>
     </g>
     <g id="text_2">
      <!-- 200 -->
      <g transform="translate(108.22058 322.182437) scale(0.1 -0.1)">
       <defs>
        <path id="DejaVuSans-32" d="M 1228 531 
L 3431 531 
L 3431 0 
L 469 0 
L 469 531 
Q 828 903 1448 1529 
Q 2069 2156 2228 2338 
Q 2531 2678 2651 2914 
Q 2772 3150 2772 3378 
Q 2772 3750 2511 3984 
Q 2250 4219 1831 4219 
Q 1534 4219 1204 4116 
Q 875 4013 500 3803 
L 500 4441 
Q 881 4594 1212 4672 
Q 1544 4750 1819 4750 
Q 2544 4750 2975 4387 
Q 3406 4025 3406 3419 
Q 3406 3131 3298 2873 
Q 3191 2616 2906 2266 
Q 2828 2175 2409 1742 
Q 1991 1309 1228 531 
z
" transform="scale(0.015625)"/>
       </defs>
       <use xlink:href="#DejaVuSans-32"/>
       <use xlink:href="#DejaVuSans-30" x="63.623047"/>
       <use xlink:href="#DejaVuSans-30" x="127.246094"/>
      </g>
     </g>
    </g>
    <g id="xtick_3">
     <g id="line2d_3">
      <g>
       <use xlink:href="#m54e4d75d9f" x="161.695933" y="307.584" style="stroke: #000000; stroke-width: 0.8"/>
      </g>
     </g>
     <g id="text_3">
      <!-- 400 -->
      <g transform="translate(152.152183 322.182437) scale(0.1 -0.1)">
       <defs>
        <path id="DejaVuSans-34" d="M 2419 4116 
L 825 1625 
L 2419 1625 
L 2419 4116 
z
M 2253 4666 
L 3047 4666 
L 3047 1625 
L 3713 1625 
L 3713 1100 
L 3047 1100 
L 3047 0 
L 2419 0 
L 2419 1100 
L 313 1100 
L 313 1709 
L 2253 4666 
z
" transform="scale(0.015625)"/>
       </defs>
       <use xlink:href="#DejaVuSans-34"/>
       <use xlink:href="#DejaVuSans-30" x="63.623047"/>
       <use xlink:href="#DejaVuSans-30" x="127.246094"/>
      </g>
     </g>
    </g>
    <g id="xtick_4">
     <g id="line2d_4">
      <g>
       <use xlink:href="#m54e4d75d9f" x="205.627536" y="307.584" style="stroke: #000000; stroke-width: 0.8"/>
      </g>
     </g>
     <g id="text_4">
      <!-- 600 -->
      <g transform="translate(196.083786 322.182437) scale(0.1 -0.1)">
       <defs>
        <path id="DejaVuSans-36" d="M 2113 2584 
Q 1688 2584 1439 2293 
Q 1191 2003 1191 1497 
Q 1191 994 1439 701 
Q 1688 409 2113 409 
Q 2538 409 2786 701 
Q 3034 994 3034 1497 
Q 3034 2003 2786 2293 
Q 2538 2584 2113 2584 
z
M 3366 4563 
L 3366 3988 
Q 3128 4100 2886 4159 
Q 2644 4219 2406 4219 
Q 1781 4219 1451 3797 
Q 1122 3375 1075 2522 
Q 1259 2794 1537 2939 
Q 1816 3084 2150 3084 
Q 2853 3084 3261 2657 
Q 3669 2231 3669 1497 
Q 3669 778 3244 343 
Q 2819 -91 2113 -91 
Q 1303 -91 875 529 
Q 447 1150 447 2328 
Q 447 3434 972 4092 
Q 1497 4750 2381 4750 
Q 2619 4750 2861 4703 
Q 3103 4656 3366 4563 
z
" transform="scale(0.015625)"/>
       </defs>
       <use xlink:href="#DejaVuSans-36"/>
       <use xlink:href="#DejaVuSans-30" x="63.623047"/>
       <use xlink:href="#DejaVuSans-30" x="127.246094"/>
      </g>
     </g>
    </g>
    <g id="xtick_5">
     <g id="line2d_5">
      <g>
       <use xlink:href="#m54e4d75d9f" x="249.559139" y="307.584" style="stroke: #000000; stroke-width: 0.8"/>
      </g>
     </g>
     <g id="text_5">
      <!-- 800 -->
      <g transform="translate(240.015389 322.182437) scale(0.1 -0.1)">
       <defs>
        <path id="DejaVuSans-38" d="M 2034 2216 
Q 1584 2216 1326 1975 
Q 1069 1734 1069 1313 
Q 1069 891 1326 650 
Q 1584 409 2034 409 
Q 2484 409 2743 651 
Q 3003 894 3003 1313 
Q 3003 1734 2745 1975 
Q 2488 2216 2034 2216 
z
M 1403 2484 
Q 997 2584 770 2862 
Q 544 3141 544 3541 
Q 544 4100 942 4425 
Q 1341 4750 2034 4750 
Q 2731 4750 3128 4425 
Q 3525 4100 3525 3541 
Q 3525 3141 3298 2862 
Q 3072 2584 2669 2484 
Q 3125 2378 3379 2068 
Q 3634 1759 3634 1313 
Q 3634 634 3220 271 
Q 2806 -91 2034 -91 
Q 1263 -91 848 271 
Q 434 634 434 1313 
Q 434 1759 690 2068 
Q 947 2378 1403 2484 
z
M 1172 3481 
Q 1172 3119 1398 2916 
Q 1625 2713 2034 2713 
Q 2441 2713 2670 2916 
Q 2900 3119 2900 3481 
Q 2900 3844 2670 4047 
Q 2441 4250 2034 4250 
Q 1625 4250 1398 4047 
Q 1172 3844 1172 3481 
z
" transform="scale(0.015625)"/>
       </defs>
       <use xlink:href="#DejaVuSans-38"/>
       <use xlink:href="#DejaVuSans-30" x="63.623047"/>
       <use xlink:href="#DejaVuSans-30" x="127.246094"/>
      </g>
     </g>
    </g>
    <g id="xtick_6">
     <g id="line2d_6">
      <g>
       <use xlink:href="#m54e4d75d9f" x="293.490742" y="307.584" style="stroke: #000000; stroke-width: 0.8"/>
      </g>
     </g>
     <g id="text_6">
      <!-- 1000 -->
      <g transform="translate(280.765742 322.182437) scale(0.1 -0.1)">
       <defs>
        <path id="DejaVuSans-31" d="M 794 531 
L 1825 531 
L 1825 4091 
L 703 3866 
L 703 4441 
L 1819 4666 
L 2450 4666 
L 2450 531 
L 3481 531 
L 3481 0 
L 794 0 
L 794 531 
z
" transform="scale(0.015625)"/>
       </defs>
       <use xlink:href="#DejaVuSans-31"/>
       <use xlink:href="#DejaVuSans-30" x="63.623047"/>
       <use xlink:href="#DejaVuSans-30" x="127.246094"/>
       <use xlink:href="#DejaVuSans-30" x="190.869141"/>
      </g>
     </g>
    </g>
    <g id="xtick_7">
     <g id="line2d_7">
      <g>
       <use xlink:href="#m54e4d75d9f" x="337.422345" y="307.584" style="stroke: #000000; stroke-width: 0.8"/>
      </g>
     </g>
     <g id="text_7">
      <!-- 1200 -->
      <g transform="translate(324.697345 322.182437) scale(0.1 -0.1)">
       <use xlink:href="#DejaVuSans-31"/>
       <use xlink:href="#DejaVuSans-32" x="63.623047"/>
       <use xlink:href="#DejaVuSans-30" x="127.246094"/>
       <use xlink:href="#DejaVuSans-30" x="190.869141"/>
      </g>
     </g>
    </g>
    <g id="xtick_8">
     <g id="line2d_8">
      <g>
       <use xlink:href="#m54e4d75d9f" x="381.353948" y="307.584" style="stroke: #000000; stroke-width: 0.8"/>
      </g>
     </g>
     <g id="text_8">
      <!-- 1400 -->
      <g transform="translate(368.628948 322.182437) scale(0.1 -0.1)">
       <use xlink:href="#DejaVuSans-31"/>
       <use xlink:href="#DejaVuSans-34" x="63.623047"/>
       <use xlink:href="#DejaVuSans-30" x="127.246094"/>
       <use xlink:href="#DejaVuSans-30" x="190.869141"/>
      </g>
     </g>
    </g>
   </g>
   <g id="matplotlib.axis_2">
    <g id="ytick_1">
     <g id="line2d_9">
      <defs>
       <path id="m621970ae7e" d="M 0 0 
L -3.5 0 
" style="stroke: #000000; stroke-width: 0.8"/>
      </defs>
      <g>
       <use xlink:href="#m621970ae7e" x="57.6" y="282.455992" style="stroke: #000000; stroke-width: 0.8"/>
      </g>
     </g>
     <g id="text_9">
      <!-- −70000 -->
      <g transform="translate(10.407812 286.255211) scale(0.1 -0.1)">
       <defs>
        <path id="DejaVuSans-2212" d="M 678 2272 
L 4684 2272 
L 4684 1741 
L 678 1741 
L 678 2272 
z
" transform="scale(0.015625)"/>
        <path id="DejaVuSans-37" d="M 525 4666 
L 3525 4666 
L 3525 4397 
L 1831 0 
L 1172 0 
L 2766 4134 
L 525 4134 
L 525 4666 
z
" transform="scale(0.015625)"/>
       </defs>
       <use xlink:href="#DejaVuSans-2212"/>
       <use xlink:href="#DejaVuSans-37" x="83.789062"/>
       <use xlink:href="#DejaVuSans-30" x="147.412109"/>
       <use xlink:href="#DejaVuSans-30" x="211.035156"/>
       <use xlink:href="#DejaVuSans-30" x="274.658203"/>
       <use xlink:href="#DejaVuSans-30" x="338.28125"/>
      </g>
     </g>
    </g>
    <g id="ytick_2">
     <g id="line2d_10">
      <g>
       <use xlink:href="#m621970ae7e" x="57.6" y="251.789323" style="stroke: #000000; stroke-width: 0.8"/>
      </g>
     </g>
     <g id="text_10">
      <!-- −60000 -->
      <g transform="translate(10.407812 255.588542) scale(0.1 -0.1)">
       <use xlink:href="#DejaVuSans-2212"/>
       <use xlink:href="#DejaVuSans-36" x="83.789062"/>
       <use xlink:href="#DejaVuSans-30" x="147.412109"/>
       <use xlink:href="#DejaVuSans-30" x="211.035156"/>
       <use xlink:href="#DejaVuSans-30" x="274.658203"/>
       <use xlink:href="#DejaVuSans-30" x="338.28125"/>
      </g>
     </g>
    </g>
    <g id="ytick_3">
     <g id="line2d_11">
      <g>
       <use xlink:href="#m621970ae7e" x="57.6" y="221.122654" style="stroke: #000000; stroke-width: 0.8"/>
      </g>
     </g>
     <g id="text_11">
      <!-- −50000 -->
      <g transform="translate(10.407812 224.921873) scale(0.1 -0.1)">
       <defs>
        <path id="DejaVuSans-35" d="M 691 4666 
L 3169 4666 
L 3169 4134 
L 1269 4134 
L 1269 2991 
Q 1406 3038 1543 3061 
Q 1681 3084 1819 3084 
Q 2600 3084 3056 2656 
Q 3513 2228 3513 1497 
Q 3513 744 3044 326 
Q 2575 -91 1722 -91 
Q 1428 -91 1123 -41 
Q 819 9 494 109 
L 494 744 
Q 775 591 1075 516 
Q 1375 441 1709 441 
Q 2250 441 2565 725 
Q 2881 1009 2881 1497 
Q 2881 1984 2565 2268 
Q 2250 2553 1709 2553 
Q 1456 2553 1204 2497 
Q 953 2441 691 2322 
L 691 4666 
z
" transform="scale(0.015625)"/>
       </defs>
       <use xlink:href="#DejaVuSans-2212"/>
       <use xlink:href="#DejaVuSans-35" x="83.789062"/>
       <use xlink:href="#DejaVuSans-30" x="147.412109"/>
       <use xlink:href="#DejaVuSans-30" x="211.035156"/>
       <use xlink:href="#DejaVuSans-30" x="274.658203"/>
       <use xlink:href="#DejaVuSans-30" x="338.28125"/>
      </g>
     </g>
    </g>
    <g id="ytick_4">
     <g id="line2d_12">
      <g>
       <use xlink:href="#m621970ae7e" x="57.6" y="190.455985" style="stroke: #000000; stroke-width: 0.8"/>
      </g>
     </g>
     <g id="text_12">
      <!-- −40000 -->
      <g transform="translate(10.407812 194.255204) scale(0.1 -0.1)">
       <use xlink:href="#DejaVuSans-2212"/>
       <use xlink:href="#DejaVuSans-34" x="83.789062"/>
       <use xlink:href="#DejaVuSans-30" x="147.412109"/>
       <use xlink:href="#DejaVuSans-30" x="211.035156"/>
       <use xlink:href="#DejaVuSans-30" x="274.658203"/>
       <use xlink:href="#DejaVuSans-30" x="338.28125"/>
      </g>
     </g>
    </g>
    <g id="ytick_5">
     <g id="line2d_13">
      <g>
       <use xlink:href="#m621970ae7e" x="57.6" y="159.789316" style="stroke: #000000; stroke-width: 0.8"/>
      </g>
     </g>
     <g id="text_13">
      <!-- −30000 -->
      <g transform="translate(10.407812 163.588534) scale(0.1 -0.1)">
       <defs>
        <path id="DejaVuSans-33" d="M 2597 2516 
Q 3050 2419 3304 2112 
Q 3559 1806 3559 1356 
Q 3559 666 3084 287 
Q 2609 -91 1734 -91 
Q 1441 -91 1130 -33 
Q 819 25 488 141 
L 488 750 
Q 750 597 1062 519 
Q 1375 441 1716 441 
Q 2309 441 2620 675 
Q 2931 909 2931 1356 
Q 2931 1769 2642 2001 
Q 2353 2234 1838 2234 
L 1294 2234 
L 1294 2753 
L 1863 2753 
Q 2328 2753 2575 2939 
Q 2822 3125 2822 3475 
Q 2822 3834 2567 4026 
Q 2313 4219 1838 4219 
Q 1578 4219 1281 4162 
Q 984 4106 628 3988 
L 628 4550 
Q 988 4650 1302 4700 
Q 1616 4750 1894 4750 
Q 2613 4750 3031 4423 
Q 3450 4097 3450 3541 
Q 3450 3153 3228 2886 
Q 3006 2619 2597 2516 
z
" transform="scale(0.015625)"/>
       </defs>
       <use xlink:href="#DejaVuSans-2212"/>
       <use xlink:href="#DejaVuSans-33" x="83.789062"/>
       <use xlink:href="#DejaVuSans-30" x="147.412109"/>
       <use xlink:href="#DejaVuSans-30" x="211.035156"/>
       <use xlink:href="#DejaVuSans-30" x="274.658203"/>
       <use xlink:href="#DejaVuSans-30" x="338.28125"/>
      </g>
     </g>
    </g>
    <g id="ytick_6">
     <g id="line2d_14">
      <g>
       <use xlink:href="#m621970ae7e" x="57.6" y="129.122647" style="stroke: #000000; stroke-width: 0.8"/>
      </g>
     </g>
     <g id="text_14">
      <!-- −20000 -->
      <g transform="translate(10.407812 132.921865) scale(0.1 -0.1)">
       <use xlink:href="#DejaVuSans-2212"/>
       <use xlink:href="#DejaVuSans-32" x="83.789062"/>
       <use xlink:href="#DejaVuSans-30" x="147.412109"/>
       <use xlink:href="#DejaVuSans-30" x="211.035156"/>
       <use xlink:href="#DejaVuSans-30" x="274.658203"/>
       <use xlink:href="#DejaVuSans-30" x="338.28125"/>
      </g>
     </g>
    </g>
    <g id="ytick_7">
     <g id="line2d_15">
      <g>
       <use xlink:href="#m621970ae7e" x="57.6" y="98.455977" style="stroke: #000000; stroke-width: 0.8"/>
      </g>
     </g>
     <g id="text_15">
      <!-- −10000 -->
      <g transform="translate(10.407812 102.255196) scale(0.1 -0.1)">
       <use xlink:href="#DejaVuSans-2212"/>
       <use xlink:href="#DejaVuSans-31" x="83.789062"/>
       <use xlink:href="#DejaVuSans-30" x="147.412109"/>
       <use xlink:href="#DejaVuSans-30" x="211.035156"/>
       <use xlink:href="#DejaVuSans-30" x="274.658203"/>
       <use xlink:href="#DejaVuSans-30" x="338.28125"/>
      </g>
     </g>
    </g>
    <g id="ytick_8">
     <g id="line2d_16">
      <g>
       <use xlink:href="#m621970ae7e" x="57.6" y="67.789308" style="stroke: #000000; stroke-width: 0.8"/>
      </g>
     </g>
     <g id="text_16">
      <!-- 0 -->
      <g transform="translate(44.2375 71.588527) scale(0.1 -0.1)">
       <use xlink:href="#DejaVuSans-30"/>
      </g>
     </g>
    </g>
   </g>
   <g id="line2d_17">
    <path d="M 73.832727 67.825295 
L 74.272043 67.974004 
L 74.931017 67.766488 
L 75.589991 67.961687 
L 76.468623 67.40662 
L 77.347256 67.395485 
L 77.786572 67.462868 
L 79.10452 66.946599 
L 79.543836 66.317449 
L 79.763494 66.343378 
L 80.20281 65.948841 
L 80.422468 65.946953 
L 80.642126 65.809366 
L 81.081442 65.83143 
L 81.3011 65.955201 
L 81.740416 65.590917 
L 82.179732 65.583168 
L 83.058364 65.694352 
L 83.278022 65.633408 
L 84.156654 65.002422 
L 85.913918 64.786277 
L 86.133576 64.827738 
L 86.353234 64.748827 
L 87.231866 64.820716 
L 87.451524 64.822922 
L 87.89084 64.673447 
L 89.867762 64.385685 
L 90.746394 64.464269 
L 90.966052 64.457313 
L 91.405368 64.694102 
L 91.844684 64.613866 
L 92.723317 64.520715 
L 93.382291 64.419474 
L 94.041265 64.077336 
L 95.139555 64.038723 
L 95.798529 64.360994 
L 96.018187 64.316764 
L 96.457503 64.494288 
L 97.995109 64.723683 
L 98.434425 64.93598 
L 99.532715 64.699901 
L 99.972031 64.757562 
L 100.631005 64.926717 
L 101.509637 64.704956 
L 102.827585 64.849573 
L 103.486559 65.051866 
L 103.925875 65.392975 
L 104.804507 65.221311 
L 105.243823 65.138871 
L 106.561771 65.231222 
L 107.001087 65.318034 
L 107.440403 65.399589 
L 109.856642 65.028898 
L 110.735274 63.717656 
L 111.17459 63.669923 
L 112.053222 63.166698 
L 112.27288 62.808532 
L 112.712196 62.494766 
L 112.931854 62.309539 
L 113.37117 62.39191 
L 113.590828 62.540245 
L 114.46946 62.469352 
L 114.689118 62.535592 
L 115.787408 61.828441 
L 116.007066 61.859353 
L 117.105356 60.841329 
L 117.325014 60.78619 
L 117.544672 60.911106 
L 117.983988 60.950267 
L 118.203646 61.179037 
L 119.521594 59.643403 
L 119.741252 59.453505 
L 120.619884 58.20512 
L 120.839542 58.023757 
L 121.278858 57.216687 
L 121.718174 57.491082 
L 122.15749 57.132175 
L 122.377148 57.053632 
L 122.596806 56.729998 
L 122.816465 56.802162 
L 123.255781 56.798794 
L 123.914755 57.063065 
L 124.134413 56.868347 
L 124.354071 56.943235 
L 124.793387 56.7645 
L 125.232703 57.002033 
L 125.452361 57.098381 
L 126.330993 56.998265 
L 126.770309 57.194568 
L 127.209625 57.100016 
L 127.648941 56.984827 
L 127.868599 56.777784 
L 128.307915 56.713706 
L 128.747231 56.895781 
L 128.966889 56.782268 
L 129.406205 57.052434 
L 129.625863 56.880746 
L 130.065179 56.930634 
L 130.284837 57.092256 
L 130.724153 56.87105 
L 132.042101 56.639711 
L 132.261759 56.528851 
L 133.799365 56.833234 
L 135.556629 56.420195 
L 137.313893 57.137577 
L 137.972868 57.213784 
L 139.510474 57.308851 
L 141.04808 57.464096 
L 141.707054 57.091564 
L 141.926712 57.029633 
L 142.366028 56.677365 
L 143.464318 56.187001 
L 143.903634 56.052834 
L 145.221582 55.379593 
L 145.880556 55.486358 
L 146.53953 55.857436 
L 146.978846 55.923876 
L 147.418162 55.848084 
L 147.857478 55.906923 
L 148.516452 56.280094 
L 149.175426 56.094989 
L 149.614742 56.256194 
L 150.054058 56.527114 
L 150.493374 56.994055 
L 151.152348 57.020443 
L 151.372006 57.07861 
L 152.03098 57.674286 
L 152.250638 57.779031 
L 152.689954 57.690328 
L 153.568587 57.837696 
L 153.788245 58.116216 
L 154.227561 57.972297 
L 154.666877 57.652648 
L 154.886535 57.260498 
L 155.325851 56.933673 
L 155.765167 56.952802 
L 155.984825 56.812747 
L 156.204483 56.835156 
L 156.643799 56.474071 
L 156.863457 56.391445 
L 157.522431 56.624347 
L 157.742089 56.643445 
L 157.961747 56.272517 
L 158.401063 56.041254 
L 158.840379 56.075049 
L 159.060037 56.145575 
L 159.279695 55.990637 
L 159.938669 56.155046 
L 160.158327 56.151649 
L 160.597643 56.26507 
L 161.915591 56.478492 
L 163.672855 56.000408 
L 164.112171 55.621194 
L 164.551487 55.592925 
L 164.771145 55.432416 
L 165.430119 55.482591 
L 166.748067 55.75187 
L 167.407041 55.762503 
L 168.72499 56.233945 
L 168.944648 56.432174 
L 169.164306 56.464794 
L 169.383964 56.739164 
L 169.82328 56.802516 
L 170.042938 56.944182 
L 170.262596 57.262055 
L 170.92157 57.363233 
L 171.800202 58.754649 
L 172.239518 58.813202 
L 172.459176 58.887001 
L 172.898492 60.084752 
L 173.557466 59.863983 
L 173.996782 59.859896 
L 174.875414 59.909462 
L 175.31473 60.049991 
L 175.754046 61.491393 
L 176.193362 63.054207 
L 176.41302 63.10677 
L 177.071994 65.632639 
L 177.51131 65.575752 
L 177.950626 65.619964 
L 179.048916 65.683254 
L 179.488232 65.723504 
L 179.927548 65.819092 
L 180.366864 65.930781 
L 181.025838 65.82821 
L 181.465154 65.523817 
L 181.90447 65.400659 
L 182.124128 65.16748 
L 182.563444 65.192162 
L 183.442077 65.793834 
L 183.661735 67.051827 
L 183.881393 67.136395 
L 184.320709 69.318701 
L 185.199341 69.19193 
L 185.858315 67.839417 
L 186.297631 66.495021 
L 186.736947 66.208635 
L 186.956605 66.209347 
L 187.395921 65.654487 
L 187.615579 64.53624 
L 187.835237 64.329383 
L 188.054895 63.517344 
L 188.274553 62.095093 
L 188.494211 61.671438 
L 188.933527 59.871335 
L 189.372843 58.621652 
L 189.812159 57.649473 
L 190.031817 57.619757 
L 190.471133 57.890283 
L 190.910449 57.235999 
L 191.130107 57.413971 
L 191.789081 56.223125 
L 192.008739 56.701233 
L 192.228397 56.688139 
L 192.448055 56.884916 
L 192.667713 56.906291 
L 192.887371 56.520662 
L 193.107029 56.418433 
L 193.985661 56.453064 
L 194.205319 55.743338 
L 194.424977 55.802984 
L 194.644635 55.68297 
L 194.864293 55.697997 
L 195.083951 55.941912 
L 195.962583 54.913911 
L 196.401899 54.797454 
L 196.841215 54.863709 
L 197.060873 54.966198 
L 197.500189 54.0879 
L 197.719847 53.722069 
L 198.159163 53.568 
L 198.378822 53.770114 
L 199.477112 53.928553 
L 199.69677 54.129419 
L 199.916428 54.016995 
L 200.355744 54.185965 
L 201.014718 54.432434 
L 201.454034 55.583934 
L 201.673692 55.674554 
L 201.89335 56.134348 
L 202.332666 55.185528 
L 202.552324 55.034847 
L 202.771982 55.023731 
L 203.211298 54.694729 
L 203.430956 54.42326 
L 203.870272 54.412323 
L 204.529246 53.713598 
L 205.407878 53.690979 
L 205.627536 53.928027 
L 206.725826 53.876546 
L 207.165142 54.067091 
L 207.3848 53.967631 
L 207.604458 54.048154 
L 208.043774 53.82209 
L 208.263432 54.002185 
L 209.58138 53.734211 
L 210.240354 53.843097 
L 211.118986 54.98425 
L 211.338644 55.165033 
L 211.77796 55.95104 
L 212.656592 55.990646 
L 212.87625 56.030742 
L 213.535225 56.443384 
L 214.413857 59.244107 
L 214.853173 61.276387 
L 215.072831 61.002334 
L 215.292489 61.862911 
L 215.512147 61.335261 
L 215.731805 61.189328 
L 216.171121 60.412686 
L 217.049753 59.813079 
L 217.489069 59.387181 
L 217.708727 59.346997 
L 218.148043 59.014862 
L 218.367701 58.956375 
L 218.807017 59.121155 
L 219.026675 59.104472 
L 219.246333 59.236381 
L 219.465991 59.091021 
L 219.685649 59.133464 
L 219.905307 58.916159 
L 220.564281 59.188763 
L 221.223255 60.10594 
L 221.662571 59.977355 
L 222.101887 59.604939 
L 222.541203 59.500365 
L 222.760861 59.574619 
L 223.200177 59.133502 
L 223.419835 58.559913 
L 224.078809 58.050525 
L 224.518125 58.4142 
L 224.957441 59.173404 
L 225.177099 59.385962 
L 225.396757 59.786628 
L 226.055731 60.073637 
L 226.714705 60.583623 
L 226.934363 60.5628 
L 227.373679 60.399225 
L 227.812995 60.632311 
L 228.691628 60.809943 
L 229.350602 67.037272 
L 229.57026 67.057849 
L 229.789918 69.134852 
L 230.66855 68.972436 
L 231.107866 69.051765 
L 231.327524 69.126791 
L 232.206156 68.958033 
L 232.86513 69.098752 
L 233.084788 69.167353 
L 233.524104 69.038533 
L 233.743762 69.059002 
L 234.402736 69.401841 
L 234.622394 69.9739 
L 235.06171 69.915844 
L 235.281368 69.787749 
L 235.501026 69.790987 
L 235.940342 70.073923 
L 236.599316 70.065214 
L 236.818974 69.753273 
L 237.038632 69.641791 
L 237.25829 69.32206 
L 237.477948 69.291742 
L 238.35658 69.69363 
L 238.795896 73.524483 
L 239.45487 73.588867 
L 239.894186 73.618491 
L 240.992476 73.392426 
L 241.431792 72.898575 
L 241.65145 73.001401 
L 241.871108 72.954665 
L 242.310424 72.457325 
L 243.189056 72.669784 
L 244.287347 73.483477 
L 244.507005 75.915962 
L 245.605295 75.452556 
L 246.044611 75.667276 
L 246.264269 75.62353 
L 246.703585 75.899587 
L 247.142901 76.377918 
L 247.582217 76.452285 
L 248.241191 76.72988 
L 248.460849 76.677962 
L 248.900165 76.838487 
L 249.119823 76.830616 
L 249.339481 76.709712 
L 249.559139 76.784294 
L 249.778797 76.664479 
L 250.218113 76.75884 
L 251.316403 76.796223 
L 251.755719 76.614026 
L 252.414693 76.759693 
L 252.634351 76.580553 
L 252.854009 76.184002 
L 253.293325 76.075299 
L 253.512983 76.005093 
L 253.952299 75.598673 
L 255.929221 76.028934 
L 256.148879 75.991429 
L 256.807853 76.148615 
L 257.247169 76.163442 
L 258.345459 76.195907 
L 258.565117 75.988065 
L 259.883066 76.324663 
L 260.322382 76.518338 
L 260.54204 78.828397 
L 260.761698 78.972729 
L 260.981356 82.669831 
L 261.201014 82.701081 
L 261.420672 82.586663 
L 261.859988 82.725138 
L 262.518962 82.652719 
L 262.73862 82.517388 
L 262.958278 82.205302 
L 263.397594 82.324002 
L 263.83691 82.479891 
L 264.276226 82.649945 
L 264.495884 86.724325 
L 264.9352 86.689477 
L 265.154858 86.612576 
L 266.03349 86.715196 
L 266.912122 86.827657 
L 267.13178 86.904239 
L 267.571096 95.104078 
L 268.010412 94.804111 
L 268.449728 94.871449 
L 269.108702 95.077083 
L 269.548018 95.217214 
L 269.767676 96.754429 
L 270.865966 96.706991 
L 271.52494 96.323392 
L 271.744598 96.175118 
L 272.183914 96.248244 
L 273.062546 95.479466 
L 273.72152 95.570384 
L 274.819811 94.490699 
L 275.478785 94.516911 
L 275.698443 94.584752 
L 276.357417 94.384216 
L 277.016391 95.077271 
L 277.895023 96.076357 
L 278.334339 96.25498 
L 278.553997 96.196852 
L 278.773655 96.298619 
L 278.993313 96.538694 
L 279.212971 96.577856 
L 279.652287 97.249859 
L 280.530919 113.42581 
L 280.970235 113.231153 
L 282.288183 113.414952 
L 282.727499 113.352922 
L 282.947157 113.364697 
L 283.166815 113.037484 
L 283.386473 113.059656 
L 283.825789 112.386978 
L 284.045447 112.365343 
L 284.265105 112.177172 
L 284.484763 112.181475 
L 284.924079 112.636788 
L 285.143737 112.579964 
L 285.363395 112.860266 
L 285.802711 112.588474 
L 286.022369 112.701313 
L 286.242027 112.614597 
L 286.681343 112.096133 
L 287.120659 112.261743 
L 287.340317 112.435684 
L 287.779633 113.105413 
L 288.218949 113.084913 
L 288.658265 113.076403 
L 288.877923 113.072508 
L 289.536898 112.34653 
L 289.756556 112.147212 
L 290.195872 112.097318 
L 291.074504 111.002805 
L 291.733478 109.745617 
L 291.953136 109.193494 
L 292.172794 109.091191 
L 292.392452 108.637957 
L 292.61211 108.531708 
L 293.051426 108.696047 
L 293.271084 108.989813 
L 293.490742 108.949425 
L 293.930058 108.436736 
L 294.149716 108.390476 
L 294.369374 108.567505 
L 294.589032 108.506847 
L 295.028348 107.73083 
L 295.467664 107.518855 
L 296.346296 105.95037 
L 296.565954 105.773478 
L 297.00527 105.738503 
L 297.224928 105.375977 
L 297.444586 105.525102 
L 297.883902 105.075034 
L 298.323218 104.137411 
L 298.762534 104.285009 
L 299.20185 103.582538 
L 299.421508 103.724019 
L 300.519798 105.258024 
L 300.739456 105.314157 
L 300.959114 105.160256 
L 301.39843 105.231172 
L 301.618088 105.659712 
L 301.837746 105.735653 
L 302.057404 105.408229 
L 302.49672 105.326471 
L 303.155694 104.717721 
L 303.375352 104.554743 
L 303.814668 103.900981 
L 304.473643 103.542119 
L 304.912959 103.689688 
L 305.571933 102.321888 
L 305.791591 101.700627 
L 306.230907 101.439365 
L 306.889881 100.210254 
L 307.109539 100.420872 
L 307.988171 98.528654 
L 308.427487 97.413177 
L 308.647145 97.260027 
L 309.965093 95.506417 
L 310.184751 95.340981 
L 310.404409 95.405733 
L 310.843725 95.955068 
L 311.063383 96.039336 
L 311.283041 95.746091 
L 311.502699 95.930489 
L 312.161673 95.398176 
L 312.381331 95.3404 
L 312.600989 94.971158 
L 313.040305 93.153753 
L 313.699279 91.466758 
L 313.918937 91.302569 
L 314.577911 90.308795 
L 314.797569 90.577885 
L 315.017227 90.5918 
L 315.676201 89.636489 
L 316.115517 89.53187 
L 316.335175 89.295992 
L 316.774491 89.368094 
L 317.213807 88.472776 
L 317.653123 88.112412 
L 318.092439 88.113894 
L 318.312097 88.388928 
L 318.531755 88.347724 
L 318.751413 87.833177 
L 318.971071 87.762551 
L 319.190729 87.23281 
L 319.410388 87.043152 
L 319.849704 87.467992 
L 320.069362 87.070777 
L 320.28902 87.088776 
L 320.508678 86.805566 
L 320.947994 86.98794 
L 321.167652 86.276458 
L 321.606968 86.048302 
L 322.265942 86.586803 
L 322.4856 86.762953 
L 322.705258 86.232274 
L 323.144574 86.83315 
L 323.364232 86.63078 
L 323.803548 85.888092 
L 324.023206 85.664593 
L 324.242864 85.607727 
L 325.121496 83.865435 
L 326.219786 82.37182 
L 326.659102 82.732215 
L 327.97705 80.613844 
L 328.196708 80.344039 
L 328.855682 79.170804 
L 329.07534 78.98918 
L 329.294998 79.039474 
L 329.953972 77.966373 
L 330.17363 78.369578 
L 330.393288 78.3553 
L 331.491578 76.596959 
L 331.711236 76.646557 
L 331.930894 76.469968 
L 332.37021 76.853041 
L 332.809526 76.454597 
L 333.4685 76.972284 
L 334.566791 77.112167 
L 335.006107 76.382453 
L 335.445423 76.363772 
L 335.665081 76.343004 
L 335.884739 76.14551 
L 336.104397 76.545578 
L 336.543713 76.880207 
L 336.763371 77.240579 
L 337.202687 77.05155 
L 337.422345 76.755469 
L 337.642003 76.687961 
L 338.081319 76.866615 
L 338.740293 76.45209 
L 339.179609 76.885763 
L 339.399267 76.8654 
L 340.497557 75.716304 
L 340.936873 75.877841 
L 341.156531 75.80741 
L 341.815505 74.718063 
L 342.035163 74.457796 
L 342.913795 74.057375 
L 343.133453 73.696173 
L 343.353111 73.65889 
L 343.792427 73.118942 
L 344.012085 73.108471 
L 344.231743 72.7526 
L 344.451401 72.950538 
L 345.110375 72.810468 
L 345.769349 73.125698 
L 346.208665 72.768962 
L 346.428323 72.853909 
L 346.647981 73.065739 
L 347.087297 72.401018 
L 347.306955 72.354067 
L 347.526613 72.035059 
L 347.746271 71.238099 
L 347.965929 70.904965 
L 348.185587 70.851597 
L 348.405245 71.11188 
L 348.624903 70.919189 
L 349.064219 70.996265 
L 349.942852 70.540444 
L 350.601826 70.430272 
L 350.821484 70.307866 
L 351.2608 69.635933 
L 352.139432 69.348862 
L 352.35909 69.06683 
L 352.798406 69.079411 
L 353.018064 69.13263 
L 353.237722 68.868069 
L 353.45738 68.846057 
L 354.116354 67.939198 
L 354.55567 67.84269 
L 354.775328 68.010344 
L 354.994986 67.828317 
L 355.214644 67.868521 
L 355.434302 68.077809 
L 355.873618 67.730558 
L 356.532592 67.684419 
L 357.411224 68.366969 
L 358.070198 68.063041 
L 359.168488 68.099972 
L 359.388146 67.719371 
L 359.607804 67.638906 
L 360.04712 66.081177 
L 360.266778 65.77663 
L 360.486436 65.755225 
L 360.925752 65.335684 
L 361.365068 65.657148 
L 361.584726 65.839109 
L 361.804384 65.165812 
L 362.2437 64.794545 
L 362.683016 64.818358 
L 362.902674 64.714628 
L 363.122332 64.780628 
L 364.000964 64.638916 
L 364.44028 64.894951 
L 364.879597 64.715757 
L 365.538571 64.360244 
L 365.977887 64.615028 
L 366.197545 64.090391 
L 366.417203 64.060984 
L 366.636861 63.443948 
L 366.856519 63.442328 
L 367.076177 63.725748 
L 367.515493 63.756535 
L 367.735151 63.005585 
L 368.174467 63.141315 
L 368.613783 63.194715 
L 369.053099 63.990698 
L 370.151389 63.518815 
L 370.590705 63.545127 
L 371.249679 64.194811 
L 371.469337 64.291709 
L 371.908653 64.144525 
L 372.347969 64.321841 
L 372.567627 64.559814 
L 372.787285 65.01863 
L 373.006943 64.860605 
L 373.226601 64.959321 
L 373.665917 66.341351 
L 373.885575 66.536992 
L 374.983865 66.660931 
L 375.203523 66.750293 
L 375.423181 67.0588 
L 376.082155 66.525491 
L 376.521471 66.396956 
L 377.180445 66.036692 
L 377.400103 65.964115 
L 378.498393 64.776535 
L 378.937709 64.634399 
L 379.377025 64.505507 
L 380.255658 64.686042 
L 380.694974 64.832452 
L 381.353948 64.469086 
L 381.793264 64.381209 
L 382.012922 64.347639 
L 382.23258 64.432433 
L 383.111212 63.848105 
L 383.550528 63.164116 
L 383.770186 63.006805 
L 383.989844 62.635737 
L 384.868476 62.177915 
L 385.088134 61.849107 
L 385.52745 61.809087 
L 385.747108 61.742611 
L 386.62574 61.941034 
L 386.845398 61.739911 
L 387.284714 61.764703 
L 387.72403 61.2361 
L 388.163346 60.540463 
L 388.383004 60.39498 
L 388.82232 59.803568 
L 389.041978 59.573307 
L 389.481294 59.504832 
L 389.700952 59.596096 
L 390.799242 60.926802 
L 391.0189 60.756365 
L 391.238558 60.893783 
L 391.458216 60.882466 
L 391.897532 61.399276 
L 392.11719 61.302478 
L 392.556506 61.906481 
L 393.654796 62.52245 
L 394.094112 62.541856 
L 394.533428 62.719204 
L 395.192403 62.58842 
L 395.631719 62.786679 
L 395.851377 63.00741 
L 396.290693 64.065067 
L 396.510351 64.783172 
L 396.730009 64.848155 
L 397.169325 66.249026 
L 398.047957 66.421572 
L 398.487273 67.9813 
L 398.487273 67.9813 
" clip-path="url(#p1d0e22e8d2)" style="fill: none; stroke: #1f77b4; stroke-opacity: 0.7; stroke-width: 1.5; stroke-linecap: square"/>
   </g>
   <g id="line2d_18">
    <path d="M 73.832727 67.754964 
L 75.150675 67.382221 
L 75.589991 67.665442 
L 76.248965 67.61787 
L 77.127597 68.044273 
L 77.786572 68.778515 
L 78.445546 69.247286 
L 79.10452 69.257089 
L 81.081442 67.50761 
L 81.3011 67.537495 
L 81.740416 67.136958 
L 82.619048 67.260682 
L 83.717338 68.236479 
L 84.156654 68.293962 
L 84.59597 68.28961 
L 85.254944 68.304742 
L 85.913918 68.150277 
L 86.572892 68.255026 
L 87.89084 69.07393 
L 88.98913 69.372827 
L 89.648104 69.425864 
L 89.867762 69.418903 
L 90.526736 69.80171 
L 92.064342 71.248482 
L 92.503659 71.471186 
L 93.382291 71.485438 
L 94.260923 71.035904 
L 95.139555 70.812712 
L 95.578871 70.964914 
L 98.214767 72.662894 
L 98.654083 72.936325 
L 99.532715 73.221809 
L 101.289979 74.287129 
L 101.729295 74.443517 
L 102.168611 74.699537 
L 102.827585 75.038715 
L 103.486559 75.439399 
L 104.145533 75.911677 
L 105.024165 76.194249 
L 105.683139 76.211334 
L 108.97801 77.59747 
L 109.856642 77.472423 
L 110.0763 77.184739 
L 110.515616 76.329128 
L 110.735274 75.995471 
L 111.17459 75.777107 
L 112.492538 73.844922 
L 113.37117 72.160389 
L 113.810486 71.94462 
L 114.249802 72.279337 
L 114.689118 72.829414 
L 115.128434 72.968986 
L 116.226724 73.061734 
L 116.885698 72.531472 
L 117.105356 72.50981 
L 117.325014 72.354323 
L 117.983988 72.737651 
L 118.203646 72.985266 
L 118.642962 72.918576 
L 119.301936 72.338029 
L 119.741252 72.099603 
L 120.180568 71.452363 
L 120.619884 70.611501 
L 121.0592 69.324882 
L 121.278858 68.472912 
L 121.718174 67.844467 
L 122.596806 66.980797 
L 123.255781 67.389114 
L 123.475439 67.593775 
L 123.914755 68.285392 
L 124.793387 69.381229 
L 125.232703 70.124992 
L 126.550651 72.180289 
L 127.429283 73.981367 
L 128.088257 74.925122 
L 128.527573 75.530075 
L 130.284837 78.316362 
L 131.383127 80.398847 
L 132.042101 81.118673 
L 132.261759 81.189506 
L 132.701075 81.697078 
L 134.238681 84.500757 
L 134.677997 84.860356 
L 136.435261 87.245267 
L 137.094235 87.736593 
L 139.290816 88.995948 
L 139.730132 89.380622 
L 141.267738 90.826757 
L 141.926712 91.09831 
L 142.366028 90.956193 
L 142.585686 90.999419 
L 143.025002 91.321967 
L 143.464318 91.509741 
L 143.903634 91.699594 
L 144.562608 91.618773 
L 145.001924 91.465305 
L 145.221582 91.392092 
L 145.660898 91.608051 
L 147.198504 93.307595 
L 148.516452 95.712449 
L 149.395084 96.237414 
L 151.811322 98.990931 
L 153.568587 100.14388 
L 154.007903 100.507319 
L 154.447219 100.569047 
L 154.666877 100.502058 
L 155.325851 99.758546 
L 155.765167 99.630417 
L 155.984825 99.429795 
L 156.204483 99.401815 
L 156.643799 98.833291 
L 157.302773 98.812747 
L 157.742089 98.922212 
L 158.181405 98.666031 
L 158.620721 98.596182 
L 160.158327 99.565558 
L 160.817301 100.149899 
L 161.695933 100.859026 
L 162.135249 101.19393 
L 162.794223 101.489225 
L 163.672855 101.561339 
L 164.112171 101.182947 
L 164.551487 101.066579 
L 164.990803 100.730579 
L 165.430119 100.771446 
L 165.869435 100.95163 
L 167.626699 102.351075 
L 168.944648 103.767186 
L 169.603622 104.564999 
L 170.042938 105.151149 
L 170.482254 105.690576 
L 171.360886 106.916335 
L 172.459176 107.903186 
L 172.898492 108.425575 
L 174.436098 109.374835 
L 174.655756 109.525752 
L 175.095072 109.941029 
L 176.632678 111.391371 
L 177.291652 112.062304 
L 179.70789 113.588493 
L 181.025838 114.991501 
L 181.465154 114.954096 
L 182.124128 115.325144 
L 182.343786 115.231537 
L 182.563444 115.30818 
L 184.979683 117.593577 
L 185.199341 117.656342 
L 185.418999 117.323329 
L 185.858315 116.234969 
L 186.736947 112.826309 
L 186.956605 112.397398 
L 187.395921 110.694751 
L 189.153185 98.78405 
L 190.251475 89.396956 
L 190.471133 89.569267 
L 190.690791 89.974864 
L 190.910449 90.138634 
L 191.130107 90.119481 
L 191.349765 90.219546 
L 191.569423 90.585663 
L 191.789081 89.497407 
L 192.887371 93.760608 
L 193.326687 95.067473 
L 194.424977 98.154008 
L 195.962583 100.888869 
L 196.401899 101.286778 
L 196.621557 101.396452 
L 197.060873 102.53437 
L 197.500189 103.504071 
L 197.719847 103.659551 
L 198.378822 104.974731 
L 199.477112 108.251609 
L 200.355744 111.089314 
L 201.234376 113.335106 
L 201.89335 115.422792 
L 202.113008 115.540675 
L 202.552324 115.266961 
L 202.99164 115.385143 
L 203.870272 115.559649 
L 204.748904 114.687436 
L 205.18822 114.8218 
L 205.407878 115.032668 
L 206.506168 116.731075 
L 206.945484 117.304557 
L 207.824116 118.785927 
L 208.48309 119.791488 
L 208.702748 119.931914 
L 209.801038 121.577589 
L 211.118986 123.822443 
L 211.338644 124.059067 
L 212.217276 125.973021 
L 212.436934 126.182873 
L 212.87625 126.792212 
L 213.315566 127.260416 
L 213.974541 128.411176 
L 214.853173 130.111778 
L 215.292489 130.438188 
L 215.512147 130.100879 
L 215.731805 130.145284 
L 216.390779 129.764383 
L 216.610437 129.889738 
L 216.830095 129.833694 
L 217.049753 130.344342 
L 217.269411 130.116992 
L 218.148043 129.889061 
L 218.367701 129.987254 
L 219.026675 131.023647 
L 219.685649 132.623826 
L 220.124965 134.105146 
L 221.223255 137.858254 
L 222.760861 139.060279 
L 223.200177 139.112854 
L 224.078809 137.777529 
L 224.298467 137.728336 
L 224.518125 137.895402 
L 224.957441 138.608585 
L 226.495047 142.336456 
L 227.154021 143.292089 
L 228.032653 145.089831 
L 228.252311 145.462331 
L 228.911286 147.286738 
L 229.57026 148.764751 
L 230.66855 150.451815 
L 231.327524 151.740963 
L 231.76684 152.311709 
L 232.206156 152.968028 
L 232.645472 153.835747 
L 233.743762 155.615637 
L 235.06171 158.706821 
L 235.501026 159.469494 
L 236.16 160.996836 
L 236.599316 161.310639 
L 237.038632 161.084051 
L 237.25829 160.764271 
L 237.477948 160.697489 
L 237.917264 160.824843 
L 238.35658 161.269856 
L 239.235212 162.444258 
L 240.113844 163.424759 
L 240.333502 163.601694 
L 240.772818 163.707235 
L 240.992476 163.892608 
L 241.431792 163.565348 
L 241.871108 163.724884 
L 242.090766 163.594724 
L 242.310424 163.235107 
L 242.530082 163.483181 
L 242.74974 163.331817 
L 243.189056 163.463105 
L 243.628372 163.960796 
L 244.507005 166.145181 
L 245.385637 167.722481 
L 245.605295 167.847152 
L 246.923243 169.798937 
L 249.559139 175.795878 
L 249.778797 176.002786 
L 250.437771 177.20138 
L 250.657429 177.33758 
L 251.096745 177.881175 
L 251.975377 178.948641 
L 252.414693 179.72345 
L 252.634351 179.837766 
L 252.854009 179.682161 
L 253.073667 179.727036 
L 253.732641 180.320848 
L 255.270247 181.502996 
L 255.929221 182.25525 
L 256.368537 182.567051 
L 258.345459 183.98986 
L 258.565117 183.885247 
L 259.224092 184.243372 
L 259.883066 184.867317 
L 262.518962 188.384978 
L 262.73862 188.462075 
L 262.958278 188.344825 
L 263.177936 188.376089 
L 263.617252 188.71525 
L 264.276226 189.496135 
L 265.813832 190.827016 
L 267.571096 192.719894 
L 268.23007 192.887945 
L 269.548018 194.334493 
L 270.865966 195.912738 
L 271.085624 196.059617 
L 272.403572 195.660997 
L 273.062546 194.702701 
L 273.282204 194.656022 
L 273.501862 194.910895 
L 273.72152 194.821618 
L 273.941178 195.134967 
L 275.259127 199.117414 
L 275.918101 201.729488 
L 276.357417 202.565604 
L 276.577075 203.22786 
L 277.016391 203.850767 
L 279.212971 208.723429 
L 280.530919 211.786662 
L 282.288183 214.191291 
L 283.386473 215.131143 
L 283.606131 215.066063 
L 283.825789 214.730077 
L 284.045447 214.700609 
L 284.265105 214.525336 
L 284.484763 214.541573 
L 285.583053 215.852129 
L 285.802711 215.914859 
L 286.242027 216.337312 
L 286.461685 216.433091 
L 286.681343 216.32798 
L 286.901001 216.49143 
L 288.877923 219.885923 
L 289.097581 219.794211 
L 289.536898 219.76574 
L 289.756556 219.698657 
L 290.195872 219.803002 
L 290.854846 219.232686 
L 291.294162 218.218539 
L 292.392452 214.144668 
L 293.051426 216.08978 
L 294.589032 222.689321 
L 294.80869 222.451194 
L 295.028348 223.303015 
L 295.467664 223.28007 
L 295.90698 222.791633 
L 296.565954 221.376879 
L 297.00527 221.340052 
L 297.224928 221.115865 
L 297.444586 221.174595 
L 297.883902 220.926755 
L 298.323218 219.640964 
L 298.542876 220.006387 
L 298.762534 219.727227 
L 298.982192 219.782885 
L 299.20185 219.399888 
L 299.860824 224.630185 
L 300.080482 226.775448 
L 301.178772 229.234276 
L 302.057404 231.568311 
L 303.155694 233.049192 
L 303.375352 233.210489 
L 303.814668 232.992971 
L 304.034326 233.260237 
L 304.473643 233.317877 
L 304.912959 233.742213 
L 305.132617 233.524591 
L 305.791591 231.92556 
L 306.670223 229.348345 
L 306.889881 228.704586 
L 307.109539 228.479236 
L 307.548855 227.352722 
L 308.427487 224.534226 
L 308.866803 224.606695 
L 309.086461 224.444844 
L 309.525777 223.219605 
L 309.745435 223.120927 
L 309.965093 223.445798 
L 310.184751 223.401381 
L 310.404409 223.191389 
L 310.624067 223.367874 
L 311.063383 224.875234 
L 311.283041 225.913888 
L 311.502699 226.410017 
L 311.722357 227.375611 
L 312.381331 228.368978 
L 312.600989 228.255003 
L 312.820647 227.960518 
L 313.040305 227.169221 
L 313.479621 228.041095 
L 314.138595 225.506061 
L 314.577911 224.370258 
L 314.797569 224.64636 
L 315.017227 224.670607 
L 315.456543 223.847543 
L 315.676201 223.771458 
L 316.115517 223.105075 
L 316.335175 223.180305 
L 316.554833 222.465214 
L 316.994149 222.706633 
L 317.653123 222.55252 
L 318.312097 223.249445 
L 319.630046 226.064294 
L 320.947994 229.770197 
L 321.38731 230.450402 
L 322.046284 231.478029 
L 323.364232 234.571457 
L 323.803548 234.517235 
L 324.023206 234.514472 
L 324.242864 234.742123 
L 325.560812 232.773784 
L 325.78047 232.264095 
L 326.219786 231.917461 
L 326.439444 231.924239 
L 326.659102 232.233061 
L 326.87876 231.945052 
L 327.098418 231.852331 
L 327.757392 231.020168 
L 328.196708 230.109596 
L 329.514656 225.95614 
L 329.734314 225.547084 
L 330.612946 227.818422 
L 330.832604 227.946738 
L 331.491578 227.755828 
L 332.589868 229.315095 
L 332.809526 230.247419 
L 333.029184 230.490605 
L 333.248842 231.75435 
L 333.688158 232.632698 
L 333.907816 232.974325 
L 334.347132 233.88583 
L 334.566791 234.287653 
L 335.225765 234.412228 
L 335.884739 234.861254 
L 336.983029 237.944257 
L 337.642003 239.316204 
L 338.300977 241.02874 
L 338.520635 241.068134 
L 339.399267 242.974953 
L 339.838583 243.263963 
L 340.058241 243.181445 
L 340.277899 243.357232 
L 340.717215 243.290281 
L 341.156531 243.374411 
L 341.595847 242.777938 
L 342.035163 241.893844 
L 342.254821 241.821261 
L 343.133453 240.717962 
L 343.353111 240.800312 
L 343.792427 240.814965 
L 344.451401 241.251843 
L 345.110375 242.034363 
L 345.769349 243.505334 
L 346.428323 244.104539 
L 348.185587 247.084741 
L 348.844561 248.708679 
L 349.283877 249.577848 
L 349.723194 249.957839 
L 350.382168 250.927331 
L 350.821484 251.116988 
L 351.480458 250.602161 
L 352.578748 249.425345 
L 353.018064 249.33339 
L 353.896696 248.196723 
L 354.116354 247.77881 
L 354.775328 247.430198 
L 355.214644 247.32178 
L 355.434302 247.566309 
L 355.873618 247.476522 
L 356.75225 248.005889 
L 357.191566 248.929225 
L 357.630882 249.90917 
L 357.85054 250.132503 
L 358.729172 251.574746 
L 360.04712 252.843461 
L 360.486436 253.022419 
L 360.925752 252.764399 
L 361.804384 253.548764 
L 362.024042 253.594478 
L 362.2437 253.508135 
L 363.34199 254.459373 
L 364.000964 254.816902 
L 364.879597 255.885134 
L 365.099255 255.954574 
L 365.538571 255.94288 
L 366.856519 257.242333 
L 368.174467 259.194974 
L 369.272757 261.608421 
L 369.712073 262.031781 
L 369.931731 262.09862 
L 372.347969 265.416589 
L 373.446259 267.977826 
L 373.885575 268.418031 
L 374.544549 269.363247 
L 374.983865 269.700386 
L 375.423181 270.095977 
L 376.741129 269.938325 
L 377.180445 270.419666 
L 377.400103 270.486882 
L 378.278735 270.383356 
L 378.937709 270.468309 
L 379.596683 270.239375 
L 380.036 270.721797 
L 380.914632 271.747565 
L 381.13429 271.897916 
L 381.353948 271.891095 
L 381.793264 272.192883 
L 382.012922 272.191958 
L 382.23258 272.304097 
L 383.111212 271.960162 
L 384.209502 269.920279 
L 384.42916 270.041575 
L 385.088134 269.858508 
L 385.747108 269.60075 
L 386.186424 269.833573 
L 386.62574 270.163131 
L 386.845398 270.285427 
L 387.504372 270.887678 
L 387.72403 270.797811 
L 388.602662 269.731055 
L 389.261636 268.320119 
L 389.700952 268.055805 
L 389.92061 268.17476 
L 390.140268 268.864041 
L 390.359926 269.10645 
L 391.238558 271.915073 
L 391.897532 275.036166 
L 392.11719 276.116209 
L 392.556506 277.290409 
L 392.995822 279.107312 
L 393.654796 280.925339 
L 393.874454 281.326388 
L 394.31377 282.705986 
L 394.533428 283.162014 
L 394.972744 284.217298 
L 395.851377 286.272097 
L 398.267615 294.535822 
L 398.487273 295.488 
L 398.487273 295.488 
" clip-path="url(#p1d0e22e8d2)" style="fill: none; stroke: #ff7f0e; stroke-opacity: 0.7; stroke-width: 1.5; stroke-linecap: square"/>
   </g>
   <g id="line2d_19">
    <path d="M 73.832727 67.906883 
L 74.272043 68.220426 
L 74.931017 68.30439 
L 75.589991 68.778652 
L 76.468623 68.633458 
L 77.347256 68.921295 
L 77.786572 69.090527 
L 78.884862 68.896644 
L 79.10452 68.816799 
L 79.983152 67.958569 
L 80.20281 67.795934 
L 81.081442 67.742136 
L 81.3011 67.892775 
L 81.740416 67.716235 
L 83.278022 68.171527 
L 83.936996 67.97143 
L 84.59597 67.852135 
L 85.035286 67.880449 
L 85.474602 67.789508 
L 85.69426 67.718984 
L 87.012208 68.165358 
L 87.671182 68.241343 
L 88.549814 68.319585 
L 90.746394 68.653094 
L 91.18571 68.823204 
L 91.625026 68.938236 
L 92.503659 69.03281 
L 93.382291 69.017966 
L 94.041265 68.680602 
L 94.919897 68.613709 
L 95.359213 68.804166 
L 95.798529 69.087943 
L 96.237845 69.215308 
L 97.336135 69.609787 
L 98.214767 69.944555 
L 98.654083 70.089297 
L 99.752373 70.119699 
L 100.631005 70.394235 
L 101.509637 70.20366 
L 103.486559 70.76126 
L 103.706217 70.970065 
L 104.365191 71.018922 
L 105.243823 70.925767 
L 107.87972 71.26983 
L 109.856642 71.158661 
L 110.735274 69.931913 
L 111.613906 69.72618 
L 112.053222 69.535375 
L 112.27288 69.209172 
L 112.712196 68.919287 
L 112.931854 68.712321 
L 113.151512 68.670928 
L 114.030144 69.022849 
L 114.249802 69.075799 
L 114.689118 69.41284 
L 114.908776 69.412493 
L 115.348092 69.173273 
L 115.787408 69.061442 
L 116.007066 69.102256 
L 116.446382 68.704482 
L 116.885698 68.328284 
L 117.325014 68.271428 
L 118.203646 68.886253 
L 119.741252 67.569801 
L 121.0592 66.011934 
L 121.278858 65.266166 
L 121.498516 65.118933 
L 121.718174 65.257178 
L 122.816465 65.308669 
L 123.255781 65.581252 
L 123.914755 66.073527 
L 124.134413 66.034297 
L 124.573729 66.202932 
L 124.793387 66.271109 
L 125.232703 66.619653 
L 125.891677 66.9579 
L 126.330993 67.032293 
L 126.989967 67.511765 
L 127.648941 67.642845 
L 127.868599 67.543039 
L 128.527573 67.901 
L 128.747231 68.069944 
L 128.966889 68.035138 
L 129.406205 68.376785 
L 129.845521 68.382112 
L 130.943811 68.636839 
L 131.602785 68.987548 
L 132.481417 69.171143 
L 133.799365 69.909142 
L 135.117313 70.00062 
L 135.336971 70.094426 
L 136.215603 70.895583 
L 137.313893 71.324154 
L 137.753209 71.384585 
L 138.631842 71.607214 
L 138.8515 71.637037 
L 139.94979 72.71826 
L 141.926712 72.962155 
L 142.366028 72.829275 
L 143.903634 72.843304 
L 144.562608 72.633095 
L 145.001924 72.617083 
L 145.44124 72.561738 
L 145.880556 72.760463 
L 146.53953 73.25545 
L 147.198504 73.475579 
L 147.63782 73.65231 
L 148.077136 73.99781 
L 148.516452 74.384723 
L 149.175426 74.439054 
L 149.614742 74.650171 
L 150.054058 75.023056 
L 150.493374 75.39869 
L 150.93269 75.447811 
L 151.372006 75.622305 
L 151.811322 75.950473 
L 152.470296 76.034297 
L 152.909612 76.153143 
L 153.348929 76.275775 
L 153.568587 76.358843 
L 153.788245 76.581214 
L 154.227561 76.471509 
L 154.666877 76.300245 
L 155.106193 75.76804 
L 155.325851 75.572581 
L 155.765167 75.54981 
L 155.984825 75.481323 
L 156.204483 75.553959 
L 156.643799 75.227319 
L 156.863457 75.254362 
L 157.522431 75.569571 
L 157.742089 75.61895 
L 157.961747 75.358951 
L 158.620721 75.181882 
L 159.060037 75.391503 
L 159.279695 75.352919 
L 161.256617 76.169701 
L 161.915591 76.323362 
L 163.453197 76.336424 
L 163.892513 76.016316 
L 164.112171 75.88661 
L 164.551487 75.948408 
L 164.771145 75.802096 
L 164.990803 76.106539 
L 165.430119 76.216487 
L 167.626699 77.066325 
L 168.285674 77.528517 
L 168.72499 77.697512 
L 169.383964 78.052807 
L 169.82328 78.222965 
L 170.92157 78.790524 
L 171.800202 79.811544 
L 172.459176 80.029609 
L 172.898492 80.698264 
L 173.557466 80.494394 
L 175.31473 81.126375 
L 177.071994 84.370033 
L 177.51131 84.408351 
L 178.170284 84.648557 
L 179.048916 84.96139 
L 179.488232 85.128781 
L 179.927548 85.293203 
L 180.366864 85.476818 
L 181.025838 85.504948 
L 181.245496 85.313148 
L 181.90447 85.398399 
L 182.124128 85.27776 
L 182.343786 85.309346 
L 183.00276 85.923559 
L 183.442077 86.236977 
L 183.661735 86.893343 
L 183.881393 87.054831 
L 184.320709 88.365553 
L 185.199341 88.5279 
L 185.638657 87.580826 
L 186.077973 86.457312 
L 186.297631 85.807753 
L 186.517289 85.810472 
L 186.736947 85.524639 
L 186.956605 85.700071 
L 187.395921 85.388898 
L 187.615579 84.476965 
L 187.835237 84.344168 
L 188.054895 83.826192 
L 188.274553 82.523376 
L 188.494211 82.280202 
L 188.713869 80.765587 
L 188.933527 80.320292 
L 189.153185 79.403731 
L 189.372843 79.220592 
L 189.812159 78.331295 
L 190.251475 78.817429 
L 190.471133 79.326177 
L 190.690791 79.296146 
L 191.130107 79.773561 
L 191.789081 79.255214 
L 192.228397 80.021173 
L 192.667713 80.791438 
L 192.887371 80.786295 
L 193.326687 81.157161 
L 193.546345 81.260473 
L 193.766003 81.633951 
L 193.985661 81.742031 
L 194.205319 81.43742 
L 194.424977 81.619637 
L 194.864293 81.799306 
L 195.083951 82.05637 
L 195.303609 82.002147 
L 195.742925 82.04256 
L 196.182241 81.726165 
L 196.621557 81.844627 
L 197.280531 82.468959 
L 197.719847 82.268577 
L 198.159163 82.300696 
L 198.59848 82.819655 
L 198.818138 83.028058 
L 199.257454 83.159406 
L 200.79506 84.420277 
L 201.014718 84.588967 
L 201.454034 85.636125 
L 201.89335 86.038842 
L 202.332666 85.321744 
L 202.552324 85.171166 
L 202.99164 85.169259 
L 203.870272 85.208755 
L 204.529246 84.671461 
L 205.407878 85.017044 
L 205.847194 85.511579 
L 206.506168 85.844345 
L 206.725826 85.884892 
L 207.165142 86.308711 
L 208.043774 86.448961 
L 208.263432 86.640135 
L 209.142064 86.646929 
L 210.460012 87.627666 
L 211.77796 88.947108 
L 213.315566 89.499115 
L 213.535225 89.64412 
L 214.413857 91.566484 
L 214.853173 92.879362 
L 215.072831 92.703355 
L 215.292489 93.068914 
L 215.512147 92.609226 
L 215.731805 92.77229 
L 215.951463 92.578712 
L 216.390779 92.637912 
L 216.830095 93.17085 
L 217.049753 93.102417 
L 217.269411 93.468298 
L 217.489069 93.498888 
L 217.928385 93.823796 
L 218.367701 93.939845 
L 218.587359 94.217525 
L 219.026675 94.422262 
L 219.246333 94.604757 
L 219.465991 94.558075 
L 219.685649 94.701671 
L 219.905307 94.623673 
L 220.564281 95.1539 
L 221.003597 95.815628 
L 221.223255 96.032342 
L 221.662571 96.021648 
L 222.101887 95.778844 
L 222.321545 95.720594 
L 222.760861 95.879462 
L 223.200177 95.544123 
L 223.639493 94.89202 
L 223.859151 94.588092 
L 224.518125 95.271289 
L 224.957441 96.073856 
L 226.934363 98.425899 
L 227.373679 98.585765 
L 228.032653 99.386862 
L 228.252311 99.377759 
L 228.691628 99.731172 
L 229.789918 104.545467 
L 230.448892 104.659313 
L 231.107866 105.434649 
L 231.327524 105.647895 
L 231.986498 105.549419 
L 232.425814 105.886174 
L 232.86513 106.260771 
L 233.084788 106.562316 
L 233.743762 106.7063 
L 234.183078 107.120088 
L 234.402736 107.191465 
L 234.622394 107.523605 
L 235.06171 107.563912 
L 235.501026 107.530468 
L 235.940342 107.865218 
L 236.599316 108.049486 
L 237.25829 107.358354 
L 237.477948 107.307797 
L 238.35658 107.94487 
L 238.795896 110.161274 
L 239.45487 110.594352 
L 240.113844 110.904076 
L 240.55316 110.912136 
L 240.772818 110.92069 
L 240.992476 111.054902 
L 241.431792 110.63156 
L 241.65145 110.900221 
L 241.871108 110.931077 
L 242.090766 110.781294 
L 243.189056 111.402308 
L 244.067689 112.321392 
L 244.287347 112.424443 
L 244.507005 113.69012 
L 244.726663 113.664369 
L 244.946321 113.752299 
L 245.605295 113.696219 
L 246.264269 114.076593 
L 246.703585 114.365616 
L 247.362559 115.137277 
L 248.900165 116.216539 
L 249.559139 116.465033 
L 249.778797 116.390774 
L 250.437771 116.903606 
L 251.755719 116.946841 
L 252.414693 117.529921 
L 252.634351 117.518686 
L 253.073667 117.29133 
L 253.512983 117.534105 
L 253.732641 117.55132 
L 253.952299 117.450061 
L 255.050589 118.005414 
L 255.709563 118.252972 
L 256.368537 118.520358 
L 256.807853 118.729575 
L 257.247169 118.807737 
L 258.125801 118.950452 
L 259.004434 119.017766 
L 259.44375 119.175358 
L 260.322382 119.719185 
L 260.54204 120.977137 
L 260.761698 121.181426 
L 260.981356 123.123368 
L 261.201014 123.297769 
L 261.420672 123.31231 
L 262.079646 123.697577 
L 262.518962 123.750218 
L 262.73862 123.614887 
L 262.958278 123.317832 
L 263.177936 123.342923 
L 264.276226 124.011396 
L 264.495884 126.104619 
L 264.9352 126.195181 
L 265.154858 126.196528 
L 266.253148 126.708568 
L 267.13178 127.091654 
L 267.571096 131.255827 
L 268.010412 130.968102 
L 268.449728 131.062975 
L 269.32836 131.545656 
L 269.548018 131.662239 
L 269.767676 132.507475 
L 270.646308 132.683474 
L 271.085624 132.586514 
L 271.52494 132.413533 
L 271.744598 132.333314 
L 272.183914 133.005583 
L 272.62323 133.298451 
L 272.842888 133.770355 
L 273.282204 135.165008 
L 273.501862 135.591765 
L 273.72152 135.608359 
L 274.819811 134.714225 
L 275.039469 134.742726 
L 275.259127 135.24735 
L 275.478785 135.388091 
L 275.698443 135.718272 
L 276.357417 135.635511 
L 277.016391 136.448209 
L 277.675365 137.266131 
L 278.334339 137.845205 
L 278.553997 137.889393 
L 279.212971 138.478904 
L 279.652287 139.048476 
L 280.530919 147.677886 
L 280.970235 147.517902 
L 281.629209 147.88099 
L 281.848867 147.991061 
L 282.288183 148.53248 
L 282.947157 148.840715 
L 283.166815 148.63819 
L 283.386473 148.84115 
L 283.825789 148.509374 
L 284.045447 148.515861 
L 284.265105 148.382586 
L 284.484763 148.455417 
L 284.924079 149.078327 
L 285.143737 149.174671 
L 285.363395 149.429696 
L 285.802711 149.287934 
L 286.022369 149.464909 
L 286.242027 149.468129 
L 286.461685 149.339666 
L 286.681343 149.069042 
L 286.901001 149.166602 
L 287.559975 149.986337 
L 287.999291 150.441413 
L 288.877923 150.906527 
L 289.756556 150.228407 
L 290.195872 150.372484 
L 290.635188 150.167425 
L 291.294162 149.33464 
L 291.51382 149.132318 
L 291.953136 149.404528 
L 292.61211 149.856675 
L 292.831768 150.433382 
L 293.271084 150.954464 
L 293.7104 150.856288 
L 293.930058 150.765673 
L 294.149716 150.847267 
L 294.369374 151.155365 
L 294.589032 151.175148 
L 295.028348 150.673659 
L 295.467664 150.638166 
L 295.90698 150.024322 
L 296.126638 150.398102 
L 296.346296 150.52278 
L 296.565954 150.903883 
L 297.00527 152.241631 
L 297.224928 152.070395 
L 297.444586 152.275694 
L 297.883902 152.127746 
L 298.323218 151.333592 
L 298.762534 151.312896 
L 299.20185 150.759517 
L 299.421508 151.588736 
L 300.739456 153.58457 
L 301.39843 154.332498 
L 301.618088 154.855025 
L 301.837746 155.079491 
L 302.277062 155.17403 
L 302.49672 155.355665 
L 302.936036 155.209588 
L 303.155694 155.368415 
L 303.375352 155.332684 
L 304.034326 154.77447 
L 304.473643 154.589218 
L 304.912959 154.909105 
L 305.132617 154.664853 
L 305.791591 153.536003 
L 306.011249 153.190721 
L 306.230907 153.160386 
L 306.450565 152.671207 
L 306.889881 152.346666 
L 307.109539 152.617026 
L 307.768513 151.52063 
L 308.207829 150.62468 
L 308.427487 150.146813 
L 308.647145 150.257524 
L 308.866803 149.985777 
L 309.086461 150.08516 
L 309.525777 149.49986 
L 310.184751 149.208589 
L 310.404409 149.32884 
L 310.843725 150.417678 
L 311.063383 150.639856 
L 311.283041 150.666193 
L 311.502699 150.930313 
L 311.942015 150.711773 
L 312.161673 150.888238 
L 312.381331 150.917273 
L 312.600989 150.608072 
L 313.479621 148.282642 
L 314.138595 146.645826 
L 314.358253 146.507491 
L 314.577911 146.511187 
L 315.017227 147.115744 
L 315.456543 146.819332 
L 315.676201 146.665196 
L 316.335175 146.720483 
L 316.774491 147.030742 
L 317.653123 146.279255 
L 318.092439 146.384548 
L 318.531755 146.97869 
L 319.410388 146.752437 
L 320.28902 147.445829 
L 320.508678 147.413627 
L 320.947994 147.809572 
L 321.167652 147.550915 
L 321.606968 147.604425 
L 322.4856 148.856681 
L 322.705258 148.73891 
L 323.144574 149.200777 
L 323.364232 149.102245 
L 324.023206 148.218942 
L 324.242864 148.225556 
L 325.121496 146.798574 
L 325.560812 146.288219 
L 326.000128 145.835389 
L 326.219786 145.768829 
L 326.659102 146.283629 
L 327.757392 144.904806 
L 328.196708 144.44455 
L 328.636024 143.783329 
L 328.855682 143.578412 
L 329.07534 143.669501 
L 329.294998 143.912621 
L 329.514656 143.846837 
L 329.734314 143.602257 
L 329.953972 143.860077 
L 330.17363 144.409385 
L 330.393288 144.521431 
L 330.612946 144.463117 
L 331.711236 143.345525 
L 331.930894 143.98031 
L 332.150552 144.076825 
L 332.37021 144.353978 
L 332.809526 144.282956 
L 333.688158 145.412673 
L 333.907816 145.430166 
L 334.347132 145.87837 
L 334.566791 145.936721 
L 335.006107 145.400818 
L 335.445423 145.455815 
L 335.665081 145.583538 
L 335.884739 145.457445 
L 336.324055 146.337287 
L 336.763371 147.058438 
L 337.642003 147.072314 
L 338.300977 147.575948 
L 338.520635 147.504821 
L 338.740293 147.611076 
L 339.179609 148.259088 
L 339.399267 148.373671 
L 340.058241 147.889897 
L 340.717215 147.723195 
L 341.156531 147.972303 
L 341.815505 147.078227 
L 342.035163 146.842536 
L 342.694137 146.669232 
L 343.792427 146.301108 
L 344.012085 146.340744 
L 344.231743 146.133212 
L 344.671059 146.430638 
L 345.110375 146.669696 
L 345.769349 147.239016 
L 346.428323 147.157468 
L 346.647981 147.398825 
L 347.087297 147.320772 
L 347.306955 147.455069 
L 347.526613 147.405554 
L 347.746271 147.05005 
L 347.965929 146.981362 
L 348.185587 147.112706 
L 348.405245 147.471702 
L 349.283877 147.682826 
L 349.503535 147.526518 
L 349.723194 147.527966 
L 350.382168 147.848163 
L 350.821484 147.744045 
L 351.2608 147.24668 
L 351.919774 146.972528 
L 352.578748 146.849201 
L 353.018064 147.164819 
L 353.677038 146.706102 
L 353.896696 146.330735 
L 354.116354 146.18702 
L 354.336012 146.245867 
L 354.55567 146.185152 
L 354.775328 146.380725 
L 354.994986 146.351807 
L 355.214644 146.472144 
L 355.434302 146.72227 
L 355.873618 146.584297 
L 356.532592 146.669188 
L 357.191566 147.300531 
L 357.411224 147.534964 
L 358.289856 147.65207 
L 359.607804 148.029996 
L 360.266778 147.134685 
L 360.486436 147.20894 
L 360.925752 146.844391 
L 361.584726 147.482582 
L 361.804384 147.126625 
L 362.683016 146.911255 
L 363.561648 146.906814 
L 364.220622 147.073644 
L 364.659938 147.347104 
L 365.099255 147.222255 
L 365.538571 147.050451 
L 365.977887 147.311558 
L 366.197545 147.067566 
L 366.417203 147.141903 
L 366.636861 146.998688 
L 366.856519 147.119629 
L 367.076177 147.420522 
L 367.515493 147.541417 
L 367.735151 147.231227 
L 369.053099 148.387721 
L 369.272757 148.303538 
L 369.712073 148.275286 
L 369.931731 148.17834 
L 370.371047 148.432518 
L 370.590705 148.551605 
L 371.030021 149.040188 
L 371.249679 149.257452 
L 371.688995 149.263122 
L 372.128311 149.291071 
L 372.567627 149.71331 
L 372.787285 150.019872 
L 373.006943 150.041009 
L 373.226601 150.22182 
L 373.665917 151.125919 
L 374.324891 151.463666 
L 375.423181 152.011295 
L 375.862497 151.768057 
L 376.301813 151.745759 
L 377.619761 151.70476 
L 378.278735 151.284555 
L 379.157367 151.481498 
L 379.377025 151.525888 
L 379.816341 151.976646 
L 380.694974 152.499457 
L 381.353948 152.24535 
L 381.793264 152.256699 
L 382.012922 152.259512 
L 382.23258 152.424499 
L 383.33087 151.977214 
L 383.550528 151.875822 
L 383.770186 151.946374 
L 383.989844 151.7277 
L 384.868476 151.592106 
L 385.088134 151.344596 
L 385.747108 151.371486 
L 386.62574 151.922176 
L 386.845398 151.816382 
L 387.284714 151.927153 
L 387.72403 151.544029 
L 388.163346 150.888416 
L 388.82232 150.514366 
L 389.261636 150.46059 
L 389.700952 150.757127 
L 390.140268 151.624344 
L 390.799242 152.394985 
L 391.0189 152.398713 
L 391.677874 153.236895 
L 391.897532 153.663431 
L 392.11719 153.749424 
L 393.21548 154.861233 
L 393.654796 155.178761 
L 394.094112 155.529573 
L 394.533428 156.018214 
L 394.972744 156.374855 
L 395.192403 156.548306 
L 396.071035 157.972773 
L 396.949667 159.627698 
L 397.169325 159.891407 
L 398.047957 160.18608 
L 398.487273 161.052082 
L 398.487273 161.052082 
" clip-path="url(#p1d0e22e8d2)" style="fill: none; stroke: #2ca02c; stroke-opacity: 0.7; stroke-width: 1.5; stroke-linecap: square"/>
   </g>
   <g id="patch_3">
    <path d="M 57.6 307.584 
L 57.6 41.472 
" style="fill: none; stroke: #000000; stroke-width: 0.8; stroke-linejoin: miter; stroke-linecap: square"/>
   </g>
   <g id="patch_4">
    <path d="M 414.72 307.584 
L 414.72 41.472 
" style="fill: none; stroke: #000000; stroke-width: 0.8; stroke-linejoin: miter; stroke-linecap: square"/>
   </g>
   <g id="patch_5">
    <path d="M 57.6 307.584 
L 414.72 307.584 
" style="fill: none; stroke: #000000; stroke-width: 0.8; stroke-linejoin: miter; stroke-linecap: square"/>
   </g>
   <g id="patch_6">
    <path d="M 57.6 41.472 
L 414.72 41.472 
" style="fill: none; stroke: #000000; stroke-width: 0.8; stroke-linejoin: miter; stroke-linecap: square"/>
   </g>
   <g id="text_17">
    <!-- naive_snp500 -->
    <g transform="translate(194.580938 35.472) scale(0.12 -0.12)">
     <defs>
      <path id="DejaVuSans-6e" d="M 3513 2113 
L 3513 0 
L 2938 0 
L 2938 2094 
Q 2938 2591 2744 2837 
Q 2550 3084 2163 3084 
Q 1697 3084 1428 2787 
Q 1159 2491 1159 1978 
L 1159 0 
L 581 0 
L 581 3500 
L 1159 3500 
L 1159 2956 
Q 1366 3272 1645 3428 
Q 1925 3584 2291 3584 
Q 2894 3584 3203 3211 
Q 3513 2838 3513 2113 
z
" transform="scale(0.015625)"/>
      <path id="DejaVuSans-61" d="M 2194 1759 
Q 1497 1759 1228 1600 
Q 959 1441 959 1056 
Q 959 750 1161 570 
Q 1363 391 1709 391 
Q 2188 391 2477 730 
Q 2766 1069 2766 1631 
L 2766 1759 
L 2194 1759 
z
M 3341 1997 
L 3341 0 
L 2766 0 
L 2766 531 
Q 2569 213 2275 61 
Q 1981 -91 1556 -91 
Q 1019 -91 701 211 
Q 384 513 384 1019 
Q 384 1609 779 1909 
Q 1175 2209 1959 2209 
L 2766 2209 
L 2766 2266 
Q 2766 2663 2505 2880 
Q 2244 3097 1772 3097 
Q 1472 3097 1187 3025 
Q 903 2953 641 2809 
L 641 3341 
Q 956 3463 1253 3523 
Q 1550 3584 1831 3584 
Q 2591 3584 2966 3190 
Q 3341 2797 3341 1997 
z
" transform="scale(0.015625)"/>
      <path id="DejaVuSans-69" d="M 603 3500 
L 1178 3500 
L 1178 0 
L 603 0 
L 603 3500 
z
M 603 4863 
L 1178 4863 
L 1178 4134 
L 603 4134 
L 603 4863 
z
" transform="scale(0.015625)"/>
      <path id="DejaVuSans-76" d="M 191 3500 
L 800 3500 
L 1894 563 
L 2988 3500 
L 3597 3500 
L 2284 0 
L 1503 0 
L 191 3500 
z
" transform="scale(0.015625)"/>
      <path id="DejaVuSans-65" d="M 3597 1894 
L 3597 1613 
L 953 1613 
Q 991 1019 1311 708 
Q 1631 397 2203 397 
Q 2534 397 2845 478 
Q 3156 559 3463 722 
L 3463 178 
Q 3153 47 2828 -22 
Q 2503 -91 2169 -91 
Q 1331 -91 842 396 
Q 353 884 353 1716 
Q 353 2575 817 3079 
Q 1281 3584 2069 3584 
Q 2775 3584 3186 3129 
Q 3597 2675 3597 1894 
z
M 3022 2063 
Q 3016 2534 2758 2815 
Q 2500 3097 2075 3097 
Q 1594 3097 1305 2825 
Q 1016 2553 972 2059 
L 3022 2063 
z
" transform="scale(0.015625)"/>
      <path id="DejaVuSans-5f" d="M 3263 -1063 
L 3263 -1509 
L -63 -1509 
L -63 -1063 
L 3263 -1063 
z
" transform="scale(0.015625)"/>
      <path id="DejaVuSans-73" d="M 2834 3397 
L 2834 2853 
Q 2591 2978 2328 3040 
Q 2066 3103 1784 3103 
Q 1356 3103 1142 2972 
Q 928 2841 928 2578 
Q 928 2378 1081 2264 
Q 1234 2150 1697 2047 
L 1894 2003 
Q 2506 1872 2764 1633 
Q 3022 1394 3022 966 
Q 3022 478 2636 193 
Q 2250 -91 1575 -91 
Q 1294 -91 989 -36 
Q 684 19 347 128 
L 347 722 
Q 666 556 975 473 
Q 1284 391 1588 391 
Q 1994 391 2212 530 
Q 2431 669 2431 922 
Q 2431 1156 2273 1281 
Q 2116 1406 1581 1522 
L 1381 1569 
Q 847 1681 609 1914 
Q 372 2147 372 2553 
Q 372 3047 722 3315 
Q 1072 3584 1716 3584 
Q 2034 3584 2315 3537 
Q 2597 3491 2834 3397 
z
" transform="scale(0.015625)"/>
      <path id="DejaVuSans-70" d="M 1159 525 
L 1159 -1331 
L 581 -1331 
L 581 3500 
L 1159 3500 
L 1159 2969 
Q 1341 3281 1617 3432 
Q 1894 3584 2278 3584 
Q 2916 3584 3314 3078 
Q 3713 2572 3713 1747 
Q 3713 922 3314 415 
Q 2916 -91 2278 -91 
Q 1894 -91 1617 61 
Q 1341 213 1159 525 
z
M 3116 1747 
Q 3116 2381 2855 2742 
Q 2594 3103 2138 3103 
Q 1681 3103 1420 2742 
Q 1159 2381 1159 1747 
Q 1159 1113 1420 752 
Q 1681 391 2138 391 
Q 2594 391 2855 752 
Q 3116 1113 3116 1747 
z
" transform="scale(0.015625)"/>
     </defs>
     <use xlink:href="#DejaVuSans-6e"/>
     <use xlink:href="#DejaVuSans-61" x="63.378906"/>
     <use xlink:href="#DejaVuSans-69" x="124.658203"/>
     <use xlink:href="#DejaVuSans-76" x="152.441406"/>
     <use xlink:href="#DejaVuSans-65" x="211.621094"/>
     <use xlink:href="#DejaVuSans-5f" x="273.144531"/>
     <use xlink:href="#DejaVuSans-73" x="323.144531"/>
     <use xlink:href="#DejaVuSans-6e" x="375.244141"/>
     <use xlink:href="#DejaVuSans-70" x="438.623047"/>
     <use xlink:href="#DejaVuSans-35" x="502.099609"/>
     <use xlink:href="#DejaVuSans-30" x="565.722656"/>
     <use xlink:href="#DejaVuSans-30" x="629.345703"/>
    </g>
   </g>
   <g id="legend_1">
    <g id="patch_7">
     <path d="M 64.6 302.584 
L 258.804688 302.584 
Q 260.804688 302.584 260.804688 300.584 
L 260.804688 257.549625 
Q 260.804688 255.549625 258.804688 255.549625 
L 64.6 255.549625 
Q 62.6 255.549625 62.6 257.549625 
L 62.6 300.584 
Q 62.6 302.584 64.6 302.584 
z
" style="fill: #ffffff; opacity: 0.8; stroke: #cccccc; stroke-linejoin: miter"/>
    </g>
    <g id="line2d_20">
     <path d="M 66.6 263.648062 
L 76.6 263.648062 
L 86.6 263.648062 
" style="fill: none; stroke: #1f77b4; stroke-opacity: 0.7; stroke-width: 1.5; stroke-linecap: square"/>
    </g>
    <g id="text_18">
     <!-- Positive cumulative predictions -->
     <g transform="translate(94.6 267.148062) scale(0.1 -0.1)">
      <defs>
       <path id="DejaVuSans-50" d="M 1259 4147 
L 1259 2394 
L 2053 2394 
Q 2494 2394 2734 2622 
Q 2975 2850 2975 3272 
Q 2975 3691 2734 3919 
Q 2494 4147 2053 4147 
L 1259 4147 
z
M 628 4666 
L 2053 4666 
Q 2838 4666 3239 4311 
Q 3641 3956 3641 3272 
Q 3641 2581 3239 2228 
Q 2838 1875 2053 1875 
L 1259 1875 
L 1259 0 
L 628 0 
L 628 4666 
z
" transform="scale(0.015625)"/>
       <path id="DejaVuSans-6f" d="M 1959 3097 
Q 1497 3097 1228 2736 
Q 959 2375 959 1747 
Q 959 1119 1226 758 
Q 1494 397 1959 397 
Q 2419 397 2687 759 
Q 2956 1122 2956 1747 
Q 2956 2369 2687 2733 
Q 2419 3097 1959 3097 
z
M 1959 3584 
Q 2709 3584 3137 3096 
Q 3566 2609 3566 1747 
Q 3566 888 3137 398 
Q 2709 -91 1959 -91 
Q 1206 -91 779 398 
Q 353 888 353 1747 
Q 353 2609 779 3096 
Q 1206 3584 1959 3584 
z
" transform="scale(0.015625)"/>
       <path id="DejaVuSans-74" d="M 1172 4494 
L 1172 3500 
L 2356 3500 
L 2356 3053 
L 1172 3053 
L 1172 1153 
Q 1172 725 1289 603 
Q 1406 481 1766 481 
L 2356 481 
L 2356 0 
L 1766 0 
Q 1100 0 847 248 
Q 594 497 594 1153 
L 594 3053 
L 172 3053 
L 172 3500 
L 594 3500 
L 594 4494 
L 1172 4494 
z
" transform="scale(0.015625)"/>
       <path id="DejaVuSans-20" transform="scale(0.015625)"/>
       <path id="DejaVuSans-63" d="M 3122 3366 
L 3122 2828 
Q 2878 2963 2633 3030 
Q 2388 3097 2138 3097 
Q 1578 3097 1268 2742 
Q 959 2388 959 1747 
Q 959 1106 1268 751 
Q 1578 397 2138 397 
Q 2388 397 2633 464 
Q 2878 531 3122 666 
L 3122 134 
Q 2881 22 2623 -34 
Q 2366 -91 2075 -91 
Q 1284 -91 818 406 
Q 353 903 353 1747 
Q 353 2603 823 3093 
Q 1294 3584 2113 3584 
Q 2378 3584 2631 3529 
Q 2884 3475 3122 3366 
z
" transform="scale(0.015625)"/>
       <path id="DejaVuSans-75" d="M 544 1381 
L 544 3500 
L 1119 3500 
L 1119 1403 
Q 1119 906 1312 657 
Q 1506 409 1894 409 
Q 2359 409 2629 706 
Q 2900 1003 2900 1516 
L 2900 3500 
L 3475 3500 
L 3475 0 
L 2900 0 
L 2900 538 
Q 2691 219 2414 64 
Q 2138 -91 1772 -91 
Q 1169 -91 856 284 
Q 544 659 544 1381 
z
M 1991 3584 
L 1991 3584 
z
" transform="scale(0.015625)"/>
       <path id="DejaVuSans-6d" d="M 3328 2828 
Q 3544 3216 3844 3400 
Q 4144 3584 4550 3584 
Q 5097 3584 5394 3201 
Q 5691 2819 5691 2113 
L 5691 0 
L 5113 0 
L 5113 2094 
Q 5113 2597 4934 2840 
Q 4756 3084 4391 3084 
Q 3944 3084 3684 2787 
Q 3425 2491 3425 1978 
L 3425 0 
L 2847 0 
L 2847 2094 
Q 2847 2600 2669 2842 
Q 2491 3084 2119 3084 
Q 1678 3084 1418 2786 
Q 1159 2488 1159 1978 
L 1159 0 
L 581 0 
L 581 3500 
L 1159 3500 
L 1159 2956 
Q 1356 3278 1631 3431 
Q 1906 3584 2284 3584 
Q 2666 3584 2933 3390 
Q 3200 3197 3328 2828 
z
" transform="scale(0.015625)"/>
       <path id="DejaVuSans-6c" d="M 603 4863 
L 1178 4863 
L 1178 0 
L 603 0 
L 603 4863 
z
" transform="scale(0.015625)"/>
       <path id="DejaVuSans-72" d="M 2631 2963 
Q 2534 3019 2420 3045 
Q 2306 3072 2169 3072 
Q 1681 3072 1420 2755 
Q 1159 2438 1159 1844 
L 1159 0 
L 581 0 
L 581 3500 
L 1159 3500 
L 1159 2956 
Q 1341 3275 1631 3429 
Q 1922 3584 2338 3584 
Q 2397 3584 2469 3576 
Q 2541 3569 2628 3553 
L 2631 2963 
z
" transform="scale(0.015625)"/>
       <path id="DejaVuSans-64" d="M 2906 2969 
L 2906 4863 
L 3481 4863 
L 3481 0 
L 2906 0 
L 2906 525 
Q 2725 213 2448 61 
Q 2172 -91 1784 -91 
Q 1150 -91 751 415 
Q 353 922 353 1747 
Q 353 2572 751 3078 
Q 1150 3584 1784 3584 
Q 2172 3584 2448 3432 
Q 2725 3281 2906 2969 
z
M 947 1747 
Q 947 1113 1208 752 
Q 1469 391 1925 391 
Q 2381 391 2643 752 
Q 2906 1113 2906 1747 
Q 2906 2381 2643 2742 
Q 2381 3103 1925 3103 
Q 1469 3103 1208 2742 
Q 947 2381 947 1747 
z
" transform="scale(0.015625)"/>
      </defs>
      <use xlink:href="#DejaVuSans-50"/>
      <use xlink:href="#DejaVuSans-6f" x="56.677734"/>
      <use xlink:href="#DejaVuSans-73" x="117.859375"/>
      <use xlink:href="#DejaVuSans-69" x="169.958984"/>
      <use xlink:href="#DejaVuSans-74" x="197.742188"/>
      <use xlink:href="#DejaVuSans-69" x="236.951172"/>
      <use xlink:href="#DejaVuSans-76" x="264.734375"/>
      <use xlink:href="#DejaVuSans-65" x="323.914062"/>
      <use xlink:href="#DejaVuSans-20" x="385.4375"/>
      <use xlink:href="#DejaVuSans-63" x="417.224609"/>
      <use xlink:href="#DejaVuSans-75" x="472.205078"/>
      <use xlink:href="#DejaVuSans-6d" x="535.583984"/>
      <use xlink:href="#DejaVuSans-75" x="632.996094"/>
      <use xlink:href="#DejaVuSans-6c" x="696.375"/>
      <use xlink:href="#DejaVuSans-61" x="724.158203"/>
      <use xlink:href="#DejaVuSans-74" x="785.4375"/>
      <use xlink:href="#DejaVuSans-69" x="824.646484"/>
      <use xlink:href="#DejaVuSans-76" x="852.429688"/>
      <use xlink:href="#DejaVuSans-65" x="911.609375"/>
      <use xlink:href="#DejaVuSans-20" x="973.132812"/>
      <use xlink:href="#DejaVuSans-70" x="1004.919922"/>
      <use xlink:href="#DejaVuSans-72" x="1068.396484"/>
      <use xlink:href="#DejaVuSans-65" x="1107.259766"/>
      <use xlink:href="#DejaVuSans-64" x="1168.783203"/>
      <use xlink:href="#DejaVuSans-69" x="1232.259766"/>
      <use xlink:href="#DejaVuSans-63" x="1260.042969"/>
      <use xlink:href="#DejaVuSans-74" x="1315.023438"/>
      <use xlink:href="#DejaVuSans-69" x="1354.232422"/>
      <use xlink:href="#DejaVuSans-6f" x="1382.015625"/>
      <use xlink:href="#DejaVuSans-6e" x="1443.197266"/>
      <use xlink:href="#DejaVuSans-73" x="1506.576172"/>
     </g>
    </g>
    <g id="line2d_21">
     <path d="M 66.6 278.326188 
L 76.6 278.326188 
L 86.6 278.326188 
" style="fill: none; stroke: #ff7f0e; stroke-opacity: 0.7; stroke-width: 1.5; stroke-linecap: square"/>
    </g>
    <g id="text_19">
     <!-- Negative cumulative predictions -->
     <g transform="translate(94.6 281.826188) scale(0.1 -0.1)">
      <defs>
       <path id="DejaVuSans-4e" d="M 628 4666 
L 1478 4666 
L 3547 763 
L 3547 4666 
L 4159 4666 
L 4159 0 
L 3309 0 
L 1241 3903 
L 1241 0 
L 628 0 
L 628 4666 
z
" transform="scale(0.015625)"/>
       <path id="DejaVuSans-67" d="M 2906 1791 
Q 2906 2416 2648 2759 
Q 2391 3103 1925 3103 
Q 1463 3103 1205 2759 
Q 947 2416 947 1791 
Q 947 1169 1205 825 
Q 1463 481 1925 481 
Q 2391 481 2648 825 
Q 2906 1169 2906 1791 
z
M 3481 434 
Q 3481 -459 3084 -895 
Q 2688 -1331 1869 -1331 
Q 1566 -1331 1297 -1286 
Q 1028 -1241 775 -1147 
L 775 -588 
Q 1028 -725 1275 -790 
Q 1522 -856 1778 -856 
Q 2344 -856 2625 -561 
Q 2906 -266 2906 331 
L 2906 616 
Q 2728 306 2450 153 
Q 2172 0 1784 0 
Q 1141 0 747 490 
Q 353 981 353 1791 
Q 353 2603 747 3093 
Q 1141 3584 1784 3584 
Q 2172 3584 2450 3431 
Q 2728 3278 2906 2969 
L 2906 3500 
L 3481 3500 
L 3481 434 
z
" transform="scale(0.015625)"/>
      </defs>
      <use xlink:href="#DejaVuSans-4e"/>
      <use xlink:href="#DejaVuSans-65" x="74.804688"/>
      <use xlink:href="#DejaVuSans-67" x="136.328125"/>
      <use xlink:href="#DejaVuSans-61" x="199.804688"/>
      <use xlink:href="#DejaVuSans-74" x="261.083984"/>
      <use xlink:href="#DejaVuSans-69" x="300.292969"/>
      <use xlink:href="#DejaVuSans-76" x="328.076172"/>
      <use xlink:href="#DejaVuSans-65" x="387.255859"/>
      <use xlink:href="#DejaVuSans-20" x="448.779297"/>
      <use xlink:href="#DejaVuSans-63" x="480.566406"/>
      <use xlink:href="#DejaVuSans-75" x="535.546875"/>
      <use xlink:href="#DejaVuSans-6d" x="598.925781"/>
      <use xlink:href="#DejaVuSans-75" x="696.337891"/>
      <use xlink:href="#DejaVuSans-6c" x="759.716797"/>
      <use xlink:href="#DejaVuSans-61" x="787.5"/>
      <use xlink:href="#DejaVuSans-74" x="848.779297"/>
      <use xlink:href="#DejaVuSans-69" x="887.988281"/>
      <use xlink:href="#DejaVuSans-76" x="915.771484"/>
      <use xlink:href="#DejaVuSans-65" x="974.951172"/>
      <use xlink:href="#DejaVuSans-20" x="1036.474609"/>
      <use xlink:href="#DejaVuSans-70" x="1068.261719"/>
      <use xlink:href="#DejaVuSans-72" x="1131.738281"/>
      <use xlink:href="#DejaVuSans-65" x="1170.601562"/>
      <use xlink:href="#DejaVuSans-64" x="1232.125"/>
      <use xlink:href="#DejaVuSans-69" x="1295.601562"/>
      <use xlink:href="#DejaVuSans-63" x="1323.384766"/>
      <use xlink:href="#DejaVuSans-74" x="1378.365234"/>
      <use xlink:href="#DejaVuSans-69" x="1417.574219"/>
      <use xlink:href="#DejaVuSans-6f" x="1445.357422"/>
      <use xlink:href="#DejaVuSans-6e" x="1506.539062"/>
      <use xlink:href="#DejaVuSans-73" x="1569.917969"/>
     </g>
    </g>
    <g id="line2d_22">
     <path d="M 66.6 293.004312 
L 76.6 293.004312 
L 86.6 293.004312 
" style="fill: none; stroke: #2ca02c; stroke-opacity: 0.7; stroke-width: 1.5; stroke-linecap: square"/>
    </g>
    <g id="text_20">
     <!-- Average cumulative predictions -->
     <g transform="translate(94.6 296.504312) scale(0.1 -0.1)">
      <defs>
       <path id="DejaVuSans-41" d="M 2188 4044 
L 1331 1722 
L 3047 1722 
L 2188 4044 
z
M 1831 4666 
L 2547 4666 
L 4325 0 
L 3669 0 
L 3244 1197 
L 1141 1197 
L 716 0 
L 50 0 
L 1831 4666 
z
" transform="scale(0.015625)"/>
      </defs>
      <use xlink:href="#DejaVuSans-41"/>
      <use xlink:href="#DejaVuSans-76" x="62.533203"/>
      <use xlink:href="#DejaVuSans-65" x="121.712891"/>
      <use xlink:href="#DejaVuSans-72" x="183.236328"/>
      <use xlink:href="#DejaVuSans-61" x="224.349609"/>
      <use xlink:href="#DejaVuSans-67" x="285.628906"/>
      <use xlink:href="#DejaVuSans-65" x="349.105469"/>
      <use xlink:href="#DejaVuSans-20" x="410.628906"/>
      <use xlink:href="#DejaVuSans-63" x="442.416016"/>
      <use xlink:href="#DejaVuSans-75" x="497.396484"/>
      <use xlink:href="#DejaVuSans-6d" x="560.775391"/>
      <use xlink:href="#DejaVuSans-75" x="658.1875"/>
      <use xlink:href="#DejaVuSans-6c" x="721.566406"/>
      <use xlink:href="#DejaVuSans-61" x="749.349609"/>
      <use xlink:href="#DejaVuSans-74" x="810.628906"/>
      <use xlink:href="#DejaVuSans-69" x="849.837891"/>
      <use xlink:href="#DejaVuSans-76" x="877.621094"/>
      <use xlink:href="#DejaVuSans-65" x="936.800781"/>
      <use xlink:href="#DejaVuSans-20" x="998.324219"/>
      <use xlink:href="#DejaVuSans-70" x="1030.111328"/>
      <use xlink:href="#DejaVuSans-72" x="1093.587891"/>
      <use xlink:href="#DejaVuSans-65" x="1132.451172"/>
      <use xlink:href="#DejaVuSans-64" x="1193.974609"/>
      <use xlink:href="#DejaVuSans-69" x="1257.451172"/>
      <use xlink:href="#DejaVuSans-63" x="1285.234375"/>
      <use xlink:href="#DejaVuSans-74" x="1340.214844"/>
      <use xlink:href="#DejaVuSans-69" x="1379.423828"/>
      <use xlink:href="#DejaVuSans-6f" x="1407.207031"/>
      <use xlink:href="#DejaVuSans-6e" x="1468.388672"/>
      <use xlink:href="#DejaVuSans-73" x="1531.767578"/>
     </g>
    </g>
   </g>
  </g>
 </g>
 <defs>
  <clipPath id="p1d0e22e8d2">
   <rect x="57.6" y="41.472" width="357.12" height="266.112"/>
  </clipPath>
 </defs>
</svg>
