<?xml version="1.0" encoding="utf-8" standalone="no"?>
<!DOCTYPE svg PUBLIC "-//W3C//DTD SVG 1.1//EN"
  "http://www.w3.org/Graphics/SVG/1.1/DTD/svg11.dtd">
<svg xmlns:xlink="http://www.w3.org/1999/xlink" width="460.8pt" height="345.6pt" viewBox="0 0 460.8 345.6" xmlns="http://www.w3.org/2000/svg" version="1.1">
 <metadata>
  <rdf:RDF xmlns:dc="http://purl.org/dc/elements/1.1/" xmlns:cc="http://creativecommons.org/ns#" xmlns:rdf="http://www.w3.org/1999/02/22-rdf-syntax-ns#">
   <cc:Work>
    <dc:type rdf:resource="http://purl.org/dc/dcmitype/StillImage"/>
    <dc:date>2024-09-03T16:27:28.529844</dc:date>
    <dc:format>image/svg+xml</dc:format>
    <dc:creator>
     <cc:Agent>
      <dc:title>Matplotlib v3.9.0, https://matplotlib.org/</dc:title>
     </cc:Agent>
    </dc:creator>
   </cc:Work>
  </rdf:RDF>
 </metadata>
 <defs>
  <style type="text/css">*{stroke-linejoin: round; stroke-linecap: butt}</style>
 </defs>
 <g id="figure_1">
  <g id="patch_1">
   <path d="M 0 345.6 
L 460.8 345.6 
L 460.8 0 
L 0 0 
z
" style="fill: #ffffff"/>
  </g>
  <g id="axes_1">
   <g id="patch_2">
    <path d="M 57.6 307.584 
L 414.72 307.584 
L 414.72 41.472 
L 57.6 41.472 
z
" style="fill: #ffffff"/>
   </g>
   <g id="matplotlib.axis_1">
    <g id="xtick_1">
     <g id="line2d_1">
      <defs>
       <path id="m3b541abe1d" d="M 0 0 
L 0 3.5 
" style="stroke: #000000; stroke-width: 0.8"/>
      </defs>
      <g>
       <use xlink:href="#m3b541abe1d" x="73.832727" y="307.584" style="stroke: #000000; stroke-width: 0.8"/>
      </g>
     </g>
     <g id="text_1">
      <!-- 0 -->
      <g transform="translate(70.651477 322.182437) scale(0.1 -0.1)">
       <defs>
        <path id="DejaVuSans-30" d="M 2034 4250 
Q 1547 4250 1301 3770 
Q 1056 3291 1056 2328 
Q 1056 1369 1301 889 
Q 1547 409 2034 409 
Q 2525 409 2770 889 
Q 3016 1369 3016 2328 
Q 3016 3291 2770 3770 
Q 2525 4250 2034 4250 
z
M 2034 4750 
Q 2819 4750 3233 4129 
Q 3647 3509 3647 2328 
Q 3647 1150 3233 529 
Q 2819 -91 2034 -91 
Q 1250 -91 836 529 
Q 422 1150 422 2328 
Q 422 3509 836 4129 
Q 1250 4750 2034 4750 
z
" transform="scale(0.015625)"/>
       </defs>
       <use xlink:href="#DejaVuSans-30"/>
      </g>
     </g>
    </g>
    <g id="xtick_2">
     <g id="line2d_2">
      <g>
       <use xlink:href="#m3b541abe1d" x="149.333784" y="307.584" style="stroke: #000000; stroke-width: 0.8"/>
      </g>
     </g>
     <g id="text_2">
      <!-- 50 -->
      <g transform="translate(142.971284 322.182437) scale(0.1 -0.1)">
       <defs>
        <path id="DejaVuSans-35" d="M 691 4666 
L 3169 4666 
L 3169 4134 
L 1269 4134 
L 1269 2991 
Q 1406 3038 1543 3061 
Q 1681 3084 1819 3084 
Q 2600 3084 3056 2656 
Q 3513 2228 3513 1497 
Q 3513 744 3044 326 
Q 2575 -91 1722 -91 
Q 1428 -91 1123 -41 
Q 819 9 494 109 
L 494 744 
Q 775 591 1075 516 
Q 1375 441 1709 441 
Q 2250 441 2565 725 
Q 2881 1009 2881 1497 
Q 2881 1984 2565 2268 
Q 2250 2553 1709 2553 
Q 1456 2553 1204 2497 
Q 953 2441 691 2322 
L 691 4666 
z
" transform="scale(0.015625)"/>
       </defs>
       <use xlink:href="#DejaVuSans-35"/>
       <use xlink:href="#DejaVuSans-30" x="63.623047"/>
      </g>
     </g>
    </g>
    <g id="xtick_3">
     <g id="line2d_3">
      <g>
       <use xlink:href="#m3b541abe1d" x="224.834841" y="307.584" style="stroke: #000000; stroke-width: 0.8"/>
      </g>
     </g>
     <g id="text_3">
      <!-- 100 -->
      <g transform="translate(215.291091 322.182437) scale(0.1 -0.1)">
       <defs>
        <path id="DejaVuSans-31" d="M 794 531 
L 1825 531 
L 1825 4091 
L 703 3866 
L 703 4441 
L 1819 4666 
L 2450 4666 
L 2450 531 
L 3481 531 
L 3481 0 
L 794 0 
L 794 531 
z
" transform="scale(0.015625)"/>
       </defs>
       <use xlink:href="#DejaVuSans-31"/>
       <use xlink:href="#DejaVuSans-30" x="63.623047"/>
       <use xlink:href="#DejaVuSans-30" x="127.246094"/>
      </g>
     </g>
    </g>
    <g id="xtick_4">
     <g id="line2d_4">
      <g>
       <use xlink:href="#m3b541abe1d" x="300.335899" y="307.584" style="stroke: #000000; stroke-width: 0.8"/>
      </g>
     </g>
     <g id="text_4">
      <!-- 150 -->
      <g transform="translate(290.792149 322.182437) scale(0.1 -0.1)">
       <use xlink:href="#DejaVuSans-31"/>
       <use xlink:href="#DejaVuSans-35" x="63.623047"/>
       <use xlink:href="#DejaVuSans-30" x="127.246094"/>
      </g>
     </g>
    </g>
    <g id="xtick_5">
     <g id="line2d_5">
      <g>
       <use xlink:href="#m3b541abe1d" x="375.836956" y="307.584" style="stroke: #000000; stroke-width: 0.8"/>
      </g>
     </g>
     <g id="text_5">
      <!-- 200 -->
      <g transform="translate(366.293206 322.182437) scale(0.1 -0.1)">
       <defs>
        <path id="DejaVuSans-32" d="M 1228 531 
L 3431 531 
L 3431 0 
L 469 0 
L 469 531 
Q 828 903 1448 1529 
Q 2069 2156 2228 2338 
Q 2531 2678 2651 2914 
Q 2772 3150 2772 3378 
Q 2772 3750 2511 3984 
Q 2250 4219 1831 4219 
Q 1534 4219 1204 4116 
Q 875 4013 500 3803 
L 500 4441 
Q 881 4594 1212 4672 
Q 1544 4750 1819 4750 
Q 2544 4750 2975 4387 
Q 3406 4025 3406 3419 
Q 3406 3131 3298 2873 
Q 3191 2616 2906 2266 
Q 2828 2175 2409 1742 
Q 1991 1309 1228 531 
z
" transform="scale(0.015625)"/>
       </defs>
       <use xlink:href="#DejaVuSans-32"/>
       <use xlink:href="#DejaVuSans-30" x="63.623047"/>
       <use xlink:href="#DejaVuSans-30" x="127.246094"/>
      </g>
     </g>
    </g>
   </g>
   <g id="matplotlib.axis_2">
    <g id="ytick_1">
     <g id="line2d_6">
      <defs>
       <path id="m2f70381fb1" d="M 0 0 
L -3.5 0 
" style="stroke: #000000; stroke-width: 0.8"/>
      </defs>
      <g>
       <use xlink:href="#m2f70381fb1" x="57.6" y="294.034458" style="stroke: #000000; stroke-width: 0.8"/>
      </g>
     </g>
     <g id="text_6">
      <!-- 5000 -->
      <g transform="translate(25.15 297.833676) scale(0.1 -0.1)">
       <use xlink:href="#DejaVuSans-35"/>
       <use xlink:href="#DejaVuSans-30" x="63.623047"/>
       <use xlink:href="#DejaVuSans-30" x="127.246094"/>
       <use xlink:href="#DejaVuSans-30" x="190.869141"/>
      </g>
     </g>
    </g>
    <g id="ytick_2">
     <g id="line2d_7">
      <g>
       <use xlink:href="#m2f70381fb1" x="57.6" y="262.435712" style="stroke: #000000; stroke-width: 0.8"/>
      </g>
     </g>
     <g id="text_7">
      <!-- 5500 -->
      <g transform="translate(25.15 266.23493) scale(0.1 -0.1)">
       <use xlink:href="#DejaVuSans-35"/>
       <use xlink:href="#DejaVuSans-35" x="63.623047"/>
       <use xlink:href="#DejaVuSans-30" x="127.246094"/>
       <use xlink:href="#DejaVuSans-30" x="190.869141"/>
      </g>
     </g>
    </g>
    <g id="ytick_3">
     <g id="line2d_8">
      <g>
       <use xlink:href="#m2f70381fb1" x="57.6" y="230.836966" style="stroke: #000000; stroke-width: 0.8"/>
      </g>
     </g>
     <g id="text_8">
      <!-- 6000 -->
      <g transform="translate(25.15 234.636184) scale(0.1 -0.1)">
       <defs>
        <path id="DejaVuSans-36" d="M 2113 2584 
Q 1688 2584 1439 2293 
Q 1191 2003 1191 1497 
Q 1191 994 1439 701 
Q 1688 409 2113 409 
Q 2538 409 2786 701 
Q 3034 994 3034 1497 
Q 3034 2003 2786 2293 
Q 2538 2584 2113 2584 
z
M 3366 4563 
L 3366 3988 
Q 3128 4100 2886 4159 
Q 2644 4219 2406 4219 
Q 1781 4219 1451 3797 
Q 1122 3375 1075 2522 
Q 1259 2794 1537 2939 
Q 1816 3084 2150 3084 
Q 2853 3084 3261 2657 
Q 3669 2231 3669 1497 
Q 3669 778 3244 343 
Q 2819 -91 2113 -91 
Q 1303 -91 875 529 
Q 447 1150 447 2328 
Q 447 3434 972 4092 
Q 1497 4750 2381 4750 
Q 2619 4750 2861 4703 
Q 3103 4656 3366 4563 
z
" transform="scale(0.015625)"/>
       </defs>
       <use xlink:href="#DejaVuSans-36"/>
       <use xlink:href="#DejaVuSans-30" x="63.623047"/>
       <use xlink:href="#DejaVuSans-30" x="127.246094"/>
       <use xlink:href="#DejaVuSans-30" x="190.869141"/>
      </g>
     </g>
    </g>
    <g id="ytick_4">
     <g id="line2d_9">
      <g>
       <use xlink:href="#m2f70381fb1" x="57.6" y="199.238219" style="stroke: #000000; stroke-width: 0.8"/>
      </g>
     </g>
     <g id="text_9">
      <!-- 6500 -->
      <g transform="translate(25.15 203.037438) scale(0.1 -0.1)">
       <use xlink:href="#DejaVuSans-36"/>
       <use xlink:href="#DejaVuSans-35" x="63.623047"/>
       <use xlink:href="#DejaVuSans-30" x="127.246094"/>
       <use xlink:href="#DejaVuSans-30" x="190.869141"/>
      </g>
     </g>
    </g>
    <g id="ytick_5">
     <g id="line2d_10">
      <g>
       <use xlink:href="#m2f70381fb1" x="57.6" y="167.639473" style="stroke: #000000; stroke-width: 0.8"/>
      </g>
     </g>
     <g id="text_10">
      <!-- 7000 -->
      <g transform="translate(25.15 171.438692) scale(0.1 -0.1)">
       <defs>
        <path id="DejaVuSans-37" d="M 525 4666 
L 3525 4666 
L 3525 4397 
L 1831 0 
L 1172 0 
L 2766 4134 
L 525 4134 
L 525 4666 
z
" transform="scale(0.015625)"/>
       </defs>
       <use xlink:href="#DejaVuSans-37"/>
       <use xlink:href="#DejaVuSans-30" x="63.623047"/>
       <use xlink:href="#DejaVuSans-30" x="127.246094"/>
       <use xlink:href="#DejaVuSans-30" x="190.869141"/>
      </g>
     </g>
    </g>
    <g id="ytick_6">
     <g id="line2d_11">
      <g>
       <use xlink:href="#m2f70381fb1" x="57.6" y="136.040727" style="stroke: #000000; stroke-width: 0.8"/>
      </g>
     </g>
     <g id="text_11">
      <!-- 7500 -->
      <g transform="translate(25.15 139.839946) scale(0.1 -0.1)">
       <use xlink:href="#DejaVuSans-37"/>
       <use xlink:href="#DejaVuSans-35" x="63.623047"/>
       <use xlink:href="#DejaVuSans-30" x="127.246094"/>
       <use xlink:href="#DejaVuSans-30" x="190.869141"/>
      </g>
     </g>
    </g>
    <g id="ytick_7">
     <g id="line2d_12">
      <g>
       <use xlink:href="#m2f70381fb1" x="57.6" y="104.441981" style="stroke: #000000; stroke-width: 0.8"/>
      </g>
     </g>
     <g id="text_12">
      <!-- 8000 -->
      <g transform="translate(25.15 108.2412) scale(0.1 -0.1)">
       <defs>
        <path id="DejaVuSans-38" d="M 2034 2216 
Q 1584 2216 1326 1975 
Q 1069 1734 1069 1313 
Q 1069 891 1326 650 
Q 1584 409 2034 409 
Q 2484 409 2743 651 
Q 3003 894 3003 1313 
Q 3003 1734 2745 1975 
Q 2488 2216 2034 2216 
z
M 1403 2484 
Q 997 2584 770 2862 
Q 544 3141 544 3541 
Q 544 4100 942 4425 
Q 1341 4750 2034 4750 
Q 2731 4750 3128 4425 
Q 3525 4100 3525 3541 
Q 3525 3141 3298 2862 
Q 3072 2584 2669 2484 
Q 3125 2378 3379 2068 
Q 3634 1759 3634 1313 
Q 3634 634 3220 271 
Q 2806 -91 2034 -91 
Q 1263 -91 848 271 
Q 434 634 434 1313 
Q 434 1759 690 2068 
Q 947 2378 1403 2484 
z
M 1172 3481 
Q 1172 3119 1398 2916 
Q 1625 2713 2034 2713 
Q 2441 2713 2670 2916 
Q 2900 3119 2900 3481 
Q 2900 3844 2670 4047 
Q 2441 4250 2034 4250 
Q 1625 4250 1398 4047 
Q 1172 3844 1172 3481 
z
" transform="scale(0.015625)"/>
       </defs>
       <use xlink:href="#DejaVuSans-38"/>
       <use xlink:href="#DejaVuSans-30" x="63.623047"/>
       <use xlink:href="#DejaVuSans-30" x="127.246094"/>
       <use xlink:href="#DejaVuSans-30" x="190.869141"/>
      </g>
     </g>
    </g>
    <g id="ytick_8">
     <g id="line2d_13">
      <g>
       <use xlink:href="#m2f70381fb1" x="57.6" y="72.843235" style="stroke: #000000; stroke-width: 0.8"/>
      </g>
     </g>
     <g id="text_13">
      <!-- 8500 -->
      <g transform="translate(25.15 76.642454) scale(0.1 -0.1)">
       <use xlink:href="#DejaVuSans-38"/>
       <use xlink:href="#DejaVuSans-35" x="63.623047"/>
       <use xlink:href="#DejaVuSans-30" x="127.246094"/>
       <use xlink:href="#DejaVuSans-30" x="190.869141"/>
      </g>
     </g>
    </g>
   </g>
   <g id="line2d_14">
    <path d="M 73.832727 295.488 
L 75.342748 293.939661 
L 76.85277 290.748188 
L 78.362791 291.064176 
L 79.872812 290.432201 
L 81.382833 290.179411 
L 82.892854 290.274207 
L 84.402875 289.168251 
L 85.912896 289.642232 
L 87.422918 286.197969 
L 88.932939 281.552953 
L 90.44296 276.225404 
L 91.952981 277.666307 
L 93.463002 278.36148 
L 94.973023 280.131009 
L 96.483044 277.919097 
L 97.993066 277.065931 
L 99.503087 276.023172 
L 101.013108 273.432075 
L 102.523129 271.978533 
L 104.03315 269.482232 
L 105.543171 269.640226 
L 107.053192 267.681103 
L 108.563214 268.439473 
L 110.073235 268.155085 
L 111.583256 268.10242 
L 113.093277 266.76474 
L 114.603298 266.00637 
L 116.113319 266.417154 
L 117.62334 266.227561 
L 119.133362 266.290759 
L 120.643383 265.911574 
L 122.153404 265.943172 
L 123.663425 266.712075 
L 125.173446 267.01753 
L 126.683467 266.954332 
L 128.193488 267.01753 
L 129.70351 261.803737 
L 131.213531 261.361354 
L 132.723552 263.47847 
L 134.233573 261.108564 
L 137.253615 260.760978 
L 138.763636 261.013768 
L 140.273658 260.129003 
L 141.783679 259.939411 
L 143.2937 258.865053 
L 144.803721 257.19032 
L 146.313742 256.115962 
L 149.333784 252.585931 
L 150.843805 249.891009 
L 152.353827 248.311072 
L 153.863848 247.243034 
L 155.373869 246.889129 
L 156.88389 245.024803 
L 158.393911 245.309191 
L 159.903932 246.383549 
L 161.413953 242.275712 
L 162.923975 239.937404 
L 164.433996 238.957843 
L 165.944017 239.400226 
L 167.454038 240.348188 
L 170.47408 240.727373 
L 171.984101 241.390947 
L 173.494123 239.811009 
L 175.004144 240.379787 
L 176.514165 238.79985 
L 178.024186 238.705053 
L 179.534207 237.978282 
L 181.044228 238.420665 
L 182.554249 237.03032 
L 184.064271 235.008 
L 185.574292 235.412464 
L 187.084313 232.100915 
L 188.594334 230.994959 
L 190.104355 230.868564 
L 191.614376 231.532138 
L 193.124397 230.552577 
L 196.14444 231.97452 
L 197.654461 229.636213 
L 199.164482 230.520978 
L 200.674503 227.329505 
L 202.184524 224.864803 
L 203.694545 224.569881 
L 205.204567 221.778658 
L 206.714588 222.178909 
L 208.224609 223.032075 
L 209.73463 223.032075 
L 211.244651 222.842483 
L 214.264693 216.743925 
L 215.774715 218.165868 
L 217.284736 215.10079 
L 218.794757 215.637969 
L 220.304778 217.028313 
L 221.814799 216.522734 
L 223.32482 216.965116 
L 224.834841 213.362859 
L 226.344863 213.508213 
L 227.854884 212.414897 
L 230.874926 213.931636 
L 232.384947 212.983674 
L 233.894968 212.541292 
L 235.404989 212.57289 
L 236.915011 209.792201 
L 238.425032 202.587687 
L 239.935053 206.727122 
L 241.445074 206.600727 
L 242.955095 206.221542 
L 244.465116 204.51521 
L 245.975137 206.821918 
L 247.485159 199.364614 
L 248.99518 201.639724 
L 250.505201 197.847875 
L 252.015222 201.197342 
L 253.525243 197.46869 
L 255.035264 196.583925 
L 256.545285 190.295774 
L 258.055307 193.834834 
L 259.565328 194.024426 
L 261.075349 194.561605 
L 262.58537 194.340414 
L 264.095391 195.730759 
L 265.605412 194.119223 
L 267.115433 189.210884 
L 268.625455 191.622922 
L 270.135476 191.117342 
L 271.645497 190.042984 
L 273.155518 185.334771 
L 274.665539 186.788313 
L 276.17556 183.34405 
L 277.685581 183.754834 
L 279.195603 181.163737 
L 280.705624 179.931386 
L 282.215645 181.795712 
L 283.725666 177.340288 
L 285.235687 174.759724 
L 286.745708 170.399097 
L 289.765751 163.073455 
L 291.275772 160.252389 
L 292.785793 159.512276 
L 294.295814 155.537154 
L 295.805835 148.162006 
L 297.315856 147.479473 
L 298.825877 147.985053 
L 300.335899 148.301041 
L 301.84592 149.185806 
L 303.355941 149.154207 
L 304.865962 148.111448 
L 306.375983 143.750821 
L 307.886004 141.128125 
L 309.396025 141.138658 
L 310.906047 140.74894 
L 312.416068 135.566746 
L 313.926089 132.859787 
L 315.43611 131.893768 
L 316.946131 127.761856 
L 318.456152 126.213517 
L 319.966173 125.518345 
L 321.476195 124.096401 
L 324.496237 123.62242 
L 326.006258 123.991072 
L 327.516279 123.11684 
L 329.0263 121.410508 
L 330.536321 121.442107 
L 332.046342 118.155837 
L 333.556364 108.044238 
L 335.066385 109.928125 
L 336.576406 112.246871 
L 338.086427 112.752451 
L 339.596448 112.752451 
L 341.106469 114.30079 
L 342.61649 112.689254 
L 344.126512 105.674332 
L 345.636533 108.391824 
L 347.146554 106.401103 
L 348.656575 102.482859 
L 350.166596 99.923361 
L 351.676617 101.756088 
L 353.186638 97.142671 
L 354.69666 98.912201 
L 356.206681 98.849003 
L 357.716702 98.375022 
L 359.226723 97.079473 
L 360.736744 97.269066 
L 362.246765 94.614771 
L 363.756786 91.3601 
L 365.266808 82.512451 
L 366.776829 81.59896 
L 368.28685 69.45427 
L 369.796871 64.69427 
L 371.306892 67.060665 
L 372.816913 71.231699 
L 374.326934 71.358094 
L 375.836956 72.369254 
L 377.346977 70.662922 
L 378.856998 72.685241 
L 380.367019 69.778157 
L 381.87704 69.525367 
L 383.387061 69.051386 
L 384.897082 69.177781 
L 386.407104 67.408251 
L 387.917125 68.387812 
L 389.427146 67.155461 
L 390.937167 62.38405 
L 392.447188 62.13126 
L 393.957209 62.5601 
L 396.977252 61.467687 
L 398.487273 53.694395 
L 398.487273 53.694395 
" clip-path="url(#p6be4d9ce51)" style="fill: none; stroke: #1f77b4; stroke-opacity: 0.7; stroke-width: 0.5; stroke-linecap: square"/>
   </g>
   <g id="line2d_15">
    <path d="M 73.832727 294.382044 
L 75.342748 293.181292 
L 76.85277 290.748188 
L 79.872812 289.484238 
L 81.382833 290.179411 
L 82.892854 289.705429 
L 84.402875 288.94706 
L 85.912896 288.346683 
L 87.422918 286.197969 
L 88.932939 281.552953 
L 90.44296 274.190445 
L 91.952981 277.666307 
L 93.463002 276.181166 
L 94.973023 277.571511 
L 96.483044 277.129129 
L 97.993066 275.422796 
L 99.503087 274.538031 
L 101.013108 273.432075 
L 102.523129 271.78894 
L 104.03315 269.482232 
L 105.543171 269.640226 
L 107.053192 267.428313 
L 108.563214 268.439473 
L 110.073235 266.322357 
L 111.583256 266.25916 
L 113.093277 265.311197 
L 116.113319 265.595586 
L 117.62334 265.469191 
L 119.133362 264.363235 
L 120.643383 264.110445 
L 122.153404 264.047248 
L 123.663425 265.026809 
L 125.173446 265.595586 
L 126.683467 265.563987 
L 128.193488 264.888923 
L 129.70351 261.803737 
L 131.213531 260.413392 
L 132.723552 261.361354 
L 134.233573 261.108564 
L 135.743594 260.982169 
L 137.253615 260.286997 
L 138.763636 259.339034 
L 140.273658 260.129003 
L 143.2937 258.865053 
L 146.313742 255.515586 
L 147.823763 254.251636 
L 149.333784 251.723737 
L 150.843805 249.764614 
L 152.353827 247.457906 
L 153.863848 246.162357 
L 155.373869 245.909567 
L 156.88389 244.708815 
L 158.393911 245.309191 
L 159.903932 244.930006 
L 161.413953 242.275712 
L 162.923975 239.874207 
L 164.433996 238.420665 
L 165.944017 238.231072 
L 167.454038 238.79985 
L 168.964059 240.348188 
L 170.47408 239.242232 
L 171.984101 239.874207 
L 173.494123 239.179034 
L 175.004144 239.400226 
L 176.514165 238.104677 
L 178.024186 237.946683 
L 181.044228 236.891285 
L 182.554249 237.03032 
L 184.064271 235.008 
L 185.574292 234.50242 
L 187.084313 232.100915 
L 188.594334 230.647373 
L 190.104355 230.078596 
L 191.614376 230.331386 
L 193.124397 229.762608 
L 194.634419 230.268188 
L 196.14444 230.405116 
L 197.654461 229.636213 
L 199.164482 230.520978 
L 200.674503 227.329505 
L 202.184524 224.864803 
L 203.694545 224.612013 
L 205.204567 221.578533 
L 206.714588 222.178909 
L 208.224609 221.64173 
L 209.73463 221.64173 
L 211.244651 221.452138 
L 212.754672 219.777404 
L 214.264693 216.743925 
L 215.774715 218.165868 
L 217.284736 215.10079 
L 218.794757 215.637969 
L 220.304778 215.290382 
L 221.814799 214.784803 
L 223.32482 215.163987 
L 224.834841 213.362859 
L 226.344863 212.920476 
L 227.854884 211.846119 
L 229.364905 211.972514 
L 230.874926 212.604489 
L 232.384947 212.994207 
L 233.894968 211.656527 
L 235.404989 212.035712 
L 236.915011 209.792201 
L 238.425032 202.587687 
L 239.935053 203.535649 
L 241.445074 206.063549 
L 242.955095 204.799599 
L 244.465116 202.208502 
L 245.975137 203.472451 
L 247.485159 199.364614 
L 248.99518 199.364614 
L 250.505201 197.847875 
L 252.015222 201.197342 
L 253.525243 197.46869 
L 255.035264 196.20474 
L 256.545285 190.295774 
L 258.055307 191.117342 
L 259.565328 193.708439 
L 261.075349 193.234458 
L 264.095391 193.281856 
L 265.605412 193.550445 
L 267.115433 188.526245 
L 268.625455 189.347812 
L 270.135476 188.842232 
L 271.645497 190.042984 
L 273.155518 185.334771 
L 274.665539 185.208376 
L 276.17556 183.34405 
L 277.685581 183.754834 
L 279.195603 181.163737 
L 280.705624 179.710194 
L 282.215645 180.247373 
L 283.725666 177.340288 
L 285.235687 175.065179 
L 286.745708 167.323486 
L 288.255729 163.531636 
L 291.275772 157.717467 
L 292.785793 156.64311 
L 294.295814 153.799223 
L 295.805835 145.330759 
L 297.315856 144.319599 
L 298.825877 147.985053 
L 300.335899 148.237843 
L 301.84592 148.996213 
L 304.865962 144.846245 
L 306.375983 143.750821 
L 307.886004 141.033329 
L 309.396025 139.958972 
L 310.906047 140.74894 
L 312.416068 135.566746 
L 313.926089 131.585304 
L 315.43611 131.332514 
L 316.946131 125.707937 
L 318.456152 126.213517 
L 319.966173 124.001605 
L 321.476195 122.168878 
L 324.496237 121.789693 
L 326.006258 122.832451 
L 327.516279 121.473705 
L 329.0263 120.936527 
L 330.536321 120.810132 
L 332.046342 118.155837 
L 333.556364 108.044238 
L 335.066385 106.274708 
L 336.576406 107.728251 
L 338.086427 112.27847 
L 339.596448 112.02568 
L 341.106469 110.25615 
L 342.61649 111.836088 
L 344.126512 105.674332 
L 345.636533 105.863925 
L 347.146554 104.599975 
L 348.656575 102.482859 
L 350.166596 99.765367 
L 351.676617 100.081354 
L 353.186638 97.142671 
L 354.69666 97.300665 
L 356.206681 97.237467 
L 357.716702 96.984677 
L 359.226723 96.92148 
L 360.736744 96.226307 
L 362.246765 94.614771 
L 363.756786 91.3601 
L 365.266808 82.72311 
L 366.776829 78.151824 
L 368.28685 63.079223 
L 369.796871 58.908188 
L 371.306892 67.060665 
L 372.816913 70.283737 
L 374.326934 67.566245 
L 375.836956 70.820915 
L 377.346977 67.281856 
L 378.856998 67.661041 
L 380.367019 66.713078 
L 381.87704 64.501166 
L 383.387061 65.259536 
L 384.897082 65.069944 
L 386.407104 66.017906 
L 387.917125 65.385931 
L 389.427146 63.537404 
L 392.447188 61.183298 
L 393.957209 60.424928 
L 395.46723 62.068063 
L 396.977252 60.266934 
L 398.487273 53.694395 
L 398.487273 53.694395 
" clip-path="url(#p6be4d9ce51)" style="fill: none; stroke: #ff7f0e; stroke-opacity: 0.7; stroke-width: 0.5; stroke-linecap: square"/>
   </g>
   <g id="line2d_16">
    <path d="M 73.832727 294.935022 
L 75.342748 293.560476 
L 76.85277 290.748188 
L 78.362791 290.590194 
L 79.872812 289.958219 
L 81.382833 290.179411 
L 82.892854 289.989818 
L 84.402875 289.057655 
L 85.912896 288.994458 
L 87.422918 286.197969 
L 88.932939 281.552953 
L 90.44296 275.207925 
L 91.952981 277.666307 
L 93.463002 277.271323 
L 94.973023 278.85126 
L 97.993066 276.244364 
L 99.503087 275.280602 
L 101.013108 273.432075 
L 102.523129 271.883737 
L 104.03315 269.482232 
L 105.543171 269.640226 
L 107.053192 267.554708 
L 108.563214 268.439473 
L 110.073235 267.238721 
L 111.583256 267.18079 
L 113.093277 266.037969 
L 114.603298 265.706182 
L 116.113319 266.00637 
L 117.62334 265.848376 
L 119.133362 265.326997 
L 120.643383 265.011009 
L 122.153404 264.99521 
L 123.663425 265.869442 
L 125.173446 266.306558 
L 126.683467 266.25916 
L 128.193488 265.953227 
L 129.70351 261.803737 
L 131.213531 260.887373 
L 132.723552 262.419912 
L 134.233573 261.108564 
L 135.743594 260.982169 
L 138.763636 260.176401 
L 140.273658 260.129003 
L 141.783679 259.718219 
L 143.2937 258.865053 
L 144.803721 257.19032 
L 147.823763 254.330633 
L 152.353827 247.884489 
L 153.863848 246.702696 
L 155.373869 246.399348 
L 156.88389 244.866809 
L 159.903932 245.656777 
L 161.413953 242.275712 
L 162.923975 239.905806 
L 164.433996 238.689254 
L 165.944017 238.815649 
L 168.964059 240.442984 
L 170.47408 239.984803 
L 171.984101 240.632577 
L 173.494123 239.495022 
L 175.004144 239.890006 
L 176.514165 238.452263 
L 178.024186 238.325868 
L 179.534207 237.709693 
L 181.044228 237.655975 
L 182.554249 237.03032 
L 184.064271 235.008 
L 185.574292 234.957442 
L 187.084313 232.100915 
L 188.594334 230.821166 
L 190.104355 230.47358 
L 191.614376 230.931762 
L 193.124397 230.157592 
L 194.634419 230.794834 
L 196.14444 231.189818 
L 197.654461 229.636213 
L 199.164482 230.520978 
L 200.674503 227.329505 
L 202.184524 224.864803 
L 203.694545 224.590947 
L 205.204567 221.678596 
L 206.714588 222.178909 
L 208.224609 222.336903 
L 209.73463 222.336903 
L 211.244651 222.14731 
L 212.754672 219.777404 
L 214.264693 216.743925 
L 215.774715 218.165868 
L 217.284736 215.10079 
L 220.304778 216.159348 
L 221.814799 215.653768 
L 223.32482 216.064552 
L 224.834841 213.362859 
L 226.344863 213.214345 
L 227.854884 212.130508 
L 229.364905 212.557091 
L 230.874926 213.268063 
L 232.384947 212.98894 
L 233.894968 212.098909 
L 235.404989 212.304301 
L 236.915011 209.792201 
L 238.425032 202.587687 
L 239.935053 205.131386 
L 241.445074 206.332138 
L 242.955095 205.510571 
L 244.465116 203.361856 
L 245.975137 205.147185 
L 247.485159 199.364614 
L 248.99518 200.502169 
L 250.505201 197.847875 
L 252.015222 201.197342 
L 253.525243 197.46869 
L 255.035264 196.394332 
L 256.545285 190.295774 
L 258.055307 192.476088 
L 259.565328 193.866433 
L 262.58537 193.819034 
L 264.095391 194.506307 
L 265.605412 193.834834 
L 267.115433 188.868564 
L 268.625455 190.485367 
L 270.135476 189.979787 
L 271.645497 190.042984 
L 273.155518 185.334771 
L 274.665539 185.998345 
L 276.17556 183.34405 
L 277.685581 183.754834 
L 279.195603 181.163737 
L 280.705624 179.82079 
L 282.215645 181.021542 
L 283.725666 177.340288 
L 285.235687 174.912451 
L 286.745708 168.861292 
L 289.765751 161.817404 
L 291.275772 158.984928 
L 292.785793 158.077693 
L 294.295814 154.668188 
L 295.805835 146.746382 
L 297.315856 145.899536 
L 298.825877 147.985053 
L 300.335899 148.269442 
L 301.84592 149.091009 
L 303.355941 148.032451 
L 304.865962 146.478846 
L 307.886004 141.080727 
L 309.396025 140.548815 
L 310.906047 140.74894 
L 312.416068 135.566746 
L 313.926089 132.222545 
L 315.43611 131.613141 
L 316.946131 126.734897 
L 318.456152 126.213517 
L 319.966173 124.759975 
L 321.476195 123.132639 
L 324.496237 122.706056 
L 326.006258 123.411762 
L 329.0263 121.173517 
L 330.536321 121.126119 
L 332.046342 118.155837 
L 333.556364 108.044238 
L 335.066385 108.101417 
L 336.576406 109.987561 
L 338.086427 112.515461 
L 341.106469 112.27847 
L 342.61649 112.262671 
L 344.126512 105.674332 
L 345.636533 107.127875 
L 347.146554 105.500539 
L 348.656575 102.482859 
L 350.166596 99.844364 
L 351.676617 100.918721 
L 353.186638 97.142671 
L 354.69666 98.106433 
L 356.206681 98.043235 
L 357.716702 97.67985 
L 359.226723 97.000476 
L 360.736744 96.747687 
L 362.246765 94.614771 
L 363.756786 91.3601 
L 365.266808 82.617781 
L 366.776829 79.875392 
L 368.28685 66.266746 
L 369.796871 61.801229 
L 371.306892 67.060665 
L 372.816913 70.757718 
L 374.326934 69.462169 
L 375.836956 71.595085 
L 377.346977 68.972389 
L 378.856998 70.173141 
L 380.367019 68.245618 
L 381.87704 67.013266 
L 383.387061 67.155461 
L 384.897082 67.123862 
L 386.407104 66.713078 
L 387.917125 66.886871 
L 389.427146 65.346433 
L 390.937167 62.38405 
L 392.447188 61.657279 
L 393.957209 61.492514 
L 395.46723 62.068063 
L 396.977252 60.86731 
L 398.487273 53.694395 
L 398.487273 53.694395 
" clip-path="url(#p6be4d9ce51)" style="fill: none; stroke: #2ca02c; stroke-opacity: 0.7; stroke-width: 0.5; stroke-linecap: square"/>
   </g>
   <g id="line2d_17">
    <path d="M 73.832727 294.540038 
L 75.342748 292.012138 
L 78.362791 290.748188 
L 79.872812 290.369003 
L 81.382833 290.305806 
L 82.892854 289.547436 
L 84.402875 289.610633 
L 85.912896 287.335524 
L 87.422918 283.480476 
L 88.932939 277.476715 
L 90.44296 277.60311 
L 91.952981 278.10869 
L 93.463002 279.499034 
L 94.973023 277.919097 
L 96.483044 277.35032 
L 97.993066 276.465555 
L 99.503087 274.443235 
L 101.013108 272.8001 
L 102.523129 270.588188 
L 104.03315 269.956213 
L 105.543171 268.439473 
L 107.053192 268.439473 
L 108.563214 268.249881 
L 110.073235 268.186683 
L 113.093277 266.417154 
L 114.603298 266.417154 
L 116.113319 266.290759 
L 117.62334 266.290759 
L 119.133362 266.037969 
L 120.643383 265.974771 
L 122.153404 266.543549 
L 123.663425 266.733141 
L 125.173446 266.669944 
L 126.683467 266.733141 
L 128.193488 263.446871 
L 129.70351 262.056527 
L 131.213531 263.004489 
L 132.723552 261.740539 
L 134.233573 261.234959 
L 135.743594 260.918972 
L 137.253615 260.982169 
L 138.763636 260.413392 
L 140.273658 260.097404 
L 141.783679 259.275837 
L 143.2937 257.885492 
L 144.803721 256.305555 
L 146.313742 255.041605 
L 147.823763 252.829693 
L 149.333784 250.870571 
L 150.843805 248.595461 
L 152.353827 247.268313 
L 153.863848 247.015524 
L 155.373869 245.688376 
L 156.88389 245.435586 
L 158.393911 246.067561 
L 161.413953 241.138157 
L 162.923975 239.684614 
L 164.433996 239.495022 
L 165.944017 240.063799 
L 168.964059 240.442984 
L 170.47408 241.074959 
L 171.984101 239.811009 
L 173.494123 240.190194 
L 175.004144 238.79985 
L 176.514165 238.736652 
L 178.024186 238.231072 
L 179.534207 238.357467 
L 181.044228 237.472702 
L 182.554249 235.829567 
L 184.064271 235.323987 
L 185.574292 233.175273 
L 187.084313 231.72173 
L 188.594334 231.152953 
L 190.104355 231.405743 
L 191.614376 230.836966 
L 193.124397 231.342545 
L 194.634419 231.72173 
L 196.14444 230.331386 
L 197.654461 230.457781 
L 199.164482 228.372263 
L 200.674503 226.033956 
L 202.184524 225.085994 
L 203.694545 222.747687 
L 205.204567 222.368502 
L 206.714588 222.810884 
L 208.224609 222.810884 
L 209.73463 222.621292 
L 211.244651 220.725367 
L 212.754672 218.071072 
L 214.264693 218.13427 
L 215.774715 216.11195 
L 217.284736 215.795962 
L 218.794757 216.61753 
L 220.304778 216.11195 
L 221.814799 216.680727 
L 223.32482 214.468815 
L 224.834841 214.026433 
L 226.344863 212.952075 
L 227.854884 213.07847 
L 229.364905 213.647248 
L 232.384947 212.762483 
L 233.894968 212.636088 
L 235.404989 210.740163 
L 236.915011 205.305179 
L 238.425032 206.253141 
L 239.935053 206.126746 
L 241.445074 205.747561 
L 242.955095 204.925994 
L 244.465116 206.189944 
L 245.975137 201.639724 
L 247.485159 201.639724 
L 248.99518 199.111824 
L 250.505201 200.502169 
L 252.015222 198.47985 
L 253.525243 197.2159 
L 255.035264 192.602483 
L 256.545285 193.42405 
L 258.055307 193.613643 
L 259.565328 194.245618 
L 261.075349 194.308815 
L 262.58537 195.256777 
L 264.095391 194.119223 
L 265.605412 190.390571 
L 267.115433 191.212138 
L 270.135476 190.264176 
L 271.645497 186.977906 
L 273.155518 186.851511 
L 274.665539 184.513204 
L 276.17556 184.007624 
L 277.685581 182.111699 
L 279.195603 180.658157 
L 280.705624 181.416527 
L 282.215645 178.699034 
L 283.725666 176.423925 
L 285.235687 170.356966 
L 286.745708 166.565116 
L 289.765751 160.750947 
L 291.275772 159.676589 
L 292.785793 155.758345 
L 294.295814 148.806621 
L 295.805835 147.795461 
L 297.315856 147.921856 
L 298.825877 148.174646 
L 300.335899 148.869818 
L 301.84592 148.806621 
L 303.355941 148.111448 
L 306.375983 142.486871 
L 307.886004 141.412514 
L 309.396025 140.970132 
L 312.416068 133.512828 
L 313.926089 132.059285 
L 315.43611 127.825053 
L 316.946131 126.750696 
L 318.456152 125.929129 
L 319.966173 124.096401 
L 322.986216 123.717216 
L 324.496237 123.970006 
L 326.006258 123.401229 
L 327.516279 122.074082 
L 329.0263 121.947687 
L 330.536321 119.419787 
L 332.046342 111.836088 
L 333.556364 110.066558 
L 335.066385 111.5201 
L 336.576406 112.02568 
L 338.086427 112.02568 
L 339.596448 113.54242 
L 341.106469 112.973643 
L 342.61649 108.107436 
L 344.126512 108.297028 
L 345.636533 107.033078 
L 347.146554 103.999599 
L 348.656575 101.282107 
L 350.166596 101.598094 
L 351.676617 98.627812 
L 353.186638 98.817404 
L 354.69666 98.754207 
L 356.206681 98.501417 
L 357.716702 97.553455 
L 359.226723 97.363862 
L 360.736744 95.531135 
L 362.246765 92.750445 
L 363.756786 85.925116 
L 365.266808 81.564489 
L 366.776829 69.240978 
L 368.28685 65.069944 
L 369.796871 66.397091 
L 371.306892 69.620163 
L 372.816913 69.746558 
L 374.326934 70.757718 
L 375.836956 70.69452 
L 377.346977 71.073705 
L 378.856998 68.166621 
L 380.367019 67.913831 
L 381.87704 68.672201 
L 383.387061 68.798596 
L 384.897082 67.408251 
L 386.407104 66.776276 
L 387.917125 67.029066 
L 389.427146 63.932389 
L 390.937167 62.731636 
L 392.447188 61.973266 
L 393.957209 62.036464 
L 395.46723 61.657279 
L 396.977252 56.34869 
L 398.487273 53.568 
L 398.487273 53.568 
" clip-path="url(#p6be4d9ce51)" style="fill: none; stroke: #d62728; stroke-opacity: 0.7; stroke-width: 0.5; stroke-linecap: square"/>
   </g>
   <g id="patch_3">
    <path d="M 57.6 307.584 
L 57.6 41.472 
" style="fill: none; stroke: #000000; stroke-width: 0.8; stroke-linejoin: miter; stroke-linecap: square"/>
   </g>
   <g id="patch_4">
    <path d="M 414.72 307.584 
L 414.72 41.472 
" style="fill: none; stroke: #000000; stroke-width: 0.8; stroke-linejoin: miter; stroke-linecap: square"/>
   </g>
   <g id="patch_5">
    <path d="M 57.6 307.584 
L 414.72 307.584 
" style="fill: none; stroke: #000000; stroke-width: 0.8; stroke-linejoin: miter; stroke-linecap: square"/>
   </g>
   <g id="patch_6">
    <path d="M 57.6 41.472 
L 414.72 41.472 
" style="fill: none; stroke: #000000; stroke-width: 0.8; stroke-linejoin: miter; stroke-linecap: square"/>
   </g>
   <g id="text_14">
    <!-- naive_simrank_cci -->
    <g transform="translate(181.448438 35.472) scale(0.12 -0.12)">
     <defs>
      <path id="DejaVuSans-6e" d="M 3513 2113 
L 3513 0 
L 2938 0 
L 2938 2094 
Q 2938 2591 2744 2837 
Q 2550 3084 2163 3084 
Q 1697 3084 1428 2787 
Q 1159 2491 1159 1978 
L 1159 0 
L 581 0 
L 581 3500 
L 1159 3500 
L 1159 2956 
Q 1366 3272 1645 3428 
Q 1925 3584 2291 3584 
Q 2894 3584 3203 3211 
Q 3513 2838 3513 2113 
z
" transform="scale(0.015625)"/>
      <path id="DejaVuSans-61" d="M 2194 1759 
Q 1497 1759 1228 1600 
Q 959 1441 959 1056 
Q 959 750 1161 570 
Q 1363 391 1709 391 
Q 2188 391 2477 730 
Q 2766 1069 2766 1631 
L 2766 1759 
L 2194 1759 
z
M 3341 1997 
L 3341 0 
L 2766 0 
L 2766 531 
Q 2569 213 2275 61 
Q 1981 -91 1556 -91 
Q 1019 -91 701 211 
Q 384 513 384 1019 
Q 384 1609 779 1909 
Q 1175 2209 1959 2209 
L 2766 2209 
L 2766 2266 
Q 2766 2663 2505 2880 
Q 2244 3097 1772 3097 
Q 1472 3097 1187 3025 
Q 903 2953 641 2809 
L 641 3341 
Q 956 3463 1253 3523 
Q 1550 3584 1831 3584 
Q 2591 3584 2966 3190 
Q 3341 2797 3341 1997 
z
" transform="scale(0.015625)"/>
      <path id="DejaVuSans-69" d="M 603 3500 
L 1178 3500 
L 1178 0 
L 603 0 
L 603 3500 
z
M 603 4863 
L 1178 4863 
L 1178 4134 
L 603 4134 
L 603 4863 
z
" transform="scale(0.015625)"/>
      <path id="DejaVuSans-76" d="M 191 3500 
L 800 3500 
L 1894 563 
L 2988 3500 
L 3597 3500 
L 2284 0 
L 1503 0 
L 191 3500 
z
" transform="scale(0.015625)"/>
      <path id="DejaVuSans-65" d="M 3597 1894 
L 3597 1613 
L 953 1613 
Q 991 1019 1311 708 
Q 1631 397 2203 397 
Q 2534 397 2845 478 
Q 3156 559 3463 722 
L 3463 178 
Q 3153 47 2828 -22 
Q 2503 -91 2169 -91 
Q 1331 -91 842 396 
Q 353 884 353 1716 
Q 353 2575 817 3079 
Q 1281 3584 2069 3584 
Q 2775 3584 3186 3129 
Q 3597 2675 3597 1894 
z
M 3022 2063 
Q 3016 2534 2758 2815 
Q 2500 3097 2075 3097 
Q 1594 3097 1305 2825 
Q 1016 2553 972 2059 
L 3022 2063 
z
" transform="scale(0.015625)"/>
      <path id="DejaVuSans-5f" d="M 3263 -1063 
L 3263 -1509 
L -63 -1509 
L -63 -1063 
L 3263 -1063 
z
" transform="scale(0.015625)"/>
      <path id="DejaVuSans-73" d="M 2834 3397 
L 2834 2853 
Q 2591 2978 2328 3040 
Q 2066 3103 1784 3103 
Q 1356 3103 1142 2972 
Q 928 2841 928 2578 
Q 928 2378 1081 2264 
Q 1234 2150 1697 2047 
L 1894 2003 
Q 2506 1872 2764 1633 
Q 3022 1394 3022 966 
Q 3022 478 2636 193 
Q 2250 -91 1575 -91 
Q 1294 -91 989 -36 
Q 684 19 347 128 
L 347 722 
Q 666 556 975 473 
Q 1284 391 1588 391 
Q 1994 391 2212 530 
Q 2431 669 2431 922 
Q 2431 1156 2273 1281 
Q 2116 1406 1581 1522 
L 1381 1569 
Q 847 1681 609 1914 
Q 372 2147 372 2553 
Q 372 3047 722 3315 
Q 1072 3584 1716 3584 
Q 2034 3584 2315 3537 
Q 2597 3491 2834 3397 
z
" transform="scale(0.015625)"/>
      <path id="DejaVuSans-6d" d="M 3328 2828 
Q 3544 3216 3844 3400 
Q 4144 3584 4550 3584 
Q 5097 3584 5394 3201 
Q 5691 2819 5691 2113 
L 5691 0 
L 5113 0 
L 5113 2094 
Q 5113 2597 4934 2840 
Q 4756 3084 4391 3084 
Q 3944 3084 3684 2787 
Q 3425 2491 3425 1978 
L 3425 0 
L 2847 0 
L 2847 2094 
Q 2847 2600 2669 2842 
Q 2491 3084 2119 3084 
Q 1678 3084 1418 2786 
Q 1159 2488 1159 1978 
L 1159 0 
L 581 0 
L 581 3500 
L 1159 3500 
L 1159 2956 
Q 1356 3278 1631 3431 
Q 1906 3584 2284 3584 
Q 2666 3584 2933 3390 
Q 3200 3197 3328 2828 
z
" transform="scale(0.015625)"/>
      <path id="DejaVuSans-72" d="M 2631 2963 
Q 2534 3019 2420 3045 
Q 2306 3072 2169 3072 
Q 1681 3072 1420 2755 
Q 1159 2438 1159 1844 
L 1159 0 
L 581 0 
L 581 3500 
L 1159 3500 
L 1159 2956 
Q 1341 3275 1631 3429 
Q 1922 3584 2338 3584 
Q 2397 3584 2469 3576 
Q 2541 3569 2628 3553 
L 2631 2963 
z
" transform="scale(0.015625)"/>
      <path id="DejaVuSans-6b" d="M 581 4863 
L 1159 4863 
L 1159 1991 
L 2875 3500 
L 3609 3500 
L 1753 1863 
L 3688 0 
L 2938 0 
L 1159 1709 
L 1159 0 
L 581 0 
L 581 4863 
z
" transform="scale(0.015625)"/>
      <path id="DejaVuSans-63" d="M 3122 3366 
L 3122 2828 
Q 2878 2963 2633 3030 
Q 2388 3097 2138 3097 
Q 1578 3097 1268 2742 
Q 959 2388 959 1747 
Q 959 1106 1268 751 
Q 1578 397 2138 397 
Q 2388 397 2633 464 
Q 2878 531 3122 666 
L 3122 134 
Q 2881 22 2623 -34 
Q 2366 -91 2075 -91 
Q 1284 -91 818 406 
Q 353 903 353 1747 
Q 353 2603 823 3093 
Q 1294 3584 2113 3584 
Q 2378 3584 2631 3529 
Q 2884 3475 3122 3366 
z
" transform="scale(0.015625)"/>
     </defs>
     <use xlink:href="#DejaVuSans-6e"/>
     <use xlink:href="#DejaVuSans-61" x="63.378906"/>
     <use xlink:href="#DejaVuSans-69" x="124.658203"/>
     <use xlink:href="#DejaVuSans-76" x="152.441406"/>
     <use xlink:href="#DejaVuSans-65" x="211.621094"/>
     <use xlink:href="#DejaVuSans-5f" x="273.144531"/>
     <use xlink:href="#DejaVuSans-73" x="323.144531"/>
     <use xlink:href="#DejaVuSans-69" x="375.244141"/>
     <use xlink:href="#DejaVuSans-6d" x="403.027344"/>
     <use xlink:href="#DejaVuSans-72" x="500.439453"/>
     <use xlink:href="#DejaVuSans-61" x="541.552734"/>
     <use xlink:href="#DejaVuSans-6e" x="602.832031"/>
     <use xlink:href="#DejaVuSans-6b" x="666.210938"/>
     <use xlink:href="#DejaVuSans-5f" x="724.121094"/>
     <use xlink:href="#DejaVuSans-63" x="774.121094"/>
     <use xlink:href="#DejaVuSans-63" x="829.101562"/>
     <use xlink:href="#DejaVuSans-69" x="884.082031"/>
    </g>
   </g>
   <g id="legend_1">
    <g id="patch_7">
     <path d="M 64.6 108.1845 
L 200.035938 108.1845 
Q 202.035938 108.1845 202.035938 106.1845 
L 202.035938 48.472 
Q 202.035938 46.472 200.035938 46.472 
L 64.6 46.472 
Q 62.6 46.472 62.6 48.472 
L 62.6 106.1845 
Q 62.6 108.1845 64.6 108.1845 
z
" style="fill: #ffffff; opacity: 0.8; stroke: #cccccc; stroke-linejoin: miter"/>
    </g>
    <g id="line2d_18">
     <path d="M 66.6 54.570438 
L 76.6 54.570438 
L 86.6 54.570438 
" style="fill: none; stroke: #1f77b4; stroke-opacity: 0.7; stroke-width: 0.5; stroke-linecap: square"/>
    </g>
    <g id="text_15">
     <!-- Positive predictions -->
     <g transform="translate(94.6 58.070438) scale(0.1 -0.1)">
      <defs>
       <path id="DejaVuSans-50" d="M 1259 4147 
L 1259 2394 
L 2053 2394 
Q 2494 2394 2734 2622 
Q 2975 2850 2975 3272 
Q 2975 3691 2734 3919 
Q 2494 4147 2053 4147 
L 1259 4147 
z
M 628 4666 
L 2053 4666 
Q 2838 4666 3239 4311 
Q 3641 3956 3641 3272 
Q 3641 2581 3239 2228 
Q 2838 1875 2053 1875 
L 1259 1875 
L 1259 0 
L 628 0 
L 628 4666 
z
" transform="scale(0.015625)"/>
       <path id="DejaVuSans-6f" d="M 1959 3097 
Q 1497 3097 1228 2736 
Q 959 2375 959 1747 
Q 959 1119 1226 758 
Q 1494 397 1959 397 
Q 2419 397 2687 759 
Q 2956 1122 2956 1747 
Q 2956 2369 2687 2733 
Q 2419 3097 1959 3097 
z
M 1959 3584 
Q 2709 3584 3137 3096 
Q 3566 2609 3566 1747 
Q 3566 888 3137 398 
Q 2709 -91 1959 -91 
Q 1206 -91 779 398 
Q 353 888 353 1747 
Q 353 2609 779 3096 
Q 1206 3584 1959 3584 
z
" transform="scale(0.015625)"/>
       <path id="DejaVuSans-74" d="M 1172 4494 
L 1172 3500 
L 2356 3500 
L 2356 3053 
L 1172 3053 
L 1172 1153 
Q 1172 725 1289 603 
Q 1406 481 1766 481 
L 2356 481 
L 2356 0 
L 1766 0 
Q 1100 0 847 248 
Q 594 497 594 1153 
L 594 3053 
L 172 3053 
L 172 3500 
L 594 3500 
L 594 4494 
L 1172 4494 
z
" transform="scale(0.015625)"/>
       <path id="DejaVuSans-20" transform="scale(0.015625)"/>
       <path id="DejaVuSans-70" d="M 1159 525 
L 1159 -1331 
L 581 -1331 
L 581 3500 
L 1159 3500 
L 1159 2969 
Q 1341 3281 1617 3432 
Q 1894 3584 2278 3584 
Q 2916 3584 3314 3078 
Q 3713 2572 3713 1747 
Q 3713 922 3314 415 
Q 2916 -91 2278 -91 
Q 1894 -91 1617 61 
Q 1341 213 1159 525 
z
M 3116 1747 
Q 3116 2381 2855 2742 
Q 2594 3103 2138 3103 
Q 1681 3103 1420 2742 
Q 1159 2381 1159 1747 
Q 1159 1113 1420 752 
Q 1681 391 2138 391 
Q 2594 391 2855 752 
Q 3116 1113 3116 1747 
z
" transform="scale(0.015625)"/>
       <path id="DejaVuSans-64" d="M 2906 2969 
L 2906 4863 
L 3481 4863 
L 3481 0 
L 2906 0 
L 2906 525 
Q 2725 213 2448 61 
Q 2172 -91 1784 -91 
Q 1150 -91 751 415 
Q 353 922 353 1747 
Q 353 2572 751 3078 
Q 1150 3584 1784 3584 
Q 2172 3584 2448 3432 
Q 2725 3281 2906 2969 
z
M 947 1747 
Q 947 1113 1208 752 
Q 1469 391 1925 391 
Q 2381 391 2643 752 
Q 2906 1113 2906 1747 
Q 2906 2381 2643 2742 
Q 2381 3103 1925 3103 
Q 1469 3103 1208 2742 
Q 947 2381 947 1747 
z
" transform="scale(0.015625)"/>
      </defs>
      <use xlink:href="#DejaVuSans-50"/>
      <use xlink:href="#DejaVuSans-6f" x="56.677734"/>
      <use xlink:href="#DejaVuSans-73" x="117.859375"/>
      <use xlink:href="#DejaVuSans-69" x="169.958984"/>
      <use xlink:href="#DejaVuSans-74" x="197.742188"/>
      <use xlink:href="#DejaVuSans-69" x="236.951172"/>
      <use xlink:href="#DejaVuSans-76" x="264.734375"/>
      <use xlink:href="#DejaVuSans-65" x="323.914062"/>
      <use xlink:href="#DejaVuSans-20" x="385.4375"/>
      <use xlink:href="#DejaVuSans-70" x="417.224609"/>
      <use xlink:href="#DejaVuSans-72" x="480.701172"/>
      <use xlink:href="#DejaVuSans-65" x="519.564453"/>
      <use xlink:href="#DejaVuSans-64" x="581.087891"/>
      <use xlink:href="#DejaVuSans-69" x="644.564453"/>
      <use xlink:href="#DejaVuSans-63" x="672.347656"/>
      <use xlink:href="#DejaVuSans-74" x="727.328125"/>
      <use xlink:href="#DejaVuSans-69" x="766.537109"/>
      <use xlink:href="#DejaVuSans-6f" x="794.320312"/>
      <use xlink:href="#DejaVuSans-6e" x="855.501953"/>
      <use xlink:href="#DejaVuSans-73" x="918.880859"/>
     </g>
    </g>
    <g id="line2d_19">
     <path d="M 66.6 69.248563 
L 76.6 69.248563 
L 86.6 69.248563 
" style="fill: none; stroke: #ff7f0e; stroke-opacity: 0.7; stroke-width: 0.5; stroke-linecap: square"/>
    </g>
    <g id="text_16">
     <!-- Negative predictions -->
     <g transform="translate(94.6 72.748563) scale(0.1 -0.1)">
      <defs>
       <path id="DejaVuSans-4e" d="M 628 4666 
L 1478 4666 
L 3547 763 
L 3547 4666 
L 4159 4666 
L 4159 0 
L 3309 0 
L 1241 3903 
L 1241 0 
L 628 0 
L 628 4666 
z
" transform="scale(0.015625)"/>
       <path id="DejaVuSans-67" d="M 2906 1791 
Q 2906 2416 2648 2759 
Q 2391 3103 1925 3103 
Q 1463 3103 1205 2759 
Q 947 2416 947 1791 
Q 947 1169 1205 825 
Q 1463 481 1925 481 
Q 2391 481 2648 825 
Q 2906 1169 2906 1791 
z
M 3481 434 
Q 3481 -459 3084 -895 
Q 2688 -1331 1869 -1331 
Q 1566 -1331 1297 -1286 
Q 1028 -1241 775 -1147 
L 775 -588 
Q 1028 -725 1275 -790 
Q 1522 -856 1778 -856 
Q 2344 -856 2625 -561 
Q 2906 -266 2906 331 
L 2906 616 
Q 2728 306 2450 153 
Q 2172 0 1784 0 
Q 1141 0 747 490 
Q 353 981 353 1791 
Q 353 2603 747 3093 
Q 1141 3584 1784 3584 
Q 2172 3584 2450 3431 
Q 2728 3278 2906 2969 
L 2906 3500 
L 3481 3500 
L 3481 434 
z
" transform="scale(0.015625)"/>
      </defs>
      <use xlink:href="#DejaVuSans-4e"/>
      <use xlink:href="#DejaVuSans-65" x="74.804688"/>
      <use xlink:href="#DejaVuSans-67" x="136.328125"/>
      <use xlink:href="#DejaVuSans-61" x="199.804688"/>
      <use xlink:href="#DejaVuSans-74" x="261.083984"/>
      <use xlink:href="#DejaVuSans-69" x="300.292969"/>
      <use xlink:href="#DejaVuSans-76" x="328.076172"/>
      <use xlink:href="#DejaVuSans-65" x="387.255859"/>
      <use xlink:href="#DejaVuSans-20" x="448.779297"/>
      <use xlink:href="#DejaVuSans-70" x="480.566406"/>
      <use xlink:href="#DejaVuSans-72" x="544.042969"/>
      <use xlink:href="#DejaVuSans-65" x="582.90625"/>
      <use xlink:href="#DejaVuSans-64" x="644.429688"/>
      <use xlink:href="#DejaVuSans-69" x="707.90625"/>
      <use xlink:href="#DejaVuSans-63" x="735.689453"/>
      <use xlink:href="#DejaVuSans-74" x="790.669922"/>
      <use xlink:href="#DejaVuSans-69" x="829.878906"/>
      <use xlink:href="#DejaVuSans-6f" x="857.662109"/>
      <use xlink:href="#DejaVuSans-6e" x="918.84375"/>
      <use xlink:href="#DejaVuSans-73" x="982.222656"/>
     </g>
    </g>
    <g id="line2d_20">
     <path d="M 66.6 83.926688 
L 76.6 83.926688 
L 86.6 83.926688 
" style="fill: none; stroke: #2ca02c; stroke-opacity: 0.7; stroke-width: 0.5; stroke-linecap: square"/>
    </g>
    <g id="text_17">
     <!-- Average predictions -->
     <g transform="translate(94.6 87.426688) scale(0.1 -0.1)">
      <defs>
       <path id="DejaVuSans-41" d="M 2188 4044 
L 1331 1722 
L 3047 1722 
L 2188 4044 
z
M 1831 4666 
L 2547 4666 
L 4325 0 
L 3669 0 
L 3244 1197 
L 1141 1197 
L 716 0 
L 50 0 
L 1831 4666 
z
" transform="scale(0.015625)"/>
      </defs>
      <use xlink:href="#DejaVuSans-41"/>
      <use xlink:href="#DejaVuSans-76" x="62.533203"/>
      <use xlink:href="#DejaVuSans-65" x="121.712891"/>
      <use xlink:href="#DejaVuSans-72" x="183.236328"/>
      <use xlink:href="#DejaVuSans-61" x="224.349609"/>
      <use xlink:href="#DejaVuSans-67" x="285.628906"/>
      <use xlink:href="#DejaVuSans-65" x="349.105469"/>
      <use xlink:href="#DejaVuSans-20" x="410.628906"/>
      <use xlink:href="#DejaVuSans-70" x="442.416016"/>
      <use xlink:href="#DejaVuSans-72" x="505.892578"/>
      <use xlink:href="#DejaVuSans-65" x="544.755859"/>
      <use xlink:href="#DejaVuSans-64" x="606.279297"/>
      <use xlink:href="#DejaVuSans-69" x="669.755859"/>
      <use xlink:href="#DejaVuSans-63" x="697.539062"/>
      <use xlink:href="#DejaVuSans-74" x="752.519531"/>
      <use xlink:href="#DejaVuSans-69" x="791.728516"/>
      <use xlink:href="#DejaVuSans-6f" x="819.511719"/>
      <use xlink:href="#DejaVuSans-6e" x="880.693359"/>
      <use xlink:href="#DejaVuSans-73" x="944.072266"/>
     </g>
    </g>
    <g id="line2d_21">
     <path d="M 66.6 98.604813 
L 76.6 98.604813 
L 86.6 98.604813 
" style="fill: none; stroke: #d62728; stroke-opacity: 0.7; stroke-width: 0.5; stroke-linecap: square"/>
    </g>
    <g id="text_18">
     <!-- Actual values -->
     <g transform="translate(94.6 102.104813) scale(0.1 -0.1)">
      <defs>
       <path id="DejaVuSans-75" d="M 544 1381 
L 544 3500 
L 1119 3500 
L 1119 1403 
Q 1119 906 1312 657 
Q 1506 409 1894 409 
Q 2359 409 2629 706 
Q 2900 1003 2900 1516 
L 2900 3500 
L 3475 3500 
L 3475 0 
L 2900 0 
L 2900 538 
Q 2691 219 2414 64 
Q 2138 -91 1772 -91 
Q 1169 -91 856 284 
Q 544 659 544 1381 
z
M 1991 3584 
L 1991 3584 
z
" transform="scale(0.015625)"/>
       <path id="DejaVuSans-6c" d="M 603 4863 
L 1178 4863 
L 1178 0 
L 603 0 
L 603 4863 
z
" transform="scale(0.015625)"/>
      </defs>
      <use xlink:href="#DejaVuSans-41"/>
      <use xlink:href="#DejaVuSans-63" x="66.658203"/>
      <use xlink:href="#DejaVuSans-74" x="121.638672"/>
      <use xlink:href="#DejaVuSans-75" x="160.847656"/>
      <use xlink:href="#DejaVuSans-61" x="224.226562"/>
      <use xlink:href="#DejaVuSans-6c" x="285.505859"/>
      <use xlink:href="#DejaVuSans-20" x="313.289062"/>
      <use xlink:href="#DejaVuSans-76" x="345.076172"/>
      <use xlink:href="#DejaVuSans-61" x="404.255859"/>
      <use xlink:href="#DejaVuSans-6c" x="465.535156"/>
      <use xlink:href="#DejaVuSans-75" x="493.318359"/>
      <use xlink:href="#DejaVuSans-65" x="556.697266"/>
      <use xlink:href="#DejaVuSans-73" x="618.220703"/>
     </g>
    </g>
   </g>
  </g>
 </g>
 <defs>
  <clipPath id="p6be4d9ce51">
   <rect x="57.6" y="41.472" width="357.12" height="266.112"/>
  </clipPath>
 </defs>
</svg>
