<?xml version="1.0" encoding="utf-8" standalone="no"?>
<!DOCTYPE svg PUBLIC "-//W3C//DTD SVG 1.1//EN"
  "http://www.w3.org/Graphics/SVG/1.1/DTD/svg11.dtd">
<svg xmlns:xlink="http://www.w3.org/1999/xlink" width="460.8pt" height="345.6pt" viewBox="0 0 460.8 345.6" xmlns="http://www.w3.org/2000/svg" version="1.1">
 <metadata>
  <rdf:RDF xmlns:dc="http://purl.org/dc/elements/1.1/" xmlns:cc="http://creativecommons.org/ns#" xmlns:rdf="http://www.w3.org/1999/02/22-rdf-syntax-ns#">
   <cc:Work>
    <dc:type rdf:resource="http://purl.org/dc/dcmitype/StillImage"/>
    <dc:date>2024-05-30T15:03:01.010995</dc:date>
    <dc:format>image/svg+xml</dc:format>
    <dc:creator>
     <cc:Agent>
      <dc:title>Matplotlib v3.9.0, https://matplotlib.org/</dc:title>
     </cc:Agent>
    </dc:creator>
   </cc:Work>
  </rdf:RDF>
 </metadata>
 <defs>
  <style type="text/css">*{stroke-linejoin: round; stroke-linecap: butt}</style>
 </defs>
 <g id="figure_1">
  <g id="patch_1">
   <path d="M 0 345.6 
L 460.8 345.6 
L 460.8 0 
L 0 0 
z
" style="fill: #ffffff"/>
  </g>
  <g id="axes_1">
   <g id="patch_2">
    <path d="M 57.6 307.584 
L 414.72 307.584 
L 414.72 41.472 
L 57.6 41.472 
z
" style="fill: #ffffff"/>
   </g>
   <g id="matplotlib.axis_1">
    <g id="xtick_1">
     <g id="line2d_1">
      <defs>
       <path id="mb24bf2fe22" d="M 0 0 
L 0 3.5 
" style="stroke: #000000; stroke-width: 0.8"/>
      </defs>
      <g>
       <use xlink:href="#mb24bf2fe22" x="73.832727" y="307.584" style="stroke: #000000; stroke-width: 0.8"/>
      </g>
     </g>
     <g id="text_1">
      <!-- 0 -->
      <g transform="translate(70.651477 322.182437) scale(0.1 -0.1)">
       <defs>
        <path id="DejaVuSans-30" d="M 2034 4250 
Q 1547 4250 1301 3770 
Q 1056 3291 1056 2328 
Q 1056 1369 1301 889 
Q 1547 409 2034 409 
Q 2525 409 2770 889 
Q 3016 1369 3016 2328 
Q 3016 3291 2770 3770 
Q 2525 4250 2034 4250 
z
M 2034 4750 
Q 2819 4750 3233 4129 
Q 3647 3509 3647 2328 
Q 3647 1150 3233 529 
Q 2819 -91 2034 -91 
Q 1250 -91 836 529 
Q 422 1150 422 2328 
Q 422 3509 836 4129 
Q 1250 4750 2034 4750 
z
" transform="scale(0.015625)"/>
       </defs>
       <use xlink:href="#DejaVuSans-30"/>
      </g>
     </g>
    </g>
    <g id="xtick_2">
     <g id="line2d_2">
      <g>
       <use xlink:href="#mb24bf2fe22" x="116.18818" y="307.584" style="stroke: #000000; stroke-width: 0.8"/>
      </g>
     </g>
     <g id="text_2">
      <!-- 200 -->
      <g transform="translate(106.64443 322.182437) scale(0.1 -0.1)">
       <defs>
        <path id="DejaVuSans-32" d="M 1228 531 
L 3431 531 
L 3431 0 
L 469 0 
L 469 531 
Q 828 903 1448 1529 
Q 2069 2156 2228 2338 
Q 2531 2678 2651 2914 
Q 2772 3150 2772 3378 
Q 2772 3750 2511 3984 
Q 2250 4219 1831 4219 
Q 1534 4219 1204 4116 
Q 875 4013 500 3803 
L 500 4441 
Q 881 4594 1212 4672 
Q 1544 4750 1819 4750 
Q 2544 4750 2975 4387 
Q 3406 4025 3406 3419 
Q 3406 3131 3298 2873 
Q 3191 2616 2906 2266 
Q 2828 2175 2409 1742 
Q 1991 1309 1228 531 
z
" transform="scale(0.015625)"/>
       </defs>
       <use xlink:href="#DejaVuSans-32"/>
       <use xlink:href="#DejaVuSans-30" x="63.623047"/>
       <use xlink:href="#DejaVuSans-30" x="127.246094"/>
      </g>
     </g>
    </g>
    <g id="xtick_3">
     <g id="line2d_3">
      <g>
       <use xlink:href="#mb24bf2fe22" x="158.543633" y="307.584" style="stroke: #000000; stroke-width: 0.8"/>
      </g>
     </g>
     <g id="text_3">
      <!-- 400 -->
      <g transform="translate(148.999883 322.182437) scale(0.1 -0.1)">
       <defs>
        <path id="DejaVuSans-34" d="M 2419 4116 
L 825 1625 
L 2419 1625 
L 2419 4116 
z
M 2253 4666 
L 3047 4666 
L 3047 1625 
L 3713 1625 
L 3713 1100 
L 3047 1100 
L 3047 0 
L 2419 0 
L 2419 1100 
L 313 1100 
L 313 1709 
L 2253 4666 
z
" transform="scale(0.015625)"/>
       </defs>
       <use xlink:href="#DejaVuSans-34"/>
       <use xlink:href="#DejaVuSans-30" x="63.623047"/>
       <use xlink:href="#DejaVuSans-30" x="127.246094"/>
      </g>
     </g>
    </g>
    <g id="xtick_4">
     <g id="line2d_4">
      <g>
       <use xlink:href="#mb24bf2fe22" x="200.899086" y="307.584" style="stroke: #000000; stroke-width: 0.8"/>
      </g>
     </g>
     <g id="text_4">
      <!-- 600 -->
      <g transform="translate(191.355336 322.182437) scale(0.1 -0.1)">
       <defs>
        <path id="DejaVuSans-36" d="M 2113 2584 
Q 1688 2584 1439 2293 
Q 1191 2003 1191 1497 
Q 1191 994 1439 701 
Q 1688 409 2113 409 
Q 2538 409 2786 701 
Q 3034 994 3034 1497 
Q 3034 2003 2786 2293 
Q 2538 2584 2113 2584 
z
M 3366 4563 
L 3366 3988 
Q 3128 4100 2886 4159 
Q 2644 4219 2406 4219 
Q 1781 4219 1451 3797 
Q 1122 3375 1075 2522 
Q 1259 2794 1537 2939 
Q 1816 3084 2150 3084 
Q 2853 3084 3261 2657 
Q 3669 2231 3669 1497 
Q 3669 778 3244 343 
Q 2819 -91 2113 -91 
Q 1303 -91 875 529 
Q 447 1150 447 2328 
Q 447 3434 972 4092 
Q 1497 4750 2381 4750 
Q 2619 4750 2861 4703 
Q 3103 4656 3366 4563 
z
" transform="scale(0.015625)"/>
       </defs>
       <use xlink:href="#DejaVuSans-36"/>
       <use xlink:href="#DejaVuSans-30" x="63.623047"/>
       <use xlink:href="#DejaVuSans-30" x="127.246094"/>
      </g>
     </g>
    </g>
    <g id="xtick_5">
     <g id="line2d_5">
      <g>
       <use xlink:href="#mb24bf2fe22" x="243.254538" y="307.584" style="stroke: #000000; stroke-width: 0.8"/>
      </g>
     </g>
     <g id="text_5">
      <!-- 800 -->
      <g transform="translate(233.710788 322.182437) scale(0.1 -0.1)">
       <defs>
        <path id="DejaVuSans-38" d="M 2034 2216 
Q 1584 2216 1326 1975 
Q 1069 1734 1069 1313 
Q 1069 891 1326 650 
Q 1584 409 2034 409 
Q 2484 409 2743 651 
Q 3003 894 3003 1313 
Q 3003 1734 2745 1975 
Q 2488 2216 2034 2216 
z
M 1403 2484 
Q 997 2584 770 2862 
Q 544 3141 544 3541 
Q 544 4100 942 4425 
Q 1341 4750 2034 4750 
Q 2731 4750 3128 4425 
Q 3525 4100 3525 3541 
Q 3525 3141 3298 2862 
Q 3072 2584 2669 2484 
Q 3125 2378 3379 2068 
Q 3634 1759 3634 1313 
Q 3634 634 3220 271 
Q 2806 -91 2034 -91 
Q 1263 -91 848 271 
Q 434 634 434 1313 
Q 434 1759 690 2068 
Q 947 2378 1403 2484 
z
M 1172 3481 
Q 1172 3119 1398 2916 
Q 1625 2713 2034 2713 
Q 2441 2713 2670 2916 
Q 2900 3119 2900 3481 
Q 2900 3844 2670 4047 
Q 2441 4250 2034 4250 
Q 1625 4250 1398 4047 
Q 1172 3844 1172 3481 
z
" transform="scale(0.015625)"/>
       </defs>
       <use xlink:href="#DejaVuSans-38"/>
       <use xlink:href="#DejaVuSans-30" x="63.623047"/>
       <use xlink:href="#DejaVuSans-30" x="127.246094"/>
      </g>
     </g>
    </g>
    <g id="xtick_6">
     <g id="line2d_6">
      <g>
       <use xlink:href="#mb24bf2fe22" x="285.609991" y="307.584" style="stroke: #000000; stroke-width: 0.8"/>
      </g>
     </g>
     <g id="text_6">
      <!-- 1000 -->
      <g transform="translate(272.884991 322.182437) scale(0.1 -0.1)">
       <defs>
        <path id="DejaVuSans-31" d="M 794 531 
L 1825 531 
L 1825 4091 
L 703 3866 
L 703 4441 
L 1819 4666 
L 2450 4666 
L 2450 531 
L 3481 531 
L 3481 0 
L 794 0 
L 794 531 
z
" transform="scale(0.015625)"/>
       </defs>
       <use xlink:href="#DejaVuSans-31"/>
       <use xlink:href="#DejaVuSans-30" x="63.623047"/>
       <use xlink:href="#DejaVuSans-30" x="127.246094"/>
       <use xlink:href="#DejaVuSans-30" x="190.869141"/>
      </g>
     </g>
    </g>
    <g id="xtick_7">
     <g id="line2d_7">
      <g>
       <use xlink:href="#mb24bf2fe22" x="327.965444" y="307.584" style="stroke: #000000; stroke-width: 0.8"/>
      </g>
     </g>
     <g id="text_7">
      <!-- 1200 -->
      <g transform="translate(315.240444 322.182437) scale(0.1 -0.1)">
       <use xlink:href="#DejaVuSans-31"/>
       <use xlink:href="#DejaVuSans-32" x="63.623047"/>
       <use xlink:href="#DejaVuSans-30" x="127.246094"/>
       <use xlink:href="#DejaVuSans-30" x="190.869141"/>
      </g>
     </g>
    </g>
    <g id="xtick_8">
     <g id="line2d_8">
      <g>
       <use xlink:href="#mb24bf2fe22" x="370.320897" y="307.584" style="stroke: #000000; stroke-width: 0.8"/>
      </g>
     </g>
     <g id="text_8">
      <!-- 1400 -->
      <g transform="translate(357.595897 322.182437) scale(0.1 -0.1)">
       <use xlink:href="#DejaVuSans-31"/>
       <use xlink:href="#DejaVuSans-34" x="63.623047"/>
       <use xlink:href="#DejaVuSans-30" x="127.246094"/>
       <use xlink:href="#DejaVuSans-30" x="190.869141"/>
      </g>
     </g>
    </g>
    <g id="xtick_9">
     <g id="line2d_9">
      <g>
       <use xlink:href="#mb24bf2fe22" x="412.676349" y="307.584" style="stroke: #000000; stroke-width: 0.8"/>
      </g>
     </g>
     <g id="text_9">
      <!-- 1600 -->
      <g transform="translate(399.951349 322.182437) scale(0.1 -0.1)">
       <use xlink:href="#DejaVuSans-31"/>
       <use xlink:href="#DejaVuSans-36" x="63.623047"/>
       <use xlink:href="#DejaVuSans-30" x="127.246094"/>
       <use xlink:href="#DejaVuSans-30" x="190.869141"/>
      </g>
     </g>
    </g>
   </g>
   <g id="matplotlib.axis_2">
    <g id="ytick_1">
     <g id="line2d_10">
      <defs>
       <path id="m73d8ef6948" d="M 0 0 
L -3.5 0 
" style="stroke: #000000; stroke-width: 0.8"/>
      </defs>
      <g>
       <use xlink:href="#m73d8ef6948" x="57.6" y="287.098954" style="stroke: #000000; stroke-width: 0.8"/>
      </g>
     </g>
     <g id="text_10">
      <!-- −4 -->
      <g transform="translate(35.857813 290.898173) scale(0.1 -0.1)">
       <defs>
        <path id="DejaVuSans-2212" d="M 678 2272 
L 4684 2272 
L 4684 1741 
L 678 1741 
L 678 2272 
z
" transform="scale(0.015625)"/>
       </defs>
       <use xlink:href="#DejaVuSans-2212"/>
       <use xlink:href="#DejaVuSans-34" x="83.789062"/>
      </g>
     </g>
    </g>
    <g id="ytick_2">
     <g id="line2d_11">
      <g>
       <use xlink:href="#m73d8ef6948" x="57.6" y="245.776681" style="stroke: #000000; stroke-width: 0.8"/>
      </g>
     </g>
     <g id="text_11">
      <!-- −2 -->
      <g transform="translate(35.857813 249.5759) scale(0.1 -0.1)">
       <use xlink:href="#DejaVuSans-2212"/>
       <use xlink:href="#DejaVuSans-32" x="83.789062"/>
      </g>
     </g>
    </g>
    <g id="ytick_3">
     <g id="line2d_12">
      <g>
       <use xlink:href="#m73d8ef6948" x="57.6" y="204.454408" style="stroke: #000000; stroke-width: 0.8"/>
      </g>
     </g>
     <g id="text_12">
      <!-- 0 -->
      <g transform="translate(44.2375 208.253627) scale(0.1 -0.1)">
       <use xlink:href="#DejaVuSans-30"/>
      </g>
     </g>
    </g>
    <g id="ytick_4">
     <g id="line2d_13">
      <g>
       <use xlink:href="#m73d8ef6948" x="57.6" y="163.132136" style="stroke: #000000; stroke-width: 0.8"/>
      </g>
     </g>
     <g id="text_13">
      <!-- 2 -->
      <g transform="translate(44.2375 166.931354) scale(0.1 -0.1)">
       <use xlink:href="#DejaVuSans-32"/>
      </g>
     </g>
    </g>
    <g id="ytick_5">
     <g id="line2d_14">
      <g>
       <use xlink:href="#m73d8ef6948" x="57.6" y="121.809863" style="stroke: #000000; stroke-width: 0.8"/>
      </g>
     </g>
     <g id="text_14">
      <!-- 4 -->
      <g transform="translate(44.2375 125.609082) scale(0.1 -0.1)">
       <use xlink:href="#DejaVuSans-34"/>
      </g>
     </g>
    </g>
    <g id="ytick_6">
     <g id="line2d_15">
      <g>
       <use xlink:href="#m73d8ef6948" x="57.6" y="80.48759" style="stroke: #000000; stroke-width: 0.8"/>
      </g>
     </g>
     <g id="text_15">
      <!-- 6 -->
      <g transform="translate(44.2375 84.286809) scale(0.1 -0.1)">
       <use xlink:href="#DejaVuSans-36"/>
      </g>
     </g>
    </g>
   </g>
   <g id="line2d_16">
    <path d="M 73.832727 204.158819 
L 74.256282 203.940825 
L 74.891614 204.424471 
L 75.103391 204.441518 
L 75.738723 203.998291 
L 76.797609 202.888674 
L 77.432941 203.040454 
L 77.644718 203.171877 
L 78.068273 202.976016 
L 78.28005 202.957566 
L 78.703604 203.034686 
L 79.974268 202.50282 
L 80.186045 202.549601 
L 80.397822 202.801536 
L 80.6096 202.856884 
L 82.515595 201.755449 
L 83.362704 201.703607 
L 83.998036 201.907047 
L 84.209813 201.927902 
L 84.845145 201.290165 
L 85.904031 199.55287 
L 86.962918 197.387747 
L 87.386472 196.92787 
L 87.598249 196.821167 
L 88.021804 195.995046 
L 89.292468 193.08015 
L 89.716022 192.682435 
L 90.139577 191.574131 
L 90.563131 191.389659 
L 91.198463 190.137868 
L 92.469126 188.938091 
L 93.73979 185.520362 
L 93.951567 185.426617 
L 94.163345 185.544803 
L 94.375122 185.060456 
L 94.798676 184.749753 
L 95.222231 184.887332 
L 95.645785 184.987944 
L 95.857563 184.698067 
L 96.06934 184.767752 
L 96.704672 184.421531 
L 97.128226 183.972872 
L 97.340004 183.852341 
L 97.975335 182.80565 
L 98.610667 182.640258 
L 98.822444 182.689405 
L 99.245999 182.527825 
L 99.881331 182.51983 
L 100.72844 181.818025 
L 100.940217 181.690056 
L 101.151994 181.414771 
L 102.210881 179.186726 
L 102.634435 178.968522 
L 103.269767 179.531224 
L 103.693321 180.28783 
L 104.116876 180.475412 
L 104.963985 179.795374 
L 105.175762 179.44342 
L 106.022871 178.965719 
L 106.234649 178.95616 
L 106.446426 179.068067 
L 106.86998 179.108964 
L 107.505312 179.355823 
L 107.717089 179.137299 
L 108.140644 179.209835 
L 108.352421 178.965149 
L 108.987753 177.276514 
L 109.19953 177.03435 
L 109.623085 175.67695 
L 110.470194 175.033161 
L 111.317303 175.08586 
L 112.799744 173.499184 
L 113.223298 173.002491 
L 113.85863 172.498752 
L 114.282185 172.468814 
L 114.705739 172.553111 
L 115.129294 172.04823 
L 115.552848 171.376397 
L 115.976403 170.907582 
L 116.399957 170.834201 
L 116.611735 170.576903 
L 117.247066 170.550417 
L 117.882398 170.115817 
L 118.305953 170.104201 
L 119.153062 169.860687 
L 119.364839 169.930958 
L 119.788394 169.713444 
L 120.211948 169.706575 
L 120.635503 169.573965 
L 121.270834 169.682529 
L 121.694389 169.468658 
L 122.541498 169.385107 
L 122.753275 169.557812 
L 123.600384 167.528234 
L 123.812162 167.624793 
L 124.447493 166.421115 
L 124.871048 165.177452 
L 126.565266 163.921059 
L 127.200598 163.875087 
L 127.624152 164.033879 
L 128.259484 163.994431 
L 128.683039 163.6296 
L 129.953702 162.346015 
L 130.800811 162.180486 
L 131.224366 162.057729 
L 131.436143 162.129501 
L 132.283252 161.947104 
L 132.706807 161.637952 
L 133.130361 161.022757 
L 133.553916 160.713446 
L 134.189247 160.73059 
L 134.612802 160.905405 
L 134.824579 161.157066 
L 135.036357 161.232562 
L 135.883466 160.795501 
L 136.730575 159.979965 
L 137.789461 159.539931 
L 138.63657 159.497109 
L 139.060125 159.418346 
L 139.907234 158.967517 
L 140.542565 158.189932 
L 141.601452 158.119052 
L 142.025006 158.177735 
L 143.083893 158.255696 
L 143.719224 158.04335 
L 144.354556 157.882223 
L 145.201665 157.774007 
L 145.62522 157.6917 
L 146.472329 158.22159 
L 147.319438 157.466936 
L 147.742992 156.885294 
L 148.378324 155.572852 
L 148.590101 154.85774 
L 149.225433 155.439622 
L 149.860765 155.759533 
L 150.707874 155.271309 
L 151.343206 154.571992 
L 151.978538 154.321128 
L 152.402092 154.067482 
L 153.037424 153.898102 
L 153.460978 153.693458 
L 154.09631 153.294466 
L 154.519865 153.093898 
L 155.155197 152.59758 
L 155.578751 152.823733 
L 156.214083 152.886669 
L 156.637637 152.809469 
L 157.272969 152.314762 
L 158.120078 151.604253 
L 159.178965 151.187133 
L 159.814296 150.334696 
L 160.237851 150.075167 
L 160.661405 149.936281 
L 162.355624 149.407993 
L 163.41451 148.544495 
L 164.049842 148.131173 
L 165.108728 147.955387 
L 165.74406 148.136267 
L 166.379392 148.304654 
L 166.591169 148.322769 
L 166.802946 148.529663 
L 168.285387 148.176053 
L 168.708941 148.339058 
L 168.920719 148.069322 
L 169.344273 147.970757 
L 169.767828 147.672599 
L 170.40316 147.142065 
L 170.826714 146.954377 
L 171.8856 147.065705 
L 173.156264 146.467346 
L 174.003373 146.642456 
L 174.638705 146.738321 
L 175.274037 147.165635 
L 175.485814 146.966464 
L 175.909368 147.094913 
L 176.332923 147.056296 
L 177.391809 146.944399 
L 178.662473 147.485056 
L 178.87425 147.053822 
L 179.297805 145.770372 
L 179.721359 144.835854 
L 179.933136 144.796306 
L 180.144914 144.397186 
L 180.568468 144.273596 
L 181.627355 143.76187 
L 182.262686 143.318124 
L 182.686241 143.335435 
L 183.109795 143.319246 
L 183.745127 142.907291 
L 184.380459 142.195235 
L 184.804014 141.713973 
L 185.015791 141.577674 
L 185.651123 140.740219 
L 186.286454 140.523234 
L 186.710009 140.705499 
L 187.133563 141.393417 
L 187.768895 142.715499 
L 188.19245 143.974735 
L 188.404227 144.450234 
L 189.251336 143.302852 
L 189.674891 142.355364 
L 190.310222 139.613926 
L 190.522 139.186093 
L 190.945554 138.922451 
L 191.157331 139.155955 
L 191.792663 139.199548 
L 192.427995 138.275615 
L 192.639772 138.24328 
L 193.063327 137.788937 
L 193.486881 137.609675 
L 193.698659 137.728627 
L 193.910436 137.666505 
L 194.122213 137.47109 
L 194.545768 137.373516 
L 194.757545 137.244321 
L 195.181099 136.732323 
L 195.816431 136.394856 
L 196.028209 136.458463 
L 196.66354 136.888542 
L 196.875318 136.825319 
L 198.145981 135.555776 
L 198.569536 135.312891 
L 199.204867 135.708773 
L 199.840199 135.371077 
L 200.263754 135.504284 
L 201.32264 136.814229 
L 202.805081 140.553314 
L 203.016858 140.840242 
L 203.228635 140.93554 
L 203.65219 140.635581 
L 203.863967 140.430411 
L 204.499299 140.460895 
L 205.134631 140.235441 
L 206.193517 140.226953 
L 206.405294 140.261763 
L 206.828849 140.445181 
L 207.252403 140.632777 
L 207.675958 141.147419 
L 207.887735 141.315893 
L 208.099513 141.224156 
L 208.31129 140.838808 
L 208.523067 140.973181 
L 208.734844 140.898345 
L 208.946622 140.955058 
L 209.581953 142.510999 
L 210.429062 144.752682 
L 210.64084 145.649176 
L 210.852617 145.782411 
L 211.276171 147.12663 
L 211.487949 147.532384 
L 211.911503 147.370095 
L 212.335058 147.404344 
L 212.546835 147.53281 
L 212.758612 147.848997 
L 214.241053 147.669573 
L 214.664608 147.952465 
L 215.088162 147.877168 
L 215.935271 147.461924 
L 216.358826 147.265364 
L 216.994158 147.337183 
L 217.417712 147.237549 
L 217.629489 147.207365 
L 218.053044 146.761866 
L 218.688376 145.701049 
L 219.11193 145.650687 
L 219.747262 145.590568 
L 219.959039 145.706982 
L 220.170817 145.691245 
L 221.017926 146.192216 
L 222.076812 145.349746 
L 223.135698 145.643341 
L 223.559253 145.46464 
L 224.194585 144.695791 
L 224.406362 144.784577 
L 224.618139 144.704942 
L 225.677025 145.319099 
L 225.888803 145.353791 
L 226.312357 145.660838 
L 228.006575 146.21997 
L 229.277239 147.45959 
L 229.489016 147.990462 
L 229.700793 148.155486 
L 229.912571 148.464693 
L 230.124348 149.068693 
L 230.971457 149.344087 
L 231.183234 149.663672 
L 232.242121 150.29667 
L 232.453898 150.695046 
L 232.665675 150.763569 
L 233.08923 151.156247 
L 233.301007 151.059128 
L 233.936339 151.266117 
L 234.148116 151.48159 
L 234.359893 151.528346 
L 235.207002 150.906257 
L 235.41878 150.710884 
L 235.842334 150.074105 
L 236.265889 149.826256 
L 236.689443 149.77353 
L 237.112998 149.704608 
L 237.536552 149.392944 
L 237.748329 149.320228 
L 239.018993 148.007136 
L 239.654325 148.216186 
L 240.289657 148.090282 
L 240.713211 147.892393 
L 241.348543 147.884521 
L 241.772097 147.913637 
L 242.619207 147.26077 
L 243.042761 146.528742 
L 243.466316 145.666658 
L 244.313425 144.858055 
L 244.525202 144.64046 
L 244.736979 144.683717 
L 245.795866 143.712963 
L 246.642975 142.741606 
L 247.278306 142.191301 
L 247.490084 142.174876 
L 247.913638 142.455498 
L 248.125415 142.353653 
L 250.031411 143.734302 
L 250.243188 143.677484 
L 251.090297 144.468026 
L 251.302074 144.600441 
L 251.937406 144.49274 
L 252.360961 144.201405 
L 252.996292 144.476934 
L 253.631624 144.509961 
L 253.843402 144.594965 
L 254.055179 144.807898 
L 254.690511 145.044099 
L 255.53762 145.427266 
L 256.384729 145.409009 
L 256.808283 145.161725 
L 257.655392 144.920395 
L 258.078947 144.62226 
L 258.290724 144.525304 
L 259.561388 142.426228 
L 259.984942 142.214304 
L 260.408497 142.048472 
L 262.102715 140.628908 
L 262.314492 140.610736 
L 262.738047 140.222278 
L 263.796933 139.240129 
L 264.644042 138.358044 
L 265.491151 138.288062 
L 265.914706 138.107693 
L 266.126483 138.006297 
L 266.973592 136.642874 
L 267.185369 136.544288 
L 267.608924 136.572991 
L 268.456033 135.979779 
L 269.514919 136.160147 
L 269.938474 135.822349 
L 270.150251 135.738371 
L 270.785583 135.949976 
L 271.209137 135.899401 
L 271.844469 135.611283 
L 272.479801 135.457178 
L 273.32691 134.791871 
L 274.174019 134.404434 
L 274.809351 133.574259 
L 275.232905 133.192957 
L 275.868237 132.716578 
L 276.927123 132.312422 
L 277.138901 132.353087 
L 277.350678 132.230316 
L 278.197787 132.369114 
L 278.621341 132.284766 
L 278.833119 132.416429 
L 279.256673 132.033269 
L 280.31556 131.360018 
L 280.527337 131.351167 
L 281.374446 130.065627 
L 282.009778 128.867821 
L 283.068664 127.112689 
L 283.492218 126.625537 
L 284.339328 126.341705 
L 284.762882 125.904662 
L 284.974659 125.938524 
L 286.880655 124.472627 
L 287.092432 124.517589 
L 288.363096 123.983015 
L 288.574873 123.983913 
L 289.421982 123.405089 
L 290.057314 123.322931 
L 290.480868 123.625753 
L 291.1162 123.53542 
L 292.386864 122.536924 
L 292.810418 121.842709 
L 293.022195 121.632985 
L 293.44575 121.541574 
L 293.869304 122.049704 
L 294.716413 122.805404 
L 295.139968 122.584905 
L 295.563523 122.547529 
L 295.7753 122.500626 
L 295.987077 122.314263 
L 296.198854 121.759097 
L 296.622409 121.494595 
L 297.893072 119.629236 
L 298.528404 117.77088 
L 298.740181 117.760283 
L 299.799068 116.08176 
L 300.010845 116.197339 
L 300.857954 115.578352 
L 301.281509 115.32687 
L 301.493286 115.257232 
L 301.705063 115.361537 
L 301.91684 115.654408 
L 302.340395 115.404879 
L 302.975727 114.575557 
L 303.611059 113.782488 
L 303.822836 113.511675 
L 304.034613 113.42506 
L 305.728831 111.303596 
L 306.152386 109.974164 
L 306.57594 108.632297 
L 306.999495 107.67174 
L 307.211272 107.741452 
L 308.270158 107.166473 
L 308.90549 106.092962 
L 309.117267 106.075776 
L 309.329045 105.822249 
L 309.540822 105.794181 
L 309.964376 106.090388 
L 310.176154 106.375266 
L 310.387931 106.259803 
L 311.23504 106.494569 
L 311.446817 106.222492 
L 311.870372 106.233317 
L 312.717481 105.67897 
L 313.56459 104.055648 
L 314.411699 103.319043 
L 314.623476 103.360583 
L 315.047031 103.298059 
L 315.258808 103.275093 
L 315.89414 102.609055 
L 316.317694 102.048566 
L 317.800135 97.517886 
L 318.22369 97.080383 
L 318.435467 97.072666 
L 318.859022 97.218512 
L 319.494353 97.467799 
L 319.917908 96.954024 
L 320.341462 96.712494 
L 320.55324 96.696649 
L 320.976794 96.132334 
L 321.823903 95.340853 
L 322.247458 95.488124 
L 322.459235 95.312187 
L 323.518121 93.498216 
L 324.153453 92.162364 
L 324.788785 91.184666 
L 325.212339 91.05195 
L 325.847671 90.192807 
L 326.059448 89.890732 
L 326.483003 89.720028 
L 326.906558 89.880719 
L 327.118335 89.621046 
L 327.330112 89.582711 
L 327.541889 89.401974 
L 327.965444 89.379935 
L 328.177221 89.248138 
L 328.812553 87.746024 
L 329.447885 86.118563 
L 329.659662 85.84796 
L 330.083217 85.954705 
L 330.294994 86.514734 
L 330.506771 86.703636 
L 330.718548 86.653099 
L 331.35388 86.01879 
L 331.777435 85.566352 
L 331.989212 85.501475 
L 332.412766 85.750792 
L 332.836321 85.629528 
L 333.048098 85.700155 
L 333.471653 86.162799 
L 333.68343 86.612624 
L 333.895207 86.690587 
L 334.106985 86.642057 
L 334.530539 85.856035 
L 335.165871 84.701061 
L 335.377648 84.876723 
L 335.589425 84.623659 
L 336.01298 84.789109 
L 336.648312 86.713563 
L 336.860089 86.746893 
L 337.707198 84.03014 
L 337.918975 84.168858 
L 338.554307 82.999856 
L 338.766084 82.927016 
L 338.977862 83.057164 
L 339.401416 83.753092 
L 340.248525 81.712963 
L 340.460302 81.887149 
L 341.095634 80.284673 
L 341.519189 79.592 
L 341.730966 79.590313 
L 342.154521 79.77901 
L 342.578075 79.796214 
L 343.425184 79.819162 
L 343.848739 80.074333 
L 344.060516 78.625911 
L 344.272293 78.547197 
L 344.48407 78.270034 
L 344.907625 78.468182 
L 345.119402 78.591476 
L 345.33118 78.1142 
L 345.542957 77.147077 
L 345.754734 76.99635 
L 345.966511 76.257344 
L 346.178289 76.150162 
L 346.390066 75.851041 
L 346.81362 75.947056 
L 347.025398 76.015725 
L 347.448952 75.675751 
L 347.660729 75.816078 
L 347.872507 75.202691 
L 348.296061 75.177162 
L 348.507838 75.510316 
L 348.931393 73.999374 
L 349.14317 73.06544 
L 349.990279 71.928893 
L 350.413834 71.577584 
L 351.896275 69.845756 
L 352.319829 69.165999 
L 352.531606 68.856429 
L 352.743384 68.814825 
L 353.166938 68.331622 
L 353.378716 68.27243 
L 353.80227 67.592764 
L 354.014047 67.518574 
L 354.437602 67.678686 
L 354.649379 67.614782 
L 355.072934 67.097284 
L 355.496488 67.130682 
L 355.708265 67.259094 
L 356.13182 67.894121 
L 356.555374 68.08914 
L 357.190706 68.665607 
L 357.402484 68.638572 
L 358.46137 69.20381 
L 358.884924 69.283643 
L 359.520256 69.696276 
L 359.732033 69.575693 
L 361.002697 69.650138 
L 361.426252 69.814144 
L 362.273361 69.775358 
L 362.908692 69.683429 
L 363.544024 69.262676 
L 363.967579 68.776215 
L 364.391133 68.348163 
L 364.814688 67.671715 
L 365.45002 67.030029 
L 366.508906 65.789459 
L 366.720683 65.697494 
L 367.356015 65.036476 
L 368.626679 64.638141 
L 369.473788 65.45135 
L 369.897342 65.952183 
L 370.109119 66.039609 
L 371.59156 65.589622 
L 372.015115 65.353574 
L 372.438669 65.595782 
L 372.650447 65.755153 
L 373.074001 66.625824 
L 373.285778 66.324066 
L 373.497556 66.863847 
L 373.92111 67.177411 
L 374.344665 67.078868 
L 374.556442 66.895134 
L 374.768219 66.922529 
L 375.191774 66.456973 
L 375.403551 65.852128 
L 376.25066 65.014436 
L 376.674215 64.854574 
L 377.733101 63.956955 
L 379.003764 62.309629 
L 379.215542 62.295712 
L 379.850874 61.926603 
L 380.486205 62.00013 
L 381.756869 60.455151 
L 382.392201 60.167516 
L 383.027532 59.505738 
L 383.451087 59.197213 
L 383.874642 58.802197 
L 384.721751 57.516683 
L 385.145305 56.899687 
L 385.56886 56.266065 
L 385.780637 56.308246 
L 386.415969 55.842888 
L 386.627746 55.752585 
L 387.263078 55.044808 
L 387.686632 54.776006 
L 388.957296 53.988939 
L 389.38085 53.688085 
L 390.016182 53.568 
L 390.227959 53.680766 
L 390.439737 53.645097 
L 391.498623 54.056748 
L 391.922178 54.579075 
L 392.133955 54.64198 
L 392.769287 55.537021 
L 393.192841 55.84759 
L 393.404618 56.037804 
L 393.616396 55.869162 
L 394.03995 56.031683 
L 395.734168 54.181553 
L 395.945946 54.119818 
L 396.157723 54.217125 
L 396.3695 54.536272 
L 396.793055 54.839775 
L 398.487273 56.546479 
L 398.487273 56.546479 
" clip-path="url(#p635e5669da)" style="fill: none; stroke: #1f77b4; stroke-opacity: 0.7; stroke-width: 1.5; stroke-linecap: square"/>
   </g>
   <g id="line2d_17">
    <path d="M 73.832727 204.604271 
L 74.044505 204.694808 
L 74.256282 204.908817 
L 74.891614 206.035186 
L 75.103391 206.265892 
L 76.374054 206.501003 
L 76.585832 206.351067 
L 77.009386 206.560647 
L 77.221163 206.745866 
L 77.644718 207.458183 
L 78.28005 207.868018 
L 78.703604 208.395999 
L 79.338936 208.718818 
L 79.550713 208.61673 
L 80.186045 209.093623 
L 80.6096 209.755219 
L 81.033154 209.894686 
L 81.456709 209.807889 
L 82.303818 209.464416 
L 82.93915 209.873696 
L 83.362704 209.909174 
L 84.209813 210.406492 
L 84.845145 210.049328 
L 85.692254 208.75234 
L 86.75114 206.220846 
L 89.08069 198.863484 
L 90.986686 191.489596 
L 91.622017 190.01732 
L 91.833795 189.551019 
L 92.045572 189.682273 
L 92.257349 189.413317 
L 92.469126 189.445028 
L 92.892681 188.369995 
L 93.316236 187.814762 
L 93.73979 187.565495 
L 94.375122 187.617167 
L 94.798676 187.223741 
L 95.222231 187.262269 
L 95.857563 187.316059 
L 96.492895 187.874662 
L 98.39889 188.441275 
L 98.610667 188.502937 
L 98.822444 188.685023 
L 99.245999 188.638039 
L 99.669553 188.800712 
L 99.881331 188.812965 
L 101.151994 187.774167 
L 102.210881 185.482224 
L 102.634435 185.013555 
L 103.481544 185.101222 
L 104.328653 186.042091 
L 105.811094 186.55763 
L 106.234649 186.857415 
L 106.658203 187.302836 
L 107.505312 188.483934 
L 108.564199 190.076671 
L 109.19953 190.003535 
L 109.623085 189.792603 
L 110.893748 189.268071 
L 111.52908 189.242423 
L 112.164412 188.64194 
L 112.587967 188.176762 
L 113.646853 186.367947 
L 114.493962 186.010783 
L 114.705739 186.028631 
L 115.129294 185.675095 
L 115.552848 185.141913 
L 115.976403 184.841375 
L 116.823512 185.186275 
L 117.035289 185.172526 
L 117.458844 185.009395 
L 117.670621 184.925713 
L 118.51773 185.172713 
L 119.153062 185.268255 
L 119.576616 185.371871 
L 120.423725 185.365819 
L 120.84728 185.536937 
L 121.059057 185.671735 
L 121.270834 185.944768 
L 121.694389 186.191317 
L 122.965052 187.269926 
L 123.17683 187.185373 
L 123.600384 187.407238 
L 124.871048 188.817217 
L 125.50638 188.971656 
L 126.777043 188.661112 
L 127.412375 189.064879 
L 128.259484 189.451684 
L 128.894816 189.113679 
L 129.530148 188.49722 
L 130.165479 187.969086 
L 131.224366 187.748112 
L 131.859698 187.878723 
L 132.283252 187.828924 
L 132.918584 187.468465 
L 133.342138 187.142588 
L 133.97747 187.038438 
L 134.612802 187.088141 
L 135.036357 187.400928 
L 135.459911 187.321013 
L 135.883466 187.130596 
L 136.942352 186.49889 
L 137.577684 186.36923 
L 138.424793 186.552971 
L 139.060125 186.745125 
L 139.483679 186.648156 
L 139.907234 186.614916 
L 140.542565 186.056576 
L 141.601452 185.840345 
L 145.201665 185.590837 
L 145.62522 185.505987 
L 146.684106 186.41214 
L 147.531215 187.347122 
L 148.590101 187.699744 
L 149.43721 188.934505 
L 149.860765 189.366645 
L 150.496097 189.48987 
L 150.707874 189.514591 
L 151.978538 188.985714 
L 152.190315 188.947032 
L 152.613869 188.693881 
L 153.037424 188.548497 
L 154.731642 187.250815 
L 155.155197 186.818154 
L 155.578751 186.976548 
L 156.849415 187.105302 
L 157.908301 186.427827 
L 158.331856 186.294518 
L 158.967187 186.061573 
L 159.390742 185.67129 
L 159.814296 185.189942 
L 161.08496 184.542081 
L 162.355624 184.560848 
L 162.990955 184.384357 
L 164.049842 183.612175 
L 165.532283 183.719757 
L 166.379392 184.235644 
L 167.650055 185.882558 
L 168.285387 186.196441 
L 169.344273 187.14397 
L 169.767828 187.094542 
L 171.250269 186.503553 
L 172.309155 186.337139 
L 173.368041 186.175616 
L 174.21515 186.802532 
L 174.638705 187.103194 
L 175.697591 188.361902 
L 176.332923 188.55614 
L 177.391809 188.85891 
L 178.238918 189.718307 
L 179.086027 189.9031 
L 179.933136 189.830399 
L 180.356691 189.843584 
L 182.050909 188.822585 
L 182.474464 188.523146 
L 183.321573 188.372155 
L 183.956904 187.795258 
L 184.380459 187.249228 
L 186.074677 184.10614 
L 186.498232 183.605592 
L 186.921786 183.782463 
L 187.768895 185.30139 
L 188.404227 187.429177 
L 188.827782 188.204104 
L 189.251336 188.695466 
L 189.674891 188.485168 
L 190.098445 187.009448 
L 190.522 186.364636 
L 190.733777 186.203066 
L 190.945554 186.234367 
L 191.157331 186.47316 
L 191.792663 186.343422 
L 192.427995 185.395178 
L 192.639772 185.398324 
L 193.275104 185.065428 
L 193.486881 185.012703 
L 193.698659 185.142472 
L 194.969322 184.959449 
L 195.392877 184.773766 
L 195.816431 184.781711 
L 196.028209 184.843762 
L 196.66354 185.517336 
L 197.934204 185.563957 
L 198.569536 185.495813 
L 199.204867 186.225954 
L 199.628422 186.679696 
L 200.051977 187.104809 
L 200.475531 187.836298 
L 201.32264 190.020509 
L 202.169749 192.982218 
L 202.805081 194.334013 
L 203.228635 194.966429 
L 203.440413 195.238369 
L 203.863967 195.180538 
L 204.711076 195.660341 
L 204.922854 195.670391 
L 205.558185 195.984739 
L 205.98174 196.21687 
L 207.252403 198.201096 
L 208.099513 200.457087 
L 208.31129 200.949274 
L 209.581953 206.015242 
L 210.217285 208.93125 
L 210.429062 209.341717 
L 211.276171 211.759671 
L 211.487949 212.101873 
L 211.699726 212.209727 
L 212.335058 213.372712 
L 213.182167 215.285528 
L 214.241053 216.522891 
L 215.088162 218.217339 
L 218.053044 222.365589 
L 218.264821 222.54958 
L 218.476598 222.353044 
L 218.688376 222.425905 
L 220.594371 224.747817 
L 221.017926 225.482612 
L 221.44148 225.481757 
L 221.865035 225.959548 
L 222.712144 227.75771 
L 222.923921 228.278959 
L 223.559253 228.564867 
L 224.194585 227.997044 
L 224.829916 228.222222 
L 225.888803 229.880748 
L 226.947689 232.467484 
L 227.583021 233.00412 
L 228.43013 234.084886 
L 230.336125 238.635752 
L 231.606789 241.146192 
L 232.665675 242.296109 
L 233.301007 243.053206 
L 233.936339 243.821879 
L 234.359893 244.426589 
L 235.41878 244.566889 
L 235.842334 244.298308 
L 236.90122 245.099549 
L 237.536552 245.330158 
L 237.960107 245.291506 
L 238.595439 244.875194 
L 239.23077 245.613066 
L 240.289657 247.237845 
L 240.924988 247.643989 
L 241.348543 248.146459 
L 242.830984 249.300226 
L 243.042761 249.310395 
L 243.254538 249.096 
L 243.466316 249.073802 
L 245.160534 247.364986 
L 245.372311 247.383833 
L 245.795866 247.160728 
L 246.007643 246.996837 
L 246.431197 247.386771 
L 246.642975 247.402758 
L 247.278306 248.268337 
L 247.701861 249.315586 
L 248.337193 251.170941 
L 248.54897 251.34282 
L 249.396079 254.279697 
L 249.819634 256.015517 
L 251.302074 260.59386 
L 252.149183 261.388539 
L 252.360961 261.606495 
L 252.996292 262.696702 
L 253.631624 263.372248 
L 254.055179 264.178004 
L 255.114065 265.819536 
L 255.53762 266.18352 
L 256.172951 267.277732 
L 256.596506 267.549186 
L 257.443615 268.027857 
L 257.655392 268.069734 
L 257.86717 267.950115 
L 258.290724 268.109506 
L 258.926056 267.258337 
L 259.561388 266.637128 
L 260.408497 265.873538 
L 261.043829 264.881209 
L 261.467383 264.245483 
L 261.67916 263.814569 
L 262.314492 265.078383 
L 262.738047 265.723266 
L 263.373378 266.8494 
L 264.00871 267.995299 
L 264.220487 267.82306 
L 264.432265 268.433384 
L 264.855819 268.870059 
L 265.702928 270.086011 
L 265.914706 270.813392 
L 266.33826 270.882591 
L 266.550037 271.395257 
L 266.973592 271.11689 
L 267.185369 271.631842 
L 267.397146 271.640106 
L 267.608924 272.324275 
L 268.032478 271.97954 
L 268.456033 272.896483 
L 268.66781 273.361071 
L 269.303142 273.288905 
L 270.150251 273.604041 
L 270.573805 274.17048 
L 270.785583 274.790394 
L 271.420914 275.384905 
L 271.632692 275.997846 
L 272.479801 276.153341 
L 273.115133 275.83557 
L 273.32691 275.620243 
L 273.750464 275.522725 
L 274.174019 275.250124 
L 275.232905 273.616949 
L 275.444682 273.588541 
L 276.291791 272.844671 
L 276.715346 273.703675 
L 278.197787 276.200969 
L 278.409564 276.197301 
L 278.621341 276.405707 
L 279.044896 277.108597 
L 279.256673 277.097458 
L 279.680228 277.283832 
L 280.103782 277.131566 
L 280.527337 277.128239 
L 280.950891 276.611562 
L 281.162669 276.690703 
L 281.798 275.435089 
L 282.221555 275.490676 
L 282.433332 275.235049 
L 283.280441 273.141999 
L 284.12755 271.600109 
L 284.339328 271.201246 
L 284.551105 271.082827 
L 284.762882 270.641478 
L 284.974659 270.788797 
L 286.033546 270.922487 
L 286.245323 271.057396 
L 286.668877 271.039678 
L 287.092432 271.242083 
L 288.78665 272.166325 
L 289.421982 272.230144 
L 290.269091 272.831767 
L 290.692645 273.297951 
L 290.904423 273.491494 
L 292.175086 273.481007 
L 292.598641 272.94216 
L 293.022195 272.501481 
L 293.44575 272.44281 
L 294.292859 273.494706 
L 294.928191 274.019428 
L 295.139968 273.936045 
L 295.987077 274.463328 
L 296.834186 274.54039 
L 297.045963 274.285804 
L 297.257741 274.218767 
L 297.893072 273.383653 
L 298.528404 270.984774 
L 298.740181 270.751689 
L 298.951959 270.330469 
L 299.375513 269.133014 
L 299.799068 268.510885 
L 300.222622 268.289729 
L 300.646177 267.892409 
L 301.069731 267.472777 
L 301.281509 267.461168 
L 301.493286 267.283222 
L 301.705063 267.255859 
L 302.128618 267.56846 
L 302.552172 267.636052 
L 303.611059 266.833599 
L 303.822836 266.530519 
L 304.034613 266.469056 
L 305.728831 264.512896 
L 307.211272 258.269964 
L 307.423049 257.640576 
L 307.846604 255.374861 
L 308.693713 253.551523 
L 308.90549 252.125684 
L 309.117267 252.076877 
L 309.329045 251.844747 
L 309.752599 251.947971 
L 310.176154 252.501465 
L 310.599708 253.156633 
L 310.811486 252.159288 
L 311.23504 253.005773 
L 311.446817 253.21879 
L 311.870372 254.007175 
L 312.293926 254.544029 
L 312.505704 254.918095 
L 312.717481 255.02641 
L 312.929258 254.904128 
L 313.352813 254.44347 
L 314.411699 253.99797 
L 315.047031 253.762273 
L 315.258808 253.789769 
L 315.470585 253.69707 
L 315.89414 253.323412 
L 316.317694 252.895605 
L 317.164803 250.508242 
L 318.011912 247.312337 
L 318.435467 246.212234 
L 319.494353 244.999135 
L 319.706131 243.082389 
L 319.917908 242.930872 
L 321.823903 227.156402 
L 322.03568 227.469432 
L 322.247458 225.22853 
L 322.459235 225.405013 
L 323.094567 225.486999 
L 323.518121 225.064282 
L 323.941676 224.382184 
L 325.000562 223.259803 
L 325.212339 223.156236 
L 325.847671 222.127633 
L 326.059448 221.745587 
L 326.483003 221.566031 
L 326.906558 221.840374 
L 327.541889 221.527521 
L 328.177221 221.785631 
L 328.600776 221.291958 
L 329.447885 219.312908 
L 330.083217 218.996932 
L 330.294994 219.356604 
L 330.718548 219.33815 
L 331.35388 218.866746 
L 331.777435 218.566329 
L 331.989212 218.423569 
L 332.412766 218.47727 
L 332.836321 218.409134 
L 333.471653 219.150708 
L 333.895207 220.045131 
L 334.106985 220.388603 
L 334.318762 220.507696 
L 334.530539 220.760023 
L 335.165871 221.019715 
L 335.801203 222.316438 
L 336.436534 224.927211 
L 337.495421 229.07648 
L 338.554307 232.439318 
L 338.766084 232.64293 
L 339.824971 235.932323 
L 341.942743 241.18935 
L 343.848739 246.9728 
L 344.272293 247.77614 
L 344.48407 248.019357 
L 345.33118 250.592621 
L 345.966511 252.804506 
L 346.81362 255.588607 
L 347.448952 257.654196 
L 348.931393 259.036628 
L 349.354948 258.786382 
L 349.990279 258.478605 
L 350.202057 258.874316 
L 350.625611 258.749941 
L 351.260943 258.993832 
L 351.896275 258.760503 
L 352.108052 258.586964 
L 352.531606 258.511034 
L 353.166938 258.764196 
L 353.378716 259.065186 
L 354.014047 259.211886 
L 354.649379 260.343722 
L 354.861156 260.406763 
L 355.708265 261.595785 
L 356.343597 263.260386 
L 356.767152 264.324855 
L 357.190706 265.366583 
L 357.402484 265.574649 
L 358.249593 266.998557 
L 359.096702 268.189919 
L 359.520256 269.003942 
L 360.155588 269.711721 
L 362.273361 273.13596 
L 362.908692 273.752303 
L 363.544024 274.050656 
L 364.814688 273.60193 
L 365.238242 273.745327 
L 365.661797 273.668779 
L 366.085351 273.467801 
L 366.508906 273.634732 
L 366.93246 273.667513 
L 367.567792 273.390316 
L 368.203124 273.662585 
L 368.626679 274.200424 
L 369.897342 277.200636 
L 371.168006 279.614164 
L 371.59156 279.862123 
L 372.015115 280.061022 
L 372.650447 280.987978 
L 373.497556 283.654065 
L 373.92111 284.85451 
L 374.344665 285.577185 
L 374.979996 286.054206 
L 375.615328 285.614878 
L 376.038883 285.166457 
L 376.462437 284.760529 
L 377.097769 284.193271 
L 377.521324 283.701803 
L 377.733101 283.324167 
L 377.944878 283.28364 
L 378.156655 282.812127 
L 378.368433 282.819067 
L 378.791987 283.256241 
L 379.639096 284.466819 
L 380.062651 284.999891 
L 380.486205 285.75055 
L 382.392201 287.142094 
L 382.603978 287.049862 
L 383.451087 287.117303 
L 383.874642 286.89549 
L 385.145305 285.487182 
L 385.780637 284.89242 
L 386.204191 284.83143 
L 386.627746 284.928835 
L 387.0513 284.612049 
L 387.89841 284.40003 
L 388.110187 284.385854 
L 388.533741 284.6011 
L 388.957296 284.550299 
L 390.016182 284.890263 
L 390.863291 286.014703 
L 391.498623 286.645696 
L 392.981064 290.522874 
L 393.404618 291.210742 
L 394.251727 292.717414 
L 394.463505 292.925305 
L 394.887059 292.86966 
L 395.734168 292.602273 
L 395.945946 292.610459 
L 396.157723 292.820528 
L 396.3695 293.212818 
L 396.793055 293.407232 
L 397.851941 294.555305 
L 398.487273 295.488 
L 398.487273 295.488 
" clip-path="url(#p635e5669da)" style="fill: none; stroke: #ff7f0e; stroke-opacity: 0.7; stroke-width: 1.5; stroke-linecap: square"/>
   </g>
   <g id="line2d_18">
    <path d="M 73.832727 204.43913 
L 74.044505 204.483559 
L 74.256282 204.676857 
L 74.679836 205.350959 
L 74.891614 205.429932 
L 75.315168 205.22633 
L 75.526945 204.990389 
L 75.9505 204.877689 
L 76.162277 205.011758 
L 76.585832 204.622286 
L 77.221163 204.916458 
L 77.644718 205.347734 
L 78.068273 205.188568 
L 78.28005 205.220253 
L 78.703604 205.449457 
L 79.974268 205.262423 
L 80.186045 205.354681 
L 80.397822 205.670496 
L 80.6096 205.759074 
L 81.668486 205.289868 
L 82.727372 205.398508 
L 83.150927 205.464932 
L 83.362704 205.441857 
L 83.786259 205.63542 
L 84.209813 205.626927 
L 85.2687 204.714271 
L 85.904031 203.985492 
L 86.327586 203.327956 
L 87.174695 202.145712 
L 87.810027 201.841403 
L 89.292468 199.753634 
L 89.716022 199.576605 
L 90.139577 198.65468 
L 90.563131 197.746865 
L 90.986686 197.441809 
L 91.198463 197.418673 
L 91.41024 197.509297 
L 92.045572 197.302085 
L 92.469126 196.948295 
L 92.680904 196.400639 
L 93.104458 195.995912 
L 93.73979 195.774209 
L 94.163345 196.024078 
L 94.798676 195.582371 
L 95.222231 195.739252 
L 95.434008 195.800124 
L 95.857563 195.357029 
L 96.06934 195.231619 
L 96.281117 195.275488 
L 96.492895 195.16111 
L 96.704672 194.828658 
L 97.128226 194.763993 
L 97.340004 194.837341 
L 97.975335 194.657789 
L 98.39889 194.869038 
L 98.610667 194.87055 
L 98.822444 194.983755 
L 99.245999 194.755767 
L 99.669553 194.833011 
L 99.881331 194.78749 
L 100.516663 194.236356 
L 100.940217 194.206502 
L 101.151994 194.017148 
L 101.999103 192.532552 
L 102.210881 192.475991 
L 102.634435 192.772502 
L 103.05799 193.121645 
L 103.269767 193.107673 
L 103.905099 193.319982 
L 104.328653 193.266438 
L 104.540431 193.000197 
L 104.963985 192.891109 
L 105.175762 193.020404 
L 106.234649 192.847744 
L 106.446426 193.028821 
L 106.86998 193.112396 
L 107.081758 193.185318 
L 107.717089 192.900765 
L 107.928867 192.686475 
L 108.140644 192.723391 
L 108.564199 192.40035 
L 108.775976 191.949085 
L 109.19953 191.658996 
L 109.411308 191.369554 
L 109.834862 191.140694 
L 110.258417 190.820935 
L 110.470194 190.80256 
L 110.893748 190.903947 
L 111.105526 190.975466 
L 111.52908 190.718807 
L 111.740857 190.46233 
L 112.376189 190.325608 
L 113.011521 189.84789 
L 113.435076 189.696395 
L 113.646853 189.491107 
L 114.705739 189.698698 
L 114.917516 189.543151 
L 115.552848 188.780298 
L 115.764626 188.667476 
L 115.976403 188.695431 
L 116.399957 189.155244 
L 116.823512 189.042614 
L 117.247066 188.972283 
L 117.670621 188.777311 
L 118.305953 188.912419 
L 118.941284 188.877895 
L 119.364839 188.961264 
L 120.000171 188.789557 
L 120.211948 188.804802 
L 120.423725 188.691694 
L 121.059057 188.848113 
L 121.270834 188.93025 
L 122.117943 188.729553 
L 122.753275 189.057464 
L 122.965052 188.88809 
L 123.388607 188.115692 
L 123.812162 188.247176 
L 124.023939 188.318493 
L 124.235716 188.59021 
L 124.871048 187.953145 
L 125.718157 187.586278 
L 126.353489 187.401834 
L 126.565266 187.205994 
L 127.200598 187.422726 
L 127.624152 187.640543 
L 128.047707 187.67213 
L 128.259484 187.658298 
L 129.530148 186.855161 
L 131.436143 187.054446 
L 132.071475 187.14351 
L 132.706807 186.90823 
L 133.130361 186.463123 
L 133.342138 186.348337 
L 134.189247 186.633098 
L 134.612802 186.814791 
L 134.824579 187.078158 
L 135.883466 186.241957 
L 136.730575 185.626035 
L 137.789461 185.525921 
L 139.060125 185.666926 
L 139.483679 185.462131 
L 139.907234 185.394979 
L 140.330788 184.977604 
L 140.754343 184.874521 
L 143.29567 184.989527 
L 144.142779 184.740079 
L 144.989888 184.777469 
L 145.413442 184.583609 
L 145.62522 184.601405 
L 146.048774 184.908788 
L 146.472329 184.735247 
L 146.684106 184.801896 
L 147.107661 184.522008 
L 147.319438 184.37265 
L 147.742992 183.963407 
L 148.378324 183.809239 
L 148.801879 184.232164 
L 149.225433 184.611556 
L 149.860765 184.792783 
L 150.496097 184.4719 
L 150.707874 184.470245 
L 151.343206 184.13437 
L 151.76676 184.217297 
L 152.190315 184.234456 
L 152.613869 184.082574 
L 153.037424 184.092644 
L 153.460978 183.887092 
L 153.884533 183.61907 
L 155.155197 183.142483 
L 155.578751 183.601584 
L 156.42586 183.846491 
L 156.849415 183.745633 
L 157.908301 183.329417 
L 158.120078 183.278746 
L 158.543633 183.312787 
L 159.390742 182.946587 
L 160.026074 182.474247 
L 160.661405 182.519383 
L 161.508514 182.581791 
L 161.720292 182.458933 
L 162.143846 182.420462 
L 162.567401 182.367116 
L 163.838064 181.815511 
L 164.261619 181.523789 
L 164.896951 181.641585 
L 165.320505 181.659748 
L 165.74406 181.77965 
L 166.379392 181.713715 
L 167.014723 182.221308 
L 168.497164 182.367558 
L 168.920719 182.527125 
L 169.344273 181.865869 
L 169.556051 181.150256 
L 169.979605 180.926545 
L 171.038491 180.820928 
L 171.673823 180.974697 
L 172.097378 180.87315 
L 172.732709 180.728488 
L 173.156264 180.718448 
L 173.791596 180.986045 
L 174.21515 181.031585 
L 174.638705 181.023282 
L 175.274037 181.398881 
L 175.485814 181.107607 
L 175.909368 181.085108 
L 176.332923 180.977872 
L 177.180032 180.899434 
L 177.815364 181.393134 
L 178.450696 180.307401 
L 178.87425 180.31357 
L 179.509582 180.061291 
L 180.144914 180.125499 
L 180.568468 180.021547 
L 180.992023 179.913678 
L 181.415577 179.865759 
L 182.050909 179.618539 
L 182.474464 179.577218 
L 182.898018 179.723569 
L 183.109795 179.7125 
L 184.168682 178.919727 
L 184.380459 178.656139 
L 184.592236 178.571782 
L 185.651123 177.179281 
L 186.286454 177.162448 
L 186.498232 177.1911 
L 186.921786 177.690303 
L 187.345341 178.490387 
L 187.768895 178.644097 
L 188.19245 179.44953 
L 188.616004 179.31795 
L 189.674891 178.290393 
L 190.098445 176.813904 
L 190.310222 176.436693 
L 190.733777 176.570922 
L 191.157331 177.482348 
L 191.792663 177.504998 
L 192.427995 176.815591 
L 193.698659 177.010667 
L 194.33399 176.654834 
L 194.757545 176.653848 
L 195.392877 176.355305 
L 196.028209 176.387734 
L 196.451763 176.623729 
L 196.66354 176.62225 
L 197.087095 176.290007 
L 197.510649 176.237617 
L 198.145981 176.11837 
L 198.569536 176.055692 
L 199.204867 176.5318 
L 199.628422 176.557336 
L 199.840199 176.372186 
L 200.263754 176.690528 
L 201.110863 177.66239 
L 202.169749 179.567606 
L 202.381526 179.825651 
L 203.440413 180.060219 
L 203.863967 179.983 
L 204.499299 180.239355 
L 204.922854 180.094122 
L 205.98174 180.255841 
L 206.193517 180.553231 
L 206.405294 180.551269 
L 206.617072 180.831029 
L 206.828849 180.792506 
L 207.252403 180.937954 
L 207.464181 180.858991 
L 208.099513 180.290378 
L 208.523067 180.150797 
L 208.734844 180.181357 
L 209.158399 180.882107 
L 210.429062 183.910045 
L 211.276171 184.331384 
L 211.487949 184.147327 
L 212.758612 185.293034 
L 213.605721 184.814405 
L 214.664608 185.769275 
L 214.876385 185.817751 
L 215.29994 185.554058 
L 216.147049 186.132427 
L 216.78238 186.765542 
L 217.629489 186.757363 
L 217.841267 186.60627 
L 218.053044 186.683592 
L 218.264821 186.500345 
L 218.900153 186.650136 
L 219.11193 186.859754 
L 220.806148 187.332923 
L 221.017926 187.440997 
L 221.653257 187.126319 
L 222.076812 187.770719 
L 222.712144 188.187607 
L 223.135698 188.255037 
L 223.559253 188.108307 
L 223.77103 187.904812 
L 223.982807 187.96595 
L 224.406362 188.394756 
L 225.041694 189.175914 
L 225.465248 189.299165 
L 225.888803 189.276421 
L 226.947689 189.611145 
L 227.583021 189.744609 
L 228.006575 189.819423 
L 228.43013 189.779394 
L 228.641907 189.912031 
L 228.853684 190.185186 
L 229.489016 191.457067 
L 230.336125 191.634621 
L 230.547903 191.732385 
L 230.75968 191.652485 
L 230.971457 191.745022 
L 231.183234 191.984305 
L 231.606789 193.076364 
L 232.030343 192.937245 
L 232.453898 193.032863 
L 233.08923 193.464255 
L 233.301007 193.347584 
L 234.359893 193.676203 
L 234.783448 193.185419 
L 235.207002 193.251374 
L 235.41878 193.229982 
L 235.842334 192.98461 
L 236.265889 193.163138 
L 237.112998 193.222928 
L 237.536552 192.999617 
L 237.960107 192.865023 
L 238.171884 192.722109 
L 239.654325 193.695657 
L 240.289657 193.668129 
L 240.501434 193.495199 
L 240.924988 193.588716 
L 241.348543 193.776653 
L 241.772097 193.888144 
L 242.407429 193.605762 
L 243.042761 193.449095 
L 243.466316 193.581015 
L 243.88987 193.887383 
L 245.372311 193.854866 
L 246.007643 194.436152 
L 246.21942 194.360417 
L 246.431197 194.534262 
L 246.642975 194.369317 
L 247.066529 194.714778 
L 247.490084 194.787446 
L 248.125415 195.152567 
L 248.760747 195.195049 
L 249.184302 195.382187 
L 249.396079 195.41045 
L 250.031411 195.920427 
L 251.302074 196.428108 
L 251.513852 196.225196 
L 252.360961 196.192344 
L 252.784515 196.536511 
L 252.996292 196.65166 
L 253.419847 196.496686 
L 254.690511 197.121537 
L 255.53762 197.245467 
L 256.808283 197.325972 
L 257.231838 197.57128 
L 257.655392 197.554625 
L 257.86717 197.412864 
L 258.290724 197.414339 
L 259.137833 196.47945 
L 259.34961 196.693183 
L 260.620274 196.249772 
L 261.043829 195.992802 
L 261.255606 196.071353 
L 261.467383 195.993201 
L 261.890938 196.341236 
L 262.314492 196.445954 
L 262.738047 196.149844 
L 262.949824 196.012072 
L 263.796933 195.932794 
L 264.220487 195.789388 
L 264.644042 196.568326 
L 264.855819 196.555757 
L 265.067597 196.664147 
L 266.126483 196.523381 
L 266.550037 196.057282 
L 266.761815 196.014291 
L 267.185369 196.546342 
L 267.608924 196.669328 
L 268.244255 196.314198 
L 268.456033 196.299661 
L 268.66781 196.62704 
L 269.303142 196.711824 
L 269.938474 196.597446 
L 270.150251 196.568506 
L 270.573805 196.679686 
L 270.785583 196.762542 
L 270.99736 196.634025 
L 271.209137 196.375 
L 272.479801 196.268507 
L 272.903355 196.01714 
L 273.962242 196.680239 
L 274.174019 196.618965 
L 274.385796 196.871967 
L 274.597573 196.673299 
L 275.021128 197.123035 
L 276.080014 196.813677 
L 276.291791 196.706213 
L 276.927123 196.737793 
L 277.350678 196.790095 
L 277.774232 196.834751 
L 278.409564 196.725834 
L 278.621341 196.693863 
L 278.833119 196.867607 
L 279.256673 196.697463 
L 280.31556 196.523197 
L 280.527337 196.546749 
L 281.374446 195.59224 
L 281.798 194.83042 
L 282.221555 194.1718 
L 282.645109 193.221602 
L 283.280441 192.700361 
L 284.12755 192.798778 
L 285.186437 192.614216 
L 285.609991 192.61312 
L 286.033546 192.515777 
L 286.245323 192.623986 
L 286.668877 192.408507 
L 287.727764 192.412089 
L 288.151318 192.335283 
L 288.363096 192.273498 
L 288.574873 192.39638 
L 288.998427 192.195995 
L 290.057314 192.303905 
L 290.480868 192.57084 
L 290.904423 192.415895 
L 291.327977 192.162369 
L 291.751532 192.055311 
L 292.175086 191.923724 
L 292.386864 191.791079 
L 292.810418 191.284047 
L 293.022195 191.313103 
L 293.44575 191.851404 
L 293.869304 192.555191 
L 294.081082 192.544894 
L 294.504636 192.716743 
L 294.928191 192.754582 
L 295.139968 192.574233 
L 296.622409 192.361529 
L 297.045963 191.901544 
L 297.469518 191.61532 
L 297.893072 191.150114 
L 298.528404 189.392614 
L 298.740181 189.162784 
L 298.951959 189.28043 
L 299.375513 189.120069 
L 299.587291 189.141261 
L 300.222622 189.580754 
L 301.493286 189.439979 
L 301.91684 189.96993 
L 302.340395 189.70978 
L 303.822836 188.13319 
L 304.458168 187.786728 
L 305.093499 186.895365 
L 305.517054 186.827896 
L 305.728831 186.606655 
L 306.152386 185.914924 
L 306.787717 183.173859 
L 306.999495 183.078461 
L 307.211272 183.205905 
L 308.270158 182.966505 
L 308.693713 182.40719 
L 308.90549 182.313436 
L 309.117267 182.546632 
L 309.329045 182.596484 
L 309.540822 182.867309 
L 309.752599 182.827591 
L 310.599708 183.300615 
L 310.811486 183.226763 
L 311.023263 183.305317 
L 311.446817 183.064475 
L 311.870372 183.269685 
L 312.293926 183.329722 
L 312.505704 183.362376 
L 312.717481 183.262873 
L 313.56459 182.090434 
L 313.776367 182.060661 
L 313.988144 181.879098 
L 315.682363 181.637611 
L 316.317694 181.306232 
L 316.741249 180.433432 
L 318.011912 172.114703 
L 318.435467 172.227319 
L 318.647244 172.464033 
L 318.859022 172.491658 
L 319.070799 172.71462 
L 319.282576 172.629017 
L 319.494353 172.781775 
L 319.706131 172.556584 
L 320.55324 172.84496 
L 320.976794 172.504575 
L 321.188571 172.668935 
L 321.612126 172.519858 
L 321.823903 172.538654 
L 322.247458 172.899428 
L 322.459235 172.70541 
L 322.88279 172.009346 
L 323.094567 171.912541 
L 323.518121 171.371576 
L 323.941676 170.680588 
L 324.153453 170.430258 
L 324.788785 170.261305 
L 325.212339 170.345793 
L 326.059448 169.72621 
L 327.118335 170.239984 
L 327.541889 170.080323 
L 327.965444 170.220132 
L 328.177221 170.14391 
L 329.236107 168.29915 
L 329.659662 165.496654 
L 330.083217 165.776753 
L 330.294994 166.115207 
L 330.506771 166.240638 
L 331.989212 165.59574 
L 332.412766 165.958012 
L 332.836321 165.731569 
L 333.259875 166.012517 
L 333.471653 166.274362 
L 333.68343 166.732991 
L 334.106985 166.607711 
L 334.954094 165.841305 
L 335.377648 166.405877 
L 336.224757 168.048794 
L 336.436534 168.03276 
L 336.648312 168.215523 
L 337.071866 168.025541 
L 337.495421 167.879613 
L 337.707198 167.940738 
L 338.130753 168.29468 
L 338.554307 168.332959 
L 338.766084 168.286178 
L 339.189639 169.057775 
L 339.401416 169.0394 
L 339.824971 168.489769 
L 340.460302 168.78621 
L 340.67208 168.375186 
L 340.883857 168.621301 
L 341.095634 168.461068 
L 341.307411 168.65338 
L 341.730966 168.523744 
L 341.942743 168.523499 
L 342.789852 169.202111 
L 343.00163 169.55832 
L 343.213407 169.646814 
L 343.848739 170.508769 
L 344.060516 170.068652 
L 344.48407 169.922492 
L 345.33118 170.835517 
L 346.178289 170.273097 
L 346.601843 170.473485 
L 347.237175 170.963402 
L 347.872507 170.009229 
L 348.296061 169.998485 
L 348.507838 170.329655 
L 348.719616 170.399788 
L 349.354948 169.795 
L 349.566725 169.811494 
L 349.990279 169.97271 
L 350.202057 170.104246 
L 350.837388 169.894033 
L 351.049166 170.060566 
L 351.260943 169.98957 
L 351.47272 170.126065 
L 352.531606 169.971089 
L 352.743384 170.346234 
L 353.166938 170.266748 
L 353.378716 170.406749 
L 353.80227 170.007462 
L 354.014047 169.999847 
L 354.649379 170.56723 
L 355.072934 170.162473 
L 355.496488 170.382206 
L 355.708265 170.561214 
L 356.13182 171.094888 
L 356.767152 171.251613 
L 356.978929 171.306329 
L 357.190706 171.559037 
L 357.402484 171.447203 
L 357.614261 171.632469 
L 357.826038 171.664055 
L 358.037815 171.378927 
L 358.249593 170.796696 
L 358.884924 170.819399 
L 359.096702 170.997766 
L 359.308479 171.382185 
L 359.520256 171.424307 
L 359.943811 171.330894 
L 360.155588 171.294048 
L 361.002697 171.684128 
L 361.426252 171.805035 
L 361.849806 171.748504 
L 362.273361 172.019002 
L 362.485138 172.165152 
L 362.696915 171.731858 
L 363.544024 171.439393 
L 363.967579 171.250056 
L 364.179356 171.242386 
L 364.391133 171.468357 
L 364.814688 171.40782 
L 365.873574 171.46013 
L 366.297129 171.62267 
L 366.720683 171.937333 
L 367.144238 171.680249 
L 367.567792 171.676321 
L 367.779569 171.816833 
L 368.414901 171.878602 
L 368.626679 171.994198 
L 369.050233 172.465797 
L 370.109119 172.872813 
L 370.320897 172.870265 
L 370.744451 173.016217 
L 371.168006 172.972476 
L 371.59156 173.038196 
L 372.015115 173.050565 
L 372.438669 173.423383 
L 372.862224 172.85304 
L 373.074001 172.950013 
L 373.285778 173.390336 
L 373.497556 173.544113 
L 373.709333 173.84963 
L 373.92111 173.873037 
L 375.615328 173.030321 
L 376.038883 172.830465 
L 376.462437 172.725732 
L 377.097769 172.679389 
L 377.733101 172.242781 
L 377.944878 172.077173 
L 378.156655 172.078392 
L 379.215542 173.146219 
L 379.639096 172.898117 
L 379.850874 173.114563 
L 380.274428 173.714019 
L 380.90976 173.298035 
L 381.333314 172.93836 
L 381.545092 172.957329 
L 382.180423 173.49504 
L 382.392201 173.435122 
L 382.815755 172.97472 
L 383.874642 172.768649 
L 384.086419 172.608284 
L 384.298196 172.609568 
L 384.509973 172.332039 
L 384.933528 172.301808 
L 385.56886 171.708584 
L 386.204191 171.913679 
L 386.627746 171.943974 
L 387.263078 171.525081 
L 388.110187 171.658029 
L 388.321964 171.71516 
L 389.169073 170.995701 
L 389.592628 171.083779 
L 390.016182 171.152196 
L 390.227959 171.450274 
L 390.651514 171.458119 
L 391.075068 171.287749 
L 391.498623 171.396636 
L 391.922178 171.989718 
L 392.345732 172.242164 
L 392.769287 172.751967 
L 393.192841 172.806819 
L 393.828173 173.228218 
L 394.03995 173.169913 
L 394.463505 172.91369 
L 395.734168 172.126757 
L 396.157723 172.378916 
L 396.3695 172.770669 
L 396.793055 172.940193 
L 397.004832 173.086357 
L 397.216609 173.07659 
L 397.640164 173.329039 
L 398.063718 173.409041 
L 398.275495 173.671054 
L 398.487273 173.475469 
L 398.487273 173.475469 
" clip-path="url(#p635e5669da)" style="fill: none; stroke: #2ca02c; stroke-opacity: 0.7; stroke-width: 1.5; stroke-linecap: square"/>
   </g>
   <g id="patch_3">
    <path d="M 57.6 307.584 
L 57.6 41.472 
" style="fill: none; stroke: #000000; stroke-width: 0.8; stroke-linejoin: miter; stroke-linecap: square"/>
   </g>
   <g id="patch_4">
    <path d="M 414.72 307.584 
L 414.72 41.472 
" style="fill: none; stroke: #000000; stroke-width: 0.8; stroke-linejoin: miter; stroke-linecap: square"/>
   </g>
   <g id="patch_5">
    <path d="M 57.6 307.584 
L 414.72 307.584 
" style="fill: none; stroke: #000000; stroke-width: 0.8; stroke-linejoin: miter; stroke-linecap: square"/>
   </g>
   <g id="patch_6">
    <path d="M 57.6 41.472 
L 414.72 41.472 
" style="fill: none; stroke: #000000; stroke-width: 0.8; stroke-linejoin: miter; stroke-linecap: square"/>
   </g>
   <g id="text_16">
    <!-- naive_eurusd -->
    <g transform="translate(196.0725 35.472) scale(0.12 -0.12)">
     <defs>
      <path id="DejaVuSans-6e" d="M 3513 2113 
L 3513 0 
L 2938 0 
L 2938 2094 
Q 2938 2591 2744 2837 
Q 2550 3084 2163 3084 
Q 1697 3084 1428 2787 
Q 1159 2491 1159 1978 
L 1159 0 
L 581 0 
L 581 3500 
L 1159 3500 
L 1159 2956 
Q 1366 3272 1645 3428 
Q 1925 3584 2291 3584 
Q 2894 3584 3203 3211 
Q 3513 2838 3513 2113 
z
" transform="scale(0.015625)"/>
      <path id="DejaVuSans-61" d="M 2194 1759 
Q 1497 1759 1228 1600 
Q 959 1441 959 1056 
Q 959 750 1161 570 
Q 1363 391 1709 391 
Q 2188 391 2477 730 
Q 2766 1069 2766 1631 
L 2766 1759 
L 2194 1759 
z
M 3341 1997 
L 3341 0 
L 2766 0 
L 2766 531 
Q 2569 213 2275 61 
Q 1981 -91 1556 -91 
Q 1019 -91 701 211 
Q 384 513 384 1019 
Q 384 1609 779 1909 
Q 1175 2209 1959 2209 
L 2766 2209 
L 2766 2266 
Q 2766 2663 2505 2880 
Q 2244 3097 1772 3097 
Q 1472 3097 1187 3025 
Q 903 2953 641 2809 
L 641 3341 
Q 956 3463 1253 3523 
Q 1550 3584 1831 3584 
Q 2591 3584 2966 3190 
Q 3341 2797 3341 1997 
z
" transform="scale(0.015625)"/>
      <path id="DejaVuSans-69" d="M 603 3500 
L 1178 3500 
L 1178 0 
L 603 0 
L 603 3500 
z
M 603 4863 
L 1178 4863 
L 1178 4134 
L 603 4134 
L 603 4863 
z
" transform="scale(0.015625)"/>
      <path id="DejaVuSans-76" d="M 191 3500 
L 800 3500 
L 1894 563 
L 2988 3500 
L 3597 3500 
L 2284 0 
L 1503 0 
L 191 3500 
z
" transform="scale(0.015625)"/>
      <path id="DejaVuSans-65" d="M 3597 1894 
L 3597 1613 
L 953 1613 
Q 991 1019 1311 708 
Q 1631 397 2203 397 
Q 2534 397 2845 478 
Q 3156 559 3463 722 
L 3463 178 
Q 3153 47 2828 -22 
Q 2503 -91 2169 -91 
Q 1331 -91 842 396 
Q 353 884 353 1716 
Q 353 2575 817 3079 
Q 1281 3584 2069 3584 
Q 2775 3584 3186 3129 
Q 3597 2675 3597 1894 
z
M 3022 2063 
Q 3016 2534 2758 2815 
Q 2500 3097 2075 3097 
Q 1594 3097 1305 2825 
Q 1016 2553 972 2059 
L 3022 2063 
z
" transform="scale(0.015625)"/>
      <path id="DejaVuSans-5f" d="M 3263 -1063 
L 3263 -1509 
L -63 -1509 
L -63 -1063 
L 3263 -1063 
z
" transform="scale(0.015625)"/>
      <path id="DejaVuSans-75" d="M 544 1381 
L 544 3500 
L 1119 3500 
L 1119 1403 
Q 1119 906 1312 657 
Q 1506 409 1894 409 
Q 2359 409 2629 706 
Q 2900 1003 2900 1516 
L 2900 3500 
L 3475 3500 
L 3475 0 
L 2900 0 
L 2900 538 
Q 2691 219 2414 64 
Q 2138 -91 1772 -91 
Q 1169 -91 856 284 
Q 544 659 544 1381 
z
M 1991 3584 
L 1991 3584 
z
" transform="scale(0.015625)"/>
      <path id="DejaVuSans-72" d="M 2631 2963 
Q 2534 3019 2420 3045 
Q 2306 3072 2169 3072 
Q 1681 3072 1420 2755 
Q 1159 2438 1159 1844 
L 1159 0 
L 581 0 
L 581 3500 
L 1159 3500 
L 1159 2956 
Q 1341 3275 1631 3429 
Q 1922 3584 2338 3584 
Q 2397 3584 2469 3576 
Q 2541 3569 2628 3553 
L 2631 2963 
z
" transform="scale(0.015625)"/>
      <path id="DejaVuSans-73" d="M 2834 3397 
L 2834 2853 
Q 2591 2978 2328 3040 
Q 2066 3103 1784 3103 
Q 1356 3103 1142 2972 
Q 928 2841 928 2578 
Q 928 2378 1081 2264 
Q 1234 2150 1697 2047 
L 1894 2003 
Q 2506 1872 2764 1633 
Q 3022 1394 3022 966 
Q 3022 478 2636 193 
Q 2250 -91 1575 -91 
Q 1294 -91 989 -36 
Q 684 19 347 128 
L 347 722 
Q 666 556 975 473 
Q 1284 391 1588 391 
Q 1994 391 2212 530 
Q 2431 669 2431 922 
Q 2431 1156 2273 1281 
Q 2116 1406 1581 1522 
L 1381 1569 
Q 847 1681 609 1914 
Q 372 2147 372 2553 
Q 372 3047 722 3315 
Q 1072 3584 1716 3584 
Q 2034 3584 2315 3537 
Q 2597 3491 2834 3397 
z
" transform="scale(0.015625)"/>
      <path id="DejaVuSans-64" d="M 2906 2969 
L 2906 4863 
L 3481 4863 
L 3481 0 
L 2906 0 
L 2906 525 
Q 2725 213 2448 61 
Q 2172 -91 1784 -91 
Q 1150 -91 751 415 
Q 353 922 353 1747 
Q 353 2572 751 3078 
Q 1150 3584 1784 3584 
Q 2172 3584 2448 3432 
Q 2725 3281 2906 2969 
z
M 947 1747 
Q 947 1113 1208 752 
Q 1469 391 1925 391 
Q 2381 391 2643 752 
Q 2906 1113 2906 1747 
Q 2906 2381 2643 2742 
Q 2381 3103 1925 3103 
Q 1469 3103 1208 2742 
Q 947 2381 947 1747 
z
" transform="scale(0.015625)"/>
     </defs>
     <use xlink:href="#DejaVuSans-6e"/>
     <use xlink:href="#DejaVuSans-61" x="63.378906"/>
     <use xlink:href="#DejaVuSans-69" x="124.658203"/>
     <use xlink:href="#DejaVuSans-76" x="152.441406"/>
     <use xlink:href="#DejaVuSans-65" x="211.621094"/>
     <use xlink:href="#DejaVuSans-5f" x="273.144531"/>
     <use xlink:href="#DejaVuSans-65" x="323.144531"/>
     <use xlink:href="#DejaVuSans-75" x="384.667969"/>
     <use xlink:href="#DejaVuSans-72" x="448.046875"/>
     <use xlink:href="#DejaVuSans-75" x="489.160156"/>
     <use xlink:href="#DejaVuSans-73" x="552.539062"/>
     <use xlink:href="#DejaVuSans-64" x="604.638672"/>
    </g>
   </g>
   <g id="legend_1">
    <g id="patch_7">
     <path d="M 64.6 93.506375 
L 258.804688 93.506375 
Q 260.804688 93.506375 260.804688 91.506375 
L 260.804688 48.472 
Q 260.804688 46.472 258.804688 46.472 
L 64.6 46.472 
Q 62.6 46.472 62.6 48.472 
L 62.6 91.506375 
Q 62.6 93.506375 64.6 93.506375 
z
" style="fill: #ffffff; opacity: 0.8; stroke: #cccccc; stroke-linejoin: miter"/>
    </g>
    <g id="line2d_19">
     <path d="M 66.6 54.570438 
L 76.6 54.570438 
L 86.6 54.570438 
" style="fill: none; stroke: #1f77b4; stroke-opacity: 0.7; stroke-width: 1.5; stroke-linecap: square"/>
    </g>
    <g id="text_17">
     <!-- Positive cumulative predictions -->
     <g transform="translate(94.6 58.070438) scale(0.1 -0.1)">
      <defs>
       <path id="DejaVuSans-50" d="M 1259 4147 
L 1259 2394 
L 2053 2394 
Q 2494 2394 2734 2622 
Q 2975 2850 2975 3272 
Q 2975 3691 2734 3919 
Q 2494 4147 2053 4147 
L 1259 4147 
z
M 628 4666 
L 2053 4666 
Q 2838 4666 3239 4311 
Q 3641 3956 3641 3272 
Q 3641 2581 3239 2228 
Q 2838 1875 2053 1875 
L 1259 1875 
L 1259 0 
L 628 0 
L 628 4666 
z
" transform="scale(0.015625)"/>
       <path id="DejaVuSans-6f" d="M 1959 3097 
Q 1497 3097 1228 2736 
Q 959 2375 959 1747 
Q 959 1119 1226 758 
Q 1494 397 1959 397 
Q 2419 397 2687 759 
Q 2956 1122 2956 1747 
Q 2956 2369 2687 2733 
Q 2419 3097 1959 3097 
z
M 1959 3584 
Q 2709 3584 3137 3096 
Q 3566 2609 3566 1747 
Q 3566 888 3137 398 
Q 2709 -91 1959 -91 
Q 1206 -91 779 398 
Q 353 888 353 1747 
Q 353 2609 779 3096 
Q 1206 3584 1959 3584 
z
" transform="scale(0.015625)"/>
       <path id="DejaVuSans-74" d="M 1172 4494 
L 1172 3500 
L 2356 3500 
L 2356 3053 
L 1172 3053 
L 1172 1153 
Q 1172 725 1289 603 
Q 1406 481 1766 481 
L 2356 481 
L 2356 0 
L 1766 0 
Q 1100 0 847 248 
Q 594 497 594 1153 
L 594 3053 
L 172 3053 
L 172 3500 
L 594 3500 
L 594 4494 
L 1172 4494 
z
" transform="scale(0.015625)"/>
       <path id="DejaVuSans-20" transform="scale(0.015625)"/>
       <path id="DejaVuSans-63" d="M 3122 3366 
L 3122 2828 
Q 2878 2963 2633 3030 
Q 2388 3097 2138 3097 
Q 1578 3097 1268 2742 
Q 959 2388 959 1747 
Q 959 1106 1268 751 
Q 1578 397 2138 397 
Q 2388 397 2633 464 
Q 2878 531 3122 666 
L 3122 134 
Q 2881 22 2623 -34 
Q 2366 -91 2075 -91 
Q 1284 -91 818 406 
Q 353 903 353 1747 
Q 353 2603 823 3093 
Q 1294 3584 2113 3584 
Q 2378 3584 2631 3529 
Q 2884 3475 3122 3366 
z
" transform="scale(0.015625)"/>
       <path id="DejaVuSans-6d" d="M 3328 2828 
Q 3544 3216 3844 3400 
Q 4144 3584 4550 3584 
Q 5097 3584 5394 3201 
Q 5691 2819 5691 2113 
L 5691 0 
L 5113 0 
L 5113 2094 
Q 5113 2597 4934 2840 
Q 4756 3084 4391 3084 
Q 3944 3084 3684 2787 
Q 3425 2491 3425 1978 
L 3425 0 
L 2847 0 
L 2847 2094 
Q 2847 2600 2669 2842 
Q 2491 3084 2119 3084 
Q 1678 3084 1418 2786 
Q 1159 2488 1159 1978 
L 1159 0 
L 581 0 
L 581 3500 
L 1159 3500 
L 1159 2956 
Q 1356 3278 1631 3431 
Q 1906 3584 2284 3584 
Q 2666 3584 2933 3390 
Q 3200 3197 3328 2828 
z
" transform="scale(0.015625)"/>
       <path id="DejaVuSans-6c" d="M 603 4863 
L 1178 4863 
L 1178 0 
L 603 0 
L 603 4863 
z
" transform="scale(0.015625)"/>
       <path id="DejaVuSans-70" d="M 1159 525 
L 1159 -1331 
L 581 -1331 
L 581 3500 
L 1159 3500 
L 1159 2969 
Q 1341 3281 1617 3432 
Q 1894 3584 2278 3584 
Q 2916 3584 3314 3078 
Q 3713 2572 3713 1747 
Q 3713 922 3314 415 
Q 2916 -91 2278 -91 
Q 1894 -91 1617 61 
Q 1341 213 1159 525 
z
M 3116 1747 
Q 3116 2381 2855 2742 
Q 2594 3103 2138 3103 
Q 1681 3103 1420 2742 
Q 1159 2381 1159 1747 
Q 1159 1113 1420 752 
Q 1681 391 2138 391 
Q 2594 391 2855 752 
Q 3116 1113 3116 1747 
z
" transform="scale(0.015625)"/>
      </defs>
      <use xlink:href="#DejaVuSans-50"/>
      <use xlink:href="#DejaVuSans-6f" x="56.677734"/>
      <use xlink:href="#DejaVuSans-73" x="117.859375"/>
      <use xlink:href="#DejaVuSans-69" x="169.958984"/>
      <use xlink:href="#DejaVuSans-74" x="197.742188"/>
      <use xlink:href="#DejaVuSans-69" x="236.951172"/>
      <use xlink:href="#DejaVuSans-76" x="264.734375"/>
      <use xlink:href="#DejaVuSans-65" x="323.914062"/>
      <use xlink:href="#DejaVuSans-20" x="385.4375"/>
      <use xlink:href="#DejaVuSans-63" x="417.224609"/>
      <use xlink:href="#DejaVuSans-75" x="472.205078"/>
      <use xlink:href="#DejaVuSans-6d" x="535.583984"/>
      <use xlink:href="#DejaVuSans-75" x="632.996094"/>
      <use xlink:href="#DejaVuSans-6c" x="696.375"/>
      <use xlink:href="#DejaVuSans-61" x="724.158203"/>
      <use xlink:href="#DejaVuSans-74" x="785.4375"/>
      <use xlink:href="#DejaVuSans-69" x="824.646484"/>
      <use xlink:href="#DejaVuSans-76" x="852.429688"/>
      <use xlink:href="#DejaVuSans-65" x="911.609375"/>
      <use xlink:href="#DejaVuSans-20" x="973.132812"/>
      <use xlink:href="#DejaVuSans-70" x="1004.919922"/>
      <use xlink:href="#DejaVuSans-72" x="1068.396484"/>
      <use xlink:href="#DejaVuSans-65" x="1107.259766"/>
      <use xlink:href="#DejaVuSans-64" x="1168.783203"/>
      <use xlink:href="#DejaVuSans-69" x="1232.259766"/>
      <use xlink:href="#DejaVuSans-63" x="1260.042969"/>
      <use xlink:href="#DejaVuSans-74" x="1315.023438"/>
      <use xlink:href="#DejaVuSans-69" x="1354.232422"/>
      <use xlink:href="#DejaVuSans-6f" x="1382.015625"/>
      <use xlink:href="#DejaVuSans-6e" x="1443.197266"/>
      <use xlink:href="#DejaVuSans-73" x="1506.576172"/>
     </g>
    </g>
    <g id="line2d_20">
     <path d="M 66.6 69.248563 
L 76.6 69.248563 
L 86.6 69.248563 
" style="fill: none; stroke: #ff7f0e; stroke-opacity: 0.7; stroke-width: 1.5; stroke-linecap: square"/>
    </g>
    <g id="text_18">
     <!-- Negative cumulative predictions -->
     <g transform="translate(94.6 72.748563) scale(0.1 -0.1)">
      <defs>
       <path id="DejaVuSans-4e" d="M 628 4666 
L 1478 4666 
L 3547 763 
L 3547 4666 
L 4159 4666 
L 4159 0 
L 3309 0 
L 1241 3903 
L 1241 0 
L 628 0 
L 628 4666 
z
" transform="scale(0.015625)"/>
       <path id="DejaVuSans-67" d="M 2906 1791 
Q 2906 2416 2648 2759 
Q 2391 3103 1925 3103 
Q 1463 3103 1205 2759 
Q 947 2416 947 1791 
Q 947 1169 1205 825 
Q 1463 481 1925 481 
Q 2391 481 2648 825 
Q 2906 1169 2906 1791 
z
M 3481 434 
Q 3481 -459 3084 -895 
Q 2688 -1331 1869 -1331 
Q 1566 -1331 1297 -1286 
Q 1028 -1241 775 -1147 
L 775 -588 
Q 1028 -725 1275 -790 
Q 1522 -856 1778 -856 
Q 2344 -856 2625 -561 
Q 2906 -266 2906 331 
L 2906 616 
Q 2728 306 2450 153 
Q 2172 0 1784 0 
Q 1141 0 747 490 
Q 353 981 353 1791 
Q 353 2603 747 3093 
Q 1141 3584 1784 3584 
Q 2172 3584 2450 3431 
Q 2728 3278 2906 2969 
L 2906 3500 
L 3481 3500 
L 3481 434 
z
" transform="scale(0.015625)"/>
      </defs>
      <use xlink:href="#DejaVuSans-4e"/>
      <use xlink:href="#DejaVuSans-65" x="74.804688"/>
      <use xlink:href="#DejaVuSans-67" x="136.328125"/>
      <use xlink:href="#DejaVuSans-61" x="199.804688"/>
      <use xlink:href="#DejaVuSans-74" x="261.083984"/>
      <use xlink:href="#DejaVuSans-69" x="300.292969"/>
      <use xlink:href="#DejaVuSans-76" x="328.076172"/>
      <use xlink:href="#DejaVuSans-65" x="387.255859"/>
      <use xlink:href="#DejaVuSans-20" x="448.779297"/>
      <use xlink:href="#DejaVuSans-63" x="480.566406"/>
      <use xlink:href="#DejaVuSans-75" x="535.546875"/>
      <use xlink:href="#DejaVuSans-6d" x="598.925781"/>
      <use xlink:href="#DejaVuSans-75" x="696.337891"/>
      <use xlink:href="#DejaVuSans-6c" x="759.716797"/>
      <use xlink:href="#DejaVuSans-61" x="787.5"/>
      <use xlink:href="#DejaVuSans-74" x="848.779297"/>
      <use xlink:href="#DejaVuSans-69" x="887.988281"/>
      <use xlink:href="#DejaVuSans-76" x="915.771484"/>
      <use xlink:href="#DejaVuSans-65" x="974.951172"/>
      <use xlink:href="#DejaVuSans-20" x="1036.474609"/>
      <use xlink:href="#DejaVuSans-70" x="1068.261719"/>
      <use xlink:href="#DejaVuSans-72" x="1131.738281"/>
      <use xlink:href="#DejaVuSans-65" x="1170.601562"/>
      <use xlink:href="#DejaVuSans-64" x="1232.125"/>
      <use xlink:href="#DejaVuSans-69" x="1295.601562"/>
      <use xlink:href="#DejaVuSans-63" x="1323.384766"/>
      <use xlink:href="#DejaVuSans-74" x="1378.365234"/>
      <use xlink:href="#DejaVuSans-69" x="1417.574219"/>
      <use xlink:href="#DejaVuSans-6f" x="1445.357422"/>
      <use xlink:href="#DejaVuSans-6e" x="1506.539062"/>
      <use xlink:href="#DejaVuSans-73" x="1569.917969"/>
     </g>
    </g>
    <g id="line2d_21">
     <path d="M 66.6 83.926688 
L 76.6 83.926688 
L 86.6 83.926688 
" style="fill: none; stroke: #2ca02c; stroke-opacity: 0.7; stroke-width: 1.5; stroke-linecap: square"/>
    </g>
    <g id="text_19">
     <!-- Average cumulative predictions -->
     <g transform="translate(94.6 87.426688) scale(0.1 -0.1)">
      <defs>
       <path id="DejaVuSans-41" d="M 2188 4044 
L 1331 1722 
L 3047 1722 
L 2188 4044 
z
M 1831 4666 
L 2547 4666 
L 4325 0 
L 3669 0 
L 3244 1197 
L 1141 1197 
L 716 0 
L 50 0 
L 1831 4666 
z
" transform="scale(0.015625)"/>
      </defs>
      <use xlink:href="#DejaVuSans-41"/>
      <use xlink:href="#DejaVuSans-76" x="62.533203"/>
      <use xlink:href="#DejaVuSans-65" x="121.712891"/>
      <use xlink:href="#DejaVuSans-72" x="183.236328"/>
      <use xlink:href="#DejaVuSans-61" x="224.349609"/>
      <use xlink:href="#DejaVuSans-67" x="285.628906"/>
      <use xlink:href="#DejaVuSans-65" x="349.105469"/>
      <use xlink:href="#DejaVuSans-20" x="410.628906"/>
      <use xlink:href="#DejaVuSans-63" x="442.416016"/>
      <use xlink:href="#DejaVuSans-75" x="497.396484"/>
      <use xlink:href="#DejaVuSans-6d" x="560.775391"/>
      <use xlink:href="#DejaVuSans-75" x="658.1875"/>
      <use xlink:href="#DejaVuSans-6c" x="721.566406"/>
      <use xlink:href="#DejaVuSans-61" x="749.349609"/>
      <use xlink:href="#DejaVuSans-74" x="810.628906"/>
      <use xlink:href="#DejaVuSans-69" x="849.837891"/>
      <use xlink:href="#DejaVuSans-76" x="877.621094"/>
      <use xlink:href="#DejaVuSans-65" x="936.800781"/>
      <use xlink:href="#DejaVuSans-20" x="998.324219"/>
      <use xlink:href="#DejaVuSans-70" x="1030.111328"/>
      <use xlink:href="#DejaVuSans-72" x="1093.587891"/>
      <use xlink:href="#DejaVuSans-65" x="1132.451172"/>
      <use xlink:href="#DejaVuSans-64" x="1193.974609"/>
      <use xlink:href="#DejaVuSans-69" x="1257.451172"/>
      <use xlink:href="#DejaVuSans-63" x="1285.234375"/>
      <use xlink:href="#DejaVuSans-74" x="1340.214844"/>
      <use xlink:href="#DejaVuSans-69" x="1379.423828"/>
      <use xlink:href="#DejaVuSans-6f" x="1407.207031"/>
      <use xlink:href="#DejaVuSans-6e" x="1468.388672"/>
      <use xlink:href="#DejaVuSans-73" x="1531.767578"/>
     </g>
    </g>
   </g>
  </g>
 </g>
 <defs>
  <clipPath id="p635e5669da">
   <rect x="57.6" y="41.472" width="357.12" height="266.112"/>
  </clipPath>
 </defs>
</svg>
