<?xml version="1.0" encoding="utf-8" standalone="no"?>
<!DOCTYPE svg PUBLIC "-//W3C//DTD SVG 1.1//EN"
  "http://www.w3.org/Graphics/SVG/1.1/DTD/svg11.dtd">
<svg xmlns:xlink="http://www.w3.org/1999/xlink" width="460.8pt" height="345.6pt" viewBox="0 0 460.8 345.6" xmlns="http://www.w3.org/2000/svg" version="1.1">
 <metadata>
  <rdf:RDF xmlns:dc="http://purl.org/dc/elements/1.1/" xmlns:cc="http://creativecommons.org/ns#" xmlns:rdf="http://www.w3.org/1999/02/22-rdf-syntax-ns#">
   <cc:Work>
    <dc:type rdf:resource="http://purl.org/dc/dcmitype/StillImage"/>
    <dc:date>2024-07-10T15:28:43.669424</dc:date>
    <dc:format>image/svg+xml</dc:format>
    <dc:creator>
     <cc:Agent>
      <dc:title>Matplotlib v3.9.0, https://matplotlib.org/</dc:title>
     </cc:Agent>
    </dc:creator>
   </cc:Work>
  </rdf:RDF>
 </metadata>
 <defs>
  <style type="text/css">*{stroke-linejoin: round; stroke-linecap: butt}</style>
 </defs>
 <g id="figure_1">
  <g id="patch_1">
   <path d="M 0 345.6 
L 460.8 345.6 
L 460.8 0 
L 0 0 
z
" style="fill: #ffffff"/>
  </g>
  <g id="axes_1">
   <g id="patch_2">
    <path d="M 57.6 307.584 
L 414.72 307.584 
L 414.72 41.472 
L 57.6 41.472 
z
" style="fill: #ffffff"/>
   </g>
   <g id="matplotlib.axis_1">
    <g id="xtick_1">
     <g id="line2d_1">
      <defs>
       <path id="mfe218bbb64" d="M 0 0 
L 0 3.5 
" style="stroke: #000000; stroke-width: 0.8"/>
      </defs>
      <g>
       <use xlink:href="#mfe218bbb64" x="73.832727" y="307.584" style="stroke: #000000; stroke-width: 0.8"/>
      </g>
     </g>
     <g id="text_1">
      <!-- 0 -->
      <g transform="translate(70.651477 322.182437) scale(0.1 -0.1)">
       <defs>
        <path id="DejaVuSans-30" d="M 2034 4250 
Q 1547 4250 1301 3770 
Q 1056 3291 1056 2328 
Q 1056 1369 1301 889 
Q 1547 409 2034 409 
Q 2525 409 2770 889 
Q 3016 1369 3016 2328 
Q 3016 3291 2770 3770 
Q 2525 4250 2034 4250 
z
M 2034 4750 
Q 2819 4750 3233 4129 
Q 3647 3509 3647 2328 
Q 3647 1150 3233 529 
Q 2819 -91 2034 -91 
Q 1250 -91 836 529 
Q 422 1150 422 2328 
Q 422 3509 836 4129 
Q 1250 4750 2034 4750 
z
" transform="scale(0.015625)"/>
       </defs>
       <use xlink:href="#DejaVuSans-30"/>
      </g>
     </g>
    </g>
    <g id="xtick_2">
     <g id="line2d_2">
      <g>
       <use xlink:href="#mfe218bbb64" x="149.333784" y="307.584" style="stroke: #000000; stroke-width: 0.8"/>
      </g>
     </g>
     <g id="text_2">
      <!-- 50 -->
      <g transform="translate(142.971284 322.182437) scale(0.1 -0.1)">
       <defs>
        <path id="DejaVuSans-35" d="M 691 4666 
L 3169 4666 
L 3169 4134 
L 1269 4134 
L 1269 2991 
Q 1406 3038 1543 3061 
Q 1681 3084 1819 3084 
Q 2600 3084 3056 2656 
Q 3513 2228 3513 1497 
Q 3513 744 3044 326 
Q 2575 -91 1722 -91 
Q 1428 -91 1123 -41 
Q 819 9 494 109 
L 494 744 
Q 775 591 1075 516 
Q 1375 441 1709 441 
Q 2250 441 2565 725 
Q 2881 1009 2881 1497 
Q 2881 1984 2565 2268 
Q 2250 2553 1709 2553 
Q 1456 2553 1204 2497 
Q 953 2441 691 2322 
L 691 4666 
z
" transform="scale(0.015625)"/>
       </defs>
       <use xlink:href="#DejaVuSans-35"/>
       <use xlink:href="#DejaVuSans-30" x="63.623047"/>
      </g>
     </g>
    </g>
    <g id="xtick_3">
     <g id="line2d_3">
      <g>
       <use xlink:href="#mfe218bbb64" x="224.834841" y="307.584" style="stroke: #000000; stroke-width: 0.8"/>
      </g>
     </g>
     <g id="text_3">
      <!-- 100 -->
      <g transform="translate(215.291091 322.182437) scale(0.1 -0.1)">
       <defs>
        <path id="DejaVuSans-31" d="M 794 531 
L 1825 531 
L 1825 4091 
L 703 3866 
L 703 4441 
L 1819 4666 
L 2450 4666 
L 2450 531 
L 3481 531 
L 3481 0 
L 794 0 
L 794 531 
z
" transform="scale(0.015625)"/>
       </defs>
       <use xlink:href="#DejaVuSans-31"/>
       <use xlink:href="#DejaVuSans-30" x="63.623047"/>
       <use xlink:href="#DejaVuSans-30" x="127.246094"/>
      </g>
     </g>
    </g>
    <g id="xtick_4">
     <g id="line2d_4">
      <g>
       <use xlink:href="#mfe218bbb64" x="300.335899" y="307.584" style="stroke: #000000; stroke-width: 0.8"/>
      </g>
     </g>
     <g id="text_4">
      <!-- 150 -->
      <g transform="translate(290.792149 322.182437) scale(0.1 -0.1)">
       <use xlink:href="#DejaVuSans-31"/>
       <use xlink:href="#DejaVuSans-35" x="63.623047"/>
       <use xlink:href="#DejaVuSans-30" x="127.246094"/>
      </g>
     </g>
    </g>
    <g id="xtick_5">
     <g id="line2d_5">
      <g>
       <use xlink:href="#mfe218bbb64" x="375.836956" y="307.584" style="stroke: #000000; stroke-width: 0.8"/>
      </g>
     </g>
     <g id="text_5">
      <!-- 200 -->
      <g transform="translate(366.293206 322.182437) scale(0.1 -0.1)">
       <defs>
        <path id="DejaVuSans-32" d="M 1228 531 
L 3431 531 
L 3431 0 
L 469 0 
L 469 531 
Q 828 903 1448 1529 
Q 2069 2156 2228 2338 
Q 2531 2678 2651 2914 
Q 2772 3150 2772 3378 
Q 2772 3750 2511 3984 
Q 2250 4219 1831 4219 
Q 1534 4219 1204 4116 
Q 875 4013 500 3803 
L 500 4441 
Q 881 4594 1212 4672 
Q 1544 4750 1819 4750 
Q 2544 4750 2975 4387 
Q 3406 4025 3406 3419 
Q 3406 3131 3298 2873 
Q 3191 2616 2906 2266 
Q 2828 2175 2409 1742 
Q 1991 1309 1228 531 
z
" transform="scale(0.015625)"/>
       </defs>
       <use xlink:href="#DejaVuSans-32"/>
       <use xlink:href="#DejaVuSans-30" x="63.623047"/>
       <use xlink:href="#DejaVuSans-30" x="127.246094"/>
      </g>
     </g>
    </g>
   </g>
   <g id="matplotlib.axis_2">
    <g id="ytick_1">
     <g id="line2d_6">
      <defs>
       <path id="m3c8cea9246" d="M 0 0 
L -3.5 0 
" style="stroke: #000000; stroke-width: 0.8"/>
      </defs>
      <g>
       <use xlink:href="#m3c8cea9246" x="57.6" y="303.780554" style="stroke: #000000; stroke-width: 0.8"/>
      </g>
     </g>
     <g id="text_6">
      <!-- −3500 -->
      <g transform="translate(16.770313 307.579773) scale(0.1 -0.1)">
       <defs>
        <path id="DejaVuSans-2212" d="M 678 2272 
L 4684 2272 
L 4684 1741 
L 678 1741 
L 678 2272 
z
" transform="scale(0.015625)"/>
        <path id="DejaVuSans-33" d="M 2597 2516 
Q 3050 2419 3304 2112 
Q 3559 1806 3559 1356 
Q 3559 666 3084 287 
Q 2609 -91 1734 -91 
Q 1441 -91 1130 -33 
Q 819 25 488 141 
L 488 750 
Q 750 597 1062 519 
Q 1375 441 1716 441 
Q 2309 441 2620 675 
Q 2931 909 2931 1356 
Q 2931 1769 2642 2001 
Q 2353 2234 1838 2234 
L 1294 2234 
L 1294 2753 
L 1863 2753 
Q 2328 2753 2575 2939 
Q 2822 3125 2822 3475 
Q 2822 3834 2567 4026 
Q 2313 4219 1838 4219 
Q 1578 4219 1281 4162 
Q 984 4106 628 3988 
L 628 4550 
Q 988 4650 1302 4700 
Q 1616 4750 1894 4750 
Q 2613 4750 3031 4423 
Q 3450 4097 3450 3541 
Q 3450 3153 3228 2886 
Q 3006 2619 2597 2516 
z
" transform="scale(0.015625)"/>
       </defs>
       <use xlink:href="#DejaVuSans-2212"/>
       <use xlink:href="#DejaVuSans-33" x="83.789062"/>
       <use xlink:href="#DejaVuSans-35" x="147.412109"/>
       <use xlink:href="#DejaVuSans-30" x="211.035156"/>
       <use xlink:href="#DejaVuSans-30" x="274.658203"/>
      </g>
     </g>
    </g>
    <g id="ytick_2">
     <g id="line2d_7">
      <g>
       <use xlink:href="#m3c8cea9246" x="57.6" y="267.882053" style="stroke: #000000; stroke-width: 0.8"/>
      </g>
     </g>
     <g id="text_7">
      <!-- −3000 -->
      <g transform="translate(16.770313 271.681271) scale(0.1 -0.1)">
       <use xlink:href="#DejaVuSans-2212"/>
       <use xlink:href="#DejaVuSans-33" x="83.789062"/>
       <use xlink:href="#DejaVuSans-30" x="147.412109"/>
       <use xlink:href="#DejaVuSans-30" x="211.035156"/>
       <use xlink:href="#DejaVuSans-30" x="274.658203"/>
      </g>
     </g>
    </g>
    <g id="ytick_3">
     <g id="line2d_8">
      <g>
       <use xlink:href="#m3c8cea9246" x="57.6" y="231.983551" style="stroke: #000000; stroke-width: 0.8"/>
      </g>
     </g>
     <g id="text_8">
      <!-- −2500 -->
      <g transform="translate(16.770313 235.78277) scale(0.1 -0.1)">
       <use xlink:href="#DejaVuSans-2212"/>
       <use xlink:href="#DejaVuSans-32" x="83.789062"/>
       <use xlink:href="#DejaVuSans-35" x="147.412109"/>
       <use xlink:href="#DejaVuSans-30" x="211.035156"/>
       <use xlink:href="#DejaVuSans-30" x="274.658203"/>
      </g>
     </g>
    </g>
    <g id="ytick_4">
     <g id="line2d_9">
      <g>
       <use xlink:href="#m3c8cea9246" x="57.6" y="196.08505" style="stroke: #000000; stroke-width: 0.8"/>
      </g>
     </g>
     <g id="text_9">
      <!-- −2000 -->
      <g transform="translate(16.770313 199.884269) scale(0.1 -0.1)">
       <use xlink:href="#DejaVuSans-2212"/>
       <use xlink:href="#DejaVuSans-32" x="83.789062"/>
       <use xlink:href="#DejaVuSans-30" x="147.412109"/>
       <use xlink:href="#DejaVuSans-30" x="211.035156"/>
       <use xlink:href="#DejaVuSans-30" x="274.658203"/>
      </g>
     </g>
    </g>
    <g id="ytick_5">
     <g id="line2d_10">
      <g>
       <use xlink:href="#m3c8cea9246" x="57.6" y="160.186549" style="stroke: #000000; stroke-width: 0.8"/>
      </g>
     </g>
     <g id="text_10">
      <!-- −1500 -->
      <g transform="translate(16.770313 163.985767) scale(0.1 -0.1)">
       <use xlink:href="#DejaVuSans-2212"/>
       <use xlink:href="#DejaVuSans-31" x="83.789062"/>
       <use xlink:href="#DejaVuSans-35" x="147.412109"/>
       <use xlink:href="#DejaVuSans-30" x="211.035156"/>
       <use xlink:href="#DejaVuSans-30" x="274.658203"/>
      </g>
     </g>
    </g>
    <g id="ytick_6">
     <g id="line2d_11">
      <g>
       <use xlink:href="#m3c8cea9246" x="57.6" y="124.288047" style="stroke: #000000; stroke-width: 0.8"/>
      </g>
     </g>
     <g id="text_11">
      <!-- −1000 -->
      <g transform="translate(16.770313 128.087266) scale(0.1 -0.1)">
       <use xlink:href="#DejaVuSans-2212"/>
       <use xlink:href="#DejaVuSans-31" x="83.789062"/>
       <use xlink:href="#DejaVuSans-30" x="147.412109"/>
       <use xlink:href="#DejaVuSans-30" x="211.035156"/>
       <use xlink:href="#DejaVuSans-30" x="274.658203"/>
      </g>
     </g>
    </g>
    <g id="ytick_7">
     <g id="line2d_12">
      <g>
       <use xlink:href="#m3c8cea9246" x="57.6" y="88.389546" style="stroke: #000000; stroke-width: 0.8"/>
      </g>
     </g>
     <g id="text_12">
      <!-- −500 -->
      <g transform="translate(23.132812 92.188765) scale(0.1 -0.1)">
       <use xlink:href="#DejaVuSans-2212"/>
       <use xlink:href="#DejaVuSans-35" x="83.789062"/>
       <use xlink:href="#DejaVuSans-30" x="147.412109"/>
       <use xlink:href="#DejaVuSans-30" x="211.035156"/>
      </g>
     </g>
    </g>
    <g id="ytick_8">
     <g id="line2d_13">
      <g>
       <use xlink:href="#m3c8cea9246" x="57.6" y="52.491045" style="stroke: #000000; stroke-width: 0.8"/>
      </g>
     </g>
     <g id="text_13">
      <!-- 0 -->
      <g transform="translate(44.2375 56.290264) scale(0.1 -0.1)">
       <use xlink:href="#DejaVuSans-30"/>
      </g>
     </g>
    </g>
   </g>
   <g id="line2d_14">
    <path d="M 73.832727 53.568 
L 75.342748 55.757809 
L 76.85277 55.039839 
L 79.872812 55.829606 
L 81.382833 55.901403 
L 82.892854 56.762967 
L 84.402875 56.69117 
L 85.912896 59.31176 
L 88.932939 68.322284 
L 90.44296 64.768332 
L 91.952981 64.265753 
L 93.463002 62.686219 
L 94.973023 64.481144 
L 97.993066 65.809389 
L 99.503087 67.604314 
L 101.013108 68.322284 
L 102.523129 69.901818 
L 104.03315 69.363341 
L 105.543171 70.727484 
L 107.053192 69.86592 
L 108.563214 70.081311 
L 110.073235 70.153108 
L 111.583256 71.230063 
L 113.093277 72.163424 
L 114.603298 71.696743 
L 116.113319 71.840337 
L 117.62334 71.840337 
L 119.133362 72.127525 
L 120.643383 72.199322 
L 122.153404 71.517251 
L 123.663425 71.30186 
L 125.173446 71.373657 
L 126.683467 71.30186 
L 128.193488 75.035304 
L 129.70351 76.614838 
L 131.213531 74.748116 
L 132.723552 76.722533 
L 134.233573 77.296909 
L 135.743594 77.368706 
L 137.253615 77.296909 
L 138.763636 77.978981 
L 140.273658 78.337966 
L 141.783679 79.271327 
L 143.2937 80.850861 
L 144.803721 81.856019 
L 146.313742 82.394497 
L 147.823763 84.189422 
L 149.333784 85.158681 
L 150.843805 86.63052 
L 152.353827 86.845911 
L 153.863848 86.37923 
L 155.373869 87.743373 
L 156.88389 88.030561 
L 158.393911 87.312591 
L 161.413953 92.912757 
L 162.923975 93.199945 
L 164.433996 92.589671 
L 165.944017 91.835802 
L 168.964059 91.40502 
L 170.47408 90.68705 
L 171.984101 92.12299 
L 173.494123 91.692208 
L 175.004144 93.271742 
L 176.514165 93.343539 
L 178.024186 93.917915 
L 179.534207 93.774321 
L 181.044228 94.779479 
L 182.554249 96.646202 
L 184.064271 96.287217 
L 185.574292 98.441127 
L 187.084313 98.871909 
L 188.594334 98.692416 
L 190.104355 98.082142 
L 191.614376 98.728315 
L 193.124397 98.153939 
L 194.634419 97.723157 
L 196.14444 99.302691 
L 197.654461 99.159097 
L 199.164482 101.528398 
L 200.674503 104.184887 
L 202.184524 103.933597 
L 203.694545 106.051609 
L 205.204567 105.154146 
L 206.714588 104.436176 
L 208.224609 104.436176 
L 209.73463 104.651567 
L 211.244651 106.805477 
L 212.754672 109.820951 
L 214.264693 108.241417 
L 215.774715 110.57482 
L 217.284736 110.933805 
L 218.794757 109.820951 
L 220.304778 110.395327 
L 221.814799 109.749154 
L 223.32482 112.26205 
L 224.834841 112.764629 
L 226.344863 113.985178 
L 229.364905 112.585136 
L 232.384947 113.590294 
L 233.894968 113.733888 
L 235.404989 115.887798 
L 236.915011 120.985385 
L 238.425032 116.821159 
L 239.935053 117.503231 
L 241.445074 117.934013 
L 242.955095 118.867374 
L 244.465116 117.431434 
L 245.975137 122.600818 
L 247.485159 122.600818 
L 248.99518 125.472698 
L 250.505201 123.893164 
L 252.015222 126.980435 
L 253.525243 128.416375 
L 255.035264 133.657556 
L 256.545285 132.724195 
L 258.055307 132.975485 
L 259.565328 132.257515 
L 261.075349 132.185718 
L 262.58537 131.108763 
L 264.095391 132.401109 
L 265.605412 136.637132 
L 267.115433 133.585759 
L 270.135476 134.662714 
L 271.645497 138.396158 
L 273.155518 138.539752 
L 274.665539 141.196242 
L 276.17556 141.770618 
L 277.685581 143.924528 
L 279.195603 145.575859 
L 280.705624 143.888629 
L 282.215645 147.406682 
L 283.725666 149.991374 
L 285.235687 155.591541 
L 286.745708 156.453105 
L 288.255729 157.673654 
L 289.765751 159.217289 
L 291.275772 158.822406 
L 292.785793 162.663545 
L 294.295814 168.335509 
L 295.805835 165.535425 
L 297.315856 164.817455 
L 298.825877 164.602064 
L 300.335899 163.812297 
L 301.84592 163.884094 
L 303.355941 164.673861 
L 304.865962 167.976524 
L 306.375983 169.412464 
L 307.886004 169.089377 
L 309.396025 168.981682 
L 312.416068 177.453728 
L 313.926089 176.91525 
L 315.43611 180.899984 
L 316.946131 179.715333 
L 318.456152 180.03842 
L 319.966173 181.653853 
L 322.986216 181.976939 
L 324.496237 181.689751 
L 326.006258 182.335924 
L 327.516279 183.843661 
L 329.0263 183.987255 
L 330.536321 186.859135 
L 332.046342 195.474775 
L 333.556364 193.177271 
L 335.066385 190.520782 
L 336.576406 190.772072 
L 338.086427 190.772072 
L 339.596448 189.048944 
L 341.106469 189.695117 
L 342.61649 195.223486 
L 344.126512 195.008095 
L 345.636533 196.444035 
L 347.146554 199.890291 
L 348.656575 201.254434 
L 350.166596 199.351814 
L 351.676617 202.905765 
L 353.186638 202.690374 
L 354.69666 202.762171 
L 356.206681 203.049359 
L 357.716702 204.126314 
L 359.226723 204.341705 
L 360.736744 206.423818 
L 362.246765 209.582886 
L 363.756786 215.757429 
L 365.266808 216.834384 
L 366.776829 228.357803 
L 368.28685 226.096197 
L 369.796871 222.219159 
L 371.306892 219.31138 
L 372.816913 219.167786 
L 374.326934 218.019034 
L 375.836956 218.090831 
L 377.346977 217.660049 
L 378.856998 220.962711 
L 380.367019 221.249899 
L 381.87704 220.388335 
L 383.387061 220.244741 
L 384.897082 221.824275 
L 386.407104 222.542245 
L 387.917125 222.255057 
L 389.427146 225.773111 
L 390.937167 227.137254 
L 392.447188 227.316746 
L 393.957209 226.814167 
L 395.46723 227.280848 
L 396.977252 233.311796 
L 398.487273 236.470864 
L 398.487273 236.470864 
" clip-path="url(#p5d9aaa9dd3)" style="fill: none; stroke: #1f77b4; stroke-opacity: 0.7; stroke-width: 1.5; stroke-linecap: square"/>
   </g>
   <g id="line2d_15">
    <path d="M 73.832727 53.855188 
L 75.342748 56.727068 
L 76.85277 56.009098 
L 78.362791 56.727068 
L 79.872812 57.15785 
L 81.382833 57.229647 
L 82.892854 58.091211 
L 84.402875 57.588632 
L 85.912896 60.173324 
L 87.422918 63.260595 
L 88.932939 70.081311 
L 90.44296 69.937717 
L 91.952981 69.363341 
L 93.463002 67.783806 
L 94.973023 69.578732 
L 96.483044 69.327442 
L 97.993066 70.3326 
L 99.503087 72.630104 
L 101.013108 73.348074 
L 102.523129 75.860969 
L 104.03315 75.322492 
L 105.543171 77.04562 
L 107.053192 77.04562 
L 108.563214 77.261011 
L 110.073235 77.225112 
L 111.583256 78.302067 
L 113.093277 78.696951 
L 114.603298 78.696951 
L 116.113319 78.840545 
L 117.62334 78.768748 
L 119.133362 79.055936 
L 120.643383 78.984139 
L 122.153404 78.302067 
L 125.173446 78.589255 
L 126.683467 78.48156 
L 128.193488 82.250903 
L 129.70351 81.963714 
L 131.213531 80.886759 
L 132.723552 82.3227 
L 134.233573 82.897076 
L 135.743594 83.256061 
L 137.253615 83.184264 
L 138.763636 83.830437 
L 140.273658 84.189422 
L 141.783679 84.94329 
L 143.2937 86.056144 
L 144.803721 87.851069 
L 146.313742 89.287009 
L 147.823763 91.799904 
L 149.333784 94.025611 
L 150.843805 96.610303 
L 152.353827 98.11804 
L 153.863848 98.405228 
L 155.373869 99.912965 
L 156.88389 100.200153 
L 158.393911 99.482183 
L 159.903932 102.354063 
L 161.413953 103.646409 
L 162.923975 105.29774 
L 164.433996 105.513131 
L 165.944017 104.866958 
L 168.964059 104.436176 
L 170.47408 103.718206 
L 171.984101 105.513131 
L 173.494123 104.364379 
L 175.004144 105.943913 
L 176.514165 105.225943 
L 178.024186 105.800319 
L 179.534207 105.656725 
L 181.044228 106.661883 
L 182.554249 108.026026 
L 184.064271 108.600402 
L 185.574292 111.041501 
L 187.084313 112.692832 
L 188.594334 113.339005 
L 190.104355 113.051817 
L 191.614376 113.69799 
L 193.124397 113.123614 
L 194.634419 112.692832 
L 196.14444 114.272366 
L 197.654461 113.339005 
L 199.164482 115.708306 
L 200.674503 117.180144 
L 202.184524 118.257099 
L 203.694545 120.913588 
L 205.204567 121.34437 
L 206.714588 120.841791 
L 208.224609 120.841791 
L 209.73463 121.057182 
L 211.244651 123.211092 
L 212.754672 126.226567 
L 214.264693 126.15477 
L 215.774715 128.452274 
L 217.284736 128.811259 
L 218.794757 127.877898 
L 220.304778 128.452274 
L 221.814799 127.806101 
L 223.32482 130.318996 
L 224.834841 129.565127 
L 226.344863 130.785676 
L 227.854884 130.642082 
L 229.364905 129.995909 
L 232.384947 131.001067 
L 233.894968 130.893372 
L 235.404989 132.975485 
L 236.915011 138.073072 
L 238.425032 136.996117 
L 239.935053 137.139711 
L 241.445074 137.570493 
L 242.955095 138.503854 
L 244.465116 137.067914 
L 245.975137 142.237298 
L 247.485159 142.237298 
L 248.99518 145.109178 
L 250.505201 143.529644 
L 252.015222 145.827148 
L 253.525243 147.263088 
L 255.035264 152.504269 
L 256.545285 151.570908 
L 258.055307 151.355517 
L 259.565328 150.637547 
L 261.075349 150.56575 
L 262.58537 149.488795 
L 264.095391 150.781141 
L 265.605412 154.370992 
L 267.115433 153.437631 
L 270.135476 154.514586 
L 271.645497 158.24803 
L 273.155518 158.391624 
L 274.665539 161.048113 
L 276.17556 161.622489 
L 277.685581 163.776399 
L 279.195603 165.42773 
L 280.705624 164.566166 
L 282.215645 167.653437 
L 283.725666 170.238129 
L 285.235687 177.130641 
L 286.745708 181.438461 
L 289.765751 188.043786 
L 291.275772 189.264335 
L 292.785793 193.715749 
L 294.295814 201.613419 
L 295.805835 202.762171 
L 297.315856 202.618577 
L 298.825877 202.331389 
L 300.335899 201.541622 
L 301.84592 201.613419 
L 303.355941 202.403186 
L 304.865962 205.310965 
L 306.375983 206.746905 
L 307.886004 207.967454 
L 309.396025 208.470033 
L 312.416068 216.942079 
L 313.926089 218.59341 
L 315.43611 223.403809 
L 316.946131 224.624359 
L 318.456152 225.55772 
L 319.966173 227.639833 
L 322.986216 228.070615 
L 324.496237 227.783427 
L 326.006258 228.573194 
L 327.516279 229.757844 
L 329.0263 229.14757 
L 330.536321 231.947653 
L 332.046342 239.127353 
L 333.556364 241.137669 
L 335.066385 239.486338 
L 336.576406 238.911962 
L 338.086427 238.911962 
L 339.596448 237.188834 
L 341.106469 238.696571 
L 342.61649 243.901854 
L 344.126512 240.922278 
L 345.636533 242.358218 
L 347.146554 245.804474 
L 348.656575 248.891745 
L 350.166596 248.53276 
L 351.676617 251.907219 
L 353.186638 251.691828 
L 354.69666 251.763625 
L 356.206681 252.050813 
L 357.716702 252.984175 
L 359.226723 252.661088 
L 362.246765 256.753517 
L 363.756786 264.507593 
L 365.266808 269.461587 
L 366.776829 283.462002 
L 368.28685 288.200604 
L 369.796871 286.692867 
L 371.306892 283.03122 
L 372.816913 282.887626 
L 374.326934 281.738874 
L 375.836956 281.810671 
L 377.346977 281.379889 
L 378.856998 284.682551 
L 380.367019 284.969739 
L 381.87704 284.108175 
L 383.387061 283.964581 
L 384.897082 285.544115 
L 386.407104 285.472318 
L 387.917125 285.18513 
L 389.427146 288.703183 
L 390.937167 288.3083 
L 392.447188 289.169864 
L 393.957209 289.098067 
L 395.46723 289.528849 
L 396.977252 295.344406 
L 398.487273 295.488 
L 398.487273 295.488 
" clip-path="url(#p5d9aaa9dd3)" style="fill: none; stroke: #ff7f0e; stroke-opacity: 0.7; stroke-width: 1.5; stroke-linecap: square"/>
   </g>
   <g id="line2d_16">
    <path d="M 73.832727 53.711594 
L 75.342748 56.242438 
L 76.85277 55.524468 
L 79.872812 56.493728 
L 81.382833 56.565525 
L 82.892854 57.427089 
L 84.402875 57.139901 
L 85.912896 59.742542 
L 87.422918 63.475986 
L 88.932939 69.201797 
L 90.44296 67.353024 
L 91.952981 66.814547 
L 93.463002 65.235013 
L 94.973023 67.029938 
L 96.483044 67.22738 
L 97.993066 68.070995 
L 99.503087 70.117209 
L 101.013108 70.835179 
L 102.523129 72.881394 
L 104.03315 72.342916 
L 105.543171 73.886552 
L 107.053192 73.45577 
L 108.563214 73.671161 
L 110.073235 73.68911 
L 111.583256 74.766065 
L 113.093277 75.430187 
L 114.603298 75.196847 
L 116.113319 75.340441 
L 117.62334 75.304543 
L 119.133362 75.591731 
L 120.643383 75.591731 
L 122.153404 74.909659 
L 123.663425 74.855811 
L 125.173446 74.981456 
L 126.683467 74.89171 
L 128.193488 78.643103 
L 129.70351 79.289276 
L 131.213531 77.817438 
L 132.723552 79.522616 
L 134.233573 80.096992 
L 135.743594 80.312383 
L 137.253615 80.240586 
L 138.763636 80.904709 
L 140.273658 81.263694 
L 141.783679 82.107309 
L 144.803721 84.853544 
L 146.313742 85.840753 
L 147.823763 87.994663 
L 149.333784 89.592146 
L 150.843805 91.620411 
L 152.353827 92.481975 
L 153.863848 92.392229 
L 155.373869 93.828169 
L 156.88389 94.115357 
L 158.393911 93.397387 
L 159.903932 96.269267 
L 161.413953 98.279583 
L 162.923975 99.248843 
L 164.433996 99.051401 
L 165.944017 98.35138 
L 168.964059 97.920598 
L 170.47408 97.202628 
L 171.984101 98.818061 
L 173.494123 98.028294 
L 175.004144 99.607828 
L 176.514165 99.284741 
L 178.024186 99.859117 
L 179.534207 99.715523 
L 181.044228 100.720681 
L 182.554249 102.336114 
L 184.064271 102.443809 
L 185.574292 104.741314 
L 187.084313 105.78237 
L 188.594334 106.01571 
L 190.104355 105.566979 
L 191.614376 106.213152 
L 193.124397 105.638776 
L 194.634419 105.207994 
L 196.14444 106.787528 
L 197.654461 106.249051 
L 199.164482 108.618352 
L 200.674503 110.682516 
L 202.184524 111.095348 
L 203.694545 113.482599 
L 205.204567 113.249258 
L 206.714588 112.638984 
L 208.224609 112.638984 
L 209.73463 112.854375 
L 211.244651 115.008285 
L 212.754672 118.023759 
L 214.264693 117.198093 
L 215.774715 119.513547 
L 217.284736 119.872532 
L 218.794757 118.849425 
L 220.304778 119.423801 
L 221.814799 118.777628 
L 223.32482 121.290523 
L 224.834841 121.164878 
L 226.344863 122.385427 
L 227.854884 121.936696 
L 229.364905 121.290523 
L 232.384947 122.295681 
L 233.894968 122.31363 
L 235.404989 124.431641 
L 236.915011 129.529229 
L 238.425032 126.908638 
L 241.445074 127.752253 
L 242.955095 128.685614 
L 244.465116 127.249674 
L 245.975137 132.419058 
L 247.485159 132.419058 
L 248.99518 135.290938 
L 250.505201 133.711404 
L 252.015222 136.403792 
L 253.525243 137.839732 
L 255.035264 143.080913 
L 256.545285 142.147552 
L 258.055307 142.165501 
L 259.565328 141.447531 
L 261.075349 141.375734 
L 262.58537 140.298779 
L 264.095391 141.591125 
L 265.605412 145.504062 
L 267.115433 143.511695 
L 270.135476 144.58865 
L 271.645497 148.322094 
L 273.155518 148.465688 
L 274.665539 151.122177 
L 276.17556 151.696553 
L 277.685581 153.850463 
L 279.195603 155.501794 
L 280.705624 154.227398 
L 282.215645 157.53006 
L 283.725666 160.114752 
L 285.235687 166.361091 
L 286.745708 168.945783 
L 289.765751 173.630537 
L 291.275772 174.04337 
L 292.785793 178.189647 
L 294.295814 184.974464 
L 295.805835 184.148798 
L 297.315856 183.718016 
L 298.825877 183.466727 
L 300.335899 182.67696 
L 301.84592 182.748757 
L 303.355941 183.538524 
L 304.865962 186.643744 
L 306.375983 188.079684 
L 307.886004 188.528415 
L 309.396025 188.725857 
L 312.416068 197.197904 
L 313.926089 197.75433 
L 315.43611 202.151897 
L 316.946131 202.169846 
L 318.456152 202.79807 
L 319.966173 204.646843 
L 322.986216 205.023777 
L 324.496237 204.736589 
L 326.006258 205.454559 
L 327.516279 206.800753 
L 329.0263 206.567412 
L 330.536321 209.403394 
L 332.046342 217.301064 
L 333.556364 217.15747 
L 335.066385 215.00356 
L 336.576406 214.842017 
L 338.086427 214.842017 
L 339.596448 213.118889 
L 341.106469 214.195844 
L 342.61649 219.56267 
L 344.126512 217.965187 
L 345.636533 219.401127 
L 347.146554 222.847383 
L 348.656575 225.07309 
L 350.166596 223.942287 
L 351.676617 227.406492 
L 353.186638 227.191101 
L 354.69666 227.262898 
L 356.206681 227.550086 
L 357.716702 228.555244 
L 359.226723 228.501397 
L 360.736744 230.529662 
L 362.246765 233.168202 
L 363.756786 240.132511 
L 365.266808 243.147985 
L 366.776829 255.909902 
L 368.28685 257.148401 
L 369.796871 254.456013 
L 371.306892 251.1713 
L 372.816913 251.027706 
L 374.326934 249.878954 
L 375.836956 249.950751 
L 377.346977 249.519969 
L 378.856998 252.822631 
L 380.367019 253.109819 
L 381.87704 252.248255 
L 383.387061 252.104661 
L 384.897082 253.684195 
L 386.407104 254.007282 
L 387.917125 253.720094 
L 389.427146 257.238147 
L 392.447188 258.243305 
L 393.957209 257.956117 
L 395.46723 258.404848 
L 396.977252 264.328101 
L 398.487273 265.979432 
L 398.487273 265.979432 
" clip-path="url(#p5d9aaa9dd3)" style="fill: none; stroke: #2ca02c; stroke-opacity: 0.7; stroke-width: 1.5; stroke-linecap: square"/>
   </g>
   <g id="patch_3">
    <path d="M 57.6 307.584 
L 57.6 41.472 
" style="fill: none; stroke: #000000; stroke-width: 0.8; stroke-linejoin: miter; stroke-linecap: square"/>
   </g>
   <g id="patch_4">
    <path d="M 414.72 307.584 
L 414.72 41.472 
" style="fill: none; stroke: #000000; stroke-width: 0.8; stroke-linejoin: miter; stroke-linecap: square"/>
   </g>
   <g id="patch_5">
    <path d="M 57.6 307.584 
L 414.72 307.584 
" style="fill: none; stroke: #000000; stroke-width: 0.8; stroke-linejoin: miter; stroke-linecap: square"/>
   </g>
   <g id="patch_6">
    <path d="M 57.6 41.472 
L 414.72 41.472 
" style="fill: none; stroke: #000000; stroke-width: 0.8; stroke-linejoin: miter; stroke-linecap: square"/>
   </g>
   <g id="text_14">
    <!-- naive_cci -->
    <g transform="translate(208.505625 35.472) scale(0.12 -0.12)">
     <defs>
      <path id="DejaVuSans-6e" d="M 3513 2113 
L 3513 0 
L 2938 0 
L 2938 2094 
Q 2938 2591 2744 2837 
Q 2550 3084 2163 3084 
Q 1697 3084 1428 2787 
Q 1159 2491 1159 1978 
L 1159 0 
L 581 0 
L 581 3500 
L 1159 3500 
L 1159 2956 
Q 1366 3272 1645 3428 
Q 1925 3584 2291 3584 
Q 2894 3584 3203 3211 
Q 3513 2838 3513 2113 
z
" transform="scale(0.015625)"/>
      <path id="DejaVuSans-61" d="M 2194 1759 
Q 1497 1759 1228 1600 
Q 959 1441 959 1056 
Q 959 750 1161 570 
Q 1363 391 1709 391 
Q 2188 391 2477 730 
Q 2766 1069 2766 1631 
L 2766 1759 
L 2194 1759 
z
M 3341 1997 
L 3341 0 
L 2766 0 
L 2766 531 
Q 2569 213 2275 61 
Q 1981 -91 1556 -91 
Q 1019 -91 701 211 
Q 384 513 384 1019 
Q 384 1609 779 1909 
Q 1175 2209 1959 2209 
L 2766 2209 
L 2766 2266 
Q 2766 2663 2505 2880 
Q 2244 3097 1772 3097 
Q 1472 3097 1187 3025 
Q 903 2953 641 2809 
L 641 3341 
Q 956 3463 1253 3523 
Q 1550 3584 1831 3584 
Q 2591 3584 2966 3190 
Q 3341 2797 3341 1997 
z
" transform="scale(0.015625)"/>
      <path id="DejaVuSans-69" d="M 603 3500 
L 1178 3500 
L 1178 0 
L 603 0 
L 603 3500 
z
M 603 4863 
L 1178 4863 
L 1178 4134 
L 603 4134 
L 603 4863 
z
" transform="scale(0.015625)"/>
      <path id="DejaVuSans-76" d="M 191 3500 
L 800 3500 
L 1894 563 
L 2988 3500 
L 3597 3500 
L 2284 0 
L 1503 0 
L 191 3500 
z
" transform="scale(0.015625)"/>
      <path id="DejaVuSans-65" d="M 3597 1894 
L 3597 1613 
L 953 1613 
Q 991 1019 1311 708 
Q 1631 397 2203 397 
Q 2534 397 2845 478 
Q 3156 559 3463 722 
L 3463 178 
Q 3153 47 2828 -22 
Q 2503 -91 2169 -91 
Q 1331 -91 842 396 
Q 353 884 353 1716 
Q 353 2575 817 3079 
Q 1281 3584 2069 3584 
Q 2775 3584 3186 3129 
Q 3597 2675 3597 1894 
z
M 3022 2063 
Q 3016 2534 2758 2815 
Q 2500 3097 2075 3097 
Q 1594 3097 1305 2825 
Q 1016 2553 972 2059 
L 3022 2063 
z
" transform="scale(0.015625)"/>
      <path id="DejaVuSans-5f" d="M 3263 -1063 
L 3263 -1509 
L -63 -1509 
L -63 -1063 
L 3263 -1063 
z
" transform="scale(0.015625)"/>
      <path id="DejaVuSans-63" d="M 3122 3366 
L 3122 2828 
Q 2878 2963 2633 3030 
Q 2388 3097 2138 3097 
Q 1578 3097 1268 2742 
Q 959 2388 959 1747 
Q 959 1106 1268 751 
Q 1578 397 2138 397 
Q 2388 397 2633 464 
Q 2878 531 3122 666 
L 3122 134 
Q 2881 22 2623 -34 
Q 2366 -91 2075 -91 
Q 1284 -91 818 406 
Q 353 903 353 1747 
Q 353 2603 823 3093 
Q 1294 3584 2113 3584 
Q 2378 3584 2631 3529 
Q 2884 3475 3122 3366 
z
" transform="scale(0.015625)"/>
     </defs>
     <use xlink:href="#DejaVuSans-6e"/>
     <use xlink:href="#DejaVuSans-61" x="63.378906"/>
     <use xlink:href="#DejaVuSans-69" x="124.658203"/>
     <use xlink:href="#DejaVuSans-76" x="152.441406"/>
     <use xlink:href="#DejaVuSans-65" x="211.621094"/>
     <use xlink:href="#DejaVuSans-5f" x="273.144531"/>
     <use xlink:href="#DejaVuSans-63" x="323.144531"/>
     <use xlink:href="#DejaVuSans-63" x="378.125"/>
     <use xlink:href="#DejaVuSans-69" x="433.105469"/>
    </g>
   </g>
   <g id="legend_1">
    <g id="patch_7">
     <path d="M 213.515312 93.506375 
L 407.72 93.506375 
Q 409.72 93.506375 409.72 91.506375 
L 409.72 48.472 
Q 409.72 46.472 407.72 46.472 
L 213.515312 46.472 
Q 211.515312 46.472 211.515312 48.472 
L 211.515312 91.506375 
Q 211.515312 93.506375 213.515312 93.506375 
z
" style="fill: #ffffff; opacity: 0.8; stroke: #cccccc; stroke-linejoin: miter"/>
    </g>
    <g id="line2d_17">
     <path d="M 215.515312 54.570438 
L 225.515312 54.570438 
L 235.515312 54.570438 
" style="fill: none; stroke: #1f77b4; stroke-opacity: 0.7; stroke-width: 1.5; stroke-linecap: square"/>
    </g>
    <g id="text_15">
     <!-- Positive cumulative predictions -->
     <g transform="translate(243.515312 58.070438) scale(0.1 -0.1)">
      <defs>
       <path id="DejaVuSans-50" d="M 1259 4147 
L 1259 2394 
L 2053 2394 
Q 2494 2394 2734 2622 
Q 2975 2850 2975 3272 
Q 2975 3691 2734 3919 
Q 2494 4147 2053 4147 
L 1259 4147 
z
M 628 4666 
L 2053 4666 
Q 2838 4666 3239 4311 
Q 3641 3956 3641 3272 
Q 3641 2581 3239 2228 
Q 2838 1875 2053 1875 
L 1259 1875 
L 1259 0 
L 628 0 
L 628 4666 
z
" transform="scale(0.015625)"/>
       <path id="DejaVuSans-6f" d="M 1959 3097 
Q 1497 3097 1228 2736 
Q 959 2375 959 1747 
Q 959 1119 1226 758 
Q 1494 397 1959 397 
Q 2419 397 2687 759 
Q 2956 1122 2956 1747 
Q 2956 2369 2687 2733 
Q 2419 3097 1959 3097 
z
M 1959 3584 
Q 2709 3584 3137 3096 
Q 3566 2609 3566 1747 
Q 3566 888 3137 398 
Q 2709 -91 1959 -91 
Q 1206 -91 779 398 
Q 353 888 353 1747 
Q 353 2609 779 3096 
Q 1206 3584 1959 3584 
z
" transform="scale(0.015625)"/>
       <path id="DejaVuSans-73" d="M 2834 3397 
L 2834 2853 
Q 2591 2978 2328 3040 
Q 2066 3103 1784 3103 
Q 1356 3103 1142 2972 
Q 928 2841 928 2578 
Q 928 2378 1081 2264 
Q 1234 2150 1697 2047 
L 1894 2003 
Q 2506 1872 2764 1633 
Q 3022 1394 3022 966 
Q 3022 478 2636 193 
Q 2250 -91 1575 -91 
Q 1294 -91 989 -36 
Q 684 19 347 128 
L 347 722 
Q 666 556 975 473 
Q 1284 391 1588 391 
Q 1994 391 2212 530 
Q 2431 669 2431 922 
Q 2431 1156 2273 1281 
Q 2116 1406 1581 1522 
L 1381 1569 
Q 847 1681 609 1914 
Q 372 2147 372 2553 
Q 372 3047 722 3315 
Q 1072 3584 1716 3584 
Q 2034 3584 2315 3537 
Q 2597 3491 2834 3397 
z
" transform="scale(0.015625)"/>
       <path id="DejaVuSans-74" d="M 1172 4494 
L 1172 3500 
L 2356 3500 
L 2356 3053 
L 1172 3053 
L 1172 1153 
Q 1172 725 1289 603 
Q 1406 481 1766 481 
L 2356 481 
L 2356 0 
L 1766 0 
Q 1100 0 847 248 
Q 594 497 594 1153 
L 594 3053 
L 172 3053 
L 172 3500 
L 594 3500 
L 594 4494 
L 1172 4494 
z
" transform="scale(0.015625)"/>
       <path id="DejaVuSans-20" transform="scale(0.015625)"/>
       <path id="DejaVuSans-75" d="M 544 1381 
L 544 3500 
L 1119 3500 
L 1119 1403 
Q 1119 906 1312 657 
Q 1506 409 1894 409 
Q 2359 409 2629 706 
Q 2900 1003 2900 1516 
L 2900 3500 
L 3475 3500 
L 3475 0 
L 2900 0 
L 2900 538 
Q 2691 219 2414 64 
Q 2138 -91 1772 -91 
Q 1169 -91 856 284 
Q 544 659 544 1381 
z
M 1991 3584 
L 1991 3584 
z
" transform="scale(0.015625)"/>
       <path id="DejaVuSans-6d" d="M 3328 2828 
Q 3544 3216 3844 3400 
Q 4144 3584 4550 3584 
Q 5097 3584 5394 3201 
Q 5691 2819 5691 2113 
L 5691 0 
L 5113 0 
L 5113 2094 
Q 5113 2597 4934 2840 
Q 4756 3084 4391 3084 
Q 3944 3084 3684 2787 
Q 3425 2491 3425 1978 
L 3425 0 
L 2847 0 
L 2847 2094 
Q 2847 2600 2669 2842 
Q 2491 3084 2119 3084 
Q 1678 3084 1418 2786 
Q 1159 2488 1159 1978 
L 1159 0 
L 581 0 
L 581 3500 
L 1159 3500 
L 1159 2956 
Q 1356 3278 1631 3431 
Q 1906 3584 2284 3584 
Q 2666 3584 2933 3390 
Q 3200 3197 3328 2828 
z
" transform="scale(0.015625)"/>
       <path id="DejaVuSans-6c" d="M 603 4863 
L 1178 4863 
L 1178 0 
L 603 0 
L 603 4863 
z
" transform="scale(0.015625)"/>
       <path id="DejaVuSans-70" d="M 1159 525 
L 1159 -1331 
L 581 -1331 
L 581 3500 
L 1159 3500 
L 1159 2969 
Q 1341 3281 1617 3432 
Q 1894 3584 2278 3584 
Q 2916 3584 3314 3078 
Q 3713 2572 3713 1747 
Q 3713 922 3314 415 
Q 2916 -91 2278 -91 
Q 1894 -91 1617 61 
Q 1341 213 1159 525 
z
M 3116 1747 
Q 3116 2381 2855 2742 
Q 2594 3103 2138 3103 
Q 1681 3103 1420 2742 
Q 1159 2381 1159 1747 
Q 1159 1113 1420 752 
Q 1681 391 2138 391 
Q 2594 391 2855 752 
Q 3116 1113 3116 1747 
z
" transform="scale(0.015625)"/>
       <path id="DejaVuSans-72" d="M 2631 2963 
Q 2534 3019 2420 3045 
Q 2306 3072 2169 3072 
Q 1681 3072 1420 2755 
Q 1159 2438 1159 1844 
L 1159 0 
L 581 0 
L 581 3500 
L 1159 3500 
L 1159 2956 
Q 1341 3275 1631 3429 
Q 1922 3584 2338 3584 
Q 2397 3584 2469 3576 
Q 2541 3569 2628 3553 
L 2631 2963 
z
" transform="scale(0.015625)"/>
       <path id="DejaVuSans-64" d="M 2906 2969 
L 2906 4863 
L 3481 4863 
L 3481 0 
L 2906 0 
L 2906 525 
Q 2725 213 2448 61 
Q 2172 -91 1784 -91 
Q 1150 -91 751 415 
Q 353 922 353 1747 
Q 353 2572 751 3078 
Q 1150 3584 1784 3584 
Q 2172 3584 2448 3432 
Q 2725 3281 2906 2969 
z
M 947 1747 
Q 947 1113 1208 752 
Q 1469 391 1925 391 
Q 2381 391 2643 752 
Q 2906 1113 2906 1747 
Q 2906 2381 2643 2742 
Q 2381 3103 1925 3103 
Q 1469 3103 1208 2742 
Q 947 2381 947 1747 
z
" transform="scale(0.015625)"/>
      </defs>
      <use xlink:href="#DejaVuSans-50"/>
      <use xlink:href="#DejaVuSans-6f" x="56.677734"/>
      <use xlink:href="#DejaVuSans-73" x="117.859375"/>
      <use xlink:href="#DejaVuSans-69" x="169.958984"/>
      <use xlink:href="#DejaVuSans-74" x="197.742188"/>
      <use xlink:href="#DejaVuSans-69" x="236.951172"/>
      <use xlink:href="#DejaVuSans-76" x="264.734375"/>
      <use xlink:href="#DejaVuSans-65" x="323.914062"/>
      <use xlink:href="#DejaVuSans-20" x="385.4375"/>
      <use xlink:href="#DejaVuSans-63" x="417.224609"/>
      <use xlink:href="#DejaVuSans-75" x="472.205078"/>
      <use xlink:href="#DejaVuSans-6d" x="535.583984"/>
      <use xlink:href="#DejaVuSans-75" x="632.996094"/>
      <use xlink:href="#DejaVuSans-6c" x="696.375"/>
      <use xlink:href="#DejaVuSans-61" x="724.158203"/>
      <use xlink:href="#DejaVuSans-74" x="785.4375"/>
      <use xlink:href="#DejaVuSans-69" x="824.646484"/>
      <use xlink:href="#DejaVuSans-76" x="852.429688"/>
      <use xlink:href="#DejaVuSans-65" x="911.609375"/>
      <use xlink:href="#DejaVuSans-20" x="973.132812"/>
      <use xlink:href="#DejaVuSans-70" x="1004.919922"/>
      <use xlink:href="#DejaVuSans-72" x="1068.396484"/>
      <use xlink:href="#DejaVuSans-65" x="1107.259766"/>
      <use xlink:href="#DejaVuSans-64" x="1168.783203"/>
      <use xlink:href="#DejaVuSans-69" x="1232.259766"/>
      <use xlink:href="#DejaVuSans-63" x="1260.042969"/>
      <use xlink:href="#DejaVuSans-74" x="1315.023438"/>
      <use xlink:href="#DejaVuSans-69" x="1354.232422"/>
      <use xlink:href="#DejaVuSans-6f" x="1382.015625"/>
      <use xlink:href="#DejaVuSans-6e" x="1443.197266"/>
      <use xlink:href="#DejaVuSans-73" x="1506.576172"/>
     </g>
    </g>
    <g id="line2d_18">
     <path d="M 215.515312 69.248563 
L 225.515312 69.248563 
L 235.515312 69.248563 
" style="fill: none; stroke: #ff7f0e; stroke-opacity: 0.7; stroke-width: 1.5; stroke-linecap: square"/>
    </g>
    <g id="text_16">
     <!-- Negative cumulative predictions -->
     <g transform="translate(243.515312 72.748563) scale(0.1 -0.1)">
      <defs>
       <path id="DejaVuSans-4e" d="M 628 4666 
L 1478 4666 
L 3547 763 
L 3547 4666 
L 4159 4666 
L 4159 0 
L 3309 0 
L 1241 3903 
L 1241 0 
L 628 0 
L 628 4666 
z
" transform="scale(0.015625)"/>
       <path id="DejaVuSans-67" d="M 2906 1791 
Q 2906 2416 2648 2759 
Q 2391 3103 1925 3103 
Q 1463 3103 1205 2759 
Q 947 2416 947 1791 
Q 947 1169 1205 825 
Q 1463 481 1925 481 
Q 2391 481 2648 825 
Q 2906 1169 2906 1791 
z
M 3481 434 
Q 3481 -459 3084 -895 
Q 2688 -1331 1869 -1331 
Q 1566 -1331 1297 -1286 
Q 1028 -1241 775 -1147 
L 775 -588 
Q 1028 -725 1275 -790 
Q 1522 -856 1778 -856 
Q 2344 -856 2625 -561 
Q 2906 -266 2906 331 
L 2906 616 
Q 2728 306 2450 153 
Q 2172 0 1784 0 
Q 1141 0 747 490 
Q 353 981 353 1791 
Q 353 2603 747 3093 
Q 1141 3584 1784 3584 
Q 2172 3584 2450 3431 
Q 2728 3278 2906 2969 
L 2906 3500 
L 3481 3500 
L 3481 434 
z
" transform="scale(0.015625)"/>
      </defs>
      <use xlink:href="#DejaVuSans-4e"/>
      <use xlink:href="#DejaVuSans-65" x="74.804688"/>
      <use xlink:href="#DejaVuSans-67" x="136.328125"/>
      <use xlink:href="#DejaVuSans-61" x="199.804688"/>
      <use xlink:href="#DejaVuSans-74" x="261.083984"/>
      <use xlink:href="#DejaVuSans-69" x="300.292969"/>
      <use xlink:href="#DejaVuSans-76" x="328.076172"/>
      <use xlink:href="#DejaVuSans-65" x="387.255859"/>
      <use xlink:href="#DejaVuSans-20" x="448.779297"/>
      <use xlink:href="#DejaVuSans-63" x="480.566406"/>
      <use xlink:href="#DejaVuSans-75" x="535.546875"/>
      <use xlink:href="#DejaVuSans-6d" x="598.925781"/>
      <use xlink:href="#DejaVuSans-75" x="696.337891"/>
      <use xlink:href="#DejaVuSans-6c" x="759.716797"/>
      <use xlink:href="#DejaVuSans-61" x="787.5"/>
      <use xlink:href="#DejaVuSans-74" x="848.779297"/>
      <use xlink:href="#DejaVuSans-69" x="887.988281"/>
      <use xlink:href="#DejaVuSans-76" x="915.771484"/>
      <use xlink:href="#DejaVuSans-65" x="974.951172"/>
      <use xlink:href="#DejaVuSans-20" x="1036.474609"/>
      <use xlink:href="#DejaVuSans-70" x="1068.261719"/>
      <use xlink:href="#DejaVuSans-72" x="1131.738281"/>
      <use xlink:href="#DejaVuSans-65" x="1170.601562"/>
      <use xlink:href="#DejaVuSans-64" x="1232.125"/>
      <use xlink:href="#DejaVuSans-69" x="1295.601562"/>
      <use xlink:href="#DejaVuSans-63" x="1323.384766"/>
      <use xlink:href="#DejaVuSans-74" x="1378.365234"/>
      <use xlink:href="#DejaVuSans-69" x="1417.574219"/>
      <use xlink:href="#DejaVuSans-6f" x="1445.357422"/>
      <use xlink:href="#DejaVuSans-6e" x="1506.539062"/>
      <use xlink:href="#DejaVuSans-73" x="1569.917969"/>
     </g>
    </g>
    <g id="line2d_19">
     <path d="M 215.515312 83.926688 
L 225.515312 83.926688 
L 235.515312 83.926688 
" style="fill: none; stroke: #2ca02c; stroke-opacity: 0.7; stroke-width: 1.5; stroke-linecap: square"/>
    </g>
    <g id="text_17">
     <!-- Average cumulative predictions -->
     <g transform="translate(243.515312 87.426688) scale(0.1 -0.1)">
      <defs>
       <path id="DejaVuSans-41" d="M 2188 4044 
L 1331 1722 
L 3047 1722 
L 2188 4044 
z
M 1831 4666 
L 2547 4666 
L 4325 0 
L 3669 0 
L 3244 1197 
L 1141 1197 
L 716 0 
L 50 0 
L 1831 4666 
z
" transform="scale(0.015625)"/>
      </defs>
      <use xlink:href="#DejaVuSans-41"/>
      <use xlink:href="#DejaVuSans-76" x="62.533203"/>
      <use xlink:href="#DejaVuSans-65" x="121.712891"/>
      <use xlink:href="#DejaVuSans-72" x="183.236328"/>
      <use xlink:href="#DejaVuSans-61" x="224.349609"/>
      <use xlink:href="#DejaVuSans-67" x="285.628906"/>
      <use xlink:href="#DejaVuSans-65" x="349.105469"/>
      <use xlink:href="#DejaVuSans-20" x="410.628906"/>
      <use xlink:href="#DejaVuSans-63" x="442.416016"/>
      <use xlink:href="#DejaVuSans-75" x="497.396484"/>
      <use xlink:href="#DejaVuSans-6d" x="560.775391"/>
      <use xlink:href="#DejaVuSans-75" x="658.1875"/>
      <use xlink:href="#DejaVuSans-6c" x="721.566406"/>
      <use xlink:href="#DejaVuSans-61" x="749.349609"/>
      <use xlink:href="#DejaVuSans-74" x="810.628906"/>
      <use xlink:href="#DejaVuSans-69" x="849.837891"/>
      <use xlink:href="#DejaVuSans-76" x="877.621094"/>
      <use xlink:href="#DejaVuSans-65" x="936.800781"/>
      <use xlink:href="#DejaVuSans-20" x="998.324219"/>
      <use xlink:href="#DejaVuSans-70" x="1030.111328"/>
      <use xlink:href="#DejaVuSans-72" x="1093.587891"/>
      <use xlink:href="#DejaVuSans-65" x="1132.451172"/>
      <use xlink:href="#DejaVuSans-64" x="1193.974609"/>
      <use xlink:href="#DejaVuSans-69" x="1257.451172"/>
      <use xlink:href="#DejaVuSans-63" x="1285.234375"/>
      <use xlink:href="#DejaVuSans-74" x="1340.214844"/>
      <use xlink:href="#DejaVuSans-69" x="1379.423828"/>
      <use xlink:href="#DejaVuSans-6f" x="1407.207031"/>
      <use xlink:href="#DejaVuSans-6e" x="1468.388672"/>
      <use xlink:href="#DejaVuSans-73" x="1531.767578"/>
     </g>
    </g>
   </g>
  </g>
 </g>
 <defs>
  <clipPath id="p5d9aaa9dd3">
   <rect x="57.6" y="41.472" width="357.12" height="266.112"/>
  </clipPath>
 </defs>
</svg>
