<?xml version="1.0" encoding="utf-8" standalone="no"?>
<!DOCTYPE svg PUBLIC "-//W3C//DTD SVG 1.1//EN"
  "http://www.w3.org/Graphics/SVG/1.1/DTD/svg11.dtd">
<svg xmlns:xlink="http://www.w3.org/1999/xlink" width="460.8pt" height="345.6pt" viewBox="0 0 460.8 345.6" xmlns="http://www.w3.org/2000/svg" version="1.1">
 <metadata>
  <rdf:RDF xmlns:dc="http://purl.org/dc/elements/1.1/" xmlns:cc="http://creativecommons.org/ns#" xmlns:rdf="http://www.w3.org/1999/02/22-rdf-syntax-ns#">
   <cc:Work>
    <dc:type rdf:resource="http://purl.org/dc/dcmitype/StillImage"/>
    <dc:date>2024-08-21T09:58:54.884016</dc:date>
    <dc:format>image/svg+xml</dc:format>
    <dc:creator>
     <cc:Agent>
      <dc:title>Matplotlib v3.9.0, https://matplotlib.org/</dc:title>
     </cc:Agent>
    </dc:creator>
   </cc:Work>
  </rdf:RDF>
 </metadata>
 <defs>
  <style type="text/css">*{stroke-linejoin: round; stroke-linecap: butt}</style>
 </defs>
 <g id="figure_1">
  <g id="patch_1">
   <path d="M 0 345.6 
L 460.8 345.6 
L 460.8 0 
L 0 0 
z
" style="fill: #ffffff"/>
  </g>
  <g id="axes_1">
   <g id="patch_2">
    <path d="M 57.6 307.584 
L 414.72 307.584 
L 414.72 41.472 
L 57.6 41.472 
z
" style="fill: #ffffff"/>
   </g>
   <g id="matplotlib.axis_1">
    <g id="xtick_1">
     <g id="line2d_1">
      <defs>
       <path id="mbb83839131" d="M 0 0 
L 0 3.5 
" style="stroke: #000000; stroke-width: 0.8"/>
      </defs>
      <g>
       <use xlink:href="#mbb83839131" x="73.832727" y="307.584" style="stroke: #000000; stroke-width: 0.8"/>
      </g>
     </g>
     <g id="text_1">
      <!-- 0 -->
      <g transform="translate(70.651477 322.182437) scale(0.1 -0.1)">
       <defs>
        <path id="DejaVuSans-30" d="M 2034 4250 
Q 1547 4250 1301 3770 
Q 1056 3291 1056 2328 
Q 1056 1369 1301 889 
Q 1547 409 2034 409 
Q 2525 409 2770 889 
Q 3016 1369 3016 2328 
Q 3016 3291 2770 3770 
Q 2525 4250 2034 4250 
z
M 2034 4750 
Q 2819 4750 3233 4129 
Q 3647 3509 3647 2328 
Q 3647 1150 3233 529 
Q 2819 -91 2034 -91 
Q 1250 -91 836 529 
Q 422 1150 422 2328 
Q 422 3509 836 4129 
Q 1250 4750 2034 4750 
z
" transform="scale(0.015625)"/>
       </defs>
       <use xlink:href="#DejaVuSans-30"/>
      </g>
     </g>
    </g>
    <g id="xtick_2">
     <g id="line2d_2">
      <g>
       <use xlink:href="#mbb83839131" x="149.333784" y="307.584" style="stroke: #000000; stroke-width: 0.8"/>
      </g>
     </g>
     <g id="text_2">
      <!-- 50 -->
      <g transform="translate(142.971284 322.182437) scale(0.1 -0.1)">
       <defs>
        <path id="DejaVuSans-35" d="M 691 4666 
L 3169 4666 
L 3169 4134 
L 1269 4134 
L 1269 2991 
Q 1406 3038 1543 3061 
Q 1681 3084 1819 3084 
Q 2600 3084 3056 2656 
Q 3513 2228 3513 1497 
Q 3513 744 3044 326 
Q 2575 -91 1722 -91 
Q 1428 -91 1123 -41 
Q 819 9 494 109 
L 494 744 
Q 775 591 1075 516 
Q 1375 441 1709 441 
Q 2250 441 2565 725 
Q 2881 1009 2881 1497 
Q 2881 1984 2565 2268 
Q 2250 2553 1709 2553 
Q 1456 2553 1204 2497 
Q 953 2441 691 2322 
L 691 4666 
z
" transform="scale(0.015625)"/>
       </defs>
       <use xlink:href="#DejaVuSans-35"/>
       <use xlink:href="#DejaVuSans-30" x="63.623047"/>
      </g>
     </g>
    </g>
    <g id="xtick_3">
     <g id="line2d_3">
      <g>
       <use xlink:href="#mbb83839131" x="224.834841" y="307.584" style="stroke: #000000; stroke-width: 0.8"/>
      </g>
     </g>
     <g id="text_3">
      <!-- 100 -->
      <g transform="translate(215.291091 322.182437) scale(0.1 -0.1)">
       <defs>
        <path id="DejaVuSans-31" d="M 794 531 
L 1825 531 
L 1825 4091 
L 703 3866 
L 703 4441 
L 1819 4666 
L 2450 4666 
L 2450 531 
L 3481 531 
L 3481 0 
L 794 0 
L 794 531 
z
" transform="scale(0.015625)"/>
       </defs>
       <use xlink:href="#DejaVuSans-31"/>
       <use xlink:href="#DejaVuSans-30" x="63.623047"/>
       <use xlink:href="#DejaVuSans-30" x="127.246094"/>
      </g>
     </g>
    </g>
    <g id="xtick_4">
     <g id="line2d_4">
      <g>
       <use xlink:href="#mbb83839131" x="300.335899" y="307.584" style="stroke: #000000; stroke-width: 0.8"/>
      </g>
     </g>
     <g id="text_4">
      <!-- 150 -->
      <g transform="translate(290.792149 322.182437) scale(0.1 -0.1)">
       <use xlink:href="#DejaVuSans-31"/>
       <use xlink:href="#DejaVuSans-35" x="63.623047"/>
       <use xlink:href="#DejaVuSans-30" x="127.246094"/>
      </g>
     </g>
    </g>
    <g id="xtick_5">
     <g id="line2d_5">
      <g>
       <use xlink:href="#mbb83839131" x="375.836956" y="307.584" style="stroke: #000000; stroke-width: 0.8"/>
      </g>
     </g>
     <g id="text_5">
      <!-- 200 -->
      <g transform="translate(366.293206 322.182437) scale(0.1 -0.1)">
       <defs>
        <path id="DejaVuSans-32" d="M 1228 531 
L 3431 531 
L 3431 0 
L 469 0 
L 469 531 
Q 828 903 1448 1529 
Q 2069 2156 2228 2338 
Q 2531 2678 2651 2914 
Q 2772 3150 2772 3378 
Q 2772 3750 2511 3984 
Q 2250 4219 1831 4219 
Q 1534 4219 1204 4116 
Q 875 4013 500 3803 
L 500 4441 
Q 881 4594 1212 4672 
Q 1544 4750 1819 4750 
Q 2544 4750 2975 4387 
Q 3406 4025 3406 3419 
Q 3406 3131 3298 2873 
Q 3191 2616 2906 2266 
Q 2828 2175 2409 1742 
Q 1991 1309 1228 531 
z
" transform="scale(0.015625)"/>
       </defs>
       <use xlink:href="#DejaVuSans-32"/>
       <use xlink:href="#DejaVuSans-30" x="63.623047"/>
       <use xlink:href="#DejaVuSans-30" x="127.246094"/>
      </g>
     </g>
    </g>
   </g>
   <g id="matplotlib.axis_2">
    <g id="ytick_1">
     <g id="line2d_6">
      <defs>
       <path id="mc635782f63" d="M 0 0 
L -3.5 0 
" style="stroke: #000000; stroke-width: 0.8"/>
      </defs>
      <g>
       <use xlink:href="#mc635782f63" x="57.6" y="294.072154" style="stroke: #000000; stroke-width: 0.8"/>
      </g>
     </g>
     <g id="text_6">
      <!-- 5000 -->
      <g transform="translate(25.15 297.871373) scale(0.1 -0.1)">
       <use xlink:href="#DejaVuSans-35"/>
       <use xlink:href="#DejaVuSans-30" x="63.623047"/>
       <use xlink:href="#DejaVuSans-30" x="127.246094"/>
       <use xlink:href="#DejaVuSans-30" x="190.869141"/>
      </g>
     </g>
    </g>
    <g id="ytick_2">
     <g id="line2d_7">
      <g>
       <use xlink:href="#mc635782f63" x="57.6" y="262.468455" style="stroke: #000000; stroke-width: 0.8"/>
      </g>
     </g>
     <g id="text_7">
      <!-- 5500 -->
      <g transform="translate(25.15 266.267673) scale(0.1 -0.1)">
       <use xlink:href="#DejaVuSans-35"/>
       <use xlink:href="#DejaVuSans-35" x="63.623047"/>
       <use xlink:href="#DejaVuSans-30" x="127.246094"/>
       <use xlink:href="#DejaVuSans-30" x="190.869141"/>
      </g>
     </g>
    </g>
    <g id="ytick_3">
     <g id="line2d_8">
      <g>
       <use xlink:href="#mc635782f63" x="57.6" y="230.864755" style="stroke: #000000; stroke-width: 0.8"/>
      </g>
     </g>
     <g id="text_8">
      <!-- 6000 -->
      <g transform="translate(25.15 234.663974) scale(0.1 -0.1)">
       <defs>
        <path id="DejaVuSans-36" d="M 2113 2584 
Q 1688 2584 1439 2293 
Q 1191 2003 1191 1497 
Q 1191 994 1439 701 
Q 1688 409 2113 409 
Q 2538 409 2786 701 
Q 3034 994 3034 1497 
Q 3034 2003 2786 2293 
Q 2538 2584 2113 2584 
z
M 3366 4563 
L 3366 3988 
Q 3128 4100 2886 4159 
Q 2644 4219 2406 4219 
Q 1781 4219 1451 3797 
Q 1122 3375 1075 2522 
Q 1259 2794 1537 2939 
Q 1816 3084 2150 3084 
Q 2853 3084 3261 2657 
Q 3669 2231 3669 1497 
Q 3669 778 3244 343 
Q 2819 -91 2113 -91 
Q 1303 -91 875 529 
Q 447 1150 447 2328 
Q 447 3434 972 4092 
Q 1497 4750 2381 4750 
Q 2619 4750 2861 4703 
Q 3103 4656 3366 4563 
z
" transform="scale(0.015625)"/>
       </defs>
       <use xlink:href="#DejaVuSans-36"/>
       <use xlink:href="#DejaVuSans-30" x="63.623047"/>
       <use xlink:href="#DejaVuSans-30" x="127.246094"/>
       <use xlink:href="#DejaVuSans-30" x="190.869141"/>
      </g>
     </g>
    </g>
    <g id="ytick_4">
     <g id="line2d_9">
      <g>
       <use xlink:href="#mc635782f63" x="57.6" y="199.261055" style="stroke: #000000; stroke-width: 0.8"/>
      </g>
     </g>
     <g id="text_9">
      <!-- 6500 -->
      <g transform="translate(25.15 203.060274) scale(0.1 -0.1)">
       <use xlink:href="#DejaVuSans-36"/>
       <use xlink:href="#DejaVuSans-35" x="63.623047"/>
       <use xlink:href="#DejaVuSans-30" x="127.246094"/>
       <use xlink:href="#DejaVuSans-30" x="190.869141"/>
      </g>
     </g>
    </g>
    <g id="ytick_5">
     <g id="line2d_10">
      <g>
       <use xlink:href="#mc635782f63" x="57.6" y="167.657356" style="stroke: #000000; stroke-width: 0.8"/>
      </g>
     </g>
     <g id="text_10">
      <!-- 7000 -->
      <g transform="translate(25.15 171.456574) scale(0.1 -0.1)">
       <defs>
        <path id="DejaVuSans-37" d="M 525 4666 
L 3525 4666 
L 3525 4397 
L 1831 0 
L 1172 0 
L 2766 4134 
L 525 4134 
L 525 4666 
z
" transform="scale(0.015625)"/>
       </defs>
       <use xlink:href="#DejaVuSans-37"/>
       <use xlink:href="#DejaVuSans-30" x="63.623047"/>
       <use xlink:href="#DejaVuSans-30" x="127.246094"/>
       <use xlink:href="#DejaVuSans-30" x="190.869141"/>
      </g>
     </g>
    </g>
    <g id="ytick_6">
     <g id="line2d_11">
      <g>
       <use xlink:href="#mc635782f63" x="57.6" y="136.053656" style="stroke: #000000; stroke-width: 0.8"/>
      </g>
     </g>
     <g id="text_11">
      <!-- 7500 -->
      <g transform="translate(25.15 139.852875) scale(0.1 -0.1)">
       <use xlink:href="#DejaVuSans-37"/>
       <use xlink:href="#DejaVuSans-35" x="63.623047"/>
       <use xlink:href="#DejaVuSans-30" x="127.246094"/>
       <use xlink:href="#DejaVuSans-30" x="190.869141"/>
      </g>
     </g>
    </g>
    <g id="ytick_7">
     <g id="line2d_12">
      <g>
       <use xlink:href="#mc635782f63" x="57.6" y="104.449956" style="stroke: #000000; stroke-width: 0.8"/>
      </g>
     </g>
     <g id="text_12">
      <!-- 8000 -->
      <g transform="translate(25.15 108.249175) scale(0.1 -0.1)">
       <defs>
        <path id="DejaVuSans-38" d="M 2034 2216 
Q 1584 2216 1326 1975 
Q 1069 1734 1069 1313 
Q 1069 891 1326 650 
Q 1584 409 2034 409 
Q 2484 409 2743 651 
Q 3003 894 3003 1313 
Q 3003 1734 2745 1975 
Q 2488 2216 2034 2216 
z
M 1403 2484 
Q 997 2584 770 2862 
Q 544 3141 544 3541 
Q 544 4100 942 4425 
Q 1341 4750 2034 4750 
Q 2731 4750 3128 4425 
Q 3525 4100 3525 3541 
Q 3525 3141 3298 2862 
Q 3072 2584 2669 2484 
Q 3125 2378 3379 2068 
Q 3634 1759 3634 1313 
Q 3634 634 3220 271 
Q 2806 -91 2034 -91 
Q 1263 -91 848 271 
Q 434 634 434 1313 
Q 434 1759 690 2068 
Q 947 2378 1403 2484 
z
M 1172 3481 
Q 1172 3119 1398 2916 
Q 1625 2713 2034 2713 
Q 2441 2713 2670 2916 
Q 2900 3119 2900 3481 
Q 2900 3844 2670 4047 
Q 2441 4250 2034 4250 
Q 1625 4250 1398 4047 
Q 1172 3844 1172 3481 
z
" transform="scale(0.015625)"/>
       </defs>
       <use xlink:href="#DejaVuSans-38"/>
       <use xlink:href="#DejaVuSans-30" x="63.623047"/>
       <use xlink:href="#DejaVuSans-30" x="127.246094"/>
       <use xlink:href="#DejaVuSans-30" x="190.869141"/>
      </g>
     </g>
    </g>
    <g id="ytick_8">
     <g id="line2d_13">
      <g>
       <use xlink:href="#mc635782f63" x="57.6" y="72.846257" style="stroke: #000000; stroke-width: 0.8"/>
      </g>
     </g>
     <g id="text_13">
      <!-- 8500 -->
      <g transform="translate(25.15 76.645476) scale(0.1 -0.1)">
       <use xlink:href="#DejaVuSans-38"/>
       <use xlink:href="#DejaVuSans-35" x="63.623047"/>
       <use xlink:href="#DejaVuSans-30" x="127.246094"/>
       <use xlink:href="#DejaVuSans-30" x="190.869141"/>
      </g>
     </g>
    </g>
   </g>
   <g id="line2d_14">
    <path d="M 73.832727 295.488 
L 75.342748 294.251242 
L 76.85277 291.528056 
L 78.362791 290.869646 
L 81.382833 290.153296 
L 82.892854 290.27971 
L 84.402875 289.559146 
L 85.912896 289.432731 
L 87.422918 287.005567 
L 88.932939 283.003836 
L 90.44296 276.527586 
L 91.952981 275.779933 
L 94.973023 278.870775 
L 96.483044 276.521566 
L 97.993066 277.033245 
L 99.503087 276.105451 
L 101.013108 273.827727 
L 102.523129 272.626787 
L 104.03315 269.840018 
L 105.543171 269.572966 
L 108.563214 267.061526 
L 110.073235 267.314355 
L 111.583256 267.920093 
L 113.093277 266.977249 
L 114.603298 266.172408 
L 116.113319 266.374672 
L 117.62334 265.540334 
L 119.133362 266.145018 
L 120.643383 265.881654 
L 122.153404 265.923792 
L 123.663425 266.598005 
L 128.193488 266.647166 
L 129.70351 262.555365 
L 131.213531 260.63544 
L 132.723552 262.489524 
L 134.233573 261.046288 
L 135.743594 261.179024 
L 137.253615 260.458459 
L 138.763636 260.714449 
L 140.273658 259.940159 
L 143.2937 259.128997 
L 144.803721 256.942322 
L 146.313742 256.010765 
L 147.823763 254.666856 
L 149.333784 251.957967 
L 150.843805 250.680275 
L 152.353827 248.260836 
L 153.863848 246.440864 
L 155.373869 246.576309 
L 156.88389 245.051305 
L 158.393911 245.17491 
L 159.903932 246.28736 
L 161.413953 242.357967 
L 162.923975 240.409072 
L 164.433996 238.971104 
L 167.454038 239.787533 
L 168.964059 239.608445 
L 170.47408 239.912443 
L 171.984101 240.946335 
L 173.494123 239.467984 
L 175.004144 239.903413 
L 176.514165 238.105514 
L 178.024186 238.362733 
L 179.534207 238.054597 
L 181.044228 237.951007 
L 182.554249 237.406721 
L 184.064271 235.531568 
L 185.574292 234.875552 
L 187.084313 232.887392 
L 188.594334 231.370414 
L 190.104355 230.835582 
L 191.614376 231.346711 
L 193.124397 229.790229 
L 194.634419 231.325266 
L 196.14444 231.551007 
L 197.654461 230.127335 
L 199.164482 230.343294 
L 200.674503 227.713415 
L 202.184524 225.327787 
L 203.694545 224.452077 
L 205.204567 221.976214 
L 206.714588 221.817067 
L 208.224609 222.711 
L 209.73463 222.047323 
L 211.244651 222.221143 
L 212.754672 220.356525 
L 214.264693 217.49639 
L 215.774715 217.306768 
L 217.284736 215.44215 
L 218.794757 215.937274 
L 220.304778 216.748436 
L 221.814799 216.121629 
L 223.32482 216.516675 
L 224.834841 213.672342 
L 226.344863 213.861965 
L 227.854884 212.050019 
L 229.364905 212.661024 
L 230.874926 213.48272 
L 232.384947 212.509326 
L 233.894968 212.193289 
L 235.404989 212.450333 
L 236.915011 210.448765 
L 238.425032 203.902284 
L 239.935053 205.518588 
L 241.445074 205.160413 
L 242.955095 204.054283 
L 245.975137 205.550192 
L 247.485159 200.588411 
L 248.99518 200.714826 
L 250.505201 198.30241 
L 252.015222 200.183883 
L 253.525243 196.985589 
L 255.035264 196.400921 
L 256.545285 190.998945 
L 258.055307 192.093336 
L 259.565328 191.36013 
L 261.075349 193.913709 
L 262.58537 193.762012 
L 264.095391 194.444652 
L 265.605412 192.64008 
L 267.115433 189.752857 
L 268.625455 190.559503 
L 270.135476 190.169724 
L 271.645497 189.90636 
L 273.155518 186.082313 
L 274.665539 186.278256 
L 276.17556 184.064191 
L 277.685581 183.791044 
L 279.195603 179.502422 
L 280.705624 180.701783 
L 282.215645 180.222987 
L 283.725666 178.429702 
L 285.235687 176.379977 
L 286.745708 169.642068 
L 288.255729 165.771668 
L 289.765751 163.08272 
L 291.275772 160.114606 
L 292.785793 158.776716 
L 294.295814 155.584742 
L 295.805835 147.867119 
L 297.315856 146.62653 
L 298.825877 147.146555 
L 300.335899 148.10821 
L 301.84592 148.884758 
L 303.355941 147.810232 
L 304.865962 147.635196 
L 306.375983 144.586655 
L 307.886004 142.105765 
L 309.396025 141.052787 
L 310.906047 140.246414 
L 312.416068 136.975431 
L 313.926089 132.757147 
L 315.43611 131.806119 
L 316.946131 127.196719 
L 318.456152 126.066887 
L 319.966173 125.589958 
L 321.476195 123.692659 
L 322.986216 122.997817 
L 324.496237 123.359503 
L 326.006258 124.05328 
L 327.516279 122.220265 
L 329.0263 121.545451 
L 330.536321 121.781425 
L 332.046342 119.261557 
L 333.556364 110.838766 
L 335.066385 109.862808 
L 338.086427 112.161259 
L 339.596448 112.034844 
L 341.106469 113.093568 
L 342.61649 113.166257 
L 344.126512 107.742487 
L 345.636533 107.835064 
L 347.146554 106.488395 
L 350.166596 100.618616 
L 351.676617 101.426536 
L 353.186638 98.148179 
L 354.69666 97.90167 
L 356.206681 98.417161 
L 357.716702 97.433935 
L 359.226723 97.588442 
L 360.736744 96.890351 
L 362.246765 95.071559 
L 363.756786 91.612534 
L 365.266808 85.479836 
L 366.776829 80.884131 
L 368.28685 66.927746 
L 369.796871 63.847822 
L 371.306892 66.424385 
L 372.816913 69.61365 
L 374.326934 68.286294 
L 375.836956 70.39381 
L 377.346977 70.684564 
L 378.856998 69.995603 
L 380.367019 67.364451 
L 381.87704 67.758061 
L 383.387061 68.85787 
L 384.897082 68.00299 
L 386.407104 66.567655 
L 387.917125 65.851305 
L 389.427146 66.588724 
L 390.937167 62.985902 
L 392.447188 62.037792 
L 393.957209 60.767323 
L 395.46723 60.963266 
L 396.977252 60.529844 
L 398.487273 55.438939 
L 398.487273 55.438939 
" clip-path="url(#p83e26fa7fd)" style="fill: none; stroke: #1f77b4; stroke-opacity: 0.7; stroke-width: 0.5; stroke-linecap: square"/>
   </g>
   <g id="line2d_15">
    <path d="M 73.832727 294.577813 
L 75.342748 293.408477 
L 76.85277 290.922319 
L 79.872812 289.593459 
L 82.892854 289.070869 
L 84.402875 288.552041 
L 85.912896 289.259362 
L 87.422918 285.521096 
L 88.932939 282.241836 
L 90.44296 274.47786 
L 91.952981 276.103194 
L 93.463002 276.737525 
L 94.973023 278.161949 
L 96.483044 277.562382 
L 99.503087 274.414653 
L 101.013108 273.234782 
L 102.523129 271.57935 
L 104.03315 269.326457 
L 105.543171 268.607473 
L 107.053192 266.8403 
L 108.563214 267.640927 
L 110.073235 267.872687 
L 111.583256 266.46858 
L 113.093277 266.22478 
L 114.603298 265.556588 
L 122.153404 264.786059 
L 123.663425 265.586686 
L 125.173446 265.335362 
L 126.683467 265.913258 
L 128.193488 266.128163 
L 129.70351 262.594869 
L 131.213531 261.359452 
L 132.723552 261.635266 
L 134.233573 260.777657 
L 135.743594 260.319403 
L 137.253615 259.539845 
L 138.763636 260.351007 
L 140.273658 259.726226 
L 141.783679 258.790933 
L 143.2937 258.342735 
L 144.803721 256.985213 
L 146.313742 255.373424 
L 147.823763 254.251493 
L 149.333784 251.596782 
L 150.843805 249.605749 
L 152.353827 247.130126 
L 153.863848 246.002927 
L 155.373869 245.895475 
L 156.88389 244.728245 
L 158.393911 244.907332 
L 159.903932 244.794086 
L 161.413953 241.968188 
L 162.923975 239.953979 
L 164.433996 238.149408 
L 165.944017 238.158889 
L 167.454038 239.117835 
L 171.984101 239.921472 
L 173.494123 238.871026 
L 175.004144 239.798067 
L 176.514165 237.804927 
L 178.024186 238.102002 
L 179.534207 237.430424 
L 181.044228 237.880776 
L 182.554249 236.416472 
L 184.064271 235.2366 
L 185.574292 234.688803 
L 187.084313 232.239516 
L 188.594334 230.675133 
L 190.104355 230.460228 
L 191.614376 229.956149 
L 193.124397 230.970101 
L 194.634419 230.657074 
L 196.14444 231.2519 
L 197.654461 229.703319 
L 199.164482 229.937713 
L 200.674503 227.240864 
L 202.184524 225.365711 
L 203.694545 223.893882 
L 205.204567 222.066285 
L 206.714588 221.51006 
L 208.224609 221.984115 
L 209.73463 221.826097 
L 211.244651 222.160193 
L 212.754672 220.028198 
L 214.264693 217.117146 
L 215.774715 216.959127 
L 217.284736 214.989163 
L 218.794757 214.585977 
L 220.304778 215.726583 
L 221.814799 215.031301 
L 223.32482 216.442933 
L 224.834841 213.630204 
L 226.344863 213.256979 
L 227.854884 212.344987 
L 229.364905 212.137306 
L 230.874926 212.968031 
L 232.384947 212.819042 
L 233.894968 212.439798 
L 235.404989 212.480431 
L 236.915011 209.932571 
L 238.425032 204.077459 
L 239.935053 204.812772 
L 241.445074 205.085166 
L 242.955095 205.003899 
L 244.465116 204.25444 
L 245.975137 205.850427 
L 247.485159 200.293443 
L 248.99518 200.106454 
L 250.505201 197.586059 
L 252.015222 198.858108 
L 255.035264 195.360256 
L 256.545285 189.827351 
L 258.055307 190.829188 
L 259.565328 192.518933 
L 261.075349 191.891073 
L 262.58537 192.877108 
L 264.095391 194.752261 
L 265.605412 192.919246 
L 267.115433 189.337494 
L 268.625455 189.830511 
L 270.135476 189.057575 
L 271.645497 189.518086 
L 273.155518 185.969442 
L 274.665539 185.328339 
L 276.17556 182.624868 
L 277.685581 182.502065 
L 279.195603 180.530596 
L 280.705624 179.590913 
L 282.215645 180.67808 
L 283.725666 176.401046 
L 285.235687 175.052621 
L 286.745708 167.357121 
L 288.255729 163.564677 
L 291.275772 158.252095 
L 292.785793 157.506247 
L 294.295814 153.460974 
L 295.805835 144.89005 
L 297.315856 143.878732 
L 298.825877 145.271402 
L 300.335899 146.345928 
L 301.84592 147.203441 
L 304.865962 145.888727 
L 306.375983 142.648295 
L 307.886004 140.414967 
L 309.396025 139.858741 
L 310.906047 138.223777 
L 312.416068 135.782767 
L 313.926089 130.946498 
L 315.43611 129.841272 
L 316.946131 124.939688 
L 318.456152 125.002896 
L 319.966173 123.222554 
L 321.476195 123.064536 
L 324.496237 121.526489 
L 326.006258 121.831991 
L 329.0263 121.033998 
L 330.536321 120.939187 
L 332.046342 117.751602 
L 333.556364 109.488489 
L 335.066385 107.283755 
L 336.576406 109.109245 
L 338.086427 110.286106 
L 339.596448 109.21158 
L 341.106469 112.39302 
L 342.61649 110.637259 
L 344.126512 106.95016 
L 345.636533 107.304824 
L 347.146554 104.852904 
L 348.656575 101.108994 
L 350.166596 97.786091 
L 351.676617 99.926113 
L 353.186638 95.687831 
L 354.69666 96.749188 
L 356.206681 97.149502 
L 357.716702 96.648357 
L 359.226723 95.980165 
L 360.736744 96.27724 
L 362.246765 93.30247 
L 363.756786 91.539845 
L 365.266808 82.984724 
L 366.776829 78.182767 
L 368.28685 64.207912 
L 369.796871 59.588505 
L 371.306892 63.491562 
L 372.816913 66.803629 
L 374.326934 66.953923 
L 375.836956 68.822052 
L 377.346977 68.718814 
L 378.856998 69.861463 
L 380.367019 65.653255 
L 381.87704 66.69708 
L 384.897082 68.14784 
L 386.407104 66.20045 
L 387.917125 66.525517 
L 389.427146 64.096547 
L 390.937167 62.453154 
L 393.957209 60.173173 
L 395.46723 59.997095 
L 396.977252 59.699118 
L 398.487273 53.773424 
L 398.487273 53.773424 
" clip-path="url(#p83e26fa7fd)" style="fill: none; stroke: #ff7f0e; stroke-opacity: 0.7; stroke-width: 0.5; stroke-linecap: square"/>
   </g>
   <g id="line2d_16">
    <path d="M 73.832727 295.288897 
L 75.342748 293.683429 
L 76.85277 291.110888 
L 79.872812 290.100623 
L 82.892854 290.01898 
L 84.402875 289.033998 
L 85.912896 289.093819 
L 87.422918 286.613681 
L 88.932939 282.231301 
L 90.44296 276.085699 
L 91.952981 276.574239 
L 93.463002 277.490747 
L 94.973023 279.064347 
L 96.483044 276.646664 
L 97.993066 275.726959 
L 99.503087 275.828919 
L 101.013108 273.319058 
L 102.523129 271.923228 
L 104.03315 269.579287 
L 105.543171 269.026222 
L 107.053192 267.801052 
L 108.563214 267.259575 
L 110.073235 267.531367 
L 111.583256 267.55665 
L 114.603298 265.418133 
L 117.62334 265.588191 
L 119.133362 265.631458 
L 120.643383 265.499776 
L 122.153404 265.173205 
L 123.663425 265.828323 
L 125.173446 266.619074 
L 128.193488 265.884288 
L 129.70351 262.737086 
L 131.213531 261.162168 
L 132.723552 262.571693 
L 134.233573 261.085793 
L 135.743594 260.38261 
L 137.253615 260.245661 
L 140.273658 260.240394 
L 141.783679 259.039453 
L 143.2937 258.280964 
L 144.803721 257.332101 
L 146.313742 255.689461 
L 147.823763 254.4366 
L 152.353827 247.614716 
L 153.863848 246.074035 
L 155.373869 246.334766 
L 156.88389 244.760172 
L 159.903932 245.163172 
L 161.413953 242.984774 
L 162.923975 240.070461 
L 164.433996 238.888144 
L 165.944017 239.062153 
L 168.964059 239.769097 
L 170.47408 239.808602 
L 171.984101 240.581137 
L 173.494123 239.524169 
L 175.004144 239.863908 
L 176.514165 238.565523 
L 178.024186 238.410138 
L 179.534207 237.828103 
L 181.044228 237.462027 
L 182.554249 236.774647 
L 184.064271 235.133361 
L 185.574292 235.063833 
L 187.084313 232.587157 
L 188.594334 231.24795 
L 190.104355 230.673628 
L 191.614376 230.891091 
L 193.124397 230.111007 
L 194.634419 230.815092 
L 196.14444 231.177875 
L 197.654461 229.790229 
L 199.164482 229.987752 
L 200.674503 227.71492 
L 202.184524 225.049674 
L 203.694545 224.264097 
L 205.204567 221.714355 
L 206.714588 221.833998 
L 208.224609 222.481874 
L 209.73463 222.11211 
L 211.244651 222.382322 
L 212.754672 219.819262 
L 214.264693 217.004275 
L 215.774715 217.483222 
L 217.284736 215.094509 
L 218.794757 214.840099 
L 220.304778 216.442933 
L 221.814799 215.239886 
L 223.32482 215.852998 
L 224.834841 213.642996 
L 226.344863 213.539607 
L 227.854884 212.408194 
L 229.364905 212.597817 
L 230.874926 213.202501 
L 233.894968 212.215412 
L 235.404989 212.008633 
L 236.915011 210.188034 
L 238.425032 203.501218 
L 239.935053 205.029784 
L 241.445074 205.273659 
L 244.465116 203.843592 
L 245.975137 205.215192 
L 247.485159 199.837823 
L 248.99518 199.766715 
L 250.505201 198.325586 
L 252.015222 199.808853 
L 253.525243 197.612396 
L 255.035264 196.142824 
L 256.545285 191.792048 
L 258.055307 192.956117 
L 259.565328 193.455456 
L 261.075349 193.372233 
L 264.095391 194.23697 
L 265.605412 193.23265 
L 267.115433 189.227934 
L 268.625455 190.350919 
L 270.135476 189.714104 
L 271.645497 189.876863 
L 273.155518 185.993822 
L 274.665539 185.787345 
L 276.17556 183.704134 
L 277.685581 182.81133 
L 279.195603 180.725485 
L 280.705624 179.776622 
L 282.215645 180.588536 
L 285.235687 175.389728 
L 286.745708 169.50282 
L 288.255729 164.741914 
L 291.275772 159.182882 
L 292.785793 158.368209 
L 294.295814 154.56227 
L 295.805835 146.757546 
L 297.315856 146.223134 
L 298.825877 147.306886 
L 300.335899 147.427696 
L 301.84592 148.142071 
L 303.355941 147.080474 
L 304.865962 146.528702 
L 306.375983 144.466561 
L 307.886004 141.228235 
L 310.906047 140.075227 
L 312.416068 136.413938 
L 313.926089 131.720438 
L 315.43611 131.070806 
L 316.946131 126.503966 
L 318.456152 125.946492 
L 319.966173 125.033329 
L 321.476195 123.181294 
L 322.986216 123.194321 
L 324.496237 123.080337 
L 326.006258 123.391107 
L 329.0263 121.005698 
L 330.536321 120.839108 
L 332.046342 118.458296 
L 333.556364 109.754111 
L 335.066385 108.157371 
L 336.576406 109.71724 
L 338.086427 111.918086 
L 339.596448 111.274851 
L 341.106469 111.715296 
L 342.61649 112.742097 
L 344.126512 107.054101 
L 345.636533 107.123103 
L 347.146554 105.424404 
L 348.656575 102.851336 
L 350.166596 99.6936 
L 351.676617 100.246664 
L 353.186638 97.607755 
L 354.69666 97.886921 
L 356.206681 96.848514 
L 357.716702 97.237089 
L 359.226723 96.296202 
L 360.736744 96.082877 
L 362.246765 94.73972 
L 363.756786 91.597785 
L 365.266808 83.830298 
L 366.776829 79.643159 
L 368.28685 67.329655 
L 369.796871 62.103311 
L 371.306892 65.403953 
L 372.816913 69.313825 
L 374.326934 69.161938 
L 375.836956 67.362536 
L 377.346977 69.771744 
L 378.856998 70.551828 
L 380.367019 66.667734 
L 381.87704 67.226066 
L 383.387061 66.697757 
L 384.897082 66.851486 
L 386.407104 66.560281 
L 389.427146 65.063846 
L 390.937167 63.230831 
L 393.957209 61.173957 
L 395.46723 61.253117 
L 396.977252 59.931932 
L 398.487273 55.132383 
L 398.487273 55.132383 
" clip-path="url(#p83e26fa7fd)" style="fill: none; stroke: #2ca02c; stroke-opacity: 0.7; stroke-width: 0.5; stroke-linecap: square"/>
   </g>
   <g id="line2d_17">
    <path d="M 73.832727 294.577813 
L 75.342748 292.049517 
L 78.362791 290.785369 
L 79.872812 290.406125 
L 81.382833 290.342918 
L 82.892854 289.584429 
L 84.402875 289.647636 
L 85.912896 287.37217 
L 87.422918 283.516519 
L 88.932939 277.511816 
L 90.44296 277.63823 
L 91.952981 278.14389 
L 93.463002 279.534452 
L 94.973023 277.954267 
L 96.483044 277.385401 
L 97.993066 276.500497 
L 99.503087 274.47786 
L 101.013108 272.834468 
L 102.523129 270.622209 
L 104.03315 269.990135 
L 105.543171 268.473158 
L 107.053192 268.473158 
L 108.563214 268.283535 
L 110.073235 268.220328 
L 113.093277 266.450521 
L 114.603298 266.450521 
L 116.113319 266.324106 
L 117.62334 266.324106 
L 119.133362 266.071276 
L 120.643383 266.008069 
L 122.153404 266.576936 
L 123.663425 266.766558 
L 125.173446 266.70335 
L 126.683467 266.766558 
L 128.193488 263.479773 
L 129.70351 262.08921 
L 131.213531 263.037321 
L 132.723552 261.773173 
L 134.233573 261.267514 
L 135.743594 260.951477 
L 137.253615 261.014684 
L 138.763636 260.445818 
L 140.273658 260.129781 
L 141.783679 259.308085 
L 143.2937 257.917522 
L 144.803721 256.337337 
L 146.313742 255.073189 
L 147.823763 252.86093 
L 149.333784 250.901501 
L 150.843805 248.626034 
L 152.353827 247.298679 
L 153.863848 247.045849 
L 155.373869 245.718494 
L 156.88389 245.465664 
L 158.393911 246.097738 
L 161.413953 241.167561 
L 162.923975 239.713791 
L 164.433996 239.524169 
L 165.944017 240.093035 
L 168.964059 240.47228 
L 170.47408 241.104354 
L 171.984101 239.840206 
L 173.494123 240.21945 
L 175.004144 238.828887 
L 176.514165 238.76568 
L 178.024186 238.260021 
L 179.534207 238.386435 
L 181.044228 237.501532 
L 182.554249 235.85814 
L 184.064271 235.35248 
L 185.574292 233.203429 
L 187.084313 231.749659 
L 188.594334 231.180792 
L 190.104355 231.433622 
L 191.614376 230.864755 
L 193.124397 231.370414 
L 194.634419 231.749659 
L 196.14444 230.359096 
L 197.654461 230.485511 
L 199.164482 228.399666 
L 200.674503 226.060993 
L 202.184524 225.112882 
L 203.694545 222.774208 
L 205.204567 222.394963 
L 206.714588 222.837415 
L 208.224609 222.837415 
L 209.73463 222.647793 
L 211.244651 220.751571 
L 212.754672 218.09686 
L 214.264693 218.160068 
L 215.774715 216.137431 
L 217.284736 215.821394 
L 218.794757 216.64309 
L 220.304778 216.137431 
L 221.814799 216.706298 
L 223.32482 214.494039 
L 224.834841 214.051587 
L 226.344863 212.977061 
L 227.854884 213.103476 
L 229.364905 213.672342 
L 232.384947 212.787439 
L 233.894968 212.661024 
L 235.404989 210.764802 
L 236.915011 205.328966 
L 238.425032 206.277077 
L 239.935053 206.150662 
L 241.445074 205.771417 
L 242.955095 204.949721 
L 244.465116 206.213869 
L 245.975137 201.662937 
L 247.485159 201.662937 
L 248.99518 199.134641 
L 250.505201 200.525203 
L 252.015222 198.502567 
L 253.525243 197.238419 
L 255.035264 192.624278 
L 256.545285 193.445975 
L 258.055307 193.635597 
L 259.565328 194.267671 
L 261.075349 194.330878 
L 262.58537 195.278989 
L 264.095391 194.141256 
L 265.605412 190.412019 
L 267.115433 191.233716 
L 270.135476 190.285605 
L 271.645497 186.99882 
L 273.155518 186.872405 
L 274.665539 184.533731 
L 276.17556 184.028072 
L 277.685581 182.13185 
L 279.195603 180.67808 
L 280.705624 181.436569 
L 282.215645 178.718651 
L 283.725666 176.443184 
L 285.235687 170.375274 
L 286.745708 166.58283 
L 289.765751 160.767749 
L 291.275772 159.693223 
L 292.785793 155.774365 
L 294.295814 148.821551 
L 295.805835 147.810232 
L 297.315856 147.936647 
L 298.825877 148.189477 
L 300.335899 148.884758 
L 301.84592 148.821551 
L 303.355941 148.126269 
L 306.375983 142.500811 
L 307.886004 141.426285 
L 309.396025 140.983833 
L 312.416068 133.52536 
L 313.926089 132.07159 
L 315.43611 127.836694 
L 316.946131 126.762168 
L 318.456152 125.940472 
L 319.966173 124.107458 
L 322.986216 123.728213 
L 324.496237 123.981043 
L 326.006258 123.412176 
L 327.516279 122.084821 
L 329.0263 121.958406 
L 330.536321 119.43011 
L 332.046342 111.845222 
L 333.556364 110.075415 
L 335.066385 111.529185 
L 336.576406 112.034844 
L 338.086427 112.034844 
L 339.596448 113.551822 
L 341.106469 112.982955 
L 342.61649 108.115986 
L 344.126512 108.305608 
L 345.636533 107.04146 
L 347.146554 104.007505 
L 348.656575 101.289586 
L 350.166596 101.605623 
L 351.676617 98.634876 
L 353.186638 98.824498 
L 354.69666 98.76129 
L 356.206681 98.508461 
L 357.716702 97.56035 
L 359.226723 97.370728 
L 360.736744 95.537713 
L 362.246765 92.756588 
L 363.756786 85.930188 
L 365.266808 81.568878 
L 366.776829 69.243435 
L 368.28685 65.071747 
L 369.796871 66.399102 
L 371.306892 69.622679 
L 372.816913 69.749094 
L 374.326934 70.760413 
L 375.836956 70.697205 
L 377.346977 71.07645 
L 378.856998 68.168909 
L 380.367019 67.91608 
L 381.87704 68.674568 
L 383.387061 68.800983 
L 384.897082 67.41042 
L 386.407104 66.778346 
L 387.917125 67.031176 
L 389.427146 63.934013 
L 390.937167 62.733073 
L 392.447188 61.974584 
L 393.957209 62.037792 
L 395.46723 61.658547 
L 396.977252 56.349126 
L 398.487273 53.568 
L 398.487273 53.568 
" clip-path="url(#p83e26fa7fd)" style="fill: none; stroke: #d62728; stroke-opacity: 0.7; stroke-width: 0.5; stroke-linecap: square"/>
   </g>
   <g id="patch_3">
    <path d="M 57.6 307.584 
L 57.6 41.472 
" style="fill: none; stroke: #000000; stroke-width: 0.8; stroke-linejoin: miter; stroke-linecap: square"/>
   </g>
   <g id="patch_4">
    <path d="M 414.72 307.584 
L 414.72 41.472 
" style="fill: none; stroke: #000000; stroke-width: 0.8; stroke-linejoin: miter; stroke-linecap: square"/>
   </g>
   <g id="patch_5">
    <path d="M 57.6 307.584 
L 414.72 307.584 
" style="fill: none; stroke: #000000; stroke-width: 0.8; stroke-linejoin: miter; stroke-linecap: square"/>
   </g>
   <g id="patch_6">
    <path d="M 57.6 41.472 
L 414.72 41.472 
" style="fill: none; stroke: #000000; stroke-width: 0.8; stroke-linejoin: miter; stroke-linecap: square"/>
   </g>
   <g id="text_14">
    <!-- naive_pagerank_cci -->
    <g transform="translate(177.098437 35.472) scale(0.12 -0.12)">
     <defs>
      <path id="DejaVuSans-6e" d="M 3513 2113 
L 3513 0 
L 2938 0 
L 2938 2094 
Q 2938 2591 2744 2837 
Q 2550 3084 2163 3084 
Q 1697 3084 1428 2787 
Q 1159 2491 1159 1978 
L 1159 0 
L 581 0 
L 581 3500 
L 1159 3500 
L 1159 2956 
Q 1366 3272 1645 3428 
Q 1925 3584 2291 3584 
Q 2894 3584 3203 3211 
Q 3513 2838 3513 2113 
z
" transform="scale(0.015625)"/>
      <path id="DejaVuSans-61" d="M 2194 1759 
Q 1497 1759 1228 1600 
Q 959 1441 959 1056 
Q 959 750 1161 570 
Q 1363 391 1709 391 
Q 2188 391 2477 730 
Q 2766 1069 2766 1631 
L 2766 1759 
L 2194 1759 
z
M 3341 1997 
L 3341 0 
L 2766 0 
L 2766 531 
Q 2569 213 2275 61 
Q 1981 -91 1556 -91 
Q 1019 -91 701 211 
Q 384 513 384 1019 
Q 384 1609 779 1909 
Q 1175 2209 1959 2209 
L 2766 2209 
L 2766 2266 
Q 2766 2663 2505 2880 
Q 2244 3097 1772 3097 
Q 1472 3097 1187 3025 
Q 903 2953 641 2809 
L 641 3341 
Q 956 3463 1253 3523 
Q 1550 3584 1831 3584 
Q 2591 3584 2966 3190 
Q 3341 2797 3341 1997 
z
" transform="scale(0.015625)"/>
      <path id="DejaVuSans-69" d="M 603 3500 
L 1178 3500 
L 1178 0 
L 603 0 
L 603 3500 
z
M 603 4863 
L 1178 4863 
L 1178 4134 
L 603 4134 
L 603 4863 
z
" transform="scale(0.015625)"/>
      <path id="DejaVuSans-76" d="M 191 3500 
L 800 3500 
L 1894 563 
L 2988 3500 
L 3597 3500 
L 2284 0 
L 1503 0 
L 191 3500 
z
" transform="scale(0.015625)"/>
      <path id="DejaVuSans-65" d="M 3597 1894 
L 3597 1613 
L 953 1613 
Q 991 1019 1311 708 
Q 1631 397 2203 397 
Q 2534 397 2845 478 
Q 3156 559 3463 722 
L 3463 178 
Q 3153 47 2828 -22 
Q 2503 -91 2169 -91 
Q 1331 -91 842 396 
Q 353 884 353 1716 
Q 353 2575 817 3079 
Q 1281 3584 2069 3584 
Q 2775 3584 3186 3129 
Q 3597 2675 3597 1894 
z
M 3022 2063 
Q 3016 2534 2758 2815 
Q 2500 3097 2075 3097 
Q 1594 3097 1305 2825 
Q 1016 2553 972 2059 
L 3022 2063 
z
" transform="scale(0.015625)"/>
      <path id="DejaVuSans-5f" d="M 3263 -1063 
L 3263 -1509 
L -63 -1509 
L -63 -1063 
L 3263 -1063 
z
" transform="scale(0.015625)"/>
      <path id="DejaVuSans-70" d="M 1159 525 
L 1159 -1331 
L 581 -1331 
L 581 3500 
L 1159 3500 
L 1159 2969 
Q 1341 3281 1617 3432 
Q 1894 3584 2278 3584 
Q 2916 3584 3314 3078 
Q 3713 2572 3713 1747 
Q 3713 922 3314 415 
Q 2916 -91 2278 -91 
Q 1894 -91 1617 61 
Q 1341 213 1159 525 
z
M 3116 1747 
Q 3116 2381 2855 2742 
Q 2594 3103 2138 3103 
Q 1681 3103 1420 2742 
Q 1159 2381 1159 1747 
Q 1159 1113 1420 752 
Q 1681 391 2138 391 
Q 2594 391 2855 752 
Q 3116 1113 3116 1747 
z
" transform="scale(0.015625)"/>
      <path id="DejaVuSans-67" d="M 2906 1791 
Q 2906 2416 2648 2759 
Q 2391 3103 1925 3103 
Q 1463 3103 1205 2759 
Q 947 2416 947 1791 
Q 947 1169 1205 825 
Q 1463 481 1925 481 
Q 2391 481 2648 825 
Q 2906 1169 2906 1791 
z
M 3481 434 
Q 3481 -459 3084 -895 
Q 2688 -1331 1869 -1331 
Q 1566 -1331 1297 -1286 
Q 1028 -1241 775 -1147 
L 775 -588 
Q 1028 -725 1275 -790 
Q 1522 -856 1778 -856 
Q 2344 -856 2625 -561 
Q 2906 -266 2906 331 
L 2906 616 
Q 2728 306 2450 153 
Q 2172 0 1784 0 
Q 1141 0 747 490 
Q 353 981 353 1791 
Q 353 2603 747 3093 
Q 1141 3584 1784 3584 
Q 2172 3584 2450 3431 
Q 2728 3278 2906 2969 
L 2906 3500 
L 3481 3500 
L 3481 434 
z
" transform="scale(0.015625)"/>
      <path id="DejaVuSans-72" d="M 2631 2963 
Q 2534 3019 2420 3045 
Q 2306 3072 2169 3072 
Q 1681 3072 1420 2755 
Q 1159 2438 1159 1844 
L 1159 0 
L 581 0 
L 581 3500 
L 1159 3500 
L 1159 2956 
Q 1341 3275 1631 3429 
Q 1922 3584 2338 3584 
Q 2397 3584 2469 3576 
Q 2541 3569 2628 3553 
L 2631 2963 
z
" transform="scale(0.015625)"/>
      <path id="DejaVuSans-6b" d="M 581 4863 
L 1159 4863 
L 1159 1991 
L 2875 3500 
L 3609 3500 
L 1753 1863 
L 3688 0 
L 2938 0 
L 1159 1709 
L 1159 0 
L 581 0 
L 581 4863 
z
" transform="scale(0.015625)"/>
      <path id="DejaVuSans-63" d="M 3122 3366 
L 3122 2828 
Q 2878 2963 2633 3030 
Q 2388 3097 2138 3097 
Q 1578 3097 1268 2742 
Q 959 2388 959 1747 
Q 959 1106 1268 751 
Q 1578 397 2138 397 
Q 2388 397 2633 464 
Q 2878 531 3122 666 
L 3122 134 
Q 2881 22 2623 -34 
Q 2366 -91 2075 -91 
Q 1284 -91 818 406 
Q 353 903 353 1747 
Q 353 2603 823 3093 
Q 1294 3584 2113 3584 
Q 2378 3584 2631 3529 
Q 2884 3475 3122 3366 
z
" transform="scale(0.015625)"/>
     </defs>
     <use xlink:href="#DejaVuSans-6e"/>
     <use xlink:href="#DejaVuSans-61" x="63.378906"/>
     <use xlink:href="#DejaVuSans-69" x="124.658203"/>
     <use xlink:href="#DejaVuSans-76" x="152.441406"/>
     <use xlink:href="#DejaVuSans-65" x="211.621094"/>
     <use xlink:href="#DejaVuSans-5f" x="273.144531"/>
     <use xlink:href="#DejaVuSans-70" x="323.144531"/>
     <use xlink:href="#DejaVuSans-61" x="386.621094"/>
     <use xlink:href="#DejaVuSans-67" x="447.900391"/>
     <use xlink:href="#DejaVuSans-65" x="511.376953"/>
     <use xlink:href="#DejaVuSans-72" x="572.900391"/>
     <use xlink:href="#DejaVuSans-61" x="614.013672"/>
     <use xlink:href="#DejaVuSans-6e" x="675.292969"/>
     <use xlink:href="#DejaVuSans-6b" x="738.671875"/>
     <use xlink:href="#DejaVuSans-5f" x="796.582031"/>
     <use xlink:href="#DejaVuSans-63" x="846.582031"/>
     <use xlink:href="#DejaVuSans-63" x="901.5625"/>
     <use xlink:href="#DejaVuSans-69" x="956.542969"/>
    </g>
   </g>
   <g id="legend_1">
    <g id="patch_7">
     <path d="M 64.6 108.1845 
L 200.035938 108.1845 
Q 202.035938 108.1845 202.035938 106.1845 
L 202.035938 48.472 
Q 202.035938 46.472 200.035938 46.472 
L 64.6 46.472 
Q 62.6 46.472 62.6 48.472 
L 62.6 106.1845 
Q 62.6 108.1845 64.6 108.1845 
z
" style="fill: #ffffff; opacity: 0.8; stroke: #cccccc; stroke-linejoin: miter"/>
    </g>
    <g id="line2d_18">
     <path d="M 66.6 54.570438 
L 76.6 54.570438 
L 86.6 54.570438 
" style="fill: none; stroke: #1f77b4; stroke-opacity: 0.7; stroke-width: 0.5; stroke-linecap: square"/>
    </g>
    <g id="text_15">
     <!-- Positive predictions -->
     <g transform="translate(94.6 58.070438) scale(0.1 -0.1)">
      <defs>
       <path id="DejaVuSans-50" d="M 1259 4147 
L 1259 2394 
L 2053 2394 
Q 2494 2394 2734 2622 
Q 2975 2850 2975 3272 
Q 2975 3691 2734 3919 
Q 2494 4147 2053 4147 
L 1259 4147 
z
M 628 4666 
L 2053 4666 
Q 2838 4666 3239 4311 
Q 3641 3956 3641 3272 
Q 3641 2581 3239 2228 
Q 2838 1875 2053 1875 
L 1259 1875 
L 1259 0 
L 628 0 
L 628 4666 
z
" transform="scale(0.015625)"/>
       <path id="DejaVuSans-6f" d="M 1959 3097 
Q 1497 3097 1228 2736 
Q 959 2375 959 1747 
Q 959 1119 1226 758 
Q 1494 397 1959 397 
Q 2419 397 2687 759 
Q 2956 1122 2956 1747 
Q 2956 2369 2687 2733 
Q 2419 3097 1959 3097 
z
M 1959 3584 
Q 2709 3584 3137 3096 
Q 3566 2609 3566 1747 
Q 3566 888 3137 398 
Q 2709 -91 1959 -91 
Q 1206 -91 779 398 
Q 353 888 353 1747 
Q 353 2609 779 3096 
Q 1206 3584 1959 3584 
z
" transform="scale(0.015625)"/>
       <path id="DejaVuSans-73" d="M 2834 3397 
L 2834 2853 
Q 2591 2978 2328 3040 
Q 2066 3103 1784 3103 
Q 1356 3103 1142 2972 
Q 928 2841 928 2578 
Q 928 2378 1081 2264 
Q 1234 2150 1697 2047 
L 1894 2003 
Q 2506 1872 2764 1633 
Q 3022 1394 3022 966 
Q 3022 478 2636 193 
Q 2250 -91 1575 -91 
Q 1294 -91 989 -36 
Q 684 19 347 128 
L 347 722 
Q 666 556 975 473 
Q 1284 391 1588 391 
Q 1994 391 2212 530 
Q 2431 669 2431 922 
Q 2431 1156 2273 1281 
Q 2116 1406 1581 1522 
L 1381 1569 
Q 847 1681 609 1914 
Q 372 2147 372 2553 
Q 372 3047 722 3315 
Q 1072 3584 1716 3584 
Q 2034 3584 2315 3537 
Q 2597 3491 2834 3397 
z
" transform="scale(0.015625)"/>
       <path id="DejaVuSans-74" d="M 1172 4494 
L 1172 3500 
L 2356 3500 
L 2356 3053 
L 1172 3053 
L 1172 1153 
Q 1172 725 1289 603 
Q 1406 481 1766 481 
L 2356 481 
L 2356 0 
L 1766 0 
Q 1100 0 847 248 
Q 594 497 594 1153 
L 594 3053 
L 172 3053 
L 172 3500 
L 594 3500 
L 594 4494 
L 1172 4494 
z
" transform="scale(0.015625)"/>
       <path id="DejaVuSans-20" transform="scale(0.015625)"/>
       <path id="DejaVuSans-64" d="M 2906 2969 
L 2906 4863 
L 3481 4863 
L 3481 0 
L 2906 0 
L 2906 525 
Q 2725 213 2448 61 
Q 2172 -91 1784 -91 
Q 1150 -91 751 415 
Q 353 922 353 1747 
Q 353 2572 751 3078 
Q 1150 3584 1784 3584 
Q 2172 3584 2448 3432 
Q 2725 3281 2906 2969 
z
M 947 1747 
Q 947 1113 1208 752 
Q 1469 391 1925 391 
Q 2381 391 2643 752 
Q 2906 1113 2906 1747 
Q 2906 2381 2643 2742 
Q 2381 3103 1925 3103 
Q 1469 3103 1208 2742 
Q 947 2381 947 1747 
z
" transform="scale(0.015625)"/>
      </defs>
      <use xlink:href="#DejaVuSans-50"/>
      <use xlink:href="#DejaVuSans-6f" x="56.677734"/>
      <use xlink:href="#DejaVuSans-73" x="117.859375"/>
      <use xlink:href="#DejaVuSans-69" x="169.958984"/>
      <use xlink:href="#DejaVuSans-74" x="197.742188"/>
      <use xlink:href="#DejaVuSans-69" x="236.951172"/>
      <use xlink:href="#DejaVuSans-76" x="264.734375"/>
      <use xlink:href="#DejaVuSans-65" x="323.914062"/>
      <use xlink:href="#DejaVuSans-20" x="385.4375"/>
      <use xlink:href="#DejaVuSans-70" x="417.224609"/>
      <use xlink:href="#DejaVuSans-72" x="480.701172"/>
      <use xlink:href="#DejaVuSans-65" x="519.564453"/>
      <use xlink:href="#DejaVuSans-64" x="581.087891"/>
      <use xlink:href="#DejaVuSans-69" x="644.564453"/>
      <use xlink:href="#DejaVuSans-63" x="672.347656"/>
      <use xlink:href="#DejaVuSans-74" x="727.328125"/>
      <use xlink:href="#DejaVuSans-69" x="766.537109"/>
      <use xlink:href="#DejaVuSans-6f" x="794.320312"/>
      <use xlink:href="#DejaVuSans-6e" x="855.501953"/>
      <use xlink:href="#DejaVuSans-73" x="918.880859"/>
     </g>
    </g>
    <g id="line2d_19">
     <path d="M 66.6 69.248563 
L 76.6 69.248563 
L 86.6 69.248563 
" style="fill: none; stroke: #ff7f0e; stroke-opacity: 0.7; stroke-width: 0.5; stroke-linecap: square"/>
    </g>
    <g id="text_16">
     <!-- Negative predictions -->
     <g transform="translate(94.6 72.748563) scale(0.1 -0.1)">
      <defs>
       <path id="DejaVuSans-4e" d="M 628 4666 
L 1478 4666 
L 3547 763 
L 3547 4666 
L 4159 4666 
L 4159 0 
L 3309 0 
L 1241 3903 
L 1241 0 
L 628 0 
L 628 4666 
z
" transform="scale(0.015625)"/>
      </defs>
      <use xlink:href="#DejaVuSans-4e"/>
      <use xlink:href="#DejaVuSans-65" x="74.804688"/>
      <use xlink:href="#DejaVuSans-67" x="136.328125"/>
      <use xlink:href="#DejaVuSans-61" x="199.804688"/>
      <use xlink:href="#DejaVuSans-74" x="261.083984"/>
      <use xlink:href="#DejaVuSans-69" x="300.292969"/>
      <use xlink:href="#DejaVuSans-76" x="328.076172"/>
      <use xlink:href="#DejaVuSans-65" x="387.255859"/>
      <use xlink:href="#DejaVuSans-20" x="448.779297"/>
      <use xlink:href="#DejaVuSans-70" x="480.566406"/>
      <use xlink:href="#DejaVuSans-72" x="544.042969"/>
      <use xlink:href="#DejaVuSans-65" x="582.90625"/>
      <use xlink:href="#DejaVuSans-64" x="644.429688"/>
      <use xlink:href="#DejaVuSans-69" x="707.90625"/>
      <use xlink:href="#DejaVuSans-63" x="735.689453"/>
      <use xlink:href="#DejaVuSans-74" x="790.669922"/>
      <use xlink:href="#DejaVuSans-69" x="829.878906"/>
      <use xlink:href="#DejaVuSans-6f" x="857.662109"/>
      <use xlink:href="#DejaVuSans-6e" x="918.84375"/>
      <use xlink:href="#DejaVuSans-73" x="982.222656"/>
     </g>
    </g>
    <g id="line2d_20">
     <path d="M 66.6 83.926688 
L 76.6 83.926688 
L 86.6 83.926688 
" style="fill: none; stroke: #2ca02c; stroke-opacity: 0.7; stroke-width: 0.5; stroke-linecap: square"/>
    </g>
    <g id="text_17">
     <!-- Average predictions -->
     <g transform="translate(94.6 87.426688) scale(0.1 -0.1)">
      <defs>
       <path id="DejaVuSans-41" d="M 2188 4044 
L 1331 1722 
L 3047 1722 
L 2188 4044 
z
M 1831 4666 
L 2547 4666 
L 4325 0 
L 3669 0 
L 3244 1197 
L 1141 1197 
L 716 0 
L 50 0 
L 1831 4666 
z
" transform="scale(0.015625)"/>
      </defs>
      <use xlink:href="#DejaVuSans-41"/>
      <use xlink:href="#DejaVuSans-76" x="62.533203"/>
      <use xlink:href="#DejaVuSans-65" x="121.712891"/>
      <use xlink:href="#DejaVuSans-72" x="183.236328"/>
      <use xlink:href="#DejaVuSans-61" x="224.349609"/>
      <use xlink:href="#DejaVuSans-67" x="285.628906"/>
      <use xlink:href="#DejaVuSans-65" x="349.105469"/>
      <use xlink:href="#DejaVuSans-20" x="410.628906"/>
      <use xlink:href="#DejaVuSans-70" x="442.416016"/>
      <use xlink:href="#DejaVuSans-72" x="505.892578"/>
      <use xlink:href="#DejaVuSans-65" x="544.755859"/>
      <use xlink:href="#DejaVuSans-64" x="606.279297"/>
      <use xlink:href="#DejaVuSans-69" x="669.755859"/>
      <use xlink:href="#DejaVuSans-63" x="697.539062"/>
      <use xlink:href="#DejaVuSans-74" x="752.519531"/>
      <use xlink:href="#DejaVuSans-69" x="791.728516"/>
      <use xlink:href="#DejaVuSans-6f" x="819.511719"/>
      <use xlink:href="#DejaVuSans-6e" x="880.693359"/>
      <use xlink:href="#DejaVuSans-73" x="944.072266"/>
     </g>
    </g>
    <g id="line2d_21">
     <path d="M 66.6 98.604813 
L 76.6 98.604813 
L 86.6 98.604813 
" style="fill: none; stroke: #d62728; stroke-opacity: 0.7; stroke-width: 0.5; stroke-linecap: square"/>
    </g>
    <g id="text_18">
     <!-- Actual values -->
     <g transform="translate(94.6 102.104813) scale(0.1 -0.1)">
      <defs>
       <path id="DejaVuSans-75" d="M 544 1381 
L 544 3500 
L 1119 3500 
L 1119 1403 
Q 1119 906 1312 657 
Q 1506 409 1894 409 
Q 2359 409 2629 706 
Q 2900 1003 2900 1516 
L 2900 3500 
L 3475 3500 
L 3475 0 
L 2900 0 
L 2900 538 
Q 2691 219 2414 64 
Q 2138 -91 1772 -91 
Q 1169 -91 856 284 
Q 544 659 544 1381 
z
M 1991 3584 
L 1991 3584 
z
" transform="scale(0.015625)"/>
       <path id="DejaVuSans-6c" d="M 603 4863 
L 1178 4863 
L 1178 0 
L 603 0 
L 603 4863 
z
" transform="scale(0.015625)"/>
      </defs>
      <use xlink:href="#DejaVuSans-41"/>
      <use xlink:href="#DejaVuSans-63" x="66.658203"/>
      <use xlink:href="#DejaVuSans-74" x="121.638672"/>
      <use xlink:href="#DejaVuSans-75" x="160.847656"/>
      <use xlink:href="#DejaVuSans-61" x="224.226562"/>
      <use xlink:href="#DejaVuSans-6c" x="285.505859"/>
      <use xlink:href="#DejaVuSans-20" x="313.289062"/>
      <use xlink:href="#DejaVuSans-76" x="345.076172"/>
      <use xlink:href="#DejaVuSans-61" x="404.255859"/>
      <use xlink:href="#DejaVuSans-6c" x="465.535156"/>
      <use xlink:href="#DejaVuSans-75" x="493.318359"/>
      <use xlink:href="#DejaVuSans-65" x="556.697266"/>
      <use xlink:href="#DejaVuSans-73" x="618.220703"/>
     </g>
    </g>
   </g>
  </g>
 </g>
 <defs>
  <clipPath id="p83e26fa7fd">
   <rect x="57.6" y="41.472" width="357.12" height="266.112"/>
  </clipPath>
 </defs>
</svg>
