<?xml version="1.0" encoding="utf-8" standalone="no"?>
<!DOCTYPE svg PUBLIC "-//W3C//DTD SVG 1.1//EN"
  "http://www.w3.org/Graphics/SVG/1.1/DTD/svg11.dtd">
<svg xmlns:xlink="http://www.w3.org/1999/xlink" width="460.8pt" height="345.6pt" viewBox="0 0 460.8 345.6" xmlns="http://www.w3.org/2000/svg" version="1.1">
 <metadata>
  <rdf:RDF xmlns:dc="http://purl.org/dc/elements/1.1/" xmlns:cc="http://creativecommons.org/ns#" xmlns:rdf="http://www.w3.org/1999/02/22-rdf-syntax-ns#">
   <cc:Work>
    <dc:type rdf:resource="http://purl.org/dc/dcmitype/StillImage"/>
    <dc:date>2024-07-12T21:13:07.081009</dc:date>
    <dc:format>image/svg+xml</dc:format>
    <dc:creator>
     <cc:Agent>
      <dc:title>Matplotlib v3.9.0, https://matplotlib.org/</dc:title>
     </cc:Agent>
    </dc:creator>
   </cc:Work>
  </rdf:RDF>
 </metadata>
 <defs>
  <style type="text/css">*{stroke-linejoin: round; stroke-linecap: butt}</style>
 </defs>
 <g id="figure_1">
  <g id="patch_1">
   <path d="M 0 345.6 
L 460.8 345.6 
L 460.8 0 
L 0 0 
z
" style="fill: #ffffff"/>
  </g>
  <g id="axes_1">
   <g id="patch_2">
    <path d="M 57.6 307.584 
L 414.72 307.584 
L 414.72 41.472 
L 57.6 41.472 
z
" style="fill: #ffffff"/>
   </g>
   <g id="matplotlib.axis_1">
    <g id="xtick_1">
     <g id="line2d_1">
      <defs>
       <path id="m3a04c50a97" d="M 0 0 
L 0 3.5 
" style="stroke: #000000; stroke-width: 0.8"/>
      </defs>
      <g>
       <use xlink:href="#m3a04c50a97" x="73.832727" y="307.584" style="stroke: #000000; stroke-width: 0.8"/>
      </g>
     </g>
     <g id="text_1">
      <!-- 0 -->
      <g transform="translate(70.651477 322.182437) scale(0.1 -0.1)">
       <defs>
        <path id="DejaVuSans-30" d="M 2034 4250 
Q 1547 4250 1301 3770 
Q 1056 3291 1056 2328 
Q 1056 1369 1301 889 
Q 1547 409 2034 409 
Q 2525 409 2770 889 
Q 3016 1369 3016 2328 
Q 3016 3291 2770 3770 
Q 2525 4250 2034 4250 
z
M 2034 4750 
Q 2819 4750 3233 4129 
Q 3647 3509 3647 2328 
Q 3647 1150 3233 529 
Q 2819 -91 2034 -91 
Q 1250 -91 836 529 
Q 422 1150 422 2328 
Q 422 3509 836 4129 
Q 1250 4750 2034 4750 
z
" transform="scale(0.015625)"/>
       </defs>
       <use xlink:href="#DejaVuSans-30"/>
      </g>
     </g>
    </g>
    <g id="xtick_2">
     <g id="line2d_2">
      <g>
       <use xlink:href="#m3a04c50a97" x="117.76433" y="307.584" style="stroke: #000000; stroke-width: 0.8"/>
      </g>
     </g>
     <g id="text_2">
      <!-- 200 -->
      <g transform="translate(108.22058 322.182437) scale(0.1 -0.1)">
       <defs>
        <path id="DejaVuSans-32" d="M 1228 531 
L 3431 531 
L 3431 0 
L 469 0 
L 469 531 
Q 828 903 1448 1529 
Q 2069 2156 2228 2338 
Q 2531 2678 2651 2914 
Q 2772 3150 2772 3378 
Q 2772 3750 2511 3984 
Q 2250 4219 1831 4219 
Q 1534 4219 1204 4116 
Q 875 4013 500 3803 
L 500 4441 
Q 881 4594 1212 4672 
Q 1544 4750 1819 4750 
Q 2544 4750 2975 4387 
Q 3406 4025 3406 3419 
Q 3406 3131 3298 2873 
Q 3191 2616 2906 2266 
Q 2828 2175 2409 1742 
Q 1991 1309 1228 531 
z
" transform="scale(0.015625)"/>
       </defs>
       <use xlink:href="#DejaVuSans-32"/>
       <use xlink:href="#DejaVuSans-30" x="63.623047"/>
       <use xlink:href="#DejaVuSans-30" x="127.246094"/>
      </g>
     </g>
    </g>
    <g id="xtick_3">
     <g id="line2d_3">
      <g>
       <use xlink:href="#m3a04c50a97" x="161.695933" y="307.584" style="stroke: #000000; stroke-width: 0.8"/>
      </g>
     </g>
     <g id="text_3">
      <!-- 400 -->
      <g transform="translate(152.152183 322.182437) scale(0.1 -0.1)">
       <defs>
        <path id="DejaVuSans-34" d="M 2419 4116 
L 825 1625 
L 2419 1625 
L 2419 4116 
z
M 2253 4666 
L 3047 4666 
L 3047 1625 
L 3713 1625 
L 3713 1100 
L 3047 1100 
L 3047 0 
L 2419 0 
L 2419 1100 
L 313 1100 
L 313 1709 
L 2253 4666 
z
" transform="scale(0.015625)"/>
       </defs>
       <use xlink:href="#DejaVuSans-34"/>
       <use xlink:href="#DejaVuSans-30" x="63.623047"/>
       <use xlink:href="#DejaVuSans-30" x="127.246094"/>
      </g>
     </g>
    </g>
    <g id="xtick_4">
     <g id="line2d_4">
      <g>
       <use xlink:href="#m3a04c50a97" x="205.627536" y="307.584" style="stroke: #000000; stroke-width: 0.8"/>
      </g>
     </g>
     <g id="text_4">
      <!-- 600 -->
      <g transform="translate(196.083786 322.182437) scale(0.1 -0.1)">
       <defs>
        <path id="DejaVuSans-36" d="M 2113 2584 
Q 1688 2584 1439 2293 
Q 1191 2003 1191 1497 
Q 1191 994 1439 701 
Q 1688 409 2113 409 
Q 2538 409 2786 701 
Q 3034 994 3034 1497 
Q 3034 2003 2786 2293 
Q 2538 2584 2113 2584 
z
M 3366 4563 
L 3366 3988 
Q 3128 4100 2886 4159 
Q 2644 4219 2406 4219 
Q 1781 4219 1451 3797 
Q 1122 3375 1075 2522 
Q 1259 2794 1537 2939 
Q 1816 3084 2150 3084 
Q 2853 3084 3261 2657 
Q 3669 2231 3669 1497 
Q 3669 778 3244 343 
Q 2819 -91 2113 -91 
Q 1303 -91 875 529 
Q 447 1150 447 2328 
Q 447 3434 972 4092 
Q 1497 4750 2381 4750 
Q 2619 4750 2861 4703 
Q 3103 4656 3366 4563 
z
" transform="scale(0.015625)"/>
       </defs>
       <use xlink:href="#DejaVuSans-36"/>
       <use xlink:href="#DejaVuSans-30" x="63.623047"/>
       <use xlink:href="#DejaVuSans-30" x="127.246094"/>
      </g>
     </g>
    </g>
    <g id="xtick_5">
     <g id="line2d_5">
      <g>
       <use xlink:href="#m3a04c50a97" x="249.559139" y="307.584" style="stroke: #000000; stroke-width: 0.8"/>
      </g>
     </g>
     <g id="text_5">
      <!-- 800 -->
      <g transform="translate(240.015389 322.182437) scale(0.1 -0.1)">
       <defs>
        <path id="DejaVuSans-38" d="M 2034 2216 
Q 1584 2216 1326 1975 
Q 1069 1734 1069 1313 
Q 1069 891 1326 650 
Q 1584 409 2034 409 
Q 2484 409 2743 651 
Q 3003 894 3003 1313 
Q 3003 1734 2745 1975 
Q 2488 2216 2034 2216 
z
M 1403 2484 
Q 997 2584 770 2862 
Q 544 3141 544 3541 
Q 544 4100 942 4425 
Q 1341 4750 2034 4750 
Q 2731 4750 3128 4425 
Q 3525 4100 3525 3541 
Q 3525 3141 3298 2862 
Q 3072 2584 2669 2484 
Q 3125 2378 3379 2068 
Q 3634 1759 3634 1313 
Q 3634 634 3220 271 
Q 2806 -91 2034 -91 
Q 1263 -91 848 271 
Q 434 634 434 1313 
Q 434 1759 690 2068 
Q 947 2378 1403 2484 
z
M 1172 3481 
Q 1172 3119 1398 2916 
Q 1625 2713 2034 2713 
Q 2441 2713 2670 2916 
Q 2900 3119 2900 3481 
Q 2900 3844 2670 4047 
Q 2441 4250 2034 4250 
Q 1625 4250 1398 4047 
Q 1172 3844 1172 3481 
z
" transform="scale(0.015625)"/>
       </defs>
       <use xlink:href="#DejaVuSans-38"/>
       <use xlink:href="#DejaVuSans-30" x="63.623047"/>
       <use xlink:href="#DejaVuSans-30" x="127.246094"/>
      </g>
     </g>
    </g>
    <g id="xtick_6">
     <g id="line2d_6">
      <g>
       <use xlink:href="#m3a04c50a97" x="293.490742" y="307.584" style="stroke: #000000; stroke-width: 0.8"/>
      </g>
     </g>
     <g id="text_6">
      <!-- 1000 -->
      <g transform="translate(280.765742 322.182437) scale(0.1 -0.1)">
       <defs>
        <path id="DejaVuSans-31" d="M 794 531 
L 1825 531 
L 1825 4091 
L 703 3866 
L 703 4441 
L 1819 4666 
L 2450 4666 
L 2450 531 
L 3481 531 
L 3481 0 
L 794 0 
L 794 531 
z
" transform="scale(0.015625)"/>
       </defs>
       <use xlink:href="#DejaVuSans-31"/>
       <use xlink:href="#DejaVuSans-30" x="63.623047"/>
       <use xlink:href="#DejaVuSans-30" x="127.246094"/>
       <use xlink:href="#DejaVuSans-30" x="190.869141"/>
      </g>
     </g>
    </g>
    <g id="xtick_7">
     <g id="line2d_7">
      <g>
       <use xlink:href="#m3a04c50a97" x="337.422345" y="307.584" style="stroke: #000000; stroke-width: 0.8"/>
      </g>
     </g>
     <g id="text_7">
      <!-- 1200 -->
      <g transform="translate(324.697345 322.182437) scale(0.1 -0.1)">
       <use xlink:href="#DejaVuSans-31"/>
       <use xlink:href="#DejaVuSans-32" x="63.623047"/>
       <use xlink:href="#DejaVuSans-30" x="127.246094"/>
       <use xlink:href="#DejaVuSans-30" x="190.869141"/>
      </g>
     </g>
    </g>
    <g id="xtick_8">
     <g id="line2d_8">
      <g>
       <use xlink:href="#m3a04c50a97" x="381.353948" y="307.584" style="stroke: #000000; stroke-width: 0.8"/>
      </g>
     </g>
     <g id="text_8">
      <!-- 1400 -->
      <g transform="translate(368.628948 322.182437) scale(0.1 -0.1)">
       <use xlink:href="#DejaVuSans-31"/>
       <use xlink:href="#DejaVuSans-34" x="63.623047"/>
       <use xlink:href="#DejaVuSans-30" x="127.246094"/>
       <use xlink:href="#DejaVuSans-30" x="190.869141"/>
      </g>
     </g>
    </g>
   </g>
   <g id="matplotlib.axis_2">
    <g id="ytick_1">
     <g id="line2d_9">
      <defs>
       <path id="m32e82fa831" d="M 0 0 
L -3.5 0 
" style="stroke: #000000; stroke-width: 0.8"/>
      </defs>
      <g>
       <use xlink:href="#m32e82fa831" x="57.6" y="276.406366" style="stroke: #000000; stroke-width: 0.8"/>
      </g>
     </g>
     <g id="text_9">
      <!-- −20000 -->
      <g transform="translate(10.407812 280.205584) scale(0.1 -0.1)">
       <defs>
        <path id="DejaVuSans-2212" d="M 678 2272 
L 4684 2272 
L 4684 1741 
L 678 1741 
L 678 2272 
z
" transform="scale(0.015625)"/>
       </defs>
       <use xlink:href="#DejaVuSans-2212"/>
       <use xlink:href="#DejaVuSans-32" x="83.789062"/>
       <use xlink:href="#DejaVuSans-30" x="147.412109"/>
       <use xlink:href="#DejaVuSans-30" x="211.035156"/>
       <use xlink:href="#DejaVuSans-30" x="274.658203"/>
       <use xlink:href="#DejaVuSans-30" x="338.28125"/>
      </g>
     </g>
    </g>
    <g id="ytick_2">
     <g id="line2d_10">
      <g>
       <use xlink:href="#m32e82fa831" x="57.6" y="225.532671" style="stroke: #000000; stroke-width: 0.8"/>
      </g>
     </g>
     <g id="text_10">
      <!-- −10000 -->
      <g transform="translate(10.407812 229.331889) scale(0.1 -0.1)">
       <use xlink:href="#DejaVuSans-2212"/>
       <use xlink:href="#DejaVuSans-31" x="83.789062"/>
       <use xlink:href="#DejaVuSans-30" x="147.412109"/>
       <use xlink:href="#DejaVuSans-30" x="211.035156"/>
       <use xlink:href="#DejaVuSans-30" x="274.658203"/>
       <use xlink:href="#DejaVuSans-30" x="338.28125"/>
      </g>
     </g>
    </g>
    <g id="ytick_3">
     <g id="line2d_11">
      <g>
       <use xlink:href="#m32e82fa831" x="57.6" y="174.658976" style="stroke: #000000; stroke-width: 0.8"/>
      </g>
     </g>
     <g id="text_11">
      <!-- 0 -->
      <g transform="translate(44.2375 178.458194) scale(0.1 -0.1)">
       <use xlink:href="#DejaVuSans-30"/>
      </g>
     </g>
    </g>
    <g id="ytick_4">
     <g id="line2d_12">
      <g>
       <use xlink:href="#m32e82fa831" x="57.6" y="123.785281" style="stroke: #000000; stroke-width: 0.8"/>
      </g>
     </g>
     <g id="text_12">
      <!-- 10000 -->
      <g transform="translate(18.7875 127.584499) scale(0.1 -0.1)">
       <use xlink:href="#DejaVuSans-31"/>
       <use xlink:href="#DejaVuSans-30" x="63.623047"/>
       <use xlink:href="#DejaVuSans-30" x="127.246094"/>
       <use xlink:href="#DejaVuSans-30" x="190.869141"/>
       <use xlink:href="#DejaVuSans-30" x="254.492188"/>
      </g>
     </g>
    </g>
    <g id="ytick_5">
     <g id="line2d_13">
      <g>
       <use xlink:href="#m32e82fa831" x="57.6" y="72.911586" style="stroke: #000000; stroke-width: 0.8"/>
      </g>
     </g>
     <g id="text_13">
      <!-- 20000 -->
      <g transform="translate(18.7875 76.710804) scale(0.1 -0.1)">
       <use xlink:href="#DejaVuSans-32"/>
       <use xlink:href="#DejaVuSans-30" x="63.623047"/>
       <use xlink:href="#DejaVuSans-30" x="127.246094"/>
       <use xlink:href="#DejaVuSans-30" x="190.869141"/>
       <use xlink:href="#DejaVuSans-30" x="254.492188"/>
      </g>
     </g>
    </g>
   </g>
   <g id="line2d_14">
    <path d="M 73.832727 174.840658 
L 74.052385 174.994694 
L 74.491701 174.797772 
L 74.931017 174.750824 
L 75.370333 175.133118 
L 76.029307 174.642703 
L 76.248965 174.753599 
L 76.468623 175.038867 
L 77.127597 175.050056 
L 77.347256 175.27103 
L 77.566914 175.31239 
L 78.00623 175.17392 
L 78.445546 175.281235 
L 78.665204 175.158381 
L 79.10452 175.340313 
L 79.324178 175.028072 
L 79.543836 174.90913 
L 79.763494 175.345514 
L 79.983152 175.270883 
L 80.20281 175.399847 
L 80.422468 175.756289 
L 80.642126 175.496688 
L 81.3011 176.302081 
L 81.520758 176.028312 
L 81.740416 176.192338 
L 81.960074 176.55575 
L 82.179732 176.53074 
L 82.39939 176.757866 
L 82.619048 176.688411 
L 83.278022 176.937543 
L 83.717338 176.638141 
L 83.936996 176.603344 
L 84.156654 176.288761 
L 84.815628 176.489918 
L 85.035286 176.254297 
L 85.474602 176.119497 
L 85.69426 176.090295 
L 85.913918 176.383328 
L 86.353234 176.456753 
L 86.79255 176.82429 
L 87.231866 177.03846 
L 87.451524 176.939602 
L 87.89084 177.088412 
L 88.110498 177.075754 
L 88.549814 177.198166 
L 88.98913 177.21339 
L 89.428446 177.06282 
L 89.648104 177.324311 
L 89.867762 177.203473 
L 90.307078 177.493844 
L 92.284 177.972729 
L 93.162633 177.837019 
L 93.382291 177.898545 
L 93.601949 177.744653 
L 93.821607 177.849148 
L 94.041265 177.803971 
L 94.480581 178.064761 
L 94.700239 178.172419 
L 94.919897 178.134162 
L 95.798529 178.72367 
L 96.018187 178.644594 
L 96.457503 178.87412 
L 97.995109 179.123696 
L 98.214767 179.282339 
L 99.093399 179.194319 
L 99.532715 179.336295 
L 99.972031 179.427517 
L 100.631005 179.515534 
L 101.070321 179.465248 
L 101.289979 179.647402 
L 101.509637 179.567194 
L 101.948953 179.811094 
L 102.607927 179.989202 
L 102.827585 179.922506 
L 103.925875 180.133393 
L 104.804507 180.122942 
L 105.243823 180.128107 
L 105.683139 180.285549 
L 106.122455 180.352801 
L 106.342113 180.287098 
L 107.001087 180.568295 
L 107.440403 180.566984 
L 108.099378 180.452973 
L 108.538694 180.513675 
L 108.97801 180.524066 
L 109.856642 180.334638 
L 110.0763 179.822878 
L 110.295958 179.629661 
L 110.515616 179.95536 
L 110.735274 179.973955 
L 110.954932 180.381266 
L 111.17459 180.470982 
L 111.394248 180.365994 
L 112.053222 180.657585 
L 112.27288 180.371701 
L 112.492538 180.848072 
L 112.712196 180.834275 
L 112.931854 180.964181 
L 113.37117 181.675446 
L 113.590828 181.878005 
L 113.810486 181.872511 
L 114.249802 182.157378 
L 114.46946 182.536626 
L 114.689118 182.530929 
L 115.348092 182.218031 
L 115.56775 182.271296 
L 116.007066 182.658287 
L 116.446382 182.26853 
L 116.66604 182.427425 
L 116.885698 182.39954 
L 117.544672 183.088563 
L 117.76433 183.134444 
L 118.203646 183.556054 
L 118.423304 183.093841 
L 118.642962 183.152656 
L 118.86262 182.891794 
L 119.741252 183.300475 
L 120.180568 182.835095 
L 120.400226 183.03647 
L 121.0592 182.777055 
L 121.278858 182.608485 
L 121.498516 183.3999 
L 121.718174 183.77105 
L 122.377148 184.184304 
L 122.596806 183.97298 
L 122.816465 184.530183 
L 123.914755 185.324776 
L 124.134413 185.384152 
L 124.573729 185.8657 
L 125.013045 186.288887 
L 125.232703 186.030014 
L 125.891677 186.41473 
L 126.111335 186.360081 
L 126.330993 186.426145 
L 126.770309 186.859035 
L 127.209625 186.99514 
L 127.429283 187.131989 
L 128.307915 187.073077 
L 128.527573 187.2506 
L 128.966889 187.232455 
L 129.186547 187.403404 
L 129.845521 187.394922 
L 131.602785 188.04769 
L 132.261759 188.052231 
L 132.481417 188.301147 
L 133.360049 188.638136 
L 134.238681 189.079451 
L 134.458339 188.818978 
L 135.336971 189.246523 
L 136.215603 189.801767 
L 137.533551 190.011103 
L 137.753209 190.21422 
L 138.8515 190.370027 
L 139.071158 190.538539 
L 139.510474 190.362766 
L 140.169448 190.392566 
L 140.608764 190.278791 
L 140.828422 190.470641 
L 141.707054 190.299465 
L 141.926712 190.446864 
L 142.14637 190.09164 
L 142.805344 190.654063 
L 143.24466 190.502378 
L 143.464318 190.643986 
L 144.562608 190.372556 
L 144.782266 190.487955 
L 145.001924 190.319696 
L 145.221582 190.342792 
L 145.660898 190.906294 
L 146.319872 191.344851 
L 146.759188 191.32699 
L 148.516452 191.671853 
L 148.73611 191.581194 
L 149.395084 191.760397 
L 150.054058 192.116466 
L 150.713032 192.016588 
L 151.591664 192.297223 
L 152.689954 192.230027 
L 153.568587 192.571997 
L 153.788245 192.581379 
L 154.447219 192.152984 
L 154.666877 192.019135 
L 154.886535 191.598358 
L 155.106193 191.949413 
L 155.325851 191.984057 
L 155.545509 192.299462 
L 155.984825 192.094702 
L 156.204483 192.414271 
L 156.424141 191.953762 
L 156.863457 192.262829 
L 157.083115 192.531442 
L 157.302773 192.384697 
L 157.742089 192.622572 
L 157.961747 192.330541 
L 159.060037 193.213098 
L 159.279695 193.195039 
L 159.719011 193.501965 
L 160.158327 193.396063 
L 160.597643 193.530963 
L 161.476275 193.296034 
L 161.915591 193.420957 
L 162.135249 193.315267 
L 162.354907 193.362725 
L 162.574565 193.212356 
L 163.013881 193.330022 
L 163.233539 193.309958 
L 163.453197 193.460239 
L 163.892513 193.116933 
L 164.551487 193.605049 
L 164.771145 193.438987 
L 165.430119 194.046341 
L 165.649777 193.977432 
L 165.869435 194.133838 
L 166.089093 194.069849 
L 166.308751 194.139224 
L 166.528409 194.052701 
L 166.748067 194.141618 
L 167.187383 194.045925 
L 167.626699 194.034334 
L 167.846357 194.145365 
L 168.066016 194.122498 
L 168.285674 194.218571 
L 168.72499 194.239428 
L 169.164306 194.363745 
L 169.383964 194.391305 
L 169.82328 194.57425 
L 170.701912 194.635342 
L 171.360886 194.832295 
L 171.800202 194.785741 
L 172.678834 195.222409 
L 172.898492 195.188114 
L 173.337808 194.887756 
L 173.996782 195.338553 
L 174.436098 195.354979 
L 174.655756 195.439538 
L 174.875414 195.660234 
L 175.973704 195.833146 
L 177.071994 196.259576 
L 177.51131 196.242063 
L 177.730968 196.402861 
L 177.950626 196.312713 
L 178.170284 196.409381 
L 178.389942 196.351206 
L 179.268574 196.6452 
L 179.488232 196.607923 
L 179.927548 196.886981 
L 180.366864 197.058453 
L 181.025838 196.909401 
L 181.245496 196.661922 
L 181.465154 196.922972 
L 181.90447 197.072724 
L 182.124128 196.797981 
L 182.343786 196.978778 
L 182.783102 197.568052 
L 183.00276 197.72661 
L 183.222419 197.577763 
L 183.881393 198.031123 
L 184.320709 198.058809 
L 185.199341 198.018197 
L 185.638657 197.097485 
L 185.858315 197.190807 
L 186.077973 196.657855 
L 186.297631 196.733008 
L 186.517289 197.624939 
L 186.736947 197.342192 
L 186.956605 198.122442 
L 187.176263 197.683293 
L 187.395921 197.534811 
L 187.615579 196.54603 
L 187.835237 197.548381 
L 188.054895 197.003685 
L 188.274553 195.881297 
L 188.494211 197.60921 
L 188.713869 196.116372 
L 188.933527 197.282334 
L 189.153185 197.024058 
L 189.372843 197.594687 
L 189.592501 197.399525 
L 189.812159 197.637024 
L 190.031817 199.202948 
L 190.251475 199.249917 
L 190.471133 199.963128 
L 190.690791 199.315729 
L 190.910449 200.071025 
L 191.130107 199.977388 
L 191.349765 199.697715 
L 191.569423 200.09224 
L 191.789081 199.586403 
L 192.008739 200.432188 
L 192.228397 200.016041 
L 192.448055 200.281337 
L 192.667713 200.121221 
L 192.887371 200.210308 
L 193.107029 200.538864 
L 193.326687 199.965528 
L 193.766003 200.383747 
L 193.985661 200.262523 
L 194.205319 199.605287 
L 194.644635 200.532864 
L 194.864293 200.557751 
L 195.303609 200.207015 
L 195.523267 200.894014 
L 195.742925 200.827897 
L 195.962583 200.413506 
L 196.401899 201.079297 
L 196.621557 201.052797 
L 197.280531 201.71992 
L 197.719847 200.991164 
L 197.939505 200.967661 
L 198.59848 202.236256 
L 199.037796 202.947194 
L 199.257454 202.967721 
L 199.69677 203.92434 
L 199.916428 203.967475 
L 200.136086 204.219147 
L 200.355744 204.17741 
L 200.575402 204.295702 
L 200.79506 204.656803 
L 201.014718 204.667363 
L 201.234376 205.457162 
L 201.454034 205.525556 
L 201.89335 205.373236 
L 202.113008 204.415082 
L 202.552324 204.991108 
L 202.771982 205.122192 
L 203.211298 205.039056 
L 203.430956 204.820807 
L 203.870272 205.541026 
L 204.08993 205.26319 
L 204.309588 205.545838 
L 204.529246 205.309263 
L 205.627536 207.556256 
L 205.847194 207.548907 
L 206.066852 207.690131 
L 206.28651 207.60775 
L 206.506168 207.828715 
L 206.725826 207.615655 
L 207.165142 207.930276 
L 208.043774 207.846896 
L 208.263432 207.866787 
L 208.702748 207.650884 
L 208.922406 207.860321 
L 209.142064 207.891331 
L 209.361722 208.240927 
L 209.58138 208.130277 
L 210.460012 208.881775 
L 211.338644 209.141274 
L 211.558302 209.447271 
L 211.997618 209.14347 
L 212.217276 209.116771 
L 213.095908 209.789822 
L 213.315566 210.11202 
L 213.535225 210.064742 
L 213.754883 210.427261 
L 214.853173 211.140613 
L 215.072831 210.636629 
L 215.292489 210.470424 
L 215.512147 210.037019 
L 215.731805 210.500435 
L 215.951463 210.327407 
L 216.171121 210.428442 
L 216.610437 211.184617 
L 216.830095 211.285195 
L 217.049753 211.063602 
L 217.489069 211.234946 
L 217.708727 211.54333 
L 217.928385 211.283285 
L 218.148043 211.379805 
L 218.587359 212.48247 
L 218.807017 212.568969 
L 219.026675 212.935837 
L 219.465991 213.080527 
L 219.685649 213.493868 
L 219.905307 213.294647 
L 220.783939 213.938133 
L 221.223255 213.88574 
L 221.442913 213.928659 
L 221.662571 214.145718 
L 221.882229 213.948343 
L 222.760861 214.839494 
L 222.980519 214.632902 
L 223.200177 214.803354 
L 223.419835 214.286365 
L 223.639493 214.764491 
L 223.859151 214.683833 
L 224.518125 215.907538 
L 224.737783 216.387488 
L 225.616415 217.036799 
L 225.836073 216.732609 
L 226.275389 217.021066 
L 226.934363 216.434837 
L 227.154021 216.313351 
L 227.373679 216.319193 
L 227.593337 216.549599 
L 228.032653 216.5038 
L 228.252311 216.36999 
L 228.471969 216.773385 
L 230.009576 217.06631 
L 230.448892 216.936324 
L 230.888208 217.503476 
L 231.107866 217.753274 
L 231.547182 217.638895 
L 231.986498 217.720633 
L 233.084788 218.336263 
L 233.304446 218.031356 
L 233.743762 218.15363 
L 234.183078 218.614402 
L 234.402736 218.546238 
L 234.842052 218.825651 
L 235.281368 218.629237 
L 235.940342 219.459867 
L 236.16 219.451998 
L 236.379658 219.655028 
L 236.599316 219.655725 
L 236.818974 219.139721 
L 237.038632 219.470043 
L 237.25829 219.214556 
L 237.697606 220.233692 
L 239.674528 221.31161 
L 240.772818 221.390403 
L 240.992476 221.724903 
L 241.212134 221.257158 
L 241.431792 221.348025 
L 241.65145 221.937482 
L 242.090766 221.460664 
L 242.310424 221.43022 
L 242.530082 221.973589 
L 242.74974 221.974694 
L 243.408714 222.985738 
L 243.848031 223.351008 
L 244.726663 222.507151 
L 244.946321 222.72726 
L 245.385637 222.398226 
L 245.605295 222.390833 
L 245.824953 222.687656 
L 246.483927 222.543044 
L 246.703585 222.843839 
L 247.801875 223.322556 
L 249.119823 223.792782 
L 249.339481 223.774789 
L 249.559139 224.083321 
L 249.778797 224.011697 
L 249.998455 224.294326 
L 250.657429 224.343514 
L 250.877087 224.567445 
L 251.755719 224.470486 
L 251.975377 224.762129 
L 252.195035 224.86157 
L 252.634351 224.595086 
L 252.854009 224.297797 
L 253.293325 224.938715 
L 253.512983 224.974486 
L 253.732641 224.820746 
L 253.952299 224.876637 
L 254.171957 225.137343 
L 254.391615 224.9879 
L 254.830931 225.205212 
L 255.270247 225.212389 
L 255.709563 225.23055 
L 256.368537 225.368115 
L 256.588195 225.419589 
L 257.027511 225.284569 
L 257.247169 225.531268 
L 257.906143 225.407053 
L 258.125801 225.180107 
L 258.345459 225.1507 
L 258.565117 224.861061 
L 258.784775 225.222229 
L 259.44375 225.448555 
L 260.102724 225.619441 
L 260.54204 225.756993 
L 260.761698 225.950843 
L 260.981356 225.975835 
L 261.201014 226.147371 
L 261.420672 226.027178 
L 261.859988 226.482849 
L 262.518962 226.628395 
L 262.958278 226.314762 
L 263.397594 227.048413 
L 263.617252 227.133801 
L 264.056568 227.516039 
L 264.276226 227.514516 
L 264.9352 227.819415 
L 265.154858 227.761847 
L 265.374516 228.013654 
L 265.594174 227.85299 
L 266.692464 228.38325 
L 266.912122 228.374936 
L 267.351438 228.642725 
L 267.790754 228.486134 
L 268.23007 228.940441 
L 268.449728 229.25936 
L 268.669386 229.365927 
L 268.889044 229.344203 
L 269.108702 229.170023 
L 269.548018 229.73586 
L 270.646308 229.934641 
L 271.085624 229.892416 
L 271.305282 229.733864 
L 271.52494 229.839719 
L 271.744598 229.722446 
L 271.964256 229.963904 
L 272.183914 230.039722 
L 272.62323 229.589758 
L 272.842888 229.690109 
L 273.501862 230.494126 
L 273.72152 230.493093 
L 273.941178 230.111404 
L 274.160837 230.309423 
L 274.380495 230.196655 
L 274.600153 230.572235 
L 274.819811 230.419723 
L 275.259127 230.979106 
L 275.478785 231.312418 
L 275.698443 231.316947 
L 276.137759 231.134686 
L 276.357417 231.242274 
L 276.796733 232.040753 
L 277.016391 232.058584 
L 277.455707 232.472662 
L 278.334339 232.554781 
L 278.553997 232.505345 
L 278.773655 232.594796 
L 278.993313 232.462957 
L 279.432629 232.73653 
L 280.311261 233.324348 
L 280.970235 233.26855 
L 281.409551 233.639692 
L 282.068525 233.893317 
L 282.727499 233.967714 
L 282.947157 234.074367 
L 283.166815 233.668135 
L 283.386473 234.082567 
L 283.825789 233.59689 
L 284.045447 234.110139 
L 284.265105 234.03505 
L 284.704421 235.141125 
L 284.924079 235.304694 
L 285.143737 235.117633 
L 285.363395 235.350857 
L 285.802711 234.783253 
L 286.022369 235.144173 
L 286.681343 234.364356 
L 287.120659 235.272329 
L 287.559975 235.493975 
L 288.438607 235.096152 
L 288.877923 235.282484 
L 289.097581 234.582284 
L 289.756556 234.542469 
L 290.195872 235.070291 
L 290.41553 234.823967 
L 290.635188 234.954578 
L 291.074504 234.536577 
L 291.294162 234.420058 
L 291.51382 234.144344 
L 291.733478 234.436359 
L 291.953136 234.386185 
L 292.392452 234.610269 
L 292.831768 235.765915 
L 293.051426 235.975669 
L 293.271084 236.367983 
L 293.490742 235.805683 
L 293.7104 236.05314 
L 293.930058 236.106625 
L 294.369374 236.701356 
L 294.80869 236.169916 
L 295.028348 236.21275 
L 295.248006 236.768615 
L 295.467664 236.887697 
L 295.687322 236.498991 
L 295.90698 236.678897 
L 296.346296 236.424036 
L 296.785612 237.701567 
L 297.00527 237.619151 
L 297.224928 237.377266 
L 297.444586 238.018285 
L 298.323218 237.596346 
L 298.542876 238.388079 
L 298.762534 238.498623 
L 298.982192 238.274677 
L 299.20185 238.32187 
L 300.080482 240.301592 
L 300.30014 240.341602 
L 300.519798 240.741858 
L 300.739456 240.641028 
L 301.39843 241.678062 
L 301.618088 241.949042 
L 302.057404 241.464496 
L 302.277062 241.616632 
L 302.49672 241.913807 
L 302.936036 241.672142 
L 303.375352 242.081452 
L 303.59501 241.912692 
L 303.814668 242.019096 
L 304.034326 242.368343 
L 304.253984 242.263782 
L 304.473643 242.43755 
L 304.693301 242.829492 
L 304.912959 242.877961 
L 305.352275 242.383882 
L 305.571933 242.845003 
L 305.791591 242.449736 
L 306.011249 242.688904 
L 306.230907 243.428574 
L 306.450565 242.529332 
L 306.889881 243.161309 
L 307.109539 243.997036 
L 307.329197 243.198828 
L 307.548855 243.2817 
L 307.768513 242.672556 
L 307.988171 242.992511 
L 308.427487 242.640849 
L 308.647145 243.288448 
L 308.866803 243.221184 
L 309.086461 243.800924 
L 309.306119 243.198718 
L 309.525777 243.367894 
L 309.745435 243.306778 
L 309.965093 244.041261 
L 310.184751 244.078102 
L 310.404409 244.724122 
L 310.624067 244.921194 
L 310.843725 245.693944 
L 311.283041 245.765582 
L 311.502699 246.193705 
L 311.722357 245.958888 
L 311.942015 246.037437 
L 312.161673 246.367518 
L 312.600989 245.73525 
L 313.040305 244.872446 
L 313.479621 245.528232 
L 313.699279 245.10721 
L 313.918937 245.439238 
L 314.138595 246.09316 
L 314.358253 246.133756 
L 314.797569 246.832545 
L 315.017227 246.679243 
L 315.236885 246.034418 
L 315.676201 246.410449 
L 316.335175 247.16003 
L 316.554833 247.749229 
L 316.994149 247.702957 
L 317.653123 247.279394 
L 317.872781 247.745436 
L 318.092439 247.720223 
L 318.312097 248.299868 
L 318.531755 248.241407 
L 318.751413 248.545543 
L 318.971071 248.252584 
L 319.410388 248.290798 
L 319.849704 249.595272 
L 320.069362 249.884352 
L 320.28902 249.805853 
L 320.508678 249.847468 
L 320.728336 250.187944 
L 321.167652 250.383205 
L 321.606968 250.494968 
L 321.826626 251.08798 
L 322.046284 251.212625 
L 322.265942 251.717789 
L 322.705258 252.079869 
L 322.924916 252.057469 
L 323.364232 252.144 
L 323.58389 251.90084 
L 323.803548 252.024049 
L 324.023206 252.297986 
L 324.242864 252.837665 
L 324.462522 252.116237 
L 324.901838 252.325568 
L 325.121496 252.340814 
L 325.341154 252.674271 
L 325.78047 252.921473 
L 326.219786 253.96179 
L 326.659102 254.752295 
L 326.87876 254.075506 
L 327.098418 254.457697 
L 327.318076 254.307756 
L 327.97705 254.681966 
L 328.196708 254.637401 
L 328.416366 254.75564 
L 328.636024 254.466444 
L 328.855682 254.47844 
L 329.07534 254.604729 
L 329.294998 255.196865 
L 329.514656 254.843708 
L 329.734314 254.896966 
L 330.17363 256.383901 
L 330.393288 256.482987 
L 330.612946 256.44589 
L 330.832604 256.068653 
L 331.491578 256.631941 
L 331.711236 257.136637 
L 331.930894 256.767148 
L 332.37021 258.130839 
L 332.809526 258.279967 
L 333.248842 259.388616 
L 333.4685 259.756257 
L 333.907816 259.855891 
L 334.127474 260.590558 
L 334.347132 260.651974 
L 334.566791 260.571188 
L 334.786449 260.219866 
L 335.006107 260.203513 
L 335.665081 261.321899 
L 335.884739 261.017725 
L 336.104397 262.145087 
L 336.324055 262.603552 
L 336.543713 262.322851 
L 336.763371 262.741192 
L 337.202687 262.93977 
L 337.861661 263.565946 
L 338.300977 264.124857 
L 338.520635 263.998378 
L 338.740293 264.176559 
L 338.959951 264.935961 
L 339.179609 265.205855 
L 339.399267 265.052216 
L 339.618925 264.747305 
L 339.838583 264.665589 
L 340.058241 264.817874 
L 340.277899 265.190609 
L 340.497557 265.195428 
L 340.936873 265.867187 
L 341.156531 265.837978 
L 341.376189 265.497853 
L 341.815505 265.53409 
L 342.035163 265.758691 
L 342.254821 266.249341 
L 342.474479 266.117143 
L 342.913795 266.331035 
L 343.133453 266.113513 
L 343.353111 266.604975 
L 343.792427 266.723341 
L 344.012085 266.996363 
L 344.231743 266.932754 
L 344.451401 267.472402 
L 344.671059 267.386242 
L 345.110375 267.911335 
L 345.769349 268.215818 
L 345.989007 267.977052 
L 346.208665 267.97296 
L 346.647981 268.766786 
L 347.087297 268.768078 
L 347.526613 269.344037 
L 347.746271 269.203313 
L 348.185587 269.794205 
L 348.405245 270.02935 
L 348.844561 269.774784 
L 349.064219 270.188801 
L 349.503535 270.082644 
L 350.382168 270.985322 
L 350.601826 270.760289 
L 350.821484 270.824462 
L 351.041142 270.499249 
L 351.480458 270.976631 
L 351.700116 270.934745 
L 351.919774 271.146787 
L 352.35909 270.901206 
L 353.018064 271.855244 
L 353.237722 271.508978 
L 353.45738 271.649186 
L 353.677038 271.255194 
L 353.896696 271.101326 
L 354.116354 271.206405 
L 354.336012 271.721189 
L 354.55567 271.629594 
L 354.775328 272.140511 
L 354.994986 271.996164 
L 355.434302 272.59326 
L 355.65396 272.27869 
L 356.312934 272.907022 
L 356.532592 273.059796 
L 356.971908 273.625341 
L 357.411224 273.944736 
L 358.070198 274.251416 
L 358.509514 274.54243 
L 358.729172 274.301604 
L 358.94883 274.620914 
L 359.388146 274.973365 
L 359.827462 275.288125 
L 360.04712 275.300884 
L 360.486436 275.650861 
L 360.706094 275.478405 
L 360.925752 275.67484 
L 361.14541 276.224147 
L 361.365068 276.424981 
L 362.024042 276.435461 
L 362.2437 276.39586 
L 362.463358 276.921758 
L 363.122332 277.551049 
L 363.34199 277.589916 
L 363.781306 278.141496 
L 364.000964 278.16725 
L 364.44028 279.011601 
L 365.099255 279.18483 
L 365.318913 279.111767 
L 365.977887 279.834202 
L 366.197545 279.796933 
L 366.856519 280.500545 
L 367.076177 280.661032 
L 367.295835 280.508796 
L 367.954809 281.334037 
L 368.613783 281.577709 
L 369.053099 281.451393 
L 369.492415 281.691492 
L 369.712073 281.498909 
L 369.931731 281.463754 
L 370.151389 281.705994 
L 370.371047 281.608111 
L 370.590705 281.645333 
L 370.810363 281.839983 
L 371.030021 281.832945 
L 371.249679 282.017815 
L 371.469337 281.936468 
L 371.908653 282.240098 
L 372.567627 283.177565 
L 372.787285 283.315722 
L 373.226601 283.980558 
L 373.446259 284.039014 
L 373.665917 283.901684 
L 373.885575 284.003557 
L 374.544549 284.813304 
L 374.764207 284.723581 
L 374.983865 285.069107 
L 377.180445 286.459286 
L 377.400103 286.758968 
L 377.619761 286.711501 
L 377.839419 286.792773 
L 378.059077 286.708658 
L 378.278735 286.86208 
L 378.498393 287.307508 
L 378.718051 287.446083 
L 378.937709 287.81503 
L 379.157367 287.525111 
L 379.816341 288.617849 
L 380.475316 288.788856 
L 380.694974 288.741584 
L 380.914632 288.516797 
L 381.13429 288.477544 
L 381.573606 288.681453 
L 381.793264 288.536513 
L 382.012922 288.573112 
L 382.23258 288.736409 
L 382.891554 288.168527 
L 383.33087 287.672966 
L 383.550528 287.764467 
L 383.770186 287.988609 
L 383.989844 287.699556 
L 384.209502 287.827351 
L 384.42916 288.089323 
L 384.868476 288.114353 
L 385.088134 287.839481 
L 385.747108 288.536206 
L 385.966766 288.619419 
L 386.406082 288.997972 
L 386.845398 288.923912 
L 387.065056 289.187425 
L 387.284714 289.226373 
L 387.504372 288.984647 
L 387.72403 288.955293 
L 387.943688 288.56092 
L 388.163346 288.630387 
L 388.383004 288.841437 
L 388.82232 288.459951 
L 389.041978 288.489192 
L 389.481294 289.032765 
L 389.700952 289.298956 
L 390.140268 289.964105 
L 390.799242 290.145231 
L 391.0189 289.945758 
L 391.238558 290.299146 
L 391.458216 290.236365 
L 391.677874 290.725133 
L 392.11719 290.807087 
L 393.654796 291.500456 
L 394.094112 291.721668 
L 394.31377 291.923722 
L 394.533428 291.78062 
L 395.851377 292.749621 
L 396.290693 293.314882 
L 396.949667 294.164283 
L 397.169325 294.007479 
L 397.388983 294.457546 
L 397.608641 294.580716 
L 398.267615 295.3441 
L 398.487273 295.488 
L 398.487273 295.488 
" clip-path="url(#p2daaa61081)" style="fill: none; stroke: #1f77b4; stroke-opacity: 0.7; stroke-width: 1.5; stroke-linecap: square"/>
   </g>
   <g id="line2d_15">
    <path d="M 73.832727 174.984313 
L 74.052385 175.198705 
L 74.491701 175.154925 
L 74.931017 175.051097 
L 75.370333 175.579195 
L 76.029307 175.051066 
L 76.688281 175.505349 
L 77.127597 175.58341 
L 77.347256 175.832717 
L 78.225888 175.438883 
L 78.445546 175.466645 
L 78.665204 175.273817 
L 79.10452 175.295851 
L 79.543836 174.605102 
L 79.763494 174.935956 
L 79.983152 174.594624 
L 80.20281 174.548371 
L 80.422468 174.761596 
L 80.642126 174.461618 
L 81.3011 174.702701 
L 81.520758 174.392727 
L 81.740416 174.330082 
L 81.960074 174.5303 
L 82.179732 174.347548 
L 82.39939 174.3279 
L 82.619048 174.177687 
L 83.278022 174.196542 
L 83.717338 173.879325 
L 83.936996 173.865437 
L 84.376312 173.534486 
L 84.815628 173.528066 
L 85.035286 173.300466 
L 85.254944 173.337665 
L 85.474602 173.248322 
L 85.69426 173.300101 
L 85.913918 173.493712 
L 86.353234 173.403489 
L 86.79255 173.583847 
L 87.231866 173.449514 
L 87.671182 173.271303 
L 88.110498 173.089851 
L 88.330156 173.101436 
L 88.98913 172.840479 
L 89.208788 172.741047 
L 89.428446 172.509506 
L 89.648104 172.643668 
L 89.867762 172.471888 
L 90.307078 172.536765 
L 90.526736 172.471494 
L 90.746394 172.566636 
L 91.405368 172.402646 
L 92.503659 172.073498 
L 94.041265 171.480646 
L 94.480581 171.53329 
L 95.798529 171.666475 
L 96.018187 171.4928 
L 96.457503 171.520157 
L 96.896819 171.383919 
L 97.116477 171.397867 
L 97.555793 171.253467 
L 97.995109 171.318423 
L 98.214767 171.373978 
L 98.873741 171.014411 
L 99.093399 171.112198 
L 99.532715 171.114962 
L 100.191689 171.283949 
L 100.850663 171.136027 
L 101.070321 171.067107 
L 101.289979 171.126149 
L 101.509637 171.013736 
L 102.168611 171.150912 
L 102.607927 171.112803 
L 103.047243 171.119976 
L 103.266901 171.189927 
L 103.925875 171.021838 
L 105.902797 170.638572 
L 106.122455 170.625968 
L 106.342113 170.469057 
L 107.001087 170.618256 
L 107.660062 170.370514 
L 108.099378 170.285656 
L 108.97801 170.207102 
L 109.417326 169.930335 
L 109.856642 169.878402 
L 110.295958 169.070891 
L 110.515616 169.232634 
L 110.735274 169.142916 
L 110.954932 169.396572 
L 111.17459 169.332319 
L 111.394248 169.050515 
L 111.833564 168.949057 
L 112.053222 168.837053 
L 112.27288 168.398376 
L 112.492538 168.614984 
L 112.712196 168.303992 
L 112.931854 168.200719 
L 113.590828 168.539065 
L 113.810486 168.350908 
L 114.249802 168.414686 
L 114.46946 168.7424 
L 114.908776 168.328527 
L 115.128434 167.984315 
L 115.348092 167.90823 
L 115.56775 167.713982 
L 115.787408 167.832436 
L 116.007066 167.789359 
L 116.446382 167.230734 
L 116.66604 167.301385 
L 116.885698 167.194776 
L 117.105356 167.405953 
L 117.325014 167.454265 
L 117.544672 167.755922 
L 117.983988 167.714206 
L 118.203646 167.746695 
L 118.423304 167.162753 
L 118.642962 167.114015 
L 118.86262 166.691593 
L 119.082278 166.726167 
L 119.301936 166.60182 
L 119.741252 166.705629 
L 120.180568 166.1519 
L 120.400226 166.15604 
L 121.278858 165.444583 
L 121.498516 166.066481 
L 121.718174 166.258046 
L 121.937832 166.176103 
L 122.15749 166.249987 
L 122.377148 166.191284 
L 122.596806 165.786007 
L 122.816465 166.220661 
L 123.475439 166.219429 
L 123.914755 166.07548 
L 124.134413 165.878404 
L 125.013045 166.042776 
L 125.232703 165.75238 
L 125.672019 165.718815 
L 125.891677 165.890158 
L 126.111335 165.621426 
L 126.550651 165.731655 
L 126.989967 165.722083 
L 127.648941 165.476421 
L 128.088257 164.972066 
L 128.307915 165.039495 
L 128.527573 165.250274 
L 129.845521 164.776376 
L 130.065179 164.868288 
L 130.943811 164.512144 
L 131.163469 164.638962 
L 131.383127 164.49555 
L 131.602785 164.52879 
L 132.042101 164.180914 
L 132.920733 164.125286 
L 133.140391 163.955704 
L 133.360049 163.930999 
L 133.799365 163.612909 
L 134.019023 163.521219 
L 134.238681 163.573924 
L 134.458339 163.184684 
L 135.336971 162.906866 
L 135.995945 162.967311 
L 136.874577 162.820904 
L 137.094235 162.66764 
L 137.972868 162.639803 
L 138.631842 162.487224 
L 139.071158 162.552907 
L 139.510474 162.35193 
L 139.94979 162.24008 
L 141.04808 161.667226 
L 141.267738 161.300386 
L 141.707054 161.324321 
L 141.926712 161.289421 
L 142.14637 160.852401 
L 142.585686 160.982593 
L 142.805344 161.057089 
L 143.24466 160.680984 
L 143.464318 160.7037 
L 144.562608 160.016529 
L 144.782266 159.967223 
L 145.221582 159.539926 
L 145.44124 159.748152 
L 146.100214 159.829917 
L 146.319872 159.910678 
L 146.759188 159.741235 
L 146.978846 159.89397 
L 147.418162 159.87647 
L 147.857478 159.907554 
L 148.077136 159.961143 
L 148.516452 159.738279 
L 148.955768 159.382796 
L 149.614742 159.382132 
L 150.93269 159.287402 
L 151.811322 159.033192 
L 152.03098 158.846555 
L 152.250638 158.833284 
L 152.470296 158.652394 
L 153.129271 158.745318 
L 153.348929 158.57307 
L 153.568587 158.651366 
L 154.227561 158.266176 
L 154.886535 157.455247 
L 155.106193 157.557636 
L 155.325851 157.42968 
L 155.545509 157.700328 
L 155.984825 157.245021 
L 156.204483 157.363761 
L 156.424141 156.791508 
L 156.643799 156.735903 
L 156.863457 156.985311 
L 157.083115 157.036704 
L 157.302773 156.780701 
L 157.522431 156.797286 
L 157.742089 156.661999 
L 157.961747 156.160288 
L 158.401063 156.229295 
L 159.060037 156.225102 
L 159.279695 156.051347 
L 159.719011 156.275871 
L 160.377985 155.913373 
L 160.817301 155.959139 
L 161.476275 155.644787 
L 162.574565 155.095875 
L 162.794223 155.198589 
L 163.233539 155.034432 
L 163.453197 155.101526 
L 163.892513 154.607828 
L 164.331829 154.72131 
L 164.990803 154.225479 
L 166.308751 153.975855 
L 166.528409 153.837762 
L 166.748067 153.891231 
L 167.187383 153.643037 
L 167.846357 153.73022 
L 168.066016 153.656416 
L 168.285674 153.813871 
L 168.505332 153.666401 
L 168.944648 153.903897 
L 169.383964 153.906666 
L 169.82328 153.918507 
L 170.701912 153.796331 
L 170.92157 153.900055 
L 171.360886 153.780115 
L 171.800202 153.580928 
L 172.459176 153.632125 
L 172.678834 153.647335 
L 173.337808 153.288492 
L 173.996782 153.389975 
L 174.436098 153.23727 
L 175.095072 153.256314 
L 175.31473 153.31218 
L 175.754046 153.15131 
L 176.193362 153.234879 
L 178.389942 152.707956 
L 178.829258 152.83033 
L 179.048916 152.721847 
L 179.268574 152.829151 
L 179.70789 152.760106 
L 180.147206 152.901911 
L 180.586522 152.736917 
L 180.80618 152.749 
L 181.245496 152.327466 
L 181.465154 152.466522 
L 181.90447 152.452319 
L 182.124128 152.0756 
L 182.783102 152.569687 
L 183.661735 152.406332 
L 183.881393 152.492634 
L 184.979683 152.090439 
L 185.199341 151.921416 
L 185.638657 150.80688 
L 185.858315 150.687841 
L 186.077973 149.900516 
L 186.297631 149.762686 
L 186.517289 150.380237 
L 186.736947 149.746261 
L 186.956605 150.178925 
L 187.176263 149.469148 
L 187.395921 149.232457 
L 187.615579 148.035449 
L 187.835237 148.706797 
L 188.054895 147.900179 
L 188.274553 146.471628 
L 188.494211 147.597953 
L 188.713869 145.848101 
L 188.933527 146.640542 
L 189.153185 146.059468 
L 189.372843 146.142693 
L 189.812159 145.443998 
L 190.031817 146.440859 
L 190.251475 146.499008 
L 190.471133 147.326417 
L 190.690791 146.711446 
L 190.910449 146.972115 
L 191.130107 146.673088 
L 191.349765 146.096337 
L 191.569423 146.3523 
L 191.789081 145.942168 
L 192.008739 146.798354 
L 192.228397 146.48714 
L 192.667713 146.808123 
L 192.887371 146.69226 
L 193.107029 147.063334 
L 193.326687 146.486774 
L 193.546345 146.562191 
L 193.766003 146.924584 
L 194.205319 145.941819 
L 194.424977 146.284071 
L 194.644635 146.013016 
L 195.083951 145.869238 
L 195.303609 145.769601 
L 195.523267 146.065033 
L 195.742925 145.704321 
L 195.962583 145.091649 
L 196.182241 145.281327 
L 196.401899 145.102989 
L 196.621557 144.706886 
L 196.841215 144.778974 
L 197.060873 144.715861 
L 197.719847 143.751357 
L 197.939505 143.578929 
L 198.159163 143.17734 
L 198.378822 143.263164 
L 198.59848 142.966282 
L 198.818138 142.993184 
L 199.037796 142.522296 
L 199.69677 143.021318 
L 200.136086 142.587393 
L 200.79506 142.434177 
L 201.014718 142.161225 
L 201.234376 142.536536 
L 201.454034 142.345358 
L 201.89335 141.535586 
L 202.113008 140.288016 
L 202.332666 140.459453 
L 202.552324 140.453882 
L 202.771982 140.735739 
L 202.99164 140.397358 
L 203.211298 140.398257 
L 203.650614 140.575999 
L 203.870272 140.595364 
L 204.08993 139.979823 
L 204.309588 139.921562 
L 204.529246 139.586254 
L 204.748904 140.015984 
L 204.968562 140.088394 
L 205.407878 139.709635 
L 205.627536 139.936239 
L 205.847194 139.452778 
L 206.066852 139.421439 
L 206.28651 139.054581 
L 206.506168 139.152725 
L 206.725826 138.74889 
L 206.945484 138.763904 
L 207.604458 138.297106 
L 207.824116 138.476674 
L 208.263432 138.044751 
L 208.702748 137.192801 
L 209.58138 136.88229 
L 210.67967 137.157795 
L 211.338644 136.820723 
L 211.558302 136.967704 
L 212.217276 136.607676 
L 212.436934 136.647917 
L 212.656592 136.478449 
L 213.095908 136.520444 
L 213.754883 136.660903 
L 213.974541 136.563257 
L 214.194199 136.627502 
L 214.413857 136.483123 
L 214.633515 136.520935 
L 214.853173 136.679985 
L 215.072831 135.922857 
L 215.292489 135.771019 
L 215.512147 135.233182 
L 215.731805 135.556244 
L 215.951463 135.085167 
L 216.171121 135.013961 
L 216.610437 135.053496 
L 217.269411 134.373967 
L 217.489069 134.088625 
L 217.708727 134.117278 
L 217.928385 133.581664 
L 218.148043 133.487357 
L 218.587359 133.742115 
L 218.807017 133.511954 
L 219.246333 133.508313 
L 219.465991 133.186653 
L 219.685649 133.413038 
L 219.905307 133.014713 
L 220.124965 133.242452 
L 220.783939 133.491054 
L 221.223255 132.899637 
L 221.662571 132.502983 
L 221.882229 132.121488 
L 222.101887 132.043935 
L 222.321545 131.805106 
L 222.760861 131.745792 
L 222.980519 131.415177 
L 223.200177 131.384235 
L 223.419835 130.781236 
L 223.639493 131.158356 
L 223.859151 130.947779 
L 224.737783 132.070601 
L 224.957441 131.875866 
L 225.177099 131.943828 
L 225.396757 131.781607 
L 225.616415 131.760109 
L 225.836073 131.402925 
L 226.275389 131.870332 
L 227.154021 130.978996 
L 227.373679 130.931373 
L 227.593337 131.234356 
L 228.252311 130.675613 
L 228.691628 130.873988 
L 228.911286 130.803281 
L 229.130944 130.914051 
L 229.789918 130.638363 
L 230.229234 130.722937 
L 230.448892 130.684823 
L 230.66855 130.840522 
L 230.888208 130.814482 
L 231.107866 130.939047 
L 231.76684 130.467567 
L 231.986498 130.424922 
L 232.425814 130.587356 
L 232.86513 130.359348 
L 233.084788 130.425353 
L 233.304446 130.14341 
L 233.743762 130.309168 
L 233.96342 130.552964 
L 234.183078 130.56162 
L 234.402736 130.344702 
L 234.842052 130.247482 
L 235.281368 129.80675 
L 235.720684 130.071194 
L 236.16 129.734884 
L 236.379658 129.725504 
L 236.599316 129.511102 
L 236.818974 128.896903 
L 237.038632 129.016442 
L 237.25829 128.577555 
L 237.697606 129.25066 
L 237.917264 129.17269 
L 238.136922 129.239773 
L 238.576238 129.112461 
L 239.235212 128.959914 
L 239.45487 128.921799 
L 239.674528 129.000952 
L 240.113844 128.644211 
L 240.772818 128.150103 
L 240.992476 128.311692 
L 241.212134 127.68746 
L 241.431792 127.478017 
L 241.65145 127.816612 
L 242.310424 126.882852 
L 242.530082 127.197379 
L 242.74974 126.916472 
L 242.969398 127.11599 
L 243.848031 127.06602 
L 244.067689 126.912644 
L 244.287347 126.968413 
L 244.507005 126.625034 
L 244.726663 126.542832 
L 244.946321 126.646706 
L 245.385637 126.164898 
L 245.605295 126.231467 
L 245.824953 126.472461 
L 246.483927 126.155017 
L 246.923243 126.538691 
L 247.362559 126.24507 
L 247.801875 126.302032 
L 248.460849 125.866446 
L 248.680507 125.98756 
L 248.900165 125.882755 
L 249.339481 125.448282 
L 249.559139 125.612037 
L 249.778797 125.279183 
L 249.998455 125.492895 
L 250.437771 125.424944 
L 250.657429 125.356488 
L 250.877087 125.432167 
L 251.096745 125.253772 
L 251.316403 125.233891 
L 251.755719 124.997105 
L 252.195035 125.270271 
L 252.634351 124.753176 
L 252.854009 124.251009 
L 253.293325 124.720527 
L 253.952299 123.987605 
L 254.171957 124.307466 
L 254.391615 124.145482 
L 254.611273 124.181114 
L 255.270247 123.719101 
L 255.709563 123.514076 
L 256.148879 123.16377 
L 256.588195 123.327565 
L 257.247169 123.145657 
L 257.906143 122.968506 
L 258.345459 122.773387 
L 258.565117 122.42386 
L 258.784775 122.688525 
L 259.224092 122.778345 
L 259.663408 122.774847 
L 260.102724 122.713225 
L 260.54204 122.699276 
L 260.761698 122.762393 
L 261.420672 122.369764 
L 261.64033 122.528919 
L 262.079646 122.498013 
L 262.73862 122.067898 
L 262.958278 121.626739 
L 263.177936 121.972862 
L 264.056568 122.175139 
L 264.495884 121.82829 
L 264.715542 121.788417 
L 265.154858 121.464003 
L 265.374516 121.551301 
L 265.594174 121.312715 
L 266.03349 121.2653 
L 266.253148 121.118675 
L 267.13178 121.391336 
L 267.351438 121.371724 
L 267.790754 120.850201 
L 268.23007 120.943951 
L 268.449728 121.11107 
L 268.889044 121.048227 
L 269.108702 120.830933 
L 269.32836 120.97717 
L 269.548018 120.953726 
L 269.987334 120.701158 
L 270.42665 120.659842 
L 271.744598 119.766769 
L 271.964256 119.921973 
L 272.403572 119.590415 
L 272.62323 119.184224 
L 272.842888 119.077911 
L 273.282204 119.390895 
L 273.72152 119.022811 
L 273.941178 118.430137 
L 274.160837 118.361825 
L 274.380495 118.11323 
L 274.600153 118.305278 
L 274.819811 117.991731 
L 275.478785 118.441701 
L 275.698443 118.313741 
L 276.137759 117.854526 
L 276.357417 117.853813 
L 276.577075 118.071654 
L 277.455707 118.045615 
L 278.553997 117.766097 
L 278.773655 118.114975 
L 279.212971 117.875212 
L 280.311261 117.632944 
L 280.530919 117.491616 
L 280.750577 117.216637 
L 280.970235 117.148779 
L 281.189893 117.210904 
L 281.409551 117.061913 
L 281.629209 117.092743 
L 281.848867 116.920663 
L 282.068525 116.967019 
L 282.727499 116.818765 
L 282.947157 116.763436 
L 283.166815 116.139705 
L 283.386473 116.381959 
L 283.825789 115.432122 
L 284.045447 115.693234 
L 284.265105 115.370121 
L 284.484763 115.538374 
L 284.704421 115.876656 
L 284.924079 115.785219 
L 285.143737 115.435631 
L 285.363395 115.545634 
L 285.802711 114.867404 
L 286.022369 115.191777 
L 286.681343 114.223663 
L 286.901001 114.6067 
L 287.120659 114.739466 
L 287.559975 115.321823 
L 287.779633 115.138844 
L 287.999291 115.121225 
L 288.438607 114.829017 
L 288.658265 114.869752 
L 288.877923 114.784936 
L 289.097581 114.119006 
L 289.31724 114.120608 
L 289.536898 113.800319 
L 289.756556 113.701066 
L 289.976214 113.966345 
L 290.195872 113.954892 
L 290.41553 113.433601 
L 290.635188 113.475099 
L 290.854846 112.961793 
L 291.294162 112.606235 
L 291.51382 112.051118 
L 291.733478 112.08784 
L 292.172794 111.533437 
L 292.392452 111.350478 
L 292.61211 111.890977 
L 293.051426 112.198226 
L 293.271084 112.133177 
L 293.490742 111.43464 
L 293.7104 111.401272 
L 293.930058 111.158853 
L 294.149716 111.206434 
L 294.369374 111.375985 
L 295.028348 109.993163 
L 295.248006 110.207812 
L 295.467664 109.982319 
L 295.90698 109.011081 
L 296.126638 108.700513 
L 296.346296 108.11423 
L 296.565954 108.274138 
L 296.785612 108.574256 
L 297.00527 108.292448 
L 297.224928 107.798522 
L 297.444586 108.158462 
L 297.664244 107.942699 
L 297.883902 107.534204 
L 298.10356 106.656773 
L 298.323218 106.423126 
L 298.542876 106.945053 
L 298.762534 106.74104 
L 299.20185 105.966904 
L 299.641166 106.498508 
L 299.860824 106.525487 
L 300.080482 106.691554 
L 300.30014 106.44684 
L 300.519798 106.505495 
L 300.739456 106.094075 
L 300.959114 106.235703 
L 301.178772 106.039572 
L 301.39843 106.002485 
L 301.618088 106.203481 
L 302.277062 105.144717 
L 302.49672 105.127614 
L 302.936036 104.245589 
L 303.155694 104.320669 
L 303.375352 104.163417 
L 303.59501 103.584003 
L 303.814668 103.411673 
L 304.034326 103.57168 
L 304.253984 103.069754 
L 304.473643 102.955467 
L 304.693301 103.122498 
L 305.132617 102.419328 
L 305.352275 101.763895 
L 305.571933 101.777668 
L 305.791591 101.078485 
L 306.011249 101.103891 
L 306.230907 101.470924 
L 306.450565 100.621517 
L 306.889881 100.665781 
L 307.109539 101.204991 
L 307.329197 100.18411 
L 307.548855 99.794037 
L 307.768513 99.063283 
L 307.988171 99.067178 
L 308.207829 98.669543 
L 308.427487 98.633025 
L 308.647145 99.045835 
L 308.866803 98.859027 
L 309.086461 99.247112 
L 309.306119 98.204489 
L 309.525777 97.915194 
L 309.745435 97.908998 
L 309.965093 98.101478 
L 310.184751 97.740535 
L 310.404409 97.727136 
L 310.843725 98.238576 
L 311.283041 97.370281 
L 311.502699 97.687484 
L 311.722357 97.237179 
L 311.942015 97.112525 
L 312.161673 97.151436 
L 312.381331 96.751207 
L 312.820647 95.345268 
L 313.040305 94.39241 
L 313.259963 94.115188 
L 313.479621 94.291815 
L 313.699279 93.487342 
L 313.918937 93.466385 
L 314.138595 93.928814 
L 314.358253 93.794621 
L 314.577911 93.897628 
L 314.797569 94.446865 
L 315.017227 94.176417 
L 315.236885 93.566484 
L 315.676201 93.13632 
L 316.115517 93.135631 
L 316.554833 93.165463 
L 316.994149 92.66538 
L 317.213807 92.255979 
L 317.653123 92.038924 
L 317.872781 92.232253 
L 318.092439 91.848123 
L 318.312097 92.596017 
L 318.531755 92.529128 
L 318.751413 92.589147 
L 318.971071 92.231173 
L 319.190729 92.171391 
L 319.410388 91.862525 
L 319.630046 92.308382 
L 320.069362 92.590805 
L 320.508678 92.101365 
L 320.728336 92.292883 
L 321.606968 91.40539 
L 321.826626 91.735854 
L 322.046284 91.442896 
L 322.265942 91.719614 
L 322.705258 91.448998 
L 322.924916 91.192466 
L 323.144574 91.10721 
L 323.803548 89.816784 
L 324.023206 89.745847 
L 324.242864 89.996177 
L 324.462522 89.118325 
L 325.121496 88.180614 
L 325.341154 88.082499 
L 325.78047 87.673659 
L 326.000128 87.872081 
L 326.219786 87.730499 
L 326.659102 88.124025 
L 326.87876 87.150123 
L 327.098418 87.054714 
L 327.537734 86.166932 
L 327.757392 86.156304 
L 328.196708 85.218514 
L 328.416366 84.950586 
L 328.636024 84.507193 
L 329.07534 84.198322 
L 329.294998 84.570291 
L 329.734314 83.763246 
L 330.17363 84.703861 
L 330.393288 84.718394 
L 330.612946 84.585951 
L 330.832604 83.940821 
L 331.052262 83.925304 
L 331.491578 83.601687 
L 331.711236 84.13703 
L 331.930894 83.571861 
L 332.150552 83.874228 
L 332.37021 83.862627 
L 332.809526 83.255415 
L 333.029184 83.505765 
L 333.4685 83.606893 
L 333.907816 83.020725 
L 334.127474 83.281372 
L 334.566791 82.603375 
L 335.006107 81.475745 
L 335.225765 81.568534 
L 335.665081 81.383355 
L 335.884739 80.724948 
L 336.104397 81.692515 
L 336.324055 81.564394 
L 336.543713 81.187522 
L 336.763371 81.064357 
L 337.422345 80.384444 
L 338.300977 79.495593 
L 338.740293 78.807242 
L 338.959951 79.29137 
L 339.618925 77.672719 
L 339.838583 77.10674 
L 340.277899 76.983269 
L 340.497557 76.552737 
L 340.936873 76.818184 
L 341.156531 76.544179 
L 341.595847 75.661983 
L 341.815505 75.179547 
L 342.254821 75.307007 
L 342.474479 74.631984 
L 342.694137 74.738267 
L 342.913795 74.559252 
L 343.133453 74.195512 
L 343.353111 74.570036 
L 343.792427 74.077924 
L 344.012085 74.059115 
L 344.231743 73.667399 
L 344.451401 74.05484 
L 344.890717 73.712841 
L 345.110375 73.959213 
L 345.549691 73.299969 
L 345.769349 73.207887 
L 346.208665 72.514701 
L 346.647981 72.692398 
L 347.526613 71.99979 
L 347.746271 71.584374 
L 347.965929 71.732684 
L 348.185587 71.720296 
L 348.405245 71.85926 
L 348.844561 71.062572 
L 349.064219 71.251712 
L 349.503535 70.467548 
L 349.723194 70.478871 
L 349.942852 70.618596 
L 350.382168 70.461394 
L 350.601826 70.021514 
L 350.821484 69.88948 
L 351.041142 69.400949 
L 351.2608 69.272247 
L 351.480458 69.321148 
L 351.700116 69.013601 
L 351.919774 69.211479 
L 352.35909 68.900681 
L 353.018064 68.907567 
L 353.237722 68.564408 
L 353.45738 68.565745 
L 353.896696 67.825027 
L 354.116354 67.727045 
L 354.336012 67.969695 
L 354.55567 67.644409 
L 354.775328 67.832104 
L 354.994986 67.45749 
L 355.214644 67.49045 
L 355.434302 67.705322 
L 355.65396 67.230051 
L 356.093276 67.28451 
L 356.532592 66.987877 
L 356.75225 67.207564 
L 356.971908 67.139021 
L 357.191566 67.363187 
L 357.411224 67.25914 
L 357.630882 66.880919 
L 358.729172 66.393327 
L 358.94883 66.58088 
L 360.266778 65.78079 
L 360.486436 65.731952 
L 360.706094 65.300754 
L 360.925752 65.176543 
L 361.14541 65.586484 
L 361.365068 65.608791 
L 362.2437 64.618923 
L 362.463358 65.010453 
L 363.122332 64.727257 
L 363.34199 64.787568 
L 364.000964 64.304 
L 364.220622 64.617115 
L 364.44028 64.69361 
L 364.879597 64.543529 
L 365.318913 63.953933 
L 365.758229 64.482884 
L 366.197545 64.259965 
L 366.636861 64.57185 
L 366.856519 64.357325 
L 367.954809 64.24478 
L 368.613783 64.23801 
L 369.272757 63.610763 
L 369.492415 63.609729 
L 369.931731 63.106995 
L 370.151389 63.266461 
L 370.371047 63.197516 
L 370.590705 63.281509 
L 370.810363 63.512558 
L 371.908653 63.062679 
L 372.567627 63.36962 
L 372.787285 63.218282 
L 373.446259 63.245749 
L 373.885575 62.985141 
L 374.105233 63.050001 
L 374.983865 62.850057 
L 375.203523 62.804118 
L 375.423181 62.614021 
L 375.642839 62.20772 
L 375.862497 62.151083 
L 376.082155 61.939283 
L 376.301813 62.073852 
L 376.741129 61.713158 
L 377.400103 61.755697 
L 377.839419 61.203232 
L 378.278735 60.929797 
L 378.498393 61.047853 
L 378.718051 60.857432 
L 378.937709 61.21328 
L 379.157367 60.860523 
L 379.596683 61.028621 
L 379.816341 61.258604 
L 380.036 61.246738 
L 380.255658 61.102271 
L 380.475316 61.107272 
L 380.914632 60.599051 
L 381.353948 60.516306 
L 381.573606 60.657039 
L 381.793264 60.433017 
L 382.23258 60.45797 
L 382.452238 60.039354 
L 383.111212 59.656002 
L 383.33087 59.206194 
L 383.770186 59.019301 
L 383.989844 58.664843 
L 384.868476 58.451044 
L 385.088134 58.039506 
L 385.966766 58.244387 
L 386.406082 58.135543 
L 386.845398 57.723366 
L 387.065056 57.837979 
L 387.284714 57.752636 
L 387.943688 56.590266 
L 388.163346 56.510132 
L 388.383004 56.633908 
L 389.041978 55.579265 
L 389.261636 55.719898 
L 389.700952 55.836191 
L 389.92061 56.058728 
L 390.140268 56.045696 
L 391.0189 55.15674 
L 391.238558 55.381413 
L 391.458216 55.179544 
L 391.677874 55.447744 
L 392.776164 54.590461 
L 392.995822 54.591046 
L 393.874454 54.118192 
L 394.094112 54.092328 
L 394.31377 54.184816 
L 394.753086 53.792694 
L 394.972744 53.71622 
L 395.192403 53.865149 
L 395.851377 53.92053 
L 396.071035 54.266393 
L 396.730009 53.990059 
L 396.949667 54.039628 
L 397.169325 53.568 
L 397.388983 53.975108 
L 398.267615 53.979875 
L 398.487273 53.770952 
L 398.487273 53.770952 
" clip-path="url(#p2daaa61081)" style="fill: none; stroke: #ff7f0e; stroke-opacity: 0.7; stroke-width: 1.5; stroke-linecap: square"/>
   </g>
   <g id="line2d_16">
    <path d="M 73.832727 174.912485 
L 74.052385 175.096699 
L 74.491701 174.976348 
L 74.931017 174.90096 
L 75.370333 175.356157 
L 76.029307 174.846884 
L 76.907939 175.256599 
L 77.127597 175.316733 
L 77.347256 175.551873 
L 78.445546 175.37394 
L 78.665204 175.216099 
L 79.10452 175.318082 
L 79.543836 174.757116 
L 79.763494 175.140735 
L 79.983152 174.932754 
L 80.20281 174.974109 
L 80.422468 175.258942 
L 80.642126 174.979153 
L 81.3011 175.502391 
L 81.520758 175.21052 
L 81.740416 175.26121 
L 81.960074 175.543025 
L 82.179732 175.439144 
L 82.39939 175.542883 
L 82.619048 175.433049 
L 83.278022 175.567042 
L 83.717338 175.258733 
L 83.936996 175.234391 
L 84.156654 174.954998 
L 84.815628 175.008992 
L 85.035286 174.777382 
L 85.254944 174.787271 
L 85.69426 174.695198 
L 85.913918 174.93852 
L 86.353234 174.930121 
L 86.79255 175.204068 
L 87.231866 175.243987 
L 87.451524 175.116845 
L 87.89084 175.122312 
L 88.549814 175.087849 
L 88.98913 175.026935 
L 89.428446 174.786163 
L 89.648104 174.983989 
L 89.867762 174.83768 
L 90.307078 175.015305 
L 91.18571 175.090091 
L 91.625026 175.130326 
L 92.064342 175.076028 
L 92.503659 174.998094 
L 93.162633 174.809359 
L 93.382291 174.832109 
L 93.601949 174.650267 
L 93.821607 174.734656 
L 94.041265 174.642308 
L 94.480581 174.799025 
L 94.700239 174.864097 
L 94.919897 174.812403 
L 95.798529 175.195073 
L 96.018187 175.068697 
L 96.457503 175.197139 
L 96.896819 175.184075 
L 97.555793 175.131896 
L 97.995109 175.221059 
L 98.214767 175.328159 
L 98.873741 175.057226 
L 99.532715 175.225628 
L 100.191689 175.382349 
L 100.850663 175.309688 
L 101.070321 175.266178 
L 101.289979 175.386775 
L 101.509637 175.290465 
L 101.948953 175.487506 
L 102.607927 175.551003 
L 102.827585 175.493973 
L 103.706217 175.664402 
L 104.145533 175.558525 
L 105.683139 175.463494 
L 106.122455 175.489384 
L 106.342113 175.378077 
L 107.001087 175.593275 
L 107.440403 175.501952 
L 108.319036 175.351169 
L 108.758352 175.38388 
L 109.197668 175.247146 
L 109.636984 175.144089 
L 109.856642 175.10652 
L 110.295958 174.350276 
L 110.515616 174.593997 
L 110.735274 174.558436 
L 110.954932 174.888919 
L 111.17459 174.90165 
L 111.394248 174.708255 
L 111.833564 174.774056 
L 112.053222 174.747319 
L 112.27288 174.385039 
L 112.492538 174.731528 
L 112.712196 174.569133 
L 112.931854 174.58245 
L 113.37117 175.057831 
L 113.590828 175.208535 
L 113.810486 175.111709 
L 114.249802 175.286032 
L 114.46946 175.639513 
L 114.908776 175.360899 
L 115.128434 175.05469 
L 115.56775 174.992639 
L 115.787408 175.191376 
L 116.007066 175.223823 
L 116.446382 174.749632 
L 116.66604 174.864405 
L 116.885698 174.797158 
L 117.544672 175.422242 
L 117.983988 175.514076 
L 118.203646 175.651374 
L 118.423304 175.128297 
L 118.642962 175.133336 
L 118.86262 174.791693 
L 119.741252 175.003052 
L 120.180568 174.493498 
L 120.400226 174.596255 
L 121.0592 174.256505 
L 121.278858 174.026534 
L 121.498516 174.733191 
L 121.718174 175.014548 
L 122.15749 175.161181 
L 122.377148 175.187794 
L 122.596806 174.879493 
L 122.816465 175.375422 
L 123.695097 175.697816 
L 124.354071 175.799144 
L 124.793387 176.000786 
L 125.013045 176.165832 
L 125.232703 175.891197 
L 125.672019 175.983241 
L 125.891677 176.152444 
L 126.111335 175.990754 
L 126.330993 176.027314 
L 126.770309 176.320313 
L 127.209625 176.315744 
L 127.429283 176.381416 
L 128.307915 176.056286 
L 128.527573 176.250437 
L 128.966889 176.100447 
L 129.186547 176.199505 
L 129.845521 176.085649 
L 130.284837 176.179123 
L 131.822443 176.163758 
L 132.042101 176.064702 
L 132.920733 176.296825 
L 133.140391 176.228696 
L 133.579707 176.244535 
L 134.238681 176.326688 
L 134.458339 176.001831 
L 135.336971 176.076694 
L 136.215603 176.36751 
L 137.533551 176.308167 
L 137.753209 176.458534 
L 138.8515 176.440921 
L 139.071158 176.545723 
L 139.510474 176.357348 
L 139.94979 176.323337 
L 141.04808 176.037242 
L 141.267738 175.774734 
L 141.926712 175.868143 
L 142.14637 175.47202 
L 142.805344 175.855576 
L 143.24466 175.591681 
L 143.464318 175.673843 
L 144.562608 175.194542 
L 144.782266 175.227589 
L 145.001924 174.989381 
L 145.221582 174.941359 
L 145.44124 175.237597 
L 146.319872 175.627764 
L 146.759188 175.534113 
L 146.978846 175.634314 
L 147.418162 175.649489 
L 148.077136 175.824369 
L 148.516452 175.705066 
L 148.955768 175.500696 
L 150.273716 175.740633 
L 150.713032 175.65113 
L 151.372006 175.749859 
L 151.811322 175.651577 
L 152.03098 175.500758 
L 152.250638 175.548903 
L 152.470296 175.405747 
L 153.129271 175.608227 
L 153.348929 175.52114 
L 153.568587 175.611681 
L 154.007903 175.467484 
L 154.666877 174.981099 
L 154.886535 174.526803 
L 155.106193 174.753524 
L 155.325851 174.706868 
L 155.545509 174.999895 
L 155.984825 174.669862 
L 156.204483 174.889016 
L 156.424141 174.372635 
L 156.643799 174.407082 
L 157.083115 174.784073 
L 157.302773 174.582699 
L 157.742089 174.642285 
L 157.961747 174.245414 
L 158.840379 174.729888 
L 159.499353 174.786801 
L 159.719011 174.888918 
L 160.377985 174.705914 
L 160.817301 174.717941 
L 161.476275 174.470411 
L 161.915591 174.403738 
L 162.135249 174.255149 
L 162.354907 174.294148 
L 162.574565 174.154115 
L 162.794223 174.262565 
L 163.233539 174.172195 
L 163.453197 174.280882 
L 163.892513 173.86238 
L 164.551487 174.069703 
L 164.771145 173.820739 
L 165.430119 174.162721 
L 165.649777 174.055331 
L 165.869435 174.156546 
L 166.528409 173.945232 
L 166.748067 174.016424 
L 167.187383 173.844481 
L 168.72499 174.037526 
L 169.164306 174.114774 
L 170.262596 174.250271 
L 170.701912 174.215837 
L 171.141228 174.320909 
L 172.239518 174.333527 
L 172.898492 174.352549 
L 173.337808 174.088124 
L 173.996782 174.364264 
L 174.436098 174.296125 
L 174.655756 174.331214 
L 174.875414 174.487463 
L 175.754046 174.47004 
L 176.41302 174.611435 
L 176.632678 174.576221 
L 177.071994 174.673052 
L 177.291652 174.563093 
L 178.170284 174.619634 
L 178.389942 174.529581 
L 178.829258 174.701322 
L 179.048916 174.641019 
L 179.268574 174.737176 
L 179.70789 174.728173 
L 180.147206 174.964428 
L 181.025838 174.755988 
L 181.245496 174.494694 
L 181.465154 174.694747 
L 181.90447 174.762522 
L 182.124128 174.43679 
L 183.00276 175.11842 
L 183.222419 174.971408 
L 183.881393 175.261878 
L 184.979683 175.105163 
L 185.199341 174.969806 
L 185.638657 173.952182 
L 185.858315 173.939324 
L 186.077973 173.279186 
L 186.297631 173.247847 
L 186.517289 174.002588 
L 186.736947 173.544226 
L 186.956605 174.150683 
L 187.176263 173.576221 
L 187.395921 173.383634 
L 187.615579 172.290739 
L 187.835237 173.127589 
L 188.054895 172.451932 
L 188.274553 171.176462 
L 188.494211 172.603582 
L 188.713869 170.982237 
L 188.933527 171.961438 
L 189.153185 171.541763 
L 189.372843 171.86869 
L 189.592501 171.586879 
L 189.812159 171.540511 
L 190.031817 172.821904 
L 190.251475 172.874462 
L 190.471133 173.644773 
L 190.690791 173.013588 
L 190.910449 173.52157 
L 191.130107 173.325238 
L 191.349765 172.897026 
L 191.569423 173.22227 
L 191.789081 172.764285 
L 192.008739 173.615271 
L 192.228397 173.25159 
L 192.448055 173.502502 
L 192.887371 173.451284 
L 193.107029 173.801099 
L 193.326687 173.226151 
L 193.546345 173.350167 
L 193.766003 173.654166 
L 193.985661 173.385232 
L 194.205319 172.773553 
L 194.424977 173.210914 
L 194.864293 173.267374 
L 195.303609 172.988308 
L 195.523267 173.479524 
L 195.742925 173.266109 
L 195.962583 172.752577 
L 196.182241 173.02777 
L 196.401899 173.091143 
L 196.621557 172.879841 
L 197.060873 173.179519 
L 197.280531 173.048954 
L 197.500189 172.572187 
L 197.939505 172.273295 
L 198.159163 172.320474 
L 198.378822 172.577864 
L 198.59848 172.601269 
L 198.818138 172.795593 
L 199.037796 172.734745 
L 199.257454 172.821917 
L 199.69677 173.472829 
L 199.916428 173.34405 
L 200.355744 173.352022 
L 200.575402 173.339058 
L 200.79506 173.54549 
L 201.014718 173.414294 
L 201.234376 173.996849 
L 201.454034 173.935457 
L 201.89335 173.454411 
L 202.113008 172.351549 
L 202.771982 172.928965 
L 202.99164 172.743228 
L 203.430956 172.670822 
L 203.870272 173.068195 
L 204.08993 172.621507 
L 204.309588 172.7337 
L 204.529246 172.447759 
L 204.968562 173.202479 
L 205.407878 173.312652 
L 205.627536 173.746247 
L 205.847194 173.500842 
L 206.066852 173.555785 
L 206.28651 173.331166 
L 206.506168 173.49072 
L 206.725826 173.182273 
L 207.165142 173.27546 
L 208.263432 172.955769 
L 208.702748 172.421842 
L 208.922406 172.481682 
L 209.142064 172.426289 
L 209.361722 172.639242 
L 209.58138 172.506283 
L 210.460012 173.018772 
L 211.118986 173.065881 
L 211.338644 172.980998 
L 211.558302 173.207488 
L 211.997618 172.922423 
L 212.217276 172.862223 
L 212.656592 172.941018 
L 213.095908 173.155133 
L 213.315566 173.353252 
L 213.535225 173.308276 
L 213.754883 173.544082 
L 213.974541 173.554738 
L 214.194199 173.678567 
L 214.413857 173.635569 
L 214.853173 173.910299 
L 215.072831 173.279743 
L 215.292489 173.120721 
L 215.512147 172.635101 
L 215.731805 173.02834 
L 215.951463 172.706287 
L 216.171121 172.721201 
L 216.610437 173.119057 
L 216.830095 173.07468 
L 217.269411 172.737326 
L 217.489069 172.661785 
L 217.708727 172.830304 
L 217.928385 172.432475 
L 218.148043 172.433581 
L 218.587359 173.112293 
L 218.807017 173.040461 
L 219.026675 173.227718 
L 219.246333 173.263736 
L 219.465991 173.13359 
L 219.685649 173.453453 
L 219.905307 173.15468 
L 220.344623 173.55556 
L 220.564281 173.548151 
L 220.783939 173.714593 
L 221.223255 173.392688 
L 221.662571 173.32435 
L 221.882229 173.034916 
L 222.760861 173.292643 
L 222.980519 173.024039 
L 223.200177 173.093795 
L 223.419835 172.533801 
L 223.639493 172.961423 
L 223.859151 172.815806 
L 224.737783 174.229044 
L 224.957441 174.208662 
L 225.177099 174.371363 
L 225.396757 174.32388 
L 225.616415 174.398454 
L 225.836073 174.067767 
L 226.275389 174.445699 
L 227.154021 173.646173 
L 227.373679 173.625283 
L 227.593337 173.891978 
L 228.032653 173.712072 
L 228.252311 173.522802 
L 228.471969 173.800679 
L 229.130944 173.901771 
L 230.448892 173.810573 
L 230.66855 174.084709 
L 231.327524 174.196334 
L 231.76684 174.058387 
L 232.206156 174.18604 
L 232.425814 174.313163 
L 232.86513 174.248024 
L 233.084788 174.380808 
L 233.304446 174.087383 
L 233.743762 174.231399 
L 233.96342 174.508272 
L 234.183078 174.588011 
L 234.402736 174.44547 
L 234.842052 174.536566 
L 235.281368 174.217994 
L 235.940342 174.664743 
L 236.16 174.593441 
L 236.379658 174.690266 
L 236.599316 174.583414 
L 236.818974 174.018312 
L 237.038632 174.243243 
L 237.25829 173.896056 
L 237.697606 174.742176 
L 238.35658 174.859796 
L 238.795896 175.033608 
L 239.894186 175.049474 
L 240.772818 174.770253 
L 240.992476 175.018298 
L 241.212134 174.472309 
L 241.431792 174.413021 
L 241.65145 174.877047 
L 242.310424 174.156536 
L 242.530082 174.585484 
L 242.74974 174.445583 
L 243.189056 174.868451 
L 243.408714 175.056244 
L 243.628372 175.068644 
L 243.848031 175.208514 
L 244.067689 175.035054 
L 244.287347 175.032899 
L 244.507005 174.658649 
L 244.726663 174.524991 
L 244.946321 174.686983 
L 245.385637 174.281562 
L 245.605295 174.31115 
L 245.824953 174.580058 
L 246.483927 174.34903 
L 246.923243 174.727907 
L 247.582217 174.707848 
L 247.801875 174.812294 
L 248.460849 174.68901 
L 248.680507 174.857665 
L 248.900165 174.866998 
L 249.339481 174.611536 
L 249.559139 174.847679 
L 249.778797 174.64544 
L 249.998455 174.89361 
L 250.657429 174.850001 
L 250.877087 174.999806 
L 251.536061 174.74206 
L 251.755719 174.733795 
L 252.195035 175.06592 
L 252.634351 174.674131 
L 252.854009 174.274403 
L 253.293325 174.829621 
L 253.512983 174.737303 
L 253.952299 174.432121 
L 254.171957 174.722404 
L 254.391615 174.566691 
L 254.611273 174.6696 
L 255.709563 174.372313 
L 257.906143 174.187779 
L 258.565117 173.642461 
L 258.784775 173.955377 
L 259.224092 174.049618 
L 259.663408 174.155233 
L 260.54204 174.228134 
L 260.761698 174.356618 
L 260.981356 174.289332 
L 261.201014 174.344078 
L 261.420672 174.198471 
L 261.64033 174.437671 
L 262.299304 174.50582 
L 262.73862 174.297434 
L 262.958278 173.970751 
L 263.397594 174.537517 
L 264.056568 174.845589 
L 264.495884 174.730866 
L 264.715542 174.830352 
L 265.154858 174.612925 
L 265.374516 174.782478 
L 265.594174 174.582852 
L 267.351438 175.007224 
L 267.790754 174.668168 
L 268.23007 174.942196 
L 268.449728 175.185215 
L 268.889044 175.196215 
L 269.108702 175.000478 
L 269.548018 175.344793 
L 269.987334 175.314962 
L 270.42665 175.319564 
L 271.744598 174.744608 
L 271.964256 174.942939 
L 272.183914 174.915706 
L 272.842888 174.38401 
L 273.282204 174.89401 
L 273.72152 174.757952 
L 273.941178 174.27077 
L 274.160837 174.335624 
L 274.380495 174.154943 
L 274.600153 174.438756 
L 274.819811 174.205727 
L 275.478785 174.877059 
L 275.698443 174.815344 
L 276.137759 174.494606 
L 276.357417 174.548043 
L 276.796733 175.061069 
L 277.016391 175.060997 
L 277.455707 175.259139 
L 278.553997 175.135721 
L 278.773655 175.354886 
L 278.993313 175.205688 
L 279.432629 175.288999 
L 279.871945 175.420658 
L 280.311261 175.478646 
L 280.970235 175.208664 
L 281.189893 175.370925 
L 281.848867 175.357366 
L 282.288183 175.387228 
L 282.507841 175.329313 
L 282.947157 175.418901 
L 283.166815 174.90392 
L 283.386473 175.232263 
L 283.825789 174.514506 
L 284.045447 174.901687 
L 284.265105 174.702585 
L 284.924079 175.544957 
L 285.143737 175.276632 
L 285.363395 175.448246 
L 285.802711 174.825329 
L 286.022369 175.167975 
L 286.681343 174.29401 
L 287.120659 175.005898 
L 287.559975 175.407899 
L 288.218949 175.055184 
L 288.438607 174.962585 
L 288.877923 175.03371 
L 289.097581 174.350645 
L 289.31724 174.334754 
L 289.536898 174.12106 
L 289.756556 174.121768 
L 289.976214 174.412077 
L 290.195872 174.512592 
L 290.41553 174.128784 
L 290.635188 174.214838 
L 290.854846 173.810753 
L 291.294162 173.513146 
L 291.51382 173.097731 
L 291.733478 173.2621 
L 291.953136 173.041979 
L 292.392452 172.980373 
L 292.831768 173.92527 
L 293.271084 174.25058 
L 293.490742 173.620162 
L 293.7104 173.727206 
L 293.930058 173.632739 
L 294.369374 174.038671 
L 294.80869 173.185831 
L 295.028348 173.102957 
L 295.248006 173.488213 
L 295.467664 173.435008 
L 295.687322 172.926623 
L 295.90698 172.844989 
L 296.126638 172.641148 
L 296.346296 172.269133 
L 296.785612 173.137912 
L 297.00527 172.955799 
L 297.224928 172.587894 
L 297.444586 173.088374 
L 297.883902 172.709125 
L 298.10356 172.085929 
L 298.323218 172.009736 
L 298.542876 172.666566 
L 298.762534 172.619831 
L 298.982192 172.246684 
L 299.20185 172.144387 
L 299.641166 172.948656 
L 300.080482 173.496573 
L 300.30014 173.394221 
L 300.519798 173.623677 
L 300.739456 173.367552 
L 300.959114 173.64052 
L 301.178772 173.63832 
L 301.618088 174.076261 
L 302.277062 173.380674 
L 302.49672 173.520711 
L 302.936036 172.958866 
L 303.375352 173.122435 
L 303.59501 172.748347 
L 303.814668 172.715385 
L 304.034326 172.970011 
L 304.253984 172.666768 
L 304.473643 172.696508 
L 304.693301 172.975995 
L 304.912959 172.857697 
L 305.132617 172.559873 
L 305.352275 172.073888 
L 305.571933 172.311336 
L 305.791591 171.76411 
L 306.011249 171.896398 
L 306.230907 172.449749 
L 306.450565 171.575424 
L 306.889881 171.913545 
L 307.109539 172.601013 
L 307.329197 171.691469 
L 307.548855 171.537869 
L 307.768513 170.86792 
L 307.988171 171.029845 
L 308.207829 170.725726 
L 308.427487 170.636937 
L 308.647145 171.167142 
L 308.866803 171.040105 
L 309.086461 171.524018 
L 309.306119 170.701604 
L 309.745435 170.607888 
L 309.965093 171.07137 
L 310.184751 170.909319 
L 310.843725 171.96626 
L 311.283041 171.567932 
L 311.502699 171.940595 
L 311.722357 171.598034 
L 311.942015 171.574981 
L 312.161673 171.759477 
L 312.600989 170.916219 
L 313.040305 169.632428 
L 313.259963 169.685221 
L 313.479621 169.910024 
L 313.699279 169.297276 
L 313.918937 169.452811 
L 314.138595 170.010987 
L 314.358253 169.964189 
L 314.577911 170.166711 
L 314.797569 170.639705 
L 315.017227 170.42783 
L 315.236885 169.800451 
L 316.115517 169.947447 
L 316.554833 170.457346 
L 316.994149 170.184168 
L 317.433465 169.778333 
L 317.653123 169.659159 
L 317.872781 169.988844 
L 318.092439 169.784173 
L 318.312097 170.447942 
L 318.531755 170.385267 
L 318.751413 170.567345 
L 318.971071 170.241878 
L 319.190729 170.24003 
L 319.410388 170.076661 
L 319.849704 171.031491 
L 320.069362 171.237578 
L 320.508678 170.974417 
L 320.728336 171.240414 
L 321.38731 171.024417 
L 321.606968 170.950179 
L 321.826626 171.411917 
L 322.046284 171.327761 
L 322.265942 171.718702 
L 322.705258 171.764434 
L 322.924916 171.624968 
L 323.144574 171.629124 
L 323.364232 171.383068 
L 323.58389 170.949248 
L 323.803548 170.920417 
L 324.023206 171.021917 
L 324.242864 171.416921 
L 324.462522 170.617281 
L 325.121496 170.260714 
L 325.341154 170.378385 
L 325.78047 170.297566 
L 326.000128 170.747806 
L 326.219786 170.846145 
L 326.659102 171.43816 
L 326.87876 170.612814 
L 327.098418 170.756205 
L 327.318076 170.424765 
L 327.537734 170.295513 
L 327.757392 170.361683 
L 328.855682 169.408346 
L 329.07534 169.401526 
L 329.294998 169.883578 
L 329.514656 169.492157 
L 329.734314 169.330106 
L 330.17363 170.543881 
L 330.393288 170.60069 
L 330.612946 170.51592 
L 330.832604 170.004737 
L 331.27192 170.095507 
L 331.491578 170.116814 
L 331.711236 170.636833 
L 331.930894 170.169505 
L 332.150552 170.744456 
L 332.37021 170.996733 
L 332.809526 170.767691 
L 333.248842 171.484897 
L 333.4685 171.681575 
L 333.907816 171.438308 
L 334.127474 171.935965 
L 334.566791 171.587281 
L 334.786449 171.055453 
L 335.006107 170.839629 
L 335.445423 171.216142 
L 335.665081 171.352627 
L 335.884739 170.871337 
L 336.104397 171.918801 
L 336.324055 172.083973 
L 336.543713 171.755187 
L 336.763371 171.902774 
L 337.202687 171.70448 
L 337.422345 171.754947 
L 337.642003 171.678546 
L 337.861661 171.816646 
L 338.300977 171.810225 
L 338.520635 171.512864 
L 338.740293 171.491901 
L 338.959951 172.113665 
L 339.179609 172.012472 
L 339.399267 171.723629 
L 339.838583 170.886164 
L 340.058241 170.911618 
L 340.277899 171.086939 
L 340.497557 170.874083 
L 340.936873 171.342686 
L 341.156531 171.191078 
L 341.376189 170.733054 
L 341.815505 170.356818 
L 342.035163 170.489931 
L 342.254821 170.778174 
L 342.474479 170.374563 
L 342.694137 170.499865 
L 342.913795 170.445144 
L 343.133453 170.154512 
L 343.353111 170.587506 
L 343.792427 170.400632 
L 344.012085 170.527739 
L 344.231743 170.300076 
L 344.451401 170.763621 
L 344.671059 170.615811 
L 344.890717 170.711252 
L 345.110375 170.935274 
L 346.208665 170.24383 
L 346.647981 170.729592 
L 347.087297 170.517659 
L 347.306955 170.678046 
L 347.526613 170.671914 
L 347.746271 170.393844 
L 347.965929 170.674782 
L 348.405245 170.944305 
L 348.844561 170.418678 
L 349.064219 170.720257 
L 349.503535 170.275096 
L 350.382168 170.723358 
L 350.601826 170.390901 
L 350.821484 170.356971 
L 351.041142 169.950099 
L 351.2608 169.987006 
L 351.480458 170.148889 
L 351.700116 169.974173 
L 351.919774 170.179133 
L 352.35909 169.900943 
L 353.018064 170.381406 
L 353.237722 170.036693 
L 353.45738 170.107465 
L 353.896696 169.463177 
L 354.116354 169.466725 
L 354.336012 169.845442 
L 354.55567 169.637001 
L 354.775328 169.986308 
L 354.994986 169.726827 
L 355.434302 170.149291 
L 355.65396 169.75437 
L 356.093276 170.013907 
L 356.532592 170.023837 
L 356.75225 170.311021 
L 356.971908 170.382181 
L 357.191566 170.614351 
L 357.411224 170.601938 
L 357.630882 170.448248 
L 358.070198 170.474542 
L 358.509514 170.49219 
L 358.729172 170.347466 
L 358.94883 170.600897 
L 359.168488 170.581658 
L 359.607804 170.69666 
L 360.486436 170.691406 
L 360.706094 170.389579 
L 360.925752 170.425691 
L 361.14541 170.905315 
L 361.365068 171.016886 
L 362.2437 170.507391 
L 362.463358 170.966106 
L 363.781306 171.362182 
L 364.000964 171.235625 
L 364.44028 171.852605 
L 364.879597 171.866581 
L 365.318913 171.53285 
L 365.758229 172.093372 
L 366.417203 172.229612 
L 366.636861 172.485266 
L 367.295835 172.344955 
L 367.515493 172.505805 
L 367.735151 172.516251 
L 367.954809 172.789409 
L 368.613783 172.907859 
L 369.053099 172.611014 
L 369.492415 172.65061 
L 369.931731 172.285374 
L 370.151389 172.486227 
L 370.371047 172.402813 
L 370.590705 172.463421 
L 370.810363 172.67627 
L 371.688995 172.564945 
L 371.908653 172.651388 
L 372.567627 173.273592 
L 372.787285 173.267002 
L 373.226601 173.631934 
L 373.446259 173.642381 
L 373.665917 173.476618 
L 373.885575 173.494349 
L 374.324891 173.797751 
L 374.544549 173.854683 
L 374.764207 173.715789 
L 374.983865 173.959582 
L 375.423181 173.988806 
L 375.642839 173.770613 
L 375.862497 173.859673 
L 376.082155 173.806816 
L 376.301813 174.013438 
L 376.960787 173.978842 
L 377.400103 174.257332 
L 377.839419 173.998002 
L 378.059077 173.851371 
L 378.278735 173.895938 
L 378.498393 174.17768 
L 378.718051 174.151757 
L 378.937709 174.514155 
L 379.157367 174.192817 
L 380.036 174.974761 
L 380.694974 174.796673 
L 380.914632 174.557924 
L 381.353948 174.541334 
L 381.573606 174.669246 
L 381.793264 174.484765 
L 382.23258 174.597189 
L 382.452238 174.266053 
L 383.111212 173.807765 
L 383.33087 173.43958 
L 383.770186 173.503955 
L 383.989844 173.1822 
L 384.209502 173.220969 
L 384.42916 173.374413 
L 384.868476 173.282698 
L 385.088134 172.939494 
L 385.747108 173.397285 
L 386.62574 173.432369 
L 386.845398 173.323639 
L 387.065056 173.512702 
L 387.284714 173.489505 
L 387.943688 172.575593 
L 388.163346 172.570259 
L 388.383004 172.737673 
L 388.82232 172.153519 
L 389.041978 172.034228 
L 389.261636 172.292644 
L 389.700952 172.567574 
L 389.92061 172.906103 
L 390.140268 173.0049 
L 391.0189 172.551249 
L 391.238558 172.84028 
L 391.458216 172.707955 
L 391.677874 173.086439 
L 392.336848 172.921443 
L 392.556506 172.989368 
L 392.776164 172.860024 
L 392.995822 172.966036 
L 393.874454 172.840222 
L 394.31377 173.054269 
L 394.533428 172.842981 
L 394.972744 172.859191 
L 395.412061 173.195504 
L 395.851377 173.335076 
L 396.071035 173.697477 
L 396.730009 173.917948 
L 396.949667 174.101956 
L 397.169325 173.78774 
L 397.388983 174.216327 
L 397.608641 174.278675 
L 398.047957 174.574798 
L 398.267615 174.661988 
L 398.487273 174.629476 
L 398.487273 174.629476 
" clip-path="url(#p2daaa61081)" style="fill: none; stroke: #2ca02c; stroke-opacity: 0.7; stroke-width: 1.5; stroke-linecap: square"/>
   </g>
   <g id="patch_3">
    <path d="M 57.6 307.584 
L 57.6 41.472 
" style="fill: none; stroke: #000000; stroke-width: 0.8; stroke-linejoin: miter; stroke-linecap: square"/>
   </g>
   <g id="patch_4">
    <path d="M 414.72 307.584 
L 414.72 41.472 
" style="fill: none; stroke: #000000; stroke-width: 0.8; stroke-linejoin: miter; stroke-linecap: square"/>
   </g>
   <g id="patch_5">
    <path d="M 57.6 307.584 
L 414.72 307.584 
" style="fill: none; stroke: #000000; stroke-width: 0.8; stroke-linejoin: miter; stroke-linecap: square"/>
   </g>
   <g id="patch_6">
    <path d="M 57.6 41.472 
L 414.72 41.472 
" style="fill: none; stroke: #000000; stroke-width: 0.8; stroke-linejoin: miter; stroke-linecap: square"/>
   </g>
   <g id="text_14">
    <!-- naive_20_snp500 -->
    <g transform="translate(183.945938 35.472) scale(0.12 -0.12)">
     <defs>
      <path id="DejaVuSans-6e" d="M 3513 2113 
L 3513 0 
L 2938 0 
L 2938 2094 
Q 2938 2591 2744 2837 
Q 2550 3084 2163 3084 
Q 1697 3084 1428 2787 
Q 1159 2491 1159 1978 
L 1159 0 
L 581 0 
L 581 3500 
L 1159 3500 
L 1159 2956 
Q 1366 3272 1645 3428 
Q 1925 3584 2291 3584 
Q 2894 3584 3203 3211 
Q 3513 2838 3513 2113 
z
" transform="scale(0.015625)"/>
      <path id="DejaVuSans-61" d="M 2194 1759 
Q 1497 1759 1228 1600 
Q 959 1441 959 1056 
Q 959 750 1161 570 
Q 1363 391 1709 391 
Q 2188 391 2477 730 
Q 2766 1069 2766 1631 
L 2766 1759 
L 2194 1759 
z
M 3341 1997 
L 3341 0 
L 2766 0 
L 2766 531 
Q 2569 213 2275 61 
Q 1981 -91 1556 -91 
Q 1019 -91 701 211 
Q 384 513 384 1019 
Q 384 1609 779 1909 
Q 1175 2209 1959 2209 
L 2766 2209 
L 2766 2266 
Q 2766 2663 2505 2880 
Q 2244 3097 1772 3097 
Q 1472 3097 1187 3025 
Q 903 2953 641 2809 
L 641 3341 
Q 956 3463 1253 3523 
Q 1550 3584 1831 3584 
Q 2591 3584 2966 3190 
Q 3341 2797 3341 1997 
z
" transform="scale(0.015625)"/>
      <path id="DejaVuSans-69" d="M 603 3500 
L 1178 3500 
L 1178 0 
L 603 0 
L 603 3500 
z
M 603 4863 
L 1178 4863 
L 1178 4134 
L 603 4134 
L 603 4863 
z
" transform="scale(0.015625)"/>
      <path id="DejaVuSans-76" d="M 191 3500 
L 800 3500 
L 1894 563 
L 2988 3500 
L 3597 3500 
L 2284 0 
L 1503 0 
L 191 3500 
z
" transform="scale(0.015625)"/>
      <path id="DejaVuSans-65" d="M 3597 1894 
L 3597 1613 
L 953 1613 
Q 991 1019 1311 708 
Q 1631 397 2203 397 
Q 2534 397 2845 478 
Q 3156 559 3463 722 
L 3463 178 
Q 3153 47 2828 -22 
Q 2503 -91 2169 -91 
Q 1331 -91 842 396 
Q 353 884 353 1716 
Q 353 2575 817 3079 
Q 1281 3584 2069 3584 
Q 2775 3584 3186 3129 
Q 3597 2675 3597 1894 
z
M 3022 2063 
Q 3016 2534 2758 2815 
Q 2500 3097 2075 3097 
Q 1594 3097 1305 2825 
Q 1016 2553 972 2059 
L 3022 2063 
z
" transform="scale(0.015625)"/>
      <path id="DejaVuSans-5f" d="M 3263 -1063 
L 3263 -1509 
L -63 -1509 
L -63 -1063 
L 3263 -1063 
z
" transform="scale(0.015625)"/>
      <path id="DejaVuSans-73" d="M 2834 3397 
L 2834 2853 
Q 2591 2978 2328 3040 
Q 2066 3103 1784 3103 
Q 1356 3103 1142 2972 
Q 928 2841 928 2578 
Q 928 2378 1081 2264 
Q 1234 2150 1697 2047 
L 1894 2003 
Q 2506 1872 2764 1633 
Q 3022 1394 3022 966 
Q 3022 478 2636 193 
Q 2250 -91 1575 -91 
Q 1294 -91 989 -36 
Q 684 19 347 128 
L 347 722 
Q 666 556 975 473 
Q 1284 391 1588 391 
Q 1994 391 2212 530 
Q 2431 669 2431 922 
Q 2431 1156 2273 1281 
Q 2116 1406 1581 1522 
L 1381 1569 
Q 847 1681 609 1914 
Q 372 2147 372 2553 
Q 372 3047 722 3315 
Q 1072 3584 1716 3584 
Q 2034 3584 2315 3537 
Q 2597 3491 2834 3397 
z
" transform="scale(0.015625)"/>
      <path id="DejaVuSans-70" d="M 1159 525 
L 1159 -1331 
L 581 -1331 
L 581 3500 
L 1159 3500 
L 1159 2969 
Q 1341 3281 1617 3432 
Q 1894 3584 2278 3584 
Q 2916 3584 3314 3078 
Q 3713 2572 3713 1747 
Q 3713 922 3314 415 
Q 2916 -91 2278 -91 
Q 1894 -91 1617 61 
Q 1341 213 1159 525 
z
M 3116 1747 
Q 3116 2381 2855 2742 
Q 2594 3103 2138 3103 
Q 1681 3103 1420 2742 
Q 1159 2381 1159 1747 
Q 1159 1113 1420 752 
Q 1681 391 2138 391 
Q 2594 391 2855 752 
Q 3116 1113 3116 1747 
z
" transform="scale(0.015625)"/>
      <path id="DejaVuSans-35" d="M 691 4666 
L 3169 4666 
L 3169 4134 
L 1269 4134 
L 1269 2991 
Q 1406 3038 1543 3061 
Q 1681 3084 1819 3084 
Q 2600 3084 3056 2656 
Q 3513 2228 3513 1497 
Q 3513 744 3044 326 
Q 2575 -91 1722 -91 
Q 1428 -91 1123 -41 
Q 819 9 494 109 
L 494 744 
Q 775 591 1075 516 
Q 1375 441 1709 441 
Q 2250 441 2565 725 
Q 2881 1009 2881 1497 
Q 2881 1984 2565 2268 
Q 2250 2553 1709 2553 
Q 1456 2553 1204 2497 
Q 953 2441 691 2322 
L 691 4666 
z
" transform="scale(0.015625)"/>
     </defs>
     <use xlink:href="#DejaVuSans-6e"/>
     <use xlink:href="#DejaVuSans-61" x="63.378906"/>
     <use xlink:href="#DejaVuSans-69" x="124.658203"/>
     <use xlink:href="#DejaVuSans-76" x="152.441406"/>
     <use xlink:href="#DejaVuSans-65" x="211.621094"/>
     <use xlink:href="#DejaVuSans-5f" x="273.144531"/>
     <use xlink:href="#DejaVuSans-32" x="323.144531"/>
     <use xlink:href="#DejaVuSans-30" x="386.767578"/>
     <use xlink:href="#DejaVuSans-5f" x="450.390625"/>
     <use xlink:href="#DejaVuSans-73" x="500.390625"/>
     <use xlink:href="#DejaVuSans-6e" x="552.490234"/>
     <use xlink:href="#DejaVuSans-70" x="615.869141"/>
     <use xlink:href="#DejaVuSans-35" x="679.345703"/>
     <use xlink:href="#DejaVuSans-30" x="742.96875"/>
     <use xlink:href="#DejaVuSans-30" x="806.591797"/>
    </g>
   </g>
   <g id="legend_1">
    <g id="patch_7">
     <path d="M 64.6 93.506375 
L 258.804688 93.506375 
Q 260.804688 93.506375 260.804688 91.506375 
L 260.804688 48.472 
Q 260.804688 46.472 258.804688 46.472 
L 64.6 46.472 
Q 62.6 46.472 62.6 48.472 
L 62.6 91.506375 
Q 62.6 93.506375 64.6 93.506375 
z
" style="fill: #ffffff; opacity: 0.8; stroke: #cccccc; stroke-linejoin: miter"/>
    </g>
    <g id="line2d_17">
     <path d="M 66.6 54.570438 
L 76.6 54.570438 
L 86.6 54.570438 
" style="fill: none; stroke: #1f77b4; stroke-opacity: 0.7; stroke-width: 1.5; stroke-linecap: square"/>
    </g>
    <g id="text_15">
     <!-- Positive cumulative predictions -->
     <g transform="translate(94.6 58.070438) scale(0.1 -0.1)">
      <defs>
       <path id="DejaVuSans-50" d="M 1259 4147 
L 1259 2394 
L 2053 2394 
Q 2494 2394 2734 2622 
Q 2975 2850 2975 3272 
Q 2975 3691 2734 3919 
Q 2494 4147 2053 4147 
L 1259 4147 
z
M 628 4666 
L 2053 4666 
Q 2838 4666 3239 4311 
Q 3641 3956 3641 3272 
Q 3641 2581 3239 2228 
Q 2838 1875 2053 1875 
L 1259 1875 
L 1259 0 
L 628 0 
L 628 4666 
z
" transform="scale(0.015625)"/>
       <path id="DejaVuSans-6f" d="M 1959 3097 
Q 1497 3097 1228 2736 
Q 959 2375 959 1747 
Q 959 1119 1226 758 
Q 1494 397 1959 397 
Q 2419 397 2687 759 
Q 2956 1122 2956 1747 
Q 2956 2369 2687 2733 
Q 2419 3097 1959 3097 
z
M 1959 3584 
Q 2709 3584 3137 3096 
Q 3566 2609 3566 1747 
Q 3566 888 3137 398 
Q 2709 -91 1959 -91 
Q 1206 -91 779 398 
Q 353 888 353 1747 
Q 353 2609 779 3096 
Q 1206 3584 1959 3584 
z
" transform="scale(0.015625)"/>
       <path id="DejaVuSans-74" d="M 1172 4494 
L 1172 3500 
L 2356 3500 
L 2356 3053 
L 1172 3053 
L 1172 1153 
Q 1172 725 1289 603 
Q 1406 481 1766 481 
L 2356 481 
L 2356 0 
L 1766 0 
Q 1100 0 847 248 
Q 594 497 594 1153 
L 594 3053 
L 172 3053 
L 172 3500 
L 594 3500 
L 594 4494 
L 1172 4494 
z
" transform="scale(0.015625)"/>
       <path id="DejaVuSans-20" transform="scale(0.015625)"/>
       <path id="DejaVuSans-63" d="M 3122 3366 
L 3122 2828 
Q 2878 2963 2633 3030 
Q 2388 3097 2138 3097 
Q 1578 3097 1268 2742 
Q 959 2388 959 1747 
Q 959 1106 1268 751 
Q 1578 397 2138 397 
Q 2388 397 2633 464 
Q 2878 531 3122 666 
L 3122 134 
Q 2881 22 2623 -34 
Q 2366 -91 2075 -91 
Q 1284 -91 818 406 
Q 353 903 353 1747 
Q 353 2603 823 3093 
Q 1294 3584 2113 3584 
Q 2378 3584 2631 3529 
Q 2884 3475 3122 3366 
z
" transform="scale(0.015625)"/>
       <path id="DejaVuSans-75" d="M 544 1381 
L 544 3500 
L 1119 3500 
L 1119 1403 
Q 1119 906 1312 657 
Q 1506 409 1894 409 
Q 2359 409 2629 706 
Q 2900 1003 2900 1516 
L 2900 3500 
L 3475 3500 
L 3475 0 
L 2900 0 
L 2900 538 
Q 2691 219 2414 64 
Q 2138 -91 1772 -91 
Q 1169 -91 856 284 
Q 544 659 544 1381 
z
M 1991 3584 
L 1991 3584 
z
" transform="scale(0.015625)"/>
       <path id="DejaVuSans-6d" d="M 3328 2828 
Q 3544 3216 3844 3400 
Q 4144 3584 4550 3584 
Q 5097 3584 5394 3201 
Q 5691 2819 5691 2113 
L 5691 0 
L 5113 0 
L 5113 2094 
Q 5113 2597 4934 2840 
Q 4756 3084 4391 3084 
Q 3944 3084 3684 2787 
Q 3425 2491 3425 1978 
L 3425 0 
L 2847 0 
L 2847 2094 
Q 2847 2600 2669 2842 
Q 2491 3084 2119 3084 
Q 1678 3084 1418 2786 
Q 1159 2488 1159 1978 
L 1159 0 
L 581 0 
L 581 3500 
L 1159 3500 
L 1159 2956 
Q 1356 3278 1631 3431 
Q 1906 3584 2284 3584 
Q 2666 3584 2933 3390 
Q 3200 3197 3328 2828 
z
" transform="scale(0.015625)"/>
       <path id="DejaVuSans-6c" d="M 603 4863 
L 1178 4863 
L 1178 0 
L 603 0 
L 603 4863 
z
" transform="scale(0.015625)"/>
       <path id="DejaVuSans-72" d="M 2631 2963 
Q 2534 3019 2420 3045 
Q 2306 3072 2169 3072 
Q 1681 3072 1420 2755 
Q 1159 2438 1159 1844 
L 1159 0 
L 581 0 
L 581 3500 
L 1159 3500 
L 1159 2956 
Q 1341 3275 1631 3429 
Q 1922 3584 2338 3584 
Q 2397 3584 2469 3576 
Q 2541 3569 2628 3553 
L 2631 2963 
z
" transform="scale(0.015625)"/>
       <path id="DejaVuSans-64" d="M 2906 2969 
L 2906 4863 
L 3481 4863 
L 3481 0 
L 2906 0 
L 2906 525 
Q 2725 213 2448 61 
Q 2172 -91 1784 -91 
Q 1150 -91 751 415 
Q 353 922 353 1747 
Q 353 2572 751 3078 
Q 1150 3584 1784 3584 
Q 2172 3584 2448 3432 
Q 2725 3281 2906 2969 
z
M 947 1747 
Q 947 1113 1208 752 
Q 1469 391 1925 391 
Q 2381 391 2643 752 
Q 2906 1113 2906 1747 
Q 2906 2381 2643 2742 
Q 2381 3103 1925 3103 
Q 1469 3103 1208 2742 
Q 947 2381 947 1747 
z
" transform="scale(0.015625)"/>
      </defs>
      <use xlink:href="#DejaVuSans-50"/>
      <use xlink:href="#DejaVuSans-6f" x="56.677734"/>
      <use xlink:href="#DejaVuSans-73" x="117.859375"/>
      <use xlink:href="#DejaVuSans-69" x="169.958984"/>
      <use xlink:href="#DejaVuSans-74" x="197.742188"/>
      <use xlink:href="#DejaVuSans-69" x="236.951172"/>
      <use xlink:href="#DejaVuSans-76" x="264.734375"/>
      <use xlink:href="#DejaVuSans-65" x="323.914062"/>
      <use xlink:href="#DejaVuSans-20" x="385.4375"/>
      <use xlink:href="#DejaVuSans-63" x="417.224609"/>
      <use xlink:href="#DejaVuSans-75" x="472.205078"/>
      <use xlink:href="#DejaVuSans-6d" x="535.583984"/>
      <use xlink:href="#DejaVuSans-75" x="632.996094"/>
      <use xlink:href="#DejaVuSans-6c" x="696.375"/>
      <use xlink:href="#DejaVuSans-61" x="724.158203"/>
      <use xlink:href="#DejaVuSans-74" x="785.4375"/>
      <use xlink:href="#DejaVuSans-69" x="824.646484"/>
      <use xlink:href="#DejaVuSans-76" x="852.429688"/>
      <use xlink:href="#DejaVuSans-65" x="911.609375"/>
      <use xlink:href="#DejaVuSans-20" x="973.132812"/>
      <use xlink:href="#DejaVuSans-70" x="1004.919922"/>
      <use xlink:href="#DejaVuSans-72" x="1068.396484"/>
      <use xlink:href="#DejaVuSans-65" x="1107.259766"/>
      <use xlink:href="#DejaVuSans-64" x="1168.783203"/>
      <use xlink:href="#DejaVuSans-69" x="1232.259766"/>
      <use xlink:href="#DejaVuSans-63" x="1260.042969"/>
      <use xlink:href="#DejaVuSans-74" x="1315.023438"/>
      <use xlink:href="#DejaVuSans-69" x="1354.232422"/>
      <use xlink:href="#DejaVuSans-6f" x="1382.015625"/>
      <use xlink:href="#DejaVuSans-6e" x="1443.197266"/>
      <use xlink:href="#DejaVuSans-73" x="1506.576172"/>
     </g>
    </g>
    <g id="line2d_18">
     <path d="M 66.6 69.248563 
L 76.6 69.248563 
L 86.6 69.248563 
" style="fill: none; stroke: #ff7f0e; stroke-opacity: 0.7; stroke-width: 1.5; stroke-linecap: square"/>
    </g>
    <g id="text_16">
     <!-- Negative cumulative predictions -->
     <g transform="translate(94.6 72.748563) scale(0.1 -0.1)">
      <defs>
       <path id="DejaVuSans-4e" d="M 628 4666 
L 1478 4666 
L 3547 763 
L 3547 4666 
L 4159 4666 
L 4159 0 
L 3309 0 
L 1241 3903 
L 1241 0 
L 628 0 
L 628 4666 
z
" transform="scale(0.015625)"/>
       <path id="DejaVuSans-67" d="M 2906 1791 
Q 2906 2416 2648 2759 
Q 2391 3103 1925 3103 
Q 1463 3103 1205 2759 
Q 947 2416 947 1791 
Q 947 1169 1205 825 
Q 1463 481 1925 481 
Q 2391 481 2648 825 
Q 2906 1169 2906 1791 
z
M 3481 434 
Q 3481 -459 3084 -895 
Q 2688 -1331 1869 -1331 
Q 1566 -1331 1297 -1286 
Q 1028 -1241 775 -1147 
L 775 -588 
Q 1028 -725 1275 -790 
Q 1522 -856 1778 -856 
Q 2344 -856 2625 -561 
Q 2906 -266 2906 331 
L 2906 616 
Q 2728 306 2450 153 
Q 2172 0 1784 0 
Q 1141 0 747 490 
Q 353 981 353 1791 
Q 353 2603 747 3093 
Q 1141 3584 1784 3584 
Q 2172 3584 2450 3431 
Q 2728 3278 2906 2969 
L 2906 3500 
L 3481 3500 
L 3481 434 
z
" transform="scale(0.015625)"/>
      </defs>
      <use xlink:href="#DejaVuSans-4e"/>
      <use xlink:href="#DejaVuSans-65" x="74.804688"/>
      <use xlink:href="#DejaVuSans-67" x="136.328125"/>
      <use xlink:href="#DejaVuSans-61" x="199.804688"/>
      <use xlink:href="#DejaVuSans-74" x="261.083984"/>
      <use xlink:href="#DejaVuSans-69" x="300.292969"/>
      <use xlink:href="#DejaVuSans-76" x="328.076172"/>
      <use xlink:href="#DejaVuSans-65" x="387.255859"/>
      <use xlink:href="#DejaVuSans-20" x="448.779297"/>
      <use xlink:href="#DejaVuSans-63" x="480.566406"/>
      <use xlink:href="#DejaVuSans-75" x="535.546875"/>
      <use xlink:href="#DejaVuSans-6d" x="598.925781"/>
      <use xlink:href="#DejaVuSans-75" x="696.337891"/>
      <use xlink:href="#DejaVuSans-6c" x="759.716797"/>
      <use xlink:href="#DejaVuSans-61" x="787.5"/>
      <use xlink:href="#DejaVuSans-74" x="848.779297"/>
      <use xlink:href="#DejaVuSans-69" x="887.988281"/>
      <use xlink:href="#DejaVuSans-76" x="915.771484"/>
      <use xlink:href="#DejaVuSans-65" x="974.951172"/>
      <use xlink:href="#DejaVuSans-20" x="1036.474609"/>
      <use xlink:href="#DejaVuSans-70" x="1068.261719"/>
      <use xlink:href="#DejaVuSans-72" x="1131.738281"/>
      <use xlink:href="#DejaVuSans-65" x="1170.601562"/>
      <use xlink:href="#DejaVuSans-64" x="1232.125"/>
      <use xlink:href="#DejaVuSans-69" x="1295.601562"/>
      <use xlink:href="#DejaVuSans-63" x="1323.384766"/>
      <use xlink:href="#DejaVuSans-74" x="1378.365234"/>
      <use xlink:href="#DejaVuSans-69" x="1417.574219"/>
      <use xlink:href="#DejaVuSans-6f" x="1445.357422"/>
      <use xlink:href="#DejaVuSans-6e" x="1506.539062"/>
      <use xlink:href="#DejaVuSans-73" x="1569.917969"/>
     </g>
    </g>
    <g id="line2d_19">
     <path d="M 66.6 83.926688 
L 76.6 83.926688 
L 86.6 83.926688 
" style="fill: none; stroke: #2ca02c; stroke-opacity: 0.7; stroke-width: 1.5; stroke-linecap: square"/>
    </g>
    <g id="text_17">
     <!-- Average cumulative predictions -->
     <g transform="translate(94.6 87.426688) scale(0.1 -0.1)">
      <defs>
       <path id="DejaVuSans-41" d="M 2188 4044 
L 1331 1722 
L 3047 1722 
L 2188 4044 
z
M 1831 4666 
L 2547 4666 
L 4325 0 
L 3669 0 
L 3244 1197 
L 1141 1197 
L 716 0 
L 50 0 
L 1831 4666 
z
" transform="scale(0.015625)"/>
      </defs>
      <use xlink:href="#DejaVuSans-41"/>
      <use xlink:href="#DejaVuSans-76" x="62.533203"/>
      <use xlink:href="#DejaVuSans-65" x="121.712891"/>
      <use xlink:href="#DejaVuSans-72" x="183.236328"/>
      <use xlink:href="#DejaVuSans-61" x="224.349609"/>
      <use xlink:href="#DejaVuSans-67" x="285.628906"/>
      <use xlink:href="#DejaVuSans-65" x="349.105469"/>
      <use xlink:href="#DejaVuSans-20" x="410.628906"/>
      <use xlink:href="#DejaVuSans-63" x="442.416016"/>
      <use xlink:href="#DejaVuSans-75" x="497.396484"/>
      <use xlink:href="#DejaVuSans-6d" x="560.775391"/>
      <use xlink:href="#DejaVuSans-75" x="658.1875"/>
      <use xlink:href="#DejaVuSans-6c" x="721.566406"/>
      <use xlink:href="#DejaVuSans-61" x="749.349609"/>
      <use xlink:href="#DejaVuSans-74" x="810.628906"/>
      <use xlink:href="#DejaVuSans-69" x="849.837891"/>
      <use xlink:href="#DejaVuSans-76" x="877.621094"/>
      <use xlink:href="#DejaVuSans-65" x="936.800781"/>
      <use xlink:href="#DejaVuSans-20" x="998.324219"/>
      <use xlink:href="#DejaVuSans-70" x="1030.111328"/>
      <use xlink:href="#DejaVuSans-72" x="1093.587891"/>
      <use xlink:href="#DejaVuSans-65" x="1132.451172"/>
      <use xlink:href="#DejaVuSans-64" x="1193.974609"/>
      <use xlink:href="#DejaVuSans-69" x="1257.451172"/>
      <use xlink:href="#DejaVuSans-63" x="1285.234375"/>
      <use xlink:href="#DejaVuSans-74" x="1340.214844"/>
      <use xlink:href="#DejaVuSans-69" x="1379.423828"/>
      <use xlink:href="#DejaVuSans-6f" x="1407.207031"/>
      <use xlink:href="#DejaVuSans-6e" x="1468.388672"/>
      <use xlink:href="#DejaVuSans-73" x="1531.767578"/>
     </g>
    </g>
   </g>
  </g>
 </g>
 <defs>
  <clipPath id="p2daaa61081">
   <rect x="57.6" y="41.472" width="357.12" height="266.112"/>
  </clipPath>
 </defs>
</svg>
