<?xml version="1.0" encoding="utf-8" standalone="no"?>
<!DOCTYPE svg PUBLIC "-//W3C//DTD SVG 1.1//EN"
  "http://www.w3.org/Graphics/SVG/1.1/DTD/svg11.dtd">
<svg xmlns:xlink="http://www.w3.org/1999/xlink" width="460.8pt" height="345.6pt" viewBox="0 0 460.8 345.6" xmlns="http://www.w3.org/2000/svg" version="1.1">
 <metadata>
  <rdf:RDF xmlns:dc="http://purl.org/dc/elements/1.1/" xmlns:cc="http://creativecommons.org/ns#" xmlns:rdf="http://www.w3.org/1999/02/22-rdf-syntax-ns#">
   <cc:Work>
    <dc:type rdf:resource="http://purl.org/dc/dcmitype/StillImage"/>
    <dc:date>2024-07-12T08:37:38.053599</dc:date>
    <dc:format>image/svg+xml</dc:format>
    <dc:creator>
     <cc:Agent>
      <dc:title>Matplotlib v3.9.0, https://matplotlib.org/</dc:title>
     </cc:Agent>
    </dc:creator>
   </cc:Work>
  </rdf:RDF>
 </metadata>
 <defs>
  <style type="text/css">*{stroke-linejoin: round; stroke-linecap: butt}</style>
 </defs>
 <g id="figure_1">
  <g id="patch_1">
   <path d="M 0 345.6 
L 460.8 345.6 
L 460.8 0 
L 0 0 
z
" style="fill: #ffffff"/>
  </g>
  <g id="axes_1">
   <g id="patch_2">
    <path d="M 57.6 307.584 
L 414.72 307.584 
L 414.72 41.472 
L 57.6 41.472 
z
" style="fill: #ffffff"/>
   </g>
   <g id="matplotlib.axis_1">
    <g id="xtick_1">
     <g id="line2d_1">
      <defs>
       <path id="m8cf47d3501" d="M 0 0 
L 0 3.5 
" style="stroke: #000000; stroke-width: 0.8"/>
      </defs>
      <g>
       <use xlink:href="#m8cf47d3501" x="73.832727" y="307.584" style="stroke: #000000; stroke-width: 0.8"/>
      </g>
     </g>
     <g id="text_1">
      <!-- 0 -->
      <g transform="translate(70.651477 322.182437) scale(0.1 -0.1)">
       <defs>
        <path id="DejaVuSans-30" d="M 2034 4250 
Q 1547 4250 1301 3770 
Q 1056 3291 1056 2328 
Q 1056 1369 1301 889 
Q 1547 409 2034 409 
Q 2525 409 2770 889 
Q 3016 1369 3016 2328 
Q 3016 3291 2770 3770 
Q 2525 4250 2034 4250 
z
M 2034 4750 
Q 2819 4750 3233 4129 
Q 3647 3509 3647 2328 
Q 3647 1150 3233 529 
Q 2819 -91 2034 -91 
Q 1250 -91 836 529 
Q 422 1150 422 2328 
Q 422 3509 836 4129 
Q 1250 4750 2034 4750 
z
" transform="scale(0.015625)"/>
       </defs>
       <use xlink:href="#DejaVuSans-30"/>
      </g>
     </g>
    </g>
    <g id="xtick_2">
     <g id="line2d_2">
      <g>
       <use xlink:href="#m8cf47d3501" x="149.333784" y="307.584" style="stroke: #000000; stroke-width: 0.8"/>
      </g>
     </g>
     <g id="text_2">
      <!-- 50 -->
      <g transform="translate(142.971284 322.182437) scale(0.1 -0.1)">
       <defs>
        <path id="DejaVuSans-35" d="M 691 4666 
L 3169 4666 
L 3169 4134 
L 1269 4134 
L 1269 2991 
Q 1406 3038 1543 3061 
Q 1681 3084 1819 3084 
Q 2600 3084 3056 2656 
Q 3513 2228 3513 1497 
Q 3513 744 3044 326 
Q 2575 -91 1722 -91 
Q 1428 -91 1123 -41 
Q 819 9 494 109 
L 494 744 
Q 775 591 1075 516 
Q 1375 441 1709 441 
Q 2250 441 2565 725 
Q 2881 1009 2881 1497 
Q 2881 1984 2565 2268 
Q 2250 2553 1709 2553 
Q 1456 2553 1204 2497 
Q 953 2441 691 2322 
L 691 4666 
z
" transform="scale(0.015625)"/>
       </defs>
       <use xlink:href="#DejaVuSans-35"/>
       <use xlink:href="#DejaVuSans-30" x="63.623047"/>
      </g>
     </g>
    </g>
    <g id="xtick_3">
     <g id="line2d_3">
      <g>
       <use xlink:href="#m8cf47d3501" x="224.834841" y="307.584" style="stroke: #000000; stroke-width: 0.8"/>
      </g>
     </g>
     <g id="text_3">
      <!-- 100 -->
      <g transform="translate(215.291091 322.182437) scale(0.1 -0.1)">
       <defs>
        <path id="DejaVuSans-31" d="M 794 531 
L 1825 531 
L 1825 4091 
L 703 3866 
L 703 4441 
L 1819 4666 
L 2450 4666 
L 2450 531 
L 3481 531 
L 3481 0 
L 794 0 
L 794 531 
z
" transform="scale(0.015625)"/>
       </defs>
       <use xlink:href="#DejaVuSans-31"/>
       <use xlink:href="#DejaVuSans-30" x="63.623047"/>
       <use xlink:href="#DejaVuSans-30" x="127.246094"/>
      </g>
     </g>
    </g>
    <g id="xtick_4">
     <g id="line2d_4">
      <g>
       <use xlink:href="#m8cf47d3501" x="300.335899" y="307.584" style="stroke: #000000; stroke-width: 0.8"/>
      </g>
     </g>
     <g id="text_4">
      <!-- 150 -->
      <g transform="translate(290.792149 322.182437) scale(0.1 -0.1)">
       <use xlink:href="#DejaVuSans-31"/>
       <use xlink:href="#DejaVuSans-35" x="63.623047"/>
       <use xlink:href="#DejaVuSans-30" x="127.246094"/>
      </g>
     </g>
    </g>
    <g id="xtick_5">
     <g id="line2d_5">
      <g>
       <use xlink:href="#m8cf47d3501" x="375.836956" y="307.584" style="stroke: #000000; stroke-width: 0.8"/>
      </g>
     </g>
     <g id="text_5">
      <!-- 200 -->
      <g transform="translate(366.293206 322.182437) scale(0.1 -0.1)">
       <defs>
        <path id="DejaVuSans-32" d="M 1228 531 
L 3431 531 
L 3431 0 
L 469 0 
L 469 531 
Q 828 903 1448 1529 
Q 2069 2156 2228 2338 
Q 2531 2678 2651 2914 
Q 2772 3150 2772 3378 
Q 2772 3750 2511 3984 
Q 2250 4219 1831 4219 
Q 1534 4219 1204 4116 
Q 875 4013 500 3803 
L 500 4441 
Q 881 4594 1212 4672 
Q 1544 4750 1819 4750 
Q 2544 4750 2975 4387 
Q 3406 4025 3406 3419 
Q 3406 3131 3298 2873 
Q 3191 2616 2906 2266 
Q 2828 2175 2409 1742 
Q 1991 1309 1228 531 
z
" transform="scale(0.015625)"/>
       </defs>
       <use xlink:href="#DejaVuSans-32"/>
       <use xlink:href="#DejaVuSans-30" x="63.623047"/>
       <use xlink:href="#DejaVuSans-30" x="127.246094"/>
      </g>
     </g>
    </g>
   </g>
   <g id="matplotlib.axis_2">
    <g id="ytick_1">
     <g id="line2d_6">
      <defs>
       <path id="m281d14e2d7" d="M 0 0 
L -3.5 0 
" style="stroke: #000000; stroke-width: 0.8"/>
      </defs>
      <g>
       <use xlink:href="#m281d14e2d7" x="57.6" y="293.883789" style="stroke: #000000; stroke-width: 0.8"/>
      </g>
     </g>
     <g id="text_6">
      <!-- 5000 -->
      <g transform="translate(25.15 297.683008) scale(0.1 -0.1)">
       <use xlink:href="#DejaVuSans-35"/>
       <use xlink:href="#DejaVuSans-30" x="63.623047"/>
       <use xlink:href="#DejaVuSans-30" x="127.246094"/>
       <use xlink:href="#DejaVuSans-30" x="190.869141"/>
      </g>
     </g>
    </g>
    <g id="ytick_2">
     <g id="line2d_7">
      <g>
       <use xlink:href="#m281d14e2d7" x="57.6" y="262.304842" style="stroke: #000000; stroke-width: 0.8"/>
      </g>
     </g>
     <g id="text_7">
      <!-- 5500 -->
      <g transform="translate(25.15 266.104061) scale(0.1 -0.1)">
       <use xlink:href="#DejaVuSans-35"/>
       <use xlink:href="#DejaVuSans-35" x="63.623047"/>
       <use xlink:href="#DejaVuSans-30" x="127.246094"/>
       <use xlink:href="#DejaVuSans-30" x="190.869141"/>
      </g>
     </g>
    </g>
    <g id="ytick_3">
     <g id="line2d_8">
      <g>
       <use xlink:href="#m281d14e2d7" x="57.6" y="230.725895" style="stroke: #000000; stroke-width: 0.8"/>
      </g>
     </g>
     <g id="text_8">
      <!-- 6000 -->
      <g transform="translate(25.15 234.525113) scale(0.1 -0.1)">
       <defs>
        <path id="DejaVuSans-36" d="M 2113 2584 
Q 1688 2584 1439 2293 
Q 1191 2003 1191 1497 
Q 1191 994 1439 701 
Q 1688 409 2113 409 
Q 2538 409 2786 701 
Q 3034 994 3034 1497 
Q 3034 2003 2786 2293 
Q 2538 2584 2113 2584 
z
M 3366 4563 
L 3366 3988 
Q 3128 4100 2886 4159 
Q 2644 4219 2406 4219 
Q 1781 4219 1451 3797 
Q 1122 3375 1075 2522 
Q 1259 2794 1537 2939 
Q 1816 3084 2150 3084 
Q 2853 3084 3261 2657 
Q 3669 2231 3669 1497 
Q 3669 778 3244 343 
Q 2819 -91 2113 -91 
Q 1303 -91 875 529 
Q 447 1150 447 2328 
Q 447 3434 972 4092 
Q 1497 4750 2381 4750 
Q 2619 4750 2861 4703 
Q 3103 4656 3366 4563 
z
" transform="scale(0.015625)"/>
       </defs>
       <use xlink:href="#DejaVuSans-36"/>
       <use xlink:href="#DejaVuSans-30" x="63.623047"/>
       <use xlink:href="#DejaVuSans-30" x="127.246094"/>
       <use xlink:href="#DejaVuSans-30" x="190.869141"/>
      </g>
     </g>
    </g>
    <g id="ytick_4">
     <g id="line2d_9">
      <g>
       <use xlink:href="#m281d14e2d7" x="57.6" y="199.146947" style="stroke: #000000; stroke-width: 0.8"/>
      </g>
     </g>
     <g id="text_9">
      <!-- 6500 -->
      <g transform="translate(25.15 202.946166) scale(0.1 -0.1)">
       <use xlink:href="#DejaVuSans-36"/>
       <use xlink:href="#DejaVuSans-35" x="63.623047"/>
       <use xlink:href="#DejaVuSans-30" x="127.246094"/>
       <use xlink:href="#DejaVuSans-30" x="190.869141"/>
      </g>
     </g>
    </g>
    <g id="ytick_5">
     <g id="line2d_10">
      <g>
       <use xlink:href="#m281d14e2d7" x="57.6" y="167.568" style="stroke: #000000; stroke-width: 0.8"/>
      </g>
     </g>
     <g id="text_10">
      <!-- 7000 -->
      <g transform="translate(25.15 171.367219) scale(0.1 -0.1)">
       <defs>
        <path id="DejaVuSans-37" d="M 525 4666 
L 3525 4666 
L 3525 4397 
L 1831 0 
L 1172 0 
L 2766 4134 
L 525 4134 
L 525 4666 
z
" transform="scale(0.015625)"/>
       </defs>
       <use xlink:href="#DejaVuSans-37"/>
       <use xlink:href="#DejaVuSans-30" x="63.623047"/>
       <use xlink:href="#DejaVuSans-30" x="127.246094"/>
       <use xlink:href="#DejaVuSans-30" x="190.869141"/>
      </g>
     </g>
    </g>
    <g id="ytick_6">
     <g id="line2d_11">
      <g>
       <use xlink:href="#m281d14e2d7" x="57.6" y="135.989053" style="stroke: #000000; stroke-width: 0.8"/>
      </g>
     </g>
     <g id="text_11">
      <!-- 7500 -->
      <g transform="translate(25.15 139.788271) scale(0.1 -0.1)">
       <use xlink:href="#DejaVuSans-37"/>
       <use xlink:href="#DejaVuSans-35" x="63.623047"/>
       <use xlink:href="#DejaVuSans-30" x="127.246094"/>
       <use xlink:href="#DejaVuSans-30" x="190.869141"/>
      </g>
     </g>
    </g>
    <g id="ytick_7">
     <g id="line2d_12">
      <g>
       <use xlink:href="#m281d14e2d7" x="57.6" y="104.410105" style="stroke: #000000; stroke-width: 0.8"/>
      </g>
     </g>
     <g id="text_12">
      <!-- 8000 -->
      <g transform="translate(25.15 108.209324) scale(0.1 -0.1)">
       <defs>
        <path id="DejaVuSans-38" d="M 2034 2216 
Q 1584 2216 1326 1975 
Q 1069 1734 1069 1313 
Q 1069 891 1326 650 
Q 1584 409 2034 409 
Q 2484 409 2743 651 
Q 3003 894 3003 1313 
Q 3003 1734 2745 1975 
Q 2488 2216 2034 2216 
z
M 1403 2484 
Q 997 2584 770 2862 
Q 544 3141 544 3541 
Q 544 4100 942 4425 
Q 1341 4750 2034 4750 
Q 2731 4750 3128 4425 
Q 3525 4100 3525 3541 
Q 3525 3141 3298 2862 
Q 3072 2584 2669 2484 
Q 3125 2378 3379 2068 
Q 3634 1759 3634 1313 
Q 3634 634 3220 271 
Q 2806 -91 2034 -91 
Q 1263 -91 848 271 
Q 434 634 434 1313 
Q 434 1759 690 2068 
Q 947 2378 1403 2484 
z
M 1172 3481 
Q 1172 3119 1398 2916 
Q 1625 2713 2034 2713 
Q 2441 2713 2670 2916 
Q 2900 3119 2900 3481 
Q 2900 3844 2670 4047 
Q 2441 4250 2034 4250 
Q 1625 4250 1398 4047 
Q 1172 3844 1172 3481 
z
" transform="scale(0.015625)"/>
       </defs>
       <use xlink:href="#DejaVuSans-38"/>
       <use xlink:href="#DejaVuSans-30" x="63.623047"/>
       <use xlink:href="#DejaVuSans-30" x="127.246094"/>
       <use xlink:href="#DejaVuSans-30" x="190.869141"/>
      </g>
     </g>
    </g>
    <g id="ytick_8">
     <g id="line2d_13">
      <g>
       <use xlink:href="#m281d14e2d7" x="57.6" y="72.831158" style="stroke: #000000; stroke-width: 0.8"/>
      </g>
     </g>
     <g id="text_13">
      <!-- 8500 -->
      <g transform="translate(25.15 76.630377) scale(0.1 -0.1)">
       <use xlink:href="#DejaVuSans-38"/>
       <use xlink:href="#DejaVuSans-35" x="63.623047"/>
       <use xlink:href="#DejaVuSans-30" x="127.246094"/>
       <use xlink:href="#DejaVuSans-30" x="190.869141"/>
      </g>
     </g>
    </g>
   </g>
   <g id="line2d_14">
    <path d="M 73.832727 295.488 
L 75.342748 294.316872 
L 76.85277 291.365368 
L 78.362791 291.276271 
L 79.872812 289.652211 
L 81.382833 290.178526 
L 82.892854 290.220632 
L 84.402875 289.210105 
L 85.912896 289.494316 
L 88.932939 282.620632 
L 90.44296 276.38003 
L 91.952981 276.181534 
L 93.463002 276.351158 
L 94.973023 279.704842 
L 96.483044 277.004842 
L 97.993066 276.589053 
L 99.503087 276.057474 
L 101.013108 273.853714 
L 102.523129 272.220632 
L 104.03315 270.104842 
L 105.543171 269.041684 
L 107.053192 267.712737 
L 110.073235 268.146947 
L 111.583256 267.951158 
L 113.093277 266.868 
L 114.603298 266.139429 
L 116.113319 266.157474 
L 117.62334 265.643188 
L 119.133362 265.285895 
L 120.643383 265.794316 
L 122.153404 264.925895 
L 123.663425 266.031158 
L 125.173446 266.220632 
L 126.683467 266.536421 
L 128.193488 266.473263 
L 129.70351 262.259729 
L 131.213531 261.808602 
L 132.723552 262.052211 
L 134.233573 260.873263 
L 135.743594 260.864842 
L 137.253615 260.662737 
L 138.763636 260.810105 
L 140.273658 260.094316 
L 141.783679 259.546947 
L 143.2937 258.720632 
L 144.803721 257.357474 
L 146.313742 255.402586 
L 147.823763 254.410105 
L 149.333784 251.946947 
L 150.843805 249.853714 
L 152.353827 248.010105 
L 153.863848 246.865608 
L 155.373869 246.948451 
L 156.88389 244.731158 
L 158.393911 244.723263 
L 159.903932 245.894316 
L 161.413953 242.252211 
L 162.923975 240.268478 
L 164.433996 239.160344 
L 165.944017 239.328 
L 167.454038 240.174316 
L 168.964059 240.136421 
L 170.47408 240.417123 
L 171.984101 240.919579 
L 173.494123 239.901835 
L 175.004144 240.057474 
L 176.514165 238.500057 
L 178.024186 238.486421 
L 179.534207 238.083789 
L 181.044228 237.414316 
L 182.554249 237.156517 
L 184.064271 235.355368 
L 185.574292 234.845193 
L 187.084313 232.856038 
L 188.594334 231.111158 
L 190.104355 230.353965 
L 191.614376 231.013614 
L 193.124397 229.978526 
L 194.634419 231.146947 
L 196.14444 231.066947 
L 197.654461 229.008 
L 199.164482 229.740632 
L 200.674503 227.173263 
L 202.184524 225.041684 
L 203.694545 224.496947 
L 205.204567 221.968 
L 208.224609 222.136421 
L 209.73463 222.720632 
L 211.244651 222.316872 
L 212.754672 219.883789 
L 214.264693 216.929404 
L 215.774715 217.199579 
L 217.284736 215.283789 
L 218.794757 215.778526 
L 220.304778 216.873263 
L 221.814799 215.110105 
L 223.32482 216.973263 
L 224.834841 213.357474 
L 226.344863 212.897323 
L 227.854884 212.062737 
L 229.364905 212.852211 
L 230.874926 213.054316 
L 232.384947 212.928 
L 233.894968 212.052211 
L 235.404989 211.768 
L 236.915011 210.325895 
L 238.425032 204.398075 
L 239.935053 205.410105 
L 241.445074 205.096421 
L 242.955095 203.618526 
L 244.465116 204.524391 
L 245.975137 206.144842 
L 247.485159 200.589053 
L 248.99518 200.283789 
L 250.505201 198.551459 
L 252.015222 199.879579 
L 253.525243 196.978526 
L 255.035264 196.536421 
L 256.545285 191.907474 
L 258.055307 192.452211 
L 259.565328 191.899579 
L 261.075349 193.008 
L 262.58537 193.504842 
L 264.095391 194.170105 
L 265.605412 193.231158 
L 267.115433 189.220632 
L 268.625455 190.393263 
L 270.135476 188.346947 
L 271.645497 188.515368 
L 273.155518 186.273263 
L 274.665539 186.746947 
L 276.17556 183.054316 
L 277.685581 184.036421 
L 279.195603 181.136421 
L 280.705624 180.154466 
L 282.215645 181.349053 
L 283.725666 177.193263 
L 285.235687 174.885293 
L 286.745708 169.012737 
L 288.255729 165.665368 
L 289.765751 161.91186 
L 291.275772 159.113865 
L 292.785793 158.641684 
L 294.295814 155.703338 
L 295.805835 147.551459 
L 297.315856 146.512737 
L 298.825877 147.902928 
L 300.335899 147.856995 
L 301.84592 149.062737 
L 303.355941 148.739053 
L 304.865962 147.604364 
L 306.375983 144.649115 
L 307.886004 142.431158 
L 309.396025 141.411609 
L 310.906047 141.104842 
L 312.416068 136.746947 
L 313.926089 133.118526 
L 315.43611 131.310105 
L 316.946131 127.282286 
L 318.456152 126.452211 
L 319.966173 125.99206 
L 321.476195 124.263975 
L 322.986216 124.476271 
L 324.496237 121.757474 
L 326.006258 123.973263 
L 327.516279 123.203088 
L 329.0263 121.554603 
L 330.536321 121.834667 
L 332.046342 118.89623 
L 333.556364 110.890105 
L 335.066385 109.355854 
L 336.576406 111.076134 
L 338.086427 111.824842 
L 339.596448 111.780632 
L 341.106469 113.603088 
L 342.61649 112.178526 
L 344.126512 107.698827 
L 345.636533 106.999579 
L 347.146554 106.82815 
L 348.656575 103.462737 
L 350.166596 100.407474 
L 351.676617 101.080782 
L 353.186638 97.753263 
L 354.69666 98.018526 
L 356.206681 98.106947 
L 357.716702 98.527398 
L 359.226723 97.441684 
L 360.736744 97.020632 
L 362.246765 93.510857 
L 363.756786 91.877774 
L 365.266808 85.136421 
L 366.776829 80.653714 
L 368.28685 67.683789 
L 369.796871 64.389053 
L 371.306892 66.010105 
L 372.816913 69.889805 
L 374.326934 69.759388 
L 375.836956 70.82733 
L 377.346977 69.59206 
L 378.856998 70.374316 
L 380.367019 67.578526 
L 381.87704 66.669754 
L 383.387061 67.731158 
L 384.897082 67.671158 
L 386.407104 66.696947 
L 387.917125 66.687617 
L 389.427146 66.205895 
L 390.937167 63.576864 
L 392.447188 62.389053 
L 393.957209 61.760481 
L 395.46723 61.989053 
L 396.977252 59.757474 
L 398.487273 55.129722 
L 398.487273 55.129722 
" clip-path="url(#p7c1cfdba2b)" style="fill: none; stroke: #1f77b4; stroke-opacity: 0.7; stroke-width: 0.5; stroke-linecap: square"/>
   </g>
   <g id="line2d_15">
    <path d="M 73.832727 294.523263 
L 75.342748 293.433789 
L 76.85277 290.599579 
L 78.362791 289.877774 
L 79.872812 289.983789 
L 81.382833 289.146947 
L 82.892854 289.462737 
L 84.402875 288.002211 
L 85.912896 288.625895 
L 87.422918 285.910105 
L 88.932939 281.703338 
L 90.44296 274.304842 
L 91.952981 276.280782 
L 93.463002 276.736421 
L 94.973023 278.457474 
L 96.483044 276.375018 
L 97.993066 276.041684 
L 99.503087 275.062737 
L 104.03315 269.231158 
L 105.543171 268.999579 
L 107.053192 267.068752 
L 108.563214 266.073263 
L 110.073235 267.562737 
L 111.583256 266.157474 
L 113.093277 266.049203 
L 114.603298 264.815368 
L 116.113319 266.022135 
L 117.62334 265.383789 
L 119.133362 266.039053 
L 120.643383 264.594316 
L 122.153404 265.075895 
L 123.663425 266.086421 
L 125.173446 266.100057 
L 126.683467 265.489053 
L 128.193488 265.475368 
L 129.70351 262.255719 
L 131.213531 260.978526 
L 132.723552 261.558431 
L 134.233573 260.456038 
L 135.743594 259.757474 
L 137.253615 259.352211 
L 138.763636 259.785544 
L 140.273658 259.162737 
L 141.783679 258.753425 
L 143.2937 258.005594 
L 144.803721 256.971509 
L 146.313742 255.399579 
L 147.823763 254.108351 
L 149.333784 251.605895 
L 150.843805 249.648 
L 152.353827 246.978526 
L 153.863848 245.652211 
L 155.373869 245.968 
L 156.88389 244.279579 
L 158.393911 243.704842 
L 159.903932 245.710105 
L 161.413953 242.494316 
L 162.923975 240.019128 
L 164.433996 237.844692 
L 165.944017 238.399579 
L 167.454038 239.102211 
L 168.964059 238.802211 
L 170.47408 238.829053 
L 171.984101 240.150456 
L 173.494123 238.620632 
L 175.004144 239.418 
L 176.514165 237.989053 
L 178.024186 237.772511 
L 179.534207 237.718376 
L 181.044228 237.971008 
L 182.554249 237.010105 
L 184.064271 235.568 
L 185.574292 234.515368 
L 187.084313 232.077474 
L 188.594334 230.965895 
L 190.104355 230.321684 
L 191.614376 230.599579 
L 193.124397 229.612737 
L 194.634419 231.195068 
L 196.14444 231.132912 
L 197.654461 229.940932 
L 199.164482 229.740632 
L 200.674503 227.015368 
L 202.184524 225.306947 
L 203.694545 224.04018 
L 205.204567 221.599579 
L 206.714588 221.189053 
L 208.224609 221.781158 
L 209.73463 221.718 
L 211.244651 221.449579 
L 212.754672 219.601083 
L 214.264693 216.746947 
L 215.774715 217.399579 
L 217.284736 215.138526 
L 218.794757 214.880281 
L 220.304778 215.315368 
L 221.814799 214.889053 
L 223.32482 215.373263 
L 224.834841 213.90785 
L 226.344863 212.768 
L 227.854884 211.434029 
L 229.364905 211.679278 
L 230.874926 212.873263 
L 232.384947 212.879278 
L 233.894968 212.231158 
L 235.404989 211.968 
L 236.915011 210.316872 
L 238.425032 203.757474 
L 239.935053 204.599579 
L 241.445074 205.052211 
L 242.955095 205.699579 
L 244.465116 204.346947 
L 245.975137 205.22815 
L 247.485159 200.252211 
L 248.99518 200.31988 
L 250.505201 197.141684 
L 252.015222 198.903338 
L 253.525243 196.336421 
L 255.035264 195.546947 
L 256.545285 189.720632 
L 258.055307 190.683789 
L 259.565328 192.34394 
L 261.075349 192.501333 
L 262.58537 193.266246 
L 264.095391 193.525895 
L 265.605412 192.494316 
L 267.115433 188.704842 
L 268.625455 190.020632 
L 270.135476 189.125895 
L 271.645497 188.899579 
L 273.155518 185.736421 
L 274.665539 185.315368 
L 276.17556 182.005895 
L 277.685581 182.902737 
L 279.195603 180.925895 
L 280.705624 179.441684 
L 282.215645 180.082286 
L 283.725666 177.473263 
L 285.235687 174.363789 
L 286.745708 167.643789 
L 288.255729 163.791158 
L 291.275772 158.170105 
L 292.785793 157.201083 
L 294.295814 152.789053 
L 295.805835 144.818526 
L 297.315856 143.808 
L 298.825877 145.894316 
L 300.335899 146.170105 
L 301.84592 147.294316 
L 303.355941 147.531158 
L 304.865962 146.336421 
L 307.886004 140.473263 
L 309.396025 139.820632 
L 310.906047 138.84018 
L 312.416068 134.978526 
L 313.926089 130.799579 
L 315.43611 129.285293 
L 316.946131 125.378526 
L 318.456152 124.963489 
L 319.966173 123.831158 
L 321.476195 122.058226 
L 322.986216 122.441684 
L 324.496237 122.256722 
L 326.006258 122.678526 
L 327.516279 121.886797 
L 329.0263 120.782035 
L 330.536321 120.536421 
L 332.046342 118.407474 
L 333.556364 108.368 
L 335.066385 106.710857 
L 336.576406 109.099579 
L 338.086427 110.543439 
L 339.596448 110.528526 
L 341.106469 112.199579 
L 342.61649 111.060632 
L 344.126512 106.052211 
L 345.636533 107.536421 
L 347.146554 104.491308 
L 348.656575 102.38003 
L 350.166596 98.773263 
L 351.676617 99.625895 
L 353.186638 96.504842 
L 354.69666 97.510105 
L 356.206681 97.383789 
L 357.716702 96.332912 
L 359.226723 96.157474 
L 360.736744 94.283789 
L 363.756786 91.715368 
L 365.266808 83.046947 
L 366.776829 78.468 
L 368.28685 64.199579 
L 369.796871 60.426947 
L 372.816913 66.858226 
L 374.326934 67.778526 
L 375.836956 69.014617 
L 377.346977 67.028526 
L 378.856998 69.168 
L 380.367019 66.475895 
L 381.87704 65.813614 
L 383.387061 66.673263 
L 384.897082 66.48666 
L 386.407104 65.453167 
L 387.917125 65.277474 
L 389.427146 64.293359 
L 390.937167 62.202586 
L 392.447188 62.031158 
L 393.957209 60.725895 
L 395.46723 61.073263 
L 396.977252 61.219128 
L 398.487273 53.676271 
L 398.487273 53.676271 
" clip-path="url(#p7c1cfdba2b)" style="fill: none; stroke: #ff7f0e; stroke-opacity: 0.7; stroke-width: 0.5; stroke-linecap: square"/>
   </g>
   <g id="line2d_16">
    <path d="M 73.832727 295.005632 
L 75.342748 293.875331 
L 76.85277 290.982474 
L 78.362791 290.577023 
L 79.872812 289.818 
L 81.382833 289.662737 
L 82.892854 289.841684 
L 84.402875 288.606158 
L 85.912896 289.060105 
L 87.422918 285.970632 
L 88.932939 282.161985 
L 90.44296 275.342436 
L 91.952981 276.231158 
L 93.463002 276.543789 
L 94.973023 279.081158 
L 96.483044 276.68993 
L 97.993066 276.315368 
L 99.503087 275.560105 
L 101.013108 273.492812 
L 104.03315 269.668 
L 105.543171 269.020632 
L 107.053192 267.390744 
L 108.563214 267.008602 
L 110.073235 267.854842 
L 111.583256 267.054316 
L 113.093277 266.458602 
L 114.603298 265.477398 
L 116.113319 266.089805 
L 117.62334 265.513489 
L 119.133362 265.662474 
L 120.643383 265.194316 
L 122.153404 265.000895 
L 123.663425 266.058789 
L 125.173446 266.160344 
L 128.193488 265.974316 
L 129.70351 262.257724 
L 131.213531 261.393564 
L 132.723552 261.805321 
L 134.233573 260.664651 
L 137.253615 260.007474 
L 138.763636 260.297825 
L 140.273658 259.628526 
L 141.783679 259.150186 
L 143.2937 258.363113 
L 144.803721 257.164491 
L 146.313742 255.401083 
L 147.823763 254.259228 
L 149.333784 251.776421 
L 150.843805 249.750857 
L 152.353827 247.494316 
L 153.863848 246.258909 
L 155.373869 246.458226 
L 156.88389 244.505368 
L 158.393911 244.214053 
L 159.903932 245.802211 
L 161.413953 242.373263 
L 162.923975 240.143803 
L 164.433996 238.502518 
L 165.944017 238.863789 
L 167.454038 239.638263 
L 168.964059 239.469316 
L 170.47408 239.623088 
L 171.984101 240.535018 
L 173.494123 239.261233 
L 175.004144 239.737737 
L 176.514165 238.244555 
L 178.024186 238.129466 
L 181.044228 237.692662 
L 182.554249 237.083311 
L 184.064271 235.461684 
L 185.574292 234.680281 
L 187.084313 232.466756 
L 188.594334 231.038526 
L 190.104355 230.337825 
L 191.614376 230.806596 
L 193.124397 229.795632 
L 194.634419 231.171008 
L 196.14444 231.09993 
L 197.654461 229.474466 
L 199.164482 229.740632 
L 200.674503 227.094316 
L 202.184524 225.174316 
L 203.694545 224.268564 
L 205.204567 221.783789 
L 206.714588 221.599579 
L 209.73463 222.219316 
L 211.244651 221.883226 
L 212.754672 219.742436 
L 214.264693 216.838175 
L 215.774715 217.299579 
L 217.284736 215.211158 
L 218.794757 215.329404 
L 220.304778 216.094316 
L 221.814799 214.999579 
L 223.32482 216.173263 
L 224.834841 213.632662 
L 226.344863 212.832662 
L 227.854884 211.748383 
L 229.364905 212.265744 
L 230.874926 212.963789 
L 232.384947 212.903639 
L 233.894968 212.141684 
L 235.404989 211.868 
L 236.915011 210.321383 
L 238.425032 204.077774 
L 239.935053 205.004842 
L 241.445074 205.074316 
L 242.955095 204.659053 
L 244.465116 204.435669 
L 245.975137 205.686496 
L 247.485159 200.420632 
L 248.99518 200.301835 
L 250.505201 197.846571 
L 252.015222 199.391459 
L 253.525243 196.657474 
L 255.035264 196.041684 
L 256.545285 190.814053 
L 258.055307 191.568 
L 261.075349 192.754667 
L 262.58537 193.385544 
L 264.095391 193.848 
L 265.605412 192.862737 
L 267.115433 188.962737 
L 268.625455 190.206947 
L 270.135476 188.736421 
L 271.645497 188.707474 
L 273.155518 186.004842 
L 274.665539 186.031158 
L 276.17556 182.530105 
L 277.685581 183.469579 
L 279.195603 181.031158 
L 280.705624 179.798075 
L 282.215645 180.715669 
L 283.725666 177.333263 
L 285.235687 174.624541 
L 286.745708 168.328263 
L 288.255729 164.728263 
L 289.765751 161.462035 
L 291.275772 158.641985 
L 292.785793 157.921383 
L 294.295814 154.246195 
L 295.805835 146.184992 
L 297.315856 145.160368 
L 298.825877 146.898622 
L 300.335899 147.01355 
L 301.84592 148.178526 
L 303.355941 148.135105 
L 304.865962 146.970392 
L 306.375983 143.992768 
L 307.886004 141.452211 
L 309.396025 140.61612 
L 310.906047 139.972511 
L 313.926089 131.959053 
L 315.43611 130.297699 
L 316.946131 126.330406 
L 318.456152 125.70785 
L 319.966173 124.911609 
L 321.476195 123.1611 
L 322.986216 123.458977 
L 324.496237 122.007098 
L 326.006258 123.325895 
L 327.516279 122.544942 
L 329.0263 121.168319 
L 330.536321 121.185544 
L 332.046342 118.651852 
L 333.556364 109.629053 
L 335.066385 108.033356 
L 336.576406 110.087856 
L 338.086427 111.18414 
L 339.596448 111.154579 
L 341.106469 112.901333 
L 342.61649 111.619579 
L 344.126512 106.875519 
L 345.636533 107.268 
L 347.146554 105.659729 
L 348.656575 102.921383 
L 350.166596 99.590368 
L 351.676617 100.353338 
L 353.186638 97.129053 
L 354.69666 97.764316 
L 356.206681 97.745368 
L 357.716702 97.430155 
L 359.226723 96.799579 
L 360.736744 95.652211 
L 362.246765 93.253714 
L 363.756786 91.796571 
L 365.266808 84.091684 
L 366.776829 79.560857 
L 368.28685 65.941684 
L 369.796871 62.408 
L 371.306892 64.768 
L 372.816913 68.374015 
L 374.326934 68.768957 
L 375.836956 69.920973 
L 377.346977 68.310293 
L 378.856998 69.771158 
L 380.367019 67.027211 
L 381.87704 66.241684 
L 383.387061 67.202211 
L 384.897082 67.078909 
L 386.407104 66.075057 
L 387.917125 65.982545 
L 389.427146 65.249627 
L 390.937167 62.889725 
L 392.447188 62.210105 
L 393.957209 61.243188 
L 395.46723 61.531158 
L 396.977252 60.488301 
L 398.487273 54.402997 
L 398.487273 54.402997 
" clip-path="url(#p7c1cfdba2b)" style="fill: none; stroke: #2ca02c; stroke-opacity: 0.7; stroke-width: 0.5; stroke-linecap: square"/>
   </g>
   <g id="line2d_17">
    <path d="M 73.832727 294.389053 
L 75.342748 291.862737 
L 78.362791 290.599579 
L 79.872812 290.220632 
L 81.382833 290.157474 
L 82.892854 289.399579 
L 84.402875 289.462737 
L 85.912896 287.189053 
L 87.422918 283.336421 
L 88.932939 277.336421 
L 90.44296 277.462737 
L 91.952981 277.968 
L 93.463002 279.357474 
L 94.973023 277.778526 
L 96.483044 277.210105 
L 97.993066 276.325895 
L 99.503087 274.304842 
L 101.013108 272.662737 
L 102.523129 270.452211 
L 104.03315 269.820632 
L 105.543171 268.304842 
L 107.053192 268.304842 
L 108.563214 268.115368 
L 110.073235 268.052211 
L 113.093277 266.283789 
L 114.603298 266.283789 
L 116.113319 266.157474 
L 117.62334 266.157474 
L 119.133362 265.904842 
L 120.643383 265.841684 
L 122.153404 266.410105 
L 123.663425 266.599579 
L 125.173446 266.536421 
L 126.683467 266.599579 
L 128.193488 263.315368 
L 129.70351 261.925895 
L 131.213531 262.873263 
L 132.723552 261.610105 
L 134.233573 261.104842 
L 135.743594 260.789053 
L 137.253615 260.852211 
L 138.763636 260.283789 
L 140.273658 259.968 
L 141.783679 259.146947 
L 143.2937 257.757474 
L 144.803721 256.178526 
L 146.313742 254.915368 
L 147.823763 252.704842 
L 149.333784 250.746947 
L 150.843805 248.473263 
L 152.353827 247.146947 
L 153.863848 246.894316 
L 155.373869 245.568 
L 156.88389 245.315368 
L 158.393911 245.946947 
L 161.413953 241.020632 
L 162.923975 239.568 
L 164.433996 239.378526 
L 165.944017 239.946947 
L 168.964059 240.325895 
L 170.47408 240.957474 
L 171.984101 239.694316 
L 173.494123 240.073263 
L 175.004144 238.683789 
L 176.514165 238.620632 
L 178.024186 238.115368 
L 179.534207 238.241684 
L 181.044228 237.357474 
L 182.554249 235.715368 
L 184.064271 235.210105 
L 185.574292 233.062737 
L 187.084313 231.610105 
L 188.594334 231.041684 
L 190.104355 231.294316 
L 191.614376 230.725895 
L 193.124397 231.231158 
L 194.634419 231.610105 
L 196.14444 230.220632 
L 197.654461 230.346947 
L 199.164482 228.262737 
L 200.674503 225.925895 
L 202.184524 224.978526 
L 203.694545 222.641684 
L 205.204567 222.262737 
L 206.714588 222.704842 
L 208.224609 222.704842 
L 209.73463 222.515368 
L 211.244651 220.620632 
L 212.754672 217.968 
L 214.264693 218.031158 
L 215.774715 216.010105 
L 217.284736 215.694316 
L 218.794757 216.515368 
L 220.304778 216.010105 
L 221.814799 216.578526 
L 223.32482 214.368 
L 224.834841 213.925895 
L 226.344863 212.852211 
L 227.854884 212.978526 
L 229.364905 213.546947 
L 232.384947 212.662737 
L 233.894968 212.536421 
L 235.404989 210.641684 
L 236.915011 205.210105 
L 238.425032 206.157474 
L 239.935053 206.031158 
L 241.445074 205.652211 
L 242.955095 204.831158 
L 244.465116 206.094316 
L 245.975137 201.546947 
L 247.485159 201.546947 
L 248.99518 199.020632 
L 250.505201 200.410105 
L 252.015222 198.389053 
L 253.525243 197.125895 
L 255.035264 192.515368 
L 256.545285 193.336421 
L 258.055307 193.525895 
L 259.565328 194.157474 
L 261.075349 194.220632 
L 262.58537 195.168 
L 264.095391 194.031158 
L 265.605412 190.304842 
L 267.115433 191.125895 
L 270.135476 190.178526 
L 271.645497 186.894316 
L 273.155518 186.768 
L 274.665539 184.431158 
L 276.17556 183.925895 
L 277.685581 182.031158 
L 279.195603 180.578526 
L 280.705624 181.336421 
L 282.215645 178.620632 
L 283.725666 176.346947 
L 285.235687 170.283789 
L 286.745708 166.494316 
L 289.765751 160.683789 
L 291.275772 159.610105 
L 292.785793 155.694316 
L 294.295814 148.746947 
L 295.805835 147.736421 
L 297.315856 147.862737 
L 298.825877 148.115368 
L 300.335899 148.810105 
L 301.84592 148.746947 
L 303.355941 148.052211 
L 306.375983 142.431158 
L 307.886004 141.357474 
L 309.396025 140.915368 
L 312.416068 133.462737 
L 313.926089 132.010105 
L 315.43611 127.778526 
L 316.946131 126.704842 
L 318.456152 125.883789 
L 319.966173 124.052211 
L 322.986216 123.673263 
L 324.496237 123.925895 
L 326.006258 123.357474 
L 327.516279 122.031158 
L 329.0263 121.904842 
L 330.536321 119.378526 
L 332.046342 111.799579 
L 333.556364 110.031158 
L 335.066385 111.483789 
L 336.576406 111.989053 
L 338.086427 111.989053 
L 339.596448 113.504842 
L 341.106469 112.936421 
L 342.61649 108.073263 
L 344.126512 108.262737 
L 345.636533 106.999579 
L 347.146554 103.968 
L 348.656575 101.252211 
L 350.166596 101.568 
L 351.676617 98.599579 
L 353.186638 98.789053 
L 354.69666 98.725895 
L 356.206681 98.473263 
L 357.716702 97.525895 
L 359.226723 97.336421 
L 360.736744 95.504842 
L 362.246765 92.725895 
L 363.756786 85.904842 
L 365.266808 81.546947 
L 366.776829 69.231158 
L 368.28685 65.062737 
L 369.796871 66.389053 
L 371.306892 69.610105 
L 372.816913 69.736421 
L 374.326934 70.746947 
L 375.836956 70.683789 
L 377.346977 71.062737 
L 378.856998 68.157474 
L 380.367019 67.904842 
L 381.87704 68.662737 
L 383.387061 68.789053 
L 384.897082 67.399579 
L 386.407104 66.768 
L 387.917125 67.020632 
L 389.427146 63.925895 
L 390.937167 62.725895 
L 392.447188 61.968 
L 393.957209 62.031158 
L 395.46723 61.652211 
L 396.977252 56.346947 
L 398.487273 53.568 
L 398.487273 53.568 
" clip-path="url(#p7c1cfdba2b)" style="fill: none; stroke: #d62728; stroke-opacity: 0.7; stroke-width: 0.5; stroke-linecap: square"/>
   </g>
   <g id="patch_3">
    <path d="M 57.6 307.584 
L 57.6 41.472 
" style="fill: none; stroke: #000000; stroke-width: 0.8; stroke-linejoin: miter; stroke-linecap: square"/>
   </g>
   <g id="patch_4">
    <path d="M 414.72 307.584 
L 414.72 41.472 
" style="fill: none; stroke: #000000; stroke-width: 0.8; stroke-linejoin: miter; stroke-linecap: square"/>
   </g>
   <g id="patch_5">
    <path d="M 57.6 307.584 
L 414.72 307.584 
" style="fill: none; stroke: #000000; stroke-width: 0.8; stroke-linejoin: miter; stroke-linecap: square"/>
   </g>
   <g id="patch_6">
    <path d="M 57.6 41.472 
L 414.72 41.472 
" style="fill: none; stroke: #000000; stroke-width: 0.8; stroke-linejoin: miter; stroke-linecap: square"/>
   </g>
   <g id="text_14">
    <!-- naive_20_cci -->
    <g transform="translate(197.870625 35.472) scale(0.12 -0.12)">
     <defs>
      <path id="DejaVuSans-6e" d="M 3513 2113 
L 3513 0 
L 2938 0 
L 2938 2094 
Q 2938 2591 2744 2837 
Q 2550 3084 2163 3084 
Q 1697 3084 1428 2787 
Q 1159 2491 1159 1978 
L 1159 0 
L 581 0 
L 581 3500 
L 1159 3500 
L 1159 2956 
Q 1366 3272 1645 3428 
Q 1925 3584 2291 3584 
Q 2894 3584 3203 3211 
Q 3513 2838 3513 2113 
z
" transform="scale(0.015625)"/>
      <path id="DejaVuSans-61" d="M 2194 1759 
Q 1497 1759 1228 1600 
Q 959 1441 959 1056 
Q 959 750 1161 570 
Q 1363 391 1709 391 
Q 2188 391 2477 730 
Q 2766 1069 2766 1631 
L 2766 1759 
L 2194 1759 
z
M 3341 1997 
L 3341 0 
L 2766 0 
L 2766 531 
Q 2569 213 2275 61 
Q 1981 -91 1556 -91 
Q 1019 -91 701 211 
Q 384 513 384 1019 
Q 384 1609 779 1909 
Q 1175 2209 1959 2209 
L 2766 2209 
L 2766 2266 
Q 2766 2663 2505 2880 
Q 2244 3097 1772 3097 
Q 1472 3097 1187 3025 
Q 903 2953 641 2809 
L 641 3341 
Q 956 3463 1253 3523 
Q 1550 3584 1831 3584 
Q 2591 3584 2966 3190 
Q 3341 2797 3341 1997 
z
" transform="scale(0.015625)"/>
      <path id="DejaVuSans-69" d="M 603 3500 
L 1178 3500 
L 1178 0 
L 603 0 
L 603 3500 
z
M 603 4863 
L 1178 4863 
L 1178 4134 
L 603 4134 
L 603 4863 
z
" transform="scale(0.015625)"/>
      <path id="DejaVuSans-76" d="M 191 3500 
L 800 3500 
L 1894 563 
L 2988 3500 
L 3597 3500 
L 2284 0 
L 1503 0 
L 191 3500 
z
" transform="scale(0.015625)"/>
      <path id="DejaVuSans-65" d="M 3597 1894 
L 3597 1613 
L 953 1613 
Q 991 1019 1311 708 
Q 1631 397 2203 397 
Q 2534 397 2845 478 
Q 3156 559 3463 722 
L 3463 178 
Q 3153 47 2828 -22 
Q 2503 -91 2169 -91 
Q 1331 -91 842 396 
Q 353 884 353 1716 
Q 353 2575 817 3079 
Q 1281 3584 2069 3584 
Q 2775 3584 3186 3129 
Q 3597 2675 3597 1894 
z
M 3022 2063 
Q 3016 2534 2758 2815 
Q 2500 3097 2075 3097 
Q 1594 3097 1305 2825 
Q 1016 2553 972 2059 
L 3022 2063 
z
" transform="scale(0.015625)"/>
      <path id="DejaVuSans-5f" d="M 3263 -1063 
L 3263 -1509 
L -63 -1509 
L -63 -1063 
L 3263 -1063 
z
" transform="scale(0.015625)"/>
      <path id="DejaVuSans-63" d="M 3122 3366 
L 3122 2828 
Q 2878 2963 2633 3030 
Q 2388 3097 2138 3097 
Q 1578 3097 1268 2742 
Q 959 2388 959 1747 
Q 959 1106 1268 751 
Q 1578 397 2138 397 
Q 2388 397 2633 464 
Q 2878 531 3122 666 
L 3122 134 
Q 2881 22 2623 -34 
Q 2366 -91 2075 -91 
Q 1284 -91 818 406 
Q 353 903 353 1747 
Q 353 2603 823 3093 
Q 1294 3584 2113 3584 
Q 2378 3584 2631 3529 
Q 2884 3475 3122 3366 
z
" transform="scale(0.015625)"/>
     </defs>
     <use xlink:href="#DejaVuSans-6e"/>
     <use xlink:href="#DejaVuSans-61" x="63.378906"/>
     <use xlink:href="#DejaVuSans-69" x="124.658203"/>
     <use xlink:href="#DejaVuSans-76" x="152.441406"/>
     <use xlink:href="#DejaVuSans-65" x="211.621094"/>
     <use xlink:href="#DejaVuSans-5f" x="273.144531"/>
     <use xlink:href="#DejaVuSans-32" x="323.144531"/>
     <use xlink:href="#DejaVuSans-30" x="386.767578"/>
     <use xlink:href="#DejaVuSans-5f" x="450.390625"/>
     <use xlink:href="#DejaVuSans-63" x="500.390625"/>
     <use xlink:href="#DejaVuSans-63" x="555.371094"/>
     <use xlink:href="#DejaVuSans-69" x="610.351562"/>
    </g>
   </g>
   <g id="legend_1">
    <g id="patch_7">
     <path d="M 64.6 108.1845 
L 200.035938 108.1845 
Q 202.035938 108.1845 202.035938 106.1845 
L 202.035938 48.472 
Q 202.035938 46.472 200.035938 46.472 
L 64.6 46.472 
Q 62.6 46.472 62.6 48.472 
L 62.6 106.1845 
Q 62.6 108.1845 64.6 108.1845 
z
" style="fill: #ffffff; opacity: 0.8; stroke: #cccccc; stroke-linejoin: miter"/>
    </g>
    <g id="line2d_18">
     <path d="M 66.6 54.570438 
L 76.6 54.570438 
L 86.6 54.570438 
" style="fill: none; stroke: #1f77b4; stroke-opacity: 0.7; stroke-width: 0.5; stroke-linecap: square"/>
    </g>
    <g id="text_15">
     <!-- Positive predictions -->
     <g transform="translate(94.6 58.070438) scale(0.1 -0.1)">
      <defs>
       <path id="DejaVuSans-50" d="M 1259 4147 
L 1259 2394 
L 2053 2394 
Q 2494 2394 2734 2622 
Q 2975 2850 2975 3272 
Q 2975 3691 2734 3919 
Q 2494 4147 2053 4147 
L 1259 4147 
z
M 628 4666 
L 2053 4666 
Q 2838 4666 3239 4311 
Q 3641 3956 3641 3272 
Q 3641 2581 3239 2228 
Q 2838 1875 2053 1875 
L 1259 1875 
L 1259 0 
L 628 0 
L 628 4666 
z
" transform="scale(0.015625)"/>
       <path id="DejaVuSans-6f" d="M 1959 3097 
Q 1497 3097 1228 2736 
Q 959 2375 959 1747 
Q 959 1119 1226 758 
Q 1494 397 1959 397 
Q 2419 397 2687 759 
Q 2956 1122 2956 1747 
Q 2956 2369 2687 2733 
Q 2419 3097 1959 3097 
z
M 1959 3584 
Q 2709 3584 3137 3096 
Q 3566 2609 3566 1747 
Q 3566 888 3137 398 
Q 2709 -91 1959 -91 
Q 1206 -91 779 398 
Q 353 888 353 1747 
Q 353 2609 779 3096 
Q 1206 3584 1959 3584 
z
" transform="scale(0.015625)"/>
       <path id="DejaVuSans-73" d="M 2834 3397 
L 2834 2853 
Q 2591 2978 2328 3040 
Q 2066 3103 1784 3103 
Q 1356 3103 1142 2972 
Q 928 2841 928 2578 
Q 928 2378 1081 2264 
Q 1234 2150 1697 2047 
L 1894 2003 
Q 2506 1872 2764 1633 
Q 3022 1394 3022 966 
Q 3022 478 2636 193 
Q 2250 -91 1575 -91 
Q 1294 -91 989 -36 
Q 684 19 347 128 
L 347 722 
Q 666 556 975 473 
Q 1284 391 1588 391 
Q 1994 391 2212 530 
Q 2431 669 2431 922 
Q 2431 1156 2273 1281 
Q 2116 1406 1581 1522 
L 1381 1569 
Q 847 1681 609 1914 
Q 372 2147 372 2553 
Q 372 3047 722 3315 
Q 1072 3584 1716 3584 
Q 2034 3584 2315 3537 
Q 2597 3491 2834 3397 
z
" transform="scale(0.015625)"/>
       <path id="DejaVuSans-74" d="M 1172 4494 
L 1172 3500 
L 2356 3500 
L 2356 3053 
L 1172 3053 
L 1172 1153 
Q 1172 725 1289 603 
Q 1406 481 1766 481 
L 2356 481 
L 2356 0 
L 1766 0 
Q 1100 0 847 248 
Q 594 497 594 1153 
L 594 3053 
L 172 3053 
L 172 3500 
L 594 3500 
L 594 4494 
L 1172 4494 
z
" transform="scale(0.015625)"/>
       <path id="DejaVuSans-20" transform="scale(0.015625)"/>
       <path id="DejaVuSans-70" d="M 1159 525 
L 1159 -1331 
L 581 -1331 
L 581 3500 
L 1159 3500 
L 1159 2969 
Q 1341 3281 1617 3432 
Q 1894 3584 2278 3584 
Q 2916 3584 3314 3078 
Q 3713 2572 3713 1747 
Q 3713 922 3314 415 
Q 2916 -91 2278 -91 
Q 1894 -91 1617 61 
Q 1341 213 1159 525 
z
M 3116 1747 
Q 3116 2381 2855 2742 
Q 2594 3103 2138 3103 
Q 1681 3103 1420 2742 
Q 1159 2381 1159 1747 
Q 1159 1113 1420 752 
Q 1681 391 2138 391 
Q 2594 391 2855 752 
Q 3116 1113 3116 1747 
z
" transform="scale(0.015625)"/>
       <path id="DejaVuSans-72" d="M 2631 2963 
Q 2534 3019 2420 3045 
Q 2306 3072 2169 3072 
Q 1681 3072 1420 2755 
Q 1159 2438 1159 1844 
L 1159 0 
L 581 0 
L 581 3500 
L 1159 3500 
L 1159 2956 
Q 1341 3275 1631 3429 
Q 1922 3584 2338 3584 
Q 2397 3584 2469 3576 
Q 2541 3569 2628 3553 
L 2631 2963 
z
" transform="scale(0.015625)"/>
       <path id="DejaVuSans-64" d="M 2906 2969 
L 2906 4863 
L 3481 4863 
L 3481 0 
L 2906 0 
L 2906 525 
Q 2725 213 2448 61 
Q 2172 -91 1784 -91 
Q 1150 -91 751 415 
Q 353 922 353 1747 
Q 353 2572 751 3078 
Q 1150 3584 1784 3584 
Q 2172 3584 2448 3432 
Q 2725 3281 2906 2969 
z
M 947 1747 
Q 947 1113 1208 752 
Q 1469 391 1925 391 
Q 2381 391 2643 752 
Q 2906 1113 2906 1747 
Q 2906 2381 2643 2742 
Q 2381 3103 1925 3103 
Q 1469 3103 1208 2742 
Q 947 2381 947 1747 
z
" transform="scale(0.015625)"/>
      </defs>
      <use xlink:href="#DejaVuSans-50"/>
      <use xlink:href="#DejaVuSans-6f" x="56.677734"/>
      <use xlink:href="#DejaVuSans-73" x="117.859375"/>
      <use xlink:href="#DejaVuSans-69" x="169.958984"/>
      <use xlink:href="#DejaVuSans-74" x="197.742188"/>
      <use xlink:href="#DejaVuSans-69" x="236.951172"/>
      <use xlink:href="#DejaVuSans-76" x="264.734375"/>
      <use xlink:href="#DejaVuSans-65" x="323.914062"/>
      <use xlink:href="#DejaVuSans-20" x="385.4375"/>
      <use xlink:href="#DejaVuSans-70" x="417.224609"/>
      <use xlink:href="#DejaVuSans-72" x="480.701172"/>
      <use xlink:href="#DejaVuSans-65" x="519.564453"/>
      <use xlink:href="#DejaVuSans-64" x="581.087891"/>
      <use xlink:href="#DejaVuSans-69" x="644.564453"/>
      <use xlink:href="#DejaVuSans-63" x="672.347656"/>
      <use xlink:href="#DejaVuSans-74" x="727.328125"/>
      <use xlink:href="#DejaVuSans-69" x="766.537109"/>
      <use xlink:href="#DejaVuSans-6f" x="794.320312"/>
      <use xlink:href="#DejaVuSans-6e" x="855.501953"/>
      <use xlink:href="#DejaVuSans-73" x="918.880859"/>
     </g>
    </g>
    <g id="line2d_19">
     <path d="M 66.6 69.248563 
L 76.6 69.248563 
L 86.6 69.248563 
" style="fill: none; stroke: #ff7f0e; stroke-opacity: 0.7; stroke-width: 0.5; stroke-linecap: square"/>
    </g>
    <g id="text_16">
     <!-- Negative predictions -->
     <g transform="translate(94.6 72.748563) scale(0.1 -0.1)">
      <defs>
       <path id="DejaVuSans-4e" d="M 628 4666 
L 1478 4666 
L 3547 763 
L 3547 4666 
L 4159 4666 
L 4159 0 
L 3309 0 
L 1241 3903 
L 1241 0 
L 628 0 
L 628 4666 
z
" transform="scale(0.015625)"/>
       <path id="DejaVuSans-67" d="M 2906 1791 
Q 2906 2416 2648 2759 
Q 2391 3103 1925 3103 
Q 1463 3103 1205 2759 
Q 947 2416 947 1791 
Q 947 1169 1205 825 
Q 1463 481 1925 481 
Q 2391 481 2648 825 
Q 2906 1169 2906 1791 
z
M 3481 434 
Q 3481 -459 3084 -895 
Q 2688 -1331 1869 -1331 
Q 1566 -1331 1297 -1286 
Q 1028 -1241 775 -1147 
L 775 -588 
Q 1028 -725 1275 -790 
Q 1522 -856 1778 -856 
Q 2344 -856 2625 -561 
Q 2906 -266 2906 331 
L 2906 616 
Q 2728 306 2450 153 
Q 2172 0 1784 0 
Q 1141 0 747 490 
Q 353 981 353 1791 
Q 353 2603 747 3093 
Q 1141 3584 1784 3584 
Q 2172 3584 2450 3431 
Q 2728 3278 2906 2969 
L 2906 3500 
L 3481 3500 
L 3481 434 
z
" transform="scale(0.015625)"/>
      </defs>
      <use xlink:href="#DejaVuSans-4e"/>
      <use xlink:href="#DejaVuSans-65" x="74.804688"/>
      <use xlink:href="#DejaVuSans-67" x="136.328125"/>
      <use xlink:href="#DejaVuSans-61" x="199.804688"/>
      <use xlink:href="#DejaVuSans-74" x="261.083984"/>
      <use xlink:href="#DejaVuSans-69" x="300.292969"/>
      <use xlink:href="#DejaVuSans-76" x="328.076172"/>
      <use xlink:href="#DejaVuSans-65" x="387.255859"/>
      <use xlink:href="#DejaVuSans-20" x="448.779297"/>
      <use xlink:href="#DejaVuSans-70" x="480.566406"/>
      <use xlink:href="#DejaVuSans-72" x="544.042969"/>
      <use xlink:href="#DejaVuSans-65" x="582.90625"/>
      <use xlink:href="#DejaVuSans-64" x="644.429688"/>
      <use xlink:href="#DejaVuSans-69" x="707.90625"/>
      <use xlink:href="#DejaVuSans-63" x="735.689453"/>
      <use xlink:href="#DejaVuSans-74" x="790.669922"/>
      <use xlink:href="#DejaVuSans-69" x="829.878906"/>
      <use xlink:href="#DejaVuSans-6f" x="857.662109"/>
      <use xlink:href="#DejaVuSans-6e" x="918.84375"/>
      <use xlink:href="#DejaVuSans-73" x="982.222656"/>
     </g>
    </g>
    <g id="line2d_20">
     <path d="M 66.6 83.926688 
L 76.6 83.926688 
L 86.6 83.926688 
" style="fill: none; stroke: #2ca02c; stroke-opacity: 0.7; stroke-width: 0.5; stroke-linecap: square"/>
    </g>
    <g id="text_17">
     <!-- Average predictions -->
     <g transform="translate(94.6 87.426688) scale(0.1 -0.1)">
      <defs>
       <path id="DejaVuSans-41" d="M 2188 4044 
L 1331 1722 
L 3047 1722 
L 2188 4044 
z
M 1831 4666 
L 2547 4666 
L 4325 0 
L 3669 0 
L 3244 1197 
L 1141 1197 
L 716 0 
L 50 0 
L 1831 4666 
z
" transform="scale(0.015625)"/>
      </defs>
      <use xlink:href="#DejaVuSans-41"/>
      <use xlink:href="#DejaVuSans-76" x="62.533203"/>
      <use xlink:href="#DejaVuSans-65" x="121.712891"/>
      <use xlink:href="#DejaVuSans-72" x="183.236328"/>
      <use xlink:href="#DejaVuSans-61" x="224.349609"/>
      <use xlink:href="#DejaVuSans-67" x="285.628906"/>
      <use xlink:href="#DejaVuSans-65" x="349.105469"/>
      <use xlink:href="#DejaVuSans-20" x="410.628906"/>
      <use xlink:href="#DejaVuSans-70" x="442.416016"/>
      <use xlink:href="#DejaVuSans-72" x="505.892578"/>
      <use xlink:href="#DejaVuSans-65" x="544.755859"/>
      <use xlink:href="#DejaVuSans-64" x="606.279297"/>
      <use xlink:href="#DejaVuSans-69" x="669.755859"/>
      <use xlink:href="#DejaVuSans-63" x="697.539062"/>
      <use xlink:href="#DejaVuSans-74" x="752.519531"/>
      <use xlink:href="#DejaVuSans-69" x="791.728516"/>
      <use xlink:href="#DejaVuSans-6f" x="819.511719"/>
      <use xlink:href="#DejaVuSans-6e" x="880.693359"/>
      <use xlink:href="#DejaVuSans-73" x="944.072266"/>
     </g>
    </g>
    <g id="line2d_21">
     <path d="M 66.6 98.604813 
L 76.6 98.604813 
L 86.6 98.604813 
" style="fill: none; stroke: #d62728; stroke-opacity: 0.7; stroke-width: 0.5; stroke-linecap: square"/>
    </g>
    <g id="text_18">
     <!-- Actual values -->
     <g transform="translate(94.6 102.104813) scale(0.1 -0.1)">
      <defs>
       <path id="DejaVuSans-75" d="M 544 1381 
L 544 3500 
L 1119 3500 
L 1119 1403 
Q 1119 906 1312 657 
Q 1506 409 1894 409 
Q 2359 409 2629 706 
Q 2900 1003 2900 1516 
L 2900 3500 
L 3475 3500 
L 3475 0 
L 2900 0 
L 2900 538 
Q 2691 219 2414 64 
Q 2138 -91 1772 -91 
Q 1169 -91 856 284 
Q 544 659 544 1381 
z
M 1991 3584 
L 1991 3584 
z
" transform="scale(0.015625)"/>
       <path id="DejaVuSans-6c" d="M 603 4863 
L 1178 4863 
L 1178 0 
L 603 0 
L 603 4863 
z
" transform="scale(0.015625)"/>
      </defs>
      <use xlink:href="#DejaVuSans-41"/>
      <use xlink:href="#DejaVuSans-63" x="66.658203"/>
      <use xlink:href="#DejaVuSans-74" x="121.638672"/>
      <use xlink:href="#DejaVuSans-75" x="160.847656"/>
      <use xlink:href="#DejaVuSans-61" x="224.226562"/>
      <use xlink:href="#DejaVuSans-6c" x="285.505859"/>
      <use xlink:href="#DejaVuSans-20" x="313.289062"/>
      <use xlink:href="#DejaVuSans-76" x="345.076172"/>
      <use xlink:href="#DejaVuSans-61" x="404.255859"/>
      <use xlink:href="#DejaVuSans-6c" x="465.535156"/>
      <use xlink:href="#DejaVuSans-75" x="493.318359"/>
      <use xlink:href="#DejaVuSans-65" x="556.697266"/>
      <use xlink:href="#DejaVuSans-73" x="618.220703"/>
     </g>
    </g>
   </g>
  </g>
 </g>
 <defs>
  <clipPath id="p7c1cfdba2b">
   <rect x="57.6" y="41.472" width="357.12" height="266.112"/>
  </clipPath>
 </defs>
</svg>
