<?xml version="1.0" encoding="utf-8" standalone="no"?>
<!DOCTYPE svg PUBLIC "-//W3C//DTD SVG 1.1//EN"
  "http://www.w3.org/Graphics/SVG/1.1/DTD/svg11.dtd">
<svg xmlns:xlink="http://www.w3.org/1999/xlink" width="460.8pt" height="345.6pt" viewBox="0 0 460.8 345.6" xmlns="http://www.w3.org/2000/svg" version="1.1">
 <metadata>
  <rdf:RDF xmlns:dc="http://purl.org/dc/elements/1.1/" xmlns:cc="http://creativecommons.org/ns#" xmlns:rdf="http://www.w3.org/1999/02/22-rdf-syntax-ns#">
   <cc:Work>
    <dc:type rdf:resource="http://purl.org/dc/dcmitype/StillImage"/>
    <dc:date>2024-07-10T15:28:43.846957</dc:date>
    <dc:format>image/svg+xml</dc:format>
    <dc:creator>
     <cc:Agent>
      <dc:title>Matplotlib v3.9.0, https://matplotlib.org/</dc:title>
     </cc:Agent>
    </dc:creator>
   </cc:Work>
  </rdf:RDF>
 </metadata>
 <defs>
  <style type="text/css">*{stroke-linejoin: round; stroke-linecap: butt}</style>
 </defs>
 <g id="figure_1">
  <g id="patch_1">
   <path d="M 0 345.6 
L 460.8 345.6 
L 460.8 0 
L 0 0 
z
" style="fill: #ffffff"/>
  </g>
  <g id="axes_1">
   <g id="patch_2">
    <path d="M 57.6 307.584 
L 414.72 307.584 
L 414.72 41.472 
L 57.6 41.472 
z
" style="fill: #ffffff"/>
   </g>
   <g id="matplotlib.axis_1">
    <g id="xtick_1">
     <g id="line2d_1">
      <defs>
       <path id="m20739f40ea" d="M 0 0 
L 0 3.5 
" style="stroke: #000000; stroke-width: 0.8"/>
      </defs>
      <g>
       <use xlink:href="#m20739f40ea" x="73.832727" y="307.584" style="stroke: #000000; stroke-width: 0.8"/>
      </g>
     </g>
     <g id="text_1">
      <!-- 0 -->
      <g transform="translate(70.651477 322.182437) scale(0.1 -0.1)">
       <defs>
        <path id="DejaVuSans-30" d="M 2034 4250 
Q 1547 4250 1301 3770 
Q 1056 3291 1056 2328 
Q 1056 1369 1301 889 
Q 1547 409 2034 409 
Q 2525 409 2770 889 
Q 3016 1369 3016 2328 
Q 3016 3291 2770 3770 
Q 2525 4250 2034 4250 
z
M 2034 4750 
Q 2819 4750 3233 4129 
Q 3647 3509 3647 2328 
Q 3647 1150 3233 529 
Q 2819 -91 2034 -91 
Q 1250 -91 836 529 
Q 422 1150 422 2328 
Q 422 3509 836 4129 
Q 1250 4750 2034 4750 
z
" transform="scale(0.015625)"/>
       </defs>
       <use xlink:href="#DejaVuSans-30"/>
      </g>
     </g>
    </g>
    <g id="xtick_2">
     <g id="line2d_2">
      <g>
       <use xlink:href="#m20739f40ea" x="149.333784" y="307.584" style="stroke: #000000; stroke-width: 0.8"/>
      </g>
     </g>
     <g id="text_2">
      <!-- 50 -->
      <g transform="translate(142.971284 322.182437) scale(0.1 -0.1)">
       <defs>
        <path id="DejaVuSans-35" d="M 691 4666 
L 3169 4666 
L 3169 4134 
L 1269 4134 
L 1269 2991 
Q 1406 3038 1543 3061 
Q 1681 3084 1819 3084 
Q 2600 3084 3056 2656 
Q 3513 2228 3513 1497 
Q 3513 744 3044 326 
Q 2575 -91 1722 -91 
Q 1428 -91 1123 -41 
Q 819 9 494 109 
L 494 744 
Q 775 591 1075 516 
Q 1375 441 1709 441 
Q 2250 441 2565 725 
Q 2881 1009 2881 1497 
Q 2881 1984 2565 2268 
Q 2250 2553 1709 2553 
Q 1456 2553 1204 2497 
Q 953 2441 691 2322 
L 691 4666 
z
" transform="scale(0.015625)"/>
       </defs>
       <use xlink:href="#DejaVuSans-35"/>
       <use xlink:href="#DejaVuSans-30" x="63.623047"/>
      </g>
     </g>
    </g>
    <g id="xtick_3">
     <g id="line2d_3">
      <g>
       <use xlink:href="#m20739f40ea" x="224.834841" y="307.584" style="stroke: #000000; stroke-width: 0.8"/>
      </g>
     </g>
     <g id="text_3">
      <!-- 100 -->
      <g transform="translate(215.291091 322.182437) scale(0.1 -0.1)">
       <defs>
        <path id="DejaVuSans-31" d="M 794 531 
L 1825 531 
L 1825 4091 
L 703 3866 
L 703 4441 
L 1819 4666 
L 2450 4666 
L 2450 531 
L 3481 531 
L 3481 0 
L 794 0 
L 794 531 
z
" transform="scale(0.015625)"/>
       </defs>
       <use xlink:href="#DejaVuSans-31"/>
       <use xlink:href="#DejaVuSans-30" x="63.623047"/>
       <use xlink:href="#DejaVuSans-30" x="127.246094"/>
      </g>
     </g>
    </g>
    <g id="xtick_4">
     <g id="line2d_4">
      <g>
       <use xlink:href="#m20739f40ea" x="300.335899" y="307.584" style="stroke: #000000; stroke-width: 0.8"/>
      </g>
     </g>
     <g id="text_4">
      <!-- 150 -->
      <g transform="translate(290.792149 322.182437) scale(0.1 -0.1)">
       <use xlink:href="#DejaVuSans-31"/>
       <use xlink:href="#DejaVuSans-35" x="63.623047"/>
       <use xlink:href="#DejaVuSans-30" x="127.246094"/>
      </g>
     </g>
    </g>
    <g id="xtick_5">
     <g id="line2d_5">
      <g>
       <use xlink:href="#m20739f40ea" x="375.836956" y="307.584" style="stroke: #000000; stroke-width: 0.8"/>
      </g>
     </g>
     <g id="text_5">
      <!-- 200 -->
      <g transform="translate(366.293206 322.182437) scale(0.1 -0.1)">
       <defs>
        <path id="DejaVuSans-32" d="M 1228 531 
L 3431 531 
L 3431 0 
L 469 0 
L 469 531 
Q 828 903 1448 1529 
Q 2069 2156 2228 2338 
Q 2531 2678 2651 2914 
Q 2772 3150 2772 3378 
Q 2772 3750 2511 3984 
Q 2250 4219 1831 4219 
Q 1534 4219 1204 4116 
Q 875 4013 500 3803 
L 500 4441 
Q 881 4594 1212 4672 
Q 1544 4750 1819 4750 
Q 2544 4750 2975 4387 
Q 3406 4025 3406 3419 
Q 3406 3131 3298 2873 
Q 3191 2616 2906 2266 
Q 2828 2175 2409 1742 
Q 1991 1309 1228 531 
z
" transform="scale(0.015625)"/>
       </defs>
       <use xlink:href="#DejaVuSans-32"/>
       <use xlink:href="#DejaVuSans-30" x="63.623047"/>
       <use xlink:href="#DejaVuSans-30" x="127.246094"/>
      </g>
     </g>
    </g>
   </g>
   <g id="matplotlib.axis_2">
    <g id="ytick_1">
     <g id="line2d_6">
      <defs>
       <path id="m5fe9ab68a6" d="M 0 0 
L -3.5 0 
" style="stroke: #000000; stroke-width: 0.8"/>
      </defs>
      <g>
       <use xlink:href="#m5fe9ab68a6" x="57.6" y="293.783449" style="stroke: #000000; stroke-width: 0.8"/>
      </g>
     </g>
     <g id="text_6">
      <!-- 5000 -->
      <g transform="translate(25.15 297.582668) scale(0.1 -0.1)">
       <use xlink:href="#DejaVuSans-35"/>
       <use xlink:href="#DejaVuSans-30" x="63.623047"/>
       <use xlink:href="#DejaVuSans-30" x="127.246094"/>
       <use xlink:href="#DejaVuSans-30" x="190.869141"/>
      </g>
     </g>
    </g>
    <g id="ytick_2">
     <g id="line2d_7">
      <g>
       <use xlink:href="#m5fe9ab68a6" x="57.6" y="262.217687" style="stroke: #000000; stroke-width: 0.8"/>
      </g>
     </g>
     <g id="text_7">
      <!-- 5500 -->
      <g transform="translate(25.15 266.016906) scale(0.1 -0.1)">
       <use xlink:href="#DejaVuSans-35"/>
       <use xlink:href="#DejaVuSans-35" x="63.623047"/>
       <use xlink:href="#DejaVuSans-30" x="127.246094"/>
       <use xlink:href="#DejaVuSans-30" x="190.869141"/>
      </g>
     </g>
    </g>
    <g id="ytick_3">
     <g id="line2d_8">
      <g>
       <use xlink:href="#m5fe9ab68a6" x="57.6" y="230.651925" style="stroke: #000000; stroke-width: 0.8"/>
      </g>
     </g>
     <g id="text_8">
      <!-- 6000 -->
      <g transform="translate(25.15 234.451144) scale(0.1 -0.1)">
       <defs>
        <path id="DejaVuSans-36" d="M 2113 2584 
Q 1688 2584 1439 2293 
Q 1191 2003 1191 1497 
Q 1191 994 1439 701 
Q 1688 409 2113 409 
Q 2538 409 2786 701 
Q 3034 994 3034 1497 
Q 3034 2003 2786 2293 
Q 2538 2584 2113 2584 
z
M 3366 4563 
L 3366 3988 
Q 3128 4100 2886 4159 
Q 2644 4219 2406 4219 
Q 1781 4219 1451 3797 
Q 1122 3375 1075 2522 
Q 1259 2794 1537 2939 
Q 1816 3084 2150 3084 
Q 2853 3084 3261 2657 
Q 3669 2231 3669 1497 
Q 3669 778 3244 343 
Q 2819 -91 2113 -91 
Q 1303 -91 875 529 
Q 447 1150 447 2328 
Q 447 3434 972 4092 
Q 1497 4750 2381 4750 
Q 2619 4750 2861 4703 
Q 3103 4656 3366 4563 
z
" transform="scale(0.015625)"/>
       </defs>
       <use xlink:href="#DejaVuSans-36"/>
       <use xlink:href="#DejaVuSans-30" x="63.623047"/>
       <use xlink:href="#DejaVuSans-30" x="127.246094"/>
       <use xlink:href="#DejaVuSans-30" x="190.869141"/>
      </g>
     </g>
    </g>
    <g id="ytick_4">
     <g id="line2d_9">
      <g>
       <use xlink:href="#m5fe9ab68a6" x="57.6" y="199.086163" style="stroke: #000000; stroke-width: 0.8"/>
      </g>
     </g>
     <g id="text_9">
      <!-- 6500 -->
      <g transform="translate(25.15 202.885382) scale(0.1 -0.1)">
       <use xlink:href="#DejaVuSans-36"/>
       <use xlink:href="#DejaVuSans-35" x="63.623047"/>
       <use xlink:href="#DejaVuSans-30" x="127.246094"/>
       <use xlink:href="#DejaVuSans-30" x="190.869141"/>
      </g>
     </g>
    </g>
    <g id="ytick_5">
     <g id="line2d_10">
      <g>
       <use xlink:href="#m5fe9ab68a6" x="57.6" y="167.520401" style="stroke: #000000; stroke-width: 0.8"/>
      </g>
     </g>
     <g id="text_10">
      <!-- 7000 -->
      <g transform="translate(25.15 171.31962) scale(0.1 -0.1)">
       <defs>
        <path id="DejaVuSans-37" d="M 525 4666 
L 3525 4666 
L 3525 4397 
L 1831 0 
L 1172 0 
L 2766 4134 
L 525 4134 
L 525 4666 
z
" transform="scale(0.015625)"/>
       </defs>
       <use xlink:href="#DejaVuSans-37"/>
       <use xlink:href="#DejaVuSans-30" x="63.623047"/>
       <use xlink:href="#DejaVuSans-30" x="127.246094"/>
       <use xlink:href="#DejaVuSans-30" x="190.869141"/>
      </g>
     </g>
    </g>
    <g id="ytick_6">
     <g id="line2d_11">
      <g>
       <use xlink:href="#m5fe9ab68a6" x="57.6" y="135.954639" style="stroke: #000000; stroke-width: 0.8"/>
      </g>
     </g>
     <g id="text_11">
      <!-- 7500 -->
      <g transform="translate(25.15 139.753858) scale(0.1 -0.1)">
       <use xlink:href="#DejaVuSans-37"/>
       <use xlink:href="#DejaVuSans-35" x="63.623047"/>
       <use xlink:href="#DejaVuSans-30" x="127.246094"/>
       <use xlink:href="#DejaVuSans-30" x="190.869141"/>
      </g>
     </g>
    </g>
    <g id="ytick_7">
     <g id="line2d_12">
      <g>
       <use xlink:href="#m5fe9ab68a6" x="57.6" y="104.388877" style="stroke: #000000; stroke-width: 0.8"/>
      </g>
     </g>
     <g id="text_12">
      <!-- 8000 -->
      <g transform="translate(25.15 108.188096) scale(0.1 -0.1)">
       <defs>
        <path id="DejaVuSans-38" d="M 2034 2216 
Q 1584 2216 1326 1975 
Q 1069 1734 1069 1313 
Q 1069 891 1326 650 
Q 1584 409 2034 409 
Q 2484 409 2743 651 
Q 3003 894 3003 1313 
Q 3003 1734 2745 1975 
Q 2488 2216 2034 2216 
z
M 1403 2484 
Q 997 2584 770 2862 
Q 544 3141 544 3541 
Q 544 4100 942 4425 
Q 1341 4750 2034 4750 
Q 2731 4750 3128 4425 
Q 3525 4100 3525 3541 
Q 3525 3141 3298 2862 
Q 3072 2584 2669 2484 
Q 3125 2378 3379 2068 
Q 3634 1759 3634 1313 
Q 3634 634 3220 271 
Q 2806 -91 2034 -91 
Q 1263 -91 848 271 
Q 434 634 434 1313 
Q 434 1759 690 2068 
Q 947 2378 1403 2484 
z
M 1172 3481 
Q 1172 3119 1398 2916 
Q 1625 2713 2034 2713 
Q 2441 2713 2670 2916 
Q 2900 3119 2900 3481 
Q 2900 3844 2670 4047 
Q 2441 4250 2034 4250 
Q 1625 4250 1398 4047 
Q 1172 3844 1172 3481 
z
" transform="scale(0.015625)"/>
       </defs>
       <use xlink:href="#DejaVuSans-38"/>
       <use xlink:href="#DejaVuSans-30" x="63.623047"/>
       <use xlink:href="#DejaVuSans-30" x="127.246094"/>
       <use xlink:href="#DejaVuSans-30" x="190.869141"/>
      </g>
     </g>
    </g>
    <g id="ytick_8">
     <g id="line2d_13">
      <g>
       <use xlink:href="#m5fe9ab68a6" x="57.6" y="72.823115" style="stroke: #000000; stroke-width: 0.8"/>
      </g>
     </g>
     <g id="text_13">
      <!-- 8500 -->
      <g transform="translate(25.15 76.622334) scale(0.1 -0.1)">
       <use xlink:href="#DejaVuSans-38"/>
       <use xlink:href="#DejaVuSans-35" x="63.623047"/>
       <use xlink:href="#DejaVuSans-30" x="127.246094"/>
       <use xlink:href="#DejaVuSans-30" x="190.869141"/>
      </g>
     </g>
    </g>
   </g>
   <g id="line2d_14">
    <path d="M 73.832727 295.235474 
L 75.342748 293.688752 
L 76.85277 290.50061 
L 78.362791 290.816267 
L 81.382833 290.12182 
L 82.892854 290.058689 
L 84.402875 289.301111 
L 85.912896 289.395808 
L 87.422918 287.091507 
L 88.932939 281.314973 
L 90.44296 274.244242 
L 91.952981 277.432384 
L 93.463002 277.874305 
L 94.973023 279.263198 
L 96.483044 277.68491 
L 97.993066 276.832635 
L 99.503087 275.790965 
L 101.013108 273.202572 
L 102.523129 271.750547 
L 104.03315 269.256852 
L 105.543171 269.414681 
L 107.053192 267.457603 
L 108.563214 268.215182 
L 110.073235 268.025787 
L 111.583256 267.962656 
L 113.093277 267.015683 
L 114.603298 265.784618 
L 116.113319 266.194973 
L 117.62334 266.06871 
L 119.133362 266.06871 
L 120.643383 265.816184 
L 122.153404 265.721486 
L 123.663425 266.321236 
L 125.173446 266.51063 
L 126.683467 266.447499 
L 128.193488 266.51063 
L 129.70351 263.227791 
L 131.213531 261.144451 
L 132.723552 263.259357 
L 134.233573 261.52324 
L 135.743594 260.765662 
L 137.253615 260.70253 
L 138.763636 260.797228 
L 140.273658 260.197478 
L 141.783679 259.88182 
L 143.2937 259.061111 
L 144.803721 256.97777 
L 146.313742 255.304785 
L 147.823763 254.199983 
L 149.333784 251.516894 
L 150.843805 249.686079 
L 152.353827 247.255516 
L 153.863848 246.40324 
L 155.373869 246.687332 
L 156.88389 245.487833 
L 158.393911 245.235307 
L 159.903932 245.866622 
L 161.413953 243.341361 
L 162.923975 239.742864 
L 164.433996 238.764326 
L 165.944017 239.206246 
L 167.454038 239.869127 
L 170.47408 240.247916 
L 171.984101 240.879232 
L 173.494123 239.616601 
L 175.004144 239.99539 
L 176.514165 238.606497 
L 178.024186 238.543365 
L 179.534207 238.038313 
L 181.044228 238.164576 
L 182.554249 237.280735 
L 184.064271 234.818605 
L 185.574292 234.881737 
L 187.084313 231.914555 
L 188.594334 230.809754 
L 190.104355 230.683491 
L 191.614376 231.220109 
L 193.124397 230.651925 
L 194.634419 231.156977 
L 196.14444 231.535766 
L 197.654461 230.146873 
L 199.164482 230.273136 
L 200.674503 228.189795 
L 202.184524 224.685996 
L 203.694545 224.43347 
L 205.204567 221.403157 
L 208.224609 222.634221 
L 209.73463 222.634221 
L 211.244651 222.444827 
L 212.754672 220.550881 
L 214.264693 216.573595 
L 215.774715 217.994054 
L 217.284736 215.94228 
L 218.794757 215.468793 
L 220.304778 216.447332 
L 221.814799 215.94228 
L 223.32482 216.510463 
L 224.834841 214.30086 
L 226.344863 213.858939 
L 227.854884 212.249086 
L 230.874926 213.48015 
L 233.894968 212.596309 
L 235.404989 212.470046 
L 236.915011 209.629127 
L 238.425032 202.432134 
L 239.935053 206.567248 
L 241.445074 205.967499 
L 242.955095 205.58871 
L 244.465116 204.768 
L 245.975137 206.03063 
L 247.485159 201.485161 
L 248.99518 201.485161 
L 250.505201 198.9599 
L 252.015222 201.04324 
L 253.525243 198.328585 
L 255.035264 197.065954 
L 256.545285 192.457353 
L 258.055307 193.688418 
L 259.565328 193.467457 
L 261.075349 194.098772 
L 262.58537 194.161904 
L 264.095391 195.108877 
L 265.605412 193.972509 
L 267.115433 188.38537 
L 268.625455 191.068459 
L 271.645497 190.121486 
L 273.155518 186.838647 
L 274.665539 186.712384 
L 276.17556 184.376518 
L 277.685581 183.871466 
L 279.195603 181.97752 
L 280.705624 179.799482 
L 282.215645 181.661862 
L 283.725666 178.568418 
L 285.235687 175.159315 
L 286.745708 167.204743 
L 291.275772 159.218605 
L 292.785793 159.029211 
L 294.295814 153.694597 
L 295.805835 145.234973 
L 297.315856 147.19205 
L 298.825877 147.886497 
L 300.335899 148.075891 
L 301.84592 148.770338 
L 303.355941 148.707207 
L 304.865962 148.01276 
L 306.375983 143.656685 
L 307.886004 141.036727 
L 309.396025 140.7842 
L 310.906047 140.878898 
L 312.416068 137.280401 
L 313.926089 131.503866 
L 315.43611 131.25134 
L 316.946131 125.632635 
L 318.456152 126.137687 
L 319.966173 125.44324 
L 321.476195 124.022781 
L 322.986216 123.738689 
L 324.496237 123.643992 
L 326.006258 123.896518 
L 327.516279 123.328334 
L 329.0263 122.002572 
L 330.536321 121.876309 
L 332.046342 119.351048 
L 333.556364 107.987374 
L 335.066385 109.123741 
L 336.576406 112.18562 
L 338.086427 111.96466 
L 339.596448 111.96466 
L 341.106469 113.479816 
L 342.61649 112.911633 
L 344.126512 108.050505 
L 345.636533 108.2399 
L 347.146554 106.977269 
L 348.656575 102.4318 
L 350.166596 99.874973 
L 351.676617 101.705787 
L 353.186638 98.580777 
L 354.69666 98.770171 
L 356.206681 98.70704 
L 357.716702 98.454514 
L 359.226723 97.507541 
L 360.736744 97.318146 
L 362.246765 95.487332 
L 363.756786 91.320651 
L 365.266808 82.482238 
L 366.776829 79.357228 
L 368.28685 63.069294 
L 369.796871 62.974597 
L 371.306892 67.04658 
L 372.816913 69.603407 
L 374.326934 69.72967 
L 375.836956 70.739775 
L 377.346977 70.676643 
L 378.856998 71.055432 
L 380.367019 68.151382 
L 381.87704 67.898856 
L 383.387061 68.656434 
L 384.897082 68.782697 
L 386.407104 67.393804 
L 387.917125 66.762489 
L 389.427146 67.015015 
L 390.937167 63.92157 
L 392.447188 62.122322 
L 393.957209 61.585704 
L 395.46723 62.05919 
L 396.977252 61.648835 
L 398.487273 56.345787 
L 398.487273 56.345787 
" clip-path="url(#p1a80eb7a31)" style="fill: none; stroke: #1f77b4; stroke-opacity: 0.7; stroke-width: 0.5; stroke-linecap: square"/>
   </g>
   <g id="line2d_15">
    <path d="M 73.832727 295.488 
L 75.342748 294.288501 
L 76.85277 290.50061 
L 78.362791 291.131925 
L 79.872812 290.50061 
L 81.382833 290.12182 
L 82.892854 290.058689 
L 84.402875 288.922322 
L 85.912896 289.364242 
L 87.422918 285.95514 
L 88.932939 283.240484 
L 90.44296 277.24299 
L 91.952981 277.369253 
L 93.463002 277.874305 
L 94.973023 279.263198 
L 96.483044 276.895766 
L 97.993066 277.116727 
L 99.503087 276.232885 
L 101.013108 273.202572 
L 102.523129 272.571257 
L 104.03315 269.256852 
L 105.543171 269.730338 
L 107.053192 268.215182 
L 108.563214 268.215182 
L 110.073235 267.93109 
L 111.583256 267.962656 
L 113.093277 266.542196 
L 114.603298 266.194973 
L 116.113319 266.194973 
L 117.62334 266.005578 
L 119.133362 266.06871 
L 120.643383 265.689921 
L 122.153404 265.721486 
L 123.663425 266.605328 
L 125.173446 266.605328 
L 126.683467 266.415933 
L 128.193488 266.542196 
L 129.70351 261.586372 
L 131.213531 261.838898 
L 132.723552 262.785871 
L 134.233573 261.52324 
L 135.743594 261.018188 
L 137.253615 260.70253 
L 138.763636 260.765662 
L 141.783679 259.723992 
L 144.803721 257.672217 
L 146.313742 256.093929 
L 147.823763 254.831299 
L 149.333784 252.621695 
L 150.843805 250.664618 
L 152.353827 248.391883 
L 153.863848 247.066121 
L 155.373869 246.813595 
L 156.88389 245.487833 
L 158.393911 245.235307 
L 159.903932 245.866622 
L 161.413953 242.078731 
L 162.923975 240.942363 
L 164.433996 239.490338 
L 165.944017 239.300944 
L 167.454038 239.869127 
L 170.47408 240.247916 
L 171.984101 241.194889 
L 173.494123 238.985286 
L 175.004144 239.99539 
L 176.514165 237.91205 
L 178.024186 238.543365 
L 179.534207 238.038313 
L 181.044228 238.164576 
L 184.064271 235.639315 
L 185.574292 235.134263 
L 187.084313 232.987791 
L 188.594334 231.535766 
L 190.104355 230.967582 
L 191.614376 231.220109 
L 193.124397 230.651925 
L 194.634419 231.156977 
L 196.14444 231.535766 
L 197.654461 229.452426 
L 199.164482 230.273136 
L 200.674503 227.148125 
L 202.184524 225.853929 
L 203.694545 224.906956 
L 205.204567 222.57109 
L 206.714588 222.192301 
L 208.224609 222.634221 
L 209.73463 222.634221 
L 211.244651 222.444827 
L 212.754672 220.550881 
L 214.264693 217.899357 
L 215.774715 217.962489 
L 217.284736 215.94228 
L 218.794757 215.626622 
L 220.304778 216.447332 
L 221.814799 215.94228 
L 223.32482 216.510463 
L 224.834841 213.196058 
L 226.344863 213.858939 
L 227.854884 212.785704 
L 229.364905 212.911967 
L 230.874926 213.48015 
L 232.384947 213.03823 
L 233.894968 212.375349 
L 235.404989 212.406914 
L 236.915011 209.629127 
L 238.425032 205.146789 
L 239.935053 206.093762 
L 241.445074 205.967499 
L 242.955095 205.58871 
L 244.465116 204.768 
L 245.975137 206.03063 
L 247.485159 201.485161 
L 248.99518 201.485161 
L 250.505201 198.9599 
L 252.015222 200.348793 
L 253.525243 198.328585 
L 255.035264 197.065954 
L 256.545285 192.457353 
L 258.055307 193.278063 
L 259.565328 193.467457 
L 261.075349 194.098772 
L 262.58537 194.161904 
L 264.095391 195.108877 
L 265.605412 193.404326 
L 267.115433 190.247749 
L 268.625455 191.068459 
L 271.645497 190.121486 
L 273.155518 186.838647 
L 274.665539 186.712384 
L 276.17556 184.376518 
L 277.685581 183.871466 
L 279.195603 181.97752 
L 280.705624 180.525495 
L 282.215645 181.283073 
L 283.725666 178.568418 
L 285.235687 176.295683 
L 286.745708 170.235056 
L 288.255729 166.447165 
L 291.275772 160.639065 
L 292.785793 159.565829 
L 294.295814 155.651674 
L 295.805835 148.707207 
L 297.315856 147.697102 
L 298.825877 147.823365 
L 300.335899 148.075891 
L 301.84592 148.770338 
L 303.355941 148.707207 
L 304.865962 147.665537 
L 306.375983 143.656685 
L 307.886004 142.394054 
L 309.396025 141.320818 
L 310.906047 140.878898 
L 313.926089 133.429378 
L 315.43611 131.977353 
L 316.946131 127.747541 
L 318.456152 126.674305 
L 319.966173 125.853595 
L 321.476195 124.022781 
L 324.496237 123.643992 
L 326.006258 124.022781 
L 327.516279 123.044242 
L 329.0263 121.339691 
L 330.536321 121.813177 
L 332.046342 118.088418 
L 333.556364 111.775265 
L 335.066385 110.007582 
L 336.576406 111.459608 
L 338.086427 111.96466 
L 339.596448 111.96466 
L 341.106469 114.237395 
L 342.61649 112.627541 
L 344.126512 105.619942 
L 345.636533 108.2399 
L 347.146554 106.977269 
L 348.656575 103.946956 
L 350.166596 101.232301 
L 351.676617 101.547958 
L 353.186638 98.580777 
L 354.69666 98.770171 
L 356.206681 98.70704 
L 357.716702 98.328251 
L 359.226723 97.034054 
L 360.736744 97.223449 
L 362.246765 94.571925 
L 363.756786 92.709545 
L 365.266808 85.89134 
L 366.776829 81.535265 
L 368.28685 69.224618 
L 369.796871 65.057937 
L 371.306892 66.383699 
L 372.816913 69.603407 
L 374.326934 69.72967 
L 375.836956 70.739775 
L 377.346977 70.676643 
L 378.856998 71.055432 
L 380.367019 68.151382 
L 381.87704 67.898856 
L 383.387061 68.656434 
L 384.897082 68.782697 
L 386.407104 66.699357 
L 387.917125 66.762489 
L 389.427146 67.015015 
L 390.937167 62.374848 
L 392.447188 62.722071 
L 393.957209 61.964493 
L 395.46723 62.027624 
L 396.977252 61.459441 
L 398.487273 53.694263 
L 398.487273 53.694263 
" clip-path="url(#p1a80eb7a31)" style="fill: none; stroke: #ff7f0e; stroke-opacity: 0.7; stroke-width: 0.5; stroke-linecap: square"/>
   </g>
   <g id="line2d_16">
    <path d="M 73.832727 295.361737 
L 75.342748 293.988626 
L 76.85277 290.50061 
L 78.362791 290.974096 
L 81.382833 290.12182 
L 82.892854 290.058689 
L 84.402875 289.111716 
L 85.912896 289.380025 
L 87.422918 286.523324 
L 88.932939 282.277729 
L 90.44296 275.743616 
L 91.952981 277.400818 
L 93.463002 277.874305 
L 94.973023 279.263198 
L 96.483044 277.290338 
L 97.993066 276.974681 
L 99.503087 276.011925 
L 101.013108 273.202572 
L 102.523129 272.160902 
L 104.03315 269.256852 
L 105.543171 269.572509 
L 107.053192 267.836392 
L 108.563214 268.215182 
L 110.073235 267.978438 
L 111.583256 267.962656 
L 113.093277 266.778939 
L 114.603298 265.989795 
L 116.113319 266.194973 
L 117.62334 266.037144 
L 119.133362 266.06871 
L 120.643383 265.753052 
L 122.153404 265.721486 
L 123.663425 266.463282 
L 125.173446 266.557979 
L 126.683467 266.431716 
L 128.193488 266.526413 
L 129.70351 262.407081 
L 131.213531 261.491674 
L 132.723552 263.022614 
L 134.233573 261.52324 
L 135.743594 260.891925 
L 137.253615 260.70253 
L 138.763636 260.781445 
L 140.273658 260.197478 
L 141.783679 259.802906 
L 143.2937 258.855933 
L 146.313742 255.699357 
L 147.823763 254.515641 
L 149.333784 252.069294 
L 150.843805 250.175349 
L 152.353827 247.823699 
L 153.863848 246.734681 
L 155.373869 246.750463 
L 156.88389 245.487833 
L 158.393911 245.235307 
L 159.903932 245.866622 
L 161.413953 242.710046 
L 162.923975 240.342614 
L 164.433996 239.127332 
L 165.944017 239.253595 
L 167.454038 239.869127 
L 170.47408 240.247916 
L 171.984101 241.037061 
L 173.494123 239.300944 
L 175.004144 239.99539 
L 176.514165 238.259273 
L 178.024186 238.543365 
L 179.534207 238.038313 
L 181.044228 238.164576 
L 182.554249 237.059775 
L 184.064271 235.22896 
L 185.574292 235.008 
L 187.084313 232.451173 
L 188.594334 231.17276 
L 190.104355 230.825537 
L 191.614376 231.220109 
L 193.124397 230.651925 
L 194.634419 231.156977 
L 196.14444 231.535766 
L 197.654461 229.799649 
L 199.164482 230.273136 
L 202.184524 225.269962 
L 203.694545 224.670213 
L 205.204567 221.987123 
L 206.714588 222.097603 
L 208.224609 222.634221 
L 209.73463 222.634221 
L 211.244651 222.444827 
L 212.754672 220.550881 
L 214.264693 217.236476 
L 215.774715 217.978271 
L 217.284736 215.94228 
L 218.794757 215.547708 
L 220.304778 216.447332 
L 221.814799 215.94228 
L 223.32482 216.510463 
L 224.834841 213.748459 
L 226.344863 213.858939 
L 227.854884 212.517395 
L 229.364905 212.911967 
L 230.874926 213.48015 
L 233.894968 212.485829 
L 235.404989 212.43848 
L 236.915011 209.629127 
L 238.425032 203.789461 
L 239.935053 206.330505 
L 242.955095 205.58871 
L 244.465116 204.768 
L 245.975137 206.03063 
L 247.485159 201.485161 
L 248.99518 201.485161 
L 250.505201 198.9599 
L 252.015222 200.696017 
L 253.525243 198.328585 
L 255.035264 197.065954 
L 256.545285 192.457353 
L 258.055307 193.48324 
L 259.565328 193.467457 
L 261.075349 194.098772 
L 262.58537 194.161904 
L 264.095391 195.108877 
L 265.605412 193.688418 
L 267.115433 189.316559 
L 268.625455 191.068459 
L 271.645497 190.121486 
L 273.155518 186.838647 
L 274.665539 186.712384 
L 276.17556 184.376518 
L 277.685581 183.871466 
L 280.705624 180.162489 
L 282.215645 181.472468 
L 285.235687 175.727499 
L 286.745708 168.7199 
L 288.255729 165.500192 
L 291.275772 159.928835 
L 292.785793 159.29752 
L 294.295814 154.673136 
L 295.805835 146.97109 
L 298.825877 147.854931 
L 300.335899 148.075891 
L 301.84592 148.770338 
L 303.355941 148.707207 
L 304.865962 147.839148 
L 306.375983 143.656685 
L 307.886004 141.71539 
L 309.396025 141.052509 
L 310.906047 140.878898 
L 312.416068 137.280401 
L 313.926089 132.466622 
L 315.43611 131.614347 
L 316.946131 126.690088 
L 318.456152 126.405996 
L 319.966173 125.648418 
L 321.476195 124.022781 
L 324.496237 123.643992 
L 326.006258 123.959649 
L 327.516279 123.186288 
L 329.0263 121.671132 
L 330.536321 121.844743 
L 332.046342 118.719733 
L 333.556364 109.881319 
L 335.066385 109.565662 
L 336.576406 111.822614 
L 338.086427 111.96466 
L 339.596448 111.96466 
L 341.106469 113.858605 
L 342.61649 112.769587 
L 344.126512 106.835223 
L 345.636533 108.2399 
L 347.146554 106.977269 
L 348.656575 103.189378 
L 350.166596 100.553637 
L 351.676617 101.626873 
L 353.186638 98.580777 
L 354.69666 98.770171 
L 356.206681 98.70704 
L 357.716702 98.391382 
L 359.226723 97.270797 
L 360.736744 97.270797 
L 362.246765 95.029628 
L 363.756786 92.015098 
L 365.266808 84.186789 
L 366.776829 80.446246 
L 368.28685 66.146956 
L 369.796871 64.016267 
L 372.816913 69.603407 
L 374.326934 69.72967 
L 375.836956 70.739775 
L 377.346977 70.676643 
L 378.856998 71.055432 
L 380.367019 68.151382 
L 381.87704 67.898856 
L 383.387061 68.656434 
L 384.897082 68.782697 
L 386.407104 67.04658 
L 387.917125 66.762489 
L 389.427146 67.015015 
L 390.937167 63.148209 
L 393.957209 61.775098 
L 395.46723 62.043407 
L 396.977252 61.554138 
L 398.487273 55.020025 
L 398.487273 55.020025 
" clip-path="url(#p1a80eb7a31)" style="fill: none; stroke: #2ca02c; stroke-opacity: 0.7; stroke-width: 0.5; stroke-linecap: square"/>
   </g>
   <g id="line2d_17">
    <path d="M 73.832727 294.288501 
L 75.342748 291.76324 
L 78.362791 290.50061 
L 79.872812 290.12182 
L 81.382833 290.058689 
L 82.892854 289.301111 
L 84.402875 289.364242 
L 85.912896 287.091507 
L 87.422918 283.240484 
L 88.932939 277.24299 
L 90.44296 277.369253 
L 91.952981 277.874305 
L 93.463002 279.263198 
L 94.973023 277.68491 
L 96.483044 277.116727 
L 97.993066 276.232885 
L 99.503087 274.212676 
L 101.013108 272.571257 
L 102.523129 270.361653 
L 104.03315 269.730338 
L 105.543171 268.215182 
L 107.053192 268.215182 
L 108.563214 268.025787 
L 110.073235 267.962656 
L 113.093277 266.194973 
L 114.603298 266.194973 
L 116.113319 266.06871 
L 117.62334 266.06871 
L 119.133362 265.816184 
L 120.643383 265.753052 
L 122.153404 266.321236 
L 123.663425 266.51063 
L 125.173446 266.447499 
L 126.683467 266.51063 
L 128.193488 263.227791 
L 129.70351 261.838898 
L 131.213531 262.785871 
L 132.723552 261.52324 
L 134.233573 261.018188 
L 135.743594 260.70253 
L 137.253615 260.765662 
L 138.763636 260.197478 
L 140.273658 259.88182 
L 141.783679 259.061111 
L 143.2937 257.672217 
L 144.803721 256.093929 
L 146.313742 254.831299 
L 147.823763 252.621695 
L 149.333784 250.664618 
L 150.843805 248.391883 
L 152.353827 247.066121 
L 153.863848 246.813595 
L 155.373869 245.487833 
L 156.88389 245.235307 
L 158.393911 245.866622 
L 161.413953 240.942363 
L 162.923975 239.490338 
L 164.433996 239.300944 
L 165.944017 239.869127 
L 168.964059 240.247916 
L 170.47408 240.879232 
L 171.984101 239.616601 
L 173.494123 239.99539 
L 175.004144 238.606497 
L 176.514165 238.543365 
L 178.024186 238.038313 
L 179.534207 238.164576 
L 181.044228 237.280735 
L 182.554249 235.639315 
L 184.064271 235.134263 
L 185.574292 232.987791 
L 187.084313 231.535766 
L 188.594334 230.967582 
L 190.104355 231.220109 
L 191.614376 230.651925 
L 193.124397 231.156977 
L 194.634419 231.535766 
L 196.14444 230.146873 
L 197.654461 230.273136 
L 199.164482 228.189795 
L 200.674503 225.853929 
L 202.184524 224.906956 
L 203.694545 222.57109 
L 205.204567 222.192301 
L 206.714588 222.634221 
L 208.224609 222.634221 
L 209.73463 222.444827 
L 211.244651 220.550881 
L 212.754672 217.899357 
L 214.264693 217.962489 
L 215.774715 215.94228 
L 217.284736 215.626622 
L 218.794757 216.447332 
L 220.304778 215.94228 
L 221.814799 216.510463 
L 223.32482 214.30086 
L 224.834841 213.858939 
L 226.344863 212.785704 
L 227.854884 212.911967 
L 229.364905 213.48015 
L 232.384947 212.596309 
L 233.894968 212.470046 
L 235.404989 210.5761 
L 236.915011 205.146789 
L 238.425032 206.093762 
L 239.935053 205.967499 
L 241.445074 205.58871 
L 242.955095 204.768 
L 244.465116 206.03063 
L 245.975137 201.485161 
L 247.485159 201.485161 
L 248.99518 198.9599 
L 250.505201 200.348793 
L 252.015222 198.328585 
L 253.525243 197.065954 
L 255.035264 192.457353 
L 256.545285 193.278063 
L 258.055307 193.467457 
L 259.565328 194.098772 
L 261.075349 194.161904 
L 262.58537 195.108877 
L 264.095391 193.972509 
L 265.605412 190.247749 
L 267.115433 191.068459 
L 270.135476 190.121486 
L 271.645497 186.838647 
L 273.155518 186.712384 
L 274.665539 184.376518 
L 276.17556 183.871466 
L 277.685581 181.97752 
L 279.195603 180.525495 
L 280.705624 181.283073 
L 282.215645 178.568418 
L 283.725666 176.295683 
L 285.235687 170.235056 
L 286.745708 166.447165 
L 289.765751 160.639065 
L 291.275772 159.565829 
L 292.785793 155.651674 
L 294.295814 148.707207 
L 295.805835 147.697102 
L 297.315856 147.823365 
L 298.825877 148.075891 
L 300.335899 148.770338 
L 301.84592 148.707207 
L 303.355941 148.01276 
L 306.375983 142.394054 
L 307.886004 141.320818 
L 309.396025 140.878898 
L 312.416068 133.429378 
L 313.926089 131.977353 
L 315.43611 127.747541 
L 316.946131 126.674305 
L 318.456152 125.853595 
L 319.966173 124.022781 
L 322.986216 123.643992 
L 324.496237 123.896518 
L 326.006258 123.328334 
L 327.516279 122.002572 
L 329.0263 121.876309 
L 330.536321 119.351048 
L 332.046342 111.775265 
L 333.556364 110.007582 
L 335.066385 111.459608 
L 336.576406 111.96466 
L 338.086427 111.96466 
L 339.596448 113.479816 
L 341.106469 112.911633 
L 342.61649 108.050505 
L 344.126512 108.2399 
L 345.636533 106.977269 
L 347.146554 103.946956 
L 348.656575 101.232301 
L 350.166596 101.547958 
L 351.676617 98.580777 
L 353.186638 98.770171 
L 354.69666 98.70704 
L 356.206681 98.454514 
L 357.716702 97.507541 
L 359.226723 97.318146 
L 360.736744 95.487332 
L 362.246765 92.709545 
L 363.756786 85.89134 
L 365.266808 81.535265 
L 366.776829 69.224618 
L 368.28685 65.057937 
L 369.796871 66.383699 
L 371.306892 69.603407 
L 372.816913 69.72967 
L 374.326934 70.739775 
L 375.836956 70.676643 
L 377.346977 71.055432 
L 378.856998 68.151382 
L 380.367019 67.898856 
L 381.87704 68.656434 
L 383.387061 68.782697 
L 384.897082 67.393804 
L 386.407104 66.762489 
L 387.917125 67.015015 
L 389.427146 63.92157 
L 390.937167 62.722071 
L 392.447188 61.964493 
L 393.957209 62.027624 
L 395.46723 61.648835 
L 396.977252 56.345787 
L 398.487273 53.568 
L 398.487273 53.568 
" clip-path="url(#p1a80eb7a31)" style="fill: none; stroke: #d62728; stroke-opacity: 0.7; stroke-width: 0.5; stroke-linecap: square"/>
   </g>
   <g id="patch_3">
    <path d="M 57.6 307.584 
L 57.6 41.472 
" style="fill: none; stroke: #000000; stroke-width: 0.8; stroke-linejoin: miter; stroke-linecap: square"/>
   </g>
   <g id="patch_4">
    <path d="M 414.72 307.584 
L 414.72 41.472 
" style="fill: none; stroke: #000000; stroke-width: 0.8; stroke-linejoin: miter; stroke-linecap: square"/>
   </g>
   <g id="patch_5">
    <path d="M 57.6 307.584 
L 414.72 307.584 
" style="fill: none; stroke: #000000; stroke-width: 0.8; stroke-linejoin: miter; stroke-linecap: square"/>
   </g>
   <g id="patch_6">
    <path d="M 57.6 41.472 
L 414.72 41.472 
" style="fill: none; stroke: #000000; stroke-width: 0.8; stroke-linejoin: miter; stroke-linecap: square"/>
   </g>
   <g id="text_14">
    <!-- naive_cci -->
    <g transform="translate(208.505625 35.472) scale(0.12 -0.12)">
     <defs>
      <path id="DejaVuSans-6e" d="M 3513 2113 
L 3513 0 
L 2938 0 
L 2938 2094 
Q 2938 2591 2744 2837 
Q 2550 3084 2163 3084 
Q 1697 3084 1428 2787 
Q 1159 2491 1159 1978 
L 1159 0 
L 581 0 
L 581 3500 
L 1159 3500 
L 1159 2956 
Q 1366 3272 1645 3428 
Q 1925 3584 2291 3584 
Q 2894 3584 3203 3211 
Q 3513 2838 3513 2113 
z
" transform="scale(0.015625)"/>
      <path id="DejaVuSans-61" d="M 2194 1759 
Q 1497 1759 1228 1600 
Q 959 1441 959 1056 
Q 959 750 1161 570 
Q 1363 391 1709 391 
Q 2188 391 2477 730 
Q 2766 1069 2766 1631 
L 2766 1759 
L 2194 1759 
z
M 3341 1997 
L 3341 0 
L 2766 0 
L 2766 531 
Q 2569 213 2275 61 
Q 1981 -91 1556 -91 
Q 1019 -91 701 211 
Q 384 513 384 1019 
Q 384 1609 779 1909 
Q 1175 2209 1959 2209 
L 2766 2209 
L 2766 2266 
Q 2766 2663 2505 2880 
Q 2244 3097 1772 3097 
Q 1472 3097 1187 3025 
Q 903 2953 641 2809 
L 641 3341 
Q 956 3463 1253 3523 
Q 1550 3584 1831 3584 
Q 2591 3584 2966 3190 
Q 3341 2797 3341 1997 
z
" transform="scale(0.015625)"/>
      <path id="DejaVuSans-69" d="M 603 3500 
L 1178 3500 
L 1178 0 
L 603 0 
L 603 3500 
z
M 603 4863 
L 1178 4863 
L 1178 4134 
L 603 4134 
L 603 4863 
z
" transform="scale(0.015625)"/>
      <path id="DejaVuSans-76" d="M 191 3500 
L 800 3500 
L 1894 563 
L 2988 3500 
L 3597 3500 
L 2284 0 
L 1503 0 
L 191 3500 
z
" transform="scale(0.015625)"/>
      <path id="DejaVuSans-65" d="M 3597 1894 
L 3597 1613 
L 953 1613 
Q 991 1019 1311 708 
Q 1631 397 2203 397 
Q 2534 397 2845 478 
Q 3156 559 3463 722 
L 3463 178 
Q 3153 47 2828 -22 
Q 2503 -91 2169 -91 
Q 1331 -91 842 396 
Q 353 884 353 1716 
Q 353 2575 817 3079 
Q 1281 3584 2069 3584 
Q 2775 3584 3186 3129 
Q 3597 2675 3597 1894 
z
M 3022 2063 
Q 3016 2534 2758 2815 
Q 2500 3097 2075 3097 
Q 1594 3097 1305 2825 
Q 1016 2553 972 2059 
L 3022 2063 
z
" transform="scale(0.015625)"/>
      <path id="DejaVuSans-5f" d="M 3263 -1063 
L 3263 -1509 
L -63 -1509 
L -63 -1063 
L 3263 -1063 
z
" transform="scale(0.015625)"/>
      <path id="DejaVuSans-63" d="M 3122 3366 
L 3122 2828 
Q 2878 2963 2633 3030 
Q 2388 3097 2138 3097 
Q 1578 3097 1268 2742 
Q 959 2388 959 1747 
Q 959 1106 1268 751 
Q 1578 397 2138 397 
Q 2388 397 2633 464 
Q 2878 531 3122 666 
L 3122 134 
Q 2881 22 2623 -34 
Q 2366 -91 2075 -91 
Q 1284 -91 818 406 
Q 353 903 353 1747 
Q 353 2603 823 3093 
Q 1294 3584 2113 3584 
Q 2378 3584 2631 3529 
Q 2884 3475 3122 3366 
z
" transform="scale(0.015625)"/>
     </defs>
     <use xlink:href="#DejaVuSans-6e"/>
     <use xlink:href="#DejaVuSans-61" x="63.378906"/>
     <use xlink:href="#DejaVuSans-69" x="124.658203"/>
     <use xlink:href="#DejaVuSans-76" x="152.441406"/>
     <use xlink:href="#DejaVuSans-65" x="211.621094"/>
     <use xlink:href="#DejaVuSans-5f" x="273.144531"/>
     <use xlink:href="#DejaVuSans-63" x="323.144531"/>
     <use xlink:href="#DejaVuSans-63" x="378.125"/>
     <use xlink:href="#DejaVuSans-69" x="433.105469"/>
    </g>
   </g>
   <g id="legend_1">
    <g id="patch_7">
     <path d="M 64.6 108.1845 
L 200.035938 108.1845 
Q 202.035938 108.1845 202.035938 106.1845 
L 202.035938 48.472 
Q 202.035938 46.472 200.035938 46.472 
L 64.6 46.472 
Q 62.6 46.472 62.6 48.472 
L 62.6 106.1845 
Q 62.6 108.1845 64.6 108.1845 
z
" style="fill: #ffffff; opacity: 0.8; stroke: #cccccc; stroke-linejoin: miter"/>
    </g>
    <g id="line2d_18">
     <path d="M 66.6 54.570438 
L 76.6 54.570438 
L 86.6 54.570438 
" style="fill: none; stroke: #1f77b4; stroke-opacity: 0.7; stroke-width: 0.5; stroke-linecap: square"/>
    </g>
    <g id="text_15">
     <!-- Positive predictions -->
     <g transform="translate(94.6 58.070438) scale(0.1 -0.1)">
      <defs>
       <path id="DejaVuSans-50" d="M 1259 4147 
L 1259 2394 
L 2053 2394 
Q 2494 2394 2734 2622 
Q 2975 2850 2975 3272 
Q 2975 3691 2734 3919 
Q 2494 4147 2053 4147 
L 1259 4147 
z
M 628 4666 
L 2053 4666 
Q 2838 4666 3239 4311 
Q 3641 3956 3641 3272 
Q 3641 2581 3239 2228 
Q 2838 1875 2053 1875 
L 1259 1875 
L 1259 0 
L 628 0 
L 628 4666 
z
" transform="scale(0.015625)"/>
       <path id="DejaVuSans-6f" d="M 1959 3097 
Q 1497 3097 1228 2736 
Q 959 2375 959 1747 
Q 959 1119 1226 758 
Q 1494 397 1959 397 
Q 2419 397 2687 759 
Q 2956 1122 2956 1747 
Q 2956 2369 2687 2733 
Q 2419 3097 1959 3097 
z
M 1959 3584 
Q 2709 3584 3137 3096 
Q 3566 2609 3566 1747 
Q 3566 888 3137 398 
Q 2709 -91 1959 -91 
Q 1206 -91 779 398 
Q 353 888 353 1747 
Q 353 2609 779 3096 
Q 1206 3584 1959 3584 
z
" transform="scale(0.015625)"/>
       <path id="DejaVuSans-73" d="M 2834 3397 
L 2834 2853 
Q 2591 2978 2328 3040 
Q 2066 3103 1784 3103 
Q 1356 3103 1142 2972 
Q 928 2841 928 2578 
Q 928 2378 1081 2264 
Q 1234 2150 1697 2047 
L 1894 2003 
Q 2506 1872 2764 1633 
Q 3022 1394 3022 966 
Q 3022 478 2636 193 
Q 2250 -91 1575 -91 
Q 1294 -91 989 -36 
Q 684 19 347 128 
L 347 722 
Q 666 556 975 473 
Q 1284 391 1588 391 
Q 1994 391 2212 530 
Q 2431 669 2431 922 
Q 2431 1156 2273 1281 
Q 2116 1406 1581 1522 
L 1381 1569 
Q 847 1681 609 1914 
Q 372 2147 372 2553 
Q 372 3047 722 3315 
Q 1072 3584 1716 3584 
Q 2034 3584 2315 3537 
Q 2597 3491 2834 3397 
z
" transform="scale(0.015625)"/>
       <path id="DejaVuSans-74" d="M 1172 4494 
L 1172 3500 
L 2356 3500 
L 2356 3053 
L 1172 3053 
L 1172 1153 
Q 1172 725 1289 603 
Q 1406 481 1766 481 
L 2356 481 
L 2356 0 
L 1766 0 
Q 1100 0 847 248 
Q 594 497 594 1153 
L 594 3053 
L 172 3053 
L 172 3500 
L 594 3500 
L 594 4494 
L 1172 4494 
z
" transform="scale(0.015625)"/>
       <path id="DejaVuSans-20" transform="scale(0.015625)"/>
       <path id="DejaVuSans-70" d="M 1159 525 
L 1159 -1331 
L 581 -1331 
L 581 3500 
L 1159 3500 
L 1159 2969 
Q 1341 3281 1617 3432 
Q 1894 3584 2278 3584 
Q 2916 3584 3314 3078 
Q 3713 2572 3713 1747 
Q 3713 922 3314 415 
Q 2916 -91 2278 -91 
Q 1894 -91 1617 61 
Q 1341 213 1159 525 
z
M 3116 1747 
Q 3116 2381 2855 2742 
Q 2594 3103 2138 3103 
Q 1681 3103 1420 2742 
Q 1159 2381 1159 1747 
Q 1159 1113 1420 752 
Q 1681 391 2138 391 
Q 2594 391 2855 752 
Q 3116 1113 3116 1747 
z
" transform="scale(0.015625)"/>
       <path id="DejaVuSans-72" d="M 2631 2963 
Q 2534 3019 2420 3045 
Q 2306 3072 2169 3072 
Q 1681 3072 1420 2755 
Q 1159 2438 1159 1844 
L 1159 0 
L 581 0 
L 581 3500 
L 1159 3500 
L 1159 2956 
Q 1341 3275 1631 3429 
Q 1922 3584 2338 3584 
Q 2397 3584 2469 3576 
Q 2541 3569 2628 3553 
L 2631 2963 
z
" transform="scale(0.015625)"/>
       <path id="DejaVuSans-64" d="M 2906 2969 
L 2906 4863 
L 3481 4863 
L 3481 0 
L 2906 0 
L 2906 525 
Q 2725 213 2448 61 
Q 2172 -91 1784 -91 
Q 1150 -91 751 415 
Q 353 922 353 1747 
Q 353 2572 751 3078 
Q 1150 3584 1784 3584 
Q 2172 3584 2448 3432 
Q 2725 3281 2906 2969 
z
M 947 1747 
Q 947 1113 1208 752 
Q 1469 391 1925 391 
Q 2381 391 2643 752 
Q 2906 1113 2906 1747 
Q 2906 2381 2643 2742 
Q 2381 3103 1925 3103 
Q 1469 3103 1208 2742 
Q 947 2381 947 1747 
z
" transform="scale(0.015625)"/>
      </defs>
      <use xlink:href="#DejaVuSans-50"/>
      <use xlink:href="#DejaVuSans-6f" x="56.677734"/>
      <use xlink:href="#DejaVuSans-73" x="117.859375"/>
      <use xlink:href="#DejaVuSans-69" x="169.958984"/>
      <use xlink:href="#DejaVuSans-74" x="197.742188"/>
      <use xlink:href="#DejaVuSans-69" x="236.951172"/>
      <use xlink:href="#DejaVuSans-76" x="264.734375"/>
      <use xlink:href="#DejaVuSans-65" x="323.914062"/>
      <use xlink:href="#DejaVuSans-20" x="385.4375"/>
      <use xlink:href="#DejaVuSans-70" x="417.224609"/>
      <use xlink:href="#DejaVuSans-72" x="480.701172"/>
      <use xlink:href="#DejaVuSans-65" x="519.564453"/>
      <use xlink:href="#DejaVuSans-64" x="581.087891"/>
      <use xlink:href="#DejaVuSans-69" x="644.564453"/>
      <use xlink:href="#DejaVuSans-63" x="672.347656"/>
      <use xlink:href="#DejaVuSans-74" x="727.328125"/>
      <use xlink:href="#DejaVuSans-69" x="766.537109"/>
      <use xlink:href="#DejaVuSans-6f" x="794.320312"/>
      <use xlink:href="#DejaVuSans-6e" x="855.501953"/>
      <use xlink:href="#DejaVuSans-73" x="918.880859"/>
     </g>
    </g>
    <g id="line2d_19">
     <path d="M 66.6 69.248563 
L 76.6 69.248563 
L 86.6 69.248563 
" style="fill: none; stroke: #ff7f0e; stroke-opacity: 0.7; stroke-width: 0.5; stroke-linecap: square"/>
    </g>
    <g id="text_16">
     <!-- Negative predictions -->
     <g transform="translate(94.6 72.748563) scale(0.1 -0.1)">
      <defs>
       <path id="DejaVuSans-4e" d="M 628 4666 
L 1478 4666 
L 3547 763 
L 3547 4666 
L 4159 4666 
L 4159 0 
L 3309 0 
L 1241 3903 
L 1241 0 
L 628 0 
L 628 4666 
z
" transform="scale(0.015625)"/>
       <path id="DejaVuSans-67" d="M 2906 1791 
Q 2906 2416 2648 2759 
Q 2391 3103 1925 3103 
Q 1463 3103 1205 2759 
Q 947 2416 947 1791 
Q 947 1169 1205 825 
Q 1463 481 1925 481 
Q 2391 481 2648 825 
Q 2906 1169 2906 1791 
z
M 3481 434 
Q 3481 -459 3084 -895 
Q 2688 -1331 1869 -1331 
Q 1566 -1331 1297 -1286 
Q 1028 -1241 775 -1147 
L 775 -588 
Q 1028 -725 1275 -790 
Q 1522 -856 1778 -856 
Q 2344 -856 2625 -561 
Q 2906 -266 2906 331 
L 2906 616 
Q 2728 306 2450 153 
Q 2172 0 1784 0 
Q 1141 0 747 490 
Q 353 981 353 1791 
Q 353 2603 747 3093 
Q 1141 3584 1784 3584 
Q 2172 3584 2450 3431 
Q 2728 3278 2906 2969 
L 2906 3500 
L 3481 3500 
L 3481 434 
z
" transform="scale(0.015625)"/>
      </defs>
      <use xlink:href="#DejaVuSans-4e"/>
      <use xlink:href="#DejaVuSans-65" x="74.804688"/>
      <use xlink:href="#DejaVuSans-67" x="136.328125"/>
      <use xlink:href="#DejaVuSans-61" x="199.804688"/>
      <use xlink:href="#DejaVuSans-74" x="261.083984"/>
      <use xlink:href="#DejaVuSans-69" x="300.292969"/>
      <use xlink:href="#DejaVuSans-76" x="328.076172"/>
      <use xlink:href="#DejaVuSans-65" x="387.255859"/>
      <use xlink:href="#DejaVuSans-20" x="448.779297"/>
      <use xlink:href="#DejaVuSans-70" x="480.566406"/>
      <use xlink:href="#DejaVuSans-72" x="544.042969"/>
      <use xlink:href="#DejaVuSans-65" x="582.90625"/>
      <use xlink:href="#DejaVuSans-64" x="644.429688"/>
      <use xlink:href="#DejaVuSans-69" x="707.90625"/>
      <use xlink:href="#DejaVuSans-63" x="735.689453"/>
      <use xlink:href="#DejaVuSans-74" x="790.669922"/>
      <use xlink:href="#DejaVuSans-69" x="829.878906"/>
      <use xlink:href="#DejaVuSans-6f" x="857.662109"/>
      <use xlink:href="#DejaVuSans-6e" x="918.84375"/>
      <use xlink:href="#DejaVuSans-73" x="982.222656"/>
     </g>
    </g>
    <g id="line2d_20">
     <path d="M 66.6 83.926688 
L 76.6 83.926688 
L 86.6 83.926688 
" style="fill: none; stroke: #2ca02c; stroke-opacity: 0.7; stroke-width: 0.5; stroke-linecap: square"/>
    </g>
    <g id="text_17">
     <!-- Average predictions -->
     <g transform="translate(94.6 87.426688) scale(0.1 -0.1)">
      <defs>
       <path id="DejaVuSans-41" d="M 2188 4044 
L 1331 1722 
L 3047 1722 
L 2188 4044 
z
M 1831 4666 
L 2547 4666 
L 4325 0 
L 3669 0 
L 3244 1197 
L 1141 1197 
L 716 0 
L 50 0 
L 1831 4666 
z
" transform="scale(0.015625)"/>
      </defs>
      <use xlink:href="#DejaVuSans-41"/>
      <use xlink:href="#DejaVuSans-76" x="62.533203"/>
      <use xlink:href="#DejaVuSans-65" x="121.712891"/>
      <use xlink:href="#DejaVuSans-72" x="183.236328"/>
      <use xlink:href="#DejaVuSans-61" x="224.349609"/>
      <use xlink:href="#DejaVuSans-67" x="285.628906"/>
      <use xlink:href="#DejaVuSans-65" x="349.105469"/>
      <use xlink:href="#DejaVuSans-20" x="410.628906"/>
      <use xlink:href="#DejaVuSans-70" x="442.416016"/>
      <use xlink:href="#DejaVuSans-72" x="505.892578"/>
      <use xlink:href="#DejaVuSans-65" x="544.755859"/>
      <use xlink:href="#DejaVuSans-64" x="606.279297"/>
      <use xlink:href="#DejaVuSans-69" x="669.755859"/>
      <use xlink:href="#DejaVuSans-63" x="697.539062"/>
      <use xlink:href="#DejaVuSans-74" x="752.519531"/>
      <use xlink:href="#DejaVuSans-69" x="791.728516"/>
      <use xlink:href="#DejaVuSans-6f" x="819.511719"/>
      <use xlink:href="#DejaVuSans-6e" x="880.693359"/>
      <use xlink:href="#DejaVuSans-73" x="944.072266"/>
     </g>
    </g>
    <g id="line2d_21">
     <path d="M 66.6 98.604813 
L 76.6 98.604813 
L 86.6 98.604813 
" style="fill: none; stroke: #d62728; stroke-opacity: 0.7; stroke-width: 0.5; stroke-linecap: square"/>
    </g>
    <g id="text_18">
     <!-- Actual values -->
     <g transform="translate(94.6 102.104813) scale(0.1 -0.1)">
      <defs>
       <path id="DejaVuSans-75" d="M 544 1381 
L 544 3500 
L 1119 3500 
L 1119 1403 
Q 1119 906 1312 657 
Q 1506 409 1894 409 
Q 2359 409 2629 706 
Q 2900 1003 2900 1516 
L 2900 3500 
L 3475 3500 
L 3475 0 
L 2900 0 
L 2900 538 
Q 2691 219 2414 64 
Q 2138 -91 1772 -91 
Q 1169 -91 856 284 
Q 544 659 544 1381 
z
M 1991 3584 
L 1991 3584 
z
" transform="scale(0.015625)"/>
       <path id="DejaVuSans-6c" d="M 603 4863 
L 1178 4863 
L 1178 0 
L 603 0 
L 603 4863 
z
" transform="scale(0.015625)"/>
      </defs>
      <use xlink:href="#DejaVuSans-41"/>
      <use xlink:href="#DejaVuSans-63" x="66.658203"/>
      <use xlink:href="#DejaVuSans-74" x="121.638672"/>
      <use xlink:href="#DejaVuSans-75" x="160.847656"/>
      <use xlink:href="#DejaVuSans-61" x="224.226562"/>
      <use xlink:href="#DejaVuSans-6c" x="285.505859"/>
      <use xlink:href="#DejaVuSans-20" x="313.289062"/>
      <use xlink:href="#DejaVuSans-76" x="345.076172"/>
      <use xlink:href="#DejaVuSans-61" x="404.255859"/>
      <use xlink:href="#DejaVuSans-6c" x="465.535156"/>
      <use xlink:href="#DejaVuSans-75" x="493.318359"/>
      <use xlink:href="#DejaVuSans-65" x="556.697266"/>
      <use xlink:href="#DejaVuSans-73" x="618.220703"/>
     </g>
    </g>
   </g>
  </g>
 </g>
 <defs>
  <clipPath id="p1a80eb7a31">
   <rect x="57.6" y="41.472" width="357.12" height="266.112"/>
  </clipPath>
 </defs>
</svg>
