<?xml version="1.0" encoding="utf-8" standalone="no"?>
<!DOCTYPE svg PUBLIC "-//W3C//DTD SVG 1.1//EN"
  "http://www.w3.org/Graphics/SVG/1.1/DTD/svg11.dtd">
<svg xmlns:xlink="http://www.w3.org/1999/xlink" width="460.8pt" height="345.6pt" viewBox="0 0 460.8 345.6" xmlns="http://www.w3.org/2000/svg" version="1.1">
 <metadata>
  <rdf:RDF xmlns:dc="http://purl.org/dc/elements/1.1/" xmlns:cc="http://creativecommons.org/ns#" xmlns:rdf="http://www.w3.org/1999/02/22-rdf-syntax-ns#">
   <cc:Work>
    <dc:type rdf:resource="http://purl.org/dc/dcmitype/StillImage"/>
    <dc:date>2024-05-30T15:03:00.795876</dc:date>
    <dc:format>image/svg+xml</dc:format>
    <dc:creator>
     <cc:Agent>
      <dc:title>Matplotlib v3.9.0, https://matplotlib.org/</dc:title>
     </cc:Agent>
    </dc:creator>
   </cc:Work>
  </rdf:RDF>
 </metadata>
 <defs>
  <style type="text/css">*{stroke-linejoin: round; stroke-linecap: butt}</style>
 </defs>
 <g id="figure_1">
  <g id="patch_1">
   <path d="M 0 345.6 
L 460.8 345.6 
L 460.8 0 
L 0 0 
z
" style="fill: #ffffff"/>
  </g>
  <g id="axes_1">
   <g id="patch_2">
    <path d="M 57.6 307.584 
L 414.72 307.584 
L 414.72 41.472 
L 57.6 41.472 
z
" style="fill: #ffffff"/>
   </g>
   <g id="matplotlib.axis_1">
    <g id="xtick_1">
     <g id="line2d_1">
      <defs>
       <path id="ma8e40055c5" d="M 0 0 
L 0 3.5 
" style="stroke: #000000; stroke-width: 0.8"/>
      </defs>
      <g>
       <use xlink:href="#ma8e40055c5" x="73.832727" y="307.584" style="stroke: #000000; stroke-width: 0.8"/>
      </g>
     </g>
     <g id="text_1">
      <!-- 0 -->
      <g transform="translate(70.651477 322.182437) scale(0.1 -0.1)">
       <defs>
        <path id="DejaVuSans-30" d="M 2034 4250 
Q 1547 4250 1301 3770 
Q 1056 3291 1056 2328 
Q 1056 1369 1301 889 
Q 1547 409 2034 409 
Q 2525 409 2770 889 
Q 3016 1369 3016 2328 
Q 3016 3291 2770 3770 
Q 2525 4250 2034 4250 
z
M 2034 4750 
Q 2819 4750 3233 4129 
Q 3647 3509 3647 2328 
Q 3647 1150 3233 529 
Q 2819 -91 2034 -91 
Q 1250 -91 836 529 
Q 422 1150 422 2328 
Q 422 3509 836 4129 
Q 1250 4750 2034 4750 
z
" transform="scale(0.015625)"/>
       </defs>
       <use xlink:href="#DejaVuSans-30"/>
      </g>
     </g>
    </g>
    <g id="xtick_2">
     <g id="line2d_2">
      <g>
       <use xlink:href="#ma8e40055c5" x="116.27123" y="307.584" style="stroke: #000000; stroke-width: 0.8"/>
      </g>
     </g>
     <g id="text_2">
      <!-- 20 -->
      <g transform="translate(109.90873 322.182437) scale(0.1 -0.1)">
       <defs>
        <path id="DejaVuSans-32" d="M 1228 531 
L 3431 531 
L 3431 0 
L 469 0 
L 469 531 
Q 828 903 1448 1529 
Q 2069 2156 2228 2338 
Q 2531 2678 2651 2914 
Q 2772 3150 2772 3378 
Q 2772 3750 2511 3984 
Q 2250 4219 1831 4219 
Q 1534 4219 1204 4116 
Q 875 4013 500 3803 
L 500 4441 
Q 881 4594 1212 4672 
Q 1544 4750 1819 4750 
Q 2544 4750 2975 4387 
Q 3406 4025 3406 3419 
Q 3406 3131 3298 2873 
Q 3191 2616 2906 2266 
Q 2828 2175 2409 1742 
Q 1991 1309 1228 531 
z
" transform="scale(0.015625)"/>
       </defs>
       <use xlink:href="#DejaVuSans-32"/>
       <use xlink:href="#DejaVuSans-30" x="63.623047"/>
      </g>
     </g>
    </g>
    <g id="xtick_3">
     <g id="line2d_3">
      <g>
       <use xlink:href="#ma8e40055c5" x="158.709733" y="307.584" style="stroke: #000000; stroke-width: 0.8"/>
      </g>
     </g>
     <g id="text_3">
      <!-- 40 -->
      <g transform="translate(152.347233 322.182437) scale(0.1 -0.1)">
       <defs>
        <path id="DejaVuSans-34" d="M 2419 4116 
L 825 1625 
L 2419 1625 
L 2419 4116 
z
M 2253 4666 
L 3047 4666 
L 3047 1625 
L 3713 1625 
L 3713 1100 
L 3047 1100 
L 3047 0 
L 2419 0 
L 2419 1100 
L 313 1100 
L 313 1709 
L 2253 4666 
z
" transform="scale(0.015625)"/>
       </defs>
       <use xlink:href="#DejaVuSans-34"/>
       <use xlink:href="#DejaVuSans-30" x="63.623047"/>
      </g>
     </g>
    </g>
    <g id="xtick_4">
     <g id="line2d_4">
      <g>
       <use xlink:href="#ma8e40055c5" x="201.148235" y="307.584" style="stroke: #000000; stroke-width: 0.8"/>
      </g>
     </g>
     <g id="text_4">
      <!-- 60 -->
      <g transform="translate(194.785735 322.182437) scale(0.1 -0.1)">
       <defs>
        <path id="DejaVuSans-36" d="M 2113 2584 
Q 1688 2584 1439 2293 
Q 1191 2003 1191 1497 
Q 1191 994 1439 701 
Q 1688 409 2113 409 
Q 2538 409 2786 701 
Q 3034 994 3034 1497 
Q 3034 2003 2786 2293 
Q 2538 2584 2113 2584 
z
M 3366 4563 
L 3366 3988 
Q 3128 4100 2886 4159 
Q 2644 4219 2406 4219 
Q 1781 4219 1451 3797 
Q 1122 3375 1075 2522 
Q 1259 2794 1537 2939 
Q 1816 3084 2150 3084 
Q 2853 3084 3261 2657 
Q 3669 2231 3669 1497 
Q 3669 778 3244 343 
Q 2819 -91 2113 -91 
Q 1303 -91 875 529 
Q 447 1150 447 2328 
Q 447 3434 972 4092 
Q 1497 4750 2381 4750 
Q 2619 4750 2861 4703 
Q 3103 4656 3366 4563 
z
" transform="scale(0.015625)"/>
       </defs>
       <use xlink:href="#DejaVuSans-36"/>
       <use xlink:href="#DejaVuSans-30" x="63.623047"/>
      </g>
     </g>
    </g>
    <g id="xtick_5">
     <g id="line2d_5">
      <g>
       <use xlink:href="#ma8e40055c5" x="243.586738" y="307.584" style="stroke: #000000; stroke-width: 0.8"/>
      </g>
     </g>
     <g id="text_5">
      <!-- 80 -->
      <g transform="translate(237.224238 322.182437) scale(0.1 -0.1)">
       <defs>
        <path id="DejaVuSans-38" d="M 2034 2216 
Q 1584 2216 1326 1975 
Q 1069 1734 1069 1313 
Q 1069 891 1326 650 
Q 1584 409 2034 409 
Q 2484 409 2743 651 
Q 3003 894 3003 1313 
Q 3003 1734 2745 1975 
Q 2488 2216 2034 2216 
z
M 1403 2484 
Q 997 2584 770 2862 
Q 544 3141 544 3541 
Q 544 4100 942 4425 
Q 1341 4750 2034 4750 
Q 2731 4750 3128 4425 
Q 3525 4100 3525 3541 
Q 3525 3141 3298 2862 
Q 3072 2584 2669 2484 
Q 3125 2378 3379 2068 
Q 3634 1759 3634 1313 
Q 3634 634 3220 271 
Q 2806 -91 2034 -91 
Q 1263 -91 848 271 
Q 434 634 434 1313 
Q 434 1759 690 2068 
Q 947 2378 1403 2484 
z
M 1172 3481 
Q 1172 3119 1398 2916 
Q 1625 2713 2034 2713 
Q 2441 2713 2670 2916 
Q 2900 3119 2900 3481 
Q 2900 3844 2670 4047 
Q 2441 4250 2034 4250 
Q 1625 4250 1398 4047 
Q 1172 3844 1172 3481 
z
" transform="scale(0.015625)"/>
       </defs>
       <use xlink:href="#DejaVuSans-38"/>
       <use xlink:href="#DejaVuSans-30" x="63.623047"/>
      </g>
     </g>
    </g>
    <g id="xtick_6">
     <g id="line2d_6">
      <g>
       <use xlink:href="#ma8e40055c5" x="286.025241" y="307.584" style="stroke: #000000; stroke-width: 0.8"/>
      </g>
     </g>
     <g id="text_6">
      <!-- 100 -->
      <g transform="translate(276.481491 322.182437) scale(0.1 -0.1)">
       <defs>
        <path id="DejaVuSans-31" d="M 794 531 
L 1825 531 
L 1825 4091 
L 703 3866 
L 703 4441 
L 1819 4666 
L 2450 4666 
L 2450 531 
L 3481 531 
L 3481 0 
L 794 0 
L 794 531 
z
" transform="scale(0.015625)"/>
       </defs>
       <use xlink:href="#DejaVuSans-31"/>
       <use xlink:href="#DejaVuSans-30" x="63.623047"/>
       <use xlink:href="#DejaVuSans-30" x="127.246094"/>
      </g>
     </g>
    </g>
    <g id="xtick_7">
     <g id="line2d_7">
      <g>
       <use xlink:href="#ma8e40055c5" x="328.463743" y="307.584" style="stroke: #000000; stroke-width: 0.8"/>
      </g>
     </g>
     <g id="text_7">
      <!-- 120 -->
      <g transform="translate(318.919993 322.182437) scale(0.1 -0.1)">
       <use xlink:href="#DejaVuSans-31"/>
       <use xlink:href="#DejaVuSans-32" x="63.623047"/>
       <use xlink:href="#DejaVuSans-30" x="127.246094"/>
      </g>
     </g>
    </g>
    <g id="xtick_8">
     <g id="line2d_8">
      <g>
       <use xlink:href="#ma8e40055c5" x="370.902246" y="307.584" style="stroke: #000000; stroke-width: 0.8"/>
      </g>
     </g>
     <g id="text_8">
      <!-- 140 -->
      <g transform="translate(361.358496 322.182437) scale(0.1 -0.1)">
       <use xlink:href="#DejaVuSans-31"/>
       <use xlink:href="#DejaVuSans-34" x="63.623047"/>
       <use xlink:href="#DejaVuSans-30" x="127.246094"/>
      </g>
     </g>
    </g>
    <g id="xtick_9">
     <g id="line2d_9">
      <g>
       <use xlink:href="#ma8e40055c5" x="413.340749" y="307.584" style="stroke: #000000; stroke-width: 0.8"/>
      </g>
     </g>
     <g id="text_9">
      <!-- 160 -->
      <g transform="translate(403.796999 322.182437) scale(0.1 -0.1)">
       <use xlink:href="#DejaVuSans-31"/>
       <use xlink:href="#DejaVuSans-36" x="63.623047"/>
       <use xlink:href="#DejaVuSans-30" x="127.246094"/>
      </g>
     </g>
    </g>
   </g>
   <g id="matplotlib.axis_2">
    <g id="ytick_1">
     <g id="line2d_10">
      <defs>
       <path id="m8a644a2606" d="M 0 0 
L -3.5 0 
" style="stroke: #000000; stroke-width: 0.8"/>
      </defs>
      <g>
       <use xlink:href="#m8a644a2606" x="57.6" y="303.682333" style="stroke: #000000; stroke-width: 0.8"/>
      </g>
     </g>
     <g id="text_10">
      <!-- −0.06 -->
      <g transform="translate(19.954687 307.481551) scale(0.1 -0.1)">
       <defs>
        <path id="DejaVuSans-2212" d="M 678 2272 
L 4684 2272 
L 4684 1741 
L 678 1741 
L 678 2272 
z
" transform="scale(0.015625)"/>
        <path id="DejaVuSans-2e" d="M 684 794 
L 1344 794 
L 1344 0 
L 684 0 
L 684 794 
z
" transform="scale(0.015625)"/>
       </defs>
       <use xlink:href="#DejaVuSans-2212"/>
       <use xlink:href="#DejaVuSans-30" x="83.789062"/>
       <use xlink:href="#DejaVuSans-2e" x="147.412109"/>
       <use xlink:href="#DejaVuSans-30" x="179.199219"/>
       <use xlink:href="#DejaVuSans-36" x="242.822266"/>
      </g>
     </g>
    </g>
    <g id="ytick_2">
     <g id="line2d_11">
      <g>
       <use xlink:href="#m8a644a2606" x="57.6" y="273.988081" style="stroke: #000000; stroke-width: 0.8"/>
      </g>
     </g>
     <g id="text_11">
      <!-- −0.04 -->
      <g transform="translate(19.954687 277.7873) scale(0.1 -0.1)">
       <use xlink:href="#DejaVuSans-2212"/>
       <use xlink:href="#DejaVuSans-30" x="83.789062"/>
       <use xlink:href="#DejaVuSans-2e" x="147.412109"/>
       <use xlink:href="#DejaVuSans-30" x="179.199219"/>
       <use xlink:href="#DejaVuSans-34" x="242.822266"/>
      </g>
     </g>
    </g>
    <g id="ytick_3">
     <g id="line2d_12">
      <g>
       <use xlink:href="#m8a644a2606" x="57.6" y="244.29383" style="stroke: #000000; stroke-width: 0.8"/>
      </g>
     </g>
     <g id="text_12">
      <!-- −0.02 -->
      <g transform="translate(19.954687 248.093049) scale(0.1 -0.1)">
       <use xlink:href="#DejaVuSans-2212"/>
       <use xlink:href="#DejaVuSans-30" x="83.789062"/>
       <use xlink:href="#DejaVuSans-2e" x="147.412109"/>
       <use xlink:href="#DejaVuSans-30" x="179.199219"/>
       <use xlink:href="#DejaVuSans-32" x="242.822266"/>
      </g>
     </g>
    </g>
    <g id="ytick_4">
     <g id="line2d_13">
      <g>
       <use xlink:href="#m8a644a2606" x="57.6" y="214.599578" style="stroke: #000000; stroke-width: 0.8"/>
      </g>
     </g>
     <g id="text_13">
      <!-- 0.00 -->
      <g transform="translate(28.334375 218.398797) scale(0.1 -0.1)">
       <use xlink:href="#DejaVuSans-30"/>
       <use xlink:href="#DejaVuSans-2e" x="63.623047"/>
       <use xlink:href="#DejaVuSans-30" x="95.410156"/>
       <use xlink:href="#DejaVuSans-30" x="159.033203"/>
      </g>
     </g>
    </g>
    <g id="ytick_5">
     <g id="line2d_14">
      <g>
       <use xlink:href="#m8a644a2606" x="57.6" y="184.905327" style="stroke: #000000; stroke-width: 0.8"/>
      </g>
     </g>
     <g id="text_14">
      <!-- 0.02 -->
      <g transform="translate(28.334375 188.704546) scale(0.1 -0.1)">
       <use xlink:href="#DejaVuSans-30"/>
       <use xlink:href="#DejaVuSans-2e" x="63.623047"/>
       <use xlink:href="#DejaVuSans-30" x="95.410156"/>
       <use xlink:href="#DejaVuSans-32" x="159.033203"/>
      </g>
     </g>
    </g>
    <g id="ytick_6">
     <g id="line2d_15">
      <g>
       <use xlink:href="#m8a644a2606" x="57.6" y="155.211075" style="stroke: #000000; stroke-width: 0.8"/>
      </g>
     </g>
     <g id="text_15">
      <!-- 0.04 -->
      <g transform="translate(28.334375 159.010294) scale(0.1 -0.1)">
       <use xlink:href="#DejaVuSans-30"/>
       <use xlink:href="#DejaVuSans-2e" x="63.623047"/>
       <use xlink:href="#DejaVuSans-30" x="95.410156"/>
       <use xlink:href="#DejaVuSans-34" x="159.033203"/>
      </g>
     </g>
    </g>
    <g id="ytick_7">
     <g id="line2d_16">
      <g>
       <use xlink:href="#m8a644a2606" x="57.6" y="125.516824" style="stroke: #000000; stroke-width: 0.8"/>
      </g>
     </g>
     <g id="text_16">
      <!-- 0.06 -->
      <g transform="translate(28.334375 129.316043) scale(0.1 -0.1)">
       <use xlink:href="#DejaVuSans-30"/>
       <use xlink:href="#DejaVuSans-2e" x="63.623047"/>
       <use xlink:href="#DejaVuSans-30" x="95.410156"/>
       <use xlink:href="#DejaVuSans-36" x="159.033203"/>
      </g>
     </g>
    </g>
    <g id="ytick_8">
     <g id="line2d_17">
      <g>
       <use xlink:href="#m8a644a2606" x="57.6" y="95.822573" style="stroke: #000000; stroke-width: 0.8"/>
      </g>
     </g>
     <g id="text_17">
      <!-- 0.08 -->
      <g transform="translate(28.334375 99.621791) scale(0.1 -0.1)">
       <use xlink:href="#DejaVuSans-30"/>
       <use xlink:href="#DejaVuSans-2e" x="63.623047"/>
       <use xlink:href="#DejaVuSans-30" x="95.410156"/>
       <use xlink:href="#DejaVuSans-38" x="159.033203"/>
      </g>
     </g>
    </g>
    <g id="ytick_9">
     <g id="line2d_18">
      <g>
       <use xlink:href="#m8a644a2606" x="57.6" y="66.128321" style="stroke: #000000; stroke-width: 0.8"/>
      </g>
     </g>
     <g id="text_18">
      <!-- 0.10 -->
      <g transform="translate(28.334375 69.92754) scale(0.1 -0.1)">
       <use xlink:href="#DejaVuSans-30"/>
       <use xlink:href="#DejaVuSans-2e" x="63.623047"/>
       <use xlink:href="#DejaVuSans-31" x="95.410156"/>
       <use xlink:href="#DejaVuSans-30" x="159.033203"/>
      </g>
     </g>
    </g>
   </g>
   <g id="line2d_19">
    <path d="M 73.832727 211.321912 
L 75.954652 207.832777 
L 78.076578 210.619904 
L 80.198503 210.190742 
L 82.320428 214.877041 
L 84.442353 191.442925 
L 86.564278 187.46999 
L 88.686203 189.157839 
L 90.808128 192.493411 
L 92.930053 188.991274 
L 95.051979 210.438551 
L 97.173904 203.20045 
L 99.295829 206.1945 
L 101.417754 201.064379 
L 103.539679 213.024496 
L 105.661604 214.914229 
L 107.783529 188.163134 
L 109.905455 207.087596 
L 112.02738 199.272978 
L 114.149305 203.165408 
L 116.27123 209.253697 
L 118.393155 211.315008 
L 120.51508 212.386146 
L 122.637005 193.203641 
L 124.75893 196.634135 
L 126.880856 212.505148 
L 129.002781 204.186224 
L 131.124706 208.050488 
L 133.246631 214.336869 
L 135.368556 204.00417 
L 137.490481 211.457137 
L 139.612406 205.994613 
L 141.734332 214.700101 
L 143.856257 211.39718 
L 145.978182 208.804729 
L 150.222032 204.263171 
L 152.343957 207.221974 
L 154.465882 211.669139 
L 156.587807 204.914182 
L 158.709733 203.312269 
L 160.831658 209.524598 
L 162.953583 205.748462 
L 165.075508 218.18887 
L 167.197433 211.291555 
L 169.319358 206.8012 
L 171.441283 210.886137 
L 173.563209 219.617496 
L 175.685134 213.009768 
L 177.807059 202.688039 
L 179.928984 203.641415 
L 182.050909 208.458561 
L 184.172834 198.252725 
L 186.294759 235.441995 
L 188.416684 191.993932 
L 190.53861 201.472824 
L 192.660535 206.573834 
L 194.78246 210.260892 
L 196.904385 203.627362 
L 199.02631 219.077759 
L 201.148235 247.779161 
L 203.27016 212.58407 
L 205.392086 216.131808 
L 207.514011 221.112463 
L 209.635936 255.805927 
L 211.757861 219.118645 
L 213.879786 214.423526 
L 216.001711 210.83673 
L 218.123636 202.981247 
L 220.245561 213.872284 
L 222.367487 210.866766 
L 224.489412 218.791629 
L 226.611337 220.850437 
L 228.733262 234.209253 
L 230.855187 225.687961 
L 232.977112 219.620159 
L 235.099037 202.956967 
L 237.220963 202.053572 
L 239.342888 213.447364 
L 241.464813 204.980702 
L 243.586738 198.842064 
L 245.708663 199.188176 
L 247.830588 222.084054 
L 249.952513 224.124655 
L 252.074439 214.251949 
L 254.196364 221.175119 
L 256.318289 209.555107 
L 258.440214 196.571881 
L 260.562139 203.206901 
L 262.684064 200.818029 
L 264.805989 206.853195 
L 266.927914 202.718795 
L 269.04984 214.594894 
L 271.171765 209.535875 
L 273.29369 202.381859 
L 275.415615 205.531995 
L 277.53754 213.613353 
L 279.659465 202.611202 
L 281.78139 188.130101 
L 283.903316 206.646347 
L 286.025241 204.05478 
L 288.147166 208.367005 
L 290.269091 212.202925 
L 292.391016 207.422861 
L 294.512941 216.500704 
L 296.634866 190.160555 
L 298.756791 194.135691 
L 300.878717 209.851545 
L 303.000642 196.546736 
L 305.122567 183.984538 
L 307.244492 198.372668 
L 309.366417 214.770998 
L 311.488342 206.298323 
L 313.610267 200.624401 
L 315.732193 187.940003 
L 317.854118 198.58391 
L 319.976043 202.914826 
L 322.097968 198.537748 
L 324.219893 192.813841 
L 326.341818 206.867367 
L 328.463743 189.239223 
L 330.585668 212.013177 
L 332.707594 222.795814 
L 334.829519 205.626437 
L 336.951444 200.053149 
L 339.073369 203.950303 
L 341.195294 199.574087 
L 343.317219 204.064126 
L 345.439144 197.474922 
L 347.56107 200.603505 
L 349.682995 192.110517 
L 351.80492 196.36008 
L 353.926845 205.735753 
L 356.04877 225.669155 
L 358.170695 222.200252 
L 360.29262 215.184652 
L 362.414545 208.81133 
L 364.536471 196.789145 
L 366.658396 202.734174 
L 368.780321 223.201728 
L 370.902246 210.301562 
L 373.024171 226.365724 
L 375.146096 199.372031 
L 377.268021 199.16163 
L 379.389947 206.760565 
L 381.511872 199.989937 
L 383.633797 197.293783 
L 385.755722 199.856439 
L 387.877647 204.243427 
L 389.999572 215.612739 
L 392.121497 229.764389 
L 394.243422 202.727714 
L 396.365348 224.414276 
L 398.487273 220.312092 
L 398.487273 220.312092 
" clip-path="url(#p8e4fa6b609)" style="fill: none; stroke: #008000; stroke-opacity: 0.8; stroke-width: 0.5; stroke-linecap: square"/>
   </g>
   <g id="line2d_20">
    <path d="M 73.832727 193.358496 
L 75.954652 190.768465 
L 78.076578 203.034155 
L 80.198503 201.533149 
L 82.320428 206.346337 
L 84.442353 180.13654 
L 86.564278 173.716194 
L 88.686203 169.677687 
L 90.808128 169.707965 
L 92.930053 168.676913 
L 95.051979 193.76899 
L 97.173904 186.981259 
L 99.295829 194.817564 
L 101.417754 175.46402 
L 103.539679 189.308079 
L 105.661604 201.543196 
L 107.783529 163.430678 
L 109.905455 196.66496 
L 112.02738 190.613575 
L 114.149305 183.60295 
L 116.27123 196.110129 
L 118.393155 205.348231 
L 120.51508 204.259645 
L 122.637005 167.428385 
L 124.75893 166.975671 
L 126.880856 198.567933 
L 129.002781 194.197658 
L 131.124706 188.095309 
L 133.246631 196.895897 
L 135.368556 197.627624 
L 137.490481 204.487167 
L 139.612406 195.840448 
L 141.734332 208.881985 
L 143.856257 207.845205 
L 145.978182 189.093354 
L 148.100107 163.21149 
L 150.222032 197.470692 
L 152.343957 201.636365 
L 154.465882 199.14158 
L 156.587807 199.089191 
L 158.709733 192.853632 
L 160.831658 204.10095 
L 162.953583 198.845887 
L 165.075508 211.125156 
L 167.197433 195.216269 
L 169.319358 199.489811 
L 171.441283 206.712747 
L 173.563209 215.358901 
L 175.685134 200.287052 
L 177.807059 155.964287 
L 179.928984 182.194635 
L 182.050909 201.579904 
L 184.172834 190.638701 
L 186.294759 208.690716 
L 188.416684 135.17962 
L 190.53861 159.038609 
L 192.660535 193.821879 
L 194.78246 194.742898 
L 196.904385 193.25027 
L 199.02631 204.613008 
L 201.148235 234.429628 
L 203.27016 199.856051 
L 205.392086 211.5692 
L 207.514011 186.908368 
L 209.635936 224.173891 
L 211.757861 204.029432 
L 213.879786 208.738238 
L 216.001711 201.448773 
L 218.123636 185.040117 
L 220.245561 199.459337 
L 222.367487 196.704437 
L 224.489412 194.901837 
L 226.611337 215.106634 
L 228.733262 220.504492 
L 230.855187 216.874937 
L 232.977112 204.924336 
L 235.099037 187.597149 
L 237.220963 186.813285 
L 239.342888 204.379694 
L 241.464813 186.176051 
L 243.586738 174.970354 
L 245.708663 193.055727 
L 247.830588 207.281004 
L 249.952513 210.516671 
L 252.074439 199.97406 
L 254.196364 214.437277 
L 256.318289 200.416362 
L 258.440214 179.759225 
L 260.562139 196.697922 
L 262.684064 194.770838 
L 264.805989 187.781546 
L 266.927914 188.867198 
L 269.04984 198.895373 
L 271.171765 201.469904 
L 273.29369 191.448024 
L 275.415615 197.758025 
L 277.53754 197.263334 
L 279.659465 194.027701 
L 281.78139 181.109595 
L 283.903316 195.251466 
L 286.025241 193.323151 
L 288.147166 201.674816 
L 290.269091 199.423145 
L 292.391016 186.443987 
L 294.512941 201.207514 
L 296.634866 163.155817 
L 298.756791 167.503292 
L 300.878717 198.391304 
L 303.000642 191.784662 
L 305.122567 159.489969 
L 307.244492 179.562905 
L 309.366417 194.391667 
L 311.488342 183.258661 
L 313.610267 175.984168 
L 315.732193 162.928089 
L 317.854118 157.803279 
L 319.976043 190.744896 
L 322.097968 179.985876 
L 324.219893 176.003945 
L 326.341818 192.892462 
L 328.463743 162.910236 
L 330.585668 192.838093 
L 332.707594 207.427917 
L 334.829519 177.518959 
L 336.951444 157.479947 
L 339.073369 173.577212 
L 341.195294 167.581052 
L 343.317219 110.515709 
L 345.439144 145.101966 
L 347.56107 150.538707 
L 349.682995 147.48693 
L 351.80492 183.736208 
L 353.926845 183.37051 
L 356.04877 212.656818 
L 358.170695 213.770933 
L 360.29262 205.934498 
L 362.414545 193.72633 
L 364.536471 186.630374 
L 366.658396 192.342584 
L 368.780321 206.807296 
L 370.902246 203.289718 
L 373.024171 192.915249 
L 375.146096 171.135374 
L 377.268021 193.036189 
L 379.389947 187.826423 
L 381.511872 190.220641 
L 383.633797 184.091519 
L 385.755722 187.321467 
L 387.877647 199.66167 
L 389.999572 207.528109 
L 392.121497 219.119967 
L 394.243422 191.954316 
L 396.365348 199.927777 
L 398.487273 224.843332 
L 398.487273 224.843332 
" clip-path="url(#p8e4fa6b609)" style="fill: none; stroke: #32cd32; stroke-opacity: 0.8; stroke-width: 0.5; stroke-linecap: square"/>
   </g>
   <g id="line2d_21">
    <path d="M 73.832727 234.106228 
L 75.954652 226.301601 
L 78.076578 221.682398 
L 80.198503 232.703659 
L 82.320428 221.968306 
L 84.442353 202.577075 
L 86.564278 206.931825 
L 88.686203 210.546437 
L 90.808128 210.263569 
L 92.930053 223.092487 
L 95.051979 222.536334 
L 97.173904 218.131267 
L 99.295829 214.977322 
L 101.417754 231.055113 
L 103.539679 243.722685 
L 105.661604 222.641189 
L 107.783529 219.149535 
L 109.905455 217.958111 
L 112.02738 212.157479 
L 114.149305 221.076836 
L 116.27123 218.037108 
L 118.393155 219.649253 
L 120.51508 222.934624 
L 122.637005 227.010165 
L 124.75893 206.995137 
L 126.880856 224.145027 
L 129.002781 213.557275 
L 131.124706 219.757171 
L 133.246631 232.684042 
L 135.368556 212.880991 
L 137.490481 216.126337 
L 139.612406 216.096856 
L 141.734332 219.551908 
L 143.856257 215.324359 
L 145.978182 226.871665 
L 148.100107 231.078446 
L 150.222032 210.89842 
L 152.343957 212.198865 
L 154.465882 225.971259 
L 156.587807 213.436213 
L 158.709733 210.137334 
L 160.831658 216.252119 
L 162.953583 213.453406 
L 165.075508 229.467014 
L 167.197433 223.456218 
L 169.319358 216.735866 
L 171.441283 217.204717 
L 173.563209 230.942335 
L 175.685134 223.934961 
L 177.807059 222.956086 
L 179.928984 213.398443 
L 182.050909 218.611233 
L 184.172834 206.857172 
L 186.294759 273.337427 
L 188.416684 248.768979 
L 190.53861 231.37926 
L 192.660535 223.147485 
L 194.78246 228.40775 
L 196.904385 218.103985 
L 199.02631 232.850237 
L 201.148235 259.862474 
L 203.27016 235.218308 
L 205.392086 226.091886 
L 207.514011 246.026223 
L 209.635936 279.0218 
L 211.757861 243.757117 
L 213.879786 225.54878 
L 216.001711 218.345899 
L 218.123636 216.953743 
L 220.245561 228.079 
L 222.367487 221.585232 
L 224.489412 232.383024 
L 226.611337 229.198636 
L 228.733262 258.003081 
L 230.855187 243.226924 
L 232.977112 231.972678 
L 235.099037 215.188717 
L 237.220963 212.670017 
L 239.342888 223.095349 
L 241.464813 216.634774 
L 243.586738 217.708005 
L 245.708663 210.105321 
L 247.830588 227.914757 
L 249.952513 236.255572 
L 252.074439 222.543976 
L 254.196364 229.900983 
L 256.318289 217.87811 
L 258.440214 209.604523 
L 260.562139 213.171611 
L 262.684064 213.293684 
L 264.805989 216.397989 
L 266.927914 217.369053 
L 269.04984 224.394909 
L 271.171765 214.849561 
L 273.29369 209.682895 
L 275.415615 215.488051 
L 277.53754 224.060936 
L 279.659465 213.963515 
L 281.78139 194.544314 
L 283.903316 217.032893 
L 286.025241 217.830559 
L 288.147166 214.664151 
L 290.269091 225.715127 
L 292.391016 237.368123 
L 294.512941 231.067539 
L 296.634866 205.144514 
L 298.756791 222.905108 
L 300.878717 235.645346 
L 303.000642 208.375368 
L 305.122567 206.574428 
L 307.244492 219.609088 
L 309.366417 235.07095 
L 311.488342 220.601958 
L 313.610267 217.584658 
L 315.732193 212.949265 
L 317.854118 224.373906 
L 319.976043 222.388622 
L 322.097968 223.097628 
L 324.219893 210.373271 
L 326.341818 224.006914 
L 328.463743 215.565189 
L 330.585668 254.843308 
L 332.707594 246.924073 
L 334.829519 258.021279 
L 336.951444 265.792255 
L 339.073369 240.918826 
L 341.195294 225.29379 
L 343.317219 228.332528 
L 345.439144 224.521511 
L 347.56107 238.540028 
L 349.682995 204.790025 
L 351.80492 211.609863 
L 353.926845 223.928831 
L 356.04877 242.080535 
L 360.29262 223.30604 
L 362.414545 218.437551 
L 364.536471 203.814883 
L 366.658396 216.231676 
L 368.780321 236.039076 
L 370.902246 220.917999 
L 373.024171 253.388305 
L 375.146096 216.568211 
L 377.268021 208.944256 
L 379.389947 221.751319 
L 381.511872 209.010156 
L 383.633797 207.3362 
L 385.755722 217.630706 
L 387.877647 209.167063 
L 389.999572 226.382329 
L 392.121497 241.546155 
L 394.243422 221.021153 
L 396.365348 237.533477 
L 398.487273 233.43542 
L 398.487273 233.43542 
" clip-path="url(#p8e4fa6b609)" style="fill: none; stroke: #32cd32; stroke-opacity: 0.8; stroke-width: 0.5; stroke-linecap: square"/>
   </g>
   <g id="line2d_22">
    <path d="M 73.832727 229.104308 
L 75.954652 222.462596 
L 78.076578 224.652416 
L 80.198503 218.900673 
L 82.320428 220.649669 
L 84.442353 192.345378 
L 86.564278 170.026844 
L 88.686203 156.114836 
L 90.808128 184.105552 
L 92.930053 203.813662 
L 95.051979 219.975228 
L 97.173904 219.306438 
L 99.295829 208.472438 
L 101.417754 194.173933 
L 103.539679 225.31682 
L 105.661604 229.408381 
L 107.783529 224.00369 
L 109.905455 208.922508 
L 112.02738 194.853502 
L 114.149305 204.44312 
L 116.27123 216.607654 
L 118.393155 216.895662 
L 120.51508 222.902452 
L 122.637005 227.947511 
L 124.75893 215.569411 
L 126.880856 219.46395 
L 129.002781 204.047372 
L 131.124706 212.240926 
L 133.246631 214.114259 
L 135.368556 207.614761 
L 137.490481 216.272841 
L 139.612406 209.076825 
L 141.734332 213.200881 
L 143.856257 213.215503 
L 145.978182 228.187769 
L 148.100107 228.754142 
L 150.222032 211.8622 
L 152.343957 205.764471 
L 154.465882 209.61455 
L 156.587807 209.080737 
L 158.709733 203.905918 
L 160.831658 212.578984 
L 162.953583 208.164953 
L 165.075508 223.305688 
L 167.197433 228.746337 
L 169.319358 212.497516 
L 171.441283 211.411399 
L 173.563209 227.900813 
L 175.685134 221.312356 
L 177.807059 221.735239 
L 179.928984 209.549037 
L 182.050909 206.592824 
L 184.172834 188.613205 
L 186.294759 226.572943 
L 188.416684 221.243955 
L 190.53861 205.124709 
L 192.660535 210.133604 
L 194.78246 216.612952 
L 196.904385 215.650047 
L 199.02631 234.872172 
L 201.148235 257.838428 
L 203.27016 224.202815 
L 205.392086 229.914764 
L 207.514011 260.288955 
L 209.635936 269.21284 
L 211.757861 241.490906 
L 213.879786 238.885009 
L 216.001711 237.564242 
L 218.123636 224.974303 
L 220.245561 232.123977 
L 222.367487 230.678786 
L 224.489412 230.820541 
L 226.611337 238.912685 
L 228.733262 249.077704 
L 230.855187 239.032478 
L 232.977112 232.13899 
L 235.099037 218.120494 
L 237.220963 215.532818 
L 239.342888 232.906445 
L 241.464813 226.574401 
L 243.586738 200.619837 
L 245.708663 221.091076 
L 247.830588 257.797302 
L 249.952513 261.172453 
L 252.074439 233.365927 
L 254.196364 237.771211 
L 256.318289 224.324568 
L 258.440214 202.745882 
L 260.562139 202.046538 
L 262.684064 238.093296 
L 264.805989 236.585415 
L 266.927914 229.071441 
L 269.04984 223.754537 
L 271.171765 228.164672 
L 273.29369 201.160654 
L 275.415615 213.580416 
L 277.53754 236.605934 
L 279.659465 211.596583 
L 281.78139 189.098534 
L 283.903316 198.261192 
L 286.025241 219.068156 
L 288.147166 220.830371 
L 290.269091 223.319138 
L 292.391016 210.658209 
L 294.512941 224.955494 
L 296.634866 200.684931 
L 298.756791 184.150641 
L 300.878717 209.720265 
L 303.000642 203.050617 
L 305.122567 177.541291 
L 307.244492 162.177163 
L 309.366417 204.594952 
L 311.488342 234.324043 
L 313.610267 206.394192 
L 317.854118 176.063159 
L 319.976043 110.222921 
L 322.097968 174.671947 
L 324.219893 196.267014 
L 326.341818 208.255976 
L 328.463743 196.036436 
L 330.585668 210.118622 
L 332.707594 228.720344 
L 334.829519 240.958805 
L 336.951444 270.803265 
L 339.073369 253.436224 
L 341.195294 256.280463 
L 343.317219 254.182023 
L 345.439144 264.88448 
L 349.682995 214.185585 
L 351.80492 213.055871 
L 353.926845 229.96873 
L 356.04877 248.170455 
L 358.170695 239.242526 
L 360.29262 238.476427 
L 362.414545 226.389867 
L 364.536471 211.528452 
L 366.658396 214.454519 
L 368.780321 244.040283 
L 370.902246 234.08488 
L 373.024171 252.318213 
L 375.146096 208.731073 
L 377.268021 201.868362 
L 379.389947 235.646939 
L 381.511872 223.031416 
L 383.633797 205.804437 
L 385.755722 205.579757 
L 387.877647 214.66973 
L 389.999572 227.505428 
L 392.121497 249.041894 
L 394.243422 225.051572 
L 396.365348 226.307911 
L 398.487273 223.175696 
L 398.487273 223.175696 
" clip-path="url(#p8e4fa6b609)" style="fill: none; stroke: #ff0000; stroke-opacity: 0.8; stroke-width: 0.5; stroke-linecap: square"/>
   </g>
   <g id="line2d_23">
    <path d="M 73.832727 217.813939 
L 75.954652 203.825101 
L 78.076578 207.263563 
L 80.198503 206.922792 
L 82.320428 207.402709 
L 84.442353 173.429828 
L 86.564278 160.113842 
L 88.686203 131.435133 
L 92.930053 189.110384 
L 95.051979 212.325453 
L 97.173904 210.416737 
L 99.295829 195.198893 
L 101.417754 178.591772 
L 103.539679 216.105877 
L 105.661604 215.577634 
L 107.783529 203.340407 
L 109.905455 197.364867 
L 112.02738 184.040044 
L 114.149305 187.432279 
L 116.27123 204.188431 
L 118.393155 213.648898 
L 120.51508 209.244649 
L 122.637005 208.523636 
L 124.75893 200.717326 
L 126.880856 207.480094 
L 129.002781 196.729403 
L 131.124706 194.18418 
L 133.246631 200.248096 
L 135.368556 200.982381 
L 137.490481 208.610165 
L 139.612406 199.54813 
L 141.734332 208.859515 
L 143.856257 207.462236 
L 145.978182 218.177214 
L 148.100107 213.975896 
L 150.222032 203.331195 
L 152.343957 200.868738 
L 154.465882 195.297059 
L 156.587807 202.870615 
L 158.709733 196.010031 
L 160.831658 207.491293 
L 162.953583 200.769703 
L 165.075508 212.972769 
L 167.197433 220.079785 
L 169.319358 202.075683 
L 171.441283 207.440011 
L 173.563209 221.91778 
L 175.685134 214.41973 
L 177.807059 210.456818 
L 179.928984 198.028274 
L 182.050909 201.022317 
L 184.172834 181.159384 
L 186.294759 192.144809 
L 188.416684 152.126046 
L 190.53861 187.682031 
L 192.660535 193.346632 
L 194.78246 204.49259 
L 196.904385 211.67312 
L 199.02631 225.752917 
L 201.148235 239.086276 
L 203.27016 211.692116 
L 205.392086 218.032329 
L 207.514011 243.304566 
L 209.635936 240.580944 
L 211.757861 222.350008 
L 213.879786 226.702476 
L 216.001711 226.176255 
L 218.123636 200.476457 
L 220.245561 212.821344 
L 222.367487 200.78581 
L 224.489412 200.222299 
L 226.611337 224.641901 
L 228.733262 232.354897 
L 230.855187 228.344485 
L 232.977112 218.192223 
L 235.099037 204.605739 
L 237.220963 197.510768 
L 239.342888 216.766645 
L 241.464813 215.330308 
L 243.586738 193.136374 
L 245.708663 201.621067 
L 247.830588 226.950844 
L 249.952513 226.591498 
L 252.074439 220.998973 
L 254.196364 226.664324 
L 256.318289 206.003719 
L 258.440214 191.843718 
L 260.562139 183.634015 
L 262.684064 202.222494 
L 264.805989 215.983586 
L 266.927914 202.083091 
L 269.04984 211.692603 
L 271.171765 207.761747 
L 273.29369 186.74443 
L 275.415615 192.017081 
L 277.53754 214.335967 
L 279.659465 193.818973 
L 281.78139 171.40612 
L 283.903316 182.756186 
L 286.025241 210.036626 
L 288.147166 213.958161 
L 290.269091 213.164784 
L 292.391016 191.037404 
L 294.512941 208.607653 
L 296.634866 153.038738 
L 298.756791 158.451449 
L 300.878717 195.507243 
L 303.000642 192.820195 
L 305.122567 131.266772 
L 307.244492 121.295993 
L 309.366417 112.138522 
L 311.488342 205.812391 
L 313.610267 193.114731 
L 315.732193 168.518771 
L 317.854118 151.822378 
L 319.976043 62.932269 
L 322.097968 53.568 
L 324.219893 184.616721 
L 326.341818 186.897147 
L 328.463743 170.476935 
L 330.585668 198.679146 
L 332.707594 211.258686 
L 334.829519 211.578978 
L 336.951444 248.222003 
L 339.073369 229.231192 
L 341.195294 240.73459 
L 343.317219 232.077187 
L 345.439144 257.612841 
L 347.56107 212.363689 
L 349.682995 200.933761 
L 351.80492 202.129055 
L 353.926845 212.128726 
L 356.04877 229.551274 
L 358.170695 224.263729 
L 360.29262 229.562024 
L 362.414545 208.613282 
L 364.536471 201.227723 
L 366.658396 205.450718 
L 368.780321 224.860877 
L 370.902246 217.854423 
L 373.024171 237.313416 
L 375.146096 193.687321 
L 377.268021 180.716615 
L 379.389947 226.617904 
L 383.633797 189.507004 
L 385.755722 187.288606 
L 392.121497 230.977799 
L 394.243422 208.156153 
L 396.365348 210.075306 
L 398.487273 233.337153 
L 398.487273 233.337153 
" clip-path="url(#p8e4fa6b609)" style="fill: none; stroke: #f08080; stroke-opacity: 0.8; stroke-width: 0.5; stroke-linecap: square"/>
   </g>
   <g id="line2d_24">
    <path d="M 73.832727 246.054631 
L 75.954652 243.065864 
L 78.076578 235.029901 
L 80.198503 241.876117 
L 82.320428 228.550791 
L 84.442353 209.101089 
L 86.564278 185.4622 
L 88.686203 168.235477 
L 90.808128 224.031508 
L 92.930053 220.380577 
L 95.051979 229.426548 
L 97.173904 227.982173 
L 99.295829 222.26316 
L 101.417754 214.958791 
L 103.539679 233.189415 
L 105.661604 240.084668 
L 107.783529 243.774848 
L 109.905455 218.93097 
L 112.02738 206.46442 
L 114.149305 215.882172 
L 116.27123 226.865556 
L 118.393155 220.18785 
L 120.51508 234.219778 
L 122.637005 242.460877 
L 124.75893 228.308129 
L 126.880856 229.540274 
L 129.002781 211.844508 
L 131.124706 219.560262 
L 133.246631 229.951669 
L 135.368556 215.370918 
L 137.490481 222.235642 
L 139.612406 216.76444 
L 141.734332 216.4831 
L 143.856257 219.397014 
L 145.978182 235.201747 
L 148.100107 240.611953 
L 150.222032 220.015342 
L 152.343957 212.798512 
L 154.465882 224.230508 
L 156.587807 218.801208 
L 158.709733 209.926572 
L 160.831658 218.721039 
L 162.953583 215.705548 
L 165.075508 238.15749 
L 167.197433 237.928451 
L 169.319358 230.790705 
L 171.441283 216.172842 
L 173.563209 239.052706 
L 175.685134 230.951118 
L 177.807059 232.634219 
L 179.928984 216.315724 
L 182.050909 214.111701 
L 184.172834 198.022065 
L 186.294759 270.897122 
L 188.416684 269.566002 
L 190.53861 231.759301 
L 192.660535 223.924799 
L 194.78246 234.436918 
L 196.904385 226.650932 
L 199.02631 249.137921 
L 201.148235 272.858095 
L 203.27016 243.793078 
L 205.392086 250.939165 
L 207.514011 277.271684 
L 209.635936 295.488 
L 211.757861 259.510793 
L 216.001711 243.41922 
L 218.123636 237.077113 
L 220.245561 247.240912 
L 222.367487 254.142082 
L 224.489412 255.823216 
L 226.611337 258.562027 
L 228.733262 259.260365 
L 230.855187 251.276139 
L 232.977112 243.76196 
L 235.099037 229.514816 
L 237.220963 230.496902 
L 239.342888 250.002154 
L 241.464813 239.934347 
L 243.586738 213.004442 
L 245.708663 237.308186 
L 247.830588 277.424231 
L 249.952513 290.161104 
L 252.074439 244.632504 
L 254.196364 251.646288 
L 256.318289 243.230366 
L 258.440214 222.221011 
L 260.562139 241.990488 
L 262.684064 252.303793 
L 264.805989 266.869285 
L 266.927914 263.764058 
L 269.04984 247.984919 
L 271.171765 259.146759 
L 273.29369 213.112358 
L 275.415615 253.202724 
L 277.53754 247.666154 
L 279.659465 225.918462 
L 281.78139 219.612568 
L 283.903316 225.185973 
L 286.025241 224.83156 
L 288.147166 230.556528 
L 290.269091 234.986318 
L 292.391016 236.875201 
L 294.512941 232.079818 
L 296.634866 221.360336 
L 298.756791 209.349914 
L 300.878717 228.974285 
L 303.000642 216.419432 
L 305.122567 202.00031 
L 307.244492 190.574943 
L 309.366417 239.128945 
L 311.488342 250.164054 
L 313.610267 215.744324 
L 315.732193 216.575398 
L 317.854118 197.511887 
L 319.976043 204.078405 
L 322.097968 237.093998 
L 324.219893 207.157205 
L 326.341818 227.007039 
L 328.463743 224.61064 
L 332.707594 256.104376 
L 334.829519 286.08332 
L 336.951444 287.211255 
L 339.073369 275.464834 
L 341.195294 271.976593 
L 343.317219 265.878676 
L 345.439144 274.536086 
L 347.56107 276.722389 
L 349.682995 243.035447 
L 351.80492 225.251864 
L 356.04877 262.530489 
L 358.170695 249.302715 
L 360.29262 252.546332 
L 362.414545 240.946597 
L 364.536471 222.932375 
L 366.658396 224.078596 
L 368.780321 255.104392 
L 370.902246 256.77395 
L 373.024171 265.548254 
L 375.146096 228.619496 
L 377.268021 226.801183 
L 379.389947 247.329814 
L 383.633797 221.131205 
L 385.755722 218.769443 
L 387.877647 225.678775 
L 389.999572 238.247998 
L 392.121497 261.825521 
L 394.243422 251.82732 
L 396.365348 242.789624 
L 398.487273 241.283317 
L 398.487273 241.283317 
" clip-path="url(#p8e4fa6b609)" style="fill: none; stroke: #f08080; stroke-opacity: 0.8; stroke-width: 0.5; stroke-linecap: square"/>
   </g>
   <g id="patch_3">
    <path d="M 57.6 307.584 
L 57.6 41.472 
" style="fill: none; stroke: #000000; stroke-width: 0.8; stroke-linejoin: miter; stroke-linecap: square"/>
   </g>
   <g id="patch_4">
    <path d="M 414.72 307.584 
L 414.72 41.472 
" style="fill: none; stroke: #000000; stroke-width: 0.8; stroke-linejoin: miter; stroke-linecap: square"/>
   </g>
   <g id="patch_5">
    <path d="M 57.6 307.584 
L 414.72 307.584 
" style="fill: none; stroke: #000000; stroke-width: 0.8; stroke-linejoin: miter; stroke-linecap: square"/>
   </g>
   <g id="patch_6">
    <path d="M 57.6 41.472 
L 414.72 41.472 
" style="fill: none; stroke: #000000; stroke-width: 0.8; stroke-linejoin: miter; stroke-linecap: square"/>
   </g>
   <g id="text_19">
    <!-- naive_eurusd -->
    <g transform="translate(196.0725 35.472) scale(0.12 -0.12)">
     <defs>
      <path id="DejaVuSans-6e" d="M 3513 2113 
L 3513 0 
L 2938 0 
L 2938 2094 
Q 2938 2591 2744 2837 
Q 2550 3084 2163 3084 
Q 1697 3084 1428 2787 
Q 1159 2491 1159 1978 
L 1159 0 
L 581 0 
L 581 3500 
L 1159 3500 
L 1159 2956 
Q 1366 3272 1645 3428 
Q 1925 3584 2291 3584 
Q 2894 3584 3203 3211 
Q 3513 2838 3513 2113 
z
" transform="scale(0.015625)"/>
      <path id="DejaVuSans-61" d="M 2194 1759 
Q 1497 1759 1228 1600 
Q 959 1441 959 1056 
Q 959 750 1161 570 
Q 1363 391 1709 391 
Q 2188 391 2477 730 
Q 2766 1069 2766 1631 
L 2766 1759 
L 2194 1759 
z
M 3341 1997 
L 3341 0 
L 2766 0 
L 2766 531 
Q 2569 213 2275 61 
Q 1981 -91 1556 -91 
Q 1019 -91 701 211 
Q 384 513 384 1019 
Q 384 1609 779 1909 
Q 1175 2209 1959 2209 
L 2766 2209 
L 2766 2266 
Q 2766 2663 2505 2880 
Q 2244 3097 1772 3097 
Q 1472 3097 1187 3025 
Q 903 2953 641 2809 
L 641 3341 
Q 956 3463 1253 3523 
Q 1550 3584 1831 3584 
Q 2591 3584 2966 3190 
Q 3341 2797 3341 1997 
z
" transform="scale(0.015625)"/>
      <path id="DejaVuSans-69" d="M 603 3500 
L 1178 3500 
L 1178 0 
L 603 0 
L 603 3500 
z
M 603 4863 
L 1178 4863 
L 1178 4134 
L 603 4134 
L 603 4863 
z
" transform="scale(0.015625)"/>
      <path id="DejaVuSans-76" d="M 191 3500 
L 800 3500 
L 1894 563 
L 2988 3500 
L 3597 3500 
L 2284 0 
L 1503 0 
L 191 3500 
z
" transform="scale(0.015625)"/>
      <path id="DejaVuSans-65" d="M 3597 1894 
L 3597 1613 
L 953 1613 
Q 991 1019 1311 708 
Q 1631 397 2203 397 
Q 2534 397 2845 478 
Q 3156 559 3463 722 
L 3463 178 
Q 3153 47 2828 -22 
Q 2503 -91 2169 -91 
Q 1331 -91 842 396 
Q 353 884 353 1716 
Q 353 2575 817 3079 
Q 1281 3584 2069 3584 
Q 2775 3584 3186 3129 
Q 3597 2675 3597 1894 
z
M 3022 2063 
Q 3016 2534 2758 2815 
Q 2500 3097 2075 3097 
Q 1594 3097 1305 2825 
Q 1016 2553 972 2059 
L 3022 2063 
z
" transform="scale(0.015625)"/>
      <path id="DejaVuSans-5f" d="M 3263 -1063 
L 3263 -1509 
L -63 -1509 
L -63 -1063 
L 3263 -1063 
z
" transform="scale(0.015625)"/>
      <path id="DejaVuSans-75" d="M 544 1381 
L 544 3500 
L 1119 3500 
L 1119 1403 
Q 1119 906 1312 657 
Q 1506 409 1894 409 
Q 2359 409 2629 706 
Q 2900 1003 2900 1516 
L 2900 3500 
L 3475 3500 
L 3475 0 
L 2900 0 
L 2900 538 
Q 2691 219 2414 64 
Q 2138 -91 1772 -91 
Q 1169 -91 856 284 
Q 544 659 544 1381 
z
M 1991 3584 
L 1991 3584 
z
" transform="scale(0.015625)"/>
      <path id="DejaVuSans-72" d="M 2631 2963 
Q 2534 3019 2420 3045 
Q 2306 3072 2169 3072 
Q 1681 3072 1420 2755 
Q 1159 2438 1159 1844 
L 1159 0 
L 581 0 
L 581 3500 
L 1159 3500 
L 1159 2956 
Q 1341 3275 1631 3429 
Q 1922 3584 2338 3584 
Q 2397 3584 2469 3576 
Q 2541 3569 2628 3553 
L 2631 2963 
z
" transform="scale(0.015625)"/>
      <path id="DejaVuSans-73" d="M 2834 3397 
L 2834 2853 
Q 2591 2978 2328 3040 
Q 2066 3103 1784 3103 
Q 1356 3103 1142 2972 
Q 928 2841 928 2578 
Q 928 2378 1081 2264 
Q 1234 2150 1697 2047 
L 1894 2003 
Q 2506 1872 2764 1633 
Q 3022 1394 3022 966 
Q 3022 478 2636 193 
Q 2250 -91 1575 -91 
Q 1294 -91 989 -36 
Q 684 19 347 128 
L 347 722 
Q 666 556 975 473 
Q 1284 391 1588 391 
Q 1994 391 2212 530 
Q 2431 669 2431 922 
Q 2431 1156 2273 1281 
Q 2116 1406 1581 1522 
L 1381 1569 
Q 847 1681 609 1914 
Q 372 2147 372 2553 
Q 372 3047 722 3315 
Q 1072 3584 1716 3584 
Q 2034 3584 2315 3537 
Q 2597 3491 2834 3397 
z
" transform="scale(0.015625)"/>
      <path id="DejaVuSans-64" d="M 2906 2969 
L 2906 4863 
L 3481 4863 
L 3481 0 
L 2906 0 
L 2906 525 
Q 2725 213 2448 61 
Q 2172 -91 1784 -91 
Q 1150 -91 751 415 
Q 353 922 353 1747 
Q 353 2572 751 3078 
Q 1150 3584 1784 3584 
Q 2172 3584 2448 3432 
Q 2725 3281 2906 2969 
z
M 947 1747 
Q 947 1113 1208 752 
Q 1469 391 1925 391 
Q 2381 391 2643 752 
Q 2906 1113 2906 1747 
Q 2906 2381 2643 2742 
Q 2381 3103 1925 3103 
Q 1469 3103 1208 2742 
Q 947 2381 947 1747 
z
" transform="scale(0.015625)"/>
     </defs>
     <use xlink:href="#DejaVuSans-6e"/>
     <use xlink:href="#DejaVuSans-61" x="63.378906"/>
     <use xlink:href="#DejaVuSans-69" x="124.658203"/>
     <use xlink:href="#DejaVuSans-76" x="152.441406"/>
     <use xlink:href="#DejaVuSans-65" x="211.621094"/>
     <use xlink:href="#DejaVuSans-5f" x="273.144531"/>
     <use xlink:href="#DejaVuSans-65" x="323.144531"/>
     <use xlink:href="#DejaVuSans-75" x="384.667969"/>
     <use xlink:href="#DejaVuSans-72" x="448.046875"/>
     <use xlink:href="#DejaVuSans-75" x="489.160156"/>
     <use xlink:href="#DejaVuSans-73" x="552.539062"/>
     <use xlink:href="#DejaVuSans-64" x="604.638672"/>
    </g>
   </g>
   <g id="legend_1">
    <g id="patch_7">
     <path d="M 64.6 137.54075 
L 225.001563 137.54075 
Q 227.001563 137.54075 227.001563 135.54075 
L 227.001563 48.472 
Q 227.001563 46.472 225.001563 46.472 
L 64.6 46.472 
Q 62.6 46.472 62.6 48.472 
L 62.6 135.54075 
Q 62.6 137.54075 64.6 137.54075 
z
" style="fill: #ffffff; opacity: 0.8; stroke: #cccccc; stroke-linejoin: miter"/>
    </g>
    <g id="line2d_25">
     <path d="M 66.6 54.570438 
L 76.6 54.570438 
L 86.6 54.570438 
" style="fill: none; stroke: #008000; stroke-opacity: 0.8; stroke-width: 0.5; stroke-linecap: square"/>
    </g>
    <g id="text_20">
     <!-- Positive predictions -->
     <g transform="translate(94.6 58.070438) scale(0.1 -0.1)">
      <defs>
       <path id="DejaVuSans-50" d="M 1259 4147 
L 1259 2394 
L 2053 2394 
Q 2494 2394 2734 2622 
Q 2975 2850 2975 3272 
Q 2975 3691 2734 3919 
Q 2494 4147 2053 4147 
L 1259 4147 
z
M 628 4666 
L 2053 4666 
Q 2838 4666 3239 4311 
Q 3641 3956 3641 3272 
Q 3641 2581 3239 2228 
Q 2838 1875 2053 1875 
L 1259 1875 
L 1259 0 
L 628 0 
L 628 4666 
z
" transform="scale(0.015625)"/>
       <path id="DejaVuSans-6f" d="M 1959 3097 
Q 1497 3097 1228 2736 
Q 959 2375 959 1747 
Q 959 1119 1226 758 
Q 1494 397 1959 397 
Q 2419 397 2687 759 
Q 2956 1122 2956 1747 
Q 2956 2369 2687 2733 
Q 2419 3097 1959 3097 
z
M 1959 3584 
Q 2709 3584 3137 3096 
Q 3566 2609 3566 1747 
Q 3566 888 3137 398 
Q 2709 -91 1959 -91 
Q 1206 -91 779 398 
Q 353 888 353 1747 
Q 353 2609 779 3096 
Q 1206 3584 1959 3584 
z
" transform="scale(0.015625)"/>
       <path id="DejaVuSans-74" d="M 1172 4494 
L 1172 3500 
L 2356 3500 
L 2356 3053 
L 1172 3053 
L 1172 1153 
Q 1172 725 1289 603 
Q 1406 481 1766 481 
L 2356 481 
L 2356 0 
L 1766 0 
Q 1100 0 847 248 
Q 594 497 594 1153 
L 594 3053 
L 172 3053 
L 172 3500 
L 594 3500 
L 594 4494 
L 1172 4494 
z
" transform="scale(0.015625)"/>
       <path id="DejaVuSans-20" transform="scale(0.015625)"/>
       <path id="DejaVuSans-70" d="M 1159 525 
L 1159 -1331 
L 581 -1331 
L 581 3500 
L 1159 3500 
L 1159 2969 
Q 1341 3281 1617 3432 
Q 1894 3584 2278 3584 
Q 2916 3584 3314 3078 
Q 3713 2572 3713 1747 
Q 3713 922 3314 415 
Q 2916 -91 2278 -91 
Q 1894 -91 1617 61 
Q 1341 213 1159 525 
z
M 3116 1747 
Q 3116 2381 2855 2742 
Q 2594 3103 2138 3103 
Q 1681 3103 1420 2742 
Q 1159 2381 1159 1747 
Q 1159 1113 1420 752 
Q 1681 391 2138 391 
Q 2594 391 2855 752 
Q 3116 1113 3116 1747 
z
" transform="scale(0.015625)"/>
       <path id="DejaVuSans-63" d="M 3122 3366 
L 3122 2828 
Q 2878 2963 2633 3030 
Q 2388 3097 2138 3097 
Q 1578 3097 1268 2742 
Q 959 2388 959 1747 
Q 959 1106 1268 751 
Q 1578 397 2138 397 
Q 2388 397 2633 464 
Q 2878 531 3122 666 
L 3122 134 
Q 2881 22 2623 -34 
Q 2366 -91 2075 -91 
Q 1284 -91 818 406 
Q 353 903 353 1747 
Q 353 2603 823 3093 
Q 1294 3584 2113 3584 
Q 2378 3584 2631 3529 
Q 2884 3475 3122 3366 
z
" transform="scale(0.015625)"/>
      </defs>
      <use xlink:href="#DejaVuSans-50"/>
      <use xlink:href="#DejaVuSans-6f" x="56.677734"/>
      <use xlink:href="#DejaVuSans-73" x="117.859375"/>
      <use xlink:href="#DejaVuSans-69" x="169.958984"/>
      <use xlink:href="#DejaVuSans-74" x="197.742188"/>
      <use xlink:href="#DejaVuSans-69" x="236.951172"/>
      <use xlink:href="#DejaVuSans-76" x="264.734375"/>
      <use xlink:href="#DejaVuSans-65" x="323.914062"/>
      <use xlink:href="#DejaVuSans-20" x="385.4375"/>
      <use xlink:href="#DejaVuSans-70" x="417.224609"/>
      <use xlink:href="#DejaVuSans-72" x="480.701172"/>
      <use xlink:href="#DejaVuSans-65" x="519.564453"/>
      <use xlink:href="#DejaVuSans-64" x="581.087891"/>
      <use xlink:href="#DejaVuSans-69" x="644.564453"/>
      <use xlink:href="#DejaVuSans-63" x="672.347656"/>
      <use xlink:href="#DejaVuSans-74" x="727.328125"/>
      <use xlink:href="#DejaVuSans-69" x="766.537109"/>
      <use xlink:href="#DejaVuSans-6f" x="794.320312"/>
      <use xlink:href="#DejaVuSans-6e" x="855.501953"/>
      <use xlink:href="#DejaVuSans-73" x="918.880859"/>
     </g>
    </g>
    <g id="line2d_26">
     <path d="M 66.6 69.248563 
L 76.6 69.248563 
L 86.6 69.248563 
" style="fill: none; stroke: #32cd32; stroke-opacity: 0.8; stroke-width: 0.5; stroke-linecap: square"/>
    </g>
    <g id="text_21">
     <!-- Positive predictions max -->
     <g transform="translate(94.6 72.748563) scale(0.1 -0.1)">
      <defs>
       <path id="DejaVuSans-6d" d="M 3328 2828 
Q 3544 3216 3844 3400 
Q 4144 3584 4550 3584 
Q 5097 3584 5394 3201 
Q 5691 2819 5691 2113 
L 5691 0 
L 5113 0 
L 5113 2094 
Q 5113 2597 4934 2840 
Q 4756 3084 4391 3084 
Q 3944 3084 3684 2787 
Q 3425 2491 3425 1978 
L 3425 0 
L 2847 0 
L 2847 2094 
Q 2847 2600 2669 2842 
Q 2491 3084 2119 3084 
Q 1678 3084 1418 2786 
Q 1159 2488 1159 1978 
L 1159 0 
L 581 0 
L 581 3500 
L 1159 3500 
L 1159 2956 
Q 1356 3278 1631 3431 
Q 1906 3584 2284 3584 
Q 2666 3584 2933 3390 
Q 3200 3197 3328 2828 
z
" transform="scale(0.015625)"/>
       <path id="DejaVuSans-78" d="M 3513 3500 
L 2247 1797 
L 3578 0 
L 2900 0 
L 1881 1375 
L 863 0 
L 184 0 
L 1544 1831 
L 300 3500 
L 978 3500 
L 1906 2253 
L 2834 3500 
L 3513 3500 
z
" transform="scale(0.015625)"/>
      </defs>
      <use xlink:href="#DejaVuSans-50"/>
      <use xlink:href="#DejaVuSans-6f" x="56.677734"/>
      <use xlink:href="#DejaVuSans-73" x="117.859375"/>
      <use xlink:href="#DejaVuSans-69" x="169.958984"/>
      <use xlink:href="#DejaVuSans-74" x="197.742188"/>
      <use xlink:href="#DejaVuSans-69" x="236.951172"/>
      <use xlink:href="#DejaVuSans-76" x="264.734375"/>
      <use xlink:href="#DejaVuSans-65" x="323.914062"/>
      <use xlink:href="#DejaVuSans-20" x="385.4375"/>
      <use xlink:href="#DejaVuSans-70" x="417.224609"/>
      <use xlink:href="#DejaVuSans-72" x="480.701172"/>
      <use xlink:href="#DejaVuSans-65" x="519.564453"/>
      <use xlink:href="#DejaVuSans-64" x="581.087891"/>
      <use xlink:href="#DejaVuSans-69" x="644.564453"/>
      <use xlink:href="#DejaVuSans-63" x="672.347656"/>
      <use xlink:href="#DejaVuSans-74" x="727.328125"/>
      <use xlink:href="#DejaVuSans-69" x="766.537109"/>
      <use xlink:href="#DejaVuSans-6f" x="794.320312"/>
      <use xlink:href="#DejaVuSans-6e" x="855.501953"/>
      <use xlink:href="#DejaVuSans-73" x="918.880859"/>
      <use xlink:href="#DejaVuSans-20" x="970.980469"/>
      <use xlink:href="#DejaVuSans-6d" x="1002.767578"/>
      <use xlink:href="#DejaVuSans-61" x="1100.179688"/>
      <use xlink:href="#DejaVuSans-78" x="1161.458984"/>
     </g>
    </g>
    <g id="line2d_27">
     <path d="M 66.6 83.926688 
L 76.6 83.926688 
L 86.6 83.926688 
" style="fill: none; stroke: #32cd32; stroke-opacity: 0.8; stroke-width: 0.5; stroke-linecap: square"/>
    </g>
    <g id="text_22">
     <!-- Positive predictions min -->
     <g transform="translate(94.6 87.426688) scale(0.1 -0.1)">
      <use xlink:href="#DejaVuSans-50"/>
      <use xlink:href="#DejaVuSans-6f" x="56.677734"/>
      <use xlink:href="#DejaVuSans-73" x="117.859375"/>
      <use xlink:href="#DejaVuSans-69" x="169.958984"/>
      <use xlink:href="#DejaVuSans-74" x="197.742188"/>
      <use xlink:href="#DejaVuSans-69" x="236.951172"/>
      <use xlink:href="#DejaVuSans-76" x="264.734375"/>
      <use xlink:href="#DejaVuSans-65" x="323.914062"/>
      <use xlink:href="#DejaVuSans-20" x="385.4375"/>
      <use xlink:href="#DejaVuSans-70" x="417.224609"/>
      <use xlink:href="#DejaVuSans-72" x="480.701172"/>
      <use xlink:href="#DejaVuSans-65" x="519.564453"/>
      <use xlink:href="#DejaVuSans-64" x="581.087891"/>
      <use xlink:href="#DejaVuSans-69" x="644.564453"/>
      <use xlink:href="#DejaVuSans-63" x="672.347656"/>
      <use xlink:href="#DejaVuSans-74" x="727.328125"/>
      <use xlink:href="#DejaVuSans-69" x="766.537109"/>
      <use xlink:href="#DejaVuSans-6f" x="794.320312"/>
      <use xlink:href="#DejaVuSans-6e" x="855.501953"/>
      <use xlink:href="#DejaVuSans-73" x="918.880859"/>
      <use xlink:href="#DejaVuSans-20" x="970.980469"/>
      <use xlink:href="#DejaVuSans-6d" x="1002.767578"/>
      <use xlink:href="#DejaVuSans-69" x="1100.179688"/>
      <use xlink:href="#DejaVuSans-6e" x="1127.962891"/>
     </g>
    </g>
    <g id="line2d_28">
     <path d="M 66.6 98.604813 
L 76.6 98.604813 
L 86.6 98.604813 
" style="fill: none; stroke: #ff0000; stroke-opacity: 0.8; stroke-width: 0.5; stroke-linecap: square"/>
    </g>
    <g id="text_23">
     <!-- Negative predictions -->
     <g transform="translate(94.6 102.104813) scale(0.1 -0.1)">
      <defs>
       <path id="DejaVuSans-4e" d="M 628 4666 
L 1478 4666 
L 3547 763 
L 3547 4666 
L 4159 4666 
L 4159 0 
L 3309 0 
L 1241 3903 
L 1241 0 
L 628 0 
L 628 4666 
z
" transform="scale(0.015625)"/>
       <path id="DejaVuSans-67" d="M 2906 1791 
Q 2906 2416 2648 2759 
Q 2391 3103 1925 3103 
Q 1463 3103 1205 2759 
Q 947 2416 947 1791 
Q 947 1169 1205 825 
Q 1463 481 1925 481 
Q 2391 481 2648 825 
Q 2906 1169 2906 1791 
z
M 3481 434 
Q 3481 -459 3084 -895 
Q 2688 -1331 1869 -1331 
Q 1566 -1331 1297 -1286 
Q 1028 -1241 775 -1147 
L 775 -588 
Q 1028 -725 1275 -790 
Q 1522 -856 1778 -856 
Q 2344 -856 2625 -561 
Q 2906 -266 2906 331 
L 2906 616 
Q 2728 306 2450 153 
Q 2172 0 1784 0 
Q 1141 0 747 490 
Q 353 981 353 1791 
Q 353 2603 747 3093 
Q 1141 3584 1784 3584 
Q 2172 3584 2450 3431 
Q 2728 3278 2906 2969 
L 2906 3500 
L 3481 3500 
L 3481 434 
z
" transform="scale(0.015625)"/>
      </defs>
      <use xlink:href="#DejaVuSans-4e"/>
      <use xlink:href="#DejaVuSans-65" x="74.804688"/>
      <use xlink:href="#DejaVuSans-67" x="136.328125"/>
      <use xlink:href="#DejaVuSans-61" x="199.804688"/>
      <use xlink:href="#DejaVuSans-74" x="261.083984"/>
      <use xlink:href="#DejaVuSans-69" x="300.292969"/>
      <use xlink:href="#DejaVuSans-76" x="328.076172"/>
      <use xlink:href="#DejaVuSans-65" x="387.255859"/>
      <use xlink:href="#DejaVuSans-20" x="448.779297"/>
      <use xlink:href="#DejaVuSans-70" x="480.566406"/>
      <use xlink:href="#DejaVuSans-72" x="544.042969"/>
      <use xlink:href="#DejaVuSans-65" x="582.90625"/>
      <use xlink:href="#DejaVuSans-64" x="644.429688"/>
      <use xlink:href="#DejaVuSans-69" x="707.90625"/>
      <use xlink:href="#DejaVuSans-63" x="735.689453"/>
      <use xlink:href="#DejaVuSans-74" x="790.669922"/>
      <use xlink:href="#DejaVuSans-69" x="829.878906"/>
      <use xlink:href="#DejaVuSans-6f" x="857.662109"/>
      <use xlink:href="#DejaVuSans-6e" x="918.84375"/>
      <use xlink:href="#DejaVuSans-73" x="982.222656"/>
     </g>
    </g>
    <g id="line2d_29">
     <path d="M 66.6 113.282938 
L 76.6 113.282938 
L 86.6 113.282938 
" style="fill: none; stroke: #f08080; stroke-opacity: 0.8; stroke-width: 0.5; stroke-linecap: square"/>
    </g>
    <g id="text_24">
     <!-- Negative predictions max -->
     <g transform="translate(94.6 116.782938) scale(0.1 -0.1)">
      <use xlink:href="#DejaVuSans-4e"/>
      <use xlink:href="#DejaVuSans-65" x="74.804688"/>
      <use xlink:href="#DejaVuSans-67" x="136.328125"/>
      <use xlink:href="#DejaVuSans-61" x="199.804688"/>
      <use xlink:href="#DejaVuSans-74" x="261.083984"/>
      <use xlink:href="#DejaVuSans-69" x="300.292969"/>
      <use xlink:href="#DejaVuSans-76" x="328.076172"/>
      <use xlink:href="#DejaVuSans-65" x="387.255859"/>
      <use xlink:href="#DejaVuSans-20" x="448.779297"/>
      <use xlink:href="#DejaVuSans-70" x="480.566406"/>
      <use xlink:href="#DejaVuSans-72" x="544.042969"/>
      <use xlink:href="#DejaVuSans-65" x="582.90625"/>
      <use xlink:href="#DejaVuSans-64" x="644.429688"/>
      <use xlink:href="#DejaVuSans-69" x="707.90625"/>
      <use xlink:href="#DejaVuSans-63" x="735.689453"/>
      <use xlink:href="#DejaVuSans-74" x="790.669922"/>
      <use xlink:href="#DejaVuSans-69" x="829.878906"/>
      <use xlink:href="#DejaVuSans-6f" x="857.662109"/>
      <use xlink:href="#DejaVuSans-6e" x="918.84375"/>
      <use xlink:href="#DejaVuSans-73" x="982.222656"/>
      <use xlink:href="#DejaVuSans-20" x="1034.322266"/>
      <use xlink:href="#DejaVuSans-6d" x="1066.109375"/>
      <use xlink:href="#DejaVuSans-61" x="1163.521484"/>
      <use xlink:href="#DejaVuSans-78" x="1224.800781"/>
     </g>
    </g>
    <g id="line2d_30">
     <path d="M 66.6 127.961063 
L 76.6 127.961063 
L 86.6 127.961063 
" style="fill: none; stroke: #f08080; stroke-opacity: 0.8; stroke-width: 0.5; stroke-linecap: square"/>
    </g>
    <g id="text_25">
     <!-- Negative predictions min -->
     <g transform="translate(94.6 131.461063) scale(0.1 -0.1)">
      <use xlink:href="#DejaVuSans-4e"/>
      <use xlink:href="#DejaVuSans-65" x="74.804688"/>
      <use xlink:href="#DejaVuSans-67" x="136.328125"/>
      <use xlink:href="#DejaVuSans-61" x="199.804688"/>
      <use xlink:href="#DejaVuSans-74" x="261.083984"/>
      <use xlink:href="#DejaVuSans-69" x="300.292969"/>
      <use xlink:href="#DejaVuSans-76" x="328.076172"/>
      <use xlink:href="#DejaVuSans-65" x="387.255859"/>
      <use xlink:href="#DejaVuSans-20" x="448.779297"/>
      <use xlink:href="#DejaVuSans-70" x="480.566406"/>
      <use xlink:href="#DejaVuSans-72" x="544.042969"/>
      <use xlink:href="#DejaVuSans-65" x="582.90625"/>
      <use xlink:href="#DejaVuSans-64" x="644.429688"/>
      <use xlink:href="#DejaVuSans-69" x="707.90625"/>
      <use xlink:href="#DejaVuSans-63" x="735.689453"/>
      <use xlink:href="#DejaVuSans-74" x="790.669922"/>
      <use xlink:href="#DejaVuSans-69" x="829.878906"/>
      <use xlink:href="#DejaVuSans-6f" x="857.662109"/>
      <use xlink:href="#DejaVuSans-6e" x="918.84375"/>
      <use xlink:href="#DejaVuSans-73" x="982.222656"/>
      <use xlink:href="#DejaVuSans-20" x="1034.322266"/>
      <use xlink:href="#DejaVuSans-6d" x="1066.109375"/>
      <use xlink:href="#DejaVuSans-69" x="1163.521484"/>
      <use xlink:href="#DejaVuSans-6e" x="1191.304688"/>
     </g>
    </g>
   </g>
  </g>
 </g>
 <defs>
  <clipPath id="p8e4fa6b609">
   <rect x="57.6" y="41.472" width="357.12" height="266.112"/>
  </clipPath>
 </defs>
</svg>
