<?xml version="1.0" encoding="utf-8" standalone="no"?>
<!DOCTYPE svg PUBLIC "-//W3C//DTD SVG 1.1//EN"
  "http://www.w3.org/Graphics/SVG/1.1/DTD/svg11.dtd">
<svg xmlns:xlink="http://www.w3.org/1999/xlink" width="460.8pt" height="345.6pt" viewBox="0 0 460.8 345.6" xmlns="http://www.w3.org/2000/svg" version="1.1">
 <metadata>
  <rdf:RDF xmlns:dc="http://purl.org/dc/elements/1.1/" xmlns:cc="http://creativecommons.org/ns#" xmlns:rdf="http://www.w3.org/1999/02/22-rdf-syntax-ns#">
   <cc:Work>
    <dc:type rdf:resource="http://purl.org/dc/dcmitype/StillImage"/>
    <dc:date>2024-05-30T16:29:00.519819</dc:date>
    <dc:format>image/svg+xml</dc:format>
    <dc:creator>
     <cc:Agent>
      <dc:title>Matplotlib v3.9.0, https://matplotlib.org/</dc:title>
     </cc:Agent>
    </dc:creator>
   </cc:Work>
  </rdf:RDF>
 </metadata>
 <defs>
  <style type="text/css">*{stroke-linejoin: round; stroke-linecap: butt}</style>
 </defs>
 <g id="figure_1">
  <g id="patch_1">
   <path d="M 0 345.6 
L 460.8 345.6 
L 460.8 0 
L 0 0 
z
" style="fill: #ffffff"/>
  </g>
  <g id="axes_1">
   <g id="patch_2">
    <path d="M 57.6 307.584 
L 414.72 307.584 
L 414.72 41.472 
L 57.6 41.472 
z
" style="fill: #ffffff"/>
   </g>
   <g id="matplotlib.axis_1">
    <g id="xtick_1">
     <g id="line2d_1">
      <defs>
       <path id="m0dec56c7c2" d="M 0 0 
L 0 3.5 
" style="stroke: #000000; stroke-width: 0.8"/>
      </defs>
      <g>
       <use xlink:href="#m0dec56c7c2" x="73.832727" y="307.584" style="stroke: #000000; stroke-width: 0.8"/>
      </g>
     </g>
     <g id="text_1">
      <!-- 0 -->
      <g transform="translate(70.651477 322.182437) scale(0.1 -0.1)">
       <defs>
        <path id="DejaVuSans-30" d="M 2034 4250 
Q 1547 4250 1301 3770 
Q 1056 3291 1056 2328 
Q 1056 1369 1301 889 
Q 1547 409 2034 409 
Q 2525 409 2770 889 
Q 3016 1369 3016 2328 
Q 3016 3291 2770 3770 
Q 2525 4250 2034 4250 
z
M 2034 4750 
Q 2819 4750 3233 4129 
Q 3647 3509 3647 2328 
Q 3647 1150 3233 529 
Q 2819 -91 2034 -91 
Q 1250 -91 836 529 
Q 422 1150 422 2328 
Q 422 3509 836 4129 
Q 1250 4750 2034 4750 
z
" transform="scale(0.015625)"/>
       </defs>
       <use xlink:href="#DejaVuSans-30"/>
      </g>
     </g>
    </g>
    <g id="xtick_2">
     <g id="line2d_2">
      <g>
       <use xlink:href="#m0dec56c7c2" x="118.003414" y="307.584" style="stroke: #000000; stroke-width: 0.8"/>
      </g>
     </g>
     <g id="text_2">
      <!-- 20 -->
      <g transform="translate(111.640914 322.182437) scale(0.1 -0.1)">
       <defs>
        <path id="DejaVuSans-32" d="M 1228 531 
L 3431 531 
L 3431 0 
L 469 0 
L 469 531 
Q 828 903 1448 1529 
Q 2069 2156 2228 2338 
Q 2531 2678 2651 2914 
Q 2772 3150 2772 3378 
Q 2772 3750 2511 3984 
Q 2250 4219 1831 4219 
Q 1534 4219 1204 4116 
Q 875 4013 500 3803 
L 500 4441 
Q 881 4594 1212 4672 
Q 1544 4750 1819 4750 
Q 2544 4750 2975 4387 
Q 3406 4025 3406 3419 
Q 3406 3131 3298 2873 
Q 3191 2616 2906 2266 
Q 2828 2175 2409 1742 
Q 1991 1309 1228 531 
z
" transform="scale(0.015625)"/>
       </defs>
       <use xlink:href="#DejaVuSans-32"/>
       <use xlink:href="#DejaVuSans-30" x="63.623047"/>
      </g>
     </g>
    </g>
    <g id="xtick_3">
     <g id="line2d_3">
      <g>
       <use xlink:href="#m0dec56c7c2" x="162.1741" y="307.584" style="stroke: #000000; stroke-width: 0.8"/>
      </g>
     </g>
     <g id="text_3">
      <!-- 40 -->
      <g transform="translate(155.8116 322.182437) scale(0.1 -0.1)">
       <defs>
        <path id="DejaVuSans-34" d="M 2419 4116 
L 825 1625 
L 2419 1625 
L 2419 4116 
z
M 2253 4666 
L 3047 4666 
L 3047 1625 
L 3713 1625 
L 3713 1100 
L 3047 1100 
L 3047 0 
L 2419 0 
L 2419 1100 
L 313 1100 
L 313 1709 
L 2253 4666 
z
" transform="scale(0.015625)"/>
       </defs>
       <use xlink:href="#DejaVuSans-34"/>
       <use xlink:href="#DejaVuSans-30" x="63.623047"/>
      </g>
     </g>
    </g>
    <g id="xtick_4">
     <g id="line2d_4">
      <g>
       <use xlink:href="#m0dec56c7c2" x="206.344787" y="307.584" style="stroke: #000000; stroke-width: 0.8"/>
      </g>
     </g>
     <g id="text_4">
      <!-- 60 -->
      <g transform="translate(199.982287 322.182437) scale(0.1 -0.1)">
       <defs>
        <path id="DejaVuSans-36" d="M 2113 2584 
Q 1688 2584 1439 2293 
Q 1191 2003 1191 1497 
Q 1191 994 1439 701 
Q 1688 409 2113 409 
Q 2538 409 2786 701 
Q 3034 994 3034 1497 
Q 3034 2003 2786 2293 
Q 2538 2584 2113 2584 
z
M 3366 4563 
L 3366 3988 
Q 3128 4100 2886 4159 
Q 2644 4219 2406 4219 
Q 1781 4219 1451 3797 
Q 1122 3375 1075 2522 
Q 1259 2794 1537 2939 
Q 1816 3084 2150 3084 
Q 2853 3084 3261 2657 
Q 3669 2231 3669 1497 
Q 3669 778 3244 343 
Q 2819 -91 2113 -91 
Q 1303 -91 875 529 
Q 447 1150 447 2328 
Q 447 3434 972 4092 
Q 1497 4750 2381 4750 
Q 2619 4750 2861 4703 
Q 3103 4656 3366 4563 
z
" transform="scale(0.015625)"/>
       </defs>
       <use xlink:href="#DejaVuSans-36"/>
       <use xlink:href="#DejaVuSans-30" x="63.623047"/>
      </g>
     </g>
    </g>
    <g id="xtick_5">
     <g id="line2d_5">
      <g>
       <use xlink:href="#m0dec56c7c2" x="250.515473" y="307.584" style="stroke: #000000; stroke-width: 0.8"/>
      </g>
     </g>
     <g id="text_5">
      <!-- 80 -->
      <g transform="translate(244.152973 322.182437) scale(0.1 -0.1)">
       <defs>
        <path id="DejaVuSans-38" d="M 2034 2216 
Q 1584 2216 1326 1975 
Q 1069 1734 1069 1313 
Q 1069 891 1326 650 
Q 1584 409 2034 409 
Q 2484 409 2743 651 
Q 3003 894 3003 1313 
Q 3003 1734 2745 1975 
Q 2488 2216 2034 2216 
z
M 1403 2484 
Q 997 2584 770 2862 
Q 544 3141 544 3541 
Q 544 4100 942 4425 
Q 1341 4750 2034 4750 
Q 2731 4750 3128 4425 
Q 3525 4100 3525 3541 
Q 3525 3141 3298 2862 
Q 3072 2584 2669 2484 
Q 3125 2378 3379 2068 
Q 3634 1759 3634 1313 
Q 3634 634 3220 271 
Q 2806 -91 2034 -91 
Q 1263 -91 848 271 
Q 434 634 434 1313 
Q 434 1759 690 2068 
Q 947 2378 1403 2484 
z
M 1172 3481 
Q 1172 3119 1398 2916 
Q 1625 2713 2034 2713 
Q 2441 2713 2670 2916 
Q 2900 3119 2900 3481 
Q 2900 3844 2670 4047 
Q 2441 4250 2034 4250 
Q 1625 4250 1398 4047 
Q 1172 3844 1172 3481 
z
" transform="scale(0.015625)"/>
       </defs>
       <use xlink:href="#DejaVuSans-38"/>
       <use xlink:href="#DejaVuSans-30" x="63.623047"/>
      </g>
     </g>
    </g>
    <g id="xtick_6">
     <g id="line2d_6">
      <g>
       <use xlink:href="#m0dec56c7c2" x="294.68616" y="307.584" style="stroke: #000000; stroke-width: 0.8"/>
      </g>
     </g>
     <g id="text_6">
      <!-- 100 -->
      <g transform="translate(285.14241 322.182437) scale(0.1 -0.1)">
       <defs>
        <path id="DejaVuSans-31" d="M 794 531 
L 1825 531 
L 1825 4091 
L 703 3866 
L 703 4441 
L 1819 4666 
L 2450 4666 
L 2450 531 
L 3481 531 
L 3481 0 
L 794 0 
L 794 531 
z
" transform="scale(0.015625)"/>
       </defs>
       <use xlink:href="#DejaVuSans-31"/>
       <use xlink:href="#DejaVuSans-30" x="63.623047"/>
       <use xlink:href="#DejaVuSans-30" x="127.246094"/>
      </g>
     </g>
    </g>
    <g id="xtick_7">
     <g id="line2d_7">
      <g>
       <use xlink:href="#m0dec56c7c2" x="338.856846" y="307.584" style="stroke: #000000; stroke-width: 0.8"/>
      </g>
     </g>
     <g id="text_7">
      <!-- 120 -->
      <g transform="translate(329.313096 322.182437) scale(0.1 -0.1)">
       <use xlink:href="#DejaVuSans-31"/>
       <use xlink:href="#DejaVuSans-32" x="63.623047"/>
       <use xlink:href="#DejaVuSans-30" x="127.246094"/>
      </g>
     </g>
    </g>
    <g id="xtick_8">
     <g id="line2d_8">
      <g>
       <use xlink:href="#m0dec56c7c2" x="383.027532" y="307.584" style="stroke: #000000; stroke-width: 0.8"/>
      </g>
     </g>
     <g id="text_8">
      <!-- 140 -->
      <g transform="translate(373.483782 322.182437) scale(0.1 -0.1)">
       <use xlink:href="#DejaVuSans-31"/>
       <use xlink:href="#DejaVuSans-34" x="63.623047"/>
       <use xlink:href="#DejaVuSans-30" x="127.246094"/>
      </g>
     </g>
    </g>
   </g>
   <g id="matplotlib.axis_2">
    <g id="ytick_1">
     <g id="line2d_9">
      <defs>
       <path id="m7d1e618eeb" d="M 0 0 
L -3.5 0 
" style="stroke: #000000; stroke-width: 0.8"/>
      </defs>
      <g>
       <use xlink:href="#m7d1e618eeb" x="57.6" y="289.809179" style="stroke: #000000; stroke-width: 0.8"/>
      </g>
     </g>
     <g id="text_9">
      <!-- −1500 -->
      <g transform="translate(16.770313 293.608398) scale(0.1 -0.1)">
       <defs>
        <path id="DejaVuSans-2212" d="M 678 2272 
L 4684 2272 
L 4684 1741 
L 678 1741 
L 678 2272 
z
" transform="scale(0.015625)"/>
        <path id="DejaVuSans-35" d="M 691 4666 
L 3169 4666 
L 3169 4134 
L 1269 4134 
L 1269 2991 
Q 1406 3038 1543 3061 
Q 1681 3084 1819 3084 
Q 2600 3084 3056 2656 
Q 3513 2228 3513 1497 
Q 3513 744 3044 326 
Q 2575 -91 1722 -91 
Q 1428 -91 1123 -41 
Q 819 9 494 109 
L 494 744 
Q 775 591 1075 516 
Q 1375 441 1709 441 
Q 2250 441 2565 725 
Q 2881 1009 2881 1497 
Q 2881 1984 2565 2268 
Q 2250 2553 1709 2553 
Q 1456 2553 1204 2497 
Q 953 2441 691 2322 
L 691 4666 
z
" transform="scale(0.015625)"/>
       </defs>
       <use xlink:href="#DejaVuSans-2212"/>
       <use xlink:href="#DejaVuSans-31" x="83.789062"/>
       <use xlink:href="#DejaVuSans-35" x="147.412109"/>
       <use xlink:href="#DejaVuSans-30" x="211.035156"/>
       <use xlink:href="#DejaVuSans-30" x="274.658203"/>
      </g>
     </g>
    </g>
    <g id="ytick_2">
     <g id="line2d_10">
      <g>
       <use xlink:href="#m7d1e618eeb" x="57.6" y="236.719545" style="stroke: #000000; stroke-width: 0.8"/>
      </g>
     </g>
     <g id="text_10">
      <!-- −1000 -->
      <g transform="translate(16.770313 240.518764) scale(0.1 -0.1)">
       <use xlink:href="#DejaVuSans-2212"/>
       <use xlink:href="#DejaVuSans-31" x="83.789062"/>
       <use xlink:href="#DejaVuSans-30" x="147.412109"/>
       <use xlink:href="#DejaVuSans-30" x="211.035156"/>
       <use xlink:href="#DejaVuSans-30" x="274.658203"/>
      </g>
     </g>
    </g>
    <g id="ytick_3">
     <g id="line2d_11">
      <g>
       <use xlink:href="#m7d1e618eeb" x="57.6" y="183.629912" style="stroke: #000000; stroke-width: 0.8"/>
      </g>
     </g>
     <g id="text_11">
      <!-- −500 -->
      <g transform="translate(23.132812 187.42913) scale(0.1 -0.1)">
       <use xlink:href="#DejaVuSans-2212"/>
       <use xlink:href="#DejaVuSans-35" x="83.789062"/>
       <use xlink:href="#DejaVuSans-30" x="147.412109"/>
       <use xlink:href="#DejaVuSans-30" x="211.035156"/>
      </g>
     </g>
    </g>
    <g id="ytick_4">
     <g id="line2d_12">
      <g>
       <use xlink:href="#m7d1e618eeb" x="57.6" y="130.540278" style="stroke: #000000; stroke-width: 0.8"/>
      </g>
     </g>
     <g id="text_12">
      <!-- 0 -->
      <g transform="translate(44.2375 134.339497) scale(0.1 -0.1)">
       <use xlink:href="#DejaVuSans-30"/>
      </g>
     </g>
    </g>
    <g id="ytick_5">
     <g id="line2d_13">
      <g>
       <use xlink:href="#m7d1e618eeb" x="57.6" y="77.450644" style="stroke: #000000; stroke-width: 0.8"/>
      </g>
     </g>
     <g id="text_13">
      <!-- 500 -->
      <g transform="translate(31.5125 81.249863) scale(0.1 -0.1)">
       <use xlink:href="#DejaVuSans-35"/>
       <use xlink:href="#DejaVuSans-30" x="63.623047"/>
       <use xlink:href="#DejaVuSans-30" x="127.246094"/>
      </g>
     </g>
    </g>
   </g>
   <g id="line2d_14">
    <path d="M 73.832727 130.554513 
L 76.041262 129.114834 
L 78.249796 125.579114 
L 80.45833 129.427718 
L 82.666865 128.13809 
L 84.875399 130.119214 
L 87.083933 129.617027 
L 89.292468 130.617938 
L 91.501002 130.026447 
L 93.709536 129.975893 
L 95.918071 132.037224 
L 98.126605 130.778303 
L 100.335139 130.623309 
L 102.543673 132.475447 
L 104.752208 130.162062 
L 106.960742 130.798571 
L 109.169276 124.981522 
L 111.377811 125.822697 
L 113.586345 129.425504 
L 115.794879 126.715266 
L 118.003414 125.493528 
L 120.211948 123.044707 
L 122.420482 129.085084 
L 124.629017 130.990101 
L 126.837551 129.861993 
L 129.046085 130.778098 
L 131.25462 129.899426 
L 133.463154 129.553683 
L 135.671688 133.090541 
L 137.880223 131.133289 
L 140.088757 129.787953 
L 142.297291 126.943812 
L 144.505826 129.163807 
L 146.71436 132.390218 
L 148.922894 133.325661 
L 151.131429 132.951032 
L 153.339963 129.05205 
L 155.548497 127.939554 
L 157.757032 128.744275 
L 159.965566 132.250771 
L 162.1741 128.863618 
L 164.382635 129.251181 
L 166.591169 131.815214 
L 168.799703 134.922721 
L 171.008237 136.16644 
L 173.216772 133.817083 
L 175.425306 147.64695 
L 177.63384 133.687922 
L 179.842375 130.26444 
L 182.050909 131.198983 
L 184.259443 138.860783 
L 186.467978 117.149306 
L 188.676512 107.309089 
L 190.885046 127.314673 
L 193.093581 127.475549 
L 195.302115 127.046499 
L 197.510649 127.399543 
L 199.719184 132.429444 
L 201.927718 131.448439 
L 204.136252 127.064927 
L 206.344787 131.776948 
L 208.553321 129.652806 
L 210.761855 137.973346 
L 212.97039 139.615718 
L 215.178924 136.492712 
L 217.387458 126.434272 
L 219.595993 132.15861 
L 221.804527 129.791806 
L 224.013061 130.684406 
L 226.221596 134.048563 
L 228.43013 153.594881 
L 230.638664 137.322213 
L 232.847199 131.235857 
L 235.055733 133.388827 
L 237.264267 129.340255 
L 239.472801 143.262843 
L 241.681336 127.412723 
L 243.88987 142.120716 
L 246.098404 132.508288 
L 248.306939 131.68907 
L 250.515473 130.442645 
L 252.724007 127.453784 
L 254.932542 131.3673 
L 257.141076 131.162162 
L 259.34961 131.61289 
L 261.558145 151.779757 
L 263.766679 144.719219 
L 265.975213 130.816504 
L 268.183748 159.102819 
L 270.392282 135.237173 
L 272.600816 127.842864 
L 274.809351 126.836167 
L 277.017885 135.704762 
L 279.226419 161.382364 
L 281.434954 159.730774 
L 283.643488 126.269529 
L 285.852022 130.24479 
L 288.060557 133.920848 
L 290.269091 123.374205 
L 292.477625 123.570561 
L 294.68616 125.447283 
L 296.894694 122.922746 
L 299.103228 127.510168 
L 301.311763 133.880154 
L 303.520297 124.37536 
L 305.728831 121.265939 
L 307.937365 117.76747 
L 310.1459 126.022031 
L 312.354434 120.841094 
L 314.562968 120.538332 
L 318.980037 126.850106 
L 321.188571 127.209921 
L 323.397106 128.44636 
L 325.60564 119.139488 
L 327.814174 121.87531 
L 330.022709 124.125425 
L 332.231243 125.1325 
L 334.439777 130.290491 
L 336.648312 132.856937 
L 338.856846 129.895757 
L 341.06538 124.232824 
L 343.273915 123.876118 
L 345.482449 129.976903 
L 347.690983 123.253275 
L 349.899518 129.398695 
L 352.108052 125.382174 
L 354.316586 127.002504 
L 356.525121 130.589819 
L 358.733655 130.801061 
L 360.942189 122.082324 
L 363.150724 127.222122 
L 365.359258 129.817077 
L 367.567792 125.852585 
L 369.776327 131.865636 
L 371.984861 133.320646 
L 374.193395 138.529117 
L 376.401929 129.214142 
L 378.610464 124.959767 
L 380.818998 130.143044 
L 383.027532 126.936754 
L 385.236067 124.758767 
L 387.444601 128.556389 
L 389.653135 125.848935 
L 391.86167 135.461444 
L 394.070204 135.116341 
L 396.278738 138.015656 
L 398.487273 141.613371 
L 398.487273 141.613371 
" clip-path="url(#p3d0b20e4d6)" style="fill: none; stroke: #008000; stroke-opacity: 0.8; stroke-width: 0.5; stroke-linecap: square"/>
   </g>
   <g id="line2d_15">
    <path d="M 73.832727 124.71423 
L 76.041262 123.209113 
L 78.249796 118.130317 
L 80.45833 124.038565 
L 82.666865 124.369481 
L 84.875399 126.787473 
L 87.083933 126.019519 
L 89.292468 126.857457 
L 91.501002 127.257755 
L 93.709536 125.170801 
L 95.918071 129.00887 
L 98.126605 127.829531 
L 100.335139 127.579995 
L 102.543673 129.365929 
L 104.752208 128.005501 
L 106.960742 128.643114 
L 109.169276 115.579098 
L 111.377811 118.13926 
L 113.586345 122.977131 
L 115.794879 119.633529 
L 118.003414 118.852069 
L 120.211948 115.936185 
L 122.420482 119.334904 
L 124.629017 126.700491 
L 126.837551 123.371689 
L 129.046085 124.59582 
L 131.25462 126.363893 
L 133.463154 123.577305 
L 135.671688 129.393891 
L 137.880223 129.819848 
L 140.088757 125.455355 
L 142.297291 123.262773 
L 144.505826 124.657944 
L 146.71436 127.877838 
L 148.922894 127.29914 
L 151.131429 127.557174 
L 153.339963 116.962604 
L 155.548497 121.8458 
L 157.757032 117.697382 
L 159.965566 130.42268 
L 162.1741 125.06992 
L 164.382635 123.013772 
L 166.591169 129.292671 
L 168.799703 131.35307 
L 171.008237 129.395675 
L 173.216772 126.906282 
L 175.425306 132.360192 
L 177.63384 128.557388 
L 179.842375 122.762983 
L 182.050909 122.466765 
L 184.259443 110.537523 
L 186.467978 91.822466 
L 188.676512 81.296713 
L 190.885046 113.0128 
L 193.093581 105.966955 
L 195.302115 117.299617 
L 197.510649 112.002456 
L 199.719184 126.647748 
L 201.927718 108.331313 
L 204.136252 120.084277 
L 206.344787 127.096626 
L 208.553321 125.534999 
L 210.761855 130.111322 
L 212.97039 130.559553 
L 215.178924 112.27108 
L 217.387458 121.865428 
L 219.595993 123.016404 
L 221.804527 121.720313 
L 224.013061 110.680512 
L 226.221596 125.565782 
L 228.43013 129.226828 
L 230.638664 126.785249 
L 232.847199 126.239292 
L 235.055733 126.105168 
L 237.264267 119.470026 
L 239.472801 126.025533 
L 241.681336 120.474137 
L 243.88987 127.175463 
L 246.098404 124.954875 
L 248.306939 126.354155 
L 250.515473 126.391855 
L 252.724007 116.810231 
L 254.932542 123.913285 
L 257.141076 128.069156 
L 259.34961 123.344014 
L 261.558145 126.578723 
L 263.766679 119.73471 
L 265.975213 127.877691 
L 268.183748 123.784622 
L 270.392282 124.417291 
L 272.600816 118.515657 
L 274.809351 120.586516 
L 277.017885 126.891973 
L 279.226419 128.527667 
L 281.434954 125.57479 
L 283.643488 118.715625 
L 285.852022 120.680683 
L 288.060557 128.44697 
L 290.269091 117.514532 
L 292.477625 111.423784 
L 294.68616 117.056574 
L 296.894694 113.086024 
L 299.103228 112.389274 
L 301.311763 119.203658 
L 303.520297 117.853601 
L 305.728831 109.029955 
L 307.937365 105.834182 
L 310.1459 114.364573 
L 312.354434 97.00796 
L 314.562968 102.002474 
L 316.771503 114.279452 
L 318.980037 112.198699 
L 321.188571 105.906143 
L 323.397106 112.166236 
L 325.60564 111.635495 
L 327.814174 114.099829 
L 330.022709 112.753851 
L 332.231243 111.684955 
L 334.439777 117.898559 
L 336.648312 123.702338 
L 338.856846 120.28885 
L 341.06538 116.403573 
L 343.273915 118.034126 
L 345.482449 118.218713 
L 347.690983 102.946617 
L 349.899518 122.855743 
L 352.108052 116.154905 
L 354.316586 117.503593 
L 356.525121 123.438295 
L 358.733655 125.069571 
L 360.942189 103.278849 
L 363.150724 107.228269 
L 365.359258 123.796512 
L 367.567792 104.539604 
L 369.776327 124.295651 
L 371.984861 126.862265 
L 376.401929 123.165614 
L 378.610464 118.245899 
L 380.818998 124.044875 
L 383.027532 117.757082 
L 385.236067 117.692552 
L 387.444601 121.342326 
L 389.653135 114.391308 
L 391.86167 124.639111 
L 394.070204 129.846406 
L 396.278738 127.18871 
L 398.487273 130.229154 
L 398.487273 130.229154 
" clip-path="url(#p3d0b20e4d6)" style="fill: none; stroke: #32cd32; stroke-opacity: 0.8; stroke-width: 0.5; stroke-linecap: square"/>
   </g>
   <g id="line2d_16">
    <path d="M 73.832727 135.602207 
L 76.041262 133.968456 
L 78.249796 131.438032 
L 80.45833 134.825684 
L 82.666865 132.419127 
L 84.875399 132.78649 
L 87.083933 132.062898 
L 89.292468 134.368467 
L 91.501002 134.910617 
L 93.709536 134.368746 
L 95.918071 134.58368 
L 98.126605 134.308054 
L 100.335139 133.518953 
L 102.543673 139.223314 
L 104.752208 131.682768 
L 106.960742 133.195114 
L 109.169276 130.699547 
L 111.377811 131.519235 
L 113.586345 135.676181 
L 115.794879 134.86532 
L 118.003414 138.461135 
L 120.211948 135.495669 
L 122.420482 134.807628 
L 124.629017 136.350556 
L 126.837551 134.024734 
L 129.046085 136.136199 
L 131.25462 132.859495 
L 133.463154 133.556377 
L 135.671688 137.773533 
L 137.880223 133.568504 
L 140.088757 134.059059 
L 142.297291 130.31307 
L 144.505826 136.389039 
L 146.71436 136.363973 
L 148.922894 139.889958 
L 151.131429 139.11968 
L 153.339963 140.183648 
L 155.548497 134.622857 
L 157.757032 134.133731 
L 159.965566 134.387672 
L 162.1741 130.444182 
L 164.382635 133.457019 
L 166.591169 134.147178 
L 168.799703 141.546191 
L 171.008237 149.752185 
L 175.425306 160.351847 
L 177.63384 160.26423 
L 179.842375 133.462333 
L 182.050909 136.955102 
L 184.259443 174.096634 
L 186.467978 130.564925 
L 188.676512 129.511412 
L 190.885046 147.09416 
L 193.093581 137.353447 
L 195.302115 138.985509 
L 197.510649 137.53819 
L 199.719184 137.495003 
L 201.927718 151.679287 
L 204.136252 132.876576 
L 206.344787 138.747755 
L 208.553321 136.775839 
L 210.761855 144.592055 
L 212.97039 160.908227 
L 215.178924 170.25726 
L 217.387458 135.274289 
L 219.595993 143.411503 
L 221.804527 140.564922 
L 224.013061 147.200067 
L 226.221596 144.412794 
L 228.43013 206.357981 
L 230.638664 202.453729 
L 232.847199 136.028159 
L 235.055733 150.347087 
L 237.264267 135.921446 
L 239.472801 205.122339 
L 241.681336 134.100485 
L 243.88987 214.761843 
L 246.098404 139.292615 
L 248.306939 135.189855 
L 250.515473 133.691479 
L 252.724007 134.305391 
L 254.932542 134.077093 
L 257.141076 133.662482 
L 259.34961 134.733279 
L 261.558145 258.54753 
L 263.766679 271.610264 
L 265.975213 133.060618 
L 268.183748 288.560398 
L 270.392282 183.764291 
L 272.600816 135.025989 
L 274.809351 132.889162 
L 277.017885 139.898213 
L 279.226419 272.026388 
L 281.434954 295.488 
L 283.643488 131.307952 
L 285.852022 141.409318 
L 288.060557 143.947346 
L 290.269091 129.704669 
L 292.477625 140.71154 
L 294.68616 136.669677 
L 296.894694 135.703523 
L 299.103228 145.168943 
L 301.311763 145.377897 
L 303.520297 129.893663 
L 305.728831 135.113426 
L 307.937365 137.832663 
L 310.1459 140.802157 
L 312.354434 136.924825 
L 314.562968 139.85715 
L 316.771503 132.823141 
L 318.980037 140.062959 
L 321.188571 138.737831 
L 323.397106 142.013769 
L 325.60564 128.571364 
L 327.814174 136.952453 
L 330.022709 144.500726 
L 332.231243 138.339676 
L 334.439777 138.332257 
L 336.648312 144.392075 
L 338.856846 139.909017 
L 343.273915 129.946221 
L 345.482449 137.393623 
L 347.690983 137.874606 
L 349.899518 139.552217 
L 352.108052 129.591028 
L 354.316586 136.345103 
L 356.525121 137.786598 
L 358.733655 138.204802 
L 363.150724 136.84044 
L 365.359258 135.61668 
L 367.567792 140.353313 
L 369.776327 147.403183 
L 371.984861 139.491351 
L 374.193395 160.667132 
L 376.401929 141.221904 
L 378.610464 130.261531 
L 380.818998 135.298021 
L 383.027532 133.47615 
L 385.236067 131.053106 
L 387.444601 133.109074 
L 389.653135 140.409827 
L 391.86167 143.210495 
L 394.070204 142.877528 
L 396.278738 155.403712 
L 398.487273 158.923902 
L 398.487273 158.923902 
" clip-path="url(#p3d0b20e4d6)" style="fill: none; stroke: #32cd32; stroke-opacity: 0.8; stroke-width: 0.5; stroke-linecap: square"/>
   </g>
   <g id="line2d_17">
    <path d="M 73.832727 129.99197 
L 76.041262 135.143267 
L 78.249796 127.86711 
L 80.45833 127.252929 
L 82.666865 134.17834 
L 84.875399 130.938491 
L 87.083933 133.892558 
L 89.292468 134.299765 
L 91.501002 134.095428 
L 93.709536 128.738033 
L 95.918071 135.071809 
L 98.126605 134.953309 
L 100.335139 134.52635 
L 102.543673 135.056857 
L 104.752208 132.214134 
L 106.960742 134.078547 
L 109.169276 124.875024 
L 111.377811 118.589769 
L 113.586345 132.546504 
L 115.794879 128.727217 
L 118.003414 129.232244 
L 120.211948 115.115995 
L 122.420482 133.584906 
L 124.629017 141.635845 
L 126.837551 143.70192 
L 129.046085 143.213441 
L 131.25462 140.661812 
L 133.463154 141.903757 
L 135.671688 139.046609 
L 137.880223 135.019994 
L 140.088757 136.966724 
L 142.297291 132.954421 
L 144.505826 132.033444 
L 146.71436 142.090283 
L 148.922894 137.943424 
L 151.131429 136.970165 
L 153.339963 133.154709 
L 155.548497 125.607745 
L 157.757032 130.72626 
L 159.965566 136.93345 
L 162.1741 133.548003 
L 164.382635 128.42924 
L 166.591169 136.803605 
L 168.799703 139.650946 
L 171.008237 139.235122 
L 173.216772 136.158195 
L 175.425306 137.882369 
L 177.63384 135.599966 
L 179.842375 137.005675 
L 182.050909 134.386924 
L 184.259443 132.873134 
L 188.676512 70.221949 
L 190.885046 130.293631 
L 193.093581 155.642034 
L 195.302115 141.766809 
L 197.510649 147.500461 
L 199.719184 152.33013 
L 201.927718 140.29859 
L 204.136252 129.245517 
L 206.344787 142.101077 
L 208.553321 141.640397 
L 210.761855 144.25449 
L 212.97039 142.003499 
L 215.178924 133.708528 
L 217.387458 132.415998 
L 219.595993 152.831733 
L 221.804527 138.793224 
L 224.013061 130.617928 
L 226.221596 146.659586 
L 228.43013 147.709447 
L 230.638664 142.821149 
L 232.847199 143.924796 
L 235.055733 147.226858 
L 237.264267 131.485576 
L 239.472801 138.635496 
L 241.681336 129.584325 
L 243.88987 143.220785 
L 246.098404 142.046155 
L 248.306939 148.37102 
L 250.515473 140.612289 
L 252.724007 137.273403 
L 254.932542 137.237886 
L 259.34961 135.372417 
L 261.558145 141.125394 
L 263.766679 135.823939 
L 265.975213 137.8534 
L 268.183748 136.477687 
L 270.392282 138.336366 
L 272.600816 126.805116 
L 274.809351 150.990183 
L 277.017885 147.74597 
L 279.226419 147.760642 
L 281.434954 142.420126 
L 283.643488 131.753083 
L 285.852022 136.725475 
L 288.060557 142.859182 
L 290.269091 126.629606 
L 292.477625 124.805509 
L 294.68616 151.937503 
L 296.894694 123.022021 
L 299.103228 142.733128 
L 301.311763 154.562619 
L 305.728831 119.356725 
L 307.937365 111.442519 
L 310.1459 128.721428 
L 312.354434 141.378686 
L 314.562968 120.505201 
L 316.771503 124.840023 
L 318.980037 142.449948 
L 321.188571 148.13225 
L 323.397106 142.205923 
L 325.60564 121.548472 
L 327.814174 121.795429 
L 330.022709 125.09275 
L 332.231243 138.950355 
L 334.439777 144.611228 
L 336.648312 144.483477 
L 338.856846 146.593523 
L 341.06538 129.858139 
L 343.273915 123.743746 
L 345.482449 140.498134 
L 347.690983 142.290687 
L 349.899518 143.844735 
L 352.108052 125.339852 
L 354.316586 123.632348 
L 356.525121 133.820566 
L 358.733655 143.059271 
L 360.942189 134.789364 
L 363.150724 135.181924 
L 365.359258 136.030506 
L 369.776327 143.196931 
L 371.984861 141.005418 
L 374.193395 144.205055 
L 376.401929 132.53141 
L 378.610464 132.375276 
L 380.818998 135.490102 
L 385.236067 123.645986 
L 387.444601 134.69587 
L 389.653135 121.458312 
L 391.86167 158.036489 
L 394.070204 153.356505 
L 396.278738 150.246133 
L 398.487273 155.090449 
L 398.487273 155.090449 
" clip-path="url(#p3d0b20e4d6)" style="fill: none; stroke: #ff0000; stroke-opacity: 0.8; stroke-width: 0.5; stroke-linecap: square"/>
   </g>
   <g id="line2d_18">
    <path d="M 73.832727 125.371653 
L 76.041262 129.907678 
L 78.249796 119.102485 
L 80.45833 118.560442 
L 82.666865 128.884584 
L 84.875399 127.487768 
L 87.083933 131.909991 
L 89.292468 128.649371 
L 91.501002 129.586466 
L 93.709536 125.591717 
L 95.918071 133.503423 
L 100.335139 131.174603 
L 102.543673 131.911436 
L 104.752208 130.054816 
L 106.960742 131.795975 
L 109.169276 113.48188 
L 111.377811 112.42285 
L 113.586345 121.49624 
L 115.794879 123.821618 
L 118.003414 122.583534 
L 120.211948 101.041952 
L 122.420482 120.551745 
L 124.629017 139.06626 
L 126.837551 138.56722 
L 129.046085 140.411021 
L 131.25462 132.992793 
L 133.463154 134.677463 
L 135.671688 134.550878 
L 137.880223 133.014372 
L 140.088757 133.208136 
L 142.297291 126.227872 
L 144.505826 126.283665 
L 146.71436 137.091837 
L 148.922894 134.348934 
L 151.131429 133.5831 
L 153.339963 120.673038 
L 155.548497 120.390908 
L 157.757032 124.101467 
L 159.965566 134.418183 
L 162.1741 128.394984 
L 164.382635 122.994409 
L 166.591169 135.155223 
L 168.799703 136.816723 
L 171.008237 133.235585 
L 173.216772 132.981583 
L 175.425306 134.771396 
L 177.63384 133.075209 
L 179.842375 129.967724 
L 182.050909 127.299254 
L 184.259443 111.026299 
L 186.467978 80.98217 
L 188.676512 53.568 
L 190.885046 75.890055 
L 193.093581 147.47642 
L 195.302115 134.337598 
L 197.510649 135.923567 
L 199.719184 146.200006 
L 201.927718 124.537865 
L 204.136252 118.901972 
L 206.344787 137.820983 
L 208.553321 135.402344 
L 210.761855 138.733063 
L 212.97039 136.965005 
L 215.178924 118.861414 
L 217.387458 122.668568 
L 219.595993 140.470282 
L 221.804527 131.557998 
L 224.013061 115.023536 
L 226.221596 138.940731 
L 228.43013 141.847834 
L 230.638664 138.111516 
L 232.847199 137.102049 
L 235.055733 141.913669 
L 237.264267 119.468326 
L 239.472801 130.755692 
L 241.681336 118.089017 
L 243.88987 131.829043 
L 246.098404 134.856822 
L 248.306939 143.885412 
L 250.515473 135.256016 
L 252.724007 125.152665 
L 254.932542 134.192378 
L 257.141076 134.293371 
L 259.34961 126.918206 
L 261.558145 136.179152 
L 263.766679 126.480671 
L 265.975213 133.529642 
L 270.392282 128.118922 
L 272.600816 117.179841 
L 274.809351 127.449175 
L 277.017885 140.568737 
L 279.226419 143.024571 
L 281.434954 138.884568 
L 283.643488 118.907203 
L 285.852022 126.900942 
L 288.060557 136.199508 
L 290.269091 114.051015 
L 292.477625 97.276351 
L 294.68616 122.295468 
L 296.894694 107.271456 
L 299.103228 104.859703 
L 301.311763 141.392092 
L 303.520297 125.788114 
L 305.728831 104.904131 
L 307.937365 97.39478 
L 310.1459 108.390222 
L 312.354434 103.142672 
L 314.562968 95.101891 
L 316.771503 105.781188 
L 318.980037 128.046465 
L 321.188571 138.011275 
L 323.397106 127.719653 
L 325.60564 112.892954 
L 327.814174 105.686703 
L 330.022709 101.948847 
L 332.231243 126.424738 
L 334.439777 129.969844 
L 336.648312 130.497544 
L 338.856846 131.904246 
L 341.06538 119.62329 
L 343.273915 112.957888 
L 345.482449 132.239156 
L 347.690983 136.487522 
L 349.899518 136.276291 
L 352.108052 121.747942 
L 354.316586 116.070592 
L 356.525121 127.217119 
L 358.733655 136.878368 
L 360.942189 125.586521 
L 363.150724 127.55074 
L 365.359258 128.628205 
L 367.567792 133.837149 
L 369.776327 132.854513 
L 371.984861 136.16828 
L 374.193395 137.49716 
L 376.401929 127.529159 
L 378.610464 127.761886 
L 380.818998 126.014918 
L 383.027532 117.682431 
L 385.236067 113.977219 
L 387.444601 127.428765 
L 389.653135 110.049675 
L 391.86167 138.933361 
L 394.070204 144.426094 
L 396.278738 142.423611 
L 398.487273 144.803842 
L 398.487273 144.803842 
" clip-path="url(#p3d0b20e4d6)" style="fill: none; stroke: #f08080; stroke-opacity: 0.8; stroke-width: 0.5; stroke-linecap: square"/>
   </g>
   <g id="line2d_19">
    <path d="M 73.832727 135.729043 
L 76.041262 140.945748 
L 78.249796 135.669797 
L 80.45833 136.031115 
L 82.666865 139.807772 
L 84.875399 135.719832 
L 87.083933 136.520138 
L 89.292468 138.685289 
L 91.501002 138.403558 
L 93.709536 134.416521 
L 98.126605 137.787491 
L 100.335139 137.329773 
L 102.543673 137.641551 
L 104.752208 136.830926 
L 106.960742 135.780969 
L 109.169276 133.59033 
L 111.377811 127.215221 
L 113.586345 142.543191 
L 115.794879 134.801257 
L 118.003414 139.113632 
L 120.211948 123.625878 
L 122.420482 144.908801 
L 124.629017 145.73099 
L 126.837551 147.895818 
L 129.046085 146.491707 
L 131.25462 147.739991 
L 135.671688 145.220529 
L 137.880223 137.598159 
L 140.088757 140.134433 
L 142.297291 137.177199 
L 144.505826 140.483743 
L 146.71436 150.202549 
L 148.922894 141.618235 
L 151.131429 139.252033 
L 153.339963 137.940808 
L 155.548497 130.639334 
L 157.757032 134.730652 
L 159.965566 138.305162 
L 162.1741 137.951197 
L 164.382635 134.781282 
L 166.591169 138.293027 
L 168.799703 142.702215 
L 171.008237 142.739212 
L 173.216772 141.40568 
L 175.425306 140.687604 
L 177.63384 138.117386 
L 179.842375 141.376948 
L 182.050909 139.691671 
L 184.259443 140.057117 
L 186.467978 115.689794 
L 188.676512 98.795511 
L 190.885046 157.354364 
L 193.093581 164.2267 
L 195.302115 149.508146 
L 197.510649 155.349552 
L 199.719184 156.629867 
L 201.927718 157.251123 
L 204.136252 137.84131 
L 206.344787 145.355117 
L 208.553321 145.349097 
L 210.761855 149.471226 
L 212.97039 145.710774 
L 215.178924 147.479671 
L 217.387458 148.220794 
L 219.595993 163.697704 
L 221.804527 158.072061 
L 224.013061 149.299236 
L 226.221596 151.92703 
L 228.43013 155.121629 
L 230.638664 147.446135 
L 232.847199 149.991343 
L 235.055733 150.079669 
L 237.264267 139.106295 
L 239.472801 142.365082 
L 241.681336 139.129499 
L 243.88987 154.564835 
L 246.098404 148.488683 
L 248.306939 153.756474 
L 250.515473 147.030212 
L 252.724007 147.050508 
L 254.932542 141.129871 
L 257.141076 138.769771 
L 259.34961 140.780185 
L 261.558145 143.686465 
L 263.766679 140.942521 
L 265.975213 140.070394 
L 268.183748 141.164834 
L 270.392282 141.658322 
L 272.600816 139.364928 
L 274.809351 161.880629 
L 277.017885 162.125951 
L 279.226419 150.431752 
L 281.434954 148.497039 
L 283.643488 144.096667 
L 285.852022 144.006716 
L 288.060557 146.276299 
L 290.269091 132.966151 
L 292.477625 165.522287 
L 294.68616 172.206223 
L 296.894694 132.573749 
L 299.103228 196.271436 
L 301.311763 204.817173 
L 303.520297 146.190409 
L 307.937365 131.57787 
L 310.1459 153.772772 
L 312.354434 166.502269 
L 314.562968 150.003119 
L 316.771503 136.529601 
L 318.980037 152.67243 
L 321.188571 158.544887 
L 323.397106 151.143929 
L 325.60564 138.422378 
L 327.814174 141.232838 
L 330.022709 157.338965 
L 332.231243 162.82075 
L 334.439777 174.295768 
L 336.648312 154.360521 
L 338.856846 152.099869 
L 341.06538 137.331515 
L 343.273915 133.391549 
L 345.482449 148.754918 
L 347.690983 147.16911 
L 349.899518 153.145815 
L 352.108052 133.957491 
L 354.316586 130.90546 
L 356.525121 143.410645 
L 358.733655 149.639182 
L 360.942189 139.546111 
L 363.150724 138.370164 
L 365.359258 143.082 
L 367.567792 144.950492 
L 369.776327 152.451812 
L 371.984861 144.970237 
L 374.193395 152.309111 
L 376.401929 138.513453 
L 378.610464 139.001533 
L 380.818998 142.044197 
L 383.027532 137.364414 
L 385.236067 134.740002 
L 387.444601 139.186446 
L 389.653135 134.658947 
L 391.86167 171.578115 
L 394.070204 171.382626 
L 396.278738 156.450706 
L 398.487273 163.508182 
L 398.487273 163.508182 
" clip-path="url(#p3d0b20e4d6)" style="fill: none; stroke: #f08080; stroke-opacity: 0.8; stroke-width: 0.5; stroke-linecap: square"/>
   </g>
   <g id="patch_3">
    <path d="M 57.6 307.584 
L 57.6 41.472 
" style="fill: none; stroke: #000000; stroke-width: 0.8; stroke-linejoin: miter; stroke-linecap: square"/>
   </g>
   <g id="patch_4">
    <path d="M 414.72 307.584 
L 414.72 41.472 
" style="fill: none; stroke: #000000; stroke-width: 0.8; stroke-linejoin: miter; stroke-linecap: square"/>
   </g>
   <g id="patch_5">
    <path d="M 57.6 307.584 
L 414.72 307.584 
" style="fill: none; stroke: #000000; stroke-width: 0.8; stroke-linejoin: miter; stroke-linecap: square"/>
   </g>
   <g id="patch_6">
    <path d="M 57.6 41.472 
L 414.72 41.472 
" style="fill: none; stroke: #000000; stroke-width: 0.8; stroke-linejoin: miter; stroke-linecap: square"/>
   </g>
   <g id="text_14">
    <!-- naive_snp500 -->
    <g transform="translate(194.580938 35.472) scale(0.12 -0.12)">
     <defs>
      <path id="DejaVuSans-6e" d="M 3513 2113 
L 3513 0 
L 2938 0 
L 2938 2094 
Q 2938 2591 2744 2837 
Q 2550 3084 2163 3084 
Q 1697 3084 1428 2787 
Q 1159 2491 1159 1978 
L 1159 0 
L 581 0 
L 581 3500 
L 1159 3500 
L 1159 2956 
Q 1366 3272 1645 3428 
Q 1925 3584 2291 3584 
Q 2894 3584 3203 3211 
Q 3513 2838 3513 2113 
z
" transform="scale(0.015625)"/>
      <path id="DejaVuSans-61" d="M 2194 1759 
Q 1497 1759 1228 1600 
Q 959 1441 959 1056 
Q 959 750 1161 570 
Q 1363 391 1709 391 
Q 2188 391 2477 730 
Q 2766 1069 2766 1631 
L 2766 1759 
L 2194 1759 
z
M 3341 1997 
L 3341 0 
L 2766 0 
L 2766 531 
Q 2569 213 2275 61 
Q 1981 -91 1556 -91 
Q 1019 -91 701 211 
Q 384 513 384 1019 
Q 384 1609 779 1909 
Q 1175 2209 1959 2209 
L 2766 2209 
L 2766 2266 
Q 2766 2663 2505 2880 
Q 2244 3097 1772 3097 
Q 1472 3097 1187 3025 
Q 903 2953 641 2809 
L 641 3341 
Q 956 3463 1253 3523 
Q 1550 3584 1831 3584 
Q 2591 3584 2966 3190 
Q 3341 2797 3341 1997 
z
" transform="scale(0.015625)"/>
      <path id="DejaVuSans-69" d="M 603 3500 
L 1178 3500 
L 1178 0 
L 603 0 
L 603 3500 
z
M 603 4863 
L 1178 4863 
L 1178 4134 
L 603 4134 
L 603 4863 
z
" transform="scale(0.015625)"/>
      <path id="DejaVuSans-76" d="M 191 3500 
L 800 3500 
L 1894 563 
L 2988 3500 
L 3597 3500 
L 2284 0 
L 1503 0 
L 191 3500 
z
" transform="scale(0.015625)"/>
      <path id="DejaVuSans-65" d="M 3597 1894 
L 3597 1613 
L 953 1613 
Q 991 1019 1311 708 
Q 1631 397 2203 397 
Q 2534 397 2845 478 
Q 3156 559 3463 722 
L 3463 178 
Q 3153 47 2828 -22 
Q 2503 -91 2169 -91 
Q 1331 -91 842 396 
Q 353 884 353 1716 
Q 353 2575 817 3079 
Q 1281 3584 2069 3584 
Q 2775 3584 3186 3129 
Q 3597 2675 3597 1894 
z
M 3022 2063 
Q 3016 2534 2758 2815 
Q 2500 3097 2075 3097 
Q 1594 3097 1305 2825 
Q 1016 2553 972 2059 
L 3022 2063 
z
" transform="scale(0.015625)"/>
      <path id="DejaVuSans-5f" d="M 3263 -1063 
L 3263 -1509 
L -63 -1509 
L -63 -1063 
L 3263 -1063 
z
" transform="scale(0.015625)"/>
      <path id="DejaVuSans-73" d="M 2834 3397 
L 2834 2853 
Q 2591 2978 2328 3040 
Q 2066 3103 1784 3103 
Q 1356 3103 1142 2972 
Q 928 2841 928 2578 
Q 928 2378 1081 2264 
Q 1234 2150 1697 2047 
L 1894 2003 
Q 2506 1872 2764 1633 
Q 3022 1394 3022 966 
Q 3022 478 2636 193 
Q 2250 -91 1575 -91 
Q 1294 -91 989 -36 
Q 684 19 347 128 
L 347 722 
Q 666 556 975 473 
Q 1284 391 1588 391 
Q 1994 391 2212 530 
Q 2431 669 2431 922 
Q 2431 1156 2273 1281 
Q 2116 1406 1581 1522 
L 1381 1569 
Q 847 1681 609 1914 
Q 372 2147 372 2553 
Q 372 3047 722 3315 
Q 1072 3584 1716 3584 
Q 2034 3584 2315 3537 
Q 2597 3491 2834 3397 
z
" transform="scale(0.015625)"/>
      <path id="DejaVuSans-70" d="M 1159 525 
L 1159 -1331 
L 581 -1331 
L 581 3500 
L 1159 3500 
L 1159 2969 
Q 1341 3281 1617 3432 
Q 1894 3584 2278 3584 
Q 2916 3584 3314 3078 
Q 3713 2572 3713 1747 
Q 3713 922 3314 415 
Q 2916 -91 2278 -91 
Q 1894 -91 1617 61 
Q 1341 213 1159 525 
z
M 3116 1747 
Q 3116 2381 2855 2742 
Q 2594 3103 2138 3103 
Q 1681 3103 1420 2742 
Q 1159 2381 1159 1747 
Q 1159 1113 1420 752 
Q 1681 391 2138 391 
Q 2594 391 2855 752 
Q 3116 1113 3116 1747 
z
" transform="scale(0.015625)"/>
     </defs>
     <use xlink:href="#DejaVuSans-6e"/>
     <use xlink:href="#DejaVuSans-61" x="63.378906"/>
     <use xlink:href="#DejaVuSans-69" x="124.658203"/>
     <use xlink:href="#DejaVuSans-76" x="152.441406"/>
     <use xlink:href="#DejaVuSans-65" x="211.621094"/>
     <use xlink:href="#DejaVuSans-5f" x="273.144531"/>
     <use xlink:href="#DejaVuSans-73" x="323.144531"/>
     <use xlink:href="#DejaVuSans-6e" x="375.244141"/>
     <use xlink:href="#DejaVuSans-70" x="438.623047"/>
     <use xlink:href="#DejaVuSans-35" x="502.099609"/>
     <use xlink:href="#DejaVuSans-30" x="565.722656"/>
     <use xlink:href="#DejaVuSans-30" x="629.345703"/>
    </g>
   </g>
   <g id="legend_1">
    <g id="patch_7">
     <path d="M 64.6 302.584 
L 225.001563 302.584 
Q 227.001563 302.584 227.001563 300.584 
L 227.001563 213.51525 
Q 227.001563 211.51525 225.001563 211.51525 
L 64.6 211.51525 
Q 62.6 211.51525 62.6 213.51525 
L 62.6 300.584 
Q 62.6 302.584 64.6 302.584 
z
" style="fill: #ffffff; opacity: 0.8; stroke: #cccccc; stroke-linejoin: miter"/>
    </g>
    <g id="line2d_20">
     <path d="M 66.6 219.613687 
L 76.6 219.613687 
L 86.6 219.613687 
" style="fill: none; stroke: #008000; stroke-opacity: 0.8; stroke-width: 0.5; stroke-linecap: square"/>
    </g>
    <g id="text_15">
     <!-- Positive predictions -->
     <g transform="translate(94.6 223.113687) scale(0.1 -0.1)">
      <defs>
       <path id="DejaVuSans-50" d="M 1259 4147 
L 1259 2394 
L 2053 2394 
Q 2494 2394 2734 2622 
Q 2975 2850 2975 3272 
Q 2975 3691 2734 3919 
Q 2494 4147 2053 4147 
L 1259 4147 
z
M 628 4666 
L 2053 4666 
Q 2838 4666 3239 4311 
Q 3641 3956 3641 3272 
Q 3641 2581 3239 2228 
Q 2838 1875 2053 1875 
L 1259 1875 
L 1259 0 
L 628 0 
L 628 4666 
z
" transform="scale(0.015625)"/>
       <path id="DejaVuSans-6f" d="M 1959 3097 
Q 1497 3097 1228 2736 
Q 959 2375 959 1747 
Q 959 1119 1226 758 
Q 1494 397 1959 397 
Q 2419 397 2687 759 
Q 2956 1122 2956 1747 
Q 2956 2369 2687 2733 
Q 2419 3097 1959 3097 
z
M 1959 3584 
Q 2709 3584 3137 3096 
Q 3566 2609 3566 1747 
Q 3566 888 3137 398 
Q 2709 -91 1959 -91 
Q 1206 -91 779 398 
Q 353 888 353 1747 
Q 353 2609 779 3096 
Q 1206 3584 1959 3584 
z
" transform="scale(0.015625)"/>
       <path id="DejaVuSans-74" d="M 1172 4494 
L 1172 3500 
L 2356 3500 
L 2356 3053 
L 1172 3053 
L 1172 1153 
Q 1172 725 1289 603 
Q 1406 481 1766 481 
L 2356 481 
L 2356 0 
L 1766 0 
Q 1100 0 847 248 
Q 594 497 594 1153 
L 594 3053 
L 172 3053 
L 172 3500 
L 594 3500 
L 594 4494 
L 1172 4494 
z
" transform="scale(0.015625)"/>
       <path id="DejaVuSans-20" transform="scale(0.015625)"/>
       <path id="DejaVuSans-72" d="M 2631 2963 
Q 2534 3019 2420 3045 
Q 2306 3072 2169 3072 
Q 1681 3072 1420 2755 
Q 1159 2438 1159 1844 
L 1159 0 
L 581 0 
L 581 3500 
L 1159 3500 
L 1159 2956 
Q 1341 3275 1631 3429 
Q 1922 3584 2338 3584 
Q 2397 3584 2469 3576 
Q 2541 3569 2628 3553 
L 2631 2963 
z
" transform="scale(0.015625)"/>
       <path id="DejaVuSans-64" d="M 2906 2969 
L 2906 4863 
L 3481 4863 
L 3481 0 
L 2906 0 
L 2906 525 
Q 2725 213 2448 61 
Q 2172 -91 1784 -91 
Q 1150 -91 751 415 
Q 353 922 353 1747 
Q 353 2572 751 3078 
Q 1150 3584 1784 3584 
Q 2172 3584 2448 3432 
Q 2725 3281 2906 2969 
z
M 947 1747 
Q 947 1113 1208 752 
Q 1469 391 1925 391 
Q 2381 391 2643 752 
Q 2906 1113 2906 1747 
Q 2906 2381 2643 2742 
Q 2381 3103 1925 3103 
Q 1469 3103 1208 2742 
Q 947 2381 947 1747 
z
" transform="scale(0.015625)"/>
       <path id="DejaVuSans-63" d="M 3122 3366 
L 3122 2828 
Q 2878 2963 2633 3030 
Q 2388 3097 2138 3097 
Q 1578 3097 1268 2742 
Q 959 2388 959 1747 
Q 959 1106 1268 751 
Q 1578 397 2138 397 
Q 2388 397 2633 464 
Q 2878 531 3122 666 
L 3122 134 
Q 2881 22 2623 -34 
Q 2366 -91 2075 -91 
Q 1284 -91 818 406 
Q 353 903 353 1747 
Q 353 2603 823 3093 
Q 1294 3584 2113 3584 
Q 2378 3584 2631 3529 
Q 2884 3475 3122 3366 
z
" transform="scale(0.015625)"/>
      </defs>
      <use xlink:href="#DejaVuSans-50"/>
      <use xlink:href="#DejaVuSans-6f" x="56.677734"/>
      <use xlink:href="#DejaVuSans-73" x="117.859375"/>
      <use xlink:href="#DejaVuSans-69" x="169.958984"/>
      <use xlink:href="#DejaVuSans-74" x="197.742188"/>
      <use xlink:href="#DejaVuSans-69" x="236.951172"/>
      <use xlink:href="#DejaVuSans-76" x="264.734375"/>
      <use xlink:href="#DejaVuSans-65" x="323.914062"/>
      <use xlink:href="#DejaVuSans-20" x="385.4375"/>
      <use xlink:href="#DejaVuSans-70" x="417.224609"/>
      <use xlink:href="#DejaVuSans-72" x="480.701172"/>
      <use xlink:href="#DejaVuSans-65" x="519.564453"/>
      <use xlink:href="#DejaVuSans-64" x="581.087891"/>
      <use xlink:href="#DejaVuSans-69" x="644.564453"/>
      <use xlink:href="#DejaVuSans-63" x="672.347656"/>
      <use xlink:href="#DejaVuSans-74" x="727.328125"/>
      <use xlink:href="#DejaVuSans-69" x="766.537109"/>
      <use xlink:href="#DejaVuSans-6f" x="794.320312"/>
      <use xlink:href="#DejaVuSans-6e" x="855.501953"/>
      <use xlink:href="#DejaVuSans-73" x="918.880859"/>
     </g>
    </g>
    <g id="line2d_21">
     <path d="M 66.6 234.291812 
L 76.6 234.291812 
L 86.6 234.291812 
" style="fill: none; stroke: #32cd32; stroke-opacity: 0.8; stroke-width: 0.5; stroke-linecap: square"/>
    </g>
    <g id="text_16">
     <!-- Positive predictions max -->
     <g transform="translate(94.6 237.791812) scale(0.1 -0.1)">
      <defs>
       <path id="DejaVuSans-6d" d="M 3328 2828 
Q 3544 3216 3844 3400 
Q 4144 3584 4550 3584 
Q 5097 3584 5394 3201 
Q 5691 2819 5691 2113 
L 5691 0 
L 5113 0 
L 5113 2094 
Q 5113 2597 4934 2840 
Q 4756 3084 4391 3084 
Q 3944 3084 3684 2787 
Q 3425 2491 3425 1978 
L 3425 0 
L 2847 0 
L 2847 2094 
Q 2847 2600 2669 2842 
Q 2491 3084 2119 3084 
Q 1678 3084 1418 2786 
Q 1159 2488 1159 1978 
L 1159 0 
L 581 0 
L 581 3500 
L 1159 3500 
L 1159 2956 
Q 1356 3278 1631 3431 
Q 1906 3584 2284 3584 
Q 2666 3584 2933 3390 
Q 3200 3197 3328 2828 
z
" transform="scale(0.015625)"/>
       <path id="DejaVuSans-78" d="M 3513 3500 
L 2247 1797 
L 3578 0 
L 2900 0 
L 1881 1375 
L 863 0 
L 184 0 
L 1544 1831 
L 300 3500 
L 978 3500 
L 1906 2253 
L 2834 3500 
L 3513 3500 
z
" transform="scale(0.015625)"/>
      </defs>
      <use xlink:href="#DejaVuSans-50"/>
      <use xlink:href="#DejaVuSans-6f" x="56.677734"/>
      <use xlink:href="#DejaVuSans-73" x="117.859375"/>
      <use xlink:href="#DejaVuSans-69" x="169.958984"/>
      <use xlink:href="#DejaVuSans-74" x="197.742188"/>
      <use xlink:href="#DejaVuSans-69" x="236.951172"/>
      <use xlink:href="#DejaVuSans-76" x="264.734375"/>
      <use xlink:href="#DejaVuSans-65" x="323.914062"/>
      <use xlink:href="#DejaVuSans-20" x="385.4375"/>
      <use xlink:href="#DejaVuSans-70" x="417.224609"/>
      <use xlink:href="#DejaVuSans-72" x="480.701172"/>
      <use xlink:href="#DejaVuSans-65" x="519.564453"/>
      <use xlink:href="#DejaVuSans-64" x="581.087891"/>
      <use xlink:href="#DejaVuSans-69" x="644.564453"/>
      <use xlink:href="#DejaVuSans-63" x="672.347656"/>
      <use xlink:href="#DejaVuSans-74" x="727.328125"/>
      <use xlink:href="#DejaVuSans-69" x="766.537109"/>
      <use xlink:href="#DejaVuSans-6f" x="794.320312"/>
      <use xlink:href="#DejaVuSans-6e" x="855.501953"/>
      <use xlink:href="#DejaVuSans-73" x="918.880859"/>
      <use xlink:href="#DejaVuSans-20" x="970.980469"/>
      <use xlink:href="#DejaVuSans-6d" x="1002.767578"/>
      <use xlink:href="#DejaVuSans-61" x="1100.179688"/>
      <use xlink:href="#DejaVuSans-78" x="1161.458984"/>
     </g>
    </g>
    <g id="line2d_22">
     <path d="M 66.6 248.969937 
L 76.6 248.969937 
L 86.6 248.969937 
" style="fill: none; stroke: #32cd32; stroke-opacity: 0.8; stroke-width: 0.5; stroke-linecap: square"/>
    </g>
    <g id="text_17">
     <!-- Positive predictions min -->
     <g transform="translate(94.6 252.469937) scale(0.1 -0.1)">
      <use xlink:href="#DejaVuSans-50"/>
      <use xlink:href="#DejaVuSans-6f" x="56.677734"/>
      <use xlink:href="#DejaVuSans-73" x="117.859375"/>
      <use xlink:href="#DejaVuSans-69" x="169.958984"/>
      <use xlink:href="#DejaVuSans-74" x="197.742188"/>
      <use xlink:href="#DejaVuSans-69" x="236.951172"/>
      <use xlink:href="#DejaVuSans-76" x="264.734375"/>
      <use xlink:href="#DejaVuSans-65" x="323.914062"/>
      <use xlink:href="#DejaVuSans-20" x="385.4375"/>
      <use xlink:href="#DejaVuSans-70" x="417.224609"/>
      <use xlink:href="#DejaVuSans-72" x="480.701172"/>
      <use xlink:href="#DejaVuSans-65" x="519.564453"/>
      <use xlink:href="#DejaVuSans-64" x="581.087891"/>
      <use xlink:href="#DejaVuSans-69" x="644.564453"/>
      <use xlink:href="#DejaVuSans-63" x="672.347656"/>
      <use xlink:href="#DejaVuSans-74" x="727.328125"/>
      <use xlink:href="#DejaVuSans-69" x="766.537109"/>
      <use xlink:href="#DejaVuSans-6f" x="794.320312"/>
      <use xlink:href="#DejaVuSans-6e" x="855.501953"/>
      <use xlink:href="#DejaVuSans-73" x="918.880859"/>
      <use xlink:href="#DejaVuSans-20" x="970.980469"/>
      <use xlink:href="#DejaVuSans-6d" x="1002.767578"/>
      <use xlink:href="#DejaVuSans-69" x="1100.179688"/>
      <use xlink:href="#DejaVuSans-6e" x="1127.962891"/>
     </g>
    </g>
    <g id="line2d_23">
     <path d="M 66.6 263.648062 
L 76.6 263.648062 
L 86.6 263.648062 
" style="fill: none; stroke: #ff0000; stroke-opacity: 0.8; stroke-width: 0.5; stroke-linecap: square"/>
    </g>
    <g id="text_18">
     <!-- Negative predictions -->
     <g transform="translate(94.6 267.148062) scale(0.1 -0.1)">
      <defs>
       <path id="DejaVuSans-4e" d="M 628 4666 
L 1478 4666 
L 3547 763 
L 3547 4666 
L 4159 4666 
L 4159 0 
L 3309 0 
L 1241 3903 
L 1241 0 
L 628 0 
L 628 4666 
z
" transform="scale(0.015625)"/>
       <path id="DejaVuSans-67" d="M 2906 1791 
Q 2906 2416 2648 2759 
Q 2391 3103 1925 3103 
Q 1463 3103 1205 2759 
Q 947 2416 947 1791 
Q 947 1169 1205 825 
Q 1463 481 1925 481 
Q 2391 481 2648 825 
Q 2906 1169 2906 1791 
z
M 3481 434 
Q 3481 -459 3084 -895 
Q 2688 -1331 1869 -1331 
Q 1566 -1331 1297 -1286 
Q 1028 -1241 775 -1147 
L 775 -588 
Q 1028 -725 1275 -790 
Q 1522 -856 1778 -856 
Q 2344 -856 2625 -561 
Q 2906 -266 2906 331 
L 2906 616 
Q 2728 306 2450 153 
Q 2172 0 1784 0 
Q 1141 0 747 490 
Q 353 981 353 1791 
Q 353 2603 747 3093 
Q 1141 3584 1784 3584 
Q 2172 3584 2450 3431 
Q 2728 3278 2906 2969 
L 2906 3500 
L 3481 3500 
L 3481 434 
z
" transform="scale(0.015625)"/>
      </defs>
      <use xlink:href="#DejaVuSans-4e"/>
      <use xlink:href="#DejaVuSans-65" x="74.804688"/>
      <use xlink:href="#DejaVuSans-67" x="136.328125"/>
      <use xlink:href="#DejaVuSans-61" x="199.804688"/>
      <use xlink:href="#DejaVuSans-74" x="261.083984"/>
      <use xlink:href="#DejaVuSans-69" x="300.292969"/>
      <use xlink:href="#DejaVuSans-76" x="328.076172"/>
      <use xlink:href="#DejaVuSans-65" x="387.255859"/>
      <use xlink:href="#DejaVuSans-20" x="448.779297"/>
      <use xlink:href="#DejaVuSans-70" x="480.566406"/>
      <use xlink:href="#DejaVuSans-72" x="544.042969"/>
      <use xlink:href="#DejaVuSans-65" x="582.90625"/>
      <use xlink:href="#DejaVuSans-64" x="644.429688"/>
      <use xlink:href="#DejaVuSans-69" x="707.90625"/>
      <use xlink:href="#DejaVuSans-63" x="735.689453"/>
      <use xlink:href="#DejaVuSans-74" x="790.669922"/>
      <use xlink:href="#DejaVuSans-69" x="829.878906"/>
      <use xlink:href="#DejaVuSans-6f" x="857.662109"/>
      <use xlink:href="#DejaVuSans-6e" x="918.84375"/>
      <use xlink:href="#DejaVuSans-73" x="982.222656"/>
     </g>
    </g>
    <g id="line2d_24">
     <path d="M 66.6 278.326188 
L 76.6 278.326188 
L 86.6 278.326188 
" style="fill: none; stroke: #f08080; stroke-opacity: 0.8; stroke-width: 0.5; stroke-linecap: square"/>
    </g>
    <g id="text_19">
     <!-- Negative predictions max -->
     <g transform="translate(94.6 281.826188) scale(0.1 -0.1)">
      <use xlink:href="#DejaVuSans-4e"/>
      <use xlink:href="#DejaVuSans-65" x="74.804688"/>
      <use xlink:href="#DejaVuSans-67" x="136.328125"/>
      <use xlink:href="#DejaVuSans-61" x="199.804688"/>
      <use xlink:href="#DejaVuSans-74" x="261.083984"/>
      <use xlink:href="#DejaVuSans-69" x="300.292969"/>
      <use xlink:href="#DejaVuSans-76" x="328.076172"/>
      <use xlink:href="#DejaVuSans-65" x="387.255859"/>
      <use xlink:href="#DejaVuSans-20" x="448.779297"/>
      <use xlink:href="#DejaVuSans-70" x="480.566406"/>
      <use xlink:href="#DejaVuSans-72" x="544.042969"/>
      <use xlink:href="#DejaVuSans-65" x="582.90625"/>
      <use xlink:href="#DejaVuSans-64" x="644.429688"/>
      <use xlink:href="#DejaVuSans-69" x="707.90625"/>
      <use xlink:href="#DejaVuSans-63" x="735.689453"/>
      <use xlink:href="#DejaVuSans-74" x="790.669922"/>
      <use xlink:href="#DejaVuSans-69" x="829.878906"/>
      <use xlink:href="#DejaVuSans-6f" x="857.662109"/>
      <use xlink:href="#DejaVuSans-6e" x="918.84375"/>
      <use xlink:href="#DejaVuSans-73" x="982.222656"/>
      <use xlink:href="#DejaVuSans-20" x="1034.322266"/>
      <use xlink:href="#DejaVuSans-6d" x="1066.109375"/>
      <use xlink:href="#DejaVuSans-61" x="1163.521484"/>
      <use xlink:href="#DejaVuSans-78" x="1224.800781"/>
     </g>
    </g>
    <g id="line2d_25">
     <path d="M 66.6 293.004312 
L 76.6 293.004312 
L 86.6 293.004312 
" style="fill: none; stroke: #f08080; stroke-opacity: 0.8; stroke-width: 0.5; stroke-linecap: square"/>
    </g>
    <g id="text_20">
     <!-- Negative predictions min -->
     <g transform="translate(94.6 296.504312) scale(0.1 -0.1)">
      <use xlink:href="#DejaVuSans-4e"/>
      <use xlink:href="#DejaVuSans-65" x="74.804688"/>
      <use xlink:href="#DejaVuSans-67" x="136.328125"/>
      <use xlink:href="#DejaVuSans-61" x="199.804688"/>
      <use xlink:href="#DejaVuSans-74" x="261.083984"/>
      <use xlink:href="#DejaVuSans-69" x="300.292969"/>
      <use xlink:href="#DejaVuSans-76" x="328.076172"/>
      <use xlink:href="#DejaVuSans-65" x="387.255859"/>
      <use xlink:href="#DejaVuSans-20" x="448.779297"/>
      <use xlink:href="#DejaVuSans-70" x="480.566406"/>
      <use xlink:href="#DejaVuSans-72" x="544.042969"/>
      <use xlink:href="#DejaVuSans-65" x="582.90625"/>
      <use xlink:href="#DejaVuSans-64" x="644.429688"/>
      <use xlink:href="#DejaVuSans-69" x="707.90625"/>
      <use xlink:href="#DejaVuSans-63" x="735.689453"/>
      <use xlink:href="#DejaVuSans-74" x="790.669922"/>
      <use xlink:href="#DejaVuSans-69" x="829.878906"/>
      <use xlink:href="#DejaVuSans-6f" x="857.662109"/>
      <use xlink:href="#DejaVuSans-6e" x="918.84375"/>
      <use xlink:href="#DejaVuSans-73" x="982.222656"/>
      <use xlink:href="#DejaVuSans-20" x="1034.322266"/>
      <use xlink:href="#DejaVuSans-6d" x="1066.109375"/>
      <use xlink:href="#DejaVuSans-69" x="1163.521484"/>
      <use xlink:href="#DejaVuSans-6e" x="1191.304688"/>
     </g>
    </g>
   </g>
  </g>
 </g>
 <defs>
  <clipPath id="p3d0b20e4d6">
   <rect x="57.6" y="41.472" width="357.12" height="266.112"/>
  </clipPath>
 </defs>
</svg>
