<?xml version="1.0" encoding="utf-8" standalone="no"?>
<!DOCTYPE svg PUBLIC "-//W3C//DTD SVG 1.1//EN"
  "http://www.w3.org/Graphics/SVG/1.1/DTD/svg11.dtd">
<svg xmlns:xlink="http://www.w3.org/1999/xlink" width="460.8pt" height="345.6pt" viewBox="0 0 460.8 345.6" xmlns="http://www.w3.org/2000/svg" version="1.1">
 <metadata>
  <rdf:RDF xmlns:dc="http://purl.org/dc/elements/1.1/" xmlns:cc="http://creativecommons.org/ns#" xmlns:rdf="http://www.w3.org/1999/02/22-rdf-syntax-ns#">
   <cc:Work>
    <dc:type rdf:resource="http://purl.org/dc/dcmitype/StillImage"/>
    <dc:date>2024-07-12T17:40:20.001261</dc:date>
    <dc:format>image/svg+xml</dc:format>
    <dc:creator>
     <cc:Agent>
      <dc:title>Matplotlib v3.9.0, https://matplotlib.org/</dc:title>
     </cc:Agent>
    </dc:creator>
   </cc:Work>
  </rdf:RDF>
 </metadata>
 <defs>
  <style type="text/css">*{stroke-linejoin: round; stroke-linecap: butt}</style>
 </defs>
 <g id="figure_1">
  <g id="patch_1">
   <path d="M 0 345.6 
L 460.8 345.6 
L 460.8 0 
L 0 0 
z
" style="fill: #ffffff"/>
  </g>
  <g id="axes_1">
   <g id="patch_2">
    <path d="M 57.6 307.584 
L 414.72 307.584 
L 414.72 41.472 
L 57.6 41.472 
z
" style="fill: #ffffff"/>
   </g>
   <g id="matplotlib.axis_1">
    <g id="xtick_1">
     <g id="line2d_1">
      <defs>
       <path id="m2439c02b2e" d="M 0 0 
L 0 3.5 
" style="stroke: #000000; stroke-width: 0.8"/>
      </defs>
      <g>
       <use xlink:href="#m2439c02b2e" x="73.832727" y="307.584" style="stroke: #000000; stroke-width: 0.8"/>
      </g>
     </g>
     <g id="text_1">
      <!-- 0 -->
      <g transform="translate(70.651477 322.182437) scale(0.1 -0.1)">
       <defs>
        <path id="DejaVuSans-30" d="M 2034 4250 
Q 1547 4250 1301 3770 
Q 1056 3291 1056 2328 
Q 1056 1369 1301 889 
Q 1547 409 2034 409 
Q 2525 409 2770 889 
Q 3016 1369 3016 2328 
Q 3016 3291 2770 3770 
Q 2525 4250 2034 4250 
z
M 2034 4750 
Q 2819 4750 3233 4129 
Q 3647 3509 3647 2328 
Q 3647 1150 3233 529 
Q 2819 -91 2034 -91 
Q 1250 -91 836 529 
Q 422 1150 422 2328 
Q 422 3509 836 4129 
Q 1250 4750 2034 4750 
z
" transform="scale(0.015625)"/>
       </defs>
       <use xlink:href="#DejaVuSans-30"/>
      </g>
     </g>
    </g>
    <g id="xtick_2">
     <g id="line2d_2">
      <g>
       <use xlink:href="#m2439c02b2e" x="149.019051" y="307.584" style="stroke: #000000; stroke-width: 0.8"/>
      </g>
     </g>
     <g id="text_2">
      <!-- 500 -->
      <g transform="translate(139.475301 322.182437) scale(0.1 -0.1)">
       <defs>
        <path id="DejaVuSans-35" d="M 691 4666 
L 3169 4666 
L 3169 4134 
L 1269 4134 
L 1269 2991 
Q 1406 3038 1543 3061 
Q 1681 3084 1819 3084 
Q 2600 3084 3056 2656 
Q 3513 2228 3513 1497 
Q 3513 744 3044 326 
Q 2575 -91 1722 -91 
Q 1428 -91 1123 -41 
Q 819 9 494 109 
L 494 744 
Q 775 591 1075 516 
Q 1375 441 1709 441 
Q 2250 441 2565 725 
Q 2881 1009 2881 1497 
Q 2881 1984 2565 2268 
Q 2250 2553 1709 2553 
Q 1456 2553 1204 2497 
Q 953 2441 691 2322 
L 691 4666 
z
" transform="scale(0.015625)"/>
       </defs>
       <use xlink:href="#DejaVuSans-35"/>
       <use xlink:href="#DejaVuSans-30" x="63.623047"/>
       <use xlink:href="#DejaVuSans-30" x="127.246094"/>
      </g>
     </g>
    </g>
    <g id="xtick_3">
     <g id="line2d_3">
      <g>
       <use xlink:href="#m2439c02b2e" x="224.205375" y="307.584" style="stroke: #000000; stroke-width: 0.8"/>
      </g>
     </g>
     <g id="text_3">
      <!-- 1000 -->
      <g transform="translate(211.480375 322.182437) scale(0.1 -0.1)">
       <defs>
        <path id="DejaVuSans-31" d="M 794 531 
L 1825 531 
L 1825 4091 
L 703 3866 
L 703 4441 
L 1819 4666 
L 2450 4666 
L 2450 531 
L 3481 531 
L 3481 0 
L 794 0 
L 794 531 
z
" transform="scale(0.015625)"/>
       </defs>
       <use xlink:href="#DejaVuSans-31"/>
       <use xlink:href="#DejaVuSans-30" x="63.623047"/>
       <use xlink:href="#DejaVuSans-30" x="127.246094"/>
       <use xlink:href="#DejaVuSans-30" x="190.869141"/>
      </g>
     </g>
    </g>
    <g id="xtick_4">
     <g id="line2d_4">
      <g>
       <use xlink:href="#m2439c02b2e" x="299.391698" y="307.584" style="stroke: #000000; stroke-width: 0.8"/>
      </g>
     </g>
     <g id="text_4">
      <!-- 1500 -->
      <g transform="translate(286.666698 322.182437) scale(0.1 -0.1)">
       <use xlink:href="#DejaVuSans-31"/>
       <use xlink:href="#DejaVuSans-35" x="63.623047"/>
       <use xlink:href="#DejaVuSans-30" x="127.246094"/>
       <use xlink:href="#DejaVuSans-30" x="190.869141"/>
      </g>
     </g>
    </g>
    <g id="xtick_5">
     <g id="line2d_5">
      <g>
       <use xlink:href="#m2439c02b2e" x="374.578022" y="307.584" style="stroke: #000000; stroke-width: 0.8"/>
      </g>
     </g>
     <g id="text_5">
      <!-- 2000 -->
      <g transform="translate(361.853022 322.182437) scale(0.1 -0.1)">
       <defs>
        <path id="DejaVuSans-32" d="M 1228 531 
L 3431 531 
L 3431 0 
L 469 0 
L 469 531 
Q 828 903 1448 1529 
Q 2069 2156 2228 2338 
Q 2531 2678 2651 2914 
Q 2772 3150 2772 3378 
Q 2772 3750 2511 3984 
Q 2250 4219 1831 4219 
Q 1534 4219 1204 4116 
Q 875 4013 500 3803 
L 500 4441 
Q 881 4594 1212 4672 
Q 1544 4750 1819 4750 
Q 2544 4750 2975 4387 
Q 3406 4025 3406 3419 
Q 3406 3131 3298 2873 
Q 3191 2616 2906 2266 
Q 2828 2175 2409 1742 
Q 1991 1309 1228 531 
z
" transform="scale(0.015625)"/>
       </defs>
       <use xlink:href="#DejaVuSans-32"/>
       <use xlink:href="#DejaVuSans-30" x="63.623047"/>
       <use xlink:href="#DejaVuSans-30" x="127.246094"/>
       <use xlink:href="#DejaVuSans-30" x="190.869141"/>
      </g>
     </g>
    </g>
   </g>
   <g id="matplotlib.axis_2">
    <g id="ytick_1">
     <g id="line2d_6">
      <defs>
       <path id="m1e3a398b6c" d="M 0 0 
L -3.5 0 
" style="stroke: #000000; stroke-width: 0.8"/>
      </defs>
      <g>
       <use xlink:href="#m1e3a398b6c" x="57.6" y="297.307117" style="stroke: #000000; stroke-width: 0.8"/>
      </g>
     </g>
     <g id="text_6">
      <!-- −800000 -->
      <g transform="translate(4.045313 301.106336) scale(0.1 -0.1)">
       <defs>
        <path id="DejaVuSans-2212" d="M 678 2272 
L 4684 2272 
L 4684 1741 
L 678 1741 
L 678 2272 
z
" transform="scale(0.015625)"/>
        <path id="DejaVuSans-38" d="M 2034 2216 
Q 1584 2216 1326 1975 
Q 1069 1734 1069 1313 
Q 1069 891 1326 650 
Q 1584 409 2034 409 
Q 2484 409 2743 651 
Q 3003 894 3003 1313 
Q 3003 1734 2745 1975 
Q 2488 2216 2034 2216 
z
M 1403 2484 
Q 997 2584 770 2862 
Q 544 3141 544 3541 
Q 544 4100 942 4425 
Q 1341 4750 2034 4750 
Q 2731 4750 3128 4425 
Q 3525 4100 3525 3541 
Q 3525 3141 3298 2862 
Q 3072 2584 2669 2484 
Q 3125 2378 3379 2068 
Q 3634 1759 3634 1313 
Q 3634 634 3220 271 
Q 2806 -91 2034 -91 
Q 1263 -91 848 271 
Q 434 634 434 1313 
Q 434 1759 690 2068 
Q 947 2378 1403 2484 
z
M 1172 3481 
Q 1172 3119 1398 2916 
Q 1625 2713 2034 2713 
Q 2441 2713 2670 2916 
Q 2900 3119 2900 3481 
Q 2900 3844 2670 4047 
Q 2441 4250 2034 4250 
Q 1625 4250 1398 4047 
Q 1172 3844 1172 3481 
z
" transform="scale(0.015625)"/>
       </defs>
       <use xlink:href="#DejaVuSans-2212"/>
       <use xlink:href="#DejaVuSans-38" x="83.789062"/>
       <use xlink:href="#DejaVuSans-30" x="147.412109"/>
       <use xlink:href="#DejaVuSans-30" x="211.035156"/>
       <use xlink:href="#DejaVuSans-30" x="274.658203"/>
       <use xlink:href="#DejaVuSans-30" x="338.28125"/>
       <use xlink:href="#DejaVuSans-30" x="401.904297"/>
      </g>
     </g>
    </g>
    <g id="ytick_2">
     <g id="line2d_7">
      <g>
       <use xlink:href="#m1e3a398b6c" x="57.6" y="262.472348" style="stroke: #000000; stroke-width: 0.8"/>
      </g>
     </g>
     <g id="text_7">
      <!-- −600000 -->
      <g transform="translate(4.045313 266.271567) scale(0.1 -0.1)">
       <defs>
        <path id="DejaVuSans-36" d="M 2113 2584 
Q 1688 2584 1439 2293 
Q 1191 2003 1191 1497 
Q 1191 994 1439 701 
Q 1688 409 2113 409 
Q 2538 409 2786 701 
Q 3034 994 3034 1497 
Q 3034 2003 2786 2293 
Q 2538 2584 2113 2584 
z
M 3366 4563 
L 3366 3988 
Q 3128 4100 2886 4159 
Q 2644 4219 2406 4219 
Q 1781 4219 1451 3797 
Q 1122 3375 1075 2522 
Q 1259 2794 1537 2939 
Q 1816 3084 2150 3084 
Q 2853 3084 3261 2657 
Q 3669 2231 3669 1497 
Q 3669 778 3244 343 
Q 2819 -91 2113 -91 
Q 1303 -91 875 529 
Q 447 1150 447 2328 
Q 447 3434 972 4092 
Q 1497 4750 2381 4750 
Q 2619 4750 2861 4703 
Q 3103 4656 3366 4563 
z
" transform="scale(0.015625)"/>
       </defs>
       <use xlink:href="#DejaVuSans-2212"/>
       <use xlink:href="#DejaVuSans-36" x="83.789062"/>
       <use xlink:href="#DejaVuSans-30" x="147.412109"/>
       <use xlink:href="#DejaVuSans-30" x="211.035156"/>
       <use xlink:href="#DejaVuSans-30" x="274.658203"/>
       <use xlink:href="#DejaVuSans-30" x="338.28125"/>
       <use xlink:href="#DejaVuSans-30" x="401.904297"/>
      </g>
     </g>
    </g>
    <g id="ytick_3">
     <g id="line2d_8">
      <g>
       <use xlink:href="#m1e3a398b6c" x="57.6" y="227.637579" style="stroke: #000000; stroke-width: 0.8"/>
      </g>
     </g>
     <g id="text_8">
      <!-- −400000 -->
      <g transform="translate(4.045313 231.436798) scale(0.1 -0.1)">
       <defs>
        <path id="DejaVuSans-34" d="M 2419 4116 
L 825 1625 
L 2419 1625 
L 2419 4116 
z
M 2253 4666 
L 3047 4666 
L 3047 1625 
L 3713 1625 
L 3713 1100 
L 3047 1100 
L 3047 0 
L 2419 0 
L 2419 1100 
L 313 1100 
L 313 1709 
L 2253 4666 
z
" transform="scale(0.015625)"/>
       </defs>
       <use xlink:href="#DejaVuSans-2212"/>
       <use xlink:href="#DejaVuSans-34" x="83.789062"/>
       <use xlink:href="#DejaVuSans-30" x="147.412109"/>
       <use xlink:href="#DejaVuSans-30" x="211.035156"/>
       <use xlink:href="#DejaVuSans-30" x="274.658203"/>
       <use xlink:href="#DejaVuSans-30" x="338.28125"/>
       <use xlink:href="#DejaVuSans-30" x="401.904297"/>
      </g>
     </g>
    </g>
    <g id="ytick_4">
     <g id="line2d_9">
      <g>
       <use xlink:href="#m1e3a398b6c" x="57.6" y="192.80281" style="stroke: #000000; stroke-width: 0.8"/>
      </g>
     </g>
     <g id="text_9">
      <!-- −200000 -->
      <g transform="translate(4.045313 196.602029) scale(0.1 -0.1)">
       <use xlink:href="#DejaVuSans-2212"/>
       <use xlink:href="#DejaVuSans-32" x="83.789062"/>
       <use xlink:href="#DejaVuSans-30" x="147.412109"/>
       <use xlink:href="#DejaVuSans-30" x="211.035156"/>
       <use xlink:href="#DejaVuSans-30" x="274.658203"/>
       <use xlink:href="#DejaVuSans-30" x="338.28125"/>
       <use xlink:href="#DejaVuSans-30" x="401.904297"/>
      </g>
     </g>
    </g>
    <g id="ytick_5">
     <g id="line2d_10">
      <g>
       <use xlink:href="#m1e3a398b6c" x="57.6" y="157.968041" style="stroke: #000000; stroke-width: 0.8"/>
      </g>
     </g>
     <g id="text_10">
      <!-- 0 -->
      <g transform="translate(44.2375 161.767259) scale(0.1 -0.1)">
       <use xlink:href="#DejaVuSans-30"/>
      </g>
     </g>
    </g>
    <g id="ytick_6">
     <g id="line2d_11">
      <g>
       <use xlink:href="#m1e3a398b6c" x="57.6" y="123.133272" style="stroke: #000000; stroke-width: 0.8"/>
      </g>
     </g>
     <g id="text_11">
      <!-- 200000 -->
      <g transform="translate(12.425 126.93249) scale(0.1 -0.1)">
       <use xlink:href="#DejaVuSans-32"/>
       <use xlink:href="#DejaVuSans-30" x="63.623047"/>
       <use xlink:href="#DejaVuSans-30" x="127.246094"/>
       <use xlink:href="#DejaVuSans-30" x="190.869141"/>
       <use xlink:href="#DejaVuSans-30" x="254.492188"/>
       <use xlink:href="#DejaVuSans-30" x="318.115234"/>
      </g>
     </g>
    </g>
    <g id="ytick_7">
     <g id="line2d_12">
      <g>
       <use xlink:href="#m1e3a398b6c" x="57.6" y="88.298502" style="stroke: #000000; stroke-width: 0.8"/>
      </g>
     </g>
     <g id="text_12">
      <!-- 400000 -->
      <g transform="translate(12.425 92.097721) scale(0.1 -0.1)">
       <use xlink:href="#DejaVuSans-34"/>
       <use xlink:href="#DejaVuSans-30" x="63.623047"/>
       <use xlink:href="#DejaVuSans-30" x="127.246094"/>
       <use xlink:href="#DejaVuSans-30" x="190.869141"/>
       <use xlink:href="#DejaVuSans-30" x="254.492188"/>
       <use xlink:href="#DejaVuSans-30" x="318.115234"/>
      </g>
     </g>
    </g>
    <g id="ytick_8">
     <g id="line2d_13">
      <g>
       <use xlink:href="#m1e3a398b6c" x="57.6" y="53.463733" style="stroke: #000000; stroke-width: 0.8"/>
      </g>
     </g>
     <g id="text_13">
      <!-- 600000 -->
      <g transform="translate(12.425 57.262952) scale(0.1 -0.1)">
       <use xlink:href="#DejaVuSans-36"/>
       <use xlink:href="#DejaVuSans-30" x="63.623047"/>
       <use xlink:href="#DejaVuSans-30" x="127.246094"/>
       <use xlink:href="#DejaVuSans-30" x="190.869141"/>
       <use xlink:href="#DejaVuSans-30" x="254.492188"/>
       <use xlink:href="#DejaVuSans-30" x="318.115234"/>
      </g>
     </g>
    </g>
   </g>
   <g id="line2d_14">
    <path d="M 73.832727 158.02195 
L 73.9831 157.869683 
L 74.283845 158.016048 
L 74.584591 157.756412 
L 74.885336 158.090154 
L 75.186081 158.286382 
L 75.486826 158.392729 
L 75.637199 158.671209 
L 75.787572 158.669106 
L 76.088317 159.158224 
L 76.84018 159.557469 
L 77.140926 159.325106 
L 77.291298 159.472163 
L 77.592043 159.437572 
L 77.892789 159.834874 
L 78.043161 159.827908 
L 78.494279 160.169775 
L 78.795025 160.185523 
L 79.246143 160.02744 
L 79.396515 160.132498 
L 79.546888 160.093894 
L 79.847633 160.261235 
L 79.998006 160.352576 
L 80.148378 160.265021 
L 80.749869 160.59218 
L 81.200987 161.036359 
L 81.95285 161.145366 
L 82.554341 160.983471 
L 83.155831 161.208487 
L 83.456577 161.147284 
L 84.20844 161.295064 
L 84.358813 161.388015 
L 84.659558 161.642043 
L 85.561794 162.005863 
L 85.862539 162.218993 
L 86.163284 162.282457 
L 86.313657 162.446963 
L 86.46403 162.38015 
L 86.614402 162.487131 
L 86.915148 162.527717 
L 88.719619 162.986509 
L 88.869992 162.901605 
L 89.32111 163.078864 
L 89.772228 163.086507 
L 90.524091 163.448269 
L 90.824836 163.463413 
L 91.125582 163.54501 
L 93.230799 163.81315 
L 93.381171 163.69203 
L 93.681917 163.724232 
L 94.133035 163.788694 
L 95.035271 163.986776 
L 95.336016 163.928765 
L 98.644214 164.645466 
L 99.095332 164.926074 
L 99.847195 165.168049 
L 99.997568 165.364765 
L 100.749431 165.535612 
L 101.80204 165.630696 
L 102.704276 165.674326 
L 103.907257 166.028465 
L 104.208002 166.016155 
L 104.65912 166.088349 
L 106.613964 166.319366 
L 107.065082 166.273382 
L 113.079988 167.889073 
L 113.531106 168.006168 
L 114.282969 168.211012 
L 116.839304 169.096677 
L 117.14005 169.008623 
L 118.493404 169.142111 
L 119.395639 169.438338 
L 119.99713 169.554434 
L 120.598621 169.53186 
L 121.200111 169.631879 
L 121.500856 169.602901 
L 122.102347 169.746107 
L 124.959427 170.236676 
L 125.861663 170.34277 
L 127.064644 170.525127 
L 129.019489 170.869832 
L 129.470607 170.912226 
L 129.921725 171.053303 
L 132.026942 171.679436 
L 134.132159 172.129085 
L 134.733649 172.248736 
L 135.33514 172.426728 
L 135.786258 172.65443 
L 136.387749 172.829837 
L 136.838866 172.960379 
L 137.741102 173.397338 
L 138.19222 173.661391 
L 138.793711 173.865185 
L 142.101909 174.347349 
L 142.7034 174.642346 
L 143.605636 174.99878 
L 144.056754 175.36296 
L 144.357499 175.46858 
L 144.808617 175.394613 
L 144.958989 175.593166 
L 145.410107 175.529005 
L 146.763461 175.861233 
L 147.214579 175.762222 
L 147.515324 175.888516 
L 150.372405 176.926741 
L 150.67315 177.279507 
L 150.823523 176.958611 
L 150.973895 177.209499 
L 151.575386 177.014981 
L 151.725759 177.241742 
L 152.026504 177.107311 
L 152.778367 177.382491 
L 152.92874 177.256885 
L 153.079112 177.376679 
L 153.830976 177.152036 
L 154.131721 177.358057 
L 154.582839 177.505351 
L 154.733212 177.468053 
L 155.184329 177.585343 
L 155.485075 177.590913 
L 155.936193 177.7323 
L 156.838429 177.910359 
L 157.139174 178.114364 
L 157.891037 178.212418 
L 158.04141 178.16089 
L 158.342155 178.396795 
L 158.6429 178.524395 
L 158.943646 178.721779 
L 159.244391 178.724066 
L 159.545136 178.804044 
L 160.296999 178.903508 
L 164.056316 178.89438 
L 164.206688 178.718022 
L 165.560042 178.900427 
L 166.311905 178.97323 
L 166.612651 179.095563 
L 166.913396 179.06561 
L 168.717868 179.115809 
L 169.018613 179.489576 
L 170.071222 179.699605 
L 170.672712 179.792764 
L 171.725321 179.896205 
L 172.176439 179.900106 
L 172.627557 179.897925 
L 173.37942 179.811996 
L 174.131283 180.046419 
L 174.732774 180.018493 
L 176.537245 180.112595 
L 176.837991 180.060907 
L 177.138736 180.165461 
L 178.341717 180.226672 
L 179.09358 180.289725 
L 179.243953 180.237036 
L 179.544698 180.310316 
L 179.845444 180.407833 
L 180.146189 180.509253 
L 180.597307 180.518716 
L 182.101033 180.770087 
L 183.003269 180.863464 
L 183.454387 181.031168 
L 184.20625 181.084018 
L 184.657368 181.293909 
L 185.709977 181.510551 
L 186.010722 181.466878 
L 186.161095 181.410998 
L 186.311467 181.493954 
L 186.612213 181.423419 
L 187.213703 181.52313 
L 188.115939 181.525039 
L 188.71743 181.754537 
L 189.018175 181.768894 
L 189.31892 181.67129 
L 189.619666 181.734025 
L 189.770038 181.241318 
L 190.070784 181.505157 
L 190.521902 181.79155 
L 190.672274 181.848408 
L 190.822647 182.125304 
L 192.176001 182.220761 
L 192.326373 182.184438 
L 192.627119 182.298951 
L 193.378982 182.481135 
L 193.679727 182.564019 
L 193.980472 182.616327 
L 194.281218 182.573669 
L 196.08569 182.802014 
L 196.386435 182.920512 
L 196.837553 183.067116 
L 196.987925 183.255008 
L 197.288671 183.284123 
L 197.589416 183.336955 
L 198.040534 183.384194 
L 198.341279 183.584353 
L 198.94277 183.526477 
L 199.243515 183.754371 
L 199.54426 183.777358 
L 199.845006 183.872738 
L 200.747242 183.833001 
L 201.649477 184.104823 
L 201.79985 184.064945 
L 201.950223 184.1832 
L 202.250968 184.121177 
L 202.702086 184.303161 
L 203.303577 184.616801 
L 203.453949 184.600928 
L 204.506558 185.241427 
L 205.258421 185.509527 
L 205.559166 185.496125 
L 207.062893 185.706233 
L 207.514011 185.811564 
L 208.265874 185.873805 
L 210.220718 186.241134 
L 210.521464 186.470249 
L 211.122954 186.822157 
L 211.273327 186.722427 
L 211.874817 187.157028 
L 212.626681 187.293792 
L 213.528917 187.665261 
L 213.980035 187.648535 
L 214.28078 187.707858 
L 214.88227 187.934209 
L 215.333388 188.120726 
L 215.784506 188.462346 
L 216.085252 188.212105 
L 216.385997 188.342655 
L 216.686742 188.481204 
L 216.987487 188.492094 
L 218.641587 188.680618 
L 218.942332 188.662112 
L 219.092705 188.655628 
L 219.39345 188.761021 
L 220.145313 188.864024 
L 220.446058 188.817348 
L 221.197922 188.926076 
L 223.152766 189.308297 
L 223.453511 189.590192 
L 224.055002 189.662535 
L 224.205375 189.818763 
L 224.50612 189.780844 
L 225.408356 190.23857 
L 225.558728 190.530393 
L 226.009846 190.625495 
L 226.460964 190.832085 
L 226.76171 191.061215 
L 227.062455 191.103953 
L 227.513573 191.521131 
L 228.566181 191.839749 
L 228.866927 191.518412 
L 229.318045 191.921937 
L 229.61879 191.787459 
L 229.769162 191.853046 
L 229.919535 191.726415 
L 230.22028 191.902259 
L 230.671398 191.7691 
L 230.972144 191.74628 
L 231.272889 192.010185 
L 231.573634 191.973042 
L 231.87438 192.588305 
L 232.325497 192.842284 
L 232.47587 192.626885 
L 232.626243 192.91159 
L 232.776615 192.8364 
L 233.077361 193.101914 
L 233.227733 193.388729 
L 233.378106 193.376164 
L 233.829224 193.998376 
L 234.129969 194.096392 
L 234.430715 194.759832 
L 234.581087 194.658789 
L 235.182578 196.302085 
L 235.33295 196.235152 
L 235.784068 195.220731 
L 236.084814 196.202681 
L 236.235186 195.812961 
L 236.535932 195.694034 
L 236.686304 195.880741 
L 236.98705 195.772969 
L 237.137422 194.990645 
L 237.287795 195.422543 
L 237.438168 195.275854 
L 237.889285 195.487556 
L 238.039658 195.082977 
L 238.340403 195.811867 
L 238.791521 196.050295 
L 239.092267 196.881785 
L 239.242639 196.783678 
L 239.543385 197.28824 
L 239.693757 197.290778 
L 239.84413 198.562704 
L 239.994503 198.559527 
L 240.144875 198.360642 
L 240.295248 198.927654 
L 240.595993 198.627862 
L 240.746366 198.71644 
L 240.896738 198.606218 
L 241.498229 199.835046 
L 241.648602 199.625917 
L 241.798974 199.86943 
L 242.09972 198.34291 
L 242.250092 198.576103 
L 242.550838 198.115067 
L 242.851583 197.617438 
L 243.001955 198.466775 
L 243.152328 198.287537 
L 243.302701 198.68523 
L 243.453073 198.395663 
L 243.753819 198.536199 
L 244.204937 199.693972 
L 244.505682 200.28741 
L 244.656055 200.200567 
L 244.806427 201.022803 
L 245.107173 199.626618 
L 245.257545 199.753023 
L 245.708663 199.419132 
L 246.310154 197.738067 
L 246.460526 197.439737 
L 246.610899 197.503692 
L 246.761272 198.147289 
L 246.911644 198.078815 
L 247.21239 198.438568 
L 247.362762 198.688737 
L 247.81388 198.61647 
L 247.964253 198.297338 
L 248.114625 198.74018 
L 248.415371 198.46661 
L 248.565743 198.212917 
L 248.716116 198.916484 
L 248.866489 198.962391 
L 249.016861 199.389179 
L 249.167234 199.461777 
L 249.317607 199.393705 
L 249.467979 200.139357 
L 249.768725 199.535562 
L 250.219843 197.777112 
L 250.370215 197.721071 
L 250.520588 198.026662 
L 250.821333 197.49865 
L 251.272451 197.555313 
L 251.422824 198.734662 
L 251.723569 198.778057 
L 251.873942 198.11384 
L 252.024314 198.769706 
L 252.174687 198.815157 
L 252.32506 198.529985 
L 252.475432 198.599874 
L 252.625805 197.967558 
L 252.776178 198.881962 
L 252.92655 198.796654 
L 253.227295 199.329603 
L 253.377668 199.210976 
L 253.528041 198.831399 
L 253.678413 199.207146 
L 253.828786 198.14095 
L 254.129531 198.946758 
L 254.279904 198.715753 
L 254.430277 199.08383 
L 254.580649 198.991122 
L 254.731022 199.30935 
L 254.881395 198.620243 
L 255.031767 199.684094 
L 255.18214 199.4941 
L 255.332513 199.981616 
L 255.482885 199.917756 
L 255.78363 201.344269 
L 256.084376 202.103082 
L 256.234748 201.780376 
L 256.535494 202.423909 
L 256.685866 203.022756 
L 256.836239 202.836334 
L 256.986612 202.976209 
L 257.136984 203.33988 
L 257.43773 202.815964 
L 257.588102 202.769892 
L 257.738475 202.508851 
L 257.888848 202.532434 
L 258.189593 203.697859 
L 258.339965 204.071518 
L 258.490338 203.972759 
L 258.791083 204.896929 
L 258.941456 205.048671 
L 259.091829 204.848387 
L 259.392574 205.190793 
L 259.542947 205.142647 
L 259.693319 205.321307 
L 259.843692 204.854665 
L 259.994065 205.107278 
L 260.144437 205.783184 
L 260.29481 205.815775 
L 260.445183 205.413984 
L 260.595555 205.673503 
L 260.745928 206.600474 
L 260.8963 206.614377 
L 261.197046 207.231043 
L 261.347418 207.049365 
L 261.798536 207.720342 
L 261.948909 207.736726 
L 262.099282 207.880354 
L 262.400027 207.615843 
L 262.700772 208.016406 
L 262.851145 208.113914 
L 263.001518 207.940978 
L 263.903753 208.555007 
L 264.204499 208.415891 
L 264.505244 209.010459 
L 265.708225 211.444015 
L 265.858598 211.448761 
L 266.159343 211.280621 
L 266.309716 211.33082 
L 267.211952 213.461617 
L 267.362324 213.353106 
L 267.66307 213.695376 
L 267.813442 214.513373 
L 268.565305 214.239958 
L 269.016423 215.157313 
L 269.317169 215.561062 
L 269.467541 215.409315 
L 269.617914 215.812705 
L 269.768287 215.432821 
L 270.069032 216.078872 
L 270.369777 216.064294 
L 270.52015 216.305249 
L 270.820895 217.174608 
L 271.422386 218.561919 
L 271.572758 217.733243 
L 271.873504 217.844274 
L 272.023876 217.689094 
L 272.174249 217.724454 
L 272.324622 218.114555 
L 272.474994 217.727209 
L 272.77574 218.60828 
L 273.076485 218.518158 
L 273.37723 218.957402 
L 273.527603 218.373412 
L 273.677975 218.406866 
L 273.978721 219.670968 
L 274.129093 219.57094 
L 274.580211 220.118052 
L 274.730584 220.170562 
L 275.031329 220.850404 
L 275.181702 221.56306 
L 275.332075 221.671752 
L 275.783193 222.983934 
L 275.933565 223.581224 
L 276.083938 223.323584 
L 276.23431 223.589567 
L 276.685428 224.978922 
L 276.835801 224.553594 
L 276.986174 224.850238 
L 277.286919 226.345454 
L 277.437292 226.217106 
L 277.738037 226.517089 
L 278.038782 227.694929 
L 278.339528 226.86975 
L 278.790646 227.962937 
L 278.941018 227.360646 
L 279.091391 227.38456 
L 279.392136 228.528477 
L 279.692881 228.229034 
L 279.843254 228.245102 
L 279.993627 228.742773 
L 280.444745 227.713343 
L 280.74549 228.404056 
L 280.895863 229.363359 
L 281.046235 229.390154 
L 281.196608 228.850877 
L 281.346981 229.075858 
L 281.798098 229.134389 
L 281.948471 228.869935 
L 282.098844 228.283401 
L 282.249216 228.282002 
L 282.399589 227.802433 
L 282.700334 228.780059 
L 282.850707 228.797234 
L 283.00108 228.335384 
L 283.151452 228.578079 
L 283.301825 228.27739 
L 283.452198 228.459993 
L 283.60257 227.888375 
L 284.053688 228.847574 
L 284.204061 228.736667 
L 284.354433 228.836743 
L 284.504806 228.733305 
L 284.805551 227.622981 
L 285.256669 228.312141 
L 285.407042 228.304494 
L 285.557415 227.889005 
L 285.707787 227.922857 
L 285.85816 228.670066 
L 286.008533 228.782332 
L 286.158905 228.303581 
L 286.309278 228.391674 
L 286.459651 228.754051 
L 286.610023 228.805548 
L 286.760396 228.697403 
L 287.061141 229.309031 
L 287.211514 229.502635 
L 287.361886 230.029398 
L 287.512259 230.023308 
L 287.662632 230.408832 
L 287.963377 230.442542 
L 288.11375 230.784657 
L 288.264122 230.829406 
L 288.564868 230.251915 
L 288.71524 230.478123 
L 288.865613 230.299922 
L 289.166358 230.78304 
L 289.467103 230.914202 
L 289.617476 230.625734 
L 289.767849 230.820196 
L 289.918221 230.74996 
L 290.218967 231.328748 
L 290.369339 231.412664 
L 290.670085 232.052623 
L 290.820457 231.983529 
L 290.97083 232.298959 
L 291.121203 232.331254 
L 291.572321 232.706143 
L 291.873066 232.670954 
L 292.023438 232.027966 
L 292.173811 232.037113 
L 292.474556 232.884642 
L 292.925674 233.284845 
L 293.677538 234.064046 
L 293.82791 233.820364 
L 293.978283 233.994433 
L 294.128656 234.787301 
L 294.279028 234.763065 
L 294.730146 235.611231 
L 294.880519 235.794035 
L 295.331637 235.849356 
L 295.632382 236.387867 
L 295.782755 236.858321 
L 295.933127 236.806421 
L 296.0835 236.398689 
L 296.384245 236.703469 
L 296.684991 236.403543 
L 296.835363 236.766394 
L 296.985736 236.666136 
L 297.286481 237.425959 
L 297.436854 237.545664 
L 297.587226 237.393998 
L 297.737599 238.494151 
L 298.038344 238.833679 
L 298.188717 238.800632 
L 298.33909 238.434944 
L 298.639835 238.915974 
L 298.790208 238.923025 
L 298.94058 239.077794 
L 299.090953 239.734731 
L 299.241326 239.6233 
L 299.542071 239.926498 
L 299.692443 239.692301 
L 300.143561 241.062479 
L 300.594679 241.424636 
L 300.745052 241.368782 
L 301.496915 242.415979 
L 301.647288 242.374069 
L 301.797661 242.931928 
L 302.098406 242.918425 
L 302.248778 242.911448 
L 302.399151 242.786756 
L 302.549524 243.131285 
L 302.699896 243.084917 
L 303.151014 243.310449 
L 303.301387 242.932531 
L 303.45176 243.145142 
L 303.602132 243.090454 
L 303.752505 243.361633 
L 303.902878 243.389453 
L 304.05325 243.005274 
L 304.353996 243.669662 
L 304.504368 243.650086 
L 304.654741 243.848316 
L 304.955486 243.859773 
L 305.105859 244.241527 
L 305.256231 244.260833 
L 305.707349 243.997119 
L 306.008095 244.021988 
L 306.158467 244.207342 
L 306.30884 243.722024 
L 306.609585 244.257164 
L 306.910331 243.930065 
L 307.211076 244.249083 
L 307.361448 244.124018 
L 307.511821 244.585819 
L 307.662194 244.057518 
L 307.962939 244.242699 
L 308.113312 244.119238 
L 308.263684 243.641595 
L 308.414057 244.013926 
L 308.56443 243.946075 
L 308.865175 244.438793 
L 309.16592 244.87363 
L 309.316293 244.751383 
L 309.466666 245.006483 
L 309.617038 244.864466 
L 309.767411 245.398716 
L 309.917783 245.286501 
L 310.218529 245.701898 
L 310.368901 245.647046 
L 310.519274 245.95482 
L 310.820019 246.035412 
L 311.271137 246.32586 
L 311.571883 246.914335 
L 311.722255 246.649074 
L 311.872628 246.988321 
L 312.023001 246.809426 
L 312.474118 247.199438 
L 312.774864 246.939474 
L 312.925236 247.090466 
L 313.225982 247.089807 
L 313.376354 246.768232 
L 313.526727 246.143389 
L 313.827472 246.606716 
L 313.977845 246.330041 
L 314.128218 246.470357 
L 314.27859 246.303524 
L 314.428963 246.672796 
L 314.729708 246.753437 
L 314.880081 246.66825 
L 315.331199 247.441394 
L 315.932689 247.677911 
L 316.383807 247.578835 
L 316.53418 247.664734 
L 316.834925 247.966414 
L 317.286043 248.387921 
L 317.586788 248.469915 
L 317.887534 248.338564 
L 318.188279 248.643647 
L 318.489024 248.830883 
L 318.639397 248.773592 
L 318.940142 249.371349 
L 319.692006 249.669072 
L 319.842378 249.595641 
L 319.992751 249.653125 
L 320.293496 250.356855 
L 320.594241 250.32556 
L 321.045359 250.681478 
L 321.947595 251.484294 
L 322.097968 251.397482 
L 322.549086 252.228114 
L 323.000204 252.476309 
L 323.150576 252.574259 
L 323.451322 252.555284 
L 323.601694 252.2463 
L 324.203185 252.898629 
L 324.50393 253.093249 
L 324.654303 252.930301 
L 325.105421 253.394711 
L 325.255794 253.292296 
L 325.556539 253.560992 
L 325.857284 253.623901 
L 326.158029 253.637306 
L 326.308402 253.489423 
L 327.210638 254.217923 
L 327.361011 253.856412 
L 327.511383 254.065715 
L 327.661756 253.941283 
L 327.962501 254.234635 
L 328.112874 254.264168 
L 328.864737 255.029155 
L 329.01511 254.93144 
L 329.165482 254.974117 
L 329.466228 255.428064 
L 329.766973 255.641819 
L 330.067718 255.731771 
L 330.368464 256.089889 
L 330.518836 256.263095 
L 330.819581 256.227269 
L 331.571445 256.462824 
L 332.022563 256.64941 
L 333.225544 257.423277 
L 333.375916 257.584949 
L 333.526289 257.57482 
L 333.827034 257.988864 
L 333.977407 257.952137 
L 334.428525 258.360953 
L 335.030016 258.666363 
L 335.330761 258.966292 
L 335.631506 259.075619 
L 335.932251 258.432038 
L 336.082624 258.945693 
L 336.684115 259.320067 
L 337.435978 260.018096 
L 337.887096 260.326974 
L 338.338214 260.868638 
L 338.638959 260.810087 
L 338.939704 260.853791 
L 339.090077 260.947517 
L 339.390822 260.940151 
L 339.992313 261.099198 
L 340.142686 261.081953 
L 340.443431 261.165176 
L 340.593804 261.14908 
L 341.195294 261.628477 
L 341.646412 261.707436 
L 342.247903 261.861554 
L 343.150139 261.837793 
L 343.902002 262.141814 
L 344.95461 262.823442 
L 345.255356 263.059516 
L 345.706474 263.84205 
L 345.856846 264.138612 
L 346.157591 264.277496 
L 346.608709 264.614177 
L 346.759082 265.058355 
L 347.962063 265.633959 
L 348.112436 265.820124 
L 348.262809 265.738194 
L 348.563554 265.87966 
L 348.713926 265.82472 
L 349.616162 266.466207 
L 349.766535 266.454933 
L 350.368026 267.094724 
L 350.518398 267.287002 
L 350.668771 267.771491 
L 350.819144 267.839767 
L 351.119889 268.38249 
L 351.270261 268.353714 
L 351.571007 268.544749 
L 351.871752 268.478656 
L 352.022125 268.420765 
L 352.924361 269.08408 
L 353.074733 268.965053 
L 353.525851 269.221091 
L 353.976969 269.105276 
L 354.127342 269.133672 
L 354.277714 269.329503 
L 354.728832 270.399757 
L 354.879205 270.394283 
L 355.029578 270.615343 
L 355.17995 271.078661 
L 355.330323 271.027021 
L 355.480696 271.29815 
L 355.631068 271.338801 
L 355.781441 271.584331 
L 355.931814 271.491764 
L 356.082186 271.688847 
L 356.382931 271.566014 
L 356.533304 271.793891 
L 356.683677 271.696412 
L 356.834049 271.802507 
L 357.134795 272.224961 
L 357.43554 272.346383 
L 357.736285 272.370909 
L 358.037031 272.660268 
L 358.187403 272.619775 
L 358.488149 272.831123 
L 358.638521 272.814904 
L 358.788894 272.961482 
L 359.240012 273.658139 
L 359.540757 273.53036 
L 359.69113 273.586604 
L 359.841502 273.454493 
L 359.991875 273.68931 
L 360.29262 273.238713 
L 360.442993 273.162744 
L 360.593366 273.362983 
L 360.894111 273.304835 
L 361.345229 274.071597 
L 361.796347 274.360979 
L 361.946719 274.185431 
L 362.247465 274.701749 
L 362.397837 274.65656 
L 362.54821 274.856013 
L 362.999328 274.773748 
L 363.751191 275.03351 
L 364.8038 275.839748 
L 364.954172 275.818953 
L 365.254918 276.147932 
L 365.40529 276.202914 
L 365.706036 276.562208 
L 365.856408 276.667863 
L 366.157154 277.00833 
L 366.457899 277.072442 
L 366.608272 277.044489 
L 367.059389 277.377426 
L 367.209762 277.162794 
L 367.360135 277.54003 
L 367.510507 277.407899 
L 368.262371 277.819344 
L 369.014234 278.436657 
L 369.164607 278.406862 
L 369.465352 278.742653 
L 369.615724 279.076761 
L 369.766097 279.047239 
L 370.066842 279.313158 
L 370.367588 279.429384 
L 370.51796 279.67544 
L 370.818706 279.606564 
L 371.269824 279.897472 
L 371.570569 280.135385 
L 372.172059 280.42841 
L 372.472805 280.579038 
L 373.375041 281.179986 
L 373.826159 281.742486 
L 375.329885 283.200557 
L 375.63063 283.272276 
L 375.931376 283.579352 
L 376.532866 283.721259 
L 376.683239 283.741904 
L 376.833612 283.894432 
L 377.134357 283.87118 
L 377.88622 284.007031 
L 378.036593 283.980785 
L 378.186965 283.685117 
L 378.487711 283.820999 
L 379.089201 284.197043 
L 379.540319 284.229872 
L 379.841064 284.312377 
L 379.991437 284.63822 
L 380.14181 284.666729 
L 380.292182 284.487529 
L 380.893673 284.694559 
L 381.495164 284.687343 
L 382.848517 285.105084 
L 382.99889 285.102537 
L 383.149263 285.22656 
L 384.051499 285.174235 
L 384.352244 285.299897 
L 384.652989 285.488964 
L 384.803362 285.487125 
L 385.104107 285.689824 
L 385.25448 285.714584 
L 385.404852 285.969461 
L 385.555225 285.946491 
L 385.85597 286.262714 
L 386.156716 286.308372 
L 386.758206 286.722254 
L 387.058952 286.971532 
L 387.359697 287.337632 
L 388.11156 287.703633 
L 388.412305 288.508666 
L 388.713051 288.705247 
L 389.013796 288.79834 
L 389.314541 289.067432 
L 389.615287 289.414511 
L 389.916032 289.348977 
L 390.667895 289.769294 
L 390.96864 290.21721 
L 391.419758 290.226323 
L 391.570131 290.158494 
L 391.720504 290.690797 
L 391.870876 290.558088 
L 392.321994 290.899565 
L 392.472367 290.992855 
L 392.622739 290.740445 
L 392.773112 291.174558 
L 392.923485 291.179169 
L 393.675348 291.820877 
L 393.976093 291.898513 
L 394.878329 293.445797 
L 395.028702 293.539423 
L 395.179074 293.856578 
L 395.329447 293.69853 
L 395.47982 293.809469 
L 395.630192 293.226835 
L 396.08131 293.983606 
L 396.231683 293.936915 
L 396.382056 294.089126 
L 396.532428 294.037212 
L 396.983546 294.758936 
L 397.284292 294.959326 
L 397.585037 294.83625 
L 397.735409 295.022073 
L 397.885782 294.980791 
L 398.036155 295.330003 
L 398.3369 295.266634 
L 398.487273 295.488 
L 398.487273 295.488 
" clip-path="url(#pa199287950)" style="fill: none; stroke: #1f77b4; stroke-opacity: 0.7; stroke-width: 1.5; stroke-linecap: square"/>
   </g>
   <g id="line2d_15">
    <path d="M 73.832727 158.06224 
L 74.133473 157.737866 
L 74.283845 157.729892 
L 74.584591 157.398218 
L 75.186081 157.7798 
L 75.787572 157.768088 
L 76.088317 158.034115 
L 76.389062 158.212584 
L 76.539435 157.980305 
L 76.84018 158.096634 
L 77.140926 157.694009 
L 77.291298 157.709536 
L 77.592043 157.554822 
L 77.892789 157.696472 
L 78.193534 157.567669 
L 78.945397 157.308373 
L 79.246143 156.993633 
L 79.546888 156.869874 
L 79.697261 157.017111 
L 80.298751 156.685595 
L 80.900242 156.72312 
L 81.200987 156.682597 
L 81.652105 156.512971 
L 82.704713 156.129279 
L 82.855086 156.073844 
L 83.155831 156.269181 
L 83.306204 156.152067 
L 83.907695 156.295975 
L 84.20844 156.261505 
L 84.960303 156.372343 
L 85.261048 156.183089 
L 85.862539 156.198102 
L 86.163284 156.069446 
L 86.313657 156.153218 
L 86.46403 155.954288 
L 86.614402 155.968781 
L 86.764775 155.856009 
L 87.06552 155.910041 
L 87.516638 155.878406 
L 87.817383 155.940763 
L 88.118129 155.858267 
L 89.020365 155.567305 
L 89.32111 155.594526 
L 89.922601 155.510186 
L 93.681917 154.875265 
L 93.982662 154.84218 
L 95.486388 154.701622 
L 97.741978 154.985327 
L 98.042723 154.902055 
L 98.794587 154.925843 
L 99.095332 154.974989 
L 99.847195 154.964173 
L 99.997568 155.060648 
L 100.298313 154.904423 
L 100.749431 154.897926 
L 101.501294 154.722328 
L 101.80204 154.65414 
L 106.764337 154.221707 
L 107.215455 154.181019 
L 108.719181 154.124889 
L 109.170299 154.103556 
L 110.072535 154.018211 
L 111.726634 153.976339 
L 112.177752 153.909452 
L 113.531106 153.837714 
L 115.335578 153.72427 
L 116.839304 153.674699 
L 117.14005 153.549821 
L 118.944521 153.296215 
L 119.245267 153.409756 
L 119.546012 153.382123 
L 120.748993 153.314031 
L 121.951974 153.321366 
L 123.004583 153.305251 
L 123.455701 153.156085 
L 124.357937 153.217364 
L 126.012036 153.082838 
L 126.463154 153.098343 
L 128.417998 152.979518 
L 130.372843 152.94302 
L 135.184767 152.626209 
L 139.094456 152.547985 
L 139.545574 152.45922 
L 141.199673 152.300094 
L 142.101909 152.279199 
L 143.605636 152.329521 
L 143.756008 152.449455 
L 143.906381 152.355753 
L 144.056754 152.449279 
L 144.507871 152.244427 
L 144.808617 152.06582 
L 144.958989 152.21532 
L 145.410107 152.006329 
L 146.312343 152.058937 
L 146.913834 151.983378 
L 147.064206 152.01043 
L 147.515324 151.814214 
L 150.372405 151.90123 
L 150.67315 152.133137 
L 150.823523 151.715448 
L 150.973895 151.892647 
L 151.425013 151.458369 
L 151.575386 151.49362 
L 151.725759 151.665532 
L 152.026504 151.395667 
L 152.327249 151.441288 
L 152.627994 151.540719 
L 152.92874 151.307213 
L 153.079112 151.461778 
L 153.379858 151.209756 
L 153.53023 151.319557 
L 153.680603 151.007398 
L 154.131721 151.200755 
L 154.582839 151.082853 
L 155.033957 151.072578 
L 155.334702 151.053852 
L 155.936193 151.043153 
L 156.988801 151.182817 
L 157.740664 151.028067 
L 158.191782 150.744237 
L 159.394764 150.648994 
L 159.695509 150.571517 
L 159.996254 150.559294 
L 160.447372 150.393998 
L 160.89849 150.390692 
L 161.199235 150.347242 
L 163.003707 149.849599 
L 163.75557 149.685326 
L 164.056316 149.623764 
L 164.357061 149.337031 
L 164.657806 149.248082 
L 167.063769 148.93573 
L 167.514887 148.888696 
L 168.417122 148.765897 
L 168.717868 148.648418 
L 169.018613 148.889016 
L 169.168986 148.942561 
L 169.469731 148.807732 
L 170.221594 148.675248 
L 170.522339 148.607615 
L 171.274203 148.388795 
L 171.725321 148.233816 
L 173.680165 147.705269 
L 174.131283 147.731457 
L 174.883146 147.574319 
L 175.484637 147.574753 
L 176.386873 147.333086 
L 177.740227 147.239734 
L 179.845444 147.182617 
L 180.146189 147.140556 
L 180.747679 147.0675 
L 180.898052 147.032072 
L 181.048425 147.11882 
L 181.950661 146.872729 
L 184.807741 146.800052 
L 185.409232 146.752952 
L 186.161095 146.558862 
L 186.311467 146.604175 
L 186.612213 146.490201 
L 187.213703 146.429276 
L 187.815194 146.217317 
L 188.867802 146.248393 
L 189.168548 146.061475 
L 189.619666 145.947444 
L 189.770038 145.406955 
L 189.920411 145.495386 
L 190.371529 145.37057 
L 190.672274 145.369683 
L 190.822647 145.503977 
L 193.078237 144.925167 
L 193.8301 144.915561 
L 195.183454 144.605878 
L 195.484199 144.613047 
L 195.784944 144.578049 
L 196.837553 144.621696 
L 196.987925 144.776792 
L 197.739789 144.661291 
L 198.491652 144.427949 
L 198.792397 144.169556 
L 199.093142 144.234254 
L 199.243515 144.282833 
L 199.54426 144.166479 
L 199.995378 144.163215 
L 201.047987 143.881416 
L 201.348732 144.012109 
L 201.79985 143.932534 
L 201.950223 144.031298 
L 202.100595 143.889491 
L 202.551713 143.850384 
L 203.002831 143.796592 
L 206.91252 143.054154 
L 207.363638 142.927179 
L 207.664383 142.903909 
L 209.468855 142.574275 
L 210.220718 142.52792 
L 210.371091 142.707533 
L 210.972582 142.517818 
L 211.122954 142.535793 
L 211.273327 142.336634 
L 212.02519 142.323226 
L 212.476308 142.300632 
L 212.777053 142.204824 
L 213.980035 142.201376 
L 214.28078 142.168948 
L 215.634134 142.132202 
L 215.784506 142.203714 
L 216.53637 141.803807 
L 216.686742 141.854917 
L 216.987487 141.783064 
L 218.491214 141.554139 
L 219.092705 141.229396 
L 219.543822 141.288254 
L 222.701648 140.829869 
L 223.152766 140.878259 
L 223.303139 141.017861 
L 225.408356 140.81259 
L 225.558728 141.043111 
L 225.709101 140.984775 
L 225.859474 140.783637 
L 226.009846 140.876997 
L 226.310592 140.756326 
L 226.76171 140.881432 
L 227.062455 140.721987 
L 227.513573 140.932158 
L 227.663945 140.869512 
L 227.814318 140.964314 
L 228.566181 140.662261 
L 228.716554 140.352661 
L 228.866927 140.33165 
L 229.318045 140.738716 
L 229.468417 140.530114 
L 229.769162 140.69743 
L 229.919535 140.561258 
L 230.22028 140.673009 
L 230.370653 140.608166 
L 230.521026 140.397827 
L 230.671398 140.408051 
L 230.972144 140.269584 
L 231.272889 140.39316 
L 231.573634 140.430971 
L 231.87438 140.914336 
L 232.175125 141.019848 
L 232.47587 140.693508 
L 232.626243 140.769584 
L 232.776615 140.596095 
L 233.077361 140.703509 
L 233.227733 140.903331 
L 233.378106 140.735485 
L 233.979597 140.796884 
L 234.129969 140.76273 
L 234.280342 141.22887 
L 234.430715 141.213696 
L 234.581087 140.909039 
L 235.182578 141.620912 
L 235.483323 140.813367 
L 235.784068 139.697832 
L 236.084814 140.530439 
L 236.385559 139.677442 
L 236.836677 139.572676 
L 236.98705 139.283744 
L 237.137422 138.551563 
L 237.287795 138.815162 
L 237.438168 138.651766 
L 237.58854 138.699406 
L 237.738913 138.490682 
L 237.889285 138.566951 
L 238.039658 138.12849 
L 238.190031 138.449744 
L 238.490776 138.340986 
L 238.641149 138.24361 
L 238.791521 138.288938 
L 239.092267 138.700679 
L 239.393012 138.287069 
L 239.543385 138.296383 
L 239.693757 138.0102 
L 239.84413 139.189812 
L 239.994503 138.874029 
L 240.144875 138.247729 
L 240.295248 138.428602 
L 240.896738 136.845363 
L 241.047111 136.768868 
L 241.197484 136.864375 
L 241.347856 136.303567 
L 241.498229 136.622562 
L 241.798974 136.179732 
L 242.09972 134.054015 
L 242.250092 134.131289 
L 242.550838 133.424603 
L 242.70121 133.504241 
L 242.851583 133.401361 
L 243.001955 134.133615 
L 243.152328 133.721658 
L 243.302701 134.166061 
L 243.453073 133.681627 
L 243.753819 133.60457 
L 243.904191 133.764275 
L 244.054564 133.673404 
L 244.204937 133.855395 
L 244.355309 133.646244 
L 244.505682 133.639155 
L 244.656055 133.257394 
L 244.806427 133.629441 
L 245.107173 132.09496 
L 245.407918 132.410531 
L 245.55829 131.965517 
L 245.708663 131.892238 
L 245.859036 131.438071 
L 246.009408 131.587306 
L 246.159781 131.138748 
L 246.310154 131.112506 
L 246.610899 130.486581 
L 246.761272 131.068798 
L 247.062017 130.929935 
L 247.362762 131.310877 
L 247.663508 131.090485 
L 247.81388 131.113315 
L 247.964253 130.745949 
L 248.114625 130.814728 
L 248.264998 130.712258 
L 248.415371 130.416099 
L 248.565743 129.782398 
L 248.716116 129.902357 
L 248.866489 129.678155 
L 249.016861 129.864375 
L 249.317607 129.628595 
L 249.467979 130.290923 
L 249.919097 129.181993 
L 250.06947 129.075203 
L 250.219843 128.247685 
L 250.370215 128.133264 
L 250.520588 128.320452 
L 250.821333 127.528822 
L 251.122078 127.290945 
L 251.272451 127.075843 
L 251.422824 127.951948 
L 251.573196 128.017119 
L 251.723569 127.942177 
L 251.873942 127.479449 
L 252.024314 127.980365 
L 252.174687 127.889035 
L 252.625805 126.476907 
L 252.776178 126.958156 
L 252.92655 126.614855 
L 253.076923 126.837329 
L 253.227295 126.829117 
L 253.528041 125.713363 
L 253.678413 125.819314 
L 253.828786 124.326444 
L 254.129531 124.161225 
L 254.279904 123.479968 
L 254.430277 123.444325 
L 254.881395 121.844576 
L 255.031767 122.387107 
L 255.332513 121.565992 
L 255.482885 121.097024 
L 255.633258 121.753477 
L 255.78363 121.666851 
L 255.934003 121.785689 
L 256.385121 120.705813 
L 256.535494 120.657594 
L 256.685866 120.875522 
L 256.836239 120.589501 
L 257.136984 120.707127 
L 257.43773 119.56488 
L 257.588102 119.383085 
L 257.738475 118.852597 
L 257.888848 118.764194 
L 258.03922 119.310185 
L 258.490338 118.615104 
L 258.640711 119.065656 
L 258.791083 119.075982 
L 258.941456 118.954388 
L 259.392574 117.904661 
L 259.693319 117.727449 
L 259.843692 117.055182 
L 260.29481 116.586556 
L 260.595555 115.7743 
L 260.745928 116.182019 
L 260.8963 115.969549 
L 261.046673 116.085042 
L 261.347418 115.27805 
L 261.648164 115.032876 
L 261.798536 115.165257 
L 262.099282 114.425938 
L 262.249654 114.301208 
L 262.5504 113.872883 
L 263.603008 113.217527 
L 263.903753 113.231364 
L 264.204499 112.828232 
L 264.354871 113.295938 
L 264.655617 113.361308 
L 264.956362 113.580488 
L 265.257107 114.166935 
L 265.40748 114.164161 
L 265.557853 113.988718 
L 265.708225 114.253086 
L 266.309716 113.058733 
L 266.760834 113.472459 
L 266.911206 113.58498 
L 267.061579 113.306275 
L 267.211952 113.64762 
L 267.66307 112.801369 
L 267.813442 113.284821 
L 268.414933 112.101053 
L 268.565305 112.13435 
L 268.866051 112.579079 
L 269.166796 112.299483 
L 269.317169 112.19574 
L 269.467541 111.753946 
L 269.617914 111.922507 
L 269.768287 111.418349 
L 269.918659 111.746889 
L 270.069032 111.787631 
L 270.219405 111.661187 
L 270.369777 111.258758 
L 270.52015 111.289438 
L 270.670523 111.577041 
L 271.12164 111.446337 
L 271.272013 111.609953 
L 271.422386 111.590037 
L 271.572758 110.43005 
L 271.873504 110.702359 
L 272.174249 110.056923 
L 272.324622 110.08313 
L 272.474994 109.675428 
L 272.625367 109.801558 
L 272.77574 109.762031 
L 273.076485 109.49269 
L 273.226858 109.508101 
L 273.37723 109.091149 
L 273.677975 107.643848 
L 273.828348 107.955708 
L 273.978721 107.996233 
L 274.279466 107.327459 
L 274.429839 107.369009 
L 274.880957 107.066022 
L 275.031329 107.366709 
L 275.181702 107.972939 
L 275.332075 107.593928 
L 275.63282 107.58819 
L 275.783193 107.88158 
L 275.933565 108.461172 
L 276.23431 107.729886 
L 276.535056 107.581002 
L 276.685428 108.042137 
L 276.835801 107.593095 
L 276.986174 107.691682 
L 277.136546 107.519814 
L 277.286919 108.165695 
L 277.587664 107.697553 
L 277.738037 107.549871 
L 278.038782 107.8009 
L 278.339528 106.592473 
L 278.4899 106.635268 
L 278.640273 106.403519 
L 278.790646 106.880344 
L 279.091391 105.729086 
L 279.392136 106.194364 
L 279.542509 105.907575 
L 279.843254 105.811351 
L 279.993627 106.205294 
L 280.143999 106.085023 
L 280.294372 105.629849 
L 280.444745 105.793053 
L 280.595117 105.755925 
L 280.74549 106.023005 
L 280.895863 106.625489 
L 281.046235 106.38047 
L 281.196608 105.743675 
L 281.798098 105.474754 
L 282.098844 104.011428 
L 282.249216 104.024994 
L 282.399589 103.265198 
L 282.700334 103.644119 
L 282.850707 103.406213 
L 283.00108 102.715738 
L 283.151452 102.735784 
L 283.301825 102.308089 
L 283.452198 102.4505 
L 283.60257 101.608418 
L 283.903316 101.763089 
L 284.504806 101.068653 
L 284.955924 99.476108 
L 285.106297 99.580032 
L 285.407042 99.396678 
L 285.707787 98.52052 
L 285.85816 98.852006 
L 286.008533 98.767712 
L 286.309278 97.814863 
L 286.459651 98.305053 
L 286.610023 98.143647 
L 286.760396 97.740518 
L 286.910768 97.773136 
L 287.211514 97.43589 
L 287.361886 97.624902 
L 287.512259 97.367768 
L 287.662632 97.635218 
L 287.813004 97.538642 
L 288.11375 97.183076 
L 288.264122 97.03869 
L 288.564868 95.962833 
L 288.71524 95.904792 
L 288.865613 95.619941 
L 289.015986 96.14838 
L 289.467103 95.705186 
L 289.767849 95.099042 
L 289.918221 94.84298 
L 290.670085 95.190171 
L 290.97083 94.815211 
L 291.271575 94.883864 
L 291.421948 94.650748 
L 291.722693 94.515845 
L 291.873066 94.437165 
L 292.173811 93.241871 
L 292.474556 93.34305 
L 292.775302 93.261288 
L 292.925674 93.137169 
L 293.22642 93.216211 
L 293.978283 92.442553 
L 294.128656 93.118106 
L 294.429401 92.89811 
L 294.579773 92.979918 
L 295.632382 91.786602 
L 295.782755 91.976579 
L 295.933127 91.648572 
L 296.233873 90.623373 
L 296.384245 90.707665 
L 296.684991 90.07004 
L 296.835363 90.188639 
L 296.985736 89.824922 
L 297.286481 89.975958 
L 297.436854 89.870677 
L 297.587226 89.450189 
L 297.737599 90.341302 
L 297.887972 90.305525 
L 298.188717 89.564409 
L 298.33909 88.84319 
L 298.94058 88.250868 
L 299.090953 88.826324 
L 299.391698 88.087929 
L 299.542071 87.983331 
L 299.692443 87.653712 
L 299.842816 87.934334 
L 299.993189 87.963379 
L 300.143561 88.191333 
L 300.444307 88.02796 
L 300.594679 87.970302 
L 300.745052 87.708567 
L 301.19617 87.694999 
L 301.346543 87.908583 
L 301.647288 87.804188 
L 301.797661 88.301464 
L 302.248778 87.880608 
L 302.699896 87.124873 
L 302.850269 87.23569 
L 303.151014 87.00879 
L 303.301387 86.583932 
L 303.45176 86.675673 
L 303.602132 86.404435 
L 303.752505 86.439799 
L 303.902878 86.325015 
L 304.05325 85.791364 
L 304.353996 85.947306 
L 304.504368 85.657928 
L 304.654741 85.709896 
L 304.955486 85.311245 
L 305.105859 85.54772 
L 305.256231 85.530768 
L 305.556977 85.081937 
L 305.857722 84.735015 
L 306.008095 84.783373 
L 306.158467 85.024396 
L 306.30884 84.532269 
L 306.609585 84.769446 
L 306.910331 84.353204 
L 307.060703 84.500462 
L 307.361448 84.27675 
L 307.511821 84.588575 
L 307.812566 83.688524 
L 307.962939 83.604543 
L 308.113312 83.280719 
L 308.263684 82.526011 
L 308.414057 82.558611 
L 308.714802 82.102171 
L 309.015548 82.092295 
L 309.16592 82.36461 
L 309.617038 81.601009 
L 309.767411 81.697161 
L 310.068156 81.160352 
L 310.218529 81.053576 
L 310.519274 80.745401 
L 311.120765 79.946878 
L 311.271137 80.039909 
L 311.42151 80.335742 
L 311.571883 80.188018 
L 311.722255 79.678765 
L 311.872628 79.64525 
L 312.173373 79.335497 
L 312.323746 79.25441 
L 312.474118 79.355929 
L 313.075609 78.651957 
L 313.376354 78.155534 
L 313.6771 77.160144 
L 313.827472 77.082482 
L 314.128218 76.475376 
L 314.27859 76.333596 
L 314.729708 76.710026 
L 314.880081 76.472085 
L 315.030453 76.525157 
L 315.631944 76.123081 
L 315.782317 75.885536 
L 316.083062 75.732805 
L 316.53418 75.300732 
L 316.684553 75.415557 
L 316.985298 75.38448 
L 317.135671 75.518462 
L 317.436416 75.375757 
L 317.887534 74.904963 
L 318.188279 75.131972 
L 318.489024 75.151397 
L 318.639397 75.091236 
L 318.78977 75.372963 
L 318.940142 75.409921 
L 319.992751 74.748338 
L 320.293496 75.107001 
L 322.398713 74.099196 
L 322.699459 74.056535 
L 323.300949 73.825022 
L 323.451322 73.774385 
L 323.601694 73.369596 
L 323.90244 73.370891 
L 324.203185 73.31272 
L 324.50393 73.345437 
L 324.804676 72.976986 
L 324.955048 72.824308 
L 325.105421 72.943898 
L 325.406166 72.729631 
L 326.458775 72.091295 
L 326.609147 72.109765 
L 326.75952 72.349837 
L 327.210638 72.194542 
L 327.361011 71.710298 
L 327.661756 71.637209 
L 328.714364 71.124433 
L 330.368464 70.297891 
L 330.518836 70.319941 
L 330.819581 70.043907 
L 331.421072 69.585913 
L 331.721817 69.520469 
L 332.022563 69.496225 
L 332.323308 69.517774 
L 332.624053 69.474124 
L 332.924799 69.369354 
L 333.375916 69.432943 
L 333.526289 69.331986 
L 333.827034 69.524152 
L 334.12778 69.388262 
L 334.578898 69.226432 
L 335.631506 68.848348 
L 335.932251 67.916883 
L 336.082624 68.221594 
L 336.533742 67.862248 
L 336.834487 67.953938 
L 337.135233 67.828904 
L 337.586351 67.784664 
L 337.736723 67.677614 
L 338.037469 67.811438 
L 338.939704 67.498077 
L 339.090077 67.6099 
L 339.541195 67.529631 
L 341.345667 67.260411 
L 341.496039 67.116707 
L 341.796785 67.132067 
L 341.947157 67.09614 
L 342.247903 67.159061 
L 344.202747 66.906111 
L 344.653865 66.900739 
L 345.104983 66.868027 
L 345.405728 66.945603 
L 345.856846 67.258378 
L 346.157591 67.086769 
L 346.608709 66.906312 
L 346.759082 67.153654 
L 347.962063 66.782563 
L 348.112436 66.917177 
L 348.262809 66.6961 
L 348.864299 66.702832 
L 349.315417 66.426916 
L 349.616162 66.382234 
L 349.766535 66.133886 
L 350.518398 66.036636 
L 350.668771 66.381001 
L 350.819144 66.209192 
L 350.969516 66.332232 
L 351.270261 66.161998 
L 351.420634 66.18644 
L 351.721379 65.940477 
L 352.172497 65.700389 
L 352.924361 65.708476 
L 353.074733 65.49121 
L 353.676224 65.540558 
L 353.826596 65.471584 
L 354.127342 65.214103 
L 354.277714 65.247919 
L 354.728832 65.735715 
L 354.879205 65.639345 
L 355.029578 65.732746 
L 355.17995 66.086667 
L 355.330323 65.883168 
L 355.480696 65.960607 
L 355.931814 65.571649 
L 356.082186 65.749262 
L 356.382931 65.443407 
L 356.533304 65.500925 
L 356.834049 65.248112 
L 356.984422 65.428007 
L 357.134795 65.28232 
L 357.43554 65.265185 
L 357.736285 65.14014 
L 358.037031 65.165227 
L 358.488149 64.984161 
L 358.939266 65.434292 
L 359.69113 65.123532 
L 359.841502 64.899526 
L 359.991875 65.068894 
L 360.29262 64.606143 
L 360.442993 64.384267 
L 360.593366 64.453685 
L 360.894111 64.309208 
L 361.345229 64.482652 
L 361.796347 64.233591 
L 361.946719 64.046607 
L 362.247465 64.300576 
L 362.397837 64.229055 
L 362.54821 64.29532 
L 362.999328 64.031094 
L 363.300073 64.042295 
L 363.600819 63.763425 
L 363.901564 63.783034 
L 364.202309 63.734834 
L 364.503054 63.586289 
L 364.653427 63.503849 
L 364.8038 63.602425 
L 365.104545 63.418526 
L 365.254918 63.44029 
L 365.40529 63.154786 
L 366.157154 62.93006 
L 367.209762 62.002163 
L 367.360135 62.211204 
L 367.66088 61.864515 
L 368.713489 61.198798 
L 368.863861 61.273328 
L 369.164607 61.05843 
L 369.465352 61.34438 
L 369.615724 61.537327 
L 369.766097 61.356572 
L 369.91647 61.414393 
L 370.818706 61.028476 
L 371.119451 60.983215 
L 371.269824 60.893391 
L 371.420196 60.936314 
L 371.871314 60.646434 
L 372.021687 60.737155 
L 372.472805 60.676942 
L 372.923923 60.811394 
L 373.224668 60.519549 
L 373.525413 60.498035 
L 373.675786 60.397029 
L 373.976531 60.3556 
L 375.63063 59.87393 
L 375.781003 59.93733 
L 375.931376 59.779833 
L 376.232121 59.753572 
L 376.683239 59.689825 
L 376.833612 59.772779 
L 377.284729 59.544819 
L 377.88622 59.423142 
L 378.036593 59.353076 
L 378.337338 58.845903 
L 379.239574 58.65038 
L 379.841064 58.515071 
L 379.991437 58.786013 
L 380.14181 58.642163 
L 380.292182 58.343246 
L 381.044046 58.18521 
L 381.795909 58.078829 
L 381.946282 57.91171 
L 382.397399 58.17394 
L 382.848517 58.083399 
L 384.352244 57.54765 
L 384.502617 57.601136 
L 384.803362 57.487941 
L 384.953734 57.577403 
L 385.25448 57.40001 
L 385.404852 57.410075 
L 385.555225 57.294852 
L 385.85597 57.348604 
L 386.307088 57.135259 
L 386.607834 56.997747 
L 387.058952 57.033294 
L 387.209324 57.232234 
L 387.660442 57.076605 
L 387.810815 57.173502 
L 388.11156 57.017791 
L 388.261933 57.465884 
L 388.562678 57.308062 
L 388.863423 56.897562 
L 389.464914 56.465285 
L 389.615287 56.420202 
L 389.916032 56.071126 
L 390.667895 55.893535 
L 390.96864 56.048013 
L 391.570131 55.44821 
L 391.720504 55.861102 
L 391.870876 55.419335 
L 392.171622 55.356694 
L 392.321994 55.539637 
L 392.472367 55.474034 
L 392.622739 55.140021 
L 392.773112 55.340921 
L 393.073857 55.346092 
L 393.524975 55.191195 
L 393.976093 54.928649 
L 394.577584 55.496933 
L 394.727957 55.72016 
L 395.179074 55.185911 
L 395.329447 54.965461 
L 395.47982 54.954503 
L 395.630192 54.396427 
L 395.780565 54.432139 
L 395.930938 54.658272 
L 396.08131 54.564721 
L 396.231683 54.272653 
L 396.382056 54.276297 
L 396.532428 54.051309 
L 396.682801 54.315804 
L 396.833174 54.221213 
L 396.983546 54.33494 
L 397.585037 53.757898 
L 397.735409 54.039136 
L 397.885782 53.796926 
L 398.036155 53.873738 
L 398.3369 53.568 
L 398.487273 53.616486 
L 398.487273 53.616486 
" clip-path="url(#pa199287950)" style="fill: none; stroke: #ff7f0e; stroke-opacity: 0.7; stroke-width: 1.5; stroke-linecap: square"/>
   </g>
   <g id="line2d_16">
    <path d="M 73.832727 158.042095 
L 74.133473 157.821925 
L 74.283845 157.87297 
L 74.584591 157.577315 
L 74.885336 157.81297 
L 75.186081 158.033091 
L 75.486826 158.042515 
L 75.637199 158.256189 
L 75.787572 158.218597 
L 76.088317 158.596169 
L 76.389062 158.809509 
L 76.539435 158.662438 
L 76.84018 158.827052 
L 77.140926 158.509558 
L 77.291298 158.59085 
L 77.592043 158.496197 
L 77.892789 158.765673 
L 78.043161 158.700775 
L 78.644652 158.882517 
L 78.945397 158.725622 
L 79.246143 158.510537 
L 79.998006 158.623887 
L 80.148378 158.477423 
L 80.749869 158.608424 
L 81.050614 158.839255 
L 81.802478 158.848348 
L 82.103223 158.699201 
L 82.253596 158.716408 
L 82.554341 158.565742 
L 84.358813 158.846721 
L 84.509185 159.033216 
L 85.261048 158.999049 
L 85.862539 159.208547 
L 86.163284 159.175952 
L 86.313657 159.300091 
L 86.46403 159.167219 
L 86.614402 159.227956 
L 86.764775 159.156021 
L 87.06552 159.239055 
L 87.516638 159.244533 
L 87.667011 159.379835 
L 89.020365 159.279489 
L 89.32111 159.336695 
L 89.772228 159.294297 
L 90.373718 159.465962 
L 91.125582 159.414748 
L 92.328563 159.485366 
L 94.133035 159.304777 
L 95.035271 159.380663 
L 95.185643 159.268527 
L 96.68937 159.559414 
L 97.29086 159.634978 
L 97.741978 159.719182 
L 98.042723 159.697214 
L 98.644214 159.745287 
L 99.095332 159.950532 
L 99.847195 160.066111 
L 99.997568 160.212706 
L 100.448686 160.180801 
L 101.501294 160.186601 
L 101.80204 160.142418 
L 103.155393 160.169024 
L 104.809493 160.293041 
L 105.711728 160.289031 
L 106.313219 160.413279 
L 106.613964 160.280724 
L 107.365828 160.244997 
L 114.734087 161.009618 
L 115.485951 161.130617 
L 116.839304 161.385688 
L 117.14005 161.279222 
L 118.944521 161.274104 
L 119.245267 161.423749 
L 119.546012 161.433333 
L 121.200111 161.453463 
L 121.651229 161.420167 
L 124.959427 161.716173 
L 126.012036 161.717256 
L 126.613526 161.761451 
L 129.019489 161.927591 
L 129.771352 161.956898 
L 130.22247 162.058069 
L 130.823961 162.108242 
L 137.59073 162.929949 
L 138.793711 163.224779 
L 140.598183 163.218586 
L 142.402654 163.415161 
L 143.004145 163.50394 
L 143.605636 163.664151 
L 143.756008 163.810936 
L 143.906381 163.77299 
L 144.207126 163.915555 
L 144.507871 163.832517 
L 144.808617 163.730217 
L 144.958989 163.904243 
L 145.410107 163.767667 
L 146.462716 163.933617 
L 146.763461 163.927041 
L 147.515324 163.851365 
L 150.372405 164.413985 
L 150.67315 164.706322 
L 150.823523 164.337029 
L 150.973895 164.551073 
L 151.575386 164.254301 
L 151.725759 164.453637 
L 152.026504 164.251489 
L 152.778367 164.394428 
L 152.92874 164.282049 
L 153.079112 164.419229 
L 153.830976 164.122753 
L 153.981348 164.3155 
L 154.282094 164.317361 
L 156.537683 164.427821 
L 156.688056 164.577172 
L 156.838429 164.527325 
L 157.139174 164.640875 
L 157.740664 164.647644 
L 158.04141 164.444981 
L 158.342155 164.56993 
L 158.6429 164.644712 
L 158.793273 164.768753 
L 159.695509 164.70859 
L 159.996254 164.757151 
L 160.597745 164.626892 
L 160.89849 164.692429 
L 161.349608 164.648891 
L 162.101471 164.445217 
L 163.15408 164.339704 
L 164.056316 164.259072 
L 164.206688 164.052548 
L 166.311905 163.989694 
L 166.612651 164.052637 
L 166.913396 163.993088 
L 167.815632 163.964608 
L 168.717868 163.882114 
L 169.018613 164.189296 
L 169.319358 164.168814 
L 170.371967 164.217713 
L 171.12383 164.092212 
L 171.424575 164.059967 
L 171.875693 164.025873 
L 173.37942 163.752118 
L 174.281656 163.845379 
L 177.439481 163.710273 
L 177.589854 163.769193 
L 178.040972 163.694986 
L 179.243953 163.665131 
L 179.995816 163.85423 
L 180.747679 163.810611 
L 180.898052 163.7948 
L 181.048425 163.910829 
L 182.101033 163.816855 
L 183.304014 163.90994 
L 183.755132 163.953571 
L 185.258859 164.100273 
L 185.709977 164.084159 
L 186.010722 164.020578 
L 186.612213 163.95681 
L 187.213703 163.976203 
L 187.965567 163.867603 
L 189.018175 163.990213 
L 189.31892 163.841358 
L 189.619666 163.840734 
L 189.770038 163.324136 
L 189.920411 163.477963 
L 190.371529 163.513674 
L 191.123392 163.762695 
L 191.273765 163.671037 
L 191.57451 163.785947 
L 192.777491 163.635242 
L 193.980472 163.742501 
L 194.281218 163.639667 
L 194.732336 163.61726 
L 194.882708 163.574281 
L 195.333826 163.693077 
L 195.935317 163.657869 
L 196.386435 163.785696 
L 196.837553 163.844406 
L 196.987925 164.0159 
L 197.288671 164.012437 
L 197.739789 164.005913 
L 198.491652 163.990842 
L 198.792397 163.809155 
L 199.995378 164.009408 
L 200.747242 163.866988 
L 201.950223 164.107249 
L 202.250968 164.010922 
L 202.852459 164.111411 
L 203.754695 164.24766 
L 204.65693 164.415433 
L 205.108048 164.533148 
L 206.160657 164.405168 
L 208.566619 164.337747 
L 209.619228 164.352142 
L 210.220718 164.384527 
L 210.371091 164.567242 
L 210.822209 164.596243 
L 211.122954 164.678975 
L 211.273327 164.529531 
L 211.874817 164.771599 
L 212.325935 164.755173 
L 212.626681 164.747624 
L 213.528917 164.959416 
L 213.829662 164.904412 
L 215.634134 165.240602 
L 215.784506 165.33303 
L 216.235624 165.117988 
L 216.53637 165.122826 
L 216.837115 165.108349 
L 217.438605 165.140876 
L 217.739351 165.17563 
L 218.491214 165.144276 
L 219.092705 164.942512 
L 219.39345 165.027756 
L 220.145313 164.993774 
L 220.596431 164.918837 
L 221.197922 164.918089 
L 223.152766 165.093278 
L 223.453511 165.29315 
L 224.055002 165.247237 
L 224.205375 165.368688 
L 224.50612 165.305922 
L 225.408356 165.52558 
L 225.558728 165.786752 
L 225.709101 165.759956 
L 225.859474 165.618473 
L 226.160219 165.738636 
L 226.310592 165.719046 
L 226.76171 165.971323 
L 227.062455 165.91297 
L 227.513573 166.226645 
L 227.663945 166.220019 
L 227.814318 166.348294 
L 228.566181 166.251005 
L 228.716554 165.968556 
L 228.866927 165.925031 
L 229.318045 166.330327 
L 229.468417 166.165787 
L 229.769162 166.275238 
L 229.919535 166.143837 
L 230.22028 166.287634 
L 230.972144 166.007932 
L 231.272889 166.201673 
L 231.573634 166.202006 
L 231.87438 166.751321 
L 232.325497 166.837613 
L 232.47587 166.660196 
L 232.626243 166.840587 
L 232.776615 166.716247 
L 233.077361 166.902712 
L 233.227733 167.14603 
L 233.378106 167.055825 
L 233.829224 167.455918 
L 234.129969 167.429561 
L 234.280342 167.919149 
L 234.430715 167.986764 
L 234.581087 167.783914 
L 235.182578 168.961498 
L 235.33295 168.768866 
L 235.784068 167.459282 
L 236.084814 168.36656 
L 236.385559 167.706768 
L 236.535932 167.665686 
L 236.686304 167.796348 
L 236.98705 167.528357 
L 237.137422 166.771104 
L 237.287795 167.118853 
L 237.438168 166.96381 
L 237.58854 167.027872 
L 237.738913 166.936834 
L 237.889285 167.027254 
L 238.039658 166.605734 
L 238.190031 167.050509 
L 238.490776 167.102491 
L 238.641149 167.054498 
L 238.791521 167.169616 
L 239.092267 167.791232 
L 239.242639 167.587613 
L 239.543385 167.792311 
L 239.693757 167.650489 
L 239.84413 168.876258 
L 239.994503 168.716778 
L 240.144875 168.304186 
L 240.295248 168.678128 
L 240.595993 168.078214 
L 240.746366 168.04574 
L 240.896738 167.72579 
L 241.047111 167.817641 
L 241.197484 168.055095 
L 241.347856 167.763265 
L 241.498229 168.228804 
L 241.648602 168.007451 
L 241.798974 168.024581 
L 242.09972 166.198462 
L 242.250092 166.353696 
L 242.550838 165.769835 
L 242.70121 165.70604 
L 242.851583 165.5094 
L 243.001955 166.300195 
L 243.152328 166.004597 
L 243.302701 166.425646 
L 243.453073 166.038645 
L 243.753819 166.070384 
L 244.204937 166.774684 
L 244.355309 166.801966 
L 244.505682 166.963282 
L 244.656055 166.72898 
L 244.806427 167.326122 
L 245.107173 165.860789 
L 245.257545 166.046603 
L 245.407918 166.017725 
L 246.009408 165.022382 
L 246.159781 164.446748 
L 246.310154 164.425287 
L 246.610899 163.995137 
L 246.761272 164.608044 
L 246.911644 164.513809 
L 247.062017 164.574485 
L 247.362762 164.999807 
L 247.663508 164.819895 
L 247.81388 164.864893 
L 247.964253 164.521643 
L 248.114625 164.777454 
L 248.264998 164.678154 
L 248.565743 163.997657 
L 248.716116 164.409421 
L 248.866489 164.320273 
L 249.016861 164.626777 
L 249.317607 164.51115 
L 249.467979 165.21514 
L 250.06947 163.844902 
L 250.219843 163.012399 
L 250.370215 162.927167 
L 250.520588 163.173557 
L 250.821333 162.513736 
L 251.122078 162.423464 
L 251.272451 162.315578 
L 251.422824 163.343305 
L 251.723569 163.360117 
L 251.873942 162.796644 
L 252.024314 163.375036 
L 252.174687 163.352096 
L 252.32506 162.982769 
L 252.475432 162.961251 
L 252.625805 162.222232 
L 252.776178 162.920059 
L 252.92655 162.705754 
L 253.227295 163.07936 
L 253.377668 162.810829 
L 253.528041 162.272381 
L 253.678413 162.51323 
L 253.828786 161.233697 
L 254.129531 161.553992 
L 254.279904 161.09786 
L 254.430277 161.264078 
L 254.580649 160.95551 
L 254.731022 160.999647 
L 254.881395 160.232409 
L 255.031767 161.035601 
L 255.18214 160.623009 
L 255.332513 160.773804 
L 255.482885 160.50739 
L 255.633258 161.382692 
L 255.78363 161.50556 
L 255.934003 161.81035 
L 256.084376 161.748876 
L 256.234748 161.397933 
L 256.385121 161.379467 
L 256.535494 161.540751 
L 256.685866 161.949139 
L 256.836239 161.712918 
L 257.136984 162.023504 
L 257.43773 161.190422 
L 257.588102 161.076489 
L 257.738475 160.680724 
L 257.888848 160.648314 
L 258.03922 161.376235 
L 258.339965 161.5224 
L 258.490338 161.293931 
L 258.640711 161.855962 
L 258.941456 162.00153 
L 259.091829 161.703769 
L 259.242201 161.76994 
L 259.542947 161.45343 
L 259.693319 161.524378 
L 259.843692 160.954923 
L 259.994065 161.007782 
L 260.144437 161.283877 
L 260.29481 161.201165 
L 260.445183 160.674931 
L 260.595555 160.723902 
L 260.745928 161.391247 
L 260.8963 161.291963 
L 261.046673 161.570799 
L 261.497791 161.256722 
L 261.798536 161.442799 
L 261.948909 161.17579 
L 262.249654 161.031858 
L 262.400027 160.815239 
L 262.700772 160.888998 
L 262.851145 160.936722 
L 263.001518 160.711803 
L 263.302263 160.716516 
L 263.603008 160.787313 
L 263.903753 160.893185 
L 264.204499 160.622062 
L 264.354871 161.079776 
L 264.655617 161.342526 
L 264.956362 161.709384 
L 265.40748 162.565171 
L 265.557853 162.530984 
L 265.708225 162.84855 
L 266.309716 162.194776 
L 266.911206 163.240691 
L 267.061579 163.117283 
L 267.211952 163.554618 
L 267.362324 163.316271 
L 267.512697 163.372586 
L 267.66307 163.248372 
L 267.813442 163.899097 
L 268.414933 163.118417 
L 268.565305 163.187154 
L 268.866051 163.864308 
L 269.016423 163.773511 
L 269.317169 163.878401 
L 269.467541 163.58163 
L 269.617914 163.867606 
L 269.768287 163.425585 
L 270.069032 163.933252 
L 270.219405 163.888033 
L 270.369777 163.661526 
L 270.52015 163.797343 
L 270.820895 164.346116 
L 271.422386 165.075978 
L 271.572758 164.081647 
L 271.873504 164.273316 
L 272.023876 163.94931 
L 272.174249 163.890688 
L 272.324622 164.098842 
L 272.474994 163.701318 
L 272.77574 164.185155 
L 273.076485 164.005424 
L 273.226858 164.187881 
L 273.37723 164.024276 
L 273.527603 163.203612 
L 273.677975 163.025357 
L 273.978721 163.8336 
L 274.129093 163.548169 
L 274.279466 163.559581 
L 274.580211 163.689907 
L 274.730584 163.624321 
L 274.880957 163.782765 
L 275.031329 164.108556 
L 275.181702 164.767999 
L 275.332075 164.63284 
L 275.63282 164.98826 
L 275.933565 166.021198 
L 276.083938 165.63247 
L 276.23431 165.659727 
L 276.535056 165.914093 
L 276.685428 166.510529 
L 276.835801 166.073344 
L 277.136546 166.462328 
L 277.286919 167.255575 
L 277.437292 167.039449 
L 277.738037 167.03348 
L 278.038782 167.747914 
L 278.339528 166.731112 
L 278.790646 167.421641 
L 279.091391 166.556823 
L 279.392136 167.36142 
L 279.542509 167.098666 
L 279.843254 167.028227 
L 279.993627 167.474034 
L 280.143999 167.228069 
L 280.294372 166.679369 
L 280.595117 166.876892 
L 280.74549 167.21353 
L 280.895863 167.994424 
L 281.046235 167.885312 
L 281.196608 167.297276 
L 281.346981 167.363297 
L 281.647726 167.185446 
L 281.798098 167.304572 
L 282.399589 165.533815 
L 282.700334 166.212089 
L 282.850707 166.101724 
L 283.00108 165.525561 
L 283.151452 165.656932 
L 283.301825 165.292739 
L 283.452198 165.455247 
L 283.60257 164.748397 
L 283.903316 165.242956 
L 284.053688 165.207342 
L 284.204061 164.969706 
L 284.354433 165.083309 
L 284.504806 164.900979 
L 284.805551 163.605938 
L 284.955924 163.700976 
L 285.106297 163.8771 
L 285.407042 163.850586 
L 285.557415 163.312254 
L 285.707787 163.221688 
L 285.85816 163.761036 
L 286.008533 163.775022 
L 286.158905 163.161614 
L 286.309278 163.103269 
L 286.459651 163.529552 
L 286.610023 163.474598 
L 286.760396 163.218961 
L 287.061141 163.452224 
L 287.211514 163.469263 
L 287.361886 163.82715 
L 287.512259 163.695538 
L 287.662632 164.022025 
L 288.264122 163.934048 
L 288.564868 163.107374 
L 288.71524 163.191457 
L 288.865613 162.959932 
L 289.015986 163.361481 
L 289.316731 163.387821 
L 289.467103 163.309694 
L 289.617476 162.918849 
L 289.767849 162.959619 
L 289.918221 162.79647 
L 290.369339 163.200301 
L 290.519712 163.322105 
L 290.670085 163.621397 
L 290.820457 163.476582 
L 291.271575 163.693705 
L 291.421948 163.615233 
L 291.722693 163.605073 
L 291.873066 163.554059 
L 292.173811 162.639492 
L 292.474556 163.113846 
L 292.775302 163.22131 
L 292.925674 163.211007 
L 293.22642 163.38778 
L 293.376792 163.352835 
L 293.677538 163.473664 
L 293.82791 163.1844 
L 293.978283 163.218493 
L 294.128656 163.952703 
L 294.279028 163.844555 
L 294.730146 164.197275 
L 294.880519 164.232353 
L 295.331637 163.91408 
L 295.482009 163.942315 
L 295.632382 164.087235 
L 295.782755 164.41745 
L 295.933127 164.227496 
L 296.0835 163.620208 
L 296.233873 163.562981 
L 296.384245 163.705567 
L 296.684991 163.236792 
L 296.835363 163.477517 
L 296.985736 163.245529 
L 297.286481 163.700959 
L 297.436854 163.708171 
L 297.587226 163.422094 
L 297.737599 164.417727 
L 297.887972 164.539042 
L 298.188717 164.18252 
L 298.33909 163.639067 
L 298.489462 163.706103 
L 298.790208 163.593042 
L 298.94058 163.664331 
L 299.090953 164.280527 
L 299.241326 163.927056 
L 299.542071 163.954914 
L 299.692443 163.673006 
L 300.143561 164.626906 
L 300.293934 164.604278 
L 300.594679 164.697469 
L 300.745052 164.538674 
L 301.19617 164.780489 
L 301.496915 165.128003 
L 301.647288 165.089129 
L 301.797661 165.616696 
L 302.699896 165.104895 
L 303.000642 165.304273 
L 303.151014 165.15962 
L 303.301387 164.758232 
L 303.45176 164.910408 
L 303.602132 164.747444 
L 303.752505 164.900716 
L 303.902878 164.857234 
L 304.05325 164.398319 
L 304.353996 164.808484 
L 304.504368 164.654007 
L 304.654741 164.779106 
L 304.955486 164.585509 
L 305.105859 164.894624 
L 305.256231 164.8958 
L 305.857722 164.346875 
L 306.008095 164.40268 
L 306.158467 164.615869 
L 306.30884 164.127146 
L 306.609585 164.513305 
L 306.910331 164.141635 
L 307.060703 164.345578 
L 307.211076 164.344864 
L 307.361448 164.200384 
L 307.511821 164.587197 
L 307.662194 163.98064 
L 308.113312 163.699978 
L 308.263684 163.083803 
L 308.414057 163.286268 
L 308.56443 163.088058 
L 309.16592 163.61912 
L 309.316293 163.428948 
L 309.466666 163.518542 
L 309.617038 163.232738 
L 309.767411 163.547938 
L 309.917783 163.330742 
L 310.218529 163.377737 
L 310.368901 163.224341 
L 310.519274 163.350111 
L 311.120765 163.118646 
L 311.271137 163.182884 
L 311.42151 163.56947 
L 311.571883 163.551176 
L 311.722255 163.163919 
L 311.872628 163.316785 
L 312.023001 163.115976 
L 312.624491 163.143924 
L 312.774864 162.976964 
L 312.925236 163.020785 
L 313.376354 162.461883 
L 313.526727 161.75276 
L 313.827472 161.844599 
L 313.977845 161.473362 
L 314.128218 161.472866 
L 314.27859 161.31856 
L 314.579336 161.675962 
L 314.729708 161.731732 
L 314.880081 161.570168 
L 315.180826 161.84852 
L 315.481571 161.880697 
L 316.083062 161.670519 
L 316.53418 161.482733 
L 316.684553 161.671254 
L 316.985298 161.761686 
L 317.286043 161.933695 
L 317.586788 161.852528 
L 317.887534 161.621763 
L 318.188279 161.88781 
L 318.489024 161.99114 
L 318.639397 161.932414 
L 318.940142 162.390635 
L 319.692006 162.33853 
L 319.992751 162.200731 
L 320.293496 162.731928 
L 320.744614 162.593213 
L 321.195732 162.708453 
L 321.346105 162.666931 
L 321.496477 162.871645 
L 321.64685 162.731134 
L 321.947595 162.908092 
L 322.097968 162.756898 
L 322.398713 163.03017 
L 322.699459 163.204456 
L 323.451322 163.164834 
L 323.601694 162.807948 
L 324.052812 163.023515 
L 324.50393 163.219343 
L 324.654303 163.002729 
L 325.105421 163.169305 
L 325.255794 163.019048 
L 325.556539 163.094068 
L 326.458775 162.859207 
L 326.609147 162.902422 
L 326.75952 163.200739 
L 327.210638 163.206232 
L 327.361011 162.783355 
L 327.511383 162.89451 
L 327.661756 162.789246 
L 327.962501 162.867335 
L 328.112874 162.764888 
L 328.413619 162.900364 
L 328.563992 162.889036 
L 328.864737 163.034724 
L 329.165482 162.868095 
L 329.466228 163.073922 
L 329.766973 163.130679 
L 330.218091 163.052922 
L 330.518836 163.291518 
L 331.120327 163.065232 
L 331.571445 162.985658 
L 332.022563 163.072817 
L 332.924799 163.276812 
L 333.375916 163.508946 
L 333.526289 163.453403 
L 333.827034 163.756508 
L 333.977407 163.675646 
L 334.428525 163.824728 
L 335.030016 163.858545 
L 335.330761 164.040678 
L 335.631506 163.961983 
L 335.932251 163.174461 
L 336.082624 163.583644 
L 336.533742 163.526267 
L 336.98486 163.731092 
L 338.488586 164.208871 
L 338.939704 164.175934 
L 339.090077 164.278708 
L 339.390822 164.242932 
L 340.443431 164.274061 
L 340.744176 164.298811 
L 341.345667 164.440618 
L 341.496039 164.354183 
L 341.796785 164.446207 
L 341.947157 164.431172 
L 342.247903 164.510308 
L 343.300511 164.426839 
L 343.751629 164.511447 
L 344.503492 164.703294 
L 344.95461 164.848897 
L 345.255356 164.973157 
L 345.706474 165.510946 
L 345.856846 165.698495 
L 346.157591 165.682133 
L 346.608709 165.760244 
L 346.759082 166.106005 
L 347.962063 166.208261 
L 348.112436 166.36865 
L 348.262809 166.217147 
L 348.864299 166.320199 
L 350.217653 166.470604 
L 350.518398 166.661819 
L 350.668771 167.076246 
L 350.819144 167.02448 
L 350.969516 167.280293 
L 351.420634 167.352637 
L 352.022125 167.051996 
L 352.924361 167.396278 
L 353.074733 167.228131 
L 353.676224 167.351892 
L 353.826596 167.327757 
L 354.127342 167.173887 
L 354.277714 167.288711 
L 354.728832 168.067736 
L 354.879205 168.016814 
L 355.029578 168.174045 
L 355.17995 168.582664 
L 355.330323 168.455094 
L 355.480696 168.629379 
L 355.631068 168.570016 
L 355.781441 168.677616 
L 355.931814 168.531707 
L 356.082186 168.719054 
L 356.382931 168.504711 
L 356.533304 168.647408 
L 356.683677 168.49717 
L 356.834049 168.52531 
L 356.984422 168.790762 
L 357.285167 168.812843 
L 357.886658 168.859777 
L 358.337776 168.924573 
L 358.638521 168.976203 
L 359.089639 169.412277 
L 359.240012 169.516524 
L 359.69113 169.355068 
L 359.841502 169.17701 
L 359.991875 169.379102 
L 360.29262 168.922428 
L 360.442993 168.773506 
L 360.593366 168.908334 
L 360.894111 168.807022 
L 361.345229 169.277124 
L 361.796347 169.297285 
L 361.946719 169.116019 
L 362.247465 169.501163 
L 362.397837 169.442808 
L 362.54821 169.575666 
L 362.999328 169.402421 
L 363.300073 169.475874 
L 363.600819 169.341063 
L 363.901564 169.475747 
L 364.352682 169.647147 
L 364.653427 169.614612 
L 364.8038 169.721086 
L 364.954172 169.655084 
L 365.254918 169.794111 
L 365.40529 169.67885 
L 365.706036 169.816356 
L 365.856408 169.83173 
L 366.006781 170.037134 
L 366.608272 169.785453 
L 366.909017 169.859732 
L 367.059389 169.849876 
L 367.209762 169.582479 
L 367.360135 169.875617 
L 367.66088 169.669913 
L 368.713489 169.681084 
L 368.863861 169.851591 
L 369.164607 169.732646 
L 369.465352 170.043516 
L 369.615724 170.307044 
L 369.766097 170.201905 
L 370.066842 170.322993 
L 370.367588 170.268682 
L 370.51796 170.443562 
L 370.668333 170.281738 
L 371.720942 170.491999 
L 371.871314 170.429944 
L 372.172059 170.555203 
L 372.472805 170.62799 
L 376.232121 171.706131 
L 376.683239 171.715864 
L 376.833612 171.833605 
L 377.134357 171.744167 
L 378.036593 171.66693 
L 378.186965 171.332223 
L 378.487711 171.326396 
L 379.089201 171.469778 
L 379.540319 171.399648 
L 379.841064 171.413724 
L 379.991437 171.712116 
L 380.14181 171.654446 
L 380.292182 171.415388 
L 381.795909 171.43706 
L 381.946282 171.326226 
L 382.397399 171.613348 
L 383.299635 171.582897 
L 383.600381 171.451361 
L 384.352244 171.423774 
L 384.652989 171.493687 
L 384.803362 171.487533 
L 384.953734 171.614344 
L 385.25448 171.557297 
L 385.404852 171.689768 
L 385.555225 171.620672 
L 385.85597 171.805659 
L 386.457461 171.768312 
L 387.961187 172.402504 
L 388.11156 172.360712 
L 388.261933 172.887882 
L 388.562678 172.992896 
L 389.013796 172.775 
L 389.615287 172.917356 
L 389.916032 172.710052 
L 390.667895 172.831415 
L 390.96864 173.132611 
L 391.570131 172.803352 
L 391.720504 173.275949 
L 391.870876 172.988711 
L 392.171622 172.98707 
L 392.321994 173.219601 
L 392.472367 173.233445 
L 392.622739 172.940233 
L 392.773112 173.25774 
L 392.923485 173.232821 
L 393.22423 173.437458 
L 393.524975 173.448018 
L 394.126466 173.61152 
L 394.427211 173.97133 
L 394.727957 174.549789 
L 395.028702 174.370504 
L 395.179074 174.521245 
L 395.329447 174.331995 
L 395.47982 174.381986 
L 395.630192 173.811631 
L 395.780565 173.948388 
L 395.930938 174.266632 
L 396.08131 174.274163 
L 396.231683 174.104784 
L 396.382056 174.182711 
L 396.532428 174.04426 
L 396.682801 174.325282 
L 396.833174 174.335788 
L 397.133919 174.570151 
L 397.434664 174.483597 
L 397.585037 174.297074 
L 397.735409 174.530605 
L 397.885782 174.388858 
L 398.036155 174.601871 
L 398.3369 174.417317 
L 398.487273 174.552243 
L 398.487273 174.552243 
" clip-path="url(#pa199287950)" style="fill: none; stroke: #2ca02c; stroke-opacity: 0.7; stroke-width: 1.5; stroke-linecap: square"/>
   </g>
   <g id="patch_3">
    <path d="M 57.6 307.584 
L 57.6 41.472 
" style="fill: none; stroke: #000000; stroke-width: 0.8; stroke-linejoin: miter; stroke-linecap: square"/>
   </g>
   <g id="patch_4">
    <path d="M 414.72 307.584 
L 414.72 41.472 
" style="fill: none; stroke: #000000; stroke-width: 0.8; stroke-linejoin: miter; stroke-linecap: square"/>
   </g>
   <g id="patch_5">
    <path d="M 57.6 307.584 
L 414.72 307.584 
" style="fill: none; stroke: #000000; stroke-width: 0.8; stroke-linejoin: miter; stroke-linecap: square"/>
   </g>
   <g id="patch_6">
    <path d="M 57.6 41.472 
L 414.72 41.472 
" style="fill: none; stroke: #000000; stroke-width: 0.8; stroke-linejoin: miter; stroke-linecap: square"/>
   </g>
   <g id="text_14">
    <!-- naive_20_btcusd -->
    <g transform="translate(185.938125 35.472) scale(0.12 -0.12)">
     <defs>
      <path id="DejaVuSans-6e" d="M 3513 2113 
L 3513 0 
L 2938 0 
L 2938 2094 
Q 2938 2591 2744 2837 
Q 2550 3084 2163 3084 
Q 1697 3084 1428 2787 
Q 1159 2491 1159 1978 
L 1159 0 
L 581 0 
L 581 3500 
L 1159 3500 
L 1159 2956 
Q 1366 3272 1645 3428 
Q 1925 3584 2291 3584 
Q 2894 3584 3203 3211 
Q 3513 2838 3513 2113 
z
" transform="scale(0.015625)"/>
      <path id="DejaVuSans-61" d="M 2194 1759 
Q 1497 1759 1228 1600 
Q 959 1441 959 1056 
Q 959 750 1161 570 
Q 1363 391 1709 391 
Q 2188 391 2477 730 
Q 2766 1069 2766 1631 
L 2766 1759 
L 2194 1759 
z
M 3341 1997 
L 3341 0 
L 2766 0 
L 2766 531 
Q 2569 213 2275 61 
Q 1981 -91 1556 -91 
Q 1019 -91 701 211 
Q 384 513 384 1019 
Q 384 1609 779 1909 
Q 1175 2209 1959 2209 
L 2766 2209 
L 2766 2266 
Q 2766 2663 2505 2880 
Q 2244 3097 1772 3097 
Q 1472 3097 1187 3025 
Q 903 2953 641 2809 
L 641 3341 
Q 956 3463 1253 3523 
Q 1550 3584 1831 3584 
Q 2591 3584 2966 3190 
Q 3341 2797 3341 1997 
z
" transform="scale(0.015625)"/>
      <path id="DejaVuSans-69" d="M 603 3500 
L 1178 3500 
L 1178 0 
L 603 0 
L 603 3500 
z
M 603 4863 
L 1178 4863 
L 1178 4134 
L 603 4134 
L 603 4863 
z
" transform="scale(0.015625)"/>
      <path id="DejaVuSans-76" d="M 191 3500 
L 800 3500 
L 1894 563 
L 2988 3500 
L 3597 3500 
L 2284 0 
L 1503 0 
L 191 3500 
z
" transform="scale(0.015625)"/>
      <path id="DejaVuSans-65" d="M 3597 1894 
L 3597 1613 
L 953 1613 
Q 991 1019 1311 708 
Q 1631 397 2203 397 
Q 2534 397 2845 478 
Q 3156 559 3463 722 
L 3463 178 
Q 3153 47 2828 -22 
Q 2503 -91 2169 -91 
Q 1331 -91 842 396 
Q 353 884 353 1716 
Q 353 2575 817 3079 
Q 1281 3584 2069 3584 
Q 2775 3584 3186 3129 
Q 3597 2675 3597 1894 
z
M 3022 2063 
Q 3016 2534 2758 2815 
Q 2500 3097 2075 3097 
Q 1594 3097 1305 2825 
Q 1016 2553 972 2059 
L 3022 2063 
z
" transform="scale(0.015625)"/>
      <path id="DejaVuSans-5f" d="M 3263 -1063 
L 3263 -1509 
L -63 -1509 
L -63 -1063 
L 3263 -1063 
z
" transform="scale(0.015625)"/>
      <path id="DejaVuSans-62" d="M 3116 1747 
Q 3116 2381 2855 2742 
Q 2594 3103 2138 3103 
Q 1681 3103 1420 2742 
Q 1159 2381 1159 1747 
Q 1159 1113 1420 752 
Q 1681 391 2138 391 
Q 2594 391 2855 752 
Q 3116 1113 3116 1747 
z
M 1159 2969 
Q 1341 3281 1617 3432 
Q 1894 3584 2278 3584 
Q 2916 3584 3314 3078 
Q 3713 2572 3713 1747 
Q 3713 922 3314 415 
Q 2916 -91 2278 -91 
Q 1894 -91 1617 61 
Q 1341 213 1159 525 
L 1159 0 
L 581 0 
L 581 4863 
L 1159 4863 
L 1159 2969 
z
" transform="scale(0.015625)"/>
      <path id="DejaVuSans-74" d="M 1172 4494 
L 1172 3500 
L 2356 3500 
L 2356 3053 
L 1172 3053 
L 1172 1153 
Q 1172 725 1289 603 
Q 1406 481 1766 481 
L 2356 481 
L 2356 0 
L 1766 0 
Q 1100 0 847 248 
Q 594 497 594 1153 
L 594 3053 
L 172 3053 
L 172 3500 
L 594 3500 
L 594 4494 
L 1172 4494 
z
" transform="scale(0.015625)"/>
      <path id="DejaVuSans-63" d="M 3122 3366 
L 3122 2828 
Q 2878 2963 2633 3030 
Q 2388 3097 2138 3097 
Q 1578 3097 1268 2742 
Q 959 2388 959 1747 
Q 959 1106 1268 751 
Q 1578 397 2138 397 
Q 2388 397 2633 464 
Q 2878 531 3122 666 
L 3122 134 
Q 2881 22 2623 -34 
Q 2366 -91 2075 -91 
Q 1284 -91 818 406 
Q 353 903 353 1747 
Q 353 2603 823 3093 
Q 1294 3584 2113 3584 
Q 2378 3584 2631 3529 
Q 2884 3475 3122 3366 
z
" transform="scale(0.015625)"/>
      <path id="DejaVuSans-75" d="M 544 1381 
L 544 3500 
L 1119 3500 
L 1119 1403 
Q 1119 906 1312 657 
Q 1506 409 1894 409 
Q 2359 409 2629 706 
Q 2900 1003 2900 1516 
L 2900 3500 
L 3475 3500 
L 3475 0 
L 2900 0 
L 2900 538 
Q 2691 219 2414 64 
Q 2138 -91 1772 -91 
Q 1169 -91 856 284 
Q 544 659 544 1381 
z
M 1991 3584 
L 1991 3584 
z
" transform="scale(0.015625)"/>
      <path id="DejaVuSans-73" d="M 2834 3397 
L 2834 2853 
Q 2591 2978 2328 3040 
Q 2066 3103 1784 3103 
Q 1356 3103 1142 2972 
Q 928 2841 928 2578 
Q 928 2378 1081 2264 
Q 1234 2150 1697 2047 
L 1894 2003 
Q 2506 1872 2764 1633 
Q 3022 1394 3022 966 
Q 3022 478 2636 193 
Q 2250 -91 1575 -91 
Q 1294 -91 989 -36 
Q 684 19 347 128 
L 347 722 
Q 666 556 975 473 
Q 1284 391 1588 391 
Q 1994 391 2212 530 
Q 2431 669 2431 922 
Q 2431 1156 2273 1281 
Q 2116 1406 1581 1522 
L 1381 1569 
Q 847 1681 609 1914 
Q 372 2147 372 2553 
Q 372 3047 722 3315 
Q 1072 3584 1716 3584 
Q 2034 3584 2315 3537 
Q 2597 3491 2834 3397 
z
" transform="scale(0.015625)"/>
      <path id="DejaVuSans-64" d="M 2906 2969 
L 2906 4863 
L 3481 4863 
L 3481 0 
L 2906 0 
L 2906 525 
Q 2725 213 2448 61 
Q 2172 -91 1784 -91 
Q 1150 -91 751 415 
Q 353 922 353 1747 
Q 353 2572 751 3078 
Q 1150 3584 1784 3584 
Q 2172 3584 2448 3432 
Q 2725 3281 2906 2969 
z
M 947 1747 
Q 947 1113 1208 752 
Q 1469 391 1925 391 
Q 2381 391 2643 752 
Q 2906 1113 2906 1747 
Q 2906 2381 2643 2742 
Q 2381 3103 1925 3103 
Q 1469 3103 1208 2742 
Q 947 2381 947 1747 
z
" transform="scale(0.015625)"/>
     </defs>
     <use xlink:href="#DejaVuSans-6e"/>
     <use xlink:href="#DejaVuSans-61" x="63.378906"/>
     <use xlink:href="#DejaVuSans-69" x="124.658203"/>
     <use xlink:href="#DejaVuSans-76" x="152.441406"/>
     <use xlink:href="#DejaVuSans-65" x="211.621094"/>
     <use xlink:href="#DejaVuSans-5f" x="273.144531"/>
     <use xlink:href="#DejaVuSans-32" x="323.144531"/>
     <use xlink:href="#DejaVuSans-30" x="386.767578"/>
     <use xlink:href="#DejaVuSans-5f" x="450.390625"/>
     <use xlink:href="#DejaVuSans-62" x="500.390625"/>
     <use xlink:href="#DejaVuSans-74" x="563.867188"/>
     <use xlink:href="#DejaVuSans-63" x="603.076172"/>
     <use xlink:href="#DejaVuSans-75" x="658.056641"/>
     <use xlink:href="#DejaVuSans-73" x="721.435547"/>
     <use xlink:href="#DejaVuSans-64" x="773.535156"/>
    </g>
   </g>
   <g id="legend_1">
    <g id="patch_7">
     <path d="M 64.6 93.506375 
L 258.804688 93.506375 
Q 260.804688 93.506375 260.804688 91.506375 
L 260.804688 48.472 
Q 260.804688 46.472 258.804688 46.472 
L 64.6 46.472 
Q 62.6 46.472 62.6 48.472 
L 62.6 91.506375 
Q 62.6 93.506375 64.6 93.506375 
z
" style="fill: #ffffff; opacity: 0.8; stroke: #cccccc; stroke-linejoin: miter"/>
    </g>
    <g id="line2d_17">
     <path d="M 66.6 54.570438 
L 76.6 54.570438 
L 86.6 54.570438 
" style="fill: none; stroke: #1f77b4; stroke-opacity: 0.7; stroke-width: 1.5; stroke-linecap: square"/>
    </g>
    <g id="text_15">
     <!-- Positive cumulative predictions -->
     <g transform="translate(94.6 58.070438) scale(0.1 -0.1)">
      <defs>
       <path id="DejaVuSans-50" d="M 1259 4147 
L 1259 2394 
L 2053 2394 
Q 2494 2394 2734 2622 
Q 2975 2850 2975 3272 
Q 2975 3691 2734 3919 
Q 2494 4147 2053 4147 
L 1259 4147 
z
M 628 4666 
L 2053 4666 
Q 2838 4666 3239 4311 
Q 3641 3956 3641 3272 
Q 3641 2581 3239 2228 
Q 2838 1875 2053 1875 
L 1259 1875 
L 1259 0 
L 628 0 
L 628 4666 
z
" transform="scale(0.015625)"/>
       <path id="DejaVuSans-6f" d="M 1959 3097 
Q 1497 3097 1228 2736 
Q 959 2375 959 1747 
Q 959 1119 1226 758 
Q 1494 397 1959 397 
Q 2419 397 2687 759 
Q 2956 1122 2956 1747 
Q 2956 2369 2687 2733 
Q 2419 3097 1959 3097 
z
M 1959 3584 
Q 2709 3584 3137 3096 
Q 3566 2609 3566 1747 
Q 3566 888 3137 398 
Q 2709 -91 1959 -91 
Q 1206 -91 779 398 
Q 353 888 353 1747 
Q 353 2609 779 3096 
Q 1206 3584 1959 3584 
z
" transform="scale(0.015625)"/>
       <path id="DejaVuSans-20" transform="scale(0.015625)"/>
       <path id="DejaVuSans-6d" d="M 3328 2828 
Q 3544 3216 3844 3400 
Q 4144 3584 4550 3584 
Q 5097 3584 5394 3201 
Q 5691 2819 5691 2113 
L 5691 0 
L 5113 0 
L 5113 2094 
Q 5113 2597 4934 2840 
Q 4756 3084 4391 3084 
Q 3944 3084 3684 2787 
Q 3425 2491 3425 1978 
L 3425 0 
L 2847 0 
L 2847 2094 
Q 2847 2600 2669 2842 
Q 2491 3084 2119 3084 
Q 1678 3084 1418 2786 
Q 1159 2488 1159 1978 
L 1159 0 
L 581 0 
L 581 3500 
L 1159 3500 
L 1159 2956 
Q 1356 3278 1631 3431 
Q 1906 3584 2284 3584 
Q 2666 3584 2933 3390 
Q 3200 3197 3328 2828 
z
" transform="scale(0.015625)"/>
       <path id="DejaVuSans-6c" d="M 603 4863 
L 1178 4863 
L 1178 0 
L 603 0 
L 603 4863 
z
" transform="scale(0.015625)"/>
       <path id="DejaVuSans-70" d="M 1159 525 
L 1159 -1331 
L 581 -1331 
L 581 3500 
L 1159 3500 
L 1159 2969 
Q 1341 3281 1617 3432 
Q 1894 3584 2278 3584 
Q 2916 3584 3314 3078 
Q 3713 2572 3713 1747 
Q 3713 922 3314 415 
Q 2916 -91 2278 -91 
Q 1894 -91 1617 61 
Q 1341 213 1159 525 
z
M 3116 1747 
Q 3116 2381 2855 2742 
Q 2594 3103 2138 3103 
Q 1681 3103 1420 2742 
Q 1159 2381 1159 1747 
Q 1159 1113 1420 752 
Q 1681 391 2138 391 
Q 2594 391 2855 752 
Q 3116 1113 3116 1747 
z
" transform="scale(0.015625)"/>
       <path id="DejaVuSans-72" d="M 2631 2963 
Q 2534 3019 2420 3045 
Q 2306 3072 2169 3072 
Q 1681 3072 1420 2755 
Q 1159 2438 1159 1844 
L 1159 0 
L 581 0 
L 581 3500 
L 1159 3500 
L 1159 2956 
Q 1341 3275 1631 3429 
Q 1922 3584 2338 3584 
Q 2397 3584 2469 3576 
Q 2541 3569 2628 3553 
L 2631 2963 
z
" transform="scale(0.015625)"/>
      </defs>
      <use xlink:href="#DejaVuSans-50"/>
      <use xlink:href="#DejaVuSans-6f" x="56.677734"/>
      <use xlink:href="#DejaVuSans-73" x="117.859375"/>
      <use xlink:href="#DejaVuSans-69" x="169.958984"/>
      <use xlink:href="#DejaVuSans-74" x="197.742188"/>
      <use xlink:href="#DejaVuSans-69" x="236.951172"/>
      <use xlink:href="#DejaVuSans-76" x="264.734375"/>
      <use xlink:href="#DejaVuSans-65" x="323.914062"/>
      <use xlink:href="#DejaVuSans-20" x="385.4375"/>
      <use xlink:href="#DejaVuSans-63" x="417.224609"/>
      <use xlink:href="#DejaVuSans-75" x="472.205078"/>
      <use xlink:href="#DejaVuSans-6d" x="535.583984"/>
      <use xlink:href="#DejaVuSans-75" x="632.996094"/>
      <use xlink:href="#DejaVuSans-6c" x="696.375"/>
      <use xlink:href="#DejaVuSans-61" x="724.158203"/>
      <use xlink:href="#DejaVuSans-74" x="785.4375"/>
      <use xlink:href="#DejaVuSans-69" x="824.646484"/>
      <use xlink:href="#DejaVuSans-76" x="852.429688"/>
      <use xlink:href="#DejaVuSans-65" x="911.609375"/>
      <use xlink:href="#DejaVuSans-20" x="973.132812"/>
      <use xlink:href="#DejaVuSans-70" x="1004.919922"/>
      <use xlink:href="#DejaVuSans-72" x="1068.396484"/>
      <use xlink:href="#DejaVuSans-65" x="1107.259766"/>
      <use xlink:href="#DejaVuSans-64" x="1168.783203"/>
      <use xlink:href="#DejaVuSans-69" x="1232.259766"/>
      <use xlink:href="#DejaVuSans-63" x="1260.042969"/>
      <use xlink:href="#DejaVuSans-74" x="1315.023438"/>
      <use xlink:href="#DejaVuSans-69" x="1354.232422"/>
      <use xlink:href="#DejaVuSans-6f" x="1382.015625"/>
      <use xlink:href="#DejaVuSans-6e" x="1443.197266"/>
      <use xlink:href="#DejaVuSans-73" x="1506.576172"/>
     </g>
    </g>
    <g id="line2d_18">
     <path d="M 66.6 69.248563 
L 76.6 69.248563 
L 86.6 69.248563 
" style="fill: none; stroke: #ff7f0e; stroke-opacity: 0.7; stroke-width: 1.5; stroke-linecap: square"/>
    </g>
    <g id="text_16">
     <!-- Negative cumulative predictions -->
     <g transform="translate(94.6 72.748563) scale(0.1 -0.1)">
      <defs>
       <path id="DejaVuSans-4e" d="M 628 4666 
L 1478 4666 
L 3547 763 
L 3547 4666 
L 4159 4666 
L 4159 0 
L 3309 0 
L 1241 3903 
L 1241 0 
L 628 0 
L 628 4666 
z
" transform="scale(0.015625)"/>
       <path id="DejaVuSans-67" d="M 2906 1791 
Q 2906 2416 2648 2759 
Q 2391 3103 1925 3103 
Q 1463 3103 1205 2759 
Q 947 2416 947 1791 
Q 947 1169 1205 825 
Q 1463 481 1925 481 
Q 2391 481 2648 825 
Q 2906 1169 2906 1791 
z
M 3481 434 
Q 3481 -459 3084 -895 
Q 2688 -1331 1869 -1331 
Q 1566 -1331 1297 -1286 
Q 1028 -1241 775 -1147 
L 775 -588 
Q 1028 -725 1275 -790 
Q 1522 -856 1778 -856 
Q 2344 -856 2625 -561 
Q 2906 -266 2906 331 
L 2906 616 
Q 2728 306 2450 153 
Q 2172 0 1784 0 
Q 1141 0 747 490 
Q 353 981 353 1791 
Q 353 2603 747 3093 
Q 1141 3584 1784 3584 
Q 2172 3584 2450 3431 
Q 2728 3278 2906 2969 
L 2906 3500 
L 3481 3500 
L 3481 434 
z
" transform="scale(0.015625)"/>
      </defs>
      <use xlink:href="#DejaVuSans-4e"/>
      <use xlink:href="#DejaVuSans-65" x="74.804688"/>
      <use xlink:href="#DejaVuSans-67" x="136.328125"/>
      <use xlink:href="#DejaVuSans-61" x="199.804688"/>
      <use xlink:href="#DejaVuSans-74" x="261.083984"/>
      <use xlink:href="#DejaVuSans-69" x="300.292969"/>
      <use xlink:href="#DejaVuSans-76" x="328.076172"/>
      <use xlink:href="#DejaVuSans-65" x="387.255859"/>
      <use xlink:href="#DejaVuSans-20" x="448.779297"/>
      <use xlink:href="#DejaVuSans-63" x="480.566406"/>
      <use xlink:href="#DejaVuSans-75" x="535.546875"/>
      <use xlink:href="#DejaVuSans-6d" x="598.925781"/>
      <use xlink:href="#DejaVuSans-75" x="696.337891"/>
      <use xlink:href="#DejaVuSans-6c" x="759.716797"/>
      <use xlink:href="#DejaVuSans-61" x="787.5"/>
      <use xlink:href="#DejaVuSans-74" x="848.779297"/>
      <use xlink:href="#DejaVuSans-69" x="887.988281"/>
      <use xlink:href="#DejaVuSans-76" x="915.771484"/>
      <use xlink:href="#DejaVuSans-65" x="974.951172"/>
      <use xlink:href="#DejaVuSans-20" x="1036.474609"/>
      <use xlink:href="#DejaVuSans-70" x="1068.261719"/>
      <use xlink:href="#DejaVuSans-72" x="1131.738281"/>
      <use xlink:href="#DejaVuSans-65" x="1170.601562"/>
      <use xlink:href="#DejaVuSans-64" x="1232.125"/>
      <use xlink:href="#DejaVuSans-69" x="1295.601562"/>
      <use xlink:href="#DejaVuSans-63" x="1323.384766"/>
      <use xlink:href="#DejaVuSans-74" x="1378.365234"/>
      <use xlink:href="#DejaVuSans-69" x="1417.574219"/>
      <use xlink:href="#DejaVuSans-6f" x="1445.357422"/>
      <use xlink:href="#DejaVuSans-6e" x="1506.539062"/>
      <use xlink:href="#DejaVuSans-73" x="1569.917969"/>
     </g>
    </g>
    <g id="line2d_19">
     <path d="M 66.6 83.926688 
L 76.6 83.926688 
L 86.6 83.926688 
" style="fill: none; stroke: #2ca02c; stroke-opacity: 0.7; stroke-width: 1.5; stroke-linecap: square"/>
    </g>
    <g id="text_17">
     <!-- Average cumulative predictions -->
     <g transform="translate(94.6 87.426688) scale(0.1 -0.1)">
      <defs>
       <path id="DejaVuSans-41" d="M 2188 4044 
L 1331 1722 
L 3047 1722 
L 2188 4044 
z
M 1831 4666 
L 2547 4666 
L 4325 0 
L 3669 0 
L 3244 1197 
L 1141 1197 
L 716 0 
L 50 0 
L 1831 4666 
z
" transform="scale(0.015625)"/>
      </defs>
      <use xlink:href="#DejaVuSans-41"/>
      <use xlink:href="#DejaVuSans-76" x="62.533203"/>
      <use xlink:href="#DejaVuSans-65" x="121.712891"/>
      <use xlink:href="#DejaVuSans-72" x="183.236328"/>
      <use xlink:href="#DejaVuSans-61" x="224.349609"/>
      <use xlink:href="#DejaVuSans-67" x="285.628906"/>
      <use xlink:href="#DejaVuSans-65" x="349.105469"/>
      <use xlink:href="#DejaVuSans-20" x="410.628906"/>
      <use xlink:href="#DejaVuSans-63" x="442.416016"/>
      <use xlink:href="#DejaVuSans-75" x="497.396484"/>
      <use xlink:href="#DejaVuSans-6d" x="560.775391"/>
      <use xlink:href="#DejaVuSans-75" x="658.1875"/>
      <use xlink:href="#DejaVuSans-6c" x="721.566406"/>
      <use xlink:href="#DejaVuSans-61" x="749.349609"/>
      <use xlink:href="#DejaVuSans-74" x="810.628906"/>
      <use xlink:href="#DejaVuSans-69" x="849.837891"/>
      <use xlink:href="#DejaVuSans-76" x="877.621094"/>
      <use xlink:href="#DejaVuSans-65" x="936.800781"/>
      <use xlink:href="#DejaVuSans-20" x="998.324219"/>
      <use xlink:href="#DejaVuSans-70" x="1030.111328"/>
      <use xlink:href="#DejaVuSans-72" x="1093.587891"/>
      <use xlink:href="#DejaVuSans-65" x="1132.451172"/>
      <use xlink:href="#DejaVuSans-64" x="1193.974609"/>
      <use xlink:href="#DejaVuSans-69" x="1257.451172"/>
      <use xlink:href="#DejaVuSans-63" x="1285.234375"/>
      <use xlink:href="#DejaVuSans-74" x="1340.214844"/>
      <use xlink:href="#DejaVuSans-69" x="1379.423828"/>
      <use xlink:href="#DejaVuSans-6f" x="1407.207031"/>
      <use xlink:href="#DejaVuSans-6e" x="1468.388672"/>
      <use xlink:href="#DejaVuSans-73" x="1531.767578"/>
     </g>
    </g>
   </g>
  </g>
 </g>
 <defs>
  <clipPath id="pa199287950">
   <rect x="57.6" y="41.472" width="357.12" height="266.112"/>
  </clipPath>
 </defs>
</svg>
