<?xml version="1.0" encoding="utf-8" standalone="no"?>
<!DOCTYPE svg PUBLIC "-//W3C//DTD SVG 1.1//EN"
  "http://www.w3.org/Graphics/SVG/1.1/DTD/svg11.dtd">
<svg xmlns:xlink="http://www.w3.org/1999/xlink" width="460.8pt" height="345.6pt" viewBox="0 0 460.8 345.6" xmlns="http://www.w3.org/2000/svg" version="1.1">
 <metadata>
  <rdf:RDF xmlns:dc="http://purl.org/dc/elements/1.1/" xmlns:cc="http://creativecommons.org/ns#" xmlns:rdf="http://www.w3.org/1999/02/22-rdf-syntax-ns#">
   <cc:Work>
    <dc:type rdf:resource="http://purl.org/dc/dcmitype/StillImage"/>
    <dc:date>2024-05-30T13:20:10.805132</dc:date>
    <dc:format>image/svg+xml</dc:format>
    <dc:creator>
     <cc:Agent>
      <dc:title>Matplotlib v3.9.0, https://matplotlib.org/</dc:title>
     </cc:Agent>
    </dc:creator>
   </cc:Work>
  </rdf:RDF>
 </metadata>
 <defs>
  <style type="text/css">*{stroke-linejoin: round; stroke-linecap: butt}</style>
 </defs>
 <g id="figure_1">
  <g id="patch_1">
   <path d="M 0 345.6 
L 460.8 345.6 
L 460.8 0 
L 0 0 
z
" style="fill: #ffffff"/>
  </g>
  <g id="axes_1">
   <g id="patch_2">
    <path d="M 57.6 307.584 
L 414.72 307.584 
L 414.72 41.472 
L 57.6 41.472 
z
" style="fill: #ffffff"/>
   </g>
   <g id="matplotlib.axis_1">
    <g id="xtick_1">
     <g id="line2d_1">
      <defs>
       <path id="m0410e96e79" d="M 0 0 
L 0 3.5 
" style="stroke: #000000; stroke-width: 0.8"/>
      </defs>
      <g>
       <use xlink:href="#m0410e96e79" x="73.832727" y="307.584" style="stroke: #000000; stroke-width: 0.8"/>
      </g>
     </g>
     <g id="text_1">
      <!-- 0 -->
      <g transform="translate(70.651477 322.182437) scale(0.1 -0.1)">
       <defs>
        <path id="DejaVuSans-30" d="M 2034 4250 
Q 1547 4250 1301 3770 
Q 1056 3291 1056 2328 
Q 1056 1369 1301 889 
Q 1547 409 2034 409 
Q 2525 409 2770 889 
Q 3016 1369 3016 2328 
Q 3016 3291 2770 3770 
Q 2525 4250 2034 4250 
z
M 2034 4750 
Q 2819 4750 3233 4129 
Q 3647 3509 3647 2328 
Q 3647 1150 3233 529 
Q 2819 -91 2034 -91 
Q 1250 -91 836 529 
Q 422 1150 422 2328 
Q 422 3509 836 4129 
Q 1250 4750 2034 4750 
z
" transform="scale(0.015625)"/>
       </defs>
       <use xlink:href="#DejaVuSans-30"/>
      </g>
     </g>
    </g>
    <g id="xtick_2">
     <g id="line2d_2">
      <g>
       <use xlink:href="#m0410e96e79" x="149.333784" y="307.584" style="stroke: #000000; stroke-width: 0.8"/>
      </g>
     </g>
     <g id="text_2">
      <!-- 50 -->
      <g transform="translate(142.971284 322.182437) scale(0.1 -0.1)">
       <defs>
        <path id="DejaVuSans-35" d="M 691 4666 
L 3169 4666 
L 3169 4134 
L 1269 4134 
L 1269 2991 
Q 1406 3038 1543 3061 
Q 1681 3084 1819 3084 
Q 2600 3084 3056 2656 
Q 3513 2228 3513 1497 
Q 3513 744 3044 326 
Q 2575 -91 1722 -91 
Q 1428 -91 1123 -41 
Q 819 9 494 109 
L 494 744 
Q 775 591 1075 516 
Q 1375 441 1709 441 
Q 2250 441 2565 725 
Q 2881 1009 2881 1497 
Q 2881 1984 2565 2268 
Q 2250 2553 1709 2553 
Q 1456 2553 1204 2497 
Q 953 2441 691 2322 
L 691 4666 
z
" transform="scale(0.015625)"/>
       </defs>
       <use xlink:href="#DejaVuSans-35"/>
       <use xlink:href="#DejaVuSans-30" x="63.623047"/>
      </g>
     </g>
    </g>
    <g id="xtick_3">
     <g id="line2d_3">
      <g>
       <use xlink:href="#m0410e96e79" x="224.834841" y="307.584" style="stroke: #000000; stroke-width: 0.8"/>
      </g>
     </g>
     <g id="text_3">
      <!-- 100 -->
      <g transform="translate(215.291091 322.182437) scale(0.1 -0.1)">
       <defs>
        <path id="DejaVuSans-31" d="M 794 531 
L 1825 531 
L 1825 4091 
L 703 3866 
L 703 4441 
L 1819 4666 
L 2450 4666 
L 2450 531 
L 3481 531 
L 3481 0 
L 794 0 
L 794 531 
z
" transform="scale(0.015625)"/>
       </defs>
       <use xlink:href="#DejaVuSans-31"/>
       <use xlink:href="#DejaVuSans-30" x="63.623047"/>
       <use xlink:href="#DejaVuSans-30" x="127.246094"/>
      </g>
     </g>
    </g>
    <g id="xtick_4">
     <g id="line2d_4">
      <g>
       <use xlink:href="#m0410e96e79" x="300.335899" y="307.584" style="stroke: #000000; stroke-width: 0.8"/>
      </g>
     </g>
     <g id="text_4">
      <!-- 150 -->
      <g transform="translate(290.792149 322.182437) scale(0.1 -0.1)">
       <use xlink:href="#DejaVuSans-31"/>
       <use xlink:href="#DejaVuSans-35" x="63.623047"/>
       <use xlink:href="#DejaVuSans-30" x="127.246094"/>
      </g>
     </g>
    </g>
    <g id="xtick_5">
     <g id="line2d_5">
      <g>
       <use xlink:href="#m0410e96e79" x="375.836956" y="307.584" style="stroke: #000000; stroke-width: 0.8"/>
      </g>
     </g>
     <g id="text_5">
      <!-- 200 -->
      <g transform="translate(366.293206 322.182437) scale(0.1 -0.1)">
       <defs>
        <path id="DejaVuSans-32" d="M 1228 531 
L 3431 531 
L 3431 0 
L 469 0 
L 469 531 
Q 828 903 1448 1529 
Q 2069 2156 2228 2338 
Q 2531 2678 2651 2914 
Q 2772 3150 2772 3378 
Q 2772 3750 2511 3984 
Q 2250 4219 1831 4219 
Q 1534 4219 1204 4116 
Q 875 4013 500 3803 
L 500 4441 
Q 881 4594 1212 4672 
Q 1544 4750 1819 4750 
Q 2544 4750 2975 4387 
Q 3406 4025 3406 3419 
Q 3406 3131 3298 2873 
Q 3191 2616 2906 2266 
Q 2828 2175 2409 1742 
Q 1991 1309 1228 531 
z
" transform="scale(0.015625)"/>
       </defs>
       <use xlink:href="#DejaVuSans-32"/>
       <use xlink:href="#DejaVuSans-30" x="63.623047"/>
       <use xlink:href="#DejaVuSans-30" x="127.246094"/>
      </g>
     </g>
    </g>
   </g>
   <g id="matplotlib.axis_2">
    <g id="ytick_1">
     <g id="line2d_6">
      <defs>
       <path id="m7a6739971d" d="M 0 0 
L -3.5 0 
" style="stroke: #000000; stroke-width: 0.8"/>
      </defs>
      <g>
       <use xlink:href="#m7a6739971d" x="57.6" y="298.191486" style="stroke: #000000; stroke-width: 0.8"/>
      </g>
     </g>
     <g id="text_6">
      <!-- −30000 -->
      <g transform="translate(10.407812 301.990704) scale(0.1 -0.1)">
       <defs>
        <path id="DejaVuSans-2212" d="M 678 2272 
L 4684 2272 
L 4684 1741 
L 678 1741 
L 678 2272 
z
" transform="scale(0.015625)"/>
        <path id="DejaVuSans-33" d="M 2597 2516 
Q 3050 2419 3304 2112 
Q 3559 1806 3559 1356 
Q 3559 666 3084 287 
Q 2609 -91 1734 -91 
Q 1441 -91 1130 -33 
Q 819 25 488 141 
L 488 750 
Q 750 597 1062 519 
Q 1375 441 1716 441 
Q 2309 441 2620 675 
Q 2931 909 2931 1356 
Q 2931 1769 2642 2001 
Q 2353 2234 1838 2234 
L 1294 2234 
L 1294 2753 
L 1863 2753 
Q 2328 2753 2575 2939 
Q 2822 3125 2822 3475 
Q 2822 3834 2567 4026 
Q 2313 4219 1838 4219 
Q 1578 4219 1281 4162 
Q 984 4106 628 3988 
L 628 4550 
Q 988 4650 1302 4700 
Q 1616 4750 1894 4750 
Q 2613 4750 3031 4423 
Q 3450 4097 3450 3541 
Q 3450 3153 3228 2886 
Q 3006 2619 2597 2516 
z
" transform="scale(0.015625)"/>
       </defs>
       <use xlink:href="#DejaVuSans-2212"/>
       <use xlink:href="#DejaVuSans-33" x="83.789062"/>
       <use xlink:href="#DejaVuSans-30" x="147.412109"/>
       <use xlink:href="#DejaVuSans-30" x="211.035156"/>
       <use xlink:href="#DejaVuSans-30" x="274.658203"/>
       <use xlink:href="#DejaVuSans-30" x="338.28125"/>
      </g>
     </g>
    </g>
    <g id="ytick_2">
     <g id="line2d_7">
      <g>
       <use xlink:href="#m7a6739971d" x="57.6" y="248.268809" style="stroke: #000000; stroke-width: 0.8"/>
      </g>
     </g>
     <g id="text_7">
      <!-- −20000 -->
      <g transform="translate(10.407812 252.068028) scale(0.1 -0.1)">
       <use xlink:href="#DejaVuSans-2212"/>
       <use xlink:href="#DejaVuSans-32" x="83.789062"/>
       <use xlink:href="#DejaVuSans-30" x="147.412109"/>
       <use xlink:href="#DejaVuSans-30" x="211.035156"/>
       <use xlink:href="#DejaVuSans-30" x="274.658203"/>
       <use xlink:href="#DejaVuSans-30" x="338.28125"/>
      </g>
     </g>
    </g>
    <g id="ytick_3">
     <g id="line2d_8">
      <g>
       <use xlink:href="#m7a6739971d" x="57.6" y="198.346133" style="stroke: #000000; stroke-width: 0.8"/>
      </g>
     </g>
     <g id="text_8">
      <!-- −10000 -->
      <g transform="translate(10.407812 202.145352) scale(0.1 -0.1)">
       <use xlink:href="#DejaVuSans-2212"/>
       <use xlink:href="#DejaVuSans-31" x="83.789062"/>
       <use xlink:href="#DejaVuSans-30" x="147.412109"/>
       <use xlink:href="#DejaVuSans-30" x="211.035156"/>
       <use xlink:href="#DejaVuSans-30" x="274.658203"/>
       <use xlink:href="#DejaVuSans-30" x="338.28125"/>
      </g>
     </g>
    </g>
    <g id="ytick_4">
     <g id="line2d_9">
      <g>
       <use xlink:href="#m7a6739971d" x="57.6" y="148.423457" style="stroke: #000000; stroke-width: 0.8"/>
      </g>
     </g>
     <g id="text_9">
      <!-- 0 -->
      <g transform="translate(44.2375 152.222676) scale(0.1 -0.1)">
       <use xlink:href="#DejaVuSans-30"/>
      </g>
     </g>
    </g>
    <g id="ytick_5">
     <g id="line2d_10">
      <g>
       <use xlink:href="#m7a6739971d" x="57.6" y="98.500781" style="stroke: #000000; stroke-width: 0.8"/>
      </g>
     </g>
     <g id="text_10">
      <!-- 10000 -->
      <g transform="translate(18.7875 102.299999) scale(0.1 -0.1)">
       <use xlink:href="#DejaVuSans-31"/>
       <use xlink:href="#DejaVuSans-30" x="63.623047"/>
       <use xlink:href="#DejaVuSans-30" x="127.246094"/>
       <use xlink:href="#DejaVuSans-30" x="190.869141"/>
       <use xlink:href="#DejaVuSans-30" x="254.492188"/>
      </g>
     </g>
    </g>
    <g id="ytick_6">
     <g id="line2d_11">
      <g>
       <use xlink:href="#m7a6739971d" x="57.6" y="48.578104" style="stroke: #000000; stroke-width: 0.8"/>
      </g>
     </g>
     <g id="text_11">
      <!-- 20000 -->
      <g transform="translate(18.7875 52.377323) scale(0.1 -0.1)">
       <use xlink:href="#DejaVuSans-32"/>
       <use xlink:href="#DejaVuSans-30" x="63.623047"/>
       <use xlink:href="#DejaVuSans-30" x="127.246094"/>
       <use xlink:href="#DejaVuSans-30" x="190.869141"/>
       <use xlink:href="#DejaVuSans-30" x="254.492188"/>
      </g>
     </g>
    </g>
   </g>
   <g id="line2d_12">
    <path d="M 73.832727 135.295303 
L 75.342748 147.89462 
L 76.85277 146.181362 
L 78.362791 139.884331 
L 79.872812 141.758301 
L 81.382833 142.20949 
L 82.892854 145.790234 
L 84.402875 147.032492 
L 85.912896 146.254381 
L 87.422918 142.248253 
L 88.932939 144.623974 
L 90.44296 143.908367 
L 91.952981 147.104961 
L 93.463002 144.546134 
L 94.973023 145.327913 
L 96.483044 143.793585 
L 97.993066 145.846341 
L 99.503087 146.435596 
L 101.013108 143.285222 
L 102.523129 144.930983 
L 104.03315 147.055557 
L 107.053192 143.009481 
L 108.563214 146.33584 
L 110.073235 139.880286 
L 111.583256 136.3317 
L 113.093277 139.603491 
L 114.603298 137.587263 
L 116.113319 136.913115 
L 117.62334 143.275968 
L 119.133362 145.496396 
L 120.643383 144.356876 
L 122.153404 148.385692 
L 123.663425 146.197578 
L 125.173446 146.51796 
L 126.683467 147.524437 
L 128.193488 146.079887 
L 129.70351 143.702936 
L 131.213531 139.601925 
L 132.723552 144.271823 
L 134.233573 137.530921 
L 135.743594 136.827816 
L 137.253615 138.343293 
L 138.763636 145.551899 
L 140.273658 138.613173 
L 141.783679 144.483892 
L 143.2937 151.505241 
L 144.803721 152.924625 
L 146.313742 149.696133 
L 147.823763 147.391065 
L 149.333784 155.640264 
L 150.843805 161.96892 
L 152.353827 147.266664 
L 153.863848 143.691378 
L 155.373869 145.354332 
L 156.88389 151.153508 
L 158.393911 146.014249 
L 161.413953 148.031669 
L 162.923975 146.518945 
L 164.433996 143.213075 
L 165.944017 146.567087 
L 167.454038 146.182817 
L 168.964059 149.261047 
L 170.47408 148.040776 
L 171.984101 146.229844 
L 175.004144 146.183614 
L 176.514165 146.310677 
L 178.024186 147.266475 
L 179.534207 148.874255 
L 181.044228 146.284188 
L 182.554249 147.725969 
L 184.064271 149.367114 
L 185.574292 150.262178 
L 187.084313 145.739688 
L 188.594334 145.900808 
L 190.104355 139.196919 
L 191.614376 146.830798 
L 193.124397 146.02291 
L 194.634419 145.828271 
L 196.14444 147.471548 
L 197.654461 151.870025 
L 199.164482 148.898768 
L 200.674503 147.038112 
L 202.184524 149.552862 
L 203.694545 147.120974 
L 205.204567 147.626883 
L 208.224609 148.062378 
L 209.73463 150.60314 
L 211.244651 153.445081 
L 212.754672 149.544192 
L 214.264693 146.865577 
L 215.774715 145.284326 
L 217.284736 145.944201 
L 218.794757 147.519037 
L 220.304778 147.472801 
L 223.32482 152.558642 
L 224.834841 154.818834 
L 227.854884 166.83415 
L 229.364905 148.681016 
L 230.874926 147.71137 
L 232.384947 161.986919 
L 233.894968 166.391634 
L 235.404989 182.921694 
L 236.915011 137.200545 
L 238.425032 143.37289 
L 239.935053 178.733291 
L 241.445074 162.200661 
L 242.955095 135.552399 
L 244.465116 165.057572 
L 245.975137 145.179314 
L 247.485159 151.409978 
L 248.99518 151.384841 
L 250.505201 129.917758 
L 252.015222 143.761148 
L 253.525243 132.643992 
L 255.035264 102.558117 
L 256.545285 115.881034 
L 258.055307 125.358421 
L 259.565328 117.302161 
L 261.075349 138.642199 
L 262.58537 124.085494 
L 264.095391 132.843887 
L 265.605412 157.243825 
L 267.115433 156.555002 
L 268.625455 158.691794 
L 270.135476 142.508039 
L 271.645497 128.709809 
L 273.155518 133.901074 
L 274.665539 140.196257 
L 276.17556 174.479907 
L 277.685581 163.495263 
L 279.195603 143.99198 
L 280.705624 152.739353 
L 282.215645 137.282855 
L 283.725666 131.89567 
L 285.235687 121.813708 
L 286.745708 133.873866 
L 288.255729 138.427686 
L 289.765751 122.390376 
L 291.275772 141.461769 
L 292.785793 128.180691 
L 294.295814 147.920623 
L 295.805835 138.475447 
L 297.315856 138.16727 
L 298.825877 145.867653 
L 300.335899 145.685618 
L 301.84592 145.182131 
L 303.355941 137.179455 
L 304.865962 135.667283 
L 306.375983 137.960462 
L 307.886004 133.496206 
L 309.396025 130.153744 
L 310.906047 134.516146 
L 312.416068 139.490596 
L 313.926089 126.872522 
L 315.43611 132.640691 
L 316.946131 132.572527 
L 318.456152 141.423053 
L 319.966173 134.97163 
L 321.476195 123.799803 
L 322.986216 128.927298 
L 324.496237 129.95494 
L 326.006258 139.373494 
L 327.516279 136.372269 
L 329.0263 132.294491 
L 330.536321 147.028487 
L 332.046342 142.889568 
L 333.556364 109.753668 
L 335.066385 100.129561 
L 336.576406 116.852242 
L 338.086427 143.658208 
L 339.596448 144.257351 
L 341.106469 124.201988 
L 342.61649 115.36596 
L 344.126512 94.405925 
L 345.636533 86.186637 
L 347.146554 118.803641 
L 348.656575 91.267945 
L 350.166596 145.048166 
L 351.676617 153.549921 
L 353.186638 144.947642 
L 354.69666 147.195587 
L 356.206681 146.112423 
L 357.716702 146.765217 
L 359.226723 147.589119 
L 360.736744 140.139474 
L 362.246765 147.918642 
L 363.756786 144.447518 
L 365.266808 144.964149 
L 366.776829 147.823435 
L 368.28685 144.587843 
L 369.796871 153.999987 
L 371.306892 136.065906 
L 372.816913 123.695363 
L 374.326934 145.612406 
L 375.836956 144.114397 
L 377.346977 146.115079 
L 378.856998 140.351396 
L 380.367019 145.093981 
L 381.87704 144.091481 
L 383.387061 146.997455 
L 384.897082 145.766997 
L 386.407104 131.184492 
L 387.917125 144.568014 
L 389.427146 153.575722 
L 390.937167 147.600956 
L 392.447188 151.363683 
L 393.957209 146.373184 
L 395.46723 167.248132 
L 396.977252 152.608476 
L 398.487273 147.610537 
L 398.487273 147.610537 
" clip-path="url(#p72aac57fca)" style="fill: none; stroke: #008000; stroke-opacity: 0.8; stroke-width: 0.5; stroke-linecap: square"/>
   </g>
   <g id="line2d_13">
    <path d="M 73.832727 129.301918 
L 75.342748 140.368641 
L 76.85277 141.38949 
L 78.362791 131.460775 
L 79.872812 135.000628 
L 81.382833 136.548954 
L 82.892854 144.217058 
L 84.402875 145.205082 
L 85.912896 143.456594 
L 87.422918 138.110375 
L 88.932939 138.526594 
L 90.44296 142.26241 
L 91.952981 145.081192 
L 93.463002 139.392624 
L 94.973023 143.229581 
L 96.483044 138.219056 
L 97.993066 137.082388 
L 99.503087 138.596279 
L 101.013108 137.659346 
L 102.523129 141.6649 
L 104.03315 144.849014 
L 105.543171 140.684015 
L 107.053192 137.317969 
L 108.563214 139.495004 
L 110.073235 136.123645 
L 111.583256 134.596495 
L 113.093277 131.347643 
L 116.113319 132.556707 
L 117.62334 140.683888 
L 119.133362 142.808376 
L 120.643383 143.615604 
L 122.153404 147.38003 
L 123.663425 143.664225 
L 125.173446 145.213215 
L 126.683467 145.63062 
L 128.193488 143.736208 
L 129.70351 139.845083 
L 131.213531 130.787128 
L 132.723552 140.337392 
L 134.233573 133.118645 
L 135.743594 130.934409 
L 137.253615 129.992342 
L 138.763636 139.5352 
L 140.273658 132.03046 
L 141.783679 133.691767 
L 143.2937 142.934967 
L 144.803721 147.650132 
L 146.313742 144.237369 
L 147.823763 145.092758 
L 149.333784 150.418424 
L 150.843805 140.217053 
L 152.353827 140.172066 
L 153.863848 137.59076 
L 155.373869 142.201919 
L 156.88389 146.253024 
L 158.393911 143.550425 
L 159.903932 144.939811 
L 161.413953 145.364168 
L 162.923975 146.04069 
L 164.433996 138.836333 
L 165.944017 144.905798 
L 167.454038 144.948345 
L 168.964059 142.944688 
L 170.47408 145.597087 
L 171.984101 144.308435 
L 173.494123 143.495271 
L 175.004144 144.494844 
L 176.514165 142.603328 
L 179.534207 146.698477 
L 181.044228 140.866765 
L 182.554249 139.263346 
L 184.064271 147.337637 
L 185.574292 146.021549 
L 187.084313 143.083334 
L 188.594334 142.825419 
L 190.104355 128.199216 
L 191.614376 141.48957 
L 196.14444 144.849263 
L 197.654461 149.77755 
L 199.164482 146.361902 
L 200.674503 144.36991 
L 202.184524 148.01608 
L 203.694545 145.855437 
L 205.204567 146.83777 
L 206.714588 146.934769 
L 208.224609 147.659673 
L 209.73463 148.013504 
L 211.244651 151.014339 
L 212.754672 145.983012 
L 214.264693 144.03865 
L 215.774715 140.264387 
L 217.284736 142.800918 
L 218.794757 144.841934 
L 221.814799 148.18858 
L 223.32482 149.394663 
L 224.834841 149.535155 
L 226.344863 149.36408 
L 227.854884 151.083659 
L 229.364905 139.591287 
L 230.874926 143.518866 
L 232.384947 153.451928 
L 233.894968 157.552364 
L 235.404989 134.005424 
L 236.915011 118.829689 
L 238.425032 126.794048 
L 239.935053 159.918997 
L 241.445074 133.697313 
L 242.955095 114.33639 
L 244.465116 141.004584 
L 245.975137 119.006859 
L 247.485159 137.177811 
L 248.99518 133.779785 
L 250.505201 108.217399 
L 252.015222 105.359264 
L 253.525243 100.847302 
L 255.035264 84.153662 
L 256.545285 102.555399 
L 258.055307 110.45582 
L 259.565328 90.536659 
L 261.075349 119.923392 
L 262.58537 113.904881 
L 264.095391 118.538964 
L 265.605412 143.022361 
L 267.115433 124.627279 
L 268.625455 148.486314 
L 270.135476 119.707927 
L 271.645497 109.386529 
L 273.155518 113.490425 
L 274.665539 127.9941 
L 276.17556 162.882452 
L 277.685581 133.859803 
L 279.195603 126.996901 
L 280.705624 141.566346 
L 282.215645 108.344358 
L 283.725666 114.78718 
L 285.235687 105.268336 
L 286.745708 122.183247 
L 288.255729 107.664532 
L 289.765751 117.292164 
L 291.275772 131.842748 
L 292.785793 104.882603 
L 294.295814 137.29424 
L 295.805835 111.698022 
L 297.315856 122.468127 
L 298.825877 130.988846 
L 300.335899 132.140025 
L 301.84592 131.949107 
L 303.355941 116.967352 
L 304.865962 121.128082 
L 306.375983 133.761303 
L 307.886004 110.732636 
L 309.396025 113.808056 
L 310.906047 128.208413 
L 312.416068 130.313667 
L 313.926089 112.79226 
L 315.43611 119.095289 
L 316.946131 120.855305 
L 318.456152 127.723077 
L 319.966173 124.326461 
L 321.476195 115.323123 
L 322.986216 118.781336 
L 324.496237 106.136596 
L 326.006258 133.5205 
L 327.516279 115.262652 
L 329.0263 118.315019 
L 330.536321 144.242824 
L 332.046342 117.556889 
L 333.556364 53.568 
L 335.066385 89.650216 
L 336.576406 77.421853 
L 338.086427 139.617658 
L 339.596448 138.974239 
L 341.106469 81.89245 
L 342.61649 85.74516 
L 344.126512 64.706794 
L 345.636533 64.359226 
L 347.146554 106.677206 
L 348.656575 68.09682 
L 350.166596 141.44232 
L 351.676617 147.17608 
L 353.186638 141.826491 
L 354.69666 133.570758 
L 356.206681 111.342259 
L 357.716702 127.039519 
L 359.226723 110.847339 
L 360.736744 104.584202 
L 362.246765 141.605233 
L 363.756786 141.850215 
L 365.266808 142.697555 
L 366.776829 144.365116 
L 368.28685 140.28985 
L 369.796871 140.77794 
L 371.306892 63.301771 
L 372.816913 83.431963 
L 374.326934 144.579856 
L 375.836956 141.869302 
L 377.346977 144.004214 
L 378.856998 133.856708 
L 380.367019 140.029138 
L 381.87704 141.489807 
L 383.387061 143.353572 
L 384.897082 141.679717 
L 386.407104 112.887317 
L 387.917125 105.762921 
L 389.427146 130.263857 
L 390.937167 125.395919 
L 392.447188 140.446061 
L 393.957209 129.426199 
L 395.46723 114.109158 
L 396.977252 143.13023 
L 398.487273 142.071553 
L 398.487273 142.071553 
" clip-path="url(#p72aac57fca)" style="fill: none; stroke: #32cd32; stroke-opacity: 0.8; stroke-width: 0.5; stroke-linecap: square"/>
   </g>
   <g id="line2d_14">
    <path d="M 73.832727 145.272003 
L 75.342748 153.083898 
L 78.362791 148.007973 
L 79.872812 147.912586 
L 81.382833 146.734453 
L 82.892854 148.064995 
L 84.402875 150.838022 
L 85.912896 149.148543 
L 87.422918 146.633023 
L 88.932939 147.361035 
L 90.44296 147.18837 
L 91.952981 149.559326 
L 93.463002 149.763264 
L 94.973023 147.711461 
L 96.483044 149.236069 
L 97.993066 152.846844 
L 99.503087 151.879988 
L 101.013108 146.284552 
L 102.523129 147.152191 
L 104.03315 148.259684 
L 105.543171 150.19985 
L 107.053192 148.106355 
L 108.563214 148.977289 
L 110.073235 142.765298 
L 111.583256 138.788566 
L 113.093277 148.585406 
L 114.603298 143.35568 
L 116.113319 143.373722 
L 117.62334 146.346764 
L 119.133362 146.994146 
L 120.643383 145.245291 
L 122.153404 149.662522 
L 123.663425 147.299255 
L 125.173446 147.86723 
L 126.683467 148.068202 
L 128.193488 147.772526 
L 129.70351 146.89463 
L 131.213531 143.098224 
L 132.723552 148.640064 
L 134.233573 148.36468 
L 135.743594 141.24946 
L 137.253615 145.260011 
L 138.763636 150.585446 
L 140.273658 145.892028 
L 141.783679 150.32049 
L 143.2937 159.826971 
L 144.803721 161.002557 
L 146.313742 151.897724 
L 147.823763 150.708127 
L 149.333784 170.219111 
L 150.843805 182.372373 
L 152.353827 152.932726 
L 153.863848 148.293974 
L 155.373869 148.832777 
L 156.88389 154.064185 
L 158.393911 149.980764 
L 159.903932 151.300927 
L 161.413953 151.533948 
L 162.923975 147.088879 
L 164.433996 146.792655 
L 165.944017 148.362519 
L 167.454038 147.813172 
L 168.964059 152.223526 
L 170.47408 151.471855 
L 171.984101 147.250086 
L 173.494123 148.318041 
L 175.004144 147.405897 
L 176.514165 148.737882 
L 178.024186 149.057758 
L 179.534207 151.186567 
L 181.044228 149.433888 
L 182.554249 151.919791 
L 184.064271 151.357209 
L 185.574292 152.919343 
L 187.084313 148.453393 
L 188.594334 148.784126 
L 190.104355 146.583762 
L 191.614376 153.111381 
L 193.124397 148.478543 
L 194.634419 149.044306 
L 196.14444 151.615712 
L 197.654461 154.854881 
L 199.164482 150.247535 
L 200.674503 149.04672 
L 202.184524 152.794318 
L 203.694545 148.338532 
L 205.204567 149.267577 
L 206.714588 149.299063 
L 208.224609 148.478573 
L 209.73463 156.252288 
L 211.244651 155.665053 
L 212.754672 152.76871 
L 214.264693 149.272469 
L 215.774715 149.532853 
L 217.284736 148.807648 
L 218.794757 149.243757 
L 220.304778 148.852397 
L 221.814799 151.10321 
L 223.32482 154.618587 
L 224.834841 158.780977 
L 226.344863 173.806095 
L 227.854884 184.676597 
L 229.364905 155.698482 
L 230.874926 152.762118 
L 233.894968 181.534216 
L 235.404989 295.488 
L 236.915011 147.001663 
L 238.425032 163.298807 
L 239.935053 207.067485 
L 241.445074 174.926177 
L 242.955095 156.127527 
L 244.465116 188.707163 
L 245.975137 171.935635 
L 247.485159 160.019536 
L 248.99518 169.861305 
L 250.505201 162.615429 
L 252.015222 170.665615 
L 253.525243 152.877229 
L 255.035264 119.466238 
L 256.545285 129.260964 
L 258.055307 148.784541 
L 259.565328 139.630678 
L 261.075349 156.946701 
L 262.58537 138.323143 
L 265.605412 174.57998 
L 267.115433 168.244335 
L 268.625455 174.118046 
L 270.135476 161.233552 
L 271.645497 156.051814 
L 273.155518 156.345035 
L 274.665539 170.139509 
L 276.17556 197.504936 
L 277.685581 173.81679 
L 279.195603 174.469271 
L 280.705624 171.779281 
L 282.215645 159.712473 
L 283.725666 142.754286 
L 285.235687 139.942801 
L 286.745708 141.174623 
L 288.255729 163.624853 
L 289.765751 129.743168 
L 291.275772 148.970776 
L 292.785793 145.481623 
L 294.295814 161.607909 
L 295.805835 152.045905 
L 297.315856 165.033574 
L 298.825877 171.962478 
L 300.335899 154.545695 
L 301.84592 156.524267 
L 303.355941 150.821459 
L 304.865962 146.133625 
L 306.375983 143.40861 
L 307.886004 151.712155 
L 309.396025 141.154501 
L 310.906047 140.225033 
L 312.416068 147.648154 
L 313.926089 140.765513 
L 315.43611 141.683751 
L 316.946131 147.827423 
L 319.966173 153.288633 
L 321.476195 135.6776 
L 322.986216 139.195161 
L 324.496237 145.529827 
L 326.006258 144.690325 
L 327.516279 154.478611 
L 329.0263 146.280838 
L 330.536321 151.269348 
L 332.046342 148.269223 
L 333.556364 148.932481 
L 335.066385 113.800544 
L 336.576406 142.425657 
L 338.086427 144.963496 
L 339.596448 147.722423 
L 341.106469 149.113693 
L 342.61649 148.117482 
L 344.126512 148.166691 
L 345.636533 119.746581 
L 347.146554 135.405996 
L 348.656575 108.361681 
L 350.166596 147.758076 
L 351.676617 159.21337 
L 353.186638 147.764577 
L 356.206681 175.572021 
L 357.716702 151.880646 
L 359.226723 157.849308 
L 360.736744 162.144883 
L 362.246765 153.20969 
L 363.756786 152.068989 
L 365.266808 147.234162 
L 366.776829 151.606783 
L 368.28685 149.027445 
L 369.796871 165.98396 
L 371.306892 164.492472 
L 372.816913 153.203356 
L 374.326934 147.213446 
L 375.836956 147.630364 
L 377.346977 149.709486 
L 378.856998 149.345861 
L 380.367019 156.134478 
L 381.87704 146.772594 
L 383.387061 150.78399 
L 384.897082 155.879215 
L 386.407104 151.902769 
L 387.917125 158.96987 
L 389.427146 171.358453 
L 390.937167 169.352562 
L 392.447188 168.227253 
L 393.957209 150.503331 
L 395.46723 206.744307 
L 396.977252 182.550225 
L 398.487273 152.205109 
L 398.487273 152.205109 
" clip-path="url(#p72aac57fca)" style="fill: none; stroke: #32cd32; stroke-opacity: 0.8; stroke-width: 0.5; stroke-linecap: square"/>
   </g>
   <g id="line2d_15">
    <path d="M 73.832727 140.874012 
L 75.342748 154.099488 
L 76.85277 149.787433 
L 78.362791 148.156076 
L 79.872812 146.839153 
L 82.892854 146.78504 
L 84.402875 151.712845 
L 85.912896 151.109421 
L 87.422918 151.328002 
L 88.932939 148.908404 
L 90.44296 146.168435 
L 91.952981 148.556465 
L 93.463002 146.610036 
L 94.973023 147.591073 
L 96.483044 150.099508 
L 97.993066 149.669928 
L 99.503087 151.643708 
L 101.013108 147.331749 
L 102.523129 147.201264 
L 104.03315 149.527314 
L 105.543171 148.960097 
L 107.053192 147.476046 
L 108.563214 148.986406 
L 110.073235 148.584664 
L 111.583256 148.441973 
L 113.093277 148.724746 
L 114.603298 148.452839 
L 116.113319 147.581142 
L 117.62334 140.198344 
L 119.133362 146.854219 
L 120.643383 147.481948 
L 122.153404 149.901611 
L 125.173446 148.314354 
L 126.683467 148.535817 
L 128.193488 148.425992 
L 129.70351 148.922421 
L 131.213531 149.232163 
L 132.723552 148.569578 
L 134.233573 148.791103 
L 135.743594 148.70603 
L 137.253615 150.169684 
L 138.763636 149.807239 
L 140.273658 149.856697 
L 141.783679 150.257656 
L 143.2937 151.866279 
L 144.803721 151.041866 
L 146.313742 149.481732 
L 147.823763 151.952667 
L 149.333784 152.828035 
L 152.353827 151.680342 
L 153.863848 149.990698 
L 155.373869 154.013637 
L 156.88389 152.345382 
L 158.393911 147.426403 
L 159.903932 153.447239 
L 161.413953 149.755444 
L 162.923975 149.299579 
L 164.433996 147.403767 
L 165.944017 150.222037 
L 167.454038 150.490411 
L 168.964059 152.108836 
L 170.47408 149.815288 
L 171.984101 147.066809 
L 173.494123 147.522501 
L 175.004144 148.830914 
L 176.514165 150.387424 
L 178.024186 149.569147 
L 179.534207 150.344564 
L 181.044228 150.79143 
L 184.064271 150.706422 
L 185.574292 149.675121 
L 187.084313 148.794625 
L 188.594334 148.111667 
L 190.104355 142.715676 
L 191.614376 150.7333 
L 193.124397 151.064712 
L 194.634419 149.930518 
L 196.14444 151.148529 
L 197.654461 152.715521 
L 199.164482 149.729505 
L 200.674503 149.324162 
L 202.184524 150.395924 
L 203.694545 149.692495 
L 205.204567 152.960059 
L 206.714588 152.363142 
L 208.224609 151.390967 
L 209.73463 154.254722 
L 211.244651 151.563301 
L 212.754672 151.266372 
L 214.264693 150.342247 
L 215.774715 149.278344 
L 217.284736 150.548536 
L 218.794757 148.584679 
L 220.304778 148.853644 
L 221.814799 150.44643 
L 223.32482 151.873902 
L 224.834841 153.904118 
L 226.344863 153.631724 
L 227.854884 156.079272 
L 229.364905 151.375055 
L 230.874926 156.166438 
L 232.384947 161.571924 
L 233.894968 166.438898 
L 235.404989 165.478044 
L 236.915011 154.403753 
L 238.425032 157.768112 
L 239.935053 172.991517 
L 241.445074 166.16226 
L 242.955095 157.677898 
L 244.465116 169.295105 
L 245.975137 153.968952 
L 247.485159 168.258483 
L 248.99518 159.429819 
L 250.505201 137.848532 
L 252.015222 177.601003 
L 253.525243 150.410163 
L 255.035264 144.669051 
L 256.545285 150.294158 
L 258.055307 150.155661 
L 259.565328 147.347082 
L 261.075349 150.569255 
L 262.58537 148.419709 
L 264.095391 162.634174 
L 265.605412 174.564853 
L 267.115433 167.791753 
L 268.625455 166.389115 
L 270.135476 158.151494 
L 271.645497 150.747954 
L 273.155518 150.796969 
L 274.665539 146.533281 
L 276.17556 176.569225 
L 277.685581 179.090496 
L 279.195603 167.104954 
L 280.705624 178.719522 
L 282.215645 154.438232 
L 283.725666 156.00617 
L 285.235687 137.362805 
L 286.745708 145.145912 
L 288.255729 153.887723 
L 289.765751 148.163647 
L 291.275772 146.139066 
L 292.785793 158.920377 
L 294.295814 160.164656 
L 295.805835 152.443048 
L 297.315856 146.552385 
L 300.335899 154.273104 
L 301.84592 162.533125 
L 303.355941 148.241007 
L 304.865962 141.559829 
L 306.375983 161.044564 
L 307.886004 148.497704 
L 309.396025 152.751301 
L 310.906047 148.83136 
L 312.416068 151.919442 
L 313.926089 131.399797 
L 315.43611 145.069791 
L 316.946131 148.803128 
L 318.456152 149.495261 
L 319.966173 154.071745 
L 321.476195 151.776361 
L 322.986216 150.963154 
L 324.496237 142.881484 
L 326.006258 148.367249 
L 327.516279 150.973848 
L 329.0263 147.926181 
L 330.536321 150.251532 
L 332.046342 147.741995 
L 333.556364 150.047471 
L 335.066385 150.991871 
L 336.576406 143.358553 
L 338.086427 148.778951 
L 339.596448 150.222028 
L 341.106469 150.215464 
L 342.61649 147.877608 
L 344.126512 148.446562 
L 345.636533 153.085465 
L 347.146554 155.972427 
L 348.656575 156.739909 
L 350.166596 153.867034 
L 351.676617 156.773702 
L 353.186638 152.09353 
L 354.69666 154.852194 
L 356.206681 162.550922 
L 357.716702 161.658244 
L 359.226723 159.7443 
L 360.736744 147.659403 
L 362.246765 153.570897 
L 363.756786 149.144665 
L 365.266808 153.905819 
L 368.28685 147.707665 
L 369.796871 160.525269 
L 371.306892 155.439152 
L 372.816913 153.278214 
L 374.326934 153.189043 
L 375.836956 152.075287 
L 377.346977 152.230627 
L 378.856998 145.569308 
L 380.367019 162.394103 
L 381.87704 156.172917 
L 383.387061 155.424152 
L 384.897082 150.665362 
L 386.407104 150.139211 
L 387.917125 152.067282 
L 389.427146 160.701325 
L 390.937167 157.942818 
L 392.447188 162.450855 
L 393.957209 152.558372 
L 395.46723 160.344063 
L 396.977252 152.23036 
L 398.487273 153.342081 
L 398.487273 153.342081 
" clip-path="url(#p72aac57fca)" style="fill: none; stroke: #ff0000; stroke-opacity: 0.8; stroke-width: 0.5; stroke-linecap: square"/>
   </g>
   <g id="line2d_16">
    <path d="M 73.832727 132.232425 
L 75.342748 148.773112 
L 76.85277 145.732366 
L 78.362791 143.252831 
L 79.872812 142.286172 
L 81.382833 142.364251 
L 82.892854 142.084417 
L 84.402875 149.014222 
L 85.912896 148.262073 
L 88.932939 146.149979 
L 90.44296 143.882122 
L 91.952981 145.31654 
L 93.463002 144.395655 
L 94.973023 146.213812 
L 96.483044 149.639291 
L 97.993066 147.442907 
L 99.503087 150.010462 
L 101.013108 144.227255 
L 102.523129 143.734852 
L 104.03315 148.084066 
L 105.543171 145.922397 
L 107.053192 145.409325 
L 108.563214 147.739941 
L 110.073235 147.939615 
L 111.583256 146.747574 
L 113.093277 148.379517 
L 114.603298 147.817386 
L 116.113319 145.187733 
L 117.62334 136.637641 
L 119.133362 139.310386 
L 120.643383 145.978761 
L 122.153404 149.049063 
L 123.663425 148.391937 
L 125.173446 146.968102 
L 126.683467 148.216301 
L 128.193488 148.133553 
L 129.70351 148.173317 
L 131.213531 147.859 
L 132.723552 148.241873 
L 134.233573 148.470212 
L 135.743594 148.321748 
L 138.763636 148.853196 
L 140.273658 148.074319 
L 141.783679 148.796508 
L 143.2937 148.659798 
L 146.313742 145.399212 
L 147.823763 149.58777 
L 149.333784 149.847313 
L 150.843805 146.165666 
L 152.353827 146.0172 
L 153.863848 145.507363 
L 155.373869 147.128027 
L 156.88389 149.394437 
L 158.393911 142.84947 
L 159.903932 147.140453 
L 161.413953 147.090089 
L 162.923975 148.234246 
L 164.433996 142.146256 
L 165.944017 147.217568 
L 167.454038 147.414523 
L 168.964059 145.335895 
L 170.47408 147.400408 
L 171.984101 144.039712 
L 173.494123 141.94123 
L 175.004144 147.508122 
L 176.514165 146.90237 
L 178.024186 148.872311 
L 179.534207 147.911253 
L 181.044228 148.797414 
L 182.554249 148.211925 
L 184.064271 148.801667 
L 185.574292 146.994022 
L 187.084313 145.408503 
L 188.594334 144.508599 
L 190.104355 131.696957 
L 191.614376 146.690934 
L 193.124397 149.481737 
L 194.634419 147.20413 
L 196.14444 149.770179 
L 197.654461 150.333415 
L 199.164482 145.715879 
L 202.184524 148.58581 
L 203.694545 147.04888 
L 205.204567 151.197844 
L 206.714588 148.197211 
L 208.224609 148.066781 
L 209.73463 150.648783 
L 211.244651 148.580417 
L 214.264693 148.167965 
L 215.774715 141.990372 
L 217.284736 147.541534 
L 218.794757 145.791154 
L 220.304778 148.033893 
L 221.814799 148.809837 
L 223.32482 148.982419 
L 224.834841 148.677812 
L 226.344863 149.368403 
L 227.854884 151.670783 
L 229.364905 142.999272 
L 230.874926 146.303534 
L 232.384947 153.015539 
L 233.894968 160.878516 
L 235.404989 140.21769 
L 236.915011 146.75375 
L 238.425032 141.12262 
L 239.935053 160.075658 
L 241.445074 121.543133 
L 242.955095 123.415055 
L 244.465116 154.859024 
L 245.975137 136.245966 
L 247.485159 155.445262 
L 248.99518 143.043554 
L 250.505201 111.83672 
L 252.015222 140.636849 
L 253.525243 112.82035 
L 255.035264 121.76011 
L 256.545285 139.074682 
L 258.055307 136.327543 
L 259.565328 122.743562 
L 261.075349 138.551816 
L 262.58537 143.774374 
L 264.095391 139.96959 
L 265.605412 160.363849 
L 267.115433 149.904087 
L 268.625455 145.399755 
L 270.135476 143.230709 
L 271.645497 129.099676 
L 273.155518 127.084155 
L 274.665539 131.742159 
L 276.17556 166.869208 
L 279.195603 134.38326 
L 280.705624 145.574959 
L 282.215645 139.300144 
L 283.725666 128.208038 
L 285.235687 115.603607 
L 286.745708 130.883335 
L 288.255729 136.08118 
L 289.765751 135.729122 
L 291.275772 136.146159 
L 292.785793 118.44856 
L 294.295814 146.137122 
L 295.805835 140.117061 
L 297.315856 127.24299 
L 298.825877 131.354692 
L 300.335899 146.701193 
L 301.84592 152.618132 
L 303.355941 138.910619 
L 304.865962 126.89642 
L 306.375983 138.357145 
L 307.886004 127.094283 
L 309.396025 123.156607 
L 310.906047 144.92907 
L 312.416068 144.351547 
L 313.926089 114.062136 
L 315.43611 91.932288 
L 316.946131 144.271971 
L 318.456152 141.757929 
L 321.476195 147.45686 
L 322.986216 144.181578 
L 324.496237 134.754839 
L 326.006258 142.643023 
L 329.0263 145.389421 
L 330.536321 147.415974 
L 332.046342 144.887768 
L 333.556364 147.902079 
L 335.066385 148.043089 
L 336.576406 126.835814 
L 338.086427 145.913117 
L 339.596448 148.102761 
L 341.106469 148.602832 
L 342.61649 143.398938 
L 344.126512 147.568545 
L 345.636533 149.274186 
L 347.146554 149.759478 
L 348.656575 149.520183 
L 350.166596 146.944226 
L 351.676617 149.28153 
L 353.186638 145.543619 
L 354.69666 145.702173 
L 356.206681 158.006436 
L 357.716702 155.920796 
L 359.226723 152.570335 
L 360.736744 141.45147 
L 362.246765 145.689147 
L 363.756786 143.764025 
L 365.266808 149.371812 
L 366.776829 147.55452 
L 368.28685 141.527905 
L 369.796871 147.228454 
L 371.306892 149.33737 
L 372.816913 146.909628 
L 374.326934 149.946435 
L 375.836956 148.989501 
L 377.346977 148.834204 
L 378.856998 136.375606 
L 380.367019 145.731858 
L 381.87704 144.827359 
L 383.387061 149.314698 
L 384.897082 147.530221 
L 386.407104 146.640364 
L 387.917125 146.452102 
L 389.427146 153.81487 
L 390.937167 150.710676 
L 392.447188 144.404257 
L 393.957209 150.386998 
L 395.46723 153.257992 
L 396.977252 146.358664 
L 398.487273 144.256173 
L 398.487273 144.256173 
" clip-path="url(#p72aac57fca)" style="fill: none; stroke: #f08080; stroke-opacity: 0.8; stroke-width: 0.5; stroke-linecap: square"/>
   </g>
   <g id="line2d_17">
    <path d="M 73.832727 152.152664 
L 75.342748 157.727445 
L 76.85277 154.754889 
L 78.362791 153.854131 
L 79.872812 151.588154 
L 81.382833 150.570345 
L 82.892854 148.631385 
L 84.402875 153.803106 
L 85.912896 154.489387 
L 87.422918 154.532044 
L 88.932939 151.258666 
L 90.44296 150.629028 
L 91.952981 149.821058 
L 93.463002 149.631303 
L 94.973023 149.605858 
L 96.483044 150.838929 
L 97.993066 153.511017 
L 99.503087 154.321519 
L 101.013108 150.724409 
L 102.523129 150.025525 
L 104.03315 150.677914 
L 105.543171 150.302755 
L 107.053192 149.416869 
L 108.563214 149.785681 
L 110.073235 148.951709 
L 111.583256 149.457963 
L 113.093277 149.104481 
L 114.603298 149.05322 
L 116.113319 149.171142 
L 117.62334 145.004597 
L 119.133362 149.953138 
L 120.643383 148.095891 
L 122.153404 151.290331 
L 123.663425 150.770234 
L 125.173446 150.065323 
L 126.683467 149.037499 
L 128.193488 149.01215 
L 129.70351 149.654438 
L 131.213531 150.052699 
L 132.723552 148.964792 
L 134.233573 149.232237 
L 135.743594 149.08273 
L 137.253615 152.419438 
L 138.763636 150.802501 
L 140.273658 150.720592 
L 141.783679 152.04207 
L 143.2937 155.264639 
L 144.803721 154.143899 
L 146.313742 152.203543 
L 147.823763 154.476943 
L 149.333784 155.762023 
L 150.843805 160.364298 
L 152.353827 157.860241 
L 153.863848 153.919579 
L 155.373869 162.771794 
L 156.88389 156.169269 
L 158.393911 150.377262 
L 159.903932 157.570306 
L 161.413953 152.388973 
L 162.923975 151.244928 
L 164.433996 152.614204 
L 165.944017 155.662755 
L 167.454038 154.464246 
L 168.964059 157.892378 
L 170.47408 151.773259 
L 171.984101 149.284594 
L 173.494123 151.010012 
L 175.004144 149.867584 
L 176.514165 154.650866 
L 178.024186 150.893425 
L 179.534207 152.919835 
L 181.044228 154.081073 
L 182.554249 153.844245 
L 185.574292 151.51727 
L 187.084313 151.904263 
L 188.594334 151.519111 
L 190.104355 153.997943 
L 191.614376 153.691583 
L 193.124397 152.365325 
L 194.634419 151.995705 
L 196.14444 154.935917 
L 197.654461 154.7065 
L 199.164482 152.803499 
L 200.674503 153.554328 
L 202.184524 152.350871 
L 203.694545 152.543851 
L 205.204567 155.161372 
L 206.714588 155.370902 
L 208.224609 154.672618 
L 209.73463 158.419403 
L 211.244651 155.021574 
L 212.754672 154.111436 
L 214.264693 152.416346 
L 215.774715 156.716998 
L 217.284736 155.534783 
L 218.794757 150.521621 
L 220.304778 149.896785 
L 221.814799 151.812063 
L 223.32482 155.847669 
L 224.834841 160.411534 
L 227.854884 159.082961 
L 229.364905 158.113394 
L 230.874926 168.140476 
L 232.384947 185.167189 
L 233.894968 174.646145 
L 235.404989 186.004271 
L 236.915011 170.126591 
L 238.425032 170.654148 
L 239.935053 192.015236 
L 241.445074 198.478492 
L 242.955095 179.099173 
L 244.465116 184.511633 
L 245.975137 166.401588 
L 247.485159 183.090131 
L 248.99518 173.42623 
L 250.505201 170.001405 
L 252.015222 231.673064 
L 253.525243 170.561089 
L 255.035264 179.57773 
L 256.545285 161.249177 
L 258.055307 166.61866 
L 259.565328 169.278525 
L 261.075349 161.783719 
L 262.58537 153.503005 
L 264.095391 196.515959 
L 265.605412 226.959167 
L 267.115433 183.970303 
L 268.625455 177.784638 
L 270.135476 187.576725 
L 271.645497 178.169867 
L 273.155518 181.164597 
L 274.665539 175.374262 
L 276.17556 187.284238 
L 277.685581 216.550578 
L 279.195603 184.628095 
L 280.705624 213.195679 
L 282.215645 188.540763 
L 283.725666 184.607481 
L 285.235687 152.528471 
L 286.745708 156.019256 
L 288.255729 166.79526 
L 289.765751 165.405009 
L 291.275772 152.001931 
L 292.785793 173.897058 
L 294.295814 171.71003 
L 295.805835 161.574851 
L 297.315856 177.38211 
L 298.825877 169.445311 
L 300.335899 162.155635 
L 301.84592 167.331756 
L 303.355941 156.845736 
L 304.865962 154.279835 
L 306.375983 210.094396 
L 307.886004 191.257975 
L 309.396025 176.411817 
L 310.906047 153.51399 
L 312.416068 162.522693 
L 313.926089 147.911769 
L 315.43611 156.328917 
L 316.946131 156.539763 
L 318.456152 159.269129 
L 319.966173 161.069444 
L 321.476195 158.842778 
L 324.496237 150.305929 
L 326.006258 156.02286 
L 327.516279 159.892699 
L 329.0263 150.00682 
L 330.536321 153.463126 
L 332.046342 149.672884 
L 333.556364 154.773878 
L 335.066385 154.624897 
L 336.576406 151.421305 
L 338.086427 149.985097 
L 339.596448 152.976111 
L 341.106469 152.058083 
L 342.61649 149.545822 
L 344.126512 149.644281 
L 345.636533 163.2868 
L 347.146554 160.352209 
L 348.656575 163.760042 
L 350.166596 164.753067 
L 351.676617 166.780755 
L 353.186638 161.169811 
L 354.69666 166.60131 
L 356.206681 168.272679 
L 357.716702 171.097428 
L 359.226723 165.494835 
L 360.736744 151.988499 
L 362.246765 164.319026 
L 363.756786 153.89121 
L 365.266808 156.357152 
L 366.776829 155.677134 
L 368.28685 150.723231 
L 369.796871 166.513075 
L 371.306892 161.459884 
L 372.816913 158.319951 
L 374.326934 157.089534 
L 375.836956 154.225402 
L 377.346977 155.030405 
L 378.856998 154.094004 
L 380.367019 177.409464 
L 381.87704 169.788814 
L 383.387061 175.216684 
L 384.897082 156.717103 
L 386.407104 152.133182 
L 387.917125 157.443884 
L 389.427146 170.119423 
L 390.937167 164.509961 
L 392.447188 172.395115 
L 393.957209 155.678658 
L 395.46723 169.85904 
L 396.977252 157.582542 
L 398.487273 167.778801 
L 398.487273 167.778801 
" clip-path="url(#p72aac57fca)" style="fill: none; stroke: #f08080; stroke-opacity: 0.8; stroke-width: 0.5; stroke-linecap: square"/>
   </g>
   <g id="patch_3">
    <path d="M 57.6 307.584 
L 57.6 41.472 
" style="fill: none; stroke: #000000; stroke-width: 0.8; stroke-linejoin: miter; stroke-linecap: square"/>
   </g>
   <g id="patch_4">
    <path d="M 414.72 307.584 
L 414.72 41.472 
" style="fill: none; stroke: #000000; stroke-width: 0.8; stroke-linejoin: miter; stroke-linecap: square"/>
   </g>
   <g id="patch_5">
    <path d="M 57.6 307.584 
L 414.72 307.584 
" style="fill: none; stroke: #000000; stroke-width: 0.8; stroke-linejoin: miter; stroke-linecap: square"/>
   </g>
   <g id="patch_6">
    <path d="M 57.6 41.472 
L 414.72 41.472 
" style="fill: none; stroke: #000000; stroke-width: 0.8; stroke-linejoin: miter; stroke-linecap: square"/>
   </g>
   <g id="text_12">
    <!-- naive_btcusd -->
    <g transform="translate(196.573125 35.472) scale(0.12 -0.12)">
     <defs>
      <path id="DejaVuSans-6e" d="M 3513 2113 
L 3513 0 
L 2938 0 
L 2938 2094 
Q 2938 2591 2744 2837 
Q 2550 3084 2163 3084 
Q 1697 3084 1428 2787 
Q 1159 2491 1159 1978 
L 1159 0 
L 581 0 
L 581 3500 
L 1159 3500 
L 1159 2956 
Q 1366 3272 1645 3428 
Q 1925 3584 2291 3584 
Q 2894 3584 3203 3211 
Q 3513 2838 3513 2113 
z
" transform="scale(0.015625)"/>
      <path id="DejaVuSans-61" d="M 2194 1759 
Q 1497 1759 1228 1600 
Q 959 1441 959 1056 
Q 959 750 1161 570 
Q 1363 391 1709 391 
Q 2188 391 2477 730 
Q 2766 1069 2766 1631 
L 2766 1759 
L 2194 1759 
z
M 3341 1997 
L 3341 0 
L 2766 0 
L 2766 531 
Q 2569 213 2275 61 
Q 1981 -91 1556 -91 
Q 1019 -91 701 211 
Q 384 513 384 1019 
Q 384 1609 779 1909 
Q 1175 2209 1959 2209 
L 2766 2209 
L 2766 2266 
Q 2766 2663 2505 2880 
Q 2244 3097 1772 3097 
Q 1472 3097 1187 3025 
Q 903 2953 641 2809 
L 641 3341 
Q 956 3463 1253 3523 
Q 1550 3584 1831 3584 
Q 2591 3584 2966 3190 
Q 3341 2797 3341 1997 
z
" transform="scale(0.015625)"/>
      <path id="DejaVuSans-69" d="M 603 3500 
L 1178 3500 
L 1178 0 
L 603 0 
L 603 3500 
z
M 603 4863 
L 1178 4863 
L 1178 4134 
L 603 4134 
L 603 4863 
z
" transform="scale(0.015625)"/>
      <path id="DejaVuSans-76" d="M 191 3500 
L 800 3500 
L 1894 563 
L 2988 3500 
L 3597 3500 
L 2284 0 
L 1503 0 
L 191 3500 
z
" transform="scale(0.015625)"/>
      <path id="DejaVuSans-65" d="M 3597 1894 
L 3597 1613 
L 953 1613 
Q 991 1019 1311 708 
Q 1631 397 2203 397 
Q 2534 397 2845 478 
Q 3156 559 3463 722 
L 3463 178 
Q 3153 47 2828 -22 
Q 2503 -91 2169 -91 
Q 1331 -91 842 396 
Q 353 884 353 1716 
Q 353 2575 817 3079 
Q 1281 3584 2069 3584 
Q 2775 3584 3186 3129 
Q 3597 2675 3597 1894 
z
M 3022 2063 
Q 3016 2534 2758 2815 
Q 2500 3097 2075 3097 
Q 1594 3097 1305 2825 
Q 1016 2553 972 2059 
L 3022 2063 
z
" transform="scale(0.015625)"/>
      <path id="DejaVuSans-5f" d="M 3263 -1063 
L 3263 -1509 
L -63 -1509 
L -63 -1063 
L 3263 -1063 
z
" transform="scale(0.015625)"/>
      <path id="DejaVuSans-62" d="M 3116 1747 
Q 3116 2381 2855 2742 
Q 2594 3103 2138 3103 
Q 1681 3103 1420 2742 
Q 1159 2381 1159 1747 
Q 1159 1113 1420 752 
Q 1681 391 2138 391 
Q 2594 391 2855 752 
Q 3116 1113 3116 1747 
z
M 1159 2969 
Q 1341 3281 1617 3432 
Q 1894 3584 2278 3584 
Q 2916 3584 3314 3078 
Q 3713 2572 3713 1747 
Q 3713 922 3314 415 
Q 2916 -91 2278 -91 
Q 1894 -91 1617 61 
Q 1341 213 1159 525 
L 1159 0 
L 581 0 
L 581 4863 
L 1159 4863 
L 1159 2969 
z
" transform="scale(0.015625)"/>
      <path id="DejaVuSans-74" d="M 1172 4494 
L 1172 3500 
L 2356 3500 
L 2356 3053 
L 1172 3053 
L 1172 1153 
Q 1172 725 1289 603 
Q 1406 481 1766 481 
L 2356 481 
L 2356 0 
L 1766 0 
Q 1100 0 847 248 
Q 594 497 594 1153 
L 594 3053 
L 172 3053 
L 172 3500 
L 594 3500 
L 594 4494 
L 1172 4494 
z
" transform="scale(0.015625)"/>
      <path id="DejaVuSans-63" d="M 3122 3366 
L 3122 2828 
Q 2878 2963 2633 3030 
Q 2388 3097 2138 3097 
Q 1578 3097 1268 2742 
Q 959 2388 959 1747 
Q 959 1106 1268 751 
Q 1578 397 2138 397 
Q 2388 397 2633 464 
Q 2878 531 3122 666 
L 3122 134 
Q 2881 22 2623 -34 
Q 2366 -91 2075 -91 
Q 1284 -91 818 406 
Q 353 903 353 1747 
Q 353 2603 823 3093 
Q 1294 3584 2113 3584 
Q 2378 3584 2631 3529 
Q 2884 3475 3122 3366 
z
" transform="scale(0.015625)"/>
      <path id="DejaVuSans-75" d="M 544 1381 
L 544 3500 
L 1119 3500 
L 1119 1403 
Q 1119 906 1312 657 
Q 1506 409 1894 409 
Q 2359 409 2629 706 
Q 2900 1003 2900 1516 
L 2900 3500 
L 3475 3500 
L 3475 0 
L 2900 0 
L 2900 538 
Q 2691 219 2414 64 
Q 2138 -91 1772 -91 
Q 1169 -91 856 284 
Q 544 659 544 1381 
z
M 1991 3584 
L 1991 3584 
z
" transform="scale(0.015625)"/>
      <path id="DejaVuSans-73" d="M 2834 3397 
L 2834 2853 
Q 2591 2978 2328 3040 
Q 2066 3103 1784 3103 
Q 1356 3103 1142 2972 
Q 928 2841 928 2578 
Q 928 2378 1081 2264 
Q 1234 2150 1697 2047 
L 1894 2003 
Q 2506 1872 2764 1633 
Q 3022 1394 3022 966 
Q 3022 478 2636 193 
Q 2250 -91 1575 -91 
Q 1294 -91 989 -36 
Q 684 19 347 128 
L 347 722 
Q 666 556 975 473 
Q 1284 391 1588 391 
Q 1994 391 2212 530 
Q 2431 669 2431 922 
Q 2431 1156 2273 1281 
Q 2116 1406 1581 1522 
L 1381 1569 
Q 847 1681 609 1914 
Q 372 2147 372 2553 
Q 372 3047 722 3315 
Q 1072 3584 1716 3584 
Q 2034 3584 2315 3537 
Q 2597 3491 2834 3397 
z
" transform="scale(0.015625)"/>
      <path id="DejaVuSans-64" d="M 2906 2969 
L 2906 4863 
L 3481 4863 
L 3481 0 
L 2906 0 
L 2906 525 
Q 2725 213 2448 61 
Q 2172 -91 1784 -91 
Q 1150 -91 751 415 
Q 353 922 353 1747 
Q 353 2572 751 3078 
Q 1150 3584 1784 3584 
Q 2172 3584 2448 3432 
Q 2725 3281 2906 2969 
z
M 947 1747 
Q 947 1113 1208 752 
Q 1469 391 1925 391 
Q 2381 391 2643 752 
Q 2906 1113 2906 1747 
Q 2906 2381 2643 2742 
Q 2381 3103 1925 3103 
Q 1469 3103 1208 2742 
Q 947 2381 947 1747 
z
" transform="scale(0.015625)"/>
     </defs>
     <use xlink:href="#DejaVuSans-6e"/>
     <use xlink:href="#DejaVuSans-61" x="63.378906"/>
     <use xlink:href="#DejaVuSans-69" x="124.658203"/>
     <use xlink:href="#DejaVuSans-76" x="152.441406"/>
     <use xlink:href="#DejaVuSans-65" x="211.621094"/>
     <use xlink:href="#DejaVuSans-5f" x="273.144531"/>
     <use xlink:href="#DejaVuSans-62" x="323.144531"/>
     <use xlink:href="#DejaVuSans-74" x="386.621094"/>
     <use xlink:href="#DejaVuSans-63" x="425.830078"/>
     <use xlink:href="#DejaVuSans-75" x="480.810547"/>
     <use xlink:href="#DejaVuSans-73" x="544.189453"/>
     <use xlink:href="#DejaVuSans-64" x="596.289062"/>
    </g>
   </g>
   <g id="legend_1">
    <g id="patch_7">
     <path d="M 64.6 302.584 
L 225.001563 302.584 
Q 227.001563 302.584 227.001563 300.584 
L 227.001563 213.51525 
Q 227.001563 211.51525 225.001563 211.51525 
L 64.6 211.51525 
Q 62.6 211.51525 62.6 213.51525 
L 62.6 300.584 
Q 62.6 302.584 64.6 302.584 
z
" style="fill: #ffffff; opacity: 0.8; stroke: #cccccc; stroke-linejoin: miter"/>
    </g>
    <g id="line2d_18">
     <path d="M 66.6 219.613687 
L 76.6 219.613687 
L 86.6 219.613687 
" style="fill: none; stroke: #008000; stroke-opacity: 0.8; stroke-width: 0.5; stroke-linecap: square"/>
    </g>
    <g id="text_13">
     <!-- Positive predictions -->
     <g transform="translate(94.6 223.113687) scale(0.1 -0.1)">
      <defs>
       <path id="DejaVuSans-50" d="M 1259 4147 
L 1259 2394 
L 2053 2394 
Q 2494 2394 2734 2622 
Q 2975 2850 2975 3272 
Q 2975 3691 2734 3919 
Q 2494 4147 2053 4147 
L 1259 4147 
z
M 628 4666 
L 2053 4666 
Q 2838 4666 3239 4311 
Q 3641 3956 3641 3272 
Q 3641 2581 3239 2228 
Q 2838 1875 2053 1875 
L 1259 1875 
L 1259 0 
L 628 0 
L 628 4666 
z
" transform="scale(0.015625)"/>
       <path id="DejaVuSans-6f" d="M 1959 3097 
Q 1497 3097 1228 2736 
Q 959 2375 959 1747 
Q 959 1119 1226 758 
Q 1494 397 1959 397 
Q 2419 397 2687 759 
Q 2956 1122 2956 1747 
Q 2956 2369 2687 2733 
Q 2419 3097 1959 3097 
z
M 1959 3584 
Q 2709 3584 3137 3096 
Q 3566 2609 3566 1747 
Q 3566 888 3137 398 
Q 2709 -91 1959 -91 
Q 1206 -91 779 398 
Q 353 888 353 1747 
Q 353 2609 779 3096 
Q 1206 3584 1959 3584 
z
" transform="scale(0.015625)"/>
       <path id="DejaVuSans-20" transform="scale(0.015625)"/>
       <path id="DejaVuSans-70" d="M 1159 525 
L 1159 -1331 
L 581 -1331 
L 581 3500 
L 1159 3500 
L 1159 2969 
Q 1341 3281 1617 3432 
Q 1894 3584 2278 3584 
Q 2916 3584 3314 3078 
Q 3713 2572 3713 1747 
Q 3713 922 3314 415 
Q 2916 -91 2278 -91 
Q 1894 -91 1617 61 
Q 1341 213 1159 525 
z
M 3116 1747 
Q 3116 2381 2855 2742 
Q 2594 3103 2138 3103 
Q 1681 3103 1420 2742 
Q 1159 2381 1159 1747 
Q 1159 1113 1420 752 
Q 1681 391 2138 391 
Q 2594 391 2855 752 
Q 3116 1113 3116 1747 
z
" transform="scale(0.015625)"/>
       <path id="DejaVuSans-72" d="M 2631 2963 
Q 2534 3019 2420 3045 
Q 2306 3072 2169 3072 
Q 1681 3072 1420 2755 
Q 1159 2438 1159 1844 
L 1159 0 
L 581 0 
L 581 3500 
L 1159 3500 
L 1159 2956 
Q 1341 3275 1631 3429 
Q 1922 3584 2338 3584 
Q 2397 3584 2469 3576 
Q 2541 3569 2628 3553 
L 2631 2963 
z
" transform="scale(0.015625)"/>
      </defs>
      <use xlink:href="#DejaVuSans-50"/>
      <use xlink:href="#DejaVuSans-6f" x="56.677734"/>
      <use xlink:href="#DejaVuSans-73" x="117.859375"/>
      <use xlink:href="#DejaVuSans-69" x="169.958984"/>
      <use xlink:href="#DejaVuSans-74" x="197.742188"/>
      <use xlink:href="#DejaVuSans-69" x="236.951172"/>
      <use xlink:href="#DejaVuSans-76" x="264.734375"/>
      <use xlink:href="#DejaVuSans-65" x="323.914062"/>
      <use xlink:href="#DejaVuSans-20" x="385.4375"/>
      <use xlink:href="#DejaVuSans-70" x="417.224609"/>
      <use xlink:href="#DejaVuSans-72" x="480.701172"/>
      <use xlink:href="#DejaVuSans-65" x="519.564453"/>
      <use xlink:href="#DejaVuSans-64" x="581.087891"/>
      <use xlink:href="#DejaVuSans-69" x="644.564453"/>
      <use xlink:href="#DejaVuSans-63" x="672.347656"/>
      <use xlink:href="#DejaVuSans-74" x="727.328125"/>
      <use xlink:href="#DejaVuSans-69" x="766.537109"/>
      <use xlink:href="#DejaVuSans-6f" x="794.320312"/>
      <use xlink:href="#DejaVuSans-6e" x="855.501953"/>
      <use xlink:href="#DejaVuSans-73" x="918.880859"/>
     </g>
    </g>
    <g id="line2d_19">
     <path d="M 66.6 234.291812 
L 76.6 234.291812 
L 86.6 234.291812 
" style="fill: none; stroke: #32cd32; stroke-opacity: 0.8; stroke-width: 0.5; stroke-linecap: square"/>
    </g>
    <g id="text_14">
     <!-- Positive predictions max -->
     <g transform="translate(94.6 237.791812) scale(0.1 -0.1)">
      <defs>
       <path id="DejaVuSans-6d" d="M 3328 2828 
Q 3544 3216 3844 3400 
Q 4144 3584 4550 3584 
Q 5097 3584 5394 3201 
Q 5691 2819 5691 2113 
L 5691 0 
L 5113 0 
L 5113 2094 
Q 5113 2597 4934 2840 
Q 4756 3084 4391 3084 
Q 3944 3084 3684 2787 
Q 3425 2491 3425 1978 
L 3425 0 
L 2847 0 
L 2847 2094 
Q 2847 2600 2669 2842 
Q 2491 3084 2119 3084 
Q 1678 3084 1418 2786 
Q 1159 2488 1159 1978 
L 1159 0 
L 581 0 
L 581 3500 
L 1159 3500 
L 1159 2956 
Q 1356 3278 1631 3431 
Q 1906 3584 2284 3584 
Q 2666 3584 2933 3390 
Q 3200 3197 3328 2828 
z
" transform="scale(0.015625)"/>
       <path id="DejaVuSans-78" d="M 3513 3500 
L 2247 1797 
L 3578 0 
L 2900 0 
L 1881 1375 
L 863 0 
L 184 0 
L 1544 1831 
L 300 3500 
L 978 3500 
L 1906 2253 
L 2834 3500 
L 3513 3500 
z
" transform="scale(0.015625)"/>
      </defs>
      <use xlink:href="#DejaVuSans-50"/>
      <use xlink:href="#DejaVuSans-6f" x="56.677734"/>
      <use xlink:href="#DejaVuSans-73" x="117.859375"/>
      <use xlink:href="#DejaVuSans-69" x="169.958984"/>
      <use xlink:href="#DejaVuSans-74" x="197.742188"/>
      <use xlink:href="#DejaVuSans-69" x="236.951172"/>
      <use xlink:href="#DejaVuSans-76" x="264.734375"/>
      <use xlink:href="#DejaVuSans-65" x="323.914062"/>
      <use xlink:href="#DejaVuSans-20" x="385.4375"/>
      <use xlink:href="#DejaVuSans-70" x="417.224609"/>
      <use xlink:href="#DejaVuSans-72" x="480.701172"/>
      <use xlink:href="#DejaVuSans-65" x="519.564453"/>
      <use xlink:href="#DejaVuSans-64" x="581.087891"/>
      <use xlink:href="#DejaVuSans-69" x="644.564453"/>
      <use xlink:href="#DejaVuSans-63" x="672.347656"/>
      <use xlink:href="#DejaVuSans-74" x="727.328125"/>
      <use xlink:href="#DejaVuSans-69" x="766.537109"/>
      <use xlink:href="#DejaVuSans-6f" x="794.320312"/>
      <use xlink:href="#DejaVuSans-6e" x="855.501953"/>
      <use xlink:href="#DejaVuSans-73" x="918.880859"/>
      <use xlink:href="#DejaVuSans-20" x="970.980469"/>
      <use xlink:href="#DejaVuSans-6d" x="1002.767578"/>
      <use xlink:href="#DejaVuSans-61" x="1100.179688"/>
      <use xlink:href="#DejaVuSans-78" x="1161.458984"/>
     </g>
    </g>
    <g id="line2d_20">
     <path d="M 66.6 248.969937 
L 76.6 248.969937 
L 86.6 248.969937 
" style="fill: none; stroke: #32cd32; stroke-opacity: 0.8; stroke-width: 0.5; stroke-linecap: square"/>
    </g>
    <g id="text_15">
     <!-- Positive predictions min -->
     <g transform="translate(94.6 252.469937) scale(0.1 -0.1)">
      <use xlink:href="#DejaVuSans-50"/>
      <use xlink:href="#DejaVuSans-6f" x="56.677734"/>
      <use xlink:href="#DejaVuSans-73" x="117.859375"/>
      <use xlink:href="#DejaVuSans-69" x="169.958984"/>
      <use xlink:href="#DejaVuSans-74" x="197.742188"/>
      <use xlink:href="#DejaVuSans-69" x="236.951172"/>
      <use xlink:href="#DejaVuSans-76" x="264.734375"/>
      <use xlink:href="#DejaVuSans-65" x="323.914062"/>
      <use xlink:href="#DejaVuSans-20" x="385.4375"/>
      <use xlink:href="#DejaVuSans-70" x="417.224609"/>
      <use xlink:href="#DejaVuSans-72" x="480.701172"/>
      <use xlink:href="#DejaVuSans-65" x="519.564453"/>
      <use xlink:href="#DejaVuSans-64" x="581.087891"/>
      <use xlink:href="#DejaVuSans-69" x="644.564453"/>
      <use xlink:href="#DejaVuSans-63" x="672.347656"/>
      <use xlink:href="#DejaVuSans-74" x="727.328125"/>
      <use xlink:href="#DejaVuSans-69" x="766.537109"/>
      <use xlink:href="#DejaVuSans-6f" x="794.320312"/>
      <use xlink:href="#DejaVuSans-6e" x="855.501953"/>
      <use xlink:href="#DejaVuSans-73" x="918.880859"/>
      <use xlink:href="#DejaVuSans-20" x="970.980469"/>
      <use xlink:href="#DejaVuSans-6d" x="1002.767578"/>
      <use xlink:href="#DejaVuSans-69" x="1100.179688"/>
      <use xlink:href="#DejaVuSans-6e" x="1127.962891"/>
     </g>
    </g>
    <g id="line2d_21">
     <path d="M 66.6 263.648062 
L 76.6 263.648062 
L 86.6 263.648062 
" style="fill: none; stroke: #ff0000; stroke-opacity: 0.8; stroke-width: 0.5; stroke-linecap: square"/>
    </g>
    <g id="text_16">
     <!-- Negative predictions -->
     <g transform="translate(94.6 267.148062) scale(0.1 -0.1)">
      <defs>
       <path id="DejaVuSans-4e" d="M 628 4666 
L 1478 4666 
L 3547 763 
L 3547 4666 
L 4159 4666 
L 4159 0 
L 3309 0 
L 1241 3903 
L 1241 0 
L 628 0 
L 628 4666 
z
" transform="scale(0.015625)"/>
       <path id="DejaVuSans-67" d="M 2906 1791 
Q 2906 2416 2648 2759 
Q 2391 3103 1925 3103 
Q 1463 3103 1205 2759 
Q 947 2416 947 1791 
Q 947 1169 1205 825 
Q 1463 481 1925 481 
Q 2391 481 2648 825 
Q 2906 1169 2906 1791 
z
M 3481 434 
Q 3481 -459 3084 -895 
Q 2688 -1331 1869 -1331 
Q 1566 -1331 1297 -1286 
Q 1028 -1241 775 -1147 
L 775 -588 
Q 1028 -725 1275 -790 
Q 1522 -856 1778 -856 
Q 2344 -856 2625 -561 
Q 2906 -266 2906 331 
L 2906 616 
Q 2728 306 2450 153 
Q 2172 0 1784 0 
Q 1141 0 747 490 
Q 353 981 353 1791 
Q 353 2603 747 3093 
Q 1141 3584 1784 3584 
Q 2172 3584 2450 3431 
Q 2728 3278 2906 2969 
L 2906 3500 
L 3481 3500 
L 3481 434 
z
" transform="scale(0.015625)"/>
      </defs>
      <use xlink:href="#DejaVuSans-4e"/>
      <use xlink:href="#DejaVuSans-65" x="74.804688"/>
      <use xlink:href="#DejaVuSans-67" x="136.328125"/>
      <use xlink:href="#DejaVuSans-61" x="199.804688"/>
      <use xlink:href="#DejaVuSans-74" x="261.083984"/>
      <use xlink:href="#DejaVuSans-69" x="300.292969"/>
      <use xlink:href="#DejaVuSans-76" x="328.076172"/>
      <use xlink:href="#DejaVuSans-65" x="387.255859"/>
      <use xlink:href="#DejaVuSans-20" x="448.779297"/>
      <use xlink:href="#DejaVuSans-70" x="480.566406"/>
      <use xlink:href="#DejaVuSans-72" x="544.042969"/>
      <use xlink:href="#DejaVuSans-65" x="582.90625"/>
      <use xlink:href="#DejaVuSans-64" x="644.429688"/>
      <use xlink:href="#DejaVuSans-69" x="707.90625"/>
      <use xlink:href="#DejaVuSans-63" x="735.689453"/>
      <use xlink:href="#DejaVuSans-74" x="790.669922"/>
      <use xlink:href="#DejaVuSans-69" x="829.878906"/>
      <use xlink:href="#DejaVuSans-6f" x="857.662109"/>
      <use xlink:href="#DejaVuSans-6e" x="918.84375"/>
      <use xlink:href="#DejaVuSans-73" x="982.222656"/>
     </g>
    </g>
    <g id="line2d_22">
     <path d="M 66.6 278.326188 
L 76.6 278.326188 
L 86.6 278.326188 
" style="fill: none; stroke: #f08080; stroke-opacity: 0.8; stroke-width: 0.5; stroke-linecap: square"/>
    </g>
    <g id="text_17">
     <!-- Negative predictions max -->
     <g transform="translate(94.6 281.826188) scale(0.1 -0.1)">
      <use xlink:href="#DejaVuSans-4e"/>
      <use xlink:href="#DejaVuSans-65" x="74.804688"/>
      <use xlink:href="#DejaVuSans-67" x="136.328125"/>
      <use xlink:href="#DejaVuSans-61" x="199.804688"/>
      <use xlink:href="#DejaVuSans-74" x="261.083984"/>
      <use xlink:href="#DejaVuSans-69" x="300.292969"/>
      <use xlink:href="#DejaVuSans-76" x="328.076172"/>
      <use xlink:href="#DejaVuSans-65" x="387.255859"/>
      <use xlink:href="#DejaVuSans-20" x="448.779297"/>
      <use xlink:href="#DejaVuSans-70" x="480.566406"/>
      <use xlink:href="#DejaVuSans-72" x="544.042969"/>
      <use xlink:href="#DejaVuSans-65" x="582.90625"/>
      <use xlink:href="#DejaVuSans-64" x="644.429688"/>
      <use xlink:href="#DejaVuSans-69" x="707.90625"/>
      <use xlink:href="#DejaVuSans-63" x="735.689453"/>
      <use xlink:href="#DejaVuSans-74" x="790.669922"/>
      <use xlink:href="#DejaVuSans-69" x="829.878906"/>
      <use xlink:href="#DejaVuSans-6f" x="857.662109"/>
      <use xlink:href="#DejaVuSans-6e" x="918.84375"/>
      <use xlink:href="#DejaVuSans-73" x="982.222656"/>
      <use xlink:href="#DejaVuSans-20" x="1034.322266"/>
      <use xlink:href="#DejaVuSans-6d" x="1066.109375"/>
      <use xlink:href="#DejaVuSans-61" x="1163.521484"/>
      <use xlink:href="#DejaVuSans-78" x="1224.800781"/>
     </g>
    </g>
    <g id="line2d_23">
     <path d="M 66.6 293.004312 
L 76.6 293.004312 
L 86.6 293.004312 
" style="fill: none; stroke: #f08080; stroke-opacity: 0.8; stroke-width: 0.5; stroke-linecap: square"/>
    </g>
    <g id="text_18">
     <!-- Negative predictions min -->
     <g transform="translate(94.6 296.504312) scale(0.1 -0.1)">
      <use xlink:href="#DejaVuSans-4e"/>
      <use xlink:href="#DejaVuSans-65" x="74.804688"/>
      <use xlink:href="#DejaVuSans-67" x="136.328125"/>
      <use xlink:href="#DejaVuSans-61" x="199.804688"/>
      <use xlink:href="#DejaVuSans-74" x="261.083984"/>
      <use xlink:href="#DejaVuSans-69" x="300.292969"/>
      <use xlink:href="#DejaVuSans-76" x="328.076172"/>
      <use xlink:href="#DejaVuSans-65" x="387.255859"/>
      <use xlink:href="#DejaVuSans-20" x="448.779297"/>
      <use xlink:href="#DejaVuSans-70" x="480.566406"/>
      <use xlink:href="#DejaVuSans-72" x="544.042969"/>
      <use xlink:href="#DejaVuSans-65" x="582.90625"/>
      <use xlink:href="#DejaVuSans-64" x="644.429688"/>
      <use xlink:href="#DejaVuSans-69" x="707.90625"/>
      <use xlink:href="#DejaVuSans-63" x="735.689453"/>
      <use xlink:href="#DejaVuSans-74" x="790.669922"/>
      <use xlink:href="#DejaVuSans-69" x="829.878906"/>
      <use xlink:href="#DejaVuSans-6f" x="857.662109"/>
      <use xlink:href="#DejaVuSans-6e" x="918.84375"/>
      <use xlink:href="#DejaVuSans-73" x="982.222656"/>
      <use xlink:href="#DejaVuSans-20" x="1034.322266"/>
      <use xlink:href="#DejaVuSans-6d" x="1066.109375"/>
      <use xlink:href="#DejaVuSans-69" x="1163.521484"/>
      <use xlink:href="#DejaVuSans-6e" x="1191.304688"/>
     </g>
    </g>
   </g>
  </g>
 </g>
 <defs>
  <clipPath id="p72aac57fca">
   <rect x="57.6" y="41.472" width="357.12" height="266.112"/>
  </clipPath>
 </defs>
</svg>
