<?xml version="1.0" encoding="utf-8" standalone="no"?>
<!DOCTYPE svg PUBLIC "-//W3C//DTD SVG 1.1//EN"
  "http://www.w3.org/Graphics/SVG/1.1/DTD/svg11.dtd">
<svg xmlns:xlink="http://www.w3.org/1999/xlink" width="460.8pt" height="345.6pt" viewBox="0 0 460.8 345.6" xmlns="http://www.w3.org/2000/svg" version="1.1">
 <metadata>
  <rdf:RDF xmlns:dc="http://purl.org/dc/elements/1.1/" xmlns:cc="http://creativecommons.org/ns#" xmlns:rdf="http://www.w3.org/1999/02/22-rdf-syntax-ns#">
   <cc:Work>
    <dc:type rdf:resource="http://purl.org/dc/dcmitype/StillImage"/>
    <dc:date>2024-08-21T08:51:10.139436</dc:date>
    <dc:format>image/svg+xml</dc:format>
    <dc:creator>
     <cc:Agent>
      <dc:title>Matplotlib v3.9.0, https://matplotlib.org/</dc:title>
     </cc:Agent>
    </dc:creator>
   </cc:Work>
  </rdf:RDF>
 </metadata>
 <defs>
  <style type="text/css">*{stroke-linejoin: round; stroke-linecap: butt}</style>
 </defs>
 <g id="figure_1">
  <g id="patch_1">
   <path d="M 0 345.6 
L 460.8 345.6 
L 460.8 0 
L 0 0 
z
" style="fill: #ffffff"/>
  </g>
  <g id="axes_1">
   <g id="patch_2">
    <path d="M 57.6 307.584 
L 414.72 307.584 
L 414.72 41.472 
L 57.6 41.472 
z
" style="fill: #ffffff"/>
   </g>
   <g id="matplotlib.axis_1">
    <g id="xtick_1">
     <g id="line2d_1">
      <defs>
       <path id="mc205da7908" d="M 0 0 
L 0 3.5 
" style="stroke: #000000; stroke-width: 0.8"/>
      </defs>
      <g>
       <use xlink:href="#mc205da7908" x="73.832727" y="307.584" style="stroke: #000000; stroke-width: 0.8"/>
      </g>
     </g>
     <g id="text_1">
      <!-- 0 -->
      <g transform="translate(70.651477 322.182437) scale(0.1 -0.1)">
       <defs>
        <path id="DejaVuSans-30" d="M 2034 4250 
Q 1547 4250 1301 3770 
Q 1056 3291 1056 2328 
Q 1056 1369 1301 889 
Q 1547 409 2034 409 
Q 2525 409 2770 889 
Q 3016 1369 3016 2328 
Q 3016 3291 2770 3770 
Q 2525 4250 2034 4250 
z
M 2034 4750 
Q 2819 4750 3233 4129 
Q 3647 3509 3647 2328 
Q 3647 1150 3233 529 
Q 2819 -91 2034 -91 
Q 1250 -91 836 529 
Q 422 1150 422 2328 
Q 422 3509 836 4129 
Q 1250 4750 2034 4750 
z
" transform="scale(0.015625)"/>
       </defs>
       <use xlink:href="#DejaVuSans-30"/>
      </g>
     </g>
    </g>
    <g id="xtick_2">
     <g id="line2d_2">
      <g>
       <use xlink:href="#mc205da7908" x="149.333784" y="307.584" style="stroke: #000000; stroke-width: 0.8"/>
      </g>
     </g>
     <g id="text_2">
      <!-- 50 -->
      <g transform="translate(142.971284 322.182437) scale(0.1 -0.1)">
       <defs>
        <path id="DejaVuSans-35" d="M 691 4666 
L 3169 4666 
L 3169 4134 
L 1269 4134 
L 1269 2991 
Q 1406 3038 1543 3061 
Q 1681 3084 1819 3084 
Q 2600 3084 3056 2656 
Q 3513 2228 3513 1497 
Q 3513 744 3044 326 
Q 2575 -91 1722 -91 
Q 1428 -91 1123 -41 
Q 819 9 494 109 
L 494 744 
Q 775 591 1075 516 
Q 1375 441 1709 441 
Q 2250 441 2565 725 
Q 2881 1009 2881 1497 
Q 2881 1984 2565 2268 
Q 2250 2553 1709 2553 
Q 1456 2553 1204 2497 
Q 953 2441 691 2322 
L 691 4666 
z
" transform="scale(0.015625)"/>
       </defs>
       <use xlink:href="#DejaVuSans-35"/>
       <use xlink:href="#DejaVuSans-30" x="63.623047"/>
      </g>
     </g>
    </g>
    <g id="xtick_3">
     <g id="line2d_3">
      <g>
       <use xlink:href="#mc205da7908" x="224.834841" y="307.584" style="stroke: #000000; stroke-width: 0.8"/>
      </g>
     </g>
     <g id="text_3">
      <!-- 100 -->
      <g transform="translate(215.291091 322.182437) scale(0.1 -0.1)">
       <defs>
        <path id="DejaVuSans-31" d="M 794 531 
L 1825 531 
L 1825 4091 
L 703 3866 
L 703 4441 
L 1819 4666 
L 2450 4666 
L 2450 531 
L 3481 531 
L 3481 0 
L 794 0 
L 794 531 
z
" transform="scale(0.015625)"/>
       </defs>
       <use xlink:href="#DejaVuSans-31"/>
       <use xlink:href="#DejaVuSans-30" x="63.623047"/>
       <use xlink:href="#DejaVuSans-30" x="127.246094"/>
      </g>
     </g>
    </g>
    <g id="xtick_4">
     <g id="line2d_4">
      <g>
       <use xlink:href="#mc205da7908" x="300.335899" y="307.584" style="stroke: #000000; stroke-width: 0.8"/>
      </g>
     </g>
     <g id="text_4">
      <!-- 150 -->
      <g transform="translate(290.792149 322.182437) scale(0.1 -0.1)">
       <use xlink:href="#DejaVuSans-31"/>
       <use xlink:href="#DejaVuSans-35" x="63.623047"/>
       <use xlink:href="#DejaVuSans-30" x="127.246094"/>
      </g>
     </g>
    </g>
    <g id="xtick_5">
     <g id="line2d_5">
      <g>
       <use xlink:href="#mc205da7908" x="375.836956" y="307.584" style="stroke: #000000; stroke-width: 0.8"/>
      </g>
     </g>
     <g id="text_5">
      <!-- 200 -->
      <g transform="translate(366.293206 322.182437) scale(0.1 -0.1)">
       <defs>
        <path id="DejaVuSans-32" d="M 1228 531 
L 3431 531 
L 3431 0 
L 469 0 
L 469 531 
Q 828 903 1448 1529 
Q 2069 2156 2228 2338 
Q 2531 2678 2651 2914 
Q 2772 3150 2772 3378 
Q 2772 3750 2511 3984 
Q 2250 4219 1831 4219 
Q 1534 4219 1204 4116 
Q 875 4013 500 3803 
L 500 4441 
Q 881 4594 1212 4672 
Q 1544 4750 1819 4750 
Q 2544 4750 2975 4387 
Q 3406 4025 3406 3419 
Q 3406 3131 3298 2873 
Q 3191 2616 2906 2266 
Q 2828 2175 2409 1742 
Q 1991 1309 1228 531 
z
" transform="scale(0.015625)"/>
       </defs>
       <use xlink:href="#DejaVuSans-32"/>
       <use xlink:href="#DejaVuSans-30" x="63.623047"/>
       <use xlink:href="#DejaVuSans-30" x="127.246094"/>
      </g>
     </g>
    </g>
   </g>
   <g id="matplotlib.axis_2">
    <g id="ytick_1">
     <g id="line2d_6">
      <defs>
       <path id="madba80d9f2" d="M 0 0 
L -3.5 0 
" style="stroke: #000000; stroke-width: 0.8"/>
      </defs>
      <g>
       <use xlink:href="#madba80d9f2" x="57.6" y="284.424822" style="stroke: #000000; stroke-width: 0.8"/>
      </g>
     </g>
     <g id="text_6">
      <!-- −2000 -->
      <g transform="translate(16.770313 288.224041) scale(0.1 -0.1)">
       <defs>
        <path id="DejaVuSans-2212" d="M 678 2272 
L 4684 2272 
L 4684 1741 
L 678 1741 
L 678 2272 
z
" transform="scale(0.015625)"/>
       </defs>
       <use xlink:href="#DejaVuSans-2212"/>
       <use xlink:href="#DejaVuSans-32" x="83.789062"/>
       <use xlink:href="#DejaVuSans-30" x="147.412109"/>
       <use xlink:href="#DejaVuSans-30" x="211.035156"/>
       <use xlink:href="#DejaVuSans-30" x="274.658203"/>
      </g>
     </g>
    </g>
    <g id="ytick_2">
     <g id="line2d_7">
      <g>
       <use xlink:href="#madba80d9f2" x="57.6" y="249.781588" style="stroke: #000000; stroke-width: 0.8"/>
      </g>
     </g>
     <g id="text_7">
      <!-- −1500 -->
      <g transform="translate(16.770313 253.580807) scale(0.1 -0.1)">
       <use xlink:href="#DejaVuSans-2212"/>
       <use xlink:href="#DejaVuSans-31" x="83.789062"/>
       <use xlink:href="#DejaVuSans-35" x="147.412109"/>
       <use xlink:href="#DejaVuSans-30" x="211.035156"/>
       <use xlink:href="#DejaVuSans-30" x="274.658203"/>
      </g>
     </g>
    </g>
    <g id="ytick_3">
     <g id="line2d_8">
      <g>
       <use xlink:href="#madba80d9f2" x="57.6" y="215.138354" style="stroke: #000000; stroke-width: 0.8"/>
      </g>
     </g>
     <g id="text_8">
      <!-- −1000 -->
      <g transform="translate(16.770313 218.937572) scale(0.1 -0.1)">
       <use xlink:href="#DejaVuSans-2212"/>
       <use xlink:href="#DejaVuSans-31" x="83.789062"/>
       <use xlink:href="#DejaVuSans-30" x="147.412109"/>
       <use xlink:href="#DejaVuSans-30" x="211.035156"/>
       <use xlink:href="#DejaVuSans-30" x="274.658203"/>
      </g>
     </g>
    </g>
    <g id="ytick_4">
     <g id="line2d_9">
      <g>
       <use xlink:href="#madba80d9f2" x="57.6" y="180.495119" style="stroke: #000000; stroke-width: 0.8"/>
      </g>
     </g>
     <g id="text_9">
      <!-- −500 -->
      <g transform="translate(23.132812 184.294338) scale(0.1 -0.1)">
       <use xlink:href="#DejaVuSans-2212"/>
       <use xlink:href="#DejaVuSans-35" x="83.789062"/>
       <use xlink:href="#DejaVuSans-30" x="147.412109"/>
       <use xlink:href="#DejaVuSans-30" x="211.035156"/>
      </g>
     </g>
    </g>
    <g id="ytick_5">
     <g id="line2d_10">
      <g>
       <use xlink:href="#madba80d9f2" x="57.6" y="145.851885" style="stroke: #000000; stroke-width: 0.8"/>
      </g>
     </g>
     <g id="text_10">
      <!-- 0 -->
      <g transform="translate(44.2375 149.651104) scale(0.1 -0.1)">
       <use xlink:href="#DejaVuSans-30"/>
      </g>
     </g>
    </g>
    <g id="ytick_6">
     <g id="line2d_11">
      <g>
       <use xlink:href="#madba80d9f2" x="57.6" y="111.208651" style="stroke: #000000; stroke-width: 0.8"/>
      </g>
     </g>
     <g id="text_11">
      <!-- 500 -->
      <g transform="translate(31.5125 115.007869) scale(0.1 -0.1)">
       <use xlink:href="#DejaVuSans-35"/>
       <use xlink:href="#DejaVuSans-30" x="63.623047"/>
       <use xlink:href="#DejaVuSans-30" x="127.246094"/>
      </g>
     </g>
    </g>
    <g id="ytick_7">
     <g id="line2d_12">
      <g>
       <use xlink:href="#madba80d9f2" x="57.6" y="76.565416" style="stroke: #000000; stroke-width: 0.8"/>
      </g>
     </g>
     <g id="text_12">
      <!-- 1000 -->
      <g transform="translate(25.15 80.364635) scale(0.1 -0.1)">
       <use xlink:href="#DejaVuSans-31"/>
       <use xlink:href="#DejaVuSans-30" x="63.623047"/>
       <use xlink:href="#DejaVuSans-30" x="127.246094"/>
       <use xlink:href="#DejaVuSans-30" x="190.869141"/>
      </g>
     </g>
    </g>
    <g id="ytick_8">
     <g id="line2d_13">
      <g>
       <use xlink:href="#madba80d9f2" x="57.6" y="41.922182" style="stroke: #000000; stroke-width: 0.8"/>
      </g>
     </g>
     <g id="text_13">
      <!-- 1500 -->
      <g transform="translate(25.15 45.721401) scale(0.1 -0.1)">
       <use xlink:href="#DejaVuSans-31"/>
       <use xlink:href="#DejaVuSans-35" x="63.623047"/>
       <use xlink:href="#DejaVuSans-30" x="127.246094"/>
       <use xlink:href="#DejaVuSans-30" x="190.869141"/>
      </g>
     </g>
    </g>
   </g>
   <g id="line2d_14">
    <path d="M 73.832727 146.990163 
L 75.342748 149.253521 
L 76.85277 149.555862 
L 78.362791 149.319133 
L 79.872812 149.37776 
L 81.382833 148.450387 
L 82.892854 148.18923 
L 84.402875 147.740906 
L 85.912896 149.521035 
L 87.422918 152.948892 
L 88.932939 158.659252 
L 90.44296 157.547022 
L 91.952981 156.195936 
L 93.463002 153.915507 
L 94.973023 154.92646 
L 96.483044 154.764791 
L 97.993066 154.847935 
L 99.503087 156.20354 
L 101.013108 157.07277 
L 102.523129 158.742939 
L 104.03315 158.217177 
L 105.543171 158.86715 
L 107.053192 158.345678 
L 108.563214 157.644152 
L 110.073235 157.261571 
L 111.583256 157.478091 
L 113.093277 157.873024 
L 114.603298 156.967167 
L 116.113319 156.602772 
L 117.62334 155.923105 
L 119.133362 155.561275 
L 120.643383 154.960792 
L 122.153404 153.997711 
L 123.663425 153.453317 
L 126.683467 152.702206 
L 128.193488 156.043946 
L 129.70351 157.0971 
L 131.213531 155.535489 
L 132.723552 156.413118 
L 134.233573 156.647626 
L 135.743594 156.572566 
L 137.253615 156.249229 
L 138.763636 156.682269 
L 140.273658 156.720062 
L 141.783679 157.218925 
L 143.2937 158.347304 
L 144.803721 159.759016 
L 146.313742 160.532715 
L 147.823763 162.472736 
L 149.333784 163.789179 
L 150.843805 165.762194 
L 152.353827 166.60133 
L 153.863848 166.592669 
L 155.373869 167.789015 
L 156.88389 167.335504 
L 158.393911 165.89781 
L 159.903932 168.365178 
L 161.413953 169.919174 
L 162.923975 170.633691 
L 164.433996 170.199076 
L 165.944017 168.984253 
L 167.454038 168.334692 
L 170.47408 166.413992 
L 171.984101 167.327707 
L 173.494123 166.606312 
L 175.004144 167.811897 
L 176.514165 167.465465 
L 178.024186 167.567357 
L 179.534207 167.403589 
L 181.044228 167.914576 
L 182.554249 169.701438 
L 184.064271 170.026218 
L 185.574292 171.992888 
L 187.084313 173.3382 
L 188.594334 173.224822 
L 190.104355 172.370289 
L 191.614376 172.376063 
L 193.124397 171.683198 
L 194.634419 170.727045 
L 196.14444 172.207256 
L 197.654461 171.652964 
L 199.164482 173.646875 
L 200.674503 175.849195 
L 202.184524 176.517605 
L 203.694545 178.757868 
L 205.204567 178.554628 
L 206.714588 177.376758 
L 208.224609 176.859419 
L 209.73463 176.678208 
L 211.244651 178.276416 
L 212.754672 180.530264 
L 214.264693 179.592587 
L 215.774715 181.055301 
L 217.284736 180.882085 
L 218.794757 179.457863 
L 220.304778 179.629256 
L 221.814799 178.527601 
L 223.32482 180.834841 
L 224.834841 180.803347 
L 226.344863 181.591893 
L 227.854884 181.212855 
L 229.364905 180.270559 
L 230.874926 180.435527 
L 232.384947 180.480359 
L 233.894968 180.389986 
L 235.404989 181.954705 
L 236.915011 187.497623 
L 238.425032 185.890836 
L 239.935053 185.710692 
L 241.445074 185.696834 
L 242.955095 186.071611 
L 244.465116 184.156044 
L 245.975137 188.749737 
L 247.485159 187.86287 
L 248.99518 189.696652 
L 250.505201 187.335138 
L 252.015222 188.666428 
L 253.525243 189.126688 
L 255.035264 193.561022 
L 256.545285 192.049917 
L 258.055307 191.54759 
L 259.565328 190.16516 
L 261.075349 189.767516 
L 262.58537 188.032055 
L 264.095391 189.036709 
L 265.605412 192.626408 
L 267.115433 190.921961 
L 268.625455 191.067827 
L 270.135476 190.982238 
L 271.645497 194.185162 
L 273.155518 193.753697 
L 274.665539 195.691053 
L 276.17556 195.472534 
L 277.685581 196.740778 
L 279.195603 197.698842 
L 280.705624 196.344869 
L 282.215645 198.972212 
L 283.725666 200.893757 
L 285.235687 207.029685 
L 286.745708 210.684546 
L 289.765751 216.003523 
L 291.275772 216.725058 
L 292.785793 220.731727 
L 294.295814 228.047946 
L 295.805835 228.458194 
L 297.315856 227.668329 
L 298.825877 226.665599 
L 300.335899 225.326685 
L 301.84592 224.881005 
L 303.355941 225.270075 
L 304.865962 228.168827 
L 306.375983 230.46594 
L 307.886004 230.944017 
L 309.396025 230.833489 
L 312.416068 237.683094 
L 313.926089 238.462567 
L 315.43611 242.054441 
L 316.946131 242.528902 
L 318.456152 242.66103 
L 319.966173 244.158937 
L 322.986216 243.511149 
L 324.496237 242.483844 
L 326.006258 242.922121 
L 327.516279 243.987747 
L 329.0263 243.730397 
L 330.536321 245.894445 
L 332.046342 253.785935 
L 333.556364 255.024693 
L 335.066385 252.875505 
L 336.576406 251.803686 
L 338.086427 251.32819 
L 339.596448 249.32304 
L 341.106469 249.566196 
L 342.61649 254.413362 
L 344.126512 253.499119 
L 345.636533 254.346545 
L 347.146554 257.369955 
L 348.656575 259.928935 
L 350.166596 259.166784 
L 351.676617 262.307771 
L 353.186638 261.834313 
L 356.206681 261.782866 
L 357.716702 262.60976 
L 359.226723 262.752952 
L 360.736744 264.575186 
L 362.246765 267.325326 
L 363.756786 274.60387 
L 365.266808 278.631146 
L 366.776829 291.673169 
L 368.28685 295.488 
L 369.796871 293.317526 
L 371.306892 288.965746 
L 372.816913 288.210257 
L 374.326934 286.252914 
L 375.836956 285.46582 
L 377.346977 284.205938 
L 378.856998 286.685007 
L 380.367019 286.481571 
L 381.87704 285.256066 
L 383.387061 284.482603 
L 384.897082 285.523314 
L 386.407104 285.420891 
L 387.917125 284.670731 
L 389.427146 287.378338 
L 390.937167 288.033672 
L 392.447188 288.510683 
L 393.957209 288.054296 
L 395.46723 287.790223 
L 396.977252 292.827566 
L 398.487273 295.460452 
L 398.487273 295.460452 
" clip-path="url(#p11caa01f3c)" style="fill: none; stroke: #1f77b4; stroke-opacity: 0.7; stroke-width: 1.5; stroke-linecap: square"/>
   </g>
   <g id="line2d_15">
    <path d="M 73.832727 145.955815 
L 75.342748 147.480117 
L 76.85277 146.810348 
L 78.362791 146.348438 
L 81.382833 145.18789 
L 82.892854 145.343784 
L 84.402875 144.70041 
L 85.912896 146.23461 
L 87.422918 149.520768 
L 88.932939 153.86272 
L 90.44296 150.121251 
L 91.952981 148.204325 
L 93.463002 145.455962 
L 94.973023 146.2874 
L 96.483044 145.436166 
L 97.993066 144.789492 
L 99.503087 145.551644 
L 101.013108 145.523929 
L 102.523129 146.609417 
L 104.03315 145.691371 
L 105.543171 146.176377 
L 108.563214 143.227083 
L 110.073235 142.270929 
L 113.093277 141.566517 
L 114.603298 139.730425 
L 117.62334 136.662025 
L 119.133362 135.466833 
L 120.643383 134.6123 
L 123.663425 130.840518 
L 125.173446 130.563372 
L 126.683467 129.479534 
L 128.193488 131.234791 
L 129.70351 131.360766 
L 131.213531 128.612403 
L 132.723552 129.143599 
L 134.233573 128.603165 
L 135.743594 127.563868 
L 138.763636 126.362902 
L 140.273658 126.115451 
L 141.783679 125.203179 
L 143.2937 125.470427 
L 144.803721 126.394246 
L 146.313742 126.694488 
L 147.823763 128.080217 
L 149.333784 128.842368 
L 150.843805 129.812379 
L 152.353827 129.50059 
L 153.863848 128.270755 
L 155.373869 128.825046 
L 156.88389 127.797297 
L 158.393911 125.978527 
L 161.413953 128.709157 
L 162.923975 128.501297 
L 164.433996 127.254141 
L 165.944017 125.637456 
L 168.964059 123.916842 
L 170.47408 122.103847 
L 171.984101 122.319404 
L 173.494123 120.841293 
L 175.004144 121.118439 
L 176.514165 119.881181 
L 178.024186 119.378854 
L 179.534207 118.27027 
L 181.044228 117.646692 
L 182.554249 118.254873 
L 184.064271 117.885345 
L 185.574292 119.455839 
L 187.084313 119.871558 
L 188.594334 119.178693 
L 190.104355 117.908441 
L 191.614376 117.839154 
L 193.124397 116.619713 
L 194.634419 115.184493 
L 196.14444 115.552244 
L 197.654461 114.317685 
L 200.674503 116.914278 
L 202.184524 116.336891 
L 203.694545 117.791907 
L 205.204567 116.517036 
L 206.714588 114.715588 
L 208.224609 113.936115 
L 209.73463 113.645112 
L 212.754672 116.458142 
L 214.264693 114.725981 
L 215.774715 116.273378 
L 217.284736 115.192509 
L 218.794757 112.958021 
L 220.304778 112.842543 
L 221.814799 111.189566 
L 223.32482 112.09029 
L 224.834841 111.2704 
L 226.344863 111.47826 
L 227.854884 110.317711 
L 229.364905 108.931982 
L 230.874926 108.571692 
L 232.384947 108.670673 
L 233.894968 107.873879 
L 235.404989 108.972564 
L 236.915011 113.539172 
L 238.425032 109.820798 
L 239.935053 108.319592 
L 241.445074 108.440843 
L 242.955095 108.683346 
L 244.465116 105.478846 
L 245.975137 109.442032 
L 247.485159 107.86824 
L 248.99518 108.976823 
L 250.505201 105.5125 
L 252.015222 106.574892 
L 253.525243 106.270032 
L 255.035264 110.126979 
L 256.545285 107.061052 
L 258.055307 105.467464 
L 259.565328 104.275736 
L 261.075349 103.698349 
L 262.58537 102.409621 
L 264.095391 101.885023 
L 265.605412 105.072201 
L 267.115433 102.393124 
L 270.135476 101.434661 
L 271.645497 104.46017 
L 273.155518 102.852724 
L 274.665539 104.169167 
L 276.17556 103.147192 
L 277.685581 103.840056 
L 279.195603 103.673769 
L 280.705624 101.61827 
L 282.215645 104.020201 
L 283.725666 105.117237 
L 285.235687 109.944194 
L 286.745708 111.070099 
L 288.255729 110.723667 
L 289.765751 110.538903 
L 291.275772 108.460309 
L 292.785793 110.14628 
L 294.295814 115.100262 
L 297.315856 109.187817 
L 298.825877 107.524942 
L 300.335899 105.469443 
L 303.355941 102.247622 
L 306.375983 102.122907 
L 309.396025 100.275268 
L 310.906047 102.44047 
L 312.416068 104.363169 
L 313.926089 103.23149 
L 315.43611 106.026045 
L 316.946131 104.321597 
L 318.456152 103.513255 
L 319.966173 103.813497 
L 321.476195 102.358481 
L 322.986216 101.088229 
L 324.496237 99.171303 
L 326.006258 98.478439 
L 327.516279 98.084039 
L 329.0263 96.379592 
L 330.536321 96.812632 
L 332.046342 102.940635 
L 333.556364 101.185378 
L 335.066385 96.173657 
L 336.576406 93.379103 
L 338.086427 93.223208 
L 339.596448 90.220794 
L 341.106469 88.488633 
L 342.61649 93.67357 
L 344.126512 90.617267 
L 345.636533 90.29393 
L 347.146554 91.991449 
L 348.656575 92.459132 
L 350.166596 90.01101 
L 351.676617 92.274368 
L 353.186638 90.223489 
L 354.69666 89.253478 
L 356.206681 87.531215 
L 357.716702 86.670083 
L 359.226723 84.53606 
L 360.736744 84.619203 
L 362.246765 85.438043 
L 363.756786 91.235011 
L 365.266808 92.505263 
L 366.776829 101.928223 
L 368.28685 100.057488 
L 369.796871 92.57455 
L 371.306892 87.031632 
L 372.816913 86.47734 
L 374.326934 84.664345 
L 375.836956 79.860483 
L 377.346977 78.18375 
L 378.856998 79.015188 
L 381.87704 71.901777 
L 383.387061 66.722613 
L 384.897082 64.730627 
L 386.407104 63.356446 
L 387.917125 60.948741 
L 389.427146 59.978731 
L 390.937167 57.752903 
L 392.447188 57.013847 
L 393.957209 55.535736 
L 395.46723 53.568 
L 396.977252 56.872965 
L 398.487273 57.167432 
L 398.487273 57.167432 
" clip-path="url(#p11caa01f3c)" style="fill: none; stroke: #ff7f0e; stroke-opacity: 0.7; stroke-width: 1.5; stroke-linecap: square"/>
   </g>
   <g id="line2d_16">
    <path d="M 73.832727 146.41657 
L 75.342748 148.373912 
L 76.85277 147.851954 
L 78.362791 147.679893 
L 81.382833 146.926403 
L 82.892854 147.339234 
L 84.402875 146.775045 
L 85.912896 148.664586 
L 87.422918 152.0456 
L 88.932939 157.21899 
L 90.44296 155.017812 
L 91.952981 153.307387 
L 93.463002 151.286532 
L 94.973023 152.914764 
L 97.993066 152.440069 
L 99.503087 153.687226 
L 101.013108 154.019801 
L 102.523129 155.105289 
L 104.03315 154.386442 
L 105.543171 155.158491 
L 108.563214 153.312006 
L 110.073235 152.816608 
L 111.583256 153.105302 
L 113.093277 153.243875 
L 114.603298 152.002492 
L 117.62334 150.385148 
L 120.643383 149.469989 
L 122.153404 148.162207 
L 123.663425 147.226118 
L 125.173446 147.260761 
L 126.683467 146.776581 
L 128.193488 149.538801 
L 129.70351 150.040603 
L 131.213531 147.514534 
L 132.723552 148.448252 
L 134.233573 148.108748 
L 135.743594 147.438979 
L 137.253615 146.930878 
L 138.763636 147.06079 
L 141.783679 146.786944 
L 143.2937 147.47486 
L 144.803721 148.674175 
L 146.313742 149.338171 
L 147.823763 150.781639 
L 149.333784 151.933526 
L 150.843805 153.261517 
L 152.353827 153.713454 
L 153.863848 153.021001 
L 155.373869 153.980619 
L 156.88389 153.397458 
L 158.393911 151.956877 
L 159.903932 154.114655 
L 161.413953 155.712575 
L 162.923975 156.141285 
L 165.944017 153.724342 
L 167.454038 153.227789 
L 168.964059 152.864035 
L 170.47408 151.741016 
L 171.984101 152.732198 
L 173.494123 151.75064 
L 175.004144 152.662911 
L 176.514165 152.078925 
L 178.024186 152.081812 
L 179.534207 151.469782 
L 181.044228 151.656855 
L 182.554249 152.75774 
L 184.064271 152.663049 
L 185.574292 154.512788 
L 187.084313 155.303808 
L 188.594334 154.610943 
L 190.104355 153.724654 
L 191.614376 153.932513 
L 193.124397 152.889752 
L 194.634419 151.990265 
L 196.14444 153.09796 
L 197.654461 152.203535 
L 200.674503 155.720731 
L 202.184524 155.634947 
L 203.694545 157.259715 
L 205.204567 156.698495 
L 206.714588 155.382052 
L 208.224609 155.003863 
L 209.73463 155.043126 
L 212.754672 158.574426 
L 214.264693 157.451985 
L 215.774715 159.072519 
L 217.284736 158.589823 
L 218.794757 156.918287 
L 220.304778 157.230076 
L 221.814799 156.149537 
L 223.32482 157.933664 
L 224.834841 157.523719 
L 226.344863 157.932509 
L 229.364905 155.927243 
L 232.384947 156.35088 
L 233.894968 155.860101 
L 235.404989 157.344811 
L 236.915011 162.226358 
L 238.425032 159.322925 
L 239.935053 158.399105 
L 241.445074 158.817711 
L 242.955095 159.493254 
L 244.465116 156.972959 
L 245.975137 161.529699 
L 247.485159 160.098438 
L 248.99518 161.761314 
L 250.505201 158.995629 
L 252.015222 160.527148 
L 253.525243 160.513291 
L 255.035264 164.370238 
L 256.545285 162.000507 
L 258.055307 160.818307 
L 259.565328 160.060775 
L 261.075349 159.962619 
L 262.58537 158.960275 
L 264.095391 159.591771 
L 265.605412 163.201596 
L 267.115433 161.039281 
L 268.625455 160.83967 
L 270.135476 160.914731 
L 271.645497 164.055717 
L 273.155518 162.827615 
L 274.665539 164.505337 
L 276.17556 163.985688 
L 277.685581 165.123141 
L 279.195603 165.611611 
L 280.705624 163.691798 
L 282.215645 166.466556 
L 283.725666 167.889816 
L 285.235687 173.338908 
L 286.745708 175.756098 
L 289.765751 178.337811 
L 291.275772 177.691498 
L 292.785793 180.574788 
L 294.295814 186.652751 
L 295.805835 185.471647 
L 297.315856 183.660961 
L 298.825877 182.56277 
L 300.335899 181.223232 
L 301.84592 180.651619 
L 303.355941 180.316734 
L 304.865962 181.839304 
L 306.375983 182.497526 
L 307.886004 181.619897 
L 309.396025 181.050758 
L 312.416068 186.841127 
L 313.926089 187.015023 
L 315.43611 190.610303 
L 316.946131 190.280202 
L 318.456152 190.148658 
L 319.966173 191.17352 
L 322.986216 189.801336 
L 324.496237 188.635014 
L 326.006258 188.611918 
L 327.516279 188.986332 
L 329.0263 187.969553 
L 330.536321 189.392812 
L 332.046342 196.281427 
L 333.556364 196.176701 
L 335.066385 192.73238 
L 336.576406 191.016385 
L 338.086427 191.296418 
L 339.596448 189.229371 
L 341.106469 189.056155 
L 342.61649 194.477821 
L 344.126512 192.248144 
L 345.636533 192.601175 
L 347.146554 194.766377 
L 348.656575 196.273358 
L 350.166596 193.825236 
L 351.676617 196.426778 
L 353.186638 195.020263 
L 354.69666 194.459042 
L 356.206681 193.759579 
L 357.716702 193.779375 
L 359.226723 192.556469 
L 360.736744 193.487217 
L 362.246765 195.081436 
L 363.756786 200.959238 
L 365.266808 203.820648 
L 366.776829 215.131139 
L 368.28685 216.221956 
L 371.306892 206.753904 
L 372.816913 207.23891 
L 374.326934 206.39015 
L 375.836956 204.620459 
L 377.346977 203.805188 
L 378.856998 206.299501 
L 380.367019 204.632006 
L 383.387061 200.46822 
L 386.407104 200.390272 
L 387.917125 199.146003 
L 389.427146 200.753449 
L 390.937167 200.110693 
L 393.957209 199.02636 
L 395.46723 198.296542 
L 396.977252 202.755127 
L 398.487273 204.076381 
L 398.487273 204.076381 
" clip-path="url(#p11caa01f3c)" style="fill: none; stroke: #2ca02c; stroke-opacity: 0.7; stroke-width: 1.5; stroke-linecap: square"/>
   </g>
   <g id="patch_3">
    <path d="M 57.6 307.584 
L 57.6 41.472 
" style="fill: none; stroke: #000000; stroke-width: 0.8; stroke-linejoin: miter; stroke-linecap: square"/>
   </g>
   <g id="patch_4">
    <path d="M 414.72 307.584 
L 414.72 41.472 
" style="fill: none; stroke: #000000; stroke-width: 0.8; stroke-linejoin: miter; stroke-linecap: square"/>
   </g>
   <g id="patch_5">
    <path d="M 57.6 307.584 
L 414.72 307.584 
" style="fill: none; stroke: #000000; stroke-width: 0.8; stroke-linejoin: miter; stroke-linecap: square"/>
   </g>
   <g id="patch_6">
    <path d="M 57.6 41.472 
L 414.72 41.472 
" style="fill: none; stroke: #000000; stroke-width: 0.8; stroke-linejoin: miter; stroke-linecap: square"/>
   </g>
   <g id="text_14">
    <!-- naive_adamic_adar_cci -->
    <g transform="translate(166.903125 35.472) scale(0.12 -0.12)">
     <defs>
      <path id="DejaVuSans-6e" d="M 3513 2113 
L 3513 0 
L 2938 0 
L 2938 2094 
Q 2938 2591 2744 2837 
Q 2550 3084 2163 3084 
Q 1697 3084 1428 2787 
Q 1159 2491 1159 1978 
L 1159 0 
L 581 0 
L 581 3500 
L 1159 3500 
L 1159 2956 
Q 1366 3272 1645 3428 
Q 1925 3584 2291 3584 
Q 2894 3584 3203 3211 
Q 3513 2838 3513 2113 
z
" transform="scale(0.015625)"/>
      <path id="DejaVuSans-61" d="M 2194 1759 
Q 1497 1759 1228 1600 
Q 959 1441 959 1056 
Q 959 750 1161 570 
Q 1363 391 1709 391 
Q 2188 391 2477 730 
Q 2766 1069 2766 1631 
L 2766 1759 
L 2194 1759 
z
M 3341 1997 
L 3341 0 
L 2766 0 
L 2766 531 
Q 2569 213 2275 61 
Q 1981 -91 1556 -91 
Q 1019 -91 701 211 
Q 384 513 384 1019 
Q 384 1609 779 1909 
Q 1175 2209 1959 2209 
L 2766 2209 
L 2766 2266 
Q 2766 2663 2505 2880 
Q 2244 3097 1772 3097 
Q 1472 3097 1187 3025 
Q 903 2953 641 2809 
L 641 3341 
Q 956 3463 1253 3523 
Q 1550 3584 1831 3584 
Q 2591 3584 2966 3190 
Q 3341 2797 3341 1997 
z
" transform="scale(0.015625)"/>
      <path id="DejaVuSans-69" d="M 603 3500 
L 1178 3500 
L 1178 0 
L 603 0 
L 603 3500 
z
M 603 4863 
L 1178 4863 
L 1178 4134 
L 603 4134 
L 603 4863 
z
" transform="scale(0.015625)"/>
      <path id="DejaVuSans-76" d="M 191 3500 
L 800 3500 
L 1894 563 
L 2988 3500 
L 3597 3500 
L 2284 0 
L 1503 0 
L 191 3500 
z
" transform="scale(0.015625)"/>
      <path id="DejaVuSans-65" d="M 3597 1894 
L 3597 1613 
L 953 1613 
Q 991 1019 1311 708 
Q 1631 397 2203 397 
Q 2534 397 2845 478 
Q 3156 559 3463 722 
L 3463 178 
Q 3153 47 2828 -22 
Q 2503 -91 2169 -91 
Q 1331 -91 842 396 
Q 353 884 353 1716 
Q 353 2575 817 3079 
Q 1281 3584 2069 3584 
Q 2775 3584 3186 3129 
Q 3597 2675 3597 1894 
z
M 3022 2063 
Q 3016 2534 2758 2815 
Q 2500 3097 2075 3097 
Q 1594 3097 1305 2825 
Q 1016 2553 972 2059 
L 3022 2063 
z
" transform="scale(0.015625)"/>
      <path id="DejaVuSans-5f" d="M 3263 -1063 
L 3263 -1509 
L -63 -1509 
L -63 -1063 
L 3263 -1063 
z
" transform="scale(0.015625)"/>
      <path id="DejaVuSans-64" d="M 2906 2969 
L 2906 4863 
L 3481 4863 
L 3481 0 
L 2906 0 
L 2906 525 
Q 2725 213 2448 61 
Q 2172 -91 1784 -91 
Q 1150 -91 751 415 
Q 353 922 353 1747 
Q 353 2572 751 3078 
Q 1150 3584 1784 3584 
Q 2172 3584 2448 3432 
Q 2725 3281 2906 2969 
z
M 947 1747 
Q 947 1113 1208 752 
Q 1469 391 1925 391 
Q 2381 391 2643 752 
Q 2906 1113 2906 1747 
Q 2906 2381 2643 2742 
Q 2381 3103 1925 3103 
Q 1469 3103 1208 2742 
Q 947 2381 947 1747 
z
" transform="scale(0.015625)"/>
      <path id="DejaVuSans-6d" d="M 3328 2828 
Q 3544 3216 3844 3400 
Q 4144 3584 4550 3584 
Q 5097 3584 5394 3201 
Q 5691 2819 5691 2113 
L 5691 0 
L 5113 0 
L 5113 2094 
Q 5113 2597 4934 2840 
Q 4756 3084 4391 3084 
Q 3944 3084 3684 2787 
Q 3425 2491 3425 1978 
L 3425 0 
L 2847 0 
L 2847 2094 
Q 2847 2600 2669 2842 
Q 2491 3084 2119 3084 
Q 1678 3084 1418 2786 
Q 1159 2488 1159 1978 
L 1159 0 
L 581 0 
L 581 3500 
L 1159 3500 
L 1159 2956 
Q 1356 3278 1631 3431 
Q 1906 3584 2284 3584 
Q 2666 3584 2933 3390 
Q 3200 3197 3328 2828 
z
" transform="scale(0.015625)"/>
      <path id="DejaVuSans-63" d="M 3122 3366 
L 3122 2828 
Q 2878 2963 2633 3030 
Q 2388 3097 2138 3097 
Q 1578 3097 1268 2742 
Q 959 2388 959 1747 
Q 959 1106 1268 751 
Q 1578 397 2138 397 
Q 2388 397 2633 464 
Q 2878 531 3122 666 
L 3122 134 
Q 2881 22 2623 -34 
Q 2366 -91 2075 -91 
Q 1284 -91 818 406 
Q 353 903 353 1747 
Q 353 2603 823 3093 
Q 1294 3584 2113 3584 
Q 2378 3584 2631 3529 
Q 2884 3475 3122 3366 
z
" transform="scale(0.015625)"/>
      <path id="DejaVuSans-72" d="M 2631 2963 
Q 2534 3019 2420 3045 
Q 2306 3072 2169 3072 
Q 1681 3072 1420 2755 
Q 1159 2438 1159 1844 
L 1159 0 
L 581 0 
L 581 3500 
L 1159 3500 
L 1159 2956 
Q 1341 3275 1631 3429 
Q 1922 3584 2338 3584 
Q 2397 3584 2469 3576 
Q 2541 3569 2628 3553 
L 2631 2963 
z
" transform="scale(0.015625)"/>
     </defs>
     <use xlink:href="#DejaVuSans-6e"/>
     <use xlink:href="#DejaVuSans-61" x="63.378906"/>
     <use xlink:href="#DejaVuSans-69" x="124.658203"/>
     <use xlink:href="#DejaVuSans-76" x="152.441406"/>
     <use xlink:href="#DejaVuSans-65" x="211.621094"/>
     <use xlink:href="#DejaVuSans-5f" x="273.144531"/>
     <use xlink:href="#DejaVuSans-61" x="323.144531"/>
     <use xlink:href="#DejaVuSans-64" x="384.423828"/>
     <use xlink:href="#DejaVuSans-61" x="447.900391"/>
     <use xlink:href="#DejaVuSans-6d" x="509.179688"/>
     <use xlink:href="#DejaVuSans-69" x="606.591797"/>
     <use xlink:href="#DejaVuSans-63" x="634.375"/>
     <use xlink:href="#DejaVuSans-5f" x="689.355469"/>
     <use xlink:href="#DejaVuSans-61" x="739.355469"/>
     <use xlink:href="#DejaVuSans-64" x="800.634766"/>
     <use xlink:href="#DejaVuSans-61" x="864.111328"/>
     <use xlink:href="#DejaVuSans-72" x="925.390625"/>
     <use xlink:href="#DejaVuSans-5f" x="966.503906"/>
     <use xlink:href="#DejaVuSans-63" x="1016.503906"/>
     <use xlink:href="#DejaVuSans-63" x="1071.484375"/>
     <use xlink:href="#DejaVuSans-69" x="1126.464844"/>
    </g>
   </g>
   <g id="legend_1">
    <g id="patch_7">
     <path d="M 64.6 93.506375 
L 258.804688 93.506375 
Q 260.804688 93.506375 260.804688 91.506375 
L 260.804688 48.472 
Q 260.804688 46.472 258.804688 46.472 
L 64.6 46.472 
Q 62.6 46.472 62.6 48.472 
L 62.6 91.506375 
Q 62.6 93.506375 64.6 93.506375 
z
" style="fill: #ffffff; opacity: 0.8; stroke: #cccccc; stroke-linejoin: miter"/>
    </g>
    <g id="line2d_17">
     <path d="M 66.6 54.570438 
L 76.6 54.570438 
L 86.6 54.570438 
" style="fill: none; stroke: #1f77b4; stroke-opacity: 0.7; stroke-width: 1.5; stroke-linecap: square"/>
    </g>
    <g id="text_15">
     <!-- Positive cumulative predictions -->
     <g transform="translate(94.6 58.070438) scale(0.1 -0.1)">
      <defs>
       <path id="DejaVuSans-50" d="M 1259 4147 
L 1259 2394 
L 2053 2394 
Q 2494 2394 2734 2622 
Q 2975 2850 2975 3272 
Q 2975 3691 2734 3919 
Q 2494 4147 2053 4147 
L 1259 4147 
z
M 628 4666 
L 2053 4666 
Q 2838 4666 3239 4311 
Q 3641 3956 3641 3272 
Q 3641 2581 3239 2228 
Q 2838 1875 2053 1875 
L 1259 1875 
L 1259 0 
L 628 0 
L 628 4666 
z
" transform="scale(0.015625)"/>
       <path id="DejaVuSans-6f" d="M 1959 3097 
Q 1497 3097 1228 2736 
Q 959 2375 959 1747 
Q 959 1119 1226 758 
Q 1494 397 1959 397 
Q 2419 397 2687 759 
Q 2956 1122 2956 1747 
Q 2956 2369 2687 2733 
Q 2419 3097 1959 3097 
z
M 1959 3584 
Q 2709 3584 3137 3096 
Q 3566 2609 3566 1747 
Q 3566 888 3137 398 
Q 2709 -91 1959 -91 
Q 1206 -91 779 398 
Q 353 888 353 1747 
Q 353 2609 779 3096 
Q 1206 3584 1959 3584 
z
" transform="scale(0.015625)"/>
       <path id="DejaVuSans-73" d="M 2834 3397 
L 2834 2853 
Q 2591 2978 2328 3040 
Q 2066 3103 1784 3103 
Q 1356 3103 1142 2972 
Q 928 2841 928 2578 
Q 928 2378 1081 2264 
Q 1234 2150 1697 2047 
L 1894 2003 
Q 2506 1872 2764 1633 
Q 3022 1394 3022 966 
Q 3022 478 2636 193 
Q 2250 -91 1575 -91 
Q 1294 -91 989 -36 
Q 684 19 347 128 
L 347 722 
Q 666 556 975 473 
Q 1284 391 1588 391 
Q 1994 391 2212 530 
Q 2431 669 2431 922 
Q 2431 1156 2273 1281 
Q 2116 1406 1581 1522 
L 1381 1569 
Q 847 1681 609 1914 
Q 372 2147 372 2553 
Q 372 3047 722 3315 
Q 1072 3584 1716 3584 
Q 2034 3584 2315 3537 
Q 2597 3491 2834 3397 
z
" transform="scale(0.015625)"/>
       <path id="DejaVuSans-74" d="M 1172 4494 
L 1172 3500 
L 2356 3500 
L 2356 3053 
L 1172 3053 
L 1172 1153 
Q 1172 725 1289 603 
Q 1406 481 1766 481 
L 2356 481 
L 2356 0 
L 1766 0 
Q 1100 0 847 248 
Q 594 497 594 1153 
L 594 3053 
L 172 3053 
L 172 3500 
L 594 3500 
L 594 4494 
L 1172 4494 
z
" transform="scale(0.015625)"/>
       <path id="DejaVuSans-20" transform="scale(0.015625)"/>
       <path id="DejaVuSans-75" d="M 544 1381 
L 544 3500 
L 1119 3500 
L 1119 1403 
Q 1119 906 1312 657 
Q 1506 409 1894 409 
Q 2359 409 2629 706 
Q 2900 1003 2900 1516 
L 2900 3500 
L 3475 3500 
L 3475 0 
L 2900 0 
L 2900 538 
Q 2691 219 2414 64 
Q 2138 -91 1772 -91 
Q 1169 -91 856 284 
Q 544 659 544 1381 
z
M 1991 3584 
L 1991 3584 
z
" transform="scale(0.015625)"/>
       <path id="DejaVuSans-6c" d="M 603 4863 
L 1178 4863 
L 1178 0 
L 603 0 
L 603 4863 
z
" transform="scale(0.015625)"/>
       <path id="DejaVuSans-70" d="M 1159 525 
L 1159 -1331 
L 581 -1331 
L 581 3500 
L 1159 3500 
L 1159 2969 
Q 1341 3281 1617 3432 
Q 1894 3584 2278 3584 
Q 2916 3584 3314 3078 
Q 3713 2572 3713 1747 
Q 3713 922 3314 415 
Q 2916 -91 2278 -91 
Q 1894 -91 1617 61 
Q 1341 213 1159 525 
z
M 3116 1747 
Q 3116 2381 2855 2742 
Q 2594 3103 2138 3103 
Q 1681 3103 1420 2742 
Q 1159 2381 1159 1747 
Q 1159 1113 1420 752 
Q 1681 391 2138 391 
Q 2594 391 2855 752 
Q 3116 1113 3116 1747 
z
" transform="scale(0.015625)"/>
      </defs>
      <use xlink:href="#DejaVuSans-50"/>
      <use xlink:href="#DejaVuSans-6f" x="56.677734"/>
      <use xlink:href="#DejaVuSans-73" x="117.859375"/>
      <use xlink:href="#DejaVuSans-69" x="169.958984"/>
      <use xlink:href="#DejaVuSans-74" x="197.742188"/>
      <use xlink:href="#DejaVuSans-69" x="236.951172"/>
      <use xlink:href="#DejaVuSans-76" x="264.734375"/>
      <use xlink:href="#DejaVuSans-65" x="323.914062"/>
      <use xlink:href="#DejaVuSans-20" x="385.4375"/>
      <use xlink:href="#DejaVuSans-63" x="417.224609"/>
      <use xlink:href="#DejaVuSans-75" x="472.205078"/>
      <use xlink:href="#DejaVuSans-6d" x="535.583984"/>
      <use xlink:href="#DejaVuSans-75" x="632.996094"/>
      <use xlink:href="#DejaVuSans-6c" x="696.375"/>
      <use xlink:href="#DejaVuSans-61" x="724.158203"/>
      <use xlink:href="#DejaVuSans-74" x="785.4375"/>
      <use xlink:href="#DejaVuSans-69" x="824.646484"/>
      <use xlink:href="#DejaVuSans-76" x="852.429688"/>
      <use xlink:href="#DejaVuSans-65" x="911.609375"/>
      <use xlink:href="#DejaVuSans-20" x="973.132812"/>
      <use xlink:href="#DejaVuSans-70" x="1004.919922"/>
      <use xlink:href="#DejaVuSans-72" x="1068.396484"/>
      <use xlink:href="#DejaVuSans-65" x="1107.259766"/>
      <use xlink:href="#DejaVuSans-64" x="1168.783203"/>
      <use xlink:href="#DejaVuSans-69" x="1232.259766"/>
      <use xlink:href="#DejaVuSans-63" x="1260.042969"/>
      <use xlink:href="#DejaVuSans-74" x="1315.023438"/>
      <use xlink:href="#DejaVuSans-69" x="1354.232422"/>
      <use xlink:href="#DejaVuSans-6f" x="1382.015625"/>
      <use xlink:href="#DejaVuSans-6e" x="1443.197266"/>
      <use xlink:href="#DejaVuSans-73" x="1506.576172"/>
     </g>
    </g>
    <g id="line2d_18">
     <path d="M 66.6 69.248563 
L 76.6 69.248563 
L 86.6 69.248563 
" style="fill: none; stroke: #ff7f0e; stroke-opacity: 0.7; stroke-width: 1.5; stroke-linecap: square"/>
    </g>
    <g id="text_16">
     <!-- Negative cumulative predictions -->
     <g transform="translate(94.6 72.748563) scale(0.1 -0.1)">
      <defs>
       <path id="DejaVuSans-4e" d="M 628 4666 
L 1478 4666 
L 3547 763 
L 3547 4666 
L 4159 4666 
L 4159 0 
L 3309 0 
L 1241 3903 
L 1241 0 
L 628 0 
L 628 4666 
z
" transform="scale(0.015625)"/>
       <path id="DejaVuSans-67" d="M 2906 1791 
Q 2906 2416 2648 2759 
Q 2391 3103 1925 3103 
Q 1463 3103 1205 2759 
Q 947 2416 947 1791 
Q 947 1169 1205 825 
Q 1463 481 1925 481 
Q 2391 481 2648 825 
Q 2906 1169 2906 1791 
z
M 3481 434 
Q 3481 -459 3084 -895 
Q 2688 -1331 1869 -1331 
Q 1566 -1331 1297 -1286 
Q 1028 -1241 775 -1147 
L 775 -588 
Q 1028 -725 1275 -790 
Q 1522 -856 1778 -856 
Q 2344 -856 2625 -561 
Q 2906 -266 2906 331 
L 2906 616 
Q 2728 306 2450 153 
Q 2172 0 1784 0 
Q 1141 0 747 490 
Q 353 981 353 1791 
Q 353 2603 747 3093 
Q 1141 3584 1784 3584 
Q 2172 3584 2450 3431 
Q 2728 3278 2906 2969 
L 2906 3500 
L 3481 3500 
L 3481 434 
z
" transform="scale(0.015625)"/>
      </defs>
      <use xlink:href="#DejaVuSans-4e"/>
      <use xlink:href="#DejaVuSans-65" x="74.804688"/>
      <use xlink:href="#DejaVuSans-67" x="136.328125"/>
      <use xlink:href="#DejaVuSans-61" x="199.804688"/>
      <use xlink:href="#DejaVuSans-74" x="261.083984"/>
      <use xlink:href="#DejaVuSans-69" x="300.292969"/>
      <use xlink:href="#DejaVuSans-76" x="328.076172"/>
      <use xlink:href="#DejaVuSans-65" x="387.255859"/>
      <use xlink:href="#DejaVuSans-20" x="448.779297"/>
      <use xlink:href="#DejaVuSans-63" x="480.566406"/>
      <use xlink:href="#DejaVuSans-75" x="535.546875"/>
      <use xlink:href="#DejaVuSans-6d" x="598.925781"/>
      <use xlink:href="#DejaVuSans-75" x="696.337891"/>
      <use xlink:href="#DejaVuSans-6c" x="759.716797"/>
      <use xlink:href="#DejaVuSans-61" x="787.5"/>
      <use xlink:href="#DejaVuSans-74" x="848.779297"/>
      <use xlink:href="#DejaVuSans-69" x="887.988281"/>
      <use xlink:href="#DejaVuSans-76" x="915.771484"/>
      <use xlink:href="#DejaVuSans-65" x="974.951172"/>
      <use xlink:href="#DejaVuSans-20" x="1036.474609"/>
      <use xlink:href="#DejaVuSans-70" x="1068.261719"/>
      <use xlink:href="#DejaVuSans-72" x="1131.738281"/>
      <use xlink:href="#DejaVuSans-65" x="1170.601562"/>
      <use xlink:href="#DejaVuSans-64" x="1232.125"/>
      <use xlink:href="#DejaVuSans-69" x="1295.601562"/>
      <use xlink:href="#DejaVuSans-63" x="1323.384766"/>
      <use xlink:href="#DejaVuSans-74" x="1378.365234"/>
      <use xlink:href="#DejaVuSans-69" x="1417.574219"/>
      <use xlink:href="#DejaVuSans-6f" x="1445.357422"/>
      <use xlink:href="#DejaVuSans-6e" x="1506.539062"/>
      <use xlink:href="#DejaVuSans-73" x="1569.917969"/>
     </g>
    </g>
    <g id="line2d_19">
     <path d="M 66.6 83.926688 
L 76.6 83.926688 
L 86.6 83.926688 
" style="fill: none; stroke: #2ca02c; stroke-opacity: 0.7; stroke-width: 1.5; stroke-linecap: square"/>
    </g>
    <g id="text_17">
     <!-- Average cumulative predictions -->
     <g transform="translate(94.6 87.426688) scale(0.1 -0.1)">
      <defs>
       <path id="DejaVuSans-41" d="M 2188 4044 
L 1331 1722 
L 3047 1722 
L 2188 4044 
z
M 1831 4666 
L 2547 4666 
L 4325 0 
L 3669 0 
L 3244 1197 
L 1141 1197 
L 716 0 
L 50 0 
L 1831 4666 
z
" transform="scale(0.015625)"/>
      </defs>
      <use xlink:href="#DejaVuSans-41"/>
      <use xlink:href="#DejaVuSans-76" x="62.533203"/>
      <use xlink:href="#DejaVuSans-65" x="121.712891"/>
      <use xlink:href="#DejaVuSans-72" x="183.236328"/>
      <use xlink:href="#DejaVuSans-61" x="224.349609"/>
      <use xlink:href="#DejaVuSans-67" x="285.628906"/>
      <use xlink:href="#DejaVuSans-65" x="349.105469"/>
      <use xlink:href="#DejaVuSans-20" x="410.628906"/>
      <use xlink:href="#DejaVuSans-63" x="442.416016"/>
      <use xlink:href="#DejaVuSans-75" x="497.396484"/>
      <use xlink:href="#DejaVuSans-6d" x="560.775391"/>
      <use xlink:href="#DejaVuSans-75" x="658.1875"/>
      <use xlink:href="#DejaVuSans-6c" x="721.566406"/>
      <use xlink:href="#DejaVuSans-61" x="749.349609"/>
      <use xlink:href="#DejaVuSans-74" x="810.628906"/>
      <use xlink:href="#DejaVuSans-69" x="849.837891"/>
      <use xlink:href="#DejaVuSans-76" x="877.621094"/>
      <use xlink:href="#DejaVuSans-65" x="936.800781"/>
      <use xlink:href="#DejaVuSans-20" x="998.324219"/>
      <use xlink:href="#DejaVuSans-70" x="1030.111328"/>
      <use xlink:href="#DejaVuSans-72" x="1093.587891"/>
      <use xlink:href="#DejaVuSans-65" x="1132.451172"/>
      <use xlink:href="#DejaVuSans-64" x="1193.974609"/>
      <use xlink:href="#DejaVuSans-69" x="1257.451172"/>
      <use xlink:href="#DejaVuSans-63" x="1285.234375"/>
      <use xlink:href="#DejaVuSans-74" x="1340.214844"/>
      <use xlink:href="#DejaVuSans-69" x="1379.423828"/>
      <use xlink:href="#DejaVuSans-6f" x="1407.207031"/>
      <use xlink:href="#DejaVuSans-6e" x="1468.388672"/>
      <use xlink:href="#DejaVuSans-73" x="1531.767578"/>
     </g>
    </g>
   </g>
  </g>
 </g>
 <defs>
  <clipPath id="p11caa01f3c">
   <rect x="57.6" y="41.472" width="357.12" height="266.112"/>
  </clipPath>
 </defs>
</svg>
