<?xml version="1.0" encoding="utf-8" standalone="no"?>
<!DOCTYPE svg PUBLIC "-//W3C//DTD SVG 1.1//EN"
  "http://www.w3.org/Graphics/SVG/1.1/DTD/svg11.dtd">
<svg xmlns:xlink="http://www.w3.org/1999/xlink" width="460.8pt" height="345.6pt" viewBox="0 0 460.8 345.6" xmlns="http://www.w3.org/2000/svg" version="1.1">
 <metadata>
  <rdf:RDF xmlns:dc="http://purl.org/dc/elements/1.1/" xmlns:cc="http://creativecommons.org/ns#" xmlns:rdf="http://www.w3.org/1999/02/22-rdf-syntax-ns#">
   <cc:Work>
    <dc:type rdf:resource="http://purl.org/dc/dcmitype/StillImage"/>
    <dc:date>2024-07-15T10:37:20.635476</dc:date>
    <dc:format>image/svg+xml</dc:format>
    <dc:creator>
     <cc:Agent>
      <dc:title>Matplotlib v3.9.0, https://matplotlib.org/</dc:title>
     </cc:Agent>
    </dc:creator>
   </cc:Work>
  </rdf:RDF>
 </metadata>
 <defs>
  <style type="text/css">*{stroke-linejoin: round; stroke-linecap: butt}</style>
 </defs>
 <g id="figure_1">
  <g id="patch_1">
   <path d="M 0 345.6 
L 460.8 345.6 
L 460.8 0 
L 0 0 
z
" style="fill: #ffffff"/>
  </g>
  <g id="axes_1">
   <g id="patch_2">
    <path d="M 57.6 307.584 
L 414.72 307.584 
L 414.72 41.472 
L 57.6 41.472 
z
" style="fill: #ffffff"/>
   </g>
   <g id="matplotlib.axis_1">
    <g id="xtick_1">
     <g id="line2d_1">
      <defs>
       <path id="mb0c1a99108" d="M 0 0 
L 0 3.5 
" style="stroke: #000000; stroke-width: 0.8"/>
      </defs>
      <g>
       <use xlink:href="#mb0c1a99108" x="73.832727" y="307.584" style="stroke: #000000; stroke-width: 0.8"/>
      </g>
     </g>
     <g id="text_1">
      <!-- 0 -->
      <g transform="translate(70.651477 322.182437) scale(0.1 -0.1)">
       <defs>
        <path id="DejaVuSans-30" d="M 2034 4250 
Q 1547 4250 1301 3770 
Q 1056 3291 1056 2328 
Q 1056 1369 1301 889 
Q 1547 409 2034 409 
Q 2525 409 2770 889 
Q 3016 1369 3016 2328 
Q 3016 3291 2770 3770 
Q 2525 4250 2034 4250 
z
M 2034 4750 
Q 2819 4750 3233 4129 
Q 3647 3509 3647 2328 
Q 3647 1150 3233 529 
Q 2819 -91 2034 -91 
Q 1250 -91 836 529 
Q 422 1150 422 2328 
Q 422 3509 836 4129 
Q 1250 4750 2034 4750 
z
" transform="scale(0.015625)"/>
       </defs>
       <use xlink:href="#DejaVuSans-30"/>
      </g>
     </g>
    </g>
    <g id="xtick_2">
     <g id="line2d_2">
      <g>
       <use xlink:href="#mb0c1a99108" x="118.003414" y="307.584" style="stroke: #000000; stroke-width: 0.8"/>
      </g>
     </g>
     <g id="text_2">
      <!-- 20 -->
      <g transform="translate(111.640914 322.182437) scale(0.1 -0.1)">
       <defs>
        <path id="DejaVuSans-32" d="M 1228 531 
L 3431 531 
L 3431 0 
L 469 0 
L 469 531 
Q 828 903 1448 1529 
Q 2069 2156 2228 2338 
Q 2531 2678 2651 2914 
Q 2772 3150 2772 3378 
Q 2772 3750 2511 3984 
Q 2250 4219 1831 4219 
Q 1534 4219 1204 4116 
Q 875 4013 500 3803 
L 500 4441 
Q 881 4594 1212 4672 
Q 1544 4750 1819 4750 
Q 2544 4750 2975 4387 
Q 3406 4025 3406 3419 
Q 3406 3131 3298 2873 
Q 3191 2616 2906 2266 
Q 2828 2175 2409 1742 
Q 1991 1309 1228 531 
z
" transform="scale(0.015625)"/>
       </defs>
       <use xlink:href="#DejaVuSans-32"/>
       <use xlink:href="#DejaVuSans-30" x="63.623047"/>
      </g>
     </g>
    </g>
    <g id="xtick_3">
     <g id="line2d_3">
      <g>
       <use xlink:href="#mb0c1a99108" x="162.1741" y="307.584" style="stroke: #000000; stroke-width: 0.8"/>
      </g>
     </g>
     <g id="text_3">
      <!-- 40 -->
      <g transform="translate(155.8116 322.182437) scale(0.1 -0.1)">
       <defs>
        <path id="DejaVuSans-34" d="M 2419 4116 
L 825 1625 
L 2419 1625 
L 2419 4116 
z
M 2253 4666 
L 3047 4666 
L 3047 1625 
L 3713 1625 
L 3713 1100 
L 3047 1100 
L 3047 0 
L 2419 0 
L 2419 1100 
L 313 1100 
L 313 1709 
L 2253 4666 
z
" transform="scale(0.015625)"/>
       </defs>
       <use xlink:href="#DejaVuSans-34"/>
       <use xlink:href="#DejaVuSans-30" x="63.623047"/>
      </g>
     </g>
    </g>
    <g id="xtick_4">
     <g id="line2d_4">
      <g>
       <use xlink:href="#mb0c1a99108" x="206.344787" y="307.584" style="stroke: #000000; stroke-width: 0.8"/>
      </g>
     </g>
     <g id="text_4">
      <!-- 60 -->
      <g transform="translate(199.982287 322.182437) scale(0.1 -0.1)">
       <defs>
        <path id="DejaVuSans-36" d="M 2113 2584 
Q 1688 2584 1439 2293 
Q 1191 2003 1191 1497 
Q 1191 994 1439 701 
Q 1688 409 2113 409 
Q 2538 409 2786 701 
Q 3034 994 3034 1497 
Q 3034 2003 2786 2293 
Q 2538 2584 2113 2584 
z
M 3366 4563 
L 3366 3988 
Q 3128 4100 2886 4159 
Q 2644 4219 2406 4219 
Q 1781 4219 1451 3797 
Q 1122 3375 1075 2522 
Q 1259 2794 1537 2939 
Q 1816 3084 2150 3084 
Q 2853 3084 3261 2657 
Q 3669 2231 3669 1497 
Q 3669 778 3244 343 
Q 2819 -91 2113 -91 
Q 1303 -91 875 529 
Q 447 1150 447 2328 
Q 447 3434 972 4092 
Q 1497 4750 2381 4750 
Q 2619 4750 2861 4703 
Q 3103 4656 3366 4563 
z
" transform="scale(0.015625)"/>
       </defs>
       <use xlink:href="#DejaVuSans-36"/>
       <use xlink:href="#DejaVuSans-30" x="63.623047"/>
      </g>
     </g>
    </g>
    <g id="xtick_5">
     <g id="line2d_5">
      <g>
       <use xlink:href="#mb0c1a99108" x="250.515473" y="307.584" style="stroke: #000000; stroke-width: 0.8"/>
      </g>
     </g>
     <g id="text_5">
      <!-- 80 -->
      <g transform="translate(244.152973 322.182437) scale(0.1 -0.1)">
       <defs>
        <path id="DejaVuSans-38" d="M 2034 2216 
Q 1584 2216 1326 1975 
Q 1069 1734 1069 1313 
Q 1069 891 1326 650 
Q 1584 409 2034 409 
Q 2484 409 2743 651 
Q 3003 894 3003 1313 
Q 3003 1734 2745 1975 
Q 2488 2216 2034 2216 
z
M 1403 2484 
Q 997 2584 770 2862 
Q 544 3141 544 3541 
Q 544 4100 942 4425 
Q 1341 4750 2034 4750 
Q 2731 4750 3128 4425 
Q 3525 4100 3525 3541 
Q 3525 3141 3298 2862 
Q 3072 2584 2669 2484 
Q 3125 2378 3379 2068 
Q 3634 1759 3634 1313 
Q 3634 634 3220 271 
Q 2806 -91 2034 -91 
Q 1263 -91 848 271 
Q 434 634 434 1313 
Q 434 1759 690 2068 
Q 947 2378 1403 2484 
z
M 1172 3481 
Q 1172 3119 1398 2916 
Q 1625 2713 2034 2713 
Q 2441 2713 2670 2916 
Q 2900 3119 2900 3481 
Q 2900 3844 2670 4047 
Q 2441 4250 2034 4250 
Q 1625 4250 1398 4047 
Q 1172 3844 1172 3481 
z
" transform="scale(0.015625)"/>
       </defs>
       <use xlink:href="#DejaVuSans-38"/>
       <use xlink:href="#DejaVuSans-30" x="63.623047"/>
      </g>
     </g>
    </g>
    <g id="xtick_6">
     <g id="line2d_6">
      <g>
       <use xlink:href="#mb0c1a99108" x="294.68616" y="307.584" style="stroke: #000000; stroke-width: 0.8"/>
      </g>
     </g>
     <g id="text_6">
      <!-- 100 -->
      <g transform="translate(285.14241 322.182437) scale(0.1 -0.1)">
       <defs>
        <path id="DejaVuSans-31" d="M 794 531 
L 1825 531 
L 1825 4091 
L 703 3866 
L 703 4441 
L 1819 4666 
L 2450 4666 
L 2450 531 
L 3481 531 
L 3481 0 
L 794 0 
L 794 531 
z
" transform="scale(0.015625)"/>
       </defs>
       <use xlink:href="#DejaVuSans-31"/>
       <use xlink:href="#DejaVuSans-30" x="63.623047"/>
       <use xlink:href="#DejaVuSans-30" x="127.246094"/>
      </g>
     </g>
    </g>
    <g id="xtick_7">
     <g id="line2d_7">
      <g>
       <use xlink:href="#mb0c1a99108" x="338.856846" y="307.584" style="stroke: #000000; stroke-width: 0.8"/>
      </g>
     </g>
     <g id="text_7">
      <!-- 120 -->
      <g transform="translate(329.313096 322.182437) scale(0.1 -0.1)">
       <use xlink:href="#DejaVuSans-31"/>
       <use xlink:href="#DejaVuSans-32" x="63.623047"/>
       <use xlink:href="#DejaVuSans-30" x="127.246094"/>
      </g>
     </g>
    </g>
    <g id="xtick_8">
     <g id="line2d_8">
      <g>
       <use xlink:href="#mb0c1a99108" x="383.027532" y="307.584" style="stroke: #000000; stroke-width: 0.8"/>
      </g>
     </g>
     <g id="text_8">
      <!-- 140 -->
      <g transform="translate(373.483782 322.182437) scale(0.1 -0.1)">
       <use xlink:href="#DejaVuSans-31"/>
       <use xlink:href="#DejaVuSans-34" x="63.623047"/>
       <use xlink:href="#DejaVuSans-30" x="127.246094"/>
      </g>
     </g>
    </g>
   </g>
   <g id="matplotlib.axis_2">
    <g id="ytick_1">
     <g id="line2d_9">
      <defs>
       <path id="ma438021212" d="M 0 0 
L -3.5 0 
" style="stroke: #000000; stroke-width: 0.8"/>
      </defs>
      <g>
       <use xlink:href="#ma438021212" x="57.6" y="294.165646" style="stroke: #000000; stroke-width: 0.8"/>
      </g>
     </g>
     <g id="text_9">
      <!-- −400 -->
      <g transform="translate(23.132812 297.964864) scale(0.1 -0.1)">
       <defs>
        <path id="DejaVuSans-2212" d="M 678 2272 
L 4684 2272 
L 4684 1741 
L 678 1741 
L 678 2272 
z
" transform="scale(0.015625)"/>
       </defs>
       <use xlink:href="#DejaVuSans-2212"/>
       <use xlink:href="#DejaVuSans-34" x="83.789062"/>
       <use xlink:href="#DejaVuSans-30" x="147.412109"/>
       <use xlink:href="#DejaVuSans-30" x="211.035156"/>
      </g>
     </g>
    </g>
    <g id="ytick_2">
     <g id="line2d_10">
      <g>
       <use xlink:href="#ma438021212" x="57.6" y="261.108803" style="stroke: #000000; stroke-width: 0.8"/>
      </g>
     </g>
     <g id="text_10">
      <!-- −300 -->
      <g transform="translate(23.132812 264.908021) scale(0.1 -0.1)">
       <defs>
        <path id="DejaVuSans-33" d="M 2597 2516 
Q 3050 2419 3304 2112 
Q 3559 1806 3559 1356 
Q 3559 666 3084 287 
Q 2609 -91 1734 -91 
Q 1441 -91 1130 -33 
Q 819 25 488 141 
L 488 750 
Q 750 597 1062 519 
Q 1375 441 1716 441 
Q 2309 441 2620 675 
Q 2931 909 2931 1356 
Q 2931 1769 2642 2001 
Q 2353 2234 1838 2234 
L 1294 2234 
L 1294 2753 
L 1863 2753 
Q 2328 2753 2575 2939 
Q 2822 3125 2822 3475 
Q 2822 3834 2567 4026 
Q 2313 4219 1838 4219 
Q 1578 4219 1281 4162 
Q 984 4106 628 3988 
L 628 4550 
Q 988 4650 1302 4700 
Q 1616 4750 1894 4750 
Q 2613 4750 3031 4423 
Q 3450 4097 3450 3541 
Q 3450 3153 3228 2886 
Q 3006 2619 2597 2516 
z
" transform="scale(0.015625)"/>
       </defs>
       <use xlink:href="#DejaVuSans-2212"/>
       <use xlink:href="#DejaVuSans-33" x="83.789062"/>
       <use xlink:href="#DejaVuSans-30" x="147.412109"/>
       <use xlink:href="#DejaVuSans-30" x="211.035156"/>
      </g>
     </g>
    </g>
    <g id="ytick_3">
     <g id="line2d_11">
      <g>
       <use xlink:href="#ma438021212" x="57.6" y="228.05196" style="stroke: #000000; stroke-width: 0.8"/>
      </g>
     </g>
     <g id="text_11">
      <!-- −200 -->
      <g transform="translate(23.132812 231.851179) scale(0.1 -0.1)">
       <use xlink:href="#DejaVuSans-2212"/>
       <use xlink:href="#DejaVuSans-32" x="83.789062"/>
       <use xlink:href="#DejaVuSans-30" x="147.412109"/>
       <use xlink:href="#DejaVuSans-30" x="211.035156"/>
      </g>
     </g>
    </g>
    <g id="ytick_4">
     <g id="line2d_12">
      <g>
       <use xlink:href="#ma438021212" x="57.6" y="194.995117" style="stroke: #000000; stroke-width: 0.8"/>
      </g>
     </g>
     <g id="text_12">
      <!-- −100 -->
      <g transform="translate(23.132812 198.794336) scale(0.1 -0.1)">
       <use xlink:href="#DejaVuSans-2212"/>
       <use xlink:href="#DejaVuSans-31" x="83.789062"/>
       <use xlink:href="#DejaVuSans-30" x="147.412109"/>
       <use xlink:href="#DejaVuSans-30" x="211.035156"/>
      </g>
     </g>
    </g>
    <g id="ytick_5">
     <g id="line2d_13">
      <g>
       <use xlink:href="#ma438021212" x="57.6" y="161.938274" style="stroke: #000000; stroke-width: 0.8"/>
      </g>
     </g>
     <g id="text_13">
      <!-- 0 -->
      <g transform="translate(44.2375 165.737493) scale(0.1 -0.1)">
       <use xlink:href="#DejaVuSans-30"/>
      </g>
     </g>
    </g>
    <g id="ytick_6">
     <g id="line2d_14">
      <g>
       <use xlink:href="#ma438021212" x="57.6" y="128.881431" style="stroke: #000000; stroke-width: 0.8"/>
      </g>
     </g>
     <g id="text_14">
      <!-- 100 -->
      <g transform="translate(31.5125 132.68065) scale(0.1 -0.1)">
       <use xlink:href="#DejaVuSans-31"/>
       <use xlink:href="#DejaVuSans-30" x="63.623047"/>
       <use xlink:href="#DejaVuSans-30" x="127.246094"/>
      </g>
     </g>
    </g>
    <g id="ytick_7">
     <g id="line2d_15">
      <g>
       <use xlink:href="#ma438021212" x="57.6" y="95.824588" style="stroke: #000000; stroke-width: 0.8"/>
      </g>
     </g>
     <g id="text_15">
      <!-- 200 -->
      <g transform="translate(31.5125 99.623807) scale(0.1 -0.1)">
       <use xlink:href="#DejaVuSans-32"/>
       <use xlink:href="#DejaVuSans-30" x="63.623047"/>
       <use xlink:href="#DejaVuSans-30" x="127.246094"/>
      </g>
     </g>
    </g>
    <g id="ytick_8">
     <g id="line2d_16">
      <g>
       <use xlink:href="#ma438021212" x="57.6" y="62.767745" style="stroke: #000000; stroke-width: 0.8"/>
      </g>
     </g>
     <g id="text_16">
      <!-- 300 -->
      <g transform="translate(31.5125 66.566964) scale(0.1 -0.1)">
       <use xlink:href="#DejaVuSans-33"/>
       <use xlink:href="#DejaVuSans-30" x="63.623047"/>
       <use xlink:href="#DejaVuSans-30" x="127.246094"/>
      </g>
     </g>
    </g>
   </g>
   <g id="line2d_17">
    <path d="M 73.832727 161.708869 
L 76.041262 159.145616 
L 78.249796 152.704511 
L 80.45833 168.518232 
L 82.666865 161.862895 
L 84.875399 171.35882 
L 87.083933 161.442421 
L 89.292468 161.0206 
L 91.501002 159.194548 
L 93.709536 162.109853 
L 95.918071 160.725412 
L 98.126605 160.828876 
L 100.335139 162.690987 
L 102.543673 163.848638 
L 104.752208 161.526048 
L 106.960742 164.261171 
L 109.169276 154.254866 
L 111.377811 157.483864 
L 113.586345 166.007575 
L 115.794879 164.67836 
L 118.003414 155.290548 
L 120.211948 155.92326 
L 122.420482 161.882749 
L 124.629017 162.070178 
L 126.837551 166.657808 
L 129.046085 163.757401 
L 131.25462 164.57258 
L 133.463154 161.276152 
L 137.880223 167.798584 
L 140.088757 161.337965 
L 142.297291 163.124043 
L 144.505826 170.668258 
L 146.71436 163.65953 
L 148.922894 164.257216 
L 151.131429 161.403086 
L 153.339963 159.825598 
L 155.548497 170.896017 
L 157.757032 157.384363 
L 159.965566 162.60799 
L 162.1741 157.723841 
L 164.382635 170.440831 
L 166.591169 159.361503 
L 168.799703 164.638032 
L 171.008237 160.599141 
L 173.216772 163.38418 
L 175.425306 163.967646 
L 177.63384 162.030189 
L 179.842375 160.79812 
L 182.050909 166.720968 
L 184.259443 152.748794 
L 186.467978 149.686436 
L 188.676512 143.854534 
L 190.885046 162.921376 
L 193.093581 165.177853 
L 195.302115 156.240593 
L 197.510649 161.575649 
L 199.719184 168.056429 
L 201.927718 162.011336 
L 204.136252 162.105866 
L 206.344787 175.564965 
L 208.553321 164.618186 
L 212.97039 168.375424 
L 215.178924 164.49457 
L 217.387458 170.125791 
L 219.595993 166.805555 
L 221.804527 148.560163 
L 224.013061 161.616938 
L 226.221596 161.467214 
L 228.43013 165.508066 
L 230.638664 159.234562 
L 232.847199 162.987498 
L 235.055733 164.576543 
L 237.264267 156.241933 
L 239.472801 158.838194 
L 241.681336 158.928778 
L 243.88987 165.732208 
L 246.098404 168.622681 
L 248.306939 168.15861 
L 250.515473 165.205599 
L 252.724007 158.778384 
L 254.932542 167.67893 
L 257.141076 159.72579 
L 259.34961 161.41001 
L 261.558145 169.154568 
L 263.766679 162.2351 
L 265.975213 159.945276 
L 268.183748 159.802799 
L 270.392282 164.77854 
L 272.600816 155.893843 
L 274.809351 156.891149 
L 277.017885 164.902503 
L 279.226419 166.464753 
L 281.434954 158.368466 
L 283.643488 171.312205 
L 285.852022 160.581281 
L 288.060557 169.703977 
L 290.269091 144.379772 
L 292.477625 156.982064 
L 294.68616 158.588274 
L 296.894694 163.524688 
L 299.103228 160.347583 
L 301.311763 154.840649 
L 303.520297 155.944058 
L 305.728831 148.91918 
L 307.937365 157.487835 
L 310.1459 176.120999 
L 312.354434 149.901935 
L 314.562968 163.680384 
L 316.771503 166.054852 
L 318.980037 164.962313 
L 321.188571 162.649351 
L 323.397106 155.379791 
L 325.60564 169.557844 
L 327.814174 155.063435 
L 330.022709 161.160784 
L 332.231243 166.253185 
L 334.439777 166.150705 
L 336.648312 169.236234 
L 338.856846 161.793481 
L 341.06538 144.784105 
L 343.273915 159.485458 
L 345.482449 172.009022 
L 347.690983 155.840933 
L 349.899518 160.317835 
L 352.108052 155.098477 
L 354.316586 153.574215 
L 356.525121 167.137786 
L 358.733655 163.086999 
L 360.942189 155.318964 
L 363.150724 154.10975 
L 365.359258 159.34993 
L 367.567792 157.156936 
L 369.776327 155.620454 
L 371.984861 163.479057 
L 374.193395 162.605036 
L 376.401929 156.106711 
L 378.610464 156.747672 
L 380.818998 156.544755 
L 383.027532 160.832185 
L 385.236067 162.246003 
L 387.444601 162.92667 
L 389.653135 159.484473 
L 391.86167 178.181774 
L 394.070204 162.509497 
L 396.278738 168.354941 
L 398.487273 164.995386 
L 398.487273 164.995386 
" clip-path="url(#p851516c3ba)" style="fill: none; stroke: #008000; stroke-opacity: 0.8; stroke-width: 0.5; stroke-linecap: square"/>
   </g>
   <g id="line2d_18">
    <path d="M 73.832727 144.613212 
L 76.041262 146.027973 
L 78.249796 131.565685 
L 80.45833 132.828399 
L 82.666865 135.677857 
L 84.875399 147.505685 
L 87.083933 150.054274 
L 89.292468 151.809612 
L 91.501002 149.88899 
L 93.709536 145.08913 
L 95.918071 147.337092 
L 98.126605 152.328627 
L 100.335139 155.812912 
L 102.543673 155.842611 
L 104.752208 151.168329 
L 106.960742 153.723616 
L 109.169276 119.757791 
L 111.377811 140.150538 
L 113.586345 144.431383 
L 115.794879 141.843006 
L 118.003414 125.694706 
L 120.211948 134.623443 
L 122.420482 142.755378 
L 124.629017 155.498807 
L 126.837551 155.07567 
L 129.046085 155.819449 
L 131.25462 152.946829 
L 133.463154 141.876095 
L 135.671688 152.431123 
L 137.880223 160.563058 
L 140.088757 144.732171 
L 142.297291 140.226643 
L 144.505826 149.439382 
L 146.71436 150.371688 
L 148.922894 145.611535 
L 151.131429 149.584893 
L 153.339963 135.509344 
L 155.548497 137.353942 
L 157.757032 134.210233 
L 159.965566 153.677291 
L 162.1741 146.494127 
L 164.382635 147.370181 
L 166.591169 151.938579 
L 168.799703 157.320162 
L 171.008237 153.449219 
L 173.216772 153.422909 
L 175.425306 157.621112 
L 177.63384 148.259391 
L 179.842375 132.944049 
L 182.050909 145.889241 
L 184.259443 122.670037 
L 186.467978 74.479843 
L 188.676512 73.484667 
L 190.885046 126.422021 
L 193.093581 105.711861 
L 195.302115 124.660066 
L 197.510649 128.283164 
L 199.719184 152.345172 
L 201.927718 93.133877 
L 204.136252 115.731409 
L 206.344787 146.153631 
L 208.553321 148.61635 
L 210.761855 152.384798 
L 212.97039 158.791337 
L 215.178924 124.630286 
L 217.387458 121.275048 
L 219.595993 146.57007 
L 221.804527 113.311626 
L 224.013061 103.067394 
L 226.221596 146.133778 
L 228.43013 152.493911 
L 230.638664 144.428074 
L 232.847199 146.368469 
L 235.055733 139.347198 
L 237.264267 126.385543 
L 239.472801 149.409682 
L 241.681336 130.296274 
L 243.88987 143.287548 
L 246.098404 152.523611 
L 248.306939 144.14036 
L 250.515473 141.50582 
L 252.724007 129.62521 
L 254.932542 155.78975 
L 257.141076 148.180139 
L 259.34961 152.692204 
L 261.558145 152.483985 
L 265.975213 143.605042 
L 268.183748 137.046455 
L 270.392282 145.912323 
L 272.600816 123.380727 
L 274.809351 124.613822 
L 279.226419 159.55166 
L 281.434954 130.084745 
L 283.643488 115.943018 
L 285.852022 132.38226 
L 288.060557 144.219855 
L 290.269091 115.480093 
L 292.477625 74.797176 
L 294.68616 111.034045 
L 296.894694 115.688555 
L 299.103228 106.825834 
L 301.311763 137.327471 
L 303.520297 117.569389 
L 305.728831 83.104241 
L 307.937365 105.526804 
L 310.1459 101.645853 
L 314.562968 102.561615 
L 316.771503 148.576724 
L 318.980037 139.069492 
L 321.188571 112.415798 
L 323.397106 109.873666 
L 325.60564 112.713197 
L 327.814174 109.582804 
L 330.022709 131.988742 
L 332.231243 111.833995 
L 334.439777 109.843885 
L 336.648312 119.575881 
L 338.856846 132.068075 
L 341.06538 122.39564 
L 343.273915 105.50687 
L 345.482449 138.72246 
L 347.690983 124.23362 
L 349.899518 116.729732 
L 352.108052 133.165504 
L 354.316586 115.050419 
L 356.525121 152.860797 
L 358.733655 119.212304 
L 360.942189 110.746411 
L 363.150724 116.035506 
L 365.359258 134.415224 
L 367.567792 77.289594 
L 369.776327 123.605572 
L 371.984861 145.469413 
L 374.193395 151.346849 
L 376.401929 129.975632 
L 378.610464 140.074514 
L 380.818998 132.88457 
L 383.027532 133.416739 
L 385.236067 137.806617 
L 387.444601 132.127555 
L 389.653135 121.17917 
L 391.86167 138.36881 
L 394.070204 151.45919 
L 396.278738 148.262619 
L 398.487273 131.036744 
L 398.487273 131.036744 
" clip-path="url(#p851516c3ba)" style="fill: none; stroke: #32cd32; stroke-opacity: 0.8; stroke-width: 0.5; stroke-linecap: square"/>
   </g>
   <g id="line2d_19">
    <path d="M 73.832727 182.985621 
L 76.041262 176.493212 
L 78.249796 172.430513 
L 80.45833 210.121931 
L 82.666865 181.98068 
L 84.875399 203.765107 
L 87.083933 182.519468 
L 89.292468 172.770927 
L 91.501002 168.863666 
L 93.709536 175.541213 
L 95.918071 176.810625 
L 98.126605 168.820731 
L 100.335139 169.997494 
L 102.543673 173.597429 
L 104.752208 173.137894 
L 106.960742 174.430387 
L 109.169276 181.345933 
L 111.377811 181.792152 
L 113.586345 209.219405 
L 115.794879 212.872203 
L 118.003414 179.950944 
L 120.211948 198.948702 
L 122.420482 184.056659 
L 124.629017 172.43713 
L 126.837551 192.115879 
L 129.046085 179.025417 
L 131.25462 194.737344 
L 133.463154 172.13957 
L 135.671688 171.795847 
L 137.880223 180.747505 
L 140.088757 172.79417 
L 142.297291 182.274931 
L 144.505826 199.494189 
L 146.71436 171.931351 
L 148.922894 187.385425 
L 151.131429 170.751199 
L 153.339963 181.778998 
L 155.548497 198.148753 
L 157.757032 177.550934 
L 159.965566 181.79877 
L 162.1741 165.396007 
L 164.382635 186.790386 
L 166.591169 167.498377 
L 168.799703 184.562358 
L 171.008237 171.822318 
L 173.216772 174.605679 
L 175.425306 171.855408 
L 177.63384 177.078324 
L 179.842375 178.172444 
L 182.050909 177.911363 
L 184.259443 167.240604 
L 186.467978 225.843705 
L 188.676512 276.830657 
L 190.885046 239.092994 
L 193.093581 231.139417 
L 195.302115 174.466866 
L 197.510649 191.137409 
L 199.719184 184.658155 
L 201.927718 191.011751 
L 204.136252 194.578517 
L 206.344787 238.081354 
L 208.553321 181.137714 
L 210.761855 186.443354 
L 212.97039 178.152672 
L 215.178924 283.409017 
L 217.387458 241.244836 
L 219.595993 187.554099 
L 221.804527 169.055341 
L 224.013061 206.485598 
L 226.221596 188.241626 
L 228.43013 181.812087 
L 230.638664 182.45337 
L 232.847199 181.696436 
L 235.055733 191.573782 
L 237.264267 174.033802 
L 239.472801 173.944542 
L 241.681336 214.852304 
L 243.88987 187.742465 
L 246.098404 186.076387 
L 248.306939 192.119107 
L 250.515473 180.14609 
L 252.724007 187.983773 
L 254.932542 194.89932 
L 257.141076 170.48011 
L 259.34961 172.559318 
L 261.558145 190.743971 
L 263.766679 183.593734 
L 265.975213 177.098097 
L 268.183748 178.142745 
L 270.392282 201.715599 
L 272.600816 198.789955 
L 274.809351 186.317696 
L 277.017885 184.565667 
L 279.226419 173.478469 
L 281.434954 174.62868 
L 283.643488 290.512929 
L 285.852022 189.315893 
L 288.060557 212.901983 
L 290.269091 177.309706 
L 292.477625 189.018333 
L 294.68616 201.860949 
L 296.894694 197.411753 
L 299.103228 205.004658 
L 301.311763 175.984204 
L 303.520297 213.649151 
L 305.728831 185.38547 
L 307.937365 205.675802 
L 310.1459 295.488 
L 312.354434 184.522732 
L 314.562968 200.158634 
L 316.771503 188.836746 
L 318.980037 227.16275 
L 321.188571 192.935601 
L 323.397106 183.75579 
L 325.60564 215.84748 
L 327.814174 191.66974 
L 330.022709 200.254432 
L 332.231243 227.569343 
L 334.439777 205.629477 
L 336.648312 238.415232 
L 338.856846 200.70404 
L 341.06538 204.323829 
L 343.273915 198.257785 
L 345.482449 223.070271 
L 347.690983 194.343907 
L 349.899518 185.197023 
L 352.108052 198.042948 
L 354.316586 222.742931 
L 356.525121 179.071661 
L 358.733655 194.932409 
L 360.942189 189.702794 
L 363.150724 207.10041 
L 365.359258 180.767519 
L 367.567792 232.210617 
L 369.776327 177.50477 
L 371.984861 172.232139 
L 374.193395 177.950989 
L 376.401929 185.59716 
L 378.610464 181.699584 
L 380.818998 169.852063 
L 383.027532 181.557381 
L 385.236067 182.988849 
L 387.444601 214.072289 
L 389.653135 198.320655 
L 391.86167 222.458929 
L 394.070204 183.217002 
L 396.278738 214.908717 
L 398.487273 185.669794 
L 398.487273 185.669794 
" clip-path="url(#p851516c3ba)" style="fill: none; stroke: #32cd32; stroke-opacity: 0.8; stroke-width: 0.5; stroke-linecap: square"/>
   </g>
   <g id="line2d_20">
    <path d="M 73.832727 168.785697 
L 76.041262 161.819936 
L 78.249796 163.853908 
L 80.45833 168.335427 
L 82.666865 161.066569 
L 84.875399 162.519408 
L 87.083933 159.963789 
L 89.292468 162.923378 
L 91.501002 165.38742 
L 93.709536 159.043484 
L 95.918071 163.668795 
L 98.126605 158.631928 
L 100.335139 160.494369 
L 102.543673 161.129374 
L 104.752208 161.539937 
L 106.960742 164.427125 
L 109.169276 154.829729 
L 111.377811 149.869225 
L 113.586345 169.263351 
L 115.794879 164.292928 
L 118.003414 158.062674 
L 120.211948 164.100858 
L 122.420482 163.747482 
L 124.629017 160.377 
L 126.837551 169.549289 
L 129.046085 160.826237 
L 131.25462 159.904293 
L 133.463154 158.072286 
L 135.671688 162.999394 
L 137.880223 161.401455 
L 140.088757 157.101411 
L 142.297291 160.335009 
L 144.505826 163.191456 
L 146.71436 159.168125 
L 148.922894 161.03482 
L 151.131429 161.858586 
L 153.339963 159.157528 
L 155.548497 169.140025 
L 157.757032 161.116146 
L 159.965566 164.767273 
L 162.1741 162.962697 
L 164.382635 165.348746 
L 166.591169 163.970269 
L 168.799703 160.531712 
L 171.008237 164.167295 
L 173.216772 156.947683 
L 175.425306 165.32263 
L 177.63384 162.49033 
L 179.842375 160.99617 
L 182.050909 162.059921 
L 184.259443 153.556702 
L 186.467978 148.744292 
L 188.676512 134.862403 
L 190.885046 178.483563 
L 193.093581 165.081652 
L 195.302115 166.91002 
L 197.510649 162.74652 
L 199.719184 169.24286 
L 201.927718 158.098402 
L 204.136252 158.845789 
L 206.344787 161.806047 
L 208.553321 160.714517 
L 210.761855 161.787218 
L 212.97039 165.291905 
L 215.178924 157.395621 
L 217.387458 162.56039 
L 219.595993 165.395014 
L 221.804527 160.155198 
L 224.013061 169.437868 
L 226.221596 164.376248 
L 228.43013 165.440637 
L 230.638664 157.954271 
L 232.847199 174.283027 
L 235.055733 166.913644 
L 237.264267 165.04297 
L 239.472801 156.781059 
L 241.681336 157.608158 
L 243.88987 165.502457 
L 246.098404 169.965131 
L 248.306939 169.539354 
L 250.515473 158.435241 
L 252.724007 156.788678 
L 254.932542 162.6824 
L 257.141076 163.572941 
L 259.34961 159.589237 
L 261.558145 163.97357 
L 263.766679 164.704468 
L 265.975213 162.169688 
L 268.183748 162.68901 
L 270.392282 159.676188 
L 272.600816 158.974723 
L 274.809351 162.090653 
L 277.017885 167.492808 
L 279.226419 167.851139 
L 281.434954 170.994211 
L 283.643488 166.140472 
L 285.852022 168.237588 
L 288.060557 167.125882 
L 290.269091 148.574722 
L 292.477625 162.877408 
L 294.68616 164.509089 
L 296.894694 156.002585 
L 299.103228 162.874478 
L 301.311763 168.715919 
L 303.520297 163.517755 
L 305.728831 152.26353 
L 307.937365 154.769854 
L 310.1459 160.074218 
L 312.354434 148.500974 
L 314.562968 157.073301 
L 316.771503 155.505724 
L 318.980037 174.008654 
L 321.188571 160.116193 
L 323.397106 157.066005 
L 325.60564 152.286338 
L 327.814174 151.15845 
L 330.022709 164.497225 
L 332.231243 153.984149 
L 334.439777 156.384369 
L 336.648312 179.063042 
L 338.856846 166.327538 
L 341.06538 169.589287 
L 343.273915 160.036836 
L 345.482449 166.413183 
L 347.690983 161.761078 
L 349.899518 165.906088 
L 352.108052 157.726157 
L 354.316586 157.534087 
L 356.525121 158.014089 
L 358.733655 172.494318 
L 360.942189 161.406047 
L 363.150724 156.434011 
L 365.359258 169.544988 
L 367.567792 172.220954 
L 369.776327 157.043884 
L 371.984861 171.815329 
L 374.193395 166.095503 
L 376.401929 159.375683 
L 378.610464 157.571801 
L 380.818998 161.607375 
L 383.027532 157.277243 
L 385.236067 159.690409 
L 387.444601 158.993899 
L 389.653135 170.49634 
L 391.86167 167.596288 
L 394.070204 162.5409 
L 396.278738 161.828184 
L 398.487273 162.999055 
L 398.487273 162.999055 
" clip-path="url(#p851516c3ba)" style="fill: none; stroke: #ff0000; stroke-opacity: 0.8; stroke-width: 0.5; stroke-linecap: square"/>
   </g>
   <g id="line2d_21">
    <path d="M 73.832727 141.195105 
L 76.041262 139.218232 
L 78.249796 144.315652 
L 80.45833 131.671328 
L 82.666865 149.257714 
L 84.875399 147.591636 
L 87.083933 145.661007 
L 89.292468 150.970036 
L 91.501002 147.462589 
L 93.709536 140.335676 
L 95.918071 157.346633 
L 98.126605 147.297385 
L 100.335139 147.733758 
L 102.543673 150.550127 
L 104.752208 150.130299 
L 106.960742 155.776595 
L 109.169276 118.848647 
L 111.377811 122.686663 
L 113.586345 148.679219 
L 115.794879 147.128792 
L 118.003414 131.287979 
L 120.211948 136.124156 
L 122.420482 142.001673 
L 124.629017 141.390169 
L 126.837551 159.882148 
L 129.046085 149.660917 
L 131.25462 144.375212 
L 133.463154 136.653179 
L 135.671688 151.958432 
L 137.880223 155.707107 
L 140.088757 147.108939 
L 142.297291 139.337433 
L 144.505826 149.581584 
L 146.71436 142.285997 
L 148.922894 147.565084 
L 151.131429 151.01628 
L 153.339963 147.6081 
L 155.548497 134.408525 
L 157.757032 132.454895 
L 159.965566 150.731956 
L 162.1741 145.350373 
L 164.382635 136.560529 
L 166.591169 149.518795 
L 168.799703 149.019634 
L 171.008237 150.857614 
L 173.216772 141.535519 
L 175.425306 160.255732 
L 177.63384 149.409843 
L 179.842375 149.26756 
L 182.050909 143.175287 
L 184.259443 115.258638 
L 188.676512 53.568 
L 190.885046 118.342868 
L 193.093581 129.780648 
L 195.302115 132.868106 
L 197.510649 144.17014 
L 199.719184 142.038071 
L 201.927718 89.03478 
L 204.136252 121.913023 
L 206.344787 141.102536 
L 208.553321 136.484424 
L 210.761855 138.758777 
L 212.97039 157.293771 
L 215.178924 126.785679 
L 217.387458 133.958917 
L 219.595993 131.916027 
L 221.804527 135.7011 
L 224.013061 121.123 
L 226.221596 136.593618 
L 228.43013 151.13532 
L 230.638664 143.813181 
L 232.847199 146.292444 
L 235.055733 137.89273 
L 237.264267 128.659976 
L 239.472801 98.340169 
L 241.681336 118.376037 
L 243.88987 135.770506 
L 246.098404 147.763458 
L 248.306939 153.05909 
L 250.515473 137.18204 
L 252.724007 104.340034 
L 254.932542 145.733803 
L 257.141076 144.352211 
L 259.34961 135.125995 
L 261.558145 147.879189 
L 263.766679 142.444744 
L 265.975213 126.130998 
L 268.183748 132.335855 
L 270.392282 136.788683 
L 272.600816 133.20852 
L 274.809351 134.008551 
L 277.017885 150.817987 
L 279.226419 138.719151 
L 281.434954 151.34701 
L 283.643488 116.326449 
L 285.852022 137.006748 
L 288.060557 154.302192 
L 290.269091 126.554216 
L 292.477625 138.616817 
L 294.68616 136.372002 
L 296.894694 117.413951 
L 299.103228 112.94135 
L 301.311763 130.412086 
L 303.520297 126.560915 
L 305.728831 112.564619 
L 307.937365 105.824202 
L 310.1459 108.951367 
L 312.354434 104.194603 
L 314.562968 120.359367 
L 316.771503 123.436979 
L 318.980037 149.812966 
L 321.188571 107.007663 
L 323.397106 113.288463 
L 325.60564 105.344894 
L 327.814174 101.272269 
L 330.022709 127.268296 
L 332.231243 96.042815 
L 334.439777 119.122883 
L 336.648312 130.947484 
L 338.856846 138.457908 
L 341.06538 144.808276 
L 343.273915 127.595475 
L 345.482449 146.209802 
L 347.690983 135.773896 
L 349.899518 146.282518 
L 352.108052 127.499597 
L 354.316586 131.896254 
L 356.525121 141.208341 
L 358.733655 141.138853 
L 360.942189 151.475735 
L 363.150724 134.630061 
L 365.359258 147.489141 
L 367.567792 147.257678 
L 369.776327 125.136065 
L 371.984861 135.922635 
L 374.193395 151.13532 
L 376.401929 133.793713 
L 378.610464 123.886668 
L 380.818998 135.902782 
L 383.027532 132.825009 
L 385.236067 118.164348 
L 387.444601 137.826632 
L 389.653135 147.498987 
L 391.86167 141.562071 
L 394.070204 142.834631 
L 396.278738 145.912162 
L 398.487273 130.408615 
L 398.487273 130.408615 
" clip-path="url(#p851516c3ba)" style="fill: none; stroke: #f08080; stroke-opacity: 0.8; stroke-width: 0.5; stroke-linecap: square"/>
   </g>
   <g id="line2d_22">
    <path d="M 73.832727 184.016952 
L 76.041262 189.626769 
L 78.249796 196.542154 
L 80.45833 210.121931 
L 82.666865 173.91799 
L 84.875399 177.716299 
L 87.083933 179.071742 
L 89.292468 172.556171 
L 91.501002 171.068532 
L 93.709536 173.696616 
L 95.918071 177.944371 
L 98.126605 168.093416 
L 100.335139 171.825627 
L 102.543673 173.686689 
L 104.752208 177.993924 
L 106.960742 183.888066 
L 109.169276 176.903113 
L 111.377811 165.736502 
L 113.586345 188.565496 
L 115.794879 182.684832 
L 118.003414 175.508043 
L 120.211948 222.141354 
L 122.420482 186.849946 
L 124.629017 170.159469 
L 126.837551 180.85339 
L 129.046085 170.4835 
L 131.25462 171.597474 
L 133.463154 180.605463 
L 135.671688 174.36437 
L 137.880223 171.428881 
L 140.088757 173.841966 
L 142.297291 174.321354 
L 144.505826 181.557542 
L 146.71436 171.458661 
L 148.922894 176.625407 
L 151.131429 178.80711 
L 153.339963 181.650111 
L 155.548497 193.124048 
L 157.757032 182.231834 
L 159.965566 180.94265 
L 162.1741 201.252755 
L 164.382635 191.200278 
L 166.591169 196.049691 
L 168.799703 171.756221 
L 171.008237 183.240084 
L 173.216772 168.956155 
L 175.425306 168.866895 
L 177.63384 190.145623 
L 179.842375 170.053745 
L 182.050909 178.714541 
L 184.259443 164.328277 
L 186.467978 223.579279 
L 188.676512 253.654549 
L 190.885046 266.77471 
L 193.093581 194.03981 
L 195.302115 190.78045 
L 197.510649 182.661589 
L 199.719184 195.057905 
L 201.927718 181.342625 
L 204.136252 199.375149 
L 206.344787 174.318045 
L 208.553321 171.832245 
L 210.761855 188.466471 
L 212.97039 174.92632 
L 215.178924 186.15572 
L 217.387458 212.359805 
L 219.595993 182.486459 
L 221.804527 190.030053 
L 224.013061 204.138611 
L 226.221596 189.583754 
L 228.43013 183.884676 
L 230.638664 181.240129 
L 232.847199 273.65063 
L 235.055733 209.788054 
L 237.264267 202.667516 
L 239.472801 181.940973 
L 241.681336 221.324941 
L 243.88987 194.433167 
L 246.098404 213.414299 
L 248.306939 234.554134 
L 250.515473 191.048149 
L 252.724007 197.715769 
L 254.932542 179.488181 
L 257.141076 186.539312 
L 259.34961 187.177206 
L 261.558145 179.560816 
L 263.766679 191.325775 
L 265.975213 189.484567 
L 268.183748 193.953859 
L 270.392282 178.440305 
L 272.600816 183.940847 
L 274.809351 193.841517 
L 277.017885 182.109485 
L 279.226419 193.712469 
L 281.434954 211.358173 
L 283.643488 272.893535 
L 285.852022 232.478316 
L 288.060557 175.560986 
L 290.269091 164.71195 
L 292.477625 181.798851 
L 294.68616 187.160742 
L 296.894694 198.591582 
L 301.311763 213.70855 
L 303.520297 183.825277 
L 305.728831 189.428315 
L 307.937365 198.743711 
L 310.1459 195.573692 
L 312.354434 188.099424 
L 314.562968 198.138826 
L 316.771503 169.577746 
L 318.980037 201.02791 
L 321.188571 174.883305 
L 323.397106 229.714729 
L 325.60564 190.301061 
L 327.814174 202.704076 
L 330.022709 243.294344 
L 332.231243 194.800133 
L 334.439777 206.564931 
L 336.648312 229.066827 
L 338.856846 201.53716 
L 341.06538 215.60948 
L 343.273915 188.796959 
L 345.482449 184.426854 
L 347.690983 180.807065 
L 349.899518 192.634894 
L 352.108052 186.80693 
L 354.316586 186.760606 
L 356.525121 177.114561 
L 358.733655 208.634535 
L 360.942189 183.352506 
L 363.150724 191.831716 
L 365.359258 189.325901 
L 367.567792 203.540262 
L 369.776327 178.473313 
L 371.984861 208.105432 
L 374.193395 184.31774 
L 376.401929 176.208887 
L 378.610464 174.278581 
L 380.818998 185.160706 
L 383.027532 194.122371 
L 385.236067 184.036806 
L 387.444601 170.024046 
L 389.653135 220.121546 
L 391.86167 191.517611 
L 394.070204 191.844871 
L 396.278738 184.796968 
L 398.487273 184.277953 
L 398.487273 184.277953 
" clip-path="url(#p851516c3ba)" style="fill: none; stroke: #f08080; stroke-opacity: 0.8; stroke-width: 0.5; stroke-linecap: square"/>
   </g>
   <g id="patch_3">
    <path d="M 57.6 307.584 
L 57.6 41.472 
" style="fill: none; stroke: #000000; stroke-width: 0.8; stroke-linejoin: miter; stroke-linecap: square"/>
   </g>
   <g id="patch_4">
    <path d="M 414.72 307.584 
L 414.72 41.472 
" style="fill: none; stroke: #000000; stroke-width: 0.8; stroke-linejoin: miter; stroke-linecap: square"/>
   </g>
   <g id="patch_5">
    <path d="M 57.6 307.584 
L 414.72 307.584 
" style="fill: none; stroke: #000000; stroke-width: 0.8; stroke-linejoin: miter; stroke-linecap: square"/>
   </g>
   <g id="patch_6">
    <path d="M 57.6 41.472 
L 414.72 41.472 
" style="fill: none; stroke: #000000; stroke-width: 0.8; stroke-linejoin: miter; stroke-linecap: square"/>
   </g>
   <g id="text_17">
    <!-- weighted_distance_snp500 -->
    <g transform="translate(154.815938 35.472) scale(0.12 -0.12)">
     <defs>
      <path id="DejaVuSans-77" d="M 269 3500 
L 844 3500 
L 1563 769 
L 2278 3500 
L 2956 3500 
L 3675 769 
L 4391 3500 
L 4966 3500 
L 4050 0 
L 3372 0 
L 2619 2869 
L 1863 0 
L 1184 0 
L 269 3500 
z
" transform="scale(0.015625)"/>
      <path id="DejaVuSans-65" d="M 3597 1894 
L 3597 1613 
L 953 1613 
Q 991 1019 1311 708 
Q 1631 397 2203 397 
Q 2534 397 2845 478 
Q 3156 559 3463 722 
L 3463 178 
Q 3153 47 2828 -22 
Q 2503 -91 2169 -91 
Q 1331 -91 842 396 
Q 353 884 353 1716 
Q 353 2575 817 3079 
Q 1281 3584 2069 3584 
Q 2775 3584 3186 3129 
Q 3597 2675 3597 1894 
z
M 3022 2063 
Q 3016 2534 2758 2815 
Q 2500 3097 2075 3097 
Q 1594 3097 1305 2825 
Q 1016 2553 972 2059 
L 3022 2063 
z
" transform="scale(0.015625)"/>
      <path id="DejaVuSans-69" d="M 603 3500 
L 1178 3500 
L 1178 0 
L 603 0 
L 603 3500 
z
M 603 4863 
L 1178 4863 
L 1178 4134 
L 603 4134 
L 603 4863 
z
" transform="scale(0.015625)"/>
      <path id="DejaVuSans-67" d="M 2906 1791 
Q 2906 2416 2648 2759 
Q 2391 3103 1925 3103 
Q 1463 3103 1205 2759 
Q 947 2416 947 1791 
Q 947 1169 1205 825 
Q 1463 481 1925 481 
Q 2391 481 2648 825 
Q 2906 1169 2906 1791 
z
M 3481 434 
Q 3481 -459 3084 -895 
Q 2688 -1331 1869 -1331 
Q 1566 -1331 1297 -1286 
Q 1028 -1241 775 -1147 
L 775 -588 
Q 1028 -725 1275 -790 
Q 1522 -856 1778 -856 
Q 2344 -856 2625 -561 
Q 2906 -266 2906 331 
L 2906 616 
Q 2728 306 2450 153 
Q 2172 0 1784 0 
Q 1141 0 747 490 
Q 353 981 353 1791 
Q 353 2603 747 3093 
Q 1141 3584 1784 3584 
Q 2172 3584 2450 3431 
Q 2728 3278 2906 2969 
L 2906 3500 
L 3481 3500 
L 3481 434 
z
" transform="scale(0.015625)"/>
      <path id="DejaVuSans-68" d="M 3513 2113 
L 3513 0 
L 2938 0 
L 2938 2094 
Q 2938 2591 2744 2837 
Q 2550 3084 2163 3084 
Q 1697 3084 1428 2787 
Q 1159 2491 1159 1978 
L 1159 0 
L 581 0 
L 581 4863 
L 1159 4863 
L 1159 2956 
Q 1366 3272 1645 3428 
Q 1925 3584 2291 3584 
Q 2894 3584 3203 3211 
Q 3513 2838 3513 2113 
z
" transform="scale(0.015625)"/>
      <path id="DejaVuSans-74" d="M 1172 4494 
L 1172 3500 
L 2356 3500 
L 2356 3053 
L 1172 3053 
L 1172 1153 
Q 1172 725 1289 603 
Q 1406 481 1766 481 
L 2356 481 
L 2356 0 
L 1766 0 
Q 1100 0 847 248 
Q 594 497 594 1153 
L 594 3053 
L 172 3053 
L 172 3500 
L 594 3500 
L 594 4494 
L 1172 4494 
z
" transform="scale(0.015625)"/>
      <path id="DejaVuSans-64" d="M 2906 2969 
L 2906 4863 
L 3481 4863 
L 3481 0 
L 2906 0 
L 2906 525 
Q 2725 213 2448 61 
Q 2172 -91 1784 -91 
Q 1150 -91 751 415 
Q 353 922 353 1747 
Q 353 2572 751 3078 
Q 1150 3584 1784 3584 
Q 2172 3584 2448 3432 
Q 2725 3281 2906 2969 
z
M 947 1747 
Q 947 1113 1208 752 
Q 1469 391 1925 391 
Q 2381 391 2643 752 
Q 2906 1113 2906 1747 
Q 2906 2381 2643 2742 
Q 2381 3103 1925 3103 
Q 1469 3103 1208 2742 
Q 947 2381 947 1747 
z
" transform="scale(0.015625)"/>
      <path id="DejaVuSans-5f" d="M 3263 -1063 
L 3263 -1509 
L -63 -1509 
L -63 -1063 
L 3263 -1063 
z
" transform="scale(0.015625)"/>
      <path id="DejaVuSans-73" d="M 2834 3397 
L 2834 2853 
Q 2591 2978 2328 3040 
Q 2066 3103 1784 3103 
Q 1356 3103 1142 2972 
Q 928 2841 928 2578 
Q 928 2378 1081 2264 
Q 1234 2150 1697 2047 
L 1894 2003 
Q 2506 1872 2764 1633 
Q 3022 1394 3022 966 
Q 3022 478 2636 193 
Q 2250 -91 1575 -91 
Q 1294 -91 989 -36 
Q 684 19 347 128 
L 347 722 
Q 666 556 975 473 
Q 1284 391 1588 391 
Q 1994 391 2212 530 
Q 2431 669 2431 922 
Q 2431 1156 2273 1281 
Q 2116 1406 1581 1522 
L 1381 1569 
Q 847 1681 609 1914 
Q 372 2147 372 2553 
Q 372 3047 722 3315 
Q 1072 3584 1716 3584 
Q 2034 3584 2315 3537 
Q 2597 3491 2834 3397 
z
" transform="scale(0.015625)"/>
      <path id="DejaVuSans-61" d="M 2194 1759 
Q 1497 1759 1228 1600 
Q 959 1441 959 1056 
Q 959 750 1161 570 
Q 1363 391 1709 391 
Q 2188 391 2477 730 
Q 2766 1069 2766 1631 
L 2766 1759 
L 2194 1759 
z
M 3341 1997 
L 3341 0 
L 2766 0 
L 2766 531 
Q 2569 213 2275 61 
Q 1981 -91 1556 -91 
Q 1019 -91 701 211 
Q 384 513 384 1019 
Q 384 1609 779 1909 
Q 1175 2209 1959 2209 
L 2766 2209 
L 2766 2266 
Q 2766 2663 2505 2880 
Q 2244 3097 1772 3097 
Q 1472 3097 1187 3025 
Q 903 2953 641 2809 
L 641 3341 
Q 956 3463 1253 3523 
Q 1550 3584 1831 3584 
Q 2591 3584 2966 3190 
Q 3341 2797 3341 1997 
z
" transform="scale(0.015625)"/>
      <path id="DejaVuSans-6e" d="M 3513 2113 
L 3513 0 
L 2938 0 
L 2938 2094 
Q 2938 2591 2744 2837 
Q 2550 3084 2163 3084 
Q 1697 3084 1428 2787 
Q 1159 2491 1159 1978 
L 1159 0 
L 581 0 
L 581 3500 
L 1159 3500 
L 1159 2956 
Q 1366 3272 1645 3428 
Q 1925 3584 2291 3584 
Q 2894 3584 3203 3211 
Q 3513 2838 3513 2113 
z
" transform="scale(0.015625)"/>
      <path id="DejaVuSans-63" d="M 3122 3366 
L 3122 2828 
Q 2878 2963 2633 3030 
Q 2388 3097 2138 3097 
Q 1578 3097 1268 2742 
Q 959 2388 959 1747 
Q 959 1106 1268 751 
Q 1578 397 2138 397 
Q 2388 397 2633 464 
Q 2878 531 3122 666 
L 3122 134 
Q 2881 22 2623 -34 
Q 2366 -91 2075 -91 
Q 1284 -91 818 406 
Q 353 903 353 1747 
Q 353 2603 823 3093 
Q 1294 3584 2113 3584 
Q 2378 3584 2631 3529 
Q 2884 3475 3122 3366 
z
" transform="scale(0.015625)"/>
      <path id="DejaVuSans-70" d="M 1159 525 
L 1159 -1331 
L 581 -1331 
L 581 3500 
L 1159 3500 
L 1159 2969 
Q 1341 3281 1617 3432 
Q 1894 3584 2278 3584 
Q 2916 3584 3314 3078 
Q 3713 2572 3713 1747 
Q 3713 922 3314 415 
Q 2916 -91 2278 -91 
Q 1894 -91 1617 61 
Q 1341 213 1159 525 
z
M 3116 1747 
Q 3116 2381 2855 2742 
Q 2594 3103 2138 3103 
Q 1681 3103 1420 2742 
Q 1159 2381 1159 1747 
Q 1159 1113 1420 752 
Q 1681 391 2138 391 
Q 2594 391 2855 752 
Q 3116 1113 3116 1747 
z
" transform="scale(0.015625)"/>
      <path id="DejaVuSans-35" d="M 691 4666 
L 3169 4666 
L 3169 4134 
L 1269 4134 
L 1269 2991 
Q 1406 3038 1543 3061 
Q 1681 3084 1819 3084 
Q 2600 3084 3056 2656 
Q 3513 2228 3513 1497 
Q 3513 744 3044 326 
Q 2575 -91 1722 -91 
Q 1428 -91 1123 -41 
Q 819 9 494 109 
L 494 744 
Q 775 591 1075 516 
Q 1375 441 1709 441 
Q 2250 441 2565 725 
Q 2881 1009 2881 1497 
Q 2881 1984 2565 2268 
Q 2250 2553 1709 2553 
Q 1456 2553 1204 2497 
Q 953 2441 691 2322 
L 691 4666 
z
" transform="scale(0.015625)"/>
     </defs>
     <use xlink:href="#DejaVuSans-77"/>
     <use xlink:href="#DejaVuSans-65" x="81.787109"/>
     <use xlink:href="#DejaVuSans-69" x="143.310547"/>
     <use xlink:href="#DejaVuSans-67" x="171.09375"/>
     <use xlink:href="#DejaVuSans-68" x="234.570312"/>
     <use xlink:href="#DejaVuSans-74" x="297.949219"/>
     <use xlink:href="#DejaVuSans-65" x="337.158203"/>
     <use xlink:href="#DejaVuSans-64" x="398.681641"/>
     <use xlink:href="#DejaVuSans-5f" x="462.158203"/>
     <use xlink:href="#DejaVuSans-64" x="512.158203"/>
     <use xlink:href="#DejaVuSans-69" x="575.634766"/>
     <use xlink:href="#DejaVuSans-73" x="603.417969"/>
     <use xlink:href="#DejaVuSans-74" x="655.517578"/>
     <use xlink:href="#DejaVuSans-61" x="694.726562"/>
     <use xlink:href="#DejaVuSans-6e" x="756.005859"/>
     <use xlink:href="#DejaVuSans-63" x="819.384766"/>
     <use xlink:href="#DejaVuSans-65" x="874.365234"/>
     <use xlink:href="#DejaVuSans-5f" x="935.888672"/>
     <use xlink:href="#DejaVuSans-73" x="985.888672"/>
     <use xlink:href="#DejaVuSans-6e" x="1037.988281"/>
     <use xlink:href="#DejaVuSans-70" x="1101.367188"/>
     <use xlink:href="#DejaVuSans-35" x="1164.84375"/>
     <use xlink:href="#DejaVuSans-30" x="1228.466797"/>
     <use xlink:href="#DejaVuSans-30" x="1292.089844"/>
    </g>
   </g>
   <g id="legend_1">
    <g id="patch_7">
     <path d="M 64.6 302.584 
L 225.001563 302.584 
Q 227.001563 302.584 227.001563 300.584 
L 227.001563 213.51525 
Q 227.001563 211.51525 225.001563 211.51525 
L 64.6 211.51525 
Q 62.6 211.51525 62.6 213.51525 
L 62.6 300.584 
Q 62.6 302.584 64.6 302.584 
z
" style="fill: #ffffff; opacity: 0.8; stroke: #cccccc; stroke-linejoin: miter"/>
    </g>
    <g id="line2d_23">
     <path d="M 66.6 219.613687 
L 76.6 219.613687 
L 86.6 219.613687 
" style="fill: none; stroke: #008000; stroke-opacity: 0.8; stroke-width: 0.5; stroke-linecap: square"/>
    </g>
    <g id="text_18">
     <!-- Positive predictions -->
     <g transform="translate(94.6 223.113687) scale(0.1 -0.1)">
      <defs>
       <path id="DejaVuSans-50" d="M 1259 4147 
L 1259 2394 
L 2053 2394 
Q 2494 2394 2734 2622 
Q 2975 2850 2975 3272 
Q 2975 3691 2734 3919 
Q 2494 4147 2053 4147 
L 1259 4147 
z
M 628 4666 
L 2053 4666 
Q 2838 4666 3239 4311 
Q 3641 3956 3641 3272 
Q 3641 2581 3239 2228 
Q 2838 1875 2053 1875 
L 1259 1875 
L 1259 0 
L 628 0 
L 628 4666 
z
" transform="scale(0.015625)"/>
       <path id="DejaVuSans-6f" d="M 1959 3097 
Q 1497 3097 1228 2736 
Q 959 2375 959 1747 
Q 959 1119 1226 758 
Q 1494 397 1959 397 
Q 2419 397 2687 759 
Q 2956 1122 2956 1747 
Q 2956 2369 2687 2733 
Q 2419 3097 1959 3097 
z
M 1959 3584 
Q 2709 3584 3137 3096 
Q 3566 2609 3566 1747 
Q 3566 888 3137 398 
Q 2709 -91 1959 -91 
Q 1206 -91 779 398 
Q 353 888 353 1747 
Q 353 2609 779 3096 
Q 1206 3584 1959 3584 
z
" transform="scale(0.015625)"/>
       <path id="DejaVuSans-76" d="M 191 3500 
L 800 3500 
L 1894 563 
L 2988 3500 
L 3597 3500 
L 2284 0 
L 1503 0 
L 191 3500 
z
" transform="scale(0.015625)"/>
       <path id="DejaVuSans-20" transform="scale(0.015625)"/>
       <path id="DejaVuSans-72" d="M 2631 2963 
Q 2534 3019 2420 3045 
Q 2306 3072 2169 3072 
Q 1681 3072 1420 2755 
Q 1159 2438 1159 1844 
L 1159 0 
L 581 0 
L 581 3500 
L 1159 3500 
L 1159 2956 
Q 1341 3275 1631 3429 
Q 1922 3584 2338 3584 
Q 2397 3584 2469 3576 
Q 2541 3569 2628 3553 
L 2631 2963 
z
" transform="scale(0.015625)"/>
      </defs>
      <use xlink:href="#DejaVuSans-50"/>
      <use xlink:href="#DejaVuSans-6f" x="56.677734"/>
      <use xlink:href="#DejaVuSans-73" x="117.859375"/>
      <use xlink:href="#DejaVuSans-69" x="169.958984"/>
      <use xlink:href="#DejaVuSans-74" x="197.742188"/>
      <use xlink:href="#DejaVuSans-69" x="236.951172"/>
      <use xlink:href="#DejaVuSans-76" x="264.734375"/>
      <use xlink:href="#DejaVuSans-65" x="323.914062"/>
      <use xlink:href="#DejaVuSans-20" x="385.4375"/>
      <use xlink:href="#DejaVuSans-70" x="417.224609"/>
      <use xlink:href="#DejaVuSans-72" x="480.701172"/>
      <use xlink:href="#DejaVuSans-65" x="519.564453"/>
      <use xlink:href="#DejaVuSans-64" x="581.087891"/>
      <use xlink:href="#DejaVuSans-69" x="644.564453"/>
      <use xlink:href="#DejaVuSans-63" x="672.347656"/>
      <use xlink:href="#DejaVuSans-74" x="727.328125"/>
      <use xlink:href="#DejaVuSans-69" x="766.537109"/>
      <use xlink:href="#DejaVuSans-6f" x="794.320312"/>
      <use xlink:href="#DejaVuSans-6e" x="855.501953"/>
      <use xlink:href="#DejaVuSans-73" x="918.880859"/>
     </g>
    </g>
    <g id="line2d_24">
     <path d="M 66.6 234.291812 
L 76.6 234.291812 
L 86.6 234.291812 
" style="fill: none; stroke: #32cd32; stroke-opacity: 0.8; stroke-width: 0.5; stroke-linecap: square"/>
    </g>
    <g id="text_19">
     <!-- Positive predictions max -->
     <g transform="translate(94.6 237.791812) scale(0.1 -0.1)">
      <defs>
       <path id="DejaVuSans-6d" d="M 3328 2828 
Q 3544 3216 3844 3400 
Q 4144 3584 4550 3584 
Q 5097 3584 5394 3201 
Q 5691 2819 5691 2113 
L 5691 0 
L 5113 0 
L 5113 2094 
Q 5113 2597 4934 2840 
Q 4756 3084 4391 3084 
Q 3944 3084 3684 2787 
Q 3425 2491 3425 1978 
L 3425 0 
L 2847 0 
L 2847 2094 
Q 2847 2600 2669 2842 
Q 2491 3084 2119 3084 
Q 1678 3084 1418 2786 
Q 1159 2488 1159 1978 
L 1159 0 
L 581 0 
L 581 3500 
L 1159 3500 
L 1159 2956 
Q 1356 3278 1631 3431 
Q 1906 3584 2284 3584 
Q 2666 3584 2933 3390 
Q 3200 3197 3328 2828 
z
" transform="scale(0.015625)"/>
       <path id="DejaVuSans-78" d="M 3513 3500 
L 2247 1797 
L 3578 0 
L 2900 0 
L 1881 1375 
L 863 0 
L 184 0 
L 1544 1831 
L 300 3500 
L 978 3500 
L 1906 2253 
L 2834 3500 
L 3513 3500 
z
" transform="scale(0.015625)"/>
      </defs>
      <use xlink:href="#DejaVuSans-50"/>
      <use xlink:href="#DejaVuSans-6f" x="56.677734"/>
      <use xlink:href="#DejaVuSans-73" x="117.859375"/>
      <use xlink:href="#DejaVuSans-69" x="169.958984"/>
      <use xlink:href="#DejaVuSans-74" x="197.742188"/>
      <use xlink:href="#DejaVuSans-69" x="236.951172"/>
      <use xlink:href="#DejaVuSans-76" x="264.734375"/>
      <use xlink:href="#DejaVuSans-65" x="323.914062"/>
      <use xlink:href="#DejaVuSans-20" x="385.4375"/>
      <use xlink:href="#DejaVuSans-70" x="417.224609"/>
      <use xlink:href="#DejaVuSans-72" x="480.701172"/>
      <use xlink:href="#DejaVuSans-65" x="519.564453"/>
      <use xlink:href="#DejaVuSans-64" x="581.087891"/>
      <use xlink:href="#DejaVuSans-69" x="644.564453"/>
      <use xlink:href="#DejaVuSans-63" x="672.347656"/>
      <use xlink:href="#DejaVuSans-74" x="727.328125"/>
      <use xlink:href="#DejaVuSans-69" x="766.537109"/>
      <use xlink:href="#DejaVuSans-6f" x="794.320312"/>
      <use xlink:href="#DejaVuSans-6e" x="855.501953"/>
      <use xlink:href="#DejaVuSans-73" x="918.880859"/>
      <use xlink:href="#DejaVuSans-20" x="970.980469"/>
      <use xlink:href="#DejaVuSans-6d" x="1002.767578"/>
      <use xlink:href="#DejaVuSans-61" x="1100.179688"/>
      <use xlink:href="#DejaVuSans-78" x="1161.458984"/>
     </g>
    </g>
    <g id="line2d_25">
     <path d="M 66.6 248.969937 
L 76.6 248.969937 
L 86.6 248.969937 
" style="fill: none; stroke: #32cd32; stroke-opacity: 0.8; stroke-width: 0.5; stroke-linecap: square"/>
    </g>
    <g id="text_20">
     <!-- Positive predictions min -->
     <g transform="translate(94.6 252.469937) scale(0.1 -0.1)">
      <use xlink:href="#DejaVuSans-50"/>
      <use xlink:href="#DejaVuSans-6f" x="56.677734"/>
      <use xlink:href="#DejaVuSans-73" x="117.859375"/>
      <use xlink:href="#DejaVuSans-69" x="169.958984"/>
      <use xlink:href="#DejaVuSans-74" x="197.742188"/>
      <use xlink:href="#DejaVuSans-69" x="236.951172"/>
      <use xlink:href="#DejaVuSans-76" x="264.734375"/>
      <use xlink:href="#DejaVuSans-65" x="323.914062"/>
      <use xlink:href="#DejaVuSans-20" x="385.4375"/>
      <use xlink:href="#DejaVuSans-70" x="417.224609"/>
      <use xlink:href="#DejaVuSans-72" x="480.701172"/>
      <use xlink:href="#DejaVuSans-65" x="519.564453"/>
      <use xlink:href="#DejaVuSans-64" x="581.087891"/>
      <use xlink:href="#DejaVuSans-69" x="644.564453"/>
      <use xlink:href="#DejaVuSans-63" x="672.347656"/>
      <use xlink:href="#DejaVuSans-74" x="727.328125"/>
      <use xlink:href="#DejaVuSans-69" x="766.537109"/>
      <use xlink:href="#DejaVuSans-6f" x="794.320312"/>
      <use xlink:href="#DejaVuSans-6e" x="855.501953"/>
      <use xlink:href="#DejaVuSans-73" x="918.880859"/>
      <use xlink:href="#DejaVuSans-20" x="970.980469"/>
      <use xlink:href="#DejaVuSans-6d" x="1002.767578"/>
      <use xlink:href="#DejaVuSans-69" x="1100.179688"/>
      <use xlink:href="#DejaVuSans-6e" x="1127.962891"/>
     </g>
    </g>
    <g id="line2d_26">
     <path d="M 66.6 263.648062 
L 76.6 263.648062 
L 86.6 263.648062 
" style="fill: none; stroke: #ff0000; stroke-opacity: 0.8; stroke-width: 0.5; stroke-linecap: square"/>
    </g>
    <g id="text_21">
     <!-- Negative predictions -->
     <g transform="translate(94.6 267.148062) scale(0.1 -0.1)">
      <defs>
       <path id="DejaVuSans-4e" d="M 628 4666 
L 1478 4666 
L 3547 763 
L 3547 4666 
L 4159 4666 
L 4159 0 
L 3309 0 
L 1241 3903 
L 1241 0 
L 628 0 
L 628 4666 
z
" transform="scale(0.015625)"/>
      </defs>
      <use xlink:href="#DejaVuSans-4e"/>
      <use xlink:href="#DejaVuSans-65" x="74.804688"/>
      <use xlink:href="#DejaVuSans-67" x="136.328125"/>
      <use xlink:href="#DejaVuSans-61" x="199.804688"/>
      <use xlink:href="#DejaVuSans-74" x="261.083984"/>
      <use xlink:href="#DejaVuSans-69" x="300.292969"/>
      <use xlink:href="#DejaVuSans-76" x="328.076172"/>
      <use xlink:href="#DejaVuSans-65" x="387.255859"/>
      <use xlink:href="#DejaVuSans-20" x="448.779297"/>
      <use xlink:href="#DejaVuSans-70" x="480.566406"/>
      <use xlink:href="#DejaVuSans-72" x="544.042969"/>
      <use xlink:href="#DejaVuSans-65" x="582.90625"/>
      <use xlink:href="#DejaVuSans-64" x="644.429688"/>
      <use xlink:href="#DejaVuSans-69" x="707.90625"/>
      <use xlink:href="#DejaVuSans-63" x="735.689453"/>
      <use xlink:href="#DejaVuSans-74" x="790.669922"/>
      <use xlink:href="#DejaVuSans-69" x="829.878906"/>
      <use xlink:href="#DejaVuSans-6f" x="857.662109"/>
      <use xlink:href="#DejaVuSans-6e" x="918.84375"/>
      <use xlink:href="#DejaVuSans-73" x="982.222656"/>
     </g>
    </g>
    <g id="line2d_27">
     <path d="M 66.6 278.326188 
L 76.6 278.326188 
L 86.6 278.326188 
" style="fill: none; stroke: #f08080; stroke-opacity: 0.8; stroke-width: 0.5; stroke-linecap: square"/>
    </g>
    <g id="text_22">
     <!-- Negative predictions max -->
     <g transform="translate(94.6 281.826188) scale(0.1 -0.1)">
      <use xlink:href="#DejaVuSans-4e"/>
      <use xlink:href="#DejaVuSans-65" x="74.804688"/>
      <use xlink:href="#DejaVuSans-67" x="136.328125"/>
      <use xlink:href="#DejaVuSans-61" x="199.804688"/>
      <use xlink:href="#DejaVuSans-74" x="261.083984"/>
      <use xlink:href="#DejaVuSans-69" x="300.292969"/>
      <use xlink:href="#DejaVuSans-76" x="328.076172"/>
      <use xlink:href="#DejaVuSans-65" x="387.255859"/>
      <use xlink:href="#DejaVuSans-20" x="448.779297"/>
      <use xlink:href="#DejaVuSans-70" x="480.566406"/>
      <use xlink:href="#DejaVuSans-72" x="544.042969"/>
      <use xlink:href="#DejaVuSans-65" x="582.90625"/>
      <use xlink:href="#DejaVuSans-64" x="644.429688"/>
      <use xlink:href="#DejaVuSans-69" x="707.90625"/>
      <use xlink:href="#DejaVuSans-63" x="735.689453"/>
      <use xlink:href="#DejaVuSans-74" x="790.669922"/>
      <use xlink:href="#DejaVuSans-69" x="829.878906"/>
      <use xlink:href="#DejaVuSans-6f" x="857.662109"/>
      <use xlink:href="#DejaVuSans-6e" x="918.84375"/>
      <use xlink:href="#DejaVuSans-73" x="982.222656"/>
      <use xlink:href="#DejaVuSans-20" x="1034.322266"/>
      <use xlink:href="#DejaVuSans-6d" x="1066.109375"/>
      <use xlink:href="#DejaVuSans-61" x="1163.521484"/>
      <use xlink:href="#DejaVuSans-78" x="1224.800781"/>
     </g>
    </g>
    <g id="line2d_28">
     <path d="M 66.6 293.004312 
L 76.6 293.004312 
L 86.6 293.004312 
" style="fill: none; stroke: #f08080; stroke-opacity: 0.8; stroke-width: 0.5; stroke-linecap: square"/>
    </g>
    <g id="text_23">
     <!-- Negative predictions min -->
     <g transform="translate(94.6 296.504312) scale(0.1 -0.1)">
      <use xlink:href="#DejaVuSans-4e"/>
      <use xlink:href="#DejaVuSans-65" x="74.804688"/>
      <use xlink:href="#DejaVuSans-67" x="136.328125"/>
      <use xlink:href="#DejaVuSans-61" x="199.804688"/>
      <use xlink:href="#DejaVuSans-74" x="261.083984"/>
      <use xlink:href="#DejaVuSans-69" x="300.292969"/>
      <use xlink:href="#DejaVuSans-76" x="328.076172"/>
      <use xlink:href="#DejaVuSans-65" x="387.255859"/>
      <use xlink:href="#DejaVuSans-20" x="448.779297"/>
      <use xlink:href="#DejaVuSans-70" x="480.566406"/>
      <use xlink:href="#DejaVuSans-72" x="544.042969"/>
      <use xlink:href="#DejaVuSans-65" x="582.90625"/>
      <use xlink:href="#DejaVuSans-64" x="644.429688"/>
      <use xlink:href="#DejaVuSans-69" x="707.90625"/>
      <use xlink:href="#DejaVuSans-63" x="735.689453"/>
      <use xlink:href="#DejaVuSans-74" x="790.669922"/>
      <use xlink:href="#DejaVuSans-69" x="829.878906"/>
      <use xlink:href="#DejaVuSans-6f" x="857.662109"/>
      <use xlink:href="#DejaVuSans-6e" x="918.84375"/>
      <use xlink:href="#DejaVuSans-73" x="982.222656"/>
      <use xlink:href="#DejaVuSans-20" x="1034.322266"/>
      <use xlink:href="#DejaVuSans-6d" x="1066.109375"/>
      <use xlink:href="#DejaVuSans-69" x="1163.521484"/>
      <use xlink:href="#DejaVuSans-6e" x="1191.304688"/>
     </g>
    </g>
   </g>
  </g>
 </g>
 <defs>
  <clipPath id="p851516c3ba">
   <rect x="57.6" y="41.472" width="357.12" height="266.112"/>
  </clipPath>
 </defs>
</svg>
