<?xml version="1.0" encoding="utf-8" standalone="no"?>
<!DOCTYPE svg PUBLIC "-//W3C//DTD SVG 1.1//EN"
  "http://www.w3.org/Graphics/SVG/1.1/DTD/svg11.dtd">
<svg xmlns:xlink="http://www.w3.org/1999/xlink" width="460.8pt" height="345.6pt" viewBox="0 0 460.8 345.6" xmlns="http://www.w3.org/2000/svg" version="1.1">
 <metadata>
  <rdf:RDF xmlns:dc="http://purl.org/dc/elements/1.1/" xmlns:cc="http://creativecommons.org/ns#" xmlns:rdf="http://www.w3.org/1999/02/22-rdf-syntax-ns#">
   <cc:Work>
    <dc:type rdf:resource="http://purl.org/dc/dcmitype/StillImage"/>
    <dc:date>2024-07-19T10:36:35.083544</dc:date>
    <dc:format>image/svg+xml</dc:format>
    <dc:creator>
     <cc:Agent>
      <dc:title>Matplotlib v3.9.0, https://matplotlib.org/</dc:title>
     </cc:Agent>
    </dc:creator>
   </cc:Work>
  </rdf:RDF>
 </metadata>
 <defs>
  <style type="text/css">*{stroke-linejoin: round; stroke-linecap: butt}</style>
 </defs>
 <g id="figure_1">
  <g id="patch_1">
   <path d="M 0 345.6 
L 460.8 345.6 
L 460.8 0 
L 0 0 
z
" style="fill: #ffffff"/>
  </g>
  <g id="axes_1">
   <g id="patch_2">
    <path d="M 57.6 307.584 
L 414.72 307.584 
L 414.72 41.472 
L 57.6 41.472 
z
" style="fill: #ffffff"/>
   </g>
   <g id="matplotlib.axis_1">
    <g id="xtick_1">
     <g id="line2d_1">
      <defs>
       <path id="m54dc079aeb" d="M 0 0 
L 0 3.5 
" style="stroke: #000000; stroke-width: 0.8"/>
      </defs>
      <g>
       <use xlink:href="#m54dc079aeb" x="73.832727" y="307.584" style="stroke: #000000; stroke-width: 0.8"/>
      </g>
     </g>
     <g id="text_1">
      <!-- 0 -->
      <g transform="translate(70.651477 322.182437) scale(0.1 -0.1)">
       <defs>
        <path id="DejaVuSans-30" d="M 2034 4250 
Q 1547 4250 1301 3770 
Q 1056 3291 1056 2328 
Q 1056 1369 1301 889 
Q 1547 409 2034 409 
Q 2525 409 2770 889 
Q 3016 1369 3016 2328 
Q 3016 3291 2770 3770 
Q 2525 4250 2034 4250 
z
M 2034 4750 
Q 2819 4750 3233 4129 
Q 3647 3509 3647 2328 
Q 3647 1150 3233 529 
Q 2819 -91 2034 -91 
Q 1250 -91 836 529 
Q 422 1150 422 2328 
Q 422 3509 836 4129 
Q 1250 4750 2034 4750 
z
" transform="scale(0.015625)"/>
       </defs>
       <use xlink:href="#DejaVuSans-30"/>
      </g>
     </g>
    </g>
    <g id="xtick_2">
     <g id="line2d_2">
      <g>
       <use xlink:href="#m54dc079aeb" x="118.003414" y="307.584" style="stroke: #000000; stroke-width: 0.8"/>
      </g>
     </g>
     <g id="text_2">
      <!-- 20 -->
      <g transform="translate(111.640914 322.182437) scale(0.1 -0.1)">
       <defs>
        <path id="DejaVuSans-32" d="M 1228 531 
L 3431 531 
L 3431 0 
L 469 0 
L 469 531 
Q 828 903 1448 1529 
Q 2069 2156 2228 2338 
Q 2531 2678 2651 2914 
Q 2772 3150 2772 3378 
Q 2772 3750 2511 3984 
Q 2250 4219 1831 4219 
Q 1534 4219 1204 4116 
Q 875 4013 500 3803 
L 500 4441 
Q 881 4594 1212 4672 
Q 1544 4750 1819 4750 
Q 2544 4750 2975 4387 
Q 3406 4025 3406 3419 
Q 3406 3131 3298 2873 
Q 3191 2616 2906 2266 
Q 2828 2175 2409 1742 
Q 1991 1309 1228 531 
z
" transform="scale(0.015625)"/>
       </defs>
       <use xlink:href="#DejaVuSans-32"/>
       <use xlink:href="#DejaVuSans-30" x="63.623047"/>
      </g>
     </g>
    </g>
    <g id="xtick_3">
     <g id="line2d_3">
      <g>
       <use xlink:href="#m54dc079aeb" x="162.1741" y="307.584" style="stroke: #000000; stroke-width: 0.8"/>
      </g>
     </g>
     <g id="text_3">
      <!-- 40 -->
      <g transform="translate(155.8116 322.182437) scale(0.1 -0.1)">
       <defs>
        <path id="DejaVuSans-34" d="M 2419 4116 
L 825 1625 
L 2419 1625 
L 2419 4116 
z
M 2253 4666 
L 3047 4666 
L 3047 1625 
L 3713 1625 
L 3713 1100 
L 3047 1100 
L 3047 0 
L 2419 0 
L 2419 1100 
L 313 1100 
L 313 1709 
L 2253 4666 
z
" transform="scale(0.015625)"/>
       </defs>
       <use xlink:href="#DejaVuSans-34"/>
       <use xlink:href="#DejaVuSans-30" x="63.623047"/>
      </g>
     </g>
    </g>
    <g id="xtick_4">
     <g id="line2d_4">
      <g>
       <use xlink:href="#m54dc079aeb" x="206.344787" y="307.584" style="stroke: #000000; stroke-width: 0.8"/>
      </g>
     </g>
     <g id="text_4">
      <!-- 60 -->
      <g transform="translate(199.982287 322.182437) scale(0.1 -0.1)">
       <defs>
        <path id="DejaVuSans-36" d="M 2113 2584 
Q 1688 2584 1439 2293 
Q 1191 2003 1191 1497 
Q 1191 994 1439 701 
Q 1688 409 2113 409 
Q 2538 409 2786 701 
Q 3034 994 3034 1497 
Q 3034 2003 2786 2293 
Q 2538 2584 2113 2584 
z
M 3366 4563 
L 3366 3988 
Q 3128 4100 2886 4159 
Q 2644 4219 2406 4219 
Q 1781 4219 1451 3797 
Q 1122 3375 1075 2522 
Q 1259 2794 1537 2939 
Q 1816 3084 2150 3084 
Q 2853 3084 3261 2657 
Q 3669 2231 3669 1497 
Q 3669 778 3244 343 
Q 2819 -91 2113 -91 
Q 1303 -91 875 529 
Q 447 1150 447 2328 
Q 447 3434 972 4092 
Q 1497 4750 2381 4750 
Q 2619 4750 2861 4703 
Q 3103 4656 3366 4563 
z
" transform="scale(0.015625)"/>
       </defs>
       <use xlink:href="#DejaVuSans-36"/>
       <use xlink:href="#DejaVuSans-30" x="63.623047"/>
      </g>
     </g>
    </g>
    <g id="xtick_5">
     <g id="line2d_5">
      <g>
       <use xlink:href="#m54dc079aeb" x="250.515473" y="307.584" style="stroke: #000000; stroke-width: 0.8"/>
      </g>
     </g>
     <g id="text_5">
      <!-- 80 -->
      <g transform="translate(244.152973 322.182437) scale(0.1 -0.1)">
       <defs>
        <path id="DejaVuSans-38" d="M 2034 2216 
Q 1584 2216 1326 1975 
Q 1069 1734 1069 1313 
Q 1069 891 1326 650 
Q 1584 409 2034 409 
Q 2484 409 2743 651 
Q 3003 894 3003 1313 
Q 3003 1734 2745 1975 
Q 2488 2216 2034 2216 
z
M 1403 2484 
Q 997 2584 770 2862 
Q 544 3141 544 3541 
Q 544 4100 942 4425 
Q 1341 4750 2034 4750 
Q 2731 4750 3128 4425 
Q 3525 4100 3525 3541 
Q 3525 3141 3298 2862 
Q 3072 2584 2669 2484 
Q 3125 2378 3379 2068 
Q 3634 1759 3634 1313 
Q 3634 634 3220 271 
Q 2806 -91 2034 -91 
Q 1263 -91 848 271 
Q 434 634 434 1313 
Q 434 1759 690 2068 
Q 947 2378 1403 2484 
z
M 1172 3481 
Q 1172 3119 1398 2916 
Q 1625 2713 2034 2713 
Q 2441 2713 2670 2916 
Q 2900 3119 2900 3481 
Q 2900 3844 2670 4047 
Q 2441 4250 2034 4250 
Q 1625 4250 1398 4047 
Q 1172 3844 1172 3481 
z
" transform="scale(0.015625)"/>
       </defs>
       <use xlink:href="#DejaVuSans-38"/>
       <use xlink:href="#DejaVuSans-30" x="63.623047"/>
      </g>
     </g>
    </g>
    <g id="xtick_6">
     <g id="line2d_6">
      <g>
       <use xlink:href="#m54dc079aeb" x="294.68616" y="307.584" style="stroke: #000000; stroke-width: 0.8"/>
      </g>
     </g>
     <g id="text_6">
      <!-- 100 -->
      <g transform="translate(285.14241 322.182437) scale(0.1 -0.1)">
       <defs>
        <path id="DejaVuSans-31" d="M 794 531 
L 1825 531 
L 1825 4091 
L 703 3866 
L 703 4441 
L 1819 4666 
L 2450 4666 
L 2450 531 
L 3481 531 
L 3481 0 
L 794 0 
L 794 531 
z
" transform="scale(0.015625)"/>
       </defs>
       <use xlink:href="#DejaVuSans-31"/>
       <use xlink:href="#DejaVuSans-30" x="63.623047"/>
       <use xlink:href="#DejaVuSans-30" x="127.246094"/>
      </g>
     </g>
    </g>
    <g id="xtick_7">
     <g id="line2d_7">
      <g>
       <use xlink:href="#m54dc079aeb" x="338.856846" y="307.584" style="stroke: #000000; stroke-width: 0.8"/>
      </g>
     </g>
     <g id="text_7">
      <!-- 120 -->
      <g transform="translate(329.313096 322.182437) scale(0.1 -0.1)">
       <use xlink:href="#DejaVuSans-31"/>
       <use xlink:href="#DejaVuSans-32" x="63.623047"/>
       <use xlink:href="#DejaVuSans-30" x="127.246094"/>
      </g>
     </g>
    </g>
    <g id="xtick_8">
     <g id="line2d_8">
      <g>
       <use xlink:href="#m54dc079aeb" x="383.027532" y="307.584" style="stroke: #000000; stroke-width: 0.8"/>
      </g>
     </g>
     <g id="text_8">
      <!-- 140 -->
      <g transform="translate(373.483782 322.182437) scale(0.1 -0.1)">
       <use xlink:href="#DejaVuSans-31"/>
       <use xlink:href="#DejaVuSans-34" x="63.623047"/>
       <use xlink:href="#DejaVuSans-30" x="127.246094"/>
      </g>
     </g>
    </g>
   </g>
   <g id="matplotlib.axis_2">
    <g id="ytick_1">
     <g id="line2d_9">
      <defs>
       <path id="mbcd9e4a485" d="M 0 0 
L -3.5 0 
" style="stroke: #000000; stroke-width: 0.8"/>
      </defs>
      <g>
       <use xlink:href="#mbcd9e4a485" x="57.6" y="285.356017" style="stroke: #000000; stroke-width: 0.8"/>
      </g>
     </g>
     <g id="text_9">
      <!-- −400 -->
      <g transform="translate(23.132812 289.155236) scale(0.1 -0.1)">
       <defs>
        <path id="DejaVuSans-2212" d="M 678 2272 
L 4684 2272 
L 4684 1741 
L 678 1741 
L 678 2272 
z
" transform="scale(0.015625)"/>
       </defs>
       <use xlink:href="#DejaVuSans-2212"/>
       <use xlink:href="#DejaVuSans-34" x="83.789062"/>
       <use xlink:href="#DejaVuSans-30" x="147.412109"/>
       <use xlink:href="#DejaVuSans-30" x="211.035156"/>
      </g>
     </g>
    </g>
    <g id="ytick_2">
     <g id="line2d_10">
      <g>
       <use xlink:href="#mbcd9e4a485" x="57.6" y="252.855848" style="stroke: #000000; stroke-width: 0.8"/>
      </g>
     </g>
     <g id="text_10">
      <!-- −300 -->
      <g transform="translate(23.132812 256.655067) scale(0.1 -0.1)">
       <defs>
        <path id="DejaVuSans-33" d="M 2597 2516 
Q 3050 2419 3304 2112 
Q 3559 1806 3559 1356 
Q 3559 666 3084 287 
Q 2609 -91 1734 -91 
Q 1441 -91 1130 -33 
Q 819 25 488 141 
L 488 750 
Q 750 597 1062 519 
Q 1375 441 1716 441 
Q 2309 441 2620 675 
Q 2931 909 2931 1356 
Q 2931 1769 2642 2001 
Q 2353 2234 1838 2234 
L 1294 2234 
L 1294 2753 
L 1863 2753 
Q 2328 2753 2575 2939 
Q 2822 3125 2822 3475 
Q 2822 3834 2567 4026 
Q 2313 4219 1838 4219 
Q 1578 4219 1281 4162 
Q 984 4106 628 3988 
L 628 4550 
Q 988 4650 1302 4700 
Q 1616 4750 1894 4750 
Q 2613 4750 3031 4423 
Q 3450 4097 3450 3541 
Q 3450 3153 3228 2886 
Q 3006 2619 2597 2516 
z
" transform="scale(0.015625)"/>
       </defs>
       <use xlink:href="#DejaVuSans-2212"/>
       <use xlink:href="#DejaVuSans-33" x="83.789062"/>
       <use xlink:href="#DejaVuSans-30" x="147.412109"/>
       <use xlink:href="#DejaVuSans-30" x="211.035156"/>
      </g>
     </g>
    </g>
    <g id="ytick_3">
     <g id="line2d_11">
      <g>
       <use xlink:href="#mbcd9e4a485" x="57.6" y="220.355679" style="stroke: #000000; stroke-width: 0.8"/>
      </g>
     </g>
     <g id="text_11">
      <!-- −200 -->
      <g transform="translate(23.132812 224.154898) scale(0.1 -0.1)">
       <use xlink:href="#DejaVuSans-2212"/>
       <use xlink:href="#DejaVuSans-32" x="83.789062"/>
       <use xlink:href="#DejaVuSans-30" x="147.412109"/>
       <use xlink:href="#DejaVuSans-30" x="211.035156"/>
      </g>
     </g>
    </g>
    <g id="ytick_4">
     <g id="line2d_12">
      <g>
       <use xlink:href="#mbcd9e4a485" x="57.6" y="187.85551" style="stroke: #000000; stroke-width: 0.8"/>
      </g>
     </g>
     <g id="text_12">
      <!-- −100 -->
      <g transform="translate(23.132812 191.654729) scale(0.1 -0.1)">
       <use xlink:href="#DejaVuSans-2212"/>
       <use xlink:href="#DejaVuSans-31" x="83.789062"/>
       <use xlink:href="#DejaVuSans-30" x="147.412109"/>
       <use xlink:href="#DejaVuSans-30" x="211.035156"/>
      </g>
     </g>
    </g>
    <g id="ytick_5">
     <g id="line2d_13">
      <g>
       <use xlink:href="#mbcd9e4a485" x="57.6" y="155.355342" style="stroke: #000000; stroke-width: 0.8"/>
      </g>
     </g>
     <g id="text_13">
      <!-- 0 -->
      <g transform="translate(44.2375 159.15456) scale(0.1 -0.1)">
       <use xlink:href="#DejaVuSans-30"/>
      </g>
     </g>
    </g>
    <g id="ytick_6">
     <g id="line2d_14">
      <g>
       <use xlink:href="#mbcd9e4a485" x="57.6" y="122.855173" style="stroke: #000000; stroke-width: 0.8"/>
      </g>
     </g>
     <g id="text_14">
      <!-- 100 -->
      <g transform="translate(31.5125 126.654392) scale(0.1 -0.1)">
       <use xlink:href="#DejaVuSans-31"/>
       <use xlink:href="#DejaVuSans-30" x="63.623047"/>
       <use xlink:href="#DejaVuSans-30" x="127.246094"/>
      </g>
     </g>
    </g>
    <g id="ytick_7">
     <g id="line2d_15">
      <g>
       <use xlink:href="#mbcd9e4a485" x="57.6" y="90.355004" style="stroke: #000000; stroke-width: 0.8"/>
      </g>
     </g>
     <g id="text_15">
      <!-- 200 -->
      <g transform="translate(31.5125 94.154223) scale(0.1 -0.1)">
       <use xlink:href="#DejaVuSans-32"/>
       <use xlink:href="#DejaVuSans-30" x="63.623047"/>
       <use xlink:href="#DejaVuSans-30" x="127.246094"/>
      </g>
     </g>
    </g>
    <g id="ytick_8">
     <g id="line2d_16">
      <g>
       <use xlink:href="#mbcd9e4a485" x="57.6" y="57.854835" style="stroke: #000000; stroke-width: 0.8"/>
      </g>
     </g>
     <g id="text_16">
      <!-- 300 -->
      <g transform="translate(31.5125 61.654054) scale(0.1 -0.1)">
       <use xlink:href="#DejaVuSans-33"/>
       <use xlink:href="#DejaVuSans-30" x="63.623047"/>
       <use xlink:href="#DejaVuSans-30" x="127.246094"/>
      </g>
     </g>
    </g>
   </g>
   <g id="line2d_17">
    <path d="M 73.832727 156.541691 
L 76.041262 157.288295 
L 78.249796 154.63698 
L 80.45833 157.956042 
L 82.666865 156.748993 
L 84.875399 157.462625 
L 87.083933 154.980878 
L 89.292468 157.322177 
L 91.501002 154.781315 
L 93.709536 157.280308 
L 95.918071 155.292946 
L 98.126605 156.886646 
L 100.335139 155.826122 
L 102.543673 155.796131 
L 104.752208 156.113569 
L 109.169276 155.976877 
L 111.377811 154.048527 
L 113.586345 157.419008 
L 115.794879 159.664262 
L 118.003414 153.478833 
L 120.211948 158.74243 
L 122.420482 157.841232 
L 124.629017 155.8051 
L 126.837551 158.499747 
L 129.046085 156.007307 
L 131.25462 157.004445 
L 133.463154 154.613656 
L 135.671688 156.926692 
L 137.880223 155.784434 
L 140.088757 154.245862 
L 142.297291 155.560483 
L 144.505826 159.601232 
L 146.71436 156.440899 
L 148.922894 156.089577 
L 151.131429 156.25632 
L 153.339963 152.825557 
L 155.548497 161.444405 
L 157.757032 154.524582 
L 159.965566 157.706085 
L 162.1741 154.115813 
L 164.382635 158.846287 
L 166.591169 155.769845 
L 168.799703 155.964569 
L 171.008237 156.735606 
L 173.216772 155.691553 
L 175.425306 157.398607 
L 177.63384 155.325913 
L 179.842375 153.648529 
L 182.050909 159.875415 
L 184.259443 150.502762 
L 186.467978 162.489881 
L 188.676512 158.767096 
L 190.885046 164.435405 
L 193.093581 160.298966 
L 195.302115 157.408761 
L 197.510649 159.174549 
L 199.719184 157.348481 
L 201.927718 156.643139 
L 204.136252 156.860555 
L 206.344787 156.382995 
L 208.553321 155.400343 
L 210.761855 156.277208 
L 212.97039 157.548654 
L 215.178924 152.898799 
L 217.387458 158.587941 
L 219.595993 158.956522 
L 221.804527 151.688377 
L 224.013061 161.864363 
L 226.221596 155.425835 
L 228.43013 157.531298 
L 230.638664 155.146697 
L 232.847199 158.192934 
L 235.055733 155.865776 
L 237.264267 158.138223 
L 239.472801 154.418314 
L 241.681336 156.631089 
L 243.88987 157.790902 
L 246.098404 158.058417 
L 248.306939 154.77442 
L 250.515473 155.976353 
L 252.724007 155.879217 
L 254.932542 157.73312 
L 257.141076 154.709528 
L 259.34961 157.863341 
L 261.558145 156.200907 
L 263.766679 158.734295 
L 265.975213 155.616001 
L 268.183748 154.980412 
L 270.392282 155.147744 
L 272.600816 159.581692 
L 274.809351 156.112831 
L 277.017885 159.087242 
L 279.226419 158.246325 
L 281.434954 154.896416 
L 283.643488 154.796334 
L 285.852022 153.587581 
L 288.060557 162.191512 
L 290.269091 151.605052 
L 292.477625 164.929976 
L 294.68616 153.671915 
L 296.894694 157.696414 
L 299.103228 162.963431 
L 301.311763 155.300698 
L 303.520297 155.987111 
L 305.728831 154.318243 
L 307.937365 159.881222 
L 310.1459 159.626789 
L 312.354434 147.346101 
L 314.562968 166.580784 
L 316.771503 157.748214 
L 318.980037 162.777375 
L 321.188571 160.909016 
L 323.397106 155.813845 
L 325.60564 157.304949 
L 327.814174 150.287444 
L 330.022709 161.295432 
L 332.231243 158.681883 
L 334.439777 157.94238 
L 336.648312 163.1588 
L 338.856846 158.933006 
L 341.06538 153.792183 
L 343.273915 159.807884 
L 345.482449 157.417974 
L 347.690983 162.744423 
L 349.899518 154.800514 
L 352.108052 155.396575 
L 354.316586 158.107177 
L 356.525121 156.187369 
L 358.733655 156.951553 
L 360.942189 157.296882 
L 363.150724 154.523363 
L 365.359258 159.184766 
L 367.567792 158.412916 
L 369.776327 156.829741 
L 371.984861 158.304947 
L 374.193395 155.796577 
L 376.401929 154.471445 
L 378.610464 158.118666 
L 380.818998 155.37784 
L 383.027532 153.047328 
L 385.236067 159.285301 
L 387.444601 155.619133 
L 389.653135 161.906926 
L 391.86167 158.203046 
L 394.070204 156.53504 
L 396.278738 157.658343 
L 398.487273 154.798571 
L 398.487273 154.798571 
" clip-path="url(#pee0c995b98)" style="fill: none; stroke: #008000; stroke-opacity: 0.8; stroke-width: 0.5; stroke-linecap: square"/>
   </g>
   <g id="line2d_18">
    <path d="M 73.832727 140.232977 
L 76.041262 146.849863 
L 78.249796 134.71925 
L 80.45833 135.353515 
L 82.666865 145.786046 
L 84.875399 147.558835 
L 87.083933 148.450477 
L 89.292468 147.071052 
L 91.501002 150.215249 
L 93.709536 143.702092 
L 95.918071 147.341176 
L 98.126605 147.654513 
L 100.335139 146.810067 
L 102.543673 149.72274 
L 104.752208 149.123216 
L 106.960742 150.621926 
L 109.169276 126.277 
L 111.377811 132.19156 
L 113.586345 142.891495 
L 115.794879 139.677479 
L 118.003414 123.342404 
L 120.211948 139.509134 
L 122.420482 135.013008 
L 124.629017 139.007337 
L 126.837551 146.355218 
L 129.046085 150.75041 
L 131.25462 149.723306 
L 133.463154 136.376028 
L 135.671688 148.136851 
L 137.880223 151.979151 
L 140.088757 138.144032 
L 142.297291 133.938973 
L 144.505826 145.621029 
L 146.71436 151.047328 
L 148.922894 147.69983 
L 151.131429 149.359691 
L 153.339963 134.703096 
L 155.548497 126.613705 
L 157.757032 130.944767 
L 159.965566 151.252352 
L 162.1741 143.672168 
L 164.382635 137.723436 
L 166.591169 151.045058 
L 168.799703 151.041911 
L 171.008237 151.266137 
L 173.216772 145.625412 
L 175.425306 153.78283 
L 177.63384 146.339995 
L 179.842375 141.99585 
L 182.050909 135.535721 
L 184.259443 126.865643 
L 186.467978 92.613407 
L 188.676512 56.007597 
L 190.885046 114.973405 
L 193.093581 126.619895 
L 195.302115 125.551721 
L 197.510649 134.939289 
L 199.719184 146.486268 
L 201.927718 93.044837 
L 204.136252 127.817402 
L 206.344787 139.794538 
L 208.553321 139.286892 
L 210.761855 144.152302 
L 212.97039 148.578405 
L 215.178924 109.446876 
L 217.387458 131.758499 
L 219.595993 136.782281 
L 221.804527 133.139183 
L 224.013061 121.544433 
L 226.221596 139.281821 
L 228.43013 147.316307 
L 230.638664 144.942013 
L 232.847199 136.379861 
L 235.055733 145.066661 
L 237.264267 122.583748 
L 239.472801 148.430209 
L 241.681336 121.563951 
L 243.88987 135.267981 
L 246.098404 142.487985 
L 248.306939 144.448333 
L 250.515473 139.75013 
L 252.724007 130.283021 
L 254.932542 147.881999 
L 257.141076 147.075268 
L 259.34961 139.636874 
L 261.558145 141.90091 
L 263.766679 140.697734 
L 265.975213 144.798358 
L 268.183748 139.171554 
L 270.392282 148.512543 
L 272.600816 136.437448 
L 274.809351 127.242127 
L 277.017885 143.564569 
L 279.226419 145.213527 
L 281.434954 141.963972 
L 283.643488 118.960906 
L 285.852022 132.759049 
L 288.060557 147.849892 
L 290.269091 122.855056 
L 292.477625 143.484219 
L 294.68616 111.290834 
L 296.894694 121.641703 
L 299.103228 123.197948 
L 301.311763 129.556397 
L 303.520297 132.822442 
L 305.728831 100.415881 
L 307.937365 98.550115 
L 310.1459 95.459677 
L 312.354434 124.881063 
L 314.562968 119.058341 
L 316.771503 138.357957 
L 318.980037 138.660568 
L 321.188571 143.360325 
L 323.397106 133.440355 
L 325.60564 103.217433 
L 327.814174 90.094997 
L 330.022709 128.980053 
L 332.231243 123.007943 
L 334.439777 124.411474 
L 336.648312 126.658091 
L 338.856846 134.598602 
L 341.06538 122.338592 
L 343.273915 134.485942 
L 345.482449 134.47776 
L 347.690983 136.453049 
L 349.899518 134.602931 
L 352.108052 134.273928 
L 354.316586 132.358674 
L 356.525121 129.223042 
L 358.733655 145.72645 
L 360.942189 133.533763 
L 363.150724 139.899235 
L 365.359258 138.540972 
L 367.567792 146.551915 
L 369.776327 143.515517 
L 371.984861 143.532336 
L 374.193395 141.907859 
L 376.401929 134.629376 
L 378.610464 137.317043 
L 380.818998 133.435782 
L 383.027532 135.218611 
L 385.236067 136.775643 
L 387.444601 135.026979 
L 389.653135 135.722777 
L 391.86167 143.090705 
L 394.070204 148.229632 
L 396.278738 145.036137 
L 398.487273 128.443166 
L 398.487273 128.443166 
" clip-path="url(#pee0c995b98)" style="fill: none; stroke: #32cd32; stroke-opacity: 0.8; stroke-width: 0.5; stroke-linecap: square"/>
   </g>
   <g id="line2d_19">
    <path d="M 73.832727 170.855938 
L 76.041262 170.624274 
L 78.249796 194.537127 
L 80.45833 171.205738 
L 82.666865 166.795078 
L 84.875399 168.866448 
L 87.083933 163.38717 
L 89.292468 172.612884 
L 91.501002 159.666454 
L 93.709536 164.660939 
L 95.918071 162.892282 
L 98.126605 165.199705 
L 100.335139 165.368327 
L 102.543673 162.082861 
L 104.752208 161.658746 
L 106.960742 161.944049 
L 109.169276 184.908342 
L 111.377811 185.560096 
L 113.586345 173.261765 
L 115.794879 173.705716 
L 118.003414 168.431567 
L 120.211948 212.15256 
L 122.420482 187.384822 
L 124.629017 166.148378 
L 126.837551 169.475313 
L 129.046085 164.967334 
L 131.25462 172.400199 
L 133.463154 165.753068 
L 135.671688 163.469285 
L 137.880223 163.146151 
L 140.088757 165.632212 
L 142.297291 170.267448 
L 144.505826 178.939571 
L 146.71436 164.114545 
L 148.922894 162.245375 
L 151.131429 163.685216 
L 153.339963 162.552174 
L 155.548497 182.896387 
L 157.757032 169.71699 
L 159.965566 167.257731 
L 162.1741 165.493461 
L 164.382635 177.320489 
L 166.591169 162.380335 
L 168.799703 164.576762 
L 171.008237 162.667186 
L 173.216772 168.854411 
L 175.425306 162.688514 
L 177.63384 163.105483 
L 179.842375 162.773354 
L 182.050909 179.264151 
L 184.259443 161.212035 
L 186.467978 243.882413 
L 188.676512 295.488 
L 190.885046 215.573711 
L 193.093581 198.174314 
L 195.302115 178.613003 
L 197.510649 181.963978 
L 199.719184 168.326882 
L 201.927718 200.846536 
L 204.136252 177.613313 
L 206.344787 169.482195 
L 208.553321 169.365534 
L 210.761855 171.093076 
L 212.97039 164.914543 
L 215.178924 197.450237 
L 217.387458 178.913084 
L 219.595993 175.56621 
L 221.804527 168.087782 
L 224.013061 189.158541 
L 226.221596 171.04486 
L 228.43013 173.663603 
L 230.638664 173.79874 
L 232.847199 169.046002 
L 235.055733 172.078289 
L 237.264267 184.249587 
L 239.472801 163.334428 
L 241.681336 195.779053 
L 243.88987 171.483057 
L 246.098404 176.386521 
L 248.306939 169.695872 
L 250.515473 176.072612 
L 252.724007 191.730183 
L 254.932542 175.018246 
L 257.141076 168.497246 
L 259.34961 183.370529 
L 261.558145 172.705391 
L 263.766679 192.840906 
L 265.975213 169.449555 
L 268.183748 170.061589 
L 270.392282 168.570899 
L 272.600816 178.027702 
L 274.809351 181.713931 
L 277.017885 179.005111 
L 279.226419 169.419363 
L 281.434954 168.39744 
L 283.643488 191.62897 
L 285.852022 186.631083 
L 288.060557 198.10441 
L 290.269091 173.893424 
L 292.477625 199.436756 
L 294.68616 187.268279 
L 296.894694 196.018268 
L 299.103228 208.385082 
L 301.311763 175.798096 
L 303.520297 180.320249 
L 305.728831 198.64165 
L 307.937365 196.303819 
L 310.1459 184.251784 
L 312.354434 189.186383 
L 314.562968 198.157011 
L 316.771503 175.93268 
L 318.980037 195.4575 
L 321.188571 187.489487 
L 323.397106 178.627266 
L 325.60564 186.231518 
L 327.814174 172.661911 
L 330.022709 196.712157 
L 332.231243 193.088532 
L 334.439777 192.428267 
L 336.648312 228.194791 
L 338.856846 198.760864 
L 341.06538 177.047864 
L 343.273915 185.364142 
L 345.482449 186.627608 
L 347.690983 191.218097 
L 349.899518 173.204298 
L 352.108052 171.131583 
L 354.316586 184.882117 
L 356.525121 173.115825 
L 358.733655 175.649532 
L 360.942189 189.245684 
L 363.150724 188.572027 
L 365.359258 176.859417 
L 367.567792 174.529218 
L 369.776327 176.971664 
L 371.984861 170.499613 
L 374.193395 165.855335 
L 376.401929 175.32347 
L 378.610464 172.626382 
L 380.818998 175.62695 
L 383.027532 167.480689 
L 385.236067 173.837514 
L 387.444601 174.403752 
L 389.653135 180.713682 
L 391.86167 178.783479 
L 394.070204 163.974321 
L 396.278738 173.391759 
L 398.487273 170.163723 
L 398.487273 170.163723 
" clip-path="url(#pee0c995b98)" style="fill: none; stroke: #32cd32; stroke-opacity: 0.8; stroke-width: 0.5; stroke-linecap: square"/>
   </g>
   <g id="line2d_20">
    <path d="M 73.832727 153.574156 
L 76.041262 154.288749 
L 78.249796 152.826338 
L 80.45833 156.844649 
L 82.666865 154.174505 
L 84.875399 155.810647 
L 87.083933 153.742358 
L 89.292468 155.791776 
L 91.501002 153.869954 
L 93.709536 156.414204 
L 95.918071 153.66476 
L 98.126605 155.134189 
L 100.335139 154.62656 
L 102.543673 154.525823 
L 104.752208 154.989956 
L 106.960742 155.004865 
L 111.377811 152.355462 
L 113.586345 154.271955 
L 115.794879 157.092893 
L 118.003414 150.908855 
L 120.211948 153.159687 
L 122.420482 156.187478 
L 124.629017 154.182296 
L 126.837551 156.312758 
L 129.046085 154.505086 
L 131.25462 155.525383 
L 133.463154 153.656118 
L 135.671688 155.012895 
L 137.880223 155.125713 
L 140.088757 152.846412 
L 142.297291 153.860623 
L 144.505826 157.198695 
L 146.71436 154.892152 
L 148.922894 153.291961 
L 151.131429 154.362488 
L 153.339963 149.819049 
L 155.548497 158.293808 
L 157.757032 152.396954 
L 159.965566 155.33185 
L 162.1741 153.023555 
L 164.382635 155.780003 
L 166.591169 154.023457 
L 168.799703 155.135848 
L 171.008237 155.141014 
L 173.216772 153.928662 
L 175.425306 155.55934 
L 177.63384 154.014475 
L 179.842375 152.634915 
L 182.050909 155.97294 
L 184.259443 146.748314 
L 186.467978 152.077714 
L 188.676512 150.966628 
L 190.885046 158.652865 
L 193.093581 151.461927 
L 195.302115 152.679495 
L 197.510649 155.590146 
L 199.719184 153.812021 
L 201.927718 151.746201 
L 204.136252 153.791451 
L 206.344787 154.729989 
L 210.761855 154.565386 
L 212.97039 155.915068 
L 215.178924 149.46419 
L 217.387458 153.675244 
L 219.595993 155.422175 
L 221.804527 148.78579 
L 224.013061 154.297677 
L 226.221596 151.460422 
L 228.43013 155.270447 
L 230.638664 153.422019 
L 232.847199 156.9274 
L 235.055733 151.856587 
L 237.264267 155.081121 
L 239.472801 152.083477 
L 241.681336 154.481723 
L 243.88987 155.162731 
L 246.098404 155.015789 
L 248.306939 152.606578 
L 250.515473 154.507963 
L 252.724007 151.857168 
L 254.932542 156.207446 
L 257.141076 154.505718 
L 259.34961 156.78115 
L 261.558145 154.378795 
L 263.766679 155.679762 
L 265.975213 155.316714 
L 268.183748 152.253276 
L 270.392282 153.7961 
L 272.600816 154.913008 
L 274.809351 152.684697 
L 277.017885 154.525839 
L 279.226419 155.824779 
L 281.434954 152.796836 
L 283.643488 152.590894 
L 285.852022 150.409885 
L 288.060557 158.431831 
L 290.269091 148.261431 
L 292.477625 159.618513 
L 294.68616 151.417281 
L 296.894694 150.440616 
L 299.103228 155.438499 
L 301.311763 150.603488 
L 303.520297 151.395989 
L 305.728831 147.258602 
L 307.937365 152.850823 
L 310.1459 157.735336 
L 312.354434 137.094779 
L 314.562968 153.744649 
L 316.771503 153.473379 
L 318.980037 159.293328 
L 321.188571 155.683383 
L 323.397106 149.860543 
L 325.60564 153.042503 
L 327.814174 147.876785 
L 330.022709 153.606759 
L 332.231243 155.153454 
L 334.439777 152.786637 
L 336.648312 158.353415 
L 338.856846 156.26869 
L 341.06538 148.293091 
L 343.273915 155.277086 
L 345.482449 154.208569 
L 347.690983 159.473265 
L 349.899518 151.962665 
L 352.108052 151.480087 
L 354.316586 154.318981 
L 356.525121 154.78791 
L 358.733655 153.731433 
L 360.942189 155.899035 
L 363.150724 153.999096 
L 365.359258 157.124767 
L 367.567792 154.275097 
L 369.776327 153.004522 
L 371.984861 155.071372 
L 374.193395 152.769646 
L 376.401929 151.672033 
L 378.610464 155.10195 
L 380.818998 151.887744 
L 383.027532 151.008533 
L 385.236067 154.571656 
L 387.444601 152.774135 
L 389.653135 157.305818 
L 391.86167 152.62898 
L 394.070204 154.041153 
L 396.278738 154.583145 
L 398.487273 153.822421 
L 398.487273 153.822421 
" clip-path="url(#pee0c995b98)" style="fill: none; stroke: #ff0000; stroke-opacity: 0.8; stroke-width: 0.5; stroke-linecap: square"/>
   </g>
   <g id="line2d_21">
    <path d="M 73.832727 135.957303 
L 76.041262 144.400087 
L 78.249796 134.106844 
L 80.45833 130.994324 
L 82.666865 143.795905 
L 84.875399 145.418977 
L 87.083933 146.719348 
L 89.292468 145.062079 
L 91.501002 149.438515 
L 93.709536 143.601611 
L 95.918071 143.78541 
L 98.126605 146.198364 
L 100.335139 147.908825 
L 102.543673 147.605287 
L 104.752208 148.492526 
L 106.960742 150.132734 
L 109.169276 124.885648 
L 111.377811 131.0228 
L 113.586345 136.352805 
L 115.794879 139.226527 
L 118.003414 117.368503 
L 120.211948 137.896457 
L 122.420482 134.67136 
L 124.629017 134.19286 
L 126.837551 145.062525 
L 129.046085 149.211453 
L 131.25462 148.337083 
L 133.463154 134.833938 
L 135.671688 146.962189 
L 137.880223 150.158055 
L 140.088757 139.777703 
L 142.297291 132.677761 
L 144.505826 143.846107 
L 146.71436 148.012705 
L 148.922894 144.730056 
L 151.131429 148.152326 
L 153.339963 128.899105 
L 155.548497 126.047238 
L 157.757032 128.790758 
L 159.965566 144.904903 
L 162.1741 143.344905 
L 164.382635 139.770565 
L 166.591169 148.074813 
L 168.799703 150.368085 
L 171.008237 150.801882 
L 173.216772 146.502953 
L 175.425306 149.571922 
L 177.63384 141.939262 
L 179.842375 139.096963 
L 182.050909 135.878246 
L 184.259443 121.027645 
L 186.467978 91.08273 
L 188.676512 53.568 
L 190.885046 96.662489 
L 193.093581 122.50396 
L 195.302115 124.741753 
L 197.510649 129.057379 
L 199.719184 140.164806 
L 201.927718 93.105651 
L 204.136252 125.429526 
L 206.344787 134.465012 
L 208.553321 137.66082 
L 212.97039 147.965298 
L 215.178924 101.390422 
L 217.387458 130.6639 
L 219.595993 133.048808 
L 221.804527 131.154442 
L 224.013061 117.687526 
L 226.221596 136.998069 
L 228.43013 140.829409 
L 230.638664 142.5958 
L 232.847199 132.95678 
L 235.055733 137.617184 
L 237.264267 122.316134 
L 239.472801 145.90374 
L 241.681336 118.999466 
L 243.88987 132.417698 
L 246.098404 136.999253 
L 248.306939 143.018883 
L 250.515473 140.517608 
L 252.724007 126.81066 
L 254.932542 145.535179 
L 257.141076 147.12272 
L 259.34961 137.492519 
L 261.558145 139.828198 
L 263.766679 134.09315 
L 265.975213 145.046659 
L 268.183748 139.547658 
L 270.392282 145.87551 
L 272.600816 130.694718 
L 274.809351 125.270527 
L 277.017885 143.121408 
L 279.226419 143.429693 
L 281.434954 141.118614 
L 283.643488 118.259072 
L 285.852022 131.873081 
L 288.060557 138.168038 
L 290.269091 122.613492 
L 292.477625 133.759695 
L 294.68616 110.217259 
L 296.894694 121.545511 
L 299.103228 116.997843 
L 301.311763 126.157426 
L 303.520297 129.544117 
L 305.728831 86.546073 
L 307.937365 82.190193 
L 310.1459 90.931513 
L 312.354434 107.350844 
L 314.562968 116.024739 
L 316.771503 136.186753 
L 318.980037 131.690966 
L 321.188571 136.618047 
L 323.397106 128.625969 
L 325.60564 100.863086 
L 327.814174 82.752397 
L 330.022709 119.506092 
L 332.231243 124.165996 
L 334.439777 122.986044 
L 336.648312 122.697125 
L 338.856846 131.459428 
L 341.06538 123.225575 
L 343.273915 131.440492 
L 345.482449 131.475214 
L 347.690983 132.587024 
L 349.899518 124.351261 
L 352.108052 129.830144 
L 354.316586 129.336249 
L 356.525121 119.925199 
L 358.733655 138.317589 
L 360.942189 132.977735 
L 363.150724 136.960981 
L 365.359258 138.454452 
L 367.567792 135.903959 
L 369.776327 140.550549 
L 371.984861 140.830061 
L 374.193395 139.023083 
L 376.401929 134.581611 
L 378.610464 136.932136 
L 380.818998 129.902156 
L 383.027532 131.427211 
L 385.236067 134.438751 
L 387.444601 134.023158 
L 389.653135 135.050774 
L 391.86167 139.297713 
L 394.070204 145.854949 
L 396.278738 140.975788 
L 398.487273 124.56219 
L 398.487273 124.56219 
" clip-path="url(#pee0c995b98)" style="fill: none; stroke: #f08080; stroke-opacity: 0.8; stroke-width: 0.5; stroke-linecap: square"/>
   </g>
   <g id="line2d_22">
    <path d="M 73.832727 168.975892 
L 76.041262 168.747436 
L 78.249796 184.800211 
L 80.45833 172.73193 
L 82.666865 165.921336 
L 84.875399 167.190152 
L 87.083933 161.897053 
L 89.292468 168.947552 
L 91.501002 158.011447 
L 93.709536 163.970671 
L 95.918071 163.23536 
L 98.126605 161.138258 
L 100.335139 162.678909 
L 102.543673 160.988437 
L 104.752208 160.278546 
L 106.960742 161.706178 
L 109.169276 177.766895 
L 111.377811 173.885951 
L 113.586345 171.935207 
L 115.794879 173.114893 
L 118.003414 162.797616 
L 120.211948 202.082328 
L 122.420482 188.155782 
L 124.629017 163.770046 
L 126.837551 167.810787 
L 129.046085 164.634621 
L 131.25462 169.815275 
L 133.463154 164.963264 
L 135.671688 161.294795 
L 137.880223 162.427157 
L 140.088757 164.292856 
L 142.297291 165.447559 
L 144.505826 176.451118 
L 146.71436 163.300064 
L 148.922894 159.671109 
L 151.131429 159.376581 
L 153.339963 162.174588 
L 155.548497 175.067176 
L 157.757032 168.275335 
L 159.965566 165.672981 
L 162.1741 162.854645 
L 164.382635 171.58081 
L 166.591169 161.290727 
L 168.799703 163.41507 
L 171.008237 161.941127 
L 173.216772 164.144439 
L 175.425306 162.63419 
L 177.63384 163.580018 
L 179.842375 162.596955 
L 182.050909 171.938127 
L 184.259443 159.595713 
L 186.467978 207.084157 
L 188.676512 246.304922 
L 190.885046 215.594241 
L 193.093581 179.794954 
L 195.302115 176.455938 
L 197.510649 183.625556 
L 199.719184 164.701094 
L 201.927718 177.041688 
L 204.136252 171.385033 
L 206.344787 167.836057 
L 208.553321 167.568087 
L 210.761855 170.328404 
L 212.97039 162.823645 
L 215.178924 184.381422 
L 217.387458 174.980746 
L 219.595993 175.454539 
L 221.804527 164.416772 
L 224.013061 173.726311 
L 226.221596 169.388642 
L 228.43013 171.798936 
L 230.638664 171.269595 
L 232.847199 171.079564 
L 235.055733 171.860413 
L 237.264267 174.662664 
L 239.472801 159.242361 
L 241.681336 188.066786 
L 243.88987 174.919961 
L 246.098404 176.401965 
L 248.306939 168.843694 
L 250.515473 169.066863 
L 252.724007 177.640522 
L 254.932542 172.900642 
L 257.141076 167.520168 
L 259.34961 177.842845 
L 261.558145 170.813672 
L 263.766679 181.276642 
L 265.975213 167.428877 
L 268.183748 168.216123 
L 270.392282 169.302123 
L 272.600816 171.839803 
L 274.809351 173.210048 
L 277.017885 178.919136 
L 279.226419 168.434572 
L 281.434954 165.038062 
L 283.643488 180.609063 
L 288.060557 186.867651 
L 290.269091 172.282207 
L 292.477625 193.670927 
L 294.68616 184.11354 
L 296.894694 189.685689 
L 299.103228 192.957907 
L 301.311763 173.787163 
L 303.520297 175.19888 
L 305.728831 196.583416 
L 307.937365 197.184305 
L 310.1459 182.87026 
L 312.354434 179.032799 
L 314.562968 190.075901 
L 316.771503 172.175345 
L 318.980037 191.549811 
L 321.188571 184.24226 
L 323.397106 174.862157 
L 325.60564 182.964367 
L 327.814174 173.552527 
L 330.022709 193.377545 
L 332.231243 194.696335 
L 334.439777 187.252104 
L 336.648312 228.517383 
L 338.856846 196.317947 
L 341.06538 173.721196 
L 343.273915 179.902935 
L 345.482449 186.884864 
L 347.690983 185.5871 
L 349.899518 174.087916 
L 352.108052 167.248943 
L 354.316586 179.789795 
L 356.525121 172.567918 
L 358.733655 173.431037 
L 360.942189 183.897235 
L 363.150724 182.016621 
L 365.359258 173.003929 
L 367.567792 171.86828 
L 369.776327 172.808759 
L 371.984861 169.792246 
L 374.193395 160.027507 
L 376.401929 170.258826 
L 378.610464 171.567655 
L 380.818998 172.683131 
L 383.027532 167.216897 
L 385.236067 168.801189 
L 387.444601 173.138338 
L 389.653135 175.277612 
L 391.86167 178.595771 
L 394.070204 161.379195 
L 396.278738 170.866162 
L 398.487273 170.094362 
L 398.487273 170.094362 
" clip-path="url(#pee0c995b98)" style="fill: none; stroke: #f08080; stroke-opacity: 0.8; stroke-width: 0.5; stroke-linecap: square"/>
   </g>
   <g id="patch_3">
    <path d="M 57.6 307.584 
L 57.6 41.472 
" style="fill: none; stroke: #000000; stroke-width: 0.8; stroke-linejoin: miter; stroke-linecap: square"/>
   </g>
   <g id="patch_4">
    <path d="M 414.72 307.584 
L 414.72 41.472 
" style="fill: none; stroke: #000000; stroke-width: 0.8; stroke-linejoin: miter; stroke-linecap: square"/>
   </g>
   <g id="patch_5">
    <path d="M 57.6 307.584 
L 414.72 307.584 
" style="fill: none; stroke: #000000; stroke-width: 0.8; stroke-linejoin: miter; stroke-linecap: square"/>
   </g>
   <g id="patch_6">
    <path d="M 57.6 41.472 
L 414.72 41.472 
" style="fill: none; stroke: #000000; stroke-width: 0.8; stroke-linejoin: miter; stroke-linecap: square"/>
   </g>
   <g id="text_17">
    <!-- zhang_extended_20_snp500 -->
    <g transform="translate(150.800625 35.472) scale(0.12 -0.12)">
     <defs>
      <path id="DejaVuSans-7a" d="M 353 3500 
L 3084 3500 
L 3084 2975 
L 922 459 
L 3084 459 
L 3084 0 
L 275 0 
L 275 525 
L 2438 3041 
L 353 3041 
L 353 3500 
z
" transform="scale(0.015625)"/>
      <path id="DejaVuSans-68" d="M 3513 2113 
L 3513 0 
L 2938 0 
L 2938 2094 
Q 2938 2591 2744 2837 
Q 2550 3084 2163 3084 
Q 1697 3084 1428 2787 
Q 1159 2491 1159 1978 
L 1159 0 
L 581 0 
L 581 4863 
L 1159 4863 
L 1159 2956 
Q 1366 3272 1645 3428 
Q 1925 3584 2291 3584 
Q 2894 3584 3203 3211 
Q 3513 2838 3513 2113 
z
" transform="scale(0.015625)"/>
      <path id="DejaVuSans-61" d="M 2194 1759 
Q 1497 1759 1228 1600 
Q 959 1441 959 1056 
Q 959 750 1161 570 
Q 1363 391 1709 391 
Q 2188 391 2477 730 
Q 2766 1069 2766 1631 
L 2766 1759 
L 2194 1759 
z
M 3341 1997 
L 3341 0 
L 2766 0 
L 2766 531 
Q 2569 213 2275 61 
Q 1981 -91 1556 -91 
Q 1019 -91 701 211 
Q 384 513 384 1019 
Q 384 1609 779 1909 
Q 1175 2209 1959 2209 
L 2766 2209 
L 2766 2266 
Q 2766 2663 2505 2880 
Q 2244 3097 1772 3097 
Q 1472 3097 1187 3025 
Q 903 2953 641 2809 
L 641 3341 
Q 956 3463 1253 3523 
Q 1550 3584 1831 3584 
Q 2591 3584 2966 3190 
Q 3341 2797 3341 1997 
z
" transform="scale(0.015625)"/>
      <path id="DejaVuSans-6e" d="M 3513 2113 
L 3513 0 
L 2938 0 
L 2938 2094 
Q 2938 2591 2744 2837 
Q 2550 3084 2163 3084 
Q 1697 3084 1428 2787 
Q 1159 2491 1159 1978 
L 1159 0 
L 581 0 
L 581 3500 
L 1159 3500 
L 1159 2956 
Q 1366 3272 1645 3428 
Q 1925 3584 2291 3584 
Q 2894 3584 3203 3211 
Q 3513 2838 3513 2113 
z
" transform="scale(0.015625)"/>
      <path id="DejaVuSans-67" d="M 2906 1791 
Q 2906 2416 2648 2759 
Q 2391 3103 1925 3103 
Q 1463 3103 1205 2759 
Q 947 2416 947 1791 
Q 947 1169 1205 825 
Q 1463 481 1925 481 
Q 2391 481 2648 825 
Q 2906 1169 2906 1791 
z
M 3481 434 
Q 3481 -459 3084 -895 
Q 2688 -1331 1869 -1331 
Q 1566 -1331 1297 -1286 
Q 1028 -1241 775 -1147 
L 775 -588 
Q 1028 -725 1275 -790 
Q 1522 -856 1778 -856 
Q 2344 -856 2625 -561 
Q 2906 -266 2906 331 
L 2906 616 
Q 2728 306 2450 153 
Q 2172 0 1784 0 
Q 1141 0 747 490 
Q 353 981 353 1791 
Q 353 2603 747 3093 
Q 1141 3584 1784 3584 
Q 2172 3584 2450 3431 
Q 2728 3278 2906 2969 
L 2906 3500 
L 3481 3500 
L 3481 434 
z
" transform="scale(0.015625)"/>
      <path id="DejaVuSans-5f" d="M 3263 -1063 
L 3263 -1509 
L -63 -1509 
L -63 -1063 
L 3263 -1063 
z
" transform="scale(0.015625)"/>
      <path id="DejaVuSans-65" d="M 3597 1894 
L 3597 1613 
L 953 1613 
Q 991 1019 1311 708 
Q 1631 397 2203 397 
Q 2534 397 2845 478 
Q 3156 559 3463 722 
L 3463 178 
Q 3153 47 2828 -22 
Q 2503 -91 2169 -91 
Q 1331 -91 842 396 
Q 353 884 353 1716 
Q 353 2575 817 3079 
Q 1281 3584 2069 3584 
Q 2775 3584 3186 3129 
Q 3597 2675 3597 1894 
z
M 3022 2063 
Q 3016 2534 2758 2815 
Q 2500 3097 2075 3097 
Q 1594 3097 1305 2825 
Q 1016 2553 972 2059 
L 3022 2063 
z
" transform="scale(0.015625)"/>
      <path id="DejaVuSans-78" d="M 3513 3500 
L 2247 1797 
L 3578 0 
L 2900 0 
L 1881 1375 
L 863 0 
L 184 0 
L 1544 1831 
L 300 3500 
L 978 3500 
L 1906 2253 
L 2834 3500 
L 3513 3500 
z
" transform="scale(0.015625)"/>
      <path id="DejaVuSans-74" d="M 1172 4494 
L 1172 3500 
L 2356 3500 
L 2356 3053 
L 1172 3053 
L 1172 1153 
Q 1172 725 1289 603 
Q 1406 481 1766 481 
L 2356 481 
L 2356 0 
L 1766 0 
Q 1100 0 847 248 
Q 594 497 594 1153 
L 594 3053 
L 172 3053 
L 172 3500 
L 594 3500 
L 594 4494 
L 1172 4494 
z
" transform="scale(0.015625)"/>
      <path id="DejaVuSans-64" d="M 2906 2969 
L 2906 4863 
L 3481 4863 
L 3481 0 
L 2906 0 
L 2906 525 
Q 2725 213 2448 61 
Q 2172 -91 1784 -91 
Q 1150 -91 751 415 
Q 353 922 353 1747 
Q 353 2572 751 3078 
Q 1150 3584 1784 3584 
Q 2172 3584 2448 3432 
Q 2725 3281 2906 2969 
z
M 947 1747 
Q 947 1113 1208 752 
Q 1469 391 1925 391 
Q 2381 391 2643 752 
Q 2906 1113 2906 1747 
Q 2906 2381 2643 2742 
Q 2381 3103 1925 3103 
Q 1469 3103 1208 2742 
Q 947 2381 947 1747 
z
" transform="scale(0.015625)"/>
      <path id="DejaVuSans-73" d="M 2834 3397 
L 2834 2853 
Q 2591 2978 2328 3040 
Q 2066 3103 1784 3103 
Q 1356 3103 1142 2972 
Q 928 2841 928 2578 
Q 928 2378 1081 2264 
Q 1234 2150 1697 2047 
L 1894 2003 
Q 2506 1872 2764 1633 
Q 3022 1394 3022 966 
Q 3022 478 2636 193 
Q 2250 -91 1575 -91 
Q 1294 -91 989 -36 
Q 684 19 347 128 
L 347 722 
Q 666 556 975 473 
Q 1284 391 1588 391 
Q 1994 391 2212 530 
Q 2431 669 2431 922 
Q 2431 1156 2273 1281 
Q 2116 1406 1581 1522 
L 1381 1569 
Q 847 1681 609 1914 
Q 372 2147 372 2553 
Q 372 3047 722 3315 
Q 1072 3584 1716 3584 
Q 2034 3584 2315 3537 
Q 2597 3491 2834 3397 
z
" transform="scale(0.015625)"/>
      <path id="DejaVuSans-70" d="M 1159 525 
L 1159 -1331 
L 581 -1331 
L 581 3500 
L 1159 3500 
L 1159 2969 
Q 1341 3281 1617 3432 
Q 1894 3584 2278 3584 
Q 2916 3584 3314 3078 
Q 3713 2572 3713 1747 
Q 3713 922 3314 415 
Q 2916 -91 2278 -91 
Q 1894 -91 1617 61 
Q 1341 213 1159 525 
z
M 3116 1747 
Q 3116 2381 2855 2742 
Q 2594 3103 2138 3103 
Q 1681 3103 1420 2742 
Q 1159 2381 1159 1747 
Q 1159 1113 1420 752 
Q 1681 391 2138 391 
Q 2594 391 2855 752 
Q 3116 1113 3116 1747 
z
" transform="scale(0.015625)"/>
      <path id="DejaVuSans-35" d="M 691 4666 
L 3169 4666 
L 3169 4134 
L 1269 4134 
L 1269 2991 
Q 1406 3038 1543 3061 
Q 1681 3084 1819 3084 
Q 2600 3084 3056 2656 
Q 3513 2228 3513 1497 
Q 3513 744 3044 326 
Q 2575 -91 1722 -91 
Q 1428 -91 1123 -41 
Q 819 9 494 109 
L 494 744 
Q 775 591 1075 516 
Q 1375 441 1709 441 
Q 2250 441 2565 725 
Q 2881 1009 2881 1497 
Q 2881 1984 2565 2268 
Q 2250 2553 1709 2553 
Q 1456 2553 1204 2497 
Q 953 2441 691 2322 
L 691 4666 
z
" transform="scale(0.015625)"/>
     </defs>
     <use xlink:href="#DejaVuSans-7a"/>
     <use xlink:href="#DejaVuSans-68" x="52.490234"/>
     <use xlink:href="#DejaVuSans-61" x="115.869141"/>
     <use xlink:href="#DejaVuSans-6e" x="177.148438"/>
     <use xlink:href="#DejaVuSans-67" x="240.527344"/>
     <use xlink:href="#DejaVuSans-5f" x="304.003906"/>
     <use xlink:href="#DejaVuSans-65" x="354.003906"/>
     <use xlink:href="#DejaVuSans-78" x="413.777344"/>
     <use xlink:href="#DejaVuSans-74" x="472.957031"/>
     <use xlink:href="#DejaVuSans-65" x="512.166016"/>
     <use xlink:href="#DejaVuSans-6e" x="573.689453"/>
     <use xlink:href="#DejaVuSans-64" x="637.068359"/>
     <use xlink:href="#DejaVuSans-65" x="700.544922"/>
     <use xlink:href="#DejaVuSans-64" x="762.068359"/>
     <use xlink:href="#DejaVuSans-5f" x="825.544922"/>
     <use xlink:href="#DejaVuSans-32" x="875.544922"/>
     <use xlink:href="#DejaVuSans-30" x="939.167969"/>
     <use xlink:href="#DejaVuSans-5f" x="1002.791016"/>
     <use xlink:href="#DejaVuSans-73" x="1052.791016"/>
     <use xlink:href="#DejaVuSans-6e" x="1104.890625"/>
     <use xlink:href="#DejaVuSans-70" x="1168.269531"/>
     <use xlink:href="#DejaVuSans-35" x="1231.746094"/>
     <use xlink:href="#DejaVuSans-30" x="1295.369141"/>
     <use xlink:href="#DejaVuSans-30" x="1358.992188"/>
    </g>
   </g>
   <g id="legend_1">
    <g id="patch_7">
     <path d="M 247.318437 302.584 
L 407.72 302.584 
Q 409.72 302.584 409.72 300.584 
L 409.72 213.51525 
Q 409.72 211.51525 407.72 211.51525 
L 247.318437 211.51525 
Q 245.318437 211.51525 245.318437 213.51525 
L 245.318437 300.584 
Q 245.318437 302.584 247.318437 302.584 
z
" style="fill: #ffffff; opacity: 0.8; stroke: #cccccc; stroke-linejoin: miter"/>
    </g>
    <g id="line2d_23">
     <path d="M 249.318437 219.613687 
L 259.318437 219.613687 
L 269.318437 219.613687 
" style="fill: none; stroke: #008000; stroke-opacity: 0.8; stroke-width: 0.5; stroke-linecap: square"/>
    </g>
    <g id="text_18">
     <!-- Positive predictions -->
     <g transform="translate(277.318437 223.113687) scale(0.1 -0.1)">
      <defs>
       <path id="DejaVuSans-50" d="M 1259 4147 
L 1259 2394 
L 2053 2394 
Q 2494 2394 2734 2622 
Q 2975 2850 2975 3272 
Q 2975 3691 2734 3919 
Q 2494 4147 2053 4147 
L 1259 4147 
z
M 628 4666 
L 2053 4666 
Q 2838 4666 3239 4311 
Q 3641 3956 3641 3272 
Q 3641 2581 3239 2228 
Q 2838 1875 2053 1875 
L 1259 1875 
L 1259 0 
L 628 0 
L 628 4666 
z
" transform="scale(0.015625)"/>
       <path id="DejaVuSans-6f" d="M 1959 3097 
Q 1497 3097 1228 2736 
Q 959 2375 959 1747 
Q 959 1119 1226 758 
Q 1494 397 1959 397 
Q 2419 397 2687 759 
Q 2956 1122 2956 1747 
Q 2956 2369 2687 2733 
Q 2419 3097 1959 3097 
z
M 1959 3584 
Q 2709 3584 3137 3096 
Q 3566 2609 3566 1747 
Q 3566 888 3137 398 
Q 2709 -91 1959 -91 
Q 1206 -91 779 398 
Q 353 888 353 1747 
Q 353 2609 779 3096 
Q 1206 3584 1959 3584 
z
" transform="scale(0.015625)"/>
       <path id="DejaVuSans-69" d="M 603 3500 
L 1178 3500 
L 1178 0 
L 603 0 
L 603 3500 
z
M 603 4863 
L 1178 4863 
L 1178 4134 
L 603 4134 
L 603 4863 
z
" transform="scale(0.015625)"/>
       <path id="DejaVuSans-76" d="M 191 3500 
L 800 3500 
L 1894 563 
L 2988 3500 
L 3597 3500 
L 2284 0 
L 1503 0 
L 191 3500 
z
" transform="scale(0.015625)"/>
       <path id="DejaVuSans-20" transform="scale(0.015625)"/>
       <path id="DejaVuSans-72" d="M 2631 2963 
Q 2534 3019 2420 3045 
Q 2306 3072 2169 3072 
Q 1681 3072 1420 2755 
Q 1159 2438 1159 1844 
L 1159 0 
L 581 0 
L 581 3500 
L 1159 3500 
L 1159 2956 
Q 1341 3275 1631 3429 
Q 1922 3584 2338 3584 
Q 2397 3584 2469 3576 
Q 2541 3569 2628 3553 
L 2631 2963 
z
" transform="scale(0.015625)"/>
       <path id="DejaVuSans-63" d="M 3122 3366 
L 3122 2828 
Q 2878 2963 2633 3030 
Q 2388 3097 2138 3097 
Q 1578 3097 1268 2742 
Q 959 2388 959 1747 
Q 959 1106 1268 751 
Q 1578 397 2138 397 
Q 2388 397 2633 464 
Q 2878 531 3122 666 
L 3122 134 
Q 2881 22 2623 -34 
Q 2366 -91 2075 -91 
Q 1284 -91 818 406 
Q 353 903 353 1747 
Q 353 2603 823 3093 
Q 1294 3584 2113 3584 
Q 2378 3584 2631 3529 
Q 2884 3475 3122 3366 
z
" transform="scale(0.015625)"/>
      </defs>
      <use xlink:href="#DejaVuSans-50"/>
      <use xlink:href="#DejaVuSans-6f" x="56.677734"/>
      <use xlink:href="#DejaVuSans-73" x="117.859375"/>
      <use xlink:href="#DejaVuSans-69" x="169.958984"/>
      <use xlink:href="#DejaVuSans-74" x="197.742188"/>
      <use xlink:href="#DejaVuSans-69" x="236.951172"/>
      <use xlink:href="#DejaVuSans-76" x="264.734375"/>
      <use xlink:href="#DejaVuSans-65" x="323.914062"/>
      <use xlink:href="#DejaVuSans-20" x="385.4375"/>
      <use xlink:href="#DejaVuSans-70" x="417.224609"/>
      <use xlink:href="#DejaVuSans-72" x="480.701172"/>
      <use xlink:href="#DejaVuSans-65" x="519.564453"/>
      <use xlink:href="#DejaVuSans-64" x="581.087891"/>
      <use xlink:href="#DejaVuSans-69" x="644.564453"/>
      <use xlink:href="#DejaVuSans-63" x="672.347656"/>
      <use xlink:href="#DejaVuSans-74" x="727.328125"/>
      <use xlink:href="#DejaVuSans-69" x="766.537109"/>
      <use xlink:href="#DejaVuSans-6f" x="794.320312"/>
      <use xlink:href="#DejaVuSans-6e" x="855.501953"/>
      <use xlink:href="#DejaVuSans-73" x="918.880859"/>
     </g>
    </g>
    <g id="line2d_24">
     <path d="M 249.318437 234.291812 
L 259.318437 234.291812 
L 269.318437 234.291812 
" style="fill: none; stroke: #32cd32; stroke-opacity: 0.8; stroke-width: 0.5; stroke-linecap: square"/>
    </g>
    <g id="text_19">
     <!-- Positive predictions max -->
     <g transform="translate(277.318437 237.791812) scale(0.1 -0.1)">
      <defs>
       <path id="DejaVuSans-6d" d="M 3328 2828 
Q 3544 3216 3844 3400 
Q 4144 3584 4550 3584 
Q 5097 3584 5394 3201 
Q 5691 2819 5691 2113 
L 5691 0 
L 5113 0 
L 5113 2094 
Q 5113 2597 4934 2840 
Q 4756 3084 4391 3084 
Q 3944 3084 3684 2787 
Q 3425 2491 3425 1978 
L 3425 0 
L 2847 0 
L 2847 2094 
Q 2847 2600 2669 2842 
Q 2491 3084 2119 3084 
Q 1678 3084 1418 2786 
Q 1159 2488 1159 1978 
L 1159 0 
L 581 0 
L 581 3500 
L 1159 3500 
L 1159 2956 
Q 1356 3278 1631 3431 
Q 1906 3584 2284 3584 
Q 2666 3584 2933 3390 
Q 3200 3197 3328 2828 
z
" transform="scale(0.015625)"/>
      </defs>
      <use xlink:href="#DejaVuSans-50"/>
      <use xlink:href="#DejaVuSans-6f" x="56.677734"/>
      <use xlink:href="#DejaVuSans-73" x="117.859375"/>
      <use xlink:href="#DejaVuSans-69" x="169.958984"/>
      <use xlink:href="#DejaVuSans-74" x="197.742188"/>
      <use xlink:href="#DejaVuSans-69" x="236.951172"/>
      <use xlink:href="#DejaVuSans-76" x="264.734375"/>
      <use xlink:href="#DejaVuSans-65" x="323.914062"/>
      <use xlink:href="#DejaVuSans-20" x="385.4375"/>
      <use xlink:href="#DejaVuSans-70" x="417.224609"/>
      <use xlink:href="#DejaVuSans-72" x="480.701172"/>
      <use xlink:href="#DejaVuSans-65" x="519.564453"/>
      <use xlink:href="#DejaVuSans-64" x="581.087891"/>
      <use xlink:href="#DejaVuSans-69" x="644.564453"/>
      <use xlink:href="#DejaVuSans-63" x="672.347656"/>
      <use xlink:href="#DejaVuSans-74" x="727.328125"/>
      <use xlink:href="#DejaVuSans-69" x="766.537109"/>
      <use xlink:href="#DejaVuSans-6f" x="794.320312"/>
      <use xlink:href="#DejaVuSans-6e" x="855.501953"/>
      <use xlink:href="#DejaVuSans-73" x="918.880859"/>
      <use xlink:href="#DejaVuSans-20" x="970.980469"/>
      <use xlink:href="#DejaVuSans-6d" x="1002.767578"/>
      <use xlink:href="#DejaVuSans-61" x="1100.179688"/>
      <use xlink:href="#DejaVuSans-78" x="1161.458984"/>
     </g>
    </g>
    <g id="line2d_25">
     <path d="M 249.318437 248.969937 
L 259.318437 248.969937 
L 269.318437 248.969937 
" style="fill: none; stroke: #32cd32; stroke-opacity: 0.8; stroke-width: 0.5; stroke-linecap: square"/>
    </g>
    <g id="text_20">
     <!-- Positive predictions min -->
     <g transform="translate(277.318437 252.469937) scale(0.1 -0.1)">
      <use xlink:href="#DejaVuSans-50"/>
      <use xlink:href="#DejaVuSans-6f" x="56.677734"/>
      <use xlink:href="#DejaVuSans-73" x="117.859375"/>
      <use xlink:href="#DejaVuSans-69" x="169.958984"/>
      <use xlink:href="#DejaVuSans-74" x="197.742188"/>
      <use xlink:href="#DejaVuSans-69" x="236.951172"/>
      <use xlink:href="#DejaVuSans-76" x="264.734375"/>
      <use xlink:href="#DejaVuSans-65" x="323.914062"/>
      <use xlink:href="#DejaVuSans-20" x="385.4375"/>
      <use xlink:href="#DejaVuSans-70" x="417.224609"/>
      <use xlink:href="#DejaVuSans-72" x="480.701172"/>
      <use xlink:href="#DejaVuSans-65" x="519.564453"/>
      <use xlink:href="#DejaVuSans-64" x="581.087891"/>
      <use xlink:href="#DejaVuSans-69" x="644.564453"/>
      <use xlink:href="#DejaVuSans-63" x="672.347656"/>
      <use xlink:href="#DejaVuSans-74" x="727.328125"/>
      <use xlink:href="#DejaVuSans-69" x="766.537109"/>
      <use xlink:href="#DejaVuSans-6f" x="794.320312"/>
      <use xlink:href="#DejaVuSans-6e" x="855.501953"/>
      <use xlink:href="#DejaVuSans-73" x="918.880859"/>
      <use xlink:href="#DejaVuSans-20" x="970.980469"/>
      <use xlink:href="#DejaVuSans-6d" x="1002.767578"/>
      <use xlink:href="#DejaVuSans-69" x="1100.179688"/>
      <use xlink:href="#DejaVuSans-6e" x="1127.962891"/>
     </g>
    </g>
    <g id="line2d_26">
     <path d="M 249.318437 263.648062 
L 259.318437 263.648062 
L 269.318437 263.648062 
" style="fill: none; stroke: #ff0000; stroke-opacity: 0.8; stroke-width: 0.5; stroke-linecap: square"/>
    </g>
    <g id="text_21">
     <!-- Negative predictions -->
     <g transform="translate(277.318437 267.148062) scale(0.1 -0.1)">
      <defs>
       <path id="DejaVuSans-4e" d="M 628 4666 
L 1478 4666 
L 3547 763 
L 3547 4666 
L 4159 4666 
L 4159 0 
L 3309 0 
L 1241 3903 
L 1241 0 
L 628 0 
L 628 4666 
z
" transform="scale(0.015625)"/>
      </defs>
      <use xlink:href="#DejaVuSans-4e"/>
      <use xlink:href="#DejaVuSans-65" x="74.804688"/>
      <use xlink:href="#DejaVuSans-67" x="136.328125"/>
      <use xlink:href="#DejaVuSans-61" x="199.804688"/>
      <use xlink:href="#DejaVuSans-74" x="261.083984"/>
      <use xlink:href="#DejaVuSans-69" x="300.292969"/>
      <use xlink:href="#DejaVuSans-76" x="328.076172"/>
      <use xlink:href="#DejaVuSans-65" x="387.255859"/>
      <use xlink:href="#DejaVuSans-20" x="448.779297"/>
      <use xlink:href="#DejaVuSans-70" x="480.566406"/>
      <use xlink:href="#DejaVuSans-72" x="544.042969"/>
      <use xlink:href="#DejaVuSans-65" x="582.90625"/>
      <use xlink:href="#DejaVuSans-64" x="644.429688"/>
      <use xlink:href="#DejaVuSans-69" x="707.90625"/>
      <use xlink:href="#DejaVuSans-63" x="735.689453"/>
      <use xlink:href="#DejaVuSans-74" x="790.669922"/>
      <use xlink:href="#DejaVuSans-69" x="829.878906"/>
      <use xlink:href="#DejaVuSans-6f" x="857.662109"/>
      <use xlink:href="#DejaVuSans-6e" x="918.84375"/>
      <use xlink:href="#DejaVuSans-73" x="982.222656"/>
     </g>
    </g>
    <g id="line2d_27">
     <path d="M 249.318437 278.326188 
L 259.318437 278.326188 
L 269.318437 278.326188 
" style="fill: none; stroke: #f08080; stroke-opacity: 0.8; stroke-width: 0.5; stroke-linecap: square"/>
    </g>
    <g id="text_22">
     <!-- Negative predictions max -->
     <g transform="translate(277.318437 281.826188) scale(0.1 -0.1)">
      <use xlink:href="#DejaVuSans-4e"/>
      <use xlink:href="#DejaVuSans-65" x="74.804688"/>
      <use xlink:href="#DejaVuSans-67" x="136.328125"/>
      <use xlink:href="#DejaVuSans-61" x="199.804688"/>
      <use xlink:href="#DejaVuSans-74" x="261.083984"/>
      <use xlink:href="#DejaVuSans-69" x="300.292969"/>
      <use xlink:href="#DejaVuSans-76" x="328.076172"/>
      <use xlink:href="#DejaVuSans-65" x="387.255859"/>
      <use xlink:href="#DejaVuSans-20" x="448.779297"/>
      <use xlink:href="#DejaVuSans-70" x="480.566406"/>
      <use xlink:href="#DejaVuSans-72" x="544.042969"/>
      <use xlink:href="#DejaVuSans-65" x="582.90625"/>
      <use xlink:href="#DejaVuSans-64" x="644.429688"/>
      <use xlink:href="#DejaVuSans-69" x="707.90625"/>
      <use xlink:href="#DejaVuSans-63" x="735.689453"/>
      <use xlink:href="#DejaVuSans-74" x="790.669922"/>
      <use xlink:href="#DejaVuSans-69" x="829.878906"/>
      <use xlink:href="#DejaVuSans-6f" x="857.662109"/>
      <use xlink:href="#DejaVuSans-6e" x="918.84375"/>
      <use xlink:href="#DejaVuSans-73" x="982.222656"/>
      <use xlink:href="#DejaVuSans-20" x="1034.322266"/>
      <use xlink:href="#DejaVuSans-6d" x="1066.109375"/>
      <use xlink:href="#DejaVuSans-61" x="1163.521484"/>
      <use xlink:href="#DejaVuSans-78" x="1224.800781"/>
     </g>
    </g>
    <g id="line2d_28">
     <path d="M 249.318437 293.004312 
L 259.318437 293.004312 
L 269.318437 293.004312 
" style="fill: none; stroke: #f08080; stroke-opacity: 0.8; stroke-width: 0.5; stroke-linecap: square"/>
    </g>
    <g id="text_23">
     <!-- Negative predictions min -->
     <g transform="translate(277.318437 296.504312) scale(0.1 -0.1)">
      <use xlink:href="#DejaVuSans-4e"/>
      <use xlink:href="#DejaVuSans-65" x="74.804688"/>
      <use xlink:href="#DejaVuSans-67" x="136.328125"/>
      <use xlink:href="#DejaVuSans-61" x="199.804688"/>
      <use xlink:href="#DejaVuSans-74" x="261.083984"/>
      <use xlink:href="#DejaVuSans-69" x="300.292969"/>
      <use xlink:href="#DejaVuSans-76" x="328.076172"/>
      <use xlink:href="#DejaVuSans-65" x="387.255859"/>
      <use xlink:href="#DejaVuSans-20" x="448.779297"/>
      <use xlink:href="#DejaVuSans-70" x="480.566406"/>
      <use xlink:href="#DejaVuSans-72" x="544.042969"/>
      <use xlink:href="#DejaVuSans-65" x="582.90625"/>
      <use xlink:href="#DejaVuSans-64" x="644.429688"/>
      <use xlink:href="#DejaVuSans-69" x="707.90625"/>
      <use xlink:href="#DejaVuSans-63" x="735.689453"/>
      <use xlink:href="#DejaVuSans-74" x="790.669922"/>
      <use xlink:href="#DejaVuSans-69" x="829.878906"/>
      <use xlink:href="#DejaVuSans-6f" x="857.662109"/>
      <use xlink:href="#DejaVuSans-6e" x="918.84375"/>
      <use xlink:href="#DejaVuSans-73" x="982.222656"/>
      <use xlink:href="#DejaVuSans-20" x="1034.322266"/>
      <use xlink:href="#DejaVuSans-6d" x="1066.109375"/>
      <use xlink:href="#DejaVuSans-69" x="1163.521484"/>
      <use xlink:href="#DejaVuSans-6e" x="1191.304688"/>
     </g>
    </g>
   </g>
  </g>
 </g>
 <defs>
  <clipPath id="pee0c995b98">
   <rect x="57.6" y="41.472" width="357.12" height="266.112"/>
  </clipPath>
 </defs>
</svg>
