<?xml version="1.0" encoding="utf-8" standalone="no"?>
<!DOCTYPE svg PUBLIC "-//W3C//DTD SVG 1.1//EN"
  "http://www.w3.org/Graphics/SVG/1.1/DTD/svg11.dtd">
<svg xmlns:xlink="http://www.w3.org/1999/xlink" width="460.8pt" height="345.6pt" viewBox="0 0 460.8 345.6" xmlns="http://www.w3.org/2000/svg" version="1.1">
 <metadata>
  <rdf:RDF xmlns:dc="http://purl.org/dc/elements/1.1/" xmlns:cc="http://creativecommons.org/ns#" xmlns:rdf="http://www.w3.org/1999/02/22-rdf-syntax-ns#">
   <cc:Work>
    <dc:type rdf:resource="http://purl.org/dc/dcmitype/StillImage"/>
    <dc:date>2024-07-19T10:35:45.197743</dc:date>
    <dc:format>image/svg+xml</dc:format>
    <dc:creator>
     <cc:Agent>
      <dc:title>Matplotlib v3.9.0, https://matplotlib.org/</dc:title>
     </cc:Agent>
    </dc:creator>
   </cc:Work>
  </rdf:RDF>
 </metadata>
 <defs>
  <style type="text/css">*{stroke-linejoin: round; stroke-linecap: butt}</style>
 </defs>
 <g id="figure_1">
  <g id="patch_1">
   <path d="M 0 345.6 
L 460.8 345.6 
L 460.8 0 
L 0 0 
z
" style="fill: #ffffff"/>
  </g>
  <g id="axes_1">
   <g id="patch_2">
    <path d="M 57.6 307.584 
L 414.72 307.584 
L 414.72 41.472 
L 57.6 41.472 
z
" style="fill: #ffffff"/>
   </g>
   <g id="matplotlib.axis_1">
    <g id="xtick_1">
     <g id="line2d_1">
      <defs>
       <path id="md288d5daa9" d="M 0 0 
L 0 3.5 
" style="stroke: #000000; stroke-width: 0.8"/>
      </defs>
      <g>
       <use xlink:href="#md288d5daa9" x="73.832727" y="307.584" style="stroke: #000000; stroke-width: 0.8"/>
      </g>
     </g>
     <g id="text_1">
      <!-- 0 -->
      <g transform="translate(70.651477 322.182437) scale(0.1 -0.1)">
       <defs>
        <path id="DejaVuSans-30" d="M 2034 4250 
Q 1547 4250 1301 3770 
Q 1056 3291 1056 2328 
Q 1056 1369 1301 889 
Q 1547 409 2034 409 
Q 2525 409 2770 889 
Q 3016 1369 3016 2328 
Q 3016 3291 2770 3770 
Q 2525 4250 2034 4250 
z
M 2034 4750 
Q 2819 4750 3233 4129 
Q 3647 3509 3647 2328 
Q 3647 1150 3233 529 
Q 2819 -91 2034 -91 
Q 1250 -91 836 529 
Q 422 1150 422 2328 
Q 422 3509 836 4129 
Q 1250 4750 2034 4750 
z
" transform="scale(0.015625)"/>
       </defs>
       <use xlink:href="#DejaVuSans-30"/>
      </g>
     </g>
    </g>
    <g id="xtick_2">
     <g id="line2d_2">
      <g>
       <use xlink:href="#md288d5daa9" x="116.27123" y="307.584" style="stroke: #000000; stroke-width: 0.8"/>
      </g>
     </g>
     <g id="text_2">
      <!-- 20 -->
      <g transform="translate(109.90873 322.182437) scale(0.1 -0.1)">
       <defs>
        <path id="DejaVuSans-32" d="M 1228 531 
L 3431 531 
L 3431 0 
L 469 0 
L 469 531 
Q 828 903 1448 1529 
Q 2069 2156 2228 2338 
Q 2531 2678 2651 2914 
Q 2772 3150 2772 3378 
Q 2772 3750 2511 3984 
Q 2250 4219 1831 4219 
Q 1534 4219 1204 4116 
Q 875 4013 500 3803 
L 500 4441 
Q 881 4594 1212 4672 
Q 1544 4750 1819 4750 
Q 2544 4750 2975 4387 
Q 3406 4025 3406 3419 
Q 3406 3131 3298 2873 
Q 3191 2616 2906 2266 
Q 2828 2175 2409 1742 
Q 1991 1309 1228 531 
z
" transform="scale(0.015625)"/>
       </defs>
       <use xlink:href="#DejaVuSans-32"/>
       <use xlink:href="#DejaVuSans-30" x="63.623047"/>
      </g>
     </g>
    </g>
    <g id="xtick_3">
     <g id="line2d_3">
      <g>
       <use xlink:href="#md288d5daa9" x="158.709733" y="307.584" style="stroke: #000000; stroke-width: 0.8"/>
      </g>
     </g>
     <g id="text_3">
      <!-- 40 -->
      <g transform="translate(152.347233 322.182437) scale(0.1 -0.1)">
       <defs>
        <path id="DejaVuSans-34" d="M 2419 4116 
L 825 1625 
L 2419 1625 
L 2419 4116 
z
M 2253 4666 
L 3047 4666 
L 3047 1625 
L 3713 1625 
L 3713 1100 
L 3047 1100 
L 3047 0 
L 2419 0 
L 2419 1100 
L 313 1100 
L 313 1709 
L 2253 4666 
z
" transform="scale(0.015625)"/>
       </defs>
       <use xlink:href="#DejaVuSans-34"/>
       <use xlink:href="#DejaVuSans-30" x="63.623047"/>
      </g>
     </g>
    </g>
    <g id="xtick_4">
     <g id="line2d_4">
      <g>
       <use xlink:href="#md288d5daa9" x="201.148235" y="307.584" style="stroke: #000000; stroke-width: 0.8"/>
      </g>
     </g>
     <g id="text_4">
      <!-- 60 -->
      <g transform="translate(194.785735 322.182437) scale(0.1 -0.1)">
       <defs>
        <path id="DejaVuSans-36" d="M 2113 2584 
Q 1688 2584 1439 2293 
Q 1191 2003 1191 1497 
Q 1191 994 1439 701 
Q 1688 409 2113 409 
Q 2538 409 2786 701 
Q 3034 994 3034 1497 
Q 3034 2003 2786 2293 
Q 2538 2584 2113 2584 
z
M 3366 4563 
L 3366 3988 
Q 3128 4100 2886 4159 
Q 2644 4219 2406 4219 
Q 1781 4219 1451 3797 
Q 1122 3375 1075 2522 
Q 1259 2794 1537 2939 
Q 1816 3084 2150 3084 
Q 2853 3084 3261 2657 
Q 3669 2231 3669 1497 
Q 3669 778 3244 343 
Q 2819 -91 2113 -91 
Q 1303 -91 875 529 
Q 447 1150 447 2328 
Q 447 3434 972 4092 
Q 1497 4750 2381 4750 
Q 2619 4750 2861 4703 
Q 3103 4656 3366 4563 
z
" transform="scale(0.015625)"/>
       </defs>
       <use xlink:href="#DejaVuSans-36"/>
       <use xlink:href="#DejaVuSans-30" x="63.623047"/>
      </g>
     </g>
    </g>
    <g id="xtick_5">
     <g id="line2d_5">
      <g>
       <use xlink:href="#md288d5daa9" x="243.586738" y="307.584" style="stroke: #000000; stroke-width: 0.8"/>
      </g>
     </g>
     <g id="text_5">
      <!-- 80 -->
      <g transform="translate(237.224238 322.182437) scale(0.1 -0.1)">
       <defs>
        <path id="DejaVuSans-38" d="M 2034 2216 
Q 1584 2216 1326 1975 
Q 1069 1734 1069 1313 
Q 1069 891 1326 650 
Q 1584 409 2034 409 
Q 2484 409 2743 651 
Q 3003 894 3003 1313 
Q 3003 1734 2745 1975 
Q 2488 2216 2034 2216 
z
M 1403 2484 
Q 997 2584 770 2862 
Q 544 3141 544 3541 
Q 544 4100 942 4425 
Q 1341 4750 2034 4750 
Q 2731 4750 3128 4425 
Q 3525 4100 3525 3541 
Q 3525 3141 3298 2862 
Q 3072 2584 2669 2484 
Q 3125 2378 3379 2068 
Q 3634 1759 3634 1313 
Q 3634 634 3220 271 
Q 2806 -91 2034 -91 
Q 1263 -91 848 271 
Q 434 634 434 1313 
Q 434 1759 690 2068 
Q 947 2378 1403 2484 
z
M 1172 3481 
Q 1172 3119 1398 2916 
Q 1625 2713 2034 2713 
Q 2441 2713 2670 2916 
Q 2900 3119 2900 3481 
Q 2900 3844 2670 4047 
Q 2441 4250 2034 4250 
Q 1625 4250 1398 4047 
Q 1172 3844 1172 3481 
z
" transform="scale(0.015625)"/>
       </defs>
       <use xlink:href="#DejaVuSans-38"/>
       <use xlink:href="#DejaVuSans-30" x="63.623047"/>
      </g>
     </g>
    </g>
    <g id="xtick_6">
     <g id="line2d_6">
      <g>
       <use xlink:href="#md288d5daa9" x="286.025241" y="307.584" style="stroke: #000000; stroke-width: 0.8"/>
      </g>
     </g>
     <g id="text_6">
      <!-- 100 -->
      <g transform="translate(276.481491 322.182437) scale(0.1 -0.1)">
       <defs>
        <path id="DejaVuSans-31" d="M 794 531 
L 1825 531 
L 1825 4091 
L 703 3866 
L 703 4441 
L 1819 4666 
L 2450 4666 
L 2450 531 
L 3481 531 
L 3481 0 
L 794 0 
L 794 531 
z
" transform="scale(0.015625)"/>
       </defs>
       <use xlink:href="#DejaVuSans-31"/>
       <use xlink:href="#DejaVuSans-30" x="63.623047"/>
       <use xlink:href="#DejaVuSans-30" x="127.246094"/>
      </g>
     </g>
    </g>
    <g id="xtick_7">
     <g id="line2d_7">
      <g>
       <use xlink:href="#md288d5daa9" x="328.463743" y="307.584" style="stroke: #000000; stroke-width: 0.8"/>
      </g>
     </g>
     <g id="text_7">
      <!-- 120 -->
      <g transform="translate(318.919993 322.182437) scale(0.1 -0.1)">
       <use xlink:href="#DejaVuSans-31"/>
       <use xlink:href="#DejaVuSans-32" x="63.623047"/>
       <use xlink:href="#DejaVuSans-30" x="127.246094"/>
      </g>
     </g>
    </g>
    <g id="xtick_8">
     <g id="line2d_8">
      <g>
       <use xlink:href="#md288d5daa9" x="370.902246" y="307.584" style="stroke: #000000; stroke-width: 0.8"/>
      </g>
     </g>
     <g id="text_8">
      <!-- 140 -->
      <g transform="translate(361.358496 322.182437) scale(0.1 -0.1)">
       <use xlink:href="#DejaVuSans-31"/>
       <use xlink:href="#DejaVuSans-34" x="63.623047"/>
       <use xlink:href="#DejaVuSans-30" x="127.246094"/>
      </g>
     </g>
    </g>
    <g id="xtick_9">
     <g id="line2d_9">
      <g>
       <use xlink:href="#md288d5daa9" x="413.340749" y="307.584" style="stroke: #000000; stroke-width: 0.8"/>
      </g>
     </g>
     <g id="text_9">
      <!-- 160 -->
      <g transform="translate(403.796999 322.182437) scale(0.1 -0.1)">
       <use xlink:href="#DejaVuSans-31"/>
       <use xlink:href="#DejaVuSans-36" x="63.623047"/>
       <use xlink:href="#DejaVuSans-30" x="127.246094"/>
      </g>
     </g>
    </g>
   </g>
   <g id="matplotlib.axis_2">
    <g id="ytick_1">
     <g id="line2d_10">
      <defs>
       <path id="mcc6b6ae928" d="M 0 0 
L -3.5 0 
" style="stroke: #000000; stroke-width: 0.8"/>
      </defs>
      <g>
       <use xlink:href="#mcc6b6ae928" x="57.6" y="274.987849" style="stroke: #000000; stroke-width: 0.8"/>
      </g>
     </g>
     <g id="text_10">
      <!-- −0.02 -->
      <g transform="translate(19.954687 278.787068) scale(0.1 -0.1)">
       <defs>
        <path id="DejaVuSans-2212" d="M 678 2272 
L 4684 2272 
L 4684 1741 
L 678 1741 
L 678 2272 
z
" transform="scale(0.015625)"/>
        <path id="DejaVuSans-2e" d="M 684 794 
L 1344 794 
L 1344 0 
L 684 0 
L 684 794 
z
" transform="scale(0.015625)"/>
       </defs>
       <use xlink:href="#DejaVuSans-2212"/>
       <use xlink:href="#DejaVuSans-30" x="83.789062"/>
       <use xlink:href="#DejaVuSans-2e" x="147.412109"/>
       <use xlink:href="#DejaVuSans-30" x="179.199219"/>
       <use xlink:href="#DejaVuSans-32" x="242.822266"/>
      </g>
     </g>
    </g>
    <g id="ytick_2">
     <g id="line2d_11">
      <g>
       <use xlink:href="#mcc6b6ae928" x="57.6" y="227.66543" style="stroke: #000000; stroke-width: 0.8"/>
      </g>
     </g>
     <g id="text_11">
      <!-- −0.01 -->
      <g transform="translate(19.954687 231.464649) scale(0.1 -0.1)">
       <use xlink:href="#DejaVuSans-2212"/>
       <use xlink:href="#DejaVuSans-30" x="83.789062"/>
       <use xlink:href="#DejaVuSans-2e" x="147.412109"/>
       <use xlink:href="#DejaVuSans-30" x="179.199219"/>
       <use xlink:href="#DejaVuSans-31" x="242.822266"/>
      </g>
     </g>
    </g>
    <g id="ytick_3">
     <g id="line2d_12">
      <g>
       <use xlink:href="#mcc6b6ae928" x="57.6" y="180.343012" style="stroke: #000000; stroke-width: 0.8"/>
      </g>
     </g>
     <g id="text_12">
      <!-- 0.00 -->
      <g transform="translate(28.334375 184.14223) scale(0.1 -0.1)">
       <use xlink:href="#DejaVuSans-30"/>
       <use xlink:href="#DejaVuSans-2e" x="63.623047"/>
       <use xlink:href="#DejaVuSans-30" x="95.410156"/>
       <use xlink:href="#DejaVuSans-30" x="159.033203"/>
      </g>
     </g>
    </g>
    <g id="ytick_4">
     <g id="line2d_13">
      <g>
       <use xlink:href="#mcc6b6ae928" x="57.6" y="133.020593" style="stroke: #000000; stroke-width: 0.8"/>
      </g>
     </g>
     <g id="text_13">
      <!-- 0.01 -->
      <g transform="translate(28.334375 136.819812) scale(0.1 -0.1)">
       <use xlink:href="#DejaVuSans-30"/>
       <use xlink:href="#DejaVuSans-2e" x="63.623047"/>
       <use xlink:href="#DejaVuSans-30" x="95.410156"/>
       <use xlink:href="#DejaVuSans-31" x="159.033203"/>
      </g>
     </g>
    </g>
    <g id="ytick_5">
     <g id="line2d_14">
      <g>
       <use xlink:href="#mcc6b6ae928" x="57.6" y="85.698174" style="stroke: #000000; stroke-width: 0.8"/>
      </g>
     </g>
     <g id="text_14">
      <!-- 0.02 -->
      <g transform="translate(28.334375 89.497393) scale(0.1 -0.1)">
       <use xlink:href="#DejaVuSans-30"/>
       <use xlink:href="#DejaVuSans-2e" x="63.623047"/>
       <use xlink:href="#DejaVuSans-30" x="95.410156"/>
       <use xlink:href="#DejaVuSans-32" x="159.033203"/>
      </g>
     </g>
    </g>
   </g>
   <g id="line2d_15">
    <path d="M 73.832727 186.888055 
L 75.954652 181.176343 
L 78.076578 185.69422 
L 80.198503 180.940846 
L 82.320428 183.104971 
L 84.442353 181.455978 
L 86.564278 182.034368 
L 88.686203 187.676239 
L 90.808128 176.081189 
L 92.930053 185.374827 
L 95.051979 187.784671 
L 97.173904 181.310455 
L 99.295829 179.854355 
L 101.417754 189.11256 
L 103.539679 186.910559 
L 105.661604 188.545069 
L 107.783529 177.876754 
L 109.905455 181.160273 
L 112.02738 186.08439 
L 114.149305 182.225769 
L 116.27123 184.669294 
L 118.393155 178.563755 
L 120.51508 184.143045 
L 122.637005 184.6479 
L 124.75893 177.822549 
L 126.880856 183.25757 
L 129.002781 185.736307 
L 131.124706 175.057859 
L 133.246631 189.298745 
L 135.368556 180.776772 
L 137.490481 180.005301 
L 139.612406 182.322851 
L 141.734332 181.753814 
L 143.856257 185.031435 
L 145.978182 181.054029 
L 148.100107 188.494002 
L 150.222032 181.732337 
L 152.343957 178.845714 
L 154.465882 184.448557 
L 156.587807 182.438603 
L 158.709733 179.288153 
L 160.831658 180.165295 
L 165.075508 186.571614 
L 167.197433 181.488482 
L 171.441283 180.491104 
L 173.563209 183.679921 
L 175.685134 183.823995 
L 177.807059 178.851185 
L 179.928984 178.835046 
L 182.050909 181.306809 
L 184.172834 185.231524 
L 186.294759 200.283645 
L 188.416684 164.568112 
L 190.53861 191.388781 
L 192.660535 187.102121 
L 194.78246 187.623078 
L 196.904385 178.514116 
L 199.02631 193.234334 
L 201.148235 179.189895 
L 203.27016 181.460853 
L 205.392086 183.133391 
L 207.514011 192.445064 
L 209.635936 177.086102 
L 211.757861 177.938788 
L 213.879786 184.932376 
L 216.001711 184.429583 
L 218.123636 180.741917 
L 220.245561 180.716213 
L 222.367487 179.926468 
L 224.489412 190.599548 
L 226.611337 184.259856 
L 228.733262 184.780123 
L 230.855187 182.177487 
L 232.977112 175.945938 
L 235.099037 187.421406 
L 237.220963 180.655746 
L 239.342888 185.279698 
L 241.464813 176.984528 
L 243.586738 185.190521 
L 245.708663 183.083094 
L 247.830588 186.351351 
L 249.952513 179.630079 
L 252.074439 189.32943 
L 254.196364 179.301843 
L 256.318289 177.813377 
L 258.440214 183.934854 
L 260.562139 183.524724 
L 262.684064 178.072368 
L 264.805989 179.367867 
L 266.927914 185.629295 
L 269.04984 187.523492 
L 271.171765 176.680135 
L 273.29369 183.266191 
L 275.415615 184.084428 
L 277.53754 178.273903 
L 279.659465 179.272298 
L 281.78139 185.723615 
L 283.903316 182.08286 
L 286.025241 181.623944 
L 288.147166 182.560361 
L 290.269091 181.448337 
L 292.391016 191.956268 
L 294.512941 177.498345 
L 296.634866 170.439284 
L 298.756791 197.842503 
L 300.878717 180.861576 
L 303.000642 180.428266 
L 305.122567 183.696174 
L 307.244492 181.242455 
L 309.366417 194.962324 
L 311.488342 173.085771 
L 313.610267 193.543066 
L 315.732193 175.9083 
L 317.854118 188.869019 
L 319.976043 180.82148 
L 322.097968 179.329731 
L 324.219893 184.88807 
L 326.341818 186.371594 
L 328.463743 183.306561 
L 330.585668 184.812589 
L 332.707594 184.737894 
L 334.829519 201.735266 
L 336.951444 179.753088 
L 339.073369 188.551423 
L 341.195294 187.462915 
L 343.317219 183.149853 
L 345.439144 186.900032 
L 347.56107 174.35974 
L 349.682995 187.197166 
L 351.80492 183.338155 
L 353.926845 183.456056 
L 356.04877 182.28782 
L 358.170695 188.635331 
L 360.29262 177.807452 
L 362.414545 177.819982 
L 364.536471 184.26843 
L 366.658396 184.787329 
L 368.780321 185.177551 
L 370.902246 188.642387 
L 373.024171 187.560297 
L 375.146096 183.595927 
L 377.268021 180.003881 
L 379.389947 178.269671 
L 381.511872 182.976405 
L 383.633797 182.535278 
L 385.755722 180.761206 
L 387.877647 182.685633 
L 392.121497 188.366367 
L 394.243422 179.971388 
L 396.365348 187.579759 
L 398.487273 181.265911 
L 398.487273 181.265911 
" clip-path="url(#pf6fd134a3d)" style="fill: none; stroke: #008000; stroke-opacity: 0.8; stroke-width: 0.5; stroke-linecap: square"/>
   </g>
   <g id="line2d_16">
    <path d="M 73.832727 120.803416 
L 75.954652 122.903367 
L 78.076578 135.963236 
L 80.198503 128.750821 
L 82.320428 155.311332 
L 84.442353 150.088071 
L 86.564278 134.729582 
L 88.686203 149.012262 
L 90.808128 65.903383 
L 92.930053 137.975998 
L 95.051979 159.970447 
L 97.173904 136.312102 
L 99.295829 137.616741 
L 101.417754 130.341574 
L 103.539679 151.473974 
L 105.661604 149.571741 
L 107.783529 128.790301 
L 109.905455 146.043048 
L 112.02738 148.425982 
L 114.149305 149.947537 
L 116.27123 134.015002 
L 118.393155 151.417103 
L 120.51508 134.521014 
L 122.637005 110.633022 
L 124.75893 144.925071 
L 126.880856 154.329472 
L 129.002781 149.329503 
L 131.124706 129.578517 
L 133.246631 149.544446 
L 135.368556 140.918158 
L 137.490481 150.12017 
L 139.612406 151.051971 
L 141.734332 166.285069 
L 143.856257 169.028256 
L 145.978182 153.217527 
L 148.100107 163.258973 
L 150.222032 144.167904 
L 152.343957 157.388769 
L 154.465882 139.331742 
L 156.587807 158.408391 
L 158.709733 154.090653 
L 160.831658 141.243584 
L 162.953583 150.09464 
L 165.075508 170.969742 
L 167.197433 167.150611 
L 169.319358 155.566953 
L 171.441283 162.835358 
L 173.563209 147.269701 
L 175.685134 158.458411 
L 177.807059 153.767356 
L 179.928984 158.535604 
L 182.050909 160.833664 
L 184.172834 165.901978 
L 186.294759 152.041902 
L 188.416684 65.793918 
L 190.53861 107.790789 
L 192.660535 136.348714 
L 194.78246 161.829954 
L 196.904385 148.939224 
L 199.02631 156.416714 
L 201.148235 142.627891 
L 203.27016 134.452394 
L 205.392086 154.657519 
L 207.514011 166.632733 
L 209.635936 120.790685 
L 211.757861 125.149112 
L 216.001711 160.629154 
L 218.123636 143.031395 
L 220.245561 145.002891 
L 222.367487 156.376221 
L 224.489412 140.725614 
L 226.611337 167.102795 
L 228.733262 161.915648 
L 230.855187 151.498021 
L 232.977112 120.731475 
L 235.099037 145.640184 
L 237.220963 150.292369 
L 239.342888 161.54361 
L 241.464813 145.967828 
L 243.586738 144.388821 
L 245.708663 131.416562 
L 247.830588 166.265302 
L 249.952513 129.867009 
L 252.074439 144.38357 
L 254.196364 151.597279 
L 256.318289 144.454003 
L 258.440214 116.841511 
L 260.562139 164.239664 
L 262.684064 140.632738 
L 264.805989 143.640874 
L 266.927914 142.782856 
L 269.04984 169.239087 
L 271.171765 155.372772 
L 273.29369 147.139613 
L 275.415615 165.859259 
L 277.53754 115.416654 
L 279.659465 127.061629 
L 281.78139 136.706867 
L 283.903316 152.729399 
L 286.025241 134.246491 
L 288.147166 144.772438 
L 290.269091 142.34089 
L 292.391016 153.74385 
L 294.512941 157.858705 
L 296.634866 105.778929 
L 298.756791 139.308922 
L 300.878717 129.102985 
L 303.000642 145.878512 
L 305.122567 142.691048 
L 307.244492 125.116041 
L 309.366417 138.572809 
L 311.488342 132.740914 
L 313.610267 142.553973 
L 315.732193 104.67679 
L 317.854118 137.700241 
L 319.976043 127.028552 
L 322.097968 137.530317 
L 324.219893 137.723593 
L 326.341818 99.19372 
L 328.463743 124.610009 
L 330.585668 114.537868 
L 332.707594 102.581885 
L 334.829519 146.700736 
L 336.951444 142.917951 
L 339.073369 150.512738 
L 341.195294 152.893968 
L 343.317219 116.766584 
L 345.439144 151.828502 
L 347.56107 122.492704 
L 349.682995 151.776207 
L 351.80492 145.249712 
L 353.926845 110.850022 
L 358.170695 143.581695 
L 360.29262 140.302435 
L 362.414545 148.319216 
L 364.536471 159.621449 
L 366.658396 151.214486 
L 370.902246 154.377061 
L 373.024171 155.756374 
L 375.146096 134.659947 
L 377.268021 161.139004 
L 379.389947 132.811568 
L 381.511872 137.737853 
L 383.633797 158.139052 
L 385.755722 136.261426 
L 387.877647 140.355666 
L 389.999572 155.615485 
L 392.121497 161.410887 
L 396.365348 116.892724 
L 398.487273 155.423571 
L 398.487273 155.423571 
" clip-path="url(#pf6fd134a3d)" style="fill: none; stroke: #32cd32; stroke-opacity: 0.8; stroke-width: 0.5; stroke-linecap: square"/>
   </g>
   <g id="line2d_17">
    <path d="M 73.832727 226.040375 
L 75.954652 235.85834 
L 78.076578 235.900422 
L 80.198503 227.395137 
L 82.320428 207.169984 
L 84.442353 225.831798 
L 86.564278 228.917522 
L 88.686203 276.262404 
L 90.808128 215.518203 
L 92.930053 212.942794 
L 95.051979 245.911733 
L 97.173904 222.108373 
L 99.295829 210.70635 
L 101.417754 235.151917 
L 103.539679 233.942731 
L 105.661604 228.979857 
L 107.783529 222.210052 
L 109.905455 207.310354 
L 112.02738 234.862673 
L 114.149305 249.017098 
L 116.27123 224.554824 
L 118.393155 211.127757 
L 120.51508 223.572344 
L 122.637005 256.271993 
L 124.75893 208.811972 
L 126.880856 235.447382 
L 129.002781 221.007505 
L 131.124706 195.647709 
L 133.246631 219.742106 
L 135.368556 221.025608 
L 137.490481 202.065217 
L 139.612406 201.971827 
L 141.734332 196.191601 
L 143.856257 208.532154 
L 145.978182 210.533962 
L 148.100107 212.772514 
L 150.222032 211.125181 
L 152.343957 202.709809 
L 154.465882 241.911682 
L 156.587807 211.710451 
L 160.831658 216.724257 
L 162.953583 205.193907 
L 165.075508 199.774122 
L 167.197433 196.82589 
L 169.319358 200.4014 
L 171.441283 192.308846 
L 173.563209 208.626361 
L 175.685134 218.467322 
L 177.807059 199.769072 
L 179.928984 195.507315 
L 182.050909 210.077222 
L 184.172834 211.001835 
L 186.294759 254.475193 
L 188.416684 281.520164 
L 190.53861 249.719281 
L 192.660535 237.768773 
L 194.78246 217.074096 
L 196.904385 211.1181 
L 199.02631 225.730639 
L 201.148235 215.428782 
L 203.27016 242.104807 
L 205.392086 210.893867 
L 207.514011 213.051855 
L 209.635936 224.113769 
L 211.757861 212.499504 
L 213.879786 231.456142 
L 216.001711 217.267111 
L 218.123636 213.246808 
L 220.245561 216.716714 
L 222.367487 209.619184 
L 224.489412 248.069012 
L 226.611337 212.77494 
L 228.733262 241.781022 
L 230.855187 206.589341 
L 232.977112 215.331948 
L 235.099037 217.938125 
L 237.220963 236.224963 
L 239.342888 221.034916 
L 241.464813 217.693414 
L 243.586738 231.228149 
L 245.708663 213.472514 
L 247.830588 205.135477 
L 249.952513 220.073571 
L 252.074439 222.868074 
L 254.196364 205.977327 
L 258.440214 226.376415 
L 260.562139 216.91469 
L 262.684064 220.506282 
L 264.805989 200.519571 
L 266.927914 209.810939 
L 269.04984 204.24968 
L 271.171765 195.731257 
L 273.29369 215.386597 
L 275.415615 218.653018 
L 277.53754 222.316308 
L 279.659465 206.400883 
L 281.78139 228.79983 
L 283.903316 217.416241 
L 286.025241 203.468957 
L 288.147166 208.439541 
L 290.269091 214.698593 
L 292.391016 240.107489 
L 294.512941 230.058413 
L 296.634866 214.157804 
L 298.756791 267.341356 
L 300.878717 228.907195 
L 303.000642 225.592271 
L 305.122567 227.862286 
L 307.244492 229.320742 
L 309.366417 237.408796 
L 311.488342 254.445631 
L 313.610267 234.649752 
L 315.732193 226.830759 
L 317.854118 223.943466 
L 319.976043 230.436145 
L 322.097968 221.065379 
L 324.219893 229.517791 
L 326.341818 233.572951 
L 328.463743 258.304308 
L 330.585668 248.721792 
L 332.707594 231.88157 
L 334.829519 295.488 
L 336.951444 238.545024 
L 339.073369 239.027858 
L 341.195294 217.86472 
L 343.317219 257.114009 
L 345.439144 220.07548 
L 347.56107 252.864794 
L 349.682995 215.713584 
L 351.80492 225.5876 
L 353.926845 224.596376 
L 356.04877 222.721323 
L 358.170695 234.007974 
L 360.29262 213.072668 
L 362.414545 214.92288 
L 364.536471 222.60063 
L 366.658396 219.08134 
L 368.780321 223.959533 
L 370.902246 220.1278 
L 373.024171 240.80559 
L 377.268021 196.103045 
L 379.389947 210.108801 
L 381.511872 220.067319 
L 383.633797 228.431631 
L 385.755722 206.936871 
L 387.877647 219.556319 
L 389.999572 233.92292 
L 392.121497 264.277861 
L 394.243422 208.702007 
L 396.365348 220.659751 
L 398.487273 209.782774 
L 398.487273 209.782774 
" clip-path="url(#pf6fd134a3d)" style="fill: none; stroke: #32cd32; stroke-opacity: 0.8; stroke-width: 0.5; stroke-linecap: square"/>
   </g>
   <g id="line2d_18">
    <path d="M 73.832727 178.20799 
L 75.954652 175.358736 
L 78.076578 180.195422 
L 80.198503 175.552352 
L 82.320428 179.382433 
L 84.442353 170.861628 
L 88.686203 182.004248 
L 90.808128 171.163973 
L 92.930053 181.829711 
L 95.051979 180.106129 
L 97.173904 177.023006 
L 99.295829 175.621348 
L 101.417754 175.308701 
L 103.539679 177.695498 
L 105.661604 183.80929 
L 107.783529 168.36255 
L 109.905455 176.499169 
L 112.02738 182.188884 
L 114.149305 180.099456 
L 116.27123 180.421193 
L 118.393155 177.728273 
L 120.51508 181.73057 
L 122.637005 178.263943 
L 124.75893 173.166318 
L 126.880856 180.170196 
L 129.002781 182.310775 
L 131.124706 171.804345 
L 133.246631 185.427066 
L 135.368556 176.39521 
L 137.490481 178.614543 
L 139.612406 176.890519 
L 141.734332 178.503635 
L 143.856257 181.832563 
L 145.978182 175.024201 
L 148.100107 179.984271 
L 150.222032 179.645594 
L 152.343957 174.845163 
L 154.465882 179.720064 
L 156.587807 179.688898 
L 158.709733 174.898665 
L 160.831658 180.448836 
L 162.953583 180.685241 
L 165.075508 182.395209 
L 167.197433 175.890367 
L 169.319358 175.721453 
L 171.441283 176.670371 
L 173.563209 177.465011 
L 175.685134 182.951376 
L 177.807059 173.430731 
L 179.928984 175.339258 
L 182.050909 176.860064 
L 184.172834 179.792163 
L 186.294759 189.961462 
L 188.416684 145.380902 
L 190.53861 170.394769 
L 192.660535 182.1651 
L 194.78246 182.570608 
L 196.904385 175.116515 
L 199.02631 183.579981 
L 201.148235 170.065207 
L 203.27016 179.467282 
L 205.392086 181.185278 
L 207.514011 183.739183 
L 209.635936 167.754188 
L 211.757861 174.200079 
L 213.879786 177.452574 
L 216.001711 178.199401 
L 218.123636 172.81998 
L 220.245561 177.603939 
L 222.367487 171.939397 
L 224.489412 186.783121 
L 226.611337 180.86939 
L 228.733262 178.915646 
L 230.855187 178.343327 
L 232.977112 172.51756 
L 235.099037 178.694724 
L 237.220963 175.389497 
L 239.342888 182.367387 
L 241.464813 168.989556 
L 243.586738 178.924727 
L 245.708663 175.597935 
L 247.830588 179.098293 
L 249.952513 176.126078 
L 252.074439 182.164821 
L 254.196364 175.805489 
L 256.318289 175.968334 
L 258.440214 176.713321 
L 260.562139 178.30406 
L 262.684064 176.938251 
L 264.805989 176.184172 
L 266.927914 177.572928 
L 269.04984 181.87172 
L 271.171765 172.448926 
L 273.29369 177.560793 
L 275.415615 181.611001 
L 277.53754 175.181813 
L 279.659465 175.821193 
L 281.78139 178.605147 
L 283.903316 177.486252 
L 286.025241 179.467805 
L 288.147166 181.111505 
L 290.269091 176.142847 
L 292.391016 178.648456 
L 294.512941 169.991739 
L 296.634866 163.526905 
L 298.756791 182.050016 
L 300.878717 175.599978 
L 303.000642 174.706363 
L 305.122567 169.829716 
L 307.244492 174.753537 
L 309.366417 182.710617 
L 311.488342 165.801901 
L 313.610267 185.341944 
L 315.732193 164.476078 
L 317.854118 178.737873 
L 319.976043 176.919359 
L 322.097968 172.80945 
L 324.219893 177.398504 
L 326.341818 183.180505 
L 328.463743 166.970728 
L 330.585668 176.717592 
L 332.707594 176.529071 
L 334.829519 194.109354 
L 336.951444 165.095847 
L 339.073369 176.230106 
L 341.195294 179.498105 
L 343.317219 175.438189 
L 345.439144 180.52499 
L 347.56107 172.096717 
L 349.682995 176.925849 
L 351.80492 178.777276 
L 353.926845 176.383289 
L 356.04877 170.595835 
L 358.170695 180.670574 
L 360.29262 177.024317 
L 362.414545 170.794468 
L 364.536471 177.804047 
L 366.658396 181.093113 
L 368.780321 176.796848 
L 370.902246 183.269016 
L 373.024171 171.833927 
L 375.146096 179.245853 
L 377.268021 173.566269 
L 379.389947 172.908454 
L 381.511872 176.320477 
L 383.633797 179.187552 
L 385.755722 176.326699 
L 387.877647 180.470077 
L 389.999572 180.811802 
L 392.121497 181.76114 
L 394.243422 170.78488 
L 396.365348 181.579498 
L 398.487273 178.104087 
L 398.487273 178.104087 
" clip-path="url(#pf6fd134a3d)" style="fill: none; stroke: #ff0000; stroke-opacity: 0.8; stroke-width: 0.5; stroke-linecap: square"/>
   </g>
   <g id="line2d_19">
    <path d="M 73.832727 109.798068 
L 75.954652 118.636845 
L 78.076578 137.967103 
L 80.198503 126.828998 
L 82.320428 150.155634 
L 84.442353 142.366722 
L 86.564278 131.338035 
L 88.686203 145.942541 
L 90.808128 61.135726 
L 92.930053 134.871023 
L 95.051979 144.935129 
L 97.173904 125.550647 
L 99.295829 135.021576 
L 101.417754 123.66064 
L 103.539679 148.08384 
L 105.661604 127.969161 
L 107.783529 125.997469 
L 109.905455 142.087572 
L 112.02738 152.442919 
L 114.149305 146.755651 
L 116.27123 118.05222 
L 118.393155 147.050199 
L 120.51508 122.524866 
L 122.637005 109.404394 
L 124.75893 140.934693 
L 126.880856 148.824802 
L 129.002781 149.171758 
L 131.124706 128.099203 
L 133.246631 134.771004 
L 135.368556 138.829377 
L 137.490481 151.138094 
L 139.612406 149.813756 
L 141.734332 164.127998 
L 143.856257 166.998409 
L 145.978182 152.239374 
L 148.100107 145.225518 
L 150.222032 142.310035 
L 152.343957 148.244457 
L 154.465882 123.906599 
L 156.587807 155.686288 
L 158.709733 151.083384 
L 160.831658 135.291432 
L 162.953583 150.305448 
L 165.075508 169.193903 
L 167.197433 161.839985 
L 169.319358 153.971166 
L 171.441283 160.839463 
L 173.563209 129.115468 
L 175.685134 156.974419 
L 177.807059 150.679041 
L 179.928984 158.917379 
L 182.050909 150.369806 
L 184.172834 160.995132 
L 186.294759 132.976793 
L 188.416684 53.568 
L 190.53861 78.118172 
L 192.660535 130.371924 
L 194.78246 159.580554 
L 196.904385 139.809034 
L 199.02631 146.28041 
L 201.148235 128.532808 
L 203.27016 137.63982 
L 205.392086 148.051473 
L 207.514011 156.586556 
L 209.635936 101.468722 
L 211.757861 109.387496 
L 213.879786 140.86692 
L 216.001711 154.781006 
L 218.123636 141.951725 
L 220.245561 139.304245 
L 222.367487 143.754921 
L 224.489412 118.872062 
L 226.611337 166.165962 
L 230.855187 132.644083 
L 232.977112 105.642981 
L 235.099037 141.072194 
L 237.220963 143.900424 
L 239.342888 159.120257 
L 241.464813 139.314734 
L 243.586738 141.086232 
L 245.708663 134.0672 
L 247.830588 154.980699 
L 249.952513 126.948641 
L 252.074439 127.485704 
L 254.196364 137.086061 
L 256.318289 141.284672 
L 258.440214 119.049939 
L 260.562139 160.650271 
L 262.684064 137.493881 
L 264.805989 142.037 
L 266.927914 144.987186 
L 269.04984 163.49813 
L 271.171765 153.727006 
L 273.29369 140.847476 
L 275.415615 165.983425 
L 277.53754 101.691237 
L 279.659465 125.765399 
L 281.78139 136.103168 
L 283.903316 149.322002 
L 286.025241 120.22172 
L 288.147166 141.979627 
L 290.269091 140.7023 
L 292.391016 141.909445 
L 294.512941 150.636947 
L 296.634866 94.110259 
L 298.756791 102.666646 
L 300.878717 102.983248 
L 303.000642 143.929758 
L 305.122567 138.174198 
L 307.244492 114.353387 
L 309.366417 109.961375 
L 311.488342 124.32207 
L 313.610267 129.402693 
L 315.732193 100.630821 
L 317.854118 125.401389 
L 319.976043 114.17559 
L 322.097968 133.307779 
L 324.219893 132.409574 
L 326.341818 85.344967 
L 328.463743 107.679763 
L 330.585668 106.681579 
L 332.707594 72.991582 
L 334.829519 128.8693 
L 336.951444 125.412852 
L 339.073369 137.445634 
L 341.195294 139.169215 
L 343.317219 113.490093 
L 345.439144 136.567672 
L 347.56107 106.170319 
L 349.682995 148.411542 
L 351.80492 133.566933 
L 353.926845 94.274126 
L 356.04877 117.394786 
L 358.170695 119.380414 
L 360.29262 121.004729 
L 362.414545 134.98916 
L 364.536471 153.263452 
L 366.658396 145.277994 
L 368.780321 141.476059 
L 370.902246 152.299056 
L 373.024171 146.199017 
L 375.146096 129.993498 
L 377.268021 153.65814 
L 379.389947 113.174643 
L 381.511872 136.896129 
L 383.633797 154.004235 
L 385.755722 131.642961 
L 387.877647 125.114748 
L 389.999572 141.001628 
L 392.121497 127.410793 
L 394.243422 136.922268 
L 396.365348 87.68371 
L 398.487273 144.693715 
L 398.487273 144.693715 
" clip-path="url(#pf6fd134a3d)" style="fill: none; stroke: #f08080; stroke-opacity: 0.8; stroke-width: 0.5; stroke-linecap: square"/>
   </g>
   <g id="line2d_20">
    <path d="M 73.832727 222.587408 
L 75.954652 223.496175 
L 78.076578 228.508184 
L 80.198503 225.315004 
L 82.320428 206.48756 
L 84.442353 210.027815 
L 86.564278 222.373513 
L 88.686203 253.832578 
L 90.808128 210.87553 
L 92.930053 218.707268 
L 95.051979 240.890655 
L 97.173904 221.124698 
L 99.295829 209.619336 
L 101.417754 205.657937 
L 103.539679 228.269245 
L 105.661604 226.718975 
L 109.905455 198.069862 
L 112.02738 227.436612 
L 114.149305 228.90703 
L 116.27123 222.470143 
L 118.393155 208.416994 
L 120.51508 217.403245 
L 122.637005 225.548424 
L 124.75893 194.857596 
L 126.880856 232.520918 
L 129.002781 216.194815 
L 131.124706 190.593134 
L 133.246631 211.298315 
L 135.368556 204.733009 
L 137.490481 202.057615 
L 139.612406 198.799744 
L 141.734332 190.75966 
L 143.856257 203.442177 
L 145.978182 213.025375 
L 148.100107 205.059067 
L 150.222032 209.239705 
L 152.343957 199.158408 
L 154.465882 236.004878 
L 156.587807 210.624881 
L 158.709733 212.302739 
L 160.831658 218.47758 
L 162.953583 200.172596 
L 165.075508 196.154683 
L 167.197433 191.887593 
L 169.319358 195.420399 
L 171.441283 186.198476 
L 173.563209 205.409439 
L 175.685134 216.169319 
L 177.807059 203.071865 
L 179.928984 190.704191 
L 182.050909 208.217828 
L 184.172834 207.806477 
L 186.294759 239.786661 
L 188.416684 218.79588 
L 190.53861 231.862737 
L 192.660535 230.846736 
L 194.78246 209.979522 
L 196.904385 206.629811 
L 199.02631 224.23897 
L 201.148235 207.509464 
L 203.27016 234.008508 
L 205.392086 214.356104 
L 207.514011 206.869332 
L 209.635936 215.456519 
L 211.757861 205.096743 
L 213.879786 223.489083 
L 216.001711 202.252457 
L 218.123636 209.208847 
L 220.245561 215.660487 
L 222.367487 205.965247 
L 224.489412 239.254649 
L 226.611337 208.545902 
L 228.733262 242.170615 
L 230.855187 198.996007 
L 232.977112 213.113335 
L 235.099037 214.362323 
L 237.220963 226.64437 
L 239.342888 212.41942 
L 241.464813 202.631381 
L 243.586738 224.89835 
L 245.708663 207.316945 
L 247.830588 203.336243 
L 249.952513 211.751075 
L 252.074439 223.798845 
L 254.196364 204.359094 
L 256.318289 200.414064 
L 258.440214 208.921888 
L 260.562139 209.248763 
L 262.684064 209.180628 
L 264.805989 196.989741 
L 266.927914 209.089414 
L 269.04984 203.861358 
L 271.171765 188.306174 
L 273.29369 206.892535 
L 275.415615 213.952065 
L 277.53754 220.423808 
L 279.659465 203.604283 
L 281.78139 225.403767 
L 283.903316 216.555992 
L 286.025241 200.353234 
L 288.147166 209.575361 
L 290.269091 210.281116 
L 292.391016 227.613799 
L 294.512941 213.992872 
L 296.634866 206.994944 
L 298.756791 265.926784 
L 300.878717 226.629218 
L 303.000642 216.566465 
L 305.122567 208.567579 
L 307.244492 226.443456 
L 309.366417 233.227026 
L 311.488342 231.911413 
L 313.610267 228.496858 
L 315.732193 206.025928 
L 317.854118 220.596311 
L 319.976043 227.099082 
L 322.097968 222.184334 
L 324.219893 223.732714 
L 326.341818 230.015867 
L 328.463743 241.027106 
L 330.585668 247.671767 
L 332.707594 229.798151 
L 334.829519 278.63947 
L 336.951444 228.781509 
L 339.073369 227.3682 
L 341.195294 213.120702 
L 343.317219 245.78845 
L 345.439144 214.678207 
L 347.56107 250.161131 
L 349.682995 209.284328 
L 351.80492 228.503069 
L 353.926845 224.451821 
L 356.04877 202.203053 
L 358.170695 232.402893 
L 360.29262 209.539905 
L 362.414545 206.525329 
L 364.536471 210.508283 
L 366.658396 215.900283 
L 368.780321 211.030329 
L 370.902246 217.107331 
L 373.024171 230.99333 
L 375.146096 212.080771 
L 377.268021 189.144466 
L 379.389947 199.861064 
L 381.511872 199.735579 
L 383.633797 215.844707 
L 385.755722 201.742791 
L 387.877647 213.821966 
L 389.999572 225.208738 
L 392.121497 259.704769 
L 394.243422 199.916529 
L 396.365348 218.153415 
L 398.487273 203.204729 
L 398.487273 203.204729 
" clip-path="url(#pf6fd134a3d)" style="fill: none; stroke: #f08080; stroke-opacity: 0.8; stroke-width: 0.5; stroke-linecap: square"/>
   </g>
   <g id="patch_3">
    <path d="M 57.6 307.584 
L 57.6 41.472 
" style="fill: none; stroke: #000000; stroke-width: 0.8; stroke-linejoin: miter; stroke-linecap: square"/>
   </g>
   <g id="patch_4">
    <path d="M 414.72 307.584 
L 414.72 41.472 
" style="fill: none; stroke: #000000; stroke-width: 0.8; stroke-linejoin: miter; stroke-linecap: square"/>
   </g>
   <g id="patch_5">
    <path d="M 57.6 307.584 
L 414.72 307.584 
" style="fill: none; stroke: #000000; stroke-width: 0.8; stroke-linejoin: miter; stroke-linecap: square"/>
   </g>
   <g id="patch_6">
    <path d="M 57.6 41.472 
L 414.72 41.472 
" style="fill: none; stroke: #000000; stroke-width: 0.8; stroke-linejoin: miter; stroke-linecap: square"/>
   </g>
   <g id="text_15">
    <!-- zhang_extended_20_eurusd -->
    <g transform="translate(152.292188 35.472) scale(0.12 -0.12)">
     <defs>
      <path id="DejaVuSans-7a" d="M 353 3500 
L 3084 3500 
L 3084 2975 
L 922 459 
L 3084 459 
L 3084 0 
L 275 0 
L 275 525 
L 2438 3041 
L 353 3041 
L 353 3500 
z
" transform="scale(0.015625)"/>
      <path id="DejaVuSans-68" d="M 3513 2113 
L 3513 0 
L 2938 0 
L 2938 2094 
Q 2938 2591 2744 2837 
Q 2550 3084 2163 3084 
Q 1697 3084 1428 2787 
Q 1159 2491 1159 1978 
L 1159 0 
L 581 0 
L 581 4863 
L 1159 4863 
L 1159 2956 
Q 1366 3272 1645 3428 
Q 1925 3584 2291 3584 
Q 2894 3584 3203 3211 
Q 3513 2838 3513 2113 
z
" transform="scale(0.015625)"/>
      <path id="DejaVuSans-61" d="M 2194 1759 
Q 1497 1759 1228 1600 
Q 959 1441 959 1056 
Q 959 750 1161 570 
Q 1363 391 1709 391 
Q 2188 391 2477 730 
Q 2766 1069 2766 1631 
L 2766 1759 
L 2194 1759 
z
M 3341 1997 
L 3341 0 
L 2766 0 
L 2766 531 
Q 2569 213 2275 61 
Q 1981 -91 1556 -91 
Q 1019 -91 701 211 
Q 384 513 384 1019 
Q 384 1609 779 1909 
Q 1175 2209 1959 2209 
L 2766 2209 
L 2766 2266 
Q 2766 2663 2505 2880 
Q 2244 3097 1772 3097 
Q 1472 3097 1187 3025 
Q 903 2953 641 2809 
L 641 3341 
Q 956 3463 1253 3523 
Q 1550 3584 1831 3584 
Q 2591 3584 2966 3190 
Q 3341 2797 3341 1997 
z
" transform="scale(0.015625)"/>
      <path id="DejaVuSans-6e" d="M 3513 2113 
L 3513 0 
L 2938 0 
L 2938 2094 
Q 2938 2591 2744 2837 
Q 2550 3084 2163 3084 
Q 1697 3084 1428 2787 
Q 1159 2491 1159 1978 
L 1159 0 
L 581 0 
L 581 3500 
L 1159 3500 
L 1159 2956 
Q 1366 3272 1645 3428 
Q 1925 3584 2291 3584 
Q 2894 3584 3203 3211 
Q 3513 2838 3513 2113 
z
" transform="scale(0.015625)"/>
      <path id="DejaVuSans-67" d="M 2906 1791 
Q 2906 2416 2648 2759 
Q 2391 3103 1925 3103 
Q 1463 3103 1205 2759 
Q 947 2416 947 1791 
Q 947 1169 1205 825 
Q 1463 481 1925 481 
Q 2391 481 2648 825 
Q 2906 1169 2906 1791 
z
M 3481 434 
Q 3481 -459 3084 -895 
Q 2688 -1331 1869 -1331 
Q 1566 -1331 1297 -1286 
Q 1028 -1241 775 -1147 
L 775 -588 
Q 1028 -725 1275 -790 
Q 1522 -856 1778 -856 
Q 2344 -856 2625 -561 
Q 2906 -266 2906 331 
L 2906 616 
Q 2728 306 2450 153 
Q 2172 0 1784 0 
Q 1141 0 747 490 
Q 353 981 353 1791 
Q 353 2603 747 3093 
Q 1141 3584 1784 3584 
Q 2172 3584 2450 3431 
Q 2728 3278 2906 2969 
L 2906 3500 
L 3481 3500 
L 3481 434 
z
" transform="scale(0.015625)"/>
      <path id="DejaVuSans-5f" d="M 3263 -1063 
L 3263 -1509 
L -63 -1509 
L -63 -1063 
L 3263 -1063 
z
" transform="scale(0.015625)"/>
      <path id="DejaVuSans-65" d="M 3597 1894 
L 3597 1613 
L 953 1613 
Q 991 1019 1311 708 
Q 1631 397 2203 397 
Q 2534 397 2845 478 
Q 3156 559 3463 722 
L 3463 178 
Q 3153 47 2828 -22 
Q 2503 -91 2169 -91 
Q 1331 -91 842 396 
Q 353 884 353 1716 
Q 353 2575 817 3079 
Q 1281 3584 2069 3584 
Q 2775 3584 3186 3129 
Q 3597 2675 3597 1894 
z
M 3022 2063 
Q 3016 2534 2758 2815 
Q 2500 3097 2075 3097 
Q 1594 3097 1305 2825 
Q 1016 2553 972 2059 
L 3022 2063 
z
" transform="scale(0.015625)"/>
      <path id="DejaVuSans-78" d="M 3513 3500 
L 2247 1797 
L 3578 0 
L 2900 0 
L 1881 1375 
L 863 0 
L 184 0 
L 1544 1831 
L 300 3500 
L 978 3500 
L 1906 2253 
L 2834 3500 
L 3513 3500 
z
" transform="scale(0.015625)"/>
      <path id="DejaVuSans-74" d="M 1172 4494 
L 1172 3500 
L 2356 3500 
L 2356 3053 
L 1172 3053 
L 1172 1153 
Q 1172 725 1289 603 
Q 1406 481 1766 481 
L 2356 481 
L 2356 0 
L 1766 0 
Q 1100 0 847 248 
Q 594 497 594 1153 
L 594 3053 
L 172 3053 
L 172 3500 
L 594 3500 
L 594 4494 
L 1172 4494 
z
" transform="scale(0.015625)"/>
      <path id="DejaVuSans-64" d="M 2906 2969 
L 2906 4863 
L 3481 4863 
L 3481 0 
L 2906 0 
L 2906 525 
Q 2725 213 2448 61 
Q 2172 -91 1784 -91 
Q 1150 -91 751 415 
Q 353 922 353 1747 
Q 353 2572 751 3078 
Q 1150 3584 1784 3584 
Q 2172 3584 2448 3432 
Q 2725 3281 2906 2969 
z
M 947 1747 
Q 947 1113 1208 752 
Q 1469 391 1925 391 
Q 2381 391 2643 752 
Q 2906 1113 2906 1747 
Q 2906 2381 2643 2742 
Q 2381 3103 1925 3103 
Q 1469 3103 1208 2742 
Q 947 2381 947 1747 
z
" transform="scale(0.015625)"/>
      <path id="DejaVuSans-75" d="M 544 1381 
L 544 3500 
L 1119 3500 
L 1119 1403 
Q 1119 906 1312 657 
Q 1506 409 1894 409 
Q 2359 409 2629 706 
Q 2900 1003 2900 1516 
L 2900 3500 
L 3475 3500 
L 3475 0 
L 2900 0 
L 2900 538 
Q 2691 219 2414 64 
Q 2138 -91 1772 -91 
Q 1169 -91 856 284 
Q 544 659 544 1381 
z
M 1991 3584 
L 1991 3584 
z
" transform="scale(0.015625)"/>
      <path id="DejaVuSans-72" d="M 2631 2963 
Q 2534 3019 2420 3045 
Q 2306 3072 2169 3072 
Q 1681 3072 1420 2755 
Q 1159 2438 1159 1844 
L 1159 0 
L 581 0 
L 581 3500 
L 1159 3500 
L 1159 2956 
Q 1341 3275 1631 3429 
Q 1922 3584 2338 3584 
Q 2397 3584 2469 3576 
Q 2541 3569 2628 3553 
L 2631 2963 
z
" transform="scale(0.015625)"/>
      <path id="DejaVuSans-73" d="M 2834 3397 
L 2834 2853 
Q 2591 2978 2328 3040 
Q 2066 3103 1784 3103 
Q 1356 3103 1142 2972 
Q 928 2841 928 2578 
Q 928 2378 1081 2264 
Q 1234 2150 1697 2047 
L 1894 2003 
Q 2506 1872 2764 1633 
Q 3022 1394 3022 966 
Q 3022 478 2636 193 
Q 2250 -91 1575 -91 
Q 1294 -91 989 -36 
Q 684 19 347 128 
L 347 722 
Q 666 556 975 473 
Q 1284 391 1588 391 
Q 1994 391 2212 530 
Q 2431 669 2431 922 
Q 2431 1156 2273 1281 
Q 2116 1406 1581 1522 
L 1381 1569 
Q 847 1681 609 1914 
Q 372 2147 372 2553 
Q 372 3047 722 3315 
Q 1072 3584 1716 3584 
Q 2034 3584 2315 3537 
Q 2597 3491 2834 3397 
z
" transform="scale(0.015625)"/>
     </defs>
     <use xlink:href="#DejaVuSans-7a"/>
     <use xlink:href="#DejaVuSans-68" x="52.490234"/>
     <use xlink:href="#DejaVuSans-61" x="115.869141"/>
     <use xlink:href="#DejaVuSans-6e" x="177.148438"/>
     <use xlink:href="#DejaVuSans-67" x="240.527344"/>
     <use xlink:href="#DejaVuSans-5f" x="304.003906"/>
     <use xlink:href="#DejaVuSans-65" x="354.003906"/>
     <use xlink:href="#DejaVuSans-78" x="413.777344"/>
     <use xlink:href="#DejaVuSans-74" x="472.957031"/>
     <use xlink:href="#DejaVuSans-65" x="512.166016"/>
     <use xlink:href="#DejaVuSans-6e" x="573.689453"/>
     <use xlink:href="#DejaVuSans-64" x="637.068359"/>
     <use xlink:href="#DejaVuSans-65" x="700.544922"/>
     <use xlink:href="#DejaVuSans-64" x="762.068359"/>
     <use xlink:href="#DejaVuSans-5f" x="825.544922"/>
     <use xlink:href="#DejaVuSans-32" x="875.544922"/>
     <use xlink:href="#DejaVuSans-30" x="939.167969"/>
     <use xlink:href="#DejaVuSans-5f" x="1002.791016"/>
     <use xlink:href="#DejaVuSans-65" x="1052.791016"/>
     <use xlink:href="#DejaVuSans-75" x="1114.314453"/>
     <use xlink:href="#DejaVuSans-72" x="1177.693359"/>
     <use xlink:href="#DejaVuSans-75" x="1218.806641"/>
     <use xlink:href="#DejaVuSans-73" x="1282.185547"/>
     <use xlink:href="#DejaVuSans-64" x="1334.285156"/>
    </g>
   </g>
   <g id="legend_1">
    <g id="patch_7">
     <path d="M 64.6 137.54075 
L 225.001563 137.54075 
Q 227.001563 137.54075 227.001563 135.54075 
L 227.001563 48.472 
Q 227.001563 46.472 225.001563 46.472 
L 64.6 46.472 
Q 62.6 46.472 62.6 48.472 
L 62.6 135.54075 
Q 62.6 137.54075 64.6 137.54075 
z
" style="fill: #ffffff; opacity: 0.8; stroke: #cccccc; stroke-linejoin: miter"/>
    </g>
    <g id="line2d_21">
     <path d="M 66.6 54.570438 
L 76.6 54.570438 
L 86.6 54.570438 
" style="fill: none; stroke: #008000; stroke-opacity: 0.8; stroke-width: 0.5; stroke-linecap: square"/>
    </g>
    <g id="text_16">
     <!-- Positive predictions -->
     <g transform="translate(94.6 58.070438) scale(0.1 -0.1)">
      <defs>
       <path id="DejaVuSans-50" d="M 1259 4147 
L 1259 2394 
L 2053 2394 
Q 2494 2394 2734 2622 
Q 2975 2850 2975 3272 
Q 2975 3691 2734 3919 
Q 2494 4147 2053 4147 
L 1259 4147 
z
M 628 4666 
L 2053 4666 
Q 2838 4666 3239 4311 
Q 3641 3956 3641 3272 
Q 3641 2581 3239 2228 
Q 2838 1875 2053 1875 
L 1259 1875 
L 1259 0 
L 628 0 
L 628 4666 
z
" transform="scale(0.015625)"/>
       <path id="DejaVuSans-6f" d="M 1959 3097 
Q 1497 3097 1228 2736 
Q 959 2375 959 1747 
Q 959 1119 1226 758 
Q 1494 397 1959 397 
Q 2419 397 2687 759 
Q 2956 1122 2956 1747 
Q 2956 2369 2687 2733 
Q 2419 3097 1959 3097 
z
M 1959 3584 
Q 2709 3584 3137 3096 
Q 3566 2609 3566 1747 
Q 3566 888 3137 398 
Q 2709 -91 1959 -91 
Q 1206 -91 779 398 
Q 353 888 353 1747 
Q 353 2609 779 3096 
Q 1206 3584 1959 3584 
z
" transform="scale(0.015625)"/>
       <path id="DejaVuSans-69" d="M 603 3500 
L 1178 3500 
L 1178 0 
L 603 0 
L 603 3500 
z
M 603 4863 
L 1178 4863 
L 1178 4134 
L 603 4134 
L 603 4863 
z
" transform="scale(0.015625)"/>
       <path id="DejaVuSans-76" d="M 191 3500 
L 800 3500 
L 1894 563 
L 2988 3500 
L 3597 3500 
L 2284 0 
L 1503 0 
L 191 3500 
z
" transform="scale(0.015625)"/>
       <path id="DejaVuSans-20" transform="scale(0.015625)"/>
       <path id="DejaVuSans-70" d="M 1159 525 
L 1159 -1331 
L 581 -1331 
L 581 3500 
L 1159 3500 
L 1159 2969 
Q 1341 3281 1617 3432 
Q 1894 3584 2278 3584 
Q 2916 3584 3314 3078 
Q 3713 2572 3713 1747 
Q 3713 922 3314 415 
Q 2916 -91 2278 -91 
Q 1894 -91 1617 61 
Q 1341 213 1159 525 
z
M 3116 1747 
Q 3116 2381 2855 2742 
Q 2594 3103 2138 3103 
Q 1681 3103 1420 2742 
Q 1159 2381 1159 1747 
Q 1159 1113 1420 752 
Q 1681 391 2138 391 
Q 2594 391 2855 752 
Q 3116 1113 3116 1747 
z
" transform="scale(0.015625)"/>
       <path id="DejaVuSans-63" d="M 3122 3366 
L 3122 2828 
Q 2878 2963 2633 3030 
Q 2388 3097 2138 3097 
Q 1578 3097 1268 2742 
Q 959 2388 959 1747 
Q 959 1106 1268 751 
Q 1578 397 2138 397 
Q 2388 397 2633 464 
Q 2878 531 3122 666 
L 3122 134 
Q 2881 22 2623 -34 
Q 2366 -91 2075 -91 
Q 1284 -91 818 406 
Q 353 903 353 1747 
Q 353 2603 823 3093 
Q 1294 3584 2113 3584 
Q 2378 3584 2631 3529 
Q 2884 3475 3122 3366 
z
" transform="scale(0.015625)"/>
      </defs>
      <use xlink:href="#DejaVuSans-50"/>
      <use xlink:href="#DejaVuSans-6f" x="56.677734"/>
      <use xlink:href="#DejaVuSans-73" x="117.859375"/>
      <use xlink:href="#DejaVuSans-69" x="169.958984"/>
      <use xlink:href="#DejaVuSans-74" x="197.742188"/>
      <use xlink:href="#DejaVuSans-69" x="236.951172"/>
      <use xlink:href="#DejaVuSans-76" x="264.734375"/>
      <use xlink:href="#DejaVuSans-65" x="323.914062"/>
      <use xlink:href="#DejaVuSans-20" x="385.4375"/>
      <use xlink:href="#DejaVuSans-70" x="417.224609"/>
      <use xlink:href="#DejaVuSans-72" x="480.701172"/>
      <use xlink:href="#DejaVuSans-65" x="519.564453"/>
      <use xlink:href="#DejaVuSans-64" x="581.087891"/>
      <use xlink:href="#DejaVuSans-69" x="644.564453"/>
      <use xlink:href="#DejaVuSans-63" x="672.347656"/>
      <use xlink:href="#DejaVuSans-74" x="727.328125"/>
      <use xlink:href="#DejaVuSans-69" x="766.537109"/>
      <use xlink:href="#DejaVuSans-6f" x="794.320312"/>
      <use xlink:href="#DejaVuSans-6e" x="855.501953"/>
      <use xlink:href="#DejaVuSans-73" x="918.880859"/>
     </g>
    </g>
    <g id="line2d_22">
     <path d="M 66.6 69.248563 
L 76.6 69.248563 
L 86.6 69.248563 
" style="fill: none; stroke: #32cd32; stroke-opacity: 0.8; stroke-width: 0.5; stroke-linecap: square"/>
    </g>
    <g id="text_17">
     <!-- Positive predictions max -->
     <g transform="translate(94.6 72.748563) scale(0.1 -0.1)">
      <defs>
       <path id="DejaVuSans-6d" d="M 3328 2828 
Q 3544 3216 3844 3400 
Q 4144 3584 4550 3584 
Q 5097 3584 5394 3201 
Q 5691 2819 5691 2113 
L 5691 0 
L 5113 0 
L 5113 2094 
Q 5113 2597 4934 2840 
Q 4756 3084 4391 3084 
Q 3944 3084 3684 2787 
Q 3425 2491 3425 1978 
L 3425 0 
L 2847 0 
L 2847 2094 
Q 2847 2600 2669 2842 
Q 2491 3084 2119 3084 
Q 1678 3084 1418 2786 
Q 1159 2488 1159 1978 
L 1159 0 
L 581 0 
L 581 3500 
L 1159 3500 
L 1159 2956 
Q 1356 3278 1631 3431 
Q 1906 3584 2284 3584 
Q 2666 3584 2933 3390 
Q 3200 3197 3328 2828 
z
" transform="scale(0.015625)"/>
      </defs>
      <use xlink:href="#DejaVuSans-50"/>
      <use xlink:href="#DejaVuSans-6f" x="56.677734"/>
      <use xlink:href="#DejaVuSans-73" x="117.859375"/>
      <use xlink:href="#DejaVuSans-69" x="169.958984"/>
      <use xlink:href="#DejaVuSans-74" x="197.742188"/>
      <use xlink:href="#DejaVuSans-69" x="236.951172"/>
      <use xlink:href="#DejaVuSans-76" x="264.734375"/>
      <use xlink:href="#DejaVuSans-65" x="323.914062"/>
      <use xlink:href="#DejaVuSans-20" x="385.4375"/>
      <use xlink:href="#DejaVuSans-70" x="417.224609"/>
      <use xlink:href="#DejaVuSans-72" x="480.701172"/>
      <use xlink:href="#DejaVuSans-65" x="519.564453"/>
      <use xlink:href="#DejaVuSans-64" x="581.087891"/>
      <use xlink:href="#DejaVuSans-69" x="644.564453"/>
      <use xlink:href="#DejaVuSans-63" x="672.347656"/>
      <use xlink:href="#DejaVuSans-74" x="727.328125"/>
      <use xlink:href="#DejaVuSans-69" x="766.537109"/>
      <use xlink:href="#DejaVuSans-6f" x="794.320312"/>
      <use xlink:href="#DejaVuSans-6e" x="855.501953"/>
      <use xlink:href="#DejaVuSans-73" x="918.880859"/>
      <use xlink:href="#DejaVuSans-20" x="970.980469"/>
      <use xlink:href="#DejaVuSans-6d" x="1002.767578"/>
      <use xlink:href="#DejaVuSans-61" x="1100.179688"/>
      <use xlink:href="#DejaVuSans-78" x="1161.458984"/>
     </g>
    </g>
    <g id="line2d_23">
     <path d="M 66.6 83.926688 
L 76.6 83.926688 
L 86.6 83.926688 
" style="fill: none; stroke: #32cd32; stroke-opacity: 0.8; stroke-width: 0.5; stroke-linecap: square"/>
    </g>
    <g id="text_18">
     <!-- Positive predictions min -->
     <g transform="translate(94.6 87.426688) scale(0.1 -0.1)">
      <use xlink:href="#DejaVuSans-50"/>
      <use xlink:href="#DejaVuSans-6f" x="56.677734"/>
      <use xlink:href="#DejaVuSans-73" x="117.859375"/>
      <use xlink:href="#DejaVuSans-69" x="169.958984"/>
      <use xlink:href="#DejaVuSans-74" x="197.742188"/>
      <use xlink:href="#DejaVuSans-69" x="236.951172"/>
      <use xlink:href="#DejaVuSans-76" x="264.734375"/>
      <use xlink:href="#DejaVuSans-65" x="323.914062"/>
      <use xlink:href="#DejaVuSans-20" x="385.4375"/>
      <use xlink:href="#DejaVuSans-70" x="417.224609"/>
      <use xlink:href="#DejaVuSans-72" x="480.701172"/>
      <use xlink:href="#DejaVuSans-65" x="519.564453"/>
      <use xlink:href="#DejaVuSans-64" x="581.087891"/>
      <use xlink:href="#DejaVuSans-69" x="644.564453"/>
      <use xlink:href="#DejaVuSans-63" x="672.347656"/>
      <use xlink:href="#DejaVuSans-74" x="727.328125"/>
      <use xlink:href="#DejaVuSans-69" x="766.537109"/>
      <use xlink:href="#DejaVuSans-6f" x="794.320312"/>
      <use xlink:href="#DejaVuSans-6e" x="855.501953"/>
      <use xlink:href="#DejaVuSans-73" x="918.880859"/>
      <use xlink:href="#DejaVuSans-20" x="970.980469"/>
      <use xlink:href="#DejaVuSans-6d" x="1002.767578"/>
      <use xlink:href="#DejaVuSans-69" x="1100.179688"/>
      <use xlink:href="#DejaVuSans-6e" x="1127.962891"/>
     </g>
    </g>
    <g id="line2d_24">
     <path d="M 66.6 98.604813 
L 76.6 98.604813 
L 86.6 98.604813 
" style="fill: none; stroke: #ff0000; stroke-opacity: 0.8; stroke-width: 0.5; stroke-linecap: square"/>
    </g>
    <g id="text_19">
     <!-- Negative predictions -->
     <g transform="translate(94.6 102.104813) scale(0.1 -0.1)">
      <defs>
       <path id="DejaVuSans-4e" d="M 628 4666 
L 1478 4666 
L 3547 763 
L 3547 4666 
L 4159 4666 
L 4159 0 
L 3309 0 
L 1241 3903 
L 1241 0 
L 628 0 
L 628 4666 
z
" transform="scale(0.015625)"/>
      </defs>
      <use xlink:href="#DejaVuSans-4e"/>
      <use xlink:href="#DejaVuSans-65" x="74.804688"/>
      <use xlink:href="#DejaVuSans-67" x="136.328125"/>
      <use xlink:href="#DejaVuSans-61" x="199.804688"/>
      <use xlink:href="#DejaVuSans-74" x="261.083984"/>
      <use xlink:href="#DejaVuSans-69" x="300.292969"/>
      <use xlink:href="#DejaVuSans-76" x="328.076172"/>
      <use xlink:href="#DejaVuSans-65" x="387.255859"/>
      <use xlink:href="#DejaVuSans-20" x="448.779297"/>
      <use xlink:href="#DejaVuSans-70" x="480.566406"/>
      <use xlink:href="#DejaVuSans-72" x="544.042969"/>
      <use xlink:href="#DejaVuSans-65" x="582.90625"/>
      <use xlink:href="#DejaVuSans-64" x="644.429688"/>
      <use xlink:href="#DejaVuSans-69" x="707.90625"/>
      <use xlink:href="#DejaVuSans-63" x="735.689453"/>
      <use xlink:href="#DejaVuSans-74" x="790.669922"/>
      <use xlink:href="#DejaVuSans-69" x="829.878906"/>
      <use xlink:href="#DejaVuSans-6f" x="857.662109"/>
      <use xlink:href="#DejaVuSans-6e" x="918.84375"/>
      <use xlink:href="#DejaVuSans-73" x="982.222656"/>
     </g>
    </g>
    <g id="line2d_25">
     <path d="M 66.6 113.282938 
L 76.6 113.282938 
L 86.6 113.282938 
" style="fill: none; stroke: #f08080; stroke-opacity: 0.8; stroke-width: 0.5; stroke-linecap: square"/>
    </g>
    <g id="text_20">
     <!-- Negative predictions max -->
     <g transform="translate(94.6 116.782938) scale(0.1 -0.1)">
      <use xlink:href="#DejaVuSans-4e"/>
      <use xlink:href="#DejaVuSans-65" x="74.804688"/>
      <use xlink:href="#DejaVuSans-67" x="136.328125"/>
      <use xlink:href="#DejaVuSans-61" x="199.804688"/>
      <use xlink:href="#DejaVuSans-74" x="261.083984"/>
      <use xlink:href="#DejaVuSans-69" x="300.292969"/>
      <use xlink:href="#DejaVuSans-76" x="328.076172"/>
      <use xlink:href="#DejaVuSans-65" x="387.255859"/>
      <use xlink:href="#DejaVuSans-20" x="448.779297"/>
      <use xlink:href="#DejaVuSans-70" x="480.566406"/>
      <use xlink:href="#DejaVuSans-72" x="544.042969"/>
      <use xlink:href="#DejaVuSans-65" x="582.90625"/>
      <use xlink:href="#DejaVuSans-64" x="644.429688"/>
      <use xlink:href="#DejaVuSans-69" x="707.90625"/>
      <use xlink:href="#DejaVuSans-63" x="735.689453"/>
      <use xlink:href="#DejaVuSans-74" x="790.669922"/>
      <use xlink:href="#DejaVuSans-69" x="829.878906"/>
      <use xlink:href="#DejaVuSans-6f" x="857.662109"/>
      <use xlink:href="#DejaVuSans-6e" x="918.84375"/>
      <use xlink:href="#DejaVuSans-73" x="982.222656"/>
      <use xlink:href="#DejaVuSans-20" x="1034.322266"/>
      <use xlink:href="#DejaVuSans-6d" x="1066.109375"/>
      <use xlink:href="#DejaVuSans-61" x="1163.521484"/>
      <use xlink:href="#DejaVuSans-78" x="1224.800781"/>
     </g>
    </g>
    <g id="line2d_26">
     <path d="M 66.6 127.961063 
L 76.6 127.961063 
L 86.6 127.961063 
" style="fill: none; stroke: #f08080; stroke-opacity: 0.8; stroke-width: 0.5; stroke-linecap: square"/>
    </g>
    <g id="text_21">
     <!-- Negative predictions min -->
     <g transform="translate(94.6 131.461063) scale(0.1 -0.1)">
      <use xlink:href="#DejaVuSans-4e"/>
      <use xlink:href="#DejaVuSans-65" x="74.804688"/>
      <use xlink:href="#DejaVuSans-67" x="136.328125"/>
      <use xlink:href="#DejaVuSans-61" x="199.804688"/>
      <use xlink:href="#DejaVuSans-74" x="261.083984"/>
      <use xlink:href="#DejaVuSans-69" x="300.292969"/>
      <use xlink:href="#DejaVuSans-76" x="328.076172"/>
      <use xlink:href="#DejaVuSans-65" x="387.255859"/>
      <use xlink:href="#DejaVuSans-20" x="448.779297"/>
      <use xlink:href="#DejaVuSans-70" x="480.566406"/>
      <use xlink:href="#DejaVuSans-72" x="544.042969"/>
      <use xlink:href="#DejaVuSans-65" x="582.90625"/>
      <use xlink:href="#DejaVuSans-64" x="644.429688"/>
      <use xlink:href="#DejaVuSans-69" x="707.90625"/>
      <use xlink:href="#DejaVuSans-63" x="735.689453"/>
      <use xlink:href="#DejaVuSans-74" x="790.669922"/>
      <use xlink:href="#DejaVuSans-69" x="829.878906"/>
      <use xlink:href="#DejaVuSans-6f" x="857.662109"/>
      <use xlink:href="#DejaVuSans-6e" x="918.84375"/>
      <use xlink:href="#DejaVuSans-73" x="982.222656"/>
      <use xlink:href="#DejaVuSans-20" x="1034.322266"/>
      <use xlink:href="#DejaVuSans-6d" x="1066.109375"/>
      <use xlink:href="#DejaVuSans-69" x="1163.521484"/>
      <use xlink:href="#DejaVuSans-6e" x="1191.304688"/>
     </g>
    </g>
   </g>
  </g>
 </g>
 <defs>
  <clipPath id="pf6fd134a3d">
   <rect x="57.6" y="41.472" width="357.12" height="266.112"/>
  </clipPath>
 </defs>
</svg>
