<?xml version="1.0" encoding="utf-8" standalone="no"?>
<!DOCTYPE svg PUBLIC "-//W3C//DTD SVG 1.1//EN"
  "http://www.w3.org/Graphics/SVG/1.1/DTD/svg11.dtd">
<svg xmlns:xlink="http://www.w3.org/1999/xlink" width="460.8pt" height="345.6pt" viewBox="0 0 460.8 345.6" xmlns="http://www.w3.org/2000/svg" version="1.1">
 <metadata>
  <rdf:RDF xmlns:dc="http://purl.org/dc/elements/1.1/" xmlns:cc="http://creativecommons.org/ns#" xmlns:rdf="http://www.w3.org/1999/02/22-rdf-syntax-ns#">
   <cc:Work>
    <dc:type rdf:resource="http://purl.org/dc/dcmitype/StillImage"/>
    <dc:date>2024-07-19T10:34:42.197053</dc:date>
    <dc:format>image/svg+xml</dc:format>
    <dc:creator>
     <cc:Agent>
      <dc:title>Matplotlib v3.9.0, https://matplotlib.org/</dc:title>
     </cc:Agent>
    </dc:creator>
   </cc:Work>
  </rdf:RDF>
 </metadata>
 <defs>
  <style type="text/css">*{stroke-linejoin: round; stroke-linecap: butt}</style>
 </defs>
 <g id="figure_1">
  <g id="patch_1">
   <path d="M 0 345.6 
L 460.8 345.6 
L 460.8 0 
L 0 0 
z
" style="fill: #ffffff"/>
  </g>
  <g id="axes_1">
   <g id="patch_2">
    <path d="M 57.6 307.584 
L 414.72 307.584 
L 414.72 41.472 
L 57.6 41.472 
z
" style="fill: #ffffff"/>
   </g>
   <g id="matplotlib.axis_1">
    <g id="xtick_1">
     <g id="line2d_1">
      <defs>
       <path id="m62bff2467f" d="M 0 0 
L 0 3.5 
" style="stroke: #000000; stroke-width: 0.8"/>
      </defs>
      <g>
       <use xlink:href="#m62bff2467f" x="73.832727" y="307.584" style="stroke: #000000; stroke-width: 0.8"/>
      </g>
     </g>
     <g id="text_1">
      <!-- 0 -->
      <g transform="translate(70.651477 322.182437) scale(0.1 -0.1)">
       <defs>
        <path id="DejaVuSans-30" d="M 2034 4250 
Q 1547 4250 1301 3770 
Q 1056 3291 1056 2328 
Q 1056 1369 1301 889 
Q 1547 409 2034 409 
Q 2525 409 2770 889 
Q 3016 1369 3016 2328 
Q 3016 3291 2770 3770 
Q 2525 4250 2034 4250 
z
M 2034 4750 
Q 2819 4750 3233 4129 
Q 3647 3509 3647 2328 
Q 3647 1150 3233 529 
Q 2819 -91 2034 -91 
Q 1250 -91 836 529 
Q 422 1150 422 2328 
Q 422 3509 836 4129 
Q 1250 4750 2034 4750 
z
" transform="scale(0.015625)"/>
       </defs>
       <use xlink:href="#DejaVuSans-30"/>
      </g>
     </g>
    </g>
    <g id="xtick_2">
     <g id="line2d_2">
      <g>
       <use xlink:href="#m62bff2467f" x="149.333784" y="307.584" style="stroke: #000000; stroke-width: 0.8"/>
      </g>
     </g>
     <g id="text_2">
      <!-- 50 -->
      <g transform="translate(142.971284 322.182437) scale(0.1 -0.1)">
       <defs>
        <path id="DejaVuSans-35" d="M 691 4666 
L 3169 4666 
L 3169 4134 
L 1269 4134 
L 1269 2991 
Q 1406 3038 1543 3061 
Q 1681 3084 1819 3084 
Q 2600 3084 3056 2656 
Q 3513 2228 3513 1497 
Q 3513 744 3044 326 
Q 2575 -91 1722 -91 
Q 1428 -91 1123 -41 
Q 819 9 494 109 
L 494 744 
Q 775 591 1075 516 
Q 1375 441 1709 441 
Q 2250 441 2565 725 
Q 2881 1009 2881 1497 
Q 2881 1984 2565 2268 
Q 2250 2553 1709 2553 
Q 1456 2553 1204 2497 
Q 953 2441 691 2322 
L 691 4666 
z
" transform="scale(0.015625)"/>
       </defs>
       <use xlink:href="#DejaVuSans-35"/>
       <use xlink:href="#DejaVuSans-30" x="63.623047"/>
      </g>
     </g>
    </g>
    <g id="xtick_3">
     <g id="line2d_3">
      <g>
       <use xlink:href="#m62bff2467f" x="224.834841" y="307.584" style="stroke: #000000; stroke-width: 0.8"/>
      </g>
     </g>
     <g id="text_3">
      <!-- 100 -->
      <g transform="translate(215.291091 322.182437) scale(0.1 -0.1)">
       <defs>
        <path id="DejaVuSans-31" d="M 794 531 
L 1825 531 
L 1825 4091 
L 703 3866 
L 703 4441 
L 1819 4666 
L 2450 4666 
L 2450 531 
L 3481 531 
L 3481 0 
L 794 0 
L 794 531 
z
" transform="scale(0.015625)"/>
       </defs>
       <use xlink:href="#DejaVuSans-31"/>
       <use xlink:href="#DejaVuSans-30" x="63.623047"/>
       <use xlink:href="#DejaVuSans-30" x="127.246094"/>
      </g>
     </g>
    </g>
    <g id="xtick_4">
     <g id="line2d_4">
      <g>
       <use xlink:href="#m62bff2467f" x="300.335899" y="307.584" style="stroke: #000000; stroke-width: 0.8"/>
      </g>
     </g>
     <g id="text_4">
      <!-- 150 -->
      <g transform="translate(290.792149 322.182437) scale(0.1 -0.1)">
       <use xlink:href="#DejaVuSans-31"/>
       <use xlink:href="#DejaVuSans-35" x="63.623047"/>
       <use xlink:href="#DejaVuSans-30" x="127.246094"/>
      </g>
     </g>
    </g>
    <g id="xtick_5">
     <g id="line2d_5">
      <g>
       <use xlink:href="#m62bff2467f" x="375.836956" y="307.584" style="stroke: #000000; stroke-width: 0.8"/>
      </g>
     </g>
     <g id="text_5">
      <!-- 200 -->
      <g transform="translate(366.293206 322.182437) scale(0.1 -0.1)">
       <defs>
        <path id="DejaVuSans-32" d="M 1228 531 
L 3431 531 
L 3431 0 
L 469 0 
L 469 531 
Q 828 903 1448 1529 
Q 2069 2156 2228 2338 
Q 2531 2678 2651 2914 
Q 2772 3150 2772 3378 
Q 2772 3750 2511 3984 
Q 2250 4219 1831 4219 
Q 1534 4219 1204 4116 
Q 875 4013 500 3803 
L 500 4441 
Q 881 4594 1212 4672 
Q 1544 4750 1819 4750 
Q 2544 4750 2975 4387 
Q 3406 4025 3406 3419 
Q 3406 3131 3298 2873 
Q 3191 2616 2906 2266 
Q 2828 2175 2409 1742 
Q 1991 1309 1228 531 
z
" transform="scale(0.015625)"/>
       </defs>
       <use xlink:href="#DejaVuSans-32"/>
       <use xlink:href="#DejaVuSans-30" x="63.623047"/>
       <use xlink:href="#DejaVuSans-30" x="127.246094"/>
      </g>
     </g>
    </g>
   </g>
   <g id="matplotlib.axis_2">
    <g id="ytick_1">
     <g id="line2d_6">
      <defs>
       <path id="mc95ec5a7d8" d="M 0 0 
L -3.5 0 
" style="stroke: #000000; stroke-width: 0.8"/>
      </defs>
      <g>
       <use xlink:href="#mc95ec5a7d8" x="57.6" y="278.501811" style="stroke: #000000; stroke-width: 0.8"/>
      </g>
     </g>
     <g id="text_6">
      <!-- −6000 -->
      <g transform="translate(16.770313 282.30103) scale(0.1 -0.1)">
       <defs>
        <path id="DejaVuSans-2212" d="M 678 2272 
L 4684 2272 
L 4684 1741 
L 678 1741 
L 678 2272 
z
" transform="scale(0.015625)"/>
        <path id="DejaVuSans-36" d="M 2113 2584 
Q 1688 2584 1439 2293 
Q 1191 2003 1191 1497 
Q 1191 994 1439 701 
Q 1688 409 2113 409 
Q 2538 409 2786 701 
Q 3034 994 3034 1497 
Q 3034 2003 2786 2293 
Q 2538 2584 2113 2584 
z
M 3366 4563 
L 3366 3988 
Q 3128 4100 2886 4159 
Q 2644 4219 2406 4219 
Q 1781 4219 1451 3797 
Q 1122 3375 1075 2522 
Q 1259 2794 1537 2939 
Q 1816 3084 2150 3084 
Q 2853 3084 3261 2657 
Q 3669 2231 3669 1497 
Q 3669 778 3244 343 
Q 2819 -91 2113 -91 
Q 1303 -91 875 529 
Q 447 1150 447 2328 
Q 447 3434 972 4092 
Q 1497 4750 2381 4750 
Q 2619 4750 2861 4703 
Q 3103 4656 3366 4563 
z
" transform="scale(0.015625)"/>
       </defs>
       <use xlink:href="#DejaVuSans-2212"/>
       <use xlink:href="#DejaVuSans-36" x="83.789062"/>
       <use xlink:href="#DejaVuSans-30" x="147.412109"/>
       <use xlink:href="#DejaVuSans-30" x="211.035156"/>
       <use xlink:href="#DejaVuSans-30" x="274.658203"/>
      </g>
     </g>
    </g>
    <g id="ytick_2">
     <g id="line2d_7">
      <g>
       <use xlink:href="#mc95ec5a7d8" x="57.6" y="245.447064" style="stroke: #000000; stroke-width: 0.8"/>
      </g>
     </g>
     <g id="text_7">
      <!-- −4000 -->
      <g transform="translate(16.770313 249.246282) scale(0.1 -0.1)">
       <defs>
        <path id="DejaVuSans-34" d="M 2419 4116 
L 825 1625 
L 2419 1625 
L 2419 4116 
z
M 2253 4666 
L 3047 4666 
L 3047 1625 
L 3713 1625 
L 3713 1100 
L 3047 1100 
L 3047 0 
L 2419 0 
L 2419 1100 
L 313 1100 
L 313 1709 
L 2253 4666 
z
" transform="scale(0.015625)"/>
       </defs>
       <use xlink:href="#DejaVuSans-2212"/>
       <use xlink:href="#DejaVuSans-34" x="83.789062"/>
       <use xlink:href="#DejaVuSans-30" x="147.412109"/>
       <use xlink:href="#DejaVuSans-30" x="211.035156"/>
       <use xlink:href="#DejaVuSans-30" x="274.658203"/>
      </g>
     </g>
    </g>
    <g id="ytick_3">
     <g id="line2d_8">
      <g>
       <use xlink:href="#mc95ec5a7d8" x="57.6" y="212.392316" style="stroke: #000000; stroke-width: 0.8"/>
      </g>
     </g>
     <g id="text_8">
      <!-- −2000 -->
      <g transform="translate(16.770313 216.191535) scale(0.1 -0.1)">
       <use xlink:href="#DejaVuSans-2212"/>
       <use xlink:href="#DejaVuSans-32" x="83.789062"/>
       <use xlink:href="#DejaVuSans-30" x="147.412109"/>
       <use xlink:href="#DejaVuSans-30" x="211.035156"/>
       <use xlink:href="#DejaVuSans-30" x="274.658203"/>
      </g>
     </g>
    </g>
    <g id="ytick_4">
     <g id="line2d_9">
      <g>
       <use xlink:href="#mc95ec5a7d8" x="57.6" y="179.337569" style="stroke: #000000; stroke-width: 0.8"/>
      </g>
     </g>
     <g id="text_9">
      <!-- 0 -->
      <g transform="translate(44.2375 183.136788) scale(0.1 -0.1)">
       <use xlink:href="#DejaVuSans-30"/>
      </g>
     </g>
    </g>
    <g id="ytick_5">
     <g id="line2d_10">
      <g>
       <use xlink:href="#mc95ec5a7d8" x="57.6" y="146.282821" style="stroke: #000000; stroke-width: 0.8"/>
      </g>
     </g>
     <g id="text_10">
      <!-- 2000 -->
      <g transform="translate(25.15 150.08204) scale(0.1 -0.1)">
       <use xlink:href="#DejaVuSans-32"/>
       <use xlink:href="#DejaVuSans-30" x="63.623047"/>
       <use xlink:href="#DejaVuSans-30" x="127.246094"/>
       <use xlink:href="#DejaVuSans-30" x="190.869141"/>
      </g>
     </g>
    </g>
    <g id="ytick_6">
     <g id="line2d_11">
      <g>
       <use xlink:href="#mc95ec5a7d8" x="57.6" y="113.228074" style="stroke: #000000; stroke-width: 0.8"/>
      </g>
     </g>
     <g id="text_11">
      <!-- 4000 -->
      <g transform="translate(25.15 117.027293) scale(0.1 -0.1)">
       <use xlink:href="#DejaVuSans-34"/>
       <use xlink:href="#DejaVuSans-30" x="63.623047"/>
       <use xlink:href="#DejaVuSans-30" x="127.246094"/>
       <use xlink:href="#DejaVuSans-30" x="190.869141"/>
      </g>
     </g>
    </g>
    <g id="ytick_7">
     <g id="line2d_12">
      <g>
       <use xlink:href="#mc95ec5a7d8" x="57.6" y="80.173327" style="stroke: #000000; stroke-width: 0.8"/>
      </g>
     </g>
     <g id="text_12">
      <!-- 6000 -->
      <g transform="translate(25.15 83.972545) scale(0.1 -0.1)">
       <use xlink:href="#DejaVuSans-36"/>
       <use xlink:href="#DejaVuSans-30" x="63.623047"/>
       <use xlink:href="#DejaVuSans-30" x="127.246094"/>
       <use xlink:href="#DejaVuSans-30" x="190.869141"/>
      </g>
     </g>
    </g>
    <g id="ytick_8">
     <g id="line2d_13">
      <g>
       <use xlink:href="#mc95ec5a7d8" x="57.6" y="47.118579" style="stroke: #000000; stroke-width: 0.8"/>
      </g>
     </g>
     <g id="text_13">
      <!-- 8000 -->
      <g transform="translate(25.15 50.917798) scale(0.1 -0.1)">
       <defs>
        <path id="DejaVuSans-38" d="M 2034 2216 
Q 1584 2216 1326 1975 
Q 1069 1734 1069 1313 
Q 1069 891 1326 650 
Q 1584 409 2034 409 
Q 2484 409 2743 651 
Q 3003 894 3003 1313 
Q 3003 1734 2745 1975 
Q 2488 2216 2034 2216 
z
M 1403 2484 
Q 997 2584 770 2862 
Q 544 3141 544 3541 
Q 544 4100 942 4425 
Q 1341 4750 2034 4750 
Q 2731 4750 3128 4425 
Q 3525 4100 3525 3541 
Q 3525 3141 3298 2862 
Q 3072 2584 2669 2484 
Q 3125 2378 3379 2068 
Q 3634 1759 3634 1313 
Q 3634 634 3220 271 
Q 2806 -91 2034 -91 
Q 1263 -91 848 271 
Q 434 634 434 1313 
Q 434 1759 690 2068 
Q 947 2378 1403 2484 
z
M 1172 3481 
Q 1172 3119 1398 2916 
Q 1625 2713 2034 2713 
Q 2441 2713 2670 2916 
Q 2900 3119 2900 3481 
Q 2900 3844 2670 4047 
Q 2441 4250 2034 4250 
Q 1625 4250 1398 4047 
Q 1172 3844 1172 3481 
z
" transform="scale(0.015625)"/>
       </defs>
       <use xlink:href="#DejaVuSans-38"/>
       <use xlink:href="#DejaVuSans-30" x="63.623047"/>
       <use xlink:href="#DejaVuSans-30" x="127.246094"/>
       <use xlink:href="#DejaVuSans-30" x="190.869141"/>
      </g>
     </g>
    </g>
   </g>
   <g id="line2d_14">
    <path d="M 73.832727 183.931668 
L 75.342748 183.272271 
L 76.85277 179.582154 
L 78.362791 180.115544 
L 79.872812 180.084647 
L 81.382833 178.797526 
L 82.892854 180.282839 
L 84.402875 182.320821 
L 85.912896 178.825789 
L 87.422918 179.917176 
L 88.932939 180.67978 
L 90.44296 179.6917 
L 93.463002 179.778537 
L 94.973023 179.181333 
L 96.483044 180.193794 
L 97.993066 180.941088 
L 99.503087 179.713999 
L 101.013108 178.208763 
L 102.523129 181.139417 
L 104.03315 180.536503 
L 105.543171 178.339045 
L 107.053192 179.515101 
L 108.563214 180.402368 
L 110.073235 179.5418 
L 111.583256 179.812953 
L 113.093277 179.555637 
L 114.603298 179.522111 
L 116.113319 178.687044 
L 117.62334 178.888716 
L 119.133362 180.049983 
L 120.643383 180.183001 
L 122.153404 180.127992 
L 123.663425 179.586401 
L 125.173446 179.350824 
L 128.193488 179.39959 
L 129.70351 179.70811 
L 131.213531 179.45419 
L 134.233573 179.742062 
L 135.743594 179.266165 
L 137.253615 180.66513 
L 138.763636 178.819522 
L 140.273658 179.365204 
L 141.783679 180.43059 
L 143.2937 182.120791 
L 144.803721 179.182383 
L 146.313742 178.72329 
L 147.823763 181.691858 
L 149.333784 181.746886 
L 150.843805 179.104818 
L 152.353827 178.011101 
L 153.863848 182.230319 
L 155.373869 181.901348 
L 156.88389 178.666742 
L 158.393911 181.397664 
L 161.413953 179.737609 
L 162.923975 179.263951 
L 164.433996 180.035441 
L 167.454038 179.464275 
L 168.964059 181.661886 
L 170.47408 179.07308 
L 171.984101 178.709935 
L 173.494123 180.668881 
L 175.004144 179.705539 
L 176.514165 180.190176 
L 178.024186 179.405105 
L 179.534207 181.113889 
L 181.044228 179.804872 
L 182.554249 180.934834 
L 184.064271 180.158829 
L 185.574292 178.42461 
L 187.084313 179.55759 
L 188.594334 179.844109 
L 190.104355 180.016446 
L 191.614376 180.635587 
L 193.124397 180.284087 
L 194.634419 179.612135 
L 196.14444 181.952241 
L 197.654461 178.870275 
L 199.164482 180.34318 
L 200.674503 179.763214 
L 203.694545 178.873663 
L 205.204567 179.817874 
L 206.714588 179.860734 
L 208.224609 179.086299 
L 209.73463 181.538751 
L 211.244651 179.52785 
L 212.754672 180.033286 
L 214.264693 178.178327 
L 215.774715 179.748353 
L 217.284736 180.856242 
L 218.794757 179.207586 
L 220.304778 179.329964 
L 221.814799 179.798013 
L 223.32482 181.654807 
L 224.834841 182.762142 
L 226.344863 178.481442 
L 227.854884 181.876694 
L 230.874926 180.124559 
L 232.384947 186.025352 
L 233.894968 183.960436 
L 235.404989 190.77761 
L 236.915011 172.938321 
L 238.425032 189.05034 
L 239.935053 189.387338 
L 241.445074 174.578909 
L 242.955095 187.51177 
L 244.465116 181.103947 
L 245.975137 181.602799 
L 247.485159 189.143128 
L 248.99518 186.148701 
L 250.505201 173.056197 
L 252.015222 186.973473 
L 253.525243 184.076961 
L 255.035264 185.049852 
L 256.545285 189.555598 
L 258.055307 184.987895 
L 259.565328 178.458981 
L 261.075349 185.541447 
L 262.58537 178.836592 
L 264.095391 186.074574 
L 265.605412 183.295793 
L 267.115433 186.021514 
L 268.625455 188.135567 
L 270.135476 178.822725 
L 271.645497 173.40816 
L 273.155518 175.681931 
L 274.665539 197.77495 
L 276.17556 183.22939 
L 277.685581 178.837177 
L 279.195603 176.662765 
L 280.705624 183.919928 
L 282.215645 185.309772 
L 283.725666 181.745806 
L 285.235687 178.808135 
L 286.745708 185.450298 
L 288.255729 182.189909 
L 289.765751 179.657918 
L 291.275772 181.145709 
L 292.785793 183.728387 
L 294.295814 188.632842 
L 295.805835 177.128755 
L 297.315856 192.350183 
L 298.825877 180.463592 
L 300.335899 182.468134 
L 301.84592 186.382892 
L 303.355941 179.262332 
L 304.865962 183.607848 
L 307.886004 171.68627 
L 309.396025 190.523372 
L 310.906047 181.420843 
L 312.416068 180.099207 
L 313.926089 177.859242 
L 315.43611 186.457494 
L 316.946131 184.416336 
L 318.456152 182.809002 
L 319.966173 182.721327 
L 321.476195 179.41962 
L 322.986216 179.733137 
L 324.496237 178.70934 
L 326.006258 179.625482 
L 327.516279 181.419835 
L 329.0263 180.574199 
L 332.046342 180.366428 
L 333.556364 182.430189 
L 335.066385 180.281127 
L 336.576406 180.545372 
L 338.086427 180.576477 
L 339.596448 180.389963 
L 341.106469 179.934828 
L 342.61649 180.356774 
L 344.126512 180.147258 
L 345.636533 184.322163 
L 347.146554 178.518353 
L 348.656575 179.159816 
L 350.166596 179.608279 
L 351.676617 182.103994 
L 353.186638 180.119638 
L 354.69666 185.214775 
L 356.206681 182.160815 
L 357.716702 180.384618 
L 359.226723 182.222537 
L 360.736744 177.517302 
L 362.246765 180.374723 
L 365.266808 179.112389 
L 366.776829 181.131961 
L 368.28685 179.14605 
L 369.796871 186.317432 
L 371.306892 179.366247 
L 372.816913 180.528139 
L 374.326934 177.677317 
L 375.836956 178.412243 
L 377.346977 179.859141 
L 378.856998 179.355686 
L 380.367019 180.600608 
L 381.87704 179.583073 
L 383.387061 181.299637 
L 384.897082 182.740599 
L 386.407104 177.313358 
L 387.917125 184.790743 
L 389.427146 183.671571 
L 390.937167 182.228218 
L 392.447188 179.377423 
L 393.957209 179.396582 
L 395.46723 186.653859 
L 396.977252 181.532001 
L 398.487273 177.86874 
L 398.487273 177.86874 
" clip-path="url(#p3d48b3db6e)" style="fill: none; stroke: #008000; stroke-opacity: 0.8; stroke-width: 0.5; stroke-linecap: square"/>
   </g>
   <g id="line2d_15">
    <path d="M 73.832727 163.767312 
L 75.342748 166.392885 
L 78.362791 165.81941 
L 79.872812 165.187108 
L 81.382833 168.346243 
L 82.892854 168.855887 
L 84.402875 173.328297 
L 85.912896 162.469084 
L 87.422918 175.014779 
L 88.932939 171.345836 
L 91.952981 175.589269 
L 93.463002 168.093937 
L 94.973023 168.966842 
L 96.483044 177.366364 
L 97.993066 172.849366 
L 99.503087 172.451011 
L 101.013108 172.673357 
L 102.523129 174.681014 
L 104.03315 176.178206 
L 105.543171 169.190463 
L 107.053192 175.392289 
L 108.563214 177.475043 
L 110.073235 178.826646 
L 111.583256 174.344315 
L 113.093277 178.584178 
L 114.603298 176.867568 
L 116.113319 169.277169 
L 117.62334 167.13623 
L 119.133362 175.331913 
L 120.643383 177.228782 
L 122.153404 173.89932 
L 123.663425 176.323091 
L 125.173446 173.419937 
L 126.683467 177.117313 
L 128.193488 177.700492 
L 129.70351 178.562359 
L 131.213531 173.284518 
L 132.723552 177.939065 
L 134.233573 178.667012 
L 135.743594 178.178076 
L 137.253615 177.007052 
L 138.763636 174.064698 
L 140.273658 174.778474 
L 141.783679 178.104824 
L 143.2937 172.288357 
L 144.803721 169.590388 
L 146.313742 170.125308 
L 147.823763 175.115073 
L 149.333784 173.975436 
L 150.843805 142.450456 
L 152.353827 162.512772 
L 153.863848 157.237609 
L 155.373869 174.336308 
L 156.88389 169.841565 
L 158.393911 168.538612 
L 159.903932 172.783832 
L 161.413953 175.745706 
L 162.923975 177.040631 
L 164.433996 163.432128 
L 165.944017 174.286007 
L 167.454038 176.619561 
L 168.964059 170.763078 
L 170.47408 172.305853 
L 171.984101 175.197001 
L 173.494123 174.968024 
L 175.004144 176.90155 
L 176.514165 176.131526 
L 178.024186 176.230888 
L 179.534207 175.065004 
L 181.044228 175.067521 
L 182.554249 174.93857 
L 184.064271 176.105774 
L 185.574292 169.212401 
L 187.084313 173.430912 
L 188.594334 166.58128 
L 190.104355 132.051912 
L 191.614376 174.206716 
L 193.124397 176.562196 
L 194.634419 171.630459 
L 196.14444 174.280109 
L 197.654461 173.23737 
L 199.164482 168.451735 
L 200.674503 172.784269 
L 202.184524 168.364047 
L 203.694545 169.630473 
L 205.204567 173.777365 
L 206.714588 176.718115 
L 208.224609 176.61628 
L 209.73463 174.962981 
L 211.244651 165.384035 
L 212.754672 171.166638 
L 214.264693 172.24387 
L 215.774715 161.121514 
L 217.284736 175.83095 
L 218.794757 171.567201 
L 220.304778 175.644057 
L 221.814799 175.692105 
L 223.32482 177.637153 
L 224.834841 172.060989 
L 226.344863 164.182018 
L 227.854884 170.02685 
L 229.364905 151.758123 
L 230.874926 165.163339 
L 232.384947 165.541935 
L 233.894968 153.040285 
L 235.404989 143.492369 
L 236.915011 106.438809 
L 238.425032 147.3254 
L 239.935053 147.432203 
L 241.445074 87.753004 
L 242.955095 135.877291 
L 244.465116 117.884376 
L 245.975137 136.211892 
L 247.485159 146.003644 
L 248.99518 148.640516 
L 250.505201 121.280355 
L 252.015222 116.034032 
L 253.525243 53.568 
L 255.035264 105.736115 
L 256.545285 143.723851 
L 258.055307 138.159269 
L 259.565328 119.356655 
L 261.075349 128.326462 
L 262.58537 153.147289 
L 264.095391 164.424393 
L 265.605412 146.553201 
L 267.115433 155.984295 
L 268.625455 157.910744 
L 270.135476 139.697069 
L 271.645497 76.593416 
L 273.155518 107.899118 
L 274.665539 134.151816 
L 276.17556 138.897557 
L 277.685581 106.602167 
L 279.195603 124.522969 
L 280.705624 132.602839 
L 282.215645 129.185729 
L 283.725666 122.483651 
L 285.235687 135.971937 
L 286.745708 123.566396 
L 288.255729 130.60429 
L 289.765751 150.993881 
L 291.275772 152.204631 
L 292.785793 123.549516 
L 294.295814 150.377018 
L 295.805835 120.429514 
L 297.315856 157.721839 
L 298.825877 122.835325 
L 300.335899 163.383122 
L 301.84592 166.681702 
L 303.355941 145.358826 
L 304.865962 142.545183 
L 306.375983 138.946014 
L 307.886004 127.633727 
L 309.396025 152.239237 
L 310.906047 159.928906 
L 312.416068 142.075798 
L 313.926089 127.616953 
L 315.43611 171.471242 
L 316.946131 175.421326 
L 318.456152 165.402005 
L 319.966173 161.016655 
L 321.476195 174.644803 
L 322.986216 167.497251 
L 324.496237 144.846652 
L 326.006258 165.140036 
L 327.516279 142.807225 
L 329.0263 166.891841 
L 330.536321 174.11098 
L 332.046342 175.736361 
L 333.556364 175.413393 
L 335.066385 168.689074 
L 336.576406 146.823271 
L 338.086427 173.40529 
L 339.596448 174.716092 
L 341.106469 170.874389 
L 342.61649 168.474183 
L 344.126512 176.413497 
L 345.636533 178.658944 
L 347.146554 169.271371 
L 348.656575 160.881894 
L 350.166596 161.295478 
L 351.676617 166.982437 
L 353.186638 160.497316 
L 354.69666 162.476341 
L 356.206681 162.675522 
L 357.716702 161.375043 
L 359.226723 174.831367 
L 360.736744 151.614405 
L 362.246765 158.71915 
L 363.756786 168.99149 
L 365.266808 164.470794 
L 366.776829 169.985666 
L 368.28685 157.217582 
L 369.796871 167.173622 
L 372.816913 170.494371 
L 374.326934 159.758402 
L 375.836956 163.842792 
L 377.346977 173.844945 
L 378.856998 151.507182 
L 380.367019 154.079856 
L 381.87704 168.789784 
L 383.387061 168.638841 
L 384.897082 174.443121 
L 386.407104 169.8388 
L 387.917125 175.226029 
L 389.427146 166.359828 
L 390.937167 167.406318 
L 392.447188 148.599654 
L 393.957209 148.342691 
L 395.46723 163.449146 
L 396.977252 136.457259 
L 398.487273 159.804044 
L 398.487273 159.804044 
" clip-path="url(#p3d48b3db6e)" style="fill: none; stroke: #32cd32; stroke-opacity: 0.8; stroke-width: 0.5; stroke-linecap: square"/>
   </g>
   <g id="line2d_16">
    <path d="M 73.832727 210.880889 
L 75.342748 196.60481 
L 76.85277 193.974666 
L 78.362791 196.548596 
L 79.872812 187.688762 
L 81.382833 186.82133 
L 82.892854 186.542372 
L 84.402875 195.150088 
L 87.422918 187.887939 
L 88.932939 187.687927 
L 90.44296 187.063893 
L 91.952981 181.801826 
L 93.463002 188.295058 
L 94.973023 186.251452 
L 96.483044 183.634435 
L 97.993066 188.377324 
L 99.503087 190.08491 
L 101.013108 184.134449 
L 102.523129 189.013192 
L 104.03315 183.382701 
L 105.543171 181.973392 
L 107.053192 182.908523 
L 108.563214 182.849708 
L 110.073235 181.265018 
L 111.583256 184.463576 
L 113.093277 180.204673 
L 114.603298 180.585032 
L 116.113319 182.37751 
L 117.62334 187.559311 
L 119.133362 188.239228 
L 120.643383 182.599662 
L 122.153404 185.556734 
L 123.663425 185.295545 
L 125.173446 183.365409 
L 126.683467 180.629418 
L 128.193488 180.592264 
L 129.70351 184.146038 
L 132.723552 182.398195 
L 134.233573 180.772734 
L 135.743594 180.124774 
L 137.253615 191.045942 
L 138.763636 180.993712 
L 140.273658 182.257694 
L 141.783679 183.670523 
L 143.2937 192.295638 
L 144.803721 195.316926 
L 146.313742 188.759388 
L 147.823763 187.331922 
L 149.333784 188.430881 
L 150.843805 200.597675 
L 152.353827 196.937559 
L 153.863848 202.789831 
L 155.373869 188.215664 
L 156.88389 191.174337 
L 158.393911 194.630312 
L 159.903932 188.82907 
L 161.413953 183.954306 
L 162.923975 182.213743 
L 164.433996 189.110863 
L 165.944017 185.635934 
L 167.454038 183.880738 
L 168.964059 201.197339 
L 170.47408 185.192903 
L 171.984101 182.922419 
L 173.494123 186.434275 
L 175.004144 183.510353 
L 176.514165 194.082976 
L 178.024186 185.169028 
L 179.534207 186.992059 
L 181.044228 190.528075 
L 182.554249 186.783581 
L 185.574292 188.808271 
L 187.084313 185.598102 
L 188.594334 186.135416 
L 190.104355 205.961631 
L 191.614376 192.24395 
L 193.124397 187.341821 
L 194.634419 188.914159 
L 196.14444 194.981801 
L 197.654461 188.952334 
L 199.164482 188.338499 
L 200.674503 186.352672 
L 202.184524 190.931458 
L 203.694545 184.464154 
L 205.204567 185.479353 
L 206.714588 184.629733 
L 208.224609 180.571473 
L 209.73463 196.152936 
L 211.244651 187.45253 
L 212.754672 185.130266 
L 214.264693 183.22661 
L 215.774715 197.998749 
L 217.284736 185.909559 
L 218.794757 190.427103 
L 220.304778 182.091824 
L 221.814799 183.231454 
L 224.834841 202.284696 
L 226.344863 196.176663 
L 227.854884 192.759953 
L 229.364905 199.938189 
L 230.874926 194.825933 
L 232.384947 208.982613 
L 233.894968 218.101443 
L 235.404989 267.976127 
L 236.915011 251.870456 
L 238.425032 241.32295 
L 239.935053 295.488 
L 241.445074 243.918682 
L 242.955095 265.91896 
L 244.465116 230.710186 
L 245.975137 238.268341 
L 247.485159 255.878424 
L 248.99518 241.802552 
L 250.505201 217.886656 
L 252.015222 280.549835 
L 253.525243 271.229078 
L 255.035264 293.10915 
L 256.545285 218.835128 
L 258.055307 254.002661 
L 259.565328 220.115249 
L 261.075349 224.682874 
L 262.58537 205.55141 
L 264.095391 233.846122 
L 265.605412 213.553593 
L 267.115433 221.71945 
L 268.625455 244.577114 
L 270.135476 221.574563 
L 271.645497 209.109842 
L 273.155518 217.871315 
L 274.665539 270.117403 
L 276.17556 231.899755 
L 277.685581 240.133573 
L 279.195603 233.480359 
L 280.705624 241.230121 
L 282.215645 229.948191 
L 283.725666 228.650926 
L 285.235687 242.252342 
L 286.745708 230.119571 
L 288.255729 216.240747 
L 289.765751 208.644739 
L 291.275772 200.037835 
L 292.785793 234.70085 
L 294.295814 254.640402 
L 295.805835 211.641521 
L 297.315856 277.608876 
L 298.825877 235.05604 
L 300.335899 218.704657 
L 301.84592 215.409786 
L 303.355941 212.476244 
L 304.865962 210.032235 
L 306.375983 206.008665 
L 307.886004 216.664943 
L 309.396025 234.348157 
L 310.906047 198.989802 
L 312.416068 217.718116 
L 313.926089 223.236178 
L 315.43611 221.197764 
L 316.946131 198.540848 
L 318.456152 208.297759 
L 319.966173 212.756062 
L 321.476195 193.286964 
L 322.986216 192.73237 
L 324.496237 202.918933 
L 326.006258 196.631999 
L 327.516279 215.122122 
L 329.0263 199.609746 
L 332.046342 183.9076 
L 333.556364 192.181364 
L 335.066385 195.827006 
L 336.576406 246.554551 
L 338.086427 193.627412 
L 339.596448 192.03713 
L 341.106469 188.669723 
L 342.61649 191.43049 
L 344.126512 182.660436 
L 345.636533 192.112767 
L 347.146554 203.143131 
L 348.656575 189.341317 
L 350.166596 191.444522 
L 351.676617 212.289558 
L 353.186638 190.587639 
L 354.69666 207.389759 
L 356.206681 217.57839 
L 357.716702 198.076868 
L 360.736744 202.249265 
L 362.246765 196.79081 
L 363.756786 190.35131 
L 365.266808 186.660051 
L 368.28685 212.768436 
L 369.796871 204.612935 
L 371.306892 188.52523 
L 372.816913 197.452553 
L 374.326934 185.338879 
L 375.836956 187.522453 
L 377.346977 188.808253 
L 378.856998 196.033969 
L 380.367019 206.962896 
L 381.87704 188.468791 
L 383.387061 195.869102 
L 384.897082 196.268198 
L 386.407104 188.576841 
L 387.917125 200.607498 
L 389.427146 229.149252 
L 390.937167 195.505109 
L 392.447188 230.595249 
L 393.957209 218.748365 
L 395.46723 209.421756 
L 396.977252 211.185499 
L 398.487273 199.791036 
L 398.487273 199.791036 
" clip-path="url(#p3d48b3db6e)" style="fill: none; stroke: #32cd32; stroke-opacity: 0.8; stroke-width: 0.5; stroke-linecap: square"/>
   </g>
   <g id="line2d_17">
    <path d="M 73.832727 181.103297 
L 75.342748 179.383318 
L 76.85277 177.962606 
L 78.362791 176.785472 
L 79.872812 178.073349 
L 81.382833 177.304121 
L 82.892854 179.338519 
L 84.402875 180.271175 
L 85.912896 177.735548 
L 87.422918 177.922776 
L 88.932939 178.925798 
L 90.44296 178.087287 
L 91.952981 179.296469 
L 93.463002 178.993859 
L 94.973023 178.809626 
L 96.483044 179.281441 
L 97.993066 179.155871 
L 99.503087 178.457551 
L 101.013108 176.904224 
L 102.523129 179.997033 
L 104.03315 179.867434 
L 105.543171 177.566843 
L 107.053192 179.125445 
L 108.563214 179.702254 
L 110.073235 179.002491 
L 114.603298 179.314132 
L 116.113319 177.9531 
L 117.62334 177.694413 
L 119.133362 179.138069 
L 120.643383 179.249636 
L 122.153404 178.899899 
L 123.663425 179.359288 
L 125.173446 178.990508 
L 126.683467 179.340879 
L 128.193488 179.179319 
L 129.70351 179.503481 
L 131.213531 178.942115 
L 132.723552 179.596635 
L 134.233573 179.432317 
L 135.743594 178.996892 
L 137.253615 179.69744 
L 138.763636 178.685929 
L 140.273658 179.007835 
L 143.2937 180.20179 
L 144.803721 178.015578 
L 146.313742 177.316687 
L 147.823763 180.468609 
L 149.333784 178.907791 
L 150.843805 175.510567 
L 152.353827 175.503894 
L 153.863848 178.395529 
L 155.373869 179.430784 
L 156.88389 176.934313 
L 158.393911 178.640302 
L 159.903932 179.060166 
L 161.413953 178.184739 
L 162.923975 178.530944 
L 164.433996 177.806383 
L 165.944017 179.055084 
L 167.454038 178.9819 
L 168.964059 180.923187 
L 170.47408 178.504334 
L 171.984101 178.403587 
L 173.494123 179.063153 
L 175.004144 179.085858 
L 176.514165 179.539767 
L 178.024186 179.072531 
L 179.534207 179.832028 
L 181.044228 178.838149 
L 182.554249 179.206521 
L 184.064271 179.352661 
L 185.574292 177.799716 
L 187.084313 177.910714 
L 188.594334 178.260745 
L 190.104355 177.169946 
L 191.614376 178.8329 
L 193.124397 179.622507 
L 194.634419 178.812566 
L 196.14444 180.57316 
L 197.654461 177.754055 
L 199.164482 177.828241 
L 202.184524 179.002096 
L 203.694545 178.411343 
L 205.204567 178.651264 
L 206.714588 179.635128 
L 208.224609 178.857269 
L 209.73463 180.354591 
L 211.244651 178.152881 
L 212.754672 179.442717 
L 214.264693 177.474234 
L 215.774715 177.63109 
L 217.284736 179.906625 
L 218.794757 178.53861 
L 220.304778 178.873036 
L 221.814799 178.979282 
L 223.32482 179.521076 
L 224.834841 181.479105 
L 226.344863 175.923888 
L 227.854884 179.138619 
L 229.364905 176.840112 
L 230.874926 178.630763 
L 232.384947 180.731226 
L 233.894968 178.044759 
L 235.404989 178.221178 
L 236.915011 168.280914 
L 238.425032 185.21886 
L 239.935053 177.890372 
L 241.445074 166.225181 
L 242.955095 181.170867 
L 244.465116 173.215494 
L 245.975137 171.548355 
L 247.485159 185.259269 
L 248.99518 181.758492 
L 250.505201 159.265644 
L 252.015222 183.615996 
L 253.525243 176.795503 
L 255.035264 173.302949 
L 256.545285 178.924454 
L 258.055307 179.770107 
L 259.565328 170.61035 
L 261.075349 174.37746 
L 262.58537 175.244555 
L 264.095391 181.172575 
L 265.605412 173.791302 
L 267.115433 176.947279 
L 268.625455 179.48936 
L 270.135476 175.714517 
L 271.645497 167.483299 
L 273.155518 169.194481 
L 274.665539 192.875965 
L 276.17556 171.013477 
L 277.685581 171.68432 
L 279.195603 172.780765 
L 280.705624 175.232102 
L 282.215645 172.136323 
L 283.725666 170.144227 
L 285.235687 165.375298 
L 286.745708 181.476494 
L 288.255729 175.513287 
L 289.765751 173.118731 
L 291.275772 177.554808 
L 292.785793 176.764593 
L 294.295814 179.757879 
L 295.805835 170.086327 
L 297.315856 186.87557 
L 298.825877 169.260437 
L 300.335899 180.200077 
L 301.84592 180.623613 
L 303.355941 172.86001 
L 304.865962 179.030723 
L 306.375983 174.72922 
L 307.886004 167.381242 
L 309.396025 181.206242 
L 310.906047 178.586938 
L 312.416068 176.571013 
L 313.926089 165.745283 
L 315.43611 182.669164 
L 316.946131 180.559929 
L 318.456152 179.872219 
L 319.966173 178.842804 
L 321.476195 177.150665 
L 322.986216 177.717347 
L 324.496237 175.857271 
L 326.006258 178.272486 
L 327.516279 178.307877 
L 329.0263 179.376766 
L 330.536321 178.547458 
L 332.046342 178.901594 
L 333.556364 180.67952 
L 335.066385 178.420959 
L 336.576406 174.671244 
L 338.086427 178.288227 
L 339.596448 179.204633 
L 341.106469 178.906242 
L 344.126512 179.473817 
L 345.636533 181.79199 
L 347.146554 175.451222 
L 348.656575 177.715309 
L 350.166596 176.751926 
L 351.676617 179.075236 
L 353.186638 176.957622 
L 354.69666 177.284803 
L 356.206681 176.954995 
L 359.226723 179.016454 
L 360.736744 174.991168 
L 362.246765 179.287223 
L 363.756786 176.572885 
L 365.266808 177.451588 
L 366.776829 179.181402 
L 368.28685 178.720839 
L 369.796871 180.148288 
L 371.306892 176.79094 
L 372.816913 178.854188 
L 374.326934 176.790114 
L 375.836956 177.870968 
L 377.346977 179.475037 
L 378.856998 174.945621 
L 380.367019 177.317369 
L 381.87704 178.457674 
L 383.387061 180.053356 
L 384.897082 181.152725 
L 386.407104 176.083879 
L 387.917125 181.125749 
L 389.427146 178.652387 
L 390.937167 179.667037 
L 392.447188 178.081923 
L 393.957209 178.043455 
L 395.46723 179.038259 
L 396.977252 177.982961 
L 398.487273 174.373909 
L 398.487273 174.373909 
" clip-path="url(#p3d48b3db6e)" style="fill: none; stroke: #ff0000; stroke-opacity: 0.8; stroke-width: 0.5; stroke-linecap: square"/>
   </g>
   <g id="line2d_18">
    <path d="M 73.832727 161.91667 
L 75.342748 161.233698 
L 76.85277 163.510495 
L 78.362791 163.96559 
L 79.872812 165.660419 
L 81.382833 168.127287 
L 82.892854 164.327243 
L 84.402875 170.412842 
L 85.912896 159.56027 
L 87.422918 173.46166 
L 88.932939 169.598898 
L 91.952981 175.186394 
L 93.463002 167.396751 
L 94.973023 168.686186 
L 96.483044 175.901326 
L 97.993066 172.077348 
L 99.503087 167.011965 
L 101.013108 171.979487 
L 104.03315 176.01047 
L 105.543171 169.003386 
L 107.053192 175.37507 
L 108.563214 176.343217 
L 110.073235 176.895484 
L 111.583256 173.997086 
L 113.093277 178.112432 
L 114.603298 176.756431 
L 116.113319 169.17736 
L 117.62334 167.082027 
L 119.133362 173.151375 
L 120.643383 175.887861 
L 122.153404 171.915861 
L 123.663425 176.257641 
L 125.173446 173.291951 
L 126.683467 176.815967 
L 129.70351 178.300439 
L 131.213531 172.412757 
L 132.723552 177.935592 
L 134.233573 178.379554 
L 135.743594 177.921583 
L 137.253615 174.476988 
L 138.763636 174.076956 
L 140.273658 174.775211 
L 141.783679 176.819793 
L 143.2937 166.983006 
L 144.803721 169.508225 
L 146.313742 169.009795 
L 147.823763 173.997899 
L 149.333784 171.21698 
L 150.843805 132.466114 
L 152.353827 159.621149 
L 153.863848 156.395993 
L 155.373869 172.130947 
L 156.88389 166.585031 
L 158.393911 167.204372 
L 159.903932 171.886359 
L 161.413953 173.240925 
L 162.923975 176.087366 
L 164.433996 161.765118 
L 165.944017 173.580075 
L 167.454038 175.903634 
L 168.964059 170.788595 
L 170.47408 171.871419 
L 171.984101 174.466405 
L 173.494123 173.908994 
L 175.004144 176.157518 
L 176.514165 174.979109 
L 178.024186 174.623981 
L 179.534207 171.734694 
L 181.044228 174.213734 
L 182.554249 172.349137 
L 184.064271 174.116894 
L 185.574292 170.167612 
L 187.084313 171.479641 
L 188.594334 166.50735 
L 190.104355 130.927678 
L 191.614376 171.652367 
L 193.124397 174.976177 
L 194.634419 171.417086 
L 196.14444 173.883709 
L 197.654461 169.700843 
L 199.164482 164.760395 
L 200.674503 171.859289 
L 202.184524 165.074139 
L 205.204567 173.408014 
L 206.714588 176.085306 
L 208.224609 176.264063 
L 209.73463 167.191111 
L 211.244651 162.411545 
L 212.754672 169.996651 
L 214.264693 171.673715 
L 215.774715 160.173168 
L 217.284736 175.207329 
L 218.794757 171.227639 
L 220.304778 174.198564 
L 221.814799 174.587622 
L 223.32482 173.130793 
L 224.834841 169.297733 
L 226.344863 160.973425 
L 227.854884 167.875763 
L 229.364905 150.284576 
L 230.874926 164.041269 
L 232.384947 160.925546 
L 233.894968 148.979513 
L 235.404989 134.167867 
L 236.915011 98.825317 
L 238.425032 143.661381 
L 239.935053 124.79766 
L 241.445074 87.315236 
L 242.955095 136.384471 
L 244.465116 110.42693 
L 245.975137 129.489611 
L 247.485159 143.695267 
L 248.99518 143.985751 
L 250.505201 109.870753 
L 252.015222 112.430124 
L 253.525243 60.009752 
L 255.035264 91.135387 
L 256.545285 136.196222 
L 258.055307 120.231064 
L 259.565328 113.846731 
L 261.075349 112.839689 
L 262.58537 143.315713 
L 264.095391 160.056499 
L 265.605412 140.800893 
L 267.115433 138.679385 
L 268.625455 134.669404 
L 270.135476 142.06654 
L 271.645497 68.238789 
L 273.155518 107.494124 
L 274.665539 142.643634 
L 276.17556 101.993785 
L 277.685581 90.38298 
L 279.195603 123.728064 
L 280.705624 119.596504 
L 282.215645 120.443266 
L 283.725666 117.71692 
L 285.235687 116.129425 
L 286.745708 120.573933 
L 288.255729 126.395027 
L 289.765751 141.628559 
L 291.275772 139.31734 
L 292.785793 114.078136 
L 294.295814 140.76836 
L 295.805835 121.232648 
L 297.315856 152.120304 
L 298.825877 104.86674 
L 300.335899 156.044179 
L 301.84592 164.207668 
L 303.355941 140.64627 
L 304.865962 137.259082 
L 306.375983 139.127994 
L 307.886004 124.188666 
L 309.396025 138.792612 
L 310.906047 149.945222 
L 312.416068 134.745775 
L 313.926089 112.757235 
L 315.43611 167.779958 
L 316.946131 169.903687 
L 319.966173 157.172419 
L 321.476195 167.565543 
L 322.986216 161.665319 
L 324.496237 142.304989 
L 326.006258 164.085146 
L 327.516279 137.774984 
L 329.0263 164.240213 
L 330.536321 165.743885 
L 332.046342 172.797228 
L 333.556364 171.769629 
L 335.066385 162.780645 
L 336.576406 136.045175 
L 338.086427 171.391243 
L 339.596448 168.147617 
L 341.106469 169.085972 
L 342.61649 168.092762 
L 344.126512 175.302731 
L 345.636533 177.531932 
L 347.146554 160.350005 
L 348.656575 159.050794 
L 350.166596 160.235413 
L 351.676617 147.369706 
L 353.186638 160.894493 
L 354.69666 154.811808 
L 356.206681 151.339907 
L 357.716702 160.562067 
L 359.226723 165.467919 
L 360.736744 152.122789 
L 363.756786 164.257203 
L 365.266808 160.713559 
L 366.776829 163.400879 
L 369.796871 151.188982 
L 371.306892 164.631854 
L 372.816913 168.69567 
L 374.326934 155.141466 
L 375.836956 163.056968 
L 377.346977 169.98611 
L 378.856998 147.215268 
L 380.367019 154.500414 
L 381.87704 168.240994 
L 383.387061 168.094023 
L 384.897082 170.875973 
L 386.407104 163.900795 
L 387.917125 163.924163 
L 389.427146 158.744066 
L 390.937167 164.516522 
L 392.447188 146.201966 
L 393.957209 147.555712 
L 396.977252 132.84148 
L 398.487273 161.27485 
L 398.487273 161.27485 
" clip-path="url(#p3d48b3db6e)" style="fill: none; stroke: #f08080; stroke-opacity: 0.8; stroke-width: 0.5; stroke-linecap: square"/>
   </g>
   <g id="line2d_19">
    <path d="M 73.832727 200.685543 
L 75.342748 194.708726 
L 76.85277 191.627841 
L 78.362791 193.699331 
L 79.872812 186.705874 
L 81.382833 183.977118 
L 82.892854 185.075234 
L 84.402875 192.925305 
L 85.912896 190.299285 
L 87.422918 186.871506 
L 88.932939 184.498321 
L 90.44296 186.175338 
L 91.952981 181.790251 
L 93.463002 186.292316 
L 94.973023 185.269769 
L 96.483044 182.527877 
L 97.993066 185.063892 
L 99.503087 188.752114 
L 101.013108 181.898239 
L 102.523129 186.388826 
L 104.03315 182.9201 
L 105.543171 181.205385 
L 107.053192 182.190568 
L 108.563214 182.726154 
L 110.073235 180.844548 
L 111.583256 184.655725 
L 113.093277 180.018387 
L 114.603298 180.543189 
L 116.113319 180.014493 
L 117.62334 184.743813 
L 119.133362 187.391741 
L 120.643383 182.052868 
L 122.153404 184.094949 
L 123.663425 184.5299 
L 125.173446 183.147434 
L 126.683467 180.569476 
L 128.193488 180.260971 
L 129.70351 183.946161 
L 132.723552 181.902098 
L 134.233573 180.341074 
L 135.743594 179.92365 
L 137.253615 190.870794 
L 138.763636 180.764291 
L 140.273658 182.140451 
L 141.783679 182.383193 
L 143.2937 191.723338 
L 144.803721 195.028991 
L 146.313742 188.238776 
L 147.823763 185.344298 
L 149.333784 185.860886 
L 150.843805 199.135768 
L 152.353827 189.23611 
L 153.863848 197.375978 
L 155.373869 186.633421 
L 156.88389 189.751987 
L 159.903932 187.745929 
L 161.413953 183.778586 
L 162.923975 180.617508 
L 164.433996 184.405227 
L 165.944017 185.438424 
L 167.454038 183.191428 
L 168.964059 199.264928 
L 170.47408 184.594395 
L 171.984101 181.519458 
L 173.494123 184.947142 
L 175.004144 183.154393 
L 176.514165 190.874459 
L 178.024186 184.854507 
L 179.534207 186.208452 
L 181.044228 189.819946 
L 182.554249 183.619441 
L 184.064271 186.939675 
L 185.574292 187.357068 
L 187.084313 183.249888 
L 188.594334 185.182778 
L 190.104355 194.954605 
L 193.124397 186.729565 
L 194.634419 187.805288 
L 196.14444 194.534235 
L 197.654461 187.656338 
L 199.164482 186.632445 
L 200.674503 184.856445 
L 202.184524 190.823871 
L 203.694545 182.117143 
L 205.204567 184.876463 
L 206.714588 184.419409 
L 208.224609 179.840589 
L 209.73463 194.238134 
L 211.244651 187.716756 
L 212.754672 184.292068 
L 214.264693 181.831842 
L 215.774715 185.787561 
L 217.284736 185.575043 
L 218.794757 187.749993 
L 220.304778 181.705417 
L 221.814799 183.791397 
L 223.32482 191.177375 
L 224.834841 200.849311 
L 226.344863 190.369665 
L 227.854884 191.242346 
L 229.364905 198.607584 
L 230.874926 191.180636 
L 232.384947 208.13995 
L 233.894968 215.772036 
L 235.404989 242.294947 
L 236.915011 229.348888 
L 238.425032 232.16554 
L 239.935053 292.516367 
L 241.445074 235.751432 
L 242.955095 257.978168 
L 244.465116 229.981511 
L 245.975137 216.33321 
L 247.485159 244.438931 
L 248.99518 235.739671 
L 250.505201 190.810518 
L 252.015222 272.231594 
L 253.525243 263.643339 
L 255.035264 267.801882 
L 256.545285 207.360821 
L 258.055307 246.483563 
L 259.565328 208.475409 
L 261.075349 224.348398 
L 262.58537 199.614379 
L 264.095391 221.501225 
L 265.605412 206.631578 
L 267.115433 212.391189 
L 268.625455 234.541885 
L 270.135476 212.31417 
L 271.645497 204.226377 
L 273.155518 214.670721 
L 274.665539 233.188797 
L 276.17556 216.08728 
L 277.685581 238.917221 
L 279.195603 216.618132 
L 280.705624 237.254818 
L 282.215645 210.628655 
L 283.725666 226.780756 
L 285.235687 212.055266 
L 286.745708 222.051709 
L 288.255729 213.807676 
L 289.765751 202.23526 
L 291.275772 196.442988 
L 292.785793 210.831602 
L 294.295814 255.088995 
L 295.805835 211.001024 
L 297.315856 276.214247 
L 298.825877 230.819776 
L 300.335899 212.455525 
L 301.84592 210.930561 
L 303.355941 194.581324 
L 304.865962 203.782316 
L 306.375983 198.896318 
L 307.886004 211.368707 
L 309.396025 209.372785 
L 310.906047 196.482644 
L 312.416068 210.264288 
L 313.926089 193.413469 
L 315.43611 213.435481 
L 316.946131 194.530018 
L 318.456152 207.474257 
L 319.966173 209.56771 
L 321.476195 192.41499 
L 322.986216 192.502824 
L 324.496237 193.742093 
L 326.006258 191.595504 
L 327.516279 214.116575 
L 329.0263 195.285717 
L 330.536321 190.375092 
L 332.046342 183.214797 
L 333.556364 191.480614 
L 335.066385 195.473799 
L 336.576406 212.470904 
L 338.086427 187.157179 
L 339.596448 191.437264 
L 341.106469 188.143426 
L 342.61649 188.032606 
L 344.126512 182.119801 
L 345.636533 188.684138 
L 347.146554 201.205771 
L 348.656575 189.471465 
L 350.166596 188.415886 
L 351.676617 211.420193 
L 353.186638 187.440089 
L 354.69666 204.492405 
L 356.206681 210.921479 
L 357.716702 195.952715 
L 359.226723 198.486879 
L 360.736744 196.727591 
L 362.246765 193.134909 
L 363.756786 190.807843 
L 365.266808 186.291662 
L 366.776829 196.648857 
L 368.28685 204.573452 
L 369.796871 200.146214 
L 371.306892 186.528293 
L 372.816913 196.800318 
L 374.326934 185.268062 
L 375.836956 187.431409 
L 377.346977 188.034244 
L 378.856998 183.889281 
L 380.367019 205.754677 
L 381.87704 187.607625 
L 384.897082 195.555378 
L 386.407104 187.805093 
L 387.917125 199.394663 
L 389.427146 226.637933 
L 390.937167 192.370124 
L 392.447188 219.892924 
L 393.957209 205.39199 
L 395.46723 203.996487 
L 396.977252 205.288349 
L 398.487273 193.609796 
L 398.487273 193.609796 
" clip-path="url(#p3d48b3db6e)" style="fill: none; stroke: #f08080; stroke-opacity: 0.8; stroke-width: 0.5; stroke-linecap: square"/>
   </g>
   <g id="patch_3">
    <path d="M 57.6 307.584 
L 57.6 41.472 
" style="fill: none; stroke: #000000; stroke-width: 0.8; stroke-linejoin: miter; stroke-linecap: square"/>
   </g>
   <g id="patch_4">
    <path d="M 414.72 307.584 
L 414.72 41.472 
" style="fill: none; stroke: #000000; stroke-width: 0.8; stroke-linejoin: miter; stroke-linecap: square"/>
   </g>
   <g id="patch_5">
    <path d="M 57.6 307.584 
L 414.72 307.584 
" style="fill: none; stroke: #000000; stroke-width: 0.8; stroke-linejoin: miter; stroke-linecap: square"/>
   </g>
   <g id="patch_6">
    <path d="M 57.6 41.472 
L 414.72 41.472 
" style="fill: none; stroke: #000000; stroke-width: 0.8; stroke-linejoin: miter; stroke-linecap: square"/>
   </g>
   <g id="text_14">
    <!-- zhang_extended_20_btcusd -->
    <g transform="translate(152.792812 35.472) scale(0.12 -0.12)">
     <defs>
      <path id="DejaVuSans-7a" d="M 353 3500 
L 3084 3500 
L 3084 2975 
L 922 459 
L 3084 459 
L 3084 0 
L 275 0 
L 275 525 
L 2438 3041 
L 353 3041 
L 353 3500 
z
" transform="scale(0.015625)"/>
      <path id="DejaVuSans-68" d="M 3513 2113 
L 3513 0 
L 2938 0 
L 2938 2094 
Q 2938 2591 2744 2837 
Q 2550 3084 2163 3084 
Q 1697 3084 1428 2787 
Q 1159 2491 1159 1978 
L 1159 0 
L 581 0 
L 581 4863 
L 1159 4863 
L 1159 2956 
Q 1366 3272 1645 3428 
Q 1925 3584 2291 3584 
Q 2894 3584 3203 3211 
Q 3513 2838 3513 2113 
z
" transform="scale(0.015625)"/>
      <path id="DejaVuSans-61" d="M 2194 1759 
Q 1497 1759 1228 1600 
Q 959 1441 959 1056 
Q 959 750 1161 570 
Q 1363 391 1709 391 
Q 2188 391 2477 730 
Q 2766 1069 2766 1631 
L 2766 1759 
L 2194 1759 
z
M 3341 1997 
L 3341 0 
L 2766 0 
L 2766 531 
Q 2569 213 2275 61 
Q 1981 -91 1556 -91 
Q 1019 -91 701 211 
Q 384 513 384 1019 
Q 384 1609 779 1909 
Q 1175 2209 1959 2209 
L 2766 2209 
L 2766 2266 
Q 2766 2663 2505 2880 
Q 2244 3097 1772 3097 
Q 1472 3097 1187 3025 
Q 903 2953 641 2809 
L 641 3341 
Q 956 3463 1253 3523 
Q 1550 3584 1831 3584 
Q 2591 3584 2966 3190 
Q 3341 2797 3341 1997 
z
" transform="scale(0.015625)"/>
      <path id="DejaVuSans-6e" d="M 3513 2113 
L 3513 0 
L 2938 0 
L 2938 2094 
Q 2938 2591 2744 2837 
Q 2550 3084 2163 3084 
Q 1697 3084 1428 2787 
Q 1159 2491 1159 1978 
L 1159 0 
L 581 0 
L 581 3500 
L 1159 3500 
L 1159 2956 
Q 1366 3272 1645 3428 
Q 1925 3584 2291 3584 
Q 2894 3584 3203 3211 
Q 3513 2838 3513 2113 
z
" transform="scale(0.015625)"/>
      <path id="DejaVuSans-67" d="M 2906 1791 
Q 2906 2416 2648 2759 
Q 2391 3103 1925 3103 
Q 1463 3103 1205 2759 
Q 947 2416 947 1791 
Q 947 1169 1205 825 
Q 1463 481 1925 481 
Q 2391 481 2648 825 
Q 2906 1169 2906 1791 
z
M 3481 434 
Q 3481 -459 3084 -895 
Q 2688 -1331 1869 -1331 
Q 1566 -1331 1297 -1286 
Q 1028 -1241 775 -1147 
L 775 -588 
Q 1028 -725 1275 -790 
Q 1522 -856 1778 -856 
Q 2344 -856 2625 -561 
Q 2906 -266 2906 331 
L 2906 616 
Q 2728 306 2450 153 
Q 2172 0 1784 0 
Q 1141 0 747 490 
Q 353 981 353 1791 
Q 353 2603 747 3093 
Q 1141 3584 1784 3584 
Q 2172 3584 2450 3431 
Q 2728 3278 2906 2969 
L 2906 3500 
L 3481 3500 
L 3481 434 
z
" transform="scale(0.015625)"/>
      <path id="DejaVuSans-5f" d="M 3263 -1063 
L 3263 -1509 
L -63 -1509 
L -63 -1063 
L 3263 -1063 
z
" transform="scale(0.015625)"/>
      <path id="DejaVuSans-65" d="M 3597 1894 
L 3597 1613 
L 953 1613 
Q 991 1019 1311 708 
Q 1631 397 2203 397 
Q 2534 397 2845 478 
Q 3156 559 3463 722 
L 3463 178 
Q 3153 47 2828 -22 
Q 2503 -91 2169 -91 
Q 1331 -91 842 396 
Q 353 884 353 1716 
Q 353 2575 817 3079 
Q 1281 3584 2069 3584 
Q 2775 3584 3186 3129 
Q 3597 2675 3597 1894 
z
M 3022 2063 
Q 3016 2534 2758 2815 
Q 2500 3097 2075 3097 
Q 1594 3097 1305 2825 
Q 1016 2553 972 2059 
L 3022 2063 
z
" transform="scale(0.015625)"/>
      <path id="DejaVuSans-78" d="M 3513 3500 
L 2247 1797 
L 3578 0 
L 2900 0 
L 1881 1375 
L 863 0 
L 184 0 
L 1544 1831 
L 300 3500 
L 978 3500 
L 1906 2253 
L 2834 3500 
L 3513 3500 
z
" transform="scale(0.015625)"/>
      <path id="DejaVuSans-74" d="M 1172 4494 
L 1172 3500 
L 2356 3500 
L 2356 3053 
L 1172 3053 
L 1172 1153 
Q 1172 725 1289 603 
Q 1406 481 1766 481 
L 2356 481 
L 2356 0 
L 1766 0 
Q 1100 0 847 248 
Q 594 497 594 1153 
L 594 3053 
L 172 3053 
L 172 3500 
L 594 3500 
L 594 4494 
L 1172 4494 
z
" transform="scale(0.015625)"/>
      <path id="DejaVuSans-64" d="M 2906 2969 
L 2906 4863 
L 3481 4863 
L 3481 0 
L 2906 0 
L 2906 525 
Q 2725 213 2448 61 
Q 2172 -91 1784 -91 
Q 1150 -91 751 415 
Q 353 922 353 1747 
Q 353 2572 751 3078 
Q 1150 3584 1784 3584 
Q 2172 3584 2448 3432 
Q 2725 3281 2906 2969 
z
M 947 1747 
Q 947 1113 1208 752 
Q 1469 391 1925 391 
Q 2381 391 2643 752 
Q 2906 1113 2906 1747 
Q 2906 2381 2643 2742 
Q 2381 3103 1925 3103 
Q 1469 3103 1208 2742 
Q 947 2381 947 1747 
z
" transform="scale(0.015625)"/>
      <path id="DejaVuSans-62" d="M 3116 1747 
Q 3116 2381 2855 2742 
Q 2594 3103 2138 3103 
Q 1681 3103 1420 2742 
Q 1159 2381 1159 1747 
Q 1159 1113 1420 752 
Q 1681 391 2138 391 
Q 2594 391 2855 752 
Q 3116 1113 3116 1747 
z
M 1159 2969 
Q 1341 3281 1617 3432 
Q 1894 3584 2278 3584 
Q 2916 3584 3314 3078 
Q 3713 2572 3713 1747 
Q 3713 922 3314 415 
Q 2916 -91 2278 -91 
Q 1894 -91 1617 61 
Q 1341 213 1159 525 
L 1159 0 
L 581 0 
L 581 4863 
L 1159 4863 
L 1159 2969 
z
" transform="scale(0.015625)"/>
      <path id="DejaVuSans-63" d="M 3122 3366 
L 3122 2828 
Q 2878 2963 2633 3030 
Q 2388 3097 2138 3097 
Q 1578 3097 1268 2742 
Q 959 2388 959 1747 
Q 959 1106 1268 751 
Q 1578 397 2138 397 
Q 2388 397 2633 464 
Q 2878 531 3122 666 
L 3122 134 
Q 2881 22 2623 -34 
Q 2366 -91 2075 -91 
Q 1284 -91 818 406 
Q 353 903 353 1747 
Q 353 2603 823 3093 
Q 1294 3584 2113 3584 
Q 2378 3584 2631 3529 
Q 2884 3475 3122 3366 
z
" transform="scale(0.015625)"/>
      <path id="DejaVuSans-75" d="M 544 1381 
L 544 3500 
L 1119 3500 
L 1119 1403 
Q 1119 906 1312 657 
Q 1506 409 1894 409 
Q 2359 409 2629 706 
Q 2900 1003 2900 1516 
L 2900 3500 
L 3475 3500 
L 3475 0 
L 2900 0 
L 2900 538 
Q 2691 219 2414 64 
Q 2138 -91 1772 -91 
Q 1169 -91 856 284 
Q 544 659 544 1381 
z
M 1991 3584 
L 1991 3584 
z
" transform="scale(0.015625)"/>
      <path id="DejaVuSans-73" d="M 2834 3397 
L 2834 2853 
Q 2591 2978 2328 3040 
Q 2066 3103 1784 3103 
Q 1356 3103 1142 2972 
Q 928 2841 928 2578 
Q 928 2378 1081 2264 
Q 1234 2150 1697 2047 
L 1894 2003 
Q 2506 1872 2764 1633 
Q 3022 1394 3022 966 
Q 3022 478 2636 193 
Q 2250 -91 1575 -91 
Q 1294 -91 989 -36 
Q 684 19 347 128 
L 347 722 
Q 666 556 975 473 
Q 1284 391 1588 391 
Q 1994 391 2212 530 
Q 2431 669 2431 922 
Q 2431 1156 2273 1281 
Q 2116 1406 1581 1522 
L 1381 1569 
Q 847 1681 609 1914 
Q 372 2147 372 2553 
Q 372 3047 722 3315 
Q 1072 3584 1716 3584 
Q 2034 3584 2315 3537 
Q 2597 3491 2834 3397 
z
" transform="scale(0.015625)"/>
     </defs>
     <use xlink:href="#DejaVuSans-7a"/>
     <use xlink:href="#DejaVuSans-68" x="52.490234"/>
     <use xlink:href="#DejaVuSans-61" x="115.869141"/>
     <use xlink:href="#DejaVuSans-6e" x="177.148438"/>
     <use xlink:href="#DejaVuSans-67" x="240.527344"/>
     <use xlink:href="#DejaVuSans-5f" x="304.003906"/>
     <use xlink:href="#DejaVuSans-65" x="354.003906"/>
     <use xlink:href="#DejaVuSans-78" x="413.777344"/>
     <use xlink:href="#DejaVuSans-74" x="472.957031"/>
     <use xlink:href="#DejaVuSans-65" x="512.166016"/>
     <use xlink:href="#DejaVuSans-6e" x="573.689453"/>
     <use xlink:href="#DejaVuSans-64" x="637.068359"/>
     <use xlink:href="#DejaVuSans-65" x="700.544922"/>
     <use xlink:href="#DejaVuSans-64" x="762.068359"/>
     <use xlink:href="#DejaVuSans-5f" x="825.544922"/>
     <use xlink:href="#DejaVuSans-32" x="875.544922"/>
     <use xlink:href="#DejaVuSans-30" x="939.167969"/>
     <use xlink:href="#DejaVuSans-5f" x="1002.791016"/>
     <use xlink:href="#DejaVuSans-62" x="1052.791016"/>
     <use xlink:href="#DejaVuSans-74" x="1116.267578"/>
     <use xlink:href="#DejaVuSans-63" x="1155.476562"/>
     <use xlink:href="#DejaVuSans-75" x="1210.457031"/>
     <use xlink:href="#DejaVuSans-73" x="1273.835938"/>
     <use xlink:href="#DejaVuSans-64" x="1325.935547"/>
    </g>
   </g>
   <g id="legend_1">
    <g id="patch_7">
     <path d="M 64.6 302.584 
L 225.001563 302.584 
Q 227.001563 302.584 227.001563 300.584 
L 227.001563 213.51525 
Q 227.001563 211.51525 225.001563 211.51525 
L 64.6 211.51525 
Q 62.6 211.51525 62.6 213.51525 
L 62.6 300.584 
Q 62.6 302.584 64.6 302.584 
z
" style="fill: #ffffff; opacity: 0.8; stroke: #cccccc; stroke-linejoin: miter"/>
    </g>
    <g id="line2d_20">
     <path d="M 66.6 219.613687 
L 76.6 219.613687 
L 86.6 219.613687 
" style="fill: none; stroke: #008000; stroke-opacity: 0.8; stroke-width: 0.5; stroke-linecap: square"/>
    </g>
    <g id="text_15">
     <!-- Positive predictions -->
     <g transform="translate(94.6 223.113687) scale(0.1 -0.1)">
      <defs>
       <path id="DejaVuSans-50" d="M 1259 4147 
L 1259 2394 
L 2053 2394 
Q 2494 2394 2734 2622 
Q 2975 2850 2975 3272 
Q 2975 3691 2734 3919 
Q 2494 4147 2053 4147 
L 1259 4147 
z
M 628 4666 
L 2053 4666 
Q 2838 4666 3239 4311 
Q 3641 3956 3641 3272 
Q 3641 2581 3239 2228 
Q 2838 1875 2053 1875 
L 1259 1875 
L 1259 0 
L 628 0 
L 628 4666 
z
" transform="scale(0.015625)"/>
       <path id="DejaVuSans-6f" d="M 1959 3097 
Q 1497 3097 1228 2736 
Q 959 2375 959 1747 
Q 959 1119 1226 758 
Q 1494 397 1959 397 
Q 2419 397 2687 759 
Q 2956 1122 2956 1747 
Q 2956 2369 2687 2733 
Q 2419 3097 1959 3097 
z
M 1959 3584 
Q 2709 3584 3137 3096 
Q 3566 2609 3566 1747 
Q 3566 888 3137 398 
Q 2709 -91 1959 -91 
Q 1206 -91 779 398 
Q 353 888 353 1747 
Q 353 2609 779 3096 
Q 1206 3584 1959 3584 
z
" transform="scale(0.015625)"/>
       <path id="DejaVuSans-69" d="M 603 3500 
L 1178 3500 
L 1178 0 
L 603 0 
L 603 3500 
z
M 603 4863 
L 1178 4863 
L 1178 4134 
L 603 4134 
L 603 4863 
z
" transform="scale(0.015625)"/>
       <path id="DejaVuSans-76" d="M 191 3500 
L 800 3500 
L 1894 563 
L 2988 3500 
L 3597 3500 
L 2284 0 
L 1503 0 
L 191 3500 
z
" transform="scale(0.015625)"/>
       <path id="DejaVuSans-20" transform="scale(0.015625)"/>
       <path id="DejaVuSans-70" d="M 1159 525 
L 1159 -1331 
L 581 -1331 
L 581 3500 
L 1159 3500 
L 1159 2969 
Q 1341 3281 1617 3432 
Q 1894 3584 2278 3584 
Q 2916 3584 3314 3078 
Q 3713 2572 3713 1747 
Q 3713 922 3314 415 
Q 2916 -91 2278 -91 
Q 1894 -91 1617 61 
Q 1341 213 1159 525 
z
M 3116 1747 
Q 3116 2381 2855 2742 
Q 2594 3103 2138 3103 
Q 1681 3103 1420 2742 
Q 1159 2381 1159 1747 
Q 1159 1113 1420 752 
Q 1681 391 2138 391 
Q 2594 391 2855 752 
Q 3116 1113 3116 1747 
z
" transform="scale(0.015625)"/>
       <path id="DejaVuSans-72" d="M 2631 2963 
Q 2534 3019 2420 3045 
Q 2306 3072 2169 3072 
Q 1681 3072 1420 2755 
Q 1159 2438 1159 1844 
L 1159 0 
L 581 0 
L 581 3500 
L 1159 3500 
L 1159 2956 
Q 1341 3275 1631 3429 
Q 1922 3584 2338 3584 
Q 2397 3584 2469 3576 
Q 2541 3569 2628 3553 
L 2631 2963 
z
" transform="scale(0.015625)"/>
      </defs>
      <use xlink:href="#DejaVuSans-50"/>
      <use xlink:href="#DejaVuSans-6f" x="56.677734"/>
      <use xlink:href="#DejaVuSans-73" x="117.859375"/>
      <use xlink:href="#DejaVuSans-69" x="169.958984"/>
      <use xlink:href="#DejaVuSans-74" x="197.742188"/>
      <use xlink:href="#DejaVuSans-69" x="236.951172"/>
      <use xlink:href="#DejaVuSans-76" x="264.734375"/>
      <use xlink:href="#DejaVuSans-65" x="323.914062"/>
      <use xlink:href="#DejaVuSans-20" x="385.4375"/>
      <use xlink:href="#DejaVuSans-70" x="417.224609"/>
      <use xlink:href="#DejaVuSans-72" x="480.701172"/>
      <use xlink:href="#DejaVuSans-65" x="519.564453"/>
      <use xlink:href="#DejaVuSans-64" x="581.087891"/>
      <use xlink:href="#DejaVuSans-69" x="644.564453"/>
      <use xlink:href="#DejaVuSans-63" x="672.347656"/>
      <use xlink:href="#DejaVuSans-74" x="727.328125"/>
      <use xlink:href="#DejaVuSans-69" x="766.537109"/>
      <use xlink:href="#DejaVuSans-6f" x="794.320312"/>
      <use xlink:href="#DejaVuSans-6e" x="855.501953"/>
      <use xlink:href="#DejaVuSans-73" x="918.880859"/>
     </g>
    </g>
    <g id="line2d_21">
     <path d="M 66.6 234.291812 
L 76.6 234.291812 
L 86.6 234.291812 
" style="fill: none; stroke: #32cd32; stroke-opacity: 0.8; stroke-width: 0.5; stroke-linecap: square"/>
    </g>
    <g id="text_16">
     <!-- Positive predictions max -->
     <g transform="translate(94.6 237.791812) scale(0.1 -0.1)">
      <defs>
       <path id="DejaVuSans-6d" d="M 3328 2828 
Q 3544 3216 3844 3400 
Q 4144 3584 4550 3584 
Q 5097 3584 5394 3201 
Q 5691 2819 5691 2113 
L 5691 0 
L 5113 0 
L 5113 2094 
Q 5113 2597 4934 2840 
Q 4756 3084 4391 3084 
Q 3944 3084 3684 2787 
Q 3425 2491 3425 1978 
L 3425 0 
L 2847 0 
L 2847 2094 
Q 2847 2600 2669 2842 
Q 2491 3084 2119 3084 
Q 1678 3084 1418 2786 
Q 1159 2488 1159 1978 
L 1159 0 
L 581 0 
L 581 3500 
L 1159 3500 
L 1159 2956 
Q 1356 3278 1631 3431 
Q 1906 3584 2284 3584 
Q 2666 3584 2933 3390 
Q 3200 3197 3328 2828 
z
" transform="scale(0.015625)"/>
      </defs>
      <use xlink:href="#DejaVuSans-50"/>
      <use xlink:href="#DejaVuSans-6f" x="56.677734"/>
      <use xlink:href="#DejaVuSans-73" x="117.859375"/>
      <use xlink:href="#DejaVuSans-69" x="169.958984"/>
      <use xlink:href="#DejaVuSans-74" x="197.742188"/>
      <use xlink:href="#DejaVuSans-69" x="236.951172"/>
      <use xlink:href="#DejaVuSans-76" x="264.734375"/>
      <use xlink:href="#DejaVuSans-65" x="323.914062"/>
      <use xlink:href="#DejaVuSans-20" x="385.4375"/>
      <use xlink:href="#DejaVuSans-70" x="417.224609"/>
      <use xlink:href="#DejaVuSans-72" x="480.701172"/>
      <use xlink:href="#DejaVuSans-65" x="519.564453"/>
      <use xlink:href="#DejaVuSans-64" x="581.087891"/>
      <use xlink:href="#DejaVuSans-69" x="644.564453"/>
      <use xlink:href="#DejaVuSans-63" x="672.347656"/>
      <use xlink:href="#DejaVuSans-74" x="727.328125"/>
      <use xlink:href="#DejaVuSans-69" x="766.537109"/>
      <use xlink:href="#DejaVuSans-6f" x="794.320312"/>
      <use xlink:href="#DejaVuSans-6e" x="855.501953"/>
      <use xlink:href="#DejaVuSans-73" x="918.880859"/>
      <use xlink:href="#DejaVuSans-20" x="970.980469"/>
      <use xlink:href="#DejaVuSans-6d" x="1002.767578"/>
      <use xlink:href="#DejaVuSans-61" x="1100.179688"/>
      <use xlink:href="#DejaVuSans-78" x="1161.458984"/>
     </g>
    </g>
    <g id="line2d_22">
     <path d="M 66.6 248.969937 
L 76.6 248.969937 
L 86.6 248.969937 
" style="fill: none; stroke: #32cd32; stroke-opacity: 0.8; stroke-width: 0.5; stroke-linecap: square"/>
    </g>
    <g id="text_17">
     <!-- Positive predictions min -->
     <g transform="translate(94.6 252.469937) scale(0.1 -0.1)">
      <use xlink:href="#DejaVuSans-50"/>
      <use xlink:href="#DejaVuSans-6f" x="56.677734"/>
      <use xlink:href="#DejaVuSans-73" x="117.859375"/>
      <use xlink:href="#DejaVuSans-69" x="169.958984"/>
      <use xlink:href="#DejaVuSans-74" x="197.742188"/>
      <use xlink:href="#DejaVuSans-69" x="236.951172"/>
      <use xlink:href="#DejaVuSans-76" x="264.734375"/>
      <use xlink:href="#DejaVuSans-65" x="323.914062"/>
      <use xlink:href="#DejaVuSans-20" x="385.4375"/>
      <use xlink:href="#DejaVuSans-70" x="417.224609"/>
      <use xlink:href="#DejaVuSans-72" x="480.701172"/>
      <use xlink:href="#DejaVuSans-65" x="519.564453"/>
      <use xlink:href="#DejaVuSans-64" x="581.087891"/>
      <use xlink:href="#DejaVuSans-69" x="644.564453"/>
      <use xlink:href="#DejaVuSans-63" x="672.347656"/>
      <use xlink:href="#DejaVuSans-74" x="727.328125"/>
      <use xlink:href="#DejaVuSans-69" x="766.537109"/>
      <use xlink:href="#DejaVuSans-6f" x="794.320312"/>
      <use xlink:href="#DejaVuSans-6e" x="855.501953"/>
      <use xlink:href="#DejaVuSans-73" x="918.880859"/>
      <use xlink:href="#DejaVuSans-20" x="970.980469"/>
      <use xlink:href="#DejaVuSans-6d" x="1002.767578"/>
      <use xlink:href="#DejaVuSans-69" x="1100.179688"/>
      <use xlink:href="#DejaVuSans-6e" x="1127.962891"/>
     </g>
    </g>
    <g id="line2d_23">
     <path d="M 66.6 263.648062 
L 76.6 263.648062 
L 86.6 263.648062 
" style="fill: none; stroke: #ff0000; stroke-opacity: 0.8; stroke-width: 0.5; stroke-linecap: square"/>
    </g>
    <g id="text_18">
     <!-- Negative predictions -->
     <g transform="translate(94.6 267.148062) scale(0.1 -0.1)">
      <defs>
       <path id="DejaVuSans-4e" d="M 628 4666 
L 1478 4666 
L 3547 763 
L 3547 4666 
L 4159 4666 
L 4159 0 
L 3309 0 
L 1241 3903 
L 1241 0 
L 628 0 
L 628 4666 
z
" transform="scale(0.015625)"/>
      </defs>
      <use xlink:href="#DejaVuSans-4e"/>
      <use xlink:href="#DejaVuSans-65" x="74.804688"/>
      <use xlink:href="#DejaVuSans-67" x="136.328125"/>
      <use xlink:href="#DejaVuSans-61" x="199.804688"/>
      <use xlink:href="#DejaVuSans-74" x="261.083984"/>
      <use xlink:href="#DejaVuSans-69" x="300.292969"/>
      <use xlink:href="#DejaVuSans-76" x="328.076172"/>
      <use xlink:href="#DejaVuSans-65" x="387.255859"/>
      <use xlink:href="#DejaVuSans-20" x="448.779297"/>
      <use xlink:href="#DejaVuSans-70" x="480.566406"/>
      <use xlink:href="#DejaVuSans-72" x="544.042969"/>
      <use xlink:href="#DejaVuSans-65" x="582.90625"/>
      <use xlink:href="#DejaVuSans-64" x="644.429688"/>
      <use xlink:href="#DejaVuSans-69" x="707.90625"/>
      <use xlink:href="#DejaVuSans-63" x="735.689453"/>
      <use xlink:href="#DejaVuSans-74" x="790.669922"/>
      <use xlink:href="#DejaVuSans-69" x="829.878906"/>
      <use xlink:href="#DejaVuSans-6f" x="857.662109"/>
      <use xlink:href="#DejaVuSans-6e" x="918.84375"/>
      <use xlink:href="#DejaVuSans-73" x="982.222656"/>
     </g>
    </g>
    <g id="line2d_24">
     <path d="M 66.6 278.326188 
L 76.6 278.326188 
L 86.6 278.326188 
" style="fill: none; stroke: #f08080; stroke-opacity: 0.8; stroke-width: 0.5; stroke-linecap: square"/>
    </g>
    <g id="text_19">
     <!-- Negative predictions max -->
     <g transform="translate(94.6 281.826188) scale(0.1 -0.1)">
      <use xlink:href="#DejaVuSans-4e"/>
      <use xlink:href="#DejaVuSans-65" x="74.804688"/>
      <use xlink:href="#DejaVuSans-67" x="136.328125"/>
      <use xlink:href="#DejaVuSans-61" x="199.804688"/>
      <use xlink:href="#DejaVuSans-74" x="261.083984"/>
      <use xlink:href="#DejaVuSans-69" x="300.292969"/>
      <use xlink:href="#DejaVuSans-76" x="328.076172"/>
      <use xlink:href="#DejaVuSans-65" x="387.255859"/>
      <use xlink:href="#DejaVuSans-20" x="448.779297"/>
      <use xlink:href="#DejaVuSans-70" x="480.566406"/>
      <use xlink:href="#DejaVuSans-72" x="544.042969"/>
      <use xlink:href="#DejaVuSans-65" x="582.90625"/>
      <use xlink:href="#DejaVuSans-64" x="644.429688"/>
      <use xlink:href="#DejaVuSans-69" x="707.90625"/>
      <use xlink:href="#DejaVuSans-63" x="735.689453"/>
      <use xlink:href="#DejaVuSans-74" x="790.669922"/>
      <use xlink:href="#DejaVuSans-69" x="829.878906"/>
      <use xlink:href="#DejaVuSans-6f" x="857.662109"/>
      <use xlink:href="#DejaVuSans-6e" x="918.84375"/>
      <use xlink:href="#DejaVuSans-73" x="982.222656"/>
      <use xlink:href="#DejaVuSans-20" x="1034.322266"/>
      <use xlink:href="#DejaVuSans-6d" x="1066.109375"/>
      <use xlink:href="#DejaVuSans-61" x="1163.521484"/>
      <use xlink:href="#DejaVuSans-78" x="1224.800781"/>
     </g>
    </g>
    <g id="line2d_25">
     <path d="M 66.6 293.004312 
L 76.6 293.004312 
L 86.6 293.004312 
" style="fill: none; stroke: #f08080; stroke-opacity: 0.8; stroke-width: 0.5; stroke-linecap: square"/>
    </g>
    <g id="text_20">
     <!-- Negative predictions min -->
     <g transform="translate(94.6 296.504312) scale(0.1 -0.1)">
      <use xlink:href="#DejaVuSans-4e"/>
      <use xlink:href="#DejaVuSans-65" x="74.804688"/>
      <use xlink:href="#DejaVuSans-67" x="136.328125"/>
      <use xlink:href="#DejaVuSans-61" x="199.804688"/>
      <use xlink:href="#DejaVuSans-74" x="261.083984"/>
      <use xlink:href="#DejaVuSans-69" x="300.292969"/>
      <use xlink:href="#DejaVuSans-76" x="328.076172"/>
      <use xlink:href="#DejaVuSans-65" x="387.255859"/>
      <use xlink:href="#DejaVuSans-20" x="448.779297"/>
      <use xlink:href="#DejaVuSans-70" x="480.566406"/>
      <use xlink:href="#DejaVuSans-72" x="544.042969"/>
      <use xlink:href="#DejaVuSans-65" x="582.90625"/>
      <use xlink:href="#DejaVuSans-64" x="644.429688"/>
      <use xlink:href="#DejaVuSans-69" x="707.90625"/>
      <use xlink:href="#DejaVuSans-63" x="735.689453"/>
      <use xlink:href="#DejaVuSans-74" x="790.669922"/>
      <use xlink:href="#DejaVuSans-69" x="829.878906"/>
      <use xlink:href="#DejaVuSans-6f" x="857.662109"/>
      <use xlink:href="#DejaVuSans-6e" x="918.84375"/>
      <use xlink:href="#DejaVuSans-73" x="982.222656"/>
      <use xlink:href="#DejaVuSans-20" x="1034.322266"/>
      <use xlink:href="#DejaVuSans-6d" x="1066.109375"/>
      <use xlink:href="#DejaVuSans-69" x="1163.521484"/>
      <use xlink:href="#DejaVuSans-6e" x="1191.304688"/>
     </g>
    </g>
   </g>
  </g>
 </g>
 <defs>
  <clipPath id="p3d48b3db6e">
   <rect x="57.6" y="41.472" width="357.12" height="266.112"/>
  </clipPath>
 </defs>
</svg>
