<?xml version="1.0" encoding="utf-8" standalone="no"?>
<!DOCTYPE svg PUBLIC "-//W3C//DTD SVG 1.1//EN"
  "http://www.w3.org/Graphics/SVG/1.1/DTD/svg11.dtd">
<svg xmlns:xlink="http://www.w3.org/1999/xlink" width="460.8pt" height="345.6pt" viewBox="0 0 460.8 345.6" xmlns="http://www.w3.org/2000/svg" version="1.1">
 <metadata>
  <rdf:RDF xmlns:dc="http://purl.org/dc/elements/1.1/" xmlns:cc="http://creativecommons.org/ns#" xmlns:rdf="http://www.w3.org/1999/02/22-rdf-syntax-ns#">
   <cc:Work>
    <dc:type rdf:resource="http://purl.org/dc/dcmitype/StillImage"/>
    <dc:date>2024-07-09T08:21:26.660405</dc:date>
    <dc:format>image/svg+xml</dc:format>
    <dc:creator>
     <cc:Agent>
      <dc:title>Matplotlib v3.9.0, https://matplotlib.org/</dc:title>
     </cc:Agent>
    </dc:creator>
   </cc:Work>
  </rdf:RDF>
 </metadata>
 <defs>
  <style type="text/css">*{stroke-linejoin: round; stroke-linecap: butt}</style>
 </defs>
 <g id="figure_1">
  <g id="patch_1">
   <path d="M 0 345.6 
L 460.8 345.6 
L 460.8 0 
L 0 0 
z
" style="fill: #ffffff"/>
  </g>
  <g id="axes_1">
   <g id="patch_2">
    <path d="M 57.6 307.584 
L 414.72 307.584 
L 414.72 41.472 
L 57.6 41.472 
z
" style="fill: #ffffff"/>
   </g>
   <g id="matplotlib.axis_1">
    <g id="xtick_1">
     <g id="line2d_1">
      <defs>
       <path id="m77363cf993" d="M 0 0 
L 0 3.5 
" style="stroke: #000000; stroke-width: 0.8"/>
      </defs>
      <g>
       <use xlink:href="#m77363cf993" x="73.832727" y="307.584" style="stroke: #000000; stroke-width: 0.8"/>
      </g>
     </g>
     <g id="text_1">
      <!-- 0 -->
      <g transform="translate(70.651477 322.182437) scale(0.1 -0.1)">
       <defs>
        <path id="DejaVuSans-30" d="M 2034 4250 
Q 1547 4250 1301 3770 
Q 1056 3291 1056 2328 
Q 1056 1369 1301 889 
Q 1547 409 2034 409 
Q 2525 409 2770 889 
Q 3016 1369 3016 2328 
Q 3016 3291 2770 3770 
Q 2525 4250 2034 4250 
z
M 2034 4750 
Q 2819 4750 3233 4129 
Q 3647 3509 3647 2328 
Q 3647 1150 3233 529 
Q 2819 -91 2034 -91 
Q 1250 -91 836 529 
Q 422 1150 422 2328 
Q 422 3509 836 4129 
Q 1250 4750 2034 4750 
z
" transform="scale(0.015625)"/>
       </defs>
       <use xlink:href="#DejaVuSans-30"/>
      </g>
     </g>
    </g>
    <g id="xtick_2">
     <g id="line2d_2">
      <g>
       <use xlink:href="#m77363cf993" x="149.333784" y="307.584" style="stroke: #000000; stroke-width: 0.8"/>
      </g>
     </g>
     <g id="text_2">
      <!-- 50 -->
      <g transform="translate(142.971284 322.182437) scale(0.1 -0.1)">
       <defs>
        <path id="DejaVuSans-35" d="M 691 4666 
L 3169 4666 
L 3169 4134 
L 1269 4134 
L 1269 2991 
Q 1406 3038 1543 3061 
Q 1681 3084 1819 3084 
Q 2600 3084 3056 2656 
Q 3513 2228 3513 1497 
Q 3513 744 3044 326 
Q 2575 -91 1722 -91 
Q 1428 -91 1123 -41 
Q 819 9 494 109 
L 494 744 
Q 775 591 1075 516 
Q 1375 441 1709 441 
Q 2250 441 2565 725 
Q 2881 1009 2881 1497 
Q 2881 1984 2565 2268 
Q 2250 2553 1709 2553 
Q 1456 2553 1204 2497 
Q 953 2441 691 2322 
L 691 4666 
z
" transform="scale(0.015625)"/>
       </defs>
       <use xlink:href="#DejaVuSans-35"/>
       <use xlink:href="#DejaVuSans-30" x="63.623047"/>
      </g>
     </g>
    </g>
    <g id="xtick_3">
     <g id="line2d_3">
      <g>
       <use xlink:href="#m77363cf993" x="224.834841" y="307.584" style="stroke: #000000; stroke-width: 0.8"/>
      </g>
     </g>
     <g id="text_3">
      <!-- 100 -->
      <g transform="translate(215.291091 322.182437) scale(0.1 -0.1)">
       <defs>
        <path id="DejaVuSans-31" d="M 794 531 
L 1825 531 
L 1825 4091 
L 703 3866 
L 703 4441 
L 1819 4666 
L 2450 4666 
L 2450 531 
L 3481 531 
L 3481 0 
L 794 0 
L 794 531 
z
" transform="scale(0.015625)"/>
       </defs>
       <use xlink:href="#DejaVuSans-31"/>
       <use xlink:href="#DejaVuSans-30" x="63.623047"/>
       <use xlink:href="#DejaVuSans-30" x="127.246094"/>
      </g>
     </g>
    </g>
    <g id="xtick_4">
     <g id="line2d_4">
      <g>
       <use xlink:href="#m77363cf993" x="300.335899" y="307.584" style="stroke: #000000; stroke-width: 0.8"/>
      </g>
     </g>
     <g id="text_4">
      <!-- 150 -->
      <g transform="translate(290.792149 322.182437) scale(0.1 -0.1)">
       <use xlink:href="#DejaVuSans-31"/>
       <use xlink:href="#DejaVuSans-35" x="63.623047"/>
       <use xlink:href="#DejaVuSans-30" x="127.246094"/>
      </g>
     </g>
    </g>
    <g id="xtick_5">
     <g id="line2d_5">
      <g>
       <use xlink:href="#m77363cf993" x="375.836956" y="307.584" style="stroke: #000000; stroke-width: 0.8"/>
      </g>
     </g>
     <g id="text_5">
      <!-- 200 -->
      <g transform="translate(366.293206 322.182437) scale(0.1 -0.1)">
       <defs>
        <path id="DejaVuSans-32" d="M 1228 531 
L 3431 531 
L 3431 0 
L 469 0 
L 469 531 
Q 828 903 1448 1529 
Q 2069 2156 2228 2338 
Q 2531 2678 2651 2914 
Q 2772 3150 2772 3378 
Q 2772 3750 2511 3984 
Q 2250 4219 1831 4219 
Q 1534 4219 1204 4116 
Q 875 4013 500 3803 
L 500 4441 
Q 881 4594 1212 4672 
Q 1544 4750 1819 4750 
Q 2544 4750 2975 4387 
Q 3406 4025 3406 3419 
Q 3406 3131 3298 2873 
Q 3191 2616 2906 2266 
Q 2828 2175 2409 1742 
Q 1991 1309 1228 531 
z
" transform="scale(0.015625)"/>
       </defs>
       <use xlink:href="#DejaVuSans-32"/>
       <use xlink:href="#DejaVuSans-30" x="63.623047"/>
       <use xlink:href="#DejaVuSans-30" x="127.246094"/>
      </g>
     </g>
    </g>
   </g>
   <g id="matplotlib.axis_2">
    <g id="ytick_1">
     <g id="line2d_6">
      <defs>
       <path id="ma3a7c3fe98" d="M 0 0 
L -3.5 0 
" style="stroke: #000000; stroke-width: 0.8"/>
      </defs>
      <g>
       <use xlink:href="#ma3a7c3fe98" x="57.6" y="294.632711" style="stroke: #000000; stroke-width: 0.8"/>
      </g>
     </g>
     <g id="text_6">
      <!-- 5000 -->
      <g transform="translate(25.15 298.43193) scale(0.1 -0.1)">
       <use xlink:href="#DejaVuSans-35"/>
       <use xlink:href="#DejaVuSans-30" x="63.623047"/>
       <use xlink:href="#DejaVuSans-30" x="127.246094"/>
       <use xlink:href="#DejaVuSans-30" x="190.869141"/>
      </g>
     </g>
    </g>
    <g id="ytick_2">
     <g id="line2d_7">
      <g>
       <use xlink:href="#ma3a7c3fe98" x="57.6" y="262.955351" style="stroke: #000000; stroke-width: 0.8"/>
      </g>
     </g>
     <g id="text_7">
      <!-- 5500 -->
      <g transform="translate(25.15 266.75457) scale(0.1 -0.1)">
       <use xlink:href="#DejaVuSans-35"/>
       <use xlink:href="#DejaVuSans-35" x="63.623047"/>
       <use xlink:href="#DejaVuSans-30" x="127.246094"/>
       <use xlink:href="#DejaVuSans-30" x="190.869141"/>
      </g>
     </g>
    </g>
    <g id="ytick_3">
     <g id="line2d_8">
      <g>
       <use xlink:href="#ma3a7c3fe98" x="57.6" y="231.277991" style="stroke: #000000; stroke-width: 0.8"/>
      </g>
     </g>
     <g id="text_8">
      <!-- 6000 -->
      <g transform="translate(25.15 235.07721) scale(0.1 -0.1)">
       <defs>
        <path id="DejaVuSans-36" d="M 2113 2584 
Q 1688 2584 1439 2293 
Q 1191 2003 1191 1497 
Q 1191 994 1439 701 
Q 1688 409 2113 409 
Q 2538 409 2786 701 
Q 3034 994 3034 1497 
Q 3034 2003 2786 2293 
Q 2538 2584 2113 2584 
z
M 3366 4563 
L 3366 3988 
Q 3128 4100 2886 4159 
Q 2644 4219 2406 4219 
Q 1781 4219 1451 3797 
Q 1122 3375 1075 2522 
Q 1259 2794 1537 2939 
Q 1816 3084 2150 3084 
Q 2853 3084 3261 2657 
Q 3669 2231 3669 1497 
Q 3669 778 3244 343 
Q 2819 -91 2113 -91 
Q 1303 -91 875 529 
Q 447 1150 447 2328 
Q 447 3434 972 4092 
Q 1497 4750 2381 4750 
Q 2619 4750 2861 4703 
Q 3103 4656 3366 4563 
z
" transform="scale(0.015625)"/>
       </defs>
       <use xlink:href="#DejaVuSans-36"/>
       <use xlink:href="#DejaVuSans-30" x="63.623047"/>
       <use xlink:href="#DejaVuSans-30" x="127.246094"/>
       <use xlink:href="#DejaVuSans-30" x="190.869141"/>
      </g>
     </g>
    </g>
    <g id="ytick_4">
     <g id="line2d_9">
      <g>
       <use xlink:href="#ma3a7c3fe98" x="57.6" y="199.600631" style="stroke: #000000; stroke-width: 0.8"/>
      </g>
     </g>
     <g id="text_9">
      <!-- 6500 -->
      <g transform="translate(25.15 203.399849) scale(0.1 -0.1)">
       <use xlink:href="#DejaVuSans-36"/>
       <use xlink:href="#DejaVuSans-35" x="63.623047"/>
       <use xlink:href="#DejaVuSans-30" x="127.246094"/>
       <use xlink:href="#DejaVuSans-30" x="190.869141"/>
      </g>
     </g>
    </g>
    <g id="ytick_5">
     <g id="line2d_10">
      <g>
       <use xlink:href="#ma3a7c3fe98" x="57.6" y="167.92327" style="stroke: #000000; stroke-width: 0.8"/>
      </g>
     </g>
     <g id="text_10">
      <!-- 7000 -->
      <g transform="translate(25.15 171.722489) scale(0.1 -0.1)">
       <defs>
        <path id="DejaVuSans-37" d="M 525 4666 
L 3525 4666 
L 3525 4397 
L 1831 0 
L 1172 0 
L 2766 4134 
L 525 4134 
L 525 4666 
z
" transform="scale(0.015625)"/>
       </defs>
       <use xlink:href="#DejaVuSans-37"/>
       <use xlink:href="#DejaVuSans-30" x="63.623047"/>
       <use xlink:href="#DejaVuSans-30" x="127.246094"/>
       <use xlink:href="#DejaVuSans-30" x="190.869141"/>
      </g>
     </g>
    </g>
    <g id="ytick_6">
     <g id="line2d_11">
      <g>
       <use xlink:href="#ma3a7c3fe98" x="57.6" y="136.24591" style="stroke: #000000; stroke-width: 0.8"/>
      </g>
     </g>
     <g id="text_11">
      <!-- 7500 -->
      <g transform="translate(25.15 140.045129) scale(0.1 -0.1)">
       <use xlink:href="#DejaVuSans-37"/>
       <use xlink:href="#DejaVuSans-35" x="63.623047"/>
       <use xlink:href="#DejaVuSans-30" x="127.246094"/>
       <use xlink:href="#DejaVuSans-30" x="190.869141"/>
      </g>
     </g>
    </g>
    <g id="ytick_7">
     <g id="line2d_12">
      <g>
       <use xlink:href="#ma3a7c3fe98" x="57.6" y="104.56855" style="stroke: #000000; stroke-width: 0.8"/>
      </g>
     </g>
     <g id="text_12">
      <!-- 8000 -->
      <g transform="translate(25.15 108.367769) scale(0.1 -0.1)">
       <defs>
        <path id="DejaVuSans-38" d="M 2034 2216 
Q 1584 2216 1326 1975 
Q 1069 1734 1069 1313 
Q 1069 891 1326 650 
Q 1584 409 2034 409 
Q 2484 409 2743 651 
Q 3003 894 3003 1313 
Q 3003 1734 2745 1975 
Q 2488 2216 2034 2216 
z
M 1403 2484 
Q 997 2584 770 2862 
Q 544 3141 544 3541 
Q 544 4100 942 4425 
Q 1341 4750 2034 4750 
Q 2731 4750 3128 4425 
Q 3525 4100 3525 3541 
Q 3525 3141 3298 2862 
Q 3072 2584 2669 2484 
Q 3125 2378 3379 2068 
Q 3634 1759 3634 1313 
Q 3634 634 3220 271 
Q 2806 -91 2034 -91 
Q 1263 -91 848 271 
Q 434 634 434 1313 
Q 434 1759 690 2068 
Q 947 2378 1403 2484 
z
M 1172 3481 
Q 1172 3119 1398 2916 
Q 1625 2713 2034 2713 
Q 2441 2713 2670 2916 
Q 2900 3119 2900 3481 
Q 2900 3844 2670 4047 
Q 2441 4250 2034 4250 
Q 1625 4250 1398 4047 
Q 1172 3844 1172 3481 
z
" transform="scale(0.015625)"/>
       </defs>
       <use xlink:href="#DejaVuSans-38"/>
       <use xlink:href="#DejaVuSans-30" x="63.623047"/>
       <use xlink:href="#DejaVuSans-30" x="127.246094"/>
       <use xlink:href="#DejaVuSans-30" x="190.869141"/>
      </g>
     </g>
    </g>
    <g id="ytick_8">
     <g id="line2d_13">
      <g>
       <use xlink:href="#ma3a7c3fe98" x="57.6" y="72.89119" style="stroke: #000000; stroke-width: 0.8"/>
      </g>
     </g>
     <g id="text_13">
      <!-- 8500 -->
      <g transform="translate(25.15 76.690408) scale(0.1 -0.1)">
       <use xlink:href="#DejaVuSans-38"/>
       <use xlink:href="#DejaVuSans-35" x="63.623047"/>
       <use xlink:href="#DejaVuSans-30" x="127.246094"/>
       <use xlink:href="#DejaVuSans-30" x="190.869141"/>
      </g>
     </g>
    </g>
   </g>
   <g id="line2d_14">
    <path d="M 73.832727 295.456323 
L 75.342748 294.16811 
L 76.85277 291.648 
L 78.362791 290.514654 
L 79.872812 290.704719 
L 81.382833 290.4513 
L 82.892854 290.673041 
L 84.402875 289.72272 
L 85.912896 289.84943 
L 87.422918 286.808403 
L 88.932939 280.187835 
L 90.44296 272.015076 
L 91.952981 275.151135 
L 93.463002 278.984095 
L 94.973023 281.011446 
L 96.483044 278.582849 
L 97.993066 277.84371 
L 99.503087 276.792022 
L 101.013108 274.464792 
L 102.523129 271.508238 
L 104.03315 269.164114 
L 105.543171 269.069082 
L 107.053192 267.516891 
L 108.563214 268.213793 
L 110.073235 268.213793 
L 111.583256 268.593921 
L 113.093277 267.263472 
L 114.603298 266.439861 
L 119.133362 266.756634 
L 120.643383 266.439861 
L 122.153404 266.344829 
L 123.663425 267.326827 
L 125.173446 267.453536 
L 126.683467 267.263472 
L 128.193488 267.326827 
L 129.70351 263.462189 
L 131.213531 261.181419 
L 132.723552 263.214529 
L 134.233573 260.991355 
L 135.743594 260.864645 
L 137.253615 261.023032 
L 138.763636 261.371483 
L 140.273658 260.357808 
L 141.783679 260.167743 
L 143.2937 259.375809 
L 144.803721 257.785606 
L 146.313742 255.226075 
L 147.823763 254.275754 
L 149.333784 251.583179 
L 150.843805 249.397441 
L 152.353827 246.799897 
L 153.863848 245.944609 
L 155.373869 246.56458 
L 156.88389 245.421386 
L 158.393911 245.120997 
L 159.903932 246.736543 
L 161.413953 243.061969 
L 162.923975 240.580576 
L 164.433996 238.690493 
L 165.944017 238.766519 
L 167.454038 240.717844 
L 170.47408 241.097973 
L 171.984101 241.953261 
L 173.494123 240.126533 
L 175.004144 240.211006 
L 176.514165 238.753848 
L 178.024186 238.468752 
L 179.534207 238.400872 
L 181.044228 238.627138 
L 182.554249 237.670482 
L 184.064271 235.976799 
L 185.574292 234.699146 
L 187.084313 232.291666 
L 188.594334 230.707798 
L 190.104355 230.200961 
L 191.614376 231.37116 
L 193.124397 230.707798 
L 194.634419 231.753151 
L 196.14444 232.270548 
L 197.654461 230.501896 
L 199.164482 230.602207 
L 200.674503 227.68789 
L 202.184524 225.821566 
L 203.694545 224.836928 
L 205.204567 221.521364 
L 206.714588 221.882486 
L 208.224609 223.263619 
L 209.73463 223.231941 
L 211.244651 222.946845 
L 212.754672 220.72943 
L 214.264693 217.618713 
L 215.774715 217.606042 
L 217.284736 215.534343 
L 218.794757 215.027505 
L 220.304778 217.276598 
L 221.814799 216.009503 
L 223.32482 217.118211 
L 224.834841 214.536506 
L 226.344863 213.776249 
L 227.854884 212.873445 
L 229.364905 212.884004 
L 230.874926 214.393958 
L 232.384947 213.665379 
L 233.894968 212.715058 
L 235.404989 212.746735 
L 236.915011 210.662365 
L 238.425032 204.587552 
L 239.935053 205.397588 
L 241.445074 206.379586 
L 242.955095 205.872748 
L 244.465116 204.859072 
L 245.975137 206.553811 
L 247.485159 200.360887 
L 248.99518 199.72734 
L 250.505201 198.143472 
L 252.015222 200.297533 
L 253.525243 197.784462 
L 255.035264 195.926057 
L 256.545285 191.317001 
L 258.055307 191.998064 
L 259.565328 194.152125 
L 261.075349 195.007413 
L 262.58537 194.954618 
L 264.095391 196.116121 
L 265.605412 194.595608 
L 267.115433 186.993041 
L 268.625455 190.203014 
L 270.135476 190.540906 
L 271.645497 190.1291 
L 273.155518 186.454526 
L 274.665539 186.090236 
L 276.17556 183.463278 
L 277.685581 182.906662 
L 279.195603 181.227762 
L 280.705624 180.046649 
L 282.215645 180.815956 
L 283.725666 177.869962 
L 285.235687 175.314654 
L 286.745708 169.53248 
L 288.255729 163.044957 
L 289.765751 160.890896 
L 291.275772 158.166643 
L 292.785793 157.976579 
L 294.295814 153.510071 
L 295.805835 145.052216 
L 297.315856 144.059659 
L 298.825877 147.184307 
L 300.335899 148.600081 
L 301.84592 149.582079 
L 303.355941 149.339219 
L 304.865962 148.325544 
L 306.375983 142.518027 
L 307.886004 139.888807 
L 309.396025 139.73042 
L 310.906047 140.316451 
L 312.416068 136.531006 
L 313.926089 129.847083 
L 315.43611 130.797404 
L 316.946131 125.158834 
L 318.456152 125.425829 
L 319.966173 125.075738 
L 321.476195 122.276194 
L 322.986216 123.068128 
L 324.496237 123.701676 
L 326.006258 124.176836 
L 327.516279 123.40602 
L 329.0263 121.695443 
L 330.536321 121.725008 
L 332.046342 118.25317 
L 333.556364 110.523894 
L 335.066385 108.433188 
L 338.086427 112.677954 
L 339.596448 112.424535 
L 341.106469 114.367413 
L 342.61649 113.485727 
L 344.126512 106.933793 
L 347.146554 106.523496 
L 348.656575 102.752381 
L 350.166596 98.676561 
L 351.676617 100.038687 
L 353.186638 97.396796 
L 354.69666 97.536176 
L 356.206681 97.916304 
L 357.716702 98.454819 
L 359.226723 97.240521 
L 360.736744 97.108532 
L 362.246765 94.621859 
L 363.756786 91.24294 
L 365.266808 84.686091 
L 366.776829 77.262665 
L 368.28685 67.419646 
L 369.796871 60.917148 
L 371.306892 64.67371 
L 372.816913 71.940869 
L 374.326934 69.913518 
L 375.836956 71.370676 
L 377.346977 71.814159 
L 378.856998 71.275644 
L 380.367019 68.498596 
L 381.87704 66.365654 
L 383.387061 68.994874 
L 384.897082 68.963197 
L 386.407104 67.273738 
L 387.917125 66.52404 
L 389.427146 66.872491 
L 390.937167 62.532693 
L 392.447188 61.550695 
L 393.957209 61.01218 
L 395.46723 61.550695 
L 396.977252 61.297276 
L 398.487273 54.755901 
L 398.487273 54.755901 
" clip-path="url(#pc70c2ed3e5)" style="fill: none; stroke: #1f77b4; stroke-opacity: 0.7; stroke-width: 0.5; stroke-linecap: square"/>
   </g>
   <g id="line2d_15">
    <path d="M 73.832727 295.488 
L 75.342748 294.110035 
L 76.85277 290.736396 
L 78.362791 291.338266 
L 79.872812 290.704719 
L 81.382833 289.912785 
L 82.892854 290.04583 
L 84.402875 289.254599 
L 85.912896 289.944462 
L 87.422918 286.995588 
L 88.932939 280.979769 
L 90.44296 273.092106 
L 91.952981 275.214489 
L 94.973023 278.489929 
L 96.483044 276.903949 
L 97.993066 277.336873 
L 99.503087 276.29152 
L 101.013108 273.535589 
L 102.523129 271.698302 
L 104.03315 269.195791 
L 105.543171 269.069082 
L 107.053192 267.469375 
L 108.563214 267.633041 
L 110.073235 268.593921 
L 111.583256 268.657276 
L 113.093277 266.756634 
L 114.603298 265.950301 
L 116.113319 266.946698 
L 117.62334 266.756634 
L 119.133362 266.819989 
L 120.643383 266.439861 
L 122.153404 266.397624 
L 123.663425 267.157881 
L 125.173446 267.453536 
L 128.193488 267.326827 
L 129.70351 263.309562 
L 131.213531 261.181419 
L 132.723552 263.303802 
L 134.233573 261.688257 
L 135.743594 261.197258 
L 137.253615 261.118064 
L 138.763636 261.371483 
L 140.273658 260.120916 
L 141.783679 260.294453 
L 143.2937 259.217423 
L 146.313742 255.321107 
L 147.823763 254.275754 
L 149.333784 251.583179 
L 150.843805 249.545269 
L 152.353827 246.958284 
L 153.863848 245.944609 
L 155.373869 246.208587 
L 156.88389 244.867578 
L 158.393911 244.537229 
L 159.903932 247.180026 
L 161.413953 242.732524 
L 162.923975 239.197331 
L 164.433996 238.215333 
L 165.944017 238.60602 
L 167.454038 239.656653 
L 168.964059 240.907908 
L 170.47408 241.097973 
L 171.984101 241.953261 
L 173.494123 239.355718 
L 175.004144 240.570016 
L 176.514165 238.753848 
L 179.534207 238.183655 
L 181.044228 238.943912 
L 182.554249 237.507872 
L 184.064271 235.015919 
L 185.574292 235.269338 
L 187.084313 232.291666 
L 188.594334 230.792271 
L 190.104355 230.581089 
L 191.614376 230.866185 
L 193.124397 230.982335 
L 196.14444 232.545085 
L 197.654461 230.538852 
L 199.164482 230.264315 
L 200.674503 227.825159 
L 202.184524 224.245617 
L 203.694545 223.865489 
L 205.204567 221.521364 
L 206.714588 221.5636 
L 209.73463 223.453683 
L 211.244651 222.946845 
L 212.754672 220.380979 
L 214.264693 216.199567 
L 215.774715 217.24492 
L 217.284736 215.534343 
L 218.794757 215.439311 
L 220.304778 217.84679 
L 221.814799 216.674728 
L 223.32482 216.342115 
L 224.834841 214.045507 
L 226.344863 213.982152 
L 227.854884 212.588348 
L 230.874926 213.437302 
L 232.384947 213.158541 
L 233.894968 212.715058 
L 235.404989 212.905122 
L 236.915011 210.340984 
L 238.425032 202.00811 
L 239.935053 207.583325 
L 241.445074 206.918101 
L 244.465116 204.700686 
L 245.975137 205.809393 
L 247.485159 201.083131 
L 248.99518 202.00811 
L 250.505201 198.206827 
L 252.015222 200.487597 
L 253.525243 198.5236 
L 255.035264 196.939732 
L 256.545285 190.00239 
L 258.055307 192.082537 
L 259.565328 192.758321 
L 261.075349 195.229155 
L 262.58537 195.007413 
L 264.095391 196.158357 
L 265.605412 194.608279 
L 267.115433 188.291813 
L 268.625455 192.378192 
L 270.135476 191.20613 
L 271.645497 189.638101 
L 273.155518 185.440851 
L 274.665539 187.056396 
L 276.17556 183.603564 
L 277.685581 183.339586 
L 279.195603 181.227762 
L 280.705624 179.68613 
L 282.215645 180.868752 
L 283.725666 177.869962 
L 285.235687 174.448807 
L 286.745708 166.466112 
L 288.255729 162.791538 
L 289.765751 160.479091 
L 291.275772 157.807633 
L 292.785793 157.263839 
L 294.295814 153.085595 
L 295.805835 143.595058 
L 297.315856 147.016213 
L 298.825877 145.537936 
L 300.335899 148.663435 
L 301.84592 149.80382 
L 303.355941 147.546808 
L 304.865962 147.64976 
L 306.375983 143.193811 
L 307.886004 139.983839 
L 310.906047 139.397808 
L 312.416068 135.395623 
L 313.926089 129.973793 
L 315.43611 129.593665 
L 316.946131 125.158834 
L 318.456152 124.271868 
L 319.966173 124.060686 
L 321.476195 122.941419 
L 322.986216 123.89174 
L 324.496237 122.497936 
L 326.006258 124.398577 
L 327.516279 123.416579 
L 329.0263 120.914068 
L 330.536321 121.389228 
L 332.046342 118.406277 
L 333.556364 106.912675 
L 335.066385 108.433188 
L 336.576406 111.505892 
L 338.086427 113.153115 
L 339.596448 110.732059 
L 341.106469 112.48789 
L 342.61649 112.551245 
L 344.126512 106.755555 
L 345.636533 108.623252 
L 347.146554 106.627578 
L 348.656575 101.971006 
L 350.166596 98.676561 
L 351.676617 99.901419 
L 353.186638 96.944865 
L 356.206681 98.233078 
L 357.716702 98.359787 
L 359.226723 96.274218 
L 360.736744 97.282757 
L 362.246765 94.472111 
L 363.756786 90.535479 
L 365.266808 81.190658 
L 366.776829 76.96701 
L 368.28685 60.917148 
L 369.796871 58.12954 
L 371.306892 61.534856 
L 372.816913 66.666588 
L 374.326934 67.083674 
L 375.836956 68.044554 
L 377.346977 71.21229 
L 378.856998 71.497386 
L 380.367019 65.916891 
L 383.387061 68.20294 
L 384.897082 68.456359 
L 386.407104 66.809137 
L 387.917125 65.795461 
L 389.427146 67.315974 
L 390.937167 62.796671 
L 392.447188 61.550695 
L 393.957209 61.01218 
L 395.46723 60.806277 
L 396.977252 61.297276 
L 398.487273 54.835094 
L 398.487273 54.835094 
" clip-path="url(#pc70c2ed3e5)" style="fill: none; stroke: #ff7f0e; stroke-opacity: 0.7; stroke-width: 0.5; stroke-linecap: square"/>
   </g>
   <g id="line2d_16">
    <path d="M 73.832727 295.472161 
L 75.342748 294.139072 
L 76.85277 291.192198 
L 79.872812 290.704719 
L 81.382833 290.182042 
L 82.892854 290.359435 
L 84.402875 289.48866 
L 85.912896 289.896946 
L 87.422918 286.901996 
L 88.932939 280.583802 
L 90.44296 272.553591 
L 93.463002 277.928183 
L 94.973023 279.750687 
L 96.483044 277.743399 
L 97.993066 277.590291 
L 99.503087 276.541771 
L 102.523129 271.60327 
L 104.03315 269.179952 
L 105.543171 269.069082 
L 107.053192 267.493133 
L 110.073235 268.403857 
L 111.583256 268.625599 
L 113.093277 267.010053 
L 114.603298 266.195081 
L 116.113319 266.743963 
L 119.133362 266.788312 
L 120.643383 266.439861 
L 122.153404 266.371226 
L 123.663425 267.242354 
L 125.173446 267.453536 
L 126.683467 267.310988 
L 128.193488 267.326827 
L 129.70351 263.385875 
L 131.213531 261.181419 
L 132.723552 263.259166 
L 134.233573 261.339806 
L 135.743594 261.030951 
L 137.253615 261.070548 
L 138.763636 261.371483 
L 140.273658 260.239362 
L 141.783679 260.231098 
L 143.2937 259.296616 
L 144.803721 257.535355 
L 146.313742 255.273591 
L 147.823763 254.275754 
L 149.333784 251.583179 
L 150.843805 249.471355 
L 152.353827 246.879091 
L 153.863848 245.944609 
L 155.373869 246.386583 
L 156.88389 245.144482 
L 158.393911 244.829113 
L 159.903932 246.958284 
L 161.413953 242.897247 
L 162.923975 239.888953 
L 164.433996 238.452913 
L 165.944017 238.686269 
L 167.454038 240.187248 
L 168.964059 240.907908 
L 170.47408 241.097973 
L 171.984101 241.953261 
L 173.494123 239.741126 
L 175.004144 240.390511 
L 176.514165 238.753848 
L 179.534207 238.292263 
L 181.044228 238.785525 
L 182.554249 237.589177 
L 184.064271 235.496359 
L 185.574292 234.984242 
L 187.084313 232.291666 
L 188.594334 230.750035 
L 190.104355 230.391025 
L 191.614376 231.118672 
L 193.124397 230.845067 
L 194.634419 231.753151 
L 196.14444 232.407817 
L 197.654461 230.520374 
L 199.164482 230.433261 
L 202.184524 225.033591 
L 203.694545 224.351208 
L 205.204567 221.521364 
L 206.714588 221.723043 
L 208.224609 222.867652 
L 209.73463 223.342812 
L 211.244651 222.946845 
L 212.754672 220.555204 
L 214.264693 216.90914 
L 215.774715 217.425481 
L 217.284736 215.534343 
L 218.794757 215.233408 
L 220.304778 217.561694 
L 221.814799 216.342115 
L 223.32482 216.730163 
L 224.834841 214.291006 
L 226.344863 213.879201 
L 227.854884 212.730896 
L 229.364905 212.947358 
L 230.874926 213.91563 
L 232.384947 213.41196 
L 233.894968 212.715058 
L 235.404989 212.825929 
L 236.915011 210.501674 
L 238.425032 203.297831 
L 239.935053 206.490456 
L 241.445074 206.648843 
L 242.955095 205.872748 
L 244.465116 204.779879 
L 245.975137 206.181602 
L 247.485159 200.722009 
L 248.99518 200.867725 
L 250.505201 198.175149 
L 252.015222 200.392565 
L 253.525243 198.154031 
L 255.035264 196.432895 
L 256.545285 190.659696 
L 259.565328 193.455223 
L 261.075349 195.118284 
L 262.58537 194.981016 
L 264.095391 196.137239 
L 265.605412 194.601943 
L 267.115433 187.642427 
L 268.625455 191.290603 
L 270.135476 190.873518 
L 271.645497 189.8836 
L 273.155518 185.947688 
L 274.665539 186.573316 
L 276.17556 183.533421 
L 277.685581 183.123124 
L 279.195603 181.227762 
L 280.705624 179.866389 
L 282.215645 180.842354 
L 285.235687 174.881731 
L 286.745708 167.999296 
L 288.255729 162.918247 
L 289.765751 160.684994 
L 291.275772 157.987138 
L 292.785793 157.620209 
L 294.295814 153.297833 
L 295.805835 144.323637 
L 297.315856 145.537936 
L 298.825877 146.361121 
L 300.335899 148.631758 
L 301.84592 149.69295 
L 303.355941 148.443014 
L 304.865962 147.987652 
L 306.375983 142.855919 
L 307.886004 139.936323 
L 309.396025 139.73042 
L 310.906047 139.857129 
L 312.416068 135.963315 
L 313.926089 129.910438 
L 315.43611 130.195534 
L 316.946131 125.158834 
L 319.966173 124.568212 
L 321.476195 122.608807 
L 322.986216 123.479934 
L 324.496237 123.099806 
L 326.006258 124.287707 
L 327.516279 123.4113 
L 329.0263 121.304755 
L 330.536321 121.557118 
L 332.046342 118.329723 
L 333.556364 108.718284 
L 335.066385 108.433188 
L 336.576406 111.076125 
L 338.086427 112.915534 
L 339.596448 111.578297 
L 341.106469 113.427652 
L 342.61649 113.018486 
L 344.126512 106.844674 
L 345.636533 107.651813 
L 347.146554 106.575537 
L 348.656575 102.361694 
L 350.166596 98.676561 
L 351.676617 99.970053 
L 353.186638 97.17083 
L 354.69666 97.536176 
L 356.206681 98.074691 
L 357.716702 98.407303 
L 359.226723 96.75737 
L 360.736744 97.195644 
L 362.246765 94.546985 
L 363.756786 90.88921 
L 365.266808 82.938375 
L 366.776829 77.114838 
L 368.28685 64.168397 
L 369.796871 59.523344 
L 371.306892 63.104283 
L 372.816913 69.303729 
L 374.326934 68.498596 
L 375.836956 69.707615 
L 377.346977 71.513225 
L 378.856998 71.386515 
L 380.367019 67.207743 
L 381.87704 66.692986 
L 383.387061 68.598907 
L 384.897082 68.709778 
L 386.407104 67.041437 
L 387.917125 66.159751 
L 389.427146 67.094233 
L 390.937167 62.664682 
L 392.447188 61.550695 
L 393.957209 61.01218 
L 396.977252 61.297276 
L 398.487273 54.795498 
L 398.487273 54.795498 
" clip-path="url(#pc70c2ed3e5)" style="fill: none; stroke: #2ca02c; stroke-opacity: 0.7; stroke-width: 0.5; stroke-linecap: square"/>
   </g>
   <g id="line2d_17">
    <path d="M 73.832727 295.139549 
L 75.342748 292.60536 
L 78.362791 291.338266 
L 79.872812 290.958137 
L 81.382833 290.894783 
L 82.892854 290.134526 
L 84.402875 290.197881 
L 85.912896 287.917111 
L 87.422918 284.052473 
L 88.932939 278.033775 
L 90.44296 278.160484 
L 91.952981 278.667322 
L 93.463002 280.061126 
L 94.973023 278.477258 
L 96.483044 277.907065 
L 97.993066 277.020099 
L 99.503087 274.992748 
L 101.013108 273.345525 
L 102.523129 271.12811 
L 104.03315 270.494563 
L 105.543171 268.974049 
L 107.053192 268.974049 
L 108.563214 268.783985 
L 110.073235 268.720631 
L 113.093277 266.946698 
L 114.603298 266.946698 
L 116.113319 266.819989 
L 117.62334 266.819989 
L 119.133362 266.56657 
L 120.643383 266.503215 
L 122.153404 267.073408 
L 123.663425 267.263472 
L 125.173446 267.200117 
L 126.683467 267.263472 
L 128.193488 263.969027 
L 129.70351 262.575223 
L 131.213531 263.525544 
L 132.723552 262.258449 
L 134.233573 261.751611 
L 135.743594 261.434838 
L 137.253615 261.498192 
L 138.763636 260.928 
L 140.273658 260.611226 
L 141.783679 259.787615 
L 143.2937 258.393811 
L 144.803721 256.809943 
L 146.313742 255.542849 
L 147.823763 253.325434 
L 149.333784 251.361437 
L 150.843805 249.080667 
L 152.353827 247.750218 
L 153.863848 247.496799 
L 155.373869 246.16635 
L 156.88389 245.912931 
L 158.393911 246.546478 
L 161.413953 241.60481 
L 162.923975 240.147652 
L 164.433996 239.957588 
L 165.944017 240.52778 
L 168.964059 240.907908 
L 170.47408 241.541456 
L 171.984101 240.274361 
L 173.494123 240.654489 
L 175.004144 239.260686 
L 176.514165 239.197331 
L 178.024186 238.690493 
L 179.534207 238.817203 
L 181.044228 237.930236 
L 182.554249 236.283014 
L 184.064271 235.776176 
L 185.574292 233.622115 
L 187.084313 232.164957 
L 188.594334 231.594764 
L 190.104355 231.848183 
L 191.614376 231.277991 
L 193.124397 231.784829 
L 194.634419 232.164957 
L 196.14444 230.771153 
L 197.654461 230.897863 
L 199.164482 228.807157 
L 200.674503 226.463032 
L 202.184524 225.512711 
L 203.694545 223.168587 
L 205.204567 222.788458 
L 206.714588 223.231941 
L 208.224609 223.231941 
L 209.73463 223.041877 
L 211.244651 221.141236 
L 212.754672 218.480337 
L 214.264693 218.543692 
L 215.774715 216.516341 
L 217.284736 216.199567 
L 218.794757 217.023179 
L 220.304778 216.516341 
L 221.814799 217.086533 
L 223.32482 214.869118 
L 224.834841 214.425635 
L 226.344863 213.348605 
L 227.854884 213.475314 
L 229.364905 214.045507 
L 232.384947 213.158541 
L 233.894968 213.031831 
L 235.404989 211.13119 
L 236.915011 205.682684 
L 238.425032 206.633005 
L 239.935053 206.506295 
L 241.445074 206.126167 
L 242.955095 205.302555 
L 244.465116 206.56965 
L 245.975137 202.00811 
L 247.485159 202.00811 
L 248.99518 199.473921 
L 250.505201 200.867725 
L 252.015222 198.840374 
L 253.525243 197.57328 
L 255.035264 192.948385 
L 256.545285 193.771996 
L 258.055307 193.96206 
L 259.565328 194.595608 
L 261.075349 194.658962 
L 262.58537 195.609283 
L 264.095391 194.468898 
L 265.605412 190.73097 
L 267.115433 191.554581 
L 270.135476 190.60426 
L 271.645497 187.309815 
L 273.155518 187.183105 
L 274.665539 184.838981 
L 276.17556 184.332143 
L 277.685581 182.431501 
L 279.195603 180.974343 
L 280.705624 181.734599 
L 282.215645 179.010346 
L 283.725666 176.729577 
L 285.235687 170.647523 
L 286.745708 166.84624 
L 289.765751 161.017606 
L 291.275772 159.940576 
L 292.785793 156.012583 
L 294.295814 149.043564 
L 295.805835 148.029888 
L 297.315856 148.156598 
L 298.825877 148.410016 
L 300.335899 149.106918 
L 301.84592 149.043564 
L 303.355941 148.346662 
L 306.375983 142.708092 
L 307.886004 141.631061 
L 309.396025 141.187578 
L 312.416068 133.711721 
L 313.926089 132.254563 
L 315.43611 128.009797 
L 316.946131 126.932766 
L 318.456152 126.109155 
L 319.966173 124.271868 
L 322.986216 123.89174 
L 324.496237 124.145159 
L 326.006258 123.574966 
L 327.516279 122.244517 
L 329.0263 122.117808 
L 330.536321 119.583619 
L 332.046342 111.981052 
L 333.556364 110.20712 
L 335.066385 111.664279 
L 336.576406 112.171116 
L 338.086427 112.171116 
L 339.596448 113.69163 
L 341.106469 113.121437 
L 342.61649 108.243124 
L 344.126512 108.433188 
L 345.636533 107.166093 
L 347.146554 104.125067 
L 348.656575 101.400814 
L 350.166596 101.717588 
L 351.676617 98.739916 
L 353.186638 98.92998 
L 354.69666 98.866625 
L 356.206681 98.613206 
L 357.716702 97.662885 
L 359.226723 97.472821 
L 360.736744 95.635534 
L 362.246765 92.847927 
L 363.756786 86.005617 
L 365.266808 81.634141 
L 366.776829 69.279971 
L 368.28685 65.098559 
L 369.796871 66.429008 
L 371.306892 69.660099 
L 372.816913 69.786808 
L 374.326934 70.800484 
L 375.836956 70.737129 
L 377.346977 71.117258 
L 378.856998 68.20294 
L 380.367019 67.949522 
L 381.87704 68.709778 
L 383.387061 68.836488 
L 384.897082 67.442684 
L 386.407104 66.809137 
L 387.917125 67.062555 
L 389.427146 63.958174 
L 390.937167 62.754434 
L 392.447188 61.994178 
L 393.957209 62.057533 
L 395.46723 61.677404 
L 396.977252 56.355608 
L 398.487273 53.568 
L 398.487273 53.568 
" clip-path="url(#pc70c2ed3e5)" style="fill: none; stroke: #d62728; stroke-opacity: 0.7; stroke-width: 0.5; stroke-linecap: square"/>
   </g>
   <g id="patch_3">
    <path d="M 57.6 307.584 
L 57.6 41.472 
" style="fill: none; stroke: #000000; stroke-width: 0.8; stroke-linejoin: miter; stroke-linecap: square"/>
   </g>
   <g id="patch_4">
    <path d="M 414.72 307.584 
L 414.72 41.472 
" style="fill: none; stroke: #000000; stroke-width: 0.8; stroke-linejoin: miter; stroke-linecap: square"/>
   </g>
   <g id="patch_5">
    <path d="M 57.6 307.584 
L 414.72 307.584 
" style="fill: none; stroke: #000000; stroke-width: 0.8; stroke-linejoin: miter; stroke-linecap: square"/>
   </g>
   <g id="patch_6">
    <path d="M 57.6 41.472 
L 414.72 41.472 
" style="fill: none; stroke: #000000; stroke-width: 0.8; stroke-linejoin: miter; stroke-linecap: square"/>
   </g>
   <g id="text_14">
    <!-- zhang_jaccard_cci -->
    <g transform="translate(181.865625 35.472) scale(0.12 -0.12)">
     <defs>
      <path id="DejaVuSans-7a" d="M 353 3500 
L 3084 3500 
L 3084 2975 
L 922 459 
L 3084 459 
L 3084 0 
L 275 0 
L 275 525 
L 2438 3041 
L 353 3041 
L 353 3500 
z
" transform="scale(0.015625)"/>
      <path id="DejaVuSans-68" d="M 3513 2113 
L 3513 0 
L 2938 0 
L 2938 2094 
Q 2938 2591 2744 2837 
Q 2550 3084 2163 3084 
Q 1697 3084 1428 2787 
Q 1159 2491 1159 1978 
L 1159 0 
L 581 0 
L 581 4863 
L 1159 4863 
L 1159 2956 
Q 1366 3272 1645 3428 
Q 1925 3584 2291 3584 
Q 2894 3584 3203 3211 
Q 3513 2838 3513 2113 
z
" transform="scale(0.015625)"/>
      <path id="DejaVuSans-61" d="M 2194 1759 
Q 1497 1759 1228 1600 
Q 959 1441 959 1056 
Q 959 750 1161 570 
Q 1363 391 1709 391 
Q 2188 391 2477 730 
Q 2766 1069 2766 1631 
L 2766 1759 
L 2194 1759 
z
M 3341 1997 
L 3341 0 
L 2766 0 
L 2766 531 
Q 2569 213 2275 61 
Q 1981 -91 1556 -91 
Q 1019 -91 701 211 
Q 384 513 384 1019 
Q 384 1609 779 1909 
Q 1175 2209 1959 2209 
L 2766 2209 
L 2766 2266 
Q 2766 2663 2505 2880 
Q 2244 3097 1772 3097 
Q 1472 3097 1187 3025 
Q 903 2953 641 2809 
L 641 3341 
Q 956 3463 1253 3523 
Q 1550 3584 1831 3584 
Q 2591 3584 2966 3190 
Q 3341 2797 3341 1997 
z
" transform="scale(0.015625)"/>
      <path id="DejaVuSans-6e" d="M 3513 2113 
L 3513 0 
L 2938 0 
L 2938 2094 
Q 2938 2591 2744 2837 
Q 2550 3084 2163 3084 
Q 1697 3084 1428 2787 
Q 1159 2491 1159 1978 
L 1159 0 
L 581 0 
L 581 3500 
L 1159 3500 
L 1159 2956 
Q 1366 3272 1645 3428 
Q 1925 3584 2291 3584 
Q 2894 3584 3203 3211 
Q 3513 2838 3513 2113 
z
" transform="scale(0.015625)"/>
      <path id="DejaVuSans-67" d="M 2906 1791 
Q 2906 2416 2648 2759 
Q 2391 3103 1925 3103 
Q 1463 3103 1205 2759 
Q 947 2416 947 1791 
Q 947 1169 1205 825 
Q 1463 481 1925 481 
Q 2391 481 2648 825 
Q 2906 1169 2906 1791 
z
M 3481 434 
Q 3481 -459 3084 -895 
Q 2688 -1331 1869 -1331 
Q 1566 -1331 1297 -1286 
Q 1028 -1241 775 -1147 
L 775 -588 
Q 1028 -725 1275 -790 
Q 1522 -856 1778 -856 
Q 2344 -856 2625 -561 
Q 2906 -266 2906 331 
L 2906 616 
Q 2728 306 2450 153 
Q 2172 0 1784 0 
Q 1141 0 747 490 
Q 353 981 353 1791 
Q 353 2603 747 3093 
Q 1141 3584 1784 3584 
Q 2172 3584 2450 3431 
Q 2728 3278 2906 2969 
L 2906 3500 
L 3481 3500 
L 3481 434 
z
" transform="scale(0.015625)"/>
      <path id="DejaVuSans-5f" d="M 3263 -1063 
L 3263 -1509 
L -63 -1509 
L -63 -1063 
L 3263 -1063 
z
" transform="scale(0.015625)"/>
      <path id="DejaVuSans-6a" d="M 603 3500 
L 1178 3500 
L 1178 -63 
Q 1178 -731 923 -1031 
Q 669 -1331 103 -1331 
L -116 -1331 
L -116 -844 
L 38 -844 
Q 366 -844 484 -692 
Q 603 -541 603 -63 
L 603 3500 
z
M 603 4863 
L 1178 4863 
L 1178 4134 
L 603 4134 
L 603 4863 
z
" transform="scale(0.015625)"/>
      <path id="DejaVuSans-63" d="M 3122 3366 
L 3122 2828 
Q 2878 2963 2633 3030 
Q 2388 3097 2138 3097 
Q 1578 3097 1268 2742 
Q 959 2388 959 1747 
Q 959 1106 1268 751 
Q 1578 397 2138 397 
Q 2388 397 2633 464 
Q 2878 531 3122 666 
L 3122 134 
Q 2881 22 2623 -34 
Q 2366 -91 2075 -91 
Q 1284 -91 818 406 
Q 353 903 353 1747 
Q 353 2603 823 3093 
Q 1294 3584 2113 3584 
Q 2378 3584 2631 3529 
Q 2884 3475 3122 3366 
z
" transform="scale(0.015625)"/>
      <path id="DejaVuSans-72" d="M 2631 2963 
Q 2534 3019 2420 3045 
Q 2306 3072 2169 3072 
Q 1681 3072 1420 2755 
Q 1159 2438 1159 1844 
L 1159 0 
L 581 0 
L 581 3500 
L 1159 3500 
L 1159 2956 
Q 1341 3275 1631 3429 
Q 1922 3584 2338 3584 
Q 2397 3584 2469 3576 
Q 2541 3569 2628 3553 
L 2631 2963 
z
" transform="scale(0.015625)"/>
      <path id="DejaVuSans-64" d="M 2906 2969 
L 2906 4863 
L 3481 4863 
L 3481 0 
L 2906 0 
L 2906 525 
Q 2725 213 2448 61 
Q 2172 -91 1784 -91 
Q 1150 -91 751 415 
Q 353 922 353 1747 
Q 353 2572 751 3078 
Q 1150 3584 1784 3584 
Q 2172 3584 2448 3432 
Q 2725 3281 2906 2969 
z
M 947 1747 
Q 947 1113 1208 752 
Q 1469 391 1925 391 
Q 2381 391 2643 752 
Q 2906 1113 2906 1747 
Q 2906 2381 2643 2742 
Q 2381 3103 1925 3103 
Q 1469 3103 1208 2742 
Q 947 2381 947 1747 
z
" transform="scale(0.015625)"/>
      <path id="DejaVuSans-69" d="M 603 3500 
L 1178 3500 
L 1178 0 
L 603 0 
L 603 3500 
z
M 603 4863 
L 1178 4863 
L 1178 4134 
L 603 4134 
L 603 4863 
z
" transform="scale(0.015625)"/>
     </defs>
     <use xlink:href="#DejaVuSans-7a"/>
     <use xlink:href="#DejaVuSans-68" x="52.490234"/>
     <use xlink:href="#DejaVuSans-61" x="115.869141"/>
     <use xlink:href="#DejaVuSans-6e" x="177.148438"/>
     <use xlink:href="#DejaVuSans-67" x="240.527344"/>
     <use xlink:href="#DejaVuSans-5f" x="304.003906"/>
     <use xlink:href="#DejaVuSans-6a" x="354.003906"/>
     <use xlink:href="#DejaVuSans-61" x="381.787109"/>
     <use xlink:href="#DejaVuSans-63" x="443.066406"/>
     <use xlink:href="#DejaVuSans-63" x="498.046875"/>
     <use xlink:href="#DejaVuSans-61" x="553.027344"/>
     <use xlink:href="#DejaVuSans-72" x="614.306641"/>
     <use xlink:href="#DejaVuSans-64" x="653.669922"/>
     <use xlink:href="#DejaVuSans-5f" x="717.146484"/>
     <use xlink:href="#DejaVuSans-63" x="767.146484"/>
     <use xlink:href="#DejaVuSans-63" x="822.126953"/>
     <use xlink:href="#DejaVuSans-69" x="877.107422"/>
    </g>
   </g>
   <g id="legend_1">
    <g id="patch_7">
     <path d="M 64.6 108.1845 
L 200.035938 108.1845 
Q 202.035938 108.1845 202.035938 106.1845 
L 202.035938 48.472 
Q 202.035938 46.472 200.035938 46.472 
L 64.6 46.472 
Q 62.6 46.472 62.6 48.472 
L 62.6 106.1845 
Q 62.6 108.1845 64.6 108.1845 
z
" style="fill: #ffffff; opacity: 0.8; stroke: #cccccc; stroke-linejoin: miter"/>
    </g>
    <g id="line2d_18">
     <path d="M 66.6 54.570438 
L 76.6 54.570438 
L 86.6 54.570438 
" style="fill: none; stroke: #1f77b4; stroke-opacity: 0.7; stroke-width: 0.5; stroke-linecap: square"/>
    </g>
    <g id="text_15">
     <!-- Positive predictions -->
     <g transform="translate(94.6 58.070438) scale(0.1 -0.1)">
      <defs>
       <path id="DejaVuSans-50" d="M 1259 4147 
L 1259 2394 
L 2053 2394 
Q 2494 2394 2734 2622 
Q 2975 2850 2975 3272 
Q 2975 3691 2734 3919 
Q 2494 4147 2053 4147 
L 1259 4147 
z
M 628 4666 
L 2053 4666 
Q 2838 4666 3239 4311 
Q 3641 3956 3641 3272 
Q 3641 2581 3239 2228 
Q 2838 1875 2053 1875 
L 1259 1875 
L 1259 0 
L 628 0 
L 628 4666 
z
" transform="scale(0.015625)"/>
       <path id="DejaVuSans-6f" d="M 1959 3097 
Q 1497 3097 1228 2736 
Q 959 2375 959 1747 
Q 959 1119 1226 758 
Q 1494 397 1959 397 
Q 2419 397 2687 759 
Q 2956 1122 2956 1747 
Q 2956 2369 2687 2733 
Q 2419 3097 1959 3097 
z
M 1959 3584 
Q 2709 3584 3137 3096 
Q 3566 2609 3566 1747 
Q 3566 888 3137 398 
Q 2709 -91 1959 -91 
Q 1206 -91 779 398 
Q 353 888 353 1747 
Q 353 2609 779 3096 
Q 1206 3584 1959 3584 
z
" transform="scale(0.015625)"/>
       <path id="DejaVuSans-73" d="M 2834 3397 
L 2834 2853 
Q 2591 2978 2328 3040 
Q 2066 3103 1784 3103 
Q 1356 3103 1142 2972 
Q 928 2841 928 2578 
Q 928 2378 1081 2264 
Q 1234 2150 1697 2047 
L 1894 2003 
Q 2506 1872 2764 1633 
Q 3022 1394 3022 966 
Q 3022 478 2636 193 
Q 2250 -91 1575 -91 
Q 1294 -91 989 -36 
Q 684 19 347 128 
L 347 722 
Q 666 556 975 473 
Q 1284 391 1588 391 
Q 1994 391 2212 530 
Q 2431 669 2431 922 
Q 2431 1156 2273 1281 
Q 2116 1406 1581 1522 
L 1381 1569 
Q 847 1681 609 1914 
Q 372 2147 372 2553 
Q 372 3047 722 3315 
Q 1072 3584 1716 3584 
Q 2034 3584 2315 3537 
Q 2597 3491 2834 3397 
z
" transform="scale(0.015625)"/>
       <path id="DejaVuSans-74" d="M 1172 4494 
L 1172 3500 
L 2356 3500 
L 2356 3053 
L 1172 3053 
L 1172 1153 
Q 1172 725 1289 603 
Q 1406 481 1766 481 
L 2356 481 
L 2356 0 
L 1766 0 
Q 1100 0 847 248 
Q 594 497 594 1153 
L 594 3053 
L 172 3053 
L 172 3500 
L 594 3500 
L 594 4494 
L 1172 4494 
z
" transform="scale(0.015625)"/>
       <path id="DejaVuSans-76" d="M 191 3500 
L 800 3500 
L 1894 563 
L 2988 3500 
L 3597 3500 
L 2284 0 
L 1503 0 
L 191 3500 
z
" transform="scale(0.015625)"/>
       <path id="DejaVuSans-65" d="M 3597 1894 
L 3597 1613 
L 953 1613 
Q 991 1019 1311 708 
Q 1631 397 2203 397 
Q 2534 397 2845 478 
Q 3156 559 3463 722 
L 3463 178 
Q 3153 47 2828 -22 
Q 2503 -91 2169 -91 
Q 1331 -91 842 396 
Q 353 884 353 1716 
Q 353 2575 817 3079 
Q 1281 3584 2069 3584 
Q 2775 3584 3186 3129 
Q 3597 2675 3597 1894 
z
M 3022 2063 
Q 3016 2534 2758 2815 
Q 2500 3097 2075 3097 
Q 1594 3097 1305 2825 
Q 1016 2553 972 2059 
L 3022 2063 
z
" transform="scale(0.015625)"/>
       <path id="DejaVuSans-20" transform="scale(0.015625)"/>
       <path id="DejaVuSans-70" d="M 1159 525 
L 1159 -1331 
L 581 -1331 
L 581 3500 
L 1159 3500 
L 1159 2969 
Q 1341 3281 1617 3432 
Q 1894 3584 2278 3584 
Q 2916 3584 3314 3078 
Q 3713 2572 3713 1747 
Q 3713 922 3314 415 
Q 2916 -91 2278 -91 
Q 1894 -91 1617 61 
Q 1341 213 1159 525 
z
M 3116 1747 
Q 3116 2381 2855 2742 
Q 2594 3103 2138 3103 
Q 1681 3103 1420 2742 
Q 1159 2381 1159 1747 
Q 1159 1113 1420 752 
Q 1681 391 2138 391 
Q 2594 391 2855 752 
Q 3116 1113 3116 1747 
z
" transform="scale(0.015625)"/>
      </defs>
      <use xlink:href="#DejaVuSans-50"/>
      <use xlink:href="#DejaVuSans-6f" x="56.677734"/>
      <use xlink:href="#DejaVuSans-73" x="117.859375"/>
      <use xlink:href="#DejaVuSans-69" x="169.958984"/>
      <use xlink:href="#DejaVuSans-74" x="197.742188"/>
      <use xlink:href="#DejaVuSans-69" x="236.951172"/>
      <use xlink:href="#DejaVuSans-76" x="264.734375"/>
      <use xlink:href="#DejaVuSans-65" x="323.914062"/>
      <use xlink:href="#DejaVuSans-20" x="385.4375"/>
      <use xlink:href="#DejaVuSans-70" x="417.224609"/>
      <use xlink:href="#DejaVuSans-72" x="480.701172"/>
      <use xlink:href="#DejaVuSans-65" x="519.564453"/>
      <use xlink:href="#DejaVuSans-64" x="581.087891"/>
      <use xlink:href="#DejaVuSans-69" x="644.564453"/>
      <use xlink:href="#DejaVuSans-63" x="672.347656"/>
      <use xlink:href="#DejaVuSans-74" x="727.328125"/>
      <use xlink:href="#DejaVuSans-69" x="766.537109"/>
      <use xlink:href="#DejaVuSans-6f" x="794.320312"/>
      <use xlink:href="#DejaVuSans-6e" x="855.501953"/>
      <use xlink:href="#DejaVuSans-73" x="918.880859"/>
     </g>
    </g>
    <g id="line2d_19">
     <path d="M 66.6 69.248563 
L 76.6 69.248563 
L 86.6 69.248563 
" style="fill: none; stroke: #ff7f0e; stroke-opacity: 0.7; stroke-width: 0.5; stroke-linecap: square"/>
    </g>
    <g id="text_16">
     <!-- Negative predictions -->
     <g transform="translate(94.6 72.748563) scale(0.1 -0.1)">
      <defs>
       <path id="DejaVuSans-4e" d="M 628 4666 
L 1478 4666 
L 3547 763 
L 3547 4666 
L 4159 4666 
L 4159 0 
L 3309 0 
L 1241 3903 
L 1241 0 
L 628 0 
L 628 4666 
z
" transform="scale(0.015625)"/>
      </defs>
      <use xlink:href="#DejaVuSans-4e"/>
      <use xlink:href="#DejaVuSans-65" x="74.804688"/>
      <use xlink:href="#DejaVuSans-67" x="136.328125"/>
      <use xlink:href="#DejaVuSans-61" x="199.804688"/>
      <use xlink:href="#DejaVuSans-74" x="261.083984"/>
      <use xlink:href="#DejaVuSans-69" x="300.292969"/>
      <use xlink:href="#DejaVuSans-76" x="328.076172"/>
      <use xlink:href="#DejaVuSans-65" x="387.255859"/>
      <use xlink:href="#DejaVuSans-20" x="448.779297"/>
      <use xlink:href="#DejaVuSans-70" x="480.566406"/>
      <use xlink:href="#DejaVuSans-72" x="544.042969"/>
      <use xlink:href="#DejaVuSans-65" x="582.90625"/>
      <use xlink:href="#DejaVuSans-64" x="644.429688"/>
      <use xlink:href="#DejaVuSans-69" x="707.90625"/>
      <use xlink:href="#DejaVuSans-63" x="735.689453"/>
      <use xlink:href="#DejaVuSans-74" x="790.669922"/>
      <use xlink:href="#DejaVuSans-69" x="829.878906"/>
      <use xlink:href="#DejaVuSans-6f" x="857.662109"/>
      <use xlink:href="#DejaVuSans-6e" x="918.84375"/>
      <use xlink:href="#DejaVuSans-73" x="982.222656"/>
     </g>
    </g>
    <g id="line2d_20">
     <path d="M 66.6 83.926688 
L 76.6 83.926688 
L 86.6 83.926688 
" style="fill: none; stroke: #2ca02c; stroke-opacity: 0.7; stroke-width: 0.5; stroke-linecap: square"/>
    </g>
    <g id="text_17">
     <!-- Average predictions -->
     <g transform="translate(94.6 87.426688) scale(0.1 -0.1)">
      <defs>
       <path id="DejaVuSans-41" d="M 2188 4044 
L 1331 1722 
L 3047 1722 
L 2188 4044 
z
M 1831 4666 
L 2547 4666 
L 4325 0 
L 3669 0 
L 3244 1197 
L 1141 1197 
L 716 0 
L 50 0 
L 1831 4666 
z
" transform="scale(0.015625)"/>
      </defs>
      <use xlink:href="#DejaVuSans-41"/>
      <use xlink:href="#DejaVuSans-76" x="62.533203"/>
      <use xlink:href="#DejaVuSans-65" x="121.712891"/>
      <use xlink:href="#DejaVuSans-72" x="183.236328"/>
      <use xlink:href="#DejaVuSans-61" x="224.349609"/>
      <use xlink:href="#DejaVuSans-67" x="285.628906"/>
      <use xlink:href="#DejaVuSans-65" x="349.105469"/>
      <use xlink:href="#DejaVuSans-20" x="410.628906"/>
      <use xlink:href="#DejaVuSans-70" x="442.416016"/>
      <use xlink:href="#DejaVuSans-72" x="505.892578"/>
      <use xlink:href="#DejaVuSans-65" x="544.755859"/>
      <use xlink:href="#DejaVuSans-64" x="606.279297"/>
      <use xlink:href="#DejaVuSans-69" x="669.755859"/>
      <use xlink:href="#DejaVuSans-63" x="697.539062"/>
      <use xlink:href="#DejaVuSans-74" x="752.519531"/>
      <use xlink:href="#DejaVuSans-69" x="791.728516"/>
      <use xlink:href="#DejaVuSans-6f" x="819.511719"/>
      <use xlink:href="#DejaVuSans-6e" x="880.693359"/>
      <use xlink:href="#DejaVuSans-73" x="944.072266"/>
     </g>
    </g>
    <g id="line2d_21">
     <path d="M 66.6 98.604813 
L 76.6 98.604813 
L 86.6 98.604813 
" style="fill: none; stroke: #d62728; stroke-opacity: 0.7; stroke-width: 0.5; stroke-linecap: square"/>
    </g>
    <g id="text_18">
     <!-- Actual values -->
     <g transform="translate(94.6 102.104813) scale(0.1 -0.1)">
      <defs>
       <path id="DejaVuSans-75" d="M 544 1381 
L 544 3500 
L 1119 3500 
L 1119 1403 
Q 1119 906 1312 657 
Q 1506 409 1894 409 
Q 2359 409 2629 706 
Q 2900 1003 2900 1516 
L 2900 3500 
L 3475 3500 
L 3475 0 
L 2900 0 
L 2900 538 
Q 2691 219 2414 64 
Q 2138 -91 1772 -91 
Q 1169 -91 856 284 
Q 544 659 544 1381 
z
M 1991 3584 
L 1991 3584 
z
" transform="scale(0.015625)"/>
       <path id="DejaVuSans-6c" d="M 603 4863 
L 1178 4863 
L 1178 0 
L 603 0 
L 603 4863 
z
" transform="scale(0.015625)"/>
      </defs>
      <use xlink:href="#DejaVuSans-41"/>
      <use xlink:href="#DejaVuSans-63" x="66.658203"/>
      <use xlink:href="#DejaVuSans-74" x="121.638672"/>
      <use xlink:href="#DejaVuSans-75" x="160.847656"/>
      <use xlink:href="#DejaVuSans-61" x="224.226562"/>
      <use xlink:href="#DejaVuSans-6c" x="285.505859"/>
      <use xlink:href="#DejaVuSans-20" x="313.289062"/>
      <use xlink:href="#DejaVuSans-76" x="345.076172"/>
      <use xlink:href="#DejaVuSans-61" x="404.255859"/>
      <use xlink:href="#DejaVuSans-6c" x="465.535156"/>
      <use xlink:href="#DejaVuSans-75" x="493.318359"/>
      <use xlink:href="#DejaVuSans-65" x="556.697266"/>
      <use xlink:href="#DejaVuSans-73" x="618.220703"/>
     </g>
    </g>
   </g>
  </g>
 </g>
 <defs>
  <clipPath id="pc70c2ed3e5">
   <rect x="57.6" y="41.472" width="357.12" height="266.112"/>
  </clipPath>
 </defs>
</svg>
