<?xml version="1.0" encoding="utf-8" standalone="no"?>
<!DOCTYPE svg PUBLIC "-//W3C//DTD SVG 1.1//EN"
  "http://www.w3.org/Graphics/SVG/1.1/DTD/svg11.dtd">
<svg xmlns:xlink="http://www.w3.org/1999/xlink" width="460.8pt" height="345.6pt" viewBox="0 0 460.8 345.6" xmlns="http://www.w3.org/2000/svg" version="1.1">
 <metadata>
  <rdf:RDF xmlns:dc="http://purl.org/dc/elements/1.1/" xmlns:cc="http://creativecommons.org/ns#" xmlns:rdf="http://www.w3.org/1999/02/22-rdf-syntax-ns#">
   <cc:Work>
    <dc:type rdf:resource="http://purl.org/dc/dcmitype/StillImage"/>
    <dc:date>2024-07-19T13:20:03.041583</dc:date>
    <dc:format>image/svg+xml</dc:format>
    <dc:creator>
     <cc:Agent>
      <dc:title>Matplotlib v3.9.0, https://matplotlib.org/</dc:title>
     </cc:Agent>
    </dc:creator>
   </cc:Work>
  </rdf:RDF>
 </metadata>
 <defs>
  <style type="text/css">*{stroke-linejoin: round; stroke-linecap: butt}</style>
 </defs>
 <g id="figure_1">
  <g id="patch_1">
   <path d="M 0 345.6 
L 460.8 345.6 
L 460.8 0 
L 0 0 
z
" style="fill: #ffffff"/>
  </g>
  <g id="axes_1">
   <g id="patch_2">
    <path d="M 57.6 307.584 
L 414.72 307.584 
L 414.72 41.472 
L 57.6 41.472 
z
" style="fill: #ffffff"/>
   </g>
   <g id="matplotlib.axis_1">
    <g id="xtick_1">
     <g id="line2d_1">
      <defs>
       <path id="mf1cde751f9" d="M 0 0 
L 0 3.5 
" style="stroke: #000000; stroke-width: 0.8"/>
      </defs>
      <g>
       <use xlink:href="#mf1cde751f9" x="73.832727" y="307.584" style="stroke: #000000; stroke-width: 0.8"/>
      </g>
     </g>
     <g id="text_1">
      <!-- 0 -->
      <g transform="translate(70.651477 322.182437) scale(0.1 -0.1)">
       <defs>
        <path id="DejaVuSans-30" d="M 2034 4250 
Q 1547 4250 1301 3770 
Q 1056 3291 1056 2328 
Q 1056 1369 1301 889 
Q 1547 409 2034 409 
Q 2525 409 2770 889 
Q 3016 1369 3016 2328 
Q 3016 3291 2770 3770 
Q 2525 4250 2034 4250 
z
M 2034 4750 
Q 2819 4750 3233 4129 
Q 3647 3509 3647 2328 
Q 3647 1150 3233 529 
Q 2819 -91 2034 -91 
Q 1250 -91 836 529 
Q 422 1150 422 2328 
Q 422 3509 836 4129 
Q 1250 4750 2034 4750 
z
" transform="scale(0.015625)"/>
       </defs>
       <use xlink:href="#DejaVuSans-30"/>
      </g>
     </g>
    </g>
    <g id="xtick_2">
     <g id="line2d_2">
      <g>
       <use xlink:href="#mf1cde751f9" x="149.333784" y="307.584" style="stroke: #000000; stroke-width: 0.8"/>
      </g>
     </g>
     <g id="text_2">
      <!-- 50 -->
      <g transform="translate(142.971284 322.182437) scale(0.1 -0.1)">
       <defs>
        <path id="DejaVuSans-35" d="M 691 4666 
L 3169 4666 
L 3169 4134 
L 1269 4134 
L 1269 2991 
Q 1406 3038 1543 3061 
Q 1681 3084 1819 3084 
Q 2600 3084 3056 2656 
Q 3513 2228 3513 1497 
Q 3513 744 3044 326 
Q 2575 -91 1722 -91 
Q 1428 -91 1123 -41 
Q 819 9 494 109 
L 494 744 
Q 775 591 1075 516 
Q 1375 441 1709 441 
Q 2250 441 2565 725 
Q 2881 1009 2881 1497 
Q 2881 1984 2565 2268 
Q 2250 2553 1709 2553 
Q 1456 2553 1204 2497 
Q 953 2441 691 2322 
L 691 4666 
z
" transform="scale(0.015625)"/>
       </defs>
       <use xlink:href="#DejaVuSans-35"/>
       <use xlink:href="#DejaVuSans-30" x="63.623047"/>
      </g>
     </g>
    </g>
    <g id="xtick_3">
     <g id="line2d_3">
      <g>
       <use xlink:href="#mf1cde751f9" x="224.834841" y="307.584" style="stroke: #000000; stroke-width: 0.8"/>
      </g>
     </g>
     <g id="text_3">
      <!-- 100 -->
      <g transform="translate(215.291091 322.182437) scale(0.1 -0.1)">
       <defs>
        <path id="DejaVuSans-31" d="M 794 531 
L 1825 531 
L 1825 4091 
L 703 3866 
L 703 4441 
L 1819 4666 
L 2450 4666 
L 2450 531 
L 3481 531 
L 3481 0 
L 794 0 
L 794 531 
z
" transform="scale(0.015625)"/>
       </defs>
       <use xlink:href="#DejaVuSans-31"/>
       <use xlink:href="#DejaVuSans-30" x="63.623047"/>
       <use xlink:href="#DejaVuSans-30" x="127.246094"/>
      </g>
     </g>
    </g>
    <g id="xtick_4">
     <g id="line2d_4">
      <g>
       <use xlink:href="#mf1cde751f9" x="300.335899" y="307.584" style="stroke: #000000; stroke-width: 0.8"/>
      </g>
     </g>
     <g id="text_4">
      <!-- 150 -->
      <g transform="translate(290.792149 322.182437) scale(0.1 -0.1)">
       <use xlink:href="#DejaVuSans-31"/>
       <use xlink:href="#DejaVuSans-35" x="63.623047"/>
       <use xlink:href="#DejaVuSans-30" x="127.246094"/>
      </g>
     </g>
    </g>
    <g id="xtick_5">
     <g id="line2d_5">
      <g>
       <use xlink:href="#mf1cde751f9" x="375.836956" y="307.584" style="stroke: #000000; stroke-width: 0.8"/>
      </g>
     </g>
     <g id="text_5">
      <!-- 200 -->
      <g transform="translate(366.293206 322.182437) scale(0.1 -0.1)">
       <defs>
        <path id="DejaVuSans-32" d="M 1228 531 
L 3431 531 
L 3431 0 
L 469 0 
L 469 531 
Q 828 903 1448 1529 
Q 2069 2156 2228 2338 
Q 2531 2678 2651 2914 
Q 2772 3150 2772 3378 
Q 2772 3750 2511 3984 
Q 2250 4219 1831 4219 
Q 1534 4219 1204 4116 
Q 875 4013 500 3803 
L 500 4441 
Q 881 4594 1212 4672 
Q 1544 4750 1819 4750 
Q 2544 4750 2975 4387 
Q 3406 4025 3406 3419 
Q 3406 3131 3298 2873 
Q 3191 2616 2906 2266 
Q 2828 2175 2409 1742 
Q 1991 1309 1228 531 
z
" transform="scale(0.015625)"/>
       </defs>
       <use xlink:href="#DejaVuSans-32"/>
       <use xlink:href="#DejaVuSans-30" x="63.623047"/>
       <use xlink:href="#DejaVuSans-30" x="127.246094"/>
      </g>
     </g>
    </g>
   </g>
   <g id="matplotlib.axis_2">
    <g id="ytick_1">
     <g id="line2d_6">
      <defs>
       <path id="mb35092f4af" d="M 0 0 
L -3.5 0 
" style="stroke: #000000; stroke-width: 0.8"/>
      </defs>
      <g>
       <use xlink:href="#mb35092f4af" x="57.6" y="307.40966" style="stroke: #000000; stroke-width: 0.8"/>
      </g>
     </g>
     <g id="text_6">
      <!-- −8000 -->
      <g transform="translate(16.770313 311.208879) scale(0.1 -0.1)">
       <defs>
        <path id="DejaVuSans-2212" d="M 678 2272 
L 4684 2272 
L 4684 1741 
L 678 1741 
L 678 2272 
z
" transform="scale(0.015625)"/>
        <path id="DejaVuSans-38" d="M 2034 2216 
Q 1584 2216 1326 1975 
Q 1069 1734 1069 1313 
Q 1069 891 1326 650 
Q 1584 409 2034 409 
Q 2484 409 2743 651 
Q 3003 894 3003 1313 
Q 3003 1734 2745 1975 
Q 2488 2216 2034 2216 
z
M 1403 2484 
Q 997 2584 770 2862 
Q 544 3141 544 3541 
Q 544 4100 942 4425 
Q 1341 4750 2034 4750 
Q 2731 4750 3128 4425 
Q 3525 4100 3525 3541 
Q 3525 3141 3298 2862 
Q 3072 2584 2669 2484 
Q 3125 2378 3379 2068 
Q 3634 1759 3634 1313 
Q 3634 634 3220 271 
Q 2806 -91 2034 -91 
Q 1263 -91 848 271 
Q 434 634 434 1313 
Q 434 1759 690 2068 
Q 947 2378 1403 2484 
z
M 1172 3481 
Q 1172 3119 1398 2916 
Q 1625 2713 2034 2713 
Q 2441 2713 2670 2916 
Q 2900 3119 2900 3481 
Q 2900 3844 2670 4047 
Q 2441 4250 2034 4250 
Q 1625 4250 1398 4047 
Q 1172 3844 1172 3481 
z
" transform="scale(0.015625)"/>
       </defs>
       <use xlink:href="#DejaVuSans-2212"/>
       <use xlink:href="#DejaVuSans-38" x="83.789062"/>
       <use xlink:href="#DejaVuSans-30" x="147.412109"/>
       <use xlink:href="#DejaVuSans-30" x="211.035156"/>
       <use xlink:href="#DejaVuSans-30" x="274.658203"/>
      </g>
     </g>
    </g>
    <g id="ytick_2">
     <g id="line2d_7">
      <g>
       <use xlink:href="#mb35092f4af" x="57.6" y="274.924772" style="stroke: #000000; stroke-width: 0.8"/>
      </g>
     </g>
     <g id="text_7">
      <!-- −6000 -->
      <g transform="translate(16.770313 278.72399) scale(0.1 -0.1)">
       <defs>
        <path id="DejaVuSans-36" d="M 2113 2584 
Q 1688 2584 1439 2293 
Q 1191 2003 1191 1497 
Q 1191 994 1439 701 
Q 1688 409 2113 409 
Q 2538 409 2786 701 
Q 3034 994 3034 1497 
Q 3034 2003 2786 2293 
Q 2538 2584 2113 2584 
z
M 3366 4563 
L 3366 3988 
Q 3128 4100 2886 4159 
Q 2644 4219 2406 4219 
Q 1781 4219 1451 3797 
Q 1122 3375 1075 2522 
Q 1259 2794 1537 2939 
Q 1816 3084 2150 3084 
Q 2853 3084 3261 2657 
Q 3669 2231 3669 1497 
Q 3669 778 3244 343 
Q 2819 -91 2113 -91 
Q 1303 -91 875 529 
Q 447 1150 447 2328 
Q 447 3434 972 4092 
Q 1497 4750 2381 4750 
Q 2619 4750 2861 4703 
Q 3103 4656 3366 4563 
z
" transform="scale(0.015625)"/>
       </defs>
       <use xlink:href="#DejaVuSans-2212"/>
       <use xlink:href="#DejaVuSans-36" x="83.789062"/>
       <use xlink:href="#DejaVuSans-30" x="147.412109"/>
       <use xlink:href="#DejaVuSans-30" x="211.035156"/>
       <use xlink:href="#DejaVuSans-30" x="274.658203"/>
      </g>
     </g>
    </g>
    <g id="ytick_3">
     <g id="line2d_8">
      <g>
       <use xlink:href="#mb35092f4af" x="57.6" y="242.439883" style="stroke: #000000; stroke-width: 0.8"/>
      </g>
     </g>
     <g id="text_8">
      <!-- −4000 -->
      <g transform="translate(16.770313 246.239102) scale(0.1 -0.1)">
       <defs>
        <path id="DejaVuSans-34" d="M 2419 4116 
L 825 1625 
L 2419 1625 
L 2419 4116 
z
M 2253 4666 
L 3047 4666 
L 3047 1625 
L 3713 1625 
L 3713 1100 
L 3047 1100 
L 3047 0 
L 2419 0 
L 2419 1100 
L 313 1100 
L 313 1709 
L 2253 4666 
z
" transform="scale(0.015625)"/>
       </defs>
       <use xlink:href="#DejaVuSans-2212"/>
       <use xlink:href="#DejaVuSans-34" x="83.789062"/>
       <use xlink:href="#DejaVuSans-30" x="147.412109"/>
       <use xlink:href="#DejaVuSans-30" x="211.035156"/>
       <use xlink:href="#DejaVuSans-30" x="274.658203"/>
      </g>
     </g>
    </g>
    <g id="ytick_4">
     <g id="line2d_9">
      <g>
       <use xlink:href="#mb35092f4af" x="57.6" y="209.954994" style="stroke: #000000; stroke-width: 0.8"/>
      </g>
     </g>
     <g id="text_9">
      <!-- −2000 -->
      <g transform="translate(16.770313 213.754213) scale(0.1 -0.1)">
       <use xlink:href="#DejaVuSans-2212"/>
       <use xlink:href="#DejaVuSans-32" x="83.789062"/>
       <use xlink:href="#DejaVuSans-30" x="147.412109"/>
       <use xlink:href="#DejaVuSans-30" x="211.035156"/>
       <use xlink:href="#DejaVuSans-30" x="274.658203"/>
      </g>
     </g>
    </g>
    <g id="ytick_5">
     <g id="line2d_10">
      <g>
       <use xlink:href="#mb35092f4af" x="57.6" y="177.470106" style="stroke: #000000; stroke-width: 0.8"/>
      </g>
     </g>
     <g id="text_10">
      <!-- 0 -->
      <g transform="translate(44.2375 181.269325) scale(0.1 -0.1)">
       <use xlink:href="#DejaVuSans-30"/>
      </g>
     </g>
    </g>
    <g id="ytick_6">
     <g id="line2d_11">
      <g>
       <use xlink:href="#mb35092f4af" x="57.6" y="144.985217" style="stroke: #000000; stroke-width: 0.8"/>
      </g>
     </g>
     <g id="text_11">
      <!-- 2000 -->
      <g transform="translate(25.15 148.784436) scale(0.1 -0.1)">
       <use xlink:href="#DejaVuSans-32"/>
       <use xlink:href="#DejaVuSans-30" x="63.623047"/>
       <use xlink:href="#DejaVuSans-30" x="127.246094"/>
       <use xlink:href="#DejaVuSans-30" x="190.869141"/>
      </g>
     </g>
    </g>
    <g id="ytick_7">
     <g id="line2d_12">
      <g>
       <use xlink:href="#mb35092f4af" x="57.6" y="112.500329" style="stroke: #000000; stroke-width: 0.8"/>
      </g>
     </g>
     <g id="text_12">
      <!-- 4000 -->
      <g transform="translate(25.15 116.299547) scale(0.1 -0.1)">
       <use xlink:href="#DejaVuSans-34"/>
       <use xlink:href="#DejaVuSans-30" x="63.623047"/>
       <use xlink:href="#DejaVuSans-30" x="127.246094"/>
       <use xlink:href="#DejaVuSans-30" x="190.869141"/>
      </g>
     </g>
    </g>
    <g id="ytick_8">
     <g id="line2d_13">
      <g>
       <use xlink:href="#mb35092f4af" x="57.6" y="80.01544" style="stroke: #000000; stroke-width: 0.8"/>
      </g>
     </g>
     <g id="text_13">
      <!-- 6000 -->
      <g transform="translate(25.15 83.814659) scale(0.1 -0.1)">
       <use xlink:href="#DejaVuSans-36"/>
       <use xlink:href="#DejaVuSans-30" x="63.623047"/>
       <use xlink:href="#DejaVuSans-30" x="127.246094"/>
       <use xlink:href="#DejaVuSans-30" x="190.869141"/>
      </g>
     </g>
    </g>
    <g id="ytick_9">
     <g id="line2d_14">
      <g>
       <use xlink:href="#mb35092f4af" x="57.6" y="47.530551" style="stroke: #000000; stroke-width: 0.8"/>
      </g>
     </g>
     <g id="text_14">
      <!-- 8000 -->
      <g transform="translate(25.15 51.32977) scale(0.1 -0.1)">
       <use xlink:href="#DejaVuSans-38"/>
       <use xlink:href="#DejaVuSans-30" x="63.623047"/>
       <use xlink:href="#DejaVuSans-30" x="127.246094"/>
       <use xlink:href="#DejaVuSans-30" x="190.869141"/>
      </g>
     </g>
    </g>
   </g>
   <g id="line2d_15">
    <path d="M 73.832727 178.778747 
L 75.342748 183.296347 
L 76.85277 176.987421 
L 78.362791 176.679198 
L 79.872812 177.273659 
L 81.382833 175.488019 
L 84.402875 181.302894 
L 85.912896 177.189809 
L 87.422918 177.646039 
L 88.932939 177.55848 
L 90.44296 176.239763 
L 91.952981 178.106228 
L 93.463002 175.825532 
L 94.973023 176.523684 
L 96.483044 178.856794 
L 97.993066 178.520844 
L 99.503087 179.196231 
L 101.013108 174.903483 
L 102.523129 177.833341 
L 104.03315 178.55491 
L 105.543171 176.892526 
L 107.053192 177.973778 
L 108.563214 178.207694 
L 110.073235 177.539367 
L 111.583256 177.408166 
L 113.093277 177.582398 
L 114.603298 177.562961 
L 116.113319 176.393589 
L 117.62334 176.117788 
L 119.133362 177.68053 
L 120.643383 177.86196 
L 122.153404 178.86418 
L 123.663425 177.691211 
L 125.173446 177.29002 
L 126.683467 177.647629 
L 128.193488 177.498726 
L 129.70351 177.973733 
L 131.213531 177.978943 
L 132.723552 177.52522 
L 134.233573 177.812675 
L 135.743594 177.559143 
L 137.253615 179.285751 
L 138.763636 177.532607 
L 140.273658 177.604841 
L 141.783679 178.489335 
L 143.2937 181.466253 
L 144.803721 176.570982 
L 146.313742 176.765068 
L 147.823763 179.826779 
L 149.333784 180.221949 
L 150.843805 176.077363 
L 153.863848 176.40324 
L 155.373869 179.524995 
L 156.88389 177.190005 
L 158.393911 176.618888 
L 159.903932 177.369445 
L 161.413953 177.58019 
L 162.923975 176.831127 
L 164.433996 175.560871 
L 165.944017 177.344633 
L 167.454038 177.428429 
L 168.964059 179.081943 
L 170.47408 176.661008 
L 171.984101 176.044711 
L 173.494123 177.961282 
L 178.024186 177.706382 
L 179.534207 179.300568 
L 181.044228 178.241607 
L 182.554249 178.888159 
L 184.064271 178.279796 
L 185.574292 176.236349 
L 187.084313 176.39074 
L 188.594334 176.917033 
L 190.104355 173.81528 
L 191.614376 178.157656 
L 193.124397 179.100833 
L 194.634419 177.230332 
L 196.14444 180.140086 
L 197.654461 178.609573 
L 199.164482 177.652208 
L 200.674503 177.012415 
L 202.184524 177.557223 
L 203.694545 176.166325 
L 205.204567 177.344985 
L 206.714588 177.949358 
L 208.224609 177.034403 
L 209.73463 180.266841 
L 211.244651 178.052252 
L 212.754672 177.486158 
L 214.264693 176.161091 
L 215.774715 176.33488 
L 217.284736 178.10856 
L 218.794757 176.908964 
L 220.304778 177.191257 
L 221.814799 178.376479 
L 223.32482 180.173257 
L 224.834841 180.893631 
L 226.344863 177.936018 
L 227.854884 181.748503 
L 229.364905 177.250801 
L 230.874926 176.905667 
L 232.384947 185.11222 
L 233.894968 185.018721 
L 236.915011 165.004676 
L 238.425032 184.107936 
L 239.935053 188.841008 
L 241.445074 171.319793 
L 242.955095 176.961322 
L 244.465116 185.129479 
L 245.975137 171.987287 
L 247.485159 186.850852 
L 248.99518 180.797168 
L 250.505201 159.850756 
L 252.015222 184.995837 
L 253.525243 170.938738 
L 255.035264 163.454039 
L 256.545285 180.600026 
L 258.055307 180.136677 
L 259.565328 168.485232 
L 261.075349 179.564546 
L 262.58537 174.206046 
L 264.095391 180.528323 
L 265.605412 185.801265 
L 267.115433 186.662948 
L 268.625455 186.361969 
L 270.135476 173.571943 
L 271.645497 171.760012 
L 273.155518 170.431741 
L 274.665539 185.41356 
L 276.17556 190.877941 
L 277.685581 180.855243 
L 279.195603 180.023598 
L 280.705624 181.911556 
L 282.215645 172.700607 
L 283.725666 170.410535 
L 285.235687 166.132652 
L 286.745708 178.104175 
L 288.255729 177.567463 
L 289.765751 170.796891 
L 291.275772 175.64269 
L 292.785793 172.539068 
L 294.295814 187.390422 
L 295.805835 172.760984 
L 297.315856 184.858483 
L 298.825877 171.876389 
L 300.335899 181.132207 
L 301.84592 186.252833 
L 303.355941 172.828873 
L 304.865962 176.407547 
L 306.375983 174.590249 
L 307.886004 167.198375 
L 309.396025 176.578185 
L 310.906047 175.940884 
L 312.416068 178.997985 
L 313.926089 163.991933 
L 315.43611 180.41562 
L 316.946131 180.402539 
L 318.456152 179.145678 
L 319.966173 180.225948 
L 321.476195 176.817613 
L 322.986216 178.486626 
L 324.496237 170.998496 
L 326.006258 176.388443 
L 327.516279 178.867424 
L 329.0263 177.110539 
L 330.536321 179.070346 
L 332.046342 177.336296 
L 333.556364 180.526394 
L 335.066385 178.965122 
L 336.576406 172.288965 
L 338.086427 177.278998 
L 339.596448 178.44545 
L 341.106469 178.304672 
L 342.61649 177.46033 
L 344.126512 177.933899 
L 345.636533 184.396789 
L 347.146554 180.555023 
L 348.656575 178.249884 
L 350.166596 175.455138 
L 351.676617 181.426714 
L 353.186638 175.818631 
L 354.69666 181.311004 
L 356.206681 182.059171 
L 357.716702 177.703347 
L 359.226723 181.307672 
L 360.736744 175.002708 
L 362.246765 179.20224 
L 363.756786 175.157235 
L 365.266808 176.172719 
L 366.776829 179.063133 
L 368.28685 175.401891 
L 369.796871 185.542981 
L 371.306892 177.36601 
L 372.816913 178.609971 
L 374.326934 175.824636 
L 375.836956 175.530687 
L 377.346977 178.368195 
L 378.856998 172.825493 
L 380.367019 177.624124 
L 381.87704 177.088315 
L 383.387061 179.734959 
L 384.897082 179.757798 
L 386.407104 175.825813 
L 387.917125 183.153837 
L 389.427146 185.543382 
L 390.937167 181.853902 
L 392.447188 176.219762 
L 393.957209 177.393313 
L 395.46723 187.007347 
L 396.977252 174.801931 
L 398.487273 175.743024 
L 398.487273 175.743024 
" clip-path="url(#p7ed4d33fd3)" style="fill: none; stroke: #008000; stroke-opacity: 0.8; stroke-width: 0.5; stroke-linecap: square"/>
   </g>
   <g id="line2d_16">
    <path d="M 73.832727 158.541821 
L 75.342748 170.485056 
L 76.85277 162.710305 
L 78.362791 163.59744 
L 79.872812 163.211217 
L 81.382833 166.614934 
L 82.892854 169.036893 
L 84.402875 174.142271 
L 85.912896 164.664654 
L 87.422918 173.490231 
L 88.932939 167.887569 
L 90.44296 170.494456 
L 91.952981 174.607339 
L 93.463002 165.378581 
L 94.973023 166.999628 
L 96.483044 176.499715 
L 97.993066 170.16586 
L 99.503087 174.185786 
L 101.013108 170.206914 
L 102.523129 171.526982 
L 104.03315 174.445541 
L 105.543171 167.218198 
L 107.053192 173.491265 
L 110.073235 176.763779 
L 111.583256 172.555564 
L 113.093277 176.795502 
L 114.603298 174.875042 
L 116.113319 167.364154 
L 117.62334 165.721178 
L 119.133362 173.482233 
L 120.643383 175.095399 
L 122.153404 173.424855 
L 123.663425 173.502548 
L 125.173446 171.877825 
L 126.683467 175.638805 
L 128.193488 175.862788 
L 129.70351 176.799971 
L 131.213531 172.037296 
L 132.723552 175.835999 
L 134.233573 177.047924 
L 135.743594 176.691917 
L 137.253615 177.022416 
L 138.763636 173.429285 
L 140.273658 173.628991 
L 141.783679 176.582704 
L 143.2937 174.003366 
L 144.803721 164.977261 
L 146.313742 167.511041 
L 147.823763 172.406508 
L 149.333784 172.857099 
L 150.843805 147.827496 
L 152.353827 159.079412 
L 153.863848 158.485877 
L 155.373869 172.086003 
L 156.88389 168.949279 
L 158.393911 163.502084 
L 159.903932 170.479079 
L 161.413953 173.34646 
L 162.923975 174.360666 
L 164.433996 159.562436 
L 165.944017 173.083762 
L 167.454038 174.715243 
L 168.964059 168.382737 
L 170.47408 170.277818 
L 171.984101 173.095971 
L 173.494123 171.792576 
L 175.004144 174.809658 
L 176.514165 172.880853 
L 178.024186 175.113888 
L 179.534207 174.35393 
L 181.044228 173.445197 
L 182.554249 172.935855 
L 184.064271 173.946223 
L 185.574292 167.523385 
L 187.084313 168.833844 
L 188.594334 164.371514 
L 190.104355 130.771778 
L 191.614376 172.008537 
L 193.124397 176.083126 
L 194.634419 170.848216 
L 196.14444 172.39244 
L 197.654461 173.520299 
L 199.164482 163.738575 
L 200.674503 170.221168 
L 202.184524 166.931841 
L 203.694545 167.763358 
L 205.204567 172.217652 
L 206.714588 175.307217 
L 208.224609 174.880722 
L 209.73463 176.20321 
L 211.244651 165.887515 
L 212.754672 169.808143 
L 214.264693 170.810572 
L 215.774715 158.438218 
L 217.284736 171.97943 
L 218.794757 169.639826 
L 220.304778 174.330788 
L 221.814799 174.092463 
L 223.32482 176.157406 
L 224.834841 171.068266 
L 226.344863 165.321994 
L 227.854884 171.111552 
L 229.364905 151.70569 
L 230.874926 163.247347 
L 232.384947 166.188903 
L 233.894968 153.677114 
L 235.404989 119.734193 
L 236.915011 109.251903 
L 238.425032 142.30317 
L 239.935053 147.471226 
L 241.445074 79.775452 
L 242.955095 129.170787 
L 244.465116 117.166423 
L 245.975137 128.229344 
L 247.485159 141.972258 
L 248.99518 141.571936 
L 250.505201 119.343791 
L 252.015222 113.597614 
L 253.525243 54.223296 
L 255.035264 80.81603 
L 256.545285 132.571034 
L 258.055307 139.159567 
L 259.565328 111.711303 
L 261.075349 127.734999 
L 262.58537 151.001647 
L 264.095391 160.21948 
L 265.605412 149.946762 
L 267.115433 158.402238 
L 268.625455 157.452109 
L 270.135476 124.304652 
L 271.645497 82.30529 
L 273.155518 105.200821 
L 274.665539 143.602007 
L 276.17556 151.614287 
L 277.685581 114.543258 
L 279.195603 120.635604 
L 280.705624 143.550643 
L 282.215645 121.514587 
L 283.725666 115.8728 
L 285.235687 104.924537 
L 286.745708 121.412039 
L 288.255729 127.174571 
L 289.765751 148.75302 
L 291.275772 154.832929 
L 292.785793 109.60066 
L 294.295814 148.758007 
L 295.805835 120.827115 
L 297.315856 153.385004 
L 298.825877 124.04381 
L 300.335899 161.595919 
L 301.84592 165.437817 
L 303.355941 138.44469 
L 304.865962 133.249847 
L 306.375983 138.963756 
L 307.886004 117.262889 
L 309.396025 143.417591 
L 310.906047 157.31005 
L 312.416068 144.749985 
L 313.926089 109.133105 
L 315.43611 163.913692 
L 316.946131 168.86809 
L 319.966173 156.962365 
L 321.476195 171.852026 
L 322.986216 169.22435 
L 324.496237 139.463893 
L 326.006258 163.347806 
L 327.516279 145.490964 
L 329.0263 166.583893 
L 330.536321 173.947968 
L 332.046342 171.928477 
L 333.556364 173.574422 
L 335.066385 170.846 
L 336.576406 135.307598 
L 338.086427 169.126083 
L 339.596448 174.097356 
L 341.106469 171.302758 
L 342.61649 165.697631 
L 344.126512 174.071618 
L 345.636533 176.904054 
L 347.146554 170.972548 
L 348.656575 162.070659 
L 350.166596 159.143348 
L 351.676617 166.618688 
L 353.186638 159.176067 
L 354.69666 156.257238 
L 356.206681 162.599391 
L 357.716702 159.522792 
L 359.226723 174.974337 
L 360.736744 151.632204 
L 363.756786 165.190788 
L 365.266808 163.501766 
L 366.776829 169.721194 
L 368.28685 155.193966 
L 369.796871 166.487695 
L 371.306892 167.424999 
L 372.816913 170.495364 
L 374.326934 158.654988 
L 375.836956 162.51165 
L 377.346977 173.930834 
L 378.856998 144.796877 
L 381.87704 166.066288 
L 383.387061 168.154413 
L 384.897082 172.696882 
L 386.407104 169.059978 
L 387.917125 175.85509 
L 389.427146 172.249447 
L 390.937167 169.625307 
L 392.447188 149.166776 
L 393.957209 145.087684 
L 395.46723 170.166187 
L 396.977252 135.408964 
L 398.487273 160.747907 
L 398.487273 160.747907 
" clip-path="url(#p7ed4d33fd3)" style="fill: none; stroke: #32cd32; stroke-opacity: 0.8; stroke-width: 0.5; stroke-linecap: square"/>
   </g>
   <g id="line2d_17">
    <path d="M 73.832727 195.208751 
L 75.342748 194.829651 
L 76.85277 193.412065 
L 79.872812 186.090524 
L 81.382833 183.287986 
L 82.892854 184.89251 
L 84.402875 193.743044 
L 85.912896 190.807355 
L 87.422918 185.936428 
L 88.932939 185.405777 
L 90.44296 183.778837 
L 91.952981 180.128494 
L 93.463002 183.246079 
L 94.973023 183.090553 
L 96.483044 181.87943 
L 97.993066 187.364019 
L 99.503087 189.403114 
L 101.013108 179.058122 
L 102.523129 182.077866 
L 104.03315 181.065115 
L 105.543171 180.743934 
L 107.053192 180.638551 
L 108.563214 181.237623 
L 110.073235 178.973525 
L 111.583256 182.24614 
L 113.093277 178.498087 
L 114.603298 178.569393 
L 116.113319 178.959541 
L 117.62334 186.726998 
L 119.133362 187.192984 
L 120.643383 181.21799 
L 122.153404 184.501639 
L 123.663425 182.033874 
L 125.173446 181.69356 
L 126.683467 178.661727 
L 128.193488 178.45112 
L 129.70351 182.079882 
L 131.213531 181.565194 
L 132.723552 179.714192 
L 134.233573 178.794626 
L 135.743594 178.361323 
L 137.253615 189.420995 
L 138.763636 179.8625 
L 140.273658 180.070466 
L 141.783679 181.947331 
L 143.2937 191.383731 
L 144.803721 197.502433 
L 146.313742 187.310183 
L 147.823763 187.502813 
L 149.333784 186.750616 
L 150.843805 202.572634 
L 152.353827 190.395299 
L 153.863848 189.757816 
L 155.373869 185.160089 
L 156.88389 190.864508 
L 158.393911 184.879531 
L 159.903932 184.965724 
L 161.413953 182.623365 
L 162.923975 179.215193 
L 164.433996 185.80293 
L 165.944017 183.136687 
L 167.454038 181.204164 
L 168.964059 196.61844 
L 170.47408 181.553573 
L 171.984101 179.189886 
L 173.494123 184.736839 
L 175.004144 180.663481 
L 176.514165 188.744738 
L 178.024186 183.036462 
L 179.534207 183.88195 
L 181.044228 188.409068 
L 182.554249 184.721749 
L 184.064271 184.394406 
L 185.574292 184.694744 
L 187.084313 181.802391 
L 188.594334 185.404582 
L 190.104355 193.263653 
L 191.614376 187.009527 
L 193.124397 185.356887 
L 194.634419 185.31676 
L 196.14444 193.589608 
L 197.654461 188.488064 
L 199.164482 186.317555 
L 200.674503 183.053752 
L 202.184524 188.925827 
L 203.694545 179.869597 
L 205.204567 183.055381 
L 206.714588 182.528035 
L 208.224609 178.362853 
L 209.73463 194.9639 
L 211.244651 185.022692 
L 212.754672 183.048908 
L 214.264693 183.204323 
L 215.774715 181.938019 
L 217.284736 183.098138 
L 218.794757 185.72531 
L 220.304778 179.992808 
L 221.814799 181.194931 
L 223.32482 192.085775 
L 224.834841 200.9141 
L 226.344863 187.637303 
L 227.854884 191.650965 
L 229.364905 200.690886 
L 230.874926 192.914069 
L 233.894968 217.857197 
L 235.404989 232.311996 
L 236.915011 212.629776 
L 238.425032 225.306217 
L 239.935053 294.828952 
L 241.445074 232.095627 
L 242.955095 247.955355 
L 244.465116 240.000155 
L 245.975137 231.308923 
L 247.485159 250.61402 
L 248.99518 234.605956 
L 250.505201 201.430883 
L 252.015222 273.898896 
L 253.525243 243.380653 
L 255.035264 241.11359 
L 256.545285 212.287435 
L 258.055307 241.799322 
L 259.565328 195.006387 
L 261.075349 208.572261 
L 262.58537 196.514461 
L 264.095391 214.611542 
L 265.605412 212.997806 
L 267.115433 218.524859 
L 268.625455 233.612641 
L 270.135476 212.89546 
L 271.645497 206.199621 
L 273.155518 210.83461 
L 274.665539 223.956728 
L 276.17556 239.279996 
L 277.685581 246.755955 
L 279.195603 242.783512 
L 280.705624 242.371644 
L 282.215645 225.177258 
L 283.725666 216.303745 
L 285.235687 231.532701 
L 286.745708 218.856171 
L 288.255729 211.403259 
L 289.765751 199.260019 
L 291.275772 196.17233 
L 292.785793 197.499582 
L 294.295814 244.789454 
L 295.805835 213.736787 
L 297.315856 265.816125 
L 298.825877 227.610753 
L 300.335899 207.404485 
L 301.84592 214.576487 
L 303.355941 189.653361 
L 304.865962 194.968403 
L 306.375983 199.262686 
L 307.886004 208.861845 
L 309.396025 203.095285 
L 310.906047 191.488715 
L 312.416068 214.286857 
L 313.926089 184.163407 
L 315.43611 207.835173 
L 316.946131 195.501581 
L 318.456152 204.962417 
L 319.966173 206.91347 
L 321.476195 190.982804 
L 322.986216 189.925019 
L 324.496237 183.301006 
L 326.006258 193.75774 
L 327.516279 210.686823 
L 329.0263 197.115977 
L 330.536321 188.898146 
L 332.046342 182.643007 
L 333.556364 189.548555 
L 335.066385 194.364278 
L 336.576406 206.340915 
L 338.086427 185.420047 
L 339.596448 189.131614 
L 341.106469 187.767849 
L 342.61649 185.024308 
L 344.126512 181.601714 
L 345.636533 195.73147 
L 347.146554 203.146223 
L 348.656575 189.396001 
L 350.166596 188.835566 
L 351.676617 212.482734 
L 353.186638 185.356742 
L 354.69666 210.363479 
L 356.206681 216.373755 
L 357.716702 192.934023 
L 359.226723 198.671117 
L 360.736744 198.804144 
L 362.246765 194.390279 
L 363.756786 188.496774 
L 365.266808 183.28658 
L 366.776829 197.032281 
L 368.28685 202.035142 
L 369.796871 204.919498 
L 371.306892 185.508721 
L 372.816913 194.864554 
L 374.326934 182.363611 
L 375.836956 185.442196 
L 377.346977 186.698304 
L 378.856998 183.602469 
L 380.367019 203.566684 
L 381.87704 185.860121 
L 383.387061 188.273854 
L 384.897082 193.82456 
L 386.407104 185.983471 
L 387.917125 200.30841 
L 389.427146 227.402556 
L 390.937167 194.021178 
L 392.447188 215.757298 
L 393.957209 204.102023 
L 395.46723 211.352903 
L 396.977252 199.502142 
L 398.487273 192.238441 
L 398.487273 192.238441 
" clip-path="url(#p7ed4d33fd3)" style="fill: none; stroke: #32cd32; stroke-opacity: 0.8; stroke-width: 0.5; stroke-linecap: square"/>
   </g>
   <g id="line2d_18">
    <path d="M 73.832727 178.937219 
L 75.342748 179.128784 
L 76.85277 176.529418 
L 78.362791 175.286861 
L 79.872812 177.339924 
L 81.382833 174.213943 
L 82.892854 177.846479 
L 84.402875 180.969752 
L 85.912896 177.948484 
L 87.422918 176.911139 
L 88.932939 176.963337 
L 90.44296 176.346759 
L 91.952981 177.70346 
L 93.463002 177.178037 
L 94.973023 176.866456 
L 96.483044 178.118633 
L 97.993066 178.53448 
L 99.503087 178.000333 
L 101.013108 175.16471 
L 102.523129 177.774339 
L 104.03315 178.577554 
L 105.543171 176.25124 
L 107.053192 177.208254 
L 108.563214 178.022277 
L 110.073235 177.42685 
L 111.583256 177.441282 
L 113.093277 177.581576 
L 114.603298 177.478573 
L 116.113319 176.071526 
L 119.133362 177.79748 
L 120.643383 177.557687 
L 122.153404 178.200953 
L 125.173446 177.420506 
L 126.683467 177.714905 
L 128.193488 177.561101 
L 129.70351 177.916592 
L 134.233573 177.746019 
L 135.743594 177.435378 
L 137.253615 179.046071 
L 138.763636 177.29739 
L 140.273658 177.634566 
L 141.783679 178.242931 
L 143.2937 180.476865 
L 144.803721 177.274343 
L 146.313742 176.388545 
L 147.823763 178.881089 
L 149.333784 179.632525 
L 150.843805 177.833139 
L 152.353827 174.790468 
L 153.863848 177.014496 
L 155.373869 178.197962 
L 156.88389 176.928542 
L 158.393911 176.809479 
L 159.903932 177.048159 
L 161.413953 176.695318 
L 162.923975 176.806902 
L 164.433996 174.66828 
L 165.944017 177.306046 
L 167.454038 177.260065 
L 168.964059 177.471224 
L 171.984101 175.708793 
L 173.494123 177.105335 
L 175.004144 177.170295 
L 176.514165 177.698701 
L 178.024186 177.526807 
L 179.534207 178.81736 
L 181.044228 178.34692 
L 182.554249 178.557978 
L 184.064271 177.673364 
L 185.574292 176.247742 
L 187.084313 175.724324 
L 188.594334 176.520124 
L 190.104355 175.353175 
L 191.614376 177.538064 
L 193.124397 178.602528 
L 194.634419 177.319176 
L 196.14444 179.629398 
L 197.654461 178.965287 
L 199.164482 176.543086 
L 200.674503 176.188696 
L 202.184524 177.652044 
L 203.694545 176.838205 
L 205.204567 176.985552 
L 206.714588 177.788537 
L 208.224609 176.991207 
L 209.73463 180.013283 
L 211.244651 178.182859 
L 212.754672 178.443351 
L 214.264693 175.87668 
L 215.774715 175.724799 
L 217.284736 178.054152 
L 218.794757 176.702254 
L 220.304778 177.147207 
L 221.814799 178.228917 
L 223.32482 179.540079 
L 224.834841 180.420035 
L 226.344863 177.385099 
L 227.854884 180.430303 
L 229.364905 176.620856 
L 230.874926 176.994867 
L 233.894968 186.157295 
L 235.404989 177.504795 
L 236.915011 167.21089 
L 238.425032 184.137066 
L 239.935053 182.724651 
L 241.445074 176.641013 
L 242.955095 178.357242 
L 244.465116 185.917138 
L 245.975137 168.730237 
L 247.485159 185.271133 
L 248.99518 183.274467 
L 250.505201 156.072828 
L 252.015222 179.450584 
L 253.525243 174.272264 
L 255.035264 159.662373 
L 256.545285 180.065941 
L 258.055307 180.657541 
L 259.565328 166.163016 
L 261.075349 177.665379 
L 262.58537 173.033591 
L 264.095391 178.124392 
L 265.605412 181.204499 
L 267.115433 179.764928 
L 268.625455 185.069953 
L 270.135476 176.097388 
L 271.645497 168.013374 
L 273.155518 166.837042 
L 274.665539 187.71651 
L 276.17556 185.82071 
L 277.685581 182.059629 
L 279.195603 171.621194 
L 280.705624 183.32487 
L 282.215645 167.136133 
L 283.725666 170.686831 
L 285.235687 159.763506 
L 286.745708 175.406382 
L 288.255729 178.848718 
L 289.765751 168.615036 
L 291.275772 177.796334 
L 292.785793 172.127652 
L 294.295814 185.377728 
L 295.805835 168.742583 
L 297.315856 181.932185 
L 298.825877 170.027838 
L 300.335899 180.699495 
L 301.84592 186.243032 
L 303.355941 170.086405 
L 304.865962 175.485065 
L 306.375983 171.075584 
L 307.886004 164.333124 
L 309.396025 178.816115 
L 310.906047 179.250065 
L 312.416068 178.456827 
L 313.926089 161.455347 
L 315.43611 179.453889 
L 316.946131 181.139356 
L 318.456152 177.024964 
L 319.966173 177.8173 
L 321.476195 174.028614 
L 322.986216 177.667926 
L 324.496237 171.786302 
L 326.006258 176.461412 
L 327.516279 178.335844 
L 329.0263 177.403753 
L 330.536321 178.31584 
L 332.046342 176.386286 
L 333.556364 179.956749 
L 335.066385 177.277866 
L 336.576406 172.56556 
L 338.086427 177.078637 
L 339.596448 179.007961 
L 341.106469 178.36114 
L 342.61649 177.07465 
L 344.126512 177.421361 
L 345.636533 183.946898 
L 347.146554 178.203329 
L 348.656575 179.169998 
L 350.166596 174.858592 
L 351.676617 182.649515 
L 353.186638 175.522955 
L 354.69666 178.482658 
L 356.206681 182.036199 
L 357.716702 178.524213 
L 359.226723 179.88309 
L 360.736744 171.998216 
L 362.246765 179.143787 
L 363.756786 174.077641 
L 366.776829 179.015651 
L 368.28685 177.643113 
L 369.796871 183.090671 
L 371.306892 178.530251 
L 372.816913 177.629075 
L 374.326934 175.302709 
L 375.836956 175.845462 
L 377.346977 178.218847 
L 378.856998 172.02834 
L 380.367019 178.184671 
L 381.87704 176.82024 
L 383.387061 177.533294 
L 384.897082 179.975636 
L 386.407104 176.648015 
L 387.917125 182.783336 
L 390.937167 180.683074 
L 392.447188 175.673699 
L 393.957209 177.583475 
L 395.46723 182.497522 
L 396.977252 177.393268 
L 398.487273 175.072527 
L 398.487273 175.072527 
" clip-path="url(#p7ed4d33fd3)" style="fill: none; stroke: #ff0000; stroke-opacity: 0.8; stroke-width: 0.5; stroke-linecap: square"/>
   </g>
   <g id="line2d_19">
    <path d="M 73.832727 159.94898 
L 75.342748 163.400303 
L 76.85277 162.986715 
L 78.362791 164.593483 
L 79.872812 165.561959 
L 81.382833 165.017238 
L 82.892854 168.409917 
L 84.402875 173.806755 
L 85.912896 163.529344 
L 87.422918 171.192238 
L 88.932939 167.237842 
L 90.44296 169.908814 
L 91.952981 175.249947 
L 93.463002 165.749452 
L 94.973023 167.004172 
L 96.483044 174.15859 
L 97.993066 170.994481 
L 99.503087 169.918178 
L 101.013108 170.71893 
L 102.523129 171.334043 
L 104.03315 174.310666 
L 105.543171 168.182126 
L 107.053192 173.82909 
L 108.563214 175.206117 
L 110.073235 176.171361 
L 111.583256 172.016608 
L 113.093277 176.79336 
L 114.603298 174.980393 
L 116.113319 167.787126 
L 117.62334 165.376396 
L 119.133362 172.873415 
L 120.643383 175.291434 
L 122.153404 173.441066 
L 123.663425 174.115105 
L 125.173446 171.609502 
L 126.683467 175.612373 
L 128.193488 176.035303 
L 129.70351 176.60176 
L 131.213531 172.400981 
L 132.723552 176.393233 
L 134.233573 176.537505 
L 135.743594 176.261091 
L 137.253615 175.141472 
L 138.763636 172.947246 
L 140.273658 173.505393 
L 141.783679 175.872874 
L 143.2937 173.641247 
L 144.803721 168.189883 
L 146.313742 168.780706 
L 147.823763 173.193718 
L 149.333784 170.917009 
L 150.843805 147.344934 
L 152.353827 158.769774 
L 153.863848 154.089027 
L 155.373869 170.957393 
L 156.88389 168.684318 
L 158.393911 163.315741 
L 159.903932 170.448285 
L 162.923975 174.696358 
L 164.433996 159.140087 
L 165.944017 173.32097 
L 167.454038 174.430167 
L 168.964059 165.433257 
L 170.47408 169.797312 
L 171.984101 171.645036 
L 173.494123 171.635613 
L 175.004144 174.187102 
L 176.514165 173.129245 
L 178.024186 174.931789 
L 179.534207 171.685956 
L 181.044228 173.385323 
L 182.554249 172.77225 
L 184.064271 171.192326 
L 185.574292 169.156773 
L 187.084313 168.922731 
L 188.594334 164.60189 
L 190.104355 129.755478 
L 191.614376 171.424189 
L 193.124397 174.522131 
L 194.634419 170.898625 
L 196.14444 173.58449 
L 197.654461 173.978662 
L 199.164482 163.351218 
L 200.674503 169.710901 
L 202.184524 167.060505 
L 203.694545 168.500987 
L 205.204567 172.64629 
L 206.714588 175.338339 
L 208.224609 175.004998 
L 209.73463 175.078049 
L 211.244651 165.929982 
L 212.754672 169.805418 
L 214.264693 171.257097 
L 215.774715 158.38176 
L 217.284736 172.154623 
L 218.794757 169.652675 
L 220.304778 174.457739 
L 221.814799 174.467325 
L 223.32482 174.602426 
L 224.834841 171.194566 
L 226.344863 165.805445 
L 227.854884 168.847589 
L 229.364905 151.405966 
L 230.874926 163.210807 
L 232.384947 157.721126 
L 233.894968 153.677114 
L 235.404989 117.980732 
L 236.915011 100.316432 
L 238.425032 142.114529 
L 239.935053 118.231945 
L 241.445074 88.690057 
L 242.955095 133.922995 
L 244.465116 118.384419 
L 245.975137 125.627799 
L 247.485159 146.961823 
L 248.99518 137.258849 
L 250.505201 103.683986 
L 252.015222 112.535047 
L 253.525243 53.568 
L 255.035264 93.62044 
L 256.545285 146.899668 
L 258.055307 139.262651 
L 259.565328 114.581112 
L 261.075349 113.083946 
L 262.58537 142.369993 
L 264.095391 159.625585 
L 265.605412 149.943849 
L 267.115433 136.912976 
L 268.625455 154.898661 
L 270.135476 143.824966 
L 271.645497 68.604615 
L 273.155518 104.989333 
L 274.665539 122.636629 
L 276.17556 151.365988 
L 277.685581 87.917262 
L 279.195603 132.431778 
L 280.705624 155.029583 
L 282.215645 120.236529 
L 283.725666 114.329323 
L 285.235687 105.089511 
L 286.745708 110.929951 
L 288.255729 130.651831 
L 289.765751 139.089682 
L 291.275772 154.86901 
L 292.785793 108.173865 
L 294.295814 144.165989 
L 295.805835 131.820653 
L 297.315856 148.532034 
L 298.825877 127.653958 
L 300.335899 159.959937 
L 301.84592 165.683199 
L 303.355941 138.386796 
L 304.865962 133.509959 
L 306.375983 138.94804 
L 307.886004 117.003132 
L 309.396025 143.231754 
L 310.906047 157.321722 
L 312.416068 144.02447 
L 313.926089 107.718647 
L 315.43611 164.439906 
L 316.946131 169.083886 
L 318.456152 159.371481 
L 319.966173 158.053063 
L 321.476195 161.997687 
L 322.986216 166.828117 
L 324.496237 139.376362 
L 326.006258 161.523568 
L 327.516279 143.655741 
L 329.0263 165.843924 
L 330.536321 169.773757 
L 332.046342 169.036788 
L 333.556364 173.756837 
L 335.066385 158.642036 
L 336.576406 134.07984 
L 338.086427 170.457764 
L 339.596448 173.628347 
L 342.61649 165.693707 
L 344.126512 174.080253 
L 345.636533 176.942158 
L 347.146554 162.346366 
L 348.656575 162.157349 
L 350.166596 159.105377 
L 351.676617 166.208758 
L 353.186638 162.174545 
L 354.69666 150.488551 
L 356.206681 163.153162 
L 357.716702 164.078168 
L 359.226723 166.456364 
L 360.736744 152.684475 
L 362.246765 158.191124 
L 363.756786 164.857857 
L 365.266808 162.830676 
L 366.776829 169.455377 
L 368.28685 156.457141 
L 369.796871 164.32094 
L 371.306892 168.028833 
L 372.816913 167.526939 
L 374.326934 158.363786 
L 375.836956 162.390473 
L 377.346977 173.96897 
L 378.856998 144.113883 
L 380.367019 162.272603 
L 381.87704 166.352397 
L 383.387061 165.235675 
L 384.897082 171.99421 
L 386.407104 169.945201 
L 387.917125 175.618878 
L 389.427146 157.520482 
L 390.937167 168.672648 
L 392.447188 149.085465 
L 393.957209 148.988091 
L 395.46723 155.754687 
L 396.977252 136.008162 
L 398.487273 158.170834 
L 398.487273 158.170834 
" clip-path="url(#p7ed4d33fd3)" style="fill: none; stroke: #f08080; stroke-opacity: 0.8; stroke-width: 0.5; stroke-linecap: square"/>
   </g>
   <g id="line2d_20">
    <path d="M 73.832727 194.634328 
L 75.342748 197.360295 
L 76.85277 190.568462 
L 78.362791 189.751998 
L 79.872812 184.416089 
L 81.382833 180.387951 
L 82.892854 184.715976 
L 84.402875 194.062168 
L 85.912896 190.733967 
L 87.422918 185.656697 
L 88.932939 181.853298 
L 90.44296 183.346163 
L 91.952981 179.96689 
L 93.463002 182.930562 
L 94.973023 183.299084 
L 96.483044 181.107713 
L 97.993066 187.469238 
L 99.503087 189.132538 
L 101.013108 181.44155 
L 102.523129 182.123296 
L 104.03315 181.859135 
L 105.543171 180.579789 
L 107.053192 180.422048 
L 108.563214 181.359719 
L 110.073235 179.198977 
L 111.583256 182.301174 
L 113.093277 177.98206 
L 114.603298 178.463769 
L 116.113319 177.961663 
L 117.62334 186.726998 
L 119.133362 187.816759 
L 120.643383 180.380515 
L 122.153404 182.633068 
L 123.663425 182.384141 
L 125.173446 181.493339 
L 126.683467 179.089615 
L 128.193488 178.425576 
L 129.70351 182.189206 
L 131.213531 181.769754 
L 132.723552 179.526111 
L 134.233573 179.076294 
L 135.743594 178.390069 
L 137.253615 189.324839 
L 138.763636 179.534228 
L 140.273658 180.336727 
L 141.783679 181.91009 
L 143.2937 190.880841 
L 144.803721 191.657892 
L 146.313742 186.165064 
L 147.823763 183.607196 
L 149.333784 187.328947 
L 150.843805 197.127507 
L 152.353827 192.760539 
L 153.863848 192.874274 
L 155.373869 184.913415 
L 156.88389 187.44832 
L 158.393911 186.592967 
L 159.903932 186.979875 
L 162.923975 178.234833 
L 164.433996 182.139326 
L 165.944017 183.703905 
L 167.454038 181.037637 
L 168.964059 196.444825 
L 170.47408 181.435208 
L 171.984101 178.863236 
L 173.494123 183.426134 
L 175.004144 181.764345 
L 176.514165 187.684568 
L 178.024186 183.123904 
L 179.534207 183.863777 
L 181.044228 188.914516 
L 182.554249 185.025941 
L 184.064271 185.821355 
L 185.574292 184.533199 
L 187.084313 181.773785 
L 188.594334 183.654067 
L 190.104355 192.737115 
L 191.614376 188.943325 
L 193.124397 184.528481 
L 194.634419 185.222913 
L 196.14444 192.581813 
L 197.654461 188.538708 
L 199.164482 185.16153 
L 200.674503 183.071561 
L 202.184524 188.850187 
L 203.694545 179.981563 
L 205.204567 183.046597 
L 206.714588 182.458221 
L 208.224609 178.032453 
L 209.73463 195.207776 
L 211.244651 186.060975 
L 212.754672 183.092709 
L 214.264693 179.411204 
L 215.774715 182.050653 
L 217.284736 182.939424 
L 218.794757 185.733167 
L 220.304778 179.996194 
L 221.814799 181.418781 
L 223.32482 189.376737 
L 224.834841 197.980014 
L 226.344863 187.646511 
L 227.854884 192.434976 
L 229.364905 193.522209 
L 230.874926 189.349088 
L 232.384947 205.994677 
L 233.894968 220.781767 
L 235.404989 232.062193 
L 236.915011 212.226505 
L 238.425032 226.343136 
L 239.935053 295.488 
L 241.445074 225.68374 
L 242.955095 249.432433 
L 244.465116 240.301731 
L 245.975137 210.155593 
L 247.485159 232.047907 
L 248.99518 241.165105 
L 250.505201 188.979359 
L 252.015222 255.355203 
L 253.525243 270.689364 
L 255.035264 240.860427 
L 256.545285 203.785985 
L 258.055307 263.997286 
L 259.565328 196.750742 
L 261.075349 216.996409 
L 262.58537 191.8974 
L 264.095391 214.400595 
L 265.605412 210.654615 
L 267.115433 220.406817 
L 268.625455 231.765981 
L 270.135476 211.021007 
L 271.645497 201.839197 
L 273.155518 211.075453 
L 274.665539 247.117807 
L 276.17556 239.312548 
L 277.685581 245.14456 
L 279.195603 211.279961 
L 280.705624 243.021447 
L 282.215645 201.961252 
L 283.725666 216.24258 
L 285.235687 196.518687 
L 286.745708 214.001432 
L 288.255729 217.493582 
L 289.765751 199.021169 
L 291.275772 196.707157 
L 292.785793 220.896247 
L 294.295814 252.715825 
L 295.805835 209.407323 
L 297.315856 265.922921 
L 298.825877 229.634582 
L 300.335899 212.117079 
L 301.84592 212.676682 
L 303.355941 188.965332 
L 304.865962 195.082492 
L 306.375983 195.204392 
L 307.886004 208.660454 
L 309.396025 203.014825 
L 310.906047 199.317494 
L 312.416068 214.250307 
L 313.926089 183.681221 
L 315.43611 202.231321 
L 316.946131 192.589379 
L 318.456152 205.648114 
L 319.966173 204.767785 
L 321.476195 187.90887 
L 322.986216 190.001842 
L 324.496237 183.265067 
L 326.006258 190.148822 
L 327.516279 210.146795 
L 329.0263 191.408066 
L 330.536321 189.922487 
L 332.046342 181.047476 
L 333.556364 189.469721 
L 335.066385 192.578111 
L 336.576406 205.533395 
L 338.086427 184.9786 
L 339.596448 190.093567 
L 341.106469 186.696746 
L 342.61649 184.954147 
L 344.126512 180.0038 
L 345.636533 194.702224 
L 347.146554 203.150981 
L 348.656575 190.319751 
L 350.166596 185.533076 
L 351.676617 212.013773 
L 353.186638 185.392004 
L 354.69666 210.383354 
L 356.206681 216.334235 
L 357.716702 194.82968 
L 359.226723 198.699295 
L 360.736744 192.259809 
L 362.246765 192.672748 
L 363.756786 187.265711 
L 365.266808 184.398272 
L 366.776829 194.82078 
L 368.28685 201.277717 
L 369.796871 204.901188 
L 371.306892 185.672191 
L 372.816913 194.449832 
L 374.326934 182.37259 
L 375.836956 184.930564 
L 377.346977 186.67901 
L 378.856998 179.886398 
L 380.367019 203.535739 
L 381.87704 186.03015 
L 383.387061 188.1771 
L 384.897082 194.405281 
L 386.407104 186.723514 
L 387.917125 199.397409 
L 389.427146 225.17196 
L 390.937167 193.900636 
L 392.447188 215.170384 
L 393.957209 203.262612 
L 395.46723 211.294868 
L 396.977252 205.646432 
L 398.487273 198.917429 
L 398.487273 198.917429 
" clip-path="url(#p7ed4d33fd3)" style="fill: none; stroke: #f08080; stroke-opacity: 0.8; stroke-width: 0.5; stroke-linecap: square"/>
   </g>
   <g id="patch_3">
    <path d="M 57.6 307.584 
L 57.6 41.472 
" style="fill: none; stroke: #000000; stroke-width: 0.8; stroke-linejoin: miter; stroke-linecap: square"/>
   </g>
   <g id="patch_4">
    <path d="M 414.72 307.584 
L 414.72 41.472 
" style="fill: none; stroke: #000000; stroke-width: 0.8; stroke-linejoin: miter; stroke-linecap: square"/>
   </g>
   <g id="patch_5">
    <path d="M 57.6 307.584 
L 414.72 307.584 
" style="fill: none; stroke: #000000; stroke-width: 0.8; stroke-linejoin: miter; stroke-linecap: square"/>
   </g>
   <g id="patch_6">
    <path d="M 57.6 41.472 
L 414.72 41.472 
" style="fill: none; stroke: #000000; stroke-width: 0.8; stroke-linejoin: miter; stroke-linecap: square"/>
   </g>
   <g id="text_15">
    <!-- zhang_btcusd -->
    <g transform="translate(194.7225 35.472) scale(0.12 -0.12)">
     <defs>
      <path id="DejaVuSans-7a" d="M 353 3500 
L 3084 3500 
L 3084 2975 
L 922 459 
L 3084 459 
L 3084 0 
L 275 0 
L 275 525 
L 2438 3041 
L 353 3041 
L 353 3500 
z
" transform="scale(0.015625)"/>
      <path id="DejaVuSans-68" d="M 3513 2113 
L 3513 0 
L 2938 0 
L 2938 2094 
Q 2938 2591 2744 2837 
Q 2550 3084 2163 3084 
Q 1697 3084 1428 2787 
Q 1159 2491 1159 1978 
L 1159 0 
L 581 0 
L 581 4863 
L 1159 4863 
L 1159 2956 
Q 1366 3272 1645 3428 
Q 1925 3584 2291 3584 
Q 2894 3584 3203 3211 
Q 3513 2838 3513 2113 
z
" transform="scale(0.015625)"/>
      <path id="DejaVuSans-61" d="M 2194 1759 
Q 1497 1759 1228 1600 
Q 959 1441 959 1056 
Q 959 750 1161 570 
Q 1363 391 1709 391 
Q 2188 391 2477 730 
Q 2766 1069 2766 1631 
L 2766 1759 
L 2194 1759 
z
M 3341 1997 
L 3341 0 
L 2766 0 
L 2766 531 
Q 2569 213 2275 61 
Q 1981 -91 1556 -91 
Q 1019 -91 701 211 
Q 384 513 384 1019 
Q 384 1609 779 1909 
Q 1175 2209 1959 2209 
L 2766 2209 
L 2766 2266 
Q 2766 2663 2505 2880 
Q 2244 3097 1772 3097 
Q 1472 3097 1187 3025 
Q 903 2953 641 2809 
L 641 3341 
Q 956 3463 1253 3523 
Q 1550 3584 1831 3584 
Q 2591 3584 2966 3190 
Q 3341 2797 3341 1997 
z
" transform="scale(0.015625)"/>
      <path id="DejaVuSans-6e" d="M 3513 2113 
L 3513 0 
L 2938 0 
L 2938 2094 
Q 2938 2591 2744 2837 
Q 2550 3084 2163 3084 
Q 1697 3084 1428 2787 
Q 1159 2491 1159 1978 
L 1159 0 
L 581 0 
L 581 3500 
L 1159 3500 
L 1159 2956 
Q 1366 3272 1645 3428 
Q 1925 3584 2291 3584 
Q 2894 3584 3203 3211 
Q 3513 2838 3513 2113 
z
" transform="scale(0.015625)"/>
      <path id="DejaVuSans-67" d="M 2906 1791 
Q 2906 2416 2648 2759 
Q 2391 3103 1925 3103 
Q 1463 3103 1205 2759 
Q 947 2416 947 1791 
Q 947 1169 1205 825 
Q 1463 481 1925 481 
Q 2391 481 2648 825 
Q 2906 1169 2906 1791 
z
M 3481 434 
Q 3481 -459 3084 -895 
Q 2688 -1331 1869 -1331 
Q 1566 -1331 1297 -1286 
Q 1028 -1241 775 -1147 
L 775 -588 
Q 1028 -725 1275 -790 
Q 1522 -856 1778 -856 
Q 2344 -856 2625 -561 
Q 2906 -266 2906 331 
L 2906 616 
Q 2728 306 2450 153 
Q 2172 0 1784 0 
Q 1141 0 747 490 
Q 353 981 353 1791 
Q 353 2603 747 3093 
Q 1141 3584 1784 3584 
Q 2172 3584 2450 3431 
Q 2728 3278 2906 2969 
L 2906 3500 
L 3481 3500 
L 3481 434 
z
" transform="scale(0.015625)"/>
      <path id="DejaVuSans-5f" d="M 3263 -1063 
L 3263 -1509 
L -63 -1509 
L -63 -1063 
L 3263 -1063 
z
" transform="scale(0.015625)"/>
      <path id="DejaVuSans-62" d="M 3116 1747 
Q 3116 2381 2855 2742 
Q 2594 3103 2138 3103 
Q 1681 3103 1420 2742 
Q 1159 2381 1159 1747 
Q 1159 1113 1420 752 
Q 1681 391 2138 391 
Q 2594 391 2855 752 
Q 3116 1113 3116 1747 
z
M 1159 2969 
Q 1341 3281 1617 3432 
Q 1894 3584 2278 3584 
Q 2916 3584 3314 3078 
Q 3713 2572 3713 1747 
Q 3713 922 3314 415 
Q 2916 -91 2278 -91 
Q 1894 -91 1617 61 
Q 1341 213 1159 525 
L 1159 0 
L 581 0 
L 581 4863 
L 1159 4863 
L 1159 2969 
z
" transform="scale(0.015625)"/>
      <path id="DejaVuSans-74" d="M 1172 4494 
L 1172 3500 
L 2356 3500 
L 2356 3053 
L 1172 3053 
L 1172 1153 
Q 1172 725 1289 603 
Q 1406 481 1766 481 
L 2356 481 
L 2356 0 
L 1766 0 
Q 1100 0 847 248 
Q 594 497 594 1153 
L 594 3053 
L 172 3053 
L 172 3500 
L 594 3500 
L 594 4494 
L 1172 4494 
z
" transform="scale(0.015625)"/>
      <path id="DejaVuSans-63" d="M 3122 3366 
L 3122 2828 
Q 2878 2963 2633 3030 
Q 2388 3097 2138 3097 
Q 1578 3097 1268 2742 
Q 959 2388 959 1747 
Q 959 1106 1268 751 
Q 1578 397 2138 397 
Q 2388 397 2633 464 
Q 2878 531 3122 666 
L 3122 134 
Q 2881 22 2623 -34 
Q 2366 -91 2075 -91 
Q 1284 -91 818 406 
Q 353 903 353 1747 
Q 353 2603 823 3093 
Q 1294 3584 2113 3584 
Q 2378 3584 2631 3529 
Q 2884 3475 3122 3366 
z
" transform="scale(0.015625)"/>
      <path id="DejaVuSans-75" d="M 544 1381 
L 544 3500 
L 1119 3500 
L 1119 1403 
Q 1119 906 1312 657 
Q 1506 409 1894 409 
Q 2359 409 2629 706 
Q 2900 1003 2900 1516 
L 2900 3500 
L 3475 3500 
L 3475 0 
L 2900 0 
L 2900 538 
Q 2691 219 2414 64 
Q 2138 -91 1772 -91 
Q 1169 -91 856 284 
Q 544 659 544 1381 
z
M 1991 3584 
L 1991 3584 
z
" transform="scale(0.015625)"/>
      <path id="DejaVuSans-73" d="M 2834 3397 
L 2834 2853 
Q 2591 2978 2328 3040 
Q 2066 3103 1784 3103 
Q 1356 3103 1142 2972 
Q 928 2841 928 2578 
Q 928 2378 1081 2264 
Q 1234 2150 1697 2047 
L 1894 2003 
Q 2506 1872 2764 1633 
Q 3022 1394 3022 966 
Q 3022 478 2636 193 
Q 2250 -91 1575 -91 
Q 1294 -91 989 -36 
Q 684 19 347 128 
L 347 722 
Q 666 556 975 473 
Q 1284 391 1588 391 
Q 1994 391 2212 530 
Q 2431 669 2431 922 
Q 2431 1156 2273 1281 
Q 2116 1406 1581 1522 
L 1381 1569 
Q 847 1681 609 1914 
Q 372 2147 372 2553 
Q 372 3047 722 3315 
Q 1072 3584 1716 3584 
Q 2034 3584 2315 3537 
Q 2597 3491 2834 3397 
z
" transform="scale(0.015625)"/>
      <path id="DejaVuSans-64" d="M 2906 2969 
L 2906 4863 
L 3481 4863 
L 3481 0 
L 2906 0 
L 2906 525 
Q 2725 213 2448 61 
Q 2172 -91 1784 -91 
Q 1150 -91 751 415 
Q 353 922 353 1747 
Q 353 2572 751 3078 
Q 1150 3584 1784 3584 
Q 2172 3584 2448 3432 
Q 2725 3281 2906 2969 
z
M 947 1747 
Q 947 1113 1208 752 
Q 1469 391 1925 391 
Q 2381 391 2643 752 
Q 2906 1113 2906 1747 
Q 2906 2381 2643 2742 
Q 2381 3103 1925 3103 
Q 1469 3103 1208 2742 
Q 947 2381 947 1747 
z
" transform="scale(0.015625)"/>
     </defs>
     <use xlink:href="#DejaVuSans-7a"/>
     <use xlink:href="#DejaVuSans-68" x="52.490234"/>
     <use xlink:href="#DejaVuSans-61" x="115.869141"/>
     <use xlink:href="#DejaVuSans-6e" x="177.148438"/>
     <use xlink:href="#DejaVuSans-67" x="240.527344"/>
     <use xlink:href="#DejaVuSans-5f" x="304.003906"/>
     <use xlink:href="#DejaVuSans-62" x="354.003906"/>
     <use xlink:href="#DejaVuSans-74" x="417.480469"/>
     <use xlink:href="#DejaVuSans-63" x="456.689453"/>
     <use xlink:href="#DejaVuSans-75" x="511.669922"/>
     <use xlink:href="#DejaVuSans-73" x="575.048828"/>
     <use xlink:href="#DejaVuSans-64" x="627.148438"/>
    </g>
   </g>
   <g id="legend_1">
    <g id="patch_7">
     <path d="M 64.6 302.584 
L 225.001563 302.584 
Q 227.001563 302.584 227.001563 300.584 
L 227.001563 213.51525 
Q 227.001563 211.51525 225.001563 211.51525 
L 64.6 211.51525 
Q 62.6 211.51525 62.6 213.51525 
L 62.6 300.584 
Q 62.6 302.584 64.6 302.584 
z
" style="fill: #ffffff; opacity: 0.8; stroke: #cccccc; stroke-linejoin: miter"/>
    </g>
    <g id="line2d_21">
     <path d="M 66.6 219.613687 
L 76.6 219.613687 
L 86.6 219.613687 
" style="fill: none; stroke: #008000; stroke-opacity: 0.8; stroke-width: 0.5; stroke-linecap: square"/>
    </g>
    <g id="text_16">
     <!-- Positive predictions -->
     <g transform="translate(94.6 223.113687) scale(0.1 -0.1)">
      <defs>
       <path id="DejaVuSans-50" d="M 1259 4147 
L 1259 2394 
L 2053 2394 
Q 2494 2394 2734 2622 
Q 2975 2850 2975 3272 
Q 2975 3691 2734 3919 
Q 2494 4147 2053 4147 
L 1259 4147 
z
M 628 4666 
L 2053 4666 
Q 2838 4666 3239 4311 
Q 3641 3956 3641 3272 
Q 3641 2581 3239 2228 
Q 2838 1875 2053 1875 
L 1259 1875 
L 1259 0 
L 628 0 
L 628 4666 
z
" transform="scale(0.015625)"/>
       <path id="DejaVuSans-6f" d="M 1959 3097 
Q 1497 3097 1228 2736 
Q 959 2375 959 1747 
Q 959 1119 1226 758 
Q 1494 397 1959 397 
Q 2419 397 2687 759 
Q 2956 1122 2956 1747 
Q 2956 2369 2687 2733 
Q 2419 3097 1959 3097 
z
M 1959 3584 
Q 2709 3584 3137 3096 
Q 3566 2609 3566 1747 
Q 3566 888 3137 398 
Q 2709 -91 1959 -91 
Q 1206 -91 779 398 
Q 353 888 353 1747 
Q 353 2609 779 3096 
Q 1206 3584 1959 3584 
z
" transform="scale(0.015625)"/>
       <path id="DejaVuSans-69" d="M 603 3500 
L 1178 3500 
L 1178 0 
L 603 0 
L 603 3500 
z
M 603 4863 
L 1178 4863 
L 1178 4134 
L 603 4134 
L 603 4863 
z
" transform="scale(0.015625)"/>
       <path id="DejaVuSans-76" d="M 191 3500 
L 800 3500 
L 1894 563 
L 2988 3500 
L 3597 3500 
L 2284 0 
L 1503 0 
L 191 3500 
z
" transform="scale(0.015625)"/>
       <path id="DejaVuSans-65" d="M 3597 1894 
L 3597 1613 
L 953 1613 
Q 991 1019 1311 708 
Q 1631 397 2203 397 
Q 2534 397 2845 478 
Q 3156 559 3463 722 
L 3463 178 
Q 3153 47 2828 -22 
Q 2503 -91 2169 -91 
Q 1331 -91 842 396 
Q 353 884 353 1716 
Q 353 2575 817 3079 
Q 1281 3584 2069 3584 
Q 2775 3584 3186 3129 
Q 3597 2675 3597 1894 
z
M 3022 2063 
Q 3016 2534 2758 2815 
Q 2500 3097 2075 3097 
Q 1594 3097 1305 2825 
Q 1016 2553 972 2059 
L 3022 2063 
z
" transform="scale(0.015625)"/>
       <path id="DejaVuSans-20" transform="scale(0.015625)"/>
       <path id="DejaVuSans-70" d="M 1159 525 
L 1159 -1331 
L 581 -1331 
L 581 3500 
L 1159 3500 
L 1159 2969 
Q 1341 3281 1617 3432 
Q 1894 3584 2278 3584 
Q 2916 3584 3314 3078 
Q 3713 2572 3713 1747 
Q 3713 922 3314 415 
Q 2916 -91 2278 -91 
Q 1894 -91 1617 61 
Q 1341 213 1159 525 
z
M 3116 1747 
Q 3116 2381 2855 2742 
Q 2594 3103 2138 3103 
Q 1681 3103 1420 2742 
Q 1159 2381 1159 1747 
Q 1159 1113 1420 752 
Q 1681 391 2138 391 
Q 2594 391 2855 752 
Q 3116 1113 3116 1747 
z
" transform="scale(0.015625)"/>
       <path id="DejaVuSans-72" d="M 2631 2963 
Q 2534 3019 2420 3045 
Q 2306 3072 2169 3072 
Q 1681 3072 1420 2755 
Q 1159 2438 1159 1844 
L 1159 0 
L 581 0 
L 581 3500 
L 1159 3500 
L 1159 2956 
Q 1341 3275 1631 3429 
Q 1922 3584 2338 3584 
Q 2397 3584 2469 3576 
Q 2541 3569 2628 3553 
L 2631 2963 
z
" transform="scale(0.015625)"/>
      </defs>
      <use xlink:href="#DejaVuSans-50"/>
      <use xlink:href="#DejaVuSans-6f" x="56.677734"/>
      <use xlink:href="#DejaVuSans-73" x="117.859375"/>
      <use xlink:href="#DejaVuSans-69" x="169.958984"/>
      <use xlink:href="#DejaVuSans-74" x="197.742188"/>
      <use xlink:href="#DejaVuSans-69" x="236.951172"/>
      <use xlink:href="#DejaVuSans-76" x="264.734375"/>
      <use xlink:href="#DejaVuSans-65" x="323.914062"/>
      <use xlink:href="#DejaVuSans-20" x="385.4375"/>
      <use xlink:href="#DejaVuSans-70" x="417.224609"/>
      <use xlink:href="#DejaVuSans-72" x="480.701172"/>
      <use xlink:href="#DejaVuSans-65" x="519.564453"/>
      <use xlink:href="#DejaVuSans-64" x="581.087891"/>
      <use xlink:href="#DejaVuSans-69" x="644.564453"/>
      <use xlink:href="#DejaVuSans-63" x="672.347656"/>
      <use xlink:href="#DejaVuSans-74" x="727.328125"/>
      <use xlink:href="#DejaVuSans-69" x="766.537109"/>
      <use xlink:href="#DejaVuSans-6f" x="794.320312"/>
      <use xlink:href="#DejaVuSans-6e" x="855.501953"/>
      <use xlink:href="#DejaVuSans-73" x="918.880859"/>
     </g>
    </g>
    <g id="line2d_22">
     <path d="M 66.6 234.291812 
L 76.6 234.291812 
L 86.6 234.291812 
" style="fill: none; stroke: #32cd32; stroke-opacity: 0.8; stroke-width: 0.5; stroke-linecap: square"/>
    </g>
    <g id="text_17">
     <!-- Positive predictions max -->
     <g transform="translate(94.6 237.791812) scale(0.1 -0.1)">
      <defs>
       <path id="DejaVuSans-6d" d="M 3328 2828 
Q 3544 3216 3844 3400 
Q 4144 3584 4550 3584 
Q 5097 3584 5394 3201 
Q 5691 2819 5691 2113 
L 5691 0 
L 5113 0 
L 5113 2094 
Q 5113 2597 4934 2840 
Q 4756 3084 4391 3084 
Q 3944 3084 3684 2787 
Q 3425 2491 3425 1978 
L 3425 0 
L 2847 0 
L 2847 2094 
Q 2847 2600 2669 2842 
Q 2491 3084 2119 3084 
Q 1678 3084 1418 2786 
Q 1159 2488 1159 1978 
L 1159 0 
L 581 0 
L 581 3500 
L 1159 3500 
L 1159 2956 
Q 1356 3278 1631 3431 
Q 1906 3584 2284 3584 
Q 2666 3584 2933 3390 
Q 3200 3197 3328 2828 
z
" transform="scale(0.015625)"/>
       <path id="DejaVuSans-78" d="M 3513 3500 
L 2247 1797 
L 3578 0 
L 2900 0 
L 1881 1375 
L 863 0 
L 184 0 
L 1544 1831 
L 300 3500 
L 978 3500 
L 1906 2253 
L 2834 3500 
L 3513 3500 
z
" transform="scale(0.015625)"/>
      </defs>
      <use xlink:href="#DejaVuSans-50"/>
      <use xlink:href="#DejaVuSans-6f" x="56.677734"/>
      <use xlink:href="#DejaVuSans-73" x="117.859375"/>
      <use xlink:href="#DejaVuSans-69" x="169.958984"/>
      <use xlink:href="#DejaVuSans-74" x="197.742188"/>
      <use xlink:href="#DejaVuSans-69" x="236.951172"/>
      <use xlink:href="#DejaVuSans-76" x="264.734375"/>
      <use xlink:href="#DejaVuSans-65" x="323.914062"/>
      <use xlink:href="#DejaVuSans-20" x="385.4375"/>
      <use xlink:href="#DejaVuSans-70" x="417.224609"/>
      <use xlink:href="#DejaVuSans-72" x="480.701172"/>
      <use xlink:href="#DejaVuSans-65" x="519.564453"/>
      <use xlink:href="#DejaVuSans-64" x="581.087891"/>
      <use xlink:href="#DejaVuSans-69" x="644.564453"/>
      <use xlink:href="#DejaVuSans-63" x="672.347656"/>
      <use xlink:href="#DejaVuSans-74" x="727.328125"/>
      <use xlink:href="#DejaVuSans-69" x="766.537109"/>
      <use xlink:href="#DejaVuSans-6f" x="794.320312"/>
      <use xlink:href="#DejaVuSans-6e" x="855.501953"/>
      <use xlink:href="#DejaVuSans-73" x="918.880859"/>
      <use xlink:href="#DejaVuSans-20" x="970.980469"/>
      <use xlink:href="#DejaVuSans-6d" x="1002.767578"/>
      <use xlink:href="#DejaVuSans-61" x="1100.179688"/>
      <use xlink:href="#DejaVuSans-78" x="1161.458984"/>
     </g>
    </g>
    <g id="line2d_23">
     <path d="M 66.6 248.969937 
L 76.6 248.969937 
L 86.6 248.969937 
" style="fill: none; stroke: #32cd32; stroke-opacity: 0.8; stroke-width: 0.5; stroke-linecap: square"/>
    </g>
    <g id="text_18">
     <!-- Positive predictions min -->
     <g transform="translate(94.6 252.469937) scale(0.1 -0.1)">
      <use xlink:href="#DejaVuSans-50"/>
      <use xlink:href="#DejaVuSans-6f" x="56.677734"/>
      <use xlink:href="#DejaVuSans-73" x="117.859375"/>
      <use xlink:href="#DejaVuSans-69" x="169.958984"/>
      <use xlink:href="#DejaVuSans-74" x="197.742188"/>
      <use xlink:href="#DejaVuSans-69" x="236.951172"/>
      <use xlink:href="#DejaVuSans-76" x="264.734375"/>
      <use xlink:href="#DejaVuSans-65" x="323.914062"/>
      <use xlink:href="#DejaVuSans-20" x="385.4375"/>
      <use xlink:href="#DejaVuSans-70" x="417.224609"/>
      <use xlink:href="#DejaVuSans-72" x="480.701172"/>
      <use xlink:href="#DejaVuSans-65" x="519.564453"/>
      <use xlink:href="#DejaVuSans-64" x="581.087891"/>
      <use xlink:href="#DejaVuSans-69" x="644.564453"/>
      <use xlink:href="#DejaVuSans-63" x="672.347656"/>
      <use xlink:href="#DejaVuSans-74" x="727.328125"/>
      <use xlink:href="#DejaVuSans-69" x="766.537109"/>
      <use xlink:href="#DejaVuSans-6f" x="794.320312"/>
      <use xlink:href="#DejaVuSans-6e" x="855.501953"/>
      <use xlink:href="#DejaVuSans-73" x="918.880859"/>
      <use xlink:href="#DejaVuSans-20" x="970.980469"/>
      <use xlink:href="#DejaVuSans-6d" x="1002.767578"/>
      <use xlink:href="#DejaVuSans-69" x="1100.179688"/>
      <use xlink:href="#DejaVuSans-6e" x="1127.962891"/>
     </g>
    </g>
    <g id="line2d_24">
     <path d="M 66.6 263.648062 
L 76.6 263.648062 
L 86.6 263.648062 
" style="fill: none; stroke: #ff0000; stroke-opacity: 0.8; stroke-width: 0.5; stroke-linecap: square"/>
    </g>
    <g id="text_19">
     <!-- Negative predictions -->
     <g transform="translate(94.6 267.148062) scale(0.1 -0.1)">
      <defs>
       <path id="DejaVuSans-4e" d="M 628 4666 
L 1478 4666 
L 3547 763 
L 3547 4666 
L 4159 4666 
L 4159 0 
L 3309 0 
L 1241 3903 
L 1241 0 
L 628 0 
L 628 4666 
z
" transform="scale(0.015625)"/>
      </defs>
      <use xlink:href="#DejaVuSans-4e"/>
      <use xlink:href="#DejaVuSans-65" x="74.804688"/>
      <use xlink:href="#DejaVuSans-67" x="136.328125"/>
      <use xlink:href="#DejaVuSans-61" x="199.804688"/>
      <use xlink:href="#DejaVuSans-74" x="261.083984"/>
      <use xlink:href="#DejaVuSans-69" x="300.292969"/>
      <use xlink:href="#DejaVuSans-76" x="328.076172"/>
      <use xlink:href="#DejaVuSans-65" x="387.255859"/>
      <use xlink:href="#DejaVuSans-20" x="448.779297"/>
      <use xlink:href="#DejaVuSans-70" x="480.566406"/>
      <use xlink:href="#DejaVuSans-72" x="544.042969"/>
      <use xlink:href="#DejaVuSans-65" x="582.90625"/>
      <use xlink:href="#DejaVuSans-64" x="644.429688"/>
      <use xlink:href="#DejaVuSans-69" x="707.90625"/>
      <use xlink:href="#DejaVuSans-63" x="735.689453"/>
      <use xlink:href="#DejaVuSans-74" x="790.669922"/>
      <use xlink:href="#DejaVuSans-69" x="829.878906"/>
      <use xlink:href="#DejaVuSans-6f" x="857.662109"/>
      <use xlink:href="#DejaVuSans-6e" x="918.84375"/>
      <use xlink:href="#DejaVuSans-73" x="982.222656"/>
     </g>
    </g>
    <g id="line2d_25">
     <path d="M 66.6 278.326188 
L 76.6 278.326188 
L 86.6 278.326188 
" style="fill: none; stroke: #f08080; stroke-opacity: 0.8; stroke-width: 0.5; stroke-linecap: square"/>
    </g>
    <g id="text_20">
     <!-- Negative predictions max -->
     <g transform="translate(94.6 281.826188) scale(0.1 -0.1)">
      <use xlink:href="#DejaVuSans-4e"/>
      <use xlink:href="#DejaVuSans-65" x="74.804688"/>
      <use xlink:href="#DejaVuSans-67" x="136.328125"/>
      <use xlink:href="#DejaVuSans-61" x="199.804688"/>
      <use xlink:href="#DejaVuSans-74" x="261.083984"/>
      <use xlink:href="#DejaVuSans-69" x="300.292969"/>
      <use xlink:href="#DejaVuSans-76" x="328.076172"/>
      <use xlink:href="#DejaVuSans-65" x="387.255859"/>
      <use xlink:href="#DejaVuSans-20" x="448.779297"/>
      <use xlink:href="#DejaVuSans-70" x="480.566406"/>
      <use xlink:href="#DejaVuSans-72" x="544.042969"/>
      <use xlink:href="#DejaVuSans-65" x="582.90625"/>
      <use xlink:href="#DejaVuSans-64" x="644.429688"/>
      <use xlink:href="#DejaVuSans-69" x="707.90625"/>
      <use xlink:href="#DejaVuSans-63" x="735.689453"/>
      <use xlink:href="#DejaVuSans-74" x="790.669922"/>
      <use xlink:href="#DejaVuSans-69" x="829.878906"/>
      <use xlink:href="#DejaVuSans-6f" x="857.662109"/>
      <use xlink:href="#DejaVuSans-6e" x="918.84375"/>
      <use xlink:href="#DejaVuSans-73" x="982.222656"/>
      <use xlink:href="#DejaVuSans-20" x="1034.322266"/>
      <use xlink:href="#DejaVuSans-6d" x="1066.109375"/>
      <use xlink:href="#DejaVuSans-61" x="1163.521484"/>
      <use xlink:href="#DejaVuSans-78" x="1224.800781"/>
     </g>
    </g>
    <g id="line2d_26">
     <path d="M 66.6 293.004312 
L 76.6 293.004312 
L 86.6 293.004312 
" style="fill: none; stroke: #f08080; stroke-opacity: 0.8; stroke-width: 0.5; stroke-linecap: square"/>
    </g>
    <g id="text_21">
     <!-- Negative predictions min -->
     <g transform="translate(94.6 296.504312) scale(0.1 -0.1)">
      <use xlink:href="#DejaVuSans-4e"/>
      <use xlink:href="#DejaVuSans-65" x="74.804688"/>
      <use xlink:href="#DejaVuSans-67" x="136.328125"/>
      <use xlink:href="#DejaVuSans-61" x="199.804688"/>
      <use xlink:href="#DejaVuSans-74" x="261.083984"/>
      <use xlink:href="#DejaVuSans-69" x="300.292969"/>
      <use xlink:href="#DejaVuSans-76" x="328.076172"/>
      <use xlink:href="#DejaVuSans-65" x="387.255859"/>
      <use xlink:href="#DejaVuSans-20" x="448.779297"/>
      <use xlink:href="#DejaVuSans-70" x="480.566406"/>
      <use xlink:href="#DejaVuSans-72" x="544.042969"/>
      <use xlink:href="#DejaVuSans-65" x="582.90625"/>
      <use xlink:href="#DejaVuSans-64" x="644.429688"/>
      <use xlink:href="#DejaVuSans-69" x="707.90625"/>
      <use xlink:href="#DejaVuSans-63" x="735.689453"/>
      <use xlink:href="#DejaVuSans-74" x="790.669922"/>
      <use xlink:href="#DejaVuSans-69" x="829.878906"/>
      <use xlink:href="#DejaVuSans-6f" x="857.662109"/>
      <use xlink:href="#DejaVuSans-6e" x="918.84375"/>
      <use xlink:href="#DejaVuSans-73" x="982.222656"/>
      <use xlink:href="#DejaVuSans-20" x="1034.322266"/>
      <use xlink:href="#DejaVuSans-6d" x="1066.109375"/>
      <use xlink:href="#DejaVuSans-69" x="1163.521484"/>
      <use xlink:href="#DejaVuSans-6e" x="1191.304688"/>
     </g>
    </g>
   </g>
  </g>
 </g>
 <defs>
  <clipPath id="p7ed4d33fd3">
   <rect x="57.6" y="41.472" width="357.12" height="266.112"/>
  </clipPath>
 </defs>
</svg>
