<?xml version="1.0" encoding="utf-8" standalone="no"?>
<!DOCTYPE svg PUBLIC "-//W3C//DTD SVG 1.1//EN"
  "http://www.w3.org/Graphics/SVG/1.1/DTD/svg11.dtd">
<svg xmlns:xlink="http://www.w3.org/1999/xlink" width="460.8pt" height="345.6pt" viewBox="0 0 460.8 345.6" xmlns="http://www.w3.org/2000/svg" version="1.1">
 <metadata>
  <rdf:RDF xmlns:dc="http://purl.org/dc/elements/1.1/" xmlns:cc="http://creativecommons.org/ns#" xmlns:rdf="http://www.w3.org/1999/02/22-rdf-syntax-ns#">
   <cc:Work>
    <dc:type rdf:resource="http://purl.org/dc/dcmitype/StillImage"/>
    <dc:date>2024-05-30T10:03:04.631166</dc:date>
    <dc:format>image/svg+xml</dc:format>
    <dc:creator>
     <cc:Agent>
      <dc:title>Matplotlib v3.9.0, https://matplotlib.org/</dc:title>
     </cc:Agent>
    </dc:creator>
   </cc:Work>
  </rdf:RDF>
 </metadata>
 <defs>
  <style type="text/css">*{stroke-linejoin: round; stroke-linecap: butt}</style>
 </defs>
 <g id="figure_1">
  <g id="patch_1">
   <path d="M 0 345.6 
L 460.8 345.6 
L 460.8 0 
L 0 0 
z
" style="fill: #ffffff"/>
  </g>
  <g id="axes_1">
   <g id="patch_2">
    <path d="M 57.6 307.584 
L 414.72 307.584 
L 414.72 41.472 
L 57.6 41.472 
z
" style="fill: #ffffff"/>
   </g>
   <g id="matplotlib.axis_1">
    <g id="xtick_1">
     <g id="line2d_1">
      <defs>
       <path id="mb7cd812ef8" d="M 0 0 
L 0 3.5 
" style="stroke: #000000; stroke-width: 0.8"/>
      </defs>
      <g>
       <use xlink:href="#mb7cd812ef8" x="73.832727" y="307.584" style="stroke: #000000; stroke-width: 0.8"/>
      </g>
     </g>
     <g id="text_1">
      <!-- 0 -->
      <g transform="translate(70.651477 322.182437) scale(0.1 -0.1)">
       <defs>
        <path id="DejaVuSans-30" d="M 2034 4250 
Q 1547 4250 1301 3770 
Q 1056 3291 1056 2328 
Q 1056 1369 1301 889 
Q 1547 409 2034 409 
Q 2525 409 2770 889 
Q 3016 1369 3016 2328 
Q 3016 3291 2770 3770 
Q 2525 4250 2034 4250 
z
M 2034 4750 
Q 2819 4750 3233 4129 
Q 3647 3509 3647 2328 
Q 3647 1150 3233 529 
Q 2819 -91 2034 -91 
Q 1250 -91 836 529 
Q 422 1150 422 2328 
Q 422 3509 836 4129 
Q 1250 4750 2034 4750 
z
" transform="scale(0.015625)"/>
       </defs>
       <use xlink:href="#DejaVuSans-30"/>
      </g>
     </g>
    </g>
    <g id="xtick_2">
     <g id="line2d_2">
      <g>
       <use xlink:href="#mb7cd812ef8" x="116.27123" y="307.584" style="stroke: #000000; stroke-width: 0.8"/>
      </g>
     </g>
     <g id="text_2">
      <!-- 20 -->
      <g transform="translate(109.90873 322.182437) scale(0.1 -0.1)">
       <defs>
        <path id="DejaVuSans-32" d="M 1228 531 
L 3431 531 
L 3431 0 
L 469 0 
L 469 531 
Q 828 903 1448 1529 
Q 2069 2156 2228 2338 
Q 2531 2678 2651 2914 
Q 2772 3150 2772 3378 
Q 2772 3750 2511 3984 
Q 2250 4219 1831 4219 
Q 1534 4219 1204 4116 
Q 875 4013 500 3803 
L 500 4441 
Q 881 4594 1212 4672 
Q 1544 4750 1819 4750 
Q 2544 4750 2975 4387 
Q 3406 4025 3406 3419 
Q 3406 3131 3298 2873 
Q 3191 2616 2906 2266 
Q 2828 2175 2409 1742 
Q 1991 1309 1228 531 
z
" transform="scale(0.015625)"/>
       </defs>
       <use xlink:href="#DejaVuSans-32"/>
       <use xlink:href="#DejaVuSans-30" x="63.623047"/>
      </g>
     </g>
    </g>
    <g id="xtick_3">
     <g id="line2d_3">
      <g>
       <use xlink:href="#mb7cd812ef8" x="158.709733" y="307.584" style="stroke: #000000; stroke-width: 0.8"/>
      </g>
     </g>
     <g id="text_3">
      <!-- 40 -->
      <g transform="translate(152.347233 322.182437) scale(0.1 -0.1)">
       <defs>
        <path id="DejaVuSans-34" d="M 2419 4116 
L 825 1625 
L 2419 1625 
L 2419 4116 
z
M 2253 4666 
L 3047 4666 
L 3047 1625 
L 3713 1625 
L 3713 1100 
L 3047 1100 
L 3047 0 
L 2419 0 
L 2419 1100 
L 313 1100 
L 313 1709 
L 2253 4666 
z
" transform="scale(0.015625)"/>
       </defs>
       <use xlink:href="#DejaVuSans-34"/>
       <use xlink:href="#DejaVuSans-30" x="63.623047"/>
      </g>
     </g>
    </g>
    <g id="xtick_4">
     <g id="line2d_4">
      <g>
       <use xlink:href="#mb7cd812ef8" x="201.148235" y="307.584" style="stroke: #000000; stroke-width: 0.8"/>
      </g>
     </g>
     <g id="text_4">
      <!-- 60 -->
      <g transform="translate(194.785735 322.182437) scale(0.1 -0.1)">
       <defs>
        <path id="DejaVuSans-36" d="M 2113 2584 
Q 1688 2584 1439 2293 
Q 1191 2003 1191 1497 
Q 1191 994 1439 701 
Q 1688 409 2113 409 
Q 2538 409 2786 701 
Q 3034 994 3034 1497 
Q 3034 2003 2786 2293 
Q 2538 2584 2113 2584 
z
M 3366 4563 
L 3366 3988 
Q 3128 4100 2886 4159 
Q 2644 4219 2406 4219 
Q 1781 4219 1451 3797 
Q 1122 3375 1075 2522 
Q 1259 2794 1537 2939 
Q 1816 3084 2150 3084 
Q 2853 3084 3261 2657 
Q 3669 2231 3669 1497 
Q 3669 778 3244 343 
Q 2819 -91 2113 -91 
Q 1303 -91 875 529 
Q 447 1150 447 2328 
Q 447 3434 972 4092 
Q 1497 4750 2381 4750 
Q 2619 4750 2861 4703 
Q 3103 4656 3366 4563 
z
" transform="scale(0.015625)"/>
       </defs>
       <use xlink:href="#DejaVuSans-36"/>
       <use xlink:href="#DejaVuSans-30" x="63.623047"/>
      </g>
     </g>
    </g>
    <g id="xtick_5">
     <g id="line2d_5">
      <g>
       <use xlink:href="#mb7cd812ef8" x="243.586738" y="307.584" style="stroke: #000000; stroke-width: 0.8"/>
      </g>
     </g>
     <g id="text_5">
      <!-- 80 -->
      <g transform="translate(237.224238 322.182437) scale(0.1 -0.1)">
       <defs>
        <path id="DejaVuSans-38" d="M 2034 2216 
Q 1584 2216 1326 1975 
Q 1069 1734 1069 1313 
Q 1069 891 1326 650 
Q 1584 409 2034 409 
Q 2484 409 2743 651 
Q 3003 894 3003 1313 
Q 3003 1734 2745 1975 
Q 2488 2216 2034 2216 
z
M 1403 2484 
Q 997 2584 770 2862 
Q 544 3141 544 3541 
Q 544 4100 942 4425 
Q 1341 4750 2034 4750 
Q 2731 4750 3128 4425 
Q 3525 4100 3525 3541 
Q 3525 3141 3298 2862 
Q 3072 2584 2669 2484 
Q 3125 2378 3379 2068 
Q 3634 1759 3634 1313 
Q 3634 634 3220 271 
Q 2806 -91 2034 -91 
Q 1263 -91 848 271 
Q 434 634 434 1313 
Q 434 1759 690 2068 
Q 947 2378 1403 2484 
z
M 1172 3481 
Q 1172 3119 1398 2916 
Q 1625 2713 2034 2713 
Q 2441 2713 2670 2916 
Q 2900 3119 2900 3481 
Q 2900 3844 2670 4047 
Q 2441 4250 2034 4250 
Q 1625 4250 1398 4047 
Q 1172 3844 1172 3481 
z
" transform="scale(0.015625)"/>
       </defs>
       <use xlink:href="#DejaVuSans-38"/>
       <use xlink:href="#DejaVuSans-30" x="63.623047"/>
      </g>
     </g>
    </g>
    <g id="xtick_6">
     <g id="line2d_6">
      <g>
       <use xlink:href="#mb7cd812ef8" x="286.025241" y="307.584" style="stroke: #000000; stroke-width: 0.8"/>
      </g>
     </g>
     <g id="text_6">
      <!-- 100 -->
      <g transform="translate(276.481491 322.182437) scale(0.1 -0.1)">
       <defs>
        <path id="DejaVuSans-31" d="M 794 531 
L 1825 531 
L 1825 4091 
L 703 3866 
L 703 4441 
L 1819 4666 
L 2450 4666 
L 2450 531 
L 3481 531 
L 3481 0 
L 794 0 
L 794 531 
z
" transform="scale(0.015625)"/>
       </defs>
       <use xlink:href="#DejaVuSans-31"/>
       <use xlink:href="#DejaVuSans-30" x="63.623047"/>
       <use xlink:href="#DejaVuSans-30" x="127.246094"/>
      </g>
     </g>
    </g>
    <g id="xtick_7">
     <g id="line2d_7">
      <g>
       <use xlink:href="#mb7cd812ef8" x="328.463743" y="307.584" style="stroke: #000000; stroke-width: 0.8"/>
      </g>
     </g>
     <g id="text_7">
      <!-- 120 -->
      <g transform="translate(318.919993 322.182437) scale(0.1 -0.1)">
       <use xlink:href="#DejaVuSans-31"/>
       <use xlink:href="#DejaVuSans-32" x="63.623047"/>
       <use xlink:href="#DejaVuSans-30" x="127.246094"/>
      </g>
     </g>
    </g>
    <g id="xtick_8">
     <g id="line2d_8">
      <g>
       <use xlink:href="#mb7cd812ef8" x="370.902246" y="307.584" style="stroke: #000000; stroke-width: 0.8"/>
      </g>
     </g>
     <g id="text_8">
      <!-- 140 -->
      <g transform="translate(361.358496 322.182437) scale(0.1 -0.1)">
       <use xlink:href="#DejaVuSans-31"/>
       <use xlink:href="#DejaVuSans-34" x="63.623047"/>
       <use xlink:href="#DejaVuSans-30" x="127.246094"/>
      </g>
     </g>
    </g>
    <g id="xtick_9">
     <g id="line2d_9">
      <g>
       <use xlink:href="#mb7cd812ef8" x="413.340749" y="307.584" style="stroke: #000000; stroke-width: 0.8"/>
      </g>
     </g>
     <g id="text_9">
      <!-- 160 -->
      <g transform="translate(403.796999 322.182437) scale(0.1 -0.1)">
       <use xlink:href="#DejaVuSans-31"/>
       <use xlink:href="#DejaVuSans-36" x="63.623047"/>
       <use xlink:href="#DejaVuSans-30" x="127.246094"/>
      </g>
     </g>
    </g>
   </g>
   <g id="matplotlib.axis_2">
    <g id="ytick_1">
     <g id="line2d_10">
      <defs>
       <path id="m57ad0b051e" d="M 0 0 
L -3.5 0 
" style="stroke: #000000; stroke-width: 0.8"/>
      </defs>
      <g>
       <use xlink:href="#m57ad0b051e" x="57.6" y="274.060099" style="stroke: #000000; stroke-width: 0.8"/>
      </g>
     </g>
     <g id="text_10">
      <!-- −0.02 -->
      <g transform="translate(19.954687 277.859317) scale(0.1 -0.1)">
       <defs>
        <path id="DejaVuSans-2212" d="M 678 2272 
L 4684 2272 
L 4684 1741 
L 678 1741 
L 678 2272 
z
" transform="scale(0.015625)"/>
        <path id="DejaVuSans-2e" d="M 684 794 
L 1344 794 
L 1344 0 
L 684 0 
L 684 794 
z
" transform="scale(0.015625)"/>
       </defs>
       <use xlink:href="#DejaVuSans-2212"/>
       <use xlink:href="#DejaVuSans-30" x="83.789062"/>
       <use xlink:href="#DejaVuSans-2e" x="147.412109"/>
       <use xlink:href="#DejaVuSans-30" x="179.199219"/>
       <use xlink:href="#DejaVuSans-32" x="242.822266"/>
      </g>
     </g>
    </g>
    <g id="ytick_2">
     <g id="line2d_11">
      <g>
       <use xlink:href="#m57ad0b051e" x="57.6" y="225.315374" style="stroke: #000000; stroke-width: 0.8"/>
      </g>
     </g>
     <g id="text_11">
      <!-- −0.01 -->
      <g transform="translate(19.954687 229.114593) scale(0.1 -0.1)">
       <use xlink:href="#DejaVuSans-2212"/>
       <use xlink:href="#DejaVuSans-30" x="83.789062"/>
       <use xlink:href="#DejaVuSans-2e" x="147.412109"/>
       <use xlink:href="#DejaVuSans-30" x="179.199219"/>
       <use xlink:href="#DejaVuSans-31" x="242.822266"/>
      </g>
     </g>
    </g>
    <g id="ytick_3">
     <g id="line2d_12">
      <g>
       <use xlink:href="#m57ad0b051e" x="57.6" y="176.57065" style="stroke: #000000; stroke-width: 0.8"/>
      </g>
     </g>
     <g id="text_12">
      <!-- 0.00 -->
      <g transform="translate(28.334375 180.369869) scale(0.1 -0.1)">
       <use xlink:href="#DejaVuSans-30"/>
       <use xlink:href="#DejaVuSans-2e" x="63.623047"/>
       <use xlink:href="#DejaVuSans-30" x="95.410156"/>
       <use xlink:href="#DejaVuSans-30" x="159.033203"/>
      </g>
     </g>
    </g>
    <g id="ytick_4">
     <g id="line2d_13">
      <g>
       <use xlink:href="#m57ad0b051e" x="57.6" y="127.825926" style="stroke: #000000; stroke-width: 0.8"/>
      </g>
     </g>
     <g id="text_13">
      <!-- 0.01 -->
      <g transform="translate(28.334375 131.625144) scale(0.1 -0.1)">
       <use xlink:href="#DejaVuSans-30"/>
       <use xlink:href="#DejaVuSans-2e" x="63.623047"/>
       <use xlink:href="#DejaVuSans-30" x="95.410156"/>
       <use xlink:href="#DejaVuSans-31" x="159.033203"/>
      </g>
     </g>
    </g>
    <g id="ytick_5">
     <g id="line2d_14">
      <g>
       <use xlink:href="#m57ad0b051e" x="57.6" y="79.081201" style="stroke: #000000; stroke-width: 0.8"/>
      </g>
     </g>
     <g id="text_14">
      <!-- 0.02 -->
      <g transform="translate(28.334375 82.88042) scale(0.1 -0.1)">
       <use xlink:href="#DejaVuSans-30"/>
       <use xlink:href="#DejaVuSans-2e" x="63.623047"/>
       <use xlink:href="#DejaVuSans-30" x="95.410156"/>
       <use xlink:href="#DejaVuSans-32" x="159.033203"/>
      </g>
     </g>
    </g>
   </g>
   <g id="line2d_15">
    <path d="M 73.832727 183.759748 
L 75.954652 180.143354 
L 78.076578 183.380485 
L 80.198503 171.662511 
L 82.320428 177.885554 
L 84.442353 178.89004 
L 86.564278 175.969003 
L 88.686203 181.536752 
L 90.808128 166.168078 
L 92.930053 180.046957 
L 95.051979 180.70988 
L 97.173904 177.66164 
L 99.295829 176.113348 
L 101.417754 185.102041 
L 103.539679 179.912777 
L 105.661604 181.166264 
L 107.783529 171.108111 
L 109.905455 177.343307 
L 112.02738 182.707224 
L 114.149305 179.342304 
L 116.27123 179.690531 
L 118.393155 172.020701 
L 120.51508 177.349089 
L 124.75893 174.492723 
L 126.880856 177.462314 
L 129.002781 179.321008 
L 131.124706 171.604086 
L 133.246631 177.428222 
L 135.368556 178.307827 
L 137.490481 176.87423 
L 139.612406 178.008891 
L 141.734332 177.548922 
L 143.856257 181.11578 
L 145.978182 175.983025 
L 148.100107 185.865956 
L 150.222032 177.219888 
L 152.343957 174.489606 
L 154.465882 180.905915 
L 156.587807 179.881518 
L 158.709733 176.929746 
L 160.831658 172.206468 
L 162.953583 179.404376 
L 165.075508 179.142562 
L 167.197433 177.846395 
L 169.319358 175.796913 
L 171.441283 174.598422 
L 173.563209 177.453856 
L 175.685134 178.892572 
L 177.807059 174.305043 
L 179.928984 175.287364 
L 182.050909 175.939436 
L 184.172834 181.101369 
L 186.294759 187.865864 
L 188.416684 158.539604 
L 190.53861 194.896795 
L 192.660535 181.584858 
L 194.78246 180.195025 
L 196.904385 174.875159 
L 199.02631 185.334453 
L 201.148235 170.490619 
L 203.27016 180.716425 
L 205.392086 178.381501 
L 207.514011 184.148664 
L 209.635936 168.58313 
L 211.757861 174.906494 
L 213.879786 180.796401 
L 216.001711 182.792995 
L 218.123636 177.51642 
L 220.245561 174.201219 
L 222.367487 175.199185 
L 224.489412 190.215389 
L 226.611337 179.799517 
L 228.733262 176.109992 
L 230.855187 174.40991 
L 232.977112 167.482076 
L 235.099037 188.475765 
L 237.220963 176.245763 
L 239.342888 179.702455 
L 241.464813 172.475548 
L 243.586738 185.512579 
L 245.708663 179.650013 
L 247.830588 177.009006 
L 249.952513 174.074431 
L 252.074439 181.831414 
L 254.196364 176.252795 
L 256.318289 175.699127 
L 258.440214 178.904325 
L 260.562139 179.844676 
L 262.684064 169.206311 
L 264.805989 171.898778 
L 266.927914 180.964238 
L 269.04984 182.066568 
L 271.171765 172.171402 
L 273.29369 179.752773 
L 275.415615 179.167918 
L 277.53754 171.175335 
L 279.659465 172.479043 
L 281.78139 183.251736 
L 283.903316 179.377399 
L 286.025241 173.134192 
L 288.147166 177.824185 
L 290.269091 176.074572 
L 292.391016 189.167231 
L 294.512941 172.889475 
L 296.634866 163.443834 
L 298.756791 196.796686 
L 300.878717 176.788642 
L 303.000642 177.146107 
L 305.122567 180.207169 
L 307.244492 172.890636 
L 309.366417 190.265656 
L 311.488342 166.821596 
L 313.610267 187.946179 
L 315.732193 172.353619 
L 317.854118 180.998182 
L 319.976043 174.644723 
L 322.097968 174.220814 
L 324.219893 182.999715 
L 326.341818 177.550188 
L 328.463743 174.504747 
L 330.585668 181.932492 
L 332.707594 170.724747 
L 334.829519 196.671106 
L 336.951444 171.575134 
L 339.073369 182.283409 
L 341.195294 181.106067 
L 343.317219 176.978095 
L 345.439144 178.861582 
L 347.56107 170.770293 
L 349.682995 189.120924 
L 351.80492 177.747986 
L 353.926845 176.91076 
L 356.04877 174.885298 
L 358.170695 181.714462 
L 360.29262 174.193045 
L 362.414545 174.432098 
L 364.536471 179.598385 
L 366.658396 179.311318 
L 368.780321 175.021808 
L 370.902246 185.691532 
L 373.024171 180.180502 
L 375.146096 173.244303 
L 377.268021 178.074152 
L 379.389947 171.115439 
L 381.511872 184.504884 
L 383.633797 178.290276 
L 385.755722 174.033912 
L 387.877647 179.617617 
L 389.999572 182.930074 
L 392.121497 184.510111 
L 394.243422 171.471094 
L 396.365348 178.528513 
L 398.487273 173.527856 
L 398.487273 173.527856 
" clip-path="url(#p66ca850dc6)" style="fill: none; stroke: #008000; stroke-opacity: 0.8; stroke-width: 0.5; stroke-linecap: square"/>
   </g>
   <g id="line2d_16">
    <path d="M 73.832727 128.793926 
L 75.954652 123.814179 
L 78.076578 135.788835 
L 80.198503 102.121211 
L 82.320428 152.397429 
L 84.442353 147.55217 
L 86.564278 133.235413 
L 88.686203 139.434449 
L 90.808128 57.474472 
L 92.930053 127.349484 
L 95.051979 151.390025 
L 97.173904 131.189858 
L 99.295829 140.648717 
L 101.417754 125.125267 
L 103.539679 143.651722 
L 105.661604 139.652742 
L 107.783529 122.792055 
L 109.905455 144.283388 
L 112.02738 143.927911 
L 114.149305 139.420309 
L 116.27123 116.299622 
L 118.393155 129.039563 
L 122.637005 101.876963 
L 124.75893 139.025464 
L 126.880856 143.928927 
L 129.002781 149.926395 
L 131.124706 125.874407 
L 133.246631 115.169416 
L 135.368556 137.938665 
L 137.490481 148.645864 
L 139.612406 143.916337 
L 141.734332 158.804637 
L 143.856257 163.648055 
L 145.978182 153.060637 
L 148.100107 154.19491 
L 150.222032 141.196387 
L 152.343957 150.158131 
L 154.465882 138.449611 
L 156.587807 148.876553 
L 158.709733 149.1577 
L 160.831658 121.980864 
L 162.953583 147.174563 
L 165.075508 163.941115 
L 167.197433 160.713492 
L 169.319358 150.118746 
L 171.441283 158.909813 
L 173.563209 122.075581 
L 175.685134 149.213291 
L 177.807059 147.980524 
L 179.928984 152.526913 
L 182.050909 133.90177 
L 184.172834 164.444477 
L 186.294759 138.43828 
L 188.416684 54.597969 
L 190.53861 79.353822 
L 192.660535 116.699987 
L 194.78246 150.217982 
L 199.02631 135.000596 
L 201.148235 131.44873 
L 203.27016 129.352476 
L 205.392086 145.204403 
L 207.514011 156.759808 
L 209.635936 95.075006 
L 211.757861 119.956249 
L 213.879786 138.383077 
L 216.001711 155.640062 
L 218.123636 138.594785 
L 220.245561 138.273252 
L 222.367487 141.233867 
L 224.489412 123.298759 
L 226.611337 164.537015 
L 228.733262 147.797193 
L 230.855187 123.088407 
L 232.977112 116.244742 
L 235.099037 147.758144 
L 237.220963 145.103295 
L 239.342888 144.79997 
L 241.464813 140.013013 
L 243.586738 145.507583 
L 245.708663 127.718181 
L 247.830588 149.342872 
L 249.952513 120.772019 
L 252.074439 137.702048 
L 254.196364 146.584242 
L 256.318289 142.962006 
L 258.440214 108.352448 
L 260.562139 163.769986 
L 262.684064 137.823495 
L 264.805989 135.36203 
L 266.927914 131.698886 
L 269.04984 157.411782 
L 271.171765 154.804715 
L 273.29369 140.363406 
L 275.415615 154.951479 
L 277.53754 111.10599 
L 279.659465 121.569923 
L 281.78139 140.319244 
L 283.903316 144.461199 
L 286.025241 111.258151 
L 288.147166 136.565306 
L 290.269091 137.186047 
L 292.391016 149.172034 
L 294.512941 153.36803 
L 296.634866 98.892427 
L 298.756791 144.933868 
L 300.878717 98.678298 
L 303.000642 148.911927 
L 305.122567 137.329175 
L 307.244492 90.447266 
L 309.366417 125.687589 
L 311.488342 125.316277 
L 313.610267 139.768959 
L 315.732193 93.195398 
L 317.854118 110.910664 
L 319.976043 121.512977 
L 322.097968 129.278226 
L 324.219893 127.478775 
L 326.341818 76.012017 
L 328.463743 97.378417 
L 330.585668 66.611557 
L 332.707594 53.568 
L 334.829519 147.286228 
L 336.951444 105.598408 
L 339.073369 134.015081 
L 341.195294 134.904137 
L 343.317219 106.544991 
L 345.439144 113.271601 
L 347.56107 115.206025 
L 349.682995 154.738997 
L 351.80492 143.786562 
L 353.926845 106.294739 
L 356.04877 112.476099 
L 358.170695 116.744731 
L 360.29262 135.56599 
L 362.414545 144.458875 
L 364.536471 154.87928 
L 368.780321 124.543438 
L 370.902246 151.776833 
L 373.024171 140.187919 
L 375.146096 114.409361 
L 377.268021 162.576174 
L 379.389947 102.586658 
L 381.511872 135.213208 
L 383.633797 154.246045 
L 385.755722 122.83215 
L 387.877647 137.478622 
L 389.999572 146.800491 
L 392.121497 144.084076 
L 394.243422 128.70329 
L 396.365348 108.995881 
L 398.487273 124.86129 
L 398.487273 124.86129 
" clip-path="url(#p66ca850dc6)" style="fill: none; stroke: #32cd32; stroke-opacity: 0.8; stroke-width: 0.5; stroke-linecap: square"/>
   </g>
   <g id="line2d_17">
    <path d="M 73.832727 219.542662 
L 75.954652 230.941949 
L 78.076578 232.561232 
L 80.198503 229.147784 
L 82.320428 204.002097 
L 84.442353 223.787662 
L 86.564278 220.918858 
L 88.686203 275.372961 
L 90.808128 212.497231 
L 92.930053 235.168742 
L 95.051979 254.191346 
L 97.173904 218.401028 
L 99.295829 205.290357 
L 101.417754 233.026872 
L 103.539679 232.217869 
L 105.661604 228.394081 
L 107.783529 216.559578 
L 109.905455 192.800115 
L 112.02738 233.237224 
L 114.149305 247.37554 
L 116.27123 224.226263 
L 118.393155 217.412607 
L 120.51508 220.954595 
L 122.637005 254.781725 
L 124.75893 205.895264 
L 126.880856 231.443713 
L 129.002781 217.801351 
L 131.124706 194.684731 
L 133.246631 215.775117 
L 135.368556 218.475988 
L 137.490481 198.737878 
L 139.612406 205.631355 
L 141.734332 192.895579 
L 143.856257 207.124253 
L 145.978182 214.201401 
L 148.100107 218.53305 
L 150.222032 205.89875 
L 152.343957 199.609695 
L 154.465882 233.905469 
L 156.587807 208.644655 
L 158.709733 210.231591 
L 160.831658 213.00738 
L 162.953583 202.419325 
L 165.075508 195.933477 
L 167.197433 198.05007 
L 169.319358 197.231906 
L 171.441283 186.326733 
L 173.563209 202.299816 
L 175.685134 213.382801 
L 177.807059 198.755214 
L 179.928984 192.190726 
L 182.050909 208.68626 
L 184.172834 203.261217 
L 186.294759 245.09915 
L 188.416684 281.922631 
L 190.53861 262.979733 
L 192.660535 245.437824 
L 194.78246 215.214954 
L 199.02631 227.131791 
L 201.148235 203.572968 
L 203.27016 242.277413 
L 205.392086 206.746259 
L 207.514011 207.325985 
L 209.635936 216.830944 
L 211.757861 215.740833 
L 213.879786 228.38751 
L 216.001711 214.604526 
L 218.123636 213.931924 
L 220.245561 213.044901 
L 222.367487 206.916128 
L 224.489412 251.981974 
L 226.611337 210.525038 
L 228.733262 237.568031 
L 230.855187 204.422446 
L 232.977112 211.33495 
L 235.099037 227.052764 
L 237.220963 233.129143 
L 239.342888 218.485576 
L 241.464813 212.074203 
L 243.586738 227.910732 
L 245.708663 218.022163 
L 247.830588 209.085173 
L 249.952513 217.475945 
L 252.074439 222.532718 
L 254.196364 207.736191 
L 256.318289 214.486857 
L 258.440214 225.245888 
L 260.562139 218.35919 
L 262.684064 213.243467 
L 264.805989 197.263575 
L 266.927914 206.658661 
L 269.04984 200.874712 
L 271.171765 191.82232 
L 273.29369 212.424596 
L 277.53754 220.090235 
L 279.659465 204.185719 
L 281.78139 225.353389 
L 283.903316 215.073363 
L 286.025241 201.141719 
L 288.147166 205.264886 
L 290.269091 211.496995 
L 292.391016 236.454387 
L 294.512941 227.780279 
L 296.634866 205.615763 
L 298.756791 256.387837 
L 300.878717 226.206127 
L 303.000642 218.727248 
L 305.122567 226.032964 
L 307.244492 224.21592 
L 309.366417 241.108711 
L 311.488342 252.900471 
L 313.610267 225.454206 
L 315.732193 224.455616 
L 317.854118 220.2664 
L 319.976043 232.661081 
L 322.097968 218.516954 
L 324.219893 226.611141 
L 326.341818 233.054183 
L 328.463743 253.999734 
L 330.585668 230.656347 
L 332.707594 225.165554 
L 334.829519 295.176395 
L 336.951444 236.728077 
L 339.073369 236.219048 
L 341.195294 213.229395 
L 343.317219 247.94471 
L 345.439144 209.319292 
L 347.56107 256.056911 
L 349.682995 218.561407 
L 351.80492 216.526456 
L 353.926845 216.527909 
L 356.04877 219.442134 
L 358.170695 227.216281 
L 360.29262 230.783894 
L 362.414545 212.189839 
L 364.536471 221.651894 
L 366.658396 214.602105 
L 368.780321 213.715761 
L 370.902246 217.551195 
L 373.024171 236.21469 
L 375.146096 212.469339 
L 377.268021 192.400184 
L 379.389947 211.659534 
L 381.511872 220.02341 
L 383.633797 225.469896 
L 385.755722 197.639535 
L 387.877647 218.100293 
L 389.999572 234.65037 
L 392.121497 256.838799 
L 394.243422 204.251381 
L 396.365348 218.142447 
L 398.487273 204.555869 
L 398.487273 204.555869 
" clip-path="url(#p66ca850dc6)" style="fill: none; stroke: #32cd32; stroke-opacity: 0.8; stroke-width: 0.5; stroke-linecap: square"/>
   </g>
   <g id="line2d_18">
    <path d="M 73.832727 174.163358 
L 75.954652 170.922386 
L 78.076578 174.917817 
L 80.198503 170.791359 
L 82.320428 176.242556 
L 84.442353 172.779161 
L 86.564278 170.49469 
L 88.686203 183.086967 
L 90.808128 163.378813 
L 92.930053 181.509666 
L 95.051979 176.319366 
L 97.173904 174.804544 
L 99.295829 172.689573 
L 101.417754 176.175902 
L 103.539679 174.492722 
L 105.661604 182.203115 
L 107.783529 170.42612 
L 109.905455 170.774653 
L 112.02738 182.754753 
L 114.149305 175.275134 
L 116.27123 175.663927 
L 118.393155 173.456891 
L 120.51508 179.68949 
L 122.637005 172.358699 
L 124.75893 168.987123 
L 129.002781 180.813094 
L 131.124706 168.067371 
L 133.246631 182.132008 
L 135.368556 177.685046 
L 137.490481 176.971045 
L 139.612406 173.518109 
L 141.734332 173.629051 
L 143.856257 177.628758 
L 145.978182 169.276465 
L 148.100107 176.022277 
L 150.222032 176.776077 
L 152.343957 171.875579 
L 154.465882 175.344353 
L 156.587807 179.344334 
L 158.709733 176.658678 
L 160.831658 179.452053 
L 165.075508 177.690562 
L 167.197433 173.292362 
L 169.319358 174.988285 
L 171.441283 172.525827 
L 173.563209 174.216094 
L 175.685134 178.876487 
L 177.807059 168.663131 
L 179.928984 172.1549 
L 182.050909 176.125973 
L 184.172834 177.833512 
L 186.294759 184.329663 
L 188.416684 145.853126 
L 192.660535 182.901835 
L 194.78246 180.69581 
L 196.904385 176.911936 
L 199.02631 181.597327 
L 201.148235 166.695557 
L 203.27016 180.922128 
L 205.392086 178.835157 
L 207.514011 179.783925 
L 209.635936 163.170678 
L 211.757861 173.037594 
L 213.879786 173.551014 
L 216.001711 175.792819 
L 218.123636 173.47943 
L 220.245561 175.167579 
L 222.367487 170.697986 
L 224.489412 189.846564 
L 226.611337 177.488741 
L 228.733262 176.589826 
L 230.855187 176.383868 
L 232.977112 170.518475 
L 235.099037 178.10084 
L 237.220963 176.035642 
L 239.342888 177.264073 
L 241.464813 166.170871 
L 243.586738 176.390601 
L 245.708663 174.742327 
L 247.830588 176.400567 
L 249.952513 174.646266 
L 252.074439 178.568502 
L 254.196364 173.196996 
L 256.318289 172.988406 
L 258.440214 176.0409 
L 260.562139 175.433393 
L 262.684064 173.18186 
L 264.805989 170.610507 
L 266.927914 175.619765 
L 269.04984 179.022388 
L 271.171765 169.767851 
L 273.29369 177.835088 
L 275.415615 177.550091 
L 277.53754 171.30616 
L 279.659465 174.847548 
L 281.78139 178.893166 
L 283.903316 177.922203 
L 286.025241 177.721638 
L 288.147166 178.107697 
L 290.269091 176.227922 
L 292.391016 175.873864 
L 294.512941 161.483435 
L 296.634866 163.804205 
L 298.756791 188.626213 
L 300.878717 168.692185 
L 303.000642 173.741817 
L 305.122567 175.012877 
L 307.244492 172.444261 
L 309.366417 180.524785 
L 311.488342 164.202969 
L 313.610267 180.732215 
L 315.732193 164.133222 
L 317.854118 175.088742 
L 319.976043 176.596906 
L 322.097968 167.926675 
L 324.219893 174.448412 
L 326.341818 177.600061 
L 328.463743 164.839385 
L 330.585668 173.129148 
L 332.707594 172.016809 
L 334.829519 187.880004 
L 336.951444 160.625504 
L 339.073369 173.00734 
L 341.195294 175.194771 
L 343.317219 174.86945 
L 345.439144 177.752888 
L 347.56107 171.57951 
L 349.682995 177.304227 
L 351.80492 179.111799 
L 353.926845 172.763789 
L 356.04877 170.280317 
L 358.170695 179.044768 
L 360.29262 176.510832 
L 362.414545 167.709738 
L 364.536471 178.616559 
L 366.658396 178.370037 
L 368.780321 173.743328 
L 370.902246 182.58467 
L 373.024171 167.015438 
L 375.146096 178.22371 
L 377.268021 173.302386 
L 379.389947 169.877531 
L 381.511872 172.282924 
L 383.633797 174.296521 
L 385.755722 169.9441 
L 389.999572 181.289814 
L 392.121497 182.258042 
L 394.243422 169.153253 
L 396.365348 177.486044 
L 398.487273 174.394128 
L 398.487273 174.394128 
" clip-path="url(#p66ca850dc6)" style="fill: none; stroke: #ff0000; stroke-opacity: 0.8; stroke-width: 0.5; stroke-linecap: square"/>
   </g>
   <g id="line2d_19">
    <path d="M 73.832727 99.391673 
L 75.954652 106.39362 
L 78.076578 134.21455 
L 80.198503 115.95504 
L 82.320428 144.122428 
L 84.442353 139.775641 
L 86.564278 119.4825 
L 88.686203 140.24777 
L 90.808128 56.831301 
L 92.930053 127.117826 
L 95.051979 130.799661 
L 97.173904 119.902042 
L 99.295829 130.433289 
L 101.417754 114.221497 
L 103.539679 133.741507 
L 105.661604 122.62267 
L 107.783529 123.465239 
L 109.905455 135.188286 
L 112.02738 149.401561 
L 114.149305 139.420309 
L 116.27123 116.299622 
L 118.393155 140.135622 
L 120.51508 118.216419 
L 122.637005 101.589133 
L 124.75893 135.537807 
L 126.880856 145.856378 
L 129.002781 140.054561 
L 131.124706 119.535088 
L 133.246631 128.426521 
L 135.368556 131.682616 
L 137.490481 148.033693 
L 139.612406 144.10854 
L 141.734332 158.836596 
L 143.856257 162.192153 
L 145.978182 144.88074 
L 148.100107 136.270261 
L 150.222032 141.196387 
L 152.343957 143.507352 
L 154.465882 118.438005 
L 156.587807 146.751743 
L 158.709733 144.523723 
L 160.831658 126.566185 
L 162.953583 147.174563 
L 165.075508 161.12548 
L 167.197433 153.138115 
L 169.319358 148.405441 
L 171.441283 154.152201 
L 173.563209 123.803429 
L 175.685134 152.27114 
L 177.807059 146.237374 
L 179.928984 154.017486 
L 182.050909 145.69658 
L 184.172834 155.459843 
L 186.294759 126.486771 
L 188.416684 54.597969 
L 190.53861 79.353822 
L 192.660535 128.014049 
L 194.78246 156.933261 
L 196.904385 140.145694 
L 199.02631 145.37466 
L 201.148235 121.858837 
L 203.27016 130.683154 
L 205.392086 145.204403 
L 207.514011 146.936804 
L 209.635936 95.325743 
L 211.757861 102.472766 
L 213.879786 138.383077 
L 216.001711 152.980157 
L 218.123636 140.076932 
L 220.245561 132.615834 
L 222.367487 136.851053 
L 224.489412 123.298759 
L 226.611337 158.966952 
L 228.733262 147.359347 
L 230.855187 127.4381 
L 232.977112 99.625462 
L 235.099037 137.575566 
L 237.220963 146.103047 
L 239.342888 157.044248 
L 241.464813 135.349711 
L 243.586738 137.482109 
L 245.708663 127.718181 
L 247.830588 150.446057 
L 249.952513 120.772019 
L 252.074439 122.124682 
L 254.196364 132.979882 
L 256.318289 134.344964 
L 258.440214 110.10354 
L 260.562139 153.720747 
L 262.684064 128.586028 
L 264.805989 140.868173 
L 266.927914 136.164117 
L 269.04984 160.519701 
L 271.171765 148.805576 
L 273.29369 136.143561 
L 275.415615 159.437435 
L 277.53754 93.895118 
L 279.659465 116.634325 
L 281.78139 130.702268 
L 283.903316 147.895396 
L 286.025241 114.642375 
L 288.147166 138.613767 
L 290.269091 132.523248 
L 292.391016 138.085999 
L 294.512941 140.644141 
L 296.634866 105.006866 
L 298.756791 96.559672 
L 300.878717 98.678298 
L 303.000642 137.840346 
L 305.122567 126.675429 
L 307.244492 108.597665 
L 309.366417 104.073648 
L 311.488342 120.590813 
L 313.610267 123.649442 
L 315.732193 91.880394 
L 317.854118 119.999954 
L 319.976043 108.238556 
L 322.097968 123.378948 
L 324.219893 128.196703 
L 326.341818 82.910724 
L 328.463743 101.72346 
L 330.585668 97.901391 
L 332.707594 65.992704 
L 334.829519 109.630539 
L 336.951444 105.598408 
L 339.073369 124.571039 
L 341.195294 134.904137 
L 343.317219 109.128368 
L 345.439144 134.358355 
L 347.56107 84.537658 
L 349.682995 144.899209 
L 351.80492 128.762096 
L 353.926845 87.914909 
L 356.04877 111.312191 
L 358.170695 116.744731 
L 360.29262 115.448917 
L 362.414545 129.853659 
L 364.536471 148.217703 
L 366.658396 139.511539 
L 368.780321 136.535526 
L 370.902246 147.700941 
L 373.024171 137.441142 
L 375.146096 125.072901 
L 377.268021 154.763209 
L 379.389947 107.383493 
L 381.511872 126.644632 
L 383.633797 147.521608 
L 385.755722 124.66837 
L 387.877647 119.938069 
L 389.999572 136.046835 
L 392.121497 119.143148 
L 394.243422 133.055423 
L 396.365348 81.126414 
L 398.487273 135.310604 
L 398.487273 135.310604 
" clip-path="url(#p66ca850dc6)" style="fill: none; stroke: #f08080; stroke-opacity: 0.8; stroke-width: 0.5; stroke-linecap: square"/>
   </g>
   <g id="line2d_20">
    <path d="M 73.832727 224.483799 
L 75.954652 234.406943 
L 78.076578 230.290555 
L 80.198503 225.19853 
L 82.320428 205.158161 
L 84.442353 223.787662 
L 86.564278 220.918858 
L 88.686203 281.621631 
L 90.808128 203.429905 
L 92.930053 245.157258 
L 95.051979 235.336509 
L 97.173904 219.029759 
L 99.295829 218.241231 
L 101.417754 243.35445 
L 103.539679 219.574815 
L 105.661604 224.631684 
L 107.783529 217.901491 
L 109.905455 194.830293 
L 112.02738 226.232566 
L 114.149305 219.549973 
L 116.27123 216.643545 
L 118.393155 204.278838 
L 120.51508 213.315744 
L 122.637005 216.352597 
L 124.75893 190.949534 
L 126.880856 231.443713 
L 129.002781 218.235129 
L 131.124706 194.684731 
L 133.246631 219.69597 
L 135.368556 224.871962 
L 137.490481 201.220165 
L 139.612406 196.42362 
L 141.734332 189.00436 
L 143.856257 199.569746 
L 145.978182 212.094419 
L 148.100107 201.033928 
L 150.222032 205.036133 
L 152.343957 199.011471 
L 154.465882 233.905469 
L 156.587807 208.70654 
L 158.709733 212.035445 
L 160.831658 216.392808 
L 162.953583 200.188163 
L 165.075508 196.528506 
L 167.197433 192.051847 
L 169.319358 201.210287 
L 171.441283 182.751914 
L 173.563209 202.390465 
L 175.685134 213.47374 
L 177.807059 199.05113 
L 179.928984 190.189478 
L 182.050909 204.542504 
L 184.172834 208.006772 
L 186.294759 233.527417 
L 188.416684 206.267156 
L 190.53861 223.467776 
L 192.660535 231.720308 
L 194.78246 218.677333 
L 196.904385 221.166109 
L 199.02631 222.856478 
L 201.148235 203.901279 
L 203.27016 242.653664 
L 205.392086 226.073059 
L 207.514011 205.622445 
L 209.635936 216.830944 
L 211.757861 205.08785 
L 213.879786 220.559943 
L 216.001711 205.48163 
L 218.123636 208.021735 
L 220.245561 223.615081 
L 222.367487 206.199045 
L 224.489412 243.528193 
L 226.611337 216.313199 
L 228.733262 238.381837 
L 230.855187 197.018165 
L 232.977112 211.33495 
L 237.220963 234.188746 
L 239.342888 206.585299 
L 241.464813 212.074203 
L 243.586738 235.120512 
L 245.708663 211.103408 
L 247.830588 207.060624 
L 249.952513 206.863202 
L 252.074439 228.572295 
L 254.196364 206.122176 
L 256.318289 200.781738 
L 258.440214 214.906399 
L 260.562139 218.35919 
L 262.684064 209.617387 
L 264.805989 192.969957 
L 266.927914 207.793369 
L 269.04984 202.561801 
L 271.171765 191.82232 
L 273.29369 205.772365 
L 275.415615 211.124715 
L 277.53754 216.800727 
L 279.659465 211.199093 
L 281.78139 225.899897 
L 283.903316 217.143857 
L 286.025241 204.27046 
L 288.147166 212.492583 
L 290.269091 222.721957 
L 292.391016 227.538466 
L 294.512941 200.778615 
L 296.634866 223.942811 
L 298.756791 266.052012 
L 300.878717 225.893941 
L 303.000642 213.220081 
L 305.122567 216.859998 
L 307.244492 224.175535 
L 309.366417 227.708031 
L 311.488342 236.364609 
L 313.610267 225.454206 
L 315.732193 203.227805 
L 317.854118 228.125587 
L 319.976043 232.661081 
L 322.097968 228.169217 
L 324.219893 220.708797 
L 326.341818 227.015865 
L 328.463743 244.570074 
L 330.585668 250.174904 
L 332.707594 234.570808 
L 334.829519 295.488 
L 336.951444 229.040647 
L 339.073369 235.988649 
L 341.195294 211.28858 
L 343.317219 247.94471 
L 345.439144 214.508648 
L 347.56107 246.723856 
L 349.682995 211.547743 
L 351.80492 237.759788 
L 353.926845 223.708258 
L 356.04877 218.373717 
L 358.170695 239.489961 
L 360.29262 232.44056 
L 362.414545 202.413345 
L 364.536471 215.78732 
L 366.658396 214.326479 
L 368.780321 217.09737 
L 370.902246 217.176978 
L 373.024171 229.366053 
L 375.146096 216.228652 
L 377.268021 190.73279 
L 379.389947 196.589701 
L 381.511872 197.64 
L 383.633797 211.567693 
L 385.755722 197.639535 
L 387.877647 213.81745 
L 389.999572 221.931394 
L 392.121497 256.911683 
L 394.243422 206.293886 
L 396.365348 215.635289 
L 398.487273 198.879468 
L 398.487273 198.879468 
" clip-path="url(#p66ca850dc6)" style="fill: none; stroke: #f08080; stroke-opacity: 0.8; stroke-width: 0.5; stroke-linecap: square"/>
   </g>
   <g id="patch_3">
    <path d="M 57.6 307.584 
L 57.6 41.472 
" style="fill: none; stroke: #000000; stroke-width: 0.8; stroke-linejoin: miter; stroke-linecap: square"/>
   </g>
   <g id="patch_4">
    <path d="M 414.72 307.584 
L 414.72 41.472 
" style="fill: none; stroke: #000000; stroke-width: 0.8; stroke-linejoin: miter; stroke-linecap: square"/>
   </g>
   <g id="patch_5">
    <path d="M 57.6 307.584 
L 414.72 307.584 
" style="fill: none; stroke: #000000; stroke-width: 0.8; stroke-linejoin: miter; stroke-linecap: square"/>
   </g>
   <g id="patch_6">
    <path d="M 57.6 41.472 
L 414.72 41.472 
" style="fill: none; stroke: #000000; stroke-width: 0.8; stroke-linejoin: miter; stroke-linecap: square"/>
   </g>
   <g id="text_15">
    <!-- zhang_eurusd -->
    <g transform="translate(194.221875 35.472) scale(0.12 -0.12)">
     <defs>
      <path id="DejaVuSans-7a" d="M 353 3500 
L 3084 3500 
L 3084 2975 
L 922 459 
L 3084 459 
L 3084 0 
L 275 0 
L 275 525 
L 2438 3041 
L 353 3041 
L 353 3500 
z
" transform="scale(0.015625)"/>
      <path id="DejaVuSans-68" d="M 3513 2113 
L 3513 0 
L 2938 0 
L 2938 2094 
Q 2938 2591 2744 2837 
Q 2550 3084 2163 3084 
Q 1697 3084 1428 2787 
Q 1159 2491 1159 1978 
L 1159 0 
L 581 0 
L 581 4863 
L 1159 4863 
L 1159 2956 
Q 1366 3272 1645 3428 
Q 1925 3584 2291 3584 
Q 2894 3584 3203 3211 
Q 3513 2838 3513 2113 
z
" transform="scale(0.015625)"/>
      <path id="DejaVuSans-61" d="M 2194 1759 
Q 1497 1759 1228 1600 
Q 959 1441 959 1056 
Q 959 750 1161 570 
Q 1363 391 1709 391 
Q 2188 391 2477 730 
Q 2766 1069 2766 1631 
L 2766 1759 
L 2194 1759 
z
M 3341 1997 
L 3341 0 
L 2766 0 
L 2766 531 
Q 2569 213 2275 61 
Q 1981 -91 1556 -91 
Q 1019 -91 701 211 
Q 384 513 384 1019 
Q 384 1609 779 1909 
Q 1175 2209 1959 2209 
L 2766 2209 
L 2766 2266 
Q 2766 2663 2505 2880 
Q 2244 3097 1772 3097 
Q 1472 3097 1187 3025 
Q 903 2953 641 2809 
L 641 3341 
Q 956 3463 1253 3523 
Q 1550 3584 1831 3584 
Q 2591 3584 2966 3190 
Q 3341 2797 3341 1997 
z
" transform="scale(0.015625)"/>
      <path id="DejaVuSans-6e" d="M 3513 2113 
L 3513 0 
L 2938 0 
L 2938 2094 
Q 2938 2591 2744 2837 
Q 2550 3084 2163 3084 
Q 1697 3084 1428 2787 
Q 1159 2491 1159 1978 
L 1159 0 
L 581 0 
L 581 3500 
L 1159 3500 
L 1159 2956 
Q 1366 3272 1645 3428 
Q 1925 3584 2291 3584 
Q 2894 3584 3203 3211 
Q 3513 2838 3513 2113 
z
" transform="scale(0.015625)"/>
      <path id="DejaVuSans-67" d="M 2906 1791 
Q 2906 2416 2648 2759 
Q 2391 3103 1925 3103 
Q 1463 3103 1205 2759 
Q 947 2416 947 1791 
Q 947 1169 1205 825 
Q 1463 481 1925 481 
Q 2391 481 2648 825 
Q 2906 1169 2906 1791 
z
M 3481 434 
Q 3481 -459 3084 -895 
Q 2688 -1331 1869 -1331 
Q 1566 -1331 1297 -1286 
Q 1028 -1241 775 -1147 
L 775 -588 
Q 1028 -725 1275 -790 
Q 1522 -856 1778 -856 
Q 2344 -856 2625 -561 
Q 2906 -266 2906 331 
L 2906 616 
Q 2728 306 2450 153 
Q 2172 0 1784 0 
Q 1141 0 747 490 
Q 353 981 353 1791 
Q 353 2603 747 3093 
Q 1141 3584 1784 3584 
Q 2172 3584 2450 3431 
Q 2728 3278 2906 2969 
L 2906 3500 
L 3481 3500 
L 3481 434 
z
" transform="scale(0.015625)"/>
      <path id="DejaVuSans-5f" d="M 3263 -1063 
L 3263 -1509 
L -63 -1509 
L -63 -1063 
L 3263 -1063 
z
" transform="scale(0.015625)"/>
      <path id="DejaVuSans-65" d="M 3597 1894 
L 3597 1613 
L 953 1613 
Q 991 1019 1311 708 
Q 1631 397 2203 397 
Q 2534 397 2845 478 
Q 3156 559 3463 722 
L 3463 178 
Q 3153 47 2828 -22 
Q 2503 -91 2169 -91 
Q 1331 -91 842 396 
Q 353 884 353 1716 
Q 353 2575 817 3079 
Q 1281 3584 2069 3584 
Q 2775 3584 3186 3129 
Q 3597 2675 3597 1894 
z
M 3022 2063 
Q 3016 2534 2758 2815 
Q 2500 3097 2075 3097 
Q 1594 3097 1305 2825 
Q 1016 2553 972 2059 
L 3022 2063 
z
" transform="scale(0.015625)"/>
      <path id="DejaVuSans-75" d="M 544 1381 
L 544 3500 
L 1119 3500 
L 1119 1403 
Q 1119 906 1312 657 
Q 1506 409 1894 409 
Q 2359 409 2629 706 
Q 2900 1003 2900 1516 
L 2900 3500 
L 3475 3500 
L 3475 0 
L 2900 0 
L 2900 538 
Q 2691 219 2414 64 
Q 2138 -91 1772 -91 
Q 1169 -91 856 284 
Q 544 659 544 1381 
z
M 1991 3584 
L 1991 3584 
z
" transform="scale(0.015625)"/>
      <path id="DejaVuSans-72" d="M 2631 2963 
Q 2534 3019 2420 3045 
Q 2306 3072 2169 3072 
Q 1681 3072 1420 2755 
Q 1159 2438 1159 1844 
L 1159 0 
L 581 0 
L 581 3500 
L 1159 3500 
L 1159 2956 
Q 1341 3275 1631 3429 
Q 1922 3584 2338 3584 
Q 2397 3584 2469 3576 
Q 2541 3569 2628 3553 
L 2631 2963 
z
" transform="scale(0.015625)"/>
      <path id="DejaVuSans-73" d="M 2834 3397 
L 2834 2853 
Q 2591 2978 2328 3040 
Q 2066 3103 1784 3103 
Q 1356 3103 1142 2972 
Q 928 2841 928 2578 
Q 928 2378 1081 2264 
Q 1234 2150 1697 2047 
L 1894 2003 
Q 2506 1872 2764 1633 
Q 3022 1394 3022 966 
Q 3022 478 2636 193 
Q 2250 -91 1575 -91 
Q 1294 -91 989 -36 
Q 684 19 347 128 
L 347 722 
Q 666 556 975 473 
Q 1284 391 1588 391 
Q 1994 391 2212 530 
Q 2431 669 2431 922 
Q 2431 1156 2273 1281 
Q 2116 1406 1581 1522 
L 1381 1569 
Q 847 1681 609 1914 
Q 372 2147 372 2553 
Q 372 3047 722 3315 
Q 1072 3584 1716 3584 
Q 2034 3584 2315 3537 
Q 2597 3491 2834 3397 
z
" transform="scale(0.015625)"/>
      <path id="DejaVuSans-64" d="M 2906 2969 
L 2906 4863 
L 3481 4863 
L 3481 0 
L 2906 0 
L 2906 525 
Q 2725 213 2448 61 
Q 2172 -91 1784 -91 
Q 1150 -91 751 415 
Q 353 922 353 1747 
Q 353 2572 751 3078 
Q 1150 3584 1784 3584 
Q 2172 3584 2448 3432 
Q 2725 3281 2906 2969 
z
M 947 1747 
Q 947 1113 1208 752 
Q 1469 391 1925 391 
Q 2381 391 2643 752 
Q 2906 1113 2906 1747 
Q 2906 2381 2643 2742 
Q 2381 3103 1925 3103 
Q 1469 3103 1208 2742 
Q 947 2381 947 1747 
z
" transform="scale(0.015625)"/>
     </defs>
     <use xlink:href="#DejaVuSans-7a"/>
     <use xlink:href="#DejaVuSans-68" x="52.490234"/>
     <use xlink:href="#DejaVuSans-61" x="115.869141"/>
     <use xlink:href="#DejaVuSans-6e" x="177.148438"/>
     <use xlink:href="#DejaVuSans-67" x="240.527344"/>
     <use xlink:href="#DejaVuSans-5f" x="304.003906"/>
     <use xlink:href="#DejaVuSans-65" x="354.003906"/>
     <use xlink:href="#DejaVuSans-75" x="415.527344"/>
     <use xlink:href="#DejaVuSans-72" x="478.90625"/>
     <use xlink:href="#DejaVuSans-75" x="520.019531"/>
     <use xlink:href="#DejaVuSans-73" x="583.398438"/>
     <use xlink:href="#DejaVuSans-64" x="635.498047"/>
    </g>
   </g>
   <g id="legend_1">
    <g id="patch_7">
     <path d="M 64.6 137.54075 
L 225.001563 137.54075 
Q 227.001563 137.54075 227.001563 135.54075 
L 227.001563 48.472 
Q 227.001563 46.472 225.001563 46.472 
L 64.6 46.472 
Q 62.6 46.472 62.6 48.472 
L 62.6 135.54075 
Q 62.6 137.54075 64.6 137.54075 
z
" style="fill: #ffffff; opacity: 0.8; stroke: #cccccc; stroke-linejoin: miter"/>
    </g>
    <g id="line2d_21">
     <path d="M 66.6 54.570438 
L 76.6 54.570438 
L 86.6 54.570438 
" style="fill: none; stroke: #008000; stroke-opacity: 0.8; stroke-width: 0.5; stroke-linecap: square"/>
    </g>
    <g id="text_16">
     <!-- Positive predictions -->
     <g transform="translate(94.6 58.070438) scale(0.1 -0.1)">
      <defs>
       <path id="DejaVuSans-50" d="M 1259 4147 
L 1259 2394 
L 2053 2394 
Q 2494 2394 2734 2622 
Q 2975 2850 2975 3272 
Q 2975 3691 2734 3919 
Q 2494 4147 2053 4147 
L 1259 4147 
z
M 628 4666 
L 2053 4666 
Q 2838 4666 3239 4311 
Q 3641 3956 3641 3272 
Q 3641 2581 3239 2228 
Q 2838 1875 2053 1875 
L 1259 1875 
L 1259 0 
L 628 0 
L 628 4666 
z
" transform="scale(0.015625)"/>
       <path id="DejaVuSans-6f" d="M 1959 3097 
Q 1497 3097 1228 2736 
Q 959 2375 959 1747 
Q 959 1119 1226 758 
Q 1494 397 1959 397 
Q 2419 397 2687 759 
Q 2956 1122 2956 1747 
Q 2956 2369 2687 2733 
Q 2419 3097 1959 3097 
z
M 1959 3584 
Q 2709 3584 3137 3096 
Q 3566 2609 3566 1747 
Q 3566 888 3137 398 
Q 2709 -91 1959 -91 
Q 1206 -91 779 398 
Q 353 888 353 1747 
Q 353 2609 779 3096 
Q 1206 3584 1959 3584 
z
" transform="scale(0.015625)"/>
       <path id="DejaVuSans-69" d="M 603 3500 
L 1178 3500 
L 1178 0 
L 603 0 
L 603 3500 
z
M 603 4863 
L 1178 4863 
L 1178 4134 
L 603 4134 
L 603 4863 
z
" transform="scale(0.015625)"/>
       <path id="DejaVuSans-74" d="M 1172 4494 
L 1172 3500 
L 2356 3500 
L 2356 3053 
L 1172 3053 
L 1172 1153 
Q 1172 725 1289 603 
Q 1406 481 1766 481 
L 2356 481 
L 2356 0 
L 1766 0 
Q 1100 0 847 248 
Q 594 497 594 1153 
L 594 3053 
L 172 3053 
L 172 3500 
L 594 3500 
L 594 4494 
L 1172 4494 
z
" transform="scale(0.015625)"/>
       <path id="DejaVuSans-76" d="M 191 3500 
L 800 3500 
L 1894 563 
L 2988 3500 
L 3597 3500 
L 2284 0 
L 1503 0 
L 191 3500 
z
" transform="scale(0.015625)"/>
       <path id="DejaVuSans-20" transform="scale(0.015625)"/>
       <path id="DejaVuSans-70" d="M 1159 525 
L 1159 -1331 
L 581 -1331 
L 581 3500 
L 1159 3500 
L 1159 2969 
Q 1341 3281 1617 3432 
Q 1894 3584 2278 3584 
Q 2916 3584 3314 3078 
Q 3713 2572 3713 1747 
Q 3713 922 3314 415 
Q 2916 -91 2278 -91 
Q 1894 -91 1617 61 
Q 1341 213 1159 525 
z
M 3116 1747 
Q 3116 2381 2855 2742 
Q 2594 3103 2138 3103 
Q 1681 3103 1420 2742 
Q 1159 2381 1159 1747 
Q 1159 1113 1420 752 
Q 1681 391 2138 391 
Q 2594 391 2855 752 
Q 3116 1113 3116 1747 
z
" transform="scale(0.015625)"/>
       <path id="DejaVuSans-63" d="M 3122 3366 
L 3122 2828 
Q 2878 2963 2633 3030 
Q 2388 3097 2138 3097 
Q 1578 3097 1268 2742 
Q 959 2388 959 1747 
Q 959 1106 1268 751 
Q 1578 397 2138 397 
Q 2388 397 2633 464 
Q 2878 531 3122 666 
L 3122 134 
Q 2881 22 2623 -34 
Q 2366 -91 2075 -91 
Q 1284 -91 818 406 
Q 353 903 353 1747 
Q 353 2603 823 3093 
Q 1294 3584 2113 3584 
Q 2378 3584 2631 3529 
Q 2884 3475 3122 3366 
z
" transform="scale(0.015625)"/>
      </defs>
      <use xlink:href="#DejaVuSans-50"/>
      <use xlink:href="#DejaVuSans-6f" x="56.677734"/>
      <use xlink:href="#DejaVuSans-73" x="117.859375"/>
      <use xlink:href="#DejaVuSans-69" x="169.958984"/>
      <use xlink:href="#DejaVuSans-74" x="197.742188"/>
      <use xlink:href="#DejaVuSans-69" x="236.951172"/>
      <use xlink:href="#DejaVuSans-76" x="264.734375"/>
      <use xlink:href="#DejaVuSans-65" x="323.914062"/>
      <use xlink:href="#DejaVuSans-20" x="385.4375"/>
      <use xlink:href="#DejaVuSans-70" x="417.224609"/>
      <use xlink:href="#DejaVuSans-72" x="480.701172"/>
      <use xlink:href="#DejaVuSans-65" x="519.564453"/>
      <use xlink:href="#DejaVuSans-64" x="581.087891"/>
      <use xlink:href="#DejaVuSans-69" x="644.564453"/>
      <use xlink:href="#DejaVuSans-63" x="672.347656"/>
      <use xlink:href="#DejaVuSans-74" x="727.328125"/>
      <use xlink:href="#DejaVuSans-69" x="766.537109"/>
      <use xlink:href="#DejaVuSans-6f" x="794.320312"/>
      <use xlink:href="#DejaVuSans-6e" x="855.501953"/>
      <use xlink:href="#DejaVuSans-73" x="918.880859"/>
     </g>
    </g>
    <g id="line2d_22">
     <path d="M 66.6 69.248563 
L 76.6 69.248563 
L 86.6 69.248563 
" style="fill: none; stroke: #32cd32; stroke-opacity: 0.8; stroke-width: 0.5; stroke-linecap: square"/>
    </g>
    <g id="text_17">
     <!-- Positive predictions max -->
     <g transform="translate(94.6 72.748563) scale(0.1 -0.1)">
      <defs>
       <path id="DejaVuSans-6d" d="M 3328 2828 
Q 3544 3216 3844 3400 
Q 4144 3584 4550 3584 
Q 5097 3584 5394 3201 
Q 5691 2819 5691 2113 
L 5691 0 
L 5113 0 
L 5113 2094 
Q 5113 2597 4934 2840 
Q 4756 3084 4391 3084 
Q 3944 3084 3684 2787 
Q 3425 2491 3425 1978 
L 3425 0 
L 2847 0 
L 2847 2094 
Q 2847 2600 2669 2842 
Q 2491 3084 2119 3084 
Q 1678 3084 1418 2786 
Q 1159 2488 1159 1978 
L 1159 0 
L 581 0 
L 581 3500 
L 1159 3500 
L 1159 2956 
Q 1356 3278 1631 3431 
Q 1906 3584 2284 3584 
Q 2666 3584 2933 3390 
Q 3200 3197 3328 2828 
z
" transform="scale(0.015625)"/>
       <path id="DejaVuSans-78" d="M 3513 3500 
L 2247 1797 
L 3578 0 
L 2900 0 
L 1881 1375 
L 863 0 
L 184 0 
L 1544 1831 
L 300 3500 
L 978 3500 
L 1906 2253 
L 2834 3500 
L 3513 3500 
z
" transform="scale(0.015625)"/>
      </defs>
      <use xlink:href="#DejaVuSans-50"/>
      <use xlink:href="#DejaVuSans-6f" x="56.677734"/>
      <use xlink:href="#DejaVuSans-73" x="117.859375"/>
      <use xlink:href="#DejaVuSans-69" x="169.958984"/>
      <use xlink:href="#DejaVuSans-74" x="197.742188"/>
      <use xlink:href="#DejaVuSans-69" x="236.951172"/>
      <use xlink:href="#DejaVuSans-76" x="264.734375"/>
      <use xlink:href="#DejaVuSans-65" x="323.914062"/>
      <use xlink:href="#DejaVuSans-20" x="385.4375"/>
      <use xlink:href="#DejaVuSans-70" x="417.224609"/>
      <use xlink:href="#DejaVuSans-72" x="480.701172"/>
      <use xlink:href="#DejaVuSans-65" x="519.564453"/>
      <use xlink:href="#DejaVuSans-64" x="581.087891"/>
      <use xlink:href="#DejaVuSans-69" x="644.564453"/>
      <use xlink:href="#DejaVuSans-63" x="672.347656"/>
      <use xlink:href="#DejaVuSans-74" x="727.328125"/>
      <use xlink:href="#DejaVuSans-69" x="766.537109"/>
      <use xlink:href="#DejaVuSans-6f" x="794.320312"/>
      <use xlink:href="#DejaVuSans-6e" x="855.501953"/>
      <use xlink:href="#DejaVuSans-73" x="918.880859"/>
      <use xlink:href="#DejaVuSans-20" x="970.980469"/>
      <use xlink:href="#DejaVuSans-6d" x="1002.767578"/>
      <use xlink:href="#DejaVuSans-61" x="1100.179688"/>
      <use xlink:href="#DejaVuSans-78" x="1161.458984"/>
     </g>
    </g>
    <g id="line2d_23">
     <path d="M 66.6 83.926688 
L 76.6 83.926688 
L 86.6 83.926688 
" style="fill: none; stroke: #32cd32; stroke-opacity: 0.8; stroke-width: 0.5; stroke-linecap: square"/>
    </g>
    <g id="text_18">
     <!-- Positive predictions min -->
     <g transform="translate(94.6 87.426688) scale(0.1 -0.1)">
      <use xlink:href="#DejaVuSans-50"/>
      <use xlink:href="#DejaVuSans-6f" x="56.677734"/>
      <use xlink:href="#DejaVuSans-73" x="117.859375"/>
      <use xlink:href="#DejaVuSans-69" x="169.958984"/>
      <use xlink:href="#DejaVuSans-74" x="197.742188"/>
      <use xlink:href="#DejaVuSans-69" x="236.951172"/>
      <use xlink:href="#DejaVuSans-76" x="264.734375"/>
      <use xlink:href="#DejaVuSans-65" x="323.914062"/>
      <use xlink:href="#DejaVuSans-20" x="385.4375"/>
      <use xlink:href="#DejaVuSans-70" x="417.224609"/>
      <use xlink:href="#DejaVuSans-72" x="480.701172"/>
      <use xlink:href="#DejaVuSans-65" x="519.564453"/>
      <use xlink:href="#DejaVuSans-64" x="581.087891"/>
      <use xlink:href="#DejaVuSans-69" x="644.564453"/>
      <use xlink:href="#DejaVuSans-63" x="672.347656"/>
      <use xlink:href="#DejaVuSans-74" x="727.328125"/>
      <use xlink:href="#DejaVuSans-69" x="766.537109"/>
      <use xlink:href="#DejaVuSans-6f" x="794.320312"/>
      <use xlink:href="#DejaVuSans-6e" x="855.501953"/>
      <use xlink:href="#DejaVuSans-73" x="918.880859"/>
      <use xlink:href="#DejaVuSans-20" x="970.980469"/>
      <use xlink:href="#DejaVuSans-6d" x="1002.767578"/>
      <use xlink:href="#DejaVuSans-69" x="1100.179688"/>
      <use xlink:href="#DejaVuSans-6e" x="1127.962891"/>
     </g>
    </g>
    <g id="line2d_24">
     <path d="M 66.6 98.604813 
L 76.6 98.604813 
L 86.6 98.604813 
" style="fill: none; stroke: #ff0000; stroke-opacity: 0.8; stroke-width: 0.5; stroke-linecap: square"/>
    </g>
    <g id="text_19">
     <!-- Negative predictions -->
     <g transform="translate(94.6 102.104813) scale(0.1 -0.1)">
      <defs>
       <path id="DejaVuSans-4e" d="M 628 4666 
L 1478 4666 
L 3547 763 
L 3547 4666 
L 4159 4666 
L 4159 0 
L 3309 0 
L 1241 3903 
L 1241 0 
L 628 0 
L 628 4666 
z
" transform="scale(0.015625)"/>
      </defs>
      <use xlink:href="#DejaVuSans-4e"/>
      <use xlink:href="#DejaVuSans-65" x="74.804688"/>
      <use xlink:href="#DejaVuSans-67" x="136.328125"/>
      <use xlink:href="#DejaVuSans-61" x="199.804688"/>
      <use xlink:href="#DejaVuSans-74" x="261.083984"/>
      <use xlink:href="#DejaVuSans-69" x="300.292969"/>
      <use xlink:href="#DejaVuSans-76" x="328.076172"/>
      <use xlink:href="#DejaVuSans-65" x="387.255859"/>
      <use xlink:href="#DejaVuSans-20" x="448.779297"/>
      <use xlink:href="#DejaVuSans-70" x="480.566406"/>
      <use xlink:href="#DejaVuSans-72" x="544.042969"/>
      <use xlink:href="#DejaVuSans-65" x="582.90625"/>
      <use xlink:href="#DejaVuSans-64" x="644.429688"/>
      <use xlink:href="#DejaVuSans-69" x="707.90625"/>
      <use xlink:href="#DejaVuSans-63" x="735.689453"/>
      <use xlink:href="#DejaVuSans-74" x="790.669922"/>
      <use xlink:href="#DejaVuSans-69" x="829.878906"/>
      <use xlink:href="#DejaVuSans-6f" x="857.662109"/>
      <use xlink:href="#DejaVuSans-6e" x="918.84375"/>
      <use xlink:href="#DejaVuSans-73" x="982.222656"/>
     </g>
    </g>
    <g id="line2d_25">
     <path d="M 66.6 113.282938 
L 76.6 113.282938 
L 86.6 113.282938 
" style="fill: none; stroke: #f08080; stroke-opacity: 0.8; stroke-width: 0.5; stroke-linecap: square"/>
    </g>
    <g id="text_20">
     <!-- Negative predictions max -->
     <g transform="translate(94.6 116.782938) scale(0.1 -0.1)">
      <use xlink:href="#DejaVuSans-4e"/>
      <use xlink:href="#DejaVuSans-65" x="74.804688"/>
      <use xlink:href="#DejaVuSans-67" x="136.328125"/>
      <use xlink:href="#DejaVuSans-61" x="199.804688"/>
      <use xlink:href="#DejaVuSans-74" x="261.083984"/>
      <use xlink:href="#DejaVuSans-69" x="300.292969"/>
      <use xlink:href="#DejaVuSans-76" x="328.076172"/>
      <use xlink:href="#DejaVuSans-65" x="387.255859"/>
      <use xlink:href="#DejaVuSans-20" x="448.779297"/>
      <use xlink:href="#DejaVuSans-70" x="480.566406"/>
      <use xlink:href="#DejaVuSans-72" x="544.042969"/>
      <use xlink:href="#DejaVuSans-65" x="582.90625"/>
      <use xlink:href="#DejaVuSans-64" x="644.429688"/>
      <use xlink:href="#DejaVuSans-69" x="707.90625"/>
      <use xlink:href="#DejaVuSans-63" x="735.689453"/>
      <use xlink:href="#DejaVuSans-74" x="790.669922"/>
      <use xlink:href="#DejaVuSans-69" x="829.878906"/>
      <use xlink:href="#DejaVuSans-6f" x="857.662109"/>
      <use xlink:href="#DejaVuSans-6e" x="918.84375"/>
      <use xlink:href="#DejaVuSans-73" x="982.222656"/>
      <use xlink:href="#DejaVuSans-20" x="1034.322266"/>
      <use xlink:href="#DejaVuSans-6d" x="1066.109375"/>
      <use xlink:href="#DejaVuSans-61" x="1163.521484"/>
      <use xlink:href="#DejaVuSans-78" x="1224.800781"/>
     </g>
    </g>
    <g id="line2d_26">
     <path d="M 66.6 127.961063 
L 76.6 127.961063 
L 86.6 127.961063 
" style="fill: none; stroke: #f08080; stroke-opacity: 0.8; stroke-width: 0.5; stroke-linecap: square"/>
    </g>
    <g id="text_21">
     <!-- Negative predictions min -->
     <g transform="translate(94.6 131.461063) scale(0.1 -0.1)">
      <use xlink:href="#DejaVuSans-4e"/>
      <use xlink:href="#DejaVuSans-65" x="74.804688"/>
      <use xlink:href="#DejaVuSans-67" x="136.328125"/>
      <use xlink:href="#DejaVuSans-61" x="199.804688"/>
      <use xlink:href="#DejaVuSans-74" x="261.083984"/>
      <use xlink:href="#DejaVuSans-69" x="300.292969"/>
      <use xlink:href="#DejaVuSans-76" x="328.076172"/>
      <use xlink:href="#DejaVuSans-65" x="387.255859"/>
      <use xlink:href="#DejaVuSans-20" x="448.779297"/>
      <use xlink:href="#DejaVuSans-70" x="480.566406"/>
      <use xlink:href="#DejaVuSans-72" x="544.042969"/>
      <use xlink:href="#DejaVuSans-65" x="582.90625"/>
      <use xlink:href="#DejaVuSans-64" x="644.429688"/>
      <use xlink:href="#DejaVuSans-69" x="707.90625"/>
      <use xlink:href="#DejaVuSans-63" x="735.689453"/>
      <use xlink:href="#DejaVuSans-74" x="790.669922"/>
      <use xlink:href="#DejaVuSans-69" x="829.878906"/>
      <use xlink:href="#DejaVuSans-6f" x="857.662109"/>
      <use xlink:href="#DejaVuSans-6e" x="918.84375"/>
      <use xlink:href="#DejaVuSans-73" x="982.222656"/>
      <use xlink:href="#DejaVuSans-20" x="1034.322266"/>
      <use xlink:href="#DejaVuSans-6d" x="1066.109375"/>
      <use xlink:href="#DejaVuSans-69" x="1163.521484"/>
      <use xlink:href="#DejaVuSans-6e" x="1191.304688"/>
     </g>
    </g>
   </g>
  </g>
 </g>
 <defs>
  <clipPath id="p66ca850dc6">
   <rect x="57.6" y="41.472" width="357.12" height="266.112"/>
  </clipPath>
 </defs>
</svg>
