<?xml version="1.0" encoding="utf-8" standalone="no"?>
<!DOCTYPE svg PUBLIC "-//W3C//DTD SVG 1.1//EN"
  "http://www.w3.org/Graphics/SVG/1.1/DTD/svg11.dtd">
<svg xmlns:xlink="http://www.w3.org/1999/xlink" width="460.8pt" height="345.6pt" viewBox="0 0 460.8 345.6" xmlns="http://www.w3.org/2000/svg" version="1.1">
 <metadata>
  <rdf:RDF xmlns:dc="http://purl.org/dc/elements/1.1/" xmlns:cc="http://creativecommons.org/ns#" xmlns:rdf="http://www.w3.org/1999/02/22-rdf-syntax-ns#">
   <cc:Work>
    <dc:type rdf:resource="http://purl.org/dc/dcmitype/StillImage"/>
    <dc:date>2024-08-20T21:53:57.587047</dc:date>
    <dc:format>image/svg+xml</dc:format>
    <dc:creator>
     <cc:Agent>
      <dc:title>Matplotlib v3.9.0, https://matplotlib.org/</dc:title>
     </cc:Agent>
    </dc:creator>
   </cc:Work>
  </rdf:RDF>
 </metadata>
 <defs>
  <style type="text/css">*{stroke-linejoin: round; stroke-linecap: butt}</style>
 </defs>
 <g id="figure_1">
  <g id="patch_1">
   <path d="M 0 345.6 
L 460.8 345.6 
L 460.8 0 
L 0 0 
z
" style="fill: #ffffff"/>
  </g>
  <g id="axes_1">
   <g id="patch_2">
    <path d="M 57.6 307.584 
L 414.72 307.584 
L 414.72 41.472 
L 57.6 41.472 
z
" style="fill: #ffffff"/>
   </g>
   <g id="matplotlib.axis_1">
    <g id="xtick_1">
     <g id="line2d_1">
      <defs>
       <path id="m9b18fe8c6c" d="M 0 0 
L 0 3.5 
" style="stroke: #000000; stroke-width: 0.8"/>
      </defs>
      <g>
       <use xlink:href="#m9b18fe8c6c" x="73.832727" y="307.584" style="stroke: #000000; stroke-width: 0.8"/>
      </g>
     </g>
     <g id="text_1">
      <!-- 0 -->
      <g transform="translate(70.651477 322.182437) scale(0.1 -0.1)">
       <defs>
        <path id="DejaVuSans-30" d="M 2034 4250 
Q 1547 4250 1301 3770 
Q 1056 3291 1056 2328 
Q 1056 1369 1301 889 
Q 1547 409 2034 409 
Q 2525 409 2770 889 
Q 3016 1369 3016 2328 
Q 3016 3291 2770 3770 
Q 2525 4250 2034 4250 
z
M 2034 4750 
Q 2819 4750 3233 4129 
Q 3647 3509 3647 2328 
Q 3647 1150 3233 529 
Q 2819 -91 2034 -91 
Q 1250 -91 836 529 
Q 422 1150 422 2328 
Q 422 3509 836 4129 
Q 1250 4750 2034 4750 
z
" transform="scale(0.015625)"/>
       </defs>
       <use xlink:href="#DejaVuSans-30"/>
      </g>
     </g>
    </g>
    <g id="xtick_2">
     <g id="line2d_2">
      <g>
       <use xlink:href="#m9b18fe8c6c" x="149.333784" y="307.584" style="stroke: #000000; stroke-width: 0.8"/>
      </g>
     </g>
     <g id="text_2">
      <!-- 50 -->
      <g transform="translate(142.971284 322.182437) scale(0.1 -0.1)">
       <defs>
        <path id="DejaVuSans-35" d="M 691 4666 
L 3169 4666 
L 3169 4134 
L 1269 4134 
L 1269 2991 
Q 1406 3038 1543 3061 
Q 1681 3084 1819 3084 
Q 2600 3084 3056 2656 
Q 3513 2228 3513 1497 
Q 3513 744 3044 326 
Q 2575 -91 1722 -91 
Q 1428 -91 1123 -41 
Q 819 9 494 109 
L 494 744 
Q 775 591 1075 516 
Q 1375 441 1709 441 
Q 2250 441 2565 725 
Q 2881 1009 2881 1497 
Q 2881 1984 2565 2268 
Q 2250 2553 1709 2553 
Q 1456 2553 1204 2497 
Q 953 2441 691 2322 
L 691 4666 
z
" transform="scale(0.015625)"/>
       </defs>
       <use xlink:href="#DejaVuSans-35"/>
       <use xlink:href="#DejaVuSans-30" x="63.623047"/>
      </g>
     </g>
    </g>
    <g id="xtick_3">
     <g id="line2d_3">
      <g>
       <use xlink:href="#m9b18fe8c6c" x="224.834841" y="307.584" style="stroke: #000000; stroke-width: 0.8"/>
      </g>
     </g>
     <g id="text_3">
      <!-- 100 -->
      <g transform="translate(215.291091 322.182437) scale(0.1 -0.1)">
       <defs>
        <path id="DejaVuSans-31" d="M 794 531 
L 1825 531 
L 1825 4091 
L 703 3866 
L 703 4441 
L 1819 4666 
L 2450 4666 
L 2450 531 
L 3481 531 
L 3481 0 
L 794 0 
L 794 531 
z
" transform="scale(0.015625)"/>
       </defs>
       <use xlink:href="#DejaVuSans-31"/>
       <use xlink:href="#DejaVuSans-30" x="63.623047"/>
       <use xlink:href="#DejaVuSans-30" x="127.246094"/>
      </g>
     </g>
    </g>
    <g id="xtick_4">
     <g id="line2d_4">
      <g>
       <use xlink:href="#m9b18fe8c6c" x="300.335899" y="307.584" style="stroke: #000000; stroke-width: 0.8"/>
      </g>
     </g>
     <g id="text_4">
      <!-- 150 -->
      <g transform="translate(290.792149 322.182437) scale(0.1 -0.1)">
       <use xlink:href="#DejaVuSans-31"/>
       <use xlink:href="#DejaVuSans-35" x="63.623047"/>
       <use xlink:href="#DejaVuSans-30" x="127.246094"/>
      </g>
     </g>
    </g>
    <g id="xtick_5">
     <g id="line2d_5">
      <g>
       <use xlink:href="#m9b18fe8c6c" x="375.836956" y="307.584" style="stroke: #000000; stroke-width: 0.8"/>
      </g>
     </g>
     <g id="text_5">
      <!-- 200 -->
      <g transform="translate(366.293206 322.182437) scale(0.1 -0.1)">
       <defs>
        <path id="DejaVuSans-32" d="M 1228 531 
L 3431 531 
L 3431 0 
L 469 0 
L 469 531 
Q 828 903 1448 1529 
Q 2069 2156 2228 2338 
Q 2531 2678 2651 2914 
Q 2772 3150 2772 3378 
Q 2772 3750 2511 3984 
Q 2250 4219 1831 4219 
Q 1534 4219 1204 4116 
Q 875 4013 500 3803 
L 500 4441 
Q 881 4594 1212 4672 
Q 1544 4750 1819 4750 
Q 2544 4750 2975 4387 
Q 3406 4025 3406 3419 
Q 3406 3131 3298 2873 
Q 3191 2616 2906 2266 
Q 2828 2175 2409 1742 
Q 1991 1309 1228 531 
z
" transform="scale(0.015625)"/>
       </defs>
       <use xlink:href="#DejaVuSans-32"/>
       <use xlink:href="#DejaVuSans-30" x="63.623047"/>
       <use xlink:href="#DejaVuSans-30" x="127.246094"/>
      </g>
     </g>
    </g>
   </g>
   <g id="matplotlib.axis_2">
    <g id="ytick_1">
     <g id="line2d_6">
      <defs>
       <path id="m0a7e79e6ec" d="M 0 0 
L -3.5 0 
" style="stroke: #000000; stroke-width: 0.8"/>
      </defs>
      <g>
       <use xlink:href="#m0a7e79e6ec" x="57.6" y="294.555787" style="stroke: #000000; stroke-width: 0.8"/>
      </g>
     </g>
     <g id="text_6">
      <!-- 5000 -->
      <g transform="translate(25.15 298.355006) scale(0.1 -0.1)">
       <use xlink:href="#DejaVuSans-35"/>
       <use xlink:href="#DejaVuSans-30" x="63.623047"/>
       <use xlink:href="#DejaVuSans-30" x="127.246094"/>
       <use xlink:href="#DejaVuSans-30" x="190.869141"/>
      </g>
     </g>
    </g>
    <g id="ytick_2">
     <g id="line2d_7">
      <g>
       <use xlink:href="#m0a7e79e6ec" x="57.6" y="262.888535" style="stroke: #000000; stroke-width: 0.8"/>
      </g>
     </g>
     <g id="text_7">
      <!-- 5500 -->
      <g transform="translate(25.15 266.687754) scale(0.1 -0.1)">
       <use xlink:href="#DejaVuSans-35"/>
       <use xlink:href="#DejaVuSans-35" x="63.623047"/>
       <use xlink:href="#DejaVuSans-30" x="127.246094"/>
       <use xlink:href="#DejaVuSans-30" x="190.869141"/>
      </g>
     </g>
    </g>
    <g id="ytick_3">
     <g id="line2d_8">
      <g>
       <use xlink:href="#m0a7e79e6ec" x="57.6" y="231.221283" style="stroke: #000000; stroke-width: 0.8"/>
      </g>
     </g>
     <g id="text_8">
      <!-- 6000 -->
      <g transform="translate(25.15 235.020502) scale(0.1 -0.1)">
       <defs>
        <path id="DejaVuSans-36" d="M 2113 2584 
Q 1688 2584 1439 2293 
Q 1191 2003 1191 1497 
Q 1191 994 1439 701 
Q 1688 409 2113 409 
Q 2538 409 2786 701 
Q 3034 994 3034 1497 
Q 3034 2003 2786 2293 
Q 2538 2584 2113 2584 
z
M 3366 4563 
L 3366 3988 
Q 3128 4100 2886 4159 
Q 2644 4219 2406 4219 
Q 1781 4219 1451 3797 
Q 1122 3375 1075 2522 
Q 1259 2794 1537 2939 
Q 1816 3084 2150 3084 
Q 2853 3084 3261 2657 
Q 3669 2231 3669 1497 
Q 3669 778 3244 343 
Q 2819 -91 2113 -91 
Q 1303 -91 875 529 
Q 447 1150 447 2328 
Q 447 3434 972 4092 
Q 1497 4750 2381 4750 
Q 2619 4750 2861 4703 
Q 3103 4656 3366 4563 
z
" transform="scale(0.015625)"/>
       </defs>
       <use xlink:href="#DejaVuSans-36"/>
       <use xlink:href="#DejaVuSans-30" x="63.623047"/>
       <use xlink:href="#DejaVuSans-30" x="127.246094"/>
       <use xlink:href="#DejaVuSans-30" x="190.869141"/>
      </g>
     </g>
    </g>
    <g id="ytick_4">
     <g id="line2d_9">
      <g>
       <use xlink:href="#m0a7e79e6ec" x="57.6" y="199.554031" style="stroke: #000000; stroke-width: 0.8"/>
      </g>
     </g>
     <g id="text_9">
      <!-- 6500 -->
      <g transform="translate(25.15 203.35325) scale(0.1 -0.1)">
       <use xlink:href="#DejaVuSans-36"/>
       <use xlink:href="#DejaVuSans-35" x="63.623047"/>
       <use xlink:href="#DejaVuSans-30" x="127.246094"/>
       <use xlink:href="#DejaVuSans-30" x="190.869141"/>
      </g>
     </g>
    </g>
    <g id="ytick_5">
     <g id="line2d_10">
      <g>
       <use xlink:href="#m0a7e79e6ec" x="57.6" y="167.886779" style="stroke: #000000; stroke-width: 0.8"/>
      </g>
     </g>
     <g id="text_10">
      <!-- 7000 -->
      <g transform="translate(25.15 171.685998) scale(0.1 -0.1)">
       <defs>
        <path id="DejaVuSans-37" d="M 525 4666 
L 3525 4666 
L 3525 4397 
L 1831 0 
L 1172 0 
L 2766 4134 
L 525 4134 
L 525 4666 
z
" transform="scale(0.015625)"/>
       </defs>
       <use xlink:href="#DejaVuSans-37"/>
       <use xlink:href="#DejaVuSans-30" x="63.623047"/>
       <use xlink:href="#DejaVuSans-30" x="127.246094"/>
       <use xlink:href="#DejaVuSans-30" x="190.869141"/>
      </g>
     </g>
    </g>
    <g id="ytick_6">
     <g id="line2d_11">
      <g>
       <use xlink:href="#m0a7e79e6ec" x="57.6" y="136.219528" style="stroke: #000000; stroke-width: 0.8"/>
      </g>
     </g>
     <g id="text_11">
      <!-- 7500 -->
      <g transform="translate(25.15 140.018746) scale(0.1 -0.1)">
       <use xlink:href="#DejaVuSans-37"/>
       <use xlink:href="#DejaVuSans-35" x="63.623047"/>
       <use xlink:href="#DejaVuSans-30" x="127.246094"/>
       <use xlink:href="#DejaVuSans-30" x="190.869141"/>
      </g>
     </g>
    </g>
    <g id="ytick_7">
     <g id="line2d_12">
      <g>
       <use xlink:href="#m0a7e79e6ec" x="57.6" y="104.552276" style="stroke: #000000; stroke-width: 0.8"/>
      </g>
     </g>
     <g id="text_12">
      <!-- 8000 -->
      <g transform="translate(25.15 108.351494) scale(0.1 -0.1)">
       <defs>
        <path id="DejaVuSans-38" d="M 2034 2216 
Q 1584 2216 1326 1975 
Q 1069 1734 1069 1313 
Q 1069 891 1326 650 
Q 1584 409 2034 409 
Q 2484 409 2743 651 
Q 3003 894 3003 1313 
Q 3003 1734 2745 1975 
Q 2488 2216 2034 2216 
z
M 1403 2484 
Q 997 2584 770 2862 
Q 544 3141 544 3541 
Q 544 4100 942 4425 
Q 1341 4750 2034 4750 
Q 2731 4750 3128 4425 
Q 3525 4100 3525 3541 
Q 3525 3141 3298 2862 
Q 3072 2584 2669 2484 
Q 3125 2378 3379 2068 
Q 3634 1759 3634 1313 
Q 3634 634 3220 271 
Q 2806 -91 2034 -91 
Q 1263 -91 848 271 
Q 434 634 434 1313 
Q 434 1759 690 2068 
Q 947 2378 1403 2484 
z
M 1172 3481 
Q 1172 3119 1398 2916 
Q 1625 2713 2034 2713 
Q 2441 2713 2670 2916 
Q 2900 3119 2900 3481 
Q 2900 3844 2670 4047 
Q 2441 4250 2034 4250 
Q 1625 4250 1398 4047 
Q 1172 3844 1172 3481 
z
" transform="scale(0.015625)"/>
       </defs>
       <use xlink:href="#DejaVuSans-38"/>
       <use xlink:href="#DejaVuSans-30" x="63.623047"/>
       <use xlink:href="#DejaVuSans-30" x="127.246094"/>
       <use xlink:href="#DejaVuSans-30" x="190.869141"/>
      </g>
     </g>
    </g>
    <g id="ytick_8">
     <g id="line2d_13">
      <g>
       <use xlink:href="#m0a7e79e6ec" x="57.6" y="72.885024" style="stroke: #000000; stroke-width: 0.8"/>
      </g>
     </g>
     <g id="text_13">
      <!-- 8500 -->
      <g transform="translate(25.15 76.684242) scale(0.1 -0.1)">
       <use xlink:href="#DejaVuSans-38"/>
       <use xlink:href="#DejaVuSans-35" x="63.623047"/>
       <use xlink:href="#DejaVuSans-30" x="127.246094"/>
       <use xlink:href="#DejaVuSans-30" x="190.869141"/>
      </g>
     </g>
    </g>
   </g>
   <g id="line2d_14">
    <path d="M 73.832727 295.486083 
L 75.342748 294.204178 
L 76.85277 291.377242 
L 79.872812 290.309819 
L 81.382833 290.050991 
L 82.892854 290.153697 
L 84.402875 289.412512 
L 85.912896 289.723632 
L 87.422918 286.873467 
L 88.932939 282.590704 
L 90.44296 275.96966 
L 91.952981 276.523822 
L 93.463002 277.290328 
L 94.973023 279.219228 
L 96.483044 277.43886 
L 97.993066 276.930015 
L 99.503087 276.036162 
L 101.013108 273.775023 
L 102.523129 272.051224 
L 104.03315 269.655913 
L 105.543171 269.185706 
L 107.053192 267.629121 
L 108.563214 267.871038 
L 110.073235 267.86674 
L 111.583256 267.982509 
L 113.093277 266.928721 
L 114.603298 266.092376 
L 116.113319 266.300329 
L 117.62334 266.291194 
L 119.133362 266.410456 
L 120.643383 266.165435 
L 122.153404 266.173271 
L 123.663425 266.951024 
L 125.173446 267.242596 
L 126.683467 267.137611 
L 128.193488 267.22031 
L 129.70351 263.095453 
L 131.213531 261.663964 
L 132.723552 263.047371 
L 134.233573 261.572665 
L 135.743594 261.105788 
L 137.253615 260.859241 
L 138.763636 261.042953 
L 140.273658 260.421027 
L 141.783679 260.136858 
L 143.2937 259.216053 
L 144.803721 257.681353 
L 146.313742 255.969132 
L 147.823763 254.657222 
L 149.333784 252.245037 
L 150.843805 250.180798 
L 152.353827 247.760412 
L 153.863848 246.491398 
L 155.373869 246.45988 
L 156.88389 245.087316 
L 158.393911 244.964402 
L 159.903932 245.770769 
L 161.413953 242.961838 
L 162.923975 240.396225 
L 164.433996 238.967884 
L 165.944017 238.953394 
L 167.454038 239.658862 
L 168.964059 240.199784 
L 170.47408 240.569526 
L 171.984101 241.445513 
L 173.494123 239.777241 
L 175.004144 240.43978 
L 176.514165 238.659298 
L 178.024186 238.761442 
L 179.534207 238.224119 
L 181.044228 238.50361 
L 182.554249 237.4436 
L 184.064271 235.52102 
L 185.574292 235.092198 
L 187.084313 232.64611 
L 188.594334 231.125181 
L 190.104355 230.674786 
L 191.614376 231.139728 
L 193.124397 230.586573 
L 194.634419 231.365919 
L 196.14444 231.972317 
L 197.654461 230.16427 
L 199.164482 230.49085 
L 202.184524 225.401724 
L 203.694545 224.552618 
L 205.204567 221.994203 
L 206.714588 221.760125 
L 208.224609 222.388711 
L 209.73463 222.664395 
L 211.244651 222.57876 
L 212.754672 220.216917 
L 214.264693 217.345068 
L 215.774715 217.619851 
L 217.284736 215.475976 
L 218.794757 215.265985 
L 220.304778 216.292693 
L 221.814799 215.909568 
L 223.32482 216.828625 
L 224.834841 213.994461 
L 226.344863 213.68455 
L 227.854884 212.526194 
L 229.364905 212.865073 
L 230.874926 213.676317 
L 233.894968 212.723449 
L 235.404989 212.665948 
L 236.915011 210.339283 
L 238.425032 204.129316 
L 239.935053 205.558554 
L 241.445074 205.635766 
L 242.955095 205.33982 
L 244.465116 204.484187 
L 245.975137 206.211827 
L 247.485159 200.662767 
L 248.99518 200.945617 
L 250.505201 198.285114 
L 252.015222 200.119111 
L 253.525243 197.778925 
L 255.035264 196.465855 
L 256.545285 191.429119 
L 258.055307 192.573871 
L 259.565328 193.052204 
L 261.075349 193.9924 
L 262.58537 194.119806 
L 264.095391 195.396703 
L 265.605412 193.95411 
L 267.115433 189.472795 
L 268.625455 190.808501 
L 271.645497 189.961245 
L 273.155518 186.069807 
L 274.665539 186.186382 
L 276.17556 183.613428 
L 277.685581 183.251061 
L 279.195603 181.212547 
L 280.705624 179.715273 
L 282.215645 180.85194 
L 283.725666 177.783562 
L 285.235687 175.35877 
L 286.745708 168.643453 
L 288.255729 164.788799 
L 291.275772 159.046699 
L 292.785793 158.650914 
L 294.295814 154.168575 
L 295.805835 146.596508 
L 297.315856 146.584403 
L 298.825877 147.148519 
L 300.335899 147.421403 
L 301.84592 148.560568 
L 303.355941 148.83843 
L 304.865962 147.769216 
L 306.375983 144.151766 
L 307.886004 141.096929 
L 309.396025 140.302009 
L 310.906047 140.083471 
L 313.926089 131.962763 
L 315.43611 130.832049 
L 316.946131 126.12102 
L 319.966173 125.023214 
L 321.476195 122.947419 
L 322.986216 123.001357 
L 324.496237 122.78185 
L 326.006258 123.434952 
L 327.516279 123.027648 
L 329.0263 121.330752 
L 330.536321 121.45016 
L 332.046342 118.363458 
L 333.556364 109.926225 
L 335.066385 108.73226 
L 336.576406 110.424801 
L 338.086427 111.166129 
L 339.596448 111.357793 
L 341.106469 113.509296 
L 342.61649 112.494094 
L 344.126512 106.589035 
L 345.636533 107.309507 
L 347.146554 106.000439 
L 348.656575 102.550363 
L 350.166596 99.619323 
L 351.676617 100.45286 
L 353.186638 97.105728 
L 354.69666 97.694425 
L 356.206681 97.98162 
L 357.716702 97.900762 
L 359.226723 96.844654 
L 360.736744 96.854745 
L 362.246765 94.624728 
L 363.756786 91.346443 
L 365.266808 83.940613 
L 366.776829 79.543246 
L 368.28685 65.999847 
L 369.796871 62.727027 
L 371.306892 64.523655 
L 372.816913 68.080233 
L 374.326934 69.179733 
L 375.836956 70.790516 
L 377.346977 70.10323 
L 378.856998 70.593564 
L 380.367019 67.061545 
L 381.87704 66.934953 
L 383.387061 68.15982 
L 384.897082 68.480906 
L 386.407104 66.654998 
L 387.917125 66.075261 
L 389.427146 66.594269 
L 390.937167 62.926879 
L 392.447188 61.746527 
L 393.957209 61.069906 
L 395.46723 61.346948 
L 396.977252 61.039817 
L 398.487273 54.824648 
L 398.487273 54.824648 
" clip-path="url(#pa1857be544)" style="fill: none; stroke: #1f77b4; stroke-opacity: 0.7; stroke-width: 0.5; stroke-linecap: square"/>
   </g>
   <g id="line2d_15">
    <path d="M 73.832727 295.45221 
L 75.342748 294.149848 
L 76.85277 291.150584 
L 78.362791 290.777913 
L 79.872812 290.271277 
L 81.382833 290.055942 
L 82.892854 290.174727 
L 84.402875 289.346948 
L 85.912896 289.601837 
L 87.422918 286.881332 
L 88.932939 282.470361 
L 90.44296 275.17271 
L 91.952981 276.159742 
L 93.463002 277.593327 
L 94.973023 279.625337 
L 96.483044 277.461546 
L 97.993066 277.029348 
L 99.503087 276.113741 
L 101.013108 273.749894 
L 102.523129 271.969703 
L 104.03315 269.475215 
L 105.543171 269.187282 
L 107.053192 267.569201 
L 108.563214 267.92098 
L 110.073235 267.90151 
L 111.583256 268.013104 
L 113.093277 266.941466 
L 114.603298 266.075697 
L 116.113319 266.299028 
L 117.62334 266.230654 
L 119.133362 266.433806 
L 120.643383 266.179142 
L 122.153404 266.161602 
L 123.663425 266.943028 
L 125.173446 267.195073 
L 126.683467 267.099904 
L 128.193488 267.175722 
L 129.70351 263.24555 
L 131.213531 261.583402 
L 132.723552 263.128477 
L 134.233573 261.570686 
L 135.743594 261.101908 
L 137.253615 260.863685 
L 138.763636 261.018511 
L 140.273658 260.280264 
L 141.783679 260.072912 
L 143.2937 259.000514 
L 144.803721 257.501793 
L 146.313742 255.740626 
L 147.823763 254.267636 
L 149.333784 251.597701 
L 150.843805 249.481874 
L 152.353827 246.999372 
L 153.863848 245.958118 
L 155.373869 246.247477 
L 156.88389 244.814887 
L 158.393911 244.845174 
L 159.903932 245.891689 
L 161.413953 242.807104 
L 162.923975 240.071543 
L 164.433996 238.632439 
L 165.944017 238.815938 
L 167.454038 239.844008 
L 170.47408 240.454376 
L 171.984101 241.314347 
L 173.494123 239.708189 
L 175.004144 240.156673 
L 176.514165 238.481968 
L 178.024186 238.617109 
L 179.534207 238.068755 
L 181.044228 238.327466 
L 182.554249 237.268514 
L 184.064271 235.472451 
L 185.574292 234.976069 
L 187.084313 232.250551 
L 188.594334 230.71497 
L 190.104355 230.499497 
L 191.614376 231.222637 
L 193.124397 230.605072 
L 194.634419 231.372586 
L 196.14444 231.903343 
L 197.654461 230.133788 
L 199.164482 230.289119 
L 202.184524 225.384755 
L 203.694545 224.310694 
L 205.204567 221.527555 
L 206.714588 221.629932 
L 208.224609 222.57156 
L 209.73463 222.71014 
L 211.244651 222.56402 
L 212.754672 220.210784 
L 214.264693 217.040588 
L 215.774715 217.603282 
L 217.284736 215.18775 
L 218.794757 215.201182 
L 220.304778 216.572542 
L 221.814799 215.941535 
L 223.32482 216.797257 
L 224.834841 214.043351 
L 226.344863 213.712292 
L 227.854884 212.511876 
L 229.364905 212.94476 
L 230.874926 213.746553 
L 233.894968 212.61081 
L 235.404989 212.620419 
L 236.915011 210.314836 
L 238.425032 204.322183 
L 239.935053 205.911362 
L 241.445074 205.795218 
L 242.955095 205.450924 
L 244.465116 204.534035 
L 245.975137 206.450584 
L 247.485159 200.516571 
L 248.99518 201.047815 
L 250.505201 197.964319 
L 252.015222 200.336736 
L 253.525243 197.805852 
L 255.035264 196.424483 
L 256.545285 190.553216 
L 258.055307 192.646858 
L 259.565328 193.102641 
L 261.075349 194.104472 
L 262.58537 194.248002 
L 264.095391 195.530156 
L 265.605412 194.075787 
L 267.115433 189.693141 
L 268.625455 191.024269 
L 271.645497 190.022949 
L 273.155518 185.85675 
L 274.665539 186.199612 
L 276.17556 183.382833 
L 277.685581 183.188736 
L 279.195603 181.008715 
L 280.705624 179.521474 
L 282.215645 180.947419 
L 283.725666 177.62959 
L 285.235687 175.060963 
L 286.745708 167.611931 
L 288.255729 163.53703 
L 291.275772 157.903514 
L 292.785793 157.492132 
L 294.295814 153.017564 
L 295.805835 144.80605 
L 297.315856 144.970212 
L 300.335899 146.735757 
L 301.84592 147.948041 
L 303.355941 148.07374 
L 304.865962 147.107457 
L 306.375983 143.67179 
L 307.886004 140.616402 
L 309.396025 139.825897 
L 310.906047 139.653536 
L 313.926089 131.287754 
L 315.43611 130.013885 
L 316.946131 125.124267 
L 319.966173 124.222826 
L 321.476195 122.34056 
L 322.986216 122.629459 
L 324.496237 122.704593 
L 326.006258 123.267601 
L 327.516279 122.738783 
L 329.0263 120.790954 
L 330.536321 121.05683 
L 332.046342 118.060438 
L 333.556364 109.51512 
L 335.066385 107.55761 
L 336.576406 110.784832 
L 338.086427 111.46693 
L 339.596448 111.214693 
L 341.106469 113.303585 
L 342.61649 112.022781 
L 344.126512 106.579214 
L 345.636533 107.111344 
L 347.146554 105.838509 
L 348.656575 102.27509 
L 350.166596 99.186679 
L 351.676617 100.433554 
L 353.186638 96.889771 
L 354.69666 97.702186 
L 356.206681 97.895628 
L 357.716702 97.761808 
L 359.226723 96.428137 
L 360.736744 96.503616 
L 362.246765 94.403796 
L 363.756786 91.535836 
L 365.266808 83.247631 
L 366.776829 77.570166 
L 368.28685 61.414626 
L 369.796871 58.940633 
L 371.306892 63.2759 
L 372.816913 68.676721 
L 374.326934 68.873768 
L 375.836956 70.31961 
L 377.346977 70.216703 
L 378.856998 70.762626 
L 380.367019 67.067368 
L 381.87704 67.005642 
L 383.387061 68.310519 
L 384.897082 68.468934 
L 386.407104 66.607827 
L 387.917125 66.157876 
L 389.427146 66.555852 
L 390.937167 62.824242 
L 392.447188 61.459305 
L 393.957209 60.855546 
L 395.46723 61.293447 
L 396.977252 61.037259 
L 398.487273 54.632656 
L 398.487273 54.632656 
" clip-path="url(#pa1857be544)" style="fill: none; stroke: #ff7f0e; stroke-opacity: 0.7; stroke-width: 0.5; stroke-linecap: square"/>
   </g>
   <g id="line2d_16">
    <path d="M 73.832727 295.488 
L 75.342748 294.20867 
L 76.85277 291.205645 
L 78.362791 290.668525 
L 79.872812 290.260823 
L 81.382833 290.085117 
L 82.892854 290.288005 
L 84.402875 289.445177 
L 85.912896 289.745805 
L 87.422918 286.917396 
L 88.932939 282.160022 
L 90.44296 275.13158 
L 91.952981 276.048774 
L 93.463002 277.448059 
L 94.973023 279.749863 
L 96.483044 277.585688 
L 97.993066 277.175165 
L 99.503087 276.208187 
L 101.013108 273.834822 
L 102.523129 272.019945 
L 104.03315 269.423586 
L 105.543171 269.209647 
L 107.053192 267.490989 
L 108.563214 267.989454 
L 111.583256 268.256198 
L 113.093277 267.020763 
L 114.603298 266.121291 
L 116.113319 266.359068 
L 117.62334 266.377851 
L 119.133362 266.541307 
L 120.643383 266.262135 
L 122.153404 266.242033 
L 123.663425 267.037464 
L 125.173446 267.315623 
L 126.683467 267.157566 
L 128.193488 267.221412 
L 129.70351 263.073942 
L 131.213531 261.551657 
L 132.723552 263.043129 
L 134.233573 261.460874 
L 135.743594 261.063916 
L 137.253615 260.880439 
L 138.763636 261.096137 
L 140.273658 260.382769 
L 141.783679 260.136287 
L 143.2937 259.064222 
L 147.823763 254.262494 
L 152.353827 247.146028 
L 153.863848 246.089004 
L 155.373869 246.403329 
L 156.88389 245.017932 
L 158.393911 244.973508 
L 159.903932 246.042456 
L 161.413953 242.727599 
L 162.923975 240.0802 
L 164.433996 238.744427 
L 165.944017 238.852949 
L 167.454038 239.893188 
L 168.964059 240.456451 
L 170.47408 240.76103 
L 171.984101 241.615047 
L 173.494123 239.740113 
L 175.004144 240.302506 
L 176.514165 238.618228 
L 178.024186 238.676519 
L 179.534207 238.120084 
L 181.044228 238.460335 
L 182.554249 237.387813 
L 184.064271 235.371006 
L 185.574292 234.985904 
L 187.084313 232.392904 
L 188.594334 230.871267 
L 190.104355 230.499968 
L 191.614376 231.244864 
L 193.124397 230.710642 
L 194.634419 231.57189 
L 196.14444 232.148642 
L 197.654461 230.129326 
L 199.164482 230.428519 
L 202.184524 225.191866 
L 203.694545 224.332845 
L 205.204567 221.665989 
L 206.714588 221.597298 
L 208.224609 222.516594 
L 209.73463 222.925249 
L 211.244651 222.739071 
L 212.754672 220.138745 
L 214.264693 216.99367 
L 215.774715 217.503411 
L 217.284736 215.410396 
L 218.794757 215.19706 
L 220.304778 216.596806 
L 221.814799 216.091963 
L 223.32482 217.022639 
L 224.834841 213.924658 
L 226.344863 213.660733 
L 227.854884 212.457867 
L 229.364905 212.941866 
L 230.874926 213.788396 
L 233.894968 212.716247 
L 235.404989 212.691514 
L 236.915011 210.319333 
L 238.425032 203.574459 
L 239.935053 205.62101 
L 241.445074 205.666049 
L 242.955095 205.436285 
L 244.465116 204.552891 
L 245.975137 206.631064 
L 247.485159 200.603669 
L 248.99518 200.823151 
L 250.505201 197.897777 
L 252.015222 200.270815 
L 253.525243 197.639704 
L 255.035264 196.319041 
L 256.545285 190.804234 
L 258.055307 192.343436 
L 259.565328 193.103026 
L 261.075349 194.459989 
L 262.58537 194.453942 
L 264.095391 195.837484 
L 265.605412 194.11214 
L 267.115433 189.133426 
L 268.625455 190.87157 
L 271.645497 189.991424 
L 273.155518 185.625632 
L 274.665539 186.06323 
L 276.17556 183.315639 
L 277.685581 183.218256 
L 279.195603 181.090352 
L 280.705624 179.477604 
L 282.215645 180.969699 
L 283.725666 177.514298 
L 285.235687 175.024956 
L 286.745708 168.022908 
L 288.255729 164.151789 
L 291.275772 158.629753 
L 292.785793 158.198498 
L 294.295814 153.78058 
L 295.805835 146.120617 
L 297.315856 145.964463 
L 298.825877 146.539605 
L 300.335899 147.29728 
L 301.84592 148.587755 
L 303.355941 148.622806 
L 304.865962 147.574654 
L 306.375983 143.709921 
L 307.886004 140.683743 
L 309.396025 139.935485 
L 310.906047 139.864279 
L 312.416068 135.502481 
L 313.926089 131.574989 
L 315.43611 130.446979 
L 316.946131 125.909497 
L 318.456152 125.012306 
L 319.966173 124.653634 
L 321.476195 122.599493 
L 324.496237 122.936909 
L 326.006258 123.612264 
L 327.516279 122.978509 
L 329.0263 121.08812 
L 330.536321 121.29032 
L 332.046342 118.226133 
L 333.556364 109.731159 
L 335.066385 108.215815 
L 336.576406 110.590529 
L 338.086427 111.604001 
L 339.596448 111.588732 
L 341.106469 113.923238 
L 342.61649 112.634289 
L 344.126512 106.209912 
L 345.636533 107.075884 
L 347.146554 105.899749 
L 348.656575 102.390661 
L 350.166596 99.355822 
L 351.676617 100.412711 
L 353.186638 96.846666 
L 354.69666 97.692364 
L 356.206681 98.180119 
L 357.716702 98.033127 
L 359.226723 96.745214 
L 360.736744 96.774559 
L 362.246765 94.578534 
L 363.756786 91.357611 
L 365.266808 82.565665 
L 366.776829 77.911757 
L 368.28685 62.983498 
L 369.796871 61.261974 
L 371.306892 63.81872 
L 372.816913 68.689221 
L 374.326934 69.549025 
L 375.836956 70.974585 
L 377.346977 70.69691 
L 378.856998 71.100348 
L 380.367019 67.47383 
L 381.87704 67.044047 
L 383.387061 68.522196 
L 384.897082 68.771492 
L 386.407104 66.698914 
L 387.917125 66.176093 
L 389.427146 66.741806 
L 390.937167 62.912499 
L 392.447188 61.62579 
L 393.957209 61.028566 
L 395.46723 61.416284 
L 396.977252 61.159239 
L 398.487273 54.647791 
L 398.487273 54.647791 
" clip-path="url(#pa1857be544)" style="fill: none; stroke: #2ca02c; stroke-opacity: 0.7; stroke-width: 0.5; stroke-linecap: square"/>
   </g>
   <g id="line2d_17">
    <path d="M 73.832727 295.062463 
L 75.342748 292.529083 
L 78.362791 291.262393 
L 79.872812 290.882386 
L 81.382833 290.819051 
L 82.892854 290.059037 
L 84.402875 290.122372 
L 85.912896 287.84233 
L 87.422918 283.978925 
L 88.932939 277.962147 
L 90.44296 278.088816 
L 91.952981 278.595492 
L 93.463002 279.988851 
L 94.973023 278.405489 
L 96.483044 277.835478 
L 97.993066 276.948795 
L 99.503087 274.922091 
L 101.013108 273.275394 
L 102.523129 271.058686 
L 104.03315 270.425341 
L 105.543171 268.905313 
L 107.053192 268.905313 
L 108.563214 268.71531 
L 110.073235 268.651975 
L 113.093277 266.878609 
L 114.603298 266.878609 
L 116.113319 266.75194 
L 117.62334 266.75194 
L 119.133362 266.498602 
L 120.643383 266.435267 
L 122.153404 267.005278 
L 123.663425 267.195281 
L 125.173446 267.131947 
L 126.683467 267.195281 
L 128.193488 263.901887 
L 129.70351 262.508528 
L 131.213531 263.458546 
L 132.723552 262.191856 
L 134.233573 261.68518 
L 135.743594 261.368507 
L 137.253615 261.431842 
L 138.763636 260.861831 
L 140.273658 260.545159 
L 141.783679 259.72181 
L 143.2937 258.328451 
L 144.803721 256.745088 
L 146.313742 255.478398 
L 147.823763 253.261691 
L 149.333784 251.298321 
L 150.843805 249.018279 
L 152.353827 247.688254 
L 153.863848 247.434916 
L 155.373869 246.104892 
L 156.88389 245.851554 
L 158.393911 246.484899 
L 161.413953 241.544807 
L 162.923975 240.088114 
L 164.433996 239.89811 
L 165.944017 240.468121 
L 168.964059 240.848128 
L 170.47408 241.481473 
L 171.984101 240.214783 
L 173.494123 240.59479 
L 175.004144 239.201431 
L 176.514165 239.138096 
L 178.024186 238.63142 
L 179.534207 238.758089 
L 181.044228 237.871406 
L 182.554249 236.224709 
L 184.064271 235.718033 
L 185.574292 233.56466 
L 187.084313 232.107966 
L 188.594334 231.537956 
L 190.104355 231.791294 
L 191.614376 231.221283 
L 193.124397 231.727959 
L 194.634419 232.107966 
L 196.14444 230.714607 
L 197.654461 230.841276 
L 199.164482 228.751238 
L 200.674503 226.407861 
L 202.184524 225.457843 
L 203.694545 223.114467 
L 205.204567 222.73446 
L 206.714588 223.177801 
L 208.224609 223.177801 
L 209.73463 222.987798 
L 211.244651 221.087763 
L 212.754672 218.427713 
L 214.264693 218.491048 
L 215.774715 216.464344 
L 217.284736 216.147671 
L 218.794757 216.97102 
L 220.304778 216.464344 
L 221.814799 217.034354 
L 223.32482 214.817647 
L 224.834841 214.374305 
L 226.344863 213.297619 
L 227.854884 213.424288 
L 229.364905 213.994298 
L 232.384947 213.107615 
L 233.894968 212.980946 
L 235.404989 211.080911 
L 236.915011 205.634144 
L 238.425032 206.584161 
L 239.935053 206.457492 
L 241.445074 206.077485 
L 242.955095 205.254137 
L 244.465116 206.520827 
L 245.975137 201.960742 
L 247.485159 201.960742 
L 248.99518 199.427362 
L 250.505201 200.820721 
L 252.015222 198.794017 
L 253.525243 197.527327 
L 255.035264 192.903908 
L 256.545285 193.727257 
L 258.055307 193.917261 
L 259.565328 194.550606 
L 261.075349 194.61394 
L 262.58537 195.563958 
L 264.095391 194.423937 
L 265.605412 190.687201 
L 267.115433 191.510549 
L 270.135476 190.560532 
L 271.645497 187.267138 
L 273.155518 187.140469 
L 274.665539 184.797092 
L 276.17556 184.290416 
L 277.685581 182.390381 
L 279.195603 180.933687 
L 280.705624 181.693701 
L 282.215645 178.970318 
L 283.725666 176.690275 
L 285.235687 170.610163 
L 286.745708 166.810093 
L 289.765751 160.983319 
L 291.275772 159.906632 
L 292.785793 155.979893 
L 294.295814 149.013097 
L 295.805835 147.999745 
L 297.315856 148.126414 
L 298.825877 148.379752 
L 300.335899 149.076432 
L 301.84592 149.013097 
L 303.355941 148.316418 
L 306.375983 142.679647 
L 307.886004 141.60296 
L 309.396025 141.159619 
L 312.416068 133.686147 
L 313.926089 132.229454 
L 315.43611 127.986042 
L 316.946131 126.909355 
L 318.456152 126.086007 
L 319.966173 124.249306 
L 322.986216 123.869299 
L 324.496237 124.122637 
L 326.006258 123.552627 
L 327.516279 122.222602 
L 329.0263 122.095933 
L 330.536321 119.562553 
L 332.046342 111.962413 
L 333.556364 110.189046 
L 335.066385 111.64574 
L 336.576406 112.152416 
L 338.086427 112.152416 
L 339.596448 113.672444 
L 341.106469 113.102434 
L 342.61649 108.225677 
L 344.126512 108.41568 
L 345.636533 107.14899 
L 347.146554 104.108934 
L 348.656575 101.38555 
L 350.166596 101.702223 
L 351.676617 98.725501 
L 353.186638 98.915505 
L 354.69666 98.85217 
L 356.206681 98.598832 
L 357.716702 97.648815 
L 359.226723 97.458811 
L 360.736744 95.622111 
L 362.246765 92.835392 
L 363.756786 85.995266 
L 365.266808 81.625185 
L 366.776829 69.274957 
L 368.28685 65.09488 
L 369.796871 66.424904 
L 371.306892 69.654964 
L 372.816913 69.781633 
L 374.326934 70.794985 
L 375.836956 70.731651 
L 377.346977 71.111658 
L 378.856998 68.19827 
L 380.367019 67.944932 
L 381.87704 68.704946 
L 383.387061 68.831615 
L 384.897082 67.438256 
L 386.407104 66.804911 
L 387.917125 67.058249 
L 389.427146 63.954859 
L 390.937167 62.751503 
L 392.447188 61.991489 
L 393.957209 62.054824 
L 395.46723 61.674816 
L 396.977252 56.354718 
L 398.487273 53.568 
L 398.487273 53.568 
" clip-path="url(#pa1857be544)" style="fill: none; stroke: #d62728; stroke-opacity: 0.7; stroke-width: 0.5; stroke-linecap: square"/>
   </g>
   <g id="patch_3">
    <path d="M 57.6 307.584 
L 57.6 41.472 
" style="fill: none; stroke: #000000; stroke-width: 0.8; stroke-linejoin: miter; stroke-linecap: square"/>
   </g>
   <g id="patch_4">
    <path d="M 414.72 307.584 
L 414.72 41.472 
" style="fill: none; stroke: #000000; stroke-width: 0.8; stroke-linejoin: miter; stroke-linecap: square"/>
   </g>
   <g id="patch_5">
    <path d="M 57.6 307.584 
L 414.72 307.584 
" style="fill: none; stroke: #000000; stroke-width: 0.8; stroke-linejoin: miter; stroke-linecap: square"/>
   </g>
   <g id="patch_6">
    <path d="M 57.6 41.472 
L 414.72 41.472 
" style="fill: none; stroke: #000000; stroke-width: 0.8; stroke-linejoin: miter; stroke-linecap: square"/>
   </g>
   <g id="text_14">
    <!-- zhang_extended_simrank_cci -->
    <g transform="translate(148.303125 35.472) scale(0.12 -0.12)">
     <defs>
      <path id="DejaVuSans-7a" d="M 353 3500 
L 3084 3500 
L 3084 2975 
L 922 459 
L 3084 459 
L 3084 0 
L 275 0 
L 275 525 
L 2438 3041 
L 353 3041 
L 353 3500 
z
" transform="scale(0.015625)"/>
      <path id="DejaVuSans-68" d="M 3513 2113 
L 3513 0 
L 2938 0 
L 2938 2094 
Q 2938 2591 2744 2837 
Q 2550 3084 2163 3084 
Q 1697 3084 1428 2787 
Q 1159 2491 1159 1978 
L 1159 0 
L 581 0 
L 581 4863 
L 1159 4863 
L 1159 2956 
Q 1366 3272 1645 3428 
Q 1925 3584 2291 3584 
Q 2894 3584 3203 3211 
Q 3513 2838 3513 2113 
z
" transform="scale(0.015625)"/>
      <path id="DejaVuSans-61" d="M 2194 1759 
Q 1497 1759 1228 1600 
Q 959 1441 959 1056 
Q 959 750 1161 570 
Q 1363 391 1709 391 
Q 2188 391 2477 730 
Q 2766 1069 2766 1631 
L 2766 1759 
L 2194 1759 
z
M 3341 1997 
L 3341 0 
L 2766 0 
L 2766 531 
Q 2569 213 2275 61 
Q 1981 -91 1556 -91 
Q 1019 -91 701 211 
Q 384 513 384 1019 
Q 384 1609 779 1909 
Q 1175 2209 1959 2209 
L 2766 2209 
L 2766 2266 
Q 2766 2663 2505 2880 
Q 2244 3097 1772 3097 
Q 1472 3097 1187 3025 
Q 903 2953 641 2809 
L 641 3341 
Q 956 3463 1253 3523 
Q 1550 3584 1831 3584 
Q 2591 3584 2966 3190 
Q 3341 2797 3341 1997 
z
" transform="scale(0.015625)"/>
      <path id="DejaVuSans-6e" d="M 3513 2113 
L 3513 0 
L 2938 0 
L 2938 2094 
Q 2938 2591 2744 2837 
Q 2550 3084 2163 3084 
Q 1697 3084 1428 2787 
Q 1159 2491 1159 1978 
L 1159 0 
L 581 0 
L 581 3500 
L 1159 3500 
L 1159 2956 
Q 1366 3272 1645 3428 
Q 1925 3584 2291 3584 
Q 2894 3584 3203 3211 
Q 3513 2838 3513 2113 
z
" transform="scale(0.015625)"/>
      <path id="DejaVuSans-67" d="M 2906 1791 
Q 2906 2416 2648 2759 
Q 2391 3103 1925 3103 
Q 1463 3103 1205 2759 
Q 947 2416 947 1791 
Q 947 1169 1205 825 
Q 1463 481 1925 481 
Q 2391 481 2648 825 
Q 2906 1169 2906 1791 
z
M 3481 434 
Q 3481 -459 3084 -895 
Q 2688 -1331 1869 -1331 
Q 1566 -1331 1297 -1286 
Q 1028 -1241 775 -1147 
L 775 -588 
Q 1028 -725 1275 -790 
Q 1522 -856 1778 -856 
Q 2344 -856 2625 -561 
Q 2906 -266 2906 331 
L 2906 616 
Q 2728 306 2450 153 
Q 2172 0 1784 0 
Q 1141 0 747 490 
Q 353 981 353 1791 
Q 353 2603 747 3093 
Q 1141 3584 1784 3584 
Q 2172 3584 2450 3431 
Q 2728 3278 2906 2969 
L 2906 3500 
L 3481 3500 
L 3481 434 
z
" transform="scale(0.015625)"/>
      <path id="DejaVuSans-5f" d="M 3263 -1063 
L 3263 -1509 
L -63 -1509 
L -63 -1063 
L 3263 -1063 
z
" transform="scale(0.015625)"/>
      <path id="DejaVuSans-65" d="M 3597 1894 
L 3597 1613 
L 953 1613 
Q 991 1019 1311 708 
Q 1631 397 2203 397 
Q 2534 397 2845 478 
Q 3156 559 3463 722 
L 3463 178 
Q 3153 47 2828 -22 
Q 2503 -91 2169 -91 
Q 1331 -91 842 396 
Q 353 884 353 1716 
Q 353 2575 817 3079 
Q 1281 3584 2069 3584 
Q 2775 3584 3186 3129 
Q 3597 2675 3597 1894 
z
M 3022 2063 
Q 3016 2534 2758 2815 
Q 2500 3097 2075 3097 
Q 1594 3097 1305 2825 
Q 1016 2553 972 2059 
L 3022 2063 
z
" transform="scale(0.015625)"/>
      <path id="DejaVuSans-78" d="M 3513 3500 
L 2247 1797 
L 3578 0 
L 2900 0 
L 1881 1375 
L 863 0 
L 184 0 
L 1544 1831 
L 300 3500 
L 978 3500 
L 1906 2253 
L 2834 3500 
L 3513 3500 
z
" transform="scale(0.015625)"/>
      <path id="DejaVuSans-74" d="M 1172 4494 
L 1172 3500 
L 2356 3500 
L 2356 3053 
L 1172 3053 
L 1172 1153 
Q 1172 725 1289 603 
Q 1406 481 1766 481 
L 2356 481 
L 2356 0 
L 1766 0 
Q 1100 0 847 248 
Q 594 497 594 1153 
L 594 3053 
L 172 3053 
L 172 3500 
L 594 3500 
L 594 4494 
L 1172 4494 
z
" transform="scale(0.015625)"/>
      <path id="DejaVuSans-64" d="M 2906 2969 
L 2906 4863 
L 3481 4863 
L 3481 0 
L 2906 0 
L 2906 525 
Q 2725 213 2448 61 
Q 2172 -91 1784 -91 
Q 1150 -91 751 415 
Q 353 922 353 1747 
Q 353 2572 751 3078 
Q 1150 3584 1784 3584 
Q 2172 3584 2448 3432 
Q 2725 3281 2906 2969 
z
M 947 1747 
Q 947 1113 1208 752 
Q 1469 391 1925 391 
Q 2381 391 2643 752 
Q 2906 1113 2906 1747 
Q 2906 2381 2643 2742 
Q 2381 3103 1925 3103 
Q 1469 3103 1208 2742 
Q 947 2381 947 1747 
z
" transform="scale(0.015625)"/>
      <path id="DejaVuSans-73" d="M 2834 3397 
L 2834 2853 
Q 2591 2978 2328 3040 
Q 2066 3103 1784 3103 
Q 1356 3103 1142 2972 
Q 928 2841 928 2578 
Q 928 2378 1081 2264 
Q 1234 2150 1697 2047 
L 1894 2003 
Q 2506 1872 2764 1633 
Q 3022 1394 3022 966 
Q 3022 478 2636 193 
Q 2250 -91 1575 -91 
Q 1294 -91 989 -36 
Q 684 19 347 128 
L 347 722 
Q 666 556 975 473 
Q 1284 391 1588 391 
Q 1994 391 2212 530 
Q 2431 669 2431 922 
Q 2431 1156 2273 1281 
Q 2116 1406 1581 1522 
L 1381 1569 
Q 847 1681 609 1914 
Q 372 2147 372 2553 
Q 372 3047 722 3315 
Q 1072 3584 1716 3584 
Q 2034 3584 2315 3537 
Q 2597 3491 2834 3397 
z
" transform="scale(0.015625)"/>
      <path id="DejaVuSans-69" d="M 603 3500 
L 1178 3500 
L 1178 0 
L 603 0 
L 603 3500 
z
M 603 4863 
L 1178 4863 
L 1178 4134 
L 603 4134 
L 603 4863 
z
" transform="scale(0.015625)"/>
      <path id="DejaVuSans-6d" d="M 3328 2828 
Q 3544 3216 3844 3400 
Q 4144 3584 4550 3584 
Q 5097 3584 5394 3201 
Q 5691 2819 5691 2113 
L 5691 0 
L 5113 0 
L 5113 2094 
Q 5113 2597 4934 2840 
Q 4756 3084 4391 3084 
Q 3944 3084 3684 2787 
Q 3425 2491 3425 1978 
L 3425 0 
L 2847 0 
L 2847 2094 
Q 2847 2600 2669 2842 
Q 2491 3084 2119 3084 
Q 1678 3084 1418 2786 
Q 1159 2488 1159 1978 
L 1159 0 
L 581 0 
L 581 3500 
L 1159 3500 
L 1159 2956 
Q 1356 3278 1631 3431 
Q 1906 3584 2284 3584 
Q 2666 3584 2933 3390 
Q 3200 3197 3328 2828 
z
" transform="scale(0.015625)"/>
      <path id="DejaVuSans-72" d="M 2631 2963 
Q 2534 3019 2420 3045 
Q 2306 3072 2169 3072 
Q 1681 3072 1420 2755 
Q 1159 2438 1159 1844 
L 1159 0 
L 581 0 
L 581 3500 
L 1159 3500 
L 1159 2956 
Q 1341 3275 1631 3429 
Q 1922 3584 2338 3584 
Q 2397 3584 2469 3576 
Q 2541 3569 2628 3553 
L 2631 2963 
z
" transform="scale(0.015625)"/>
      <path id="DejaVuSans-6b" d="M 581 4863 
L 1159 4863 
L 1159 1991 
L 2875 3500 
L 3609 3500 
L 1753 1863 
L 3688 0 
L 2938 0 
L 1159 1709 
L 1159 0 
L 581 0 
L 581 4863 
z
" transform="scale(0.015625)"/>
      <path id="DejaVuSans-63" d="M 3122 3366 
L 3122 2828 
Q 2878 2963 2633 3030 
Q 2388 3097 2138 3097 
Q 1578 3097 1268 2742 
Q 959 2388 959 1747 
Q 959 1106 1268 751 
Q 1578 397 2138 397 
Q 2388 397 2633 464 
Q 2878 531 3122 666 
L 3122 134 
Q 2881 22 2623 -34 
Q 2366 -91 2075 -91 
Q 1284 -91 818 406 
Q 353 903 353 1747 
Q 353 2603 823 3093 
Q 1294 3584 2113 3584 
Q 2378 3584 2631 3529 
Q 2884 3475 3122 3366 
z
" transform="scale(0.015625)"/>
     </defs>
     <use xlink:href="#DejaVuSans-7a"/>
     <use xlink:href="#DejaVuSans-68" x="52.490234"/>
     <use xlink:href="#DejaVuSans-61" x="115.869141"/>
     <use xlink:href="#DejaVuSans-6e" x="177.148438"/>
     <use xlink:href="#DejaVuSans-67" x="240.527344"/>
     <use xlink:href="#DejaVuSans-5f" x="304.003906"/>
     <use xlink:href="#DejaVuSans-65" x="354.003906"/>
     <use xlink:href="#DejaVuSans-78" x="413.777344"/>
     <use xlink:href="#DejaVuSans-74" x="472.957031"/>
     <use xlink:href="#DejaVuSans-65" x="512.166016"/>
     <use xlink:href="#DejaVuSans-6e" x="573.689453"/>
     <use xlink:href="#DejaVuSans-64" x="637.068359"/>
     <use xlink:href="#DejaVuSans-65" x="700.544922"/>
     <use xlink:href="#DejaVuSans-64" x="762.068359"/>
     <use xlink:href="#DejaVuSans-5f" x="825.544922"/>
     <use xlink:href="#DejaVuSans-73" x="875.544922"/>
     <use xlink:href="#DejaVuSans-69" x="927.644531"/>
     <use xlink:href="#DejaVuSans-6d" x="955.427734"/>
     <use xlink:href="#DejaVuSans-72" x="1052.839844"/>
     <use xlink:href="#DejaVuSans-61" x="1093.953125"/>
     <use xlink:href="#DejaVuSans-6e" x="1155.232422"/>
     <use xlink:href="#DejaVuSans-6b" x="1218.611328"/>
     <use xlink:href="#DejaVuSans-5f" x="1276.521484"/>
     <use xlink:href="#DejaVuSans-63" x="1326.521484"/>
     <use xlink:href="#DejaVuSans-63" x="1381.501953"/>
     <use xlink:href="#DejaVuSans-69" x="1436.482422"/>
    </g>
   </g>
   <g id="legend_1">
    <g id="patch_7">
     <path d="M 64.6 108.1845 
L 200.035938 108.1845 
Q 202.035938 108.1845 202.035938 106.1845 
L 202.035938 48.472 
Q 202.035938 46.472 200.035938 46.472 
L 64.6 46.472 
Q 62.6 46.472 62.6 48.472 
L 62.6 106.1845 
Q 62.6 108.1845 64.6 108.1845 
z
" style="fill: #ffffff; opacity: 0.8; stroke: #cccccc; stroke-linejoin: miter"/>
    </g>
    <g id="line2d_18">
     <path d="M 66.6 54.570438 
L 76.6 54.570438 
L 86.6 54.570438 
" style="fill: none; stroke: #1f77b4; stroke-opacity: 0.7; stroke-width: 0.5; stroke-linecap: square"/>
    </g>
    <g id="text_15">
     <!-- Positive predictions -->
     <g transform="translate(94.6 58.070438) scale(0.1 -0.1)">
      <defs>
       <path id="DejaVuSans-50" d="M 1259 4147 
L 1259 2394 
L 2053 2394 
Q 2494 2394 2734 2622 
Q 2975 2850 2975 3272 
Q 2975 3691 2734 3919 
Q 2494 4147 2053 4147 
L 1259 4147 
z
M 628 4666 
L 2053 4666 
Q 2838 4666 3239 4311 
Q 3641 3956 3641 3272 
Q 3641 2581 3239 2228 
Q 2838 1875 2053 1875 
L 1259 1875 
L 1259 0 
L 628 0 
L 628 4666 
z
" transform="scale(0.015625)"/>
       <path id="DejaVuSans-6f" d="M 1959 3097 
Q 1497 3097 1228 2736 
Q 959 2375 959 1747 
Q 959 1119 1226 758 
Q 1494 397 1959 397 
Q 2419 397 2687 759 
Q 2956 1122 2956 1747 
Q 2956 2369 2687 2733 
Q 2419 3097 1959 3097 
z
M 1959 3584 
Q 2709 3584 3137 3096 
Q 3566 2609 3566 1747 
Q 3566 888 3137 398 
Q 2709 -91 1959 -91 
Q 1206 -91 779 398 
Q 353 888 353 1747 
Q 353 2609 779 3096 
Q 1206 3584 1959 3584 
z
" transform="scale(0.015625)"/>
       <path id="DejaVuSans-76" d="M 191 3500 
L 800 3500 
L 1894 563 
L 2988 3500 
L 3597 3500 
L 2284 0 
L 1503 0 
L 191 3500 
z
" transform="scale(0.015625)"/>
       <path id="DejaVuSans-20" transform="scale(0.015625)"/>
       <path id="DejaVuSans-70" d="M 1159 525 
L 1159 -1331 
L 581 -1331 
L 581 3500 
L 1159 3500 
L 1159 2969 
Q 1341 3281 1617 3432 
Q 1894 3584 2278 3584 
Q 2916 3584 3314 3078 
Q 3713 2572 3713 1747 
Q 3713 922 3314 415 
Q 2916 -91 2278 -91 
Q 1894 -91 1617 61 
Q 1341 213 1159 525 
z
M 3116 1747 
Q 3116 2381 2855 2742 
Q 2594 3103 2138 3103 
Q 1681 3103 1420 2742 
Q 1159 2381 1159 1747 
Q 1159 1113 1420 752 
Q 1681 391 2138 391 
Q 2594 391 2855 752 
Q 3116 1113 3116 1747 
z
" transform="scale(0.015625)"/>
      </defs>
      <use xlink:href="#DejaVuSans-50"/>
      <use xlink:href="#DejaVuSans-6f" x="56.677734"/>
      <use xlink:href="#DejaVuSans-73" x="117.859375"/>
      <use xlink:href="#DejaVuSans-69" x="169.958984"/>
      <use xlink:href="#DejaVuSans-74" x="197.742188"/>
      <use xlink:href="#DejaVuSans-69" x="236.951172"/>
      <use xlink:href="#DejaVuSans-76" x="264.734375"/>
      <use xlink:href="#DejaVuSans-65" x="323.914062"/>
      <use xlink:href="#DejaVuSans-20" x="385.4375"/>
      <use xlink:href="#DejaVuSans-70" x="417.224609"/>
      <use xlink:href="#DejaVuSans-72" x="480.701172"/>
      <use xlink:href="#DejaVuSans-65" x="519.564453"/>
      <use xlink:href="#DejaVuSans-64" x="581.087891"/>
      <use xlink:href="#DejaVuSans-69" x="644.564453"/>
      <use xlink:href="#DejaVuSans-63" x="672.347656"/>
      <use xlink:href="#DejaVuSans-74" x="727.328125"/>
      <use xlink:href="#DejaVuSans-69" x="766.537109"/>
      <use xlink:href="#DejaVuSans-6f" x="794.320312"/>
      <use xlink:href="#DejaVuSans-6e" x="855.501953"/>
      <use xlink:href="#DejaVuSans-73" x="918.880859"/>
     </g>
    </g>
    <g id="line2d_19">
     <path d="M 66.6 69.248563 
L 76.6 69.248563 
L 86.6 69.248563 
" style="fill: none; stroke: #ff7f0e; stroke-opacity: 0.7; stroke-width: 0.5; stroke-linecap: square"/>
    </g>
    <g id="text_16">
     <!-- Negative predictions -->
     <g transform="translate(94.6 72.748563) scale(0.1 -0.1)">
      <defs>
       <path id="DejaVuSans-4e" d="M 628 4666 
L 1478 4666 
L 3547 763 
L 3547 4666 
L 4159 4666 
L 4159 0 
L 3309 0 
L 1241 3903 
L 1241 0 
L 628 0 
L 628 4666 
z
" transform="scale(0.015625)"/>
      </defs>
      <use xlink:href="#DejaVuSans-4e"/>
      <use xlink:href="#DejaVuSans-65" x="74.804688"/>
      <use xlink:href="#DejaVuSans-67" x="136.328125"/>
      <use xlink:href="#DejaVuSans-61" x="199.804688"/>
      <use xlink:href="#DejaVuSans-74" x="261.083984"/>
      <use xlink:href="#DejaVuSans-69" x="300.292969"/>
      <use xlink:href="#DejaVuSans-76" x="328.076172"/>
      <use xlink:href="#DejaVuSans-65" x="387.255859"/>
      <use xlink:href="#DejaVuSans-20" x="448.779297"/>
      <use xlink:href="#DejaVuSans-70" x="480.566406"/>
      <use xlink:href="#DejaVuSans-72" x="544.042969"/>
      <use xlink:href="#DejaVuSans-65" x="582.90625"/>
      <use xlink:href="#DejaVuSans-64" x="644.429688"/>
      <use xlink:href="#DejaVuSans-69" x="707.90625"/>
      <use xlink:href="#DejaVuSans-63" x="735.689453"/>
      <use xlink:href="#DejaVuSans-74" x="790.669922"/>
      <use xlink:href="#DejaVuSans-69" x="829.878906"/>
      <use xlink:href="#DejaVuSans-6f" x="857.662109"/>
      <use xlink:href="#DejaVuSans-6e" x="918.84375"/>
      <use xlink:href="#DejaVuSans-73" x="982.222656"/>
     </g>
    </g>
    <g id="line2d_20">
     <path d="M 66.6 83.926688 
L 76.6 83.926688 
L 86.6 83.926688 
" style="fill: none; stroke: #2ca02c; stroke-opacity: 0.7; stroke-width: 0.5; stroke-linecap: square"/>
    </g>
    <g id="text_17">
     <!-- Average predictions -->
     <g transform="translate(94.6 87.426688) scale(0.1 -0.1)">
      <defs>
       <path id="DejaVuSans-41" d="M 2188 4044 
L 1331 1722 
L 3047 1722 
L 2188 4044 
z
M 1831 4666 
L 2547 4666 
L 4325 0 
L 3669 0 
L 3244 1197 
L 1141 1197 
L 716 0 
L 50 0 
L 1831 4666 
z
" transform="scale(0.015625)"/>
      </defs>
      <use xlink:href="#DejaVuSans-41"/>
      <use xlink:href="#DejaVuSans-76" x="62.533203"/>
      <use xlink:href="#DejaVuSans-65" x="121.712891"/>
      <use xlink:href="#DejaVuSans-72" x="183.236328"/>
      <use xlink:href="#DejaVuSans-61" x="224.349609"/>
      <use xlink:href="#DejaVuSans-67" x="285.628906"/>
      <use xlink:href="#DejaVuSans-65" x="349.105469"/>
      <use xlink:href="#DejaVuSans-20" x="410.628906"/>
      <use xlink:href="#DejaVuSans-70" x="442.416016"/>
      <use xlink:href="#DejaVuSans-72" x="505.892578"/>
      <use xlink:href="#DejaVuSans-65" x="544.755859"/>
      <use xlink:href="#DejaVuSans-64" x="606.279297"/>
      <use xlink:href="#DejaVuSans-69" x="669.755859"/>
      <use xlink:href="#DejaVuSans-63" x="697.539062"/>
      <use xlink:href="#DejaVuSans-74" x="752.519531"/>
      <use xlink:href="#DejaVuSans-69" x="791.728516"/>
      <use xlink:href="#DejaVuSans-6f" x="819.511719"/>
      <use xlink:href="#DejaVuSans-6e" x="880.693359"/>
      <use xlink:href="#DejaVuSans-73" x="944.072266"/>
     </g>
    </g>
    <g id="line2d_21">
     <path d="M 66.6 98.604813 
L 76.6 98.604813 
L 86.6 98.604813 
" style="fill: none; stroke: #d62728; stroke-opacity: 0.7; stroke-width: 0.5; stroke-linecap: square"/>
    </g>
    <g id="text_18">
     <!-- Actual values -->
     <g transform="translate(94.6 102.104813) scale(0.1 -0.1)">
      <defs>
       <path id="DejaVuSans-75" d="M 544 1381 
L 544 3500 
L 1119 3500 
L 1119 1403 
Q 1119 906 1312 657 
Q 1506 409 1894 409 
Q 2359 409 2629 706 
Q 2900 1003 2900 1516 
L 2900 3500 
L 3475 3500 
L 3475 0 
L 2900 0 
L 2900 538 
Q 2691 219 2414 64 
Q 2138 -91 1772 -91 
Q 1169 -91 856 284 
Q 544 659 544 1381 
z
M 1991 3584 
L 1991 3584 
z
" transform="scale(0.015625)"/>
       <path id="DejaVuSans-6c" d="M 603 4863 
L 1178 4863 
L 1178 0 
L 603 0 
L 603 4863 
z
" transform="scale(0.015625)"/>
      </defs>
      <use xlink:href="#DejaVuSans-41"/>
      <use xlink:href="#DejaVuSans-63" x="66.658203"/>
      <use xlink:href="#DejaVuSans-74" x="121.638672"/>
      <use xlink:href="#DejaVuSans-75" x="160.847656"/>
      <use xlink:href="#DejaVuSans-61" x="224.226562"/>
      <use xlink:href="#DejaVuSans-6c" x="285.505859"/>
      <use xlink:href="#DejaVuSans-20" x="313.289062"/>
      <use xlink:href="#DejaVuSans-76" x="345.076172"/>
      <use xlink:href="#DejaVuSans-61" x="404.255859"/>
      <use xlink:href="#DejaVuSans-6c" x="465.535156"/>
      <use xlink:href="#DejaVuSans-75" x="493.318359"/>
      <use xlink:href="#DejaVuSans-65" x="556.697266"/>
      <use xlink:href="#DejaVuSans-73" x="618.220703"/>
     </g>
    </g>
   </g>
  </g>
 </g>
 <defs>
  <clipPath id="pa1857be544">
   <rect x="57.6" y="41.472" width="357.12" height="266.112"/>
  </clipPath>
 </defs>
</svg>
