<?xml version="1.0" encoding="utf-8" standalone="no"?>
<!DOCTYPE svg PUBLIC "-//W3C//DTD SVG 1.1//EN"
  "http://www.w3.org/Graphics/SVG/1.1/DTD/svg11.dtd">
<svg xmlns:xlink="http://www.w3.org/1999/xlink" width="460.8pt" height="345.6pt" viewBox="0 0 460.8 345.6" xmlns="http://www.w3.org/2000/svg" version="1.1">
 <metadata>
  <rdf:RDF xmlns:dc="http://purl.org/dc/elements/1.1/" xmlns:cc="http://creativecommons.org/ns#" xmlns:rdf="http://www.w3.org/1999/02/22-rdf-syntax-ns#">
   <cc:Work>
    <dc:type rdf:resource="http://purl.org/dc/dcmitype/StillImage"/>
    <dc:date>2024-07-09T08:34:09.148484</dc:date>
    <dc:format>image/svg+xml</dc:format>
    <dc:creator>
     <cc:Agent>
      <dc:title>Matplotlib v3.9.0, https://matplotlib.org/</dc:title>
     </cc:Agent>
    </dc:creator>
   </cc:Work>
  </rdf:RDF>
 </metadata>
 <defs>
  <style type="text/css">*{stroke-linejoin: round; stroke-linecap: butt}</style>
 </defs>
 <g id="figure_1">
  <g id="patch_1">
   <path d="M 0 345.6 
L 460.8 345.6 
L 460.8 0 
L 0 0 
z
" style="fill: #ffffff"/>
  </g>
  <g id="axes_1">
   <g id="patch_2">
    <path d="M 57.6 307.584 
L 414.72 307.584 
L 414.72 41.472 
L 57.6 41.472 
z
" style="fill: #ffffff"/>
   </g>
   <g id="matplotlib.axis_1">
    <g id="xtick_1">
     <g id="line2d_1">
      <defs>
       <path id="m814417e962" d="M 0 0 
L 0 3.5 
" style="stroke: #000000; stroke-width: 0.8"/>
      </defs>
      <g>
       <use xlink:href="#m814417e962" x="73.832727" y="307.584" style="stroke: #000000; stroke-width: 0.8"/>
      </g>
     </g>
     <g id="text_1">
      <!-- 0 -->
      <g transform="translate(70.651477 322.182437) scale(0.1 -0.1)">
       <defs>
        <path id="DejaVuSans-30" d="M 2034 4250 
Q 1547 4250 1301 3770 
Q 1056 3291 1056 2328 
Q 1056 1369 1301 889 
Q 1547 409 2034 409 
Q 2525 409 2770 889 
Q 3016 1369 3016 2328 
Q 3016 3291 2770 3770 
Q 2525 4250 2034 4250 
z
M 2034 4750 
Q 2819 4750 3233 4129 
Q 3647 3509 3647 2328 
Q 3647 1150 3233 529 
Q 2819 -91 2034 -91 
Q 1250 -91 836 529 
Q 422 1150 422 2328 
Q 422 3509 836 4129 
Q 1250 4750 2034 4750 
z
" transform="scale(0.015625)"/>
       </defs>
       <use xlink:href="#DejaVuSans-30"/>
      </g>
     </g>
    </g>
    <g id="xtick_2">
     <g id="line2d_2">
      <g>
       <use xlink:href="#m814417e962" x="149.333784" y="307.584" style="stroke: #000000; stroke-width: 0.8"/>
      </g>
     </g>
     <g id="text_2">
      <!-- 50 -->
      <g transform="translate(142.971284 322.182437) scale(0.1 -0.1)">
       <defs>
        <path id="DejaVuSans-35" d="M 691 4666 
L 3169 4666 
L 3169 4134 
L 1269 4134 
L 1269 2991 
Q 1406 3038 1543 3061 
Q 1681 3084 1819 3084 
Q 2600 3084 3056 2656 
Q 3513 2228 3513 1497 
Q 3513 744 3044 326 
Q 2575 -91 1722 -91 
Q 1428 -91 1123 -41 
Q 819 9 494 109 
L 494 744 
Q 775 591 1075 516 
Q 1375 441 1709 441 
Q 2250 441 2565 725 
Q 2881 1009 2881 1497 
Q 2881 1984 2565 2268 
Q 2250 2553 1709 2553 
Q 1456 2553 1204 2497 
Q 953 2441 691 2322 
L 691 4666 
z
" transform="scale(0.015625)"/>
       </defs>
       <use xlink:href="#DejaVuSans-35"/>
       <use xlink:href="#DejaVuSans-30" x="63.623047"/>
      </g>
     </g>
    </g>
    <g id="xtick_3">
     <g id="line2d_3">
      <g>
       <use xlink:href="#m814417e962" x="224.834841" y="307.584" style="stroke: #000000; stroke-width: 0.8"/>
      </g>
     </g>
     <g id="text_3">
      <!-- 100 -->
      <g transform="translate(215.291091 322.182437) scale(0.1 -0.1)">
       <defs>
        <path id="DejaVuSans-31" d="M 794 531 
L 1825 531 
L 1825 4091 
L 703 3866 
L 703 4441 
L 1819 4666 
L 2450 4666 
L 2450 531 
L 3481 531 
L 3481 0 
L 794 0 
L 794 531 
z
" transform="scale(0.015625)"/>
       </defs>
       <use xlink:href="#DejaVuSans-31"/>
       <use xlink:href="#DejaVuSans-30" x="63.623047"/>
       <use xlink:href="#DejaVuSans-30" x="127.246094"/>
      </g>
     </g>
    </g>
    <g id="xtick_4">
     <g id="line2d_4">
      <g>
       <use xlink:href="#m814417e962" x="300.335899" y="307.584" style="stroke: #000000; stroke-width: 0.8"/>
      </g>
     </g>
     <g id="text_4">
      <!-- 150 -->
      <g transform="translate(290.792149 322.182437) scale(0.1 -0.1)">
       <use xlink:href="#DejaVuSans-31"/>
       <use xlink:href="#DejaVuSans-35" x="63.623047"/>
       <use xlink:href="#DejaVuSans-30" x="127.246094"/>
      </g>
     </g>
    </g>
    <g id="xtick_5">
     <g id="line2d_5">
      <g>
       <use xlink:href="#m814417e962" x="375.836956" y="307.584" style="stroke: #000000; stroke-width: 0.8"/>
      </g>
     </g>
     <g id="text_5">
      <!-- 200 -->
      <g transform="translate(366.293206 322.182437) scale(0.1 -0.1)">
       <defs>
        <path id="DejaVuSans-32" d="M 1228 531 
L 3431 531 
L 3431 0 
L 469 0 
L 469 531 
Q 828 903 1448 1529 
Q 2069 2156 2228 2338 
Q 2531 2678 2651 2914 
Q 2772 3150 2772 3378 
Q 2772 3750 2511 3984 
Q 2250 4219 1831 4219 
Q 1534 4219 1204 4116 
Q 875 4013 500 3803 
L 500 4441 
Q 881 4594 1212 4672 
Q 1544 4750 1819 4750 
Q 2544 4750 2975 4387 
Q 3406 4025 3406 3419 
Q 3406 3131 3298 2873 
Q 3191 2616 2906 2266 
Q 2828 2175 2409 1742 
Q 1991 1309 1228 531 
z
" transform="scale(0.015625)"/>
       </defs>
       <use xlink:href="#DejaVuSans-32"/>
       <use xlink:href="#DejaVuSans-30" x="63.623047"/>
       <use xlink:href="#DejaVuSans-30" x="127.246094"/>
      </g>
     </g>
    </g>
   </g>
   <g id="matplotlib.axis_2">
    <g id="ytick_1">
     <g id="line2d_6">
      <defs>
       <path id="m941715baf1" d="M 0 0 
L -3.5 0 
" style="stroke: #000000; stroke-width: 0.8"/>
      </defs>
      <g>
       <use xlink:href="#m941715baf1" x="57.6" y="284.820033" style="stroke: #000000; stroke-width: 0.8"/>
      </g>
     </g>
     <g id="text_6">
      <!-- −800 -->
      <g transform="translate(23.132812 288.619251) scale(0.1 -0.1)">
       <defs>
        <path id="DejaVuSans-2212" d="M 678 2272 
L 4684 2272 
L 4684 1741 
L 678 1741 
L 678 2272 
z
" transform="scale(0.015625)"/>
        <path id="DejaVuSans-38" d="M 2034 2216 
Q 1584 2216 1326 1975 
Q 1069 1734 1069 1313 
Q 1069 891 1326 650 
Q 1584 409 2034 409 
Q 2484 409 2743 651 
Q 3003 894 3003 1313 
Q 3003 1734 2745 1975 
Q 2488 2216 2034 2216 
z
M 1403 2484 
Q 997 2584 770 2862 
Q 544 3141 544 3541 
Q 544 4100 942 4425 
Q 1341 4750 2034 4750 
Q 2731 4750 3128 4425 
Q 3525 4100 3525 3541 
Q 3525 3141 3298 2862 
Q 3072 2584 2669 2484 
Q 3125 2378 3379 2068 
Q 3634 1759 3634 1313 
Q 3634 634 3220 271 
Q 2806 -91 2034 -91 
Q 1263 -91 848 271 
Q 434 634 434 1313 
Q 434 1759 690 2068 
Q 947 2378 1403 2484 
z
M 1172 3481 
Q 1172 3119 1398 2916 
Q 1625 2713 2034 2713 
Q 2441 2713 2670 2916 
Q 2900 3119 2900 3481 
Q 2900 3844 2670 4047 
Q 2441 4250 2034 4250 
Q 1625 4250 1398 4047 
Q 1172 3844 1172 3481 
z
" transform="scale(0.015625)"/>
       </defs>
       <use xlink:href="#DejaVuSans-2212"/>
       <use xlink:href="#DejaVuSans-38" x="83.789062"/>
       <use xlink:href="#DejaVuSans-30" x="147.412109"/>
       <use xlink:href="#DejaVuSans-30" x="211.035156"/>
      </g>
     </g>
    </g>
    <g id="ytick_2">
     <g id="line2d_7">
      <g>
       <use xlink:href="#m941715baf1" x="57.6" y="236.806742" style="stroke: #000000; stroke-width: 0.8"/>
      </g>
     </g>
     <g id="text_7">
      <!-- −600 -->
      <g transform="translate(23.132812 240.605961) scale(0.1 -0.1)">
       <defs>
        <path id="DejaVuSans-36" d="M 2113 2584 
Q 1688 2584 1439 2293 
Q 1191 2003 1191 1497 
Q 1191 994 1439 701 
Q 1688 409 2113 409 
Q 2538 409 2786 701 
Q 3034 994 3034 1497 
Q 3034 2003 2786 2293 
Q 2538 2584 2113 2584 
z
M 3366 4563 
L 3366 3988 
Q 3128 4100 2886 4159 
Q 2644 4219 2406 4219 
Q 1781 4219 1451 3797 
Q 1122 3375 1075 2522 
Q 1259 2794 1537 2939 
Q 1816 3084 2150 3084 
Q 2853 3084 3261 2657 
Q 3669 2231 3669 1497 
Q 3669 778 3244 343 
Q 2819 -91 2113 -91 
Q 1303 -91 875 529 
Q 447 1150 447 2328 
Q 447 3434 972 4092 
Q 1497 4750 2381 4750 
Q 2619 4750 2861 4703 
Q 3103 4656 3366 4563 
z
" transform="scale(0.015625)"/>
       </defs>
       <use xlink:href="#DejaVuSans-2212"/>
       <use xlink:href="#DejaVuSans-36" x="83.789062"/>
       <use xlink:href="#DejaVuSans-30" x="147.412109"/>
       <use xlink:href="#DejaVuSans-30" x="211.035156"/>
      </g>
     </g>
    </g>
    <g id="ytick_3">
     <g id="line2d_8">
      <g>
       <use xlink:href="#m941715baf1" x="57.6" y="188.793452" style="stroke: #000000; stroke-width: 0.8"/>
      </g>
     </g>
     <g id="text_8">
      <!-- −400 -->
      <g transform="translate(23.132812 192.592671) scale(0.1 -0.1)">
       <defs>
        <path id="DejaVuSans-34" d="M 2419 4116 
L 825 1625 
L 2419 1625 
L 2419 4116 
z
M 2253 4666 
L 3047 4666 
L 3047 1625 
L 3713 1625 
L 3713 1100 
L 3047 1100 
L 3047 0 
L 2419 0 
L 2419 1100 
L 313 1100 
L 313 1709 
L 2253 4666 
z
" transform="scale(0.015625)"/>
       </defs>
       <use xlink:href="#DejaVuSans-2212"/>
       <use xlink:href="#DejaVuSans-34" x="83.789062"/>
       <use xlink:href="#DejaVuSans-30" x="147.412109"/>
       <use xlink:href="#DejaVuSans-30" x="211.035156"/>
      </g>
     </g>
    </g>
    <g id="ytick_4">
     <g id="line2d_9">
      <g>
       <use xlink:href="#m941715baf1" x="57.6" y="140.780161" style="stroke: #000000; stroke-width: 0.8"/>
      </g>
     </g>
     <g id="text_9">
      <!-- −200 -->
      <g transform="translate(23.132812 144.57938) scale(0.1 -0.1)">
       <use xlink:href="#DejaVuSans-2212"/>
       <use xlink:href="#DejaVuSans-32" x="83.789062"/>
       <use xlink:href="#DejaVuSans-30" x="147.412109"/>
       <use xlink:href="#DejaVuSans-30" x="211.035156"/>
      </g>
     </g>
    </g>
    <g id="ytick_5">
     <g id="line2d_10">
      <g>
       <use xlink:href="#m941715baf1" x="57.6" y="92.766871" style="stroke: #000000; stroke-width: 0.8"/>
      </g>
     </g>
     <g id="text_10">
      <!-- 0 -->
      <g transform="translate(44.2375 96.56609) scale(0.1 -0.1)">
       <use xlink:href="#DejaVuSans-30"/>
      </g>
     </g>
    </g>
    <g id="ytick_6">
     <g id="line2d_11">
      <g>
       <use xlink:href="#m941715baf1" x="57.6" y="44.753581" style="stroke: #000000; stroke-width: 0.8"/>
      </g>
     </g>
     <g id="text_11">
      <!-- 200 -->
      <g transform="translate(31.5125 48.552799) scale(0.1 -0.1)">
       <use xlink:href="#DejaVuSans-32"/>
       <use xlink:href="#DejaVuSans-30" x="63.623047"/>
       <use xlink:href="#DejaVuSans-30" x="127.246094"/>
      </g>
     </g>
    </g>
   </g>
   <g id="line2d_12">
    <path d="M 73.832727 93.77858 
L 75.342748 100.74974 
L 76.85277 100.380407 
L 78.362791 98.883522 
L 79.872812 95.582608 
L 81.382833 92.996086 
L 82.892854 93.186484 
L 84.402875 91.385985 
L 85.912896 96.307347 
L 87.422918 108.230648 
L 88.932939 127.736047 
L 90.44296 123.026172 
L 91.952981 117.437125 
L 93.463002 103.417244 
L 94.973023 106.200717 
L 96.483044 104.496245 
L 97.993066 107.617109 
L 99.503087 114.434997 
L 101.013108 118.676171 
L 102.523129 120.116569 
L 104.03315 114.114908 
L 105.543171 116.304782 
L 107.053192 111.596813 
L 108.563214 108.777427 
L 110.073235 108.297295 
L 111.583256 110.217826 
L 113.093277 111.418158 
L 114.603298 109.497627 
L 116.113319 106.142412 
L 117.62334 105.662279 
L 119.133362 102.893513 
L 120.643383 99.412549 
L 122.153404 93.718473 
L 123.663425 89.993156 
L 125.173446 90.953422 
L 126.683467 90.953422 
L 128.193488 100.452052 
L 129.70351 102.709698 
L 131.213531 96.080494 
L 132.723552 97.952199 
L 134.233573 95.071401 
L 135.743594 92.910803 
L 137.253615 90.030006 
L 138.763636 90.670183 
L 140.273658 89.709917 
L 141.783679 91.150316 
L 143.2937 93.550981 
L 144.803721 96.735391 
L 146.313742 98.618671 
L 147.823763 105.136031 
L 149.333784 109.537249 
L 150.843805 114.911044 
L 152.353827 116.3 
L 153.863848 113.883331 
L 155.373869 114.875606 
L 156.88389 112.481704 
L 158.393911 106.155247 
L 161.413953 118.907777 
L 162.923975 121.23324 
L 164.433996 118.386738 
L 165.944017 112.166834 
L 167.454038 108.283406 
L 168.964059 108.283406 
L 170.47408 106.602941 
L 171.984101 108.169691 
L 173.494123 103.80613 
L 175.004144 105.938063 
L 176.514165 103.310669 
L 178.024186 102.688679 
L 179.534207 99.633716 
L 181.044228 99.9245 
L 182.554249 103.730554 
L 184.064271 103.478484 
L 185.574292 108.395707 
L 187.084313 110.932167 
L 188.594334 110.019914 
L 190.104355 105.817432 
L 191.614376 104.781494 
L 193.124397 100.700364 
L 194.634419 96.185781 
L 196.14444 102.907641 
L 197.654461 99.767949 
L 199.164482 104.702327 
L 200.674503 111.060087 
L 202.184524 112.064001 
L 203.694545 117.852876 
L 205.204567 116.194235 
L 206.714588 111.36351 
L 208.224609 108.395416 
L 209.73463 109.115615 
L 211.244651 115.957509 
L 212.754672 124.479868 
L 214.264693 121.09013 
L 215.774715 125.673217 
L 217.284736 124.064771 
L 218.794757 117.797773 
L 220.304778 116.735479 
L 221.814799 112.65435 
L 223.32482 118.393081 
L 224.834841 117.237938 
L 226.344863 118.243734 
L 227.854884 114.700858 
L 229.364905 109.593103 
L 230.874926 108.349986 
L 232.384947 110.270518 
L 233.894968 107.831133 
L 235.404989 112.182338 
L 236.915011 131.051561 
L 238.425032 124.400308 
L 239.935053 121.844107 
L 241.445074 122.804373 
L 242.955095 124.964971 
L 244.465116 118.483177 
L 245.975137 132.983191 
L 247.485159 126.741463 
L 248.99518 133.359177 
L 250.505201 124.646177 
L 252.015222 129.322915 
L 253.525243 126.442117 
L 255.035264 137.72524 
L 256.545285 130.583263 
L 258.055307 126.678568 
L 259.565328 124.998103 
L 261.075349 121.637173 
L 262.58537 114.915312 
L 264.095391 116.219673 
L 265.605412 127.449448 
L 267.115433 110.164664 
L 268.625455 109.084365 
L 270.135476 108.844298 
L 271.645497 119.527255 
L 273.155518 117.054776 
L 274.665539 122.916791 
L 276.17556 121.685391 
L 277.685581 125.748869 
L 279.195603 127.878347 
L 280.705624 121.868464 
L 282.215645 129.060758 
L 283.725666 133.847966 
L 285.235687 153.777873 
L 286.745708 165.051763 
L 288.255729 173.118729 
L 289.765751 172.638596 
L 291.275772 165.916735 
L 292.785793 177.076035 
L 294.295814 194.000719 
L 295.805835 194.247847 
L 297.315856 190.195199 
L 298.825877 185.022339 
L 300.335899 178.809752 
L 301.84592 174.519532 
L 303.355941 176.920197 
L 304.865962 182.612299 
L 306.375983 181.892099 
L 307.886004 175.290272 
L 309.396025 173.166982 
L 312.416068 193.848927 
L 313.926089 192.870195 
L 315.43611 201.297791 
L 316.946131 194.57593 
L 318.456152 193.838008 
L 319.966173 196.336659 
L 321.476195 193.197859 
L 322.986216 189.467226 
L 324.496237 182.781986 
L 326.006258 179.413184 
L 327.516279 182.293982 
L 329.0263 178.929934 
L 330.536321 184.696145 
L 332.046342 209.276608 
L 333.556364 212.090306 
L 335.066385 200.539416 
L 336.576406 193.642962 
L 338.086427 195.563494 
L 339.596448 190.762164 
L 341.106469 188.19805 
L 342.61649 202.885752 
L 344.126512 197.20418 
L 345.636533 198.202856 
L 348.656575 208.785786 
L 350.166596 203.656766 
L 351.676617 209.400578 
L 353.186638 203.239873 
L 354.69666 198.850086 
L 356.206681 199.570286 
L 357.716702 202.571116 
L 359.226723 201.690873 
L 360.736744 204.852859 
L 362.246765 211.57472 
L 363.756786 231.420213 
L 365.266808 242.356573 
L 366.776829 283.94263 
L 368.28685 295.488 
L 369.796871 274.602219 
L 371.306892 257.280501 
L 372.816913 252.071216 
L 374.326934 248.710285 
L 375.836956 251.11095 
L 377.346977 243.086434 
L 378.856998 249.929482 
L 380.367019 252.010058 
L 381.87704 244.261146 
L 383.387061 239.32913 
L 384.897082 245.090724 
L 386.407104 241.397647 
L 387.917125 234.966393 
L 389.427146 240.727988 
L 390.937167 241.063026 
L 392.447188 238.447302 
L 393.957209 232.330826 
L 395.46723 229.175899 
L 396.977252 247.901082 
L 398.487273 254.049225 
L 398.487273 254.049225 
" clip-path="url(#p16301b8cb9)" style="fill: none; stroke: #1f77b4; stroke-opacity: 0.7; stroke-width: 1.5; stroke-linecap: square"/>
   </g>
   <g id="line2d_13">
    <path d="M 73.832727 94.087237 
L 75.342748 101.507472 
L 76.85277 101.107362 
L 78.362791 101.107362 
L 79.872812 99.00325 
L 81.382833 95.28222 
L 82.892854 95.342236 
L 84.402875 93.581749 
L 85.912896 99.549115 
L 87.422918 111.472416 
L 88.932939 131.280976 
L 90.44296 127.307876 
L 91.952981 114.224254 
L 93.463002 102.140909 
L 94.973023 104.338441 
L 96.483044 103.291484 
L 97.993066 102.81963 
L 99.503087 106.328293 
L 101.013108 109.266249 
L 102.523129 111.426847 
L 104.03315 109.994451 
L 105.543171 110.35455 
L 107.053192 106.941841 
L 108.563214 103.152966 
L 110.073235 99.041828 
L 111.583256 102.402759 
L 113.093277 102.276178 
L 114.603298 98.538 
L 116.113319 95.395312 
L 117.62334 91.428997 
L 119.133362 89.195926 
L 120.643383 85.826994 
L 122.153404 80.132917 
L 123.663425 76.822527 
L 125.173446 74.122833 
L 126.683467 71.014604 
L 128.193488 80.586142 
L 129.70351 84.603254 
L 131.213531 75.720796 
L 132.723552 79.681892 
L 134.233573 78.630401 
L 135.743594 76.714871 
L 137.253615 75.274472 
L 138.763636 76.058689 
L 140.273658 75.612851 
L 141.783679 75.812152 
L 143.2937 79.643212 
L 144.803721 82.780923 
L 146.313742 84.63361 
L 147.823763 88.234606 
L 149.333784 92.722937 
L 152.353827 95.203624 
L 153.863848 89.321996 
L 155.373869 89.48204 
L 156.88389 87.67767 
L 158.393911 81.351213 
L 161.413953 94.495626 
L 162.923975 90.89463 
L 164.433996 84.292802 
L 165.944017 77.010787 
L 168.964059 68.993631 
L 170.47408 63.367073 
L 171.984101 64.852484 
L 173.494123 60.940492 
L 175.004144 63.093816 
L 176.514165 60.886248 
L 178.024186 59.654479 
L 179.534207 57.219519 
L 181.044228 57.505863 
L 182.554249 62.267181 
L 184.064271 62.107137 
L 185.574292 68.348865 
L 187.084313 70.908804 
L 188.594334 67.547874 
L 190.104355 62.746545 
L 191.614376 61.796494 
L 193.124397 58.755653 
L 194.634419 54.794556 
L 196.14444 57.18809 
L 197.654461 54.457334 
L 199.164482 59.492061 
L 200.674503 65.960518 
L 202.184524 66.621754 
L 203.694545 69.262485 
L 205.204567 67.530187 
L 206.714588 60.148144 
L 208.224609 57.267346 
L 209.73463 54.856574 
L 211.244651 59.499035 
L 212.754672 66.721034 
L 214.264693 63.198427 
L 215.774715 65.959191 
L 217.284736 63.988645 
L 218.794757 56.186486 
L 220.304778 61.227881 
L 221.814799 56.390867 
L 223.32482 61.998389 
L 224.834841 60.331261 
L 226.344863 62.731925 
L 227.854884 59.370995 
L 229.364905 57.69053 
L 230.874926 56.540916 
L 232.384947 55.848631 
L 233.894968 53.568 
L 235.404989 57.954968 
L 236.915011 75.738352 
L 238.425032 68.916771 
L 239.935053 72.997901 
L 241.445074 71.39678 
L 242.955095 71.485947 
L 244.465116 66.324519 
L 245.975137 81.279246 
L 247.485159 78.550749 
L 248.99518 88.153407 
L 250.505201 79.879117 
L 252.015222 83.849447 
L 253.525243 85.749203 
L 255.035264 98.472725 
L 256.545285 89.630278 
L 258.055307 92.030942 
L 259.565328 86.609264 
L 261.075349 88.769863 
L 262.58537 82.528135 
L 264.095391 84.032551 
L 265.605412 95.139626 
L 267.115433 88.852171 
L 268.625455 93.893566 
L 270.135476 96.174198 
L 271.645497 105.746848 
L 273.155518 103.081703 
L 274.665539 111.484029 
L 276.17556 110.435934 
L 277.685581 114.712258 
L 279.195603 117.577051 
L 280.705624 109.174725 
L 282.215645 116.016619 
L 283.725666 121.562458 
L 285.235687 135.966445 
L 286.745708 146.684967 
L 288.255729 143.564104 
L 289.765751 141.523539 
L 291.275772 133.441301 
L 292.785793 138.182614 
L 294.295814 161.121669 
L 295.805835 161.338618 
L 297.315856 157.017422 
L 298.825877 151.207814 
L 300.335899 143.815423 
L 301.84592 135.71318 
L 303.355941 134.527211 
L 304.865962 141.743326 
L 306.375983 147.57494 
L 307.886004 141.333213 
L 309.396025 135.811684 
L 312.416068 156.166123 
L 313.926089 153.105275 
L 315.43611 159.106937 
L 316.946131 157.036364 
L 318.456152 150.074437 
L 319.966173 153.161958 
L 321.476195 149.614309 
L 322.986216 149.614309 
L 324.496237 144.76086 
L 326.006258 140.371074 
L 327.516279 140.547965 
L 329.0263 134.791826 
L 330.536321 138.424136 
L 332.046342 162.498216 
L 333.556364 162.438199 
L 335.066385 150.19481 
L 336.576406 147.674112 
L 338.086427 142.088816 
L 339.596448 132.567357 
L 341.106469 128.272114 
L 342.61649 141.381197 
L 344.126512 135.874518 
L 345.636533 141.396047 
L 347.146554 150.878672 
L 348.656575 156.000089 
L 350.166596 144.476899 
L 351.676617 150.556229 
L 354.69666 139.197732 
L 356.206681 134.433747 
L 357.716702 133.840831 
L 359.226723 128.50364 
L 360.736744 130.02406 
L 362.246765 135.88917 
L 363.756786 156.020993 
L 365.266808 168.455278 
L 366.776829 198.703651 
L 368.28685 207.76616 
L 369.796871 186.880378 
L 371.306892 169.837304 
L 372.816913 158.014032 
L 374.326934 143.930133 
L 375.836956 133.727309 
L 377.346977 128.091716 
L 378.856998 140.575171 
L 380.367019 136.776164 
L 381.87704 128.081074 
L 383.387061 123.268643 
L 384.897082 124.032188 
L 386.407104 120.873981 
L 387.917125 115.729699 
L 389.427146 121.994659 
L 390.937167 121.61768 
L 392.447188 119.937215 
L 393.957209 115.976118 
L 395.46723 112.433625 
L 396.977252 126.809369 
L 398.487273 132.403098 
L 398.487273 132.403098 
" clip-path="url(#p16301b8cb9)" style="fill: none; stroke: #ff7f0e; stroke-opacity: 0.7; stroke-width: 1.5; stroke-linecap: square"/>
   </g>
   <g id="line2d_14">
    <path d="M 73.832727 93.932908 
L 75.342748 101.128606 
L 76.85277 100.743884 
L 78.362791 99.995442 
L 79.872812 97.292929 
L 81.382833 94.139153 
L 82.892854 94.26436 
L 84.402875 92.483867 
L 85.912896 97.928231 
L 87.422918 109.851532 
L 88.932939 129.508511 
L 90.44296 125.167024 
L 91.952981 115.83069 
L 93.463002 102.779077 
L 94.973023 105.269579 
L 96.483044 103.893865 
L 97.993066 105.218369 
L 99.503087 110.381645 
L 101.013108 113.97121 
L 102.523129 115.771708 
L 104.03315 112.054679 
L 105.543171 113.329666 
L 107.053192 109.269327 
L 108.563214 105.965197 
L 110.073235 103.669561 
L 111.583256 106.310292 
L 113.093277 106.847168 
L 114.603298 104.017814 
L 116.113319 100.768862 
L 117.62334 98.545638 
L 119.133362 96.04472 
L 120.643383 92.619772 
L 122.153404 86.925695 
L 123.663425 83.407842 
L 125.173446 82.538127 
L 126.683467 80.984013 
L 128.193488 90.519097 
L 129.70351 93.656476 
L 131.213531 85.900645 
L 132.723552 88.817045 
L 135.743594 84.812837 
L 137.253615 82.652239 
L 138.763636 83.364436 
L 140.273658 82.661384 
L 141.783679 83.481234 
L 144.803721 89.758157 
L 146.313742 91.626141 
L 147.823763 96.685319 
L 149.333784 101.130093 
L 150.843805 104.417157 
L 152.353827 105.751812 
L 153.863848 101.602664 
L 155.373869 102.178823 
L 156.88389 100.079687 
L 158.393911 93.75323 
L 161.413953 106.701702 
L 162.923975 106.063935 
L 164.433996 101.33977 
L 165.944017 94.58881 
L 167.454038 90.63654 
L 168.964059 88.638518 
L 170.47408 84.985007 
L 171.984101 86.511087 
L 173.494123 82.373311 
L 175.004144 84.515939 
L 176.514165 82.098459 
L 178.024186 81.171579 
L 179.534207 78.426617 
L 181.044228 78.715182 
L 182.554249 82.998867 
L 184.064271 82.79281 
L 185.574292 88.372286 
L 187.084313 90.920485 
L 188.594334 88.783894 
L 190.104355 84.281989 
L 191.614376 83.288994 
L 193.124397 79.728008 
L 194.634419 75.490169 
L 196.14444 80.047866 
L 197.654461 77.112642 
L 199.164482 82.097194 
L 200.674503 88.510302 
L 202.184524 89.342877 
L 203.694545 93.55768 
L 205.204567 91.862211 
L 206.714588 85.755827 
L 208.224609 82.831381 
L 209.73463 81.986095 
L 211.244651 87.728272 
L 212.754672 95.600451 
L 214.264693 92.144278 
L 215.774715 95.816204 
L 217.284736 94.026708 
L 218.794757 86.99213 
L 220.304778 88.98168 
L 221.814799 84.522608 
L 223.32482 90.195735 
L 224.834841 88.784599 
L 226.344863 90.487829 
L 229.364905 83.641816 
L 230.874926 82.445451 
L 232.384947 83.059575 
L 233.894968 80.699567 
L 235.404989 85.068653 
L 236.915011 103.394956 
L 238.425032 96.65854 
L 239.935053 97.421004 
L 241.445074 97.100576 
L 242.955095 98.225459 
L 244.465116 92.403848 
L 245.975137 107.131219 
L 247.485159 102.646106 
L 248.99518 110.756292 
L 250.505201 102.262647 
L 252.015222 106.586181 
L 253.525243 106.09566 
L 255.035264 118.098983 
L 256.545285 110.106771 
L 258.055307 109.354755 
L 259.565328 105.803684 
L 261.075349 105.203518 
L 262.58537 98.721723 
L 264.095391 100.126112 
L 265.605412 111.294537 
L 267.115433 99.508417 
L 268.625455 101.488966 
L 270.135476 102.509248 
L 271.645497 112.637051 
L 273.155518 110.06824 
L 274.665539 117.20041 
L 276.17556 116.060663 
L 277.685581 120.230563 
L 279.195603 122.727699 
L 280.705624 115.521595 
L 282.215645 122.538689 
L 283.725666 127.705212 
L 285.235687 144.872159 
L 286.745708 155.868365 
L 288.255729 158.341416 
L 289.765751 157.081067 
L 291.275772 149.679018 
L 292.785793 157.629324 
L 294.295814 177.561194 
L 295.805835 177.793232 
L 297.315856 173.606311 
L 298.825877 168.115077 
L 300.335899 161.312588 
L 301.84592 155.116356 
L 303.355941 155.723704 
L 304.865962 162.177812 
L 306.375983 164.73352 
L 307.886004 158.311742 
L 309.396025 154.489333 
L 312.416068 175.007525 
L 313.926089 172.987735 
L 315.43611 180.202364 
L 316.946131 175.806147 
L 318.456152 171.956222 
L 319.966173 174.749308 
L 321.476195 171.406084 
L 322.986216 169.540768 
L 324.496237 163.771423 
L 326.006258 159.892129 
L 327.516279 161.420973 
L 329.0263 156.86088 
L 330.536321 161.560141 
L 332.046342 185.887412 
L 333.556364 187.264252 
L 335.066385 175.367113 
L 336.576406 170.658537 
L 338.086427 168.826155 
L 339.596448 161.664761 
L 341.106469 158.235082 
L 342.61649 172.133475 
L 344.126512 166.539349 
L 345.636533 169.799451 
L 347.146554 177.211503 
L 348.656575 182.392937 
L 350.166596 174.066833 
L 351.676617 179.978404 
L 353.186638 174.072051 
L 354.69666 169.023909 
L 356.206681 167.002016 
L 357.716702 168.205974 
L 359.226723 165.097256 
L 360.736744 167.43846 
L 362.246765 173.731945 
L 363.756786 193.720603 
L 365.266808 205.405926 
L 366.776829 241.323141 
L 368.28685 251.62708 
L 369.796871 230.741298 
L 371.306892 213.558903 
L 374.326934 196.320209 
L 375.836956 192.419129 
L 377.346977 185.589075 
L 378.856998 195.252326 
L 380.367019 194.393111 
L 381.87704 186.17111 
L 383.387061 181.298886 
L 384.897082 184.561456 
L 386.407104 181.135814 
L 387.917125 175.348046 
L 389.427146 181.361324 
L 390.937167 181.340353 
L 392.447188 179.192258 
L 393.957209 174.153472 
L 395.46723 170.804762 
L 396.977252 187.355226 
L 398.487273 193.226161 
L 398.487273 193.226161 
" clip-path="url(#p16301b8cb9)" style="fill: none; stroke: #2ca02c; stroke-opacity: 0.7; stroke-width: 1.5; stroke-linecap: square"/>
   </g>
   <g id="patch_3">
    <path d="M 57.6 307.584 
L 57.6 41.472 
" style="fill: none; stroke: #000000; stroke-width: 0.8; stroke-linejoin: miter; stroke-linecap: square"/>
   </g>
   <g id="patch_4">
    <path d="M 414.72 307.584 
L 414.72 41.472 
" style="fill: none; stroke: #000000; stroke-width: 0.8; stroke-linejoin: miter; stroke-linecap: square"/>
   </g>
   <g id="patch_5">
    <path d="M 57.6 307.584 
L 414.72 307.584 
" style="fill: none; stroke: #000000; stroke-width: 0.8; stroke-linejoin: miter; stroke-linecap: square"/>
   </g>
   <g id="patch_6">
    <path d="M 57.6 41.472 
L 414.72 41.472 
" style="fill: none; stroke: #000000; stroke-width: 0.8; stroke-linejoin: miter; stroke-linecap: square"/>
   </g>
   <g id="text_12">
    <!-- zhang_pagerank_cci -->
    <g transform="translate(175.247813 35.472) scale(0.12 -0.12)">
     <defs>
      <path id="DejaVuSans-7a" d="M 353 3500 
L 3084 3500 
L 3084 2975 
L 922 459 
L 3084 459 
L 3084 0 
L 275 0 
L 275 525 
L 2438 3041 
L 353 3041 
L 353 3500 
z
" transform="scale(0.015625)"/>
      <path id="DejaVuSans-68" d="M 3513 2113 
L 3513 0 
L 2938 0 
L 2938 2094 
Q 2938 2591 2744 2837 
Q 2550 3084 2163 3084 
Q 1697 3084 1428 2787 
Q 1159 2491 1159 1978 
L 1159 0 
L 581 0 
L 581 4863 
L 1159 4863 
L 1159 2956 
Q 1366 3272 1645 3428 
Q 1925 3584 2291 3584 
Q 2894 3584 3203 3211 
Q 3513 2838 3513 2113 
z
" transform="scale(0.015625)"/>
      <path id="DejaVuSans-61" d="M 2194 1759 
Q 1497 1759 1228 1600 
Q 959 1441 959 1056 
Q 959 750 1161 570 
Q 1363 391 1709 391 
Q 2188 391 2477 730 
Q 2766 1069 2766 1631 
L 2766 1759 
L 2194 1759 
z
M 3341 1997 
L 3341 0 
L 2766 0 
L 2766 531 
Q 2569 213 2275 61 
Q 1981 -91 1556 -91 
Q 1019 -91 701 211 
Q 384 513 384 1019 
Q 384 1609 779 1909 
Q 1175 2209 1959 2209 
L 2766 2209 
L 2766 2266 
Q 2766 2663 2505 2880 
Q 2244 3097 1772 3097 
Q 1472 3097 1187 3025 
Q 903 2953 641 2809 
L 641 3341 
Q 956 3463 1253 3523 
Q 1550 3584 1831 3584 
Q 2591 3584 2966 3190 
Q 3341 2797 3341 1997 
z
" transform="scale(0.015625)"/>
      <path id="DejaVuSans-6e" d="M 3513 2113 
L 3513 0 
L 2938 0 
L 2938 2094 
Q 2938 2591 2744 2837 
Q 2550 3084 2163 3084 
Q 1697 3084 1428 2787 
Q 1159 2491 1159 1978 
L 1159 0 
L 581 0 
L 581 3500 
L 1159 3500 
L 1159 2956 
Q 1366 3272 1645 3428 
Q 1925 3584 2291 3584 
Q 2894 3584 3203 3211 
Q 3513 2838 3513 2113 
z
" transform="scale(0.015625)"/>
      <path id="DejaVuSans-67" d="M 2906 1791 
Q 2906 2416 2648 2759 
Q 2391 3103 1925 3103 
Q 1463 3103 1205 2759 
Q 947 2416 947 1791 
Q 947 1169 1205 825 
Q 1463 481 1925 481 
Q 2391 481 2648 825 
Q 2906 1169 2906 1791 
z
M 3481 434 
Q 3481 -459 3084 -895 
Q 2688 -1331 1869 -1331 
Q 1566 -1331 1297 -1286 
Q 1028 -1241 775 -1147 
L 775 -588 
Q 1028 -725 1275 -790 
Q 1522 -856 1778 -856 
Q 2344 -856 2625 -561 
Q 2906 -266 2906 331 
L 2906 616 
Q 2728 306 2450 153 
Q 2172 0 1784 0 
Q 1141 0 747 490 
Q 353 981 353 1791 
Q 353 2603 747 3093 
Q 1141 3584 1784 3584 
Q 2172 3584 2450 3431 
Q 2728 3278 2906 2969 
L 2906 3500 
L 3481 3500 
L 3481 434 
z
" transform="scale(0.015625)"/>
      <path id="DejaVuSans-5f" d="M 3263 -1063 
L 3263 -1509 
L -63 -1509 
L -63 -1063 
L 3263 -1063 
z
" transform="scale(0.015625)"/>
      <path id="DejaVuSans-70" d="M 1159 525 
L 1159 -1331 
L 581 -1331 
L 581 3500 
L 1159 3500 
L 1159 2969 
Q 1341 3281 1617 3432 
Q 1894 3584 2278 3584 
Q 2916 3584 3314 3078 
Q 3713 2572 3713 1747 
Q 3713 922 3314 415 
Q 2916 -91 2278 -91 
Q 1894 -91 1617 61 
Q 1341 213 1159 525 
z
M 3116 1747 
Q 3116 2381 2855 2742 
Q 2594 3103 2138 3103 
Q 1681 3103 1420 2742 
Q 1159 2381 1159 1747 
Q 1159 1113 1420 752 
Q 1681 391 2138 391 
Q 2594 391 2855 752 
Q 3116 1113 3116 1747 
z
" transform="scale(0.015625)"/>
      <path id="DejaVuSans-65" d="M 3597 1894 
L 3597 1613 
L 953 1613 
Q 991 1019 1311 708 
Q 1631 397 2203 397 
Q 2534 397 2845 478 
Q 3156 559 3463 722 
L 3463 178 
Q 3153 47 2828 -22 
Q 2503 -91 2169 -91 
Q 1331 -91 842 396 
Q 353 884 353 1716 
Q 353 2575 817 3079 
Q 1281 3584 2069 3584 
Q 2775 3584 3186 3129 
Q 3597 2675 3597 1894 
z
M 3022 2063 
Q 3016 2534 2758 2815 
Q 2500 3097 2075 3097 
Q 1594 3097 1305 2825 
Q 1016 2553 972 2059 
L 3022 2063 
z
" transform="scale(0.015625)"/>
      <path id="DejaVuSans-72" d="M 2631 2963 
Q 2534 3019 2420 3045 
Q 2306 3072 2169 3072 
Q 1681 3072 1420 2755 
Q 1159 2438 1159 1844 
L 1159 0 
L 581 0 
L 581 3500 
L 1159 3500 
L 1159 2956 
Q 1341 3275 1631 3429 
Q 1922 3584 2338 3584 
Q 2397 3584 2469 3576 
Q 2541 3569 2628 3553 
L 2631 2963 
z
" transform="scale(0.015625)"/>
      <path id="DejaVuSans-6b" d="M 581 4863 
L 1159 4863 
L 1159 1991 
L 2875 3500 
L 3609 3500 
L 1753 1863 
L 3688 0 
L 2938 0 
L 1159 1709 
L 1159 0 
L 581 0 
L 581 4863 
z
" transform="scale(0.015625)"/>
      <path id="DejaVuSans-63" d="M 3122 3366 
L 3122 2828 
Q 2878 2963 2633 3030 
Q 2388 3097 2138 3097 
Q 1578 3097 1268 2742 
Q 959 2388 959 1747 
Q 959 1106 1268 751 
Q 1578 397 2138 397 
Q 2388 397 2633 464 
Q 2878 531 3122 666 
L 3122 134 
Q 2881 22 2623 -34 
Q 2366 -91 2075 -91 
Q 1284 -91 818 406 
Q 353 903 353 1747 
Q 353 2603 823 3093 
Q 1294 3584 2113 3584 
Q 2378 3584 2631 3529 
Q 2884 3475 3122 3366 
z
" transform="scale(0.015625)"/>
      <path id="DejaVuSans-69" d="M 603 3500 
L 1178 3500 
L 1178 0 
L 603 0 
L 603 3500 
z
M 603 4863 
L 1178 4863 
L 1178 4134 
L 603 4134 
L 603 4863 
z
" transform="scale(0.015625)"/>
     </defs>
     <use xlink:href="#DejaVuSans-7a"/>
     <use xlink:href="#DejaVuSans-68" x="52.490234"/>
     <use xlink:href="#DejaVuSans-61" x="115.869141"/>
     <use xlink:href="#DejaVuSans-6e" x="177.148438"/>
     <use xlink:href="#DejaVuSans-67" x="240.527344"/>
     <use xlink:href="#DejaVuSans-5f" x="304.003906"/>
     <use xlink:href="#DejaVuSans-70" x="354.003906"/>
     <use xlink:href="#DejaVuSans-61" x="417.480469"/>
     <use xlink:href="#DejaVuSans-67" x="478.759766"/>
     <use xlink:href="#DejaVuSans-65" x="542.236328"/>
     <use xlink:href="#DejaVuSans-72" x="603.759766"/>
     <use xlink:href="#DejaVuSans-61" x="644.873047"/>
     <use xlink:href="#DejaVuSans-6e" x="706.152344"/>
     <use xlink:href="#DejaVuSans-6b" x="769.53125"/>
     <use xlink:href="#DejaVuSans-5f" x="827.441406"/>
     <use xlink:href="#DejaVuSans-63" x="877.441406"/>
     <use xlink:href="#DejaVuSans-63" x="932.421875"/>
     <use xlink:href="#DejaVuSans-69" x="987.402344"/>
    </g>
   </g>
   <g id="legend_1">
    <g id="patch_7">
     <path d="M 64.6 302.584 
L 258.804688 302.584 
Q 260.804688 302.584 260.804688 300.584 
L 260.804688 257.549625 
Q 260.804688 255.549625 258.804688 255.549625 
L 64.6 255.549625 
Q 62.6 255.549625 62.6 257.549625 
L 62.6 300.584 
Q 62.6 302.584 64.6 302.584 
z
" style="fill: #ffffff; opacity: 0.8; stroke: #cccccc; stroke-linejoin: miter"/>
    </g>
    <g id="line2d_15">
     <path d="M 66.6 263.648062 
L 76.6 263.648062 
L 86.6 263.648062 
" style="fill: none; stroke: #1f77b4; stroke-opacity: 0.7; stroke-width: 1.5; stroke-linecap: square"/>
    </g>
    <g id="text_13">
     <!-- Positive cumulative predictions -->
     <g transform="translate(94.6 267.148062) scale(0.1 -0.1)">
      <defs>
       <path id="DejaVuSans-50" d="M 1259 4147 
L 1259 2394 
L 2053 2394 
Q 2494 2394 2734 2622 
Q 2975 2850 2975 3272 
Q 2975 3691 2734 3919 
Q 2494 4147 2053 4147 
L 1259 4147 
z
M 628 4666 
L 2053 4666 
Q 2838 4666 3239 4311 
Q 3641 3956 3641 3272 
Q 3641 2581 3239 2228 
Q 2838 1875 2053 1875 
L 1259 1875 
L 1259 0 
L 628 0 
L 628 4666 
z
" transform="scale(0.015625)"/>
       <path id="DejaVuSans-6f" d="M 1959 3097 
Q 1497 3097 1228 2736 
Q 959 2375 959 1747 
Q 959 1119 1226 758 
Q 1494 397 1959 397 
Q 2419 397 2687 759 
Q 2956 1122 2956 1747 
Q 2956 2369 2687 2733 
Q 2419 3097 1959 3097 
z
M 1959 3584 
Q 2709 3584 3137 3096 
Q 3566 2609 3566 1747 
Q 3566 888 3137 398 
Q 2709 -91 1959 -91 
Q 1206 -91 779 398 
Q 353 888 353 1747 
Q 353 2609 779 3096 
Q 1206 3584 1959 3584 
z
" transform="scale(0.015625)"/>
       <path id="DejaVuSans-73" d="M 2834 3397 
L 2834 2853 
Q 2591 2978 2328 3040 
Q 2066 3103 1784 3103 
Q 1356 3103 1142 2972 
Q 928 2841 928 2578 
Q 928 2378 1081 2264 
Q 1234 2150 1697 2047 
L 1894 2003 
Q 2506 1872 2764 1633 
Q 3022 1394 3022 966 
Q 3022 478 2636 193 
Q 2250 -91 1575 -91 
Q 1294 -91 989 -36 
Q 684 19 347 128 
L 347 722 
Q 666 556 975 473 
Q 1284 391 1588 391 
Q 1994 391 2212 530 
Q 2431 669 2431 922 
Q 2431 1156 2273 1281 
Q 2116 1406 1581 1522 
L 1381 1569 
Q 847 1681 609 1914 
Q 372 2147 372 2553 
Q 372 3047 722 3315 
Q 1072 3584 1716 3584 
Q 2034 3584 2315 3537 
Q 2597 3491 2834 3397 
z
" transform="scale(0.015625)"/>
       <path id="DejaVuSans-74" d="M 1172 4494 
L 1172 3500 
L 2356 3500 
L 2356 3053 
L 1172 3053 
L 1172 1153 
Q 1172 725 1289 603 
Q 1406 481 1766 481 
L 2356 481 
L 2356 0 
L 1766 0 
Q 1100 0 847 248 
Q 594 497 594 1153 
L 594 3053 
L 172 3053 
L 172 3500 
L 594 3500 
L 594 4494 
L 1172 4494 
z
" transform="scale(0.015625)"/>
       <path id="DejaVuSans-76" d="M 191 3500 
L 800 3500 
L 1894 563 
L 2988 3500 
L 3597 3500 
L 2284 0 
L 1503 0 
L 191 3500 
z
" transform="scale(0.015625)"/>
       <path id="DejaVuSans-20" transform="scale(0.015625)"/>
       <path id="DejaVuSans-75" d="M 544 1381 
L 544 3500 
L 1119 3500 
L 1119 1403 
Q 1119 906 1312 657 
Q 1506 409 1894 409 
Q 2359 409 2629 706 
Q 2900 1003 2900 1516 
L 2900 3500 
L 3475 3500 
L 3475 0 
L 2900 0 
L 2900 538 
Q 2691 219 2414 64 
Q 2138 -91 1772 -91 
Q 1169 -91 856 284 
Q 544 659 544 1381 
z
M 1991 3584 
L 1991 3584 
z
" transform="scale(0.015625)"/>
       <path id="DejaVuSans-6d" d="M 3328 2828 
Q 3544 3216 3844 3400 
Q 4144 3584 4550 3584 
Q 5097 3584 5394 3201 
Q 5691 2819 5691 2113 
L 5691 0 
L 5113 0 
L 5113 2094 
Q 5113 2597 4934 2840 
Q 4756 3084 4391 3084 
Q 3944 3084 3684 2787 
Q 3425 2491 3425 1978 
L 3425 0 
L 2847 0 
L 2847 2094 
Q 2847 2600 2669 2842 
Q 2491 3084 2119 3084 
Q 1678 3084 1418 2786 
Q 1159 2488 1159 1978 
L 1159 0 
L 581 0 
L 581 3500 
L 1159 3500 
L 1159 2956 
Q 1356 3278 1631 3431 
Q 1906 3584 2284 3584 
Q 2666 3584 2933 3390 
Q 3200 3197 3328 2828 
z
" transform="scale(0.015625)"/>
       <path id="DejaVuSans-6c" d="M 603 4863 
L 1178 4863 
L 1178 0 
L 603 0 
L 603 4863 
z
" transform="scale(0.015625)"/>
       <path id="DejaVuSans-64" d="M 2906 2969 
L 2906 4863 
L 3481 4863 
L 3481 0 
L 2906 0 
L 2906 525 
Q 2725 213 2448 61 
Q 2172 -91 1784 -91 
Q 1150 -91 751 415 
Q 353 922 353 1747 
Q 353 2572 751 3078 
Q 1150 3584 1784 3584 
Q 2172 3584 2448 3432 
Q 2725 3281 2906 2969 
z
M 947 1747 
Q 947 1113 1208 752 
Q 1469 391 1925 391 
Q 2381 391 2643 752 
Q 2906 1113 2906 1747 
Q 2906 2381 2643 2742 
Q 2381 3103 1925 3103 
Q 1469 3103 1208 2742 
Q 947 2381 947 1747 
z
" transform="scale(0.015625)"/>
      </defs>
      <use xlink:href="#DejaVuSans-50"/>
      <use xlink:href="#DejaVuSans-6f" x="56.677734"/>
      <use xlink:href="#DejaVuSans-73" x="117.859375"/>
      <use xlink:href="#DejaVuSans-69" x="169.958984"/>
      <use xlink:href="#DejaVuSans-74" x="197.742188"/>
      <use xlink:href="#DejaVuSans-69" x="236.951172"/>
      <use xlink:href="#DejaVuSans-76" x="264.734375"/>
      <use xlink:href="#DejaVuSans-65" x="323.914062"/>
      <use xlink:href="#DejaVuSans-20" x="385.4375"/>
      <use xlink:href="#DejaVuSans-63" x="417.224609"/>
      <use xlink:href="#DejaVuSans-75" x="472.205078"/>
      <use xlink:href="#DejaVuSans-6d" x="535.583984"/>
      <use xlink:href="#DejaVuSans-75" x="632.996094"/>
      <use xlink:href="#DejaVuSans-6c" x="696.375"/>
      <use xlink:href="#DejaVuSans-61" x="724.158203"/>
      <use xlink:href="#DejaVuSans-74" x="785.4375"/>
      <use xlink:href="#DejaVuSans-69" x="824.646484"/>
      <use xlink:href="#DejaVuSans-76" x="852.429688"/>
      <use xlink:href="#DejaVuSans-65" x="911.609375"/>
      <use xlink:href="#DejaVuSans-20" x="973.132812"/>
      <use xlink:href="#DejaVuSans-70" x="1004.919922"/>
      <use xlink:href="#DejaVuSans-72" x="1068.396484"/>
      <use xlink:href="#DejaVuSans-65" x="1107.259766"/>
      <use xlink:href="#DejaVuSans-64" x="1168.783203"/>
      <use xlink:href="#DejaVuSans-69" x="1232.259766"/>
      <use xlink:href="#DejaVuSans-63" x="1260.042969"/>
      <use xlink:href="#DejaVuSans-74" x="1315.023438"/>
      <use xlink:href="#DejaVuSans-69" x="1354.232422"/>
      <use xlink:href="#DejaVuSans-6f" x="1382.015625"/>
      <use xlink:href="#DejaVuSans-6e" x="1443.197266"/>
      <use xlink:href="#DejaVuSans-73" x="1506.576172"/>
     </g>
    </g>
    <g id="line2d_16">
     <path d="M 66.6 278.326188 
L 76.6 278.326188 
L 86.6 278.326188 
" style="fill: none; stroke: #ff7f0e; stroke-opacity: 0.7; stroke-width: 1.5; stroke-linecap: square"/>
    </g>
    <g id="text_14">
     <!-- Negative cumulative predictions -->
     <g transform="translate(94.6 281.826188) scale(0.1 -0.1)">
      <defs>
       <path id="DejaVuSans-4e" d="M 628 4666 
L 1478 4666 
L 3547 763 
L 3547 4666 
L 4159 4666 
L 4159 0 
L 3309 0 
L 1241 3903 
L 1241 0 
L 628 0 
L 628 4666 
z
" transform="scale(0.015625)"/>
      </defs>
      <use xlink:href="#DejaVuSans-4e"/>
      <use xlink:href="#DejaVuSans-65" x="74.804688"/>
      <use xlink:href="#DejaVuSans-67" x="136.328125"/>
      <use xlink:href="#DejaVuSans-61" x="199.804688"/>
      <use xlink:href="#DejaVuSans-74" x="261.083984"/>
      <use xlink:href="#DejaVuSans-69" x="300.292969"/>
      <use xlink:href="#DejaVuSans-76" x="328.076172"/>
      <use xlink:href="#DejaVuSans-65" x="387.255859"/>
      <use xlink:href="#DejaVuSans-20" x="448.779297"/>
      <use xlink:href="#DejaVuSans-63" x="480.566406"/>
      <use xlink:href="#DejaVuSans-75" x="535.546875"/>
      <use xlink:href="#DejaVuSans-6d" x="598.925781"/>
      <use xlink:href="#DejaVuSans-75" x="696.337891"/>
      <use xlink:href="#DejaVuSans-6c" x="759.716797"/>
      <use xlink:href="#DejaVuSans-61" x="787.5"/>
      <use xlink:href="#DejaVuSans-74" x="848.779297"/>
      <use xlink:href="#DejaVuSans-69" x="887.988281"/>
      <use xlink:href="#DejaVuSans-76" x="915.771484"/>
      <use xlink:href="#DejaVuSans-65" x="974.951172"/>
      <use xlink:href="#DejaVuSans-20" x="1036.474609"/>
      <use xlink:href="#DejaVuSans-70" x="1068.261719"/>
      <use xlink:href="#DejaVuSans-72" x="1131.738281"/>
      <use xlink:href="#DejaVuSans-65" x="1170.601562"/>
      <use xlink:href="#DejaVuSans-64" x="1232.125"/>
      <use xlink:href="#DejaVuSans-69" x="1295.601562"/>
      <use xlink:href="#DejaVuSans-63" x="1323.384766"/>
      <use xlink:href="#DejaVuSans-74" x="1378.365234"/>
      <use xlink:href="#DejaVuSans-69" x="1417.574219"/>
      <use xlink:href="#DejaVuSans-6f" x="1445.357422"/>
      <use xlink:href="#DejaVuSans-6e" x="1506.539062"/>
      <use xlink:href="#DejaVuSans-73" x="1569.917969"/>
     </g>
    </g>
    <g id="line2d_17">
     <path d="M 66.6 293.004312 
L 76.6 293.004312 
L 86.6 293.004312 
" style="fill: none; stroke: #2ca02c; stroke-opacity: 0.7; stroke-width: 1.5; stroke-linecap: square"/>
    </g>
    <g id="text_15">
     <!-- Average cumulative predictions -->
     <g transform="translate(94.6 296.504312) scale(0.1 -0.1)">
      <defs>
       <path id="DejaVuSans-41" d="M 2188 4044 
L 1331 1722 
L 3047 1722 
L 2188 4044 
z
M 1831 4666 
L 2547 4666 
L 4325 0 
L 3669 0 
L 3244 1197 
L 1141 1197 
L 716 0 
L 50 0 
L 1831 4666 
z
" transform="scale(0.015625)"/>
      </defs>
      <use xlink:href="#DejaVuSans-41"/>
      <use xlink:href="#DejaVuSans-76" x="62.533203"/>
      <use xlink:href="#DejaVuSans-65" x="121.712891"/>
      <use xlink:href="#DejaVuSans-72" x="183.236328"/>
      <use xlink:href="#DejaVuSans-61" x="224.349609"/>
      <use xlink:href="#DejaVuSans-67" x="285.628906"/>
      <use xlink:href="#DejaVuSans-65" x="349.105469"/>
      <use xlink:href="#DejaVuSans-20" x="410.628906"/>
      <use xlink:href="#DejaVuSans-63" x="442.416016"/>
      <use xlink:href="#DejaVuSans-75" x="497.396484"/>
      <use xlink:href="#DejaVuSans-6d" x="560.775391"/>
      <use xlink:href="#DejaVuSans-75" x="658.1875"/>
      <use xlink:href="#DejaVuSans-6c" x="721.566406"/>
      <use xlink:href="#DejaVuSans-61" x="749.349609"/>
      <use xlink:href="#DejaVuSans-74" x="810.628906"/>
      <use xlink:href="#DejaVuSans-69" x="849.837891"/>
      <use xlink:href="#DejaVuSans-76" x="877.621094"/>
      <use xlink:href="#DejaVuSans-65" x="936.800781"/>
      <use xlink:href="#DejaVuSans-20" x="998.324219"/>
      <use xlink:href="#DejaVuSans-70" x="1030.111328"/>
      <use xlink:href="#DejaVuSans-72" x="1093.587891"/>
      <use xlink:href="#DejaVuSans-65" x="1132.451172"/>
      <use xlink:href="#DejaVuSans-64" x="1193.974609"/>
      <use xlink:href="#DejaVuSans-69" x="1257.451172"/>
      <use xlink:href="#DejaVuSans-63" x="1285.234375"/>
      <use xlink:href="#DejaVuSans-74" x="1340.214844"/>
      <use xlink:href="#DejaVuSans-69" x="1379.423828"/>
      <use xlink:href="#DejaVuSans-6f" x="1407.207031"/>
      <use xlink:href="#DejaVuSans-6e" x="1468.388672"/>
      <use xlink:href="#DejaVuSans-73" x="1531.767578"/>
     </g>
    </g>
   </g>
  </g>
 </g>
 <defs>
  <clipPath id="p16301b8cb9">
   <rect x="57.6" y="41.472" width="357.12" height="266.112"/>
  </clipPath>
 </defs>
</svg>
