<?xml version="1.0" encoding="utf-8" standalone="no"?>
<!DOCTYPE svg PUBLIC "-//W3C//DTD SVG 1.1//EN"
  "http://www.w3.org/Graphics/SVG/1.1/DTD/svg11.dtd">
<svg xmlns:xlink="http://www.w3.org/1999/xlink" width="460.8pt" height="345.6pt" viewBox="0 0 460.8 345.6" xmlns="http://www.w3.org/2000/svg" version="1.1">
 <metadata>
  <rdf:RDF xmlns:dc="http://purl.org/dc/elements/1.1/" xmlns:cc="http://creativecommons.org/ns#" xmlns:rdf="http://www.w3.org/1999/02/22-rdf-syntax-ns#">
   <cc:Work>
    <dc:type rdf:resource="http://purl.org/dc/dcmitype/StillImage"/>
    <dc:date>2024-05-30T17:44:57.509724</dc:date>
    <dc:format>image/svg+xml</dc:format>
    <dc:creator>
     <cc:Agent>
      <dc:title>Matplotlib v3.9.0, https://matplotlib.org/</dc:title>
     </cc:Agent>
    </dc:creator>
   </cc:Work>
  </rdf:RDF>
 </metadata>
 <defs>
  <style type="text/css">*{stroke-linejoin: round; stroke-linecap: butt}</style>
 </defs>
 <g id="figure_1">
  <g id="patch_1">
   <path d="M 0 345.6 
L 460.8 345.6 
L 460.8 0 
L 0 0 
z
" style="fill: #ffffff"/>
  </g>
  <g id="axes_1">
   <g id="patch_2">
    <path d="M 57.6 307.584 
L 414.72 307.584 
L 414.72 41.472 
L 57.6 41.472 
z
" style="fill: #ffffff"/>
   </g>
   <g id="matplotlib.axis_1">
    <g id="xtick_1">
     <g id="line2d_1">
      <defs>
       <path id="m78652a3b40" d="M 0 0 
L 0 3.5 
" style="stroke: #000000; stroke-width: 0.8"/>
      </defs>
      <g>
       <use xlink:href="#m78652a3b40" x="73.832727" y="307.584" style="stroke: #000000; stroke-width: 0.8"/>
      </g>
     </g>
     <g id="text_1">
      <!-- 0 -->
      <g transform="translate(70.651477 322.182437) scale(0.1 -0.1)">
       <defs>
        <path id="DejaVuSans-30" d="M 2034 4250 
Q 1547 4250 1301 3770 
Q 1056 3291 1056 2328 
Q 1056 1369 1301 889 
Q 1547 409 2034 409 
Q 2525 409 2770 889 
Q 3016 1369 3016 2328 
Q 3016 3291 2770 3770 
Q 2525 4250 2034 4250 
z
M 2034 4750 
Q 2819 4750 3233 4129 
Q 3647 3509 3647 2328 
Q 3647 1150 3233 529 
Q 2819 -91 2034 -91 
Q 1250 -91 836 529 
Q 422 1150 422 2328 
Q 422 3509 836 4129 
Q 1250 4750 2034 4750 
z
" transform="scale(0.015625)"/>
       </defs>
       <use xlink:href="#DejaVuSans-30"/>
      </g>
     </g>
    </g>
    <g id="xtick_2">
     <g id="line2d_2">
      <g>
       <use xlink:href="#m78652a3b40" x="149.333784" y="307.584" style="stroke: #000000; stroke-width: 0.8"/>
      </g>
     </g>
     <g id="text_2">
      <!-- 50 -->
      <g transform="translate(142.971284 322.182437) scale(0.1 -0.1)">
       <defs>
        <path id="DejaVuSans-35" d="M 691 4666 
L 3169 4666 
L 3169 4134 
L 1269 4134 
L 1269 2991 
Q 1406 3038 1543 3061 
Q 1681 3084 1819 3084 
Q 2600 3084 3056 2656 
Q 3513 2228 3513 1497 
Q 3513 744 3044 326 
Q 2575 -91 1722 -91 
Q 1428 -91 1123 -41 
Q 819 9 494 109 
L 494 744 
Q 775 591 1075 516 
Q 1375 441 1709 441 
Q 2250 441 2565 725 
Q 2881 1009 2881 1497 
Q 2881 1984 2565 2268 
Q 2250 2553 1709 2553 
Q 1456 2553 1204 2497 
Q 953 2441 691 2322 
L 691 4666 
z
" transform="scale(0.015625)"/>
       </defs>
       <use xlink:href="#DejaVuSans-35"/>
       <use xlink:href="#DejaVuSans-30" x="63.623047"/>
      </g>
     </g>
    </g>
    <g id="xtick_3">
     <g id="line2d_3">
      <g>
       <use xlink:href="#m78652a3b40" x="224.834841" y="307.584" style="stroke: #000000; stroke-width: 0.8"/>
      </g>
     </g>
     <g id="text_3">
      <!-- 100 -->
      <g transform="translate(215.291091 322.182437) scale(0.1 -0.1)">
       <defs>
        <path id="DejaVuSans-31" d="M 794 531 
L 1825 531 
L 1825 4091 
L 703 3866 
L 703 4441 
L 1819 4666 
L 2450 4666 
L 2450 531 
L 3481 531 
L 3481 0 
L 794 0 
L 794 531 
z
" transform="scale(0.015625)"/>
       </defs>
       <use xlink:href="#DejaVuSans-31"/>
       <use xlink:href="#DejaVuSans-30" x="63.623047"/>
       <use xlink:href="#DejaVuSans-30" x="127.246094"/>
      </g>
     </g>
    </g>
    <g id="xtick_4">
     <g id="line2d_4">
      <g>
       <use xlink:href="#m78652a3b40" x="300.335899" y="307.584" style="stroke: #000000; stroke-width: 0.8"/>
      </g>
     </g>
     <g id="text_4">
      <!-- 150 -->
      <g transform="translate(290.792149 322.182437) scale(0.1 -0.1)">
       <use xlink:href="#DejaVuSans-31"/>
       <use xlink:href="#DejaVuSans-35" x="63.623047"/>
       <use xlink:href="#DejaVuSans-30" x="127.246094"/>
      </g>
     </g>
    </g>
    <g id="xtick_5">
     <g id="line2d_5">
      <g>
       <use xlink:href="#m78652a3b40" x="375.836956" y="307.584" style="stroke: #000000; stroke-width: 0.8"/>
      </g>
     </g>
     <g id="text_5">
      <!-- 200 -->
      <g transform="translate(366.293206 322.182437) scale(0.1 -0.1)">
       <defs>
        <path id="DejaVuSans-32" d="M 1228 531 
L 3431 531 
L 3431 0 
L 469 0 
L 469 531 
Q 828 903 1448 1529 
Q 2069 2156 2228 2338 
Q 2531 2678 2651 2914 
Q 2772 3150 2772 3378 
Q 2772 3750 2511 3984 
Q 2250 4219 1831 4219 
Q 1534 4219 1204 4116 
Q 875 4013 500 3803 
L 500 4441 
Q 881 4594 1212 4672 
Q 1544 4750 1819 4750 
Q 2544 4750 2975 4387 
Q 3406 4025 3406 3419 
Q 3406 3131 3298 2873 
Q 3191 2616 2906 2266 
Q 2828 2175 2409 1742 
Q 1991 1309 1228 531 
z
" transform="scale(0.015625)"/>
       </defs>
       <use xlink:href="#DejaVuSans-32"/>
       <use xlink:href="#DejaVuSans-30" x="63.623047"/>
       <use xlink:href="#DejaVuSans-30" x="127.246094"/>
      </g>
     </g>
    </g>
   </g>
   <g id="matplotlib.axis_2">
    <g id="ytick_1">
     <g id="line2d_6">
      <defs>
       <path id="m1cbbb3326e" d="M 0 0 
L -3.5 0 
" style="stroke: #000000; stroke-width: 0.8"/>
      </defs>
      <g>
       <use xlink:href="#m1cbbb3326e" x="57.6" y="291.305714" style="stroke: #000000; stroke-width: 0.8"/>
      </g>
     </g>
     <g id="text_6">
      <!-- −8000 -->
      <g transform="translate(16.770313 295.104933) scale(0.1 -0.1)">
       <defs>
        <path id="DejaVuSans-2212" d="M 678 2272 
L 4684 2272 
L 4684 1741 
L 678 1741 
L 678 2272 
z
" transform="scale(0.015625)"/>
        <path id="DejaVuSans-38" d="M 2034 2216 
Q 1584 2216 1326 1975 
Q 1069 1734 1069 1313 
Q 1069 891 1326 650 
Q 1584 409 2034 409 
Q 2484 409 2743 651 
Q 3003 894 3003 1313 
Q 3003 1734 2745 1975 
Q 2488 2216 2034 2216 
z
M 1403 2484 
Q 997 2584 770 2862 
Q 544 3141 544 3541 
Q 544 4100 942 4425 
Q 1341 4750 2034 4750 
Q 2731 4750 3128 4425 
Q 3525 4100 3525 3541 
Q 3525 3141 3298 2862 
Q 3072 2584 2669 2484 
Q 3125 2378 3379 2068 
Q 3634 1759 3634 1313 
Q 3634 634 3220 271 
Q 2806 -91 2034 -91 
Q 1263 -91 848 271 
Q 434 634 434 1313 
Q 434 1759 690 2068 
Q 947 2378 1403 2484 
z
M 1172 3481 
Q 1172 3119 1398 2916 
Q 1625 2713 2034 2713 
Q 2441 2713 2670 2916 
Q 2900 3119 2900 3481 
Q 2900 3844 2670 4047 
Q 2441 4250 2034 4250 
Q 1625 4250 1398 4047 
Q 1172 3844 1172 3481 
z
" transform="scale(0.015625)"/>
       </defs>
       <use xlink:href="#DejaVuSans-2212"/>
       <use xlink:href="#DejaVuSans-38" x="83.789062"/>
       <use xlink:href="#DejaVuSans-30" x="147.412109"/>
       <use xlink:href="#DejaVuSans-30" x="211.035156"/>
       <use xlink:href="#DejaVuSans-30" x="274.658203"/>
      </g>
     </g>
    </g>
    <g id="ytick_2">
     <g id="line2d_7">
      <g>
       <use xlink:href="#m1cbbb3326e" x="57.6" y="260.845603" style="stroke: #000000; stroke-width: 0.8"/>
      </g>
     </g>
     <g id="text_7">
      <!-- −6000 -->
      <g transform="translate(16.770313 264.644822) scale(0.1 -0.1)">
       <defs>
        <path id="DejaVuSans-36" d="M 2113 2584 
Q 1688 2584 1439 2293 
Q 1191 2003 1191 1497 
Q 1191 994 1439 701 
Q 1688 409 2113 409 
Q 2538 409 2786 701 
Q 3034 994 3034 1497 
Q 3034 2003 2786 2293 
Q 2538 2584 2113 2584 
z
M 3366 4563 
L 3366 3988 
Q 3128 4100 2886 4159 
Q 2644 4219 2406 4219 
Q 1781 4219 1451 3797 
Q 1122 3375 1075 2522 
Q 1259 2794 1537 2939 
Q 1816 3084 2150 3084 
Q 2853 3084 3261 2657 
Q 3669 2231 3669 1497 
Q 3669 778 3244 343 
Q 2819 -91 2113 -91 
Q 1303 -91 875 529 
Q 447 1150 447 2328 
Q 447 3434 972 4092 
Q 1497 4750 2381 4750 
Q 2619 4750 2861 4703 
Q 3103 4656 3366 4563 
z
" transform="scale(0.015625)"/>
       </defs>
       <use xlink:href="#DejaVuSans-2212"/>
       <use xlink:href="#DejaVuSans-36" x="83.789062"/>
       <use xlink:href="#DejaVuSans-30" x="147.412109"/>
       <use xlink:href="#DejaVuSans-30" x="211.035156"/>
       <use xlink:href="#DejaVuSans-30" x="274.658203"/>
      </g>
     </g>
    </g>
    <g id="ytick_3">
     <g id="line2d_8">
      <g>
       <use xlink:href="#m1cbbb3326e" x="57.6" y="230.385492" style="stroke: #000000; stroke-width: 0.8"/>
      </g>
     </g>
     <g id="text_8">
      <!-- −4000 -->
      <g transform="translate(16.770313 234.184711) scale(0.1 -0.1)">
       <defs>
        <path id="DejaVuSans-34" d="M 2419 4116 
L 825 1625 
L 2419 1625 
L 2419 4116 
z
M 2253 4666 
L 3047 4666 
L 3047 1625 
L 3713 1625 
L 3713 1100 
L 3047 1100 
L 3047 0 
L 2419 0 
L 2419 1100 
L 313 1100 
L 313 1709 
L 2253 4666 
z
" transform="scale(0.015625)"/>
       </defs>
       <use xlink:href="#DejaVuSans-2212"/>
       <use xlink:href="#DejaVuSans-34" x="83.789062"/>
       <use xlink:href="#DejaVuSans-30" x="147.412109"/>
       <use xlink:href="#DejaVuSans-30" x="211.035156"/>
       <use xlink:href="#DejaVuSans-30" x="274.658203"/>
      </g>
     </g>
    </g>
    <g id="ytick_4">
     <g id="line2d_9">
      <g>
       <use xlink:href="#m1cbbb3326e" x="57.6" y="199.925382" style="stroke: #000000; stroke-width: 0.8"/>
      </g>
     </g>
     <g id="text_9">
      <!-- −2000 -->
      <g transform="translate(16.770313 203.7246) scale(0.1 -0.1)">
       <use xlink:href="#DejaVuSans-2212"/>
       <use xlink:href="#DejaVuSans-32" x="83.789062"/>
       <use xlink:href="#DejaVuSans-30" x="147.412109"/>
       <use xlink:href="#DejaVuSans-30" x="211.035156"/>
       <use xlink:href="#DejaVuSans-30" x="274.658203"/>
      </g>
     </g>
    </g>
    <g id="ytick_5">
     <g id="line2d_10">
      <g>
       <use xlink:href="#m1cbbb3326e" x="57.6" y="169.465271" style="stroke: #000000; stroke-width: 0.8"/>
      </g>
     </g>
     <g id="text_10">
      <!-- 0 -->
      <g transform="translate(44.2375 173.264489) scale(0.1 -0.1)">
       <use xlink:href="#DejaVuSans-30"/>
      </g>
     </g>
    </g>
    <g id="ytick_6">
     <g id="line2d_11">
      <g>
       <use xlink:href="#m1cbbb3326e" x="57.6" y="139.00516" style="stroke: #000000; stroke-width: 0.8"/>
      </g>
     </g>
     <g id="text_11">
      <!-- 2000 -->
      <g transform="translate(25.15 142.804379) scale(0.1 -0.1)">
       <use xlink:href="#DejaVuSans-32"/>
       <use xlink:href="#DejaVuSans-30" x="63.623047"/>
       <use xlink:href="#DejaVuSans-30" x="127.246094"/>
       <use xlink:href="#DejaVuSans-30" x="190.869141"/>
      </g>
     </g>
    </g>
    <g id="ytick_7">
     <g id="line2d_12">
      <g>
       <use xlink:href="#m1cbbb3326e" x="57.6" y="108.545049" style="stroke: #000000; stroke-width: 0.8"/>
      </g>
     </g>
     <g id="text_12">
      <!-- 4000 -->
      <g transform="translate(25.15 112.344268) scale(0.1 -0.1)">
       <use xlink:href="#DejaVuSans-34"/>
       <use xlink:href="#DejaVuSans-30" x="63.623047"/>
       <use xlink:href="#DejaVuSans-30" x="127.246094"/>
       <use xlink:href="#DejaVuSans-30" x="190.869141"/>
      </g>
     </g>
    </g>
    <g id="ytick_8">
     <g id="line2d_13">
      <g>
       <use xlink:href="#m1cbbb3326e" x="57.6" y="78.084938" style="stroke: #000000; stroke-width: 0.8"/>
      </g>
     </g>
     <g id="text_13">
      <!-- 6000 -->
      <g transform="translate(25.15 81.884157) scale(0.1 -0.1)">
       <use xlink:href="#DejaVuSans-36"/>
       <use xlink:href="#DejaVuSans-30" x="63.623047"/>
       <use xlink:href="#DejaVuSans-30" x="127.246094"/>
       <use xlink:href="#DejaVuSans-30" x="190.869141"/>
      </g>
     </g>
    </g>
    <g id="ytick_9">
     <g id="line2d_14">
      <g>
       <use xlink:href="#m1cbbb3326e" x="57.6" y="47.624827" style="stroke: #000000; stroke-width: 0.8"/>
      </g>
     </g>
     <g id="text_14">
      <!-- 8000 -->
      <g transform="translate(25.15 51.424046) scale(0.1 -0.1)">
       <use xlink:href="#DejaVuSans-38"/>
       <use xlink:href="#DejaVuSans-30" x="63.623047"/>
       <use xlink:href="#DejaVuSans-30" x="127.246094"/>
       <use xlink:href="#DejaVuSans-30" x="190.869141"/>
      </g>
     </g>
    </g>
   </g>
   <g id="line2d_15">
    <path d="M 73.832727 173.019696 
L 75.342748 170.701945 
L 76.85277 168.871931 
L 78.362791 170.144998 
L 79.872812 169.413159 
L 81.382833 168.969946 
L 82.892854 169.946038 
L 84.402875 171.213929 
L 85.912896 167.860148 
L 87.422918 169.80807 
L 88.932939 170.463089 
L 90.44296 169.725927 
L 93.463002 169.601457 
L 94.973023 169.120123 
L 96.483044 169.702938 
L 97.993066 170.536383 
L 101.013108 168.405751 
L 102.523129 171.0024 
L 104.03315 170.149741 
L 105.543171 168.496266 
L 107.053192 169.670229 
L 108.563214 170.390138 
L 110.073235 169.646743 
L 111.583256 169.796573 
L 113.093277 169.6289 
L 114.603298 169.586507 
L 116.113319 168.810867 
L 117.62334 168.667514 
L 119.133362 169.995243 
L 120.643383 170.10146 
L 122.153404 169.639639 
L 123.663425 169.588478 
L 125.173446 169.314098 
L 128.193488 169.41602 
L 129.70351 169.783702 
L 131.213531 169.361359 
L 132.723552 169.618681 
L 134.233573 169.681268 
L 135.743594 169.274207 
L 137.253615 170.376093 
L 138.763636 169.12176 
L 140.273658 169.389307 
L 141.783679 170.52417 
L 143.2937 171.007807 
L 144.803721 169.439058 
L 146.313742 169.062915 
L 147.823763 171.447905 
L 149.333784 171.218924 
L 150.843805 167.103014 
L 152.353827 167.568318 
L 153.863848 172.131388 
L 155.373869 170.915189 
L 156.88389 168.304292 
L 158.393911 171.255776 
L 159.903932 170.314643 
L 161.413953 170.084776 
L 162.923975 169.425518 
L 164.433996 170.033207 
L 165.944017 169.508746 
L 167.454038 169.552446 
L 168.964059 170.993195 
L 170.47408 169.212792 
L 171.984101 168.74018 
L 173.494123 170.472982 
L 175.004144 169.823561 
L 176.514165 170.070058 
L 178.024186 169.369726 
L 179.534207 170.764543 
L 181.044228 169.368747 
L 182.554249 170.740047 
L 184.064271 170.083347 
L 185.574292 168.539203 
L 187.084313 169.467466 
L 188.594334 169.68383 
L 190.104355 168.544407 
L 191.614376 170.915624 
L 193.124397 169.927079 
L 194.634419 169.699943 
L 196.14444 171.452771 
L 197.654461 168.23939 
L 199.164482 170.04076 
L 200.674503 169.664545 
L 202.184524 169.147284 
L 203.694545 168.771967 
L 205.204567 169.770504 
L 206.714588 169.881087 
L 208.224609 169.196578 
L 209.73463 170.972557 
L 211.244651 168.9355 
L 212.754672 169.925946 
L 214.264693 168.410742 
L 215.774715 169.843114 
L 217.284736 170.265825 
L 218.794757 169.196534 
L 221.814799 169.525733 
L 223.32482 171.442567 
L 224.834841 172.107119 
L 226.344863 167.520341 
L 227.854884 171.190473 
L 229.364905 169.905174 
L 230.874926 169.673921 
L 232.384947 174.124732 
L 233.894968 170.596225 
L 235.404989 175.937645 
L 236.915011 161.926206 
L 238.425032 176.88403 
L 239.935053 177.784031 
L 241.445074 161.101122 
L 242.955095 179.102345 
L 244.465116 167.510022 
L 245.975137 171.569079 
L 247.485159 179.709487 
L 248.99518 174.786742 
L 250.505201 161.618182 
L 252.015222 175.423356 
L 253.525243 173.094784 
L 256.545285 177.597488 
L 258.055307 174.315544 
L 259.565328 167.023643 
L 261.075349 175.039445 
L 262.58537 167.881062 
L 264.095391 175.094802 
L 265.605412 168.431742 
L 267.115433 174.096632 
L 268.625455 176.071388 
L 270.135476 168.220041 
L 271.645497 163.202237 
L 273.155518 165.298604 
L 274.665539 183.960631 
L 276.17556 169.878322 
L 277.685581 165.426015 
L 279.195603 167.431796 
L 280.705624 172.050547 
L 282.215645 175.199732 
L 283.725666 170.892806 
L 285.235687 167.523979 
L 286.745708 173.758171 
L 288.255729 169.776723 
L 289.765751 168.681154 
L 292.785793 172.821961 
L 294.295814 175.370694 
L 295.805835 166.69944 
L 297.315856 181.905439 
L 298.825877 170.28917 
L 300.335899 172.800434 
L 303.355941 169.297117 
L 304.865962 173.613363 
L 306.375983 167.142317 
L 307.886004 162.21293 
L 309.396025 178.273591 
L 310.906047 171.67202 
L 312.416068 168.211555 
L 313.926089 167.309713 
L 315.43611 175.906441 
L 316.946131 172.18921 
L 318.456152 171.583378 
L 319.966173 172.095662 
L 321.476195 169.187536 
L 322.986216 169.081166 
L 324.496237 168.058141 
L 326.006258 169.138763 
L 327.516279 170.951478 
L 329.0263 170.731849 
L 330.536321 169.681766 
L 332.046342 170.246826 
L 333.556364 171.35935 
L 335.066385 169.328112 
L 336.576406 170.18493 
L 339.596448 170.391344 
L 341.106469 169.50763 
L 342.61649 170.162227 
L 344.126512 169.816346 
L 345.636533 171.787844 
L 347.146554 168.452374 
L 348.656575 169.139437 
L 350.166596 169.45196 
L 351.676617 171.96984 
L 353.186638 170.538877 
L 354.69666 174.060337 
L 357.716702 169.97206 
L 359.226723 171.813302 
L 360.736744 167.686246 
L 362.246765 169.528523 
L 363.756786 170.089847 
L 365.266808 168.957586 
L 366.776829 170.864467 
L 368.28685 169.072901 
L 369.796871 173.94088 
L 371.306892 168.818199 
L 372.816913 170.824242 
L 374.326934 168.000053 
L 375.836956 168.033218 
L 377.346977 169.729952 
L 378.856998 168.948774 
L 380.367019 171.175616 
L 381.87704 169.353233 
L 383.387061 170.62097 
L 384.897082 172.515058 
L 386.407104 166.868893 
L 387.917125 173.945286 
L 389.427146 171.278365 
L 390.937167 171.434889 
L 392.447188 168.725257 
L 393.957209 169.720414 
L 395.46723 172.568304 
L 396.977252 170.894682 
L 398.487273 167.907846 
L 398.487273 167.907846 
" clip-path="url(#pad09268b4c)" style="fill: none; stroke: #008000; stroke-opacity: 0.8; stroke-width: 0.5; stroke-linecap: square"/>
   </g>
   <g id="line2d_16">
    <path d="M 73.832727 154.60823 
L 75.342748 151.823575 
L 76.85277 154.978506 
L 78.362791 156.711456 
L 79.872812 155.073323 
L 81.382833 159.925969 
L 82.892854 159.428724 
L 84.402875 161.669697 
L 85.912896 150.362254 
L 87.422918 165.33535 
L 88.932939 162.060295 
L 90.44296 164.469838 
L 91.952981 165.555244 
L 93.463002 159.102343 
L 94.973023 160.004516 
L 96.483044 166.29485 
L 97.993066 163.455059 
L 99.503087 160.12831 
L 101.013108 163.706195 
L 102.523129 165.41218 
L 104.03315 166.149136 
L 105.543171 159.835291 
L 107.053192 165.720234 
L 108.563214 167.890425 
L 110.073235 168.748669 
L 111.583256 164.847218 
L 113.093277 168.72537 
L 114.603298 167.05139 
L 116.113319 160.368079 
L 117.62334 158.076851 
L 119.133362 165.643011 
L 120.643383 167.091837 
L 122.153404 163.273043 
L 123.663425 166.392525 
L 125.173446 163.74351 
L 126.683467 167.227764 
L 129.70351 168.632711 
L 131.213531 163.685903 
L 132.723552 168.146849 
L 134.233573 168.490989 
L 135.743594 168.255252 
L 138.763636 164.647039 
L 140.273658 165.029678 
L 141.783679 168.321091 
L 143.2937 158.483166 
L 144.803721 160.808184 
L 146.313742 161.423382 
L 147.823763 165.062352 
L 149.333784 163.825007 
L 150.843805 127.099314 
L 152.353827 153.961139 
L 153.863848 147.779035 
L 155.373869 164.354131 
L 156.88389 158.404393 
L 158.393911 160.483737 
L 159.903932 163.002544 
L 161.413953 166.569821 
L 162.923975 167.259437 
L 164.433996 154.808329 
L 165.944017 163.941887 
L 167.454038 167.040607 
L 168.964059 160.729823 
L 170.47408 162.994074 
L 171.984101 165.594694 
L 173.494123 165.056894 
L 175.004144 167.054327 
L 176.514165 166.510887 
L 178.024186 166.200487 
L 179.534207 165.332472 
L 181.044228 164.701615 
L 184.064271 166.182541 
L 185.574292 160.538163 
L 187.084313 163.747994 
L 188.594334 157.274999 
L 190.104355 125.034337 
L 191.614376 164.613605 
L 193.124397 166.054014 
L 194.634419 162.346887 
L 196.14444 164.43 
L 197.654461 161.50145 
L 199.164482 158.212041 
L 200.674503 162.96708 
L 202.184524 158.448383 
L 203.694545 160.204637 
L 205.204567 164.591644 
L 206.714588 167.364758 
L 208.224609 166.961746 
L 209.73463 161.627076 
L 211.244651 154.538078 
L 212.754672 161.497765 
L 214.264693 162.826899 
L 215.774715 152.868071 
L 217.284736 164.620353 
L 218.794757 162.282049 
L 220.304778 165.648333 
L 221.814799 165.141925 
L 223.32482 167.348867 
L 224.834841 161.308936 
L 226.344863 153.87882 
L 227.854884 160.98426 
L 229.364905 143.43999 
L 230.874926 156.403649 
L 232.384947 152.907894 
L 233.894968 140.459513 
L 235.404989 132.64308 
L 236.915011 102.542178 
L 238.425032 141.401366 
L 239.935053 142.119238 
L 241.445074 85.515347 
L 242.955095 119.869549 
L 244.465116 109.867681 
L 245.975137 129.72475 
L 247.485159 139.474577 
L 248.99518 141.177787 
L 250.505201 115.989006 
L 252.015222 115.066305 
L 253.525243 53.568 
L 255.035264 105.722237 
L 256.545285 135.449367 
L 258.055307 121.791345 
L 259.565328 116.281647 
L 261.075349 122.28384 
L 262.58537 142.35847 
L 264.095391 154.286371 
L 265.605412 141.879696 
L 268.625455 147.815397 
L 270.135476 126.545085 
L 271.645497 70.395424 
L 273.155518 103.491865 
L 274.665539 123.658567 
L 276.17556 115.652908 
L 277.685581 95.180247 
L 279.195603 119.171783 
L 280.705624 125.065272 
L 282.215645 122.479319 
L 283.725666 116.722784 
L 285.235687 125.779576 
L 288.255729 122.861718 
L 289.765751 143.378688 
L 291.275772 142.025704 
L 292.785793 118.056308 
L 294.295814 139.149899 
L 295.805835 113.186762 
L 297.315856 149.919085 
L 298.825877 129.39125 
L 300.335899 152.955722 
L 301.84592 151.686225 
L 303.355941 138.260808 
L 304.865962 136.664181 
L 306.375983 133.803518 
L 307.886004 120.477267 
L 309.396025 132.436476 
L 310.906047 154.063782 
L 312.416068 132.195059 
L 313.926089 121.804471 
L 315.43611 161.40305 
L 316.946131 159.763826 
L 318.456152 155.603415 
L 319.966173 150.795635 
L 321.476195 162.420211 
L 322.986216 155.587097 
L 324.496237 137.681723 
L 326.006258 155.810273 
L 327.516279 131.570578 
L 329.0263 156.31583 
L 330.536321 161.558488 
L 332.046342 165.608756 
L 333.556364 163.295072 
L 335.066385 155.585487 
L 336.576406 140.809655 
L 338.086427 162.870432 
L 339.596448 165.146233 
L 341.106469 159.782203 
L 342.61649 158.319295 
L 344.126512 166.132729 
L 345.636533 167.311308 
L 347.146554 152.047975 
L 348.656575 152.760807 
L 350.166596 152.359306 
L 351.676617 158.236338 
L 353.186638 151.615134 
L 354.69666 153.927567 
L 356.206681 154.616791 
L 357.716702 151.359107 
L 359.226723 163.783268 
L 360.736744 143.474855 
L 362.246765 150.77455 
L 363.756786 159.830296 
L 365.266808 156.305945 
L 366.776829 160.449935 
L 368.28685 149.802834 
L 369.796871 155.33774 
L 371.306892 159.632852 
L 372.816913 162.059641 
L 374.326934 151.513093 
L 375.836956 155.308979 
L 377.346977 162.685097 
L 378.856998 143.819434 
L 380.367019 146.925335 
L 381.87704 159.520403 
L 383.387061 159.437524 
L 384.897082 164.878274 
L 386.407104 155.585203 
L 387.917125 165.877321 
L 389.427146 152.450377 
L 390.937167 156.35881 
L 392.447188 140.720779 
L 393.957209 138.535531 
L 395.46723 135.151088 
L 396.977252 129.612758 
L 398.487273 150.603715 
L 398.487273 150.603715 
" clip-path="url(#pad09268b4c)" style="fill: none; stroke: #32cd32; stroke-opacity: 0.8; stroke-width: 0.5; stroke-linecap: square"/>
   </g>
   <g id="line2d_17">
    <path d="M 73.832727 198.532594 
L 75.342748 185.306117 
L 76.85277 183.480061 
L 78.362791 185.523803 
L 79.872812 176.938308 
L 81.382833 176.361593 
L 82.892854 175.595629 
L 84.402875 183.407898 
L 87.422918 177.049583 
L 88.932939 177.160167 
L 90.44296 176.472699 
L 91.952981 171.555089 
L 93.463002 177.694829 
L 94.973023 175.836448 
L 96.483044 173.476256 
L 97.993066 178.14534 
L 99.503087 179.341577 
L 101.013108 173.885619 
L 102.523129 178.381405 
L 104.03315 173.120215 
L 105.543171 172.287538 
L 107.053192 173.339636 
L 108.563214 172.701724 
L 110.073235 171.242399 
L 111.583256 173.991313 
L 113.093277 170.272247 
L 114.603298 170.530996 
L 116.113319 172.482142 
L 117.62334 176.677025 
L 119.133362 177.214287 
L 120.643383 172.429346 
L 122.153404 174.649562 
L 123.663425 174.955574 
L 125.173446 172.976004 
L 126.683467 170.591666 
L 128.193488 170.637924 
L 129.70351 173.944695 
L 131.213531 172.671226 
L 132.723552 172.285653 
L 134.233573 170.548997 
L 135.743594 170.233179 
L 137.253615 180.150473 
L 138.763636 171.339447 
L 140.273658 172.139847 
L 141.783679 173.269066 
L 143.2937 181.66855 
L 144.803721 186.554263 
L 146.313742 178.08762 
L 147.823763 176.832106 
L 149.333784 178.155311 
L 150.843805 188.727434 
L 152.353827 185.683748 
L 153.863848 191.076645 
L 155.373869 176.942557 
L 156.88389 179.284289 
L 158.393911 183.557608 
L 159.903932 177.723605 
L 161.413953 173.744259 
L 162.923975 172.11568 
L 164.433996 178.471409 
L 165.944017 175.151671 
L 167.454038 173.663177 
L 168.964059 189.609155 
L 170.47408 174.86099 
L 171.984101 172.768728 
L 173.494123 176.144698 
L 175.004144 173.250054 
L 176.514165 183.053235 
L 178.024186 174.763157 
L 179.534207 176.518921 
L 181.044228 179.392759 
L 182.554249 176.138272 
L 184.064271 177.28237 
L 185.574292 178.192569 
L 187.084313 175.234383 
L 188.594334 175.531856 
L 190.104355 194.934213 
L 191.614376 181.372661 
L 193.124397 176.666004 
L 194.634419 178.290146 
L 196.14444 183.547618 
L 197.654461 178.316898 
L 199.164482 177.759672 
L 200.674503 175.929723 
L 202.184524 180.06529 
L 203.694545 174.496449 
L 205.204567 175.086995 
L 206.714588 174.292831 
L 208.224609 170.602319 
L 209.73463 184.83019 
L 211.244651 176.930058 
L 212.754672 174.780039 
L 214.264693 173.082845 
L 215.774715 186.661639 
L 217.284736 175.675615 
L 218.794757 179.684331 
L 220.304778 171.973486 
L 221.814799 172.628898 
L 223.32482 181.777456 
L 224.834841 189.581108 
L 226.344863 184.982578 
L 227.854884 181.85654 
L 229.364905 186.636104 
L 230.874926 183.338555 
L 232.384947 196.626944 
L 233.894968 203.847191 
L 235.404989 251.146134 
L 236.915011 236.304679 
L 238.425032 227.451952 
L 239.935053 277.861615 
L 241.445074 225.083301 
L 242.955095 249.250445 
L 244.465116 213.473366 
L 245.975137 223.770264 
L 247.485159 238.936739 
L 248.99518 227.027057 
L 250.505201 201.83897 
L 252.015222 261.221413 
L 253.525243 254.143744 
L 255.035264 274.306337 
L 256.545285 205.456993 
L 258.055307 236.055389 
L 259.565328 207.256945 
L 261.075349 208.636127 
L 262.58537 193.621454 
L 264.095391 219.695168 
L 265.605412 203.25398 
L 267.115433 208.504681 
L 268.625455 229.58383 
L 270.135476 208.386867 
L 271.645497 196.769496 
L 273.155518 203.931223 
L 274.665539 253.11933 
L 276.17556 209.042597 
L 277.685581 225.489085 
L 279.195603 220.629894 
L 280.705624 225.61046 
L 282.215645 216.103206 
L 283.725666 214.90777 
L 285.235687 227.441541 
L 286.745708 215.778218 
L 288.255729 202.23514 
L 289.765751 195.508343 
L 291.275772 189.734919 
L 292.785793 220.482804 
L 294.295814 236.048498 
L 295.805835 198.142335 
L 297.315856 260.479746 
L 298.825877 217.846159 
L 300.335899 205.742234 
L 301.84592 200.133646 
L 303.355941 200.002722 
L 304.865962 197.750556 
L 306.375983 193.402344 
L 307.886004 203.862628 
L 309.396025 220.157796 
L 310.906047 188.811821 
L 312.416068 202.31859 
L 313.926089 209.918053 
L 315.43611 207.509653 
L 316.946131 185.317587 
L 318.456152 194.419439 
L 319.966173 199.510943 
L 321.476195 182.245968 
L 322.986216 180.949112 
L 324.496237 191.195613 
L 326.006258 185.06622 
L 327.516279 202.644321 
L 329.0263 188.037706 
L 332.046342 174.561555 
L 333.556364 180.522973 
L 335.066385 184.353382 
L 336.576406 231.406047 
L 338.086427 182.633431 
L 339.596448 180.661407 
L 341.106469 177.431932 
L 342.61649 180.608957 
L 344.126512 172.485279 
L 345.636533 177.766 
L 347.146554 193.932026 
L 348.656575 179.786441 
L 350.166596 180.639648 
L 351.676617 198.799334 
L 353.186638 179.716668 
L 356.206681 204.627679 
L 357.716702 185.739466 
L 359.226723 189.269124 
L 360.736744 190.578511 
L 362.246765 185.708361 
L 363.756786 179.614487 
L 365.266808 175.891224 
L 366.776829 186.279499 
L 368.28685 200.49249 
L 369.796871 189.906486 
L 371.306892 177.931746 
L 372.816913 186.288148 
L 374.326934 174.971379 
L 375.836956 177.107831 
L 377.346977 177.137657 
L 378.856998 184.851085 
L 380.367019 194.7021 
L 381.87704 178.043278 
L 383.387061 184.699159 
L 384.897082 185.109089 
L 386.407104 177.979305 
L 387.917125 188.29045 
L 389.427146 213.395373 
L 390.937167 183.031033 
L 392.447188 216.699473 
L 393.957209 205.782511 
L 395.46723 195.913382 
L 396.977252 198.732695 
L 398.487273 188.313241 
L 398.487273 188.313241 
" clip-path="url(#pad09268b4c)" style="fill: none; stroke: #32cd32; stroke-opacity: 0.8; stroke-width: 0.5; stroke-linecap: square"/>
   </g>
   <g id="line2d_18">
    <path d="M 73.832727 171.42453 
L 76.85277 168.48535 
L 78.362791 168.509938 
L 79.872812 168.734473 
L 81.382833 168.399292 
L 82.892854 169.478399 
L 84.402875 170.420124 
L 85.912896 168.095579 
L 87.422918 168.668976 
L 88.932939 170.103298 
L 90.44296 168.628651 
L 91.952981 169.324726 
L 93.463002 169.284994 
L 94.973023 168.818466 
L 96.483044 169.279781 
L 97.993066 169.610454 
L 99.503087 169.039883 
L 101.013108 167.84698 
L 102.523129 170.5883 
L 104.03315 170.022039 
L 105.543171 168.030573 
L 107.053192 169.213665 
L 108.563214 169.753603 
L 110.073235 169.233204 
L 113.093277 169.558327 
L 114.603298 169.384082 
L 116.113319 168.154453 
L 117.62334 168.482435 
L 119.133362 169.702389 
L 122.153404 169.094393 
L 123.663425 169.825217 
L 125.173446 169.111854 
L 126.683467 169.547668 
L 128.193488 169.380652 
L 129.70351 169.675815 
L 131.213531 169.154896 
L 132.723552 169.71708 
L 134.233573 169.580579 
L 135.743594 169.171354 
L 137.253615 169.994558 
L 138.763636 168.947842 
L 140.273658 169.185695 
L 143.2937 170.55646 
L 144.803721 168.892657 
L 146.313742 167.813143 
L 147.823763 171.176766 
L 149.333784 169.342204 
L 150.843805 166.525593 
L 152.353827 165.931563 
L 153.863848 170.532143 
L 155.373869 170.091879 
L 156.88389 167.357701 
L 158.393911 169.488739 
L 159.903932 169.502491 
L 161.413953 168.880086 
L 162.923975 169.065335 
L 164.433996 168.914906 
L 165.944017 169.254006 
L 167.454038 169.120678 
L 168.964059 170.243776 
L 170.47408 168.689024 
L 171.984101 168.781083 
L 173.494123 169.532061 
L 175.004144 169.148762 
L 176.514165 169.921748 
L 178.024186 169.344568 
L 179.534207 170.086991 
L 181.044228 169.497996 
L 184.064271 169.938558 
L 185.574292 168.190277 
L 187.084313 168.790027 
L 188.594334 168.690974 
L 190.104355 167.865609 
L 191.614376 170.128944 
L 193.124397 169.949435 
L 194.634419 169.187116 
L 196.14444 170.723387 
L 197.654461 168.663118 
L 199.164482 167.911742 
L 200.674503 168.356032 
L 202.184524 169.280301 
L 203.694545 168.876613 
L 206.714588 169.790543 
L 208.224609 169.196049 
L 209.73463 170.271216 
L 211.244651 168.719718 
L 212.754672 169.7532 
L 214.264693 168.313103 
L 215.774715 168.340927 
L 217.284736 170.044752 
L 218.794757 168.763724 
L 220.304778 169.13467 
L 221.814799 169.11516 
L 223.32482 170.1806 
L 224.834841 171.587296 
L 226.344863 166.403741 
L 227.854884 169.440013 
L 229.364905 165.817207 
L 230.874926 169.151763 
L 232.384947 171.355512 
L 233.894968 168.995688 
L 235.404989 170.303817 
L 236.915011 166.248253 
L 238.425032 175.297247 
L 239.935053 171.638811 
L 241.445074 159.685906 
L 242.955095 179.071787 
L 244.465116 163.847186 
L 245.975137 167.095175 
L 247.485159 174.821232 
L 248.99518 172.71981 
L 250.505201 156.046551 
L 252.015222 176.829841 
L 253.525243 170.961911 
L 255.035264 176.899931 
L 256.545285 169.454264 
L 258.055307 171.3403 
L 259.565328 166.585764 
L 261.075349 165.503322 
L 262.58537 166.518403 
L 264.095391 172.613312 
L 265.605412 163.129414 
L 267.115433 168.105062 
L 268.625455 171.33355 
L 270.135476 169.330561 
L 271.645497 160.026406 
L 273.155518 161.216722 
L 274.665539 183.075818 
L 276.17556 163.515484 
L 277.685581 164.583425 
L 279.195603 164.923817 
L 280.705624 167.413097 
L 282.215645 168.405143 
L 283.725666 162.732636 
L 285.235687 156.495242 
L 286.745708 172.294447 
L 288.255729 165.699217 
L 289.765751 165.084796 
L 291.275772 167.855618 
L 292.785793 169.946839 
L 294.295814 170.933813 
L 295.805835 161.751788 
L 297.315856 176.422142 
L 298.825877 162.334995 
L 300.335899 171.863834 
L 301.84592 172.332776 
L 303.355941 165.960678 
L 304.865962 170.507118 
L 306.375983 166.341671 
L 307.886004 161.428171 
L 309.396025 175.331515 
L 312.416068 166.203989 
L 313.926089 161.857896 
L 315.43611 172.480582 
L 316.946131 171.393489 
L 318.456152 169.689522 
L 319.966173 169.255532 
L 321.476195 168.329312 
L 322.986216 168.348058 
L 324.496237 166.481079 
L 326.006258 168.902202 
L 327.516279 169.872578 
L 329.0263 170.28372 
L 330.536321 168.97626 
L 332.046342 169.439832 
L 333.556364 170.84982 
L 335.066385 169.492564 
L 336.576406 167.134643 
L 338.086427 167.990747 
L 339.596448 169.524027 
L 341.106469 169.41121 
L 342.61649 169.761163 
L 344.126512 169.717719 
L 345.636533 171.770047 
L 347.146554 165.987458 
L 348.656575 168.85184 
L 350.166596 168.248135 
L 351.676617 170.002712 
L 353.186638 168.003032 
L 354.69666 169.975082 
L 356.206681 169.703408 
L 357.716702 168.977424 
L 359.226723 170.170118 
L 360.736744 166.566289 
L 362.246765 169.301773 
L 363.756786 168.218639 
L 365.266808 167.734777 
L 366.776829 169.766129 
L 368.28685 170.150019 
L 369.796871 170.409005 
L 371.306892 168.686143 
L 372.816913 169.499302 
L 374.326934 167.608566 
L 375.836956 168.337094 
L 377.346977 169.737829 
L 378.856998 166.902069 
L 380.367019 168.173503 
L 381.87704 169.243516 
L 383.387061 169.258433 
L 384.897082 171.068467 
L 386.407104 167.132922 
L 387.917125 171.56862 
L 390.937167 169.963963 
L 392.447188 170.756617 
L 393.957209 169.669322 
L 395.46723 169.24739 
L 396.977252 168.048833 
L 398.487273 166.10766 
L 398.487273 166.10766 
" clip-path="url(#pad09268b4c)" style="fill: none; stroke: #ff0000; stroke-opacity: 0.8; stroke-width: 0.5; stroke-linecap: square"/>
   </g>
   <g id="line2d_19">
    <path d="M 73.832727 153.705172 
L 75.342748 153.21246 
L 76.85277 156.504494 
L 78.362791 155.878739 
L 79.872812 157.746142 
L 81.382833 159.819051 
L 82.892854 155.633183 
L 84.402875 161.241091 
L 85.912896 150.83245 
L 87.422918 164.050592 
L 88.932939 161.846278 
L 90.44296 162.630497 
L 91.952981 165.162699 
L 93.463002 158.76742 
L 94.973023 159.791844 
L 96.483044 166.371811 
L 97.993066 162.621686 
L 99.503087 158.107167 
L 101.013108 162.962835 
L 102.523129 164.632825 
L 104.03315 166.545297 
L 105.543171 160.035834 
L 107.053192 166.041496 
L 108.563214 166.705961 
L 110.073235 167.214878 
L 111.583256 164.549739 
L 113.093277 169.025839 
L 114.603298 166.991401 
L 116.113319 160.096323 
L 117.62334 158.145886 
L 119.133362 163.799812 
L 120.643383 166.286348 
L 122.153404 162.678919 
L 123.663425 166.802857 
L 125.173446 164.128587 
L 126.683467 167.145489 
L 129.70351 168.505256 
L 131.213531 163.084023 
L 132.723552 168.227853 
L 134.233573 168.584179 
L 135.743594 168.160433 
L 137.253615 164.986221 
L 140.273658 165.099656 
L 141.783679 167.445777 
L 143.2937 158.080481 
L 144.803721 159.761688 
L 146.313742 159.948176 
L 147.823763 164.402802 
L 149.333784 161.982108 
L 150.843805 126.272997 
L 152.353827 151.642093 
L 153.863848 149.580598 
L 155.373869 162.973821 
L 156.88389 157.343726 
L 158.393911 159.9114 
L 159.903932 162.753101 
L 161.413953 164.453883 
L 162.923975 166.470193 
L 164.433996 154.826064 
L 165.944017 164.638989 
L 167.454038 166.211453 
L 168.964059 159.235377 
L 170.47408 163.121045 
L 171.984101 166.054927 
L 173.494123 164.462812 
L 175.004144 166.615384 
L 176.514165 165.954249 
L 178.024186 165.144259 
L 179.534207 162.459185 
L 181.044228 164.518052 
L 182.554249 163.025396 
L 184.064271 164.636851 
L 185.574292 161.000885 
L 187.084313 162.308996 
L 188.594334 156.610164 
L 190.104355 124.605265 
L 191.614376 164.189215 
L 193.124397 165.295783 
L 194.634419 162.936894 
L 196.14444 165.017287 
L 199.164482 156.220617 
L 200.674503 162.218529 
L 202.184524 156.385195 
L 205.204567 164.170838 
L 206.714588 165.777361 
L 208.224609 166.633021 
L 209.73463 158.272251 
L 211.244651 153.867858 
L 212.754672 161.110974 
L 214.264693 162.481807 
L 215.774715 152.558704 
L 217.284736 165.521532 
L 218.794757 162.26708 
L 220.304778 164.729653 
L 221.814799 165.023993 
L 223.32482 163.967156 
L 224.834841 160.655324 
L 226.344863 154.320406 
L 227.854884 158.664586 
L 229.364905 142.692797 
L 230.874926 157.234146 
L 232.384947 153.780087 
L 233.894968 143.204104 
L 235.404989 119.469265 
L 236.915011 99.252029 
L 238.425032 134.600916 
L 239.935053 126.973436 
L 241.445074 87.54474 
L 242.955095 129.883782 
L 244.465116 101.909477 
L 245.975137 127.239795 
L 247.485159 138.478053 
L 248.99518 133.619632 
L 250.505201 107.874621 
L 252.015222 114.360382 
L 253.525243 60.725577 
L 256.545285 134.120295 
L 258.055307 114.998339 
L 259.565328 109.756402 
L 261.075349 108.185154 
L 262.58537 136.056011 
L 264.095391 151.697671 
L 265.605412 131.917915 
L 267.115433 132.475779 
L 268.625455 128.303339 
L 270.135476 134.681163 
L 271.645497 68.187037 
L 273.155518 105.274977 
L 274.665539 124.450939 
L 276.17556 98.192597 
L 277.685581 87.13324 
L 279.195603 116.86945 
L 280.705624 114.413588 
L 282.215645 114.386506 
L 283.725666 114.617056 
L 285.235687 112.683405 
L 286.745708 110.990671 
L 288.255729 122.428714 
L 289.765751 135.487036 
L 291.275772 132.586435 
L 292.785793 115.91164 
L 294.295814 133.923557 
L 295.805835 119.231837 
L 297.315856 146.102931 
L 298.825877 100.840039 
L 300.335899 148.605094 
L 301.84592 157.260611 
L 303.355941 133.121589 
L 304.865962 130.622184 
L 306.375983 133.033936 
L 307.886004 114.326823 
L 309.396025 132.102896 
L 310.906047 142.38008 
L 312.416068 131.048591 
L 313.926089 118.006211 
L 315.43611 157.319143 
L 316.946131 160.771903 
L 318.456152 153.4536 
L 319.966173 147.490645 
L 321.476195 158.406767 
L 322.986216 153.180207 
L 324.496237 137.516224 
L 326.006258 155.548315 
L 327.516279 132.744045 
L 329.0263 155.552984 
L 330.536321 156.938624 
L 332.046342 163.936894 
L 333.556364 162.491378 
L 335.066385 153.893 
L 336.576406 128.999949 
L 338.086427 162.142693 
L 339.596448 159.153675 
L 341.106469 160.312783 
L 342.61649 159.325469 
L 344.126512 165.802403 
L 345.636533 167.791687 
L 347.146554 151.968138 
L 348.656575 150.048157 
L 350.166596 151.760782 
L 351.676617 140.006729 
L 353.186638 154.146306 
L 354.69666 147.935019 
L 356.206681 145.408761 
L 357.716702 153.636829 
L 359.226723 156.729974 
L 360.736744 145.285504 
L 362.246765 150.096007 
L 363.756786 155.69595 
L 365.266808 152.303155 
L 366.776829 154.779533 
L 368.28685 149.429419 
L 369.796871 143.526211 
L 371.306892 158.560652 
L 372.816913 158.359005 
L 374.326934 146.1224 
L 375.836956 154.264407 
L 377.346977 160.847855 
L 378.856998 140.119379 
L 380.367019 148.874365 
L 381.87704 159.291807 
L 383.387061 158.11225 
L 384.897082 161.667869 
L 386.407104 155.240209 
L 387.917125 155.261742 
L 389.427146 154.220521 
L 390.937167 155.54124 
L 392.447188 138.239147 
L 393.957209 141.212576 
L 395.46723 133.136532 
L 396.977252 126.518729 
L 398.487273 153.369754 
L 398.487273 153.369754 
" clip-path="url(#pad09268b4c)" style="fill: none; stroke: #f08080; stroke-opacity: 0.8; stroke-width: 0.5; stroke-linecap: square"/>
   </g>
   <g id="line2d_20">
    <path d="M 73.832727 190.624382 
L 75.342748 185.860872 
L 76.85277 181.757654 
L 78.362791 185.854089 
L 79.872812 176.376207 
L 81.382833 175.600186 
L 82.892854 175.155153 
L 84.402875 181.986436 
L 85.912896 179.620069 
L 87.422918 176.700545 
L 88.932939 176.834271 
L 90.44296 176.092303 
L 91.952981 171.356174 
L 93.463002 176.652229 
L 94.973023 174.818416 
L 96.483044 172.443819 
L 97.993066 174.742106 
L 99.503087 177.977005 
L 101.013108 172.29451 
L 102.523129 178.301903 
L 104.03315 173.055829 
L 105.543171 171.370139 
L 107.053192 172.145737 
L 108.563214 172.412004 
L 110.073235 170.859357 
L 111.583256 174.019855 
L 113.093277 170.408838 
L 114.603298 170.351039 
L 116.113319 169.881256 
L 117.62334 176.775727 
L 119.133362 177.350389 
L 120.643383 171.907395 
L 122.153404 174.24025 
L 123.663425 174.83134 
L 125.173446 172.957288 
L 126.683467 170.689511 
L 128.193488 170.29667 
L 129.70351 173.812445 
L 131.213531 172.742954 
L 132.723552 172.028417 
L 134.233573 170.410937 
L 135.743594 169.977201 
L 137.253615 180.108734 
L 138.763636 171.020583 
L 140.273658 172.144377 
L 141.783679 172.271828 
L 143.2937 182.041788 
L 144.803721 183.192909 
L 146.313742 177.771916 
L 147.823763 176.009455 
L 149.333784 175.476539 
L 150.843805 185.18861 
L 152.353827 178.586825 
L 153.863848 190.915754 
L 155.373869 176.248011 
L 156.88389 179.057361 
L 159.903932 177.213616 
L 161.413953 174.302964 
L 162.923975 171.998774 
L 164.433996 176.683562 
L 165.944017 175.270749 
L 167.454038 172.785075 
L 168.964059 187.608699 
L 170.47408 173.81073 
L 171.984101 172.469749 
L 173.494123 174.142088 
L 175.004144 172.93037 
L 176.514165 181.62917 
L 178.024186 174.774417 
L 179.534207 176.00739 
L 181.044228 179.445064 
L 182.554249 173.383059 
L 184.064271 177.530968 
L 185.574292 176.898135 
L 187.084313 174.139891 
L 188.594334 175.188636 
L 190.104355 185.426034 
L 191.614376 181.722619 
L 193.124397 176.577621 
L 194.634419 178.939198 
L 196.14444 183.299705 
L 197.654461 177.131057 
L 199.164482 175.465627 
L 200.674503 174.117974 
L 202.184524 180.351128 
L 203.694545 172.048893 
L 205.204567 174.931509 
L 206.714588 174.230225 
L 208.224609 170.17042 
L 209.73463 183.196214 
L 211.244651 176.408737 
L 212.754672 174.096232 
L 214.264693 173.409612 
L 215.774715 175.491708 
L 217.284736 175.042453 
L 218.794757 177.114219 
L 220.304778 172.177206 
L 221.814799 173.792282 
L 223.32482 180.354383 
L 224.834841 189.318371 
L 226.344863 175.842207 
L 227.854884 181.528805 
L 229.364905 186.027093 
L 230.874926 182.284233 
L 232.384947 195.919813 
L 233.894968 204.641059 
L 236.915011 258.593295 
L 238.425032 220.889748 
L 239.935053 272.85018 
L 241.445074 217.208728 
L 242.955095 251.181345 
L 244.465116 213.999396 
L 245.975137 210.365235 
L 247.485159 237.244639 
L 248.99518 224.317338 
L 250.505201 186.467881 
L 252.015222 260.912575 
L 253.525243 246.812328 
L 255.035264 295.488 
L 256.545285 198.270451 
L 258.055307 240.291981 
L 259.565328 209.121937 
L 261.075349 220.311302 
L 262.58537 192.662165 
L 264.095391 215.425976 
L 265.605412 196.509576 
L 267.115433 208.755651 
L 268.625455 212.406779 
L 270.135476 208.737054 
L 271.645497 191.965669 
L 273.155518 203.493885 
L 274.665539 234.539197 
L 276.17556 209.020788 
L 277.685581 224.802787 
L 279.195603 219.183171 
L 280.705624 220.699422 
L 282.215645 215.50987 
L 283.725666 218.113818 
L 285.235687 198.7525 
L 286.745708 207.632749 
L 288.255729 201.819905 
L 289.765751 192.087319 
L 291.275772 183.409913 
L 292.785793 217.55803 
L 294.295814 245.080394 
L 295.805835 197.572708 
L 297.315856 253.614947 
L 298.825877 216.792786 
L 300.335899 198.866051 
L 301.84592 199.823194 
L 303.355941 196.948099 
L 304.865962 196.651474 
L 306.375983 191.765871 
L 307.886004 199.371952 
L 309.396025 229.343081 
L 310.906047 189.026576 
L 312.416068 197.964393 
L 313.926089 203.223821 
L 315.43611 204.039245 
L 316.946131 183.474944 
L 318.456152 194.775309 
L 319.966173 194.359727 
L 321.476195 182.570331 
L 322.986216 181.694993 
L 324.496237 185.451327 
L 326.006258 179.839927 
L 327.516279 201.435003 
L 329.0263 185.370312 
L 330.536321 179.954927 
L 332.046342 173.860679 
L 333.556364 179.950595 
L 335.066385 184.478306 
L 336.576406 217.304667 
L 338.086427 176.31968 
L 339.596448 180.670954 
L 341.106469 177.723127 
L 342.61649 177.438394 
L 344.126512 172.332211 
L 345.636533 178.078179 
L 347.146554 187.709351 
L 348.656575 181.574459 
L 350.166596 180.859179 
L 351.676617 198.411194 
L 353.186638 176.611995 
L 354.69666 192.599186 
L 356.206681 202.439743 
L 357.716702 187.305125 
L 359.226723 187.236751 
L 360.736744 186.294101 
L 362.246765 182.973422 
L 363.756786 180.49456 
L 365.266808 176.725126 
L 366.776829 185.427633 
L 368.28685 192.683209 
L 369.796871 189.326931 
L 371.306892 176.951861 
L 372.816913 185.179652 
L 374.326934 174.625434 
L 375.836956 177.082325 
L 377.346977 177.324007 
L 378.856998 177.201592 
L 380.367019 193.995282 
L 381.87704 177.310488 
L 383.387061 181.036588 
L 384.897082 185.092027 
L 386.407104 176.660206 
L 387.917125 187.947981 
L 389.427146 214.802997 
L 390.937167 181.543954 
L 392.447188 212.64403 
L 393.957209 195.885036 
L 395.46723 191.217865 
L 396.977252 195.941953 
L 398.487273 183.374304 
L 398.487273 183.374304 
" clip-path="url(#pad09268b4c)" style="fill: none; stroke: #f08080; stroke-opacity: 0.8; stroke-width: 0.5; stroke-linecap: square"/>
   </g>
   <g id="patch_3">
    <path d="M 57.6 307.584 
L 57.6 41.472 
" style="fill: none; stroke: #000000; stroke-width: 0.8; stroke-linejoin: miter; stroke-linecap: square"/>
   </g>
   <g id="patch_4">
    <path d="M 414.72 307.584 
L 414.72 41.472 
" style="fill: none; stroke: #000000; stroke-width: 0.8; stroke-linejoin: miter; stroke-linecap: square"/>
   </g>
   <g id="patch_5">
    <path d="M 57.6 307.584 
L 414.72 307.584 
" style="fill: none; stroke: #000000; stroke-width: 0.8; stroke-linejoin: miter; stroke-linecap: square"/>
   </g>
   <g id="patch_6">
    <path d="M 57.6 41.472 
L 414.72 41.472 
" style="fill: none; stroke: #000000; stroke-width: 0.8; stroke-linejoin: miter; stroke-linecap: square"/>
   </g>
   <g id="text_15">
    <!-- zhang_extended_btcusd -->
    <g transform="translate(163.427813 35.472) scale(0.12 -0.12)">
     <defs>
      <path id="DejaVuSans-7a" d="M 353 3500 
L 3084 3500 
L 3084 2975 
L 922 459 
L 3084 459 
L 3084 0 
L 275 0 
L 275 525 
L 2438 3041 
L 353 3041 
L 353 3500 
z
" transform="scale(0.015625)"/>
      <path id="DejaVuSans-68" d="M 3513 2113 
L 3513 0 
L 2938 0 
L 2938 2094 
Q 2938 2591 2744 2837 
Q 2550 3084 2163 3084 
Q 1697 3084 1428 2787 
Q 1159 2491 1159 1978 
L 1159 0 
L 581 0 
L 581 4863 
L 1159 4863 
L 1159 2956 
Q 1366 3272 1645 3428 
Q 1925 3584 2291 3584 
Q 2894 3584 3203 3211 
Q 3513 2838 3513 2113 
z
" transform="scale(0.015625)"/>
      <path id="DejaVuSans-61" d="M 2194 1759 
Q 1497 1759 1228 1600 
Q 959 1441 959 1056 
Q 959 750 1161 570 
Q 1363 391 1709 391 
Q 2188 391 2477 730 
Q 2766 1069 2766 1631 
L 2766 1759 
L 2194 1759 
z
M 3341 1997 
L 3341 0 
L 2766 0 
L 2766 531 
Q 2569 213 2275 61 
Q 1981 -91 1556 -91 
Q 1019 -91 701 211 
Q 384 513 384 1019 
Q 384 1609 779 1909 
Q 1175 2209 1959 2209 
L 2766 2209 
L 2766 2266 
Q 2766 2663 2505 2880 
Q 2244 3097 1772 3097 
Q 1472 3097 1187 3025 
Q 903 2953 641 2809 
L 641 3341 
Q 956 3463 1253 3523 
Q 1550 3584 1831 3584 
Q 2591 3584 2966 3190 
Q 3341 2797 3341 1997 
z
" transform="scale(0.015625)"/>
      <path id="DejaVuSans-6e" d="M 3513 2113 
L 3513 0 
L 2938 0 
L 2938 2094 
Q 2938 2591 2744 2837 
Q 2550 3084 2163 3084 
Q 1697 3084 1428 2787 
Q 1159 2491 1159 1978 
L 1159 0 
L 581 0 
L 581 3500 
L 1159 3500 
L 1159 2956 
Q 1366 3272 1645 3428 
Q 1925 3584 2291 3584 
Q 2894 3584 3203 3211 
Q 3513 2838 3513 2113 
z
" transform="scale(0.015625)"/>
      <path id="DejaVuSans-67" d="M 2906 1791 
Q 2906 2416 2648 2759 
Q 2391 3103 1925 3103 
Q 1463 3103 1205 2759 
Q 947 2416 947 1791 
Q 947 1169 1205 825 
Q 1463 481 1925 481 
Q 2391 481 2648 825 
Q 2906 1169 2906 1791 
z
M 3481 434 
Q 3481 -459 3084 -895 
Q 2688 -1331 1869 -1331 
Q 1566 -1331 1297 -1286 
Q 1028 -1241 775 -1147 
L 775 -588 
Q 1028 -725 1275 -790 
Q 1522 -856 1778 -856 
Q 2344 -856 2625 -561 
Q 2906 -266 2906 331 
L 2906 616 
Q 2728 306 2450 153 
Q 2172 0 1784 0 
Q 1141 0 747 490 
Q 353 981 353 1791 
Q 353 2603 747 3093 
Q 1141 3584 1784 3584 
Q 2172 3584 2450 3431 
Q 2728 3278 2906 2969 
L 2906 3500 
L 3481 3500 
L 3481 434 
z
" transform="scale(0.015625)"/>
      <path id="DejaVuSans-5f" d="M 3263 -1063 
L 3263 -1509 
L -63 -1509 
L -63 -1063 
L 3263 -1063 
z
" transform="scale(0.015625)"/>
      <path id="DejaVuSans-65" d="M 3597 1894 
L 3597 1613 
L 953 1613 
Q 991 1019 1311 708 
Q 1631 397 2203 397 
Q 2534 397 2845 478 
Q 3156 559 3463 722 
L 3463 178 
Q 3153 47 2828 -22 
Q 2503 -91 2169 -91 
Q 1331 -91 842 396 
Q 353 884 353 1716 
Q 353 2575 817 3079 
Q 1281 3584 2069 3584 
Q 2775 3584 3186 3129 
Q 3597 2675 3597 1894 
z
M 3022 2063 
Q 3016 2534 2758 2815 
Q 2500 3097 2075 3097 
Q 1594 3097 1305 2825 
Q 1016 2553 972 2059 
L 3022 2063 
z
" transform="scale(0.015625)"/>
      <path id="DejaVuSans-78" d="M 3513 3500 
L 2247 1797 
L 3578 0 
L 2900 0 
L 1881 1375 
L 863 0 
L 184 0 
L 1544 1831 
L 300 3500 
L 978 3500 
L 1906 2253 
L 2834 3500 
L 3513 3500 
z
" transform="scale(0.015625)"/>
      <path id="DejaVuSans-74" d="M 1172 4494 
L 1172 3500 
L 2356 3500 
L 2356 3053 
L 1172 3053 
L 1172 1153 
Q 1172 725 1289 603 
Q 1406 481 1766 481 
L 2356 481 
L 2356 0 
L 1766 0 
Q 1100 0 847 248 
Q 594 497 594 1153 
L 594 3053 
L 172 3053 
L 172 3500 
L 594 3500 
L 594 4494 
L 1172 4494 
z
" transform="scale(0.015625)"/>
      <path id="DejaVuSans-64" d="M 2906 2969 
L 2906 4863 
L 3481 4863 
L 3481 0 
L 2906 0 
L 2906 525 
Q 2725 213 2448 61 
Q 2172 -91 1784 -91 
Q 1150 -91 751 415 
Q 353 922 353 1747 
Q 353 2572 751 3078 
Q 1150 3584 1784 3584 
Q 2172 3584 2448 3432 
Q 2725 3281 2906 2969 
z
M 947 1747 
Q 947 1113 1208 752 
Q 1469 391 1925 391 
Q 2381 391 2643 752 
Q 2906 1113 2906 1747 
Q 2906 2381 2643 2742 
Q 2381 3103 1925 3103 
Q 1469 3103 1208 2742 
Q 947 2381 947 1747 
z
" transform="scale(0.015625)"/>
      <path id="DejaVuSans-62" d="M 3116 1747 
Q 3116 2381 2855 2742 
Q 2594 3103 2138 3103 
Q 1681 3103 1420 2742 
Q 1159 2381 1159 1747 
Q 1159 1113 1420 752 
Q 1681 391 2138 391 
Q 2594 391 2855 752 
Q 3116 1113 3116 1747 
z
M 1159 2969 
Q 1341 3281 1617 3432 
Q 1894 3584 2278 3584 
Q 2916 3584 3314 3078 
Q 3713 2572 3713 1747 
Q 3713 922 3314 415 
Q 2916 -91 2278 -91 
Q 1894 -91 1617 61 
Q 1341 213 1159 525 
L 1159 0 
L 581 0 
L 581 4863 
L 1159 4863 
L 1159 2969 
z
" transform="scale(0.015625)"/>
      <path id="DejaVuSans-63" d="M 3122 3366 
L 3122 2828 
Q 2878 2963 2633 3030 
Q 2388 3097 2138 3097 
Q 1578 3097 1268 2742 
Q 959 2388 959 1747 
Q 959 1106 1268 751 
Q 1578 397 2138 397 
Q 2388 397 2633 464 
Q 2878 531 3122 666 
L 3122 134 
Q 2881 22 2623 -34 
Q 2366 -91 2075 -91 
Q 1284 -91 818 406 
Q 353 903 353 1747 
Q 353 2603 823 3093 
Q 1294 3584 2113 3584 
Q 2378 3584 2631 3529 
Q 2884 3475 3122 3366 
z
" transform="scale(0.015625)"/>
      <path id="DejaVuSans-75" d="M 544 1381 
L 544 3500 
L 1119 3500 
L 1119 1403 
Q 1119 906 1312 657 
Q 1506 409 1894 409 
Q 2359 409 2629 706 
Q 2900 1003 2900 1516 
L 2900 3500 
L 3475 3500 
L 3475 0 
L 2900 0 
L 2900 538 
Q 2691 219 2414 64 
Q 2138 -91 1772 -91 
Q 1169 -91 856 284 
Q 544 659 544 1381 
z
M 1991 3584 
L 1991 3584 
z
" transform="scale(0.015625)"/>
      <path id="DejaVuSans-73" d="M 2834 3397 
L 2834 2853 
Q 2591 2978 2328 3040 
Q 2066 3103 1784 3103 
Q 1356 3103 1142 2972 
Q 928 2841 928 2578 
Q 928 2378 1081 2264 
Q 1234 2150 1697 2047 
L 1894 2003 
Q 2506 1872 2764 1633 
Q 3022 1394 3022 966 
Q 3022 478 2636 193 
Q 2250 -91 1575 -91 
Q 1294 -91 989 -36 
Q 684 19 347 128 
L 347 722 
Q 666 556 975 473 
Q 1284 391 1588 391 
Q 1994 391 2212 530 
Q 2431 669 2431 922 
Q 2431 1156 2273 1281 
Q 2116 1406 1581 1522 
L 1381 1569 
Q 847 1681 609 1914 
Q 372 2147 372 2553 
Q 372 3047 722 3315 
Q 1072 3584 1716 3584 
Q 2034 3584 2315 3537 
Q 2597 3491 2834 3397 
z
" transform="scale(0.015625)"/>
     </defs>
     <use xlink:href="#DejaVuSans-7a"/>
     <use xlink:href="#DejaVuSans-68" x="52.490234"/>
     <use xlink:href="#DejaVuSans-61" x="115.869141"/>
     <use xlink:href="#DejaVuSans-6e" x="177.148438"/>
     <use xlink:href="#DejaVuSans-67" x="240.527344"/>
     <use xlink:href="#DejaVuSans-5f" x="304.003906"/>
     <use xlink:href="#DejaVuSans-65" x="354.003906"/>
     <use xlink:href="#DejaVuSans-78" x="413.777344"/>
     <use xlink:href="#DejaVuSans-74" x="472.957031"/>
     <use xlink:href="#DejaVuSans-65" x="512.166016"/>
     <use xlink:href="#DejaVuSans-6e" x="573.689453"/>
     <use xlink:href="#DejaVuSans-64" x="637.068359"/>
     <use xlink:href="#DejaVuSans-65" x="700.544922"/>
     <use xlink:href="#DejaVuSans-64" x="762.068359"/>
     <use xlink:href="#DejaVuSans-5f" x="825.544922"/>
     <use xlink:href="#DejaVuSans-62" x="875.544922"/>
     <use xlink:href="#DejaVuSans-74" x="939.021484"/>
     <use xlink:href="#DejaVuSans-63" x="978.230469"/>
     <use xlink:href="#DejaVuSans-75" x="1033.210938"/>
     <use xlink:href="#DejaVuSans-73" x="1096.589844"/>
     <use xlink:href="#DejaVuSans-64" x="1148.689453"/>
    </g>
   </g>
   <g id="legend_1">
    <g id="patch_7">
     <path d="M 64.6 302.584 
L 225.001563 302.584 
Q 227.001563 302.584 227.001563 300.584 
L 227.001563 213.51525 
Q 227.001563 211.51525 225.001563 211.51525 
L 64.6 211.51525 
Q 62.6 211.51525 62.6 213.51525 
L 62.6 300.584 
Q 62.6 302.584 64.6 302.584 
z
" style="fill: #ffffff; opacity: 0.8; stroke: #cccccc; stroke-linejoin: miter"/>
    </g>
    <g id="line2d_21">
     <path d="M 66.6 219.613687 
L 76.6 219.613687 
L 86.6 219.613687 
" style="fill: none; stroke: #008000; stroke-opacity: 0.8; stroke-width: 0.5; stroke-linecap: square"/>
    </g>
    <g id="text_16">
     <!-- Positive predictions -->
     <g transform="translate(94.6 223.113687) scale(0.1 -0.1)">
      <defs>
       <path id="DejaVuSans-50" d="M 1259 4147 
L 1259 2394 
L 2053 2394 
Q 2494 2394 2734 2622 
Q 2975 2850 2975 3272 
Q 2975 3691 2734 3919 
Q 2494 4147 2053 4147 
L 1259 4147 
z
M 628 4666 
L 2053 4666 
Q 2838 4666 3239 4311 
Q 3641 3956 3641 3272 
Q 3641 2581 3239 2228 
Q 2838 1875 2053 1875 
L 1259 1875 
L 1259 0 
L 628 0 
L 628 4666 
z
" transform="scale(0.015625)"/>
       <path id="DejaVuSans-6f" d="M 1959 3097 
Q 1497 3097 1228 2736 
Q 959 2375 959 1747 
Q 959 1119 1226 758 
Q 1494 397 1959 397 
Q 2419 397 2687 759 
Q 2956 1122 2956 1747 
Q 2956 2369 2687 2733 
Q 2419 3097 1959 3097 
z
M 1959 3584 
Q 2709 3584 3137 3096 
Q 3566 2609 3566 1747 
Q 3566 888 3137 398 
Q 2709 -91 1959 -91 
Q 1206 -91 779 398 
Q 353 888 353 1747 
Q 353 2609 779 3096 
Q 1206 3584 1959 3584 
z
" transform="scale(0.015625)"/>
       <path id="DejaVuSans-69" d="M 603 3500 
L 1178 3500 
L 1178 0 
L 603 0 
L 603 3500 
z
M 603 4863 
L 1178 4863 
L 1178 4134 
L 603 4134 
L 603 4863 
z
" transform="scale(0.015625)"/>
       <path id="DejaVuSans-76" d="M 191 3500 
L 800 3500 
L 1894 563 
L 2988 3500 
L 3597 3500 
L 2284 0 
L 1503 0 
L 191 3500 
z
" transform="scale(0.015625)"/>
       <path id="DejaVuSans-20" transform="scale(0.015625)"/>
       <path id="DejaVuSans-70" d="M 1159 525 
L 1159 -1331 
L 581 -1331 
L 581 3500 
L 1159 3500 
L 1159 2969 
Q 1341 3281 1617 3432 
Q 1894 3584 2278 3584 
Q 2916 3584 3314 3078 
Q 3713 2572 3713 1747 
Q 3713 922 3314 415 
Q 2916 -91 2278 -91 
Q 1894 -91 1617 61 
Q 1341 213 1159 525 
z
M 3116 1747 
Q 3116 2381 2855 2742 
Q 2594 3103 2138 3103 
Q 1681 3103 1420 2742 
Q 1159 2381 1159 1747 
Q 1159 1113 1420 752 
Q 1681 391 2138 391 
Q 2594 391 2855 752 
Q 3116 1113 3116 1747 
z
" transform="scale(0.015625)"/>
       <path id="DejaVuSans-72" d="M 2631 2963 
Q 2534 3019 2420 3045 
Q 2306 3072 2169 3072 
Q 1681 3072 1420 2755 
Q 1159 2438 1159 1844 
L 1159 0 
L 581 0 
L 581 3500 
L 1159 3500 
L 1159 2956 
Q 1341 3275 1631 3429 
Q 1922 3584 2338 3584 
Q 2397 3584 2469 3576 
Q 2541 3569 2628 3553 
L 2631 2963 
z
" transform="scale(0.015625)"/>
      </defs>
      <use xlink:href="#DejaVuSans-50"/>
      <use xlink:href="#DejaVuSans-6f" x="56.677734"/>
      <use xlink:href="#DejaVuSans-73" x="117.859375"/>
      <use xlink:href="#DejaVuSans-69" x="169.958984"/>
      <use xlink:href="#DejaVuSans-74" x="197.742188"/>
      <use xlink:href="#DejaVuSans-69" x="236.951172"/>
      <use xlink:href="#DejaVuSans-76" x="264.734375"/>
      <use xlink:href="#DejaVuSans-65" x="323.914062"/>
      <use xlink:href="#DejaVuSans-20" x="385.4375"/>
      <use xlink:href="#DejaVuSans-70" x="417.224609"/>
      <use xlink:href="#DejaVuSans-72" x="480.701172"/>
      <use xlink:href="#DejaVuSans-65" x="519.564453"/>
      <use xlink:href="#DejaVuSans-64" x="581.087891"/>
      <use xlink:href="#DejaVuSans-69" x="644.564453"/>
      <use xlink:href="#DejaVuSans-63" x="672.347656"/>
      <use xlink:href="#DejaVuSans-74" x="727.328125"/>
      <use xlink:href="#DejaVuSans-69" x="766.537109"/>
      <use xlink:href="#DejaVuSans-6f" x="794.320312"/>
      <use xlink:href="#DejaVuSans-6e" x="855.501953"/>
      <use xlink:href="#DejaVuSans-73" x="918.880859"/>
     </g>
    </g>
    <g id="line2d_22">
     <path d="M 66.6 234.291812 
L 76.6 234.291812 
L 86.6 234.291812 
" style="fill: none; stroke: #32cd32; stroke-opacity: 0.8; stroke-width: 0.5; stroke-linecap: square"/>
    </g>
    <g id="text_17">
     <!-- Positive predictions max -->
     <g transform="translate(94.6 237.791812) scale(0.1 -0.1)">
      <defs>
       <path id="DejaVuSans-6d" d="M 3328 2828 
Q 3544 3216 3844 3400 
Q 4144 3584 4550 3584 
Q 5097 3584 5394 3201 
Q 5691 2819 5691 2113 
L 5691 0 
L 5113 0 
L 5113 2094 
Q 5113 2597 4934 2840 
Q 4756 3084 4391 3084 
Q 3944 3084 3684 2787 
Q 3425 2491 3425 1978 
L 3425 0 
L 2847 0 
L 2847 2094 
Q 2847 2600 2669 2842 
Q 2491 3084 2119 3084 
Q 1678 3084 1418 2786 
Q 1159 2488 1159 1978 
L 1159 0 
L 581 0 
L 581 3500 
L 1159 3500 
L 1159 2956 
Q 1356 3278 1631 3431 
Q 1906 3584 2284 3584 
Q 2666 3584 2933 3390 
Q 3200 3197 3328 2828 
z
" transform="scale(0.015625)"/>
      </defs>
      <use xlink:href="#DejaVuSans-50"/>
      <use xlink:href="#DejaVuSans-6f" x="56.677734"/>
      <use xlink:href="#DejaVuSans-73" x="117.859375"/>
      <use xlink:href="#DejaVuSans-69" x="169.958984"/>
      <use xlink:href="#DejaVuSans-74" x="197.742188"/>
      <use xlink:href="#DejaVuSans-69" x="236.951172"/>
      <use xlink:href="#DejaVuSans-76" x="264.734375"/>
      <use xlink:href="#DejaVuSans-65" x="323.914062"/>
      <use xlink:href="#DejaVuSans-20" x="385.4375"/>
      <use xlink:href="#DejaVuSans-70" x="417.224609"/>
      <use xlink:href="#DejaVuSans-72" x="480.701172"/>
      <use xlink:href="#DejaVuSans-65" x="519.564453"/>
      <use xlink:href="#DejaVuSans-64" x="581.087891"/>
      <use xlink:href="#DejaVuSans-69" x="644.564453"/>
      <use xlink:href="#DejaVuSans-63" x="672.347656"/>
      <use xlink:href="#DejaVuSans-74" x="727.328125"/>
      <use xlink:href="#DejaVuSans-69" x="766.537109"/>
      <use xlink:href="#DejaVuSans-6f" x="794.320312"/>
      <use xlink:href="#DejaVuSans-6e" x="855.501953"/>
      <use xlink:href="#DejaVuSans-73" x="918.880859"/>
      <use xlink:href="#DejaVuSans-20" x="970.980469"/>
      <use xlink:href="#DejaVuSans-6d" x="1002.767578"/>
      <use xlink:href="#DejaVuSans-61" x="1100.179688"/>
      <use xlink:href="#DejaVuSans-78" x="1161.458984"/>
     </g>
    </g>
    <g id="line2d_23">
     <path d="M 66.6 248.969937 
L 76.6 248.969937 
L 86.6 248.969937 
" style="fill: none; stroke: #32cd32; stroke-opacity: 0.8; stroke-width: 0.5; stroke-linecap: square"/>
    </g>
    <g id="text_18">
     <!-- Positive predictions min -->
     <g transform="translate(94.6 252.469937) scale(0.1 -0.1)">
      <use xlink:href="#DejaVuSans-50"/>
      <use xlink:href="#DejaVuSans-6f" x="56.677734"/>
      <use xlink:href="#DejaVuSans-73" x="117.859375"/>
      <use xlink:href="#DejaVuSans-69" x="169.958984"/>
      <use xlink:href="#DejaVuSans-74" x="197.742188"/>
      <use xlink:href="#DejaVuSans-69" x="236.951172"/>
      <use xlink:href="#DejaVuSans-76" x="264.734375"/>
      <use xlink:href="#DejaVuSans-65" x="323.914062"/>
      <use xlink:href="#DejaVuSans-20" x="385.4375"/>
      <use xlink:href="#DejaVuSans-70" x="417.224609"/>
      <use xlink:href="#DejaVuSans-72" x="480.701172"/>
      <use xlink:href="#DejaVuSans-65" x="519.564453"/>
      <use xlink:href="#DejaVuSans-64" x="581.087891"/>
      <use xlink:href="#DejaVuSans-69" x="644.564453"/>
      <use xlink:href="#DejaVuSans-63" x="672.347656"/>
      <use xlink:href="#DejaVuSans-74" x="727.328125"/>
      <use xlink:href="#DejaVuSans-69" x="766.537109"/>
      <use xlink:href="#DejaVuSans-6f" x="794.320312"/>
      <use xlink:href="#DejaVuSans-6e" x="855.501953"/>
      <use xlink:href="#DejaVuSans-73" x="918.880859"/>
      <use xlink:href="#DejaVuSans-20" x="970.980469"/>
      <use xlink:href="#DejaVuSans-6d" x="1002.767578"/>
      <use xlink:href="#DejaVuSans-69" x="1100.179688"/>
      <use xlink:href="#DejaVuSans-6e" x="1127.962891"/>
     </g>
    </g>
    <g id="line2d_24">
     <path d="M 66.6 263.648062 
L 76.6 263.648062 
L 86.6 263.648062 
" style="fill: none; stroke: #ff0000; stroke-opacity: 0.8; stroke-width: 0.5; stroke-linecap: square"/>
    </g>
    <g id="text_19">
     <!-- Negative predictions -->
     <g transform="translate(94.6 267.148062) scale(0.1 -0.1)">
      <defs>
       <path id="DejaVuSans-4e" d="M 628 4666 
L 1478 4666 
L 3547 763 
L 3547 4666 
L 4159 4666 
L 4159 0 
L 3309 0 
L 1241 3903 
L 1241 0 
L 628 0 
L 628 4666 
z
" transform="scale(0.015625)"/>
      </defs>
      <use xlink:href="#DejaVuSans-4e"/>
      <use xlink:href="#DejaVuSans-65" x="74.804688"/>
      <use xlink:href="#DejaVuSans-67" x="136.328125"/>
      <use xlink:href="#DejaVuSans-61" x="199.804688"/>
      <use xlink:href="#DejaVuSans-74" x="261.083984"/>
      <use xlink:href="#DejaVuSans-69" x="300.292969"/>
      <use xlink:href="#DejaVuSans-76" x="328.076172"/>
      <use xlink:href="#DejaVuSans-65" x="387.255859"/>
      <use xlink:href="#DejaVuSans-20" x="448.779297"/>
      <use xlink:href="#DejaVuSans-70" x="480.566406"/>
      <use xlink:href="#DejaVuSans-72" x="544.042969"/>
      <use xlink:href="#DejaVuSans-65" x="582.90625"/>
      <use xlink:href="#DejaVuSans-64" x="644.429688"/>
      <use xlink:href="#DejaVuSans-69" x="707.90625"/>
      <use xlink:href="#DejaVuSans-63" x="735.689453"/>
      <use xlink:href="#DejaVuSans-74" x="790.669922"/>
      <use xlink:href="#DejaVuSans-69" x="829.878906"/>
      <use xlink:href="#DejaVuSans-6f" x="857.662109"/>
      <use xlink:href="#DejaVuSans-6e" x="918.84375"/>
      <use xlink:href="#DejaVuSans-73" x="982.222656"/>
     </g>
    </g>
    <g id="line2d_25">
     <path d="M 66.6 278.326188 
L 76.6 278.326188 
L 86.6 278.326188 
" style="fill: none; stroke: #f08080; stroke-opacity: 0.8; stroke-width: 0.5; stroke-linecap: square"/>
    </g>
    <g id="text_20">
     <!-- Negative predictions max -->
     <g transform="translate(94.6 281.826188) scale(0.1 -0.1)">
      <use xlink:href="#DejaVuSans-4e"/>
      <use xlink:href="#DejaVuSans-65" x="74.804688"/>
      <use xlink:href="#DejaVuSans-67" x="136.328125"/>
      <use xlink:href="#DejaVuSans-61" x="199.804688"/>
      <use xlink:href="#DejaVuSans-74" x="261.083984"/>
      <use xlink:href="#DejaVuSans-69" x="300.292969"/>
      <use xlink:href="#DejaVuSans-76" x="328.076172"/>
      <use xlink:href="#DejaVuSans-65" x="387.255859"/>
      <use xlink:href="#DejaVuSans-20" x="448.779297"/>
      <use xlink:href="#DejaVuSans-70" x="480.566406"/>
      <use xlink:href="#DejaVuSans-72" x="544.042969"/>
      <use xlink:href="#DejaVuSans-65" x="582.90625"/>
      <use xlink:href="#DejaVuSans-64" x="644.429688"/>
      <use xlink:href="#DejaVuSans-69" x="707.90625"/>
      <use xlink:href="#DejaVuSans-63" x="735.689453"/>
      <use xlink:href="#DejaVuSans-74" x="790.669922"/>
      <use xlink:href="#DejaVuSans-69" x="829.878906"/>
      <use xlink:href="#DejaVuSans-6f" x="857.662109"/>
      <use xlink:href="#DejaVuSans-6e" x="918.84375"/>
      <use xlink:href="#DejaVuSans-73" x="982.222656"/>
      <use xlink:href="#DejaVuSans-20" x="1034.322266"/>
      <use xlink:href="#DejaVuSans-6d" x="1066.109375"/>
      <use xlink:href="#DejaVuSans-61" x="1163.521484"/>
      <use xlink:href="#DejaVuSans-78" x="1224.800781"/>
     </g>
    </g>
    <g id="line2d_26">
     <path d="M 66.6 293.004312 
L 76.6 293.004312 
L 86.6 293.004312 
" style="fill: none; stroke: #f08080; stroke-opacity: 0.8; stroke-width: 0.5; stroke-linecap: square"/>
    </g>
    <g id="text_21">
     <!-- Negative predictions min -->
     <g transform="translate(94.6 296.504312) scale(0.1 -0.1)">
      <use xlink:href="#DejaVuSans-4e"/>
      <use xlink:href="#DejaVuSans-65" x="74.804688"/>
      <use xlink:href="#DejaVuSans-67" x="136.328125"/>
      <use xlink:href="#DejaVuSans-61" x="199.804688"/>
      <use xlink:href="#DejaVuSans-74" x="261.083984"/>
      <use xlink:href="#DejaVuSans-69" x="300.292969"/>
      <use xlink:href="#DejaVuSans-76" x="328.076172"/>
      <use xlink:href="#DejaVuSans-65" x="387.255859"/>
      <use xlink:href="#DejaVuSans-20" x="448.779297"/>
      <use xlink:href="#DejaVuSans-70" x="480.566406"/>
      <use xlink:href="#DejaVuSans-72" x="544.042969"/>
      <use xlink:href="#DejaVuSans-65" x="582.90625"/>
      <use xlink:href="#DejaVuSans-64" x="644.429688"/>
      <use xlink:href="#DejaVuSans-69" x="707.90625"/>
      <use xlink:href="#DejaVuSans-63" x="735.689453"/>
      <use xlink:href="#DejaVuSans-74" x="790.669922"/>
      <use xlink:href="#DejaVuSans-69" x="829.878906"/>
      <use xlink:href="#DejaVuSans-6f" x="857.662109"/>
      <use xlink:href="#DejaVuSans-6e" x="918.84375"/>
      <use xlink:href="#DejaVuSans-73" x="982.222656"/>
      <use xlink:href="#DejaVuSans-20" x="1034.322266"/>
      <use xlink:href="#DejaVuSans-6d" x="1066.109375"/>
      <use xlink:href="#DejaVuSans-69" x="1163.521484"/>
      <use xlink:href="#DejaVuSans-6e" x="1191.304688"/>
     </g>
    </g>
   </g>
  </g>
 </g>
 <defs>
  <clipPath id="pad09268b4c">
   <rect x="57.6" y="41.472" width="357.12" height="266.112"/>
  </clipPath>
 </defs>
</svg>
