<?xml version="1.0" encoding="utf-8" standalone="no"?>
<!DOCTYPE svg PUBLIC "-//W3C//DTD SVG 1.1//EN"
  "http://www.w3.org/Graphics/SVG/1.1/DTD/svg11.dtd">
<svg xmlns:xlink="http://www.w3.org/1999/xlink" width="460.8pt" height="345.6pt" viewBox="0 0 460.8 345.6" xmlns="http://www.w3.org/2000/svg" version="1.1">
 <metadata>
  <rdf:RDF xmlns:dc="http://purl.org/dc/elements/1.1/" xmlns:cc="http://creativecommons.org/ns#" xmlns:rdf="http://www.w3.org/1999/02/22-rdf-syntax-ns#">
   <cc:Work>
    <dc:type rdf:resource="http://purl.org/dc/dcmitype/StillImage"/>
    <dc:date>2024-07-09T09:34:23.181957</dc:date>
    <dc:format>image/svg+xml</dc:format>
    <dc:creator>
     <cc:Agent>
      <dc:title>Matplotlib v3.9.0, https://matplotlib.org/</dc:title>
     </cc:Agent>
    </dc:creator>
   </cc:Work>
  </rdf:RDF>
 </metadata>
 <defs>
  <style type="text/css">*{stroke-linejoin: round; stroke-linecap: butt}</style>
 </defs>
 <g id="figure_1">
  <g id="patch_1">
   <path d="M 0 345.6 
L 460.8 345.6 
L 460.8 0 
L 0 0 
z
" style="fill: #ffffff"/>
  </g>
  <g id="axes_1">
   <g id="patch_2">
    <path d="M 57.6 307.584 
L 414.72 307.584 
L 414.72 41.472 
L 57.6 41.472 
z
" style="fill: #ffffff"/>
   </g>
   <g id="matplotlib.axis_1">
    <g id="xtick_1">
     <g id="line2d_1">
      <defs>
       <path id="m37b8bcec9b" d="M 0 0 
L 0 3.5 
" style="stroke: #000000; stroke-width: 0.8"/>
      </defs>
      <g>
       <use xlink:href="#m37b8bcec9b" x="73.832727" y="307.584" style="stroke: #000000; stroke-width: 0.8"/>
      </g>
     </g>
     <g id="text_1">
      <!-- 0 -->
      <g transform="translate(70.651477 322.182437) scale(0.1 -0.1)">
       <defs>
        <path id="DejaVuSans-30" d="M 2034 4250 
Q 1547 4250 1301 3770 
Q 1056 3291 1056 2328 
Q 1056 1369 1301 889 
Q 1547 409 2034 409 
Q 2525 409 2770 889 
Q 3016 1369 3016 2328 
Q 3016 3291 2770 3770 
Q 2525 4250 2034 4250 
z
M 2034 4750 
Q 2819 4750 3233 4129 
Q 3647 3509 3647 2328 
Q 3647 1150 3233 529 
Q 2819 -91 2034 -91 
Q 1250 -91 836 529 
Q 422 1150 422 2328 
Q 422 3509 836 4129 
Q 1250 4750 2034 4750 
z
" transform="scale(0.015625)"/>
       </defs>
       <use xlink:href="#DejaVuSans-30"/>
      </g>
     </g>
    </g>
    <g id="xtick_2">
     <g id="line2d_2">
      <g>
       <use xlink:href="#m37b8bcec9b" x="149.333784" y="307.584" style="stroke: #000000; stroke-width: 0.8"/>
      </g>
     </g>
     <g id="text_2">
      <!-- 50 -->
      <g transform="translate(142.971284 322.182437) scale(0.1 -0.1)">
       <defs>
        <path id="DejaVuSans-35" d="M 691 4666 
L 3169 4666 
L 3169 4134 
L 1269 4134 
L 1269 2991 
Q 1406 3038 1543 3061 
Q 1681 3084 1819 3084 
Q 2600 3084 3056 2656 
Q 3513 2228 3513 1497 
Q 3513 744 3044 326 
Q 2575 -91 1722 -91 
Q 1428 -91 1123 -41 
Q 819 9 494 109 
L 494 744 
Q 775 591 1075 516 
Q 1375 441 1709 441 
Q 2250 441 2565 725 
Q 2881 1009 2881 1497 
Q 2881 1984 2565 2268 
Q 2250 2553 1709 2553 
Q 1456 2553 1204 2497 
Q 953 2441 691 2322 
L 691 4666 
z
" transform="scale(0.015625)"/>
       </defs>
       <use xlink:href="#DejaVuSans-35"/>
       <use xlink:href="#DejaVuSans-30" x="63.623047"/>
      </g>
     </g>
    </g>
    <g id="xtick_3">
     <g id="line2d_3">
      <g>
       <use xlink:href="#m37b8bcec9b" x="224.834841" y="307.584" style="stroke: #000000; stroke-width: 0.8"/>
      </g>
     </g>
     <g id="text_3">
      <!-- 100 -->
      <g transform="translate(215.291091 322.182437) scale(0.1 -0.1)">
       <defs>
        <path id="DejaVuSans-31" d="M 794 531 
L 1825 531 
L 1825 4091 
L 703 3866 
L 703 4441 
L 1819 4666 
L 2450 4666 
L 2450 531 
L 3481 531 
L 3481 0 
L 794 0 
L 794 531 
z
" transform="scale(0.015625)"/>
       </defs>
       <use xlink:href="#DejaVuSans-31"/>
       <use xlink:href="#DejaVuSans-30" x="63.623047"/>
       <use xlink:href="#DejaVuSans-30" x="127.246094"/>
      </g>
     </g>
    </g>
    <g id="xtick_4">
     <g id="line2d_4">
      <g>
       <use xlink:href="#m37b8bcec9b" x="300.335899" y="307.584" style="stroke: #000000; stroke-width: 0.8"/>
      </g>
     </g>
     <g id="text_4">
      <!-- 150 -->
      <g transform="translate(290.792149 322.182437) scale(0.1 -0.1)">
       <use xlink:href="#DejaVuSans-31"/>
       <use xlink:href="#DejaVuSans-35" x="63.623047"/>
       <use xlink:href="#DejaVuSans-30" x="127.246094"/>
      </g>
     </g>
    </g>
    <g id="xtick_5">
     <g id="line2d_5">
      <g>
       <use xlink:href="#m37b8bcec9b" x="375.836956" y="307.584" style="stroke: #000000; stroke-width: 0.8"/>
      </g>
     </g>
     <g id="text_5">
      <!-- 200 -->
      <g transform="translate(366.293206 322.182437) scale(0.1 -0.1)">
       <defs>
        <path id="DejaVuSans-32" d="M 1228 531 
L 3431 531 
L 3431 0 
L 469 0 
L 469 531 
Q 828 903 1448 1529 
Q 2069 2156 2228 2338 
Q 2531 2678 2651 2914 
Q 2772 3150 2772 3378 
Q 2772 3750 2511 3984 
Q 2250 4219 1831 4219 
Q 1534 4219 1204 4116 
Q 875 4013 500 3803 
L 500 4441 
Q 881 4594 1212 4672 
Q 1544 4750 1819 4750 
Q 2544 4750 2975 4387 
Q 3406 4025 3406 3419 
Q 3406 3131 3298 2873 
Q 3191 2616 2906 2266 
Q 2828 2175 2409 1742 
Q 1991 1309 1228 531 
z
" transform="scale(0.015625)"/>
       </defs>
       <use xlink:href="#DejaVuSans-32"/>
       <use xlink:href="#DejaVuSans-30" x="63.623047"/>
       <use xlink:href="#DejaVuSans-30" x="127.246094"/>
      </g>
     </g>
    </g>
   </g>
   <g id="matplotlib.axis_2">
    <g id="ytick_1">
     <g id="line2d_6">
      <defs>
       <path id="m7b3af5f1d3" d="M 0 0 
L -3.5 0 
" style="stroke: #000000; stroke-width: 0.8"/>
      </defs>
      <g>
       <use xlink:href="#m7b3af5f1d3" x="57.6" y="305.836021" style="stroke: #000000; stroke-width: 0.8"/>
      </g>
     </g>
     <g id="text_6">
      <!-- −1000 -->
      <g transform="translate(16.770313 309.63524) scale(0.1 -0.1)">
       <defs>
        <path id="DejaVuSans-2212" d="M 678 2272 
L 4684 2272 
L 4684 1741 
L 678 1741 
L 678 2272 
z
" transform="scale(0.015625)"/>
       </defs>
       <use xlink:href="#DejaVuSans-2212"/>
       <use xlink:href="#DejaVuSans-31" x="83.789062"/>
       <use xlink:href="#DejaVuSans-30" x="147.412109"/>
       <use xlink:href="#DejaVuSans-30" x="211.035156"/>
       <use xlink:href="#DejaVuSans-30" x="274.658203"/>
      </g>
     </g>
    </g>
    <g id="ytick_2">
     <g id="line2d_7">
      <g>
       <use xlink:href="#m7b3af5f1d3" x="57.6" y="262.554794" style="stroke: #000000; stroke-width: 0.8"/>
      </g>
     </g>
     <g id="text_7">
      <!-- −800 -->
      <g transform="translate(23.132812 266.354012) scale(0.1 -0.1)">
       <defs>
        <path id="DejaVuSans-38" d="M 2034 2216 
Q 1584 2216 1326 1975 
Q 1069 1734 1069 1313 
Q 1069 891 1326 650 
Q 1584 409 2034 409 
Q 2484 409 2743 651 
Q 3003 894 3003 1313 
Q 3003 1734 2745 1975 
Q 2488 2216 2034 2216 
z
M 1403 2484 
Q 997 2584 770 2862 
Q 544 3141 544 3541 
Q 544 4100 942 4425 
Q 1341 4750 2034 4750 
Q 2731 4750 3128 4425 
Q 3525 4100 3525 3541 
Q 3525 3141 3298 2862 
Q 3072 2584 2669 2484 
Q 3125 2378 3379 2068 
Q 3634 1759 3634 1313 
Q 3634 634 3220 271 
Q 2806 -91 2034 -91 
Q 1263 -91 848 271 
Q 434 634 434 1313 
Q 434 1759 690 2068 
Q 947 2378 1403 2484 
z
M 1172 3481 
Q 1172 3119 1398 2916 
Q 1625 2713 2034 2713 
Q 2441 2713 2670 2916 
Q 2900 3119 2900 3481 
Q 2900 3844 2670 4047 
Q 2441 4250 2034 4250 
Q 1625 4250 1398 4047 
Q 1172 3844 1172 3481 
z
" transform="scale(0.015625)"/>
       </defs>
       <use xlink:href="#DejaVuSans-2212"/>
       <use xlink:href="#DejaVuSans-38" x="83.789062"/>
       <use xlink:href="#DejaVuSans-30" x="147.412109"/>
       <use xlink:href="#DejaVuSans-30" x="211.035156"/>
      </g>
     </g>
    </g>
    <g id="ytick_3">
     <g id="line2d_8">
      <g>
       <use xlink:href="#m7b3af5f1d3" x="57.6" y="219.273566" style="stroke: #000000; stroke-width: 0.8"/>
      </g>
     </g>
     <g id="text_8">
      <!-- −600 -->
      <g transform="translate(23.132812 223.072785) scale(0.1 -0.1)">
       <defs>
        <path id="DejaVuSans-36" d="M 2113 2584 
Q 1688 2584 1439 2293 
Q 1191 2003 1191 1497 
Q 1191 994 1439 701 
Q 1688 409 2113 409 
Q 2538 409 2786 701 
Q 3034 994 3034 1497 
Q 3034 2003 2786 2293 
Q 2538 2584 2113 2584 
z
M 3366 4563 
L 3366 3988 
Q 3128 4100 2886 4159 
Q 2644 4219 2406 4219 
Q 1781 4219 1451 3797 
Q 1122 3375 1075 2522 
Q 1259 2794 1537 2939 
Q 1816 3084 2150 3084 
Q 2853 3084 3261 2657 
Q 3669 2231 3669 1497 
Q 3669 778 3244 343 
Q 2819 -91 2113 -91 
Q 1303 -91 875 529 
Q 447 1150 447 2328 
Q 447 3434 972 4092 
Q 1497 4750 2381 4750 
Q 2619 4750 2861 4703 
Q 3103 4656 3366 4563 
z
" transform="scale(0.015625)"/>
       </defs>
       <use xlink:href="#DejaVuSans-2212"/>
       <use xlink:href="#DejaVuSans-36" x="83.789062"/>
       <use xlink:href="#DejaVuSans-30" x="147.412109"/>
       <use xlink:href="#DejaVuSans-30" x="211.035156"/>
      </g>
     </g>
    </g>
    <g id="ytick_4">
     <g id="line2d_9">
      <g>
       <use xlink:href="#m7b3af5f1d3" x="57.6" y="175.992338" style="stroke: #000000; stroke-width: 0.8"/>
      </g>
     </g>
     <g id="text_9">
      <!-- −400 -->
      <g transform="translate(23.132812 179.791557) scale(0.1 -0.1)">
       <defs>
        <path id="DejaVuSans-34" d="M 2419 4116 
L 825 1625 
L 2419 1625 
L 2419 4116 
z
M 2253 4666 
L 3047 4666 
L 3047 1625 
L 3713 1625 
L 3713 1100 
L 3047 1100 
L 3047 0 
L 2419 0 
L 2419 1100 
L 313 1100 
L 313 1709 
L 2253 4666 
z
" transform="scale(0.015625)"/>
       </defs>
       <use xlink:href="#DejaVuSans-2212"/>
       <use xlink:href="#DejaVuSans-34" x="83.789062"/>
       <use xlink:href="#DejaVuSans-30" x="147.412109"/>
       <use xlink:href="#DejaVuSans-30" x="211.035156"/>
      </g>
     </g>
    </g>
    <g id="ytick_5">
     <g id="line2d_10">
      <g>
       <use xlink:href="#m7b3af5f1d3" x="57.6" y="132.711111" style="stroke: #000000; stroke-width: 0.8"/>
      </g>
     </g>
     <g id="text_10">
      <!-- −200 -->
      <g transform="translate(23.132812 136.510329) scale(0.1 -0.1)">
       <use xlink:href="#DejaVuSans-2212"/>
       <use xlink:href="#DejaVuSans-32" x="83.789062"/>
       <use xlink:href="#DejaVuSans-30" x="147.412109"/>
       <use xlink:href="#DejaVuSans-30" x="211.035156"/>
      </g>
     </g>
    </g>
    <g id="ytick_6">
     <g id="line2d_11">
      <g>
       <use xlink:href="#m7b3af5f1d3" x="57.6" y="89.429883" style="stroke: #000000; stroke-width: 0.8"/>
      </g>
     </g>
     <g id="text_11">
      <!-- 0 -->
      <g transform="translate(44.2375 93.229102) scale(0.1 -0.1)">
       <use xlink:href="#DejaVuSans-30"/>
      </g>
     </g>
    </g>
    <g id="ytick_7">
     <g id="line2d_12">
      <g>
       <use xlink:href="#m7b3af5f1d3" x="57.6" y="46.148655" style="stroke: #000000; stroke-width: 0.8"/>
      </g>
     </g>
     <g id="text_12">
      <!-- 200 -->
      <g transform="translate(31.5125 49.947874) scale(0.1 -0.1)">
       <use xlink:href="#DejaVuSans-32"/>
       <use xlink:href="#DejaVuSans-30" x="63.623047"/>
       <use xlink:href="#DejaVuSans-30" x="127.246094"/>
      </g>
     </g>
    </g>
   </g>
   <g id="line2d_13">
    <path d="M 73.832727 90.511914 
L 75.342748 95.849932 
L 76.85277 92.675975 
L 78.362791 89.862695 
L 79.872812 88.997071 
L 81.382833 87.482228 
L 82.892854 89.32168 
L 84.402875 87.698634 
L 85.912896 94.299021 
L 87.422918 103.712688 
L 88.932939 117.346275 
L 90.44296 100.033784 
L 91.952981 88.023243 
L 93.463002 84.344339 
L 94.973023 93.000584 
L 96.483044 94.62363 
L 97.993066 93.974412 
L 99.503087 97.43691 
L 101.013108 98.735347 
L 102.523129 101.721751 
L 104.03315 98.800269 
L 105.543171 100.504467 
L 107.053192 95.31072 
L 108.563214 93.363064 
L 110.073235 92.930252 
L 111.583256 95.743532 
L 113.093277 96.825563 
L 114.603298 93.795877 
L 116.113319 92.84369 
L 117.62334 92.410877 
L 119.133362 93.060096 
L 120.643383 92.84369 
L 122.153404 90.355019 
L 123.663425 90.571425 
L 125.173446 91.43705 
L 126.683467 91.43705 
L 128.193488 102.906575 
L 129.70351 102.149154 
L 131.213531 93.637179 
L 132.723552 96.714955 
L 134.233573 94.118081 
L 135.743594 92.170426 
L 137.253615 90.54738 
L 138.763636 92.062223 
L 140.273658 91.196598 
L 141.783679 92.495035 
L 143.2937 95.308315 
L 144.803721 97.833053 
L 146.313742 99.528235 
L 147.823763 104.375732 
L 149.333784 107.916924 
L 150.843805 112.245046 
L 152.353827 112.994145 
L 153.863848 110.010831 
L 155.373869 111.371099 
L 156.88389 109.692085 
L 158.393911 104.822947 
L 159.903932 114.128411 
L 161.413953 119.105752 
L 162.923975 120.057939 
L 164.433996 116.523306 
L 165.944017 110.507215 
L 168.964059 110.507215 
L 170.47408 108.992372 
L 171.984101 114.727135 
L 173.494123 112.346667 
L 175.004144 115.592759 
L 176.514165 113.212292 
L 178.024186 112.45487 
L 179.534207 111.032773 
L 181.044228 113.413241 
L 182.554249 117.597093 
L 184.064271 117.083128 
L 185.574292 120.762032 
L 187.084313 123.034297 
L 188.594334 122.070306 
L 190.104355 116.443746 
L 191.614376 116.761991 
L 193.124397 113.083086 
L 194.634419 111.676446 
L 196.14444 117.735818 
L 197.654461 116.38328 
L 199.164482 121.360621 
L 200.674503 125.544473 
L 202.184524 123.885359 
L 203.694545 129.18731 
L 205.204567 124.065698 
L 206.714588 117.975411 
L 208.224609 118.083614 
L 209.73463 118.732832 
L 211.244651 124.900407 
L 212.754672 131.608997 
L 214.264693 127.334976 
L 215.774715 131.057162 
L 217.284736 129.289845 
L 218.794757 122.473052 
L 220.304778 125.069925 
L 221.814799 121.391021 
L 223.32482 129.073439 
L 224.834841 127.775002 
L 226.344863 129.235743 
L 227.854884 126.097854 
L 229.364905 122.130408 
L 230.874926 124.835485 
L 232.384947 126.566734 
L 233.894968 125.484704 
L 235.404989 131.00306 
L 236.915011 148.012583 
L 238.425032 126.155563 
L 239.935053 122.368455 
L 241.445074 123.23408 
L 242.955095 124.748923 
L 244.465116 118.905957 
L 245.975137 134.433097 
L 247.485159 128.806538 
L 248.99518 129.672162 
L 250.505201 120.366698 
L 252.015222 125.34404 
L 253.525243 122.747166 
L 255.035264 132.918254 
L 256.545285 123.915759 
L 258.055307 117.207169 
L 259.565328 115.692326 
L 261.075349 116.88256 
L 262.58537 114.646363 
L 264.095391 120.272922 
L 265.605412 132.716275 
L 267.115433 126.602802 
L 268.625455 123.717387 
L 270.135476 123.500981 
L 271.645497 133.131054 
L 273.155518 127.179885 
L 274.665539 131.453906 
L 276.17556 128.597345 
L 277.685581 130.220391 
L 279.195603 131.086016 
L 280.705624 122.75438 
L 282.215645 128.921954 
L 283.725666 132.817265 
L 285.235687 148.491252 
L 286.745708 154.41537 
L 288.255729 156.867973 
L 289.765751 162.47486 
L 291.275772 161.897777 
L 292.785793 172.218546 
L 294.295814 191.584593 
L 295.805835 190.205004 
L 297.315856 186.420536 
L 298.825877 182.233775 
L 300.335899 180.502526 
L 301.84592 182.341978 
L 303.355941 184.50604 
L 304.865962 194.388587 
L 306.375983 201.151278 
L 307.886004 195.20011 
L 309.396025 190.222768 
L 310.906047 199.582334 
L 312.416068 205.858112 
L 313.926089 202.828426 
L 315.43611 213.398157 
L 316.946131 213.03748 
L 318.456152 212.448439 
L 319.966173 215.194288 
L 321.476195 211.745176 
L 322.986216 208.931896 
L 324.496237 207.417053 
L 326.006258 209.472911 
L 327.516279 212.069785 
L 329.0263 210.627077 
L 330.536321 216.974991 
L 332.046342 238.399199 
L 333.556364 232.772639 
L 335.066385 222.861823 
L 336.576406 217.653574 
L 338.086427 219.384823 
L 339.596448 215.0567 
L 341.106469 219.312688 
L 342.61649 237.220296 
L 344.126512 232.098684 
L 345.636533 230.43957 
L 347.146554 236.498942 
L 348.656575 238.446597 
L 350.166596 227.518087 
L 351.676617 231.954413 
L 353.186638 221.134106 
L 354.69666 216.589577 
L 356.206681 217.238795 
L 357.716702 219.943872 
L 359.226723 219.150383 
L 360.736744 224.181826 
L 362.246765 230.241198 
L 363.756786 248.130772 
L 365.266808 253.108113 
L 366.776829 288.447235 
L 368.28685 292.657318 
L 369.796871 282.760642 
L 371.306892 265.728206 
L 372.816913 259.728088 
L 374.326934 256.698402 
L 375.836956 258.862463 
L 377.346977 258.790328 
L 378.856998 269.989346 
L 380.367019 269.502432 
L 381.87704 265.931731 
L 383.387061 266.472746 
L 384.897082 271.666493 
L 386.407104 271.666493 
L 387.917125 268.636807 
L 389.427146 278.59149 
L 390.937167 278.537388 
L 392.447188 276.979264 
L 393.957209 274.256153 
L 395.46723 273.823341 
L 396.977252 290.70302 
L 398.487273 295.488 
L 398.487273 295.488 
" clip-path="url(#p161f63cbe2)" style="fill: none; stroke: #1f77b4; stroke-opacity: 0.7; stroke-width: 1.5; stroke-linecap: square"/>
   </g>
   <g id="line2d_14">
    <path d="M 73.832727 90.620117 
L 75.342748 95.759762 
L 76.85277 91.539843 
L 78.362791 91.539843 
L 79.872812 90.674218 
L 81.382833 89.159375 
L 82.892854 90.529947 
L 84.402875 87.3079 
L 85.912896 94.232897 
L 87.422918 105.145949 
L 88.932939 115.208835 
L 90.44296 97.896344 
L 91.952981 86.102209 
L 93.463002 75.209767 
L 94.973023 77.211524 
L 96.483044 73.785093 
L 97.993066 74.867124 
L 99.503087 79.30345 
L 101.013108 79.952668 
L 102.523129 81.900323 
L 104.03315 77.463997 
L 105.543171 77.788607 
L 107.053192 72.648961 
L 108.563214 70.845576 
L 110.073235 70.737373 
L 111.583256 73.694924 
L 113.093277 73.045705 
L 114.603298 70.232426 
L 116.113319 70.665238 
L 117.62334 70.448832 
L 119.133362 71.170186 
L 120.643383 70.304561 
L 122.153404 67.996229 
L 123.663425 67.635552 
L 125.173446 69.150395 
L 126.683467 68.442157 
L 128.193488 79.262464 
L 129.70351 81.770807 
L 131.213531 73.76378 
L 132.723552 77.334482 
L 134.233573 77.118075 
L 135.743594 76.306552 
L 137.253615 74.683506 
L 138.763636 75.765537 
L 140.273658 74.090742 
L 141.783679 75.821991 
L 143.2937 77.88936 
L 144.803721 79.512406 
L 146.313742 78.754985 
L 147.823763 82.001077 
L 149.333784 82.758498 
L 150.843805 83.840529 
L 152.353827 81.135452 
L 153.863848 75.833502 
L 155.373869 75.977773 
L 156.88389 72.407071 
L 158.393911 68.151084 
L 159.903932 75.7794 
L 161.413953 79.63143 
L 162.923975 76.385337 
L 164.433996 70.434169 
L 165.944017 63.869849 
L 167.454038 60.245046 
L 168.964059 60.245046 
L 170.47408 54.686114 
L 171.984101 60.366775 
L 173.494123 59.140473 
L 175.004144 62.268526 
L 176.514165 60.753683 
L 178.024186 59.996261 
L 179.534207 58.589621 
L 181.044228 61.11436 
L 182.554249 65.298212 
L 184.064271 62.701338 
L 185.574292 68.327898 
L 187.084313 68.76071 
L 188.594334 65.731024 
L 190.104355 61.402901 
L 191.614376 64.216181 
L 193.124397 59.635584 
L 194.634419 58.553554 
L 196.14444 63.801402 
L 197.654461 62.575101 
L 199.164482 67.69156 
L 200.674503 72.344292 
L 202.184524 68.01617 
L 203.694545 70.396637 
L 205.204567 66.068514 
L 206.714588 60.369819 
L 208.224609 57.772946 
L 209.73463 56.214822 
L 212.754672 68.874581 
L 214.264693 60.867554 
L 215.774715 63.356224 
L 217.284736 61.08396 
L 218.794757 55.673806 
L 220.304778 56.16072 
L 221.814799 54.75408 
L 223.32482 61.534806 
L 224.834841 60.957723 
L 226.344863 63.121784 
L 227.854884 60.092098 
L 229.364905 56.557465 
L 230.874926 57.639495 
L 232.384947 58.288714 
L 233.894968 57.287835 
L 235.404989 62.457538 
L 236.915011 78.369291 
L 238.425032 62.571643 
L 239.935053 66.250547 
L 241.445074 68.955624 
L 242.955095 70.903279 
L 244.465116 64.519298 
L 245.975137 80.706477 
L 247.485159 77.546947 
L 248.99518 86.203193 
L 250.505201 77.114135 
L 252.015222 82.740695 
L 253.525243 85.986787 
L 255.035264 97.456312 
L 256.545285 84.580147 
L 258.055307 86.744208 
L 259.565328 86.311396 
L 261.075349 87.97051 
L 262.58537 85.914651 
L 264.095391 91.627773 
L 265.605412 104.871829 
L 267.115433 93.726913 
L 268.625455 98.271442 
L 270.135476 100.3273 
L 271.645497 111.436149 
L 273.155518 105.48498 
L 274.665539 113.059195 
L 276.17556 110.570524 
L 277.685581 113.672345 
L 279.195603 114.53797 
L 280.705624 106.963755 
L 282.215645 113.618244 
L 283.725666 117.513554 
L 285.235687 130.497923 
L 286.745708 129.199486 
L 288.255729 126.386206 
L 289.765751 124.546754 
L 291.275772 117.261081 
L 292.785793 121.535102 
L 294.295814 135.341813 
L 295.805835 120.193384 
L 297.315856 116.298073 
L 298.825877 106.487662 
L 300.335899 97.61501 
L 301.84592 93.113762 
L 303.355941 90.381635 
L 304.865962 95.527292 
L 306.375983 97.186406 
L 307.886004 91.559846 
L 309.396025 86.582505 
L 310.906047 97.402812 
L 312.416068 103.894996 
L 313.926089 96.104375 
L 315.43611 101.514528 
L 318.456152 89.179378 
L 319.966173 88.962972 
L 321.476195 83.163288 
L 322.986216 78.330217 
L 324.496237 76.815374 
L 326.006258 74.805889 
L 327.516279 78.809402 
L 329.0263 74.697686 
L 330.536321 82.921119 
L 332.046342 104.868308 
L 335.066385 82.578476 
L 336.576406 80.306212 
L 338.086427 83.660507 
L 339.596448 78.629064 
L 341.106469 83.552304 
L 342.61649 95.403722 
L 344.126512 89.673288 
L 345.636533 94.650629 
L 347.146554 103.198671 
L 348.656575 105.146326 
L 350.166596 94.758832 
L 351.676617 100.818204 
L 353.186638 94.037478 
L 354.69666 89.817558 
L 356.206681 90.899589 
L 357.716702 92.241307 
L 359.226723 88.0815 
L 360.736744 91.01282 
L 362.246765 96.560686 
L 363.756786 112.033725 
L 365.266808 110.518882 
L 366.776829 137.786056 
L 368.28685 123.50325 
L 369.796871 104.675916 
L 371.306892 76.921829 
L 372.816913 66.263827 
L 374.326934 53.568 
L 375.836956 58.761747 
L 377.346977 59.086357 
L 378.856998 70.555882 
L 380.367019 65.340494 
L 381.87704 59.569664 
L 383.387061 61.733725 
L 384.897082 68.009503 
L 386.407104 68.009503 
L 387.917125 65.227138 
L 389.427146 76.696664 
L 390.937167 76.840934 
L 392.447188 75.326091 
L 393.957209 71.75539 
L 395.46723 70.889766 
L 396.977252 87.84158 
L 398.487273 92.169703 
L 398.487273 92.169703 
" clip-path="url(#p161f63cbe2)" style="fill: none; stroke: #ff7f0e; stroke-opacity: 0.7; stroke-width: 1.5; stroke-linecap: square"/>
   </g>
   <g id="line2d_15">
    <path d="M 73.832727 90.566015 
L 75.342748 95.804847 
L 76.85277 92.107909 
L 78.362791 90.701269 
L 79.872812 89.835644 
L 81.382833 88.320801 
L 82.892854 89.925814 
L 84.402875 87.503267 
L 85.912896 94.265959 
L 87.422918 104.429319 
L 88.932939 116.277555 
L 90.44296 98.965064 
L 91.952981 87.062726 
L 93.463002 79.777053 
L 94.973023 85.106054 
L 96.483044 84.204362 
L 97.993066 84.420768 
L 99.503087 88.37018 
L 101.013108 89.344007 
L 102.523129 91.811037 
L 104.03315 88.132133 
L 105.543171 89.146537 
L 107.053192 83.97984 
L 108.563214 82.10432 
L 110.073235 81.833813 
L 111.583256 84.719228 
L 113.093277 84.935634 
L 114.603298 82.014151 
L 117.62334 81.429855 
L 119.133362 82.115141 
L 120.643383 81.574125 
L 122.153404 79.175624 
L 123.663425 79.103489 
L 125.173446 80.293722 
L 126.683467 79.939603 
L 128.193488 91.084519 
L 129.70351 91.959981 
L 131.213531 83.70048 
L 132.723552 87.024718 
L 135.743594 84.238489 
L 137.253615 82.615443 
L 138.763636 83.91388 
L 140.273658 82.64367 
L 141.783679 84.158513 
L 143.2937 86.598838 
L 144.803721 88.67273 
L 146.313742 89.14161 
L 147.823763 93.188405 
L 149.333784 95.337711 
L 150.843805 98.042788 
L 152.353827 97.064798 
L 153.863848 92.922167 
L 155.373869 93.674436 
L 156.88389 91.049578 
L 158.393911 86.487016 
L 159.903932 94.953906 
L 161.413953 99.368591 
L 162.923975 98.221638 
L 164.433996 93.478737 
L 165.944017 87.188532 
L 167.454038 85.376131 
L 168.964059 85.376131 
L 170.47408 81.839243 
L 171.984101 87.546955 
L 173.494123 85.74357 
L 175.004144 88.930643 
L 176.514165 86.982987 
L 178.024186 86.225566 
L 179.534207 84.811197 
L 181.044228 87.2638 
L 182.554249 91.447652 
L 184.064271 89.892233 
L 185.574292 94.544965 
L 187.084313 95.897503 
L 188.594334 93.900665 
L 190.104355 88.923324 
L 191.614376 90.489086 
L 193.124397 86.359335 
L 194.634419 85.115 
L 196.14444 90.76861 
L 197.654461 89.47919 
L 199.164482 94.526091 
L 200.674503 98.944383 
L 202.184524 95.950764 
L 203.694545 99.791973 
L 205.204567 95.067106 
L 206.714588 89.172615 
L 208.224609 87.92828 
L 209.73463 87.473827 
L 212.754672 100.241789 
L 214.264693 94.101265 
L 215.774715 97.206693 
L 217.284736 95.186902 
L 218.794757 89.073429 
L 220.304778 90.615323 
L 221.814799 88.07255 
L 223.32482 95.304122 
L 224.834841 94.366362 
L 226.344863 96.178764 
L 227.854884 93.094976 
L 229.364905 89.343937 
L 230.874926 91.23749 
L 232.384947 92.427724 
L 233.894968 91.386269 
L 235.404989 96.730299 
L 236.915011 113.190937 
L 238.425032 94.363603 
L 239.935053 94.309501 
L 242.955095 97.826101 
L 244.465116 91.712627 
L 245.975137 107.569787 
L 247.485159 103.176743 
L 248.99518 107.937678 
L 250.505201 98.740417 
L 252.015222 104.042367 
L 253.525243 104.366976 
L 255.035264 115.187283 
L 256.545285 104.247953 
L 258.055307 101.975689 
L 259.565328 101.001861 
L 261.075349 102.426535 
L 262.58537 100.280507 
L 264.095391 105.950348 
L 265.605412 118.794052 
L 267.115433 110.164858 
L 270.135476 111.91414 
L 271.645497 122.283601 
L 273.155518 116.332432 
L 274.665539 122.25655 
L 276.17556 119.583935 
L 277.685581 121.946368 
L 279.195603 122.811993 
L 280.705624 114.859067 
L 282.215645 121.270099 
L 283.725666 125.16541 
L 285.235687 139.494588 
L 286.745708 141.807428 
L 288.255729 141.62709 
L 289.765751 143.510807 
L 291.275772 139.579429 
L 292.785793 146.876824 
L 294.295814 163.463203 
L 295.805835 155.199194 
L 297.315856 151.359305 
L 298.825877 144.360718 
L 300.335899 139.058768 
L 301.84592 137.72787 
L 303.355941 137.443837 
L 304.865962 144.957939 
L 306.375983 149.168842 
L 307.886004 143.379978 
L 309.396025 138.402637 
L 310.906047 148.492573 
L 312.416068 154.876554 
L 313.926089 149.4664 
L 315.43611 157.456343 
L 318.456152 150.813909 
L 319.966173 152.07863 
L 321.476195 147.454232 
L 322.986216 143.631057 
L 324.496237 142.116214 
L 326.006258 142.1394 
L 327.516279 145.439594 
L 329.0263 142.662382 
L 330.536321 149.948055 
L 332.046342 171.633753 
L 333.556364 163.193914 
L 335.066385 152.720149 
L 336.576406 148.979893 
L 338.086427 151.522665 
L 339.596448 146.842882 
L 341.106469 151.432496 
L 342.61649 166.312009 
L 344.126512 160.885986 
L 345.636533 162.545099 
L 347.146554 169.848807 
L 348.656575 171.796462 
L 350.166596 161.138459 
L 351.676617 166.386308 
L 353.186638 157.585792 
L 354.69666 153.203568 
L 356.206681 154.069192 
L 357.716702 156.09259 
L 359.226723 153.615942 
L 360.736744 157.597323 
L 362.246765 163.400942 
L 363.756786 180.082248 
L 365.266808 181.813498 
L 366.776829 213.116645 
L 368.28685 208.080284 
L 369.796871 193.718279 
L 371.306892 171.325017 
L 374.326934 155.133201 
L 375.836956 158.812105 
L 377.346977 158.938342 
L 378.856998 170.272614 
L 380.367019 167.421463 
L 381.87704 162.750697 
L 383.387061 164.103235 
L 384.897082 169.837998 
L 386.407104 169.837998 
L 387.917125 166.931973 
L 389.427146 177.644077 
L 390.937167 177.689161 
L 392.447188 176.152678 
L 393.957209 173.005772 
L 395.46723 172.356553 
L 396.977252 189.2723 
L 398.487273 193.828851 
L 398.487273 193.828851 
" clip-path="url(#p161f63cbe2)" style="fill: none; stroke: #2ca02c; stroke-opacity: 0.7; stroke-width: 1.5; stroke-linecap: square"/>
   </g>
   <g id="patch_3">
    <path d="M 57.6 307.584 
L 57.6 41.472 
" style="fill: none; stroke: #000000; stroke-width: 0.8; stroke-linejoin: miter; stroke-linecap: square"/>
   </g>
   <g id="patch_4">
    <path d="M 414.72 307.584 
L 414.72 41.472 
" style="fill: none; stroke: #000000; stroke-width: 0.8; stroke-linejoin: miter; stroke-linecap: square"/>
   </g>
   <g id="patch_5">
    <path d="M 57.6 307.584 
L 414.72 307.584 
" style="fill: none; stroke: #000000; stroke-width: 0.8; stroke-linejoin: miter; stroke-linecap: square"/>
   </g>
   <g id="patch_6">
    <path d="M 57.6 41.472 
L 414.72 41.472 
" style="fill: none; stroke: #000000; stroke-width: 0.8; stroke-linejoin: miter; stroke-linecap: square"/>
   </g>
   <g id="text_13">
    <!-- zhang_simrank_cci -->
    <g transform="translate(179.597813 35.472) scale(0.12 -0.12)">
     <defs>
      <path id="DejaVuSans-7a" d="M 353 3500 
L 3084 3500 
L 3084 2975 
L 922 459 
L 3084 459 
L 3084 0 
L 275 0 
L 275 525 
L 2438 3041 
L 353 3041 
L 353 3500 
z
" transform="scale(0.015625)"/>
      <path id="DejaVuSans-68" d="M 3513 2113 
L 3513 0 
L 2938 0 
L 2938 2094 
Q 2938 2591 2744 2837 
Q 2550 3084 2163 3084 
Q 1697 3084 1428 2787 
Q 1159 2491 1159 1978 
L 1159 0 
L 581 0 
L 581 4863 
L 1159 4863 
L 1159 2956 
Q 1366 3272 1645 3428 
Q 1925 3584 2291 3584 
Q 2894 3584 3203 3211 
Q 3513 2838 3513 2113 
z
" transform="scale(0.015625)"/>
      <path id="DejaVuSans-61" d="M 2194 1759 
Q 1497 1759 1228 1600 
Q 959 1441 959 1056 
Q 959 750 1161 570 
Q 1363 391 1709 391 
Q 2188 391 2477 730 
Q 2766 1069 2766 1631 
L 2766 1759 
L 2194 1759 
z
M 3341 1997 
L 3341 0 
L 2766 0 
L 2766 531 
Q 2569 213 2275 61 
Q 1981 -91 1556 -91 
Q 1019 -91 701 211 
Q 384 513 384 1019 
Q 384 1609 779 1909 
Q 1175 2209 1959 2209 
L 2766 2209 
L 2766 2266 
Q 2766 2663 2505 2880 
Q 2244 3097 1772 3097 
Q 1472 3097 1187 3025 
Q 903 2953 641 2809 
L 641 3341 
Q 956 3463 1253 3523 
Q 1550 3584 1831 3584 
Q 2591 3584 2966 3190 
Q 3341 2797 3341 1997 
z
" transform="scale(0.015625)"/>
      <path id="DejaVuSans-6e" d="M 3513 2113 
L 3513 0 
L 2938 0 
L 2938 2094 
Q 2938 2591 2744 2837 
Q 2550 3084 2163 3084 
Q 1697 3084 1428 2787 
Q 1159 2491 1159 1978 
L 1159 0 
L 581 0 
L 581 3500 
L 1159 3500 
L 1159 2956 
Q 1366 3272 1645 3428 
Q 1925 3584 2291 3584 
Q 2894 3584 3203 3211 
Q 3513 2838 3513 2113 
z
" transform="scale(0.015625)"/>
      <path id="DejaVuSans-67" d="M 2906 1791 
Q 2906 2416 2648 2759 
Q 2391 3103 1925 3103 
Q 1463 3103 1205 2759 
Q 947 2416 947 1791 
Q 947 1169 1205 825 
Q 1463 481 1925 481 
Q 2391 481 2648 825 
Q 2906 1169 2906 1791 
z
M 3481 434 
Q 3481 -459 3084 -895 
Q 2688 -1331 1869 -1331 
Q 1566 -1331 1297 -1286 
Q 1028 -1241 775 -1147 
L 775 -588 
Q 1028 -725 1275 -790 
Q 1522 -856 1778 -856 
Q 2344 -856 2625 -561 
Q 2906 -266 2906 331 
L 2906 616 
Q 2728 306 2450 153 
Q 2172 0 1784 0 
Q 1141 0 747 490 
Q 353 981 353 1791 
Q 353 2603 747 3093 
Q 1141 3584 1784 3584 
Q 2172 3584 2450 3431 
Q 2728 3278 2906 2969 
L 2906 3500 
L 3481 3500 
L 3481 434 
z
" transform="scale(0.015625)"/>
      <path id="DejaVuSans-5f" d="M 3263 -1063 
L 3263 -1509 
L -63 -1509 
L -63 -1063 
L 3263 -1063 
z
" transform="scale(0.015625)"/>
      <path id="DejaVuSans-73" d="M 2834 3397 
L 2834 2853 
Q 2591 2978 2328 3040 
Q 2066 3103 1784 3103 
Q 1356 3103 1142 2972 
Q 928 2841 928 2578 
Q 928 2378 1081 2264 
Q 1234 2150 1697 2047 
L 1894 2003 
Q 2506 1872 2764 1633 
Q 3022 1394 3022 966 
Q 3022 478 2636 193 
Q 2250 -91 1575 -91 
Q 1294 -91 989 -36 
Q 684 19 347 128 
L 347 722 
Q 666 556 975 473 
Q 1284 391 1588 391 
Q 1994 391 2212 530 
Q 2431 669 2431 922 
Q 2431 1156 2273 1281 
Q 2116 1406 1581 1522 
L 1381 1569 
Q 847 1681 609 1914 
Q 372 2147 372 2553 
Q 372 3047 722 3315 
Q 1072 3584 1716 3584 
Q 2034 3584 2315 3537 
Q 2597 3491 2834 3397 
z
" transform="scale(0.015625)"/>
      <path id="DejaVuSans-69" d="M 603 3500 
L 1178 3500 
L 1178 0 
L 603 0 
L 603 3500 
z
M 603 4863 
L 1178 4863 
L 1178 4134 
L 603 4134 
L 603 4863 
z
" transform="scale(0.015625)"/>
      <path id="DejaVuSans-6d" d="M 3328 2828 
Q 3544 3216 3844 3400 
Q 4144 3584 4550 3584 
Q 5097 3584 5394 3201 
Q 5691 2819 5691 2113 
L 5691 0 
L 5113 0 
L 5113 2094 
Q 5113 2597 4934 2840 
Q 4756 3084 4391 3084 
Q 3944 3084 3684 2787 
Q 3425 2491 3425 1978 
L 3425 0 
L 2847 0 
L 2847 2094 
Q 2847 2600 2669 2842 
Q 2491 3084 2119 3084 
Q 1678 3084 1418 2786 
Q 1159 2488 1159 1978 
L 1159 0 
L 581 0 
L 581 3500 
L 1159 3500 
L 1159 2956 
Q 1356 3278 1631 3431 
Q 1906 3584 2284 3584 
Q 2666 3584 2933 3390 
Q 3200 3197 3328 2828 
z
" transform="scale(0.015625)"/>
      <path id="DejaVuSans-72" d="M 2631 2963 
Q 2534 3019 2420 3045 
Q 2306 3072 2169 3072 
Q 1681 3072 1420 2755 
Q 1159 2438 1159 1844 
L 1159 0 
L 581 0 
L 581 3500 
L 1159 3500 
L 1159 2956 
Q 1341 3275 1631 3429 
Q 1922 3584 2338 3584 
Q 2397 3584 2469 3576 
Q 2541 3569 2628 3553 
L 2631 2963 
z
" transform="scale(0.015625)"/>
      <path id="DejaVuSans-6b" d="M 581 4863 
L 1159 4863 
L 1159 1991 
L 2875 3500 
L 3609 3500 
L 1753 1863 
L 3688 0 
L 2938 0 
L 1159 1709 
L 1159 0 
L 581 0 
L 581 4863 
z
" transform="scale(0.015625)"/>
      <path id="DejaVuSans-63" d="M 3122 3366 
L 3122 2828 
Q 2878 2963 2633 3030 
Q 2388 3097 2138 3097 
Q 1578 3097 1268 2742 
Q 959 2388 959 1747 
Q 959 1106 1268 751 
Q 1578 397 2138 397 
Q 2388 397 2633 464 
Q 2878 531 3122 666 
L 3122 134 
Q 2881 22 2623 -34 
Q 2366 -91 2075 -91 
Q 1284 -91 818 406 
Q 353 903 353 1747 
Q 353 2603 823 3093 
Q 1294 3584 2113 3584 
Q 2378 3584 2631 3529 
Q 2884 3475 3122 3366 
z
" transform="scale(0.015625)"/>
     </defs>
     <use xlink:href="#DejaVuSans-7a"/>
     <use xlink:href="#DejaVuSans-68" x="52.490234"/>
     <use xlink:href="#DejaVuSans-61" x="115.869141"/>
     <use xlink:href="#DejaVuSans-6e" x="177.148438"/>
     <use xlink:href="#DejaVuSans-67" x="240.527344"/>
     <use xlink:href="#DejaVuSans-5f" x="304.003906"/>
     <use xlink:href="#DejaVuSans-73" x="354.003906"/>
     <use xlink:href="#DejaVuSans-69" x="406.103516"/>
     <use xlink:href="#DejaVuSans-6d" x="433.886719"/>
     <use xlink:href="#DejaVuSans-72" x="531.298828"/>
     <use xlink:href="#DejaVuSans-61" x="572.412109"/>
     <use xlink:href="#DejaVuSans-6e" x="633.691406"/>
     <use xlink:href="#DejaVuSans-6b" x="697.070312"/>
     <use xlink:href="#DejaVuSans-5f" x="754.980469"/>
     <use xlink:href="#DejaVuSans-63" x="804.980469"/>
     <use xlink:href="#DejaVuSans-63" x="859.960938"/>
     <use xlink:href="#DejaVuSans-69" x="914.941406"/>
    </g>
   </g>
   <g id="legend_1">
    <g id="patch_7">
     <path d="M 64.6 302.584 
L 258.804688 302.584 
Q 260.804688 302.584 260.804688 300.584 
L 260.804688 257.549625 
Q 260.804688 255.549625 258.804688 255.549625 
L 64.6 255.549625 
Q 62.6 255.549625 62.6 257.549625 
L 62.6 300.584 
Q 62.6 302.584 64.6 302.584 
z
" style="fill: #ffffff; opacity: 0.8; stroke: #cccccc; stroke-linejoin: miter"/>
    </g>
    <g id="line2d_16">
     <path d="M 66.6 263.648062 
L 76.6 263.648062 
L 86.6 263.648062 
" style="fill: none; stroke: #1f77b4; stroke-opacity: 0.7; stroke-width: 1.5; stroke-linecap: square"/>
    </g>
    <g id="text_14">
     <!-- Positive cumulative predictions -->
     <g transform="translate(94.6 267.148062) scale(0.1 -0.1)">
      <defs>
       <path id="DejaVuSans-50" d="M 1259 4147 
L 1259 2394 
L 2053 2394 
Q 2494 2394 2734 2622 
Q 2975 2850 2975 3272 
Q 2975 3691 2734 3919 
Q 2494 4147 2053 4147 
L 1259 4147 
z
M 628 4666 
L 2053 4666 
Q 2838 4666 3239 4311 
Q 3641 3956 3641 3272 
Q 3641 2581 3239 2228 
Q 2838 1875 2053 1875 
L 1259 1875 
L 1259 0 
L 628 0 
L 628 4666 
z
" transform="scale(0.015625)"/>
       <path id="DejaVuSans-6f" d="M 1959 3097 
Q 1497 3097 1228 2736 
Q 959 2375 959 1747 
Q 959 1119 1226 758 
Q 1494 397 1959 397 
Q 2419 397 2687 759 
Q 2956 1122 2956 1747 
Q 2956 2369 2687 2733 
Q 2419 3097 1959 3097 
z
M 1959 3584 
Q 2709 3584 3137 3096 
Q 3566 2609 3566 1747 
Q 3566 888 3137 398 
Q 2709 -91 1959 -91 
Q 1206 -91 779 398 
Q 353 888 353 1747 
Q 353 2609 779 3096 
Q 1206 3584 1959 3584 
z
" transform="scale(0.015625)"/>
       <path id="DejaVuSans-74" d="M 1172 4494 
L 1172 3500 
L 2356 3500 
L 2356 3053 
L 1172 3053 
L 1172 1153 
Q 1172 725 1289 603 
Q 1406 481 1766 481 
L 2356 481 
L 2356 0 
L 1766 0 
Q 1100 0 847 248 
Q 594 497 594 1153 
L 594 3053 
L 172 3053 
L 172 3500 
L 594 3500 
L 594 4494 
L 1172 4494 
z
" transform="scale(0.015625)"/>
       <path id="DejaVuSans-76" d="M 191 3500 
L 800 3500 
L 1894 563 
L 2988 3500 
L 3597 3500 
L 2284 0 
L 1503 0 
L 191 3500 
z
" transform="scale(0.015625)"/>
       <path id="DejaVuSans-65" d="M 3597 1894 
L 3597 1613 
L 953 1613 
Q 991 1019 1311 708 
Q 1631 397 2203 397 
Q 2534 397 2845 478 
Q 3156 559 3463 722 
L 3463 178 
Q 3153 47 2828 -22 
Q 2503 -91 2169 -91 
Q 1331 -91 842 396 
Q 353 884 353 1716 
Q 353 2575 817 3079 
Q 1281 3584 2069 3584 
Q 2775 3584 3186 3129 
Q 3597 2675 3597 1894 
z
M 3022 2063 
Q 3016 2534 2758 2815 
Q 2500 3097 2075 3097 
Q 1594 3097 1305 2825 
Q 1016 2553 972 2059 
L 3022 2063 
z
" transform="scale(0.015625)"/>
       <path id="DejaVuSans-20" transform="scale(0.015625)"/>
       <path id="DejaVuSans-75" d="M 544 1381 
L 544 3500 
L 1119 3500 
L 1119 1403 
Q 1119 906 1312 657 
Q 1506 409 1894 409 
Q 2359 409 2629 706 
Q 2900 1003 2900 1516 
L 2900 3500 
L 3475 3500 
L 3475 0 
L 2900 0 
L 2900 538 
Q 2691 219 2414 64 
Q 2138 -91 1772 -91 
Q 1169 -91 856 284 
Q 544 659 544 1381 
z
M 1991 3584 
L 1991 3584 
z
" transform="scale(0.015625)"/>
       <path id="DejaVuSans-6c" d="M 603 4863 
L 1178 4863 
L 1178 0 
L 603 0 
L 603 4863 
z
" transform="scale(0.015625)"/>
       <path id="DejaVuSans-70" d="M 1159 525 
L 1159 -1331 
L 581 -1331 
L 581 3500 
L 1159 3500 
L 1159 2969 
Q 1341 3281 1617 3432 
Q 1894 3584 2278 3584 
Q 2916 3584 3314 3078 
Q 3713 2572 3713 1747 
Q 3713 922 3314 415 
Q 2916 -91 2278 -91 
Q 1894 -91 1617 61 
Q 1341 213 1159 525 
z
M 3116 1747 
Q 3116 2381 2855 2742 
Q 2594 3103 2138 3103 
Q 1681 3103 1420 2742 
Q 1159 2381 1159 1747 
Q 1159 1113 1420 752 
Q 1681 391 2138 391 
Q 2594 391 2855 752 
Q 3116 1113 3116 1747 
z
" transform="scale(0.015625)"/>
       <path id="DejaVuSans-64" d="M 2906 2969 
L 2906 4863 
L 3481 4863 
L 3481 0 
L 2906 0 
L 2906 525 
Q 2725 213 2448 61 
Q 2172 -91 1784 -91 
Q 1150 -91 751 415 
Q 353 922 353 1747 
Q 353 2572 751 3078 
Q 1150 3584 1784 3584 
Q 2172 3584 2448 3432 
Q 2725 3281 2906 2969 
z
M 947 1747 
Q 947 1113 1208 752 
Q 1469 391 1925 391 
Q 2381 391 2643 752 
Q 2906 1113 2906 1747 
Q 2906 2381 2643 2742 
Q 2381 3103 1925 3103 
Q 1469 3103 1208 2742 
Q 947 2381 947 1747 
z
" transform="scale(0.015625)"/>
      </defs>
      <use xlink:href="#DejaVuSans-50"/>
      <use xlink:href="#DejaVuSans-6f" x="56.677734"/>
      <use xlink:href="#DejaVuSans-73" x="117.859375"/>
      <use xlink:href="#DejaVuSans-69" x="169.958984"/>
      <use xlink:href="#DejaVuSans-74" x="197.742188"/>
      <use xlink:href="#DejaVuSans-69" x="236.951172"/>
      <use xlink:href="#DejaVuSans-76" x="264.734375"/>
      <use xlink:href="#DejaVuSans-65" x="323.914062"/>
      <use xlink:href="#DejaVuSans-20" x="385.4375"/>
      <use xlink:href="#DejaVuSans-63" x="417.224609"/>
      <use xlink:href="#DejaVuSans-75" x="472.205078"/>
      <use xlink:href="#DejaVuSans-6d" x="535.583984"/>
      <use xlink:href="#DejaVuSans-75" x="632.996094"/>
      <use xlink:href="#DejaVuSans-6c" x="696.375"/>
      <use xlink:href="#DejaVuSans-61" x="724.158203"/>
      <use xlink:href="#DejaVuSans-74" x="785.4375"/>
      <use xlink:href="#DejaVuSans-69" x="824.646484"/>
      <use xlink:href="#DejaVuSans-76" x="852.429688"/>
      <use xlink:href="#DejaVuSans-65" x="911.609375"/>
      <use xlink:href="#DejaVuSans-20" x="973.132812"/>
      <use xlink:href="#DejaVuSans-70" x="1004.919922"/>
      <use xlink:href="#DejaVuSans-72" x="1068.396484"/>
      <use xlink:href="#DejaVuSans-65" x="1107.259766"/>
      <use xlink:href="#DejaVuSans-64" x="1168.783203"/>
      <use xlink:href="#DejaVuSans-69" x="1232.259766"/>
      <use xlink:href="#DejaVuSans-63" x="1260.042969"/>
      <use xlink:href="#DejaVuSans-74" x="1315.023438"/>
      <use xlink:href="#DejaVuSans-69" x="1354.232422"/>
      <use xlink:href="#DejaVuSans-6f" x="1382.015625"/>
      <use xlink:href="#DejaVuSans-6e" x="1443.197266"/>
      <use xlink:href="#DejaVuSans-73" x="1506.576172"/>
     </g>
    </g>
    <g id="line2d_17">
     <path d="M 66.6 278.326188 
L 76.6 278.326188 
L 86.6 278.326188 
" style="fill: none; stroke: #ff7f0e; stroke-opacity: 0.7; stroke-width: 1.5; stroke-linecap: square"/>
    </g>
    <g id="text_15">
     <!-- Negative cumulative predictions -->
     <g transform="translate(94.6 281.826188) scale(0.1 -0.1)">
      <defs>
       <path id="DejaVuSans-4e" d="M 628 4666 
L 1478 4666 
L 3547 763 
L 3547 4666 
L 4159 4666 
L 4159 0 
L 3309 0 
L 1241 3903 
L 1241 0 
L 628 0 
L 628 4666 
z
" transform="scale(0.015625)"/>
      </defs>
      <use xlink:href="#DejaVuSans-4e"/>
      <use xlink:href="#DejaVuSans-65" x="74.804688"/>
      <use xlink:href="#DejaVuSans-67" x="136.328125"/>
      <use xlink:href="#DejaVuSans-61" x="199.804688"/>
      <use xlink:href="#DejaVuSans-74" x="261.083984"/>
      <use xlink:href="#DejaVuSans-69" x="300.292969"/>
      <use xlink:href="#DejaVuSans-76" x="328.076172"/>
      <use xlink:href="#DejaVuSans-65" x="387.255859"/>
      <use xlink:href="#DejaVuSans-20" x="448.779297"/>
      <use xlink:href="#DejaVuSans-63" x="480.566406"/>
      <use xlink:href="#DejaVuSans-75" x="535.546875"/>
      <use xlink:href="#DejaVuSans-6d" x="598.925781"/>
      <use xlink:href="#DejaVuSans-75" x="696.337891"/>
      <use xlink:href="#DejaVuSans-6c" x="759.716797"/>
      <use xlink:href="#DejaVuSans-61" x="787.5"/>
      <use xlink:href="#DejaVuSans-74" x="848.779297"/>
      <use xlink:href="#DejaVuSans-69" x="887.988281"/>
      <use xlink:href="#DejaVuSans-76" x="915.771484"/>
      <use xlink:href="#DejaVuSans-65" x="974.951172"/>
      <use xlink:href="#DejaVuSans-20" x="1036.474609"/>
      <use xlink:href="#DejaVuSans-70" x="1068.261719"/>
      <use xlink:href="#DejaVuSans-72" x="1131.738281"/>
      <use xlink:href="#DejaVuSans-65" x="1170.601562"/>
      <use xlink:href="#DejaVuSans-64" x="1232.125"/>
      <use xlink:href="#DejaVuSans-69" x="1295.601562"/>
      <use xlink:href="#DejaVuSans-63" x="1323.384766"/>
      <use xlink:href="#DejaVuSans-74" x="1378.365234"/>
      <use xlink:href="#DejaVuSans-69" x="1417.574219"/>
      <use xlink:href="#DejaVuSans-6f" x="1445.357422"/>
      <use xlink:href="#DejaVuSans-6e" x="1506.539062"/>
      <use xlink:href="#DejaVuSans-73" x="1569.917969"/>
     </g>
    </g>
    <g id="line2d_18">
     <path d="M 66.6 293.004312 
L 76.6 293.004312 
L 86.6 293.004312 
" style="fill: none; stroke: #2ca02c; stroke-opacity: 0.7; stroke-width: 1.5; stroke-linecap: square"/>
    </g>
    <g id="text_16">
     <!-- Average cumulative predictions -->
     <g transform="translate(94.6 296.504312) scale(0.1 -0.1)">
      <defs>
       <path id="DejaVuSans-41" d="M 2188 4044 
L 1331 1722 
L 3047 1722 
L 2188 4044 
z
M 1831 4666 
L 2547 4666 
L 4325 0 
L 3669 0 
L 3244 1197 
L 1141 1197 
L 716 0 
L 50 0 
L 1831 4666 
z
" transform="scale(0.015625)"/>
      </defs>
      <use xlink:href="#DejaVuSans-41"/>
      <use xlink:href="#DejaVuSans-76" x="62.533203"/>
      <use xlink:href="#DejaVuSans-65" x="121.712891"/>
      <use xlink:href="#DejaVuSans-72" x="183.236328"/>
      <use xlink:href="#DejaVuSans-61" x="224.349609"/>
      <use xlink:href="#DejaVuSans-67" x="285.628906"/>
      <use xlink:href="#DejaVuSans-65" x="349.105469"/>
      <use xlink:href="#DejaVuSans-20" x="410.628906"/>
      <use xlink:href="#DejaVuSans-63" x="442.416016"/>
      <use xlink:href="#DejaVuSans-75" x="497.396484"/>
      <use xlink:href="#DejaVuSans-6d" x="560.775391"/>
      <use xlink:href="#DejaVuSans-75" x="658.1875"/>
      <use xlink:href="#DejaVuSans-6c" x="721.566406"/>
      <use xlink:href="#DejaVuSans-61" x="749.349609"/>
      <use xlink:href="#DejaVuSans-74" x="810.628906"/>
      <use xlink:href="#DejaVuSans-69" x="849.837891"/>
      <use xlink:href="#DejaVuSans-76" x="877.621094"/>
      <use xlink:href="#DejaVuSans-65" x="936.800781"/>
      <use xlink:href="#DejaVuSans-20" x="998.324219"/>
      <use xlink:href="#DejaVuSans-70" x="1030.111328"/>
      <use xlink:href="#DejaVuSans-72" x="1093.587891"/>
      <use xlink:href="#DejaVuSans-65" x="1132.451172"/>
      <use xlink:href="#DejaVuSans-64" x="1193.974609"/>
      <use xlink:href="#DejaVuSans-69" x="1257.451172"/>
      <use xlink:href="#DejaVuSans-63" x="1285.234375"/>
      <use xlink:href="#DejaVuSans-74" x="1340.214844"/>
      <use xlink:href="#DejaVuSans-69" x="1379.423828"/>
      <use xlink:href="#DejaVuSans-6f" x="1407.207031"/>
      <use xlink:href="#DejaVuSans-6e" x="1468.388672"/>
      <use xlink:href="#DejaVuSans-73" x="1531.767578"/>
     </g>
    </g>
   </g>
  </g>
 </g>
 <defs>
  <clipPath id="p161f63cbe2">
   <rect x="57.6" y="41.472" width="357.12" height="266.112"/>
  </clipPath>
 </defs>
</svg>
