<?xml version="1.0" encoding="utf-8" standalone="no"?>
<!DOCTYPE svg PUBLIC "-//W3C//DTD SVG 1.1//EN"
  "http://www.w3.org/Graphics/SVG/1.1/DTD/svg11.dtd">
<svg xmlns:xlink="http://www.w3.org/1999/xlink" width="460.8pt" height="345.6pt" viewBox="0 0 460.8 345.6" xmlns="http://www.w3.org/2000/svg" version="1.1">
 <metadata>
  <rdf:RDF xmlns:dc="http://purl.org/dc/elements/1.1/" xmlns:cc="http://creativecommons.org/ns#" xmlns:rdf="http://www.w3.org/1999/02/22-rdf-syntax-ns#">
   <cc:Work>
    <dc:type rdf:resource="http://purl.org/dc/dcmitype/StillImage"/>
    <dc:date>2024-05-30T19:29:47.108071</dc:date>
    <dc:format>image/svg+xml</dc:format>
    <dc:creator>
     <cc:Agent>
      <dc:title>Matplotlib v3.9.0, https://matplotlib.org/</dc:title>
     </cc:Agent>
    </dc:creator>
   </cc:Work>
  </rdf:RDF>
 </metadata>
 <defs>
  <style type="text/css">*{stroke-linejoin: round; stroke-linecap: butt}</style>
 </defs>
 <g id="figure_1">
  <g id="patch_1">
   <path d="M 0 345.6 
L 460.8 345.6 
L 460.8 0 
L 0 0 
z
" style="fill: #ffffff"/>
  </g>
  <g id="axes_1">
   <g id="patch_2">
    <path d="M 57.6 307.584 
L 414.72 307.584 
L 414.72 41.472 
L 57.6 41.472 
z
" style="fill: #ffffff"/>
   </g>
   <g id="matplotlib.axis_1">
    <g id="xtick_1">
     <g id="line2d_1">
      <defs>
       <path id="m465a3c31f5" d="M 0 0 
L 0 3.5 
" style="stroke: #000000; stroke-width: 0.8"/>
      </defs>
      <g>
       <use xlink:href="#m465a3c31f5" x="73.832727" y="307.584" style="stroke: #000000; stroke-width: 0.8"/>
      </g>
     </g>
     <g id="text_1">
      <!-- 0 -->
      <g transform="translate(70.651477 322.182437) scale(0.1 -0.1)">
       <defs>
        <path id="DejaVuSans-30" d="M 2034 4250 
Q 1547 4250 1301 3770 
Q 1056 3291 1056 2328 
Q 1056 1369 1301 889 
Q 1547 409 2034 409 
Q 2525 409 2770 889 
Q 3016 1369 3016 2328 
Q 3016 3291 2770 3770 
Q 2525 4250 2034 4250 
z
M 2034 4750 
Q 2819 4750 3233 4129 
Q 3647 3509 3647 2328 
Q 3647 1150 3233 529 
Q 2819 -91 2034 -91 
Q 1250 -91 836 529 
Q 422 1150 422 2328 
Q 422 3509 836 4129 
Q 1250 4750 2034 4750 
z
" transform="scale(0.015625)"/>
       </defs>
       <use xlink:href="#DejaVuSans-30"/>
      </g>
     </g>
    </g>
    <g id="xtick_2">
     <g id="line2d_2">
      <g>
       <use xlink:href="#m465a3c31f5" x="118.003414" y="307.584" style="stroke: #000000; stroke-width: 0.8"/>
      </g>
     </g>
     <g id="text_2">
      <!-- 20 -->
      <g transform="translate(111.640914 322.182437) scale(0.1 -0.1)">
       <defs>
        <path id="DejaVuSans-32" d="M 1228 531 
L 3431 531 
L 3431 0 
L 469 0 
L 469 531 
Q 828 903 1448 1529 
Q 2069 2156 2228 2338 
Q 2531 2678 2651 2914 
Q 2772 3150 2772 3378 
Q 2772 3750 2511 3984 
Q 2250 4219 1831 4219 
Q 1534 4219 1204 4116 
Q 875 4013 500 3803 
L 500 4441 
Q 881 4594 1212 4672 
Q 1544 4750 1819 4750 
Q 2544 4750 2975 4387 
Q 3406 4025 3406 3419 
Q 3406 3131 3298 2873 
Q 3191 2616 2906 2266 
Q 2828 2175 2409 1742 
Q 1991 1309 1228 531 
z
" transform="scale(0.015625)"/>
       </defs>
       <use xlink:href="#DejaVuSans-32"/>
       <use xlink:href="#DejaVuSans-30" x="63.623047"/>
      </g>
     </g>
    </g>
    <g id="xtick_3">
     <g id="line2d_3">
      <g>
       <use xlink:href="#m465a3c31f5" x="162.1741" y="307.584" style="stroke: #000000; stroke-width: 0.8"/>
      </g>
     </g>
     <g id="text_3">
      <!-- 40 -->
      <g transform="translate(155.8116 322.182437) scale(0.1 -0.1)">
       <defs>
        <path id="DejaVuSans-34" d="M 2419 4116 
L 825 1625 
L 2419 1625 
L 2419 4116 
z
M 2253 4666 
L 3047 4666 
L 3047 1625 
L 3713 1625 
L 3713 1100 
L 3047 1100 
L 3047 0 
L 2419 0 
L 2419 1100 
L 313 1100 
L 313 1709 
L 2253 4666 
z
" transform="scale(0.015625)"/>
       </defs>
       <use xlink:href="#DejaVuSans-34"/>
       <use xlink:href="#DejaVuSans-30" x="63.623047"/>
      </g>
     </g>
    </g>
    <g id="xtick_4">
     <g id="line2d_4">
      <g>
       <use xlink:href="#m465a3c31f5" x="206.344787" y="307.584" style="stroke: #000000; stroke-width: 0.8"/>
      </g>
     </g>
     <g id="text_4">
      <!-- 60 -->
      <g transform="translate(199.982287 322.182437) scale(0.1 -0.1)">
       <defs>
        <path id="DejaVuSans-36" d="M 2113 2584 
Q 1688 2584 1439 2293 
Q 1191 2003 1191 1497 
Q 1191 994 1439 701 
Q 1688 409 2113 409 
Q 2538 409 2786 701 
Q 3034 994 3034 1497 
Q 3034 2003 2786 2293 
Q 2538 2584 2113 2584 
z
M 3366 4563 
L 3366 3988 
Q 3128 4100 2886 4159 
Q 2644 4219 2406 4219 
Q 1781 4219 1451 3797 
Q 1122 3375 1075 2522 
Q 1259 2794 1537 2939 
Q 1816 3084 2150 3084 
Q 2853 3084 3261 2657 
Q 3669 2231 3669 1497 
Q 3669 778 3244 343 
Q 2819 -91 2113 -91 
Q 1303 -91 875 529 
Q 447 1150 447 2328 
Q 447 3434 972 4092 
Q 1497 4750 2381 4750 
Q 2619 4750 2861 4703 
Q 3103 4656 3366 4563 
z
" transform="scale(0.015625)"/>
       </defs>
       <use xlink:href="#DejaVuSans-36"/>
       <use xlink:href="#DejaVuSans-30" x="63.623047"/>
      </g>
     </g>
    </g>
    <g id="xtick_5">
     <g id="line2d_5">
      <g>
       <use xlink:href="#m465a3c31f5" x="250.515473" y="307.584" style="stroke: #000000; stroke-width: 0.8"/>
      </g>
     </g>
     <g id="text_5">
      <!-- 80 -->
      <g transform="translate(244.152973 322.182437) scale(0.1 -0.1)">
       <defs>
        <path id="DejaVuSans-38" d="M 2034 2216 
Q 1584 2216 1326 1975 
Q 1069 1734 1069 1313 
Q 1069 891 1326 650 
Q 1584 409 2034 409 
Q 2484 409 2743 651 
Q 3003 894 3003 1313 
Q 3003 1734 2745 1975 
Q 2488 2216 2034 2216 
z
M 1403 2484 
Q 997 2584 770 2862 
Q 544 3141 544 3541 
Q 544 4100 942 4425 
Q 1341 4750 2034 4750 
Q 2731 4750 3128 4425 
Q 3525 4100 3525 3541 
Q 3525 3141 3298 2862 
Q 3072 2584 2669 2484 
Q 3125 2378 3379 2068 
Q 3634 1759 3634 1313 
Q 3634 634 3220 271 
Q 2806 -91 2034 -91 
Q 1263 -91 848 271 
Q 434 634 434 1313 
Q 434 1759 690 2068 
Q 947 2378 1403 2484 
z
M 1172 3481 
Q 1172 3119 1398 2916 
Q 1625 2713 2034 2713 
Q 2441 2713 2670 2916 
Q 2900 3119 2900 3481 
Q 2900 3844 2670 4047 
Q 2441 4250 2034 4250 
Q 1625 4250 1398 4047 
Q 1172 3844 1172 3481 
z
" transform="scale(0.015625)"/>
       </defs>
       <use xlink:href="#DejaVuSans-38"/>
       <use xlink:href="#DejaVuSans-30" x="63.623047"/>
      </g>
     </g>
    </g>
    <g id="xtick_6">
     <g id="line2d_6">
      <g>
       <use xlink:href="#m465a3c31f5" x="294.68616" y="307.584" style="stroke: #000000; stroke-width: 0.8"/>
      </g>
     </g>
     <g id="text_6">
      <!-- 100 -->
      <g transform="translate(285.14241 322.182437) scale(0.1 -0.1)">
       <defs>
        <path id="DejaVuSans-31" d="M 794 531 
L 1825 531 
L 1825 4091 
L 703 3866 
L 703 4441 
L 1819 4666 
L 2450 4666 
L 2450 531 
L 3481 531 
L 3481 0 
L 794 0 
L 794 531 
z
" transform="scale(0.015625)"/>
       </defs>
       <use xlink:href="#DejaVuSans-31"/>
       <use xlink:href="#DejaVuSans-30" x="63.623047"/>
       <use xlink:href="#DejaVuSans-30" x="127.246094"/>
      </g>
     </g>
    </g>
    <g id="xtick_7">
     <g id="line2d_7">
      <g>
       <use xlink:href="#m465a3c31f5" x="338.856846" y="307.584" style="stroke: #000000; stroke-width: 0.8"/>
      </g>
     </g>
     <g id="text_7">
      <!-- 120 -->
      <g transform="translate(329.313096 322.182437) scale(0.1 -0.1)">
       <use xlink:href="#DejaVuSans-31"/>
       <use xlink:href="#DejaVuSans-32" x="63.623047"/>
       <use xlink:href="#DejaVuSans-30" x="127.246094"/>
      </g>
     </g>
    </g>
    <g id="xtick_8">
     <g id="line2d_8">
      <g>
       <use xlink:href="#m465a3c31f5" x="383.027532" y="307.584" style="stroke: #000000; stroke-width: 0.8"/>
      </g>
     </g>
     <g id="text_8">
      <!-- 140 -->
      <g transform="translate(373.483782 322.182437) scale(0.1 -0.1)">
       <use xlink:href="#DejaVuSans-31"/>
       <use xlink:href="#DejaVuSans-34" x="63.623047"/>
       <use xlink:href="#DejaVuSans-30" x="127.246094"/>
      </g>
     </g>
    </g>
   </g>
   <g id="matplotlib.axis_2">
    <g id="ytick_1">
     <g id="line2d_9">
      <defs>
       <path id="maff500f7da" d="M 0 0 
L -3.5 0 
" style="stroke: #000000; stroke-width: 0.8"/>
      </defs>
      <g>
       <use xlink:href="#maff500f7da" x="57.6" y="285.213251" style="stroke: #000000; stroke-width: 0.8"/>
      </g>
     </g>
     <g id="text_9">
      <!-- −400 -->
      <g transform="translate(23.132812 289.01247) scale(0.1 -0.1)">
       <defs>
        <path id="DejaVuSans-2212" d="M 678 2272 
L 4684 2272 
L 4684 1741 
L 678 1741 
L 678 2272 
z
" transform="scale(0.015625)"/>
       </defs>
       <use xlink:href="#DejaVuSans-2212"/>
       <use xlink:href="#DejaVuSans-34" x="83.789062"/>
       <use xlink:href="#DejaVuSans-30" x="147.412109"/>
       <use xlink:href="#DejaVuSans-30" x="211.035156"/>
      </g>
     </g>
    </g>
    <g id="ytick_2">
     <g id="line2d_10">
      <g>
       <use xlink:href="#maff500f7da" x="57.6" y="252.255136" style="stroke: #000000; stroke-width: 0.8"/>
      </g>
     </g>
     <g id="text_10">
      <!-- −300 -->
      <g transform="translate(23.132812 256.054354) scale(0.1 -0.1)">
       <defs>
        <path id="DejaVuSans-33" d="M 2597 2516 
Q 3050 2419 3304 2112 
Q 3559 1806 3559 1356 
Q 3559 666 3084 287 
Q 2609 -91 1734 -91 
Q 1441 -91 1130 -33 
Q 819 25 488 141 
L 488 750 
Q 750 597 1062 519 
Q 1375 441 1716 441 
Q 2309 441 2620 675 
Q 2931 909 2931 1356 
Q 2931 1769 2642 2001 
Q 2353 2234 1838 2234 
L 1294 2234 
L 1294 2753 
L 1863 2753 
Q 2328 2753 2575 2939 
Q 2822 3125 2822 3475 
Q 2822 3834 2567 4026 
Q 2313 4219 1838 4219 
Q 1578 4219 1281 4162 
Q 984 4106 628 3988 
L 628 4550 
Q 988 4650 1302 4700 
Q 1616 4750 1894 4750 
Q 2613 4750 3031 4423 
Q 3450 4097 3450 3541 
Q 3450 3153 3228 2886 
Q 3006 2619 2597 2516 
z
" transform="scale(0.015625)"/>
       </defs>
       <use xlink:href="#DejaVuSans-2212"/>
       <use xlink:href="#DejaVuSans-33" x="83.789062"/>
       <use xlink:href="#DejaVuSans-30" x="147.412109"/>
       <use xlink:href="#DejaVuSans-30" x="211.035156"/>
      </g>
     </g>
    </g>
    <g id="ytick_3">
     <g id="line2d_11">
      <g>
       <use xlink:href="#maff500f7da" x="57.6" y="219.29702" style="stroke: #000000; stroke-width: 0.8"/>
      </g>
     </g>
     <g id="text_11">
      <!-- −200 -->
      <g transform="translate(23.132812 223.096239) scale(0.1 -0.1)">
       <use xlink:href="#DejaVuSans-2212"/>
       <use xlink:href="#DejaVuSans-32" x="83.789062"/>
       <use xlink:href="#DejaVuSans-30" x="147.412109"/>
       <use xlink:href="#DejaVuSans-30" x="211.035156"/>
      </g>
     </g>
    </g>
    <g id="ytick_4">
     <g id="line2d_12">
      <g>
       <use xlink:href="#maff500f7da" x="57.6" y="186.338904" style="stroke: #000000; stroke-width: 0.8"/>
      </g>
     </g>
     <g id="text_12">
      <!-- −100 -->
      <g transform="translate(23.132812 190.138123) scale(0.1 -0.1)">
       <use xlink:href="#DejaVuSans-2212"/>
       <use xlink:href="#DejaVuSans-31" x="83.789062"/>
       <use xlink:href="#DejaVuSans-30" x="147.412109"/>
       <use xlink:href="#DejaVuSans-30" x="211.035156"/>
      </g>
     </g>
    </g>
    <g id="ytick_5">
     <g id="line2d_13">
      <g>
       <use xlink:href="#maff500f7da" x="57.6" y="153.380789" style="stroke: #000000; stroke-width: 0.8"/>
      </g>
     </g>
     <g id="text_13">
      <!-- 0 -->
      <g transform="translate(44.2375 157.180008) scale(0.1 -0.1)">
       <use xlink:href="#DejaVuSans-30"/>
      </g>
     </g>
    </g>
    <g id="ytick_6">
     <g id="line2d_14">
      <g>
       <use xlink:href="#maff500f7da" x="57.6" y="120.422673" style="stroke: #000000; stroke-width: 0.8"/>
      </g>
     </g>
     <g id="text_14">
      <!-- 100 -->
      <g transform="translate(31.5125 124.221892) scale(0.1 -0.1)">
       <use xlink:href="#DejaVuSans-31"/>
       <use xlink:href="#DejaVuSans-30" x="63.623047"/>
       <use xlink:href="#DejaVuSans-30" x="127.246094"/>
      </g>
     </g>
    </g>
    <g id="ytick_7">
     <g id="line2d_15">
      <g>
       <use xlink:href="#maff500f7da" x="57.6" y="87.464558" style="stroke: #000000; stroke-width: 0.8"/>
      </g>
     </g>
     <g id="text_15">
      <!-- 200 -->
      <g transform="translate(31.5125 91.263777) scale(0.1 -0.1)">
       <use xlink:href="#DejaVuSans-32"/>
       <use xlink:href="#DejaVuSans-30" x="63.623047"/>
       <use xlink:href="#DejaVuSans-30" x="127.246094"/>
      </g>
     </g>
    </g>
    <g id="ytick_8">
     <g id="line2d_16">
      <g>
       <use xlink:href="#maff500f7da" x="57.6" y="54.506442" style="stroke: #000000; stroke-width: 0.8"/>
      </g>
     </g>
     <g id="text_16">
      <!-- 300 -->
      <g transform="translate(31.5125 58.305661) scale(0.1 -0.1)">
       <use xlink:href="#DejaVuSans-33"/>
       <use xlink:href="#DejaVuSans-30" x="63.623047"/>
       <use xlink:href="#DejaVuSans-30" x="127.246094"/>
      </g>
     </g>
    </g>
   </g>
   <g id="line2d_17">
    <path d="M 73.832727 154.292857 
L 76.041262 154.803131 
L 78.249796 152.571575 
L 80.45833 155.938091 
L 82.666865 154.583998 
L 84.875399 155.326205 
L 87.083933 152.621642 
L 89.292468 155.012841 
L 91.501002 152.627249 
L 93.709536 155.17685 
L 95.918071 152.759816 
L 98.126605 154.737113 
L 100.335139 153.617429 
L 102.543673 153.493126 
L 104.752208 154.132714 
L 106.960742 153.883226 
L 109.169276 153.895801 
L 111.377811 151.723532 
L 115.794879 157.335702 
L 118.003414 150.849429 
L 120.211948 156.827637 
L 122.420482 154.833137 
L 124.629017 153.22815 
L 126.837551 156.115377 
L 129.046085 153.693436 
L 131.25462 154.835407 
L 133.463154 152.525282 
L 135.671688 154.643595 
L 137.880223 153.549268 
L 140.088757 152.231418 
L 142.297291 153.321874 
L 144.505826 157.560042 
L 146.71436 154.060555 
L 148.922894 153.532773 
L 151.131429 154.205485 
L 153.339963 150.750872 
L 155.548497 159.529709 
L 157.757032 152.472687 
L 159.965566 155.392397 
L 162.1741 152.134346 
L 164.382635 156.328595 
L 166.591169 153.638771 
L 168.799703 153.585283 
L 171.008237 154.610714 
L 173.216772 153.41276 
L 175.425306 155.093333 
L 177.63384 153.166921 
L 179.842375 151.408954 
L 182.050909 158.091949 
L 184.259443 148.317786 
L 186.467978 161.302305 
L 188.676512 156.951802 
L 190.885046 162.284599 
L 193.093581 156.187233 
L 195.302115 154.016139 
L 197.510649 157.096835 
L 199.719184 153.816062 
L 201.927718 153.903394 
L 204.136252 154.893229 
L 206.344787 154.131196 
L 208.553321 153.237492 
L 210.761855 153.624744 
L 212.97039 155.145555 
L 215.178924 150.881762 
L 217.387458 156.46147 
L 219.595993 156.150765 
L 221.804527 149.366125 
L 224.013061 158.629357 
L 226.221596 153.723365 
L 228.43013 154.989469 
L 230.638664 153.230707 
L 232.847199 156.060353 
L 235.055733 153.350664 
L 237.264267 155.977688 
L 239.472801 152.066842 
L 241.681336 154.166749 
L 243.88987 155.808196 
L 246.098404 155.36196 
L 248.306939 151.66482 
L 250.515473 153.697757 
L 252.724007 153.771579 
L 254.932542 155.413809 
L 257.141076 152.665711 
L 259.34961 155.561348 
L 261.558145 154.194516 
L 263.766679 156.606272 
L 265.975213 153.424221 
L 268.183748 152.606113 
L 270.392282 153.03204 
L 272.600816 157.484141 
L 274.809351 154.093189 
L 277.017885 156.600733 
L 279.226419 155.989245 
L 281.434954 152.523851 
L 283.643488 152.674163 
L 285.852022 151.363623 
L 288.060557 159.620608 
L 290.269091 149.379592 
L 292.477625 161.715803 
L 294.68616 150.265384 
L 296.894694 155.356997 
L 299.103228 161.069177 
L 301.311763 151.294385 
L 303.520297 153.840928 
L 305.728831 152.206165 
L 307.937365 157.425293 
L 310.1459 155.73909 
L 312.354434 143.589296 
L 314.562968 163.087061 
L 316.771503 154.859919 
L 318.980037 159.763848 
L 321.188571 157.744068 
L 323.397106 153.009542 
L 325.60564 155.029269 
L 327.814174 147.516244 
L 330.022709 158.664979 
L 332.231243 156.139343 
L 334.439777 154.820325 
L 336.648312 160.421243 
L 341.06538 151.932179 
L 343.273915 157.662752 
L 345.482449 154.785771 
L 347.690983 159.900977 
L 349.899518 151.503097 
L 352.108052 153.219685 
L 354.316586 155.727698 
L 356.525121 153.713822 
L 360.942189 154.859808 
L 363.150724 152.453566 
L 365.359258 157.002382 
L 367.567792 155.815884 
L 369.776327 154.145238 
L 371.984861 156.313838 
L 374.193395 152.940623 
L 376.401929 152.397406 
L 378.610464 155.820881 
L 380.818998 152.763517 
L 383.027532 150.616509 
L 385.236067 157.273227 
L 387.444601 153.314884 
L 389.653135 159.34311 
L 391.86167 154.417421 
L 394.070204 154.279435 
L 396.278738 154.326951 
L 398.487273 152.20096 
L 398.487273 152.20096 
" clip-path="url(#p8d8c29ed37)" style="fill: none; stroke: #008000; stroke-opacity: 0.8; stroke-width: 0.5; stroke-linecap: square"/>
   </g>
   <g id="line2d_18">
    <path d="M 73.832727 136.018116 
L 76.041262 143.348234 
L 78.249796 132.101402 
L 80.45833 133.346022 
L 82.666865 143.928378 
L 84.875399 144.67805 
L 87.083933 146.064165 
L 89.292468 144.979768 
L 91.501002 148.168269 
L 93.709536 141.563338 
L 95.918071 143.639974 
L 98.126605 144.914111 
L 100.335139 144.715107 
L 102.543673 146.653651 
L 104.752208 147.0332 
L 106.960742 148.08501 
L 109.169276 123.887024 
L 111.377811 129.876922 
L 113.586345 140.741319 
L 115.794879 136.887283 
L 118.003414 119.049537 
L 120.211948 136.207082 
L 122.420482 130.596793 
L 124.629017 133.937454 
L 126.837551 144.256135 
L 129.046085 148.220083 
L 131.25462 147.634 
L 133.463154 133.833444 
L 135.671688 145.648882 
L 137.880223 149.87756 
L 140.088757 135.926962 
L 142.297291 131.401537 
L 144.505826 143.40122 
L 146.71436 147.316284 
L 148.922894 145.617407 
L 151.131429 147.300656 
L 153.339963 132.43754 
L 155.548497 124.693704 
L 157.757032 128.60088 
L 159.965566 149.144545 
L 162.1741 141.730568 
L 164.382635 135.500439 
L 166.591169 149.032821 
L 168.799703 148.212921 
L 171.008237 149.1682 
L 173.216772 143.246069 
L 175.425306 151.286274 
L 177.63384 144.064452 
L 179.842375 139.833054 
L 182.050909 132.878627 
L 184.259443 124.489653 
L 186.467978 88.894607 
L 188.676512 60.027483 
L 190.885046 103.424636 
L 193.093581 122.89847 
L 195.302115 121.243425 
L 197.510649 132.505918 
L 199.719184 142.082165 
L 201.927718 91.960881 
L 204.136252 125.991721 
L 206.344787 139.408575 
L 208.553321 136.488619 
L 210.761855 140.978898 
L 212.97039 146.630711 
L 215.178924 103.033321 
L 217.387458 129.499375 
L 219.595993 133.483824 
L 221.804527 129.931954 
L 224.013061 119.219395 
L 226.221596 136.679259 
L 228.43013 142.702046 
L 230.638664 142.675755 
L 232.847199 133.79208 
L 235.055733 141.007995 
L 237.264267 120.147424 
L 239.472801 146.358077 
L 241.681336 120.004321 
L 243.88987 133.148508 
L 246.098404 139.224241 
L 248.306939 141.57555 
L 250.515473 136.463532 
L 252.724007 129.985784 
L 254.932542 143.869891 
L 257.141076 144.987021 
L 259.34961 137.440839 
L 261.558145 139.973054 
L 263.766679 138.516647 
L 265.975213 141.95083 
L 268.183748 136.93018 
L 270.392282 146.441571 
L 272.600816 134.196331 
L 274.809351 124.876997 
L 277.017885 140.919143 
L 279.226419 142.958548 
L 281.434954 139.830036 
L 283.643488 116.371134 
L 285.852022 129.325073 
L 288.060557 144.306381 
L 290.269091 120.422555 
L 292.477625 141.342395 
L 294.68616 105.826446 
L 296.894694 116.588892 
L 299.103228 120.770278 
L 301.311763 127.997809 
L 303.520297 129.259407 
L 305.728831 94.039944 
L 307.937365 98.131954 
L 310.1459 89.524701 
L 312.354434 122.18794 
L 314.562968 116.015049 
L 316.771503 133.691135 
L 318.980037 133.938839 
L 321.188571 136.83046 
L 323.397106 131.157007 
L 325.60564 99.729559 
L 327.814174 83.04542 
L 330.022709 121.013814 
L 332.231243 115.877135 
L 334.439777 121.866658 
L 336.648312 122.761423 
L 338.856846 132.043955 
L 341.06538 119.898814 
L 343.273915 130.993231 
L 345.482449 132.06648 
L 347.690983 131.927555 
L 349.899518 126.743013 
L 352.108052 131.93265 
L 354.316586 127.587501 
L 356.525121 125.434277 
L 358.733655 141.442595 
L 360.942189 130.876076 
L 363.150724 137.728052 
L 365.359258 136.040943 
L 367.567792 143.417134 
L 369.776327 140.747247 
L 371.984861 140.979802 
L 374.193395 138.2938 
L 376.401929 132.454518 
L 378.610464 134.418059 
L 380.818998 130.579229 
L 383.027532 130.916293 
L 385.236067 134.326711 
L 387.444601 134.367311 
L 389.653135 132.901174 
L 391.86167 140.789291 
L 394.070204 143.578824 
L 396.278738 141.441659 
L 398.487273 124.294901 
L 398.487273 124.294901 
" clip-path="url(#p8d8c29ed37)" style="fill: none; stroke: #32cd32; stroke-opacity: 0.8; stroke-width: 0.5; stroke-linecap: square"/>
   </g>
   <g id="line2d_19">
    <path d="M 73.832727 168.893226 
L 76.041262 168.864869 
L 78.249796 193.114669 
L 80.45833 168.710827 
L 82.666865 164.981718 
L 84.875399 167.082275 
L 87.083933 161.52579 
L 89.292468 170.8815 
L 91.501002 157.752648 
L 93.709536 162.817508 
L 95.918071 160.879117 
L 98.126605 163.363865 
L 100.335139 163.534863 
L 102.543673 160.203103 
L 104.752208 159.773012 
L 106.960742 159.92842 
L 109.169276 183.350209 
L 111.377811 184.011146 
L 113.586345 170.282794 
L 115.794879 171.58359 
L 118.003414 166.641266 
L 120.211948 210.978314 
L 122.420482 185.800556 
L 124.629017 164.325906 
L 126.837551 167.651323 
L 129.046085 162.957615 
L 131.25462 170.665818 
L 133.463154 163.94242 
L 135.671688 160.378408 
L 137.880223 161.25001 
L 140.088757 164.62408 
L 142.297291 168.503016 
L 144.505826 176.965451 
L 146.71436 162.452516 
L 148.922894 160.367907 
L 151.131429 161.828036 
L 153.339963 160.696917 
L 155.548497 181.309904 
L 157.757032 168.163074 
L 159.965566 165.435007 
L 162.1741 163.66176 
L 164.382635 175.655438 
L 166.591169 160.464649 
L 168.799703 162.755149 
L 171.008237 160.790308 
L 173.216772 167.070069 
L 175.425306 160.71098 
L 177.63384 161.240134 
L 179.842375 160.512533 
L 182.050909 177.626488 
L 184.259443 159.227363 
L 186.467978 243.15526 
L 188.676512 295.488 
L 190.885046 214.447671 
L 193.093581 196.803106 
L 195.302115 175.274883 
L 197.510649 179.442095 
L 199.719184 166.052817 
L 201.927718 199.512981 
L 204.136252 175.952388 
L 206.344787 167.687915 
L 208.553321 167.588393 
L 210.761855 169.690803 
L 212.97039 163.288914 
L 215.178924 196.068826 
L 217.387458 177.270474 
L 219.595993 173.792049 
L 221.804527 166.292637 
L 224.013061 187.660296 
L 226.221596 169.390853 
L 228.43013 172.273633 
L 230.638664 172.084066 
L 232.847199 166.219826 
L 235.055733 170.339373 
L 237.264267 182.682171 
L 239.472801 161.047466 
L 241.681336 194.374095 
L 243.88987 169.735753 
L 246.098404 174.3747 
L 248.306939 168.243095 
L 250.515473 174.389978 
L 252.724007 190.268174 
L 254.932542 173.320755 
L 257.141076 166.70787 
L 259.34961 181.790727 
L 261.558145 172.198011 
L 263.766679 191.394547 
L 265.975213 167.673598 
L 268.183748 168.294256 
L 270.392282 167.091678 
L 272.600816 176.372617 
L 274.809351 180.110786 
L 277.017885 177.363798 
L 279.226419 168.010834 
L 281.434954 166.606658 
L 283.643488 190.165534 
L 285.852022 185.618935 
L 288.060557 196.732217 
L 290.269091 172.180084 
L 292.477625 198.841048 
L 294.68616 186.460743 
L 296.894694 194.616681 
L 299.103228 207.15775 
L 301.311763 173.881571 
L 303.520297 178.697467 
L 305.728831 197.277028 
L 307.937365 194.169222 
L 310.1459 181.960978 
L 312.354434 187.68853 
L 314.562968 196.78556 
L 316.771503 174.246792 
L 318.980037 194.04801 
L 321.188571 185.967723 
L 323.397106 176.605885 
L 325.60564 183.600537 
L 327.814174 171.596655 
L 330.022709 195.142503 
L 332.231243 191.645662 
L 334.439777 190.976094 
L 336.648312 227.246589 
L 338.856846 197.805331 
L 341.06538 175.378972 
L 343.273915 183.812431 
L 345.482449 185.009841 
L 347.690983 189.748872 
L 349.899518 172.587011 
L 352.108052 169.379326 
L 354.316586 183.323614 
L 356.525121 171.03119 
L 358.733655 173.960937 
L 360.942189 187.748666 
L 363.150724 187.344132 
L 365.359258 175.187869 
L 367.567792 172.650793 
L 369.776327 175.305198 
L 371.984861 169.145868 
L 374.193395 164.407462 
L 376.401929 173.63028 
L 378.610464 169.754648 
L 380.818998 173.756283 
L 383.027532 165.272505 
L 385.236067 172.177809 
L 387.444601 172.3027 
L 389.653135 179.19947 
L 391.86167 177.336086 
L 394.070204 162.516795 
L 396.278738 170.126399 
L 398.487273 168.881858 
L 398.487273 168.881858 
" clip-path="url(#p8d8c29ed37)" style="fill: none; stroke: #32cd32; stroke-opacity: 0.8; stroke-width: 0.5; stroke-linecap: square"/>
   </g>
   <g id="line2d_20">
    <path d="M 73.832727 151.367216 
L 78.249796 152.459296 
L 80.45833 155.499081 
L 82.666865 153.015662 
L 84.875399 153.916534 
L 87.083933 152.09141 
L 89.292468 154.421161 
L 91.501002 152.026306 
L 93.709536 154.839574 
L 95.918071 151.892734 
L 98.126605 153.426527 
L 100.335139 152.8803 
L 102.543673 152.52841 
L 104.752208 153.350903 
L 106.960742 153.173521 
L 109.169276 154.118552 
L 111.377811 150.99048 
L 113.586345 151.148417 
L 115.794879 156.175204 
L 118.003414 148.622745 
L 120.211948 154.005115 
L 122.420482 153.425818 
L 124.629017 152.627951 
L 126.837551 154.868612 
L 129.046085 152.82982 
L 131.25462 154.956143 
L 133.463154 152.020247 
L 135.671688 152.890843 
L 137.880223 153.542041 
L 140.088757 151.418572 
L 142.297291 152.699113 
L 144.505826 155.50663 
L 146.71436 151.962993 
L 148.922894 151.548828 
L 151.131429 152.730685 
L 153.339963 149.075961 
L 155.548497 157.56115 
L 157.757032 150.574588 
L 159.965566 153.722196 
L 162.1741 151.695763 
L 164.382635 154.405823 
L 166.591169 151.932833 
L 168.799703 153.498011 
L 171.008237 153.38153 
L 173.216772 151.997704 
L 175.425306 153.723376 
L 177.63384 152.082076 
L 179.842375 150.694782 
L 182.050909 154.295259 
L 184.259443 145.958971 
L 186.467978 156.647548 
L 188.676512 153.742969 
L 190.885046 155.46889 
L 193.093581 150.591228 
L 195.302115 150.938588 
L 197.510649 154.051686 
L 199.719184 152.21801 
L 201.927718 148.831098 
L 204.136252 152.107429 
L 206.344787 152.583932 
L 208.553321 153.206538 
L 210.761855 152.701626 
L 212.97039 154.403257 
L 215.178924 149.128294 
L 217.387458 153.137915 
L 219.595993 153.315556 
L 221.804527 146.971089 
L 224.013061 154.240716 
L 226.221596 149.453388 
L 228.43013 153.653814 
L 230.638664 152.398947 
L 232.847199 155.605165 
L 235.055733 149.501878 
L 237.264267 153.284041 
L 239.472801 149.948883 
L 241.681336 153.280068 
L 243.88987 153.500522 
L 246.098404 153.469427 
L 248.306939 151.229637 
L 250.515473 153.518869 
L 252.724007 150.223522 
L 254.932542 155.215642 
L 257.141076 152.734132 
L 259.34961 154.875165 
L 261.558145 152.543825 
L 263.766679 153.60169 
L 265.975213 153.417882 
L 268.183748 150.602804 
L 270.392282 152.726507 
L 272.600816 155.203271 
L 274.809351 151.058553 
L 277.017885 152.61892 
L 279.226419 154.043123 
L 281.434954 151.686252 
L 283.643488 152.517702 
L 285.852022 148.92456 
L 288.060557 156.212266 
L 290.269091 146.411531 
L 292.477625 159.343949 
L 294.68616 149.455975 
L 296.894694 149.050096 
L 299.103228 154.917368 
L 301.311763 146.672708 
L 303.520297 150.571032 
L 305.728831 145.998758 
L 307.937365 153.497611 
L 310.1459 156.839302 
L 312.354434 134.721952 
L 314.562968 152.730052 
L 316.771503 150.633538 
L 318.980037 158.329767 
L 321.188571 154.689843 
L 323.397106 148.885819 
L 325.60564 153.368918 
L 327.814174 146.649526 
L 330.022709 153.750799 
L 332.231243 155.812367 
L 334.439777 151.915259 
L 336.648312 158.214302 
L 338.856846 154.967357 
L 341.06538 147.784097 
L 343.273915 153.931441 
L 345.482449 152.803479 
L 347.690983 158.757231 
L 349.899518 150.559206 
L 352.108052 151.222102 
L 354.316586 153.802522 
L 356.525121 152.709929 
L 358.733655 152.455192 
L 360.942189 154.784609 
L 363.150724 152.820533 
L 365.359258 156.308039 
L 367.567792 152.91025 
L 369.776327 151.568975 
L 371.984861 153.559096 
L 374.193395 150.301357 
L 376.401929 150.65964 
L 378.610464 155.296137 
L 380.818998 149.446759 
L 383.027532 149.4184 
L 385.236067 154.73689 
L 387.444601 151.013078 
L 389.653135 156.69915 
L 391.86167 150.080889 
L 394.070204 153.024787 
L 396.278738 152.933289 
L 398.487273 152.221574 
L 398.487273 152.221574 
" clip-path="url(#p8d8c29ed37)" style="fill: none; stroke: #ff0000; stroke-opacity: 0.8; stroke-width: 0.5; stroke-linecap: square"/>
   </g>
   <g id="line2d_21">
    <path d="M 73.832727 134.039008 
L 76.041262 139.861284 
L 78.249796 132.742976 
L 80.45833 128.19858 
L 82.666865 140.638186 
L 84.875399 143.304415 
L 87.083933 145.387395 
L 89.292468 143.83119 
L 91.501002 147.457836 
L 93.709536 141.84889 
L 95.918071 140.830913 
L 98.126605 144.094784 
L 100.335139 145.631268 
L 102.543673 145.521532 
L 104.752208 146.643737 
L 106.960742 148.225545 
L 109.169276 123.607955 
L 111.377811 129.787025 
L 113.586345 132.55167 
L 115.794879 137.100102 
L 118.003414 114.858693 
L 120.211948 135.709464 
L 122.420482 130.612278 
L 124.629017 131.920115 
L 126.837551 142.868748 
L 129.046085 147.786176 
L 131.25462 147.916072 
L 133.463154 132.830148 
L 135.671688 144.869372 
L 137.880223 147.589463 
L 140.088757 139.524896 
L 142.297291 130.605807 
L 144.505826 142.426675 
L 146.71436 145.93469 
L 148.922894 142.896694 
L 151.131429 147.016837 
L 153.339963 130.257508 
L 155.548497 124.186742 
L 157.757032 126.430886 
L 159.965566 142.783097 
L 162.1741 141.796502 
L 164.382635 137.539894 
L 166.591169 145.813677 
L 168.799703 148.376534 
L 171.008237 149.429606 
L 173.216772 143.357632 
L 175.425306 147.515878 
L 177.63384 139.775669 
L 179.842375 136.838291 
L 182.050909 132.593195 
L 184.259443 121.616465 
L 186.467978 96.613694 
L 188.676512 53.568 
L 190.885046 93.860919 
L 193.093581 120.364569 
L 195.302115 119.089662 
L 197.510649 126.712273 
L 199.719184 137.976209 
L 201.927718 93.682243 
L 204.136252 122.987586 
L 206.344787 132.269291 
L 208.553321 135.436941 
L 210.761855 140.609293 
L 212.97039 146.099486 
L 215.178924 98.655471 
L 217.387458 127.518748 
L 219.595993 130.759943 
L 221.804527 129.033358 
L 224.013061 114.317421 
L 226.221596 134.45086 
L 228.43013 138.650177 
L 230.638664 139.819927 
L 232.847199 130.579775 
L 235.055733 135.426215 
L 237.264267 120.758634 
L 239.472801 144.280105 
L 241.681336 116.512637 
L 243.88987 129.423499 
L 246.098404 134.766052 
L 248.306939 140.903999 
L 250.515473 139.907452 
L 252.724007 123.724786 
L 254.932542 143.422255 
L 257.141076 144.844524 
L 259.34961 136.392475 
L 261.558145 136.813238 
L 263.766679 133.531223 
L 265.975213 141.905485 
L 268.183748 136.738643 
L 270.392282 145.727372 
L 272.600816 129.296309 
L 274.809351 123.375346 
L 277.017885 139.106765 
L 279.226419 142.127932 
L 281.434954 140.853826 
L 283.643488 115.595473 
L 285.852022 129.567649 
L 288.060557 135.951305 
L 290.269091 120.621593 
L 292.477625 138.129343 
L 294.68616 102.744885 
L 296.894694 118.821297 
L 299.103228 117.593581 
L 301.311763 122.990938 
L 303.520297 127.325655 
L 305.728831 83.601957 
L 307.937365 79.1847 
L 310.1459 88.04919 
L 312.354434 103.817944 
L 314.562968 113.929746 
L 316.771503 134.352093 
L 318.980037 130.213288 
L 321.188571 132.268339 
L 323.397106 128.986301 
L 325.60564 98.120704 
L 327.814174 79.870879 
L 330.022709 117.026402 
L 332.231243 122.80056 
L 334.439777 122.975108 
L 336.648312 118.305726 
L 338.856846 129.729173 
L 341.06538 122.933871 
L 343.273915 129.128965 
L 345.482449 131.065665 
L 347.690983 128.990988 
L 349.899518 121.939843 
L 352.108052 128.450732 
L 354.316586 126.995072 
L 356.525121 117.451414 
L 358.733655 135.481841 
L 360.942189 130.439756 
L 363.150724 135.311037 
L 365.359258 137.496021 
L 367.567792 133.655325 
L 369.776327 138.367388 
L 371.984861 137.985363 
L 374.193395 136.327272 
L 376.401929 134.447735 
L 378.610464 135.152581 
L 380.818998 127.568953 
L 383.027532 129.115496 
L 385.236067 132.027576 
L 387.444601 132.964703 
L 389.653135 133.299914 
L 391.86167 135.285739 
L 394.070204 144.098103 
L 396.278738 138.809541 
L 398.487273 122.153744 
L 398.487273 122.153744 
" clip-path="url(#p8d8c29ed37)" style="fill: none; stroke: #f08080; stroke-opacity: 0.8; stroke-width: 0.5; stroke-linecap: square"/>
   </g>
   <g id="line2d_22">
    <path d="M 73.832727 166.32677 
L 76.041262 166.160749 
L 78.249796 187.50263 
L 80.45833 172.396195 
L 82.666865 165.99372 
L 84.875399 165.305181 
L 87.083933 161.003976 
L 89.292468 169.851204 
L 91.501002 155.887926 
L 93.709536 162.820757 
L 95.918071 162.347188 
L 98.126605 159.594315 
L 100.335139 163.593315 
L 102.543673 159.00141 
L 104.752208 158.012336 
L 106.960742 159.991639 
L 109.169276 184.861252 
L 111.377811 172.50131 
L 113.586345 167.434598 
L 115.794879 170.833334 
L 118.003414 159.859717 
L 120.211948 211.33001 
L 122.420482 184.248317 
L 124.629017 163.369183 
L 126.837551 167.31912 
L 129.046085 163.424572 
L 131.25462 170.451017 
L 133.463154 164.171661 
L 135.671688 159.5172 
L 137.880223 160.582889 
L 140.088757 162.797943 
L 142.297291 168.493736 
L 144.505826 176.489204 
L 146.71436 161.788913 
L 148.922894 158.310895 
L 151.131429 158.929842 
L 153.339963 161.397696 
L 155.548497 183.345364 
L 157.757032 165.567256 
L 159.965566 163.538107 
L 162.1741 161.819582 
L 164.382635 171.96603 
L 166.591169 159.59319 
L 168.799703 161.637605 
L 171.008237 160.534819 
L 173.216772 162.236886 
L 175.425306 160.7622 
L 177.63384 162.256333 
L 179.842375 161.090448 
L 182.050909 172.015903 
L 184.259443 158.439827 
L 186.467978 215.46374 
L 188.676512 251.34295 
L 190.885046 211.209212 
L 193.093581 184.940852 
L 195.302115 172.956241 
L 197.510649 182.458371 
L 199.719184 164.311562 
L 201.927718 174.802916 
L 204.136252 171.774389 
L 206.344787 165.310221 
L 208.553321 166.414289 
L 210.761855 168.013545 
L 212.97039 160.954325 
L 215.178924 196.937001 
L 217.387458 177.915333 
L 219.595993 171.505861 
L 221.804527 161.334515 
L 224.013061 186.392716 
L 226.221596 167.347124 
L 228.43013 171.154589 
L 230.638664 171.712178 
L 232.847199 169.297046 
L 235.055733 170.615571 
L 237.264267 174.936442 
L 239.472801 157.15648 
L 241.681336 187.5271 
L 243.88987 176.838711 
L 246.098404 175.401286 
L 248.306939 169.497682 
L 250.515473 167.45003 
L 252.724007 181.669057 
L 257.141076 165.389639 
L 259.34961 176.883513 
L 261.558145 167.628191 
L 263.766679 183.636097 
L 265.975213 165.72541 
L 268.183748 165.851709 
L 270.392282 168.83428 
L 272.600816 174.121111 
L 274.809351 174.250455 
L 277.017885 177.409421 
L 279.226419 165.809253 
L 281.434954 162.210741 
L 283.643488 184.985144 
L 285.852022 181.914012 
L 288.060557 188.17425 
L 290.269091 171.394947 
L 292.477625 194.317178 
L 294.68616 185.095483 
L 296.894694 190.710522 
L 299.103228 193.441381 
L 301.311763 170.278703 
L 303.520297 172.573431 
L 305.728831 201.231907 
L 307.937365 196.732965 
L 310.1459 183.545778 
L 312.354434 176.737234 
L 314.562968 195.126118 
L 316.771503 169.005838 
L 318.980037 194.128719 
L 323.397106 176.262834 
L 325.60564 182.578745 
L 327.814174 169.00498 
L 330.022709 194.012033 
L 332.231243 204.294256 
L 334.439777 188.695015 
L 336.648312 234.609562 
L 338.856846 193.975286 
L 341.06538 171.412171 
L 343.273915 180.900013 
L 345.482449 185.274542 
L 347.690983 187.79909 
L 349.899518 173.572739 
L 352.108052 166.945005 
L 354.316586 181.503092 
L 356.525121 169.730753 
L 358.733655 174.240059 
L 360.942189 183.296759 
L 363.150724 177.725784 
L 365.359258 173.566969 
L 367.567792 170.426266 
L 369.776327 173.09695 
L 371.984861 167.699875 
L 374.193395 157.435844 
L 376.401929 172.458712 
L 378.610464 171.505757 
L 380.818998 170.324722 
L 383.027532 166.055604 
L 385.236067 168.45502 
L 389.653135 176.513242 
L 391.86167 178.312285 
L 394.070204 159.877391 
L 396.278738 167.765281 
L 398.487273 167.678913 
L 398.487273 167.678913 
" clip-path="url(#p8d8c29ed37)" style="fill: none; stroke: #f08080; stroke-opacity: 0.8; stroke-width: 0.5; stroke-linecap: square"/>
   </g>
   <g id="patch_3">
    <path d="M 57.6 307.584 
L 57.6 41.472 
" style="fill: none; stroke: #000000; stroke-width: 0.8; stroke-linejoin: miter; stroke-linecap: square"/>
   </g>
   <g id="patch_4">
    <path d="M 414.72 307.584 
L 414.72 41.472 
" style="fill: none; stroke: #000000; stroke-width: 0.8; stroke-linejoin: miter; stroke-linecap: square"/>
   </g>
   <g id="patch_5">
    <path d="M 57.6 307.584 
L 414.72 307.584 
" style="fill: none; stroke: #000000; stroke-width: 0.8; stroke-linejoin: miter; stroke-linecap: square"/>
   </g>
   <g id="patch_6">
    <path d="M 57.6 41.472 
L 414.72 41.472 
" style="fill: none; stroke: #000000; stroke-width: 0.8; stroke-linejoin: miter; stroke-linecap: square"/>
   </g>
   <g id="text_17">
    <!-- zhang_extended_snp500 -->
    <g transform="translate(161.435625 35.472) scale(0.12 -0.12)">
     <defs>
      <path id="DejaVuSans-7a" d="M 353 3500 
L 3084 3500 
L 3084 2975 
L 922 459 
L 3084 459 
L 3084 0 
L 275 0 
L 275 525 
L 2438 3041 
L 353 3041 
L 353 3500 
z
" transform="scale(0.015625)"/>
      <path id="DejaVuSans-68" d="M 3513 2113 
L 3513 0 
L 2938 0 
L 2938 2094 
Q 2938 2591 2744 2837 
Q 2550 3084 2163 3084 
Q 1697 3084 1428 2787 
Q 1159 2491 1159 1978 
L 1159 0 
L 581 0 
L 581 4863 
L 1159 4863 
L 1159 2956 
Q 1366 3272 1645 3428 
Q 1925 3584 2291 3584 
Q 2894 3584 3203 3211 
Q 3513 2838 3513 2113 
z
" transform="scale(0.015625)"/>
      <path id="DejaVuSans-61" d="M 2194 1759 
Q 1497 1759 1228 1600 
Q 959 1441 959 1056 
Q 959 750 1161 570 
Q 1363 391 1709 391 
Q 2188 391 2477 730 
Q 2766 1069 2766 1631 
L 2766 1759 
L 2194 1759 
z
M 3341 1997 
L 3341 0 
L 2766 0 
L 2766 531 
Q 2569 213 2275 61 
Q 1981 -91 1556 -91 
Q 1019 -91 701 211 
Q 384 513 384 1019 
Q 384 1609 779 1909 
Q 1175 2209 1959 2209 
L 2766 2209 
L 2766 2266 
Q 2766 2663 2505 2880 
Q 2244 3097 1772 3097 
Q 1472 3097 1187 3025 
Q 903 2953 641 2809 
L 641 3341 
Q 956 3463 1253 3523 
Q 1550 3584 1831 3584 
Q 2591 3584 2966 3190 
Q 3341 2797 3341 1997 
z
" transform="scale(0.015625)"/>
      <path id="DejaVuSans-6e" d="M 3513 2113 
L 3513 0 
L 2938 0 
L 2938 2094 
Q 2938 2591 2744 2837 
Q 2550 3084 2163 3084 
Q 1697 3084 1428 2787 
Q 1159 2491 1159 1978 
L 1159 0 
L 581 0 
L 581 3500 
L 1159 3500 
L 1159 2956 
Q 1366 3272 1645 3428 
Q 1925 3584 2291 3584 
Q 2894 3584 3203 3211 
Q 3513 2838 3513 2113 
z
" transform="scale(0.015625)"/>
      <path id="DejaVuSans-67" d="M 2906 1791 
Q 2906 2416 2648 2759 
Q 2391 3103 1925 3103 
Q 1463 3103 1205 2759 
Q 947 2416 947 1791 
Q 947 1169 1205 825 
Q 1463 481 1925 481 
Q 2391 481 2648 825 
Q 2906 1169 2906 1791 
z
M 3481 434 
Q 3481 -459 3084 -895 
Q 2688 -1331 1869 -1331 
Q 1566 -1331 1297 -1286 
Q 1028 -1241 775 -1147 
L 775 -588 
Q 1028 -725 1275 -790 
Q 1522 -856 1778 -856 
Q 2344 -856 2625 -561 
Q 2906 -266 2906 331 
L 2906 616 
Q 2728 306 2450 153 
Q 2172 0 1784 0 
Q 1141 0 747 490 
Q 353 981 353 1791 
Q 353 2603 747 3093 
Q 1141 3584 1784 3584 
Q 2172 3584 2450 3431 
Q 2728 3278 2906 2969 
L 2906 3500 
L 3481 3500 
L 3481 434 
z
" transform="scale(0.015625)"/>
      <path id="DejaVuSans-5f" d="M 3263 -1063 
L 3263 -1509 
L -63 -1509 
L -63 -1063 
L 3263 -1063 
z
" transform="scale(0.015625)"/>
      <path id="DejaVuSans-65" d="M 3597 1894 
L 3597 1613 
L 953 1613 
Q 991 1019 1311 708 
Q 1631 397 2203 397 
Q 2534 397 2845 478 
Q 3156 559 3463 722 
L 3463 178 
Q 3153 47 2828 -22 
Q 2503 -91 2169 -91 
Q 1331 -91 842 396 
Q 353 884 353 1716 
Q 353 2575 817 3079 
Q 1281 3584 2069 3584 
Q 2775 3584 3186 3129 
Q 3597 2675 3597 1894 
z
M 3022 2063 
Q 3016 2534 2758 2815 
Q 2500 3097 2075 3097 
Q 1594 3097 1305 2825 
Q 1016 2553 972 2059 
L 3022 2063 
z
" transform="scale(0.015625)"/>
      <path id="DejaVuSans-78" d="M 3513 3500 
L 2247 1797 
L 3578 0 
L 2900 0 
L 1881 1375 
L 863 0 
L 184 0 
L 1544 1831 
L 300 3500 
L 978 3500 
L 1906 2253 
L 2834 3500 
L 3513 3500 
z
" transform="scale(0.015625)"/>
      <path id="DejaVuSans-74" d="M 1172 4494 
L 1172 3500 
L 2356 3500 
L 2356 3053 
L 1172 3053 
L 1172 1153 
Q 1172 725 1289 603 
Q 1406 481 1766 481 
L 2356 481 
L 2356 0 
L 1766 0 
Q 1100 0 847 248 
Q 594 497 594 1153 
L 594 3053 
L 172 3053 
L 172 3500 
L 594 3500 
L 594 4494 
L 1172 4494 
z
" transform="scale(0.015625)"/>
      <path id="DejaVuSans-64" d="M 2906 2969 
L 2906 4863 
L 3481 4863 
L 3481 0 
L 2906 0 
L 2906 525 
Q 2725 213 2448 61 
Q 2172 -91 1784 -91 
Q 1150 -91 751 415 
Q 353 922 353 1747 
Q 353 2572 751 3078 
Q 1150 3584 1784 3584 
Q 2172 3584 2448 3432 
Q 2725 3281 2906 2969 
z
M 947 1747 
Q 947 1113 1208 752 
Q 1469 391 1925 391 
Q 2381 391 2643 752 
Q 2906 1113 2906 1747 
Q 2906 2381 2643 2742 
Q 2381 3103 1925 3103 
Q 1469 3103 1208 2742 
Q 947 2381 947 1747 
z
" transform="scale(0.015625)"/>
      <path id="DejaVuSans-73" d="M 2834 3397 
L 2834 2853 
Q 2591 2978 2328 3040 
Q 2066 3103 1784 3103 
Q 1356 3103 1142 2972 
Q 928 2841 928 2578 
Q 928 2378 1081 2264 
Q 1234 2150 1697 2047 
L 1894 2003 
Q 2506 1872 2764 1633 
Q 3022 1394 3022 966 
Q 3022 478 2636 193 
Q 2250 -91 1575 -91 
Q 1294 -91 989 -36 
Q 684 19 347 128 
L 347 722 
Q 666 556 975 473 
Q 1284 391 1588 391 
Q 1994 391 2212 530 
Q 2431 669 2431 922 
Q 2431 1156 2273 1281 
Q 2116 1406 1581 1522 
L 1381 1569 
Q 847 1681 609 1914 
Q 372 2147 372 2553 
Q 372 3047 722 3315 
Q 1072 3584 1716 3584 
Q 2034 3584 2315 3537 
Q 2597 3491 2834 3397 
z
" transform="scale(0.015625)"/>
      <path id="DejaVuSans-70" d="M 1159 525 
L 1159 -1331 
L 581 -1331 
L 581 3500 
L 1159 3500 
L 1159 2969 
Q 1341 3281 1617 3432 
Q 1894 3584 2278 3584 
Q 2916 3584 3314 3078 
Q 3713 2572 3713 1747 
Q 3713 922 3314 415 
Q 2916 -91 2278 -91 
Q 1894 -91 1617 61 
Q 1341 213 1159 525 
z
M 3116 1747 
Q 3116 2381 2855 2742 
Q 2594 3103 2138 3103 
Q 1681 3103 1420 2742 
Q 1159 2381 1159 1747 
Q 1159 1113 1420 752 
Q 1681 391 2138 391 
Q 2594 391 2855 752 
Q 3116 1113 3116 1747 
z
" transform="scale(0.015625)"/>
      <path id="DejaVuSans-35" d="M 691 4666 
L 3169 4666 
L 3169 4134 
L 1269 4134 
L 1269 2991 
Q 1406 3038 1543 3061 
Q 1681 3084 1819 3084 
Q 2600 3084 3056 2656 
Q 3513 2228 3513 1497 
Q 3513 744 3044 326 
Q 2575 -91 1722 -91 
Q 1428 -91 1123 -41 
Q 819 9 494 109 
L 494 744 
Q 775 591 1075 516 
Q 1375 441 1709 441 
Q 2250 441 2565 725 
Q 2881 1009 2881 1497 
Q 2881 1984 2565 2268 
Q 2250 2553 1709 2553 
Q 1456 2553 1204 2497 
Q 953 2441 691 2322 
L 691 4666 
z
" transform="scale(0.015625)"/>
     </defs>
     <use xlink:href="#DejaVuSans-7a"/>
     <use xlink:href="#DejaVuSans-68" x="52.490234"/>
     <use xlink:href="#DejaVuSans-61" x="115.869141"/>
     <use xlink:href="#DejaVuSans-6e" x="177.148438"/>
     <use xlink:href="#DejaVuSans-67" x="240.527344"/>
     <use xlink:href="#DejaVuSans-5f" x="304.003906"/>
     <use xlink:href="#DejaVuSans-65" x="354.003906"/>
     <use xlink:href="#DejaVuSans-78" x="413.777344"/>
     <use xlink:href="#DejaVuSans-74" x="472.957031"/>
     <use xlink:href="#DejaVuSans-65" x="512.166016"/>
     <use xlink:href="#DejaVuSans-6e" x="573.689453"/>
     <use xlink:href="#DejaVuSans-64" x="637.068359"/>
     <use xlink:href="#DejaVuSans-65" x="700.544922"/>
     <use xlink:href="#DejaVuSans-64" x="762.068359"/>
     <use xlink:href="#DejaVuSans-5f" x="825.544922"/>
     <use xlink:href="#DejaVuSans-73" x="875.544922"/>
     <use xlink:href="#DejaVuSans-6e" x="927.644531"/>
     <use xlink:href="#DejaVuSans-70" x="991.023438"/>
     <use xlink:href="#DejaVuSans-35" x="1054.5"/>
     <use xlink:href="#DejaVuSans-30" x="1118.123047"/>
     <use xlink:href="#DejaVuSans-30" x="1181.746094"/>
    </g>
   </g>
   <g id="legend_1">
    <g id="patch_7">
     <path d="M 247.318437 302.584 
L 407.72 302.584 
Q 409.72 302.584 409.72 300.584 
L 409.72 213.51525 
Q 409.72 211.51525 407.72 211.51525 
L 247.318437 211.51525 
Q 245.318437 211.51525 245.318437 213.51525 
L 245.318437 300.584 
Q 245.318437 302.584 247.318437 302.584 
z
" style="fill: #ffffff; opacity: 0.8; stroke: #cccccc; stroke-linejoin: miter"/>
    </g>
    <g id="line2d_23">
     <path d="M 249.318437 219.613687 
L 259.318437 219.613687 
L 269.318437 219.613687 
" style="fill: none; stroke: #008000; stroke-opacity: 0.8; stroke-width: 0.5; stroke-linecap: square"/>
    </g>
    <g id="text_18">
     <!-- Positive predictions -->
     <g transform="translate(277.318437 223.113687) scale(0.1 -0.1)">
      <defs>
       <path id="DejaVuSans-50" d="M 1259 4147 
L 1259 2394 
L 2053 2394 
Q 2494 2394 2734 2622 
Q 2975 2850 2975 3272 
Q 2975 3691 2734 3919 
Q 2494 4147 2053 4147 
L 1259 4147 
z
M 628 4666 
L 2053 4666 
Q 2838 4666 3239 4311 
Q 3641 3956 3641 3272 
Q 3641 2581 3239 2228 
Q 2838 1875 2053 1875 
L 1259 1875 
L 1259 0 
L 628 0 
L 628 4666 
z
" transform="scale(0.015625)"/>
       <path id="DejaVuSans-6f" d="M 1959 3097 
Q 1497 3097 1228 2736 
Q 959 2375 959 1747 
Q 959 1119 1226 758 
Q 1494 397 1959 397 
Q 2419 397 2687 759 
Q 2956 1122 2956 1747 
Q 2956 2369 2687 2733 
Q 2419 3097 1959 3097 
z
M 1959 3584 
Q 2709 3584 3137 3096 
Q 3566 2609 3566 1747 
Q 3566 888 3137 398 
Q 2709 -91 1959 -91 
Q 1206 -91 779 398 
Q 353 888 353 1747 
Q 353 2609 779 3096 
Q 1206 3584 1959 3584 
z
" transform="scale(0.015625)"/>
       <path id="DejaVuSans-69" d="M 603 3500 
L 1178 3500 
L 1178 0 
L 603 0 
L 603 3500 
z
M 603 4863 
L 1178 4863 
L 1178 4134 
L 603 4134 
L 603 4863 
z
" transform="scale(0.015625)"/>
       <path id="DejaVuSans-76" d="M 191 3500 
L 800 3500 
L 1894 563 
L 2988 3500 
L 3597 3500 
L 2284 0 
L 1503 0 
L 191 3500 
z
" transform="scale(0.015625)"/>
       <path id="DejaVuSans-20" transform="scale(0.015625)"/>
       <path id="DejaVuSans-72" d="M 2631 2963 
Q 2534 3019 2420 3045 
Q 2306 3072 2169 3072 
Q 1681 3072 1420 2755 
Q 1159 2438 1159 1844 
L 1159 0 
L 581 0 
L 581 3500 
L 1159 3500 
L 1159 2956 
Q 1341 3275 1631 3429 
Q 1922 3584 2338 3584 
Q 2397 3584 2469 3576 
Q 2541 3569 2628 3553 
L 2631 2963 
z
" transform="scale(0.015625)"/>
       <path id="DejaVuSans-63" d="M 3122 3366 
L 3122 2828 
Q 2878 2963 2633 3030 
Q 2388 3097 2138 3097 
Q 1578 3097 1268 2742 
Q 959 2388 959 1747 
Q 959 1106 1268 751 
Q 1578 397 2138 397 
Q 2388 397 2633 464 
Q 2878 531 3122 666 
L 3122 134 
Q 2881 22 2623 -34 
Q 2366 -91 2075 -91 
Q 1284 -91 818 406 
Q 353 903 353 1747 
Q 353 2603 823 3093 
Q 1294 3584 2113 3584 
Q 2378 3584 2631 3529 
Q 2884 3475 3122 3366 
z
" transform="scale(0.015625)"/>
      </defs>
      <use xlink:href="#DejaVuSans-50"/>
      <use xlink:href="#DejaVuSans-6f" x="56.677734"/>
      <use xlink:href="#DejaVuSans-73" x="117.859375"/>
      <use xlink:href="#DejaVuSans-69" x="169.958984"/>
      <use xlink:href="#DejaVuSans-74" x="197.742188"/>
      <use xlink:href="#DejaVuSans-69" x="236.951172"/>
      <use xlink:href="#DejaVuSans-76" x="264.734375"/>
      <use xlink:href="#DejaVuSans-65" x="323.914062"/>
      <use xlink:href="#DejaVuSans-20" x="385.4375"/>
      <use xlink:href="#DejaVuSans-70" x="417.224609"/>
      <use xlink:href="#DejaVuSans-72" x="480.701172"/>
      <use xlink:href="#DejaVuSans-65" x="519.564453"/>
      <use xlink:href="#DejaVuSans-64" x="581.087891"/>
      <use xlink:href="#DejaVuSans-69" x="644.564453"/>
      <use xlink:href="#DejaVuSans-63" x="672.347656"/>
      <use xlink:href="#DejaVuSans-74" x="727.328125"/>
      <use xlink:href="#DejaVuSans-69" x="766.537109"/>
      <use xlink:href="#DejaVuSans-6f" x="794.320312"/>
      <use xlink:href="#DejaVuSans-6e" x="855.501953"/>
      <use xlink:href="#DejaVuSans-73" x="918.880859"/>
     </g>
    </g>
    <g id="line2d_24">
     <path d="M 249.318437 234.291812 
L 259.318437 234.291812 
L 269.318437 234.291812 
" style="fill: none; stroke: #32cd32; stroke-opacity: 0.8; stroke-width: 0.5; stroke-linecap: square"/>
    </g>
    <g id="text_19">
     <!-- Positive predictions max -->
     <g transform="translate(277.318437 237.791812) scale(0.1 -0.1)">
      <defs>
       <path id="DejaVuSans-6d" d="M 3328 2828 
Q 3544 3216 3844 3400 
Q 4144 3584 4550 3584 
Q 5097 3584 5394 3201 
Q 5691 2819 5691 2113 
L 5691 0 
L 5113 0 
L 5113 2094 
Q 5113 2597 4934 2840 
Q 4756 3084 4391 3084 
Q 3944 3084 3684 2787 
Q 3425 2491 3425 1978 
L 3425 0 
L 2847 0 
L 2847 2094 
Q 2847 2600 2669 2842 
Q 2491 3084 2119 3084 
Q 1678 3084 1418 2786 
Q 1159 2488 1159 1978 
L 1159 0 
L 581 0 
L 581 3500 
L 1159 3500 
L 1159 2956 
Q 1356 3278 1631 3431 
Q 1906 3584 2284 3584 
Q 2666 3584 2933 3390 
Q 3200 3197 3328 2828 
z
" transform="scale(0.015625)"/>
      </defs>
      <use xlink:href="#DejaVuSans-50"/>
      <use xlink:href="#DejaVuSans-6f" x="56.677734"/>
      <use xlink:href="#DejaVuSans-73" x="117.859375"/>
      <use xlink:href="#DejaVuSans-69" x="169.958984"/>
      <use xlink:href="#DejaVuSans-74" x="197.742188"/>
      <use xlink:href="#DejaVuSans-69" x="236.951172"/>
      <use xlink:href="#DejaVuSans-76" x="264.734375"/>
      <use xlink:href="#DejaVuSans-65" x="323.914062"/>
      <use xlink:href="#DejaVuSans-20" x="385.4375"/>
      <use xlink:href="#DejaVuSans-70" x="417.224609"/>
      <use xlink:href="#DejaVuSans-72" x="480.701172"/>
      <use xlink:href="#DejaVuSans-65" x="519.564453"/>
      <use xlink:href="#DejaVuSans-64" x="581.087891"/>
      <use xlink:href="#DejaVuSans-69" x="644.564453"/>
      <use xlink:href="#DejaVuSans-63" x="672.347656"/>
      <use xlink:href="#DejaVuSans-74" x="727.328125"/>
      <use xlink:href="#DejaVuSans-69" x="766.537109"/>
      <use xlink:href="#DejaVuSans-6f" x="794.320312"/>
      <use xlink:href="#DejaVuSans-6e" x="855.501953"/>
      <use xlink:href="#DejaVuSans-73" x="918.880859"/>
      <use xlink:href="#DejaVuSans-20" x="970.980469"/>
      <use xlink:href="#DejaVuSans-6d" x="1002.767578"/>
      <use xlink:href="#DejaVuSans-61" x="1100.179688"/>
      <use xlink:href="#DejaVuSans-78" x="1161.458984"/>
     </g>
    </g>
    <g id="line2d_25">
     <path d="M 249.318437 248.969937 
L 259.318437 248.969937 
L 269.318437 248.969937 
" style="fill: none; stroke: #32cd32; stroke-opacity: 0.8; stroke-width: 0.5; stroke-linecap: square"/>
    </g>
    <g id="text_20">
     <!-- Positive predictions min -->
     <g transform="translate(277.318437 252.469937) scale(0.1 -0.1)">
      <use xlink:href="#DejaVuSans-50"/>
      <use xlink:href="#DejaVuSans-6f" x="56.677734"/>
      <use xlink:href="#DejaVuSans-73" x="117.859375"/>
      <use xlink:href="#DejaVuSans-69" x="169.958984"/>
      <use xlink:href="#DejaVuSans-74" x="197.742188"/>
      <use xlink:href="#DejaVuSans-69" x="236.951172"/>
      <use xlink:href="#DejaVuSans-76" x="264.734375"/>
      <use xlink:href="#DejaVuSans-65" x="323.914062"/>
      <use xlink:href="#DejaVuSans-20" x="385.4375"/>
      <use xlink:href="#DejaVuSans-70" x="417.224609"/>
      <use xlink:href="#DejaVuSans-72" x="480.701172"/>
      <use xlink:href="#DejaVuSans-65" x="519.564453"/>
      <use xlink:href="#DejaVuSans-64" x="581.087891"/>
      <use xlink:href="#DejaVuSans-69" x="644.564453"/>
      <use xlink:href="#DejaVuSans-63" x="672.347656"/>
      <use xlink:href="#DejaVuSans-74" x="727.328125"/>
      <use xlink:href="#DejaVuSans-69" x="766.537109"/>
      <use xlink:href="#DejaVuSans-6f" x="794.320312"/>
      <use xlink:href="#DejaVuSans-6e" x="855.501953"/>
      <use xlink:href="#DejaVuSans-73" x="918.880859"/>
      <use xlink:href="#DejaVuSans-20" x="970.980469"/>
      <use xlink:href="#DejaVuSans-6d" x="1002.767578"/>
      <use xlink:href="#DejaVuSans-69" x="1100.179688"/>
      <use xlink:href="#DejaVuSans-6e" x="1127.962891"/>
     </g>
    </g>
    <g id="line2d_26">
     <path d="M 249.318437 263.648062 
L 259.318437 263.648062 
L 269.318437 263.648062 
" style="fill: none; stroke: #ff0000; stroke-opacity: 0.8; stroke-width: 0.5; stroke-linecap: square"/>
    </g>
    <g id="text_21">
     <!-- Negative predictions -->
     <g transform="translate(277.318437 267.148062) scale(0.1 -0.1)">
      <defs>
       <path id="DejaVuSans-4e" d="M 628 4666 
L 1478 4666 
L 3547 763 
L 3547 4666 
L 4159 4666 
L 4159 0 
L 3309 0 
L 1241 3903 
L 1241 0 
L 628 0 
L 628 4666 
z
" transform="scale(0.015625)"/>
      </defs>
      <use xlink:href="#DejaVuSans-4e"/>
      <use xlink:href="#DejaVuSans-65" x="74.804688"/>
      <use xlink:href="#DejaVuSans-67" x="136.328125"/>
      <use xlink:href="#DejaVuSans-61" x="199.804688"/>
      <use xlink:href="#DejaVuSans-74" x="261.083984"/>
      <use xlink:href="#DejaVuSans-69" x="300.292969"/>
      <use xlink:href="#DejaVuSans-76" x="328.076172"/>
      <use xlink:href="#DejaVuSans-65" x="387.255859"/>
      <use xlink:href="#DejaVuSans-20" x="448.779297"/>
      <use xlink:href="#DejaVuSans-70" x="480.566406"/>
      <use xlink:href="#DejaVuSans-72" x="544.042969"/>
      <use xlink:href="#DejaVuSans-65" x="582.90625"/>
      <use xlink:href="#DejaVuSans-64" x="644.429688"/>
      <use xlink:href="#DejaVuSans-69" x="707.90625"/>
      <use xlink:href="#DejaVuSans-63" x="735.689453"/>
      <use xlink:href="#DejaVuSans-74" x="790.669922"/>
      <use xlink:href="#DejaVuSans-69" x="829.878906"/>
      <use xlink:href="#DejaVuSans-6f" x="857.662109"/>
      <use xlink:href="#DejaVuSans-6e" x="918.84375"/>
      <use xlink:href="#DejaVuSans-73" x="982.222656"/>
     </g>
    </g>
    <g id="line2d_27">
     <path d="M 249.318437 278.326188 
L 259.318437 278.326188 
L 269.318437 278.326188 
" style="fill: none; stroke: #f08080; stroke-opacity: 0.8; stroke-width: 0.5; stroke-linecap: square"/>
    </g>
    <g id="text_22">
     <!-- Negative predictions max -->
     <g transform="translate(277.318437 281.826188) scale(0.1 -0.1)">
      <use xlink:href="#DejaVuSans-4e"/>
      <use xlink:href="#DejaVuSans-65" x="74.804688"/>
      <use xlink:href="#DejaVuSans-67" x="136.328125"/>
      <use xlink:href="#DejaVuSans-61" x="199.804688"/>
      <use xlink:href="#DejaVuSans-74" x="261.083984"/>
      <use xlink:href="#DejaVuSans-69" x="300.292969"/>
      <use xlink:href="#DejaVuSans-76" x="328.076172"/>
      <use xlink:href="#DejaVuSans-65" x="387.255859"/>
      <use xlink:href="#DejaVuSans-20" x="448.779297"/>
      <use xlink:href="#DejaVuSans-70" x="480.566406"/>
      <use xlink:href="#DejaVuSans-72" x="544.042969"/>
      <use xlink:href="#DejaVuSans-65" x="582.90625"/>
      <use xlink:href="#DejaVuSans-64" x="644.429688"/>
      <use xlink:href="#DejaVuSans-69" x="707.90625"/>
      <use xlink:href="#DejaVuSans-63" x="735.689453"/>
      <use xlink:href="#DejaVuSans-74" x="790.669922"/>
      <use xlink:href="#DejaVuSans-69" x="829.878906"/>
      <use xlink:href="#DejaVuSans-6f" x="857.662109"/>
      <use xlink:href="#DejaVuSans-6e" x="918.84375"/>
      <use xlink:href="#DejaVuSans-73" x="982.222656"/>
      <use xlink:href="#DejaVuSans-20" x="1034.322266"/>
      <use xlink:href="#DejaVuSans-6d" x="1066.109375"/>
      <use xlink:href="#DejaVuSans-61" x="1163.521484"/>
      <use xlink:href="#DejaVuSans-78" x="1224.800781"/>
     </g>
    </g>
    <g id="line2d_28">
     <path d="M 249.318437 293.004312 
L 259.318437 293.004312 
L 269.318437 293.004312 
" style="fill: none; stroke: #f08080; stroke-opacity: 0.8; stroke-width: 0.5; stroke-linecap: square"/>
    </g>
    <g id="text_23">
     <!-- Negative predictions min -->
     <g transform="translate(277.318437 296.504312) scale(0.1 -0.1)">
      <use xlink:href="#DejaVuSans-4e"/>
      <use xlink:href="#DejaVuSans-65" x="74.804688"/>
      <use xlink:href="#DejaVuSans-67" x="136.328125"/>
      <use xlink:href="#DejaVuSans-61" x="199.804688"/>
      <use xlink:href="#DejaVuSans-74" x="261.083984"/>
      <use xlink:href="#DejaVuSans-69" x="300.292969"/>
      <use xlink:href="#DejaVuSans-76" x="328.076172"/>
      <use xlink:href="#DejaVuSans-65" x="387.255859"/>
      <use xlink:href="#DejaVuSans-20" x="448.779297"/>
      <use xlink:href="#DejaVuSans-70" x="480.566406"/>
      <use xlink:href="#DejaVuSans-72" x="544.042969"/>
      <use xlink:href="#DejaVuSans-65" x="582.90625"/>
      <use xlink:href="#DejaVuSans-64" x="644.429688"/>
      <use xlink:href="#DejaVuSans-69" x="707.90625"/>
      <use xlink:href="#DejaVuSans-63" x="735.689453"/>
      <use xlink:href="#DejaVuSans-74" x="790.669922"/>
      <use xlink:href="#DejaVuSans-69" x="829.878906"/>
      <use xlink:href="#DejaVuSans-6f" x="857.662109"/>
      <use xlink:href="#DejaVuSans-6e" x="918.84375"/>
      <use xlink:href="#DejaVuSans-73" x="982.222656"/>
      <use xlink:href="#DejaVuSans-20" x="1034.322266"/>
      <use xlink:href="#DejaVuSans-6d" x="1066.109375"/>
      <use xlink:href="#DejaVuSans-69" x="1163.521484"/>
      <use xlink:href="#DejaVuSans-6e" x="1191.304688"/>
     </g>
    </g>
   </g>
  </g>
 </g>
 <defs>
  <clipPath id="p8d8c29ed37">
   <rect x="57.6" y="41.472" width="357.12" height="266.112"/>
  </clipPath>
 </defs>
</svg>
