<?xml version="1.0" encoding="utf-8" standalone="no"?>
<!DOCTYPE svg PUBLIC "-//W3C//DTD SVG 1.1//EN"
  "http://www.w3.org/Graphics/SVG/1.1/DTD/svg11.dtd">
<svg xmlns:xlink="http://www.w3.org/1999/xlink" width="460.8pt" height="345.6pt" viewBox="0 0 460.8 345.6" xmlns="http://www.w3.org/2000/svg" version="1.1">
 <metadata>
  <rdf:RDF xmlns:dc="http://purl.org/dc/elements/1.1/" xmlns:cc="http://creativecommons.org/ns#" xmlns:rdf="http://www.w3.org/1999/02/22-rdf-syntax-ns#">
   <cc:Work>
    <dc:type rdf:resource="http://purl.org/dc/dcmitype/StillImage"/>
    <dc:date>2024-08-20T11:13:00.279355</dc:date>
    <dc:format>image/svg+xml</dc:format>
    <dc:creator>
     <cc:Agent>
      <dc:title>Matplotlib v3.9.0, https://matplotlib.org/</dc:title>
     </cc:Agent>
    </dc:creator>
   </cc:Work>
  </rdf:RDF>
 </metadata>
 <defs>
  <style type="text/css">*{stroke-linejoin: round; stroke-linecap: butt}</style>
 </defs>
 <g id="figure_1">
  <g id="patch_1">
   <path d="M 0 345.6 
L 460.8 345.6 
L 460.8 0 
L 0 0 
z
" style="fill: #ffffff"/>
  </g>
  <g id="axes_1">
   <g id="patch_2">
    <path d="M 57.6 307.584 
L 414.72 307.584 
L 414.72 41.472 
L 57.6 41.472 
z
" style="fill: #ffffff"/>
   </g>
   <g id="matplotlib.axis_1">
    <g id="xtick_1">
     <g id="line2d_1">
      <defs>
       <path id="m3167454416" d="M 0 0 
L 0 3.5 
" style="stroke: #000000; stroke-width: 0.8"/>
      </defs>
      <g>
       <use xlink:href="#m3167454416" x="73.832727" y="307.584" style="stroke: #000000; stroke-width: 0.8"/>
      </g>
     </g>
     <g id="text_1">
      <!-- 0 -->
      <g transform="translate(70.651477 322.182437) scale(0.1 -0.1)">
       <defs>
        <path id="DejaVuSans-30" d="M 2034 4250 
Q 1547 4250 1301 3770 
Q 1056 3291 1056 2328 
Q 1056 1369 1301 889 
Q 1547 409 2034 409 
Q 2525 409 2770 889 
Q 3016 1369 3016 2328 
Q 3016 3291 2770 3770 
Q 2525 4250 2034 4250 
z
M 2034 4750 
Q 2819 4750 3233 4129 
Q 3647 3509 3647 2328 
Q 3647 1150 3233 529 
Q 2819 -91 2034 -91 
Q 1250 -91 836 529 
Q 422 1150 422 2328 
Q 422 3509 836 4129 
Q 1250 4750 2034 4750 
z
" transform="scale(0.015625)"/>
       </defs>
       <use xlink:href="#DejaVuSans-30"/>
      </g>
     </g>
    </g>
    <g id="xtick_2">
     <g id="line2d_2">
      <g>
       <use xlink:href="#m3167454416" x="149.333784" y="307.584" style="stroke: #000000; stroke-width: 0.8"/>
      </g>
     </g>
     <g id="text_2">
      <!-- 50 -->
      <g transform="translate(142.971284 322.182437) scale(0.1 -0.1)">
       <defs>
        <path id="DejaVuSans-35" d="M 691 4666 
L 3169 4666 
L 3169 4134 
L 1269 4134 
L 1269 2991 
Q 1406 3038 1543 3061 
Q 1681 3084 1819 3084 
Q 2600 3084 3056 2656 
Q 3513 2228 3513 1497 
Q 3513 744 3044 326 
Q 2575 -91 1722 -91 
Q 1428 -91 1123 -41 
Q 819 9 494 109 
L 494 744 
Q 775 591 1075 516 
Q 1375 441 1709 441 
Q 2250 441 2565 725 
Q 2881 1009 2881 1497 
Q 2881 1984 2565 2268 
Q 2250 2553 1709 2553 
Q 1456 2553 1204 2497 
Q 953 2441 691 2322 
L 691 4666 
z
" transform="scale(0.015625)"/>
       </defs>
       <use xlink:href="#DejaVuSans-35"/>
       <use xlink:href="#DejaVuSans-30" x="63.623047"/>
      </g>
     </g>
    </g>
    <g id="xtick_3">
     <g id="line2d_3">
      <g>
       <use xlink:href="#m3167454416" x="224.834841" y="307.584" style="stroke: #000000; stroke-width: 0.8"/>
      </g>
     </g>
     <g id="text_3">
      <!-- 100 -->
      <g transform="translate(215.291091 322.182437) scale(0.1 -0.1)">
       <defs>
        <path id="DejaVuSans-31" d="M 794 531 
L 1825 531 
L 1825 4091 
L 703 3866 
L 703 4441 
L 1819 4666 
L 2450 4666 
L 2450 531 
L 3481 531 
L 3481 0 
L 794 0 
L 794 531 
z
" transform="scale(0.015625)"/>
       </defs>
       <use xlink:href="#DejaVuSans-31"/>
       <use xlink:href="#DejaVuSans-30" x="63.623047"/>
       <use xlink:href="#DejaVuSans-30" x="127.246094"/>
      </g>
     </g>
    </g>
    <g id="xtick_4">
     <g id="line2d_4">
      <g>
       <use xlink:href="#m3167454416" x="300.335899" y="307.584" style="stroke: #000000; stroke-width: 0.8"/>
      </g>
     </g>
     <g id="text_4">
      <!-- 150 -->
      <g transform="translate(290.792149 322.182437) scale(0.1 -0.1)">
       <use xlink:href="#DejaVuSans-31"/>
       <use xlink:href="#DejaVuSans-35" x="63.623047"/>
       <use xlink:href="#DejaVuSans-30" x="127.246094"/>
      </g>
     </g>
    </g>
    <g id="xtick_5">
     <g id="line2d_5">
      <g>
       <use xlink:href="#m3167454416" x="375.836956" y="307.584" style="stroke: #000000; stroke-width: 0.8"/>
      </g>
     </g>
     <g id="text_5">
      <!-- 200 -->
      <g transform="translate(366.293206 322.182437) scale(0.1 -0.1)">
       <defs>
        <path id="DejaVuSans-32" d="M 1228 531 
L 3431 531 
L 3431 0 
L 469 0 
L 469 531 
Q 828 903 1448 1529 
Q 2069 2156 2228 2338 
Q 2531 2678 2651 2914 
Q 2772 3150 2772 3378 
Q 2772 3750 2511 3984 
Q 2250 4219 1831 4219 
Q 1534 4219 1204 4116 
Q 875 4013 500 3803 
L 500 4441 
Q 881 4594 1212 4672 
Q 1544 4750 1819 4750 
Q 2544 4750 2975 4387 
Q 3406 4025 3406 3419 
Q 3406 3131 3298 2873 
Q 3191 2616 2906 2266 
Q 2828 2175 2409 1742 
Q 1991 1309 1228 531 
z
" transform="scale(0.015625)"/>
       </defs>
       <use xlink:href="#DejaVuSans-32"/>
       <use xlink:href="#DejaVuSans-30" x="63.623047"/>
       <use xlink:href="#DejaVuSans-30" x="127.246094"/>
      </g>
     </g>
    </g>
   </g>
   <g id="matplotlib.axis_2">
    <g id="ytick_1">
     <g id="line2d_6">
      <defs>
       <path id="mb6fe100df8" d="M 0 0 
L -3.5 0 
" style="stroke: #000000; stroke-width: 0.8"/>
      </defs>
      <g>
       <use xlink:href="#mb6fe100df8" x="57.6" y="304.7952" style="stroke: #000000; stroke-width: 0.8"/>
      </g>
     </g>
     <g id="text_6">
      <!-- −1500 -->
      <g transform="translate(16.770313 308.594418) scale(0.1 -0.1)">
       <defs>
        <path id="DejaVuSans-2212" d="M 678 2272 
L 4684 2272 
L 4684 1741 
L 678 1741 
L 678 2272 
z
" transform="scale(0.015625)"/>
       </defs>
       <use xlink:href="#DejaVuSans-2212"/>
       <use xlink:href="#DejaVuSans-31" x="83.789062"/>
       <use xlink:href="#DejaVuSans-35" x="147.412109"/>
       <use xlink:href="#DejaVuSans-30" x="211.035156"/>
       <use xlink:href="#DejaVuSans-30" x="274.658203"/>
      </g>
     </g>
    </g>
    <g id="ytick_2">
     <g id="line2d_7">
      <g>
       <use xlink:href="#mb6fe100df8" x="57.6" y="252.902355" style="stroke: #000000; stroke-width: 0.8"/>
      </g>
     </g>
     <g id="text_7">
      <!-- −1000 -->
      <g transform="translate(16.770313 256.701574) scale(0.1 -0.1)">
       <use xlink:href="#DejaVuSans-2212"/>
       <use xlink:href="#DejaVuSans-31" x="83.789062"/>
       <use xlink:href="#DejaVuSans-30" x="147.412109"/>
       <use xlink:href="#DejaVuSans-30" x="211.035156"/>
       <use xlink:href="#DejaVuSans-30" x="274.658203"/>
      </g>
     </g>
    </g>
    <g id="ytick_3">
     <g id="line2d_8">
      <g>
       <use xlink:href="#mb6fe100df8" x="57.6" y="201.00951" style="stroke: #000000; stroke-width: 0.8"/>
      </g>
     </g>
     <g id="text_8">
      <!-- −500 -->
      <g transform="translate(23.132812 204.808729) scale(0.1 -0.1)">
       <use xlink:href="#DejaVuSans-2212"/>
       <use xlink:href="#DejaVuSans-35" x="83.789062"/>
       <use xlink:href="#DejaVuSans-30" x="147.412109"/>
       <use xlink:href="#DejaVuSans-30" x="211.035156"/>
      </g>
     </g>
    </g>
    <g id="ytick_4">
     <g id="line2d_9">
      <g>
       <use xlink:href="#mb6fe100df8" x="57.6" y="149.116665" style="stroke: #000000; stroke-width: 0.8"/>
      </g>
     </g>
     <g id="text_9">
      <!-- 0 -->
      <g transform="translate(44.2375 152.915884) scale(0.1 -0.1)">
       <use xlink:href="#DejaVuSans-30"/>
      </g>
     </g>
    </g>
    <g id="ytick_5">
     <g id="line2d_10">
      <g>
       <use xlink:href="#mb6fe100df8" x="57.6" y="97.223821" style="stroke: #000000; stroke-width: 0.8"/>
      </g>
     </g>
     <g id="text_10">
      <!-- 500 -->
      <g transform="translate(31.5125 101.023039) scale(0.1 -0.1)">
       <use xlink:href="#DejaVuSans-35"/>
       <use xlink:href="#DejaVuSans-30" x="63.623047"/>
       <use xlink:href="#DejaVuSans-30" x="127.246094"/>
      </g>
     </g>
    </g>
    <g id="ytick_6">
     <g id="line2d_11">
      <g>
       <use xlink:href="#mb6fe100df8" x="57.6" y="45.330976" style="stroke: #000000; stroke-width: 0.8"/>
      </g>
     </g>
     <g id="text_11">
      <!-- 1000 -->
      <g transform="translate(25.15 49.130195) scale(0.1 -0.1)">
       <use xlink:href="#DejaVuSans-31"/>
       <use xlink:href="#DejaVuSans-30" x="63.623047"/>
       <use xlink:href="#DejaVuSans-30" x="127.246094"/>
       <use xlink:href="#DejaVuSans-30" x="190.869141"/>
      </g>
     </g>
    </g>
   </g>
   <g id="line2d_12">
    <path d="M 73.832727 149.949786 
L 75.342748 152.765772 
L 76.85277 151.99626 
L 79.872812 151.226086 
L 81.382833 150.499587 
L 82.892854 151.381765 
L 84.402875 150.490325 
L 85.912896 153.742277 
L 87.422918 158.646751 
L 88.932939 165.293268 
L 90.44296 160.26042 
L 91.952981 157.912042 
L 93.463002 156.147685 
L 94.973023 160.299113 
L 96.483044 160.70289 
L 97.993066 161.483897 
L 99.503087 163.89982 
L 101.013108 164.834374 
L 102.523129 166.345242 
L 104.03315 164.613106 
L 105.543171 165.209249 
L 107.053192 163.119996 
L 108.563214 162.174721 
L 110.073235 161.612256 
L 111.583256 162.996065 
L 113.093277 163.500628 
L 114.603298 162.465443 
L 117.62334 161.651828 
L 119.133362 161.980483 
L 120.643383 161.81003 
L 122.153404 160.683378 
L 123.663425 160.787164 
L 125.173446 161.359262 
L 126.683467 161.40706 
L 128.193488 166.926578 
L 129.70351 168.108202 
L 131.213531 165.080604 
L 132.723552 166.583746 
L 134.233573 166.901098 
L 135.743594 166.531091 
L 137.253615 165.806723 
L 138.763636 166.460573 
L 140.273658 166.446735 
L 141.783679 167.23386 
L 143.2937 168.684608 
L 144.803721 169.976431 
L 146.313742 170.46065 
L 147.823763 172.561778 
L 149.333784 173.432797 
L 150.843805 174.531726 
L 152.353827 173.569052 
L 153.863848 171.330026 
L 155.373869 172.331432 
L 156.88389 171.310321 
L 158.393911 169.131002 
L 159.903932 173.593787 
L 161.413953 175.925983 
L 162.923975 176.530645 
L 164.433996 174.964685 
L 165.944017 172.737063 
L 167.454038 172.737063 
L 168.964059 172.874719 
L 170.47408 172.195637 
L 171.984101 174.932985 
L 173.494123 173.97663 
L 175.004144 176.128108 
L 176.514165 175.634639 
L 178.024186 175.927545 
L 179.534207 175.242574 
L 181.044228 176.43265 
L 182.554249 178.616971 
L 184.064271 178.309731 
L 185.574292 180.879989 
L 187.084313 181.805092 
L 188.594334 180.859412 
L 190.104355 179.109994 
L 191.614376 179.445319 
L 193.124397 178.049458 
L 194.634419 177.452691 
L 196.14444 180.232417 
L 197.654461 179.190998 
L 199.164482 182.14889 
L 200.674503 184.710253 
L 202.184524 184.217943 
L 203.694545 186.835543 
L 205.204567 185.401466 
L 206.714588 183.526853 
L 208.224609 183.578746 
L 209.73463 184.060351 
L 212.754672 189.913144 
L 214.264693 187.288436 
L 215.774715 189.492132 
L 217.284736 188.627808 
L 218.794757 186.083505 
L 220.304778 187.328933 
L 221.814799 186.277972 
L 223.32482 190.178584 
L 224.834841 189.667541 
L 226.344863 190.47691 
L 227.854884 189.134491 
L 229.364905 187.446738 
L 230.874926 188.744059 
L 232.384947 189.248592 
L 233.894968 189.020783 
L 235.404989 191.828857 
L 236.915011 199.43549 
L 238.425032 195.092166 
L 239.935053 194.173783 
L 241.445074 194.510945 
L 242.955095 195.493484 
L 244.465116 192.622146 
L 245.975137 200.26034 
L 247.485159 198.080194 
L 248.99518 200.428593 
L 250.505201 196.404834 
L 252.015222 198.630817 
L 253.525243 199.798173 
L 255.035264 205.697697 
L 256.545285 202.590754 
L 258.055307 201.011237 
L 259.565328 199.746613 
L 261.075349 200.429869 
L 262.58537 199.158285 
L 264.095391 201.893614 
L 265.605412 208.009291 
L 267.115433 204.154187 
L 268.625455 203.993895 
L 270.135476 204.363579 
L 271.645497 209.201558 
L 273.155518 207.685998 
L 274.665539 210.202434 
L 276.17556 209.319346 
L 277.685581 211.0722 
L 279.195603 211.678265 
L 280.705624 208.692894 
L 282.215645 211.797468 
L 283.725666 213.834922 
L 285.235687 221.886909 
L 286.745708 224.81774 
L 289.765751 226.684398 
L 291.275772 224.47634 
L 292.785793 228.08271 
L 294.295814 235.160925 
L 297.315856 225.096773 
L 298.825877 223.131553 
L 300.335899 222.301267 
L 301.84592 223.183446 
L 303.355941 224.660665 
L 304.865962 229.035807 
L 306.375983 231.092937 
L 309.396025 227.982365 
L 310.906047 232.59218 
L 312.416068 236.824014 
L 313.926089 235.793509 
L 315.43611 239.937097 
L 316.946131 237.709527 
L 318.456152 235.848734 
L 319.966173 237.235278 
L 321.476195 234.896167 
L 322.986216 233.58373 
L 324.496237 232.85723 
L 326.006258 233.843194 
L 327.516279 235.570227 
L 329.0263 234.512434 
L 330.536321 237.812127 
L 332.046342 248.485522 
L 333.556364 248.806811 
L 335.066385 243.771861 
L 336.576406 241.288952 
L 338.086427 241.399431 
L 339.596448 239.161359 
L 341.106469 241.355273 
L 342.61649 249.734219 
L 344.126512 246.762893 
L 345.636533 247.044556 
L 347.146554 250.627813 
L 348.656575 252.915759 
L 350.166596 249.75536 
L 351.676617 252.662395 
L 353.186638 250.024926 
L 354.69666 248.430718 
L 356.206681 248.137909 
L 357.716702 249.213002 
L 359.226723 248.565604 
L 360.736744 250.898619 
L 362.246765 254.053789 
L 363.756786 262.714427 
L 365.266808 267.740165 
L 366.776829 284.799278 
L 368.28685 283.935789 
L 369.796871 276.155831 
L 371.306892 269.047411 
L 372.816913 272.576124 
L 374.326934 272.903516 
L 375.836956 274.658478 
L 377.346977 274.885912 
L 378.856998 280.523838 
L 380.367019 279.865843 
L 381.87704 277.58157 
L 383.387061 277.887162 
L 384.897082 280.691007 
L 386.407104 281.081909 
L 387.917125 280.328418 
L 389.427146 285.298049 
L 390.937167 286.116543 
L 392.447188 286.121481 
L 393.957209 284.931399 
L 395.46723 284.795031 
L 396.977252 292.990811 
L 398.487273 295.488 
L 398.487273 295.488 
" clip-path="url(#p7a3ef4e516)" style="fill: none; stroke: #1f77b4; stroke-opacity: 0.7; stroke-width: 1.5; stroke-linecap: square"/>
   </g>
   <g id="line2d_13">
    <path d="M 73.832727 149.560474 
L 75.342748 152.216276 
L 76.85277 150.44327 
L 78.362791 149.289766 
L 79.872812 148.347472 
L 81.382833 147.042008 
L 82.892854 147.250348 
L 84.402875 145.914944 
L 85.912896 148.764246 
L 88.932939 158.422409 
L 90.44296 150.119554 
L 91.952981 145.256111 
L 93.463002 141.480267 
L 94.973023 143.775528 
L 96.483044 143.14533 
L 97.993066 143.077992 
L 99.503087 144.871266 
L 101.013108 145.243165 
L 102.523129 146.230098 
L 104.03315 144.076545 
L 105.543171 144.248593 
L 107.053192 141.875414 
L 108.563214 140.445385 
L 110.073235 139.20032 
L 111.583256 139.723747 
L 113.093277 139.684536 
L 114.603298 138.219355 
L 117.62334 136.368494 
L 119.133362 135.991522 
L 120.643383 135.34887 
L 122.153404 133.754616 
L 123.663425 133.028612 
L 125.173446 132.858279 
L 126.683467 132.575551 
L 128.193488 137.789111 
L 129.70351 138.910587 
L 131.213531 135.382926 
L 132.723552 136.656333 
L 134.233573 136.405518 
L 135.743594 135.753903 
L 137.253615 134.679286 
L 138.763636 134.941927 
L 140.273658 134.253251 
L 141.783679 134.57644 
L 144.803721 136.664621 
L 146.313742 136.301371 
L 147.823763 137.675893 
L 149.333784 138.082387 
L 150.843805 138.634181 
L 152.353827 137.310913 
L 153.863848 134.779558 
L 155.373869 135.168646 
L 156.88389 133.518703 
L 158.393911 130.796575 
L 159.903932 134.057748 
L 161.413953 136.235466 
L 162.923975 135.906231 
L 164.433996 133.562379 
L 165.944017 130.854749 
L 167.454038 129.741499 
L 168.964059 128.469755 
L 170.47408 126.657464 
L 171.984101 128.442936 
L 173.494123 126.885755 
L 175.004144 128.326865 
L 176.514165 127.156304 
L 178.024186 126.946289 
L 179.534207 125.710663 
L 181.044228 126.340559 
L 182.554249 127.949525 
L 184.064271 126.704096 
L 185.574292 128.757956 
L 187.084313 128.879039 
L 188.594334 127.230577 
L 190.104355 125.083024 
L 191.614376 125.123338 
L 193.124397 123.300603 
L 194.634419 122.056751 
L 196.14444 123.855729 
L 197.654461 122.401395 
L 200.674503 127.322762 
L 202.184524 125.247048 
L 203.694545 127.145911 
L 205.204567 124.787669 
L 206.714588 122.105597 
L 208.224609 121.068299 
L 209.73463 120.584667 
L 211.244651 122.957391 
L 212.754672 125.816975 
L 214.264693 121.976905 
L 215.774715 123.631865 
L 217.284736 121.881923 
L 218.794757 118.796237 
L 220.304778 119.070765 
L 221.814799 117.225245 
L 223.32482 120.362016 
L 224.834841 119.763903 
L 226.344863 120.066895 
L 227.854884 118.411213 
L 229.364905 116.563865 
L 230.874926 116.712107 
L 232.384947 116.333042 
L 233.894968 115.45665 
L 235.404989 117.610005 
L 236.915011 125.300658 
L 238.425032 117.724303 
L 239.935053 115.762547 
L 241.445074 115.271456 
L 242.955095 115.402751 
L 244.465116 111.98642 
L 245.975137 119.106497 
L 247.485159 116.990339 
L 248.99518 119.01122 
L 250.505201 113.752745 
L 252.015222 116.165328 
L 253.525243 116.647355 
L 255.035264 122.0643 
L 256.545285 116.139866 
L 259.565328 111.194719 
L 261.075349 110.420716 
L 262.58537 108.277388 
L 264.095391 110.123826 
L 265.605412 115.518656 
L 267.115433 110.173693 
L 268.625455 109.707368 
L 270.135476 109.624832 
L 271.645497 114.012165 
L 273.155518 111.721961 
L 274.665539 113.543175 
L 276.17556 111.787467 
L 277.685581 112.913787 
L 279.195603 112.886111 
L 280.705624 109.101044 
L 282.215645 112.404937 
L 283.725666 114.088859 
L 285.235687 120.945691 
L 286.745708 120.720822 
L 288.255729 118.567269 
L 289.765751 117.320519 
L 291.275772 113.721154 
L 292.785793 116.301093 
L 294.295814 123.062039 
L 295.805835 115.797041 
L 297.315856 110.421284 
L 300.335899 103.083324 
L 301.84592 101.477954 
L 303.355941 100.780424 
L 304.865962 103.475272 
L 306.375983 104.864991 
L 307.886004 102.948885 
L 309.396025 100.66326 
L 310.906047 104.024053 
L 312.416068 107.003867 
L 313.926089 103.267582 
L 315.43611 106.407448 
L 316.946131 103.074775 
L 318.456152 100.550822 
L 319.966173 100.521148 
L 321.476195 97.671833 
L 322.986216 95.666034 
L 324.496237 93.137929 
L 326.006258 92.461912 
L 327.516279 92.637173 
L 329.0263 90.396664 
L 330.536321 92.576014 
L 332.046342 102.479916 
L 333.556364 97.08306 
L 335.066385 88.675665 
L 336.576406 86.55523 
L 338.086427 85.496435 
L 339.596448 80.828335 
L 341.106469 80.192332 
L 342.61649 86.342448 
L 344.126512 83.42703 
L 345.636533 82.630161 
L 347.146554 85.323693 
L 348.656575 86.179925 
L 350.166596 81.343512 
L 351.676617 84.091124 
L 353.186638 80.79562 
L 354.69666 78.677753 
L 356.206681 77.242113 
L 357.716702 76.950931 
L 359.226723 75.085203 
L 360.736744 76.312499 
L 362.246765 78.534825 
L 363.756786 85.955502 
L 365.266808 85.229002 
L 366.776829 97.276138 
L 368.28685 90.841425 
L 369.796871 77.31815 
L 371.306892 66.809611 
L 372.816913 65.194417 
L 374.326934 61.843478 
L 375.836956 60.850194 
L 377.346977 59.008552 
L 378.856998 62.806706 
L 380.367019 60.510116 
L 381.87704 57.266396 
L 383.387061 56.017724 
L 384.897082 57.351593 
L 386.407104 56.705584 
L 387.917125 54.661994 
L 389.427146 58.49657 
L 390.937167 58.140124 
L 392.447188 56.792007 
L 393.957209 54.605336 
L 395.46723 53.568 
L 396.977252 60.336638 
L 398.487273 62.108893 
L 398.487273 62.108893 
" clip-path="url(#p7a3ef4e516)" style="fill: none; stroke: #ff7f0e; stroke-opacity: 0.7; stroke-width: 1.5; stroke-linecap: square"/>
   </g>
   <g id="line2d_14">
    <path d="M 73.832727 149.698606 
L 75.342748 152.290592 
L 76.85277 150.955538 
L 78.362791 150.148965 
L 79.872812 149.497624 
L 81.382833 148.506885 
L 82.892854 149.19706 
L 84.402875 147.989099 
L 85.912896 150.978108 
L 88.932939 160.518573 
L 90.44296 152.930902 
L 91.952981 148.933098 
L 93.463002 146.381699 
L 94.973023 149.735274 
L 96.483044 149.328907 
L 97.993066 149.441512 
L 99.503087 151.348494 
L 102.523129 153.040259 
L 104.03315 151.519297 
L 105.543171 152.123797 
L 107.053192 149.947338 
L 108.563214 148.71133 
L 110.073235 147.881657 
L 111.583256 148.939076 
L 113.093277 149.562419 
L 114.603298 148.368338 
L 116.113319 147.449196 
L 117.62334 146.937927 
L 119.133362 147.006866 
L 120.643383 146.85081 
L 122.153404 145.728086 
L 123.663425 145.414111 
L 125.173446 145.907764 
L 126.683467 145.985742 
L 128.193488 151.43496 
L 129.70351 152.617356 
L 131.213531 148.502221 
L 132.723552 149.653809 
L 134.233573 149.571255 
L 135.743594 148.937692 
L 137.253615 148.117417 
L 138.763636 148.648162 
L 140.273658 148.279114 
L 141.783679 148.675078 
L 144.803721 151.26659 
L 146.313742 151.21399 
L 147.823763 152.586631 
L 149.333784 152.789476 
L 150.843805 153.351963 
L 152.353827 151.974755 
L 153.863848 149.588556 
L 155.373869 150.578086 
L 156.88389 149.428618 
L 158.393911 146.905595 
L 159.903932 150.983189 
L 161.413953 153.164176 
L 162.923975 152.86228 
L 164.433996 150.444817 
L 165.944017 147.654786 
L 170.47408 144.619689 
L 171.984101 146.871004 
L 173.494123 145.341266 
L 175.004144 147.270728 
L 176.514165 146.33242 
L 178.024186 146.488815 
L 179.534207 145.53042 
L 181.044228 146.366047 
L 182.554249 148.080146 
L 184.064271 147.495059 
L 185.574292 149.693553 
L 187.084313 150.16237 
L 188.594334 148.558054 
L 190.104355 146.248378 
L 191.614376 146.124953 
L 193.124397 144.485251 
L 194.634419 143.5886 
L 196.14444 146.108122 
L 197.654461 144.984674 
L 199.164482 147.796662 
L 200.674503 150.119488 
L 202.184524 148.94325 
L 203.694545 150.718543 
L 206.714588 145.757972 
L 208.224609 145.040047 
L 209.73463 145.23594 
L 212.754672 151.205266 
L 214.264693 148.561689 
L 215.774715 150.240871 
L 217.284736 148.712428 
L 218.794757 145.798596 
L 220.304778 146.959499 
L 221.814799 145.962268 
L 223.32482 149.174562 
L 224.834841 148.643086 
L 226.344863 148.990618 
L 227.854884 147.49267 
L 229.364905 145.661188 
L 230.874926 146.332172 
L 232.384947 146.587063 
L 233.894968 146.07513 
L 235.404989 148.663688 
L 236.915011 156.422141 
L 238.425032 151.060781 
L 239.935053 148.909921 
L 241.445074 149.34181 
L 242.955095 150.009271 
L 244.465116 146.986127 
L 245.975137 153.841996 
L 247.485159 151.733892 
L 248.99518 153.702731 
L 250.505201 149.108747 
L 252.015222 151.464212 
L 253.525243 152.146445 
L 255.035264 157.40274 
L 256.545285 152.665745 
L 258.055307 150.217878 
L 259.565328 148.365608 
L 261.075349 148.653148 
L 262.58537 147.198328 
L 264.095391 149.941509 
L 265.605412 155.308464 
L 267.115433 149.781685 
L 268.625455 149.250809 
L 270.135476 149.783227 
L 271.645497 154.31389 
L 273.155518 152.36866 
L 274.665539 154.481353 
L 276.17556 153.096211 
L 277.685581 154.629987 
L 279.195603 154.765261 
L 280.705624 151.338411 
L 282.215645 154.655446 
L 283.725666 156.508526 
L 285.235687 163.877328 
L 286.745708 164.50904 
L 289.765751 162.240661 
L 291.275772 158.709895 
L 292.785793 161.424371 
L 294.295814 168.132908 
L 295.805835 160.835641 
L 297.315856 155.837477 
L 298.825877 153.241649 
L 300.335899 151.664495 
L 301.84592 151.71748 
L 303.355941 152.450251 
L 304.865962 155.995136 
L 306.375983 157.051411 
L 307.886004 154.329085 
L 309.396025 152.171291 
L 312.416068 159.551789 
L 313.926089 156.853886 
L 315.43611 160.415542 
L 318.456152 154.898518 
L 319.966173 155.263498 
L 321.476195 152.482983 
L 324.496237 148.511879 
L 326.006258 148.873852 
L 327.516279 150.613706 
L 329.0263 149.313449 
L 330.536321 152.580627 
L 332.046342 162.544271 
L 333.556364 160.095538 
L 335.066385 152.756157 
L 336.576406 149.90285 
L 338.086427 150.189089 
L 339.596448 146.777439 
L 341.106469 147.270857 
L 342.61649 154.842196 
L 344.126512 152.362205 
L 345.636533 152.291655 
L 347.146554 155.869341 
L 348.656575 157.659588 
L 350.166596 153.113521 
L 351.676617 155.988176 
L 353.186638 152.87926 
L 354.69666 150.950991 
L 356.206681 149.994724 
L 357.716702 150.708957 
L 359.226723 149.312915 
L 360.736744 151.397542 
L 362.246765 153.971092 
L 363.756786 161.486906 
L 365.266808 163.703173 
L 366.776829 177.390037 
L 368.28685 171.812299 
L 369.796871 160.541977 
L 371.306892 151.317413 
L 372.816913 152.676169 
L 374.326934 151.435451 
L 377.346977 149.385824 
L 378.856998 153.750634 
L 380.367019 152.28169 
L 381.87704 148.99604 
L 383.387061 148.996997 
L 384.897082 151.105567 
L 386.407104 151.303568 
L 387.917125 149.894875 
L 389.427146 154.922714 
L 390.937167 154.868696 
L 392.447188 153.811102 
L 393.957209 152.022701 
L 395.46723 151.607294 
L 396.977252 159.603438 
L 398.487273 161.854495 
L 398.487273 161.854495 
" clip-path="url(#p7a3ef4e516)" style="fill: none; stroke: #2ca02c; stroke-opacity: 0.7; stroke-width: 1.5; stroke-linecap: square"/>
   </g>
   <g id="patch_3">
    <path d="M 57.6 307.584 
L 57.6 41.472 
" style="fill: none; stroke: #000000; stroke-width: 0.8; stroke-linejoin: miter; stroke-linecap: square"/>
   </g>
   <g id="patch_4">
    <path d="M 414.72 307.584 
L 414.72 41.472 
" style="fill: none; stroke: #000000; stroke-width: 0.8; stroke-linejoin: miter; stroke-linecap: square"/>
   </g>
   <g id="patch_5">
    <path d="M 57.6 307.584 
L 414.72 307.584 
" style="fill: none; stroke: #000000; stroke-width: 0.8; stroke-linejoin: miter; stroke-linecap: square"/>
   </g>
   <g id="patch_6">
    <path d="M 57.6 41.472 
L 414.72 41.472 
" style="fill: none; stroke: #000000; stroke-width: 0.8; stroke-linejoin: miter; stroke-linecap: square"/>
   </g>
   <g id="text_12">
    <!-- zhang_extended_adamic_adar_cci -->
    <g transform="translate(133.757812 35.472) scale(0.12 -0.12)">
     <defs>
      <path id="DejaVuSans-7a" d="M 353 3500 
L 3084 3500 
L 3084 2975 
L 922 459 
L 3084 459 
L 3084 0 
L 275 0 
L 275 525 
L 2438 3041 
L 353 3041 
L 353 3500 
z
" transform="scale(0.015625)"/>
      <path id="DejaVuSans-68" d="M 3513 2113 
L 3513 0 
L 2938 0 
L 2938 2094 
Q 2938 2591 2744 2837 
Q 2550 3084 2163 3084 
Q 1697 3084 1428 2787 
Q 1159 2491 1159 1978 
L 1159 0 
L 581 0 
L 581 4863 
L 1159 4863 
L 1159 2956 
Q 1366 3272 1645 3428 
Q 1925 3584 2291 3584 
Q 2894 3584 3203 3211 
Q 3513 2838 3513 2113 
z
" transform="scale(0.015625)"/>
      <path id="DejaVuSans-61" d="M 2194 1759 
Q 1497 1759 1228 1600 
Q 959 1441 959 1056 
Q 959 750 1161 570 
Q 1363 391 1709 391 
Q 2188 391 2477 730 
Q 2766 1069 2766 1631 
L 2766 1759 
L 2194 1759 
z
M 3341 1997 
L 3341 0 
L 2766 0 
L 2766 531 
Q 2569 213 2275 61 
Q 1981 -91 1556 -91 
Q 1019 -91 701 211 
Q 384 513 384 1019 
Q 384 1609 779 1909 
Q 1175 2209 1959 2209 
L 2766 2209 
L 2766 2266 
Q 2766 2663 2505 2880 
Q 2244 3097 1772 3097 
Q 1472 3097 1187 3025 
Q 903 2953 641 2809 
L 641 3341 
Q 956 3463 1253 3523 
Q 1550 3584 1831 3584 
Q 2591 3584 2966 3190 
Q 3341 2797 3341 1997 
z
" transform="scale(0.015625)"/>
      <path id="DejaVuSans-6e" d="M 3513 2113 
L 3513 0 
L 2938 0 
L 2938 2094 
Q 2938 2591 2744 2837 
Q 2550 3084 2163 3084 
Q 1697 3084 1428 2787 
Q 1159 2491 1159 1978 
L 1159 0 
L 581 0 
L 581 3500 
L 1159 3500 
L 1159 2956 
Q 1366 3272 1645 3428 
Q 1925 3584 2291 3584 
Q 2894 3584 3203 3211 
Q 3513 2838 3513 2113 
z
" transform="scale(0.015625)"/>
      <path id="DejaVuSans-67" d="M 2906 1791 
Q 2906 2416 2648 2759 
Q 2391 3103 1925 3103 
Q 1463 3103 1205 2759 
Q 947 2416 947 1791 
Q 947 1169 1205 825 
Q 1463 481 1925 481 
Q 2391 481 2648 825 
Q 2906 1169 2906 1791 
z
M 3481 434 
Q 3481 -459 3084 -895 
Q 2688 -1331 1869 -1331 
Q 1566 -1331 1297 -1286 
Q 1028 -1241 775 -1147 
L 775 -588 
Q 1028 -725 1275 -790 
Q 1522 -856 1778 -856 
Q 2344 -856 2625 -561 
Q 2906 -266 2906 331 
L 2906 616 
Q 2728 306 2450 153 
Q 2172 0 1784 0 
Q 1141 0 747 490 
Q 353 981 353 1791 
Q 353 2603 747 3093 
Q 1141 3584 1784 3584 
Q 2172 3584 2450 3431 
Q 2728 3278 2906 2969 
L 2906 3500 
L 3481 3500 
L 3481 434 
z
" transform="scale(0.015625)"/>
      <path id="DejaVuSans-5f" d="M 3263 -1063 
L 3263 -1509 
L -63 -1509 
L -63 -1063 
L 3263 -1063 
z
" transform="scale(0.015625)"/>
      <path id="DejaVuSans-65" d="M 3597 1894 
L 3597 1613 
L 953 1613 
Q 991 1019 1311 708 
Q 1631 397 2203 397 
Q 2534 397 2845 478 
Q 3156 559 3463 722 
L 3463 178 
Q 3153 47 2828 -22 
Q 2503 -91 2169 -91 
Q 1331 -91 842 396 
Q 353 884 353 1716 
Q 353 2575 817 3079 
Q 1281 3584 2069 3584 
Q 2775 3584 3186 3129 
Q 3597 2675 3597 1894 
z
M 3022 2063 
Q 3016 2534 2758 2815 
Q 2500 3097 2075 3097 
Q 1594 3097 1305 2825 
Q 1016 2553 972 2059 
L 3022 2063 
z
" transform="scale(0.015625)"/>
      <path id="DejaVuSans-78" d="M 3513 3500 
L 2247 1797 
L 3578 0 
L 2900 0 
L 1881 1375 
L 863 0 
L 184 0 
L 1544 1831 
L 300 3500 
L 978 3500 
L 1906 2253 
L 2834 3500 
L 3513 3500 
z
" transform="scale(0.015625)"/>
      <path id="DejaVuSans-74" d="M 1172 4494 
L 1172 3500 
L 2356 3500 
L 2356 3053 
L 1172 3053 
L 1172 1153 
Q 1172 725 1289 603 
Q 1406 481 1766 481 
L 2356 481 
L 2356 0 
L 1766 0 
Q 1100 0 847 248 
Q 594 497 594 1153 
L 594 3053 
L 172 3053 
L 172 3500 
L 594 3500 
L 594 4494 
L 1172 4494 
z
" transform="scale(0.015625)"/>
      <path id="DejaVuSans-64" d="M 2906 2969 
L 2906 4863 
L 3481 4863 
L 3481 0 
L 2906 0 
L 2906 525 
Q 2725 213 2448 61 
Q 2172 -91 1784 -91 
Q 1150 -91 751 415 
Q 353 922 353 1747 
Q 353 2572 751 3078 
Q 1150 3584 1784 3584 
Q 2172 3584 2448 3432 
Q 2725 3281 2906 2969 
z
M 947 1747 
Q 947 1113 1208 752 
Q 1469 391 1925 391 
Q 2381 391 2643 752 
Q 2906 1113 2906 1747 
Q 2906 2381 2643 2742 
Q 2381 3103 1925 3103 
Q 1469 3103 1208 2742 
Q 947 2381 947 1747 
z
" transform="scale(0.015625)"/>
      <path id="DejaVuSans-6d" d="M 3328 2828 
Q 3544 3216 3844 3400 
Q 4144 3584 4550 3584 
Q 5097 3584 5394 3201 
Q 5691 2819 5691 2113 
L 5691 0 
L 5113 0 
L 5113 2094 
Q 5113 2597 4934 2840 
Q 4756 3084 4391 3084 
Q 3944 3084 3684 2787 
Q 3425 2491 3425 1978 
L 3425 0 
L 2847 0 
L 2847 2094 
Q 2847 2600 2669 2842 
Q 2491 3084 2119 3084 
Q 1678 3084 1418 2786 
Q 1159 2488 1159 1978 
L 1159 0 
L 581 0 
L 581 3500 
L 1159 3500 
L 1159 2956 
Q 1356 3278 1631 3431 
Q 1906 3584 2284 3584 
Q 2666 3584 2933 3390 
Q 3200 3197 3328 2828 
z
" transform="scale(0.015625)"/>
      <path id="DejaVuSans-69" d="M 603 3500 
L 1178 3500 
L 1178 0 
L 603 0 
L 603 3500 
z
M 603 4863 
L 1178 4863 
L 1178 4134 
L 603 4134 
L 603 4863 
z
" transform="scale(0.015625)"/>
      <path id="DejaVuSans-63" d="M 3122 3366 
L 3122 2828 
Q 2878 2963 2633 3030 
Q 2388 3097 2138 3097 
Q 1578 3097 1268 2742 
Q 959 2388 959 1747 
Q 959 1106 1268 751 
Q 1578 397 2138 397 
Q 2388 397 2633 464 
Q 2878 531 3122 666 
L 3122 134 
Q 2881 22 2623 -34 
Q 2366 -91 2075 -91 
Q 1284 -91 818 406 
Q 353 903 353 1747 
Q 353 2603 823 3093 
Q 1294 3584 2113 3584 
Q 2378 3584 2631 3529 
Q 2884 3475 3122 3366 
z
" transform="scale(0.015625)"/>
      <path id="DejaVuSans-72" d="M 2631 2963 
Q 2534 3019 2420 3045 
Q 2306 3072 2169 3072 
Q 1681 3072 1420 2755 
Q 1159 2438 1159 1844 
L 1159 0 
L 581 0 
L 581 3500 
L 1159 3500 
L 1159 2956 
Q 1341 3275 1631 3429 
Q 1922 3584 2338 3584 
Q 2397 3584 2469 3576 
Q 2541 3569 2628 3553 
L 2631 2963 
z
" transform="scale(0.015625)"/>
     </defs>
     <use xlink:href="#DejaVuSans-7a"/>
     <use xlink:href="#DejaVuSans-68" x="52.490234"/>
     <use xlink:href="#DejaVuSans-61" x="115.869141"/>
     <use xlink:href="#DejaVuSans-6e" x="177.148438"/>
     <use xlink:href="#DejaVuSans-67" x="240.527344"/>
     <use xlink:href="#DejaVuSans-5f" x="304.003906"/>
     <use xlink:href="#DejaVuSans-65" x="354.003906"/>
     <use xlink:href="#DejaVuSans-78" x="413.777344"/>
     <use xlink:href="#DejaVuSans-74" x="472.957031"/>
     <use xlink:href="#DejaVuSans-65" x="512.166016"/>
     <use xlink:href="#DejaVuSans-6e" x="573.689453"/>
     <use xlink:href="#DejaVuSans-64" x="637.068359"/>
     <use xlink:href="#DejaVuSans-65" x="700.544922"/>
     <use xlink:href="#DejaVuSans-64" x="762.068359"/>
     <use xlink:href="#DejaVuSans-5f" x="825.544922"/>
     <use xlink:href="#DejaVuSans-61" x="875.544922"/>
     <use xlink:href="#DejaVuSans-64" x="936.824219"/>
     <use xlink:href="#DejaVuSans-61" x="1000.300781"/>
     <use xlink:href="#DejaVuSans-6d" x="1061.580078"/>
     <use xlink:href="#DejaVuSans-69" x="1158.992188"/>
     <use xlink:href="#DejaVuSans-63" x="1186.775391"/>
     <use xlink:href="#DejaVuSans-5f" x="1241.755859"/>
     <use xlink:href="#DejaVuSans-61" x="1291.755859"/>
     <use xlink:href="#DejaVuSans-64" x="1353.035156"/>
     <use xlink:href="#DejaVuSans-61" x="1416.511719"/>
     <use xlink:href="#DejaVuSans-72" x="1477.791016"/>
     <use xlink:href="#DejaVuSans-5f" x="1518.904297"/>
     <use xlink:href="#DejaVuSans-63" x="1568.904297"/>
     <use xlink:href="#DejaVuSans-63" x="1623.884766"/>
     <use xlink:href="#DejaVuSans-69" x="1678.865234"/>
    </g>
   </g>
   <g id="legend_1">
    <g id="patch_7">
     <path d="M 64.6 93.506375 
L 258.804688 93.506375 
Q 260.804688 93.506375 260.804688 91.506375 
L 260.804688 48.472 
Q 260.804688 46.472 258.804688 46.472 
L 64.6 46.472 
Q 62.6 46.472 62.6 48.472 
L 62.6 91.506375 
Q 62.6 93.506375 64.6 93.506375 
z
" style="fill: #ffffff; opacity: 0.8; stroke: #cccccc; stroke-linejoin: miter"/>
    </g>
    <g id="line2d_15">
     <path d="M 66.6 54.570438 
L 76.6 54.570438 
L 86.6 54.570438 
" style="fill: none; stroke: #1f77b4; stroke-opacity: 0.7; stroke-width: 1.5; stroke-linecap: square"/>
    </g>
    <g id="text_13">
     <!-- Positive cumulative predictions -->
     <g transform="translate(94.6 58.070438) scale(0.1 -0.1)">
      <defs>
       <path id="DejaVuSans-50" d="M 1259 4147 
L 1259 2394 
L 2053 2394 
Q 2494 2394 2734 2622 
Q 2975 2850 2975 3272 
Q 2975 3691 2734 3919 
Q 2494 4147 2053 4147 
L 1259 4147 
z
M 628 4666 
L 2053 4666 
Q 2838 4666 3239 4311 
Q 3641 3956 3641 3272 
Q 3641 2581 3239 2228 
Q 2838 1875 2053 1875 
L 1259 1875 
L 1259 0 
L 628 0 
L 628 4666 
z
" transform="scale(0.015625)"/>
       <path id="DejaVuSans-6f" d="M 1959 3097 
Q 1497 3097 1228 2736 
Q 959 2375 959 1747 
Q 959 1119 1226 758 
Q 1494 397 1959 397 
Q 2419 397 2687 759 
Q 2956 1122 2956 1747 
Q 2956 2369 2687 2733 
Q 2419 3097 1959 3097 
z
M 1959 3584 
Q 2709 3584 3137 3096 
Q 3566 2609 3566 1747 
Q 3566 888 3137 398 
Q 2709 -91 1959 -91 
Q 1206 -91 779 398 
Q 353 888 353 1747 
Q 353 2609 779 3096 
Q 1206 3584 1959 3584 
z
" transform="scale(0.015625)"/>
       <path id="DejaVuSans-73" d="M 2834 3397 
L 2834 2853 
Q 2591 2978 2328 3040 
Q 2066 3103 1784 3103 
Q 1356 3103 1142 2972 
Q 928 2841 928 2578 
Q 928 2378 1081 2264 
Q 1234 2150 1697 2047 
L 1894 2003 
Q 2506 1872 2764 1633 
Q 3022 1394 3022 966 
Q 3022 478 2636 193 
Q 2250 -91 1575 -91 
Q 1294 -91 989 -36 
Q 684 19 347 128 
L 347 722 
Q 666 556 975 473 
Q 1284 391 1588 391 
Q 1994 391 2212 530 
Q 2431 669 2431 922 
Q 2431 1156 2273 1281 
Q 2116 1406 1581 1522 
L 1381 1569 
Q 847 1681 609 1914 
Q 372 2147 372 2553 
Q 372 3047 722 3315 
Q 1072 3584 1716 3584 
Q 2034 3584 2315 3537 
Q 2597 3491 2834 3397 
z
" transform="scale(0.015625)"/>
       <path id="DejaVuSans-76" d="M 191 3500 
L 800 3500 
L 1894 563 
L 2988 3500 
L 3597 3500 
L 2284 0 
L 1503 0 
L 191 3500 
z
" transform="scale(0.015625)"/>
       <path id="DejaVuSans-20" transform="scale(0.015625)"/>
       <path id="DejaVuSans-75" d="M 544 1381 
L 544 3500 
L 1119 3500 
L 1119 1403 
Q 1119 906 1312 657 
Q 1506 409 1894 409 
Q 2359 409 2629 706 
Q 2900 1003 2900 1516 
L 2900 3500 
L 3475 3500 
L 3475 0 
L 2900 0 
L 2900 538 
Q 2691 219 2414 64 
Q 2138 -91 1772 -91 
Q 1169 -91 856 284 
Q 544 659 544 1381 
z
M 1991 3584 
L 1991 3584 
z
" transform="scale(0.015625)"/>
       <path id="DejaVuSans-6c" d="M 603 4863 
L 1178 4863 
L 1178 0 
L 603 0 
L 603 4863 
z
" transform="scale(0.015625)"/>
       <path id="DejaVuSans-70" d="M 1159 525 
L 1159 -1331 
L 581 -1331 
L 581 3500 
L 1159 3500 
L 1159 2969 
Q 1341 3281 1617 3432 
Q 1894 3584 2278 3584 
Q 2916 3584 3314 3078 
Q 3713 2572 3713 1747 
Q 3713 922 3314 415 
Q 2916 -91 2278 -91 
Q 1894 -91 1617 61 
Q 1341 213 1159 525 
z
M 3116 1747 
Q 3116 2381 2855 2742 
Q 2594 3103 2138 3103 
Q 1681 3103 1420 2742 
Q 1159 2381 1159 1747 
Q 1159 1113 1420 752 
Q 1681 391 2138 391 
Q 2594 391 2855 752 
Q 3116 1113 3116 1747 
z
" transform="scale(0.015625)"/>
      </defs>
      <use xlink:href="#DejaVuSans-50"/>
      <use xlink:href="#DejaVuSans-6f" x="56.677734"/>
      <use xlink:href="#DejaVuSans-73" x="117.859375"/>
      <use xlink:href="#DejaVuSans-69" x="169.958984"/>
      <use xlink:href="#DejaVuSans-74" x="197.742188"/>
      <use xlink:href="#DejaVuSans-69" x="236.951172"/>
      <use xlink:href="#DejaVuSans-76" x="264.734375"/>
      <use xlink:href="#DejaVuSans-65" x="323.914062"/>
      <use xlink:href="#DejaVuSans-20" x="385.4375"/>
      <use xlink:href="#DejaVuSans-63" x="417.224609"/>
      <use xlink:href="#DejaVuSans-75" x="472.205078"/>
      <use xlink:href="#DejaVuSans-6d" x="535.583984"/>
      <use xlink:href="#DejaVuSans-75" x="632.996094"/>
      <use xlink:href="#DejaVuSans-6c" x="696.375"/>
      <use xlink:href="#DejaVuSans-61" x="724.158203"/>
      <use xlink:href="#DejaVuSans-74" x="785.4375"/>
      <use xlink:href="#DejaVuSans-69" x="824.646484"/>
      <use xlink:href="#DejaVuSans-76" x="852.429688"/>
      <use xlink:href="#DejaVuSans-65" x="911.609375"/>
      <use xlink:href="#DejaVuSans-20" x="973.132812"/>
      <use xlink:href="#DejaVuSans-70" x="1004.919922"/>
      <use xlink:href="#DejaVuSans-72" x="1068.396484"/>
      <use xlink:href="#DejaVuSans-65" x="1107.259766"/>
      <use xlink:href="#DejaVuSans-64" x="1168.783203"/>
      <use xlink:href="#DejaVuSans-69" x="1232.259766"/>
      <use xlink:href="#DejaVuSans-63" x="1260.042969"/>
      <use xlink:href="#DejaVuSans-74" x="1315.023438"/>
      <use xlink:href="#DejaVuSans-69" x="1354.232422"/>
      <use xlink:href="#DejaVuSans-6f" x="1382.015625"/>
      <use xlink:href="#DejaVuSans-6e" x="1443.197266"/>
      <use xlink:href="#DejaVuSans-73" x="1506.576172"/>
     </g>
    </g>
    <g id="line2d_16">
     <path d="M 66.6 69.248563 
L 76.6 69.248563 
L 86.6 69.248563 
" style="fill: none; stroke: #ff7f0e; stroke-opacity: 0.7; stroke-width: 1.5; stroke-linecap: square"/>
    </g>
    <g id="text_14">
     <!-- Negative cumulative predictions -->
     <g transform="translate(94.6 72.748563) scale(0.1 -0.1)">
      <defs>
       <path id="DejaVuSans-4e" d="M 628 4666 
L 1478 4666 
L 3547 763 
L 3547 4666 
L 4159 4666 
L 4159 0 
L 3309 0 
L 1241 3903 
L 1241 0 
L 628 0 
L 628 4666 
z
" transform="scale(0.015625)"/>
      </defs>
      <use xlink:href="#DejaVuSans-4e"/>
      <use xlink:href="#DejaVuSans-65" x="74.804688"/>
      <use xlink:href="#DejaVuSans-67" x="136.328125"/>
      <use xlink:href="#DejaVuSans-61" x="199.804688"/>
      <use xlink:href="#DejaVuSans-74" x="261.083984"/>
      <use xlink:href="#DejaVuSans-69" x="300.292969"/>
      <use xlink:href="#DejaVuSans-76" x="328.076172"/>
      <use xlink:href="#DejaVuSans-65" x="387.255859"/>
      <use xlink:href="#DejaVuSans-20" x="448.779297"/>
      <use xlink:href="#DejaVuSans-63" x="480.566406"/>
      <use xlink:href="#DejaVuSans-75" x="535.546875"/>
      <use xlink:href="#DejaVuSans-6d" x="598.925781"/>
      <use xlink:href="#DejaVuSans-75" x="696.337891"/>
      <use xlink:href="#DejaVuSans-6c" x="759.716797"/>
      <use xlink:href="#DejaVuSans-61" x="787.5"/>
      <use xlink:href="#DejaVuSans-74" x="848.779297"/>
      <use xlink:href="#DejaVuSans-69" x="887.988281"/>
      <use xlink:href="#DejaVuSans-76" x="915.771484"/>
      <use xlink:href="#DejaVuSans-65" x="974.951172"/>
      <use xlink:href="#DejaVuSans-20" x="1036.474609"/>
      <use xlink:href="#DejaVuSans-70" x="1068.261719"/>
      <use xlink:href="#DejaVuSans-72" x="1131.738281"/>
      <use xlink:href="#DejaVuSans-65" x="1170.601562"/>
      <use xlink:href="#DejaVuSans-64" x="1232.125"/>
      <use xlink:href="#DejaVuSans-69" x="1295.601562"/>
      <use xlink:href="#DejaVuSans-63" x="1323.384766"/>
      <use xlink:href="#DejaVuSans-74" x="1378.365234"/>
      <use xlink:href="#DejaVuSans-69" x="1417.574219"/>
      <use xlink:href="#DejaVuSans-6f" x="1445.357422"/>
      <use xlink:href="#DejaVuSans-6e" x="1506.539062"/>
      <use xlink:href="#DejaVuSans-73" x="1569.917969"/>
     </g>
    </g>
    <g id="line2d_17">
     <path d="M 66.6 83.926688 
L 76.6 83.926688 
L 86.6 83.926688 
" style="fill: none; stroke: #2ca02c; stroke-opacity: 0.7; stroke-width: 1.5; stroke-linecap: square"/>
    </g>
    <g id="text_15">
     <!-- Average cumulative predictions -->
     <g transform="translate(94.6 87.426688) scale(0.1 -0.1)">
      <defs>
       <path id="DejaVuSans-41" d="M 2188 4044 
L 1331 1722 
L 3047 1722 
L 2188 4044 
z
M 1831 4666 
L 2547 4666 
L 4325 0 
L 3669 0 
L 3244 1197 
L 1141 1197 
L 716 0 
L 50 0 
L 1831 4666 
z
" transform="scale(0.015625)"/>
      </defs>
      <use xlink:href="#DejaVuSans-41"/>
      <use xlink:href="#DejaVuSans-76" x="62.533203"/>
      <use xlink:href="#DejaVuSans-65" x="121.712891"/>
      <use xlink:href="#DejaVuSans-72" x="183.236328"/>
      <use xlink:href="#DejaVuSans-61" x="224.349609"/>
      <use xlink:href="#DejaVuSans-67" x="285.628906"/>
      <use xlink:href="#DejaVuSans-65" x="349.105469"/>
      <use xlink:href="#DejaVuSans-20" x="410.628906"/>
      <use xlink:href="#DejaVuSans-63" x="442.416016"/>
      <use xlink:href="#DejaVuSans-75" x="497.396484"/>
      <use xlink:href="#DejaVuSans-6d" x="560.775391"/>
      <use xlink:href="#DejaVuSans-75" x="658.1875"/>
      <use xlink:href="#DejaVuSans-6c" x="721.566406"/>
      <use xlink:href="#DejaVuSans-61" x="749.349609"/>
      <use xlink:href="#DejaVuSans-74" x="810.628906"/>
      <use xlink:href="#DejaVuSans-69" x="849.837891"/>
      <use xlink:href="#DejaVuSans-76" x="877.621094"/>
      <use xlink:href="#DejaVuSans-65" x="936.800781"/>
      <use xlink:href="#DejaVuSans-20" x="998.324219"/>
      <use xlink:href="#DejaVuSans-70" x="1030.111328"/>
      <use xlink:href="#DejaVuSans-72" x="1093.587891"/>
      <use xlink:href="#DejaVuSans-65" x="1132.451172"/>
      <use xlink:href="#DejaVuSans-64" x="1193.974609"/>
      <use xlink:href="#DejaVuSans-69" x="1257.451172"/>
      <use xlink:href="#DejaVuSans-63" x="1285.234375"/>
      <use xlink:href="#DejaVuSans-74" x="1340.214844"/>
      <use xlink:href="#DejaVuSans-69" x="1379.423828"/>
      <use xlink:href="#DejaVuSans-6f" x="1407.207031"/>
      <use xlink:href="#DejaVuSans-6e" x="1468.388672"/>
      <use xlink:href="#DejaVuSans-73" x="1531.767578"/>
     </g>
    </g>
   </g>
  </g>
 </g>
 <defs>
  <clipPath id="p7a3ef4e516">
   <rect x="57.6" y="41.472" width="357.12" height="266.112"/>
  </clipPath>
 </defs>
</svg>
