<?xml version="1.0" encoding="utf-8" standalone="no"?>
<!DOCTYPE svg PUBLIC "-//W3C//DTD SVG 1.1//EN"
  "http://www.w3.org/Graphics/SVG/1.1/DTD/svg11.dtd">
<svg xmlns:xlink="http://www.w3.org/1999/xlink" width="460.8pt" height="345.6pt" viewBox="0 0 460.8 345.6" xmlns="http://www.w3.org/2000/svg" version="1.1">
 <metadata>
  <rdf:RDF xmlns:dc="http://purl.org/dc/elements/1.1/" xmlns:cc="http://creativecommons.org/ns#" xmlns:rdf="http://www.w3.org/1999/02/22-rdf-syntax-ns#">
   <cc:Work>
    <dc:type rdf:resource="http://purl.org/dc/dcmitype/StillImage"/>
    <dc:date>2024-07-19T10:40:21.025801</dc:date>
    <dc:format>image/svg+xml</dc:format>
    <dc:creator>
     <cc:Agent>
      <dc:title>Matplotlib v3.9.0, https://matplotlib.org/</dc:title>
     </cc:Agent>
    </dc:creator>
   </cc:Work>
  </rdf:RDF>
 </metadata>
 <defs>
  <style type="text/css">*{stroke-linejoin: round; stroke-linecap: butt}</style>
 </defs>
 <g id="figure_1">
  <g id="patch_1">
   <path d="M 0 345.6 
L 460.8 345.6 
L 460.8 0 
L 0 0 
z
" style="fill: #ffffff"/>
  </g>
  <g id="axes_1">
   <g id="patch_2">
    <path d="M 57.6 307.584 
L 414.72 307.584 
L 414.72 41.472 
L 57.6 41.472 
z
" style="fill: #ffffff"/>
   </g>
   <g id="matplotlib.axis_1">
    <g id="xtick_1">
     <g id="line2d_1">
      <defs>
       <path id="m114f243005" d="M 0 0 
L 0 3.5 
" style="stroke: #000000; stroke-width: 0.8"/>
      </defs>
      <g>
       <use xlink:href="#m114f243005" x="73.832727" y="307.584" style="stroke: #000000; stroke-width: 0.8"/>
      </g>
     </g>
     <g id="text_1">
      <!-- 0 -->
      <g transform="translate(70.651477 322.182437) scale(0.1 -0.1)">
       <defs>
        <path id="DejaVuSans-30" d="M 2034 4250 
Q 1547 4250 1301 3770 
Q 1056 3291 1056 2328 
Q 1056 1369 1301 889 
Q 1547 409 2034 409 
Q 2525 409 2770 889 
Q 3016 1369 3016 2328 
Q 3016 3291 2770 3770 
Q 2525 4250 2034 4250 
z
M 2034 4750 
Q 2819 4750 3233 4129 
Q 3647 3509 3647 2328 
Q 3647 1150 3233 529 
Q 2819 -91 2034 -91 
Q 1250 -91 836 529 
Q 422 1150 422 2328 
Q 422 3509 836 4129 
Q 1250 4750 2034 4750 
z
" transform="scale(0.015625)"/>
       </defs>
       <use xlink:href="#DejaVuSans-30"/>
      </g>
     </g>
    </g>
    <g id="xtick_2">
     <g id="line2d_2">
      <g>
       <use xlink:href="#m114f243005" x="149.333784" y="307.584" style="stroke: #000000; stroke-width: 0.8"/>
      </g>
     </g>
     <g id="text_2">
      <!-- 50 -->
      <g transform="translate(142.971284 322.182437) scale(0.1 -0.1)">
       <defs>
        <path id="DejaVuSans-35" d="M 691 4666 
L 3169 4666 
L 3169 4134 
L 1269 4134 
L 1269 2991 
Q 1406 3038 1543 3061 
Q 1681 3084 1819 3084 
Q 2600 3084 3056 2656 
Q 3513 2228 3513 1497 
Q 3513 744 3044 326 
Q 2575 -91 1722 -91 
Q 1428 -91 1123 -41 
Q 819 9 494 109 
L 494 744 
Q 775 591 1075 516 
Q 1375 441 1709 441 
Q 2250 441 2565 725 
Q 2881 1009 2881 1497 
Q 2881 1984 2565 2268 
Q 2250 2553 1709 2553 
Q 1456 2553 1204 2497 
Q 953 2441 691 2322 
L 691 4666 
z
" transform="scale(0.015625)"/>
       </defs>
       <use xlink:href="#DejaVuSans-35"/>
       <use xlink:href="#DejaVuSans-30" x="63.623047"/>
      </g>
     </g>
    </g>
    <g id="xtick_3">
     <g id="line2d_3">
      <g>
       <use xlink:href="#m114f243005" x="224.834841" y="307.584" style="stroke: #000000; stroke-width: 0.8"/>
      </g>
     </g>
     <g id="text_3">
      <!-- 100 -->
      <g transform="translate(215.291091 322.182437) scale(0.1 -0.1)">
       <defs>
        <path id="DejaVuSans-31" d="M 794 531 
L 1825 531 
L 1825 4091 
L 703 3866 
L 703 4441 
L 1819 4666 
L 2450 4666 
L 2450 531 
L 3481 531 
L 3481 0 
L 794 0 
L 794 531 
z
" transform="scale(0.015625)"/>
       </defs>
       <use xlink:href="#DejaVuSans-31"/>
       <use xlink:href="#DejaVuSans-30" x="63.623047"/>
       <use xlink:href="#DejaVuSans-30" x="127.246094"/>
      </g>
     </g>
    </g>
    <g id="xtick_4">
     <g id="line2d_4">
      <g>
       <use xlink:href="#m114f243005" x="300.335899" y="307.584" style="stroke: #000000; stroke-width: 0.8"/>
      </g>
     </g>
     <g id="text_4">
      <!-- 150 -->
      <g transform="translate(290.792149 322.182437) scale(0.1 -0.1)">
       <use xlink:href="#DejaVuSans-31"/>
       <use xlink:href="#DejaVuSans-35" x="63.623047"/>
       <use xlink:href="#DejaVuSans-30" x="127.246094"/>
      </g>
     </g>
    </g>
    <g id="xtick_5">
     <g id="line2d_5">
      <g>
       <use xlink:href="#m114f243005" x="375.836956" y="307.584" style="stroke: #000000; stroke-width: 0.8"/>
      </g>
     </g>
     <g id="text_5">
      <!-- 200 -->
      <g transform="translate(366.293206 322.182437) scale(0.1 -0.1)">
       <defs>
        <path id="DejaVuSans-32" d="M 1228 531 
L 3431 531 
L 3431 0 
L 469 0 
L 469 531 
Q 828 903 1448 1529 
Q 2069 2156 2228 2338 
Q 2531 2678 2651 2914 
Q 2772 3150 2772 3378 
Q 2772 3750 2511 3984 
Q 2250 4219 1831 4219 
Q 1534 4219 1204 4116 
Q 875 4013 500 3803 
L 500 4441 
Q 881 4594 1212 4672 
Q 1544 4750 1819 4750 
Q 2544 4750 2975 4387 
Q 3406 4025 3406 3419 
Q 3406 3131 3298 2873 
Q 3191 2616 2906 2266 
Q 2828 2175 2409 1742 
Q 1991 1309 1228 531 
z
" transform="scale(0.015625)"/>
       </defs>
       <use xlink:href="#DejaVuSans-32"/>
       <use xlink:href="#DejaVuSans-30" x="63.623047"/>
       <use xlink:href="#DejaVuSans-30" x="127.246094"/>
      </g>
     </g>
    </g>
   </g>
   <g id="matplotlib.axis_2">
    <g id="ytick_1">
     <g id="line2d_6">
      <defs>
       <path id="mf0fc485d46" d="M 0 0 
L -3.5 0 
" style="stroke: #000000; stroke-width: 0.8"/>
      </defs>
      <g>
       <use xlink:href="#mf0fc485d46" x="57.6" y="294.528459" style="stroke: #000000; stroke-width: 0.8"/>
      </g>
     </g>
     <g id="text_6">
      <!-- −1250 -->
      <g transform="translate(16.770313 298.327678) scale(0.1 -0.1)">
       <defs>
        <path id="DejaVuSans-2212" d="M 678 2272 
L 4684 2272 
L 4684 1741 
L 678 1741 
L 678 2272 
z
" transform="scale(0.015625)"/>
       </defs>
       <use xlink:href="#DejaVuSans-2212"/>
       <use xlink:href="#DejaVuSans-31" x="83.789062"/>
       <use xlink:href="#DejaVuSans-32" x="147.412109"/>
       <use xlink:href="#DejaVuSans-35" x="211.035156"/>
       <use xlink:href="#DejaVuSans-30" x="274.658203"/>
      </g>
     </g>
    </g>
    <g id="ytick_2">
     <g id="line2d_7">
      <g>
       <use xlink:href="#mf0fc485d46" x="57.6" y="263.440811" style="stroke: #000000; stroke-width: 0.8"/>
      </g>
     </g>
     <g id="text_7">
      <!-- −1000 -->
      <g transform="translate(16.770313 267.240029) scale(0.1 -0.1)">
       <use xlink:href="#DejaVuSans-2212"/>
       <use xlink:href="#DejaVuSans-31" x="83.789062"/>
       <use xlink:href="#DejaVuSans-30" x="147.412109"/>
       <use xlink:href="#DejaVuSans-30" x="211.035156"/>
       <use xlink:href="#DejaVuSans-30" x="274.658203"/>
      </g>
     </g>
    </g>
    <g id="ytick_3">
     <g id="line2d_8">
      <g>
       <use xlink:href="#mf0fc485d46" x="57.6" y="232.353162" style="stroke: #000000; stroke-width: 0.8"/>
      </g>
     </g>
     <g id="text_8">
      <!-- −750 -->
      <g transform="translate(23.132812 236.152381) scale(0.1 -0.1)">
       <defs>
        <path id="DejaVuSans-37" d="M 525 4666 
L 3525 4666 
L 3525 4397 
L 1831 0 
L 1172 0 
L 2766 4134 
L 525 4134 
L 525 4666 
z
" transform="scale(0.015625)"/>
       </defs>
       <use xlink:href="#DejaVuSans-2212"/>
       <use xlink:href="#DejaVuSans-37" x="83.789062"/>
       <use xlink:href="#DejaVuSans-35" x="147.412109"/>
       <use xlink:href="#DejaVuSans-30" x="211.035156"/>
      </g>
     </g>
    </g>
    <g id="ytick_4">
     <g id="line2d_9">
      <g>
       <use xlink:href="#mf0fc485d46" x="57.6" y="201.265513" style="stroke: #000000; stroke-width: 0.8"/>
      </g>
     </g>
     <g id="text_9">
      <!-- −500 -->
      <g transform="translate(23.132812 205.064732) scale(0.1 -0.1)">
       <use xlink:href="#DejaVuSans-2212"/>
       <use xlink:href="#DejaVuSans-35" x="83.789062"/>
       <use xlink:href="#DejaVuSans-30" x="147.412109"/>
       <use xlink:href="#DejaVuSans-30" x="211.035156"/>
      </g>
     </g>
    </g>
    <g id="ytick_5">
     <g id="line2d_10">
      <g>
       <use xlink:href="#mf0fc485d46" x="57.6" y="170.177865" style="stroke: #000000; stroke-width: 0.8"/>
      </g>
     </g>
     <g id="text_10">
      <!-- −250 -->
      <g transform="translate(23.132812 173.977083) scale(0.1 -0.1)">
       <use xlink:href="#DejaVuSans-2212"/>
       <use xlink:href="#DejaVuSans-32" x="83.789062"/>
       <use xlink:href="#DejaVuSans-35" x="147.412109"/>
       <use xlink:href="#DejaVuSans-30" x="211.035156"/>
      </g>
     </g>
    </g>
    <g id="ytick_6">
     <g id="line2d_11">
      <g>
       <use xlink:href="#mf0fc485d46" x="57.6" y="139.090216" style="stroke: #000000; stroke-width: 0.8"/>
      </g>
     </g>
     <g id="text_11">
      <!-- 0 -->
      <g transform="translate(44.2375 142.889435) scale(0.1 -0.1)">
       <use xlink:href="#DejaVuSans-30"/>
      </g>
     </g>
    </g>
    <g id="ytick_7">
     <g id="line2d_12">
      <g>
       <use xlink:href="#mf0fc485d46" x="57.6" y="108.002567" style="stroke: #000000; stroke-width: 0.8"/>
      </g>
     </g>
     <g id="text_12">
      <!-- 250 -->
      <g transform="translate(31.5125 111.801786) scale(0.1 -0.1)">
       <use xlink:href="#DejaVuSans-32"/>
       <use xlink:href="#DejaVuSans-35" x="63.623047"/>
       <use xlink:href="#DejaVuSans-30" x="127.246094"/>
      </g>
     </g>
    </g>
    <g id="ytick_8">
     <g id="line2d_13">
      <g>
       <use xlink:href="#mf0fc485d46" x="57.6" y="76.914918" style="stroke: #000000; stroke-width: 0.8"/>
      </g>
     </g>
     <g id="text_13">
      <!-- 500 -->
      <g transform="translate(31.5125 80.714137) scale(0.1 -0.1)">
       <use xlink:href="#DejaVuSans-35"/>
       <use xlink:href="#DejaVuSans-30" x="63.623047"/>
       <use xlink:href="#DejaVuSans-30" x="127.246094"/>
      </g>
     </g>
    </g>
    <g id="ytick_9">
     <g id="line2d_14">
      <g>
       <use xlink:href="#mf0fc485d46" x="57.6" y="45.82727" style="stroke: #000000; stroke-width: 0.8"/>
      </g>
     </g>
     <g id="text_14">
      <!-- 750 -->
      <g transform="translate(31.5125 49.626489) scale(0.1 -0.1)">
       <use xlink:href="#DejaVuSans-37"/>
       <use xlink:href="#DejaVuSans-35" x="63.623047"/>
       <use xlink:href="#DejaVuSans-30" x="127.246094"/>
      </g>
     </g>
    </g>
   </g>
   <g id="line2d_15">
    <path d="M 73.832727 140.041582 
L 75.342748 143.375802 
L 78.362791 141.200008 
L 79.872812 140.702605 
L 81.382833 139.832151 
L 82.892854 140.889131 
L 84.402875 139.798041 
L 85.912896 143.679556 
L 87.422918 149.445767 
L 88.932939 158.328211 
L 91.952981 149.754117 
L 93.463002 147.640157 
L 94.973023 152.61418 
L 96.483044 152.074377 
L 97.993066 152.290458 
L 99.503087 154.763865 
L 101.013108 155.689992 
L 102.523129 157.455417 
L 104.03315 155.652559 
L 105.543171 156.181306 
L 107.053192 153.6323 
L 108.563214 152.50408 
L 110.073235 151.826635 
L 111.583256 153.463918 
L 113.093277 154.045559 
L 114.603298 152.761247 
L 117.62334 151.722405 
L 119.133362 152.105819 
L 120.643383 151.867759 
L 122.153404 150.488628 
L 123.663425 150.612978 
L 125.173446 151.250606 
L 126.683467 151.27574 
L 128.193488 157.860213 
L 129.70351 159.016218 
L 131.213531 155.405818 
L 132.723552 157.06217 
L 134.233573 156.778363 
L 135.743594 156.122765 
L 137.253615 155.058162 
L 138.763636 155.895974 
L 140.273658 155.762271 
L 141.783679 156.6338 
L 144.803721 160.154649 
L 146.313742 160.949995 
L 147.823763 163.573965 
L 149.333784 165.103454 
L 150.843805 166.956132 
L 152.353827 166.595533 
L 153.863848 164.516905 
L 155.373869 165.452839 
L 156.88389 164.0901 
L 158.393911 161.378543 
L 159.903932 166.725619 
L 161.413953 169.617922 
L 162.923975 170.380372 
L 164.433996 168.540816 
L 165.944017 165.60188 
L 167.454038 165.60188 
L 168.964059 165.747114 
L 170.47408 164.909626 
L 171.984101 168.191594 
L 173.494123 167.012583 
L 175.004144 169.4729 
L 176.514165 168.795067 
L 178.024186 168.985629 
L 179.534207 168.072605 
L 181.044228 169.473193 
L 182.554249 172.002288 
L 184.064271 171.66569 
L 185.574292 174.686671 
L 187.084313 175.685452 
L 188.594334 174.745727 
L 190.104355 172.513809 
L 191.614376 172.942867 
L 193.124397 171.111862 
L 194.634419 170.356876 
L 196.14444 173.613725 
L 197.654461 172.366268 
L 199.164482 175.80864 
L 200.674503 178.747912 
L 202.184524 178.572138 
L 203.694545 181.501773 
L 205.204567 179.958226 
L 206.714588 177.135967 
L 208.224609 177.198142 
L 209.73463 177.744431 
L 212.754672 184.789324 
L 214.264693 182.423525 
L 215.774715 184.441351 
L 217.284736 183.326737 
L 218.794757 179.884708 
L 220.304778 181.376915 
L 221.814799 179.873238 
L 223.32482 184.494935 
L 224.834841 183.9203 
L 226.344863 184.771921 
L 227.854884 183.049827 
L 229.364905 180.982667 
L 230.874926 182.537049 
L 232.384947 183.069113 
L 233.894968 182.701753 
L 235.404989 185.983195 
L 236.915011 195.072259 
L 238.425032 190.183695 
L 239.935053 188.163345 
L 241.445074 187.284543 
L 242.955095 187.619159 
L 244.465116 183.732502 
L 245.975137 192.846194 
L 247.485159 190.309609 
L 248.99518 192.460524 
L 250.505201 187.881282 
L 252.015222 190.628536 
L 253.525243 190.908445 
L 255.035264 197.504011 
L 256.545285 193.904013 
L 259.565328 188.132785 
L 261.075349 188.835294 
L 262.58537 186.303577 
L 264.095391 189.565331 
L 265.605412 196.327851 
L 267.115433 191.819279 
L 268.625455 191.21803 
L 270.135476 190.884073 
L 271.645497 196.294367 
L 273.155518 194.167124 
L 274.665539 196.563314 
L 276.17556 195.301088 
L 277.685581 196.893069 
L 279.195603 197.5223 
L 280.705624 193.666332 
L 282.215645 197.518415 
L 283.725666 199.882834 
L 285.235687 209.534439 
L 286.745708 213.655022 
L 288.255729 215.75509 
L 289.765751 217.51023 
L 291.275772 215.699628 
L 292.785793 220.923971 
L 294.295814 230.576687 
L 295.805835 226.500725 
L 297.315856 223.039391 
L 298.825877 220.663158 
L 300.335899 219.668354 
L 301.84592 220.725334 
L 303.355941 222.42856 
L 304.865962 227.258077 
L 306.375983 229.834733 
L 307.886004 228.258798 
L 309.396025 226.501585 
L 312.416068 237.313523 
L 313.926089 236.842935 
L 315.43611 242.129581 
L 316.946131 240.120158 
L 318.456152 238.791039 
L 319.966173 240.401709 
L 321.476195 237.638037 
L 322.986216 235.953045 
L 324.496237 235.082591 
L 326.006258 236.263922 
L 327.516279 238.262952 
L 329.0263 236.836416 
L 330.536321 240.704161 
L 332.046342 253.384849 
L 333.556364 253.77064 
L 335.066385 247.746513 
L 336.576406 244.40816 
L 338.086427 242.740539 
L 339.596448 238.607629 
L 341.106469 241.143667 
L 342.61649 250.058531 
L 344.126512 246.301752 
L 345.636533 246.229214 
L 347.146554 249.977521 
L 348.656575 252.258091 
L 350.166596 247.989487 
L 351.676617 251.278885 
L 353.186638 247.838759 
L 354.69666 245.531136 
L 356.206681 245.041998 
L 357.716702 246.248349 
L 359.226723 245.385841 
L 360.736744 248.136358 
L 362.246765 251.887606 
L 363.756786 262.228728 
L 365.266808 268.182232 
L 366.776829 289.103262 
L 368.28685 291.306232 
L 369.796871 283.286075 
L 371.306892 273.30453 
L 372.816913 277.53245 
L 374.326934 277.12432 
L 375.836956 278.767415 
L 377.346977 277.119166 
L 378.856998 282.252153 
L 380.367019 280.762686 
L 381.87704 277.365519 
L 383.387061 277.655567 
L 384.897082 280.855294 
L 386.407104 280.665879 
L 387.917125 278.910584 
L 389.427146 284.739963 
L 390.937167 285.339994 
L 392.447188 284.991913 
L 393.957209 283.207308 
L 395.46723 282.983567 
L 396.977252 292.608063 
L 398.487273 295.488 
L 398.487273 295.488 
" clip-path="url(#pf4350d52d2)" style="fill: none; stroke: #1f77b4; stroke-opacity: 0.7; stroke-width: 1.5; stroke-linecap: square"/>
   </g>
   <g id="line2d_16">
    <path d="M 73.832727 139.828567 
L 75.342748 143.010543 
L 76.85277 140.743872 
L 78.362791 139.769921 
L 79.872812 138.655253 
L 81.382833 137.136744 
L 82.892854 137.422805 
L 84.402875 135.86572 
L 85.912896 139.306078 
L 88.932939 150.928299 
L 90.44296 140.980252 
L 91.952981 135.535902 
L 93.463002 131.243427 
L 94.973023 133.903461 
L 96.483044 133.02273 
L 97.993066 133.05397 
L 99.503087 135.271441 
L 101.013108 135.717751 
L 102.523129 136.954132 
L 104.03315 134.389401 
L 105.543171 134.655887 
L 107.053192 131.85332 
L 108.563214 130.152472 
L 110.073235 128.663225 
L 111.583256 129.290851 
L 113.093277 129.278922 
L 114.603298 127.607704 
L 117.62334 125.47275 
L 119.133362 125.052929 
L 120.643383 124.330574 
L 122.153404 122.478923 
L 123.663425 121.650921 
L 125.173446 121.495245 
L 126.683467 121.122143 
L 128.193488 127.350394 
L 129.70351 128.687705 
L 131.213531 124.975524 
L 132.723552 127.080528 
L 134.233573 127.238858 
L 135.743594 126.722776 
L 137.253615 125.616566 
L 138.763636 125.913107 
L 140.273658 125.259235 
L 141.783679 125.792743 
L 143.2937 127.08512 
L 144.803721 128.142405 
L 146.313742 127.707178 
L 147.823763 129.392129 
L 149.333784 129.868806 
L 150.843805 130.623107 
L 152.353827 129.047999 
L 153.863848 126.040825 
L 155.373869 126.514798 
L 156.88389 124.570432 
L 158.393911 121.38733 
L 159.903932 125.359455 
L 161.413953 127.948333 
L 162.923975 127.808921 
L 164.433996 125.20739 
L 165.944017 122.144799 
L 167.454038 120.942714 
L 168.964059 119.457749 
L 170.47408 117.237113 
L 171.984101 119.21859 
L 173.494123 117.428573 
L 175.004144 119.248973 
L 176.514165 117.996797 
L 178.024186 117.82398 
L 179.534207 116.417191 
L 181.044228 117.241628 
L 182.554249 119.213509 
L 184.064271 117.721301 
L 185.574292 120.414759 
L 187.084313 120.58056 
L 188.594334 118.77361 
L 190.104355 116.291828 
L 191.614376 116.412225 
L 193.124397 114.309716 
L 194.634419 112.709126 
L 196.14444 114.77306 
L 197.654461 113.340472 
L 200.674503 119.08231 
L 202.184524 116.595298 
L 203.694545 118.847282 
L 205.204567 116.149949 
L 206.714588 112.996395 
L 208.224609 111.810362 
L 209.73463 111.291346 
L 211.244651 114.174256 
L 212.754672 117.650893 
L 214.264693 113.049921 
L 215.774715 115.152237 
L 217.284736 113.284956 
L 218.794757 109.708136 
L 220.304778 110.20031 
L 221.814799 107.962697 
L 223.32482 111.713585 
L 224.834841 111.037034 
L 226.344863 111.773872 
L 229.364905 107.926364 
L 230.874926 108.015114 
L 232.384947 107.721269 
L 233.894968 106.71821 
L 235.404989 109.34735 
L 236.915011 118.528012 
L 238.425032 109.450418 
L 239.935053 108.565251 
L 241.445074 108.167855 
L 242.955095 108.519972 
L 244.465116 104.578226 
L 245.975137 113.282221 
L 247.485159 110.772172 
L 248.99518 114.075264 
L 250.505201 108.421457 
L 252.015222 111.559943 
L 253.525243 112.692737 
L 255.035264 119.553963 
L 256.545285 112.326825 
L 258.055307 110.121942 
L 259.565328 107.152551 
L 261.075349 106.224175 
L 262.58537 103.662508 
L 264.095391 105.76156 
L 265.605412 112.453841 
L 267.115433 106.049786 
L 268.625455 106.398574 
L 270.135476 106.87592 
L 271.645497 112.266171 
L 273.155518 109.400946 
L 274.665539 112.1133 
L 276.17556 110.346485 
L 277.685581 111.855002 
L 279.195603 112.008202 
L 280.705624 107.625216 
L 282.215645 111.590208 
L 283.725666 113.723738 
L 285.235687 122.216048 
L 286.745708 121.681801 
L 288.255729 119.466218 
L 289.765751 118.162882 
L 291.275772 113.963274 
L 292.785793 117.180236 
L 294.295814 125.353525 
L 295.805835 116.648983 
L 297.315856 111.25706 
L 298.825877 106.606997 
L 300.335899 102.433768 
L 301.84592 100.514807 
L 303.355941 99.453623 
L 304.865962 102.668487 
L 306.375983 104.229954 
L 307.886004 101.995493 
L 309.396025 99.460959 
L 310.906047 103.52406 
L 312.416068 107.167501 
L 313.926089 102.690879 
L 315.43611 106.577283 
L 316.946131 102.765345 
L 318.456152 99.847789 
L 319.966173 99.933818 
L 321.476195 96.643712 
L 322.986216 94.369068 
L 324.496237 91.353261 
L 326.006258 90.424814 
L 327.516279 90.795488 
L 329.0263 88.127484 
L 330.536321 90.791215 
L 332.046342 102.760014 
L 333.556364 96.293783 
L 335.066385 87.309718 
L 336.576406 85.550122 
L 338.086427 84.492115 
L 339.596448 78.953654 
L 341.106469 77.950697 
L 342.61649 85.265514 
L 344.126512 81.721774 
L 345.636533 82.005808 
L 347.146554 85.897017 
L 348.656575 86.988193 
L 350.166596 81.217008 
L 351.676617 84.544828 
L 353.186638 80.814845 
L 354.69666 78.407682 
L 356.206681 76.731383 
L 357.716702 76.441996 
L 359.226723 74.254486 
L 360.736744 75.642468 
L 362.246765 78.697582 
L 363.756786 87.588649 
L 365.266808 86.718195 
L 366.776829 101.514032 
L 368.28685 93.704814 
L 369.796871 78.605497 
L 371.306892 66.083047 
L 372.816913 64.386474 
L 374.326934 60.450823 
L 375.836956 59.630032 
L 377.346977 57.721206 
L 378.856998 62.528709 
L 380.367019 59.682025 
L 381.87704 56.013059 
L 383.387061 54.73966 
L 384.897082 56.505058 
L 386.407104 55.812155 
L 387.917125 53.777177 
L 389.427146 58.684079 
L 390.937167 58.357142 
L 392.447188 57.157484 
L 393.957209 54.88259 
L 395.46723 53.568 
L 396.977252 62.095254 
L 398.487273 64.192414 
L 398.487273 64.192414 
" clip-path="url(#pf4350d52d2)" style="fill: none; stroke: #ff7f0e; stroke-opacity: 0.7; stroke-width: 1.5; stroke-linecap: square"/>
   </g>
   <g id="line2d_17">
    <path d="M 73.832727 139.935074 
L 75.342748 143.193173 
L 76.85277 141.491591 
L 78.362791 140.484964 
L 79.872812 139.678929 
L 81.382833 138.484447 
L 82.892854 139.155968 
L 84.402875 137.83188 
L 85.912896 141.492817 
L 87.422918 147.295882 
L 88.932939 154.628255 
L 90.44296 147.445614 
L 91.952981 142.645009 
L 93.463002 139.441792 
L 94.973023 143.258821 
L 96.483044 142.548553 
L 97.993066 142.672214 
L 99.503087 145.017653 
L 101.013108 145.703872 
L 102.523129 147.204774 
L 104.03315 145.02098 
L 105.543171 145.418596 
L 107.053192 142.74281 
L 108.563214 141.328276 
L 110.073235 140.24493 
L 111.583256 141.377384 
L 113.093277 141.662241 
L 114.603298 140.184475 
L 117.62334 138.597577 
L 119.133362 138.579374 
L 120.643383 138.099166 
L 122.153404 136.483775 
L 123.663425 136.13195 
L 125.173446 136.372925 
L 126.683467 136.198942 
L 128.193488 142.605304 
L 129.70351 143.851961 
L 131.213531 140.190671 
L 132.723552 142.071349 
L 134.233573 142.008611 
L 135.743594 141.42277 
L 137.253615 140.337364 
L 138.763636 140.904541 
L 140.273658 140.510753 
L 141.783679 141.213272 
L 144.803721 144.148527 
L 146.313742 144.328587 
L 147.823763 146.483047 
L 149.333784 147.48613 
L 150.843805 148.789619 
L 152.353827 147.821766 
L 153.863848 145.278865 
L 155.373869 145.983819 
L 156.88389 144.330266 
L 158.393911 141.382937 
L 159.903932 146.042537 
L 161.413953 148.783128 
L 162.923975 149.094646 
L 164.433996 146.874103 
L 165.944017 143.87334 
L 168.964059 142.602432 
L 170.47408 141.07337 
L 171.984101 143.705092 
L 173.494123 142.220578 
L 175.004144 144.360936 
L 176.514165 143.395932 
L 178.024186 143.404804 
L 179.534207 142.244898 
L 181.044228 143.357411 
L 182.554249 145.607898 
L 184.064271 144.693496 
L 185.574292 147.550715 
L 187.084313 148.133006 
L 188.594334 146.759668 
L 190.104355 144.402819 
L 191.614376 144.677546 
L 193.124397 142.710789 
L 194.634419 141.533001 
L 196.14444 144.193393 
L 197.654461 142.85337 
L 200.674503 148.915111 
L 202.184524 147.583718 
L 203.694545 150.174528 
L 205.204567 148.054087 
L 206.714588 145.066181 
L 208.224609 144.504252 
L 209.73463 144.517888 
L 212.754672 151.220108 
L 214.264693 147.736723 
L 215.774715 149.796794 
L 217.284736 148.305847 
L 218.794757 144.796422 
L 220.304778 145.788612 
L 221.814799 143.917968 
L 223.32482 148.10426 
L 224.834841 147.478667 
L 226.344863 148.272897 
L 227.854884 146.475537 
L 229.364905 144.454516 
L 230.874926 145.276082 
L 232.384947 145.395191 
L 233.894968 144.709981 
L 235.404989 147.665272 
L 236.915011 156.800136 
L 238.425032 149.817056 
L 239.935053 148.364298 
L 241.445074 147.726199 
L 242.955095 148.069565 
L 244.465116 144.155364 
L 245.975137 153.064208 
L 247.485159 150.54089 
L 248.99518 153.267894 
L 250.505201 148.15137 
L 252.015222 151.094239 
L 253.525243 151.800591 
L 255.035264 158.528987 
L 256.545285 153.115419 
L 258.055307 150.597658 
L 259.565328 147.642668 
L 261.075349 147.529735 
L 262.58537 144.983043 
L 264.095391 147.663445 
L 265.605412 154.390846 
L 267.115433 148.934532 
L 268.625455 148.808302 
L 270.135476 148.879996 
L 271.645497 154.280269 
L 273.155518 151.784035 
L 274.665539 154.338307 
L 276.17556 152.823787 
L 277.685581 154.374036 
L 279.195603 154.765251 
L 280.705624 150.645774 
L 282.215645 154.554311 
L 283.725666 156.803286 
L 285.235687 165.875244 
L 286.745708 167.668411 
L 288.255729 167.610654 
L 289.765751 167.836556 
L 291.275772 164.831451 
L 292.785793 169.052104 
L 294.295814 177.965106 
L 295.805835 171.574854 
L 297.315856 167.148225 
L 298.825877 163.635078 
L 300.335899 161.051061 
L 301.84592 160.62007 
L 303.355941 160.941091 
L 304.865962 164.963282 
L 306.375983 167.032343 
L 307.886004 165.127146 
L 309.396025 162.981272 
L 312.416068 172.240512 
L 313.926089 169.766907 
L 315.43611 174.353432 
L 316.946131 171.442751 
L 318.456152 169.319414 
L 319.966173 170.167764 
L 321.476195 167.140874 
L 324.496237 163.217926 
L 326.006258 163.344368 
L 327.516279 164.52922 
L 329.0263 162.48195 
L 330.536321 165.747688 
L 332.046342 178.072431 
L 333.556364 175.032211 
L 335.066385 167.528115 
L 336.576406 164.979141 
L 338.086427 163.616327 
L 339.596448 158.780641 
L 341.106469 159.547182 
L 342.61649 167.662023 
L 344.126512 164.011763 
L 345.636533 164.117511 
L 347.146554 167.937269 
L 348.656575 169.623142 
L 350.166596 164.603247 
L 351.676617 167.911857 
L 353.186638 164.326802 
L 354.69666 161.969409 
L 356.206681 160.88669 
L 357.716702 161.345172 
L 359.226723 159.820164 
L 360.736744 161.889413 
L 362.246765 165.292594 
L 363.756786 174.908689 
L 365.266808 177.450214 
L 366.776829 195.308647 
L 368.28685 192.505523 
L 371.306892 169.693788 
L 372.816913 170.959462 
L 374.326934 168.787572 
L 375.836956 169.198723 
L 377.346977 167.420186 
L 378.856998 172.390431 
L 380.367019 170.222355 
L 381.87704 166.689289 
L 383.387061 166.197614 
L 384.897082 168.680176 
L 386.407104 168.239017 
L 387.917125 166.343881 
L 389.427146 171.712021 
L 390.937167 171.848568 
L 392.447188 171.074699 
L 393.957209 169.044949 
L 395.46723 168.275784 
L 396.977252 177.351659 
L 398.487273 179.840207 
L 398.487273 179.840207 
" clip-path="url(#pf4350d52d2)" style="fill: none; stroke: #2ca02c; stroke-opacity: 0.7; stroke-width: 1.5; stroke-linecap: square"/>
   </g>
   <g id="patch_3">
    <path d="M 57.6 307.584 
L 57.6 41.472 
" style="fill: none; stroke: #000000; stroke-width: 0.8; stroke-linejoin: miter; stroke-linecap: square"/>
   </g>
   <g id="patch_4">
    <path d="M 414.72 307.584 
L 414.72 41.472 
" style="fill: none; stroke: #000000; stroke-width: 0.8; stroke-linejoin: miter; stroke-linecap: square"/>
   </g>
   <g id="patch_5">
    <path d="M 57.6 307.584 
L 414.72 307.584 
" style="fill: none; stroke: #000000; stroke-width: 0.8; stroke-linejoin: miter; stroke-linecap: square"/>
   </g>
   <g id="patch_6">
    <path d="M 57.6 41.472 
L 414.72 41.472 
" style="fill: none; stroke: #000000; stroke-width: 0.8; stroke-linejoin: miter; stroke-linecap: square"/>
   </g>
   <g id="text_15">
    <!-- zhang_extended_20_cci -->
    <g transform="translate(164.725313 35.472) scale(0.12 -0.12)">
     <defs>
      <path id="DejaVuSans-7a" d="M 353 3500 
L 3084 3500 
L 3084 2975 
L 922 459 
L 3084 459 
L 3084 0 
L 275 0 
L 275 525 
L 2438 3041 
L 353 3041 
L 353 3500 
z
" transform="scale(0.015625)"/>
      <path id="DejaVuSans-68" d="M 3513 2113 
L 3513 0 
L 2938 0 
L 2938 2094 
Q 2938 2591 2744 2837 
Q 2550 3084 2163 3084 
Q 1697 3084 1428 2787 
Q 1159 2491 1159 1978 
L 1159 0 
L 581 0 
L 581 4863 
L 1159 4863 
L 1159 2956 
Q 1366 3272 1645 3428 
Q 1925 3584 2291 3584 
Q 2894 3584 3203 3211 
Q 3513 2838 3513 2113 
z
" transform="scale(0.015625)"/>
      <path id="DejaVuSans-61" d="M 2194 1759 
Q 1497 1759 1228 1600 
Q 959 1441 959 1056 
Q 959 750 1161 570 
Q 1363 391 1709 391 
Q 2188 391 2477 730 
Q 2766 1069 2766 1631 
L 2766 1759 
L 2194 1759 
z
M 3341 1997 
L 3341 0 
L 2766 0 
L 2766 531 
Q 2569 213 2275 61 
Q 1981 -91 1556 -91 
Q 1019 -91 701 211 
Q 384 513 384 1019 
Q 384 1609 779 1909 
Q 1175 2209 1959 2209 
L 2766 2209 
L 2766 2266 
Q 2766 2663 2505 2880 
Q 2244 3097 1772 3097 
Q 1472 3097 1187 3025 
Q 903 2953 641 2809 
L 641 3341 
Q 956 3463 1253 3523 
Q 1550 3584 1831 3584 
Q 2591 3584 2966 3190 
Q 3341 2797 3341 1997 
z
" transform="scale(0.015625)"/>
      <path id="DejaVuSans-6e" d="M 3513 2113 
L 3513 0 
L 2938 0 
L 2938 2094 
Q 2938 2591 2744 2837 
Q 2550 3084 2163 3084 
Q 1697 3084 1428 2787 
Q 1159 2491 1159 1978 
L 1159 0 
L 581 0 
L 581 3500 
L 1159 3500 
L 1159 2956 
Q 1366 3272 1645 3428 
Q 1925 3584 2291 3584 
Q 2894 3584 3203 3211 
Q 3513 2838 3513 2113 
z
" transform="scale(0.015625)"/>
      <path id="DejaVuSans-67" d="M 2906 1791 
Q 2906 2416 2648 2759 
Q 2391 3103 1925 3103 
Q 1463 3103 1205 2759 
Q 947 2416 947 1791 
Q 947 1169 1205 825 
Q 1463 481 1925 481 
Q 2391 481 2648 825 
Q 2906 1169 2906 1791 
z
M 3481 434 
Q 3481 -459 3084 -895 
Q 2688 -1331 1869 -1331 
Q 1566 -1331 1297 -1286 
Q 1028 -1241 775 -1147 
L 775 -588 
Q 1028 -725 1275 -790 
Q 1522 -856 1778 -856 
Q 2344 -856 2625 -561 
Q 2906 -266 2906 331 
L 2906 616 
Q 2728 306 2450 153 
Q 2172 0 1784 0 
Q 1141 0 747 490 
Q 353 981 353 1791 
Q 353 2603 747 3093 
Q 1141 3584 1784 3584 
Q 2172 3584 2450 3431 
Q 2728 3278 2906 2969 
L 2906 3500 
L 3481 3500 
L 3481 434 
z
" transform="scale(0.015625)"/>
      <path id="DejaVuSans-5f" d="M 3263 -1063 
L 3263 -1509 
L -63 -1509 
L -63 -1063 
L 3263 -1063 
z
" transform="scale(0.015625)"/>
      <path id="DejaVuSans-65" d="M 3597 1894 
L 3597 1613 
L 953 1613 
Q 991 1019 1311 708 
Q 1631 397 2203 397 
Q 2534 397 2845 478 
Q 3156 559 3463 722 
L 3463 178 
Q 3153 47 2828 -22 
Q 2503 -91 2169 -91 
Q 1331 -91 842 396 
Q 353 884 353 1716 
Q 353 2575 817 3079 
Q 1281 3584 2069 3584 
Q 2775 3584 3186 3129 
Q 3597 2675 3597 1894 
z
M 3022 2063 
Q 3016 2534 2758 2815 
Q 2500 3097 2075 3097 
Q 1594 3097 1305 2825 
Q 1016 2553 972 2059 
L 3022 2063 
z
" transform="scale(0.015625)"/>
      <path id="DejaVuSans-78" d="M 3513 3500 
L 2247 1797 
L 3578 0 
L 2900 0 
L 1881 1375 
L 863 0 
L 184 0 
L 1544 1831 
L 300 3500 
L 978 3500 
L 1906 2253 
L 2834 3500 
L 3513 3500 
z
" transform="scale(0.015625)"/>
      <path id="DejaVuSans-74" d="M 1172 4494 
L 1172 3500 
L 2356 3500 
L 2356 3053 
L 1172 3053 
L 1172 1153 
Q 1172 725 1289 603 
Q 1406 481 1766 481 
L 2356 481 
L 2356 0 
L 1766 0 
Q 1100 0 847 248 
Q 594 497 594 1153 
L 594 3053 
L 172 3053 
L 172 3500 
L 594 3500 
L 594 4494 
L 1172 4494 
z
" transform="scale(0.015625)"/>
      <path id="DejaVuSans-64" d="M 2906 2969 
L 2906 4863 
L 3481 4863 
L 3481 0 
L 2906 0 
L 2906 525 
Q 2725 213 2448 61 
Q 2172 -91 1784 -91 
Q 1150 -91 751 415 
Q 353 922 353 1747 
Q 353 2572 751 3078 
Q 1150 3584 1784 3584 
Q 2172 3584 2448 3432 
Q 2725 3281 2906 2969 
z
M 947 1747 
Q 947 1113 1208 752 
Q 1469 391 1925 391 
Q 2381 391 2643 752 
Q 2906 1113 2906 1747 
Q 2906 2381 2643 2742 
Q 2381 3103 1925 3103 
Q 1469 3103 1208 2742 
Q 947 2381 947 1747 
z
" transform="scale(0.015625)"/>
      <path id="DejaVuSans-63" d="M 3122 3366 
L 3122 2828 
Q 2878 2963 2633 3030 
Q 2388 3097 2138 3097 
Q 1578 3097 1268 2742 
Q 959 2388 959 1747 
Q 959 1106 1268 751 
Q 1578 397 2138 397 
Q 2388 397 2633 464 
Q 2878 531 3122 666 
L 3122 134 
Q 2881 22 2623 -34 
Q 2366 -91 2075 -91 
Q 1284 -91 818 406 
Q 353 903 353 1747 
Q 353 2603 823 3093 
Q 1294 3584 2113 3584 
Q 2378 3584 2631 3529 
Q 2884 3475 3122 3366 
z
" transform="scale(0.015625)"/>
      <path id="DejaVuSans-69" d="M 603 3500 
L 1178 3500 
L 1178 0 
L 603 0 
L 603 3500 
z
M 603 4863 
L 1178 4863 
L 1178 4134 
L 603 4134 
L 603 4863 
z
" transform="scale(0.015625)"/>
     </defs>
     <use xlink:href="#DejaVuSans-7a"/>
     <use xlink:href="#DejaVuSans-68" x="52.490234"/>
     <use xlink:href="#DejaVuSans-61" x="115.869141"/>
     <use xlink:href="#DejaVuSans-6e" x="177.148438"/>
     <use xlink:href="#DejaVuSans-67" x="240.527344"/>
     <use xlink:href="#DejaVuSans-5f" x="304.003906"/>
     <use xlink:href="#DejaVuSans-65" x="354.003906"/>
     <use xlink:href="#DejaVuSans-78" x="413.777344"/>
     <use xlink:href="#DejaVuSans-74" x="472.957031"/>
     <use xlink:href="#DejaVuSans-65" x="512.166016"/>
     <use xlink:href="#DejaVuSans-6e" x="573.689453"/>
     <use xlink:href="#DejaVuSans-64" x="637.068359"/>
     <use xlink:href="#DejaVuSans-65" x="700.544922"/>
     <use xlink:href="#DejaVuSans-64" x="762.068359"/>
     <use xlink:href="#DejaVuSans-5f" x="825.544922"/>
     <use xlink:href="#DejaVuSans-32" x="875.544922"/>
     <use xlink:href="#DejaVuSans-30" x="939.167969"/>
     <use xlink:href="#DejaVuSans-5f" x="1002.791016"/>
     <use xlink:href="#DejaVuSans-63" x="1052.791016"/>
     <use xlink:href="#DejaVuSans-63" x="1107.771484"/>
     <use xlink:href="#DejaVuSans-69" x="1162.751953"/>
    </g>
   </g>
   <g id="legend_1">
    <g id="patch_7">
     <path d="M 64.6 93.506375 
L 258.804688 93.506375 
Q 260.804688 93.506375 260.804688 91.506375 
L 260.804688 48.472 
Q 260.804688 46.472 258.804688 46.472 
L 64.6 46.472 
Q 62.6 46.472 62.6 48.472 
L 62.6 91.506375 
Q 62.6 93.506375 64.6 93.506375 
z
" style="fill: #ffffff; opacity: 0.8; stroke: #cccccc; stroke-linejoin: miter"/>
    </g>
    <g id="line2d_18">
     <path d="M 66.6 54.570438 
L 76.6 54.570438 
L 86.6 54.570438 
" style="fill: none; stroke: #1f77b4; stroke-opacity: 0.7; stroke-width: 1.5; stroke-linecap: square"/>
    </g>
    <g id="text_16">
     <!-- Positive cumulative predictions -->
     <g transform="translate(94.6 58.070438) scale(0.1 -0.1)">
      <defs>
       <path id="DejaVuSans-50" d="M 1259 4147 
L 1259 2394 
L 2053 2394 
Q 2494 2394 2734 2622 
Q 2975 2850 2975 3272 
Q 2975 3691 2734 3919 
Q 2494 4147 2053 4147 
L 1259 4147 
z
M 628 4666 
L 2053 4666 
Q 2838 4666 3239 4311 
Q 3641 3956 3641 3272 
Q 3641 2581 3239 2228 
Q 2838 1875 2053 1875 
L 1259 1875 
L 1259 0 
L 628 0 
L 628 4666 
z
" transform="scale(0.015625)"/>
       <path id="DejaVuSans-6f" d="M 1959 3097 
Q 1497 3097 1228 2736 
Q 959 2375 959 1747 
Q 959 1119 1226 758 
Q 1494 397 1959 397 
Q 2419 397 2687 759 
Q 2956 1122 2956 1747 
Q 2956 2369 2687 2733 
Q 2419 3097 1959 3097 
z
M 1959 3584 
Q 2709 3584 3137 3096 
Q 3566 2609 3566 1747 
Q 3566 888 3137 398 
Q 2709 -91 1959 -91 
Q 1206 -91 779 398 
Q 353 888 353 1747 
Q 353 2609 779 3096 
Q 1206 3584 1959 3584 
z
" transform="scale(0.015625)"/>
       <path id="DejaVuSans-73" d="M 2834 3397 
L 2834 2853 
Q 2591 2978 2328 3040 
Q 2066 3103 1784 3103 
Q 1356 3103 1142 2972 
Q 928 2841 928 2578 
Q 928 2378 1081 2264 
Q 1234 2150 1697 2047 
L 1894 2003 
Q 2506 1872 2764 1633 
Q 3022 1394 3022 966 
Q 3022 478 2636 193 
Q 2250 -91 1575 -91 
Q 1294 -91 989 -36 
Q 684 19 347 128 
L 347 722 
Q 666 556 975 473 
Q 1284 391 1588 391 
Q 1994 391 2212 530 
Q 2431 669 2431 922 
Q 2431 1156 2273 1281 
Q 2116 1406 1581 1522 
L 1381 1569 
Q 847 1681 609 1914 
Q 372 2147 372 2553 
Q 372 3047 722 3315 
Q 1072 3584 1716 3584 
Q 2034 3584 2315 3537 
Q 2597 3491 2834 3397 
z
" transform="scale(0.015625)"/>
       <path id="DejaVuSans-76" d="M 191 3500 
L 800 3500 
L 1894 563 
L 2988 3500 
L 3597 3500 
L 2284 0 
L 1503 0 
L 191 3500 
z
" transform="scale(0.015625)"/>
       <path id="DejaVuSans-20" transform="scale(0.015625)"/>
       <path id="DejaVuSans-75" d="M 544 1381 
L 544 3500 
L 1119 3500 
L 1119 1403 
Q 1119 906 1312 657 
Q 1506 409 1894 409 
Q 2359 409 2629 706 
Q 2900 1003 2900 1516 
L 2900 3500 
L 3475 3500 
L 3475 0 
L 2900 0 
L 2900 538 
Q 2691 219 2414 64 
Q 2138 -91 1772 -91 
Q 1169 -91 856 284 
Q 544 659 544 1381 
z
M 1991 3584 
L 1991 3584 
z
" transform="scale(0.015625)"/>
       <path id="DejaVuSans-6d" d="M 3328 2828 
Q 3544 3216 3844 3400 
Q 4144 3584 4550 3584 
Q 5097 3584 5394 3201 
Q 5691 2819 5691 2113 
L 5691 0 
L 5113 0 
L 5113 2094 
Q 5113 2597 4934 2840 
Q 4756 3084 4391 3084 
Q 3944 3084 3684 2787 
Q 3425 2491 3425 1978 
L 3425 0 
L 2847 0 
L 2847 2094 
Q 2847 2600 2669 2842 
Q 2491 3084 2119 3084 
Q 1678 3084 1418 2786 
Q 1159 2488 1159 1978 
L 1159 0 
L 581 0 
L 581 3500 
L 1159 3500 
L 1159 2956 
Q 1356 3278 1631 3431 
Q 1906 3584 2284 3584 
Q 2666 3584 2933 3390 
Q 3200 3197 3328 2828 
z
" transform="scale(0.015625)"/>
       <path id="DejaVuSans-6c" d="M 603 4863 
L 1178 4863 
L 1178 0 
L 603 0 
L 603 4863 
z
" transform="scale(0.015625)"/>
       <path id="DejaVuSans-70" d="M 1159 525 
L 1159 -1331 
L 581 -1331 
L 581 3500 
L 1159 3500 
L 1159 2969 
Q 1341 3281 1617 3432 
Q 1894 3584 2278 3584 
Q 2916 3584 3314 3078 
Q 3713 2572 3713 1747 
Q 3713 922 3314 415 
Q 2916 -91 2278 -91 
Q 1894 -91 1617 61 
Q 1341 213 1159 525 
z
M 3116 1747 
Q 3116 2381 2855 2742 
Q 2594 3103 2138 3103 
Q 1681 3103 1420 2742 
Q 1159 2381 1159 1747 
Q 1159 1113 1420 752 
Q 1681 391 2138 391 
Q 2594 391 2855 752 
Q 3116 1113 3116 1747 
z
" transform="scale(0.015625)"/>
       <path id="DejaVuSans-72" d="M 2631 2963 
Q 2534 3019 2420 3045 
Q 2306 3072 2169 3072 
Q 1681 3072 1420 2755 
Q 1159 2438 1159 1844 
L 1159 0 
L 581 0 
L 581 3500 
L 1159 3500 
L 1159 2956 
Q 1341 3275 1631 3429 
Q 1922 3584 2338 3584 
Q 2397 3584 2469 3576 
Q 2541 3569 2628 3553 
L 2631 2963 
z
" transform="scale(0.015625)"/>
      </defs>
      <use xlink:href="#DejaVuSans-50"/>
      <use xlink:href="#DejaVuSans-6f" x="56.677734"/>
      <use xlink:href="#DejaVuSans-73" x="117.859375"/>
      <use xlink:href="#DejaVuSans-69" x="169.958984"/>
      <use xlink:href="#DejaVuSans-74" x="197.742188"/>
      <use xlink:href="#DejaVuSans-69" x="236.951172"/>
      <use xlink:href="#DejaVuSans-76" x="264.734375"/>
      <use xlink:href="#DejaVuSans-65" x="323.914062"/>
      <use xlink:href="#DejaVuSans-20" x="385.4375"/>
      <use xlink:href="#DejaVuSans-63" x="417.224609"/>
      <use xlink:href="#DejaVuSans-75" x="472.205078"/>
      <use xlink:href="#DejaVuSans-6d" x="535.583984"/>
      <use xlink:href="#DejaVuSans-75" x="632.996094"/>
      <use xlink:href="#DejaVuSans-6c" x="696.375"/>
      <use xlink:href="#DejaVuSans-61" x="724.158203"/>
      <use xlink:href="#DejaVuSans-74" x="785.4375"/>
      <use xlink:href="#DejaVuSans-69" x="824.646484"/>
      <use xlink:href="#DejaVuSans-76" x="852.429688"/>
      <use xlink:href="#DejaVuSans-65" x="911.609375"/>
      <use xlink:href="#DejaVuSans-20" x="973.132812"/>
      <use xlink:href="#DejaVuSans-70" x="1004.919922"/>
      <use xlink:href="#DejaVuSans-72" x="1068.396484"/>
      <use xlink:href="#DejaVuSans-65" x="1107.259766"/>
      <use xlink:href="#DejaVuSans-64" x="1168.783203"/>
      <use xlink:href="#DejaVuSans-69" x="1232.259766"/>
      <use xlink:href="#DejaVuSans-63" x="1260.042969"/>
      <use xlink:href="#DejaVuSans-74" x="1315.023438"/>
      <use xlink:href="#DejaVuSans-69" x="1354.232422"/>
      <use xlink:href="#DejaVuSans-6f" x="1382.015625"/>
      <use xlink:href="#DejaVuSans-6e" x="1443.197266"/>
      <use xlink:href="#DejaVuSans-73" x="1506.576172"/>
     </g>
    </g>
    <g id="line2d_19">
     <path d="M 66.6 69.248563 
L 76.6 69.248563 
L 86.6 69.248563 
" style="fill: none; stroke: #ff7f0e; stroke-opacity: 0.7; stroke-width: 1.5; stroke-linecap: square"/>
    </g>
    <g id="text_17">
     <!-- Negative cumulative predictions -->
     <g transform="translate(94.6 72.748563) scale(0.1 -0.1)">
      <defs>
       <path id="DejaVuSans-4e" d="M 628 4666 
L 1478 4666 
L 3547 763 
L 3547 4666 
L 4159 4666 
L 4159 0 
L 3309 0 
L 1241 3903 
L 1241 0 
L 628 0 
L 628 4666 
z
" transform="scale(0.015625)"/>
      </defs>
      <use xlink:href="#DejaVuSans-4e"/>
      <use xlink:href="#DejaVuSans-65" x="74.804688"/>
      <use xlink:href="#DejaVuSans-67" x="136.328125"/>
      <use xlink:href="#DejaVuSans-61" x="199.804688"/>
      <use xlink:href="#DejaVuSans-74" x="261.083984"/>
      <use xlink:href="#DejaVuSans-69" x="300.292969"/>
      <use xlink:href="#DejaVuSans-76" x="328.076172"/>
      <use xlink:href="#DejaVuSans-65" x="387.255859"/>
      <use xlink:href="#DejaVuSans-20" x="448.779297"/>
      <use xlink:href="#DejaVuSans-63" x="480.566406"/>
      <use xlink:href="#DejaVuSans-75" x="535.546875"/>
      <use xlink:href="#DejaVuSans-6d" x="598.925781"/>
      <use xlink:href="#DejaVuSans-75" x="696.337891"/>
      <use xlink:href="#DejaVuSans-6c" x="759.716797"/>
      <use xlink:href="#DejaVuSans-61" x="787.5"/>
      <use xlink:href="#DejaVuSans-74" x="848.779297"/>
      <use xlink:href="#DejaVuSans-69" x="887.988281"/>
      <use xlink:href="#DejaVuSans-76" x="915.771484"/>
      <use xlink:href="#DejaVuSans-65" x="974.951172"/>
      <use xlink:href="#DejaVuSans-20" x="1036.474609"/>
      <use xlink:href="#DejaVuSans-70" x="1068.261719"/>
      <use xlink:href="#DejaVuSans-72" x="1131.738281"/>
      <use xlink:href="#DejaVuSans-65" x="1170.601562"/>
      <use xlink:href="#DejaVuSans-64" x="1232.125"/>
      <use xlink:href="#DejaVuSans-69" x="1295.601562"/>
      <use xlink:href="#DejaVuSans-63" x="1323.384766"/>
      <use xlink:href="#DejaVuSans-74" x="1378.365234"/>
      <use xlink:href="#DejaVuSans-69" x="1417.574219"/>
      <use xlink:href="#DejaVuSans-6f" x="1445.357422"/>
      <use xlink:href="#DejaVuSans-6e" x="1506.539062"/>
      <use xlink:href="#DejaVuSans-73" x="1569.917969"/>
     </g>
    </g>
    <g id="line2d_20">
     <path d="M 66.6 83.926688 
L 76.6 83.926688 
L 86.6 83.926688 
" style="fill: none; stroke: #2ca02c; stroke-opacity: 0.7; stroke-width: 1.5; stroke-linecap: square"/>
    </g>
    <g id="text_18">
     <!-- Average cumulative predictions -->
     <g transform="translate(94.6 87.426688) scale(0.1 -0.1)">
      <defs>
       <path id="DejaVuSans-41" d="M 2188 4044 
L 1331 1722 
L 3047 1722 
L 2188 4044 
z
M 1831 4666 
L 2547 4666 
L 4325 0 
L 3669 0 
L 3244 1197 
L 1141 1197 
L 716 0 
L 50 0 
L 1831 4666 
z
" transform="scale(0.015625)"/>
      </defs>
      <use xlink:href="#DejaVuSans-41"/>
      <use xlink:href="#DejaVuSans-76" x="62.533203"/>
      <use xlink:href="#DejaVuSans-65" x="121.712891"/>
      <use xlink:href="#DejaVuSans-72" x="183.236328"/>
      <use xlink:href="#DejaVuSans-61" x="224.349609"/>
      <use xlink:href="#DejaVuSans-67" x="285.628906"/>
      <use xlink:href="#DejaVuSans-65" x="349.105469"/>
      <use xlink:href="#DejaVuSans-20" x="410.628906"/>
      <use xlink:href="#DejaVuSans-63" x="442.416016"/>
      <use xlink:href="#DejaVuSans-75" x="497.396484"/>
      <use xlink:href="#DejaVuSans-6d" x="560.775391"/>
      <use xlink:href="#DejaVuSans-75" x="658.1875"/>
      <use xlink:href="#DejaVuSans-6c" x="721.566406"/>
      <use xlink:href="#DejaVuSans-61" x="749.349609"/>
      <use xlink:href="#DejaVuSans-74" x="810.628906"/>
      <use xlink:href="#DejaVuSans-69" x="849.837891"/>
      <use xlink:href="#DejaVuSans-76" x="877.621094"/>
      <use xlink:href="#DejaVuSans-65" x="936.800781"/>
      <use xlink:href="#DejaVuSans-20" x="998.324219"/>
      <use xlink:href="#DejaVuSans-70" x="1030.111328"/>
      <use xlink:href="#DejaVuSans-72" x="1093.587891"/>
      <use xlink:href="#DejaVuSans-65" x="1132.451172"/>
      <use xlink:href="#DejaVuSans-64" x="1193.974609"/>
      <use xlink:href="#DejaVuSans-69" x="1257.451172"/>
      <use xlink:href="#DejaVuSans-63" x="1285.234375"/>
      <use xlink:href="#DejaVuSans-74" x="1340.214844"/>
      <use xlink:href="#DejaVuSans-69" x="1379.423828"/>
      <use xlink:href="#DejaVuSans-6f" x="1407.207031"/>
      <use xlink:href="#DejaVuSans-6e" x="1468.388672"/>
      <use xlink:href="#DejaVuSans-73" x="1531.767578"/>
     </g>
    </g>
   </g>
  </g>
 </g>
 <defs>
  <clipPath id="pf4350d52d2">
   <rect x="57.6" y="41.472" width="357.12" height="266.112"/>
  </clipPath>
 </defs>
</svg>
