<?xml version="1.0" encoding="utf-8" standalone="no"?>
<!DOCTYPE svg PUBLIC "-//W3C//DTD SVG 1.1//EN"
  "http://www.w3.org/Graphics/SVG/1.1/DTD/svg11.dtd">
<svg xmlns:xlink="http://www.w3.org/1999/xlink" width="460.8pt" height="345.6pt" viewBox="0 0 460.8 345.6" xmlns="http://www.w3.org/2000/svg" version="1.1">
 <metadata>
  <rdf:RDF xmlns:dc="http://purl.org/dc/elements/1.1/" xmlns:cc="http://creativecommons.org/ns#" xmlns:rdf="http://www.w3.org/1999/02/22-rdf-syntax-ns#">
   <cc:Work>
    <dc:type rdf:resource="http://purl.org/dc/dcmitype/StillImage"/>
    <dc:date>2024-08-20T11:12:37.137953</dc:date>
    <dc:format>image/svg+xml</dc:format>
    <dc:creator>
     <cc:Agent>
      <dc:title>Matplotlib v3.9.0, https://matplotlib.org/</dc:title>
     </cc:Agent>
    </dc:creator>
   </cc:Work>
  </rdf:RDF>
 </metadata>
 <defs>
  <style type="text/css">*{stroke-linejoin: round; stroke-linecap: butt}</style>
 </defs>
 <g id="figure_1">
  <g id="patch_1">
   <path d="M 0 345.6 
L 460.8 345.6 
L 460.8 0 
L 0 0 
z
" style="fill: #ffffff"/>
  </g>
  <g id="axes_1">
   <g id="patch_2">
    <path d="M 57.6 307.584 
L 414.72 307.584 
L 414.72 41.472 
L 57.6 41.472 
z
" style="fill: #ffffff"/>
   </g>
   <g id="matplotlib.axis_1">
    <g id="xtick_1">
     <g id="line2d_1">
      <defs>
       <path id="m12ce8b9ae8" d="M 0 0 
L 0 3.5 
" style="stroke: #000000; stroke-width: 0.8"/>
      </defs>
      <g>
       <use xlink:href="#m12ce8b9ae8" x="73.832727" y="307.584" style="stroke: #000000; stroke-width: 0.8"/>
      </g>
     </g>
     <g id="text_1">
      <!-- 0 -->
      <g transform="translate(70.651477 322.182437) scale(0.1 -0.1)">
       <defs>
        <path id="DejaVuSans-30" d="M 2034 4250 
Q 1547 4250 1301 3770 
Q 1056 3291 1056 2328 
Q 1056 1369 1301 889 
Q 1547 409 2034 409 
Q 2525 409 2770 889 
Q 3016 1369 3016 2328 
Q 3016 3291 2770 3770 
Q 2525 4250 2034 4250 
z
M 2034 4750 
Q 2819 4750 3233 4129 
Q 3647 3509 3647 2328 
Q 3647 1150 3233 529 
Q 2819 -91 2034 -91 
Q 1250 -91 836 529 
Q 422 1150 422 2328 
Q 422 3509 836 4129 
Q 1250 4750 2034 4750 
z
" transform="scale(0.015625)"/>
       </defs>
       <use xlink:href="#DejaVuSans-30"/>
      </g>
     </g>
    </g>
    <g id="xtick_2">
     <g id="line2d_2">
      <g>
       <use xlink:href="#m12ce8b9ae8" x="149.333784" y="307.584" style="stroke: #000000; stroke-width: 0.8"/>
      </g>
     </g>
     <g id="text_2">
      <!-- 50 -->
      <g transform="translate(142.971284 322.182437) scale(0.1 -0.1)">
       <defs>
        <path id="DejaVuSans-35" d="M 691 4666 
L 3169 4666 
L 3169 4134 
L 1269 4134 
L 1269 2991 
Q 1406 3038 1543 3061 
Q 1681 3084 1819 3084 
Q 2600 3084 3056 2656 
Q 3513 2228 3513 1497 
Q 3513 744 3044 326 
Q 2575 -91 1722 -91 
Q 1428 -91 1123 -41 
Q 819 9 494 109 
L 494 744 
Q 775 591 1075 516 
Q 1375 441 1709 441 
Q 2250 441 2565 725 
Q 2881 1009 2881 1497 
Q 2881 1984 2565 2268 
Q 2250 2553 1709 2553 
Q 1456 2553 1204 2497 
Q 953 2441 691 2322 
L 691 4666 
z
" transform="scale(0.015625)"/>
       </defs>
       <use xlink:href="#DejaVuSans-35"/>
       <use xlink:href="#DejaVuSans-30" x="63.623047"/>
      </g>
     </g>
    </g>
    <g id="xtick_3">
     <g id="line2d_3">
      <g>
       <use xlink:href="#m12ce8b9ae8" x="224.834841" y="307.584" style="stroke: #000000; stroke-width: 0.8"/>
      </g>
     </g>
     <g id="text_3">
      <!-- 100 -->
      <g transform="translate(215.291091 322.182437) scale(0.1 -0.1)">
       <defs>
        <path id="DejaVuSans-31" d="M 794 531 
L 1825 531 
L 1825 4091 
L 703 3866 
L 703 4441 
L 1819 4666 
L 2450 4666 
L 2450 531 
L 3481 531 
L 3481 0 
L 794 0 
L 794 531 
z
" transform="scale(0.015625)"/>
       </defs>
       <use xlink:href="#DejaVuSans-31"/>
       <use xlink:href="#DejaVuSans-30" x="63.623047"/>
       <use xlink:href="#DejaVuSans-30" x="127.246094"/>
      </g>
     </g>
    </g>
    <g id="xtick_4">
     <g id="line2d_4">
      <g>
       <use xlink:href="#m12ce8b9ae8" x="300.335899" y="307.584" style="stroke: #000000; stroke-width: 0.8"/>
      </g>
     </g>
     <g id="text_4">
      <!-- 150 -->
      <g transform="translate(290.792149 322.182437) scale(0.1 -0.1)">
       <use xlink:href="#DejaVuSans-31"/>
       <use xlink:href="#DejaVuSans-35" x="63.623047"/>
       <use xlink:href="#DejaVuSans-30" x="127.246094"/>
      </g>
     </g>
    </g>
    <g id="xtick_5">
     <g id="line2d_5">
      <g>
       <use xlink:href="#m12ce8b9ae8" x="375.836956" y="307.584" style="stroke: #000000; stroke-width: 0.8"/>
      </g>
     </g>
     <g id="text_5">
      <!-- 200 -->
      <g transform="translate(366.293206 322.182437) scale(0.1 -0.1)">
       <defs>
        <path id="DejaVuSans-32" d="M 1228 531 
L 3431 531 
L 3431 0 
L 469 0 
L 469 531 
Q 828 903 1448 1529 
Q 2069 2156 2228 2338 
Q 2531 2678 2651 2914 
Q 2772 3150 2772 3378 
Q 2772 3750 2511 3984 
Q 2250 4219 1831 4219 
Q 1534 4219 1204 4116 
Q 875 4013 500 3803 
L 500 4441 
Q 881 4594 1212 4672 
Q 1544 4750 1819 4750 
Q 2544 4750 2975 4387 
Q 3406 4025 3406 3419 
Q 3406 3131 3298 2873 
Q 3191 2616 2906 2266 
Q 2828 2175 2409 1742 
Q 1991 1309 1228 531 
z
" transform="scale(0.015625)"/>
       </defs>
       <use xlink:href="#DejaVuSans-32"/>
       <use xlink:href="#DejaVuSans-30" x="63.623047"/>
       <use xlink:href="#DejaVuSans-30" x="127.246094"/>
      </g>
     </g>
    </g>
   </g>
   <g id="matplotlib.axis_2">
    <g id="ytick_1">
     <g id="line2d_6">
      <defs>
       <path id="m30e3454958" d="M 0 0 
L -3.5 0 
" style="stroke: #000000; stroke-width: 0.8"/>
      </defs>
      <g>
       <use xlink:href="#m30e3454958" x="57.6" y="286.944705" style="stroke: #000000; stroke-width: 0.8"/>
      </g>
     </g>
     <g id="text_6">
      <!-- −1000 -->
      <g transform="translate(16.770313 290.743924) scale(0.1 -0.1)">
       <defs>
        <path id="DejaVuSans-2212" d="M 678 2272 
L 4684 2272 
L 4684 1741 
L 678 1741 
L 678 2272 
z
" transform="scale(0.015625)"/>
       </defs>
       <use xlink:href="#DejaVuSans-2212"/>
       <use xlink:href="#DejaVuSans-31" x="83.789062"/>
       <use xlink:href="#DejaVuSans-30" x="147.412109"/>
       <use xlink:href="#DejaVuSans-30" x="211.035156"/>
       <use xlink:href="#DejaVuSans-30" x="274.658203"/>
      </g>
     </g>
    </g>
    <g id="ytick_2">
     <g id="line2d_7">
      <g>
       <use xlink:href="#m30e3454958" x="57.6" y="251.459956" style="stroke: #000000; stroke-width: 0.8"/>
      </g>
     </g>
     <g id="text_7">
      <!-- −750 -->
      <g transform="translate(23.132812 255.259174) scale(0.1 -0.1)">
       <defs>
        <path id="DejaVuSans-37" d="M 525 4666 
L 3525 4666 
L 3525 4397 
L 1831 0 
L 1172 0 
L 2766 4134 
L 525 4134 
L 525 4666 
z
" transform="scale(0.015625)"/>
       </defs>
       <use xlink:href="#DejaVuSans-2212"/>
       <use xlink:href="#DejaVuSans-37" x="83.789062"/>
       <use xlink:href="#DejaVuSans-35" x="147.412109"/>
       <use xlink:href="#DejaVuSans-30" x="211.035156"/>
      </g>
     </g>
    </g>
    <g id="ytick_3">
     <g id="line2d_8">
      <g>
       <use xlink:href="#m30e3454958" x="57.6" y="215.975206" style="stroke: #000000; stroke-width: 0.8"/>
      </g>
     </g>
     <g id="text_8">
      <!-- −500 -->
      <g transform="translate(23.132812 219.774425) scale(0.1 -0.1)">
       <use xlink:href="#DejaVuSans-2212"/>
       <use xlink:href="#DejaVuSans-35" x="83.789062"/>
       <use xlink:href="#DejaVuSans-30" x="147.412109"/>
       <use xlink:href="#DejaVuSans-30" x="211.035156"/>
      </g>
     </g>
    </g>
    <g id="ytick_4">
     <g id="line2d_9">
      <g>
       <use xlink:href="#m30e3454958" x="57.6" y="180.490457" style="stroke: #000000; stroke-width: 0.8"/>
      </g>
     </g>
     <g id="text_9">
      <!-- −250 -->
      <g transform="translate(23.132812 184.289676) scale(0.1 -0.1)">
       <use xlink:href="#DejaVuSans-2212"/>
       <use xlink:href="#DejaVuSans-32" x="83.789062"/>
       <use xlink:href="#DejaVuSans-35" x="147.412109"/>
       <use xlink:href="#DejaVuSans-30" x="211.035156"/>
      </g>
     </g>
    </g>
    <g id="ytick_5">
     <g id="line2d_10">
      <g>
       <use xlink:href="#m30e3454958" x="57.6" y="145.005708" style="stroke: #000000; stroke-width: 0.8"/>
      </g>
     </g>
     <g id="text_10">
      <!-- 0 -->
      <g transform="translate(44.2375 148.804926) scale(0.1 -0.1)">
       <use xlink:href="#DejaVuSans-30"/>
      </g>
     </g>
    </g>
    <g id="ytick_6">
     <g id="line2d_11">
      <g>
       <use xlink:href="#m30e3454958" x="57.6" y="109.520958" style="stroke: #000000; stroke-width: 0.8"/>
      </g>
     </g>
     <g id="text_11">
      <!-- 250 -->
      <g transform="translate(31.5125 113.320177) scale(0.1 -0.1)">
       <use xlink:href="#DejaVuSans-32"/>
       <use xlink:href="#DejaVuSans-35" x="63.623047"/>
       <use xlink:href="#DejaVuSans-30" x="127.246094"/>
      </g>
     </g>
    </g>
    <g id="ytick_7">
     <g id="line2d_12">
      <g>
       <use xlink:href="#m30e3454958" x="57.6" y="74.036209" style="stroke: #000000; stroke-width: 0.8"/>
      </g>
     </g>
     <g id="text_12">
      <!-- 500 -->
      <g transform="translate(31.5125 77.835427) scale(0.1 -0.1)">
       <use xlink:href="#DejaVuSans-35"/>
       <use xlink:href="#DejaVuSans-30" x="63.623047"/>
       <use xlink:href="#DejaVuSans-30" x="127.246094"/>
      </g>
     </g>
    </g>
   </g>
   <g id="line2d_13">
    <path d="M 73.832727 146.05326 
L 75.342748 149.83344 
L 76.85277 148.814116 
L 78.362791 147.374605 
L 79.872812 146.806849 
L 81.382833 145.813276 
L 82.892854 147.019757 
L 84.402875 145.774341 
L 85.912896 150.204866 
L 87.422918 156.926015 
L 88.932939 165.814208 
L 90.44296 159.552968 
L 91.952981 154.164722 
L 93.463002 151.751759 
L 94.973023 157.429319 
L 96.483044 157.483405 
L 97.993066 158.212796 
L 99.503087 161.327294 
L 101.013108 162.303183 
L 102.523129 164.031982 
L 104.03315 161.50706 
L 105.543171 162.088802 
L 107.053192 158.984568 
L 108.563214 157.696771 
L 110.073235 156.94272 
L 111.583256 158.811584 
L 113.093277 159.509807 
L 114.603298 158.035974 
L 117.62334 156.865446 
L 119.133362 157.303091 
L 120.643383 157.040099 
L 122.153404 155.4659 
L 123.663425 155.607839 
L 125.173446 156.335654 
L 126.683467 156.364344 
L 128.193488 163.880139 
L 129.70351 165.380552 
L 131.213531 161.118439 
L 132.723552 162.923941 
L 134.233573 162.2838 
L 135.743594 161.394448 
L 137.253615 160.228009 
L 138.763636 161.184323 
L 140.273658 161.031709 
L 141.783679 162.026508 
L 143.2937 163.99925 
L 144.803721 165.77244 
L 146.313742 166.183953 
L 147.823763 168.952285 
L 149.333784 169.849893 
L 150.843805 171.012744 
L 152.353827 169.320171 
L 153.863848 165.970192 
L 155.373869 167.074906 
L 156.88389 165.973808 
L 158.393911 162.854399 
L 159.903932 168.957776 
L 161.413953 172.594021 
L 162.923975 173.423165 
L 164.433996 171.135315 
L 165.944017 167.591574 
L 167.454038 167.591574 
L 168.964059 167.75735 
L 170.47408 166.801406 
L 171.984101 170.547582 
L 173.494123 169.187771 
L 175.004144 171.99608 
L 176.514165 171.440795 
L 178.024186 171.645977 
L 179.534207 170.657745 
L 181.044228 172.256435 
L 182.554249 175.233299 
L 184.064271 175.252217 
L 185.574292 178.645281 
L 187.084313 179.799029 
L 188.594334 178.473943 
L 190.104355 175.486542 
L 191.614376 175.976287 
L 193.124397 173.8863 
L 194.634419 173.024528 
L 196.14444 176.742032 
L 197.654461 175.288602 
L 199.164482 179.21787 
L 200.674503 182.629402 
L 202.184524 182.046058 
L 203.694545 185.607413 
L 205.204567 183.365938 
L 206.714588 179.897739 
L 208.224609 179.968708 
L 209.73463 180.592265 
L 212.754672 188.496604 
L 214.264693 184.502957 
L 215.774715 186.509704 
L 217.284736 185.227044 
L 218.794757 181.128377 
L 220.304778 182.831645 
L 221.814799 181.115286 
L 223.32482 186.390685 
L 224.834841 185.65142 
L 226.344863 186.803647 
L 227.854884 184.81263 
L 229.364905 182.453087 
L 230.874926 184.227325 
L 232.384947 184.811396 
L 233.894968 184.373963 
L 235.404989 188.170219 
L 236.915011 198.390257 
L 238.425032 192.229925 
L 239.935053 189.882559 
L 241.445074 189.339734 
L 242.955095 190.118163 
L 244.465116 185.907587 
L 245.975137 196.310338 
L 247.485159 193.51835 
L 248.99518 195.900062 
L 250.505201 190.2285 
L 252.015222 193.382954 
L 253.525243 193.322312 
L 255.035264 200.561563 
L 256.545285 196.279409 
L 258.055307 192.34035 
L 259.565328 189.104773 
L 261.075349 189.906646 
L 262.58537 187.853721 
L 264.095391 191.576824 
L 265.605412 199.810014 
L 267.115433 194.235145 
L 268.625455 193.684624 
L 270.135476 193.285879 
L 271.645497 199.463131 
L 273.155518 197.127105 
L 274.665539 199.758428 
L 276.17556 198.506638 
L 277.685581 200.263992 
L 279.195603 200.92411 
L 280.705624 196.604897 
L 282.215645 201.033173 
L 283.725666 203.568961 
L 285.235687 214.427907 
L 286.745708 218.266438 
L 288.255729 218.924058 
L 289.765751 219.17005 
L 291.275772 215.810074 
L 292.785793 220.619221 
L 294.295814 229.892753 
L 295.805835 222.205933 
L 297.315856 218.02074 
L 298.825877 215.309118 
L 300.335899 214.173606 
L 301.84592 215.380087 
L 303.355941 217.324221 
L 304.865962 223.203658 
L 306.375983 225.787736 
L 309.396025 221.11963 
L 312.416068 233.456615 
L 313.926089 231.948584 
L 315.43611 237.530803 
L 316.946131 234.058791 
L 318.456152 231.247991 
L 319.966173 233.12353 
L 321.476195 229.762052 
L 322.986216 227.924415 
L 324.496237 226.930842 
L 326.006258 228.279263 
L 327.516279 230.56104 
L 329.0263 229.103799 
L 330.536321 233.518606 
L 332.046342 248.056184 
L 333.556364 248.521022 
L 335.066385 241.576938 
L 336.576406 237.737403 
L 338.086427 236.583855 
L 339.596448 232.717004 
L 341.106469 235.611745 
L 342.61649 246.786044 
L 344.126512 241.931435 
L 345.636533 241.817253 
L 347.146554 246.064909 
L 348.656575 249.103115 
L 350.166596 243.998685 
L 351.676617 247.731621 
L 353.186638 243.944453 
L 354.69666 241.310434 
L 356.206681 240.762354 
L 357.716702 242.176587 
L 359.226723 241.22296 
L 360.736744 244.362515 
L 362.246765 248.748364 
L 363.756786 260.372905 
L 365.266808 267.261843 
L 366.776829 290.334498 
L 368.28685 287.992898 
L 371.306892 265.14555 
L 372.816913 269.971476 
L 374.326934 269.505619 
L 375.836956 271.381116 
L 377.346977 271.246648 
L 378.856998 278.702765 
L 380.367019 277.244804 
L 381.87704 273.632605 
L 383.387061 273.963679 
L 384.897082 277.615981 
L 386.407104 277.766047 
L 387.917125 276.226627 
L 389.427146 282.880526 
L 390.937167 283.750883 
L 392.447188 283.452836 
L 393.957209 281.529612 
L 395.46723 281.194038 
L 396.977252 292.168001 
L 398.487273 295.488 
L 398.487273 295.488 
" clip-path="url(#pe36d088f38)" style="fill: none; stroke: #1f77b4; stroke-opacity: 0.7; stroke-width: 1.5; stroke-linecap: square"/>
   </g>
   <g id="line2d_14">
    <path d="M 73.832727 145.848492 
L 75.342748 149.480534 
L 76.85277 146.89326 
L 79.872812 144.534726 
L 81.382833 142.810468 
L 82.892854 143.16984 
L 84.402875 141.419507 
L 85.912896 145.385417 
L 88.932939 158.651509 
L 90.44296 147.296389 
L 91.952981 141.08198 
L 93.463002 136.182368 
L 94.973023 139.245338 
L 96.483044 138.300356 
L 97.993066 138.391685 
L 99.503087 140.971559 
L 101.013108 141.480996 
L 102.523129 142.892253 
L 104.03315 139.964761 
L 105.543171 140.268939 
L 107.053192 137.069972 
L 108.563214 135.141237 
L 110.073235 133.495089 
L 111.583256 134.273307 
L 113.093277 134.318974 
L 114.603298 132.37972 
L 117.62334 130.027275 
L 119.133362 129.616454 
L 120.643383 128.91133 
L 122.153404 126.904799 
L 123.663425 126.027681 
L 125.173446 126.013834 
L 126.683467 125.753445 
L 128.193488 133.063073 
L 129.70351 134.61656 
L 131.213531 130.372699 
L 132.723552 132.926174 
L 134.233573 133.106898 
L 135.743594 132.559023 
L 137.253615 131.320457 
L 138.763636 131.773836 
L 140.273658 130.970712 
L 141.783679 131.626298 
L 143.2937 133.111092 
L 144.803721 134.317921 
L 146.313742 133.821134 
L 147.823763 135.744408 
L 149.333784 136.288507 
L 150.843805 137.149498 
L 152.353827 135.351604 
L 153.863848 131.919089 
L 155.373869 132.460102 
L 156.88389 130.240721 
L 158.393911 126.607394 
L 159.903932 131.141345 
L 161.413953 134.096399 
L 162.923975 133.937268 
L 164.433996 130.967771 
L 165.944017 127.472001 
L 167.454038 126.132547 
L 168.964059 124.492745 
L 170.47408 122.035431 
L 171.984101 124.438367 
L 173.494123 122.395165 
L 175.004144 124.350928 
L 176.514165 122.921642 
L 178.024186 122.696486 
L 179.534207 121.111852 
L 181.044228 122.057098 
L 182.554249 124.307886 
L 184.064271 122.604618 
L 185.574292 125.679044 
L 187.084313 125.868296 
L 188.594334 123.805767 
L 190.104355 120.972957 
L 191.614376 121.110384 
L 193.124397 118.71049 
L 194.634419 117.01837 
L 196.14444 119.5968 
L 197.654461 117.983901 
L 200.674503 124.586402 
L 202.184524 121.747623 
L 203.694545 124.290266 
L 205.204567 121.211416 
L 206.714588 117.58806 
L 208.224609 116.275052 
L 209.73463 115.73943 
L 211.244651 119.089927 
L 212.754672 123.058306 
L 214.264693 117.806563 
L 215.774715 120.206236 
L 217.284736 118.074843 
L 218.794757 113.99211 
L 220.304778 114.553898 
L 221.814799 112.069856 
L 223.32482 116.477146 
L 224.834841 115.704902 
L 226.344863 116.54596 
L 229.364905 112.154253 
L 230.874926 112.361884 
L 232.384947 111.909803 
L 233.894968 110.760561 
L 235.404989 113.8243 
L 236.915011 124.304625 
L 238.425032 113.943078 
L 239.935053 112.932711 
L 241.445074 112.577037 
L 242.955095 113.024443 
L 244.465116 108.545161 
L 245.975137 118.595149 
L 247.485159 115.730073 
L 248.99518 119.500362 
L 250.505201 113.046869 
L 252.015222 116.629268 
L 253.525243 117.922286 
L 255.035264 125.753979 
L 256.545285 117.50462 
L 258.055307 114.987874 
L 259.565328 111.608432 
L 261.075349 110.59578 
L 262.58537 107.749365 
L 264.095391 110.285341 
L 265.605412 117.924192 
L 267.115433 110.614334 
L 268.625455 111.012455 
L 270.135476 111.557318 
L 271.645497 117.709978 
L 273.155518 114.439489 
L 274.665539 117.535484 
L 276.17556 115.518768 
L 277.685581 117.240652 
L 279.195603 117.415521 
L 280.705624 112.412597 
L 282.215645 116.938405 
L 283.725666 119.373705 
L 285.235687 129.067186 
L 286.745708 128.457374 
L 288.255729 125.928414 
L 289.765751 124.440731 
L 291.275772 119.647122 
L 292.785793 123.319098 
L 294.295814 132.648433 
L 295.805835 122.712703 
L 297.315856 116.558135 
L 298.825877 111.250358 
L 300.335899 106.48686 
L 301.84592 104.296477 
L 303.355941 103.232163 
L 304.865962 106.910695 
L 306.375983 108.693019 
L 307.886004 106.142512 
L 309.396025 103.249487 
L 310.906047 107.934105 
L 312.416068 112.092882 
L 313.926089 106.983078 
L 315.43611 111.419182 
L 316.946131 107.068076 
L 318.456152 103.737855 
L 319.966173 103.836052 
L 321.476195 100.092445 
L 322.986216 97.539642 
L 324.496237 94.241049 
L 326.006258 93.378389 
L 327.516279 94.007592 
L 329.0263 90.910444 
L 330.536321 93.932332 
L 332.046342 107.594021 
L 333.556364 100.213193 
L 335.066385 89.958404 
L 336.576406 87.949927 
L 338.086427 86.950583 
L 339.596448 80.770157 
L 341.106469 79.776155 
L 342.61649 88.263223 
L 344.126512 84.218248 
L 345.636533 84.61278 
L 347.146554 89.123158 
L 348.656575 90.368673 
L 350.166596 83.781199 
L 351.676617 87.662546 
L 353.186638 83.404987 
L 354.69666 80.716776 
L 356.206681 79.003221 
L 357.716702 78.868678 
L 359.226723 76.410352 
L 360.736744 78.115433 
L 362.246765 81.646047 
L 363.756786 91.794686 
L 365.266808 90.801113 
L 366.776829 107.689703 
L 368.28685 98.775934 
L 369.796871 81.540938 
L 371.306892 67.247287 
L 372.816913 65.310747 
L 374.326934 60.81843 
L 375.836956 59.881544 
L 377.346977 57.70273 
L 378.856998 63.190216 
L 380.367019 59.940891 
L 381.87704 55.75298 
L 383.387061 54.32707 
L 384.897082 56.48976 
L 386.407104 55.831724 
L 387.917125 53.568 
L 389.427146 59.364807 
L 390.937167 58.991626 
L 392.447188 57.622287 
L 393.957209 55.025627 
L 395.46723 53.607537 
L 396.977252 63.53884 
L 398.487273 65.932627 
L 398.487273 65.932627 
" clip-path="url(#pe36d088f38)" style="fill: none; stroke: #ff7f0e; stroke-opacity: 0.7; stroke-width: 1.5; stroke-linecap: square"/>
   </g>
   <g id="line2d_15">
    <path d="M 73.832727 145.856553 
L 75.342748 149.451471 
L 76.85277 147.553898 
L 78.362791 146.331892 
L 79.872812 145.533485 
L 81.382833 144.162886 
L 82.892854 145.106781 
L 84.402875 143.762303 
L 85.912896 148.173807 
L 88.932939 161.47323 
L 90.44296 151.112496 
L 91.952981 145.187419 
L 93.463002 141.698085 
L 94.973023 144.872196 
L 96.483044 145.02202 
L 97.993066 145.525259 
L 99.503087 148.555656 
L 101.013108 149.511773 
L 102.523129 151.118855 
L 104.03315 148.032273 
L 105.543171 148.511975 
L 107.053192 145.200264 
L 108.563214 143.533841 
L 110.073235 142.648087 
L 111.583256 144.544649 
L 113.093277 145.056743 
L 114.603298 143.415842 
L 116.113319 142.767338 
L 117.62334 142.422007 
L 119.133362 142.893581 
L 120.643383 142.685404 
L 122.153404 141.155617 
L 123.663425 141.362217 
L 125.173446 141.967112 
L 126.683467 141.950548 
L 128.193488 149.43783 
L 129.70351 151.224948 
L 131.213531 146.678198 
L 132.723552 149.545832 
L 134.233573 149.222034 
L 135.743594 148.55906 
L 137.253615 147.317094 
L 138.763636 148.398492 
L 140.273658 147.716573 
L 141.783679 148.692404 
L 143.2937 150.558335 
L 144.803721 151.85467 
L 146.313742 151.713185 
L 147.823763 153.68545 
L 149.333784 153.9575 
L 150.843805 154.682109 
L 152.353827 152.803171 
L 153.863848 149.556574 
L 155.373869 150.745955 
L 156.88389 149.315095 
L 158.393911 145.910767 
L 159.903932 151.569042 
L 161.413953 154.785227 
L 162.923975 154.639061 
L 164.433996 151.712524 
L 165.944017 147.971611 
L 167.454038 147.069707 
L 168.964059 147.267408 
L 170.47408 145.705035 
L 171.984101 149.583011 
L 173.494123 147.968455 
L 175.004144 150.496732 
L 176.514165 149.526145 
L 178.024186 149.427217 
L 179.534207 148.121775 
L 181.044228 149.726993 
L 182.554249 152.609537 
L 184.064271 151.827075 
L 185.574292 154.876378 
L 187.084313 155.555488 
L 188.594334 153.661337 
L 190.104355 150.835392 
L 191.614376 150.861159 
L 193.124397 148.986381 
L 194.634419 148.145928 
L 196.14444 151.503201 
L 197.654461 150.463635 
L 199.164482 153.906017 
L 200.674503 156.928626 
L 202.184524 155.771959 
L 203.694545 158.397219 
L 205.204567 155.080186 
L 206.714588 151.379971 
L 208.224609 150.387187 
L 209.73463 150.572799 
L 211.244651 154.517521 
L 212.754672 158.883988 
L 214.264693 154.214195 
L 215.774715 156.628341 
L 217.284736 154.965016 
L 218.794757 150.811329 
L 220.304778 152.465464 
L 221.814799 150.773115 
L 223.32482 155.643396 
L 224.834841 155.085251 
L 226.344863 156.155708 
L 227.854884 154.251359 
L 229.364905 152.140017 
L 230.874926 153.082334 
L 232.384947 153.291101 
L 233.894968 152.723345 
L 235.404989 156.502086 
L 236.915011 167.19559 
L 238.425032 159.843716 
L 239.935053 158.489403 
L 241.445074 158.440611 
L 242.955095 159.584009 
L 244.465116 155.399123 
L 245.975137 165.188103 
L 247.485159 162.261794 
L 248.99518 165.543922 
L 250.505201 159.525971 
L 252.015222 162.881498 
L 253.525243 163.362513 
L 255.035264 170.965121 
L 256.545285 164.491261 
L 258.055307 161.52237 
L 259.565328 159.138215 
L 261.075349 159.542283 
L 262.58537 158.037138 
L 264.095391 161.769608 
L 265.605412 169.968682 
L 267.115433 162.778181 
L 268.625455 162.724109 
L 270.135476 162.874159 
L 271.645497 169.040107 
L 273.155518 166.203242 
L 274.665539 169.185229 
L 276.17556 167.493468 
L 277.685581 169.018716 
L 279.195603 169.372502 
L 280.705624 164.890441 
L 282.215645 169.052558 
L 283.725666 171.672938 
L 285.235687 181.563955 
L 286.745708 181.945399 
L 288.255729 180.974126 
L 289.765751 180.23993 
L 291.275772 175.994377 
L 292.785793 180.293076 
L 294.295814 189.883745 
L 295.805835 179.912531 
L 297.315856 174.180228 
L 298.825877 170.576507 
L 300.335899 168.439536 
L 301.84592 168.553704 
L 303.355941 168.427339 
L 304.865962 173.811746 
L 306.375983 175.361963 
L 307.886004 171.82465 
L 309.396025 169.455283 
L 312.416068 179.646451 
L 313.926089 175.429976 
L 315.43611 180.601686 
L 316.946131 175.709244 
L 318.456152 172.240782 
L 319.966173 173.565853 
L 321.476195 169.871424 
L 322.986216 168.046761 
L 324.496237 166.043237 
L 326.006258 166.590057 
L 327.516279 168.757583 
L 329.0263 167.168553 
L 330.536321 171.757247 
L 332.046342 185.67614 
L 333.556364 182.297722 
L 335.066385 173.81133 
L 336.576406 172.100871 
L 338.086427 171.861076 
L 339.596448 166.872095 
L 341.106469 167.677573 
L 342.61649 178.117506 
L 344.126512 174.854819 
L 345.636533 175.983884 
L 347.146554 181.203352 
L 348.656575 183.559217 
L 350.166596 177.78714 
L 351.676617 180.918052 
L 353.186638 177.163962 
L 354.69666 174.163258 
L 356.206681 173.04012 
L 357.716702 174.090162 
L 359.226723 172.63225 
L 360.736744 175.480213 
L 362.246765 179.586694 
L 363.756786 189.865443 
L 365.266808 192.846007 
L 366.776829 212.25054 
L 368.28685 204.61562 
L 369.796871 191.782821 
L 371.306892 176.460434 
L 372.816913 178.477151 
L 374.326934 176.296452 
L 375.836956 174.399058 
L 377.346977 173.570292 
L 378.856998 180.826529 
L 380.367019 179.331331 
L 381.87704 175.153405 
L 383.387061 175.313086 
L 384.897082 178.73145 
L 386.407104 178.634334 
L 387.917125 176.58143 
L 389.427146 183.183843 
L 390.937167 183.517899 
L 392.447188 182.456532 
L 393.957209 180.353378 
L 395.46723 179.386681 
L 396.977252 190.101866 
L 398.487273 192.962192 
L 398.487273 192.962192 
" clip-path="url(#pe36d088f38)" style="fill: none; stroke: #2ca02c; stroke-opacity: 0.7; stroke-width: 1.5; stroke-linecap: square"/>
   </g>
   <g id="patch_3">
    <path d="M 57.6 307.584 
L 57.6 41.472 
" style="fill: none; stroke: #000000; stroke-width: 0.8; stroke-linejoin: miter; stroke-linecap: square"/>
   </g>
   <g id="patch_4">
    <path d="M 414.72 307.584 
L 414.72 41.472 
" style="fill: none; stroke: #000000; stroke-width: 0.8; stroke-linejoin: miter; stroke-linecap: square"/>
   </g>
   <g id="patch_5">
    <path d="M 57.6 307.584 
L 414.72 307.584 
" style="fill: none; stroke: #000000; stroke-width: 0.8; stroke-linejoin: miter; stroke-linecap: square"/>
   </g>
   <g id="patch_6">
    <path d="M 57.6 41.472 
L 414.72 41.472 
" style="fill: none; stroke: #000000; stroke-width: 0.8; stroke-linejoin: miter; stroke-linecap: square"/>
   </g>
   <g id="text_13">
    <!-- zhang_extended_jaccard_cci -->
    <g transform="translate(150.570938 35.472) scale(0.12 -0.12)">
     <defs>
      <path id="DejaVuSans-7a" d="M 353 3500 
L 3084 3500 
L 3084 2975 
L 922 459 
L 3084 459 
L 3084 0 
L 275 0 
L 275 525 
L 2438 3041 
L 353 3041 
L 353 3500 
z
" transform="scale(0.015625)"/>
      <path id="DejaVuSans-68" d="M 3513 2113 
L 3513 0 
L 2938 0 
L 2938 2094 
Q 2938 2591 2744 2837 
Q 2550 3084 2163 3084 
Q 1697 3084 1428 2787 
Q 1159 2491 1159 1978 
L 1159 0 
L 581 0 
L 581 4863 
L 1159 4863 
L 1159 2956 
Q 1366 3272 1645 3428 
Q 1925 3584 2291 3584 
Q 2894 3584 3203 3211 
Q 3513 2838 3513 2113 
z
" transform="scale(0.015625)"/>
      <path id="DejaVuSans-61" d="M 2194 1759 
Q 1497 1759 1228 1600 
Q 959 1441 959 1056 
Q 959 750 1161 570 
Q 1363 391 1709 391 
Q 2188 391 2477 730 
Q 2766 1069 2766 1631 
L 2766 1759 
L 2194 1759 
z
M 3341 1997 
L 3341 0 
L 2766 0 
L 2766 531 
Q 2569 213 2275 61 
Q 1981 -91 1556 -91 
Q 1019 -91 701 211 
Q 384 513 384 1019 
Q 384 1609 779 1909 
Q 1175 2209 1959 2209 
L 2766 2209 
L 2766 2266 
Q 2766 2663 2505 2880 
Q 2244 3097 1772 3097 
Q 1472 3097 1187 3025 
Q 903 2953 641 2809 
L 641 3341 
Q 956 3463 1253 3523 
Q 1550 3584 1831 3584 
Q 2591 3584 2966 3190 
Q 3341 2797 3341 1997 
z
" transform="scale(0.015625)"/>
      <path id="DejaVuSans-6e" d="M 3513 2113 
L 3513 0 
L 2938 0 
L 2938 2094 
Q 2938 2591 2744 2837 
Q 2550 3084 2163 3084 
Q 1697 3084 1428 2787 
Q 1159 2491 1159 1978 
L 1159 0 
L 581 0 
L 581 3500 
L 1159 3500 
L 1159 2956 
Q 1366 3272 1645 3428 
Q 1925 3584 2291 3584 
Q 2894 3584 3203 3211 
Q 3513 2838 3513 2113 
z
" transform="scale(0.015625)"/>
      <path id="DejaVuSans-67" d="M 2906 1791 
Q 2906 2416 2648 2759 
Q 2391 3103 1925 3103 
Q 1463 3103 1205 2759 
Q 947 2416 947 1791 
Q 947 1169 1205 825 
Q 1463 481 1925 481 
Q 2391 481 2648 825 
Q 2906 1169 2906 1791 
z
M 3481 434 
Q 3481 -459 3084 -895 
Q 2688 -1331 1869 -1331 
Q 1566 -1331 1297 -1286 
Q 1028 -1241 775 -1147 
L 775 -588 
Q 1028 -725 1275 -790 
Q 1522 -856 1778 -856 
Q 2344 -856 2625 -561 
Q 2906 -266 2906 331 
L 2906 616 
Q 2728 306 2450 153 
Q 2172 0 1784 0 
Q 1141 0 747 490 
Q 353 981 353 1791 
Q 353 2603 747 3093 
Q 1141 3584 1784 3584 
Q 2172 3584 2450 3431 
Q 2728 3278 2906 2969 
L 2906 3500 
L 3481 3500 
L 3481 434 
z
" transform="scale(0.015625)"/>
      <path id="DejaVuSans-5f" d="M 3263 -1063 
L 3263 -1509 
L -63 -1509 
L -63 -1063 
L 3263 -1063 
z
" transform="scale(0.015625)"/>
      <path id="DejaVuSans-65" d="M 3597 1894 
L 3597 1613 
L 953 1613 
Q 991 1019 1311 708 
Q 1631 397 2203 397 
Q 2534 397 2845 478 
Q 3156 559 3463 722 
L 3463 178 
Q 3153 47 2828 -22 
Q 2503 -91 2169 -91 
Q 1331 -91 842 396 
Q 353 884 353 1716 
Q 353 2575 817 3079 
Q 1281 3584 2069 3584 
Q 2775 3584 3186 3129 
Q 3597 2675 3597 1894 
z
M 3022 2063 
Q 3016 2534 2758 2815 
Q 2500 3097 2075 3097 
Q 1594 3097 1305 2825 
Q 1016 2553 972 2059 
L 3022 2063 
z
" transform="scale(0.015625)"/>
      <path id="DejaVuSans-78" d="M 3513 3500 
L 2247 1797 
L 3578 0 
L 2900 0 
L 1881 1375 
L 863 0 
L 184 0 
L 1544 1831 
L 300 3500 
L 978 3500 
L 1906 2253 
L 2834 3500 
L 3513 3500 
z
" transform="scale(0.015625)"/>
      <path id="DejaVuSans-74" d="M 1172 4494 
L 1172 3500 
L 2356 3500 
L 2356 3053 
L 1172 3053 
L 1172 1153 
Q 1172 725 1289 603 
Q 1406 481 1766 481 
L 2356 481 
L 2356 0 
L 1766 0 
Q 1100 0 847 248 
Q 594 497 594 1153 
L 594 3053 
L 172 3053 
L 172 3500 
L 594 3500 
L 594 4494 
L 1172 4494 
z
" transform="scale(0.015625)"/>
      <path id="DejaVuSans-64" d="M 2906 2969 
L 2906 4863 
L 3481 4863 
L 3481 0 
L 2906 0 
L 2906 525 
Q 2725 213 2448 61 
Q 2172 -91 1784 -91 
Q 1150 -91 751 415 
Q 353 922 353 1747 
Q 353 2572 751 3078 
Q 1150 3584 1784 3584 
Q 2172 3584 2448 3432 
Q 2725 3281 2906 2969 
z
M 947 1747 
Q 947 1113 1208 752 
Q 1469 391 1925 391 
Q 2381 391 2643 752 
Q 2906 1113 2906 1747 
Q 2906 2381 2643 2742 
Q 2381 3103 1925 3103 
Q 1469 3103 1208 2742 
Q 947 2381 947 1747 
z
" transform="scale(0.015625)"/>
      <path id="DejaVuSans-6a" d="M 603 3500 
L 1178 3500 
L 1178 -63 
Q 1178 -731 923 -1031 
Q 669 -1331 103 -1331 
L -116 -1331 
L -116 -844 
L 38 -844 
Q 366 -844 484 -692 
Q 603 -541 603 -63 
L 603 3500 
z
M 603 4863 
L 1178 4863 
L 1178 4134 
L 603 4134 
L 603 4863 
z
" transform="scale(0.015625)"/>
      <path id="DejaVuSans-63" d="M 3122 3366 
L 3122 2828 
Q 2878 2963 2633 3030 
Q 2388 3097 2138 3097 
Q 1578 3097 1268 2742 
Q 959 2388 959 1747 
Q 959 1106 1268 751 
Q 1578 397 2138 397 
Q 2388 397 2633 464 
Q 2878 531 3122 666 
L 3122 134 
Q 2881 22 2623 -34 
Q 2366 -91 2075 -91 
Q 1284 -91 818 406 
Q 353 903 353 1747 
Q 353 2603 823 3093 
Q 1294 3584 2113 3584 
Q 2378 3584 2631 3529 
Q 2884 3475 3122 3366 
z
" transform="scale(0.015625)"/>
      <path id="DejaVuSans-72" d="M 2631 2963 
Q 2534 3019 2420 3045 
Q 2306 3072 2169 3072 
Q 1681 3072 1420 2755 
Q 1159 2438 1159 1844 
L 1159 0 
L 581 0 
L 581 3500 
L 1159 3500 
L 1159 2956 
Q 1341 3275 1631 3429 
Q 1922 3584 2338 3584 
Q 2397 3584 2469 3576 
Q 2541 3569 2628 3553 
L 2631 2963 
z
" transform="scale(0.015625)"/>
      <path id="DejaVuSans-69" d="M 603 3500 
L 1178 3500 
L 1178 0 
L 603 0 
L 603 3500 
z
M 603 4863 
L 1178 4863 
L 1178 4134 
L 603 4134 
L 603 4863 
z
" transform="scale(0.015625)"/>
     </defs>
     <use xlink:href="#DejaVuSans-7a"/>
     <use xlink:href="#DejaVuSans-68" x="52.490234"/>
     <use xlink:href="#DejaVuSans-61" x="115.869141"/>
     <use xlink:href="#DejaVuSans-6e" x="177.148438"/>
     <use xlink:href="#DejaVuSans-67" x="240.527344"/>
     <use xlink:href="#DejaVuSans-5f" x="304.003906"/>
     <use xlink:href="#DejaVuSans-65" x="354.003906"/>
     <use xlink:href="#DejaVuSans-78" x="413.777344"/>
     <use xlink:href="#DejaVuSans-74" x="472.957031"/>
     <use xlink:href="#DejaVuSans-65" x="512.166016"/>
     <use xlink:href="#DejaVuSans-6e" x="573.689453"/>
     <use xlink:href="#DejaVuSans-64" x="637.068359"/>
     <use xlink:href="#DejaVuSans-65" x="700.544922"/>
     <use xlink:href="#DejaVuSans-64" x="762.068359"/>
     <use xlink:href="#DejaVuSans-5f" x="825.544922"/>
     <use xlink:href="#DejaVuSans-6a" x="875.544922"/>
     <use xlink:href="#DejaVuSans-61" x="903.328125"/>
     <use xlink:href="#DejaVuSans-63" x="964.607422"/>
     <use xlink:href="#DejaVuSans-63" x="1019.587891"/>
     <use xlink:href="#DejaVuSans-61" x="1074.568359"/>
     <use xlink:href="#DejaVuSans-72" x="1135.847656"/>
     <use xlink:href="#DejaVuSans-64" x="1175.210938"/>
     <use xlink:href="#DejaVuSans-5f" x="1238.6875"/>
     <use xlink:href="#DejaVuSans-63" x="1288.6875"/>
     <use xlink:href="#DejaVuSans-63" x="1343.667969"/>
     <use xlink:href="#DejaVuSans-69" x="1398.648438"/>
    </g>
   </g>
   <g id="legend_1">
    <g id="patch_7">
     <path d="M 64.6 93.506375 
L 258.804688 93.506375 
Q 260.804688 93.506375 260.804688 91.506375 
L 260.804688 48.472 
Q 260.804688 46.472 258.804688 46.472 
L 64.6 46.472 
Q 62.6 46.472 62.6 48.472 
L 62.6 91.506375 
Q 62.6 93.506375 64.6 93.506375 
z
" style="fill: #ffffff; opacity: 0.8; stroke: #cccccc; stroke-linejoin: miter"/>
    </g>
    <g id="line2d_16">
     <path d="M 66.6 54.570438 
L 76.6 54.570438 
L 86.6 54.570438 
" style="fill: none; stroke: #1f77b4; stroke-opacity: 0.7; stroke-width: 1.5; stroke-linecap: square"/>
    </g>
    <g id="text_14">
     <!-- Positive cumulative predictions -->
     <g transform="translate(94.6 58.070438) scale(0.1 -0.1)">
      <defs>
       <path id="DejaVuSans-50" d="M 1259 4147 
L 1259 2394 
L 2053 2394 
Q 2494 2394 2734 2622 
Q 2975 2850 2975 3272 
Q 2975 3691 2734 3919 
Q 2494 4147 2053 4147 
L 1259 4147 
z
M 628 4666 
L 2053 4666 
Q 2838 4666 3239 4311 
Q 3641 3956 3641 3272 
Q 3641 2581 3239 2228 
Q 2838 1875 2053 1875 
L 1259 1875 
L 1259 0 
L 628 0 
L 628 4666 
z
" transform="scale(0.015625)"/>
       <path id="DejaVuSans-6f" d="M 1959 3097 
Q 1497 3097 1228 2736 
Q 959 2375 959 1747 
Q 959 1119 1226 758 
Q 1494 397 1959 397 
Q 2419 397 2687 759 
Q 2956 1122 2956 1747 
Q 2956 2369 2687 2733 
Q 2419 3097 1959 3097 
z
M 1959 3584 
Q 2709 3584 3137 3096 
Q 3566 2609 3566 1747 
Q 3566 888 3137 398 
Q 2709 -91 1959 -91 
Q 1206 -91 779 398 
Q 353 888 353 1747 
Q 353 2609 779 3096 
Q 1206 3584 1959 3584 
z
" transform="scale(0.015625)"/>
       <path id="DejaVuSans-73" d="M 2834 3397 
L 2834 2853 
Q 2591 2978 2328 3040 
Q 2066 3103 1784 3103 
Q 1356 3103 1142 2972 
Q 928 2841 928 2578 
Q 928 2378 1081 2264 
Q 1234 2150 1697 2047 
L 1894 2003 
Q 2506 1872 2764 1633 
Q 3022 1394 3022 966 
Q 3022 478 2636 193 
Q 2250 -91 1575 -91 
Q 1294 -91 989 -36 
Q 684 19 347 128 
L 347 722 
Q 666 556 975 473 
Q 1284 391 1588 391 
Q 1994 391 2212 530 
Q 2431 669 2431 922 
Q 2431 1156 2273 1281 
Q 2116 1406 1581 1522 
L 1381 1569 
Q 847 1681 609 1914 
Q 372 2147 372 2553 
Q 372 3047 722 3315 
Q 1072 3584 1716 3584 
Q 2034 3584 2315 3537 
Q 2597 3491 2834 3397 
z
" transform="scale(0.015625)"/>
       <path id="DejaVuSans-76" d="M 191 3500 
L 800 3500 
L 1894 563 
L 2988 3500 
L 3597 3500 
L 2284 0 
L 1503 0 
L 191 3500 
z
" transform="scale(0.015625)"/>
       <path id="DejaVuSans-20" transform="scale(0.015625)"/>
       <path id="DejaVuSans-75" d="M 544 1381 
L 544 3500 
L 1119 3500 
L 1119 1403 
Q 1119 906 1312 657 
Q 1506 409 1894 409 
Q 2359 409 2629 706 
Q 2900 1003 2900 1516 
L 2900 3500 
L 3475 3500 
L 3475 0 
L 2900 0 
L 2900 538 
Q 2691 219 2414 64 
Q 2138 -91 1772 -91 
Q 1169 -91 856 284 
Q 544 659 544 1381 
z
M 1991 3584 
L 1991 3584 
z
" transform="scale(0.015625)"/>
       <path id="DejaVuSans-6d" d="M 3328 2828 
Q 3544 3216 3844 3400 
Q 4144 3584 4550 3584 
Q 5097 3584 5394 3201 
Q 5691 2819 5691 2113 
L 5691 0 
L 5113 0 
L 5113 2094 
Q 5113 2597 4934 2840 
Q 4756 3084 4391 3084 
Q 3944 3084 3684 2787 
Q 3425 2491 3425 1978 
L 3425 0 
L 2847 0 
L 2847 2094 
Q 2847 2600 2669 2842 
Q 2491 3084 2119 3084 
Q 1678 3084 1418 2786 
Q 1159 2488 1159 1978 
L 1159 0 
L 581 0 
L 581 3500 
L 1159 3500 
L 1159 2956 
Q 1356 3278 1631 3431 
Q 1906 3584 2284 3584 
Q 2666 3584 2933 3390 
Q 3200 3197 3328 2828 
z
" transform="scale(0.015625)"/>
       <path id="DejaVuSans-6c" d="M 603 4863 
L 1178 4863 
L 1178 0 
L 603 0 
L 603 4863 
z
" transform="scale(0.015625)"/>
       <path id="DejaVuSans-70" d="M 1159 525 
L 1159 -1331 
L 581 -1331 
L 581 3500 
L 1159 3500 
L 1159 2969 
Q 1341 3281 1617 3432 
Q 1894 3584 2278 3584 
Q 2916 3584 3314 3078 
Q 3713 2572 3713 1747 
Q 3713 922 3314 415 
Q 2916 -91 2278 -91 
Q 1894 -91 1617 61 
Q 1341 213 1159 525 
z
M 3116 1747 
Q 3116 2381 2855 2742 
Q 2594 3103 2138 3103 
Q 1681 3103 1420 2742 
Q 1159 2381 1159 1747 
Q 1159 1113 1420 752 
Q 1681 391 2138 391 
Q 2594 391 2855 752 
Q 3116 1113 3116 1747 
z
" transform="scale(0.015625)"/>
      </defs>
      <use xlink:href="#DejaVuSans-50"/>
      <use xlink:href="#DejaVuSans-6f" x="56.677734"/>
      <use xlink:href="#DejaVuSans-73" x="117.859375"/>
      <use xlink:href="#DejaVuSans-69" x="169.958984"/>
      <use xlink:href="#DejaVuSans-74" x="197.742188"/>
      <use xlink:href="#DejaVuSans-69" x="236.951172"/>
      <use xlink:href="#DejaVuSans-76" x="264.734375"/>
      <use xlink:href="#DejaVuSans-65" x="323.914062"/>
      <use xlink:href="#DejaVuSans-20" x="385.4375"/>
      <use xlink:href="#DejaVuSans-63" x="417.224609"/>
      <use xlink:href="#DejaVuSans-75" x="472.205078"/>
      <use xlink:href="#DejaVuSans-6d" x="535.583984"/>
      <use xlink:href="#DejaVuSans-75" x="632.996094"/>
      <use xlink:href="#DejaVuSans-6c" x="696.375"/>
      <use xlink:href="#DejaVuSans-61" x="724.158203"/>
      <use xlink:href="#DejaVuSans-74" x="785.4375"/>
      <use xlink:href="#DejaVuSans-69" x="824.646484"/>
      <use xlink:href="#DejaVuSans-76" x="852.429688"/>
      <use xlink:href="#DejaVuSans-65" x="911.609375"/>
      <use xlink:href="#DejaVuSans-20" x="973.132812"/>
      <use xlink:href="#DejaVuSans-70" x="1004.919922"/>
      <use xlink:href="#DejaVuSans-72" x="1068.396484"/>
      <use xlink:href="#DejaVuSans-65" x="1107.259766"/>
      <use xlink:href="#DejaVuSans-64" x="1168.783203"/>
      <use xlink:href="#DejaVuSans-69" x="1232.259766"/>
      <use xlink:href="#DejaVuSans-63" x="1260.042969"/>
      <use xlink:href="#DejaVuSans-74" x="1315.023438"/>
      <use xlink:href="#DejaVuSans-69" x="1354.232422"/>
      <use xlink:href="#DejaVuSans-6f" x="1382.015625"/>
      <use xlink:href="#DejaVuSans-6e" x="1443.197266"/>
      <use xlink:href="#DejaVuSans-73" x="1506.576172"/>
     </g>
    </g>
    <g id="line2d_17">
     <path d="M 66.6 69.248563 
L 76.6 69.248563 
L 86.6 69.248563 
" style="fill: none; stroke: #ff7f0e; stroke-opacity: 0.7; stroke-width: 1.5; stroke-linecap: square"/>
    </g>
    <g id="text_15">
     <!-- Negative cumulative predictions -->
     <g transform="translate(94.6 72.748563) scale(0.1 -0.1)">
      <defs>
       <path id="DejaVuSans-4e" d="M 628 4666 
L 1478 4666 
L 3547 763 
L 3547 4666 
L 4159 4666 
L 4159 0 
L 3309 0 
L 1241 3903 
L 1241 0 
L 628 0 
L 628 4666 
z
" transform="scale(0.015625)"/>
      </defs>
      <use xlink:href="#DejaVuSans-4e"/>
      <use xlink:href="#DejaVuSans-65" x="74.804688"/>
      <use xlink:href="#DejaVuSans-67" x="136.328125"/>
      <use xlink:href="#DejaVuSans-61" x="199.804688"/>
      <use xlink:href="#DejaVuSans-74" x="261.083984"/>
      <use xlink:href="#DejaVuSans-69" x="300.292969"/>
      <use xlink:href="#DejaVuSans-76" x="328.076172"/>
      <use xlink:href="#DejaVuSans-65" x="387.255859"/>
      <use xlink:href="#DejaVuSans-20" x="448.779297"/>
      <use xlink:href="#DejaVuSans-63" x="480.566406"/>
      <use xlink:href="#DejaVuSans-75" x="535.546875"/>
      <use xlink:href="#DejaVuSans-6d" x="598.925781"/>
      <use xlink:href="#DejaVuSans-75" x="696.337891"/>
      <use xlink:href="#DejaVuSans-6c" x="759.716797"/>
      <use xlink:href="#DejaVuSans-61" x="787.5"/>
      <use xlink:href="#DejaVuSans-74" x="848.779297"/>
      <use xlink:href="#DejaVuSans-69" x="887.988281"/>
      <use xlink:href="#DejaVuSans-76" x="915.771484"/>
      <use xlink:href="#DejaVuSans-65" x="974.951172"/>
      <use xlink:href="#DejaVuSans-20" x="1036.474609"/>
      <use xlink:href="#DejaVuSans-70" x="1068.261719"/>
      <use xlink:href="#DejaVuSans-72" x="1131.738281"/>
      <use xlink:href="#DejaVuSans-65" x="1170.601562"/>
      <use xlink:href="#DejaVuSans-64" x="1232.125"/>
      <use xlink:href="#DejaVuSans-69" x="1295.601562"/>
      <use xlink:href="#DejaVuSans-63" x="1323.384766"/>
      <use xlink:href="#DejaVuSans-74" x="1378.365234"/>
      <use xlink:href="#DejaVuSans-69" x="1417.574219"/>
      <use xlink:href="#DejaVuSans-6f" x="1445.357422"/>
      <use xlink:href="#DejaVuSans-6e" x="1506.539062"/>
      <use xlink:href="#DejaVuSans-73" x="1569.917969"/>
     </g>
    </g>
    <g id="line2d_18">
     <path d="M 66.6 83.926688 
L 76.6 83.926688 
L 86.6 83.926688 
" style="fill: none; stroke: #2ca02c; stroke-opacity: 0.7; stroke-width: 1.5; stroke-linecap: square"/>
    </g>
    <g id="text_16">
     <!-- Average cumulative predictions -->
     <g transform="translate(94.6 87.426688) scale(0.1 -0.1)">
      <defs>
       <path id="DejaVuSans-41" d="M 2188 4044 
L 1331 1722 
L 3047 1722 
L 2188 4044 
z
M 1831 4666 
L 2547 4666 
L 4325 0 
L 3669 0 
L 3244 1197 
L 1141 1197 
L 716 0 
L 50 0 
L 1831 4666 
z
" transform="scale(0.015625)"/>
      </defs>
      <use xlink:href="#DejaVuSans-41"/>
      <use xlink:href="#DejaVuSans-76" x="62.533203"/>
      <use xlink:href="#DejaVuSans-65" x="121.712891"/>
      <use xlink:href="#DejaVuSans-72" x="183.236328"/>
      <use xlink:href="#DejaVuSans-61" x="224.349609"/>
      <use xlink:href="#DejaVuSans-67" x="285.628906"/>
      <use xlink:href="#DejaVuSans-65" x="349.105469"/>
      <use xlink:href="#DejaVuSans-20" x="410.628906"/>
      <use xlink:href="#DejaVuSans-63" x="442.416016"/>
      <use xlink:href="#DejaVuSans-75" x="497.396484"/>
      <use xlink:href="#DejaVuSans-6d" x="560.775391"/>
      <use xlink:href="#DejaVuSans-75" x="658.1875"/>
      <use xlink:href="#DejaVuSans-6c" x="721.566406"/>
      <use xlink:href="#DejaVuSans-61" x="749.349609"/>
      <use xlink:href="#DejaVuSans-74" x="810.628906"/>
      <use xlink:href="#DejaVuSans-69" x="849.837891"/>
      <use xlink:href="#DejaVuSans-76" x="877.621094"/>
      <use xlink:href="#DejaVuSans-65" x="936.800781"/>
      <use xlink:href="#DejaVuSans-20" x="998.324219"/>
      <use xlink:href="#DejaVuSans-70" x="1030.111328"/>
      <use xlink:href="#DejaVuSans-72" x="1093.587891"/>
      <use xlink:href="#DejaVuSans-65" x="1132.451172"/>
      <use xlink:href="#DejaVuSans-64" x="1193.974609"/>
      <use xlink:href="#DejaVuSans-69" x="1257.451172"/>
      <use xlink:href="#DejaVuSans-63" x="1285.234375"/>
      <use xlink:href="#DejaVuSans-74" x="1340.214844"/>
      <use xlink:href="#DejaVuSans-69" x="1379.423828"/>
      <use xlink:href="#DejaVuSans-6f" x="1407.207031"/>
      <use xlink:href="#DejaVuSans-6e" x="1468.388672"/>
      <use xlink:href="#DejaVuSans-73" x="1531.767578"/>
     </g>
    </g>
   </g>
  </g>
 </g>
 <defs>
  <clipPath id="pe36d088f38">
   <rect x="57.6" y="41.472" width="357.12" height="266.112"/>
  </clipPath>
 </defs>
</svg>
