<?xml version="1.0" encoding="utf-8" standalone="no"?>
<!DOCTYPE svg PUBLIC "-//W3C//DTD SVG 1.1//EN"
  "http://www.w3.org/Graphics/SVG/1.1/DTD/svg11.dtd">
<svg xmlns:xlink="http://www.w3.org/1999/xlink" width="460.8pt" height="345.6pt" viewBox="0 0 460.8 345.6" xmlns="http://www.w3.org/2000/svg" version="1.1">
 <metadata>
  <rdf:RDF xmlns:dc="http://purl.org/dc/elements/1.1/" xmlns:cc="http://creativecommons.org/ns#" xmlns:rdf="http://www.w3.org/1999/02/22-rdf-syntax-ns#">
   <cc:Work>
    <dc:type rdf:resource="http://purl.org/dc/dcmitype/StillImage"/>
    <dc:date>2024-05-30T19:02:53.403428</dc:date>
    <dc:format>image/svg+xml</dc:format>
    <dc:creator>
     <cc:Agent>
      <dc:title>Matplotlib v3.9.0, https://matplotlib.org/</dc:title>
     </cc:Agent>
    </dc:creator>
   </cc:Work>
  </rdf:RDF>
 </metadata>
 <defs>
  <style type="text/css">*{stroke-linejoin: round; stroke-linecap: butt}</style>
 </defs>
 <g id="figure_1">
  <g id="patch_1">
   <path d="M 0 345.6 
L 460.8 345.6 
L 460.8 0 
L 0 0 
z
" style="fill: #ffffff"/>
  </g>
  <g id="axes_1">
   <g id="patch_2">
    <path d="M 57.6 307.584 
L 414.72 307.584 
L 414.72 41.472 
L 57.6 41.472 
z
" style="fill: #ffffff"/>
   </g>
   <g id="matplotlib.axis_1">
    <g id="xtick_1">
     <g id="line2d_1">
      <defs>
       <path id="mbbe705e4d0" d="M 0 0 
L 0 3.5 
" style="stroke: #000000; stroke-width: 0.8"/>
      </defs>
      <g>
       <use xlink:href="#mbbe705e4d0" x="73.832727" y="307.584" style="stroke: #000000; stroke-width: 0.8"/>
      </g>
     </g>
     <g id="text_1">
      <!-- 0 -->
      <g transform="translate(70.651477 322.182437) scale(0.1 -0.1)">
       <defs>
        <path id="DejaVuSans-30" d="M 2034 4250 
Q 1547 4250 1301 3770 
Q 1056 3291 1056 2328 
Q 1056 1369 1301 889 
Q 1547 409 2034 409 
Q 2525 409 2770 889 
Q 3016 1369 3016 2328 
Q 3016 3291 2770 3770 
Q 2525 4250 2034 4250 
z
M 2034 4750 
Q 2819 4750 3233 4129 
Q 3647 3509 3647 2328 
Q 3647 1150 3233 529 
Q 2819 -91 2034 -91 
Q 1250 -91 836 529 
Q 422 1150 422 2328 
Q 422 3509 836 4129 
Q 1250 4750 2034 4750 
z
" transform="scale(0.015625)"/>
       </defs>
       <use xlink:href="#DejaVuSans-30"/>
      </g>
     </g>
    </g>
    <g id="xtick_2">
     <g id="line2d_2">
      <g>
       <use xlink:href="#mbbe705e4d0" x="116.27123" y="307.584" style="stroke: #000000; stroke-width: 0.8"/>
      </g>
     </g>
     <g id="text_2">
      <!-- 20 -->
      <g transform="translate(109.90873 322.182437) scale(0.1 -0.1)">
       <defs>
        <path id="DejaVuSans-32" d="M 1228 531 
L 3431 531 
L 3431 0 
L 469 0 
L 469 531 
Q 828 903 1448 1529 
Q 2069 2156 2228 2338 
Q 2531 2678 2651 2914 
Q 2772 3150 2772 3378 
Q 2772 3750 2511 3984 
Q 2250 4219 1831 4219 
Q 1534 4219 1204 4116 
Q 875 4013 500 3803 
L 500 4441 
Q 881 4594 1212 4672 
Q 1544 4750 1819 4750 
Q 2544 4750 2975 4387 
Q 3406 4025 3406 3419 
Q 3406 3131 3298 2873 
Q 3191 2616 2906 2266 
Q 2828 2175 2409 1742 
Q 1991 1309 1228 531 
z
" transform="scale(0.015625)"/>
       </defs>
       <use xlink:href="#DejaVuSans-32"/>
       <use xlink:href="#DejaVuSans-30" x="63.623047"/>
      </g>
     </g>
    </g>
    <g id="xtick_3">
     <g id="line2d_3">
      <g>
       <use xlink:href="#mbbe705e4d0" x="158.709733" y="307.584" style="stroke: #000000; stroke-width: 0.8"/>
      </g>
     </g>
     <g id="text_3">
      <!-- 40 -->
      <g transform="translate(152.347233 322.182437) scale(0.1 -0.1)">
       <defs>
        <path id="DejaVuSans-34" d="M 2419 4116 
L 825 1625 
L 2419 1625 
L 2419 4116 
z
M 2253 4666 
L 3047 4666 
L 3047 1625 
L 3713 1625 
L 3713 1100 
L 3047 1100 
L 3047 0 
L 2419 0 
L 2419 1100 
L 313 1100 
L 313 1709 
L 2253 4666 
z
" transform="scale(0.015625)"/>
       </defs>
       <use xlink:href="#DejaVuSans-34"/>
       <use xlink:href="#DejaVuSans-30" x="63.623047"/>
      </g>
     </g>
    </g>
    <g id="xtick_4">
     <g id="line2d_4">
      <g>
       <use xlink:href="#mbbe705e4d0" x="201.148235" y="307.584" style="stroke: #000000; stroke-width: 0.8"/>
      </g>
     </g>
     <g id="text_4">
      <!-- 60 -->
      <g transform="translate(194.785735 322.182437) scale(0.1 -0.1)">
       <defs>
        <path id="DejaVuSans-36" d="M 2113 2584 
Q 1688 2584 1439 2293 
Q 1191 2003 1191 1497 
Q 1191 994 1439 701 
Q 1688 409 2113 409 
Q 2538 409 2786 701 
Q 3034 994 3034 1497 
Q 3034 2003 2786 2293 
Q 2538 2584 2113 2584 
z
M 3366 4563 
L 3366 3988 
Q 3128 4100 2886 4159 
Q 2644 4219 2406 4219 
Q 1781 4219 1451 3797 
Q 1122 3375 1075 2522 
Q 1259 2794 1537 2939 
Q 1816 3084 2150 3084 
Q 2853 3084 3261 2657 
Q 3669 2231 3669 1497 
Q 3669 778 3244 343 
Q 2819 -91 2113 -91 
Q 1303 -91 875 529 
Q 447 1150 447 2328 
Q 447 3434 972 4092 
Q 1497 4750 2381 4750 
Q 2619 4750 2861 4703 
Q 3103 4656 3366 4563 
z
" transform="scale(0.015625)"/>
       </defs>
       <use xlink:href="#DejaVuSans-36"/>
       <use xlink:href="#DejaVuSans-30" x="63.623047"/>
      </g>
     </g>
    </g>
    <g id="xtick_5">
     <g id="line2d_5">
      <g>
       <use xlink:href="#mbbe705e4d0" x="243.586738" y="307.584" style="stroke: #000000; stroke-width: 0.8"/>
      </g>
     </g>
     <g id="text_5">
      <!-- 80 -->
      <g transform="translate(237.224238 322.182437) scale(0.1 -0.1)">
       <defs>
        <path id="DejaVuSans-38" d="M 2034 2216 
Q 1584 2216 1326 1975 
Q 1069 1734 1069 1313 
Q 1069 891 1326 650 
Q 1584 409 2034 409 
Q 2484 409 2743 651 
Q 3003 894 3003 1313 
Q 3003 1734 2745 1975 
Q 2488 2216 2034 2216 
z
M 1403 2484 
Q 997 2584 770 2862 
Q 544 3141 544 3541 
Q 544 4100 942 4425 
Q 1341 4750 2034 4750 
Q 2731 4750 3128 4425 
Q 3525 4100 3525 3541 
Q 3525 3141 3298 2862 
Q 3072 2584 2669 2484 
Q 3125 2378 3379 2068 
Q 3634 1759 3634 1313 
Q 3634 634 3220 271 
Q 2806 -91 2034 -91 
Q 1263 -91 848 271 
Q 434 634 434 1313 
Q 434 1759 690 2068 
Q 947 2378 1403 2484 
z
M 1172 3481 
Q 1172 3119 1398 2916 
Q 1625 2713 2034 2713 
Q 2441 2713 2670 2916 
Q 2900 3119 2900 3481 
Q 2900 3844 2670 4047 
Q 2441 4250 2034 4250 
Q 1625 4250 1398 4047 
Q 1172 3844 1172 3481 
z
" transform="scale(0.015625)"/>
       </defs>
       <use xlink:href="#DejaVuSans-38"/>
       <use xlink:href="#DejaVuSans-30" x="63.623047"/>
      </g>
     </g>
    </g>
    <g id="xtick_6">
     <g id="line2d_6">
      <g>
       <use xlink:href="#mbbe705e4d0" x="286.025241" y="307.584" style="stroke: #000000; stroke-width: 0.8"/>
      </g>
     </g>
     <g id="text_6">
      <!-- 100 -->
      <g transform="translate(276.481491 322.182437) scale(0.1 -0.1)">
       <defs>
        <path id="DejaVuSans-31" d="M 794 531 
L 1825 531 
L 1825 4091 
L 703 3866 
L 703 4441 
L 1819 4666 
L 2450 4666 
L 2450 531 
L 3481 531 
L 3481 0 
L 794 0 
L 794 531 
z
" transform="scale(0.015625)"/>
       </defs>
       <use xlink:href="#DejaVuSans-31"/>
       <use xlink:href="#DejaVuSans-30" x="63.623047"/>
       <use xlink:href="#DejaVuSans-30" x="127.246094"/>
      </g>
     </g>
    </g>
    <g id="xtick_7">
     <g id="line2d_7">
      <g>
       <use xlink:href="#mbbe705e4d0" x="328.463743" y="307.584" style="stroke: #000000; stroke-width: 0.8"/>
      </g>
     </g>
     <g id="text_7">
      <!-- 120 -->
      <g transform="translate(318.919993 322.182437) scale(0.1 -0.1)">
       <use xlink:href="#DejaVuSans-31"/>
       <use xlink:href="#DejaVuSans-32" x="63.623047"/>
       <use xlink:href="#DejaVuSans-30" x="127.246094"/>
      </g>
     </g>
    </g>
    <g id="xtick_8">
     <g id="line2d_8">
      <g>
       <use xlink:href="#mbbe705e4d0" x="370.902246" y="307.584" style="stroke: #000000; stroke-width: 0.8"/>
      </g>
     </g>
     <g id="text_8">
      <!-- 140 -->
      <g transform="translate(361.358496 322.182437) scale(0.1 -0.1)">
       <use xlink:href="#DejaVuSans-31"/>
       <use xlink:href="#DejaVuSans-34" x="63.623047"/>
       <use xlink:href="#DejaVuSans-30" x="127.246094"/>
      </g>
     </g>
    </g>
    <g id="xtick_9">
     <g id="line2d_9">
      <g>
       <use xlink:href="#mbbe705e4d0" x="413.340749" y="307.584" style="stroke: #000000; stroke-width: 0.8"/>
      </g>
     </g>
     <g id="text_9">
      <!-- 160 -->
      <g transform="translate(403.796999 322.182437) scale(0.1 -0.1)">
       <use xlink:href="#DejaVuSans-31"/>
       <use xlink:href="#DejaVuSans-36" x="63.623047"/>
       <use xlink:href="#DejaVuSans-30" x="127.246094"/>
      </g>
     </g>
    </g>
   </g>
   <g id="matplotlib.axis_2">
    <g id="ytick_1">
     <g id="line2d_10">
      <defs>
       <path id="m6ea7b747ba" d="M 0 0 
L -3.5 0 
" style="stroke: #000000; stroke-width: 0.8"/>
      </defs>
      <g>
       <use xlink:href="#m6ea7b747ba" x="57.6" y="274.257752" style="stroke: #000000; stroke-width: 0.8"/>
      </g>
     </g>
     <g id="text_10">
      <!-- −0.02 -->
      <g transform="translate(19.954687 278.05697) scale(0.1 -0.1)">
       <defs>
        <path id="DejaVuSans-2212" d="M 678 2272 
L 4684 2272 
L 4684 1741 
L 678 1741 
L 678 2272 
z
" transform="scale(0.015625)"/>
        <path id="DejaVuSans-2e" d="M 684 794 
L 1344 794 
L 1344 0 
L 684 0 
L 684 794 
z
" transform="scale(0.015625)"/>
       </defs>
       <use xlink:href="#DejaVuSans-2212"/>
       <use xlink:href="#DejaVuSans-30" x="83.789062"/>
       <use xlink:href="#DejaVuSans-2e" x="147.412109"/>
       <use xlink:href="#DejaVuSans-30" x="179.199219"/>
       <use xlink:href="#DejaVuSans-32" x="242.822266"/>
      </g>
     </g>
    </g>
    <g id="ytick_2">
     <g id="line2d_11">
      <g>
       <use xlink:href="#m6ea7b747ba" x="57.6" y="225.249981" style="stroke: #000000; stroke-width: 0.8"/>
      </g>
     </g>
     <g id="text_11">
      <!-- −0.01 -->
      <g transform="translate(19.954687 229.049199) scale(0.1 -0.1)">
       <use xlink:href="#DejaVuSans-2212"/>
       <use xlink:href="#DejaVuSans-30" x="83.789062"/>
       <use xlink:href="#DejaVuSans-2e" x="147.412109"/>
       <use xlink:href="#DejaVuSans-30" x="179.199219"/>
       <use xlink:href="#DejaVuSans-31" x="242.822266"/>
      </g>
     </g>
    </g>
    <g id="ytick_3">
     <g id="line2d_12">
      <g>
       <use xlink:href="#m6ea7b747ba" x="57.6" y="176.24221" style="stroke: #000000; stroke-width: 0.8"/>
      </g>
     </g>
     <g id="text_12">
      <!-- 0.00 -->
      <g transform="translate(28.334375 180.041428) scale(0.1 -0.1)">
       <use xlink:href="#DejaVuSans-30"/>
       <use xlink:href="#DejaVuSans-2e" x="63.623047"/>
       <use xlink:href="#DejaVuSans-30" x="95.410156"/>
       <use xlink:href="#DejaVuSans-30" x="159.033203"/>
      </g>
     </g>
    </g>
    <g id="ytick_4">
     <g id="line2d_13">
      <g>
       <use xlink:href="#m6ea7b747ba" x="57.6" y="127.234439" style="stroke: #000000; stroke-width: 0.8"/>
      </g>
     </g>
     <g id="text_13">
      <!-- 0.01 -->
      <g transform="translate(28.334375 131.033657) scale(0.1 -0.1)">
       <use xlink:href="#DejaVuSans-30"/>
       <use xlink:href="#DejaVuSans-2e" x="63.623047"/>
       <use xlink:href="#DejaVuSans-30" x="95.410156"/>
       <use xlink:href="#DejaVuSans-31" x="159.033203"/>
      </g>
     </g>
    </g>
    <g id="ytick_5">
     <g id="line2d_14">
      <g>
       <use xlink:href="#m6ea7b747ba" x="57.6" y="78.226668" style="stroke: #000000; stroke-width: 0.8"/>
      </g>
     </g>
     <g id="text_14">
      <!-- 0.02 -->
      <g transform="translate(28.334375 82.025886) scale(0.1 -0.1)">
       <use xlink:href="#DejaVuSans-30"/>
       <use xlink:href="#DejaVuSans-2e" x="63.623047"/>
       <use xlink:href="#DejaVuSans-30" x="95.410156"/>
       <use xlink:href="#DejaVuSans-32" x="159.033203"/>
      </g>
     </g>
    </g>
   </g>
   <g id="line2d_15">
    <path d="M 73.832727 181.327841 
L 75.954652 175.521676 
L 78.076578 181.497887 
L 80.198503 176.166326 
L 82.320428 177.956386 
L 84.442353 177.302372 
L 86.564278 177.972983 
L 88.686203 183.462009 
L 90.808128 169.273209 
L 92.930053 178.493 
L 95.051979 182.508143 
L 97.173904 176.143554 
L 99.295829 174.926398 
L 101.417754 184.559093 
L 103.539679 181.488595 
L 105.661604 184.269964 
L 107.783529 172.965186 
L 109.905455 178.213323 
L 112.02738 181.925482 
L 114.149305 178.114261 
L 116.27123 178.213754 
L 118.393155 172.208679 
L 120.51508 178.445208 
L 122.637005 179.015471 
L 124.75893 173.591418 
L 126.880856 178.817196 
L 129.002781 181.312581 
L 131.124706 170.493051 
L 133.246631 184.019254 
L 135.368556 177.31005 
L 137.490481 175.182243 
L 139.612406 177.50721 
L 141.734332 177.414394 
L 143.856257 180.867834 
L 145.978182 175.481434 
L 148.100107 183.98508 
L 150.222032 177.231468 
L 152.343957 174.399505 
L 154.465882 179.51896 
L 156.587807 178.126984 
L 158.709733 174.977322 
L 160.831658 175.239873 
L 162.953583 178.675401 
L 165.075508 180.408525 
L 167.197433 177.254011 
L 169.319358 177.257574 
L 171.441283 175.799218 
L 173.563209 178.267356 
L 175.685134 179.364833 
L 177.807059 173.553231 
L 179.928984 174.423193 
L 182.050909 176.66448 
L 184.172834 181.122322 
L 186.294759 193.256467 
L 188.416684 159.31491 
L 190.53861 184.252757 
L 192.660535 182.435536 
L 194.78246 182.853564 
L 196.904385 173.584217 
L 199.02631 187.579134 
L 201.148235 171.25449 
L 203.27016 176.861247 
L 205.392086 178.641514 
L 207.514011 184.497704 
L 209.635936 167.198852 
L 211.757861 172.730933 
L 213.879786 180.393624 
L 216.001711 180.781983 
L 218.123636 176.440356 
L 220.245561 176.072564 
L 222.367487 174.643821 
L 224.489412 186.025575 
L 226.611337 179.387588 
L 228.733262 179.518382 
L 230.855187 177.347637 
L 232.977112 170.217076 
L 235.099037 184.825845 
L 237.220963 176.560447 
L 239.342888 180.62808 
L 241.464813 172.315451 
L 243.586738 180.748005 
L 245.708663 178.910681 
L 247.830588 180.10918 
L 249.952513 173.574818 
L 252.074439 184.65475 
L 254.196364 174.243887 
L 256.318289 173.380911 
L 258.440214 179.196321 
L 260.562139 179.151913 
L 262.684064 173.843302 
L 264.805989 173.821439 
L 266.927914 181.368298 
L 269.04984 181.760661 
L 271.171765 171.945822 
L 273.29369 179.19215 
L 275.415615 180.078927 
L 277.53754 173.106477 
L 279.659465 173.939315 
L 281.78139 180.922962 
L 283.903316 177.885531 
L 286.025241 176.572486 
L 288.147166 178.082562 
L 290.269091 176.878462 
L 292.391016 186.251699 
L 294.512941 173.37871 
L 296.634866 165.916928 
L 298.756791 192.277667 
L 300.878717 175.423048 
L 303.000642 176.744396 
L 305.122567 179.059949 
L 307.244492 176.094406 
L 309.366417 187.774686 
L 311.488342 167.000221 
L 313.610267 187.511864 
L 315.732193 171.472308 
L 317.854118 184.146323 
L 319.976043 177.273732 
L 322.097968 174.573106 
L 324.219893 179.927529 
L 326.341818 180.185269 
L 328.463743 177.10851 
L 330.585668 180.289512 
L 332.707594 175.425939 
L 334.829519 198.455627 
L 336.951444 171.834814 
L 339.073369 183.362666 
L 341.195294 182.288688 
L 343.317219 178.472954 
L 345.439144 180.512142 
L 347.56107 169.382519 
L 349.682995 185.126251 
L 351.80492 178.813662 
L 353.926845 178.73215 
L 356.04877 176.906203 
L 358.170695 184.048272 
L 360.29262 172.866055 
L 362.414545 173.645835 
L 364.536471 180.176247 
L 366.658396 179.873249 
L 368.780321 179.433923 
L 370.902246 184.37719 
L 375.146096 178.825496 
L 377.268021 176.465608 
L 379.389947 172.750002 
L 381.511872 178.67279 
L 383.633797 178.522627 
L 385.755722 175.548858 
L 387.877647 178.097692 
L 389.999572 180.056345 
L 392.121497 183.405942 
L 394.243422 175.161558 
L 396.365348 181.73291 
L 398.487273 175.945727 
L 398.487273 175.945727 
" clip-path="url(#p83b875e8d8)" style="fill: none; stroke: #008000; stroke-opacity: 0.8; stroke-width: 0.5; stroke-linecap: square"/>
   </g>
   <g id="line2d_16">
    <path d="M 73.832727 109.490347 
L 75.954652 115.106276 
L 78.076578 128.367243 
L 80.198503 121.561371 
L 82.320428 150.15547 
L 84.442353 144.909762 
L 86.564278 129.76925 
L 88.686203 140.592283 
L 90.808128 53.982722 
L 92.930053 131.14214 
L 95.051979 155.255098 
L 97.173904 130.945831 
L 99.295829 130.70098 
L 101.417754 124.460008 
L 103.539679 144.916002 
L 105.661604 145.514927 
L 107.783529 122.766229 
L 109.905455 141.788959 
L 114.149305 142.934225 
L 116.27123 121.752285 
L 118.393155 141.007667 
L 120.51508 123.362408 
L 122.637005 101.504019 
L 124.75893 138.112612 
L 126.880856 148.887572 
L 129.002781 145.166838 
L 131.124706 123.592433 
L 133.246631 134.684998 
L 135.368556 134.538255 
L 137.490481 145.385473 
L 139.612406 145.907991 
L 141.734332 161.683604 
L 143.856257 163.855317 
L 145.978182 149.696244 
L 148.100107 156.248467 
L 150.222032 139.685867 
L 152.343957 151.185371 
L 154.465882 132.115307 
L 156.587807 152.530296 
L 158.709733 149.054893 
L 160.831658 134.165115 
L 162.953583 144.390524 
L 165.075508 164.378975 
L 167.197433 158.794712 
L 169.319358 150.150358 
L 171.441283 158.111034 
L 173.563209 137.156843 
L 175.685134 153.489516 
L 177.807059 145.545168 
L 179.928984 153.510704 
L 182.050909 152.725197 
L 184.172834 159.936107 
L 186.294759 140.582624 
L 188.416684 55.489697 
L 190.53861 101.457802 
L 194.78246 156.376159 
L 196.904385 139.088865 
L 199.02631 147.677055 
L 201.148235 137.261835 
L 203.27016 122.425201 
L 205.392086 149.973141 
L 207.514011 159.322398 
L 209.635936 104.584142 
L 211.757861 118.881775 
L 216.001711 155.709482 
L 218.123636 136.404293 
L 220.245561 140.413611 
L 222.367487 147.902951 
L 224.489412 130.039472 
L 226.611337 162.428465 
L 228.733262 151.662446 
L 230.855187 142.343521 
L 232.977112 114.839545 
L 235.099037 143.04543 
L 237.220963 145.121336 
L 239.342888 156.758866 
L 241.464813 140.477604 
L 243.586738 132.332879 
L 245.708663 122.531631 
L 247.830588 156.543034 
L 249.952513 122.86796 
L 252.074439 135.84789 
L 254.196364 145.352263 
L 256.318289 138.965471 
L 258.440214 110.479151 
L 260.562139 157.49101 
L 262.684064 136.44459 
L 264.805989 138.168129 
L 266.927914 135.355512 
L 269.04984 161.898742 
L 271.171765 150.115579 
L 273.29369 141.856297 
L 275.415615 161.242629 
L 277.53754 110.334848 
L 281.78139 127.424736 
L 283.903316 149.409924 
L 286.025241 126.161214 
L 288.147166 137.246128 
L 290.269091 136.870162 
L 292.391016 148.695739 
L 294.512941 153.560758 
L 296.634866 98.486086 
L 298.756791 126.63137 
L 300.878717 119.232932 
L 303.000642 139.323812 
L 305.122567 137.2493 
L 307.244492 118.523509 
L 309.366417 125.417621 
L 311.488342 124.833981 
L 313.610267 131.699762 
L 315.732193 97.846248 
L 317.854118 130.642814 
L 319.976043 119.032092 
L 322.097968 129.88174 
L 324.219893 129.231914 
L 326.341818 84.538649 
L 328.463743 118.524318 
L 330.585668 108.257609 
L 332.707594 80.088624 
L 334.829519 141.348341 
L 336.951444 137.021841 
L 339.073369 141.812696 
L 341.195294 145.452431 
L 343.317219 107.883279 
L 345.439144 136.570587 
L 347.56107 114.537558 
L 349.682995 145.901959 
L 351.80492 139.407829 
L 353.926845 105.056772 
L 356.04877 120.628385 
L 358.170695 134.068219 
L 360.29262 134.900777 
L 362.414545 143.201982 
L 364.536471 153.852232 
L 366.658396 145.041614 
L 368.780321 146.563302 
L 370.902246 145.830334 
L 373.024171 150.779938 
L 375.146096 127.988336 
L 377.268021 157.246202 
L 379.389947 124.746964 
L 381.511872 132.942043 
L 383.633797 153.480041 
L 385.755722 126.994975 
L 387.877647 136.829623 
L 389.999572 147.455064 
L 392.121497 152.848349 
L 394.243422 132.259412 
L 396.365348 102.225171 
L 398.487273 141.355632 
L 398.487273 141.355632 
" clip-path="url(#p83b875e8d8)" style="fill: none; stroke: #32cd32; stroke-opacity: 0.8; stroke-width: 0.5; stroke-linecap: square"/>
   </g>
   <g id="line2d_17">
    <path d="M 73.832727 223.351058 
L 75.954652 233.869902 
L 78.076578 233.778255 
L 80.198503 225.791094 
L 82.320428 203.677193 
L 84.442353 223.351045 
L 86.564278 225.639424 
L 88.686203 275.577699 
L 90.808128 212.607677 
L 92.930053 214.494103 
L 95.051979 244.156043 
L 97.173904 218.448769 
L 99.295829 207.686915 
L 101.417754 233.003093 
L 103.539679 231.118201 
L 105.661604 227.288263 
L 107.783529 219.600313 
L 109.905455 203.494987 
L 112.02738 232.703548 
L 114.149305 247.362072 
L 116.27123 222.028593 
L 118.393155 208.545514 
L 120.51508 221.011122 
L 122.637005 254.875345 
L 124.75893 205.725071 
L 126.880856 232.616489 
L 129.002781 218.354938 
L 131.124706 192.091973 
L 133.246631 217.044473 
L 135.368556 218.373686 
L 137.490481 198.605543 
L 139.612406 198.223474 
L 141.734332 192.655235 
L 143.856257 205.435287 
L 145.978182 205.184563 
L 148.100107 207.208165 
L 150.222032 207.826367 
L 152.343957 199.405583 
L 154.465882 237.070352 
L 156.587807 207.783551 
L 158.709733 211.36218 
L 160.831658 212.643895 
L 162.953583 201.978151 
L 165.075508 194.388116 
L 167.197433 192.985164 
L 169.319358 197.014963 
L 171.441283 188.634198 
L 173.563209 205.293087 
L 175.685134 215.441142 
L 177.807059 196.689662 
L 179.928984 191.946578 
L 182.050909 206.902539 
L 184.172834 207.776495 
L 186.294759 252.812357 
L 188.416684 281.02271 
L 190.53861 242.632251 
L 192.660535 238.820463 
L 194.78246 214.281444 
L 196.904385 211.524192 
L 199.02631 222.566505 
L 201.148235 206.992976 
L 203.27016 239.807555 
L 205.392086 207.398778 
L 207.514011 208.183239 
L 209.635936 210.88223 
L 211.757861 210.3961 
L 213.879786 229.175695 
L 216.001711 214.481333 
L 218.123636 210.144494 
L 220.245561 213.911334 
L 222.367487 206.424766 
L 224.489412 245.913108 
L 226.611337 209.829177 
L 228.733262 238.774339 
L 230.855187 203.942449 
L 232.977112 212.079691 
L 235.099037 216.031188 
L 237.220963 234.114355 
L 239.342888 218.383326 
L 241.464813 214.922819 
L 243.586738 228.939583 
L 245.708663 209.91515 
L 247.830588 202.184295 
L 249.952513 217.387743 
L 252.074439 220.28177 
L 254.196364 200.962666 
L 256.318289 213.248681 
L 258.440214 223.915058 
L 260.562139 213.751629 
L 262.684064 217.835865 
L 264.805989 198.12223 
L 266.927914 205.88338 
L 269.04984 201.000296 
L 271.171765 192.178496 
L 273.29369 212.533846 
L 275.415615 215.916598 
L 277.53754 219.710353 
L 279.659465 204.704073 
L 281.78139 225.719136 
L 283.903316 215.095674 
L 286.025241 200.191768 
L 288.147166 204.787209 
L 290.269091 211.51182 
L 292.391016 236.1359 
L 294.512941 227.728187 
L 296.634866 211.26129 
L 298.756791 266.338934 
L 300.878717 227.315533 
L 303.000642 223.102987 
L 305.122567 225.453847 
L 307.244492 224.503375 
L 309.366417 237.372737 
L 311.488342 252.983938 
L 313.610267 232.483043 
L 315.732193 224.385583 
L 317.854118 218.087791 
L 319.976043 228.693699 
L 322.097968 218.414874 
L 324.219893 227.168312 
L 326.341818 231.367893 
L 328.463743 256.980039 
L 330.585668 248.922319 
L 332.707594 225.167701 
L 334.829519 295.488 
L 336.951444 236.517043 
L 339.073369 237.017072 
L 341.195294 213.098781 
L 343.317219 255.747349 
L 345.439144 215.959554 
L 347.56107 251.409412 
L 349.682995 212.675855 
L 351.80492 222.558674 
L 353.926845 218.727814 
L 356.04877 221.285515 
L 358.170695 232.878857 
L 360.29262 210.593564 
L 362.414545 212.053614 
L 364.536471 220.004801 
L 366.658396 214.34522 
L 368.780321 218.145626 
L 370.902246 217.443903 
L 373.024171 237.341819 
L 377.268021 192.480746 
L 379.389947 206.728368 
L 381.511872 217.381268 
L 383.633797 226.043469 
L 385.755722 202.271968 
L 387.877647 217.346396 
L 389.999572 234.782274 
L 392.121497 262.193795 
L 394.243422 205.568672 
L 396.365348 216.86392 
L 398.487273 205.474275 
L 398.487273 205.474275 
" clip-path="url(#p83b875e8d8)" style="fill: none; stroke: #32cd32; stroke-opacity: 0.8; stroke-width: 0.5; stroke-linecap: square"/>
   </g>
   <g id="line2d_18">
    <path d="M 73.832727 175.90958 
L 75.954652 171.001452 
L 78.076578 177.226338 
L 80.198503 172.182835 
L 82.320428 176.074224 
L 84.442353 171.877851 
L 86.564278 172.542938 
L 88.686203 179.980827 
L 90.808128 165.102853 
L 92.930053 180.889358 
L 95.051979 176.418443 
L 97.173904 172.645722 
L 99.295829 171.684004 
L 101.417754 173.071478 
L 103.539679 174.303898 
L 105.661604 180.559477 
L 107.783529 167.416566 
L 109.905455 173.421944 
L 112.02738 180.503853 
L 114.149305 177.185992 
L 116.27123 177.186804 
L 118.393155 174.398095 
L 120.51508 177.589803 
L 122.637005 174.519544 
L 124.75893 168.44815 
L 126.880856 176.791248 
L 129.002781 179.179936 
L 131.124706 167.296995 
L 133.246631 179.863112 
L 135.368556 172.314495 
L 137.490481 174.882032 
L 139.612406 173.427072 
L 141.734332 174.712214 
L 143.856257 178.302818 
L 145.978182 170.937247 
L 148.100107 177.27051 
L 150.222032 178.655584 
L 152.343957 172.14438 
L 154.465882 176.255612 
L 156.587807 176.861283 
L 158.709733 171.601134 
L 160.831658 176.671974 
L 162.953583 177.007916 
L 165.075508 178.283387 
L 167.197433 172.864786 
L 169.319358 172.480266 
L 171.441283 172.625179 
L 173.563209 173.097587 
L 175.685134 179.503691 
L 177.807059 169.477052 
L 179.928984 171.064875 
L 182.050909 173.732797 
L 184.172834 178.239441 
L 186.294759 185.825758 
L 188.416684 142.427186 
L 190.53861 166.167775 
L 192.660535 179.424167 
L 194.78246 179.411827 
L 196.904385 172.825047 
L 199.02631 179.80611 
L 201.148235 165.389207 
L 203.27016 179.939473 
L 205.392086 177.263636 
L 207.514011 180.197242 
L 209.635936 162.704112 
L 211.757861 170.6582 
L 213.879786 173.933041 
L 216.001711 175.74795 
L 218.123636 171.520034 
L 220.245561 173.212423 
L 222.367487 168.235799 
L 224.489412 185.74704 
L 226.611337 177.572062 
L 228.733262 175.908059 
L 230.855187 175.079607 
L 232.977112 169.365589 
L 235.099037 176.288596 
L 237.220963 173.344207 
L 239.342888 178.124128 
L 241.464813 166.902189 
L 243.586738 175.576079 
L 245.708663 173.772517 
L 247.830588 175.021435 
L 249.952513 172.918865 
L 252.074439 179.423174 
L 254.196364 171.232594 
L 256.318289 172.985104 
L 258.440214 175.708807 
L 260.562139 174.538181 
L 262.684064 173.862924 
L 264.805989 171.901406 
L 266.927914 174.59676 
L 269.04984 178.114422 
L 271.171765 169.669743 
L 273.29369 174.167744 
L 275.415615 177.819806 
L 277.53754 170.354486 
L 279.659465 172.922851 
L 281.78139 178.372179 
L 283.903316 174.344066 
L 286.025241 175.519671 
L 288.147166 176.985998 
L 290.269091 173.402786 
L 292.391016 176.44655 
L 294.512941 164.407798 
L 296.634866 161.759525 
L 298.756791 181.361119 
L 300.878717 171.615667 
L 303.000642 170.798555 
L 305.122567 169.463914 
L 307.244492 170.763296 
L 309.366417 179.63299 
L 311.488342 162.249793 
L 313.610267 183.158248 
L 315.732193 161.247712 
L 317.854118 175.020629 
L 319.976043 172.746686 
L 322.097968 168.975011 
L 324.219893 174.187732 
L 326.341818 179.055602 
L 328.463743 164.063224 
L 330.585668 170.68149 
L 332.707594 172.827264 
L 334.829519 190.838 
L 336.951444 163.393871 
L 339.073369 174.259211 
L 341.195294 175.702741 
L 343.317219 171.884924 
L 345.439144 175.374128 
L 347.56107 168.306399 
L 349.682995 174.780485 
L 351.80492 177.162696 
L 353.926845 174.322851 
L 356.04877 165.625719 
L 358.170695 178.803597 
L 360.29262 174.506925 
L 362.414545 167.845282 
L 364.536471 176.611398 
L 366.658396 177.965986 
L 368.780321 172.700125 
L 370.902246 181.016794 
L 373.024171 168.960118 
L 375.146096 177.621375 
L 377.268021 170.619388 
L 379.389947 170.168084 
L 381.511872 173.086888 
L 383.633797 176.955372 
L 385.755722 171.316788 
L 387.877647 176.810626 
L 389.999572 177.273198 
L 392.121497 178.66871 
L 394.243422 168.118271 
L 396.365348 177.236414 
L 398.487273 174.226417 
L 398.487273 174.226417 
" clip-path="url(#p83b875e8d8)" style="fill: none; stroke: #ff0000; stroke-opacity: 0.8; stroke-width: 0.5; stroke-linecap: square"/>
   </g>
   <g id="line2d_19">
    <path d="M 73.832727 103.184861 
L 75.954652 108.748501 
L 78.076578 133.37231 
L 80.198503 117.861186 
L 82.320428 144.979731 
L 84.442353 139.784575 
L 86.564278 125.70273 
L 88.686203 140.532677 
L 90.808128 53.568 
L 92.930053 129.150771 
L 95.051979 139.573302 
L 97.173904 119.498456 
L 99.295829 129.269521 
L 101.417754 116.331189 
L 103.539679 143.493759 
L 105.661604 122.003104 
L 107.783529 119.866603 
L 109.905455 136.624332 
L 112.02738 147.348477 
L 114.149305 140.73992 
L 116.27123 111.732979 
L 118.393155 141.763699 
L 120.51508 116.364914 
L 122.637005 104.166653 
L 124.75893 135.430393 
L 126.880856 143.601503 
L 129.002781 143.946528 
L 131.124706 121.562129 
L 133.246631 129.047189 
L 135.368556 130.616973 
L 137.490481 145.997181 
L 139.612406 143.746164 
L 141.734332 158.685428 
L 143.856257 161.426068 
L 148.100107 139.874033 
L 150.222032 138.058566 
L 152.343957 143.000489 
L 154.465882 117.795857 
L 156.587807 149.670658 
L 158.709733 144.739981 
L 160.831658 130.496527 
L 162.953583 145.253592 
L 165.075508 162.859717 
L 167.197433 157.080211 
L 169.319358 149.377978 
L 171.441283 157.415561 
L 173.563209 123.190235 
L 175.685134 152.041362 
L 177.807059 146.023697 
L 179.928984 154.215818 
L 182.050909 145.201531 
L 184.172834 155.018159 
L 186.294759 127.473893 
L 188.416684 55.813888 
L 190.53861 70.376709 
L 192.660535 124.49144 
L 194.78246 154.802936 
L 196.904385 134.264645 
L 199.02631 140.966494 
L 201.148235 122.53445 
L 203.27016 131.38192 
L 205.392086 142.800632 
L 207.514011 151.639685 
L 209.635936 94.558872 
L 211.757861 102.759666 
L 213.879786 138.754007 
L 216.001711 152.412509 
L 218.123636 138.611855 
L 220.245561 133.741878 
L 222.367487 138.351062 
L 224.489412 112.582018 
L 226.611337 162.464635 
L 228.733262 143.917359 
L 230.855187 126.84452 
L 232.977112 98.881794 
L 235.099037 138.479274 
L 237.220963 141.640666 
L 239.342888 154.199309 
L 241.464813 134.499491 
L 243.586738 135.587329 
L 245.708663 128.137514 
L 247.830588 149.976638 
L 249.952513 122.294919 
L 252.074439 121.502429 
L 254.196364 131.444695 
L 256.318289 136.954567 
L 258.440214 114.152128 
L 260.562139 155.33222 
L 262.684064 131.973953 
L 264.805989 138.760675 
L 266.927914 139.627213 
L 269.04984 158.79741 
L 271.171765 148.770983 
L 273.29369 135.285152 
L 275.415615 162.760677 
L 277.53754 94.789312 
L 279.659465 119.601867 
L 281.78139 130.356026 
L 283.903316 144.262032 
L 286.025241 113.979744 
L 288.147166 136.616535 
L 290.269091 136.776748 
L 292.391016 141.099032 
L 294.512941 143.81612 
L 296.634866 94.132776 
L 298.756791 95.799459 
L 300.878717 96.127337 
L 303.000642 137.4802 
L 305.122567 133.663993 
L 307.244492 107.902414 
L 309.366417 103.353984 
L 311.488342 120.138758 
L 313.610267 123.48769 
L 315.732193 91.099462 
L 317.854118 119.343883 
L 319.976043 107.718285 
L 322.097968 127.531852 
L 324.219893 127.228744 
L 326.341818 77.860881 
L 328.463743 100.991114 
L 330.585668 98.223509 
L 332.707594 65.067539 
L 334.829519 112.876921 
L 339.073369 132.848313 
L 341.195294 133.116205 
L 343.317219 106.087833 
L 345.439144 130.907845 
L 347.56107 99.427912 
L 349.682995 144.206377 
L 351.80492 127.800236 
L 353.926845 87.108046 
L 356.04877 110.941967 
L 358.170695 113.108475 
L 360.29262 114.790639 
L 362.414545 129.273115 
L 364.536471 153.024176 
L 366.658396 139.928378 
L 368.780321 135.991039 
L 370.902246 147.919581 
L 373.024171 141.419151 
L 375.146096 124.567638 
L 377.268021 148.606976 
L 379.389947 106.681691 
L 381.511872 132.00184 
L 383.633797 148.815772 
L 385.755722 123.516676 
L 387.877647 119.047033 
L 389.999572 135.499712 
L 392.121497 121.42485 
L 394.243422 130.116594 
L 396.365348 80.282917 
L 398.487273 139.323291 
L 398.487273 139.323291 
" clip-path="url(#p83b875e8d8)" style="fill: none; stroke: #f08080; stroke-opacity: 0.8; stroke-width: 0.5; stroke-linecap: square"/>
   </g>
   <g id="line2d_20">
    <path d="M 73.832727 218.087748 
L 75.954652 223.950346 
L 78.076578 228.292507 
L 80.198503 223.218538 
L 82.320428 204.464267 
L 84.442353 217.955319 
L 86.564278 222.485514 
L 88.686203 260.190316 
L 90.808128 209.515734 
L 92.930053 222.468511 
L 95.051979 236.537374 
L 97.173904 218.805985 
L 99.295829 208.764302 
L 101.417754 204.310475 
L 103.539679 225.403152 
L 105.661604 225.430693 
L 107.783529 222.490403 
L 109.905455 194.600389 
L 112.02738 228.209905 
L 114.149305 225.630961 
L 116.27123 220.854181 
L 118.393155 206.887063 
L 120.51508 211.887792 
L 122.637005 219.02216 
L 124.75893 191.218349 
L 126.880856 233.210476 
L 129.002781 214.663284 
L 131.124706 187.1738 
L 133.246631 208.147038 
L 135.368556 201.899955 
L 137.490481 199.281325 
L 139.612406 195.523465 
L 141.734332 187.292741 
L 143.856257 199.450014 
L 145.978182 209.666046 
L 148.100107 203.623691 
L 150.222032 207.115537 
L 152.343957 196.903773 
L 154.465882 233.886431 
L 156.587807 206.909183 
L 158.709733 210.73065 
L 160.831658 211.900152 
L 162.953583 197.298027 
L 165.075508 192.998541 
L 167.197433 190.306332 
L 169.319358 192.618363 
L 171.441283 181.503788 
L 173.563209 202.201359 
L 175.685134 213.344444 
L 177.807059 202.512581 
L 179.928984 186.972395 
L 182.050909 204.95699 
L 184.172834 205.540801 
L 186.294759 239.042335 
L 188.416684 197.815272 
L 190.53861 225.979853 
L 192.660535 228.637764 
L 194.78246 210.548924 
L 196.904385 208.853004 
L 199.02631 221.818128 
L 201.148235 205.325212 
L 203.27016 235.982008 
L 205.392086 214.26279 
L 207.514011 205.066163 
L 209.635936 212.606258 
L 211.757861 206.95052 
L 213.879786 221.196999 
L 216.001711 207.565548 
L 218.123636 206.806206 
L 220.245561 214.918657 
L 222.367487 205.304448 
L 224.489412 241.46913 
L 226.611337 207.965747 
L 228.733262 242.039718 
L 230.855187 195.559518 
L 232.977112 211.030777 
L 235.099037 214.980348 
L 237.220963 229.521933 
L 239.342888 209.945305 
L 241.464813 209.469533 
L 243.586738 223.409862 
L 245.708663 206.896798 
L 247.830588 200.054327 
L 249.952513 210.877862 
L 252.074439 223.335465 
L 254.196364 203.056714 
L 256.318289 197.043862 
L 258.440214 217.070351 
L 260.562139 211.158897 
L 262.684064 208.537558 
L 264.805989 193.447545 
L 266.927914 207.365087 
L 269.04984 201.788867 
L 271.171765 187.864049 
L 273.29369 202.646003 
L 275.415615 210.724704 
L 277.53754 217.201742 
L 279.659465 203.485653 
L 281.78139 224.292727 
L 283.903316 214.999524 
L 286.025241 197.440864 
L 288.147166 208.110718 
L 290.269091 207.246537 
L 292.391016 228.452803 
L 294.512941 210.331256 
L 296.634866 211.087183 
L 298.756791 265.015552 
L 300.878717 224.506272 
L 303.000642 214.506409 
L 305.122567 215.860157 
L 307.244492 223.984486 
L 309.366417 231.009649 
L 311.488342 236.625214 
L 313.610267 223.430232 
L 315.732193 205.512696 
L 317.854118 222.185791 
L 319.976043 222.435183 
L 322.097968 219.629722 
L 324.219893 221.98368 
L 326.341818 227.186777 
L 328.463743 242.377099 
L 330.585668 241.098064 
L 332.707594 227.458657 
L 334.829519 282.33038 
L 336.951444 227.182748 
L 339.073369 226.986119 
L 341.195294 208.102421 
L 343.317219 246.102801 
L 345.439144 210.512546 
L 347.56107 248.668015 
L 349.682995 210.939484 
L 351.80492 231.590483 
L 353.926845 221.681309 
L 356.04877 198.88078 
L 358.170695 230.635883 
L 360.29262 215.030424 
L 362.414545 205.464473 
L 364.536471 214.137102 
L 366.658396 213.59576 
L 368.780321 209.273758 
L 370.902246 215.873529 
L 373.024171 228.696401 
L 375.146096 214.737389 
L 377.268021 185.846636 
L 379.389947 196.839541 
L 381.511872 197.663796 
L 383.633797 221.206186 
L 385.755722 200.013699 
L 389.999572 222.705795 
L 392.121497 258.514592 
L 394.243422 201.262097 
L 396.365348 215.92664 
L 398.487273 200.617939 
L 398.487273 200.617939 
" clip-path="url(#p83b875e8d8)" style="fill: none; stroke: #f08080; stroke-opacity: 0.8; stroke-width: 0.5; stroke-linecap: square"/>
   </g>
   <g id="patch_3">
    <path d="M 57.6 307.584 
L 57.6 41.472 
" style="fill: none; stroke: #000000; stroke-width: 0.8; stroke-linejoin: miter; stroke-linecap: square"/>
   </g>
   <g id="patch_4">
    <path d="M 414.72 307.584 
L 414.72 41.472 
" style="fill: none; stroke: #000000; stroke-width: 0.8; stroke-linejoin: miter; stroke-linecap: square"/>
   </g>
   <g id="patch_5">
    <path d="M 57.6 307.584 
L 414.72 307.584 
" style="fill: none; stroke: #000000; stroke-width: 0.8; stroke-linejoin: miter; stroke-linecap: square"/>
   </g>
   <g id="patch_6">
    <path d="M 57.6 41.472 
L 414.72 41.472 
" style="fill: none; stroke: #000000; stroke-width: 0.8; stroke-linejoin: miter; stroke-linecap: square"/>
   </g>
   <g id="text_15">
    <!-- zhang_extended_eurusd -->
    <g transform="translate(162.927188 35.472) scale(0.12 -0.12)">
     <defs>
      <path id="DejaVuSans-7a" d="M 353 3500 
L 3084 3500 
L 3084 2975 
L 922 459 
L 3084 459 
L 3084 0 
L 275 0 
L 275 525 
L 2438 3041 
L 353 3041 
L 353 3500 
z
" transform="scale(0.015625)"/>
      <path id="DejaVuSans-68" d="M 3513 2113 
L 3513 0 
L 2938 0 
L 2938 2094 
Q 2938 2591 2744 2837 
Q 2550 3084 2163 3084 
Q 1697 3084 1428 2787 
Q 1159 2491 1159 1978 
L 1159 0 
L 581 0 
L 581 4863 
L 1159 4863 
L 1159 2956 
Q 1366 3272 1645 3428 
Q 1925 3584 2291 3584 
Q 2894 3584 3203 3211 
Q 3513 2838 3513 2113 
z
" transform="scale(0.015625)"/>
      <path id="DejaVuSans-61" d="M 2194 1759 
Q 1497 1759 1228 1600 
Q 959 1441 959 1056 
Q 959 750 1161 570 
Q 1363 391 1709 391 
Q 2188 391 2477 730 
Q 2766 1069 2766 1631 
L 2766 1759 
L 2194 1759 
z
M 3341 1997 
L 3341 0 
L 2766 0 
L 2766 531 
Q 2569 213 2275 61 
Q 1981 -91 1556 -91 
Q 1019 -91 701 211 
Q 384 513 384 1019 
Q 384 1609 779 1909 
Q 1175 2209 1959 2209 
L 2766 2209 
L 2766 2266 
Q 2766 2663 2505 2880 
Q 2244 3097 1772 3097 
Q 1472 3097 1187 3025 
Q 903 2953 641 2809 
L 641 3341 
Q 956 3463 1253 3523 
Q 1550 3584 1831 3584 
Q 2591 3584 2966 3190 
Q 3341 2797 3341 1997 
z
" transform="scale(0.015625)"/>
      <path id="DejaVuSans-6e" d="M 3513 2113 
L 3513 0 
L 2938 0 
L 2938 2094 
Q 2938 2591 2744 2837 
Q 2550 3084 2163 3084 
Q 1697 3084 1428 2787 
Q 1159 2491 1159 1978 
L 1159 0 
L 581 0 
L 581 3500 
L 1159 3500 
L 1159 2956 
Q 1366 3272 1645 3428 
Q 1925 3584 2291 3584 
Q 2894 3584 3203 3211 
Q 3513 2838 3513 2113 
z
" transform="scale(0.015625)"/>
      <path id="DejaVuSans-67" d="M 2906 1791 
Q 2906 2416 2648 2759 
Q 2391 3103 1925 3103 
Q 1463 3103 1205 2759 
Q 947 2416 947 1791 
Q 947 1169 1205 825 
Q 1463 481 1925 481 
Q 2391 481 2648 825 
Q 2906 1169 2906 1791 
z
M 3481 434 
Q 3481 -459 3084 -895 
Q 2688 -1331 1869 -1331 
Q 1566 -1331 1297 -1286 
Q 1028 -1241 775 -1147 
L 775 -588 
Q 1028 -725 1275 -790 
Q 1522 -856 1778 -856 
Q 2344 -856 2625 -561 
Q 2906 -266 2906 331 
L 2906 616 
Q 2728 306 2450 153 
Q 2172 0 1784 0 
Q 1141 0 747 490 
Q 353 981 353 1791 
Q 353 2603 747 3093 
Q 1141 3584 1784 3584 
Q 2172 3584 2450 3431 
Q 2728 3278 2906 2969 
L 2906 3500 
L 3481 3500 
L 3481 434 
z
" transform="scale(0.015625)"/>
      <path id="DejaVuSans-5f" d="M 3263 -1063 
L 3263 -1509 
L -63 -1509 
L -63 -1063 
L 3263 -1063 
z
" transform="scale(0.015625)"/>
      <path id="DejaVuSans-65" d="M 3597 1894 
L 3597 1613 
L 953 1613 
Q 991 1019 1311 708 
Q 1631 397 2203 397 
Q 2534 397 2845 478 
Q 3156 559 3463 722 
L 3463 178 
Q 3153 47 2828 -22 
Q 2503 -91 2169 -91 
Q 1331 -91 842 396 
Q 353 884 353 1716 
Q 353 2575 817 3079 
Q 1281 3584 2069 3584 
Q 2775 3584 3186 3129 
Q 3597 2675 3597 1894 
z
M 3022 2063 
Q 3016 2534 2758 2815 
Q 2500 3097 2075 3097 
Q 1594 3097 1305 2825 
Q 1016 2553 972 2059 
L 3022 2063 
z
" transform="scale(0.015625)"/>
      <path id="DejaVuSans-78" d="M 3513 3500 
L 2247 1797 
L 3578 0 
L 2900 0 
L 1881 1375 
L 863 0 
L 184 0 
L 1544 1831 
L 300 3500 
L 978 3500 
L 1906 2253 
L 2834 3500 
L 3513 3500 
z
" transform="scale(0.015625)"/>
      <path id="DejaVuSans-74" d="M 1172 4494 
L 1172 3500 
L 2356 3500 
L 2356 3053 
L 1172 3053 
L 1172 1153 
Q 1172 725 1289 603 
Q 1406 481 1766 481 
L 2356 481 
L 2356 0 
L 1766 0 
Q 1100 0 847 248 
Q 594 497 594 1153 
L 594 3053 
L 172 3053 
L 172 3500 
L 594 3500 
L 594 4494 
L 1172 4494 
z
" transform="scale(0.015625)"/>
      <path id="DejaVuSans-64" d="M 2906 2969 
L 2906 4863 
L 3481 4863 
L 3481 0 
L 2906 0 
L 2906 525 
Q 2725 213 2448 61 
Q 2172 -91 1784 -91 
Q 1150 -91 751 415 
Q 353 922 353 1747 
Q 353 2572 751 3078 
Q 1150 3584 1784 3584 
Q 2172 3584 2448 3432 
Q 2725 3281 2906 2969 
z
M 947 1747 
Q 947 1113 1208 752 
Q 1469 391 1925 391 
Q 2381 391 2643 752 
Q 2906 1113 2906 1747 
Q 2906 2381 2643 2742 
Q 2381 3103 1925 3103 
Q 1469 3103 1208 2742 
Q 947 2381 947 1747 
z
" transform="scale(0.015625)"/>
      <path id="DejaVuSans-75" d="M 544 1381 
L 544 3500 
L 1119 3500 
L 1119 1403 
Q 1119 906 1312 657 
Q 1506 409 1894 409 
Q 2359 409 2629 706 
Q 2900 1003 2900 1516 
L 2900 3500 
L 3475 3500 
L 3475 0 
L 2900 0 
L 2900 538 
Q 2691 219 2414 64 
Q 2138 -91 1772 -91 
Q 1169 -91 856 284 
Q 544 659 544 1381 
z
M 1991 3584 
L 1991 3584 
z
" transform="scale(0.015625)"/>
      <path id="DejaVuSans-72" d="M 2631 2963 
Q 2534 3019 2420 3045 
Q 2306 3072 2169 3072 
Q 1681 3072 1420 2755 
Q 1159 2438 1159 1844 
L 1159 0 
L 581 0 
L 581 3500 
L 1159 3500 
L 1159 2956 
Q 1341 3275 1631 3429 
Q 1922 3584 2338 3584 
Q 2397 3584 2469 3576 
Q 2541 3569 2628 3553 
L 2631 2963 
z
" transform="scale(0.015625)"/>
      <path id="DejaVuSans-73" d="M 2834 3397 
L 2834 2853 
Q 2591 2978 2328 3040 
Q 2066 3103 1784 3103 
Q 1356 3103 1142 2972 
Q 928 2841 928 2578 
Q 928 2378 1081 2264 
Q 1234 2150 1697 2047 
L 1894 2003 
Q 2506 1872 2764 1633 
Q 3022 1394 3022 966 
Q 3022 478 2636 193 
Q 2250 -91 1575 -91 
Q 1294 -91 989 -36 
Q 684 19 347 128 
L 347 722 
Q 666 556 975 473 
Q 1284 391 1588 391 
Q 1994 391 2212 530 
Q 2431 669 2431 922 
Q 2431 1156 2273 1281 
Q 2116 1406 1581 1522 
L 1381 1569 
Q 847 1681 609 1914 
Q 372 2147 372 2553 
Q 372 3047 722 3315 
Q 1072 3584 1716 3584 
Q 2034 3584 2315 3537 
Q 2597 3491 2834 3397 
z
" transform="scale(0.015625)"/>
     </defs>
     <use xlink:href="#DejaVuSans-7a"/>
     <use xlink:href="#DejaVuSans-68" x="52.490234"/>
     <use xlink:href="#DejaVuSans-61" x="115.869141"/>
     <use xlink:href="#DejaVuSans-6e" x="177.148438"/>
     <use xlink:href="#DejaVuSans-67" x="240.527344"/>
     <use xlink:href="#DejaVuSans-5f" x="304.003906"/>
     <use xlink:href="#DejaVuSans-65" x="354.003906"/>
     <use xlink:href="#DejaVuSans-78" x="413.777344"/>
     <use xlink:href="#DejaVuSans-74" x="472.957031"/>
     <use xlink:href="#DejaVuSans-65" x="512.166016"/>
     <use xlink:href="#DejaVuSans-6e" x="573.689453"/>
     <use xlink:href="#DejaVuSans-64" x="637.068359"/>
     <use xlink:href="#DejaVuSans-65" x="700.544922"/>
     <use xlink:href="#DejaVuSans-64" x="762.068359"/>
     <use xlink:href="#DejaVuSans-5f" x="825.544922"/>
     <use xlink:href="#DejaVuSans-65" x="875.544922"/>
     <use xlink:href="#DejaVuSans-75" x="937.068359"/>
     <use xlink:href="#DejaVuSans-72" x="1000.447266"/>
     <use xlink:href="#DejaVuSans-75" x="1041.560547"/>
     <use xlink:href="#DejaVuSans-73" x="1104.939453"/>
     <use xlink:href="#DejaVuSans-64" x="1157.039062"/>
    </g>
   </g>
   <g id="legend_1">
    <g id="patch_7">
     <path d="M 64.6 137.54075 
L 225.001563 137.54075 
Q 227.001563 137.54075 227.001563 135.54075 
L 227.001563 48.472 
Q 227.001563 46.472 225.001563 46.472 
L 64.6 46.472 
Q 62.6 46.472 62.6 48.472 
L 62.6 135.54075 
Q 62.6 137.54075 64.6 137.54075 
z
" style="fill: #ffffff; opacity: 0.8; stroke: #cccccc; stroke-linejoin: miter"/>
    </g>
    <g id="line2d_21">
     <path d="M 66.6 54.570438 
L 76.6 54.570438 
L 86.6 54.570438 
" style="fill: none; stroke: #008000; stroke-opacity: 0.8; stroke-width: 0.5; stroke-linecap: square"/>
    </g>
    <g id="text_16">
     <!-- Positive predictions -->
     <g transform="translate(94.6 58.070438) scale(0.1 -0.1)">
      <defs>
       <path id="DejaVuSans-50" d="M 1259 4147 
L 1259 2394 
L 2053 2394 
Q 2494 2394 2734 2622 
Q 2975 2850 2975 3272 
Q 2975 3691 2734 3919 
Q 2494 4147 2053 4147 
L 1259 4147 
z
M 628 4666 
L 2053 4666 
Q 2838 4666 3239 4311 
Q 3641 3956 3641 3272 
Q 3641 2581 3239 2228 
Q 2838 1875 2053 1875 
L 1259 1875 
L 1259 0 
L 628 0 
L 628 4666 
z
" transform="scale(0.015625)"/>
       <path id="DejaVuSans-6f" d="M 1959 3097 
Q 1497 3097 1228 2736 
Q 959 2375 959 1747 
Q 959 1119 1226 758 
Q 1494 397 1959 397 
Q 2419 397 2687 759 
Q 2956 1122 2956 1747 
Q 2956 2369 2687 2733 
Q 2419 3097 1959 3097 
z
M 1959 3584 
Q 2709 3584 3137 3096 
Q 3566 2609 3566 1747 
Q 3566 888 3137 398 
Q 2709 -91 1959 -91 
Q 1206 -91 779 398 
Q 353 888 353 1747 
Q 353 2609 779 3096 
Q 1206 3584 1959 3584 
z
" transform="scale(0.015625)"/>
       <path id="DejaVuSans-69" d="M 603 3500 
L 1178 3500 
L 1178 0 
L 603 0 
L 603 3500 
z
M 603 4863 
L 1178 4863 
L 1178 4134 
L 603 4134 
L 603 4863 
z
" transform="scale(0.015625)"/>
       <path id="DejaVuSans-76" d="M 191 3500 
L 800 3500 
L 1894 563 
L 2988 3500 
L 3597 3500 
L 2284 0 
L 1503 0 
L 191 3500 
z
" transform="scale(0.015625)"/>
       <path id="DejaVuSans-20" transform="scale(0.015625)"/>
       <path id="DejaVuSans-70" d="M 1159 525 
L 1159 -1331 
L 581 -1331 
L 581 3500 
L 1159 3500 
L 1159 2969 
Q 1341 3281 1617 3432 
Q 1894 3584 2278 3584 
Q 2916 3584 3314 3078 
Q 3713 2572 3713 1747 
Q 3713 922 3314 415 
Q 2916 -91 2278 -91 
Q 1894 -91 1617 61 
Q 1341 213 1159 525 
z
M 3116 1747 
Q 3116 2381 2855 2742 
Q 2594 3103 2138 3103 
Q 1681 3103 1420 2742 
Q 1159 2381 1159 1747 
Q 1159 1113 1420 752 
Q 1681 391 2138 391 
Q 2594 391 2855 752 
Q 3116 1113 3116 1747 
z
" transform="scale(0.015625)"/>
       <path id="DejaVuSans-63" d="M 3122 3366 
L 3122 2828 
Q 2878 2963 2633 3030 
Q 2388 3097 2138 3097 
Q 1578 3097 1268 2742 
Q 959 2388 959 1747 
Q 959 1106 1268 751 
Q 1578 397 2138 397 
Q 2388 397 2633 464 
Q 2878 531 3122 666 
L 3122 134 
Q 2881 22 2623 -34 
Q 2366 -91 2075 -91 
Q 1284 -91 818 406 
Q 353 903 353 1747 
Q 353 2603 823 3093 
Q 1294 3584 2113 3584 
Q 2378 3584 2631 3529 
Q 2884 3475 3122 3366 
z
" transform="scale(0.015625)"/>
      </defs>
      <use xlink:href="#DejaVuSans-50"/>
      <use xlink:href="#DejaVuSans-6f" x="56.677734"/>
      <use xlink:href="#DejaVuSans-73" x="117.859375"/>
      <use xlink:href="#DejaVuSans-69" x="169.958984"/>
      <use xlink:href="#DejaVuSans-74" x="197.742188"/>
      <use xlink:href="#DejaVuSans-69" x="236.951172"/>
      <use xlink:href="#DejaVuSans-76" x="264.734375"/>
      <use xlink:href="#DejaVuSans-65" x="323.914062"/>
      <use xlink:href="#DejaVuSans-20" x="385.4375"/>
      <use xlink:href="#DejaVuSans-70" x="417.224609"/>
      <use xlink:href="#DejaVuSans-72" x="480.701172"/>
      <use xlink:href="#DejaVuSans-65" x="519.564453"/>
      <use xlink:href="#DejaVuSans-64" x="581.087891"/>
      <use xlink:href="#DejaVuSans-69" x="644.564453"/>
      <use xlink:href="#DejaVuSans-63" x="672.347656"/>
      <use xlink:href="#DejaVuSans-74" x="727.328125"/>
      <use xlink:href="#DejaVuSans-69" x="766.537109"/>
      <use xlink:href="#DejaVuSans-6f" x="794.320312"/>
      <use xlink:href="#DejaVuSans-6e" x="855.501953"/>
      <use xlink:href="#DejaVuSans-73" x="918.880859"/>
     </g>
    </g>
    <g id="line2d_22">
     <path d="M 66.6 69.248563 
L 76.6 69.248563 
L 86.6 69.248563 
" style="fill: none; stroke: #32cd32; stroke-opacity: 0.8; stroke-width: 0.5; stroke-linecap: square"/>
    </g>
    <g id="text_17">
     <!-- Positive predictions max -->
     <g transform="translate(94.6 72.748563) scale(0.1 -0.1)">
      <defs>
       <path id="DejaVuSans-6d" d="M 3328 2828 
Q 3544 3216 3844 3400 
Q 4144 3584 4550 3584 
Q 5097 3584 5394 3201 
Q 5691 2819 5691 2113 
L 5691 0 
L 5113 0 
L 5113 2094 
Q 5113 2597 4934 2840 
Q 4756 3084 4391 3084 
Q 3944 3084 3684 2787 
Q 3425 2491 3425 1978 
L 3425 0 
L 2847 0 
L 2847 2094 
Q 2847 2600 2669 2842 
Q 2491 3084 2119 3084 
Q 1678 3084 1418 2786 
Q 1159 2488 1159 1978 
L 1159 0 
L 581 0 
L 581 3500 
L 1159 3500 
L 1159 2956 
Q 1356 3278 1631 3431 
Q 1906 3584 2284 3584 
Q 2666 3584 2933 3390 
Q 3200 3197 3328 2828 
z
" transform="scale(0.015625)"/>
      </defs>
      <use xlink:href="#DejaVuSans-50"/>
      <use xlink:href="#DejaVuSans-6f" x="56.677734"/>
      <use xlink:href="#DejaVuSans-73" x="117.859375"/>
      <use xlink:href="#DejaVuSans-69" x="169.958984"/>
      <use xlink:href="#DejaVuSans-74" x="197.742188"/>
      <use xlink:href="#DejaVuSans-69" x="236.951172"/>
      <use xlink:href="#DejaVuSans-76" x="264.734375"/>
      <use xlink:href="#DejaVuSans-65" x="323.914062"/>
      <use xlink:href="#DejaVuSans-20" x="385.4375"/>
      <use xlink:href="#DejaVuSans-70" x="417.224609"/>
      <use xlink:href="#DejaVuSans-72" x="480.701172"/>
      <use xlink:href="#DejaVuSans-65" x="519.564453"/>
      <use xlink:href="#DejaVuSans-64" x="581.087891"/>
      <use xlink:href="#DejaVuSans-69" x="644.564453"/>
      <use xlink:href="#DejaVuSans-63" x="672.347656"/>
      <use xlink:href="#DejaVuSans-74" x="727.328125"/>
      <use xlink:href="#DejaVuSans-69" x="766.537109"/>
      <use xlink:href="#DejaVuSans-6f" x="794.320312"/>
      <use xlink:href="#DejaVuSans-6e" x="855.501953"/>
      <use xlink:href="#DejaVuSans-73" x="918.880859"/>
      <use xlink:href="#DejaVuSans-20" x="970.980469"/>
      <use xlink:href="#DejaVuSans-6d" x="1002.767578"/>
      <use xlink:href="#DejaVuSans-61" x="1100.179688"/>
      <use xlink:href="#DejaVuSans-78" x="1161.458984"/>
     </g>
    </g>
    <g id="line2d_23">
     <path d="M 66.6 83.926688 
L 76.6 83.926688 
L 86.6 83.926688 
" style="fill: none; stroke: #32cd32; stroke-opacity: 0.8; stroke-width: 0.5; stroke-linecap: square"/>
    </g>
    <g id="text_18">
     <!-- Positive predictions min -->
     <g transform="translate(94.6 87.426688) scale(0.1 -0.1)">
      <use xlink:href="#DejaVuSans-50"/>
      <use xlink:href="#DejaVuSans-6f" x="56.677734"/>
      <use xlink:href="#DejaVuSans-73" x="117.859375"/>
      <use xlink:href="#DejaVuSans-69" x="169.958984"/>
      <use xlink:href="#DejaVuSans-74" x="197.742188"/>
      <use xlink:href="#DejaVuSans-69" x="236.951172"/>
      <use xlink:href="#DejaVuSans-76" x="264.734375"/>
      <use xlink:href="#DejaVuSans-65" x="323.914062"/>
      <use xlink:href="#DejaVuSans-20" x="385.4375"/>
      <use xlink:href="#DejaVuSans-70" x="417.224609"/>
      <use xlink:href="#DejaVuSans-72" x="480.701172"/>
      <use xlink:href="#DejaVuSans-65" x="519.564453"/>
      <use xlink:href="#DejaVuSans-64" x="581.087891"/>
      <use xlink:href="#DejaVuSans-69" x="644.564453"/>
      <use xlink:href="#DejaVuSans-63" x="672.347656"/>
      <use xlink:href="#DejaVuSans-74" x="727.328125"/>
      <use xlink:href="#DejaVuSans-69" x="766.537109"/>
      <use xlink:href="#DejaVuSans-6f" x="794.320312"/>
      <use xlink:href="#DejaVuSans-6e" x="855.501953"/>
      <use xlink:href="#DejaVuSans-73" x="918.880859"/>
      <use xlink:href="#DejaVuSans-20" x="970.980469"/>
      <use xlink:href="#DejaVuSans-6d" x="1002.767578"/>
      <use xlink:href="#DejaVuSans-69" x="1100.179688"/>
      <use xlink:href="#DejaVuSans-6e" x="1127.962891"/>
     </g>
    </g>
    <g id="line2d_24">
     <path d="M 66.6 98.604813 
L 76.6 98.604813 
L 86.6 98.604813 
" style="fill: none; stroke: #ff0000; stroke-opacity: 0.8; stroke-width: 0.5; stroke-linecap: square"/>
    </g>
    <g id="text_19">
     <!-- Negative predictions -->
     <g transform="translate(94.6 102.104813) scale(0.1 -0.1)">
      <defs>
       <path id="DejaVuSans-4e" d="M 628 4666 
L 1478 4666 
L 3547 763 
L 3547 4666 
L 4159 4666 
L 4159 0 
L 3309 0 
L 1241 3903 
L 1241 0 
L 628 0 
L 628 4666 
z
" transform="scale(0.015625)"/>
      </defs>
      <use xlink:href="#DejaVuSans-4e"/>
      <use xlink:href="#DejaVuSans-65" x="74.804688"/>
      <use xlink:href="#DejaVuSans-67" x="136.328125"/>
      <use xlink:href="#DejaVuSans-61" x="199.804688"/>
      <use xlink:href="#DejaVuSans-74" x="261.083984"/>
      <use xlink:href="#DejaVuSans-69" x="300.292969"/>
      <use xlink:href="#DejaVuSans-76" x="328.076172"/>
      <use xlink:href="#DejaVuSans-65" x="387.255859"/>
      <use xlink:href="#DejaVuSans-20" x="448.779297"/>
      <use xlink:href="#DejaVuSans-70" x="480.566406"/>
      <use xlink:href="#DejaVuSans-72" x="544.042969"/>
      <use xlink:href="#DejaVuSans-65" x="582.90625"/>
      <use xlink:href="#DejaVuSans-64" x="644.429688"/>
      <use xlink:href="#DejaVuSans-69" x="707.90625"/>
      <use xlink:href="#DejaVuSans-63" x="735.689453"/>
      <use xlink:href="#DejaVuSans-74" x="790.669922"/>
      <use xlink:href="#DejaVuSans-69" x="829.878906"/>
      <use xlink:href="#DejaVuSans-6f" x="857.662109"/>
      <use xlink:href="#DejaVuSans-6e" x="918.84375"/>
      <use xlink:href="#DejaVuSans-73" x="982.222656"/>
     </g>
    </g>
    <g id="line2d_25">
     <path d="M 66.6 113.282938 
L 76.6 113.282938 
L 86.6 113.282938 
" style="fill: none; stroke: #f08080; stroke-opacity: 0.8; stroke-width: 0.5; stroke-linecap: square"/>
    </g>
    <g id="text_20">
     <!-- Negative predictions max -->
     <g transform="translate(94.6 116.782938) scale(0.1 -0.1)">
      <use xlink:href="#DejaVuSans-4e"/>
      <use xlink:href="#DejaVuSans-65" x="74.804688"/>
      <use xlink:href="#DejaVuSans-67" x="136.328125"/>
      <use xlink:href="#DejaVuSans-61" x="199.804688"/>
      <use xlink:href="#DejaVuSans-74" x="261.083984"/>
      <use xlink:href="#DejaVuSans-69" x="300.292969"/>
      <use xlink:href="#DejaVuSans-76" x="328.076172"/>
      <use xlink:href="#DejaVuSans-65" x="387.255859"/>
      <use xlink:href="#DejaVuSans-20" x="448.779297"/>
      <use xlink:href="#DejaVuSans-70" x="480.566406"/>
      <use xlink:href="#DejaVuSans-72" x="544.042969"/>
      <use xlink:href="#DejaVuSans-65" x="582.90625"/>
      <use xlink:href="#DejaVuSans-64" x="644.429688"/>
      <use xlink:href="#DejaVuSans-69" x="707.90625"/>
      <use xlink:href="#DejaVuSans-63" x="735.689453"/>
      <use xlink:href="#DejaVuSans-74" x="790.669922"/>
      <use xlink:href="#DejaVuSans-69" x="829.878906"/>
      <use xlink:href="#DejaVuSans-6f" x="857.662109"/>
      <use xlink:href="#DejaVuSans-6e" x="918.84375"/>
      <use xlink:href="#DejaVuSans-73" x="982.222656"/>
      <use xlink:href="#DejaVuSans-20" x="1034.322266"/>
      <use xlink:href="#DejaVuSans-6d" x="1066.109375"/>
      <use xlink:href="#DejaVuSans-61" x="1163.521484"/>
      <use xlink:href="#DejaVuSans-78" x="1224.800781"/>
     </g>
    </g>
    <g id="line2d_26">
     <path d="M 66.6 127.961063 
L 76.6 127.961063 
L 86.6 127.961063 
" style="fill: none; stroke: #f08080; stroke-opacity: 0.8; stroke-width: 0.5; stroke-linecap: square"/>
    </g>
    <g id="text_21">
     <!-- Negative predictions min -->
     <g transform="translate(94.6 131.461063) scale(0.1 -0.1)">
      <use xlink:href="#DejaVuSans-4e"/>
      <use xlink:href="#DejaVuSans-65" x="74.804688"/>
      <use xlink:href="#DejaVuSans-67" x="136.328125"/>
      <use xlink:href="#DejaVuSans-61" x="199.804688"/>
      <use xlink:href="#DejaVuSans-74" x="261.083984"/>
      <use xlink:href="#DejaVuSans-69" x="300.292969"/>
      <use xlink:href="#DejaVuSans-76" x="328.076172"/>
      <use xlink:href="#DejaVuSans-65" x="387.255859"/>
      <use xlink:href="#DejaVuSans-20" x="448.779297"/>
      <use xlink:href="#DejaVuSans-70" x="480.566406"/>
      <use xlink:href="#DejaVuSans-72" x="544.042969"/>
      <use xlink:href="#DejaVuSans-65" x="582.90625"/>
      <use xlink:href="#DejaVuSans-64" x="644.429688"/>
      <use xlink:href="#DejaVuSans-69" x="707.90625"/>
      <use xlink:href="#DejaVuSans-63" x="735.689453"/>
      <use xlink:href="#DejaVuSans-74" x="790.669922"/>
      <use xlink:href="#DejaVuSans-69" x="829.878906"/>
      <use xlink:href="#DejaVuSans-6f" x="857.662109"/>
      <use xlink:href="#DejaVuSans-6e" x="918.84375"/>
      <use xlink:href="#DejaVuSans-73" x="982.222656"/>
      <use xlink:href="#DejaVuSans-20" x="1034.322266"/>
      <use xlink:href="#DejaVuSans-6d" x="1066.109375"/>
      <use xlink:href="#DejaVuSans-69" x="1163.521484"/>
      <use xlink:href="#DejaVuSans-6e" x="1191.304688"/>
     </g>
    </g>
   </g>
  </g>
 </g>
 <defs>
  <clipPath id="p83b875e8d8">
   <rect x="57.6" y="41.472" width="357.12" height="266.112"/>
  </clipPath>
 </defs>
</svg>
