<?xml version="1.0" encoding="utf-8" standalone="no"?>
<!DOCTYPE svg PUBLIC "-//W3C//DTD SVG 1.1//EN"
  "http://www.w3.org/Graphics/SVG/1.1/DTD/svg11.dtd">
<svg xmlns:xlink="http://www.w3.org/1999/xlink" width="460.8pt" height="345.6pt" viewBox="0 0 460.8 345.6" xmlns="http://www.w3.org/2000/svg" version="1.1">
 <metadata>
  <rdf:RDF xmlns:dc="http://purl.org/dc/elements/1.1/" xmlns:cc="http://creativecommons.org/ns#" xmlns:rdf="http://www.w3.org/1999/02/22-rdf-syntax-ns#">
   <cc:Work>
    <dc:type rdf:resource="http://purl.org/dc/dcmitype/StillImage"/>
    <dc:date>2024-07-09T08:29:52.389502</dc:date>
    <dc:format>image/svg+xml</dc:format>
    <dc:creator>
     <cc:Agent>
      <dc:title>Matplotlib v3.9.0, https://matplotlib.org/</dc:title>
     </cc:Agent>
    </dc:creator>
   </cc:Work>
  </rdf:RDF>
 </metadata>
 <defs>
  <style type="text/css">*{stroke-linejoin: round; stroke-linecap: butt}</style>
 </defs>
 <g id="figure_1">
  <g id="patch_1">
   <path d="M 0 345.6 
L 460.8 345.6 
L 460.8 0 
L 0 0 
z
" style="fill: #ffffff"/>
  </g>
  <g id="axes_1">
   <g id="patch_2">
    <path d="M 57.6 307.584 
L 414.72 307.584 
L 414.72 41.472 
L 57.6 41.472 
z
" style="fill: #ffffff"/>
   </g>
   <g id="matplotlib.axis_1">
    <g id="xtick_1">
     <g id="line2d_1">
      <defs>
       <path id="m0e53e9a10f" d="M 0 0 
L 0 3.5 
" style="stroke: #000000; stroke-width: 0.8"/>
      </defs>
      <g>
       <use xlink:href="#m0e53e9a10f" x="73.832727" y="307.584" style="stroke: #000000; stroke-width: 0.8"/>
      </g>
     </g>
     <g id="text_1">
      <!-- 0 -->
      <g transform="translate(70.651477 322.182437) scale(0.1 -0.1)">
       <defs>
        <path id="DejaVuSans-30" d="M 2034 4250 
Q 1547 4250 1301 3770 
Q 1056 3291 1056 2328 
Q 1056 1369 1301 889 
Q 1547 409 2034 409 
Q 2525 409 2770 889 
Q 3016 1369 3016 2328 
Q 3016 3291 2770 3770 
Q 2525 4250 2034 4250 
z
M 2034 4750 
Q 2819 4750 3233 4129 
Q 3647 3509 3647 2328 
Q 3647 1150 3233 529 
Q 2819 -91 2034 -91 
Q 1250 -91 836 529 
Q 422 1150 422 2328 
Q 422 3509 836 4129 
Q 1250 4750 2034 4750 
z
" transform="scale(0.015625)"/>
       </defs>
       <use xlink:href="#DejaVuSans-30"/>
      </g>
     </g>
    </g>
    <g id="xtick_2">
     <g id="line2d_2">
      <g>
       <use xlink:href="#m0e53e9a10f" x="149.333784" y="307.584" style="stroke: #000000; stroke-width: 0.8"/>
      </g>
     </g>
     <g id="text_2">
      <!-- 50 -->
      <g transform="translate(142.971284 322.182437) scale(0.1 -0.1)">
       <defs>
        <path id="DejaVuSans-35" d="M 691 4666 
L 3169 4666 
L 3169 4134 
L 1269 4134 
L 1269 2991 
Q 1406 3038 1543 3061 
Q 1681 3084 1819 3084 
Q 2600 3084 3056 2656 
Q 3513 2228 3513 1497 
Q 3513 744 3044 326 
Q 2575 -91 1722 -91 
Q 1428 -91 1123 -41 
Q 819 9 494 109 
L 494 744 
Q 775 591 1075 516 
Q 1375 441 1709 441 
Q 2250 441 2565 725 
Q 2881 1009 2881 1497 
Q 2881 1984 2565 2268 
Q 2250 2553 1709 2553 
Q 1456 2553 1204 2497 
Q 953 2441 691 2322 
L 691 4666 
z
" transform="scale(0.015625)"/>
       </defs>
       <use xlink:href="#DejaVuSans-35"/>
       <use xlink:href="#DejaVuSans-30" x="63.623047"/>
      </g>
     </g>
    </g>
    <g id="xtick_3">
     <g id="line2d_3">
      <g>
       <use xlink:href="#m0e53e9a10f" x="224.834841" y="307.584" style="stroke: #000000; stroke-width: 0.8"/>
      </g>
     </g>
     <g id="text_3">
      <!-- 100 -->
      <g transform="translate(215.291091 322.182437) scale(0.1 -0.1)">
       <defs>
        <path id="DejaVuSans-31" d="M 794 531 
L 1825 531 
L 1825 4091 
L 703 3866 
L 703 4441 
L 1819 4666 
L 2450 4666 
L 2450 531 
L 3481 531 
L 3481 0 
L 794 0 
L 794 531 
z
" transform="scale(0.015625)"/>
       </defs>
       <use xlink:href="#DejaVuSans-31"/>
       <use xlink:href="#DejaVuSans-30" x="63.623047"/>
       <use xlink:href="#DejaVuSans-30" x="127.246094"/>
      </g>
     </g>
    </g>
    <g id="xtick_4">
     <g id="line2d_4">
      <g>
       <use xlink:href="#m0e53e9a10f" x="300.335899" y="307.584" style="stroke: #000000; stroke-width: 0.8"/>
      </g>
     </g>
     <g id="text_4">
      <!-- 150 -->
      <g transform="translate(290.792149 322.182437) scale(0.1 -0.1)">
       <use xlink:href="#DejaVuSans-31"/>
       <use xlink:href="#DejaVuSans-35" x="63.623047"/>
       <use xlink:href="#DejaVuSans-30" x="127.246094"/>
      </g>
     </g>
    </g>
    <g id="xtick_5">
     <g id="line2d_5">
      <g>
       <use xlink:href="#m0e53e9a10f" x="375.836956" y="307.584" style="stroke: #000000; stroke-width: 0.8"/>
      </g>
     </g>
     <g id="text_5">
      <!-- 200 -->
      <g transform="translate(366.293206 322.182437) scale(0.1 -0.1)">
       <defs>
        <path id="DejaVuSans-32" d="M 1228 531 
L 3431 531 
L 3431 0 
L 469 0 
L 469 531 
Q 828 903 1448 1529 
Q 2069 2156 2228 2338 
Q 2531 2678 2651 2914 
Q 2772 3150 2772 3378 
Q 2772 3750 2511 3984 
Q 2250 4219 1831 4219 
Q 1534 4219 1204 4116 
Q 875 4013 500 3803 
L 500 4441 
Q 881 4594 1212 4672 
Q 1544 4750 1819 4750 
Q 2544 4750 2975 4387 
Q 3406 4025 3406 3419 
Q 3406 3131 3298 2873 
Q 3191 2616 2906 2266 
Q 2828 2175 2409 1742 
Q 1991 1309 1228 531 
z
" transform="scale(0.015625)"/>
       </defs>
       <use xlink:href="#DejaVuSans-32"/>
       <use xlink:href="#DejaVuSans-30" x="63.623047"/>
       <use xlink:href="#DejaVuSans-30" x="127.246094"/>
      </g>
     </g>
    </g>
   </g>
   <g id="matplotlib.axis_2">
    <g id="ytick_1">
     <g id="line2d_6">
      <defs>
       <path id="m3aa71f2222" d="M 0 0 
L -3.5 0 
" style="stroke: #000000; stroke-width: 0.8"/>
      </defs>
      <g>
       <use xlink:href="#m3aa71f2222" x="57.6" y="293.814442" style="stroke: #000000; stroke-width: 0.8"/>
      </g>
     </g>
     <g id="text_6">
      <!-- −1500 -->
      <g transform="translate(16.770313 297.613661) scale(0.1 -0.1)">
       <defs>
        <path id="DejaVuSans-2212" d="M 678 2272 
L 4684 2272 
L 4684 1741 
L 678 1741 
L 678 2272 
z
" transform="scale(0.015625)"/>
       </defs>
       <use xlink:href="#DejaVuSans-2212"/>
       <use xlink:href="#DejaVuSans-31" x="83.789062"/>
       <use xlink:href="#DejaVuSans-35" x="147.412109"/>
       <use xlink:href="#DejaVuSans-30" x="211.035156"/>
       <use xlink:href="#DejaVuSans-30" x="274.658203"/>
      </g>
     </g>
    </g>
    <g id="ytick_2">
     <g id="line2d_7">
      <g>
       <use xlink:href="#m3aa71f2222" x="57.6" y="255.521914" style="stroke: #000000; stroke-width: 0.8"/>
      </g>
     </g>
     <g id="text_7">
      <!-- −1000 -->
      <g transform="translate(16.770313 259.321133) scale(0.1 -0.1)">
       <use xlink:href="#DejaVuSans-2212"/>
       <use xlink:href="#DejaVuSans-31" x="83.789062"/>
       <use xlink:href="#DejaVuSans-30" x="147.412109"/>
       <use xlink:href="#DejaVuSans-30" x="211.035156"/>
       <use xlink:href="#DejaVuSans-30" x="274.658203"/>
      </g>
     </g>
    </g>
    <g id="ytick_3">
     <g id="line2d_8">
      <g>
       <use xlink:href="#m3aa71f2222" x="57.6" y="217.229387" style="stroke: #000000; stroke-width: 0.8"/>
      </g>
     </g>
     <g id="text_8">
      <!-- −500 -->
      <g transform="translate(23.132812 221.028606) scale(0.1 -0.1)">
       <use xlink:href="#DejaVuSans-2212"/>
       <use xlink:href="#DejaVuSans-35" x="83.789062"/>
       <use xlink:href="#DejaVuSans-30" x="147.412109"/>
       <use xlink:href="#DejaVuSans-30" x="211.035156"/>
      </g>
     </g>
    </g>
    <g id="ytick_4">
     <g id="line2d_9">
      <g>
       <use xlink:href="#m3aa71f2222" x="57.6" y="178.936859" style="stroke: #000000; stroke-width: 0.8"/>
      </g>
     </g>
     <g id="text_9">
      <!-- 0 -->
      <g transform="translate(44.2375 182.736078) scale(0.1 -0.1)">
       <use xlink:href="#DejaVuSans-30"/>
      </g>
     </g>
    </g>
    <g id="ytick_5">
     <g id="line2d_10">
      <g>
       <use xlink:href="#m3aa71f2222" x="57.6" y="140.644332" style="stroke: #000000; stroke-width: 0.8"/>
      </g>
     </g>
     <g id="text_10">
      <!-- 500 -->
      <g transform="translate(31.5125 144.44355) scale(0.1 -0.1)">
       <use xlink:href="#DejaVuSans-35"/>
       <use xlink:href="#DejaVuSans-30" x="63.623047"/>
       <use xlink:href="#DejaVuSans-30" x="127.246094"/>
      </g>
     </g>
    </g>
    <g id="ytick_6">
     <g id="line2d_11">
      <g>
       <use xlink:href="#m3aa71f2222" x="57.6" y="102.351804" style="stroke: #000000; stroke-width: 0.8"/>
      </g>
     </g>
     <g id="text_11">
      <!-- 1000 -->
      <g transform="translate(25.15 106.151023) scale(0.1 -0.1)">
       <use xlink:href="#DejaVuSans-31"/>
       <use xlink:href="#DejaVuSans-30" x="63.623047"/>
       <use xlink:href="#DejaVuSans-30" x="127.246094"/>
       <use xlink:href="#DejaVuSans-30" x="190.869141"/>
      </g>
     </g>
    </g>
    <g id="ytick_7">
     <g id="line2d_12">
      <g>
       <use xlink:href="#m3aa71f2222" x="57.6" y="64.059276" style="stroke: #000000; stroke-width: 0.8"/>
      </g>
     </g>
     <g id="text_12">
      <!-- 1500 -->
      <g transform="translate(25.15 67.858495) scale(0.1 -0.1)">
       <use xlink:href="#DejaVuSans-31"/>
       <use xlink:href="#DejaVuSans-35" x="63.623047"/>
       <use xlink:href="#DejaVuSans-30" x="127.246094"/>
       <use xlink:href="#DejaVuSans-30" x="190.869141"/>
      </g>
     </g>
    </g>
   </g>
   <g id="line2d_13">
    <path d="M 73.832727 179.771636 
L 75.342748 181.80114 
L 76.85277 181.409706 
L 78.362791 181.320356 
L 79.872812 181.014016 
L 81.382833 180.477921 
L 82.892854 181.128894 
L 84.402875 180.554506 
L 85.912896 182.966935 
L 87.422918 186.298385 
L 88.932939 188.902277 
L 90.44296 181.473526 
L 91.952981 179.777448 
L 93.463002 178.475502 
L 94.973023 181.538904 
L 96.483044 182.113292 
L 97.993066 182.496217 
L 99.503087 184.066211 
L 101.013108 184.653363 
L 102.523129 185.112873 
L 104.03315 184.10195 
L 105.543171 185.02863 
L 107.053192 183.726684 
L 108.563214 183.0438 
L 110.073235 183.005508 
L 111.583256 184.05217 
L 113.093277 184.435095 
L 114.603298 183.944951 
L 116.113319 183.689668 
L 117.62334 183.613082 
L 119.133362 183.868366 
L 120.643383 183.791781 
L 122.153404 182.995296 
L 123.663425 183.071881 
L 125.173446 183.607977 
L 126.683467 183.812204 
L 128.193488 187.871212 
L 129.70351 188.943402 
L 131.213531 186.109755 
L 132.723552 187.296824 
L 134.233573 187.718041 
L 137.253615 186.454388 
L 138.763636 186.883264 
L 140.273658 186.959849 
L 141.783679 187.41936 
L 144.803721 189.785838 
L 146.313742 189.402913 
L 147.823763 190.551688 
L 149.333784 190.819736 
L 150.843805 191.202661 
L 152.353827 190.053886 
L 153.863848 188.75194 
L 155.373869 189.548903 
L 156.88389 188.89793 
L 158.393911 187.312169 
L 159.903932 190.605326 
L 161.413953 192.366782 
L 162.923975 192.890114 
L 165.944017 189.769764 
L 167.454038 189.769764 
L 168.964059 189.999519 
L 170.47408 189.463423 
L 171.984101 191.473781 
L 173.494123 190.631345 
L 175.004144 192.456623 
L 176.514165 191.920527 
L 178.024186 192.41833 
L 179.534207 191.920527 
L 181.044228 192.854865 
L 182.554249 194.386566 
L 184.064271 194.279347 
L 185.574292 196.203546 
L 187.084313 196.356717 
L 188.594334 195.386639 
L 190.104355 193.663475 
L 191.614376 193.795372 
L 193.124397 192.991229 
L 194.634419 192.608304 
L 196.14444 194.82927 
L 197.654461 194.471873 
L 199.164482 196.858774 
L 200.674503 198.505353 
L 202.184524 198.684051 
L 203.694545 200.368922 
L 205.204567 198.837221 
L 206.714588 197.551687 
L 208.224609 197.589979 
L 209.73463 198.087782 
L 211.244651 200.487447 
L 212.754672 203.206216 
L 214.264693 202.185082 
L 215.774715 203.867701 
L 217.284736 203.063558 
L 218.794757 201.263809 
L 220.304778 202.18283 
L 221.814799 201.685027 
L 223.32482 204.722901 
L 224.834841 204.263391 
L 226.344863 205.144119 
L 229.364905 202.923152 
L 230.874926 203.880465 
L 232.384947 204.493146 
L 233.894968 204.588877 
L 235.404989 206.541796 
L 236.915011 212.561381 
L 238.425032 210.088778 
L 239.935053 209.431678 
L 241.445074 210.388991 
L 242.955095 211.563296 
L 244.465116 209.916717 
L 245.975137 215.645279 
L 247.485159 213.654068 
L 248.99518 216.082908 
L 250.505201 213.45987 
L 252.015222 215.091924 
L 253.525243 216.2407 
L 255.035264 219.840197 
L 256.545285 217.561792 
L 258.055307 216.422972 
L 259.565328 216.269802 
L 261.075349 216.856954 
L 262.58537 216.129396 
L 264.095391 218.151241 
L 265.605412 222.554882 
L 267.115433 217.040758 
L 268.625455 217.44283 
L 270.135476 218.170388 
L 271.645497 221.578423 
L 273.155518 220.697695 
L 274.665539 222.950572 
L 276.17556 222.069843 
L 277.685581 223.623426 
L 279.195603 223.929766 
L 280.705624 221.70029 
L 282.215645 224.196062 
L 283.725666 225.766056 
L 285.235687 232.086338 
L 286.745708 235.333544 
L 288.255729 234.337939 
L 289.765751 234.184769 
L 291.275772 232.040387 
L 292.785793 235.486715 
L 294.295814 240.885961 
L 295.805835 233.686966 
L 298.825877 230.869668 
L 300.335899 230.256988 
L 301.84592 230.907961 
L 303.355941 232.133322 
L 304.865962 235.630706 
L 306.375983 235.400951 
L 307.886004 233.294862 
L 309.396025 231.533405 
L 312.416068 238.387768 
L 313.926089 238.604759 
L 315.43611 241.974501 
L 316.946131 241.460287 
L 318.456152 239.724359 
L 319.966173 240.756662 
L 321.476195 239.480245 
L 322.986216 238.520958 
L 324.496237 237.984862 
L 326.006258 238.71242 
L 327.516279 240.129244 
L 329.0263 239.618677 
L 330.536321 242.248097 
L 332.046342 249.830017 
L 333.556364 250.212943 
L 335.066385 246.307105 
L 336.576406 244.484154 
L 338.086427 245.671223 
L 339.596448 244.62456 
L 341.106469 246.36687 
L 342.61649 252.838307 
L 344.126512 251.025794 
L 345.636533 252.251155 
L 347.146554 255.276265 
L 348.656575 256.910079 
L 350.166596 254.459358 
L 351.676617 257.12591 
L 353.186638 255.287869 
L 354.69666 254.315828 
L 356.206681 254.698753 
L 357.716702 255.796472 
L 359.226723 255.700741 
L 360.736744 257.615367 
L 362.246765 259.759749 
L 363.756786 266.09078 
L 365.266808 269.912374 
L 366.776829 283.201705 
L 368.28685 286.007503 
L 369.796871 279.344603 
L 371.306892 274.109709 
L 372.816913 276.713601 
L 377.346977 279.12603 
L 378.856998 282.840406 
L 380.367019 283.504143 
L 381.87704 281.461875 
L 383.387061 281.793743 
L 384.897082 284.01471 
L 386.407104 284.576333 
L 387.917125 284.44231 
L 389.427146 288.377603 
L 390.937167 288.109556 
L 392.447188 287.57346 
L 393.957209 286.309807 
L 395.46723 286.553077 
L 396.977252 292.794759 
L 398.487273 295.488 
L 398.487273 295.488 
" clip-path="url(#p64fe8fa848)" style="fill: none; stroke: #1f77b4; stroke-opacity: 0.7; stroke-width: 1.5; stroke-linecap: square"/>
   </g>
   <g id="line2d_14">
    <path d="M 73.832727 178.687958 
L 75.342748 180.506853 
L 78.362791 178.23483 
L 79.872812 177.928489 
L 81.382833 176.741421 
L 82.892854 177.583857 
L 84.402875 176.205326 
L 85.912896 178.54117 
L 88.932939 185.466226 
L 90.44296 179.339422 
L 93.463002 171.310755 
L 94.973023 172.019167 
L 96.483044 170.80657 
L 97.993066 170.021573 
L 99.503087 170.702329 
L 101.013108 170.855499 
L 102.523129 171.31501 
L 104.03315 169.706724 
L 105.543171 169.821601 
L 107.053192 168.002706 
L 108.563214 166.611411 
L 110.073235 165.99873 
L 111.583256 167.070921 
L 113.093277 167.581488 
L 114.603298 166.363786 
L 117.62334 164.382438 
L 119.133362 164.688778 
L 120.643383 164.459023 
L 122.153404 163.578295 
L 123.663425 163.450653 
L 125.173446 163.756993 
L 126.683467 163.756993 
L 128.193488 167.816001 
L 129.70351 168.380115 
L 131.213531 164.397692 
L 132.723552 164.423221 
L 134.233573 163.523346 
L 135.743594 162.834081 
L 137.253615 161.91506 
L 138.763636 161.991645 
L 140.273658 161.340672 
L 141.783679 161.442786 
L 143.2937 162.153933 
L 144.803721 163.035412 
L 146.313742 162.767364 
L 147.823763 163.724677 
L 150.843805 164.286301 
L 152.353827 163.290695 
L 153.863848 161.414361 
L 155.373869 161.465418 
L 156.88389 160.201765 
L 158.393911 157.772924 
L 159.903932 159.476942 
L 161.413953 160.798034 
L 162.923975 159.572673 
L 164.433996 157.224065 
L 165.944017 154.543588 
L 167.454038 152.858717 
L 168.964059 151.454657 
L 170.47408 149.715082 
L 171.984101 150.490506 
L 173.494123 148.851586 
L 175.004144 150.000362 
L 176.514165 148.949058 
L 178.024186 148.68101 
L 179.534207 147.736461 
L 181.044228 148.25341 
L 182.554249 149.225839 
L 184.064271 148.306818 
L 185.574292 149.608764 
L 187.084313 149.634293 
L 188.594334 148.140884 
L 190.104355 146.149672 
L 191.614376 145.65187 
L 193.124397 143.951681 
L 194.634419 142.688028 
L 196.14444 144.83241 
L 197.654461 143.678291 
L 200.674503 147.268215 
L 202.184524 145.736514 
L 203.694545 146.57895 
L 205.204567 144.702616 
L 206.714588 142.519942 
L 208.224609 141.600921 
L 209.73463 141.141411 
L 211.244651 143.324085 
L 212.754672 145.230202 
L 214.264693 142.396555 
L 215.774715 143.277283 
L 217.284736 141.688143 
L 218.794757 139.275714 
L 220.304778 139.275714 
L 221.814799 137.973768 
L 223.32482 139.75437 
L 224.834841 139.1507 
L 226.344863 138.84436 
L 227.854884 137.772169 
L 229.364905 135.991566 
L 230.874926 135.792445 
L 232.384947 135.37819 
L 233.894968 134.59902 
L 235.404989 135.996697 
L 236.915011 141.60245 
L 238.425032 136.011741 
L 239.935053 133.446141 
L 241.445074 134.403454 
L 242.955095 133.729506 
L 244.465116 131.470247 
L 245.975137 136.06535 
L 247.485159 134.399625 
L 248.99518 134.705965 
L 250.505201 130.161919 
L 252.015222 131.923375 
L 253.525243 131.586401 
L 255.035264 135.185898 
L 256.545285 130.999249 
L 258.055307 128.471942 
L 259.565328 126.250975 
L 261.075349 126.940241 
L 262.58537 126.212683 
L 264.095391 128.203894 
L 265.605412 131.600441 
L 267.115433 127.656311 
L 268.625455 126.507535 
L 270.135476 127.235093 
L 271.645497 130.049594 
L 273.155518 128.530657 
L 274.665539 129.296508 
L 276.17556 127.586108 
L 277.685581 128.160496 
L 279.195603 127.946058 
L 280.705624 124.997533 
L 282.215645 127.244028 
L 283.725666 128.249207 
L 285.235687 132.576263 
L 286.745708 132.703904 
L 288.255729 130.329768 
L 289.765751 128.59384 
L 291.275772 125.147512 
L 292.785793 125.836778 
L 294.295814 130.087248 
L 297.315856 119.748266 
L 298.825877 116.27641 
L 300.335899 115.740315 
L 301.84592 116.659335 
L 306.375983 118.859315 
L 309.396025 114.583316 
L 310.906047 116.785136 
L 312.416068 118.787835 
L 313.926089 116.030773 
L 315.43611 117.9454 
L 316.946131 115.264923 
L 318.456152 113.043956 
L 319.966173 112.788673 
L 321.476195 110.097255 
L 322.986216 107.742265 
L 324.496237 105.751053 
L 326.006258 104.380181 
L 327.516279 105.299201 
L 329.0263 103.844085 
L 330.536321 106.026759 
L 332.046342 112.940301 
L 333.556364 108.957878 
L 335.066385 101.529128 
L 336.576406 97.725403 
L 338.086427 98.912472 
L 339.596448 95.070455 
L 341.106469 94.304604 
L 342.61649 99.512388 
L 344.126512 97.115836 
L 345.636533 95.81389 
L 347.146554 98.839 
L 348.656575 99.413388 
L 350.166596 95.545843 
L 351.676617 96.949902 
L 353.186638 94.236603 
L 356.206681 91.020031 
L 357.716702 90.415009 
L 359.226723 88.945968 
L 360.736744 89.590559 
L 362.246765 90.996545 
L 363.756786 96.472376 
L 365.266808 95.936281 
L 366.776829 104.092589 
L 368.28685 99.650656 
L 369.796871 88.04802 
L 371.306892 78.015378 
L 372.816913 74.243564 
L 374.326934 70.153922 
L 377.346977 63.469749 
L 378.856998 64.365794 
L 380.367019 61.90869 
L 381.87704 59.075043 
L 383.387061 57.951795 
L 384.897082 57.5634 
L 386.407104 57.440864 
L 387.917125 55.909163 
L 389.427146 58.947036 
L 390.937167 58.424769 
L 392.447188 56.739898 
L 393.957209 54.621045 
L 395.46723 53.568 
L 396.977252 59.541634 
L 398.487273 60.943041 
L 398.487273 60.943041 
" clip-path="url(#p64fe8fa848)" style="fill: none; stroke: #ff7f0e; stroke-opacity: 0.7; stroke-width: 1.5; stroke-linecap: square"/>
   </g>
   <g id="line2d_15">
    <path d="M 73.832727 179.229797 
L 75.342748 181.153997 
L 76.85277 180.396655 
L 78.362791 179.777593 
L 79.872812 179.471253 
L 81.382833 178.609671 
L 82.892854 179.356375 
L 84.402875 178.379916 
L 85.912896 180.754052 
L 88.932939 187.184251 
L 90.44296 180.406474 
L 91.952981 177.471492 
L 93.463002 174.893128 
L 94.973023 176.779035 
L 96.483044 176.459931 
L 97.993066 176.258895 
L 99.503087 177.38427 
L 102.523129 178.213941 
L 104.03315 176.904337 
L 105.543171 177.425115 
L 107.053192 175.864695 
L 108.563214 174.827606 
L 110.073235 174.502119 
L 111.583256 175.561546 
L 113.093277 176.008292 
L 114.603298 175.154368 
L 117.62334 173.99776 
L 119.133362 174.278572 
L 120.643383 174.125402 
L 122.153404 173.286795 
L 123.663425 173.261267 
L 125.173446 173.682485 
L 126.683467 173.784598 
L 128.193488 177.843606 
L 129.70351 178.661759 
L 131.213531 175.253724 
L 132.723552 175.860022 
L 134.233573 175.620694 
L 137.253615 174.184724 
L 138.763636 174.437455 
L 140.273658 174.150261 
L 141.783679 174.431073 
L 144.803721 176.410625 
L 146.313742 176.085138 
L 147.823763 177.138183 
L 150.843805 177.744481 
L 152.353827 176.67229 
L 153.863848 175.08315 
L 155.373869 175.50716 
L 156.88389 174.549847 
L 158.393911 172.542547 
L 159.903932 175.041134 
L 161.413953 176.582408 
L 162.923975 176.231393 
L 164.433996 174.291239 
L 165.944017 172.156676 
L 167.454038 171.31424 
L 168.964059 170.727088 
L 170.47408 169.589253 
L 171.984101 170.982144 
L 173.494123 169.741466 
L 175.004144 171.228492 
L 176.514165 170.434793 
L 178.024186 170.54967 
L 179.534207 169.828494 
L 181.044228 170.554138 
L 182.554249 171.806202 
L 184.064271 171.293083 
L 185.574292 172.906155 
L 187.084313 172.995505 
L 188.594334 171.763762 
L 190.104355 169.906574 
L 191.614376 169.723621 
L 193.124397 168.471455 
L 194.634419 167.648166 
L 196.14444 169.83084 
L 197.654461 169.075082 
L 199.164482 171.14926 
L 200.674503 172.886784 
L 202.184524 172.210283 
L 203.694545 173.473936 
L 206.714588 170.035814 
L 208.224609 169.59545 
L 209.73463 169.614596 
L 212.754672 174.218209 
L 214.264693 172.290818 
L 215.774715 173.572492 
L 217.284736 172.37585 
L 218.794757 170.269761 
L 220.304778 170.729272 
L 221.814799 169.829397 
L 223.32482 172.238636 
L 224.834841 171.707045 
L 226.344863 171.994239 
L 227.854884 170.922048 
L 229.364905 169.457359 
L 230.874926 169.836455 
L 232.384947 169.935668 
L 233.894968 169.593948 
L 235.404989 171.269247 
L 236.915011 177.081915 
L 238.425032 173.050259 
L 239.935053 171.43891 
L 241.445074 172.396223 
L 242.955095 172.646401 
L 244.465116 170.693482 
L 245.975137 175.855315 
L 247.485159 174.026846 
L 248.99518 175.394437 
L 250.505201 171.810894 
L 252.015222 173.507649 
L 253.525243 173.91355 
L 255.035264 177.513048 
L 256.545285 174.28052 
L 258.055307 172.447457 
L 259.565328 171.260389 
L 261.075349 171.898597 
L 262.58537 171.171039 
L 264.095391 173.177568 
L 265.605412 177.077662 
L 267.115433 172.348535 
L 268.625455 171.975182 
L 270.135476 172.70274 
L 271.645497 175.814008 
L 273.155518 174.614176 
L 274.665539 176.12354 
L 276.17556 174.827976 
L 277.685581 175.891961 
L 279.195603 175.937912 
L 280.705624 173.348912 
L 282.215645 175.720045 
L 283.725666 177.007631 
L 285.235687 182.3313 
L 286.745708 184.018724 
L 288.255729 182.333853 
L 289.765751 181.389304 
L 291.275772 178.59395 
L 292.785793 180.661746 
L 294.295814 185.486605 
L 295.805835 179.20663 
L 297.315856 176.02835 
L 298.825877 173.573039 
L 300.335899 172.998651 
L 301.84592 173.783648 
L 303.355941 174.779254 
L 304.865962 176.969783 
L 306.375983 177.130133 
L 309.396025 173.058361 
L 312.416068 178.587802 
L 313.926089 177.317766 
L 315.43611 179.95995 
L 316.946131 178.362605 
L 318.456152 176.384158 
L 319.966173 176.772667 
L 321.476195 174.78875 
L 322.986216 173.131611 
L 324.496237 171.867958 
L 326.006258 171.5463 
L 327.516279 172.714222 
L 329.0263 171.731381 
L 330.536321 174.137428 
L 332.046342 181.385159 
L 333.556364 179.58541 
L 335.066385 173.918116 
L 336.576406 171.104779 
L 338.086427 172.291847 
L 339.596448 169.847507 
L 341.106469 170.335737 
L 342.61649 176.175348 
L 344.126512 174.070815 
L 345.636533 174.032523 
L 347.146554 177.057632 
L 348.656575 178.161734 
L 350.166596 175.0026 
L 351.676617 177.037906 
L 353.186638 174.762236 
L 354.69666 173.472072 
L 356.206681 172.859392 
L 357.716702 173.10574 
L 359.226723 172.323354 
L 360.736744 173.602963 
L 362.246765 175.378147 
L 363.756786 181.281578 
L 365.266808 182.924328 
L 366.776829 193.647147 
L 368.28685 192.829079 
L 369.796871 183.696311 
L 371.306892 176.062544 
L 372.816913 175.478583 
L 374.326934 173.835833 
L 377.346977 171.297889 
L 378.856998 173.6031 
L 380.367019 172.706416 
L 381.87704 170.268459 
L 383.387061 169.872769 
L 384.897082 170.789055 
L 386.407104 171.008599 
L 387.917125 170.175736 
L 389.427146 173.66232 
L 390.937167 173.267162 
L 392.447188 172.156679 
L 393.957209 170.465426 
L 395.46723 170.060538 
L 396.977252 176.168197 
L 398.487273 178.215521 
L 398.487273 178.215521 
" clip-path="url(#p64fe8fa848)" style="fill: none; stroke: #2ca02c; stroke-opacity: 0.7; stroke-width: 1.5; stroke-linecap: square"/>
   </g>
   <g id="patch_3">
    <path d="M 57.6 307.584 
L 57.6 41.472 
" style="fill: none; stroke: #000000; stroke-width: 0.8; stroke-linejoin: miter; stroke-linecap: square"/>
   </g>
   <g id="patch_4">
    <path d="M 414.72 307.584 
L 414.72 41.472 
" style="fill: none; stroke: #000000; stroke-width: 0.8; stroke-linejoin: miter; stroke-linecap: square"/>
   </g>
   <g id="patch_5">
    <path d="M 57.6 307.584 
L 414.72 307.584 
" style="fill: none; stroke: #000000; stroke-width: 0.8; stroke-linejoin: miter; stroke-linecap: square"/>
   </g>
   <g id="patch_6">
    <path d="M 57.6 41.472 
L 414.72 41.472 
" style="fill: none; stroke: #000000; stroke-width: 0.8; stroke-linejoin: miter; stroke-linecap: square"/>
   </g>
   <g id="text_13">
    <!-- zhang_adamic_adar_cci -->
    <g transform="translate(165.0525 35.472) scale(0.12 -0.12)">
     <defs>
      <path id="DejaVuSans-7a" d="M 353 3500 
L 3084 3500 
L 3084 2975 
L 922 459 
L 3084 459 
L 3084 0 
L 275 0 
L 275 525 
L 2438 3041 
L 353 3041 
L 353 3500 
z
" transform="scale(0.015625)"/>
      <path id="DejaVuSans-68" d="M 3513 2113 
L 3513 0 
L 2938 0 
L 2938 2094 
Q 2938 2591 2744 2837 
Q 2550 3084 2163 3084 
Q 1697 3084 1428 2787 
Q 1159 2491 1159 1978 
L 1159 0 
L 581 0 
L 581 4863 
L 1159 4863 
L 1159 2956 
Q 1366 3272 1645 3428 
Q 1925 3584 2291 3584 
Q 2894 3584 3203 3211 
Q 3513 2838 3513 2113 
z
" transform="scale(0.015625)"/>
      <path id="DejaVuSans-61" d="M 2194 1759 
Q 1497 1759 1228 1600 
Q 959 1441 959 1056 
Q 959 750 1161 570 
Q 1363 391 1709 391 
Q 2188 391 2477 730 
Q 2766 1069 2766 1631 
L 2766 1759 
L 2194 1759 
z
M 3341 1997 
L 3341 0 
L 2766 0 
L 2766 531 
Q 2569 213 2275 61 
Q 1981 -91 1556 -91 
Q 1019 -91 701 211 
Q 384 513 384 1019 
Q 384 1609 779 1909 
Q 1175 2209 1959 2209 
L 2766 2209 
L 2766 2266 
Q 2766 2663 2505 2880 
Q 2244 3097 1772 3097 
Q 1472 3097 1187 3025 
Q 903 2953 641 2809 
L 641 3341 
Q 956 3463 1253 3523 
Q 1550 3584 1831 3584 
Q 2591 3584 2966 3190 
Q 3341 2797 3341 1997 
z
" transform="scale(0.015625)"/>
      <path id="DejaVuSans-6e" d="M 3513 2113 
L 3513 0 
L 2938 0 
L 2938 2094 
Q 2938 2591 2744 2837 
Q 2550 3084 2163 3084 
Q 1697 3084 1428 2787 
Q 1159 2491 1159 1978 
L 1159 0 
L 581 0 
L 581 3500 
L 1159 3500 
L 1159 2956 
Q 1366 3272 1645 3428 
Q 1925 3584 2291 3584 
Q 2894 3584 3203 3211 
Q 3513 2838 3513 2113 
z
" transform="scale(0.015625)"/>
      <path id="DejaVuSans-67" d="M 2906 1791 
Q 2906 2416 2648 2759 
Q 2391 3103 1925 3103 
Q 1463 3103 1205 2759 
Q 947 2416 947 1791 
Q 947 1169 1205 825 
Q 1463 481 1925 481 
Q 2391 481 2648 825 
Q 2906 1169 2906 1791 
z
M 3481 434 
Q 3481 -459 3084 -895 
Q 2688 -1331 1869 -1331 
Q 1566 -1331 1297 -1286 
Q 1028 -1241 775 -1147 
L 775 -588 
Q 1028 -725 1275 -790 
Q 1522 -856 1778 -856 
Q 2344 -856 2625 -561 
Q 2906 -266 2906 331 
L 2906 616 
Q 2728 306 2450 153 
Q 2172 0 1784 0 
Q 1141 0 747 490 
Q 353 981 353 1791 
Q 353 2603 747 3093 
Q 1141 3584 1784 3584 
Q 2172 3584 2450 3431 
Q 2728 3278 2906 2969 
L 2906 3500 
L 3481 3500 
L 3481 434 
z
" transform="scale(0.015625)"/>
      <path id="DejaVuSans-5f" d="M 3263 -1063 
L 3263 -1509 
L -63 -1509 
L -63 -1063 
L 3263 -1063 
z
" transform="scale(0.015625)"/>
      <path id="DejaVuSans-64" d="M 2906 2969 
L 2906 4863 
L 3481 4863 
L 3481 0 
L 2906 0 
L 2906 525 
Q 2725 213 2448 61 
Q 2172 -91 1784 -91 
Q 1150 -91 751 415 
Q 353 922 353 1747 
Q 353 2572 751 3078 
Q 1150 3584 1784 3584 
Q 2172 3584 2448 3432 
Q 2725 3281 2906 2969 
z
M 947 1747 
Q 947 1113 1208 752 
Q 1469 391 1925 391 
Q 2381 391 2643 752 
Q 2906 1113 2906 1747 
Q 2906 2381 2643 2742 
Q 2381 3103 1925 3103 
Q 1469 3103 1208 2742 
Q 947 2381 947 1747 
z
" transform="scale(0.015625)"/>
      <path id="DejaVuSans-6d" d="M 3328 2828 
Q 3544 3216 3844 3400 
Q 4144 3584 4550 3584 
Q 5097 3584 5394 3201 
Q 5691 2819 5691 2113 
L 5691 0 
L 5113 0 
L 5113 2094 
Q 5113 2597 4934 2840 
Q 4756 3084 4391 3084 
Q 3944 3084 3684 2787 
Q 3425 2491 3425 1978 
L 3425 0 
L 2847 0 
L 2847 2094 
Q 2847 2600 2669 2842 
Q 2491 3084 2119 3084 
Q 1678 3084 1418 2786 
Q 1159 2488 1159 1978 
L 1159 0 
L 581 0 
L 581 3500 
L 1159 3500 
L 1159 2956 
Q 1356 3278 1631 3431 
Q 1906 3584 2284 3584 
Q 2666 3584 2933 3390 
Q 3200 3197 3328 2828 
z
" transform="scale(0.015625)"/>
      <path id="DejaVuSans-69" d="M 603 3500 
L 1178 3500 
L 1178 0 
L 603 0 
L 603 3500 
z
M 603 4863 
L 1178 4863 
L 1178 4134 
L 603 4134 
L 603 4863 
z
" transform="scale(0.015625)"/>
      <path id="DejaVuSans-63" d="M 3122 3366 
L 3122 2828 
Q 2878 2963 2633 3030 
Q 2388 3097 2138 3097 
Q 1578 3097 1268 2742 
Q 959 2388 959 1747 
Q 959 1106 1268 751 
Q 1578 397 2138 397 
Q 2388 397 2633 464 
Q 2878 531 3122 666 
L 3122 134 
Q 2881 22 2623 -34 
Q 2366 -91 2075 -91 
Q 1284 -91 818 406 
Q 353 903 353 1747 
Q 353 2603 823 3093 
Q 1294 3584 2113 3584 
Q 2378 3584 2631 3529 
Q 2884 3475 3122 3366 
z
" transform="scale(0.015625)"/>
      <path id="DejaVuSans-72" d="M 2631 2963 
Q 2534 3019 2420 3045 
Q 2306 3072 2169 3072 
Q 1681 3072 1420 2755 
Q 1159 2438 1159 1844 
L 1159 0 
L 581 0 
L 581 3500 
L 1159 3500 
L 1159 2956 
Q 1341 3275 1631 3429 
Q 1922 3584 2338 3584 
Q 2397 3584 2469 3576 
Q 2541 3569 2628 3553 
L 2631 2963 
z
" transform="scale(0.015625)"/>
     </defs>
     <use xlink:href="#DejaVuSans-7a"/>
     <use xlink:href="#DejaVuSans-68" x="52.490234"/>
     <use xlink:href="#DejaVuSans-61" x="115.869141"/>
     <use xlink:href="#DejaVuSans-6e" x="177.148438"/>
     <use xlink:href="#DejaVuSans-67" x="240.527344"/>
     <use xlink:href="#DejaVuSans-5f" x="304.003906"/>
     <use xlink:href="#DejaVuSans-61" x="354.003906"/>
     <use xlink:href="#DejaVuSans-64" x="415.283203"/>
     <use xlink:href="#DejaVuSans-61" x="478.759766"/>
     <use xlink:href="#DejaVuSans-6d" x="540.039062"/>
     <use xlink:href="#DejaVuSans-69" x="637.451172"/>
     <use xlink:href="#DejaVuSans-63" x="665.234375"/>
     <use xlink:href="#DejaVuSans-5f" x="720.214844"/>
     <use xlink:href="#DejaVuSans-61" x="770.214844"/>
     <use xlink:href="#DejaVuSans-64" x="831.494141"/>
     <use xlink:href="#DejaVuSans-61" x="894.970703"/>
     <use xlink:href="#DejaVuSans-72" x="956.25"/>
     <use xlink:href="#DejaVuSans-5f" x="997.363281"/>
     <use xlink:href="#DejaVuSans-63" x="1047.363281"/>
     <use xlink:href="#DejaVuSans-63" x="1102.34375"/>
     <use xlink:href="#DejaVuSans-69" x="1157.324219"/>
    </g>
   </g>
   <g id="legend_1">
    <g id="patch_7">
     <path d="M 64.6 93.506375 
L 258.804688 93.506375 
Q 260.804688 93.506375 260.804688 91.506375 
L 260.804688 48.472 
Q 260.804688 46.472 258.804688 46.472 
L 64.6 46.472 
Q 62.6 46.472 62.6 48.472 
L 62.6 91.506375 
Q 62.6 93.506375 64.6 93.506375 
z
" style="fill: #ffffff; opacity: 0.8; stroke: #cccccc; stroke-linejoin: miter"/>
    </g>
    <g id="line2d_16">
     <path d="M 66.6 54.570438 
L 76.6 54.570438 
L 86.6 54.570438 
" style="fill: none; stroke: #1f77b4; stroke-opacity: 0.7; stroke-width: 1.5; stroke-linecap: square"/>
    </g>
    <g id="text_14">
     <!-- Positive cumulative predictions -->
     <g transform="translate(94.6 58.070438) scale(0.1 -0.1)">
      <defs>
       <path id="DejaVuSans-50" d="M 1259 4147 
L 1259 2394 
L 2053 2394 
Q 2494 2394 2734 2622 
Q 2975 2850 2975 3272 
Q 2975 3691 2734 3919 
Q 2494 4147 2053 4147 
L 1259 4147 
z
M 628 4666 
L 2053 4666 
Q 2838 4666 3239 4311 
Q 3641 3956 3641 3272 
Q 3641 2581 3239 2228 
Q 2838 1875 2053 1875 
L 1259 1875 
L 1259 0 
L 628 0 
L 628 4666 
z
" transform="scale(0.015625)"/>
       <path id="DejaVuSans-6f" d="M 1959 3097 
Q 1497 3097 1228 2736 
Q 959 2375 959 1747 
Q 959 1119 1226 758 
Q 1494 397 1959 397 
Q 2419 397 2687 759 
Q 2956 1122 2956 1747 
Q 2956 2369 2687 2733 
Q 2419 3097 1959 3097 
z
M 1959 3584 
Q 2709 3584 3137 3096 
Q 3566 2609 3566 1747 
Q 3566 888 3137 398 
Q 2709 -91 1959 -91 
Q 1206 -91 779 398 
Q 353 888 353 1747 
Q 353 2609 779 3096 
Q 1206 3584 1959 3584 
z
" transform="scale(0.015625)"/>
       <path id="DejaVuSans-73" d="M 2834 3397 
L 2834 2853 
Q 2591 2978 2328 3040 
Q 2066 3103 1784 3103 
Q 1356 3103 1142 2972 
Q 928 2841 928 2578 
Q 928 2378 1081 2264 
Q 1234 2150 1697 2047 
L 1894 2003 
Q 2506 1872 2764 1633 
Q 3022 1394 3022 966 
Q 3022 478 2636 193 
Q 2250 -91 1575 -91 
Q 1294 -91 989 -36 
Q 684 19 347 128 
L 347 722 
Q 666 556 975 473 
Q 1284 391 1588 391 
Q 1994 391 2212 530 
Q 2431 669 2431 922 
Q 2431 1156 2273 1281 
Q 2116 1406 1581 1522 
L 1381 1569 
Q 847 1681 609 1914 
Q 372 2147 372 2553 
Q 372 3047 722 3315 
Q 1072 3584 1716 3584 
Q 2034 3584 2315 3537 
Q 2597 3491 2834 3397 
z
" transform="scale(0.015625)"/>
       <path id="DejaVuSans-74" d="M 1172 4494 
L 1172 3500 
L 2356 3500 
L 2356 3053 
L 1172 3053 
L 1172 1153 
Q 1172 725 1289 603 
Q 1406 481 1766 481 
L 2356 481 
L 2356 0 
L 1766 0 
Q 1100 0 847 248 
Q 594 497 594 1153 
L 594 3053 
L 172 3053 
L 172 3500 
L 594 3500 
L 594 4494 
L 1172 4494 
z
" transform="scale(0.015625)"/>
       <path id="DejaVuSans-76" d="M 191 3500 
L 800 3500 
L 1894 563 
L 2988 3500 
L 3597 3500 
L 2284 0 
L 1503 0 
L 191 3500 
z
" transform="scale(0.015625)"/>
       <path id="DejaVuSans-65" d="M 3597 1894 
L 3597 1613 
L 953 1613 
Q 991 1019 1311 708 
Q 1631 397 2203 397 
Q 2534 397 2845 478 
Q 3156 559 3463 722 
L 3463 178 
Q 3153 47 2828 -22 
Q 2503 -91 2169 -91 
Q 1331 -91 842 396 
Q 353 884 353 1716 
Q 353 2575 817 3079 
Q 1281 3584 2069 3584 
Q 2775 3584 3186 3129 
Q 3597 2675 3597 1894 
z
M 3022 2063 
Q 3016 2534 2758 2815 
Q 2500 3097 2075 3097 
Q 1594 3097 1305 2825 
Q 1016 2553 972 2059 
L 3022 2063 
z
" transform="scale(0.015625)"/>
       <path id="DejaVuSans-20" transform="scale(0.015625)"/>
       <path id="DejaVuSans-75" d="M 544 1381 
L 544 3500 
L 1119 3500 
L 1119 1403 
Q 1119 906 1312 657 
Q 1506 409 1894 409 
Q 2359 409 2629 706 
Q 2900 1003 2900 1516 
L 2900 3500 
L 3475 3500 
L 3475 0 
L 2900 0 
L 2900 538 
Q 2691 219 2414 64 
Q 2138 -91 1772 -91 
Q 1169 -91 856 284 
Q 544 659 544 1381 
z
M 1991 3584 
L 1991 3584 
z
" transform="scale(0.015625)"/>
       <path id="DejaVuSans-6c" d="M 603 4863 
L 1178 4863 
L 1178 0 
L 603 0 
L 603 4863 
z
" transform="scale(0.015625)"/>
       <path id="DejaVuSans-70" d="M 1159 525 
L 1159 -1331 
L 581 -1331 
L 581 3500 
L 1159 3500 
L 1159 2969 
Q 1341 3281 1617 3432 
Q 1894 3584 2278 3584 
Q 2916 3584 3314 3078 
Q 3713 2572 3713 1747 
Q 3713 922 3314 415 
Q 2916 -91 2278 -91 
Q 1894 -91 1617 61 
Q 1341 213 1159 525 
z
M 3116 1747 
Q 3116 2381 2855 2742 
Q 2594 3103 2138 3103 
Q 1681 3103 1420 2742 
Q 1159 2381 1159 1747 
Q 1159 1113 1420 752 
Q 1681 391 2138 391 
Q 2594 391 2855 752 
Q 3116 1113 3116 1747 
z
" transform="scale(0.015625)"/>
      </defs>
      <use xlink:href="#DejaVuSans-50"/>
      <use xlink:href="#DejaVuSans-6f" x="56.677734"/>
      <use xlink:href="#DejaVuSans-73" x="117.859375"/>
      <use xlink:href="#DejaVuSans-69" x="169.958984"/>
      <use xlink:href="#DejaVuSans-74" x="197.742188"/>
      <use xlink:href="#DejaVuSans-69" x="236.951172"/>
      <use xlink:href="#DejaVuSans-76" x="264.734375"/>
      <use xlink:href="#DejaVuSans-65" x="323.914062"/>
      <use xlink:href="#DejaVuSans-20" x="385.4375"/>
      <use xlink:href="#DejaVuSans-63" x="417.224609"/>
      <use xlink:href="#DejaVuSans-75" x="472.205078"/>
      <use xlink:href="#DejaVuSans-6d" x="535.583984"/>
      <use xlink:href="#DejaVuSans-75" x="632.996094"/>
      <use xlink:href="#DejaVuSans-6c" x="696.375"/>
      <use xlink:href="#DejaVuSans-61" x="724.158203"/>
      <use xlink:href="#DejaVuSans-74" x="785.4375"/>
      <use xlink:href="#DejaVuSans-69" x="824.646484"/>
      <use xlink:href="#DejaVuSans-76" x="852.429688"/>
      <use xlink:href="#DejaVuSans-65" x="911.609375"/>
      <use xlink:href="#DejaVuSans-20" x="973.132812"/>
      <use xlink:href="#DejaVuSans-70" x="1004.919922"/>
      <use xlink:href="#DejaVuSans-72" x="1068.396484"/>
      <use xlink:href="#DejaVuSans-65" x="1107.259766"/>
      <use xlink:href="#DejaVuSans-64" x="1168.783203"/>
      <use xlink:href="#DejaVuSans-69" x="1232.259766"/>
      <use xlink:href="#DejaVuSans-63" x="1260.042969"/>
      <use xlink:href="#DejaVuSans-74" x="1315.023438"/>
      <use xlink:href="#DejaVuSans-69" x="1354.232422"/>
      <use xlink:href="#DejaVuSans-6f" x="1382.015625"/>
      <use xlink:href="#DejaVuSans-6e" x="1443.197266"/>
      <use xlink:href="#DejaVuSans-73" x="1506.576172"/>
     </g>
    </g>
    <g id="line2d_17">
     <path d="M 66.6 69.248563 
L 76.6 69.248563 
L 86.6 69.248563 
" style="fill: none; stroke: #ff7f0e; stroke-opacity: 0.7; stroke-width: 1.5; stroke-linecap: square"/>
    </g>
    <g id="text_15">
     <!-- Negative cumulative predictions -->
     <g transform="translate(94.6 72.748563) scale(0.1 -0.1)">
      <defs>
       <path id="DejaVuSans-4e" d="M 628 4666 
L 1478 4666 
L 3547 763 
L 3547 4666 
L 4159 4666 
L 4159 0 
L 3309 0 
L 1241 3903 
L 1241 0 
L 628 0 
L 628 4666 
z
" transform="scale(0.015625)"/>
      </defs>
      <use xlink:href="#DejaVuSans-4e"/>
      <use xlink:href="#DejaVuSans-65" x="74.804688"/>
      <use xlink:href="#DejaVuSans-67" x="136.328125"/>
      <use xlink:href="#DejaVuSans-61" x="199.804688"/>
      <use xlink:href="#DejaVuSans-74" x="261.083984"/>
      <use xlink:href="#DejaVuSans-69" x="300.292969"/>
      <use xlink:href="#DejaVuSans-76" x="328.076172"/>
      <use xlink:href="#DejaVuSans-65" x="387.255859"/>
      <use xlink:href="#DejaVuSans-20" x="448.779297"/>
      <use xlink:href="#DejaVuSans-63" x="480.566406"/>
      <use xlink:href="#DejaVuSans-75" x="535.546875"/>
      <use xlink:href="#DejaVuSans-6d" x="598.925781"/>
      <use xlink:href="#DejaVuSans-75" x="696.337891"/>
      <use xlink:href="#DejaVuSans-6c" x="759.716797"/>
      <use xlink:href="#DejaVuSans-61" x="787.5"/>
      <use xlink:href="#DejaVuSans-74" x="848.779297"/>
      <use xlink:href="#DejaVuSans-69" x="887.988281"/>
      <use xlink:href="#DejaVuSans-76" x="915.771484"/>
      <use xlink:href="#DejaVuSans-65" x="974.951172"/>
      <use xlink:href="#DejaVuSans-20" x="1036.474609"/>
      <use xlink:href="#DejaVuSans-70" x="1068.261719"/>
      <use xlink:href="#DejaVuSans-72" x="1131.738281"/>
      <use xlink:href="#DejaVuSans-65" x="1170.601562"/>
      <use xlink:href="#DejaVuSans-64" x="1232.125"/>
      <use xlink:href="#DejaVuSans-69" x="1295.601562"/>
      <use xlink:href="#DejaVuSans-63" x="1323.384766"/>
      <use xlink:href="#DejaVuSans-74" x="1378.365234"/>
      <use xlink:href="#DejaVuSans-69" x="1417.574219"/>
      <use xlink:href="#DejaVuSans-6f" x="1445.357422"/>
      <use xlink:href="#DejaVuSans-6e" x="1506.539062"/>
      <use xlink:href="#DejaVuSans-73" x="1569.917969"/>
     </g>
    </g>
    <g id="line2d_18">
     <path d="M 66.6 83.926688 
L 76.6 83.926688 
L 86.6 83.926688 
" style="fill: none; stroke: #2ca02c; stroke-opacity: 0.7; stroke-width: 1.5; stroke-linecap: square"/>
    </g>
    <g id="text_16">
     <!-- Average cumulative predictions -->
     <g transform="translate(94.6 87.426688) scale(0.1 -0.1)">
      <defs>
       <path id="DejaVuSans-41" d="M 2188 4044 
L 1331 1722 
L 3047 1722 
L 2188 4044 
z
M 1831 4666 
L 2547 4666 
L 4325 0 
L 3669 0 
L 3244 1197 
L 1141 1197 
L 716 0 
L 50 0 
L 1831 4666 
z
" transform="scale(0.015625)"/>
      </defs>
      <use xlink:href="#DejaVuSans-41"/>
      <use xlink:href="#DejaVuSans-76" x="62.533203"/>
      <use xlink:href="#DejaVuSans-65" x="121.712891"/>
      <use xlink:href="#DejaVuSans-72" x="183.236328"/>
      <use xlink:href="#DejaVuSans-61" x="224.349609"/>
      <use xlink:href="#DejaVuSans-67" x="285.628906"/>
      <use xlink:href="#DejaVuSans-65" x="349.105469"/>
      <use xlink:href="#DejaVuSans-20" x="410.628906"/>
      <use xlink:href="#DejaVuSans-63" x="442.416016"/>
      <use xlink:href="#DejaVuSans-75" x="497.396484"/>
      <use xlink:href="#DejaVuSans-6d" x="560.775391"/>
      <use xlink:href="#DejaVuSans-75" x="658.1875"/>
      <use xlink:href="#DejaVuSans-6c" x="721.566406"/>
      <use xlink:href="#DejaVuSans-61" x="749.349609"/>
      <use xlink:href="#DejaVuSans-74" x="810.628906"/>
      <use xlink:href="#DejaVuSans-69" x="849.837891"/>
      <use xlink:href="#DejaVuSans-76" x="877.621094"/>
      <use xlink:href="#DejaVuSans-65" x="936.800781"/>
      <use xlink:href="#DejaVuSans-20" x="998.324219"/>
      <use xlink:href="#DejaVuSans-70" x="1030.111328"/>
      <use xlink:href="#DejaVuSans-72" x="1093.587891"/>
      <use xlink:href="#DejaVuSans-65" x="1132.451172"/>
      <use xlink:href="#DejaVuSans-64" x="1193.974609"/>
      <use xlink:href="#DejaVuSans-69" x="1257.451172"/>
      <use xlink:href="#DejaVuSans-63" x="1285.234375"/>
      <use xlink:href="#DejaVuSans-74" x="1340.214844"/>
      <use xlink:href="#DejaVuSans-69" x="1379.423828"/>
      <use xlink:href="#DejaVuSans-6f" x="1407.207031"/>
      <use xlink:href="#DejaVuSans-6e" x="1468.388672"/>
      <use xlink:href="#DejaVuSans-73" x="1531.767578"/>
     </g>
    </g>
   </g>
  </g>
 </g>
 <defs>
  <clipPath id="p64fe8fa848">
   <rect x="57.6" y="41.472" width="357.12" height="266.112"/>
  </clipPath>
 </defs>
</svg>
