<?xml version="1.0" encoding="utf-8" standalone="no"?>
<!DOCTYPE svg PUBLIC "-//W3C//DTD SVG 1.1//EN"
  "http://www.w3.org/Graphics/SVG/1.1/DTD/svg11.dtd">
<svg xmlns:xlink="http://www.w3.org/1999/xlink" width="460.8pt" height="345.6pt" viewBox="0 0 460.8 345.6" xmlns="http://www.w3.org/2000/svg" version="1.1">
 <metadata>
  <rdf:RDF xmlns:dc="http://purl.org/dc/elements/1.1/" xmlns:cc="http://creativecommons.org/ns#" xmlns:rdf="http://www.w3.org/1999/02/22-rdf-syntax-ns#">
   <cc:Work>
    <dc:type rdf:resource="http://purl.org/dc/dcmitype/StillImage"/>
    <dc:date>2024-08-20T21:53:57.374000</dc:date>
    <dc:format>image/svg+xml</dc:format>
    <dc:creator>
     <cc:Agent>
      <dc:title>Matplotlib v3.9.0, https://matplotlib.org/</dc:title>
     </cc:Agent>
    </dc:creator>
   </cc:Work>
  </rdf:RDF>
 </metadata>
 <defs>
  <style type="text/css">*{stroke-linejoin: round; stroke-linecap: butt}</style>
 </defs>
 <g id="figure_1">
  <g id="patch_1">
   <path d="M 0 345.6 
L 460.8 345.6 
L 460.8 0 
L 0 0 
z
" style="fill: #ffffff"/>
  </g>
  <g id="axes_1">
   <g id="patch_2">
    <path d="M 57.6 307.584 
L 414.72 307.584 
L 414.72 41.472 
L 57.6 41.472 
z
" style="fill: #ffffff"/>
   </g>
   <g id="matplotlib.axis_1">
    <g id="xtick_1">
     <g id="line2d_1">
      <defs>
       <path id="mbd553d367c" d="M 0 0 
L 0 3.5 
" style="stroke: #000000; stroke-width: 0.8"/>
      </defs>
      <g>
       <use xlink:href="#mbd553d367c" x="73.832727" y="307.584" style="stroke: #000000; stroke-width: 0.8"/>
      </g>
     </g>
     <g id="text_1">
      <!-- 0 -->
      <g transform="translate(70.651477 322.182437) scale(0.1 -0.1)">
       <defs>
        <path id="DejaVuSans-30" d="M 2034 4250 
Q 1547 4250 1301 3770 
Q 1056 3291 1056 2328 
Q 1056 1369 1301 889 
Q 1547 409 2034 409 
Q 2525 409 2770 889 
Q 3016 1369 3016 2328 
Q 3016 3291 2770 3770 
Q 2525 4250 2034 4250 
z
M 2034 4750 
Q 2819 4750 3233 4129 
Q 3647 3509 3647 2328 
Q 3647 1150 3233 529 
Q 2819 -91 2034 -91 
Q 1250 -91 836 529 
Q 422 1150 422 2328 
Q 422 3509 836 4129 
Q 1250 4750 2034 4750 
z
" transform="scale(0.015625)"/>
       </defs>
       <use xlink:href="#DejaVuSans-30"/>
      </g>
     </g>
    </g>
    <g id="xtick_2">
     <g id="line2d_2">
      <g>
       <use xlink:href="#mbd553d367c" x="149.333784" y="307.584" style="stroke: #000000; stroke-width: 0.8"/>
      </g>
     </g>
     <g id="text_2">
      <!-- 50 -->
      <g transform="translate(142.971284 322.182437) scale(0.1 -0.1)">
       <defs>
        <path id="DejaVuSans-35" d="M 691 4666 
L 3169 4666 
L 3169 4134 
L 1269 4134 
L 1269 2991 
Q 1406 3038 1543 3061 
Q 1681 3084 1819 3084 
Q 2600 3084 3056 2656 
Q 3513 2228 3513 1497 
Q 3513 744 3044 326 
Q 2575 -91 1722 -91 
Q 1428 -91 1123 -41 
Q 819 9 494 109 
L 494 744 
Q 775 591 1075 516 
Q 1375 441 1709 441 
Q 2250 441 2565 725 
Q 2881 1009 2881 1497 
Q 2881 1984 2565 2268 
Q 2250 2553 1709 2553 
Q 1456 2553 1204 2497 
Q 953 2441 691 2322 
L 691 4666 
z
" transform="scale(0.015625)"/>
       </defs>
       <use xlink:href="#DejaVuSans-35"/>
       <use xlink:href="#DejaVuSans-30" x="63.623047"/>
      </g>
     </g>
    </g>
    <g id="xtick_3">
     <g id="line2d_3">
      <g>
       <use xlink:href="#mbd553d367c" x="224.834841" y="307.584" style="stroke: #000000; stroke-width: 0.8"/>
      </g>
     </g>
     <g id="text_3">
      <!-- 100 -->
      <g transform="translate(215.291091 322.182437) scale(0.1 -0.1)">
       <defs>
        <path id="DejaVuSans-31" d="M 794 531 
L 1825 531 
L 1825 4091 
L 703 3866 
L 703 4441 
L 1819 4666 
L 2450 4666 
L 2450 531 
L 3481 531 
L 3481 0 
L 794 0 
L 794 531 
z
" transform="scale(0.015625)"/>
       </defs>
       <use xlink:href="#DejaVuSans-31"/>
       <use xlink:href="#DejaVuSans-30" x="63.623047"/>
       <use xlink:href="#DejaVuSans-30" x="127.246094"/>
      </g>
     </g>
    </g>
    <g id="xtick_4">
     <g id="line2d_4">
      <g>
       <use xlink:href="#mbd553d367c" x="300.335899" y="307.584" style="stroke: #000000; stroke-width: 0.8"/>
      </g>
     </g>
     <g id="text_4">
      <!-- 150 -->
      <g transform="translate(290.792149 322.182437) scale(0.1 -0.1)">
       <use xlink:href="#DejaVuSans-31"/>
       <use xlink:href="#DejaVuSans-35" x="63.623047"/>
       <use xlink:href="#DejaVuSans-30" x="127.246094"/>
      </g>
     </g>
    </g>
    <g id="xtick_5">
     <g id="line2d_5">
      <g>
       <use xlink:href="#mbd553d367c" x="375.836956" y="307.584" style="stroke: #000000; stroke-width: 0.8"/>
      </g>
     </g>
     <g id="text_5">
      <!-- 200 -->
      <g transform="translate(366.293206 322.182437) scale(0.1 -0.1)">
       <defs>
        <path id="DejaVuSans-32" d="M 1228 531 
L 3431 531 
L 3431 0 
L 469 0 
L 469 531 
Q 828 903 1448 1529 
Q 2069 2156 2228 2338 
Q 2531 2678 2651 2914 
Q 2772 3150 2772 3378 
Q 2772 3750 2511 3984 
Q 2250 4219 1831 4219 
Q 1534 4219 1204 4116 
Q 875 4013 500 3803 
L 500 4441 
Q 881 4594 1212 4672 
Q 1544 4750 1819 4750 
Q 2544 4750 2975 4387 
Q 3406 4025 3406 3419 
Q 3406 3131 3298 2873 
Q 3191 2616 2906 2266 
Q 2828 2175 2409 1742 
Q 1991 1309 1228 531 
z
" transform="scale(0.015625)"/>
       </defs>
       <use xlink:href="#DejaVuSans-32"/>
       <use xlink:href="#DejaVuSans-30" x="63.623047"/>
       <use xlink:href="#DejaVuSans-30" x="127.246094"/>
      </g>
     </g>
    </g>
   </g>
   <g id="matplotlib.axis_2">
    <g id="ytick_1">
     <g id="line2d_6">
      <defs>
       <path id="m969fd7f5f8" d="M 0 0 
L -3.5 0 
" style="stroke: #000000; stroke-width: 0.8"/>
      </defs>
      <g>
       <use xlink:href="#m969fd7f5f8" x="57.6" y="292.766432" style="stroke: #000000; stroke-width: 0.8"/>
      </g>
     </g>
     <g id="text_6">
      <!-- −800 -->
      <g transform="translate(23.132812 296.56565) scale(0.1 -0.1)">
       <defs>
        <path id="DejaVuSans-2212" d="M 678 2272 
L 4684 2272 
L 4684 1741 
L 678 1741 
L 678 2272 
z
" transform="scale(0.015625)"/>
        <path id="DejaVuSans-38" d="M 2034 2216 
Q 1584 2216 1326 1975 
Q 1069 1734 1069 1313 
Q 1069 891 1326 650 
Q 1584 409 2034 409 
Q 2484 409 2743 651 
Q 3003 894 3003 1313 
Q 3003 1734 2745 1975 
Q 2488 2216 2034 2216 
z
M 1403 2484 
Q 997 2584 770 2862 
Q 544 3141 544 3541 
Q 544 4100 942 4425 
Q 1341 4750 2034 4750 
Q 2731 4750 3128 4425 
Q 3525 4100 3525 3541 
Q 3525 3141 3298 2862 
Q 3072 2584 2669 2484 
Q 3125 2378 3379 2068 
Q 3634 1759 3634 1313 
Q 3634 634 3220 271 
Q 2806 -91 2034 -91 
Q 1263 -91 848 271 
Q 434 634 434 1313 
Q 434 1759 690 2068 
Q 947 2378 1403 2484 
z
M 1172 3481 
Q 1172 3119 1398 2916 
Q 1625 2713 2034 2713 
Q 2441 2713 2670 2916 
Q 2900 3119 2900 3481 
Q 2900 3844 2670 4047 
Q 2441 4250 2034 4250 
Q 1625 4250 1398 4047 
Q 1172 3844 1172 3481 
z
" transform="scale(0.015625)"/>
       </defs>
       <use xlink:href="#DejaVuSans-2212"/>
       <use xlink:href="#DejaVuSans-38" x="83.789062"/>
       <use xlink:href="#DejaVuSans-30" x="147.412109"/>
       <use xlink:href="#DejaVuSans-30" x="211.035156"/>
      </g>
     </g>
    </g>
    <g id="ytick_2">
     <g id="line2d_7">
      <g>
       <use xlink:href="#m969fd7f5f8" x="57.6" y="245.051033" style="stroke: #000000; stroke-width: 0.8"/>
      </g>
     </g>
     <g id="text_7">
      <!-- −600 -->
      <g transform="translate(23.132812 248.850252) scale(0.1 -0.1)">
       <defs>
        <path id="DejaVuSans-36" d="M 2113 2584 
Q 1688 2584 1439 2293 
Q 1191 2003 1191 1497 
Q 1191 994 1439 701 
Q 1688 409 2113 409 
Q 2538 409 2786 701 
Q 3034 994 3034 1497 
Q 3034 2003 2786 2293 
Q 2538 2584 2113 2584 
z
M 3366 4563 
L 3366 3988 
Q 3128 4100 2886 4159 
Q 2644 4219 2406 4219 
Q 1781 4219 1451 3797 
Q 1122 3375 1075 2522 
Q 1259 2794 1537 2939 
Q 1816 3084 2150 3084 
Q 2853 3084 3261 2657 
Q 3669 2231 3669 1497 
Q 3669 778 3244 343 
Q 2819 -91 2113 -91 
Q 1303 -91 875 529 
Q 447 1150 447 2328 
Q 447 3434 972 4092 
Q 1497 4750 2381 4750 
Q 2619 4750 2861 4703 
Q 3103 4656 3366 4563 
z
" transform="scale(0.015625)"/>
       </defs>
       <use xlink:href="#DejaVuSans-2212"/>
       <use xlink:href="#DejaVuSans-36" x="83.789062"/>
       <use xlink:href="#DejaVuSans-30" x="147.412109"/>
       <use xlink:href="#DejaVuSans-30" x="211.035156"/>
      </g>
     </g>
    </g>
    <g id="ytick_3">
     <g id="line2d_8">
      <g>
       <use xlink:href="#m969fd7f5f8" x="57.6" y="197.335635" style="stroke: #000000; stroke-width: 0.8"/>
      </g>
     </g>
     <g id="text_8">
      <!-- −400 -->
      <g transform="translate(23.132812 201.134854) scale(0.1 -0.1)">
       <defs>
        <path id="DejaVuSans-34" d="M 2419 4116 
L 825 1625 
L 2419 1625 
L 2419 4116 
z
M 2253 4666 
L 3047 4666 
L 3047 1625 
L 3713 1625 
L 3713 1100 
L 3047 1100 
L 3047 0 
L 2419 0 
L 2419 1100 
L 313 1100 
L 313 1709 
L 2253 4666 
z
" transform="scale(0.015625)"/>
       </defs>
       <use xlink:href="#DejaVuSans-2212"/>
       <use xlink:href="#DejaVuSans-34" x="83.789062"/>
       <use xlink:href="#DejaVuSans-30" x="147.412109"/>
       <use xlink:href="#DejaVuSans-30" x="211.035156"/>
      </g>
     </g>
    </g>
    <g id="ytick_4">
     <g id="line2d_9">
      <g>
       <use xlink:href="#m969fd7f5f8" x="57.6" y="149.620237" style="stroke: #000000; stroke-width: 0.8"/>
      </g>
     </g>
     <g id="text_9">
      <!-- −200 -->
      <g transform="translate(23.132812 153.419456) scale(0.1 -0.1)">
       <use xlink:href="#DejaVuSans-2212"/>
       <use xlink:href="#DejaVuSans-32" x="83.789062"/>
       <use xlink:href="#DejaVuSans-30" x="147.412109"/>
       <use xlink:href="#DejaVuSans-30" x="211.035156"/>
      </g>
     </g>
    </g>
    <g id="ytick_5">
     <g id="line2d_10">
      <g>
       <use xlink:href="#m969fd7f5f8" x="57.6" y="101.904839" style="stroke: #000000; stroke-width: 0.8"/>
      </g>
     </g>
     <g id="text_10">
      <!-- 0 -->
      <g transform="translate(44.2375 105.704058) scale(0.1 -0.1)">
       <use xlink:href="#DejaVuSans-30"/>
      </g>
     </g>
    </g>
    <g id="ytick_6">
     <g id="line2d_11">
      <g>
       <use xlink:href="#m969fd7f5f8" x="57.6" y="54.189441" style="stroke: #000000; stroke-width: 0.8"/>
      </g>
     </g>
     <g id="text_11">
      <!-- 200 -->
      <g transform="translate(31.5125 57.98866) scale(0.1 -0.1)">
       <use xlink:href="#DejaVuSans-32"/>
       <use xlink:href="#DejaVuSans-30" x="63.623047"/>
       <use xlink:href="#DejaVuSans-30" x="127.246094"/>
      </g>
     </g>
    </g>
   </g>
   <g id="line2d_12">
    <path d="M 73.832727 103.500587 
L 75.342748 109.810562 
L 76.85277 107.857422 
L 78.362791 106.314572 
L 79.872812 104.157749 
L 81.382833 101.264514 
L 82.892854 101.621093 
L 84.402875 98.947098 
L 85.912896 106.033843 
L 87.422918 116.937396 
L 88.932939 134.37287 
L 91.952981 118.586297 
L 93.463002 108.421134 
L 94.973023 111.486438 
L 96.483044 109.992402 
L 97.993066 109.921658 
L 99.503087 114.118293 
L 101.013108 116.000364 
L 102.523129 119.739188 
L 104.03315 116.8408 
L 105.543171 117.897022 
L 107.053192 113.089689 
L 110.073235 106.951445 
L 111.583256 108.008263 
L 113.093277 108.197032 
L 114.603298 105.235343 
L 117.62334 101.798555 
L 119.133362 101.466513 
L 120.643383 100.450073 
L 122.153404 97.315958 
L 123.663425 96.395856 
L 125.173446 96.812665 
L 126.683467 96.595423 
L 128.193488 109.095709 
L 129.70351 111.306618 
L 131.213531 104.546544 
L 132.723552 107.769215 
L 134.233573 107.34538 
L 135.743594 106.355733 
L 137.253615 104.198782 
L 138.763636 104.881056 
L 140.273658 104.413459 
L 141.783679 105.976916 
L 144.803721 112.847304 
L 146.313742 114.695866 
L 147.823763 119.952744 
L 149.333784 123.518964 
L 150.843805 127.898097 
L 152.353827 128.169911 
L 153.863848 124.61574 
L 155.373869 125.952957 
L 156.88389 123.074124 
L 158.393911 117.346512 
L 159.903932 124.199513 
L 161.413953 129.537375 
L 162.923975 130.69801 
L 164.433996 127.193907 
L 165.944017 121.488029 
L 167.454038 117.723874 
L 168.964059 115.281605 
L 170.47408 111.84636 
L 171.984101 116.482442 
L 173.494123 113.40279 
L 175.004144 118.067572 
L 176.514165 116.263971 
L 178.024186 116.753756 
L 179.534207 114.742325 
L 181.044228 117.123798 
L 182.554249 121.71528 
L 184.064271 120.973146 
L 185.574292 126.727284 
L 187.084313 128.754435 
L 188.594334 127.199539 
L 190.104355 122.993725 
L 191.614376 122.68651 
L 193.124397 118.386983 
L 194.634419 115.591738 
L 196.14444 120.329448 
L 197.654461 117.779208 
L 199.164482 124.332215 
L 200.674503 130.087339 
L 202.184524 129.875942 
L 203.694545 135.293363 
L 205.204567 132.504865 
L 206.714588 127.16457 
L 208.224609 124.192118 
L 209.73463 122.973882 
L 211.244651 128.590372 
L 212.754672 135.330185 
L 214.264693 131.013354 
L 215.774715 135.366076 
L 217.284736 132.835844 
L 218.794757 126.413086 
L 220.304778 125.766489 
L 221.814799 121.52949 
L 223.32482 129.104717 
L 224.834841 127.67387 
L 226.344863 129.131415 
L 227.854884 125.748355 
L 229.364905 121.494638 
L 230.874926 121.966862 
L 232.384947 122.309562 
L 233.894968 121.339587 
L 235.404989 127.310319 
L 236.915011 145.034276 
L 238.425032 135.787034 
L 239.935053 132.400789 
L 241.445074 130.73686 
L 242.955095 131.059625 
L 244.465116 123.387733 
L 245.975137 139.401293 
L 247.485159 134.511901 
L 248.99518 140.231068 
L 250.505201 130.679596 
L 252.015222 135.671138 
L 253.525243 136.618893 
L 255.035264 150.036515 
L 256.545285 141.379579 
L 258.055307 136.319115 
L 259.565328 130.674734 
L 261.075349 128.333434 
L 262.58537 122.893407 
L 264.095391 126.557755 
L 265.605412 138.86399 
L 267.115433 131.187901 
L 270.135476 129.686702 
L 271.645497 139.835231 
L 273.155518 135.802119 
L 274.665539 141.035483 
L 276.17556 138.485312 
L 277.685581 141.727439 
L 279.195603 142.777886 
L 280.705624 135.325276 
L 282.215645 142.413226 
L 283.725666 146.531564 
L 285.235687 164.41926 
L 286.745708 171.325408 
L 289.765751 178.401838 
L 291.275772 175.162525 
L 292.785793 185.224092 
L 294.295814 204.644443 
L 295.805835 199.358538 
L 297.315856 193.549883 
L 298.825877 188.911907 
L 300.335899 182.677519 
L 301.84592 180.972869 
L 303.355941 182.939254 
L 304.865962 191.852521 
L 306.375983 197.397897 
L 307.886004 195.49171 
L 309.396025 192.261149 
L 312.416068 211.070321 
L 313.926089 210.065712 
L 315.43611 220.786436 
L 316.946131 217.816827 
L 318.456152 216.065569 
L 319.966173 218.980829 
L 321.476195 214.792437 
L 322.986216 211.522955 
L 324.496237 206.472296 
L 326.006258 206.029021 
L 327.516279 209.061579 
L 329.0263 206.179191 
L 330.536321 213.289685 
L 332.046342 237.402009 
L 333.556364 236.411976 
L 335.066385 225.437087 
L 336.576406 218.929271 
L 338.086427 215.21399 
L 339.596448 206.494849 
L 341.106469 208.027476 
L 342.61649 224.106328 
L 344.126512 217.225471 
L 345.636533 217.830126 
L 347.146554 224.955305 
L 348.656575 229.34308 
L 350.166596 221.49693 
L 351.676617 228.00378 
L 353.186638 221.186467 
L 354.69666 216.825315 
L 356.206681 214.500316 
L 357.716702 215.449384 
L 359.226723 213.135895 
L 360.736744 217.779149 
L 362.246765 224.51946 
L 363.756786 244.676998 
L 365.266808 253.399064 
L 366.776829 292.079046 
L 368.28685 295.488 
L 369.796871 281.558333 
L 371.306892 262.229024 
L 374.326934 249.73541 
L 375.836956 249.957151 
L 377.346977 246.158471 
L 378.856998 255.181389 
L 380.367019 251.853725 
L 381.87704 245.186275 
L 383.387061 242.655666 
L 384.897082 246.583261 
L 386.407104 246.018547 
L 387.917125 242.315693 
L 389.427146 252.25818 
L 390.937167 252.91881 
L 392.447188 251.996054 
L 393.957209 248.285933 
L 395.46723 247.050872 
L 396.977252 264.699337 
L 398.487273 269.433049 
L 398.487273 269.433049 
" clip-path="url(#pa2e585d52d)" style="fill: none; stroke: #1f77b4; stroke-opacity: 0.7; stroke-width: 1.5; stroke-linecap: square"/>
   </g>
   <g id="line2d_13">
    <path d="M 73.832727 103.372989 
L 75.342748 109.478305 
L 76.85277 106.67136 
L 78.362791 104.846356 
L 79.872812 102.544347 
L 81.382833 99.669762 
L 82.892854 100.105557 
L 84.402875 97.184584 
L 85.912896 103.812534 
L 87.422918 114.745715 
L 88.932939 131.727866 
L 90.44296 120.743082 
L 93.463002 102.543982 
L 94.973023 107.139073 
L 96.483044 105.730494 
L 97.993066 106.033931 
L 99.503087 110.5228 
L 101.013108 112.310213 
L 102.523129 115.741953 
L 104.03315 112.162888 
L 105.543171 113.225045 
L 107.053192 108.191998 
L 110.073235 102.372855 
L 111.583256 103.544924 
L 113.093277 103.781704 
L 114.603298 100.757187 
L 116.113319 99.051095 
L 117.62334 97.087444 
L 119.133362 96.843363 
L 120.643383 95.878554 
L 122.153404 92.70048 
L 123.663425 91.750256 
L 125.173446 91.988048 
L 126.683467 91.628768 
L 128.193488 103.961091 
L 129.70351 106.737405 
L 131.213531 99.67386 
L 132.723552 103.202053 
L 134.233573 102.770765 
L 135.743594 101.766505 
L 137.253615 99.626295 
L 138.763636 100.216498 
L 140.273658 99.218658 
L 141.783679 100.541238 
L 143.2937 103.072856 
L 144.803721 105.923312 
L 146.313742 106.911108 
L 147.823763 110.70044 
L 149.333784 111.828185 
L 150.843805 113.574519 
L 152.353827 110.979544 
L 153.863848 105.41654 
L 155.373869 105.953648 
L 156.88389 102.048593 
L 158.393911 95.871856 
L 159.903932 103.180354 
L 161.413953 107.935345 
L 162.923975 107.872923 
L 164.433996 103.105222 
L 165.944017 96.881557 
L 167.454038 93.814832 
L 168.964059 91.080149 
L 170.47408 87.211139 
L 171.984101 91.353127 
L 173.494123 88.01336 
L 175.004144 91.611698 
L 176.514165 89.140107 
L 178.024186 89.086197 
L 179.534207 86.489519 
L 181.044228 88.207468 
L 182.554249 92.139415 
L 184.064271 91.214322 
L 185.574292 96.531009 
L 187.084313 97.068116 
L 188.594334 93.967982 
L 190.104355 89.101868 
L 191.614376 89.106968 
L 193.124397 84.877123 
L 194.634419 82.106994 
L 196.14444 86.584887 
L 197.654461 83.919826 
L 200.674503 95.387311 
L 202.184524 95.111992 
L 203.694545 99.618104 
L 205.204567 95.071772 
L 206.714588 89.241049 
L 208.224609 86.957377 
L 209.73463 85.911457 
L 211.244651 91.472422 
L 212.754672 98.189132 
L 214.264693 92.725342 
L 215.774715 97.015647 
L 217.284736 93.399685 
L 218.794757 86.732821 
L 220.304778 87.140396 
L 221.814799 83.023816 
L 223.32482 90.480879 
L 224.834841 89.234196 
L 226.344863 90.796244 
L 227.854884 87.359247 
L 229.364905 83.405705 
L 230.874926 84.142502 
L 232.384947 84.304709 
L 233.894968 82.910429 
L 235.404989 88.709654 
L 236.915011 106.341522 
L 238.425032 97.820797 
L 239.935053 95.763559 
L 241.445074 94.700276 
L 242.955095 95.441561 
L 244.465116 87.957444 
L 245.975137 104.870387 
L 247.485159 99.430287 
L 248.99518 105.534427 
L 250.505201 94.774544 
L 252.015222 100.585867 
L 253.525243 101.63505 
L 255.035264 114.896827 
L 256.545285 102.940419 
L 258.055307 98.154895 
L 259.565328 92.700505 
L 261.075349 90.781371 
L 262.58537 85.824252 
L 264.095391 89.991309 
L 265.605412 102.755894 
L 267.115433 95.909832 
L 268.625455 95.98666 
L 270.135476 95.776242 
L 271.645497 106.157205 
L 273.155518 101.321521 
L 274.665539 106.604722 
L 276.17556 103.185915 
L 277.685581 106.193266 
L 279.195603 106.475889 
L 280.705624 98.293248 
L 282.215645 105.74086 
L 283.725666 109.279199 
L 285.235687 126.045074 
L 286.745708 129.065549 
L 289.765751 126.755454 
L 291.275772 119.209839 
L 292.785793 124.906347 
L 294.295814 139.990914 
L 297.315856 116.071263 
L 300.335899 97.951439 
L 301.84592 93.939439 
L 303.355941 93.025287 
L 304.865962 99.445752 
L 306.375983 103.183089 
L 307.886004 99.466786 
L 309.396025 94.442743 
L 310.906047 102.368313 
L 312.416068 109.083797 
L 313.926089 105.536473 
L 315.43611 113.175228 
L 316.946131 106.450915 
L 318.456152 100.983581 
L 319.966173 100.88383 
L 321.476195 94.409438 
L 322.986216 89.739041 
L 324.496237 84.397358 
L 326.006258 83.323685 
L 327.516279 85.268106 
L 329.0263 80.352333 
L 330.536321 85.981177 
L 332.046342 108.952047 
L 333.556364 106.413411 
L 335.066385 91.013689 
L 336.576406 85.862088 
L 338.086427 83.279908 
L 339.596448 74.021719 
L 341.106469 74.779444 
L 342.61649 89.08289 
L 344.126512 82.16504 
L 345.636533 82.023228 
L 347.146554 88.538425 
L 348.656575 91.889263 
L 350.166596 82.413373 
L 351.676617 88.847499 
L 353.186638 81.216692 
L 354.69666 76.884775 
L 356.206681 74.235851 
L 357.716702 74.661489 
L 359.226723 70.779007 
L 360.736744 74.099582 
L 362.246765 80.007659 
L 363.756786 100.87863 
L 365.266808 106.99028 
L 366.776829 138.237796 
L 368.28685 124.374519 
L 369.796871 96.181754 
L 371.306892 72.152232 
L 372.816913 67.990098 
L 374.326934 60.752997 
L 375.836956 59.200868 
L 377.346977 55.82963 
L 378.856998 65.489393 
L 380.367019 62.183663 
L 381.87704 55.782494 
L 383.387061 53.819556 
L 384.897082 57.702052 
L 386.407104 56.959648 
L 387.917125 53.568 
L 389.427146 63.365775 
L 390.937167 63.639777 
L 392.447188 61.635074 
L 393.957209 57.117474 
L 395.46723 55.68088 
L 396.977252 73.319708 
L 398.487273 77.330197 
L 398.487273 77.330197 
" clip-path="url(#pa2e585d52d)" style="fill: none; stroke: #ff7f0e; stroke-opacity: 0.7; stroke-width: 1.5; stroke-linecap: square"/>
   </g>
   <g id="line2d_14">
    <path d="M 73.832727 103.507809 
L 75.342748 109.834706 
L 76.85277 107.235172 
L 79.872812 102.65672 
L 81.382833 99.892035 
L 82.892854 100.754541 
L 84.402875 98.203591 
L 85.912896 105.37386 
L 87.422918 116.442892 
L 88.932939 132.256015 
L 90.44296 121.116297 
L 93.463002 101.951974 
L 94.973023 107.016146 
L 96.483044 106.075204 
L 97.993066 106.927927 
L 99.503087 111.77257 
L 101.013108 113.879898 
L 102.523129 117.500898 
L 104.03315 113.727353 
L 105.543171 114.873761 
L 107.053192 109.546091 
L 108.563214 106.81184 
L 110.073235 104.862379 
L 111.583256 106.950165 
L 113.093277 107.48565 
L 114.603298 104.632884 
L 117.62334 101.743789 
L 119.133362 101.904657 
L 120.643383 101.252478 
L 122.153404 98.377382 
L 123.663425 97.782894 
L 125.173446 98.474789 
L 126.683467 98.332717 
L 128.193488 110.837151 
L 129.70351 112.967029 
L 131.213531 105.783903 
L 132.723552 108.990594 
L 134.233573 108.145647 
L 135.743594 106.998273 
L 137.253615 104.921173 
L 138.763636 105.80379 
L 140.273658 105.192078 
L 141.783679 106.753385 
L 144.803721 112.075436 
L 146.313742 113.057865 
L 147.823763 116.827828 
L 150.843805 120.91049 
L 152.353827 118.86796 
L 153.863848 113.797996 
L 155.373869 114.922188 
L 156.88389 111.781989 
L 158.393911 106.088676 
L 159.903932 113.965102 
L 161.413953 118.420602 
L 162.923975 118.390793 
L 164.433996 114.044941 
L 165.944017 107.960694 
L 167.454038 105.079227 
L 168.964059 103.603807 
L 170.47408 100.889943 
L 171.984101 106.164647 
L 173.494123 102.945133 
L 175.004144 107.092813 
L 176.514165 105.134502 
L 178.024186 105.304387 
L 179.534207 102.901062 
L 181.044228 105.119521 
L 182.554249 109.500858 
L 184.064271 108.193629 
L 185.574292 113.547363 
L 187.084313 114.620706 
L 188.594334 112.109332 
L 190.104355 107.244991 
L 191.614376 107.33382 
L 193.124397 103.501649 
L 194.634419 101.482286 
L 196.14444 106.884203 
L 197.654461 104.202331 
L 199.164482 110.520541 
L 200.674503 116.18039 
L 202.184524 115.178469 
L 203.694545 119.768022 
L 205.204567 115.743162 
L 206.714588 109.78951 
L 208.224609 107.298783 
L 209.73463 107.063166 
L 212.754672 119.728883 
L 214.264693 114.088358 
L 215.774715 118.002457 
L 217.284736 115.225189 
L 218.794757 108.542796 
L 220.304778 109.041773 
L 221.814799 105.491847 
L 223.32482 113.797912 
L 224.834841 112.10412 
L 226.344863 113.471949 
L 227.854884 109.831507 
L 229.364905 105.867064 
L 230.874926 106.761483 
L 232.384947 107.33397 
L 233.894968 106.336865 
L 235.404989 112.403902 
L 236.915011 130.05271 
L 238.425032 118.715354 
L 239.935053 115.56438 
L 241.445074 114.014526 
L 242.955095 114.700668 
L 244.465116 107.287581 
L 245.975137 124.880379 
L 247.485159 119.768371 
L 248.99518 125.026216 
L 250.505201 114.015675 
L 252.015222 119.578675 
L 253.525243 120.001991 
L 255.035264 132.866576 
L 256.545285 121.855736 
L 258.055307 115.92724 
L 259.565328 110.474299 
L 261.075349 109.894377 
L 262.58537 105.713021 
L 264.095391 111.037764 
L 265.605412 123.939289 
L 267.115433 114.984819 
L 270.135476 113.988965 
L 271.645497 124.251177 
L 273.155518 118.544883 
L 274.665539 123.314343 
L 276.17556 119.642421 
L 277.685581 122.760973 
L 279.195603 123.351121 
L 280.705624 115.003225 
L 282.215645 122.534766 
L 283.725666 125.638807 
L 285.235687 142.269049 
L 286.745708 146.837646 
L 288.255729 148.037105 
L 289.765751 149.614417 
L 291.275772 144.804496 
L 292.785793 153.161839 
L 294.295814 171.120638 
L 295.805835 164.042083 
L 297.315856 155.898152 
L 300.335899 142.264486 
L 301.84592 140.662249 
L 303.355941 141.816392 
L 304.865962 149.996757 
L 306.375983 153.877735 
L 307.886004 150.415101 
L 309.396025 145.803869 
L 310.906047 154.523296 
L 312.416068 161.365309 
L 313.926089 158.899983 
L 315.43611 168.170175 
L 318.456152 160.35921 
L 319.966173 161.882285 
L 321.476195 156.383274 
L 322.986216 152.446845 
L 324.496237 147.980284 
L 326.006258 148.204932 
L 327.516279 151.052385 
L 329.0263 147.256017 
L 330.536321 153.764403 
L 332.046342 177.359434 
L 333.556364 175.634603 
L 335.066385 162.714296 
L 336.576406 156.830768 
L 338.086427 154.764925 
L 339.596448 146.915716 
L 341.106469 150.007634 
L 342.61649 166.614591 
L 344.126512 158.305604 
L 345.636533 158.030216 
L 347.146554 164.776098 
L 348.656575 168.562287 
L 350.166596 159.723546 
L 351.676617 166.079158 
L 353.186638 158.285974 
L 354.69666 153.91706 
L 356.206681 152.339795 
L 357.716702 153.787474 
L 359.226723 151.099401 
L 360.736744 155.440599 
L 362.246765 162.006902 
L 363.756786 182.206511 
L 365.266808 185.749236 
L 366.776829 218.283505 
L 368.28685 210.330068 
L 369.796871 190.881643 
L 371.306892 168.89689 
L 372.816913 164.781845 
L 374.326934 160.088394 
L 375.836956 161.003513 
L 377.346977 159.441184 
L 378.856998 170.373125 
L 380.367019 168.598511 
L 381.87704 162.342011 
L 383.387061 161.176448 
L 384.897082 166.198661 
L 386.407104 165.799376 
L 387.917125 162.476351 
L 389.427146 172.974603 
L 390.937167 173.581063 
L 392.447188 172.203499 
L 393.957209 168.337653 
L 395.46723 167.363779 
L 396.977252 185.462101 
L 398.487273 189.529604 
L 398.487273 189.529604 
" clip-path="url(#pa2e585d52d)" style="fill: none; stroke: #2ca02c; stroke-opacity: 0.7; stroke-width: 1.5; stroke-linecap: square"/>
   </g>
   <g id="patch_3">
    <path d="M 57.6 307.584 
L 57.6 41.472 
" style="fill: none; stroke: #000000; stroke-width: 0.8; stroke-linejoin: miter; stroke-linecap: square"/>
   </g>
   <g id="patch_4">
    <path d="M 414.72 307.584 
L 414.72 41.472 
" style="fill: none; stroke: #000000; stroke-width: 0.8; stroke-linejoin: miter; stroke-linecap: square"/>
   </g>
   <g id="patch_5">
    <path d="M 57.6 307.584 
L 414.72 307.584 
" style="fill: none; stroke: #000000; stroke-width: 0.8; stroke-linejoin: miter; stroke-linecap: square"/>
   </g>
   <g id="patch_6">
    <path d="M 57.6 41.472 
L 414.72 41.472 
" style="fill: none; stroke: #000000; stroke-width: 0.8; stroke-linejoin: miter; stroke-linecap: square"/>
   </g>
   <g id="text_12">
    <!-- zhang_extended_simrank_cci -->
    <g transform="translate(148.303125 35.472) scale(0.12 -0.12)">
     <defs>
      <path id="DejaVuSans-7a" d="M 353 3500 
L 3084 3500 
L 3084 2975 
L 922 459 
L 3084 459 
L 3084 0 
L 275 0 
L 275 525 
L 2438 3041 
L 353 3041 
L 353 3500 
z
" transform="scale(0.015625)"/>
      <path id="DejaVuSans-68" d="M 3513 2113 
L 3513 0 
L 2938 0 
L 2938 2094 
Q 2938 2591 2744 2837 
Q 2550 3084 2163 3084 
Q 1697 3084 1428 2787 
Q 1159 2491 1159 1978 
L 1159 0 
L 581 0 
L 581 4863 
L 1159 4863 
L 1159 2956 
Q 1366 3272 1645 3428 
Q 1925 3584 2291 3584 
Q 2894 3584 3203 3211 
Q 3513 2838 3513 2113 
z
" transform="scale(0.015625)"/>
      <path id="DejaVuSans-61" d="M 2194 1759 
Q 1497 1759 1228 1600 
Q 959 1441 959 1056 
Q 959 750 1161 570 
Q 1363 391 1709 391 
Q 2188 391 2477 730 
Q 2766 1069 2766 1631 
L 2766 1759 
L 2194 1759 
z
M 3341 1997 
L 3341 0 
L 2766 0 
L 2766 531 
Q 2569 213 2275 61 
Q 1981 -91 1556 -91 
Q 1019 -91 701 211 
Q 384 513 384 1019 
Q 384 1609 779 1909 
Q 1175 2209 1959 2209 
L 2766 2209 
L 2766 2266 
Q 2766 2663 2505 2880 
Q 2244 3097 1772 3097 
Q 1472 3097 1187 3025 
Q 903 2953 641 2809 
L 641 3341 
Q 956 3463 1253 3523 
Q 1550 3584 1831 3584 
Q 2591 3584 2966 3190 
Q 3341 2797 3341 1997 
z
" transform="scale(0.015625)"/>
      <path id="DejaVuSans-6e" d="M 3513 2113 
L 3513 0 
L 2938 0 
L 2938 2094 
Q 2938 2591 2744 2837 
Q 2550 3084 2163 3084 
Q 1697 3084 1428 2787 
Q 1159 2491 1159 1978 
L 1159 0 
L 581 0 
L 581 3500 
L 1159 3500 
L 1159 2956 
Q 1366 3272 1645 3428 
Q 1925 3584 2291 3584 
Q 2894 3584 3203 3211 
Q 3513 2838 3513 2113 
z
" transform="scale(0.015625)"/>
      <path id="DejaVuSans-67" d="M 2906 1791 
Q 2906 2416 2648 2759 
Q 2391 3103 1925 3103 
Q 1463 3103 1205 2759 
Q 947 2416 947 1791 
Q 947 1169 1205 825 
Q 1463 481 1925 481 
Q 2391 481 2648 825 
Q 2906 1169 2906 1791 
z
M 3481 434 
Q 3481 -459 3084 -895 
Q 2688 -1331 1869 -1331 
Q 1566 -1331 1297 -1286 
Q 1028 -1241 775 -1147 
L 775 -588 
Q 1028 -725 1275 -790 
Q 1522 -856 1778 -856 
Q 2344 -856 2625 -561 
Q 2906 -266 2906 331 
L 2906 616 
Q 2728 306 2450 153 
Q 2172 0 1784 0 
Q 1141 0 747 490 
Q 353 981 353 1791 
Q 353 2603 747 3093 
Q 1141 3584 1784 3584 
Q 2172 3584 2450 3431 
Q 2728 3278 2906 2969 
L 2906 3500 
L 3481 3500 
L 3481 434 
z
" transform="scale(0.015625)"/>
      <path id="DejaVuSans-5f" d="M 3263 -1063 
L 3263 -1509 
L -63 -1509 
L -63 -1063 
L 3263 -1063 
z
" transform="scale(0.015625)"/>
      <path id="DejaVuSans-65" d="M 3597 1894 
L 3597 1613 
L 953 1613 
Q 991 1019 1311 708 
Q 1631 397 2203 397 
Q 2534 397 2845 478 
Q 3156 559 3463 722 
L 3463 178 
Q 3153 47 2828 -22 
Q 2503 -91 2169 -91 
Q 1331 -91 842 396 
Q 353 884 353 1716 
Q 353 2575 817 3079 
Q 1281 3584 2069 3584 
Q 2775 3584 3186 3129 
Q 3597 2675 3597 1894 
z
M 3022 2063 
Q 3016 2534 2758 2815 
Q 2500 3097 2075 3097 
Q 1594 3097 1305 2825 
Q 1016 2553 972 2059 
L 3022 2063 
z
" transform="scale(0.015625)"/>
      <path id="DejaVuSans-78" d="M 3513 3500 
L 2247 1797 
L 3578 0 
L 2900 0 
L 1881 1375 
L 863 0 
L 184 0 
L 1544 1831 
L 300 3500 
L 978 3500 
L 1906 2253 
L 2834 3500 
L 3513 3500 
z
" transform="scale(0.015625)"/>
      <path id="DejaVuSans-74" d="M 1172 4494 
L 1172 3500 
L 2356 3500 
L 2356 3053 
L 1172 3053 
L 1172 1153 
Q 1172 725 1289 603 
Q 1406 481 1766 481 
L 2356 481 
L 2356 0 
L 1766 0 
Q 1100 0 847 248 
Q 594 497 594 1153 
L 594 3053 
L 172 3053 
L 172 3500 
L 594 3500 
L 594 4494 
L 1172 4494 
z
" transform="scale(0.015625)"/>
      <path id="DejaVuSans-64" d="M 2906 2969 
L 2906 4863 
L 3481 4863 
L 3481 0 
L 2906 0 
L 2906 525 
Q 2725 213 2448 61 
Q 2172 -91 1784 -91 
Q 1150 -91 751 415 
Q 353 922 353 1747 
Q 353 2572 751 3078 
Q 1150 3584 1784 3584 
Q 2172 3584 2448 3432 
Q 2725 3281 2906 2969 
z
M 947 1747 
Q 947 1113 1208 752 
Q 1469 391 1925 391 
Q 2381 391 2643 752 
Q 2906 1113 2906 1747 
Q 2906 2381 2643 2742 
Q 2381 3103 1925 3103 
Q 1469 3103 1208 2742 
Q 947 2381 947 1747 
z
" transform="scale(0.015625)"/>
      <path id="DejaVuSans-73" d="M 2834 3397 
L 2834 2853 
Q 2591 2978 2328 3040 
Q 2066 3103 1784 3103 
Q 1356 3103 1142 2972 
Q 928 2841 928 2578 
Q 928 2378 1081 2264 
Q 1234 2150 1697 2047 
L 1894 2003 
Q 2506 1872 2764 1633 
Q 3022 1394 3022 966 
Q 3022 478 2636 193 
Q 2250 -91 1575 -91 
Q 1294 -91 989 -36 
Q 684 19 347 128 
L 347 722 
Q 666 556 975 473 
Q 1284 391 1588 391 
Q 1994 391 2212 530 
Q 2431 669 2431 922 
Q 2431 1156 2273 1281 
Q 2116 1406 1581 1522 
L 1381 1569 
Q 847 1681 609 1914 
Q 372 2147 372 2553 
Q 372 3047 722 3315 
Q 1072 3584 1716 3584 
Q 2034 3584 2315 3537 
Q 2597 3491 2834 3397 
z
" transform="scale(0.015625)"/>
      <path id="DejaVuSans-69" d="M 603 3500 
L 1178 3500 
L 1178 0 
L 603 0 
L 603 3500 
z
M 603 4863 
L 1178 4863 
L 1178 4134 
L 603 4134 
L 603 4863 
z
" transform="scale(0.015625)"/>
      <path id="DejaVuSans-6d" d="M 3328 2828 
Q 3544 3216 3844 3400 
Q 4144 3584 4550 3584 
Q 5097 3584 5394 3201 
Q 5691 2819 5691 2113 
L 5691 0 
L 5113 0 
L 5113 2094 
Q 5113 2597 4934 2840 
Q 4756 3084 4391 3084 
Q 3944 3084 3684 2787 
Q 3425 2491 3425 1978 
L 3425 0 
L 2847 0 
L 2847 2094 
Q 2847 2600 2669 2842 
Q 2491 3084 2119 3084 
Q 1678 3084 1418 2786 
Q 1159 2488 1159 1978 
L 1159 0 
L 581 0 
L 581 3500 
L 1159 3500 
L 1159 2956 
Q 1356 3278 1631 3431 
Q 1906 3584 2284 3584 
Q 2666 3584 2933 3390 
Q 3200 3197 3328 2828 
z
" transform="scale(0.015625)"/>
      <path id="DejaVuSans-72" d="M 2631 2963 
Q 2534 3019 2420 3045 
Q 2306 3072 2169 3072 
Q 1681 3072 1420 2755 
Q 1159 2438 1159 1844 
L 1159 0 
L 581 0 
L 581 3500 
L 1159 3500 
L 1159 2956 
Q 1341 3275 1631 3429 
Q 1922 3584 2338 3584 
Q 2397 3584 2469 3576 
Q 2541 3569 2628 3553 
L 2631 2963 
z
" transform="scale(0.015625)"/>
      <path id="DejaVuSans-6b" d="M 581 4863 
L 1159 4863 
L 1159 1991 
L 2875 3500 
L 3609 3500 
L 1753 1863 
L 3688 0 
L 2938 0 
L 1159 1709 
L 1159 0 
L 581 0 
L 581 4863 
z
" transform="scale(0.015625)"/>
      <path id="DejaVuSans-63" d="M 3122 3366 
L 3122 2828 
Q 2878 2963 2633 3030 
Q 2388 3097 2138 3097 
Q 1578 3097 1268 2742 
Q 959 2388 959 1747 
Q 959 1106 1268 751 
Q 1578 397 2138 397 
Q 2388 397 2633 464 
Q 2878 531 3122 666 
L 3122 134 
Q 2881 22 2623 -34 
Q 2366 -91 2075 -91 
Q 1284 -91 818 406 
Q 353 903 353 1747 
Q 353 2603 823 3093 
Q 1294 3584 2113 3584 
Q 2378 3584 2631 3529 
Q 2884 3475 3122 3366 
z
" transform="scale(0.015625)"/>
     </defs>
     <use xlink:href="#DejaVuSans-7a"/>
     <use xlink:href="#DejaVuSans-68" x="52.490234"/>
     <use xlink:href="#DejaVuSans-61" x="115.869141"/>
     <use xlink:href="#DejaVuSans-6e" x="177.148438"/>
     <use xlink:href="#DejaVuSans-67" x="240.527344"/>
     <use xlink:href="#DejaVuSans-5f" x="304.003906"/>
     <use xlink:href="#DejaVuSans-65" x="354.003906"/>
     <use xlink:href="#DejaVuSans-78" x="413.777344"/>
     <use xlink:href="#DejaVuSans-74" x="472.957031"/>
     <use xlink:href="#DejaVuSans-65" x="512.166016"/>
     <use xlink:href="#DejaVuSans-6e" x="573.689453"/>
     <use xlink:href="#DejaVuSans-64" x="637.068359"/>
     <use xlink:href="#DejaVuSans-65" x="700.544922"/>
     <use xlink:href="#DejaVuSans-64" x="762.068359"/>
     <use xlink:href="#DejaVuSans-5f" x="825.544922"/>
     <use xlink:href="#DejaVuSans-73" x="875.544922"/>
     <use xlink:href="#DejaVuSans-69" x="927.644531"/>
     <use xlink:href="#DejaVuSans-6d" x="955.427734"/>
     <use xlink:href="#DejaVuSans-72" x="1052.839844"/>
     <use xlink:href="#DejaVuSans-61" x="1093.953125"/>
     <use xlink:href="#DejaVuSans-6e" x="1155.232422"/>
     <use xlink:href="#DejaVuSans-6b" x="1218.611328"/>
     <use xlink:href="#DejaVuSans-5f" x="1276.521484"/>
     <use xlink:href="#DejaVuSans-63" x="1326.521484"/>
     <use xlink:href="#DejaVuSans-63" x="1381.501953"/>
     <use xlink:href="#DejaVuSans-69" x="1436.482422"/>
    </g>
   </g>
   <g id="legend_1">
    <g id="patch_7">
     <path d="M 64.6 302.584 
L 258.804688 302.584 
Q 260.804688 302.584 260.804688 300.584 
L 260.804688 257.549625 
Q 260.804688 255.549625 258.804688 255.549625 
L 64.6 255.549625 
Q 62.6 255.549625 62.6 257.549625 
L 62.6 300.584 
Q 62.6 302.584 64.6 302.584 
z
" style="fill: #ffffff; opacity: 0.8; stroke: #cccccc; stroke-linejoin: miter"/>
    </g>
    <g id="line2d_15">
     <path d="M 66.6 263.648062 
L 76.6 263.648062 
L 86.6 263.648062 
" style="fill: none; stroke: #1f77b4; stroke-opacity: 0.7; stroke-width: 1.5; stroke-linecap: square"/>
    </g>
    <g id="text_13">
     <!-- Positive cumulative predictions -->
     <g transform="translate(94.6 267.148062) scale(0.1 -0.1)">
      <defs>
       <path id="DejaVuSans-50" d="M 1259 4147 
L 1259 2394 
L 2053 2394 
Q 2494 2394 2734 2622 
Q 2975 2850 2975 3272 
Q 2975 3691 2734 3919 
Q 2494 4147 2053 4147 
L 1259 4147 
z
M 628 4666 
L 2053 4666 
Q 2838 4666 3239 4311 
Q 3641 3956 3641 3272 
Q 3641 2581 3239 2228 
Q 2838 1875 2053 1875 
L 1259 1875 
L 1259 0 
L 628 0 
L 628 4666 
z
" transform="scale(0.015625)"/>
       <path id="DejaVuSans-6f" d="M 1959 3097 
Q 1497 3097 1228 2736 
Q 959 2375 959 1747 
Q 959 1119 1226 758 
Q 1494 397 1959 397 
Q 2419 397 2687 759 
Q 2956 1122 2956 1747 
Q 2956 2369 2687 2733 
Q 2419 3097 1959 3097 
z
M 1959 3584 
Q 2709 3584 3137 3096 
Q 3566 2609 3566 1747 
Q 3566 888 3137 398 
Q 2709 -91 1959 -91 
Q 1206 -91 779 398 
Q 353 888 353 1747 
Q 353 2609 779 3096 
Q 1206 3584 1959 3584 
z
" transform="scale(0.015625)"/>
       <path id="DejaVuSans-76" d="M 191 3500 
L 800 3500 
L 1894 563 
L 2988 3500 
L 3597 3500 
L 2284 0 
L 1503 0 
L 191 3500 
z
" transform="scale(0.015625)"/>
       <path id="DejaVuSans-20" transform="scale(0.015625)"/>
       <path id="DejaVuSans-75" d="M 544 1381 
L 544 3500 
L 1119 3500 
L 1119 1403 
Q 1119 906 1312 657 
Q 1506 409 1894 409 
Q 2359 409 2629 706 
Q 2900 1003 2900 1516 
L 2900 3500 
L 3475 3500 
L 3475 0 
L 2900 0 
L 2900 538 
Q 2691 219 2414 64 
Q 2138 -91 1772 -91 
Q 1169 -91 856 284 
Q 544 659 544 1381 
z
M 1991 3584 
L 1991 3584 
z
" transform="scale(0.015625)"/>
       <path id="DejaVuSans-6c" d="M 603 4863 
L 1178 4863 
L 1178 0 
L 603 0 
L 603 4863 
z
" transform="scale(0.015625)"/>
       <path id="DejaVuSans-70" d="M 1159 525 
L 1159 -1331 
L 581 -1331 
L 581 3500 
L 1159 3500 
L 1159 2969 
Q 1341 3281 1617 3432 
Q 1894 3584 2278 3584 
Q 2916 3584 3314 3078 
Q 3713 2572 3713 1747 
Q 3713 922 3314 415 
Q 2916 -91 2278 -91 
Q 1894 -91 1617 61 
Q 1341 213 1159 525 
z
M 3116 1747 
Q 3116 2381 2855 2742 
Q 2594 3103 2138 3103 
Q 1681 3103 1420 2742 
Q 1159 2381 1159 1747 
Q 1159 1113 1420 752 
Q 1681 391 2138 391 
Q 2594 391 2855 752 
Q 3116 1113 3116 1747 
z
" transform="scale(0.015625)"/>
      </defs>
      <use xlink:href="#DejaVuSans-50"/>
      <use xlink:href="#DejaVuSans-6f" x="56.677734"/>
      <use xlink:href="#DejaVuSans-73" x="117.859375"/>
      <use xlink:href="#DejaVuSans-69" x="169.958984"/>
      <use xlink:href="#DejaVuSans-74" x="197.742188"/>
      <use xlink:href="#DejaVuSans-69" x="236.951172"/>
      <use xlink:href="#DejaVuSans-76" x="264.734375"/>
      <use xlink:href="#DejaVuSans-65" x="323.914062"/>
      <use xlink:href="#DejaVuSans-20" x="385.4375"/>
      <use xlink:href="#DejaVuSans-63" x="417.224609"/>
      <use xlink:href="#DejaVuSans-75" x="472.205078"/>
      <use xlink:href="#DejaVuSans-6d" x="535.583984"/>
      <use xlink:href="#DejaVuSans-75" x="632.996094"/>
      <use xlink:href="#DejaVuSans-6c" x="696.375"/>
      <use xlink:href="#DejaVuSans-61" x="724.158203"/>
      <use xlink:href="#DejaVuSans-74" x="785.4375"/>
      <use xlink:href="#DejaVuSans-69" x="824.646484"/>
      <use xlink:href="#DejaVuSans-76" x="852.429688"/>
      <use xlink:href="#DejaVuSans-65" x="911.609375"/>
      <use xlink:href="#DejaVuSans-20" x="973.132812"/>
      <use xlink:href="#DejaVuSans-70" x="1004.919922"/>
      <use xlink:href="#DejaVuSans-72" x="1068.396484"/>
      <use xlink:href="#DejaVuSans-65" x="1107.259766"/>
      <use xlink:href="#DejaVuSans-64" x="1168.783203"/>
      <use xlink:href="#DejaVuSans-69" x="1232.259766"/>
      <use xlink:href="#DejaVuSans-63" x="1260.042969"/>
      <use xlink:href="#DejaVuSans-74" x="1315.023438"/>
      <use xlink:href="#DejaVuSans-69" x="1354.232422"/>
      <use xlink:href="#DejaVuSans-6f" x="1382.015625"/>
      <use xlink:href="#DejaVuSans-6e" x="1443.197266"/>
      <use xlink:href="#DejaVuSans-73" x="1506.576172"/>
     </g>
    </g>
    <g id="line2d_16">
     <path d="M 66.6 278.326188 
L 76.6 278.326188 
L 86.6 278.326188 
" style="fill: none; stroke: #ff7f0e; stroke-opacity: 0.7; stroke-width: 1.5; stroke-linecap: square"/>
    </g>
    <g id="text_14">
     <!-- Negative cumulative predictions -->
     <g transform="translate(94.6 281.826188) scale(0.1 -0.1)">
      <defs>
       <path id="DejaVuSans-4e" d="M 628 4666 
L 1478 4666 
L 3547 763 
L 3547 4666 
L 4159 4666 
L 4159 0 
L 3309 0 
L 1241 3903 
L 1241 0 
L 628 0 
L 628 4666 
z
" transform="scale(0.015625)"/>
      </defs>
      <use xlink:href="#DejaVuSans-4e"/>
      <use xlink:href="#DejaVuSans-65" x="74.804688"/>
      <use xlink:href="#DejaVuSans-67" x="136.328125"/>
      <use xlink:href="#DejaVuSans-61" x="199.804688"/>
      <use xlink:href="#DejaVuSans-74" x="261.083984"/>
      <use xlink:href="#DejaVuSans-69" x="300.292969"/>
      <use xlink:href="#DejaVuSans-76" x="328.076172"/>
      <use xlink:href="#DejaVuSans-65" x="387.255859"/>
      <use xlink:href="#DejaVuSans-20" x="448.779297"/>
      <use xlink:href="#DejaVuSans-63" x="480.566406"/>
      <use xlink:href="#DejaVuSans-75" x="535.546875"/>
      <use xlink:href="#DejaVuSans-6d" x="598.925781"/>
      <use xlink:href="#DejaVuSans-75" x="696.337891"/>
      <use xlink:href="#DejaVuSans-6c" x="759.716797"/>
      <use xlink:href="#DejaVuSans-61" x="787.5"/>
      <use xlink:href="#DejaVuSans-74" x="848.779297"/>
      <use xlink:href="#DejaVuSans-69" x="887.988281"/>
      <use xlink:href="#DejaVuSans-76" x="915.771484"/>
      <use xlink:href="#DejaVuSans-65" x="974.951172"/>
      <use xlink:href="#DejaVuSans-20" x="1036.474609"/>
      <use xlink:href="#DejaVuSans-70" x="1068.261719"/>
      <use xlink:href="#DejaVuSans-72" x="1131.738281"/>
      <use xlink:href="#DejaVuSans-65" x="1170.601562"/>
      <use xlink:href="#DejaVuSans-64" x="1232.125"/>
      <use xlink:href="#DejaVuSans-69" x="1295.601562"/>
      <use xlink:href="#DejaVuSans-63" x="1323.384766"/>
      <use xlink:href="#DejaVuSans-74" x="1378.365234"/>
      <use xlink:href="#DejaVuSans-69" x="1417.574219"/>
      <use xlink:href="#DejaVuSans-6f" x="1445.357422"/>
      <use xlink:href="#DejaVuSans-6e" x="1506.539062"/>
      <use xlink:href="#DejaVuSans-73" x="1569.917969"/>
     </g>
    </g>
    <g id="line2d_17">
     <path d="M 66.6 293.004312 
L 76.6 293.004312 
L 86.6 293.004312 
" style="fill: none; stroke: #2ca02c; stroke-opacity: 0.7; stroke-width: 1.5; stroke-linecap: square"/>
    </g>
    <g id="text_15">
     <!-- Average cumulative predictions -->
     <g transform="translate(94.6 296.504312) scale(0.1 -0.1)">
      <defs>
       <path id="DejaVuSans-41" d="M 2188 4044 
L 1331 1722 
L 3047 1722 
L 2188 4044 
z
M 1831 4666 
L 2547 4666 
L 4325 0 
L 3669 0 
L 3244 1197 
L 1141 1197 
L 716 0 
L 50 0 
L 1831 4666 
z
" transform="scale(0.015625)"/>
      </defs>
      <use xlink:href="#DejaVuSans-41"/>
      <use xlink:href="#DejaVuSans-76" x="62.533203"/>
      <use xlink:href="#DejaVuSans-65" x="121.712891"/>
      <use xlink:href="#DejaVuSans-72" x="183.236328"/>
      <use xlink:href="#DejaVuSans-61" x="224.349609"/>
      <use xlink:href="#DejaVuSans-67" x="285.628906"/>
      <use xlink:href="#DejaVuSans-65" x="349.105469"/>
      <use xlink:href="#DejaVuSans-20" x="410.628906"/>
      <use xlink:href="#DejaVuSans-63" x="442.416016"/>
      <use xlink:href="#DejaVuSans-75" x="497.396484"/>
      <use xlink:href="#DejaVuSans-6d" x="560.775391"/>
      <use xlink:href="#DejaVuSans-75" x="658.1875"/>
      <use xlink:href="#DejaVuSans-6c" x="721.566406"/>
      <use xlink:href="#DejaVuSans-61" x="749.349609"/>
      <use xlink:href="#DejaVuSans-74" x="810.628906"/>
      <use xlink:href="#DejaVuSans-69" x="849.837891"/>
      <use xlink:href="#DejaVuSans-76" x="877.621094"/>
      <use xlink:href="#DejaVuSans-65" x="936.800781"/>
      <use xlink:href="#DejaVuSans-20" x="998.324219"/>
      <use xlink:href="#DejaVuSans-70" x="1030.111328"/>
      <use xlink:href="#DejaVuSans-72" x="1093.587891"/>
      <use xlink:href="#DejaVuSans-65" x="1132.451172"/>
      <use xlink:href="#DejaVuSans-64" x="1193.974609"/>
      <use xlink:href="#DejaVuSans-69" x="1257.451172"/>
      <use xlink:href="#DejaVuSans-63" x="1285.234375"/>
      <use xlink:href="#DejaVuSans-74" x="1340.214844"/>
      <use xlink:href="#DejaVuSans-69" x="1379.423828"/>
      <use xlink:href="#DejaVuSans-6f" x="1407.207031"/>
      <use xlink:href="#DejaVuSans-6e" x="1468.388672"/>
      <use xlink:href="#DejaVuSans-73" x="1531.767578"/>
     </g>
    </g>
   </g>
  </g>
 </g>
 <defs>
  <clipPath id="pa2e585d52d">
   <rect x="57.6" y="41.472" width="357.12" height="266.112"/>
  </clipPath>
 </defs>
</svg>
